<?xml version="1.0" encoding="utf-8"?>
<!-- Generator: Adobe Illustrator 18.0.0, SVG Export Plug-In . SVG Version: 6.00 Build 0)  -->
<!DOCTYPE svg PUBLIC "-//W3C//DTD SVG 1.1//EN" "http://www.w3.org/Graphics/SVG/1.1/DTD/svg11.dtd">
<svg version="1.1" id="レイヤー_1" xmlns="http://www.w3.org/2000/svg" xmlns:xlink="http://www.w3.org/1999/xlink" x="0px"
	 y="0px" width="64px" height="64px" viewBox="0 0 64 64" style="enable-background:new 0 0 64 64;" xml:space="preserve">
<g>
	<linearGradient id="SVGID_1_" gradientUnits="userSpaceOnUse" x1="32" y1="0.8777384" x2="32" y2="8">
		<stop  offset="0" style="stop-color:#141A33"/>
		<stop  offset="1" style="stop-color:#0F101F"/>
	</linearGradient>
	<path style="fill:url(#SVGID_1_);" d="M42.5351067,7.9973216l10.903019-2.3204875
		c0.1290817-0.027472,0.1290817-0.2116942,0-0.2391663l-21.412674-4.557251c-0.0167809-0.0035712-0.0341225-0.0035712-0.0509033,0
		l-21.412674,4.557251c-0.1290808,0.027472-0.1290817,0.2116942,0,0.2391663l10.9030199,2.3204875
		C21.4732609,7.9991021,21.4817905,8,21.490345,8h21.01931C42.5182114,8,42.526741,7.9991021,42.5351067,7.9973216z"/>
	<path style="fill:#231815;" d="M42.5097656,8.25L21.4213867,8.2436523L10.5097656,5.9213867
		c-0.1728516-0.0366211-0.2944336-0.1860352-0.2949219-0.3632813c0-0.1777344,0.1210938-0.3276367,0.2944336-0.3652344
		l21.5161133-4.5649414l0.050293,0.0073242l21.4145508,4.5576172c0.1748047,0.0375977,0.2949219,0.1879883,0.2949219,0.3652344
		s-0.1210938,0.3266602-0.2949219,0.3632813L42.5097656,8.25z M11.2001953,5.5571289l10.3168945,2.1958008L42.4980469,7.75
		l10.3017578-2.1928711L31.9731445,1.125L11.2001953,5.5571289z"/>
</g>
<g>
	<linearGradient id="SVGID_2_" gradientUnits="userSpaceOnUse" x1="16.382288" y1="7.8155913" x2="47.6177101" y2="7.8155913">
		<stop  offset="0" style="stop-color:#0F101F"/>
		<stop  offset="0.3" style="stop-color:#141A33"/>
		<stop  offset="0.7" style="stop-color:#141A33"/>
		<stop  offset="1" style="stop-color:#0F101F"/>
	</linearGradient>
	<path style="fill:url(#SVGID_2_);" d="M47.0068855,5.7856569c-0.004303-0.0424891-0.0242424-0.0762367-0.0634346-0.0932055
		C46.4051666,5.4593821,41.9845963,3.6875,32,3.6875S17.5948315,5.4593821,17.0565491,5.6924515
		c-0.0391903,0.0169687-0.0591335,0.0507164-0.0634346,0.0932055l-0.6101551,6.0268555
		c-0.0086918,0.0858412,0.0684547,0.1535378,0.1496029,0.1242275C17.5008583,11.5870066,22.6420269,9.90588,32,9.90588
		s14.4991417,1.6811266,15.4674377,2.0308599c0.0811462,0.0293102,0.1582947-0.0383863,0.1496048-0.1242275L47.0068855,5.7856569z"
		/>
	<path style="fill:#231815;" d="M47.5068359,12.1933594L47.5068359,12.1933594l-0.1240234-0.0219727
		C46.4501953,11.8349609,41.3242188,10.1557617,32,10.1557617c-9.3266602,0-14.4501953,1.6791992-15.3823242,2.0161133
		l-0.1240234,0.0214844c-0.1005859,0-0.1972656-0.0429688-0.265625-0.1181641
		c-0.0698242-0.0771484-0.1040039-0.1816406-0.0942383-0.2866211l0.6108398-6.0283203
		c0.0136719-0.1342773,0.0927734-0.2451172,0.2119141-0.296875C17.4365234,5.2558594,21.9277344,3.4375,32,3.4375
		s14.5634766,1.8183594,15.0429688,2.0253906c0.1210938,0.0532227,0.2001953,0.1650391,0.2128906,0.2998047l0.6103516,6.0244141
		c0.0107422,0.1049805-0.0234375,0.2099609-0.09375,0.2875977C47.7041016,12.1499023,47.6074219,12.1933594,47.5068359,12.1933594z
		 M17.2338867,5.8891602l-0.5820313,5.7475586C17.8994141,11.2011719,23.0390625,9.6557617,32,9.6557617
		c8.8671875,0,13.9951172,1.5136719,15.3476563,1.9736328L46.765625,5.8891602C46.0058594,5.5761719,41.5644531,3.9375,32,3.9375
		C22.4384766,3.9375,17.9970703,5.5751953,17.2338867,5.8891602z"/>
</g>
<g>
	<path style="fill:#F39800;" d="M52,20.1765137c-0.2070313,0-0.375-0.1573181-0.375-0.351223V4.8512225
		C51.625,4.6573186,51.7929688,4.5,52,4.5s0.375,0.1573186,0.375,0.3512225v14.9740677
		C52.375,20.0191956,52.2070313,20.1765137,52,20.1765137z"/>
	<path style="fill:#6E4500;" d="M52,20.3017578c-0.2753906,0-0.5-0.2138672-0.5-0.4765625V4.8510742
		C51.5,4.5883789,51.7246094,4.375,52,4.375s0.5,0.2133789,0.5,0.4760742v14.9741211
		C52.5,20.0878906,52.2753906,20.3017578,52,20.3017578z M52,4.625c-0.1376953,0-0.25,0.1015625-0.25,0.2260742v14.9741211
		c0,0.125,0.1123047,0.2265625,0.25,0.2265625s0.25-0.1015625,0.25-0.2265625V4.8510742C52.25,4.7265625,52.1376953,4.625,52,4.625z
		"/>
</g>
<g>
	<path style="fill:#F39800;" d="M50.9791679,21.8691578c0,0.5637913,0,6.020834,1.0208321,6.020834
		s1.0208321-5.4570427,1.0208321-6.020834c0-0.5637894-0.4570427-1.0208321-1.0208321-1.0208321
		S50.9791679,21.3053684,50.9791679,21.8691578z"/>
	<path style="fill:#6E4500;" d="M52,28.0151367c-0.9970703,0-1.1455078-3.8505859-1.1455078-6.1459961
		c0-0.6318359,0.5136719-1.1459961,1.1455078-1.1459961s1.1455078,0.5141602,1.1455078,1.1459961
		C53.1455078,24.1645508,52.9970703,28.0151367,52,28.0151367z M52,20.9731445
		c-0.4941406,0-0.8955078,0.4018555-0.8955078,0.8959961c0,3.4716797,0.3681641,5.8959961,0.8955078,5.8959961
		s0.8955078-2.4243164,0.8955078-5.8959961C52.8955078,21.375,52.4941406,20.9731445,52,20.9731445z"/>
</g>
<g>
	<path style="fill:#F39800;" d="M52.765625,20.0732422c-0.0080566-0.0186157-0.0263062-0.0264893-0.036499-0.0429688
		c0.0673828-0.102356,0.0892944-0.2321777,0.036499-0.3530273C52.6269531,19.3603516,52.1552734,19.3603516,52,19.3603516
		s-0.6269531,0-0.765625,0.3168945c-0.0527954,0.1208496-0.0308838,0.2506714,0.036499,0.3530273
		c-0.0101929,0.0164795-0.0284424,0.024353-0.036499,0.0429688c-0.0551758,0.1262207-0.02948,0.2630005,0.0459595,0.3669434
		c-0.0135498,0.0200806-0.0358276,0.0307617-0.0459595,0.0541992c-0.0830078,0.1899414,0.0048828,0.4111328,0.1943359,0.4936523
		c0.0624046,0.0267448,0.29673-0.0661621,0.570797-0.0661621c0.2740631,0,0.5464134,0.0770702,0.5717812,0.0661621
		c0.1894531-0.0825195,0.2773438-0.3037109,0.1943359-0.4936523c-0.0101318-0.0234375-0.0324097-0.0341187-0.0459595-0.0541992
		C52.795105,20.3362427,52.8208008,20.1994629,52.765625,20.0732422z"/>
	<path style="fill:#6E4500;" d="M51.4599609,21.1181641c-0.0302734,0-0.0566406-0.0048828-0.0800781-0.0146484
		c-0.2539063-0.1113281-0.3701172-0.4067383-0.2597656-0.6591797c0.0019531-0.0063477,0.0048828-0.0117188,0.0078125-0.0170898
		c-0.0605469-0.1289063-0.0644531-0.2739258-0.0078125-0.4038086l0.0019531-0.0058594
		c-0.0546875-0.1259766-0.0566406-0.2666016-0.0019531-0.390625C51.2910156,19.2353516,51.8251953,19.2353516,52,19.2353516
		s0.7089844,0,0.8798828,0.3916016c0.0546875,0.1240234,0.0527344,0.2646484-0.0019531,0.3911133
		c0.0009766,0.0019531,0.0019531,0.0043945,0.0029297,0.0068359c0.0556641,0.128418,0.0517578,0.2734375-0.0087891,0.4023438
		c0.0029297,0.0058594,0.0058594,0.012207,0.0087891,0.019043c0.109375,0.2504883-0.0068359,0.5458984-0.2597656,0.65625
		l-0.0576172,0.0117188c-0.0205078,0-0.0644531-0.0063477-0.125-0.0175781
		c-0.109375-0.0200195-0.2744141-0.0498047-0.4394531-0.0498047c-0.1357422,0-0.2626953,0.0253906-0.3652344,0.0454102
		C51.5595703,21.1074219,51.5,21.1181641,51.4599609,21.1181641z M52,19.4853516c-0.1347656,0-0.5449219,0-0.6513672,0.2421875
		c-0.0322266,0.0742188-0.0224609,0.159668,0.0263672,0.2338867l0.0429688,0.0654297l-0.0791016,0.1142578
		c-0.0234375,0.0600586-0.0117188,0.1508789,0.0429688,0.2260742l0.0507813,0.0712891l-0.0878906,0.1157227
		c-0.0488281,0.1123047,0.0039063,0.2539063,0.1210938,0.3134766c0.0292969-0.0009766,0.0693359-0.0102539,0.1191406-0.0205078
		c0.1074219-0.0209961,0.2529297-0.050293,0.4140625-0.050293c0.1875,0,0.3730469,0.0336914,0.484375,0.0537109
		c0.0253906,0.0048828,0.0458984,0.0087891,0.0615234,0.0112305c0.109375-0.0620117,0.1582031-0.1992188,0.1064453-0.3178711
		l-0.0351563-0.0332031l-0.0488281-0.0722656l0.0507813-0.0712891c0.0546875-0.0751953,0.0664063-0.1660156,0.0332031-0.2441406
		c-0.0009766,0.0102539-0.015625-0.0063477-0.0292969-0.0292969l-0.0400391-0.0673828L52.625,19.9614258
		c0.0488281-0.0742188,0.0585938-0.159668,0.0263672-0.2338867C52.5449219,19.4853516,52.1347656,19.4853516,52,19.4853516z"/>
</g>
<g>
	<path style="fill:#EFEFEF;" d="M38.3310547,46.8612061c0,0-3.5810547,2.9200439-6.3310547,2.9200439
		s-6.3310547-2.9200439-6.3310547-2.9200439L22.0426025,49.875L32,62.4375l9.9573975-12.5625L38.3310547,46.8612061z"/>
	<path style="fill:#231815;" d="M32,62.8398438L21.6948242,49.8388672l3.9726563-3.3017578l0.1591797,0.1308594
		C25.8618164,46.6962891,29.371582,49.53125,32,49.53125c2.6279297,0,6.1376953-2.8349609,6.1728516-2.8632813l0.1601563-0.1308594
		l3.9716797,3.3017578L32,62.8398438z M22.3901367,49.9111328L32,62.0351563l9.609375-12.1240234l-3.2822266-2.7275391
		C37.5849609,47.7607422,34.5029297,50.03125,32,50.03125c-2.503418,0-5.5844727-2.2705078-6.3271484-2.8476563
		L22.3901367,49.9111328z"/>
</g>
<g>
	<linearGradient id="SVGID_3_" gradientUnits="userSpaceOnUse" x1="31.999958" y1="49.78125" x2="31.999958" y2="53.1875">
		<stop  offset="0" style="stop-color:#3E3A39"/>
		<stop  offset="1" style="stop-color:#231815"/>
	</linearGradient>
	<path style="fill:url(#SVGID_3_);" d="M32.7230721,49.78125h-1.4461441c-0.1697197,0-0.324873,0.09589-0.400774,0.2476921
		l-0.7771587,1.5543175c-0.062397,0.124794-0.0631008,0.271534-0.0019035,0.3969193l0.4664841,0.9557762
		c0.0751209,0.1539154,0.2314072,0.251545,0.4026756,0.251545h2.0665474c0.1711617,0,0.3273735-0.0975075,0.4025497-0.2512779
		l0.4673462-0.9559402c0.0613289-0.1254387,0.0606728-0.2723007-0.0017738-0.3971863l-0.7770767-1.5541534
		C33.0479431,49.87714,32.8927917,49.78125,32.7230721,49.78125z"/>
	<path style="fill:#231815;" d="M33.0332031,53.4375h-2.0668945c-0.2651367,0-0.5112305-0.1542969-0.6274414-0.3925781
		l-0.4663086-0.9550781c-0.0961914-0.1982422-0.0947266-0.4228516,0.0029297-0.6181641l0.7768555-1.5537109
		c0.1191406-0.2382813,0.3583984-0.3867188,0.6245117-0.3867188h1.4462891c0.2661133,0,0.5053711,0.1484375,0.6245117,0.3867188
		L34.125,51.4707031c0.0976563,0.1982422,0.0976563,0.4238281,0.0019531,0.6191406l-0.4667969,0.9560547
		C33.5439453,53.2841797,33.2978516,53.4375,33.0332031,53.4375z M31.2768555,50.03125
		c-0.0756836,0-0.1435547,0.0419922-0.1772461,0.109375l-0.7768555,1.5537109
		c-0.027832,0.0556641-0.027832,0.1201172-0.0004883,0.1767578l0.4658203,0.9550781
		c0.0336914,0.0683594,0.1020508,0.1113281,0.1782227,0.1113281h2.0668945c0.0751953,0,0.1445313-0.0439453,0.1777344-0.1113281
		l0.4667969-0.9550781c0.0273438-0.0566406,0.0273438-0.1210938-0.0009766-0.1777344l-0.7763672-1.5517578
		c-0.0336914-0.0683594-0.1015625-0.1103516-0.1772461-0.1103516H31.2768555z"/>
</g>
<g>
	<linearGradient id="SVGID_4_" gradientUnits="userSpaceOnUse" x1="32" y1="53" x2="32" y2="64.46875">
		<stop  offset="0" style="stop-color:#3E3A39"/>
		<stop  offset="1" style="stop-color:#231815"/>
	</linearGradient>
	<path style="fill:url(#SVGID_4_);" d="M34.6663857,64.46875l-1.3018723-11.1993103
		C33.3467522,53.1166458,33.1909904,53,33.0047302,53h-2.0094585c-0.186264,0-0.3420238,0.1166458-0.3597851,0.2694397
		L29.3336143,64.46875H34.6663857z"/>
	<path style="fill:#231815;" d="M34.9462891,64.71875h-5.8935547l1.3339844-11.4785156
		C30.4199219,52.9609375,30.6811523,52.75,30.9951172,52.75h2.0097656c0.3144531,0,0.5751953,0.2109375,0.6074219,0.4912109
		L34.9462891,64.71875z M29.6142578,64.21875h4.7714844l-1.2695313-10.9199219
		C33.1152344,53.2880859,33.078125,53.25,33.0048828,53.25h-2.0097656c-0.0732422,0-0.1103516,0.0390625-0.1118164,0.0488281
		L29.6142578,64.21875z"/>
</g>
<g>
	<path style="fill:#EFEFEF;" d="M38.6289139,46.0469589l1.6673393,1.6624107c0,0-1.804245,3.7281303-5.081501,5.4781303
		l-2.1566544-3.4435883c-0.0630722-0.1007042-0.027153-0.2311897,0.0812988-0.2797356
		c0.6908417-0.3092422,3.0174103-1.4411545,4.8282471-3.3954506C38.1459198,45.8763275,38.4431686,45.861763,38.6289139,46.0469589z
		"/>
	<path style="fill:#231815;" d="M35.1269531,53.5175781l-2.28125-3.640625
		c-0.0688477-0.1113281-0.0869141-0.2451172-0.0493164-0.3681641c0.0366211-0.1210938,0.1245117-0.2207031,0.2407227-0.2724609
		c0.6630859-0.296875,2.9648438-1.4130859,4.7470703-3.3378906c0.2646484-0.2851563,0.7480469-0.3007813,1.0214844-0.0283203
		l1.7929688,1.7871094l-0.078125,0.1601563c-0.0742188,0.1552734-1.8769531,3.8222656-5.1875,5.5908203L35.1269531,53.5175781z
		 M33.3027344,49.6650391l1.9980469,3.1894531c2.6679688-1.5224609,4.3154297-4.3964844,4.6894531-5.0976563l-1.5380859-1.5332031
		c-0.1240234-0.1240234-0.2304688-0.0595703-0.3007813,0.0146484
		C36.3554688,48.1767578,34.0585938,49.3212891,33.3027344,49.6650391z"/>
</g>
<g>
	<path style="fill:#EFEFEF;" d="M25.4960861,46.0469589l-1.6673393,1.6624107c0,0,1.804245,3.7281303,5.0814991,5.4781303
		l2.1566582-3.4435883c0.0630684-0.1007042,0.0271511-0.2311897-0.0813026-0.2797356
		c-0.6908398-0.3092422-3.0174084-1.4411545-4.8282452-3.3954506C25.9790821,45.8763275,25.6818314,45.861763,25.4960861,46.0469589
		z"/>
	<path style="fill:#231815;" d="M28.9980469,53.5175781l-0.2055664-0.109375
		c-3.3110352-1.7685547-5.1137695-5.4355469-5.1889648-5.5898438l-0.0776367-0.1611328l1.7939453-1.7871094
		c0.2714844-0.2724609,0.7558594-0.2587891,1.0209961,0.0283203c1.7836914,1.9257813,4.0844727,3.0410156,4.7470703,3.3369141
		c0.1166992,0.0527344,0.2045898,0.1523438,0.2412109,0.2734375c0.0371094,0.1230469,0.019043,0.2578125-0.050293,0.3681641
		L28.9980469,53.5175781z M24.1347656,47.7568359c0.3730469,0.7011719,2.0209961,3.5751953,4.6889648,5.0976563l1.9980469-3.1904297
		c-0.7558594-0.34375-3.0517578-1.4863281-4.8481445-3.4257813c-0.0683594-0.0742188-0.1743164-0.1416016-0.3007813-0.0146484
		L24.1347656,47.7568359z"/>
</g>
<g>
	<g>
		<linearGradient id="SVGID_5_" gradientUnits="userSpaceOnUse" x1="32" y1="47.1480637" x2="32" y2="65.3651123">
			<stop  offset="0" style="stop-color:#141A33"/>
			<stop  offset="1" style="stop-color:#0F101F"/>
		</linearGradient>
		<path style="fill:url(#SVGID_5_);" d="M52.0378418,56.2922974c0-6.8077736-6.4324913-7.5402374-11.7815056-9.1360855
			c-0.0898705-0.0268135-0.1825027,0.0140991-0.2221718,0.0998802C38.2007446,51.2206879,35.6075058,55.7211227,32,59.9442062
			c-3.6075058-4.2230835-6.2007427-8.7235184-8.0341625-12.6881142c-0.039669-0.0857811-0.1323013-0.1266937-0.2221718-0.0998802
			c-5.3490162,1.5958481-11.7815075,2.3283119-11.7815075,9.1360855l-1.1245117,9.0728149h42.324707L52.0378418,56.2922974z"/>
		<path style="fill:#231815;" d="M53.4453125,65.6152344H10.5551758l1.1586914-9.3535156
			c-0.0019531-6.0908203,5.0107422-7.4472656,9.8583984-8.7578125c0.7070313-0.1914063,1.4125977-0.3818359,2.1000977-0.5869141
			l0.1264648-0.0185547c0.1713867,0,0.3222656,0.0966797,0.394043,0.2529297
			C26.3344727,51.7832031,28.9604492,55.9560547,32,59.5576172c3.0410156-3.6035156,5.6669922-7.7763672,7.8076172-12.40625
			c0.0722656-0.15625,0.2226563-0.2529297,0.3935547-0.2529297l0.125,0.0175781
			c0.6884766,0.2060547,1.3935547,0.3964844,2.1015625,0.5878906c4.8476563,1.3105469,9.8603516,2.6660156,9.8603516,8.7880859
			L53.4453125,65.6152344z M11.1206055,65.1152344h41.7583008l-1.0888672-8.7929688
			c-0.0019531-5.7695313-4.6123047-7.015625-9.4931641-8.3359375c-0.6933594-0.1875-1.3847656-0.3740234-2.0595703-0.5742188
			c-2.1992188,4.7470703-4.9072266,9.0185547-8.0473633,12.6943359L32,60.3291016l-0.1899414-0.2226563
			c-3.1391602-3.6748047-5.847168-7.9472656-8.0488281-12.6972656c-0.6635742,0.2001953-1.3603516,0.3886719-2.0585938,0.5771484
			c-4.8808594,1.3203125-9.4907227,2.5664063-9.4907227,8.3056641L11.1206055,65.1152344z"/>
	</g>
	<linearGradient id="SVGID_6_" gradientUnits="userSpaceOnUse" x1="47.7416077" y1="57.1609802" x2="47.7416077" y2="65.3651123">
		<stop  offset="0" style="stop-color:#FFFFFF;stop-opacity:0"/>
		<stop  offset="1" style="stop-color:#FFFFFF;stop-opacity:0.1"/>
	</linearGradient>
	<path style="fill:url(#SVGID_6_);" d="M47.6534958,57.1609802c0,0,1.4570274,2.6208,1.4570274,8.2041321h-2.7378273
		C46.3726959,65.3651123,46.4336586,60.0401802,47.6534958,57.1609802z"/>
	<linearGradient id="SVGID_7_" gradientUnits="userSpaceOnUse" x1="41.3003235" y1="60.0833321" x2="41.3003235" y2="65.3651123">
		<stop  offset="0" style="stop-color:#FFFFFF;stop-opacity:0"/>
		<stop  offset="1" style="stop-color:#FFFFFF;stop-opacity:0.1"/>
	</linearGradient>
	<path style="fill:url(#SVGID_7_);" d="M41.218792,60.0833321c0,0,1.3481789,1.6872597,1.3481789,5.2817802h-2.5332947
		C40.0336761,65.3651123,40.0900841,61.9369469,41.218792,60.0833321z"/>
	
		<linearGradient id="SVGID_8_" gradientUnits="userSpaceOnUse" x1="47.7416077" y1="57.1609802" x2="47.7416077" y2="65.3651123" gradientTransform="matrix(-1 0 0 1 64 0)">
		<stop  offset="0" style="stop-color:#FFFFFF;stop-opacity:0"/>
		<stop  offset="1" style="stop-color:#FFFFFF;stop-opacity:0.1"/>
	</linearGradient>
	<path style="fill:url(#SVGID_8_);" d="M16.3465042,57.1609802c0,0-1.4570274,2.6208-1.4570274,8.2041321h2.7378273
		C17.6273041,65.3651123,17.5663433,60.0401802,16.3465042,57.1609802z"/>
	
		<linearGradient id="SVGID_9_" gradientUnits="userSpaceOnUse" x1="41.3003235" y1="60.0833321" x2="41.3003235" y2="65.3651123" gradientTransform="matrix(-1 0 0 1 64 0)">
		<stop  offset="0" style="stop-color:#FFFFFF;stop-opacity:0"/>
		<stop  offset="1" style="stop-color:#FFFFFF;stop-opacity:0.1"/>
	</linearGradient>
	<path style="fill:url(#SVGID_9_);" d="M22.781208,60.0833321c0,0-1.3481808,1.6872597-1.3481808,5.2817802h2.5332966
		C23.9663239,65.3651123,23.9099159,61.9369469,22.781208,60.0833321z"/>
</g>
</svg>
