<?xml version="1.0" encoding="utf-8"?>
<!-- Generator: Adobe Illustrator 17.0.0, SVG Export Plug-In . SVG Version: 6.00 Build 0)  -->
<!DOCTYPE svg PUBLIC "-//W3C//DTD SVG 1.1//EN" "http://www.w3.org/Graphics/SVG/1.1/DTD/svg11.dtd">
<svg version="1.1" id="レイヤー_1" xmlns="http://www.w3.org/2000/svg" xmlns:xlink="http://www.w3.org/1999/xlink" x="0px"
	 y="0px" width="64px" height="64px" viewBox="0 0 64 64" style="enable-background:new 0 0 64 64;" xml:space="preserve">
<path style="fill:#231815;" d="M31.0888672,55.5058594c-0.0527344,0-0.1079102-0.0039063-0.1645508-0.0126953
	c-1.5073242-0.2304688-2.175293-2.0380859-2.1679688-3.2490234c0.0009766-0.2070313,0.0151367-0.4355469,0.0424805-0.6953125
	c-0.3676758-0.3193359-0.4672852-0.7529297-0.2802734-1.2353516c0.152832-0.3955078-0.4638672-3.7236328-1.0576172-5.3681641
	c-0.3720703-1.0322266-0.2353516-1.9121094-0.1254883-2.6191406c0.0615234-0.3955078,0.1147461-0.7373047,0.065918-1.0146484
	c-0.0200195-0.1132813-0.0512695-0.2402344-0.0893555-0.3759766c-0.0615234-0.2197266-0.1411133-0.4638672-0.2241211-0.7207031
	c-0.3149414-0.9677734-0.6713867-2.0644531-0.3935547-2.7685547c0.1411133-0.3583984-0.0307617-1.515625-0.1821289-2.5371094
	c-0.1601563-1.0761719-0.3251953-2.1875-0.2700195-2.9770508c-0.6494141-0.5053711-0.4111328-1.1831055,0.4384766-3.5986328
	c0.3701172-1.0512695,0.0141602-4.6015625-0.4555664-7.6665039c-0.1191406,0.012207-0.2299805,0.0097656-0.34375-0.0068359
	c-0.4643555-0.0698242-1.847168-0.277832-2.5537109-0.6821289l-1.5986328,0.0087891l-1.203125-0.0244141
	c-0.453125,0-0.8813477-0.5439453-1.1533203-1.4628906c-1.1098633-0.3881836-1.699707-0.6274414-1.9619141-0.7954102
	c-0.7875977-0.5048828-0.9921875-1.0991211-1.0249023-1.5087891c-0.0405273-0.5014648,0.1582031-0.9199219,0.3725586-1.1123047
	c0.3349609-0.3007813,0.6621094-0.4555664,1.0205078-0.4819336l0.1577148-0.0332031l2.0717773-0.1640625
	c0.2583008-0.3105469,0.4750977-0.4892578,0.4848633-0.4970703l0.0610352-0.0498047l1.1992188-0.090332l4.9897461-0.2890625
	c0.1865234-0.0932617,0.4643555-0.1386719,0.8457031-0.1386719c0.5073242,0,1.0805664,0.0791016,1.378418,0.1269531
	l0.4199219-1.0600586l0.1542969-0.0126953c0,0,0.0820313-0.0068359,0.2255859-0.0151367l0.0395508-0.4838867
	c-0.3173828-0.3012695-0.5737305-0.5927734-0.7104492-0.8105469c-0.0869141-0.1381836-0.1625977-0.3769531-0.2407227-0.7626953
	c-0.3334961-0.1328125-0.6025391-0.5800781-0.737793-0.9443359c-0.203125-0.5483398-0.1933594-1.0654297,0.0234375-1.4404297
	c-0.0068359-0.0400391-0.012207-0.0776367-0.0166016-0.1137695c-0.1855469-0.0693359-0.4555664-0.2026367-0.5708008-0.4155273
	c-0.0649414-0.1201172-0.0766602-0.2509766-0.0341797-0.3789063c0.0424805-0.1274414,0.1132813-0.2675781,0.1884766-0.4140625
	c0.0629883-0.1220703,0.1040039-0.2172852,0.144043-0.3120117c0.0214844-0.0512695,0.0336914-0.0800781,0.0439453-0.1108398
	c0.0444336-0.1298828,0.0649414-0.2353516,0.0649414-0.3330078c0-0.0356445-0.0126953-0.09375-0.0375977-0.1728516
	c-0.0317383-0.1015625-0.0786133-0.2143555-0.1274414-0.331543C27.5952148,4.8686523,27.2919922,4.1357422,27.9130859,3.6875
	l0.2495117-0.1850586c0.8168945-0.612793,2.3378906-1.7529297,3.5625-1.7529297
	c0.1953125,0,0.3779297,0.0297852,0.5424805,0.0878906c0.2666016,0.0942383,0.6035156,0.1977539,0.9658203,0.3100586
	c1.6298828,0.5024414,2.8017578,0.9003906,3.0419922,1.4458008c0.0644531,0.1464844,0.0625,0.2993164-0.0048828,0.4414063
	c-0.2138672,0.4521484-0.3486328,0.9125977-0.3779297,1.2963867c-0.0107422,0.1445313-0.0058594,0.2861328,0.0146484,0.421875
	c0.0332031,0.1733398,0.0722656,0.2841797,0.1259766,0.3759766c0.0175781,0.0297852,0.0292969,0.0527344,0.0400391,0.0761719
	c0.3691406,0.6533203,0.3417969,0.9624023-0.1386719,1.3916016c-0.0146484,0.0791016-0.0390625,0.2041016-0.0761719,0.355957
	c0.2109375,0.3774414,0.2148438,0.8935547,0.0097656,1.4384766C35.7324219,9.75,35.4648438,10.190918,35.1357422,10.3208008
	c-0.078125,0.3857422-0.1533203,0.6245117-0.2402344,0.7626953c-0.1708984,0.2719727-0.5146484,0.644043-0.9296875,1.0083008
	l0.015625,0.4790039c0.1777344,0.0209961,0.2724609,0.0341797,0.2724609,0.0341797l0.1767578,0.0244141l0.2353516,1.2124023
	l1.9091797,0.0083008c0.0332031,0.0087891,3.2949219,0.8691406,4.9287109,1.2270508
	c0.2333984,0.0507813,0.4414063,0.0917969,0.6123047,0.1186523c0.0898438,0.0146484,0.1699219,0.0249023,0.2353516,0.0297852
	c0.2753906,0.0214844,0.5068359,0.2128906,0.6884766,0.5693359c0.828125,0.1083984,1.8525391,0.2524414,2.3115234,0.3564453
	c1.0546875,0.2397461,1.3261719,1.9907227,1.3544922,2.1894531c0.1210938,0.6269531,0.7275391,3.8574219,0.4892578,4.5717773
	c-0.0371094,0.1118164-0.078125,0.262207-0.1259766,0.4370117c-0.2607422,0.9501953-0.6953125,2.5405273-1.7646484,2.9707031
	c-1.0498047,0.4223633-1.4882813,0.2416992-1.6367188,0.0356445c-0.1660156-0.2299805-0.1611328-0.5834961,0.015625-1.1123047
	c0.0673828-0.2021484,0.1572266-0.4033203,0.2792969-0.6230469c-0.0361328-0.050293-0.0605469-0.1035156-0.0732422-0.1606445
	c-0.0791016-0.3549805,0.1445313-1.0512695,0.1904297-1.1870117l0.0234375-0.0683594l0.9179688-0.75
	c0.0195313-0.0483398,0.0302734-0.0776367,0.0371094-0.1074219c0.0888672-0.3525391-0.2714844-0.9477539-0.6191406-1.5229492
	c-0.3583984-0.5932617-0.7265625-1.203125-0.7470703-1.7524414L43.375,19.0361328
	c-0.1005859,0.6972656-0.3613281,1.6699219-1.0371094,1.9228516l-0.0546875,0.0205078l-4.7636719-0.4609375
	c-0.0751953,0.6401367-0.1542969,1.2739258-0.2314453,1.8891602c-0.3466797,2.7822266-0.6455078,5.1850586-0.3974609,6.144043
	c0.8457031,3.2705078,0.5537109,4.0537109,0.3544922,4.2397461c0.0097656,0.2973633-0.0009766,0.6352539-0.0322266,1.0239258
	c-0.0927734,1.1787109,0.1796875,2.4228516,0.3789063,3.3310547c0.1240234,0.5673828,0.2226563,1.0146484,0.2128906,1.3222656
	c-0.0195313,0.6308594-0.0566406,1.0458984-0.0849609,1.3681641c-0.0478516,0.5332031-0.0693359,0.7763672,0.0478516,1.3330078
	c0.2607422,1.234375-0.5908203,7.7167969-1.2939453,8.9785156c-0.0810547,0.1455078-0.1826172,0.2832031-0.3105469,0.4179688
	c0.0097656,0.4580078,0.0068359,0.8701172-0.0097656,1.2265625c-0.0996094,2.1503906-1.0097656,3.5400391-2.3183594,3.5400391
	l-0.1025391-0.0019531c-0.2402344-0.0126953-0.4472656-0.1171875-0.6152344-0.3105469
	c-0.5366211-0.6181641-0.5742188-2.0732422-0.4697266-3.6943359c-0.043457,0.0908203-0.1132813,0.1855469-0.2226563,0.2783203
	c0.0102539,1.4160156-0.0322266,2.9794922-0.6650391,3.6162109C31.5722656,55.4101563,31.3461914,55.5058594,31.0888672,55.5058594z
	 M26.6386719,20.0732422l0.0419922,0.2666016c0.3095703,1.9770508,0.9746094,6.7304688,0.4716797,8.159668
	c-0.9287109,2.6411133-0.9301758,2.8310547-0.512207,3.1025391l0.1293945,0.0839844l-0.0170898,0.1533203
	c-0.0825195,0.7294922,0.0966797,1.934082,0.2543945,2.996582c0.184082,1.2402344,0.3427734,2.3105469,0.1523438,2.7939453
	c-0.2114258,0.5371094,0.1298828,1.5869141,0.4042969,2.4306641c0.0854492,0.2626953,0.1669922,0.5146484,0.2299805,0.7402344
	c0.0429688,0.1533203,0.0771484,0.2958984,0.1000977,0.4228516c0.0634766,0.3603516,0.0014648,0.7578125-0.0639648,1.1796875
	c-0.1064453,0.6845703-0.2270508,1.4599609,0.1020508,2.3720703c0.4956055,1.3730469,1.3139648,5.0458984,1.0527344,5.71875
	c-0.1210938,0.3134766-0.0507813,0.5478516,0.2216797,0.7382813l0.1220703,0.0859375l-0.0175781,0.1484375
	c-0.0351563,0.3007813-0.0527344,0.5556641-0.0541992,0.7802734c-0.0058594,1.0019531,0.5439453,2.5683594,1.7431641,2.7519531
	c0.1611328,0.0263672,0.2910156-0.0136719,0.4052734-0.1298828c0.5395508-0.5439453,0.5263672-2.3798828,0.5200195-3.2626953
	l-0.0019531-0.2587891l0.1118164-0.0751953c0.121582-0.0810547,0.1801758-0.1591797,0.1743164-0.2314453
	c-0.0200195-0.2402344-0.0039063-0.4453125,0.0146484-0.6835938c0.0458984-0.59375,0.1157227-1.4902344-0.3662109-3.9580078
	c-0.0556641-0.2880859-0.0268555-0.7744141,0.0073242-1.3378906c0.0517578-0.8583984,0.1157227-1.9277344-0.1279297-2.4160156
	c-0.3129883-0.625-0.2719727-1.0771484-0.203125-1.4873047l0.0449219-0.2480469
	c0.0585938-0.3105469,0.125-0.6621094,0.1318359-1.1298828c0.0209961-1.4980469,0.0864258-3.0927734,0.1953125-4.7382813
	l0.1352539-2.0473633l0.3603516,2.0200195c0.2167969,1.2167969,0.4350586,2.8994141,0.2426758,4
	c-0.1547852,0.8867188-0.0200195,1.3017578,0.1225586,1.7412109c0.1264648,0.3886719,0.2568359,0.7910156,0.1611328,1.4677734
	c-0.0839844,0.5947266-0.0322266,1.6357422,0.0229492,2.7382813c0.0678711,1.3613281,0.1450195,2.9042969,0.0083008,4.1621094
	c-0.046875,0.4355469,0.027832,0.8056641,0.2226563,1.0996094l0.0478516,0.0722656l-0.0068359,0.0878906
	c-0.0878906,0.9912109-0.3212891,3.625,0.2724609,4.3085938c0.0771484,0.0898438,0.1611328,0.1337891,0.2636719,0.1386719
	l0.0761719,0.0019531c1.2373047,0,1.7529297-1.6503906,1.8183594-3.0634766
	c0.0175781-0.3720703,0.0195313-0.8085938,0.0078125-1.2978516l-0.0029297-0.109375l0.0791016-0.0761719
	c0.1279297-0.1240234,0.2255859-0.2490234,0.2988281-0.3808594c0.6347656-1.1396484,1.4736328-7.5332031,1.2421875-8.6318359
	c-0.1328125-0.6298828-0.1054688-0.9326172-0.0566406-1.4814453c0.0283203-0.3144531,0.0644531-0.7216797,0.0830078-1.3388672
	c0.0078125-0.2451172-0.0888672-0.6875-0.2011719-1.1992188c-0.2060547-0.9394531-0.4882813-2.2255859-0.3886719-3.4775391
	c0.0400391-0.5136719,0.0449219-0.9291992,0.0126953-1.2709961l-0.0917969-0.9853516l0.3349609,0.5014648
	c0.0107422-0.4624023-0.0683594-1.4282227-0.5644531-3.3447266c-0.2714844-1.0512695,0.0332031-3.4975586,0.3857422-6.3305664
	c0.0859375-0.6923828,0.1757813-1.4072266,0.2597656-2.1289063l0.0283203-0.2436523l5.1298828,0.496582
	c0.3378906-0.1743164,0.6035156-0.8295898,0.6982422-1.7358398l0.0263672-0.2504883l1.3232422,0.1484375l-0.0546875,0.2675781
	c-0.0859375,0.4238281,0.2958984,1.0551758,0.6640625,1.6655273c0.4199219,0.6933594,0.8154297,1.3486328,0.6767578,1.9023438
	c-0.0146484,0.0615234-0.0380859,0.1230469-0.0625,0.1845703l-0.0927734,0.1484375L44.5322266,23.5
	c-0.0986328,0.3120117-0.1816406,0.6972656-0.15625,0.8413086l0,0c0.0039063,0,0.0166016,0.0117188,0.0419922,0.0292969
	l0.1933594,0.1333008l-0.1201172,0.2011719c-0.1542969,0.2573242-0.2607422,0.4790039-0.3330078,0.6967773
	c-0.1689453,0.5063477-0.0996094,0.6401367-0.0839844,0.6621094c0.0244141,0.0341797,0.1113281,0.0375977,0.1484375,0.0375977
	c0.1894531,0,0.4902344-0.0825195,0.8945313-0.2451172c0.8398438-0.3374023,1.234375-1.777832,1.4697266-2.6386719
	c0.0507813-0.1855469,0.0947266-0.3447266,0.1337891-0.4633789c0.1523438-0.4560547-0.2304688-2.8994141-0.5078125-4.3320313
	c-0.0644531-0.4580078-0.3603516-1.6445313-0.9726563-1.7836914c-0.3681641-0.0834961-1.1982422-0.2099609-2.4003906-0.3652344
	l-0.140625-0.0185547l-0.0566406-0.1303711c-0.1044922-0.2426758-0.2275391-0.3920898-0.3291016-0.4003906
	c-0.0761719-0.0053711-0.1699219-0.0175781-0.2753906-0.0341797c-0.1787109-0.027832-0.3964844-0.0708008-0.6416016-0.1245117
	c-1.5576172-0.3413086-4.5751953-1.1337891-4.9169922-1.2236328h-2.2255859l-0.2451172-1.2641602
	c-0.0761719-0.0092773-0.1757813-0.0209961-0.2978516-0.0341797l-0.2158203-0.0234375l-0.0371094-1.1513672l0.0917969-0.0776367
	c0.4072266-0.3476563,0.7685547-0.7294922,0.921875-0.9736328c0.0283203-0.0454102,0.1054688-0.2109375,0.2089844-0.7788086
	l0.0488281-0.2646484l0.2734375,0.0708008c0.0585938-0.0444336,0.2558594-0.2558594,0.3974609-0.6298828
	c0.1621094-0.4316406,0.1572266-0.8334961-0.0136719-1.0751953l-0.0664063-0.0942383l0.0283203-0.1118164
	c0.0742188-0.2900391,0.1074219-0.5014648,0.1083984-0.5063477l0.0146484-0.0917969l0.0712891-0.0600586
	c0.3525391-0.2983398,0.3730469-0.3320313,0.1083984-0.7973633l0.1660156-0.2226563l-0.2158203,0.1264648
	c-0.0839844-0.1425781-0.1416016-0.3066406-0.1777344-0.5009766c-0.0371094-0.2255859-0.0439453-0.4057617-0.0292969-0.5878906
	c0.0429688-0.5688477,0.2548828-1.1147461,0.4248047-1.472168C35.6503906,3.4165039,34.0458984,2.9208984,33.0859375,2.625
	c-0.3696289-0.1142578-0.7128906-0.2202148-0.9848633-0.315918c-0.1108398-0.0395508-0.237793-0.0595703-0.3759766-0.0595703
	c-1.0581055,0-2.546875,1.1166992-3.2626953,1.652832l-0.2563477,0.1904297
	c-0.2797852,0.2021484-0.1611328,0.5546875,0.0517578,1.0693359c0.0546875,0.1318359,0.1064453,0.2583008,0.1425781,0.3730469
	c0.0419922,0.1333008,0.0605469,0.2329102,0.0605469,0.3227539c0,0.1542969-0.0292969,0.3115234-0.0917969,0.4941406
	c-0.0131836,0.0405273-0.0297852,0.0805664-0.046875,0.1206055c-0.0541992,0.1298828-0.1010742,0.237793-0.1523438,0.3369141
	c-0.0800781,0.1547852-0.140625,0.2705078-0.1757813,0.3759766C28.0195313,7.230957,28.234375,7.34375,28.4262695,7.3950195
	l0.1855469,0.0498047l0.0004883,0.1918945c0,0.0791016,0.012207,0.1748047,0.0380859,0.300293l0.0219727,0.1079102
	l-0.0644531,0.0888672c-0.1733398,0.2387695-0.1811523,0.6381836-0.0214844,1.0683594
	c0.1342773,0.3618164,0.3212891,0.5742188,0.4213867,0.6376953l0.2543945-0.065918l0.0483398,0.2646484
	c0.1035156,0.5678711,0.1806641,0.7333984,0.2084961,0.7783203c0.1254883,0.199707,0.3930664,0.4960938,0.7163086,0.7929688
	l0.0898438,0.0830078l-0.0961914,1.1650391l-0.2207031,0.0092773c-0.1098633,0.0043945-0.2016602,0.0092773-0.2714844,0.0136719
	l-0.4550781,1.1489258l-0.2026367-0.0380859c-0.0083008-0.0014648-0.828125-0.152832-1.4902344-0.152832
	c-0.4414063,0-0.5952148,0.0668945-0.640625,0.0961914l-0.1191406,0.0380859l-6.0756836,0.3701172
	c-0.0825195,0.0751953-0.2460938,0.2333984-0.4228516,0.456543l-0.0673828,0.0854492l-2.0463867,0.1616211l0.0019531,0.0332031
	l-0.2734375,0.0180664c-0.0019531,0-0.0039063,0-0.0058594,0c-0.3276367,0-0.5727539,0.1108398-0.847168,0.3569336
	c-0.0957031,0.0854492-0.2363281,0.3515625-0.2084961,0.7001953c0.0239258,0.296875,0.1816406,0.7333984,0.7963867,1.1279297
	c0.3027344,0.1933594,1.2749023,0.5419922,1.9794922,0.7866211l0.125,0.043457l0.0341797,0.1274414
	c0.2470703,0.9140625,0.5917969,1.2216797,0.7114258,1.2216797l1.2021484,0.0244141l1.7348633-0.0097656l0.0620117,0.0390625
	c0.3945313,0.2480469,1.2109375,0.4667969,2.4257813,0.6499023c0.1289063,0.0180664,0.2568359,0.0083008,0.4213867-0.0307617
	L26.6386719,20.0732422z M32.4101563,44.1240234c-0.0073242,0.3222656-0.0273438,0.6513672-0.0463867,0.9677734
	c-0.0302734,0.5068359-0.0595703,0.9863281-0.0151367,1.2119141c0.0737305,0.3779297,0.1347656,0.7207031,0.1855469,1.0322266
	c-0.0048828-0.7822266-0.0454102-1.59375-0.0830078-2.3486328C32.4360352,44.6875,32.421875,44.3994141,32.4101563,44.1240234z
	 M32.1606445,40.4648438c-0.0263672,0.1982422-0.0595703,0.3730469-0.090332,0.5380859l-0.043457,0.2382813
	c-0.0722656,0.4306641-0.0678711,0.7314453,0.1572266,1.1806641c0.1064453,0.2138672,0.1679688,0.4882813,0.199707,0.7949219
	c-0.0039063-0.4160156,0.0083008-0.7773438,0.0488281-1.0634766c0.0795898-0.5625-0.0229492-0.8779297-0.1416016-1.2431641
	C32.2460938,40.7714844,32.1992188,40.6269531,32.1606445,40.4648438z"/>
<path style="fill:#D9DADA;" d="M30.9619617,55.2461395c1.4591618,0.2231865,1.1762486-3.3684235,1.2154369-4.1667824
	s-2.2641201-2.4159775-2.7882843-1.3531914c0,0-0.3761711,1.3878326-0.3828373,2.5201416
	C29,53.3125,29.5745068,55.0339241,30.9619617,55.2461395"/>
<path style="fill:#231815;" d="M31.7804565,41.1994019c-0.0725098,0.4298706-0.0865479,0.802124,0.1799927,1.3352051
	c0.4376831,0.8754272,0.008606,3.1295776,0.1427002,3.8167114c0.6697998,3.4332886,0.2879639,3.8569336,0.3550415,4.6696167
	c0.0933838,1.1311035-4.4134521,1.2044678-3.706665-0.6176147c0.2040405-0.5258789-0.4954224-3.9927979-1.0549927-5.5431519
	c-0.5596313-1.550293,0.1018677-2.7376709-0.0491333-3.5927124c-0.0212402-0.1201782-0.0541382-0.2544556-0.0946045-0.399231
	C28.5925903,42.1790771,30.173584,42.6328735,31.7804565,41.1994019z"/>
<path style="fill:#3E3A39;" d="M26.9267578,37.5376587c0.3589478-0.9106445-0.8138428-4.9129639-0.3307495-6.1641846
	c1.0372925-2.6864624,5.8729858,0.0021973,5.8729858,0.0021973s-0.446106,3.9254761-0.5085449,8.4089355
	c-0.008606,0.617981-0.1165161,1.038208-0.1799927,1.4147949c-1.6068726,1.4334717-3.1878662,0.9796753-4.2276611-0.3311768
	C27.2698975,39.8569336,26.612793,38.3342896,26.9267578,37.5376587z"/>
<path style="fill:#231815;" d="M32.0833321,34.8333321c0,0-0.6581326-2.5132713-3.5833321-2.2916641
	C25.75,32.75,26.583334,30.666666,26.958334,30.291666c0.28125-0.28125,6.7499981,0,6.7499981,0
	S32.6666679,32.4895782,32.0833321,34.8333321z"/>
<path style="fill:#D9DADA;" d="M33.7459068,55.0809288c-1.3977432-0.0738144-0.7532616-4.5243988-0.7061424-5.5384979
	c0.0471191-1.0141029,2.3866539-2.4897423,2.7684555-1.0250359c0,0,0.1618958,1.8275337,0.0953064,3.2641602
	C35.8173752,53.6401939,35.0749588,55.1511154,33.7459068,55.0809288"/>
<path style="fill:#3E3A39;" d="M31.916666,33.875c0,0,0.7873096,3.3456535,0.4812641,5.0971146
	c-0.3060455,1.7514648,0.4735794,1.8665009,0.2823181,3.2161217c-0.1912575,1.349617,0.2778435,4.6243629,0.0301819,6.9088783
	c-0.2534485,2.3379059,2.648819,2.537281,3.5447197,0.9296951c0.6532974-1.1722641,1.5177803-7.6171951,1.2677803-8.8046951
	c-0.1984406-0.9425926-0.0199051-1.0777779,0.0321274-2.7606544c0.0234222-0.7574692-0.7430458-2.7506409-0.5913086-4.6657867
	C37.1388626,31.585453,36.75,30.875,34.7916679,30.583334C31.2825832,30.0607033,31.916666,33.875,31.916666,33.875z"/>
<path style="fill:#717071;" d="M25.298008,17.8815002l-4.6465588-3.7815752c0,0-1.4457855,1.1405096-1.2927704,2.9236841
	s0.7361374,2.6902008,1.1726875,2.688755L25.298008,17.8815002z"/>
<path style="fill:#662B02;" d="M41.0516129,15.8005209c0,0,3.3264046,0.3860044,4.2440338,0.5944643
	S46.4583321,18.375,46.4583321,18.375s0.7294083,3.7701111,0.5,4.458334
	c-0.2294044,0.688221-0.600666,2.7939854-1.7477036,3.2552071c-1.1470337,0.4612789-1.6726685,0.3814125-1.2894669-0.765625
	c0.0887756-0.2657547,0.2145119-0.5115738,0.3549232-0.7460766c-0.0716896-0.0498466-0.1275291-0.105854-0.1423149-0.1715527
	c-0.0685539-0.3045692,0.1839714-1.0527592,0.1839714-1.0527592l0.9128113-0.7457409
	c0.0249786-0.06637,0.0541573-0.1322899,0.0710182-0.1997242C45.5309753,21.4894352,43.75,19.875,43.9583321,18.8502731
	l-2.9067192-0.3262787V15.8005209z"/>
<polygon style="fill:#662B02;" points="17.9559155,14.8169641 22.1338081,14.486475 21.8822899,17.2655277 18.0693531,17.3677425 
	"/>
<g>
	<g>
		<path style="fill:#F5F5F5;" d="M36.5122337,14.0917683c0,0,3.2800636,0.8660889,4.9382057,1.2295532
			c0.4502563,0.7302856,1.4290771,2.821106-0.0393066,5.3227539l-4.1113892-0.3980103
			C37.2997437,20.2460651,35.4792747,16.5039387,36.5122337,14.0917683z"/>
		<path style="fill:#F5F5F5;" d="M42.0768433,15.4430256c0.0977783,0.0153198,0.1850586,0.0267334,0.2564697,0.0322266
			c1.083374,0.083313,1.25,4.75-0.083313,5.25l-0.2926025-0.0283203
			C43.1867676,18.4272175,42.5762939,16.4497395,42.0768433,15.4430256z"/>
		<path style="fill:#3E3A39;" d="M41.4504395,15.3213215c0.2390137,0.0524292,0.4519043,0.0942993,0.6264038,0.1217041
			c0.4994507,1.0067139,1.1099243,2.9841919-0.1194458,5.2539063l-0.5462646-0.0528564
			C42.8795166,18.1424274,41.9006958,16.0516071,41.4504395,15.3213215z"/>
	</g>
	<g>
		<path style="fill:#F5F5F5;" d="M21.772089,14.0161314l5.1007938-0.2957773
			c2.4035244,4.2509499-0.0395489,5.9879799-0.0395489,5.9879799l-5.1060143,0.0286999
			c0.4188995-0.5141106,0.8826466-1.2539997,1.0077858-2.1381741C22.9283752,16.2321758,22.1771259,14.7149611,21.772089,14.0161314
			z"/>
		<path style="fill:#F5F5F5;" d="M21.7714005,17.3292694c0.0224304-1.4159203-1.1199284-3.229351-1.1199284-3.229351
			l0.5607395-0.0419006c0.2971573,0.4791937,1.2213173,2.1018887,1.0278034,3.4705105
			c-0.1359539,0.9606304-0.7482395,1.7524643-1.1646957,2.1950302l-0.5439491-0.0112247
			C20.5313702,19.7123337,21.7533035,18.4714222,21.7714005,17.3292694z"/>
		<path style="fill:#3E3A39;" d="M21.2122116,14.0580177l0.5598774-0.0418863
			c0.4050369,0.6988297,1.1562862,2.2160444,0.9630165,3.5827284c-0.1251392,0.8841743-0.5888863,1.6240635-1.0077858,2.1381741
			l-0.6520004-0.0134754c0.4164562-0.4425659,1.0287418-1.2343998,1.1646957-2.1950302
			C22.4335289,16.1599064,21.5093689,14.5372114,21.2122116,14.0580177z"/>
	</g>
	<polygon style="fill:#471E02;" points="29.6875,16.3919392 33.8549957,16.3919392 33.6927071,11.3919392 30.098959,11.3919392 	"/>
	<g>
		<path style="fill:#B2B2B3;" d="M32.8735161,26.6589756c-0.0708008-1.480957,0.0893745-3.2269974,0.1670113-4.1957474
			c0.2094727-2.6171875-0.5708008-7.7783203-0.6040039-7.9970703l-0.0074463-0.2927856
			c0.9516602,0.0611572,2.0309448-0.081604,2.0309448-0.081604l2.0522118-0.0000019
			c-0.1402588,1,0.7875099,6.1542988,0.7875099,6.1542988c-0.4247437,3.645874-0.9759712,7.1146317-0.6518135,8.3679886
			c0.9375,3.6250019,0.4247437,3.9972553,0.4247437,3.9972553c-1.3847656-2.2191181-3.1789131-2.118166-4.5216255-1.5173359
			C32.64608,29.8493443,32.9491386,28.2392979,32.8735161,26.6589756z"/>
		<path style="fill:#B2B2B3;" d="M26.3622437,19.9335651c1.333374-2.916626,0.4294224-6.2004776,0.4294224-6.2004776
			c0.4713135-0.3366699,2.333334,0.0129776,2.333334,0.0129776l2.5527344,0.3416138l0.0131836,0.4463501
			c0.012207,0.0981445,0.8041992,5.3388672,0.6015625,7.8696289c-0.0810547,1.0161133-0.2397652,2.7855911-0.1679878,4.2909622
			c0.0809937,1.6913452-0.2086372,3.5501709-0.3573799,4.7669678c-1.1962891,0.5701313-2.7441845,0.8021946-4.9941845,0.5105267
			c-0.875-0.5-0.916666-0.541666,0.1437378-3.5554485C27.5055084,26.7431164,26.3622437,19.9335651,26.3622437,19.9335651z"/>
		<path style="fill:#3E3A39;" d="M32.1244926,26.6946201c-0.0717773-1.5053711,0.0869331-3.2748489,0.1679878-4.2909622
			c0.2026367-2.5307617-0.5893555-7.7714844-0.6015625-7.8696289l-0.0131836-0.4463501l0.4055786,0.0542603
			c0.1114502,0.0145264,0.2281494,0.0238647,0.3457642,0.0314331l0.0074463,0.2927856
			c0.0332031,0.21875,0.8134766,5.3798828,0.6040039,7.9970703c-0.0776367,0.96875-0.237812,2.7147903-0.1670113,4.1957474
			c0.0756226,1.5803223-0.2274361,3.1903687-0.3224678,4.4349976c-0.244873,0.1095581-0.5070801,0.2356567-0.7839355,0.3676147
			C31.9158554,30.244791,32.2054863,28.3859653,32.1244926,26.6946201z"/>
	</g>
	<g>
		<path style="fill:#9C9C9D;" d="M32.4147949,12.6723347c1.1260986,0.0869141,1.8048706,0.180481,1.8048706,0.180481
			l0.2403564,1.2389526c0,0-1.0892944,0.387085-2.0593262,0.4310913
			C32.4449463,13.8655109,32.4347534,13.1744709,32.4147949,12.6723347z"/>
		<path style="fill:#9C9C9D;" d="M31.6540527,14.473299C30.6002808,14.3011799,29.125,13.7460651,29.125,13.7460651l0.4375-1.104126
			c0,0,0.8939819-0.0768433,2.0991211-0.0182495C31.6828613,13.1144733,31.6971436,13.822176,31.6540527,14.473299z"/>
		<path style="fill:#231815;" d="M31.9603882,14.5169392c-0.0948486-0.0084839-0.2011108-0.0264282-0.3063354-0.0436401
			c0.0430908-0.651123,0.0288086-1.3588257,0.0075684-1.8496094C31.7731323,12.6291218,31.8835449,12.6340046,32,12.6419392
			c0.1454468,0.0098877,0.2816162,0.0201416,0.4147949,0.0303955c0.0199585,0.5021362,0.0301514,1.1931763-0.0140991,1.8505249
			C32.2496338,14.5296955,32.1011353,14.5295734,31.9603882,14.5169392z"/>
	</g>
</g>
<path style="fill:#662B02;" d="M19.3919964,15.3330069c1.5502987,0.6823721,3.7809238,2.7446814,4.7849846,2.7711191
	c1.0040588,0.0264378,1.059309-0.1644516,1.6257229-0.0962009c0.566412,0.0682526,1.4675198,0.2898712,1.5670395,0.5594368
	c0,0,1.2942543,0.1341419,1.1845303,0.5852203c-0.109724,0.4510765-0.25103,0.708128-0.8269081,0.798275
	c-0.5758781,0.0901489-1.1792374,0.5570412-1.8094997,0.4620781c-0.6302643-0.094965-2.0405312-0.3190899-2.6080379-0.7362194
	c-0.512989-0.3770599-4.9735146-1.6763649-5.76437-2.1832409c-1.2741089-0.8166046-0.9458694-1.9322882-0.6201382-2.2243576
	C17.7489185,14.5306339,18.3487148,14.8738003,19.3919964,15.3330069z"/>
<path style="fill:#662B02;" d="M35.543705,7.9155002C35.4306602,7.7887468,35.3237495,7.745358,35.22118,7.733325
	c0.0837708-0.9008102,0.1314392-1.6363959,0.1314392-1.6363959l-3.356966-1.1960855l-3.356966,1.1960855
	c0,0,0.0476704,0.7355857,0.1314411,1.6363959c-0.1025715,0.012033-0.2094822,0.0554218-0.322525,0.1821752
	c-0.5987663,0.6714282,0.0854473,2.078383,0.5431137,2.1866241c0.0273056,0.0064793,0.0491161-0.0125542,0.0738182-0.0184546
	c0.0739918,0.4062347,0.1552162,0.7268496,0.2430935,0.8665619c0.3973827,0.6319151,1.8981743,1.966671,2.6880245,1.966671
	s2.2906437-1.3347559,2.6880245-1.966671c0.0878792-0.1397123,0.1691017-0.4603271,0.2430954-0.8665619
	c0.0247002,0.0059004,0.0465126,0.0249338,0.0738182,0.0184546C35.4582558,9.9938831,36.1424713,8.5869284,35.543705,7.9155002z"/>
<path style="fill:#BC816F;" d="M31.0261421,11.3964033c0,0,1.4020195,0.2369614,2.0536613-0.2172136l-0.098732-0.1382275
	l0.3554382,0.0789871v0.3382416l-0.1629105-0.1407747C33.1735992,11.3174162,31.855505,11.8308315,31.0261421,11.3964033z"/>
<polygon style="fill:#BC816F;" points="31.9956532,9.1405869 31.9956532,10.4918175 32.2128677,10.7813673 31.9956532,10.9422283 
	31.6994534,10.6526785 "/>
<path style="fill:#B3801B;" d="M35.7039986,7.4661531c0,0-0.1716232,1.1386433-0.6635818,1.8955059
	c0,0-0.1642303-1.2521725-0.5828743-1.8955059c0,0-0.0780563,0.567647-0.4943314,0.8893137
	c0,0-0.3087769-1.3434315-2.046545-2.2138233c0,0,0.0305042,1.0974507-2.1643963,2.3841171
	c0,0-0.3198757-0.3784313-0.5194492-0.8325486c0,0-0.2176228,0.7551246-0.2819347,1.668447
	c0,0-0.5884571-1.0251141-0.5884571-1.7252121s3.5194111-2.2138228,3.5194111-2.2138228L35.7039986,7.4661531z"/>
<path style="fill:#B2B2B3;" d="M32.1845856,2.0735068c1.2866669,0.4541175,4.2005882,1.135294,3.8600006,1.8543134
	s-0.6054916,1.6840196-0.2270584,2.3273525c0.3784294,0.6433334,0.3784294,0.7947059-0.1135292,1.2109804
	c0,0-3.4058838-0.9271569-7.3415699,0.1702938c0,0-0.7190189-0.1892157-0.6054897-0.5298038
	s0.4541187-0.7568626,0.4541187-1.2488232s-0.83255-1.4758821-0.1513729-1.9678428
	C28.74086,3.3980165,30.8979187,1.6193892,32.1845856,2.0735068"/>
<path style="fill:#3E3A39;" d="M35.6437225,5.3121252c-1.1360703-0.3446903-2.1025124-0.3368745-2.1520691-0.3341579
	c-0.2510071,0.0044346-0.4496841,0.2110934-0.4461365,0.4616566c0.0044365,0.2483454,0.2075462,0.4465785,0.4550056,0.4465785
	c0.0017738,0,0.0044327,0,0.0070953,0c-0.0023842-0.001164,1.1728783-0.0063195,2.3619995,0.4681978
	c-0.0204582-0.0361433-0.0287704-0.0595365-0.0521088-0.0992274C35.6580238,5.9840994,35.6171684,5.6549859,35.6437225,5.3121252z"
	/>
<path style="fill:#3E3A39;" d="M30.0019531,5.610805c-0.0425739-0.246572-0.2700748-0.4102139-0.5241852-0.3707447
	c-0.0474529,0.0081491-0.6315079,0.1117001-1.3158989,0.370523c0.0284367,0.0901914,0.0491695,0.1750612,0.0491695,0.2472367
	c0,0.3101549-0.134594,0.5866055-0.263092,0.8365583c0.6311207-0.317749,1.3460007-0.5010147,1.6837063-0.5593872
	C29.8782234,6.0924177,30.0445271,5.85782,30.0019531,5.610805z"/>
<g>
	
		<ellipse transform="matrix(0.9712284 -0.2381502 0.2381502 0.9712284 -1.1401893 8.2802649)" style="fill:#524634;" cx="33.6988106" cy="8.8589478" rx="1.3180951" ry="0.8145531"/>
	<path style="fill:#FFFFFF;" d="M33.4072266,9.8349609c-0.5800781,0-1.015625-0.2480469-1.1103516-0.6323242
		c-0.125-0.5117188,0.3925781-1.0634766,1.1787109-1.2563477c0.171875-0.0419922,0.3457031-0.0634766,0.5146484-0.0634766
		c0.5810547,0,1.015625,0.2480469,1.109375,0.6323242c0.0625,0.2548828-0.0332031,0.527832-0.2695313,0.7685547
		c-0.2207031,0.2250977-0.5439453,0.3984375-0.9082031,0.487793C33.75,9.8134766,33.5761719,9.8349609,33.4072266,9.8349609z
		 M33.9902344,8.1328125c-0.1484375,0-0.3017578,0.019043-0.4560547,0.0566406
		c-0.6274414,0.1538086-1.0830078,0.5908203-0.9941406,0.9536133c0.0649414,0.2646484,0.4130859,0.4418945,0.8671875,0.4418945
		c0.1484375,0,0.3017578-0.019043,0.4560547-0.0566406c0.3193359-0.078125,0.5996094-0.2275391,0.7880859-0.4194336
		c0.1738281-0.1767578,0.2470703-0.3666992,0.2060547-0.5341797C34.7929688,8.3100586,34.4443359,8.1328125,33.9902344,8.1328125z"
		/>
</g>
<g>
	
		<ellipse transform="matrix(-0.9712284 -0.2381502 0.2381502 -0.9712284 57.6036682 24.6771717)" style="fill:#524634;" cx="30.2924976" cy="8.8589478" rx="1.3180951" ry="0.8145531"/>
	<path style="fill:#FFFFFF;" d="M30.5844727,9.8349609c-0.1694336,0-0.3427734-0.0214844-0.515625-0.0634766
		c-0.7856445-0.1928711-1.3032227-0.7446289-1.1782227-1.2563477c0.0947266-0.3842773,0.5302734-0.6323242,1.1098633-0.6323242
		c0.1694336,0,0.3427734,0.0214844,0.515625,0.0634766c0.7856445,0.1928711,1.3032227,0.7446289,1.1782227,1.2563477
		C31.5996094,9.5869141,31.1640625,9.8349609,30.5844727,9.8349609z M30.0004883,8.1328125
		c-0.4536133,0-0.8017578,0.1772461-0.8666992,0.4418945C29.0449219,8.9375,29.5004883,9.3745117,30.128418,9.5283203
		c0.1533203,0.0375977,0.3066406,0.0566406,0.4560547,0.0566406c0.4536133,0,0.8017578-0.1772461,0.8666992-0.4418945
		c0.0888672-0.362793-0.3666992-0.7998047-0.9946289-0.9536133C30.3032227,8.1518555,30.1499023,8.1328125,30.0004883,8.1328125z"/>
</g>
<path style="fill:#FFFFFF;" d="M32.4379768,8.668396c0,0-0.1548157,0.1954794-0.4423237,0.1954794
	S31.5533314,8.668396,31.5533314,8.668396v0.7197533c0,0,0.1714001-0.2564116,0.4423218-0.2564116
	s0.4423237,0.2564116,0.4423237,0.2564116V8.668396z"/>
<g>
</g>
<g>
</g>
<g>
</g>
<g>
</g>
<g>
</g>
<g>
</g>
</svg>
