<?xml version="1.0" encoding="UTF-8" standalone="no"?>
<!-- Generated by phantom_svg. -->

<svg
   xmlns:dc="http://purl.org/dc/elements/1.1/"
   xmlns:cc="http://creativecommons.org/ns#"
   xmlns:rdf="http://www.w3.org/1999/02/22-rdf-syntax-ns#"
   xmlns:svg="http://www.w3.org/2000/svg"
   xmlns="http://www.w3.org/2000/svg"
   xmlns:sodipodi="http://sodipodi.sourceforge.net/DTD/sodipodi-0.dtd"
   xmlns:inkscape="http://www.inkscape.org/namespaces/inkscape"
   width="64px"
   height="64px"
   viewBox="0 0 64 64"
   preserveAspectRatio="none"
   version="1.1"
   id="svg582"
   inkscape:version="0.91 r13725"
   sodipodi:docname="face_base(pudding).svg">
  <metadata
     id="metadata679">
    <rdf:RDF>
      <cc:Work
         rdf:about="">
        <dc:format>image/svg+xml</dc:format>
        <dc:type
           rdf:resource="http://purl.org/dc/dcmitype/StillImage" />
      </cc:Work>
    </rdf:RDF>
  </metadata>
  <defs
     id="defs677" />
  <sodipodi:namedview
     pagecolor="#ffffff"
     bordercolor="#666666"
     borderopacity="1"
     objecttolerance="10"
     gridtolerance="10"
     guidetolerance="10"
     inkscape:pageopacity="0"
     inkscape:pageshadow="2"
     inkscape:window-width="1920"
     inkscape:window-height="1017"
     id="namedview675"
     showgrid="false"
     inkscape:zoom="10.429825"
     inkscape:cx="30.535447"
     inkscape:cy="36.492597"
     inkscape:window-x="0"
     inkscape:window-y="26"
     inkscape:window-maximized="1"
     inkscape:current-layer="g584" />
  <g
     id="g584">
    <g
       id="g586">
      <linearGradient
         id="SVGID_1_"
         gradientUnits="userSpaceOnUse"
         x1="27.2802734"
         y1="24.3085938"
         x2="44.4940567"
         y2="73.9820175">
        <stop
           offset="0"
           style="stop-color:#FFF1BF"
           id="stop589" />
        <stop
           offset="0.1983559"
           style="stop-color:#FFE9B2"
           id="stop591" />
        <stop
           offset="0.566525"
           style="stop-color:#FFD38F"
           id="stop593" />
        <stop
           offset="1"
           style="stop-color:#FFB55F"
           id="stop595" />
      </linearGradient>
      <path
         style="fill:url(#SVGID_1_);"
         d="M59.9140625,31.0390625c5.2558594,29.3837891-6.1865234,27.7451172-28.2299805,27.7675781    c-18.5625,0.0205078-33.3339844-1.1259766-27.6210938-26.0078125C9.6430664,8.4931641,13.121582,3.2714844,31.684082,3.2714844    C51.8408203,3.2714844,55.46875,6.1865234,59.9140625,31.0390625z"
         id="path597" />
      <linearGradient
         id="SVGID_2_"
         gradientUnits="userSpaceOnUse"
         x1="37.8964844"
         y1="-6.8051758"
         x2="34.0634613"
         y2="14.0283356">
        <stop
           offset="0"
           style="stop-color:#D23A18"
           id="stop600" />
        <stop
           offset="0.2649619"
           style="stop-color:#DA4E1C"
           id="stop602" />
        <stop
           offset="0.8068733"
           style="stop-color:#ED8328"
           id="stop604" />
        <stop
           offset="0.89697"
           style="stop-color:#F18C2A"
           id="stop606" />
        <stop
           offset="0.9146296"
           style="stop-color:#F29537"
           id="stop608" />
        <stop
           offset="0.9474026"
           style="stop-color:#F5AD5A"
           id="stop610" />
        <stop
           offset="0.9913981"
           style="stop-color:#F9D391"
           id="stop612" />
        <stop
           offset="1"
           style="stop-color:#FADB9D"
           id="stop614" />
      </linearGradient>
      <path
         style="fill:url(#SVGID_2_);"
         d="M19.9902344,5.2011719c-7.109375,2.1601563-9.5878906,4.9951172-4.0390625,5.6621094    C21.5,11.5292969,30,8.5898438,34,9.8095703s2.4082031,4.1826172,6.3330078,4.0537109s3.7958984-2.9873047,7.4833984,0.0039063    s7.40625,5.6699219,8.2949219,0C57,8.1962891,40.8144531-1.1279297,19.9902344,5.2011719z"
         id="path616" />
      <linearGradient
         id="SVGID_3_"
         gradientUnits="userSpaceOnUse"
         x1="35.6435547"
         y1="5.1572266"
         x2="59.5605316"
         y2="0.6572165">
        <stop
           offset="0"
           style="stop-color:#D23A18"
           id="stop619" />
        <stop
           offset="0.2649619"
           style="stop-color:#DA4E1C"
           id="stop621" />
        <stop
           offset="0.8068733"
           style="stop-color:#ED8328"
           id="stop623" />
        <stop
           offset="0.89697"
           style="stop-color:#F18C2A"
           id="stop625" />
        <stop
           offset="0.9146296"
           style="stop-color:#F29537"
           id="stop627" />
        <stop
           offset="0.9474026"
           style="stop-color:#F5AD5A"
           id="stop629" />
        <stop
           offset="0.9913981"
           style="stop-color:#F9D391"
           id="stop631" />
        <stop
           offset="1"
           style="stop-color:#FADB9D"
           id="stop633" />
      </linearGradient>
      <path
         style="fill:url(#SVGID_3_);"
         d="M18.4052734,5.1318359c0,0,17.9560547,1.8095703,30.5673828,1.0205078    C48.9726563,6.1523438,37.3935547-0.1835938,18.4052734,5.1318359z"
         id="path635" />
      <path
         style="fill:#FFBC80;"
         d="M34.0449219,6.7578125c-5.862793,0-14.019043-0.9697266-14.1010742-0.9794922    C19.7211914,5.7509766,19.5625,5.5488281,19.5888672,5.3261719c0.0268555-0.2226563,0.2280273-0.3535156,0.4516602-0.3271484    C20.1220703,5.0087891,28.230957,6,34.0449219,6c0.0126953,0,0.0253906,0,0.0390625,0l0,0    c0.2246094,0,0.40625,0.1542969,0.40625,0.3779297C34.4902344,6.6162109,34.28125,6.7578125,34.0449219,6.7578125z"
         id="path637" />
      <path
         style="fill:#FFBC80;"
         d="M39.6357422,6.7587891c-0.8427734,0-1.3945313-0.0097656-1.3945313-0.0097656    c-0.2236328-0.0029297-0.4033203-0.1572266-0.3994141-0.3808594C37.8457031,6.1464844,38.0263672,6,38.2480469,6    C38.25,6,38.2529297,6,38.2548828,6c0.0029297,0,1.2324219,0,2.8173828,0c0.0009766,0,0.0029297,0,0.0048828,0    c0.2216797,0,0.4033203,0.1474609,0.40625,0.3691406c0.0029297,0.2246094-0.1767578,0.3935547-0.4013672,0.3955078    C40.5488281,6.7724609,40.0556641,6.7587891,39.6357422,6.7587891z"
         id="path639" />
      <path
         style="fill:#FFFFFF;"
         d="M16.7685547,9.0742188c1.5175781-1.1435547,4.5283203-0.4267578,1.9765625,3.015625    C16.1933594,15.53125,11.7011719,12.8945313,16.7685547,9.0742188z"
         id="path641" />
      <path
         style="fill:#FFFFFF;"
         d="M14.9853516,15.6210938c1.2050781,0.0419922-0.1513672,3.1103516-1.1513672,2.6757813    C12.8339844,17.8632813,12.8046875,15.5449219,14.9853516,15.6210938z"
         id="path643" />
      <path
         style="opacity:0.35;fill:#FFFFFF;"
         d="M41.1572266,54.5009766    C39.7675781,53.0361328,48.1171875,54.6601563,51.25,52.2695313c3.5839844-2.7353516,6.1298828-4.3105469,5.6289063-1.4667969    C56.3076172,54.0458984,43.1748047,56.6298828,41.1572266,54.5009766z"
         id="path645" />
    </g>
    <path
       style="fill:#541715;"
       d="M37.6367188,60.0361328l-5.9511719-0.0107422l-0.4541016,0.0009766   c-11.4873047,0-21.4038086-0.5117188-26.4135742-6.8027344C1.3208008,48.8330078,0.6850586,42.0625,2.875,32.5263672   C8.4550781,8.2197266,12.0141602,2.0517578,31.684082,2.0517578c21.105957,0,24.956543,3.7646484,29.4301758,28.7724609   c2.2011719,12.3085938,1.5869141,19.7050781-1.9941406,23.9833984   C55.0576172,59.6611328,47.6533203,60.0361328,37.6367188,60.0361328z M32.1640625,57.5869141l5.4726563,0.0107422   c9.3496094,0,16.2294922-0.3115234,19.6142578-4.3554688c3.0332031-3.6240234,3.4980469-10.6113281,1.4628906-21.9882813   C54.2519531,6.3076172,50.8505859,4.4902344,31.684082,4.4902344c-17.2709961,0-20.7294922,3.7392578-26.4331055,28.5810547   c-2.0126953,8.7666016-1.5302734,14.8613281,1.4741211,18.6337891c4.3325195,5.4404297,13.6616211,5.8828125,24.5063477,5.8828125   L32.1640625,57.5869141z"
       id="path653" />
  </g>
</svg>
