<?xml version="1.0" encoding="UTF-8" standalone="no"?>
<!-- Generated by phantom_svg. -->

<svg
   xmlns:dc="http://purl.org/dc/elements/1.1/"
   xmlns:cc="http://creativecommons.org/ns#"
   xmlns:rdf="http://www.w3.org/1999/02/22-rdf-syntax-ns#"
   xmlns:svg="http://www.w3.org/2000/svg"
   xmlns="http://www.w3.org/2000/svg"
   xmlns:sodipodi="http://sodipodi.sourceforge.net/DTD/sodipodi-0.dtd"
   xmlns:inkscape="http://www.inkscape.org/namespaces/inkscape"
   width="64px"
   height="64px"
   viewBox="0 0 64 64"
   preserveAspectRatio="none"
   version="1.1"
   id="svg492"
   inkscape:version="0.91 r13725"
   sodipodi:docname="face_base(poop).svg">
  <metadata
     id="metadata580">
    <rdf:RDF>
      <cc:Work
         rdf:about="">
        <dc:format>image/svg+xml</dc:format>
        <dc:type
           rdf:resource="http://purl.org/dc/dcmitype/StillImage" />
      </cc:Work>
    </rdf:RDF>
  </metadata>
  <defs
     id="defs578" />
  <sodipodi:namedview
     pagecolor="#ffffff"
     bordercolor="#666666"
     borderopacity="1"
     objecttolerance="10"
     gridtolerance="10"
     guidetolerance="10"
     inkscape:pageopacity="0"
     inkscape:pageshadow="2"
     inkscape:window-width="1920"
     inkscape:window-height="1017"
     id="namedview576"
     showgrid="false"
     inkscape:zoom="10.429825"
     inkscape:cx="56.593984"
     inkscape:cy="36.362267"
     inkscape:window-x="0"
     inkscape:window-y="26"
     inkscape:window-maximized="1"
     inkscape:current-layer="svg492" />
  <g
     id="g494">
    <g
       id="g496">
      <path
         style="fill:#331C03;"
         d="M56.09375,37.5810547c0.5742188-1.3144531,0.8642578-2.7675781,0.8642578-4.3310547    c0-4.1611328-2.5800781-7.7431641-7.4746094-10.3979492c0.1914063-0.6884766,0.2871094-1.418457,0.2871094-2.1801758    c0-11.0478516-16.7080078-17.4404297-17.4194336-17.7075195L31,2.4580078v1.4428711    c0,4.8769531-4.1210938,6.6655273-8.4838867,8.559082c-4.0742188,1.7685547-8.2871094,3.5966797-8.2871094,8.2119141    c0,1.2705078,0.262207,2.434082,0.7817383,3.4750977C9.7207031,25.9746094,7.0415039,29.0327148,7.0415039,33.25    c0,1.8183594,0.3920898,3.4804688,1.1669922,4.9560547C4.253418,40.4912109,2.25,43.6552734,2.25,47.625    C2.25,63,24.6416016,63,32,63s29.75,0,29.75-15.375C61.75,43.7207031,59.8476563,40.3457031,56.09375,37.5810547z"
         id="path498" />
      <path
         style="fill:#3E3A39;"
         d="M32,63.5c-7.4819336,0-30.25,0-30.25-15.875c0-4.0185547,1.9526367-7.2509766,5.8046875-9.6113281    C6.8823242,36.5742188,6.5415039,34.9746094,6.5415039,33.25c0-4.3085938,2.6201172-7.4658203,7.7900391-9.390625    c-0.3999023-0.9760742-0.6025391-2.0454102-0.6025391-3.1875c0-4.9428711,4.5615234-6.9228516,8.5864258-8.6699219    C26.7080078,10.0957031,30.5,8.449707,30.5,3.9008789V1.7368164l2.0263672,0.7592773    c0.7246094,0.2719727,17.7441406,6.7924805,17.7441406,18.1757813c0,0.6660156-0.0703125,1.3129883-0.2089844,1.9287109    c4.8408203,2.7270508,7.3964844,6.402832,7.3964844,10.6494141c0,1.4873047-0.2539063,2.8857422-0.7539063,4.1640625    C60.3847656,40.234375,62.25,43.6679688,62.25,47.625C62.25,63.5,39.4814453,63.5,32,63.5z M31.5,3.1791992v0.7216797    c0,5.2050781-4.4658203,7.1430664-8.784668,9.0175781c-4.1079102,1.7832031-7.9863281,3.4667969-7.9863281,7.753418    c0,1.1884766,0.2451172,2.2822266,0.7290039,3.2519531l0.2543945,0.5097656l-0.5385742,0.1860352    C10.109375,26.3691406,7.5415039,29.2729492,7.5415039,33.25c0,1.7324219,0.3735352,3.3212891,1.1098633,4.7236328    l0.2231445,0.4248047l-0.4160156,0.2402344C4.6708984,40.8271484,2.75,43.8505859,2.75,47.625C2.75,62.5,24.765625,62.5,32,62.5    s29.25,0,29.25-14.875c0-3.7324219-1.8349609-6.9765625-5.453125-9.6416016l-0.3212891-0.2363281l0.1601563-0.3662109    c0.5458984-1.2490234,0.8222656-2.6386719,0.8222656-4.1308594c0-3.9555664-2.4941406-7.3989258-7.2128906-9.9584961    l-0.3496094-0.1899414l0.1064453-0.3833008c0.1777344-0.6416016,0.2685547-1.3300781,0.2685547-2.0463867    c0-10.6982422-16.3969727-16.9775391-17.0952148-17.2392578L31.5,3.1791992z"
         id="path500" />
    </g>
    <g
       id="g502">
      <linearGradient
         id="SVGID_1_"
         gradientUnits="userSpaceOnUse"
         x1="32"
         y1="62"
         x2="32"
         y2="32.3990822">
        <stop
           offset="0"
           style="stop-color:#926134"
           id="stop505" />
        <stop
           offset="1"
           style="stop-color:#C59D62"
           id="stop507" />
      </linearGradient>
      <path
         style="fill:url(#SVGID_1_);"
         d="M32,33.25c0-2.5,28.75,0,28.75,14.375S39.1875,62,32,62S3.25,62,3.25,47.625    S32,35.75,32,33.25z"
         id="path509" />
      <linearGradient
         id="SVGID_2_"
         gradientUnits="userSpaceOnUse"
         x1="32"
         y1="45.2291679"
         x2="32"
         y2="20.1799049">
        <stop
           offset="0"
           style="stop-color:#926134"
           id="stop512" />
        <stop
           offset="1"
           style="stop-color:#C59D62"
           id="stop514" />
      </linearGradient>
      <path
         style="fill:url(#SVGID_2_);"
         d="M32,21.2708321c0-3.0208321,23.9583321,0,23.9583321,11.9791679    S37.9895821,45.2291679,32,45.2291679S8.041667,45.2291679,8.041667,33.25S32,24.291666,32,21.2708321z"
         id="path516" />
      <linearGradient
         id="SVGID_3_"
         gradientUnits="userSpaceOnUse"
         x1="32"
         y1="29.057291"
         x2="32"
         y2="3.9010413">
        <stop
           offset="0"
           style="stop-color:#926134"
           id="stop519" />
        <stop
           offset="1"
           style="stop-color:#C59D62"
           id="stop521" />
      </linearGradient>
      <path
         style="fill:url(#SVGID_3_);"
         d="M32,3.9010413c0,0,16.7708321,6.2890625,16.7708321,16.770834    c0,8.385416-12.578125,8.385416-16.7708321,8.385416s-16.7708321,0-16.7708321-8.385416S32,14.3828125,32,3.9010413z"
         id="path523" />
      <linearGradient
         id="SVGID_4_"
         gradientUnits="userSpaceOnUse"
         x1="27.0694447"
         y1="20.4375"
         x2="27.0694447"
         y2="4.5">
        <stop
           offset="0"
           style="stop-color:#FFFFFF;stop-opacity:0.2"
           id="stop526" />
        <stop
           offset="1"
           style="stop-color:#FFFFFF;stop-opacity:0.3"
           id="stop528" />
      </linearGradient>
      <path
         style="fill:url(#SVGID_4_);"
         d="M32,4.5c0,0,8.75,7.5,0,12.5s-13.75,3.75-13.75,1.25s3.75-3.75,6.25-5    C29.5,10.75,32,8.25,32,4.5z"
         id="path530" />
      <linearGradient
         id="SVGID_5_"
         gradientUnits="userSpaceOnUse"
         x1="32"
         y1="35.75"
         x2="32"
         y2="25.75">
        <stop
           offset="0"
           style="stop-color:#FFFFFF;stop-opacity:0.1"
           id="stop533" />
        <stop
           offset="1"
           style="stop-color:#FFFFFF;stop-opacity:0.2"
           id="stop535" />
      </linearGradient>
      <path
         style="fill:url(#SVGID_5_);"
         d="M48.25,25.75c0,0-1.25,3.75-16.25,3.75s-16.25-3.75-16.25-3.75s-2.5,0-3.75,2.5    c-1.5811386,3.1622772,2.5,7.5,20,7.5s21.5811386-4.3377228,20-7.5C50.75,25.75,48.25,25.75,48.25,25.75z"
         id="path537" />
      <linearGradient
         id="SVGID_6_"
         gradientUnits="userSpaceOnUse"
         x1="32"
         y1="53.8461456"
         x2="32"
         y2="40.75">
        <stop
           offset="0"
           style="stop-color:#FFFFFF;stop-opacity:0.1"
           id="stop540" />
        <stop
           offset="1"
           style="stop-color:#FFFFFF;stop-opacity:0.2"
           id="stop542" />
      </linearGradient>
      <path
         style="fill:url(#SVGID_6_);"
         d="M54.5,40.75c0,0-5.2537918,5.9102249-22.5,5.9102249S9.5,40.75,9.5,40.75    s-2.8743682,0.2745209-4.3115525,3.1488914C3.3705375,47.5347099,11.8794222,53.8461456,32,53.8461456    s28.6294632-6.3114357,26.811554-9.9472542C57.3743668,41.0245209,54.5,40.75,54.5,40.75z"
         id="path544" />
    </g>
  </g>
  <g
     id="g564" />
  <g
     id="g566" />
  <g
     id="g568" />
  <g
     id="g570" />
  <g
     id="g572" />
  <g
     id="g574" />
</svg>
