<?xml version="1.0" encoding="utf-8"?>
<!-- Generator: Adobe Illustrator 15.0.2, SVG Export Plug-In . SVG Version: 6.00 Build 0)  -->
<!DOCTYPE svg PUBLIC "-//W3C//DTD SVG 1.1//EN" "http://www.w3.org/Graphics/SVG/1.1/DTD/svg11.dtd">
<svg version="1.1" id="レイヤー_1" xmlns="http://www.w3.org/2000/svg" xmlns:xlink="http://www.w3.org/1999/xlink" x="0px"
	 y="0px" width="64px" height="64px" viewBox="0 0 64 64" style="enable-background:new 0 0 64 64;" xml:space="preserve">
<g>
	<g>
		<path style="fill:#510202;" d="M32,63.2802734c-3.9848633,0-7.7285156-1.1738281-10.0922852-3.1503906
			c-7.9956055-2.2412109-13.6337891-7.9785156-16.3154297-16.6103516c-3.902832-12.5634766-1.328125-19.8261719,1.519043-23.7060547
			c3.2958984-4.4931641,8.1337891-6.1064453,11.5620117-6.1191406c0.0009766,0,0.0024414,0,0.003418,0
			c1.300293,0,2.4560547,0.0888672,3.5009766,0.2646484l1.7719727-1.7070313h0.4951172
			c1.1503906-0.0039063,3.7553711-0.3916016,4.1108398-1.5166016c0.1303711-0.9150391-0.0336914-1.8232422-0.2143555-2.4697266
			l-0.6591797,0.1611328l0.2558594,2.5234375L24.90625,11.2822266l-3.0786133-5.2207031l6.7104492-5.3417969h0.4291992
			c0.3110352,0,3.1357422,0.1103516,6.5288086,3.9160156L35.6875,4.8505859l0.0761719,0.2773438
			c1.3017578,4.7421875,3.8837891,7.859375,3.9091797,7.8896484l0.1240234,0.1484375l0.4648438,1.1425781
			c1.4169922-0.4082031,3.0820313-0.6142578,4.9667969-0.6142578c3.5263672,0.0126953,8.3652344,1.6269531,11.6611328,6.1191406
			c2.8466797,3.8798828,5.4208984,11.1435547,1.5175781,23.7060547
			c-2.6806641,8.6308594-8.3183594,14.3691406-16.3144531,16.6103516C39.7294922,62.1064453,35.9853516,63.2802734,32,63.2802734z
			 M18.7705078,16.1503906c-2.9179688,0.0107422-6.9233398,1.359375-9.6787109,5.1152344
			c-2.5131836,3.4257813-4.7529297,9.9394531-1.1538086,21.5253906c2.484375,7.9970703,7.4907227,13.0576172,14.8803711,15.0410156
			l0.2817383,0.0761719l0.2177734,0.1943359C25.2270508,59.8066406,28.4726563,60.8232422,32,60.8232422
			s6.7734375-1.0166016,8.6826172-2.7207031l0.2167969-0.1943359l0.2822266-0.0751953
			c7.3896484-1.9853516,12.3964844-7.0458984,14.8798828-15.0419922
			c3.5996094-11.5849609,1.3603516-18.0996094-1.1523438-21.5253906c-2.7558594-3.7558594-6.7617188-5.1044922-9.5917969-5.1152344
			h-0.0009766c-2.1972656,0-3.9453125,0.2802734-5.2871094,0.8330078l-1.1416016,0.4707031l-1.2236328-3.0146484
			c-0.5771484-0.7285156-2.8789063-3.8212891-4.1884766-8.3759766c-1.902832-2.0605469-3.4741211-2.6533203-4.1616211-2.8212891
			l-4.0957031,3.2597656l4.5805664-1.1230469l0.4311523,0.8994141c0.0463867,0.0976563,1.1362305,2.4091797,0.7416992,4.90625
			l-0.0229492,0.1123047c-0.7246094,2.8330078-4.5371094,3.3154297-5.9921875,3.3955078l-2.0014648,1.9287109l-0.6376953-0.1357422
			C21.2729492,16.2626953,20.0795898,16.1503906,18.7705078,16.1503906z"/>
		<path style="fill:#279109;" d="M21.2792969,16.5302734l3.1655273-3.0498047c0,0,4.6777344,0,5.3139648-2.4873047
			c0.3393555-2.1484375-0.6362305-4.1835938-0.6362305-4.1835938l-2.7700195,0.6787109l0.2407227,2.3740234l-1.0322266,0.1132813
			l-2.1333008-3.6181641l5.5395508-4.4091797c0,0,2.4873047,0,5.6118164,3.5048828
			c1.3974609,5.0878906,4.1542969,8.3554688,4.1542969,8.3554688l1.7763672,4.3779297l-9.6152344,6.8261719L21.2792969,16.5302734z"
			/>
		<g>
			<path style="fill:#1C7000;" d="M36.7890625,11.578125v1.9023438l-0.8798828-4.5703125L34.5791016,5.453125l0.7275391,8.4589844
				l-4.4121094,6.3857422h7.2460938l1.4179688-4.4560547C38.6064453,13.4960938,36.7890625,11.578125,36.7890625,11.578125z"/>
			<path style="fill:#1C7000;" d="M33.7197266,8.9101563l-1.0092773-0.9287109c0,0-0.5805664,4.8935547-0.8261719,5.4453125
				s-3.4321289,1.7617188-3.4321289,1.7617188l-5.2680664,3.6503906l6.6054688,0.8447266l3.9301758-5.1582031V8.9101563z"/>
			<path style="fill:#1C7000;" d="M29.175293,11.7011719c0,0-3.4116211,1.6738281-0.2456055,0.5234375
				c3.1660156-1.1513672,1.9648438-5.8837891,1.9648438-5.8837891l-1.9648438-1.1484375l-2.5771484,2.2958984l2.3828125-0.5830078
				C31.1923828,9.7216797,29.175293,11.7011719,29.175293,11.7011719z"/>
		</g>
		<path style="fill:#540C03;" d="M30.8642578,25.5888672l-10.2519531-9.0439453l3.6499023-3.5166016h0.1821289
			c1.2041016-0.0019531,4.4267578-0.390625,4.8764648-2.1474609c0.2294922-1.4619141-0.2236328-2.9052734-0.4663086-3.5400391
			l-2.012207,0.4931641l0.2460938,2.4287109l-1.7685547,0.1943359l-2.4814453-4.2089844l5.9707031-4.7519531h0.1582031
			c0.1098633,0,2.7270508,0.0410156,5.949707,3.65625l0.0986328,0.1806641
			c1.3515625,4.9238281,4.0371094,8.1523438,4.0634766,8.1835938l0.0732422,0.1220703l1.9111328,4.7089844L30.8642578,25.5888672z
			 M21.9462891,16.515625l8.9785156,7.9208984l9.03125-6.4121094l-1.6152344-3.9814453
			c-0.3837891-0.4707031-2.8378906-3.6044922-4.1689453-8.3671875c-2.4775391-2.7441406-4.5161133-3.1904297-5.0634766-3.2617188
			l-5.0913086,4.0517578l1.7851563,3.0283203l0.2958984-0.0322266L25.862793,7.1425781l3.5087891-0.8603516l0.1586914,0.3320313
			c0.0424805,0.0878906,1.0322266,2.1875,0.675293,4.4492188c-0.652832,2.5585938-4.6459961,2.8359375-5.574707,2.8652344
			L21.9462891,16.515625z"/>
		<linearGradient id="SVGID_1_" gradientUnits="userSpaceOnUse" x1="32.0004883" y1="67.6660156" x2="32.0004845" y2="15.163147">
			<stop  offset="0" style="stop-color:#FFBE5F"/>
			<stop  offset="0.1610497" style="stop-color:#F9AC4E"/>
			<stop  offset="0.729017" style="stop-color:#E57016"/>
			<stop  offset="1" style="stop-color:#DD5800"/>
		</linearGradient>
		<path style="fill:url(#SVGID_1_);" d="M45.3222656,14.9228516c-7.7138672-0.0273438-8.6689453,3.4501953-8.6689453,3.4501953
			C32.4868164,17.9785156,32,19.7158203,32,19.7158203s-0.4868164-1.7373047-4.652832-1.3427734
			c0,0-0.9560547-3.4775391-8.6694336-3.4501953C11.3803711,14.9492188,0.347168,22.4970703,6.7651367,43.1552734
			C9.9633789,53.4492188,16.7172852,57.4658203,22.5,59.0185547c2.0483398,1.828125,5.5371094,3.0332031,9.5,3.0332031
			s7.4521484-1.2050781,9.5-3.0332031c5.7822266-1.5527344,12.5371094-5.5693359,15.734375-15.8632813
			C63.6533203,22.4970703,52.6201172,14.9492188,45.3222656,14.9228516z"/>
		<path style="fill:#CC3E00;" d="M32,62.5400391c-0.2700195,0-0.4887695-0.21875-0.4887695-0.4882813V19.7158203
			c0-0.2705078,0.21875-0.4892578,0.4887695-0.4892578s0.4887695,0.21875,0.4887695,0.4892578v42.3359375
			C32.4887695,62.3212891,32.2700195,62.5400391,32,62.5400391z"/>
		<g>
			<path style="fill:#CC3E00;" d="M11.7548828,52.5693359c-0.184082,0-0.3608398-0.1044922-0.4433594-0.2822266
				c-7.0556641-15.1533203-3.5390625-27.2753906,1.6166992-33.0517578
				c3.2958984-3.6933594,7.4350586-5.1738281,11.0678711-3.9599609c0.2558594,0.0859375,0.394043,0.3623047,0.3085938,0.6181641
				c-0.0849609,0.2558594-0.3613281,0.3955078-0.6181641,0.3085938c-3.2524414-1.0839844-7.0014648,0.2910156-10.0292969,3.6845703
				C8.6992188,25.4414063,5.3417969,37.1513672,12.1972656,51.875c0.1137695,0.2441406,0.0078125,0.5351563-0.2368164,0.6494141
				C11.894043,52.5546875,11.8237305,52.5693359,11.7548828,52.5693359z"/>
			<path style="fill:#CC3E00;" d="M52.2460938,52.5693359c-0.0693359,0-0.1396484-0.0146484-0.2060547-0.0449219
				c-0.2451172-0.1142578-0.3505859-0.4052734-0.2373047-0.6494141c6.8554688-14.7236328,3.4980469-26.4345703-1.4609375-31.9892578
				c-3.0283203-3.3925781-6.7792969-4.7685547-10.0273438-3.6835938c-0.2587891,0.0859375-0.5341797-0.0527344-0.6191406-0.3085938
				s0.0527344-0.5322266,0.3085938-0.6181641c3.6328125-1.2138672,7.7705078,0.265625,11.0673828,3.9599609
				c5.15625,5.7753906,8.6728516,17.8974609,1.6181641,33.0517578
				C52.6064453,52.4648438,52.4296875,52.5693359,52.2460938,52.5693359z"/>
		</g>
		<linearGradient id="SVGID_2_" gradientUnits="userSpaceOnUse" x1="9.2207031" y1="28.2402344" x2="16.7514935" y2="32.1603737">
			<stop  offset="0" style="stop-color:#FFD99F"/>
			<stop  offset="0.1143639" style="stop-color:#FFD393;stop-opacity:0.8856361"/>
			<stop  offset="0.7139918" style="stop-color:#FFB857;stop-opacity:0.2860082"/>
			<stop  offset="1" style="stop-color:#FFAD3F;stop-opacity:0"/>
		</linearGradient>
		<path style="fill:url(#SVGID_2_);" d="M9.8950195,30.8583984c0.7949219-9.2939453,8.3222656-15.0869141,11.9091797-12.9619141
			c3.5864258,2.125-6.1582031,3.5410156-4.8725586,19.7138672C18.2172852,53.7822266,8.3105469,49.3916016,9.8950195,30.8583984z"/>
		<linearGradient id="SVGID_3_" gradientUnits="userSpaceOnUse" x1="16.0039063" y1="31.9379883" x2="23.9451981" y2="34.9674225">
			<stop  offset="0" style="stop-color:#FFD99F"/>
			<stop  offset="0.1143639" style="stop-color:#FFD393;stop-opacity:0.8856361"/>
			<stop  offset="0.7139918" style="stop-color:#FFB857;stop-opacity:0.2860082"/>
			<stop  offset="1" style="stop-color:#FFAD3F;stop-opacity:0"/>
		</linearGradient>
		<path style="fill:url(#SVGID_3_);" d="M19.7192383,42.4023438c-1.9189453-15.3505859,6.3217773-24.5605469,8.9941406-22.1044922
			s1.8442383,18.8867188,1.0761719,26.0361328C29.0214844,53.4824219,21.3364258,55.3349609,19.7192383,42.4023438z"/>
		<linearGradient id="SVGID_4_" gradientUnits="userSpaceOnUse" x1="38.9492188" y1="32.8212891" x2="49.651577" y2="31.2431087">
			<stop  offset="0" style="stop-color:#FFD99F"/>
			<stop  offset="0.1143639" style="stop-color:#FFD393;stop-opacity:0.8856361"/>
			<stop  offset="0.7139918" style="stop-color:#FFB857;stop-opacity:0.2860082"/>
			<stop  offset="1" style="stop-color:#FFAD3F;stop-opacity:0"/>
		</linearGradient>
		<path style="fill:url(#SVGID_4_);" d="M53.9863281,29.6308594c-1.1708984-9.6689453-8.8554688-15.1054688-14.1367188-12.8945313
			c-5.2802734,2.2099609,9.0664063,3.6835938,7.1728516,20.5087891
			C45.1308594,54.0693359,56.3193359,48.9111328,53.9863281,29.6308594z"/>
		<linearGradient id="SVGID_5_" gradientUnits="userSpaceOnUse" x1="26.3383789" y1="34.3730469" x2="37.8819962" y2="36.092308">
			<stop  offset="0" style="stop-color:#FFD99F"/>
			<stop  offset="0.1143639" style="stop-color:#FFD393;stop-opacity:0.8856361"/>
			<stop  offset="0.7139918" style="stop-color:#FFB857;stop-opacity:0.2860082"/>
			<stop  offset="1" style="stop-color:#FFAD3F;stop-opacity:0"/>
		</linearGradient>
		<path style="fill:url(#SVGID_5_);" d="M43.5341797,42.4023438c1.9189453-15.3505859-6.3212891-24.5605469-8.9931641-22.1044922
			c-2.6733398,2.4560547-1.8447266,18.8867188-1.0771484,26.0361328
			C34.2314453,53.4824219,41.9169922,55.3349609,43.5341797,42.4023438z"/>
		<path style="fill:#CC3E00;" d="M22.5004883,59.5068359c-0.1391602,0-0.2773438-0.0585938-0.3740234-0.1728516
			c-2.1118164-2.5048828-6.5878906-17.2333984-4.0737305-28.8095703c1.3310547-6.1298828,4.3876953-10.3671875,9.0849609-12.5927734
			c0.246582-0.1162109,0.5351563-0.0117188,0.6508789,0.2314453c0.1157227,0.2441406,0.0117188,0.5361328-0.2319336,0.6513672
			c-4.4091797,2.0898438-7.2856445,6.0996094-8.5493164,11.9179688
			c-2.4072266,11.0859375,1.8955078,25.6337891,3.8662109,27.9707031c0.1738281,0.2070313,0.1479492,0.5146484-0.0585938,0.6894531
			C22.7231445,59.4697266,22.6113281,59.5068359,22.5004883,59.5068359z"/>
		<path style="fill:#CC3E00;" d="M41.5,59.5068359c-0.0722656,0-0.1455078-0.015625-0.2148438-0.0498047
			c-0.2421875-0.1191406-0.3427734-0.4111328-0.2236328-0.6533203c0.1298828-0.2666016,12.8291016-26.7314453-4.7041016-40.0419922
			c-0.2148438-0.1630859-0.2568359-0.4697266-0.09375-0.6845703c0.1650391-0.2138672,0.4707031-0.2548828,0.6855469-0.09375
			c18.1748047,13.7978516,5.1230469,40.9775391,4.9892578,41.25C41.8535156,59.4072266,41.6806641,59.5068359,41.5,59.5068359z"/>
		<path style="fill:#540C03;" d="M32,62.5166016c-3.8823242,0-7.5068359-1.1484375-9.7260742-3.0771484
			C14.3442383,57.2753906,8.9775391,51.84375,6.3208008,43.2929688C2.512207,31.0341797,4.9829102,24.0029297,7.7265625,20.2646484
			c3.1279297-4.2636719,7.7070313-5.7958984,10.949707-5.8076172c6.5766602,0,8.4770508,2.4677734,8.9667969,3.4248047
			C30.2563477,17.6894531,31.4453125,18.3417969,32,18.8945313c0.5541992-0.5527344,1.734375-1.2041016,4.3564453-1.0126953
			c0.4873047-0.9580078,2.3730469-3.4248047,8.8759766-3.4248047c3.3339844,0.0117188,7.9140625,1.5439453,11.0419922,5.8076172
			c2.7431641,3.7392578,5.2138672,10.7695313,1.4042969,23.0283203
			c-2.6552734,8.5498047-8.0224609,13.9814453-15.9521484,16.1464844C39.5078125,61.3681641,35.8828125,62.5166016,32,62.5166016z
			 M18.7680664,15.3876953c-3.1040039,0.0107422-7.3681641,1.4423828-10.2915039,5.4267578
			c-2.6166992,3.5664063-4.9604492,10.3134766-1.2670898,22.203125c2.5673828,8.2626953,7.7524414,13.4951172,15.4111328,15.5517578
			l0.1069336,0.0283203l0.0820313,0.0742188C24.8549805,60.4970703,28.2905273,61.5869141,32,61.5869141
			c3.7099609,0,7.1455078-1.0898438,9.1904297-2.9150391l0.0820313-0.0742188l0.1064453-0.0283203
			c7.6601563-2.0566406,12.8447266-7.2890625,15.4111328-15.5517578c3.6943359-11.8896484,1.3505859-18.6357422-1.2666016-22.203125
			c-2.9228516-3.984375-7.1875-5.4160156-10.203125-5.4267578c-7.2001953,0-8.2109375,3.0820313-8.2197266,3.1132813
			l-0.1103516,0.3652344l-0.3808594-0.0302734c-3.5908203-0.3398438-4.1606445,1.0068359-4.1655273,1.0185547l-0.8916016-0.0136719
			l0,0c-0.0009766,0-0.5742188-1.3466797-4.1611328-1.0048828l-0.3886719,0.0371094l-0.1040039-0.3769531
			C26.890625,18.4707031,25.878418,15.3876953,18.7680664,15.3876953z"/>
	</g>
	<linearGradient id="SVGID_6_" gradientUnits="userSpaceOnUse" x1="42.6748047" y1="38.6367188" x2="42.6748047" y2="32.2577782">
		<stop  offset="0" style="stop-color:#FFB242"/>
		<stop  offset="0.4317823" style="stop-color:#CC6723"/>
		<stop  offset="0.8172621" style="stop-color:#A22B0A"/>
		<stop  offset="1" style="stop-color:#921300"/>
	</linearGradient>
	<path style="fill:url(#SVGID_6_);" d="M41.0566406,38.6210938c0,0-3.3496094-0.7011719-4.9189453-4.4033203l-0.8310547-2.3964844
		l0.6025391-2.4990234L39.5585938,30c0,0,5.7207031-0.2763672,6.7998047-0.6777344l3.6845703-1.0830078
		C50.0429688,28.2392578,49.0185547,36.6367188,41.0566406,38.6210938z"/>
	<linearGradient id="SVGID_7_" gradientUnits="userSpaceOnUse" x1="21.0336914" y1="38.6376953" x2="21.0336914" y2="31.986927">
		<stop  offset="0" style="stop-color:#FFB242"/>
		<stop  offset="0.4317823" style="stop-color:#CC6723"/>
		<stop  offset="0.8172621" style="stop-color:#A22B0A"/>
		<stop  offset="1" style="stop-color:#921300"/>
	</linearGradient>
	<path style="fill:url(#SVGID_7_);" d="M22.6928711,38.6210938c0,0-3.5717773,0.1845703-7.5478516-6.7998047l-1.2749023-4.0244141
		c0,0,5.4936523,1.8789063,6.3085938,2.0205078c0.8144531,0.1416016,5.0727539,0,5.0727539,0l1.8364258-0.4951172
		l1.109375,2.4990234C28.1972656,31.8212891,27.0180664,37.53125,22.6928711,38.6210938z"/>
	<linearGradient id="SVGID_8_" gradientUnits="userSpaceOnUse" x1="32.2275391" y1="62.9521484" x2="32.2275391" y2="46.9930038">
		<stop  offset="0" style="stop-color:#FFC35C"/>
		<stop  offset="0.394147" style="stop-color:#D98434"/>
		<stop  offset="0.8040365" style="stop-color:#B4480F"/>
		<stop  offset="1" style="stop-color:#A63000"/>
	</linearGradient>
	<path style="fill:url(#SVGID_8_);" d="M19.894043,43.6035156c0,0-4.171875-0.9619141-5.9658203-3.9238281l-3.4599609-2.6806641
		c0,0,2.3955078,9.4951172,4.5029297,10.234375l1.5551758,0.6835938l0.4257813,2.7382813l1.703125,2.2275391l1.2387695-1.5566406
		l1.3852539,1.8837891l0.4868164,0.7363281l2.8125-0.9824219v3.0214844l3.793457,1.2353516l1.4174805-4.3378906h0.7539063
		l0.574707,4.3378906c0,0,5.8476563-0.1972656,7.4414063-1.2617188v-3.6650391l1.9501953,0.0976563l0.4150391,2.2099609
		c0,0,3.5185547-1.7636719,4.0927734-2.6835938l0.5869141-1.5078125l2.0224609-1.0488281l0.2412109-0.9824219L49.1923828,48.0625
		c0,0,4.6298828-3.9404297,4.7939453-10.4902344l-7.25,4.9638672l-0.0810547,1.8320313L45.96875,44.5634766l-0.1064453-1.3183594
		c0,0-4.2832031,1.5322266-4.0380859,1.5322266c0.2460938,0,0,3.9111328,0,3.9111328l-1.3144531,0.0185547v-3.6835938
		c0,0-10.7915039,1.5546875-12.3574219,0.6542969l0.1635742,2.2392578h-2.7832031l-0.1396484-2.5302734l-3.6518555-0.6103516
		l-0.0571289,1.8847656h-1.5551758L19.894043,43.6035156z"/>
	<g>
		<path style="fill:#510202;" d="M37.8320313,51.7890625h3.2490234l0.3916016,1.9355469
			c1.1982422-0.5546875,1.9238281-0.9287109,2.9492188-1.6835938l0.4609375-2.0517578l1.5195313-0.7480469l1.3144531-1.7236328
			c0,0,0.4873047-0.0605469,1.0478516-0.0986328c1.4169922-2.2568359,2.8984375-3.4609375,3.3896484-7.5712891
			c-1.671875,1.0361328-2.9619141,2.1367188-4.8525391,3.2509766v1.7568359h-1.796875v-0.8935547
			c-0.8369141,0.3505859-1.7353516,0.6767578-2.6962891,0.9580078v4.3212891h-2.9707031v-3.59375
			c-2.4257813,0.4794922-5.0839844,0.7460938-7.8417969,0.7460938c-1.0688477,0-2.1240234-0.0390625-3.1586914-0.1191406v2.1425781
			h-3.8671875v-2.6210938c-0.9780273-0.1679688-1.9223633-0.3701172-2.8256836-0.6015625v2.3232422h-2.4873047v-3.0830078
			c-3.1313477-1.1103516-7.5517578-5.0732422-7.5517578-5.0732422s1.5766602,5.2832031,2.675293,7.2832031l2.206543,0.7226563
			l0.4208984,2.7988281c0.3984375,0.4101563,0.8188477,0.7988281,1.2626953,1.1699219l1.6767578-0.7470703l1.5883789,2.3984375
			l2.9726563-0.8251953c0,0,0.0571289,1.5478516,0.0605469,2.6777344c1.0888672,0.3681641,2.2265625,0.6552734,3.4042969,0.8496094
			l1.1450195-3.9003906h1.4023438l0.8295898,4.1904297c0.0825195,0,0.1630859,0.0058594,0.2456055,0.0058594
			c2.0390625,0,3.9980469-0.2753906,5.8359375-0.7832031V51.7890625z"/>
	</g>
	<linearGradient id="SVGID_9_" gradientUnits="userSpaceOnUse" x1="32.3349609" y1="45.0966797" x2="32.3349609" y2="37.3210182">
		<stop  offset="0" style="stop-color:#FFC35C"/>
		<stop  offset="0.394147" style="stop-color:#D98434"/>
		<stop  offset="0.8040365" style="stop-color:#B4480F"/>
		<stop  offset="1" style="stop-color:#A63000"/>
	</linearGradient>
	<polygon style="fill:url(#SVGID_9_);" points="29.7895508,43.4667969 27.347168,41.8300781 29.7895508,36.9990234 
		31.6728516,33.8242188 37.3222656,42.1572266 31.1181641,43.8056641 	"/>
	<g>
		<radialGradient id="SVGID_10_" cx="31.7543945" cy="45.0224609" r="18.0311966" gradientUnits="userSpaceOnUse">
			<stop  offset="0" style="stop-color:#FFFF7D"/>
			<stop  offset="1" style="stop-color:#FFA700"/>
		</radialGradient>
		<path style="fill:url(#SVGID_10_);" d="M47.3017578,43.0986328v1.7568359h-1.796875v-0.8935547
			c-0.8369141,0.3505859-1.7353516,0.6767578-2.6962891,0.9580078v4.3212891h-2.9707031v-3.59375
			c-2.4257813,0.4794922-5.0839844,0.7460938-7.8417969,0.7460938c-1.0688477,0-2.1240234-0.0390625-3.1586914-0.1191406v2.1425781
			h-3.8671875v-2.6210938c-0.9780273-0.1679688-1.9223633-0.3701172-2.8256836-0.6015625v2.3232422h-2.4873047v-3.0830078
			c-3.1313477-1.1103516-7.5517578-5.0732422-7.5517578-5.0732422s1.5766602,5.2832031,2.675293,7.2832031l2.206543,0.7226563
			l0.4208984,2.7988281c0.3984375,0.4101563,0.8188477,0.7988281,1.2626953,1.1699219l1.6767578-0.7470703l1.5883789,2.3984375
			l2.9726563-0.8251953c0,0,0.0571289,1.5478516,0.0605469,2.6777344c1.0888672,0.3681641,2.2265625,0.6552734,3.4042969,0.8496094
			l1.1450195-3.9003906h1.4023438l0.8295898,4.1904297c0.0825195,0,0.1630859,0.0058594,0.2456055,0.0058594
			c2.0390625,0,3.9980469-0.2753906,5.8359375-0.7832031v-3.4130859h3.2490234l0.3916016,1.9355469
			c1.1982422-0.5546875,1.9238281-0.9287109,2.9492188-1.6835938l0.4609375-2.0517578l1.5195313-0.7480469l1.3144531-1.7236328
			c0,0,0.4873047-0.0605469,1.0478516-0.0986328c1.4169922-2.2568359,2.8984375-3.4609375,3.3896484-7.5712891
			C50.4824219,40.8837891,49.1923828,41.984375,47.3017578,43.0986328z"/>
		<path style="fill:#5E0707;" d="M31.9960938,56.1328125c-0.0429688,0-0.0854492-0.0019531-0.1279297-0.0029297
			c-0.0390625-0.0019531-0.078125-0.0029297-0.1176758-0.0029297c-0.0703125,0-0.1308594-0.0498047-0.1445313-0.1191406
			l-0.8061523-4.0712891h-1.1708984l-1.1137695,3.7949219c-0.0214844,0.0712891-0.0957031,0.1132813-0.1655273,0.1035156
			c-1.1635742-0.1923828-2.3164063-0.4794922-3.4277344-0.8554688c-0.0595703-0.0205078-0.0996094-0.0761719-0.1000977-0.1396484
			c-0.0024414-0.8847656-0.0385742-2.0400391-0.0537109-2.4853516l-2.7924805,0.7744141
			c-0.0605469,0.0195313-0.1269531-0.0068359-0.1625977-0.0605469l-1.5195313-2.2939453l-1.5625,0.6962891
			c-0.0512695,0.0224609-0.1103516,0.015625-0.1547852-0.0214844c-0.449707-0.3759766-0.8779297-0.7734375-1.2734375-1.1806641
			C17.28125,50.2470703,17.2670898,50.21875,17.2626953,50.1875l-0.4077148-2.7089844l-2.1201172-0.6943359
			c-0.0356445-0.0117188-0.0654297-0.0361328-0.0834961-0.0683594c-1.0932617-1.9912109-2.6225586-7.0957031-2.6870117-7.3125
			c-0.019043-0.0634766,0.0063477-0.1308594,0.0620117-0.1660156c0.0561523-0.0351563,0.1279297-0.0302734,0.1772461,0.0146484
			c0.0444336,0.0390625,4.4350586,3.9560547,7.5029297,5.0439453c0.0585938,0.0205078,0.0981445,0.0761719,0.0981445,0.1386719
			v2.9355469h2.1923828v-2.1757813c0-0.0458984,0.0209961-0.0888672,0.0571289-0.1162109
			c0.0351563-0.0283203,0.0820313-0.0371094,0.1269531-0.0263672c0.909668,0.2324219,1.8564453,0.4345703,2.8139648,0.5986328
			c0.0708008,0.0126953,0.1225586,0.0742188,0.1225586,0.1455078v2.4736328h3.5722656v-1.9951172
			c0-0.0410156,0.0170898-0.0800781,0.0473633-0.1083984c0.0297852-0.0283203,0.0683594-0.046875,0.1113281-0.0380859
			c1.0180664,0.078125,2.0766602,0.1181641,3.1474609,0.1181641c2.6894531,0,5.3183594-0.25,7.8134766-0.7431641
			c0.0390625-0.0097656,0.0878906,0.0029297,0.1220703,0.0302734c0.0341797,0.0283203,0.0537109,0.0703125,0.0537109,0.1142578
			V49.09375h2.6757813v-4.1738281c0-0.0654297,0.0429688-0.1230469,0.1064453-0.1416016
			c0.8955078-0.2617188,1.7978516-0.5830078,2.6806641-0.9521484c0.0429688-0.0195313,0.0957031-0.0146484,0.1386719,0.0126953
			c0.0410156,0.0273438,0.0654297,0.0742188,0.0654297,0.1230469v0.7460938h1.5019531v-1.609375
			c0-0.0517578,0.0273438-0.1005859,0.0722656-0.1269531c1.0380859-0.6113281,1.9003906-1.2236328,2.7353516-1.8164063
			c0.7001953-0.4960938,1.3613281-0.9658203,2.1152344-1.4326172c0.046875-0.0292969,0.1074219-0.0302734,0.15625,0.0009766
			c0.0478516,0.0302734,0.0742188,0.0849609,0.0673828,0.1416016c-0.3925781,3.2851563-1.4287109,4.7607422-2.5253906,6.3212891
			c-0.2910156,0.4140625-0.5908203,0.8408203-0.8857422,1.3105469c-0.0253906,0.0400391-0.0683594,0.0654297-0.1152344,0.0693359
			c-0.4355469,0.0292969-0.8310547,0.0732422-0.9785156,0.0898438l-1.2763672,1.6748047
			c-0.0136719,0.0175781-0.03125,0.0322266-0.0517578,0.0419922l-1.4570313,0.7177734l-0.4453125,1.9824219
			c-0.0078125,0.0351563-0.0273438,0.0654297-0.0566406,0.0869141c-1.0068359,0.7412109-1.7314453,1.1230469-2.9746094,1.6982422
			C41.4941406,53.8759766,41.4462891,53.875,41.40625,53.8564453c-0.0400391-0.0205078-0.0693359-0.0585938-0.078125-0.1025391
			l-0.3671875-1.8173828h-2.9814453v3.265625c0,0.0664063-0.0439453,0.1240234-0.1083984,0.1416016
			C35.9775391,55.8671875,34.0009766,56.1328125,31.9960938,56.1328125z M31.8720703,55.8349609
			c0.0019531,0,0.0043945,0,0.0063477,0c0.0390625,0.0019531,0.078125,0.0029297,0.1176758,0.0029297
			c1.9404297,0,3.8535156-0.2519531,5.6884766-0.7480469v-3.3007813c0-0.0810547,0.0664063-0.1474609,0.1474609-0.1474609h3.2490234
			c0.0703125,0,0.1308594,0.0498047,0.1445313,0.1181641l0.3544922,1.7519531
			c1.1054688-0.515625,1.7919922-0.8857422,2.7099609-1.5566406l0.4492188-1.9980469
			c0.0097656-0.0439453,0.0380859-0.0800781,0.078125-0.0996094l1.4892578-0.7333984l1.2929688-1.6962891
			c0.0244141-0.03125,0.0595703-0.0517578,0.0986328-0.0566406c0.0048828,0,0.4550781-0.0556641,0.9814453-0.09375
			c0.2861328-0.4511719,0.5742188-0.8623047,0.8544922-1.2597656c1.0849609-1.5449219,2.0263672-2.8847656,2.4345703-5.8789063
			c-0.6396484,0.4082031-1.2236328,0.8222656-1.8369141,1.2578125c-0.8193359,0.5810547-1.6669922,1.1826172-2.6826172,1.7861328
			v1.6728516c0,0.0810547-0.0664063,0.1474609-0.1474609,0.1474609h-1.796875c-0.0810547,0-0.1474609-0.0664063-0.1474609-0.1474609
			v-0.6728516c-0.7919922,0.3242188-1.5986328,0.6083984-2.4013672,0.8476563v4.2109375
			c0,0.0810547-0.0664063,0.1474609-0.1474609,0.1474609h-2.9707031c-0.0810547,0-0.1474609-0.0664063-0.1474609-0.1474609
			v-3.4150391c-2.4609375,0.4746094-5.0488281,0.7148438-7.6943359,0.7148438c-1.0224609,0-2.034668-0.0361328-3.0112305-0.1074219
			v1.9833984c0,0.0810547-0.065918,0.1474609-0.1474609,0.1474609h-3.8671875c-0.081543,0-0.1474609-0.0664063-0.1474609-0.1474609
			v-2.4970703c-0.859375-0.1503906-1.7094727-0.3310547-2.5307617-0.5361328v2.1337891
			c0,0.0810547-0.065918,0.1474609-0.1474609,0.1474609h-2.4873047c-0.081543,0-0.1474609-0.0664063-0.1474609-0.1474609v-2.9794922
			c-2.6035156-0.9628906-5.9731445-3.7460938-7.1123047-4.7255859c0.4155273,1.34375,1.6049805,5.0761719,2.4848633,6.7099609
			l2.1508789,0.7050781c0.0527344,0.0166016,0.0913086,0.0625,0.0996094,0.1181641l0.4140625,2.7519531
			c0.3583984,0.3662109,0.7441406,0.7246094,1.1484375,1.0664063l1.5922852-0.7099609
			c0.0668945-0.0302734,0.1430664-0.0068359,0.1831055,0.0537109L22,52.8164063l2.8691406-0.7958984
			c0.043457-0.0136719,0.090332-0.0039063,0.1264648,0.0224609c0.0366211,0.0263672,0.0585938,0.0683594,0.0605469,0.1132813
			c0.0004883,0.015625,0.0537109,1.46875,0.0600586,2.5771484c1.0239258,0.3408203,2.0834961,0.6054688,3.152832,0.7890625
			l1.1079102-3.7753906c0.0185547-0.0625,0.0761719-0.1054688,0.1416016-0.1054688h1.4023438
			c0.0703125,0,0.1308594,0.0498047,0.1445313,0.1191406L31.8720703,55.8349609z"/>
	</g>
	<g>
		
			<radialGradient id="SVGID_11_" cx="32.1650391" cy="44.8466797" r="17.6289749" gradientTransform="matrix(0.9150081 -0.3723002 0.4371749 0.9150081 -16.8720741 14.578434)" gradientUnits="userSpaceOnUse">
			<stop  offset="0" style="stop-color:#FFFF7D"/>
			<stop  offset="1" style="stop-color:#FFA700"/>
		</radialGradient>
		<path style="fill:url(#SVGID_11_);" d="M41.3525391,37.5332031c0,0,5.71875-0.9882813,7.5634766-8.2109375l-9.5117188,1.8125
			l-2.4101563-0.4697266l-0.2617188,0.8789063C36.7324219,31.5439453,38.0732422,36.7910156,41.3525391,37.5332031z"/>
		<path style="fill:#5E0707;" d="M41.3525391,37.6806641c-0.0107422,0-0.0214844-0.0009766-0.0322266-0.0039063
			c-3.3291016-0.7529297-4.6748047-5.8789063-4.7304688-6.0966797c-0.0068359-0.0253906-0.0058594-0.0527344,0.0009766-0.078125
			l0.2617188-0.8789063c0.0224609-0.0722656,0.0908203-0.1171875,0.1699219-0.1025391l2.3818359,0.4638672l9.484375-1.8066406
			c0.0478516-0.0107422,0.1005859,0.0068359,0.1347656,0.0429688c0.0341797,0.0371094,0.0478516,0.0888672,0.0351563,0.1376953
			c-1.8466797,7.2314453-7.6230469,8.3095703-7.6806641,8.3203125
			C41.3691406,37.6796875,41.3613281,37.6806641,41.3525391,37.6806641z M36.8857422,31.5458984
			c0.1298828,0.4746094,1.4824219,5.1318359,4.4697266,5.8369141c0.4257813-0.0878906,5.5683594-1.2861328,7.3583984-7.8720703
			l-9.2822266,1.7685547c-0.0195313,0.0039063-0.0380859,0.0029297-0.0556641,0l-2.2783203-0.4443359L36.8857422,31.5458984z"/>
	</g>
	<g>
		
			<radialGradient id="SVGID_12_" cx="31.7543945" cy="45.0361328" r="18.0341377" gradientTransform="matrix(0.9150081 -0.3723002 0.4371749 0.9150081 -16.9897995 14.4270325)" gradientUnits="userSpaceOnUse">
			<stop  offset="0" style="stop-color:#FFFF7D"/>
			<stop  offset="1" style="stop-color:#FFA700"/>
		</radialGradient>
		<path style="fill:url(#SVGID_12_);" d="M22.6474609,37.6328125c3.2792969-0.7421875,4.9199219-6.0888672,4.9199219-6.0888672
			L25.862793,30.46875h-5.4169922c-3.7265625-0.6621094-5.3613281-1.1464844-5.3613281-1.1464844
			C16.9291992,36.5449219,22.6474609,37.6328125,22.6474609,37.6328125z"/>
		<path style="fill:#5E0707;" d="M22.6474609,37.7802734c-0.0092773,0-0.0185547-0.0009766-0.0273438-0.0029297
			c-0.0581055-0.0107422-5.8320313-1.1884766-7.6782227-8.4189453c-0.0131836-0.0517578,0.0019531-0.1054688,0.0405273-0.1425781
			s0.0913086-0.0517578,0.144043-0.0351563c0.0161133,0.0048828,1.6723633,0.4902344,5.3452148,1.1425781l5.3911133-0.0019531
			c0.027832,0,0.0551758,0.0078125,0.0786133,0.0224609l1.7045898,1.0751953
			c0.0561523,0.0351563,0.081543,0.1044922,0.0625,0.1679688c-0.0683594,0.2216797-1.7041016,5.4375-5.0283203,6.1894531
			C22.6694336,37.7792969,22.6582031,37.7802734,22.6474609,37.7802734z M15.2924805,29.5322266
			c1.7939453,6.5644531,6.9199219,7.8525391,7.3535156,7.9492188c2.8857422-0.6816406,4.4936523-5.1259766,4.7456055-5.8740234
			l-1.5712891-0.9912109h-5.3745117C17.5375977,30.1005859,15.8828125,29.6894531,15.2924805,29.5322266z"/>
	</g>
	<g>
		<radialGradient id="SVGID_13_" cx="31.7919922" cy="44.8681641" r="16.745039" gradientUnits="userSpaceOnUse">
			<stop  offset="0" style="stop-color:#FFFF7D"/>
			<stop  offset="1" style="stop-color:#FFA700"/>
		</radialGradient>
		<polygon style="fill:url(#SVGID_13_);" points="35.9091797,41.9375 31.7441406,36.3671875 28.6508789,41.5234375 
			31.2011719,42.8535156 		"/>
		<path style="fill:#5E0707;" d="M31.2011719,43.0009766c-0.0234375,0-0.046875-0.0058594-0.0683594-0.0166016l-2.550293-1.3300781
			c-0.0356445-0.0185547-0.0625-0.0517578-0.0732422-0.0908203c-0.0112305-0.0390625-0.0058594-0.0810547,0.0151367-0.1162109
			l3.0932617-5.15625c0.0253906-0.0419922,0.0698242-0.0683594,0.1191406-0.0712891
			c0.0541992,0.0048828,0.0966797,0.0195313,0.1254883,0.0595703l4.1650391,5.5703125
			c0.0302734,0.0400391,0.0371094,0.09375,0.0195313,0.140625c-0.0185547,0.0478516-0.0595703,0.0820313-0.109375,0.0917969
			l-4.7080078,0.9160156C31.2202148,43,31.2104492,43.0009766,31.2011719,43.0009766z M28.8579102,41.4648438l2.3657227,1.234375
			l4.4267578-0.8613281l-3.8925781-5.2070313L28.8579102,41.4648438z"/>
	</g>
</g>
</svg>
