<?xml version="1.0" encoding="UTF-8" standalone="no"?>
<!-- Generator: Adobe Illustrator 15.0.2, SVG Export Plug-In . SVG Version: 6.00 Build 0)  -->

<svg
   xmlns:dc="http://purl.org/dc/elements/1.1/"
   xmlns:cc="http://creativecommons.org/ns#"
   xmlns:rdf="http://www.w3.org/1999/02/22-rdf-syntax-ns#"
   xmlns:svg="http://www.w3.org/2000/svg"
   xmlns="http://www.w3.org/2000/svg"
   xmlns:sodipodi="http://sodipodi.sourceforge.net/DTD/sodipodi-0.dtd"
   xmlns:inkscape="http://www.inkscape.org/namespaces/inkscape"
   version="1.1"
   id="レイヤー_1"
   x="0px"
   y="0px"
   width="64px"
   height="64px"
   viewBox="0 0 64 64"
   enable-background="new 0 0 64 64"
   xml:space="preserve"
   inkscape:version="0.48.4 r9939"
   sodipodi:docname="admission_tickets.svg"><metadata
     id="metadata80"><rdf:RDF><cc:Work
         rdf:about=""><dc:format>image/svg+xml</dc:format><dc:type
           rdf:resource="http://purl.org/dc/dcmitype/StillImage" /></cc:Work></rdf:RDF></metadata><defs
     id="defs78" /><sodipodi:namedview
     pagecolor="#ffffff"
     bordercolor="#666666"
     borderopacity="1"
     objecttolerance="10"
     gridtolerance="10"
     guidetolerance="10"
     inkscape:pageopacity="0"
     inkscape:pageshadow="2"
     inkscape:window-width="640"
     inkscape:window-height="480"
     id="namedview76" /><g
     id="g3"><linearGradient
       id="SVGID_1_"
       gradientUnits="userSpaceOnUse"
       x1="-4.292"
       y1="6.2231"
       x2="79.208"
       y2="65.3902"
       gradientTransform="matrix(0.9849 -0.1731 0.1731 0.9849 -5.13 6.0426)"><stop
         offset="0"
         style="stop-color:#CC2B37"
         id="stop6" /><stop
         offset="1"
         style="stop-color:#BF000D"
         id="stop8" /></linearGradient><path
       fill="url(#SVGID_1_)"
       stroke="#660404"
       stroke-miterlimit="10"
       d="M59.845,35.626l0.777-0.841l-0.341-1.939l-1.018-0.525   l0.777-0.84L59.7,29.54l-1.018-0.525l0.777-0.841l-0.341-1.94l-1.018-0.525l0.777-0.841l-0.341-1.94l-1.018-0.525l0.777-0.841   l-0.341-1.94l-1.018-0.525l0.777-0.84l-0.22-1.25c-2.787,0.49-5.444-1.373-5.935-4.161v-0.001L7.078,20.664l0,0.001   c0.49,2.787-1.373,5.445-4.161,5.935l0.22,1.251l1.017,0.525l-0.776,0.84l0.341,1.941l1.017,0.525l-0.776,0.84L4.3,34.462   l1.017,0.524l-0.776,0.84l0.341,1.941l1.017,0.524l-0.777,0.84l0.341,1.94l1.017,0.525l-0.777,0.84l0.341,1.941l1.017,0.524   l-0.777,0.84l0.22,1.251c2.787-0.489,5.445,1.374,5.935,4.161l44.484-7.818c-0.49-2.788,1.373-5.445,4.16-5.936l-0.22-1.25   L59.845,35.626z"
       id="path10" /><g
       id="g12"><path
         d="M23.804,32.843l-1.599,0.281l-0.641-1.329l-1.565,0.275l-0.124,1.462l-1.564,0.274l0.739-6.314l1.959-0.345L23.804,32.843    z M21.197,30.795l-0.51-1.15c-0.15-0.341-0.358-0.857-0.511-1.206l-0.017,0.003c-0.024,0.38-0.042,0.951-0.061,1.307l-0.097,1.256    L21.197,30.795z"
         id="path14" /><path
         d="M23.593,26.782c0.454-0.151,1.086-0.319,1.762-0.438c1.125-0.198,1.898-0.133,2.539,0.163    c0.742,0.357,1.253,1.052,1.447,2.154c0.225,1.28-0.138,2.152-0.625,2.678c-0.526,0.564-1.411,0.944-2.589,1.151    c-0.659,0.116-1.168,0.157-1.5,0.175L23.593,26.782z M25.987,31.378c0.099-0.001,0.248-0.027,0.372-0.049    c1.012-0.17,1.627-0.894,1.367-2.376c-0.22-1.25-0.979-1.756-1.955-1.585c-0.22,0.039-0.366,0.08-0.467,0.122L25.987,31.378z"
         id="path16" /><path
         d="M37.433,30.447l-1.459,0.256L35.5,28.578c-0.147-0.63-0.323-1.423-0.452-2.216l-0.027,0.005    c-0.049,0.752-0.143,1.608-0.227,2.215l-0.29,2.267l-1.169,0.205l-0.981-2.027c-0.268-0.545-0.605-1.326-0.875-2.038l-0.026,0.004    c0.104,0.75,0.209,1.603,0.288,2.253L32,31.402l-1.389,0.244l-0.589-6.082l1.89-0.332l0.885,1.844    c0.32,0.679,0.64,1.375,0.896,2.059l0.036-0.006c0.019-0.715,0.077-1.518,0.157-2.252l0.239-2.034l1.864-0.328L37.433,30.447z"
         id="path18" /><path
         d="M37.444,24.26l1.547-0.272l1.055,6l-1.547,0.272L37.444,24.26z"
         id="path20" /><path
         d="M44.607,24.232l-1.556,0.273l0.845,4.805l-1.547,0.272l-0.845-4.805l-1.538,0.271l-0.21-1.195l4.641-0.815L44.607,24.232z    "
         id="path22" /><path
         d="M29.872,35.934c0.367,2.088-0.595,3.369-2.309,3.67c-1.872,0.329-3.037-0.938-3.326-2.583    c-0.297-1.692,0.51-3.282,2.338-3.604C28.553,33.069,29.616,34.475,29.872,35.934z M25.859,36.71    c0.193,1.15,0.777,1.896,1.559,1.759s1.042-1.031,0.836-2.202c-0.185-1.049-0.734-1.856-1.525-1.717    C25.903,34.694,25.678,35.679,25.859,36.71z"
         id="path24" /><path
         d="M36.357,37.971l-1.538,0.271l-1.569-1.973c-0.418-0.52-0.942-1.236-1.298-1.813l-0.035,0.007    c0.167,0.69,0.363,1.6,0.551,2.671l0.259,1.476l-1.388,0.244l-1.055-6l1.652-0.291l1.537,1.945    c0.402,0.482,0.906,1.185,1.268,1.746l0.019-0.004c-0.202-0.684-0.421-1.614-0.595-2.607l-0.251-1.428l1.389-0.244L36.357,37.971z    "
         id="path26" /><path
         d="M41.467,37.072l-3.859,0.679l-1.055-6l3.728-0.655l0.2,1.141l-2.18,0.383l0.212,1.203l2.064-0.363l0.197,1.119    l-2.065,0.362l0.245,1.396l2.312-0.406L41.467,37.072z"
         id="path28" /></g><g
       id="g30"><path
         fill="none"
         stroke="#770505"
         stroke-width="0.5133"
         stroke-miterlimit="10"
         d="M55.149,37.1    c0.195,1.113-0.555,2.183-1.667,2.379l-39.127,6.877c-1.112,0.195-2.182-0.555-2.378-1.668L8.908,27.229    c-0.195-1.112,0.555-2.182,1.667-2.378l39.127-6.877c1.113-0.195,2.183,0.555,2.379,1.667L55.149,37.1z"
         id="path32" /><g
         id="g34"><line
           fill="none"
           stroke="#770505"
           stroke-width="0.5133"
           stroke-miterlimit="10"
           x1="14.504"
           y1="24.16"
           x2="18.283"
           y2="45.665"
           id="line36" /><line
           fill="none"
           stroke="#770505"
           stroke-width="0.5133"
           stroke-miterlimit="10"
           x1="45.774"
           y1="18.664"
           x2="49.554"
           y2="40.169"
           id="line38" /></g><g
         id="g40"><path
           d="M13.354,43.033c-0.034-0.194,0.096-0.38,0.29-0.414l2.035-0.357c0.197-0.035,0.378,0.089,0.414,0.29l0.182,1.035     c0.035,0.199-0.093,0.378-0.29,0.412l-2.035,0.358c-0.193,0.033-0.379-0.097-0.414-0.29L13.354,43.033z M15.741,42.613     l-2.035,0.357l0.182,1.035l2.035-0.357L15.741,42.613z"
           id="path42" /><path
           d="M15.337,40.314l-0.712,0.125c-0.101,0.018-0.184-0.014-0.207-0.144c-0.023-0.131,0.044-0.189,0.145-0.207l0.887-0.156     c0.127-0.022,0.19,0.053,0.207,0.146l0.244,1.386c0.016,0.091-0.018,0.185-0.145,0.207s-0.19-0.054-0.207-0.146l-0.091-0.517     l-2.035,0.358l0.091,0.516c0.016,0.092-0.018,0.185-0.145,0.207s-0.191-0.054-0.207-0.145l-0.152-0.869l2.387-0.419     L15.337,40.314z"
           id="path44" /><path
           d="M15.116,39.054l-0.213-1.211c-0.016-0.092,0.018-0.185,0.145-0.207s0.191,0.054,0.207,0.146l0.274,1.562l-1.147,0.202     c-0.264,0.046-0.421-0.063-0.467-0.326l-0.174-0.99l-0.842,0.148l0.213,1.211c0.016,0.091-0.018,0.184-0.145,0.205     c-0.127,0.022-0.19-0.053-0.207-0.144l-0.206-1.169c-0.021-0.116-0.017-0.2,0.048-0.303c0.075-0.114,0.167-0.142,0.294-0.164     l0.722-0.127c0.127-0.021,0.225-0.028,0.333,0.054c0.096,0.074,0.128,0.152,0.148,0.269l0.174,0.992L15.116,39.054z"
           id="path46" /><path
           d="M12.708,37.29c0.016,0.091-0.018,0.185-0.145,0.206c-0.127,0.022-0.191-0.054-0.207-0.145l-0.213-1.211     c-0.035-0.2,0.09-0.378,0.29-0.413l0.676-0.119c0.141-0.024,0.248-0.015,0.366,0.077c0.079-0.127,0.176-0.172,0.317-0.197     l0.676-0.118c0.2-0.035,0.378,0.089,0.413,0.29l0.213,1.21c0.016,0.092-0.018,0.185-0.145,0.207s-0.19-0.054-0.207-0.146     l-0.213-1.21l-0.584,0.103c-0.197,0.034-0.244,0.123-0.226,0.221l0.121,0.689c0.016,0.092-0.019,0.185-0.145,0.207     s-0.191-0.054-0.207-0.145l-0.121-0.689c-0.017-0.099-0.091-0.166-0.288-0.131l-0.585,0.103L12.708,37.29z"
           id="path48" /><path
           d="M13.278,33.846l-1.017,0.179c-0.088,0.016-0.185-0.012-0.208-0.146c-0.023-0.133,0.058-0.19,0.146-0.206l1.017-0.179     c-0.016-0.092,0.018-0.185,0.144-0.207c0.127-0.022,0.192,0.053,0.208,0.145l0.717-0.126c0.113-0.02,0.185,0.019,0.207,0.145     c0.022,0.127-0.033,0.188-0.145,0.207l-0.718,0.126l0.182,1.035l-1.669,0.293c-0.088,0.016-0.183-0.011-0.207-0.145     c-0.023-0.135,0.057-0.192,0.145-0.208l1.317-0.231L13.278,33.846z"
           id="path50" /><path
           d="M12.649,32.023l-0.114-0.647c-0.02-0.112-0.017-0.2,0.048-0.299c0.074-0.114,0.158-0.14,0.281-0.162l0.753-0.132     c0.109-0.019,0.188-0.021,0.29,0.037c0.122,0.069,0.151,0.159,0.174,0.285l0.137,0.781c0.016,0.092,0,0.148-0.023,0.244     l-0.037,0.144c-0.025,0.103-0.039,0.213-0.161,0.235c-0.092,0.016-0.19-0.046-0.206-0.137c-0.008-0.043-0.002-0.076,0.008-0.118     l0.027-0.113c0.012-0.053,0.048-0.143,0.038-0.199l-0.143-0.813l-0.842,0.148l0.183,1.038l-1.545,0.271l-0.213-1.214     c-0.016-0.092,0.018-0.185,0.145-0.207c0.127-0.022,0.19,0.054,0.207,0.146l0.151,0.862L12.649,32.023z"
           id="path52" /><path
           d="M12.606,30.021L12.4,28.846c-0.031-0.176,0.037-0.224,0.198-0.252l0.789-0.139c0.166-0.029,0.234,0.032,0.262,0.19     l0.225,1.281c0.029,0.166-0.02,0.239-0.181,0.268l-2.341,0.411c-0.081,0.014-0.181,0.003-0.203-0.121l-0.037-0.21     c-0.016-0.092,0.056-0.181,0.147-0.196c0.106-0.019,0.188,0.042,0.207,0.145L12.606,30.021z M12.958,29.96l0.542-0.096     l-0.182-1.034l-0.542,0.095L12.958,29.96z"
           id="path54" /><path
           d="M11.062,27.925c0.078-0.014,0.188,0.032,0.208,0.146c0.02,0.112-0.068,0.193-0.146,0.207l-0.176,0.031     c-0.077,0.014-0.187-0.032-0.207-0.145L10.466,26.6l1.021-0.179c0.123-0.021,0.137-0.028,0.239,0.056l0.511,0.418     c0.098,0.077,0.106,0.083,0.229,0.061l0.682-0.12c0.113-0.02,0.185,0.019,0.207,0.146c0.022,0.126-0.032,0.187-0.145,0.207     l-0.849,0.149c-0.116,0.02-0.126,0.019-0.22-0.056l-0.503-0.412c-0.123-0.098-0.118-0.092-0.273-0.064l-0.486,0.085     L11.062,27.925z"
           id="path56" /></g><g
         id="g58"><path
           d="M50.526,20.989c0.034,0.194-0.098,0.38-0.291,0.414L48.2,21.761c-0.195,0.035-0.378-0.089-0.413-0.29l-0.183-1.035     c-0.035-0.2,0.095-0.378,0.291-0.413l2.035-0.358c0.193-0.034,0.38,0.096,0.413,0.289L50.526,20.989z M48.139,21.409l2.035-0.358     l-0.182-1.035l-2.035,0.358L48.139,21.409z"
           id="path60" /><path
           d="M48.543,23.708l0.712-0.125c0.101-0.018,0.183,0.014,0.205,0.144c0.023,0.131-0.043,0.189-0.144,0.207l-0.887,0.156     c-0.127,0.022-0.192-0.053-0.208-0.145l-0.244-1.386c-0.016-0.092,0.02-0.185,0.146-0.208c0.127-0.022,0.189,0.054,0.206,0.146     l0.091,0.517l2.035-0.358l-0.091-0.517c-0.017-0.091,0.017-0.184,0.144-0.207s0.192,0.053,0.208,0.145l0.153,0.868l-2.388,0.42     L48.543,23.708z"
           id="path62" /><path
           d="M48.765,24.968l0.213,1.211c0.016,0.091-0.018,0.185-0.145,0.207c-0.127,0.022-0.191-0.054-0.208-0.145l-0.274-1.562     l1.148-0.202c0.264-0.046,0.421,0.063,0.467,0.326l0.174,0.99l0.842-0.148l-0.213-1.211c-0.016-0.091,0.018-0.184,0.145-0.206     c0.127-0.022,0.191,0.052,0.208,0.144l0.205,1.168c0.021,0.116,0.017,0.2-0.049,0.303c-0.074,0.114-0.168,0.141-0.294,0.164     l-0.721,0.126c-0.127,0.022-0.226,0.029-0.334-0.053c-0.096-0.075-0.128-0.152-0.148-0.269l-0.174-0.993L48.765,24.968z"
           id="path64" /><path
           d="M51.173,26.732c-0.017-0.091,0.017-0.185,0.144-0.207c0.127-0.022,0.192,0.053,0.208,0.145l0.213,1.21     c0.035,0.201-0.09,0.378-0.29,0.414l-0.677,0.119c-0.141,0.025-0.248,0.016-0.365-0.076c-0.079,0.126-0.176,0.171-0.317,0.196     l-0.676,0.119c-0.2,0.035-0.379-0.089-0.414-0.29l-0.213-1.21c-0.016-0.091,0.02-0.185,0.146-0.207     c0.127-0.022,0.189,0.054,0.206,0.146l0.212,1.21l0.585-0.103c0.196-0.034,0.243-0.123,0.227-0.221l-0.121-0.689     c-0.017-0.091,0.019-0.185,0.145-0.207s0.191,0.054,0.207,0.145l0.121,0.689c0.018,0.098,0.092,0.165,0.288,0.131l0.585-0.103     L51.173,26.732z"
           id="path66" /><path
           d="M50.602,30.177l1.018-0.179c0.088-0.016,0.184,0.011,0.207,0.145c0.023,0.133-0.058,0.19-0.146,0.206l-1.017,0.179     c0.016,0.092-0.02,0.185-0.145,0.207c-0.127,0.022-0.191-0.052-0.208-0.145l-0.718,0.126c-0.113,0.02-0.186-0.018-0.207-0.144     c-0.022-0.127,0.032-0.187,0.146-0.207l0.718-0.126l-0.182-1.036l1.667-0.293c0.089-0.016,0.185,0.011,0.208,0.145     c0.024,0.134-0.057,0.192-0.146,0.208l-1.315,0.231L50.602,30.177z"
           id="path68" /><path
           d="M51.23,31.999l0.114,0.647c0.02,0.112,0.016,0.2-0.049,0.299c-0.074,0.114-0.157,0.14-0.28,0.161l-0.754,0.133     c-0.108,0.02-0.188,0.022-0.289-0.036c-0.122-0.069-0.151-0.159-0.174-0.285l-0.138-0.781c-0.016-0.092,0-0.149,0.022-0.244     l0.037-0.144c0.025-0.103,0.039-0.213,0.162-0.235c0.091-0.016,0.188,0.046,0.205,0.138c0.008,0.042,0.003,0.076-0.007,0.117     l-0.028,0.114c-0.013,0.053-0.048,0.143-0.038,0.199l0.143,0.813l0.842-0.147l-0.183-1.038l1.546-0.271l0.214,1.214     c0.016,0.091-0.02,0.185-0.146,0.207s-0.19-0.054-0.206-0.146l-0.151-0.862L51.23,31.999z"
           id="path70" /><path
           d="M51.274,34l0.206,1.176c0.031,0.176-0.038,0.225-0.198,0.253l-0.789,0.139c-0.165,0.029-0.234-0.032-0.262-0.189     l-0.226-1.281c-0.029-0.166,0.021-0.24,0.182-0.269l2.341-0.411c0.081-0.015,0.182-0.003,0.203,0.121l0.037,0.211     c0.016,0.091-0.057,0.18-0.147,0.196c-0.106,0.019-0.188-0.043-0.206-0.146L51.274,34z M50.922,34.063l-0.542,0.095l0.182,1.035     l0.542-0.095L50.922,34.063z"
           id="path72" /><path
           d="M52.818,36.098c-0.078,0.014-0.188-0.032-0.208-0.146c-0.02-0.113,0.068-0.192,0.146-0.206l0.175-0.031     c0.078-0.014,0.188,0.031,0.208,0.144l0.274,1.563l-1.021,0.18c-0.123,0.021-0.136,0.027-0.238-0.057l-0.511-0.418     c-0.099-0.077-0.106-0.082-0.23-0.061l-0.682,0.12c-0.113,0.02-0.186-0.02-0.208-0.146c-0.022-0.126,0.032-0.186,0.146-0.206     l0.848-0.148c0.115-0.021,0.127-0.02,0.22,0.056l0.504,0.412c0.123,0.097,0.118,0.091,0.272,0.063L53,37.132L52.818,36.098z"
           id="path74" /></g></g></g></svg>