<?xml version="1.0" encoding="utf-8"?>
<!-- Generator: Adobe Illustrator 16.0.0, SVG Export Plug-In . SVG Version: 6.00 Build 0)  -->
<!DOCTYPE svg PUBLIC "-//W3C//DTD SVG 1.1//EN" "http://www.w3.org/Graphics/SVG/1.1/DTD/svg11.dtd">
<svg version="1.1" id="Layer_1" xmlns="http://www.w3.org/2000/svg" xmlns:xlink="http://www.w3.org/1999/xlink" x="0px" y="0px"
	 width="64px" height="64px" viewBox="0 0 64 64" enable-background="new 0 0 64 64" xml:space="preserve">
<g>
	
		<path fill-rule="evenodd" clip-rule="evenodd" fill="#3E3B3A" stroke="#3E3B3A" stroke-width="1.918" stroke-linecap="round" stroke-linejoin="round" stroke-miterlimit="10" d="
		M53.297,37.191c0.085,0,0.166,0.004,0.248,0.008c0.059,0.002,0.121,0.002,0.182,0.004c0.106,0.002,0.206,0.004,0.307,0.002
		c0.031,0.002,0.065,0.002,0.097,0.002c0.108-0.002,0.212-0.004,0.313-0.008c0.02,0,0.041,0,0.061-0.002
		c0.107-0.002,0.209-0.008,0.307-0.016c0.01,0,0.023,0,0.034-0.002c0.103-0.006,0.198-0.018,0.292-0.027c0.002,0,0.002,0,0.004,0
		c0.882-0.109,1.111-0.385-0.005-0.902c-0.335-0.158-0.74-0.334-1.179-0.52c0.031-0.064,0.044-0.121,0.043-0.176
		c0-0.055,0.004-0.107,0.008-0.16c0.016-0.182,0.038-0.363-0.07-0.59l0,0l0,0c-0.178-0.371-0.72-0.875-2.246-1.744
		c0.508-0.516,1.362-1.41,2.756-2.912c3.426-3.689,4.152-4.114,0.996-5.516c-0.038-0.018-0.072-0.025-0.111-0.042v0.001
		c-3.102-1.331-5.493-0.414-5.493-0.414l-9.232,3.789c-4.544-1.888-8.608-3.461-8.608-3.461s-7.597-2.874-12.206-3.242
		c-2.033-0.164-4.105-0.094-6.002,0.477l0,0c-0.008,0.001-0.014,0.005-0.021,0.006c-0.388,0.117-0.767,0.262-1.14,0.424
		c-0.176,0.075-0.348,0.156-0.519,0.243c-0.112,0.057-0.223,0.115-0.334,0.178c-0.288,0.162-0.574,0.335-0.846,0.535
		c0,0-4.987-0.712-5.742,2.798c-0.755,3.513,4.881,5.361,8.292,6.706c1.961,0.774,5.824,2.022,11.227,3.057
		c-0.421,0.758-0.641,1.682,0.429,2.1c1.973,0.771,6.789,1.084,7.937,1.016c0.682-0.043,1.385-0.23,1.91-0.535
		c0.303,0.076,0.561,0.139,0.753,0.18c3.75,0.814,6.788,1.084,7.515,0.66c0.04-0.025,0.048-0.057,0.041-0.096
		c-0.002-0.008-0.002-0.016-0.005-0.023c-0.014-0.039-0.046-0.082-0.099-0.131c-0.014-0.016-0.034-0.029-0.054-0.045
		c-0.048-0.041-0.106-0.086-0.177-0.133c-0.041-0.031-0.088-0.063-0.14-0.094c-0.066-0.043-0.136-0.084-0.211-0.129
		c-0.061-0.035-0.121-0.07-0.188-0.107c-0.1-0.055-0.207-0.113-0.322-0.172l0,0c-0.449-0.236-0.994-0.5-1.6-0.777
		c5.283,0.176,8.551-0.055,10.541-0.42c0.523,0.078,0.984,0.135,1.337,0.16c0.157,0.01,0.315,0.02,0.47,0.029
		c0.049,0.004,0.098,0.004,0.146,0.006C53.095,37.182,53.197,37.188,53.297,37.191z"/>
	<path fill-rule="evenodd" clip-rule="evenodd" fill="#59C6F2" d="M40.194,28.136l9.645-3.958c0,0,2.446-0.948,5.604,0.455
		c3.156,1.401,2.43,1.826-0.996,5.516c-2.729,2.941-3.401,3.556-3.401,3.556L40.194,28.136z"/>
	<path fill-rule="evenodd" clip-rule="evenodd" fill="#49A6C7" d="M55.443,24.633c-0.038-0.018-0.072-0.025-0.111-0.042
		c2.43,1.195,1.582,1.806-1.601,5.233c-2.411,2.596-3.218,3.38-3.372,3.527l0.687,0.354c0,0,0.673-0.615,3.401-3.556
		C57.873,26.459,58.6,26.035,55.443,24.633z"/>
	<path fill-rule="evenodd" clip-rule="evenodd" fill="#E8E8E8" d="M10.931,23.126c0,0-4.987-0.712-5.742,2.798
		c-0.755,3.513,4.881,5.361,8.292,6.706c3.412,1.344,12.532,4.133,25.581,4.713c13.05,0.58,14.948-1.16,14.938-1.789
		c-0.008-0.625,0.543-1.025-3.455-3.122c-5.455-2.858-18.547-7.927-18.547-7.927s-7.597-2.874-12.206-3.242
		C16.67,21.013,13.454,21.288,10.931,23.126z"/>
	<path fill-rule="evenodd" clip-rule="evenodd" fill="#C0C7CA" d="M53.938,34.805c-0.879,0.752-4.158,1.785-14.655,1.318
		c-13.049-0.582-22.17-3.371-25.582-4.714c-3.174-1.252-8.266-2.941-8.353-5.998c-0.062,0.161-0.119,0.329-0.159,0.514
		c-0.755,3.513,4.881,5.361,8.292,6.706c3.412,1.344,12.532,4.133,25.581,4.713c13.05,0.58,14.948-1.16,14.938-1.789
		C53.998,35.311,54.077,35.098,53.938,34.805z"/>
	<path fill-rule="evenodd" clip-rule="evenodd" fill="#59C6F2" d="M41.873,34.135c-0.194,1.076,7.938,2.82,10.503,3.006
		c2.565,0.184,4.708,0.014,2.76-0.891c-1.948-0.908-6.206-2.51-6.206-2.51s-1.211-0.496-2.678-0.484
		C44.79,33.271,42.021,33.316,41.873,34.135z"/>
	<path fill-rule="evenodd" clip-rule="evenodd" fill="#49A6C7" d="M55.258,36.309c-0.659,0.074-1.652,0.063-2.729-0.014
		c-2.257-0.162-8.801-1.529-10.227-2.588c-0.237,0.113-0.396,0.252-0.43,0.428c-0.194,1.076,7.938,2.82,10.503,3.006
		C54.88,37.318,56.971,37.16,55.258,36.309z"/>
	<path fill-rule="evenodd" clip-rule="evenodd" fill="#C0C7CA" d="M25.563,34.529c0,0-2.397,2.486-0.426,3.258
		c1.973,0.771,6.789,1.084,7.937,1.016c1.15-0.072,2.371-0.547,2.675-1.324C36.053,36.699,26.906,33.383,25.563,34.529z"/>
	<path fill-rule="evenodd" clip-rule="evenodd" fill="#59C6F2" d="M17.698,31.306c-0.549,0.471,0.121,1.134,1.888,2.145
		c1.766,1.016,13.764,4.477,16.152,4.996c3.75,0.814,6.788,1.084,7.515,0.66s-6.4-3.238-9.086-4.555
		C31.249,33.119,19.042,30.16,17.698,31.306z"/>
	<path fill-rule="evenodd" clip-rule="evenodd" fill="#49A6C7" d="M35.94,37.32c-2.388-0.52-14.385-3.982-16.151-4.998
		c-0.812-0.463-1.379-0.851-1.716-1.185c-0.165,0.04-0.292,0.097-0.375,0.168c-0.549,0.471,0.121,1.134,1.888,2.145
		c1.766,1.016,13.764,4.477,16.152,4.996c3.75,0.814,6.788,1.084,7.515,0.66c0.218-0.127-0.284-0.475-1.154-0.93
		C40.711,38.176,38.492,37.873,35.94,37.32z"/>
	<path fill-rule="evenodd" clip-rule="evenodd" fill="#469EC1" d="M17.979,25.245c3.642,0.518,3.719-0.765,2.922-1.35
		c-1.004-0.737-3.546-0.682-7.112-2.154c-1.015,0.304-1.98,0.744-2.859,1.386C10.931,23.126,14.337,24.725,17.979,25.245z"/>
	<path fill-rule="evenodd" clip-rule="evenodd" fill="#469EC1" d="M29.013,29.736c-0.099,0.442-0.6,0.711-1.117,0.6
		c-0.518-0.108-0.857-0.558-0.758-1c0.101-0.442,0.601-0.711,1.119-0.6C28.775,28.845,29.115,29.292,29.013,29.736z"/>
	<path fill-rule="evenodd" clip-rule="evenodd" fill="#469EC1" d="M33.143,31.039c-0.098,0.441-0.6,0.709-1.119,0.6
		c-0.518-0.111-0.857-0.559-0.756-1.001c0.1-0.442,0.602-0.71,1.118-0.601C32.906,30.148,33.242,30.595,33.143,31.039z"/>
	<path fill-rule="evenodd" clip-rule="evenodd" fill="#469EC1" d="M37.27,32.336c-0.101,0.444-0.602,0.712-1.121,0.601
		c-0.516-0.11-0.854-0.557-0.754-0.999c0.098-0.442,0.6-0.711,1.117-0.6C37.031,31.449,37.369,31.896,37.27,32.336z"/>
	<path fill-rule="evenodd" clip-rule="evenodd" fill="#FFFFFF" d="M24.271,24.76c0,0,8.307,2.933,9.735,2.729
		c1.762-0.25-4.054-2.823-6.037-3.605C25.125,22.762,21.592,22.492,24.271,24.76z"/>
</g>
<path fill-rule="evenodd" clip-rule="evenodd" fill="#8CC03F" d="M32.969,50.559c0,3.509-5.528,2.757-12.347,2.757
	c-6.819,0-12.347,0.752-12.347-2.757c0-3.51,5.527-6.354,12.347-6.354C27.441,44.205,32.969,47.049,32.969,50.559z"/>
<path fill-rule="evenodd" clip-rule="evenodd" fill="#8CC03F" d="M42.704,50.955c0,2.393-3.769,1.881-8.416,1.881
	c-4.649,0-8.417,0.512-8.417-1.881c0-2.392,3.768-4.33,8.417-4.33C38.936,46.625,42.704,48.563,42.704,50.955z"/>
<path fill-rule="evenodd" clip-rule="evenodd" fill="#565857" d="M60.297,53.982c0-1.59-1.289-2.877-2.877-2.877H7.078
	c-1.589,0-2.877,1.287-2.877,2.877c0,0.033,0.008,0.064,0.009,0.098h56.077C60.287,54.047,60.297,54.016,60.297,53.982z"/>
</svg>
