<?xml version="1.0" encoding="utf-8"?>
<!-- Generator: Adobe Illustrator 16.0.0, SVG Export Plug-In . SVG Version: 6.00 Build 0)  -->
<!DOCTYPE svg PUBLIC "-//W3C//DTD SVG 1.1//EN" "http://www.w3.org/Graphics/SVG/1.1/DTD/svg11.dtd">
<svg version="1.1" id="Layer_1_x2C_166" xmlns="http://www.w3.org/2000/svg" xmlns:xlink="http://www.w3.org/1999/xlink" x="0px"
	 y="0px" width="64px" height="64px" viewBox="0 0 64 64" enable-background="new 0 0 64 64" xml:space="preserve">
<path fill-rule="evenodd" clip-rule="evenodd" fill="#8BC01F" d="M32.969,50.559c0,3.509-5.528,2.757-12.347,2.757
	c-6.819,0-12.347,0.752-12.347-2.757c0-3.51,5.527-6.354,12.347-6.354C27.441,44.205,32.969,47.049,32.969,50.559z"/>
<path fill-rule="evenodd" clip-rule="evenodd" fill="#8BC01F" d="M42.704,50.955c0,2.393-3.769,1.881-8.416,1.881
	c-4.649,0-8.417,0.512-8.417-1.881c0-2.392,3.768-4.33,8.417-4.33C38.936,46.625,42.704,48.563,42.704,50.955z"/>
<path fill-rule="evenodd" clip-rule="evenodd" fill="#555756" d="M60.297,53.982c0-1.59-1.289-2.877-2.877-2.877H7.078
	c-1.589,0-2.877,1.287-2.877,2.877c0,0.033,0.008,0.064,0.009,0.098h56.077C60.287,54.047,60.297,54.016,60.297,53.982z"/>
<g>
	<g>
		
			<path fill-rule="evenodd" clip-rule="evenodd" fill="#3E3A39" stroke="#3E3A39" stroke-width="1.918" stroke-linecap="round" stroke-linejoin="round" stroke-miterlimit="10" d="
			M53.334,37.197c0.087,0,0.168,0.004,0.249,0.006c0.06,0.004,0.122,0.004,0.185,0.006c0.104,0,0.203,0,0.306,0
			c0.03,0,0.063,0.002,0.095,0c0.108-0.002,0.212-0.002,0.313-0.006c0.02-0.002,0.042-0.002,0.063-0.004
			c0.106-0.004,0.206-0.008,0.304-0.018c0.013,0.002,0.023,0,0.035-0.002c0.103-0.006,0.199-0.02,0.292-0.027
			c0.002-0.002,0.003,0,0.005-0.002c0.881-0.109,1.109-0.387-0.008-0.9c-0.338-0.156-0.742-0.332-1.181-0.518
			c0.03-0.063,0.044-0.121,0.041-0.174c0.002-0.055,0.005-0.105,0.009-0.16c0.015-0.182,0.037-0.363-0.072-0.59l0,0l0,0
			c-0.18-0.369-0.723-0.873-2.251-1.738c0.505-0.515,1.357-1.413,2.745-2.918c3.416-3.701,4.142-4.127,0.98-5.519
			c-0.037-0.018-0.073-0.025-0.111-0.042v0.001c-3.106-1.322-5.494-0.398-5.494-0.398l-9.222,3.817
			c-4.55-1.872-8.619-3.434-8.619-3.434s-7.605-2.851-12.216-3.206c-2.033-0.157-4.105-0.08-5.999,0.495l0,0
			c-0.009,0.003-0.014,0.006-0.021,0.007c-0.389,0.119-0.768,0.264-1.139,0.428c-0.176,0.077-0.347,0.158-0.52,0.248
			c-0.112,0.056-0.223,0.114-0.335,0.178c-0.286,0.165-0.572,0.341-0.843,0.539c0,0-4.989-0.693-5.735,2.818
			c-0.744,3.514,4.897,5.345,8.314,6.68c1.964,0.767,5.83,2.003,11.236,3.021c-0.42,0.762-0.636,1.686,0.435,2.102
			c1.976,0.764,6.792,1.063,7.94,0.99c0.682-0.047,1.384-0.234,1.908-0.543c0.303,0.076,0.563,0.139,0.755,0.178
			c3.752,0.807,6.791,1.063,7.52,0.631c0.04-0.023,0.047-0.057,0.039-0.094c-0.002-0.008-0.002-0.018-0.004-0.025
			c-0.014-0.039-0.047-0.08-0.099-0.129c-0.015-0.016-0.034-0.029-0.055-0.045c-0.047-0.043-0.106-0.086-0.176-0.133
			c-0.042-0.031-0.089-0.063-0.14-0.094c-0.068-0.041-0.136-0.084-0.212-0.127c-0.062-0.035-0.122-0.07-0.19-0.105
			c-0.1-0.055-0.207-0.113-0.321-0.172l0,0c-0.45-0.234-0.995-0.498-1.603-0.773c5.284,0.16,8.551-0.082,10.54-0.451
			c0.524,0.074,0.985,0.131,1.337,0.154c0.157,0.012,0.316,0.02,0.471,0.027c0.049,0.004,0.098,0.006,0.144,0.006
			C53.132,37.188,53.236,37.193,53.334,37.197z"/>
		<path fill-rule="evenodd" clip-rule="evenodd" fill="#55C6F1" d="M40.205,28.182l9.633-3.988c0,0,2.443-0.955,5.605,0.439
			c3.161,1.392,2.436,1.817-0.98,5.519c-2.719,2.948-3.389,3.565-3.389,3.565L40.205,28.182z"/>
		<path fill-rule="evenodd" clip-rule="evenodd" fill="#49A6C7" d="M55.443,24.633c-0.037-0.018-0.073-0.025-0.111-0.042
			c2.433,1.187,1.587,1.801-1.585,5.239c-2.403,2.602-3.208,3.388-3.36,3.537l0.688,0.35c0,0,0.67-0.617,3.389-3.565
			C57.879,26.451,58.604,26.025,55.443,24.633z"/>
		<path fill-rule="evenodd" clip-rule="evenodd" fill="#E8E8E8" d="M10.924,23.266c0,0-4.989-0.693-5.735,2.818
			c-0.744,3.514,4.897,5.345,8.314,6.68c3.417,1.332,12.543,4.093,25.598,4.63c13.052,0.539,14.944-1.207,14.932-1.836
			c-0.009-0.625,0.542-1.027-3.464-3.112c-5.463-2.841-18.571-7.869-18.571-7.869s-7.605-2.851-12.216-3.206
			C16.659,21.131,13.443,21.417,10.924,23.266z"/>
		<path fill-rule="evenodd" clip-rule="evenodd" fill="#C0C8CA" d="M53.969,34.809c-0.877,0.754-4.152,1.799-14.65,1.363
			c-13.055-0.537-22.184-3.298-25.601-4.628c-3.176-1.244-8.274-2.918-8.371-5.975c-0.06,0.161-0.117,0.328-0.158,0.516
			c-0.744,3.514,4.897,5.345,8.314,6.68c3.417,1.332,12.543,4.093,25.598,4.63c13.052,0.539,14.944-1.207,14.932-1.836
			C54.031,35.314,54.11,35.102,53.969,34.809z"/>
		<path fill-rule="evenodd" clip-rule="evenodd" fill="#55C6F1" d="M41.902,34.178c-0.191,1.074,7.945,2.793,10.512,2.971
			c2.567,0.178,4.708,0,2.758-0.898c-1.953-0.904-6.213-2.49-6.213-2.49s-1.214-0.492-2.68-0.477
			C44.817,33.305,42.047,33.357,41.902,34.178z"/>
		<path fill-rule="evenodd" clip-rule="evenodd" fill="#49A6C7" d="M55.293,36.309c-0.658,0.076-1.652,0.068-2.729-0.006
			c-2.257-0.156-8.806-1.502-10.234-2.557c-0.236,0.115-0.396,0.254-0.428,0.432c-0.191,1.074,7.945,2.793,10.512,2.971
			C54.918,37.32,57.008,37.156,55.293,36.309z"/>
		<path fill-rule="evenodd" clip-rule="evenodd" fill="#C0C8CA" d="M25.589,34.627c0,0-2.389,2.492-0.415,3.26
			c1.976,0.764,6.792,1.063,7.94,0.99c1.151-0.076,2.37-0.555,2.671-1.332C36.087,36.764,26.931,33.473,25.589,34.627z"/>
		<path fill-rule="evenodd" clip-rule="evenodd" fill="#55C6F1" d="M17.716,31.426c-0.548,0.474,0.124,1.135,1.892,2.142
			c1.771,1.008,13.779,4.434,16.169,4.943c3.752,0.807,6.791,1.063,7.52,0.631c0.725-0.426-6.411-3.217-9.102-4.523
			C31.273,33.195,19.055,30.276,17.716,31.426z"/>
		<path fill-rule="evenodd" clip-rule="evenodd" fill="#49A6C7" d="M35.977,37.385c-2.391-0.512-14.396-3.939-16.168-4.948
			c-0.813-0.46-1.383-0.847-1.719-1.18c-0.165,0.04-0.292,0.099-0.374,0.169c-0.548,0.474,0.124,1.135,1.892,2.142
			c1.771,1.008,13.779,4.434,16.169,4.943c3.752,0.807,6.791,1.063,7.52,0.631c0.217-0.127-0.287-0.473-1.157-0.924
			C40.753,38.221,38.529,37.93,35.977,37.385z"/>
		<path fill-rule="evenodd" clip-rule="evenodd" fill="#469EC1" d="M17.981,25.359c3.642,0.506,3.717-0.774,2.918-1.36
			c-1.005-0.732-3.548-0.67-7.117-2.132c-1.014,0.309-1.981,0.754-2.858,1.399C10.924,23.266,14.334,24.857,17.981,25.359z"/>
		<path fill-rule="evenodd" clip-rule="evenodd" fill="#469EC1" d="M29.03,29.815c-0.097,0.444-0.599,0.713-1.115,0.604
			c-0.52-0.105-0.86-0.555-0.763-0.996c0.102-0.443,0.599-0.715,1.117-0.604C28.788,28.926,29.128,29.373,29.03,29.815z"/>
		<path fill-rule="evenodd" clip-rule="evenodd" fill="#469EC1" d="M33.163,31.106c-0.098,0.441-0.598,0.711-1.118,0.604
			c-0.517-0.111-0.856-0.557-0.759-0.998c0.099-0.443,0.599-0.713,1.116-0.604C32.923,30.217,33.262,30.663,33.163,31.106z"/>
		<path fill-rule="evenodd" clip-rule="evenodd" fill="#469EC1" d="M37.293,32.392c-0.1,0.443-0.601,0.715-1.119,0.604
			c-0.517-0.109-0.856-0.556-0.756-0.998c0.096-0.442,0.597-0.712,1.113-0.602C37.052,31.504,37.391,31.95,37.293,32.392z"/>
		<path fill-rule="evenodd" clip-rule="evenodd" fill="#FFFFFF" d="M24.271,24.855c0,0,8.315,2.907,9.745,2.698
			c1.76-0.256-4.063-2.811-6.049-3.588C25.121,22.854,21.585,22.595,24.271,24.855z"/>
	</g>
	<circle fill="#3E3A39" cx="12.711" cy="34.516" r="1.478"/>
	<circle fill="#3E3A39" cx="35.239" cy="40.265" r="1.478"/>
</g>
</svg>
