<?xml version="1.0" encoding="utf-8"?>
<!-- Generator: Adobe Illustrator 16.0.0, SVG Export Plug-In . SVG Version: 6.00 Build 0)  -->
<!DOCTYPE svg PUBLIC "-//W3C//DTD SVG 1.1//EN" "http://www.w3.org/Graphics/SVG/1.1/DTD/svg11.dtd">
<svg version="1.1" id="Layer_1_x2C_166_copy" xmlns="http://www.w3.org/2000/svg" xmlns:xlink="http://www.w3.org/1999/xlink"
	 x="0px" y="0px" width="64px" height="64px" viewBox="0 0 64 64" enable-background="new 0 0 64 64" xml:space="preserve">
<path fill-rule="evenodd" clip-rule="evenodd" fill="#8BC01F" d="M32.969,50.559c0,3.509-5.528,2.757-12.347,2.757
	c-6.819,0-12.347,0.752-12.347-2.757c0-3.51,5.527-6.354,12.347-6.354C27.441,44.205,32.969,47.049,32.969,50.559z"/>
<path fill-rule="evenodd" clip-rule="evenodd" fill="#8BC01F" d="M42.704,50.955c0,2.393-3.769,1.881-8.416,1.881
	c-4.649,0-8.417,0.512-8.417-1.881c0-2.392,3.768-4.33,8.417-4.33C38.936,46.625,42.704,48.563,42.704,50.955z"/>
<path fill-rule="evenodd" clip-rule="evenodd" fill="#555756" d="M60.297,53.982c0-1.59-1.289-2.877-2.877-2.877H7.078
	c-1.589,0-2.877,1.287-2.877,2.877c0,0.033,0.008,0.064,0.009,0.098h56.077C60.287,54.047,60.297,54.016,60.297,53.982z"/>
<g>
	<g>
		
			<path fill-rule="evenodd" clip-rule="evenodd" fill="#3E3A39" stroke="#3E3A39" stroke-width="1.918" stroke-linecap="round" stroke-linejoin="round" stroke-miterlimit="10" d="
			M8.302,24.869c-0.075-0.042-0.147-0.078-0.219-0.114c-0.053-0.028-0.108-0.058-0.163-0.086c-0.092-0.051-0.181-0.098-0.268-0.148
			c-0.027-0.015-0.057-0.03-0.083-0.045c-0.094-0.055-0.184-0.106-0.271-0.159c-0.016-0.011-0.036-0.021-0.053-0.032
			c-0.092-0.055-0.177-0.108-0.257-0.163c-0.011-0.005-0.021-0.012-0.03-0.019c-0.087-0.056-0.165-0.113-0.241-0.167
			c-0.001-0.001-0.002-0.001-0.004-0.003c-0.716-0.523-0.782-0.877,0.445-0.784c0.37,0.027,0.809,0.071,1.283,0.122
			c0.004-0.07,0.021-0.128,0.048-0.173c0.026-0.048,0.048-0.096,0.07-0.145c0.076-0.166,0.145-0.335,0.35-0.48l0,0l0,0
			c0.337-0.236,1.056-0.411,2.812-0.427c-0.19-0.696-0.5-1.894-0.983-3.885c-1.189-4.894-1.617-5.618,1.823-5.3
			c0.042,0.003,0.077,0.014,0.118,0.018v0.001c3.357,0.353,4.996,2.319,4.996,2.319l6.208,7.815
			c4.887,0.571,9.202,1.183,9.202,1.183s8.033,1.201,12.235,3.13c1.854,0.85,3.628,1.923,5.005,3.346l0,0
			c0.006,0.006,0.009,0.012,0.015,0.016c0.282,0.293,0.544,0.604,0.788,0.926c0.116,0.153,0.227,0.308,0.334,0.469
			c0.071,0.104,0.14,0.21,0.207,0.318c0.17,0.284,0.335,0.577,0.475,0.882c0,0,4.699,1.816,3.646,5.248
			c-1.056,3.434-6.876,2.295-10.512,1.803c-2.089-0.283-6.069-1.08-11.29-2.814c-0.002,0.869-0.262,1.781-1.4,1.625
			c-2.098-0.291-6.454-2.369-7.422-2.99c-0.574-0.371-1.096-0.877-1.405-1.4c-0.301-0.08-0.558-0.152-0.746-0.211
			c-3.671-1.117-6.453-2.37-6.88-3.099c-0.023-0.042-0.014-0.072,0.012-0.103c0.005-0.006,0.009-0.013,0.015-0.019
			c0.031-0.027,0.08-0.048,0.149-0.065c0.021-0.007,0.045-0.01,0.07-0.014c0.062-0.014,0.134-0.023,0.219-0.03
			c0.051-0.007,0.108-0.012,0.167-0.014c0.078-0.003,0.16-0.008,0.247-0.009c0.069,0.001,0.14-0.001,0.217,0
			c0.113,0,0.236,0.002,0.364,0.006l0,0c0.508,0.014,1.112,0.05,1.776,0.103c-4.697-2.426-7.436-4.223-8.995-5.513
			c-0.495-0.188-0.925-0.363-1.244-0.513c-0.143-0.067-0.285-0.138-0.425-0.205c-0.043-0.021-0.086-0.043-0.128-0.064
			C8.484,24.958,8.391,24.913,8.302,24.869z"/>
		<path fill-rule="evenodd" clip-rule="evenodd" fill="#55C6F1" d="M24.158,23.363l-6.484-8.164c0,0-1.672-2.021-5.114-2.338
			c-3.439-0.318-3.012,0.406-1.823,5.3c0.945,3.898,1.231,4.764,1.231,4.764L24.158,23.363z"/>
		<path fill-rule="evenodd" clip-rule="evenodd" fill="#49A6C7" d="M12.56,12.861c0.042,0.003,0.077,0.014,0.118,0.018
			c-2.704-0.144-2.261,0.804-1.158,5.35c0.837,3.442,1.158,4.52,1.221,4.723l-0.772-0.026c0,0-0.286-0.865-1.231-4.764
			C9.548,13.267,9.121,12.542,12.56,12.861z"/>
		<path fill-rule="evenodd" clip-rule="evenodd" fill="#E8E8E8" d="M52.143,33.283c0,0,4.699,1.816,3.646,5.248
			c-1.056,3.434-6.876,2.295-10.512,1.803c-3.634-0.494-12.953-2.512-24.625-8.38C8.978,26.086,8.172,23.64,8.488,23.097
			c0.312-0.543,0.026-1.161,4.54-1.038c6.155,0.169,20.056,2.138,20.056,2.138s8.033,1.201,12.235,3.13
			C48.166,28.632,50.838,30.443,52.143,33.283z"/>
		<path fill-rule="evenodd" clip-rule="evenodd" fill="#C0C8CA" d="M8.908,22.472c0.401,1.085,2.757,3.589,12.146,8.306
			c11.672,5.869,20.994,7.888,24.627,8.384c3.381,0.455,8.65,1.467,10.219-1.158c-0.026,0.17-0.057,0.344-0.112,0.527
			c-1.056,3.434-6.876,2.295-10.512,1.803c-3.634-0.494-12.953-2.512-24.625-8.38C8.978,26.086,8.172,23.64,8.488,23.097
			C8.608,22.885,8.643,22.66,8.908,22.472z"/>
		<path fill-rule="evenodd" clip-rule="evenodd" fill="#55C6F1" d="M19.764,27.779c-0.355,1.033-8.303-1.415-10.632-2.505
			c-2.33-1.093-4.116-2.287-1.974-2.126c2.145,0.159,6.641,0.84,6.641,0.84s1.3,0.159,2.573,0.886
			C17.639,25.601,20.035,26.993,19.764,27.779z"/>
		<path fill-rule="evenodd" clip-rule="evenodd" fill="#49A6C7" d="M7.022,23.14c0.538,0.388,1.412,0.861,2.388,1.32
			c2.048,0.96,8.427,2.963,10.188,2.734c0.151,0.215,0.223,0.414,0.165,0.584c-0.355,1.033-8.303-1.415-10.632-2.505
			C6.859,24.207,5.112,23.048,7.022,23.14z"/>
		<path fill-rule="evenodd" clip-rule="evenodd" fill="#C0C8CA" d="M33.807,36.094c0,0,0.878,3.338-1.22,3.051
			c-2.098-0.291-6.454-2.369-7.422-2.99c-0.97-0.625-1.803-1.635-1.688-2.461C23.592,32.862,33.193,34.434,33.807,36.094z"/>
		<path fill-rule="evenodd" clip-rule="evenodd" fill="#55C6F1" d="M42.243,37.119c0.249,0.68-0.659,0.932-2.694,0.953
			c-2.037,0.021-14.197-2.814-16.535-3.529c-3.671-1.117-6.453-2.37-6.88-3.099c-0.427-0.725,7.167,0.3,10.153,0.465
			C29.532,32.081,41.631,35.463,42.243,37.119z"/>
		<path fill-rule="evenodd" clip-rule="evenodd" fill="#49A6C7" d="M23.387,33.461c2.337,0.713,14.498,3.547,16.536,3.525
			c0.934-0.008,1.62-0.068,2.075-0.197c0.125,0.115,0.208,0.229,0.245,0.33c0.249,0.68-0.659,0.932-2.694,0.953
			c-2.037,0.021-14.197-2.814-16.535-3.529c-3.671-1.117-6.453-2.37-6.88-3.099c-0.128-0.217,0.479-0.274,1.46-0.247
			C18.805,31.873,20.89,32.697,23.387,33.461z"/>
		<path fill-rule="evenodd" clip-rule="evenodd" fill="#469EC1" d="M44.957,31.685c-3.43-1.326-2.873-2.482-1.891-2.604
			c1.234-0.153,3.428,1.136,7.258,1.592c0.736,0.761,1.365,1.621,1.818,2.611C52.143,33.283,48.39,33.018,44.957,31.685z"/>
		<path fill-rule="evenodd" clip-rule="evenodd" fill="#469EC1" d="M33.135,30.217c-0.131,0.435,0.178,0.914,0.682,1.068
			c0.506,0.159,1.021-0.067,1.15-0.501c0.127-0.437-0.177-0.915-0.684-1.07C33.777,29.557,33.264,29.782,33.135,30.217z"/>
		<path fill-rule="evenodd" clip-rule="evenodd" fill="#469EC1" d="M28.895,29.338c-0.129,0.434,0.178,0.911,0.684,1.07
			c0.506,0.154,1.02-0.07,1.149-0.505c0.128-0.436-0.179-0.913-0.683-1.069C29.537,28.677,29.024,28.903,28.895,29.338z"/>
		<path fill-rule="evenodd" clip-rule="evenodd" fill="#469EC1" d="M24.66,28.457c-0.129,0.436,0.178,0.916,0.685,1.072
			c0.504,0.154,1.018-0.07,1.146-0.505c0.13-0.434-0.177-0.913-0.682-1.067C25.302,27.798,24.789,28.023,24.66,28.457z"/>
		<path fill-rule="evenodd" clip-rule="evenodd" fill="#FFFFFF" d="M39.703,28.191c0,0-8.681-1.496-9.829-2.372
			c-1.414-1.078,4.917-0.484,7.03-0.199C39.932,26.03,43.148,27.519,39.703,28.191z"/>
	</g>
	<circle fill="#3E3A39" cx="45.118" cy="42.25" r="1.478"/>
	<circle fill="#3E3A39" cx="22.633" cy="36.335" r="1.478"/>
</g>
</svg>
