<?xml version="1.0" encoding="utf-8"?>
<!-- Generator: Adobe Illustrator 15.0.2, SVG Export Plug-In . SVG Version: 6.00 Build 0)  -->
<!DOCTYPE svg PUBLIC "-//W3C//DTD SVG 1.1//EN" "http://www.w3.org/Graphics/SVG/1.1/DTD/svg11.dtd">
<svg version="1.1" id="レイヤー_1" xmlns="http://www.w3.org/2000/svg" xmlns:xlink="http://www.w3.org/1999/xlink" x="0px"
	 y="0px" width="64px" height="64px" viewBox="0 0 64 64" enable-background="new 0 0 64 64" xml:space="preserve">
<g>
	<g>
		<path fill="#2CA4DE" stroke="#034A66" stroke-width="0.8762" stroke-miterlimit="3" d="M19.463,46.972l3.686,6.74
			c0,0-1.716,2.957-3.596,4.162c0,0-3.084-1.424-3.523,1.861H28.34c0,0-0.016-2.189-1.673-2.518c0,0-3.41,1.094-0.871-1.863
			c1.776-2.068,1.452-2.408-0.872-6.133L19.463,46.972z"/>
		<path fill="#FFF4DE" d="M24.297,51.062l0.627,2.291c0,0-2.434,3.756-1.886,4.193c0.547,0.438,0.942-0.543,0.942-0.543l2.686-3.65
			l-0.876-2.848L24.297,51.062z"/>
		<path fill="#2CA4DE" stroke="#034A66" stroke-width="0.8762" stroke-miterlimit="3" d="M19.236,21.951l2.628,7.886
			c0,0-8.067,3.943-6.398,13.361c1.299,7.33,13.407,10.844,23.265,7.447c9.856-3.395,16.318-11.17,15.224-17.742
			c-1.096-6.571,0.767-8.433,0.767-8.433s0.219-1.971-2.19-0.438c-2.41,1.533-5.367,6.9-5.805,10.076
			c-0.438,3.176-5.65,3.395-6.111,1.424c-0.46-1.973-3.089-5.695-7.36-5.695l1.096-7.886H19.236z"/>
		<path fill="#FFF4DE" d="M22.601,25.565c0,0,1.205,4.052,0,7.557c-6.462,2.982-6.583,14.129,0.268,16.209
			c6.851,2.082,13.245,1.051,16.95-0.438c5.453-2.191,13.319-6.781,13.558-13.471c0.11-2.191-2.19,3.727-4.271,5.805
			c-2.081,2.076-3.834,3.232-9.944,4.49c-5.816,1.195-0.016-2.621-1.278-7.553c-1.264-4.934-7.068-6.357-7.068-6.357l0.713-6.538
			L22.601,25.565z"/>
		<path fill="#2CA4DE" stroke="#034A66" stroke-width="0.8762" stroke-miterlimit="3" d="M39.248,2.566
			c-3.592,0-6.672,2.328-7.98,5.642c-1.2-0.174-2.448-0.275-3.738-0.275c-1.291,0-2.538,0.102-3.739,0.275
			c-1.308-3.314-4.388-5.642-7.98-5.642c-4.779,0-8.652,4.119-8.652,9.2c0,3.826,2.196,7.104,5.321,8.491
			c2.059,3.779,8.015,6.513,15.05,6.513c7.036,0,12.992-2.734,15.05-6.513c3.125-1.388,5.321-4.666,5.321-8.491
			C47.9,6.685,44.026,2.566,39.248,2.566z"/>
		<path fill="#FFF4DE" d="M39.818,20.153c0,2.989-5.502,5.412-12.289,5.412S15.24,23.142,15.24,20.153
			c0-2.989,5.502-10.952,12.289-10.952S39.818,17.164,39.818,20.153z"/>
		<g>
			<circle fill="#FFFFFF" stroke="#231815" stroke-width="0.4231" stroke-miterlimit="3" cx="14.784" cy="9.535" r="5.54"/>
			<circle fill="#003575" cx="14.556" cy="8.869" r="3.998"/>
			<circle fill="#FFFFFF" cx="11.836" cy="6.824" r="1.278"/>
		</g>
		<g>
			<circle fill="#FFFFFF" stroke="#231815" stroke-width="0.4231" stroke-miterlimit="3" cx="40.274" cy="9.535" r="5.54"/>
			<circle fill="#003575" cx="40.501" cy="8.869" r="3.998"/>
			<circle fill="#FFFFFF" cx="38.389" cy="6.824" r="1.278"/>
		</g>
		<polygon fill="#3A0808" points="16.796,19.213 19.552,21.332 21.505,19.213 25.229,22.009 27.529,19.467 29.501,22.009 
			33.005,19.213 34.982,21.332 37.276,19.213 34.982,23.195 32.896,19.94 29.392,23.704 27.529,21.162 25.229,23.704 21.615,19.94 
			19.552,22.742 		"/>
		<g>
			<path fill="#091C38" d="M28.34,12.932c0,0,1.095-2.875,1.601-1.369S29.52,11.426,28.34,12.932z"/>
			<path fill="#091C38" d="M26.667,12.932c0,0-1.096-2.875-1.602-1.369S25.487,11.426,26.667,12.932z"/>
		</g>
		<path fill="#2CA4DE" stroke="#034A66" stroke-width="0.8762" stroke-miterlimit="3" d="M31.691,51.304
			c0,0,6.571,2.848,7.009,3.504c0.438,0.656-3.012,3.066-3.012,3.066s-2.791-1.424-3.011,1.861h13.908c0,0-0.328-3.504-2.848-2.299
			c-2.519,1.205-2.081-0.877-0.876-1.752c1.205-0.877-1.815-6.791-1.815-6.791"/>
		<path fill="#FFF4DE" d="M39.161,49.308l2.606,4.838c0,0-1.562,1.924-1.328,2.623c0.232,0.699,1.66-0.912,2.095-2.098
			c0.434-1.188-2.095-6.295-2.095-6.295L39.161,49.308z"/>
	</g>
</g>
</svg>
