<?xml version="1.0" encoding="UTF-8"?>
<!-- Generated by phantom_svg. -->
<svg width="64px" height="64px" viewBox="0 0 64 64" preserveAspectRatio="none" xmlns="http://www.w3.org/2000/svg" xmlns:xlink="http://www.w3.org/1999/xlink" version="1.1">
  <path style="fill:#3E3A39;" d="M41.375,61.5h-18.75c-0.7583008,0-1.375-0.6171875-1.375-1.375s0.6166992-1.375,1.375-1.375
	h1.1308594c0.0595703-0.6611328,0.5888672-1.1875,1.25-1.2451172c0.0092773-0.0917969,0.0292969-0.1835938,0.0595703-0.2734375
	C22.246582,53.9355469,16.25,45.8789063,16.25,37c0-3.0371094,0.6279297-5.7734375,1.918457-8.3588867
	c-0.5527344-2.7739258-1.2983398-5.0292969-2.2172852-6.706543l-2.5986328-4.7436523
	c-0.8867188-1.6186523-1.090332-3.4853516-0.5722656-5.2568359c0.5175781-1.7719727,1.6938477-3.2358398,3.3120117-4.121582
	c1.5830078-0.8686523,3.5205078-1.0800781,5.2563477-0.5727539c1.2734375,0.3720703,2.387207,1.0839844,3.2421875,2.0556641
	c-0.0229492-0.1547852-0.0463867-0.3061523-0.0708008-0.4536133c-0.4257813-0.2084961-0.7216797-0.6225586-0.7646484-1.097168
	C23.0532227,7.684082,22.5,7.0927734,22.5,6.375c0-0.0087891,0-0.0180664,0.0004883-0.0268555
	C21.7597656,6.0512695,21.25,5.3334961,21.25,4.5c0-1.1030273,0.8969727-2,2-2h17.5c1.1025391,0,2,0.8969727,2,2
	c0,0.8334961-0.5097656,1.5512695-1.25,1.8481445c0,0.0087891,0,0.0180664,0,0.0268555
	c0,0.7177734-0.5527344,1.309082-1.2558594,1.3696289C40.2011719,8.21875,39.90625,8.6328125,39.4804688,8.8413086
	c-0.0244141,0.1464844-0.0478516,0.2958984-0.0703125,0.4492188c0.8515625-0.9658203,1.9658203-1.6782227,3.2402344-2.050293
	c1.7373047-0.5078125,3.6738281-0.2958984,5.2568359,0.5722656c1.6171875,0.8847656,2.7939453,2.3486328,3.3125,4.1210938
	c0.5175781,1.7734375,0.3134766,3.640625-0.5732422,5.2578125l-2.5976563,4.7431641
	c-0.9257813,1.6894531-1.6728516,3.9428711-2.2216797,6.6987305C47.1210938,31.2202148,47.75,33.9589844,47.75,37
	c0,8.8769531-5.9960938,16.9365234-8.8154297,20.2324219c0.0302734,0.0898438,0.0498047,0.1806641,0.0595703,0.2724609
	c0.6611328,0.0576172,1.1904297,0.5839844,1.25,1.2451172H41.375c0.7578125,0,1.375,0.6171875,1.375,1.375
	S42.1328125,61.5,41.375,61.5z M22.625,59.75c-0.206543,0-0.375,0.1679688-0.375,0.375s0.168457,0.375,0.375,0.375h18.75
	c0.2070313,0,0.375-0.1679688,0.375-0.375s-0.1679688-0.375-0.375-0.375h-2.5146484l0.3466797-0.7177734
	C39.2363281,58.9716797,39.25,58.921875,39.25,58.875c0-0.2070313-0.1679688-0.375-0.375-0.375h-1.2646484l0.3466797-0.7177734
	C37.9863281,57.7216797,38,57.671875,38,57.625c0-0.0361328-0.0078125-0.0947266-0.0742188-0.1962891l-0.2089844-0.3173828
	l0.2490234-0.2861328C40.6064453,53.7861328,46.75,45.7714844,46.75,37c0-2.9804688-0.6005859-5.5439453-1.8916016-8.0668945
	l-0.078125-0.1538086L44.8125,28.6098633c0.5712891-2.9335938,1.3652344-5.3413086,2.359375-7.1557617l2.5976563-4.7436523
	c0.7587891-1.3828125,0.9326172-2.9794922,0.4902344-4.4960938c-0.4433594-1.5161133-1.4501953-2.7680664-2.8330078-3.5249023
	c-1.3544922-0.7436523-3.0097656-0.9243164-4.4951172-0.4892578c-1.515625,0.4423828-2.765625,1.4458008-3.5214844,2.8256836
	l-1.4169922,2.4047852l0.1894531-2.1943359c0.0908203-1.0571289,0.2128906-2.0180664,0.3623047-2.8564453l0.0595703-0.3374023
	l0.3369141-0.065918C39.0898438,7.9477539,39.25,7.8251953,39.25,7.625c0-0.046875-0.0136719-0.0991211-0.0429688-0.159668
	L38.8662109,6.75H40.125c0.2070313,0,0.375-0.168457,0.375-0.375c0-0.046875-0.015625-0.0981445-0.0478516-0.1625977
	l-0.3330078-0.6518555l0.7285156-0.0727539C41.3623047,5.4365234,41.75,5.0117188,41.75,4.5c0-0.5512695-0.4482422-1-1-1h-17.5
	c-0.5512695,0-1,0.4487305-1,1c0,0.5117188,0.3876953,0.9365234,0.9023438,0.987793l0.7285156,0.0727539l-0.3330078,0.6518555
	C23.5151367,6.2768555,23.5,6.328125,23.5,6.375c0,0.206543,0.168457,0.375,0.375,0.375h1.2626953l-0.3447266,0.7167969
	C24.7641602,7.5268555,24.75,7.5786133,24.75,7.625c0,0.2001953,0.1601563,0.3222656,0.309082,0.3515625l0.3364258,0.0654297
	l0.0600586,0.3374023c0.1489258,0.8359375,0.2709961,1.7978516,0.3618164,2.8588867l0.1889648,2.1962891l-1.4057617-2.3886719
	c-0.7651367-1.3969727-2.0170898-2.4033203-3.5322266-2.8461914c-1.4848633-0.4326172-3.1425781-0.2524414-4.4951172,0.4897461
	c-1.3847656,0.7578125-2.390625,2.0097656-2.8330078,3.5249023c-0.4428711,1.5151367-0.269043,3.1118164,0.4892578,4.4960938
	l2.5986328,4.7436523c0.9868164,1.8012695,1.7792969,4.2114258,2.3549805,7.1630859l0.0332031,0.1694336l-0.0786133,0.1538086
	C17.8496094,31.4619141,17.25,34.0224609,17.25,37c0,8.7744141,6.1435547,16.7871094,8.7851563,19.8242188l0.2485352,0.2861328
	l-0.2084961,0.3173828C26.0078125,57.5302734,26,57.5888672,26,57.625c0,0.046875,0.0136719,0.0976563,0.043457,0.1591797
	L26.3862305,58.5H25.125c-0.206543,0-0.375,0.1679688-0.375,0.375c0,0.046875,0.0136719,0.0976563,0.043457,0.1591797
	L25.1362305,59.75H22.625z M20.8408203,26.1347656l-0.4106445-0.5224609
	c-0.6025391-0.7670898-1.2485352-1.9335938-2.2529297-3.7744141l-3.0708008-5.6079102
	c-0.6289063-1.1479492-0.7729492-2.4746094-0.4047852-3.734375s1.203125-2.300293,2.3515625-2.9291992
	c0.7207031-0.3950195,1.5336914-0.6035156,2.3510742-0.6035156c1.7983398,0,3.4506836,0.9770508,4.3120117,2.550293
	l2.28125,4.1640625l-0.0009766,0.1293945c-0.0200195,3.4282227-1.753418,5.7436523-3.7607422,8.4248047
	c-0.3320313,0.4438477-0.6708984,0.8974609-1.0068359,1.3637695L20.8408203,26.1347656z M19.4042969,9.9628906
	c-0.6499023,0-1.296875,0.1660156-1.8706055,0.4804688c-0.9140625,0.5009766-1.5791016,1.3291016-1.8720703,2.3325195
	c-0.2929688,1.0039063-0.1787109,2.0595703,0.3217773,2.9736328l3.0712891,5.6088867
	c0.7587891,1.390625,1.3066406,2.3857422,1.7724609,3.0908203c0.2036133-0.2763672,0.4067383-0.5483398,0.6079102-0.8173828
	c1.875-2.5043945,3.4980469-4.671875,3.5600586-7.703125l-2.1557617-3.9350586
	C22.1533203,10.7412109,20.8369141,9.9628906,19.4042969,9.9628906z M43.1601563,26.1337891l-0.3886719-0.5375977
	c-0.3369141-0.4672852-0.6757813-0.9208984-1.0078125-1.3647461c-2.0068359-2.6801758-3.7402344-4.9951172-3.7597656-8.4243164
	l-0.0009766-0.1293945l2.28125-4.1645508c0.8613281-1.5732422,2.5126953-2.550293,4.3115234-2.550293
	c0.8173828,0,1.6308594,0.2084961,2.3505859,0.6035156c1.1484375,0.6293945,1.9833984,1.6694336,2.3515625,2.9291992
	s0.2246094,2.5864258-0.4052734,3.734375l-3.0712891,5.6103516c-1.0039063,1.840332-1.6503906,3.0078125-2.2519531,3.7719727
	L43.1601563,26.1337891z M39.0058594,15.9291992c0.0605469,3.0322266,1.6835938,5.1992188,3.5585938,7.7026367
	c0.2011719,0.269043,0.4042969,0.5410156,0.6083984,0.8178711c0.4648438-0.7041016,1.0126953-1.6992188,1.7714844-3.0888672
	l3.0712891-5.6113281c0.5009766-0.9140625,0.6152344-1.9697266,0.3222656-2.9736328
	c-0.2929688-1.003418-0.9580078-1.831543-1.8720703-2.3325195c-0.5732422-0.3144531-1.2197266-0.4804688-1.8701172-0.4804688
	c-1.4326172,0-2.7490234,0.7783203-3.4345703,2.0307617L39.0058594,15.9291992z"/>
  <g>
    <linearGradient id='SVGID_1_' gradientUnits='userSpaceOnUse' x1='22' y1='4.5' x2='42' y2='4.5'>
      <stop offset='0' style='stop-color:#C59D62'/>
      <stop offset='0.3' style='stop-color:#DBAE6D'/>
      <stop offset='0.7' style='stop-color:#B58B54'/>
      <stop offset='1' style='stop-color:#926134'/>
    </linearGradient>
    <path style='fill:url(#SVGID_1_);' d='M42,4.5c0,0.6903558-0.5596428,1.25-1.25,1.25h-17.5C22.5596447,5.75,22,5.1903558,22,4.5
		l0,0c0-0.690356,0.5596447-1.25,1.25-1.25h17.5C41.4403572,3.25,42,3.809644,42,4.5L42,4.5z'/>
    <path style='fill:#6A3906;' d='M40.75,6h-17.5c-0.8271484,0-1.5-0.6728516-1.5-1.5S22.4228516,3,23.25,3h17.5
		c0.8271484,0,1.5,0.6728516,1.5,1.5S41.5771484,6,40.75,6z M23.25,3.5c-0.5512695,0-1,0.4487305-1,1s0.4487305,1,1,1h17.5
		c0.5517578,0,1-0.4487305,1-1s-0.4482422-1-1-1H23.25z'/>
  </g>
  <g>
    <linearGradient id='SVGID_2_' gradientUnits='userSpaceOnUse' x1='23.25' y1='6.375' x2='40.75' y2='6.375'>
      <stop offset='0' style='stop-color:#C59D62'/>
      <stop offset='0.3' style='stop-color:#DBAE6D'/>
      <stop offset='0.7' style='stop-color:#B58B54'/>
      <stop offset='1' style='stop-color:#926134'/>
    </linearGradient>
    <path style='fill:url(#SVGID_2_);' d='M40.75,6.375C40.75,6.7201781,40.4701767,7,40.125,7h-16.25
		c-0.3451786,0-0.625-0.2798219-0.625-0.625l0,0c0-0.3451781,0.2798214-0.625,0.625-0.625h16.25
		C40.4701767,5.75,40.75,6.0298219,40.75,6.375L40.75,6.375z'/>
    <path style='fill:#6A3906;' d='M40.125,7.25h-16.25C23.3925781,7.25,23,6.8574219,23,6.375S23.3925781,5.5,23.875,5.5h16.25
		C40.6074219,5.5,41,5.8925781,41,6.375S40.6074219,7.25,40.125,7.25z M23.875,6C23.668457,6,23.5,6.168457,23.5,6.375
		s0.168457,0.375,0.375,0.375h16.25c0.2070313,0,0.375-0.168457,0.375-0.375S40.3320313,6,40.125,6H23.875z'/>
  </g>
  <g>
    <linearGradient id='SVGID_3_' gradientUnits='userSpaceOnUse' x1='24.5' y1='7.625' x2='39.5' y2='7.625'>
      <stop offset='0' style='stop-color:#C59D62'/>
      <stop offset='0.3' style='stop-color:#DBAE6D'/>
      <stop offset='0.7' style='stop-color:#B58B54'/>
      <stop offset='1' style='stop-color:#926134'/>
    </linearGradient>
    <path style='fill:url(#SVGID_3_);' d='M39.5,7.625c0,0.3451781-0.2798233,0.625-0.625,0.625h-13.75
		c-0.3451786,0-0.625-0.2798219-0.625-0.625l0,0C24.5,7.2798219,24.7798214,7,25.125,7h13.75
		C39.2201767,7,39.5,7.2798219,39.5,7.625L39.5,7.625z'/>
    <path style='fill:#6A3906;' d='M38.875,8.5h-13.75c-0.4824219,0-0.875-0.3925781-0.875-0.875s0.3925781-0.875,0.875-0.875h13.75
		c0.4824219,0,0.875,0.3925781,0.875,0.875S39.3574219,8.5,38.875,8.5z M25.125,7.25c-0.206543,0-0.375,0.168457-0.375,0.375
		S24.918457,8,25.125,8h13.75c0.2070313,0,0.375-0.168457,0.375-0.375S39.0820313,7.25,38.875,7.25H25.125z'/>
  </g>
  <g>
    <linearGradient id='SVGID_4_' gradientUnits='userSpaceOnUse' x1='25.75' y1='57.625' x2='38.25' y2='57.625'>
      <stop offset='0' style='stop-color:#C59D62'/>
      <stop offset='0.3' style='stop-color:#DBAE6D'/>
      <stop offset='0.7' style='stop-color:#B58B54'/>
      <stop offset='1' style='stop-color:#926134'/>
    </linearGradient>
    <path style='fill:url(#SVGID_4_);' d='M38.25,57.625c0,0.3451767-0.2798233,0.625-0.625,0.625h-11.25
		c-0.3451786,0-0.625-0.2798233-0.625-0.625l0,0c0-0.3451767,0.2798214-0.625,0.625-0.625h11.25
		C37.9701767,57,38.25,57.2798233,38.25,57.625L38.25,57.625z'/>
    <path style='fill:#6A3906;' d='M37.625,58.5h-11.25c-0.4824219,0-0.875-0.3925781-0.875-0.875s0.3925781-0.875,0.875-0.875h11.25
		c0.4824219,0,0.875,0.3925781,0.875,0.875S38.1074219,58.5,37.625,58.5z M26.375,57.25c-0.206543,0-0.375,0.1679688-0.375,0.375
		S26.168457,58,26.375,58h11.25C37.8320313,58,38,57.8320313,38,57.625s-0.1679688-0.375-0.375-0.375H26.375z'/>
  </g>
  <g>
    <linearGradient id='SVGID_5_' gradientUnits='userSpaceOnUse' x1='24.5' y1='58.875' x2='39.5' y2='58.875'>
      <stop offset='0' style='stop-color:#C59D62'/>
      <stop offset='0.3' style='stop-color:#DBAE6D'/>
      <stop offset='0.7' style='stop-color:#B58B54'/>
      <stop offset='1' style='stop-color:#926134'/>
    </linearGradient>
    <path style='fill:url(#SVGID_5_);' d='M39.5,58.875c0,0.3451767-0.2798233,0.625-0.625,0.625h-13.75
		c-0.3451786,0-0.625-0.2798233-0.625-0.625l0,0c0-0.3451767,0.2798214-0.625,0.625-0.625h13.75
		C39.2201767,58.25,39.5,58.5298233,39.5,58.875L39.5,58.875z'/>
    <path style='fill:#6A3906;' d='M38.875,59.75h-13.75c-0.4824219,0-0.875-0.3925781-0.875-0.875S24.6425781,58,25.125,58h13.75
		c0.4824219,0,0.875,0.3925781,0.875,0.875S39.3574219,59.75,38.875,59.75z M25.125,58.5c-0.206543,0-0.375,0.1679688-0.375,0.375
		s0.168457,0.375,0.375,0.375h13.75c0.2070313,0,0.375-0.1679688,0.375-0.375S39.0820313,58.5,38.875,58.5H25.125z'/>
  </g>
  <g>
    <linearGradient id='SVGID_6_' gradientUnits='userSpaceOnUse' x1='22' y1='60.125' x2='42' y2='60.125'>
      <stop offset='0' style='stop-color:#C59D62'/>
      <stop offset='0.3' style='stop-color:#DBAE6D'/>
      <stop offset='0.7' style='stop-color:#B58B54'/>
      <stop offset='1' style='stop-color:#926134'/>
    </linearGradient>
    <path style='fill:url(#SVGID_6_);' d='M42,60.125c0,0.3451767-0.2798233,0.625-0.625,0.625h-18.75
		c-0.3451786,0-0.625-0.2798233-0.625-0.625l0,0c0-0.3451767,0.2798214-0.625,0.625-0.625h18.75
		C41.7201767,59.5,42,59.7798233,42,60.125L42,60.125z'/>
    <path style='fill:#6A3906;' d='M41.375,61h-18.75c-0.4824219,0-0.875-0.3925781-0.875-0.875s0.3925781-0.875,0.875-0.875h18.75
		c0.4824219,0,0.875,0.3925781,0.875,0.875S41.8574219,61,41.375,61z M22.625,59.75c-0.206543,0-0.375,0.1679688-0.375,0.375
		s0.168457,0.375,0.375,0.375h18.75c0.2070313,0,0.375-0.1679688,0.375-0.375s-0.1679688-0.375-0.375-0.375H22.625z'/>
  </g>
  <g>
    <linearGradient id='SVGID_7_' gradientUnits='userSpaceOnUse' x1='20.3909435' y1='7.7101111' x2='20.3909435' y2='33.25'>
      <stop offset='0' style='stop-color:#E6B772'/>
      <stop offset='1' style='stop-color:#B08046'/>
    </linearGradient>
    <path style='fill:url(#SVGID_7_);' d='M19.5796547,33.25c-0.0024414-0.0585938-0.4912109-7.1499023-2.9707031-11.6757813
		l-2.5986319-4.7436523c-0.7905273-1.4428711-0.9716797-3.1069336-0.5102539-4.6860352s1.5097656-2.8842773,2.9526358-3.6743164
		c1.4428711-0.7905273,3.1044922-0.9711914,4.6860352-0.5102539c1.5786133,0.4614258,2.8837891,1.5097656,3.6738281,2.9526367
		l2.7193203,4.6229658L27.3296547,20c-0.4836903-0.6647415-0.830965-2.8875713-1.2338867-3.6230469l-2.5986328-4.7436523
		c-1.234375-2.253418-4.0703125-3.0830078-6.3237305-1.8476563c-2.2529287,1.234375-3.0820303,4.0712891-1.8476553,6.3242188
		l2.5986319,4.7436523c2.6533203,4.8427734,3.2386074,6.2298183,5.4052734,5.4798183L19.5796547,33.25z'/>
    <path style='fill:#6A3906;' d='M19.3676758,34.1660156l-0.0375977-0.9033203
		c-0.0063477-0.0976563-0.5078125-7.1279297-2.9404297-11.5683594l-2.5986328-4.7436523
		c-0.8227539-1.5014648-1.0112305-3.2329102-0.5307617-4.8764648c0.4799805-1.6435547,1.5712891-3.0014648,3.0722656-3.8232422
		c1.4829102-0.8134766,3.2485352-1.0063477,4.8759766-0.53125c1.6435547,0.4804688,3.0014648,1.5717773,3.8232422,3.0727539
		l2.7529297,4.6801758l-0.237793,5.2514648l-0.4194336-0.5771484c-0.2929688-0.4023438-0.5224609-1.2568359-0.7446289-2.0830078
		c-0.1669922-0.6206055-0.3393555-1.2617188-0.5063477-1.5668945L23.277832,11.753418
		c-0.7739258-1.4130859-2.2583008-2.2905273-3.8735352-2.2905273c-0.734375,0-1.4638672,0.1875-2.1108398,0.5419922
		c-1.03125,0.5649414-1.78125,1.4995117-2.1118164,2.6308594c-0.3305664,1.1318359-0.2016602,2.3227539,0.3632813,3.3540039
		l3.0712891,5.6088867c1.8041992,3.3071289,2.5507813,4.6757813,3.7441406,4.6757813
		c0.2529297,0,0.543457-0.0581055,0.8876953-0.1772461l0.6083984-0.2104492L19.3676758,34.1660156z M19.4018555,7.9599609
		c-0.9799805,0-1.9580078,0.2524414-2.8291016,0.7294922c-1.3837891,0.7578125-2.3901367,2.0097656-2.8330078,3.5253906
		c-0.4423828,1.5146484-0.2685547,3.1113281,0.4897461,4.4956055l2.5986328,4.7436523
		c2.0029297,3.65625,2.7172852,8.9223633,2.9267578,10.9482422l3.0766602-5.6748047
		c-1.8344727,0.3442383-2.5595703-1.0507813-4.6542969-4.8891602l-3.0708008-5.6083984
		c-0.6289063-1.1479492-0.7729492-2.4741211-0.4047852-3.734375c0.3681641-1.2597656,1.203125-2.300293,2.3515625-2.9291992
		c0.7202148-0.3950195,1.5332031-0.6035156,2.3510742-0.6035156c1.7978516,0,3.4501953,0.9770508,4.3120117,2.550293
		l2.5986328,4.7436523c0.1958008,0.3579102,0.3681641,0.9985352,0.5507813,1.6772461
		c0.0839844,0.3120117,0.1723633,0.6416016,0.2646484,0.9428711l0.1484375-3.2783203l-2.6816406-4.559082
		c-0.7617188-1.390625-2.0131836-2.3969727-3.5288086-2.8398438C20.5224609,8.0410156,19.9619141,7.9599609,19.4018555,7.9599609z'/>
  </g>
  <g>
    <linearGradient id='SVGID_8_' gradientUnits='userSpaceOnUse' x1='43.6090584' y1='7.7101111' x2='43.6090584' y2='33.25'>
      <stop offset='0' style='stop-color:#B08046'/>
      <stop offset='1' style='stop-color:#926134'/>
    </linearGradient>
    <path style='fill:url(#SVGID_8_);' d='M44.4203453,33.25c0.0024414-0.0585938,0.4912109-7.1499023,2.9707031-11.6757813
		l2.5986328-4.7436523c0.7905273-1.4428711,0.9716797-3.1069336,0.5102539-4.6860352s-1.5097656-2.8842773-2.9526367-3.6743164
		c-1.4428711-0.7905273-3.1044922-0.9711914-4.6860352-0.5102539c-1.5786133,0.4614258-2.8837891,1.5097656-3.6738281,2.9526367
		l-2.7193222,4.6229658L36.6703453,20c0.4836922-0.6647415,0.8309631-2.8875713,1.2338867-3.6230469l2.5986328-4.7436523
		c1.234375-2.253418,4.0703125-3.0830078,6.3237305-1.8476563c2.2529297,1.234375,3.0820313,4.0712891,1.8476563,6.3242188
		l-2.5986328,4.7436523c-2.6533203,4.8427734-3.2386093,6.2298183-5.4052734,5.4798183L44.4203453,33.25z'/>
    <path style='fill:#6A3906;' d='M44.6171875,34.1376953l-4.4736328-8.2509766l0.6083984,0.2104492
		c0.34375,0.1191406,0.6347656,0.1772461,0.8876953,0.1772461c1.1933594-0.0004883,1.9394531-1.3686523,3.7431641-4.6743164
		l3.0712891-5.6103516c0.5654297-1.03125,0.6943359-2.222168,0.3632813-3.3540039
		c-0.3300781-1.1313477-1.0800781-2.065918-2.1113281-2.6308594c-0.6464844-0.3544922-1.3759766-0.5419922-2.1103516-0.5419922
		c-1.6152344,0-3.0996094,0.8774414-3.8730469,2.2905273l-2.5986328,4.7436523
		c-0.1679688,0.3051758-0.3398438,0.9462891-0.5068359,1.5664063c-0.2216797,0.8266602-0.4521484,1.6811523-0.7451172,2.0839844
		l-0.4199219,0.5751953l-0.2373047-5.25l0.0371094-0.0639648l2.7197266-4.6230469
		c0.8183594-1.4941406,2.1757813-2.5854492,3.8193359-3.0654297c1.6279297-0.4765625,3.3925781-0.2832031,4.8759766,0.5307617
		c1.5009766,0.8212891,2.5917969,2.1791992,3.0732422,3.8232422c0.4794922,1.644043,0.2910156,3.3759766-0.5322266,4.8764648
		l-2.5976563,4.7436523c-2.4589844,4.487793-2.9365234,11.5-2.9404297,11.5693359L44.6171875,34.1376953z M41.1679688,26.7275391
		l3.078125,5.6767578c0.2119141-2.0268555,0.9326172-7.3134766,2.9248047-10.9501953l2.5986328-4.7436523
		c0.7587891-1.3833008,0.9326172-2.9799805,0.4902344-4.4960938c-0.4433594-1.515625-1.4492188-2.7675781-2.8330078-3.5249023
		c-1.3681641-0.7490234-2.9921875-0.9267578-4.4951172-0.4892578c-1.515625,0.4423828-2.7666016,1.4487305-3.5244141,2.8325195
		l-2.6865234,4.565918l0.1484375,3.2797852c0.0927734-0.3022461,0.1816406-0.6323242,0.265625-0.9448242
		c0.1816406-0.6782227,0.3544922-1.3193359,0.5507813-1.6767578l2.5976563-4.7436523
		c0.8623047-1.5732422,2.5146484-2.550293,4.3125-2.550293c0.8173828,0,1.6308594,0.2084961,2.3505859,0.6035156
		c1.1484375,0.6289063,1.9833984,1.6694336,2.3515625,2.9291992c0.3681641,1.2602539,0.2246094,2.5864258-0.4042969,3.734375
		l-3.0722656,5.609375c-1.9042969,3.4902344-2.6923828,4.9345703-4.1816406,4.9350586
		C41.4912109,26.7744141,41.3349609,26.7587891,41.1679688,26.7275391z'/>
  </g>
  <g>
    <linearGradient id='SVGID_9_' gradientUnits='userSpaceOnUse' x1='18.4851284' y1='28.9135151' x2='47.7910309' y2='36.7660065'>
      <stop offset='0' style='stop-color:#FFCB7F'/>
      <stop offset='0.5442478' style='stop-color:#C59D62'/>
      <stop offset='1' style='stop-color:#926134'/>
    </linearGradient>
    <path style='fill:url(#SVGID_9_);' d='M25.855957,57H38.144043C40.7669678,53.9841919,47,45.8842773,47,37
		c0-11.25-8.75-13.75-8.75-21.25c0-3.5176392,0.2752075-5.9241943,0.5671997-7.5H25.1828003
		C25.4747925,9.8258057,25.75,12.2323608,25.75,15.75c0,7.5-8.75,10-8.75,21.25C17,45.8842773,23.2330322,53.9841919,25.855957,57z'/>
    <path style='fill:#6A3906;' d='M38.2587891,57.25H25.7421875l-0.074707-0.0859375C22.9863281,54.0820313,16.75,45.9462891,16.75,37
		c0-6.2763672,2.7016602-9.8847656,5.0854492-13.0683594C23.8017578,21.3056641,25.5,19.0380859,25.5,15.75
		c0-2.9296875-0.1894531-5.4379883-0.5629883-7.4545898L24.8818359,8h14.2363281l-0.0546875,0.2954102
		C38.6894531,10.3120117,38.5,12.8203125,38.5,15.75c0,3.2880859,1.6982422,5.5556641,3.6640625,8.1816406
		C44.5478516,27.1152344,47.25,30.7236328,47.25,37c0,8.9433594-6.2353516,17.0810547-8.9169922,20.1640625L38.2587891,57.25z
		 M25.9702148,56.75h12.0600586C40.7138672,53.6464844,46.75,45.6933594,46.75,37
		c0-6.1098633-2.6484375-9.6474609-4.9853516-12.7685547C39.828125,21.6459961,38,19.2045898,38,15.75
		c0-2.8193359,0.1748047-5.2563477,0.5185547-7.25H25.4814453C25.8256836,10.4936523,26,12.9306641,26,15.75
		c0,3.4545898-1.8286133,5.8959961-3.7641602,8.4814453C19.8989258,27.3525391,17.25,30.8901367,17.25,37
		C17.25,45.6962891,23.2866211,53.6474609,25.9702148,56.75z'/>
  </g>
  <linearGradient id="SVGID_10_" gradientUnits="userSpaceOnUse" x1="32" y1="8.25" x2="32" y2="57">
    <stop offset='0' style='stop-color:#926134;stop-opacity:0.6'/>
    <stop offset='0.2787611' style='stop-color:#926134;stop-opacity:0'/>
    <stop offset='0.7079646' style='stop-color:#926134;stop-opacity:0'/>
    <stop offset='1' style='stop-color:#926134;stop-opacity:0.6'/>
  </linearGradient>
  <path style="fill:url(#SVGID_10_);" d="M25.855957,57H38.144043C40.7669678,53.9841919,47,45.8842773,47,37
	c0-11.25-8.75-13.75-8.75-21.25c0-3.5176392,0.2752075-5.9241943,0.5671997-7.5H25.1828003
	C25.4747925,9.8258057,25.75,12.2323608,25.75,15.75c0,7.5-8.75,10-8.75,21.25C17,45.8842773,23.2330322,53.9841919,25.855957,57z"/>
  <g>
    <radialGradient id='SVGID_11_' cx='29.0068512' cy='31.9346943' r='9.6875' gradientTransform='matrix(0.6705635 0.3015148 -0.4100946 0.912043 20.6065521 -6.7538214)' gradientUnits='userSpaceOnUse'>
      <stop offset='0.2168142' style='stop-color:#F5F5F5;stop-opacity:0.7'/>
      <stop offset='1' style='stop-color:#F5F5F5;stop-opacity:0'/>
    </radialGradient>
    <path style='fill:url(#SVGID_11_);' d='M33.457325,34.0389137c-2.1941109,4.8796654-6.8811874,7.5276718-10.4688759,5.9144897
		s-4.7174034-6.8766747-2.5232925-11.75634s6.8811893-7.5276737,10.4688759-5.9144917S35.6514359,29.1592464,33.457325,34.0389137z'/>
    <radialGradient id='SVGID_12_' cx='26.0280247' cy='4.3125' r='1.1875' gradientTransform='matrix(4.3333335 0 0 0.6842105 -83.6422729 1.3618422)' gradientUnits='userSpaceOnUse'>
      <stop offset='0' style='stop-color:#F5F5F5;stop-opacity:0.5'/>
      <stop offset='1' style='stop-color:#F5F5F5;stop-opacity:0'/>
    </radialGradient>
    <ellipse style='fill:url(#SVGID_12_);' cx='29.145834' cy='4.3125' rx='5.1458335' ry='0.8125'/>
    <radialGradient id='SVGID_13_' cx='26.3730145' cy='81.8830109' r='1.1875' gradientTransform='matrix(1.7368422 0 0 0.3333333 -16.6599274 30.2681618)' gradientUnits='userSpaceOnUse'>
      <stop offset='0' style='stop-color:#F5F5F5;stop-opacity:0.5'/>
      <stop offset='1' style='stop-color:#F5F5F5;stop-opacity:0'/>
    </radialGradient>
    <ellipse style='fill:url(#SVGID_13_);' cx='29.145834' cy='57.5625' rx='2.0625' ry='0.3958333'/>
    <radialGradient id='SVGID_14_' cx='26.4089985' cy='85.8205109' r='1.1875' gradientTransform='matrix(2.7894738 0 0 0.3333333 -44.4588737 30.2681618)' gradientUnits='userSpaceOnUse'>
      <stop offset='0' style='stop-color:#F5F5F5;stop-opacity:0.5'/>
      <stop offset='1' style='stop-color:#F5F5F5;stop-opacity:0'/>
    </radialGradient>
    <ellipse style='fill:url(#SVGID_14_);' cx='29.208334' cy='58.875' rx='3.3125' ry='0.3958333'/>
    <radialGradient id='SVGID_15_' cx='26.0280247' cy='85.9759598' r='1.1875' gradientTransform='matrix(4.3333335 0 0 0.2807018 -83.6422729 35.9913979)' gradientUnits='userSpaceOnUse'>
      <stop offset='0' style='stop-color:#F5F5F5;stop-opacity:0.5'/>
      <stop offset='1' style='stop-color:#F5F5F5;stop-opacity:0'/>
    </radialGradient>
    <ellipse style='fill:url(#SVGID_15_);' cx='29.145834' cy='60.125' rx='5.1458335' ry='0.3333333'/>
    <radialGradient id='SVGID_16_' cx='26.0280247' cy='6.5961537' r='1.1875' gradientTransform='matrix(3.1754386 0 0 0.2894737 -53.5045624 4.4343371)' gradientUnits='userSpaceOnUse'>
      <stop offset='0' style='stop-color:#F5F5F5;stop-opacity:0.5'/>
      <stop offset='1' style='stop-color:#F5F5F5;stop-opacity:0'/>
    </radialGradient>
    <ellipse style='fill:url(#SVGID_16_);' cx='29.145834' cy='6.34375' rx='3.7708333' ry='0.34375'/>
    <radialGradient id='SVGID_17_' cx='26.0280247' cy='10.0506992' r='1.1875' gradientTransform='matrix(2.5087719 0 0 0.3070175 -36.1525459 4.5288424)' gradientUnits='userSpaceOnUse'>
      <stop offset='0' style='stop-color:#F5F5F5;stop-opacity:0.5'/>
      <stop offset='1' style='stop-color:#F5F5F5;stop-opacity:0'/>
    </radialGradient>
    <ellipse style='fill:url(#SVGID_17_);' cx='29.145834' cy='7.6145821' rx='2.9791667' ry='0.3645833'/>
  </g>
  <g>
  </g>
  <g>
  </g>
  <g>
  </g>
  <g>
  </g>
  <g>
  </g>
  <g>
  </g>
</svg>