<?xml version="1.0" encoding="UTF-8" standalone="no"?>
<!-- Generator: Adobe Illustrator 15.0.2, SVG Export Plug-In . SVG Version: 6.00 Build 0)  -->

<svg
   xmlns:dc="http://purl.org/dc/elements/1.1/"
   xmlns:cc="http://creativecommons.org/ns#"
   xmlns:rdf="http://www.w3.org/1999/02/22-rdf-syntax-ns#"
   xmlns:svg="http://www.w3.org/2000/svg"
   xmlns="http://www.w3.org/2000/svg"
   xmlns:sodipodi="http://sodipodi.sourceforge.net/DTD/sodipodi-0.dtd"
   xmlns:inkscape="http://www.inkscape.org/namespaces/inkscape"
   version="1.1"
   id="レイヤー_1"
   x="0px"
   y="0px"
   width="64px"
   height="64px"
   viewBox="0 0 64 64"
   enable-background="new 0 0 64 64"
   xml:space="preserve"
   inkscape:version="0.48.4 r9939"
   sodipodi:docname="articulated_lorry.svg"><metadata
     id="metadata65"><rdf:RDF><cc:Work
         rdf:about=""><dc:format>image/svg+xml</dc:format><dc:type
           rdf:resource="http://purl.org/dc/dcmitype/StillImage" /></cc:Work></rdf:RDF></metadata><defs
     id="defs63" /><sodipodi:namedview
     pagecolor="#ffffff"
     bordercolor="#666666"
     borderopacity="1"
     objecttolerance="10"
     gridtolerance="10"
     guidetolerance="10"
     inkscape:pageopacity="0"
     inkscape:pageshadow="2"
     inkscape:window-width="640"
     inkscape:window-height="480"
     id="namedview61" /><g
     id="g3"><rect
       x="23.773"
       y="32.769"
       fill="#0C0301"
       width="3.25"
       height="11.791"
       id="rect5" /><rect
       x="29.939"
       y="43.643"
       fill="#3E3A39"
       width="5.584"
       height="3.417"
       id="rect7" /><rect
       x="22.689"
       y="41.977"
       fill="#0C0301"
       width="38.746"
       height="3.333"
       id="rect9" /><g
       id="g11"><g
         id="g13"><path
           fill="#7F8FA5"
           d="M61.436,40.524c0,1.1-0.9,2-2,2H30.602c-1.1,0-2-0.9-2-2v-24.86c0-1.1,0.9-2,2-2h28.834c1.1,0,2,0.9,2,2     V40.524z"
           id="path15" /><path
           fill="none"
           stroke="#0C0301"
           stroke-width="0.5233"
           stroke-linecap="round"
           stroke-linejoin="round"
           stroke-miterlimit="10"
           d="     M61.436,40.524c0,1.1-0.9,2-2,2H30.602c-1.1,0-2-0.9-2-2v-24.86c0-1.1,0.9-2,2-2h28.834c1.1,0,2,0.9,2,2V40.524z"
           id="path17" /></g><rect
         x="28.602"
         y="16.839"
         fill="#748396"
         width="32.834"
         height="3.727"
         id="rect19" /><rect
         x="28.602"
         y="23.003"
         fill="#748396"
         width="32.834"
         height="3.727"
         id="rect21" /><rect
         x="28.602"
         y="29.168"
         fill="#748396"
         width="32.834"
         height="3.728"
         id="rect23" /><rect
         x="28.602"
         y="35.333"
         fill="#748396"
         width="32.834"
         height="3.727"
         id="rect25" /><g
         id="g27"><path
           fill="none"
           stroke="#0C0301"
           stroke-width="0.5233"
           stroke-linecap="round"
           stroke-linejoin="round"
           stroke-miterlimit="10"
           d="     M61.436,40.524c0,1.1-0.9,2-2,2H30.602c-1.1,0-2-0.9-2-2v-24.86c0-1.1,0.9-2,2-2h28.834c1.1,0,2,0.9,2,2V40.524z"
           id="path29" /></g></g><circle
       fill="#0C0301"
       cx="10.512"
       cy="45.989"
       r="4.347"
       id="circle31" /><path
       fill="#FFFFFF"
       stroke="#0C0301"
       stroke-width="0.5233"
       stroke-linecap="round"
       stroke-linejoin="round"
       stroke-miterlimit="10"
       d="   M23.222,22.865H6.113L2.565,34.989c0,0,0,7.333,0,9.403c0,0.769,0.798,1.597,0.798,1.597h2.026c0-2.816,2.284-5.102,5.101-5.102   s5.101,2.285,5.101,5.102l9.849-0.414V34.989l-0.626-11.056L23.222,22.865z"
       id="path33" /><path
       fill="none"
       stroke="#B7B7B7"
       stroke-width="0.4"
       stroke-miterlimit="10"
       d="M6.165,24.643h6.92V39.06   c0,0-5.161-0.832-7.903,3.584H3.356v-8.216L6.165,24.643z"
       id="path35" /><circle
       fill="#0C0301"
       cx="54.39"
       cy="45.989"
       r="4.347"
       id="circle37" /><polygon
       fill="#288EA5"
       points="3.733,34.812 6.439,25.763 12.353,25.763 12.353,34.812  "
       id="polygon39" /><rect
       x="2.565"
       y="38.715"
       fill="#F2CF00"
       width="2.336"
       height="2.129"
       id="rect41" /><rect
       x="59.986"
       y="39.98"
       fill="#EF0000"
       width="1.449"
       height="3.993"
       id="rect43" /><path
       fill="#090B0C"
       d="M7.529,31.795C7.174,31.027,4.986,31.5,4.986,31.5l-1.253,1.499l-1.003,1.428l1.003,0.385l0.659-0.867   c0.412,0.18,1.245,0.397,2.014,0.039C7.292,33.57,7.884,32.563,7.529,31.795z"
       id="path45" /><circle
       fill="#C1C1C1"
       stroke="#0C0301"
       stroke-width="0.5233"
       stroke-linecap="round"
       stroke-linejoin="round"
       stroke-miterlimit="10"
       cx="10.512"
       cy="45.989"
       r="2.573"
       id="circle47" /><circle
       fill="#C1C1C1"
       stroke="#0C0301"
       stroke-width="0.5233"
       stroke-linecap="round"
       stroke-linejoin="round"
       stroke-miterlimit="10"
       cx="54.39"
       cy="45.989"
       r="2.573"
       id="circle49" /><g
       id="g51"><circle
         fill="#0C0301"
         cx="40.954"
         cy="45.989"
         r="4.347"
         id="circle53" /><circle
         fill="#C1C1C1"
         stroke="#0C0301"
         stroke-width="0.5233"
         stroke-linecap="round"
         stroke-linejoin="round"
         stroke-miterlimit="10"
         cx="40.954"
         cy="45.989"
         r="2.573"
         id="circle55" /></g><rect
       x="14.502"
       y="25.763"
       fill="#288EA5"
       width="7.69"
       height="9.049"
       id="rect57" /><rect
       x="13.085"
       y="24.643"
       fill="none"
       stroke="#B7B7B7"
       stroke-width="0.3954"
       stroke-miterlimit="10"
       width="10.688"
       height="14.417"
       id="rect59" /></g></svg>