<?xml version="1.0" encoding="utf-8"?>
<!-- Generator: Adobe Illustrator 13.0.0, SVG Export Plug-In . SVG Version: 6.00 Build 14948)  -->
<!DOCTYPE svg PUBLIC "-//W3C//DTD SVG 1.1//EN" "http://www.w3.org/Graphics/SVG/1.1/DTD/svg11.dtd">
<svg version="1.1" id="レイヤー_1" xmlns="http://www.w3.org/2000/svg" xmlns:xlink="http://www.w3.org/1999/xlink" x="0px"
	 y="0px" width="57.549px" height="50.705px" viewBox="0 0 57.549 50.705" enable-background="new 0 0 57.549 50.705"
	 xml:space="preserve">
<g>
	<linearGradient id="SVGID_1_" gradientUnits="userSpaceOnUse" x1="15.9492" y1="10.9126" x2="54.6623" y2="53.5649">
		<stop  offset="0" style="stop-color:#FFD17F"/>
		<stop  offset="1" style="stop-color:#C99659"/>
	</linearGradient>
	
		<path fill-rule="evenodd" clip-rule="evenodd" fill="url(#SVGID_1_)" stroke="#3A1902" stroke-width="1.038" stroke-miterlimit="10" d="
		M56.862,22.559C53.973-8.565,11.691-2.47,2.572,14.746c-9.12,17.216,15.104,10.271,14.961,16.06
		c-0.142,5.786-12.026,9.87-7.686,14.753C15.282,51.671,60.107,57.512,56.862,22.559z M27.778,42.706
		c-2.663,0-4.822-1.673-4.822-3.735c0-2.063,2.159-3.735,4.822-3.735c2.664,0,4.823,1.672,4.823,3.735
		C32.602,41.033,30.442,42.706,27.778,42.706z"/>
	
		<linearGradient id="SVGID_2_" gradientUnits="userSpaceOnUse" x1="12.7041" y1="14.0068" x2="13.1116" y2="19.3045" gradientTransform="matrix(0.7928 -0.5588 0.5191 0.7364 -7.0055 12.1226)">
		<stop  offset="0" style="stop-color:#FF1F1F"/>
		<stop  offset="1" style="stop-color:#BF0000"/>
	</linearGradient>
	<path fill-rule="evenodd" clip-rule="evenodd" fill="url(#SVGID_2_)" stroke="#C10D23" stroke-width="0.5" d="M16.169,15.483
		c0.836,1.188-1.052,1.938-3.044,3.343c-1.992,1.404-2.268,4.443-4.559,1.192c-0.837-1.188-1.217-3.267,0.542-4.949
		C10.456,13.781,14.336,12.882,16.169,15.483z"/>
	
		<linearGradient id="SVGID_3_" gradientUnits="userSpaceOnUse" x1="24.7109" y1="11.0854" x2="25.1639" y2="16.9734" gradientTransform="matrix(0.9611 -0.1312 0.1218 0.8927 -2.8275 1.4759)">
		<stop  offset="0" style="stop-color:#FFC05F"/>
		<stop  offset="1" style="stop-color:#FF8900"/>
	</linearGradient>
	<path fill-rule="evenodd" clip-rule="evenodd" fill="url(#SVGID_3_)" stroke="#E75513" stroke-width="0.5" d="M27.362,10.833
		c0.197,1.439-2.014,2.364-4.429,2.694c-2.415,0.329-3.871,1.773-4.408-2.168c-0.197-1.44,0.424-3.459,2.758-4.144
		C23.074,6.692,26.933,7.681,27.362,10.833z"/>
	
		<linearGradient id="SVGID_4_" gradientUnits="userSpaceOnUse" x1="40.7793" y1="10.521" x2="41.2527" y2="16.6752" gradientTransform="matrix(0.9306 0.2734 -0.254 0.8644 3.0997 -12.741)">
		<stop  offset="0" style="stop-color:#74FF3F"/>
		<stop  offset="1" style="stop-color:#1D5F00"/>
	</linearGradient>
	<path fill-rule="evenodd" clip-rule="evenodd" fill="url(#SVGID_4_)" stroke="#006934" stroke-width="0.5" d="M42.366,10.513
		c0.898,1.142-2.656,3.283-4.995,2.597c-2.338-0.688-5.204-0.503-4.082-4.319c0.409-1.394,1.801-2.983,4.212-2.653
		C39.349,6.392,40.872,8.611,42.366,10.513z"/>
	
		<linearGradient id="SVGID_5_" gradientUnits="userSpaceOnUse" x1="52.2041" y1="14.9355" x2="52.6326" y2="20.5058" gradientTransform="matrix(0.9345 0.26 -0.2415 0.868 2.1369 -10.837)">
		<stop  offset="0" style="stop-color:#3FA9FF"/>
		<stop  offset="1" style="stop-color:#00529F"/>
	</linearGradient>
	<path fill-rule="evenodd" clip-rule="evenodd" fill="url(#SVGID_5_)" stroke="#182985" stroke-width="0.5" d="M51.032,19.569
		c-0.39,1.4-1.241,2.051-3.59,1.398c-2.349-0.654-5.801-0.582-4.734-4.413c0.39-1.4,0.508-3.225,2.713-2.196
		C47.347,15.257,51.885,16.502,51.032,19.569z"/>
	
		<linearGradient id="SVGID_6_" gradientUnits="userSpaceOnUse" x1="61.4912" y1="21.5864" x2="62.098" y2="29.4749" gradientTransform="matrix(0.624 0.6003 -0.57 0.5926 24.4818 -21.1175)">
		<stop  offset="0" style="stop-color:#9D1FFF"/>
		<stop  offset="1" style="stop-color:#5E007F"/>
	</linearGradient>
	<path fill-rule="evenodd" clip-rule="evenodd" fill="url(#SVGID_6_)" stroke="#5F1983" stroke-width="0.5" d="M51.422,33.245
		c-0.92,0.957-1.133,3.991-2.701,2.483c-1.567-1.508-5.069-5.772-2.553-8.389c0.92-0.956,2.702-1.667,4.48-0.416
		C52.011,27.883,53.435,31.152,51.422,33.245z"/>
</g>
</svg>
