<?xml version="1.0" encoding="utf-8"?>
<!-- Generator: Adobe Illustrator 15.0.2, SVG Export Plug-In . SVG Version: 6.00 Build 0)  -->
<!DOCTYPE svg PUBLIC "-//W3C//DTD SVG 1.1//EN" "http://www.w3.org/Graphics/SVG/1.1/DTD/svg11.dtd">
<svg version="1.1" id="レイヤー_1" xmlns="http://www.w3.org/2000/svg" xmlns:xlink="http://www.w3.org/1999/xlink" x="0px"
	 y="0px" width="64px" height="64px" viewBox="0 0 64 64" style="enable-background:new 0 0 64 64;" xml:space="preserve">
<rect x="4.4833984" y="4.4833984" style="fill:#C10D23;" width="55.0332031" height="55.0332031"/>
<g>
	<path style="fill:#FFFFFF;" d="M24.0102539,39.4550781h-3.7182617l-0.9194336-3.4726563h-3.6367188l-0.8583984,3.4726563
		h-3.6367188l4.1679688-14.909668h4.5561523L24.0102539,39.4550781z M18.9433594,33.4179688l-0.6948242-2.9897461
		c-0.2041016-0.887207-0.4697266-2.2177734-0.6738281-3.1245117h-0.0410156
		c-0.2045898,0.9067383-0.4702148,2.2758789-0.6538086,3.1245117l-0.715332,2.9897461H18.9433594z"/>
	<path style="fill:#FFFFFF;" d="M35.5957031,27.5161133h-3.6162109v11.9389648h-3.5961914V27.5161133h-3.5751953v-2.9707031
		h10.7875977V27.5161133z"/>
	<path style="fill:#FFFFFF;" d="M52.7597656,39.4550781h-3.3925781l-0.2246094-5.3242188
		C49.0605469,32.5498047,48.9785156,30.5629883,49,28.5961914h-0.0625c-0.4082031,1.793457-0.9589844,3.8183594-1.3886719,5.2456055
		l-1.5527344,5.3417969h-2.7167969l-1.4101563-5.3027344c-0.3886719-1.4272461-0.8378906-3.4526367-1.1640625-5.284668h-0.0625
		c-0.0605469,1.8515625-0.1621094,3.9536133-0.2441406,5.5541992l-0.265625,5.3046875h-3.2285156l1.0820313-14.909668h4.3925781
		l1.2675781,4.8222656c0.4492188,1.7744141,0.8984375,3.5869141,1.2050781,5.3413086h0.0820313
		c0.3261719-1.715332,0.7773438-3.625,1.2460938-5.3608398l1.3496094-4.8027344h4.3300781L52.7597656,39.4550781z"/>
</g>
</svg>
