<?xml version="1.0" encoding="UTF-8" standalone="no"?>
<!-- Generator: Adobe Illustrator 15.0.2, SVG Export Plug-In . SVG Version: 6.00 Build 0)  -->

<svg
   xmlns:dc="http://purl.org/dc/elements/1.1/"
   xmlns:cc="http://creativecommons.org/ns#"
   xmlns:rdf="http://www.w3.org/1999/02/22-rdf-syntax-ns#"
   xmlns:svg="http://www.w3.org/2000/svg"
   xmlns="http://www.w3.org/2000/svg"
   xmlns:sodipodi="http://sodipodi.sourceforge.net/DTD/sodipodi-0.dtd"
   xmlns:inkscape="http://www.inkscape.org/namespaces/inkscape"
   version="1.1"
   id="レイヤー_1"
   x="0px"
   y="0px"
   width="64px"
   height="64px"
   viewBox="0 0 64 64"
   enable-background="new 0 0 64 64"
   xml:space="preserve"
   inkscape:version="0.48.5 r10040"
   sodipodi:docname="back.svg"><metadata
     id="metadata21"><rdf:RDF><cc:Work
         rdf:about=""><dc:format>image/svg+xml</dc:format><dc:type
           rdf:resource="http://purl.org/dc/dcmitype/StillImage" /></cc:Work></rdf:RDF></metadata><defs
     id="defs19" /><sodipodi:namedview
     pagecolor="#ffffff"
     bordercolor="#666666"
     borderopacity="1"
     objecttolerance="10"
     gridtolerance="10"
     guidetolerance="10"
     inkscape:pageopacity="0"
     inkscape:pageshadow="2"
     inkscape:window-width="640"
     inkscape:window-height="480"
     id="namedview17" /><g
     id="g3"><polygon
       points="60.516,22.784 18.709,22.783 18.709,16.678 3.484,27.447 18.709,38.215 18.709,32.109 60.516,32.109  "
       id="polygon5" /><g
       id="g7"><path
         d="M29.328,41.068c1.348,0.355,2.163,1.408,2.163,2.742c0,0.902-0.385,1.762-1.067,2.369    c-0.785,0.697-2.089,1.098-4.296,1.098c-1.111,0-1.971-0.074-2.549-0.164v-11.23c0.682-0.133,1.896-0.236,3.097-0.236    c1.363,0,2.386,0.148,3.23,0.695c0.741,0.475,1.186,1.26,1.186,2.223c0,0.994-0.534,1.957-1.763,2.461V41.068z M26.78,40.299    c1.096,0,1.733-0.594,1.733-1.422c0-0.92-0.637-1.32-1.511-1.32c-0.4,0-0.652,0.031-0.83,0.074v2.668H26.78z M26.172,45.277    c0.192,0.045,0.415,0.045,0.726,0.045c0.993,0,1.867-0.475,1.867-1.586c0-1.156-0.978-1.557-1.926-1.557h-0.667V45.277z"
         id="path9" /><path
         d="M41.536,47.174H38.84l-0.667-2.668h-2.637l-0.623,2.668h-2.637l3.023-11.453h3.304L41.536,47.174z M37.862,42.535    l-0.504-2.295c-0.148-0.682-0.341-1.705-0.489-2.4H36.84c-0.148,0.695-0.341,1.748-0.475,2.4l-0.519,2.295H37.862z"
         id="path11" /><path
         d="M50.145,46.936c-0.4,0.178-1.289,0.387-2.415,0.387c-3.63,0-5.349-2.535-5.349-5.705c0-4.104,2.667-6.045,5.615-6.045    c1.155,0,1.956,0.236,2.281,0.414l-0.474,2.119c-0.386-0.178-0.934-0.34-1.659-0.34c-1.645,0-3.022,1.125-3.022,3.703    c0,2.387,1.185,3.631,3.037,3.631c0.593,0,1.259-0.119,1.659-0.268L50.145,46.936z"
         id="path13" /><path
         d="M60.116,47.174h-2.964l-2.163-4.727l-0.756,1.066v3.66h-2.593V35.721h2.593v5.037h0.045    c0.207-0.459,0.43-0.904,0.651-1.363l2.001-3.674h3.081l-3.215,4.934L60.116,47.174z"
         id="path15" /></g></g></svg>