<?xml version="1.0" encoding="UTF-8"?>
<!-- Generated by phantom_svg. -->
<svg id="phantom_svg" width="64px" height="64px" xmlns="http://www.w3.org/2000/svg" xmlns:xlink="http://www.w3.org/1999/xlink" version="1.1">
  <defs>
    <!-- Images. -->
    <svg id="frame0" viewBox="0 0 64 64" preserveAspectRatio="none" xmlns="http://www.w3.org/2000/svg" xmlns:xlink="http://www.w3.org/1999/xlink" xmlns:dc="http://purl.org/dc/elements/1.1/" xmlns:cc="http://creativecommons.org/ns#" xmlns:rdf="http://www.w3.org/1999/02/22-rdf-syntax-ns#" xmlns:svg="http://www.w3.org/2000/svg" xmlns:sodipodi="http://sodipodi.sourceforge.net/DTD/sodipodi-0.dtd" xmlns:inkscape="http://www.inkscape.org/namespaces/inkscape">
      <metadata id="frame0_metadata23">
        <rdf:RDF>
          <cc:Work rdf:about=''>
            <dc:format>
               image/svg+xml 
            </dc:format>
            <dc:type rdf:resource='http://purl.org/dc/dcmitype/StillImage'/>
          </cc:Work>
        </rdf:RDF>
      </metadata>
      <defs id="frame0_defs21"/>
      <sodipodi:namedview pagecolor="#ffffff" bordercolor="#666666" borderopacity="1" objecttolerance="10" gridtolerance="10" guidetolerance="10" inkscape:pageopacity="0" inkscape:pageshadow="2" inkscape:window-width="640" inkscape:window-height="480" id="frame0_namedview19"/>
      <path style="fill:#231815;" d="M53.6511154,45.933342c0,0-2.6767769,1.0112801-18.0288353-14.0781422l9.1138496-11.4193802  c2.7725525-3.4738865,7.1736107-5.1589956,10.9559402-4.1948795l-1.3454323-1.3454332  c-3.4883156-3.4883165-9.8267555-2.5297689-13.4717636,2.0372763l-8.9525585,11.2172203  C17.0696735,13.0020905,18.066328,10.3485565,18.066328,10.3485565S7.3058167,10.9461231,28.4026699,32.5600204  l-7.3713627,9.2360649c-2.7725525,3.4738846-7.1736097,5.1589928-10.9559402,4.1948776l1.3454332,1.3454323  c3.4883165,3.4883194,9.8267565,2.5297699,13.4717646-2.0372734l7.2187366-9.0448036  C53.0754356,56.4876785,53.6511154,45.933342,53.6511154,45.933342z" id="frame0_path3"/>
      <path style="fill:#231815;" d="M61,3v58H3V3H61 M62,2H2v60h60V2L62,2z" id="frame0_path5"/>
      <g id="frame0_g7"/>
      <g id="frame0_g9"/>
      <g id="frame0_g11"/>
      <g id="frame0_g13"/>
      <g id="frame0_g15"/>
      <g id="frame0_g17"/>
    </svg>
    <!-- Animation. -->
    <symbol id="animation">
      <use xlink:href="#frame0" visibility="hidden">
        <set id="frame0_anim" attributeName="visibility" to="visible" begin="0s;frame0_anim.end" dur="0.1s"/>
      </use>
    </symbol>
  </defs>
  <!-- Main control. -->
  <animate id="controller" begin="0s" dur="0.1s" repeatCount="indefinite"/>
  <use xlink:href="#frame0">
    <set attributeName="xlink:href" to="#animation" begin="controller.begin"/>
    <set attributeName="xlink:href" to="#frame0" begin="controller.end"/>
  </use>
</svg>