<?xml version="1.0" encoding="utf-8"?>
<!-- Generator: Adobe Illustrator 15.0.2, SVG Export Plug-In . SVG Version: 6.00 Build 0)  -->
<!DOCTYPE svg PUBLIC "-//W3C//DTD SVG 1.1//EN" "http://www.w3.org/Graphics/SVG/1.1/DTD/svg11.dtd">
<svg version="1.1" xmlns="http://www.w3.org/2000/svg" xmlns:xlink="http://www.w3.org/1999/xlink" x="0px" y="0px" width="64px"
	 height="64px" viewBox="0 0 64 64" enable-background="new 0 0 64 64" xml:space="preserve">
<g id="レイヤー_1">
</g>
<g id="ここから下は新しいやつ">
	<g id="U_x2B_1F3E6">
		<polygon fill="#A7C0C6" stroke="#5D6D84" stroke-width="1.8656" stroke-miterlimit="2" points="53.664,58.737 42.502,58.737 
			42.502,6.737 53.664,15.404 		"/>
		
			<rect x="10.336" y="6.737" fill="#DDE5E8" stroke="#5D6D84" stroke-width="2" stroke-miterlimit="10" width="32.166" height="52"/>
		<rect x="18.09" y="48.167" fill="#6CBAEA" width="16.41" height="9.577"/>
		<g>
			<g>
				<path fill="#FFFFFF" d="M21.483,14.718c1.219,0.247,1.956,0.976,1.956,1.9c0,0.626-0.349,1.222-0.965,1.643
					c-0.71,0.482-1.889,0.76-3.885,0.76c-1.005,0-1.782-0.051-2.304-0.113v-7.784c0.616-0.092,1.715-0.164,2.8-0.164
					c1.232,0,2.157,0.103,2.92,0.482c0.67,0.329,1.072,0.873,1.072,1.541c0,0.688-0.482,1.355-1.594,1.705V14.718z M19.179,14.185
					c0.991,0,1.567-0.411,1.567-0.986c0-0.636-0.576-0.914-1.367-0.914c-0.362,0-0.589,0.021-0.75,0.051v1.849H19.179z
					 M18.629,17.635c0.174,0.031,0.375,0.031,0.656,0.031c0.897,0,1.688-0.329,1.688-1.099c0-0.801-0.884-1.079-1.742-1.079h-0.603
					V17.635z"/>
				<path fill="#FFFFFF" d="M31.715,18.949h-2.438l-0.603-1.849h-2.385l-0.563,1.849h-2.385l2.733-7.938h2.988L31.715,18.949z
					 M28.393,15.735l-0.456-1.592c-0.134-0.472-0.308-1.181-0.442-1.664h-0.027c-0.134,0.483-0.308,1.212-0.429,1.664l-0.469,1.592
					H28.393z"/>
				<path fill="#FFFFFF" d="M27.925,28.365h-2.345l-1.809-2.886c-0.482-0.76-1.072-1.797-1.447-2.619h-0.054
					c0.067,0.924,0.121,2.136,0.121,3.553v1.951h-2.117v-7.938h2.519l1.769,2.845c0.469,0.708,1.032,1.725,1.42,2.526h0.027
					c-0.121-0.924-0.201-2.167-0.201-3.481v-1.89h2.117V28.365z"/>
				<path fill="#FFFFFF" d="M36.684,28.365h-2.68l-1.956-3.276l-0.683,0.739v2.537H29.02v-7.938h2.345v3.491h0.04
					c0.188-0.318,0.389-0.626,0.589-0.944l1.809-2.547h2.787l-2.907,3.419L36.684,28.365z"/>
			</g>
			<g>
				<path fill="none" stroke="#2CA4DE" stroke-width="1.9743" d="M21.483,14.718c1.219,0.247,1.956,0.976,1.956,1.9
					c0,0.626-0.349,1.222-0.965,1.643c-0.71,0.482-1.889,0.76-3.885,0.76c-1.005,0-1.782-0.051-2.304-0.113v-7.784
					c0.616-0.092,1.715-0.164,2.8-0.164c1.232,0,2.157,0.103,2.92,0.482c0.67,0.329,1.072,0.873,1.072,1.541
					c0,0.688-0.482,1.355-1.594,1.705V14.718z M19.179,14.185c0.991,0,1.567-0.411,1.567-0.986c0-0.636-0.576-0.914-1.367-0.914
					c-0.362,0-0.589,0.021-0.75,0.051v1.849H19.179z M18.629,17.635c0.174,0.031,0.375,0.031,0.656,0.031
					c0.897,0,1.688-0.329,1.688-1.099c0-0.801-0.884-1.079-1.742-1.079h-0.603V17.635z"/>
				<path fill="none" stroke="#2CA4DE" stroke-width="1.9743" d="M31.715,18.949h-2.438l-0.603-1.849h-2.385l-0.563,1.849h-2.385
					l2.733-7.938h2.988L31.715,18.949z M28.393,15.735l-0.456-1.592c-0.134-0.472-0.308-1.181-0.442-1.664h-0.027
					c-0.134,0.483-0.308,1.212-0.429,1.664l-0.469,1.592H28.393z"/>
				<path fill="none" stroke="#2CA4DE" stroke-width="1.9743" d="M27.925,28.365h-2.345l-1.809-2.886
					c-0.482-0.76-1.072-1.797-1.447-2.619h-0.054c0.067,0.924,0.121,2.136,0.121,3.553v1.951h-2.117v-7.938h2.519l1.769,2.845
					c0.469,0.708,1.032,1.725,1.42,2.526h0.027c-0.121-0.924-0.201-2.167-0.201-3.481v-1.89h2.117V28.365z"/>
				<path fill="none" stroke="#2CA4DE" stroke-width="1.9743" d="M36.684,28.365h-2.68l-1.956-3.276l-0.683,0.739v2.537H29.02
					v-7.938h2.345v3.491h0.04c0.188-0.318,0.389-0.626,0.589-0.944l1.809-2.547h2.787l-2.907,3.419L36.684,28.365z"/>
			</g>
			<g>
				<path fill="#FFFFFF" d="M21.483,14.718c1.219,0.247,1.956,0.976,1.956,1.9c0,0.626-0.349,1.222-0.965,1.643
					c-0.71,0.482-1.889,0.76-3.885,0.76c-1.005,0-1.782-0.051-2.304-0.113v-7.784c0.616-0.092,1.715-0.164,2.8-0.164
					c1.232,0,2.157,0.103,2.92,0.482c0.67,0.329,1.072,0.873,1.072,1.541c0,0.688-0.482,1.355-1.594,1.705V14.718z M19.179,14.185
					c0.991,0,1.567-0.411,1.567-0.986c0-0.636-0.576-0.914-1.367-0.914c-0.362,0-0.589,0.021-0.75,0.051v1.849H19.179z
					 M18.629,17.635c0.174,0.031,0.375,0.031,0.656,0.031c0.897,0,1.688-0.329,1.688-1.099c0-0.801-0.884-1.079-1.742-1.079h-0.603
					V17.635z"/>
				<path fill="#FFFFFF" d="M31.715,18.949h-2.438l-0.603-1.849h-2.385l-0.563,1.849h-2.385l2.733-7.938h2.988L31.715,18.949z
					 M28.393,15.735l-0.456-1.592c-0.134-0.472-0.308-1.181-0.442-1.664h-0.027c-0.134,0.483-0.308,1.212-0.429,1.664l-0.469,1.592
					H28.393z"/>
				<path fill="#FFFFFF" d="M27.925,28.365h-2.345l-1.809-2.886c-0.482-0.76-1.072-1.797-1.447-2.619h-0.054
					c0.067,0.924,0.121,2.136,0.121,3.553v1.951h-2.117v-7.938h2.519l1.769,2.845c0.469,0.708,1.032,1.725,1.42,2.526h0.027
					c-0.121-0.924-0.201-2.167-0.201-3.481v-1.89h2.117V28.365z"/>
				<path fill="#FFFFFF" d="M36.684,28.365h-2.68l-1.956-3.276l-0.683,0.739v2.537H29.02v-7.938h2.345v3.491h0.04
					c0.188-0.318,0.389-0.626,0.589-0.944l1.809-2.547h2.787l-2.907,3.419L36.684,28.365z"/>
			</g>
		</g>
		<g>
			<rect x="14.43" y="35.571" fill="#6CBAEA" width="5.13" height="6.012"/>
			<rect x="20.714" y="35.571" fill="#6CBAEA" width="5.129" height="6.012"/>
			<rect x="26.998" y="35.571" fill="#6CBAEA" width="5.13" height="6.012"/>
			<rect x="33.281" y="35.571" fill="#6CBAEA" width="5.129" height="6.012"/>
		</g>
	</g>
</g>
</svg>
