<?xml version="1.0" encoding="utf-8"?>
<!-- Generator: Adobe Illustrator 15.0.2, SVG Export Plug-In . SVG Version: 6.00 Build 0)  -->
<!DOCTYPE svg PUBLIC "-//W3C//DTD SVG 1.1//EN" "http://www.w3.org/Graphics/SVG/1.1/DTD/svg11.dtd">
<svg version="1.1" id="レイヤー_1" xmlns="http://www.w3.org/2000/svg" xmlns:xlink="http://www.w3.org/1999/xlink" x="0px"
	 y="0px" width="64px" height="64px" viewBox="0 0 64 64" enable-background="new 0 0 64 64" xml:space="preserve">
<g>
	
		<rect x="2.012" y="17.39" fill="#DAC897" stroke="#000000" stroke-width="0.7304" stroke-miterlimit="10" width="59.977" height="29.221"/>
	<linearGradient id="SVGID_1_" gradientUnits="userSpaceOnUse" x1="3.8794" y1="32.0459" x2="59.8936" y2="32.0459">
		<stop  offset="0.17" style="stop-color:#BAA191"/>
		<stop  offset="0.2483" style="stop-color:#ADA093"/>
		<stop  offset="0.3549" style="stop-color:#A4A094"/>
		<stop  offset="0.5" style="stop-color:#A1A094"/>
		<stop  offset="0.6445" style="stop-color:#A4A094"/>
		<stop  offset="0.7518" style="stop-color:#ADA093"/>
		<stop  offset="0.83" style="stop-color:#BAA191"/>
	</linearGradient>
	<path fill="url(#SVGID_1_)" d="M4.066,31.867C3.64,29.31,5.317,27.04,5.675,26.146c0.358-0.894-0.805-2.681-1.162-2.86
		s-0.268-1.251-0.089-1.431C4.603,21.677,6.479,21.9,6.479,21.9l1.609-0.089L9.653,21.9c0,0,0.402,0.446,0.67,0.446
		c0.269,0,0.58-0.402,0.626-0.804c0.044-0.402,0.089-1.52,0.089-1.52c0.492,0.447,1.653,0.403,1.922,0.224
		c0.268-0.179-0.313-1.296,1.296-1.296c1.609,0,22.215,0,22.215,0h14.658c0.447,0.536,0.85,2.726,1.832,0.402
		c0,0,1.697,2.414,2.1,2.682c0.402,0.269,1.832-0.938,2.012-1.073c0.18-0.134,0.672,0.85,0.805,1.028
		c0.135,0.179,1.654,0.492,1.967,0.268c0,0.849-0.67,1.386-0.58,1.877c0.088,0.491,0.58,1.072,0.625,1.519s-0.225,0.804-0.314,1.117
		c-0.088,0.313-0.133,1.208-0.043,1.386c0.09,0.178-0.043,1.386-0.135,1.876c-0.09,0.491-0.582,2.815-0.492,3.53
		c0.09,0.716,0.18,4.246,0.047,4.693c-0.135,0.447-3.219,3.845-3.219,3.845c-0.895,0.805-2.504,1.696-3.801,2.055
		c-1.295,0.358-1.83,0.314-2.547-0.044c-0.715-0.358-1.385,0.491-3.264-0.179c-1.875-0.671-2.055,0.715-3.619,0.134
		s-2.322,0.179-2.904-0.09c-0.582-0.267-0.85,0-2.861,0.269c-2.01,0.269-1.295,0.313-4.558,0.045
		c-3.264-0.269-3.397-0.402-4.067-0.224c-0.671,0.179-8.313,0.804-8.895,0.849c-0.58,0.045-0.625,0.224-1.385,0.224
		s-1.788,0.044-3.263-0.358c-1.476-0.402-1.341,0.402-4.692,0c-3.353-0.402-4.202-0.713-5.274-1.741
		c-1.072-1.029-0.224-2.414-0.313-2.638c-0.09-0.223-0.716-1.16-0.224-1.385c-0.225-0.896-0.089-3.173,0.224-3.888
		C4.603,34.414,4.2,32.671,4.066,31.867z"/>
	<path fill="#494034" d="M33.496,21.833c2.549-1.475,7.912-1.408,10.191-0.67l1.072-1.005c-2.883-1.005-9.117-1.072-11.598,0.67
		L33.496,21.833z"/>
	<g>
		<g>
			<path fill="#A08865" d="M51.295,31.654c-0.033-0.67-0.033-2.413-0.033-2.782c0-0.368-6.402,1.944-6.402,2.481
				c0,0.536-0.125,1.003-0.133,1.207c-0.135,3.118,2.613,5.195,2.613,5.195L51.295,31.654z"/>
			<path fill="#B1986F" d="M46.803,32.861c1.41,0,4.057-1.643,4.426-2.816s0.436-2.749,0.369-3.921
				c-0.066-1.173-0.369-2.682-0.402-3.118c-0.033-0.436-0.078-2.648-1.787-3.05c-1.711-0.402-2.973-0.302-4.314,0.67
				c-1.34,0.972-1.709,2.816-1.709,3.922s0.145,2.564,0.201,3.721C43.652,29.61,44.592,32.861,46.803,32.861z"/>
			<path fill="#4D391C" d="M43.42,25.006c-0.516-0.357-0.402-1.519-0.402-2.212s0.043-1.363,1.52-2.705
				c1.475-1.34,2.77-1.653,4.043-0.826c0.805-0.537,1.699-0.625,2.771,0.604c1.072,1.229,2.146,3.352,1.096,5.162
				c-0.402-0.134-0.738,0.604-0.783,0.916c-0.736-0.312-0.783-1.899-0.938-2.704c-0.156-0.805,0.09-1.318-0.156-1.899
				s-0.66-1.018-1.564-1.341c-0.627-0.223-1.967-0.089-2.436,0.045c-0.471,0.134-1.686,0.949-1.967,1.184
				c-0.402,0.335-0.537,0.648-0.537,1.162s-0.201,0.604-0.426,0.805C43.42,23.397,43.463,24.493,43.42,25.006z"/>
			<path fill="#B1986F" d="M51.564,26.023c0.223-0.67,0.814-1.441,1.195-1.24c0.379,0.201,0.402,1.653,0.313,2.347
				c-0.088,0.693-0.633,2.234-1.592,1.408C51.637,27.353,51.676,27.051,51.564,26.023z"/>
			<path fill="none" stroke="#4D391C" stroke-width="0.2435" stroke-miterlimit="10" d="M46.658,27.867
				c-0.201-0.111-1.25-0.358-0.982-1.207c0.268-0.849,0.629-1.103,0.357-1.966c-0.135-0.424-0.559-1.028-0.826-1.162
				s-0.584-0.38-1.029-0.044c-0.445,0.335-0.514,0.469-0.537,0.558"/>
			<path fill="none" stroke="#4D391C" stroke-width="0.2435" stroke-miterlimit="10" d="M47.307,23.957
				c0.291-0.425,0.982-0.939,2.436-0.089"/>
			<path fill="none" stroke="#4D391C" stroke-width="0.2435" stroke-miterlimit="10" d="M45.453,29.588
				c0.49-0.313,1.607-0.604,2.949-0.045"/>
			<path fill="none" stroke="#4D391C" stroke-width="0.2435" stroke-miterlimit="10" d="M47.664,25.096
				c0.426-0.357,1.408-0.224,1.811,0.044"/>
			<path fill="none" stroke="#4D391C" stroke-width="0.2435" stroke-miterlimit="10" d="M45.697,25.23
				c-0.334-0.38-0.893-0.47-1.475-0.045"/>
			<circle fill="none" stroke="#4D391C" stroke-width="0.2435" stroke-miterlimit="10" cx="48.38" cy="25.118" r="0.224"/>
			<circle fill="none" stroke="#4D391C" stroke-width="0.2435" stroke-miterlimit="10" cx="44.871" cy="25.141" r="0.201"/>
			<path fill="none" stroke="#4D391C" stroke-width="0.2435" stroke-miterlimit="10" d="M47.73,27.107
				c0.27,0.179,0.961,1.051,1.006,1.14"/>
			<path fill="none" stroke="#4D391C" stroke-width="0.2435" stroke-miterlimit="10" d="M45.787,27.509
				c-0.111,0.179-0.268,0.514-0.334,0.715"/>
			<path fill="none" stroke="#4D391C" stroke-width="0.2435" stroke-miterlimit="10" d="M46.146,29.99
				c0.133-0.023,0.623-0.089,0.848,0"/>
		</g>
		<g>
			<path fill="#423027" d="M42.48,41.711c0-0.42,0.084-2.565,0.604-3.922c0.518-1.357,0.586-1.626,0.502-1.14
				s-0.051,2.313-0.033,2.916c0.016,0.603,0.016,1.978,0.033,2.246c0.016,0.268,0.27,0.586-0.52,0.486
				C42.279,42.196,42.48,42.331,42.48,41.711z"/>
			<path fill="#4C372E" d="M52.184,35.911c-0.049,0.285-0.502,2.279-0.604,2.866c-0.1,0.587-0.25,1.709-0.301,3.134l-2.162-0.066
				L52.184,35.911z"/>
			<path fill="#33261D" d="M47.09,37.169c-0.287-0.42-1.525-2.045-1.912-3.487c0.555,2.683,1.141,4.107,1.258,4.358
				C46.553,38.292,47.09,37.169,47.09,37.169z"/>
			<path fill="#3D2A22" d="M51.313,31.303c-0.08,0.302-0.15,0.787-0.654,1.458c-0.502,0.671-1.34,1.928-1.424,2.077
				c-0.084,0.152-0.688,1.275-0.855,1.543c-0.166,0.269-0.484,0.922-0.553,1.089c-0.066,0.168-0.922,1.576-1.023,1.559
				c-0.1-0.017-0.484-0.687-0.484-0.687c0.268-0.437,0.738-1.241,1.006-1.593s1.256-1.876,1.523-2.212
				c0.27-0.335,0.924-1.139,1.207-1.475c0.285-0.335,0.688-0.905,0.822-1.14S51.381,31.051,51.313,31.303z"/>
			<path fill="#3F2F22" d="M46.82,38.895c-0.512-0.845-1.643-4.459-1.859-6.805c-0.152,0.134,0.117,2.867,0.301,3.52
				c0.102,0.335,0.555,2.615,1.291,3.923L46.82,38.895z"/>
			<path fill="#544032" d="M46.787,39.648c-0.771-1.374-1.572-4.464-1.676-5.262c-0.1-0.771-0.369-1.944-0.033-2.464
				c-0.855,0.872-0.855,0.854-1.023,1.608c-0.166,0.755-0.469,2.146-0.568,3.034c-0.102,0.889-0.168,2.263-0.186,2.898
				c-0.016,0.638,0.035,2.498,0.051,2.716c0.018,0.218,3.486-0.134,3.486-0.134L46.787,39.648z"/>
			<path fill="#684F3E" d="M44.592,42.146c0.654-0.838,2.381-3.737,3.1-5.146c0.721-1.408,2.732-4.056,3.035-4.458
				c0.301-0.402,0.52-1.24,0.436-1.458c0.334,0,1.357,1.492,1.475,2.479c0.117,0.99-0.252,2.247-0.604,3.018
				c-0.352,0.771-1.324,3.653-2.883,5.598L44.592,42.146z"/>
			<path fill="#8C7357" d="M35.574,41.509c0.303-1.24,2.246-4.692,2.549-5.062c0.301-0.368,1.809-1.475,4.76-2.346
				c-0.805,0.938-2.146,5.362-2.313,7.542L35.574,41.509z"/>
			<path fill="#7F6144" d="M40.268,42.236c0.066-0.917,0.738-4.202,1.117-5.387c0.379-1.183,1.471-2.748,1.648-2.949
				s0.945-0.828,1.102-0.938c-0.096,0.603-0.314,1.802-0.682,3.872c-0.135,0.754-0.639,1.927-0.723,2.547
				c-0.082,0.62-0.199,2.715-0.184,2.866C42.564,42.397,40.268,42.236,40.268,42.236z"/>
			<path fill="#8C7357" d="M53.256,33.465c0.822,0.201,4.324,1.039,5.699,2.497c0.018,1.189-3,4.593-3.402,4.575
				c-0.402-0.017-0.535-1.525-0.586-2.514c-0.051-0.989-0.186-2.816-0.637-3.486C53.912,33.918,53.574,33.666,53.256,33.465z"/>
			<path fill="#7F6144" d="M51.865,31.789c0.436,0.151,1.072,1.156,1.391,1.576c0.318,0.419,0.957,0.553,1.275,1.425
				c0.316,0.871,0.301,1.81,0.436,2.832c0.133,1.022,0.418,3.419,0.436,3.872c0.018,0.452-0.285,0.318-1.057,0.352
				s-3.201-0.134-3.201-0.134c0.066-1.409,0.42-4.157,0.705-4.811s0.688-2.027,0.619-2.9C52.402,33.129,52.318,32.56,51.865,31.789z
				"/>
		</g>
	</g>
	<path fill="#494034" d="M58.703,36.917c0.336-2.95,0.27-6.033-1.139-8.045l1.205,0.201c0.672,1.408,1.678,3.62,0.738,8.112
		L58.703,36.917z"/>
	<linearGradient id="SVGID_2_" gradientUnits="userSpaceOnUse" x1="30.5718" y1="40.8447" x2="30.5718" y2="45.1416">
		<stop  offset="0.0813" style="stop-color:#BE9F8C"/>
		<stop  offset="0.2655" style="stop-color:#B99F88"/>
		<stop  offset="0.4818" style="stop-color:#AB9D7E"/>
		<stop  offset="0.5985" style="stop-color:#A09C76"/>
	</linearGradient>
	<path fill="url(#SVGID_2_)" d="M56.309,41.461c-0.682-0.325-2.148,0.543-2.934,0.148c-0.805-0.401-1.912,0.369-2.951-0.066
		c-0.99-0.416-0.957,0.472-1.34,0.402c-0.369-0.067-0.637-0.47-1.576-0.536c-0.938-0.067-1.576,0.838-2.246,0.637
		c-0.805-0.241-0.703-0.368-1.574-0.368c-0.873,0-1.107,0.603-1.576,0.603c-0.504,0-1.072-0.134-1.207-0.402s-0.57-0.335-1.24-0.335
		s-1.072,0.335-2.012,0.335c-0.938,0-1.004-0.67-1.676-0.737c-0.67-0.067-1.139,0.805-1.877,0.671
		c-0.736-0.134-1.006-0.402-1.475-0.47c-0.47-0.066,0,0-1.944,0.268c-1.944,0.269-1.14,0.135-2.547-0.2
		c-1.408-0.336-0.604,0-1.342,0.066c-0.737,0.067-0.871-0.134-1.608-0.2c-0.737-0.067-1.072,0-2.078,0.134s-0.671,0.2-1.207,0
		c-0.536-0.201-1.273,0-2.078,0.066c-0.805,0.067-2.614-0.402-2.883-0.402c-0.268,0-1.944,0.269-3.218,0.202
		c-1.273-0.067-1.341-0.47-2.146-0.067c-0.894,0.536-2.189-0.224-2.189-0.224s-1.162-0.313-1.699,0
		c-0.536,0.313-1.34,0.357-1.698,0.224c-0.304-0.114-1.44,0-1.914,0.282c-0.053,0.489,0.017,1.06,0.529,1.551
		c1.072,1.028,1.922,1.339,5.274,1.741c3.352,0.402,3.217-0.402,4.692,0c1.475,0.402,2.503,0.358,3.263,0.358
		s0.805-0.179,1.385-0.224c0.581-0.045,8.224-0.67,8.895-0.849c0.67-0.179,0.804-0.045,4.067,0.224
		c3.263,0.268,2.548,0.224,4.558-0.045c2.012-0.269,2.279-0.535,2.861-0.269c0.582,0.269,1.34-0.491,2.904,0.09
		s1.744-0.805,3.619-0.134c1.879,0.67,2.549-0.18,3.264,0.179c0.717,0.358,1.266,0.446,2.547,0.044
		c1.416-0.443,3.076,0.815,3.555,0.52c0.494-0.306,3.184-0.989,0.246-2.574C55.732,42.103,55.969,41.841,56.309,41.461z"/>
	<path fill="#8FAA8F" d="M10.859,25.9c0.491-0.291,1.341-0.693,2.569-0.089c0.917-0.022,1.699-0.403,2.66,1.027
		c0.805-0.044,1.586,0.448,1.698,1.386c0.804,0.29,1.542,0.669,1.051,2.435c-0.18,0.559-0.023,1.789-0.023,1.789
		c0,0.692-1.005,1.161-1.385,1.296c0.021,0.491-0.581,1.207-1.476,1.207c-0.514,1.027-1.362,1.274-2.547,0.826
		c-0.783,0.604-2.078,0.448-2.548-0.022c-0.313,0.38-2.19,0.223-2.458-0.626c-1.497-0.535-1.431-1.117-1.52-1.52
		c-1.318-0.737-1.52-1.184-1.476-1.429c0.045-0.247,0.313-1.073,0.313-1.252c0-0.178,0-1.497,0-1.497
		c-0.089-0.402,0.336-0.917,0.716-0.961c0.044-0.559,0.804-1.632,1.854-1.676C8.849,25.923,9.407,25.341,10.859,25.9z"/>
	<g>
		<path fill="#DAC897" d="M31.933,39.888c-3.745,0-6.792-3.567-6.792-7.954c0-4.385,3.047-7.953,6.792-7.953
			c3.745,0,6.791,3.568,6.791,7.953C38.724,36.32,35.678,39.888,31.933,39.888z"/>
		<path fill="#766C4B" d="M31.933,24.225c3.616,0,6.548,3.452,6.548,7.709c0,4.256-2.932,7.71-6.548,7.71s-6.548-3.454-6.548-7.71
			C25.385,27.676,28.316,24.225,31.933,24.225 M31.933,23.738c-3.879,0-7.035,3.677-7.035,8.196c0,4.52,3.156,8.198,7.035,8.198
			s7.035-3.678,7.035-8.198C38.968,27.415,35.812,23.738,31.933,23.738L31.933,23.738z"/>
	</g>
	<g>
		<polyline fill="none" stroke="#000000" stroke-width="0.4869" stroke-miterlimit="10" points="4.301,40.453 4.301,44.879 
			7.083,44.879 		"/>
		<polyline fill="none" stroke="#000000" stroke-width="0.4869" stroke-miterlimit="10" points="59.643,40.387 59.643,44.811 
			56.859,44.811 		"/>
	</g>
	<g>
		<g>
			<polygon fill="#2D1700" points="3.999,19.397 4.647,18.816 4.849,18.816 4.849,21.99 5.05,22.034 5.027,22.392 3.999,22.414 
				4.021,22.012 4.223,22.012 4.29,19.688 4.089,19.755 			"/>
			<path fill="#2D1700" d="M5.72,18.75c-0.514,0-0.625,0.647-0.625,2.011s0.312,1.699,0.692,1.699c0.38,0,0.715-0.291,0.715-1.743
				C6.502,19.264,6.379,18.75,5.72,18.75z M5.804,21.928c-0.179,0-0.157-0.536-0.157-1.363c0-0.827,0.046-1.162,0.112-1.162
				c0.179,0,0.201,0.514,0.201,1.073S5.982,21.928,5.804,21.928z"/>
			<path fill="#2D1700" d="M7.195,18.75c-0.515,0-0.626,0.647-0.626,2.011s0.313,1.699,0.692,1.699s0.715-0.291,0.715-1.743
				C7.977,19.264,7.854,18.75,7.195,18.75z M7.278,21.928c-0.179,0-0.156-0.536-0.156-1.363c0-0.827,0.045-1.162,0.111-1.162
				c0.179,0,0.201,0.514,0.201,1.073S7.457,21.928,7.278,21.928z"/>
			<path fill="#2D1700" d="M8.67,18.75c-0.514,0-0.626,0.647-0.626,2.011s0.313,1.699,0.692,1.699c0.381,0,0.716-0.291,0.716-1.743
				C9.452,19.264,9.329,18.75,8.67,18.75z M8.753,21.928c-0.179,0-0.156-0.536-0.156-1.363c0-0.827,0.045-1.162,0.112-1.162
				c0.179,0,0.201,0.514,0.201,1.073S8.932,21.928,8.753,21.928z"/>
			<path fill="#2D1700" d="M10.145,18.75c-0.514,0-0.626,0.647-0.626,2.011s0.313,1.699,0.693,1.699c0.38,0,0.715-0.291,0.715-1.743
				C10.927,19.264,10.804,18.75,10.145,18.75z M10.228,21.928c-0.178,0-0.156-0.536-0.156-1.363c0-0.827,0.045-1.162,0.112-1.162
				c0.179,0,0.201,0.514,0.201,1.073S10.406,21.928,10.228,21.928z"/>
		</g>
		<g>
			<polygon fill="#2D1700" points="52.895,19.397 53.541,18.816 53.742,18.816 53.742,21.99 53.943,22.034 53.922,22.392 
				52.895,22.414 52.916,22.012 53.117,22.012 53.184,19.688 52.984,19.755 			"/>
			<path fill="#2D1700" d="M54.615,18.75c-0.514,0-0.627,0.647-0.627,2.011s0.314,1.699,0.693,1.699
				c0.381,0,0.715-0.291,0.715-1.743C55.396,19.264,55.275,18.75,54.615,18.75z M54.697,21.928c-0.178,0-0.156-0.536-0.156-1.363
				c0-0.827,0.045-1.162,0.113-1.162c0.178,0,0.201,0.514,0.201,1.073S54.877,21.928,54.697,21.928z"/>
			<path fill="#2D1700" d="M56.09,18.75c-0.514,0-0.627,0.647-0.627,2.011s0.314,1.699,0.693,1.699c0.381,0,0.715-0.291,0.715-1.743
				C56.871,19.264,56.748,18.75,56.09,18.75z M56.174,21.928c-0.18,0-0.158-0.536-0.158-1.363c0-0.827,0.047-1.162,0.113-1.162
				c0.178,0,0.201,0.514,0.201,1.073S56.352,21.928,56.174,21.928z"/>
			<path fill="#2D1700" d="M57.564,18.75c-0.514,0-0.625,0.647-0.625,2.011s0.313,1.699,0.691,1.699
				c0.381,0,0.715-0.291,0.715-1.743C58.346,19.264,58.223,18.75,57.564,18.75z M57.648,21.928c-0.18,0-0.158-0.536-0.158-1.363
				c0-0.827,0.047-1.162,0.113-1.162c0.18,0,0.201,0.514,0.201,1.073S57.826,21.928,57.648,21.928z"/>
			<path fill="#2D1700" d="M59.039,18.75c-0.514,0-0.625,0.647-0.625,2.011s0.313,1.699,0.691,1.699
				c0.383,0,0.717-0.291,0.717-1.743C59.822,19.264,59.699,18.75,59.039,18.75z M59.123,21.928c-0.178,0-0.158-0.536-0.158-1.363
				c0-0.827,0.047-1.162,0.113-1.162c0.178,0,0.201,0.514,0.201,1.073S59.301,21.928,59.123,21.928z"/>
		</g>
	</g>
	<g>
		<g>
			<path fill="#2D1700" d="M6.904,29.481c0,0-0.067-0.291,0.245-0.291c0.313,0,0.291,0.268,0.291,0.268
				c1.335,0,1.62,0.033,1.62,0.251c0,0.218-0.587,0.118-1.643,0.118v0.386c0.988,0,1.458-0.017,1.458,0.15
				c0,0.168-0.436,0.118-1.692,0.118s-1.911,0.05-1.911-0.134s1.006-0.101,1.643-0.101l-0.017-0.436
				c-1.341,0-1.626,0.067-1.626-0.151S5.301,29.481,6.904,29.481z"/>
			<path fill="#2D1700" d="M7.217,30.732c0.318,0,1.425,0,1.476,0c0.05,0,0.419,0,0.419,0.419c0,0.419,0,1.039,0,1.24
				s-0.521,0.201-0.521-0.084s0-1.19,0-1.19H5.843c0,0.604-0.252,1.425-0.419,1.492c-0.168,0.067-0.453-0.285-0.318-0.537
				c0.134-0.251,0.234-0.536,0.234-1.056C5.34,30.666,5.307,30.732,7.217,30.732z"/>
			<path fill="none" d="M8.172,31.604"/>
			<path fill="#2D1700" d="M6.145,31.604c0-0.637,0.452-0.604,0.452-0.234c1.374,0,1.559-0.083,1.559,0.167
				c0,0.117-0.352,0.168-1.559,0.168c0,0.184-0.134,0.419,0.47,0.419s0.871-0.017,0.921-0.134c0.051-0.118,0.369-0.083,0.252,0.218
				c-0.117,0.302-0.553,0.318-0.938,0.318s-0.922-0.05-1.022-0.218S6.145,31.889,6.145,31.604z"/>
		</g>
		<path fill="#2D1700" d="M12.245,29.425c1.156,0,2.48-0.1,2.095,0.235c-0.386,0.335-0.553,0.385-0.989,0.385
			c-0.436,0-0.988,0.017-0.988,0.017v0.402c0.854,0,1.269,0.285,1.257,0.788c-0.017,0.737-0.452,1.089-0.788,1.14
			c-0.335,0.05-0.637-0.201-0.687-0.469c0.168,0.017,0.386,0.083,0.637-0.101c0.251-0.184,0.328-0.347,0.318-0.452
			c-0.017-0.185-0.402-0.469-0.553-0.503c-0.151-0.033-0.369,0-0.52,0.218c-0.151,0.218-0.688,0.787-0.989,1.039
			c-0.302,0.251-0.393,0.206-0.62,0.017c-0.402-0.335,0.051-0.269,0.302-0.503c0.251-0.235,0.721-0.687,0.871-0.922
			c0.151-0.234,0.201-0.385,0.201-0.67c-0.72,0-1.323,0-1.508,0s-0.386-0.234,0.017-0.452S11.256,29.425,12.245,29.425z"/>
		<path fill="#2D1700" d="M18.915,29.375c-0.15,0-0.586,0-1.608,0c-0.218,0-0.151,0-1.106,0s-0.821,0.05-0.821,0.419
			c0,0.218,0,0.838,0,1.508s-0.05,1.173,0.285,1.173c0.52,0,0.269-0.771,0.386-0.771s1.978,0,2.48,0
			c0,0.469-0.101,0.519,0.201,0.838c0.146,0.155,0.502-0.118,0.502-0.335s0.018-1.693,0.018-2.162
			C19.251,29.577,19.066,29.375,18.915,29.375z M16.469,31.319c-0.62,0-0.486-0.268-0.486-0.788s-0.134-0.737,0.52-0.737
			c0.553,0,0.52-0.051,0.52,0.687C17.021,31.219,17.089,31.319,16.469,31.319z M18.084,31.319c-0.62,0-0.554-0.101-0.554-0.838
			c0-0.738-0.033-0.687,0.52-0.687c0.654,0,0.52,0.218,0.52,0.737S18.704,31.319,18.084,31.319z"/>
	</g>
	<ellipse fill="#D3D3D3" cx="9.117" cy="41.476" rx="3.083" ry="2.548"/>
	<g>
		<circle fill="none" stroke="#D30000" stroke-width="0.0974" stroke-miterlimit="10" cx="21.273" cy="37.989" r="2.861"/>
		<polyline fill="none" stroke="#D30000" stroke-width="0.0974" stroke-miterlimit="10" points="19.307,36.336 19.284,37.231 
			20.514,37.275 20.491,35.979 21.116,35.979 21.184,37.634 		"/>
		<polyline fill="none" stroke="#D30000" stroke-width="0.0974" stroke-miterlimit="10" points="19.463,36.024 19.933,36.092 
			19.933,37.7 		"/>
		
			<line fill="none" stroke="#D30000" stroke-width="0.0974" stroke-miterlimit="10" x1="19.128" y1="37.723" x2="20.536" y2="37.723"/>
		<polyline fill="none" stroke="#D30000" stroke-width="0.0974" stroke-miterlimit="10" points="21.005,38.147 19.262,38.147 
			19.574,38.795 		"/>
		
			<line fill="none" stroke="#D30000" stroke-width="0.0974" stroke-miterlimit="10" x1="20.178" y1="38.795" x2="19.687" y2="38.236"/>
		
			<line fill="none" stroke="#D30000" stroke-width="0.0974" stroke-miterlimit="10" x1="20.268" y1="38.236" x2="20.938" y2="38.75"/>
		<polyline fill="none" stroke="#D30000" stroke-width="0.0974" stroke-miterlimit="10" points="19.329,39.421 21.072,39.421 
			21.095,39.019 19.217,38.952 19.396,39.979 21.072,40.069 		"/>
		
			<line fill="none" stroke="#D30000" stroke-width="0.0974" stroke-miterlimit="10" x1="20.134" y1="38.952" x2="20.134" y2="39.377"/>
		
			<line fill="none" stroke="#D30000" stroke-width="0.0974" stroke-miterlimit="10" x1="21.586" y1="38.17" x2="22.279" y2="38.103"/>
		<polyline fill="none" stroke="#D30000" stroke-width="0.0974" stroke-miterlimit="10" points="21.921,37.901 21.898,38.639 
			21.452,38.884 		"/>
		
			<line fill="none" stroke="#D30000" stroke-width="0.0974" stroke-miterlimit="10" x1="22.212" y1="38.975" x2="21.898" y2="38.639"/>
		
			<line fill="none" stroke="#D30000" stroke-width="0.0974" stroke-miterlimit="10" x1="22.793" y1="38.147" x2="23.195" y2="38.17"/>
		
			<line fill="none" stroke="#D30000" stroke-width="0.0974" stroke-miterlimit="10" x1="22.793" y1="37.834" x2="22.793" y2="40.047"/>
		
			<line fill="none" stroke="#D30000" stroke-width="0.0974" stroke-miterlimit="10" x1="21.475" y1="38.572" x2="23.128" y2="38.572"/>
		<polyline fill="none" stroke="#D30000" stroke-width="0.0974" stroke-miterlimit="10" points="22.837,39.175 23.262,39.175 
			23.218,40.002 		"/>
		
			<line fill="none" stroke="#D30000" stroke-width="0.0974" stroke-miterlimit="10" x1="22.86" y1="38.841" x2="23.15" y2="38.817"/>
		<polyline fill="none" stroke="#D30000" stroke-width="0.0974" stroke-miterlimit="10" points="21.273,39.979 21.317,39.108 
			21.765,39.086 21.787,39.979 22.122,40.047 		"/>
		<path fill="none" stroke="#D30000" stroke-width="0.0974" stroke-miterlimit="10" d="M21.81,39.488h0.269
			c0,0-0.022-0.357,0.044-0.357c0.067,0,0.357,0,0.357,0l0.022,0.736"/>
		<path fill="none" stroke="#D30000" stroke-width="0.0974" stroke-miterlimit="10" d="M21.81,35.912l-0.559,0.067l0.089,0.692
			l0.515-0.044v0.245l-0.492,0.112c0,0-0.066,0.246,0.067,0.246s0.469,0.044,0.469,0.044L21.854,37.7l-0.425,0.022"/>
		<polygon fill="none" stroke="#D30000" stroke-width="0.0974" stroke-miterlimit="10" points="22.078,35.935 22.011,36.784 
			23.195,36.695 23.172,35.979 		"/>
		
			<line fill="none" stroke="#D30000" stroke-width="0.0974" stroke-miterlimit="10" x1="22.078" y1="35.935" x2="23.195" y2="36.695"/>
		
			<line fill="none" stroke="#D30000" stroke-width="0.0974" stroke-miterlimit="10" x1="22.078" y1="36.517" x2="22.592" y2="35.979"/>
		
			<line fill="none" stroke="#D30000" stroke-width="0.0974" stroke-miterlimit="10" x1="22.458" y1="36.738" x2="23.15" y2="36.27"/>
		<polyline fill="none" stroke="#D30000" stroke-width="0.0974" stroke-miterlimit="10" points="22.301,37.455 22.032,37.477 
			22.011,37.03 22.368,37.007 22.368,36.851 22.726,36.784 22.815,36.985 23.105,37.007 23.128,37.388 22.815,37.433 		"/>
		<path fill="none" stroke="#D30000" stroke-width="0.0974" stroke-miterlimit="10" d="M22.346,37.231c0,0-0.045,0.469,0.022,0.469
			c0.066,0,0.514,0.022,0.514,0.022l-0.045-0.47"/>
	</g>
	<g>
		<linearGradient id="SVGID_3_" gradientUnits="userSpaceOnUse" x1="12.0439" y1="21.1709" x2="30.0059" y2="21.1709">
			<stop  offset="0" style="stop-color:#855946"/>
			<stop  offset="0.367" style="stop-color:#797B63"/>
			<stop  offset="0.5841" style="stop-color:#7B6E57"/>
			<stop  offset="0.6946" style="stop-color:#7D654F"/>
			<stop  offset="0.9535" style="stop-color:#6A634D"/>
			<stop  offset="1" style="stop-color:#66634C"/>
		</linearGradient>
		<path fill="url(#SVGID_3_)" d="M12.826,22.794c0.715-0.134,2.325-0.402,3.218-0.402c0.894,0,1.431,0.269,2.503,0.223
			c1.072-0.044,1.341-0.089,1.967,0c0.625,0.09,0.581,0.134,1.787,0.179c1.207,0.044,1.788-0.179,1.788-0.179
			c0.671,0.269,1.608,1.162,2.771,0.358c0.895,0.268,2.414-0.358,2.86-1.207c0.447-0.849,0.225-2.011,0.269-2.234
			c0.045-0.224-0.224-0.492-0.224-0.492H13.496c0.18,0.537-0.044,1.296-0.268,1.296s-0.895,0.581-0.715,1.251
			c0.179,0.67-0.85,1.207-0.313,1.118C12.736,22.615,12.826,22.794,12.826,22.794z"/>
		<path fill="#B38C68" d="M10.815,23.241c1.475-0.224,2.547-0.716,2.771-1.073s0.268-0.446,0.626-0.491
			c0.357-0.045,0.894-0.403,0.76,0.491c0.805-0.179,0.357-1.162-0.357-1.207c0.626-1.027,1.162-0.894,1.162-0.536
			c0.356,0.268,0.938-0.759-0.492-0.357c0-1.207,0.135-1.029-0.446-0.983c-0.582,0.044-1.028,0.759-1.073,0.938
			c-0.581-0.67-0.983-0.178-1.028,0.045c-0.044,0.223-0.044,1.251,0.224,1.341C13.005,21.855,12.29,23.33,10.815,23.241z"/>
		<path fill="#B38C68" d="M23.195,20.068c0.089-0.223,0.178-0.448,0.76-0.537c0.581-0.089,0,0-1.698-0.045
			c-0.223-0.006-0.39-0.009-0.517-0.011c-0.072-0.111-0.138-0.365-0.557-0.436c-0.536-0.089,0,0-0.268,0.447
			c-0.269,0.447,0,0-0.224-0.268c-0.225-0.268-0.491-0.134-1.162,0.045c-0.67,0.179,0,0,0.536,0.491
			c0.537,0.492,0.045,0.626,0.67,1.386c0.627,0.76,0.402,0.759,1.118,1.295c0.715,0.537,1.207,0.537,1.832,0.269v-0.269
			c0,0-0.179-0.447-0.357-0.67s-0.09-0.402-0.224-1.073C22.971,20.023,23.105,20.291,23.195,20.068z M21.81,19.532
			c-0.002,0-0.002-0.002-0.003-0.002C21.818,19.531,21.823,19.532,21.81,19.532z M23.239,22.571c0,0-0.67-0.045-0.894-0.179
			c-0.224-0.134-0.58-0.224-0.67-0.894s-0.671-0.224-0.09-0.67s0.983-0.715,0.983-0.715c-0.224,0.804-0.313,0.849-0.179,1.117
			c0.134,0.268,0.313,0.536,0.58,0.76C23.239,22.214,23.239,22.571,23.239,22.571z"/>
		<path fill="#B38C68" d="M27.844,21.453c-0.071-0.212-1.118,0-0.984-0.223c0.134-0.223,0.582-0.402,0.582-0.402h0.402l0.178-0.223
			l-0.402-0.716c0,0,0.536,0.313,0.671,0.224c0.134-0.09,1.218-0.375,1.218-0.375c-0.771,0.704-1.084,2.476-1.575,2.654
			c-0.491,0.179-0.537-0.044-0.537-0.044S28.022,21.99,27.844,21.453z"/>
		<path fill="#AEB89A" d="M26.904,22.481c0.357,0.357,1.52,0.715,1.967,0.447c0.446-0.268,0.536-0.089,0.938-0.894
			c0.401-0.804,0.224-0.715,0.447-1.207c0.223-0.491,0-0.223,0.536-0.581c0.536-0.358,0.893-0.582,0.356-0.492
			c-0.536,0.09-0.625-0.134-1.206-0.134s-0.402-0.043-0.67,0.179c-0.269,0.223-0.805,0-0.447,0.357s0.536-0.224,0.581,0.536
			s0.313,0.76-0.313,1.252c-0.626,0.491-0.76,0.446-0.983,0.491S26.904,22.481,26.904,22.481z"/>
		<path fill="#AEB89A" d="M15.966,19.956c0.402-0.57,0.804-1.106,2.514-1.072c1.709,0.033,2.548,0.804,1.709,2.145
			c-0.837,1.341-1.709,1.475-2.38,1.039c-0.67-0.436-0.804-0.771-0.904-1.039c-0.101-0.269-0.101-0.805-0.101-0.805l0.704,0.067
			l0.234,0.134l0.168-0.369l0.335,0.101c0,0,0.67,0,0.805,0c0.134,0,0.167,0.335,0.302,0.469c0.134,0.134,0.703-0.101,0.401-0.604
			c-0.301-0.502-0.904-0.637-1.407-0.637s-0.871,0.101-1.441,0.436C16.334,20.157,15.697,20.727,15.966,19.956z"/>
		<path fill="#AEB89A" d="M29.475,22.135c0.431,0.54,1.441,0.805,2.111,0.57c0.67-0.235,0.737-0.57,0.737-0.57
			s-0.47,0.235-0.57-0.101c-0.1-0.335,0.135-1.173,0.737-1.24c0.604-0.067,1.141-0.503,1.342-0.838
			c0.201-0.335,0.402-1.039-0.1-1.039c-0.504,0-0.035,0.604-0.57,0.838c-0.537,0.235-1.342,0.335-1.609,0.268
			c-0.269-0.067-0.838,0.201-1.141,0.436C30.111,20.693,29.206,21.799,29.475,22.135z"/>
		<circle fill="#9A8667" cx="25.586" cy="21.073" r="2.168"/>
	</g>
	<g>
		<rect x="39.195" y="44.761" fill="#494034" width="14.078" height="0.369"/>
		<path fill="#494034" d="M20.514,41.9c0.737-0.356,2.056-0.267,2.524,0.023c0.737-0.268,1.811-0.335,2.146,0.022
			c1.341-0.737,3.151,0.669,2.146,2.032c-0.805,0.896-1.9,1.297-2.279,1.141c-0.515,0.381-1.497,0.356-1.832-0.134
			c-0.537,0.581-2.033,0.492-2.614,0.09c-0.402,0.425-1.833,0.313-2.146,0.022c-1.319-0.09-2.392-1.319-2.392-1.319l0.089-1.005
			c0.492-0.582,1.833-1.476,2.347-0.738C19.373,41.499,19.888,41.543,20.514,41.9z"/>
		<polygon fill="#494034" points="27.396,44.561 39.174,44.561 39.99,43.745 39.42,43.175 28.647,43.175 		"/>
		<rect x="25.698" y="44.739" fill="#494034" width="3.664" height="0.446"/>
		<polygon fill="#494034" points="38.369,45.21 34.615,45.21 34.615,44.762 38.883,44.762 		"/>
		<rect x="28.603" y="42.079" fill="#494034" width="10.659" height="0.804"/>
	</g>
	<g>
		<circle fill="#605343" cx="58.928" cy="37.9" r="1.162"/>
		<path fill="#7E8470" d="M57.178,40.453c-0.703-0.703-1.643-1.592-0.318-2.146c1.109-0.463,1.275,1.073,0.906,1.945
			c0.217-0.855,0.682-2.037,1.609-1.19c0.971,0.888-0.639,1.542-1.191,1.575c0.855-0.201,1.895-0.117,1.744,0.737
			c-0.156,0.877-1.023,1.308-1.928,0.134c0.904,0.721,1.248,1.625,0.033,1.928c-1.207,0.302-1.006-1.189-0.703-1.86
			c-0.453,1.307-1.09,1.524-1.66,0.855c-0.57-0.671-0.066-1.325,1.24-1.291c-1.441-0.05-2.096-0.335-1.742-1.123
			C55.473,39.334,56.039,39.33,57.178,40.453z"/>
		<path fill="#767C5B" d="M54.928,41.476c-0.648,0.157-1.988,1.341-1.9,2.212c0.09,0.872,0.783,1.163,0.76,0.091
			c0.762,0.626,1.59,1.005,1.699,0.76c0.111-0.246,0.1-0.633-0.504-1.102S54.324,42.056,54.928,41.476z"/>
		<linearGradient id="SVGID_4_" gradientUnits="userSpaceOnUse" x1="56.1914" y1="41.6533" x2="56.1914" y2="44.5713">
			<stop  offset="0" style="stop-color:#331E08"/>
			<stop  offset="0.9149" style="stop-color:#CBA89D;stop-opacity:0.451"/>
			<stop  offset="1" style="stop-color:#D9B5AB;stop-opacity:0.4"/>
		</linearGradient>
		<path fill="url(#SVGID_4_)" d="M55.396,44.516c0.408,0,1.207,0.245,1.811-0.291c0.604-0.537,0.67-1.229,0.334-1.72
			c-0.334-0.493-1.117-0.872-1.809-0.851c-0.693,0.023-1.254,0.562-1.051,1.007c0.318,0.692,0.91-0.185,1.357,0.439
			c0.447,0.626,0.092,0.644-0.252,0.771C55.385,44.023,55.084,44.516,55.396,44.516z"/>
		<circle fill="#C59D62" cx="57.644" cy="40.852" r="1.071"/>
	</g>
	<g>
		<path fill="#AA8557" d="M58.859,24.828c0.27,0.089-1.877-0.649-2.592,0.469c-0.063,0.096,0.625,0.357,0.357,0.491
			s-1.229,1.006-1.072,1.162s0.871-0.224,1.117-0.425c-0.291,0.939-0.844,3.184,0.135,2.794c0.223-0.09,0.066-0.426,0.043-0.582
			c0.605,0.536,1.23,1.073,1.9,0.894s1.375-1.266,0.58-1.699c-0.49-0.268-0.67,0.313-0.646,0.469
			c-0.648-0.134-0.695-0.201-1.141-0.692s-0.961-0.938,0.201-1.967c-0.447,0.715-0.246,1.654,0.514,1.654s1.408-0.313,0.939-0.648
			c0.916-0.246,1.184-1.095,0.514-1.498c-0.67-0.402-0.758,0.223-0.469,0.47c0.291,0.246-0.15,0.797-0.648,0.134
			C58.523,25.767,58.682,24.962,58.859,24.828z"/>
		<path fill="#394431" d="M53.363,22.705l6.658,0.178c-0.49,1.162-1.252,2.458-3.441,1.922S53.811,23.465,53.363,22.705z"/>
		<path fill="#9DAA93" d="M59.039,24.359c-0.402,0.268-0.447,0.491-2.213,0.29c-0.623-0.071-1.229-0.67-1.676-0.76
			s-0.514,0.604-0.76,0.514c-0.414-0.15,0-0.849,0.447-0.938s1.117,0.089,1.117,0.089c-0.246-0.357,0.447-0.357,0.67-0.089
			c0.336-0.693,1.385-0.581,1.184-0.268c-0.201,0.312-0.469,0.938,0,1.094C58.279,24.448,58.66,24.426,59.039,24.359z"/>
	</g>
	<g>
		<path fill="#442F19" d="M4.2,23.274c0.904,0.05,1.71,0.436,1.978,0.57c0.269,0.134,0.704,0.134,0.805-0.201
			c0.101-0.335-0.067-0.469-0.302-0.234c-0.017-0.369,0.318-0.436,0.52-0.302c0.201,0.134,0.52,0.637,0.084,0.989
			s-1.207,0.185-1.476-0.1c-0.268-0.286-0.301-0.252-0.419-0.252c0.386,0.285,0.96,1.025,0.889,1.777
			c-0.067,0.704-0.854,1.257-1.374,1.207s-1.374-0.704-0.587-1.592c0.218,0.704,0.688,0.938,1.19,0.436
			c0.502-0.503,0.033-1.357-0.637-1.844c0.1,0.804-0.235,1.157-0.42,1.24c0-0.721,0.084-1.089-0.05-1.224
			c-0.134-0.134-0.151,0.52-0.486,0.302C3.58,23.828,3.898,23.258,4.2,23.274z"/>
		<linearGradient id="SVGID_5_" gradientUnits="userSpaceOnUse" x1="3.8022" y1="37.0957" x2="5.8315" y2="37.4535">
			<stop  offset="0" style="stop-color:#7CA185"/>
			<stop  offset="0.1253" style="stop-color:#697761"/>
			<stop  offset="0.2614" style="stop-color:#585140"/>
			<stop  offset="0.3873" style="stop-color:#4C3628"/>
			<stop  offset="0.4979" style="stop-color:#452519"/>
			<stop  offset="0.5813" style="stop-color:#421F14"/>
		</linearGradient>
		<path fill="url(#SVGID_5_)" d="M5.229,40.583c-0.671-0.561-1.297-2.66-1.387-3.331c-0.089-0.67,0.56-2.502,0.738-2.703
			s0.536-0.582,0.916-0.357c0.38,0.223-0.157,0.781-0.581,1.317s-0.671,1.274-0.604,1.609c0.246-0.715,1.214-2.513,1.766-1.653
			c0.201,0.313-0.111,0.58-0.357,0.58S4.826,35.89,4.491,37.23c0.38-0.693,0.915-0.692,1.094-0.269
			c0.18,0.425-0.021,0.85-0.49,0.938c-0.47,0.089-0.608,0.811-0.448,1.273C4.848,39.755,5.072,40.292,5.229,40.583z"/>
		<path fill="#298FAA" d="M4.485,34.034c-0.57-2.246-0.168-5.463,0.1-6.083l0.638,0.251l-0.788,0.335l1.106,0.57l-1.19,0.235
			l0.989,0.62l-1.056,0.352l0.955,0.453L4.2,31.202l1.14,0.604l-1.09,0.369l1.006,0.469l-0.889,0.553l0.771,0.352L4.485,34.034z"/>
	</g>
</g>
</svg>
