<?xml version="1.0" encoding="utf-8"?>
<!-- Generator: Adobe Illustrator 15.0.2, SVG Export Plug-In . SVG Version: 6.00 Build 0)  -->
<!DOCTYPE svg PUBLIC "-//W3C//DTD SVG 1.1//EN" "http://www.w3.org/Graphics/SVG/1.1/DTD/svg11.dtd">
<svg version="1.1" id="レイヤー_1" xmlns="http://www.w3.org/2000/svg" xmlns:xlink="http://www.w3.org/1999/xlink" x="0px"
	 y="0px" width="64px" height="64px" viewBox="0 0 64 64" enable-background="new 0 0 64 64" xml:space="preserve">
<g>
	<g>
		<g>
			
				<line fill="none" stroke="#D9DADA" stroke-width="1.0289" stroke-miterlimit="10" x1="3.088" y1="9.623" x2="60.912" y2="9.623"/>
			
				<line fill="none" stroke="#D9DADA" stroke-width="1.0289" stroke-miterlimit="10" x1="3.088" y1="15.228" x2="60.912" y2="15.228"/>
			
				<line fill="none" stroke="#D9DADA" stroke-width="1.0289" stroke-miterlimit="10" x1="3.088" y1="20.832" x2="60.912" y2="20.832"/>
			
				<line fill="none" stroke="#D9DADA" stroke-width="1.0289" stroke-miterlimit="10" x1="3.088" y1="26.436" x2="60.912" y2="26.436"/>
			
				<line fill="none" stroke="#D9DADA" stroke-width="1.0289" stroke-miterlimit="10" x1="3.088" y1="32.041" x2="60.912" y2="32.041"/>
			
				<line fill="none" stroke="#D9DADA" stroke-width="1.0289" stroke-miterlimit="10" x1="3.088" y1="37.646" x2="60.912" y2="37.646"/>
			
				<line fill="none" stroke="#D9DADA" stroke-width="1.0289" stroke-miterlimit="10" x1="3.088" y1="43.25" x2="60.912" y2="43.25"/>
			
				<line fill="none" stroke="#D9DADA" stroke-width="1.0289" stroke-miterlimit="10" x1="3.088" y1="48.854" x2="60.912" y2="48.854"/>
			
				<line fill="none" stroke="#D9DADA" stroke-width="1.0289" stroke-miterlimit="10" x1="3.088" y1="54.459" x2="60.912" y2="54.459"/>
		</g>
		<g>
			
				<rect x="3.388" y="3.592" fill="none" stroke="#D9DADA" stroke-width="1.0262" stroke-miterlimit="10" width="57.524" height="56.898"/>
			<g>
				
					<line fill="none" stroke="#D9DADA" stroke-width="1.0226" stroke-miterlimit="10" x1="9.732" y1="60.49" x2="9.731" y2="3.365"/>
				
					<line fill="none" stroke="#D9DADA" stroke-width="1.0226" stroke-miterlimit="10" x1="15.336" y1="60.49" x2="15.336" y2="3.365"/>
				
					<line fill="none" stroke="#D9DADA" stroke-width="1.0226" stroke-miterlimit="10" x1="20.941" y1="60.49" x2="20.941" y2="3.365"/>
				
					<line fill="none" stroke="#D9DADA" stroke-width="1.0226" stroke-miterlimit="10" x1="26.546" y1="60.49" x2="26.545" y2="3.365"/>
				
					<line fill="none" stroke="#D9DADA" stroke-width="1.0226" stroke-miterlimit="10" x1="32.15" y1="60.49" x2="32.15" y2="3.365"/>
				
					<line fill="none" stroke="#D9DADA" stroke-width="1.0226" stroke-miterlimit="10" x1="37.755" y1="60.49" x2="37.755" y2="3.365"/>
				
					<line fill="none" stroke="#D9DADA" stroke-width="1.0226" stroke-miterlimit="10" x1="43.359" y1="60.49" x2="43.359" y2="3.365"/>
				
					<line fill="none" stroke="#D9DADA" stroke-width="1.0226" stroke-miterlimit="10" x1="48.963" y1="60.49" x2="48.963" y2="3.365"/>
				
					<line fill="none" stroke="#D9DADA" stroke-width="1.0226" stroke-miterlimit="10" x1="54.568" y1="60.49" x2="54.568" y2="3.365"/>
			</g>
		</g>
	</g>
	<linearGradient id="SVGID_1_" gradientUnits="userSpaceOnUse" x1="11.125" y1="34.3281" x2="11.125" y2="59.9949">
		<stop  offset="0" style="stop-color:#5FB7FF"/>
		<stop  offset="1" style="stop-color:#0095FF"/>
	</linearGradient>
	<rect x="6.417" y="33.051" fill="url(#SVGID_1_)" width="9.417" height="27.584"/>
	<linearGradient id="SVGID_2_" gradientUnits="userSpaceOnUse" x1="25.606" y1="19.7056" x2="25.606" y2="59.6401">
		<stop  offset="0" style="stop-color:#5FB7FF"/>
		<stop  offset="1" style="stop-color:#0095FF"/>
	</linearGradient>
	<rect x="20.897" y="17.718" fill="url(#SVGID_2_)" width="9.417" height="42.917"/>
	<linearGradient id="SVGID_3_" gradientUnits="userSpaceOnUse" x1="40.0869" y1="25.666" x2="40.0869" y2="59.785">
		<stop  offset="0" style="stop-color:#5FB7FF"/>
		<stop  offset="1" style="stop-color:#0095FF"/>
	</linearGradient>
	<rect x="35.379" y="23.968" fill="url(#SVGID_3_)" width="9.416" height="36.667"/>
	<linearGradient id="SVGID_4_" gradientUnits="userSpaceOnUse" x1="54.5684" y1="14.3013" x2="54.5684" y2="59.5085">
		<stop  offset="0" style="stop-color:#5FB7FF"/>
		<stop  offset="1" style="stop-color:#0095FF"/>
	</linearGradient>
	<rect x="49.859" y="12.051" fill="url(#SVGID_4_)" width="9.417" height="48.583"/>
</g>
</svg>
