<?xml version="1.0" encoding="utf-8"?>
<!-- Generator: Adobe Illustrator 15.0.2, SVG Export Plug-In . SVG Version: 6.00 Build 0)  -->
<!DOCTYPE svg PUBLIC "-//W3C//DTD SVG 1.1//EN" "http://www.w3.org/Graphics/SVG/1.1/DTD/svg11.dtd">
<svg version="1.1" id="レイヤー_1" xmlns="http://www.w3.org/2000/svg" xmlns:xlink="http://www.w3.org/1999/xlink" x="0px"
	 y="0px" width="64px" height="64px" viewBox="0 0 64 64" enable-background="new 0 0 64 64" xml:space="preserve">
<g>
	<g>
		<circle fill="none" stroke="#A0A0A0" stroke-width="0.8875" stroke-miterlimit="10" cx="31.81" cy="9.876" r="8.116"/>
		<linearGradient id="SVGID_1_" gradientUnits="userSpaceOnUse" x1="29.229" y1="6.5161" x2="38.5478" y2="18.6451">
			<stop  offset="0" style="stop-color:#FFFFFF"/>
			<stop  offset="1" style="stop-color:#818181"/>
		</linearGradient>
		<circle fill="url(#SVGID_1_)" cx="31.81" cy="9.876" r="8.116"/>
	</g>
	<g>
		<linearGradient id="SVGID_2_" gradientUnits="userSpaceOnUse" x1="27.2373" y1="35.9727" x2="37.3076" y2="35.9727">
			<stop  offset="0" style="stop-color:#FFFFFF"/>
			<stop  offset="0.0901" style="stop-color:#F9F9F9"/>
			<stop  offset="0.2154" style="stop-color:#E7E7E7"/>
			<stop  offset="0.3613" style="stop-color:#C9C9C9"/>
			<stop  offset="0.5152" style="stop-color:#A2A2A2"/>
			<stop  offset="1" style="stop-color:#FFFFFF"/>
		</linearGradient>
		
			<rect x="25.267" y="16.526" fill="url(#SVGID_2_)" stroke="#A2CDDD" stroke-width="0.8875" stroke-miterlimit="10" width="13.468" height="38.892"/>
		<g>
			<defs>
				<rect id="SVGID_3_" x="25.267" y="16.526" width="13.468" height="38.892"/>
			</defs>
			<clipPath id="SVGID_4_">
				<use xlink:href="#SVGID_3_"  overflow="visible"/>
			</clipPath>
			<rect x="25.267" y="16.526" clip-path="url(#SVGID_4_)" fill="none" width="13.468" height="38.892"/>
			<g clip-path="url(#SVGID_4_)">
				<path fill="#0D5EFF" d="M25.267,30.075c4.442-0.877,9.025-2.711,13.468-5.502c0-1.569,0-3.137,0-4.706
					c-4.442,2.822-9.026,4.687-13.468,5.595C25.267,26.999,25.267,28.537,25.267,30.075z"/>
			</g>
			<g clip-path="url(#SVGID_4_)">
				<path fill="#E30012" d="M25.267,18.223c0,1.538,0,3.076,0,4.613c4.442-0.876,9.025-2.71,13.468-5.501c0-1.569,0-3.138,0-4.707
					C34.292,15.45,29.708,17.315,25.267,18.223z"/>
			</g>
			<g clip-path="url(#SVGID_4_)">
				<path fill="#E30012" d="M25.267,37.313c4.442-0.877,9.025-2.711,13.468-5.501c0-1.569,0-3.138,0-4.707
					c-4.442,2.822-9.026,4.687-13.468,5.595C25.267,34.236,25.267,35.774,25.267,37.313z"/>
			</g>
			<g clip-path="url(#SVGID_4_)">
				<path fill="#0D5EFF" d="M25.267,44.551c4.442-0.877,9.025-2.71,13.468-5.501c0-1.569,0-3.139,0-4.708
					c-4.442,2.822-9.026,4.687-13.468,5.595C25.267,41.475,25.267,43.013,25.267,44.551z"/>
			</g>
			<g clip-path="url(#SVGID_4_)">
				<path fill="#E30012" d="M25.267,51.789c4.442-0.877,9.025-2.712,13.468-5.503c0-1.567,0-3.136,0-4.704
					c-4.442,2.82-9.026,4.685-13.468,5.591C25.267,48.712,25.267,50.25,25.267,51.789z"/>
			</g>
			<g clip-path="url(#SVGID_4_)">
				<path fill="#0D5EFF" d="M25.267,59.025c4.442-0.877,9.025-2.71,13.468-5.501c0-1.568,0-3.138,0-4.706
					c-4.442,2.821-9.026,4.686-13.468,5.593C25.267,55.949,25.267,57.487,25.267,59.025z"/>
			</g>
		</g>
		<linearGradient id="SVGID_5_" gradientUnits="userSpaceOnUse" x1="27.3452" y1="30.3228" x2="27.3452" y2="53.5385">
			<stop  offset="0" style="stop-color:#FFFFFF"/>
			<stop  offset="1" style="stop-color:#FFFFFF;stop-opacity:0"/>
		</linearGradient>
		<rect x="26.263" y="16.888" fill="url(#SVGID_5_)" width="2.165" height="37.497"/>
		<linearGradient id="SVGID_6_" gradientUnits="userSpaceOnUse" x1="24.5313" y1="35.9727" x2="39.3622" y2="35.9727">
			<stop  offset="0" style="stop-color:#FFFFFF"/>
			<stop  offset="0.0739" style="stop-color:#FFFFFF;stop-opacity:0.8532"/>
			<stop  offset="0.503" style="stop-color:#FFFFFF;stop-opacity:0"/>
			<stop  offset="0.9269" style="stop-color:#FFFFFF;stop-opacity:0.8529"/>
			<stop  offset="1" style="stop-color:#FFFFFF"/>
		</linearGradient>
		<rect x="25.267" y="16.526" fill="url(#SVGID_6_)" width="13.468" height="38.892"/>
		<linearGradient id="SVGID_7_" gradientUnits="userSpaceOnUse" x1="36.5469" y1="54.1797" x2="36.5469" y2="35.6363">
			<stop  offset="0" style="stop-color:#FFFFFF"/>
			<stop  offset="1" style="stop-color:#FFFFFF;stop-opacity:0"/>
		</linearGradient>
		<rect x="36.006" y="31.785" fill="url(#SVGID_7_)" width="1.082" height="23.479"/>
	</g>
	<g>
		<polygon fill="none" stroke="#A0A0A0" stroke-width="0.8875" stroke-miterlimit="10" points="41.373,56.893 22.504,56.893 
			20.592,62.24 43.408,62.24 		"/>
		<polygon fill="none" stroke="#A0A0A0" stroke-width="0.8875" stroke-miterlimit="10" points="38.627,55.418 24.85,55.418 
			24.015,56.941 39.986,56.941 		"/>
		<polygon fill="none" stroke="#A0A0A0" stroke-width="0.8875" stroke-miterlimit="10" points="38.041,15.003 25.482,15.003 
			24.722,16.526 39.279,16.526 		"/>
	</g>
	<linearGradient id="SVGID_8_" gradientUnits="userSpaceOnUse" x1="25.293" y1="55.6455" x2="36.7141" y2="63.5175">
		<stop  offset="0.0606" style="stop-color:#E1E1E1"/>
		<stop  offset="0.0743" style="stop-color:#DBDBDB"/>
		<stop  offset="0.0934" style="stop-color:#C9C9C9"/>
		<stop  offset="0.1156" style="stop-color:#ABABAB"/>
		<stop  offset="0.1403" style="stop-color:#828282"/>
		<stop  offset="0.1669" style="stop-color:#4D4D4D"/>
		<stop  offset="0.1947" style="stop-color:#0D0D0D"/>
		<stop  offset="0.2" style="stop-color:#000000"/>
		<stop  offset="1" style="stop-color:#C9C9C9"/>
	</linearGradient>
	<polygon fill="url(#SVGID_8_)" points="41.373,56.893 22.504,56.893 20.592,62.24 43.408,62.24 	"/>
	<linearGradient id="SVGID_9_" gradientUnits="userSpaceOnUse" x1="28.7822" y1="54.4873" x2="37.2803" y2="60.1519">
		<stop  offset="0" style="stop-color:#E1E1E1"/>
		<stop  offset="0.0973" style="stop-color:#DFDFDF"/>
		<stop  offset="0.1323" style="stop-color:#D8D8D8"/>
		<stop  offset="0.1573" style="stop-color:#CDCDCD"/>
		<stop  offset="0.1775" style="stop-color:#BCBCBC"/>
		<stop  offset="0.1948" style="stop-color:#A6A6A6"/>
		<stop  offset="0.2101" style="stop-color:#8A8A8A"/>
		<stop  offset="0.224" style="stop-color:#6A6A6A"/>
		<stop  offset="0.2367" style="stop-color:#444444"/>
		<stop  offset="0.248" style="stop-color:#1B1B1B"/>
		<stop  offset="0.2545" style="stop-color:#000000"/>
		<stop  offset="1" style="stop-color:#C9C9C9"/>
	</linearGradient>
	<polygon fill="url(#SVGID_9_)" points="38.627,55.418 24.85,55.418 24.015,56.941 39.986,56.941 	"/>
	<linearGradient id="SVGID_10_" gradientUnits="userSpaceOnUse" x1="29.0483" y1="14.21" x2="36.8419" y2="19.4049">
		<stop  offset="0" style="stop-color:#E1E1E1"/>
		<stop  offset="0.0973" style="stop-color:#DFDFDF"/>
		<stop  offset="0.1323" style="stop-color:#D8D8D8"/>
		<stop  offset="0.1573" style="stop-color:#CDCDCD"/>
		<stop  offset="0.1775" style="stop-color:#BCBCBC"/>
		<stop  offset="0.1948" style="stop-color:#A6A6A6"/>
		<stop  offset="0.2101" style="stop-color:#8A8A8A"/>
		<stop  offset="0.224" style="stop-color:#6A6A6A"/>
		<stop  offset="0.2367" style="stop-color:#444444"/>
		<stop  offset="0.248" style="stop-color:#1B1B1B"/>
		<stop  offset="0.2545" style="stop-color:#000000"/>
		<stop  offset="1" style="stop-color:#C9C9C9"/>
	</linearGradient>
	<polygon fill="url(#SVGID_10_)" points="38.041,15.003 25.482,15.003 24.722,16.526 39.279,16.526 	"/>
</g>
</svg>
