<?xml version="1.0" encoding="UTF-8"?>
<!-- Generated by phantom_svg. -->
<svg width="64px" height="64px" viewBox="0 0 64 64" preserveAspectRatio="none" xmlns="http://www.w3.org/2000/svg" xmlns:xlink="http://www.w3.org/1999/xlink" version="1.1">
  <path style="fill:#717071;" d="M32.0014648,51.9785156l-0.0449219-0.0009766
	c-0.5185547-0.0214844-0.9296875-0.4121094-0.9560547-0.9072266l-0.0185547-0.3808594
	c-0.8046875-0.5214844-2.2368164-1.2783203-3.9394531-1.4189453c-1.5566406-0.1279297-2.609375-0.8242188-3.277832-1.5
	c-0.2749023,0.1523438-0.5551758,0.2978516-0.8359375,0.4433594c0.0522461,0.3916016-0.1489258,0.7724609-0.5146484,0.9638672
	c-0.4628906,0.2431641-1.0800781,0.0771484-1.347168-0.3466797c-0.1513672-0.2382813-0.2739258-0.4892578-0.3847656-0.7441406
	c-0.2070313-0.4726563-0.0073242-1.0166016,0.465332-1.2636719c0.2026367-0.1064453,0.3491211-0.2236328,0.4970703-0.3388672
	c0.1049805-0.0820313,0.2182617-0.1708984,0.347168-0.2578125l-0.4165039-2.8105469
	c-3.9287109-8.4882813-8.6103516-10.1132813-10.371582-10.4204102c-0.2368164,0.253418-0.6162109,0.3745117-0.972168,0.2924805
	c-0.2675781-0.0605469-0.4995117-0.2255859-0.6362305-0.453125c-0.1308594-0.2182617-0.1665039-0.472168-0.1000977-0.715332
	c0.0458984-0.1669922,0.0859375-0.3354492,0.1254883-0.5039063c-1.2866211-4.8769531-4.6503906-5.746582-6.2436523-5.8764648
	l-0.1210938,0.1049805C2.8706055,26.1982422,2.2514648,26.1967773,1.875,25.8637695
	c-0.199707-0.1757813-0.3168945-0.4267578-0.3203125-0.6870117c-0.0039063-0.2602539,0.1054688-0.5131836,0.2998047-0.6948242
	c0.1079102-0.1005859,0.21875-0.1962891,0.3295898-0.2919922l0.1166992-0.1020508
	c1.4501953-5.4389648,0.2148438-9.3754883-0.3837891-10.8149414c-0.5224609-0.0473633-0.9077148-0.4335938-0.9238281-0.918457
	c-0.0087891-0.246582,0.081543-0.4838867,0.2543945-0.6674805c0.1821289-0.1938477,0.4428711-0.309082,0.7158203-0.3164063
	l1.8208008-0.0512695c0.2246094,0.0063477,0.434082,0.0083008,0.6572266,0.0107422
	c0.4448242,0.0043945,0.9414063,0.0097656,1.4819336,0.0463867c0.7382813,0.0332031,1.6337891,0.1098633,2.7255859,0.2348633
	c1.1787109,0.1552734,2.2255859,0.3320313,3.2094727,0.5410156c1.2788086,0.2783203,2.4238281,0.5830078,3.5039063,0.9321289
	c1.4760742,0.4892578,2.5947266,0.9506836,3.6313477,1.4970703l0.253418,0.1455078
	c0.2285156,0.128418,0.4506836,0.2548828,0.7280273,0.4677734l0.6904297,0.6494141l0.1044922,0.175293
	c0.097168,0.1723633,0.128418,0.2856445,0.1508789,0.3686523l0.0356445,0.1235352
	c0.1513672,0.7060547,0.1391602,1.2680664,0.1279297,1.8120117l-0.0048828,0.2514648
	c-0.0917969,2.0097656-0.324707,3.9331055-0.550293,5.7924805l-0.171875,1.4316406
	c-0.1245117,1.034668-0.2451172,2.034668-0.3349609,2.9755859c-0.0454102,0.4853516-0.0864258,0.9609375-0.0961914,1.3911133
	c-0.0043945,0.0664063-0.003418,0.1328125-0.0009766,0.1914063c0.4990234,0.3530273,1.1923828,0.7036133,1.8745117,1.0283203
	c-0.4345703-2.3051758-0.4697266-6.9423828,0.3256836-8.5776367c0.2094727-0.4301758,0.4858398-0.6870117,0.8227539-0.7631836
	c1.6977539-0.3867188,4.5483398,2.0219727,5.2817383,3.5693359c0.078125,0.1645508,0.1533203,0.3422852,0.2250977,0.5288086
	c2.1796875-0.5229492,4.9130859-0.5219727,7.0898438,0c0.0722656-0.1870117,0.1474609-0.3647461,0.2255859-0.5292969
	c0.7324219-1.546875,3.5820313-3.9555664,5.28125-3.5688477c0.3369141,0.0761719,0.6132813,0.3330078,0.8222656,0.7626953
	c0.7958984,1.6352539,0.7607422,6.2734375,0.3261719,8.5776367c0.6679688-0.3178711,1.3496094-0.6621094,1.875-1.0302734
	c0.0019531-0.0561523,0.0029297-0.1157227-0.0009766-0.1645508c-0.0107422-0.4550781-0.0517578-0.9311523-0.0966797-1.4169922
	c-0.0898438-0.9384766-0.2099609-1.9375-0.3349609-2.9711914l-0.171875-1.4321289
	c-0.2255859-1.8603516-0.4589844-3.7841797-0.5488281-5.7792969l-0.0058594-0.2573242
	c-0.0117188-0.5463867-0.0244141-1.1118164,0.1269531-1.8217773l0.0361328-0.1235352
	c0.0224609-0.0830078,0.0537109-0.1962891,0.1484375-0.3647461l0.3447266-0.4467773l0.4550781-0.3833008
	c0.2744141-0.2114258,0.4970703-0.3378906,0.7255859-0.4663086l0.2314453-0.1328125
	c1.0595703-0.5595703,2.1787109-1.0209961,3.6503906-1.5087891c1.0830078-0.3500977,2.2285156-0.6547852,3.5048828-0.9326172
	c0.9863281-0.2099609,2.0332031-0.3867188,3.2021484-0.5405273c1.1015625-0.1259766,1.9970703-0.2026367,2.7460938-0.2363281
	c0.5292969-0.0361328,1.0263672-0.0415039,1.4707031-0.0458984c0.2226563-0.0024414,0.4326172-0.0043945,0.6279297-0.0102539
	l1.8515625,0.0507813c0.2705078,0.0073242,0.53125,0.1220703,0.7128906,0.3149414
	c0.1728516,0.1835938,0.2646484,0.4208984,0.2568359,0.6679688c-0.0175781,0.4956055-0.4189453,0.8876953-0.9257813,0.921875
	c-0.5996094,1.440918-1.8330078,5.375-0.3828125,10.8125l0.1083984,0.0947266
	c0.1142578,0.0986328,0.2285156,0.1967773,0.3388672,0.300293c0.1933594,0.1806641,0.3027344,0.434082,0.2988281,0.6943359
	S62.3242188,25.6879883,62.125,25.8642578c-0.3759766,0.3310547-1.0039063,0.3261719-1.3720703-0.0126953l-0.1298828-0.1123047
	c-1.5927734,0.1298828-4.9570313,0.9995117-6.2441406,5.8764648c0.0400391,0.168457,0.0800781,0.3359375,0.1259766,0.5029297
	c0.0664063,0.2441406,0.03125,0.4980469-0.0996094,0.7163086c-0.1367188,0.2275391-0.3691406,0.3925781-0.6367188,0.453125
	c-0.3583984,0.0820313-0.7402344-0.0410156-0.9755859-0.2919922c-1.7636719,0.3085938-6.4423828,1.9375-10.3671875,10.4199219
	l-0.4169922,2.8105469c0.1289063,0.0869141,0.2421875,0.1748047,0.3466797,0.2578125
	c0.1474609,0.1152344,0.2949219,0.2324219,0.4873047,0.3330078c0.4814453,0.2529297,0.6816406,0.7958984,0.4746094,1.2705078
	c-0.1103516,0.2539063-0.2324219,0.5039063-0.3837891,0.7441406c-0.2685547,0.4228516-0.8896484,0.5849609-1.3457031,0.3466797
	c-0.3671875-0.1914063-0.5683594-0.5732422-0.5166016-0.9648438c-0.2802734-0.1445313-0.5605469-0.2910156-0.8359375-0.4433594
	c-0.6689453,0.6757813-1.7216797,1.3720703-3.2773438,1.5c-1.7041016,0.140625-3.1357422,0.8974609-3.9404297,1.4189453
	l-0.0180664,0.3789063C32.9746094,51.578125,32.5361328,51.9785156,32.0014648,51.9785156z M23.7783203,46.2890625
	l0.4316406,0.4824219c0.5063477,0.6181641,1.4233398,1.3798828,2.9145508,1.5029297
	c2.0883789,0.171875,3.7958984,1.1552734,4.6274414,1.7265625l0.2045898,0.1396484l0.0429688,0.8789063l0.0019531-0.0410156
	c0.0117188,0,0.0170898-0.0039063,0.0175781-0.0039063l0.0244141-0.8330078l0.2041016-0.140625
	c0.831543-0.5712891,2.5385742-1.5546875,4.628418-1.7265625c1.4902344-0.1230469,2.4072266-0.8847656,2.9140625-1.5029297
	l0.4179688-0.5087891l0.3779297,0.5390625c0.3544922,0.2197266,0.703125,0.3994141,1.0527344,0.5800781l0.6191406,0.3203125
	l-0.1552734,0.5146484c-0.0146484,0.0439453-0.03125,0.0869141-0.0400391,0.1328125
	c0.1494141-0.2480469,0.2480469-0.453125,0.3378906-0.6611328c-0.2841797-0.1220703-0.484375-0.2783203-0.6611328-0.4169922
	c-0.1679688-0.1318359-0.3134766-0.2451172-0.5009766-0.3398438l-0.3212891-0.1630859L41.4873047,43.0625
	c4.2910156-9.3203125,9.4746094-10.8710938,11.5039063-11.1054688l0.4296875-0.0498047
	c-0.0068359-0.0263672-0.0126953-0.0527344-0.0185547-0.0791016l-0.0527344-0.2216797l0.0302734-0.1191406
	c1.4814453-5.8398438,5.6611328-6.6723633,7.3886719-6.7597656l0.1357422-0.0068359L60.8125,24.6386719l-0.0390625-0.1416016
	C59.1035156,18.4052734,60.5849609,14.125,61.2998047,12.5678711l0.0976563-0.2128906l-1.2089844-0.0356445
	c-0.171875,0.0063477-0.3886719,0.0083008-0.6201172,0.0107422c-0.4267578,0.0043945-0.9042969,0.0087891-1.4238281,0.0444336
	c-0.7382813,0.0332031-1.6113281,0.1079102-2.6806641,0.2299805c-1.1347656,0.1499023-2.1552734,0.3222656-3.1132813,0.5263672
	c-1.2421875,0.2700195-2.3564453,0.565918-3.4052734,0.9047852c-1.4130859,0.46875-2.4853516,0.9101563-3.4716797,1.4306641
	l-0.2304688,0.1323242c-0.1904297,0.1074219-0.3769531,0.2109375-0.6083984,0.3891602l-0.4570313,0.3925781l-0.0820313,0.1391602
	c-0.03125,0.0561523-0.0371094,0.0766602-0.0517578,0.1318359l-0.0400391,0.1303711
	c-0.1103516,0.5351563-0.0996094,1.0180664-0.0878906,1.5292969l0.0048828,0.2495117
	c0.0888672,1.9423828,0.3193359,3.847168,0.5429688,5.6889648l0.171875,1.4331055
	c0.1259766,1.0419922,0.2470703,2.0493164,0.3378906,2.9970703c0.046875,0.512207,0.0898438,1.0117188,0.0996094,1.4633789
	c0.0029297,0.0380859,0.0039063,0.0878906,0.0029297,0.1411133l0.1601563,0.0800781l-0.1875,0.3901367l-0.1230469,0.4316406
	l-0.1611328-0.0356445l-0.1416016,0.1743164l-0.0654297-0.0605469l-0.1640625,0.1411133l-0.0224609-0.0488281
	c-0.5947266,0.3798828-1.2490234,0.6987305-1.8339844,0.9755859c-0.3300781,0.1547852-0.6386719,0.293457-0.9326172,0.4223633
	l-1.2558594,0.5522461l0.65625-1.3188477c0.7734375-1.6313477,0.6289063-8.5102539-0.1884766-8.9726563
	C40.7714844,23.0068359,40.7041016,23,40.6328125,23c-1.2158203,0-3.3642578,1.7856445-3.9589844,3.0424805
	c-0.1230469,0.2583008-0.2353516,0.5527344-0.3417969,0.8608398l-0.1533203,0.4467773l-0.4541016-0.1274414
	c-2.2392578-0.6269531-5.2080078-0.6269531-7.449707,0l-0.4555664,0.1274414l-0.1523438-0.4477539
	c-0.1049805-0.3081055-0.21875-0.6025391-0.340332-0.859375C26.7304688,24.7856445,24.5825195,23,23.3671875,23
	c-0.0717773,0-0.1386719,0.0068359-0.1982422,0.0205078c-0.8037109,0.4570313-0.9477539,7.3354492-0.1733398,8.9702148
	l0.0498047,0.0854492l0.6064453,1.2314453l-1.2568359-0.5532227c-0.2924805-0.1289063-0.6020508-0.2675781-0.9306641-0.4208984
	c-0.6337891-0.300293-1.2856445-0.6235352-1.8442383-0.9799805l-0.0214844,0.0449219l-0.1484375-0.1274414l-0.0473633,0.0458984
	l-0.0180664-0.0205078l-0.1948242,0.1708984l-0.237793-0.7133789l0.4379883-0.1621094l-0.4570313-0.0263672
	c-0.0083008-0.1899414-0.0136719-0.3359375-0.0053711-0.4472656c0.0092773-0.4272461,0.0512695-0.9272461,0.0996094-1.4375
	c0.090332-0.9492188,0.2114258-1.9580078,0.3374023-3.0009766l0.171875-1.4321289
	c0.2231445-1.8413086,0.4541016-3.7456055,0.543457-5.7021484l0.0043945-0.2431641
	c0.0107422-0.5087891,0.0209961-0.9892578-0.1054688-1.581543l-0.0224609-0.0693359
	c-0.0151367-0.0551758-0.0209961-0.0756836-0.0546875-0.1357422l-0.1645508-0.2163086l-0.3696289-0.3100586
	c-0.2333984-0.1796875-0.4204102-0.2836914-0.6113281-0.3911133l-0.2519531-0.1445313
	c-0.9628906-0.5068359-2.0351563-0.9487305-3.453125-1.4189453c-1.0449219-0.3374023-2.1591797-0.6337891-3.4033203-0.9042969
	c-0.9555664-0.2036133-1.9775391-0.3759766-3.1210938-0.5268555C7.4663086,12.4824219,6.59375,12.4077148,5.8666992,12.375
	c-0.5307617-0.0361328-1.0078125-0.0405273-1.4350586-0.0449219c-0.230957-0.0024414-0.4482422-0.0043945-0.6499023-0.0112305
	l-1.1796875,0.0341797l0.0986328,0.2148438c0.7138672,1.5581055,2.1943359,5.8388672,0.5258789,11.9291992L3.1875,24.6381836
	l-0.0917969,0.0825195l0.1352539,0.0068359c1.7285156,0.0874023,5.9082031,0.9199219,7.3896484,6.7597656l0.0297852,0.1191406
	l-0.0512695,0.2172852c-0.0444336,0.1870117-0.0883789,0.3740234-0.1391602,0.5595703l0.1171875-0.40625l0.4311523-0.0200195
	c2.0297852,0.234375,7.2133789,1.7851563,11.5048828,11.1054688l0.0405273,0.1357422l0.5292969,3.5703125l-0.3212891,0.1630859
	c-0.1875,0.0947266-0.3330078,0.2089844-0.5014648,0.3398438c-0.1762695,0.1386719-0.3764648,0.2949219-0.6376953,0.4316406
	c0.0668945,0.1933594,0.1650391,0.3974609,0.2895508,0.59375c0.0126953,0.0078125,0.0009766-0.0351563-0.0136719-0.078125
	l-0.15625-0.5166016l0.612793-0.3173828c0.3510742-0.1816406,0.7021484-0.3623047,1.0454102-0.5566406L23.7783203,46.2890625z"/>
  <g>
    <radialGradient id='SVGID_1_' cx='32' cy='25.9999695' r='31.1671124' gradientTransform='matrix(1 0 0 0.9083807 0 1.0828786)' gradientUnits='userSpaceOnUse'>
      <stop offset='0' style='stop-color:#C6C7C8'/>
      <stop offset='1' style='stop-color:#868686'/>
    </radialGradient>
    <path style='fill:url(#SVGID_1_);' d='M62,12.2862225c-20.25,0.3785105-18.916687,5.8287945-17.166687,12.2631397
		S44,31.6649933,41.416687,33.027565c-1.8804321,0.9918785-16.9529419,0.9918785-18.833374,0
		C20,31.6649933,17.416687,30.9837074,19.166687,24.5493622S22.25,12.6647329,2,12.2862225c0,0,3,5.0718307,0.5,12.9444256
		c0,0,6.333374-0.6812859,7.833374,7.1913681c0,0,7.666626-0.5299263,12.999939,13.9284859c0,0,1,2.1952705,3.75,2.4223671
		c2.75,0.2270927,4.833374,1.9681206,4.833374,1.9681206h0.166626c0,0,2.083374-1.7410278,4.833374-1.9681206
		c2.75-0.2270966,3.75-2.4223671,3.75-2.4223671c5.333313-14.4584122,13-13.9284859,13-13.9284859
		c1.5-7.872654,7.833313-7.1913681,7.833313-7.1913681C59,17.3580532,62,12.2862225,62,12.2862225z'/>
    <path style='fill:#3E3A39;' d='M31,40.8245354l0.5,10.2192841c0.012146,0.2319756,0.2172852,0.4234772,0.4777832,0.4340096
		c0.276123,0.0111427,0.5099487-0.1831856,0.5222168-0.4340096L33,40.8245354H31z'/>
    <path style='fill:#3E3A39;' d='M41.8868904,41.1930199l-0.0651093-0.0515938l-5.4947128-4.357605l-1.480587,1.6672478
		l5.495575,3.7159195l-0.2664413,4.5963669l-0.0010414,0.0152893c-0.0104637,0.1888618,0.0892181,0.3771057,0.2783775,0.484272
		c0.4286156,0.2427559,0.8695831,0.4660416,1.3079491,0.6935005c-0.02882,0.098484-0.0681076,0.1934242-0.0889587,0.2945671
		c-0.038044,0.1868896,0.0542831,0.3841362,0.2460098,0.4841309c0.2429466,0.1266899,0.5529099,0.0505142,0.692379-0.1701736
		c0.138031-0.2184334,0.2485352-0.4461212,0.3491783-0.6771393c0.0998383-0.2285042,0.0028572-0.4950676-0.2385712-0.6215553
		l-0.0109444-0.0056839c-0.4509506-0.2362556-0.6913376-0.5443306-1.1456184-0.7754631l0.6850243-4.6196213
		C42.1947403,41.6238937,42.1049767,41.366024,41.8868904,41.1930199z'/>
    <path style='fill:#3E3A39;' d='M62.0234375,11.8703995c0,0-0.6623535-0.0185738-1.8215332-0.0510635
		c-0.5790405,0.018795-1.2852783,0.0010538-2.0911865,0.0561638c-0.8078613,0.0362043-1.7149658,0.119813-2.703125,0.232584
		c-0.9852295,0.1299038-2.0490723,0.296566-3.1618042,0.533474c-1.111145,0.241622-2.2738647,0.5372448-3.4541016,0.9186382
		c-1.1781006,0.3906527-2.3756104,0.8435125-3.5518188,1.4638653c-0.3048096,0.1815214-0.5599365,0.2981186-0.9102173,0.5674057
		l-0.2441406,0.1854019l-0.1688232,0.1615057l-0.0834351,0.0804491l-0.0592041,0.0674171l-0.0168457,0.0253391l-0.0327759,0.051672
		l-0.0613403,0.1060638c-0.0927124,0.164278-0.0895996,0.2303104-0.1306152,0.3468513
		c-0.161438,0.7528629-0.1209106,1.3282528-0.1119385,1.9520988c0.1107788,2.4279118,0.4377441,4.7778702,0.6964722,6.9906616
		c0.1329956,1.1034298,0.2631226,2.1692696,0.3582764,3.1686878c0.0465698,0.4977131,0.0880127,0.9856129,0.0983276,1.4264965
		c0.0136719,0.1897259-0.0231934,0.5014839,0.0033569,0.4314041l-0.0031738,0.0100346
		c-0.0038452-0.0031052-0.005127-0.0056553-0.0012817-0.0035477l-0.1544189,0.1327858
		c-0.6176758,0.4430466-1.4235229,0.8378563-2.0945435,1.1556015c-0.6864624,0.3214607-1.3029175,0.585537-1.8117676,0.7993813
		c-1.0231323,0.427578-1.6095581,0.6474648-1.6095581,0.6474648c-0.0065308,0.0024948-0.0175781,0.0067635-0.0240479,0.0093689
		c-0.5184326,0.2085762-0.7525635,0.7594604-0.5229492,1.2303963c0.2296143,0.470932,0.8360596,0.6835556,1.3544922,0.4749794
		l0.0130615-0.0052681c0,0,0.6135254-0.24683,1.6526489-0.7104454c0.5211182-0.2337494,1.1514893-0.521389,1.8691406-0.8785553
		c0.7219238-0.3726311,1.5113525-0.7505875,2.4151001-1.4303207c0.1244507-0.1129379,0.2369995-0.2044201,0.3673706-0.344635
		c0.0740356-0.0917587,0.1442261-0.1887283,0.2081909-0.2880268l0.046814-0.0747929
		c0.0219116-0.050621-0.032959,0.0867119,0.0519409-0.118206l0.0029907-0.010479l0.0059204-0.0208454l0.0238037-0.0838299
		c0.0214233-0.0866032,0.0444336-0.2253208,0.055603-0.3377056c0.0114746-0.1203671,0.0057373-0.1548519,0.0089722-0.2369633
		c0.0049438-0.1474781-0.005127-0.2686214-0.008667-0.4034595c-0.0270996-0.5171738-0.085022-1.0166626-0.1473389-1.532671
		c-0.12677-1.0280266-0.2873535-2.0946426-0.4512329-3.1973515c-0.3203125-2.199707-0.7098389-4.5523834-0.878418-6.8608704
		c-0.0081177-0.1327858-0.0151978-0.2693977-0.0205078-0.4057331c0.173645,0.1832962,0.348877,0.3658142,0.5170288,0.5513268
		c0.5199585,0.5708981,1.0148315,1.1611462,1.499939,1.7581577c0.9613037,1.2000675,1.8387451,2.4553013,2.6328125,3.7505646
		c0.4073486,0.643362,0.7623291,1.3104534,1.123291,1.9751625c0.1781616,0.3332138,0.3296509,0.6770725,0.4959717,1.0151081
		c0.1670532,0.3379822,0.3262939,0.6786804,0.4609375,1.0278606l0.4273682,1.0397263l0.3581543,1.0597401
		c0.2628784,0.7012463,0.3952026,1.4319305,0.6004028,2.1467056l0.0140991,0.0492325
		c0.0689697,0.2398453,0.3376465,0.385273,0.6032104,0.3253403c0.2674561-0.060379,0.430481-0.306324,0.3640137-0.5492744
		c-0.203064-0.7423286-0.3355103-1.5035095-0.5985718-2.2308121l-0.3597412-1.1002693l-0.4299316-1.0779819
		c-0.1359253-0.3622646-0.2963257-0.7151604-0.4646606-1.0651188c-0.1676636-0.3500118-0.3209839-0.7063999-0.5007324-1.0512009
		c-0.3641357-0.6877728-0.7233887-1.3782063-1.1349487-2.0432472c-0.8028564-1.3394508-1.6907959-2.6361561-2.6652832-3.8774738
		c-0.4918823-0.6176357-0.9942017-1.2285652-1.5237427-1.8215294c-0.2543945-0.2854767-0.5109863-0.5648556-0.7744751-0.8419037
		c1.1461792,0.0557194,2.3034668,0.3067112,3.4145508,0.6751308c1.5252686,0.5038681,2.9838867,1.2082176,4.3833618,1.9985046
		c1.395874,0.7991028,2.7375488,1.6866913,4.0240479,2.6385403c1.2835083,0.9505177,2.5343628,1.9612465,3.6907959,3.0224285
		l0.0073853,0.0068188c0.192749,0.1766968,0.5067139,0.1797466,0.7035522,0.0059872
		c0.197998-0.1747551,0.2025757-0.4622841,0.0101318-0.6421967c-1.1923828-1.1146297-2.4421997-2.1421585-3.7476196-3.128437
		c-1.3043823-0.9834499-2.6693115-1.9052486-4.1032104-2.7432156c-1.4390869-0.829319-2.9497681-1.5785789-4.5739136-2.1314583
		c-1.0662231-0.3620987-2.1991577-0.6232357-3.3635254-0.7281342c1.0231323-0.5687914,2.1428833-1.0289698,3.2405396-1.42062
		c1.1154175-0.3894882,2.2248535-0.6993046,3.2880249-0.9565611c1.0651855-0.2526541,2.0872803-0.4368925,3.0357666-0.5844822
		c0.951355-0.1304016,1.8265991-0.2317524,2.6071167-0.2844782c0.7786865-0.0716887,1.4619141-0.0692492,2.0230103-0.1009626
		c1.1239624,0.0057106,1.7662964,0.0089817,1.7662964,0.0089817l0.0294189,0.0001669
		c0.2698364,0.0011091,0.493103-0.1933861,0.5014648-0.4398861C62.5159912,12.0875149,62.2992554,11.8781061,62.0234375,11.8703995z
		'/>
    <path style='fill:#3E3A39;' d='M22.1131115,41.1930199l0.0651073-0.0515938l5.4947128-4.357605l1.480587,1.6672478
		l-5.495573,3.7159195l0.2664394,4.5963669l0.0010414,0.0152893c0.0104618,0.1888618-0.0892181,0.3771057-0.2783794,0.484272
		c-0.4286137,0.2427559-0.8695812,0.4660416-1.3079453,0.6935005c0.0288181,0.098484,0.0681038,0.1934242,0.0889587,0.2945671
		c0.0380421,0.1868896-0.054287,0.3841362-0.2460136,0.4841309c-0.2429428,0.1266899-0.5529099,0.0505142-0.6923752-0.1701736
		c-0.1380348-0.2184334-0.248539-0.4461212-0.3491802-0.6771393c-0.0998383-0.2285042-0.0028572-0.4950676,0.2385731-0.6215553
		l0.0109406-0.0056839c0.4509544-0.2362556,0.6913395-0.5443306,1.1456184-0.7754631l-0.6850204-4.6196213
		C21.8052616,41.6238937,21.8950233,41.366024,22.1131115,41.1930199z'/>
    <path style='fill:#3E3A39;' d='M1.9765625,11.8703995c0,0,0.6623535-0.0185738,1.8215332-0.0510635
		c0.5790405,0.018795,1.2852783,0.0010538,2.0911865,0.0561638c0.8078613,0.0362043,1.7149658,0.119813,2.703125,0.232584
		c0.9852295,0.1299038,2.0490723,0.296566,3.1618042,0.533474c1.111145,0.241622,2.2738647,0.5372448,3.4541016,0.9186382
		c1.1781006,0.3906527,2.3756104,0.8435125,3.5518188,1.4638653c0.3048096,0.1815214,0.5599365,0.2981186,0.9102173,0.5674057
		l0.2441406,0.1854019l0.1688232,0.1615057l0.0834351,0.0804491l0.0592041,0.0674171l0.0168457,0.0253391l0.0327759,0.051672
		l0.0613403,0.1060638c0.0927124,0.164278,0.0895996,0.2303104,0.1306152,0.3468513
		c0.161438,0.7528629,0.1209106,1.3282528,0.1119385,1.9520988c-0.1107788,2.4279118-0.4377441,4.7778702-0.6964722,6.9906616
		C19.75,26.6623573,19.619873,27.7281971,19.5247192,28.7276154c-0.0465698,0.4977131-0.0880127,0.9856129-0.0983276,1.4264965
		c-0.0136719,0.1897259,0.0231934,0.5014839-0.0033569,0.4314041l0.0031738,0.0100346
		c0.0038452-0.0031052,0.005127-0.0056553,0.0012817-0.0035477l0.1544189,0.1327858
		c0.6176758,0.4430466,1.4235229,0.8378563,2.0945435,1.1556015c0.6864624,0.3214607,1.3029175,0.585537,1.8117676,0.7993813
		c1.0231323,0.427578,1.6095581,0.6474648,1.6095581,0.6474648c0.0065308,0.0024948,0.0175781,0.0067635,0.0240479,0.0093689
		c0.5184326,0.2085762,0.7525635,0.7594604,0.5229492,1.2303963c-0.2296143,0.470932-0.8360596,0.6835556-1.3544922,0.4749794
		l-0.0130615-0.0052681c0,0-0.6135254-0.24683-1.6526489-0.7104454c-0.5211182-0.2337494-1.1514893-0.521389-1.8691406-0.8785553
		c-0.7219238-0.3726311-1.5113525-0.7505875-2.4151001-1.4303207c-0.1244507-0.1129379-0.2369995-0.2044201-0.3673706-0.344635
		c-0.0740356-0.0917587-0.1442261-0.1887283-0.2081909-0.2880268l-0.046814-0.0747929
		c-0.0219116-0.050621,0.032959,0.0867119-0.0519409-0.118206l-0.0029907-0.010479l-0.0059204-0.0208454l-0.0238037-0.0838299
		c-0.0214233-0.0866032-0.0444336-0.2253208-0.055603-0.3377056c-0.0114746-0.1203671-0.0057373-0.1548519-0.0089722-0.2369633
		c-0.0049438-0.1474781,0.005127-0.2686214,0.008667-0.4034595c0.0270996-0.5171738,0.085022-1.0166626,0.1473389-1.532671
		c0.12677-1.0280266,0.2873535-2.0946426,0.4512329-3.1973515c0.3203125-2.199707,0.7098389-4.5523834,0.878418-6.8608704
		c0.0081177-0.1327858,0.0151978-0.2693977,0.0205078-0.4057331c-0.173645,0.1832962-0.348877,0.3658142-0.5170288,0.5513268
		c-0.5199585,0.5708981-1.0148315,1.1611462-1.499939,1.7581577c-0.9613037,1.2000675-1.8387451,2.4553013-2.6328125,3.7505646
		c-0.4073486,0.643362-0.7623291,1.3104534-1.123291,1.9751625c-0.1781616,0.3332138-0.3296509,0.6770725-0.4959717,1.0151081
		c-0.1670532,0.3379822-0.3262939,0.6786804-0.4609375,1.0278606l-0.4273682,1.0397263l-0.3581543,1.0597401
		c-0.2628784,0.7012463-0.3952026,1.4319305-0.6004028,2.1467056l-0.0140991,0.0492325
		c-0.0689697,0.2398453-0.3376465,0.385273-0.6032104,0.3253403c-0.2674561-0.060379-0.430481-0.306324-0.3640137-0.5492744
		c0.203064-0.7423286,0.3355103-1.5035095,0.5985718-2.2308121l0.3597412-1.1002693l0.4299316-1.0779819
		c0.1359253-0.3622646,0.2963257-0.7151604,0.4646606-1.0651188c0.1676636-0.3500118,0.3209839-0.7063999,0.5007324-1.0512009
		c0.3641357-0.6877728,0.7233887-1.3782063,1.1349487-2.0432472c0.8028564-1.3394508,1.6907959-2.6361561,2.6652832-3.8774738
		c0.4918823-0.6176357,0.9942017-1.2285652,1.5237427-1.8215294c0.2543945-0.2854767,0.5109863-0.5648556,0.7744751-0.8419037
		c-1.1461792,0.0557194-2.3034668,0.3067112-3.4145508,0.6751308c-1.5252686,0.5038681-2.9838867,1.2082176-4.3833618,1.9985046
		c-1.395874,0.7991028-2.7375488,1.6866913-4.0240479,2.6385403c-1.2835083,0.9505177-2.5343628,1.9612465-3.6907959,3.0224285
		l-0.0073853,0.0068188c-0.192749,0.1766968-0.5067139,0.1797466-0.7035522,0.0059872
		c-0.197998-0.1747551-0.2025757-0.4622841-0.0101318-0.6421967c1.1923828-1.1146297,2.4421997-2.1421585,3.7476196-3.128437
		c1.3043823-0.9834499,2.6693115-1.9052486,4.1032104-2.7432156c1.4390869-0.829319,2.9497681-1.5785789,4.5739136-2.1314583
		c1.0662231-0.3620987,2.1991577-0.6232357,3.3635254-0.7281342c-1.0231323-0.5687914-2.1428833-1.0289698-3.2405396-1.42062
		c-1.1154175-0.3894882-2.2248535-0.6993046-3.2880249-0.9565611c-1.0651855-0.2526541-2.0872803-0.4368925-3.0357666-0.5844822
		c-0.951355-0.1304016-1.8265991-0.2317524-2.6071167-0.2844782c-0.7786865-0.0716887-1.4619141-0.0692492-2.0230103-0.1009626
		c-1.1239624,0.0057106-1.7662964,0.0089817-1.7662964,0.0089817l-0.0294189,0.0001669
		c-0.2698364,0.0011091-0.493103-0.1933861-0.5014648-0.4398861C1.4840088,12.0875149,1.7007446,11.8781061,1.9765625,11.8703995z'/>
  </g>
  <radialGradient id="SVGID_2_" cx="32" cy="33.9235916" r="16.6668415" gradientUnits="userSpaceOnUse">
    <stop offset='0.4823009' style='stop-color:#F5F5F5'/>
    <stop offset='1' style='stop-color:#B2B2B3'/>
  </radialGradient>
  <path style="fill:url(#SVGID_2_);" d="M43.625,34.9533157c-1.5-2.6375999-3.3125-1.6907692-3.3125-1.6907692L32,35.6406517
	l-8.3125-2.3781052c0,0-1.8125-0.9468307-3.3125,1.6907692c0,0,0.6875,1.0144615,1.125,1.0144615
	c0,0-0.9375,1.4202461,0.0625,3.5168037c0,0,0.8125-0.0676308,1.3125-0.4734154c0,0-0.375,2.2994461,0.9375,4.666523
	c0,0,1.4375-0.3381538,1.6875-0.9468307c0,0-0.625,1.7584,1.9375,3.3139114c0,0,0.9375-0.1352615,1.5625-0.811573
	c0,0,0.5,2.0965576,3,3.5168037c2.5-1.4202461,3-3.5168037,3-3.5168037c0.625,0.6763115,1.5625,0.811573,1.5625,0.811573
	C39.125,44.4892578,38.5,42.7308578,38.5,42.7308578c0.25,0.6086769,1.6875,0.9468307,1.6875,0.9468307
	c1.3125-2.3670769,0.9375-4.666523,0.9375-4.666523c0.5,0.4057846,1.3125,0.4734154,1.3125,0.4734154
	c1-2.0965576,0.0625-3.5168037,0.0625-3.5168037C42.9375,35.9677773,43.625,34.9533157,43.625,34.9533157z"/>
  <path style="fill:#3E3A39;" d="M40.9411621,22.5327148c-1.425415-0.3230591-4.0187988,1.817688-4.7196045,3.2958984
	c-0.1293945,0.2730103-0.2503052,0.5853882-0.3616943,0.9128418C34.7417603,26.4281006,33.4527588,26.25,32,26.25
	s-2.7417603,0.1781006-3.8598633,0.4914551c-0.1113892-0.3274536-0.2322998-0.6398315-0.3616943-0.9128418
	c-0.7008057-1.4782104-3.2941895-3.6189575-4.7196045-3.2958984c-1.425354,0.322998-1.2155762,8.1940308-0.5147705,9.6723022
	c0.2857056,0.6026611,0.6880493,1.1724854,1.0665894,1.6431885C24.5914307,36.7398682,29.5,38.75,32,38.75
	s7.4085693-2.0101318,8.3893433-4.9017944c0.37854-0.4707031,0.7808838-1.0405273,1.0665894-1.6431885
	C42.1567383,30.7267456,42.3665161,22.8557129,40.9411621,22.5327148z"/>
  <linearGradient id="SVGID_3_" gradientUnits="userSpaceOnUse" x1="39.7170334" y1="32.0940933" x2="39.7170334" y2="23.75">
    <stop offset='0' style='stop-color:#717071'/>
    <stop offset='1' style='stop-color:#9C9C9D'/>
  </linearGradient>
  <path style="fill:url(#SVGID_3_);" d="M40.75,23.75c-0.5,0-2.75,0.3650169-2.75,5.2046204c0,1.427063,1.5,4.7227707,2.75,2.2409248
	C42,28.7136955,41.25,23.75,40.75,23.75z"/>
  <linearGradient id="SVGID_4_" gradientUnits="userSpaceOnUse" x1="39.7170334" y1="32.0940933" x2="39.7170334" y2="23.75" gradientTransform="matrix(-1 0 0 1 64 0)">
    <stop offset='0' style='stop-color:#717071'/>
    <stop offset='1' style='stop-color:#9C9C9D'/>
  </linearGradient>
  <path style="fill:url(#SVGID_4_);" d="M23.25,23.75c0.5,0,2.75,0.3650169,2.75,5.2046204c0,1.427063-1.5,4.7227707-2.75,2.2409248
	C22,28.7136955,22.75,23.75,23.25,23.75z"/>
  <circle style="fill:#E53828;" cx="35.40625" cy="32.21875" r="1.28125"/>
  <circle style="fill:#E53828;" cx="28.59375" cy="32.21875" r="1.28125"/>
  <path style="fill:#231815;" d="M33.25,35.5c0,0.6903572-0.5596428,1.0416679-1.25,1.0416679
	c-0.6903553,0-1.25-0.3513107-1.25-1.0416679s0.5596447-1.75,1.25-1.75C32.6903572,33.75,33.25,34.8096428,33.25,35.5z"/>
  <g>
  </g>
  <g>
  </g>
  <g>
  </g>
  <g>
  </g>
  <g>
  </g>
  <g>
  </g>
</svg>