<?xml version="1.0" encoding="utf-8"?>
<!-- Generator: Adobe Illustrator 15.0.2, SVG Export Plug-In . SVG Version: 6.00 Build 0)  -->
<!DOCTYPE svg PUBLIC "-//W3C//DTD SVG 1.1//EN" "http://www.w3.org/Graphics/SVG/1.1/DTD/svg11.dtd">
<svg version="1.1" id="レイヤー_1" xmlns="http://www.w3.org/2000/svg" xmlns:xlink="http://www.w3.org/1999/xlink" x="0px"
	 y="0px" width="64px" height="64px" viewBox="0 0 64 64" style="enable-background:new 0 0 64 64;" xml:space="preserve">
<g>
	<linearGradient id="SVGID_1_" gradientUnits="userSpaceOnUse" x1="16.4985352" y1="59.8701172" x2="29.5997372" y2="3.1225765">
		<stop  offset="0" style="stop-color:#E3D729"/>
		<stop  offset="1" style="stop-color:#F5E731"/>
	</linearGradient>
	<path style="fill:url(#SVGID_1_);" d="M22.7861328,3.2832031c-2.0722656-2.5664063-3.7695313-2.7167969-5.2080078-2.7167969
		c-1.4394531,0-2.2666016,0.3222656-3.2871094,1.1494141c-1.0195313,0.8261719-1.3955078,2.4589844-1.3955078,4.1660156
		s0,26.6982422,0,30.2958984s0.8701172,4.8535156,2.3730469,6.8183594
		c1.5039063,1.9667969,14.0576172,18.2363281,14.9160156,19.1601563C31.0449219,63.078125,31.6621094,63.4335938,32,63.4335938
		V14.9677734C32,14.9677734,24.8583984,5.8496094,22.7861328,3.2832031z"/>
	<linearGradient id="SVGID_2_" gradientUnits="userSpaceOnUse" x1="34.4003906" y1="3.1225586" x2="47.5015907" y2="59.8700981">
		<stop  offset="0" style="stop-color:#1F7D64"/>
		<stop  offset="0.1690151" style="stop-color:#1E7B62"/>
		<stop  offset="0.324577" style="stop-color:#1E745D"/>
		<stop  offset="0.474957" style="stop-color:#1E6954"/>
		<stop  offset="0.6221085" style="stop-color:#1A5A48"/>
		<stop  offset="0.7669613" style="stop-color:#144639"/>
		<stop  offset="0.9080359" style="stop-color:#0A2F27"/>
		<stop  offset="0.993939" style="stop-color:#061E19"/>
	</linearGradient>
	<path style="fill:url(#SVGID_2_);" d="M49.7089844,1.7158203C48.6875,0.8886719,47.8623047,0.5664063,46.4228516,0.5664063
		s-3.1367188,0.1503906-5.2089844,2.7167969C39.140625,5.8496094,32,14.9677734,32,14.9677734v48.4658203
		c0.3388672,0,0.9550781-0.3554688,1.8154297-1.2773438c0.859375-0.9238281,13.4121094-17.1933594,14.9160156-19.1601563
		c1.5039063-1.9648438,2.3730469-3.2207031,2.3730469-6.8183594s0-28.5888672,0-30.2958984
		S50.7294922,2.5419922,49.7089844,1.7158203z"/>
	<path style="fill:#040000;" d="M32,22.6132813c0,0,0.4404297-2.1367188,1.6015625-4.3808594
		c1.1591797-2.2451172,1.8886719-3.1582031,3.3710938-5.1337891c1.4804688-1.9765625,4.4238281-5.6914063,5.8095703-7.5058594
		C44.1669922,3.7773438,45.2421875,3.5625,46.4765625,3.5625c1.2353516,0,2.4902344,1.2988281,2.4902344,3.3613281
		s0,25.6337891,0,27.7070313c0,2.0722656-0.9873047,3.2773438-1.7392578,4.3261719L32.5800781,57.8378906v5.390625
		c0,0,0.375-0.1503906,1.2353516-1.0722656c0.859375-0.9238281,13.4121094-17.1933594,14.9160156-19.1601563
		c1.5039063-1.9648438,2.3730469-3.2207031,2.3730469-6.8183594s0-28.5888672,0-30.2958984s-0.375-3.3398438-1.3955078-4.1660156
		C48.6875,0.8886719,47.8623047,0.5664063,46.4228516,0.5664063s-3.1367188,0.1503906-5.2089844,2.7167969
		C39.140625,5.8496094,32,14.9677734,32,14.9677734s-7.1416016-9.1181641-9.2138672-11.6845703
		s-3.7695313-2.7167969-5.2080078-2.7167969c-1.4394531,0-2.2666016,0.3222656-3.2871094,1.1494141
		c-1.0195313,0.8261719-1.3955078,2.4589844-1.3955078,4.1660156s0,26.6982422,0,30.2958984
		s0.8701172,4.8535156,2.3730469,6.8183594c1.5039063,1.9667969,14.0576172,18.2363281,14.9160156,19.1601563
		c0.8603516,0.921875,1.2363281,1.0722656,1.2363281,1.0722656v-5.390625L16.7724609,38.9570313
		c-0.7519531-1.0488281-1.7402344-2.2539063-1.7402344-4.3261719c0-2.0732422,0-25.6445313,0-27.7070313
		S16.2890625,3.5625,17.5244141,3.5625s2.3076172,0.2148438,3.6943359,2.0302734
		c1.3847656,1.8144531,4.3271484,5.5292969,5.8095703,7.5058594c1.4814453,1.9755859,2.2128906,2.8886719,3.3710938,5.1337891
		C31.5595703,20.4765625,32,22.6132813,32,22.6132813z"/>
</g>
</svg>
