<?xml version="1.0" encoding="utf-8"?>
<!-- Generator: Adobe Illustrator 15.0.2, SVG Export Plug-In . SVG Version: 6.00 Build 0)  -->
<!DOCTYPE svg PUBLIC "-//W3C//DTD SVG 1.1//EN" "http://www.w3.org/Graphics/SVG/1.1/DTD/svg11.dtd">
<svg version="1.1" id="レイヤー_1" xmlns="http://www.w3.org/2000/svg" xmlns:xlink="http://www.w3.org/1999/xlink" x="0px"
	 y="0px" width="64px" height="64px" viewBox="0 0 64 64" enable-background="new 0 0 64 64" xml:space="preserve">
<g>
	<polygon fill="#050000" points="40.835,26.321 47.695,26.321 44.67,30.17 	"/>
	<path fill="#050000" d="M40.782,21.893c0,0,3.299,2.787,4.292,5.319l-3.021,2.271c0,0,0.004-6.01-2.54-6.01
		C36.969,23.473,40.782,21.893,40.782,21.893z"/>
	<polygon fill="#050000" points="18.015,24.77 21.204,26.987 13.886,34.502 	"/>
	
		<rect x="15.618" y="15.987" transform="matrix(0.9448 0.3276 -0.3276 0.9448 9.7868 -3.9682)" fill="#050000" width="2.108" height="22.157"/>
	<path fill="#EA1F29" d="M40.251,38.205c0.001-6.027,4.887-10.914,10.913-10.914v-2.087c-7.181,0-12.999,5.82-13,13.001H40.251z"/>
	<g>
		<path d="M12.95,27.146c-6.108,0-11.06,4.951-11.06,11.06s4.951,11.06,11.06,11.06s11.06-4.951,11.06-11.06
			S19.059,27.146,12.95,27.146z M12.951,47.489c-5.128,0-9.285-4.157-9.285-9.284s4.157-9.284,9.285-9.284
			c5.126,0,9.283,4.157,9.283,9.284S18.077,47.489,12.951,47.489z"/>
		<path d="M51.05,27.146c-6.109,0-11.06,4.951-11.06,11.06s4.95,11.06,11.06,11.06c6.108,0,11.06-4.951,11.06-11.06
			S57.158,27.146,51.05,27.146z M51.05,47.489c-5.127,0-9.283-4.157-9.283-9.284s4.156-9.284,9.283-9.284
			c5.126,0,9.283,4.157,9.283,9.284S56.176,47.489,51.05,47.489z"/>
	</g>
	<g>
		
			<rect x="15.439" y="15.957" transform="matrix(0.9449 0.3275 -0.3275 0.9449 9.9404 -3.8804)" fill="#EA1F29" width="2.108" height="23.245"/>
		<rect x="18.644" y="14.735" fill="#020000" width="10.733" height="2.278"/>
		<rect x="16.393" y="24.695" fill="#EA1F29" width="24.312" height="1.984"/>
		
			<rect x="15.102" y="31.173" transform="matrix(0.8077 0.5896 -0.5896 0.8077 24.2288 -9.9311)" fill="#EA1F29" width="24.475" height="2.012"/>
		
			<rect x="37.715" y="17.593" transform="matrix(0.9884 0.152 -0.152 0.9884 4.846 -5.5829)" fill="#EA1F29" width="2.435" height="22.611"/>
		<rect x="37.178" y="37.472" fill="#EA1F29" width="14.972" height="1.985"/>
		
			<rect x="37.189" y="31.302" transform="matrix(0.7071 0.7071 -0.7071 0.7071 36.1727 -22.7429)" fill="#EA1F29" width="16.705" height="1.986"/>
		<rect x="32.003" y="39.796" transform="matrix(0.965 -0.2623 0.2623 0.965 -9.5514 10.7755)" width="7.163" height="2.735"/>
	</g>
	<polygon fill="#050000" points="47.186,18.811 36.527,19.413 36.63,15.375 46.767,16.367 	"/>
</g>
</svg>
