<?xml version="1.0" encoding="utf-8"?>
<!-- Generator: Adobe Illustrator 15.0.2, SVG Export Plug-In . SVG Version: 6.00 Build 0)  -->
<!DOCTYPE svg PUBLIC "-//W3C//DTD SVG 1.1//EN" "http://www.w3.org/Graphics/SVG/1.1/DTD/svg11.dtd">
<svg version="1.1" id="レイヤー_1" xmlns="http://www.w3.org/2000/svg" xmlns:xlink="http://www.w3.org/1999/xlink" x="0px"
	 y="0px" width="64px" height="64px" viewBox="0 0 64 64" style="enable-background:new 0 0 64 64;" xml:space="preserve">
<g>
	<path style="fill:#3F0202;" d="M31.2363281,62.5527344c-0.0419922,0-0.0839844-0.0029297-0.1259766-0.0087891
		c-0.1933594-0.0283203-0.4453125-0.1357422-0.637207-0.4658203c-2.2143555-0.1630859-3.3657227-2.4892578-4.8095703-5.4072266
		c-0.3129883-0.6318359-0.6430664-1.2988281-1.0048828-1.9892578c-0.7915039-1.9990234-3.0253906-4.5224609-3.0483398-4.5478516
		c-0.1411133-0.1591797-0.1269531-0.4023438,0.0317383-0.5429688c0.1577148-0.1425781,0.4018555-0.1269531,0.5429688,0.03125
		c0.0957031,0.1074219,2.347168,2.6503906,3.1723633,4.7392578c0.347168,0.6591797,0.6801758,1.3320313,0.9956055,1.96875
		c1.4321289,2.8945313,2.4672852,4.9863281,4.3681641,4.9873047c0.1601563,0,0.3037109,0.0996094,0.3598633,0.25
		c0.0566406,0.1513672,0.1147461,0.2119141,0.1401367,0.2148438c0.4345703,0.1123047,1.7597656-1.6621094,2.4604492-2.5908203
		c0.4326172-0.5742188,0.8427734-1.1171875,1.203125-1.5214844c0.3027344-0.3378906,0.5957031-0.7255859,0.9013672-1.1279297
		c1.1103516-1.4648438,2.4912109-3.2880859,5.0703125-3.6230469c0.2304688-0.0224609,0.4042969,0.1230469,0.4316406,0.3320313
		c0.0273438,0.2109375-0.1220703,0.4042969-0.3320313,0.4316406c-2.2597656,0.2929688-3.4804688,1.9033203-4.5566406,3.3232422
		c-0.3183594,0.4208984-0.625,0.8242188-0.9404297,1.1777344c-0.3398438,0.3798828-0.7402344,0.9101563-1.1630859,1.4707031
		C32.9482422,61.4414063,32.0483398,62.5527344,31.2363281,62.5527344z"/>
	<path style="fill:#3F0202;" d="M23.6503906,24.7216797c0,0,6.6459961,0.6640625,12.3193359-2.0410156l-4.7275391-3.465332
		l-8.3759766,2.753418L23.6503906,24.7216797z"/>
	<path style="fill:#3F0202;" d="M37.4306641,22.9980469c0,0,4.9755859,2.1206055,8.5175781,3.7553711
		c1.1894531,0.5488281,2.109375-0.2304688,2.109375-0.2304688l0.4541016-1.9003906L44.3896484,21.96875L37.4306641,22.9980469z"/>
	<path style="fill:#3F0202;" d="M24.4394531,23.4902344c-0.0351563-0.0595703-3.453125-6.0083008,1.6225586-11.6479492
		l0.5722656,0.5146484c-4.690918,5.2114258-1.6635742,10.519043-1.5322266,10.7421875L24.4394531,23.4902344z"/>
	<path style="fill:#3F0202;" d="M47.0400391,26.4785156l-0.5371094-0.5498047
		c2.0712891-2.0273438,3.1005859-4.199707,3.0576172-6.4575195c-0.0703125-3.7050781-3.0175781-6.4179688-3.0478516-6.4448242
		l0.5166016-0.5703125c0.1318359,0.1191406,3.2236328,2.9667969,3.3007813,7.0004883
		C50.3769531,21.9345703,49.2705078,24.2973633,47.0400391,26.4785156z"/>
	<linearGradient id="SVGID_1_" gradientUnits="userSpaceOnUse" x1="30.1459961" y1="15.097168" x2="28.4062576" y2="25.1712265">
		<stop  offset="0.3212121" style="stop-color:#FF002D"/>
		<stop  offset="0.8121212" style="stop-color:#3F0010"/>
		<stop  offset="1" style="stop-color:#FF3F62"/>
	</linearGradient>
	<path style="fill:url(#SVGID_1_);" d="M26.3481445,12.0996094c0,0-3.5717773,3.9379883-3.4804688,6.7773438
		c0.0922852,2.8393555,1.8320313,6.0439453,6.4111328,5.7241211c4.5786133-0.3208008,6.2670898-1.9692383,6.2670898-1.9692383
		S27.3554688,17.2280273,26.3481445,12.0996094z"/>
	<linearGradient id="SVGID_2_" gradientUnits="userSpaceOnUse" x1="44.6025391" y1="16.6625977" x2="45.1981812" y2="27.0112038">
		<stop  offset="0.2121212" style="stop-color:#FF002D"/>
		<stop  offset="0.8" style="stop-color:#3F0010"/>
		<stop  offset="1" style="stop-color:#FF3F62"/>
	</linearGradient>
	<path style="fill:url(#SVGID_2_);" d="M38.7119141,22.9980469c0,0,7.4189453-2.5644531,8.0595703-10.2568359
		c0,0,5.0361328,4.4702148,4.2285156,9.1396484c-0.4746094,2.7416992-2.7626953,4.0478516-5.3271484,3.7734375
		C43.1074219,25.3793945,39.71875,23.2729492,38.7119141,22.9980469z"/>
	<path style="fill:#3F0202;" d="M38.7119141,23.3828125c-0.0146484,0-0.0292969-0.0009766-0.0439453-0.0024414l-3.1660156-0.3662109
		c-0.0595703-0.0068359-0.1162109-0.0273438-0.1660156-0.0595703c-7.5019531-4.8740234-9.2836914-10.5058594-9.355957-10.7431641
		c-0.015625-0.0522461-0.0205078-0.1074219-0.0131836-0.1616211C26.7978516,5.6791992,30.6679688,1.565918,30.8320313,1.394043
		c0.1464844-0.152832,0.3901367-0.1582031,0.5439453-0.0126953c0.1533203,0.1469727,0.1591797,0.3901367,0.0126953,0.5439453
		c-0.0385742,0.0400391-3.8256836,4.0737305-4.6474609,10.1367188c0.2368164,0.6767578,2.2070313,5.7963867,8.9384766,10.1982422
		l2.9746094,0.34375c0.8212891-0.3618164,7.1865234-3.3730469,7.7275391-9.8115234
		c-0.2861328-0.7949219-2.7871094-7.6123047-5.4609375-10.1196289c-0.1552734-0.1455078-0.1630859-0.3886719-0.0175781-0.5439453
		c0.1435547-0.1547852,0.3876953-0.1621094,0.5429688-0.0175781c2.9658203,2.7802734,5.578125,10.1889648,5.6884766,10.5029297
		c0.0175781,0.050293,0.0244141,0.1030273,0.0205078,0.15625c-0.5615234,7.3881836-8.2226563,10.5532227-8.2998047,10.5844727
		C38.8095703,23.3735352,38.7607422,23.3828125,38.7119141,23.3828125z"/>
	<linearGradient id="SVGID_3_" gradientUnits="userSpaceOnUse" x1="30.7358398" y1="52.1181641" x2="28.812624" y2="63.107975">
		<stop  offset="0" style="stop-color:#FF002D"/>
		<stop  offset="0.8121212" style="stop-color:#3F0010"/>
		<stop  offset="1" style="stop-color:#FF3F62"/>
	</linearGradient>
	<path style="fill:url(#SVGID_3_);" d="M22.7299805,50.7939453c0,0,9.1142578,2.9130859,15.9819336,2.8212891
		c0,0-3.484375,4.7802734-4.9902344,6.4726563c-1.4555664,1.6357422-1.8789063,3.0673828-3.3427734,2.5166016
		c0,0-0.7412109,0.1064453-1.3095703-0.0830078c-0.5678711-0.1894531-2.7666016-4.4931641-3.6821289-7.0576172
		C24.4716797,52.9003906,22.7299805,50.7939453,22.7299805,50.7939453z"/>
	<path style="fill:#3F0202;" d="M19.2485352,48.8378906c-0.0913086,0-0.1914063-0.0068359-0.3022461-0.0224609
		c-0.9394531-0.1279297-1.1342773-0.7041016-1.2631836-1.0859375c-0.1308594-0.3867188-0.2026367-0.6005859-0.965332-0.6269531
		c-0.1582031-0.0058594-0.2963867-0.1074219-0.3491211-0.2568359s-0.0083008-0.3154297,0.1113281-0.4189453
		c0.1005859-0.0869141,1.0063477-0.8476563,1.8754883-0.8476563c0.3676758,0,0.6879883,0.1367188,0.9267578,0.3974609
		c0.4506836,0.4921875,1.2182617,1.6162109,0.8955078,2.3486328C20.09375,48.5166016,19.8608398,48.8378906,19.2485352,48.8378906z
		 M17.6933594,46.5410156c0.4819336,0.2412109,0.6176758,0.6435547,0.71875,0.9423828
		c0.1176758,0.3476563,0.1708984,0.5058594,0.6381836,0.5703125c0.2338867,0.0302734,0.40625,0,0.4233398-0.0380859
		c0.0820313-0.1865234-0.1791992-0.8867188-0.7587891-1.5195313C18.4975586,46.2597656,18.0756836,46.3486328,17.6933594,46.5410156
		z"/>
	<path style="fill:#3F0202;" d="M16.1469727,46.9921875c-1.1210938,0-1.7475586-0.7529297-1.7739258-0.7851563
		c-0.0620117-0.0771484-0.0927734-0.1738281-0.0849609-0.2724609c0.0986328-1.2851563,0.7412109-1.4765625,1.1152344-1.4765625
		c0.9521484,0,2.1083984,1.2744141,2.3305664,1.5302734c0.0761719,0.0878906,0.1083984,0.2050781,0.0878906,0.3193359
		c-0.0205078,0.1152344-0.0917969,0.2138672-0.1938477,0.2705078
		C17.1259766,46.8525391,16.6274414,46.9921875,16.1469727,46.9921875z M15.0722656,45.8222656
		c0.2314453,0.2021484,0.9155273,0.5576172,1.7167969,0.2890625c-0.4584961-0.4433594-1.0410156-0.8847656-1.3857422-0.8847656
		C15.2021484,45.2265625,15.1123047,45.5214844,15.0722656,45.8222656z"/>
	<path style="fill:#3F0202;" d="M16.7314453,57.9541016c-0.2124023,0-0.3847656-0.171875-0.3847656-0.3847656v-0.8095703
		c0-0.1259766,0.0620117-0.2441406,0.1655273-0.3164063c-0.0693359-0.0478516-0.1225586-0.1181641-0.1484375-0.203125
		c-0.0498047-0.1611328,0.012207-0.3369141,0.1523438-0.4306641l0.6240234-0.421875
		c1.1582031-2.5244141,1.2216797-7.6835938,0.0854492-8.4628906c-0.8466797-0.5839844-2.809082,1.3867188-3.625,2.4335938
		c-0.1298828,0.1679688-0.371582,0.1972656-0.5395508,0.0673828c-0.1674805-0.1308594-0.1977539-0.3730469-0.0668945-0.5400391
		c0.3007813-0.3876953,2.9921875-3.7431641,4.6669922-2.5957031c1.7114258,1.1748047,1.3291016,6.9648438,0.1533203,9.4726563
		c0.1166992,0.0390625,0.2109375,0.1328125,0.2475586,0.2548828c0.0483398,0.1630859-0.015625,0.3388672-0.1577148,0.4316406
		l-0.7880859,0.5185547v0.6015625C17.1162109,57.7822266,16.9438477,57.9541016,16.7314453,57.9541016z"/>
	<path style="fill:#3F0202;" d="M45.4433594,50.2626953c-0.0488281,0-0.0976563-0.0097656-0.1435547-0.0283203
		c-0.0996094-0.0390625-0.1777344-0.1191406-0.2158203-0.21875c-0.1240234-0.3242188-0.7158203-1.9804688-0.1679688-2.7783203
		c0.1503906-0.21875,0.4589844-0.4833984,1.0556641-0.4111328c0.8730469,0.1083984,1.453125,0.5419922,1.5517578,1.1601563
		c0.1259766,0.7900391-0.5722656,1.6064453-1.9160156,2.2392578C45.5556641,50.25,45.4990234,50.2626953,45.4433594,50.2626953z
		 M45.7753906,47.5830078c-0.1630859,0-0.2041016,0.0585938-0.2255859,0.0908203
		c-0.1904297,0.2773438-0.0664063,1.0419922,0.1152344,1.6582031c0.8164063-0.4599609,1.1455078-0.9316406,1.0986328-1.2246094
		c-0.0400391-0.2529297-0.3886719-0.4560547-0.8876953-0.5175781
		C45.8408203,47.5849609,45.8076172,47.5830078,45.7753906,47.5830078z"/>
	<path style="fill:#3F0202;" d="M46.1113281,53.2841797c-0.1396484,0-0.2744141-0.0771484-0.3417969-0.2089844
		c-0.9453125-1.8408203-1.2929688-2.9892578-1.0332031-3.4140625c0.1650391-0.2724609,0.4990234-0.3388672,0.8935547-0.1191406
		c0.9501953,0.5263672,1.4140625,1.6347656,1.3798828,2.4560547c-0.0244141,0.59375-0.2939453,1.0507813-0.7402344,1.2519531
		C46.21875,53.2734375,46.1650391,53.2841797,46.1113281,53.2841797z M45.4550781,50.34375
		c0.1123047,0.4335938,0.4121094,1.1689453,0.7480469,1.8740234c0.0263672-0.0908203,0.0351563-0.1816406,0.0380859-0.2509766
		C46.2626953,51.4541016,45.9941406,50.7519531,45.4550781,50.34375z"/>
	<path style="fill:#3F0202;" d="M47.9833984,60.5644531c-0.0009766,0-0.0029297,0-0.0039063,0
		c-0.2119141-0.0019531-0.3828125-0.1757813-0.3808594-0.3886719l0.0048828-0.4394531l-0.3652344-0.1699219
		c-0.1367188-0.0634766-0.2236328-0.2001953-0.2226563-0.3505859c0.0009766-0.140625,0.078125-0.2685547,0.2001953-0.3349609
		c-0.0214844-0.0527344-0.03125-0.1103516-0.0273438-0.1669922c0.0019531-0.0322266,0.1650391-3.2255859-2.1005859-8.6884766
		c-0.0810547-0.1962891,0.0117188-0.421875,0.2080078-0.5029297c0.1943359-0.0791016,0.421875,0.0126953,0.5029297,0.2080078
		c1.8974609,4.5761719,2.1416016,7.5751953,2.1621094,8.6220703h0.5039063c0.1816406,0,0.3378906,0.1269531,0.3759766,0.3037109
		c0.0380859,0.1777344-0.0527344,0.3574219-0.2177734,0.4316406l-0.3408203,0.1542969
		c0.0595703,0.0693359,0.09375,0.1591797,0.0927734,0.2539063l-0.0068359,0.6875
		C48.3662109,60.3945313,48.1943359,60.5644531,47.9833984,60.5644531z"/>
	<path style="fill:#3F0202;" d="M46.1113281,56.1005859c-0.0791016,0-0.1591797-0.0244141-0.2275391-0.0751953
		c-0.1708984-0.125-0.2080078-0.3642578-0.0839844-0.5351563c0.0244141-0.0351563,1.2646484-1.8867188-0.2685547-5.8134766
		c-1.0166016,2.8125-3.7773438,4.0742188-6.0263672,4.2919922c-2.3085938,0.2207031-7.7216797-0.4492188-12.8618164-1.6025391
		c-5.5014648-1.2324219-10.0136719-6.4140625-10.203125-6.6337891c-0.1386719-0.1611328-0.1206055-0.4033203,0.0405273-0.5419922
		s0.4033203-0.1201172,0.5424805,0.0400391c0.0449219,0.0517578,4.5385742,5.2089844,9.7880859,6.3857422
		c5.7441406,1.2871094,10.6977539,1.7734375,12.6196289,1.5869141c2.2558594-0.21875,5.0849609-1.5976563,5.6337891-4.7646484
		c0.0283203-0.1650391,0.1611328-0.2929688,0.3271484-0.3154297c0.1708984-0.0322266,0.328125,0.0654297,0.3994141,0.2167969
		c2.4052734,5.09375,0.7041016,7.5039063,0.6298828,7.6035156C46.3457031,56.0458984,46.2294922,56.1005859,46.1113281,56.1005859z"
		/>
	<path style="fill:#FFFFFF;" d="M46.7470703,17.4370117c0.3398438-0.644043,0.8720703-0.2807617,0.9140625,0.4267578
		C47.7041016,18.5717773,46.2480469,18.3833008,46.7470703,17.4370117z"/>
	<path style="fill:#FFFFFF;" d="M24.8183594,15.3613281c0.4594727-0.4072266,0.8583984,0.2788086,0.6176758,1.0429688
		C25.1948242,17.168457,23.8920898,16.1811523,24.8183594,15.3613281z"/>
	<linearGradient id="SVGID_4_" gradientUnits="userSpaceOnUse" x1="29.1645508" y1="24.78125" x2="29.2101727" y2="23.1780243">
		<stop  offset="0" style="stop-color:#FF7F9F"/>
		<stop  offset="1" style="stop-color:#FF7F96;stop-opacity:0"/>
	</linearGradient>
	<path style="fill:url(#SVGID_4_);" d="M25.1601563,23.3364258c1.090332,1.2685547,5.0981445,1.5087891,7.7539063,0.4799805
		C35.5722656,22.7871094,24.1376953,22.1455078,25.1601563,23.3364258z"/>
	
		<linearGradient id="SVGID_5_" gradientUnits="userSpaceOnUse" x1="45.0976563" y1="26.6679688" x2="45.3261986" y2="24.6078529" gradientTransform="matrix(0.9935566 -0.1133372 0.1133372 0.9935566 -2.3901033 4.9545288)">
		<stop  offset="0" style="stop-color:#FF7F9F"/>
		<stop  offset="1" style="stop-color:#FF7F96;stop-opacity:0"/>
	</linearGradient>
	<path style="fill:url(#SVGID_5_);" d="M42.1513672,24.1401367c0.7939453,0.9633789,4.7070313,1.8579102,6.4150391,0.7773438
		C50.2734375,23.8374023,41.2255859,23.0195313,42.1513672,24.1401367z"/>
	<path style="fill:#FFFFFF;" d="M26.0292969,53.8505859c0.0771484,1.2070313,0.6533203,1.2001953,0.6386719,0.5185547
		C26.6552734,53.6845703,26.0024414,53.4296875,26.0292969,53.8505859z"/>
	<linearGradient id="SVGID_6_" gradientUnits="userSpaceOnUse" x1="35.0751953" y1="60.0068359" x2="33.4956093" y2="58.581356">
		<stop  offset="0" style="stop-color:#FF7F9F"/>
		<stop  offset="1" style="stop-color:#FF7F96;stop-opacity:0"/>
	</linearGradient>
	<path style="opacity:0.58;fill:url(#SVGID_6_);" d="M30.1337891,62.3808594
		c0.9916992,0.1523438,2.5102539-0.7792969,3.7646484-2.6621094c0.3222656-0.484375,0.46875-0.7333984,0.4863281-0.8369141
		c1.5898438-1.7998047,2.7470703-3.8535156,2.7470703-3.8535156c-0.3408203,0.5546875-2.1660156,2.4794922-3.8164063,4.1894531"/>
</g>
</svg>
