<?xml version="1.0" encoding="utf-8"?>
<!-- Generator: Adobe Illustrator 15.0.2, SVG Export Plug-In . SVG Version: 6.00 Build 0)  -->
<!DOCTYPE svg PUBLIC "-//W3C//DTD SVG 1.1//EN" "http://www.w3.org/Graphics/SVG/1.1/DTD/svg11.dtd">
<svg version="1.1" id="レイヤー_1" xmlns="http://www.w3.org/2000/svg" xmlns:xlink="http://www.w3.org/1999/xlink" x="0px"
	 y="0px" width="64px" height="64px" viewBox="0 0 64 64" enable-background="new 0 0 64 64" xml:space="preserve">
<g>
	<path fill="#CE0000" stroke="#000000" stroke-width="0.5" stroke-miterlimit="10" d="M48.435,47.626
		c0.438,0.469,0.966,2.284,0.947,2.875c-0.019,0.59-0.341,0.072-0.427-0.718c-0.087-0.79-1.008-1.946-1.28-2.18
		c-0.275-0.234-1.069-0.104-1.624-0.548c-0.211-0.513,1.141-0.23,1.529,0.008C47.965,47.301,48.025,47.19,48.435,47.626z"/>
	<path fill="#CE0000" stroke="#000000" stroke-width="0.5" stroke-miterlimit="10" d="M18.772,45.459
		c-0.507,1.125-1.634,3.024,2.786,4.792c0.845,0.337,1.97,0.057,5.178,0.563s8.555,0.955,11.369,0.395
		c2.813-0.563,5.122-0.846,6.079-0.957c0.956-0.112,1.999-0.268,2.11-1.9c0.675,0.729,0.398,1.804-0.647,2.575
		c-1.069,0.788-4.108,3.827-4.56,4.165c-0.449,0.337-2.982,2.815-3.714,3.602c-0.731,0.789-2.721,2.102-4.389,2.083
		c-0.988-0.011-4.054-1.914-5.742-4.108s-4.447-4.782-5.348-5.348c-0.899-0.563-1.856-1.012-2.588-1.405
		c-0.732-0.395-1.689-1.632-1.632-2.814C17.731,45.917,18.435,45.881,18.772,45.459z"/>
	<path fill="#CE0000" stroke="#000000" stroke-width="0.5" stroke-miterlimit="10" d="M16.605,46.872
		c-0.506,0.197-1.154,0.592-1.294,1.688c-0.141,1.098-0.226,2.053-0.507,2.503c-0.282,0.451-0.676,1.156-0.225,1.803
		c-0.028,0.899,0.393,1.745,0.028,2.588c-0.249,0.574-0.141,2.647-0.198,3.153c-0.056,0.506-0.674,2.025-0.731,2.251
		c-0.057,0.226,0.057,0.957,0.254,0.563c0.196-0.395,0.562-1.295,0.731-1.886c0.169-0.592,0.056-2.251,0.084-2.674
		s0.422-1.435,0.169-2.954c-0.253-1.52,0.14-1.831,0.253-2.253c0.113-0.421,0.508-2.615,0.62-3.095s0.337-1.125,0.872-1.154
		C17.197,47.378,16.605,46.872,16.605,46.872z"/>
	<path fill="#CE0000" stroke="#000000" stroke-width="0.5" stroke-miterlimit="10" d="M16.62,46.852
		c-0.021-0.465,0.676-1.773,0.865-1.942c0.19-0.169-0.042,0.845-0.042,0.845l-0.085,0.739L16.62,46.852z"/>
	<path fill="#CE0000" stroke="#000000" stroke-width="0.5" stroke-miterlimit="10" d="M17.78,46.408
		c0.169-0.485,0.401-0.949,0.423-1.056c0.021-0.106,0.063-0.274-0.254-0.423c-0.316-0.147-0.569-0.021-0.654,0.36
		c-0.084,0.379-0.106,1.056-0.106,1.056L17.78,46.408z"/>
	<path fill="#CE0000" stroke="#000000" stroke-width="0.5" stroke-miterlimit="10" d="M14.777,55.484
		c0.365,0.224,0.844,0.197,0.984-0.93c0.141-1.126,0.282-2.983,0.282-2.983C15.706,52.445,14.693,54.611,14.777,55.484z"/>
	<path fill="#CE0000" stroke="#000000" stroke-width="0.5" stroke-miterlimit="10" d="M16.62,54.471
		c-0.422,0.169-0.326,0.28-0.76,0.211c-0.528-0.084-0.928-0.189-0.57-1.287c0.359-1.097,0.95-2.406,1.098-3.166
		s0.421-1.331,0.464-1.647c0.042-0.316,0.506-0.506,0.506-0.104c0,0.399,0.085,1.582,0,1.961c-0.084,0.381-0.421,1.014-0.527,1.372
		c-0.106,0.36-0.422,1.224-0.465,1.604c-0.042,0.379-0.21,0.822,0.063,0.802C16.704,54.196,16.62,54.471,16.62,54.471z"/>
	<path fill="#CE0000" stroke="#000000" stroke-width="0.5" stroke-miterlimit="10" d="M17.633,47.843
		c0.179-0.179,0.717,0.295,0.507,2.196c-0.211,1.898-0.803,4.728-1.604,4.938c-0.803,0.213-0.591,0.127-0.844-0.252
		c-0.254-0.381,0.421-0.043,0.844-1.014c0.421-0.97,0.844-2.448,0.928-4.137C17.548,47.886,17.337,48.138,17.633,47.843z"/>
	<path fill="#CE0000" stroke="#000000" stroke-width="0.5" stroke-miterlimit="10" d="M17.147,46.408
		c0.81-0.608,1.583,0.929,1.056,1.266c-0.528,0.339-1.014,0.443-1.225,0.845c-0.21,0.4-0.527-0.359-0.506-0.76
		c0.021-0.401,0.126-1.055,0.316-1.161C16.978,46.493,17.063,46.471,17.147,46.408z"/>
	<path fill="#CE0000" stroke="#000000" stroke-width="0.5" stroke-miterlimit="1" d="M22.178,32.463
		c-1.126-0.843-1.464-2.813-0.058-4.165c-2.259-7.813,2.59-13.565,3.716-15.478c-0.845-8.274-2.139-9.625-0.619-10.357
		c-0.337,0.958,0.732,5.742,1.352,10.244c5.599,0.902,13.873,7.547,10.605,13.027c0.316-0.337,0.573-1.869,0.763-2.734
		c0.189-0.865,0.697-2.322,0.907-2.828c0.213-0.507,1.438-3.863,1.795-4.496c0.358-0.633,0.338-1.246,0.338-1.393
		c-1.16-1.604-5.186-6.825-6.474-8.217c-0.063-0.19-1.514-1.688-1.294-1.773c0.381-0.147,3.949,3.717,8.277,9.691
		c9.127,2.791,12.688,12.375,3.417,15c-0.88,0.249-0.584,0.833-0.584,0.833s-1.147-1.035-2.034-1.373
		c-0.887-0.337-4.307-1.752-5.15-2.364c-1.498,0.887-8.544,1.859-10.232,2.07c-1.688,0.211-2.917,1.076-4.542,1.012
		c-0.338,0.253-0.696,0.907-0.739,1.266C21.579,30.79,21.594,31.753,22.178,32.463z"/>
</g>
</svg>
