<?xml version="1.0" encoding="utf-8"?>
<!-- Generator: Adobe Illustrator 15.0.2, SVG Export Plug-In . SVG Version: 6.00 Build 0)  -->
<!DOCTYPE svg PUBLIC "-//W3C//DTD SVG 1.1//EN" "http://www.w3.org/Graphics/SVG/1.1/DTD/svg11.dtd">
<svg version="1.1" id="レイヤー_1" xmlns="http://www.w3.org/2000/svg" xmlns:xlink="http://www.w3.org/1999/xlink" x="0px"
	 y="0px" width="64px" height="64px" viewBox="0 0 64 64" enable-background="new 0 0 64 64" xml:space="preserve">
<g>
	<g>
		<path fill="#FFFFFF" d="M51.844,58.404c0,1.152-0.943,2.096-2.096,2.096H14.252c-1.153,0-2.096-0.943-2.096-2.096V5.596
			c0-1.153,0.943-2.096,2.096-2.096h35.496c1.152,0,2.096,0.943,2.096,2.096V58.404z"/>
		<path fill="none" stroke="#161616" stroke-width="1.5" stroke-miterlimit="10" d="M51.844,58.404c0,1.152-0.943,2.096-2.096,2.096
			H14.252c-1.153,0-2.096-0.943-2.096-2.096V5.596c0-1.153,0.943-2.096,2.096-2.096h35.496c1.152,0,2.096,0.943,2.096,2.096V58.404z
			"/>
	</g>
	<g>
		<path d="M19.07,6.106v0.241h-0.413c-0.413,0-0.619,0.207-0.619,0.619v3.749c0,0.597-0.137,1.032-0.413,1.307
			c-0.367,0.367-0.872,0.55-1.513,0.55c-0.597,0-1.032-0.138-1.307-0.413c-0.207-0.207-0.31-0.458-0.31-0.757
			c0-0.229,0.069-0.413,0.207-0.55c0.137-0.138,0.287-0.207,0.447-0.207c0.184,0,0.333,0.058,0.447,0.172s0.172,0.264,0.172,0.447
			c0,0.161-0.057,0.298-0.172,0.413s-0.264,0.172-0.447,0.172c-0.068,0-0.149-0.012-0.241-0.035
			c0.184,0.322,0.539,0.482,1.066,0.482c0.665,0,0.998-0.344,0.998-1.032V6.966c0-0.413-0.207-0.619-0.619-0.619H15.94V6.106H19.07z
			"/>
		<path d="M18.067,13.537c0.374,0.375,0.562,0.836,0.562,1.385s-0.188,1.01-0.562,1.384c-0.334,0.334-0.762,0.501-1.284,0.501
			c-0.521,0-0.95-0.167-1.284-0.501c-0.375-0.375-0.562-0.836-0.562-1.384s0.187-1.01,0.562-1.385
			c0.334-0.334,0.762-0.501,1.284-0.501C17.305,13.036,17.732,13.203,18.067,13.537z M16.081,13.497
			c-0.294,0.294-0.441,0.77-0.441,1.425s0.147,1.13,0.441,1.424c0.201,0.201,0.435,0.301,0.702,0.301s0.502-0.1,0.703-0.301
			c0.293-0.294,0.441-0.769,0.441-1.424s-0.148-1.13-0.441-1.425c-0.201-0.201-0.435-0.301-0.703-0.301S16.281,13.296,16.081,13.497
			z"/>
		<path d="M16.472,17.187v0.14h-0.2c-0.241,0-0.361,0.121-0.361,0.361v1.545l1.465-1.465c0.106-0.106,0.16-0.187,0.16-0.241
			c0-0.053-0.02-0.1-0.06-0.14c-0.04-0.041-0.107-0.061-0.201-0.061h-0.301v-0.14h1.625v0.14h-0.06
			c-0.268,0-0.529,0.121-0.783,0.361l-0.822,0.823l1.264,1.966c0.147,0.228,0.334,0.341,0.562,0.341h0.08v0.141h-1.806v-0.141h0.281
			c0.187,0,0.261-0.066,0.221-0.201c-0.014-0.04-0.04-0.093-0.08-0.16l-0.943-1.525l-0.602,0.602v0.923
			c0,0.241,0.12,0.361,0.361,0.361h0.2v0.141h-1.745v-0.141h0.2c0.241,0,0.361-0.12,0.361-0.361v-2.769
			c0-0.241-0.12-0.361-0.361-0.361h-0.2v-0.14H16.472z"/>
		<path d="M18.278,21.338l0.1,1.244h-0.141c-0.067-0.347-0.188-0.608-0.361-0.782c-0.214-0.214-0.528-0.321-0.943-0.321h-0.261
			c-0.241,0-0.361,0.12-0.361,0.361v1.224h0.421c0.401,0,0.602-0.213,0.602-0.642v-0.201h0.141v1.866h-0.141v-0.201
			c0-0.427-0.201-0.642-0.602-0.642h-0.421v1.364c0,0.241,0.12,0.361,0.361,0.361h0.341c0.334,0,0.622-0.121,0.863-0.361
			c0.213-0.213,0.354-0.501,0.421-0.863h0.14l-0.14,1.364h-3.17v-0.14h0.201c0.241,0,0.361-0.121,0.361-0.361v-2.769
			c0-0.241-0.121-0.361-0.361-0.361h-0.201v-0.141H18.278z"/>
		<path d="M17.003,25.488c0.495,0,0.856,0.115,1.083,0.341c0.161,0.16,0.241,0.361,0.241,0.602c0,0.215-0.08,0.401-0.241,0.562
			c-0.188,0.188-0.461,0.308-0.822,0.361l0.782,1.465c0.121,0.2,0.288,0.301,0.501,0.301h0.141v0.141h-1.104l-0.943-1.886h-0.582
			v1.384c0,0.241,0.121,0.361,0.361,0.361h0.201v0.141h-1.746v-0.141h0.201c0.241,0,0.361-0.121,0.361-0.361v-2.769
			c0-0.241-0.12-0.361-0.361-0.361h-0.201v-0.141H17.003z M16.422,25.628c-0.241,0-0.361,0.12-0.361,0.361v1.204h0.722
			c0.268,0,0.475-0.073,0.622-0.221c0.147-0.146,0.221-0.334,0.221-0.562c0-0.214-0.067-0.387-0.201-0.522
			c-0.174-0.173-0.455-0.26-0.843-0.26H16.422z"/>
	</g>
	<g>
		<defs>
			<rect id="SVGID_1_" x="12.156" y="3.5" width="39.688" height="57"/>
		</defs>
		<clipPath id="SVGID_2_">
			<use xlink:href="#SVGID_1_"  overflow="visible"/>
		</clipPath>
		<g clip-path="url(#SVGID_2_)">
			<path fill="#161616" d="M35.264,21.021c0,0-1.03-1.131-1.832-0.737S34.004,22.394,35.264,21.021z"/>
			<path fill="#161616" d="M35.293,20.016c0,0,2.09,0.857,0.703,2.127c-0.479,1.884-2.008,1.461-2.008,1.461l2.007,1.049
				l-2.591-0.841C33.404,23.813,35.637,23.566,35.293,20.016z"/>
			<path fill="#161616" d="M33.893,24.366c0,0,2.195,4.222,7.578-0.659c0,0-1.832,2.902-4.925,3.562
				C36.546,27.269,34.674,27.137,33.893,24.366z"/>
			<path fill="#161616" d="M39.369,17.208c0,0-0.313,5.284,0,7.33C39.369,24.538,37.557,21.56,39.369,17.208z"/>
			<path fill="#161616" d="M33.193,18.698c0,0-7.424-1.646-10.173,1.468l-2.291,4.488v-3.109l1.604-3.281l6.796-5.865l3.282,0.84
				l2.262,1.68l0.59,1.383L33.193,18.698z"/>
			<path fill="#161616" d="M38.764,16.302c0,0-4.291-11.232-9.788-13.179c-5.498-1.947-10.193,7.215-9.391,9.62l2.062,1.031
				l-0.917,1.489l2.634-1.489l-1.833-2.749c0,0,3.998-6.07,6.465-4.008s4.987,10.995,4.987,10.995L38.764,16.302z"/>
			<path fill="#161616" d="M35.264,16.302c0,0-0.676-9.515,6.883-11.919c7.559-2.405,13.285,4.581,13.285,4.581l2.29,7.338
				l2.062,2.167l-2.29,3.076l1.03,1.054l-3.092-0.715l1.03-3.529l-4.81-6.185c0,0-7.259-3.821-7.752,8.854
				C43.9,21.025,39.714,15.644,35.264,16.302z"/>
			<path fill="#161616" d="M44.572,22.599c0,0,2.842,4.803,5.477,5.146c2.634,0.344,1.116,6.643,1.116,6.643
				s-7.988,4.695-11.022,13.17C37.107,56.033,29.129,60.5,29.129,60.5s9.352-22.447,3.855-26.111
				c-5.497-3.665-5.956-6.643-5.956-6.643l8.22,1.26C35.249,29.005,37.176,32.907,44.572,22.599z"/>
			<path fill="#161616" d="M32.183,35.763c0,0,2.749,3.55,0,12.827l-4.186,11.338c0,0-1.884-12.483-3.717-15.347
				c0,0,2.941-1.604,4.849-3.665s0-3.894,0-3.894L32.183,35.763z"/>
			<path fill="#161616" d="M31.152,60.5c0,0,8.232-4.009,10.415-10.308c2.184-6.299,7.737-13.284,9.599-13.857v4.695
				c0,0-8.017,6.414-10.007,12.483c-1.989,6.07-6.93,6.986-6.93,6.986H31.152z"/>
			<path fill="#161616" d="M36.155,60.5c0,0,6.22-1.374,7.823-5.727c1.604-4.352,7.187-10.078,7.187-10.078v7.215
				c0,0-5.469,5.269-8.103,6.643c-2.634,1.375-2.405,1.947-2.405,1.947H36.155z"/>
			<path fill="#161616" d="M41.158,17.107c0,0,2.921,5.829,0.408,12.242l3.787-1.604l-2.098-12.598L41.158,17.107z"/>
			<path fill="#161616" d="M23.479,45.269c0,0,3.321,13.514,3.55,15.231h-8.246c0,0,2.176-6.299,0-6.986
				C18.783,53.514,24.509,57.637,23.479,45.269z"/>
			<path fill="#161616" d="M33.193,18.526c0,0,4.277-2.018,6.121-1.719C39.314,16.808,34.699,15.115,33.193,18.526z"/>
			<path fill="#161616" d="M41.566,17.457c0,0,2.552,5.767-0.096,7.197l-0.978,3.265l3.167-2.809
				C43.66,25.109,43.883,19.039,41.566,17.457z"/>
			<path fill="#161616" d="M35.995,30.563c0,0-1.223-3.667-1.563-4.363s-0.203-1.546-0.203-1.546s-0.479-2.065,1.021-3.316
				c1.4-0.394,0.746-1.172-1.261-1.838c-1.072-0.355-0.096-0.974-0.264-2.176c0,0-1.729,1.663-0.32,3.701v3.152
				C33.404,24.177,32.852,23.943,35.995,30.563z"/>
			<path fill="#161616" d="M37.823,21.513c0,0-0.188-1.062-0.563-1.137c0,0,2.31-0.574,4.107,0.299
				C41.368,20.675,37.761,24.113,37.823,21.513z"/>
			<polygon fill="#161616" points="41.938,26.688 39.625,26.688 35.995,31.75 			"/>
			<path fill="#161616" d="M18.438,58.606c0,0,1.611-4.476-1.996-5.722c0,0-1.927-7.393-1.947-13.868l-0.922-1.64v20.41
				c0,0,0.566,1.147,1.554,1.147s2.897-1.229,1.655-2.787s-1.655,0.737-1.655,0.737s0.603-2.868,1.656-1.803
				S18.22,55.41,18.438,58.606z"/>
			<path fill="#161616" d="M16.185,45.737l1.733,6.147c0,0,3.115,1.753,3.771,0.713s1.698-6.486,1.218-7.329
				s-3.84-5.104-1.627-6.416s-0.164-6.065-0.164-6.065s-0.468,4.263-2.044,5s-2.012,5.587-0.441,11.721
				c0.683,0.983,2.814-0.247,2.732-2.869s-1.436-0.901-1.866,0.738l0.737-3.115c0,0,1.784,0.738,1.702,2.132
				s-1.22,4.285-2.864,4.016s-2.287-9.986-2.287-9.986L16.185,45.737z"/>
		</g>
	</g>
	<path fill="#161616" d="M17.836,38.688c0,0-0.467-1.23-1.053-1.804s-0.586-0.819-0.586-2.049s-1.26-1.558-1.26-1.558
		s2.08-0.656,2.571,1.394v0.82l-0.726-1.066l1.299-3.032c0,0,0.819-0.989,1.639-2.134s0.41-2.292,0.41-2.292s1.025,2.705,0.103,3.36
		s-1.164,2.131-1.164,2.131l-0.441,1.64v0.655c0,0,0.518-3.115,1.584-3.606s1.312-1.888,1.312-1.888v-0.817
		c0,0,0.638,0.893,0.719,1.791c0.032,0.349-0.021,0.698-0.227,0.997c-0.738,1.065-1.051,2.529-1.051,2.529l-0.249,1.122L21.935,32
		l0.738-2.74c0,0,0.246,2.953,0,3.691s-0.656,2.335-0.656,2.335l1.311-4.303c0,0,0.328,1.885,0,2.336s-0.574,3.894-0.574,3.894
		s-4.141,2.786-3.915,4.754l0.231,2.787l-2.287-5L17.836,38.688z"/>
</g>
</svg>
