<?xml version="1.0" encoding="utf-8"?>
<!-- Generator: Adobe Illustrator 15.0.2, SVG Export Plug-In . SVG Version: 6.00 Build 0)  -->
<!DOCTYPE svg PUBLIC "-//W3C//DTD SVG 1.1//EN" "http://www.w3.org/Graphics/SVG/1.1/DTD/svg11.dtd">
<svg version="1.1" id="レイヤー_1" xmlns="http://www.w3.org/2000/svg" xmlns:xlink="http://www.w3.org/1999/xlink" x="0px"
	 y="0px" width="64px" height="64px" viewBox="0 0 64 64" style="enable-background:new 0 0 64 64;" xml:space="preserve">
<g>
	<path d="M49.2890625,27.0869141c-0.0761719-1.1054688-6.3789063-4.6054688-6.3789063-4.6054688l0.5253906-4.09375H32.1201172
		H20.5649414l0.765625,4.09375c0,0-6.5415039,3.4658203-6.6201172,4.6054688
		c-0.925293,13.4082031-0.4282227,19.9667969,2.4423828,26.9667969c4.1777344,1.6533203,25.5170898,1.6533203,29.6948242,0
		C49.71875,47.0537109,50.2148438,40.4951172,49.2890625,27.0869141z"/>
	<path style="fill:#898989;" d="M14.6450195,27.0869141l8.0449219-2.8388672l-4.0224609,19.0419922l-2.0585938,10.0117188
		c0,0,0.4882813,2.4033203-1.9638672-4.8867188V27.0869141z"/>
	<path style="fill:#353535;" d="M14.7104492,27.0869141l7.9794922-2.1601563l19.0678711,0.1289063l7.53125,1.359375
		l-4.9814453-2.9648438C44.3076172,23.4501953,20.6875,19.1279297,14.7104492,27.0869141z"/>
	<path d="M32.0004883,56.2128906c-5.7475586,0-12.7553711-0.3427734-15.1855469-1.3046875
		c-0.2324219-0.0917969-0.4174805-0.2744141-0.512207-0.5058594c-2.8852539-7.0351563-3.4711914-13.4326172-2.5087891-27.3789063
		c0.0273438-0.3955078,0.1088867-1.5771484,6.5097656-5.0341797l-0.6420898-3.4326172
		c-0.050293-0.2685547,0.0219727-0.5458984,0.1962891-0.7558594c0.1748047-0.2109375,0.4335938-0.3320313,0.7070313-0.3320313
		h22.8706055c0.2636719,0,0.515625,0.1132813,0.6894531,0.3115234c0.1748047,0.1982422,0.2558594,0.4619141,0.2216797,0.7246094
		l-0.4462891,3.4785156c6.1992188,3.5009766,6.2763672,4.6132813,6.3056641,5.0400391
		c0.9628906,13.9482422,0.3769531,20.3447266-2.5087891,27.3789063c-0.0947266,0.2314453-0.2792969,0.4140625-0.5117188,0.5058594
		C44.7558594,55.8701172,37.7480469,56.2128906,32.0004883,56.2128906z M17.8476563,53.3212891
		C19.9604492,53.9570313,25.5063477,54.375,32.0004883,54.375c6.4936523,0,12.0395508-0.4179688,14.1518555-1.0537109
		c2.6181641-6.5654297,3.1396484-12.7744141,2.2285156-26.0556641c-0.4628906-0.6738281-3.3847656-2.5742188-5.9169922-3.9804688
		c-0.328125-0.1826172-0.5126953-0.5478516-0.4648438-0.9208984l0.3925781-3.0576172H21.6713867l0.5625,3.0058594
		c0.0737305,0.3955078-0.1181641,0.7929688-0.4731445,0.9814453c-2.6303711,1.3935547-5.6645508,3.2880859-6.1416016,3.9726563
		C14.7080078,40.5458984,15.2294922,46.7539063,17.8476563,53.3212891z"/>
	<g>
		<path d="M49.1738281,11.3369141c4.3886719,3.5625,3.2558594,7.9287109,3.2558594,7.9287109l-1.9785156,2.3095703
			l-9.0957031-1.3164063l-0.1113281-2.7607422C38.1308594,16.5048828,34.3417969,16.0097656,32,16.0097656
			c-2.3408203,0-6.1289063,0.4951172-9.2436523,1.4882813l-0.1098633,2.7607422l-9.0961914,1.3164063l-1.9804688-2.3095703
			c0,0-1.1308594-4.3662109,3.2573242-7.9287109C21.7626953,9.3691406,26.3378906,8.5371094,32,8.5371094
			S42.2363281,9.3691406,49.1738281,11.3369141z"/>
		<path style="fill:#353535;" d="M22.6254883,16.9287109c0,0,0.2197266-2.6132813,5.7963867-3.4804688
			c5.5761719-0.8671875,10.6142578,0,10.6142578,0l2.9619141,3.4804688
			C41.9980469,16.9287109,28.2524414,14.7753906,22.6254883,16.9287109z"/>
		<path style="fill:#333333;" d="M52.2695313,19.8574219c-0.0712891-0.0195313-7.1494141-1.9228516-10.9970703-1.7470703
			l-0.0566406-1.2255859c4.0361328-0.1884766,11.0771484,1.7080078,11.375,1.7890625L52.2695313,19.8574219z"/>
		<path style="fill:#333333;" d="M11.6000977,19.8574219l-0.3212891-1.1835938
			c0.2973633-0.0820313,7.3388672-1.9765625,11.375-1.7890625l-0.0566406,1.2255859
			C18.7509766,17.9335938,11.6708984,19.8378906,11.6000977,19.8574219z"/>
		<path d="M50.4511719,22.3251953c-0.0351563,0-0.0712891-0.0029297-0.1074219-0.0078125l-9.0957031-1.3164063
			c-0.3574219-0.0517578-0.6269531-0.3515625-0.6416016-0.7119141l-0.0898438-2.2304688
			C37.4970703,17.1669922,34.0351563,16.7597656,32,16.7597656c-2.0341797,0-5.4951172,0.4072266-8.515625,1.2988281
			l-0.0883789,2.2294922c-0.0146484,0.3613281-0.2841797,0.6611328-0.6420898,0.7128906l-9.0961914,1.3164063
			c-0.253418,0.0380859-0.5097656-0.0595703-0.6767578-0.2539063l-1.9804688-2.3095703
			c-0.0742188-0.0869141-0.1279297-0.1894531-0.1567383-0.3007813c-0.0512695-0.1972656-1.1977539-4.8759766,3.5107422-8.6982422
			c0.0791016-0.0644531,0.1699219-0.1123047,0.2680664-0.1396484C21.984375,8.5273438,26.5317383,7.7871094,32,7.7871094
			c5.4667969,0,10.0146484,0.7402344,17.3789063,2.828125c0.0976563,0.0273438,0.1884766,0.0751953,0.2675781,0.1386719
			c4.7089844,3.8232422,3.5605469,8.5029297,3.5087891,8.7001953c-0.0283203,0.1103516-0.0820313,0.2128906-0.15625,0.2988281
			L51.0205078,22.0625C50.8769531,22.2304688,50.6679688,22.3251953,50.4511719,22.3251953z M12.2651367,18.9238281
			l1.5859375,1.8496094l8.0708008-1.1679688l0.0849609-2.1376953c0.0126953-0.3154297,0.2211914-0.5888672,0.5214844-0.6845703
			C25.8295898,15.7304688,29.6640625,15.2597656,32,15.2597656c2.3369141,0,6.1728516,0.4707031,9.4716797,1.5234375
			c0.3007813,0.0957031,0.5087891,0.3691406,0.5214844,0.6845703l0.0869141,2.1376953l8.0703125,1.1679688l1.5859375-1.8505859
			c0.1367188-0.7558594,0.4960938-4.0556641-2.9179688-6.9072266C41.6914063,10.0019531,37.2763672,9.2871094,32,9.2871094
			c-5.2773438,0-9.6923828,0.7148438-16.8173828,2.7285156C11.7861328,14.8535156,12.1347656,18.1777344,12.2651367,18.9238281z"/>
		
			<linearGradient id="SVGID_1_" gradientUnits="userSpaceOnUse" x1="75.9394531" y1="32.2402344" x2="92.9044876" y2="32.2402344" gradientTransform="matrix(0 -1 -1 0 64 95.328125)">
			<stop  offset="0" style="stop-color:#FFFFFF;stop-opacity:0"/>
			<stop  offset="1" style="stop-color:#FFFFFF"/>
		</linearGradient>
		<path style="fill:url(#SVGID_1_);" d="M48.0839844,12.3759766l-1.4980469,0.7353516
			c0,0-14.5859375-5.5517578-27.9799805,0.2373047l-3.1708984-0.5800781
			C15.4350586,12.7685547,30.8818359,6.4658203,48.0839844,12.3759766z"/>
	</g>
	<g>
		<g>
			<rect x="24.9643555" y="13.4482422" width="3.4575195" height="6.9599609"/>
			<path d="M28.421875,21.09375h-3.4575195c-0.3789063,0-0.6855469-0.3066406-0.6855469-0.6855469v-6.9599609
				c0-0.3789063,0.3066406-0.6855469,0.6855469-0.6855469h3.4575195c0.3789063,0,0.6855469,0.3066406,0.6855469,0.6855469v6.9599609
				C29.1074219,20.7871094,28.8007813,21.09375,28.421875,21.09375z M25.6499023,19.7226563h2.0864258v-5.5888672h-2.0864258
				V19.7226563z"/>
		</g>
		<g>
			<rect x="35.5791016" y="13.4482422" width="3.4570313" height="6.9599609"/>
			<path d="M39.0361328,21.09375h-3.4570313c-0.3789063,0-0.6855469-0.3066406-0.6855469-0.6855469v-6.9599609
				c0-0.3789063,0.3066406-0.6855469,0.6855469-0.6855469h3.4570313c0.3789063,0,0.6855469,0.3066406,0.6855469,0.6855469v6.9599609
				C39.7216797,20.7871094,39.4150391,21.09375,39.0361328,21.09375z M36.2646484,19.7226563h2.0859375v-5.5888672h-2.0859375
				V19.7226563z"/>
		</g>
	</g>
	<g>
		<path style="fill:#303030;" d="M43.0439453,27.1992188c-0.1386719-1.25-1.2822266-2.2724609-2.5390625-2.2724609H23.496582
			c-1.2573242,0-2.3999023,1.0224609-2.5395508,2.2724609l-2.0361328,18.2763672
			c-0.1396484,1.25,0.7753906,2.2724609,2.0327148,2.2724609H43.046875c1.2568359,0,2.171875-1.0224609,2.0332031-2.2724609
			L43.0439453,27.1992188z"/>
		<path style="fill:#1E1E1E;" d="M43.046875,48.4980469H20.9536133c-0.824707,0-1.5698242-0.3261719-2.0991211-0.9179688
			c-0.5292969-0.5908203-0.7705078-1.3681641-0.6787109-2.1875l2.0356445-18.2763672
			c0.1811523-1.6210938,1.6547852-2.9394531,3.2851563-2.9394531h17.0083008c1.6308594,0,3.1044922,1.3193359,3.2841797,2.9404297
			l2.0361328,18.2753906c0.0908203,0.8203125-0.1503906,1.5966797-0.6796875,2.1884766S43.8710938,48.4980469,43.046875,48.4980469z
			 M23.496582,25.6767578c-0.8754883,0-1.6967773,0.7353516-1.7944336,1.6064453l-2.0356445,18.2753906
			c-0.0439453,0.3896484,0.0649414,0.7529297,0.3056641,1.0214844c0.2412109,0.2695313,0.5893555,0.4179688,0.9814453,0.4179688
			H43.046875c0.3916016,0,0.7402344-0.1484375,0.9804688-0.4169922c0.2412109-0.2695313,0.3505859-0.6328125,0.3076172-1.0224609
			l-2.0361328-18.2763672c-0.0966797-0.8701172-0.9179688-1.6054688-1.7939453-1.6054688H23.496582z"/>
	</g>
	<g>
		<g>
			<g>
				<rect x="25.5141602" y="39.890625" style="fill:#FFFFFF;" width="4.1113281" height="4.1113281"/>
				<path d="M29.6254883,44.7060547h-4.1113281c-0.3891602,0-0.7041016-0.3154297-0.7041016-0.7041016V39.890625
					c0-0.3886719,0.3149414-0.7041016,0.7041016-0.7041016h4.1113281c0.3891602,0,0.7041016,0.3154297,0.7041016,0.7041016
					v4.1113281C30.3295898,44.390625,30.0146484,44.7060547,29.6254883,44.7060547z M26.2182617,43.2978516h2.703125v-2.703125
					h-2.703125V43.2978516z"/>
			</g>
			<g>
				<rect x="29.9438477" y="39.890625" style="fill:#FFFFFF;" width="4.1098633" height="4.1113281"/>
				<path d="M34.0537109,44.7060547h-4.1098633c-0.3891602,0-0.7041016-0.3154297-0.7041016-0.7041016V39.890625
					c0-0.3886719,0.3149414-0.7041016,0.7041016-0.7041016h4.1098633c0.3886719,0,0.7041016,0.3154297,0.7041016,0.7041016
					v4.1113281C34.7578125,44.390625,34.4423828,44.7060547,34.0537109,44.7060547z M30.6479492,43.2978516h2.7016602v-2.703125
					h-2.7016602V43.2978516z"/>
			</g>
			<g>
				<rect x="34.3720703" y="39.890625" style="fill:#FFFFFF;" width="4.1132813" height="4.1113281"/>
				<path d="M38.4853516,44.7060547h-4.1132813c-0.3886719,0-0.7041016-0.3154297-0.7041016-0.7041016V39.890625
					c0-0.3886719,0.3154297-0.7041016,0.7041016-0.7041016h4.1132813c0.3886719,0,0.7041016,0.3154297,0.7041016,0.7041016
					v4.1113281C39.1894531,44.390625,38.8740234,44.7060547,38.4853516,44.7060547z M35.0761719,43.2978516H37.78125v-2.703125
					h-2.7050781V43.2978516z"/>
			</g>
		</g>
		<g>
			<g>
				<rect x="25.5141602" y="35.6660156" style="fill:#FFFFFF;" width="4.1113281" height="4.1083984"/>
				<path d="M29.6254883,40.4785156h-4.1113281c-0.3891602,0-0.7041016-0.3154297-0.7041016-0.7041016v-4.1083984
					c0-0.3886719,0.3149414-0.7041016,0.7041016-0.7041016h4.1113281c0.3891602,0,0.7041016,0.3154297,0.7041016,0.7041016
					v4.1083984C30.3295898,40.1630859,30.0146484,40.4785156,29.6254883,40.4785156z M26.2182617,39.0703125h2.703125v-2.7001953
					h-2.703125V39.0703125z"/>
			</g>
			<g>
				<rect x="29.9438477" y="35.6660156" style="fill:#FFFFFF;" width="4.1098633" height="4.1083984"/>
				<path d="M34.0537109,40.4785156h-4.1098633c-0.3891602,0-0.7041016-0.3154297-0.7041016-0.7041016v-4.1083984
					c0-0.3886719,0.3149414-0.7041016,0.7041016-0.7041016h4.1098633c0.3886719,0,0.7041016,0.3154297,0.7041016,0.7041016
					v4.1083984C34.7578125,40.1630859,34.4423828,40.4785156,34.0537109,40.4785156z M30.6479492,39.0703125h2.7016602v-2.7001953
					h-2.7016602V39.0703125z"/>
			</g>
			<g>
				<rect x="34.3720703" y="35.6660156" style="fill:#FFFFFF;" width="4.1132813" height="4.1083984"/>
				<path d="M38.4853516,40.4785156h-4.1132813c-0.3886719,0-0.7041016-0.3154297-0.7041016-0.7041016v-4.1083984
					c0-0.3886719,0.3154297-0.7041016,0.7041016-0.7041016h4.1132813c0.3886719,0,0.7041016,0.3154297,0.7041016,0.7041016
					v4.1083984C39.1894531,40.1630859,38.8740234,40.4785156,38.4853516,40.4785156z M35.0761719,39.0703125H37.78125v-2.7001953
					h-2.7050781V39.0703125z"/>
			</g>
		</g>
		<g>
			<g>
				<rect x="25.5141602" y="31.4375" style="fill:#FFFFFF;" width="4.1113281" height="4.1123047"/>
				<path d="M29.6254883,36.2539063h-4.1113281c-0.3891602,0-0.7041016-0.3154297-0.7041016-0.7041016V31.4375
					c0-0.3896484,0.3149414-0.7041016,0.7041016-0.7041016h4.1113281c0.3891602,0,0.7041016,0.3144531,0.7041016,0.7041016
					v4.1123047C30.3295898,35.9384766,30.0146484,36.2539063,29.6254883,36.2539063z M26.2182617,34.8457031h2.703125v-2.7041016
					h-2.703125V34.8457031z"/>
			</g>
			<g>
				<rect x="29.9438477" y="31.4375" style="fill:#FFFFFF;" width="4.1098633" height="4.1123047"/>
				<path d="M34.0537109,36.2539063h-4.1098633c-0.3891602,0-0.7041016-0.3154297-0.7041016-0.7041016V31.4375
					c0-0.3896484,0.3149414-0.7041016,0.7041016-0.7041016h4.1098633c0.3886719,0,0.7041016,0.3144531,0.7041016,0.7041016
					v4.1123047C34.7578125,35.9384766,34.4423828,36.2539063,34.0537109,36.2539063z M30.6479492,34.8457031h2.7016602v-2.7041016
					h-2.7016602V34.8457031z"/>
			</g>
			<g>
				<rect x="34.3720703" y="31.4375" style="fill:#FFFFFF;" width="4.1132813" height="4.1123047"/>
				<path d="M38.4853516,36.2539063h-4.1132813c-0.3886719,0-0.7041016-0.3154297-0.7041016-0.7041016V31.4375
					c0-0.3896484,0.3154297-0.7041016,0.7041016-0.7041016h4.1132813c0.3886719,0,0.7041016,0.3144531,0.7041016,0.7041016
					v4.1123047C39.1894531,35.9384766,38.8740234,36.2539063,38.4853516,36.2539063z M35.0761719,34.8457031H37.78125v-2.7041016
					h-2.7050781V34.8457031z"/>
			</g>
		</g>
		<g>
			<g>
				<rect x="25.5141602" y="27.2099609" style="fill:#FFFFFF;" width="4.1113281" height="4.1113281"/>
				<path d="M29.6254883,32.0253906h-4.1113281c-0.3891602,0-0.7041016-0.3154297-0.7041016-0.7041016v-4.1113281
					c0-0.3896484,0.3149414-0.7041016,0.7041016-0.7041016h4.1113281c0.3891602,0,0.7041016,0.3144531,0.7041016,0.7041016
					v4.1113281C30.3295898,31.7099609,30.0146484,32.0253906,29.6254883,32.0253906z M26.2182617,30.6171875h2.703125v-2.703125
					h-2.703125V30.6171875z"/>
			</g>
			<g>
				<rect x="29.9438477" y="27.2099609" style="fill:#FFFFFF;" width="4.1098633" height="4.1113281"/>
				<path d="M34.0537109,32.0253906h-4.1098633c-0.3891602,0-0.7041016-0.3154297-0.7041016-0.7041016v-4.1113281
					c0-0.3896484,0.3149414-0.7041016,0.7041016-0.7041016h4.1098633c0.3886719,0,0.7041016,0.3144531,0.7041016,0.7041016
					v4.1113281C34.7578125,31.7099609,34.4423828,32.0253906,34.0537109,32.0253906z M30.6479492,30.6171875h2.7016602v-2.703125
					h-2.7016602V30.6171875z"/>
			</g>
			<g>
				<rect x="34.3720703" y="27.2099609" style="fill:#FFFFFF;" width="4.1132813" height="4.1113281"/>
				<path d="M38.4853516,32.0253906h-4.1132813c-0.3886719,0-0.7041016-0.3154297-0.7041016-0.7041016v-4.1113281
					c0-0.3896484,0.3154297-0.7041016,0.7041016-0.7041016h4.1132813c0.3886719,0,0.7041016,0.3144531,0.7041016,0.7041016
					v4.1113281C39.1894531,31.7099609,38.8740234,32.0253906,38.4853516,32.0253906z M35.0761719,30.6171875H37.78125v-2.703125
					h-2.7050781V30.6171875z"/>
			</g>
		</g>
	</g>
	<g>
		<line style="fill:#FFFFFF;" x1="21.2104492" y1="22.4814453" x2="42.7910156" y2="22.4814453"/>
		<path d="M42.7910156,23.4003906H21.2104492c-0.5073242,0-0.9189453-0.4111328-0.9189453-0.9189453
			c0-0.5068359,0.4116211-0.9189453,0.9189453-0.9189453h21.5805664c0.5078125,0,0.9189453,0.4121094,0.9189453,0.9189453
			C43.7099609,22.9892578,43.2988281,23.4003906,42.7910156,23.4003906z"/>
	</g>
</g>
</svg>
