<?xml version="1.0" encoding="UTF-8" standalone="no"?>
<!-- Generator: Adobe Illustrator 15.0.0, SVG Export Plug-In . SVG Version: 6.00 Build 0)  -->

<svg
   xmlns:dc="http://purl.org/dc/elements/1.1/"
   xmlns:cc="http://creativecommons.org/ns#"
   xmlns:rdf="http://www.w3.org/1999/02/22-rdf-syntax-ns#"
   xmlns:svg="http://www.w3.org/2000/svg"
   xmlns="http://www.w3.org/2000/svg"
   xmlns:xlink="http://www.w3.org/1999/xlink"
   xmlns:sodipodi="http://sodipodi.sourceforge.net/DTD/sodipodi-0.dtd"
   xmlns:inkscape="http://www.inkscape.org/namespaces/inkscape"
   version="1.1"
   id="レイヤー_1"
   x="0px"
   y="0px"
   width="64px"
   height="64px"
   viewBox="0 0 64 64"
   style="enable-background:new 0 0 64 64;"
   xml:space="preserve"
   inkscape:version="0.48.5 r10040"
   sodipodi:docname="black_joker.svg"><metadata
     id="metadata65"><rdf:RDF><cc:Work
         rdf:about=""><dc:format>image/svg+xml</dc:format><dc:type
           rdf:resource="http://purl.org/dc/dcmitype/StillImage" /></cc:Work></rdf:RDF></metadata><defs
     id="defs63" /><sodipodi:namedview
     pagecolor="#ffffff"
     bordercolor="#666666"
     borderopacity="1"
     objecttolerance="10"
     gridtolerance="10"
     guidetolerance="10"
     inkscape:pageopacity="0"
     inkscape:pageshadow="2"
     inkscape:window-width="640"
     inkscape:window-height="480"
     id="namedview61" /><g
     id="g3"><g
       id="g5"><path
         style="fill:#FFFFFF;"
         d="M51.84375,58.4042969c0,1.1523438-0.9433594,2.0957031-2.0957031,2.0957031H14.2519531    c-1.152832,0-2.0957031-0.9433594-2.0957031-2.0957031V5.5957031C12.15625,4.4428711,13.0991211,3.5,14.2519531,3.5h35.4960938    c1.1523438,0,2.0957031,0.9428711,2.0957031,2.0957031V58.4042969z"
         id="path7" /><path
         style="fill:#161616;"
         d="M49.7480469,61.25H14.2519531c-1.5693359,0-2.8457031-1.2763672-2.8457031-2.8457031V5.5957031    C11.40625,4.0263672,12.6826172,2.75,14.2519531,2.75h35.4960938c1.5693359,0,2.8457031,1.2763672,2.8457031,2.8457031v52.8085938    C52.59375,59.9736328,51.3173828,61.25,49.7480469,61.25z M14.2519531,4.25c-0.7421875,0-1.3457031,0.6035156-1.3457031,1.3457031    v52.8085938c0,0.7421875,0.6035156,1.3457031,1.3457031,1.3457031h35.4960938    c0.7421875,0,1.3457031-0.6035156,1.3457031-1.3457031V5.5957031C51.09375,4.8535156,50.4902344,4.25,49.7480469,4.25H14.2519531z    "
         id="path9" /></g><g
       id="g11"><path
         d="M19.0703125,6.1064453V6.347168h-0.4130859c-0.4125977,0-0.6191406,0.206543-0.6191406,0.6191406v3.7490234    c0,0.5966797-0.137207,1.0317383-0.4125977,1.3071289c-0.3666992,0.3666992-0.871582,0.550293-1.5131836,0.550293    c-0.5966797,0-1.0317383-0.1376953-1.3071289-0.4125977c-0.206543-0.206543-0.3095703-0.4584961-0.3095703-0.7568359    c0-0.2290039,0.0688477-0.4125977,0.206543-0.550293c0.137207-0.1376953,0.2866211-0.206543,0.4467773-0.206543    c0.1835938,0,0.3325195,0.0576172,0.4472656,0.1723633s0.171875,0.2636719,0.171875,0.4467773    c0,0.1606445-0.0571289,0.2983398-0.171875,0.4130859s-0.2636719,0.171875-0.4472656,0.171875    c-0.0683594,0-0.1494141-0.0117188-0.2407227-0.034668c0.1835938,0.3217773,0.5385742,0.4819336,1.0664063,0.4819336    c0.6650391,0,0.9975586-0.3442383,0.9975586-1.0322266V6.9663086c0-0.4125977-0.206543-0.6191406-0.6191406-0.6191406h-0.4125977    V6.1064453H19.0703125z"
         id="path13" /><path
         d="M18.0668945,13.5371094c0.3740234,0.375,0.5620117,0.8364258,0.5620117,1.3847656    s-0.1879883,1.0097656-0.5620117,1.3842773c-0.3344727,0.3344727-0.762207,0.5014648-1.2841797,0.5014648    c-0.5214844,0-0.949707-0.1669922-1.2836914-0.5014648c-0.375-0.3745117-0.5620117-0.8359375-0.5620117-1.3842773    s0.1870117-1.0097656,0.5620117-1.3847656c0.3339844-0.3339844,0.762207-0.5014648,1.2836914-0.5014648    C17.3046875,13.0356445,17.7324219,13.203125,18.0668945,13.5371094z M16.0805664,13.4970703    c-0.2944336,0.2944336-0.4414063,0.7695313-0.4414063,1.4248047s0.1469727,1.1303711,0.4414063,1.4243164    c0.2006836,0.2006836,0.4345703,0.3007813,0.7021484,0.3007813s0.5019531-0.1000977,0.7026367-0.3007813    c0.293457-0.2939453,0.4414063-0.769043,0.4414063-1.4243164s-0.1479492-1.1303711-0.4414063-1.4248047    c-0.2006836-0.2006836-0.4350586-0.3007813-0.7026367-0.3007813S16.28125,13.2963867,16.0805664,13.4970703z"
         id="path15" /><path
         d="M16.4716797,17.1865234v0.1401367h-0.2001953c-0.2412109,0-0.3613281,0.1206055-0.3613281,0.3613281v1.5449219    L17.375,17.7680664c0.1064453-0.1064453,0.1601563-0.1870117,0.1601563-0.2407227    c0-0.0532227-0.0200195-0.1000977-0.0600586-0.1401367c-0.0400391-0.0405273-0.1069336-0.0605469-0.2006836-0.0605469h-0.3007813    v-0.1401367h1.625v0.1401367h-0.0600586c-0.2680664,0-0.5288086,0.1206055-0.7827148,0.3613281l-0.8222656,0.8227539    l1.2636719,1.9663086c0.1469727,0.2275391,0.3339844,0.3408203,0.5620117,0.3408203h0.0800781v0.140625h-1.8056641v-0.140625    h0.2807617c0.1870117,0,0.2607422-0.0664063,0.2207031-0.2006836c-0.0136719-0.0400391-0.0400391-0.0932617-0.0800781-0.1601563    l-0.9428711-1.5249023l-0.6020508,0.6015625v0.9233398c0,0.2407227,0.1201172,0.3608398,0.3613281,0.3608398h0.2001953v0.140625    h-1.7451172v-0.140625h0.2001953c0.2412109,0,0.3613281-0.1201172,0.3613281-0.3608398v-2.769043    c0-0.2407227-0.1201172-0.3613281-0.3613281-0.3613281h-0.2001953v-0.1401367H16.4716797z"
         id="path17" /><path
         d="M18.277832,21.3378906l0.1000977,1.2436523h-0.140625c-0.0668945-0.347168-0.1875-0.6079102-0.3608398-0.7822266    c-0.2143555-0.2138672-0.5283203-0.3208008-0.9428711-0.3208008h-0.2612305c-0.2407227,0-0.3608398,0.1201172-0.3608398,0.3608398    v1.2236328h0.4213867c0.4008789,0,0.6015625-0.2133789,0.6015625-0.6416016v-0.2006836h0.140625v1.8657227h-0.140625v-0.2006836    c0-0.4272461-0.2006836-0.6420898-0.6015625-0.6420898h-0.4213867v1.3642578c0,0.2407227,0.1201172,0.3613281,0.3608398,0.3613281    h0.3413086c0.3344727,0,0.6220703-0.1206055,0.862793-0.3613281c0.2133789-0.2133789,0.3540039-0.5014648,0.4213867-0.862793    h0.1401367l-0.1401367,1.3642578h-3.1704102v-0.1401367h0.2006836c0.2407227,0,0.3613281-0.1206055,0.3613281-0.3613281    v-2.7685547c0-0.2407227-0.1206055-0.3608398-0.3613281-0.3608398h-0.2006836v-0.140625H18.277832z"
         id="path19" /><path
         d="M17.003418,25.487793c0.4951172,0,0.855957,0.1147461,1.0834961,0.3413086    c0.1606445,0.1601563,0.2407227,0.3608398,0.2407227,0.6015625c0,0.2148438-0.0800781,0.4013672-0.2407227,0.5615234    c-0.1875,0.1879883-0.4614258,0.3081055-0.8222656,0.3613281l0.7822266,1.4648438    c0.1206055,0.2001953,0.2875977,0.3007813,0.5014648,0.3007813h0.140625v0.140625h-1.1035156l-0.9428711-1.8862305h-0.5820313    v1.3842773c0,0.2407227,0.1206055,0.3613281,0.3613281,0.3613281h0.2006836v0.140625h-1.7456055v-0.140625h0.2006836    c0.2407227,0,0.3608398-0.1206055,0.3608398-0.3613281v-2.7685547c0-0.2407227-0.1201172-0.3608398-0.3608398-0.3608398    h-0.2006836v-0.140625H17.003418z M16.421875,25.628418c-0.2407227,0-0.3613281,0.1201172-0.3613281,0.3608398v1.2036133h0.722168    c0.2675781,0,0.4750977-0.0732422,0.6220703-0.2207031c0.1469727-0.1459961,0.2207031-0.3339844,0.2207031-0.5615234    c0-0.2138672-0.0673828-0.387207-0.2006836-0.5219727c-0.1738281-0.1728516-0.4550781-0.2602539-0.8427734-0.2602539H16.421875z"
         id="path21" /></g><g
       id="g23"><defs
         id="defs25"><rect
           id="SVGID_1_"
           x="12.15625"
           y="3.5"
           width="39.6875"
           height="57" /></defs><clipPath
         id="SVGID_2_"><use
           xlink:href="#SVGID_1_"
           style="overflow:visible;"
           id="use29" /></clipPath><g
         style="clip-path:url(#SVGID_2_);"
         id="g31"
         clip-path="url(#SVGID_2_)"><path
           style="fill:#161616;"
           d="M35.2636719,21.0209961c0,0-1.0302734-1.1313477-1.8320313-0.7368164     S34.0039063,22.394043,35.2636719,21.0209961z"
           id="path33" /><path
           style="fill:#161616;"
           d="M35.2929688,20.015625c0,0,2.0898438,0.8569336,0.703125,2.1274414     c-0.4785156,1.8837891-2.0078125,1.4614258-2.0078125,1.4614258l2.0068359,1.0493164L33.4042969,23.8125     C33.4042969,23.8125,35.6367188,23.565918,35.2929688,20.015625z"
           id="path35" /><path
           style="fill:#161616;"
           d="M33.8925781,24.3662109c0,0,2.1953125,4.2216797,7.578125-0.6591797     c0,0-1.8320313,2.9023438-4.9248047,3.5615234C36.5458984,27.2685547,34.6738281,27.1367188,33.8925781,24.3662109z"
           id="path37" /><path
           style="fill:#161616;"
           d="M39.3691406,17.2080078c0,0-0.3125,5.2841797,0,7.3295898     C39.3691406,24.5375977,37.5566406,21.5595703,39.3691406,17.2080078z"
           id="path39" /><path
           style="fill:#161616;"
           d="M32.1826172,35.7626953c0,0,2.7490234,3.5498047,0,12.8271484l-4.1855469,11.3378906     c0,0-1.8842773-12.4833984-3.7167969-15.3466797c0,0,2.940918-1.6035156,4.8491211-3.6650391s0-3.8935547,0-3.8935547     L32.1826172,35.7626953z"
           id="path41" /><path
           style="fill:#161616;"
           d="M31.1518555,60.5c0,0,8.2319336-4.0087891,10.4145508-10.3076172     C43.75,43.8935547,49.3037109,36.9082031,51.1650391,36.3349609v4.6953125c0,0-8.0166016,6.4140625-10.0068359,12.4833984     C39.1689453,59.5839844,34.2285156,60.5,34.2285156,60.5H31.1518555z"
           id="path43" /><path
           style="fill:#161616;"
           d="M36.1552734,60.5c0,0,6.2197266-1.3740234,7.8232422-5.7265625     c1.6035156-4.3515625,7.1865234-10.078125,7.1865234-10.078125v7.2148438c0,0-5.46875,5.2685547-8.1025391,6.6425781     C40.4287109,59.9277344,40.6572266,60.5,40.6572266,60.5H36.1552734z"
           id="path45" /><path
           style="fill:#161616;"
           d="M23.4785156,45.2685547c0,0,3.3212891,13.5136719,3.550293,15.2314453h-8.2456055     c0,0,2.1757813-6.2988281,0-6.9863281C18.7832031,53.5136719,24.5092773,57.6367188,23.4785156,45.2685547z"
           id="path47" /><path
           style="fill:#161616;"
           d="M33.1933594,18.5263672c0,0,4.2773438-2.0180664,6.1210938-1.71875     C39.3144531,16.8076172,34.6992188,15.1152344,33.1933594,18.5263672z"
           id="path49" /><path
           style="fill:#161616;"
           d="M35.9951172,30.5625c0,0-1.2226563-3.6669922-1.5634766-4.362793     s-0.203125-1.5458984-0.203125-1.5458984S33.75,22.5883789,35.2490234,21.3378906     c1.4003906-0.394043,0.7460938-1.171875-1.2607422-1.8378906c-1.0717773-0.3554688-0.0957031-0.9736328-0.2636719-2.1757813     c0,0-1.7285156,1.6630859-0.3203125,3.7006836v3.1518555C33.4042969,24.1767578,32.8520508,23.9433594,35.9951172,30.5625z"
           id="path51" /><path
           style="fill:#161616;"
           d="M37.8232422,21.5131836c0,0-0.1875-1.0615234-0.5625-1.137207     c0,0,2.3095703-0.5742188,4.1074219,0.2993164C41.3681641,20.675293,37.7607422,24.112793,37.8232422,21.5131836z"
           id="path53" /><path
           style="fill:#161616;"
           d="M59.7832031,18.4692383l-2.0615234-2.1669922l-2.2900391-7.3383789     c0,0-5.7265625-6.9863281-13.2851563-4.5810547c-3.5126953,1.1176758-5.2353516,3.769043-6.0859375,6.2890625     c-1.7675781-3.1137695-4.2670898-6.5507813-7.0844727-7.5488281c-5.4975586-1.9472656-10.1928711,7.2148438-9.3911133,9.6201172     l2.0615234,1.0307617l-0.9165039,1.4887695l2.6342773-1.4887695l-1.8325195-2.7490234     c0,0,3.9975586-6.0698242,6.465332-4.0083008c1.1787109,0.9848633,2.3666992,3.5361328,3.2885742,5.9345703l-2.15625-0.5517578     l-6.7958984,5.8647461l-1.6035156,3.2807617v3.1088867l2.2905273-4.487793     c2.7485352-3.1132813,10.1728516-1.4677734,10.1728516-1.4677734L34.0625,17.6923828l3.8242188-1.1308594     c1.5263672,0.4794922,2.8964844,1.4423828,3.9521484,2.3598633c0.3203125,1.0488281,0.640625,2.4902344,0.7216797,4.1728516     c-0.1533203,0.6660156-0.4794922,1.2299805-1.0898438,1.5595703L40.8613281,26.6875H39.625l-2.0341797,2.8364258     c-1.7548828,0.6547852-2.3417969-0.5185547-2.3417969-0.5185547l-8.2202148-1.2597656     c0,0,0.4584961,2.9780273,5.9555664,6.6430664C38.4814453,38.0527344,29.1293945,60.5,29.1293945,60.5     s7.9780273-4.4667969,11.0131836-12.9414063c3.0341797-8.4746094,11.0224609-13.1699219,11.0224609-13.1699219     s1.5175781-6.2993164-1.1162109-6.6430664c-2.6347656-0.3432617-5.4765625-5.1464844-5.4765625-5.1464844     c-0.0214844,0.0297852-0.0410156,0.0541992-0.0615234,0.0834961l-0.515625-3.0952148     c0.9726563-10.9287109,7.6572266-7.4169922,7.6572266-7.4169922l4.8095703,6.1845703l-1.0302734,3.5288086l3.0917969,0.715332     l-1.0302734-1.0541992L59.7832031,18.4692383z"
           id="path55" /><path
           style="fill:#161616;"
           d="M18.4379883,58.6064453c0,0,1.6108398-4.4755859-1.9956055-5.7216797     c0,0-1.9267578-7.3925781-1.9467773-13.8681641l-0.921875-1.6396484v20.4101563c0,0,0.5664063,1.1474609,1.5537109,1.1474609     s2.8969727-1.2294922,1.6552734-2.7871094s-1.6552734,0.7373047-1.6552734,0.7373047s0.6030273-2.8681641,1.6557617-1.8027344     S18.2202148,55.4101563,18.4379883,58.6064453z"
           id="path57" /></g></g><path
       style="fill:#161616;"
       d="M21.2788086,38.8525391c0.4545898-0.2695313,0.7080078-0.6875,0.8354492-1.1767578   c0.3823242-0.2900391,0.6396484-0.4628906,0.6396484-0.4628906s0.4418945-2.7568359,0.7695313-3.2080078   s-0.050293-2.578125-0.050293-2.578125l-1.456543,3.859375c0,0,0.409668-1.5976563,0.6557617-2.3354492   S23.125,29.2597656,23.125,29.2597656L21.9345703,32l-0.449707,1.0644531   c0.0756836-0.6860352,0.2280273-1.3964844,0.5317383-1.8349609c0.206543-0.2983398,0.2587891-0.6479492,0.2270508-0.996582   c-0.081543-0.8979492-0.7192383-1.7905273-0.7192383-1.7905273v0.8173828c0,0-0.2456055,1.3959961-1.3115234,1.8876953   s-1.5839844,3.6064453-1.5839844,3.6064453v-0.6552734l0.4414063-1.6396484c0,0,0.2412109-1.4755859,1.1635742-2.1313477   s-0.1025391-3.3603516-0.1025391-3.3603516s0.409668,1.1474609-0.4101563,2.2924805s-1.6391602,2.1337891-1.6391602,2.1337891   l-1.0146484,2.3671875c-0.7817383-0.90625-2.1303711-0.4824219-2.1303711-0.4824219s1.2597656,0.328125,1.2597656,1.5576172   s0,1.4755859,0.5859375,2.0488281s1.0532227,1.8037109,1.0532227,1.8037109l-1.0527344,1.0654297L17.6674805,41.6875   c-0.1010742,2.0634766,0.1835938,4.7832031,0.9614258,7.8203125c0.6826172,0.9833984,2.8139648-0.2470703,2.7319336-2.8691406   s-1.4360352-0.9013672-1.8657227,0.7382813l0.7373047-3.1152344c0,0,1.7841797,0.7382813,1.7021484,2.1318359   s-1.2202148,4.2851563-2.8642578,4.015625s-2.2871094-9.9863281-2.2871094-9.9863281l-0.5981445,5.3144531l1.7329102,6.1474609   c0,0,3.1147461,1.7529297,3.7705078,0.7128906s1.6977539-6.4863281,1.2177734-7.3291016   S19.065918,40.1640625,21.2788086,38.8525391z"
       id="path59" /></g></svg>