<?xml version="1.0" encoding="utf-8"?>
<!-- Generator: Adobe Illustrator 15.0.2, SVG Export Plug-In . SVG Version: 6.00 Build 0)  -->
<!DOCTYPE svg PUBLIC "-//W3C//DTD SVG 1.1//EN" "http://www.w3.org/Graphics/SVG/1.1/DTD/svg11.dtd">
<svg version="1.1" id="レイヤー_1" xmlns="http://www.w3.org/2000/svg" xmlns:xlink="http://www.w3.org/1999/xlink" x="0px"
	 y="0px" width="64px" height="64px" viewBox="0 0 64 64" enable-background="new 0 0 64 64" xml:space="preserve">
<g>
	<linearGradient id="SVGID_1_" gradientUnits="userSpaceOnUse" x1="13.7573" y1="7.731" x2="40.0903" y2="56.897">
		<stop  offset="0" style="stop-color:#FFFFFF"/>
		<stop  offset="0.0042" style="stop-color:#F6F6F6"/>
		<stop  offset="0.0275" style="stop-color:#C8C8C8"/>
		<stop  offset="0.0536" style="stop-color:#9D9D9D"/>
		<stop  offset="0.0817" style="stop-color:#777777"/>
		<stop  offset="0.1123" style="stop-color:#575757"/>
		<stop  offset="0.1461" style="stop-color:#3B3B3B"/>
		<stop  offset="0.1842" style="stop-color:#252525"/>
		<stop  offset="0.2288" style="stop-color:#141414"/>
		<stop  offset="0.2839" style="stop-color:#090909"/>
		<stop  offset="0.3612" style="stop-color:#020202"/>
		<stop  offset="0.5758" style="stop-color:#000000"/>
		<stop  offset="0.7196" style="stop-color:#060606"/>
		<stop  offset="0.91" style="stop-color:#171717"/>
		<stop  offset="1" style="stop-color:#212121"/>
	</linearGradient>
	<path fill="url(#SVGID_1_)" d="M43.752,32.042C40.994,25.926,32,6.459,32,6.459s-8.994,19.467-11.752,25.583
		C14.498,44.791,14.665,57.541,32,57.541C49.336,57.541,49.502,44.791,43.752,32.042z"/>
	<path fill="#FFFFFF" d="M24.427,30.199c-0.917-0.442,4.665-14.194,4.724-11.66C29.21,21.073,26.007,30.961,24.427,30.199z"/>
	<path opacity="0.21" fill="#FFFFFF" d="M39.249,54.209c-4.435,2.463-14.333,0.832-9.917-2.418
		c4.416-3.25,10.501-0.502,12.917-4.084S48.25,49.209,39.249,54.209z"/>
</g>
</svg>
