<?xml version="1.0" encoding="UTF-8"?>
<!-- Generated by phantom_svg. -->
<svg id="phantom_svg" width="64px" height="64px" xmlns="http://www.w3.org/2000/svg" xmlns:xlink="http://www.w3.org/1999/xlink" version="1.1">
  <defs>
    <!-- Images. -->
    <svg id="frame0" viewBox="0 0 64 64" preserveAspectRatio="none" xmlns="http://www.w3.org/2000/svg" xmlns:xlink="http://www.w3.org/1999/xlink">
      <path d="M52.6708984,28c-1.0869141-3-5.1210938-9.5742188-10.4013672-11.4482422l-0.2099609-0.1733398
	c-2.6748047-0.40625-5.2021484-0.8520508-7.0859375-0.8520508c-1.1572266,0-2.78125,0.0942383-3.5170898,1.175293
	c-0.4360352,0.640625-0.4702148,1.4262695-0.1005859,2.3632813c0.5786133,1.4707031,1.5771484,2.6933594,2.5317383,3.621582
	c-3.2700195-0.0830078-8.2099609-0.190918-9.9794922-0.1186523c-0.7988281,0.0322266-2.1962891,0.0458984-4.2724609,0.0458984
	c-1.8291016,0-3.9799805-0.0126953-6.1782227-0.0244141c-2.3007813-0.0126953-4.6538086-0.0258789-6.7451172-0.0258789
	l-0.2939453,0.043457c-1.7456055,0.5371094-2.9086914,2.3481445-2.7651367,4.3076172
	c0.1416016,1.9350586,1.6416016,4.2089844,5.4257813,4.7885742l12.1416016,0.0117188
	c-0.2788086,1.328125-0.4311523,3.3759766,0.6689453,5.0263672c-0.0820313,1.2519531-0.0927734,4.9941406,2.4262695,6.9980469
	c-0.2568359,0.6259766-0.4384766,1.4882813-0.0771484,2.3574219c0.4848633,1.1669922,1.7607422,1.8964844,3.793457,2.1679688
	c1.3076172,0.1738281,3.0400391,0.2285156,4.8769531,0.2285156C37.2939453,48.4931641,47.6601563,48,51.3574219,43H60V28H52.6708984
	z"/>
    </svg>
    <!-- Animation. -->
    <symbol id="animation">
      <use xlink:href="#frame0" visibility="hidden">
        <set id="frame0_anim" attributeName="visibility" to="visible" begin="0s;frame0_anim.end" dur="0.1s"/>
      </use>
    </symbol>
  </defs>
  <!-- Main control. -->
  <animate id="controller" begin="0s" dur="0.1s" repeatCount="indefinite"/>
  <use xlink:href="#frame0">
    <set attributeName="xlink:href" to="#animation" begin="controller.begin"/>
    <set attributeName="xlink:href" to="#frame0" begin="controller.end"/>
  </use>
</svg>