<?xml version="1.0" encoding="utf-8"?>
<!-- Generator: Adobe Illustrator 15.0.0, SVG Export Plug-In . SVG Version: 6.00 Build 0)  -->
<!DOCTYPE svg PUBLIC "-//W3C//DTD SVG 1.1//EN" "http://www.w3.org/Graphics/SVG/1.1/DTD/svg11.dtd">
<svg version="1.1" id="レイヤー_1" xmlns="http://www.w3.org/2000/svg" xmlns:xlink="http://www.w3.org/1999/xlink" x="0px"
	 y="0px" width="64px" height="64px" viewBox="0 0 64 64" style="enable-background:new 0 0 64 64;" xml:space="preserve">
<g>
	<g>
		<rect x="24.1572266" y="55.21875" style="fill:#2B2B2B;" width="15.6855469" height="1.984375"/>
		<path d="M40.3427734,57.703125H23.6572266V54.71875h16.6855469V57.703125z M24.6572266,56.703125h14.6855469V55.71875H24.6572266
			V56.703125z"/>
	</g>
	<g>
		<rect x="26.6103516" y="41.59375" style="fill:#2B2B2B;" width="10.7792969" height="1.984375"/>
		<path d="M37.8896484,44.078125H26.1103516V41.09375h11.7792969V44.078125z M27.1103516,43.078125h9.7792969V42.09375h-9.7792969
			V43.078125z"/>
	</g>
	<g>
		<rect x="28.2177734" y="20.0732422" style="fill:#2B2B2B;" width="7.5644531" height="2.8818359"/>
		<path d="M36.2822266,23.4550781h-8.5644531v-3.8818359h8.5644531V23.4550781z M28.7177734,22.4550781h6.5644531v-1.8818359
			h-6.5644531V22.4550781z"/>
	</g>
	<g>
		<path style="fill:#2B2B2B;" d="M36.1865234,47.90625c-0.1630859-0.8232422,0.6787109-1.5644531,0.6787109-2.4667969
			c-1.8925781,0-7.8203125,0-9.7294922,0c0,0.9023438,0.8398438,1.6435547,0.6757813,2.4667969
			c-0.4072266,2.0673828-2.7714844,3.28125-2.7714844,5.5507813c2.7070313,0,11.1865234,0,13.9199219,0
			C38.9599609,51.1875,36.5947266,49.9736328,36.1865234,47.90625z"/>
		<path d="M39.4599609,53.9570313H24.5400391v-0.5c0-1.4150391,0.7749023-2.4248047,1.5244141-3.4013672
			c0.5634766-0.734375,1.0952148-1.4277344,1.2563477-2.2460938c0.0551758-0.2763672-0.097168-0.5976563-0.2744141-0.9707031
			c-0.1923828-0.4052734-0.4106445-0.8642578-0.4106445-1.3994141v-0.5h10.7294922v0.5
			c0,0.5351563-0.21875,0.9951172-0.4121094,1.4013672c-0.1777344,0.3720703-0.3310547,0.6933594-0.2763672,0.96875
			c0.1621094,0.8183594,0.6943359,1.5117188,1.2578125,2.2451172c0.75,0.9775391,1.5253906,1.9873047,1.5253906,3.4023438
			V53.9570313z M25.5869141,52.9570313h12.8261719c-0.1591797-0.8447266-0.7021484-1.5517578-1.2714844-2.2929688
			c-0.609375-0.7929688-1.2382813-1.6132813-1.4453125-2.6611328c-0.1191406-0.5996094,0.1318359-1.1269531,0.3535156-1.5927734
			c0.0771484-0.1611328,0.1513672-0.3173828,0.2089844-0.4707031h-8.5170898
			c0.0571289,0.1533203,0.1318359,0.3095703,0.2080078,0.4707031c0.2211914,0.4658203,0.4716797,0.9931641,0.3520508,1.59375
			c-0.2060547,1.046875-0.8354492,1.8671875-1.4438477,2.6601563C26.2890625,51.4052734,25.746582,52.1132813,25.5869141,52.9570313
			z"/>
	</g>
	<g>
		<path style="fill:#2B2B2B;" d="M35.46875,24.8291016c-1.3496094,0-5.5761719,0-6.9375,0
			c0,1.6777344-1.4941406,10.6992188-1.4941406,14.9228516c1.9306641,0,7.9775391,0,9.9257813,0
			C36.9628906,35.5283203,35.46875,26.5068359,35.46875,24.8291016z"/>
		<path d="M37.4628906,40.2519531H26.5371094v-0.5c0-2.6230469,0.5551758-6.9624023,1.0009766-10.4492188
			c0.2646484-2.0693359,0.4931641-3.8569336,0.4931641-4.4736328v-0.5h7.9375v0.5
			c0,0.6166992,0.2285156,2.4042969,0.4931641,4.4736328c0.4462891,3.4868164,1.0009766,7.8261719,1.0009766,10.4492188V40.2519531z
			 M27.543457,39.2519531h8.9135742c-0.0625-2.59375-0.5722656-6.5800781-0.9873047-9.8222656
			c-0.2265625-1.7724609-0.4140625-3.2431641-0.4775391-4.1005859h-5.9838867
			c-0.0634766,0.8574219-0.2519531,2.328125-0.4785156,4.1005859C28.1152344,32.671875,27.6054688,36.6582031,27.543457,39.2519531z
			"/>
	</g>
	<path d="M32.0004883,26.1953125H34.125l1.6572266,12.1679688h-3.5908203
		C32.1914063,38.3632813,32.9438477,34.0761719,32.0004883,26.1953125z"/>
	<path d="M32.0004883,51.8193359h4.4614258c0,0-2.7910156-2.9814453-1.234375-5.0761719h-3.2270508
		C32.0004883,46.7431641,33.8242188,49.4013672,32.0004883,51.8193359z"/>
	<g>
		<polygon style="fill:#2B2B2B;" points="35.7480469,6.796875 35.7480469,9.6289063 33.3613281,9.6289063 33.3613281,6.796875 
			30.6376953,6.796875 30.6376953,9.6289063 28.2519531,9.6289063 28.2519531,6.796875 25.5283203,6.796875 25.5283203,11.6318359 
			25.5283203,11.6318359 38.4716797,11.6318359 38.4716797,11.6318359 38.4716797,6.796875 		"/>
		<path d="M38.9716797,12.1318359H25.0283203V6.296875h3.7236328v2.8320313h1.3857422V6.296875h3.7236328v2.8320313h1.3867188
			V6.296875h3.7236328V12.1318359z M26.0283203,11.1318359h11.9433594V7.296875h-1.7236328v2.8320313h-3.3867188V7.296875
			h-1.7236328v2.8320313h-3.3857422V7.296875h-1.7236328V11.1318359z"/>
	</g>
	<g>
		<polygon style="fill:#2B2B2B;" points="35.7822266,18.1367188 28.2177734,18.1367188 25.6508789,13.7050781 
			38.4550781,13.7050781 		"/>
		<path d="M36.0644531,18.6367188h-8.1347656l-3.1464844-5.4316406h14.5576172L36.0644531,18.6367188z M28.5058594,17.6367188H35.5
			l2.0693359-3.4316406H26.5180664L28.5058594,17.6367188z"/>
	</g>
</g>
</svg>
