<?xml version="1.0" encoding="utf-8"?>
<!-- Generator: Adobe Illustrator 15.0.0, SVG Export Plug-In . SVG Version: 6.00 Build 0)  -->
<!DOCTYPE svg PUBLIC "-//W3C//DTD SVG 1.1//EN" "http://www.w3.org/Graphics/SVG/1.1/DTD/svg11.dtd">
<svg version="1.1" id="レイヤー_1" xmlns="http://www.w3.org/2000/svg" xmlns:xlink="http://www.w3.org/1999/xlink" x="0px"
	 y="0px" width="64px" height="64px" viewBox="0 0 64 64" style="enable-background:new 0 0 64 64;" xml:space="preserve">
<g>
	
		<rect x="10.7923203" y="10.7923203" transform="matrix(0.7071068 -0.7071068 0.7071068 0.7071068 -13.2548332 32)" width="42.4153595" height="42.4153595"/>
	<path d="M32,62.9921875c-0.2558594,0-0.5117188-0.0976563-0.7070313-0.2929688L1.3007813,32.7070313
		c-0.390625-0.390625-0.390625-1.0234375,0-1.4140625L31.2929688,1.3007813c0.390625-0.390625,1.0234375-0.390625,1.4140625,0
		l29.9921875,29.9921875c0.390625,0.390625,0.390625,1.0234375,0,1.4140625L32.7070313,62.6992188
		C32.5117188,62.8945313,32.2558594,62.9921875,32,62.9921875z M3.421875,32L32,60.578125L60.578125,32L32,3.421875L3.421875,32z"/>
</g>
<g>
	<polygon style="fill:#FFFFFF;" points="40.9150391,35.7451172 40.9150391,17.2675781 36.2509766,17.2675781 36.2509766,35.7451172 
		31.2099609,33.6757813 38.5830078,46.7324219 45.9560547,33.6757813 	"/>
	<polygon style="fill:#FFFFFF;" points="23.0839844,28.2553711 23.0839844,46.7314453 27.7480469,46.7314453 27.7480469,28.2553711 
		32.7880859,30.3251953 25.4160156,17.2685547 18.0439453,30.3251953 	"/>
</g>
</svg>
