<?xml version="1.0" encoding="utf-8"?>
<!-- Generator: Adobe Illustrator 15.0.2, SVG Export Plug-In . SVG Version: 6.00 Build 0)  -->
<!DOCTYPE svg PUBLIC "-//W3C//DTD SVG 1.1//EN" "http://www.w3.org/Graphics/SVG/1.1/DTD/svg11.dtd">
<svg version="1.1" id="レイヤー_1" xmlns="http://www.w3.org/2000/svg" xmlns:xlink="http://www.w3.org/1999/xlink" x="0px"
	 y="0px" width="64px" height="64px" viewBox="0 0 64 64" enable-background="new 0 0 64 64" xml:space="preserve">
<g>
	<g>
		<linearGradient id="SVGID_1_" gradientUnits="userSpaceOnUse" x1="49.3398" y1="18.1411" x2="60.3943" y2="25.984">
			<stop  offset="0" style="stop-color:#5E5E5E"/>
			<stop  offset="0.9091" style="stop-color:#171717"/>
			<stop  offset="1" style="stop-color:#6E6E6E"/>
		</linearGradient>
		<path fill="url(#SVGID_1_)" stroke="#141516" stroke-width="0.9553" stroke-miterlimit="1" d="M47.523,18.793
			c0,0,7.88,3.901,13.214,5.493"/>
		<linearGradient id="SVGID_2_" gradientUnits="userSpaceOnUse" x1="4.7236" y1="9.0859" x2="59.7299" y2="30.4994">
			<stop  offset="0" style="stop-color:#7E7E7E"/>
			<stop  offset="0.0645" style="stop-color:#5E5E5E"/>
			<stop  offset="0.1397" style="stop-color:#414141"/>
			<stop  offset="0.2237" style="stop-color:#292929"/>
			<stop  offset="0.3186" style="stop-color:#171717"/>
			<stop  offset="0.4307" style="stop-color:#0A0A0A"/>
			<stop  offset="0.5763" style="stop-color:#020202"/>
			<stop  offset="0.8788" style="stop-color:#000000"/>
			<stop  offset="1" style="stop-color:#6E6E6E"/>
		</linearGradient>
		<path fill="url(#SVGID_2_)" stroke="#141516" stroke-width="0.9763" stroke-miterlimit="1" d="M59.782,15.052
			C51.822,7.412,32.011,7.25,32,7.25l0,0h0l0,0l0,0c-0.01,0-19.823,0.162-27.782,7.802c0,0-3.105,4.935-0.956,9.234l3.583,2.547
			l9.473-4.378l0.16-3.662c0,0,8.518-2.547,15.523-2.547c7.005,0,15.523,2.547,15.523,2.547l0.159,3.662l9.473,4.378l3.582-2.547
			C62.887,19.987,59.782,15.052,59.782,15.052z"/>
		<path fill="none" stroke="#141516" stroke-width="0.9763" stroke-miterlimit="1" d="M3.262,24.286c0,0,8.757-4.777,13.215-5.493"
			/>
		<path fill="none" stroke="#141516" stroke-width="0.9763" stroke-miterlimit="1" d="M47.523,18.793c0,0,5.174,1.193,13.214,5.493"
			/>
		<linearGradient id="SVGID_3_" gradientUnits="userSpaceOnUse" x1="6.5029" y1="14.7783" x2="35.4001" y2="10.3205">
			<stop  offset="0" style="stop-color:#FFFFFF"/>
			<stop  offset="1" style="stop-color:#FFFFFF;stop-opacity:0"/>
		</linearGradient>
		<path fill="url(#SVGID_3_)" d="M7.958,15.451l-1.83-0.716c0,0,14.01-9.633,39.006-4.538c0,0,4.378,1.671,0,1.433
			S24.357,7.888,7.958,15.451z"/>
	</g>
	<linearGradient id="SVGID_4_" gradientUnits="userSpaceOnUse" x1="32" y1="6.2202" x2="32" y2="60.0335">
		<stop  offset="0" style="stop-color:#7E7E7E"/>
		<stop  offset="0.0645" style="stop-color:#5E5E5E"/>
		<stop  offset="0.1397" style="stop-color:#414141"/>
		<stop  offset="0.2237" style="stop-color:#292929"/>
		<stop  offset="0.3186" style="stop-color:#171717"/>
		<stop  offset="0.4307" style="stop-color:#0A0A0A"/>
		<stop  offset="0.5763" style="stop-color:#020202"/>
		<stop  offset="0.8788" style="stop-color:#000000"/>
		<stop  offset="1" style="stop-color:#6E6E6E"/>
	</linearGradient>
	<path fill="url(#SVGID_4_)" stroke="#141516" stroke-width="1.022" stroke-miterlimit="1" d="M56,39.078l-4.75-4.789l-7.167-20.282
		l-5-1.479l-1.5,3.83c-2.082-0.522-5.577-0.827-5.583-0.827l0,0h0l0,0l0,0c-0.005,0-3.5,0.305-5.583,0.827l-1.5-3.83l-5,1.479
		L12.75,34.289L8,39.078c0,0-1.751,1.131-2.167,3.482l-0.916,7.92l1.166,1.131c0,0,11.25,3.834,25.917,3.834
		c15.787,0,25.917-3.834,25.917-3.834l1.166-1.131l-0.916-7.92C57.751,40.209,56,39.078,56,39.078z"/>
	<path stroke="#000000" stroke-width="0.9741" stroke-miterlimit="1" d="M32,20.759c-6.725,0-12.176,5.451-12.176,12.175
		c0,6.726,5.451,12.175,12.176,12.175c6.726,0,12.176-5.449,12.176-12.175C44.176,26.21,38.726,20.759,32,20.759z M32,40.158
		c-3.99,0-7.225-3.232-7.225-7.222c0-3.991,3.234-7.226,7.225-7.226s7.225,3.234,7.225,7.226C39.225,36.926,35.99,40.158,32,40.158z
		"/>
	<circle fill="#C9BC95" stroke="#141516" stroke-width="0.8657" stroke-miterlimit="1" cx="32.211" cy="31.96" r="7.044"/>
	<g>
		<path fill="none" stroke="#141516" stroke-width="0.8657" stroke-miterlimit="1" d="M32,19.785
			c-6.725,0-12.176,5.451-12.176,12.174c0,6.726,5.451,12.175,12.176,12.175c6.726,0,12.176-5.449,12.176-12.175
			C44.176,25.236,38.726,19.785,32,19.785z M37.813,22.905c1.012,0,1.83,0.819,1.83,1.83c0,1.011-0.818,1.83-1.83,1.83
			c-1.011,0-1.83-0.819-1.83-1.83C35.982,23.725,36.802,22.905,37.813,22.905z M33.83,21.076c1.012,0,1.831,0.819,1.831,1.83
			c0,1.012-0.819,1.83-1.831,1.83c-1.01,0-1.83-0.818-1.83-1.83C32,21.895,32.82,21.076,33.83,21.076z M29.497,21.076
			c1.012,0,1.831,0.819,1.831,1.83c0,1.011-0.819,1.83-1.831,1.83c-1.01,0-1.83-0.818-1.83-1.83
			C27.667,21.896,28.487,21.076,29.497,21.076z M25.837,23.119c1.011,0,1.83,0.819,1.83,1.83c0,1.011-0.819,1.83-1.83,1.83
			c-1.011,0-1.831-0.818-1.831-1.83C24.006,23.938,24.826,23.119,25.837,23.119z M23.48,26.567c1.011,0,1.83,0.819,1.83,1.83
			s-0.819,1.829-1.83,1.829c-1.011,0-1.831-0.818-1.831-1.829S22.47,26.567,23.48,26.567z M21.011,32.529
			c0-1.01,0.82-1.83,1.83-1.83c1.012,0,1.831,0.82,1.831,1.83c0,1.012-0.819,1.829-1.831,1.829
			C21.831,34.357,21.011,33.541,21.011,32.529z M24.007,38.455c-1.012,0-1.831-0.818-1.831-1.83c0-1.008,0.819-1.828,1.831-1.828
			c1.011,0,1.829,0.82,1.829,1.828C25.836,37.637,25.019,38.455,24.007,38.455z M27.142,41.316c-1.012,0-1.831-0.818-1.831-1.83
			c0-1.01,0.819-1.83,1.831-1.83c1.011,0,1.829,0.82,1.829,1.83C28.971,40.498,28.153,41.316,27.142,41.316z M31.328,43.146
			c-1.012,0-1.831-0.818-1.831-1.83c0-1.01,0.819-1.83,1.831-1.83c1.011,0,1.829,0.82,1.829,1.83
			C33.157,42.328,32.339,43.146,31.328,43.146z M32.328,38.381c-3.546,0-6.421-2.873-6.421-6.419c0-3.545,2.875-6.421,6.421-6.421
			c3.547,0,6.421,2.876,6.421,6.421C38.749,35.508,35.875,38.381,32.328,38.381z M40.793,30.104c-1.011,0-1.83-0.818-1.83-1.83
			c0-1.01,0.819-1.83,1.83-1.83c1.012,0,1.83,0.82,1.83,1.83C42.623,29.286,41.805,30.104,40.793,30.104z"/>
		<linearGradient id="SVGID_5_" gradientUnits="userSpaceOnUse" x1="27.8579" y1="28.7798" x2="72.356" y2="62.9454">
			<stop  offset="0" style="stop-color:#DFDFDF"/>
			<stop  offset="0.0065" style="stop-color:#D8D8D8"/>
			<stop  offset="0.0526" style="stop-color:#ABABAB"/>
			<stop  offset="0.1032" style="stop-color:#828282"/>
			<stop  offset="0.1573" style="stop-color:#5F5F5F"/>
			<stop  offset="0.2158" style="stop-color:#414141"/>
			<stop  offset="0.2802" style="stop-color:#292929"/>
			<stop  offset="0.353" style="stop-color:#171717"/>
			<stop  offset="0.4387" style="stop-color:#0A0A0A"/>
			<stop  offset="0.5502" style="stop-color:#020202"/>
			<stop  offset="0.7818" style="stop-color:#000000"/>
			<stop  offset="0.7924" style="stop-color:#181818"/>
			<stop  offset="0.8073" style="stop-color:#333333"/>
			<stop  offset="0.8244" style="stop-color:#494949"/>
			<stop  offset="0.8443" style="stop-color:#5A5A5A"/>
			<stop  offset="0.8691" style="stop-color:#656565"/>
			<stop  offset="0.9037" style="stop-color:#6C6C6C"/>
			<stop  offset="1" style="stop-color:#6E6E6E"/>
		</linearGradient>
		<path fill="url(#SVGID_5_)" d="M32,19.785c-6.725,0-12.176,5.451-12.176,12.174c0,6.726,5.451,12.175,12.176,12.175
			c6.726,0,12.176-5.449,12.176-12.175C44.176,25.236,38.726,19.785,32,19.785z M37.813,22.905c1.012,0,1.83,0.819,1.83,1.83
			c0,1.011-0.818,1.83-1.83,1.83c-1.011,0-1.83-0.819-1.83-1.83C35.982,23.725,36.802,22.905,37.813,22.905z M33.83,21.076
			c1.012,0,1.831,0.819,1.831,1.83c0,1.012-0.819,1.83-1.831,1.83c-1.01,0-1.83-0.818-1.83-1.83
			C32,21.895,32.82,21.076,33.83,21.076z M29.497,21.076c1.012,0,1.831,0.819,1.831,1.83c0,1.011-0.819,1.83-1.831,1.83
			c-1.01,0-1.83-0.818-1.83-1.83C27.667,21.896,28.487,21.076,29.497,21.076z M25.837,23.119c1.011,0,1.83,0.819,1.83,1.83
			c0,1.011-0.819,1.83-1.83,1.83c-1.011,0-1.831-0.818-1.831-1.83C24.006,23.938,24.826,23.119,25.837,23.119z M23.48,26.567
			c1.011,0,1.83,0.819,1.83,1.83s-0.819,1.829-1.83,1.829c-1.011,0-1.831-0.818-1.831-1.829S22.47,26.567,23.48,26.567z
			 M21.011,32.529c0-1.01,0.82-1.83,1.83-1.83c1.012,0,1.831,0.82,1.831,1.83c0,1.012-0.819,1.829-1.831,1.829
			C21.831,34.357,21.011,33.541,21.011,32.529z M24.007,38.455c-1.012,0-1.831-0.818-1.831-1.83c0-1.008,0.819-1.828,1.831-1.828
			c1.011,0,1.829,0.82,1.829,1.828C25.836,37.637,25.019,38.455,24.007,38.455z M27.142,41.316c-1.012,0-1.831-0.818-1.831-1.83
			c0-1.01,0.819-1.83,1.831-1.83c1.011,0,1.829,0.82,1.829,1.83C28.971,40.498,28.153,41.316,27.142,41.316z M31.328,43.146
			c-1.012,0-1.831-0.818-1.831-1.83c0-1.01,0.819-1.83,1.831-1.83c1.011,0,1.829,0.82,1.829,1.83
			C33.157,42.328,32.339,43.146,31.328,43.146z M32.328,38.381c-3.546,0-6.421-2.873-6.421-6.419c0-3.545,2.875-6.421,6.421-6.421
			c3.547,0,6.421,2.876,6.421,6.421C38.749,35.508,35.875,38.381,32.328,38.381z M40.793,30.104c-1.011,0-1.83-0.818-1.83-1.83
			c0-1.01,0.819-1.83,1.83-1.83c1.012,0,1.83,0.82,1.83,1.83C42.623,29.286,41.805,30.104,40.793,30.104z"/>
	</g>
	<path fill="#FFFFFF" d="M34.334,36.295L41,43.611l3.176-2.859l-2.217-1.791c0,0-3.752,0.75-6.375-3.6L34.334,36.295z"/>
	<linearGradient id="SVGID_6_" gradientUnits="userSpaceOnUse" x1="9.4028" y1="47.1973" x2="42.847" y2="42.038">
		<stop  offset="0" style="stop-color:#FFFFFF"/>
		<stop  offset="1" style="stop-color:#FFFFFF;stop-opacity:0"/>
	</linearGradient>
	<path fill="url(#SVGID_6_)" d="M8.167,41.945c0,0,18.167,12.25,48,0C56.167,41.945,30.5,57.443,8.167,41.945z"/>
</g>
</svg>
