<?xml version="1.0" encoding="utf-8"?>
<!-- Generator: Adobe Illustrator 15.0.0, SVG Export Plug-In . SVG Version: 6.00 Build 0)  -->
<!DOCTYPE svg PUBLIC "-//W3C//DTD SVG 1.1//EN" "http://www.w3.org/Graphics/SVG/1.1/DTD/svg11.dtd">
<svg version="1.1" id="レイヤー_1" xmlns="http://www.w3.org/2000/svg" xmlns:xlink="http://www.w3.org/1999/xlink" x="0px"
	 y="0px" width="64px" height="64px" viewBox="0 0 64 64" style="enable-background:new 0 0 64 64;" xml:space="preserve">
<g>
	<g>
		
			<rect x="10.7923203" y="10.7923203" transform="matrix(0.7071068 -0.7071068 0.7071068 0.7071068 -13.2548332 32)" width="42.4153595" height="42.4153595"/>
		<path d="M32,62.9619141c-0.2480469,0-0.4960938-0.0947266-0.6855469-0.2841797L1.3222656,32.6855469
			c-0.3789063-0.378418-0.3789063-0.9926758,0-1.3710938L31.3144531,1.3222656c0.3789063-0.3789063,0.9921875-0.3789063,1.3710938,0
			l29.9921875,29.9921875c0.3789063,0.378418,0.3789063,0.9926758,0,1.3710938L32.6855469,62.6777344
			C32.4960938,62.8671875,32.2480469,62.9619141,32,62.9619141z M3.3789063,32L32,60.6210938L60.6210938,32L32,3.3789063
			L3.3789063,32z"/>
	</g>
	<g>
		<polygon style="fill:#FFFFFF;" points="29.6674805,24.7880859 29.6674805,50.1992188 34.3320313,50.1992188 
			34.3320313,24.7880859 39.3730469,26.8574219 31.9995117,13.8007813 24.6274414,26.8574219 		"/>
		<path style="fill:#FFFFFF;" d="M20.6425781,44.9755859l-0.6303711-3.9492188
			c0.4013672-0.0683594,9.8237305-1.8125,9.8237305-14.8271484h4
			C33.8359375,42.7207031,20.7744141,44.9550781,20.6425781,44.9755859z"/>
	</g>
</g>
</svg>
