<?xml version="1.0" encoding="utf-8"?>
<!-- Generator: Adobe Illustrator 15.0.2, SVG Export Plug-In . SVG Version: 6.00 Build 0)  -->
<!DOCTYPE svg PUBLIC "-//W3C//DTD SVG 1.1//EN" "http://www.w3.org/Graphics/SVG/1.1/DTD/svg11.dtd">
<svg version="1.1" id="レイヤー_1" xmlns="http://www.w3.org/2000/svg" xmlns:xlink="http://www.w3.org/1999/xlink" x="0px"
	 y="0px" width="64px" height="64px" viewBox="0 0 64 64" enable-background="new 0 0 64 64" xml:space="preserve">
<g>
	<g>
		
			<linearGradient id="SVGID_1_" gradientUnits="userSpaceOnUse" x1="62.0391" y1="76.2324" x2="62.0391" y2="36.3618" gradientTransform="matrix(1 0 0 -1 -27.1987 79.918)">
			<stop  offset="0" style="stop-color:#FFFFFF"/>
			<stop  offset="0.1649" style="stop-color:#FDFDFD"/>
			<stop  offset="0.2244" style="stop-color:#F6F6F6"/>
			<stop  offset="0.2667" style="stop-color:#EBEBEB"/>
			<stop  offset="0.301" style="stop-color:#DADADA"/>
			<stop  offset="0.3303" style="stop-color:#C4C4C4"/>
			<stop  offset="0.3563" style="stop-color:#A8A8A8"/>
			<stop  offset="0.3798" style="stop-color:#888888"/>
			<stop  offset="0.4007" style="stop-color:#646464"/>
			<stop  offset="0.4061" style="stop-color:#595959"/>
			<stop  offset="1" style="stop-color:#DEDEDE"/>
		</linearGradient>
		<path fill="url(#SVGID_1_)" stroke="#3D809B" stroke-width="0.3912" stroke-miterlimit="10" d="M38.145,36.848
			c0,0-0.979-4.304-3.031-6.651V4.277l-1.477,2.445c0,0-2.103,7.911-2.1,14.367c0.003,4.597,0.348,11.357,0.348,11.357l2.535,4.401
			H38.145z"/>
		<path fill="#044770" stroke="#044770" stroke-width="0.2419" stroke-miterlimit="10" d="M48.207,52.155l0.018,0.013
			c0-5.645-4.527-8.567-7.449-10.382c-2.924-1.814-2.621-4.938-2.621-4.938h-3.84l0.002,15.786c0,4.704,3.113,8.517,6.955,8.517
			c3.84,0,6.953-3.813,6.953-8.517C48.225,52.472,48.213,52.314,48.207,52.155z M36.168,52.634c0-3.452,2.285-6.25,5.102-6.25
			c2.82,0,5.105,2.798,5.105,6.25s-2.285,6.25-5.104,6.25S36.168,56.086,36.168,52.634z"/>
	</g>
	<g>
		
			<linearGradient id="SVGID_2_" gradientUnits="userSpaceOnUse" x1="26.998" y1="80.7051" x2="26.998" y2="40.8344" gradientTransform="matrix(-0.7071 -0.7071 0.7071 -0.7071 14.6684 87.0782)">
			<stop  offset="0" style="stop-color:#FFFFFF"/>
			<stop  offset="0.1649" style="stop-color:#FDFDFD"/>
			<stop  offset="0.2244" style="stop-color:#F6F6F6"/>
			<stop  offset="0.2667" style="stop-color:#EBEBEB"/>
			<stop  offset="0.301" style="stop-color:#DADADA"/>
			<stop  offset="0.3303" style="stop-color:#C4C4C4"/>
			<stop  offset="0.3563" style="stop-color:#A8A8A8"/>
			<stop  offset="0.3798" style="stop-color:#888888"/>
			<stop  offset="0.4007" style="stop-color:#646464"/>
			<stop  offset="0.4061" style="stop-color:#595959"/>
			<stop  offset="1" style="stop-color:#DEDEDE"/>
		</linearGradient>
		<path fill="url(#SVGID_2_)" stroke="#3D809B" stroke-width="0.3912" stroke-miterlimit="10" d="M26.86,32.035
			c0,0,3.734-2.352,6.847-2.559l18.328-18.328L51.35,13.92c0,0-4.107,7.082-8.674,11.644c-3.252,3.249-8.277,7.785-8.277,7.785
			l-4.905,1.319L26.86,32.035z"/>
		<circle fill="#073E4F" cx="33.555" cy="31.516" r="1.065"/>
		<path fill="#044770" stroke="#044770" stroke-width="0.2419" stroke-miterlimit="10" d="M8.569,36.068
			c-3.326,3.326-3.82,8.225-1.104,10.94c2.716,2.717,7.614,2.222,10.94-1.104l11.162-11.162l-2.714-2.714
			c0,0-1.996,2.423-5.345,1.639c-3.35-0.783-8.619-1.918-12.609,2.072l0.022,0.006C8.804,35.853,8.684,35.954,8.569,36.068z
			 M9.068,45.406c-1.993-1.994-1.631-5.588,0.81-8.028c2.441-2.44,6.036-2.804,8.029-0.811c1.992,1.993,1.63,5.587-0.812,8.027
			C14.655,47.035,11.06,47.398,9.068,45.406z"/>
	</g>
</g>
</svg>
