<?xml version="1.0" encoding="utf-8"?>
<!-- Generator: Adobe Illustrator 15.0.2, SVG Export Plug-In . SVG Version: 6.00 Build 0)  -->
<!DOCTYPE svg PUBLIC "-//W3C//DTD SVG 1.1//EN" "http://www.w3.org/Graphics/SVG/1.1/DTD/svg11.dtd">
<svg version="1.1" id="レイヤー_1" xmlns="http://www.w3.org/2000/svg" xmlns:xlink="http://www.w3.org/1999/xlink" x="0px"
	 y="0px" width="64px" height="64px" viewBox="0 0 64 64" enable-background="new 0 0 64 64" xml:space="preserve">
<g>
	<g>
		<path fill-rule="evenodd" clip-rule="evenodd" fill="#FFC5E9" d="M31.194,27.973c0.473-4.372-2.666-7.486-6.235-8.859
			c3.894-2.701,5.851,1.731,8.04,3.611C33.313,25.389,32.135,26.564,31.194,27.973z"/>
		<path fill-rule="evenodd" clip-rule="evenodd" fill="#FFC5E9" d="M28.077,21.411c-0.863,0.41-1.76-0.262-2.625-0.164
			c-0.626,0.07-1.02,0.663-1.969,0.984c-1.443,0.489-2.995,0.021-3.445,1.641c-0.329-1.023-0.71-2.234-0.328-3.281
			C20.805,17.585,26.619,20.014,28.077,21.411z"/>
		<path fill-rule="evenodd" clip-rule="evenodd" fill="#FFC5E9" d="M26.928,29.613c0.396-1.19,1.432-1.739,2.133-2.625
			c0.396-3.458-2.298-3.826-5.414-3.772C28.341,17.904,34.891,29.163,26.928,29.613z"/>
		<path fill-rule="evenodd" clip-rule="evenodd" fill="#FFC5E9" d="M22.17,29.942c2.134,1.885,4.395,0.078,6.891-0.329
			c-1.148,1.25-4.653,4.562-6.235,2.954c-0.97-0.988-2.221-2.804-2.953-4.267c0.703,0.501,0.962,1.444,1.969,1.642
			c-1.997-0.86-3.109-7.791,1.476-7.218c-0.579,1.205-1.895,2.174-1.804,3.608c0.161,2.58,3.66,2.725,5.741,1.312
			C26.518,29.304,24.817,30.721,22.17,29.942z"/>
		<path fill-rule="evenodd" clip-rule="evenodd" fill="#FFC5E9" d="M19.053,23.38c1.252,1.519-0.181,3.747,0.656,4.921
			C17.192,28.684,17.056,24.25,19.053,23.38z"/>
		<path fill-rule="evenodd" clip-rule="evenodd" fill="#FFC5E9" d="M27.584,26.333c0.192-3.215-5.307-2.573-3.609,0.983
			c-1.157-0.101-1.035-1.48-1.477-2.296C23.122,21.995,29.298,23.867,27.584,26.333z"/>
		<path fill-rule="evenodd" clip-rule="evenodd" fill="#FFC5E9" d="M25.944,24.692c0.383,0.054,0.678,0.197,0.984,0.328
			c0.709,2.871-1.924,3.029-2.953,1.64c0.672-0.129,1.937-0.114,2.461-0.819C26.609,25.121,25.881,25.302,25.944,24.692z"/>
		<path fill-rule="evenodd" clip-rule="evenodd" fill="#FFC5E9" d="M24.959,25.185c0.343-0.07,0.435,0.112,0.656,0.164
			C25.51,26.508,24.161,26.026,24.959,25.185z"/>
	</g>
	<g>
		<path fill-rule="evenodd" clip-rule="evenodd" fill="#E3FFBB" d="M26.595,15.59c0.565-3.068-1.491-5.436-3.944-6.595
			c2.897-1.706,4.048,1.533,5.497,2.978C28.229,13.874,27.334,14.644,26.595,15.59z"/>
		<path fill-rule="evenodd" clip-rule="evenodd" fill="#E3FFBB" d="M24.735,10.785c-0.632,0.244-1.231-0.278-1.849-0.254
			c-0.446,0.017-0.756,0.415-1.443,0.592c-1.047,0.27-2.12-0.143-2.523,0.979c-0.179-0.742-0.385-1.617-0.06-2.338
			C19.792,7.696,23.778,9.719,24.735,10.785z"/>
		<path fill-rule="evenodd" clip-rule="evenodd" fill="#E3FFBB" d="M23.491,16.525c0.342-0.82,1.104-1.153,1.647-1.743
			c0.462-2.426-1.424-2.827-3.631-2.954C25.106,8.318,29.147,16.627,23.491,16.525z"/>
		<path fill-rule="evenodd" clip-rule="evenodd" fill="#E3FFBB" d="M20.107,16.509c1.412,1.445,3.105,0.286,4.893,0.129
			c-0.878,0.824-3.532,2.982-4.565,1.762c-0.634-0.751-1.424-2.1-1.865-3.174c0.471,0.391,0.604,1.072,1.306,1.265
			c-1.366-0.714-1.788-5.675,1.424-5.028c-0.472,0.822-1.455,1.438-1.466,2.457c-0.021,1.835,2.445,2.121,3.993,1.231
			C23.217,16.285,21.939,17.198,20.107,16.509z"/>
		<path fill-rule="evenodd" clip-rule="evenodd" fill="#E3FFBB" d="M18.249,11.702c0.806,1.141-0.325,2.641,0.205,3.515
			C16.653,15.357,16.791,12.213,18.249,11.702z"/>
		<path fill-rule="evenodd" clip-rule="evenodd" fill="#E3FFBB" d="M24.127,14.24c0.305-2.264-3.619-2.099-2.604,0.506
			c-0.813-0.132-0.655-1.102-0.924-1.701C21.199,10.938,25.47,12.587,24.127,14.24z"/>
		<path fill-rule="evenodd" clip-rule="evenodd" fill="#E3FFBB" d="M23.054,12.993c0.268,0.059,0.469,0.175,0.679,0.284
			c0.35,2.068-1.52,2.042-2.175,1.005c0.482-0.057,1.376,0.021,1.784-0.45C23.501,13.333,22.978,13.421,23.054,12.993z"/>
		<path fill-rule="evenodd" clip-rule="evenodd" fill="#E3FFBB" d="M22.331,13.29c0.247-0.032,0.301,0.102,0.457,0.151
			C22.651,14.255,21.722,13.843,22.331,13.29z"/>
	</g>
	<g>
		<path fill-rule="evenodd" clip-rule="evenodd" fill="#FF88AD" d="M33.062,26.337c-0.985-2.009,2.109-3.581,3.774-2.953
			C35.762,24.553,34.463,25.497,33.062,26.337z"/>
		<path fill-rule="evenodd" clip-rule="evenodd" fill="#FF88AD" d="M33.882,28.47c0.265,0.513,0.203-0.652,0.82-0.328
			c-0.587,2,0.899,3.221,1.806,4.267c0.241-0.074-0.065-0.211,0-0.492c1.873,1.073,5.099,0.067,5.577-1.807
			c0.725,3.101-3.417,4.866-5.086,2.462c-1.503,0.544-2.77-0.491-3.281-1.478c-0.085-0.905,0.094-1.547,0.164-2.296
			c-0.366,0.454-0.34,1.299-0.328,2.132c-1.021-0.509-1.764-1.296-1.64-2.952c1.568-0.892,3.261-3.975,5.414-4.266
			c2.337-0.316,4.137,1.691,4.922,3.773c0.55-0.659-0.883-1.45-0.492-1.97c2.162,1.064,2.845,3.607,2.953,6.729
			c-0.602,0.766-1.533,1.2-2.133,1.967c-0.776-0.154-1.747-0.111-2.461-0.328c2.194-0.488,3.048-2.994,2.461-5.742
			c-1.263-0.969-3.793-2.785-5.741-2.462C35.349,25.928,34.845,27.53,33.882,28.47z"/>
		<path fill-rule="evenodd" clip-rule="evenodd" fill="#FF88AD" d="M34.866,27.65c2.033-2.233,6.957-1.279,7.547,1.64
			c-1.571-1.635-6.135-2.458-6.398,0.327c-0.096,1.008,0.896,1.716,0.984,2.299C35.47,31.213,34.384,29.913,34.866,27.65z"/>
		<path fill-rule="evenodd" clip-rule="evenodd" fill="#FF88AD" d="M39.46,28.798c-0.691,0.211-1.895,0.32-1.313,1.311
			C36.497,29.597,38.46,27.633,39.46,28.798z"/>
		<path fill-rule="evenodd" clip-rule="evenodd" fill="#FF88AD" d="M39.952,28.798c4.907,0.953-4.084,6.391-2.953,0.328
			c0.336,1.628,2.729,2.757,3.773,0.983C40.71,29.463,40.242,29.22,39.952,28.798z"/>
		<path fill-rule="evenodd" clip-rule="evenodd" fill="#FF88AD" d="M38.639,29.453c0.619-0.124,0.784,0.202,1.313,0.164
			C39.926,30.632,38.616,30.262,38.639,29.453z"/>
	</g>
	<g>
		<path fill-rule="evenodd" clip-rule="evenodd" fill="#FFE445" d="M34.372,11.67c-0.268,0.937-1.45,0.957-1.806,1.804
			c-0.702-0.227-1.136-0.724-1.968-0.82c-1.086,0.5-0.761,2.411-0.82,3.938c-2.195-0.588-0.711-3.556-0.492-5.414
			C31.698,11.56,33.25,9.151,34.372,11.67z"/>
		<path fill-rule="evenodd" clip-rule="evenodd" fill="#FFE445" d="M40.605,14.787c-0.417-2.318-3.081-2.388-5.906-2.296
			c1.94-1.57,4.995-1.679,7.383-0.492C42.546,13.389,41.156,13.913,40.605,14.787z"/>
		<path fill-rule="evenodd" clip-rule="evenodd" fill="#FFE445" d="M39.129,14.458c-1.339-0.079-2.067-0.809-3.118-0.492
			c-1.036,0.314-1.124,2.306-2.624,1.97c-0.657,0.38-1.007,1.072-0.984,2.132c-1.809-3.52,2.448-6.236,6.397-4.594
			C38.721,13.992,39.304,13.847,39.129,14.458z"/>
		<path fill-rule="evenodd" clip-rule="evenodd" fill="#FFE445" d="M42.307,13.548c0.368,1.246-0.326,2.844-1.313,3.281
			C40.207,15.015,41.512,14.598,42.307,13.548z"/>
		<path fill-rule="evenodd" clip-rule="evenodd" fill="#FFE445" d="M30.926,13.638c0.586,0.07,0.9,0.413,1.148,0.82
			c-1.153,2.519-0.835,5.411,1.313,6.563C31.013,20.567,29.327,16.25,30.926,13.638z"/>
		<path fill-rule="evenodd" clip-rule="evenodd" fill="#FFE445" d="M38.8,16.592c-0.433-1.018-2.277-1.998-2.952-0.492
			c-0.126,0.782,0.256,1.055,0.163,1.804c-0.649-0.28-1.251-0.605-1.475-1.312c0.591-1.974,3.675-2.393,5.249-0.715
			C39.559,16.361,39.026,16.108,38.8,16.592z"/>
		<path fill-rule="evenodd" clip-rule="evenodd" fill="#FFE445" d="M42.41,15.279c0.793,0.873,2.125,1.884,1.968,3.118
			c-0.1,0.79-0.956,0.897-1.477,1.477c-1.112,1.237-1.74,3.545-5.25,2.788c-0.743-0.513-1.636-0.879-2.788-0.984
			c2.015-0.663,5.05-0.309,6.07-1.968C39.988,17.875,42.089,16.874,42.41,15.279z"/>
		<path fill-rule="evenodd" clip-rule="evenodd" fill="#FFE445" d="M40.017,16.428c0.589,0.396,0.273,0.643,0.261,1.64
			c-0.952,0.38-1.378,1.722-2.79,1.149C39.247,18.643,38.635,17.274,40.017,16.428z"/>
		<path fill-rule="evenodd" clip-rule="evenodd" fill="#FFE445" d="M36.667,18.397c-0.232-0.588-0.469-1.173-0.492-1.969
			c0.651,0.224,0.381,1.371,1.313,1.312C37.276,18.021,37.148,18.385,36.667,18.397z"/>
		<path fill-rule="evenodd" clip-rule="evenodd" fill="#FFE445" d="M38.144,17.248c0.512,0.575-0.303,1.222-0.984,1.149
			C37.388,17.912,37.918,17.732,38.144,17.248z"/>
		<path fill-rule="evenodd" clip-rule="evenodd" fill="#FFE445" d="M36.339,19.053c-0.563-0.294-1.313-1.621-2.952-2.79
			c-1.027,0.969-0.557,4.58,1.149,4.758c1.509-0.403,3.58-0.249,4.757-0.984C38.062,19.956,36.882,19.822,36.339,19.053z"/>
	</g>
	<g>
		<path fill-rule="evenodd" clip-rule="evenodd" fill="#FFD394" d="M27.937,4.206c0.144,0.691-0.607,1.101-0.552,1.762
			c-0.526,0.089-0.969-0.084-1.536,0.133c-0.527,0.686,0.321,1.8,0.795,2.799c-1.604,0.359-1.648-2.042-2.129-3.305
			C26.187,5.032,26.375,2.968,27.937,4.206z"/>
		<path fill-rule="evenodd" clip-rule="evenodd" fill="#FFD394" d="M32.977,4.115c-1.043-1.346-2.773-0.498-4.555,0.507
			c0.717-1.656,2.639-2.748,4.567-2.789C33.752,2.57,33.037,3.371,32.977,4.115z"/>
		<path fill-rule="evenodd" clip-rule="evenodd" fill="#FFD394" d="M31.921,4.399c-0.885,0.398-1.597,0.174-2.164,0.729
			c-0.56,0.549,0.051,1.854-1.021,2.143c-0.295,0.463-0.287,1.023,0.083,1.696c-2.337-1.649-0.52-4.818,2.561-5.088
			C31.502,4.236,31.828,3.949,31.921,4.399z"/>
		<path fill-rule="evenodd" clip-rule="evenodd" fill="#FFD394" d="M33.65,2.752c0.655,0.675,0.746,1.933,0.259,2.542
			C32.797,4.394,33.495,3.691,33.65,2.752z"/>
		<path fill-rule="evenodd" clip-rule="evenodd" fill="#FFD394" d="M26.389,6.623c0.399-0.152,0.714-0.038,1.011,0.141
			c0.104,2,1.277,3.747,3.039,3.766C28.766,11.034,26.239,8.832,26.389,6.623z"/>
		<path fill-rule="evenodd" clip-rule="evenodd" fill="#FFD394" d="M32.425,5.877c-0.619-0.509-2.129-0.518-2.058,0.674
			c0.183,0.545,0.519,0.59,0.71,1.101c-0.51,0.038-1.006,0.031-1.385-0.345c-0.283-1.465,1.553-2.767,3.125-2.219
			C32.833,5.476,32.408,5.491,32.425,5.877z"/>
		<path fill-rule="evenodd" clip-rule="evenodd" fill="#FFD394" d="M34.296,3.826C35.1,4.12,36.29,4.321,36.604,5.165
			c0.2,0.541-0.313,0.896-0.453,1.441c-0.298,1.167,0.075,2.854-2.43,3.545c-0.648-0.079-1.343-0.014-2.116,0.303
			c1.069-1.099,3.133-1.888,3.23-3.293C33.615,6.301,34.627,4.956,34.296,3.826z"/>
		<path fill-rule="evenodd" clip-rule="evenodd" fill="#FFD394" d="M33.149,5.366c0.51,0.056,0.391,0.319,0.718,0.963
			c-0.484,0.563-0.308,1.564-1.404,1.67C33.398,7.04,32.547,6.371,33.149,5.366z"/>
		<path fill-rule="evenodd" clip-rule="evenodd" fill="#FFD394" d="M31.662,7.748c-0.346-0.298-0.693-0.594-0.974-1.096
			c0.491-0.076,0.702,0.75,1.281,0.4C31.926,7.304,31.968,7.58,31.662,7.748z"/>
		<path fill-rule="evenodd" clip-rule="evenodd" fill="#FFD394" d="M32.225,6.518c0.519,0.197,0.214,0.884-0.246,1.066
			C31.96,7.196,32.24,6.902,32.225,6.518z"/>
		<path fill-rule="evenodd" clip-rule="evenodd" fill="#FFD394" d="M31.673,8.278c-0.46,0.001-1.385-0.599-2.828-0.797
			c-0.333,0.964,1.179,3.121,2.331,2.664c0.833-0.765,2.212-1.358,2.719-2.225C33.079,8.281,32.278,8.59,31.673,8.278z"/>
	</g>
	<path fill-rule="evenodd" clip-rule="evenodd" fill="#D2F2FF" d="M17.425,16.83c0,0-3.553,3.491-1.555,12.116
		c1.997,8.625,8.294,5.921,10.432,9.823c2.137,3.901,6.667,3.826,8.069,3.901c1.401,0.074,5.154,0.574,7.058-2.324
		c1.569-2.389,1.035-1.311,3.28-3.449c2.816-2.686,4.349-4.537,3.974-10.479S45.46,14.746,45.46,14.746s-1.353,2.003-0.75,3.08
		c0.601,1.076-0.149,2.957-0.899,4.865s2.328,7.684,1.35,10.308c-2.832,3.098-6.23,3.073-7.429,3.536
		c-1.841,0.713-2.001-0.763-4.345-3.536c-2.345-2.774-5.859,0.728-7.771,0.728C21.506,34.211,13.534,29.754,17.425,16.83z"/>
	<path fill-rule="evenodd" clip-rule="evenodd" fill="#D2F2FF" d="M29.805,44.694c0.443-0.438,0.171-0.375,2.867,0.45
		c2.695,0.824,5.097-2.4,6.295,0c1.198,2.398-0.558,4.948,1.97,6.298c2.528,1.35,6.127,6.748,5.002,7.798
		c-1.124,1.05-3.299-0.975-5.322-0.525c-2.025,0.45-5.275,6.073-6.574,1.949c-1.299-4.123-0.572-5.848-4.872-5.398
		c-4.3,0.45,1.221-4.873,0.635-6.897C29.219,46.344,28.741,45.744,29.805,44.694z"/>
</g>
</svg>
