<?xml version="1.0" encoding="utf-8"?>
<!-- Generator: Adobe Illustrator 15.0.2, SVG Export Plug-In . SVG Version: 6.00 Build 0)  -->
<!DOCTYPE svg PUBLIC "-//W3C//DTD SVG 1.1//EN" "http://www.w3.org/Graphics/SVG/1.1/DTD/svg11.dtd">
<svg version="1.1" id="レイヤー_1" xmlns="http://www.w3.org/2000/svg" xmlns:xlink="http://www.w3.org/1999/xlink" x="0px"
	 y="0px" width="64px" height="64px" viewBox="0 0 64 64" style="enable-background:new 0 0 64 64;" xml:space="preserve">
<g>
	<path style="fill:#330600;" d="M21.8222656,13.2021484c0,0-3.1772461,2.4458008-5.7148438,7.4589844
		c-0.0942383,0.1855469-0.1875,0.375-0.2797852,0.5678711C13.25,26.625,23.0400391,21.753418,23.0400391,21.753418
		l0.3984375-6.3520508L21.8222656,13.2021484z"/>
	<path style="fill:#B7713A;" d="M24.7324219,14.0556641l10.2460938-0.8535156l2.1494141,8.4296875
		c0,0,6.0820313-3.6865234,10.0830078,0.1655273c4.4628906,4.2978516,8.9257813,20.9946289,8.9257813,20.9946289
		L6.1445313,44.2050781c0,0,1.6689453-18.0996094,6.8496094-21.746582C17.4570313,19.3178711,24.0898438,22.125,24.0898438,22.125
		L24.7324219,14.0556641z"/>
	<path style="fill:#7C3F16;" d="M36.5390625,19.3242188c0,0-0.6992188,1.3007813-4.3242188,3.6757813
		s-7.7753906-5.262207-7.7753906-5.262207v-1.0332031C24.4394531,16.7045898,26.6132813,22.5234375,36.5390625,19.3242188z"/>
	<path style="fill:#7C3F16;" d="M43.9052734,33.5332031L42.8408203,28.75c0,0-0.9990234-3.875,0-3.75s2.0546875,2.75,2.0546875,2.75
		l2.3095703,5.3720703C47.2050781,33.1220703,45.9707031,34.0664063,43.9052734,33.5332031z"/>
	<path style="fill:#330600;" d="M6.1445313,44.7050781c-0.1376953,0-0.2700195-0.0566406-0.3647461-0.1582031
		c-0.0976563-0.1044922-0.1464844-0.2451172-0.1333008-0.3876953c0.0693359-0.7480469,1.7514648-18.3725586,7.0600586-22.109375
		c1.4887695-1.0478516,3.3466797-1.5791016,5.5219727-1.5791016c2.3227539,0,4.4052734,0.6040039,5.4155273,0.953125
		l0.5898438-7.4077148c0.0195313-0.2441406,0.2128906-0.4384766,0.4570313-0.4584961l10.2456055-0.8535156
		c0.2607422-0.0292969,0.4667969,0.1381836,0.5263672,0.3745117l1.9912109,7.8085938
		c0.9638672-0.4833984,2.9980469-1.3457031,5.2324219-1.3457031c1.9257813,0,3.5644531,0.6376953,4.8710938,1.8955078
		c4.5117188,4.3447266,8.8789063,20.5385742,9.0625,21.2260742c0.0390625,0.1474609,0.0087891,0.3056641-0.0830078,0.4277344
		c-0.0908203,0.1230469-0.2333984,0.1962891-0.3867188,0.2011719L6.1586914,44.7050781
		C6.1538086,44.7050781,6.1494141,44.7050781,6.1445313,44.7050781z M18.2285156,21.4707031
		c-1.965332,0-3.6293945,0.4697266-4.9467773,1.3964844C8.847168,25.9892578,7.0341797,40.6259766,6.7006836,43.6894531
		l48.7836914-1.3789063c-0.8515625-3.0351563-4.7841797-16.4589844-8.6201172-20.152832
		c-1.1142578-1.0727539-2.5195313-1.6162109-4.1777344-1.6162109c-2.7626953,0-5.2744141,1.5029297-5.2998047,1.5180664
		c-0.1357422,0.0825195-0.3017578,0.0952148-0.4482422,0.0351563s-0.2558594-0.1860352-0.2949219-0.3393555l-2.0449219-8.0200195
		l-9.4013672,0.7832031l-0.6088867,7.6459961c-0.0126953,0.1601563-0.1020508,0.3041992-0.2387695,0.3876953
		c-0.1376953,0.0834961-0.3066406,0.0957031-0.4545898,0.0332031
		C23.8686523,22.5742188,21.2172852,21.4707031,18.2285156,21.4707031z"/>
	<g>
		<path style="fill:#EAD9C7;" d="M18.8398438,20.8520508c1.375,8.0527344,2.734375,17.4506836,2.734375,17.4506836L28.0371094,40.5
			l-5.8632813-19.1435547C22.1738281,21.3564453,21.1162109,20.2275391,18.8398438,20.8520508z"/>
		<path style="fill:#330600;" d="M28.0371094,41c-0.0541992,0-0.1083984-0.0087891-0.1611328-0.0263672l-6.4628906-2.1972656
			c-0.1777344-0.0605469-0.3066406-0.2158203-0.3334961-0.4023438c-0.0136719-0.09375-1.3745117-9.4838867-2.7324219-17.4379883
			c-0.043457-0.253418,0.1123047-0.4980469,0.3603516-0.5664063c0.4985352-0.1367188,0.9838867-0.2060547,1.4418945-0.2060547
			c1.5742188,0,2.3569336,0.8164063,2.3891602,0.8510742c0.0522461,0.0556641,0.0908203,0.1225586,0.1132813,0.1953125
			l5.8632813,19.1435547c0.0551758,0.1796875,0.0048828,0.375-0.1298828,0.5058594
			C28.2905273,40.9511719,28.1650391,41,28.0371094,41z M22.0249023,37.9277344l5.2480469,1.7841797l-5.5366211-18.0761719
			c-0.1791992-0.1416016-0.6938477-0.472168-1.5869141-0.472168c-0.2358398,0-0.4824219,0.0234375-0.7373047,0.0698242
			C20.6079102,28.2851563,21.7851563,36.2851563,22.0249023,37.9277344z"/>
	</g>
	<path style="fill:#B7713A;" d="M57.0615234,40.3056641c-0.8886719-6.3623047-3.4238281-7.0742188-6.2138672-8.1367188
		c-1.796875-0.6845703-4.1455078,1.8222656-6.3603516,1.7744141c-3.6982422-0.078125-4.8828125,1.0371094-4.5869141,3.2539063
		c0.2958984,2.2207031,3.1064453,11.6875,1.9238281,13.0195313C40.640625,51.5488281,59.2060547,55.6806641,57.0615234,40.3056641z"
		/>
	<path style="fill:#7C3F16;" d="M46.8583984,41.1855469c0.2275391,1.0273438,0.9755859,5.7060547,0,8.8378906
		c-0.9755859,3.1328125,8.6455078-0.3037109,8.1982422-7.5351563C54.6083984,35.2568359,46.265625,38.515625,46.8583984,41.1855469z
		"/>
	<path style="fill:#CEB197;" d="M22.1533203,34.0595703l0.8847656,5.6113281l4.3017578-0.6425781l-2.2421875-4.0273438
		C25.0976563,35.0009766,24.3964844,35.3447266,22.1533203,34.0595703z"/>
	<path style="fill:#330600;" d="M46.5595703,52.0361328h-0.0009766c-2.2382813,0-4.7880859-0.5234375-5.1816406-1.3984375
		c-0.1103516-0.2460938-0.0683594-0.5146484,0.1123047-0.7177734c0.6972656-0.7851563-0.6699219-6.59375-1.3261719-9.3847656
		c-0.3466797-1.4716797-0.6201172-2.6347656-0.7060547-3.2783203c-0.1464844-1.0976563,0.0449219-1.9306641,0.5859375-2.5488281
		c0.7265625-0.8300781,2.0253906-1.2158203,4.0888672-1.2158203l0.3652344,0.0039063c0,0,0.0009766,0,0.0019531,0
		c0.7158203,0,1.3173828-0.2919922,2.0126953-0.6293945c0.9160156-0.4443359,1.9550781-0.9482422,3.4394531-0.9482422
		c0.8095703,0,1.6542969,0.1484375,2.5849609,0.4541016c3.7978516,1.2495117,5.1455078,5.4682617,5.1455078,8.7016602
		c0,3.9443359-1.2832031,6.9023438-3.8134766,8.7929688C51.9960938,51.265625,49.4003906,52.0361328,46.5595703,52.0361328z
		 M42.2822266,50.3398438c0.4160156,0.2822266,1.9541016,0.8007813,4.2763672,0.8007813h0.0009766
		c1.5341797,0,4.4541016-0.2578125,6.7724609-1.9902344C55.625,47.4375,56.7871094,44.7207031,56.7871094,41.0742188
		c0-2.9345703-1.1865234-6.7519531-4.5302734-7.8515625c-0.8388672-0.2753906-1.5927734-0.4091797-2.3056641-0.4091797
		c-1.2783203,0-2.1787109,0.4365234-3.0488281,0.8583984c-0.7626953,0.3701172-1.4824219,0.7197266-2.3554688,0.7197266
		l-0.4150391-0.0048828c-1.7617188,0-2.8789063,0.2978516-3.4150391,0.9111328
		c-0.3613281,0.4121094-0.4833984,1.0136719-0.3730469,1.8398438c0.0800781,0.6005859,0.3632813,1.8017578,0.6904297,3.1923828
		C42.1826172,45.2089844,43.0068359,49.0722656,42.2822266,50.3398438z"/>
	<g>
		<path style="fill:#EAD9C7;" d="M42.5332031,37.1630859c-3.9960938-5.972168-14.2519531-1.0546875-16.3378906,0
			c-2.0859375,1.0507813-6.34375,0.1435547-9.125,4.0048828s-7.2138672,8.8115234-4.4335938,13.3759766
			c2.78125,4.5664063,17.2089844,10.5371094,29.8964844-2.1074219
			C42.5332031,52.4365234,47.8476563,45.0966797,42.5332031,37.1630859z"/>
		<path style="fill:#330600;" d="M25.6674805,60.5224609c-0.0004883,0,0,0-0.0004883,0
			c-6.4785156,0-11.769043-2.9462891-13.4575195-5.71875c-2.6542969-4.3574219,0.7631836-8.9511719,3.5087891-12.6425781
			c0.3271484-0.4404297,0.6464844-0.8691406,0.9462891-1.2851563c2.0273438-2.8154297,4.7568359-3.2431641,6.9501953-3.5869141
			c0.9492188-0.1484375,1.7685547-0.2773438,2.3554688-0.5722656c1.7587891-0.8896484,6.2949219-2.9580078,10.4086914-2.9580078
			c2.9716797,0,5.1816406,1.0517578,6.5703125,3.1259766c5.4443359,8.1289063,0.0439453,15.7685547-0.0107422,15.8447266
			C36.4746094,59.1806641,29.9833984,60.5224609,25.6674805,60.5224609z M36.3789063,34.7587891
			c-3.8989258,0-8.2626953,1.9931641-9.9580078,2.8505859c-0.7275391,0.3662109-1.6621094,0.5126953-2.6513672,0.6679688
			c-2.1137695,0.3310547-4.5102539,0.7070313-6.293457,3.1826172c-0.3027344,0.4208984-0.625,0.8535156-0.9550781,1.2978516
			c-2.7001953,3.6298828-5.7607422,7.7441406-3.4570313,11.5263672c1.324707,2.1748047,6.1108398,5.2382813,12.6030273,5.2382813
			c4.1274414,0,10.3427734-1.2910156,16.5136719-7.4404297c0.1552734-0.2275391,4.9882813-7.1005859-0.0625-14.640625
			C40.9267578,35.6611328,38.9960938,34.7587891,36.3789063,34.7587891z"/>
	</g>
	<path style="fill:#CEB197;" d="M12.4433594,48.9892578c0,0,4.8515625,2.6425781,13.1503906,2.6357422
		c6-3,15.0019531-12,17.3759766-7.125S40.84375,53,36.96875,55.5S12.6669922,62.9785156,12.4433594,48.9892578z"/>
	<path style="fill:#B7713A;" d="M7.375,40.6542969c0,0-2.8837891,9.9980469-1.2304688,12.9726563
		c1.6523438,2.9765625,8.8242188,6.2958984,17.4287109,6.0556641c0,0,3.6367188-0.6835938,5.7861328,1.2128906
		c2.1484375,1.8945313,5.7851563-1.3457031,6.4462891-1.2128906s2.8769531-0.5273438,2.9257813-2.1816406
		c0.0488281-1.6523438-1.0166016,0.3740234-2.9375-1.1386719c-2.6689453-2.1015625-2.3027344-3.1582031-1.8066406-5.1425781
		c0.4960938-1.9824219-1.6533203-1.15625-2.6445313,1.1582031c0,0-3.9677734-0.3085938-5.7861328,2.4082031
		c-1.8183594,2.7148438-8.6259766-5.3027344-12.0302734-5.3027344l3.7685547-9.8125"/>
	<path style="fill:#7C3F16;" d="M15.0107422,43.0800781l1.5791016-9.8613281c0,0-2.5791016-5.46875-0.7890625-4.46875
		c1.7890625,1,4.1640625,2.9765625,3.0390625,7.4257813v2.1269531L15.0107422,43.0800781z"/>
	<path style="fill:#330600;" d="M45.5517578,33.71875c-0.2382813,0-0.4501953-0.171875-0.4921875-0.4150391
		c-0.4248047-2.4677734-1.8974609-5.2929688-1.9121094-5.3212891C43.109375,27.9106445,43.0898438,27.8310547,43.0898438,27.75v-1.5
		c0-0.2763672,0.2236328-0.5,0.5-0.5s0.5,0.2236328,0.5,0.5v1.3789063c0.2890625,0.5678711,1.546875,3.1357422,1.9560547,5.5048828
		c0.046875,0.2724609-0.1357422,0.53125-0.4082031,0.578125C45.609375,33.7167969,45.5800781,33.71875,45.5517578,33.71875z"/>
	<path style="fill:#330600;" d="M17.2954102,40.1708984c-0.0195313,0-0.0395508-0.0009766-0.0600586-0.0039063
		c-0.2739258-0.0322266-0.4697266-0.28125-0.4370117-0.5556641l0.7568359-6.3183594l-0.7197266-1.6782227
		c-0.1088867-0.2539063,0.0087891-0.5478516,0.262207-0.6567383c0.2548828-0.109375,0.5478516,0.0083008,0.6567383,0.262207
		l0.7724609,1.8012695c0.034668,0.0810547,0.0473633,0.1699219,0.0371094,0.2568359l-0.7724609,6.4521484
		C17.7607422,39.984375,17.5449219,40.1708984,17.2954102,40.1708984z"/>
	<path style="fill:#B7713A;" d="M53.1181641,49.1816406c0.4277344-3.1777344-3.3105469-3.6767578-3.3105469-1.4267578
		l0.0527344,0.7294922c0,0-2.1015625-2.1044922-3.3271484-1.6044922s-3.3583984,2.5-4.0419922,5.25s2.5175781,3.5,4.0419922,2.75
		S52.3037109,55.2333984,53.1181641,49.1816406z"/>
	<path style="fill:#330600;" d="M30.9931641,61.9951172c-0.6923828,0-1.3681641-0.1982422-1.9643555-0.7246094
		c-1.9379883-1.7099609-5.3305664-1.1015625-5.3637695-1.0966797c-13.206543,0.421875-17.0776367-4.7177734-17.9575195-6.3046875
		c-1.7285156-3.109375-0.1181641-9.7988281-0.0488281-10.0820313c0.065918-0.2685547,0.3374023-0.4335938,0.6049805-0.3662109
		c0.2680664,0.0654297,0.4321289,0.3359375,0.3666992,0.6044922c-0.0161133,0.0654297-1.5874023,6.5908203-0.0488281,9.3583984
		c0.8110352,1.4609375,4.4389648,6.2138672,16.9760742,5.7988281c0.0810547-0.0224609,3.8261719-0.6972656,6.1323242,1.3378906
		c1.2680664,1.1181641,3.3208008-0.0117188,4.6772461-0.7587891c0.7529297-0.4150391,1.1630859-0.6464844,1.5371094-0.5693359
		c0.2236328,0.0449219,1.0849609-0.1074219,1.7177734-0.6103516c0.3925781-0.3115234,0.5976563-0.6806641,0.609375-1.0957031
		c0.0078125-0.2617188-0.0302734-0.3359375-0.03125-0.3388672c-0.015625,0.0205078-0.2402344,0.0429688-0.4042969,0.0595703
		c-0.5537109,0.0556641-1.3886719,0.140625-2.2714844-0.4238281c-2.9907227-1.9150391-2.5839844-3.4970703-2.1123047-5.3300781
		l0.0898438-0.3544922c0.1015625-0.4033203,0.0400391-0.5371094,0.0390625-0.5380859
		c-0.1474609,0.0087891-1.1132813,0.5546875-1.7387695,2.0146484c-0.0844727,0.1962891-0.28125,0.2998047-0.4975586,0.3017578
		c-0.0380859-0.0058594-3.7021484-0.25-5.3325195,2.1875c-0.2768555,0.4130859-0.65625,0.6660156-1.128418,0.7509766
		c-1.4848633,0.2685547-3.6206055-1.2646484-5.8813477-2.8867188c-1.9243164-1.3808594-4.1054688-2.9453125-5.4360352-2.9453125
		c-0.1645508,0-0.3188477-0.0810547-0.4121094-0.2167969s-0.1137695-0.3085938-0.0546875-0.4628906l3.7685547-9.8125
		c0.0986328-0.2568359,0.3876953-0.3867188,0.6459961-0.2871094c0.2578125,0.0986328,0.3867188,0.3886719,0.2875977,0.6464844
		l-3.5385742,9.2128906c1.5327148,0.3339844,3.3808594,1.6601563,5.3222656,3.0527344
		c1.9003906,1.3632813,4.0522461,2.9033203,5.1201172,2.7158203c0.2036133-0.0371094,0.3505859-0.1367188,0.4755859-0.3242188
		c1.6489258-2.4638672,4.8183594-2.6435547,5.8876953-2.6416016c0.7490234-1.5068359,2.0200195-2.5019531,2.8852539-2.2119141
		c0.2724609,0.0917969,0.8701172,0.4394531,0.5585938,1.6865234l-0.0917969,0.3613281
		c-0.4501953,1.75-0.6982422,2.7148438,1.6826172,4.2392578c0.5888672,0.3769531,1.1425781,0.3183594,1.6318359,0.2714844
		c0.4267578-0.0439453,0.8691406-0.0869141,1.203125,0.2236328c0.3183594,0.2958984,0.3427734,0.7578125,0.3330078,1.0791016
		c-0.0214844,0.7138672-0.3623047,1.3535156-0.9873047,1.8496094c-0.8173828,0.6494141-1.953125,0.9238281-2.5371094,0.8076172
		c-0.0605469,0.0253906-0.5019531,0.2695313-0.8574219,0.4648438
		C33.8447266,61.1914063,32.3862305,61.9951172,30.9931641,61.9951172z"/>
	<path style="fill:#330600;" d="M45.2207031,55.6533203L45.2207031,55.6533203
		c-1.1591797,0-2.2021484-0.4492188-2.7910156-1.2021484c-0.3564453-0.4560547-0.7197266-1.25-0.4238281-2.4423828
		c0.7294922-2.9335938,2.9765625-5.0361328,4.3388672-5.5917969c0.8857422-0.3613281,2.1708984,0.3183594,3,0.9570313
		c0.1611328-0.9140625,0.8603516-1.5048828,1.8105469-1.5048828c0.6806641,0,1.3398438,0.3076172,1.8095703,0.8447266
		c0.3916016,0.4472656,0.8212891,1.2509766,0.6484375,2.5341797c-0.6787109,5.0429688-3.6464844,5.4960938-5.6103516,5.7949219
		c-0.5205078,0.0800781-0.9707031,0.1484375-1.2490234,0.2851563
		C46.3212891,55.5410156,45.7910156,55.6533203,45.2207031,55.6533203z M46.9492188,47.3027344
		c-0.0869141,0-0.1611328,0.0136719-0.2275391,0.0400391c-1.1328125,0.4628906-3.1074219,2.3417969-3.7451172,4.9082031
		c-0.1601563,0.6425781-0.0791016,1.1757813,0.2412109,1.5849609c0.3945313,0.5039063,1.1621094,0.8173828,2.0029297,0.8173828l0,0
		c0.4121094,0,0.7998047-0.078125,1.0917969-0.2216797c0.4169922-0.2050781,0.9375-0.2851563,1.5400391-0.3769531
		c1.8671875-0.2851563,4.1914063-0.6396484,4.7705078-4.9394531c0.1220703-0.9121094-0.15625-1.4511719-0.4111328-1.7431641
		c-0.2753906-0.3154297-0.6708984-0.5029297-1.0566406-0.5029297c-0.1992188,0-0.8476563,0.0634766-0.8476563,0.8857422
		l0.0517578,0.6933594c0.0146484,0.2080078-0.1015625,0.4042969-0.2910156,0.4902344
		c-0.1884766,0.0908203-0.4140625,0.046875-0.5615234-0.1005859C48.9130859,48.2441406,47.6933594,47.3027344,46.9492188,47.3027344
		z"/>
	<path style="fill:#B7713A;" d="M42.1376953,2.1743164c-1.4160156,4.5561523,2.5878906,13.5483398-7.3632813,17.265625
		C24.8251953,23.1572266,21.1162109,11.5,21.1162109,11.5s-4.2255859,1.3896484-5.2216797-4.5834961
		C15.2783203,3.222168,19.1308594,4,19.1308594,4l-0.2910156-7.5L41.9199219-3L42.1376953,2.1743164z"/>
	<path style="fill:#330600;" d="M31.3178711,20.7651367c-5.9726563,0-9.6630859-6.9594727-10.4892578-8.6923828
		c-0.25,0.0429688-0.59375,0.0844727-0.9868164,0.0844727c-1.2954102,0-4.3222656-0.5092773-4.4472656-5.2275391
		c-0.0307617-1.1650391,0.2529297-2.0634766,0.8432617-2.6694336c0.7329102-0.7529297,1.7353516-0.8525391,2.3706055-0.824707
		L18.340332-3.4804688c-0.0053711-0.1376953,0.0463867-0.2719727,0.1430664-0.3701172
		C18.5795898-3.9487305,18.7158203-4.0019531,18.8505859-4l23.0800781,0.5
		c0.2636719,0.0058594,0.4775391,0.215332,0.4892578,0.4790039l0.2177734,5.1743164
		c0.0019531,0.0571289-0.0058594,0.1147461-0.0224609,0.1694336c-0.3701172,1.1894531-0.3730469,2.7075195-0.3759766,4.3149414
		c-0.0087891,4.3828125-0.0205078,9.8378906-7.2509766,13.2543945
		C33.7617188,20.4716797,32.5263672,20.7651367,31.3178711,20.7651367z M21.1152344,11.0004883
		c0.1953125,0,0.3793945,0.1147461,0.4599609,0.3012695c0.0366211,0.0849609,3.7250977,8.4633789,9.7426758,8.4633789
		c1.0600586,0,2.1508789-0.2612305,3.2426758-0.7773438c6.6601563-3.1459961,6.6699219-8.0371094,6.6787109-12.3525391
		c0.0029297-1.6489258,0.0068359-3.2084961,0.3955078-4.5249023l-0.1943359-4.6206055L19.3598633-2.9887695l0.2705078,6.9692383
		c0.0063477,0.1552734-0.0610352,0.3041992-0.1806641,0.4038086c-0.1186523,0.0991211-0.2773438,0.1386719-0.4306641,0.1030273
		c-0.0063477-0.0014648-1.3120117-0.3012695-2.0649414,0.4707031c-0.3945313,0.4052734-0.5830078,1.0600586-0.5595703,1.9453125
		c0.0927734,3.515625,1.9257813,4.2539063,3.4472656,4.2539063c0.6459961,0,1.1313477-0.1362305,1.1362305-0.1376953
		C21.0234375,11.0063477,21.0698242,11.0004883,21.1152344,11.0004883z"/>
	<path style="fill:#330600;" d="M45.8574219,36.7558594c-1.9824219,0-2.7314453-0.7216797-2.7695313-1.3398438
		c-0.0263672-0.4326172,0.2900391-0.7880859,0.7529297-0.8457031c1.40625-0.1572266,3.859375-0.6289063,4.4726563-1.2285156
		c0.1953125-0.1914063,0.4941406-0.3007813,0.8193359-0.3007813c0.4921875,0,1.1240234,0.2753906,1.4189453,1.0498047
		c0.1425781,0.3710938,0.0908203,0.7802734-0.1445313,1.1494141c-0.3701172,0.5800781-1.3417969,1.3095703-3.8720703,1.4902344
		C46.2929688,36.7480469,46.0673828,36.7558594,45.8574219,36.7558594z M44.0527344,35.4472656
		c0.1992188,0.1826172,0.8955078,0.5,2.4179688,0.390625c2.4248047-0.1738281,3.0478516-0.8691406,3.1816406-1.078125
		c0.0556641-0.0888672,0.1123047-0.2207031,0.0634766-0.3496094c-0.1572266-0.4130859-0.4326172-0.4746094-0.5830078-0.4746094
		c-0.1162109,0-0.1835938,0.0371094-0.1953125,0.0478516C47.9677734,34.9296875,44.7714844,35.3603516,44.0527344,35.4472656z"/>
	<path style="fill:#330600;" d="M33.9804688,34.9746094c-0.2197266,0-0.421875-0.1464844-0.4824219-0.3681641
		c-0.4677734-1.7143555-0.8520508-2.6328125-0.855957-2.6416016c-0.1074219-0.2543945,0.0117188-0.5478516,0.265625-0.6552734
		c0.253418-0.1064453,0.5483398,0.0102539,0.6547852,0.265625c0.0166016,0.0390625,0.4130859,0.9804688,0.9003906,2.7675781
		c0.0722656,0.2666016-0.0839844,0.5419922-0.3505859,0.6142578C34.0683594,34.96875,34.0234375,34.9746094,33.9804688,34.9746094z"
		/>
	<path style="fill:#330600;" d="M32.3535156,17.2592773c-1.612793,0-3.0664063-0.5830078-4.1557617-1.6665039l-0.1699219,0.0698242
		c-0.2548828,0.1044922-0.5478516-0.0170898-0.6523438-0.2724609c-0.1049805-0.2553711,0.0170898-0.5473633,0.2724609-0.6523438
		l0.4873047-0.2001953c0.1948242-0.0810547,0.4223633-0.0292969,0.5634766,0.1303711
		c0.9775391,1.0991211,2.3745117,1.6621094,3.9418945,1.5844727c1.4492188-0.0717773,2.8857422-0.7075195,3.4941406-1.5458984
		c0.1630859-0.2246094,0.4755859-0.2734375,0.6982422-0.1113281c0.2236328,0.1621094,0.2724609,0.4750977,0.1103516,0.6982422
		c-0.7861328,1.0839844-2.4951172,1.8706055-4.253418,1.9575195C32.5771484,17.2568359,32.4648438,17.2592773,32.3535156,17.2592773
		z"/>
	<path style="fill:#330600;" d="M38.7226563,9.1928711c-0.9589844,0-1.8642578-0.4838867-2.6904297-1.4389648
		c-0.1679688-0.1938477-0.1474609-0.487793,0.046875-0.6557617c0.1933594-0.1674805,0.4882813-0.1479492,0.65625,0.0473633
		c0.6542969,0.7563477,1.3349609,1.152832,2.0302734,1.1162109c1.1328125-0.0249023,2.0058594-1.0898438,2.0136719-1.1005859
		c0.1601563-0.2026367,0.4541016-0.2353516,0.6533203-0.0761719c0.2021484,0.1591797,0.2363281,0.4516602,0.0771484,0.6533203
		c-0.0458984,0.0576172-1.1396484,1.418457-2.7236328,1.4536133C38.765625,9.1923828,38.7441406,9.1928711,38.7226563,9.1928711z"/>
	<path style="fill:#330600;" d="M27.8081055,8.6240234c-1.2084961,0-2.390625-0.5444336-3.5151367-1.6196289
		c-0.1826172-0.1743164-0.1889648-0.4633789-0.0146484-0.6455078c0.175293-0.1816406,0.4638672-0.1879883,0.6455078-0.0146484
		c2.8867188,2.7597656,5.1411133,0.4882813,5.2353516,0.3891602c0.1757813-0.1806641,0.4638672-0.1865234,0.6450195-0.0131836
		c0.1821289,0.1738281,0.1894531,0.4614258,0.0161133,0.6435547c-0.0473633,0.0498047-1.1757813,1.2172852-2.9150391,1.2592773
		C27.8725586,8.6240234,27.840332,8.6240234,27.8081055,8.6240234z"/>
	<path style="fill:#330600;" d="M23.0400391,3.7998047c-0.1948242,0-0.3798828-0.1142578-0.4604492-0.3051758
		c-0.1074219-0.2543945,0.0112305-0.5478516,0.265625-0.6552734c3.671875-1.5546875,8.3544922-0.0791016,8.5522461-0.015625
		c0.2626953,0.0844727,0.4072266,0.3662109,0.3227539,0.6289063c-0.0844727,0.2631836-0.3657227,0.4077148-0.6289063,0.3232422
		c-0.0454102-0.0146484-4.5297852-1.4233398-7.8564453-0.015625C23.1713867,3.7871094,23.1054688,3.7998047,23.0400391,3.7998047z"
		/>
	<path style="fill:#330600;" d="M35.6445313,4c-0.1494141,0-0.296875-0.0668945-0.3955078-0.1943359
		c-0.1689453-0.2182617-0.1289063-0.5322266,0.0898438-0.7011719c2.9667969-2.2924805,6.6533203-0.4624023,6.8076172-0.3837891
		c0.2460938,0.125,0.34375,0.425293,0.21875,0.6713867c-0.125,0.246582-0.4257813,0.3422852-0.6708984,0.2207031
		c-0.0332031-0.0166016-3.2822266-1.6191406-5.7441406,0.2827148C35.859375,3.9658203,35.7519531,4,35.6445313,4z"/>
	<path style="fill:#330600;" d="M33.8417969,12.5009766c-0.1884766,0-0.3691406-0.1074219-0.4541016-0.2900391
		c-0.1152344-0.2504883-0.0068359-0.5478516,0.2441406-0.6635742c0.1132813-0.0546875,0.4365234-0.2636719,0.5341797-0.5551758
		c0.0595703-0.1796875,0.0302734-0.3803711-0.0908203-0.6132813c-0.6435547-1.2421875-0.0371094-2.6025391-0.0107422-2.659668
		c0.1152344-0.2514648,0.4130859-0.3623047,0.6630859-0.2475586s0.3613281,0.4101563,0.2470703,0.6611328
		c-0.0107422,0.0263672-0.4248047,0.9887695-0.0107422,1.7861328c0.3115234,0.6020508,0.2519531,1.0942383,0.1464844,1.4013672
		c-0.2548828,0.7441406-0.9765625,1.0966797-1.0585938,1.1342773
		C33.9833984,12.4863281,33.9121094,12.5009766,33.8417969,12.5009766z"/>
	<path style="fill:#330600;" d="M44.6035156-2.9755859c0,0,2.3095703,8.125-0.3242188,11.8530273
		c-1.3876953,1.9638672-3.0566406,2.7739258-3.0566406,2.7739258l0.4042969-8.8354492c0,0-5.1787109-3.7421875-7.2226563-6.7421875
		S44.6035156-2.9755859,44.6035156-2.9755859z"/>
	<path style="fill:#330600;" d="M23.4384766-1L20.75,4.25v2.7133789L18.8398438,3.5c0,0-3.0185547-0.2441406-2.9472656,2.0395508
		C15.8925781,5.5395508,12.5,4.125,14-2.75S23.4384766-1,23.4384766-1z"/>
</g>
</svg>
