<?xml version="1.0" encoding="utf-8"?>
<!-- Generator: Adobe Illustrator 15.0.2, SVG Export Plug-In . SVG Version: 6.00 Build 0)  -->
<!DOCTYPE svg PUBLIC "-//W3C//DTD SVG 1.1//EN" "http://www.w3.org/Graphics/SVG/1.1/DTD/svg11.dtd">
<svg version="1.1" id="レイヤー_1" xmlns="http://www.w3.org/2000/svg" xmlns:xlink="http://www.w3.org/1999/xlink" x="0px"
	 y="0px" width="64px" height="64px" viewBox="0 0 64 64" enable-background="new 0 0 64 64" xml:space="preserve">
<g>
	<g>
		<polyline fill="none" stroke="#110601" stroke-width="1.5669" stroke-miterlimit="3" points="10.04,20.814 19.44,14.798 
			30.588,23.276 		"/>
		<polyline fill="none" stroke="#110601" stroke-width="1.5669" stroke-miterlimit="3" points="10.04,25.057 19.44,19.041 
			30.588,27.518 		"/>
		<polyline fill="none" stroke="#110601" stroke-width="1.5669" stroke-miterlimit="3" points="10.04,29.299 19.44,23.283 
			30.588,31.76 		"/>
		<polyline fill="none" stroke="#110601" stroke-width="1.5669" stroke-miterlimit="3" points="10.04,33.541 19.44,27.525 
			30.588,36.002 		"/>
		<polyline fill="none" stroke="#110601" stroke-width="1.5669" stroke-miterlimit="3" points="10.04,37.783 19.44,31.767 
			30.588,40.244 		"/>
		<polyline fill="none" stroke="#110601" stroke-width="1.5669" stroke-miterlimit="3" points="10.04,42.024 19.44,36.009 
			30.588,44.486 		"/>
		<polyline fill="none" stroke="#110601" stroke-width="1.5669" stroke-miterlimit="3" points="10.04,46.267 19.44,40.251 
			30.588,48.729 		"/>
		<polyline fill="none" stroke="#110601" stroke-width="1.5669" stroke-miterlimit="3" points="10.04,50.509 19.44,44.493 
			30.588,52.971 		"/>
		<polyline fill="none" stroke="#110601" stroke-width="1.5669" stroke-miterlimit="3" points="10.04,54.751 19.44,48.735 
			30.588,57.213 		"/>
	</g>
	<g>
		<polyline fill="none" stroke="#110601" stroke-width="1.5669" stroke-miterlimit="3" points="53.96,20.814 44.561,14.798 
			33.413,23.276 		"/>
		<polyline fill="none" stroke="#110601" stroke-width="1.5669" stroke-miterlimit="3" points="53.96,25.057 44.561,19.041 
			33.413,27.518 		"/>
		<polyline fill="none" stroke="#110601" stroke-width="1.5669" stroke-miterlimit="3" points="53.96,29.299 44.561,23.283 
			33.413,31.76 		"/>
		<polyline fill="none" stroke="#110601" stroke-width="1.5669" stroke-miterlimit="3" points="53.96,33.541 44.561,27.525 
			33.413,36.002 		"/>
		<polyline fill="none" stroke="#110601" stroke-width="1.5669" stroke-miterlimit="3" points="53.96,37.783 44.561,31.767 
			33.413,40.244 		"/>
		<polyline fill="none" stroke="#110601" stroke-width="1.5669" stroke-miterlimit="3" points="53.96,42.024 44.561,36.009 
			33.413,44.486 		"/>
		<polyline fill="none" stroke="#110601" stroke-width="1.5669" stroke-miterlimit="3" points="53.96,46.267 44.561,40.251 
			33.413,48.729 		"/>
		<polyline fill="none" stroke="#110601" stroke-width="1.5669" stroke-miterlimit="3" points="53.96,50.509 44.561,44.493 
			33.413,52.971 		"/>
		<polyline fill="none" stroke="#110601" stroke-width="1.5669" stroke-miterlimit="3" points="53.96,54.751 44.561,48.735 
			33.413,57.213 		"/>
	</g>
	<path fill="none" stroke="#40210F" stroke-width="1.0446" stroke-miterlimit="3" d="M17.167,5.741c0,0,13.841,4.832,13.841,15.386"
		/>
	<path fill="none" stroke="#40210F" stroke-width="1.0446" stroke-miterlimit="3" d="M34.142,19.713c0,0,0.404-12.535,8.5-13.972"/>
	<g>
		<linearGradient id="SVGID_1_" gradientUnits="userSpaceOnUse" x1="28.7622" y1="19.4346" x2="38.2377" y2="26.1075">
			<stop  offset="0" style="stop-color:#3F0016"/>
			<stop  offset="1" style="stop-color:#1F000A"/>
		</linearGradient>
		<path fill="url(#SVGID_1_)" stroke="#40210F" stroke-width="0.5446" stroke-miterlimit="3" d="M38.059,22.119
			c0,2.313-1.726,4.188-3.853,4.188h-3.264c-2.127,0-3.852-1.875-3.852-4.188l0,0c0-2.313,1.725-4.188,3.852-4.188h3.264
			C36.333,17.931,38.059,19.806,38.059,22.119L38.059,22.119z"/>
		<linearGradient id="SVGID_2_" gradientUnits="userSpaceOnUse" x1="28.7622" y1="25.8252" x2="38.2368" y2="32.4975">
			<stop  offset="0" style="stop-color:#3F0016"/>
			<stop  offset="1" style="stop-color:#1F000A"/>
		</linearGradient>
		<path fill="url(#SVGID_2_)" stroke="#40210F" stroke-width="0.5446" stroke-miterlimit="3" d="M38.059,28.51
			c0,2.313-1.726,4.188-3.853,4.188h-3.264c-2.127,0-3.852-1.875-3.852-4.188l0,0c0-2.313,1.725-4.188,3.852-4.188h3.264
			C36.333,24.322,38.059,26.197,38.059,28.51L38.059,28.51z"/>
		<linearGradient id="SVGID_3_" gradientUnits="userSpaceOnUse" x1="28.7627" y1="32.2158" x2="38.2373" y2="38.8881">
			<stop  offset="0" style="stop-color:#3F0016"/>
			<stop  offset="1" style="stop-color:#1F000A"/>
		</linearGradient>
		<path fill="url(#SVGID_3_)" stroke="#40210F" stroke-width="0.5446" stroke-miterlimit="3" d="M38.059,34.9
			c0,2.313-1.726,4.188-3.853,4.188h-3.264c-2.127,0-3.852-1.875-3.852-4.188l0,0c0-2.314,1.725-4.188,3.852-4.188h3.264
			C36.333,30.712,38.059,32.586,38.059,34.9L38.059,34.9z"/>
		<linearGradient id="SVGID_4_" gradientUnits="userSpaceOnUse" x1="28.7622" y1="38.6055" x2="38.2368" y2="45.2777">
			<stop  offset="0" style="stop-color:#3F0016"/>
			<stop  offset="1" style="stop-color:#1F000A"/>
		</linearGradient>
		<path fill="url(#SVGID_4_)" stroke="#40210F" stroke-width="0.5446" stroke-miterlimit="3" d="M38.059,41.29
			c0,2.313-1.726,4.188-3.853,4.188h-3.264c-2.127,0-3.852-1.875-3.852-4.188l0,0c0-2.313,1.725-4.188,3.852-4.188h3.264
			C36.333,37.102,38.059,38.977,38.059,41.29L38.059,41.29z"/>
		<linearGradient id="SVGID_5_" gradientUnits="userSpaceOnUse" x1="28.7622" y1="44.9961" x2="38.2377" y2="51.669">
			<stop  offset="0" style="stop-color:#3F0016"/>
			<stop  offset="1" style="stop-color:#1F000A"/>
		</linearGradient>
		<path fill="url(#SVGID_5_)" stroke="#40210F" stroke-width="0.5446" stroke-miterlimit="3" d="M38.059,47.682
			c0,2.313-1.726,4.188-3.853,4.188h-3.264c-2.127,0-3.852-1.875-3.852-4.188l0,0c0-2.314,1.725-4.189,3.852-4.189h3.264
			C36.333,43.492,38.059,45.367,38.059,47.682L38.059,47.682z"/>
		<linearGradient id="SVGID_6_" gradientUnits="userSpaceOnUse" x1="28.7627" y1="51.3867" x2="38.2373" y2="58.059">
			<stop  offset="0" style="stop-color:#3F0016"/>
			<stop  offset="1" style="stop-color:#1F000A"/>
		</linearGradient>
		<path fill="url(#SVGID_6_)" stroke="#40210F" stroke-width="0.5446" stroke-miterlimit="3" d="M38.059,54.071
			c0,2.313-1.726,4.188-3.853,4.188h-3.264c-2.127,0-3.852-1.875-3.852-4.188l0,0c0-2.313,1.725-4.188,3.852-4.188h3.264
			C36.333,49.883,38.059,51.758,38.059,54.071L38.059,54.071z"/>
	</g>
</g>
</svg>
