<?xml version="1.0" encoding="utf-8"?>
<!-- Generator: Adobe Illustrator 15.0.2, SVG Export Plug-In . SVG Version: 6.00 Build 0)  -->
<!DOCTYPE svg PUBLIC "-//W3C//DTD SVG 1.1//EN" "http://www.w3.org/Graphics/SVG/1.1/DTD/svg11.dtd">
<svg version="1.1" id="レイヤー_1" xmlns="http://www.w3.org/2000/svg" xmlns:xlink="http://www.w3.org/1999/xlink" x="0px"
	 y="0px" width="64px" height="64px" viewBox="0 0 64 64" style="enable-background:new 0 0 64 64;" xml:space="preserve">
<polygon style="fill:#FF9712;stroke:#440C01;stroke-width:2.18926;stroke-linecap:round;stroke-linejoin:round;stroke-miterlimit:10;" points="
	21.1425781,41.6933594 21.1425781,70.0263672 32.8095703,58.8603516 "/>
<path style="fill:#FF9712;stroke:#440C01;stroke-width:2.18926;stroke-linecap:round;stroke-linejoin:round;stroke-miterlimit:10;" d="
	M36.3056641,21.796875c0,0,10.3642578-2.0986328,15.4316406,4.6044922c5.0664063,6.7021484,7.5,32.6240234,2.3330078,43.625
	c-10.4277344-4.3330078-24.4052734-35.3261719-24.4052734-35.3261719S20.8925781,24.3583984,36.3056641,21.796875z"/>
<path style="fill:#FF9712;stroke:#440C01;stroke-width:2.18926;stroke-miterlimit:10;" d="M29.6650391,27.34375l6.0214844-5.4970703
	c0,0-8.4638672-0.9560547-12.8554688,5.4970703c-9.5756836,14.0693359,6.8339844,27.3085938,6.8339844,27.3085938V27.34375z"/>
<ellipse style="fill:#FFE6D9;" cx="36.3056641" cy="44.6035156" rx="15.4316406" ry="16.0615234"/>
<ellipse style="fill:none;stroke:#420707;stroke-width:2.18926;stroke-miterlimit:10;" cx="36.3056641" cy="44.6035156" rx="15.4316406" ry="16.0615234"/>
<linearGradient id="SVGID_1_" gradientUnits="userSpaceOnUse" x1="-31.9458008" y1="44.2070313" x2="-28.0965538" y2="49.6414261" gradientTransform="matrix(1 0 0 1 64.1972656 0)">
	<stop  offset="0" style="stop-color:#FFA67F"/>
	<stop  offset="0.0968745" style="stop-color:#FF967B"/>
	<stop  offset="0.3655038" style="stop-color:#FF7170"/>
	<stop  offset="0.6143154" style="stop-color:#FF5568"/>
	<stop  offset="0.8335769" style="stop-color:#FF4564"/>
	<stop  offset="1" style="stop-color:#FF3F62"/>
</linearGradient>
<ellipse style="fill:url(#SVGID_1_);" cx="33.895752" cy="46.5292969" rx="2.3815918" ry="2.0966797"/>
<g>
	<path style="fill:#026594;" d="M26.5512695,40.0068359c-1.1630859,0-2.1337891,0.9199219-2.4521484,2.1748047l2.3046875,0.8691406
		l-2.3046875,0.8701172c0.3164063,1.2548828,1.2890625,2.1767578,2.4521484,2.1767578
		c1.4208984,0,2.5722656-1.3623047,2.5722656-3.0449219S27.972168,40.0068359,26.5512695,40.0068359z"/>
	<g>
		<path style="fill:#026594;" d="M42.3681641,40.0068359c-1.1630859,0-2.1347656,0.9189453-2.4521484,2.1748047l2.3046875,0.8691406
			l-2.3046875,0.8701172c0.3173828,1.2548828,1.2890625,2.1767578,2.4521484,2.1767578
			c1.4208984,0,2.5722656-1.3623047,2.5722656-3.0449219S43.7890625,40.0068359,42.3681641,40.0068359z"/>
	</g>
</g>
<g>
	<path style="fill:#FFFFFF;stroke:#DD2C5E;stroke-miterlimit:10;" d="M47.5205078,17.1206055
		c-2.9462891,6.7963867-7.2050781,11.4956055-9.5117188,10.4956055s-1.7890625-7.3203125,1.1582031-14.1166992
		c2.9462891-6.796875,6.5458984-13.6396484,9.5107422-10.496582C51.5830078,6.0834961,50.4667969,10.3232422,47.5205078,17.1206055z
		"/>
	<path style="fill:#FF5C83;" d="M42.4189453,24.0429688c-2.1640625,4.9926758-3.9140625,3.7944336-5.0664063,3.2954102
		c-1.1533203-0.5009766-0.3339844-4.9526367,1.8300781-9.9443359c2.1640625-4.9926758,4.9882813-8.8564453,6.0058594-8.1342773
		C47.9726563,11.2314453,44.5839844,19.0498047,42.4189453,24.0429688z"/>
</g>
<path style="fill:#510811;" d="M29.6650391,54.6523438c0,0,10.2832031-1.4394531,11.0322266-1.9189453
	c0.7509766-0.4814453,1.84375-0.2412109,0,1.9189453C38.8564453,56.8095703,33.9072266,60.890625,29.6650391,54.6523438z"/>
<g>
	<g>
		<path style="fill:#FFFFFF;stroke:#DD2C5E;stroke-miterlimit:10;" d="M25.8837891,12.7109375
			c2.7832031,6.8652344,3.1494141,13.1962891,0.8198242,14.140625c-2.3300781,0.9458008-6.4746094-3.8549805-9.2573242-10.7197266
			c-2.7841797-6.8647461-2.7626953-11.6948242,1.3276367-10.300293
			C23.0004883,7.2709961,23.1010742,5.8457031,25.8837891,12.7109375z"/>
		<path style="fill:#FF5C83;" d="M27.2460938,21.2016602c2.0439453,5.0429688-0.0366211,5.4516602-1.2001953,5.9233398
			c-1.1660156,0.472168-3.7670898-3.2329102-5.8105469-8.2749023c-2.0458984-5.043457-2.8212891-9.765625-1.5927734-9.9848633
			C22,8.2617188,25.2016602,16.1586914,27.2460938,21.2016602z"/>
	</g>
	<path style="fill:#FFFFFF;stroke:#DD2C5E;stroke-miterlimit:10;" d="M11.7949219,8.9814453
		c-1.5874023,4.1469727,0.5908203,11.5048828,4.9633789,8.3974609C21.1303711,14.2719727,21.4306641,10.6884766,21.5,8.0834961
		l2.2739258,0.1586914c0,0-2.6074219-4.9921875-5.7739258-4.6586914
		C15.1972656,3.8789063,13.1401367,5.4682617,11.7949219,8.9814453z"/>
</g>
<path style="fill:#FFFFFF;stroke:#DD2C5E;stroke-width:1.2669799;stroke-linecap:round;stroke-linejoin:round;stroke-miterlimit:10;" d="
	M17.8383789,36.390625c0,0,5.2426758-7.265625,13.574707-8.5283203c7.9492188-1.2036133,15.1210938,2.2143555,19.4248047,9.3378906
	c0,0-2.3476563-16.9902344-20.1787109-14.96875C23.2026367,23.0776367,19.9482422,28.0737305,17.8383789,36.390625z"/>
<path style="fill:#FF9712;stroke:#440C01;stroke-width:2.18926;stroke-linecap:round;stroke-linejoin:round;stroke-miterlimit:10;" d="
	M26.0834961,28.4169922c17.6235352,10.7724609,19.559082,11.5898438,26.559082,16.1865234
	C52.6425781,44.6035156,48.921875,20.6757813,26.0834961,28.4169922z"/>
<path style="fill:#FF9712;stroke:#440C01;stroke-width:2.18926;stroke-linecap:round;stroke-linejoin:round;stroke-miterlimit:10;" d="
	M20.8886719,48.6259766c0,0-1.7241211-12.3037109,9.3613281-17.6259766c0,0-6.5834961-6-10.8334961,0.25
	C15.043457,37.6806641,17.5869141,43.0185547,20.8886719,48.6259766z"/>
</svg>
