<?xml version="1.0" encoding="utf-8"?>
<!-- Generator: Adobe Illustrator 15.0.2, SVG Export Plug-In . SVG Version: 6.00 Build 0)  -->
<!DOCTYPE svg PUBLIC "-//W3C//DTD SVG 1.1//EN" "http://www.w3.org/Graphics/SVG/1.1/DTD/svg11.dtd">
<svg version="1.1" id="レイヤー_1" xmlns="http://www.w3.org/2000/svg" xmlns:xlink="http://www.w3.org/1999/xlink" x="0px"
	 y="0px" width="64px" height="64px" viewBox="0 0 64 64" enable-background="new 0 0 64 64" xml:space="preserve">
<g>
	<linearGradient id="SVGID_1_" gradientUnits="userSpaceOnUse" x1="30.7651" y1="19.5767" x2="33.085" y2="47.6881">
		<stop  offset="0" style="stop-color:#FFFFFF"/>
		<stop  offset="1" style="stop-color:#FFE8BF"/>
	</linearGradient>
	<path fill="url(#SVGID_1_)" stroke="#231815" stroke-width="0.8" stroke-miterlimit="10" d="M33,23.583c-1.1,0-2.45-0.525-3-1.167
		s-1.9-1.167-3-1.167H10.625c-1.1,0-2.225,0.525-2.5,1.167s-1.4,1.167-2.5,1.167H4.5c-1.1,0-2,0.73-2,1.624v18.67
		c0,0.893,0.9,1.623,2,1.623h55c1.1,0,2-0.73,2-1.623v-18.67c0-0.893-0.9-1.624-2-1.624H33z"/>
	<linearGradient id="SVGID_2_" gradientUnits="userSpaceOnUse" x1="32.063" y1="50.0811" x2="32.063" y2="39.6717">
		<stop  offset="0" style="stop-color:#FFAA5F"/>
		<stop  offset="1" style="stop-color:#FF4000"/>
	</linearGradient>
	<path fill="url(#SVGID_2_)" d="M2.637,41.007c-0.002,0.04-0.012,0.078-0.012,0.118V43.5c0,1.1,0.9,2,2,2H59.5c1.1,0,2-0.9,2-2
		v-2.375c0-0.04-0.01-0.078-0.012-0.118H2.637z"/>
	<linearGradient id="SVGID_3_" gradientUnits="userSpaceOnUse" x1="32.0005" y1="44.5605" x2="32.0005" y2="22.5529">
		<stop  offset="0" style="stop-color:#FFAA5F"/>
		<stop  offset="1" style="stop-color:#FF4000"/>
	</linearGradient>
	<rect x="2.5" y="25.375" fill="url(#SVGID_3_)" width="59" height="9.5"/>
	<linearGradient id="SVGID_4_" gradientUnits="userSpaceOnUse" x1="4.4233" y1="22.2642" x2="6.0977" y2="42.5535">
		<stop  offset="0" style="stop-color:#FFFFFF"/>
		<stop  offset="1" style="stop-color:#3FBDFF"/>
	</linearGradient>
	<polygon fill="url(#SVGID_4_)" stroke="#231815" stroke-width="0.8" stroke-miterlimit="10" points="6.125,37.539 2.5,37.539 
		2.5,27.025 8,27.025 	"/>
	<g>
		<linearGradient id="SVGID_5_" gradientUnits="userSpaceOnUse" x1="26.8345" y1="19.8813" x2="28.6016" y2="41.2953">
			<stop  offset="0" style="stop-color:#FFFFFF"/>
			<stop  offset="1" style="stop-color:#3FBDFF"/>
		</linearGradient>
		
			<rect x="18.251" y="27.025" fill="url(#SVGID_5_)" stroke="#231815" stroke-width="0.8" stroke-miterlimit="10" width="18.874" height="6.408"/>
		<linearGradient id="SVGID_6_" gradientUnits="userSpaceOnUse" x1="54.0381" y1="20.4644" x2="55.7057" y2="40.6718">
			<stop  offset="0" style="stop-color:#FFFFFF"/>
			<stop  offset="1" style="stop-color:#3FBDFF"/>
		</linearGradient>
		
			<rect x="48.125" y="27.025" fill="url(#SVGID_6_)" stroke="#231815" stroke-width="0.675" stroke-miterlimit="10" width="13.437" height="6.408"/>
		
			<line fill="#2CA4DE" stroke="#231815" stroke-width="0.8" stroke-miterlimit="10" x1="24.751" y1="27.025" x2="24.751" y2="33.434"/>
		<line fill="#2CA4DE" stroke="#231815" stroke-width="0.8" stroke-miterlimit="10" x1="31" y1="27.025" x2="31" y2="33.434"/>
		
			<line fill="#2CA4DE" stroke="#231815" stroke-width="0.8" stroke-miterlimit="10" x1="54.844" y1="27.025" x2="54.844" y2="33.434"/>
	</g>
	<g>
		<linearGradient id="SVGID_7_" gradientUnits="userSpaceOnUse" x1="11.4897" y1="21.7339" x2="13.1169" y2="41.4511">
			<stop  offset="0" style="stop-color:#FFFFFF"/>
			<stop  offset="1" style="stop-color:#3FBDFF"/>
		</linearGradient>
		<polygon fill="url(#SVGID_7_)" stroke="#231815" stroke-width="0.7842" stroke-miterlimit="10" points="15.782,27.025 
			12.688,27.025 9.595,27.025 9.595,45.5 15.782,45.5 		"/>
		
			<line fill="#2CA4DE" stroke="#231815" stroke-width="0.7842" stroke-miterlimit="10" x1="12.688" y1="45.5" x2="12.688" y2="27.025"/>
	</g>
	<g>
		<linearGradient id="SVGID_8_" gradientUnits="userSpaceOnUse" x1="41.4893" y1="21.7344" x2="43.1164" y2="41.4516">
			<stop  offset="0" style="stop-color:#FFFFFF"/>
			<stop  offset="1" style="stop-color:#3FBDFF"/>
		</linearGradient>
		<polygon fill="url(#SVGID_8_)" stroke="#231815" stroke-width="0.7842" stroke-miterlimit="10" points="45.782,27.025 
			42.688,27.025 39.595,27.025 39.595,45.5 45.782,45.5 		"/>
		
			<line fill="#2CA4DE" stroke="#231815" stroke-width="0.7842" stroke-miterlimit="10" x1="42.688" y1="45.5" x2="42.688" y2="27.025"/>
	</g>
	<path fill="none" stroke="#231815" stroke-width="0.8" stroke-miterlimit="10" d="M33,23.583c-1.1,0-2.45-0.525-3-1.167
		s-1.9-1.167-3-1.167H10.625c-1.1,0-2.225,0.525-2.5,1.167s-1.4,1.167-2.5,1.167H4.5c-1.1,0-2,0.73-2,1.624v18.67
		c0,0.893,0.9,1.623,2,1.623h55c1.1,0,2-0.73,2-1.623v-18.67c0-0.893-0.9-1.624-2-1.624H33z"/>
	<g>
		<circle fill="#231815" cx="21.28" cy="45.6" r="4.592"/>
		<circle fill="#FFFFFF" cx="21.28" cy="45.6" r="2.784"/>
	</g>
	<g>
		<circle fill="#231815" cx="51.972" cy="45.6" r="4.592"/>
		<circle fill="#FFFFFF" cx="51.972" cy="45.6" r="2.785"/>
	</g>
	<linearGradient id="SVGID_9_" gradientUnits="userSpaceOnUse" x1="19.2319" y1="22.3306" x2="19.3632" y2="23.9209">
		<stop  offset="0" style="stop-color:#FFFFFF"/>
		<stop  offset="1" style="stop-color:#FFE8BF"/>
	</linearGradient>
	
		<line fill="url(#SVGID_9_)" stroke="#9C9C9D" stroke-width="0.6996" stroke-miterlimit="10" x1="29" y1="23.125" x2="9.595" y2="23.125"/>
	
		<rect x="2.5" y="38.593" fill="#F8EB00" stroke="#231815" stroke-width="0.8" stroke-miterlimit="10" width="1.75" height="2.814"/>
	
		<rect x="59.75" y="38.593" fill="#E30012" stroke="#231815" stroke-width="0.8" stroke-miterlimit="10" width="1.75" height="2.814"/>
</g>
</svg>
