<?xml version="1.0" encoding="utf-8"?>
<!-- Generator: Adobe Illustrator 15.0.2, SVG Export Plug-In . SVG Version: 6.00 Build 0)  -->
<!DOCTYPE svg PUBLIC "-//W3C//DTD SVG 1.1//EN" "http://www.w3.org/Graphics/SVG/1.1/DTD/svg11.dtd">
<svg version="1.1" id="レイヤー_1" xmlns="http://www.w3.org/2000/svg" xmlns:xlink="http://www.w3.org/1999/xlink" x="0px"
	 y="0px" width="64px" height="64px" viewBox="0 0 64 64" enable-background="new 0 0 64 64" xml:space="preserve">
<path d="M57.527,48.641c0,0-2.068-3.268-3.357-3.637c-1.287-0.367-5.795-2.576-5.795-2.576l-6.441-2.393h-1.506l-2.406-3.305
	c-0.029-0.719,0.006-1.607,0.178-2.611c1.678-1.272,2.656-2.94,3.609-5.724l3.621-2.897c0,0,0.553-3.864,0-4.979
	c-0.324-0.654-0.943-0.679-1.402-0.592l0.557-2.997c0,0-0.258-5.049-2.65-7.073c-0.4-0.339-0.861-0.59-1.346-0.782l-0.127-0.417
	l-1.271-0.66L38.49,7.599c0,0-4.323-2.766-10.477-1.476c-0.353,0.074-0.585,0.668-1.095,1.008c-0.424,0.283-1.915,0.702-1.915,0.702
	l-0.712,1.634c-2.519,2.003-4.764,4.633-4,7.297l0.164,0.517l0.004,0.554c-0.059,0.083-0.115,0.162-0.152,0.199
	c-0.292,0.292,0.098,1.018,0.672,1.789l0.088,0.338c-0.601-0.104-1.593,0.841-1.77,1.29C18.933,22.382,21,25.683,21,25.683
	l1.914,1.672c0.868,3.06,1.809,4.953,3.378,6.336v3.033v1.453l-1.459,1.155l-1.82,1.437l-7.67,3.223l-5.98,1.943l-3.241,2.313
	l-6.233,19.576l-0.555,5.703L66.5,75.553L57.527,48.641z"/>
</svg>
