<?xml version="1.0" encoding="UTF-8"?>
<!-- Generated by phantom_svg. -->
<svg width="64px" height="64px" viewBox="0 0 64 64" preserveAspectRatio="none" xmlns="http://www.w3.org/2000/svg" xmlns:xlink="http://www.w3.org/1999/xlink" version="1.1">
  <path style="fill:#717071;" d="M44.9414063,53.109375L44.9414063,53.109375c-2.4951172,0-4.71875-1.3935547-6.609375-4.1416016
	c-1.8730469-2.7216797-3.2011719-5.0927734-4.0136719-7.1699219C34.046875,43.9716797,33.2460938,46.25,32,46.25
	c-1.2480469,0-2.0498047-2.2851563-2.3198242-4.4619141c-0.8183594,2.1005859-2.1445313,4.4658203-4.0117188,7.1796875
	c-1.8911133,2.7480469-4.1147461,4.1416016-6.609375,4.1416016c-4.4980469,0-8.7509766-4.6894531-10.2089844-7.859375
	c-1.7255859-3.75-3.1728516-7.7089844-0.3364258-11.2607422c0.4667969-0.5859375,1.2675781-1.0996094,2.3901367-1.5371094
	c-0.2763672-0.0830078-0.5380859-0.1728516-0.7861328-0.269043c-4.9091797-1.9077148-9.4785156-13.5986328-8.6777344-17.9995117
	c0.418457-2.3022461,2.8535156-3.6225586,6.6806641-3.6225586c3.6298828,0,7.9365234,1.1767578,12.1264648,3.3144531
	c6.5449219,3.3388672,9.6049805,8.5703125,10.2363281,12.0356445c0.0317383,0.1728516,0.0761719,0.4394531,0.1269531,0.7646484
	c0.1503906-0.1342773,0.3154297-0.2475586,0.4916992-0.3354492c-0.0214844-0.2441406-0.0537109-0.5483398-0.1005859-0.8974609
	c-0.0742188-0.534668-0.1738281-1.0566406-0.2944336-1.5488281l-0.0517578-0.2099609
	c-0.0493164-0.2045898-0.0991211-0.4140625-0.1748047-0.6181641l-0.0683594-0.206543
	c-0.0678711-0.2084961-0.1342773-0.4199219-0.2358398-0.6152344l-0.815918-1.7114258
	c-0.1875-0.3764648-0.3154297-0.7705078-0.4282227-1.1186523c-0.0551758-0.1704102-0.1079102-0.3334961-0.1650391-0.4838867
	c-0.059082-0.1630859-0.097168-0.3120117-0.1323242-0.4521484c-0.019043-0.0756836-0.0371094-0.1484375-0.059082-0.2172852
	l-0.2485352-0.9829102c-0.1010742-0.4492188,0.1821289-0.8964844,0.6313477-0.9975586l0.1835938-0.0205078
	c0.3876953,0,0.7294922,0.2744141,0.8139648,0.652832l0.0615234,0.5390625
	c0.0117188,0.0561523,0.0273438,0.1655273,0.0444336,0.2866211c0.03125,0.21875,0.0683594,0.4819336,0.1367188,0.769043
	c0.0429688,0.1391602,0.0864258,0.3183594,0.1313477,0.5068359c0.0751953,0.3149414,0.1533203,0.6401367,0.2856445,0.965332
	l0.3393555,0.8671875c0.1113281,0.2905273,0.2226563,0.5683594,0.3525391,0.8701172
	c0.1220703,0.2539063,0.199707,0.5234375,0.2753906,0.7836914l0.0537109,0.184082
	c0.0791016,0.237793,0.1333008,0.4912109,0.1850586,0.7397461l0.0429688,0.2026367
	C31.9145508,23.8642578,31.9599609,24.1069336,32,24.3549805c0.0400391-0.246582,0.0849609-0.4882813,0.1342773-0.7236328
	l0.0439453-0.2070313c0.0517578-0.2485352,0.105957-0.5019531,0.1889648-0.7529297l0.050293-0.1723633
	c0.0751953-0.2602539,0.152832-0.5292969,0.2832031-0.8007813c0.121582-0.2836914,0.2324219-0.5620117,0.3432617-0.8496094
	l0.3378906-0.862793c0.1347656-0.3320313,0.2128906-0.6582031,0.2880859-0.9736328
	c0.0449219-0.1875,0.0878906-0.3662109,0.1386719-0.5327148c0.0615234-0.2602539,0.0986328-0.5234375,0.1289063-0.7416992
	c0.0175781-0.1210938,0.0332031-0.2299805,0.0498047-0.3242188l0.0390625-0.3818359
	c0.046875-0.4506836,0.4033203-0.7719727,0.8310547-0.7719727c0.5429688,0.0517578,0.8779297,0.4624023,0.8310547,0.9194336
	l-0.0175781,0.1049805l-0.2421875,0.9609375c-0.0273438,0.0864258-0.0449219,0.1601563-0.0644531,0.237793
	c-0.0351563,0.1381836-0.0732422,0.2851563-0.1279297,0.4384766c-0.0595703,0.1582031-0.1123047,0.3208008-0.1669922,0.4902344
	c-0.1132813,0.3486328-0.2412109,0.7441406-0.4335938,1.1293945l-0.8037109,1.6865234
	c-0.1103516,0.2119141-0.1757813,0.4233398-0.2441406,0.6318359l-0.0634766,0.1928711
	c-0.0800781,0.2177734-0.1298828,0.4272461-0.1796875,0.6318359l-0.0527344,0.2143555
	c-0.1201172,0.487793-0.21875,1.0097656-0.2939453,1.5463867c-0.046875,0.3476563-0.0786133,0.6513672-0.1000977,0.8955078
	c0.1762695,0.0878906,0.3413086,0.2011719,0.4916992,0.3349609c0.0507813-0.3242188,0.0947266-0.5908203,0.1259766-0.7631836
	c0.6318359-3.4663086,3.6923828-8.6977539,10.2373047-12.0366211c4.1894531-2.1376953,8.4960938-3.3144531,12.1259766-3.3144531
	c3.828125,0,6.2636719,1.3203125,6.6816406,3.6225586c0.8007813,4.4008789-3.7695313,16.0917969-8.6787109,17.9990234
	c-0.2480469,0.0966797-0.5097656,0.1865234-0.7861328,0.2695313c1.1220703,0.4375,1.9238281,0.9511719,2.390625,1.5361328
	C58.3232422,37.5410156,56.8759766,41.5,55.1503906,45.25C53.6923828,48.4199219,49.4394531,53.109375,44.9414063,53.109375z
	 M34.0644531,36.2226563l0.4091797,2.5410156c0.4716797,2.6103516,1.9980469,5.7373047,4.6826172,9.6376953
	c1.6923828,2.4609375,3.6386719,3.7080078,5.7851563,3.7080078c4.2070313,0,8.1337891-4.7392578,9.3007813-7.2773438
	c1.9960938-4.3388672,2.7119141-7.4023438,0.4628906-10.2197266c-0.375-0.46875-1.3076172-1.1533203-3.6210938-1.7480469
	l-2.2265625-0.5732422l2.2636719-0.4033203c0.9433594-0.1679688,1.7285156-0.3764648,2.3994141-0.637207
	c4.4628906-1.7338867,8.7900391-12.8549805,8.0556641-16.8881836c-0.3183594-1.7539063-2.4482422-2.8012695-5.6972656-2.8012695
	c-3.4248047,0-7.6787109,1.1679688-11.6708984,3.2050781C37.9873047,17.9394531,35.0908203,22.8496094,34.5,26.0908203
	c-0.0673828,0.3735352-0.1992188,1.2006836-0.3212891,2.0961914l-0.1591797,1.2871094
	c-0.0253906,0.2275391-0.046875,0.4472656-0.0644531,0.652832l-0.0761719,0.90625l-0.7246094-0.5498047
	c-0.109375-0.0834961-0.2255859-0.1547852-0.3442383-0.2114258l-0.8115234-0.387207l-0.8081055,0.387207
	c-0.1210938,0.0576172-0.2368164,0.1289063-0.3442383,0.2109375l-0.7250977,0.5522461l-0.0761719-0.9082031
	c-0.0175781-0.2055664-0.0395508-0.425293-0.0644531-0.652832l-0.159668-1.2871094
	c-0.121582-0.8955078-0.2529297-1.722168-0.3208008-2.0966797c-0.5908203-3.2407227-3.4873047-8.1513672-9.7070313-11.3242188
	c-3.9931641-2.0371094-8.2475586-3.2050781-11.6723633-3.2050781c-3.2485352,0-5.378418,1.0473633-5.6972656,2.8012695
	c-0.7333984,4.0332031,3.5932617,15.1542969,8.0561523,16.8886719c0.6713867,0.2602539,1.456543,0.46875,2.3999023,0.6367188
	l2.2646484,0.4033203l-2.2280273,0.5732422c-2.3144531,0.5947266-3.246582,1.2792969-3.6210938,1.7480469
	c-2.2490234,2.8173828-1.5332031,5.8798828,0.4633789,10.2197266c1.1674805,2.5380859,5.09375,7.2773438,9.3007813,7.2773438
	c2.1459961,0,4.0922852-1.2470703,5.7851563-3.7080078c2.6835938-3.9003906,4.2104492-7.0273438,4.6669922-9.5576172
	l0.434082-2.4023438l-0.0136719,0.0146484l0.0214844-1.2646484c0.0029297-0.1601563,0.0014648-0.3154297-0.0043945-0.46875
	l-0.0444336-1.1308594l0.8657227,0.7285156c0.0869141,0.0732422,0.1796875,0.1357422,0.2763672,0.1933594l0.7495117,0.4443359
	l-0.7626953,0.4228516c-0.0854492,0.046875-0.1577148,0.1025391-0.2211914,0.1679688L30.3125,36.0634766l0.206543,2.7451172
	c0.0317383,0.4609375,0.0595703,0.9345703,0.0595703,1.4101563c0,2.9990234,1.0668945,5.03125,1.4213867,5.03125
	c0.3540039,0,1.4208984-2.0322266,1.4208984-5.03125c0-0.4755859,0.0283203-0.9492188,0.0605469-1.4101563l0.1914063-2.7597656
	l-0.484375-0.5c-0.0625-0.0644531-0.1376953-0.1210938-0.2226563-0.1689453l-0.7602539-0.4228516l0.7480469-0.4433594
	c0.097168-0.0576172,0.1899414-0.1201172,0.2768555-0.1933594l0.8613281-0.7216797l-0.0400391,1.1220703
	C34.0458984,34.875,34.0439453,35.03125,34.046875,35.1914063L34.0644531,36.2226563z M30.6650391,28.8139648l0.2231445,0.3203125
	c0.0688477,0.0991211,0.1630859,0.1738281,0.2880859,0.2290039L32,29.7260742l0.8237305-0.362793
	c0.125-0.0551758,0.2192383-0.1298828,0.2885742-0.2290039l0.2226563-0.3203125l-0.1376953-0.5786133
	c-0.125-0.5263672-0.4833984-0.9418945-0.9179688-1.0683594l-0.1201172-0.0200195
	c-0.1523438-0.0253906-0.2011719-0.0195313-0.2832031-0.0058594l-0.1601563,0.0273438
	c-0.4321289,0.128418-0.7880859,0.5424805-0.9130859,1.0668945L30.6650391,28.8139648z M34.0214844,33.4306641l0.0888672-1.5214844
	l0.6855469,0.1464844l1.7910156,0.3164063l-1.6455078,0.6533203c-0.0625,0.0244141-0.1220703,0.0478516-0.1777344,0.0732422
	L34.0214844,33.4306641z M29.9482422,33.2998047l-0.7119141-0.2011719
	c-0.0556641-0.0253906-0.1152344-0.0488281-0.1777344-0.0732422l-1.6655273-0.6298828l2.5219727-0.5102539L29.9482422,33.2998047z"/>
  <radialGradient id="SVGID_1_" cx="32" cy="37.53125" r="1.8877172" gradientTransform="matrix(1 0 0 1.2941846 0 -11.0411148)" gradientUnits="userSpaceOnUse">
    <stop offset='0' style='stop-color:#595757'/>
    <stop offset='1' style='stop-color:#3E3A39'/>
  </radialGradient>
  <path style="fill:url(#SVGID_1_);" d="M32,45.75c0.9606476,0,1.9212952-2.765625,1.9212952-5.53125S34.8819427,34.6875,32,34.6875
	s-1.9212971,2.765625-1.9212971,5.53125S31.0393524,45.75,32,45.75z"/>
  <radialGradient id="SVGID_2_" cx="32" cy="28.3125" r="1.7190341" gradientUnits="userSpaceOnUse">
    <stop offset='0' style='stop-color:#595757'/>
    <stop offset='1' style='stop-color:#3E3A39'/>
  </radialGradient>
  <path style="fill:url(#SVGID_2_);" d="M33.75,28.6224499C33.75,29.6875687,32.9664993,30,32,30
	c-0.9664974,0-1.75-0.3124313-1.75-1.3775501C30.25,27.5573292,31.0335026,26.625,32,26.625
	C32.9664993,26.625,33.75,27.5573292,33.75,28.6224499z"/>
  <radialGradient id="SVGID_3_" cx="32" cy="32.4375" r="2.7195706" gradientUnits="userSpaceOnUse">
    <stop offset='0' style='stop-color:#595757'/>
    <stop offset='1' style='stop-color:#3E3A39'/>
  </radialGradient>
  <ellipse style="fill:url(#SVGID_3_);" cx="32" cy="32.4375" rx="2.5779569" ry="2.8541667"/>
  <path style="fill:#3E3A39;" d="M32.2218781,26.9551315c0,0,0.0289078-0.6422501,0.1477356-1.5960503
	c0.0511627-0.4779854,0.1299973-1.0349159,0.2538605-1.6249046c0.0651093-0.2944527,0.1178818-0.6022949,0.2181473-0.9048862
	c0.0922089-0.3043118,0.1686592-0.6191158,0.3097839-0.9147472c0.1330223-0.3078327,0.2463341-0.5921402,0.3590469-0.8856239
	c0.1147919-0.2932091,0.2277603-0.581768,0.3370857-0.8610153c0.2271614-0.5580158,0.3049736-1.0970173,0.4400253-1.5442314
	c0.1086159-0.4549351,0.1434746-0.8521614,0.1923637-1.120203c0.0276718-0.2679443,0.0434837-0.4210548,0.0434837-0.4210548
	l0.0023155-0.0224113c0.0189781-0.1837826,0.1833496-0.3173828,0.3671341-0.2984047
	c0.1837845,0.01898,0.3173828,0.1833515,0.2984009,0.367136c-0.001297,0.0125694-0.0037193,0.0267811-0.00634,0.0388508
	c0,0-0.0363693,0.1621628-0.1000214,0.4459457c-0.0380859,0.1376724-0.0843277,0.3048458-0.1373672,0.4966011
	c-0.0603485,0.1904564-0.097599,0.408596-0.1820297,0.6421947c-0.1741791,0.4588203-0.3107147,1.0305195-0.5774651,1.5656929
	c-0.2576103,0.5408325-0.5323906,1.1177216-0.8071785,1.6946106c-0.1453438,0.2785225-0.2302437,0.584837-0.3302231,0.8794174
	c-0.1080093,0.2923813-0.1699219,0.5945511-0.2437134,0.8828602c-0.1414032,0.5781193-0.237915,1.1284122-0.3042526,1.6013012
	c-0.1273346,0.9483128-0.1470528,1.5853233-0.1470528,1.5853233c-0.0011406,0.0369587-0.032032,0.0659904-0.0689888,0.064846
	c-0.0369568-0.0011425-0.0659866-0.0320301-0.0648422-0.0689869L32.2218781,26.9551315z"/>
  <path style="fill:#3E3A39;" d="M31.6443825,26.9615326c0,0-0.0197163-0.6370106-0.1470547-1.5853233
	c-0.0663357-0.4728889-0.1628456-1.0231819-0.3042526-1.6013012c-0.0737877-0.2883091-0.1357002-0.5904789-0.2437134-0.8828602
	c-0.0999775-0.2945805-0.1848774-0.6008949-0.3302231-0.8794174c-0.2747841-0.576889-0.5495682-1.1537781-0.8071766-1.6946106
	c-0.2667484-0.5351734-0.4032879-1.1068726-0.577467-1.5656929c-0.0844288-0.2335987-0.1216812-0.4517384-0.1820259-0.6421947
	c-0.0530434-0.1917553-0.0992851-0.3589287-0.1373692-0.4966011c-0.0636501-0.283783-0.1000233-0.4459457-0.1000233-0.4459457
	c-0.0404358-0.1802807,0.0729313-0.3592091,0.253212-0.3996449c0.1802826-0.0404377,0.3592091,0.0729294,0.3996449,0.253212
	c0.0027676,0.012331,0.0048141,0.0246563,0.0061684,0.036932l0.0024872,0.0243301c0,0,0.0158119,0.1531105,0.0434837,0.4210548
	c0.0488892,0.2680416,0.083746,0.6652679,0.1923637,1.120203c0.1350498,0.4472141,0.212862,0.9862156,0.4400253,1.5442314
	c0.1093254,0.2792473,0.2222958,0.5678062,0.3370876,0.8610153c0.112711,0.2934837,0.2260227,0.5777912,0.359045,0.8856239
	c0.1411247,0.2956314,0.217577,0.6104355,0.3097858,0.9147472c0.1002617,0.3025913,0.1530361,0.6104336,0.2181435,0.9048862
	c0.123867,0.5899887,0.2026997,1.1469193,0.2538605,1.6249046c0.1188297,0.9538002,0.1477375,1.5960503,0.1477375,1.5960503
	c0.0023899,0.0369072-0.0255871,0.0687618-0.0624924,0.0711536c-0.0369053,0.0023899-0.0687618-0.0255871-0.0711517-0.0624924
	L31.6443825,26.9615326z"/>
  <g>
    <linearGradient id='SVGID_4_' gradientUnits='userSpaceOnUse' x1='33.0538139' y1='42.0475044' x2='56.2983627' y2='42.0475044' gradientTransform='matrix(0.9982269 0.0595233 -0.0595233 0.9982269 2.6580637 -2.5744936)'>
      <stop offset='0' style='stop-color:#717071'/>
      <stop offset='1' style='stop-color:#302E2D'/>
    </linearGradient>
    <path style='fill:url(#SVGID_4_);' d='M34.0649872,32.9380684c0.8410339-0.7769737,4.6196709-1.2220821,7.1257591-1.3849354
		c5.1837273-0.336853,12.2015152,0.6144314,13.9051704,2.7478504c2.5272942,3.1648293,1.4856606,6.6412392-0.4000854,10.7403412
		c-1.8857422,4.099102-9.8316727,12.5397568-15.9521065,3.6435776c-2.8649902-4.1643219-4.3073654-7.3153839-4.7469902-9.7518883
		C33.8537941,38.1408157,33.0128593,33.9100609,34.0649872,32.9380684z'/>
    <linearGradient id='SVGID_5_' gradientUnits='userSpaceOnUse' x1='33.3484688' y1='40.807682' x2='54.8578415' y2='42.0600662'>
      <stop offset='0' style='stop-color:#2CA4DE'/>
      <stop offset='1' style='stop-color:#394BAD'/>
    </linearGradient>
    <path style='fill:url(#SVGID_5_);' d='M34.1832886,33.0857811c0.7798233-0.711174,4.2834473-1.1185837,6.6071434-1.2676449
		c4.8064537-0.3083229,11.3134842,0.5623951,12.8931503,2.515131c2.3433533,2.8967934,1.377533,6.0787811-0.3709679,9.8307228
		c-1.748497,3.7519455-9.1161194,11.4777451-14.7911072,3.3349991c-2.6564751-3.8116417-3.9938736-6.6958351-4.4015045-8.9259834
		C33.9874649,37.8478966,33.207737,33.9754524,34.1832886,33.0857811z'/>
    <linearGradient id='SVGID_6_' gradientUnits='userSpaceOnUse' x1='39.5814095' y1='35.9485626' x2='47.2173805' y2='35.9485626' gradientTransform='matrix(0.9982269 0.0595233 -0.0595233 0.9982269 2.6580637 -2.5744936)'>
      <stop offset='0' style='stop-color:#FFFFFF;stop-opacity:0.7'/>
      <stop offset='1' style='stop-color:#FFFFFF;stop-opacity:0.2'/>
    </linearGradient>
    <path style='fill:url(#SVGID_6_);' d='M46.0461655,34.4199219c-0.2247963,3.7699394-5.0190506,5.0671692-6.1965828,4.9969521
		c-0.5680695-0.0338745,4.8159981-2.6914177,3.2400017-4.3390503c-0.3654823-0.3820953,0.2390938-0.6663666,0.2705383-1.1937218
		c0.0607567-1.0188904-4.1205101-1.6946411,1.1392822-1.6493301C50.9632454,32.2904587,46.1306648,33.0028496,46.0461655,34.4199219
		z'/>
    <linearGradient id='SVGID_7_' gradientUnits='userSpaceOnUse' x1='35.2428513' y1='43.0896149' x2='38.1770897' y2='43.0896149' gradientTransform='matrix(0.9982269 0.0595233 -0.0595233 0.9982269 2.6580637 -2.5744936)'>
      <stop offset='0' style='stop-color:#FFFFFF;stop-opacity:0.7'/>
      <stop offset='1' style='stop-color:#FFFFFF;stop-opacity:0.2'/>
    </linearGradient>
    <path style='fill:url(#SVGID_7_);' d='M37.0608253,42.2200203c-0.1913185,3.2084618,1.3327408,3.6571007,0.6325874,3.6153526
		c-0.7001572-0.041748-2.1386719-3.9887848-2.1908112-4.6384544c-0.2654305-3.307251,0.2647858-1.021492,1.3378944-1.1008415
		C40.0545731,39.8584137,37.1841164,40.1523438,37.0608253,42.2200203z'/>
  </g>
  <g>
    <linearGradient id='SVGID_8_' gradientUnits='userSpaceOnUse' x1='34.317585' y1='21.9748764' x2='61.7052193' y2='21.9748764' gradientTransform='matrix(0.9964635 0.0840268 -0.0840268 0.9964635 1.8841106 -3.9168351)'>
      <stop offset='0' style='stop-color:#717071'/>
      <stop offset='1' style='stop-color:#302E2D'/>
    </linearGradient>
    <path style='fill:url(#SVGID_8_);' d='M33.4408379,31.3623581c-0.1716537-0.6467857,0.3958359-4.4191322,0.5674896-5.3611641
		c0.6317749-3.467123,3.6950035-8.478363,9.9716606-11.6802206c8.8787994-4.5292702,17.3437614-4.1445236,18.0886154-0.0481091
		s-3.6016083,15.5922766-8.3669472,17.4436913c-2.7950211,1.0859127-6.945015,1.1589756-10.8140945,1.0503826
		C35.0888405,32.5480537,33.90839,33.1240387,33.4408379,31.3623581z'/>
    <linearGradient id='SVGID_9_' gradientUnits='userSpaceOnUse' x1='34.6564636' y1='22.2240982' x2='60.2118454' y2='22.2240982' gradientTransform='matrix(0.9964635 0.0840268 -0.0840268 0.9964635 1.8841106 -3.9168351)'>
      <stop offset='0' style='stop-color:#2CA4DE'/>
      <stop offset='1' style='stop-color:#394BAD'/>
    </linearGradient>
    <path style='fill:url(#SVGID_9_);' d='M33.7941017,31.1310825c-0.1590958-0.6152287,0.3767967-4.2058296,0.538559-5.1025181
		c0.5953674-3.3002415,3.4622765-8.0734253,9.32481-11.1295033c8.2929878-4.3230534,16.1915512-3.9693193,16.8797493-0.0722589
		s-3.3870659,14.8428946-7.8370171,16.6116791c-2.6100426,1.0374489-6.4827957,1.1130486-10.0931053,1.0153732
		C35.3299713,32.2569809,34.2274475,32.8068161,33.7941017,31.1310825z'/>
    <linearGradient id='SVGID_10_' gradientUnits='userSpaceOnUse' x1='44.7383308' y1='18.130415' x2='53.2036972' y2='18.130415' gradientTransform='matrix(0.9759023 -0.218208 0.218208 0.9759023 -1.7134717 11.0165482)'>
      <stop offset='0' style='stop-color:#FFFFFF;stop-opacity:0.7'/>
      <stop offset='1' style='stop-color:#FFFFFF;stop-opacity:0.2'/>
    </linearGradient>
    <path style='fill:url(#SVGID_10_);' d='M50.3922195,15.9382229c0.9162064,4.4273109,0.7402115,6.8571053-0.1554108,7.0152683
		c-0.3770866,0.0665932,0.4862633-2.2342033-0.9972534-4.8946972c-0.4431229-0.7946777-1.0337677-0.4102631-1.2867355-0.7292118
		c-0.299778-0.3779678,0.3146362-0.8330154-0.4360695-1.3540983c-1.3714027-0.9519234-2.2048149,0.2349291-2.3031921-0.1155834
		c-0.2092171-0.7454309,0.9007759-1.5007877,2.9857635-2.1401215C58.127964,10.6752949,49.9292603,13.7010946,50.3922195,15.9382229
		z'/>
    <linearGradient id='SVGID_11_' gradientUnits='userSpaceOnUse' x1='42.3490982' y1='29.4136028' x2='51.2843704' y2='29.4136028' gradientTransform='matrix(0.9999545 -0.0095385 0.0095385 0.9999545 -1.34357 -0.1221479)'>
      <stop offset='0' style='stop-color:#FFFFFF;stop-opacity:0.7'/>
      <stop offset='1' style='stop-color:#FFFFFF;stop-opacity:0.2'/>
    </linearGradient>
    <path style='fill:url(#SVGID_11_);' d='M47.0117416,31.271759c0.0150375,0.6542854-1.5145416,1.1128807-2.3040962,1.1119919
		c-6.6715164-0.0075302-1.441803-0.5320187-1.4568405-1.1863041c-0.0073357-0.3191566,2.9801102-0.7028141,4.5133286-2.0712242
		c1.6099586-1.4368992,1.7788086-3.8534985,2.1832237-3.8530426c0.4756393,0.0005379,0.2672005,2.0182991-0.7336426,3.703373
		C48.5531807,30.0886688,47.0057602,31.0116253,47.0117416,31.271759z'/>
  </g>
  <g>
    <linearGradient id='SVGID_12_' gradientUnits='userSpaceOnUse' x1='33.0538139' y1='42.0475044' x2='56.2983627' y2='42.0475044' gradientTransform='matrix(-0.9982269 0.0595233 0.0595233 0.9982269 61.341938 -2.5744936)'>
      <stop offset='0' style='stop-color:#717071'/>
      <stop offset='1' style='stop-color:#302E2D'/>
    </linearGradient>
    <path style='fill:url(#SVGID_12_);' d='M29.9350109,32.9380684c-0.841032-0.7769737-4.6196671-1.2220821-7.1257572-1.3849354
		c-5.1837273-0.336853-12.2015133,0.6144314-13.9051695,2.7478504c-2.5272937,3.1648293-1.4856629,6.6412392,0.4000826,10.7403412
		s9.8316746,12.5397568,15.9521065,3.6435776c2.8649902-4.1643219,4.3073673-7.3153839,4.746994-9.7518883
		C30.1462059,38.1408157,30.9871387,33.9100609,29.9350109,32.9380684z'/>
    <linearGradient id='SVGID_13_' gradientUnits='userSpaceOnUse' x1='33.3484688' y1='40.807682' x2='54.8578415' y2='42.0600662' gradientTransform='matrix(-1 0 0 1 64 0)'>
      <stop offset='0' style='stop-color:#2CA4DE'/>
      <stop offset='1' style='stop-color:#394BAD'/>
    </linearGradient>
    <path style='fill:url(#SVGID_13_);' d='M29.8167095,33.0857811c-0.7798214-0.711174-4.2834473-1.1185837-6.6071434-1.2676449
		c-4.8064537-0.3083229-11.3134832,0.5623951-12.8931465,2.515131c-2.3433571,2.8967934-1.3775368,6.0787811,0.3709641,9.8307228
		c1.7485008,3.7519455,9.1161232,11.4777451,14.7911091,3.3349991c2.6564751-3.8116417,3.9938755-6.6958351,4.4015045-8.9259834
		C30.0125332,37.8478966,30.792263,33.9754524,29.8167095,33.0857811z'/>
    <linearGradient id='SVGID_14_' gradientUnits='userSpaceOnUse' x1='39.5814095' y1='35.9485626' x2='47.2173805' y2='35.9485626' gradientTransform='matrix(-0.9982269 0.0595233 0.0595233 0.9982269 61.341938 -2.5744936)'>
      <stop offset='0' style='stop-color:#FFFFFF;stop-opacity:0.7'/>
      <stop offset='1' style='stop-color:#FFFFFF;stop-opacity:0.2'/>
    </linearGradient>
    <path style='fill:url(#SVGID_14_);' d='M17.9538345,34.4199219c0.2247982,3.7699394,5.0190487,5.0671692,6.1965828,4.9969521
		c0.5680695-0.0338745-4.8159981-2.6914177-3.2400017-4.3390503c0.3654842-0.3820953-0.2390938-0.6663666-0.2705402-1.1937218
		c-0.0607548-1.0188904,4.120512-1.6946411-1.1392803-1.6493301C13.0367537,32.2904587,17.8693352,33.0028496,17.9538345,34.4199219
		z'/>
    <linearGradient id='SVGID_15_' gradientUnits='userSpaceOnUse' x1='35.2428513' y1='43.0896149' x2='38.1770897' y2='43.0896149' gradientTransform='matrix(-0.9982269 0.0595233 0.0595233 0.9982269 61.341938 -2.5744936)'>
      <stop offset='0' style='stop-color:#FFFFFF;stop-opacity:0.7'/>
      <stop offset='1' style='stop-color:#FFFFFF;stop-opacity:0.2'/>
    </linearGradient>
    <path style='fill:url(#SVGID_15_);' d='M26.9391766,42.2200203c0.1913166,3.2084618-1.3327446,3.6571007-0.6325893,3.6153526
		c0.7001572-0.041748,2.13867-3.9887848,2.1908112-4.6384544c0.2654285-3.307251-0.2647839-1.021492-1.3378925-1.1008415
		C23.9454288,39.8584137,26.8158817,40.1523438,26.9391766,42.2200203z'/>
  </g>
  <g>
    <linearGradient id='SVGID_16_' gradientUnits='userSpaceOnUse' x1='34.317585' y1='21.9748764' x2='61.7052193' y2='21.9748764' gradientTransform='matrix(-0.9964635 0.0840268 0.0840268 0.9964635 62.1158905 -3.9168351)'>
      <stop offset='0' style='stop-color:#717071'/>
      <stop offset='1' style='stop-color:#302E2D'/>
    </linearGradient>
    <path style='fill:url(#SVGID_16_);' d='M30.5591602,31.3623581c0.1716557-0.6467857-0.395834-4.4191322-0.5674896-5.3611641
		c-0.6317711-3.467123-3.6950016-8.478363-9.9716568-11.6802206c-8.8788004-4.5292702-17.3437614-4.1445236-18.0886173-0.0481091
		s3.6016092,15.5922766,8.3669453,17.4436913c2.795023,1.0859127,6.9450188,1.1589756,10.8140965,1.0503826
		C28.9111576,32.5480537,30.0916119,33.1240387,30.5591602,31.3623581z'/>
    <linearGradient id='SVGID_17_' gradientUnits='userSpaceOnUse' x1='34.6564636' y1='22.2240982' x2='60.2118454' y2='22.2240982' gradientTransform='matrix(-0.9964635 0.0840268 0.0840268 0.9964635 62.1158905 -3.9168351)'>
      <stop offset='0' style='stop-color:#2CA4DE'/>
      <stop offset='1' style='stop-color:#394BAD'/>
    </linearGradient>
    <path style='fill:url(#SVGID_17_);' d='M30.2058983,31.1310825c0.1590977-0.6152287-0.3767967-4.2058296-0.538559-5.1025181
		c-0.5953674-3.3002415-3.4622784-8.0734253-9.3248081-11.1295033c-8.2929907-4.3230534-16.1915531-3.9693193-16.8797512-0.0722589
		s3.3870654,14.8428946,7.8370194,16.6116791c2.6100407,1.0374489,6.4827938,1.1130486,10.0931034,1.0153732
		C28.6700287,32.2569809,29.7725544,32.8068161,30.2058983,31.1310825z'/>
    <linearGradient id='SVGID_18_' gradientUnits='userSpaceOnUse' x1='44.7383308' y1='18.130415' x2='53.2036972' y2='18.130415' gradientTransform='matrix(-0.9759023 -0.218208 -0.218208 0.9759023 65.7134705 11.0165482)'>
      <stop offset='0' style='stop-color:#FFFFFF;stop-opacity:0.7'/>
      <stop offset='1' style='stop-color:#FFFFFF;stop-opacity:0.2'/>
    </linearGradient>
    <path style='fill:url(#SVGID_18_);' d='M13.6077795,15.9382229c-0.9162064,4.4273109-0.7402096,6.8571053,0.1554108,7.0152683
		c0.3770866,0.0665932-0.4862614-2.2342033,0.9972553-4.8946972c0.44312-0.7946777,1.0337658-0.4102631,1.2867346-0.7292118
		c0.2997799-0.3779678-0.3146362-0.8330154,0.4360714-1.3540983c1.3714008-0.9519234,2.2048149,0.2349291,2.3031902-0.1155834
		c0.2092152-0.7454309-0.9007759-1.5007877-2.9857635-2.1401215C5.872035,10.6752949,14.0707397,13.7010946,13.6077795,15.9382229z'/>
    <linearGradient id='SVGID_19_' gradientUnits='userSpaceOnUse' x1='42.3490982' y1='29.4136028' x2='51.2843704' y2='29.4136028' gradientTransform='matrix(-0.9999545 -0.0095385 -0.0095385 0.9999545 65.3435669 -0.1221479)'>
      <stop offset='0' style='stop-color:#FFFFFF;stop-opacity:0.7'/>
      <stop offset='1' style='stop-color:#FFFFFF;stop-opacity:0.2'/>
    </linearGradient>
    <path style='fill:url(#SVGID_19_);' d='M16.9882603,31.271759c-0.0150394,0.6542854,1.5145416,1.1128807,2.3040924,1.1119919
		c6.6715202-0.0075302,1.441803-0.5320187,1.4568405-1.1863041c0.0073357-0.3191566-2.9801083-0.7028141-4.5133286-2.0712242
		c-1.6099567-1.4368992-1.7788086-3.8534985-2.1832228-3.8530426c-0.4756393,0.0005379-0.2671986,2.0182991,0.7336435,3.703373
		C15.4468203,30.0886688,16.9942398,31.0116253,16.9882603,31.271759z'/>
  </g>
  <g>
  </g>
  <g>
  </g>
  <g>
  </g>
  <g>
  </g>
  <g>
  </g>
  <g>
  </g>
</svg>