<?xml version="1.0" encoding="UTF-8" standalone="no"?>
<!-- Generator: Adobe Illustrator 18.0.0, SVG Export Plug-In . SVG Version: 6.00 Build 0)  -->

<svg
   xmlns:dc="http://purl.org/dc/elements/1.1/"
   xmlns:cc="http://creativecommons.org/ns#"
   xmlns:rdf="http://www.w3.org/1999/02/22-rdf-syntax-ns#"
   xmlns:svg="http://www.w3.org/2000/svg"
   xmlns="http://www.w3.org/2000/svg"
   xmlns:sodipodi="http://sodipodi.sourceforge.net/DTD/sodipodi-0.dtd"
   xmlns:inkscape="http://www.inkscape.org/namespaces/inkscape"
   version="1.1"
   id="レイヤー_1"
   x="0px"
   y="0px"
   width="64px"
   height="64px"
   viewBox="0 0 64 64"
   style="enable-background:new 0 0 64 64;"
   xml:space="preserve"
   inkscape:version="0.48.5 r10040"
   sodipodi:docname="cactus.svg"><metadata
     id="metadata255"><rdf:RDF><cc:Work
         rdf:about=""><dc:format>image/svg+xml</dc:format><dc:type
           rdf:resource="http://purl.org/dc/dcmitype/StillImage" /></cc:Work></rdf:RDF></metadata><defs
     id="defs253" /><sodipodi:namedview
     pagecolor="#ffffff"
     bordercolor="#666666"
     borderopacity="1"
     objecttolerance="10"
     gridtolerance="10"
     guidetolerance="10"
     inkscape:pageopacity="0"
     inkscape:pageshadow="2"
     inkscape:window-width="640"
     inkscape:window-height="480"
     id="namedview251" /><g
     id="g3"><g
       id="g5"><path
         style="fill:#C6B999;"
         d="M47.4152985,29.9118996l3.0400009,1.3064995    c0.3815994,0.1640015,0.8239021-0.0123997,0.9878998-0.3939991c0.1639023-0.3815002-0.0123978-0.8237991-0.394001-0.9878006    c-0.1057968-0.0454998-0.2198982-0.0644989-0.3277969-0.0604992L47.4152985,29.9118996z"
         id="path7" /></g><g
       id="g9"><path
         style="fill:#C6B999;"
         d="M48.1306992,22.6541004l2.9902992,1.4165001    c0.3753014,0.1777992,0.8237,0.0177002,1.001503-0.3576012c0.1777992-0.3753986,0.0177002-0.8237991-0.3576012-1.0016003    c-0.1040993-0.0492992-0.2173996-0.0723991-0.3254013-0.0723991L48.1306992,22.6541004z"
         id="path11" /></g><g
       id="g13"><path
         style="fill:#C6B999;"
         d="M48.4152985,26.4118996l3.0400009,1.3064995    c0.3815994,0.1640015,0.8239021-0.0123997,0.9878998-0.3939991c0.1639023-0.3815002-0.0123978-0.8237991-0.394001-0.9878006    c-0.1057968-0.0454998-0.2198982-0.0644989-0.3277969-0.0604992L48.4152985,26.4118996z"
         id="path15" /></g><g
       id="g17"><path
         style="fill:#C6B999;"
         d="M57.4454002,32.4846001l-3.1459007-1.0258007    c-0.3947983-0.1287994-0.6105003-0.553299-0.4818001-0.9480991c0.1287994-0.3948994,0.553299-0.6105995,0.948101-0.4818001    c0.1095009,0.0356998,0.2076988,0.0967007,0.2860985,0.1709995L57.4454002,32.4846001z"
         id="path19" /></g><g
       id="g21"><path
         style="fill:#C6B999;"
         d="M59.9328003,24.7084999L56.625,24.625c-0.4151993-0.0105-0.7433014-0.3556004-0.7327995-0.7707996    c0.010498-0.4152012,0.3555984-0.7432003,0.7707977-0.7327995c0.1151009,0.0029984,0.2267036,0.0333996,0.3230019,0.0820999    L59.9328003,24.7084999z"
         id="path23" /></g><g
       id="g25"><path
         style="fill:#C6B999;"
         d="M50.0326004,15.8995304l2.5415001,2.1188393    c0.3190002,0.2659607,0.3619995,0.74016,0.0960007,1.0591698c-0.2658997,0.3190002-0.7401009,0.362011-1.0591011,0.0960503    c-0.088501-0.07374-0.1571007-0.1668701-0.2024002-0.2648792L50.0326004,15.8995304z"
         id="path27" /></g><linearGradient
       id="SVGID_1_"
       gradientUnits="userSpaceOnUse"
       x1="27.8851547"
       y1="39.5031929"
       x2="27.8851547"
       y2="17.1977024"
       gradientTransform="matrix(-1.0326 0 0 1 79.305397 0)"><stop
         offset="0"
         style="stop-color:#097A4A"
         id="stop30" /><stop
         offset="0.748768"
         style="stop-color:#0DAA67"
         id="stop32" /></linearGradient><path
       style="fill:url(#SVGID_1_);"
       d="M45.4416008,33.5938988c0,0,2.8265991,0.5763016,3.5704002-3.6014996   c0.7437973-4.1777992,0-13.97402,6.0993004-12.6774597c6.0993996,1.2965508,3.4216003,8.067461,1.190197,13.8299599   c-2.2314987,5.7623997-6.2481995,8.2115002-11.0085983,8.3555012   C40.5323982,39.6445007,41.7224998,34.1702003,45.4416008,33.5938988z"
       id="path34" /><g
       style="opacity:0.4;"
       id="g36"><linearGradient
         id="SVGID_2_"
         gradientUnits="userSpaceOnUse"
         x1="51.7934761"
         y1="38.75"
         x2="51.7934761"
         y2="18.7449036"><stop
           offset="0.128319"
           style="stop-color:#FFFFFF;stop-opacity:0"
           id="stop39" /><stop
           offset="0.630542"
           style="stop-color:#FFFFFF"
           id="stop41" /><stop
           offset="0.862069"
           style="stop-color:#FFFFFF"
           id="stop43" /><stop
           offset="1"
           style="stop-color:#FFFFFF;stop-opacity:0.2"
           id="stop45" /></linearGradient><path
         style="fill:url(#SVGID_2_);"
         d="M46.1240005,38.75c-0.2392006,0-0.4510994-0.1729012-0.4921989-0.4179993    c-0.0459023-0.2723999,0.1386986-0.530201,0.4111977-0.5751991c6.4834023-1.0810013,7.8983994-5.4140015,9.8563995-11.4121017    C57.6973,20.8388691,56.6679993,19.625,56.6571999,19.6132793c-0.2137985-0.174799-0.232399-0.4780293-0.0575981-0.6918888    c0.1747971-0.2143612,0.5038986-0.2329102,0.7167969-0.0586014c0.2744026,0.2241211,1.5391006,1.6528416-0.4657974,7.792511    c-1.9902,6.0942001-3.5615005,10.9071999-10.6436005,12.0878983C46.1796989,38.7480011,46.1514015,38.75,46.1240005,38.75z"
         id="path47" /></g><g
       id="g49"><path
         style="fill:#C6B999;"
         d="M59.4463997,29.1126003L56.1917,28.5158005    c-0.4085007-0.0748997-0.6789017-0.4666996-0.6040001-0.8753014c0.0749016-0.4084988,0.4668007-0.6788998,0.8753014-0.6039982    c0.1133003,0.0206985,0.2187996,0.0681992,0.3064003,0.1313L59.4463997,29.1126003z"
         id="path51" /></g><g
       id="g53"><path
         style="fill:#C6B999;"
         d="M61.2154999,19.8617496l-3.0808983,1.206871    c-0.3867035,0.1514797-0.8230019-0.0392113-0.9745026-0.42593c-0.1515007-0.3867111,0.0391998-0.8230114,0.4258995-0.9744911    c0.1072006-0.0419998,0.2219009-0.0572586,0.3296013-0.0497704L61.2154999,19.8617496z"
         id="path55" /></g><g
       id="g57"><path
         style="fill:#C6B999;"
         d="M56.6697998,14.0358896l-0.0732002,3.3080606    c-0.009201,0.4152203-0.353199,0.7443905-0.7683983,0.7352104c-0.4153023-0.0091915-0.7444-0.353241-0.7352028-0.7684612    c0.0025024-0.1151295,0.0326004-0.2268085,0.0810013-0.3233204L56.6697998,14.0358896z"
         id="path59" /></g><g
       id="g61"><path
         style="fill:#C6B999;"
         d="M56.2794991,36.597599l-2.9717979-1.454998    c-0.3730011-0.1826019-0.527401-0.6329994-0.3446999-1.0060005c0.1825981-0.3731003,0.6329994-0.527401,1.0060005-0.344799    c0.1034966,0.0506973,0.1921997,0.1247978,0.2594986,0.2092972L56.2794991,36.597599z"
         id="path63" /></g></g><g
     id="g65"><g
       id="g67"><path
         style="fill:#C6B999;"
         d="M47.5839005,31.8896999l-3.8508987,0.4928989    C43.2496986,32.4445,42.8077011,32.1027985,42.7458,31.6194992c-0.0619011-0.4833984,0.2798004-0.9253998,0.7631989-0.9871998    c0.1340027-0.0171986,0.2688026-0.0017986,0.3892021,0.0375004L47.5839005,31.8896999z"
         id="path69" /></g><g
       id="g71"><path
         style="fill:#C6B999;"
         d="M46.8415985,9.3614502l-3.158699,2.2570744    c-0.3964996,0.2833071-0.9476013,0.1915636-1.2308998-0.204916c-0.2832985-0.3964787-0.1914978-0.9475489,0.2048988-1.2308588    c0.1100006-0.0785494,0.2360001-0.1288099,0.3607025-0.1511993L46.8415985,9.3614502z"
         id="path73" /></g><g
       id="g75"><path
         style="fill:#C6B999;"
         d="M48.4986,21.3180408l-3.707901,1.150259    c-0.4654007,0.1443996-0.9596977-0.1159-1.1040993-0.5813007c-0.1444016-0.4654198,0.1159019-0.9597492,0.5812988-1.1041298    c0.1290016-0.0400391,0.2644997-0.0481396,0.3899002-0.0302086L48.4986,21.3180408z"
         id="path77" /></g><g
       id="g79"><path
         style="fill:#C6B999;"
         d="M16.6320705,9.3614502l3.1587086,2.2570744    c0.3964806,0.2833071,0.9475517,0.1915636,1.2308617-0.204916c0.2833099-0.3964787,0.1915588-0.9475489-0.2049103-1.2308588    c-0.1099396-0.0785494-0.235981-0.1288099-0.3606796-0.1511993L16.6320705,9.3614502z"
         id="path81" /></g><g
       id="g83"><path
         style="fill:#C6B999;"
         d="M14.9750204,21.3180408l3.7079287,1.150259    c0.4654217,0.1443996,0.9597511-0.1159,1.1041317-0.5813007c0.1443787-0.4654198-0.1158714-0.9597492-0.5812912-1.1041298    c-0.1290493-0.0400391-0.2644997-0.0481396-0.3899193-0.0302086L14.9750204,21.3180408z"
         id="path85" /></g><linearGradient
       id="SVGID_3_"
       gradientUnits="userSpaceOnUse"
       x1="31.7956066"
       y1="62.7761002"
       x2="31.7956066"
       y2="1.9167"><stop
         offset="0"
         style="stop-color:#097A4A"
         id="stop88" /><stop
         offset="0.748768"
         style="stop-color:#0DAA67"
         id="stop90" /></linearGradient><path
       style="fill:url(#SVGID_3_);"
       d="M39.25,62.7761002c0,0,20.6666985-60.8594017-7.3332996-60.8594017   c-28.0000305,0-8,60.8594017-8,60.8594017H39.25z"
       id="path92" /><g
       style="opacity:0.4;"
       id="g94"><linearGradient
         id="SVGID_4_"
         gradientUnits="userSpaceOnUse"
         x1="25.4078236"
         y1="62.5"
         x2="25.4078236"
         y2="2.7498784"><stop
           offset="0.2"
           style="stop-color:#FFFFFF;stop-opacity:0"
           id="stop97" /><stop
           offset="0.517241"
           style="stop-color:#FFFFFF"
           id="stop99" /><stop
           offset="0.9"
           style="stop-color:#FFFFFF"
           id="stop101" /><stop
           offset="1"
           style="stop-color:#FFFFFF;stop-opacity:0"
           id="stop103" /></linearGradient><path
         style="fill:url(#SVGID_4_);"
         d="M26.6660004,62.5c-0.2474995,0-0.4624004-0.1836014-0.4951-0.4355011    c-0.0303001-0.2304993-3.0072994-23.2099991-3.3374004-39.0541992C22.4990005,6.9545898,26.9888,3.0253899,27.1797009,2.86572    c0.2128983-0.17676,0.5277996-0.1479499,0.7045994,0.0639699c0.1758003,0.2114201,0.1478996,0.5249002-0.0615005,0.7021501    c-0.0620995,0.0541999-4.3111,3.9311502-3.9892998,19.3578606c0.3285999,15.7896004,3.2987995,38.7164001,3.3285999,38.9458008    c0.0361004,0.2734985-0.1571999,0.524498-0.4310989,0.5606003C26.7089996,62.4990005,26.6875,62.5,26.6660004,62.5z"
         id="path105" /></g><g
       style="opacity:0.4;"
       id="g107"><linearGradient
         id="SVGID_5_"
         gradientUnits="userSpaceOnUse"
         x1="5.0567131"
         y1="62.5"
         x2="5.0567131"
         y2="2.7503977"
         gradientTransform="matrix(-0.5933 0 0 1 43.4314995 0)"><stop
           offset="0.2"
           style="stop-color:#FFFFFF;stop-opacity:0"
           id="stop110" /><stop
           offset="0.517241"
           style="stop-color:#FFFFFF"
           id="stop112" /><stop
           offset="0.9"
           style="stop-color:#FFFFFF"
           id="stop114" /><stop
           offset="1"
           style="stop-color:#FFFFFF;stop-opacity:0"
           id="stop116" /></linearGradient><path
         style="fill:url(#SVGID_5_);"
         d="M37.5224991,62.5c-0.0468979,0-0.094799-0.0068016-0.1425972-0.0205002    c-0.2647018-0.0791016-0.4151001-0.357399-0.3369026-0.6221008C37.1063995,61.6464996,43.3330002,40.5527,43.3330002,23    c0-15.45117-6.482399-19.276371-6.547802-19.3129902C36.544899,3.55176,36.4589996,3.24805,36.5928001,3.0073199    c0.1338005-0.24072,0.4365005-0.3271399,0.6767006-0.1953099C37.5575981,2.9707,44.3330002,6.8881798,44.3330002,23    c0,17.7011986-6.2685013,38.9306984-6.3310013,39.142601C37.9365005,62.3594017,37.7383003,62.5,37.5224991,62.5z"
         id="path118" /></g><g
       id="g120"><path
         style="fill:#C6B999;"
         d="M43.6375008,4.4075198l-2.2071991,3.1937704    c-0.2771034,0.4008794-0.8266029,0.5012593-1.2275009,0.2242198c-0.4009018-0.27705-0.5013008-0.8266101-0.2242012-1.2274899    c0.0768013-0.1111503,0.1784019-0.2011399,0.2881012-0.2644501L43.6375008,4.4075198z"
         id="path122" /></g><g
       id="g124"><path
         style="fill:#C6B999;"
         d="M47.5842018,15.0778399l-3.3578033,1.9485197    c-0.4214973,0.2445812-0.9613991,0.1011696-1.2059975-0.3202991c-0.2446022-0.4214802-0.1012001-0.9614201,0.3202972-1.2059908    c0.1169014-0.0678196,0.2471008-0.1059399,0.3733025-0.1164494L47.5842018,15.0778399z"
         id="path126" /></g><g
       id="g128"><path
         style="fill:#C6B999;"
         d="M48.1063004,26.1474991L44.3829002,27.2465    c-0.4673996,0.1378994-0.9580994-0.1291008-1.0960007-0.5965004c-0.1379013-0.4673004,0.1291008-0.9580002,0.5965004-1.0959988    c0.1295013-0.0382004,0.2650986-0.0445004,0.3903008-0.0248013L48.1063004,26.1474991z"
         id="path130" /></g><g
       id="g132"><path
         style="fill:#C6B999;"
         d="M22.1242008,4.4075198l2.2071991,3.1937704    c0.2770996,0.4008794,0.826601,0.5012593,1.2275009,0.2242198c0.4008999-0.27705,0.5012989-0.8266101,0.2241993-1.2274899    c-0.0767994-0.1111503-0.1783009-0.2011399-0.2880993-0.2644501L22.1242008,4.4075198z"
         id="path134" /></g><g
       id="g136"><path
         style="fill:#C6B999;"
         d="M19.0941391,15.0778399l3.3578606,1.9485197    c0.4215012,0.2445812,0.961401,0.1011696,1.2060013-0.3202991c0.2444992-0.4214802,0.101099-0.9614201-0.3203011-1.2059908    c-0.1168995-0.0678196-0.2471008-0.1059399-0.3733997-0.1164494L19.0941391,15.0778399z"
         id="path138" /></g><g
       id="g140"><path
         style="fill:#C6B999;"
         d="M19.0720196,26.1474991L22.7954998,27.2465    c0.4673004,0.1378994,0.9580002-0.1291008,1.0960007-0.5965004c0.1378994-0.4673004-0.1291008-0.9580002-0.5965004-1.0959988    c-0.1296005-0.0382004-0.2651005-0.0445004-0.3903008-0.0248013L19.0720196,26.1474991z"
         id="path142" /></g><g
       id="g144"><path
         style="fill:#C6B999;"
         d="M46.9203987,38.114399l-3.8820992-0.0385971    c-0.4871979-0.0048027-0.8782997-0.4037018-0.8735008-0.8910027c0.0049019-0.4873009,0.403801-0.8783989,0.8911018-0.8735008    c0.1351013,0.0013008,0.2664986,0.0349998,0.3803978,0.0904007L46.9203987,38.114399z"
         id="path146" /></g><g
       id="g148"><path
         style="fill:#C6B999;"
         d="M19.7897701,38.114399l3.8820305-0.0385971    c0.487299-0.0048027,0.8783989-0.4037018,0.8736-0.8910027c-0.0049-0.4873009-0.403801-0.8783989-0.8910999-0.8735008    c-0.1351013,0.0013008-0.2665005,0.0349998-0.3805008,0.0904007L19.7897701,38.114399z"
         id="path150" /></g><g
       style="opacity:0.4;"
       id="g152"><linearGradient
         id="SVGID_6_"
         gradientUnits="userSpaceOnUse"
         x1="16.6709595"
         y1="62.5"
         x2="16.6709595"
         y2="2.7513337"
         gradientTransform="matrix(-0.1651 0 0 1 36.7644005 0)"><stop
           offset="0.2"
           style="stop-color:#FFFFFF;stop-opacity:0"
           id="stop155" /><stop
           offset="0.517241"
           style="stop-color:#FFFFFF"
           id="stop157" /><stop
           offset="0.9"
           style="stop-color:#FFFFFF"
           id="stop159" /><stop
           offset="1"
           style="stop-color:#FFFFFF;stop-opacity:0"
           id="stop161" /></linearGradient><path
         style="fill:url(#SVGID_6_);"
         d="M33.7266006,62.5c-0.0049019,0-0.0098,0-0.0147018,0    c-0.2763977-0.0088005-0.4930992-0.2392998-0.4852982-0.5145988c0.0067978-0.2304993,0.6815987-23.1767998,0.7557983-38.9878006    C34.0565987,7.3374,33.0644989,3.41748,33.0546989,3.37988c-0.0713005-0.2661099,0.0869026-0.54052,0.3525009-0.61181    C33.6758003,2.69824,33.9473,2.85303,34.0195007,3.11865c0.0419998,0.15576,1.0380974,3.9980502,0.9628983,19.883749    c-0.0741997,15.8227997-0.7490005,38.7827988-0.7557983,39.0121994C34.2187996,62.2860985,33.9961014,62.5,33.7266006,62.5z"
         id="path163" /></g><g
       id="g165"><path
         style="fill:#C6B999;"
         d="M35.5833015,9.1666698l-0.4863014,2.517951    c-0.2770996,0.4008799-0.8266983,0.5012674-1.2275009,0.2242231c-0.400898-0.2770452-0.5013008-0.8266096-0.2243004-1.2274942    c0.0769005-0.1111498,0.1784019-0.2011395,0.2882004-0.2644501L35.5833015,9.1666698z"
         id="path167" /></g><g
       id="g169"><path
         style="fill:#C6B999;"
         d="M35.9166985,21.4013691l-0.9592972,1.1502304    c-0.4654007,0.1443996-0.9598007-0.1159-1.1041031-0.5812702c-0.1443977-0.4654198,0.1158028-0.9597492,0.5812035-1.1041298    c0.129097-0.0400295,0.2644997-0.0481396,0.3899994-0.0302086L35.9166985,21.4013691z"
         id="path171" /></g><g
       id="g173"><path
         style="fill:#C6B999;"
         d="M35.8097,32.2616005l-1.3828011,0.5754013    c-0.4794006-0.0876007-0.7969971-0.5471001-0.7094994-1.0265026c0.0875015-0.4793987,0.5471001-0.796999,1.0265007-0.7094994    c0.1329002,0.0242996,0.2566986,0.0797997,0.3596001,0.153801L35.8097,32.2616005z"
         id="path175" /></g></g><g
     id="g177"><g
       id="g179"><path
         style="fill:#C6B999;"
         d="M15.6418896,24.3941002l-3.2041359,1.3769989    c-0.4021816,0.1729012-0.8683319-0.0130997-1.0411768-0.4151993c-0.1728449-0.4022007,0.0130701-0.8684006,0.4152508-1.0412006    c0.1115112-0.0478992,0.23176-0.0678997,0.3454914-0.0636997L15.6418896,24.3941002z"
         id="path181" /></g><g
       id="g183"><path
         style="fill:#C6B999;"
         d="M14.8879099,16.74436l-3.1517467,1.4930592    c-0.3956051,0.1874008-0.8682327,0.0186214-1.0556335-0.3769798c-0.1874094-0.3956089-0.01863-0.8682289,0.3769722-1.0556393    c0.1096888-0.05196,0.229126-0.0763493,0.3429356-0.0762997L14.8879099,16.74436z"
         id="path185" /></g><g
       id="g187"><path
         style="fill:#C6B999;"
         d="M14.5879002,20.7051105l-3.2041368,1.3769894    c-0.4021835,0.1728992-0.8683329-0.0130005-1.041173-0.4151993c-0.1728506-0.4021912,0.0130701-0.8683414,0.4152498-1.0411816    c0.1115103-0.0479298,0.23176-0.0679283,0.3454885-0.0637398L14.5879002,20.7051105z"
         id="path189" /></g><g
       id="g191"><path
         style="fill:#C6B999;"
         d="M5.0702901,27.1056004l3.3156896-1.0811005    c0.4161806-0.1357994,0.6435499-0.5830994,0.5078402-0.9993s-0.5831099-0.6436005-0.99929-0.5079002    c-0.1153998,0.0377007-0.2189198,0.1020012-0.3015699,0.1802998L5.0702901,27.1056004z"
         id="path193" /></g><g
       id="g195"><path
         style="fill:#C6B999;"
         d="M2.44856,18.90975l3.4863999-0.0880394    C6.37257,18.8106594,6.71837,18.4469509,6.7073202,18.0093403c-0.0110502-0.4376106-0.3747602-0.7833996-0.8123703-0.7723598    c-0.1213398,0.0030689-0.2389398,0.0351391-0.3405099,0.0864887L2.44856,18.90975z"
         id="path197" /></g><g
       id="g199"><path
         style="fill:#C6B999;"
         d="M12.8832741,9.6251497l-2.6786842,2.233242    c-0.3362303,0.2803154-0.3815594,0.7801208-0.1012402,1.1163483c0.2803106,0.3362303,0.7801199,0.3815498,1.1163464,0.1012402    c0.0932236-0.0777245,0.1655169-0.1758766,0.213275-0.2791805L12.8832741,9.6251497z"
         id="path201" /></g><linearGradient
       id="SVGID_7_"
       gradientUnits="userSpaceOnUse"
       x1="13.8494596"
       y1="34.5032425"
       x2="13.8494596"
       y2="10.9934101"
       gradientTransform="matrix(1.0326 0 0 1 -1.9220999 0)"><stop
         offset="0"
         style="stop-color:#097A4A"
         id="stop204" /><stop
         offset="0.748768"
         style="stop-color:#0DAA67"
         id="stop206" /></linearGradient><path
       style="fill:url(#SVGID_7_);"
       d="M17.7221203,28.2749004c0,0-2.9791403,0.6072998-3.7631207-3.7959995   c-0.7839794-4.4033813,0-14.7284813-6.4286594-13.3619251C1.1016999,12.4835329,3.9240201,19.6200008,6.27597,25.6935997   s6.5854526,8.6548004,11.6029396,8.8067017C22.8964005,34.6520996,21.6420307,28.8822002,17.7221203,28.2749004z"
       id="path208" /><g
       style="opacity:0.4;"
       id="g210"><linearGradient
         id="SVGID_8_"
         gradientUnits="userSpaceOnUse"
         x1="66.3566589"
         y1="33.6825981"
         x2="66.3566589"
         y2="12.6566982"
         gradientTransform="matrix(-1 0 0 1 77.3833008 0)"><stop
           offset="0.2"
           style="stop-color:#FFFFFF;stop-opacity:0"
           id="stop213" /><stop
           offset="0.630542"
           style="stop-color:#FFFFFF"
           id="stop215" /><stop
           offset="0.862069"
           style="stop-color:#FFFFFF"
           id="stop217" /><stop
           offset="1"
           style="stop-color:#FFFFFF;stop-opacity:0.2"
           id="stop219" /></linearGradient><path
         style="fill:url(#SVGID_8_);"
         d="M17.0024395,33.6825981c-0.0273399,0-0.0546894-0.0018997-0.0825195-0.0067978    c-7.4472599-1.2411995-9.1020498-6.3080997-11.1967802-12.7226696c-2.1074197-6.4541111-0.7866197-7.9492207-0.5-8.1835995    c0.2133803-0.1743164,0.5278401-0.1435547,0.7036204,0.0708008c0.1684499,0.2055683,0.14502,0.5058584-0.0478501,0.6835976    c-0.05616,0.0683603-1.06739,1.4160109,0.7944298,7.1186504c2.0678701,6.3310204,3.5620098,10.9053192,10.4106407,12.0469189    c0.2724686,0.0454025,0.4565487,0.3031998,0.4111385,0.5750999C17.4545898,33.5098,17.2426796,33.6825981,17.0024395,33.6825981z"
         id="path221" /></g><g
       id="g223"><path
         style="fill:#C6B999;"
         d="M2.9612801,23.5515995l3.43033-0.6289997    c0.4305696-0.0788994,0.71562-0.4920006,0.6366696-0.9225006C6.9493399,21.5694904,6.5362902,21.2844391,6.10572,21.36339    c-0.11938,0.0218906-0.2305698,0.0718594-0.3229299,0.1383705L2.9612801,23.5515995z"
         id="path225" /></g><g
       id="g227"><path
         style="fill:#C6B999;"
         d="M1.0966001,13.8013l3.2472601,1.2720203    c0.4075999,0.1596594,0.8674498-0.0413303,1.0271096-0.4489202C5.5306301,14.2168102,5.3296499,13.7569504,4.92205,13.59729    c-0.1130099-0.0442705-0.23384-0.0603504-0.3473802-0.0524597L1.0966001,13.8013z"
         id="path229" /></g><g
       id="g231"><path
         style="fill:#C6B999;"
         d="M5.8877802,7.6608901L5.96487,11.1475534    c0.0096798,0.4376421,0.3723102,0.7845774,0.8099499,0.7749004c0.4376402-0.0096779,0.7845802-0.3723021,0.7749-0.8099451    c-0.0026798-0.1213484-0.03439-0.239049-0.0854096-0.3407784L5.8877802,7.6608901z"
         id="path233" /></g><g
       id="g235"><path
         style="fill:#C6B999;"
         d="M6.2990699,31.4407005l3.1322799-1.5335007    c0.3931704-0.1924992,0.55585-0.6672001,0.3633699-1.0604c-0.1924801-0.3931007-0.6672401-0.5557995-1.0604-0.3633003    c-0.1090097,0.0533009-0.2025394,0.1315002-0.2734499,0.2205009L6.2990699,31.4407005z"
         id="path237" /></g></g><g
     id="g239" /><g
     id="g241" /><g
     id="g243" /><g
     id="g245" /><g
     id="g247" /><g
     id="g249" /></svg>