<?xml version="1.0" encoding="utf-8"?>
<!-- Generator: Adobe Illustrator 15.0.2, SVG Export Plug-In . SVG Version: 6.00 Build 0)  -->
<!DOCTYPE svg PUBLIC "-//W3C//DTD SVG 1.1//EN" "http://www.w3.org/Graphics/SVG/1.1/DTD/svg11.dtd">
<svg version="1.1" id="レイヤー_1" xmlns="http://www.w3.org/2000/svg" xmlns:xlink="http://www.w3.org/1999/xlink" x="0px"
	 y="0px" width="64px" height="64px" viewBox="0 0 64 64" enable-background="new 0 0 64 64" xml:space="preserve">
<g>
	
		<rect x="11.02" y="5.115" fill="#FF4C2E" stroke="#5E0101" stroke-width="2" stroke-miterlimit="20" width="41.961" height="11.291"/>
	
		<rect x="11.02" y="14.375" fill="#FFFFFF" stroke="#5E0101" stroke-width="2" stroke-miterlimit="20" width="41.961" height="44.51"/>
	<g>
		<path fill="#868686" d="M20.672,19.954c-0.005,0.013-0.007,0.031-0.01,0.05c-0.002,0.021-0.003,0.048-0.003,0.082v2.675
			c0,0.261-0.125,0.568-0.378,0.92c-0.276,0.383-0.552,0.575-0.827,0.575c-0.129,0-0.192-0.052-0.192-0.158
			c0.063-0.075,0.12-0.156,0.172-0.244c0.053-0.088,0.102-0.181,0.148-0.28c0.097-0.193,0.146-0.381,0.146-0.564v-3
			c0-0.095-0.06-0.159-0.181-0.193c-0.12-0.034-0.181-0.081-0.181-0.142c0-0.091,0.049-0.138,0.146-0.138h1.368
			c0.098,0,0.146,0.046,0.146,0.138c0,0.071-0.055,0.119-0.163,0.142C20.759,19.836,20.694,19.882,20.672,19.954z"/>
		<path fill="#868686" d="M23.362,23.066c-0.108,0-0.163-0.046-0.163-0.138c0-0.054,0.041-0.095,0.122-0.122
			c0.09-0.027,0.159-0.062,0.21-0.104c0.05-0.042,0.065-0.087,0.046-0.135l-0.174-0.488c-0.059-0.014-0.114-0.023-0.167-0.028
			c-0.052-0.005-0.112-0.006-0.183-0.002c-0.078,0.017-0.155,0.026-0.233,0.027c-0.077,0.002-0.144-0.005-0.197-0.022
			c-0.063-0.017-0.105-0.04-0.128-0.069c-0.024-0.029-0.036-0.062-0.036-0.099c0-0.071,0.03-0.119,0.091-0.143
			s0.148-0.036,0.266-0.036c0.062,0,0.132,0.001,0.212,0.003c0.08,0.002,0.137-0.012,0.172-0.043
			c-0.008-0.041-0.03-0.112-0.067-0.216c-0.036-0.104-0.078-0.213-0.125-0.328s-0.091-0.222-0.134-0.32
			c-0.043-0.099-0.072-0.163-0.088-0.194c-0.05,0.089-0.109,0.219-0.181,0.39c-0.069,0.171-0.153,0.378-0.25,0.623
			c-0.112,0.271-0.193,0.49-0.242,0.656c-0.048,0.166-0.072,0.279-0.072,0.34c0,0.084,0.052,0.144,0.157,0.178
			c0.105,0.034,0.157,0.078,0.157,0.132c0,0.091-0.055,0.138-0.163,0.138h-0.949c-0.055,0-0.087-0.013-0.096-0.039
			c-0.011-0.026-0.016-0.062-0.016-0.109c0.105-0.072,0.202-0.141,0.292-0.209c0.089-0.068,0.149-0.135,0.181-0.203
			c0.187-0.465,0.362-0.927,0.527-1.389c0.164-0.46,0.336-0.927,0.515-1.397c0.027-0.058,0.071-0.103,0.132-0.135
			c0.06-0.033,0.125-0.049,0.194-0.049c0.082,0,0.167,0.015,0.257,0.041c0.089,0.028,0.147,0.068,0.175,0.122
			c0.186,0.464,0.372,0.926,0.559,1.386s0.373,0.921,0.56,1.385c0.02,0.052,0.059,0.094,0.116,0.13
			c0.059,0.036,0.14,0.087,0.245,0.154c0.055,0.035,0.103,0.065,0.146,0.092c0.042,0.027,0.063,0.055,0.063,0.082
			c0,0.091-0.052,0.138-0.157,0.138H23.362z"/>
		<path fill="#868686" d="M28.535,20.009c0,0.153,0.001,0.332,0.005,0.537c0.004,0.205,0.008,0.417,0.012,0.638
			s0.007,0.438,0.009,0.653c0.002,0.216,0.001,0.409-0.003,0.582s-0.011,0.314-0.021,0.425s-0.024,0.169-0.043,0.175
			c-0.023,0.021-0.054,0.036-0.091,0.049c-0.037,0.011-0.075,0.019-0.116,0.02c-0.041,0.002-0.08-0.003-0.116-0.013
			c-0.037-0.01-0.067-0.029-0.091-0.056c-0.155-0.183-0.315-0.374-0.48-0.572s-0.336-0.397-0.513-0.598s-0.358-0.399-0.545-0.598
			c-0.186-0.198-0.374-0.39-0.564-0.577l-0.006,1.922c0,0.091,0.061,0.154,0.181,0.188c0.12,0.034,0.181,0.081,0.181,0.142
			c0,0.091-0.049,0.138-0.146,0.138h-0.932c-0.097,0-0.146-0.046-0.146-0.138c0-0.058,0.06-0.104,0.181-0.138
			c0.12-0.034,0.181-0.098,0.181-0.192v-2.589c0-0.095-0.061-0.159-0.181-0.193c-0.121-0.034-0.181-0.081-0.181-0.142
			c0-0.091,0.049-0.138,0.146-0.138h0.804c0.035,0,0.097,0.041,0.184,0.12c0.087,0.08,0.189,0.182,0.306,0.306
			c0.117,0.123,0.244,0.263,0.382,0.419c0.138,0.156,0.273,0.31,0.408,0.46c0.133,0.151,0.261,0.292,0.382,0.424
			c0.119,0.132,0.225,0.239,0.313,0.321c0-0.003,0.001-0.01,0.003-0.018c0.002-0.008,0.002-0.028,0-0.058
			c-0.002-0.031-0.003-0.079-0.003-0.143c0-0.064-0.001-0.154-0.003-0.27s-0.002-0.261,0-0.437c0.002-0.176,0.003-0.394,0.003-0.651
			c0-0.088-0.079-0.157-0.238-0.208c-0.078-0.026-0.117-0.068-0.117-0.122c0-0.091,0.049-0.137,0.146-0.137h0.921
			c0.101,0,0.151,0.045,0.151,0.137c0,0.058-0.061,0.104-0.181,0.137C28.595,19.85,28.535,19.914,28.535,20.009z"/>
		<path fill="#868686" d="M32.507,22.038c0,0.164-0.045,0.311-0.135,0.443c-0.089,0.132-0.213,0.246-0.372,0.34
			c-0.144,0.079-0.305,0.139-0.483,0.18c-0.179,0.043-0.367,0.064-0.565,0.064c-0.381,0-0.714-0.085-1.002-0.255
			c-0.322-0.193-0.482-0.451-0.482-0.773v-2.028c0-0.095-0.061-0.159-0.181-0.193c-0.121-0.034-0.181-0.081-0.181-0.142
			c0-0.088,0.048-0.132,0.146-0.132h1.356c0.098,0,0.146,0.044,0.146,0.132c0,0.061-0.06,0.108-0.18,0.142
			c-0.121,0.034-0.181,0.098-0.181,0.193v2.019c0,0.186,0.069,0.336,0.21,0.45c0.14,0.114,0.32,0.17,0.541,0.17
			c0.256,0,0.461-0.057,0.615-0.17c0.152-0.113,0.229-0.282,0.229-0.505v-1.963c0-0.095-0.061-0.159-0.181-0.193
			c-0.116-0.034-0.175-0.081-0.175-0.142c0-0.088,0.049-0.132,0.146-0.132h0.942c0.102,0,0.152,0.044,0.152,0.132
			c0,0.058-0.062,0.105-0.187,0.142c-0.12,0.031-0.181,0.111-0.181,0.239V22.038z"/>
		<path fill="#868686" d="M35.211,23.066c-0.109,0-0.163-0.046-0.163-0.138c0-0.054,0.041-0.095,0.122-0.122
			c0.09-0.027,0.159-0.062,0.21-0.104c0.05-0.042,0.065-0.087,0.046-0.135l-0.174-0.488c-0.059-0.014-0.113-0.023-0.165-0.028
			c-0.054-0.005-0.114-0.006-0.186-0.002c-0.076,0.017-0.154,0.026-0.232,0.027c-0.077,0.002-0.144-0.005-0.197-0.022
			c-0.063-0.017-0.104-0.04-0.129-0.069c-0.023-0.029-0.034-0.062-0.034-0.099c0-0.071,0.029-0.119,0.09-0.143
			c0.06-0.024,0.148-0.036,0.265-0.036c0.063,0,0.133,0.001,0.213,0.003c0.08,0.002,0.138-0.012,0.172-0.043
			c-0.008-0.041-0.03-0.112-0.066-0.216c-0.038-0.104-0.08-0.213-0.126-0.328s-0.092-0.222-0.134-0.32
			c-0.042-0.099-0.072-0.163-0.088-0.194c-0.05,0.089-0.11,0.219-0.181,0.39c-0.069,0.171-0.153,0.378-0.25,0.623
			c-0.112,0.271-0.193,0.49-0.242,0.656c-0.049,0.166-0.072,0.279-0.072,0.34c0,0.084,0.053,0.144,0.158,0.178
			c0.104,0.034,0.156,0.078,0.156,0.132c0,0.091-0.055,0.138-0.163,0.138h-0.95c-0.054,0-0.086-0.013-0.097-0.039
			c-0.01-0.026-0.015-0.062-0.015-0.109c0.105-0.072,0.203-0.141,0.292-0.209c0.09-0.068,0.151-0.135,0.181-0.203
			c0.188-0.465,0.362-0.927,0.528-1.389c0.165-0.46,0.337-0.927,0.515-1.397c0.027-0.058,0.071-0.103,0.131-0.135
			c0.062-0.033,0.127-0.049,0.195-0.049c0.081,0,0.168,0.015,0.256,0.041c0.09,0.028,0.148,0.068,0.176,0.122
			c0.186,0.464,0.373,0.926,0.559,1.386c0.188,0.459,0.373,0.921,0.56,1.385c0.019,0.052,0.058,0.094,0.116,0.13
			c0.058,0.036,0.14,0.087,0.245,0.154c0.053,0.035,0.102,0.065,0.146,0.092c0.043,0.027,0.064,0.055,0.064,0.082
			c0,0.091-0.054,0.138-0.158,0.138H35.211z"/>
		<path fill="#868686" d="M39.975,23.066c-0.155,0-0.421-0.241-0.797-0.722c-0.373-0.481-0.56-0.797-0.56-0.946
			c0-0.05,0.134-0.125,0.402-0.224c0.137-0.047,0.235-0.125,0.299-0.231c0.064-0.107,0.097-0.236,0.097-0.39
			c0-0.074-0.01-0.149-0.032-0.223c-0.021-0.075-0.056-0.143-0.102-0.204s-0.104-0.11-0.174-0.147
			c-0.071-0.038-0.154-0.058-0.251-0.062c-0.058,0-0.118,0.008-0.179,0.021c-0.06,0.013-0.114,0.033-0.161,0.058
			c-0.049,0.025-0.091,0.057-0.123,0.094c-0.033,0.038-0.05,0.08-0.05,0.127v2.38c0,0.091,0.06,0.154,0.181,0.188
			c0.119,0.034,0.181,0.081,0.181,0.142c0,0.091-0.049,0.138-0.146,0.138h-1.369c-0.098,0-0.146-0.046-0.146-0.138
			c0-0.058,0.062-0.104,0.181-0.138c0.124-0.034,0.188-0.098,0.188-0.192v-2.38c0-0.061-0.059-0.107-0.175-0.138
			c-0.113-0.03-0.169-0.081-0.169-0.152c0-0.044,0.038-0.084,0.113-0.12c0.076-0.035,0.173-0.068,0.29-0.097
			c0.12-0.028,0.251-0.053,0.394-0.076c0.145-0.022,0.282-0.04,0.411-0.053c0.13-0.014,0.246-0.024,0.35-0.031
			c0.104-0.006,0.174-0.01,0.213-0.01c0.182,0,0.363,0.018,0.544,0.055c0.181,0.038,0.343,0.097,0.487,0.176
			c0.144,0.079,0.26,0.182,0.349,0.307c0.09,0.125,0.134,0.274,0.134,0.448c0,0.119-0.021,0.219-0.066,0.303
			c-0.045,0.083-0.104,0.157-0.177,0.224c-0.074,0.066-0.161,0.128-0.26,0.186c-0.1,0.058-0.204,0.12-0.313,0.188
			c0.04,0.119,0.104,0.248,0.192,0.386c0.089,0.139,0.196,0.278,0.321,0.417c0.135,0.143,0.272,0.259,0.41,0.351
			s0.266,0.171,0.382,0.239c0.047,0.031,0.072,0.061,0.078,0.089c0.006,0.029-0.002,0.054-0.021,0.077
			c-0.019,0.022-0.047,0.041-0.082,0.056c-0.034,0.015-0.067,0.023-0.099,0.023H39.975z"/>
		<path fill="#868686" d="M44.205,20.106c0.003-0.006-0.016,0.028-0.056,0.104c-0.041,0.076-0.092,0.173-0.155,0.292
			c-0.061,0.119-0.13,0.248-0.204,0.386c-0.073,0.14-0.141,0.268-0.203,0.387c-0.062,0.119-0.112,0.217-0.155,0.295
			c-0.041,0.078-0.059,0.114-0.055,0.107v0.92c0,0.101,0.048,0.164,0.141,0.188c0.147,0.044,0.221,0.091,0.221,0.142
			c0,0.091-0.067,0.138-0.204,0.138h-1.246c-0.14,0-0.209-0.046-0.209-0.138c0-0.047,0.072-0.093,0.22-0.138
			c0.094-0.023,0.14-0.088,0.14-0.192v-0.916c-0.14-0.261-0.298-0.519-0.477-0.772s-0.34-0.512-0.484-0.773
			c-0.011-0.03-0.043-0.069-0.095-0.117c-0.053-0.047-0.108-0.094-0.169-0.142c-0.061-0.047-0.116-0.09-0.169-0.127
			c-0.054-0.037-0.081-0.063-0.085-0.076c-0.02-0.041-0.011-0.072,0.027-0.097c0.036-0.023,0.089-0.035,0.159-0.035h1.428
			c0.135,0,0.203,0.044,0.203,0.132c0,0.054-0.065,0.099-0.197,0.132c-0.078,0.027-0.117,0.075-0.117,0.142
			c0,0.038,0.023,0.111,0.073,0.222c0.048,0.11,0.104,0.229,0.169,0.355c0.064,0.127,0.126,0.247,0.188,0.359
			c0.062,0.112,0.107,0.188,0.134,0.229c0.036-0.048,0.086-0.127,0.148-0.237c0.064-0.109,0.128-0.225,0.189-0.345
			c0.063-0.121,0.117-0.233,0.163-0.34c0.048-0.107,0.07-0.185,0.07-0.232c0-0.058-0.057-0.11-0.169-0.158
			c-0.09-0.03-0.134-0.071-0.134-0.122c0-0.088,0.067-0.132,0.204-0.132h1.025c0.14,0,0.209,0.039,0.209,0.117
			c0.013,0-0.008,0.017-0.059,0.05c-0.05,0.034-0.109,0.075-0.178,0.122c-0.067,0.048-0.132,0.096-0.191,0.145
			C44.246,20.03,44.213,20.072,44.205,20.106z"/>
	</g>
	<g>
		<path d="M24.571,41.168v-8.861l-4.223,1.65V30.35l4.91-2.371h2.281v13.189h3.531v3.453H20.6v-3.453H24.571z"/>
		<path d="M42.648,33.063c0,0.824-0.123,1.592-0.369,2.301c-0.246,0.711-0.584,1.393-1.016,2.043
			c-0.43,0.652-0.939,1.291-1.533,1.916s-1.236,1.264-1.93,1.916v0.068c1.152-0.09,2.008-0.139,2.568-0.139h3.281v3.453H33.039
			v-2.49c0.879-0.824,1.713-1.635,2.508-2.432c0.791-0.795,1.488-1.555,2.084-2.283c0.598-0.727,1.072-1.434,1.422-2.121
			c0.352-0.688,0.527-1.363,0.527-2.027c0-0.399-0.055-0.737-0.164-1.013c-0.107-0.274-0.26-0.5-0.455-0.677
			c-0.197-0.178-0.428-0.307-0.691-0.387c-0.262-0.079-0.547-0.12-0.857-0.12c-0.602,0-1.266,0.131-1.992,0.394
			c-0.727,0.264-1.479,0.654-2.256,1.169V29.18c0.27-0.194,0.572-0.386,0.908-0.574c0.34-0.19,0.705-0.362,1.098-0.516
			s0.813-0.28,1.26-0.377s0.908-0.146,1.383-0.146c0.709,0,1.363,0.12,1.955,0.361c0.594,0.24,1.102,0.592,1.529,1.056
			c0.424,0.462,0.758,1.035,0.996,1.717C42.529,31.383,42.648,32.17,42.648,33.063z"/>
	</g>
	<g>
		<path fill="#C6C7C8" d="M22.815,54.139v-0.133c0.087-0.014,0.159-0.029,0.218-0.047c0.058-0.016,0.105-0.031,0.141-0.049
			c0.034-0.016,0.06-0.029,0.074-0.043c0.016-0.014,0.022-0.027,0.022-0.039v-2.557h-0.804c-0.028,0-0.055,0.006-0.077,0.018
			c-0.024,0.012-0.049,0.033-0.073,0.066c-0.025,0.035-0.055,0.082-0.085,0.141c-0.029,0.061-0.064,0.139-0.106,0.234l-0.15-0.051
			c0.004-0.051,0.01-0.102,0.018-0.16c0.007-0.059,0.015-0.117,0.023-0.176c0.008-0.059,0.019-0.115,0.028-0.172
			c0.011-0.055,0.021-0.105,0.029-0.148h2.916l0.093,0.066c-0.002,0.045-0.005,0.092-0.011,0.141
			c-0.006,0.051-0.013,0.104-0.021,0.158s-0.018,0.111-0.028,0.166c-0.01,0.057-0.021,0.111-0.032,0.162h-0.156
			c-0.019-0.078-0.034-0.143-0.048-0.197c-0.013-0.057-0.028-0.104-0.045-0.141s-0.039-0.064-0.064-0.082s-0.059-0.025-0.098-0.025
			h-0.77v2.557c0,0.012,0.008,0.021,0.022,0.037c0.015,0.012,0.041,0.029,0.077,0.045c0.035,0.018,0.082,0.033,0.141,0.049
			c0.06,0.018,0.132,0.033,0.219,0.047v0.133H22.815z"/>
		<path fill="#C6C7C8" d="M28.298,53.91c-0.07,0.041-0.141,0.076-0.212,0.113c-0.069,0.037-0.137,0.068-0.199,0.096
			c-0.062,0.029-0.117,0.051-0.165,0.068c-0.049,0.016-0.084,0.023-0.106,0.023c-0.034,0-0.064-0.008-0.094-0.023
			c-0.027-0.018-0.054-0.045-0.076-0.08c-0.022-0.037-0.041-0.084-0.058-0.143c-0.017-0.057-0.028-0.129-0.036-0.213
			c-0.116,0.098-0.223,0.18-0.319,0.238c-0.097,0.061-0.185,0.107-0.265,0.139c-0.08,0.033-0.153,0.057-0.221,0.066
			c-0.067,0.012-0.131,0.016-0.191,0.016c-0.088,0-0.174-0.01-0.256-0.031s-0.155-0.061-0.219-0.119
			c-0.064-0.055-0.116-0.133-0.155-0.232c-0.038-0.098-0.058-0.227-0.058-0.381v-1.049c0-0.08-0.002-0.143-0.007-0.186
			s-0.019-0.076-0.042-0.098c-0.021-0.023-0.058-0.037-0.105-0.047c-0.048-0.008-0.115-0.016-0.202-0.023v-0.123
			c0.075-0.008,0.146-0.016,0.212-0.025c0.066-0.008,0.13-0.02,0.191-0.029c0.062-0.014,0.122-0.027,0.184-0.045
			c0.062-0.016,0.126-0.035,0.194-0.059l0.084,0.104v1.438c0,0.113,0.01,0.203,0.026,0.277c0.019,0.072,0.045,0.131,0.079,0.172
			c0.033,0.043,0.076,0.072,0.126,0.09c0.05,0.02,0.105,0.027,0.169,0.027c0.053,0,0.108-0.008,0.165-0.021
			c0.058-0.012,0.118-0.033,0.181-0.063c0.064-0.029,0.13-0.07,0.201-0.117c0.071-0.049,0.147-0.109,0.228-0.18v-1.092
			c0-0.074-0.003-0.133-0.011-0.178s-0.025-0.08-0.053-0.105c-0.027-0.023-0.065-0.041-0.117-0.051
			c-0.051-0.01-0.119-0.018-0.206-0.02v-0.123c0.152-0.016,0.296-0.037,0.43-0.066s0.26-0.059,0.377-0.092l0.09,0.104v1.619
			c0,0.102,0.004,0.18,0.013,0.234c0.009,0.059,0.025,0.094,0.052,0.109c0.023,0.014,0.06,0.016,0.11,0.01
			c0.05-0.008,0.122-0.029,0.219-0.066L28.298,53.91z"/>
		<path fill="#C6C7C8" d="M30.845,52.766c-0.034,0.033-0.084,0.066-0.15,0.1c-0.066,0.031-0.129,0.057-0.189,0.078h-1.438
			c0.002,0.127,0.022,0.244,0.06,0.355c0.038,0.111,0.091,0.207,0.159,0.289c0.067,0.084,0.149,0.15,0.248,0.197
			c0.097,0.049,0.207,0.074,0.329,0.074c0.058,0,0.115-0.006,0.172-0.01c0.055-0.008,0.114-0.023,0.18-0.045
			c0.063-0.023,0.136-0.055,0.215-0.098s0.172-0.1,0.279-0.174c0.025,0.014,0.048,0.033,0.071,0.061
			c0.022,0.027,0.039,0.049,0.048,0.063c-0.128,0.117-0.241,0.213-0.339,0.287c-0.099,0.07-0.191,0.127-0.279,0.168
			c-0.087,0.041-0.175,0.068-0.26,0.08c-0.086,0.014-0.18,0.02-0.283,0.02c-0.15,0-0.293-0.027-0.428-0.082
			s-0.253-0.133-0.354-0.234c-0.103-0.1-0.185-0.221-0.245-0.361c-0.06-0.143-0.089-0.301-0.089-0.475
			c0-0.111,0.013-0.219,0.041-0.324c0.026-0.105,0.065-0.205,0.119-0.297c0.051-0.094,0.114-0.176,0.19-0.256
			c0.075-0.08,0.162-0.148,0.26-0.209c0.046-0.027,0.096-0.055,0.15-0.078c0.055-0.025,0.112-0.047,0.171-0.066
			c0.061-0.018,0.121-0.035,0.183-0.045c0.063-0.012,0.121-0.02,0.179-0.02c0.122,0,0.233,0.016,0.331,0.045
			c0.098,0.027,0.185,0.064,0.259,0.113s0.138,0.105,0.189,0.172s0.094,0.137,0.128,0.211c0.032,0.074,0.057,0.15,0.071,0.229
			C30.837,52.613,30.845,52.689,30.845,52.766z M29.755,52.037c-0.095,0-0.179,0.018-0.256,0.049
			c-0.076,0.031-0.144,0.076-0.199,0.135c-0.058,0.059-0.104,0.131-0.141,0.213c-0.036,0.082-0.063,0.172-0.077,0.271h1.119
			c0.044,0,0.073-0.006,0.088-0.02c0.014-0.012,0.021-0.035,0.021-0.072c0-0.045-0.008-0.1-0.022-0.166
			c-0.016-0.066-0.044-0.129-0.083-0.191c-0.041-0.059-0.097-0.111-0.169-0.154S29.87,52.037,29.755,52.037z"/>
		<path fill="#C6C7C8" d="M33.114,53.438c0,0.119-0.02,0.217-0.059,0.301c-0.039,0.082-0.088,0.154-0.149,0.213
			c-0.062,0.055-0.131,0.104-0.207,0.137c-0.076,0.035-0.152,0.061-0.229,0.078c-0.077,0.02-0.148,0.031-0.216,0.037
			c-0.066,0.006-0.121,0.008-0.163,0.008c-0.05,0-0.105-0.004-0.166-0.01c-0.061-0.008-0.123-0.018-0.188-0.035
			c-0.064-0.014-0.132-0.033-0.2-0.055c-0.067-0.025-0.132-0.051-0.194-0.08c-0.014-0.004-0.022-0.031-0.027-0.084
			c-0.005-0.049-0.007-0.107-0.006-0.174s0.006-0.137,0.016-0.207s0.021-0.129,0.038-0.172l0.154,0.025
			c0.01,0.078,0.034,0.146,0.073,0.209c0.04,0.064,0.091,0.119,0.153,0.166s0.135,0.082,0.215,0.109
			c0.081,0.027,0.169,0.041,0.261,0.041c0.136,0,0.243-0.031,0.322-0.094c0.08-0.063,0.119-0.148,0.119-0.258
			c0-0.064-0.021-0.125-0.059-0.174c-0.04-0.053-0.092-0.1-0.158-0.143c-0.064-0.043-0.14-0.084-0.222-0.121
			c-0.083-0.037-0.168-0.076-0.255-0.115c-0.08-0.035-0.155-0.072-0.232-0.113c-0.074-0.039-0.143-0.086-0.202-0.135
			c-0.06-0.051-0.107-0.107-0.143-0.168c-0.036-0.063-0.055-0.133-0.055-0.213c0-0.102,0.027-0.191,0.077-0.273
			c0.051-0.082,0.117-0.148,0.201-0.203c0.083-0.055,0.179-0.098,0.287-0.127c0.108-0.027,0.219-0.045,0.333-0.045
			c0.065,0,0.136,0.006,0.21,0.016c0.075,0.01,0.148,0.021,0.218,0.037c0.071,0.018,0.139,0.037,0.198,0.061
			c0.062,0.023,0.113,0.049,0.151,0.078c0.014,0.008,0.015,0.031,0.006,0.07c-0.008,0.039-0.02,0.082-0.038,0.131
			c-0.017,0.045-0.037,0.092-0.06,0.133c-0.021,0.045-0.04,0.076-0.054,0.092l-0.14-0.02c-0.075-0.127-0.161-0.219-0.256-0.275
			C32.375,52.027,32.276,52,32.175,52c-0.061,0-0.115,0.008-0.162,0.023c-0.05,0.018-0.09,0.039-0.123,0.064
			c-0.032,0.025-0.057,0.055-0.075,0.088c-0.017,0.031-0.025,0.066-0.025,0.1c0,0.055,0.018,0.1,0.052,0.143s0.08,0.082,0.138,0.119
			c0.057,0.037,0.124,0.072,0.2,0.107s0.157,0.072,0.242,0.111c0.081,0.037,0.163,0.076,0.246,0.117s0.159,0.088,0.224,0.143
			c0.067,0.051,0.119,0.113,0.162,0.182C33.093,53.266,33.114,53.346,33.114,53.438z"/>
		<path fill="#C6C7C8" d="M36.416,53.904c-0.175,0.102-0.321,0.18-0.44,0.232c-0.12,0.049-0.204,0.074-0.257,0.074
			c-0.066,0-0.119-0.037-0.16-0.109c-0.04-0.074-0.07-0.195-0.084-0.361c-0.077,0.076-0.15,0.141-0.221,0.201
			c-0.069,0.059-0.141,0.107-0.215,0.148c-0.074,0.039-0.15,0.07-0.229,0.092c-0.08,0.02-0.167,0.029-0.262,0.029
			c-0.111,0-0.226-0.025-0.34-0.08c-0.117-0.053-0.223-0.131-0.315-0.23c-0.095-0.102-0.173-0.225-0.232-0.367
			c-0.06-0.146-0.091-0.311-0.091-0.492c0-0.102,0.014-0.201,0.043-0.305c0.029-0.1,0.071-0.197,0.127-0.293
			c0.057-0.096,0.125-0.182,0.203-0.264c0.082-0.084,0.172-0.156,0.271-0.217c0.102-0.061,0.21-0.109,0.328-0.145
			c0.116-0.035,0.242-0.055,0.375-0.055c0.088,0,0.176,0.012,0.264,0.029c0.088,0.02,0.183,0.061,0.284,0.123v-0.902
			c0-0.09-0.001-0.162-0.007-0.215c-0.004-0.055-0.02-0.096-0.045-0.123c-0.026-0.031-0.064-0.049-0.119-0.061
			c-0.053-0.012-0.131-0.02-0.23-0.025v-0.123c0.172-0.018,0.326-0.041,0.463-0.072c0.139-0.029,0.257-0.059,0.354-0.088l0.094,0.08
			v3.086c0,0.057,0.001,0.107,0.005,0.148c0.003,0.041,0.008,0.072,0.012,0.1c0.007,0.027,0.013,0.051,0.021,0.066
			c0.007,0.016,0.017,0.029,0.028,0.039c0.009,0.008,0.021,0.014,0.035,0.016c0.015,0.002,0.034,0.002,0.059-0.002
			c0.027-0.004,0.057-0.012,0.094-0.021c0.036-0.01,0.082-0.023,0.139-0.045L36.416,53.904z M35.466,53.488v-1.135
			c-0.063-0.094-0.151-0.17-0.26-0.221c-0.107-0.053-0.229-0.078-0.362-0.078c-0.111,0-0.214,0.02-0.308,0.055
			c-0.093,0.037-0.174,0.092-0.242,0.166c-0.068,0.072-0.121,0.166-0.158,0.277c-0.038,0.111-0.056,0.24-0.056,0.391
			c0,0.137,0.021,0.262,0.064,0.373c0.043,0.109,0.1,0.205,0.166,0.281c0.068,0.078,0.144,0.139,0.228,0.18
			c0.083,0.043,0.163,0.063,0.241,0.063c0.059,0,0.119-0.008,0.176-0.027c0.057-0.018,0.114-0.045,0.172-0.076
			c0.057-0.033,0.113-0.07,0.169-0.113C35.352,53.582,35.41,53.535,35.466,53.488z"/>
		<path fill="#C6C7C8" d="M39.156,53.91c-0.16,0.096-0.303,0.172-0.43,0.223c-0.123,0.053-0.217,0.078-0.273,0.078
			c-0.066,0-0.121-0.037-0.164-0.109c-0.043-0.074-0.066-0.178-0.074-0.307c-0.086,0.074-0.17,0.139-0.258,0.191
			c-0.082,0.053-0.166,0.096-0.244,0.129c-0.08,0.035-0.158,0.059-0.232,0.074c-0.072,0.016-0.139,0.021-0.201,0.021
			c-0.07,0-0.141-0.01-0.216-0.029c-0.071-0.021-0.138-0.055-0.198-0.1c-0.059-0.045-0.108-0.1-0.146-0.168
			c-0.038-0.07-0.056-0.152-0.056-0.248c0-0.119,0.025-0.221,0.072-0.305c0.051-0.082,0.109-0.152,0.18-0.215
			c0.045-0.039,0.096-0.076,0.154-0.111c0.06-0.039,0.135-0.074,0.23-0.107c0.097-0.031,0.217-0.063,0.362-0.094
			c0.146-0.029,0.329-0.061,0.552-0.09v-0.328c0-0.055-0.006-0.105-0.021-0.152c-0.012-0.047-0.037-0.088-0.07-0.121
			c-0.035-0.033-0.078-0.061-0.135-0.078c-0.057-0.02-0.129-0.029-0.211-0.027c-0.059,0-0.113,0.008-0.166,0.025
			c-0.053,0.016-0.102,0.039-0.142,0.066c-0.042,0.027-0.072,0.063-0.098,0.102c-0.021,0.041-0.029,0.086-0.024,0.137
			c0.004,0.008-0.008,0.021-0.031,0.033c-0.025,0.012-0.055,0.025-0.092,0.039c-0.035,0.014-0.078,0.025-0.121,0.037
			s-0.087,0.021-0.131,0.031c-0.041,0.008-0.08,0.014-0.116,0.02c-0.034,0.002-0.06,0.002-0.074,0l-0.046-0.109
			c0.043-0.088,0.112-0.17,0.206-0.25c0.091-0.08,0.196-0.148,0.314-0.209c0.12-0.059,0.246-0.105,0.383-0.141
			c0.138-0.035,0.271-0.055,0.403-0.055c0.225,0,0.393,0.053,0.508,0.152c0.115,0.102,0.174,0.234,0.174,0.404v1.328
			c0,0.068,0.01,0.119,0.029,0.146c0.021,0.031,0.049,0.045,0.084,0.045c0.023,0,0.059-0.004,0.098-0.012
			c0.041-0.008,0.098-0.027,0.172-0.055L39.156,53.91z M37.503,53.854c0.099,0,0.206-0.023,0.323-0.068
			c0.115-0.045,0.244-0.121,0.389-0.229v-0.609c-0.145,0.021-0.264,0.041-0.357,0.061s-0.172,0.041-0.234,0.059
			c-0.062,0.023-0.113,0.043-0.15,0.066c-0.035,0.023-0.068,0.047-0.096,0.074c-0.049,0.043-0.09,0.092-0.12,0.146
			c-0.03,0.057-0.044,0.119-0.044,0.193c0,0.063,0.01,0.115,0.031,0.152c0.02,0.041,0.046,0.072,0.075,0.096
			c0.032,0.023,0.063,0.037,0.099,0.045C37.45,53.85,37.479,53.854,37.503,53.854z"/>
		<path fill="#C6C7C8" d="M42.025,51.971c-0.055,0.012-0.102,0.021-0.137,0.031c-0.037,0.01-0.064,0.021-0.09,0.035
			c-0.021,0.01-0.039,0.025-0.051,0.041c-0.012,0.014-0.023,0.035-0.033,0.061l-0.945,2.195c-0.08,0.182-0.166,0.34-0.264,0.467
			c-0.1,0.131-0.199,0.238-0.305,0.322c-0.104,0.084-0.209,0.146-0.318,0.186c-0.107,0.039-0.215,0.061-0.32,0.061
			c-0.07,0-0.137-0.004-0.201-0.016c-0.064-0.008-0.117-0.02-0.164-0.033c-0.049-0.016-0.086-0.029-0.113-0.047
			c-0.027-0.02-0.039-0.033-0.039-0.049c0-0.012,0.012-0.033,0.039-0.066c0.025-0.035,0.059-0.072,0.094-0.111
			c0.037-0.039,0.076-0.076,0.117-0.113c0.041-0.035,0.078-0.063,0.107-0.08c0.092,0.049,0.184,0.076,0.275,0.082
			s0.174-0.002,0.242-0.023c0.035-0.01,0.074-0.033,0.115-0.064c0.043-0.033,0.086-0.072,0.131-0.119s0.088-0.104,0.127-0.164
			c0.043-0.063,0.08-0.129,0.113-0.201l0.084-0.17l-0.936-2.055c-0.018-0.047-0.051-0.082-0.1-0.105
			c-0.047-0.023-0.119-0.045-0.213-0.063V51.84h1.154v0.131c-0.074,0.008-0.133,0.016-0.178,0.025
			c-0.043,0.008-0.078,0.018-0.1,0.029c-0.023,0.014-0.033,0.029-0.037,0.049c-0.002,0.016,0.004,0.037,0.018,0.064l0.658,1.463
			l0.621-1.463c0.008-0.025,0.012-0.047,0.01-0.063c-0.002-0.018-0.016-0.033-0.037-0.045c-0.023-0.014-0.055-0.023-0.098-0.033
			c-0.043-0.008-0.1-0.016-0.168-0.027V51.84h0.939V51.971z"/>
	</g>
</g>
</svg>
