<?xml version="1.0" encoding="utf-8"?>
<!-- Generator: Adobe Illustrator 16.0.0, SVG Export Plug-In . SVG Version: 6.00 Build 0)  -->
<!DOCTYPE svg PUBLIC "-//W3C//DTD SVG 1.1//EN" "http://www.w3.org/Graphics/SVG/1.1/DTD/svg11.dtd">
<svg version="1.1" id="Layer_1" xmlns="http://www.w3.org/2000/svg" xmlns:xlink="http://www.w3.org/1999/xlink" x="0px" y="0px"
	 width="64px" height="64px" viewBox="0 0 64 64" enable-background="new 0 0 64 64" xml:space="preserve">
<g>
	<path fill-rule="evenodd" clip-rule="evenodd" fill="#231815" d="M53.652,41.372c1.039-0.122,2.025-0.318,2.541,1.381
		c0.139,0.458,0.488,0.837,0.793,1.166c1.111,1.204,2.256,2.352,3.361,3.567c0.285,0.315,0.615,0.762,0.676,1.208
		c0.516,3.838,0.053,4.679-2.83,5.362c-0.031,0.008-0.063,0.006-0.092,0.015c-5.947,1.364-11.965,2.083-17.977,2.27
		c-2.316,0.072-5.533,0.124-7.848,0.143c-2.316-0.019-5.533-0.07-7.849-0.143c-6.012-0.187-12.028-0.905-17.977-2.27
		c-0.03-0.009-0.061-0.007-0.091-0.015c-2.884-0.684-3.346-1.524-2.83-5.362c0.06-0.446,0.389-0.893,0.675-1.208
		c1.104-1.216,2.25-2.363,3.362-3.567c0.305-0.329,0.653-0.708,0.792-1.166c0.516-1.699,1.501-1.503,2.54-1.381
		C10.9,41.372,32.25,38.63,53.652,41.372z"/>
</g>
<g>
	<g>
		<path fill-rule="evenodd" clip-rule="evenodd" fill="#78421B" d="M32.288,12.763l1.517,0.079c2.27,0.192,3.934,0.551,5.83,1.068
			c4.365,1.188,8.305,3.53,11.338,8.056c1.74,2.598,2.736,5.652,2.844,9.128c0.027,0.922,0.117,1.506,0.77,1.912
			c1.334,0.83,1.91,2.19,1.705,4.207c-0.09,0.868-0.25,1.502-0.885,1.767c-1.016,0.422-2.025,0.912-3.068,1.168
			c-5.15,1.263-10.361,1.632-15.588,1.776c-0.543,0.015-1.084,0.066-1.654,0.102l-2.808,0.012l-2.808-0.012
			c-0.571-0.035-1.113-0.087-1.655-0.102c-5.226-0.145-10.438-0.514-15.588-1.776c-1.042-0.256-2.052-0.746-3.068-1.168
			c-0.634-0.265-0.795-0.898-0.884-1.767c-0.206-2.017,0.37-3.377,1.705-4.207c0.653-0.406,0.741-0.99,0.77-1.912
			c0.107-3.476,1.104-6.53,2.844-9.128c3.032-4.525,6.973-6.867,11.337-8.056c1.897-0.518,3.561-0.876,5.831-1.068L32.288,12.763z"
			/>
		<g>
			<rect x="28.953" y="37.949" fill-rule="evenodd" clip-rule="evenodd" fill="#461D12" width="6.592" height="9.25"/>
			<path fill-rule="evenodd" clip-rule="evenodd" fill="#AA5533" d="M32.288,13.563l1.517,0.079c2.27,0.192,3.934,0.551,5.83,1.068
				c4.365,1.188,8.305,3.53,11.338,8.056c1.74,2.598,2.736,5.652,2.844,9.128c0.027,0.922,0.117,1.504,0.77,1.908
				c1.334,0.83,1.91,2.19,1.705,4.207c-0.09,0.868-0.25,1.502-0.885,1.767c-1.016,0.422-2.025,0.912-3.068,1.168
				c-5.15,1.263-10.361,1.632-15.588,1.776c-0.543,0.015-1.084,0.066-1.654,0.102l-2.808,0.012l-2.808-0.012
				c-0.571-0.035-1.113-0.087-1.655-0.102c-5.226-0.145-10.438-0.514-15.588-1.776c-1.042-0.256-2.052-0.746-3.068-1.168
				c-0.634-0.265-0.795-0.898-0.884-1.767c-0.206-2.017,0.37-3.377,1.705-4.207c0.653-0.404,0.741-0.986,0.77-1.908
				c0.107-3.476,1.104-6.53,2.844-9.128c3.032-4.525,6.973-6.867,11.337-8.056c1.897-0.518,3.561-0.876,5.831-1.068L32.288,13.563z"
				/>
			<radialGradient id="SVGID_1_" cx="32.875" cy="42.25" r="14.9582" gradientUnits="userSpaceOnUse">
				<stop  offset="0" style="stop-color:#FFFFFF"/>
				<stop  offset="0.0689" style="stop-color:#FFF8EC"/>
				<stop  offset="0.2059" style="stop-color:#FFEDC6"/>
				<stop  offset="0.3982" style="stop-color:#FFDC8B"/>
				<stop  offset="0.6364" style="stop-color:#FFC62D"/>
				<stop  offset="0.6746" style="stop-color:#FFC316"/>
				<stop  offset="1" style="stop-color:#ED8D22"/>
			</radialGradient>
			<path fill-rule="evenodd" clip-rule="evenodd" fill="url(#SVGID_1_)" d="M32.288,13.563l1.517,0.079
				c2.27,0.192,3.934,0.551,5.83,1.068c4.365,1.188,8.305,3.53,11.338,8.056c1.74,2.598,2.736,5.652,2.844,9.128
				c0.027,0.922,0.117,1.504,0.77,1.908c1.334,0.83,1.91,2.19,1.705,4.207c-0.09,0.868-0.25,1.502-0.885,1.767
				c-1.016,0.422-2.025,0.912-3.068,1.168c-5.15,1.263-10.361,1.632-15.588,1.776c-0.543,0.015-1.084,0.066-1.654,0.102
				l-2.808,0.012l-2.808-0.012c-0.571-0.035-1.113-0.087-1.655-0.102c-5.226-0.145-10.438-0.514-15.588-1.776
				c-1.042-0.256-2.052-0.746-3.068-1.168c-0.634-0.265-0.795-0.898-0.884-1.767c-0.206-2.017,0.37-3.377,1.705-4.207
				c0.653-0.404,0.741-0.986,0.77-1.908c0.107-3.476,1.104-6.53,2.844-9.128c3.032-4.525,6.973-6.867,11.337-8.056
				c1.897-0.518,3.561-0.876,5.831-1.068L32.288,13.563z"/>
			<path fill-rule="evenodd" clip-rule="evenodd" fill="#EB7D24" d="M32.288,12.763l1.517,0.079c2.27,0.192,3.934,0.551,5.83,1.068
				c4.365,1.188,8.305,3.53,11.338,8.056c1.74,2.598,2.736,5.652,2.844,9.128c0.027,0.922,0.117,1.506,0.77,1.912
				c1.334,0.83,1.91,2.19,1.705,4.207c-0.09,0.868-0.25,1.502-0.885,1.767c-1.016,0.422-2.025,0.912-3.068,1.168
				c-5.15,1.263-10.361,1.632-15.588,1.776c-0.543,0.015-1.084,0.066-1.654,0.102l-2.808,0.012l-2.808-0.012
				c-0.571-0.035-1.113-0.087-1.655-0.102c-5.226-0.145-10.438-0.514-15.588-1.776c-1.042-0.256-2.052-0.746-3.068-1.168
				c-0.634-0.265-0.795-0.898-0.884-1.767c-0.206-2.017,0.37-3.377,1.705-4.207c0.653-0.406,0.741-0.99,0.77-1.912
				c0.107-3.476,1.104-6.53,2.844-9.128c3.032-4.525,6.973-6.867,11.337-8.056c1.897-0.518,3.561-0.876,5.831-1.068L32.288,12.763z"
				/>
			<linearGradient id="SVGID_2_" gradientUnits="userSpaceOnUse" x1="15.125" y1="26.8843" x2="58.5583" y2="26.8843">
				<stop  offset="0.0056" style="stop-color:#FBCA28"/>
				<stop  offset="0.2582" style="stop-color:#FDF9CE"/>
				<stop  offset="0.298" style="stop-color:#FDECB5"/>
				<stop  offset="0.3828" style="stop-color:#FED98A"/>
				<stop  offset="0.4666" style="stop-color:#FDCA67"/>
				<stop  offset="0.5479" style="stop-color:#FDBE47"/>
				<stop  offset="0.626" style="stop-color:#FCB62F"/>
				<stop  offset="0.6994" style="stop-color:#FCB11F"/>
				<stop  offset="0.7634" style="stop-color:#FCAF1A"/>
				<stop  offset="0.8804" style="stop-color:#FDD177"/>
				<stop  offset="1" style="stop-color:#FDF9CE"/>
			</linearGradient>
			<path fill="url(#SVGID_2_)" d="M29.552,40.025l2.736,0.012l3.227-0.047c0.399-0.03,0.79-0.059,1.182-0.07
				c4.543-0.131,9.898-0.446,15.165-1.79c0.649-0.165,1.344-0.477,2.078-0.806l0.327-0.146c0.011-0.075,0.022-0.173,0.035-0.296
				c0.174-1.784-0.442-2.184-0.773-2.398c-1.636-1.061-1.685-2.773-1.711-3.695c-0.093-3.136-0.937-5.964-2.506-8.403
				c-2.496-3.875-5.737-6.271-10.202-7.535c-1.778-0.506-3.313-0.856-5.474-1.047l-1.348-0.072l-1.414,0.077
				c-2.094,0.186-3.63,0.536-5.409,1.042c-4.466,1.266-7.708,3.66-10.202,7.535c-1.57,2.439-2.414,5.268-2.506,8.406
				c-0.027,0.921-0.078,2.635-1.712,3.693c-0.331,0.214-0.947,0.613-0.771,2.4c0.012,0.122,0.023,0.218,0.035,0.293l0.325,0.145
				c0.735,0.329,1.43,0.642,2.079,0.807c5.266,1.344,10.622,1.659,15.167,1.79c0.389,0.012,0.779,0.04,1.179,0.069L29.552,40.025z"
				/>
			
				<radialGradient id="SVGID_3_" cx="32.2876" cy="27.0244" r="18.1517" gradientTransform="matrix(1 0 0 1.0551 0 -0.9941)" gradientUnits="userSpaceOnUse">
				<stop  offset="0" style="stop-color:#FFFFFF"/>
				<stop  offset="0.0689" style="stop-color:#FFF8EC"/>
				<stop  offset="0.2059" style="stop-color:#FFEDC6"/>
				<stop  offset="0.3982" style="stop-color:#FFDC8B"/>
				<stop  offset="0.6364" style="stop-color:#FFC62D"/>
				<stop  offset="0.6746" style="stop-color:#FFC316"/>
				<stop  offset="0.8871" style="stop-color:#ED8D22"/>
				<stop  offset="1" style="stop-color:#CD7C29"/>
			</radialGradient>
			<path fill="url(#SVGID_3_)" d="M29.552,41.384l2.736,0.013l3.227-0.049c0.399-0.033,0.79-0.063,1.182-0.074
				c4.543-0.139,9.898-0.472,15.165-1.889c0.649-0.175,1.344-0.504,2.078-0.851l0.327-0.153c0.011-0.08,0.022-0.183,0.035-0.313
				c0.174-1.882-0.442-2.304-0.773-2.53c-1.636-1.119-1.685-2.927-1.711-3.9c-0.093-3.309-0.937-6.293-2.506-8.867
				c-2.496-4.088-5.737-6.616-10.202-7.949c-1.778-0.535-3.313-0.904-5.474-1.105l-1.348-0.076l-1.414,0.082
				c-2.094,0.195-3.63,0.564-5.409,1.1c-4.466,1.334-7.708,3.861-10.202,7.949c-1.57,2.574-2.414,5.559-2.506,8.871
				c-0.027,0.971-0.078,2.78-1.712,3.897c-0.331,0.226-0.947,0.647-0.771,2.533c0.012,0.128,0.023,0.229,0.035,0.309l0.325,0.152
				c0.735,0.347,1.43,0.677,2.079,0.852c5.266,1.417,10.622,1.75,15.167,1.889c0.389,0.012,0.779,0.041,1.179,0.073L29.552,41.384z"
				/>
		</g>
	</g>
	<g>
		<path fill-rule="evenodd" clip-rule="evenodd" fill="#461D12" d="M53.326,41.472c1.025-0.122,1.994-0.418,2.503,1.281
			c0.136,0.458,0.48,0.837,0.782,1.166c1.093,1.204,2.222,2.352,3.311,3.567c0.278,0.315,0.604,0.762,0.664,1.208
			c0.509,3.838,0.053,4.679-2.786,5.362c-0.03,0.008-0.063,0.006-0.092,0.015c-5.856,1.364-11.782,2.083-17.702,2.27
			c-2.281,0.072-5.45,0.124-7.729,0.143c-2.28-0.019-5.448-0.07-7.729-0.143c-5.921-0.187-11.847-0.905-17.703-2.27
			c-0.029-0.009-0.061-0.007-0.09-0.015c-2.84-0.684-3.295-1.524-2.787-5.362c0.06-0.446,0.384-0.893,0.665-1.208
			c1.088-1.216,2.217-2.363,3.312-3.567c0.3-0.329,0.644-0.708,0.78-1.166c0.507-1.699,1.479-1.403,2.501-1.281
			C11.226,41.472,32.25,46.271,53.326,41.472z"/>
	</g>
	<g>
		<g>
			<linearGradient id="SVGID_4_" gradientUnits="userSpaceOnUse" x1="32.2778" y1="49.334" x2="32.2778" y2="21.3316">
				<stop  offset="0" style="stop-color:#66220E"/>
				<stop  offset="0.4785" style="stop-color:#B7704A"/>
				<stop  offset="1" style="stop-color:#66220E"/>
			</linearGradient>
			<path fill-rule="evenodd" clip-rule="evenodd" fill="url(#SVGID_4_)" d="M52.93,42.295c1.004-0.109,1.957-0.373,2.455,1.14
				c0.134,0.407,0.471,0.745,0.766,1.037c1.074,1.071,2.18,2.093,3.248,3.173c0.275,0.281,0.596,0.678,0.652,1.075
				c0.5,3.415,0.052,4.163-2.734,4.771c-0.029,0.007-0.061,0.005-0.088,0.014c-5.746,1.214-11.561,1.853-17.369,2.019
				c-2.238,0.064-5.346,0.11-7.583,0.127c-2.237-0.017-5.345-0.063-7.583-0.127c-5.809-0.166-11.622-0.805-17.369-2.019
				c-0.028-0.009-0.059-0.007-0.088-0.014c-2.786-0.608-3.232-1.356-2.734-4.771c0.058-0.397,0.376-0.794,0.653-1.075
				c1.067-1.08,2.174-2.102,3.248-3.173c0.294-0.292,0.631-0.63,0.766-1.037c0.498-1.513,1.451-1.249,2.455-1.14
				C11.624,42.295,32.251,46.564,52.93,42.295z"/>
			<linearGradient id="SVGID_5_" gradientUnits="userSpaceOnUse" x1="22.5" y1="45.5195" x2="42.9173" y2="45.5195">
				<stop  offset="0" style="stop-color:#88451F"/>
				<stop  offset="0.4785" style="stop-color:#FEDBC0"/>
				<stop  offset="1" style="stop-color:#88451F"/>
			</linearGradient>
			<path fill-rule="evenodd" clip-rule="evenodd" fill="url(#SVGID_5_)" d="M45.75,43.454c-10.104,1.218-19.601,0.707-26,0.021
				v4.109h26V43.454z"/>
			<path fill="#662E12" d="M6.424,52.405c5.706,1.399,11.735,2.213,17.921,2.419c2.396,0.079,5.706,0.135,7.933,0.154
				c2.225-0.02,5.535-0.075,7.931-0.154c6.188-0.206,12.217-1.02,17.922-2.419v0.001c0.05-0.012,0.103-0.023,0.153-0.031
				c1.095-0.286,1.308-0.483,1.34-0.521c0.064-0.119,0.195-0.639-0.065-2.771c-0.028-0.048-0.087-0.138-0.195-0.267
				c-0.598-0.702-1.212-1.389-1.824-2.073c-0.531-0.595-1.062-1.189-1.586-1.796c-0.38-0.438-0.951-1.099-1.237-2.037
				c-0.042,0.005-0.083,0.011-0.125,0.018l-0.185,0.024c-6.552,1.563-13.728,2.354-21.332,2.354c0,0-0.001,0-0.002,0
				c-12.444,0-21.813-2.095-22.921-2.353l-0.188-0.025C9.921,42.921,9.88,42.915,9.84,42.91c-0.288,0.94-0.858,1.601-1.239,2.039
				c-0.521,0.604-1.05,1.195-1.579,1.787c-0.615,0.688-1.23,1.375-1.833,2.085c-0.105,0.124-0.163,0.212-0.191,0.26
				c-0.261,2.135-0.131,2.654-0.062,2.78c0.028,0.03,0.244,0.23,1.341,0.515C6.325,52.384,6.375,52.396,6.424,52.405L6.424,52.405z"
				/>
		</g>
	</g>
	<g>
		<defs>
			<path id="SVGID_6_" d="M6.424,52.405c5.706,1.399,11.735,2.213,17.921,2.419c2.396,0.079,5.706,0.135,7.933,0.154
				c2.225-0.02,5.535-0.075,7.931-0.154c6.188-0.206,12.217-1.02,17.922-2.419v0.001c0.05-0.012,0.103-0.023,0.153-0.031
				c1.095-0.286,1.308-0.483,1.34-0.521c0.064-0.119,0.195-0.639-0.065-2.771c-0.028-0.048-0.087-0.138-0.195-0.267
				c-0.598-0.702-1.212-1.389-1.824-2.073c-0.531-0.595-1.062-1.189-1.586-1.796c-0.38-0.438-0.951-1.099-1.237-2.037
				c-0.042,0.005-0.083,0.011-0.125,0.018l-0.185,0.024c-6.552,1.563-13.728,2.354-21.332,2.354c0,0-0.001,0-0.002,0
				c-12.444,0-21.813-2.095-22.921-2.353l-0.188-0.025C9.921,42.921,9.88,42.915,9.84,42.91c-0.288,0.94-0.858,1.601-1.239,2.039
				c-0.521,0.604-1.05,1.195-1.579,1.787c-0.615,0.688-1.23,1.375-1.833,2.085c-0.105,0.124-0.163,0.212-0.191,0.26
				c-0.261,2.135-0.131,2.654-0.062,2.78c0.028,0.03,0.244,0.23,1.341,0.515C6.325,52.384,6.375,52.396,6.424,52.405L6.424,52.405z"
				/>
		</defs>
		<clipPath id="SVGID_7_">
			<use xlink:href="#SVGID_6_"  overflow="visible"/>
		</clipPath>
		<g clip-path="url(#SVGID_7_)">
			<linearGradient id="SVGID_8_" gradientUnits="userSpaceOnUse" x1="13.5" y1="54.1982" x2="52.162" y2="54.1982">
				<stop  offset="0" style="stop-color:#66220E"/>
				<stop  offset="0.4677" style="stop-color:#B7704A"/>
				<stop  offset="1" style="stop-color:#66220E"/>
			</linearGradient>
			<path fill-rule="evenodd" clip-rule="evenodd" fill="url(#SVGID_8_)" d="M127.066,49.501c-11.461,0.86-17.678,0.351-27.34,0.358
				c-9.08,0.01-21.605,0.536-32.275,3.53c-0.704,0.195-4.312,0.436-6.226,0.682c-10.847,1.341-15.357,3.253-22.766,2.979
				c-5.135-0.188-10.945-0.718-19.501-1.757C6.915,52.664,3.686,52.962,2.834,53.447c-1.239,0.469-0.1,1.124-12.354-1.168
				c3.992,0.927,7.984,1.853,11.977,2.779c10.218,2.121,10.98,1.988,18.343,3.465c-4.496-1.333-17.096-6.409,7.859,0.327
				c1.029,0.244,4.137-0.604,7.88-0.405c7.882,0.454,13.095-0.502,23.334-1.713c1.42-0.177,3.998-0.362,4.524-0.545
				c11.237-3.867,24.923-5.305,33.751-5.543c9.192-0.234,13.525,0.729,14.47,1.771C117.435,51.444,122.251,50.473,127.066,49.501z"
				/>
			<linearGradient id="SVGID_9_" gradientUnits="userSpaceOnUse" x1="13.5" y1="49.791" x2="52.162" y2="49.791">
				<stop  offset="0" style="stop-color:#66220E"/>
				<stop  offset="0.4677" style="stop-color:#B7704A"/>
				<stop  offset="1" style="stop-color:#66220E"/>
			</linearGradient>
			<path fill-rule="evenodd" clip-rule="evenodd" fill="url(#SVGID_9_)" d="M55.478,50.378c0.198-0.632-3.978-0.796-10.36-1.088
				c-6.181-0.282-16.162-1.874-26.64-2.761C8.099,45.638,1.426,45.89-0.667,46.652c-2.244,0.76-0.731,1.889,2.325,2.904
				c3.085,1.023,7.749,1.992,12.622,2.679c4.904,0.696,9.588,0.877,15.629,1.04c6.298,0.169,12.579,1.054,16.676-0.069
				C50.946,52.074,55.297,51.009,55.478,50.378 M49.252,50.695c0.011,0.594-2.646,2.009-6.027,2.479
				c-3.324,0.469-8.969-0.342-14.38-0.526c-5.26-0.185-8.518-0.408-12.021-0.999c-3.545-0.603-7.106-1.473-11.674-2.391
				c-4.611-0.922-5.731-1.732-3.182-2.225c2.467-0.488,9.149-0.512,17.565,0.179c8.5,0.692,16.636,2.033,21.594,2.49
				C46.148,50.16,49.163,50.107,49.252,50.695 M66.072,50.858c-1.976,0.523-7.185,0.655-13.235,1.887
				c-6.259,1.251-10.99,2.547-17.558,2.234c-6.988-0.324-12.307-0.249-19.645-1.33c-7.417-1.084-15.289-2.474-19.346-3.656
				c-4.009-1.175-6.917-3.016-3.718-4.395c2.974-1.375,14.998-1.384,28.806-0.065c13.725,1.316,26.275,2.266,34.718,2.896
				C64.747,49.069,68.235,50.333,66.072,50.858 M58.297,50.626c-0.337,0.824-4.375,1.153-8.885,2.448
				c-4.457,1.313-9.224,1.396-15.352,1.078c-6.169-0.32-11.573-0.345-17.841-1.141c-6.289-0.795-13.026-1.956-16.958-3.173
				c-3.911-1.211-5.249-2.707-1.269-3.61c3.817-0.9,14.063-0.754,24.828,0.286c10.797,1.045,19.782,2.01,25.971,2.32
				C55.098,49.146,58.752,49.794,58.297,50.626 M45.736,51.501c0.09,0.392-2.47,1.165-5.96,1.151
				c-3.562-0.025-6.769-0.356-11.609-0.5c-4.617-0.133-14.708-1.199-17.725-2.308c-3.181-1.106,3.198-2.561,10.415-2.061
				c6.869,0.502,11.764,1.519,16.693,2.304C42.439,50.865,45.567,51.112,45.736,51.501 M36.811,51.268
				c0.402,0.646-3.408,0.829-7.867,0.604c-4.449-0.224-8.938-0.736-10.469-1.528c-1.588-0.791,1.536-1.394,7.154-0.976
				C31.218,49.777,36.426,50.622,36.811,51.268 M26.323,50.175c3.804,0.271,7.077,0.778,7.314,0.991
				c0.247,0.214-2.452,0.075-5.97-0.146c-3.519-0.228-6.678-0.501-7.187-0.755C19.955,50.012,22.532,49.909,26.323,50.175"/>
			<linearGradient id="SVGID_10_" gradientUnits="userSpaceOnUse" x1="13.5" y1="45.0527" x2="52.1619" y2="45.0527">
				<stop  offset="0" style="stop-color:#66220E"/>
				<stop  offset="0.4677" style="stop-color:#B7704A"/>
				<stop  offset="1" style="stop-color:#66220E"/>
			</linearGradient>
			<path fill-rule="evenodd" clip-rule="evenodd" fill="url(#SVGID_10_)" d="M166.999,41.446c-4.985-0.089-10.152-0.189-15.5-0.304
				c-1.903-0.053-11.713-0.812-28.735-0.605c-11.681,0.152-31.433,1.164-46.248,2.1c-15.183,0.943-25.429,1.811-26.571,1.871
				c-12.605,0.616-16.672-0.778-33.865-1.248C3.644,42.914-8.188,42.98-20.11,42.737c-4.079-0.085,2.307,3.491-0.607,3.361
				c0.188,1.704-9.114,0.441-15.156,0.064c3.778,0.877,7.555,1.754,11.333,2.63c5.568,0.472,14.121,1.88,11.083-0.684
				c2.406,0.071-4.574-3.568-0.723-3.518c6.091,0.063,12.417,0.067,18.927,0.209c26.079,0.572,43.543,1.831,47.045,1.119
				c0.549-0.102,16.379-0.377,23.178-1.397c15.712-2.367,40.808-2.945,61.301-2.747c12.576,0.128,22.055,0.328,22.214,1.389
				C161.323,42.591,164.161,42.019,166.999,41.446z"/>
			<linearGradient id="SVGID_11_" gradientUnits="userSpaceOnUse" x1="13.5" y1="47.3086" x2="52.162" y2="47.3086">
				<stop  offset="0" style="stop-color:#66220E"/>
				<stop  offset="0.4677" style="stop-color:#B7704A"/>
				<stop  offset="1" style="stop-color:#66220E"/>
			</linearGradient>
			<path fill-rule="evenodd" clip-rule="evenodd" fill="url(#SVGID_11_)" d="M51.366,45.214c3.643-0.263,11.036-0.471,17.824,0.35
				c3.878,0.461,5.812,2.092,9.383,2.158c11.287,0.241,29.087-1.938,33.74-1.401c1.518,0.272,25.576-1.096,32.861-0.472
				c-2.603,0.524-5.205,1.05-7.808,1.574c-4.006-0.966-18.562,0.264-27.564,0.356c-10.007,0.094-20.909,0.518-32.186,1.793
				c-3.763,0.424-5.952-1.343-9.581-1.968C62.92,46.645,51.494,45.423,51.366,45.214"/>
		</g>
	</g>
	<rect x="27.3" y="8.082" fill-rule="evenodd" clip-rule="evenodd" fill="#AA5533" width="9.835" height="4.856"/>
	<rect x="27.3" y="7.764" fill-rule="evenodd" clip-rule="evenodd" fill="#EB7D24" width="9.835" height="4.856"/>
	
		<radialGradient id="SVGID_12_" cx="32.2861" cy="10.0742" r="4.0463" gradientTransform="matrix(1.3372 0 0 0.794 -10.958 2.0928)" gradientUnits="userSpaceOnUse">
		<stop  offset="0" style="stop-color:#FFFFFF"/>
		<stop  offset="0.0689" style="stop-color:#FFF8EC"/>
		<stop  offset="0.2059" style="stop-color:#FFEDC6"/>
		<stop  offset="0.3982" style="stop-color:#FFDC8B"/>
		<stop  offset="0.6364" style="stop-color:#FFC62D"/>
		<stop  offset="0.6746" style="stop-color:#FFC316"/>
		<stop  offset="0.8871" style="stop-color:#ED8D22"/>
		<stop  offset="1" style="stop-color:#CD7C29"/>
	</radialGradient>
	<rect x="28.219" y="8.514" fill-rule="evenodd" clip-rule="evenodd" fill="url(#SVGID_12_)" width="7.994" height="3.156"/>
</g>
<radialGradient id="SVGID_13_" cx="32.3857" cy="34.6992" r="24.9539" gradientUnits="userSpaceOnUse">
	<stop  offset="0" style="stop-color:#FFFFFF"/>
	<stop  offset="0.0689" style="stop-color:#FFF8EC"/>
	<stop  offset="0.2059" style="stop-color:#FFEDC6"/>
	<stop  offset="0.3982" style="stop-color:#FFDC8B"/>
	<stop  offset="0.6364" style="stop-color:#FFC62D"/>
	<stop  offset="0.6746" style="stop-color:#FFC316"/>
	<stop  offset="1" style="stop-color:#ED8D22"/>
</radialGradient>
<path fill="url(#SVGID_13_)" d="M12.265,33.149c-0.157,0.305-0.366,0.602-0.646,0.876c4.089,0.936,11.429,2.224,20.903,2.224
	c6.1,0,13.086-0.549,20.632-2.059c-0.316-0.269-0.558-0.562-0.739-0.868C33.967,36.914,19.039,34.655,12.265,33.149z"/>
<radialGradient id="SVGID_14_" cx="51.834" cy="24.4941" r="46.3824" gradientUnits="userSpaceOnUse">
	<stop  offset="0" style="stop-color:#FFFFFF"/>
	<stop  offset="0.0689" style="stop-color:#FFF8EC"/>
	<stop  offset="0.2059" style="stop-color:#FFEDC6"/>
	<stop  offset="0.3982" style="stop-color:#FFDC8B"/>
	<stop  offset="0.6364" style="stop-color:#FFC62D"/>
	<stop  offset="0.6746" style="stop-color:#FFC316"/>
	<stop  offset="1" style="stop-color:#ED8D22"/>
</radialGradient>
<path fill="url(#SVGID_14_)" d="M54.425,34.484c-1.636-1.061-1.685-2.773-1.711-3.695c-0.093-3.136-0.937-5.964-2.506-8.403
	c-1.712-2.658-3.787-4.605-6.355-5.983c2.52,2.042,7.228,6.829,7.794,14.473c0,0-0.189,3.301,1.5,4.875
	c0.501,0.467,0.767,2.062,0.9,2.813c0.259-0.11,0.519-0.222,0.789-0.343l0.228-0.146c0.011-0.075,0.122-1.069,0.135-1.192
	C55.372,35.099,54.756,34.699,54.425,34.484z"/>
<radialGradient id="SVGID_15_" cx="86.3691" cy="24.4941" r="46.3824" gradientTransform="matrix(-1 0 0 1 99.082 0)" gradientUnits="userSpaceOnUse">
	<stop  offset="0" style="stop-color:#FFFFFF"/>
	<stop  offset="0.0689" style="stop-color:#FFF8EC"/>
	<stop  offset="0.2059" style="stop-color:#FFEDC6"/>
	<stop  offset="0.3982" style="stop-color:#FFDC8B"/>
	<stop  offset="0.6364" style="stop-color:#FFC62D"/>
	<stop  offset="0.6746" style="stop-color:#FFC316"/>
	<stop  offset="1" style="stop-color:#ED8D22"/>
</radialGradient>
<path fill="url(#SVGID_15_)" d="M10.122,34.484c1.636-1.061,1.685-2.773,1.711-3.695c0.093-3.136,0.937-5.964,2.506-8.403
	c1.712-2.658,3.787-4.605,6.355-5.983c-2.52,2.042-7.228,6.829-7.794,14.473c0,0,0.189,3.301-1.5,4.875
	c-0.502,0.468-0.769,2.063-0.9,2.813c-0.259-0.11-0.519-0.222-0.789-0.343l-0.227-0.146C9.473,38,9.361,37.006,9.349,36.883
	C9.175,35.099,9.791,34.699,10.122,34.484z"/>
</svg>
