<?xml version="1.0" encoding="utf-8"?>
<!-- Generator: Adobe Illustrator 15.0.0, SVG Export Plug-In . SVG Version: 6.00 Build 0)  -->
<!DOCTYPE svg PUBLIC "-//W3C//DTD SVG 1.1//EN" "http://www.w3.org/Graphics/SVG/1.1/DTD/svg11.dtd">
<svg version="1.1" id="レイヤー_1" xmlns="http://www.w3.org/2000/svg" xmlns:xlink="http://www.w3.org/1999/xlink" x="0px"
	 y="0px" width="64px" height="64px" viewBox="0 0 64 64" style="enable-background:new 0 0 64 64;" xml:space="preserve">
<g>
	<path style="fill:#471E02;" d="M53.796875,55.5009766c-1.5488281-1.1699219-6.8066406-7.0117188-8.328125-8.7138672
		c0.0009766-0.2070313-0.0136719-0.4013672-0.0566406-0.5625c5.9462891-0.3388672,7.9785156-6.4570313,6.4912109-7.8515625
		c2.5371094-1.5380859,3.3154297-4.9394531,2.0527344-7.5258789c1.4970703-2.7514648,0.2089844-6.5585938-1.6425781-7.6005859
		c-1.8496094-1.0415039-9.5771484-1.8422852-11.3525391-1.5249023c-0.7646484-0.6875-0.8691406-1.1513672-0.8691406-1.1513672
		S41.4541016,18.949707,42.9375,17.421875c3.3066406-3.4086914,5.8730469-4.7583008,6.7871094-7.5981445
		c1.2841797-3.9936523-2.3369141-8.5205078-5.2509766-6.137207c-2.1748047,3.0200195-7.8408203,7.1152344-10.5810547,9.909668
		c-3.2236328,3.2856445-4.9667969,6.390625-4.9667969,6.390625c-4.574707,1.6977539-7.3862305,8.652832-7.3862305,8.652832
		c-1.6342773-1.3710938-9.0488281-1.5493164-10.6987305-0.706543L7.1391602,45.7919922
		c1.9189453,2.1347656,14.3701172,2.5673828,17.2758789,0.9882813c2.0195313,1.65625,8.2763672,3.3134766,11.8974609,3.5292969
		c3.578125,2.4941406,13.3212891,9.2792969,14.2011719,9.8222656c1.0791016,0.6660156,4.4521484,1.4765625,5.8876953-0.1074219
		C57.8359375,58.4414063,55.6152344,56.8740234,53.796875,55.5009766z"/>
	<path style="fill:#281000;" d="M21.5844727,43.7265625c-1.5996094,0.9199219-4.2836914,1.3759766-6.8457031,1.5966797
		c-2.4296875-1.1318359-4.9765625-2.9648438-5.4921875-5.78125l-1.2329102,5.9462891
		c5.1533203,2.5429688,15.4106445,1.0449219,15.4106445,1.0449219L21.5844727,43.7265625z"/>
	<path style="fill:#281000;" d="M18.6230469,28.034668l3.0273438,0.3447266l0.8022461-1.6333008
		c0,0-1.7036133,9.7216797-1.609375,10.8662109c0.0957031,1.1455078-2.0131836-0.9648438-2.0029297-4.2207031
		C18.8520508,30.1362305,18.6230469,28.034668,18.6230469,28.034668z"/>
	<g>
		<path style="fill:#281000;" d="M43.7978516,31.9433594c-0.5458984-0.5649414-2.2714844-0.0195313-2.2714844-0.0195313
			c-5.1572266,5.7177734-1.3134766,5.9248047,0.3144531,6.1914063
			C43.4677734,38.3837891,44.3447266,32.5087891,43.7978516,31.9433594z"/>
		<path style="fill:#281000;" d="M43.53125,24.9619141c-0.03125-0.1987305-0.1240234-0.3647461-0.2509766-0.5014648
			l0.9033203-2.7231445l-3.7119141-0.5258789c0,0,1.4101563-2.668457,6.4238281-7.4902344
			c0,0-3.0214844-0.3105469-4.0878906,0.3540039c-1.0673828,0.6640625-1.5439453,5.1025391-4.1123047,4.6806641
			c-1.8369141-0.3017578-0.9208984,3.581543-0.25,5.8237305c-0.0693359,2.0688477-0.4433594,3.9047852-1.0039063,5.5253906
			c-2.359375,3.402832-6.8759766,10.3598633-12.4794922,9.0102539c1.1269531,1.3095703,3.7055664,1.4736328,5.855957,1.2734375
			c0.7504883,0.8007813,1.9033203,1.953125,2.8637695,2.5595703c1.1279297,0.7109375,2.0966797,0.8613281,3.0527344-0.0546875
			c0.3339844,0.1318359,0.6230469,0.1884766,0.765625,0.1210938c0.8876953-0.4267578,3.7949219-2.1113281,3.4824219-3.8476563
			c-0.0654297-0.3632813-0.1591797-0.6220703-0.2705078-0.8271484c1.4140625-2.28125,1.8935547-5.3808594,2.0039063-7.9345703
			C44.4921875,29.7954102,43.6630859,25.7573242,43.53125,24.9619141z"/>
	</g>
	<path style="fill:#110700;" d="M53.8271484,61.6416016L53.8271484,61.6416016
		c-1.4443359,0-2.9453125-0.4599609-3.6806641-0.9140625c-0.8701172-0.5361328-10.0029297-6.8945313-14.0742188-9.7324219
		c-3.6318359-0.2578125-9.3554688-1.7705078-11.7412109-3.4052734c-1.8686523,0.7529297-5.3295898,0.8398438-6.8120117,0.8398438
		c-3.3242188,0-9.3608398-0.4570313-10.9003906-2.1699219c-0.1489258-0.1650391-0.2099609-0.3916016-0.1650391-0.609375
		l3.7016602-17.859375c0.0429688-0.2075195,0.1782227-0.3847656,0.3671875-0.4814453
		c1.0371094-0.5292969,3.3647461-0.5869141,4.3173828-0.5869141c2.1152344,0,4.8251953,0.2509766,6.3735352,0.9243164
		c0.8647461-1.8520508,3.4135742-6.6508789,7.2304688-8.2231445c0.4628906-0.7773438,2.1513672-3.4663086,4.9487305-6.3178711
		c1.078125-1.0996094,2.5722656-2.3720703,4.1533203-3.7192383c2.4941406-2.125,5.0732422-4.3227539,6.359375-6.109375
		c0.0361328-0.0493164,0.078125-0.0942383,0.125-0.1328125c1.6787109-1.3754883,3.9794922-0.8989258,5.4091797,1.0644531
		c1.2099609,1.6591797,1.5742188,3.8930664,0.9511719,5.8291016c-0.6796875,2.1123047-2.1767578,3.4536133-4.0712891,5.1513672
		c-0.8623047,0.7724609-1.8398438,1.6479492-2.8789063,2.7197266c-1.0390625,1.0703125-2.0283203,2.1987305-2.5097656,2.7563477
		c0.0644531,0.0874023,0.1533203,0.1958008,0.2734375,0.3198242c0.2539063-0.0229492,0.5605469-0.0341797,0.9257813-0.0341797
		c2.5869141,0,8.7001953,0.6567383,10.5273438,1.6855469c2.1376953,1.203125,3.4648438,5.2265625,2.0742188,8.2255859
		c1.140625,2.7050781,0.3261719,5.9550781-1.8769531,7.7001953c0.3310547,0.7988281,0.2871094,1.9208984-0.1513672,3.1308594
		c-0.7910156,2.1777344-2.8349609,4.5605469-6.2685547,5.1230469c3.1044922,3.4589844,6.6552734,7.2724609,7.7841797,8.1259766
		l0.2070313,0.1552734c1.4707031,1.1074219,2.9912109,2.2529297,3.1259766,3.6708984
		c0.0585938,0.6181641-0.1542969,1.1992188-0.6318359,1.7255859C56.2402344,61.2451172,55.1699219,61.6416016,53.8271484,61.6416016
		z M24.4150391,46.0800781c0.1586914,0,0.315918,0.0537109,0.4438477,0.1591797
		c1.8696289,1.5332031,7.9853516,3.1621094,11.4956055,3.3710938c0.1279297,0.0078125,0.2529297,0.0507813,0.3583984,0.125
		c3.1025391,2.1630859,13.2939453,9.2607422,14.1679688,9.8007813c0.4746094,0.2929688,1.7021484,0.7050781,2.9462891,0.7050781l0,0
		c0.6533203,0,1.5410156-0.1191406,2.0556641-0.6865234c0.2734375-0.3017578,0.2880859-0.5175781,0.2753906-0.6533203
		c-0.0771484-0.8037109-1.4619141-1.8466797-2.5751953-2.6845703L53.375,56.0595703
		c-1.546875-1.1689453-6.4091797-6.5478516-8.4277344-8.8056641c-0.1162109-0.1298828-0.1796875-0.296875-0.1787109-0.4697266
		c0.0009766-0.2080078-0.0175781-0.3203125-0.0332031-0.3789063c-0.0537109-0.2041016-0.0136719-0.4208984,0.109375-0.5908203
		c0.1240234-0.1708984,0.3173828-0.2763672,0.5273438-0.2890625c3.3505859-0.1904297,5.3037109-2.3515625,6.0146484-4.3095703
		c0.4160156-1.1474609,0.3300781-2.0576172,0.0380859-2.3320313c-0.1601563-0.1494141-0.2402344-0.3662109-0.2177734-0.5830078
		c0.0224609-0.2177734,0.1464844-0.4130859,0.3330078-0.5263672c2.1357422-1.2949219,2.9375-4.2646484,1.7871094-6.6201172
		c-0.0996094-0.2036133-0.0947266-0.4428711,0.0136719-0.6416016c1.3300781-2.4433594,0.1035156-5.8261719-1.3710938-6.65625
		c-1.3261719-0.746582-6.8427734-1.5048828-9.8398438-1.5048828c-0.5898438,0-0.8945313,0.0322266-1.0458984,0.059082
		c-0.2128906,0.0371094-0.4306641-0.0234375-0.5908203-0.168457c-0.8632813-0.7763672-1.0478516-1.3583984-1.0839844-1.5180664
		c-0.0478516-0.2133789,0.0058594-0.4370117,0.1464844-0.6040039c0.0136719-0.0166016,1.3955078-1.6577148,2.8798828-3.1860352
		c1.0732422-1.1069336,2.0703125-1.9995117,2.9492188-2.7875977c1.8056641-1.6171875,3.109375-2.7856445,3.6738281-4.5371094
		c0.5830078-1.8144531-0.0048828-3.5537109-0.75-4.5761719c-0.9492188-1.2993164-2.2480469-1.6865234-3.3251953-0.8579102
		c-1.4003906,1.9067383-4.0078125,4.1279297-6.5292969,6.2773438c-1.5566406,1.3256836-3.0273438,2.5786133-4.0615234,3.6337891
		c-3.1137695,3.1733398-4.8393555,6.2128906-4.8564453,6.2431641c-0.081543,0.1445313-0.2114258,0.2558594-0.3666992,0.3134766
		c-4.2280273,1.5688477-6.9541016,8.1923828-6.980957,8.2592773c-0.0839844,0.2075195-0.2626953,0.3623047-0.4799805,0.4165039
		c-0.2177734,0.0527344-0.4482422,0.0009766-0.6186523-0.1430664c-0.7158203-0.6000977-3.402832-1.0527344-6.25-1.0527344
		c-1.6245117,0-2.7973633,0.1499023-3.390625,0.324707L7.9077148,45.5332031
		c1.2568359,0.8544922,5.2890625,1.4960938,9.6113281,1.4960938c3.0664063,0,5.5805664-0.3310547,6.5615234-0.8642578
		C24.1855469,46.1083984,24.3007813,46.0800781,24.4150391,46.0800781z"/>
	<path style="fill:#110700;" d="M33.7753906,41.171875c-0.2041016,0-0.4072266-0.0898438-0.5458984-0.2607422
		c-0.2421875-0.3017578-0.1943359-0.7421875,0.1064453-0.984375c10.6289063-8.5585938,5.0722656-18.8530273,4.8300781-19.2871094
		c-0.1875-0.3374023-0.0673828-0.7636719,0.2705078-0.9521484c0.3339844-0.1870117,0.7617188-0.0693359,0.9511719,0.2685547
		c0.0654297,0.1162109,6.3935547,11.7470703-5.1738281,21.0605469C34.0849609,41.1210938,33.9296875,41.171875,33.7753906,41.171875
		z"/>
	<path style="fill:#110700;" d="M25.3520508,48.0957031c-0.0981445,0-0.1977539-0.0205078-0.2929688-0.0644531
		c-1.8710938-0.8632813-3.5234375-4.0009766-3.7055664-4.3564453c-0.1767578-0.34375-0.0410156-0.7646484,0.3027344-0.9414063
		c0.3417969-0.1767578,0.765625-0.0419922,0.9423828,0.3017578c0.4350586,0.8457031,1.8305664,3.1630859,3.0473633,3.7246094
		c0.3510742,0.1621094,0.5039063,0.578125,0.3422852,0.9287109C25.8701172,47.9443359,25.6166992,48.0957031,25.3520508,48.0957031z
		"/>
	<path style="fill:#110700;" d="M20.6606445,31.7954102c-0.078125,0-0.1577148-0.0131836-0.2358398-0.0410156
		c-0.3642578-0.1303711-0.5537109-0.53125-0.4233398-0.8950195l0.8789063-2.4555664
		c0.1303711-0.3637695,0.5288086-0.5532227,0.8950195-0.4233398c0.3642578,0.1303711,0.5537109,0.53125,0.4233398,0.8950195
		l-0.8789063,2.4555664C21.2172852,31.6171875,20.9477539,31.7954102,20.6606445,31.7954102z"/>
	<path style="fill:#110700;" d="M46.6416016,31.6992188c-2.5263672,0-4.5185547-0.0742188-4.9414063-0.2905273
		c-1.8525391-0.9477539-1.8291016-6.1875-1.6552734-7.440918c0.0595703-0.4301758,0.2910156-0.793457,0.6689453-1.0507813
		c1.4384766-0.9790039,5.0498047-0.1738281,5.7597656-0.003418c0.3759766,0.0908203,0.6074219,0.4692383,0.5166016,0.8447266
		c-0.0917969,0.375-0.4697266,0.6069336-0.8447266,0.5166016c-1.4716797-0.3549805-3.9648438-0.6635742-4.6435547-0.2011719
		c-0.0644531,0.0439453-0.0673828,0.0664063-0.0703125,0.0864258c-0.2939453,2.1269531,0.2392578,5.6611328,0.90625,6.0024414
		c0.6210938,0.1845703,6.1435547,0.1616211,11.0976563,0.0224609c0.0068359,0,0.0136719-0.0004883,0.0195313-0.0004883
		c0.3779297,0,0.6894531,0.3007813,0.7001953,0.6806641c0.0107422,0.3862305-0.2939453,0.7084961-0.6806641,0.7192383
		C51.2265625,31.6474609,48.7490234,31.6992188,46.6416016,31.6992188z"/>
	<path style="fill:#110700;" d="M44.7402344,39.5722656c-2.3994141,0-4.7802734-0.2695313-6.0068359-1.1757813
		c-0.5410156-0.4003906-0.859375-0.9033203-0.9443359-1.4951172c-0.0097656-0.0625-0.0097656-0.1259766-0.0019531-0.1884766
		c0.1601563-1.2646484,1.3251953-6.0205078,4.0996094-6.1811523c2.0351563-0.1191406,9.3427734-0.2832031,9.6533203-0.2900391
		c0.3759766,0.0107422,0.7070313,0.2983398,0.7158203,0.684082c0.0078125,0.3867188-0.2978516,0.7070313-0.6845703,0.715332
		c-0.0761719,0.0019531-7.5927734,0.1704102-9.6025391,0.2880859c-1.3808594,0.0800781-2.5351563,3.1821289-2.7783203,4.8520508
		c0.0341797,0.1308594,0.1220703,0.3017578,0.3759766,0.4892578c2.0205078,1.4941406,9.3125,0.7607422,11.9501953,0.3525391
		c0.375-0.0605469,0.7392578,0.2021484,0.7988281,0.5839844s-0.2021484,0.7402344-0.5839844,0.7988281
		C51.1435547,39.0976563,47.9257813,39.5722656,44.7402344,39.5722656z"/>
	<path style="fill:#110700;" d="M45.0400391,47.0058594c-0.0742188,0-0.1494141-0.0117188-0.2226563-0.0371094
		c-3.0585938-1.0273438-10.2587891-3.5742188-11.0683594-5.0205078c-0.2080078-0.3720703-0.3535156-0.9921875,0.140625-1.8349609
		c0.8730469-1.4912109,3.5224609-3.1308594,5.0605469-3.1318359l0,0c0.3867188,0,0.7001953,0.3134766,0.7001953,0.7001953
		c0,0.3857422-0.3134766,0.7001953-0.7001953,0.7001953c-0.9570313,0-3.1904297,1.3085938-3.8525391,2.4394531
		c-0.1171875,0.1982422-0.1660156,0.3720703-0.1269531,0.4433594c0.5068359,0.734375,5.7382813,2.8466797,10.2919922,4.3779297
		c0.3671875,0.1230469,0.5644531,0.5195313,0.4404297,0.8857422C45.6054688,46.8212891,45.3320313,47.0058594,45.0400391,47.0058594
		z"/>
</g>
</svg>
