<?xml version="1.0" encoding="utf-8"?>
<!-- Generator: Adobe Illustrator 15.0.2, SVG Export Plug-In . SVG Version: 6.00 Build 0)  -->
<!DOCTYPE svg PUBLIC "-//W3C//DTD SVG 1.1//EN" "http://www.w3.org/Graphics/SVG/1.1/DTD/svg11.dtd">
<svg version="1.1" id="レイヤー_1" xmlns="http://www.w3.org/2000/svg" xmlns:xlink="http://www.w3.org/1999/xlink" x="0px"
	 y="0px" width="64px" height="64px" viewBox="0 0 64 64" enable-background="new 0 0 64 64" xml:space="preserve">
<g>
	<g>
		<g>
			<linearGradient id="SVGID_1_" gradientUnits="userSpaceOnUse" x1="10.8379" y1="13.8223" x2="56.0677" y2="13.8223">
				<stop  offset="0" style="stop-color:#000000"/>
				<stop  offset="0.6281" style="stop-color:#030E33"/>
				<stop  offset="1" style="stop-color:#04154D"/>
			</linearGradient>
			<path fill="url(#SVGID_1_)" stroke="#050508" stroke-width="0.8791" stroke-miterlimit="1" d="M8.212,17.685v-9.67
				c0,0,4.066-1.209,9.451-1.209c8.087,0,18.139,2.244,23.078,1.649c9.121-1.1,22.308,0.989,22.308,0.989s-3.23,3.283-5.714,4.38
				c-3.517,1.554-0.34,2.739,0.829,3.755c0.504,0.44,0.819,3.733-2.697,2.305s-7.143-3.407-12.088-2.417
				c-4.945,0.989-11.649,4.176-19.451,3.187C16.124,19.663,12.498,17.905,8.212,17.685z"/>
			<path fill="#FFFFFF" d="M59.14,8.925l3.908,0.518c0,0-4.962,4.623-6.938,5.114c0,0-1.435,1.435,1.262,2.446
				c0,0,3.931,3.649-1.906,2.88l-2.448-1.025c0,0,0.973-2.045,0-3.257c-0.97-1.212,2.217-3.498,3.096-3.784
				C56.992,11.531,59.14,8.925,59.14,8.925z"/>
			<path fill="#FFFFFF" stroke="#101110" stroke-width="0.9986" stroke-miterlimit="1" d="M47.615,10.128l10.35,0.309
				c0,0-7.84,1.641-12.897,2.457C40.009,13.71,47.615,10.128,47.615,10.128z"/>
			<polygon fill="#FFFFFF" stroke="#101110" stroke-width="0.9113" stroke-miterlimit="1" points="47.168,16.009 55.807,17.547 
				49.205,14.135 			"/>
			<g>
				<g>
					<circle fill="none" stroke="#FFFFFF" stroke-width="1.6407" stroke-miterlimit="1" cx="19.442" cy="11.102" r="3.069"/>
					<circle fill="#FFFFFF" cx="19.442" cy="11.102" r="3.069"/>
					<circle fill="none" stroke="#050508" stroke-width="0.6461" stroke-miterlimit="1" cx="19.442" cy="11.102" r="3.069"/>
				</g>
				<circle fill="#050508" cx="18.554" cy="11.102" r="2.177"/>
				<circle fill="#FFFFFF" cx="17.645" cy="11.102" r="0.909"/>
			</g>
			<path fill="#FFFFFF" stroke="#101110" stroke-width="0.9113" stroke-miterlimit="1" d="M49.693,12.285l6.483,0.782
				c0,0-4.563,2-7.062,1.065C46.618,13.197,49.693,12.285,49.693,12.285z"/>
			<g>
				<path fill="#FFFFFF" stroke="#101110" stroke-width="0.9113" stroke-miterlimit="1" d="M46.192,10.426
					c3.399,0,6.157,1.472,6.157,3.289c0,1.816-2.758,3.288-6.157,3.288"/>
				<path fill="#FFFFFF" stroke="#101110" stroke-width="0.6275" stroke-miterlimit="1" d="M46.192,11.45
					c2.342,0,4.239,1.015,4.239,2.265c0,1.25-1.897,2.265-4.239,2.265"/>
				<path fill="#101110" d="M46.29,12.255c1.512,0,2.735,0.653,2.735,1.46c0,0.807-1.224,1.459-2.735,1.459"/>
			</g>
			<g>
				<path fill="#FFFFFF" stroke="#101110" stroke-width="0.8302" stroke-miterlimit="1" d="M44.232,8.167
					c2.88,0,5.217,1.442,5.217,3.221s-2.337,3.22-5.217,3.22"/>
				<path fill="#FFFFFF" stroke="#101110" stroke-width="0.5716" stroke-miterlimit="1" d="M44.232,9.168
					c1.983,0,3.591,0.995,3.591,2.219c0,1.224-1.607,2.217-3.591,2.217"/>
				<path fill="#101110" d="M44.315,9.959c1.281,0,2.315,0.638,2.315,1.429c0,0.791-1.034,1.43-2.315,1.43"/>
			</g>
			<g>
				<path fill="#FFFFFF" stroke="#101110" stroke-width="0.6316" stroke-miterlimit="1" d="M46.213,10.882
					c1.816,0,3.288,1.324,3.288,2.958c0,1.633-1.472,2.957-3.288,2.957"/>
				<path fill="#FFFFFF" stroke="#101110" stroke-width="0.4349" stroke-miterlimit="1" d="M46.213,11.803
					c1.252,0,2.265,0.912,2.265,2.038c0,1.123-1.013,2.037-2.265,2.037"/>
				<path fill="#101110" d="M46.266,12.528c0.808,0,1.46,0.587,1.46,1.313c0,0.725-0.652,1.314-1.46,1.314"/>
			</g>
			<g>
				<path fill="#FFFFFF" stroke="#101110" stroke-width="0.8025" stroke-miterlimit="1" d="M42.371,8.161
					c2.636,0,4.773,1.471,4.773,3.288c0,1.816-2.138,3.29-4.773,3.29"/>
				<path fill="#FFFFFF" stroke="#101110" stroke-width="0.5525" stroke-miterlimit="1" d="M42.371,9.184
					c1.817,0,3.287,1.015,3.287,2.265s-1.47,2.266-3.287,2.266"/>
				<path fill="#101110" d="M42.447,9.989c1.17,0,2.12,0.653,2.12,1.46s-0.95,1.461-2.12,1.461"/>
			</g>
			<g>
				<path fill="#FFFFFF" stroke="#101110" stroke-width="0.7465" stroke-miterlimit="1" d="M42.461,11.276
					c2.538,0,4.595,1.323,4.595,2.957c0,1.634-2.057,2.958-4.595,2.958"/>
				<path fill="#FFFFFF" stroke="#101110" stroke-width="0.514" stroke-miterlimit="1" d="M42.461,12.196
					c1.748,0,3.163,0.913,3.163,2.037c0,1.125-1.415,2.038-3.163,2.038"/>
				<path fill="#101110" d="M42.535,12.921c1.128,0,2.039,0.586,2.039,1.312c0,0.726-0.911,1.313-2.039,1.313"/>
			</g>
			<g>
				<path fill="#FFFFFF" stroke="#101110" stroke-width="0.7625" stroke-miterlimit="1" d="M40.049,8.566
					c2.535,0,4.592,1.381,4.592,3.086c0,1.705-2.057,3.087-4.592,3.087"/>
				<path fill="#FFFFFF" stroke="#101110" stroke-width="0.525" stroke-miterlimit="1" d="M40.049,9.526
					c1.745,0,3.162,0.953,3.162,2.126c0,1.172-1.417,2.127-3.162,2.127"/>
				<path fill="#101110" d="M40.121,10.282c1.128,0,2.039,0.612,2.039,1.37c0,0.757-0.911,1.37-2.039,1.37"/>
			</g>
			<g>
				<path fill="#FFFFFF" stroke="#101110" stroke-width="0.666" stroke-miterlimit="1" d="M40.08,11.56
					c1.815,0,3.29,1.471,3.29,3.287s-1.475,3.288-3.29,3.288"/>
				<path fill="#FFFFFF" stroke="#101110" stroke-width="0.4585" stroke-miterlimit="1" d="M40.08,12.582
					c1.251,0,2.265,1.015,2.265,2.265s-1.014,2.265-2.265,2.265"/>
				<path fill="#101110" d="M40.132,13.388c0.809,0,1.462,0.652,1.462,1.459s-0.653,1.461-1.462,1.461"/>
			</g>
			<g>
				<path fill="#FFFFFF" stroke="#101110" stroke-width="0.666" stroke-miterlimit="1" d="M37.919,8.722
					c1.815,0,3.288,1.472,3.288,3.288c0,1.817-1.473,3.289-3.288,3.289"/>
				<path fill="#FFFFFF" stroke="#101110" stroke-width="0.4585" stroke-miterlimit="1" d="M37.919,9.746
					c1.25,0,2.264,1.015,2.264,2.264c0,1.25-1.014,2.265-2.264,2.265"/>
				<path fill="#101110" d="M37.971,10.551c0.808,0,1.461,0.652,1.461,1.459s-0.653,1.461-1.461,1.461"/>
			</g>
			<g>
				<path fill="#FFFFFF" stroke="#101110" stroke-width="0.666" stroke-miterlimit="1" d="M37.014,12.364
					c1.817,0,3.288,1.472,3.288,3.288c0,1.817-1.471,3.288-3.288,3.288"/>
				<path fill="#FFFFFF" stroke="#101110" stroke-width="0.4585" stroke-miterlimit="1" d="M37.014,13.387
					c1.252,0,2.266,1.016,2.266,2.265c0,1.25-1.014,2.265-2.266,2.265"/>
				<path fill="#101110" d="M37.067,14.193c0.809,0,1.46,0.652,1.46,1.459c0,0.808-0.651,1.461-1.46,1.461"/>
			</g>
			<g>
				<path fill="#FFFFFF" stroke="#101110" stroke-width="0.666" stroke-miterlimit="1" d="M35.171,8.271
					c1.815,0,3.289,1.471,3.289,3.289c0,1.816-1.474,3.287-3.289,3.287"/>
				<path fill="#FFFFFF" stroke="#101110" stroke-width="0.4585" stroke-miterlimit="1" d="M35.171,9.294
					c1.251,0,2.264,1.015,2.264,2.266c0,1.25-1.013,2.264-2.264,2.264"/>
				<path fill="#101110" d="M35.225,10.1c0.808,0,1.46,0.652,1.46,1.46c0,0.807-0.652,1.46-1.46,1.46"/>
			</g>
			<g>
				<path fill="#FFFFFF" stroke="#101110" stroke-width="0.649" stroke-miterlimit="1" d="M33.948,13.583
					c1.816,0,3.289,1.399,3.289,3.123c0,1.726-1.473,3.124-3.289,3.124"/>
				<path fill="#FFFFFF" stroke="#101110" stroke-width="0.4469" stroke-miterlimit="1" d="M33.948,14.557
					c1.253,0,2.265,0.963,2.265,2.149c0,1.188-1.012,2.152-2.265,2.152"/>
				<path fill="#101110" d="M34.001,15.321c0.808,0,1.461,0.62,1.461,1.385c0,0.768-0.653,1.389-1.461,1.389"/>
			</g>
			<g>
				<path fill="#FFFFFF" stroke="#101110" stroke-width="0.7913" stroke-miterlimit="1" d="M32.424,8.271
					c2.564,0,4.643,1.471,4.643,3.289c0,1.816-2.079,3.287-4.643,3.287"/>
				<path fill="#FFFFFF" stroke="#101110" stroke-width="0.5449" stroke-miterlimit="1" d="M32.424,9.294
					c1.766,0,3.197,1.015,3.197,2.266c0,1.25-1.431,2.264-3.197,2.264"/>
				<path fill="#101110" d="M32.498,10.1c1.141,0,2.063,0.652,2.063,1.46c0,0.807-0.922,1.46-2.063,1.46"/>
			</g>
			<g>
				<path fill="#FFFFFF" stroke="#101110" stroke-width="0.8769" stroke-miterlimit="1" d="M29.15,13.823
					c3.148,0,5.7,1.471,5.7,3.288s-2.551,3.289-5.7,3.289"/>
				<path fill="#FFFFFF" stroke="#101110" stroke-width="0.6038" stroke-miterlimit="1" d="M29.15,14.847
					c2.169,0,3.924,1.015,3.924,2.265s-1.755,2.265-3.924,2.265"/>
				<path fill="#101110" d="M29.241,15.652c1.399,0,2.532,0.653,2.532,1.459c0,0.807-1.133,1.461-2.532,1.461"/>
			</g>
			<g>
				<path fill="#FFFFFF" stroke="#101110" stroke-width="0.8965" stroke-miterlimit="1" d="M28.11,8.033
					c3.29,0,5.959,1.471,5.959,3.288c0,1.816-2.669,3.287-5.959,3.287"/>
				<path fill="#FFFFFF" stroke="#101110" stroke-width="0.6173" stroke-miterlimit="1" d="M28.11,9.056
					c2.267,0,4.102,1.015,4.102,2.265s-1.835,2.263-4.102,2.263"/>
				<path fill="#101110" d="M28.205,9.861c1.463,0,2.646,0.653,2.646,1.46s-1.183,1.461-2.646,1.461"/>
			</g>
			<g>
				<path fill="#FFFFFF" stroke="#101110" stroke-width="0.776" stroke-miterlimit="1" d="M27.848,14.608
					c2.542,0,4.605,1.427,4.605,3.187c0,1.762-2.063,3.188-4.605,3.188"/>
				<path fill="#FFFFFF" stroke="#101110" stroke-width="0.5343" stroke-miterlimit="1" d="M27.848,15.601
					c1.751,0,3.17,0.984,3.17,2.194c0,1.212-1.419,2.196-3.17,2.196"/>
				<path fill="#101110" d="M27.922,16.38c1.13,0,2.045,0.633,2.045,1.415c0,0.783-0.915,1.417-2.045,1.417"/>
			</g>
			<g>
				<path fill="#FFFFFF" stroke="#101110" stroke-width="0.666" stroke-miterlimit="1" d="M26.93,7.725
					c1.815,0,3.288,1.472,3.288,3.288c0,1.817-1.472,3.288-3.288,3.288"/>
				<path fill="#FFFFFF" stroke="#101110" stroke-width="0.4585" stroke-miterlimit="1" d="M26.93,8.748
					c1.25,0,2.264,1.015,2.264,2.265c0,1.25-1.013,2.265-2.264,2.265"/>
				<path fill="#101110" d="M26.982,9.554c0.807,0,1.46,0.652,1.46,1.459c0,0.808-0.653,1.462-1.46,1.462"/>
			</g>
			<g>
				<path fill="#FFFFFF" stroke="#101110" stroke-width="0.666" stroke-miterlimit="1" d="M26.93,11.449
					c1.815,0,3.288,1.472,3.288,3.288c0,1.816-1.472,3.288-3.288,3.288"/>
				<path fill="#FFFFFF" stroke="#101110" stroke-width="0.4585" stroke-miterlimit="1" d="M26.93,12.473
					c1.25,0,2.264,1.015,2.264,2.264c0,1.25-1.013,2.265-2.264,2.265"/>
				<path fill="#101110" d="M26.982,13.278c0.807,0,1.46,0.652,1.46,1.459c0,0.807-0.653,1.461-1.46,1.461"/>
			</g>
			<path fill="#FFFFFF" stroke="#101110" stroke-width="0.4396" stroke-miterlimit="10" d="M8.212,8.068v9.308
				c0,0,7.009,0.813,10.984,2.205c0,0-4.205-2.939-5.491-5.585c-1.287-2.648-1.603-6.408-1.603-6.408L8.212,8.068z"/>
			<path fill="#FFFFFF" stroke="#101110" stroke-width="0.8791" stroke-miterlimit="10" d="M23.145,7.474
				c0,0,6.936-0.669,3.706,3.892c0,0,3.367,4.286-0.73,6.968c0,0,4.71,0.254,3.34,2.385l-6.95-0.56
				C22.511,20.159,27.101,15.175,23.145,7.474z"/>
			<path fill="none" stroke="#050508" stroke-width="0.8791" stroke-miterlimit="1" d="M8.212,17.685v-9.67
				c0,0,4.066-1.209,9.451-1.209c8.087,0,18.139,2.244,23.078,1.649c9.121-1.1,22.308,0.989,22.308,0.989s-3.23,3.283-5.714,4.38
				c-3.517,1.554-0.34,2.739,0.829,3.755c0.504,0.44,0.819,3.733-2.697,2.305s-7.143-3.407-12.088-2.417
				c-4.945,0.989-11.649,4.176-19.451,3.187C16.124,19.663,12.498,17.905,8.212,17.685z"/>
		</g>
		<linearGradient id="SVGID_2_" gradientUnits="userSpaceOnUse" x1="7.0786" y1="12.9077" x2="12.3398" y2="12.9077">
			<stop  offset="0" style="stop-color:#FFFFFF"/>
			<stop  offset="0.2082" style="stop-color:#C5E1FF"/>
			<stop  offset="0.6004" style="stop-color:#5CAAFF"/>
			<stop  offset="0.8727" style="stop-color:#1A87FF"/>
			<stop  offset="1" style="stop-color:#007AFF"/>
		</linearGradient>
		
			<ellipse fill="url(#SVGID_2_)" stroke="#030D38" stroke-width="1.0305" stroke-miterlimit="1" cx="7.895" cy="12.908" rx="1.812" ry="4.777"/>
	</g>
	<g>
		<g>
			<linearGradient id="SVGID_3_" gradientUnits="userSpaceOnUse" x1="10.1973" y1="32.0747" x2="52.1282" y2="32.0747">
				<stop  offset="0" style="stop-color:#FF1D68"/>
				<stop  offset="0.6366" style="stop-color:#FF528F"/>
				<stop  offset="1" style="stop-color:#FF6CA1"/>
			</linearGradient>
			<path fill="url(#SVGID_3_)" stroke="#BA0D37" stroke-width="0.815" stroke-miterlimit="1" d="M7.763,35.654V26.69
				c0,0,3.769-1.121,8.761-1.121c7.498,0,16.816,2.08,21.394,1.528c8.456-1.02,20.682,0.917,20.682,0.917s-2.997,3.043-5.298,4.061
				c-3.26,1.44-0.315,2.539,0.77,3.481c0.466,0.409,0.759,3.462-2.501,2.138c-3.26-1.325-6.622-3.159-11.206-2.241
				c-4.585,0.916-10.8,3.87-18.034,2.953C15.098,37.488,11.736,35.859,7.763,35.654z"/>
			<path fill="#FFFFFF" d="M54.977,27.535l3.623,0.479c0,0-4.602,4.284-6.433,4.74c0,0-1.329,1.331,1.17,2.269
				c0,0,3.644,3.382-1.767,2.67l-2.27-0.95c0,0,0.9-1.896,0-3.021c-0.9-1.123,2.055-3.241,2.869-3.507
				C52.985,29.95,54.977,27.535,54.977,27.535z"/>
			<path fill="#FFFFFF" stroke="#B5094F" stroke-width="0.9258" stroke-miterlimit="1" d="M44.292,28.649l9.595,0.288
				c0,0-7.268,1.521-11.957,2.277C37.24,31.97,44.292,28.649,44.292,28.649z"/>
			<polygon fill="#FFFFFF" stroke="#B5094F" stroke-width="0.8448" stroke-miterlimit="1" points="43.878,34.102 51.886,35.527 
				45.767,32.364 			"/>
			<g>
				<g>
					<circle fill="none" stroke="#FFFFFF" stroke-width="1.5211" stroke-miterlimit="1" cx="18.174" cy="29.552" r="2.845"/>
					<circle fill="#FFFFFF" cx="18.174" cy="29.552" r="2.845"/>
					<circle fill="none" stroke="#BA0D37" stroke-width="0.599" stroke-miterlimit="1" cx="18.174" cy="29.552" r="2.845"/>
				</g>
				<circle fill="#BA0D37" cx="17.35" cy="29.552" r="2.018"/>
				<circle fill="#FFFFFF" cx="16.508" cy="29.552" r="0.843"/>
			</g>
			<path fill="#FFFFFF" stroke="#B5094F" stroke-width="0.8448" stroke-miterlimit="1" d="M46.22,30.649l6.01,0.726
				c0,0-4.231,1.852-6.547,0.986C43.367,31.495,46.22,30.649,46.22,30.649z"/>
			<g>
				<path fill="#FFFFFF" stroke="#B5094F" stroke-width="0.8448" stroke-miterlimit="1" d="M42.972,28.927
					c3.152,0,5.709,1.364,5.709,3.048c0,1.684-2.557,3.048-5.709,3.048"/>
				<path fill="#FFFFFF" stroke="#B5094F" stroke-width="0.5817" stroke-miterlimit="1" d="M42.972,29.875
					c2.173,0,3.932,0.94,3.932,2.1c0,1.158-1.759,2.099-3.932,2.099"/>
				<path fill="#B5094F" d="M43.063,30.622c1.4,0,2.535,0.605,2.535,1.354c0,0.748-1.135,1.353-2.535,1.353"/>
			</g>
			<g>
				<path fill="#FFFFFF" stroke="#B5094F" stroke-width="0.7696" stroke-miterlimit="1" d="M41.156,26.832
					c2.67,0,4.837,1.336,4.837,2.985c0,1.65-2.167,2.986-4.837,2.986"/>
				<path fill="#FFFFFF" stroke="#B5094F" stroke-width="0.5299" stroke-miterlimit="1" d="M41.156,27.761
					c1.839,0,3.329,0.921,3.329,2.056s-1.49,2.057-3.329,2.057"/>
				<path fill="#B5094F" d="M41.233,28.493c1.187,0,2.146,0.592,2.146,1.324c0,0.734-0.96,1.326-2.146,1.326"/>
			</g>
			<g>
				<path fill="#FFFFFF" stroke="#B5094F" stroke-width="0.5855" stroke-miterlimit="1" d="M42.992,29.349
					c1.684,0,3.048,1.228,3.048,2.741c0,1.515-1.364,2.742-3.048,2.742"/>
				<path fill="#FFFFFF" stroke="#B5094F" stroke-width="0.4031" stroke-miterlimit="1" d="M42.992,30.202
					c1.161,0,2.099,0.847,2.099,1.889c0,1.042-0.938,1.888-2.099,1.888"/>
				<path fill="#B5094F" d="M43.04,30.874c0.75,0,1.354,0.545,1.354,1.217s-0.604,1.218-1.354,1.218"/>
			</g>
			<g>
				<path fill="#FFFFFF" stroke="#B5094F" stroke-width="0.7439" stroke-miterlimit="1" d="M39.431,26.826
					c2.444,0,4.426,1.364,4.426,3.048c0,1.685-1.981,3.049-4.426,3.049"/>
				<path fill="#FFFFFF" stroke="#B5094F" stroke-width="0.5122" stroke-miterlimit="1" d="M39.431,27.775
					c1.685,0,3.048,0.94,3.048,2.099c0,1.159-1.363,2.101-3.048,2.101"/>
				<path fill="#B5094F" d="M39.501,28.521c1.086,0,1.966,0.604,1.966,1.353c0,0.749-0.88,1.354-1.966,1.354"/>
			</g>
			<g>
				<path fill="#FFFFFF" stroke="#B5094F" stroke-width="0.692" stroke-miterlimit="1" d="M39.514,29.714
					c2.353,0,4.259,1.227,4.259,2.741c0,1.515-1.906,2.742-4.259,2.742"/>
				<path fill="#FFFFFF" stroke="#B5094F" stroke-width="0.4765" stroke-miterlimit="1" d="M39.514,30.566
					c1.621,0,2.933,0.846,2.933,1.888c0,1.042-1.312,1.889-2.933,1.889"/>
				<path fill="#B5094F" d="M39.583,31.238c1.046,0,1.89,0.543,1.89,1.216c0,0.672-0.844,1.218-1.89,1.218"/>
			</g>
			<g>
				<path fill="#FFFFFF" stroke="#B5094F" stroke-width="0.7069" stroke-miterlimit="1" d="M37.277,27.202
					c2.351,0,4.258,1.279,4.258,2.86c0,1.581-1.907,2.861-4.258,2.861"/>
				<path fill="#FFFFFF" stroke="#B5094F" stroke-width="0.4867" stroke-miterlimit="1" d="M37.277,28.091
					c1.619,0,2.932,0.884,2.932,1.971s-1.313,1.971-2.932,1.971"/>
				<path fill="#B5094F" d="M37.344,28.793c1.046,0,1.892,0.567,1.892,1.27c0,0.702-0.846,1.269-1.892,1.269"/>
			</g>
			<g>
				<path fill="#FFFFFF" stroke="#B5094F" stroke-width="0.6174" stroke-miterlimit="1" d="M37.308,29.976
					c1.683,0,3.048,1.364,3.048,3.047c0,1.685-1.365,3.05-3.048,3.05"/>
				<path fill="#FFFFFF" stroke="#B5094F" stroke-width="0.4251" stroke-miterlimit="1" d="M37.308,30.925
					c1.159,0,2.098,0.94,2.098,2.098c0,1.159-0.938,2.101-2.098,2.101"/>
				<path fill="#B5094F" d="M37.355,31.672c0.748,0,1.354,0.604,1.354,1.352s-0.606,1.355-1.354,1.355"/>
			</g>
			<g>
				<path fill="#FFFFFF" stroke="#B5094F" stroke-width="0.6174" stroke-miterlimit="1" d="M35.304,27.347
					c1.683,0,3.048,1.364,3.048,3.047c0,1.685-1.365,3.047-3.048,3.047"/>
				<path fill="#FFFFFF" stroke="#B5094F" stroke-width="0.4251" stroke-miterlimit="1" d="M35.304,28.295
					c1.158,0,2.099,0.94,2.099,2.099c0,1.159-0.94,2.099-2.099,2.099"/>
				<path fill="#B5094F" d="M35.351,29.042c0.748,0,1.355,0.604,1.355,1.353s-0.607,1.354-1.355,1.354"/>
			</g>
			<g>
				<path fill="#FFFFFF" stroke="#B5094F" stroke-width="0.6174" stroke-miterlimit="1" d="M34.466,30.722
					c1.683,0,3.047,1.363,3.047,3.048c0,1.685-1.364,3.048-3.047,3.048"/>
				<path fill="#FFFFFF" stroke="#B5094F" stroke-width="0.4251" stroke-miterlimit="1" d="M34.466,31.671
					c1.159,0,2.098,0.941,2.098,2.1s-0.938,2.099-2.098,2.099"/>
				<path fill="#B5094F" d="M34.514,32.417c0.749,0,1.354,0.604,1.354,1.353c0,0.748-0.604,1.354-1.354,1.354"/>
			</g>
			<g>
				<path fill="#FFFFFF" stroke="#B5094F" stroke-width="0.6174" stroke-miterlimit="1" d="M32.755,26.928
					c1.684,0,3.049,1.365,3.049,3.048c0,1.685-1.365,3.047-3.049,3.047"/>
				<path fill="#FFFFFF" stroke="#B5094F" stroke-width="0.4251" stroke-miterlimit="1" d="M32.755,27.876
					c1.16,0,2.098,0.94,2.098,2.1s-0.938,2.099-2.098,2.099"/>
				<path fill="#B5094F" d="M32.806,28.623c0.747,0,1.354,0.605,1.354,1.353s-0.606,1.355-1.354,1.355"/>
			</g>
			<g>
				<path fill="#FFFFFF" stroke="#B5094F" stroke-width="0.6017" stroke-miterlimit="1" d="M31.623,31.853
					c1.684,0,3.049,1.295,3.049,2.895s-1.365,2.896-3.049,2.896"/>
				<path fill="#FFFFFF" stroke="#B5094F" stroke-width="0.4143" stroke-miterlimit="1" d="M31.623,32.754
					c1.16,0,2.098,0.894,2.098,1.994c0,1.102-0.938,1.995-2.098,1.995"/>
				<path fill="#B5094F" d="M31.671,33.463c0.75,0,1.354,0.575,1.354,1.285c0,0.711-0.604,1.288-1.354,1.288"/>
			</g>
			<g>
				<path fill="#FFFFFF" stroke="#B5094F" stroke-width="0.7336" stroke-miterlimit="1" d="M30.209,26.928
					c2.375,0,4.304,1.365,4.304,3.048c0,1.685-1.929,3.047-4.304,3.047"/>
				<path fill="#FFFFFF" stroke="#B5094F" stroke-width="0.5051" stroke-miterlimit="1" d="M30.209,27.876
					c1.638,0,2.963,0.94,2.963,2.1s-1.326,2.099-2.963,2.099"/>
				<path fill="#B5094F" d="M30.278,28.623c1.057,0,1.911,0.605,1.911,1.353s-0.854,1.355-1.911,1.355"/>
			</g>
			<g>
				<path fill="#FFFFFF" stroke="#B5094F" stroke-width="0.8129" stroke-miterlimit="1" d="M27.173,32.076
					c2.919,0,5.285,1.364,5.285,3.048c0,1.684-2.366,3.048-5.285,3.048"/>
				<path fill="#FFFFFF" stroke="#B5094F" stroke-width="0.5597" stroke-miterlimit="1" d="M27.173,33.025
					c2.011,0,3.64,0.94,3.64,2.099s-1.629,2.1-3.64,2.1"/>
				<path fill="#B5094F" d="M27.258,33.771c1.297,0,2.347,0.604,2.347,1.353c0,0.747-1.05,1.354-2.347,1.354"/>
			</g>
			<g>
				<path fill="#FFFFFF" stroke="#B5094F" stroke-width="0.8311" stroke-miterlimit="1" d="M26.21,26.707
					c3.049,0,5.523,1.364,5.523,3.049c0,1.684-2.475,3.047-5.523,3.047"/>
				<path fill="#FFFFFF" stroke="#B5094F" stroke-width="0.5722" stroke-miterlimit="1" d="M26.21,27.656
					c2.101,0,3.802,0.94,3.802,2.1c0,1.159-1.701,2.098-3.802,2.098"/>
				<path fill="#B5094F" d="M26.298,28.403c1.355,0,2.453,0.604,2.453,1.353c0,0.748-1.097,1.354-2.453,1.354"/>
			</g>
			<g>
				<path fill="#FFFFFF" stroke="#B5094F" stroke-width="0.7194" stroke-miterlimit="1" d="M25.967,32.802
					c2.357,0,4.269,1.323,4.269,2.955c0,1.633-1.912,2.956-4.269,2.956"/>
				<path fill="#FFFFFF" stroke="#B5094F" stroke-width="0.4954" stroke-miterlimit="1" d="M25.967,33.722
					c1.624,0,2.939,0.912,2.939,2.035c0,1.125-1.315,2.036-2.939,2.036"/>
				<path fill="#B5094F" d="M26.035,34.445c1.047,0,1.895,0.588,1.895,1.312c0,0.726-0.848,1.313-1.895,1.313"/>
			</g>
			<g>
				<path fill="#FFFFFF" stroke="#B5094F" stroke-width="0.6174" stroke-miterlimit="1" d="M25.116,26.421
					c1.683,0,3.048,1.364,3.048,3.049c0,1.684-1.365,3.046-3.048,3.046"/>
				<path fill="#FFFFFF" stroke="#B5094F" stroke-width="0.4251" stroke-miterlimit="1" d="M25.116,27.371
					c1.159,0,2.099,0.94,2.099,2.1c0,1.159-0.94,2.099-2.099,2.099"/>
				<path fill="#B5094F" d="M25.164,28.117c0.748,0,1.354,0.604,1.354,1.353c0,0.748-0.605,1.354-1.354,1.354"/>
			</g>
			<g>
				<path fill="#FFFFFF" stroke="#B5094F" stroke-width="0.6174" stroke-miterlimit="1" d="M25.116,29.874
					c1.683,0,3.048,1.364,3.048,3.048s-1.365,3.048-3.048,3.048"/>
				<path fill="#FFFFFF" stroke="#B5094F" stroke-width="0.4251" stroke-miterlimit="1" d="M25.116,30.823
					c1.159,0,2.099,0.941,2.099,2.1c0,1.159-0.94,2.099-2.099,2.099"/>
				<path fill="#B5094F" d="M25.164,31.569c0.748,0,1.354,0.605,1.354,1.353c0,0.749-0.605,1.354-1.354,1.354"/>
			</g>
			<path fill="#FFFFFF" stroke="#B5094F" stroke-width="0.4075" stroke-miterlimit="10" d="M7.763,26.74v8.629
				c0,0,6.498,0.753,10.182,2.044c0,0-3.897-2.726-5.091-5.179c-1.193-2.454-1.486-5.939-1.486-5.939L7.763,26.74z"/>
			<path fill="#FFFFFF" stroke="#B5094F" stroke-width="0.815" stroke-miterlimit="10" d="M21.607,26.189c0,0,6.43-0.62,3.436,3.608
				c0,0,3.121,3.975-0.677,6.46c0,0,4.367,0.235,3.097,2.212l-6.443-0.52C21.019,37.949,25.275,33.328,21.607,26.189z"/>
			<path fill="none" stroke="#BA0D37" stroke-width="0.815" stroke-miterlimit="1" d="M7.763,35.654V26.69
				c0,0,3.769-1.121,8.761-1.121c7.498,0,16.816,2.08,21.394,1.528c8.456-1.02,20.682,0.917,20.682,0.917s-2.997,3.043-5.298,4.061
				c-3.26,1.44-0.315,2.539,0.77,3.481c0.466,0.409,0.759,3.462-2.501,2.138c-3.26-1.325-6.622-3.159-11.206-2.241
				c-4.585,0.916-10.8,3.87-18.034,2.953C15.098,37.488,11.736,35.859,7.763,35.654z"/>
		</g>
		<linearGradient id="SVGID_4_" gradientUnits="userSpaceOnUse" x1="7.0059" y1="31.1484" x2="11.8828" y2="31.1484">
			<stop  offset="0" style="stop-color:#FFFFFF"/>
			<stop  offset="0.3979" style="stop-color:#FFC1BA"/>
			<stop  offset="0.8069" style="stop-color:#FF8779"/>
			<stop  offset="1" style="stop-color:#FF705F"/>
		</linearGradient>
		
			<ellipse fill="url(#SVGID_4_)" stroke="#AA0B4B" stroke-width="0.9637" stroke-miterlimit="1" cx="7.763" cy="31.149" rx="1.679" ry="4.505"/>
	</g>
	<g>
		<g>
			<linearGradient id="SVGID_5_" gradientUnits="userSpaceOnUse" x1="9.397" y1="50.334" x2="43.1723" y2="50.334">
				<stop  offset="0" style="stop-color:#00B1FF"/>
				<stop  offset="0.4987" style="stop-color:#0094FF"/>
				<stop  offset="1" style="stop-color:#007AFF"/>
			</linearGradient>
			<path fill="url(#SVGID_5_)" stroke="#030D38" stroke-width="0.6565" stroke-miterlimit="1" d="M7.436,53.219v-7.221
				c0,0,3.036-0.903,7.058-0.903c6.038,0,13.545,1.674,17.233,1.23c6.81-0.821,16.658,0.737,16.658,0.737s-2.413,2.452-4.268,3.272
				c-2.626,1.16-0.255,2.046,0.619,2.805c0.376,0.326,0.61,2.786-2.014,1.72c-2.626-1.065-5.334-2.545-9.027-1.807
				c-3.692,0.741-8.699,3.119-14.524,2.38C13.345,54.695,10.636,53.383,7.436,53.219z"/>
			<path fill="#FFFFFF" d="M45.466,46.677l2.919,0.386c0,0-3.705,3.452-5.182,3.818c0,0-1.071,1.072,0.942,1.828
				c0,0,2.935,2.724-1.423,2.15l-1.83-0.766c0,0,0.728-1.527,0-2.433c-0.723-0.905,1.656-2.611,2.313-2.825
				C43.861,48.623,45.466,46.677,45.466,46.677z"/>
			<path fill="#FFFFFF" stroke="#000338" stroke-width="0.6199" stroke-miterlimit="1" d="M37.579,47.577l7.729,0.231
				c0,0-5.854,1.225-9.632,1.834C31.9,50.253,37.579,47.577,37.579,47.577z"/>
			<polygon fill="#FFFFFF" stroke="#000338" stroke-width="0.6199" stroke-miterlimit="1" points="37.246,51.97 43.696,53.116 
				38.769,50.569 			"/>
			<path fill="#FFFFFF" stroke="#000338" stroke-width="0.6199" stroke-miterlimit="1" d="M39.132,49.188l4.842,0.585
				c0,0-3.408,1.493-5.274,0.795C36.835,49.868,39.132,49.188,39.132,49.188z"/>
			<g>
				<g>
					<circle fill="none" stroke="#FFFFFF" stroke-width="1.2252" stroke-miterlimit="1" cx="15.822" cy="48.303" r="2.292"/>
					<circle fill="#FFFFFF" cx="15.822" cy="48.303" r="2.292"/>
					<circle fill="none" stroke="#030D38" stroke-width="0.4825" stroke-miterlimit="1" cx="15.822" cy="48.303" r="2.292"/>
				</g>
				<circle fill="#030D38" cx="15.159" cy="48.303" r="1.625"/>
				<circle fill="#FFFFFF" cx="14.48" cy="48.303" r="0.678"/>
			</g>
			<g>
				<path fill="#FFFFFF" stroke="#000338" stroke-width="0.6805" stroke-miterlimit="1" d="M35.797,47.799
					c2.539,0,4.599,1.099,4.599,2.455s-2.06,2.455-4.599,2.455"/>
				<path fill="#FFFFFF" stroke="#000338" stroke-width="0.4686" stroke-miterlimit="1" d="M35.797,48.563
					c1.749,0,3.166,0.759,3.166,1.691s-1.417,1.691-3.166,1.691"/>
				<path fill="#000338" d="M35.87,49.163c1.128,0,2.042,0.488,2.042,1.091s-0.914,1.09-2.042,1.09"/>
			</g>
			<g>
				<path fill="#FFFFFF" stroke="#000338" stroke-width="0.6199" stroke-miterlimit="1" d="M34.335,46.111
					c2.149,0,3.895,1.075,3.895,2.404s-1.745,2.405-3.895,2.405"/>
				<path fill="#FFFFFF" stroke="#000338" stroke-width="0.4268" stroke-miterlimit="1" d="M34.335,46.859
					c1.481,0,2.68,0.743,2.68,1.656c0,0.914-1.198,1.657-2.68,1.657"/>
				<path fill="#000338" d="M34.395,47.449c0.957,0,1.731,0.477,1.731,1.066c0,0.592-0.774,1.068-1.731,1.068"/>
			</g>
			<g>
				<path fill="#FFFFFF" stroke="#000338" stroke-width="0.4716" stroke-miterlimit="1" d="M35.813,48.139
					c1.356,0,2.456,0.988,2.456,2.209c0,1.219-1.1,2.207-2.456,2.207"/>
				<path fill="#FFFFFF" stroke="#000338" stroke-width="0.3247" stroke-miterlimit="1" d="M35.813,48.825
					c0.936,0,1.691,0.683,1.691,1.522c0,0.839-0.756,1.52-1.691,1.52"/>
				<path fill="#000338" d="M35.853,49.367c0.602,0,1.09,0.438,1.09,0.98c0,0.542-0.488,0.979-1.09,0.979"/>
			</g>
			<g>
				<path fill="#FFFFFF" stroke="#000338" stroke-width="0.5992" stroke-miterlimit="1" d="M32.945,46.106
					c1.968,0,3.565,1.099,3.565,2.455c0,1.357-1.597,2.456-3.565,2.456"/>
				<path fill="#FFFFFF" stroke="#000338" stroke-width="0.4126" stroke-miterlimit="1" d="M32.945,46.871
					c1.356,0,2.453,0.757,2.453,1.69s-1.097,1.692-2.453,1.692"/>
				<path fill="#000338" d="M33,47.472c0.876,0,1.584,0.488,1.584,1.09c0,0.603-0.708,1.092-1.584,1.092"/>
			</g>
			<g>
				<path fill="#FFFFFF" stroke="#000338" stroke-width="0.5574" stroke-miterlimit="1" d="M33.011,48.431
					c1.896,0,3.432,0.99,3.432,2.21s-1.536,2.208-3.432,2.208"/>
				<path fill="#FFFFFF" stroke="#000338" stroke-width="0.3838" stroke-miterlimit="1" d="M33.011,49.118
					c1.305,0,2.362,0.683,2.362,1.522s-1.058,1.521-2.362,1.521"/>
				<path fill="#000338" d="M33.066,49.661c0.842,0,1.522,0.438,1.522,0.979s-0.681,0.981-1.522,0.981"/>
			</g>
			<g>
				<path fill="#FFFFFF" stroke="#000338" stroke-width="0.5694" stroke-miterlimit="1" d="M31.209,46.409
					c1.894,0,3.43,1.03,3.43,2.304s-1.536,2.305-3.43,2.305"/>
				<path fill="#FFFFFF" stroke="#000338" stroke-width="0.3921" stroke-miterlimit="1" d="M31.209,47.126
					c1.304,0,2.363,0.711,2.363,1.587s-1.059,1.588-2.363,1.588"/>
				<path fill="#000338" d="M31.263,47.69c0.842,0,1.523,0.457,1.523,1.022s-0.682,1.023-1.523,1.023"/>
			</g>
			<g>
				<path fill="#FFFFFF" stroke="#000338" stroke-width="0.4973" stroke-miterlimit="1" d="M31.235,48.645
					c1.354,0,2.455,1.099,2.455,2.454c0,1.356-1.101,2.455-2.455,2.455"/>
				<path fill="#FFFFFF" stroke="#000338" stroke-width="0.3424" stroke-miterlimit="1" d="M31.235,49.409
					c0.932,0,1.688,0.757,1.688,1.689c0,0.934-0.756,1.691-1.688,1.691"/>
				<path fill="#000338" d="M31.272,50.009c0.603,0,1.091,0.486,1.091,1.09c0,0.602-0.489,1.091-1.091,1.091"/>
			</g>
			<g>
				<path fill="#FFFFFF" stroke="#000338" stroke-width="0.4973" stroke-miterlimit="1" d="M29.619,46.525
					c1.355,0,2.456,1.1,2.456,2.454c0,1.357-1.101,2.457-2.456,2.457"/>
				<path fill="#FFFFFF" stroke="#000338" stroke-width="0.3424" stroke-miterlimit="1" d="M29.619,47.289
					c0.934,0,1.69,0.759,1.69,1.69c0,0.935-0.756,1.691-1.69,1.691"/>
				<path fill="#000338" d="M29.658,47.891c0.603,0,1.091,0.487,1.091,1.089c0,0.604-0.488,1.092-1.091,1.092"/>
			</g>
			<g>
				<path fill="#FFFFFF" stroke="#000338" stroke-width="0.4973" stroke-miterlimit="1" d="M28.945,49.244
					c1.355,0,2.455,1.1,2.455,2.455c0,1.357-1.099,2.456-2.455,2.456"/>
				<path fill="#FFFFFF" stroke="#000338" stroke-width="0.3424" stroke-miterlimit="1" d="M28.945,50.009
					c0.934,0,1.69,0.758,1.69,1.69c0,0.935-0.757,1.691-1.69,1.691"/>
				<path fill="#000338" d="M28.983,50.609c0.603,0,1.09,0.487,1.09,1.09c0,0.604-0.487,1.092-1.09,1.092"/>
			</g>
			<g>
				<path fill="#FFFFFF" stroke="#000338" stroke-width="0.4973" stroke-miterlimit="1" d="M27.568,46.188
					c1.355,0,2.456,1.1,2.456,2.457c0,1.355-1.101,2.454-2.456,2.454"/>
				<path fill="#FFFFFF" stroke="#000338" stroke-width="0.3424" stroke-miterlimit="1" d="M27.568,46.951
					c0.934,0,1.69,0.759,1.69,1.693c0,0.933-0.756,1.69-1.69,1.69"/>
				<path fill="#000338" d="M27.607,47.554c0.603,0,1.09,0.488,1.09,1.091c0,0.602-0.488,1.091-1.09,1.091"/>
			</g>
			<g>
				<path fill="#FFFFFF" stroke="#000338" stroke-width="0.4846" stroke-miterlimit="1" d="M26.655,50.155
					c1.356,0,2.455,1.044,2.455,2.332c0,1.29-1.099,2.332-2.455,2.332"/>
				<path fill="#FFFFFF" stroke="#000338" stroke-width="0.3337" stroke-miterlimit="1" d="M26.655,50.881
					c0.934,0,1.69,0.721,1.69,1.606c0,0.887-0.756,1.606-1.69,1.606"/>
				<path fill="#000338" d="M26.693,51.453c0.604,0,1.091,0.463,1.091,1.034c0,0.573-0.487,1.037-1.091,1.037"/>
			</g>
			<g>
				<path fill="#FFFFFF" stroke="#000338" stroke-width="0.5909" stroke-miterlimit="1" d="M25.517,46.188
					c1.914,0,3.467,1.1,3.467,2.457c0,1.355-1.553,2.454-3.467,2.454"/>
				<path fill="#FFFFFF" stroke="#000338" stroke-width="0.4069" stroke-miterlimit="1" d="M25.517,46.951
					c1.319,0,2.387,0.759,2.387,1.693c0,0.933-1.068,1.69-2.387,1.69"/>
				<path fill="#000338" d="M25.571,47.554c0.851,0,1.541,0.488,1.541,1.091c0,0.602-0.689,1.091-1.541,1.091"/>
			</g>
			<g>
				<path fill="#FFFFFF" stroke="#000338" stroke-width="0.6548" stroke-miterlimit="1" d="M23.072,50.335
					c2.35,0,4.256,1.099,4.256,2.455s-1.906,2.455-4.256,2.455"/>
				<path fill="#FFFFFF" stroke="#000338" stroke-width="0.4509" stroke-miterlimit="1" d="M23.072,51.099
					c1.619,0,2.93,0.758,2.93,1.691s-1.312,1.691-2.93,1.691"/>
				<path fill="#000338" d="M23.139,51.699c1.044,0,1.891,0.489,1.891,1.091c0,0.604-0.846,1.091-1.891,1.091"/>
			</g>
			<g>
				<path fill="#FFFFFF" stroke="#000338" stroke-width="0.6694" stroke-miterlimit="1" d="M22.295,46.012
					c2.457,0,4.449,1.099,4.449,2.454c0,1.356-1.992,2.455-4.449,2.455"/>
				<path fill="#FFFFFF" stroke="#000338" stroke-width="0.4609" stroke-miterlimit="1" d="M22.295,46.775
					c1.692,0,3.063,0.757,3.063,1.69s-1.371,1.69-3.063,1.69"/>
				<path fill="#000338" d="M22.366,47.377c1.092,0,1.976,0.486,1.976,1.089c0,0.604-0.883,1.092-1.976,1.092"/>
			</g>
			<g>
				<path fill="#FFFFFF" stroke="#000338" stroke-width="0.5795" stroke-miterlimit="1" d="M22.099,50.921
					c1.899,0,3.439,1.065,3.439,2.38s-1.54,2.381-3.439,2.381"/>
				<path fill="#FFFFFF" stroke="#000338" stroke-width="0.399" stroke-miterlimit="1" d="M22.099,51.661
					c1.308,0,2.367,0.735,2.367,1.64c0,0.905-1.059,1.639-2.367,1.639"/>
				<path fill="#000338" d="M22.154,52.244c0.844,0,1.527,0.474,1.527,1.057c0,0.586-0.683,1.058-1.527,1.058"/>
			</g>
			<g>
				<path fill="#FFFFFF" stroke="#000338" stroke-width="0.4973" stroke-miterlimit="1" d="M21.414,45.781
					c1.356,0,2.455,1.099,2.455,2.455c0,1.355-1.099,2.455-2.455,2.455"/>
				<path fill="#FFFFFF" stroke="#000338" stroke-width="0.3424" stroke-miterlimit="1" d="M21.414,46.546
					c0.934,0,1.69,0.756,1.69,1.69c0,0.934-0.757,1.69-1.69,1.69"/>
				<path fill="#000338" d="M21.453,47.146c0.603,0,1.091,0.486,1.091,1.09c0,0.603-0.488,1.092-1.091,1.092"/>
			</g>
			<g>
				<path fill="#FFFFFF" stroke="#000338" stroke-width="0.4973" stroke-miterlimit="1" d="M21.414,48.562
					c1.356,0,2.455,1.1,2.455,2.455c0,1.356-1.099,2.455-2.455,2.455"/>
				<path fill="#FFFFFF" stroke="#000338" stroke-width="0.3424" stroke-miterlimit="1" d="M21.414,49.326
					c0.934,0,1.69,0.758,1.69,1.69c0,0.935-0.757,1.691-1.69,1.691"/>
				<path fill="#000338" d="M21.453,49.927c0.603,0,1.091,0.487,1.091,1.09c0,0.604-0.488,1.091-1.091,1.091"/>
			</g>
			<path fill="#FFFFFF" stroke="#000338" stroke-width="0.3282" stroke-miterlimit="10" d="M7.436,46.037v6.952
				c0,0,5.235,0.604,8.202,1.645c0,0-3.14-2.195-4.101-4.171c-0.961-1.978-1.197-4.784-1.197-4.784L7.436,46.037z"/>
			<path fill="#FFFFFF" stroke="#000338" stroke-width="0.6565" stroke-miterlimit="10" d="M18.587,45.594
				c0,0,5.179-0.499,2.768,2.905c0,0,2.514,3.2-0.546,5.204c0,0,3.517,0.189,2.494,1.78l-5.189-0.418
				C18.114,55.065,21.542,51.344,18.587,45.594z"/>
			<path fill="none" stroke="#030D38" stroke-width="0.6565" stroke-miterlimit="1" d="M7.436,53.219v-7.221
				c0,0,3.036-0.903,7.058-0.903c6.038,0,13.545,1.674,17.233,1.23c6.81-0.821,16.658,0.737,16.658,0.737s-2.413,2.452-4.268,3.272
				c-2.626,1.16-0.255,2.046,0.619,2.805c0.376,0.326,0.61,2.786-2.014,1.72c-2.626-1.065-5.334-2.545-9.027-1.807
				c-3.692,0.741-8.699,3.119-14.524,2.38C13.345,54.695,10.636,53.383,7.436,53.219z"/>
		</g>
		<linearGradient id="SVGID_6_" gradientUnits="userSpaceOnUse" x1="6.8267" y1="49.5576" x2="10.7557" y2="49.5576">
			<stop  offset="0" style="stop-color:#FFFFFF"/>
			<stop  offset="0.2082" style="stop-color:#C5E1FF"/>
			<stop  offset="0.6004" style="stop-color:#5CAAFF"/>
			<stop  offset="0.8727" style="stop-color:#1A87FF"/>
			<stop  offset="1" style="stop-color:#007AFF"/>
		</linearGradient>
		
			<ellipse fill="url(#SVGID_6_)" stroke="#020642" stroke-width="0.7695" stroke-miterlimit="1" cx="7.437" cy="49.558" rx="1.353" ry="3.567"/>
	</g>
	<path fill="none" stroke="#B2B2B2" stroke-width="1.0871" stroke-miterlimit="1" d="M1.625,0c3.829,13.559,4.25,43.375,0,64.5"/>
	<polyline fill="none" stroke="#B2B2B2" stroke-width="1.0871" stroke-miterlimit="1" points="7.895,8.131 3.751,12.01 
		8.212,17.917 	"/>
	<polyline fill="none" stroke="#B2B2B2" stroke-width="1.0871" stroke-miterlimit="1" points="7.763,26.643 4.656,30.202 
		7.763,35.654 	"/>
	<polyline fill="none" stroke="#B2B2B2" stroke-width="1.0871" stroke-miterlimit="1" points="7.436,45.99 3.141,48.825 
		7.763,53.245 	"/>
</g>
</svg>
