<?xml version="1.0" encoding="utf-8"?>
<!-- Generator: Adobe Illustrator 15.0.2, SVG Export Plug-In . SVG Version: 6.00 Build 0)  -->
<!DOCTYPE svg PUBLIC "-//W3C//DTD SVG 1.1//EN" "http://www.w3.org/Graphics/SVG/1.1/DTD/svg11.dtd">
<svg version="1.1" id="レイヤー_1" xmlns="http://www.w3.org/2000/svg" xmlns:xlink="http://www.w3.org/1999/xlink" x="0px"
	 y="0px" width="64px" height="64px" viewBox="0 0 64 64" style="enable-background:new 0 0 64 64;" xml:space="preserve">
<g>
	<linearGradient id="SVGID_1_" gradientUnits="userSpaceOnUse" x1="8.0786133" y1="21.4086914" x2="56.7679329" y2="42.9666328">
		<stop  offset="0" style="stop-color:#7FFFE1"/>
		<stop  offset="0.581818" style="stop-color:#FFFFFF"/>
		<stop  offset="1" style="stop-color:#9FFFF6"/>
	</linearGradient>
	<path style="fill:url(#SVGID_1_);" d="M32,3.6796875C16.359375,3.6796875,3.6796875,16.359375,3.6796875,32
		S16.359375,60.3203125,32,60.3203125S60.3203125,47.640625,60.3203125,32S47.640625,3.6796875,32,3.6796875z M32,37.5332031
		c-3.0556641,0-5.5332031-2.4775391-5.5332031-5.5332031S28.9443359,26.4667969,32,26.4667969S37.5332031,28.9443359,37.5332031,32
		S35.0556641,37.5332031,32,37.5332031z"/>
	<path style="fill:#010814;" d="M32,60.8203125C16.1083984,60.8203125,3.1796875,47.8916016,3.1796875,32
		S16.1083984,3.1796875,32,3.1796875S60.8203125,16.1083984,60.8203125,32S47.8916016,60.8203125,32,60.8203125z M32,4.1796875
		C16.659668,4.1796875,4.1796875,16.659668,4.1796875,32C4.1796875,47.3398438,16.659668,59.8203125,32,59.8203125
		c15.3398438,0,27.8203125-12.4804688,27.8203125-27.8203125C59.8203125,16.659668,47.3398438,4.1796875,32,4.1796875z
		 M32,38.0332031c-3.3266602,0-6.0332031-2.7060547-6.0332031-6.0332031c0-3.3266602,2.706543-6.0332031,6.0332031-6.0332031
		c3.3271484,0,6.0332031,2.706543,6.0332031,6.0332031C38.0332031,35.3271484,35.3271484,38.0332031,32,38.0332031z M32,26.9667969
		c-2.7753906,0-5.0332031,2.2578125-5.0332031,5.0332031S29.2246094,37.0332031,32,37.0332031S37.0332031,34.7753906,37.0332031,32
		S34.7753906,26.9667969,32,26.9667969z"/>
</g>
<polygon style="opacity:0.44;fill:#FFFFFF;" points="27.8291016,28.4960938 26.3076172,30.7949219 10.1098633,14.046875 
	13.7724609,10.8085938 "/>
<polygon style="fill:#FFFFFF;" points="32.7993164,26.53125 28.3491211,27.5424805 17.4887695,7.996582 25.3662109,4.4331055 "/>
<polygon style="opacity:0.3;fill:#FFFFFF;" points="36.0761719,35.1767578 37.8691406,33.1474609 54.0410156,50.2919922 
	50.4667969,53.7412109 "/>
<polygon style="opacity:0.3;fill:#FFFFFF;" points="31.3447266,37.5410156 35.8164063,36.4990234 46.6318359,56.4541016 
	38.5664063,59.5546875 "/>
<polygon style="opacity:0.3;fill:#FFFFFF;" points="36.7148438,30.0571289 36.0761719,28.6264648 58.4941406,22.8227539 
	59.1523438,25.5932617 "/>
<polygon style="opacity:0.3;fill:#FFFFFF;" points="37.9052734,31.3720703 37.6748047,30.0058594 59.7792969,27.6831055 
	60.046875,30.1835938 "/>
<path style="fill:#010814;" d="M32,60.8203125C16.1083984,60.8203125,3.1796875,47.8916016,3.1796875,32
	S16.1083984,3.1796875,32,3.1796875S60.8203125,16.1083984,60.8203125,32S47.8916016,60.8203125,32,60.8203125z M32,4.1796875
	C16.659668,4.1796875,4.1796875,16.659668,4.1796875,32C4.1796875,47.3398438,16.659668,59.8203125,32,59.8203125
	c15.3398438,0,27.8203125-12.4804688,27.8203125-27.8203125C59.8203125,16.659668,47.3398438,4.1796875,32,4.1796875z
	 M32,38.0332031c-3.3266602,0-6.0332031-2.7060547-6.0332031-6.0332031c0-3.3266602,2.706543-6.0332031,6.0332031-6.0332031
	c3.3271484,0,6.0332031,2.706543,6.0332031,6.0332031C38.0332031,35.3271484,35.3271484,38.0332031,32,38.0332031z M32,26.9667969
	c-2.7753906,0-5.0332031,2.2578125-5.0332031,5.0332031S29.2246094,37.0332031,32,37.0332031S37.0332031,34.7753906,37.0332031,32
	S34.7753906,26.9667969,32,26.9667969z"/>
</svg>
