<?xml version="1.0" encoding="utf-8"?>
<!-- Generator: Adobe Illustrator 15.0.0, SVG Export Plug-In . SVG Version: 6.00 Build 0)  -->
<!DOCTYPE svg PUBLIC "-//W3C//DTD SVG 1.1//EN" "http://www.w3.org/Graphics/SVG/1.1/DTD/svg11.dtd">
<svg version="1.1" id="レイヤー_1" xmlns="http://www.w3.org/2000/svg" xmlns:xlink="http://www.w3.org/1999/xlink" x="0px"
	 y="0px" width="64px" height="64px" viewBox="0 0 64 64" style="enable-background:new 0 0 64 64;" xml:space="preserve">
<g>
	<path style="fill:#E26CFF;" d="M62.2050781,50.2050781c0,6.6269531-5.3730469,12-12,12H13.7949219c-6.6274414,0-12-5.3730469-12-12
		V13.7949219c0-6.6269531,5.3725586-12,12-12h36.4101563c6.6269531,0,12,5.3730469,12,12V50.2050781z"/>
</g>
<path style="fill:#FFFFFF;" d="M34.0605469,39.6552734v-3.8886719c5.8398438-0.9873047,10.3076172-6.0644531,10.3076172-12.1767578
	c0-6.8193359-5.5488281-12.3681641-12.3691406-12.3681641c-1.9511719,0-3.7910156,0.4667969-5.4345703,1.2749023
	l2.6503906,3.3413086c0.8710938-0.3139648,1.8056641-0.4941406,2.7841797-0.4941406
	c4.546875,0,8.2470703,3.6992188,8.2470703,8.2460938c0,4.5429688-3.7001953,8.2392578-8.2470703,8.2392578
	c-0.7128906,0-1.4003906-0.1005859-2.0605469-0.2709961v4.2084961v2.6386719v1.25H19.5439453v4.1220703h10.3945313v9.0009766
	h4.1220703v-9.0009766h10.3955078v-4.1220703H34.0605469z"/>
</svg>
