<?xml version="1.0" encoding="utf-8"?>
<!-- Generator: Adobe Illustrator 15.0.2, SVG Export Plug-In . SVG Version: 6.00 Build 0)  -->
<!DOCTYPE svg PUBLIC "-//W3C//DTD SVG 1.1//EN" "http://www.w3.org/Graphics/SVG/1.1/DTD/svg11.dtd">
<svg version="1.1" id="レイヤー_1" xmlns="http://www.w3.org/2000/svg" xmlns:xlink="http://www.w3.org/1999/xlink" x="0px"
	 y="0px" width="64px" height="64px" viewBox="0 0 64 64" enable-background="new 0 0 64 64" xml:space="preserve">
<g>
	<g>
		<g>
			
				<line fill="none" stroke="#D9DADA" stroke-width="1.0289" stroke-miterlimit="10" x1="3.088" y1="9.695" x2="60.912" y2="9.695"/>
			<line fill="none" stroke="#D9DADA" stroke-width="1.0289" stroke-miterlimit="10" x1="3.088" y1="15.3" x2="60.912" y2="15.3"/>
			
				<line fill="none" stroke="#D9DADA" stroke-width="1.0289" stroke-miterlimit="10" x1="3.088" y1="20.905" x2="60.912" y2="20.905"/>
			
				<line fill="none" stroke="#D9DADA" stroke-width="1.0289" stroke-miterlimit="10" x1="3.088" y1="26.509" x2="60.912" y2="26.509"/>
			
				<line fill="none" stroke="#D9DADA" stroke-width="1.0289" stroke-miterlimit="10" x1="3.088" y1="32.113" x2="60.912" y2="32.113"/>
			
				<line fill="none" stroke="#D9DADA" stroke-width="1.0289" stroke-miterlimit="10" x1="3.088" y1="37.719" x2="60.912" y2="37.719"/>
			
				<line fill="none" stroke="#D9DADA" stroke-width="1.0289" stroke-miterlimit="10" x1="3.088" y1="43.323" x2="60.912" y2="43.323"/>
			
				<line fill="none" stroke="#D9DADA" stroke-width="1.0289" stroke-miterlimit="10" x1="3.088" y1="48.927" x2="60.912" y2="48.927"/>
			
				<line fill="none" stroke="#D9DADA" stroke-width="1.0289" stroke-miterlimit="10" x1="3.088" y1="54.531" x2="60.912" y2="54.531"/>
		</g>
		<g>
			
				<rect x="3.388" y="3.665" fill="none" stroke="#D9DADA" stroke-width="1.0262" stroke-miterlimit="10" width="57.524" height="56.898"/>
			<g>
				
					<line fill="none" stroke="#D9DADA" stroke-width="1.0226" stroke-miterlimit="10" x1="9.732" y1="60.563" x2="9.731" y2="3.438"/>
				
					<line fill="none" stroke="#D9DADA" stroke-width="1.0226" stroke-miterlimit="10" x1="15.442" y1="60.563" x2="15.442" y2="3.438"/>
				
					<line fill="none" stroke="#D9DADA" stroke-width="1.0226" stroke-miterlimit="10" x1="21.153" y1="60.563" x2="21.153" y2="3.438"/>
				
					<line fill="none" stroke="#D9DADA" stroke-width="1.0226" stroke-miterlimit="10" x1="26.864" y1="60.563" x2="26.863" y2="3.438"/>
				
					<line fill="none" stroke="#D9DADA" stroke-width="1.0226" stroke-miterlimit="10" x1="32.574" y1="60.563" x2="32.574" y2="3.438"/>
				
					<line fill="none" stroke="#D9DADA" stroke-width="1.0226" stroke-miterlimit="10" x1="38.285" y1="60.563" x2="38.285" y2="3.438"/>
				
					<line fill="none" stroke="#D9DADA" stroke-width="1.0226" stroke-miterlimit="10" x1="43.996" y1="60.563" x2="43.996" y2="3.438"/>
				
					<line fill="none" stroke="#D9DADA" stroke-width="1.0226" stroke-miterlimit="10" x1="49.706" y1="60.563" x2="49.706" y2="3.438"/>
				
					<line fill="none" stroke="#D9DADA" stroke-width="1.0226" stroke-miterlimit="10" x1="55.417" y1="60.563" x2="55.417" y2="3.438"/>
			</g>
		</g>
	</g>
	<polyline fill="none" stroke="#FF1A1A" stroke-width="3" stroke-miterlimit="10" points="4.083,50.032 18.083,33.448 25.25,21.198 
		36.084,37.949 48.166,27.207 59.916,4.948 	"/>
</g>
</svg>
