<?xml version="1.0" encoding="utf-8"?>
<!-- Generator: Adobe Illustrator 15.0.2, SVG Export Plug-In . SVG Version: 6.00 Build 0)  -->
<!DOCTYPE svg PUBLIC "-//W3C//DTD SVG 1.1//EN" "http://www.w3.org/Graphics/SVG/1.1/DTD/svg11.dtd">
<svg version="1.1" id="レイヤー_1" xmlns="http://www.w3.org/2000/svg" xmlns:xlink="http://www.w3.org/1999/xlink" x="0px"
	 y="0px" width="64px" height="64px" viewBox="0 0 64 64" enable-background="new 0 0 64 64" xml:space="preserve">
<g>
	<g>
		<g>
			
				<linearGradient id="SVGID_1_" gradientUnits="userSpaceOnUse" x1="305.8965" y1="-304.0601" x2="305.8965" y2="-356.8203" gradientTransform="matrix(1 0 0 -1 -274 -298)">
				<stop  offset="0" style="stop-color:#FFDD5F"/>
				<stop  offset="0.7152" style="stop-color:#FFA81F"/>
				<stop  offset="1" style="stop-color:#FFC900"/>
			</linearGradient>
			<path fill="url(#SVGID_1_)" d="M58.314,50.82c0,4.4-3.601,8-8,8H13.48c-4.4,0-8-3.6-8-8V14.06c0-4.4,3.6-8,8-8h36.834
				c4.399,0,8,3.6,8,8V50.82z"/>
		</g>
		<g>
			<path fill="none" stroke="#C10D23" stroke-width="2" stroke-miterlimit="10" d="M58.314,50.82c0,4.4-3.601,8-8,8H13.48
				c-4.4,0-8-3.6-8-8V14.06c0-4.4,3.6-8,8-8h36.834c4.399,0,8,3.6,8,8V50.82z"/>
		</g>
	</g>
	<g opacity="0.22">
		<path fill="#FFFFFF" d="M5.48,26.813c7.381,2.383,16.52,6.126,26.417,6.126c9.898,0,19.037-3.744,26.418-6.126
			c0,0,2.104-13.836-1.918-18.27c-10.805-5.36-37.412-3.354-48.25-0.578C3.723,12.057,5.48,26.813,5.48,26.813z"/>
	</g>
	<path fill="#991200" d="M17.457,29.074V24.5h-4.725v-2.21h4.725v-1.855h-4.725v-2.21h3.48l-5.03-8.13h5.488l1.931,4.293
		c0.559,1.219,0.889,2.21,1.321,3.303h0.025c0.457-1.016,0.838-2.16,1.346-3.303l1.982-4.293h5.513l-5.538,8.13h3.557v2.21h-4.726
		v1.855h4.726v2.21h-4.726v4.573H17.457z"/>
	
		<polyline opacity="0.49" fill="none" stroke="#664E00" stroke-width="4" stroke-linecap="round" stroke-linejoin="round" stroke-miterlimit="10" points="
		11.898,52.243 20.793,40.247 25.652,40.696 33.299,29.522 38.557,36.183 45.672,13.635 51.646,20.444 54.832,16.179 	"/>
	
		<polyline fill="none" stroke="#FFFFFF" stroke-width="4" stroke-linecap="round" stroke-linejoin="round" stroke-miterlimit="10" points="
		11.584,51.744 20.479,39.748 25.338,40.197 32.984,29.023 38.242,35.684 45.357,13.136 51.331,19.945 54.518,15.68 	"/>
	<g>
		<path fill="none" stroke="#991200" stroke-width="2" stroke-miterlimit="10" d="M58.314,50.82c0,4.4-3.601,8-8,8H13.48
			c-4.4,0-8-3.6-8-8V14.06c0-4.4,3.6-8,8-8h36.834c4.399,0,8,3.6,8,8V50.82z"/>
	</g>
</g>
</svg>
