<?xml version="1.0" encoding="utf-8"?>
<!-- Generator: Adobe Illustrator 15.0.2, SVG Export Plug-In . SVG Version: 6.00 Build 0)  -->
<!DOCTYPE svg PUBLIC "-//W3C//DTD SVG 1.1//EN" "http://www.w3.org/Graphics/SVG/1.1/DTD/svg11.dtd">
<svg version="1.1" id="レイヤー_1" xmlns="http://www.w3.org/2000/svg" xmlns:xlink="http://www.w3.org/1999/xlink" x="0px"
	 y="0px" width="64px" height="64px" viewBox="0 0 64 64" enable-background="new 0 0 64 64" xml:space="preserve">
<g>
	
		<linearGradient id="SVGID_1_" gradientUnits="userSpaceOnUse" x1="29.0776" y1="33.333" x2="32.3245" y2="-3.6944" gradientTransform="matrix(1.0254 -0.0111 -0.0111 1.0675 -0.1033 -1.7577)">
		<stop  offset="0" style="stop-color:#FFDFF0"/>
		<stop  offset="1" style="stop-color:#FFBAD4"/>
	</linearGradient>
	<path fill="url(#SVGID_1_)" d="M29.71,32.689c0,0-17.76-17.528-2.128-29.12l4.224,4.925l7.114-3.698
		C38.92,4.796,47.783,20.377,29.71,32.689z"/>
	
		<linearGradient id="SVGID_2_" gradientUnits="userSpaceOnUse" x1="39.6387" y1="27.9746" x2="69.1447" y2="19.1864" gradientTransform="matrix(1.1366 -0.0498 -0.0498 0.9398 -6.9383 5.0997)">
		<stop  offset="0" style="stop-color:#FFDFF0"/>
		<stop  offset="1" style="stop-color:#FFBAD4"/>
	</linearGradient>
	<path fill="url(#SVGID_2_)" d="M31.444,32.935c0,0,8.187-22.637,26.091-14.974l-0.801,5.712l4.799,4.209
		C61.533,27.882,51.107,42.26,31.444,32.935z"/>
	
		<linearGradient id="SVGID_3_" gradientUnits="userSpaceOnUse" x1="29.5342" y1="31.4932" x2="17.2448" y2="59.9564" gradientTransform="matrix(1.0179 -0.0597 -0.0438 1.0516 1.0037 0.1664)">
		<stop  offset="0" style="stop-color:#FFDFF0"/>
		<stop  offset="1" style="stop-color:#FFBAD4"/>
	</linearGradient>
	<path fill="url(#SVGID_3_)" d="M30.025,32.402c0,0,9.34,22.752-9.091,28.028l-2.321-5.655l-7.391,0.434
		C11.222,55.209,9.129,37.472,30.025,32.402z"/>
	
		<linearGradient id="SVGID_4_" gradientUnits="userSpaceOnUse" x1="45.1631" y1="37.0127" x2="-0.7924" y2="23.7931" gradientTransform="matrix(1.0443 0.0338 0.0338 0.9741 -2.5299 0.3069)">
		<stop  offset="0" style="stop-color:#FFDFF0"/>
		<stop  offset="1" style="stop-color:#FFBAD4"/>
	</linearGradient>
	<path fill="url(#SVGID_4_)" d="M30.111,32.266c0,0-18.618,14.572-27.645-2.313l3.504-4.236l-0.966-6.539
		C5.004,19.178,20.706,12.927,30.111,32.266z"/>
	
		<linearGradient id="SVGID_5_" gradientUnits="userSpaceOnUse" x1="34.5986" y1="37.5908" x2="52.3966" y2="52.2116" gradientTransform="matrix(0.944 0.1083 0.1083 1.0558 -2.6133 -4.6576)">
		<stop  offset="0" style="stop-color:#FFDFF0"/>
		<stop  offset="1" style="stop-color:#FFBAD4"/>
	</linearGradient>
	<path fill="url(#SVGID_5_)" d="M31.48,32.403c0,0,22.258,1.419,21.065,20.756l-5.225,0.865l-2.197,5.811
		C45.123,59.835,29.377,53.941,31.48,32.403z"/>
	<ellipse fill="#FFF2E9" cx="31.444" cy="31.837" rx="4.437" ry="4.598"/>
	<path fill="#FFF2E9" d="M29.622,30.794l-2.556-3.611c0.274-0.39,0.44-0.866,0.44-1.386c0-1.308-1.023-2.367-2.285-2.367
		c-1.262,0-2.285,1.06-2.285,2.367s1.023,2.367,2.285,2.367c0.558,0,1.063-0.216,1.46-0.561l2.155,3.19H29.622z"/>
	<path fill="#FFF2E9" d="M32.397,29.144l0.734-4.412c0.461-0.066,0.908-0.273,1.268-0.635c0.906-0.907,0.934-2.406,0.057-3.348
		c-0.877-0.94-2.323-0.967-3.23-0.06c-0.908,0.908-0.934,2.407-0.057,3.349c0.388,0.416,0.888,0.643,1.403,0.699l-0.718,3.821
		L32.397,29.144z"/>
	<path fill="#FFF2E9" d="M33.561,31.349l2.988-3.235c0.418,0.212,0.898,0.299,1.393,0.208c1.242-0.228,2.072-1.456,1.854-2.742
		c-0.221-1.289-1.406-2.147-2.648-1.921c-1.242,0.228-2.07,1.456-1.852,2.744c0.096,0.569,0.391,1.048,0.785,1.393l-2.656,2.755
		L33.561,31.349z"/>
	<path fill="#FFF2E9" d="M32.084,31.62l2.084,3.924c-0.32,0.351-0.547,0.8-0.611,1.315c-0.162,1.296,0.719,2.485,1.971,2.653
		c1.252,0.169,2.398-0.744,2.563-2.041c0.162-1.295-0.721-2.483-1.971-2.654c-0.553-0.074-1.082,0.073-1.518,0.36l-1.741-3.452
		L32.084,31.62z"/>
	<path fill="#FFF2E9" d="M31.745,32.813l-1.954,3.994c-0.46-0.076-0.946-0.016-1.393,0.219c-1.125,0.593-1.577,2.016-1.006,3.183
		c0.571,1.166,1.945,1.634,3.071,1.042c1.125-0.59,1.574-2.015,1.006-3.183c-0.253-0.515-0.667-0.884-1.143-1.096l1.772-3.435
		L31.745,32.813z"/>
	<path fill="#FFF2E9" d="M29.622,31.136l-4.231,0.91c-0.23-0.42-0.579-0.776-1.034-0.991c-1.149-0.541-2.504-0.019-3.027,1.172
		c-0.524,1.189-0.019,2.595,1.13,3.136c1.147,0.544,2.503,0.019,3.028-1.171c0.231-0.525,0.25-1.092,0.113-1.608l3.697-0.709
		L29.622,31.136z"/>
	<path fill="#FFF2E9" d="M33.127,32.907l4.303,0.415c0.102,0.471,0.334,0.917,0.707,1.262c0.947,0.866,2.391,0.777,3.227-0.201
		c0.838-0.978,0.752-2.474-0.193-3.341c-0.941-0.868-2.387-0.778-3.225,0.199c-0.371,0.433-0.549,0.969-0.564,1.505L33.646,32.3
		L33.127,32.907z"/>
</g>
</svg>
