<?xml version="1.0" encoding="UTF-8" standalone="no"?>
<!-- Generated by phantom_svg. -->

<svg
   xmlns:dc="http://purl.org/dc/elements/1.1/"
   xmlns:cc="http://creativecommons.org/ns#"
   xmlns:rdf="http://www.w3.org/1999/02/22-rdf-syntax-ns#"
   xmlns:svg="http://www.w3.org/2000/svg"
   xmlns="http://www.w3.org/2000/svg"
   xmlns:sodipodi="http://sodipodi.sourceforge.net/DTD/sodipodi-0.dtd"
   xmlns:inkscape="http://www.inkscape.org/namespaces/inkscape"
   width="64px"
   height="64px"
   viewBox="0 0 64 64"
   preserveAspectRatio="none"
   version="1.1"
   id="svg105"
   sodipodi:docname="cherry_blossom.svg"
   inkscape:version="0.92.3 (2405546, 2018-03-11)">
  <metadata
     id="frame0_metadata200">
    <rdf:RDF>
      <cc:Work
         rdf:about="">
        <dc:format>
           image/svg+xml 
        </dc:format>
        <dc:type
           rdf:resource="http://purl.org/dc/dcmitype/StillImage" />
      </cc:Work>
    </rdf:RDF>
  </metadata>
  <defs
     id="frame0_defs198" />
  <sodipodi:namedview
     pagecolor="#ffffff"
     bordercolor="#666666"
     borderopacity="1"
     objecttolerance="10"
     gridtolerance="10"
     guidetolerance="10"
     inkscape:pageopacity="0"
     inkscape:pageshadow="2"
     inkscape:window-width="1920"
     inkscape:window-height="1020"
     id="frame0_namedview196"
     showgrid="false"
     inkscape:zoom="3.6875"
     inkscape:cx="-35.254237"
     inkscape:cy="-0.54237288"
     inkscape:window-x="0"
     inkscape:window-y="28"
     inkscape:window-maximized="1"
     inkscape:current-layer="svg105" />
  <g
     id="frame0_g3"
     transform="matrix(1.0548051,0,0,1.0548051,-1.5897748,-2.5578115)">
    <radialGradient
       id="frame0_SVGID_1_"
       cx="31.844727"
       cy="32.407471"
       r="29.316221"
       gradientUnits="userSpaceOnUse">
      <stop
         offset="0"
         style="stop-color:#FFB8CE"
         id="frame0_stop6" />
      <stop
         offset="0.537983"
         style="stop-color:#FFCCCE"
         id="frame0_stop8" />
      <stop
         offset="1"
         style="stop-color:#FFB8CE"
         id="frame0_stop10" />
    </radialGradient>
    <path
       style="fill:url(#frame0_SVGID_1_)"
       d="m 44.527344,60.923828 c -6.227539,-2.277344 -10.491211,-5.891602 -12.682617,-10.75 -2.192872,4.858398 -6.456543,8.472656 -12.682618,10.75 l -0.149902,0.05566 -0.112793,-0.113281 c -0.0957,-0.0957 -2.272461,-2.324219 -2.099121,-6.598633 -1.22168,0.451172 -2.453125,0.680664 -3.665039,0.680664 -1.985352,0 -3.2089845,-0.612304 -3.260254,-0.638672 l -0.1420898,-0.07227 0.00586,-0.15918 C 9.9809571,47.453125 12.102051,42.280273 16.044922,38.694336 10.746582,38.109375 5.9907227,35.171875 1.9008789,29.95459 L 1.8027344,29.829101 1.875,29.687012 C 1.9360352,29.566406 3.3828125,26.807617 7.5024414,25.651367 4.8486328,22.294434 5.3007812,19.211914 5.3217773,19.078613 l 0.025391,-0.157715 0.1533203,-0.04346 c 2.5800781,-0.735351 5.0600584,-1.108398 7.3706054,-1.108398 3.375976,0 6.470703,0.790527 9.208496,2.351563 -1.081543,-5.219239 0.242676,-10.6499027 3.940918,-16.1528324 l 0.08887,-0.1323242 0.157715,0.024902 c 0.133301,0.020996 3.20459,0.5444336 5.577636,4.1054688 2.372071,-3.5610352 5.44336,-4.0844727 5.577149,-4.1054688 l 0.157226,-0.024902 0.08887,0.1323242 c 3.698242,5.5019531 5.022461,10.9326174 3.941406,16.1528324 2.737305,-1.561036 5.832031,-2.351563 9.208984,-2.351563 2.310547,0 4.790039,0.373047 7.370118,1.108398 l 0.15332,0.04346 0.02539,0.157715 c 0.02148,0.133301 0.472657,3.215821 -2.180664,6.572754 4.120118,1.15625 5.566407,3.915039 5.62793,4.035645 l 0.07227,0.14209 -0.09863,0.125488 c -4.089844,5.217285 -8.845703,8.154785 -14.143555,8.739746 3.942383,3.585937 6.063477,8.757812 6.305664,15.383789 l 0.0059,0.15918 -0.142578,0.07227 c -0.05078,0.02637 -1.273438,0.638672 -3.25879,0.638672 -9.76e-4,0 -9.76e-4,0 -9.76e-4,0 -1.211914,0 -2.44336,-0.229492 -3.665039,-0.680664 0.173828,4.274414 -2.00293,6.50293 -2.098633,6.598633 l -0.113281,0.113281 z"
       id="frame0_path12"
       inkscape:connector-curvature="0" />
    <path
       style="fill:#c44b58"
       d="m 37.460903,4.1074791 c 4.326302,6.4366799 4.868591,12.0069999 3.777901,16.5229719 2.533356,-1.557163 5.683666,-2.611469 9.579567,-2.611469 2.190723,0 4.617596,0.333553 7.302124,1.098587 0,0 0.516208,3.25153 -2.373291,6.676529 4.350799,1.072403 5.844391,4.006401 5.844391,4.006401 -4.78479,6.103599 -9.914891,8.340599 -14.546791,8.698898 3.5368,3.012402 6.3722,7.837601 6.655601,15.587902 0,0 -1.197708,0.610798 -3.145439,0.610798 -1.100178,0 -2.439663,-0.194881 -3.937763,-0.804798 0.324501,4.469299 -2.004299,6.796501 -2.004299,6.796501 -7.283501,-2.664501 -10.9963,-6.852298 -12.768401,-11.1469 -1.772098,4.294602 -5.484899,8.482399 -12.768289,11.1469 0,0 -2.32884,-2.327201 -2.004311,-6.796501 -1.498341,0.61002 -2.837462,0.804798 -3.937746,0.804798 -1.947401,0 -3.1454427,-0.610798 -3.1454427,-0.610798 0.2833397,-7.750301 3.1187897,-12.5755 6.6555897,-15.587902 -4.63196,-0.358299 -9.7620397,-2.595299 -14.5468298,-8.698898 0,0 1.4936302,-2.933998 5.84443,-4.006401 C 5.0524139,22.369099 5.568614,19.117569 5.568614,19.117569 c 2.6849718,-0.765163 5.111093,-1.09864 7.302106,-1.098587 3.895382,9.9e-5 7.046457,1.054455 9.579584,2.611469 -1.090719,-4.515972 -0.548441,-10.086292 3.777901,-16.5229718 0,0 3.251899,0.5138817 5.616298,4.3203011 2.3645,-3.8064195 5.6164,-4.3203012 5.6164,-4.3203012 m 0.23703,-0.5436592 -0.315071,0.049789 C 37.248879,3.6347809 34.246918,4.1454239 31.844511,7.5249367 29.44219,4.1454239 26.440228,3.6347809 26.306244,3.6136093 l -0.315069,-0.049789 -0.177941,0.26474 c -3.613767,5.3765259 -4.983337,10.6910737 -4.079309,15.8162607 -2.658156,-1.411354 -5.63394,-2.125763 -8.863191,-2.125843 -2.33351,-4.9e-5 -4.8364104,0.376011 -7.4391502,1.117733 l -0.3067698,0.08743 -0.05002,0.315029 c -0.021266,0.133965 -0.4632988,3.146798 2.0084491,6.47593 -3.9565034,1.240394 -5.3698149,3.937683 -5.4313488,4.058559 l -0.1447201,0.284271 0.1968,0.251049 C 5.7003431,35.206841 10.331757,38.151685 15.485062,38.876046 11.741676,42.49101 9.7257018,47.5957 9.4890446,54.069032 l -0.01165,0.318809 0.2842197,0.144909 c 0.05328,0.02717 1.3285397,0.665352 3.3725407,0.665352 1.127857,0 2.27076,-0.193005 3.407065,-0.574596 -0.04292,4.146202 2.085611,6.324089 2.181564,6.419975 l 0.225639,0.225479 0.299571,-0.1096 c 6.083282,-2.225453 10.315156,-5.720242 12.59651,-10.397556 2.281358,4.677322 6.513273,8.172115 12.59662,10.397567 l 0.299568,0.109589 0.225644,-0.225491 c 0.09595,-0.09587 2.224445,-2.273761 2.181549,-6.419967 1.136306,0.381595 2.27922,0.5746 3.407077,0.5746 2.044362,0 3.319321,-0.63821 3.372593,-0.665383 l 0.284169,-0.14492 -0.01165,-0.318767 C 53.96336,47.595665 51.947392,42.490974 48.204045,38.876045 53.357331,38.151684 57.988724,35.20684 61.985092,30.108978 l 0.196801,-0.251037 -0.144707,-0.284272 c -0.06155,-0.120887 -1.474827,-2.81818 -5.431328,-4.058574 2.471764,-3.329129 2.02972,-6.341961 2.008457,-6.475926 l -0.05002,-0.315029 -0.30677,-0.08743 c -2.60257,-0.741672 -5.105457,-1.117733 -7.439148,-1.117733 -3.229137,0 -6.204933,0.714409 -8.86319,2.125832 C 42.85882,14.519935 41.489382,9.20473 37.875887,3.8285589 l -0.177952,-0.26474 z"
       id="frame0_path14"
       inkscape:connector-curvature="0" />
  </g>
  <g
     id="frame0_g16"
     transform="matrix(1.0548051,0,0,1.0548051,-1.5897748,-2.5578115)">
    <linearGradient
       id="frame0_SVGID_2_"
       gradientUnits="userSpaceOnUse"
       x1="31.844513"
       y1="5.5950098"
       x2="31.844513"
       y2="33.560501">
      <stop
         offset="0"
         style="stop-color:#FFB8CE;stop-opacity:0.2"
         id="frame0_stop19" />
      <stop
         offset="0.477833"
         style="stop-color:#FFE0DD"
         id="frame0_stop21" />
      <stop
         offset="1"
         style="stop-color:#FFB8CE;stop-opacity:0"
         id="frame0_stop23" />
    </linearGradient>
    <path
       style="fill:url(#frame0_SVGID_2_)"
       d="m 36.609901,5.5950098 c 0,0 -2.759201,3.4110804 -4.765401,6.6407612 C 29.8384,9.0060902 27.0791,5.5950098 27.0791,5.5950098 16.729561,20.993179 31.8445,33.560502 31.8445,33.560502 c 0,0 15.114999,-12.567323 4.765401,-27.9654922 z"
       id="frame0_path25"
       inkscape:connector-curvature="0" />
    <linearGradient
       id="frame0_SVGID_3_"
       gradientUnits="userSpaceOnUse"
       x1="26.580637"
       y1="1.9269325"
       x2="26.580637"
       y2="29.891529"
       gradientTransform="matrix(0.309,-0.9511,0.9511,0.309,-4.7986002,49.604401)">
      <stop
         offset="0"
         style="stop-color:#FFB8CE;stop-opacity:0.2"
         id="frame0_stop28" />
      <stop
         offset="0.477833"
         style="stop-color:#FFE0DD"
         id="frame0_stop30" />
      <stop
         offset="1"
         style="stop-color:#FFB8CE;stop-opacity:0"
         id="frame0_stop32" />
    </linearGradient>
    <path
       style="fill:url(#frame0_SVGID_3_)"
       d="m 6.7203398,20.386551 c 0,0 2.3914804,3.678249 4.8431492,6.584249 -3.6915588,0.91 -7.7883291,2.480099 -7.7883291,2.480099 C 15.22149,44.0522 31.8445,33.560501 31.8445,33.560501 c 0,0 -7.281399,-18.258701 -25.1241602,-13.17395 z"
       id="frame0_path34"
       inkscape:connector-curvature="0" />
    <linearGradient
       id="frame0_SVGID_4_"
       gradientUnits="userSpaceOnUse"
       x1="29.316797"
       y1="-3.7712903"
       x2="29.316797"
       y2="24.194492"
       gradientTransform="matrix(-0.809,-0.5878,0.5878,-0.809,41.340599,70.366501)">
      <stop
         offset="0"
         style="stop-color:#FFB8CE;stop-opacity:0.2"
         id="frame0_stop37" />
      <stop
         offset="0.477833"
         style="stop-color:#FFE0DD"
         id="frame0_stop39" />
      <stop
         offset="1"
         style="stop-color:#FFB8CE;stop-opacity:0"
         id="frame0_stop41" />
    </linearGradient>
    <path
       style="fill:url(#frame0_SVGID_4_)"
       d="m 11.551533,53.384102 c 0,0 4.237237,-1.137802 7.758627,-2.571503 -0.275321,3.792099 -0.04805,8.1735 -0.04805,8.1735 17.423792,-6.374 12.582389,-25.425598 12.582389,-25.425598 0,0 -19.615142,1.282898 -20.292966,19.823601 z"
       id="frame0_path43"
       inkscape:connector-curvature="0" />
    <linearGradient
       id="frame0_SVGID_5_"
       gradientUnits="userSpaceOnUse"
       x1="34.907837"
       y1="-3.2652142"
       x2="34.907837"
       y2="24.700647"
       gradientTransform="matrix(-0.809,0.5878,-0.5878,-0.809,74.603699,33.0247)">
      <stop
         offset="0"
         style="stop-color:#FFB8CE;stop-opacity:0.2"
         id="frame0_stop46" />
      <stop
         offset="0.477833"
         style="stop-color:#FFE0DD"
         id="frame0_stop48" />
      <stop
         offset="1"
         style="stop-color:#FFB8CE;stop-opacity:0"
         id="frame0_stop50" />
    </linearGradient>
    <path
       style="fill:url(#frame0_SVGID_5_)"
       d="m 44.426998,58.986099 c 0,0 0.227303,-4.381401 -0.0481,-8.1735 3.5214,1.433701 7.758701,2.571503 7.758701,2.571503 C 51.459702,34.843399 31.8445,33.560501 31.8445,33.560501 c 0,0 -4.8413,19.051598 12.582498,25.425598 z"
       id="frame0_path52"
       inkscape:connector-curvature="0" />
    <linearGradient
       id="frame0_SVGID_6_"
       gradientUnits="userSpaceOnUse"
       x1="36.689739"
       y1="1.6798351"
       x2="36.689739"
       y2="29.644489"
       gradientTransform="matrix(0.309,0.9511,-0.9511,0.309,48.702099,-10.4957)">
      <stop
         offset="0"
         style="stop-color:#FFB8CE;stop-opacity:0.2"
         id="frame0_stop55" />
      <stop
         offset="0.477833"
         style="stop-color:#FFE0DD"
         id="frame0_stop57" />
      <stop
         offset="1"
         style="stop-color:#FFB8CE;stop-opacity:0"
         id="frame0_stop59" />
    </linearGradient>
    <path
       style="fill:url(#frame0_SVGID_6_)"
       d="m 59.913899,29.450899 c 0,0 -4.096699,-1.570099 -7.7883,-2.480099 2.451702,-2.906 4.843101,-6.584249 4.843101,-6.584249 -17.842701,-5.084751 -25.1242,13.17395 -25.1242,13.17395 0,0 16.623102,10.491699 28.069399,-4.109602 z"
       id="frame0_path61"
       inkscape:connector-curvature="0" />
  </g>
  <radialGradient
     id="frame0_SVGID_7_"
     cx="31.8397446"
     cy="34.7074509"
     r="11.3094997"
     gradientUnits="userSpaceOnUse"
     gradientTransform="matrix(1.0548051,0,0,1.0548051,-1.5897748,-2.5578115)">
    <stop
       offset="0"
       style="stop-color:#D99DAF"
       id="frame0_stop64" />
    <stop
       offset="0.537983"
       style="stop-color:#FFCCCE"
       id="frame0_stop66" />
    <stop
       offset="1"
       style="stop-color:#FFB8CE"
       id="frame0_stop68" />
  </radialGradient>
  <path
     style="fill:url(#frame0_SVGID_7_);stroke-width:1.05480504"
     d="m 37.416389,33.328765 c -1.341817,-0.43595 -2.627731,-0.700811 -3.759747,-0.872323 0.305367,-0.213388 0.477616,-0.34703 0.477616,-0.34703 0,0 -0.17299,-0.0028 -0.42614,-0.0011 0.788991,-0.786465 1.636319,-1.722076 2.433643,-2.819602 2.450629,-3.37295 3.440248,-6.831867 3.440248,-6.831867 0,0 -2.983833,2.010037 -5.434565,5.382987 -0.829289,1.141404 -1.47831,2.282071 -1.991263,3.305758 -0.108539,-0.355997 -0.182482,-0.561156 -0.182482,-0.561156 0,0 -0.05643,0.1636 -0.132798,0.404835 -0.504198,-0.993521 -1.132123,-2.088409 -1.92945,-3.185724 -2.450734,-3.372948 -5.434356,-5.382986 -5.434356,-5.382986 0,0 0.989302,3.458919 3.440037,6.832079 0.829287,1.141192 1.71374,2.1113 2.52879,2.915375 -0.372137,-0.0069 -0.59027,0 -0.59027,0 0,0 0.138285,0.104215 0.344182,0.25157 -1.100688,0.172568 -2.336075,0.431311 -3.626104,0.850491 -3.965326,1.28834 -6.798966,3.505115 -6.798966,3.505115 0,0 3.595418,0.127633 7.560642,-1.160707 1.341712,-0.436055 2.537439,-0.977487 3.55406,-1.504151 -0.121514,0.351883 -0.182165,0.561368 -0.182165,0.561368 0,0 0.141767,-0.09915 0.345554,-0.249566 -0.176048,1.100056 -0.31159,2.355064 -0.31159,3.711438 0,4.169326 1.232434,7.549342 1.232434,7.549342 0,0 1.232539,-3.380016 1.232539,-7.549342 0,-1.410594 -0.145559,-2.715175 -0.332262,-3.844874 0.297243,0.224252 0.477616,0.346821 0.477616,0.346821 0,0 -0.05052,-0.165498 -0.130583,-0.405676 0.991938,0.50736 2.143466,1.024107 3.433601,1.443286 3.965116,1.288341 7.560524,1.160602 7.560524,1.160602 0,0 -2.833626,-2.216565 -6.798745,-3.50501 z"
     id="frame0_path70"
     inkscape:connector-curvature="0" />
  <g
     id="frame0_g72"
     transform="matrix(1.0548051,0,0,1.0548051,-1.5897748,-2.5578115)">
    <path
       style="fill:#ffe9b3"
       d="m 29.8354,27.3501 c 0,0 0.0102,0.381601 0.0547,0.950799 0.0337,0.5672 0.0716,1.333001 0.2402,2.062602 0.1819,0.722499 0.6059,1.3563 0.930001,1.813799 0.333999,0.455001 0.585899,0.746002 0.585899,0.746002 0,0 -0.3288,-0.208203 -0.7127,-0.6441 C 30.7365,32.066299 30.541401,31.7875 30.355101,31.4741 30.18,31.1597 30.029301,30.7808 29.951599,30.4048 29.672001,28.875999 29.8354,27.3501 29.8354,27.3501 Z"
       id="frame0_path74"
       inkscape:connector-curvature="0" />
    <path
       style="fill:#ffe9b3"
       d="m 31.025499,26.420401 c 0,0 -0.0297,0.0957 -0.0817,0.263099 -0.0357,0.170599 -0.0868,0.4142 -0.1481,0.706499 -0.0302,0.296002 -0.0653,0.641301 -0.103001,1.011301 0.0109,0.370301 0.0519,0.764901 0.0764,1.157799 -0.0017,0.199202 0.0711,0.376501 0.1131,0.574202 0.0479,0.191 0.0951,0.378999 0.140801,0.560798 0.0485,0.179402 0.0603,0.369501 0.135299,0.517701 0.0601,0.1557 0.122799,0.300701 0.167799,0.440599 0.0518,0.136702 0.0808,0.273802 0.149701,0.371599 0.0604,0.102402 0.103401,0.199402 0.144701,0.276802 0.0756,0.158902 0.156799,0.223999 0.150999,0.229199 0.0066,-0.0046 -0.0895,-0.0536 -0.198,-0.193398 -0.111401,-0.135902 -0.286801,-0.331302 -0.4021,-0.6168 -0.0702,-0.1371 -0.1324,-0.2922 -0.204401,-0.453901 -0.084,-0.1605 -0.1045,-0.3396 -0.155599,-0.520899 -0.0395,-0.1833 -0.0804,-0.372801 -0.121899,-0.5653 C 30.6563,29.991899 30.5846,29.7873 30.5924,29.5825 c -0.0128,-0.4057 -0.0407,-0.810701 -0.0387,-1.1882 0.0542,-0.375301 0.0955,-0.7264 0.1473,-1.0235 0.0902,-0.288299 0.165301,-0.5285 0.2179,-0.696699 0.0678,-0.161402 0.106599,-0.2537 0.106599,-0.2537 z"
       id="frame0_path76"
       inkscape:connector-curvature="0" />
    <path
       style="fill:#ffe9b3"
       d="m 31.781601,28.85 c 0,0 -0.0503,0.2158 -0.0644,0.5413 -0.0398,0.323099 -0.0525,0.758101 -0.0656,1.1919 0.0273,0.4299 0.0546,0.859801 0.0751,1.1822 0.0227,0.325298 0.0076,0.550499 0.0076,0.550499 0,0 -0.0959,-0.204201 -0.17,-0.527298 -0.0425,-0.161202 -0.0576,-0.357101 -0.0916,-0.564201 -0.0102,-0.208901 -0.0066,-0.4184 -0.0033,-0.6482 0.0437,-0.4384 0.0757,-0.876701 0.1488,-1.2007 0.0751,-0.324299 0.163401,-0.5255 0.163401,-0.5255 z"
       id="frame0_path78"
       inkscape:connector-curvature="0" />
    <path
       style="fill:#ffe9b3"
       d="m 33.163799,26.0299 c 0,0 0.135002,0.398401 0.212002,1.025899 0.0296,0.313502 0.0491,0.683201 0.0201,1.078001 -0.0163,0.392701 -0.0896,0.820401 -0.181301,1.223601 -0.0836,0.407499 -0.180401,0.8172 -0.299599,1.194399 -0.121502,0.375101 -0.235703,0.7248 -0.372601,1.010601 -0.246601,0.583698 -0.520401,0.9114 -0.520401,0.9114 0,0 0.0529,-0.0908 0.1218,-0.259701 0.0682,-0.169102 0.160499,-0.4116 0.259502,-0.7062 0.0973,-0.295 0.2052,-0.6416 0.312599,-1.0144 0.0938,-0.3758 0.2179,-0.770899 0.3084,-1.1801 0.101799,-0.4074 0.187702,-0.8032 0.219101,-1.191299 0.0433,-0.384402 0.0382,-0.748202 0.0209,-1.057801 -0.0155,-0.622501 -0.100502,-1.0344 -0.100502,-1.0344 z"
       id="frame0_path80"
       inkscape:connector-curvature="0" />
    <path
       style="fill:#ffe9b3"
       d="m 34.360001,27.2633 c 0,0 -0.0107,0.3757 -0.0622,0.938299 -0.0475,0.562901 -0.177196,1.308201 -0.392597,2.0359 -0.105801,0.3552 -0.251202,0.736 -0.432503,1.031601 -0.155697,0.314301 -0.357799,0.582899 -0.537498,0.8079 -0.3587,0.4458 -0.662701,0.6777 -0.662701,0.6777 0,0 0.197002,-0.3289 0.507702,-0.788901 0.155701,-0.227798 0.3381,-0.491899 0.521198,-0.7962 0.201898,-0.295299 0.3285,-0.624399 0.450898,-0.9811 0.240101,-0.704099 0.364899,-1.445699 0.465698,-1.997799 0.0991,-0.5536 0.142003,-0.9274 0.142003,-0.9274 z"
       id="frame0_path82"
       inkscape:connector-curvature="0" />
    <ellipse
       style="fill:#ffc536"
       cx="30.9387"
       cy="26.507198"
       rx="0.73760003"
       ry="0.57950002"
       id="frame0_ellipse84" />
    <ellipse
       style="fill:#ffc536"
       cx="29.835449"
       cy="27.722"
       rx="0.86965001"
       ry="0.50340003"
       id="frame0_ellipse86" />
    <ellipse
       style="fill:#ffc536"
       cx="33.169998"
       cy="26.073299"
       rx="0.8312"
       ry="0.67720002"
       id="frame0_ellipse88" />
    <ellipse
       style="fill:#ffc536"
       cx="31.781601"
       cy="28.899601"
       rx="0.75340003"
       ry="0.59189999"
       id="frame0_ellipse90" />
    <ellipse
       style="fill:#ffc536"
       cx="34.304199"
       cy="27.306702"
       rx="0.73760003"
       ry="0.57950002"
       id="frame0_ellipse92" />
    <path
       style="fill:#ffe9b3"
       d="m 25.101601,33.799 c 0,0 0.365999,0.108398 0.920999,0.2425 0.549601,0.143299 1.2897,0.3465 2.0359,0.408699 0.743401,0.0491 1.4772,-0.157398 2.012499,-0.324497 0.5359,-0.177002 0.8906,-0.326702 0.8906,-0.326702 0,0 -0.299699,0.248401 -0.832899,0.478801 -0.263401,0.121598 -0.5888,0.220898 -0.9445,0.3013 -0.353201,0.0696 -0.759901,0.0949 -1.1417,0.0539 -0.771599,-0.0959 -1.503399,-0.320099 -2.048899,-0.4944 -0.539902,-0.1931 -0.892,-0.339599 -0.892,-0.339599 z"
       id="frame0_path94"
       inkscape:connector-curvature="0" />
    <path
       style="fill:#ffe9b3"
       d="m 24.585199,32.379799 c 0,0 0.316601,0.250801 0.851502,0.518699 0.525699,0.279702 1.2696,0.582901 2.051498,0.708001 0.786902,0.1254 1.576302,0.154602 2.1665,0.121402 0.295401,-0.0142 0.538601,-0.0564 0.709702,-0.0889 0.17,-0.0372 0.2619,-0.0807 0.2619,-0.0807 0,0 -0.340101,0.251499 -0.9531,0.337299 C 29.0688,33.9959 28.2435,33.9477 27.455601,33.7818 26.6576,33.6228 25.904699,33.2986 25.3892,32.982701 24.875601,32.659902 24.585199,32.3798 24.585199,32.3798 Z"
       id="frame0_path96"
       inkscape:connector-curvature="0" />
    <path
       style="fill:#ffe9b3"
       d="m 27.129499,32.411499 c 0,0 0.187701,0.114601 0.4928,0.232002 0.297201,0.133 0.7017,0.2925 1.115002,0.427899 0.406799,0.1278 0.833599,0.203998 1.147699,0.293899 0.316201,0.0807 0.5261,0.162201 0.5261,0.162201 0,0 -0.2243,0.0306 -0.554201,-5.99e-4 -0.33,-0.0262 -0.766899,-0.1119 -1.182399,-0.2845 -0.4074,-0.165401 -0.81,-0.3447 -1.0973,-0.509399 -0.283199,-0.173802 -0.447701,-0.321503 -0.447701,-0.321503 z"
       id="frame0_path98"
       inkscape:connector-curvature="0" />
    <path
       style="fill:#ffe9b3"
       d="m 24.8745,30.2255 c 0,0 0.420599,-0.0059 1.0418,0.1129 0.615101,0.1273 1.4254,0.4209 2.1397,0.863001 0.730301,0.413799 1.421899,0.896999 1.889801,1.322597 0.479,0.415203 0.704399,0.778702 0.704399,0.778702 0,0 -0.07,-0.0783 -0.2083,-0.196998 C 30.302299,32.9883 30.0991,32.8269 29.851101,32.639702 29.351,32.270401 28.662599,31.8074 27.9571,31.369801 27.260599,30.9128 26.4963,30.5965 25.889999,30.4471 25.292601,30.271299 24.8745,30.2255 24.8745,30.2255 Z"
       id="frame0_path100"
       inkscape:connector-curvature="0" />
    <path
       style="fill:#ffe9b3"
       d="m 26.4172,29.469 c 0,0 1.4387,0.478399 2.6908,1.348 0.6343,0.4232 1.153801,1.014301 1.4515,1.493299 0.308401,0.478401 0.4353,0.8409 0.4353,0.8409 0,0 -0.2502,-0.287998 -0.591001,-0.730598 C 30.233,32.199799 30.0329,31.9422 29.813499,31.676399 29.590599,31.4065 29.3153,31.1695 29.0145,30.9475 28.4165,30.504101 27.749201,30.1579 27.255899,29.8899 26.7602,29.623699 26.4172,29.469 26.4172,29.469 Z"
       id="frame0_path102"
       inkscape:connector-curvature="0" />
    <ellipse
       transform="rotate(-72.002301,24.640901,32.489202)"
       style="fill:#ffc536"
       cx="24.6409"
       cy="32.489201"
       rx="0.73759109"
       ry="0.57947218"
       id="frame0_ellipse104" />
    <ellipse
       transform="rotate(-72.001559,25.455298,33.913851)"
       style="fill:#ffc536"
       cx="25.455299"
       cy="33.913849"
       rx="0.86960417"
       ry="0.50346428"
       id="frame0_ellipse106" />
    <ellipse
       transform="rotate(-71.999934,24.917749,30.232999)"
       style="fill:#ffc536"
       cx="24.917749"
       cy="30.233002"
       rx="0.83118123"
       ry="0.6772052"
       id="frame0_ellipse108" />
    <ellipse
       transform="rotate(-71.997921,27.176648,32.42685)"
       style="fill:#ffc536"
       cx="27.176649"
       cy="32.426849"
       rx="0.75343418"
       ry="0.591901"
       id="frame0_ellipse110" />
    <ellipse
       transform="rotate(-71.997408,26.441247,29.53545)"
       style="fill:#ffc536"
       cx="26.44125"
       cy="29.53545"
       rx="0.73755902"
       ry="0.57950431"
       id="frame0_ellipse112" />
    <path
       style="fill:#ffe9b3"
       d="m 29.771999,40.2939 c 0,0 0.2162,-0.314599 0.515202,-0.800999 0.306198,-0.478401 0.728199,-1.119499 1.017899,-1.810002 0.276399,-0.691799 0.3068,-1.453498 0.3132,-2.014198 -0.0027,-0.5644 -0.0354,-0.948002 -0.0354,-0.948002 0,0 0.143601,0.361801 0.198,0.940003 0.0342,0.288097 0.0281,0.628299 -0.0054,0.991398 -0.0429,0.357399 -0.144498,0.752101 -0.301498,1.1026 -0.329601,0.7042 -0.769001,1.330799 -1.1033,1.7957 -0.3505,0.453899 -0.598702,0.7435 -0.598703,0.7435 z"
       id="frame0_path114"
       inkscape:connector-curvature="0" />
    <path
       style="fill:#ffe9b3"
       d="m 28.262699,40.3465 c 0,0 0.336302,-0.223701 0.7565,-0.649601 0.4284,-0.413498 0.9466,-1.027298 1.307301,-1.732299 0.3624,-0.709599 0.6341,-1.451298 0.784901,-2.0229 0.0778,-0.2854 0.112798,-0.529701 0.134699,-0.702499 0.0172,-0.173199 0.0042,-0.274003 0.0042,-0.274003 0,0 0.134201,0.401204 0.0263,1.010701 -0.0914,0.6058 -0.392201,1.375801 -0.793499,2.073902 -0.3978,0.709801 -0.938801,1.325699 -1.398602,1.7183 -0.4657,0.388698 -0.8218,0.578399 -0.8218,0.578399 z"
       id="frame0_path116"
       inkscape:connector-curvature="0" />
    <path
       style="fill:#ffe9b3"
       d="m 29.0791,37.9365 c 0,0 0.166999,-0.1431 0.373001,-0.397102 0.218199,-0.241497 0.4949,-0.576897 0.7514,-0.928097 0.247299,-0.3474 0.451698,-0.729801 0.634199,-1.000702 0.174499,-0.275699 0.3169,-0.450298 0.3169,-0.450298 0,0 -0.0403,0.222797 -0.1719,0.526897 C 30.855801,35.993 30.639299,36.382 30.3468,36.7239 c -0.283301,0.3363 -0.578199,0.663799 -0.823601,0.8862 -0.2528,0.215599 -0.444099,0.3264 -0.444099,0.3264 z"
       id="frame0_path118"
       inkscape:connector-curvature="0" />
    <path
       style="fill:#ffe9b3"
       d="m 26.303301,39.405602 c 0,0 0.1243,-0.401803 0.429298,-0.955903 0.3111,-0.5457 0.8407,-1.225601 1.481901,-1.768299 0.6192,-0.5667 1.292599,-1.075199 1.8419,-1.388599 0.542901,-0.327301 0.958201,-0.429302 0.958201,-0.429302 0,0 -0.096,0.0424 -0.251702,0.137203 -0.154699,0.0966 -0.371099,0.239899 -0.625799,0.417896 -0.505701,0.361504 -1.158701,0.873101 -1.7929,1.408901 -0.6499,0.521203 -1.187,1.1503 -1.516399,1.680802 -0.351801,0.513797 -0.5245,0.897301 -0.5245,0.897301 z"
       id="frame0_path120"
       inkscape:connector-curvature="0" />
    <path
       style="fill:#ffe9b3"
       d="m 26.060499,37.704601 c 0,0 0.899601,-1.220401 2.113501,-2.142501 0.598499,-0.4725 1.321199,-0.783902 1.868801,-0.919098 0.550199,-0.145401 0.934299,-0.154003 0.934299,-0.154003 0,0 -0.351301,0.148902 -0.877599,0.3362 -0.262701,0.0943 -0.5695,0.205002 -0.890101,0.331501 -0.3256,0.128498 -0.636,0.317101 -0.9401,0.5346 -0.6065,0.431701 -1.142,0.9594 -1.5494,1.345802 -0.4063,0.389198 -0.659401,0.667499 -0.659401,0.667499 z"
       id="frame0_path122"
       inkscape:connector-curvature="0" />
    <ellipse
       transform="rotate(-144.00403,28.383949,40.327299)"
       style="fill:#ffc536"
       cx="28.383949"
       cy="40.327301"
       rx="0.73758578"
       ry="0.5794962"
       id="frame0_ellipse124" />
    <ellipse
       transform="rotate(-144.00048,29.990549,39.992951)"
       style="fill:#ffc536"
       cx="29.990549"
       cy="39.99295"
       rx="0.86963028"
       ry="0.50342721"
       id="frame0_ellipse126" />
    <ellipse
       transform="rotate(-143.99797,26.32375,39.366803)"
       style="fill:#ffc536"
       cx="26.32375"
       cy="39.366798"
       rx="0.83121538"
       ry="0.67722827"
       id="frame0_ellipse128" />
    <ellipse
       transform="rotate(-144.00087,29.108248,37.89635)"
       style="fill:#ffc536"
       cx="29.10825"
       cy="37.896351"
       rx="0.75343698"
       ry="0.59191769"
       id="frame0_ellipse130" />
    <ellipse
       transform="rotate(-144.00403,26.131149,37.702298)"
       style="fill:#ffc536"
       cx="26.131149"
       cy="37.702301"
       rx="0.73758578"
       ry="0.5794962"
       id="frame0_ellipse132" />
    <path
       style="fill:#ffe9b3"
       d="m 37.3923,37.8591 c 0,0 -0.232399,-0.302799 -0.6026,-0.737499 C 36.429298,36.682598 35.950001,36.083099 35.382801,35.5942 34.810299,35.1175 34.095299,34.853298 33.563999,34.673901 33.026402,34.501999 32.651402,34.4147 32.651402,34.4147 c 0,0 0.3885,-0.0249 0.955299,0.1021 0.2845,0.0565 0.606197,0.1674 0.9412,0.311401 0.326599,0.151398 0.670597,0.3699 0.955399,0.627598 0.567901,0.531002 1.028099,1.142601 1.366901,1.604202 C 37.1935,37.5336 37.3923,37.8591 37.3923,37.8591 Z"
       id="frame0_path134"
       inkscape:connector-curvature="0" />
    <path
       style="fill:#ffe9b3"
       d="m 36.975899,39.310799 c 0,0 -0.108799,-0.389 -0.383999,-0.920201 -0.261002,-0.535297 -0.684502,-1.2178 -1.2435,-1.778598 -0.563,-0.564 -1.184399,-1.051602 -1.6815,-1.371602 -0.247299,-0.162197 -0.468799,-0.270999 -0.6264,-0.345298 -0.1594,-0.0698 -0.2593,-0.0886 -0.2593,-0.0886 0,0 0.423001,-0.0036 0.969399,0.287301 0.547802,0.274101 1.187202,0.798198 1.727199,1.395599 0.552101,0.597603 0.970703,1.302402 1.202,1.861 0.225804,0.563103 0.296101,0.9604 0.296101,0.960399 z"
       id="frame0_path136"
       inkscape:connector-curvature="0" />
    <path
       style="fill:#ffe9b3"
       d="m 34.9361,37.7896 c 0,0 -0.0845,-0.202999 -0.262299,-0.477401 -0.1623,-0.2822 -0.395801,-0.648999 -0.6506,-1.0015 -0.254002,-0.342498 -0.554401,-0.655098 -0.755699,-0.9123 -0.208302,-0.251197 -0.330303,-0.440597 -0.330303,-0.440597 0,0 0.199501,0.107197 0.448001,0.326298 0.251599,0.215198 0.554699,0.541301 0.789399,0.925102 0.232299,0.373398 0.452701,0.755096 0.588302,1.057197 0.126999,0.307 0.173199,0.523201 0.173199,0.523201 z"
       id="frame0_path138"
       inkscape:connector-curvature="0" />
    <path
       style="fill:#ffe9b3"
       d="m 35.475498,40.883598 c 0,0 -0.343696,-0.242496 -0.776398,-0.7038 -0.422801,-0.464496 -0.905799,-1.1782 -1.2238,-1.955799 -0.347698,-0.764 -0.6231,-1.561501 -0.7514,-2.180798 -0.143601,-0.617401 -0.112301,-1.044002 -0.112301,-1.044002 0,0 0.0107,0.1045 0.0528,0.281799 0.044,0.177002 0.113403,0.427101 0.204003,0.724301 0.187599,0.592701 0.472297,1.371803 0.7859,2.140602 0.294799,0.779098 0.727298,1.484298 1.130001,1.961498 0.379898,0.493401 0.691196,0.776199 0.691195,0.776199 z"
       id="frame0_path140"
       inkscape:connector-curvature="0" />
    <path
       style="fill:#ffe9b3"
       d="m 33.782799,40.588799 c 0,0 -0.882698,-1.232701 -1.384598,-2.672101 C 32.1338,37.2015 32.061001,36.4179 32.1017,35.8554 c 0.0317,-0.568298 0.1422,-0.936199 0.1422,-0.936199 0,0 0.033,0.379997 0.0486,0.938499 0.0084,0.279 0.0189,0.605 0.0401,0.949002 0.0217,0.349399 0.105098,0.7029 0.217998,1.059299 0.223202,0.710301 0.559502,1.3825 0.801102,1.889401 0.244598,0.506698 0.431099,0.833397 0.431099,0.833397 z"
       id="frame0_path142"
       inkscape:connector-curvature="0" />
    <ellipse
       transform="rotate(143.99861,36.995098,39.18955)"
       style="fill:#ffc536"
       cx="36.995098"
       cy="39.189552"
       rx="0.73757482"
       ry="0.57950729"
       id="frame0_ellipse144" />
    <ellipse
       transform="rotate(144.00048,37.17365,37.558251)"
       style="fill:#ffc536"
       cx="37.173649"
       cy="37.55825"
       rx="0.86963028"
       ry="0.50344932"
       id="frame0_ellipse146" />
    <ellipse
       transform="rotate(143.99797,35.44495,40.852101)"
       style="fill:#ffc536"
       cx="35.44495"
       cy="40.8521"
       rx="0.83121538"
       ry="0.67722827"
       id="frame0_ellipse148" />
    <ellipse
       transform="rotate(144.00087,34.906952,37.749448)"
       style="fill:#ffc536"
       cx="34.906952"
       cy="37.749451"
       rx="0.75343698"
       ry="0.59191769"
       id="frame0_ellipse150" />
    <ellipse
       transform="rotate(144.00089,33.802449,40.520952)"
       style="fill:#ffc536"
       cx="33.802448"
       cy="40.52095"
       rx="0.73761523"
       ry="0.57953668"
       id="frame0_ellipse152" />
    <path
       style="fill:#ffe9b3"
       d="m 37.4314,29.8594 c 0,0 -0.359798,0.1275 -0.8876,0.345199 -0.5289,0.2071 -1.2471,0.477702 -1.887401,0.866001 -0.6302,0.3972 -1.102497,0.995501 -1.437298,1.445399 -0.329601,0.458202 -0.5285,0.7878 -0.5285,0.7878 0,0 0.0964,-0.377098 0.3923,-0.8769 0.141701,-0.253201 0.346501,-0.524799 0.587097,-0.798899 0.244801,-0.263901 0.558903,-0.5235 0.892002,-0.714701 0.6806,-0.375999 1.4044,-0.624698 1.948101,-0.8043 C 37.060398,29.9478 37.4314,29.8594 37.4314,29.8594 Z"
       id="frame0_path154"
       inkscape:connector-curvature="0" />
    <path
       style="fill:#ffe9b3"
       d="m 38.683399,30.704 c 0,0 -0.403599,-0.0168 -0.993797,0.0809 -0.589703,0.0827 -1.369701,0.2747 -2.075802,0.632999 -0.7104,0.361099 -1.3661,0.801498 -1.8241,1.175301 -0.230702,0.1851 -0.4026,0.362198 -0.521901,0.488998 -0.115699,0.1301 -0.164398,0.2192 -0.164398,0.2192 0,0 0.127197,-0.403297 0.572701,-0.833099 0.430099,-0.436299 1.125999,-0.8825 1.861,-1.211399 0.739097,-0.340401 1.5387,-0.520701 2.141498,-0.568001 0.605198,-0.0408 1.004799,0.0151 1.004799,0.0151 z"
       id="frame0_path156"
       inkscape:connector-curvature="0" />
    <path
       style="fill:#ffe9b3"
       d="m 36.6064,32.173901 c 0,0 -0.2193,0.0176 -0.5351,0.101898 -0.318599,0.0671 -0.739601,0.175899 -1.153499,0.309299 -0.404301,0.135701 -0.794399,0.324803 -1.101299,0.436802 -0.303303,0.120499 -0.521,0.178002 -0.521,0.178002 0,0 0.163498,-0.156601 0.4487,-0.325302 0.282398,-0.1727 0.686199,-0.3602 1.123798,-0.464799 0.4268,-0.105602 0.858002,-0.1972 1.187199,-0.232902 0.331302,-0.0258 0.551201,-0.003 0.551201,-0.003 z"
       id="frame0_path158"
       inkscape:connector-curvature="0" />
    <path
       style="fill:#ffe9b3"
       d="m 39.715599,32.617001 c 0,0 -0.3368,0.251899 -0.909298,0.5209 C 38.233898,33.3965 37.4058,33.6353 36.5681,33.697399 c -0.834099,0.0946 -1.6777,0.1101 -2.306301,0.0408 -0.631599,-0.0543 -1.027599,-0.2159 -1.027599,-0.2159 0,0 0.102699,0.0221 0.284302,0.0369 0.181999,0.0129 0.441299,0.0241 0.751899,0.0298 0.621598,0.0048 1.450699,-0.0253 2.278698,-0.0859 0.8321,-0.0397 1.636402,-0.233001 2.214703,-0.468601 0.586597,-0.2089 0.951797,-0.417499 0.951797,-0.417499 z"
       id="frame0_path160"
       inkscape:connector-curvature="0" />
    <path
       style="fill:#ffe9b3"
       d="m 38.912201,34.1357 c 0,0 -1.445103,0.458599 -2.9692,0.491101 C 35.181,34.6572 34.4133,34.484402 33.8909,34.2719 c -0.530602,-0.205799 -0.846402,-0.424499 -0.846402,-0.424499 0,0 0.371602,0.0859 0.907601,0.243698 0.267902,0.0782 0.581199,0.169002 0.914902,0.2551 0.339,0.0873 0.701,0.117203 1.074798,0.120003 0.744499,0.0073 1.487801,-0.104901 2.044502,-0.178002 0.557499,-0.0761 0.9259,-0.1525 0.9259,-0.1525 z"
       id="frame0_path162"
       inkscape:connector-curvature="0" />
    <ellipse
       transform="rotate(71.997408,38.574053,30.64825)"
       style="fill:#ffc536"
       cx="38.574051"
       cy="30.648251"
       rx="0.73755902"
       ry="0.57950431"
       id="frame0_ellipse164" />
    <ellipse
       transform="rotate(71.99944,37.077751,29.974401)"
       style="fill:#ffc536"
       cx="37.077751"
       cy="29.9744"
       rx="0.86966717"
       ry="0.50346547"
       id="frame0_ellipse166" />
    <ellipse
       transform="rotate(72.001,39.676252,32.63625)"
       style="fill:#ffc536"
       cx="39.67625"
       cy="32.63625"
       rx="0.83122867"
       ry="0.67728478"
       id="frame0_ellipse168" />
    <ellipse
       transform="rotate(72.00153,36.559199,32.189151)"
       style="fill:#ffc536"
       cx="36.5592"
       cy="32.189148"
       rx="0.75341868"
       ry="0.5919795"
       id="frame0_ellipse170" />
    <ellipse
       transform="rotate(71.998608,38.85365,34.096101)"
       style="fill:#ffc536"
       cx="38.853649"
       cy="34.0961"
       rx="0.73760659"
       ry="0.57951969"
       id="frame0_ellipse172" />
    <ellipse
       transform="rotate(-72.000355,30.116803,31.449503)"
       style="fill:#ffc536"
       cx="30.1168"
       cy="31.449501"
       rx="0.75337118"
       ry="0.59196401"
       id="frame0_ellipse174" />
    <ellipse
       transform="rotate(-144.00087,29.302949,34.551252)"
       style="fill:#ffc536"
       cx="29.30295"
       cy="34.55125"
       rx="0.75343698"
       ry="0.59191769"
       id="frame0_ellipse176" />
    <ellipse
       transform="rotate(143.99862,32.001401,36.283849)"
       style="fill:#ffc536"
       cx="32.0014"
       cy="36.283852"
       rx="0.75339657"
       ry="0.59188819"
       id="frame0_ellipse178" />
    <ellipse
       transform="rotate(71.997921,34.483052,34.252848)"
       style="fill:#ffc536"
       cx="34.483051"
       cy="34.25285"
       rx="0.75343418"
       ry="0.59193188"
       id="frame0_ellipse180" />
    <ellipse
       style="fill:#ffc536"
       cx="33.318298"
       cy="31.264999"
       rx="0.75340003"
       ry="0.59200001"
       id="frame0_ellipse182" />
  </g>
  <g
     id="frame0_g184" />
  <g
     id="frame0_g186" />
  <g
     id="frame0_g188" />
  <g
     id="frame0_g190" />
  <g
     id="frame0_g192" />
  <g
     id="frame0_g194" />
</svg>
