<?xml version="1.0" encoding="utf-8"?>
<!-- Generator: Adobe Illustrator 15.0.2, SVG Export Plug-In . SVG Version: 6.00 Build 0)  -->
<!DOCTYPE svg PUBLIC "-//W3C//DTD SVG 1.1//EN" "http://www.w3.org/Graphics/SVG/1.1/DTD/svg11.dtd">
<svg version="1.1" id="レイヤー_1" xmlns="http://www.w3.org/2000/svg" xmlns:xlink="http://www.w3.org/1999/xlink" x="0px"
	 y="0px" width="64px" height="64px" viewBox="0 0 64 64" enable-background="new 0 0 64 64" xml:space="preserve">
<g>
	<g>
		<g>
			
				<linearGradient id="SVGID_1_" gradientUnits="userSpaceOnUse" x1="305.8965" y1="-304.0601" x2="305.8965" y2="-356.8203" gradientTransform="matrix(1 0 0 -1 -274 -298)">
				<stop  offset="0" style="stop-color:#9FE1FF"/>
				<stop  offset="0.2621" style="stop-color:#60A1CE"/>
				<stop  offset="0.5708" style="stop-color:#1B5B97"/>
				<stop  offset="0.7152" style="stop-color:#004082"/>
				<stop  offset="0.7694" style="stop-color:#004487"/>
				<stop  offset="0.8311" style="stop-color:#005094"/>
				<stop  offset="0.8963" style="stop-color:#0064AB"/>
				<stop  offset="0.9636" style="stop-color:#0080CB"/>
				<stop  offset="1" style="stop-color:#0092DF"/>
			</linearGradient>
			<path fill="url(#SVGID_1_)" d="M58.314,50.82c0,4.4-3.601,8-8,8H13.48c-4.4,0-8-3.6-8-8V14.06c0-4.4,3.6-8,8-8h36.834
				c4.399,0,8,3.6,8,8V50.82z"/>
		</g>
		<g opacity="0.22">
			<path fill="#FFFFFF" d="M5.48,26.813c7.381,2.383,16.52,6.126,26.417,6.126c9.898,0,19.037-3.744,26.417-6.126
				c0,0,2.104-13.836-1.918-18.27c-10.805-5.36-37.412-3.354-48.25-0.578C3.723,12.057,5.48,26.813,5.48,26.813z"/>
		</g>
		<g>
			<path fill="none" stroke="#057CDD" stroke-width="2" stroke-miterlimit="10" d="M58.314,50.82c0,4.4-3.601,8-8,8H13.48
				c-4.4,0-8-3.6-8-8V14.06c0-4.4,3.6-8,8-8h36.834c4.399,0,8,3.6,8,8V50.82z"/>
		</g>
	</g>
	<g>
		<polygon fill-rule="evenodd" clip-rule="evenodd" fill="#FFFFFF" points="21.554,33.715 13.856,30.855 13.856,46.763 
			21.554,43.903 21.554,42.987 24.046,42.987 24.046,34.632 21.554,34.632 		"/>
		<path fill-rule="evenodd" clip-rule="evenodd" fill="#FFFFFF" d="M50.144,27.101c0-3.409-2.764-6.173-6.173-6.173
			c-3.408,0-6.172,2.764-6.172,6.173c0,1.369,0.451,2.63,1.205,3.653h-4.48c1.384-1.446,2.238-3.403,2.238-5.563
			c0-4.448-3.605-8.055-8.054-8.055s-8.055,3.606-8.055,8.055c0,3.495,2.231,6.462,5.342,7.577v14.097h20.759V32.604
			C48.764,31.586,50.144,29.506,50.144,27.101z"/>
	</g>
</g>
</svg>
