<?xml version="1.0" encoding="utf-8"?>
<!-- Generator: Adobe Illustrator 15.0.0, SVG Export Plug-In . SVG Version: 6.00 Build 0)  -->
<!DOCTYPE svg PUBLIC "-//W3C//DTD SVG 1.1//EN" "http://www.w3.org/Graphics/SVG/1.1/DTD/svg11.dtd">
<svg version="1.1" id="レイヤー_1" xmlns="http://www.w3.org/2000/svg" xmlns:xlink="http://www.w3.org/1999/xlink" x="0px"
	 y="0px" width="64px" height="64px" viewBox="0 0 64 64" style="enable-background:new 0 0 64 64;" xml:space="preserve">
<g>
	<g>
		<g>
			
				<linearGradient id="SVGID_1_" gradientUnits="userSpaceOnUse" x1="306" y1="-303.6201172" x2="306" y2="-356.3798828" gradientTransform="matrix(1 0 0 -1 -274 -298)">
				<stop  offset="0" style="stop-color:#9FE1FF"/>
				<stop  offset="0.2621" style="stop-color:#60A1CE"/>
				<stop  offset="0.5708" style="stop-color:#1B5B97"/>
				<stop  offset="0.7151999" style="stop-color:#004082"/>
				<stop  offset="0.7693999" style="stop-color:#004487"/>
				<stop  offset="0.8311" style="stop-color:#005094"/>
				<stop  offset="0.8963" style="stop-color:#0064AB"/>
				<stop  offset="0.9636" style="stop-color:#0080CB"/>
				<stop  offset="1" style="stop-color:#0092DF"/>
			</linearGradient>
			<path style="fill:url(#SVGID_1_);" d="M58.4169922,50.3798828c0,4.4003906-3.6005859,8-8,8H13.5830078
				c-4.4003906,0-8-3.5996094-8-8V13.6201172c0-4.4003906,3.5996094-8,8-8h36.8339844c4.3994141,0,8,3.5996094,8,8V50.3798828z"/>
		</g>
		<g style="opacity:0.22;">
			<path style="fill:#FFFFFF;" d="M5.5830078,26.3730469C12.9638672,28.7558594,22.1025391,32.4990234,32,32.4990234
				s19.0361328-3.7431641,26.4169922-6.1259766c0,0,2.1035156-13.8359375-1.9179688-18.2705078
				C45.6943359,2.7431641,19.0878906,4.7490234,8.25,7.5244141C3.8261719,11.6171875,5.5830078,26.3730469,5.5830078,26.3730469z"/>
		</g>
		<g>
			<path style="fill:#057CDD;" d="M50.4169922,59.3798828H13.5830078c-4.9628906,0-9-4.0371094-9-9V13.6201172
				c0-4.9628906,4.0371094-9,9-9h36.8339844c4.9628906,0,9,4.0371094,9,9v36.7597656
				C59.4169922,55.3427734,55.3798828,59.3798828,50.4169922,59.3798828z M13.5830078,6.6201172c-3.8603516,0-7,3.1396484-7,7
				v36.7597656c0,3.859375,3.1396484,7,7,7h36.8339844c3.859375,0,7-3.140625,7-7V13.6201172c0-3.8603516-3.140625-7-7-7H13.5830078
				z"/>
		</g>
	</g>
	<g>
		<polygon style="fill-rule:evenodd;clip-rule:evenodd;fill:#FFFFFF;" points="21.65625,33.2744141 13.9589844,30.4150391 
			13.9589844,46.3222656 21.65625,43.4628906 21.65625,42.546875 24.1484375,42.546875 24.1484375,34.1914063 21.65625,34.1914063 
					"/>
		<path style="fill-rule:evenodd;clip-rule:evenodd;fill:#FFFFFF;" d="M50.2460938,26.6601563
			c0-3.4091797-2.7636719-6.1728516-6.1728516-6.1728516c-3.4082031,0-6.171875,2.7636719-6.171875,6.1728516
			c0,1.3691406,0.4511719,2.6298828,1.2050781,3.6533203h-4.4804688c1.3837891-1.4462891,2.2382813-3.4033203,2.2382813-5.5634766
			c0-4.4482422-3.6054688-8.0546875-8.0537109-8.0546875c-4.4492188,0-8.0556641,3.6064453-8.0556641,8.0546875
			c0,3.4951172,2.2314453,6.4619141,5.3427734,7.5771484v14.0966797h20.7587891V32.1630859
			C48.8662109,31.1455078,50.2460938,29.0654297,50.2460938,26.6601563z"/>
	</g>
</g>
</svg>
