<?xml version="1.0" encoding="utf-8"?>
<!-- Generator: Adobe Illustrator 15.0.2, SVG Export Plug-In . SVG Version: 6.00 Build 0)  -->
<!DOCTYPE svg PUBLIC "-//W3C//DTD SVG 1.1//EN" "http://www.w3.org/Graphics/SVG/1.1/DTD/svg11.dtd">
<svg version="1.1" id="レイヤー_1" xmlns="http://www.w3.org/2000/svg" xmlns:xlink="http://www.w3.org/1999/xlink" x="0px"
	 y="0px" width="64px" height="64px" viewBox="0 0 64 64" enable-background="new 0 0 64 64" xml:space="preserve">
<g>
	<linearGradient id="SVGID_1_" gradientUnits="userSpaceOnUse" x1="16.2529" y1="40.624" x2="63.2289" y2="62.8165">
		<stop  offset="0" style="stop-color:#FF7F91"/>
		<stop  offset="1" style="stop-color:#BF0022"/>
	</linearGradient>
	
		<path fill-rule="evenodd" clip-rule="evenodd" fill="url(#SVGID_1_)" stroke="#000000" stroke-width="1.2128" stroke-miterlimit="10" d="
		M54.272,55.437L51.601,38.02H12.398L9.728,55.437c-0.021,0.09-0.032,0.179-0.032,0.27c0,2.769,10.099,5.013,22.417,5.013
		s22.192-2.244,22.192-5.013C54.305,55.615,54.293,55.526,54.272,55.437z"/>
	<polygon fill-rule="evenodd" clip-rule="evenodd" fill="#FFFCF8" points="15.018,58.942 17.625,46.35 22,47.406 19.962,59.934 	"/>
	<path fill-rule="evenodd" clip-rule="evenodd" fill="#FFFCF8" d="M41.75,47.781c0,0,2.773,10.879,4.387,11.814l4.51-1.128
		L47,44.844L41.75,47.781z"/>
	<path fill-rule="evenodd" clip-rule="evenodd" fill="none" stroke="#000000" stroke-width="1.2128" stroke-miterlimit="10" d="
		M54.272,55.437L51.601,38.02H12.398L9.728,55.437c-0.021,0.09-0.032,0.179-0.032,0.27c0,2.769,10.099,5.013,22.417,5.013
		s22.192-2.244,22.192-5.013C54.305,55.615,54.293,55.526,54.272,55.437z"/>
	<path fill-rule="evenodd" clip-rule="evenodd" d="M32.057,46.693c0,0-3.574,13.075-12.095,13.24l12.095,0.785l11.981-0.785
		C35.518,59.769,32.057,46.693,32.057,46.693z"/>
	<g>
		<path opacity="0.17" fill-rule="evenodd" clip-rule="evenodd" fill="#231815" d="M50.869,46.351l-18.991,1.933l-18.991-1.933
			l-1.849,3.155c0,0,2.101,1.054,3.445,0c0,0,0.567,3.088,3.782,1.046c0,0,0.252,3.362,3.193,0.588c0,0,0.924,3.362,4.118,0.757
			c0,0,1.093,2.689,3.832,0.259c0,0,0.672,1.843,2.891,1.843c2.219,0,2.353-1.765,2.353-1.765c2.688,2.017,3.95-0.673,3.95-0.673
			c2.686,2.438,3.192-0.588,3.192-0.588c3.698,2.63,3.698-0.421,3.698-0.421c3.214,2.042,3.781-1.046,3.781-1.046
			c1.345,1.054,3.446,0,3.446,0L50.869,46.351z"/>
		<path fill-rule="evenodd" clip-rule="evenodd" fill="#FFFFFF" stroke="#000000" stroke-width="1.3078" stroke-miterlimit="10" d="
			M59.452,40.823L32,43.617L4.547,40.823l-1.672,4.561c0,0,2.037,1.524,3.98,0c0,0,0.82,4.463,5.466,1.513
			c0,0,0.364,4.858,4.616,0.851c0,0,1.336,4.858,5.952,1.093c0,0,1.579,3.887,5.539,0.375c0,0,0.971,2.662,4.179,2.662
			c3.207,0,3.401-2.552,3.401-2.552c3.887,2.916,5.709-0.971,5.709-0.971c3.881,3.523,4.616-0.851,4.616-0.851
			c5.344,3.803,5.344-0.607,5.344-0.607c4.647,2.95,5.467-1.513,5.467-1.513c1.943,1.524,3.98,0,3.98,0L59.452,40.823z"/>
		<linearGradient id="SVGID_2_" gradientUnits="userSpaceOnUse" x1="20.5879" y1="25.1631" x2="36.5734" y2="47.0995">
			<stop  offset="0" style="stop-color:#FF7F91"/>
			<stop  offset="1" style="stop-color:#BF0022"/>
		</linearGradient>
		
			<path fill-rule="evenodd" clip-rule="evenodd" fill="url(#SVGID_2_)" stroke="#000000" stroke-width="1.3078" stroke-miterlimit="1" d="
			M32,12.09C22.091,28.737,4.547,40.823,4.547,40.823C22.414,46.289,32,45.317,32,45.317s9.586,0.972,27.452-4.494
			C59.452,40.823,40.125,28.737,32,12.09z"/>
		<path fill-rule="evenodd" clip-rule="evenodd" fill="#FFFCF8" d="M32,12.09c0,0-11.653,25.857-18.952,31.024l9.476,1.729
			C22.524,44.844,30,21.215,32,12.09z"/>
		<path fill-rule="evenodd" clip-rule="evenodd" fill="#FFFCF8" d="M35.25,44.844l-3.372-32.212c0,0,9.698,29.788,12.16,31.844
			L35.25,44.844z"/>
		<path fill-rule="evenodd" clip-rule="evenodd" fill="#FFFCF8" d="M54.305,42.287c0,0-16.347-15.881-22.305-29.282
			c0,0,9.875,16.61,26.625,27.818L54.305,42.287z"/>
		<path fill-rule="evenodd" clip-rule="evenodd" fill="none" stroke="#000000" stroke-width="1.3078" stroke-miterlimit="1" d="
			M32,12.09C22.091,28.737,4.547,40.823,4.547,40.823C22.414,46.289,32,45.317,32,45.317s9.586,0.972,27.452-4.494
			C59.452,40.823,40.125,28.737,32,12.09z"/>
	</g>
	<linearGradient id="SVGID_3_" gradientUnits="userSpaceOnUse" x1="31.5488" y1="4.2363" x2="50.322" y2="13.1052">
		<stop  offset="0" style="stop-color:#5FB7FF"/>
		<stop  offset="1" style="stop-color:#007ADF"/>
	</linearGradient>
	<polygon fill-rule="evenodd" clip-rule="evenodd" fill="url(#SVGID_3_)" points="32,3.281 52.719,8.031 32,10.656 	"/>
	
		<line fill-rule="evenodd" clip-rule="evenodd" fill="none" stroke="#000000" stroke-width="1.3078" stroke-miterlimit="1" x1="32" y1="12.09" x2="32" y2="3.281"/>
</g>
</svg>
