<?xml version="1.0" encoding="UTF-8" standalone="no"?>
<!-- Generator: Adobe Illustrator 18.0.0, SVG Export Plug-In . SVG Version: 6.00 Build 0)  -->

<svg
   xmlns:dc="http://purl.org/dc/elements/1.1/"
   xmlns:cc="http://creativecommons.org/ns#"
   xmlns:rdf="http://www.w3.org/1999/02/22-rdf-syntax-ns#"
   xmlns:svg="http://www.w3.org/2000/svg"
   xmlns="http://www.w3.org/2000/svg"
   xmlns:sodipodi="http://sodipodi.sourceforge.net/DTD/sodipodi-0.dtd"
   xmlns:inkscape="http://www.inkscape.org/namespaces/inkscape"
   version="1.1"
   id="レイヤー_1"
   x="0px"
   y="0px"
   width="64px"
   height="64px"
   viewBox="0 0 64 64"
   style="enable-background:new 0 0 64 64;"
   xml:space="preserve"
   inkscape:version="0.48.5 r10040"
   sodipodi:docname="city_dusk.svg"><metadata
     id="metadata194"><rdf:RDF><cc:Work
         rdf:about=""><dc:format>image/svg+xml</dc:format><dc:type
           rdf:resource="http://purl.org/dc/dcmitype/StillImage" /></cc:Work></rdf:RDF></metadata><defs
     id="defs192" /><sodipodi:namedview
     pagecolor="#ffffff"
     bordercolor="#666666"
     borderopacity="1"
     objecttolerance="10"
     gridtolerance="10"
     guidetolerance="10"
     inkscape:pageopacity="0"
     inkscape:pageshadow="2"
     inkscape:window-width="640"
     inkscape:window-height="480"
     id="namedview190" /><linearGradient
     id="SVGID_1_"
     gradientUnits="userSpaceOnUse"
     x1="32"
     y1="-1.436092e-009"
     x2="32"
     y2="64"><stop
       offset="0.224771"
       style="stop-color:#89261C"
       id="stop4" /><stop
       offset="0.3089306"
       style="stop-color:#953319"
       id="stop6" /><stop
       offset="0.4634129"
       style="stop-color:#B45410"
       id="stop8" /><stop
       offset="0.6695888"
       style="stop-color:#E68A03"
       id="stop10" /><stop
       offset="0.706422"
       style="stop-color:#F09400"
       id="stop12" /></linearGradient><rect
     style="fill:url(#SVGID_1_);"
     width="64"
     height="64"
     id="rect14" /><radialGradient
     id="SVGID_2_"
     cx="21.3731403"
     cy="22.6748734"
     r="9.7075434"
     gradientUnits="userSpaceOnUse"><stop
       offset="0"
       style="stop-color:#F09400"
       id="stop17" /><stop
       offset="0.87156"
       style="stop-color:#F09400"
       id="stop19" /><stop
       offset="1"
       style="stop-color:#F09400;stop-opacity:0"
       id="stop21" /></radialGradient><circle
     style="fill:url(#SVGID_2_);"
     cx="21.3731403"
     cy="22.6750984"
     r="9.7076607"
     id="circle23" /><g
     id="g25"><path
       style="fill:#611711;"
       d="M20.4023991,26.1562004c-2.7866192-0.1641006-2.7045898,0-5.4096594-0.4097004   c-1.2294998-0.1639996-2.3774443,0.4916992-3.6068754,0.3281002c-0.9833946-0.1639996-1.475584-0.5741997-2.5410147-0.7378006   C7.94348,25.1728001,6.95959,25.4188995,6.0582299,25.2548008c-1.0659199-0.1640015-1.6396499-0.8198013-2.7871099-1.0654011   C2.2650101,23.9976006,1.1226,23.9818993,0,24.0282001v7.2549992c1.1917-0.0303001,2.4047899-0.0716991,3.6807899-0.0450001   c0.9018502,0,1.9672799,0.0820007,2.8691401-0.1639996c1.0654297-0.2460995,1.8032203-0.9839001,2.86865-1.1479988   c2.0493164-0.3271008,4.0165396-0.7368011,6.0658598-0.9009018c1.3930607-0.0819988,1.9667892-0.5737,3.196291-1.0653992   c1.0659084-0.4102001,3.6069698,0.4916992,4.7543697,0.4916992c1.3935986,0.0820007,1.1479988-0.3275986,2.1313992-1.1474991   C24.0093002,26.8124008,21.9600201,26.2381992,20.4023991,26.1562004z"
       id="path27" /><path
       style="fill:#611711;"
       d="M64,14.5100698c-2.4343987,0.2158804-5.0116997,0.52106-7.1651001,1.2111206   c0.2724991,0.0820293,0.545002,0.3276396,0.8167,0.4096689c-2.9950981,0.8198204-6.4454994,0.3281307-9.5325012,0.8198204   c-1.8955002,0.2736893-4.0940971,0.7264404-6.0938988,1.2957211C41.6292,18.1495399,41.2417984,18.0501709,40.8829994,17.9375   c-1.9057999-0.6557598-3.6310005-1.1474609-5.8093987-1.1474609c-1.3618011,0-2.4519997,0.3276405-3.8139,0.5737305   c-1.6343002,0.4096699-1.9966011-0.3276386-3.3583012-0.4916992c-1.1800995-0.1640606-2.8143997,0.8193398-2.9051991,1.967289   c-0.0192013,0.2241802,0.0366001,0.4516602,0.1266994,0.6777306c-1.1208992,0.0217896-2.1952991,0.1406307-3.1229,0.4697304   c1.1231003,1.1739502,3.2061005,1.6827393,5.2257996,1.8985004c1.7376995,1.3954792,4.4055004,1.7182789,6.6667023,1.9540787   c2.0885963,0.2455997,4.8120995,1.8031998,6.8087997,1.3115005c1.4525986-0.410099,1.9068985-1.7217999,3.086998-2.3775005   c0.8176003-0.4916992,1.9067993-0.4095993,2.9960022-0.4916992c2.360199-0.3276005,4.8122978-0.4917202,7.1722984-0.8197899   c1.2709999-0.1635704,2.9962006-0.7373009,1.1801987-1.5571194c-1.2709999-0.7378006-3.8127975-0.4096718-5.2654991-0.5737305   c-1.8638992-0.2656307-3.7013016-0.44837-5.5404015-0.5188599c-0.0394974-0.010931-0.079998-0.0199604-0.1196976-0.0306396   c4.8591003,0.1844387,9.8290977-0.0122108,14.6214981,0.0543785c1.1800003,0,1.8148003,0.327631,2.9950027,0.5737305   C62.5270996,19.5194092,63.2601013,19.5531597,64,19.5650597V14.5100698z"
       id="path29" /></g><g
     id="g31"><rect
       x="0.0190001"
       y="44.1457977"
       style="fill:#B32C1F;"
       width="11.5434828"
       height="19.8542004"
       id="rect33" /><rect
       x="56.6231995"
       y="42.8332977"
       style="fill:#B32C1F;"
       width="7.3768001"
       height="21.1667004"
       id="rect35" /><rect
       x="37.4981995"
       y="45.2082977"
       style="fill:#B32C1F;"
       width="16.3768005"
       height="18.7917004"
       id="rect37" /><rect
       x="6.0815306"
       y="45.7082977"
       style="fill:#B32C1F;"
       width="23.6684704"
       height="18.2917004"
       id="rect39" /><rect
       x="1.8334002"
       y="45.7082977"
       style="fill:#380E0A;"
       width="4.6231298"
       height="18.2917004"
       id="rect41" /><rect
       x="27.7609005"
       y="32.3332977"
       style="fill:#B32C1F;"
       width="10.7391005"
       height="31.6667004"
       id="rect43" /><rect
       x="25.8333015"
       y="32.3332977"
       style="fill:#380E0A;"
       width="2.0109"
       height="31.6667004"
       id="rect45" /><rect
       x="47.7673988"
       y="36.3332977"
       style="fill:#B32C1F;"
       width="9.3825998"
       height="27.6667004"
       id="rect47" /><rect
       x="46.0832977"
       y="36.3332977"
       style="fill:#380E0A;"
       width="1.7674"
       height="27.6667004"
       id="rect49" /><linearGradient
       id="SVGID_3_"
       gradientUnits="userSpaceOnUse"
       x1="32.0577011"
       y1="64.0207977"
       x2="32.0577011"
       y2="46.125"><stop
         offset="0.119266"
         style="stop-color:#000000"
         id="stop52" /><stop
         offset="1"
         style="stop-color:#231815;stop-opacity:0"
         id="stop54" /></linearGradient><polygon
       style="fill:url(#SVGID_3_);"
       points="9.8727798,46.125 0.1666,46.125 0.1666,64.0207977 9.8727798,64.0207977    63.9487991,64.0207977 63.9487991,46.125  "
       id="polygon56" /><g
       id="g58"><rect
         x="28.4582996"
         y="33.8333015"
         style="fill:#F5B32C;"
         width="1.8832999"
         height="1.4792"
         id="rect60" /><rect
         x="33.4435005"
         y="38.3333015"
         style="fill:#F5B32C;"
         width="1.8832999"
         height="1.4792"
         id="rect62" /><rect
         x="35.9084015"
         y="33.8333015"
         style="fill:#F5B32C;"
         width="1.8832999"
         height="1.4792"
         id="rect64" /><rect
         x="35.9084015"
         y="42.9166985"
         style="fill:#F5B32C;"
         width="1.8832999"
         height="1.4791"
         id="rect66" /><rect
         x="30.9508991"
         y="40.5"
         style="fill:#F5B32C;"
         width="1.8832999"
         height="1.4792"
         id="rect68" /><rect
         x="48.3768005"
         y="37.6439018"
         style="fill:#F5B32C;"
         width="1.6453"
         height="1.2923"
         id="rect70" /><rect
         x="52.7080002"
         y="41.5754013"
         style="fill:#F5B32C;"
         width="1.6454"
         height="1.2924"
         id="rect72" /><rect
         x="50.5545006"
         y="45.5797997"
         style="fill:#F5B32C;"
         width="1.6454"
         height="1.2923"
         id="rect74" /><rect
         x="54.8857002"
         y="43.468399"
         style="fill:#F5B32C;"
         width="1.6454"
         height="1.2923"
         id="rect76" /><rect
         x="52.7080002"
         y="57.7629013"
         style="fill:#F5B32C;"
         width="1.6454"
         height="1.2924"
         id="rect78" /><rect
         x="28.4582996"
         y="52.7083015"
         style="fill:#F5B32C;"
         width="1.8832999"
         height="1.4792"
         id="rect80" /><rect
         x="11.1759386"
         y="51.9687996"
         style="fill:#F5B32C;"
         width="1.883281"
         height="1.4791"
         id="rect82" /><rect
         x="8.6833601"
         y="54.1353989"
         style="fill:#F5B32C;"
         width="1.88328"
         height="1.4792"
         id="rect84" /><rect
         x="8.6833601"
         y="47.6353989"
         style="fill:#F5B32C;"
         width="1.88328"
         height="1.4792"
         id="rect86" /><rect
         x="50.5545006"
         y="52.1038017"
         style="fill:#F5B32C;"
         width="1.6454"
         height="1.2924"
         id="rect88" /></g></g><g
     id="g90"><g
       id="g92"><rect
         x="57.471199"
         y="47.3332977"
         style="fill:#40100B;"
         width="6.5538001"
         height="16.6667004"
         id="rect94" /><rect
         x="55.0832977"
         y="47.3332977"
         style="fill:#1A0205;"
         width="2.5546"
         height="16.6667004"
         id="rect96" /><rect
         x="15.5461998"
         y="42.8332977"
         style="fill:#40100B;"
         width="12.3288002"
         height="21.1667004"
         id="rect98" /><rect
         x="13.3333302"
         y="42.8332977"
         style="fill:#1A0205;"
         width="2.37953"
         height="21.1667004"
         id="rect100" /><rect
         x="35.100502"
         y="49.0832977"
         style="fill:#40100B;"
         width="15.3994999"
         height="14.9167004"
         id="rect102" /><rect
         x="32.5833015"
         y="49.0832977"
         style="fill:#1A0205;"
         width="2.7672"
         height="14.9167004"
         id="rect104" /><rect
         y="47.3332977"
         style="fill:#40100B;"
         width="8.2204704"
         height="16.6667004"
         id="rect106" /><rect
         y="62.8125"
         style="fill:#1A0205;"
         width="64.0207977"
         height="1.1875"
         id="rect108" /></g><g
       id="g110"><g
         id="g112"><rect
           x="25.0958996"
           y="43.9166985"
           style="fill:#F5B32C;"
           width="1.8832999"
           height="1.4791"
           id="rect114" /><rect
           x="22.5791988"
           y="50.0416985"
           style="fill:#F5B32C;"
           width="1.8832999"
           height="1.4791"
           id="rect116" /><rect
           x="20.0854683"
           y="45.9166985"
           style="fill:#F5B32C;"
           width="1.88328"
           height="1.4791"
           id="rect118" /><rect
           x="17.5958805"
           y="43.9166985"
           style="fill:#F5B32C;"
           width="1.8832901"
           height="1.4791"
           id="rect120" /><rect
           x="17.5958805"
           y="47.9791985"
           style="fill:#F5B32C;"
           width="1.8832901"
           height="1.4791"
           id="rect122" /><rect
           x="25.0958996"
           y="56.0521011"
           style="fill:#F5B32C;"
           width="1.8832999"
           height="1.4792"
           id="rect124" /><rect
           x="20.0854683"
           y="56.0521011"
           style="fill:#F5B32C;"
           width="1.88328"
           height="1.4792"
           id="rect126" /><rect
           x="25.0958996"
           y="52.1146011"
           style="fill:#F5B32C;"
           width="1.8832999"
           height="1.4792"
           id="rect128" /><rect
           x="22.5791988"
           y="58.1458015"
           style="fill:#F5B32C;"
           width="1.8832999"
           height="1.4792"
           id="rect130" /><rect
           x="17.5958805"
           y="52.1146011"
           style="fill:#F5B32C;"
           width="1.8832901"
           height="1.4792"
           id="rect132" /><rect
           x="25.0958996"
           y="60.2083015"
           style="fill:#F5B32C;"
           width="1.8832999"
           height="1.4792"
           id="rect134" /><rect
           x="17.5958805"
           y="60.2083015"
           style="fill:#F5B32C;"
           width="1.8832901"
           height="1.4792"
           id="rect136" /></g><g
         id="g138"><rect
           x="45.3083992"
           y="50.0416985"
           style="fill:#F5B32C;"
           width="1.8832"
           height="1.4791"
           id="rect140" /><rect
           x="37.7249985"
           y="54.1771011"
           style="fill:#F5B32C;"
           width="1.8832999"
           height="1.4792"
           id="rect142" /><rect
           x="47.8250008"
           y="56.0521011"
           style="fill:#F5B32C;"
           width="1.8832999"
           height="1.4792"
           id="rect144" /><rect
           x="45.3083992"
           y="54.0937996"
           style="fill:#F5B32C;"
           width="1.8832"
           height="1.4791"
           id="rect146" /><rect
           x="47.8250008"
           y="52.1146011"
           style="fill:#F5B32C;"
           width="1.8832999"
           height="1.4792"
           id="rect148" /><rect
           x="40.3250008"
           y="52.1146011"
           style="fill:#F5B32C;"
           width="1.8832999"
           height="1.4792"
           id="rect150" /><rect
           x="40.3250008"
           y="58.1458015"
           style="fill:#F5B32C;"
           width="1.8832999"
           height="1.4792"
           id="rect152" /><rect
           x="47.8250008"
           y="60.2083015"
           style="fill:#F5B32C;"
           width="1.8832999"
           height="1.4792"
           id="rect154" /></g><g
         id="g156"><rect
           x="60.9355011"
           y="47.9791985"
           style="fill:#F5B32C;"
           width="1.8832999"
           height="1.4791"
           id="rect158" /><rect
           x="60.9355011"
           y="56.0521011"
           style="fill:#F5B32C;"
           width="1.8832999"
           height="1.4792"
           id="rect160" /><rect
           x="58.4459"
           y="52.1146011"
           style="fill:#F5B32C;"
           width="1.8832999"
           height="1.4792"
           id="rect162" /><rect
           x="58.4459"
           y="58.1458015"
           style="fill:#F5B32C;"
           width="1.8832999"
           height="1.4792"
           id="rect164" /></g><g
         id="g166"><rect
           x="0.7521001"
           y="47.9791985"
           style="fill:#F5B32C;"
           width="1.88332"
           height="1.4791"
           id="rect168" /><rect
           x="5.7625499"
           y="56.0521011"
           style="fill:#F5B32C;"
           width="1.88328"
           height="1.4792"
           id="rect170" /><rect
           x="3.2458601"
           y="54.0937996"
           style="fill:#F5B32C;"
           width="1.88328"
           height="1.4791"
           id="rect172" /><rect
           x="5.7625499"
           y="52.1146011"
           style="fill:#F5B32C;"
           width="1.88328"
           height="1.4792"
           id="rect174" /><rect
           x="5.7625499"
           y="60.2083015"
           style="fill:#F5B32C;"
           width="1.88328"
           height="1.4792"
           id="rect176" /></g></g></g><g
     id="g178" /><g
     id="g180" /><g
     id="g182" /><g
     id="g184" /><g
     id="g186" /><g
     id="g188" /></svg>