<?xml version="1.0" encoding="utf-8"?>
<!-- Generator: Adobe Illustrator 15.0.2, SVG Export Plug-In . SVG Version: 6.00 Build 0)  -->
<!DOCTYPE svg PUBLIC "-//W3C//DTD SVG 1.1//EN" "http://www.w3.org/Graphics/SVG/1.1/DTD/svg11.dtd">
<svg version="1.1" id="レイヤー_1" xmlns="http://www.w3.org/2000/svg" xmlns:xlink="http://www.w3.org/1999/xlink" x="0px"
	 y="0px" width="64px" height="64px" viewBox="0 0 64 64" enable-background="new 0 0 64 64" xml:space="preserve">
<g>
	<linearGradient id="SVGID_1_" gradientUnits="userSpaceOnUse" x1="31.9995" y1="2.9956" x2="31.9995" y2="60.9864">
		<stop  offset="0" style="stop-color:#FF1200"/>
		<stop  offset="1" style="stop-color:#FF0000"/>
	</linearGradient>
	<path fill="url(#SVGID_1_)" stroke="#BF0000" stroke-width="2" stroke-miterlimit="10" d="M62.205,50.205c0,6.627-5.373,12-12,12
		h-36.41c-6.627,0-12-5.373-12-12v-36.41c0-6.627,5.373-12,12-12h36.41c6.627,0,12,5.373,12,12V50.205z"/>
	<g>
		<path opacity="0.28" fill="#FFFFFF" d="M2.672,13.368c-0.032,0.354-0.054,0.71-0.054,1.071v12.594
			c0.006,0.006,0.012,0.012,0.017,0.018L2.672,13.368z"/>
		<path opacity="0.28" fill="#FFFFFF" d="M60.106,23.569c1.188-5.802,1.222-9.417,1.222-10.193
			C60.79,7.428,55.797,2.767,49.71,2.767H14.291c-6.076,0-11.063,4.642-11.617,10.572c0.02,0.349,0.497,4.034,1.293,10.307
			C11.206,30.7,21.092,35.055,32,35.055C42.945,35.055,52.859,30.669,60.106,23.569z"/>
		<path opacity="0.28" fill="#FFFFFF" d="M61.328,13.379l0.039,13.667c0.005-0.005,0.01-0.01,0.015-0.015V14.439
			C61.382,14.081,61.359,13.729,61.328,13.379z"/>
	</g>
	<path fill="#FFFFFF" d="M2.674,27.586c0,0-0.006-10.92-0.028-13.859c-0.027-3.6,3.243-10.89,10.375-10.89
		c6.639,0,16.803,0,16.803,0S17.118,3.651,13.02,4.471c-4.098,0.82-7.493,6.044-8.442,9.263C3.198,18.415,2.674,27.586,2.674,27.586
		z"/>
	<path fill="#BC0000" d="M61.001,37.832c0,0,0.006,10.233,0.027,12.989c0.026,3.373-3.141,10.207-10.048,10.207
		c-6.428,0-16.27,0-16.27,0s12.304-0.764,16.272-1.532c3.967-0.769,7.254-5.663,8.174-8.681
		C60.493,46.427,61.001,37.832,61.001,37.832z"/>
	<g>
		<path fill="#FFFFFF" d="M30.166,36.615c0,7.143-2.767,10.717-8.3,10.717c-3.707,0-6.192-1.666-7.454-4.998
			c-0.807-2.096-1.209-5.506-1.209-10.233c0-4.486,0.47-7.897,1.41-10.234c1.37-3.465,3.814-5.198,7.333-5.198
			c2.848,0,4.97,0.994,6.366,2.981c1.209,1.72,1.813,4.043,1.813,6.971h-6.89c0.054-0.43,0.08-0.926,0.08-1.49
			c0-1.692-0.43-2.538-1.289-2.538s-1.397,1.464-1.612,4.392c-0.08,0.994-0.12,2.727-0.12,5.198c0,3.813,0.053,6.111,0.16,6.889
			c0.162,1.398,0.672,2.096,1.531,2.096c0.511,0,0.9-0.484,1.169-1.449c0.215-0.754,0.322-1.451,0.322-2.096
			c0-0.592-0.026-0.928-0.08-1.006H30.166z"/>
		<path fill="#FFFFFF" d="M50.797,46.486H33.834c0.106-0.566,0.16-1.102,0.16-1.613V18.925c0-0.672-0.054-1.249-0.16-1.732h7.05
			c-0.107,0.537-0.16,1.101-0.16,1.692V40.32h7.857c0.752,0,1.49-0.053,2.216-0.16V46.486z"/>
	</g>
</g>
</svg>
