<?xml version="1.0" encoding="utf-8"?>
<!-- Generator: Adobe Illustrator 15.0.2, SVG Export Plug-In . SVG Version: 6.00 Build 0)  -->
<!DOCTYPE svg PUBLIC "-//W3C//DTD SVG 1.1//EN" "http://www.w3.org/Graphics/SVG/1.1/DTD/svg11.dtd">
<svg version="1.1" id="レイヤー_1" xmlns="http://www.w3.org/2000/svg" xmlns:xlink="http://www.w3.org/1999/xlink" x="0px"
	 y="0px" width="64px" height="64px" viewBox="0 0 64 64" enable-background="new 0 0 64 64" xml:space="preserve">
<g>
	<g>
		<g>
			<linearGradient id="SVGID_1_" gradientUnits="userSpaceOnUse" x1="5.6045" y1="16.0195" x2="70.0233" y2="79.7212">
				<stop  offset="0" style="stop-color:#444444"/>
				<stop  offset="1" style="stop-color:#000000"/>
			</linearGradient>
			<path fill="url(#SVGID_1_)" d="M60.52,58.157c0,0.532-0.436,0.968-0.968,0.968H4.448c-0.533,0-0.968-0.436-0.968-0.968V26.085
				c0-0.533,0.436-0.968,0.968-0.968h55.104c0.532,0,0.968,0.436,0.968,0.968V58.157z"/>
		</g>
		<linearGradient id="SVGID_2_" gradientUnits="userSpaceOnUse" x1="31.9995" y1="24.125" x2="31.9995" y2="30.7512">
			<stop  offset="0" style="stop-color:#000000"/>
			<stop  offset="1" style="stop-color:#000000;stop-opacity:0"/>
		</linearGradient>
		<rect x="3.48" y="25.867" fill="url(#SVGID_2_)" width="57.04" height="8.008"/>
		
			<line fill="none" stroke="#FFFFFF" stroke-linecap="square" stroke-linejoin="bevel" stroke-miterlimit="10" x1="4.125" y1="35.75" x2="60.52" y2="35.75"/>
		
			<line fill="none" stroke="#FFFFFF" stroke-linecap="square" stroke-linejoin="bevel" stroke-miterlimit="10" x1="4.125" y1="46.625" x2="27.125" y2="46.625"/>
		
			<line fill="none" stroke="#FFFFFF" stroke-linecap="square" stroke-linejoin="bevel" stroke-miterlimit="10" x1="27.875" y1="35.75" x2="27.875" y2="59.125"/>
		<g>
			
				<path fill="none" stroke="#000000" stroke-width="1.5" stroke-linecap="square" stroke-linejoin="bevel" stroke-miterlimit="10" d="
				M60.52,58.157c0,0.532-0.436,0.968-0.968,0.968H4.448c-0.533,0-0.968-0.436-0.968-0.968V26.085c0-0.533,0.436-0.968,0.968-0.968
				h55.104c0.532,0,0.968,0.436,0.968,0.968V58.157z"/>
		</g>
	</g>
	<g>
		<g>
			
				<rect x="14.121" y="18.733" fill="#231815" stroke="#231815" stroke-width="0.878" stroke-miterlimit="10" width="46.754" height="7.134"/>
			<g>
				<defs>
					<rect id="SVGID_3_" x="14.121" y="18.733" width="46.754" height="7.134"/>
				</defs>
				<clipPath id="SVGID_4_">
					<use xlink:href="#SVGID_3_"  overflow="visible"/>
				</clipPath>
				<polygon clip-path="url(#SVGID_4_)" fill="#FFFFFF" points="55.497,14.453 61.424,14.453 54.399,29.05 48.474,29.05 				"/>
				<polyline clip-path="url(#SVGID_4_)" fill="#FFFFFF" points="50.266,14.453 43.241,29.05 37.315,29.05 44.339,14.453 				"/>
				<polyline clip-path="url(#SVGID_4_)" fill="#FFFFFF" points="39.108,14.453 32.083,29.05 26.157,29.05 33.181,14.453 				"/>
				<polyline clip-path="url(#SVGID_4_)" fill="#FFFFFF" points="27.95,14.453 20.926,29.05 15,29.05 22.023,14.453 				"/>
			</g>
		</g>
		<g>
			<polygon fill="#231815" stroke="#231815" stroke-width="0.878" stroke-miterlimit="10" points="3.093,18.883 61.369,13 
				60.656,5.902 3.093,11.653 			"/>
			<g>
				<defs>
					
						<rect id="SVGID_5_" x="14.374" y="8.218" transform="matrix(-0.995 0.0998 -0.0998 -0.995 76.4911 19.7421)" width="46.755" height="7.133"/>
				</defs>
				<clipPath id="SVGID_6_">
					<use xlink:href="#SVGID_5_"  overflow="visible"/>
				</clipPath>
				<polygon clip-path="url(#SVGID_6_)" fill="#FFFFFF" points="56.443,17.795 62.342,17.204 53.895,3.381 47.998,3.973 				"/>
				<polyline clip-path="url(#SVGID_6_)" fill="#FFFFFF" points="51.238,18.318 42.793,4.495 36.896,5.086 45.34,18.909 				"/>
				<polyline clip-path="url(#SVGID_6_)" fill="#FFFFFF" points="40.137,19.432 31.69,5.608 25.793,6.2 34.24,20.022 				"/>
				<polyline clip-path="url(#SVGID_6_)" fill="#FFFFFF" points="29.034,20.545 20.588,6.722 14.691,7.314 23.137,21.136 				"/>
			</g>
		</g>
		
			<polygon fill="#141414" stroke="#000000" stroke-width="0.878" stroke-linecap="square" stroke-linejoin="bevel" stroke-miterlimit="10" points="
			15.252,17.703 2.631,11.557 2.631,25.91 15.252,25.91 		"/>
		<g>
			
				<circle fill="none" stroke="#6D6D6D" stroke-width="0.7221" stroke-linecap="square" stroke-linejoin="bevel" stroke-miterlimit="10" cx="5.256" cy="16.723" r="1.131"/>
			<circle fill="#F3FAFF" cx="5.256" cy="16.723" r="1.131"/>
		</g>
		<g>
			
				<circle fill="none" stroke="#6D6D6D" stroke-width="0.7221" stroke-linecap="square" stroke-linejoin="bevel" stroke-miterlimit="10" cx="5.256" cy="22.994" r="1.131"/>
			<circle fill="#F3FAFF" cx="5.256" cy="22.994" r="1.131"/>
		</g>
		<g>
			
				<circle fill="none" stroke="#6D6D6D" stroke-width="0.7221" stroke-linecap="square" stroke-linejoin="bevel" stroke-miterlimit="10" cx="11.371" cy="22.994" r="1.131"/>
			<circle fill="#F3FAFF" cx="11.371" cy="22.994" r="1.131"/>
		</g>
	</g>
</g>
</svg>
