<?xml version="1.0" encoding="utf-8"?>
<!-- Generator: Adobe Illustrator 15.0.2, SVG Export Plug-In . SVG Version: 6.00 Build 0)  -->
<!DOCTYPE svg PUBLIC "-//W3C//DTD SVG 1.1//EN" "http://www.w3.org/Graphics/SVG/1.1/DTD/svg11.dtd">
<svg version="1.1" id="レイヤー_1" xmlns="http://www.w3.org/2000/svg" xmlns:xlink="http://www.w3.org/1999/xlink" x="0px"
	 y="0px" width="64px" height="64px" viewBox="0 0 64 64" style="enable-background:new 0 0 64 64;" xml:space="preserve">
<g>
	<path style="fill:#40210F;" d="M56.8964844,58.5439453H7.1474609v-3.5H8.625V23.6005859H2.734375L32,5.4560547
		l29.265625,18.1445313H55.375v31.4433594h1.5214844V58.5439453z M8.1474609,57.5439453h47.7490234v-1.5H54.375V22.6005859
		h3.3808594L32,6.6328125L6.2451172,22.6005859H9.625v33.4433594H8.1474609V57.5439453z"/>
	<linearGradient id="SVGID_1_" gradientUnits="userSpaceOnUse" x1="31.9995117" y1="21.1274414" x2="31.9995098" y2="49.8877106">
		<stop  offset="0" style="stop-color:#C4A387"/>
		<stop  offset="1" style="stop-color:#FFF1BF"/>
	</linearGradient>
	<rect x="12.2919922" y="21.5439453" style="fill:url(#SVGID_1_);" width="39.4160156" height="36.5"/>
	<g>
		<path style="fill:#40210F;" d="M16.625,58.5439453h-8V22.6005859h8V58.5439453z M9.625,57.5439453h6V23.6005859h-6V57.5439453z"/>
		<path style="fill:#40210F;" d="M29.5419922,58.5439453h-8V22.6005859h8V58.5439453z M22.5419922,57.5439453h6V23.6005859h-6
			V57.5439453z"/>
		<path style="fill:#40210F;" d="M42.4580078,58.5439453h-8V22.6005859h8V58.5439453z M35.4580078,57.5439453h6V23.6005859h-6
			V57.5439453z"/>
		<path style="fill:#40210F;" d="M55.375,58.5439453h-8V22.6005859h8V58.5439453z M48.375,57.5439453h6V23.6005859h-6V57.5439453z"
			/>
	</g>
	<g>
		<linearGradient id="SVGID_2_" gradientUnits="userSpaceOnUse" x1="19.0415039" y1="36.4609375" x2="19.0415039" y2="24.7927246">
			<stop  offset="0" style="stop-color:#004A7F"/>
			<stop  offset="1" style="stop-color:#000000"/>
		</linearGradient>
		<rect x="17.4580078" y="26.5439453" style="fill:url(#SVGID_2_);" width="3.1669922" height="10.9169922"/>
		<linearGradient id="SVGID_3_" gradientUnits="userSpaceOnUse" x1="32.0004883" y1="36.4609375" x2="32.0004883" y2="24.7927246">
			<stop  offset="0" style="stop-color:#004A7F"/>
			<stop  offset="1" style="stop-color:#000000"/>
		</linearGradient>
		<rect x="30.4169922" y="26.5439453" style="fill:url(#SVGID_3_);" width="3.1669922" height="10.9169922"/>
		<linearGradient id="SVGID_4_" gradientUnits="userSpaceOnUse" x1="44.9599609" y1="36.4609375" x2="44.9599609" y2="24.7927246">
			<stop  offset="0" style="stop-color:#004A7F"/>
			<stop  offset="1" style="stop-color:#000000"/>
		</linearGradient>
		<rect x="43.3769531" y="26.5439453" style="fill:url(#SVGID_4_);" width="3.1660156" height="10.9169922"/>
		<linearGradient id="SVGID_5_" gradientUnits="userSpaceOnUse" x1="32.0004883" y1="56.9824219" x2="32.0004883" y2="44.6018066">
			<stop  offset="0" style="stop-color:#004A7F"/>
			<stop  offset="1" style="stop-color:#000000"/>
		</linearGradient>
		<rect x="18.8134766" y="46.4609375" style="fill:url(#SVGID_5_);" width="26.3740234" height="11.5830078"/>
	</g>
	<g>
		<linearGradient id="SVGID_6_" gradientUnits="userSpaceOnUse" x1="9.7084961" y1="40.5722656" x2="16.2936211" y2="40.5722656">
			<stop  offset="0" style="stop-color:#FFE8BF"/>
			<stop  offset="0.533333" style="stop-color:#C4A387"/>
			<stop  offset="1" style="stop-color:#FFF1BF"/>
		</linearGradient>
		<rect x="9.125" y="23.1005859" style="fill:url(#SVGID_6_);" width="7" height="34.9433594"/>
		<linearGradient id="SVGID_7_" gradientUnits="userSpaceOnUse" x1="22.6254883" y1="40.5722656" x2="29.2106133" y2="40.5722656">
			<stop  offset="0" style="stop-color:#FFE8BF"/>
			<stop  offset="0.533333" style="stop-color:#C4A387"/>
			<stop  offset="1" style="stop-color:#FFF1BF"/>
		</linearGradient>
		<rect x="22.0419922" y="23.1005859" style="fill:url(#SVGID_7_);" width="7" height="34.9433594"/>
		<linearGradient id="SVGID_8_" gradientUnits="userSpaceOnUse" x1="35.5419922" y1="40.5722656" x2="42.1271172" y2="40.5722656">
			<stop  offset="0" style="stop-color:#FFE8BF"/>
			<stop  offset="0.533333" style="stop-color:#C4A387"/>
			<stop  offset="1" style="stop-color:#FFF1BF"/>
		</linearGradient>
		<rect x="34.9580078" y="23.1005859" style="fill:url(#SVGID_8_);" width="7" height="34.9433594"/>
		<linearGradient id="SVGID_9_" gradientUnits="userSpaceOnUse" x1="48.4589844" y1="40.5722656" x2="55.0441093" y2="40.5722656">
			<stop  offset="0" style="stop-color:#FFE8BF"/>
			<stop  offset="0.533333" style="stop-color:#C4A387"/>
			<stop  offset="1" style="stop-color:#FFF1BF"/>
		</linearGradient>
		<rect x="47.875" y="23.1005859" style="fill:url(#SVGID_9_);" width="7" height="34.9433594"/>
	</g>
	<path style="fill:#40210F;" d="M18.1035156,58.5439453H7.1474609v-3.5h10.9560547V58.5439453z M8.1474609,57.5439453h8.9560547
		v-1.5H8.1474609V57.5439453z"/>
	<path style="fill:#40210F;" d="M31.0205078,58.5439453H20.0634766v-3.5h10.9570313V58.5439453z M21.0634766,57.5439453h8.9570313
		v-1.5h-8.9570313V57.5439453z"/>
	<path style="fill:#77634D;" d="M61.265625,23.6005859H2.734375L32,5.4560547L61.265625,23.6005859z M6.2451172,22.6005859
		h51.5107422L32,6.6328125L6.2451172,22.6005859z"/>
	<path style="fill:#40210F;" d="M43.9804688,58.5439453H33.0234375v-3.5h10.9570313V58.5439453z M34.0234375,57.5439453h8.9570313
		v-1.5h-8.9570313V57.5439453z"/>
	<path style="fill:#40210F;" d="M56.8964844,58.5439453H45.9394531v-3.5h10.9570313V58.5439453z M46.9394531,57.5439453h8.9570313
		v-1.5h-8.9570313V57.5439453z"/>
	<linearGradient id="SVGID_10_" gradientUnits="userSpaceOnUse" x1="9.7861328" y1="55.3867188" x2="19.5351696" y2="60.2192497">
		<stop  offset="0" style="stop-color:#FFE8BF"/>
		<stop  offset="0.533333" style="stop-color:#C4A387"/>
		<stop  offset="1" style="stop-color:#FFF1BF"/>
	</linearGradient>
	<rect x="7.6474609" y="55.5439453" style="fill:url(#SVGID_10_);" width="9.9560547" height="2.5"/>
	<linearGradient id="SVGID_11_" gradientUnits="userSpaceOnUse" x1="22.7021484" y1="55.3867188" x2="32.4521332" y2="60.2197189">
		<stop  offset="0" style="stop-color:#FFE8BF"/>
		<stop  offset="0.533333" style="stop-color:#C4A387"/>
		<stop  offset="1" style="stop-color:#FFF1BF"/>
	</linearGradient>
	<rect x="20.5634766" y="55.5439453" style="fill:url(#SVGID_11_);" width="9.9570313" height="2.5"/>
	<linearGradient id="SVGID_12_" gradientUnits="userSpaceOnUse" x1="35.6621094" y1="55.3857422" x2="45.4120941" y2="60.2187424">
		<stop  offset="0" style="stop-color:#FFE8BF"/>
		<stop  offset="0.533333" style="stop-color:#C4A387"/>
		<stop  offset="1" style="stop-color:#FFF1BF"/>
	</linearGradient>
	<rect x="33.5234375" y="55.5439453" style="fill:url(#SVGID_12_);" width="9.9570313" height="2.5"/>
	<linearGradient id="SVGID_13_" gradientUnits="userSpaceOnUse" x1="48.578125" y1="55.3857422" x2="58.3281097" y2="60.2187424">
		<stop  offset="0" style="stop-color:#FFE8BF"/>
		<stop  offset="0.533333" style="stop-color:#C4A387"/>
		<stop  offset="1" style="stop-color:#FFF1BF"/>
	</linearGradient>
	<rect x="46.4394531" y="55.5439453" style="fill:url(#SVGID_13_);" width="9.9570313" height="2.5"/>
	<linearGradient id="SVGID_14_" gradientUnits="userSpaceOnUse" x1="31.9995117" y1="7.4443359" x2="31.9995117" y2="25.4135056">
		<stop  offset="0" style="stop-color:#C4A387"/>
		<stop  offset="1" style="stop-color:#FFF1BF"/>
	</linearGradient>
	<polygon style="fill:url(#SVGID_14_);" points="4.4892578,23.1005859 32,6.0439453 59.5107422,23.1005859 	"/>
	<polygon style="fill:#77634D;" points="12.1689453,21.0439453 32,8.53125 51.8310547,21.0439453 	"/>
	<linearGradient id="SVGID_15_" gradientUnits="userSpaceOnUse" x1="31.9995117" y1="12.7939453" x2="31.9995098" y2="59.1394196">
		<stop  offset="0" style="stop-color:#FFE8BF"/>
		<stop  offset="0.533333" style="stop-color:#C4A387"/>
		<stop  offset="1" style="stop-color:#FFF1BF"/>
	</linearGradient>
	<polygon style="fill:url(#SVGID_15_);" points="14.3027344,20.4609375 32,9.2939453 49.6972656,20.4609375 	"/>
</g>
</svg>
