<?xml version="1.0" encoding="utf-8"?>
<!-- Generator: Adobe Illustrator 15.0.0, SVG Export Plug-In . SVG Version: 6.00 Build 0)  -->
<!DOCTYPE svg PUBLIC "-//W3C//DTD SVG 1.1//EN" "http://www.w3.org/Graphics/SVG/1.1/DTD/svg11.dtd">
<svg version="1.1" id="レイヤー_1" xmlns="http://www.w3.org/2000/svg" xmlns:xlink="http://www.w3.org/1999/xlink" x="0px"
	 y="0px" width="64px" height="64px" viewBox="0 0 64 64" enable-background="new 0 0 64 64" xml:space="preserve">
<g>
	<polygon fill="none" stroke="#40210F" stroke-miterlimit="10" points="54.875,23.056 59.511,23.056 32,6 4.489,23.056 
		9.125,23.056 9.125,55.5 7.647,55.5 7.647,58 9.125,58 12.292,58 16.125,58 17.604,58 20.563,58 22.042,58 29.042,58 30.52,58 
		33.523,58 34.958,58 41.958,58 43.48,58 46.439,58 47.875,58 51.708,58 54.875,58 56.396,58 56.396,55.5 54.875,55.5 	"/>
	<linearGradient id="SVGID_1_" gradientUnits="userSpaceOnUse" x1="31.9995" y1="21.0835" x2="31.9995" y2="49.8438">
		<stop  offset="0" style="stop-color:#C4A387"/>
		<stop  offset="1" style="stop-color:#FFF1BF"/>
	</linearGradient>
	<rect x="12.292" y="21.5" fill="url(#SVGID_1_)" width="39.416" height="36.5"/>
	<g>
		<rect x="9.125" y="23.056" fill="none" stroke="#40210F" stroke-miterlimit="10" width="7" height="34.944"/>
		<rect x="22.042" y="23.056" fill="none" stroke="#40210F" stroke-miterlimit="10" width="7" height="34.944"/>
		<rect x="34.958" y="23.056" fill="none" stroke="#40210F" stroke-miterlimit="10" width="7" height="34.944"/>
		<rect x="47.875" y="23.056" fill="none" stroke="#40210F" stroke-miterlimit="10" width="7" height="34.944"/>
	</g>
	<g>
		<linearGradient id="SVGID_2_" gradientUnits="userSpaceOnUse" x1="19.041" y1="36.417" x2="19.041" y2="24.7488">
			<stop  offset="0" style="stop-color:#004A7F"/>
			<stop  offset="1" style="stop-color:#000000"/>
		</linearGradient>
		<rect x="17.458" y="26.5" fill="url(#SVGID_2_)" width="3.167" height="10.917"/>
		<linearGradient id="SVGID_3_" gradientUnits="userSpaceOnUse" x1="32.0005" y1="36.417" x2="32.0005" y2="24.7488">
			<stop  offset="0" style="stop-color:#004A7F"/>
			<stop  offset="1" style="stop-color:#000000"/>
		</linearGradient>
		<rect x="30.417" y="26.5" fill="url(#SVGID_3_)" width="3.167" height="10.917"/>
		<linearGradient id="SVGID_4_" gradientUnits="userSpaceOnUse" x1="44.96" y1="36.417" x2="44.96" y2="24.7488">
			<stop  offset="0" style="stop-color:#004A7F"/>
			<stop  offset="1" style="stop-color:#000000"/>
		</linearGradient>
		<rect x="43.377" y="26.5" fill="url(#SVGID_4_)" width="3.166" height="10.917"/>
		<linearGradient id="SVGID_5_" gradientUnits="userSpaceOnUse" x1="32.0005" y1="56.9385" x2="32.0005" y2="44.5579">
			<stop  offset="0" style="stop-color:#004A7F"/>
			<stop  offset="1" style="stop-color:#000000"/>
		</linearGradient>
		<rect x="18.813" y="46.417" fill="url(#SVGID_5_)" width="26.375" height="11.583"/>
	</g>
	<g>
		<linearGradient id="SVGID_6_" gradientUnits="userSpaceOnUse" x1="9.7085" y1="40.5283" x2="16.2936" y2="40.5283">
			<stop  offset="0" style="stop-color:#FFE8BF"/>
			<stop  offset="0.5333" style="stop-color:#C4A387"/>
			<stop  offset="1" style="stop-color:#FFF1BF"/>
		</linearGradient>
		<rect x="9.125" y="23.056" fill="url(#SVGID_6_)" width="7" height="34.944"/>
		<linearGradient id="SVGID_7_" gradientUnits="userSpaceOnUse" x1="22.6255" y1="40.5283" x2="29.2106" y2="40.5283">
			<stop  offset="0" style="stop-color:#FFE8BF"/>
			<stop  offset="0.5333" style="stop-color:#C4A387"/>
			<stop  offset="1" style="stop-color:#FFF1BF"/>
		</linearGradient>
		<rect x="22.042" y="23.056" fill="url(#SVGID_7_)" width="7" height="34.944"/>
		<linearGradient id="SVGID_8_" gradientUnits="userSpaceOnUse" x1="35.542" y1="40.5283" x2="42.1271" y2="40.5283">
			<stop  offset="0" style="stop-color:#FFE8BF"/>
			<stop  offset="0.5333" style="stop-color:#C4A387"/>
			<stop  offset="1" style="stop-color:#FFF1BF"/>
		</linearGradient>
		<rect x="34.958" y="23.056" fill="url(#SVGID_8_)" width="7" height="34.944"/>
		<linearGradient id="SVGID_9_" gradientUnits="userSpaceOnUse" x1="48.459" y1="40.5283" x2="55.0441" y2="40.5283">
			<stop  offset="0" style="stop-color:#FFE8BF"/>
			<stop  offset="0.5333" style="stop-color:#C4A387"/>
			<stop  offset="1" style="stop-color:#FFF1BF"/>
		</linearGradient>
		<rect x="47.875" y="23.056" fill="url(#SVGID_9_)" width="7" height="34.944"/>
	</g>
	<rect x="7.647" y="55.5" fill="none" stroke="#40210F" stroke-miterlimit="10" width="9.957" height="2.5"/>
	<rect x="20.563" y="55.5" fill="none" stroke="#40210F" stroke-miterlimit="10" width="9.957" height="2.5"/>
	<polygon fill="none" stroke="#77634D" stroke-miterlimit="10" points="4.489,23.056 32,6 59.511,23.056 	"/>
	<rect x="33.523" y="55.5" fill="none" stroke="#40210F" stroke-miterlimit="10" width="9.957" height="2.5"/>
	<rect x="46.439" y="55.5" fill="none" stroke="#40210F" stroke-miterlimit="10" width="9.957" height="2.5"/>
	<linearGradient id="SVGID_10_" gradientUnits="userSpaceOnUse" x1="9.7852" y1="55.3418" x2="19.5351" y2="60.1748">
		<stop  offset="0" style="stop-color:#FFE8BF"/>
		<stop  offset="0.5333" style="stop-color:#C4A387"/>
		<stop  offset="1" style="stop-color:#FFF1BF"/>
	</linearGradient>
	<rect x="7.647" y="55.5" fill="url(#SVGID_10_)" width="9.957" height="2.5"/>
	<linearGradient id="SVGID_11_" gradientUnits="userSpaceOnUse" x1="22.7021" y1="55.3428" x2="32.4521" y2="60.1758">
		<stop  offset="0" style="stop-color:#FFE8BF"/>
		<stop  offset="0.5333" style="stop-color:#C4A387"/>
		<stop  offset="1" style="stop-color:#FFF1BF"/>
	</linearGradient>
	<rect x="20.563" y="55.5" fill="url(#SVGID_11_)" width="9.957" height="2.5"/>
	<linearGradient id="SVGID_12_" gradientUnits="userSpaceOnUse" x1="35.6621" y1="55.3418" x2="45.4121" y2="60.1748">
		<stop  offset="0" style="stop-color:#FFE8BF"/>
		<stop  offset="0.5333" style="stop-color:#C4A387"/>
		<stop  offset="1" style="stop-color:#FFF1BF"/>
	</linearGradient>
	<rect x="33.523" y="55.5" fill="url(#SVGID_12_)" width="9.957" height="2.5"/>
	<linearGradient id="SVGID_13_" gradientUnits="userSpaceOnUse" x1="48.5781" y1="55.3418" x2="58.3281" y2="60.1748">
		<stop  offset="0" style="stop-color:#FFE8BF"/>
		<stop  offset="0.5333" style="stop-color:#C4A387"/>
		<stop  offset="1" style="stop-color:#FFF1BF"/>
	</linearGradient>
	<rect x="46.439" y="55.5" fill="url(#SVGID_13_)" width="9.957" height="2.5"/>
	<linearGradient id="SVGID_14_" gradientUnits="userSpaceOnUse" x1="31.9995" y1="7.4004" x2="31.9995" y2="25.369">
		<stop  offset="0" style="stop-color:#C4A387"/>
		<stop  offset="1" style="stop-color:#FFF1BF"/>
	</linearGradient>
	<polygon fill="url(#SVGID_14_)" points="4.489,23.056 32,6 59.511,23.056 	"/>
	<polygon fill="#77634D" points="12.169,21 32,8.487 51.831,21 	"/>
	<linearGradient id="SVGID_15_" gradientUnits="userSpaceOnUse" x1="31.9995" y1="12.75" x2="31.9995" y2="59.0955">
		<stop  offset="0" style="stop-color:#FFE8BF"/>
		<stop  offset="0.5333" style="stop-color:#C4A387"/>
		<stop  offset="1" style="stop-color:#FFF1BF"/>
	</linearGradient>
	<polygon fill="url(#SVGID_15_)" points="14.302,20.417 32,9.25 49.697,20.417 	"/>
</g>
</svg>
