<?xml version="1.0" encoding="iso-8859-1"?>
<!-- Generator: Adobe Illustrator 16.0.0, SVG Export Plug-In . SVG Version: 6.00 Build 0)  -->
<!DOCTYPE svg PUBLIC "-//W3C//DTD SVG 1.1//EN" "http://www.w3.org/Graphics/SVG/1.1/DTD/svg11.dtd">
<svg version="1.1" xmlns="http://www.w3.org/2000/svg" xmlns:xlink="http://www.w3.org/1999/xlink" x="0px" y="0px" width="64px"
	 height="64px" viewBox="0 0 64 64" style="enable-background:new 0 0 64 64;" xml:space="preserve">
<g id="person_x5F_climbing_x28_p_x29_">
	<g id="g320_1_">
		
			<radialGradient id="path11_2_" cx="445.8359" cy="-156.3262" r="15.3467" gradientTransform="matrix(0.8955 0.445 0.445 -0.8955 -288.3721 -315.6292)" gradientUnits="userSpaceOnUse">
			<stop  offset="0" style="stop-color:#F285B6"/>
			<stop  offset="0.5054" style="stop-color:#F15D5E"/>
			<stop  offset="1" style="stop-color:#E1263E"/>
		</radialGradient>
		
			<path id="path11_1_" style="fill:url(#path11_2_);stroke:#231815;stroke-width:2;stroke-linecap:round;stroke-linejoin:round;stroke-miterlimit:10;" d="
			M39.9,26.5c0.1,0.2,2,4.4,1.699,7.7C41.5,34.5,41.4,34.8,41.4,35.1c-0.301,1.5-0.2,2.601,0.1,3.5l0,0l0,0
			c1,2.801,4.1,3.101,4.1,3.101c-1.5-2.2,1-4.2,2.4-5.101c0.2-0.1,0.5-0.3,0.7-0.399h0.1l0,0c2.2-1.4,5-3.601,6.7-7.2
			c3.5-7.3-0.4-16.4-7.8-20.1c-2-1-4.101-1.5-6.101-1.6l0,0c0,0,0,0-0.1,0c-0.2,0-0.4,0-0.7,0c-0.2,0-0.3,0-0.5,0s-0.399,0-0.6,0
			c-0.3,0-0.601,0.1-0.9,0.1c-0.1,0-0.3,0-0.399,0.1C38.1,7.6,37.8,7.6,37.5,7.7h-0.1c-0.101,0-0.101,0-0.2,0H37.1
			c-2,0.5-3.899,1.5-5.6,2.8l0,0l0,0c-1.2,0.9-2.2,2.1-3,3.4c1.4,2.5,4.3,6.1,10.1,8.9c0,0,0.101,3-0.1,4.1L39.9,26.5z"/>
		<path id="path13_1_" style="fill:#231815;stroke:#231815;stroke-width:2;stroke-miterlimit:10;" d="M32.2,47.4
			c-1.7-2.101-6.4-3.101-9.6-2.2c-3.3,0.899-3.4,2.3-1.6,2.7c1.8,0.399,3.6,0.199,6.1,3.199C29.7,54.1,33.4,48.9,32.2,47.4z"/>
		<path id="path15_1_" style="fill:#231815;stroke:#231815;stroke-width:2;stroke-miterlimit:10;" d="M19.1,43.7
			c1.1-0.2,2.2,0.6,2.4,1.7c0.2,1.1-0.6,2.199-1.7,2.399L19.1,43.7z"/>
		<path id="path17_1_" style="fill:#3E3B3A;" d="M32.2,47.4c-1.7-2.101-6.4-3.101-9.6-2.2c-3.3,0.899-3.4,2.3-1.6,2.7
			c1.8,0.399,3.6,0.199,6.1,3.199C29.7,54.1,33.4,48.9,32.2,47.4z"/>
		<path id="path19_1_" style="fill:#9B9C9D;" d="M19.1,43.7c1.1-0.2,2.2,0.6,2.4,1.7c0.2,1.1-0.6,2.199-1.7,2.399L19.1,43.7z"/>
		<g>
			<path id="path21_1_" style="fill:#5A5858;" d="M0,64h22.2c0.4-4.1,0.5-8,0.1-10.7c-0.7-4.7-0.8-9.7-0.9-13.8
				c-0.2-6.3-0.2-8.2-2.2-8.2c-0.2,0-0.6,0.1-0.8,0.2c-0.6,0.3-2.8,1.1-4.8,1.8C12.9,26.5,11.5,7.1,11,0H0V64z"/>
			<path id="path23_1_" style="fill:#868686;" d="M0,64h20.7c0.4-4.1,0.6-7.8,0.2-10.5c-1.4-9.7-0.5-21.3-1.8-20.6
				c-1.2,0.6-6.8,2.5-6.8,2.5C11.8,31.2,10.1,7.8,9.5,0H0V64z"/>
			<path id="path25_1_" style="fill:#A7C2CA;" d="M8.8,17.7C8.7,26.5,9.7,50,10.3,55c0.3,2.8,1.3-9.6,1.8-20.7C11.5,28,10,7.3,9.5,0
				H9C8.5,4.8,8.8,12.7,8.8,17.7z"/>
			<path id="path27_1_" style="fill:#A7C2CA;" d="M19.7,34.7C19,43,17.9,58,18,60.2c0,0.8,0.3,2.2,0.8,3.8h1.9
				c0.4-4.1,0.6-7.8,0.2-10.5C19.8,46.3,20,38.2,19.7,34.7z"/>
			<path id="path29_1_" style="fill:#8C9394;" d="M11.3,56.9c-0.4,2-0.4,4.399-0.5,7.1h5.4c-0.4-2.1-0.7-3.9-0.9-4.8
				C14.4,56.1,12.5,50.4,11.3,56.9z"/>
			<path id="path31_1_" style="fill:#8C9394;" d="M6.2,50.3C6,47,5.9,42,3.5,48.2C2.2,51.5,1.4,53.6,0,56.5V64h6.1
				c0-0.4,0-0.8,0-1.2C6.1,58.2,6.4,53.6,6.2,50.3z"/>
			<path id="path33_1_" style="fill:#8C9394;" d="M4.1,15.3c-0.5,3.7,0.4,11,0.4,11s3.4-5.5,1.7-18.7C6.2,7.6,4.6,11.6,4.1,15.3z"/>
			<g id="g318_1_">
				<path id="path316_1_" style="fill:none;" d="M0,64h22.2c0.4-4.1,0.5-8,0.1-10.7c-0.7-4.7-0.8-9.7-0.9-13.8
					c-0.2-6.3-0.2-8.2-2.2-8.2c-0.2,0-0.6,0.1-0.8,0.2c-0.6,0.3-2.8,1.1-4.8,1.8C12.9,26.5,11.5,7.1,11,0H0V64z"/>
			</g>
		</g>
		<path id="path35_1_" style="fill:#231815;stroke:#231815;stroke-width:2;stroke-miterlimit:10;" d="M30,37.5
			c-0.9-0.1-3.2-0.4-5.4-1.8c-2.2-1.4-2.7-3.2-3.7-3.4c-1-0.2-0.9,1.101-0.1,2c0.8,0.9,0.1,1,0.3,2c0.1,0.5,1,1.2,2.1,1.601
			c1.2,0.5,5,2.5,7.9,1.5C32,39.2,31.8,37.6,30,37.5z"/>
		<g id="g163_1_">
			<path id="path34-7-5_248_" style="fill:none;stroke:#231815;stroke-width:2;stroke-miterlimit:10;" d="M33.5,40.2
				c0-0.5,0-1.9-0.3-2.2S32.6,37.5,32.6,37.5C32,37,31.2,37,30.5,37.3c0,0-0.2,0.101-0.6,0.5c-0.3,0.3-0.6,1.4-0.8,1.9
				c0,0-1,3.8-2.4,7.6c0,0,1.2,1.8,3.6,2c2.4,0.3,3.9-1.2,3.9-1.2C33.7,44.1,33.5,40.2,33.5,40.2z"/>
			
				<ellipse id="ellipse38_1_" transform="matrix(0.1097 -0.994 0.994 0.1097 -22.0426 74.3848)" style="fill:none;stroke:#231815;stroke-width:2;stroke-miterlimit:10;" cx="30.502" cy="49.497" rx="3.4" ry="3.6"/>
			<path id="path40_1_" style="fill:none;stroke:#231815;stroke-width:2;stroke-miterlimit:10;" d="M30.8,46.5
				c-2.7-0.2-6.6,2.6-8.2,5.6s-0.6,4.101,1,3c1.5-1,2.6-2.5,6.5-2.399C33.9,52.9,32.7,46.7,30.8,46.5z"/>
			<path id="path42_1_" style="fill:none;stroke:#231815;stroke-width:2;stroke-miterlimit:10;" d="M19.5,53.2c0.8-0.9,2.1-1,3-0.2
				s1,2.1,0.2,3L19.5,53.2z"/>
			<path id="path34-7-5_247_" style="fill:none;stroke:#231815;stroke-width:2;stroke-miterlimit:10;" d="M33.5,40.2
				c0-0.5,0-2-0.3-2.3C32.9,37.6,32.6,37.5,32.6,37.5c-0.7-0.5-1.399,0.1-2.2,0.4c0,0-0.2,0.1-0.6,0.5c-0.3,0.3-0.6,0.6-0.9,1.199
				c0,0-1,3.801-2.4,7.601c0,0,1.2,1.3,3.6,1.5C32.5,49,34,48,34,48C33.7,44.1,33.5,40.2,33.5,40.2z"/>
			<g id="g110_1_">
				<g id="g108_1_">
					<g id="g106_1_">
						<path id="path45_1_" style="fill:#EF9521;stroke:#49150F;stroke-width:1.5423;stroke-miterlimit:10;" d="M55.6,29.1
							c-3.8,7.6-13.6,10.4-21.3,6.6c-7.7-3.8-10.9-13.1-7.2-20.7C30.9,7.4,40.2,4.3,48,8.2C55.7,12,59.4,21.5,55.6,29.1z"/>
						<path id="path47_1_" style="fill:#231815;stroke:#231815;stroke-miterlimit:10;" d="M54.9,28.8C51.3,36,42,38.7,34.6,35
							C27.2,31.3,24.2,22.5,27.8,15.2C31.4,8,40.3,5.1,47.6,8.8C55,12.5,58.5,21.5,54.9,28.8z"/>
						<path id="path49_1_" style="fill:#231815;stroke:#231815;stroke-width:2.7816;stroke-miterlimit:10;" d="M47.4,31.5
							c-3.101,6.1-9.5,7.1-15.601,4.4c-8.4-3.7-9-9-5.9-15.101c3.1-6.2,10.4-8.7,16.3-5.8C48.1,18,50.5,25.4,47.4,31.5z"/>
						
							<radialGradient id="path34-7-5_1_" cx="589.2773" cy="-299.3384" r="33.8449" gradientTransform="matrix(0.5981 0.0661 0.1098 -0.994 -287.4313 -304.5879)" gradientUnits="userSpaceOnUse">
							<stop  offset="0" style="stop-color:#FCDBD7"/>
							<stop  offset="0.1284" style="stop-color:#FBD4CF"/>
							<stop  offset="0.3271" style="stop-color:#F8C3B9"/>
							<stop  offset="0.5713" style="stop-color:#F3A596"/>
							<stop  offset="0.849" style="stop-color:#ED7D65"/>
							<stop  offset="1" style="stop-color:#E96547"/>
						</radialGradient>
						<path id="path34-7-5_246_" style="fill:url(#path34-7-5_1_);" d="M33.5,40.2c0-0.5,0-1.9-0.3-2.2S32.6,37.5,32.6,37.5
							C32,37,31.2,37,30.5,37.3c0,0-0.2,0.101-0.6,0.5c-0.3,0.3-0.6,1.4-0.8,1.9c0,0-1,3.8-2.4,7.6c0,0,1.2,1.8,3.6,2
							c2.4,0.3,3.9-1.2,3.9-1.2C33.7,44.1,33.5,40.2,33.5,40.2z"/>
						
							<radialGradient id="polygon78_2_" cx="343.7109" cy="-307.4443" r="4.0004" gradientTransform="matrix(0.994 0.1098 0.1098 -0.994 -276.4819 -303.7651)" gradientUnits="userSpaceOnUse">
							<stop  offset="0" style="stop-color:#FCDBD7"/>
							<stop  offset="0.1284" style="stop-color:#FBD4CF"/>
							<stop  offset="0.3271" style="stop-color:#F8C3B9"/>
							<stop  offset="0.5713" style="stop-color:#F3A596"/>
							<stop  offset="0.849" style="stop-color:#ED7D65"/>
							<stop  offset="1" style="stop-color:#E96547"/>
						</radialGradient>
						<polygon id="polygon78_1_" style="fill:url(#polygon78_2_);" points="32.6,38.4 30.5,38.2 30.8,35.1 32.9,35.3 						"/>
						
							<ellipse id="ellipse80_1_" transform="matrix(0.1097 -0.994 0.994 0.1097 -22.0426 74.3848)" style="fill:#3E3B3A;" cx="30.502" cy="49.497" rx="3.4" ry="3.6"/>
						<path id="path82_1_" style="fill:#3E3B3A;" d="M30.8,46.5c-2.7-0.2-6.6,2.6-8.2,5.6s-0.6,4.101,1,3c1.5-1,2.6-2.5,6.5-2.399
							C33.9,52.9,32.7,46.7,30.8,46.5z"/>
						<path id="path84_1_" style="fill:#9B9C9D;" d="M19.5,53.2c0.8-0.9,2.1-1,3-0.2s1,2.1,0.2,3L19.5,53.2z"/>
						<path id="path86_1_" style="fill:#24A84A;" d="M30.6,48.6c2.6,3.4,2.4,9,0.6,15.4h1c1.7-6.6,1.899-12.4-0.9-16L30.6,48.6z"/>
						<path id="path34-7-5_333_" style="fill:#0066CF;" d="M33.543,40.182c-0.025-0.541-0.011-1.986-0.303-2.289
							c-0.289-0.302-0.553-0.396-0.553-0.396c-0.753-0.063-1.391,0.136-2.166,0.43c0,0-0.182,0.104-0.588,0.521
							c-0.294,0.301-0.624,0.582-0.883,1.24c0,0-1.031,3.771-2.355,7.621c0,0,1.231,1.27,3.618,1.532
							c2.381,0.265,3.863-0.707,3.863-0.707C33.725,44.088,33.543,40.182,33.543,40.182z"/>
						
							<radialGradient id="path102_2_" cx="438.5664" cy="-165.0645" r="22.0459" gradientTransform="matrix(0.8955 0.4451 0.4451 -0.8955 -282.2835 -317.5364)" gradientUnits="userSpaceOnUse">
							<stop  offset="0" style="stop-color:#FCDBD7"/>
							<stop  offset="0.1284" style="stop-color:#FBD4CF"/>
							<stop  offset="0.3271" style="stop-color:#F8C3B9"/>
							<stop  offset="0.5713" style="stop-color:#F3A596"/>
							<stop  offset="0.849" style="stop-color:#ED7D65"/>
							<stop  offset="1" style="stop-color:#E96547"/>
						</radialGradient>
						<path id="path102_1_" style="fill:url(#path102_2_);" d="M47.4,31.5c-3.101,6.1-9.7,7.4-15.601,4.4
							c-5.9-3-10.1-6.7-5.9-15.101c3.1-6.2,10.4-8.7,16.3-5.8C48.1,18,50.5,25.4,47.4,31.5z"/>
						
							<path id="path104_1_" style="fill:none;stroke:#A4424B;stroke-width:0.8345;stroke-linecap:round;stroke-linejoin:round;stroke-miterlimit:10;" d="
							M35,18.2c0,0-0.5-2.6-3.3-1.6"/>
					</g>
				</g>
			</g>
			<g id="g213_155_">
				
					<linearGradient id="path125_2_" gradientUnits="userSpaceOnUse" x1="557.3027" y1="237.8516" x2="561.1348" y2="237.8516" gradientTransform="matrix(0.8955 0.4451 -0.4451 0.8955 -362.7961 -434.4475)">
					<stop  offset="0" style="stop-color:#F8A581"/>
					<stop  offset="0.1727" style="stop-color:#F68F79"/>
					<stop  offset="0.4187" style="stop-color:#F37370"/>
					<stop  offset="0.6466" style="stop-color:#F15B69"/>
					<stop  offset="0.8475" style="stop-color:#EF4A65"/>
					<stop  offset="1" style="stop-color:#EF4464"/>
				</linearGradient>
				<path id="path125_1_" style="fill:url(#path125_2_);" d="M33.8,28.3c0.3-0.5-0.3-1.4-1.2-1.8C31.7,26,30.7,26.1,30.4,26.6
					c-0.3,0.5,0.3,1.4,1.2,1.8C32.6,28.9,33.6,28.8,33.8,28.3z"/>
			</g>
			<g id="g213_154_">
				<path id="path209_120_" style="fill:#1A0D0C;" d="M32,24.3c-0.8,1.5-2.2,2.4-3.1,1.9c-1-0.5-1.1-2.1-0.4-3.6
					c0.8-1.5,2.2-2.4,3.1-1.9C32.6,21.1,32.8,22.8,32,24.3z"/>
				<path id="path211_101_" style="fill:#FFFFFF;" d="M32.2,22.6C32,23,31.5,23.2,31.1,23s-0.6-0.7-0.4-1.1c0.2-0.4,0.7-0.6,1.1-0.4
					C32.2,21.7,32.4,22.2,32.2,22.6z"/>
			</g>
			<path id="path131_1_" style="fill:#C32127;" d="M27.2,28.1c-0.3,0.1-1.3,0.2-2.4-0.2c0.1,0.3,0.2,0.6,0.3,0.9
				c1.2,0.4,2.3,0.4,2.6,0.1c0.2-0.2,0.3-0.4,0.2-0.6C27.7,28.1,27.4,28,27.2,28.1z"/>
			<path id="path133_1_" style="fill:#231815;" d="M39.3,26.7c0.101,0.2,2,4.4,1.7,7.7c-0.1,0.3-0.2,0.6-0.2,0.899
				c-0.3,1.5-0.2,2.601,0.101,3.5l0,0l0,0c1,2.8,4.1,3.101,4.1,3.101c-1.5-2.2,1-4.2,2.4-5.101c0.199-0.1,0.5-0.3,0.699-0.399H48.2
				l0,0c2.2-1.4,5-3.601,6.7-7.2c3.5-7.3-0.4-16.4-7.801-20.1c-2-1-4.1-1.5-6.1-1.6l0,0c0,0,0,0-0.1,0c-0.2,0-0.4,0-0.7,0
				c-0.2,0-0.3,0-0.5,0s-0.4,0-0.601,0c-0.3,0-0.6,0.1-0.899,0.1c-0.101,0-0.3,0-0.4,0.1c-0.3,0.1-0.6,0.1-0.899,0.2H36.8
				c-0.1,0-0.1,0-0.2,0h-0.1c-2,0.5-3.9,1.5-5.6,2.8l0,0l0,0c-1.2,0.9-2.2,2.1-3,3.4c1.4,2.5,4.3,6,10.1,8.9c0,0,0.1,3-0.1,4.1
				L39.3,26.7z"/>
			
				<radialGradient id="path142_2_" cx="445.5898" cy="-156.3262" r="15.2244" gradientTransform="matrix(0.8955 0.445 0.445 -0.8955 -288.3721 -315.6292)" gradientUnits="userSpaceOnUse">
				<stop  offset="0" style="stop-color:#E0CAAB"/>
				<stop  offset="0.6633" style="stop-color:#9E6C2A"/>
				<stop  offset="0.8265" style="stop-color:#8A581E"/>
				<stop  offset="1" style="stop-color:#653D14"/>
			</radialGradient>
			<path id="path142_1_" style="fill:url(#path142_2_);" d="M39.9,26.5c0.1,0.2,2,4.4,1.699,7.7C41.5,34.5,41.4,34.8,41.4,35.1
				c-0.301,1.5-0.2,2.601,0.1,3.5l0,0l0,0c1,2.801,4.1,3.101,4.1,3.101c-1.5-2.2,1-4.2,2.4-5.101c0.2-0.1,0.5-0.3,0.7-0.399h0.1l0,0
				c2.2-1.4,4.5-3.7,6.2-7.3c3.5-7.3,0.1-16.3-7.3-20c-2-1-4.101-1.5-6.101-1.6l0,0c0,0,0,0-0.1,0c-0.2,0-0.4,0-0.7,0
				c-0.2,0-0.3,0-0.5,0s-0.399,0-0.6,0c-0.3,0-0.601,0.1-0.9,0.1c-0.1,0-0.3,0-0.399,0.1C38.1,7.6,37.8,7.6,37.5,7.7h-0.1
				c-0.101,0-0.101,0-0.2,0H37.1c-2,0.5-3.899,1.5-5.6,2.8l0,0l0,0c-1.2,0.9-2.2,2.1-3,3.4c1.4,2.5,4.3,6.1,10.1,8.9
				c0,0,0.101,3-0.1,4.1L39.9,26.5z"/>
			
				<ellipse id="ellipse144_1_" transform="matrix(0.5853 -0.8108 0.8108 0.5853 -6.3304 45.0587)" style="fill:#231815;" cx="40.883" cy="28.718" rx="3.1" ry="2.6"/>
			
				<radialGradient id="path159_2_" cx="467.5576" cy="-101.2471" r="5.2792" gradientTransform="matrix(0.8108 0.5854 0.5854 -0.8108 -281.3462 -327.635)" gradientUnits="userSpaceOnUse">
				<stop  offset="0" style="stop-color:#FCDBD7"/>
				<stop  offset="0.1284" style="stop-color:#FBD4CF"/>
				<stop  offset="0.3271" style="stop-color:#F8C3B9"/>
				<stop  offset="0.5713" style="stop-color:#F3A596"/>
				<stop  offset="0.849" style="stop-color:#ED7D65"/>
				<stop  offset="1" style="stop-color:#E96547"/>
			</radialGradient>
			<path id="path159_1_" style="fill:url(#path159_2_);" d="M41.9,30C41.1,31.2,39.6,31.5,38.6,30.8c-1-0.7-1.1-2.2-0.3-3.4
				c0.8-1.2,2.3-1.5,3.3-0.8C42.6,27.3,42.7,28.8,41.9,30z"/>
			<path id="path161_1_" style="fill:#48140F;" d="M40.6,22.1C37.5,25.9,30.5,32.8,26.7,34l2.7,1.9C34.2,34.6,42,25,42.9,23.9
				L40.6,22.1z"/>
		</g>
		<g id="g180_1_">
			
				<radialGradient id="path178_2_" cx="280.2139" cy="-339.3506" r="18.2176" gradientTransform="matrix(0.9994 -0.0347 -0.0347 -0.9994 -273.3801 -299.5263)" gradientUnits="userSpaceOnUse">
				<stop  offset="0" style="stop-color:#FCDBD7"/>
				<stop  offset="0.1284" style="stop-color:#FBD4CF"/>
				<stop  offset="0.3271" style="stop-color:#F8C3B9"/>
				<stop  offset="0.5713" style="stop-color:#F3A596"/>
				<stop  offset="0.849" style="stop-color:#ED7D65"/>
				<stop  offset="1" style="stop-color:#E96547"/>
			</radialGradient>
			<path id="path178_1_" style="fill:url(#path178_2_);" d="M30,37.5c-0.9-0.1-3.2-0.4-5.4-1.8c-2.2-1.4-2.7-3.2-3.7-3.4
				c-1-0.2-0.9,1.101-0.1,2c0.8,0.9,0.1,1,0.3,2c0.1,0.5,1,1.2,2.1,1.601c1.2,0.5,5,2.5,7.9,1.5C32,39.2,31.8,37.6,30,37.5z"/>
		</g>
		<g id="g186_1_">
			<path id="path182_1_" style="fill:#231815;" d="M52.4,34.9c-7.4,5.1-6-6.2-11.2-13.7c-4.5-6.5-14.8-11-10.3-12.1
				c0.9-0.2,1.5-1.2,2.5-1.9C40.8,2.1,51,4.1,56.2,11.7C61.3,19.2,59.8,29.8,52.4,34.9z"/>
			<path id="path184_1_" style="fill:#231815;" d="M49.2,37.7c-3.4,0-4.5-3.601-5.7-7.5c-0.8-2.6-1.8-5.7-3.5-8.1
				c-1.9-2.7-4.9-5.1-7.3-7c-2.9-2.3-4.7-3.8-4.3-5.5c0.2-0.9,0.9-1.6,2.2-1.9c0.2,0,0.5-0.4,0.8-0.6c0.3-0.3,0.7-0.7,1.2-1
				C35.5,4.1,39,3,42.5,3c6,0,11.5,3,14.9,7.9c2.699,3.9,3.8,8.9,3.1,13.6c-0.8,4.9-3.3,9.1-7.2,11.7C51.7,37.2,50.4,37.7,49.2,37.7
				z M31.7,10.3c0.7,0.6,1.8,1.6,2.8,2.3c2.6,2.1,5.8,4.6,7.9,7.7c2,2.9,3,6.1,3.899,8.9C47.2,32,48,34.6,49.2,34.6
				c0.399,0,1.1-0.199,2.3-1c3.2-2.2,5.3-5.6,6-9.7c0.6-4-0.3-8.2-2.6-11.5C52,8.3,47.4,5.9,42.4,5.9c-2.9,0-5.801,0.9-8.2,2.5
				c-0.3,0.2-0.5,0.4-0.8,0.7C32.9,9.6,32.4,10,31.7,10.3z"/>
		</g>
		<g id="g306_1_">
			<g id="g304_1_">
				<g>
					<defs>
						<path id="SVGID_1_" d="M52.4,34.9c-7.4,5.1-6-6.2-11.2-13.7c-4.5-6.5-14.8-11-10.3-12.1c0.9-0.2,1.5-1.2,2.5-1.9
							C40.8,2.1,51,4.1,56.2,11.7C61.3,19.2,59.8,29.8,52.4,34.9z"/>
					</defs>
					<clipPath id="SVGID_2_">
						<use xlink:href="#SVGID_1_"  style="overflow:visible;"/>
					</clipPath>
					<rect id="rect194_1_" x="26.4" y="2.1" style="clip-path:url(#SVGID_2_);fill:#A91F23;" width="34.9" height="37.9"/>
				</g>
				<g>
					<defs>
						<path id="SVGID_3_" d="M52.4,34.9c-7.4,5.1-6-6.2-11.2-13.7c-4.5-6.5-14.8-11-10.3-12.1c0.9-0.2,1.5-1.2,2.5-1.9
							C40.8,2.1,51,4.1,56.2,11.7C61.3,19.2,59.8,29.8,52.4,34.9z"/>
					</defs>
					<clipPath id="SVGID_4_">
						<use xlink:href="#SVGID_3_"  style="overflow:visible;"/>
					</clipPath>
					<path id="path196_1_" style="clip-path:url(#SVGID_4_);fill:#A91F23;" d="M55.5,29.3C49.1,33.7,40.4,32,36,25.7
						c-4.4-6.4-2.7-15.1,3.6-19.5C46,1.8,54.7,3.5,59.1,9.8C63.6,16.2,61.9,25,55.5,29.3z"/>
				</g>
				<g>
					<defs>
						<path id="SVGID_5_" d="M52.4,34.9c-7.4,5.1-6-6.2-11.2-13.7c-4.5-6.5-14.8-11-10.3-12.1c0.9-0.2,1.5-1.2,2.5-1.9
							C40.8,2.1,51,4.1,56.2,11.7C61.3,19.2,59.8,29.8,52.4,34.9z"/>
					</defs>
					<clipPath id="SVGID_6_">
						<use xlink:href="#SVGID_5_"  style="overflow:visible;"/>
					</clipPath>
					<path id="path198_1_" style="clip-path:url(#SVGID_6_);fill:#AA1F23;" d="M55.4,29.1C49.1,33.4,40.6,31.8,36.3,25.5
						S33.6,10.7,39.9,6.4C46.1,2.1,54.7,3.7,59,10S61.7,24.8,55.4,29.1z"/>
				</g>
				<g>
					<defs>
						<path id="SVGID_7_" d="M52.4,34.9c-7.4,5.1-6-6.2-11.2-13.7c-4.5-6.5-14.8-11-10.3-12.1c0.9-0.2,1.5-1.2,2.5-1.9
							C40.8,2.1,51,4.1,56.2,11.7C61.3,19.2,59.8,29.8,52.4,34.9z"/>
					</defs>
					<clipPath id="SVGID_8_">
						<use xlink:href="#SVGID_7_"  style="overflow:visible;"/>
					</clipPath>
					<circle id="circle200_1_" style="clip-path:url(#SVGID_8_);fill:#AB1F23;" cx="47.6" cy="17.8" r="13.5"/>
				</g>
				<g>
					<defs>
						<path id="SVGID_9_" d="M52.4,34.9c-7.4,5.1-6-6.2-11.2-13.7c-4.5-6.5-14.8-11-10.3-12.1c0.9-0.2,1.5-1.2,2.5-1.9
							C40.8,2.1,51,4.1,56.2,11.7C61.3,19.2,59.8,29.8,52.4,34.9z"/>
					</defs>
					<clipPath id="SVGID_10_">
						<use xlink:href="#SVGID_9_"  style="overflow:visible;"/>
					</clipPath>
					<circle id="circle202_1_" style="clip-path:url(#SVGID_10_);fill:#AC1F23;" cx="47.6" cy="17.8" r="13.2"/>
				</g>
				<g>
					<defs>
						<path id="SVGID_11_" d="M52.4,34.9c-7.4,5.1-6-6.2-11.2-13.7c-4.5-6.5-14.8-11-10.3-12.1c0.9-0.2,1.5-1.2,2.5-1.9
							C40.8,2.1,51,4.1,56.2,11.7C61.3,19.2,59.8,29.8,52.4,34.9z"/>
					</defs>
					<clipPath id="SVGID_12_">
						<use xlink:href="#SVGID_11_"  style="overflow:visible;"/>
					</clipPath>
					<circle id="circle204_1_" style="clip-path:url(#SVGID_12_);fill:#AD2024;" cx="47.6" cy="17.8" r="13"/>
				</g>
				<g>
					<defs>
						<path id="SVGID_13_" d="M52.4,34.9c-7.4,5.1-6-6.2-11.2-13.7c-4.5-6.5-14.8-11-10.3-12.1c0.9-0.2,1.5-1.2,2.5-1.9
							C40.8,2.1,51,4.1,56.2,11.7C61.3,19.2,59.8,29.8,52.4,34.9z"/>
					</defs>
					<clipPath id="SVGID_14_">
						<use xlink:href="#SVGID_13_"  style="overflow:visible;"/>
					</clipPath>
					<path id="path206_1_" style="clip-path:url(#SVGID_14_);fill:#AE2024;" d="M54.8,28.3c-5.8,4-13.7,2.5-17.7-3.3
						S34.6,11.3,40.4,7.3c5.8-4,13.699-2.5,17.699,3.3C62.1,16.4,60.6,24.3,54.8,28.3z"/>
				</g>
				<g>
					<defs>
						<path id="SVGID_15_" d="M52.4,34.9c-7.4,5.1-6-6.2-11.2-13.7c-4.5-6.5-14.8-11-10.3-12.1c0.9-0.2,1.5-1.2,2.5-1.9
							C40.8,2.1,51,4.1,56.2,11.7C61.3,19.2,59.8,29.8,52.4,34.9z"/>
					</defs>
					<clipPath id="SVGID_16_">
						<use xlink:href="#SVGID_15_"  style="overflow:visible;"/>
					</clipPath>
					<path id="path208_1_" style="clip-path:url(#SVGID_16_);fill:#AF2024;" d="M54.7,28c-5.7,3.9-13.4,2.4-17.3-3.2
						C33.5,19.1,35,11.4,40.6,7.5C46.3,3.6,54,5.1,57.9,10.7C61.8,16.4,60.3,24.2,54.7,28z"/>
				</g>
				<g>
					<defs>
						<path id="SVGID_17_" d="M52.4,34.9c-7.4,5.1-6-6.2-11.2-13.7c-4.5-6.5-14.8-11-10.3-12.1c0.9-0.2,1.5-1.2,2.5-1.9
							C40.8,2.1,51,4.1,56.2,11.7C61.3,19.2,59.8,29.8,52.4,34.9z"/>
					</defs>
					<clipPath id="SVGID_18_">
						<use xlink:href="#SVGID_17_"  style="overflow:visible;"/>
					</clipPath>
					<path id="path210_1_" style="clip-path:url(#SVGID_18_);fill:#B02124;" d="M54.5,27.8c-5.6,3.8-13.1,2.4-17-3.2
						c-3.8-5.6-2.4-13.1,3.2-17c5.6-3.8,13.1-2.4,17,3.2C61.5,16.4,60.1,24,54.5,27.8z"/>
				</g>
				<g>
					<defs>
						<path id="SVGID_19_" d="M52.4,34.9c-7.4,5.1-6-6.2-11.2-13.7c-4.5-6.5-14.8-11-10.3-12.1c0.9-0.2,1.5-1.2,2.5-1.9
							C40.8,2.1,51,4.1,56.2,11.7C61.3,19.2,59.8,29.8,52.4,34.9z"/>
					</defs>
					<clipPath id="SVGID_20_">
						<use xlink:href="#SVGID_19_"  style="overflow:visible;"/>
					</clipPath>
					<circle id="circle212_1_" style="clip-path:url(#SVGID_20_);fill:#B12124;" cx="47.6" cy="17.8" r="11.9"/>
				</g>
				<g>
					<defs>
						<path id="SVGID_21_" d="M52.4,34.9c-7.4,5.1-6-6.2-11.2-13.7c-4.5-6.5-14.8-11-10.3-12.1c0.9-0.2,1.5-1.2,2.5-1.9
							C40.8,2.1,51,4.1,56.2,11.7C61.3,19.2,59.8,29.8,52.4,34.9z"/>
					</defs>
					<clipPath id="SVGID_22_">
						<use xlink:href="#SVGID_21_"  style="overflow:visible;"/>
					</clipPath>
					<path id="path214_1_" style="clip-path:url(#SVGID_22_);fill:#B32125;" d="M54.2,27.4C48.9,31,41.6,29.7,38,24.4
						c-3.6-5.3-2.3-12.6,3-16.2c5.3-3.6,12.6-2.3,16.2,3C60.9,16.5,59.5,23.8,54.2,27.4z"/>
				</g>
				<g>
					<defs>
						<path id="SVGID_23_" d="M52.4,34.9c-7.4,5.1-6-6.2-11.2-13.7c-4.5-6.5-14.8-11-10.3-12.1c0.9-0.2,1.5-1.2,2.5-1.9
							C40.8,2.1,51,4.1,56.2,11.7C61.3,19.2,59.8,29.8,52.4,34.9z"/>
					</defs>
					<clipPath id="SVGID_24_">
						<use xlink:href="#SVGID_23_"  style="overflow:visible;"/>
					</clipPath>
					<circle id="circle216_1_" style="clip-path:url(#SVGID_24_);fill:#B42125;" cx="47.6" cy="17.8" r="11.4"/>
				</g>
				<g>
					<defs>
						<path id="SVGID_25_" d="M52.4,34.9c-7.4,5.1-6-6.2-11.2-13.7c-4.5-6.5-14.8-11-10.3-12.1c0.9-0.2,1.5-1.2,2.5-1.9
							C40.8,2.1,51,4.1,56.2,11.7C61.3,19.2,59.8,29.8,52.4,34.9z"/>
					</defs>
					<clipPath id="SVGID_26_">
						<use xlink:href="#SVGID_25_"  style="overflow:visible;"/>
					</clipPath>
					<path id="path218_1_" style="clip-path:url(#SVGID_26_);fill:#B52225;" d="M53.9,27c-5.101,3.5-12,2.2-15.5-2.9
						s-2.2-12,2.899-15.5c5.101-3.5,12-2.2,15.5,2.9C60.3,16.5,59,23.5,53.9,27z"/>
				</g>
				<g>
					<defs>
						<path id="SVGID_27_" d="M52.4,34.9c-7.4,5.1-6-6.2-11.2-13.7c-4.5-6.5-14.8-11-10.3-12.1c0.9-0.2,1.5-1.2,2.5-1.9
							C40.8,2.1,51,4.1,56.2,11.7C61.3,19.2,59.8,29.8,52.4,34.9z"/>
					</defs>
					<clipPath id="SVGID_28_">
						<use xlink:href="#SVGID_27_"  style="overflow:visible;"/>
					</clipPath>
					<circle id="circle220_1_" style="clip-path:url(#SVGID_28_);fill:#B62225;" cx="47.6" cy="17.8" r="10.9"/>
				</g>
				<g>
					<defs>
						<path id="SVGID_29_" d="M52.4,34.9c-7.4,5.1-6-6.2-11.2-13.7c-4.5-6.5-14.8-11-10.3-12.1c0.9-0.2,1.5-1.2,2.5-1.9
							C40.8,2.1,51,4.1,56.2,11.7C61.3,19.2,59.8,29.8,52.4,34.9z"/>
					</defs>
					<clipPath id="SVGID_30_">
						<use xlink:href="#SVGID_29_"  style="overflow:visible;"/>
					</clipPath>
					<path id="path222_1_" style="clip-path:url(#SVGID_30_);fill:#B72226;" d="M53.6,26.5c-4.8,3.3-11.5,2.1-14.8-2.8
						c-3.3-4.9-2-11.4,2.8-14.7c4.9-3.3,11.5-2.1,14.801,2.8C59.7,16.6,58.5,23.2,53.6,26.5z"/>
				</g>
				<g>
					<defs>
						<path id="SVGID_31_" d="M52.4,34.9c-7.4,5.1-6-6.2-11.2-13.7c-4.5-6.5-14.8-11-10.3-12.1c0.9-0.2,1.5-1.2,2.5-1.9
							C40.8,2.1,51,4.1,56.2,11.7C61.3,19.2,59.8,29.8,52.4,34.9z"/>
					</defs>
					<clipPath id="SVGID_32_">
						<use xlink:href="#SVGID_31_"  style="overflow:visible;"/>
					</clipPath>
					<circle id="circle224_1_" style="clip-path:url(#SVGID_32_);fill:#B82326;" cx="47.6" cy="17.8" r="10.4"/>
				</g>
				<g>
					<defs>
						<path id="SVGID_33_" d="M52.4,34.9c-7.4,5.1-6-6.2-11.2-13.7c-4.5-6.5-14.8-11-10.3-12.1c0.9-0.2,1.5-1.2,2.5-1.9
							C40.8,2.1,51,4.1,56.2,11.7C61.3,19.2,59.8,29.8,52.4,34.9z"/>
					</defs>
					<clipPath id="SVGID_34_">
						<use xlink:href="#SVGID_33_"  style="overflow:visible;"/>
					</clipPath>
					<path id="path226_1_" style="clip-path:url(#SVGID_34_);fill:#B92326;" d="M53.3,26.1c-4.6,3.2-10.899,2-14.1-2.6
						s-2-10.9,2.6-14.1C46.4,6.2,52.7,7.4,55.9,12C59.1,16.7,57.9,23,53.3,26.1z"/>
				</g>
				<g>
					<defs>
						<path id="SVGID_35_" d="M52.4,34.9c-7.4,5.1-6-6.2-11.2-13.7c-4.5-6.5-14.8-11-10.3-12.1c0.9-0.2,1.5-1.2,2.5-1.9
							C40.8,2.1,51,4.1,56.2,11.7C61.3,19.2,59.8,29.8,52.4,34.9z"/>
					</defs>
					<clipPath id="SVGID_36_">
						<use xlink:href="#SVGID_35_"  style="overflow:visible;"/>
					</clipPath>
					<path id="path228_1_" style="clip-path:url(#SVGID_36_);fill:#BA2326;" d="M53.2,25.9C48.7,29,42.6,27.8,39.5,23.3
						s-1.9-10.6,2.6-13.7S52.7,7.7,55.8,12.2C58.8,16.7,57.7,22.8,53.2,25.9z"/>
				</g>
				<g>
					<defs>
						<path id="SVGID_37_" d="M52.4,34.9c-7.4,5.1-6-6.2-11.2-13.7c-4.5-6.5-14.8-11-10.3-12.1c0.9-0.2,1.5-1.2,2.5-1.9
							C40.8,2.1,51,4.1,56.2,11.7C61.3,19.2,59.8,29.8,52.4,34.9z"/>
					</defs>
					<clipPath id="SVGID_38_">
						<use xlink:href="#SVGID_37_"  style="overflow:visible;"/>
					</clipPath>
					<path id="path230_1_" style="clip-path:url(#SVGID_38_);fill:#BB2326;" d="M53,25.7c-4.4,3-10.4,1.9-13.3-2.5
						c-3-4.4-1.9-10.4,2.5-13.3c4.399-3,10.3-1.9,13.3,2.5C58.5,16.7,57.4,22.7,53,25.7z"/>
				</g>
				<g>
					<defs>
						<path id="SVGID_39_" d="M52.4,34.9c-7.4,5.1-6-6.2-11.2-13.7c-4.5-6.5-14.8-11-10.3-12.1c0.9-0.2,1.5-1.2,2.5-1.9
							C40.8,2.1,51,4.1,56.2,11.7C61.3,19.2,59.8,29.8,52.4,34.9z"/>
					</defs>
					<clipPath id="SVGID_40_">
						<use xlink:href="#SVGID_39_"  style="overflow:visible;"/>
					</clipPath>
					<circle id="circle232_1_" style="clip-path:url(#SVGID_40_);fill:#BC2427;" cx="47.6" cy="17.8" r="9.3"/>
				</g>
				<g>
					<defs>
						<path id="SVGID_41_" d="M52.4,34.9c-7.4,5.1-6-6.2-11.2-13.7c-4.5-6.5-14.8-11-10.3-12.1c0.9-0.2,1.5-1.2,2.5-1.9
							C40.8,2.1,51,4.1,56.2,11.7C61.3,19.2,59.8,29.8,52.4,34.9z"/>
					</defs>
					<clipPath id="SVGID_42_">
						<use xlink:href="#SVGID_41_"  style="overflow:visible;"/>
					</clipPath>
					<circle id="circle234_1_" style="clip-path:url(#SVGID_42_);fill:#BE2427;" cx="47.6" cy="17.8" r="9.1"/>
				</g>
				<g>
					<defs>
						<path id="SVGID_43_" d="M52.4,34.9c-7.4,5.1-6-6.2-11.2-13.7c-4.5-6.5-14.8-11-10.3-12.1c0.9-0.2,1.5-1.2,2.5-1.9
							C40.8,2.1,51,4.1,56.2,11.7C61.3,19.2,59.8,29.8,52.4,34.9z"/>
					</defs>
					<clipPath id="SVGID_44_">
						<use xlink:href="#SVGID_43_"  style="overflow:visible;"/>
					</clipPath>
					<path id="path236_1_" style="clip-path:url(#SVGID_44_);fill:#BF2427;" d="M52.6,25c-4,2.8-9.5,1.7-12.3-2.3s-1.7-9.5,2.3-12.3
						c4-2.8,9.5-1.7,12.301,2.3C57.6,16.8,56.6,22.3,52.6,25z"/>
				</g>
				<g>
					<defs>
						<path id="SVGID_45_" d="M52.4,34.9c-7.4,5.1-6-6.2-11.2-13.7c-4.5-6.5-14.8-11-10.3-12.1c0.9-0.2,1.5-1.2,2.5-1.9
							C40.8,2.1,51,4.1,56.2,11.7C61.3,19.2,59.8,29.8,52.4,34.9z"/>
					</defs>
					<clipPath id="SVGID_46_">
						<use xlink:href="#SVGID_45_"  style="overflow:visible;"/>
					</clipPath>
					<path id="path238_1_" style="clip-path:url(#SVGID_46_);fill:#C02527;" d="M52.5,24.8c-3.9,2.7-9.2,1.7-11.9-2.2
						c-2.699-3.9-1.699-9.2,2.2-11.9C46.7,8,52,9,54.7,12.9S56.4,22.2,52.5,24.8z"/>
				</g>
				<g>
					<defs>
						<path id="SVGID_47_" d="M52.4,34.9c-7.4,5.1-6-6.2-11.2-13.7c-4.5-6.5-14.8-11-10.3-12.1c0.9-0.2,1.5-1.2,2.5-1.9
							C40.8,2.1,51,4.1,56.2,11.7C61.3,19.2,59.8,29.8,52.4,34.9z"/>
					</defs>
					<clipPath id="SVGID_48_">
						<use xlink:href="#SVGID_47_"  style="overflow:visible;"/>
					</clipPath>
					<path id="path240_1_" style="clip-path:url(#SVGID_48_);fill:#C12528;" d="M52.3,24.6c-3.8,2.6-8.899,1.6-11.5-2.2
						c-2.6-3.8-1.6-9,2.2-11.5c3.8-2.6,9-1.6,11.5,2.2C57.1,16.9,56.1,22,52.3,24.6z"/>
				</g>
				<g>
					<defs>
						<path id="SVGID_49_" d="M52.4,34.9c-7.4,5.1-6-6.2-11.2-13.7c-4.5-6.5-14.8-11-10.3-12.1c0.9-0.2,1.5-1.2,2.5-1.9
							C40.8,2.1,51,4.1,56.2,11.7C61.3,19.2,59.8,29.8,52.4,34.9z"/>
					</defs>
					<clipPath id="SVGID_50_">
						<use xlink:href="#SVGID_49_"  style="overflow:visible;"/>
					</clipPath>
					<circle id="circle242_1_" style="clip-path:url(#SVGID_50_);fill:#C22528;" cx="47.6" cy="17.8" r="8"/>
				</g>
				<g>
					<defs>
						<path id="SVGID_51_" d="M52.4,34.9c-7.4,5.1-6-6.2-11.2-13.7c-4.5-6.5-14.8-11-10.3-12.1c0.9-0.2,1.5-1.2,2.5-1.9
							C40.8,2.1,51,4.1,56.2,11.7C61.3,19.2,59.8,29.8,52.4,34.9z"/>
					</defs>
					<clipPath id="SVGID_52_">
						<use xlink:href="#SVGID_51_"  style="overflow:visible;"/>
					</clipPath>
					<path id="path244_1_" style="clip-path:url(#SVGID_52_);fill:#C32628;" d="M52,24.2c-3.6,2.4-8.4,1.5-10.8-2
						c-2.4-3.5-1.5-8.4,2-10.8s8.399-1.5,10.8,2C56.5,16.9,55.6,21.8,52,24.2z"/>
				</g>
				<g>
					<defs>
						<path id="SVGID_53_" d="M52.4,34.9c-7.4,5.1-6-6.2-11.2-13.7c-4.5-6.5-14.8-11-10.3-12.1c0.9-0.2,1.5-1.2,2.5-1.9
							C40.8,2.1,51,4.1,56.2,11.7C61.3,19.2,59.8,29.8,52.4,34.9z"/>
					</defs>
					<clipPath id="SVGID_54_">
						<use xlink:href="#SVGID_53_"  style="overflow:visible;"/>
					</clipPath>
					<circle id="circle246_1_" style="clip-path:url(#SVGID_54_);fill:#C52628;" cx="47.6" cy="17.8" r="7.5"/>
				</g>
				<g>
					<defs>
						<path id="SVGID_55_" d="M52.4,34.9c-7.4,5.1-6-6.2-11.2-13.7c-4.5-6.5-14.8-11-10.3-12.1c0.9-0.2,1.5-1.2,2.5-1.9
							C40.8,2.1,51,4.1,56.2,11.7C61.3,19.2,59.8,29.8,52.4,34.9z"/>
					</defs>
					<clipPath id="SVGID_56_">
						<use xlink:href="#SVGID_55_"  style="overflow:visible;"/>
					</clipPath>
					<path id="path248_1_" style="clip-path:url(#SVGID_56_);fill:#C62629;" d="M51.7,23.8c-3.3,2.3-7.8,1.4-10.101-1.9
						c-2.3-3.3-1.399-7.8,1.9-10.1c3.3-2.3,7.8-1.4,10.1,1.9C55.9,17,55,21.5,51.7,23.8z"/>
				</g>
				<g>
					<defs>
						<path id="SVGID_57_" d="M52.4,34.9c-7.4,5.1-6-6.2-11.2-13.7c-4.5-6.5-14.8-11-10.3-12.1c0.9-0.2,1.5-1.2,2.5-1.9
							C40.8,2.1,51,4.1,56.2,11.7C61.3,19.2,59.8,29.8,52.4,34.9z"/>
					</defs>
					<clipPath id="SVGID_58_">
						<use xlink:href="#SVGID_57_"  style="overflow:visible;"/>
					</clipPath>
					<path id="path250_1_" style="clip-path:url(#SVGID_58_);fill:#C72629;" d="M51.6,23.5C48.4,25.7,44,24.9,41.9,21.7
						c-2.2-3.2-1.4-7.6,1.8-9.7c3.2-2.2,7.6-1.4,9.7,1.8C55.6,17,54.8,21.4,51.6,23.5z"/>
				</g>
				<g>
					<defs>
						<path id="SVGID_59_" d="M52.4,34.9c-7.4,5.1-6-6.2-11.2-13.7c-4.5-6.5-14.8-11-10.3-12.1c0.9-0.2,1.5-1.2,2.5-1.9
							C40.8,2.1,51,4.1,56.2,11.7C61.3,19.2,59.8,29.8,52.4,34.9z"/>
					</defs>
					<clipPath id="SVGID_60_">
						<use xlink:href="#SVGID_59_"  style="overflow:visible;"/>
					</clipPath>
					<path id="path252_1_" style="clip-path:url(#SVGID_60_);fill:#C82729;" d="M51.4,23.3C48.3,25.4,44.1,24.6,42,21.5
						s-1.3-7.3,1.8-9.4c3.101-2.1,7.3-1.3,9.4,1.8C55.3,17,54.5,21.2,51.4,23.3z"/>
				</g>
				<g>
					<defs>
						<path id="SVGID_61_" d="M52.4,34.9c-7.4,5.1-6-6.2-11.2-13.7c-4.5-6.5-14.8-11-10.3-12.1c0.9-0.2,1.5-1.2,2.5-1.9
							C40.8,2.1,51,4.1,56.2,11.7C61.3,19.2,59.8,29.8,52.4,34.9z"/>
					</defs>
					<clipPath id="SVGID_62_">
						<use xlink:href="#SVGID_61_"  style="overflow:visible;"/>
					</clipPath>
					<circle id="circle254_1_" style="clip-path:url(#SVGID_62_);fill:#C92729;" cx="47.6" cy="17.8" r="6.5"/>
				</g>
				<g>
					<defs>
						<path id="SVGID_63_" d="M52.4,34.9c-7.4,5.1-6-6.2-11.2-13.7c-4.5-6.5-14.8-11-10.3-12.1c0.9-0.2,1.5-1.2,2.5-1.9
							C40.8,2.1,51,4.1,56.2,11.7C61.3,19.2,59.8,29.8,52.4,34.9z"/>
					</defs>
					<clipPath id="SVGID_64_">
						<use xlink:href="#SVGID_63_"  style="overflow:visible;"/>
					</clipPath>
					<circle id="circle256_1_" style="clip-path:url(#SVGID_64_);fill:#CA272A;" cx="47.6" cy="17.8" r="6.2"/>
				</g>
				<g>
					<defs>
						<path id="SVGID_65_" d="M52.4,34.9c-7.4,5.1-6-6.2-11.2-13.7c-4.5-6.5-14.8-11-10.3-12.1c0.9-0.2,1.5-1.2,2.5-1.9
							C40.8,2.1,51,4.1,56.2,11.7C61.3,19.2,59.8,29.8,52.4,34.9z"/>
					</defs>
					<clipPath id="SVGID_66_">
						<use xlink:href="#SVGID_65_"  style="overflow:visible;"/>
					</clipPath>
					<path id="path258_1_" style="clip-path:url(#SVGID_66_);fill:#CC282A;" d="M51,22.7c-2.7,1.9-6.4,1.2-8.3-1.6
						c-1.9-2.8-1.2-6.4,1.6-8.3c2.8-1.9,6.4-1.2,8.3,1.6C54.4,17.1,53.7,20.8,51,22.7z"/>
				</g>
				<g>
					<defs>
						<path id="SVGID_67_" d="M52.4,34.9c-7.4,5.1-6-6.2-11.2-13.7c-4.5-6.5-14.8-11-10.3-12.1c0.9-0.2,1.5-1.2,2.5-1.9
							C40.8,2.1,51,4.1,56.2,11.7C61.3,19.2,59.8,29.8,52.4,34.9z"/>
					</defs>
					<clipPath id="SVGID_68_">
						<use xlink:href="#SVGID_67_"  style="overflow:visible;"/>
					</clipPath>
					<circle id="circle260_1_" style="clip-path:url(#SVGID_68_);fill:#CD282A;" cx="47.6" cy="17.8" r="5.7"/>
				</g>
				<g>
					<defs>
						<path id="SVGID_69_" d="M52.4,34.9c-7.4,5.1-6-6.2-11.2-13.7c-4.5-6.5-14.8-11-10.3-12.1c0.9-0.2,1.5-1.2,2.5-1.9
							C40.8,2.1,51,4.1,56.2,11.7C61.3,19.2,59.8,29.8,52.4,34.9z"/>
					</defs>
					<clipPath id="SVGID_70_">
						<use xlink:href="#SVGID_69_"  style="overflow:visible;"/>
					</clipPath>
					<circle id="circle262_1_" style="clip-path:url(#SVGID_70_);fill:#CE282A;" cx="47.6" cy="17.8" r="5.5"/>
				</g>
				<g>
					<defs>
						<path id="SVGID_71_" d="M52.4,34.9c-7.4,5.1-6-6.2-11.2-13.7c-4.5-6.5-14.8-11-10.3-12.1c0.9-0.2,1.5-1.2,2.5-1.9
							C40.8,2.1,51,4.1,56.2,11.7C61.3,19.2,59.8,29.8,52.4,34.9z"/>
					</defs>
					<clipPath id="SVGID_72_">
						<use xlink:href="#SVGID_71_"  style="overflow:visible;"/>
					</clipPath>
					<circle id="circle264_1_" style="clip-path:url(#SVGID_72_);fill:#CF292A;" cx="47.6" cy="17.8" r="5.2"/>
				</g>
				<g>
					<defs>
						<path id="SVGID_73_" d="M52.4,34.9c-7.4,5.1-6-6.2-11.2-13.7c-4.5-6.5-14.8-11-10.3-12.1c0.9-0.2,1.5-1.2,2.5-1.9
							C40.8,2.1,51,4.1,56.2,11.7C61.3,19.2,59.8,29.8,52.4,34.9z"/>
					</defs>
					<clipPath id="SVGID_74_">
						<use xlink:href="#SVGID_73_"  style="overflow:visible;"/>
					</clipPath>
					<path id="path266_1_" style="clip-path:url(#SVGID_74_);fill:#D0292B;" d="M50.4,21.8c-2.2,1.5-5.301,1-6.9-1.3
						c-1.5-2.3-1-5.3,1.3-6.9c2.3-1.5,5.3-1,6.9,1.3C53.3,17.2,52.6,20.3,50.4,21.8z"/>
				</g>
				<g>
					<defs>
						<path id="SVGID_75_" d="M52.4,34.9c-7.4,5.1-6-6.2-11.2-13.7c-4.5-6.5-14.8-11-10.3-12.1c0.9-0.2,1.5-1.2,2.5-1.9
							C40.8,2.1,51,4.1,56.2,11.7C61.3,19.2,59.8,29.8,52.4,34.9z"/>
					</defs>
					<clipPath id="SVGID_76_">
						<use xlink:href="#SVGID_75_"  style="overflow:visible;"/>
					</clipPath>
					<circle id="circle268_1_" style="clip-path:url(#SVGID_76_);fill:#D2292B;" cx="47.6" cy="17.8" r="4.7"/>
				</g>
				<g>
					<defs>
						<path id="SVGID_77_" d="M52.4,34.9c-7.4,5.1-6-6.2-11.2-13.7c-4.5-6.5-14.8-11-10.3-12.1c0.9-0.2,1.5-1.2,2.5-1.9
							C40.8,2.1,51,4.1,56.2,11.7C61.3,19.2,59.8,29.8,52.4,34.9z"/>
					</defs>
					<clipPath id="SVGID_78_">
						<use xlink:href="#SVGID_77_"  style="overflow:visible;"/>
					</clipPath>
					<path id="path270_1_" style="clip-path:url(#SVGID_78_);fill:#D32A2B;" d="M50.1,21.4c-2,1.4-4.8,0.9-6.1-1.1
						c-1.4-2-0.9-4.8,1.1-6.1c2-1.4,4.801-0.9,6.101,1.1C52.6,17.3,52.1,20,50.1,21.4z"/>
				</g>
				<g>
					<defs>
						<path id="SVGID_79_" d="M52.4,34.9c-7.4,5.1-6-6.2-11.2-13.7c-4.5-6.5-14.8-11-10.3-12.1c0.9-0.2,1.5-1.2,2.5-1.9
							C40.8,2.1,51,4.1,56.2,11.7C61.3,19.2,59.8,29.8,52.4,34.9z"/>
					</defs>
					<clipPath id="SVGID_80_">
						<use xlink:href="#SVGID_79_"  style="overflow:visible;"/>
					</clipPath>
					<circle id="circle272_1_" style="clip-path:url(#SVGID_80_);fill:#D42A2C;" cx="47.6" cy="17.8" r="4.2"/>
				</g>
				<g>
					<defs>
						<path id="SVGID_81_" d="M52.4,34.9c-7.4,5.1-6-6.2-11.2-13.7c-4.5-6.5-14.8-11-10.3-12.1c0.9-0.2,1.5-1.2,2.5-1.9
							C40.8,2.1,51,4.1,56.2,11.7C61.3,19.2,59.8,29.8,52.4,34.9z"/>
					</defs>
					<clipPath id="SVGID_82_">
						<use xlink:href="#SVGID_81_"  style="overflow:visible;"/>
					</clipPath>
					<path id="path274_1_" style="clip-path:url(#SVGID_82_);fill:#D52A2C;" d="M49.8,21c-1.8,1.2-4.2,0.8-5.399-1
						c-1.2-1.8-0.801-4.2,1-5.4c1.8-1.2,4.199-0.8,5.399,1C52,17.3,51.6,19.8,49.8,21z"/>
				</g>
				<g>
					<defs>
						<path id="SVGID_83_" d="M52.4,34.9c-7.4,5.1-6-6.2-11.2-13.7c-4.5-6.5-14.8-11-10.3-12.1c0.9-0.2,1.5-1.2,2.5-1.9
							C40.8,2.1,51,4.1,56.2,11.7C61.3,19.2,59.8,29.8,52.4,34.9z"/>
					</defs>
					<clipPath id="SVGID_84_">
						<use xlink:href="#SVGID_83_"  style="overflow:visible;"/>
					</clipPath>
					<circle id="circle276_1_" style="clip-path:url(#SVGID_84_);fill:#D62B2C;" cx="47.6" cy="17.8" r="3.6"/>
				</g>
				<g>
					<defs>
						<path id="SVGID_85_" d="M52.4,34.9c-7.4,5.1-6-6.2-11.2-13.7c-4.5-6.5-14.8-11-10.3-12.1c0.9-0.2,1.5-1.2,2.5-1.9
							C40.8,2.1,51,4.1,56.2,11.7C61.3,19.2,59.8,29.8,52.4,34.9z"/>
					</defs>
					<clipPath id="SVGID_86_">
						<use xlink:href="#SVGID_85_"  style="overflow:visible;"/>
					</clipPath>
					<path id="path278_1_" style="clip-path:url(#SVGID_86_);fill:#D82B2C;" d="M49.5,20.6c-1.5,1.1-3.6,0.7-4.7-0.9
						c-1.1-1.5-0.7-3.6,0.9-4.7c1.5-1.1,3.6-0.7,4.7,0.9C51.5,17.4,51.1,19.5,49.5,20.6z"/>
				</g>
				<g>
					<defs>
						<path id="SVGID_87_" d="M52.4,34.9c-7.4,5.1-6-6.2-11.2-13.7c-4.5-6.5-14.8-11-10.3-12.1c0.9-0.2,1.5-1.2,2.5-1.9
							C40.8,2.1,51,4.1,56.2,11.7C61.3,19.2,59.8,29.8,52.4,34.9z"/>
					</defs>
					<clipPath id="SVGID_88_">
						<use xlink:href="#SVGID_87_"  style="overflow:visible;"/>
					</clipPath>
					<circle id="circle280_1_" style="clip-path:url(#SVGID_88_);fill:#D92C2D;" cx="47.6" cy="17.8" r="3.1"/>
				</g>
				<g>
					<defs>
						<path id="SVGID_89_" d="M52.4,34.9c-7.4,5.1-6-6.2-11.2-13.7c-4.5-6.5-14.8-11-10.3-12.1c0.9-0.2,1.5-1.2,2.5-1.9
							C40.8,2.1,51,4.1,56.2,11.7C61.3,19.2,59.8,29.8,52.4,34.9z"/>
					</defs>
					<clipPath id="SVGID_90_">
						<use xlink:href="#SVGID_89_"  style="overflow:visible;"/>
					</clipPath>
					<path id="path282_1_" style="clip-path:url(#SVGID_90_);fill:#DA2C2D;" d="M49.2,20.1c-1.3,0.9-3.101,0.6-4-0.7
						c-0.9-1.3-0.601-3.1,0.7-4c1.3-0.9,3.1-0.6,4,0.7C50.8,17.4,50.5,19.2,49.2,20.1z"/>
				</g>
				<g>
					<defs>
						<path id="SVGID_91_" d="M52.4,34.9c-7.4,5.1-6-6.2-11.2-13.7c-4.5-6.5-14.8-11-10.3-12.1c0.9-0.2,1.5-1.2,2.5-1.9
							C40.8,2.1,51,4.1,56.2,11.7C61.3,19.2,59.8,29.8,52.4,34.9z"/>
					</defs>
					<clipPath id="SVGID_92_">
						<use xlink:href="#SVGID_91_"  style="overflow:visible;"/>
					</clipPath>
					<circle id="circle284_1_" style="clip-path:url(#SVGID_92_);fill:#DB2C2D;" cx="47.6" cy="17.8" r="2.6"/>
				</g>
				<g>
					<defs>
						<path id="SVGID_93_" d="M52.4,34.9c-7.4,5.1-6-6.2-11.2-13.7c-4.5-6.5-14.8-11-10.3-12.1c0.9-0.2,1.5-1.2,2.5-1.9
							C40.8,2.1,51,4.1,56.2,11.7C61.3,19.2,59.8,29.8,52.4,34.9z"/>
					</defs>
					<clipPath id="SVGID_94_">
						<use xlink:href="#SVGID_93_"  style="overflow:visible;"/>
					</clipPath>
					<circle id="circle286_1_" style="clip-path:url(#SVGID_94_);fill:#DD2D2E;" cx="47.6" cy="17.8" r="2.3"/>
				</g>
				<g>
					<defs>
						<path id="SVGID_95_" d="M52.4,34.9c-7.4,5.1-6-6.2-11.2-13.7c-4.5-6.5-14.8-11-10.3-12.1c0.9-0.2,1.5-1.2,2.5-1.9
							C40.8,2.1,51,4.1,56.2,11.7C61.3,19.2,59.8,29.8,52.4,34.9z"/>
					</defs>
					<clipPath id="SVGID_96_">
						<use xlink:href="#SVGID_95_"  style="overflow:visible;"/>
					</clipPath>
					<path id="path288_1_" style="clip-path:url(#SVGID_96_);fill:#DE2D2E;" d="M48.8,19.5C47.9,20.1,46.6,19.9,45.9,19
						c-0.7-0.9-0.4-2.2,0.5-2.9c0.899-0.6,2.199-0.4,2.899,0.5S49.7,18.8,48.8,19.5z"/>
				</g>
				<g>
					<defs>
						<path id="SVGID_97_" d="M52.4,34.9c-7.4,5.1-6-6.2-11.2-13.7c-4.5-6.5-14.8-11-10.3-12.1c0.9-0.2,1.5-1.2,2.5-1.9
							C40.8,2.1,51,4.1,56.2,11.7C61.3,19.2,59.8,29.8,52.4,34.9z"/>
					</defs>
					<clipPath id="SVGID_98_">
						<use xlink:href="#SVGID_97_"  style="overflow:visible;"/>
					</clipPath>
					<circle id="circle290_1_" style="clip-path:url(#SVGID_98_);fill:#DF2E2E;" cx="47.6" cy="17.8" r="1.8"/>
				</g>
				<g>
					<defs>
						<path id="SVGID_99_" d="M52.4,34.9c-7.4,5.1-6-6.2-11.2-13.7c-4.5-6.5-14.8-11-10.3-12.1c0.9-0.2,1.5-1.2,2.5-1.9
							C40.8,2.1,51,4.1,56.2,11.7C61.3,19.2,59.8,29.8,52.4,34.9z"/>
					</defs>
					<clipPath id="SVGID_100_">
						<use xlink:href="#SVGID_99_"  style="overflow:visible;"/>
					</clipPath>
					<circle id="circle292_1_" style="clip-path:url(#SVGID_100_);fill:#E12E2E;" cx="47.6" cy="17.8" r="1.6"/>
				</g>
				<g>
					<defs>
						<path id="SVGID_101_" d="M52.4,34.9c-7.4,5.1-6-6.2-11.2-13.7c-4.5-6.5-14.8-11-10.3-12.1c0.9-0.2,1.5-1.2,2.5-1.9
							C40.8,2.1,51,4.1,56.2,11.7C61.3,19.2,59.8,29.8,52.4,34.9z"/>
					</defs>
					<clipPath id="SVGID_102_">
						<use xlink:href="#SVGID_101_"  style="overflow:visible;"/>
					</clipPath>
					<circle id="circle294_1_" style="clip-path:url(#SVGID_102_);fill:#E22E2F;" cx="47.6" cy="17.8" r="1.3"/>
				</g>
				<g>
					<defs>
						<path id="SVGID_103_" d="M52.4,34.9c-7.4,5.1-6-6.2-11.2-13.7c-4.5-6.5-14.8-11-10.3-12.1c0.9-0.2,1.5-1.2,2.5-1.9
							C40.8,2.1,51,4.1,56.2,11.7C61.3,19.2,59.8,29.8,52.4,34.9z"/>
					</defs>
					<clipPath id="SVGID_104_">
						<use xlink:href="#SVGID_103_"  style="overflow:visible;"/>
					</clipPath>
					<path id="path296_1_" style="clip-path:url(#SVGID_104_);fill:#E42F2F;" d="M48.2,18.6c-0.5,0.3-1.101,0.2-1.4-0.3
						s-0.2-1.1,0.3-1.4c0.5-0.3,1.101-0.2,1.4,0.3S48.7,18.3,48.2,18.6z"/>
				</g>
				<g>
					<defs>
						<path id="SVGID_105_" d="M52.4,34.9c-7.4,5.1-6-6.2-11.2-13.7c-4.5-6.5-14.8-11-10.3-12.1c0.9-0.2,1.5-1.2,2.5-1.9
							C40.8,2.1,51,4.1,56.2,11.7C61.3,19.2,59.8,29.8,52.4,34.9z"/>
					</defs>
					<clipPath id="SVGID_106_">
						<use xlink:href="#SVGID_105_"  style="overflow:visible;"/>
					</clipPath>
					<circle id="circle298_1_" style="clip-path:url(#SVGID_106_);fill:#E62F2F;" cx="47.6" cy="17.8" r="0.8"/>
				</g>
				<g>
					<defs>
						<path id="SVGID_107_" d="M52.4,34.9c-7.4,5.1-6-6.2-11.2-13.7c-4.5-6.5-14.8-11-10.3-12.1c0.9-0.2,1.5-1.2,2.5-1.9
							C40.8,2.1,51,4.1,56.2,11.7C61.3,19.2,59.8,29.8,52.4,34.9z"/>
					</defs>
					<clipPath id="SVGID_108_">
						<use xlink:href="#SVGID_107_"  style="overflow:visible;"/>
					</clipPath>
					<path id="path300_1_" style="clip-path:url(#SVGID_108_);fill:#E83030;" d="M47.9,18.2c-0.2,0.2-0.601,0.1-0.7-0.1
						c-0.2-0.2-0.101-0.6,0.1-0.7c0.2-0.2,0.601-0.1,0.7,0.1C48.2,17.7,48.1,18,47.9,18.2z"/>
				</g>
				<g>
					<defs>
						<path id="SVGID_109_" d="M52.4,34.9c-7.4,5.1-6-6.2-11.2-13.7c-4.5-6.5-14.8-11-10.3-12.1c0.9-0.2,1.5-1.2,2.5-1.9
							C40.8,2.1,51,4.1,56.2,11.7C61.3,19.2,59.8,29.8,52.4,34.9z"/>
					</defs>
					<clipPath id="SVGID_110_">
						<use xlink:href="#SVGID_109_"  style="overflow:visible;"/>
					</clipPath>
					<circle id="circle302_1_" style="clip-path:url(#SVGID_110_);fill:#EA3030;" cx="47.6" cy="17.8" r="0.3"/>
				</g>
			</g>
		</g>
		<g id="g310_1_">
			<path id="path308_1_" style="fill:#2C9AD6;" d="M56.3,36.5c0,0,5.3,0,3.9,2.7C59.3,41.1,57.4,38.8,56.3,36.5z"/>
		</g>
		<g id="g314_1_">
			<path id="path312_1_" style="fill:#2C9AD6;" d="M55.2,40.9c0,0,4,3.5,1.2,4.6C54.4,46.3,54.5,43.3,55.2,40.9z"/>
		</g>
	</g>
</g>
<g id="Layer_1">
</g>
</svg>
