<?xml version="1.0" encoding="utf-8"?>
<!-- Generator: Adobe Illustrator 15.0.2, SVG Export Plug-In . SVG Version: 6.00 Build 0)  -->
<!DOCTYPE svg PUBLIC "-//W3C//DTD SVG 1.1//EN" "http://www.w3.org/Graphics/SVG/1.1/DTD/svg11.dtd">
<svg version="1.1" id="レイヤー_1" xmlns="http://www.w3.org/2000/svg" xmlns:xlink="http://www.w3.org/1999/xlink" x="0px"
	 y="0px" width="64px" height="64px" viewBox="0 0 64 64" enable-background="new 0 0 64 64" xml:space="preserve">
<g>
	<circle fill="#FFFFFF" stroke="#231815" stroke-width="2" stroke-miterlimit="10" cx="32" cy="32" r="29.167"/>
	<linearGradient id="SVGID_1_" gradientUnits="userSpaceOnUse" x1="30.6064" y1="25.312" x2="18.9396" y2="-11.8556">
		<stop  offset="0" style="stop-color:#BEBEBE;stop-opacity:0"/>
		<stop  offset="0.1665" style="stop-color:#A6A6A6;stop-opacity:0.1665"/>
		<stop  offset="0.5492" style="stop-color:#737373;stop-opacity:0.5492"/>
		<stop  offset="0.839" style="stop-color:#545454;stop-opacity:0.839"/>
		<stop  offset="1" style="stop-color:#484848"/>
	</linearGradient>
	<path opacity="0.5" fill="url(#SVGID_1_)" stroke="#231815" stroke-width="1.5" stroke-miterlimit="10" d="M2.833,32
		C2.833,15.892,15.892,2.833,32,2.833S61.167,15.893,61.167,32"/>
	<g>
		<rect x="30.833" y="2.833" fill="#231815" width="2.334" height="6"/>
		<rect x="30.833" y="55.166" fill="#231815" width="2.334" height="6"/>
	</g>
	<g>
		<g>
			<rect x="30.833" y="2.833" fill="#7091BA" width="2.334" height="6"/>
			<rect x="30.833" y="55.166" fill="#7091BA" width="2.334" height="6"/>
		</g>
		<g>
			
				<rect x="44.007" y="6.392" transform="matrix(0.864 0.5035 -0.5035 0.864 10.8737 -21.469)" fill="#7091BA" width="2.334" height="6"/>
			
				<rect x="17.659" y="51.608" transform="matrix(0.8641 0.5034 -0.5034 0.8641 30.0475 -2.0538)" fill="#7091BA" width="2.334" height="6"/>
		</g>
		<g>
			
				<rect x="53.547" y="16.011" transform="matrix(0.4962 0.8682 -0.8682 0.4962 44.0685 -37.9255)" fill="#7091BA" width="2.334" height="6"/>
			
				<rect x="8.118" y="41.988" transform="matrix(0.4966 0.868 -0.868 0.4966 43.7242 14.5891)" fill="#7091BA" width="2.333" height="6"/>
		</g>
		<g>
			<rect x="55.167" y="30.88" fill="#7091BA" width="5.999" height="2.334"/>
			<rect x="2.834" y="30.785" fill="#7091BA" width="6" height="2.333"/>
		</g>
		<g>
			
				<rect x="53.442" y="42.171" transform="matrix(-0.5035 0.864 -0.864 -0.5035 121.1328 20.7327)" fill="#7091BA" width="2.335" height="5.999"/>
			
				<rect x="8.224" y="15.828" transform="matrix(-0.5033 0.8641 -0.8641 -0.5033 30.3869 20.1898)" fill="#7091BA" width="2.333" height="6"/>
		</g>
		<g>
			
				<rect x="43.862" y="51.691" transform="matrix(-0.8672 0.498 -0.498 -0.8672 111.3149 79.6929)" fill="#7091BA" width="2.336" height="5.999"/>
			
				<rect x="17.803" y="6.308" transform="matrix(-0.8671 0.4981 -0.4981 -0.8671 40.0558 7.9308)" fill="#7091BA" width="2.333" height="6"/>
		</g>
	</g>
	<circle fill="none" stroke="#231815" stroke-width="2" stroke-miterlimit="10" cx="32" cy="32" r="29.167"/>
</g>
<polyline fill="#E30012" points="31.984,34.033 17.659,33.924 17.69,29.856 32.016,29.965 "/>
<g>
	<rect x="30.833" y="10" fill="#231815" width="2.334" height="22"/>
	<line fill="#231815" x1="30.991" y1="31.413" x2="33.009" y2="32.587"/>
	<line fill="#231815" x1="31.424" y1="30.985" x2="32.576" y2="33.016"/>
	<line fill="#231815" x1="31.991" y1="30.833" x2="32.009" y2="33.168"/>
	<line fill="#231815" x1="32.592" y1="30.995" x2="31.407" y2="33.007"/>
	<line fill="#231815" x1="33.011" y1="31.417" x2="30.989" y2="32.585"/>
</g>
<circle fill="#231815" cx="32" cy="32" r="2.583"/>
</svg>
