<?xml version="1.0" encoding="utf-8"?>
<!-- Generator: Adobe Illustrator 18.0.0, SVG Export Plug-In . SVG Version: 6.00 Build 0)  -->
<!DOCTYPE svg PUBLIC "-//W3C//DTD SVG 1.1//EN" "http://www.w3.org/Graphics/SVG/1.1/DTD/svg11.dtd">
<svg version="1.1" id="レイヤー_1" xmlns="http://www.w3.org/2000/svg" xmlns:xlink="http://www.w3.org/1999/xlink" x="0px"
	 y="0px" width="64px" height="64px" viewBox="0 0 64 64" style="enable-background:new 0 0 64 64;" xml:space="preserve">
<g>
	<g>
		<radialGradient id="SVGID_1_" cx="32.0000153" cy="32.0000153" r="28.9285851" gradientUnits="userSpaceOnUse">
			<stop  offset="0.926606" style="stop-color:#F09400"/>
			<stop  offset="0.972477" style="stop-color:#F5B32C"/>
			<stop  offset="1" style="stop-color:#F09400"/>
		</radialGradient>
		<circle style="fill:url(#SVGID_1_);" cx="32.0000153" cy="32" r="28.9285851"/>
		<path style="fill:#F09400;" d="M32,3.07143C47.976799,3.07143,60.9286003,16.0231895,60.9286003,32
			S47.976799,60.9286003,32,60.9286003S3.07143,47.976799,3.07143,32S16.0231895,3.07143,32,3.07143 M32,2.75
			C15.8715,2.75,2.75,15.8715,2.75,32S15.8715,61.25,32,61.25S61.25,48.1285019,61.25,32S48.1285019,2.75,32,2.75L32,2.75z"/>
	</g>
</g>
<g>
	<radialGradient id="SVGID_2_" cx="32" cy="32" r="25.9462891" gradientUnits="userSpaceOnUse">
		<stop  offset="0.7" style="stop-color:#FFFFFF"/>
		<stop  offset="1" style="stop-color:#D9DADA"/>
	</radialGradient>
	<path style="fill:url(#SVGID_2_);" d="M32,57.9462891C17.6933594,57.9462891,6.0537109,46.3066406,6.0537109,32
		S17.6933594,6.0537109,32,6.0537109S57.9462891,17.6933594,57.9462891,32S46.3066406,57.9462891,32,57.9462891z"/>
	<path style="fill:#CCCCCC;" d="M32.0000038,6.3035736c14.1690407,0,25.6963921,11.5273705,25.6963921,25.6964302
		c0,14.1690407-11.5273514,25.6963997-25.6963921,25.6963997c-14.1690598,0-25.6964302-11.527359-25.6964302-25.6963997
		C6.3035746,17.8309441,17.8309441,6.3035736,32.0000038,6.3035736 M32.0000038,5.8035736
		c-14.4678898,0-26.1964302,11.7285309-26.1964302,26.1964302S17.532114,58.1964035,32.0000038,58.1964035
		s26.1963921-11.728508,26.1963921-26.1963997S46.4678955,5.8035736,32.0000038,5.8035736L32.0000038,5.8035736z"/>
</g>
<g style="opacity:0.9;">
	<g>
		<path style="fill:#717071;" d="M32.7747993,9.19032c0,1.1000004-0.3486977,2-0.7747993,2
			c-0.4260998,0-0.7747993-0.8999996-0.7747993-2V8.6520395C31.2252007,7.5520401,31.5739002,6.65204,32,6.65204
			c0.4261017,0,0.7747993,0.9000001,0.7747993,1.9999995V9.19032z"/>
	</g>
	<g>
		<path style="fill:#717071;" d="M21.2661896,11.8588238c0.5500107,0.9526253,0.6980495,1.9063864,0.3289795,2.1194658
			c-0.3690681,0.2130709-1.1210289-0.3920097-1.6710281-1.3446398L19.6550007,12.16749
			c-0.5500011-0.9526272-0.69804-1.9063902-0.3289814-2.1194601c0.3690605-0.2130795,1.1210213,0.3920002,1.67103,1.3446264
			L21.2661896,11.8588238z"/>
	</g>
	<g>
		<path style="fill:#717071;" d="M12.6336498,19.9241409c0.95263,0.5499992,1.5577106,1.30196,1.3446398,1.6710281
			c-0.2130795,0.3690701-1.1668406,0.2210312-2.1194658-0.3289795l-0.4661674-0.2691402
			c-0.9526262-0.5500088-1.5577059-1.3019695-1.3446264-1.67103c0.2130699-0.3690586,1.1668329-0.2210197,2.1194601,0.3289814
			L12.6336498,19.9241409z"/>
	</g>
	<g>
		<path style="fill:#717071;" d="M9.19032,31.2252007c1.1000004,0,2,0.3486996,2,0.7747993
			c0,0.4261017-0.8999996,0.7747993-2,0.7747993H8.6520395C7.5520401,32.7747993,6.65204,32.4261017,6.65204,32
			c0-0.4260998,0.9000001-0.7747993,1.9999995-0.7747993H9.19032z"/>
	</g>
	<g>
		<path style="fill:#717071;" d="M11.8588314,42.733799c0.9526215-0.5499992,1.9063787-0.697998,2.1194582-0.3289986
			c0.2130709,0.3690987-0.3920193,1.1211014-1.3446474,1.6711006l-0.4661446,0.2691002
			c-0.952632,0.5499992-1.9063978,0.6980972-2.1194677,0.3289986c-0.2130795-0.3690987,0.3920002-1.1209984,1.3446188-1.6710014
			L11.8588314,42.733799z"/>
	</g>
	<g>
		<path style="fill:#717071;" d="M19.9241505,51.3664017c0.5499897-0.9527016,1.3019505-1.5578003,1.6710186-1.3446999
			c0.3690701,0.2130966,0.2210312,1.1667976-0.32897,2.1194992l-0.2691593,0.4660988
			c-0.5499992,0.9527016-1.30196,1.5578003-1.6710205,1.3446999c-0.3690586-0.2131004-0.2210197-1.1668015,0.32897-2.1194992
			L19.9241505,51.3664017z"/>
	</g>
	<g>
		<path style="fill:#717071;" d="M31.2252007,54.8097c0-1.0999985,0.3486996-2,0.7747993-2
			c0.4261017,0,0.7747993,0.9000015,0.7747993,2v0.5382996c0,1.1000023-0.3486977,2-0.7747993,2
			c-0.4260998,0-0.7747993-0.8999977-0.7747993-2V54.8097z"/>
	</g>
	<g>
		<path style="fill:#717071;" d="M42.733799,52.1411018c-0.5499992-0.9526024-0.697998-1.9063034-0.3289986-2.1194
			c0.3690987-0.2131004,1.1211014,0.3919983,1.6711006,1.3446999l0.2691002,0.4660988
			c0.5499992,0.9526978,0.6980972,1.9063988,0.3289986,2.1194992s-1.1209984-0.3919983-1.6710014-1.3446007L42.733799,52.1411018z"
			/>
	</g>
	<g>
		<path style="fill:#717071;" d="M51.3664017,44.075901c-0.9527016-0.5499992-1.5578003-1.302002-1.3446999-1.6711006
			c0.2130966-0.3689995,1.1667976-0.2210007,2.1194,0.3289986l0.4662971,0.2691994
			c0.9526024,0.5500031,1.5577011,1.3019028,1.3446007,1.6710014s-1.1668015,0.2210007-2.1194992-0.3289986L51.3664017,44.075901z"
			/>
	</g>
	<g>
		<path style="fill:#717071;" d="M54.8097,32.7747993c-1.0999985,0-2-0.3486977-2-0.7747993
			c0-0.4260998,0.9000015-0.7747993,2-0.7747993h0.5382996c1.1000023,0,2,0.3486996,2,0.7747993
			c0,0.4261017-0.8999977,0.7747993-2,0.7747993H54.8097z"/>
	</g>
	<g>
		<path style="fill:#717071;" d="M52.141201,21.2661991c-0.9527016,0.5500011-1.9064026,0.69804-2.1194992,0.32897
			c-0.2131004-0.3690681,0.3919983-1.1210289,1.3446999-1.6710186l0.4660988-0.2691612
			c0.9526978-0.5499897,1.9063988-0.6980286,2.1194992-0.32897c0.2131004,0.3690605-0.3919983,1.1210213-1.3446999,1.6710205
			L52.141201,21.2661991z"/>
	</g>
	<g>
		<path style="fill:#717071;" d="M44.075901,12.6336422c-0.5499992,0.9526281-1.302002,1.5577183-1.6711006,1.3446474
			c-0.3689995-0.2130795-0.2210007-1.1668367,0.3289986-2.1194582l0.2691994-0.4661827
			c0.5500031-0.9526186,1.3019028-1.5576982,1.6710014-1.3446188c0.3690987,0.2130699,0.2210007,1.1668358-0.3289986,2.1194677
			L44.075901,12.6336422z"/>
	</g>
</g>
<path style="fill:#E53828;" d="M36.9855003,18.3613396l-3.7434998,13.9714622
	c-0.1838989,0.6858978-0.8889999,1.0928993-1.5748005,0.9091988c-0.6858997-0.1838989-1.0928993-0.8889999-0.9092007-1.5748005
	l3.7437019-13.9713993c0.1839981-0.68643,0.8888969-1.0929108,1.5746994-0.9091301
	C36.7621994,16.9704399,37.1693993,17.6749096,36.9855003,18.3613396z"/>
<path style="fill:#595757;" d="M32,31.0356998c0.5323982,0,0.9642982,0.4319,0.9642982,0.9643002v18.6962013
	c0,0.5323982-0.4319,0.9642982-0.9642982,0.9642982c-0.5324001,0-0.9643002-0.4319-0.9643002-0.9642982V32
	C31.0356998,31.4675999,31.4675999,31.0356998,32,31.0356998z"/>
<g>
	<radialGradient id="SVGID_3_" cx="32" cy="32" r="2.1696" gradientUnits="userSpaceOnUse">
		<stop  offset="0.2" style="stop-color:#F5B32C"/>
		<stop  offset="1" style="stop-color:#F09400"/>
	</radialGradient>
	<circle style="fill:url(#SVGID_3_);" cx="32" cy="32" r="2.1696"/>
	<path style="fill:#D98600;" d="M32,34.3303986c-1.2851009,0-2.3304005-1.0452995-2.3304005-2.3303986
		c0-1.2851009,1.0452995-2.3304005,2.3304005-2.3304005c1.285099,0,2.3303986,1.0452995,2.3303986,2.3304005
		C34.3303986,33.285099,33.285099,34.3303986,32,34.3303986z M32,29.9911003c-1.1074009,0-2.0088997,0.9014988-2.0088997,2.0088997
		c0,1.107399,0.9014988,2.0088997,2.0088997,2.0088997c1.107399,0,2.0088997-0.9015007,2.0088997-2.0088997
		C34.0088997,30.8925991,33.107399,29.9911003,32,29.9911003z"/>
</g>
<path style="fill:#CC7E00;" d="M32,2.75c16.1285019,0,29.25,13.1214409,29.25,29.25c0,16.1285019-13.1214981,29.25-29.25,29.25
	C15.87152,61.25,2.75,48.1285019,2.75,32C2.75,15.8714409,15.87152,2.75,32,2.75 M32,2.25C15.5957899,2.25,2.25,15.5957909,2.25,32
	S15.5957899,61.75,32,61.75S61.75,48.4042091,61.75,32S48.4042091,2.25,32,2.25L32,2.25z"/>
<g>
</g>
<g>
</g>
<g>
</g>
<g>
</g>
<g>
</g>
<g>
</g>
</svg>
