<?xml version="1.0" encoding="utf-8"?>
<!-- Generator: Adobe Illustrator 17.0.0, SVG Export Plug-In . SVG Version: 6.00 Build 0)  -->
<!DOCTYPE svg PUBLIC "-//W3C//DTD SVG 1.1//EN" "http://www.w3.org/Graphics/SVG/1.1/DTD/svg11.dtd">
<svg version="1.1" id="レイヤー_1" xmlns="http://www.w3.org/2000/svg" xmlns:xlink="http://www.w3.org/1999/xlink" x="0px"
	 y="0px" width="64px" height="64px" viewBox="0 0 64 64" style="enable-background:new 0 0 64 64;" xml:space="preserve">
<g>
	<g>
		<path style="fill:#717071;" d="M21.1186447,12c-9.4206839,0-17.0847473,7.6640625-17.0847473,17.0847454v4.0677967
			c0,1.0094032,0.8211069,1.8305092,1.8305082,1.8305092h4.0677967c1.0094013,0,1.8305082-0.821106,1.8305082-1.8305092v-4.0677967
			c0-5.1590309,4.1969023-9.3559322,9.3559332-9.3559322c5.1586323,0,9.3559322,4.1969013,9.3559322,9.3559322v15.050848h7.7288113
			v-15.050848C38.2033882,19.6640625,30.5389309,12,21.1186447,12z"/>
		<path style="fill:#C6C7C8;" d="M21.1186447,12.8135595c-8.9863453,0-16.2711868,7.2848425-16.2711868,16.2711868v4.0677967
			c0,0.561657,0.4552937,1.0169487,1.0169492,1.0169487h4.0677967c0.561656,0,1.0169497-0.4552917,1.0169497-1.0169487v-1.0169487
			H9.9322033v-1.0169487h1.0169497v-2.0338993c0-5.6164589,4.5530319-10.1694908,10.1694918-10.1694908
			s10.1694908,4.5530319,10.1694908,10.1694908v14.2372875h6.101696V29.0847454
			C37.3898315,20.098402,30.1049881,12.8135595,21.1186447,12.8135595z"/>
		<path style="fill:#9C9C9D;" d="M21.1186447,13.6271191c8.5233688,0,15.4576263,6.9342594,15.4576263,15.4576263v13.4237309
			h-4.474575V29.0847454c0-6.056078-4.9269733-10.9830513-10.9830513-10.9830513s-10.9830513,4.9269733-10.9830513,10.9830513
			v1.2203388H9.9322033H9.1186438v0.8135605v1.0169487v0.8135605h0.8135595h0.2033901v0.2033882
			c0,0.1121483-0.0912409,0.203392-0.2033901,0.203392H5.8644066c-0.1121488,0-0.2033896-0.0912437-0.2033896-0.203392v-4.0677967
			C5.6610169,20.5613785,12.5952759,13.6271191,21.1186447,13.6271191 M21.1186447,12.8135595
			c-8.9863491,0-16.2711868,7.2848368-16.2711868,16.2711868v4.0677967c0,0.561657,0.4552922,1.0169487,1.0169492,1.0169487
			h4.0677967c0.561657,0,1.0169497-0.4552917,1.0169497-1.0169487v-1.0169487H9.9322033v-1.0169487h1.0169497v-2.0338993
			c0-5.6164551,4.5530357-10.1694908,10.1694918-10.1694908s10.1694908,4.5530357,10.1694908,10.1694908v14.2372875h6.101696
			V29.0847454C37.3898315,20.0983963,30.1049919,12.8135595,21.1186447,12.8135595L21.1186447,12.8135595z"/>
		<linearGradient id="SVGID_1_" gradientUnits="userSpaceOnUse" x1="21.1186447" y1="13.8305082" x2="21.1186447" y2="41.6949158">
			<stop  offset="0" style="stop-color:#FFFFFF"/>
			<stop  offset="1" style="stop-color:#FFFFFF;stop-opacity:0"/>
		</linearGradient>
		<path style="fill:url(#SVGID_1_);" d="M36.3728828,41.6949158V29.0847454c0-8.0748138-6.101696-15.2542372-15.2542381-15.2542372
			S5.8644066,21.0099316,5.8644066,29.0847454v3.4576283h1.0169492v-3.4576283
			c0-6.5045013,5.0847459-14.2372875,14.2372894-14.2372875s14.2372894,7.7327862,14.2372894,14.2372875v12.6101704H36.3728828z"/>
		<linearGradient id="SVGID_2_" gradientUnits="userSpaceOnUse" x1="21.1186447" y1="15.4576273" x2="21.1186447" y2="42.3050842">
			<stop  offset="0" style="stop-color:#FFFFFF;stop-opacity:0.5"/>
			<stop  offset="0.6477876" style="stop-color:#FFFFFF;stop-opacity:0"/>
		</linearGradient>
		<path style="fill:url(#SVGID_2_);" d="M34.7457619,42.3050842h-0.8135567V29.0847454
			c0-7.0654125-5.748148-12.8135586-12.8135605-12.8135586S8.3050852,22.0193329,8.3050852,29.0847454v3.050848H7.4915257v-3.050848
			c0-7.5139027,6.1132145-13.6271181,13.6271191-13.6271181c7.5143013,0,13.6271172,6.1132154,13.6271172,13.6271181V42.3050842z"/>
	</g>
	<g>
		<path style="fill:#4A3117;" d="M37.7966118,29.2881355H4.4406781C3.0948093,29.2881355,2,30.3269329,2,31.6036816v21.403204
			c0,1.2767487,1.0948093,2.3151474,2.4406781,2.3151474h33.3559341c1.3458672,0,2.4406776-1.0383987,2.4406776-2.3151474
			v-21.403204C40.2372894,30.3269329,39.1424789,29.2881355,37.7966118,29.2881355z"/>
		<path style="fill:#C59D62;" d="M39.4237289,53.0065193c0,0.8295059-0.7284851,1.5019569-1.6271172,1.5019569H4.4406781
			c-0.898633,0-1.6271188-0.672451-1.6271188-1.5019569V31.603651c0-0.8295078,0.7284858-1.5019569,1.6271188-1.5019569h33.3559341
			c0.898632,0,1.6271172,0.6724491,1.6271172,1.5019569V53.0065193z"/>
		<g>
			<linearGradient id="SVGID_3_" gradientUnits="userSpaceOnUse" x1="1.7966101" y1="31.2139053" x2="40.4406776" y2="31.2139053">
				<stop  offset="0" style="stop-color:#926134;stop-opacity:0.6"/>
				<stop  offset="0.4" style="stop-color:#926134;stop-opacity:0.2"/>
				<stop  offset="0.6" style="stop-color:#926134;stop-opacity:0.2"/>
				<stop  offset="1" style="stop-color:#926134;stop-opacity:0.6"/>
			</linearGradient>
			<path style="fill:url(#SVGID_3_);" d="M39.4237289,31.3440304c0-0.1075535-0.0441437-0.2097225-0.1206627-0.3036137H2.9342227
				c-0.0765195,0.0938911-0.1206634,0.1960602-0.1206634,0.3036137v0.0433636h36.6101685V31.3440304z"/>
			<linearGradient id="SVGID_4_" gradientUnits="userSpaceOnUse" x1="1.7966101" y1="31.9078827" x2="40.4406776" y2="31.9078827">
				<stop  offset="0" style="stop-color:#926134;stop-opacity:0.6"/>
				<stop  offset="0.4" style="stop-color:#926134;stop-opacity:0.2"/>
				<stop  offset="0.6" style="stop-color:#926134;stop-opacity:0.2"/>
				<stop  offset="1" style="stop-color:#926134;stop-opacity:0.6"/>
			</linearGradient>
			<rect x="2.8135605" y="31.7343941" style="fill:url(#SVGID_4_);" width="36.6101685" height="0.3469761"/>
			<linearGradient id="SVGID_5_" gradientUnits="userSpaceOnUse" x1="1.7966101" y1="32.6018486" x2="40.4406776" y2="32.6018486">
				<stop  offset="0" style="stop-color:#926134;stop-opacity:0.6"/>
				<stop  offset="0.4" style="stop-color:#926134;stop-opacity:0.2"/>
				<stop  offset="0.6" style="stop-color:#926134;stop-opacity:0.2"/>
				<stop  offset="1" style="stop-color:#926134;stop-opacity:0.6"/>
			</linearGradient>
			<rect x="2.8135605" y="32.4283447" style="fill:url(#SVGID_5_);" width="36.6101685" height="0.3470008"/>
			<linearGradient id="SVGID_6_" gradientUnits="userSpaceOnUse" x1="1.7966101" y1="33.2958221" x2="40.4406776" y2="33.2958221">
				<stop  offset="0" style="stop-color:#926134;stop-opacity:0.6"/>
				<stop  offset="0.4" style="stop-color:#926134;stop-opacity:0.2"/>
				<stop  offset="0.6" style="stop-color:#926134;stop-opacity:0.2"/>
				<stop  offset="1" style="stop-color:#926134;stop-opacity:0.6"/>
			</linearGradient>
			<rect x="2.8135605" y="33.1223221" style="fill:url(#SVGID_6_);" width="36.6101685" height="0.3470008"/>
			<linearGradient id="SVGID_7_" gradientUnits="userSpaceOnUse" x1="1.7966101" y1="33.9897995" x2="40.4406776" y2="33.9897995">
				<stop  offset="0" style="stop-color:#926134;stop-opacity:0.6"/>
				<stop  offset="0.4" style="stop-color:#926134;stop-opacity:0.2"/>
				<stop  offset="0.6" style="stop-color:#926134;stop-opacity:0.2"/>
				<stop  offset="1" style="stop-color:#926134;stop-opacity:0.6"/>
			</linearGradient>
			<rect x="2.8135605" y="33.8162994" style="fill:url(#SVGID_7_);" width="36.6101685" height="0.3470008"/>
			<linearGradient id="SVGID_8_" gradientUnits="userSpaceOnUse" x1="1.7966101" y1="34.6837654" x2="40.4406776" y2="34.6837654">
				<stop  offset="0" style="stop-color:#926134;stop-opacity:0.6"/>
				<stop  offset="0.4" style="stop-color:#926134;stop-opacity:0.2"/>
				<stop  offset="0.6" style="stop-color:#926134;stop-opacity:0.2"/>
				<stop  offset="1" style="stop-color:#926134;stop-opacity:0.6"/>
			</linearGradient>
			<rect x="2.8135605" y="34.5102768" style="fill:url(#SVGID_8_);" width="36.6101685" height="0.3469761"/>
			<linearGradient id="SVGID_9_" gradientUnits="userSpaceOnUse" x1="1.7966101" y1="35.3777428" x2="40.4406776" y2="35.3777428">
				<stop  offset="0" style="stop-color:#926134;stop-opacity:0.6"/>
				<stop  offset="0.4" style="stop-color:#926134;stop-opacity:0.2"/>
				<stop  offset="0.6" style="stop-color:#926134;stop-opacity:0.2"/>
				<stop  offset="1" style="stop-color:#926134;stop-opacity:0.6"/>
			</linearGradient>
			<rect x="2.8135605" y="35.2042542" style="fill:url(#SVGID_9_);" width="36.6101685" height="0.3469761"/>
			<linearGradient id="SVGID_10_" gradientUnits="userSpaceOnUse" x1="1.7966101" y1="36.0717201" x2="40.4406776" y2="36.0717201">
				<stop  offset="0" style="stop-color:#926134;stop-opacity:0.6"/>
				<stop  offset="0.4" style="stop-color:#926134;stop-opacity:0.2"/>
				<stop  offset="0.6" style="stop-color:#926134;stop-opacity:0.2"/>
				<stop  offset="1" style="stop-color:#926134;stop-opacity:0.6"/>
			</linearGradient>
			<rect x="2.8135605" y="35.8982315" style="fill:url(#SVGID_10_);" width="36.6101685" height="0.3469761"/>
			<linearGradient id="SVGID_11_" gradientUnits="userSpaceOnUse" x1="1.7966101" y1="36.7656937" x2="40.4406776" y2="36.7656937">
				<stop  offset="0" style="stop-color:#926134;stop-opacity:0.6"/>
				<stop  offset="0.4" style="stop-color:#926134;stop-opacity:0.2"/>
				<stop  offset="0.6" style="stop-color:#926134;stop-opacity:0.2"/>
				<stop  offset="1" style="stop-color:#926134;stop-opacity:0.6"/>
			</linearGradient>
			<rect x="2.8135605" y="36.5922089" style="fill:url(#SVGID_11_);" width="36.6101685" height="0.3469761"/>
			<linearGradient id="SVGID_12_" gradientUnits="userSpaceOnUse" x1="1.7966101" y1="37.4596596" x2="40.4406776" y2="37.4596596">
				<stop  offset="0" style="stop-color:#926134;stop-opacity:0.6"/>
				<stop  offset="0.4" style="stop-color:#926134;stop-opacity:0.2"/>
				<stop  offset="0.6" style="stop-color:#926134;stop-opacity:0.2"/>
				<stop  offset="1" style="stop-color:#926134;stop-opacity:0.6"/>
			</linearGradient>
			<rect x="2.8135605" y="37.2861595" style="fill:url(#SVGID_12_);" width="36.6101685" height="0.3470008"/>
			<linearGradient id="SVGID_13_" gradientUnits="userSpaceOnUse" x1="1.7966101" y1="38.1536369" x2="40.4406776" y2="38.1536369">
				<stop  offset="0" style="stop-color:#926134;stop-opacity:0.6"/>
				<stop  offset="0.4" style="stop-color:#926134;stop-opacity:0.2"/>
				<stop  offset="0.6" style="stop-color:#926134;stop-opacity:0.2"/>
				<stop  offset="1" style="stop-color:#926134;stop-opacity:0.6"/>
			</linearGradient>
			<rect x="2.8135605" y="37.9801369" style="fill:url(#SVGID_13_);" width="36.6101685" height="0.3470008"/>
			<linearGradient id="SVGID_14_" gradientUnits="userSpaceOnUse" x1="1.7966101" y1="38.8476143" x2="40.4406776" y2="38.8476143">
				<stop  offset="0" style="stop-color:#926134;stop-opacity:0.6"/>
				<stop  offset="0.4" style="stop-color:#926134;stop-opacity:0.2"/>
				<stop  offset="0.6" style="stop-color:#926134;stop-opacity:0.2"/>
				<stop  offset="1" style="stop-color:#926134;stop-opacity:0.6"/>
			</linearGradient>
			<rect x="2.8135605" y="38.6741142" style="fill:url(#SVGID_14_);" width="36.6101685" height="0.3470008"/>
			<linearGradient id="SVGID_15_" gradientUnits="userSpaceOnUse" x1="1.7966101" y1="39.5415764" x2="40.4406776" y2="39.5415764">
				<stop  offset="0" style="stop-color:#926134;stop-opacity:0.6"/>
				<stop  offset="0.4" style="stop-color:#926134;stop-opacity:0.2"/>
				<stop  offset="0.6" style="stop-color:#926134;stop-opacity:0.2"/>
				<stop  offset="1" style="stop-color:#926134;stop-opacity:0.6"/>
			</linearGradient>
			<rect x="2.8135605" y="39.3680916" style="fill:url(#SVGID_15_);" width="36.6101685" height="0.3469761"/>
			<linearGradient id="SVGID_16_" gradientUnits="userSpaceOnUse" x1="1.7966101" y1="40.2355537" x2="40.4406776" y2="40.2355537">
				<stop  offset="0" style="stop-color:#926134;stop-opacity:0.6"/>
				<stop  offset="0.4" style="stop-color:#926134;stop-opacity:0.2"/>
				<stop  offset="0.6" style="stop-color:#926134;stop-opacity:0.2"/>
				<stop  offset="1" style="stop-color:#926134;stop-opacity:0.6"/>
			</linearGradient>
			<rect x="2.8135605" y="40.0620689" style="fill:url(#SVGID_16_);" width="36.6101685" height="0.3469761"/>
			<linearGradient id="SVGID_17_" gradientUnits="userSpaceOnUse" x1="1.7966101" y1="40.9295311" x2="40.4406776" y2="40.9295311">
				<stop  offset="0" style="stop-color:#926134;stop-opacity:0.6"/>
				<stop  offset="0.4" style="stop-color:#926134;stop-opacity:0.2"/>
				<stop  offset="0.6" style="stop-color:#926134;stop-opacity:0.2"/>
				<stop  offset="1" style="stop-color:#926134;stop-opacity:0.6"/>
			</linearGradient>
			<rect x="2.8135605" y="40.7560425" style="fill:url(#SVGID_17_);" width="36.6101685" height="0.3469761"/>
			<linearGradient id="SVGID_18_" gradientUnits="userSpaceOnUse" x1="1.7966101" y1="41.6235085" x2="40.4406776" y2="41.6235085">
				<stop  offset="0" style="stop-color:#926134;stop-opacity:0.6"/>
				<stop  offset="0.4" style="stop-color:#926134;stop-opacity:0.2"/>
				<stop  offset="0.6" style="stop-color:#926134;stop-opacity:0.2"/>
				<stop  offset="1" style="stop-color:#926134;stop-opacity:0.6"/>
			</linearGradient>
			<rect x="2.8135605" y="41.4500198" style="fill:url(#SVGID_18_);" width="36.6101685" height="0.3469761"/>
			<linearGradient id="SVGID_19_" gradientUnits="userSpaceOnUse" x1="1.7966101" y1="42.3174744" x2="40.4406776" y2="42.3174744">
				<stop  offset="0" style="stop-color:#926134;stop-opacity:0.6"/>
				<stop  offset="0.4" style="stop-color:#926134;stop-opacity:0.2"/>
				<stop  offset="0.6" style="stop-color:#926134;stop-opacity:0.2"/>
				<stop  offset="1" style="stop-color:#926134;stop-opacity:0.6"/>
			</linearGradient>
			<rect x="2.8135605" y="42.1439705" style="fill:url(#SVGID_19_);" width="36.6101685" height="0.3470008"/>
			<linearGradient id="SVGID_20_" gradientUnits="userSpaceOnUse" x1="1.7966101" y1="43.0114517" x2="40.4406776" y2="43.0114517">
				<stop  offset="0" style="stop-color:#926134;stop-opacity:0.6"/>
				<stop  offset="0.4" style="stop-color:#926134;stop-opacity:0.2"/>
				<stop  offset="0.6" style="stop-color:#926134;stop-opacity:0.2"/>
				<stop  offset="1" style="stop-color:#926134;stop-opacity:0.6"/>
			</linearGradient>
			<path style="fill:url(#SVGID_20_);" d="M2.8135593,42.8813362c0,0.1075554,0.0441439,0.2097244,0.1206634,0.3036156h36.3688431
				c0.076519-0.0938911,0.1206627-0.1960602,0.1206627-0.3036156v-0.0433846H2.8135593V42.8813362z"/>
			<linearGradient id="SVGID_21_" gradientUnits="userSpaceOnUse" x1="1.7966101" y1="43.7343369" x2="40.4406776" y2="43.7343369">
				<stop  offset="0" style="stop-color:#926134;stop-opacity:0.6"/>
				<stop  offset="0.4" style="stop-color:#926134;stop-opacity:0.2"/>
				<stop  offset="0.6" style="stop-color:#926134;stop-opacity:0.2"/>
				<stop  offset="1" style="stop-color:#926134;stop-opacity:0.6"/>
			</linearGradient>
			<rect x="2.8135605" y="43.560833" style="fill:url(#SVGID_21_);" width="36.6101685" height="0.3470008"/>
			<linearGradient id="SVGID_22_" gradientUnits="userSpaceOnUse" x1="1.7966101" y1="44.4283142" x2="40.4406776" y2="44.4283142">
				<stop  offset="0" style="stop-color:#926134;stop-opacity:0.6"/>
				<stop  offset="0.4" style="stop-color:#926134;stop-opacity:0.2"/>
				<stop  offset="0.6" style="stop-color:#926134;stop-opacity:0.2"/>
				<stop  offset="1" style="stop-color:#926134;stop-opacity:0.6"/>
			</linearGradient>
			<rect x="2.8135605" y="44.2548103" style="fill:url(#SVGID_22_);" width="36.6101685" height="0.3470008"/>
			<linearGradient id="SVGID_23_" gradientUnits="userSpaceOnUse" x1="1.7966101" y1="45.1222878" x2="40.4406776" y2="45.1222878">
				<stop  offset="0" style="stop-color:#926134;stop-opacity:0.6"/>
				<stop  offset="0.4" style="stop-color:#926134;stop-opacity:0.2"/>
				<stop  offset="0.6" style="stop-color:#926134;stop-opacity:0.2"/>
				<stop  offset="1" style="stop-color:#926134;stop-opacity:0.6"/>
			</linearGradient>
			<rect x="2.8135605" y="44.9487877" style="fill:url(#SVGID_23_);" width="36.6101685" height="0.3470008"/>
			<linearGradient id="SVGID_24_" gradientUnits="userSpaceOnUse" x1="1.7966101" y1="45.8162537" x2="40.4406776" y2="45.8162537">
				<stop  offset="0" style="stop-color:#926134;stop-opacity:0.6"/>
				<stop  offset="0.4" style="stop-color:#926134;stop-opacity:0.2"/>
				<stop  offset="0.6" style="stop-color:#926134;stop-opacity:0.2"/>
				<stop  offset="1" style="stop-color:#926134;stop-opacity:0.6"/>
			</linearGradient>
			<rect x="2.8135605" y="45.642765" style="fill:url(#SVGID_24_);" width="36.6101685" height="0.3469761"/>
			<linearGradient id="SVGID_25_" gradientUnits="userSpaceOnUse" x1="1.7966101" y1="46.510231" x2="40.4406776" y2="46.510231">
				<stop  offset="0" style="stop-color:#926134;stop-opacity:0.6"/>
				<stop  offset="0.4" style="stop-color:#926134;stop-opacity:0.2"/>
				<stop  offset="0.6" style="stop-color:#926134;stop-opacity:0.2"/>
				<stop  offset="1" style="stop-color:#926134;stop-opacity:0.6"/>
			</linearGradient>
			<rect x="2.8135605" y="46.3367424" style="fill:url(#SVGID_25_);" width="36.6101685" height="0.3469761"/>
			<linearGradient id="SVGID_26_" gradientUnits="userSpaceOnUse" x1="1.7966101" y1="47.2042084" x2="40.4406776" y2="47.2042084">
				<stop  offset="0" style="stop-color:#926134;stop-opacity:0.6"/>
				<stop  offset="0.4" style="stop-color:#926134;stop-opacity:0.2"/>
				<stop  offset="0.6" style="stop-color:#926134;stop-opacity:0.2"/>
				<stop  offset="1" style="stop-color:#926134;stop-opacity:0.6"/>
			</linearGradient>
			<rect x="2.8135605" y="47.0307198" style="fill:url(#SVGID_26_);" width="36.6101685" height="0.3469761"/>
			<linearGradient id="SVGID_27_" gradientUnits="userSpaceOnUse" x1="1.7966101" y1="47.8981857" x2="40.4406776" y2="47.8981857">
				<stop  offset="0" style="stop-color:#926134;stop-opacity:0.6"/>
				<stop  offset="0.4" style="stop-color:#926134;stop-opacity:0.2"/>
				<stop  offset="0.6" style="stop-color:#926134;stop-opacity:0.2"/>
				<stop  offset="1" style="stop-color:#926134;stop-opacity:0.6"/>
			</linearGradient>
			<rect x="2.8135605" y="47.7246971" style="fill:url(#SVGID_27_);" width="36.6101685" height="0.3469761"/>
			<linearGradient id="SVGID_28_" gradientUnits="userSpaceOnUse" x1="1.7966101" y1="48.5921478" x2="40.4406776" y2="48.5921478">
				<stop  offset="0" style="stop-color:#926134;stop-opacity:0.6"/>
				<stop  offset="0.4" style="stop-color:#926134;stop-opacity:0.2"/>
				<stop  offset="0.6" style="stop-color:#926134;stop-opacity:0.2"/>
				<stop  offset="1" style="stop-color:#926134;stop-opacity:0.6"/>
			</linearGradient>
			<rect x="2.8135605" y="48.4186478" style="fill:url(#SVGID_28_);" width="36.6101685" height="0.3470008"/>
			<linearGradient id="SVGID_29_" gradientUnits="userSpaceOnUse" x1="1.7966101" y1="49.2861252" x2="40.4406776" y2="49.2861252">
				<stop  offset="0" style="stop-color:#926134;stop-opacity:0.6"/>
				<stop  offset="0.4" style="stop-color:#926134;stop-opacity:0.2"/>
				<stop  offset="0.6" style="stop-color:#926134;stop-opacity:0.2"/>
				<stop  offset="1" style="stop-color:#926134;stop-opacity:0.6"/>
			</linearGradient>
			<rect x="2.8135605" y="49.1126251" style="fill:url(#SVGID_29_);" width="36.6101685" height="0.3470008"/>
			<linearGradient id="SVGID_30_" gradientUnits="userSpaceOnUse" x1="1.7966101" y1="49.9801025" x2="40.4406776" y2="49.9801025">
				<stop  offset="0" style="stop-color:#926134;stop-opacity:0.6"/>
				<stop  offset="0.4" style="stop-color:#926134;stop-opacity:0.2"/>
				<stop  offset="0.6" style="stop-color:#926134;stop-opacity:0.2"/>
				<stop  offset="1" style="stop-color:#926134;stop-opacity:0.6"/>
			</linearGradient>
			<rect x="2.8135605" y="49.8066025" style="fill:url(#SVGID_30_);" width="36.6101685" height="0.3470008"/>
			<linearGradient id="SVGID_31_" gradientUnits="userSpaceOnUse" x1="1.7966101" y1="50.6740685" x2="40.4406776" y2="50.6740685">
				<stop  offset="0" style="stop-color:#926134;stop-opacity:0.6"/>
				<stop  offset="0.4" style="stop-color:#926134;stop-opacity:0.2"/>
				<stop  offset="0.6" style="stop-color:#926134;stop-opacity:0.2"/>
				<stop  offset="1" style="stop-color:#926134;stop-opacity:0.6"/>
			</linearGradient>
			<rect x="2.8135605" y="50.5005798" style="fill:url(#SVGID_31_);" width="36.6101685" height="0.3469761"/>
			<linearGradient id="SVGID_32_" gradientUnits="userSpaceOnUse" x1="1.7966101" y1="51.368042" x2="40.4406776" y2="51.368042">
				<stop  offset="0" style="stop-color:#926134;stop-opacity:0.6"/>
				<stop  offset="0.4" style="stop-color:#926134;stop-opacity:0.2"/>
				<stop  offset="0.6" style="stop-color:#926134;stop-opacity:0.2"/>
				<stop  offset="1" style="stop-color:#926134;stop-opacity:0.6"/>
			</linearGradient>
			<rect x="2.8135605" y="51.1945572" style="fill:url(#SVGID_32_);" width="36.6101685" height="0.3469761"/>
			<linearGradient id="SVGID_33_" gradientUnits="userSpaceOnUse" x1="1.7966101" y1="52.0620193" x2="40.4406776" y2="52.0620193">
				<stop  offset="0" style="stop-color:#926134;stop-opacity:0.6"/>
				<stop  offset="0.4" style="stop-color:#926134;stop-opacity:0.2"/>
				<stop  offset="0.6" style="stop-color:#926134;stop-opacity:0.2"/>
				<stop  offset="1" style="stop-color:#926134;stop-opacity:0.6"/>
			</linearGradient>
			<rect x="2.8135605" y="51.8885307" style="fill:url(#SVGID_33_);" width="36.6101685" height="0.3469761"/>
			<linearGradient id="SVGID_34_" gradientUnits="userSpaceOnUse" x1="1.7966101" y1="52.7559967" x2="40.4406776" y2="52.7559967">
				<stop  offset="0" style="stop-color:#926134;stop-opacity:0.6"/>
				<stop  offset="0.4" style="stop-color:#926134;stop-opacity:0.2"/>
				<stop  offset="0.6" style="stop-color:#926134;stop-opacity:0.2"/>
				<stop  offset="1" style="stop-color:#926134;stop-opacity:0.6"/>
			</linearGradient>
			<rect x="2.8135605" y="52.5825081" style="fill:url(#SVGID_34_);" width="36.6101685" height="0.3469761"/>
		</g>
		
			<radialGradient id="SVGID_35_" cx="21.1186447" cy="27.041666" r="22.4754963" gradientTransform="matrix(1 0 0 0.5471408 0 14.7428617)" gradientUnits="userSpaceOnUse">
			<stop  offset="0" style="stop-color:#FFFFFF;stop-opacity:0.5"/>
			<stop  offset="1" style="stop-color:#FFFFFF;stop-opacity:0"/>
		</radialGradient>
		<path style="fill:url(#SVGID_35_);" d="M39.4237289,53.0065193c0,0.8295059-0.7284851,1.5019569-1.6271172,1.5019569H4.4406781
			c-0.898633,0-1.6271188-0.672451-1.6271188-1.5019569V31.603651c0-0.8295078,0.7284858-1.5019569,1.6271188-1.5019569h33.3559341
			c0.898632,0,1.6271172,0.6724491,1.6271172,1.5019569V53.0065193z"/>
		<linearGradient id="SVGID_36_" gradientUnits="userSpaceOnUse" x1="4.8474574" y1="42.3050842" x2="37.3898315" y2="42.3050842">
			<stop  offset="0" style="stop-color:#FFEFD9;stop-opacity:0.4"/>
			<stop  offset="0.07" style="stop-color:#FFEFD9;stop-opacity:0"/>
			<stop  offset="0.9299999" style="stop-color:#FFEFD9;stop-opacity:0"/>
			<stop  offset="1" style="stop-color:#FFEFD9;stop-opacity:0.4"/>
		</linearGradient>
		<path style="fill:url(#SVGID_36_);" d="M37.3898315,52.1833305c0,0.7657013-0.6475449,1.3864212-1.4463272,1.3864212H6.2937856
			c-0.7987847,0-1.4463282-0.6207199-1.4463282-1.3864212V32.4268379c0-0.7656994,0.6475434-1.3864212,1.4463282-1.3864212
			h29.6497192c0.7987823,0,1.4463272,0.6207218,1.4463272,1.3864212V52.1833305z"/>
		<linearGradient id="SVGID_37_" gradientUnits="userSpaceOnUse" x1="2.8135593" y1="42.3050842" x2="39.4237289" y2="42.3050842">
			<stop  offset="0" style="stop-color:#926134"/>
			<stop  offset="0.07" style="stop-color:#926134;stop-opacity:0"/>
			<stop  offset="0.93" style="stop-color:#926134;stop-opacity:0"/>
			<stop  offset="1" style="stop-color:#926134"/>
		</linearGradient>
		<path style="fill:url(#SVGID_37_);" d="M39.4237289,53.0065193c0,0.8295059-0.7284851,1.5019569-1.6271172,1.5019569H4.4406781
			c-0.898633,0-1.6271188-0.672451-1.6271188-1.5019569V31.603651c0-0.8295078,0.7284858-1.5019569,1.6271188-1.5019569h33.3559341
			c0.898632,0,1.6271172,0.6724491,1.6271172,1.5019569V53.0065193z"/>
		<linearGradient id="SVGID_38_" gradientUnits="userSpaceOnUse" x1="21.1186447" y1="30.1016941" x2="21.1186447" y2="54.5084763">
			<stop  offset="0" style="stop-color:#926134;stop-opacity:0.8"/>
			<stop  offset="0.05" style="stop-color:#926134;stop-opacity:0"/>
			<stop  offset="0.93" style="stop-color:#926134;stop-opacity:0"/>
			<stop  offset="1" style="stop-color:#926134"/>
		</linearGradient>
		<path style="fill:url(#SVGID_38_);" d="M39.4237289,53.0065193c0,0.8295059-0.7284851,1.5019569-1.6271172,1.5019569H4.4406781
			c-0.898633,0-1.6271188-0.672451-1.6271188-1.5019569V31.603651c0-0.8295078,0.7284858-1.5019569,1.6271188-1.5019569h33.3559341
			c0.898632,0,1.6271172,0.6724491,1.6271172,1.5019569V53.0065193z"/>
	</g>
</g>
<g>
	<g>
		<path style="fill:#805629;" d="M52.3784637,55.1260223h-3.0949593c-1.0391541,0-1.8845596-0.8458214-1.8845596-1.8849754
			V28.7997074c-4.5874367-1.4758129-7.7365608-5.7557564-7.7365608-10.6306896
			c0-6.0215864,4.7141037-10.9156876,10.7344398-11.147768V7.0199995l0.1249962-0.0074997
			C50.624321,7.0062499,50.7268181,7,50.8309822,7C56.9892349,7,62,12.010766,62,18.1690178
			c0,4.8757668-3.1491241,9.1557102-7.7373962,10.6306896v13.3631535h3.2732887
			c1.0566521,0,1.8849754,0.6766586,1.8849754,1.5408134v2.0633049c0,0.8641548-0.8283234,1.5408134-1.8849754,1.5408134h-3.2732887
			v1.7316437h3.2732887c1.0566521,0,1.8849754,0.6766586,1.8849754,1.5408134v2.0633049
			c0,0.8641548-0.8283234,1.5408134-1.8849754,1.5408134h-3.5370369
			C53.6751099,54.7526932,53.070118,55.1260223,52.3784637,55.1260223z M50.4747391,8.7249765l-0.0004196,0.0012503
			c-5.1057625,0.1904144-9.1052933,4.3378582-9.1052933,9.442791c0,4.3199406,2.9178772,8.0882244,7.0957375,9.1632099
			l0.6408272,0.1649971v25.7438221c0,0.0983315,0.079998,0.1783295,0.1779137,0.1783295h3.0949593
			c0.097496,0,0.1558304-0.0841637,0.1637459-0.1666641l0.0712509-0.7749901h4.9224319
			c0.0750008,0,0.1349983-0.0116653,0.1783333-0.0241661V50.77108c-0.043335-0.0133324-0.1033325-0.0250015-0.1783333-0.0250015
			h-4.9795151v-5.144928h4.9795151c0.0750008,0,0.1349983-0.0116692,0.1783333-0.0250015v-1.682476
			c-0.043335-0.0125008-0.1033325-0.0241661-0.1783333-0.0241661h-4.9795151v-16.372282l0.6408234-0.1649971
			c4.1778603-1.0749855,7.0961571-4.8432693,7.0961571-9.1632099c0-5.2174311-4.2449455-9.4623737-9.4623756-9.4623737
			c-0.0670815,0-0.1329155,0.0050001-0.1987457,0.0091667L50.4747391,8.7249765z M50.8309822,24.1797695
			c-0.189579,0-0.3766594-0.0108337-0.5612411-0.0283337c-0.3412476-0.0308323-0.6837425-0.0949974-1.0445709-0.1941624
			l-0.0987473-0.0266666c-0.2979126-0.0866661-0.6145744-0.2108307-0.9274864-0.3633289l-0.1049995-0.0499992
			c-0.2812462-0.1449986-0.5595779-0.3174953-0.8266563-0.5141602L47.162281,22.923954
			c-0.2516632-0.1941643-0.4912415-0.4116611-0.7120743-0.6474915l-0.078331-0.0849991
			c-0.2304115-0.2574978-0.4266586-0.5141602-0.5970764-0.7791576l-0.0583305-0.0949974
			c-0.1874962-0.3066635-0.3366623-0.6008263-0.45541-0.8924885l-0.034584-0.0941658
			c-0.1316643-0.344162-0.2283287-0.6741581-0.2912445-0.9949856l-0.0145836-0.0900002
			c-0.0670853-0.3616619-0.1008339-0.7191563-0.1008339-1.0766506c0-0.3566628,0.0337486-0.7149906,0.1037483-1.0933189
			c0.0754166-0.3983288,0.1691666-0.7199917,0.2983322-1.056654l0.0383301-0.1041641
			c0.1199989-0.2949963,0.2695808-0.589159,0.4449959-0.8758221l0.0645828-0.1066647
			c0.1741638-0.2708302,0.3699951-0.52666,0.5870743-0.76999l0.0945816-0.1033316
			c0.2162476-0.2308311,0.4558296-0.448328,0.7099915-0.6441584l0.1120796-0.0841656
			c0.2599983-0.1924973,0.5395775-0.366662,0.8233223-0.5108261l0.1020851-0.0500002
			c0.3079109-0.1508312,0.6237411-0.2741623,0.938736-0.3666611l0.0900002-0.0233335
			c0.358326-0.0983315,0.7008209-0.1624975,1.0445671-0.1941643c0.1824989-0.0166664,0.3691635-0.0283327,0.5587425-0.0283327
			c3.3145409,0,6.0107536,2.6966305,6.0107536,6.0115871C56.8417358,21.483139,54.1455231,24.1797695,50.8309822,24.1797695z
			 M48.2789345,21.6281376c0.1941643,0.1433315,0.3941612,0.2674961,0.5949898,0.3708286
			c0.2995796,0.1449966,0.5254097,0.2333298,0.7445755,0.2974949c0.3224945,0.0883331,0.5674934,0.1341648,0.8095703,0.1558323
			c0.1345825,0.0133324,0.267498,0.0208321,0.4029121,0.0208321c2.3733025,0,4.3041115-1.9308071,4.3041115-4.3041077
			c0-2.374136-1.930809-4.3049431-4.3041115-4.3049431c-0.1354141,0-0.2683296,0.0083332-0.4004097,0.020833
			c-0.2445793,0.0225-0.4895782,0.0691662-0.7520752,0.140831c-0.2820778,0.0808325-0.5083237,0.1691647-0.7312393,0.2774963
			c-0.2749977,0.1383314-0.4741592,0.2624969-0.6666565,0.404995l-0.0758324,0.0566654
			c-0.1824989,0.1416655-0.3541641,0.2966633-0.5095787,0.4624939l-0.0679131,0.0749998
			c-0.1558342,0.1741638-0.2966652,0.3583279-0.4174957,0.545826L47.1639481,15.92488
			c-0.1299973,0.2124968-0.2370796,0.4224939-0.3212433,0.6299925c-0.1212502,0.3199959-0.1883316,0.5491581-0.232914,0.7766552
			c-0.0587502,0.3291626-0.0833321,0.585825-0.0833321,0.8374901c0,0.2524948,0.0245819,0.5083256,0.0754128,0.7824879
			c0.0525017,0.2816639,0.1195831,0.510828,0.2129173,0.7533245l0.0308304,0.0858326
			c0.0804176,0.1983299,0.1875,0.4083271,0.3154144,0.6174908l-0.6687431,0.5424919l0.7174911-0.4616604
			c0.121666,0.1891651,0.2629128,0.3733292,0.4191628,0.5483265l0.066246,0.0724983
			c0.1583328,0.1683311,0.3295784,0.3241634,0.5087433,0.4624939l-0.4308281,0.7433243L48.2789345,21.6281376z"/>
		<path style="fill:#805629;" d="M49.9809952,8.7466431l-0.1708336-1.6978936l0.0204201-0.0020833
			c0.1629143-0.0145831,0.3266602-0.0262499,0.4912415-0.0337496L50.38974,7.0099998l0.1074982,0.01125l-0.0316658,1.7041435
			l-0.1570816,0.0054169C50.1989098,8.7341433,50.0889091,8.7374763,49.9809952,8.7466431z"/>
	</g>
	<g>
		<path style="fill:#F7C67D;" d="M58.5675011,52.6435928c0,0.3798027-0.461834,0.6876907-1.0315361,0.6876907h-5.6734428
			c-0.5697021,0-1.0315361-0.307888-1.0315361-0.6876907v-2.0630722c0-0.3797989,0.461834-0.6876869,1.0315361-0.6876869h5.6734428
			c0.5697021,0,1.0315361,0.307888,1.0315361,0.6876869V52.6435928z"/>
		<path style="fill:#F7C67D;" d="M58.5675011,45.7666893c0,0.3798027-0.461834,0.6876907-1.0315361,0.6876907h-5.6734428
			c-0.5697021,0-1.0315361-0.307888-1.0315361-0.6876907v-2.0630684c0-0.3798027,0.461834-0.6876907,1.0315361-0.6876907h5.6734428
			c0.5697021,0,1.0315361,0.307888,1.0315361,0.6876907V45.7666893z"/>
		<linearGradient id="SVGID_39_" gradientUnits="userSpaceOnUse" x1="50.830986" y1="51.6120567" x2="58.5675011" y2="51.6120567">
			<stop  offset="0.3716814" style="stop-color:#B28146;stop-opacity:0.6"/>
			<stop  offset="0.6159292" style="stop-color:#B28146;stop-opacity:0"/>
			<stop  offset="0.880531" style="stop-color:#B28146;stop-opacity:0"/>
			<stop  offset="1" style="stop-color:#B28146;stop-opacity:0.6"/>
		</linearGradient>
		<path style="fill:url(#SVGID_39_);" d="M58.5675011,52.6435928c0,0.3798027-0.461834,0.6876907-1.0315361,0.6876907h-5.6734428
			c-0.5697021,0-1.0315361-0.307888-1.0315361-0.6876907v-2.0630722c0-0.3797989,0.461834-0.6876869,1.0315361-0.6876869h5.6734428
			c0.5697021,0,1.0315361,0.307888,1.0315361,0.6876869V52.6435928z"/>
		<linearGradient id="SVGID_40_" gradientUnits="userSpaceOnUse" x1="50.830986" y1="44.7351532" x2="58.5675011" y2="44.7351532">
			<stop  offset="0.3716814" style="stop-color:#B28146;stop-opacity:0.6"/>
			<stop  offset="0.6159292" style="stop-color:#B28146;stop-opacity:0"/>
			<stop  offset="0.880531" style="stop-color:#B28146;stop-opacity:0"/>
			<stop  offset="1" style="stop-color:#B28146;stop-opacity:0.6"/>
		</linearGradient>
		<path style="fill:url(#SVGID_40_);" d="M58.5675011,45.7666893c0,0.3798027-0.461834,0.6876907-1.0315361,0.6876907h-5.6734428
			c-0.5697021,0-1.0315361-0.307888-1.0315361-0.6876907v-2.0630684c0-0.3798027,0.461834-0.6876907,1.0315361-0.6876907h5.6734428
			c0.5697021,0,1.0315361,0.307888,1.0315361,0.6876907V45.7666893z"/>
		<linearGradient id="SVGID_41_" gradientUnits="userSpaceOnUse" x1="54.6992416" y1="53.3312836" x2="54.6992416" y2="49.8928337">
			<stop  offset="0" style="stop-color:#B28146;stop-opacity:0.6"/>
			<stop  offset="0.2" style="stop-color:#B28146;stop-opacity:0"/>
			<stop  offset="0.8" style="stop-color:#B28146;stop-opacity:0"/>
			<stop  offset="1" style="stop-color:#B28146;stop-opacity:0.6"/>
		</linearGradient>
		<path style="fill:url(#SVGID_41_);" d="M58.5675011,52.6435928c0,0.3798027-0.461834,0.6876907-1.0315361,0.6876907h-5.6734428
			c-0.5697021,0-1.0315361-0.307888-1.0315361-0.6876907v-2.0630722c0-0.3797989,0.461834-0.6876869,1.0315361-0.6876869h5.6734428
			c0.5697021,0,1.0315361,0.307888,1.0315361,0.6876869V52.6435928z"/>
		<linearGradient id="SVGID_42_" gradientUnits="userSpaceOnUse" x1="54.6992416" y1="46.45438" x2="54.6992416" y2="43.0159302">
			<stop  offset="0" style="stop-color:#B28146;stop-opacity:0.6"/>
			<stop  offset="0.2" style="stop-color:#B28146;stop-opacity:0"/>
			<stop  offset="0.8" style="stop-color:#B28146;stop-opacity:0"/>
			<stop  offset="1" style="stop-color:#B28146;stop-opacity:0.6"/>
		</linearGradient>
		<path style="fill:url(#SVGID_42_);" d="M58.5675011,45.7666893c0,0.3798027-0.461834,0.6876907-1.0315361,0.6876907h-5.6734428
			c-0.5697021,0-1.0315361-0.307888-1.0315361-0.6876907v-2.0630684c0-0.3798027,0.461834-0.6876907,1.0315361-0.6876907h5.6734428
			c0.5697021,0,1.0315361,0.307888,1.0315361,0.6876907V45.7666893z"/>
	</g>
	<g>
		<path style="fill:#F7C67D;" d="M61.1463356,18.1688232c0-5.6970205-4.6183395-10.3153582-10.3153458-10.3153582
			c-5.6970215,0-10.3153572,4.6183376-10.3153572,10.3153582c0,4.80653,3.2874413,8.8452187,7.7365189,9.990345v25.0818481
			c0,0.5697098,0.4618301,1.0315399,1.0315285,1.0315399h3.0946045c0.5697098,0,1.0315399-0.4618301,1.0315399-1.0315399V28.1591682
			C57.8589058,27.0140419,61.1463356,22.9753532,61.1463356,18.1688232z M50.8309898,23.3264961
			c-2.8485107,0-5.1576843-2.3091755-5.1576843-5.1576729c0-2.8485107,2.3091736-5.1576853,5.1576843-5.1576853
			c2.8484993,0,5.1576729,2.3091745,5.1576729,5.1576853C55.9886627,21.0173206,53.6794891,23.3264961,50.8309898,23.3264961z"/>
		<radialGradient id="SVGID_43_" cx="50.8309822" cy="18.0063171" r="10.2344246" gradientUnits="userSpaceOnUse">
			<stop  offset="0.5" style="stop-color:#B28146;stop-opacity:0.6"/>
			<stop  offset="0.7" style="stop-color:#B28146;stop-opacity:0"/>
			<stop  offset="0.8" style="stop-color:#B28146;stop-opacity:0"/>
			<stop  offset="1" style="stop-color:#B28146;stop-opacity:0.6"/>
		</radialGradient>
		<path style="fill:url(#SVGID_43_);" d="M61.1463356,18.1688232c0-5.6970205-4.6183395-10.3153582-10.3153458-10.3153582
			c-5.6970215,0-10.3153572,4.6183376-10.3153572,10.3153582c0,4.80653,3.2874413,8.8452187,7.7365189,9.990345h5.1576729
			C57.8589058,27.0140419,61.1463356,22.9753532,61.1463356,18.1688232z M50.8309898,23.3264961
			c-2.8485107,0-5.1576843-2.3091755-5.1576843-5.1576729c0-2.8485107,2.3091736-5.1576853,5.1576843-5.1576853
			c2.8484993,0,5.1576729,2.3091745,5.1576729,5.1576853C55.9886627,21.0173206,53.6794891,23.3264961,50.8309898,23.3264961z"/>
		<linearGradient id="SVGID_44_" gradientUnits="userSpaceOnUse" x1="48.2521515" y1="41.2158623" x2="53.4098244" y2="41.2158623">
			<stop  offset="0" style="stop-color:#B28146;stop-opacity:0.6"/>
			<stop  offset="0.4" style="stop-color:#B28146;stop-opacity:0"/>
			<stop  offset="0.6" style="stop-color:#B28146;stop-opacity:0"/>
			<stop  offset="1" style="stop-color:#B28146;stop-opacity:0.6"/>
		</linearGradient>
		<path style="fill:url(#SVGID_44_);" d="M48.2521515,28.1591682v25.0818481c0,0.5697098,0.4618301,1.0315399,1.0315285,1.0315399
			h3.0946045c0.5697098,0,1.0315399-0.4618301,1.0315399-1.0315399V28.1591682H48.2521515z"/>
		<linearGradient id="SVGID_45_" gradientUnits="userSpaceOnUse" x1="50.8309898" y1="54.2725563" x2="50.8309898" y2="28.1591682">
			<stop  offset="0" style="stop-color:#B28146;stop-opacity:0.4"/>
			<stop  offset="0.05" style="stop-color:#B28146;stop-opacity:0"/>
			<stop  offset="0.9" style="stop-color:#B28146;stop-opacity:0"/>
			<stop  offset="1" style="stop-color:#B28146;stop-opacity:0.4"/>
		</linearGradient>
		<path style="fill:url(#SVGID_45_);" d="M48.2521515,28.1591682v25.0818481c0,0.5697098,0.4618301,1.0315399,1.0315285,1.0315399
			h3.0946045c0.5697098,0,1.0315399-0.4618301,1.0315399-1.0315399V28.1591682H48.2521515z"/>
		<linearGradient id="SVGID_46_" gradientUnits="userSpaceOnUse" x1="44.732029" y1="18.1688175" x2="50.3603172" y2="18.1688175">
			<stop  offset="0" style="stop-color:#B28146;stop-opacity:0"/>
			<stop  offset="0.5" style="stop-color:#B28146;stop-opacity:0.6"/>
		</linearGradient>
		<path style="fill:url(#SVGID_46_);" d="M45.6733055,18.1688232c0-2.6897364,2.0592346-4.8974733,4.6870117-5.1353636
			c-0.1550865-0.0140371-0.3118515-0.0223217-0.4706039-0.0223217c-2.8485069,0-5.1576843,2.3091745-5.1576843,5.1576853
			c0,2.8484974,2.3091774,5.1576729,5.1576843,5.1576729c0.1587524,0,0.3155174-0.0082855,0.4706039-0.0223217
			C47.7325401,23.0662842,45.6733055,20.8585472,45.6733055,18.1688232z"/>
		<linearGradient id="SVGID_47_" gradientUnits="userSpaceOnUse" x1="51.4370117" y1="41.2158623" x2="53.4098244" y2="41.2158623">
			<stop  offset="0" style="stop-color:#B28146;stop-opacity:0"/>
			<stop  offset="1" style="stop-color:#B28146;stop-opacity:0.6"/>
		</linearGradient>
		<path style="fill:url(#SVGID_47_);" d="M52.4685516,28.1591682v25.0818481c0,0.5697098-0.4618301,1.0315399-1.0315399,1.0315399
			h0.9412727c0.5697098,0,1.0315399-0.4618301,1.0315399-1.0315399V28.1591682H52.4685516z"/>
		<linearGradient id="SVGID_48_" gradientUnits="userSpaceOnUse" x1="49.8888702" y1="18.0063171" x2="61.1463356" y2="18.0063171">
			<stop  offset="0.5" style="stop-color:#B28146;stop-opacity:0"/>
			<stop  offset="1" style="stop-color:#B28146;stop-opacity:0.6"/>
		</linearGradient>
		<path style="fill:url(#SVGID_48_);" d="M50.8309898,7.8534651c-0.3178062,0-0.6316452,0.0165691-0.9421196,0.0446992
			c0.1562653-0.0141592,0.3132858-0.0256867,0.4714813-0.0327945c5.4784088,0.2461853,9.8447075,4.7642746,9.8447075,10.3034534
			c0,4.80653-3.2874298,8.8452187-7.7365074,9.990345h0.9412727c4.4490814-1.1451263,7.7365112-5.183815,7.7365112-9.990345
			C61.1463356,12.4718027,56.5279961,7.8534651,50.8309898,7.8534651z"/>
		<linearGradient id="SVGID_49_" gradientUnits="userSpaceOnUse" x1="41.1488838" y1="18.1688118" x2="50.8309898" y2="18.1688118">
			<stop  offset="0" style="stop-color:#FFFFFF;stop-opacity:0.8"/>
			<stop  offset="1" style="stop-color:#FFFFFF;stop-opacity:0"/>
		</linearGradient>
		<path style="fill:url(#SVGID_49_);" d="M42.0514679,18.1688118c0-4.946682,3.8911552-8.9839945,8.7795219-9.2193966
			c-0.1495705-0.0072069-0.2999382-0.0114164-0.4512939-0.0114164c-5.0980339,0-9.2308121,4.1327753-9.2308121,9.230813
			s4.1327782,9.2308121,9.2308121,9.2308121c0.1513557,0,0.3017235-0.0042095,0.4512939-0.0114174
			C45.9426231,27.1528053,42.0514679,23.1154919,42.0514679,18.1688118z"/>
		<linearGradient id="SVGID_50_" gradientUnits="userSpaceOnUse" x1="48.798008" y1="41.03302" x2="50.4966927" y2="41.03302">
			<stop  offset="0" style="stop-color:#FFFFFF;stop-opacity:0.7"/>
			<stop  offset="1" style="stop-color:#FFFFFF;stop-opacity:0"/>
		</linearGradient>
		<path style="fill:url(#SVGID_50_);" d="M49.4651642,52.8897781V28.1591682H48.798008v24.7306099
			c0,0.5617294,0.4618301,1.0170937,1.0315247,1.0170937h0.66716
			C49.9269943,53.9068718,49.4651642,53.4515076,49.4651642,52.8897781z"/>
	</g>
</g>
<g>
</g>
<g>
</g>
<g>
</g>
<g>
</g>
<g>
</g>
<g>
</g>
</svg>
