<?xml version="1.0" encoding="UTF-8" standalone="no"?>
<!-- Generator: Adobe Illustrator 15.0.2, SVG Export Plug-In . SVG Version: 6.00 Build 0)  -->

<svg
   xmlns:dc="http://purl.org/dc/elements/1.1/"
   xmlns:cc="http://creativecommons.org/ns#"
   xmlns:rdf="http://www.w3.org/1999/02/22-rdf-syntax-ns#"
   xmlns:svg="http://www.w3.org/2000/svg"
   xmlns="http://www.w3.org/2000/svg"
   xmlns:sodipodi="http://sodipodi.sourceforge.net/DTD/sodipodi-0.dtd"
   xmlns:inkscape="http://www.inkscape.org/namespaces/inkscape"
   version="1.1"
   x="0px"
   y="0px"
   width="64px"
   height="64px"
   viewBox="0 0 64 64"
   enable-background="new 0 0 64 64"
   xml:space="preserve"
   id="svg2"
   inkscape:version="0.48.4 r9939"
   sodipodi:docname="closed_umbrella.svg"><metadata
     id="metadata33"><rdf:RDF><cc:Work
         rdf:about=""><dc:format>image/svg+xml</dc:format><dc:type
           rdf:resource="http://purl.org/dc/dcmitype/StillImage" /></cc:Work></rdf:RDF></metadata><defs
     id="defs31" /><sodipodi:namedview
     pagecolor="#ffffff"
     bordercolor="#666666"
     borderopacity="1"
     objecttolerance="10"
     gridtolerance="10"
     guidetolerance="10"
     inkscape:pageopacity="0"
     inkscape:pageshadow="2"
     inkscape:window-width="640"
     inkscape:window-height="480"
     id="namedview29" /><g
     id="レイヤー_1" /><g
     id="ここから下は新しいやつ"><g
       id="U_x2B_1F302"><g
         id="g7"><rect
           x="38.564"
           y="6.141"
           transform="matrix(0.7071 0.7071 -0.7071 0.7071 30.3675 -20.1798)"
           fill="#00C3FF"
           width="1.958"
           height="40.853"
           id="rect9" /><path
           fill="#00C3FF"
           d="M48.963,5.724c2.295,0,4.156,1.861,4.156,4.157c0,0.991-0.349,1.899-0.926,2.613l1.786,1.408     c0.885-1.102,1.416-2.499,1.416-4.021c0-3.553-2.881-6.433-6.433-6.433c-3.554,0-6.434,2.88-6.434,6.433     c0,0.182,0.012,0.36,0.027,0.538h2.286c-0.021-0.177-0.038-0.355-0.038-0.538C44.805,7.585,46.666,5.724,48.963,5.724z"
           id="path11" /><path
           fill="#2CA4DE"
           d="M49.759,24.192c-1.097-1.018-1.54-2.324-0.989-2.918c-0.551,0.594-2.981-0.768-2.981-0.768     s-1.538-2.324-0.984-2.916l-0.001-0.001c-0.553,0.593-1.887,0.248-2.983-0.771c-1.098-1.018-1.541-2.324-0.989-2.917l-2.412,2.6     L8.604,60.552l41.724-32.991l2.413-2.598C52.189,25.556,50.854,25.212,49.759,24.192z"
           id="path13" /><linearGradient
           id="SVGID_1_"
           gradientUnits="userSpaceOnUse"
           x1="15.0747"
           y1="26.4141"
           x2="25.9876"
           y2="37.6068"><stop
             offset="0"
             style="stop-color:#FFFFFF"
             id="stop16" /><stop
             offset="1"
             style="stop-color:#FFFFFF;stop-opacity:0"
             id="stop18" /></linearGradient><path
           fill="url(#SVGID_1_)"
           d="M10.063,58.397l30.087-42.837c0,0,1.399,2.984,3.358,2.892L10.063,58.397z"
           id="path20" /><linearGradient
           id="SVGID_2_"
           gradientUnits="userSpaceOnUse"
           x1="32.1079"
           y1="42.3447"
           x2="27.9105"
           y2="38.2407"><stop
             offset="0"
             style="stop-color:#FFFFFF"
             id="stop23" /><stop
             offset="1"
             style="stop-color:#FFFFFF;stop-opacity:0"
             id="stop25" /></linearGradient><path
           fill="url(#SVGID_2_)"
           d="M44.253,18.919L11.094,57.166L47.47,21.997C47.47,21.997,45.465,21.717,44.253,18.919z"
           id="path27" /></g></g></g></svg>