<?xml version="1.0" encoding="utf-8"?>
<!-- Generator: Adobe Illustrator 15.0.2, SVG Export Plug-In . SVG Version: 6.00 Build 0)  -->
<!DOCTYPE svg PUBLIC "-//W3C//DTD SVG 1.1//EN" "http://www.w3.org/Graphics/SVG/1.1/DTD/svg11.dtd">
<svg version="1.1" id="レイヤー_1" xmlns="http://www.w3.org/2000/svg" xmlns:xlink="http://www.w3.org/1999/xlink" x="0px"
	 y="0px" width="64px" height="64px" viewBox="0 0 64 64" enable-background="new 0 0 64 64" xml:space="preserve">
<g>
	<g>
		<path fill="#ECECED" stroke="#662900" stroke-miterlimit="10" d="M44.787,26.982v-7.864c0-5.031-4.44-9.109-9.914-9.109h-3.305
			c-5.475,0-9.914,4.078-9.914,9.109v14.045h3.504V20.946c0-4.363,3.094-7.459,6.911-7.459h2.301c3.818,0,6.911,3.096,6.911,7.459
			v6.036H44.787z"/>
		<rect x="10.766" y="26.397" fill="#FFC84D" stroke="#662900" stroke-miterlimit="10" width="42.469" height="33.121"/>
		<path fill="#281304" d="M37.104,39.267c0-2.818-2.285-5.104-5.104-5.104s-5.104,2.285-5.104,5.104
			c0,2.133,1.309,3.955,3.166,4.719l-2.054,7.766h7.985l-2.054-7.766C35.795,43.222,37.104,41.399,37.104,39.267z"/>
		<path fill="#EAA00C" d="M50.756,28.891c0,0-2.849,21.271-7.835,22.86c-4.985,1.594-29.559,5.631-28.372,5.986
			c1.188,0.355,27.779,0.949,32.646,0s4.392-4.867,4.392-4.867S52.774,24.617,50.756,28.891z"/>
		<path fill="#FFFFFF" d="M12.531,35.064c0-5.937,0.95-6.342,11.99-6.614c11.041-0.271-2.968,1.034-6.529,4.951
			C14.431,37.319,12.531,49.206,12.531,35.064z"/>
	</g>
	<path fill="#F5B32C" stroke="#231815" stroke-width="0.8625" stroke-miterlimit="10" d="M54.291,22.443
		c3.59-1.271,6.167-4.687,6.167-8.712c0-5.108-4.142-9.25-9.25-9.25s-9.25,4.142-9.25,9.25c0,4.025,2.577,7.44,6.167,8.712v25.871
		H52h2.291h4.042v-4.167h-4.042v-3.783h4.042v-6.333h-4.042V22.443z M51.208,11.981c-2.255,0-4.083-0.971-4.083-2.167
		s1.828-2.167,4.083-2.167s4.083,0.971,4.083,2.167S53.463,11.981,51.208,11.981z"/>
</g>
</svg>
