<?xml version="1.0" encoding="utf-8"?>
<!-- Generator: Adobe Illustrator 15.0.2, SVG Export Plug-In . SVG Version: 6.00 Build 0)  -->
<!DOCTYPE svg PUBLIC "-//W3C//DTD SVG 1.1//EN" "http://www.w3.org/Graphics/SVG/1.1/DTD/svg11.dtd">
<svg version="1.1" id="レイヤー_1" xmlns="http://www.w3.org/2000/svg" xmlns:xlink="http://www.w3.org/1999/xlink" x="0px"
	 y="0px" width="64px" height="64px" viewBox="0 0 64 64" enable-background="new 0 0 64 64" xml:space="preserve">
<g>
	<g>
		<path fill="#FFFFFF" stroke="#D9DADA" stroke-width="1.5811" stroke-miterlimit="10" d="M47.709,15.079
			c-0.6,0-1.182,0.045-1.752,0.113c-2.232-4.21-6.863-7.109-12.229-7.109c-4.669,0-8.788,2.189-11.248,5.53
			c-0.771-0.179-1.572-0.283-2.401-0.283c-5.644,0-10.219,4.382-10.219,9.789c0,5.404,4.575,9.788,10.219,9.788
			c2.133,0,4.111-0.629,5.751-1.699c2.229,1.485,4.95,2.366,7.898,2.366c3.939,0,7.477-1.569,9.969-4.061
			c1.236,0.36,2.592,0.561,4.012,0.561c5.842,0,10.582-3.354,10.582-7.496S53.551,15.079,47.709,15.079z"/>
	</g>
	
		<line fill="#FFFFFF" stroke="#2CA4DE" stroke-width="1.637" stroke-linecap="round" stroke-linejoin="round" stroke-miterlimit="10" x1="30.773" y1="40.119" x2="17.9" y2="52.994"/>
	
		<line fill="#FFFFFF" stroke="#2CA4DE" stroke-width="1.637" stroke-linecap="round" stroke-linejoin="round" stroke-miterlimit="10" x1="20.557" y1="38.646" x2="15.057" y2="44.146"/>
	
		<line fill="#FFFFFF" stroke="#2CA4DE" stroke-width="1.637" stroke-linecap="round" stroke-linejoin="round" stroke-miterlimit="10" x1="12.002" y1="47.541" x2="5.709" y2="53.836"/>
	
		<line fill="#FFFFFF" stroke="#2CA4DE" stroke-width="1.637" stroke-linecap="round" stroke-linejoin="round" stroke-miterlimit="10" x1="44.838" y1="37.196" x2="39.729" y2="42.305"/>
	
		<line fill="#FFFFFF" stroke="#2CA4DE" stroke-width="1.637" stroke-linecap="round" stroke-linejoin="round" stroke-miterlimit="10" x1="36.9" y1="45.714" x2="26.696" y2="55.917"/>
	
		<line fill="#FFFFFF" stroke="#2CA4DE" stroke-width="1.637" stroke-linecap="round" stroke-linejoin="round" stroke-miterlimit="10" x1="53.287" y1="38.646" x2="46.08" y2="45.714"/>
	
		<line fill="#FFFFFF" stroke="#2CA4DE" stroke-width="1.637" stroke-linecap="round" stroke-linejoin="round" stroke-miterlimit="10" x1="44.006" y1="47.633" x2="37.711" y2="53.928"/>
</g>
</svg>
