<?xml version="1.0" encoding="UTF-8" standalone="no"?>
<!-- Generator: Adobe Illustrator 15.0.2, SVG Export Plug-In . SVG Version: 6.00 Build 0)  -->

<svg
   xmlns:dc="http://purl.org/dc/elements/1.1/"
   xmlns:cc="http://creativecommons.org/ns#"
   xmlns:rdf="http://www.w3.org/1999/02/22-rdf-syntax-ns#"
   xmlns:svg="http://www.w3.org/2000/svg"
   xmlns="http://www.w3.org/2000/svg"
   xmlns:sodipodi="http://sodipodi.sourceforge.net/DTD/sodipodi-0.dtd"
   xmlns:inkscape="http://www.inkscape.org/namespaces/inkscape"
   version="1.1"
   id="レイヤー_1"
   x="0px"
   y="0px"
   width="64px"
   height="64px"
   viewBox="0 0 64 64"
   enable-background="new 0 0 64 64"
   xml:space="preserve"
   inkscape:version="0.48.5 r10040"
   sodipodi:docname="cloud_with_tornado.svg"><metadata
     id="metadata17"><rdf:RDF><cc:Work
         rdf:about=""><dc:format>image/svg+xml</dc:format><dc:type
           rdf:resource="http://purl.org/dc/dcmitype/StillImage" /></cc:Work></rdf:RDF></metadata><defs
     id="defs15" /><sodipodi:namedview
     pagecolor="#ffffff"
     bordercolor="#666666"
     borderopacity="1"
     objecttolerance="10"
     gridtolerance="10"
     guidetolerance="10"
     inkscape:pageopacity="0"
     inkscape:pageshadow="2"
     inkscape:window-width="640"
     inkscape:window-height="480"
     id="namedview13" /><g
     id="g3"><g
       id="g5"><path
         fill="#D9DADA"
         d="M48.762,56.165c-0.502-1.749-2.225-5.607-7.76-6.578c-0.334-0.059-0.641-0.135-0.914-0.227    c1.916-0.614,3.52-1.403,4.623-2.249l-0.006,0.052l0.09-0.115c0.818-0.646,1.346-1.32,1.498-1.973    c0.717-0.992,0.938-1.889,0.641-2.601c-0.17-0.407-0.586-0.92-1.596-1.05c-2.293-0.292-4.965,0.912-6.73,2.922    c-1.852,0.791-3.254,1.798-4.117,2.932c-5.837-2.506-7.062-5.001-7.053-6.656c0.593,0.061,1.197,0.098,1.816,0.098    c6.466,0,12.429-3.229,13.694-5.451c0.209-0.369,0.279-0.687,0.281-0.953c0.92-1.719-0.25-2.669-1.695-3.191    c-0.619-0.543-1.615-1.069-3.193-1.489c-1.135-0.301-2.355-0.454-3.629-0.454c-1.568,0-3.126,0.233-4.598,0.647l0.813-0.998    l-1.029-0.729c0.005-0.001,0.011-0.003,0.016-0.004c0.962-0.174,1.988-0.429,1.98-1.272c-0.004-0.433-0.011-1.238-4.71-1.998    l-0.138-0.022l-0.135,0.034c-2.961,0.74-9.922,2.9-10.598,6.959c-0.364,2.182,1.159,4.395,4.525,6.577    c0.084,0.056,0.17,0.109,0.255,0.162c-1.274,2.08-1.419,4.302-0.395,6.322c1.818,3.587,7.025,5.945,12.877,5.694    c0.357,1.903,2.371,3.88,7.168,4.386c4.877,0.516,6.346,1.407,6.781,1.852c0.104,0.416,2.141,2.714,2.141,2.714    S49.037,56.57,48.762,56.165z M36.219,32.947c1.852,0,3.559,0.26,4.654,0.693c-0.902,1.339-4.244,2.949-8.639,2.949    c-1.306,0-2.578-0.15-3.782-0.446c-0.804-0.198-1.5-0.435-2.079-0.706C29.103,33.847,32.625,32.947,36.219,32.947z M39.436,45.474    c0.389-0.156,0.799-0.304,1.225-0.438c1.295-0.41,2.416-0.626,3.242-0.626c0.627,0,0.898,0.12,1.012,0.225    c-1.164,1.37-3.463,2.925-6.305,3.608C38.172,47.244,39.014,46.004,39.436,45.474z"
         id="path7" /></g><g
       id="g9"><path
         fill="#FFFFFF"
         stroke="#D9DADA"
         stroke-width="1.5811"
         stroke-miterlimit="10"
         d="M45.633,11.492    c-0.6,0-1.182,0.045-1.752,0.113c-2.232-4.21-6.863-7.109-12.228-7.109c-4.669,0-8.788,2.189-11.248,5.53    c-0.771-0.179-1.573-0.283-2.401-0.283c-5.644,0-10.219,4.382-10.219,9.789c0,5.404,4.575,9.788,10.219,9.788    c2.132,0,4.111-0.629,5.751-1.699c2.229,1.485,4.95,2.366,7.898,2.366c3.939,0,7.476-1.569,9.968-4.061    c1.236,0.36,2.592,0.561,4.012,0.561c5.842,0,10.582-3.354,10.582-7.496S51.475,11.492,45.633,11.492z"
         id="path11" /></g></g></svg>