<?xml version="1.0" encoding="UTF-8" standalone="no"?>
<!-- Generator: Adobe Illustrator 15.0.2, SVG Export Plug-In . SVG Version: 6.00 Build 0)  -->

<svg
   xmlns:dc="http://purl.org/dc/elements/1.1/"
   xmlns:cc="http://creativecommons.org/ns#"
   xmlns:rdf="http://www.w3.org/1999/02/22-rdf-syntax-ns#"
   xmlns:svg="http://www.w3.org/2000/svg"
   xmlns="http://www.w3.org/2000/svg"
   xmlns:sodipodi="http://sodipodi.sourceforge.net/DTD/sodipodi-0.dtd"
   xmlns:inkscape="http://www.inkscape.org/namespaces/inkscape"
   version="1.1"
   id="レイヤー_1"
   x="0px"
   y="0px"
   width="64px"
   height="64px"
   viewBox="0 0 64 64"
   enable-background="new 0 0 64 64"
   xml:space="preserve"
   inkscape:version="0.48.5 r10040"
   sodipodi:docname="cloud_with_snow.svg"><metadata
     id="metadata31"><rdf:RDF><cc:Work
         rdf:about=""><dc:format>image/svg+xml</dc:format><dc:type
           rdf:resource="http://purl.org/dc/dcmitype/StillImage" /></cc:Work></rdf:RDF></metadata><defs
     id="defs29" /><sodipodi:namedview
     pagecolor="#ffffff"
     bordercolor="#666666"
     borderopacity="1"
     objecttolerance="10"
     gridtolerance="10"
     guidetolerance="10"
     inkscape:pageopacity="0"
     inkscape:pageshadow="2"
     inkscape:window-width="640"
     inkscape:window-height="480"
     id="namedview27" /><g
     id="g3"><g
       id="g5"><path
         fill="#FFFFFF"
         stroke="#D9DADA"
         stroke-width="1.5811"
         stroke-miterlimit="10"
         d="M45.633,12.85    c-0.6,0-1.182,0.045-1.752,0.113c-2.232-4.21-6.863-7.109-12.228-7.109c-4.669,0-8.788,2.189-11.248,5.53    c-0.771-0.179-1.573-0.283-2.401-0.283c-5.644,0-10.219,4.382-10.219,9.789c0,5.404,4.575,9.788,10.219,9.788    c2.132,0,4.111-0.629,5.751-1.699c2.229,1.485,4.95,2.366,7.898,2.366c3.939,0,7.476-1.569,9.968-4.061    c1.236,0.36,2.592,0.561,4.012,0.561c5.842,0,10.582-3.354,10.582-7.496S51.475,12.85,45.633,12.85z"
         id="path7" /></g><circle
       fill="#FFFFFF"
       stroke="#ECECED"
       stroke-miterlimit="10"
       cx="15.884"
       cy="39.73"
       r="1.708"
       id="circle9" /><circle
       fill="#FFFFFF"
       stroke="#ECECED"
       stroke-miterlimit="10"
       cx="23.051"
       cy="46.98"
       r="1.708"
       id="circle11" /><circle
       fill="#FFFFFF"
       stroke="#ECECED"
       stroke-miterlimit="10"
       cx="17.009"
       cy="56.438"
       r="1.708"
       id="circle13" /><circle
       fill="#FFFFFF"
       stroke="#ECECED"
       stroke-miterlimit="10"
       cx="39.009"
       cy="35.855"
       r="1.708"
       id="circle15" /><circle
       fill="#FFFFFF"
       stroke="#ECECED"
       stroke-miterlimit="10"
       cx="44.292"
       cy="43.563"
       r="1.708"
       id="circle17" /><circle
       fill="#FFFFFF"
       stroke="#ECECED"
       stroke-miterlimit="10"
       cx="35.001"
       cy="46.98"
       r="1.708"
       id="circle19" /><circle
       fill="#FFFFFF"
       stroke="#ECECED"
       stroke-miterlimit="10"
       cx="37.751"
       cy="56.438"
       r="1.708"
       id="circle21" /><circle
       fill="#FFFFFF"
       stroke="#ECECED"
       stroke-miterlimit="10"
       cx="27.014"
       cy="36.918"
       r="1.708"
       id="circle23" /><circle
       fill="#FFFFFF"
       stroke="#ECECED"
       stroke-miterlimit="10"
       cx="49.38"
       cy="32.438"
       r="1.708"
       id="circle25" /></g></svg>