<?xml version="1.0" encoding="utf-8"?>
<!-- Generator: Adobe Illustrator 15.0.2, SVG Export Plug-In . SVG Version: 6.00 Build 0)  -->
<!DOCTYPE svg PUBLIC "-//W3C//DTD SVG 1.1//EN" "http://www.w3.org/Graphics/SVG/1.1/DTD/svg11.dtd">
<svg version="1.1" id="レイヤー_1" xmlns="http://www.w3.org/2000/svg" xmlns:xlink="http://www.w3.org/1999/xlink" x="0px"
	 y="0px" width="64px" height="64px" viewBox="0 0 64 64" enable-background="new 0 0 64 64" xml:space="preserve">
<g>
	<polygon fill="#FF781D" stroke="#00090C" stroke-miterlimit="10" points="22.69,44.902 7.251,45.91 17.34,37.854 4.02,31.746 
		20.319,31.563 9.426,11.238 27.62,24.631 40.267,5.603 35.673,25.87 59.98,19.494 42.397,37.443 52.281,58.396 31.723,47.455 
		14.753,55.418 	"/>
	<polygon fill="#FCC61A" stroke="#00090C" stroke-miterlimit="10" points="21.065,44.959 6.885,44.516 16.317,38.691 4.18,34.105 
		18.96,33.105 8.428,15.725 25.441,26.962 36.311,11.073 32.594,28.062 54.179,22.398 38.77,38.203 48.523,58.121 29.188,47.568 
		13.102,54.471 	"/>
	<polygon fill="#FFFFFF" points="29.016,44.188 23.613,46.965 24.655,41.359 15.983,42.139 23.032,37.467 19.917,28.942 
		26.229,32.467 29.344,29.926 30.963,35.188 40.618,29.295 34.098,39.023 40.081,49.434 	"/>
</g>
</svg>
