<?xml version="1.0" encoding="UTF-8" standalone="no"?>
<!-- Generator: Adobe Illustrator 15.0.2, SVG Export Plug-In . SVG Version: 6.00 Build 0)  -->

<svg
   xmlns:dc="http://purl.org/dc/elements/1.1/"
   xmlns:cc="http://creativecommons.org/ns#"
   xmlns:rdf="http://www.w3.org/1999/02/22-rdf-syntax-ns#"
   xmlns:svg="http://www.w3.org/2000/svg"
   xmlns="http://www.w3.org/2000/svg"
   xmlns:sodipodi="http://sodipodi.sourceforge.net/DTD/sodipodi-0.dtd"
   xmlns:inkscape="http://www.inkscape.org/namespaces/inkscape"
   version="1.1"
   id="レイヤー_1"
   x="0px"
   y="0px"
   width="64px"
   height="64px"
   viewBox="0 0 64 64"
   enable-background="new 0 0 64 64"
   xml:space="preserve"
   inkscape:version="0.48.4 r9939"
   sodipodi:docname="confetti_ball.svg"><metadata
     id="metadata215"><rdf:RDF><cc:Work
         rdf:about=""><dc:format>image/svg+xml</dc:format><dc:type
           rdf:resource="http://purl.org/dc/dcmitype/StillImage" /></cc:Work></rdf:RDF></metadata><defs
     id="defs213" /><sodipodi:namedview
     pagecolor="#ffffff"
     bordercolor="#666666"
     borderopacity="1"
     objecttolerance="10"
     gridtolerance="10"
     guidetolerance="10"
     inkscape:pageopacity="0"
     inkscape:pageshadow="2"
     inkscape:window-width="640"
     inkscape:window-height="480"
     id="namedview211" /><g
     id="g3"><g
       id="g5"><linearGradient
         id="SVGID_1_"
         gradientUnits="userSpaceOnUse"
         x1="40.7803"
         y1="9.6411"
         x2="63.1637"
         y2="24.6878"
         gradientTransform="matrix(0.8936 0.4488 -0.4488 0.8936 9.2193 -19.5509)"><stop
           offset="0"
           style="stop-color:#FFF19F"
           id="stop8" /><stop
           offset="0.1862"
           style="stop-color:#FFE981"
           id="stop10" /><stop
           offset="1"
           style="stop-color:#FFC900"
           id="stop12" /></linearGradient><path
         fill="url(#SVGID_1_)"
         stroke="#563E02"
         stroke-width="0.9017"
         stroke-miterlimit="10"
         d="M32.235,12.937    c3.445-6.858,11.646-9.702,18.32-6.35c6.67,3.351,9.287,11.628,5.842,18.486L32.235,12.937z"
         id="path14" /><linearGradient
         id="SVGID_2_"
         gradientUnits="userSpaceOnUse"
         x1="48.668"
         y1="20.3247"
         x2="48.668"
         y2="9.2576"
         gradientTransform="matrix(0.8936 0.4488 -0.4488 0.8936 9.2193 -19.5509)"><stop
           offset="0"
           style="stop-color:#FFC000"
           id="stop17" /><stop
           offset="0.4196"
           style="stop-color:#A07A00"
           id="stop19" /><stop
           offset="1"
           style="stop-color:#1F1C00"
           id="stop21" /></linearGradient><path
         fill="url(#SVGID_2_)"
         stroke="#563E02"
         stroke-width="0.9017"
         stroke-miterlimit="10"
         d="M56.531,25.141    c-0.859,1.71-7.023,0.35-13.771-3.039s-11.52-7.523-10.66-9.234c0.858-1.71,7.025-0.35,13.771,3.039    C52.617,19.296,57.393,23.43,56.531,25.141z"
         id="path23" /></g><g
       id="g25"><g
         id="g27"><g
           enable-background="new    "
           id="g29"><g
             id="g31"><path
               fill="#FF0000"
               d="M37.554,19.62l-2.225-2.495c-0.495-0.555-0.746-1.053-0.864-1.464       c-0.277-0.957,0.125-1.585,0.125-1.594l2.225,2.495c0,0.009-0.402,0.637-0.125,1.594C36.808,18.567,37.059,19.065,37.554,19.62       z"
               id="path33" /></g><g
             id="g35"><path
               fill="#FF0000"
               d="M43.296,22.608l2.226,2.495c-0.734-0.824-1.99-1.702-4.061-2.646c-2.083-0.952-3.327-1.89-4.061-2.711       l-2.225-2.495c0.732,0.822,1.977,1.76,4.061,2.711C41.307,20.907,42.563,21.785,43.296,22.608z"
               id="path37" /></g><g
             id="g39"><path
               fill="#FF0000"
               d="M43.472,22.491l2.226,2.495c1.377,1.545,0.987,2.914,0.632,4.17l-2.225-2.495       C44.459,25.405,44.85,24.036,43.472,22.491z"
               id="path41" /></g><g
             id="g43"><path
               fill="#FF0000"
               d="M42.172,58.579l-2.226-2.494c-0.283-0.318-0.434-0.671-0.45-1.056       c-0.072-1.545,2.034-3.385,4.019-4.595c0.925-0.548,1.599-1.632,1.906-3.031c0.515-2.339-0.021-5.134-1.378-7.12       c-2.088-3.069-0.783-10.045-0.133-12.908c0.05-0.234,0.117-0.461,0.194-0.714l2.225,2.495       c-0.076,0.253-0.145,0.479-0.194,0.714c-0.649,2.863-1.954,9.839,0.133,12.908c1.357,1.986,1.894,4.781,1.378,7.12       c-0.308,1.399-0.98,2.483-1.906,3.031c-1.984,1.21-4.091,3.05-4.019,4.595C41.737,57.909,41.888,58.262,42.172,58.579z"
               id="path45" /></g><g
             id="g47"><path
               fill="#FF0000"
               d="M42.018,58.709l-2.226-2.494c0.278,0.312,0.672,0.591,1.18,0.835l2.225,2.495       C42.688,59.301,42.296,59.021,42.018,58.709z"
               id="path49" /></g><g
             id="g51"><polygon
               fill="#FF0000"
               points="41.058,56.868 43.283,59.363 43.196,59.545 40.972,57.05      "
               id="polygon53" /></g><g
             id="g55"><path
               fill="#FF0000"
               d="M34.426,13.954l0.164,0.114c0,0.009-0.402,0.637-0.125,1.594c0.288,1.001,1.367,2.526,4.85,4.119       c5.974,2.721,5.34,4.936,4.79,6.88c-0.077,0.253-0.145,0.479-0.194,0.714c-0.65,2.863-1.955,9.839,0.133,12.908       c1.356,1.986,1.893,4.781,1.378,7.12c-0.308,1.399-0.981,2.483-1.906,3.031c-1.984,1.21-4.091,3.05-4.019,4.595       c0.031,0.737,0.555,1.355,1.562,1.839l-0.086,0.182c-1.08-0.519-1.641-1.198-1.683-2.008c-0.065-1.643,2.086-3.539,4.123-4.776       c0.872-0.529,1.519-1.558,1.818-2.904c0.499-2.293-0.026-5.024-1.348-6.968c-2.133-3.13-0.83-10.178-0.162-13.06       c0.05-0.244,0.117-0.488,0.185-0.723c0.533-1.872,1.143-3.997-4.669-6.649c-3.563-1.627-4.671-3.214-4.968-4.251       C33.971,14.665,34.408,13.991,34.426,13.954z"
               id="path57" /></g></g></g></g><g
       id="g59"><g
         id="g61"><g
           enable-background="new    "
           id="g63"><g
             id="g65"><path
               fill="#29C3FF"
               d="M46.502,31.875l-2.226-2.495c-1.438-1.613-1.411-4.595-1.38-7.704c0-0.953,0.01-1.943-0.017-2.904       l2.226,2.495c0.025,0.961,0.017,1.951,0.016,2.904C45.091,27.28,45.063,30.262,46.502,31.875z"
               id="path67" /></g><g
             id="g69"><polygon
               fill="#29C3FF"
               points="54.594,33.128 56.818,35.623 56.687,35.771 54.462,33.275      "
               id="polygon71" /></g><g
             id="g73"><path
               fill="#29C3FF"
               d="M46.337,32.002l-2.226-2.495c0.537,0.601,1.271,1.023,2.274,1.206c4.781,0.875,7.336,1.93,8.076,2.563       l2.225,2.495c-0.74-0.633-3.295-1.688-8.076-2.563C47.607,33.025,46.873,32.604,46.337,32.002z"
               id="path75" /></g><g
             id="g77"><path
               fill="#29C3FF"
               d="M42.88,18.772c0.026,0.961,0.017,1.951,0.017,2.904c-0.042,4.208-0.078,8.183,3.521,8.848       c4.826,0.874,7.381,1.919,8.176,2.604l-0.132,0.147c-0.74-0.633-3.295-1.688-8.076-2.563c-3.771-0.688-3.736-4.743-3.696-9.042       c0.01-0.953,0.019-1.933-0.007-2.895L42.88,18.772z"
               id="path79" /></g></g></g></g><g
       id="g81"><g
         id="g83"><g
           enable-background="new    "
           id="g85"><g
             id="g87"><polygon
               fill="#11D3AE"
               points="23.668,26.792 25.893,29.287 25.941,29.483 23.717,26.989      "
               id="polygon89" /></g><g
             id="g91"><polygon
               fill="#11D3AE"
               points="12.531,47.101 14.756,49.596 8.21,52.146 5.985,49.652      "
               id="polygon93" /></g><g
             id="g95"><path
               fill="#11D3AE"
               d="M23.717,26.989l2.225,2.495c-1.029,0.255-1.246,3.217-1.478,6.351c-0.231,3.134-0.47,6.374-1.523,7.835       c-2.124,2.928-8.123,5.891-8.185,5.927l-2.225-2.495c0.062-0.036,6.061-2.999,8.185-5.927c1.053-1.461,1.292-4.701,1.523-7.834       C22.47,30.206,22.687,27.244,23.717,26.989z"
               id="path97" /></g><g
             id="g99"><path
               fill="#11D3AE"
               d="M23.668,26.792l0.049,0.197c-1.03,0.255-1.247,3.217-1.479,6.351c-0.231,3.133-0.47,6.373-1.523,7.834       c-2.124,2.928-8.123,5.891-8.185,5.927l-6.546,2.552l-0.075-0.18l6.546-2.559c0.044-0.028,6.007-2.972,8.096-5.854       c1.026-1.413,1.272-4.772,1.489-7.734C22.287,29.984,22.495,27.085,23.668,26.792z"
               id="path101" /></g></g></g></g><g
       id="g103"><linearGradient
         id="SVGID_3_"
         gradientUnits="userSpaceOnUse"
         x1="64.8721"
         y1="-2.4575"
         x2="87.2546"
         y2="12.5886"
         gradientTransform="matrix(-0.8936 0.4488 0.4488 0.8936 81.7382 -19.5509)"><stop
           offset="0"
           style="stop-color:#FFF19F"
           id="stop106" /><stop
           offset="0.1862"
           style="stop-color:#FFE981"
           id="stop108" /><stop
           offset="1"
           style="stop-color:#FFC900"
           id="stop110" /></linearGradient><path
         fill="url(#SVGID_3_)"
         stroke="#563E02"
         stroke-width="0.9017"
         stroke-miterlimit="10"
         d="M31.765,12.937    c-3.445-6.858-11.646-9.702-18.319-6.35c-6.67,3.351-9.287,11.628-5.843,18.486L31.765,12.937z"
         id="path112" /><linearGradient
         id="SVGID_4_"
         gradientUnits="userSpaceOnUse"
         x1="72.7588"
         y1="8.2261"
         x2="72.7588"
         y2="-2.8426"
         gradientTransform="matrix(-0.8936 0.4488 0.4488 0.8936 81.7382 -19.5509)"><stop
           offset="0"
           style="stop-color:#FFC000"
           id="stop115" /><stop
           offset="0.4196"
           style="stop-color:#A07A00"
           id="stop117" /><stop
           offset="1"
           style="stop-color:#1F1C00"
           id="stop119" /></linearGradient><path
         fill="url(#SVGID_4_)"
         stroke="#563E02"
         stroke-width="0.9017"
         stroke-miterlimit="10"
         d="M7.468,25.141    c0.859,1.71,7.024,0.35,13.772-3.039c6.747-3.389,11.519-7.523,10.659-9.234c-0.858-1.71-7.024-0.35-13.771,3.039    C11.382,19.296,6.608,23.43,7.468,25.141z"
         id="path121" /></g><path
       fill="#FFFFFF"
       stroke="#F2A700"
       stroke-width="0.9017"
       stroke-miterlimit="10"
       d="M25,19.417h15.167   c0,0,0.666,25.333-7.25,41.417l-15.083-5.917C17.833,54.917,23.417,50.834,25,19.417z"
       id="path123" /><g
       id="g125"><g
         id="g127"><g
           enable-background="new    "
           id="g129"><g
             id="g131"><polygon
               fill="#FF2468"
               points="23.052,20.875 23.942,21.873 23.864,22.054 22.974,21.056      "
               id="polygon133" /></g><g
             id="g135"><polygon
               fill="#FF2468"
               points="3.358,43.469 4.249,44.467 4.07,44.543 3.181,43.545      "
               id="polygon137" /></g><g
             id="g139"><path
               fill="#FF2468"
               d="M22.974,21.056l0.89,0.998c-0.482-0.22-1.105-0.328-1.771-0.314c-1.237,0.025-2.626,0.468-3.551,1.393       c-0.936,0.954-1.749,2.759-0.243,5.983c0.963,2.066,0.983,3.667,0.067,4.737c-0.872,1.013-2.512,1.412-4.197,1.445       c-1.329,0.027-2.685-0.173-3.717-0.478c-0.257-0.074-0.533-0.107-0.819-0.102c-1.255,0.024-2.734,0.799-3.911,2.104       c-1.984,2.189-2.535,5.05-1.473,7.645l-0.89-0.998c-1.062-2.595-0.511-5.455,1.473-7.645c1.177-1.305,2.655-2.079,3.911-2.104       c0.287-0.006,0.562,0.027,0.819,0.102c1.032,0.305,2.389,0.505,3.717,0.478c1.685-0.033,3.325-0.433,4.197-1.445       c0.916-1.071,0.896-2.671-0.067-4.737c-1.505-3.225-0.692-5.03,0.243-5.984c0.924-0.924,2.313-1.368,3.551-1.393       C21.869,20.728,22.492,20.836,22.974,21.056z"
               id="path141" /></g><g
             id="g143"><path
               fill="#FF2468"
               d="M21.202,20.547c0.695-0.014,1.345,0.099,1.85,0.328l-0.078,0.181c-0.482-0.22-1.105-0.328-1.771-0.314       c-1.237,0.025-2.626,0.468-3.551,1.393c-0.936,0.954-1.749,2.759-0.243,5.984c0.963,2.066,0.983,3.666,0.067,4.737       c-0.872,1.012-2.512,1.412-4.197,1.445c-1.329,0.027-2.685-0.173-3.717-0.478c-0.257-0.074-0.533-0.107-0.819-0.102       c-1.255,0.024-2.734,0.799-3.911,2.104c-1.984,2.189-2.535,5.05-1.473,7.645l-0.178,0.076c-1.101-2.667-0.532-5.6,1.505-7.853       c1.206-1.349,2.74-2.145,4.048-2.171c0.308-0.006,0.603,0.029,0.878,0.112c1.023,0.299,2.367,0.498,3.674,0.472       c1.627-0.032,3.2-0.413,4.035-1.382c0.863-1.006,0.836-2.525-0.099-4.521c-1.552-3.322-0.696-5.209,0.293-6.209       C18.473,21.034,19.915,20.573,21.202,20.547z"
               id="path145" /></g></g></g></g><g
       id="g147"><g
         id="g149"><g
           enable-background="new    "
           id="g151"><g
             id="g153"><polygon
               fill="#B0FF27"
               points="32.876,16.687 35.102,19.182 34.955,19.05 32.73,16.556      "
               id="polygon155" /></g><g
             id="g157"><path
               fill="#B0FF27"
               d="M39.077,17.27l2.226,2.495c-0.357-0.4-0.765-0.679-1.162-0.873c-0.752-0.363-1.609-0.492-2.406-0.476       c-1.214,0.024-2.287,0.384-2.633,0.766l-2.225-2.495c0.345-0.381,1.419-0.741,2.632-0.766c0.797-0.016,1.655,0.113,2.407,0.476       C38.313,16.591,38.721,16.87,39.077,17.27z"
               id="path159" /></g><g
             id="g161"><path
               fill="#B0FF27"
               d="M39.229,17.138l2.226,2.495c0.867,0.972,1.445,2.622,0.938,5.436c-0.521,2.905-0.159,4.518,0.723,5.507       l-2.225-2.495c-0.883-0.99-1.243-2.602-0.723-5.507C40.674,19.76,40.096,18.11,39.229,17.138z"
               id="path163" /></g><g
             id="g165"><path
               fill="#B0FF27"
               d="M49.416,32.249l2.226,2.495c-0.309-0.346-0.665-0.644-1.079-0.877       c-1.191-0.677-2.456-1.011-3.676-1.337c-1.549-0.41-2.993-0.791-3.912-1.822l-2.226-2.495c0.92,1.031,2.364,1.412,3.913,1.823       c1.22,0.326,2.484,0.66,3.675,1.337C48.752,31.606,49.107,31.903,49.416,32.249z"
               id="path167" /></g><g
             id="g169"><path
               fill="#B0FF27"
               d="M49.563,32.104l2.225,2.495c1.289,1.445,1.766,3.688,2.198,5.717c0.378,1.777,0.723,3.389,1.515,4.276       l-2.226-2.495c-0.791-0.888-1.137-2.499-1.514-4.276C51.329,35.792,50.853,33.55,49.563,32.104z"
               id="path171" /></g><g
             id="g173"><path
               fill="#B0FF27"
               d="M58.796,45.013l2.225,2.495c-0.768-0.861-2.072-1.832-4.126-2.009c-0.646-0.055-1.14-0.334-1.529-0.771       l-2.225-2.495c0.39,0.437,0.883,0.716,1.528,0.771C56.723,43.182,58.027,44.151,58.796,45.013z"
               id="path175" /></g><g
             id="g177"><polygon
               fill="#B0FF27"
               points="59.908,46.343 62.134,48.838 61.946,48.914 59.722,46.419      "
               id="polygon179" /></g><g
             id="g181"><path
               fill="#B0FF27"
               d="M58.947,44.882l2.225,2.495c0.683,0.765,0.957,1.448,0.962,1.461l-2.226-2.495       C59.904,46.33,59.629,45.646,58.947,44.882z"
               id="path183" /></g><g
             id="g185"><path
               fill="#B0FF27"
               d="M35.514,15.719c0.821-0.017,1.704,0.119,2.489,0.497c1.388,0.683,2.892,2.324,2.164,6.358       c-1.038,5.792,1.429,6.444,4.545,7.272c1.238,0.326,2.512,0.668,3.729,1.345c2.172,1.233,2.78,4.098,3.32,6.631       c0.55,2.588,1.03,4.826,2.922,4.985c3.936,0.335,5.216,3.509,5.225,3.536l-0.187,0.076c-0.011-0.027-1.243-3.086-5.053-3.415       c-2.044-0.174-2.555-2.591-3.104-5.143c-0.53-2.488-1.129-5.309-3.228-6.489c-1.19-0.677-2.455-1.011-3.675-1.337       c-3.091-0.819-5.765-1.521-4.685-7.503c0.703-3.898-0.737-5.488-2.062-6.135c-0.752-0.363-1.61-0.492-2.407-0.476       c-1.213,0.024-2.287,0.385-2.632,0.766l-0.146-0.131C33.105,16.137,34.234,15.744,35.514,15.719z"
               id="path187" /></g></g></g></g><rect
       x="10.167"
       y="25.643"
       transform="matrix(0.7432 -0.6691 0.6691 0.7432 -14.9762 15.601)"
       fill="#FFEE00"
       width="5.337"
       height="3.333"
       id="rect189" /><rect
       x="19.292"
       y="27.947"
       transform="matrix(-0.2113 -0.9774 0.9774 -0.2113 -2.4011 55.4004)"
       fill="#FFEE00"
       width="3.718"
       height="1.444"
       id="rect191" /><rect
       x="42.457"
       y="43.613"
       transform="matrix(-0.6139 -0.7894 0.7894 -0.6139 36.5237 106.5361)"
       fill="#FFEE00"
       width="3.718"
       height="1.445"
       id="rect193" /><rect
       x="45.757"
       y="24.107"
       transform="matrix(-0.2109 -0.9775 0.9775 -0.2109 33.3646 77.6512)"
       fill="#FFEE00"
       width="4.532"
       height="2.504"
       id="rect195" /><rect
       x="15.032"
       y="46.111"
       transform="matrix(0.618 -0.7862 0.7862 0.618 -30.6273 31.6916)"
       fill="#FFEE00"
       width="4.533"
       height="2.505"
       id="rect197" /><rect
       x="39.473"
       y="56.59"
       transform="matrix(-0.8202 -0.5721 0.5721 -0.8202 42.8859 129.1623)"
       fill="#FFEE00"
       width="4.534"
       height="2.504"
       id="rect199" /><rect
       x="36.836"
       y="49.921"
       transform="matrix(-0.2112 -0.9774 0.9774 -0.2112 -2.6347 99.1609)"
       fill="#FFEE00"
       width="3.718"
       height="1.445"
       id="rect201" /><rect
       x="47.272"
       y="39.792"
       transform="matrix(0.5115 -0.8593 0.8593 0.5115 -10.8126 62.0102)"
       fill="#FFEE00"
       width="3.717"
       height="1.445"
       id="rect203" /><rect
       x="40.338"
       y="29.974"
       transform="matrix(0.618 -0.7862 0.7862 0.618 -8.2743 45.425)"
       fill="#FFEE00"
       width="4.534"
       height="2.505"
       id="rect205" /><rect
       x="6.322"
       y="56.706"
       transform="matrix(-0.6138 -0.7895 0.7895 -0.6138 -32.1362 99.136)"
       fill="#FFEE00"
       width="3.718"
       height="1.445"
       id="rect207" /><rect
       x="9.567"
       y="48.607"
       transform="matrix(0.5116 -0.8592 0.8592 0.5116 -36.805 33.9091)"
       fill="#FFEE00"
       width="3.717"
       height="1.444"
       id="rect209" /></g></svg>