<?xml version="1.0" encoding="utf-8"?>
<!-- Generator: Adobe Illustrator 15.0.0, SVG Export Plug-In . SVG Version: 6.00 Build 0)  -->
<!DOCTYPE svg PUBLIC "-//W3C//DTD SVG 1.1//EN" "http://www.w3.org/Graphics/SVG/1.1/DTD/svg11.dtd">
<svg version="1.1" id="レイヤー_1" xmlns="http://www.w3.org/2000/svg" xmlns:xlink="http://www.w3.org/1999/xlink" x="0px"
	 y="0px" width="64px" height="64px" viewBox="0 0 64 64" style="enable-background:new 0 0 64 64;" xml:space="preserve">
<g>
	
		<rect x="33.9669647" y="16.9378433" transform="matrix(0.8785666 0.4776199 -0.4776199 0.8785666 18.168129 -13.1612129)" style="fill:#595757;" width="1.9996617" height="24.4216747"/>
	<g>
		<circle style="fill:#FFFFFF;" cx="29.1328125" cy="39.2441406" r="5.8125"/>
		<path style="fill:#595757;" d="M29.1328125,46.0566406c-3.7558594,0-6.8125-3.0566406-6.8125-6.8125
			c0-3.7578125,3.0566406-6.8129883,6.8125-6.8129883c3.7568359,0,6.8125,3.0551758,6.8125,6.8129883
			C35.9453125,43,32.8896484,46.0566406,29.1328125,46.0566406z M29.1328125,34.4316406
			c-2.6533203,0-4.8125,2.1582031-4.8125,4.8125c0,2.6523438,2.1591797,4.8125,4.8125,4.8125
			c2.6542969,0,4.8125-2.1601563,4.8125-4.8125C33.9453125,36.5898438,31.7871094,34.4316406,29.1328125,34.4316406z"/>
	</g>
</g>
</svg>
