<?xml version="1.0" encoding="UTF-8" standalone="no"?>
<!-- Generator: Adobe Illustrator 15.0.2, SVG Export Plug-In . SVG Version: 6.00 Build 0)  -->

<svg
   xmlns:dc="http://purl.org/dc/elements/1.1/"
   xmlns:cc="http://creativecommons.org/ns#"
   xmlns:rdf="http://www.w3.org/1999/02/22-rdf-syntax-ns#"
   xmlns:svg="http://www.w3.org/2000/svg"
   xmlns="http://www.w3.org/2000/svg"
   xmlns:sodipodi="http://sodipodi.sourceforge.net/DTD/sodipodi-0.dtd"
   xmlns:inkscape="http://www.inkscape.org/namespaces/inkscape"
   version="1.1"
   x="0px"
   y="0px"
   width="64px"
   height="64px"
   viewBox="0 0 64 64"
   enable-background="new 0 0 64 64"
   xml:space="preserve"
   id="svg2"
   inkscape:version="0.48.4 r9939"
   sodipodi:docname="convenience_store.svg"><metadata
     id="metadata335"><rdf:RDF><cc:Work
         rdf:about=""><dc:format>image/svg+xml</dc:format><dc:type
           rdf:resource="http://purl.org/dc/dcmitype/StillImage" /></cc:Work></rdf:RDF></metadata><defs
     id="defs333" /><sodipodi:namedview
     pagecolor="#ffffff"
     bordercolor="#666666"
     borderopacity="1"
     objecttolerance="10"
     gridtolerance="10"
     guidetolerance="10"
     inkscape:pageopacity="0"
     inkscape:pageshadow="2"
     inkscape:window-width="640"
     inkscape:window-height="480"
     id="namedview331" /><g
     id="レイヤー_1" /><g
     id="ここから下は新しいやつ"><g
       id="U_x2B_1F3EA"><polygon
         fill="#AD8F6C"
         stroke="#1C0D01"
         stroke-width="1.844"
         stroke-miterlimit="1"
         points="61.828,60.833 50.666,60.833     50.666,36.465 61.828,40.525   "
         id="polygon7" /><polygon
         fill="#EAC28C"
         stroke="#1C0D01"
         stroke-width="1.844"
         stroke-miterlimit="10"
         points="4.545,36.465 4.545,60.833     35.875,60.833 36.711,60.833 51.666,60.833 51.666,36.748   "
         id="polygon9" /><g
         id="g11"><g
           id="g13"><g
             enable-background="new    "
             id="g15"><g
               id="g17"><polygon
                 fill="#C10D23"
                 points="10.006,9.718 12.606,10.938 13.53,13.25 10.93,12.03       "
                 id="polygon19" /></g><g
               id="g21"><polygon
                 fill="#C10D23"
                 points="11.791,13.379 14.391,14.6 12.763,15.653 10.163,14.433       "
                 id="polygon23" /></g><g
               id="g25"><path
                 fill="#C10D23"
                 d="M16.967,9.759c-1.744,0-3.416,0.567-4.36,1.18l-2.6-1.22c0.945-0.612,2.617-1.179,4.361-1.18        C15.233,8.945,16.101,9.352,16.967,9.759z"
                 id="path27" /></g><g
               id="g29"><path
                 fill="#FFFFFF"
                 d="M14.803,11.338l2.6,1.22c-0.309-0.145-0.688-0.227-1.14-0.227c-1.024,0-2.032,0.469-2.733,0.919        l-2.6-1.22c0.701-0.45,1.709-0.918,2.733-0.918C14.115,11.111,14.494,11.194,14.803,11.338z"
                 id="path31" /></g><g
               id="g33"><path
                 fill="#C10D23"
                 d="M14.097,12.776l2.6,1.22c-0.082-0.039-0.216-0.063-0.436-0.063c-0.53,0-1.205,0.244-1.87,0.667        l-2.6-1.22c0.666-0.423,1.34-0.666,1.87-0.666C13.88,12.713,14.015,12.737,14.097,12.776z"
                 id="path35" /></g><g
               id="g37"><polygon
                 fill="#C10D23"
                 points="9.833,20.497 12.433,21.717 12.431,23.696 9.831,22.476       "
                 id="polygon39" /></g><g
               id="g41"><polygon
                 fill="#C10D23"
                 points="11.605,18.778 14.206,19.998 12.433,21.717 9.833,20.497       "
                 id="polygon43" /></g><g
               id="g45"><path
                 fill="#C10D23"
                 d="M19.691,10.291c-0.723-0.339-1.627-0.533-2.725-0.532c-0.866-0.407-1.733-0.813-2.6-1.22        c1.097,0,2.001,0.194,2.724,0.533C17.871,9.437,18.911,9.925,19.691,10.291z"
                 id="path47" /></g><g
               id="g49"><path
                 fill="#C10D23"
                 d="M14.803,11.338l2.6,1.22c0.69,0.324,1.025,0.961,1.024,1.689c-0.002,1.665-1.594,3.267-4.221,5.75        l-2.6-1.22c2.627-2.484,4.219-4.086,4.221-5.75C15.828,12.3,15.493,11.663,14.803,11.338z"
                 id="path51" /></g><g
               id="g53"><polygon
                 fill="#FFFFFF"
                 points="15.695,18.687 18.295,19.907 17.018,21.005 14.417,19.785       "
                 id="polygon55" /></g><g
               id="g57"><path
                 fill="#FFFFFF"
                 d="M17.091,9.071l2.6,1.22c1.538,0.722,2.251,2.101,2.25,3.668c-0.003,2.402-1.775,4.283-3.646,5.948        l-2.6-1.22c1.871-1.665,3.644-3.545,3.646-5.948C19.343,11.172,18.629,9.793,17.091,9.071z"
                 id="path59" /></g><g
               id="g61"><polygon
                 fill="#C10D23"
                 points="20.925,13.187 23.525,14.406 21.326,17.963 18.726,16.743       "
                 id="polygon63" /></g><g
               id="g65"><path
                 fill="#C10D23"
                 d="M17.793,7.617l2.6,1.22c2.271,1.066,3.15,3.207,3.148,5.122c0,0.151-0.006,0.3-0.016,0.447l-2.6-1.22        c0.01-0.147,0.016-0.296,0.016-0.447C20.943,10.823,20.064,8.683,17.793,7.617z"
                 id="path67" /></g><g
               id="g69"><polygon
                 fill="#C10D23"
                 points="18.726,16.743 21.326,17.963 21.325,19.157 18.725,17.938       "
                 id="polygon71" /></g><g
               id="g73"><path
                 fill="#C10D23"
                 d="M18.725,17.938l2.6,1.22c-0.083,0.095-0.167,0.188-0.252,0.282l-2.6-1.22        C18.558,18.125,18.642,18.032,18.725,17.938z"
                 id="path75" /></g><g
               id="g77"><polygon
                 fill="#C10D23"
                 points="18.724,18.219 21.324,19.439 21.322,21.041 18.723,19.82       "
                 id="polygon79" /></g><g
               id="g81"><polygon
                 fill="#C10D23"
                 points="18.723,19.82 21.322,21.041 17.018,21.042 14.417,19.821       "
                 id="polygon83" /></g><g
               id="g85"><polygon
                 fill="#C10D23"
                 points="19.567,19.82 22.167,21.04 21.322,21.041 18.723,19.82       "
                 id="polygon87" /></g><g
               id="g89"><polygon
                 fill="#FFFFFF"
                 points="19.567,19.82 22.167,21.04 22.166,22.102 19.566,20.882       "
                 id="polygon91" /></g><g
               id="g93"><polygon
                 fill="#C10D23"
                 points="20.334,17.202 22.934,18.422 22.932,20.5 20.332,19.28       "
                 id="polygon95" /></g><g
               id="g97"><polygon
                 fill="#C10D23"
                 points="25.556,8.743 28.156,9.963 22.934,18.422 20.334,17.202       "
                 id="polygon99" /></g><g
               id="g101"><polygon
                 fill="#FFFFFF"
                 points="19.564,22.474 22.164,23.694 12.431,23.696 9.831,22.476       "
                 id="polygon103" /></g><g
               id="g105"><polygon
                 fill="#C10D23"
                 points="21.175,20.882 23.775,22.102 22.166,22.102 19.566,20.882       "
                 id="polygon107" /></g><g
               id="g109"><path
                 fill="#FFFFFF"
                 d="M14.367,8.539c3.433,0,4.977,1.897,4.974,4.201c-0.003,2.402-1.775,4.283-3.646,5.948l-1.277,1.098        l4.305,0.035h0.844l-0.001,1.062l-0.002,1.592l-9.733,0.002l0.002-1.979l1.772-1.719c2.627-2.484,4.219-4.086,4.221-5.75        c0.001-1.053-0.699-1.917-2.164-1.916c-1.024,0-2.032,0.468-2.733,0.918l-0.923-2.312C10.951,9.106,12.623,8.539,14.367,8.539        z"
                 id="path111" /></g><g
               id="g113"><polygon
                 fill="#FFFFFF"
                 points="19.566,20.882 22.166,22.102 22.164,23.694 19.564,22.474       "
                 id="polygon115" /></g><g
               id="g117"><polygon
                 fill="#FFFFFF"
                 points="25.074,14.016 27.674,15.236 25.981,18.062 23.381,16.841       "
                 id="polygon119" /></g><g
               id="g121"><path
                 fill="#FFFFFF"
                 d="M26.362,11.559l2.6,1.22c-0.424,0.81-0.811,1.628-1.288,2.457l-2.6-1.22        C25.551,13.188,25.938,12.369,26.362,11.559z"
                 id="path123" /></g><g
               id="g125"><polygon
                 fill="#FFFFFF"
                 points="26.416,11.559 29.016,12.779 28.962,12.779 26.362,11.559       "
                 id="polygon127" /></g><g
               id="g129"><path
                 fill="#C10D23"
                 d="M23.381,16.841l1.692-2.826c0.478-0.828,0.865-1.646,1.288-2.457h0.054        c-0.037,0.81-0.119,1.736-0.119,2.511l-0.003,2.807l-2.912,0V16.841z"
                 id="path131" /></g><g
               id="g133"><polygon
                 fill="#FFFFFF"
                 points="23.381,16.841 25.981,18.062 25.981,18.097 23.381,16.877       "
                 id="polygon135" /></g><g
               id="g137"><polygon
                 fill="#C10D23"
                 points="21.171,24.084 23.771,25.304 10.83,25.307 8.229,24.087       "
                 id="polygon139" /></g><g
               id="g141"><polygon
                 fill="#C10D23"
                 points="24.689,20.881 27.289,22.101 23.775,22.102 21.175,20.882       "
                 id="polygon143" /></g><g
               id="g145"><polygon
                 fill="#C10D23"
                 points="21.175,20.882 23.775,22.102 23.771,25.304 21.171,24.084       "
                 id="polygon147" /></g><g
               id="g149"><path
                 fill="#C10D23"
                 d="M14.369,6.937c4.853-0.001,6.575,3.121,6.572,5.802c0,0.151-0.005,0.3-0.016,0.447l-2.2,3.557        l-0.001,1.194c-0.083,0.094-0.167,0.188-0.252,0.281h0.251l-0.001,1.602l-4.305,0.001l1.277-1.134        c1.871-1.665,3.644-3.545,3.646-5.948c0.002-2.303-1.541-4.201-4.974-4.201c-1.744,0-3.416,0.567-4.361,1.18l0.923,2.312        c0.701-0.45,1.709-0.918,2.733-0.918c1.465,0,2.165,0.863,2.164,1.916c-0.002,1.665-1.594,3.266-4.221,5.75l-1.772,1.719        l-0.002,1.979l9.733-0.002l0.002-1.592h1.609l-0.003,3.203L8.229,24.087l0.005-4.273l2.258-2.187        c2.123-1.998,3.733-3.6,3.735-4.599c0-0.153,0-0.315-0.566-0.314c-0.53,0-1.205,0.243-1.87,0.666l-1.628,1.053L8.03,9.088        l1.106-0.711C10.197,7.685,12.14,6.938,14.369,6.937z"
                 id="path151" /></g><g
               id="g153"><path
                 fill="#C10D23"
                 d="M26.416,11.559l2.6,1.22c-0.037,0.81-0.119,1.736-0.119,2.51l-2.6-1.22        C26.297,13.295,26.378,12.369,26.416,11.559z"
                 id="path155" /></g><g
               id="g157"><polygon
                 fill="#C10D23"
                 points="29.528,8.743 32.128,9.962 28.156,9.963 25.556,8.743       "
                 id="polygon159" /></g><g
               id="g161"><polygon
                 fill="#C10D23"
                 points="26.296,14.07 28.896,15.29 28.893,18.097 26.293,16.876       "
                 id="polygon163" /></g><g
               id="g165"><polygon
                 fill="#C10D23"
                 points="26.293,16.876 28.893,18.097 25.981,18.097 23.381,16.877       "
                 id="polygon167" /></g><g
               id="g169"><polygon
                 fill="#FFFFFF"
                 points="26.291,19.279 28.891,20.499 22.932,20.5 20.332,19.28       "
                 id="polygon171" /></g><g
               id="g173"><polygon
                 fill="#C10D23"
                 points="26.291,19.279 28.891,20.499 28.887,23.693 26.287,22.473       "
                 id="polygon175" /></g><g
               id="g177"><polygon
                 fill="#FFFFFF"
                 points="29.528,8.743 32.128,9.962 32.12,18.096 29.52,16.876       "
                 id="polygon179" /></g><g
               id="g181"><polygon
                 fill="#C10D23"
                 points="30.589,16.875 33.188,18.096 32.12,18.096 29.52,16.876       "
                 id="polygon183" /></g><g
               id="g185"><polygon
                 fill="#C10D23"
                 points="30.6,7.132 33.199,8.352 33.188,18.096 30.589,16.875       "
                 id="polygon187" /></g><g
               id="g189"><polygon
                 fill="#C10D23"
                 points="31.146,16.875 33.746,18.096 33.188,18.096 30.589,16.875       "
                 id="polygon191" /></g><g
               id="g193"><polygon
                 fill="#FFFFFF"
                 points="30.586,19.278 33.187,20.498 32.117,20.499 29.517,19.278       "
                 id="polygon195" /></g><g
               id="g197"><polygon
                 fill="#C10D23"
                 points="35.73,8.498 38.33,9.718 34.798,9.719 32.198,8.499       "
                 id="polygon199" /></g><g
               id="g201"><polygon
                 fill="#FFFFFF"
                 points="29.514,22.472 32.113,23.692 28.887,23.693 26.287,22.473       "
                 id="polygon203" /></g><g
               id="g205"><polygon
                 fill="#FFFFFF"
                 points="29.517,19.278 32.117,20.499 32.113,23.692 29.514,22.472       "
                 id="polygon207" /></g><g
               id="g209"><path
                 fill="#FFFFFF"
                 d="M30.589,16.875h0.558l-0.003,2.403h-0.557h-1.069l-0.003,3.194l-3.227,0l0.003-3.193l-5.959,0.001        l0.002-2.079l5.222-8.458l3.972,0l-0.009,8.133L30.589,16.875z M26.296,14.07c0-0.774,0.082-1.701,0.119-2.511h-0.054        c-0.423,0.81-0.811,1.629-1.288,2.457l-1.692,2.826v0.036l2.912,0L26.296,14.07"
                 id="path211" /></g><g
               id="g213"><polygon
                 fill="#FFFFFF"
                 points="31.146,16.875 33.746,18.096 33.743,20.498 31.144,19.278       "
                 id="polygon215" /></g><g
               id="g217"><polygon
                 fill="#FFFFFF"
                 points="31.144,19.278 33.743,20.498 33.187,20.498 30.586,19.278       "
                 id="polygon219" /></g><g
               id="g221"><polygon
                 fill="#C10D23"
                 points="29.517,19.278 30.586,19.278 30.581,24.083 24.686,24.083 24.689,20.881 21.175,20.882         19.566,20.882 19.567,19.82 18.723,19.82 18.724,18.219 18.725,17.937 18.726,16.743 20.925,13.187 24.668,7.133 30.6,7.132         30.589,16.875 29.52,16.876 29.528,8.743 25.556,8.743 20.334,17.202 20.332,19.28 26.291,19.279 26.287,22.473         29.514,22.472       "
                 id="polygon223" /></g><g
               id="g225"><polygon
                 fill="#C10D23"
                 points="30.581,24.083 33.181,25.302 27.285,25.304 24.686,24.083       "
                 id="polygon227" /></g><g
               id="g229"><polygon
                 fill="#C10D23"
                 points="30.586,19.278 33.187,20.498 33.181,25.302 30.581,24.083       "
                 id="polygon231" /></g><g
               id="g233"><polygon
                 fill="#FFFFFF"
                 points="35.73,8.498 38.33,9.718 38.324,15.126 35.725,13.906       "
                 id="polygon235" /></g><g
               id="g237"><polygon
                 fill="#C10D23"
                 points="31.12,24.083 33.721,25.302 33.181,25.302 30.581,24.083       "
                 id="polygon239" /></g><g
               id="g241"><polygon
                 fill="#C10D23"
                 points="32.198,8.499 34.798,9.719 34.782,23.692 32.183,22.472       "
                 id="polygon243" /></g><g
               id="g245"><polygon
                 fill="#C10D23"
                 points="37.331,6.896 39.932,8.116 39.925,13.524 37.325,12.304       "
                 id="polygon247" /></g><g
               id="g249"><polygon
                 fill="#FFFFFF"
                 points="35.721,16.767 38.321,17.987 38.314,23.691 35.715,22.471       "
                 id="polygon251" /></g><g
               id="g253"><polygon
                 fill="#FFFFFF"
                 points="35.715,22.471 38.314,23.691 34.782,23.692 32.183,22.472       "
                 id="polygon255" /></g><g
               id="g257"><polygon
                 fill="#C10D23"
                 points="40.101,13.905 42.701,15.125 38.324,15.126 35.725,13.906       "
                 id="polygon259" /></g><g
               id="g261"><polygon
                 fill="#C10D23"
                 points="40.106,8.497 42.707,9.717 42.701,15.125 40.101,13.905       "
                 id="polygon263" /></g><g
               id="g265"><polygon
                 fill="#C10D23"
                 points="38.486,18.368 41.087,19.588 39.919,19.588 37.318,18.368       "
                 id="polygon267" /></g><g
               id="g269"><polygon
                 fill="#C10D23"
                 points="43.639,8.497 46.239,9.717 42.707,9.717 40.106,8.497       "
                 id="polygon271" /></g><g
               id="g273"><polygon
                 fill="#FFFFFF"
                 points="40.098,16.766 42.697,17.986 38.321,17.987 35.721,16.767       "
                 id="polygon275" /></g><g
               id="g277"><polygon
                 fill="#C10D23"
                 points="37.313,24.081 39.912,25.301 33.721,25.302 31.12,24.083       "
                 id="polygon279" /></g><g
               id="g281"><polygon
                 fill="#C10D23"
                 points="37.318,18.368 39.919,19.588 39.912,25.301 37.313,24.081       "
                 id="polygon283" /></g><g
               id="g285"><polygon
                 fill="#C10D23"
                 points="40.098,16.766 42.697,17.986 42.691,23.69 40.092,22.47       "
                 id="polygon287" /></g><g
               id="g289"><polygon
                 fill="#FFFFFF"
                 points="43.623,22.47 46.224,23.689 42.691,23.69 40.092,22.47       "
                 id="polygon291" /></g><g
               id="g293"><polygon
                 fill="#FFFFFF"
                 points="43.639,8.497 43.623,22.47 40.092,22.47 40.098,16.766 35.721,16.767 35.715,22.471         32.183,22.472 32.198,8.499 35.73,8.498 35.725,13.906 40.101,13.905 40.106,8.497       "
                 id="polygon295" /></g><g
               id="g297"><polygon
                 fill="#FFFFFF"
                 points="43.639,8.497 46.239,9.717 46.224,23.689 43.623,22.47       "
                 id="polygon299" /></g><g
               id="g301"><polygon
                 fill="#C10D23"
                 points="45.24,6.895 47.84,8.115 47.821,25.299 45.221,24.08       "
                 id="polygon303" /></g><g
               id="g305"><polygon
                 fill="#C10D23"
                 points="45.221,24.08 47.821,25.299 41.08,25.301 38.48,24.081       "
                 id="polygon307" /></g><g
               id="g309"><path
                 fill="#C10D23"
                 d="M38.499,6.896l6.741-0.001l-0.02,17.185l-6.74,0.001l0.006-5.713l-1.168,0l-0.006,5.713l-6.192,0.001        h-0.539l0.005-4.804h0.557l0.003-2.403h-0.558L30.6,7.132V6.897l6.731-0.001l-0.006,5.407h1.168L38.499,6.896z M43.623,22.469        l0.016-13.973l-3.532,0l-0.006,5.408l-4.376,0.001l0.006-5.408l-3.533,0.001l-0.015,13.973l3.532,0l0.006-5.705l4.377-0.001        l-0.006,5.705L43.623,22.469"
                 id="path311" /></g></g></g></g><rect
         x="34.271"
         y="45.167"
         fill="#FFFFFF"
         width="11.373"
         height="14.506"
         id="rect313" /><rect
         x="4.545"
         y="25.333"
         fill="#EAC28C"
         stroke="#1C0D01"
         stroke-width="1.844"
         stroke-miterlimit="10"
         width="47.121"
         height="4.167"
         id="rect315" /><g
         id="g317"><rect
           x="10.335"
           y="45.167"
           fill="#FFFFFF"
           width="5.894"
           height="14.506"
           id="rect319" /><rect
           x="17.554"
           y="45.167"
           fill="#FFFFFF"
           width="5.894"
           height="14.506"
           id="rect321" /><rect
           x="24.774"
           y="45.167"
           fill="#FFFFFF"
           width="5.893"
           height="14.506"
           id="rect323" /></g><polygon
         fill="#AD8F6C"
         stroke="#1C0D01"
         stroke-width="1.844"
         stroke-miterlimit="1"
         points="61.828,36.358 51.666,32.581     51.666,25.333 61.828,28.957   "
         id="polygon325" /><rect
         x="2.333"
         y="28.833"
         fill="#3A2B1A"
         stroke="#1C0D01"
         stroke-width="1.9502"
         stroke-miterlimit="10"
         width="49.333"
         height="7.915"
         id="rect327" /><polygon
         fill="#3A2B1A"
         stroke="#1C0D01"
         stroke-width="1.8239"
         stroke-miterlimit="10"
         points="61.828,40.525 51.666,36.748     51.666,29.5 61.828,33.124   "
         id="polygon329" /></g></g></svg>