<?xml version="1.0" encoding="utf-8"?>
<!-- Generator: Adobe Illustrator 15.0.0, SVG Export Plug-In . SVG Version: 6.00 Build 0)  -->
<!DOCTYPE svg PUBLIC "-//W3C//DTD SVG 1.1//EN" "http://www.w3.org/Graphics/SVG/1.1/DTD/svg11.dtd">
<svg version="1.1" id="レイヤー_1" xmlns="http://www.w3.org/2000/svg" xmlns:xlink="http://www.w3.org/1999/xlink" x="0px"
	 y="0px" width="64px" height="64px" viewBox="0 0 64 64" style="enable-background:new 0 0 64 64;" xml:space="preserve">
<g>
	<g>
		<circle style="fill:#FFFFFF;" cx="32" cy="32" r="21.625"/>
		<path d="M32,54.8691406C19.3896484,54.8691406,9.1303711,44.6103516,9.1303711,32S19.3896484,9.1303711,32,9.1303711
			S54.8691406,19.3896484,54.8691406,32S44.6103516,54.8691406,32,54.8691406z M32,11.6196289
			c-11.237793,0-20.3803711,9.1425781-20.3803711,20.3803711c0,11.2373047,9.1425781,20.3808594,20.3803711,20.3808594
			c11.2373047,0,20.3808594-9.1435547,20.3808594-20.3808594C52.3808594,20.762207,43.2373047,11.6196289,32,11.6196289z"/>
	</g>
	<g>
		<path d="M38.8369141,42.828125c-1.0595703,0.4794922-3.2158203,0.9570313-5.96875,0.9570313
			c-7.0634766,0-11.8046875-4.2216797-11.8046875-11.5302734c0-7.7880859,5.4365234-12.0400391,12.4667969-12.0400391
			c2.9199219,0,4.7099609,0.5673828,5.40625,0.8974609l-0.828125,2.8457031
			c-1.0605469-0.4492188-2.5517578-0.8378906-4.4404297-0.8378906c-4.9101563,0-8.5576172,2.9941406-8.5576172,8.9550781
			c0,5.6328125,3.2480469,8.7753906,8.4873047,8.7753906c1.7285156,0,3.4824219-0.3291016,4.5771484-0.8066406L38.8369141,42.828125
			z"/>
	</g>
</g>
</svg>
