<?xml version="1.0" encoding="utf-8"?>
<!-- Generator: Adobe Illustrator 15.0.0, SVG Export Plug-In . SVG Version: 6.00 Build 0)  -->
<!DOCTYPE svg PUBLIC "-//W3C//DTD SVG 1.1//EN" "http://www.w3.org/Graphics/SVG/1.1/DTD/svg11.dtd">
<svg version="1.1" id="レイヤー_1" xmlns="http://www.w3.org/2000/svg" xmlns:xlink="http://www.w3.org/1999/xlink" x="0px"
	 y="0px" width="64px" height="64px" viewBox="0 0 64 64" style="enable-background:new 0 0 64 64;" xml:space="preserve">
<g>
	<g>
		<path style="fill:#F2E3C7;" d="M39.2695313,11.3935547c0,0,4.9199219-5.8417969,5.2773438-7.4814453
			c0.359375-1.6396484,1.765625-0.7363281,1.9980469,0.5126953c0.6152344,3.2792969-1.125,7.5839844-2.765625,9.4287109
			L39.2695313,11.3935547z"/>
		<path style="fill:#1E0D04;" d="M43.8896484,14.4902344l-5.40625-2.9492188l0.3994141-0.4731445
			c1.8710938-2.2216797,4.9287109-6.1586914,5.1699219-7.2636719c0.2539063-1.1611328,0.9609375-1.2866211,1.2529297-1.2866211
			c0.7714844,0,1.5507813,0.8139648,1.7363281,1.8144531c0.6689453,3.5634766-1.2460938,8.0146484-2.8847656,9.8579102
			L43.8896484,14.4902344z M40.0527344,11.2446289l3.6035156,1.965332c1.4052734-1.8110352,2.9580078-5.6728516,2.3916016-8.6918945
			c-0.1123047-0.6040039-0.5498047-0.9882813-0.7421875-0.9882813c-0.078125,0-0.1943359,0.168457-0.2646484,0.4907227
			C44.7177734,5.5048828,41.2910156,9.7475586,40.0527344,11.2446289z"/>
	</g>
	<g>
		<path d="M42.9707031,15.1074219c0,0,5.7207031-1.125,7.3457031-2.25s9.5-2.125,11.375-1.875c0,0-1.25,9.875-8.375,7.375
			s-7.625,0.4057617-7.625,0.4057617L42.9707031,15.1074219z"/>
		<path style="fill:#1E0D04;" d="M45.9394531,19.9160156l-3.8427734-5.1459961l0.7773438-0.1533203
			c1.5634766-0.3071289,5.8955078-1.296875,7.1582031-2.1704102c1.5830078-1.0957031,8.1835938-2.0024414,10.8847656-2.0024414
			c0.3417969,0,0.6269531,0.0146484,0.8408203,0.0429688L62.25,10.5522461l-0.0625,0.4931641
			c-0.0429688,0.3354492-1.1044922,8.2172852-6.6855469,8.2177734c-0.7392578,0-1.5302734-0.1459961-2.3515625-0.434082
			c-1.8652344-0.6547852-3.4238281-0.9863281-4.6318359-0.9863281c-2.0791016,0-2.3271484,0.9760742-2.3369141,1.0175781
			L45.9394531,19.9160156z M48.5185547,16.8427734c1.3212891,0,2.9912109,0.3505859,4.9638672,1.0429688
			c0.7128906,0.2504883,1.3925781,0.3774414,2.0195313,0.3774414c3.9511719-0.0004883,5.2753906-5.1357422,5.6035156-6.8178711
			c-2.6103516-0.0395508-9.1660156,0.8964844-10.5048828,1.8232422c-1.3359375,0.925293-5.1171875,1.8139648-6.7607422,2.1689453
			l1.796875,2.4145508C46.0654297,17.3642578,46.9013672,16.8427734,48.5185547,16.8427734z"/>
	</g>
	<g>
		<path style="fill:#F2E3C7;" d="M24.7314453,11.3935547c0,0-4.9199219-5.8417969-5.2783203-7.4814453
			s-1.7646484-0.7363281-1.9980469,0.5126953c-0.6152344,3.2792969,1.125,7.5839844,2.765625,9.4287109L24.7314453,11.3935547z"/>
		<path style="fill:#1E0D04;" d="M20.109375,14.4902344l-0.2666016-0.300293
			c-1.6396484-1.8432617-3.5537109-6.2944336-2.8847656-9.8583984c0.1865234-1,0.9658203-1.8139648,1.7363281-1.8139648
			c0.2919922,0,0.9990234,0.1254883,1.2529297,1.2866211c0.2412109,1.1054688,3.2998047,5.0419922,5.1708984,7.2636719
			l0.3984375,0.4731445L20.109375,14.4902344z M18.6943359,3.5297852c-0.1914063,0-0.6298828,0.3847656-0.7421875,0.987793
			c-0.5664063,3.0195313,0.9863281,6.8813477,2.3916016,8.6923828l3.6044922-1.9658203
			c-1.2382813-1.4970703-4.6650391-5.7392578-4.9892578-7.2241211C18.8886719,3.6982422,18.7724609,3.5297852,18.6943359,3.5297852z
			"/>
	</g>
	<g>
		<path style="fill:#FFFFFF;" d="M21.0302734,15.1074219c0,0-5.7216797-1.125-7.3466797-2.25s-9.5-2.125-11.375-1.875
			c0,0,1.25,9.875,8.375,7.375s7.625,0.4057617,7.625,0.4057617L21.0302734,15.1074219z"/>
		<path style="fill:#1E0D04;" d="M18.0136719,19.9970703l-0.1962891-1.1396484
			c-0.0185547-0.0751953-0.2958984-1.0146484-2.3359375-1.0146484c-1.2080078,0-2.7666016,0.331543-4.6328125,0.9863281
			c-0.8203125,0.2880859-1.6113281,0.434082-2.3505859,0.434082c-5.5810547,0-6.6435547-7.8823242-6.6855469-8.2177734
			L1.75,10.5522461l0.4921875-0.0654297c0.2138672-0.0283203,0.4990234-0.0429688,0.8408203-0.0429688
			c2.7001953,0,9.3017578,0.9067383,10.8847656,2.0024414c1.2626953,0.8735352,5.5957031,1.8632813,7.1591797,2.1704102
			l0.7773438,0.1533203L18.0136719,19.9970703z M2.8945313,11.4453125c0.3271484,1.6821289,1.6523438,6.8178711,5.6035156,6.8178711
			c0.6259766,0,1.3056641-0.1269531,2.0195313-0.3774414c1.9726563-0.6923828,3.6425781-1.0429688,4.9638672-1.0429688
			c1.6171875,0,2.453125,0.5214844,2.8818359,1.0092773L20.1611328,15.4375
			c-1.6445313-0.3554688-5.4257813-1.2436523-6.7626953-2.1689453C12.0605469,12.3417969,5.5136719,11.4057617,2.8945313,11.4453125
			z"/>
	</g>
	<g>
		<path style="fill:#FFFFFF;" d="M49.3164063,16.3686523c-3.25-6.0141602-15.875-5.8862305-15.875-5.8862305
			s-12.6240234-0.1279297-15.8740234,5.8862305c-4.1494141,4.7426758-6.25,15.2426758-0.6259766,29.8256836
			c2.125,14.5039063,9.1259766,12.9130859,16.5,12.9130859c7.375,0,14.3769531,1.5908203,16.5019531-12.9130859
			C55.5664063,31.6113281,53.4667969,21.1113281,49.3164063,16.3686523z"/>
		<path style="fill:#1E0D04;" d="M37.3603516,59.6650391c-0.0009766,0-0.0009766,0-0.0009766,0
			c-0.6347656,0-1.2802734-0.0126953-1.9306641-0.0253906c-1.3154297-0.0273438-2.6611328-0.0273438-3.9736328,0
			c-0.6513672,0.0126953-1.2958984,0.0253906-1.9306641,0.0253906c-5.8515625,0-11.2548828-1.0224609-13.0751953-13.3417969
			c-5.7832031-15.0341797-3.4384766-25.46875,0.7001953-30.2451172c3.2695313-5.9301758,14.9101563-6.1020508,16.2304688-6.1020508
			h0.1230469c1.3203125,0,12.9619141,0.171875,16.2314453,6.1020508c4.1386719,4.7753906,6.484375,15.2099609,0.7011719,30.2451172
			C48.6152344,58.6416016,43.2119141,59.6650391,37.3603516,59.6650391z M33.4414063,58.6015625
			c0.6728516,0,1.34375,0.0126953,2.0068359,0.0263672c6.3896484,0.1230469,12.1064453,0.3818359,13.9941406-12.5068359
			l0.0292969-0.1083984c5.6689453-14.7041016,3.2548828-24.9794922-0.5361328-29.3110352l-0.0644531-0.0922852
			c-3.0029297-5.5576172-14.8642578-5.6210938-15.3681641-5.6210938h-0.1230469
			c-0.5029297,0-12.3642578,0.0634766-15.3681641,5.6210938l-0.0634766,0.0922852
			c-3.7910156,4.3325195-6.2050781,14.6083984-0.5351563,29.3110352l0.0283203,0.1083984
			c1.8886719,12.8886719,7.6113281,12.6347656,13.9931641,12.5068359
			C32.0986328,58.6142578,32.7685547,58.6015625,33.4414063,58.6015625z"/>
	</g>
	<path d="M15.0595703,40.4638672c0,0-6.4921875-20.7275391,7.2578125-27.8525391
		c15.6005859-5.25,18.8017578,0.4921875,13.5888672,1.2421875c-5.2138672,0.75-0.9648438,11.5546875-5.7138672,16.1328125
		C23.2226563,36.7041016,17.0527344,55.4414063,15.0595703,40.4638672z"/>
	<g>
		<linearGradient id="SVGID_1_" gradientUnits="userSpaceOnUse" x1="31.8217773" y1="48.5419922" x2="35.5688858" y2="62.2813988">
			<stop  offset="0" style="stop-color:#FFE3DF"/>
			<stop  offset="0.0468557" style="stop-color:#FFDBD5"/>
			<stop  offset="0.2113554" style="stop-color:#FFC2B6"/>
			<stop  offset="0.3836682" style="stop-color:#FFAF9E"/>
			<stop  offset="0.5650123" style="stop-color:#FFA18C"/>
			<stop  offset="0.7613746" style="stop-color:#FF9982"/>
			<stop  offset="1" style="stop-color:#FF967F"/>
		</linearGradient>
		<ellipse style="fill:url(#SVGID_1_);" cx="33.4418945" cy="54.4824219" rx="12.8120117" ry="6.5"/>
		<path style="fill:#1E0D04;" d="M33.4414063,61.4824219c-7.4648438,0-13.3115234-3.0751953-13.3115234-7s5.8466797-7,13.3115234-7
			s13.3125,3.0751953,13.3125,7S40.90625,61.4824219,33.4414063,61.4824219z M33.4414063,48.4824219
			c-6.6738281,0-12.3115234,2.7480469-12.3115234,6s5.6376953,6,12.3115234,6s12.3125-2.7480469,12.3125-6
			S40.1152344,48.4824219,33.4414063,48.4824219z"/>
	</g>
	<g>
		<g>
			<path style="fill:#FFFFFF;" d="M46.5136719,33.2724609c-2.2851563,0-4.1445313-2.1313477-4.1445313-4.7504883
				s1.859375-4.75,4.1445313-4.75s4.1445313,2.1308594,4.1445313,4.75S48.7988281,33.2724609,46.5136719,33.2724609z
				 M46.5136719,25.7719727c-1.1826172,0-2.1445313,1.2333984-2.1445313,2.75s0.9619141,2.75,2.1445313,2.75
				s2.1445313-1.2333984,2.1445313-2.75S47.6962891,25.7719727,46.5136719,25.7719727z"/>
			<ellipse style="fill:#1E0D04;" cx="46.5136719" cy="28.5219727" rx="3.1445313" ry="3.75"/>
		</g>
		
			<ellipse transform="matrix(0.8852887 0.4650418 -0.4650418 0.8852887 17.76297 -18.1120186)" style="fill:#FFFFFF;" cx="45.5947266" cy="26.949707" rx="0.8284286" ry="1.2532402"/>
		<g>
			<path style="fill:#FFFFFF;" d="M21.3710938,33.2724609c-2.2851563,0-4.1445313-2.1313477-4.1445313-4.7504883
				s1.859375-4.75,4.1445313-4.75s4.1445313,2.1308594,4.1445313,4.75S23.65625,33.2724609,21.3710938,33.2724609z
				 M21.3710938,25.7719727c-1.1826172,0-2.1445313,1.2333984-2.1445313,2.75s0.9619141,2.75,2.1445313,2.75
				s2.1445313-1.2333984,2.1445313-2.75S22.5537109,25.7719727,21.3710938,25.7719727z"/>
			<ellipse style="fill:#1E0D04;" cx="21.3710938" cy="28.5219727" rx="3.1445313" ry="3.75"/>
		</g>
		
			<ellipse transform="matrix(0.8852887 0.4650418 -0.4650418 0.8852887 14.8789444 -6.4201241)" style="fill:#FFFFFF;" cx="20.453125" cy="26.949707" rx="0.8284286" ry="1.2532402"/>
	</g>
	<g>
		
			<ellipse transform="matrix(0.2978234 0.954621 -0.954621 0.2978234 71.7654114 11.5352745)" style="fill:#96514B;" cx="28.0415039" cy="54.5507813" rx="2.3395655" ry="2.9866533"/>
		
			<ellipse transform="matrix(-0.2980136 0.9545616 -0.9545616 -0.2980136 102.4892578 33.7307701)" style="fill:#96514B;" cx="38.8417969" cy="54.5507813" rx="2.3397112" ry="2.9871194"/>
	</g>
</g>
</svg>
