<?xml version="1.0" encoding="utf-8"?>
<!-- Generator: Adobe Illustrator 15.0.2, SVG Export Plug-In . SVG Version: 6.00 Build 0)  -->
<!DOCTYPE svg PUBLIC "-//W3C//DTD SVG 1.1//EN" "http://www.w3.org/Graphics/SVG/1.1/DTD/svg11.dtd">
<svg version="1.1" id="レイヤー_1" xmlns="http://www.w3.org/2000/svg" xmlns:xlink="http://www.w3.org/1999/xlink" x="0px"
	 y="0px" width="64px" height="64px" viewBox="0 0 64 64" enable-background="new 0 0 64 64" xml:space="preserve">
<g>
	<path fill="#F2E3C7" stroke="#1E0D04" stroke-width="1.0118" stroke-miterlimit="10" d="M39.27,11.391c0,0,4.92-5.842,5.277-7.481
		c0.359-1.64,1.766-0.736,1.998,0.513c0.615,3.279-1.125,7.584-2.766,9.429L39.27,11.391z"/>
	<path stroke="#1E0D04" stroke-miterlimit="10" d="M42.971,15.104c0,0,5.721-1.125,7.346-2.25s9.5-2.125,11.375-1.875
		c0,0-1.25,9.875-8.375,7.375s-7.625,0.406-7.625,0.406L42.971,15.104z"/>
	<path fill="#F2E3C7" stroke="#1E0D04" stroke-width="1.0118" stroke-miterlimit="10" d="M24.731,11.391c0,0-4.92-5.842-5.278-7.481
		s-1.765-0.736-1.998,0.513c-0.615,3.279,1.125,7.584,2.766,9.429L24.731,11.391z"/>
	<path fill="#FFFFFF" stroke="#1E0D04" stroke-miterlimit="10" d="M21.03,15.104c0,0-5.722-1.125-7.347-2.25
		s-9.5-2.125-11.375-1.875c0,0,1.25,9.875,8.375,7.375s7.625,0.406,7.625,0.406L21.03,15.104z"/>
	<path fill="#FFFFFF" stroke="#1E0D04" stroke-width="1.0118" stroke-miterlimit="10" d="M49.316,16.366
		c-3.25-6.014-15.875-5.886-15.875-5.886s-12.625-0.128-15.875,5.886c-4.149,4.743-6.25,15.243-0.626,29.826
		c2.125,14.504,9.126,12.913,16.5,12.913c7.375,0,14.377,1.591,16.502-12.913C55.566,31.608,53.467,21.108,49.316,16.366z"/>
	<path d="M15.06,40.461c0,0-6.493-20.728,7.257-27.853c15.601-5.25,18.802,0.492,13.589,1.242
		c-5.214,0.75-0.965,11.555-5.714,16.133C23.222,36.701,17.052,55.438,15.06,40.461z"/>
	<linearGradient id="SVGID_1_" gradientUnits="userSpaceOnUse" x1="31.8218" y1="48.54" x2="35.5689" y2="62.2794">
		<stop  offset="0" style="stop-color:#FFE3DF"/>
		<stop  offset="0.0469" style="stop-color:#FFDBD5"/>
		<stop  offset="0.2114" style="stop-color:#FFC2B6"/>
		<stop  offset="0.3837" style="stop-color:#FFAF9E"/>
		<stop  offset="0.565" style="stop-color:#FFA18C"/>
		<stop  offset="0.7614" style="stop-color:#FF9982"/>
		<stop  offset="1" style="stop-color:#FF967F"/>
	</linearGradient>
	<ellipse fill="url(#SVGID_1_)" stroke="#1E0D04" stroke-miterlimit="10" cx="33.442" cy="54.479" rx="12.812" ry="6.5"/>
	<g>
		<g>
			<ellipse fill="none" stroke="#FFFFFF" stroke-width="2" stroke-miterlimit="10" cx="46.514" cy="28.519" rx="3.145" ry="3.75"/>
			<ellipse fill="#1E0D04" cx="46.514" cy="28.519" rx="3.145" ry="3.75"/>
		</g>
		
			<ellipse transform="matrix(0.8853 0.465 -0.465 0.8853 17.7616 -18.1124)" fill="#FFFFFF" cx="45.595" cy="26.947" rx="0.828" ry="1.253"/>
		<g>
			<ellipse fill="none" stroke="#FFFFFF" stroke-width="2" stroke-miterlimit="10" cx="21.371" cy="28.519" rx="3.145" ry="3.75"/>
			<ellipse fill="#1E0D04" cx="21.371" cy="28.519" rx="3.145" ry="3.75"/>
		</g>
		
			<ellipse transform="matrix(0.8853 0.465 -0.465 0.8853 14.8775 -6.4202)" fill="#FFFFFF" cx="20.453" cy="26.947" rx="0.828" ry="1.253"/>
	</g>
	<g>
		
			<ellipse transform="matrix(0.2978 0.9546 -0.9546 0.2978 71.7623 11.5337)" fill="#96514B" cx="28.041" cy="54.548" rx="2.34" ry="2.987"/>
		
			<ellipse transform="matrix(-0.298 0.9546 -0.9546 -0.298 102.4865 33.727)" fill="#96514B" cx="38.842" cy="54.548" rx="2.34" ry="2.987"/>
	</g>
</g>
</svg>
