<?xml version="1.0" encoding="UTF-8" standalone="no"?>
<!-- Generator: Adobe Illustrator 15.0.2, SVG Export Plug-In . SVG Version: 6.00 Build 0)  -->

<svg
   xmlns:dc="http://purl.org/dc/elements/1.1/"
   xmlns:cc="http://creativecommons.org/ns#"
   xmlns:rdf="http://www.w3.org/1999/02/22-rdf-syntax-ns#"
   xmlns:svg="http://www.w3.org/2000/svg"
   xmlns="http://www.w3.org/2000/svg"
   xmlns:sodipodi="http://sodipodi.sourceforge.net/DTD/sodipodi-0.dtd"
   xmlns:inkscape="http://www.inkscape.org/namespaces/inkscape"
   version="1.1"
   id="レイヤー_1"
   x="0px"
   y="0px"
   width="64px"
   height="64px"
   viewBox="0 0 64 64"
   style="enable-background:new 0 0 64 64;"
   xml:space="preserve"
   inkscape:version="0.48.5 r10040"
   sodipodi:docname="curly_loop.svg"><metadata
     id="metadata9"><rdf:RDF><cc:Work
         rdf:about=""><dc:format>image/svg+xml</dc:format><dc:type
           rdf:resource="http://purl.org/dc/dcmitype/StillImage" /></cc:Work></rdf:RDF></metadata><defs
     id="defs7" /><sodipodi:namedview
     pagecolor="#ffffff"
     bordercolor="#666666"
     borderopacity="1"
     objecttolerance="10"
     gridtolerance="10"
     guidetolerance="10"
     inkscape:pageopacity="0"
     inkscape:pageshadow="2"
     inkscape:window-width="640"
     inkscape:window-height="480"
     id="namedview5" /><path
     style="fill:#2866B1;"
     d="M32.0625,50.8203125c-8.9150391,0-16.1679688-7.2529297-16.1679688-16.1679688  c0-2.3129883,0.6728516-4.9243164,1.3393555-6.4868164c1.8652344-4.3730469,4.5732422-7.5761719,7.7612305-9.8666992  c-8.7578125-0.9257813-17.2636719,1.902832-17.8818359,2.1142578l-1.625-4.7285156  c6.5058594-2.2397461,17.2998047-3.9257813,26.5898438-0.8813477c9.2255859-2.9257813,19.9355469-1.2236328,26.4355469,1.0200195  l-1.6289063,4.7275391c-0.6181641-0.2119141-9.0615234-3.0302734-17.7529297-2.1855469  c3.1025391,2.265625,5.7519531,5.3969727,7.6220703,9.6337891c0.6806641,1.5419922,1.4765625,4.2099609,1.4765625,6.6533203  C48.2304688,43.5673828,40.9775391,50.8203125,32.0625,50.8203125z M32.0507813,20.0219727  c-4.2119141,1.6962891-7.9501953,4.7885742-10.2177734,10.105957c-0.4667969,1.0927734-0.9384766,2.9970703-0.9384766,4.5244141  c0,6.1582031,5.0097656,11.1679688,11.1679688,11.1679688s11.1679688-5.0097656,11.1679688-11.1679688  c0-1.5498047-0.5449219-3.4882813-1.0507813-4.6337891C39.8798828,24.8071289,36.1904297,21.7358398,32.0507813,20.0219727z"
     id="path3" /></svg>