<?xml version="1.0" encoding="utf-8"?>
<!-- Generator: Adobe Illustrator 15.0.2, SVG Export Plug-In . SVG Version: 6.00 Build 0)  -->
<!DOCTYPE svg PUBLIC "-//W3C//DTD SVG 1.1//EN" "http://www.w3.org/Graphics/SVG/1.1/DTD/svg11.dtd">
<svg version="1.1" id="レイヤー_1" xmlns="http://www.w3.org/2000/svg" xmlns:xlink="http://www.w3.org/1999/xlink" x="0px"
	 y="0px" width="64px" height="64px" viewBox="0 0 64 64" style="enable-background:new 0 0 64 64;" xml:space="preserve">
<g>
	<path style="fill:#231815;" d="M63.2246094,21.5385742H59.421875l-21.7255859,1.6264648H27.0986328v0.0629883L4.5810547,21.5458984
		L4.578125,21.5385742H0.7753906v5.7719727l3.7573242,0.8706055c0.253418,4.987793,1.109375,11.1040039,3.7563477,11.9887695
		c4.5639648,1.5332031,15.9711914,2.28125,15.9711914,2.28125s3.3256836,0.8613281,5.1279297-13.3017578h5.1274414
		c1.7929688,14.1630859,5.1210938,13.3017578,5.1210938,13.3017578s11.4228516-0.7480469,15.9775391-2.28125
		c2.6464844-0.8837891,3.5039063-6.9833984,3.7578125-11.9667969l3.8525391-0.8925781V21.5385742z"/>
	<path style="fill:#FFFFFF;" d="M6.1411133,30.9077148c0,0-2.0957031-7.574707,2.0947266-7.4941406
		s13.215332,1.128418,13.215332,1.128418S6.2216797,23.4941406,6.1411133,30.9077148z"/>
	<path style="fill:#FFFFFF;" d="M36.0361328,30.8271484c0,0-2.0146484-5.7211914,2.8203125-6.043457
		s14.6660156-0.8867188,14.6660156-0.8867188s-16.7617188,2.3359375-16.8417969,9.7495117L36.0361328,30.8271484z"/>
	<linearGradient id="SVGID_1_" gradientUnits="userSpaceOnUse" x1="16.2509766" y1="35.0556641" x2="14.3173771" y2="52.9443092">
		<stop  offset="0" style="stop-color:#0095FF;stop-opacity:0"/>
		<stop  offset="1" style="stop-color:#001C3F"/>
	</linearGradient>
	<path style="fill:url(#SVGID_1_);" d="M6.2216797,33.1630859c0,0,0.7148438,5.9365234,5.3989258,6.7695313
		c5.3999023,0.9599609,9.9116211,1.4492188,11.6035156,0.8857422s3.1425781-3.3847656,3.3037109-6.2851563L6.2216797,33.1630859z"/>
	
		<linearGradient id="SVGID_2_" gradientUnits="userSpaceOnUse" x1="-14.7724609" y1="35.0556641" x2="-16.7060604" y2="52.9443092" gradientTransform="matrix(-1 0 0 1 32.75 0)">
		<stop  offset="0" style="stop-color:#0095FF;stop-opacity:0"/>
		<stop  offset="1" style="stop-color:#001C3F"/>
	</linearGradient>
	<path style="fill:url(#SVGID_2_);" d="M57.5517578,33.1630859c0,0-0.7148438,5.9365234-5.3994141,6.7695313
		c-5.3994141,0.9599609-9.9111328,1.4492188-11.6035156,0.8857422c-1.6914063-0.5634766-3.1425781-3.3847656-3.3027344-6.2851563
		L57.5517578,33.1630859z"/>
</g>
</svg>
