<?xml version="1.0" encoding="utf-8"?>
<!-- Generator: Adobe Illustrator 15.0.2, SVG Export Plug-In . SVG Version: 6.00 Build 0)  -->
<!DOCTYPE svg PUBLIC "-//W3C//DTD SVG 1.1//EN" "http://www.w3.org/Graphics/SVG/1.1/DTD/svg11.dtd">
<svg version="1.1" id="レイヤー_1" xmlns="http://www.w3.org/2000/svg" xmlns:xlink="http://www.w3.org/1999/xlink" x="0px"
	 y="0px" width="64px" height="64px" viewBox="0 0 64 64" enable-background="new 0 0 64 64" xml:space="preserve">
<g>
	<rect x="24.398" y="21.437" fill="#595959" stroke="#000000" stroke-miterlimit="10" width="6.917" height="17.417"/>
	<rect x="22.361" y="34.559" fill="#595959" stroke="#000000" stroke-miterlimit="10" width="37.833" height="9"/>
	<g>
		<path fill="#FFFFFF" stroke="#231815" stroke-miterlimit="10" d="M4.912,31.437c0-0.55,0.292-1.343,0.648-1.762l5.273-9.477
			c0.356-0.419,1.099-0.762,1.648-0.762h13.666c0.55,0,1,0.45,1,1v18.417c0,0.551-0.45,1-1,1h-7c-0.55,0-1.318,1.902-1.707,2.291
			l-2.752,2.752c-0.389,0.389-1.157,0.707-1.707,0.707h-7.07c-0.55,0-1-0.449-1-1V31.437z"/>
	</g>
	<g>
		<path fill="none" stroke="#002751" stroke-miterlimit="10" d="M9.185,22.852c0.26-0.484,0.924-0.88,1.474-0.88h0.324
			c0.55,0,0.77,0.387,0.488,0.859l-3.127,5.248c-0.281,0.472-0.944,0.859-1.473,0.859s-0.748-0.396-0.487-0.88L9.185,22.852z"/>
		<linearGradient id="SVGID_1_" gradientUnits="userSpaceOnUse" x1="10.1387" y1="30.8862" x2="8.0494" y2="21.4499">
			<stop  offset="0" style="stop-color:#FFFFFF"/>
			<stop  offset="0.1312" style="stop-color:#F2FBFF"/>
			<stop  offset="0.3747" style="stop-color:#CFF0FF"/>
			<stop  offset="0.7011" style="stop-color:#98DFFF"/>
			<stop  offset="1" style="stop-color:#5FCEFF"/>
		</linearGradient>
		<path fill="url(#SVGID_1_)" d="M9.185,22.852c0.26-0.484,0.924-0.88,1.474-0.88h0.324c0.55,0,0.77,0.387,0.488,0.859l-3.127,5.248
			c-0.281,0.472-0.944,0.859-1.473,0.859s-0.748-0.396-0.487-0.88L9.185,22.852z"/>
	</g>
	<polygon fill="#1DB4FF" points="27.148,33.938 4.996,33.938 4.996,42.354 27.148,39.854 	"/>
	<g>
		<path fill="none" stroke="#000000" stroke-miterlimit="10" d="M4.912,31.437c0-0.55,0.292-1.343,0.648-1.762l5.273-9.477
			c0.356-0.419,1.099-0.762,1.648-0.762h13.666c0.55,0,1,0.45,1,1v17.917c0,0.551-0.45,1-1,1h-7c-0.55,0-1.318,2.402-1.707,2.791
			l-2.752,2.752c-0.389,0.389-1.157,0.707-1.707,0.707h-7.07c-0.55,0-1-0.449-1-1V31.437z"/>
	</g>
	<g>
		<path fill="none" stroke="#002751" stroke-miterlimit="10" d="M11.273,28.937c-0.55,0-0.778-0.391-0.506-0.869l2.971-5.227
			c0.272-0.478,0.944-0.869,1.494-0.869h8.166c0.55,0,1,0.45,1,1v4.965c0,0.55-0.45,1-1,1H11.273z"/>
		<linearGradient id="SVGID_2_" gradientUnits="userSpaceOnUse" x1="19.2881" y1="33.6436" x2="16.3066" y2="20.177">
			<stop  offset="0" style="stop-color:#FFFFFF"/>
			<stop  offset="0.1312" style="stop-color:#F2FBFF"/>
			<stop  offset="0.3747" style="stop-color:#CFF0FF"/>
			<stop  offset="0.7011" style="stop-color:#98DFFF"/>
			<stop  offset="1" style="stop-color:#5FCEFF"/>
		</linearGradient>
		<path fill="url(#SVGID_2_)" d="M11.273,28.937c-0.55,0-0.778-0.391-0.506-0.869l2.971-5.227c0.272-0.478,0.944-0.869,1.494-0.869
			h8.166c0.55,0,1,0.45,1,1v4.965c0,0.55-0.45,1-1,1H11.273z"/>
	</g>
	<g>
		<path fill="#FFFFFF" d="M27.148,40.588c0.55,0,1-0.45,1-1v-1.443c0-0.55-0.45-1-1-1h-7.376c-0.55,0-1.318,0.318-1.707,0.707
			l-2.463,2.463c-0.389,0.389-1.157,0.707-1.707,0.707H4.579c-0.55,0-1,0.45-1,1v3.082c0,0.55,0.45,1,1,1h10.819
			c0.55,0,1-0.333,1-0.74s0.334-1.041,0.743-1.409l2.992-2.697c0.409-0.368,1.193-0.669,1.743-0.669H27.148z"/>
		<path fill="none" stroke="#000000" stroke-width="0.6496" stroke-miterlimit="10" d="M27.148,40.588c0.55,0,1-0.45,1-1v-1.443
			c0-0.55-0.45-1-1-1h-7.376c-0.55,0-1.318,0.318-1.707,0.707l-2.463,2.463c-0.389,0.389-1.157,0.707-1.707,0.707H4.579
			c-0.55,0-1,0.45-1,1v3.082c0,0.55,0.45,1,1,1h10.819c0.55,0,1-0.333,1-0.74s0.334-1.041,0.743-1.409l2.992-2.697
			c0.409-0.368,1.193-0.669,1.743-0.669H27.148z"/>
	</g>
	
		<line fill="none" stroke="#002751" stroke-width="0.966" stroke-miterlimit="10" x1="18.732" y1="21.972" x2="18.732" y2="29.437"/>
	<g>
		<path d="M6.408,29.597c0,0.613-0.501,1.114-1.114,1.114H2.67c-0.613,0-1.114-0.501-1.114-1.114v-1.254
			c0-0.613,0.501-1.114,1.114-1.114h2.624c0.613,0,1.114,0.501,1.114,1.114V29.597z"/>
	</g>
	<g>
		
			<rect x="31.444" y="37.479" fill="none" stroke="#000000" stroke-width="1.0055" stroke-miterlimit="10" width="2" height="6.08"/>
		<linearGradient id="SVGID_3_" gradientUnits="userSpaceOnUse" x1="32.4438" y1="36.7256" x2="32.4438" y2="45.743">
			<stop  offset="0" style="stop-color:#6D6D6D"/>
			<stop  offset="1" style="stop-color:#131313"/>
		</linearGradient>
		<rect x="31.444" y="37.479" fill="url(#SVGID_3_)" width="2" height="6.08"/>
	</g>
	<g>
		
			<rect x="37.048" y="37.479" fill="none" stroke="#000000" stroke-width="1.0055" stroke-miterlimit="10" width="2" height="6.08"/>
		<linearGradient id="SVGID_4_" gradientUnits="userSpaceOnUse" x1="38.0479" y1="36.7256" x2="38.0479" y2="45.743">
			<stop  offset="0" style="stop-color:#6D6D6D"/>
			<stop  offset="1" style="stop-color:#131313"/>
		</linearGradient>
		<rect x="37.048" y="37.479" fill="url(#SVGID_4_)" width="2" height="6.08"/>
	</g>
	<g>
		
			<rect x="42.651" y="37.479" fill="none" stroke="#000000" stroke-width="1.0055" stroke-miterlimit="10" width="2" height="6.08"/>
		<linearGradient id="SVGID_5_" gradientUnits="userSpaceOnUse" x1="43.6514" y1="36.7256" x2="43.6514" y2="45.743">
			<stop  offset="0" style="stop-color:#6D6D6D"/>
			<stop  offset="1" style="stop-color:#131313"/>
		</linearGradient>
		<rect x="42.651" y="37.479" fill="url(#SVGID_5_)" width="2" height="6.08"/>
	</g>
	<g>
		<path d="M6.062,25.644c0,0.55-0.45,1-1,1H2.903c-0.55,0-1-0.45-1-1v-1.791c0-0.55,0.45-1,1-1h2.158c0.55,0,1,0.45,1,1V25.644z"/>
	</g>
	<g>
		<path fill="none" stroke="#000000" stroke-miterlimit="10" d="M4.996,31.854c0,0-0.389,0-0.865,0s-0.865-0.45-0.865-1v-9.25
			c0-0.55,0.45-1,1-1h6.007"/>
	</g>
	<g>
		<linearGradient id="SVGID_6_" gradientUnits="userSpaceOnUse" x1="45.6514" y1="20.8384" x2="45.6514" y2="40.9539">
			<stop  offset="0" style="stop-color:#F8F8F8"/>
			<stop  offset="0.147" style="stop-color:#EBEBEB"/>
			<stop  offset="0.4199" style="stop-color:#C8C8C8"/>
			<stop  offset="0.7859" style="stop-color:#919191"/>
			<stop  offset="1" style="stop-color:#6D6D6D"/>
		</linearGradient>
		<path fill="url(#SVGID_6_)" d="M62.444,36.505c0,0.536-0.438,0.974-0.974,0.974h-31.64c-0.535,0-0.973-0.438-0.973-0.974V14.91
			c0-0.535,0.438-0.973,0.973-0.973h31.64c0.536,0,0.974,0.438,0.974,0.973V36.505z"/>
		<path fill="none" stroke="#000000" stroke-width="0.9733" stroke-miterlimit="10" d="M62.444,36.505
			c0,0.536-0.438,0.974-0.974,0.974h-31.64c-0.535,0-0.973-0.438-0.973-0.974V14.91c0-0.535,0.438-0.973,0.973-0.973h31.64
			c0.536,0,0.974,0.438,0.974,0.973V36.505z"/>
	</g>
	
		<line fill="none" stroke="#000000" stroke-width="0.9733" stroke-miterlimit="10" x1="31.315" y1="13.937" x2="31.315" y2="37.479"/>
	
		<line fill="none" stroke="#000000" stroke-width="0.9733" stroke-miterlimit="10" x1="60.194" y1="13.937" x2="60.194" y2="37.479"/>
	<g>
		
			<line fill="none" stroke="#000000" stroke-width="0.9733" stroke-miterlimit="10" x1="31.315" y1="17.133" x2="60.194" y2="17.133"/>
		
			<line fill="none" stroke="#000000" stroke-width="0.9733" stroke-miterlimit="10" x1="31.315" y1="20.484" x2="60.194" y2="20.484"/>
		
			<line fill="none" stroke="#000000" stroke-width="0.9733" stroke-miterlimit="10" x1="31.315" y1="23.833" x2="60.194" y2="23.833"/>
		
			<line fill="none" stroke="#000000" stroke-width="0.9733" stroke-miterlimit="10" x1="31.315" y1="27.184" x2="60.194" y2="27.184"/>
		
			<line fill="none" stroke="#000000" stroke-width="0.9733" stroke-miterlimit="10" x1="31.315" y1="30.534" x2="60.194" y2="30.534"/>
		
			<line fill="none" stroke="#000000" stroke-width="0.9733" stroke-miterlimit="10" x1="31.315" y1="33.885" x2="60.194" y2="33.885"/>
	</g>
	<g>
		<circle cx="22.899" cy="44.104" r="5.958"/>
		<circle fill="#ECECED" cx="22.899" cy="44.104" r="3.167"/>
	</g>
	<g>
		<circle cx="52.819" cy="44.104" r="5.958"/>
		<circle fill="#ECECED" cx="52.819" cy="44.104" r="3.167"/>
	</g>
	<g>
		<polygon fill="none" stroke="#000000" stroke-width="1.1091" stroke-miterlimit="10" points="42.911,39.604 34.373,39.604 
			34.373,40.99 29.861,40.99 29.861,46.555 38.884,46.555 38.884,44.504 42.911,44.504 		"/>
		<linearGradient id="SVGID_7_" gradientUnits="userSpaceOnUse" x1="36.3867" y1="19.6528" x2="36.3867" y2="46.982">
			<stop  offset="0" style="stop-color:#6D6D6D"/>
			<stop  offset="1" style="stop-color:#131313"/>
		</linearGradient>
		<polygon fill="url(#SVGID_7_)" points="42.911,39.604 34.373,39.604 34.373,40.99 29.861,40.99 29.861,46.555 38.884,46.555 
			38.884,44.504 42.911,44.504 		"/>
	</g>
	<line fill="none" stroke="#595757" stroke-miterlimit="10" x1="21.694" y1="31.476" x2="24.398" y2="31.476"/>
</g>
</svg>
