<?xml version="1.0" encoding="utf-8"?>
<!-- Generator: Adobe Illustrator 15.0.0, SVG Export Plug-In . SVG Version: 6.00 Build 0)  -->
<!DOCTYPE svg PUBLIC "-//W3C//DTD SVG 1.1//EN" "http://www.w3.org/Graphics/SVG/1.1/DTD/svg11.dtd">
<svg version="1.1" id="レイヤー_1" xmlns="http://www.w3.org/2000/svg" xmlns:xlink="http://www.w3.org/1999/xlink" x="0px"
	 y="0px" width="64px" height="64px" viewBox="0 0 64 64" enable-background="new 0 0 64 64" xml:space="preserve">
<g>
	<polygon fill="#281500" points="4.568,26.562 2.892,26.562 15.743,15.815 17.567,16.225 	"/>
	<linearGradient id="SVGID_1_" gradientUnits="userSpaceOnUse" x1="16.6411" y1="20.7495" x2="16.6411" y2="75.5289">
		<stop  offset="0" style="stop-color:#6B6563"/>
		<stop  offset="0.0098" style="stop-color:#706A68"/>
		<stop  offset="0.0627" style="stop-color:#867F7C"/>
		<stop  offset="0.1252" style="stop-color:#978F8B"/>
		<stop  offset="0.2025" style="stop-color:#A29B96"/>
		<stop  offset="0.311" style="stop-color:#A9A19C"/>
		<stop  offset="0.6121" style="stop-color:#ABA39E"/>
		<stop  offset="1" style="stop-color:#828282"/>
	</linearGradient>
	<polygon fill="url(#SVGID_1_)" points="28.713,58.076 4.568,58.076 4.568,26.562 16.641,16.629 28.713,26.562 	"/>
	<g>
		<linearGradient id="SVGID_2_" gradientUnits="userSpaceOnUse" x1="8.9878" y1="28.7573" x2="8.9878" y2="38.4411">
			<stop  offset="0" style="stop-color:#000000"/>
			<stop  offset="0.3492" style="stop-color:#00384D"/>
			<stop  offset="0.6574" style="stop-color:#00658B"/>
			<stop  offset="0.8821" style="stop-color:#0081B1"/>
			<stop  offset="1" style="stop-color:#008BBF"/>
		</linearGradient>
		<rect x="7.225" y="30.146" fill="url(#SVGID_2_)" width="3.527" height="6.271"/>
		<linearGradient id="SVGID_3_" gradientUnits="userSpaceOnUse" x1="14.1597" y1="28.7573" x2="14.1597" y2="38.4411">
			<stop  offset="0" style="stop-color:#000000"/>
			<stop  offset="0.3492" style="stop-color:#00384D"/>
			<stop  offset="0.6574" style="stop-color:#00658B"/>
			<stop  offset="0.8821" style="stop-color:#0081B1"/>
			<stop  offset="1" style="stop-color:#008BBF"/>
		</linearGradient>
		<rect x="12.396" y="30.146" fill="url(#SVGID_3_)" width="3.527" height="6.271"/>
		<linearGradient id="SVGID_4_" gradientUnits="userSpaceOnUse" x1="19.3306" y1="28.7573" x2="19.3306" y2="38.4411">
			<stop  offset="0" style="stop-color:#000000"/>
			<stop  offset="0.3492" style="stop-color:#00384D"/>
			<stop  offset="0.6574" style="stop-color:#00658B"/>
			<stop  offset="0.8821" style="stop-color:#0081B1"/>
			<stop  offset="1" style="stop-color:#008BBF"/>
		</linearGradient>
		<rect x="17.567" y="30.146" fill="url(#SVGID_4_)" width="3.527" height="6.271"/>
		<linearGradient id="SVGID_5_" gradientUnits="userSpaceOnUse" x1="24.5015" y1="28.7573" x2="24.5015" y2="38.4411">
			<stop  offset="0" style="stop-color:#000000"/>
			<stop  offset="0.3492" style="stop-color:#00384D"/>
			<stop  offset="0.6574" style="stop-color:#00658B"/>
			<stop  offset="0.8821" style="stop-color:#0081B1"/>
			<stop  offset="1" style="stop-color:#008BBF"/>
		</linearGradient>
		<rect x="22.738" y="30.146" fill="url(#SVGID_5_)" width="3.527" height="6.271"/>
	</g>
	<g>
		<linearGradient id="SVGID_6_" gradientUnits="userSpaceOnUse" x1="8.9878" y1="39.3408" x2="8.9878" y2="47.1768">
			<stop  offset="0" style="stop-color:#000000"/>
			<stop  offset="0.3492" style="stop-color:#00384D"/>
			<stop  offset="0.6574" style="stop-color:#00658B"/>
			<stop  offset="0.8821" style="stop-color:#0081B1"/>
			<stop  offset="1" style="stop-color:#008BBF"/>
		</linearGradient>
		<rect x="7.225" y="38.287" fill="url(#SVGID_6_)" width="3.527" height="6.271"/>
		<linearGradient id="SVGID_7_" gradientUnits="userSpaceOnUse" x1="14.1597" y1="39.3408" x2="14.1597" y2="47.1768">
			<stop  offset="0" style="stop-color:#000000"/>
			<stop  offset="0.3492" style="stop-color:#00384D"/>
			<stop  offset="0.6574" style="stop-color:#00658B"/>
			<stop  offset="0.8821" style="stop-color:#0081B1"/>
			<stop  offset="1" style="stop-color:#008BBF"/>
		</linearGradient>
		<rect x="12.396" y="38.287" fill="url(#SVGID_7_)" width="3.527" height="6.271"/>
		<linearGradient id="SVGID_8_" gradientUnits="userSpaceOnUse" x1="19.3306" y1="39.3408" x2="19.3306" y2="47.1768">
			<stop  offset="0" style="stop-color:#000000"/>
			<stop  offset="0.3492" style="stop-color:#00384D"/>
			<stop  offset="0.6574" style="stop-color:#00658B"/>
			<stop  offset="0.8821" style="stop-color:#0081B1"/>
			<stop  offset="1" style="stop-color:#008BBF"/>
		</linearGradient>
		<rect x="17.567" y="38.287" fill="url(#SVGID_8_)" width="3.527" height="6.271"/>
		<linearGradient id="SVGID_9_" gradientUnits="userSpaceOnUse" x1="24.5015" y1="39.3408" x2="24.5015" y2="47.1768">
			<stop  offset="0" style="stop-color:#000000"/>
			<stop  offset="0.3492" style="stop-color:#00384D"/>
			<stop  offset="0.6574" style="stop-color:#00658B"/>
			<stop  offset="0.8821" style="stop-color:#0081B1"/>
			<stop  offset="1" style="stop-color:#008BBF"/>
		</linearGradient>
		<rect x="22.738" y="38.287" fill="url(#SVGID_9_)" width="3.527" height="6.271"/>
	</g>
	<rect x="13.132" y="48.219" fill="#2D1606" width="7.018" height="9.857"/>
	<linearGradient id="SVGID_10_" gradientUnits="userSpaceOnUse" x1="38.2578" y1="15.063" x2="37.8408" y2="24.646">
		<stop  offset="0" style="stop-color:#AFAAAF"/>
		<stop  offset="0.2545" style="stop-color:#787078"/>
		<stop  offset="1" style="stop-color:#6C605A"/>
	</linearGradient>
	<polygon fill="url(#SVGID_10_)" points="61.108,25.112 27.037,25.112 14.964,15.174 49.036,15.174 	"/>
	<polygon fill="#736177" points="14.964,15.174 2.892,25.112 2.892,26.562 14.964,16.629 27.037,26.562 27.037,25.112 	"/>
	<rect x="27.037" y="25.112" fill="#4E0F5B" width="34.072" height="1.45"/>
	<linearGradient id="SVGID_11_" gradientUnits="userSpaceOnUse" x1="43.832" y1="29.0708" x2="43.832" y2="67.9">
		<stop  offset="0" style="stop-color:#6B6563"/>
		<stop  offset="0.0035" style="stop-color:#6B6564"/>
		<stop  offset="0.0999" style="stop-color:#6E6A6F"/>
		<stop  offset="0.2354" style="stop-color:#706D76"/>
		<stop  offset="0.6121" style="stop-color:#706E78"/>
		<stop  offset="1" style="stop-color:#828282"/>
	</linearGradient>
	<rect x="28.713" y="26.562" fill="url(#SVGID_11_)" width="30.237" height="31.515"/>
	<g>
		<linearGradient id="SVGID_12_" gradientUnits="userSpaceOnUse" x1="34.0938" y1="30.7573" x2="34.0938" y2="43.0471">
			<stop  offset="0" style="stop-color:#000000"/>
			<stop  offset="0.3492" style="stop-color:#00384D"/>
			<stop  offset="0.6574" style="stop-color:#00658B"/>
			<stop  offset="0.8821" style="stop-color:#0081B1"/>
			<stop  offset="1" style="stop-color:#008BBF"/>
		</linearGradient>
		<rect x="32.331" y="30.146" fill="url(#SVGID_12_)" width="3.527" height="6.271"/>
		<linearGradient id="SVGID_13_" gradientUnits="userSpaceOnUse" x1="39.1807" y1="30.7573" x2="39.1807" y2="43.0471">
			<stop  offset="0" style="stop-color:#000000"/>
			<stop  offset="0.3492" style="stop-color:#00384D"/>
			<stop  offset="0.6574" style="stop-color:#00658B"/>
			<stop  offset="0.8821" style="stop-color:#0081B1"/>
			<stop  offset="1" style="stop-color:#008BBF"/>
		</linearGradient>
		<rect x="37.417" y="30.146" fill="url(#SVGID_13_)" width="3.527" height="6.271"/>
		<linearGradient id="SVGID_14_" gradientUnits="userSpaceOnUse" x1="44.2686" y1="30.7573" x2="44.2686" y2="43.0471">
			<stop  offset="0" style="stop-color:#000000"/>
			<stop  offset="0.3492" style="stop-color:#00384D"/>
			<stop  offset="0.6574" style="stop-color:#00658B"/>
			<stop  offset="0.8821" style="stop-color:#0081B1"/>
			<stop  offset="1" style="stop-color:#008BBF"/>
		</linearGradient>
		<rect x="42.505" y="30.146" fill="url(#SVGID_14_)" width="3.527" height="6.271"/>
		<linearGradient id="SVGID_15_" gradientUnits="userSpaceOnUse" x1="49.3545" y1="30.7573" x2="49.3545" y2="43.0471">
			<stop  offset="0" style="stop-color:#000000"/>
			<stop  offset="0.3492" style="stop-color:#00384D"/>
			<stop  offset="0.6574" style="stop-color:#00658B"/>
			<stop  offset="0.8821" style="stop-color:#0081B1"/>
			<stop  offset="1" style="stop-color:#008BBF"/>
		</linearGradient>
		<rect x="47.591" y="30.146" fill="url(#SVGID_15_)" width="3.527" height="6.271"/>
		<linearGradient id="SVGID_16_" gradientUnits="userSpaceOnUse" x1="54.4414" y1="30.7573" x2="54.4414" y2="43.0471">
			<stop  offset="0" style="stop-color:#000000"/>
			<stop  offset="0.3492" style="stop-color:#00384D"/>
			<stop  offset="0.6574" style="stop-color:#00658B"/>
			<stop  offset="0.8821" style="stop-color:#0081B1"/>
			<stop  offset="1" style="stop-color:#008BBF"/>
		</linearGradient>
		<rect x="52.679" y="30.146" fill="url(#SVGID_16_)" width="3.525" height="6.271"/>
	</g>
	<g>
		<linearGradient id="SVGID_17_" gradientUnits="userSpaceOnUse" x1="34.0938" y1="38.5918" x2="34.0938" y2="50.0188">
			<stop  offset="0" style="stop-color:#000000"/>
			<stop  offset="0.3492" style="stop-color:#00384D"/>
			<stop  offset="0.6574" style="stop-color:#00658B"/>
			<stop  offset="0.8821" style="stop-color:#0081B1"/>
			<stop  offset="1" style="stop-color:#008BBF"/>
		</linearGradient>
		<rect x="32.331" y="38.289" fill="url(#SVGID_17_)" width="3.527" height="6.27"/>
		<linearGradient id="SVGID_18_" gradientUnits="userSpaceOnUse" x1="39.1807" y1="38.5918" x2="39.1807" y2="50.0188">
			<stop  offset="0" style="stop-color:#000000"/>
			<stop  offset="0.3492" style="stop-color:#00384D"/>
			<stop  offset="0.6574" style="stop-color:#00658B"/>
			<stop  offset="0.8821" style="stop-color:#0081B1"/>
			<stop  offset="1" style="stop-color:#008BBF"/>
		</linearGradient>
		<rect x="37.417" y="38.289" fill="url(#SVGID_18_)" width="3.527" height="6.27"/>
		<linearGradient id="SVGID_19_" gradientUnits="userSpaceOnUse" x1="44.2686" y1="38.5918" x2="44.2686" y2="50.0188">
			<stop  offset="0" style="stop-color:#000000"/>
			<stop  offset="0.3492" style="stop-color:#00384D"/>
			<stop  offset="0.6574" style="stop-color:#00658B"/>
			<stop  offset="0.8821" style="stop-color:#0081B1"/>
			<stop  offset="1" style="stop-color:#008BBF"/>
		</linearGradient>
		<rect x="42.505" y="38.289" fill="url(#SVGID_19_)" width="3.527" height="6.27"/>
		<linearGradient id="SVGID_20_" gradientUnits="userSpaceOnUse" x1="49.3545" y1="38.5918" x2="49.3545" y2="50.0188">
			<stop  offset="0" style="stop-color:#000000"/>
			<stop  offset="0.3492" style="stop-color:#00384D"/>
			<stop  offset="0.6574" style="stop-color:#00658B"/>
			<stop  offset="0.8821" style="stop-color:#0081B1"/>
			<stop  offset="1" style="stop-color:#008BBF"/>
		</linearGradient>
		<rect x="47.591" y="38.289" fill="url(#SVGID_20_)" width="3.527" height="6.27"/>
		<linearGradient id="SVGID_21_" gradientUnits="userSpaceOnUse" x1="54.4414" y1="38.5918" x2="54.4414" y2="50.0188">
			<stop  offset="0" style="stop-color:#000000"/>
			<stop  offset="0.3492" style="stop-color:#00384D"/>
			<stop  offset="0.6574" style="stop-color:#00658B"/>
			<stop  offset="0.8821" style="stop-color:#0081B1"/>
			<stop  offset="1" style="stop-color:#008BBF"/>
		</linearGradient>
		<rect x="52.679" y="38.289" fill="url(#SVGID_21_)" width="3.525" height="6.27"/>
	</g>
	<polygon fill="#878787" points="4.568,58.076 6.809,54.592 7.225,53.146 9.559,50.092 7.809,53.146 7.642,54.084 9.559,54.674 
		12.396,54.508 9.392,55.174 7.225,55.008 6.476,56.424 6.142,58.076 	"/>
	<polygon fill="#878787" points="4.568,48.219 6.392,50.092 7.718,52.502 7.225,53.508 6.143,50.684 4.568,49.092 	"/>
	<polygon fill="#878787" points="22.059,46.758 25.142,48.758 28.713,50.092 28.713,52.174 27.037,50.092 25.386,50.863 
		25.059,54.084 24.501,50.863 25.386,49.674 23.559,48.219 21.094,49.508 22.738,47.842 21.094,46.758 21.476,44.559 	"/>
	<polygon fill="#515151" points="52.679,58.076 55.31,53.508 55.31,51.424 53.142,49.32 54.81,47.592 53.993,49.32 55.642,50.863 
		56.204,52.258 57.642,50.863 58.226,53.508 57.476,52.424 56.204,53.508 54.442,57.008 54.442,58.076 	"/>
	<polygon fill="#515151" points="41.726,41.842 41.726,45.924 44.073,47.592 45.142,49.758 45.142,47.092 42.505,45.342 	"/>
	<linearGradient id="SVGID_22_" gradientUnits="userSpaceOnUse" x1="41.5176" y1="12.7671" x2="41.5176" y2="25.8062">
		<stop  offset="0" style="stop-color:#6B6563"/>
		<stop  offset="0.0035" style="stop-color:#6B6564"/>
		<stop  offset="0.0999" style="stop-color:#6E6A6F"/>
		<stop  offset="0.2354" style="stop-color:#706D76"/>
		<stop  offset="0.6121" style="stop-color:#706E78"/>
		<stop  offset="1" style="stop-color:#828282"/>
	</linearGradient>
	<rect x="37.003" y="11.924" fill="url(#SVGID_22_)" width="9.029" height="10.583"/>
	<linearGradient id="SVGID_23_" gradientUnits="userSpaceOnUse" x1="35.5244" y1="11.7861" x2="29.1909" y2="27.4531">
		<stop  offset="0" style="stop-color:#6B6563"/>
		<stop  offset="0.0098" style="stop-color:#706A68"/>
		<stop  offset="0.0627" style="stop-color:#867F7C"/>
		<stop  offset="0.1252" style="stop-color:#978F8B"/>
		<stop  offset="0.2025" style="stop-color:#A29B96"/>
		<stop  offset="0.311" style="stop-color:#A9A19C"/>
		<stop  offset="0.6121" style="stop-color:#ABA39E"/>
		<stop  offset="1" style="stop-color:#828282"/>
	</linearGradient>
	<polygon fill="url(#SVGID_23_)" points="31.476,18.007 37.003,22.507 37.003,11.924 31.476,7.424 	"/>
	<polygon fill="#896755" points="30.477,8.174 36.005,12.674 36.005,10.424 30.477,5.924 	"/>
	<rect x="36.005" y="10.424" fill="#3A110C" width="11.137" height="2.25"/>
	<linearGradient id="SVGID_24_" gradientUnits="userSpaceOnUse" x1="38.1221" y1="5.3174" x2="40.7057" y2="16.0661">
		<stop  offset="0" style="stop-color:#874F47"/>
		<stop  offset="0.1438" style="stop-color:#7A4938"/>
		<stop  offset="0.4937" style="stop-color:#5E3B1A"/>
		<stop  offset="0.7915" style="stop-color:#4D3307"/>
		<stop  offset="1" style="stop-color:#473000"/>
	</linearGradient>
	<polygon fill="url(#SVGID_24_)" points="47.142,10.424 35.857,10.424 30.477,5.924 41.763,5.924 	"/>
	<polygon fill="#878787" points="31.476,18.007 33.24,17.216 33.24,15.174 34.727,14.966 33.559,15.815 33.643,17.216 
		34.094,18.341 33.102,17.841 32.331,18.703 	"/>
	<polygon fill="#515151" points="40.944,22.507 43.435,20.868 43.833,18.703 43.435,17.216 44.073,14.966 44.073,16.834 
		44.269,18.737 44.269,20.143 45.142,19.341 45.142,18.174 45.642,19.424 44.269,21.188 43.294,21.591 42.505,22.507 	"/>
	<polygon fill="#515151" points="40.372,18.868 38.853,17.848 37.003,19.574 37.003,21.188 37.003,22.507 37.417,20.177 
		38.853,18.535 	"/>
</g>
</svg>
