<?xml version="1.0" encoding="UTF-8" standalone="no"?>
<!-- Generator: Adobe Illustrator 16.0.0, SVG Export Plug-In . SVG Version: 6.00 Build 0)  -->

<svg
   xmlns:dc="http://purl.org/dc/elements/1.1/"
   xmlns:cc="http://creativecommons.org/ns#"
   xmlns:rdf="http://www.w3.org/1999/02/22-rdf-syntax-ns#"
   xmlns:svg="http://www.w3.org/2000/svg"
   xmlns="http://www.w3.org/2000/svg"
   xmlns:xlink="http://www.w3.org/1999/xlink"
   xmlns:sodipodi="http://sodipodi.sourceforge.net/DTD/sodipodi-0.dtd"
   xmlns:inkscape="http://www.inkscape.org/namespaces/inkscape"
   version="1.1"
   id="Layer_43"
   x="0px"
   y="0px"
   width="64px"
   height="64px"
   viewBox="0 0 64 64"
   enable-background="new 0 0 64 64"
   xml:space="preserve"
   inkscape:version="0.91 r13725"
   sodipodi:docname="diamond_with_dot_inside.svg"><metadata
     id="metadata138"><rdf:RDF><cc:Work
         rdf:about=""><dc:format>image/svg+xml</dc:format><dc:type
           rdf:resource="http://purl.org/dc/dcmitype/StillImage" /></cc:Work></rdf:RDF></metadata><defs
     id="defs136" /><sodipodi:namedview
     pagecolor="#ffffff"
     bordercolor="#666666"
     borderopacity="1"
     objecttolerance="10"
     gridtolerance="10"
     guidetolerance="10"
     inkscape:pageopacity="0"
     inkscape:pageshadow="2"
     inkscape:window-width="1920"
     inkscape:window-height="1017"
     id="namedview134"
     showgrid="false"
     inkscape:zoom="7.375"
     inkscape:cx="29.438534"
     inkscape:cy="43.043783"
     inkscape:window-x="0"
     inkscape:window-y="26"
     inkscape:window-maximized="1"
     inkscape:current-layer="g9" /><path
     display="none"
     fill="#FFFFFF"
     stroke="#FFEE00"
     stroke-linecap="round"
     stroke-linejoin="round"
     stroke-miterlimit="10"
     d="  M60.39,32.463c0.001-0.001,0.001-0.002,0.001-0.003c0.008-0.041,0.008-0.083,0.014-0.124c0.001-0.006,0.001-0.012,0.002-0.018  c0.016-0.127,0.02-0.254,0.012-0.381c-0.003-0.037-0.007-0.073-0.011-0.11c-0.004-0.033-0.004-0.065-0.01-0.098  c0-0.002,0-0.004-0.001-0.006c-0.031-0.183-0.092-0.359-0.173-0.529c-0.017-0.035-0.034-0.067-0.053-0.101  c-0.091-0.165-0.197-0.323-0.337-0.463L49.108,19.903c-0.496-0.496-1.184-0.682-1.824-0.558c-0.387,0.074-0.757,0.259-1.055,0.557  l-8.935,8.935c-0.514-0.778-1.203-1.428-2.01-1.901l1.809-1.808l0,0l7.185-7.185c0.133-0.132,0.234-0.282,0.322-0.437  c0.021-0.038,0.041-0.075,0.06-0.113c0.096-0.195,0.158-0.4,0.187-0.611c0.001-0.009,0.001-0.018,0.003-0.027  c0.015-0.125,0.019-0.25,0.011-0.377c-0.002-0.037-0.006-0.073-0.011-0.109c-0.003-0.031-0.004-0.063-0.009-0.093  c-0.001-0.004,0-0.008-0.001-0.012c-0.031-0.182-0.092-0.357-0.173-0.527c-0.017-0.035-0.035-0.068-0.054-0.103  c-0.09-0.165-0.196-0.322-0.336-0.462L33.552,4.347c-0.793-0.792-2.087-0.793-2.879-0.001L19.946,15.072  c-0.139,0.14-0.245,0.298-0.335,0.463c-0.019,0.034-0.037,0.067-0.053,0.102c-0.02,0.041-0.044,0.08-0.061,0.122l0,0  c0,0.001,0,0.001,0,0.002c-0.052,0.131-0.087,0.266-0.111,0.403c0,0.004,0,0.008-0.001,0.012c-0.005,0.03-0.005,0.061-0.008,0.091  c-0.005,0.038-0.009,0.075-0.011,0.113c-0.008,0.125-0.004,0.25,0.011,0.374c0.001,0.01,0.001,0.019,0.003,0.028  c0.005,0.04,0.005,0.08,0.013,0.12c0,0.001,0,0.001,0.001,0.002c0.033,0.168,0.095,0.33,0.171,0.487  c0.019,0.04,0.039,0.077,0.061,0.116c0.088,0.155,0.189,0.304,0.321,0.436l7.274,7.274l1.798,1.798  c-0.793,0.492-1.463,1.16-1.958,1.951l-9.063-9.063c-0.397-0.396-0.92-0.595-1.442-0.594c-0.521-0.001-1.041,0.197-1.437,0.593  L4.39,30.629c-0.14,0.141-0.247,0.3-0.337,0.467c-0.018,0.031-0.034,0.062-0.05,0.094c-0.02,0.042-0.045,0.082-0.063,0.125l0,0v0  c-0.053,0.132-0.088,0.27-0.112,0.408l0,0c-0.005,0.034-0.005,0.067-0.009,0.101c-0.005,0.038-0.009,0.074-0.011,0.112  C3.8,32.064,3.804,32.191,3.82,32.318c0,0.006,0,0.012,0.001,0.018c0.005,0.041,0.005,0.083,0.013,0.124  c0,0.001,0,0.001,0.001,0.002c0.033,0.168,0.095,0.33,0.171,0.487c0.019,0.04,0.039,0.077,0.061,0.116  c0.088,0.154,0.19,0.304,0.322,0.436l10.727,10.727c0.792,0.791,2.079,0.79,2.871,0l8.98-8.979c0.473,0.808,1.124,1.498,1.903,2.013  l-1.787,1.786l0,0l-7.139,7.139c-0.141,0.142-0.248,0.303-0.339,0.471c-0.016,0.029-0.032,0.059-0.047,0.089  c-0.083,0.172-0.144,0.351-0.175,0.535c0,0.002,0,0.003,0,0.004c-0.005,0.034-0.006,0.067-0.01,0.102  c-0.004,0.036-0.008,0.072-0.01,0.108c-0.008,0.126-0.004,0.252,0.012,0.377c0.001,0.009,0.001,0.017,0.002,0.025  c0.005,0.04,0.005,0.081,0.013,0.121c0,0.002,0.001,0.003,0.001,0.004c0.033,0.167,0.095,0.328,0.171,0.484  c0.019,0.04,0.039,0.077,0.06,0.115c0.088,0.155,0.189,0.304,0.321,0.436l10.727,10.727c0.793,0.791,2.086,0.791,2.881,0.002  l10.727-10.728c0.132-0.132,0.233-0.28,0.321-0.435c0.022-0.038,0.042-0.076,0.061-0.115c0.076-0.157,0.139-0.318,0.172-0.486  c0-0.001,0.001-0.001,0.001-0.001c0.008-0.042,0.008-0.085,0.014-0.127c0.001-0.006,0.001-0.012,0.002-0.018  c0.016-0.127,0.02-0.254,0.012-0.382c-0.003-0.035-0.006-0.069-0.011-0.105c-0.004-0.034-0.004-0.068-0.01-0.103  c0-0.002,0-0.004-0.001-0.007c-0.031-0.183-0.092-0.358-0.173-0.528c-0.017-0.035-0.034-0.067-0.053-0.102  c-0.091-0.165-0.197-0.323-0.337-0.463l-7.05-7.05l-1.797-1.797c0.794-0.495,1.463-1.167,1.956-1.962l1.798,1.798l7.052,7.052  c0.793,0.79,2.08,0.79,2.873,0.001L59.836,33.5c0.132-0.132,0.233-0.28,0.321-0.436c0.022-0.038,0.042-0.076,0.062-0.116  C60.295,32.792,60.356,32.631,60.39,32.463z"
     id="path3" /><g
     id="g5"><circle
       fill="#F5B32C"
       stroke="#03558E"
       stroke-width="6"
       stroke-miterlimit="10"
       cx="32.216"
       cy="32.183"
       r="6.083"
       id="circle7"
       style="stroke:#1a1a1a;stroke-opacity:1" /><g
       id="g9"><path
         fill="#009DE6"
         d="M35.51,33.5c-0.791-0.793-0.791-2.077,0-2.872l10.727-10.727c0.793-0.792,2.079-0.792,2.872,0.001    l10.726,10.726c0.794,0.794,0.795,2.079,0.002,2.871L49.109,44.228c-0.793,0.789-2.08,0.789-2.873-0.001L35.51,33.5z"
         id="path11" /><radialGradient
         id="SVGID_1_"
         cx="32.1133"
         cy="47.6201"
         r="12.7583"
         gradientUnits="userSpaceOnUse"><stop
           offset="0"
           style="stop-color:#808080;stop-opacity:1"
           id="stop14" /><stop
           offset="0.5"
           style="stop-color:#666666;stop-opacity:1"
           id="stop16" /><stop
           offset="1"
           style="stop-color:#4d4d4d;stop-opacity:1"
           id="stop18" /></radialGradient><path
         fill="url(#SVGID_1_)"
         d="M19.945,49.056c-0.791-0.792-0.791-2.076,0-2.871l10.728-10.727    c0.792-0.792,2.084-0.791,2.879,0.002l10.726,10.726c0.794,0.794,0.795,2.079,0.002,2.871L33.553,59.784    c-0.794,0.789-2.088,0.789-2.881-0.002L19.945,49.056z"
         id="path20" /><radialGradient
         id="SVGID_2_"
         cx="16.5522"
         cy="32.063999"
         r="12.7559"
         gradientUnits="userSpaceOnUse"
         xlink:href="#SVGID_3_"><stop
           offset="0"
           style="stop-color:#808080;stop-opacity:1"
           id="stop23" /><stop
           offset="0.5"
           style="stop-color:#666666;stop-opacity:1"
           id="stop25" /><stop
           offset="1"
           style="stop-color:#4d4d4d;stop-opacity:1"
           id="stop27" /></radialGradient><path
         fill="url(#SVGID_2_)"
         d="M4.39,33.5c-0.792-0.792-0.791-2.077,0-2.871l10.728-10.727c0.791-0.792,2.078-0.791,2.87,0.001    l10.726,10.726c0.794,0.793,0.794,2.078,0.002,2.871L17.987,44.227c-0.792,0.79-2.079,0.791-2.871,0L4.39,33.5z"
         id="path29"
         style="fill-opacity:1.0" /><radialGradient
         id="SVGID_3_"
         cx="32.1123"
         cy="16.5078"
         r="12.7581"
         gradientUnits="userSpaceOnUse"><stop
           offset="0"
           style="stop-color:#808080;stop-opacity:1"
           id="stop32" /><stop
           offset="0.5"
           style="stop-color:#666666;stop-opacity:1"
           id="stop34" /><stop
           offset="1"
           style="stop-color:#4d4d4d;stop-opacity:1"
           id="stop36" /></radialGradient><path
         fill="url(#SVGID_3_)"
         d="M19.945,17.944c-0.791-0.793-0.791-2.077,0.001-2.872L30.673,4.346    c0.792-0.792,2.085-0.792,2.879,0.001l10.726,10.726c0.794,0.793,0.794,2.078,0.001,2.871L33.552,28.67    c-0.793,0.791-2.087,0.791-2.88,0L19.945,17.944z"
         id="path38" /><path
         fill="#009DE6"
         d="M35.51,33.5c-0.791-0.793-0.791-2.077,0-2.872l10.727-10.727c0.793-0.792,2.079-0.792,2.872,0.001    l10.726,10.726c0.794,0.794,0.795,2.079,0.002,2.871L49.109,44.228c-0.793,0.789-2.08,0.789-2.873-0.001L35.51,33.5z"
         id="path40" /><radialGradient
         id="SVGID_4_"
         cx="47.672901"
         cy="32.063999"
         r="12.7561"
         gradientUnits="userSpaceOnUse"
         xlink:href="#SVGID_3_"><stop
           offset="0"
           style="stop-color:#808080;stop-opacity:1"
           id="stop43" /><stop
           offset="0.5"
           style="stop-color:#666666;stop-opacity:1"
           id="stop45" /><stop
           offset="1"
           style="stop-color:#4d4d4d;stop-opacity:1"
           id="stop47" /></radialGradient><path
         fill="url(#SVGID_4_)"
         d="M35.51,33.5c-0.791-0.793-0.791-2.077,0-2.872l10.727-10.727c0.793-0.792,2.079-0.792,2.872,0.001    l10.726,10.726c0.794,0.794,0.795,2.079,0.002,2.871L49.109,44.228c-0.793,0.789-2.08,0.789-2.873-0.001L35.51,33.5z"
         id="path49"
         style="fill-opacity:1.0" /><path
         d="M44.278,16.442L33.552,27.168c-0.793,0.791-2.087,0.791-2.88,0L19.945,16.442    c-0.201-0.202-0.35-0.435-0.449-0.684c-0.29,0.731-0.141,1.594,0.449,2.186L30.672,28.67c0.793,0.791,2.086,0.79,2.88,0    l10.727-10.727c0.591-0.591,0.74-1.455,0.449-2.185C44.629,16.007,44.479,16.24,44.278,16.442z"
         id="path51"
         fill="#036EB5"
         style="fill:#4d4d4d;fill-opacity:1" /><g
         id="g53"><path
           d="M59.836,32.001L49.109,42.733c-0.793,0.789-2.08,0.789-2.873-0.001L35.51,32.001     c-0.201-0.203-0.351-0.437-0.449-0.687c-0.289,0.73-0.141,1.594,0.449,2.186l10.727,10.727c0.793,0.79,2.08,0.79,2.873,0.001     L59.836,33.5c0.591-0.59,0.739-1.453,0.449-2.184C60.187,31.565,60.037,31.799,59.836,32.001z"
           id="path55"
           fill="#036EB5"
           style="fill:#4d4d4d;fill-opacity:1" /><path
           d="M44.279,47.563L33.553,58.29c-0.794,0.789-2.088,0.789-2.881-0.002L19.945,47.562     c-0.202-0.202-0.351-0.438-0.45-0.688c-0.288,0.73-0.139,1.592,0.45,2.182l10.727,10.727c0.793,0.791,2.086,0.791,2.881,0.002     l10.727-10.728c0.59-0.589,0.738-1.45,0.45-2.181C44.631,47.126,44.481,47.36,44.279,47.563z"
           id="path57"
           fill="#036EB5"
           style="fill:#4d4d4d;fill-opacity:1" /><path
           d="M28.715,32.001L17.987,42.732c-0.792,0.79-2.079,0.791-2.871,0L4.39,32.001     c-0.201-0.202-0.351-0.437-0.449-0.686c-0.29,0.731-0.141,1.594,0.449,2.185l10.727,10.727c0.792,0.791,2.079,0.79,2.871,0     L28.715,33.5c0.59-0.591,0.739-1.454,0.449-2.184C29.065,31.565,28.916,31.799,28.715,32.001z"
           id="path59"
           fill="#036EB5"
           style="fill:#4d4d4d;fill-opacity:1" /></g><g
         id="g61"
         style="fill:#808080;fill-opacity:1"><linearGradient
           id="SVGID_5_"
           gradientUnits="userSpaceOnUse"
           x1="32.1123"
           y1="1"
           x2="32.1123"
           y2="45.0004"><stop
             offset="0"
             style="stop-color:#2BC4F3"
             id="stop64" /><stop
             offset="0.5"
             style="stop-color:#00AEEE"
             id="stop66" /><stop
             offset="1"
             style="stop-color:#0095DA"
             id="stop68" /></linearGradient><path
           fill="url(#SVGID_5_)"
           d="M19.946,16.774L30.673,6.047c0.792-0.792,2.085-0.792,2.879,0.001l10.726,10.726     c0.174,0.174,0.303,0.374,0.4,0.585c0.349-0.75,0.22-1.667-0.4-2.287L33.552,4.347c-0.793-0.792-2.087-0.793-2.879-0.001     L19.946,15.072c-0.619,0.621-0.747,1.537-0.4,2.288C19.644,17.148,19.772,16.948,19.946,16.774z"
           id="path70"
           style="fill:#808080;fill-opacity:1" /></g><g
         id="g72"
         style="fill:#808080;fill-opacity:1"><linearGradient
           id="SVGID_6_"
           gradientUnits="userSpaceOnUse"
           x1="32.1128"
           y1="32.1138"
           x2="32.1128"
           y2="76.1125"><stop
             offset="0"
             style="stop-color:#2BC4F3"
             id="stop75" /><stop
             offset="0.5"
             style="stop-color:#00AEEE"
             id="stop77" /><stop
             offset="1"
             style="stop-color:#0095DA"
             id="stop79" /></linearGradient><path
           d="M19.946,47.887L30.673,37.16c0.792-0.791,2.086-0.791,2.879,0.002l10.726,10.726     c0.174,0.174,0.303,0.374,0.4,0.585c0.349-0.75,0.22-1.667-0.4-2.287L33.552,35.46c-0.793-0.792-2.087-0.793-2.879-0.001     L19.946,46.186c-0.618,0.621-0.747,1.537-0.399,2.287C19.644,48.262,19.772,48.062,19.946,47.887z"
           id="path81"
           fill="url(#SVGID_6_)"
           style="fill:#808080;fill-opacity:1" /></g><g
         id="g83"
         style="fill:#808080;fill-opacity:1"><linearGradient
           id="SVGID_7_"
           gradientUnits="userSpaceOnUse"
           x1="16.5571"
           y1="16.5566"
           x2="16.5571"
           y2="60.5538"><stop
             offset="0"
             style="stop-color:#2BC4F3"
             id="stop86" /><stop
             offset="0.5"
             style="stop-color:#00AEEE"
             id="stop88" /><stop
             offset="1"
             style="stop-color:#0095DA"
             id="stop90" /></linearGradient><path
           fill="url(#SVGID_7_)"
           d="M4.391,32.33l10.727-10.727c0.792-0.791,2.086-0.791,2.879,0.002l10.726,10.726     c0.174,0.174,0.303,0.374,0.4,0.585c0.349-0.75,0.22-1.667-0.4-2.287L17.996,19.903c-0.793-0.792-2.087-0.793-2.879-0.001     L4.391,30.628c-0.618,0.621-0.747,1.537-0.399,2.287C4.088,32.705,4.217,32.504,4.391,32.33z"
           id="path92"
           style="fill:#808080;fill-opacity:1" /></g><g
         id="g94"
         style="fill:#808080;fill-opacity:1"><linearGradient
           id="SVGID_8_"
           gradientUnits="userSpaceOnUse"
           x1="47.6699"
           y1="16.5566"
           x2="47.6699"
           y2="60.5554"><stop
             offset="0"
             style="stop-color:#2BC4F3"
             id="stop97" /><stop
             offset="0.5"
             style="stop-color:#00AEEE"
             id="stop99" /><stop
             offset="1"
             style="stop-color:#0095DA"
             id="stop101" /></linearGradient><path
           fill="url(#SVGID_8_)"
           d="M35.503,32.33l10.727-10.727c0.792-0.791,2.086-0.791,2.879,0.002l10.726,10.726     c0.174,0.174,0.303,0.374,0.4,0.585c0.349-0.75,0.22-1.667-0.4-2.287L49.108,19.903c-0.793-0.792-2.087-0.793-2.879-0.001     L35.503,30.629c-0.618,0.621-0.747,1.537-0.399,2.287C35.2,32.705,35.329,32.505,35.503,32.33z"
           id="path103"
           style="fill:#808080;fill-opacity:1" /></g></g><g
       id="g105"
       style="fill:#808080;fill-opacity:1"><g
         id="g107"
         style="fill:#808080;fill-opacity:1"><path
           fill="#00B8F1"
           d="M32.216,40.765c1.871,0,3.6-0.608,5.012-1.629l-3.676-3.676c-0.794-0.793-2.087-0.794-2.879-0.002     l-3.588,3.588C28.518,40.12,30.291,40.765,32.216,40.765z"
           id="path109"
           style="fill:#808080;fill-opacity:1" /><path
           fill="#00B8F1"
           d="M25.259,27.175c-1.019,1.411-1.626,3.138-1.626,5.007c0,1.81,0.566,3.487,1.526,4.873l3.556-3.556     c0.792-0.793,0.792-2.077-0.002-2.871L25.259,27.175z"
           id="path111"
           style="fill:#808080;fill-opacity:1" /><path
           fill="#00B8F1"
           d="M37.094,25.128c-1.387-0.961-3.066-1.529-4.878-1.529c-1.865,0-3.587,0.604-4.997,1.618l3.453,3.453     c0.793,0.791,2.086,0.79,2.88,0L37.094,25.128z"
           id="path113"
           style="fill:#808080;fill-opacity:1" /></g><g
         id="g115"
         style="fill:#808080;fill-opacity:1"><path
           fill="#00B8F1"
           d="M35.51,33.5l3.675,3.675c1.012-1.408,1.615-3.13,1.615-4.992c0-1.923-0.644-3.695-1.717-5.128     l-3.573,3.574C34.719,31.423,34.719,32.707,35.51,33.5z"
           id="path117"
           style="fill:#808080;fill-opacity:1" /></g></g><g
       id="g119"><circle
         stroke-miterlimit="10"
         cx="32.216"
         cy="32.183"
         r="6.083"
         id="circle121"
         stroke-width="3"
         stroke="#036EB5"
         fill="#F5B32C"
         style="fill:none;stroke:#2b2b2b;stroke-opacity:1" /><circle
         cx="32.216"
         cy="32.183"
         r="6.083"
         id="circle123"
         style="fill:#d60039;fill-opacity:1"
         fill="#F09400" /><radialGradient
         id="SVGID_9_"
         cx="32.2163"
         cy="32.1816"
         r="4.7209"
         gradientUnits="userSpaceOnUse"><stop
           offset="0"
           style="stop-color:#d7003a;stop-opacity:1"
           id="stop126" /><stop
           offset="1"
           style="stop-color:#d65678;stop-opacity:1"
           id="stop128" /></radialGradient><circle
         cx="32.216"
         cy="32.183"
         r="4.721"
         id="circle130"
         fill="url(#SVGID_9_)" /><path
         d="M33.211,30.981c0,1.377-1.118,2.495-2.496,2.495c-1.375,0-2.489-1.118-2.489-2.495    c0-1.375,1.114-2.489,2.489-2.489C32.093,28.492,33.211,29.606,33.211,30.981z"
         id="path132"
         fill="#FFFFFF" /></g></g></svg>