<?xml version="1.0" encoding="utf-8"?>
<!-- Generator: Adobe Illustrator 15.0.0, SVG Export Plug-In . SVG Version: 6.00 Build 0)  -->
<!DOCTYPE svg PUBLIC "-//W3C//DTD SVG 1.1//EN" "http://www.w3.org/Graphics/SVG/1.1/DTD/svg11.dtd">
<svg version="1.1" id="レイヤー_1" xmlns="http://www.w3.org/2000/svg" xmlns:xlink="http://www.w3.org/1999/xlink" x="0px"
	 y="0px" width="64px" height="64px" viewBox="0 0 64 64" style="enable-background:new 0 0 64 64;" xml:space="preserve">
<g>
	<path style="fill-rule:evenodd;clip-rule:evenodd;fill:#FFFFFF;" d="M59.8330078,48c0,6.6269531-5.3730469,12-12,12H16.1669922
		c-6.6279297,0-12-5.3730469-12-12V16c0-6.6279297,5.3720703-12,12-12h31.6660156c6.6269531,0,12,5.3720703,12,12V48z"/>
	<path d="M47.8330078,62H16.1669922c-7.7197266,0-14-6.2802734-14-14V16c0-7.7197266,6.2802734-14,14-14h31.6660156
		c7.7197266,0,14,6.2802734,14,14v32C61.8330078,55.7197266,55.5527344,62,47.8330078,62z M16.1669922,6
		c-5.5141602,0-10,4.4858398-10,10v32c0,5.5136719,4.4858398,10,10,10h31.6660156c5.5136719,0,10-4.4863281,10-10V16
		c0-5.5141602-4.4863281-10-10-10H16.1669922z"/>
</g>
<g>
	<g>
		<g>
			<linearGradient id="SVGID_1_" gradientUnits="userSpaceOnUse" x1="49.2763672" y1="43.21875" x2="42.6098938" y2="14.8857412">
				<stop  offset="0" style="stop-color:#919191"/>
				<stop  offset="1" style="stop-color:#000000"/>
			</linearGradient>
			<circle style="fill-rule:evenodd;clip-rule:evenodd;fill:url(#SVGID_1_);" cx="43.5004883" cy="18.6669922" r="5.1665039"/>
		</g>
		<g>
			<linearGradient id="SVGID_2_" gradientUnits="userSpaceOnUse" x1="49.2773438" y1="69.8857422" x2="42.6108704" y2="41.5527344">
				<stop  offset="0" style="stop-color:#919191"/>
				<stop  offset="1" style="stop-color:#000000"/>
			</linearGradient>
			<circle style="fill-rule:evenodd;clip-rule:evenodd;fill:url(#SVGID_2_);" cx="43.5004883" cy="45.3339844" r="5.1665039"/>
		</g>
		<g>
			<linearGradient id="SVGID_3_" gradientUnits="userSpaceOnUse" x1="49.2773438" y1="56.5498047" x2="42.6114998" y2="28.2194729">
				<stop  offset="0" style="stop-color:#919191"/>
				<stop  offset="1" style="stop-color:#000000"/>
			</linearGradient>
			<circle style="fill-rule:evenodd;clip-rule:evenodd;fill:url(#SVGID_3_);" cx="43.5009766" cy="32.0004883" r="5.1660156"/>
		</g>
	</g>
	<g>
		<g>
			<linearGradient id="SVGID_4_" gradientUnits="userSpaceOnUse" x1="26.2773438" y1="43.21875" x2="19.6108704" y2="14.8857412">
				<stop  offset="0" style="stop-color:#919191"/>
				<stop  offset="1" style="stop-color:#000000"/>
			</linearGradient>
			<circle style="fill-rule:evenodd;clip-rule:evenodd;fill:url(#SVGID_4_);" cx="20.5004883" cy="18.6669922" r="5.1665039"/>
		</g>
		<g>
			<linearGradient id="SVGID_5_" gradientUnits="userSpaceOnUse" x1="26.2773438" y1="69.8876953" x2="19.6102409" y2="41.5520096">
				<stop  offset="0" style="stop-color:#919191"/>
				<stop  offset="1" style="stop-color:#000000"/>
			</linearGradient>
			<circle style="fill-rule:evenodd;clip-rule:evenodd;fill:url(#SVGID_5_);" cx="20.5004883" cy="45.3339844" r="5.1665039"/>
		</g>
		<g>
			<linearGradient id="SVGID_6_" gradientUnits="userSpaceOnUse" x1="26.2773438" y1="56.5498047" x2="19.6114998" y2="28.2194729">
				<stop  offset="0" style="stop-color:#919191"/>
				<stop  offset="1" style="stop-color:#000000"/>
			</linearGradient>
			<circle style="fill-rule:evenodd;clip-rule:evenodd;fill:url(#SVGID_6_);" cx="20.5009766" cy="32.0004883" r="5.1660156"/>
		</g>
	</g>
</g>
</svg>
