<?xml version="1.0" encoding="utf-8"?>
<!-- Generator: Adobe Illustrator 15.0.0, SVG Export Plug-In . SVG Version: 6.00 Build 0)  -->
<!DOCTYPE svg PUBLIC "-//W3C//DTD SVG 1.1//EN" "http://www.w3.org/Graphics/SVG/1.1/DTD/svg11.dtd">
<svg version="1.1" id="レイヤー_1" xmlns="http://www.w3.org/2000/svg" xmlns:xlink="http://www.w3.org/1999/xlink" x="0px"
	 y="0px" width="64px" height="64px" viewBox="0 0 64 64" style="enable-background:new 0 0 64 64;" xml:space="preserve">
<g>
	<path style="fill-rule:evenodd;clip-rule:evenodd;fill:#FFFFFF;" d="M59.8330078,48c0,6.6269531-5.3730469,12-12,12H16.1669922
		c-6.6279297,0-12-5.3730469-12-12V16c0-6.6279297,5.3720703-12,12-12h31.6660156c6.6269531,0,12,5.3720703,12,12V48z"/>
	<path d="M47.8330078,62H16.1669922c-7.7197266,0-14-6.2802734-14-14V16c0-7.7197266,6.2802734-14,14-14h31.6660156
		c7.7197266,0,14,6.2802734,14,14v32C61.8330078,55.7197266,55.5527344,62,47.8330078,62z M16.1669922,6
		c-5.5141602,0-10,4.4858398-10,10v32c0,5.5136719,4.4858398,10,10,10h31.6660156c5.5136719,0,10-4.4863281,10-10V16
		c0-5.5141602-4.4863281-10-10-10H16.1669922z"/>
</g>
<g>
	<linearGradient id="SVGID_1_" gradientUnits="userSpaceOnUse" x1="27.8173828" y1="45.84375" x2="21.1509094" y2="17.5107422">
		<stop  offset="0" style="stop-color:#919191"/>
		<stop  offset="1" style="stop-color:#000000"/>
	</linearGradient>
	<circle style="fill-rule:evenodd;clip-rule:evenodd;fill:url(#SVGID_1_);" cx="22.0405273" cy="21.2919922" r="5.1665039"/>
	<linearGradient id="SVGID_2_" gradientUnits="userSpaceOnUse" x1="47.7363281" y1="67.2626953" x2="41.0692253" y2="38.9270096">
		<stop  offset="0" style="stop-color:#919191"/>
		<stop  offset="1" style="stop-color:#000000"/>
	</linearGradient>
	<circle style="fill-rule:evenodd;clip-rule:evenodd;fill:url(#SVGID_2_);" cx="41.9589844" cy="42.7089844" r="5.1669922"/>
</g>
</svg>
