<?xml version="1.0" encoding="utf-8"?>
<!-- Generator: Adobe Illustrator 15.0.0, SVG Export Plug-In . SVG Version: 6.00 Build 0)  -->
<!DOCTYPE svg PUBLIC "-//W3C//DTD SVG 1.1//EN" "http://www.w3.org/Graphics/SVG/1.1/DTD/svg11.dtd">
<svg version="1.1" id="レイヤー_1" xmlns="http://www.w3.org/2000/svg" xmlns:xlink="http://www.w3.org/1999/xlink" x="0px"
	 y="0px" width="64px" height="64px" viewBox="0 0 64 64" style="enable-background:new 0 0 64 64;" xml:space="preserve">
<g>
	<linearGradient id="SVGID_1_" gradientUnits="userSpaceOnUse" x1="17.6298828" y1="-4.8999023" x2="44.795784" y2="66.7651443">
		<stop  offset="0" style="stop-color:#FFF0ED"/>
		<stop  offset="0.4120165" style="stop-color:#FFE2D9"/>
		<stop  offset="1" style="stop-color:#FFC9B5"/>
	</linearGradient>
	<circle style="fill:url(#SVGID_1_);" cx="31.6171875" cy="32" r="28.9443359"/>
	<circle style="fill:none;stroke:#FFB6B6;stroke-width:2.5;stroke-miterlimit:10;" cx="31.6171875" cy="32" r="28.0791016"/>
	<circle style="fill:none;stroke:#750000;stroke-width:2.5;stroke-miterlimit:10;" cx="31.6171875" cy="32" r="28.9443359"/>
	<path style="fill:none;stroke:#750000;stroke-width:3;stroke-miterlimit:10;" d="M21.4501953,50.1289063
		c1.1572266-3.9912109,14.8154297-6.3203125,21.0517578,0.8251953"/>
	<g>
		<ellipse style="fill:#750000;" cx="17.9423828" cy="27.3417969" rx="3.5078125" ry="4.5292969"/>
		<ellipse style="fill:#750000;" cx="42.4150391" cy="27.3417969" rx="3.5087891" ry="4.5292969"/>
	</g>
	<path style="fill:none;stroke:#750000;stroke-width:2;stroke-miterlimit:10;" d="M35.5878906,12.7231445
		c0,0,4.4316406,6.5,14.7646484,6.5"/>
	<path style="fill:none;stroke:#750000;stroke-width:2;stroke-miterlimit:10;" d="M23.4614258,13.6240234
		c0,0-2.7402344,6.625-12.6557617,6.5"/>
	<linearGradient id="SVGID_2_" gradientUnits="userSpaceOnUse" x1="47.6923828" y1="36.8486328" x2="58.155529" y2="56.0923538">
		<stop  offset="0" style="stop-color:#50BEDF"/>
		<stop  offset="0.156303" style="stop-color:#4DB6DA"/>
		<stop  offset="0.3982336" style="stop-color:#44A0CE"/>
		<stop  offset="0.6954401" style="stop-color:#357DB9"/>
		<stop  offset="1" style="stop-color:#2351A0"/>
	</linearGradient>
	<path style="fill:url(#SVGID_2_);stroke:#234E9E;stroke-miterlimit:10;" d="M54.2421875,33.2871094
		c-11.1083984,15.7226563-8.0048828,23.6298828,0,23.6298828C62.2451172,56.9169922,65.3486328,49.0097656,54.2421875,33.2871094z"
		/>
</g>
</svg>
