<?xml version="1.0" encoding="UTF-8" standalone="no"?>
<!-- Generator: Adobe Illustrator 15.0.2, SVG Export Plug-In . SVG Version: 6.00 Build 0)  -->

<svg
   xmlns:dc="http://purl.org/dc/elements/1.1/"
   xmlns:cc="http://creativecommons.org/ns#"
   xmlns:rdf="http://www.w3.org/1999/02/22-rdf-syntax-ns#"
   xmlns:svg="http://www.w3.org/2000/svg"
   xmlns="http://www.w3.org/2000/svg"
   xmlns:sodipodi="http://sodipodi.sourceforge.net/DTD/sodipodi-0.dtd"
   xmlns:inkscape="http://www.inkscape.org/namespaces/inkscape"
   version="1.1"
   id="レイヤー_1"
   x="0px"
   y="0px"
   width="64px"
   height="64px"
   viewBox="0 0 64 64"
   enable-background="new 0 0 64 64"
   xml:space="preserve"
   inkscape:version="0.48.4 r9939"
   sodipodi:docname="dizzy.svg"><metadata
     id="metadata17"><rdf:RDF><cc:Work
         rdf:about=""><dc:format>image/svg+xml</dc:format><dc:type
           rdf:resource="http://purl.org/dc/dcmitype/StillImage" /></cc:Work></rdf:RDF></metadata><defs
     id="defs15" /><sodipodi:namedview
     pagecolor="#ffffff"
     bordercolor="#666666"
     borderopacity="1"
     objecttolerance="10"
     gridtolerance="10"
     guidetolerance="10"
     inkscape:pageopacity="0"
     inkscape:pageshadow="2"
     inkscape:window-width="640"
     inkscape:window-height="480"
     id="namedview13" /><g
     id="g3"><path
       fill="none"
       stroke="#2CA4DE"
       stroke-width="3"
       stroke-miterlimit="10"
       d="M18.021,33.361   C9.19,28.05,4.076,21.392,5.898,16.561c2.411-6.391,16.052-7.162,30.468-1.724c14.414,5.438,24.146,15.028,21.734,21.419   c-1.233,3.27-5.407,5.068-11.12,5.316"
       id="path5" /><polygon
       fill="#F8EB00"
       points="38.917,37.867 38.463,43.486 42.836,47.047 37.349,48.354 35.314,53.611 32.379,48.799    26.749,48.486 30.419,44.208 28.974,38.757 34.18,40.926  "
       id="polygon7" /><polygon
       fill="#F8EB00"
       points="51.913,10.389 51.702,12.989 53.727,14.639 51.187,15.243 50.245,17.678 48.886,15.449    46.278,15.306 47.978,13.324 47.31,10.8 49.72,11.805  "
       id="polygon9" /><polygon
       fill="#F8EB00"
       points="56.654,27.744 56.443,30.345 58.468,31.994 55.928,32.599 54.986,35.033 53.627,32.805    51.02,32.661 52.719,30.68 52.051,28.155 54.461,29.16  "
       id="polygon11" /></g></svg>