<?xml version="1.0" encoding="UTF-8" standalone="no"?>
<!-- Generator: Adobe Illustrator 15.0.2, SVG Export Plug-In . SVG Version: 6.00 Build 0)  -->

<svg
   xmlns:dc="http://purl.org/dc/elements/1.1/"
   xmlns:cc="http://creativecommons.org/ns#"
   xmlns:rdf="http://www.w3.org/1999/02/22-rdf-syntax-ns#"
   xmlns:svg="http://www.w3.org/2000/svg"
   xmlns="http://www.w3.org/2000/svg"
   xmlns:sodipodi="http://sodipodi.sourceforge.net/DTD/sodipodi-0.dtd"
   xmlns:inkscape="http://www.inkscape.org/namespaces/inkscape"
   version="1.1"
   id="レイヤー_1"
   x="0px"
   y="0px"
   width="64px"
   height="64px"
   viewBox="0 0 64 64"
   enable-background="new 0 0 64 64"
   xml:space="preserve"
   inkscape:version="0.48.5 r10040"
   sodipodi:docname="do_not_litter.svg"><metadata
     id="metadata25"><rdf:RDF><cc:Work
         rdf:about=""><dc:format>image/svg+xml</dc:format><dc:type
           rdf:resource="http://purl.org/dc/dcmitype/StillImage" /></cc:Work></rdf:RDF></metadata><defs
     id="defs23" /><sodipodi:namedview
     pagecolor="#ffffff"
     bordercolor="#666666"
     borderopacity="1"
     objecttolerance="10"
     gridtolerance="10"
     guidetolerance="10"
     inkscape:pageopacity="0"
     inkscape:pageshadow="2"
     inkscape:window-width="640"
     inkscape:window-height="480"
     id="namedview21" /><g
     id="g3"><g
       id="g5"><g
         id="g7"><circle
           fill="#595757"
           cx="37.564"
           cy="15.177"
           r="3.386"
           id="circle9" /><path
           fill="#595757"
           d="M41.566,19.303c-0.775,0-7.129,0-8.646,0c-1.053,0-1.271,0.781-1.271,0.781l-3.227,4.948h-5.251     c-2.828,0-3.029,3.938,0,3.938c1.616,0,7.573,0,7.573,0l2.251-3.89c0,3.561,0,24.534,0,25.472c0,1.022,0.951,1.656,1.658,1.656     c0.705,0,2.143-0.705,2.143-1.409c0-0.707,0-15.379,0-15.379h0.818c0,0,0,14.602,0,15.307s1.217,1.481,1.992,1.481     s1.818-0.563,1.818-1.34s0-26.171,0-26.171h0.539c0,0,0,8.606,0,9.428s0.813,1.34,1.455,1.456     c0.969,0.173,1.551-0.725,1.551-1.551c0-0.827,0-9.051,0-11.325C44.971,20.431,42.344,19.303,41.566,19.303z"
           id="path11" /></g><rect
         x="17.096"
         y="29.581"
         transform="matrix(0.9495 -0.3137 0.3137 0.9495 -9.213 7.6093)"
         fill="#595757"
         width="3.889"
         height="5.708"
         id="rect13" /><rect
         x="21.209"
         y="37.911"
         transform="matrix(0.9236 0.3834 -0.3834 0.9236 17.1525 -5.7794)"
         fill="#595757"
         width="3.735"
         height="4.467"
         id="rect15" /><rect
         x="19.499"
         y="46.23"
         transform="matrix(0.8986 -0.4387 0.4387 0.8986 -18.932 14.0676)"
         fill="#595757"
         width="2.949"
         height="3.54"
         id="rect17" /></g><path
       fill="#E30012"
       d="M32,2.008C15.436,2.008,2.008,15.436,2.008,32S15.436,61.992,32,61.992S61.992,48.564,61.992,32   S48.564,2.008,32,2.008z M56.158,32.001c0,5.72-1.992,10.972-5.316,15.11L16.888,13.157C21.026,9.834,26.279,7.842,32,7.842   C45.342,7.842,56.158,18.657,56.158,32.001z M7.842,32.001c0-5.55,1.875-10.657,5.021-14.736l33.872,33.874   c-4.078,3.145-9.186,5.02-14.734,5.02C18.657,56.158,7.842,45.342,7.842,32.001z"
       id="path19" /></g></svg>