<?xml version="1.0" encoding="utf-8"?>
<!-- Generator: Adobe Illustrator 15.0.2, SVG Export Plug-In . SVG Version: 6.00 Build 0)  -->
<!DOCTYPE svg PUBLIC "-//W3C//DTD SVG 1.1//EN" "http://www.w3.org/Graphics/SVG/1.1/DTD/svg11.dtd">
<svg version="1.1" id="レイヤー_1" xmlns="http://www.w3.org/2000/svg" xmlns:xlink="http://www.w3.org/1999/xlink" x="0px"
	 y="0px" width="64px" height="64px" viewBox="0 0 64 64" enable-background="new 0 0 64 64" xml:space="preserve">
<g>
	<path fill="none" stroke="#056CE8" stroke-width="6" stroke-miterlimit="10" d="M58.734,19.243c0,0-17.089-3.818-22.34,13.199
		c-0.323,1.047-0.667,2.874-0.667,4.456c0,6.108,3.582,11.06,8.001,11.06s8.001-4.951,8.001-11.06c0-1.634-0.398-3.497-0.74-4.568
		C45.585,15.404,33.234,16.046,32,16.046c-1.295,0-13.739-0.622-18.989,16.396c-0.323,1.047-0.667,2.874-0.667,4.456
		c0,6.108,3.582,11.06,8.001,11.06c4.418,0,8-4.951,8-11.06c0-1.634-0.397-3.497-0.739-4.568
		c-5.404-16.925-22.34-13.199-22.34-13.199"/>
</g>
</svg>
