<?xml version="1.0" encoding="utf-8"?>
<!-- Generator: Adobe Illustrator 18.0.0, SVG Export Plug-In . SVG Version: 6.00 Build 0)  -->
<!DOCTYPE svg PUBLIC "-//W3C//DTD SVG 1.1//EN" "http://www.w3.org/Graphics/SVG/1.1/DTD/svg11.dtd">
<svg version="1.1" id="レイヤー_1" xmlns="http://www.w3.org/2000/svg" xmlns:xlink="http://www.w3.org/1999/xlink" x="0px"
	 y="0px" width="64px" height="64px" viewBox="0 0 64 64" style="enable-background:new 0 0 64 64;" xml:space="preserve">
<g>
	<g>
		<path style="fill:#FFB997;" d="M23.6704006,25.3150005c0,0-5.9111004-10.6895008-5.2129002-14.125001
			C19.1562996,7.7563901,20.1655006,1.32669,30.8057003,3.00049c0,0,11.3379002-3.2051001,15.7324009,3.2440999
			C50.5273018,12.0991001,31.3027,28.8852997,31.3027,28.8852997L23.6704006,25.3150005z"/>
		<path style="fill:#420707;" d="M47.2519989,5.7582898c4.2959023,6.3057103-13.3554993,22.0078106-15.3813992,23.7774105
			l-0.9335995,0.1317997l-7.6322994-3.5702991l-0.3896999-0.3642998
			c-0.6206017-1.1230011-6.0434017-11.0732002-5.3032017-14.7148008l0.0532017-0.2636995
			C18.2905006,7.6469898,19.4545994,1.86479,27.5839996,1.86379h0.0004997c0.9780006,0,2.0449009,0.0858999,3.1732998,0.2558
			C31.4580002,1.93899,34,1.34129,36.9931984,1.34129C41.7344017,1.34129,45.2821999,2.86869,47.2519989,5.7582898z
			 M27.5849991,3.5902901h-0.0009995C20.8682003,3.59129,19.9951,7.9281902,19.3574009,11.0943003l-0.0537014,0.2674999
			C18.8505993,13.5913,22.0674,20.5844994,24.2910004,24.6518993L31.1567001,27.8638
			C38.3446999,21.5014992,48.3661995,10.4614,45.8241997,6.7309899C44.1679993,4.3002901,41.1973,3.06689,36.9931984,3.06689
			c-3.2011986,0-5.9262981,0.7567999-5.9531975,0.7646999l-0.3686008,0.0214
			C29.5639992,3.6791899,28.5254002,3.5902901,27.5849991,3.5902901z"/>
	</g>
	<g>
		<path style="fill:#FFB997;" d="M13.7406998,25.3150005c-0.5625-2.8868008,2.1822004-8.9434013,5.1611996-9.7950001
			c2.9790001-0.8535004,7.5073013,0.4296999,5.4920998,4.8964996c-2.0155983,4.4687996-6.0897999,9.6835995-6.0897999,9.6835995
			S14.5551996,29.4927006,13.7406998,25.3150005z"/>
		<path style="fill:#420707;" d="M25.1963005,16.4125996c0.5243988,0.8106003,0.9468002,2.2256012-0.0151005,4.3584003
			c-2.0352001,4.5116997-6.0279007,9.6445007-6.1968002,9.8603992l-0.8183994,0.3212013
			C17.9888,30.9234009,13.8125,30.1947994,12.8936005,25.4799995c-0.6509008-3.3398991,2.3851995-9.8223,5.7705002-10.79
			C19.3062,14.5064001,20.0175991,14.4087,20.7201996,14.4087l0,0C22.7129002,14.4087,24.3862,15.1576996,25.1963005,16.4125996z
			 M23.6068993,20.0610008c0.5160999-1.1435013,0.5630016-2.0556011,0.1392002-2.7119007
			c-0.4834003-0.7490005-1.6430988-1.2138004-3.0258999-1.2138004c-0.5443993,0-1.0907993,0.0741997-1.5809994,0.2147999
			c-2.4458008,0.6991997-5.0401001,6.2910004-4.5513,8.7998009c0.5288,2.7099991,2.4657993,3.6660004,3.3778992,3.9706993
			C18.9790001,27.7738991,21.9927006,23.6410999,23.6068993,20.0610008z"/>
	</g>
	<g>
		<path style="fill:#FFB997;" d="M48.9413986,15.6763c0,0,2.2821999,12.6308002-0.1620979,19.6386986
			c-2.4443016,7.0078011-3.1455002,13.5263023-3.4473,15.8081017c-0.3017006,2.2812004-1.0546989,12.9560013-6.3828011,10.2259979
			c-5.3261986-2.7298965-2.6395988-12.6717987-2.4804001-14.4730988c0,0,0.2900009-9.1636009,0.6748009-11.3783989
			c0.3837013-2.214901,1.3690987-10.1826,1.3690987-10.1826"/>
		<path style="fill:#420707;" d="M49.7910004,15.5229998l-1.6991997,0.3066006
			c0.0224991,0.1239996,2.2128983,12.4912004-0.1278992,19.2011986c-2.285202,6.5517006-3.0733032,12.7383003-3.410202,15.3802986
			L44.4766006,51.0098c-0.0245018,0.1805992-0.0508003,0.4121017-0.0820999,0.6850014
			c-0.2246017,1.9506989-0.9062004,7.8871994-3.0722008,9.0463982c-0.5489006,0.2929993-1.1953011,0.2411995-1.9794998-0.160099
			c-4.0107994-2.0562019-2.75-9.2740021-2.2118988-12.355999c0.0985985-0.5649033,0.1737976-1.0044022,0.1982002-1.2728996
			c0.0048981-0.1402016,0.294899-9.1768036,0.6649971-11.3067017c0.3829002-2.2103996,1.3350029-9.8978996,1.375-10.2250996
			l-1.7127991-0.2109013c-0.0098,0.0791016-0.9874001,7.9716988-1.3633003,10.1406021
			c-0.3906975,2.248497-0.6748009,11.122097-0.6875,11.498497c-0.017601,0.1895027-0.0878983,0.578701-0.1748009,1.0791016
			c-0.6044998,3.4575996-2.0175972,11.5537987,3.125,14.1894989c1.3076019,0.6704025,2.5136032,0.7187004,3.5820007,0.1459999
			c2.610302-1.3974991,3.472702-6.0268974,3.9717026-10.3710976c0.0301971-0.2612,0.0555992-0.4829025,0.0780983-0.6557999
			l0.0780983-0.6069031c0.330101-2.588398,1.1035004-8.6488991,3.3291016-15.0303001
			C52.0849991,28.4594994,49.8857002,16.0473995,49.7910004,15.5229998z"/>
	</g>
	<g>
		<path style="fill:#FFB997;" d="M17.4892998,32.1338005c-1.0074005-2.2974014,4.5282993-11.6802006,7.8862-10.0356007
			c3.3589001,1.6464005,4.2964001,4.6152,2.5981007,8.0018997c-1.6093006,3.2069988-1.6797009,6.8521023-1.6797009,6.8521023
			S20.0972004,38.080101,17.4892998,32.1338005z"/>
		<path style="fill:#420707;" d="M25.7553997,21.3227997c1.831501,0.8984013,3.081501,2.2080002,3.6142006,3.7889996
			c0.5445004,1.6162014,0.3285999,3.4745998-0.6245003,5.375c-1.4974995,2.9848995-1.5874004,6.4483013-1.5879002,6.4829006
			L26.4487,37.8013c-0.0561008,0.0102005-0.5683002,0.0996017-1.3574009,0.0996017
			c-1.8085995,0-6.2470989-0.5283012-8.3925991-5.4204025c-0.7147999-1.6303997,0.6889992-4.7465992,2.1084003-6.9194984
			c0.8876991-1.3584003,3.2222004-4.5174999,5.7271004-4.5185013c0.0004997,0,0.0004997,0,0.0004997,0
			C24.9647999,21.0424995,25.3754997,21.1371994,25.7553997,21.3227997z M25.4766006,36.1655006
			c0.1103001-1.2885017,0.4818993-3.9746017,1.7255001-6.4521008c0.7416992-1.4804993,0.9257984-2.8808994,0.5312996-4.049799
			c-0.387701-1.1514015-1.3091011-2.089901-2.7378006-2.7901001c-0.1430988-0.0703011-0.2938995-0.1044006-0.4608994-0.1044006l0,0
			c-1.1187,0-2.7993011,1.4668007-4.2818012,3.7362995c-1.6527996,2.5293007-2.2157993,4.7285004-1.9730988,5.2817001
			c1.6742992,3.8174,4.9862995,4.3872013,6.8114986,4.3872013C25.2313995,36.1743011,25.3603992,36.1708984,25.4766006,36.1655006z"
			/>
	</g>
	<g>
		<path style="fill:#FFB997;" d="M27.3145008,39.0629997c1.7181988,0.8740005,4.6313,2.8642998,6.907198,2.1621017
			c2.7773018-0.8579025,2.8594017-8.3794022,2.8594017-8.3794022s4.3955002-6.5658989-1.4296989-8.0326996
			c-5.8243008-1.4687004-5.8628006,2.1620998-8.2510014,6.4272003
			C25.4624004,34.7011986,25.4965992,38.1391983,27.3145008,39.0629997z"/>
		<path style="fill:#420707;" d="M35.8623009,23.9761009c1.7383003,0.4375,2.8778992,1.3309994,3.3876991,2.6561985
			c0.9530983,2.4794998-0.7831993,5.6093998-1.3105011,6.4707012c-0.0419998,1.7919998-0.4101982,8.0038986-3.4628983,8.9468002
			c-0.3995018,0.1236-0.8311005,0.1856003-1.282299,0.1856003c-1.8969021,0-3.9033012-1.107502-5.3681011-1.9160995
			c-0.3271999-0.180603-0.6303997-0.3481026-0.9029007-0.4868011c-0.7651005-0.3885994-1.3221989-1.096199-1.6107998-2.0453987
			c-0.5653992-1.8608017-0.0669003-4.4658012,1.3344994-6.9682026c0.4653015-0.8310986,0.8359013-1.6318989,1.1942997-2.4062996
			c1.1411018-2.4657993,2.2188015-4.794899,5.4955997-4.794899C34.080101,23.6177006,34.9062996,23.7348995,35.8623009,23.9761009z
			 M33.9668007,40.4003983c1.4980011-0.4628983,2.2178001-4.7020988,2.2509995-7.5644989l0.1455002-0.4696999
			c0.5722008-0.8589001,1.9160004-3.4525986,1.2743988-5.1166992c-0.3008003-0.780201-1.0195007-1.3027-2.1973-1.5995998
			c-0.8046989-0.2031002-1.5126991-0.3056011-2.1035004-0.3056011c-2.0853996,0-2.7113991,1.1630001-3.9286995,3.7929001
			c-0.3549995,0.7665997-0.7567997,1.6358013-1.2544003,2.5249004c-1.1591988,2.0693989-1.6146984,4.2241001-1.1893997,5.6230984
			c0.1508007,0.4956017,0.3999004,0.8348999,0.7417011,1.0083008c0.2880001,0.1464996,0.608799,0.3237,0.9545002,0.5140991
			c1.3002987,0.7183037,3.0816002,1.7017021,4.5337009,1.7017021
			C33.4735985,40.5093002,33.7333984,40.4726982,33.9668007,40.4003983z"/>
	</g>
	<path style="fill:#E79774;" d="M36.8730011,35.5376015c0,0-5.4370003-5.830101-9.166502-4.8691006
		c0,0-3.9940987-4.7393017-7.5282993-5.5557003c0,0,4.2157993-4.6963005-0.2010994-9.8408003
		c0,0-1.1655998-1.5420008-0.5396004-4.1719007c0,0,14.8339996,0.8018007,15.8525009,3.4746008
		C35.2900009,14.5747004,39.2695007,24.6117992,36.8730011,35.5376015z"/>
	<path style="fill:#E79774;" d="M36.9990005,42.6293983c0,0,1.1436005-5.3505974,3.4776001-5.5917969
		c0,0,7.0546989-4.7856026,8.527298-2.4302025v-6.1830997c0,0-4.0946999,5.7255993-11.4638977,2.4815006
		C37.5400009,30.9057999,37.4608994,40.3067017,36.9990005,42.6293983z"/>
	<path style="fill:#420707;" d="M49.7910004,15.5229998l-1.6991997,0.3066006
		c0.0224991,0.1239996,2.2128983,12.4912004-0.1278992,19.2011986c-2.285202,6.5517006-3.0733032,12.7383003-3.410202,15.3802986
		L44.4766006,51.0098c-0.0245018,0.1805992-0.0508003,0.4121017-0.0820999,0.6850014
		c-0.2246017,1.9506989-0.9062004,7.8871994-3.0722008,9.0463982c-0.5489006,0.2929993-1.1953011,0.2411995-1.9794998-0.160099
		c-4.0107994-2.0562019-2.75-9.2740021-2.2118988-12.355999c0.0985985-0.5649033,0.1737976-1.0044022,0.1982002-1.2728996
		c0.0048981-0.1402016,0.294899-9.1768036,0.6649971-11.3067017c0.3829002-2.2103996,1.3350029-9.8978996,1.375-10.2250996
		l-1.7127991-0.2109013c-0.0098,0.0791016-0.9874001,7.9716988-1.3633003,10.1406021
		c-0.3906975,2.248497-0.6748009,11.122097-0.6875,11.498497c-0.017601,0.1895027-0.0878983,0.578701-0.1748009,1.0791016
		c-0.6044998,3.4575996-2.0175972,11.5537987,3.125,14.1894989c1.3076019,0.6704025,2.5136032,0.7187004,3.5820007,0.1459999
		c2.610302-1.3974991,3.472702-6.0268974,3.9717026-10.3710976c0.0301971-0.2612,0.0555992-0.4829025,0.0780983-0.6557999
		l0.0780983-0.6069031c0.330101-2.588398,1.1035004-8.6488991,3.3291016-15.0303001
		C52.0849991,28.4594994,49.8857002,16.0473995,49.7910004,15.5229998z"/>
	<path style="fill:#420707;" d="M25.1963005,16.4125996c0.5243988,0.8106003,0.9468002,2.2256012-0.0151005,4.3584003
		c-0.0473995,0.1054993-0.0962009,0.2108994-0.1455994,0.3164005c0.25,0.044899,0.490799,0.1231003,0.719799,0.2353992
		c1.831501,0.8984013,3.081501,2.2080002,3.6142006,3.7889996c0.5445004,1.6162014,0.3285999,3.4745998-0.6245003,5.375
		c-1.5165997,3.0230007-1.9335995,6.8603992-1.9379997,6.8990002l-0.7436008,0.7656021
		c-0.0014992,0.0014-6.4843998,0.8973999-9.3647995-5.6709023c-0.2255993-0.5136986-0.2509003-1.2031002-0.0771008-2.0562
		c-1.2734995-0.6201-3.1567993-2.0116997-3.7279987-4.9442997c-0.6509008-3.3398991,2.3851995-9.8223,5.7705002-10.79
		c0.6424999-0.1835995,1.3534985-0.2812996,2.0560989-0.2812996C22.7129002,14.4087,24.3862,15.1576996,25.1963005,16.4125996z
		 M27.2021008,29.7133999c0.7416992-1.4804993,0.9257984-2.8808994,0.5312996-4.049799
		c-0.387701-1.1514015-1.3091011-2.089901-2.7378006-2.7901001c-0.1395988-0.0683002-0.2875996-0.1015015-0.4520988-0.1015015l0,0
		c-0.200201,0-0.4263,0.0488014-0.6719017,0.1465015l-1.0800991-1.2090015
		c0.2954006-0.5527,0.5713005-1.1064987,0.8153992-1.6484985c0.5160999-1.1435013,0.5630016-2.0556011,0.1392002-2.7119007
		c-0.4834003-0.7490005-1.6430988-1.2138004-3.0258999-1.2138004c-0.5443993,0-1.0907993,0.0741997-1.5809994,0.2147999
		c-2.4458008,0.6991997-5.0401001,6.2910004-4.5513,8.7998009c0.5078001,2.6054993,2.3090992,3.5937996,3.3374004,3.9512005
		l0.5429993,1.0663986C18.1107998,31.3446999,18.2612,31.7451,18.2798004,31.7870998
		c1.8207989,4.1508999,5.3783989,4.6630993,6.908699,4.6792011C25.3910999,35.1264992,25.9447994,32.2178001,27.2021008,29.7133999z
		"/>
	<path style="fill:#420707;" d="M35.8623009,23.9761009c1.7383003,0.4375,2.8778992,1.3309994,3.3876991,2.6561985
		c0.9530983,2.4794998-0.7831993,5.6093998-1.3105011,6.4707012c-0.0419998,1.7919998-0.4101982,8.0038986-3.4628983,8.9468002
		c-0.3995018,0.1236-0.8311005,0.1856003-1.282299,0.1856003c-1.8969021,0-3.9033012-1.107502-5.3681011-1.9160995
		c-0.3271999-0.180603-0.6303997-0.3481026-0.9029007-0.4868011c-0.7651005-0.3885994-1.3221989-1.096199-1.6107998-2.0453987
		c-0.5653992-1.8608017-0.0669003-4.4658012,1.3344994-6.9682026c0.4653015-0.8310986,0.8359013-1.6318989,1.1942997-2.4062996
		c1.1411018-2.4657993,2.2188015-4.794899,5.4955997-4.794899C34.080101,23.6177006,34.9062996,23.7348995,35.8623009,23.9761009z
		 M33.9668007,40.4003983c1.4980011-0.4628983,2.2178001-4.7020988,2.2509995-7.5644989l0.1455002-0.4696999
		c0.5722008-0.8589001,1.9160004-3.4525986,1.2743988-5.1166992c-0.3008003-0.780201-1.0195007-1.3027-2.1973-1.5995998
		c-0.8046989-0.2031002-1.5126991-0.3056011-2.1035004-0.3056011c-2.0853996,0-2.7113991,1.1630001-3.9286995,3.7929001
		c-0.3549995,0.7665997-0.7567997,1.6358013-1.2544003,2.5249004c-1.1591988,2.0693989-1.6146984,4.2241001-1.1893997,5.6230984
		c0.1508007,0.4956017,0.3999004,0.8348999,0.7417011,1.0083008c0.2880001,0.1464996,0.608799,0.3237,0.9545002,0.5140991
		c1.3002987,0.7183037,3.0816002,1.7017021,4.5337009,1.7017021C33.4735985,40.5093002,33.7333984,40.4726982,33.9668007,40.4003983
		z"/>
	<g>
		<path style="fill:#FFB997;" d="M44.5136986,4.2504902c0,0,5.3866997,3.7616997,5.7324028,12.1172104
			c0.3456993,8.3535004-0.3106003,12.2656002-3.9043007,15.851099c-3.5928001,3.5848999-11.4150009-3.4487991-13.3706017-4.0874004
			c-1.9555988-0.6386986-8.8075981-4.3554993-9.2533989-5.4257984c-0.4463005-1.0703011,2.1616001-7.6582003,11.4921989-4.4512005
			c0,0,3.3095016-0.0508003,4.6093025,2.0664005c0,0-4.8143997-2.1172009-4.6093025-7.1699009"/>
		<path style="fill:#420707;" d="M45.0078011,3.54249l-0.9883003,1.4159999l0.4941978-0.7079997l-0.4960976,0.7061
			c0.0498009,0.0360999,5.0438995,3.6532998,5.3661995,11.4472084C49.7402,25.0160999,48.9208984,28.4263,45.732399,31.6074009
			c-2.214798,2.2079983-7.0399971-0.9360008-9.9237976-2.8149014c-1.1494026-0.7481003-1.9794998-1.2890987-2.5693016-1.4814987
			c-1.9267998-0.6298008-7.9151001-3.9482002-8.7070999-4.9277c0.0064011-0.3672009,0.3726006-1.6562004,1.6905003-2.7412014
			c1.3924999-1.1464996,4.0321999-2.1786995,8.7069988-0.5712986l0.2938995,0.0468998
			c-0.0067978,0.0077991,0.8125-0.0039005,1.7168007,0.2440987c1.2187996,1.1573009,2.4277992,1.7041016,2.5312996,1.7491016
			l1.0830002-1.2413006c-0.6562996-1.0692997-1.6991997-1.6777-2.6913986-2.0244007
			c-0.9776001-1.0282993-1.8759995-2.5555992-1.7910004-4.6591997l-1.7246017-0.0703001
			c-0.0703964,1.7286005,0.3740005,3.1436005,1.0273018,4.277401c-0.0059013,0-0.0116997,0-0.017601,0
			c-6.2504997-2.1026011-9.5116997,0.0604992-10.9047985,1.5458984c-1.2578011,1.3418007-1.9306011,3.1416016-1.5317001,4.0986004
			c0.6732998,1.6161995,8.2686005,5.4199009,9.782198,5.9141006c0.3740005,0.1229992,1.2432022,0.6884003,2.1631012,1.2870998
			c3.3232994,2.1636009,8.8866997,5.785099,12.0849991,2.591301c3.9775009-3.9683018,4.4970016-8.2964001,4.1571999-16.4985008
			C50.7490005,7.64889,45.2421989,3.7065899,45.0078011,3.54249z"/>
	</g>
	<path style="fill:#420707;" d="M23.1366997,21.3598995c-0.1879997,0.1035004-4.6299,2.6014996-6.3221989,8.3115005
		l1.6551991,0.4902c1.4839001-5.0058002,5.4610004-7.2674999,5.5009995-7.2889996L23.1366997,21.3598995z"/>
	<path style="fill:#E79774;" d="M28.4468002,17.6215992c0,0,11.1977005,3.1211014,12.3637009,5.0644016l2.1904984-0.780201
		c0,0-1.5-2.0156994-6.6786995-6.2294998l0.9882011,2.7861004C37.3105011,18.4624004,29.6138,14.8999004,28.4468002,17.6215992z"/>
	<path style="fill:#420707;" d="M44.3535004,3.2777901l-0.9589996,1.4365997
		c0.0566978,0.0380001,5.6669998,3.9004002,5.9892998,11.6894093C49.7402,25.0160999,48.9208984,28.4263,45.732399,31.6074009
		c-2.214798,2.2079983-7.0399971-0.9360008-9.9237976-2.8149014c-1.1494026-0.7481003-1.9794998-1.2890987-2.5693016-1.4814987
		c-1.9267998-0.6298008-7.9151001-3.9482002-8.7070999-4.9277c0.0064011-0.3672009,0.3726006-1.6562004,1.6905003-2.7412014
		c1.3924999-1.1464996,4.0321999-2.1786995,8.7069988-0.5712986l0.2938995,0.0468998
		c-0.0067978,0.0077991,0.8125-0.0039005,1.7168007,0.2440987c1.2187996,1.1573009,2.4277992,1.7041016,2.5312996,1.7491016
		l1.0830002-1.2413006c-0.6562996-1.0692997-1.6991997-1.6777-2.6913986-2.0244007
		c-0.9776001-1.0282993-1.8759995-2.5555992-1.7910004-4.6591997l-1.7246017-0.0703001
		c-0.0703964,1.7286005,0.3740005,3.1436005,1.0273018,4.277401c-0.0059013,0-0.0116997,0-0.017601,0
		c-6.2504997-2.1026011-9.5116997,0.0604992-10.9047985,1.5458984c-1.2578011,1.3418007-1.9306011,3.1416016-1.5317001,4.0986004
		c0.6732998,1.6161995,8.2686005,5.4199009,9.782198,5.9141006c0.3740005,0.1229992,1.2432022,0.6884003,2.1631012,1.2870998
		c3.3232994,2.1636009,8.8866997,5.785099,12.0849991,2.5908012c3.9775009-3.967802,4.4970016-8.2959003,4.1571999-16.4980011
		C50.7490005,7.6371899,44.6142998,3.45259,44.3535004,3.2777901z"/>
	<path style="fill:#E79774;" d="M47.8096008,10.3794003C44.2266006-0.45461,32.644001,3.9965899,30.4775009,3.8559899
		c-6.5-1.1454999-8.4170017,1.5233998-8.4170017,1.5233998s5.4170017-1.1288996,8.6670017-0.5
		C39.6016006,2.9154899,47.8096008,10.3794003,47.8096008,10.3794003z"/>
</g>
<g>
</g>
<g>
</g>
<g>
</g>
<g>
</g>
<g>
</g>
<g>
</g>
</svg>
