<?xml version="1.0" encoding="UTF-8"?>
<!-- Generated by phantom_svg. -->
<svg width="64px" height="64px" viewBox="0 0 64 64" preserveAspectRatio="none" xmlns="http://www.w3.org/2000/svg" xmlns:xlink="http://www.w3.org/1999/xlink" version="1.1">
  <path style="fill:#3E3A39;" d="M34.9492188,63c-11.7133789,0-12.0136719-5.6152344-12.2543945-10.1259766
	c-0.1166992-2.1767578-0.2172852-4.0625-1.4262695-5.2587891c-1.3496094,0.1279297-2.7939453,0.1923828-4.3007813,0.1923828
	c-7,0-15.7114258,0-15.7114258-5.5576172c0-3.9228516,2.4716797-5.7158203,4.8618164-7.4501953
	c1.8388672-1.3349609,3.7402344-2.7143555,5.0649414-5.1772461c1.4414063-2.6782227,2.2963867-4.2680664,3.2836914-5.2304688
	C16.4067383,8.315918,22.3598633,1.75,34.9492188,1.75c17.3339844,0,20.5878906,9.4838867,23.2021484,17.1040039
	c0.2089844,0.6083984,0.4140625,1.206543,0.6230469,1.7895508C63.7373047,34.4804688,63.7373047,37.5712891,63.7373047,42.25
	C63.7373047,52.0644531,51.9140625,63,34.9492188,63z M21.9975586,45.5273438l0.5537109,0.546875
	c1.8759766,1.7431641,2.0102539,4.2597656,2.140625,6.6923828C24.9277344,57.1845703,25.1318359,61,34.9492188,61
	c15.3320313,0,26.7880859-9.8994141,26.7880859-18.75c0-4.4697266,0-7.421875-4.8457031-20.9316406
	c-0.2119141-0.5913086-0.4199219-1.1982422-0.6318359-1.8149414C53.7265625,12.1191406,50.8554688,3.75,34.9492188,3.75
	c-11.5717773,0-16.7700195,5.9575195-18.5405273,21.2490234l-0.0463867,0.402832l-0.3139648,0.2563477
	c-0.8227539,0.671875-1.6811523,2.2680664-3.1035156,4.9116211c-1.5419922,2.8657227-3.7255859,4.4506836-5.6523438,5.8481445
	C4.9492188,38.1191406,3.2563477,39.3476563,3.2563477,42.25c0,3.5576172,7.9248047,3.5576172,13.7114258,3.5576172
	c1.6147461,0,3.1503906-0.0771484,4.5639648-0.2294922L21.9975586,45.5273438z"/>
  <radialGradient id="SVGID_1_" cx="33.324192" cy="22.625" r="42.0537796" gradientUnits="userSpaceOnUse">
    <stop offset='0.5265487' style='stop-color:#FFFFFF'/>
    <stop offset='1' style='stop-color:#D9B98B'/>
  </radialGradient>
  <path style="fill:url(#SVGID_1_);" d="M34.948719,2.75c17.9807663,0,20.1009636,10.4692993,22.884613,18.2307701
	C62.7371788,34.6538467,62.7371788,37.6923065,62.7371788,42.25c0,9.1153831-11.4423065,19.75-27.7884598,19.75
	s-8.4535332-10.8952751-13.0769234-15.1923065C16.9679489,42.25,14.4574347,33.6791687,15.333333,25.5384617
	C16.9679489,10.3461542,21.8717957,2.75,34.948719,2.75z"/>
  <radialGradient id="SVGID_2_" cx="15.4775639" cy="30.6634617" r="14.0894508" gradientTransform="matrix(0.8658794 0.5002529 -1.1417177 1.97618 37.084877 -37.6757507)" gradientUnits="userSpaceOnUse">
    <stop offset='0.4508043' style='stop-color:#F8EB00'/>
    <stop offset='1' style='stop-color:#F5B32C'/>
  </radialGradient>
  <path style="fill:url(#SVGID_2_);" d="M20.2371788,24.0192299c6.5384617,0,6.5384617,0,9.8076935,6.0769234
	s4.9038467,3.0384636,4.9038467,6.0769234c0,1.5192299,0,10.6346169-17.9807701,10.6346169
	c-6.5384617,0-14.7115383,0-14.7115383-4.5576935c0-6.0769234,6.5384607-6.0769234,9.8076916-12.1538467
	S15.333333,24.0192299,20.2371788,24.0192299z"/>
  <ellipse transform="matrix(0.7322221 0.6810659 -0.6810659 0.7322221 27.5297985 -8.5035334)" style="fill:#804F21;" cx="24.5788383" cy="30.7578621" rx="0.5218621" ry="1.625"/>
  <ellipse style="fill:#231815;" cx="41.375" cy="19.5" rx="3.125" ry="3.75"/>
  <linearGradient id="SVGID_3_" gradientUnits="userSpaceOnUse" x1="40.5127487" y1="16.6645832" x2="40.5127487" y2="19.0812492">
    <stop offset='0' style='stop-color:#FFFFFF'/>
    <stop offset='1' style='stop-color:#FFFFFF;stop-opacity:0.3'/>
  </linearGradient>
  <ellipse style="fill:url(#SVGID_3_);" cx="40.5127487" cy="17.8729172" rx="1.2176237" ry="1.2083334"/>
  <g>
  </g>
  <g>
  </g>
  <g>
  </g>
  <g>
  </g>
  <g>
  </g>
  <g>
  </g>
</svg>