<?xml version="1.0" encoding="utf-8"?>
<!-- Generator: Adobe Illustrator 15.0.2, SVG Export Plug-In . SVG Version: 6.00 Build 0)  -->
<!DOCTYPE svg PUBLIC "-//W3C//DTD SVG 1.1//EN" "http://www.w3.org/Graphics/SVG/1.1/DTD/svg11.dtd">
<svg version="1.1" id="レイヤー_1" xmlns="http://www.w3.org/2000/svg" xmlns:xlink="http://www.w3.org/1999/xlink" x="0px"
	 y="0px" width="64px" height="64px" viewBox="0 0 64 64" enable-background="new 0 0 64 64" xml:space="preserve">
<g>
	<g>
		<linearGradient id="SVGID_1_" gradientUnits="userSpaceOnUse" x1="32.0649" y1="32.7925" x2="32.0649" y2="74.6071">
			<stop  offset="0" style="stop-color:#FFFFFF"/>
			<stop  offset="1" style="stop-color:#929292"/>
		</linearGradient>
		<rect x="3.273" y="13.458" fill="url(#SVGID_1_)" stroke="#D2D5D6" stroke-miterlimit="1" width="57.584" height="37.084"/>
		<linearGradient id="SVGID_2_" gradientUnits="userSpaceOnUse" x1="30.7871" y1="44.6211" x2="36.1203" y2="70.2878">
			<stop  offset="0" style="stop-color:#FFFFFF"/>
			<stop  offset="1" style="stop-color:#929292"/>
		</linearGradient>
		<polygon fill="url(#SVGID_2_)" stroke="#D1DEE0" stroke-miterlimit="1" points="60.822,50.375 31.982,21.291 3.143,50.375 		"/>
		<linearGradient id="SVGID_3_" gradientUnits="userSpaceOnUse" x1="35.0557" y1="18.4517" x2="47.7227" y2="39.0356">
			<stop  offset="0" style="stop-color:#FFFFFF"/>
			<stop  offset="1" style="stop-color:#929292"/>
		</linearGradient>
		<polygon fill="url(#SVGID_3_)" stroke="#D1DEE0" stroke-miterlimit="1" points="60.822,13.458 31.982,37.646 3.143,13.458 		"/>
		<rect x="3.273" y="13.458" fill="none" stroke="#717071" stroke-miterlimit="1" width="57.584" height="37.084"/>
	</g>
	<g>
		<linearGradient id="SVGID_4_" gradientUnits="userSpaceOnUse" x1="41.2285" y1="57.5723" x2="27.3951" y2="19.2393">
			<stop  offset="0" style="stop-color:#9FD7FF"/>
			<stop  offset="1" style="stop-color:#007AFF"/>
		</linearGradient>
		<path fill="url(#SVGID_4_)" d="M39.115,25.006h-7.738v4.177h7.335v5.504h-7.335v4.306h7.738v5.505h-14.23V19.502h14.23V25.006z"/>
	</g>
	<g opacity="0.83">
		<linearGradient id="SVGID_5_" gradientUnits="userSpaceOnUse" x1="28.0391" y1="23.7671" x2="39.7823" y2="48.1751">
			<stop  offset="0" style="stop-color:#9FD7FF"/>
			<stop  offset="1" style="stop-color:#007AFF"/>
		</linearGradient>
		<path fill="url(#SVGID_5_)" d="M39.115,25.006h-7.738v4.177h7.335v5.505h-7.335v4.305h7.738v5.506h-14.23V19.502h14.23V25.006z"/>
	</g>
</g>
</svg>
