<?xml version="1.0" encoding="utf-8"?>
<!-- Generator: Adobe Illustrator 15.0.2, SVG Export Plug-In . SVG Version: 6.00 Build 0)  -->
<!DOCTYPE svg PUBLIC "-//W3C//DTD SVG 1.1//EN" "http://www.w3.org/Graphics/SVG/1.1/DTD/svg11.dtd">
<svg version="1.1" id="レイヤー_1" xmlns="http://www.w3.org/2000/svg" xmlns:xlink="http://www.w3.org/1999/xlink" x="0px"
	 y="0px" width="64px" height="64px" viewBox="0 0 64 64" enable-background="new 0 0 64 64" xml:space="preserve">
<g>
	<path fill="#FFC98F" stroke="#210601" stroke-width="2" stroke-miterlimit="10" d="M15.003,19.17c0,0,0.166-10.667,11.5-13.167
		c11.333-2.5,19.833,7.667,22.167,17.167c2.333,9.5-8.499,15.499-11.833,24.667c-3.334,9.166-7.167,10-10.833,10.5
		c-3.667,0.5-10-3.334-9.333-10.168"/>
	<path fill="#E09563" d="M19.586,20.338c0,0,2.716-0.795,5.166-0.082c3.045,0.887,5.678,4.106,2.167,14.081
		c0,0-0.658-5.166-2.829-5.999S19.919,28.838,19.586,20.338z"/>
	<path fill="#E09563" d="M22.933,14.812c0,0,11.142-5.25,20.522,9.471C43.455,24.283,36.195,4.453,22.933,14.812z"/>
	<path fill="#E09563" d="M41.378,32c0,0-9.525,15.837-12.784,16.837c0,0,13.98-21.273,14.861-24.553S41.378,32,41.378,32z"/>
	<path fill="#E09563" d="M35.627,29.737c-0.784-3.823-7.15-10.864-12.741-9.015s3.738,4.405,6.24,6.21s4.173,2.476,4.828,3.649
		C34.881,32.244,36.954,36.207,35.627,29.737z"/>
	<path fill="#E09563" d="M34.502,14.337c0,0-10.5,2.5-12.666,1.833C21.836,16.17,27,8.907,34.502,14.337z"/>
	<path fill="none" stroke="#72402D" stroke-width="1.5" stroke-miterlimit="10" d="M20.836,42.17c0,0,7-1.833,6.333-8.333
		c-0.667-6.5-4.667-4.333-5.5-6s-4.333-5.334,0.167-11.667s11-5.333,15.5-1.833c4.5,3.5,10.166,11.5,2.166,20"/>
</g>
</svg>
