<?xml version="1.0" encoding="UTF-8" standalone="no"?>
<!-- Generator: Adobe Illustrator 18.0.0, SVG Export Plug-In . SVG Version: 6.00 Build 0)  -->

<svg
   xmlns:dc="http://purl.org/dc/elements/1.1/"
   xmlns:cc="http://creativecommons.org/ns#"
   xmlns:rdf="http://www.w3.org/1999/02/22-rdf-syntax-ns#"
   xmlns:svg="http://www.w3.org/2000/svg"
   xmlns="http://www.w3.org/2000/svg"
   xmlns:sodipodi="http://sodipodi.sourceforge.net/DTD/sodipodi-0.dtd"
   xmlns:inkscape="http://www.inkscape.org/namespaces/inkscape"
   version="1.1"
   id="レイヤー_1"
   x="0px"
   y="0px"
   width="64px"
   height="64px"
   viewBox="0 0 64 64"
   style="enable-background:new 0 0 64 64;"
   xml:space="preserve"
   inkscape:version="0.48.5 r10040"
   sodipodi:docname="ear_of_rice.svg"><metadata
     id="metadata258"><rdf:RDF><cc:Work
         rdf:about=""><dc:format>image/svg+xml</dc:format><dc:type
           rdf:resource="http://purl.org/dc/dcmitype/StillImage" /></cc:Work></rdf:RDF></metadata><defs
     id="defs256" /><sodipodi:namedview
     pagecolor="#ffffff"
     bordercolor="#666666"
     borderopacity="1"
     objecttolerance="10"
     gridtolerance="10"
     guidetolerance="10"
     inkscape:pageopacity="0"
     inkscape:pageshadow="2"
     inkscape:window-width="640"
     inkscape:window-height="480"
     id="namedview254" /><g
     id="g3"><path
       style="fill:#F7D66D;"
       d="M24.3593998,63.267601h-0.418499c0,0-8.0297709-26.1338005-7.0751801-36.3223038   c1.0742188-11.4589691,8.7465801-14.5883656,13.2240791-15.4340687c5.727602-1.0844707,13.3360004,2.26367,16.162199,9.7338886   c0.0858994,0.2265606-0.0284004,0.4794903-0.2548981,0.5654316c-0.2237015,0.0854492-0.4794998-0.0278416-0.5655022-0.2548904   c-2.6629982-7.0395498-9.8085976-10.1997032-15.1786995-9.1831017   c-5.1737995,0.9770517-11.5448895,4.3129921-12.5141296,14.6547413c-0.9384804,10.0137005,7.0780296,36.240303,7.0780296,36.240303   h-0.3260994H24.3593998z"
       id="path5" /><path
       style="fill:#F7D66D;"
       d="M17.3330097,27.7837009c-0.0625,0-0.1259804-0.012701-0.1865292-0.0405006   c-0.2260704-0.1030998-0.32617-0.3702011-0.2231407-0.5962009c0.1362305-0.2988987,3.407711-7.3359585,10.0727596-9.1040287   c4.0820007-1.0820313,8.5107021,0.0722599,13.1670017,3.4316387c0.2011986,0.1455097,0.247097,0.4272499,0.1014977,0.628891   c-0.1464005,0.2017002-0.4277,0.2455997-0.6288986,0.1015987c-4.4238014-3.1919193-8.5965996-4.2988491-12.4027996-3.2924995   c-6.2509708,1.6542912-9.4580002,8.5386009-9.4897404,8.6079006   C17.6674805,27.6860008,17.5043907,27.7837009,17.3330097,27.7837009z"
       id="path7" /><path
       style="fill:#F7D66D;"
       d="M17.46875,26.3110008c-0.0180702,0-0.0361309-0.0014-0.0546894-0.0034008   c-0.2465801-0.0298004-0.4228497-0.2544003-0.3930607-0.5014c0.0268497-0.2168007,2.8125-21.7202606,23.0679016-20.7183094   c0.2479973,0.0122099,0.4393997,0.2231498,0.4277,0.4716797c-0.0116997,0.2480502-0.1807022,0.4458003-0.472702,0.4277301   C20.6923809,5.0551801,17.9404297,25.7050991,17.9155293,25.9146004   C17.8876991,26.1431007,17.6933594,26.3110008,17.46875,26.3110008z"
       id="path9" /><ellipse
       transform="matrix(0.937602 0.3477103 -0.3477103 0.937602 8.7762403 -5.6503673)"
       style="fill:#FCC947;"
       cx="20.1313457"
       cy="21.6274452"
       rx="0.8467825"
       ry="1.633761"
       id="ellipse11" /><ellipse
       transform="matrix(0.9160364 0.4010951 -0.4010951 0.9160364 10.0073528 -7.4160905)"
       style="fill:#FCC947;"
       cx="22.7170544"
       cy="20.1945801"
       rx="0.8515437"
       ry="1.6424565"
       id="ellipse13" /><ellipse
       transform="matrix(0.8534223 0.5212201 -0.5212201 0.8534223 13.8676224 -10.0789032)"
       style="fill:#FCC947;"
       cx="24.8537502"
       cy="19.6166992"
       rx="0.8356355"
       ry="1.611414"
       id="ellipse15" /><ellipse
       transform="matrix(0.7727011 0.63477 -0.63477 0.7727011 18.2201862 -12.8057575)"
       style="fill:#FCC947;"
       cx="26.9911995"
       cy="19.0385742"
       rx="0.8353813"
       ry="1.6116564"
       id="ellipse17" /><ellipse
       transform="matrix(0.6801059 0.7331139 -0.7331139 0.6801059 23.0034962 -15.4797306)"
       style="fill:#FCC947;"
       cx="29.2395"
       cy="18.6191406"
       rx="0.851191"
       ry="1.6426643"
       id="ellipse19" /><ellipse
       transform="matrix(0.4620124 0.8868735 -0.8868735 0.4620124 33.6278114 -17.7040691)"
       style="fill:#FCC947;"
       cx="31.4064999"
       cy="18.8657188"
       rx="0.7878576"
       ry="1.5209476"
       id="ellipse21" /><ellipse
       transform="matrix(0.1902121 0.981743 -0.981743 0.1902121 46.3299408 -17.30023)"
       style="fill:#FCC947;"
       cx="33.6519012"
       cy="19.4338417"
       rx="0.7880678"
       ry="1.519775"
       id="ellipse23" /><path
       style="fill:#FCC947;"
       d="M36.0019989,21.2377892c-0.9053001-0.067379-1.6103973-0.5024395-1.5751991-0.9721584   c0.0360985-0.4672909,0.7988014-0.79249,1.7031021-0.7255917c0.9052963,0.0683613,1.6093979,0.5029316,1.572197,0.9726601   C37.669899,20.9819298,36.9071999,21.3071308,36.0019989,21.2377892z"
       id="path25" /><path
       style="fill:#FCC947;"
       d="M38.5475998,20.7886009c-0.8702011-0.1255016-1.5264015-0.5937805-1.4609985-1.0483704   c0.0663986-0.4501915,0.8280983-0.7153301,1.7011986-0.5903301c0.8721008,0.1284199,1.5264015,0.5952187,1.4608994,1.0493202   C40.1833,20.6522999,39.4225998,20.9169998,38.5475998,20.7886009z"
       id="path27" /><ellipse
       transform="matrix(-0.6411912 0.7673811 -0.7673811 -0.6411912 82.9029694 5.1233888)"
       style="fill:#FCC947;"
       cx="40.2537003"
       cy="21.9434013"
       rx="0.8201922"
       ry="1.5819341"
       id="ellipse29" /><ellipse
       transform="matrix(-0.9192918 0.3935766 -0.3935766 -0.9192918 83.6738281 27.9763603)"
       style="fill:#FCC947;"
       cx="38.9684486"
       cy="22.5674019"
       rx="0.8275391"
       ry="1.599399"
       id="ellipse31" /><ellipse
       transform="matrix(-0.579585 0.8149118 -0.8149118 -0.579585 75.9438858 4.5333872)"
       style="fill:#FCC947;"
       cx="36.8025513"
       cy="21.856514"
       rx="0.8517302"
       ry="1.6425713"
       id="ellipse33" /><ellipse
       transform="matrix(0.0343104 -0.9994112 0.9994112 0.0343104 -0.6154859 44.3226547)"
       style="fill:#FCC947;"
       cx="22.6274509"
       cy="22.4798164"
       rx="0.8466835"
       ry="1.6354814"
       id="ellipse35" /><ellipse
       transform="matrix(-0.2876227 -0.9577438 0.9577438 -0.2876227 3.497437 51.5350227)"
       style="fill:#FCC947;"
       cx="20.9147949"
       cy="24.4668007"
       rx="0.8513759"
       ry="1.6416526"
       id="ellipse37" /><path
       style="fill:#FCC947;"
       d="M24.4470005,20.7553692c0.8764-0.13867,1.6483994,0.1176815,1.7216988,0.5742302   c0.0708008,0.455101-0.5839996,0.9370003-1.4623985,1.0771008c-0.8804016,0.1392002-1.6485004-0.1186008-1.7222004-0.5746994   C22.9113007,21.3759995,23.5660992,20.8940392,24.4470005,20.7553692z"
       id="path39" /><ellipse
       transform="matrix(0.5546864 -0.8320595 0.8320595 0.5546864 -5.5849805 31.5129337)"
       style="fill:#FCC947;"
       cx="26.6481495"
       cy="20.9741783"
       rx="0.8353369"
       ry="1.6119452"
       id="ellipse41" /><ellipse
       transform="matrix(0.5944517 -0.8041313 0.8041313 0.5944517 -4.7691574 31.0206699)"
       style="fill:#FCC947;"
       cx="28.3696995"
       cy="20.2385368"
       rx="0.8510364"
       ry="1.6430993"
       id="ellipse43" /><ellipse
       transform="matrix(0.8193659 -0.5732709 0.5732709 0.8193659 -6.0574861 20.9064674)"
       style="fill:#FCC947;"
       cx="30.1462498"
       cy="20.0654297"
       rx="0.7887197"
       ry="1.5211871"
       id="ellipse45" /><ellipse
       transform="matrix(-0.7134255 0.700731 -0.700731 -0.7134255 68.9696579 12.2148819)"
       style="fill:#FCC947;"
       cx="31.9871006"
       cy="20.2105293"
       rx="0.7877487"
       ry="1.5200876"
       id="ellipse47" /><ellipse
       transform="matrix(0.7908182 -0.6120511 0.6120511 0.7908182 -5.6382856 25.3386135)"
       style="fill:#FCC947;"
       cx="34.250351"
       cy="20.9179192"
       rx="0.8508276"
       ry="1.6420789"
       id="ellipse49" /><ellipse
       transform="matrix(0.937637 0.347616 -0.347616 0.937637 8.1832819 -6.1054201)"
       style="fill:#FCC947;"
       cx="21.1076698"
       cy="19.7543945"
       rx="0.8470122"
       ry="1.6342776"
       id="ellipse51" /><ellipse
       transform="matrix(0.9159785 0.4012274 -0.4012274 0.9159785 9.32055 -7.6904902)"
       style="fill:#FCC947;"
       cx="23.0224495"
       cy="18.4089355"
       rx="0.8512754"
       ry="1.6419208"
       id="ellipse53" /><ellipse
       transform="matrix(0.8532132 0.5215623 -0.5215623 0.8532132 12.9929171 -10.5047636)"
       style="fill:#FCC947;"
       cx="25.1592007"
       cy="17.8308105"
       rx="0.8355473"
       ry="1.6117489"
       id="ellipse55" /><ellipse
       transform="matrix(0.7731093 0.6342729 -0.6342729 0.7731093 17.1361141 -13.3991041)"
       style="fill:#FCC947;"
       cx="27.2966499"
       cy="17.2524452"
       rx="0.8352636"
       ry="1.6115526"
       id="ellipse57" /><ellipse
       transform="matrix(0.6797844 0.733412 -0.733412 0.6797844 21.8067074 -16.2784195)"
       style="fill:#FCC947;"
       cx="29.5451508"
       cy="16.8334961"
       rx="0.85152"
       ry="1.6426637"
       id="ellipse59" /><ellipse
       transform="matrix(0.4622565 0.8867463 -0.8867463 0.4622565 32.1982918 -18.9362373)"
       style="fill:#FCC947;"
       cx="31.7122002"
       cy="17.0795898"
       rx="0.7885232"
       ry="1.5213907"
       id="ellipse61" /><ellipse
       transform="matrix(0.3636639 0.9315302 -0.9315302 0.3636639 38.0482063 -20.4022579)"
       style="fill:#FCC947;"
       cx="33.9575005"
       cy="17.6481895"
       rx="0.7880903"
       ry="1.520681"
       id="ellipse63" /><ellipse
       transform="matrix(-0.0768371 0.9970437 -0.9970437 -0.0768371 57.7142677 -16.2306194)"
       style="fill:#FCC947;"
       cx="36.3711014"
       cy="18.6035156"
       rx="0.8511513"
       ry="1.6423159"
       id="ellipse65" /><ellipse
       transform="matrix(0.9903386 -0.1386707 0.1386707 0.9903386 -1.708335 3.1705623)"
       style="fill:#FFE66C;"
       cx="21.8993549"
       cy="13.8451385"
       rx="0.8468266"
       ry="1.6338705"
       id="ellipse67" /><ellipse
       transform="matrix(0.9967039 -0.081126 0.081126 0.9967039 -0.8438892 1.9435732)"
       style="fill:#FFE66C;"
       cx="23.4960499"
       cy="11.3568535"
       rx="0.8516572"
       ry="1.6425239"
       id="ellipse69" /><ellipse
       transform="matrix(0.9985226 0.0543387 -0.0543387 0.9985226 0.5714891 -1.3495202)"
       style="fill:#FFE66C;"
       cx="25.1027508"
       cy="9.8346405"
       rx="0.8356847"
       ry="1.6116115"
       id="ellipse71" /><ellipse
       transform="matrix(0.9813939 0.1920054 -0.1920054 0.9813939 2.0929074 -4.9738388)"
       style="fill:#FFE66C;"
       cx="26.7101498"
       cy="8.3119316"
       rx="0.8353934"
       ry="1.6114304"
       id="ellipse73" /><ellipse
       transform="matrix(0.9464772 0.3227706 -0.3227706 0.9464772 3.7442396 -8.8279428)"
       style="fill:#FFE66C;"
       cx="28.4906998"
       cy="6.8759003"
       rx="0.8509449"
       ry="1.6424656"
       id="ellipse75" /><ellipse
       transform="matrix(0.8272999 0.5617605 -0.5617605 0.8272999 8.6770067 -16.0949173)"
       style="fill:#FFE66C;"
       cx="30.5153503"
       cy="6.0648651"
       rx="0.7879247"
       ry="1.5216132"
       id="ellipse77" /><ellipse
       transform="matrix(0.6334802 0.7737589 -0.7737589 0.6334802 16.2634983 -23.3339844)"
       style="fill:#FFE66C;"
       cx="32.7619019"
       cy="5.4999199"
       rx="0.7885014"
       ry="1.52022"
       id="ellipse79" /><path
       style="fill:#FFE66C;"
       d="M35.6852989,5.9728198C34.8581009,6.34343,34.0299988,6.2946,33.8366013,5.8649101   c-0.1884995-0.4282203,0.3280983-1.07617,1.1571999-1.44629c0.827198-0.3691401,1.6553001-0.32129,1.844799,0.1108398   C37.0329018,4.9576898,36.5153008,5.60466,35.6852989,5.9728198z"
       id="path81" /><path
       style="fill:#FFE66C;"
       d="M37.8386002,6.007c-0.8251991,0.3017602-1.6259995,0.2016602-1.782299-0.22998   c-0.155201-0.4277301,0.3886986-1.02246,1.2178001-1.3271499c0.8261986-0.2997999,1.625-0.1996999,1.7812996,0.2314501   C39.2145996,5.1110101,38.6706009,5.7052398,37.8386002,6.007z"
       id="path83" /><ellipse
       transform="matrix(-0.2005761 0.9796781 -0.9796781 -0.2005761 54.2589417 -33.3143845)"
       style="fill:#FFE66C;"
       cx="40.7218513"
       cy="5.4806366"
       rx="0.8203868"
       ry="1.5818208"
       id="ellipse85" /><ellipse
       transform="matrix(-0.6228416 0.782348 -0.782348 -0.6228416 72.9637756 -20.7969894)"
       style="fill:#FFE66C;"
       cx="41.4948502"
       cy="7.1888847"
       rx="0.827899"
       ry="1.5989801"
       id="ellipse87" /><path
       style="fill:#FFE66C;"
       d="M38.3981018,7.2848301c-0.8964005-0.11132-1.5810013-0.5786099-1.5253029-1.04638   c0.0605011-0.4643602,0.8358994-0.7534199,1.7382011-0.6440501c0.8984985,0.1128001,1.5830002,0.5795898,1.5245018,1.04737   C40.0769005,7.1090498,39.2985001,7.39714,38.3981018,7.2848301z"
       id="path89" /><ellipse
       transform="matrix(-0.1007761 -0.9949091 0.9949091 -0.1007761 15.07411 38.3786469)"
       style="fill:#FFE66C;"
       cx="24.8808498"
       cy="12.3771439"
       rx="0.8469271"
       ry="1.6347958"
       id="ellipse91" /><ellipse
       transform="matrix(0.0781462 -0.9969419 0.9969419 0.0781462 7.8761835 36.2134132)"
       style="fill:#FFE66C;"
       cx="23.5196495"
       cy="13.8478432"
       rx="0.8516093"
       ry="1.6415235"
       id="ellipse93" /><ellipse
       transform="matrix(-0.2082559 -0.9780744 0.9780744 -0.2082559 21.7306347 38.8295822)"
       style="fill:#FFE66C;"
       cx="26.5814495"
       cy="10.6193962"
       rx="0.8357503"
       ry="1.6112725"
       id="ellipse95" /><ellipse
       transform="matrix(0.0937799 -0.995593 0.995593 0.0937799 16.2251606 37.1597824)"
       style="fill:#FFE66C;"
       cx="28.5248508"
       cy="9.6672363"
       rx="0.8354669"
       ry="1.6121665"
       id="ellipse97" /><ellipse
       transform="matrix(0.1416961 -0.9899102 0.9899102 0.1416961 17.281847 37.0617638)"
       style="fill:#FFE66C;"
       cx="30.0132008"
       cy="8.5650215"
       rx="0.8511176"
       ry="1.6427509"
       id="ellipse99" /><ellipse
       transform="matrix(0.4493204 -0.8933707 0.8933707 0.4493204 10.3168526 32.9527588)"
       style="fill:#FFE66C;"
       cx="31.8881493"
       cy="8.1078339"
       rx="0.7884129"
       ry="1.5214924"
       id="ellipse101" /><path
       style="fill:#FFE66C;"
       d="M33.5709991,8.1822901c-0.8031998-0.2460899-1.3485985-0.7827101-1.2206993-1.1992102   c0.1283989-0.4160199,0.8818016-0.5517597,1.6875-0.3056698c0.8017998,0.2470698,1.3485985,0.7841797,1.2178001,1.20117   C35.1296005,8.2941103,34.3736992,8.4318104,33.5709991,8.1822901z"
       id="path103" /><path
       style="fill:#FFE66C;"
       d="M36.5339012,6.3590498c0.8280983,0.36621,1.3466988,1.01123,1.1581993,1.4419003   c-0.1913986,0.4272404-1.0166016,0.4790001-1.8496017,0.1132798C35.0153008,7.5465498,34.4977989,6.90202,34.6882019,6.47087   C34.8757019,6.0416698,35.7028008,5.9899101,36.5339012,6.3590498z"
       id="path105" /><ellipse
       transform="matrix(0.9903495 -0.1385927 0.1385927 0.9903495 -1.4150224 3.1443291)"
       style="fill:#FFE66C;"
       cx="21.8705597"
       cy="11.73283"
       rx="0.847317"
       ry="1.6348412"
       id="ellipse107" /><ellipse
       transform="matrix(0.9966772 -0.0814529 0.0814529 0.9966772 -0.7090787 1.8987616)"
       style="fill:#FFE66C;"
       cx="22.9179001"
       cy="9.6403046"
       rx="0.8512285"
       ry="1.6422721"
       id="ellipse109" /><ellipse
       transform="matrix(0.9985068 0.0546277 -0.0546277 0.9985068 0.4800661 -1.3276016)"
       style="fill:#FFE66C;"
       cx="24.5245991"
       cy="8.1175957"
       rx="0.835748"
       ry="1.6118889"
       id="ellipse111" /><ellipse
       transform="matrix(0.9814491 0.1917228 -0.1917228 0.9814491 1.7490711 -4.8877788)"
       style="fill:#FFE66C;"
       cx="26.1320496"
       cy="6.5944061"
       rx="0.8353464"
       ry="1.6115756"
       id="ellipse113" /><ellipse
       transform="matrix(0.9463091 0.323263 -0.323263 0.9463091 3.1663961 -8.7460995)"
       style="fill:#FFE66C;"
       cx="27.91255"
       cy="5.1591034"
       rx="0.8511489"
       ry="1.6429272"
       id="ellipse115" /><ellipse
       transform="matrix(0.8275355 0.5614134 -0.5614134 0.8275355 7.6040287 -16.0573006)"
       style="fill:#FFE66C;"
       cx="29.9372005"
       cy="4.3478203"
       rx="0.7888483"
       ry="1.5213907"
       id="ellipse117" /><ellipse
       transform="matrix(0.7621021 0.6474569 -0.6474569 0.7621021 10.1058283 -19.9380074)"
       style="fill:#FFE66C;"
       cx="32.1842995"
       cy="3.7828789"
       rx="0.7880834"
       ry="1.5214672"
       id="ellipse119" /><ellipse
       transform="matrix(0.4066266 0.9135944 -0.9135944 0.4066266 23.8057861 -29.6935425)"
       style="fill:#FFE66C;"
       cx="34.7619019"
       cy="3.47966"
       rx="0.8513953"
       ry="1.6426622"
       id="ellipse121" /><ellipse
       transform="matrix(0.6587254 0.7523834 -0.7523834 0.6587254 18.283083 -16.0813179)"
       style="fill:#FFD255;"
       cx="26.8682003"
       cy="12.1130371"
       rx="0.8472422"
       ry="1.6334389"
       id="ellipse123" /><ellipse
       transform="matrix(0.5690736 0.8222866 -0.8222866 0.5690736 21.8983593 -19.5946789)"
       style="fill:#FFD255;"
       cx="29.6443005"
       cy="11.0957031"
       rx="0.8455848"
       ry="1.6312735"
       id="ellipse125" /><ellipse
       transform="matrix(0.5674607 0.8234005 -0.8234005 0.5674607 22.4832954 -22.0858135)"
       style="fill:#FFD255;"
       cx="32.263401"
       cy="10.3571777"
       rx="0.8471072"
       ry="1.6342601"
       id="ellipse127" /><ellipse
       transform="matrix(0.5191312 0.8546945 -0.8546945 0.5191312 25.4915142 -24.5946712)"
       style="fill:#FFD255;"
       cx="34.6030006"
       cy="10.3569298"
       rx="0.8512298"
       ry="1.6420536"
       id="ellipse129" /><ellipse
       transform="matrix(0.3991357 0.9168919 -0.9168919 0.3991357 32.2309494 -26.9583664)"
       style="fill:#FFD255;"
       cx="36.6841011"
       cy="11.1123047"
       rx="0.8355554"
       ry="1.6112069"
       id="ellipse131" /><ellipse
       transform="matrix(0.2677083 0.9635 -0.9635 0.2677083 39.8220367 -28.660284)"
       style="fill:#FFD255;"
       cx="38.7656517"
       cy="11.8674316"
       rx="0.8354245"
       ry="1.6122185"
       id="ellipse133" /><ellipse
       transform="matrix(0.1347974 0.9908732 -0.9908732 0.1347974 48.0398712 -29.3843517)"
       style="fill:#FFD255;"
       cx="40.8461494"
       cy="12.8166542"
       rx="0.8512769"
       ry="1.6417859"
       id="ellipse135" /><ellipse
       transform="matrix(-0.131292 0.9913437 -0.9913437 -0.131292 62.1960335 -25.9741402)"
       style="fill:#FFD255;"
       cx="42.4785004"
       cy="14.263916"
       rx="0.7883189"
       ry="1.5217996"
       id="ellipse137" /><ellipse
       transform="matrix(-0.4089945 0.9125369 -0.9125369 -0.4089945 76.5992508 -17.5700359)"
       style="fill:#FFD255;"
       cx="43.9892502"
       cy="16.0197754"
       rx="0.7879079"
       ry="1.5207214"
       id="ellipse139" /><ellipse
       transform="matrix(-0.6355713 0.7720422 -0.7720422 -0.6355713 88.3218231 -5.3137841)"
       style="fill:#FFD255;"
       cx="45.4150505"
       cy="18.1884766"
       rx="0.8512813"
       ry="1.64241"
       id="ellipse141" /><ellipse
       transform="matrix(-0.7322919 0.6809909 -0.6809909 -0.7322919 94.1502075 3.7009795)"
       style="fill:#FFD255;"
       cx="46.3476486"
       cy="20.3564453"
       rx="0.8281534"
       ry="1.5974715"
       id="ellipse143" /><ellipse
       transform="matrix(-0.8189999 0.5737936 -0.5737936 -0.8189999 99.4994888 13.6632252)"
       style="fill:#FFD255;"
       cx="47.5947495"
       cy="22.5248985"
       rx="0.8203298"
       ry="1.5831804"
       id="ellipse145" /><ellipse
       transform="matrix(-0.8902595 0.4554536 -0.4554536 -0.8902595 104.4911194 24.3759117)"
       style="fill:#FFD255;"
       cx="49.3088989"
       cy="24.7764015"
       rx="0.8281854"
       ry="1.598749"
       id="ellipse147" /><ellipse
       transform="matrix(-0.9427527 0.3334928 -0.3334928 -0.9427527 106.4209442 37.2570877)"
       style="fill:#FFD255;"
       cx="50.0126991"
       cy="27.7626495"
       rx="0.8514428"
       ry="1.6427839"
       id="ellipse149" /><ellipse
       transform="matrix(-0.3646915 0.9311284 -0.9311284 -0.3646915 49.2352448 -4.4242344)"
       style="fill:#FFD255;"
       cx="26.1269493"
       cy="14.5844765"
       rx="0.8474287"
       ry="1.6337353"
       id="ellipse151" /><ellipse
       transform="matrix(-0.3192022 0.9476866 -0.9476866 -0.3192022 50.061306 -8.8282051)"
       style="fill:#FFD255;"
       cx="28.2016506"
       cy="13.5673828"
       rx="0.8460154"
       ry="1.6309738"
       id="ellipse153" /><ellipse
       transform="matrix(0.6027148 -0.7979566 0.7979566 0.6027148 2.8710666 31.4008904)"
       style="fill:#FFD255;"
       cx="32.9702492"
       cy="12.8171425"
       rx="0.8465861"
       ry="1.6346028"
       id="ellipse155" /><ellipse
       transform="matrix(0.3151839 -0.9490306 0.9490306 0.3151839 8.8415756 37.8870926)"
       style="fill:#FFD255;"
       cx="30.6730995"
       cy="12.8171387"
       rx="0.8512492"
       ry="1.6416236"
       id="ellipse157" /><ellipse
       transform="matrix(0.4406435 -0.8976822 0.8976822 0.4406435 7.6748109 39.0473671)"
       style="fill:#FFD255;"
       cx="35.1699486"
       cy="13.3652306"
       rx="0.8354828"
       ry="1.6117976"
       id="ellipse159" /><ellipse
       transform="matrix(0.9322637 -0.3617796 0.3617796 0.9322637 -2.6597562 14.473938)"
       style="fill:#FFD255;"
       cx="37.3227501"
       cy="14.3398438"
       rx="0.8354396"
       ry="1.6116608"
       id="ellipse161" /><ellipse
       transform="matrix(0.9487379 -0.3160639 0.3160639 0.9487379 -2.8122706 13.2376852)"
       style="fill:#FFD255;"
       cx="39.4033012"
       cy="15.2885742"
       rx="0.8512362"
       ry="1.6425976"
       id="ellipse163" /><ellipse
       style="fill:#FFD255;"
       cx="41.2851486"
       cy="16.9025116"
       rx="0.7880514"
       ry="1.5214813"
       id="ellipse165" /><ellipse
       transform="matrix(-0.9866772 0.1626904 -0.1626904 -0.9866772 88.3244781 29.2509327)"
       style="fill:#FFD255;"
       cx="42.96455"
       cy="18.2419434"
       rx="0.7878463"
       ry="1.5206054"
       id="ellipse167" /><ellipse
       transform="matrix(0.994448 -0.1052292 0.1052292 0.994448 -1.8917857 4.8013515)"
       style="fill:#FFD255;"
       cx="44.5550003"
       cy="20.3285332"
       rx="0.8514271"
       ry="1.6424704"
       id="ellipse169" /><ellipse
       transform="matrix(-0.9948776 -0.1010871 0.1010871 -0.9948776 89.1462936 49.6750412)"
       style="fill:#FFD255;"
       cx="45.831749"
       cy="22.5788498"
       rx="0.8284939"
       ry="1.5970496"
       id="ellipse171" /><ellipse
       transform="matrix(-0.9918016 0.1277874 -0.1277874 -0.9918016 98.6971054 43.2208252)"
       style="fill:#FFD255;"
       cx="47.962101"
       cy="24.7764511"
       rx="0.8197204"
       ry="1.5823036"
       id="ellipse173" /><ellipse
       transform="matrix(-0.9693813 -0.2455605 0.2455605 -0.9693813 89.0948792 65.168663)"
       style="fill:#FFD255;"
       cx="48.6103516"
       cy="27.0297508"
       rx="0.8281056"
       ry="1.5987597"
       id="ellipse175" /><ellipse
       style="fill:#FFD255;"
       cx="49.1666985"
       cy="29.9166985"
       rx="0.8511006"
       ry="1.6426001"
       id="ellipse177" /><ellipse
       transform="matrix(0.6587486 0.7523631 -0.7523631 0.6587486 17.7503853 -17.4802933)"
       style="fill:#FFD255;"
       cx="28.1447506"
       cy="10.8271484"
       rx="0.847592"
       ry="1.6337159"
       id="ellipse179" /><ellipse
       transform="matrix(0.5689397 0.8223792 -0.8223792 0.5689397 21.3960724 -21.1999187)"
       style="fill:#FFD255;"
       cx="30.9207001"
       cy="9.8098145"
       rx="0.8457838"
       ry="1.6314125"
       id="ellipse181" /><ellipse
       transform="matrix(0.567795 0.8231699 -0.8231699 0.567795 21.9631691 -23.688097)"
       style="fill:#FFD255;"
       cx="33.5395508"
       cy="9.0712852"
       rx="0.8470486"
       ry="1.6339995"
       id="ellipse183" /><ellipse
       transform="matrix(0.519132 0.8546941 -0.8546941 0.519132 25.0064316 -26.3038158)"
       style="fill:#FFD255;"
       cx="35.8793983"
       cy="9.0712891"
       rx="0.8512285"
       ry="1.6418003"
       id="ellipse185" /><ellipse
       transform="matrix(0.3989798 0.9169597 -0.9169597 0.3989798 31.8254223 -28.9023285)"
       style="fill:#FFD255;"
       cx="37.9604492"
       cy="9.826416"
       rx="0.8357565"
       ry="1.6112568"
       id="ellipse187" /><ellipse
       transform="matrix(0.2677288 0.9634943 -0.9634943 0.2677288 39.516861 -30.8316765)"
       style="fill:#FFD255;"
       cx="40.0419998"
       cy="10.5815468"
       rx="0.8351736"
       ry="1.6121041"
       id="ellipse189" /><ellipse
       transform="matrix(0.1347977 0.9908732 -0.9908732 0.1347977 47.8698082 -31.7618732)"
       style="fill:#FFD255;"
       cx="42.122551"
       cy="11.5305176"
       rx="0.851276"
       ry="1.641786"
       id="ellipse191" /><ellipse
       transform="matrix(-0.1312919 0.9913437 -0.9913437 -0.1312919 62.3650131 -28.6944866)"
       style="fill:#FFD255;"
       cx="43.7549019"
       cy="12.9777832"
       rx="0.7883194"
       ry="1.5217363"
       id="ellipse193" /><ellipse
       transform="matrix(-0.2386111 0.9711152 -0.9711152 -0.2386111 70.3741531 -25.7080708)"
       style="fill:#FFD255;"
       cx="45.2650986"
       cy="14.7338867"
       rx="0.7878931"
       ry="1.5203215"
       id="ellipse195" /><ellipse
       transform="matrix(-0.6355363 0.7720709 -0.7720709 -0.6355363 89.4152908 -8.4046755)"
       style="fill:#FFD255;"
       cx="46.6913986"
       cy="16.9023438"
       rx="0.8512495"
       ry="1.6423714"
       id="ellipse197" /><ellipse
       transform="matrix(-0.5900079 0.8073975 -0.8073975 -0.5900079 91.1200562 -8.1291618)"
       style="fill:#FFD255;"
       cx="47.6240005"
       cy="19.0705566"
       rx="0.827616"
       ry="1.5973574"
       id="ellipse199" /><ellipse
       transform="matrix(-0.3285746 0.944478 -0.944478 -0.3285746 84.9873657 -17.9391003)"
       style="fill:#FFD255;"
       cx="48.8700981"
       cy="21.2390289"
       rx="0.8202096"
       ry="1.5824001"
       id="ellipse201" /><ellipse
       transform="matrix(-0.6296965 0.7768412 -0.7768412 -0.6296965 99.671524 -0.6972653)"
       style="fill:#FFD255;"
       cx="50.0019493"
       cy="23.4070015"
       rx="0.8280972"
       ry="1.598388"
       id="ellipse203" /></g><linearGradient
     id="SVGID_1_"
     gradientUnits="userSpaceOnUse"
     x1="23.5266171"
     y1="26.2665997"
     x2="23.5266171"
     y2="61.5693016"><stop
       offset="0.331858"
       style="stop-color:#A3E038"
       id="stop206" /><stop
       offset="1"
       style="stop-color:#51720A"
       id="stop208" /></linearGradient><path
     style="fill:url(#SVGID_1_);"
     d="M23.8936005,61.2178001c0,0-5.1577606-22.0536995-3.4658699-27.0820999  c1.69137-5.028801,6.5385685-7.8691006,6.5385685-7.8691006s-4.8612995,5.3549995-5.1376896,10.0585995  c-0.2768497,4.7031021,3.189991,25.2441025,3.189991,25.2441025L23.8936005,61.2178001z"
     id="path210" /><linearGradient
     id="SVGID_2_"
     gradientUnits="userSpaceOnUse"
     x1="18.5575695"
     y1="28.5692997"
     x2="18.5575695"
     y2="63.267601"><stop
       offset="0.455752"
       style="stop-color:#A3E038"
       id="stop213" /><stop
       offset="1"
       style="stop-color:#51720A"
       id="stop215" /></linearGradient><path
     style="fill:url(#SVGID_2_);"
     d="M24.8167992,63.267601c0,0-8.1390686-26.4356003-12.5184593-34.6983032  c0,0,3.40625,13.1485004,5.352541,18.8662014C19.5976601,53.1533012,21.5320702,60.9375,24.8167992,63.267601z"
     id="path217" /><linearGradient
     id="SVGID_3_"
     gradientUnits="userSpaceOnUse"
     x1="34.179451"
     y1="34.4188995"
     x2="34.179451"
     y2="63.267601"><stop
       offset="0.261062"
       style="stop-color:#A3E038"
       id="stop220" /><stop
       offset="1"
       style="stop-color:#51720A"
       id="stop222" /></linearGradient><path
     style="fill:url(#SVGID_3_);"
     d="M23.9771004,63.267601c0,0,0.6971989-18.0214996,5.5629005-22.1581993  c4.1259995-3.5069008,12.1279984-5.9961014,14.8418007-6.6905022c0,0-13.7465019,7.6357994-15.3281021,11.7247009  c-1.0879002,2.8133011-1.8676987,9.594101-3.0832996,13.7350006c-0.3250008,1.107399-1.1536007,3.3889999-1.1536007,3.3889999  S24.3057995,63.1959,23.9771004,63.267601z"
     id="path224" /><path
     style="fill:#79BF00;"
     d="M24.0112,63.267601c0,0-0.2108994-24.4854012,4.2334003-31.2984009  C28.2446003,31.9692001,25.1308994,49.5536995,24.0112,63.267601z"
     id="path226" /><linearGradient
     id="SVGID_4_"
     gradientUnits="userSpaceOnUse"
     x1="16.5502453"
     y1="37.5820007"
     x2="16.5502453"
     y2="63.267601"><stop
       offset="0.415929"
       style="stop-color:#B7E851"
       id="stop229" /><stop
       offset="1"
       style="stop-color:#7D9E37"
       id="stop231" /></linearGradient><path
     style="fill:url(#SVGID_4_);"
     d="M23.9771004,63.267601c0,0-11.6787605-23.6182022-15.6934099-25.6856003  c0,0,5.1303692,3.8828011,9.5268602,10.3261986c4.3969498,6.4424019,7.0062485,15.3594017,7.0062485,15.3594017H23.9771004z"
     id="path233" /><linearGradient
     id="SVGID_5_"
     gradientUnits="userSpaceOnUse"
     x1="33.1374016"
     y1="46.1435432"
     x2="33.1374016"
     y2="63.267601"><stop
       offset="0.433628"
       style="stop-color:#B7E851"
       id="stop236" /><stop
       offset="1"
       style="stop-color:#7D9E37"
       id="stop238" /></linearGradient><path
     style="fill:url(#SVGID_5_);"
     d="M24.8167992,63.267601c0,0,2.0426006-12.7304993,6.3009014-15.7725029  c4.2582989-3.0409966,10.3402996,0,10.3402996,0s-12.1655006-1.9462967-14.2334003,9.4893036  C25.6431007,60.3905983,27.2586002,60.3291016,24.8167992,63.267601z"
     id="path240" /><g
     id="g242" /><g
     id="g244" /><g
     id="g246" /><g
     id="g248" /><g
     id="g250" /><g
     id="g252" /></svg>