<?xml version="1.0" encoding="utf-8"?>
<!-- Generator: Adobe Illustrator 15.0.2, SVG Export Plug-In . SVG Version: 6.00 Build 0)  -->
<!DOCTYPE svg PUBLIC "-//W3C//DTD SVG 1.1//EN" "http://www.w3.org/Graphics/SVG/1.1/DTD/svg11.dtd">
<svg version="1.1" id="レイヤー_1" xmlns="http://www.w3.org/2000/svg" xmlns:xlink="http://www.w3.org/1999/xlink" x="0px"
	 y="0px" width="64px" height="64px" viewBox="0 0 64 64" enable-background="new 0 0 64 64" xml:space="preserve">
<g>
	<linearGradient id="SVGID_1_" gradientUnits="userSpaceOnUse" x1="7.3511" y1="-1.4844" x2="51.4453" y2="58.4142">
		<stop  offset="0" style="stop-color:#3FB6FF"/>
		<stop  offset="1" style="stop-color:#000B5F"/>
	</linearGradient>
	<circle fill="url(#SVGID_1_)" cx="32" cy="31.999" r="28.71"/>
	<g>
		<linearGradient id="SVGID_2_" gradientUnits="userSpaceOnUse" x1="23.3384" y1="6.936" x2="47.0376" y2="34.1853">
			<stop  offset="0" style="stop-color:#5DBF00"/>
			<stop  offset="0.4816" style="stop-color:#329308"/>
			<stop  offset="1" style="stop-color:#005F12"/>
		</linearGradient>
		<path fill-rule="evenodd" clip-rule="evenodd" fill="url(#SVGID_2_)" d="M25.421,4.418c-0.044,0.312-0.161,0.552-0.267,0.801
			c-2.016,0.124-3.536,1.763-5.602,2.268c-0.371-0.293,0.422-0.547,0.4-0.934c0.584,0.006,1.25,0.093,1.334-0.4
			c-0.241-0.413-0.409-0.072-0.934-0.134C21.662,5.105,23.796,5.018,25.421,4.418z"/>
		<linearGradient id="SVGID_3_" gradientUnits="userSpaceOnUse" x1="23.8657" y1="6.4775" x2="47.556" y2="33.7166">
			<stop  offset="0" style="stop-color:#5DBF00"/>
			<stop  offset="0.4816" style="stop-color:#329308"/>
			<stop  offset="1" style="stop-color:#005F12"/>
		</linearGradient>
		<path fill-rule="evenodd" clip-rule="evenodd" fill="url(#SVGID_3_)" d="M28.489,4.685c0.056,0.279-0.091,0.354-0.134,0.534
			c0.242,0.292,1,0.066,0.935,0.667c-0.876,0.754-2.164,1.225-3.335,1.867c-0.571,0.313-0.932,0.791-1.601,0.933
			c-1.384,0.294-2.885-0.141-4.401,0.4c1.14-2.104,4.101-2.39,5.869-3.867c-0.15-0.161-0.381-0.242-0.267-0.667
			C26.603,4.896,27.556,4.082,28.489,4.685z"/>
		<linearGradient id="SVGID_4_" gradientUnits="userSpaceOnUse" x1="32.6309" y1="-1.1533" x2="56.3366" y2="26.1035">
			<stop  offset="0" style="stop-color:#5DBF00"/>
			<stop  offset="0.4816" style="stop-color:#329308"/>
			<stop  offset="1" style="stop-color:#005F12"/>
		</linearGradient>
		<path fill-rule="evenodd" clip-rule="evenodd" fill="url(#SVGID_4_)" d="M38.492,5.752c0.384-0.027,0.678,0.033,0.802,0.267
			c0.117,0.429-0.439,0.183-0.401,0.534C38.744,6.3,38.56,6.085,38.492,5.752z"/>
		<linearGradient id="SVGID_5_" gradientUnits="userSpaceOnUse" x1="27.9453" y1="2.9336" x2="51.6198" y2="30.1545">
			<stop  offset="0" style="stop-color:#5DBF00"/>
			<stop  offset="0.4816" style="stop-color:#329308"/>
			<stop  offset="1" style="stop-color:#005F12"/>
		</linearGradient>
		<path fill-rule="evenodd" clip-rule="evenodd" fill="url(#SVGID_5_)" d="M32.09,6.686c-0.192,0.43-0.583,0.662-1.066,0.801
			c-0.058-0.254-0.381-0.242-0.267-0.667C31.198,6.78,31.776,6.437,32.09,6.686z"/>
		<linearGradient id="SVGID_6_" gradientUnits="userSpaceOnUse" x1="26.2827" y1="4.3726" x2="49.9796" y2="31.6191">
			<stop  offset="0" style="stop-color:#5DBF00"/>
			<stop  offset="0.4816" style="stop-color:#329308"/>
			<stop  offset="1" style="stop-color:#005F12"/>
		</linearGradient>
		<path fill-rule="evenodd" clip-rule="evenodd" fill="url(#SVGID_6_)" d="M34.358,10.02c-0.552,0.295-1.202,0.488-1.468,1.068
			c-0.392-0.098-0.51-0.468-1.066-0.4c-0.669,0.443-1.206,1.018-2.401,0.934C30.169,9.522,32.329,8.681,34.358,10.02z"/>
		<linearGradient id="SVGID_7_" gradientUnits="userSpaceOnUse" x1="22.04" y1="8.0664" x2="45.7194" y2="35.2929">
			<stop  offset="0" style="stop-color:#5DBF00"/>
			<stop  offset="0.4816" style="stop-color:#329308"/>
			<stop  offset="1" style="stop-color:#005F12"/>
		</linearGradient>
		<path fill-rule="evenodd" clip-rule="evenodd" fill="url(#SVGID_7_)" d="M24.487,10.287c-0.314,0.103-0.921,0.263-1.2,0
			C23.196,9.757,24.599,9.652,24.487,10.287z"/>
		<linearGradient id="SVGID_8_" gradientUnits="userSpaceOnUse" x1="24.3945" y1="6.0034" x2="48.1078" y2="33.2689">
			<stop  offset="0" style="stop-color:#5DBF00"/>
			<stop  offset="0.4816" style="stop-color:#329308"/>
			<stop  offset="1" style="stop-color:#005F12"/>
		</linearGradient>
		<path fill-rule="evenodd" clip-rule="evenodd" fill="url(#SVGID_8_)" d="M31.557,14.288c0.222,0,0.444,0,0.666,0
			c0.082,0.526-0.298,0.592-0.666,0.668C31.557,14.733,31.557,14.511,31.557,14.288z"/>
		<linearGradient id="SVGID_9_" gradientUnits="userSpaceOnUse" x1="19.7651" y1="10.0503" x2="43.4399" y2="37.2715">
			<stop  offset="0" style="stop-color:#5DBF00"/>
			<stop  offset="0.4816" style="stop-color:#329308"/>
			<stop  offset="1" style="stop-color:#005F12"/>
		</linearGradient>
		<path fill-rule="evenodd" clip-rule="evenodd" fill="url(#SVGID_9_)" d="M24.354,15.09c0.119,0.103,0.302,0.143,0.534,0.133
			c-0.123,0.321-0.345,0.543-0.667,0.666C24.203,15.561,24.201,15.246,24.354,15.09z"/>
		<path fill-rule="evenodd" clip-rule="evenodd" d="M43.562,17.49c0.428,0.017,0.587,0.303,0.533,0.8
			C43.519,18.42,43.228,17.863,43.562,17.49z"/>
		<path fill-rule="evenodd" clip-rule="evenodd" d="M34.491,42.434c0.53,0.712,1.319,1.732,1.201,2.667
			C34.639,44.937,34.151,43.55,34.491,42.434z"/>
		<path fill-rule="evenodd" clip-rule="evenodd" d="M36.892,45.233c0.133,0,0.268,0,0.4,0c0.199,0.534,0.199,1.603,0,2.135
			C36.438,47.383,36.768,45.789,36.892,45.233z"/>
		<linearGradient id="SVGID_10_" gradientUnits="userSpaceOnUse" x1="13.6367" y1="15.3975" x2="37.3183" y2="42.6265">
			<stop  offset="0" style="stop-color:#5DBF00"/>
			<stop  offset="0.4816" style="stop-color:#329308"/>
			<stop  offset="1" style="stop-color:#005F12"/>
		</linearGradient>
		<path fill-rule="evenodd" clip-rule="evenodd" fill="url(#SVGID_10_)" d="M43.829,46.034c-0.215,1.832-0.733,4.514-2.801,4.937
			c-0.273-1.109,0.999-1.543,0.533-2.802C42.528,47.67,43.458,47.13,43.829,46.034z"/>
		<linearGradient id="SVGID_11_" gradientUnits="userSpaceOnUse" x1="13.7925" y1="30.3286" x2="59.8428" y2="30.3286">
			<stop  offset="0" style="stop-color:#5DBF00"/>
			<stop  offset="0.4816" style="stop-color:#329308"/>
			<stop  offset="1" style="stop-color:#005F12"/>
		</linearGradient>
		<path fill-rule="evenodd" clip-rule="evenodd" fill="url(#SVGID_11_)" d="M27.822,15.223c0.165,0.058,0.274,0.17,0.267,0.399
			c2.585-0.151,3.657-0.417,5.868-0.399c0.054-0.498-0.831-0.057-0.934-0.4c0.84-0.803,2.631-0.756,3.868-1.468
			c0.05-0.227-0.103-0.251-0.267-0.267c1.197-0.004,1.103-1.3,2.402-1.2c0.334-0.287,0.637-0.607,0.799-1.067
			c0.509-0.196,0.026,0.597,0.533,0.4c0.503,0.013,0.311-0.669,0.669-0.8c0.352-0.041,0.438,0.184,0.398,0.533
			c0.231-0.587-0.118-1.366,0.668-1.601c0.131-0.533-0.399-0.402-0.267-0.935c0.883-0.227,1.241-0.979,1.733-1.6
			c-0.046-0.354-0.35-0.45-0.666-0.534c0.277-0.614,0.716,0.391,1.466,0.134c3.941,2.106,7.61,4.484,10.004,8.137
			c2.079,2.588,4.196,5.141,4.268,9.736c0.591,1.056,1.293,2,1.202,3.735c-0.757-0.134-1.279-0.5-1.334-1.334
			c-0.378-0.11-0.346,0.188-0.668,0.134c-0.049-1.106-0.979-1.333-1.332-2.135c-1.293,0.798-0.584,3.597-1.603,4.669
			c0.115,1.2,0.515,2.516,0,3.602c-1.188-1.523-2.128-3.295-2.8-5.336c-0.583-0.183-0.283,0.518-0.8,0.4
			c-0.336-0.865-1.229-1.173-1.868-1.733c-0.853,0.225-3.028,1.178-3.603,0c-1.289,1.028-2.314-0.494-3.2-1.068
			c-0.898,1.26,1.209,1.691,1.333,2.802c1.017,0.172,1.357-0.332,1.601-0.935c0.484,0.584,1.466,0.67,1.867,1.335
			c-0.057,2.165-1.855,2.591-2.667,4.001c-1.327,0.405-1.919,1.55-3.467,1.734c-0.275-1.727-0.906-3.096-2.268-3.735
			c-0.294-1.664-1.547-2.366-2.269-3.601c-0.108,0.025-0.133,0.133-0.268,0.133c0.206,2.063,1.913,3.777,2.668,5.735
			c0.897,0.794,2.03,1.352,2.402,2.67c1.286-0.05,1.94-0.729,3.067-0.936c-0.092,4.312-4.417,5.543-5.602,9.203
			c0.383,1.207,0.906,2.408,0.666,3.868c-0.976,0.714-2.205,1.175-2.935,2.135c0.155,0.549,0.34,0.863,0.133,1.468
			c-1.698,0.925-2.183,3.062-4.401,3.467c-0.821-0.23-1.323,0.037-2.268,0c-0.68-0.831-1.077-1.945-2-2.532
			c-0.222-1.38-0.777-2.426-1.734-3.069c-0.315-1.187,0.108-2.007,0.667-2.667c0.033-1.876-0.997-3.658-2.401-4.803
			c0.169-1.104,0.774-3.955-1.467-3.2c-0.262-0.45-0.468-0.954-0.934-1.201c-2.325,0.354-3.375,0.201-5.603,0.133
			c-1.466-0.979-1.909-2.981-2.934-4.401c-0.223-1.916,1.176-2.759,0.667-4.535c0.959-1.44,2.085-2.717,3.734-3.468
			c0.085-1.472,1.595-1.518,2.401-2.267c1.618,0.707,3.532-0.496,6.002,0c0.088,0.71-0.056,1.188-0.4,1.466
			c1.398,0.433,2.637,1.709,4.001,1.734c0.243-0.157,0.105-0.696,0.267-0.934c1.925,0.042,3.327,1.096,5.735,0.533
			c0.591-0.477,0.689-1.445,0.667-2.534c-1.234-0.024-2.705,0.566-3.734-0.399c0.195-1.346-0.869-2.023-1.733-1.201
			c0.29,0.794,0.395,0.876,0,1.601c-0.558-0.466-0.843-1.202-0.935-2.134c-0.657-0.899-1.542-1.57-2.267-2.401
			c-0.304,0.098-0.399,0.401-0.534,0.667c-0.013,1.27,2.052,1.39,1.468,2.401c-0.989-0.612-1.755-1.446-2.402-2.401
			c-0.799,0.2-1.159,0.521-2.134,0.268c-0.317,0.57-0.64,1.137-1.467,1.2c-0.212,1.254-1.245,1.689-2.667,1.734
			c0.043-0.488-0.359-0.531-0.667-0.668c-0.077-1.278,0.759-1.642,0.934-2.667c0.888,0.002,1.501,0.276,2.268,0.4
			c0.461-0.301,1.023-1.444,0.4-2.002c1.437-0.342,2.29-1.266,3.601-1.733c-0.21,0.367-0.454,0.701-0.8,0.933
			C27.054,16.322,27.5,15.834,27.822,15.223z M39.826,18.424c0.236,0.964,1.004,1.397,1.601,2.001
			c-0.358,1.402,0.835,1.893,1.868,1.467c0.149-0.949-0.479-1.122-0.667-1.734c0.29,0.024,0.425-0.108,0.4-0.4
			c-0.629-0.35-1.385-0.571-1.733-1.2c0.123-0.32,0.535-0.354,0.398-0.934C40.761,17.088,40.257,18.022,39.826,18.424z
			 M35.692,18.29c-0.174,0.331,0.392,0.554,0,0.667c-0.372-0.073-0.374-0.516-0.534-0.801c-0.312,0-0.622,0-0.934,0
			c-0.886,0.771-0.863,2.475-0.935,3.068c1.467-0.721,2.811-0.872,4.803-0.533c0.041-0.315,0.463-0.248,0.399-0.668
			c-0.386-0.547-1.119-0.746-1.601-1.199c-0.065-0.422,0.242-0.472,0.133-0.935C36.496,17.94,36.057,18.078,35.692,18.29z
			 M35.825,42.166c0.31,0,0.623,0,0.934,0c0.272-0.35,0.466-0.78,0.4-1.467C36.196,40.144,35.413,41.333,35.825,42.166z"/>
		<linearGradient id="SVGID_12_" gradientUnits="userSpaceOnUse" x1="15.7456" y1="13.5356" x2="39.4159" y2="40.7517">
			<stop  offset="0" style="stop-color:#5DBF00"/>
			<stop  offset="0.4816" style="stop-color:#329308"/>
			<stop  offset="1" style="stop-color:#005F12"/>
		</linearGradient>
		<path fill-rule="evenodd" clip-rule="evenodd" fill="url(#SVGID_12_)" d="M15.018,9.62c0.3,0.075-0.163,0.208,0.133,0.399
			c0.463-0.124-0.123-0.535,0.667-0.399c-0.188,0.479-0.448,0.886-1.066,0.934c-0.018,0.239,0.163,0.281,0.133,0.534
			c-0.282,0.118-0.395,0.405-0.8,0.399c-0.107-0.294-0.268-0.532-0.668-0.533c-0.956,0.244-0.761,1.64-2,1.601
			C12.3,11.261,13.676,10.458,15.018,9.62z"/>
		<linearGradient id="SVGID_13_" gradientUnits="userSpaceOnUse" x1="-2.2983" y1="29.2314" x2="21.3928" y2="56.4714">
			<stop  offset="0" style="stop-color:#5DBF00"/>
			<stop  offset="0.4816" style="stop-color:#329308"/>
			<stop  offset="1" style="stop-color:#005F12"/>
		</linearGradient>
		<path fill-rule="evenodd" clip-rule="evenodd" fill="url(#SVGID_13_)" d="M3.546,30.428c0.786,0.851,0.839,2.871,0.667,4.269
			c0.577,2.114,3.33,3.419,3.201,5.87c-0.027,0.513-0.496,1.016-0.534,1.468c-0.105,1.271,1.127,2.37,0.4,3.734
			C4.857,41.833,3.5,36.834,3.546,30.428z"/>
	</g>
</g>
</svg>
