<?xml version="1.0" encoding="utf-8"?>
<!-- Generator: Adobe Illustrator 18.0.0, SVG Export Plug-In . SVG Version: 6.00 Build 0)  -->
<!DOCTYPE svg PUBLIC "-//W3C//DTD SVG 1.1//EN" "http://www.w3.org/Graphics/SVG/1.1/DTD/svg11.dtd">
<svg version="1.1" id="レイヤー_1" xmlns="http://www.w3.org/2000/svg" xmlns:xlink="http://www.w3.org/1999/xlink" x="0px"
	 y="0px" width="64px" height="64px" viewBox="0 0 64 64" style="enable-background:new 0 0 64 64;" xml:space="preserve">
<radialGradient id="SVGID_1_" cx="32.0000191" cy="32.0002251" r="28.7103271" fx="19.6705608" fy="22.828125" gradientUnits="userSpaceOnUse">
	<stop  offset="0" style="stop-color:#3FB6FF"/>
	<stop  offset="0.2152274" style="stop-color:#3EB3FC"/>
	<stop  offset="0.3859769" style="stop-color:#3CA9F3"/>
	<stop  offset="0.5414503" style="stop-color:#3998E5"/>
	<stop  offset="0.6878417" style="stop-color:#3581D0"/>
	<stop  offset="0.8279083" style="stop-color:#2F62B5"/>
	<stop  offset="0.9614093" style="stop-color:#273D95"/>
	<stop  offset="1" style="stop-color:#25318A"/>
</radialGradient>
<circle style="fill:url(#SVGID_1_);" cx="32.0000191" cy="31.9995003" r="28.70998"/>
<g style="opacity:0.5;">
	<path style="fill:#D8DD00;" d="M26.5356007,8.2397499c0.8456993-0.0371103,1.0522995-0.6367197,1.6997986,0
		c0.0957012-0.88868-0.1240997-1.4619198-1.0200996-1.3593798c-0.1322994,0.4848599-0.4076996,0.5732398,0,1.0195298
		C26.7392998,7.8745098,25.9155006,7.9760699,26.5356007,8.2397499z"/>
	<path style="fill:#D8DD00;" d="M28.9150009,7.8999c0.5995998,0.2968802,1.0527992,1.1376996,1.3598995,0
		c-1.8656998-0.3554702,0.6654987-1.0781198,0.6796989-1.6996999c-0.7060986-0.37989-0.7201996-0.36622-0.3398991,0.3403301
		C29.7632008,6.9902301,29.7896004,4.95752,29.2549,6.2002001C30.3784008,6.7104502,28.5487995,7.0317402,28.9150009,7.8999z"/>
	<path style="fill:#D8DD00;" d="M33.4570007,59.8799019v-0.000103h-0.0002022
		c-0.0266991,0.0028-0.0534973,0.0034027-0.0802994,0.0062027v0.0000992
		C33.4033012,59.8834,33.4300995,59.8828011,33.4570007,59.8799019z"/>
	<path style="fill:#D8DD00;" d="M16.4612408,8.1207895c0.0847187-0.0588999,0.1666889-0.1212797,0.252079-0.1792593
		c-0.0337505-0.0327802-0.0883789-0.0613403-0.1801205-0.0767803C16.5286293,7.96948,16.4993305,8.0495005,16.4612408,8.1207895z"/>
	<path style="fill:#D8DD00;" d="M32.6348,35.4346008c-0.8540001-0.0508003-4.1846008-3.1817017-6.1187-1.0205002
		c1.0844994-0.2598,1.6655006-0.5009995,0.6797009,0.339798c0.7880993,0.1084023,1.3051987-0.0546989,1.6996994-0.339798
		c-0.330101,0.9862976,3.0834999,0.5360985,1.3593998,1.7001991C31.0272999,35.8661995,32.9071999,36.7266006,32.6348,35.4346008z"
		/>
	<path style="fill:#D8DD00;" d="M32.6348,37.4735985c2.0126991-0.232399,3.1445007-0.0018997,4.0791016-1.0194969
		c-1.3457031-0.127903-2.4688034-0.4775009-3.3994026-1.0195007C34.392601,37.1436005,33.2598,36.1688995,32.6348,37.4735985z"/>
	<path style="fill:#D8DD00;" d="M26.5356007,8.2397499c0.8456993-0.0371103,1.0522995-0.6367197,1.6997986,0
		c0.0957012-0.88868-0.1240997-1.4619198-1.0200996-1.3593798c-0.1322994,0.4848599-0.4076996,0.5732398,0,1.0195298
		C26.7392998,7.8745098,25.9155006,7.9760699,26.5356007,8.2397499z"/>
	<path style="fill:#D8DD00;" d="M30.2749004,7.8999c-1.8656998-0.3554702,0.6654987-1.0781198,0.6796989-1.6996999
		c-0.7060986-0.37989-0.7201996-0.36622-0.3398991,0.3403301C29.7632008,6.9902301,29.7896004,4.95752,29.2549,6.2002001
		c1.1235008,0.5102501-0.7061005,0.8315401-0.3398991,1.6996999C29.5146008,8.1967802,29.9678001,9.0375996,30.2749004,7.8999z"/>
	<path style="fill:#D8DD00;" d="M30.2749004,7.8999c-1.8656998-0.3554702,0.6654987-1.0781198,0.6796989-1.6996999
		c-0.7060986-0.37989-0.7201996-0.36622-0.3398991,0.3403301C29.7632008,6.9902301,29.7896004,4.95752,29.2549,6.2002001
		c1.1235008,0.5102501-0.7061005,0.8315401-0.3398991,1.6996999C29.5146008,8.1967802,29.9678001,9.0375996,30.2749004,7.8999z"/>
	<path style="fill:#D8DD00;" d="M26.5356007,8.2397499c0.8456993-0.0371103,1.0522995-0.6367197,1.6997986,0
		c0.0957012-0.88868-0.1240997-1.4619198-1.0200996-1.3593798c-0.1322994,0.4848599-0.4076996,0.5732398,0,1.0195298
		C26.7392998,7.8745098,25.9155006,7.9760699,26.5356007,8.2397499z"/>
	<path style="fill:#D8DD00;" d="M30.2749004,7.8999c-1.8656998-0.3554702,0.6654987-1.0781198,0.6796989-1.6996999
		c-0.7060986-0.37989-0.7201996-0.36622-0.3398991,0.3403301C29.7632008,6.9902301,29.7896004,4.95752,29.2549,6.2002001
		c1.1235008,0.5102501-0.7061005,0.8315401-0.3398991,1.6996999C29.5146008,8.1967802,29.9678001,9.0375996,30.2749004,7.8999z"/>
	<path style="fill:#D8DD00;" d="M26.5356007,8.2397499c0.8456993-0.0371103,1.0522995-0.6367197,1.6997986,0
		c0.0957012-0.88868-0.1240997-1.4619198-1.0200996-1.3593798c-0.1322994,0.4848599-0.4076996,0.5732398,0,1.0195298
		C26.7392998,7.8745098,25.9155006,7.9760699,26.5356007,8.2397499z"/>
	<path style="fill:#D8DD00;" d="M15.8383198,8.3165302c0.1080904,0.1050997-0.0365,0.2642794-0.1801195,0.2635498
		c0.0815496,0.8759699,0.5844793-0.4667997,1.3593798,0c-0.0673809,2.2534199-3.16992,4.9135704-2.3794003,5.7783203
		c-3.4326134,2.1723595-5.0385695,10.9398994-2.7192345,16.6567001c0.6606445-1.4638004-0.7084961-3.8164005-0.3398438-6.1186008
		c1.3989258,2.7207012,1.0209961,5.9883003,2.0395489,8.4980011c1.60742,3.9609985,6.5068398,4.2333984,9.8579502,6.7989006
		c0.3509998,2.1415977,2.4750996,2.509697,3.738699,3.7391968c0.7901001-0.1493988,0.9102001-1.5009995,1.6997013-0.6805992
		c2.0156994,3.4500999-2.2807007,5.0576019-1.6997013,7.4785004c2.1508999,1.9286995,3.2182999,4.9403992,6.798399,5.4393997
		c0.1624031,0.6505013,0.0025024,1.343502-0.2617989,1.9709015c-0.0881004,0.2090988-0.1878014,0.4109993-0.2909012,0.6014977
		c-0.0589981,0.108902-0.1189995,0.2141037-0.1787987,0.3148003c-0.3970985,0.6701012-0.7781982,1.1445999-0.7001991,1.1977005
		v0.000103c-0.0269012,0.0028992-0.0536995,0.0034981-0.0805016,0.0061989
		c-0.0215988,0.1241989-0.0422974,0.2534981-0.0631981,0.3825989c1.3915977-0.0255013,2.7575989-0.1543007,4.0938988-0.3713989
		c0.4211998-0.2284012,0.907299-0.4244995,1.4664001-0.5703011c-0.3087006,0.0681-0.6152,0.1501007-0.9253998,0.2071991
		c3.25-0.8290977,6.0567017-2.1026001,7.8184013-4.4189987c4.1210976-1.3182983,5.6825981-5.1953011,7.4784966-8.8387985
		c-2.2479973-0.6475029-3.2421989-0.2266006-5.0985985-0.339901c-0.4003983-3.9970016-7.1543007-1.2626991-6.7988014-4.7588005
		c-2.7939987,0.6328011-7.0019989-0.0780983-6.4589996-0.6796989c-1.7070999,0.3320999-3.1791992,0.899498-3.7387981,2.3789978
		c-1.211401-0.7812996-2.0561008-0.6124001-3.7392998-0.3398972c-1.9857998-1.6221008,1.3204002-5.6465034-3.7392006-4.7588005
		c0.4062004-1.1797028,0.5321999-2.6406021,1.3598995-3.3994026c-1.1474991-1.2803001-2.7725105-0.0917969-3.0596199,1.3604012
		c-5.2431593,1.1015015-3.5615196-10.2940006,1.6997204-6.7989006c0.5307007-1.2635994,2.5951996-0.4696999,3.7392006-0.3397999
		c0.3062,1.2803001,0.4228992,2.75,1.0200996,3.7392025c1.4134998-0.4936028,0.7269993-2.4174023,0.3397999-3.7392025
		c0.4722004-1.7939987,2.3192997-2.2129002,3.3994007-3.3993988c-0.4472008-2.948801,2.9531002-4.3559914,4.7587986-6.118681
		c0.9844017,0.1904297-0.5214996,0.5302696-0.339798,1.0200195c1.3652-0.1079082,2.3319969-0.6142597,2.7196999-1.6997089
		c-0.2812996-0.2231407-1.1914024,0.1650391-1.7002029,0.3398495c-0.2050972-0.127449-0.7792969-1.8071289,0.6797028-1.6997089
		c-0.0674019-1.0371113-2.2236023,1.1054688-2.0391006-0.6796913c1.1679993,0.1440411,2.0479012,0.3422909,3.0596008-0.3403301
		c0.2362976,1.3501015,1.0088005,2.1640606,2.7187004,2.040041c-0.3330002-2.0395508-3.6093025-4.0542002-5.4384003-6.4589863
		c-1.0996017-0.4199219-0.2598,1.1000957-1.3594017,0.6801758c0.1815987-2.2250996-4.625-2.6596699-3.0595989,1.0195303
		c-0.8979015,0.1225595-1.2231007,0.8169003-1.0200005,2.0395498C29.4312,15.5063496,29.6187,14.9633799,29.2549,13.67871
		c-1.7861004,0.0869198-2.3096008-1.0893545-3.3988991-1.6997061c0.6732998-1.716794,2.3343983-2.234374,4.4188995-1.6997042
		c0.0107002-0.62012-0.216301-1.0058594,0.6796989-2.0395498c0.6484013,0.1450205,0.6152,0.9711905,1.6997013,0.6801701
		c0.1679993,1.0742197-1.6865005,0.1259804-1.3593998,1.3593798c1.0449009-0.4335995,1.7646999,0.4160099,3.3994007,1.0200167
		c0.3017998-0.1508799,0.6074982-0.2983398,0.6796989-0.6796865c-0.2490005-0.31738-0.6180992-0.5151396-1.0195007-0.6801796
		c0.0946999-0.7133799,0.9071999,0.4926796,1.3594017-0.3398399c-1.25-1.0166006-2.7451019-1.7871103-4.0791016-2.7192402
		c0.1172009-0.9028301,0.8925018-1.14746,1.6991997-1.3598599c-0.4081993,0.44629-0.1319008,0.5346699,0,1.02002
		c4.2011986,0.0751896,4.2430992,5.4521456,7.8183022,5.09863C40.7471008,9.8964796,40.375,9.5073204,41.4921989,8.2397499
		c-2.2255974-3.52491-8.1133003-3.8139701-12.9169998-2.3793998c0.2207012,0.3456998,0.7817001,0.3515596,0.6797009,1.02002
		C27.8623009,6.96631,26.4155006,5.71387,24.8358994,6.2002001c-0.9520988,0.3339801,0.4937,0.9072199-0.3397999,1.3598599
		c-0.8163986-0.3164101-0.8998985-1.36621-2.3794003-1.0195298c0.9777012-1.2351103,2.3592014-1.9395204,3.8811016-2.3346
		l0.4349995-0.2767901C22.5704002,4.67804,18.9781494,6.1841998,15.8383198,8.3165302z M29.2549,6.2002001
		c0.5347004-1.2426801,0.5083008,0.79003,1.3598003,0.3403301c-0.3803005-0.7065501-0.3661995-0.7202201,0.3398991-0.3403301
		C30.9403992,6.8217802,28.4092007,7.5444298,30.2749004,7.8999c-0.3071003,1.1376996-0.7602997,0.2968802-1.3598995,0
		C28.5487995,7.0317402,30.3784008,6.7104502,29.2549,6.2002001z M27.2152996,7.8999
		c-0.4076996-0.44629-0.1322994-0.5346699,0-1.0195298c0.8959999-0.10254,1.1158009,0.4706998,1.0200996,1.3593798
		c-0.6474991-0.6367197-0.8540993-0.0371103-1.6997986,0C25.9155006,7.9760699,26.7392998,7.8745098,27.2152996,7.8999z"/>
	<path style="fill:#D8DD00;" d="M29.3306999,3.5115399l1.7154007,0.24505
		c0.5571003,0.0134301,1.0986977,0.0371702,1.6082001,0.0642102c0.4211998,0.0223398,0.8420982,0.06036,1.2625008,0.10285
		c-0.9813004-0.3185501-2.0116024-0.53791-2.0116024-0.53791C31.0363007,3.38574,30.1798992,3.43573,29.3306999,3.5115399z"/>
	<path style="fill:#D8DD00;" d="M45.5349998,6.84619c-2.7058983-1.4671597-5.671299-2.5169101-8.8143997-3.0493801
		l0.6002007,0.6858599c3.2094002,0.7308903,6.2165985,2.0009103,8.6086998,3.6097403L46.875,8.25L45.5349998,6.84619z"/>
	<path style="fill:#D8DD00;" d="M46.1077995,7.1588101L47.75,8.625l-0.6138,0.3507099
		c1.6375999,1.3068199,2.8814011,2.7876568,3.5346985,4.3631601c-0.6298981-1.1313505-0.9375-1.8261747-2.3798981-2.7192402
		c0.3495979,1.3496084,1.6610985,1.737792,2.0401001,3.0590801c0.4969978-0.7885733,1.0770988,0.6640596,1.0195007-0.6796865
		c0.4559975,0.2236366,0.6327972,0.7265663,0.6796989,1.3593769c1.2574997,0.4244995,2.1758003,1.2235699,2.8642006,2.27771
		c0.033699-0.1938496,0.0909004-0.3874512,0.1748009-0.578001c0.5222969,0.8508301,0.8778,1.3530216,1.149498,1.9194908
		c-0.0523987-0.3931293-0.0750999-0.8065796-0.0798988-1.1873207C53.6348991,12.8179321,50.1929016,9.4958496,46.1077995,7.1588101z
		"/>
	<path style="fill:#D8DD00;" d="M57.6128998,19.4172993C57.4547997,19.6872597,57.2056999,19.8145809,56.8125,19.5
		c-0.0491982-0.0393696-0.0931015-0.0897808-0.1357002-0.1427593c0.0313988,0.140379,0.0628014,0.2786884,0.092701,0.4401188
		c-0.237999-0.0893497-0.4587021-0.2263794-0.6683006-0.3821392c1.4760017,5.1280804,0.8280983,12.637579,3.4076004,16.6990795
		c-0.0100021,0.073101-0.0247002,0.1436005-0.035202,0.2164001c0.1879997,0.0112,0.4682007-0.3060989,0.8181-1.7056999
		c0.0545998-0.2181015,0.1165009-0.4080009,0.1767998-0.6041985c0.0458031-0.6609001,0.0728035-1.3271027,0.0728035-1.9998016
		C60.5413017,27.4955006,59.4827003,23.2208996,57.6128998,19.4172993z"/>
	<path style="fill:#D8DD00;" d="M56.6767998,19.3572407c-0.1282005-0.5739098-0.2742004-0.996521-0.4580002-1.3796406
		C56.293499,18.5388203,56.4319,19.0523109,56.6767998,19.3572407z"/>
</g>
<g>
</g>
<g>
</g>
<g>
</g>
<g>
</g>
<g>
</g>
<g>
</g>
</svg>
