<?xml version="1.0" encoding="UTF-8" standalone="no"?>
<!-- Generator: Adobe Illustrator 15.0.0, SVG Export Plug-In . SVG Version: 6.00 Build 0)  -->

<svg
   xmlns:dc="http://purl.org/dc/elements/1.1/"
   xmlns:cc="http://creativecommons.org/ns#"
   xmlns:rdf="http://www.w3.org/1999/02/22-rdf-syntax-ns#"
   xmlns:svg="http://www.w3.org/2000/svg"
   xmlns="http://www.w3.org/2000/svg"
   xmlns:sodipodi="http://sodipodi.sourceforge.net/DTD/sodipodi-0.dtd"
   xmlns:inkscape="http://www.inkscape.org/namespaces/inkscape"
   version="1.1"
   id="レイヤー_1"
   x="0px"
   y="0px"
   width="64px"
   height="64px"
   viewBox="0 0 64 64"
   style="enable-background:new 0 0 64 64;"
   xml:space="preserve"
   inkscape:version="0.48.4 r9939"
   sodipodi:docname="eight.svg"><metadata
     id="metadata44"><rdf:RDF><cc:Work
         rdf:about=""><dc:format>image/svg+xml</dc:format><dc:type
           rdf:resource="http://purl.org/dc/dcmitype/StillImage" /></cc:Work></rdf:RDF></metadata><defs
     id="defs42" /><sodipodi:namedview
     pagecolor="#ffffff"
     bordercolor="#666666"
     borderopacity="1"
     objecttolerance="10"
     gridtolerance="10"
     guidetolerance="10"
     inkscape:pageopacity="0"
     inkscape:pageshadow="2"
     inkscape:window-width="640"
     inkscape:window-height="480"
     id="namedview40" /><g
     id="g3"><g
       id="g5"><linearGradient
         id="SVGID_1_"
         gradientUnits="userSpaceOnUse"
         x1="306"
         y1="-303.6201172"
         x2="306"
         y2="-356.3798828"
         gradientTransform="matrix(1 0 0 -1 -274 -298)"><stop
           offset="0"
           style="stop-color:#9FE1FF"
           id="stop8" /><stop
           offset="0.2621"
           style="stop-color:#60A1CE"
           id="stop10" /><stop
           offset="0.5708"
           style="stop-color:#1B5B97"
           id="stop12" /><stop
           offset="0.7151999"
           style="stop-color:#004082"
           id="stop14" /><stop
           offset="0.7693999"
           style="stop-color:#004487"
           id="stop16" /><stop
           offset="0.8311"
           style="stop-color:#005094"
           id="stop18" /><stop
           offset="0.8963"
           style="stop-color:#0064AB"
           id="stop20" /><stop
           offset="0.9636"
           style="stop-color:#0080CB"
           id="stop22" /><stop
           offset="1"
           style="stop-color:#0092DF"
           id="stop24" /></linearGradient><path
         style="fill:url(#SVGID_1_);"
         d="M58.4169922,50.3798828c0,4.4003906-3.6005859,8-8,8H13.5830078    c-4.4003906,0-8-3.5996094-8-8V13.6201172c0-4.4003906,3.5996094-8,8-8h36.8339844c4.3994141,0,8,3.5996094,8,8V50.3798828z"
         id="path26" /></g><g
       id="g28"><path
         style="fill:#FFFFFF;"
         d="M26.1337891,30.8105469c-2.9511719-1.7177734-4.5371094-4.4931641-4.5371094-7.2246094    c0-5.6826172,4.7578125-9.2509766,10.7919922-9.2509766c6.6962891,0,10.1318359,4.0976563,10.1318359,8.5029297    c0,2.5546875-1.4101563,5.5058594-4.6699219,7.3564453v0.0878906c3.0410156,1.4101563,5.7265625,4.2294922,5.7265625,8.4140625    c0,6.2558594-4.8457031,10.0878906-11.6728516,10.0878906c-7.3564453,0-11.2763672-4.2724609-11.2763672-9.2949219    c0-4.0087891,2.3339844-6.9160156,5.5058594-8.5898438V30.8105469z M35.8681641,39.2695313    c0-2.8642578-1.9824219-4.9345703-4.3164063-5.7275391c-1.9814453,0.8369141-3.2148438,2.9082031-3.2148438,5.2861328    c0,2.4677734,1.4091797,4.8017578,3.7880859,4.8017578C34.6357422,43.6298828,35.8681641,41.4716797,35.8681641,39.2695313z     M28.8652344,23.234375c0,2.1142578,1.5419922,3.8759766,3.7880859,4.7568359    c1.453125-0.5283203,2.7304688-2.5546875,2.7304688-4.4492188c0-2.0263672-0.8359375-4.140625-3.2148438-4.140625    C29.4824219,19.4013672,28.8652344,21.6484375,28.8652344,23.234375z"
         id="path30" /></g><g
       style="opacity:0.22;"
       id="g32"><path
         style="fill:#FFFFFF;"
         d="M5.5830078,26.3730469C12.9638672,28.7558594,22.1025391,32.4990234,32,32.4990234    s19.0361328-3.7431641,26.4169922-6.1259766c0,0,2.1035156-13.8359375-1.9179688-18.2705078    C45.6943359,2.7431641,19.0878906,4.7490234,8.25,7.5244141C3.8261719,11.6171875,5.5830078,26.3730469,5.5830078,26.3730469z"
         id="path34" /></g><g
       id="g36"><path
         style="fill:#057CDD;"
         d="M50.4169922,59.3798828H13.5830078c-4.9628906,0-9-4.0371094-9-9V13.6201172    c0-4.9628906,4.0371094-9,9-9h36.8339844c4.9628906,0,9,4.0371094,9,9v36.7597656    C59.4169922,55.3427734,55.3798828,59.3798828,50.4169922,59.3798828z M13.5830078,6.6201172c-3.8603516,0-7,3.1396484-7,7    v36.7597656c0,3.859375,3.1396484,7,7,7h36.8339844c3.859375,0,7-3.140625,7-7V13.6201172c0-3.8603516-3.140625-7-7-7H13.5830078z    "
         id="path38" /></g></g></svg>