<?xml version="1.0" encoding="UTF-8" standalone="no"?>
<!-- Generator: Adobe Illustrator 16.0.0, SVG Export Plug-In . SVG Version: 6.00 Build 0)  -->

<svg
   xmlns:dc="http://purl.org/dc/elements/1.1/"
   xmlns:cc="http://creativecommons.org/ns#"
   xmlns:rdf="http://www.w3.org/1999/02/22-rdf-syntax-ns#"
   xmlns:svg="http://www.w3.org/2000/svg"
   xmlns="http://www.w3.org/2000/svg"
   xmlns:sodipodi="http://sodipodi.sourceforge.net/DTD/sodipodi-0.dtd"
   xmlns:inkscape="http://www.inkscape.org/namespaces/inkscape"
   version="1.1"
   id="Layer_31_copy_8"
   x="0px"
   y="0px"
   width="64px"
   height="64px"
   viewBox="0 0 64 64"
   enable-background="new 0 0 64 64"
   xml:space="preserve"
   inkscape:version="0.91 r13725"
   sodipodi:docname="eject_button.svg"><metadata
     id="metadata72"><rdf:RDF><cc:Work
         rdf:about=""><dc:format>image/svg+xml</dc:format><dc:type
           rdf:resource="http://purl.org/dc/dcmitype/StillImage" /></cc:Work></rdf:RDF></metadata><defs
     id="defs70"><radialGradient
       id="SVGID_3_-6"
       cx="32.224098"
       cy="54.597698"
       r="18.300501"
       gradientUnits="userSpaceOnUse"><stop
         offset="0"
         style="stop-color:#f0f0f0;stop-opacity:1"
         id="stop26-2" /><stop
         offset="1"
         style="stop-color:#999999;stop-opacity:1"
         id="stop28-9" /></radialGradient><radialGradient
       id="SVGID_2_-5"
       cx="32.224098"
       cy="9.0292997"
       r="21.0683"
       gradientUnits="userSpaceOnUse"><stop
         offset="0"
         style="stop-color:#ffffff;stop-opacity:1"
         id="stop19-3" /><stop
         offset="1"
         style="stop-color:#999999;stop-opacity:1"
         id="stop21-5" /></radialGradient><radialGradient
       id="SVGID_1_-3"
       cx="32.224098"
       cy="32.201199"
       r="29.6558"
       gradientUnits="userSpaceOnUse"><stop
         offset="0"
         style="stop-color:#e6e6e6;stop-opacity:1"
         id="stop8-6" /><stop
         offset="1"
         style="stop-color:#808080;stop-opacity:1"
         id="stop10-7" /></radialGradient></defs><sodipodi:namedview
     pagecolor="#ffffff"
     bordercolor="#666666"
     borderopacity="1"
     objecttolerance="10"
     gridtolerance="10"
     guidetolerance="10"
     inkscape:pageopacity="0"
     inkscape:pageshadow="2"
     inkscape:window-width="1920"
     inkscape:window-height="1017"
     id="namedview68"
     showgrid="false"
     inkscape:zoom="10.429825"
     inkscape:cx="9.9816422"
     inkscape:cy="31.925448"
     inkscape:window-x="0"
     inkscape:window-y="26"
     inkscape:window-maximized="1"
     inkscape:current-layer="g50" /><g
     id="g3"><radialGradient
       id="SVGID_1_"
       cx="32.2241"
       cy="32.2012"
       r="29.6558"
       gradientUnits="userSpaceOnUse"><stop
         offset="0"
         style="stop-color:#DFF0F9"
         id="stop8" /><stop
         offset="1"
         style="stop-color:#008CCD"
         id="stop10" /></radialGradient><radialGradient
       id="SVGID_2_"
       cx="32.2241"
       cy="9.0293"
       r="21.0683"
       gradientUnits="userSpaceOnUse"><stop
         offset="0"
         style="stop-color:#DFF0F9"
         id="stop19" /><stop
         offset="1"
         style="stop-color:#00B4EB"
         id="stop21" /></radialGradient><radialGradient
       id="SVGID_3_"
       cx="32.2241"
       cy="54.5977"
       r="18.3005"
       gradientUnits="userSpaceOnUse"><stop
         offset="0"
         style="stop-color:#DFF0F9"
         id="stop26" /><stop
         offset="1"
         style="stop-color:#00B4EB"
         id="stop28" /></radialGradient><path
       inkscape:connector-curvature="0"
       stroke-miterlimit="10"
       d="m 54.396,6.526 -44.344,0 c -1.933,0 -3.5,1.567 -3.5,3.5 l 0,44.348 c 0,1.934 1.567,3.501 3.5,3.501 l 44.344,0 c 1.934,0 3.5,-1.567 3.5,-3.501 l 0,-44.347 c 0,-1.933 -1.566,-3.501 -3.5,-3.501 z"
       id="path5"
       style="fill:#2b2b2b;fill-opacity:1;stroke:#2b2b2b;stroke-width:5;stroke-miterlimit:10;stroke-opacity:1" /><path
       style="fill:url(#SVGID_1_-3)"
       inkscape:connector-curvature="0"
       d="m 54.396,6.526 -44.344,0 c -1.933,0 -3.5,1.567 -3.5,3.5 l 0,44.348 c 0,1.934 1.567,3.501 3.5,3.501 l 44.344,0 c 1.934,0 3.5,-1.567 3.5,-3.501 l 0,-44.347 c 0,-1.933 -1.566,-3.501 -3.5,-3.501 z"
       id="path12" /><path
       style="fill:url(#SVGID_2_-5)"
       inkscape:connector-curvature="0"
       d="m 54.396,6.526 -44.344,0 c -1.933,0 -3.5,1.567 -3.5,3.5 l 0,1.506 c 0,-1.933 1.567,-3.5 3.5,-3.5 l 44.344,0 c 1.934,0 3.5,1.567 3.5,3.5 l 0,-1.506 c 0,-1.932 -1.566,-3.5 -3.5,-3.5 z"
       id="path23" /><path
       style="fill:url(#SVGID_3_-6)"
       inkscape:connector-curvature="0"
       d="m 10.052,57.876 44.345,0 c 1.934,0 3.5,-1.567 3.5,-3.501 l 0,-3.056 c 0,1.935 -1.566,3.501 -3.5,3.501 l -44.345,0 c -1.933,0 -3.5,-1.566 -3.5,-3.501 l 0,3.056 c 0,1.934 1.567,3.501 3.5,3.501 z"
       id="path30" /><path
       inkscape:connector-curvature="0"
       d="m 54.396,6.526 -0.697,0 c 1.934,0 3.5,1.567 3.5,3.5 l 0,44.348 c 0,1.934 -1.566,3.501 -3.5,3.501 l 0.697,0 c 1.934,0 3.5,-1.567 3.5,-3.501 l 0,-44.347 c 0,-1.933 -1.566,-3.501 -3.5,-3.501 z"
       id="path14"
       style="fill:#333333" /><path
       d="m 7.252,54.375 0,-44.348 c 0,-1.933 1.567,-3.5 3.5,-3.5 l -0.701,0 c -1.933,0 -3.5,1.567 -3.5,3.5 l 0,36.617068 0,7.730932 c 0,1.934 1.567,3.501 3.5,3.501 l 0.701,0 c -1.932,0 -3.5,-1.567 -3.5,-3.501 z"
       id="path16"
       inkscape:connector-curvature="0"
       style="fill:#333333;stroke:none"
       sodipodi:nodetypes="sscsscsscs" /><g
       id="g32"><g
         id="g34"><g
           id="g36"
           style="fill:#2b2b2b;fill-opacity:1;stroke:#2b2b2b;stroke-opacity:1"><g
             id="g38"
             style="fill:#2b2b2b;fill-opacity:1;stroke:#2b2b2b;stroke-opacity:1"><g
               id="g40"
               style="fill:#2b2b2b;fill-opacity:1;stroke:#2b2b2b;stroke-opacity:1"><path
                 fill="#F5B32C"
                 stroke="#036EB5"
                 stroke-width="5"
                 stroke-miterlimit="10"
                 d="M31.672,16.339L19.528,31.193        c-0.217,0.266-0.281,0.669-0.165,1.018c0.12,0.348,0.397,0.573,0.706,0.573h24.288c0.309,0,0.587-0.226,0.704-0.573        c0.041-0.116,0.06-0.237,0.06-0.357c0-0.242-0.079-0.481-0.225-0.66L32.754,16.339c-0.144-0.176-0.339-0.274-0.544-0.274        C32.008,16.065,31.815,16.164,31.672,16.339z"
                 id="path42"
                 style="fill:#2b2b2b;fill-opacity:1;stroke:#2b2b2b;stroke-opacity:1" /><path
                 fill="#F5B32C"
                 stroke="#036EB5"
                 stroke-width="5"
                 stroke-miterlimit="10"
                 d="M19.304,41.578v4.32        c0,0.514,0.343,0.93,0.766,0.93h24.288c0.421,0,0.764-0.416,0.764-0.93v-4.32c0-0.516-0.343-0.934-0.764-0.934H20.069        C19.646,40.645,19.304,41.063,19.304,41.578z"
                 id="path44"
                 style="fill:#2b2b2b;fill-opacity:1;stroke:#2b2b2b;stroke-opacity:1" /></g></g></g></g><g
         id="g46"><g
           id="g48"><g
             id="g50"><g
               id="g52"
               style="fill:#ffffff"><path
                 d="M31.672,16.339L19.528,31.193c-0.217,0.266-0.281,0.669-0.165,1.018        c0.12,0.348,0.397,0.573,0.706,0.573h24.288c0.309,0,0.587-0.226,0.704-0.573c0.041-0.116,0.06-0.237,0.06-0.357        c0-0.242-0.079-0.481-0.225-0.66L32.754,16.339c-0.144-0.176-0.339-0.274-0.544-0.274        C32.008,16.065,31.815,16.164,31.672,16.339z"
                 id="path54"
                 fill="#F5B32C"
                 style="fill:#ffffff" /><path
                 d="M19.304,41.578v4.32c0,0.514,0.343,0.93,0.766,0.93h24.288c0.421,0,0.764-0.416,0.764-0.93v-4.32        c0-0.516-0.343-0.934-0.764-0.934H20.069C19.646,40.645,19.304,41.063,19.304,41.578z"
                 id="path56"
                 fill="#F5B32C"
                 style="fill:#ffffff" /></g><g
               id="g58"
               style="fill:#2b2b2b;fill-opacity:1"><g
                 id="g60"
                 style="fill:#2b2b2b;fill-opacity:1"><path
                   fill="#FFFFFF"
                   d="M22.181,30.781h20.063L32.21,18.513L22.181,30.781z"
                   id="path62"
                   style="fill:#2b2b2b;fill-opacity:1" /></g><g
                 id="g64"
                 style="fill:#2b2b2b;fill-opacity:1"><path
                   fill="#FFFFFF"
                   d="M43.482,44.834v-2.186H20.943v2.186H43.482z"
                   id="path66"
                   style="fill:#2b2b2b;fill-opacity:1" /></g></g></g></g></g></g></g></svg>