<?xml version="1.0" encoding="utf-8"?>
<!-- Generator: Adobe Illustrator 16.0.0, SVG Export Plug-In . SVG Version: 6.00 Build 0)  -->
<!DOCTYPE svg PUBLIC "-//W3C//DTD SVG 1.1//EN" "http://www.w3.org/Graphics/SVG/1.1/DTD/svg11.dtd">
<svg version="1.1" id="Layer_31_copy_8" xmlns="http://www.w3.org/2000/svg" xmlns:xlink="http://www.w3.org/1999/xlink" x="0px"
	 y="0px" width="64px" height="64px" viewBox="0 0 64 64" enable-background="new 0 0 64 64" xml:space="preserve">
<g>
	<path fill="#182985" stroke="#2C5DA9" stroke-width="5" stroke-miterlimit="10" d="M54.396,6.526H10.052
		c-1.933,0-3.5,1.567-3.5,3.5v44.348c0,1.934,1.567,3.501,3.5,3.501h44.344c1.934,0,3.5-1.567,3.5-3.501V10.027
		C57.896,8.094,56.33,6.526,54.396,6.526z"/>
	<radialGradient id="SVGID_1_" cx="32.2241" cy="32.2012" r="29.6558" gradientUnits="userSpaceOnUse">
		<stop  offset="0" style="stop-color:#DFF0F9"/>
		<stop  offset="1" style="stop-color:#008CCD"/>
	</radialGradient>
	<path fill="url(#SVGID_1_)" d="M54.396,6.526H10.052c-1.933,0-3.5,1.567-3.5,3.5v44.348c0,1.934,1.567,3.501,3.5,3.501h44.344
		c1.934,0,3.5-1.567,3.5-3.501V10.027C57.896,8.094,56.33,6.526,54.396,6.526z"/>
	<path fill="#00B0E7" d="M54.396,6.526h-0.697c1.934,0,3.5,1.567,3.5,3.5v44.348c0,1.934-1.566,3.501-3.5,3.501h0.697
		c1.934,0,3.5-1.567,3.5-3.501V10.027C57.896,8.094,56.33,6.526,54.396,6.526z"/>
	<path fill="#00B0E7" d="M7.252,54.375V10.027c0-1.933,1.567-3.5,3.5-3.5h-0.701c-1.933,0-3.5,1.567-3.5,3.5v44.348
		c0,1.934,1.567,3.501,3.5,3.501h0.701C8.82,57.876,7.252,56.309,7.252,54.375z"/>
	<radialGradient id="SVGID_2_" cx="32.2241" cy="9.0293" r="21.0683" gradientUnits="userSpaceOnUse">
		<stop  offset="0" style="stop-color:#DFF0F9"/>
		<stop  offset="1" style="stop-color:#00B4EB"/>
	</radialGradient>
	<path fill="url(#SVGID_2_)" d="M54.396,6.526H10.052c-1.933,0-3.5,1.567-3.5,3.5v1.506c0-1.933,1.567-3.5,3.5-3.5h44.344
		c1.934,0,3.5,1.567,3.5,3.5v-1.506C57.896,8.094,56.33,6.526,54.396,6.526z"/>
	<radialGradient id="SVGID_3_" cx="32.2241" cy="54.5977" r="18.3005" gradientUnits="userSpaceOnUse">
		<stop  offset="0" style="stop-color:#DFF0F9"/>
		<stop  offset="1" style="stop-color:#00B4EB"/>
	</radialGradient>
	<path fill="url(#SVGID_3_)" d="M10.052,57.876h44.345c1.934,0,3.5-1.567,3.5-3.501v-3.056c0,1.935-1.566,3.501-3.5,3.501H10.052
		c-1.933,0-3.5-1.566-3.5-3.501v3.056C6.552,56.309,8.119,57.876,10.052,57.876z"/>
	<g>
		<g>
			<g>
				<g>
					<g>
						<path fill="#F5B32C" stroke="#036EB5" stroke-width="5" stroke-miterlimit="10" d="M31.672,16.339L19.528,31.193
							c-0.217,0.266-0.281,0.669-0.165,1.018c0.12,0.348,0.397,0.573,0.706,0.573h24.288c0.309,0,0.587-0.226,0.704-0.573
							c0.041-0.116,0.06-0.237,0.06-0.357c0-0.242-0.079-0.481-0.225-0.66L32.754,16.339c-0.144-0.176-0.339-0.274-0.544-0.274
							C32.008,16.065,31.815,16.164,31.672,16.339z"/>
						<path fill="#F5B32C" stroke="#036EB5" stroke-width="5" stroke-miterlimit="10" d="M19.304,41.578v4.32
							c0,0.514,0.343,0.93,0.766,0.93h24.288c0.421,0,0.764-0.416,0.764-0.93v-4.32c0-0.516-0.343-0.934-0.764-0.934H20.069
							C19.646,40.645,19.304,41.063,19.304,41.578z"/>
					</g>
				</g>
			</g>
		</g>
		<g>
			<g>
				<g>
					<g>
						<path fill="#F5B32C" d="M31.672,16.339L19.528,31.193c-0.217,0.266-0.281,0.669-0.165,1.018
							c0.12,0.348,0.397,0.573,0.706,0.573h24.288c0.309,0,0.587-0.226,0.704-0.573c0.041-0.116,0.06-0.237,0.06-0.357
							c0-0.242-0.079-0.481-0.225-0.66L32.754,16.339c-0.144-0.176-0.339-0.274-0.544-0.274
							C32.008,16.065,31.815,16.164,31.672,16.339z"/>
						<path fill="#F5B32C" d="M19.304,41.578v4.32c0,0.514,0.343,0.93,0.766,0.93h24.288c0.421,0,0.764-0.416,0.764-0.93v-4.32
							c0-0.516-0.343-0.934-0.764-0.934H20.069C19.646,40.645,19.304,41.063,19.304,41.578z"/>
					</g>
					<g>
						<g>
							<path fill="#FFFFFF" d="M22.181,30.781h20.063L32.21,18.513L22.181,30.781z"/>
						</g>
						<g>
							<path fill="#FFFFFF" d="M43.482,44.834v-2.186H20.943v2.186H43.482z"/>
						</g>
					</g>
				</g>
			</g>
		</g>
	</g>
</g>
</svg>
