<?xml version="1.0" encoding="UTF-8" standalone="no"?>
<!-- Generator: Adobe Illustrator 18.0.0, SVG Export Plug-In . SVG Version: 6.00 Build 0)  -->

<svg
   xmlns:dc="http://purl.org/dc/elements/1.1/"
   xmlns:cc="http://creativecommons.org/ns#"
   xmlns:rdf="http://www.w3.org/1999/02/22-rdf-syntax-ns#"
   xmlns:svg="http://www.w3.org/2000/svg"
   xmlns="http://www.w3.org/2000/svg"
   xmlns:sodipodi="http://sodipodi.sourceforge.net/DTD/sodipodi-0.dtd"
   xmlns:inkscape="http://www.inkscape.org/namespaces/inkscape"
   version="1.1"
   id="レイヤー_1"
   x="0px"
   y="0px"
   width="64px"
   height="64px"
   viewBox="0 0 64 64"
   style="enable-background:new 0 0 64 64;"
   xml:space="preserve"
   inkscape:version="0.48.5 r10040"
   sodipodi:docname="empty_note_page.svg"><metadata
     id="metadata34"><rdf:RDF><cc:Work
         rdf:about=""><dc:format>image/svg+xml</dc:format><dc:type
           rdf:resource="http://purl.org/dc/dcmitype/StillImage" /></cc:Work></rdf:RDF></metadata><defs
     id="defs32" /><sodipodi:namedview
     pagecolor="#ffffff"
     bordercolor="#666666"
     borderopacity="1"
     objecttolerance="10"
     gridtolerance="10"
     guidetolerance="10"
     inkscape:pageopacity="0"
     inkscape:pageshadow="2"
     inkscape:window-width="640"
     inkscape:window-height="480"
     id="namedview30" /><g
     id="g3"><rect
       x="11.5"
       y="11.5"
       style="fill:#FFFFFF;"
       width="41"
       height="41"
       id="rect5" /><path
       style="fill:#868686;"
       d="M52,12v40H12V12H52 M53,11h-1H12h-1v1v40v1h1h40h1v-1V12V11L53,11z"
       id="path7" /><path
       style="fill:#FFFFFF;"
       d="M52,12v40H12V12H52 M52.5,11.5H52H12h-0.5V12v40v0.5H12h40h0.5V52V12V11.5L52.5,11.5z"
       id="path9" /></g><linearGradient
     id="SVGID_1_"
     gradientUnits="userSpaceOnUse"
     x1="18.3397465"
     y1="55.6602554"
     x2="45.6602554"
     y2="8.3397455"><stop
       offset="0.7699115"
       style="stop-color:#3E3A39;stop-opacity:0"
       id="stop12" /><stop
       offset="1"
       style="stop-color:#3E3A39;stop-opacity:0.1"
       id="stop14" /></linearGradient><rect
     x="12"
     y="12"
     style="fill:url(#SVGID_1_);"
     width="40"
     height="40"
     id="rect16" /><g
     id="g18" /><g
     id="g20" /><g
     id="g22" /><g
     id="g24" /><g
     id="g26" /><g
     id="g28" /></svg>