<?xml version="1.0" encoding="utf-8"?>
<!-- Generator: Adobe Illustrator 18.0.0, SVG Export Plug-In . SVG Version: 6.00 Build 0)  -->
<!DOCTYPE svg PUBLIC "-//W3C//DTD SVG 1.1//EN" "http://www.w3.org/Graphics/SVG/1.1/DTD/svg11.dtd">
<svg version="1.1" id="レイヤー_1" xmlns="http://www.w3.org/2000/svg" xmlns:xlink="http://www.w3.org/1999/xlink" x="0px"
	 y="0px" width="64px" height="64px" viewBox="0 0 64 64" style="enable-background:new 0 0 64 64;" xml:space="preserve">
<g>
	<rect x="11.5" y="11.5" style="fill:#FFFFFF;" width="41" height="41"/>
	<path style="fill:#868686;" d="M52,12v40H12V12H52 M53,11h-1H12h-1v1v40v1h1h40h1v-1V12V11L53,11z"/>
	<path style="fill:#FFFFFF;" d="M52,12v40H12V12H52 M52.5,11.5H52H12h-0.5V12v40v0.5H12h40h0.5V52V12V11.5L52.5,11.5z"/>
</g>
<linearGradient id="SVGID_1_" gradientUnits="userSpaceOnUse" x1="18.3397465" y1="55.6602554" x2="45.6602554" y2="8.3397455">
	<stop  offset="0.7699115" style="stop-color:#3E3A39;stop-opacity:0"/>
	<stop  offset="1" style="stop-color:#3E3A39;stop-opacity:0.1"/>
</linearGradient>
<rect x="12" y="12" style="fill:url(#SVGID_1_);" width="40" height="40"/>
<g>
</g>
<g>
</g>
<g>
</g>
<g>
</g>
<g>
</g>
<g>
</g>
</svg>
