<?xml version="1.0" encoding="utf-8"?>
<!-- Generator: Adobe Illustrator 15.0.2, SVG Export Plug-In . SVG Version: 6.00 Build 0)  -->
<!DOCTYPE svg PUBLIC "-//W3C//DTD SVG 1.1//EN" "http://www.w3.org/Graphics/SVG/1.1/DTD/svg11.dtd">
<svg version="1.1" id="レイヤー_1" xmlns="http://www.w3.org/2000/svg" xmlns:xlink="http://www.w3.org/1999/xlink" x="0px"
	 y="0px" width="64px" height="64px" viewBox="0 0 64 64" enable-background="new 0 0 64 64" xml:space="preserve">
<g>
	<polygon points="60.516,20.924 18.709,20.923 18.709,14.818 3.484,25.587 18.709,36.354 18.709,30.249 60.516,30.249 	"/>
	<g>
		<path d="M32.247,49.049H23.88V34.316h8.081v2.801h-4.726v2.955h4.479v2.744h-4.479v3.43h5.012V49.049z"/>
		<path d="M45.265,49.049H41.93l-2.573-5.355c-0.686-1.41-1.524-3.336-2.058-4.859h-0.077c0.096,1.715,0.172,3.963,0.172,6.594
			v3.621h-3.011V34.316h3.583l2.516,5.279c0.667,1.314,1.467,3.201,2.02,4.688h0.038c-0.171-1.715-0.285-4.021-0.285-6.461v-3.506
			h3.011V49.049z"/>
		<path d="M47.973,34.525c1.01-0.172,2.401-0.305,3.868-0.305c2.439,0,4.041,0.477,5.279,1.449c1.43,1.162,2.249,3.029,2.249,5.736
			c0,3.145-1.086,5.068-2.306,6.117c-1.315,1.125-3.316,1.658-5.87,1.658c-1.43,0-2.516-0.113-3.221-0.209V34.525z M51.308,46.475
			c0.21,0.039,0.533,0.039,0.8,0.039c2.192,0.02,3.755-1.449,3.755-5.088c0-3.068-1.41-4.594-3.525-4.594
			c-0.477,0-0.801,0.039-1.029,0.096V46.475z"/>
	</g>
</g>
</svg>
