<?xml version="1.0" encoding="utf-8"?>
<!-- Generator: Adobe Illustrator 15.0.2, SVG Export Plug-In . SVG Version: 6.00 Build 0)  -->
<!DOCTYPE svg PUBLIC "-//W3C//DTD SVG 1.1//EN" "http://www.w3.org/Graphics/SVG/1.1/DTD/svg11.dtd">
<svg version="1.1" id="レイヤー_1" xmlns="http://www.w3.org/2000/svg" xmlns:xlink="http://www.w3.org/1999/xlink" x="0px"
	 y="0px" width="64px" height="64px" viewBox="0 0 64 64" enable-background="new 0 0 64 64" xml:space="preserve">
<g>
	<g>
		
			<linearGradient id="SVGID_1_" gradientUnits="userSpaceOnUse" x1="-2.3149" y1="-7.2578" x2="34.2157" y2="25.7635" gradientTransform="matrix(0 1 -1 0 61.2891 13.2896)">
			<stop  offset="0" style="stop-color:#FFFFFF"/>
			<stop  offset="0.286" style="stop-color:#FFF8E7"/>
			<stop  offset="0.8856" style="stop-color:#FFE7AB"/>
			<stop  offset="1" style="stop-color:#FFE49F"/>
		</linearGradient>
		
			<rect x="37.288" y="13.562" fill="url(#SVGID_1_)" stroke="#260E00" stroke-width="0.7316" stroke-miterlimit="1" width="24.506" height="36.878"/>
		
			<linearGradient id="SVGID_2_" gradientUnits="userSpaceOnUse" x1="7.2534" y1="11.9878" x2="28.1369" y2="28.9017" gradientTransform="matrix(0 1 -1 0 61.2891 13.2896)">
			<stop  offset="0" style="stop-color:#FFFFFF"/>
			<stop  offset="0.286" style="stop-color:#FFF8E7"/>
			<stop  offset="0.8856" style="stop-color:#FFE7AB"/>
			<stop  offset="1" style="stop-color:#FFE49F"/>
		</linearGradient>
		<polygon fill="url(#SVGID_2_)" stroke="#260E00" stroke-width="0.7316" stroke-miterlimit="1" points="37.288,13.465 57.767,32 
			37.288,50.535 		"/>
		<g>
			
				<linearGradient id="SVGID_3_" gradientUnits="userSpaceOnUse" x1="12.4507" y1="-5.7168" x2="34.3102" y2="15.2225" gradientTransform="matrix(0 1 -1 0 61.2891 13.2896)">
				<stop  offset="0" style="stop-color:#FFFFFF"/>
				<stop  offset="0.286" style="stop-color:#FFF8E7"/>
				<stop  offset="0.8856" style="stop-color:#FFE7AB"/>
				<stop  offset="1" style="stop-color:#FFE49F"/>
			</linearGradient>
			<path fill="url(#SVGID_3_)" d="M61.794,16.323c0-1.519-0.879-1.795-1.952-0.615L46.881,29.951c-1.073,1.18-1.073,3.112,0,4.291
				l12.961,14.244c1.073,1.18,1.952,0.902,1.952-0.616V16.323z"/>
			<path fill="none" stroke="#260E00" stroke-width="0.7316" stroke-miterlimit="1" d="M61.794,13.563L46.881,29.951
				c-1.073,1.18-1.073,3.112,0,4.291l14.913,16.197V13.563z"/>
		</g>
	</g>
	<polygon fill="#FF0000" points="1.878,28 21.815,28 21.815,22.766 34.871,32 21.815,41.234 21.815,35.998 1.878,35.998 	"/>
</g>
</svg>
