<?xml version="1.0" encoding="utf-8"?>
<!-- Generator: Adobe Illustrator 15.0.2, SVG Export Plug-In . SVG Version: 6.00 Build 0)  -->
<!DOCTYPE svg PUBLIC "-//W3C//DTD SVG 1.1//EN" "http://www.w3.org/Graphics/SVG/1.1/DTD/svg11.dtd">
<svg version="1.1" id="レイヤー_1" xmlns="http://www.w3.org/2000/svg" xmlns:xlink="http://www.w3.org/1999/xlink" x="0px"
	 y="0px" width="64px" height="64px" viewBox="0 0 64 64" style="enable-background:new 0 0 64 64;" xml:space="preserve">
<g>
	<g>
		<linearGradient id="SVGID_1_" gradientUnits="userSpaceOnUse" x1="1.5424805" y1="4.4682617" x2="54.4594116" y2="52.3016777">
			<stop  offset="0" style="stop-color:#FFFFFF"/>
			<stop  offset="0.2503247" style="stop-color:#FEFAED"/>
			<stop  offset="0.7747476" style="stop-color:#FBE8B8"/>
			<stop  offset="1" style="stop-color:#FAE09E"/>
		</linearGradient>
		<rect x="5.2910156" y="14.25" style="fill:url(#SVGID_1_);" width="53.4179688" height="35.5"/>
		<path style="fill:#251004;" d="M58.7089844,50.2802734H5.2910156c-0.2924805,0-0.5297852-0.2373047-0.5297852-0.5302734v-35.5
			c0-0.2924805,0.2373047-0.5297852,0.5297852-0.5297852h53.4179688c0.2929688,0,0.5302734,0.2373047,0.5302734,0.5297852v35.5
			C59.2392578,50.0429688,59.0019531,50.2802734,58.7089844,50.2802734z M5.8208008,49.2197266h52.3579102V14.7797852H5.8208008
			V49.2197266z"/>
	</g>
	<g>
		<linearGradient id="SVGID_2_" gradientUnits="userSpaceOnUse" x1="15.4042969" y1="32.3486328" x2="45.6555023" y2="56.8496857">
			<stop  offset="0" style="stop-color:#FFFFFF"/>
			<stop  offset="0.2503247" style="stop-color:#FEFAED"/>
			<stop  offset="0.7747476" style="stop-color:#FBE8B8"/>
			<stop  offset="1" style="stop-color:#FAE09E"/>
		</linearGradient>
		<polygon style="fill:url(#SVGID_2_);" points="5.1513672,49.75 32,20.0844727 58.8486328,49.75 		"/>
		<path style="fill:#251004;" d="M58.8486328,50.2802734H5.1513672l-0.3930664-0.8857422l26.8486328-29.6655273h0.7861328
			l26.8481445,29.6655273L58.8486328,50.2802734z M6.3457031,49.2197266h51.3085938L32,20.8740234L6.3457031,49.2197266z"/>
	</g>
	<g>
		<linearGradient id="SVGID_3_" gradientUnits="userSpaceOnUse" x1="22.9321289" y1="6.7001953" x2="54.5986137" y2="37.0336494">
			<stop  offset="0" style="stop-color:#FFFFFF"/>
			<stop  offset="0.2503247" style="stop-color:#FEFAED"/>
			<stop  offset="0.7747476" style="stop-color:#FBE8B8"/>
			<stop  offset="1" style="stop-color:#FAE09E"/>
		</linearGradient>
		<path style="fill:url(#SVGID_3_);" d="M9.2910156,14.25c-2.2001953,0-2.6015625,1.2729492-0.8916016,2.8286133
			l20.6328125,18.7739258c1.7089844,1.5546875,4.5068359,1.5546875,6.2158203,0l20.6328125-18.7739258
			C57.5908203,15.5229492,57.1894531,14.25,54.9892578,14.25H9.2910156z"/>
		<path style="fill:#251004;" d="M32.1401367,37.5488281c-1.3095703,0-2.5400391-0.4638672-3.4643555-1.3046875
			L4.9345703,14.6420898l0.3564453-0.921875h53.4179688l0.359375,0.9194336L35.6074219,36.2421875
			C34.6806641,37.0849609,33.4501953,37.5488281,32.1401367,37.5488281z M6.6606445,14.7797852l22.7280273,20.6811523
			c1.4580078,1.3261719,4.0458984,1.3261719,5.5029297,0l22.4599609-20.6811523H6.6606445z"/>
	</g>
</g>
</svg>
