<?xml version="1.0" encoding="UTF-8"?>
<!-- Generated by phantom_svg. -->
<svg width="64px" height="64px" viewBox="0 0 64 64" preserveAspectRatio="none" xmlns="http://www.w3.org/2000/svg" xmlns:xlink="http://www.w3.org/1999/xlink" version="1.1">
  <linearGradient id="SVGID_1_" gradientUnits="userSpaceOnUse" x1="18.012104" y1="-4.9007359" x2="45.1785355" y2="66.7657013">
    <stop offset='0' style='stop-color:#FFBD3B'/>
    <stop offset='0.4630186' style='stop-color:#FFA945'/>
    <stop offset='1' style='stop-color:#FF8C52'/>
  </linearGradient>
  <circle style="fill:url(#SVGID_1_);" cx="31.9999809" cy="32" r="28.9443207"/>
  <path style="fill:#87432B;" d="M32.0009766,61.3291016C15.828125,61.3291016,2.6708984,48.171875,2.6708984,32
	c0-16.1723633,13.1572266-29.3291016,29.3300781-29.3291016c16.171875,0,29.328125,13.1567383,29.328125,29.3291016
	C61.3291016,48.171875,48.1728516,61.3291016,32.0009766,61.3291016z M32.0009766,5.1708984
	C17.2070313,5.1708984,5.1708984,17.206543,5.1708984,32c0,14.7939453,12.0361328,26.8291016,26.8300781,26.8291016
	c14.7929688,0,26.828125-12.0351563,26.828125-26.8291016C58.8291016,17.206543,46.7939453,5.1708984,32.0009766,5.1708984z"/>
  <path style="fill:#541715;" d="M32,62.1933594C15.3505859,62.1933594,1.8056641,48.6484375,1.8056641,32
	S15.3505859,1.8066406,32,1.8066406S62.1943359,15.3515625,62.1943359,32S48.6494141,62.1933594,32,62.1933594z M32,4.3066406
	C16.7294922,4.3066406,4.3056641,16.7299805,4.3056641,32c0,15.2705078,12.4238281,27.6933594,27.6943359,27.6933594
	S59.6943359,47.2705078,59.6943359,32C59.6943359,16.7299805,47.2705078,4.3066406,32,4.3066406z"/>
  <rect x="30.7131405" y="39.1203995" transform="matrix(0.1334858 0.9910507 -0.9910507 0.1334858 74.1013107 8.459691)" style="fill:#330200;" width="2.9994996" height="14.9701385"/>
  <g>
    <g>
      <path style='fill:#FFFFFF;' d='M10.8900995,25.0170994c0,4.6982002,3.8081007,8.3794003,8.5073996,8.3794003
			c4.700201,0,8.5083008-3.6187,8.5083008-8.3169003C27.9057999,23.0884991,27.2171993,21,26.0720997,20h-13.3483
			C11.5787001,21,10.8900995,23.0259991,10.8900995,25.0170994z'/>
      <path style='fill:#330100;' d='M19.3974609,34.3964844c-5.3310547,0-9.5073242-4.1201172-9.5073242-9.3793945
			c0-2.3510742,0.8540039-4.6162109,2.1757813-5.7705078L12.3486328,19h14.0986328l0.2827148,0.246582
			c1.3217773,1.1542969,2.1757813,3.4438477,2.1757813,5.8330078
			C28.9057617,30.3041992,24.7290039,34.3964844,19.3974609,34.3964844z M13.1367188,21
			c-0.7451172,0.855957-1.246582,2.4404297-1.246582,4.0170898c0,4.1381836,3.2978516,7.3793945,7.5073242,7.3793945
			c4.2104492,0,7.5083008-3.2138672,7.5083008-7.3168945c0-1.6103516-0.5014648-3.2192383-1.2470703-4.0795898H13.1367188z'/>
    </g>
    <g>
      <path style='fill:#FFFFFF;' d='M37.9272995,20c-1.1449013,1-1.8334999,3.0258999-1.8334999,5.0170994
			c0,4.6982002,3.8085022,8.3813,8.5078011,8.3813c4.7010994,0,8.5078011-3.6205997,8.5078011-8.3188
			C53.1094017,23.0883999,52.4210014,21,51.2764015,20H37.9272995z'/>
      <path style='fill:#330100;' d='M44.6015625,34.3984375c-5.2421875,0-9.5078125-4.2084961-9.5078125-9.3813477
			c0-2.3510742,0.8544922-4.6162109,2.1767578-5.7705078L37.5527344,19h14.0986328l0.2832031,0.2470703
			c1.3212891,1.1542969,2.1748047,3.4438477,2.1748047,5.8325195C54.109375,30.3051758,49.9326172,34.3984375,44.6015625,34.3984375
			z M38.3408203,21c-0.7451172,0.855957-1.2470703,2.4404297-1.2470703,4.0170898
			c0,4.1391602,3.2978516,7.3813477,7.5078125,7.3813477s7.5078125-3.2148438,7.5078125-7.3188477
			c0-1.6103516-0.5009766-3.2192383-1.2470703-4.0795898H38.3408203z'/>
    </g>
  </g>
  <path style="fill:#330100;" d="M26.3477001,22.5181007c0,2.1791992-1.7670994,3.9457989-3.950201,3.9457989
	c-2.1801987,0-3.9496994-1.7665997-3.9496994-3.9457989c0-2.1817017,1.7695007-2.9517002,3.9496994-2.9517002
	C24.5806007,19.5664005,26.3477001,20.3363991,26.3477001,22.5181007z"/>
  <path style="fill:#330100;" d="M51.5527,22.5170994c0,2.1816006-1.7675018,3.9468002-3.9510994,3.9468002
	c-2.1796989,0-3.9492989-1.7651997-3.9492989-3.9468002c0-2.1816998,1.7695999-2.9517002,3.9492989-2.9517002
	C49.7851982,19.5653992,51.5527,20.3353996,51.5527,22.5170994z"/>
  <g>
  </g>
  <g>
  </g>
  <g>
  </g>
  <g>
  </g>
  <g>
  </g>
  <g>
  </g>
</svg>