<?xml version="1.0" encoding="iso-8859-1"?>
<!-- Generator: Adobe Illustrator 16.0.0, SVG Export Plug-In . SVG Version: 6.00 Build 0)  -->
<!DOCTYPE svg PUBLIC "-//W3C//DTD SVG 1.1//EN" "http://www.w3.org/Graphics/SVG/1.1/DTD/svg11.dtd">
<svg version="1.1" xmlns="http://www.w3.org/2000/svg" xmlns:xlink="http://www.w3.org/1999/xlink" x="0px" y="0px" width="64px"
	 height="64px" viewBox="0 0 64 64" style="enable-background:new 0 0 64 64;" xml:space="preserve">
<g id="fairy_x28_p_x29_">
	<g id="fairy_x28_p_x29__1_">
		<g id="g206">
			<g id="g6_2_">
				<path id="path2_2_" style="fill:#B9E4F9;" d="M31.184,43.82c-1.585-2.908-2.181-3.532-6.146-5.401
					c-3.967-1.871-8.527,1.248-15.665-6.647c0,0,6.616,21.648,18.044,17.656C33.365,47.352,31.184,43.82,31.184,43.82z"/>
				<path id="path4_2_" style="fill:#7ED3F7;" d="M14.663,38.771c2.315,4.254,5.731,8.646,9.964,8.647c0.001,0,0.002,0,0.002,0
					c0.729,0,1.479-0.133,2.23-0.396c2.369-0.828,2.677-1.692,2.679-1.701c-0.001-0.002-0.007-0.018-0.013-0.036
					c-0.018-0.022,0.014,0.013-0.035-0.076c-1.281-2.351-1.479-2.711-5.184-4.457c-0.96-0.453-2.09-0.532-3.399-0.623
					C19.172,40.01,17.085,39.864,14.663,38.771z"/>
			</g>
			<g id="g12_2_">
				<path id="path8_2_" style="fill:#B9E4F9;" d="M31.031,49.029c-0.959,2.189-1.342,2.697-4.004,4.537
					c-2.664,1.841-5.984,0.418-10.559,6.772c0,0,3.539-15.511,11.672-14.517C32.373,46.338,31.031,49.029,31.031,49.029z"/>
				<path id="path10_2_" style="fill:#7ED3F7;" d="M28.416,48.421c-0.201-0.047-0.424-0.086-0.67-0.114
					c-2.732-0.336-4.861,2.064-6.385,4.848c0.963-0.43,1.84-0.678,2.619-0.896c0.885-0.248,1.584-0.444,2.135-0.827
					c2.012-1.391,2.309-1.668,2.846-2.839C28.83,48.538,28.652,48.479,28.416,48.421z"/>
			</g>
			<g id="g18_2_">
				<path id="path14_2_" style="fill:#B9E4F9;" d="M32.971,49.029c0.959,2.189,1.34,2.697,4.006,4.537
					c2.66,1.841,5.981,0.418,10.557,6.772c0,0-3.541-15.511-11.674-14.517C31.626,46.338,32.971,49.029,32.971,49.029z"/>
				<path id="path16_2_" style="fill:#7ED3F7;" d="M34.416,47.518c0.426,0.932,0.662,1.15,2.262,2.256
					c0.438,0.305,0.992,0.461,1.695,0.658c0.619,0.172,3.305,2.293,4.268,2.723c-1.524-2.782-5.088-6.131-7.26-5.864
					c-0.195,0.022-0.373,0.056-0.531,0.092C34.66,47.426,34.52,47.475,34.416,47.518z"/>
			</g>
			<g id="g24_2_">
				<path id="path20_2_" style="fill:#B9E4F9;" d="M32.816,43.82c1.586-2.908,2.18-3.532,6.145-5.401
					c3.967-1.871,8.527,1.248,15.666-6.647c0,0-6.617,21.648-18.045,17.656C30.634,47.352,32.816,43.82,32.816,43.82z"/>
				<path id="path22_2_" style="fill:#7ED3F7;" d="M43.094,40.13c-1.311,0.091-2.439,0.17-3.4,0.623
					c-3.705,1.746-3.899,2.106-5.184,4.457c-0.047,0.089-0.018,0.054-0.035,0.076c-0.006,0.019-0.012,0.034-0.012,0.036
					c0.002,0.009,0.311,0.873,2.68,1.701c0.75,0.263,1.5,0.396,2.229,0.396c0,0,0,0,0.002,0c4.231-0.001,7.647-4.394,9.965-8.647
					C46.914,39.864,44.828,40.01,43.094,40.13z"/>
			</g>
			<g id="g204">
				<g id="g193">
					<path id="path26_2_" style="fill:#F09400;stroke:#231815;stroke-width:1.5423;stroke-miterlimit:10;" d="M47.643,21.765
						c0,8.486-7.004,15.361-15.642,15.361c-8.642,0-15.645-6.875-15.645-15.361c0-8.487,7.003-15.369,15.645-15.369
						C40.639,6.396,47.643,13.278,47.643,21.765z"/>
					
						<radialGradient id="path35_1_" cx="314.9492" cy="-315.4648" r="0.5042" gradientTransform="matrix(1 0 0 -1 -274 -298)" gradientUnits="userSpaceOnUse">
						<stop  offset="0" style="stop-color:#E0CAAB"/>
						<stop  offset="0.6633" style="stop-color:#9E6C2A"/>
						<stop  offset="0.8265" style="stop-color:#8A581E"/>
						<stop  offset="1" style="stop-color:#653D14"/>
					</radialGradient>
					<path id="path35_4_" style="fill:url(#path35_1_);" d="M46.916,21.765c0,8.093-6.68,14.647-14.916,14.647
						c-8.24,0-14.919-6.554-14.919-14.647c0-8.094,6.679-14.656,14.919-14.656C40.236,7.109,46.916,13.671,46.916,21.765z"/>
					<g id="g48_2_">
						
							<path id="path37_2_" style="fill:#F09400;stroke:#231815;stroke-width:2;stroke-linecap:round;stroke-linejoin:round;stroke-miterlimit:10;" d="
							M43.352,31.712c0,0-3.455,4.532-0.379,6.345c0,0-5.101,1.987-6.724-4.02C34.568,27.77,43.577,27.751,43.352,31.712z"/>
						
							<radialGradient id="path46_1_" cx="429.9512" cy="-202.2383" r="4.439" gradientTransform="matrix(0.927 0.3752 0.3752 -0.927 -282.6059 -315.2812)" gradientUnits="userSpaceOnUse">
							<stop  offset="0" style="stop-color:#E0CAAB"/>
							<stop  offset="0.6633" style="stop-color:#9E6C2A"/>
							<stop  offset="0.8265" style="stop-color:#8A581E"/>
							<stop  offset="1" style="stop-color:#653D14"/>
						</radialGradient>
						<path id="path46_2_" style="fill:url(#path46_1_);" d="M43.352,31.712c0,0-3.455,4.532-0.379,6.345
							c0,0-5.101,1.987-6.724-4.02C34.568,27.77,43.577,27.751,43.352,31.712z"/>
					</g>
					<g id="g61_2_">
						
							<path id="path50_2_" style="fill:#F09400;stroke:#231815;stroke-width:2;stroke-linecap:round;stroke-linejoin:round;stroke-miterlimit:10;" d="
							M20.966,31.712c0,0,3.454,4.532,0.378,6.345c0,0,5.101,1.987,6.724-4.02C29.747,27.77,20.739,27.751,20.966,31.712z"/>
						
							<radialGradient id="path59_1_" cx="-62.1602" cy="-401.4209" r="4.4385" gradientTransform="matrix(-0.927 0.3752 -0.3752 -0.927 -183.9986 -315.2812)" gradientUnits="userSpaceOnUse">
							<stop  offset="0" style="stop-color:#E0CAAB"/>
							<stop  offset="0.6633" style="stop-color:#9E6C2A"/>
							<stop  offset="0.8265" style="stop-color:#8A581E"/>
							<stop  offset="1" style="stop-color:#653D14"/>
						</radialGradient>
						<path id="path59_2_" style="fill:url(#path59_1_);" d="M20.966,31.712c0,0,3.454,4.532,0.378,6.345
							c0,0,5.101,1.987,6.724-4.02C29.747,27.77,20.739,27.751,20.966,31.712z"/>
					</g>
					<path id="path63_2_" style="fill:#231815;stroke:#231815;stroke-width:2.7816;stroke-miterlimit:10;" d="M44.156,27.564
						c0,6.868-5.389,10.911-12.032,10.911c-6.644,0-12.03-4.043-12.03-10.911c0-6.871,5.387-12.443,12.03-12.443
						C38.768,15.121,44.156,20.693,44.156,27.564z"/>
					
						<ellipse id="ellipse65_2_" transform="matrix(0.1629 -0.9866 0.9866 0.1629 9.6167 67.8907)" style="fill:none;stroke:#231815;stroke-width:2.7816;stroke-miterlimit:10;" cx="44.817" cy="28.278" rx="2.596" ry="2.226"/>
					
						<radialGradient id="path80_1_" cx="372.791" cy="-278.9683" r="4.3796" gradientTransform="matrix(0.9866 0.1633 0.1633 -0.9866 -277.4218 -307.826)" gradientUnits="userSpaceOnUse">
						<stop  offset="0" style="stop-color:#FCDBD7"/>
						<stop  offset="0.1284" style="stop-color:#FBD4CF"/>
						<stop  offset="0.3271" style="stop-color:#F8C3B9"/>
						<stop  offset="0.5713" style="stop-color:#F3A596"/>
						<stop  offset="0.849" style="stop-color:#ED7D65"/>
						<stop  offset="1" style="stop-color:#E96547"/>
					</radialGradient>
					<path id="path80" style="fill:url(#path80_1_);" d="M47.016,28.641c-0.233,1.415-1.408,2.399-2.621,2.198
						c-1.213-0.201-2.006-1.509-1.771-2.924c0.233-1.413,1.408-2.394,2.619-2.195C46.457,25.921,47.25,27.23,47.016,28.641z"/>
					
						<ellipse id="ellipse82" transform="matrix(0.163 0.9866 -0.9866 0.163 44.0485 4.6363)" style="fill:none;stroke:#231815;stroke-width:2.7816;stroke-miterlimit:10;" cx="19.292" cy="28.279" rx="2.596" ry="2.226"/>
					
						<radialGradient id="path97_1_" cx="-165.9761" cy="-368.1431" r="4.3799" gradientTransform="matrix(-0.9866 0.1633 -0.1633 -0.9866 -204.5762 -307.826)" gradientUnits="userSpaceOnUse">
						<stop  offset="0" style="stop-color:#FCDBD7"/>
						<stop  offset="0.1284" style="stop-color:#FBD4CF"/>
						<stop  offset="0.3271" style="stop-color:#F8C3B9"/>
						<stop  offset="0.5713" style="stop-color:#F3A596"/>
						<stop  offset="0.849" style="stop-color:#ED7D65"/>
						<stop  offset="1" style="stop-color:#E96547"/>
					</radialGradient>
					<path id="path97" style="fill:url(#path97_1_);" d="M17.095,28.641c0.235,1.415,1.408,2.399,2.62,2.198
						c1.213-0.201,2.006-1.509,1.771-2.924c-0.233-1.413-1.406-2.394-2.62-2.195C17.655,25.921,16.862,27.23,17.095,28.641z"/>
					
						<path id="path34-7-5_190_" style="fill:#4C0A02;stroke:#231815;stroke-width:2;stroke-linecap:round;stroke-linejoin:round;stroke-miterlimit:10;" d="
						M35.832,42.494c0.268-0.322,0.537-1.664,0-1.934c-0.537-0.269-1.904-0.644-1.904-0.644c-1.229-0.377-2.477-0.377-3.704,0
						c0,0-1.369,0.375-1.906,0.644c-0.535,0.27-0.268,1.61,0,1.934c0,0,0.484,3.863-0.535,7.834c0,0,1.555,1.824,4.293,1.824
						c2.736,0,4.293-1.824,4.293-1.824C35.35,46.357,35.832,42.494,35.832,42.494z"/>
					
						<radialGradient id="path34-7-5_1_" cx="306.0352" cy="-332.418" r="32.8077" gradientTransform="matrix(1 0 0 -1 -274 -298)" gradientUnits="userSpaceOnUse">
						<stop  offset="0" style="stop-color:#F8D8CB"/>
						<stop  offset="0.1365" style="stop-color:#F7D1C3"/>
						<stop  offset="0.3479" style="stop-color:#F5BEAD"/>
						<stop  offset="0.6075" style="stop-color:#F19F8A"/>
						<stop  offset="0.903" style="stop-color:#EB7459"/>
						<stop  offset="1" style="stop-color:#E96547"/>
					</radialGradient>
					<path id="path34-7-5_189_" style="fill:url(#path34-7-5_1_);" d="M35.832,42.494c0.268-0.322,0.537-1.664,0-1.934
						c-0.537-0.269-1.904-0.644-1.904-0.644c-1.229-0.377-2.477-0.377-3.704,0c0,0-1.369,0.375-1.906,0.644
						c-0.535,0.27-0.268,1.61,0,1.934c0,0,0.484,3.863-0.535,7.834c0,0,1.555,1.625,4.293,1.625c2.736,0,4.293-1.625,4.293-1.625
						C35.35,46.357,35.832,42.494,35.832,42.494z"/>
					<path id="path30-2_216_" style="fill:#4C0A02;stroke:#231815;stroke-width:1.7375;stroke-miterlimit:10;" d="M29.079,40.432
						c0,0,0.927,0.93-1.54,4.157c-2.468,3.229-4.451,4.892-5.102,4.422c-0.648-0.469-2.177-0.409-1.032-2.093
						c0,0-0.169-1.182,0.949-0.913c1.5,0.97,4.405-2.433,5.073-3.473C28.003,41.637,28.009,40.016,29.079,40.432z"/>
					<path id="path30-2_215_" style="fill:#4C0A02;stroke:#231815;stroke-width:1.7375;stroke-miterlimit:10;" d="M36.77,42.582
						c0.668,1.04,3.572,4.441,5.072,3.473c1.119-0.268,0.949,0.913,0.949,0.913c1.145,1.683-0.385,1.624-1.031,2.093
						c-0.65,0.471-2.635-1.19-5.102-4.422c-2.469-3.228-1.541-4.158-1.541-4.158C36.188,40.064,36.193,41.688,36.77,42.582z"/>
					
						<radialGradient id="path30-2_1_" cx="306.623" cy="-333.3579" r="28.9359" gradientTransform="matrix(1 0 0 -1 -274 -298)" gradientUnits="userSpaceOnUse">
						<stop  offset="0" style="stop-color:#FCDBD7"/>
						<stop  offset="0.1284" style="stop-color:#FBD4CF"/>
						<stop  offset="0.3271" style="stop-color:#F8C3B9"/>
						<stop  offset="0.5713" style="stop-color:#F3A596"/>
						<stop  offset="0.849" style="stop-color:#ED7D65"/>
						<stop  offset="1" style="stop-color:#E96547"/>
					</radialGradient>
					<path id="path30-2_214_" style="fill:url(#path30-2_1_);" d="M36.77,42.582c0.668,1.04,3.572,4.441,5.072,3.473
						c1.119-0.268,0.949,0.913,0.949,0.913c1.145,1.683-0.385,1.624-1.031,2.093c-0.65,0.471-2.635-1.19-5.102-4.422
						c-2.469-3.228-1.541-4.158-1.541-4.158C36.188,40.064,36.193,41.688,36.77,42.582z"/>
					
						<radialGradient id="path30-2_2_" cx="-224.5522" cy="-333.3096" r="28.9332" gradientTransform="matrix(-1 0 0 -1 -192.9805 -298)" gradientUnits="userSpaceOnUse">
						<stop  offset="0" style="stop-color:#FCDBD7"/>
						<stop  offset="0.1284" style="stop-color:#FBD4CF"/>
						<stop  offset="0.3271" style="stop-color:#F8C3B9"/>
						<stop  offset="0.5713" style="stop-color:#F3A596"/>
						<stop  offset="0.849" style="stop-color:#ED7D65"/>
						<stop  offset="1" style="stop-color:#E96547"/>
					</radialGradient>
					<path id="path30-2_213_" style="fill:url(#path30-2_2_);" d="M29.079,40.432c0,0,0.927,0.93-1.54,4.157
						c-2.468,3.229-4.451,4.892-5.102,4.422c-0.648-0.469-2.177-0.409-1.032-2.093c0,0-0.169-1.182,0.949-0.913
						c1.5,0.97,4.405-2.433,5.073-3.473C28.003,41.637,28.009,40.016,29.079,40.432z"/>
					
						<radialGradient id="rect157_1_" cx="306.1455" cy="-340.124" r="4.0006" gradientTransform="matrix(1 0 0 -1 -274 -298)" gradientUnits="userSpaceOnUse">
						<stop  offset="0" style="stop-color:#FCDBD7"/>
						<stop  offset="0.1284" style="stop-color:#FBD4CF"/>
						<stop  offset="0.3271" style="stop-color:#F8C3B9"/>
						<stop  offset="0.5713" style="stop-color:#F3A596"/>
						<stop  offset="0.849" style="stop-color:#ED7D65"/>
						<stop  offset="1" style="stop-color:#E96547"/>
					</radialGradient>
					<rect id="rect157" x="31.043" y="37.745" style="fill:url(#rect157_1_);" width="2.128" height="3.104"/>
					<g id="g165">
						
							<ellipse id="ellipse159" style="fill:#231815;stroke:#231815;stroke-width:1.8499;stroke-linecap:round;stroke-linejoin:round;stroke-miterlimit:10;" cx="32.071" cy="51.381" rx="4.469" ry="3.375"/>
						
							<path id="path161_2_" style="fill:#231815;stroke:#231815;stroke-width:1.8499;stroke-linecap:round;stroke-linejoin:round;stroke-miterlimit:10;" d="
							M31.568,51.068c0.001,5.781-1.492,10.472-2.37,10.472c-0.876,0-1.589-4.688-1.59-10.472H31.568z"/>
						
							<path id="path163" style="fill:#231815;stroke:#231815;stroke-width:1.8499;stroke-linecap:round;stroke-linejoin:round;stroke-miterlimit:10;" d="
							M32.598,51.068c0,5.781,1.494,10.472,2.371,10.472s1.59-4.688,1.592-10.472H32.598z"/>
					</g>
					<ellipse id="ellipse167" style="fill:#0083C5;" cx="32.071" cy="51.281" rx="4.469" ry="3.375"/>
					<g id="path34-7-5_188_">
						<path id="path169" style="fill:#0083C5;" d="M35.832,42.494c0.268-0.322,0.537-1.664,0-1.934
							c-0.537-0.269-1.904-0.644-1.904-0.644c-1.229-0.377-2.477-0.377-3.704,0c0,0-1.369,0.375-1.906,0.644
							c-0.535,0.27-0.268,1.61,0,1.934c0,0,0.484,3.863-0.535,7.834c0,0,1.555,1.625,4.293,1.625c2.736,0,4.293-1.625,4.293-1.625
							C35.35,46.357,35.832,42.494,35.832,42.494z"/>
						<path id="path171" style="fill:#2CA4DE;" d="M28.898,49.961c0.543,0.391,1.631,0.992,3.178,0.992
							c1.531,0,2.629-0.605,3.176-0.996c-0.859-3.875-0.432-7.43-0.412-7.587l0.035-0.291l0.188-0.226
							c0.027-0.063,0.076-0.315,0.08-0.502c-0.41-0.158-1.08-0.359-1.479-0.47c-1.088-0.334-2.114-0.325-3.145-0.009
							c-0.423,0.116-1.096,0.318-1.51,0.479c0.008,0.188,0.063,0.453,0.121,0.561l0.188,0.225L29.31,42.37
							C29.33,42.527,29.759,46.084,28.898,49.961z"/>
					</g>
					
						<radialGradient id="path187_1_" cx="306.125" cy="-324.7979" r="22.0413" gradientTransform="matrix(1 0 0 -1 -274 -298)" gradientUnits="userSpaceOnUse">
						<stop  offset="0" style="stop-color:#FCDBD7"/>
						<stop  offset="0.1284" style="stop-color:#FBD4CF"/>
						<stop  offset="0.3271" style="stop-color:#F8C3B9"/>
						<stop  offset="0.5713" style="stop-color:#F3A596"/>
						<stop  offset="0.849" style="stop-color:#ED7D65"/>
						<stop  offset="1" style="stop-color:#E96547"/>
					</radialGradient>
					<path id="path187" style="fill:url(#path187_1_);" d="M44.156,27.564c0,6.868-5.389,10.911-12.032,10.911
						c-6.644,0-12.03-4.043-12.03-10.911c0-6.871,5.387-12.443,12.03-12.443C38.768,15.121,44.156,20.693,44.156,27.564z"/>
					
						<path id="path189" style="fill:none;stroke:#A4414A;stroke-width:0.8345;stroke-linecap:round;stroke-linejoin:round;stroke-miterlimit:10;" d="
						M39.541,21.175c0,0-1.555-2.108-3.654,0"/>
					
						<path id="path191" style="fill:none;stroke:#A4414A;stroke-width:0.8345;stroke-linecap:round;stroke-linejoin:round;stroke-miterlimit:10;" d="
						M28.329,21.175c0,0-1.557-2.108-3.656,0"/>
				</g>
				<path id="path209_98_" style="fill:#160201;" d="M39.676,27.924c0,1.703-0.873,3.086-1.947,3.086
					c-1.078,0-1.949-1.383-1.949-3.086c0-1.713,0.871-3.099,1.949-3.099C38.803,24.826,39.676,26.211,39.676,27.924z"/>
				<g id="g202">
					<g id="g200">
						<g id="g198">
							<path id="path196_2_" style="fill:#FFFFFF;" d="M39.064,26.326c0,0.462-0.373,0.834-0.838,0.834
								c-0.461,0-0.834-0.372-0.834-0.834c0-0.461,0.373-0.836,0.834-0.836C38.691,25.49,39.064,25.865,39.064,26.326z"/>
						</g>
					</g>
				</g>
			</g>
		</g>
		<g id="g213_121_">
			
				<linearGradient id="ellipse221_1_" gradientUnits="userSpaceOnUse" x1="313.0098" y1="-328.7158" x2="317.5977" y2="-328.7158" gradientTransform="matrix(1 0 0 -1 -274 -298)">
				<stop  offset="0" style="stop-color:#FFA67F"/>
				<stop  offset="0.0969" style="stop-color:#FF967B"/>
				<stop  offset="0.3655" style="stop-color:#FF7170"/>
				<stop  offset="0.6143" style="stop-color:#FF5568"/>
				<stop  offset="0.8336" style="stop-color:#FF4564"/>
				<stop  offset="1" style="stop-color:#FF3F62"/>
			</linearGradient>
			<ellipse id="ellipse221" style="fill:url(#ellipse221_1_);" cx="41.305" cy="30.716" rx="2.293" ry="1.112"/>
			
				<linearGradient id="ellipse236_1_" gradientUnits="userSpaceOnUse" x1="-233.1021" y1="-328.7158" x2="-228.5122" y2="-328.7158" gradientTransform="matrix(-1 0 0 -1 -208 -298)">
				<stop  offset="0" style="stop-color:#FFA67F"/>
				<stop  offset="0.0969" style="stop-color:#FF967B"/>
				<stop  offset="0.3655" style="stop-color:#FF7170"/>
				<stop  offset="0.6143" style="stop-color:#FF5568"/>
				<stop  offset="0.8336" style="stop-color:#FF4564"/>
				<stop  offset="1" style="stop-color:#FF3F62"/>
			</linearGradient>
			<ellipse id="ellipse236" style="fill:url(#ellipse236_1_);" cx="22.807" cy="30.716" rx="2.295" ry="1.112"/>
		</g>
		<g id="g213_120_">
			<path id="path209_97_" style="fill:#160201;" d="M28.498,27.924c0,1.703-0.873,3.086-1.947,3.086
				c-1.078,0-1.949-1.383-1.949-3.086c0-1.713,0.871-3.099,1.949-3.099C27.625,24.826,28.498,26.211,28.498,27.924z"/>
			<path id="path211_79_" style="fill:#FFFFFF;" d="M27.886,26.326c0,0.462-0.373,0.834-0.838,0.834
				c-0.461,0-0.834-0.372-0.834-0.834c0-0.461,0.373-0.836,0.834-0.836C27.513,25.49,27.886,25.865,27.886,26.326z"/>
		</g>
		<path id="path242" style="fill:#0083C5;" d="M31.568,51.068c0.001,5.781-1.492,10.472-2.37,10.472
			c-0.876,0-1.589-4.688-1.59-10.472H31.568z"/>
		<path id="path244_2_" style="fill:#0083C5;" d="M32.598,51.068c0,5.781,1.494,10.472,2.371,10.472s1.59-4.688,1.592-10.472H32.598
			z"/>
		<path id="path58-3-7_32_" style="fill:#C30D23;" d="M32.035,35.217c1.684-0.082,3.07-0.643,3.279-1.133
			c0.104-0.242,0.104-0.512-0.121-0.664c-0.227-0.15-0.536-0.1-0.696,0.115c-0.313,0.424-2.848,1.611-4.754,0.404
			c-0.229-0.146-0.457-0.176-0.611,0.045c-0.152,0.219,0.035,0.453,0.266,0.6C30.25,35.123,31.107,35.217,32.035,35.217z"/>
		<path id="path247" style="fill:#0B308C;" d="M33.393,62.501c0-1.163,0.945-2.106,2.107-2.106c1.164,0,2.107,0.943,2.107,2.106
			H33.393z"/>
		<path id="path249" style="fill:#0B308C;" d="M26.642,62.501c0-1.163,0.943-2.106,2.107-2.106s2.107,0.943,2.107,2.106H26.642z"/>
		
			<line id="line251" style="fill:none;stroke:#026091;stroke-width:0.8312;stroke-linecap:round;stroke-linejoin:round;stroke-miterlimit:10;" x1="31.261" y1="55.081" x2="32.971" y2="55.081"/>
		<path id="path253" style="fill:#231815;" d="M42.441,24.434c0,0,1.389,2.641,1.715,3.73c0,0,1.271-2.809,1.504-7.251
			c0.162-3.124,0.389-4.605-1.838-7.109C41.545,11.242,38.117,7.835,32,7.835c-6.12,0-9.545,3.407-11.822,5.969
			c-2.227,2.504-2.001,3.985-1.838,7.109c0.232,4.442,1.754,7.251,1.754,7.251c0.454-0.273,0.779-5.785,6.77-9.477
			C26.864,18.688,31.133,24.434,42.441,24.434z"/>
		
			<radialGradient id="path262_1_" cx="306" cy="-315.3984" r="12.19" gradientTransform="matrix(1 0 0 -1 -274 -298)" gradientUnits="userSpaceOnUse">
			<stop  offset="0" style="stop-color:#E0CAAB"/>
			<stop  offset="0.6633" style="stop-color:#9E6C2A"/>
			<stop  offset="0.8265" style="stop-color:#8A581E"/>
			<stop  offset="1" style="stop-color:#653D14"/>
		</radialGradient>
		<path id="path262" style="fill:url(#path262_1_);" d="M42.441,23.833c0,0,1.389,2.641,1.715,3.73c0,0,1.471-2.809,1.703-7.251
			c0.162-3.124,0.188-4.605-2.037-7.109C41.545,10.641,38.117,7.234,32,7.234c-6.12,0-9.545,3.407-11.822,5.969
			c-2.227,2.504-2.201,3.985-2.038,7.109c0.232,4.442,1.954,7.251,1.954,7.251c0.454-0.273,0.779-5.785,6.77-9.477
			C26.864,18.087,31.133,23.833,42.441,23.833z"/>
	</g>
	<g id="Layer_1_2_">
	</g>
</g>
<g id="Layer_1">
</g>
</svg>
