<?xml version="1.0" encoding="utf-8"?>
<!-- Generator: Adobe Illustrator 18.0.0, SVG Export Plug-In . SVG Version: 6.00 Build 0)  -->
<!DOCTYPE svg PUBLIC "-//W3C//DTD SVG 1.1//EN" "http://www.w3.org/Graphics/SVG/1.1/DTD/svg11.dtd">
<svg version="1.1" id="レイヤー_1" xmlns="http://www.w3.org/2000/svg" xmlns:xlink="http://www.w3.org/1999/xlink" x="0px"
	 y="0px" width="64px" height="64px" viewBox="0 0 64 64" style="enable-background:new 0 0 64 64;" xml:space="preserve">
<g>
	<g>
		<path style="fill:#FFFFFF;" d="M52.8333321,56.8114586H24c-2.2000008,0-4-1.7999992-4-4V26.4035091c0-2.2000008,1.7999992-4,4-4
			h28.8333321c2.2000008,0,4,1.7999992,4,4v26.4079494C56.8333321,55.0114594,55.0333328,56.8114586,52.8333321,56.8114586z"/>
		<path style="fill:#231815;" d="M52.8330078,57.8115234H24c-2.7568359,0-5-2.2431641-5-5V26.4033203c0-2.7568359,2.2431641-5,5-5
			h28.8330078c2.7568359,0,5,2.2431641,5,5v26.4082031C57.8330078,55.5683594,55.5898438,57.8115234,52.8330078,57.8115234z
			 M24,23.4033203c-1.6542969,0-3,1.3457031-3,3v26.4082031c0,1.6542969,1.3457031,3,3,3h28.8330078c1.6542969,0,3-1.3457031,3-3
			V26.4033203c0-1.6542969-1.3457031-3-3-3H24z"/>
	</g>
	<g>
		<rect x="24.6041679" y="16.7017536" style="fill:#FFFFFF;" width="27.625" height="8.5526314"/>
		<path style="fill:#231815;" d="M53.2294922,26.2543945H23.6040039V15.7016602h29.6254883V26.2543945z M25.6040039,24.2543945
			h25.6254883v-6.5527344H25.6040039V24.2543945z"/>
	</g>
	<g>
		<rect x="26.90625" y="11" style="fill:#FFFFFF;" width="23.020834" height="14.2543859"/>
		<path style="fill:#231815;" d="M50.9267578,26.2543945H25.90625V10h25.0205078V26.2543945z M27.90625,24.2543945h21.0205078V12
			H27.90625V24.2543945z"/>
	</g>
	<g>
		<line style="fill:#FFFFFF;" x1="29.208334" y1="18.5434208" x2="47.625" y2="18.5434208"/>
		<rect x="29.2084961" y="17.543457" style="fill:#231815;" width="18.4165039" height="2"/>
	</g>
	<g>
		<line style="fill:#FFFFFF;" x1="29.208334" y1="14.6833334" x2="47.625" y2="14.6833334"/>
		<rect x="29.2084961" y="13.6831055" style="fill:#231815;" width="18.4165039" height="2"/>
	</g>
	<g>
		<line style="fill:#FFFFFF;" x1="29.208334" y1="22.4035091" x2="47.625" y2="22.4035091"/>
		<rect x="29.2084961" y="21.4033203" style="fill:#231815;" width="18.4165039" height="2"/>
	</g>
	<g>
		<path style="fill:#FFFFFF;" d="M30.1416016,35.7207031c-1.6923828,0-3.0688477-1.3769531-3.0688477-3.0688477
			s1.3764648-3.0683594,3.0688477-3.0683594s3.0693359,1.3764648,3.0693359,3.0683594S31.8339844,35.7207031,30.1416016,35.7207031z
			"/>
		<path style="fill:#231815;" d="M30.1416664,30.5833321c1.14254,0,2.0687485,0.9262085,2.0687485,2.0687523
			c0,1.14254-0.9262085,2.0687485-2.0687485,2.0687485s-2.0687504-0.9262085-2.0687504-2.0687485
			C28.072916,31.5095406,28.9991264,30.5833321,30.1416664,30.5833321 M30.1416664,28.5833321
			c-2.2435207,0-4.0687504,1.8252296-4.0687504,4.0687523c0,2.2435188,1.8252296,4.0687485,4.0687504,4.0687485
			s4.0687485-1.8252296,4.0687485-4.0687485C34.2104149,30.4085617,32.3851852,28.5833321,30.1416664,28.5833321
			L30.1416664,28.5833321z"/>
	</g>
	<g>
		<path style="fill:#FFFFFF;" d="M38.4169922,35.7207031c-1.6923828,0-3.0693359-1.3769531-3.0693359-3.0688477
			s1.3769531-3.0683594,3.0693359-3.0683594s3.0683594,1.3764648,3.0683594,3.0683594S40.109375,35.7207031,38.4169922,35.7207031z"
			/>
		<path style="fill:#231815;" d="M38.4166641,30.5833321c1.14254,0,2.0687485,0.9262085,2.0687485,2.0687523
			c0,1.14254-0.9262085,2.0687485-2.0687485,2.0687485s-2.0687485-0.9262085-2.0687485-2.0687485
			C36.3479156,31.5095406,37.2741241,30.5833321,38.4166641,30.5833321 M38.4166641,28.5833321
			c-2.2435188,0-4.0687485,1.8252296-4.0687485,4.0687523c0,2.2435188,1.8252296,4.0687485,4.0687485,4.0687485
			s4.0687485-1.8252296,4.0687485-4.0687485C42.4854126,30.4085617,40.660183,28.5833321,38.4166641,28.5833321
			L38.4166641,28.5833321z"/>
	</g>
	<g>
		<path style="fill:#FFFFFF;" d="M46.6914063,35.7207031c-1.6923828,0-3.0683594-1.3769531-3.0683594-3.0688477
			s1.3759766-3.0683594,3.0683594-3.0683594s3.0693359,1.3764648,3.0693359,3.0683594S48.3837891,35.7207031,46.6914063,35.7207031z
			"/>
		<path style="fill:#231815;" d="M46.6916656,30.5833321c1.14254,0,2.0687485,0.9262085,2.0687485,2.0687523
			c0,1.14254-0.9262085,2.0687485-2.0687485,2.0687485s-2.0687485-0.9262085-2.0687485-2.0687485
			C44.6229172,31.5095406,45.5491257,30.5833321,46.6916656,30.5833321 M46.6916656,28.5833321
			c-2.2435188,0-4.0687485,1.8252296-4.0687485,4.0687523c0,2.2435188,1.8252296,4.0687485,4.0687485,4.0687485
			s4.0687485-1.8252296,4.0687485-4.0687485C50.7604141,30.4085617,48.9351845,28.5833321,46.6916656,28.5833321
			L46.6916656,28.5833321z"/>
	</g>
	<g>
		<circle style="fill:#FFFFFF;" cx="30.1416016" cy="40.9272461" r="3.0688477"/>
		<path style="fill:#231815;" d="M30.1416664,38.8583298c1.14254,0,2.0687485,0.9262123,2.0687485,2.0687523
			s-0.9262085,2.0687523-2.0687485,2.0687523s-2.0687504-0.9262123-2.0687504-2.0687523
			S28.9991264,38.8583298,30.1416664,38.8583298 M30.1416664,36.8583298c-2.2435207,0-4.0687504,1.8252335-4.0687504,4.0687523
			s1.8252296,4.0687523,4.0687504,4.0687523s4.0687485-1.8252335,4.0687485-4.0687523S32.3851852,36.8583298,30.1416664,36.8583298
			L30.1416664,36.8583298z"/>
	</g>
	<g>
		<path style="fill:#FFFFFF;" d="M38.4169922,43.9960938c-1.6923828,0-3.0693359-1.3769531-3.0693359-3.0693359
			s1.3769531-3.0683594,3.0693359-3.0683594s3.0683594,1.3759766,3.0683594,3.0683594S40.109375,43.9960938,38.4169922,43.9960938z"
			/>
		<path style="fill:#231815;" d="M38.4166641,38.8583298c1.14254,0,2.0687485,0.9262123,2.0687485,2.0687523
			s-0.9262085,2.0687523-2.0687485,2.0687523s-2.0687485-0.9262123-2.0687485-2.0687523
			S37.2741241,38.8583298,38.4166641,38.8583298 M38.4166641,36.8583298c-2.2435188,0-4.0687485,1.8252335-4.0687485,4.0687523
			s1.8252296,4.0687523,4.0687485,4.0687523s4.0687485-1.8252335,4.0687485-4.0687523S40.660183,36.8583298,38.4166641,36.8583298
			L38.4166641,36.8583298z"/>
	</g>
	<g>
		<circle style="fill:#FFFFFF;" cx="46.6914063" cy="40.9272461" r="3.0688477"/>
		<path style="fill:#231815;" d="M46.6916656,38.8583298c1.14254,0,2.0687485,0.9262123,2.0687485,2.0687523
			s-0.9262085,2.0687523-2.0687485,2.0687523s-2.0687485-0.9262123-2.0687485-2.0687523
			S45.5491257,38.8583298,46.6916656,38.8583298 M46.6916656,36.8583298c-2.2435188,0-4.0687485,1.8252335-4.0687485,4.0687523
			s1.8252296,4.0687523,4.0687485,4.0687523s4.0687485-1.8252335,4.0687485-4.0687523S48.9351845,36.8583298,46.6916656,36.8583298
			L46.6916656,36.8583298z"/>
	</g>
	<g>
		<circle style="fill:#FFFFFF;" cx="30.1416016" cy="49.2021484" r="3.0683594"/>
		<path style="fill:#231815;" d="M30.1416664,47.1333313c1.14254,0,2.0687485,0.9262123,2.0687485,2.0687523
			s-0.9262085,2.0687523-2.0687485,2.0687523s-2.0687504-0.9262123-2.0687504-2.0687523
			S28.9991264,47.1333313,30.1416664,47.1333313 M30.1416664,45.1333313c-2.2435207,0-4.0687504,1.8252335-4.0687504,4.0687523
			s1.8252296,4.0687523,4.0687504,4.0687523s4.0687485-1.8252335,4.0687485-4.0687523S32.3851852,45.1333313,30.1416664,45.1333313
			L30.1416664,45.1333313z"/>
	</g>
	<g>
		<path style="fill:#FFFFFF;" d="M38.4169922,52.2705078c-1.6923828,0-3.0693359-1.3759766-3.0693359-3.0683594
			s1.3769531-3.0683594,3.0693359-3.0683594s3.0683594,1.3759766,3.0683594,3.0683594S40.109375,52.2705078,38.4169922,52.2705078z"
			/>
		<path style="fill:#231815;" d="M38.4166641,47.1333313c1.14254,0,2.0687485,0.9262123,2.0687485,2.0687523
			s-0.9262085,2.0687523-2.0687485,2.0687523s-2.0687485-0.9262123-2.0687485-2.0687523
			S37.2741241,47.1333313,38.4166641,47.1333313 M38.4166641,45.1333313c-2.2435188,0-4.0687485,1.8252335-4.0687485,4.0687523
			s1.8252296,4.0687523,4.0687485,4.0687523s4.0687485-1.8252335,4.0687485-4.0687523S40.660183,45.1333313,38.4166641,45.1333313
			L38.4166641,45.1333313z"/>
	</g>
	<g>
		<circle style="fill:#FFFFFF;" cx="46.6914063" cy="49.2021484" r="3.0683594"/>
		<path style="fill:#231815;" d="M46.6916656,47.1333313c1.14254,0,2.0687485,0.9262123,2.0687485,2.0687523
			s-0.9262085,2.0687523-2.0687485,2.0687523s-2.0687485-0.9262123-2.0687485-2.0687523
			S45.5491257,47.1333313,46.6916656,47.1333313 M46.6916656,45.1333313c-2.2435188,0-4.0687485,1.8252335-4.0687485,4.0687523
			s1.8252296,4.0687523,4.0687485,4.0687523s4.0687485-1.8252335,4.0687485-4.0687523S48.9351845,45.1333313,46.6916656,45.1333313
			L46.6916656,45.1333313z"/>
	</g>
	<g>
		<path style="fill:#FFFFFF;" d="M15.0442829,21.5363407c1.3076763,0,2.3775921-0.8927803,2.3775921-1.9839554v-4.3764791
			c0-1.091176-1.0699158-1.9839554-2.3775921-1.9839554H12.666687h-0.088562h-1.744792
			C7.625,13.1919508,7.5,28.7895565,7.5,29.8807316v10.4304867C7.5,41.4023933,7.5,57,10.833333,57h1.744792h0.088562h2.3775959
			c1.3076763,0,2.3775921-0.8927803,2.3775921-1.9839554v-4.3764801c0-1.0911751-1.0699158-1.9839554-2.3775921-1.9839554
			h-0.0000038c-1.3131084,0-2.3775921-7.2486801-2.3775921-8.3443909V29.8807316
			c0-1.0957088,1.0644836-8.3443909,2.3775921-8.3443909H15.0442829z"/>
		<path style="fill:#231815;" d="M15.0444336,58h-4.2109375C7.9580078,58,6.5,52.0488281,6.5,40.3115234V29.8808594
			c0-6.6064453,0.5629883-17.6889648,4.3334961-17.6889648h4.2109375c1.8623047,0,3.3774414,1.3383789,3.3774414,2.9838867
			v4.3764648c0,1.5693359-1.378418,2.8598633-3.1220703,2.9755859c-0.7299805,1.0136719-1.6333008,6.0957031-1.6333008,7.3530273
			v10.4306641c0,1.2568359,0.9033203,6.3388672,1.6333008,7.3525391c1.7436523,0.1152344,3.1220703,1.40625,3.1220703,2.9755859
			v4.3759766C18.421875,56.6611328,16.9067383,58,15.0444336,58z M10.8334961,14.1918945
			C9.6157227,14.5512695,8.5,22.0297852,8.5,29.8808594v10.4306641C8.5,50.4130859,9.8798828,56,10.8334961,56h4.2109375
			c0.7338867,0,1.3774414-0.4599609,1.3774414-0.984375v-4.3759766c0-0.5244141-0.6435547-0.984375-1.3774414-0.984375
			c-2.699707,0-3.3779297-9.25-3.3779297-9.34375V29.8808594c0-0.0932617,0.6782227-9.3447266,3.3779297-9.3447266
			c0.7338867,0,1.3774414-0.4599609,1.3774414-0.9838867v-4.3764648c0-0.5239258-0.6435547-0.9838867-1.3774414-0.9838867
			H10.8334961z"/>
	</g>
</g>
<g>
</g>
<g>
</g>
<g>
</g>
<g>
</g>
<g>
</g>
<g>
</g>
</svg>
