<?xml version="1.0" encoding="UTF-8" standalone="no"?>
<!-- Generator: Adobe Illustrator 15.0.2, SVG Export Plug-In . SVG Version: 6.00 Build 0)  -->

<svg
   xmlns:dc="http://purl.org/dc/elements/1.1/"
   xmlns:cc="http://creativecommons.org/ns#"
   xmlns:rdf="http://www.w3.org/1999/02/22-rdf-syntax-ns#"
   xmlns:svg="http://www.w3.org/2000/svg"
   xmlns="http://www.w3.org/2000/svg"
   xmlns:sodipodi="http://sodipodi.sourceforge.net/DTD/sodipodi-0.dtd"
   xmlns:inkscape="http://www.inkscape.org/namespaces/inkscape"
   version="1.1"
   id="レイヤー_1"
   x="0px"
   y="0px"
   width="64px"
   height="64px"
   viewBox="0 0 64 64"
   enable-background="new 0 0 64 64"
   xml:space="preserve"
   inkscape:version="0.48.4 r9939"
   sodipodi:docname="fee_mark.svg"><metadata
     id="metadata34"><rdf:RDF><cc:Work
         rdf:about=""><dc:format>image/svg+xml</dc:format><dc:type
           rdf:resource="http://purl.org/dc/dcmitype/StillImage" /></cc:Work></rdf:RDF></metadata><defs
     id="defs32" /><sodipodi:namedview
     pagecolor="#ffffff"
     bordercolor="#666666"
     borderopacity="1"
     objecttolerance="10"
     gridtolerance="10"
     guidetolerance="10"
     inkscape:pageopacity="0"
     inkscape:pageshadow="2"
     inkscape:window-width="640"
     inkscape:window-height="480"
     id="namedview30" /><g
     id="g3"><g
       id="g5"><linearGradient
         id="SVGID_1_"
         gradientUnits="userSpaceOnUse"
         x1="32"
         y1="2.9961"
         x2="32"
         y2="60.9865"><stop
           offset="0"
           style="stop-color:#FF1200"
           id="stop8" /><stop
           offset="1"
           style="stop-color:#FF0000"
           id="stop10" /></linearGradient><path
         fill="url(#SVGID_1_)"
         stroke="#BF0000"
         stroke-width="2"
         stroke-miterlimit="10"
         d="M62.205,50.205c0,6.627-5.373,12-12,12    h-36.41c-6.627,0-12-5.373-12-12v-36.41c0-6.627,5.373-12,12-12h36.41c6.627,0,12,5.373,12,12V50.205z"
         id="path12" /><g
         id="g14"><path
           opacity="0.28"
           fill="#FFFFFF"
           d="M2.672,13.369c-0.032,0.353-0.054,0.709-0.054,1.071v12.594     c0.006,0.006,0.012,0.012,0.017,0.018L2.672,13.369z"
           id="path16" /><path
           opacity="0.28"
           fill="#FFFFFF"
           d="M60.106,23.57c1.188-5.802,1.222-9.417,1.222-10.194     C60.79,7.428,55.797,2.767,49.71,2.767H14.291c-6.076,0-11.062,4.642-11.617,10.572c0.02,0.349,0.497,4.034,1.293,10.307     C11.207,30.701,21.092,35.055,32,35.055C42.945,35.055,52.859,30.669,60.106,23.57z"
           id="path18" /><path
           opacity="0.28"
           fill="#FFFFFF"
           d="M61.328,13.379l0.039,13.667c0.005-0.005,0.01-0.01,0.015-0.015V14.439     C61.382,14.082,61.359,13.729,61.328,13.379z"
           id="path20" /></g><path
         fill="#FFFFFF"
         d="M2.674,27.586c0,0-0.006-10.919-0.028-13.859c-0.027-3.6,3.244-10.89,10.375-10.89    c6.639,0,16.803,0,16.803,0S17.118,3.651,13.02,4.471s-7.494,6.043-8.442,9.263C3.198,18.415,2.674,27.586,2.674,27.586z"
         id="path22" /><path
         fill="#BC0000"
         d="M61.001,37.832c0,0,0.006,10.233,0.027,12.989c0.026,3.373-3.141,10.207-10.048,10.207    c-6.428,0-16.27,0-16.27,0s12.304-0.764,16.272-1.532c3.967-0.769,7.254-5.663,8.174-8.681    C60.493,46.427,61.001,37.832,61.001,37.832z"
         id="path24" /></g><g
       id="g26"><path
         fill="#FFFFFF"
         d="M24.388,23.003h-9.843v-4.767H27.31c0.716-0.716,1.331-2.1,1.846-4.152l5.843,0.615    c-0.614,2.052-1.129,3.229-1.537,3.537h16.147v4.767H31.154c-0.308,0.615-0.873,1.334-1.692,2.153h15.994v20.915    c0,2.461-1.18,3.69-3.537,3.69h-4.46l-1.999-5.229h3.229c0.923,0.104,1.384-0.357,1.384-1.384v-1.538H28.078v8.305h-5.536V33.614    c-0.308,0.615-1.076,1.385-2.307,2.308c-1.129,0.922-2.206,1.641-3.229,2.152l-2.614-5.844c1.946-0.819,3.945-2.203,5.998-4.152    C22.234,26.336,23.565,24.645,24.388,23.003z M28.078,31.615h11.995v-1.537H28.078V31.615z M28.078,37.306h11.995v-1.384H28.078    V37.306z"
         id="path28" /></g></g></svg>