<?xml version="1.0" encoding="utf-8"?>
<!-- Generator: Adobe Illustrator 15.0.0, SVG Export Plug-In . SVG Version: 6.00 Build 0)  -->
<!DOCTYPE svg PUBLIC "-//W3C//DTD SVG 1.1//EN" "http://www.w3.org/Graphics/SVG/1.1/DTD/svg11.dtd">
<svg version="1.1" id="レイヤー_1" xmlns="http://www.w3.org/2000/svg" xmlns:xlink="http://www.w3.org/1999/xlink" x="0px"
	 y="0px" width="64px" height="64px" viewBox="0 0 64 64" style="enable-background:new 0 0 64 64;" xml:space="preserve">
<g>
	<rect x="9.3334961" y="25.5551758" style="fill:#009FEF;" width="45.3325195" height="1.8886719"/>
	<rect x="31.0556641" y="3.8334961" style="fill:#009FEF;" width="1.8886719" height="45.3325195"/>
	
		<rect x="31.0551052" y="3.8333244" transform="matrix(0.7071068 0.7071068 -0.7071068 0.7071068 28.1106682 -14.8656464)" style="fill:#009FEF;" width="1.8893009" height="45.3328629"/>
	
		<rect x="9.3333244" y="25.5551052" transform="matrix(0.7071068 0.7071068 -0.7071068 0.7071068 28.1106682 -14.8656464)" style="fill:#009FEF;" width="45.3328629" height="1.8893009"/>
	<path style="fill:#009FEF;" d="M31.9990234,49.5205078c-12.6928711,0-23.0195313-10.3271484-23.0195313-23.0209961
		c0-12.6933594,10.3266602-23.0200195,23.0195313-23.0200195c12.6943359,0,23.0214844,10.3266602,23.0214844,23.0200195
		C55.0205078,39.1933594,44.6933594,49.5205078,31.9990234,49.5205078z M31.9990234,5.3681641
		c-11.6513672,0-21.1308594,9.4794922-21.1308594,21.1313477c0,11.652832,9.4794922,21.1323242,21.1308594,21.1323242
		c11.6523438,0,21.1328125-9.4794922,21.1328125-21.1323242C53.1318359,14.8476563,43.6513672,5.3681641,31.9990234,5.3681641z"/>
	<path style="fill:#009FEF;" d="M48.0019531,71.0585938h-32.003418l16.0019531-50.1889648L48.0019531,71.0585938z
		 M19.3666992,68.5976563h25.2680664L32.0004883,28.972168L19.3666992,68.5976563z"/>
</g>
<g>
	<g>
		<g>
			<g>
				<circle style="fill-rule:evenodd;clip-rule:evenodd;fill:#2EBA00;" cx="16.8303223" cy="17.0332031" r="6.9938965"/>
				<path style="fill:#231815;" d="M16.8310547,24.4667969c-4.0991211,0-7.434082-3.3349609-7.434082-7.4335938
					s3.3349609-7.4331055,7.434082-7.4331055c4.0981445,0,7.4326172,3.3344727,7.4326172,7.4331055
					S20.9291992,24.4667969,16.8310547,24.4667969z M16.8310547,10.4790039c-3.6147461,0-6.5551758,2.9399414-6.5551758,6.5541992
					s2.9404297,6.5546875,6.5551758,6.5546875c3.6137695,0,6.5537109-2.9404297,6.5537109-6.5546875
					S20.4448242,10.4790039,16.8310547,10.4790039z"/>
			</g>
			<g>
				<path style="fill-rule:evenodd;clip-rule:evenodd;fill:#FFFFFF;" d="M22.2324219,17.0336914
					c0-2.9824219-2.4194336-5.4008789-5.4013672-5.4008789c-2.984375,0-5.4018555,2.418457-5.4018555,5.4008789H22.2324219z"/>
				<path style="fill:#231815;" d="M22.65625,17.4575195H11.0053711v-0.4238281c0-3.2114258,2.6132813-5.824707,5.8256836-5.824707
					c3.2119141,0,5.8251953,2.6132813,5.8251953,5.824707V17.4575195z M11.8706055,16.6098633h9.9204102
					c-0.2158203-2.546875-2.3579102-4.5532227-4.9599609-4.5532227S12.0864258,14.0629883,11.8706055,16.6098633z"/>
			</g>
		</g>
		<g>
			<g>
				<circle style="fill-rule:evenodd;clip-rule:evenodd;fill:#FF7110;" cx="47.1689453" cy="17.0332031" r="6.9941406"/>
				<path style="fill:#231815;" d="M47.1689453,24.4667969c-4.0986328,0-7.4335938-3.3349609-7.4335938-7.4335938
					s3.3349609-7.4331055,7.4335938-7.4331055s7.4335938,3.3344727,7.4335938,7.4331055
					S51.2675781,24.4667969,47.1689453,24.4667969z M47.1689453,10.4790039c-3.6142578,0-6.5546875,2.9399414-6.5546875,6.5541992
					s2.9404297,6.5546875,6.5546875,6.5546875s6.5546875-2.9404297,6.5546875-6.5546875
					S50.7832031,10.4790039,47.1689453,10.4790039z"/>
			</g>
			<g>
				<path style="fill-rule:evenodd;clip-rule:evenodd;fill:#FFFFFF;" d="M52.5703125,17.0336914
					c0-2.9824219-2.4189453-5.4008789-5.4013672-5.4008789c-2.9833984,0-5.4013672,2.418457-5.4013672,5.4008789H52.5703125z"/>
				<path style="fill:#231815;" d="M52.9941406,17.4575195H41.34375v-0.4238281c0-3.2114258,2.6132813-5.824707,5.8251953-5.824707
					s5.8251953,2.6132813,5.8251953,5.824707V17.4575195z M42.2089844,16.6098633h9.9199219
					c-0.2158203-2.546875-2.3583984-4.5532227-4.9599609-4.5532227S42.4248047,14.0629883,42.2089844,16.6098633z"/>
			</g>
		</g>
	</g>
	<g>
		<g>
			<g>
				<circle style="fill-rule:evenodd;clip-rule:evenodd;fill:#19F4BF;" cx="11.7138672" cy="32.09375" r="6.9941406"/>
				<path style="fill:#231815;" d="M11.7138672,39.5273438c-4.0986328,0-7.4335938-3.3349609-7.4335938-7.4335938
					c0-4.0981445,3.3349609-7.4326172,7.4335938-7.4326172s7.4335938,3.3344727,7.4335938,7.4326172
					C19.1474609,36.1923828,15.8125,39.5273438,11.7138672,39.5273438z M11.7138672,25.5400391
					c-3.6142578,0-6.5546875,2.9399414-6.5546875,6.5537109c0,3.6142578,2.9404297,6.5546875,6.5546875,6.5546875
					s6.5546875-2.9404297,6.5546875-6.5546875C18.2685547,28.4799805,15.328125,25.5400391,11.7138672,25.5400391z"/>
			</g>
			<g>
				<path style="fill-rule:evenodd;clip-rule:evenodd;fill:#FFFFFF;" d="M17.1157227,32.0947266
					c0-2.9824219-2.4194336-5.4003906-5.4018555-5.4003906c-2.9838867,0-5.4013672,2.4179688-5.4013672,5.4003906H17.1157227z"/>
				<path style="fill:#231815;" d="M17.5395508,32.5185547H5.8886719v-0.4238281
					c0-3.2114258,2.6132813-5.8242188,5.8251953-5.8242188c3.2124023,0,5.8256836,2.612793,5.8256836,5.8242188V32.5185547z
					 M6.7539063,31.6708984h9.9204102c-0.2158203-2.5463867-2.3583984-4.5527344-4.9604492-4.5527344
					S6.9697266,29.1245117,6.7539063,31.6708984z"/>
			</g>
		</g>
		<g>
			<g>
				<circle style="fill-rule:evenodd;clip-rule:evenodd;fill:#F70000;" cx="52.2861328" cy="32.09375" r="6.9941406"/>
				<path style="fill:#231815;" d="M52.2861328,39.5273438c-4.0986328,0-7.4335938-3.3349609-7.4335938-7.4335938
					c0-4.0981445,3.3349609-7.4326172,7.4335938-7.4326172s7.4335938,3.3344727,7.4335938,7.4326172
					C59.7197266,36.1923828,56.3847656,39.5273438,52.2861328,39.5273438z M52.2861328,25.5400391
					c-3.6142578,0-6.5546875,2.9399414-6.5546875,6.5537109c0,3.6142578,2.9404297,6.5546875,6.5546875,6.5546875
					s6.5546875-2.9404297,6.5546875-6.5546875C58.8408203,28.4799805,55.9003906,25.5400391,52.2861328,25.5400391z"/>
			</g>
			<g>
				<path style="fill-rule:evenodd;clip-rule:evenodd;fill:#FFFFFF;" d="M57.6875,32.0947266
					c0-2.9824219-2.4189453-5.4003906-5.4023438-5.4003906c-2.9824219,0-5.4003906,2.4179688-5.4003906,5.4003906H57.6875z"/>
				<path style="fill:#231815;" d="M58.1113281,32.5185547H46.4609375v-0.4238281
					c0-3.2114258,2.6132813-5.8242188,5.8242188-5.8242188c3.2128906,0,5.8261719,2.612793,5.8261719,5.8242188V32.5185547z
					 M47.3261719,31.6708984h9.9199219c-0.2158203-2.5463867-2.3583984-4.5527344-4.9609375-4.5527344
					C49.6835938,27.1181641,47.5419922,29.1245117,47.3261719,31.6708984z"/>
			</g>
		</g>
	</g>
	<g>
		<g>
			<g>
				<circle style="fill-rule:evenodd;clip-rule:evenodd;fill:#1A8DFF;" cx="16.3122559" cy="47.375" r="6.9938965"/>
				<path style="fill:#231815;" d="M16.3125,54.8085938c-4.0986328,0-7.4335938-3.3349609-7.4335938-7.4335938
					s3.3349609-7.4335938,7.4335938-7.4335938s7.4331055,3.3349609,7.4331055,7.4335938S20.4111328,54.8085938,16.3125,54.8085938z
					 M16.3125,40.8203125c-3.6142578,0-6.5546875,2.9404297-6.5546875,6.5546875s2.9404297,6.5546875,6.5546875,6.5546875
					s6.5541992-2.9404297,6.5541992-6.5546875S19.9267578,40.8203125,16.3125,40.8203125z"/>
			</g>
			<g>
				<path style="fill-rule:evenodd;clip-rule:evenodd;fill:#FFFFFF;" d="M21.7138672,47.375
					c0-2.9824219-2.4189453-5.4003906-5.4018555-5.4003906c-2.9833984,0-5.4013672,2.4179688-5.4013672,5.4003906H21.7138672z"/>
				<path style="fill:#231815;" d="M22.1376953,47.7988281H10.4868164V47.375c0-3.2109375,2.6132813-5.8242188,5.8251953-5.8242188
					c3.2124023,0,5.8256836,2.6132813,5.8256836,5.8242188V47.7988281z M11.3520508,46.9511719h9.9204102
					c-0.2158203-2.546875-2.3583984-4.5527344-4.9604492-4.5527344S11.5678711,44.4042969,11.3520508,46.9511719z"/>
			</g>
		</g>
		<g>
			<g>
				<circle style="fill-rule:evenodd;clip-rule:evenodd;fill:#E513AA;" cx="47.6875" cy="47.375" r="6.9931641"/>
				<path style="fill:#231815;" d="M47.6884766,54.8085938c-4.0986328,0-7.4335938-3.3349609-7.4335938-7.4335938
					s3.3349609-7.4335938,7.4335938-7.4335938c4.0976563,0,7.4316406,3.3349609,7.4316406,7.4335938
					S51.7861328,54.8085938,47.6884766,54.8085938z M47.6884766,40.8203125c-3.6142578,0-6.5546875,2.9404297-6.5546875,6.5546875
					s2.9404297,6.5546875,6.5546875,6.5546875c3.6132813,0,6.5527344-2.9404297,6.5527344-6.5546875
					S51.3017578,40.8203125,47.6884766,40.8203125z"/>
			</g>
			<g>
				<path style="fill-rule:evenodd;clip-rule:evenodd;fill:#FFFFFF;" d="M53.0898438,47.375
					c0-2.9824219-2.4199219-5.4003906-5.4013672-5.4003906c-2.984375,0-5.4013672,2.4179688-5.4013672,5.4003906H53.0898438z"/>
				<path style="fill:#231815;" d="M53.5136719,47.7988281H41.8632813V47.375c0-3.2109375,2.6132813-5.8242188,5.8251953-5.8242188
					s5.8251953,2.6132813,5.8251953,5.8242188V47.7988281z M42.7285156,46.9511719h9.9199219
					c-0.2158203-2.546875-2.3583984-4.5527344-4.9599609-4.5527344S42.9443359,44.4042969,42.7285156,46.9511719z"/>
			</g>
		</g>
	</g>
	<g>
		<g>
			<g>
				<circle style="fill-rule:evenodd;clip-rule:evenodd;fill:#FFD215;" cx="32.0004883" cy="10.8266602" r="6.9946289"/>
				<path style="fill:#231815;" d="M32,18.2612305c-4.0986328,0-7.4335938-3.3349609-7.4335938-7.4345703
					c0-4.0981445,3.3349609-7.4326172,7.4335938-7.4326172c4.0996094,0,7.4345703,3.3344727,7.4345703,7.4326172
					C39.4345703,14.9262695,36.0996094,18.2612305,32,18.2612305z M32,4.2729492
					c-3.6142578,0-6.5546875,2.9399414-6.5546875,6.5537109c0,3.6147461,2.9404297,6.5556641,6.5546875,6.5556641
					c3.6152344,0,6.5556641-2.940918,6.5556641-6.5556641C38.5556641,7.2128906,35.6152344,4.2729492,32,4.2729492z"/>
			</g>
			<g>
				<path style="fill-rule:evenodd;clip-rule:evenodd;fill:#FFFFFF;" d="M37.4013672,10.8271484
					c0-2.9819336-2.4189453-5.4008789-5.4013672-5.4008789c-2.9833984,0-5.4013672,2.4189453-5.4013672,5.4008789H37.4013672z"/>
				<path style="fill:#231815;" d="M37.8251953,11.2509766H26.1748047v-0.4238281
					c0-3.2114258,2.6132813-5.824707,5.8251953-5.824707s5.8251953,2.6132813,5.8251953,5.824707V11.2509766z
					 M27.0400391,10.4033203h9.9199219C36.7441406,7.8564453,34.6015625,5.8500977,32,5.8500977
					C29.3979492,5.8500977,27.2558594,7.8564453,27.0400391,10.4033203z"/>
			</g>
		</g>
		<g>
			<g>
				<circle style="fill-rule:evenodd;clip-rule:evenodd;fill:#7C00FF;" cx="32.0004883" cy="52.1972656" r="6.9946289"/>
				<path style="fill:#231815;" d="M32,59.6308594c-4.0986328,0-7.4335938-3.3349609-7.4335938-7.4335938
					S27.9013672,44.7636719,32,44.7636719c4.0996094,0,7.4345703,3.3349609,7.4345703,7.4335938
					S36.0996094,59.6308594,32,59.6308594z M32,45.6425781c-3.6142578,0-6.5546875,2.9404297-6.5546875,6.5546875
					S28.3857422,58.7519531,32,58.7519531c3.6152344,0,6.5556641-2.9404297,6.5556641-6.5546875
					S35.6152344,45.6425781,32,45.6425781z"/>
			</g>
			<g>
				<path style="fill-rule:evenodd;clip-rule:evenodd;fill:#FFFFFF;" d="M37.4013672,52.1992188
					c0-2.984375-2.4189453-5.4023438-5.4013672-5.4023438c-2.9833984,0-5.4013672,2.4179688-5.4013672,5.4023438H37.4013672z"/>
				<path style="fill:#231815;" d="M37.8251953,52.6230469H26.1748047v-0.4238281
					c0-3.2128906,2.6132813-5.8261719,5.8251953-5.8261719s5.8251953,2.6132813,5.8251953,5.8261719V52.6230469z
					 M27.0400391,51.7753906h9.9199219C36.7441406,49.2275391,34.6025391,47.2207031,32,47.2207031
					C29.3979492,47.2207031,27.2558594,49.2275391,27.0400391,51.7753906z"/>
			</g>
		</g>
	</g>
</g>
<g>
	<path style="fill:#F7AA00;" d="M26.7944336,35.9189453l0.9946289-5.7954102l-4.2104492-4.1044922l5.8193359-0.8457031
		L32,19.9003906l2.6025391,5.2729492l5.8183594,0.8457031l-4.2099609,4.1044922l0.9941406,5.7954102L32,33.1835938
		L26.7944336,35.9189453z M32,31.2177734l2.8945313,1.5214844l-0.5527344-3.2231445l2.3408203-2.2822266l-3.2363281-0.4697266
		L32,23.8320313l-1.4467773,2.9321289l-3.2353516,0.4697266l2.3408203,2.2822266l-0.5527344,3.2226563L32,31.2177734z"/>
	<polygon style="fill-rule:evenodd;clip-rule:evenodd;fill:#FFD508;" points="32,21.8662109 34.0244141,25.96875 
		38.5517578,26.6264648 35.2763672,29.8198242 36.0498047,34.3291016 32,32.2006836 27.9501953,34.3291016 28.7241211,29.8198242 
		25.4482422,26.6264648 29.9755859,25.96875 	"/>
</g>
</svg>
