<?xml version="1.0" encoding="utf-8"?>
<!-- Generator: Adobe Illustrator 15.0.2, SVG Export Plug-In . SVG Version: 6.00 Build 0)  -->
<!DOCTYPE svg PUBLIC "-//W3C//DTD SVG 1.1//EN" "http://www.w3.org/Graphics/SVG/1.1/DTD/svg11.dtd">
<svg version="1.1" id="レイヤー_1" xmlns="http://www.w3.org/2000/svg" xmlns:xlink="http://www.w3.org/1999/xlink" x="0px"
	 y="0px" width="64px" height="64px" viewBox="0 0 64 64" enable-background="new 0 0 64 64" xml:space="preserve">
<g>
	<g>
		
			<line fill-rule="evenodd" clip-rule="evenodd" fill="none" stroke="#009FEF" stroke-width="1.8889" stroke-miterlimit="10" x1="9.333" y1="26.5" x2="54.666" y2="26.5"/>
		
			<line fill-rule="evenodd" clip-rule="evenodd" fill="none" stroke="#009FEF" stroke-width="1.8889" stroke-miterlimit="10" x1="32" y1="3.833" x2="32" y2="49.166"/>
		
			<line fill-rule="evenodd" clip-rule="evenodd" fill="none" stroke="#009FEF" stroke-width="1.8889" stroke-miterlimit="10" x1="48.027" y1="10.472" x2="15.972" y2="42.527"/>
		
			<line fill-rule="evenodd" clip-rule="evenodd" fill="none" stroke="#009FEF" stroke-width="1.8889" stroke-miterlimit="10" x1="48.027" y1="42.527" x2="15.972" y2="10.472"/>
		
			<circle fill-rule="evenodd" clip-rule="evenodd" fill="none" stroke="#009FEF" stroke-width="1.8889" stroke-miterlimit="10" cx="32" cy="26.5" r="22.076"/>
		
			<polygon fill-rule="evenodd" clip-rule="evenodd" fill="none" stroke="#009FEF" stroke-width="2.4612" stroke-miterlimit="10" points="
			17.683,69.828 32,24.921 46.318,69.828 		"/>
	</g>
	<g>
		<g>
			<g>
				
					<circle fill-rule="evenodd" clip-rule="evenodd" fill="#2EBA00" stroke="#231815" stroke-width="0.8788" stroke-miterlimit="10" cx="16.83" cy="17.033" r="6.994"/>
				
					<path fill-rule="evenodd" clip-rule="evenodd" fill="#FFFFFF" stroke="#231815" stroke-width="0.8473" stroke-miterlimit="10" d="
					M22.232,17.034c0-2.982-2.419-5.401-5.401-5.401c-2.984,0-5.402,2.418-5.402,5.401H22.232z"/>
			</g>
			<g>
				
					<circle fill-rule="evenodd" clip-rule="evenodd" fill="#FF7110" stroke="#231815" stroke-width="0.8788" stroke-miterlimit="10" cx="47.169" cy="17.033" r="6.994"/>
				
					<path fill-rule="evenodd" clip-rule="evenodd" fill="#FFFFFF" stroke="#231815" stroke-width="0.8473" stroke-miterlimit="10" d="
					M52.57,17.034c0-2.982-2.419-5.401-5.401-5.401c-2.983,0-5.401,2.418-5.401,5.401H52.57z"/>
			</g>
		</g>
		<g>
			<g>
				
					<circle fill-rule="evenodd" clip-rule="evenodd" fill="#19F4BF" stroke="#231815" stroke-width="0.8788" stroke-miterlimit="10" cx="11.714" cy="32.094" r="6.994"/>
				
					<path fill-rule="evenodd" clip-rule="evenodd" fill="#FFFFFF" stroke="#231815" stroke-width="0.8473" stroke-miterlimit="10" d="
					M17.116,32.095c0-2.982-2.419-5.4-5.402-5.4c-2.984,0-5.401,2.418-5.401,5.4H17.116z"/>
			</g>
			<g>
				
					<circle fill-rule="evenodd" clip-rule="evenodd" fill="#F70000" stroke="#231815" stroke-width="0.8788" stroke-miterlimit="10" cx="52.286" cy="32.094" r="6.994"/>
				
					<path fill-rule="evenodd" clip-rule="evenodd" fill="#FFFFFF" stroke="#231815" stroke-width="0.8473" stroke-miterlimit="10" d="
					M57.688,32.095c0-2.982-2.419-5.4-5.402-5.4c-2.982,0-5.4,2.418-5.4,5.4H57.688z"/>
			</g>
		</g>
		<g>
			<g>
				
					<circle fill-rule="evenodd" clip-rule="evenodd" fill="#1A8DFF" stroke="#231815" stroke-width="0.8788" stroke-miterlimit="10" cx="16.312" cy="47.375" r="6.994"/>
				
					<path fill-rule="evenodd" clip-rule="evenodd" fill="#FFFFFF" stroke="#231815" stroke-width="0.8473" stroke-miterlimit="10" d="
					M21.714,47.375c0-2.982-2.419-5.4-5.402-5.4c-2.983,0-5.401,2.418-5.401,5.4H21.714z"/>
			</g>
			<g>
				
					<circle fill-rule="evenodd" clip-rule="evenodd" fill="#E513AA" stroke="#231815" stroke-width="0.8788" stroke-miterlimit="10" cx="47.688" cy="47.375" r="6.993"/>
				
					<path fill-rule="evenodd" clip-rule="evenodd" fill="#FFFFFF" stroke="#231815" stroke-width="0.8473" stroke-miterlimit="10" d="
					M53.09,47.375c0-2.982-2.42-5.4-5.401-5.4c-2.984,0-5.401,2.418-5.401,5.4H53.09z"/>
			</g>
		</g>
		<g>
			<g>
				
					<circle fill-rule="evenodd" clip-rule="evenodd" fill="#FFD215" stroke="#231815" stroke-width="0.8788" stroke-miterlimit="10" cx="32" cy="10.827" r="6.995"/>
				
					<path fill-rule="evenodd" clip-rule="evenodd" fill="#FFFFFF" stroke="#231815" stroke-width="0.8473" stroke-miterlimit="10" d="
					M37.401,10.827c0-2.982-2.419-5.401-5.401-5.401c-2.983,0-5.401,2.419-5.401,5.401H37.401z"/>
			</g>
			<g>
				
					<circle fill-rule="evenodd" clip-rule="evenodd" fill="#7C00FF" stroke="#231815" stroke-width="0.8788" stroke-miterlimit="10" cx="32" cy="52.197" r="6.995"/>
				
					<path fill-rule="evenodd" clip-rule="evenodd" fill="#FFFFFF" stroke="#231815" stroke-width="0.8473" stroke-miterlimit="10" d="
					M37.401,52.199c0-2.984-2.419-5.402-5.401-5.402c-2.983,0-5.401,2.418-5.401,5.402H37.401z"/>
			</g>
		</g>
	</g>
	<g>
		<polygon fill="none" stroke="#F7AA00" stroke-width="1.7399" stroke-miterlimit="10" points="32,21.866 34.024,25.969 
			38.552,26.626 35.276,29.82 36.05,34.329 32,32.201 27.95,34.329 28.724,29.82 25.448,26.626 29.976,25.969 		"/>
		<polygon fill-rule="evenodd" clip-rule="evenodd" fill="#FFD508" points="32,21.866 34.024,25.969 38.552,26.626 35.276,29.82 
			36.05,34.329 32,32.201 27.95,34.329 28.724,29.82 25.448,26.626 29.976,25.969 		"/>
	</g>
</g>
</svg>
