<?xml version="1.0" encoding="UTF-8" standalone="no"?>
<!-- Generator: Adobe Illustrator 15.0.2, SVG Export Plug-In . SVG Version: 6.00 Build 0)  -->

<svg
   xmlns:dc="http://purl.org/dc/elements/1.1/"
   xmlns:cc="http://creativecommons.org/ns#"
   xmlns:rdf="http://www.w3.org/1999/02/22-rdf-syntax-ns#"
   xmlns:svg="http://www.w3.org/2000/svg"
   xmlns="http://www.w3.org/2000/svg"
   xmlns:sodipodi="http://sodipodi.sourceforge.net/DTD/sodipodi-0.dtd"
   xmlns:inkscape="http://www.inkscape.org/namespaces/inkscape"
   version="1.1"
   id="レイヤー_1"
   x="0px"
   y="0px"
   width="64px"
   height="64px"
   viewBox="0 0 64 64"
   enable-background="new 0 0 64 64"
   xml:space="preserve"
   inkscape:version="0.48.4 r9939"
   sodipodi:docname="film_frames.svg"><metadata
     id="metadata36"><rdf:RDF><cc:Work
         rdf:about=""><dc:format>image/svg+xml</dc:format><dc:type
           rdf:resource="http://purl.org/dc/dcmitype/StillImage" /></cc:Work></rdf:RDF></metadata><defs
     id="defs34" /><sodipodi:namedview
     pagecolor="#ffffff"
     bordercolor="#666666"
     borderopacity="1"
     objecttolerance="10"
     gridtolerance="10"
     guidetolerance="10"
     inkscape:pageopacity="0"
     inkscape:pageshadow="2"
     inkscape:window-width="640"
     inkscape:window-height="480"
     id="namedview32" /><g
     id="g3"><linearGradient
       id="SVGID_1_"
       gradientUnits="userSpaceOnUse"
       x1="10.418"
       y1="6.9893"
       x2="49.2461"
       y2="51.3864"><stop
         offset="0"
         style="stop-color:#424242"
         id="stop6" /><stop
         offset="1"
         style="stop-color:#000000"
         id="stop8" /></linearGradient><rect
       x="4.333"
       y="15.5"
       fill="url(#SVGID_1_)"
       width="55.334"
       height="32.334"
       id="rect10" /><rect
       x="15.875"
       y="18.625"
       fill="#FFFFFF"
       width="32.25"
       height="25.834"
       id="rect12" /><rect
       x="4.333"
       y="18.625"
       fill="#FFFFFF"
       width="10.125"
       height="25.834"
       id="rect14" /><rect
       x="49.542"
       y="18.625"
       fill="#FFFFFF"
       width="10.125"
       height="25.834"
       id="rect16" /><linearGradient
       id="SVGID_2_"
       gradientUnits="userSpaceOnUse"
       x1="17.1685"
       y1="-3.8755"
       x2="43.8518"
       y2="26.6349"><stop
         offset="0"
         style="stop-color:#424242"
         id="stop19" /><stop
         offset="1"
         style="stop-color:#000000"
         id="stop21" /></linearGradient><path
       fill="url(#SVGID_2_)"
       d="M56.979,15.125v-4.417h2.688V9.542H4.333v1.167h3.75v4.417h-3.75v1.5h55.334v-1.5H56.979z    M14.748,15.125h-4.417v-4.417h4.417V15.125z M21.412,15.125h-4.417v-4.417h4.417V15.125z M28.076,15.125h-4.417v-4.417h4.417   V15.125z M34.739,15.125h-4.417v-4.417h4.417V15.125z M41.403,15.125h-4.417v-4.417h4.417V15.125z M48.067,15.125h-4.416v-4.417   h4.416V15.125z M54.731,15.125h-4.417v-4.417h4.417V15.125z"
       id="path23" /><linearGradient
       id="SVGID_3_"
       gradientUnits="userSpaceOnUse"
       x1="17.1685"
       y1="33.958"
       x2="43.8518"
       y2="64.4684"><stop
         offset="0"
         style="stop-color:#424242"
         id="stop26" /><stop
         offset="1"
         style="stop-color:#000000"
         id="stop28" /></linearGradient><path
       fill="url(#SVGID_3_)"
       d="M56.979,52.959v-4.418h2.688v-1.166H4.333v1.166h3.75v4.418h-3.75v1.5h55.334v-1.5H56.979z    M14.748,52.959h-4.417v-4.418h4.417V52.959z M21.412,52.959h-4.417v-4.418h4.417V52.959z M28.076,52.959h-4.417v-4.418h4.417   V52.959z M34.739,52.959h-4.417v-4.418h4.417V52.959z M41.403,52.959h-4.417v-4.418h4.417V52.959z M48.067,52.959h-4.416v-4.418   h4.416V52.959z M54.731,52.959h-4.417v-4.418h4.417V52.959z"
       id="path30" /></g></svg>