<?xml version="1.0" encoding="utf-8"?>
<!-- Generator: Adobe Illustrator 15.0.2, SVG Export Plug-In . SVG Version: 6.00 Build 0)  -->
<!DOCTYPE svg PUBLIC "-//W3C//DTD SVG 1.1//EN" "http://www.w3.org/Graphics/SVG/1.1/DTD/svg11.dtd">
<svg version="1.1" id="レイヤー_1" xmlns="http://www.w3.org/2000/svg" xmlns:xlink="http://www.w3.org/1999/xlink" x="0px"
	 y="0px" width="64px" height="64px" viewBox="0 0 64 64" enable-background="new 0 0 64 64" xml:space="preserve">
<g>
	<g>
		<g>
			
				<rect x="31.66" y="17.488" fill="none" stroke="#000000" stroke-width="0.6408" stroke-miterlimit="10" width="0.883" height="2.833"/>
			<rect x="31.66" y="17.488" fill="#D3D3D3" width="0.883" height="2.833"/>
		</g>
		<g>
			
				<rect x="34.377" y="17.488" fill="none" stroke="#000000" stroke-width="0.6408" stroke-miterlimit="10" width="0.883" height="2.833"/>
			<rect x="34.377" y="17.488" fill="#D3D3D3" width="0.883" height="2.833"/>
		</g>
		<g>
			
				<rect x="37.094" y="17.488" fill="none" stroke="#000000" stroke-width="0.6408" stroke-miterlimit="10" width="0.883" height="2.833"/>
			<rect x="37.094" y="17.488" fill="#D3D3D3" width="0.883" height="2.833"/>
		</g>
		<g>
			
				<rect x="39.809" y="17.488" fill="none" stroke="#000000" stroke-width="0.6408" stroke-miterlimit="10" width="0.885" height="2.833"/>
			<rect x="39.809" y="17.488" fill="#D3D3D3" width="0.885" height="2.833"/>
		</g>
		<g>
			
				<rect x="42.525" y="17.488" fill="none" stroke="#000000" stroke-width="0.6408" stroke-miterlimit="10" width="0.885" height="2.833"/>
			<rect x="42.525" y="17.488" fill="#D3D3D3" width="0.885" height="2.833"/>
		</g>
		<g>
			
				<rect x="45.244" y="17.488" fill="none" stroke="#000000" stroke-width="0.6408" stroke-miterlimit="10" width="0.883" height="2.833"/>
			<rect x="45.244" y="17.488" fill="#D3D3D3" width="0.883" height="2.833"/>
		</g>
		<g>
			
				<rect x="47.961" y="17.488" fill="none" stroke="#000000" stroke-width="0.6408" stroke-miterlimit="10" width="0.883" height="2.833"/>
			<rect x="47.961" y="17.488" fill="#D3D3D3" width="0.883" height="2.833"/>
		</g>
		<g>
			
				<rect x="50.678" y="17.488" fill="none" stroke="#000000" stroke-width="0.6408" stroke-miterlimit="10" width="0.883" height="2.833"/>
			<rect x="50.678" y="17.488" fill="#D3D3D3" width="0.883" height="2.833"/>
		</g>
		<g>
			
				<rect x="53.393" y="17.488" fill="none" stroke="#000000" stroke-width="0.6408" stroke-miterlimit="10" width="0.885" height="2.833"/>
			<rect x="53.393" y="17.488" fill="#D3D3D3" width="0.885" height="2.833"/>
		</g>
		<g>
			
				<rect x="56.109" y="17.488" fill="none" stroke="#000000" stroke-width="0.6408" stroke-miterlimit="10" width="0.885" height="2.833"/>
			<rect x="56.109" y="17.488" fill="#D3D3D3" width="0.885" height="2.833"/>
		</g>
	</g>
	<polygon points="32.519,22.806 26.943,22.806 26.943,33.492 12.153,33.492 12.153,40.848 30.35,40.848 30.35,38.758 32.519,38.758 
			"/>
	<g>
		<path fill="#E80707" stroke="#000000" stroke-width="0.9292" stroke-miterlimit="10" d="M4.399,30.157
			c0-0.451,0.239-1.101,0.532-1.444l4.322-7.767c0.292-0.343,0.9-0.625,1.351-0.625h18.152c0.45,0,0.82,0.37,0.82,0.82v15.093
			c0,0.451-0.37,0.82-0.82,0.82H16.067c-0.45,0-1.08,1.559-1.399,1.877l-2.255,2.256c-0.319,0.318-0.949,0.58-1.399,0.58H5.219
			c-0.451,0-0.82-0.369-0.82-0.82V30.157z"/>
	</g>
	<g>
		<path fill="none" stroke="#280000" stroke-width="0.8196" stroke-miterlimit="10" d="M7.901,23.121
			c0.213-0.397,0.757-0.722,1.208-0.722h0.266c0.451,0,0.63,0.317,0.4,0.704l-2.562,4.3c-0.23,0.387-0.774,0.704-1.208,0.704
			c-0.433,0-0.613-0.325-0.399-0.722L7.901,23.121z"/>
		<linearGradient id="SVGID_1_" gradientUnits="userSpaceOnUse" x1="8.6831" y1="29.7061" x2="6.9708" y2="21.9721">
			<stop  offset="0" style="stop-color:#FFFFFF"/>
			<stop  offset="0.1312" style="stop-color:#F2FBFF"/>
			<stop  offset="0.3747" style="stop-color:#CFF0FF"/>
			<stop  offset="0.7011" style="stop-color:#98DFFF"/>
			<stop  offset="1" style="stop-color:#5FCEFF"/>
		</linearGradient>
		<path fill="url(#SVGID_1_)" d="M7.901,23.121c0.213-0.397,0.757-0.722,1.208-0.722h0.266c0.451,0,0.63,0.317,0.4,0.704l-2.562,4.3
			c-0.23,0.387-0.774,0.704-1.208,0.704c-0.433,0-0.613-0.325-0.399-0.722L7.901,23.121z"/>
	</g>
	<g>
		<path fill="none" stroke="#280000" stroke-width="0.8196" stroke-miterlimit="10" d="M10.078,28.108
			c-0.451,0-0.637-0.321-0.415-0.712l2.435-4.284c0.223-0.392,0.773-0.712,1.224-0.712h3.31c0.451,0,0.819,0.369,0.819,0.819v4.07
			c0,0.451-0.369,0.819-0.819,0.819H10.078z"/>
		<linearGradient id="SVGID_2_" gradientUnits="userSpaceOnUse" x1="14.8081" y1="31.3037" x2="12.6175" y2="21.4098">
			<stop  offset="0" style="stop-color:#FFFFFF"/>
			<stop  offset="0.1312" style="stop-color:#F2FBFF"/>
			<stop  offset="0.3747" style="stop-color:#CFF0FF"/>
			<stop  offset="0.7011" style="stop-color:#98DFFF"/>
			<stop  offset="1" style="stop-color:#5FCEFF"/>
		</linearGradient>
		<path fill="url(#SVGID_2_)" d="M10.078,28.108c-0.451,0-0.637-0.321-0.415-0.712l2.435-4.284c0.223-0.392,0.773-0.712,1.224-0.712
			h3.31c0.451,0,0.819,0.369,0.819,0.819v4.07c0,0.451-0.369,0.819-0.819,0.819H10.078z"/>
	</g>
	<g>
		<path d="M5.626,28.649c0,0.502-0.411,0.914-0.914,0.914h-2.15c-0.502,0-0.914-0.411-0.914-0.914v-1.027
			c0-0.502,0.411-0.914,0.914-0.914h2.15c0.502,0,0.914,0.411,0.914,0.914V28.649z"/>
	</g>
	<g>
		<path d="M5.341,25.41c0,0.451-0.369,0.819-0.819,0.819h-1.77c-0.451,0-0.819-0.369-0.819-0.819v-1.468
			c0-0.451,0.369-0.819,0.819-0.819h1.77c0.451,0,0.819,0.369,0.819,0.819V25.41z"/>
	</g>
	<g>
		<path fill="none" stroke="#000000" stroke-width="0.8196" stroke-miterlimit="10" d="M4.468,30.498c0,0-0.319,0-0.708,0
			s-0.708-0.369-0.708-0.819v-7.582c0-0.451,0.369-0.819,0.819-0.819h4.923"/>
	</g>
	
		<line fill="none" stroke="#210000" stroke-width="0.8196" stroke-miterlimit="10" x1="15.438" y1="30.188" x2="17.654" y2="30.188"/>
	<polygon fill="#E80707" stroke="#000000" stroke-width="0.9292" stroke-miterlimit="10" points="31.202,31.045 31.202,38.139 
		24.855,38.139 24.855,41.768 57.451,41.768 57.451,31.045 	"/>
	
		<line fill="none" stroke="#210000" stroke-width="0.8196" stroke-miterlimit="10" x1="25.432" y1="30.188" x2="27.649" y2="30.188"/>
	<g>
		<path fill="none" stroke="#280000" stroke-width="0.8196" stroke-miterlimit="10" d="M20.561,28.108
			c-0.451,0-0.819-0.369-0.819-0.819v-4.07c0-0.451,0.369-0.819,0.819-0.819h5.954c0.451,0,0.819,0.369,0.819,0.819v4.07
			c0,0.451-0.369,0.819-0.819,0.819H20.561z"/>
		<linearGradient id="SVGID_3_" gradientUnits="userSpaceOnUse" x1="24.9219" y1="31.5" x2="22.5354" y2="20.7213">
			<stop  offset="0" style="stop-color:#FFFFFF"/>
			<stop  offset="0.1312" style="stop-color:#F2FBFF"/>
			<stop  offset="0.3747" style="stop-color:#CFF0FF"/>
			<stop  offset="0.7011" style="stop-color:#98DFFF"/>
			<stop  offset="1" style="stop-color:#5FCEFF"/>
		</linearGradient>
		<path fill="url(#SVGID_3_)" d="M20.561,28.108c-0.451,0-0.819-0.369-0.819-0.819v-4.07c0-0.451,0.369-0.819,0.819-0.819h5.954
			c0.451,0,0.819,0.369,0.819,0.819v4.07c0,0.451-0.369,0.819-0.819,0.819H20.561z"/>
	</g>
	<g>
		<path fill="#E80707" d="M57.451,35.658c0,0.512-0.418,0.93-0.93,0.93h-24.39c-0.511,0-0.929-0.418-0.929-0.93V21.251
			c0-0.511,0.418-0.929,0.929-0.929h24.39c0.512,0,0.93,0.418,0.93,0.929V35.658z"/>
		<path fill="none" stroke="#000000" stroke-width="0.9292" stroke-miterlimit="10" d="M57.451,35.658c0,0.512-0.418,0.93-0.93,0.93
			h-24.39c-0.511,0-0.929-0.418-0.929-0.93V21.251c0-0.511,0.418-0.929,0.929-0.929h24.39c0.512,0,0.93,0.418,0.93,0.929V35.658z"/>
	</g>
	<g>
		
			<rect x="4.833" y="35.389" fill="none" stroke="#000000" stroke-width="0.7886" stroke-miterlimit="10" width="1.822" height="2.4"/>
		<rect x="4.833" y="35.389" fill="#F9CF00" width="1.822" height="2.4"/>
	</g>
	<g>
		<path fill="#D3D3D3" d="M13.179,41.07c0,0.559-0.457,1.016-1.015,1.016H4.066c-0.558,0-1.015-0.457-1.015-1.016v-1.297
			c0-0.559,0.457-1.016,1.015-1.016h8.098c0.558,0,1.015,0.457,1.015,1.016V41.07z"/>
		<path fill="none" stroke="#000000" stroke-width="0.8956" stroke-miterlimit="10" d="M13.179,41.07
			c0,0.559-0.457,1.016-1.015,1.016H4.066c-0.558,0-1.015-0.457-1.015-1.016v-1.297c0-0.559,0.457-1.016,1.015-1.016h8.098
			c0.558,0,1.015,0.457,1.015,1.016V41.07z"/>
	</g>
	<g>
		<circle cx="15.922" cy="41.693" r="5.728"/>
		<circle fill="#ECECED" cx="15.923" cy="41.693" r="3.044"/>
	</g>
	
		<rect x="24.095" y="40.422" fill="#D3D3D3" stroke="#000000" stroke-width="0.8196" stroke-miterlimit="10" width="34.362" height="1.664"/>
	
		<rect x="30.35" y="34.99" fill="#D3D3D3" stroke="#000000" stroke-width="0.8196" stroke-miterlimit="10" width="10.764" height="1.598"/>
	<g>
		<circle cx="42.526" cy="41.693" r="5.728"/>
		<path fill="#ECECED" d="M45.568,41.693c0-1.682-1.359-3.045-3.043-3.045c-1.68,0-3.043,1.363-3.043,3.045
			c0,1.68,1.363,3.043,3.043,3.043C44.209,44.736,45.568,43.373,45.568,41.693z"/>
	</g>
	<g>
		
			<rect x="31.66" y="16.965" fill="none" stroke="#000000" stroke-width="0.791" stroke-miterlimit="10" width="25.334" height="1.046"/>
		<rect x="31.66" y="16.965" fill="#D3D3D3" width="25.334" height="1.046"/>
	</g>
	<g>
		
			<rect x="33.447" y="21.278" fill="none" stroke="#000000" stroke-width="0.791" stroke-miterlimit="10" width="5.332" height="1.122"/>
		<rect x="33.447" y="21.278" fill="#D3D3D3" width="5.332" height="1.122"/>
	</g>
	<g>
		
			<rect x="33.447" y="24.693" fill="none" stroke="#000000" stroke-width="0.791" stroke-miterlimit="10" width="5.332" height="1.122"/>
		<rect x="33.447" y="24.693" fill="#D3D3D3" width="5.332" height="1.122"/>
	</g>
	<g>
		
			<rect x="33.447" y="27.895" fill="none" stroke="#000000" stroke-width="0.791" stroke-miterlimit="10" width="5.332" height="1.121"/>
		<rect x="33.447" y="27.895" fill="#D3D3D3" width="5.332" height="1.121"/>
	</g>
	<g>
		
			<rect x="33.447" y="31.045" fill="none" stroke="#000000" stroke-width="0.791" stroke-miterlimit="10" width="5.332" height="1.121"/>
		<rect x="33.447" y="31.045" fill="#D3D3D3" width="5.332" height="1.121"/>
	</g>
	<g>
		
			<rect x="32.905" y="19.941" fill="none" stroke="#000000" stroke-width="0.791" stroke-miterlimit="10" width="1.083" height="12.466"/>
		<rect x="32.905" y="19.941" fill="#D3D3D3" width="1.083" height="12.466"/>
	</g>
	<g>
		
			<rect x="38.236" y="19.941" fill="none" stroke="#000000" stroke-width="0.791" stroke-miterlimit="10" width="1.084" height="12.466"/>
		<rect x="38.236" y="19.941" fill="#D3D3D3" width="1.084" height="12.466"/>
	</g>
	<polyline opacity="0.35" fill="none" stroke="#000000" stroke-width="0.4646" stroke-miterlimit="10" points="7.706,38.197 
		7.706,28.456 11.534,21.839 18.812,21.839 18.812,37.055 	"/>
	<polyline opacity="0.35" fill="none" stroke="#000000" stroke-width="0.4646" stroke-miterlimit="10" points="28.415,36.588 
		28.415,21.839 18.812,21.839 	"/>
	<g>
		<path fill="#F2EEE7" stroke="#000000" stroke-width="0.71" stroke-miterlimit="10" d="M40.787,31.209c0,0-0.777-1.967,1.348-2.281
			l6.482,5.009l-0.357,2.029C48.26,35.967,41.73,32.625,40.787,31.209z"/>
		<path fill="#F2EEE7" stroke="#000000" stroke-width="0.71" stroke-miterlimit="10" d="M52.275,20.404
			c-4.814,0-8.713,3.901-8.713,8.712s3.898,8.714,8.713,8.714c4.811,0,8.711-3.902,8.711-8.714S57.086,20.404,52.275,20.404z
			 M52.275,35.547c-3.553,0-6.428-2.878-6.428-6.43c0-3.55,2.875-6.43,6.428-6.43s6.43,2.88,6.43,6.43
			C58.705,32.668,55.828,35.547,52.275,35.547z"/>
		<path fill="#F2EEE7" stroke="#000000" stroke-width="0.71" stroke-miterlimit="10" d="M53.639,20.403
			c-4.813,0-8.715,3.901-8.715,8.712c0,4.812,3.902,8.714,8.715,8.714s8.713-3.902,8.713-8.714
			C62.352,24.304,58.451,20.403,53.639,20.403z M53.639,35.547c-3.553,0-6.43-2.878-6.43-6.43c0-3.551,2.877-6.43,6.43-6.43
			c3.551,0,6.43,2.879,6.43,6.43C60.068,32.668,57.189,35.547,53.639,35.547z"/>
		<path fill="#F2EEE7" stroke="#000000" stroke-width="0.71" stroke-miterlimit="10" d="M47.639,19.765v2.882
			c0,0,6.566-0.826,8.592,0.586l0.75-2.165C56.98,21.068,54.09,19.412,47.639,19.765z"/>
		<polygon fill="#FF0624" stroke="#000000" stroke-width="0.71" stroke-miterlimit="10" points="51.354,34.426 50.582,38.334 
			51.523,38.391 52.494,34.549 		"/>
		<polygon fill="#FF0624" stroke="#000000" stroke-width="0.71" stroke-miterlimit="10" points="55.533,24.466 56.621,20.682 
			57.586,20.896 56.645,25.155 		"/>
		
			<rect x="47.162" y="19.715" fill="#FCD32B" stroke="#000000" stroke-width="0.71" stroke-miterlimit="10" width="5.113" height="2.972"/>
	</g>
	<g>
		<path fill="none" stroke="#000000" stroke-width="0.9292" stroke-miterlimit="10" d="M16.987,18.27
			c0,0.558-0.456,1.014-1.014,1.014h-4.142c-0.558,0-1.014-0.456-1.014-1.014v-0.677c0-0.558,0.456-1.014,1.014-1.014h4.142
			c0.558,0,1.014,0.456,1.014,1.014V18.27z"/>
		<path fill="#E80707" d="M16.987,18.27c0,0.558-0.456,1.014-1.014,1.014h-4.142c-0.558,0-1.014-0.456-1.014-1.014v-0.677
			c0-0.558,0.456-1.014,1.014-1.014h4.142c0.558,0,1.014,0.456,1.014,1.014V18.27z"/>
	</g>
</g>
</svg>
