<?xml version="1.0" encoding="utf-8"?>
<!-- Generator: Adobe Illustrator 15.0.0, SVG Export Plug-In . SVG Version: 6.00 Build 0)  -->
<!DOCTYPE svg PUBLIC "-//W3C//DTD SVG 1.1//EN" "http://www.w3.org/Graphics/SVG/1.1/DTD/svg11.dtd">
<svg version="1.1" id="レイヤー_1" xmlns="http://www.w3.org/2000/svg" xmlns:xlink="http://www.w3.org/1999/xlink" x="0px"
	 y="0px" width="64px" height="64px" viewBox="0 0 64 64" style="enable-background:new 0 0 64 64;" xml:space="preserve">
<g>
	<path style="fill-rule:evenodd;clip-rule:evenodd;" d="M53.2265625,26.5776367
		C41.0449219,25.3300781,36.1875,34.9511719,34.2910156,44.1347656c-0.3095703-7.1669922,3.9990234-12.3769531,6.1972656-17.9013672
		c2.1767578-5.4716797-1.4296875-11.0458984-3.6152344-15.1474609C35.0722656,7.7055664,33.7597656,4.2768555,32,1.2744141
		c-1.7597656,3.0024414-3.0722656,6.4311523-4.8735352,9.8115234c-2.1850586,4.1015625-5.7915039,9.6757813-3.6147461,15.1474609
		c2.1982422,5.5244141,6.5068359,10.734375,6.1967773,17.9013672c-1.8955078-9.1835938-6.753418-18.8046875-18.9345703-17.5571289
		c-6.5874023,0.6748047-11.8432617,9.496582-6.8852539,15.3198242c1.6499023,1.9375,4.0205078,2.7705078,6.8852539,3.7871094
		c-1.6586914-4.5214844,0.7441406-8.5371094,4.3037109-8.9511719c5.2304688-0.6083984,9.3203125,3.7832031,10.671875,7.4013672
		c-5.2128906-0.9326172-4.1689453,4.4326172,0.3442383,3.4433594c-0.1113281,3.9501953-6.4267578,4.5537109-6.8852539,0.8603516
		c-0.1865234-1.5019531,0.6499023-2.3828125,1.0327148-3.7871094c-7.699707-0.7490234-8.175293,7.9345703-3.9589844,10.5
		c1.2114258,0.7373047,3.0683594,1.2265625,4.8198242,1.2050781c5.6132813-0.0693359,7.6201172-3.9111328,8.6064453-8.9511719
		c0.5083008,1.1591797,0.5454102,2.8183594,0.1723633,3.9599609c-0.2236328,0.6835938-1.1323242,1.3583984-1.5493164,2.2373047
		c-0.769043,1.6210938-1.0107422,3.5410156-2.409668,4.4755859c1.3139648-0.1210938,2.5625-0.3066406,3.4423828-0.8613281
		C29.640625,59.6376953,31.3310547,60.6982422,32,62.7255859c0.6689453-2.0273438,2.359375-3.0878906,2.6357422-5.5087891
		c0.8798828,0.5546875,2.1279297,0.7402344,3.4423828,0.8613281c-1.3984375-0.9345703-1.640625-2.8544922-2.4101563-4.4755859
		c-0.4160156-0.8789063-1.3251953-1.5537109-1.5488281-2.2373047c-0.3730469-1.1416016-0.3359375-2.8007813,0.171875-3.9599609
		c0.9863281,5.0400391,2.9941406,8.8818359,8.6074219,8.9511719c1.7509766,0.0214844,3.6074219-0.4677734,4.8193359-1.2050781
		c4.2158203-2.5654297,3.7412109-11.2490234-3.9589844-10.5c0.3828125,1.4042969,1.2197266,2.2851563,1.0322266,3.7871094
		c-0.4580078,3.6933594-6.7734375,3.0898438-6.8847656-0.8603516c4.5136719,0.9892578,5.5566406-4.3759766,0.34375-3.4433594
		c1.3515625-3.6181641,5.4414063-8.0097656,10.671875-7.4013672c3.5605469,0.4140625,5.9628906,4.4296875,4.3046875,8.9511719
		c2.8642578-1.0166016,5.234375-1.8496094,6.8847656-3.7871094C65.0693359,36.0742188,59.8134766,27.2524414,53.2265625,26.5776367z
		"/>
</g>
</svg>
