<?xml version="1.0" encoding="utf-8"?>
<!-- Generator: Adobe Illustrator 15.0.2, SVG Export Plug-In . SVG Version: 6.00 Build 0)  -->
<!DOCTYPE svg PUBLIC "-//W3C//DTD SVG 1.1//EN" "http://www.w3.org/Graphics/SVG/1.1/DTD/svg11.dtd">
<svg version="1.1" id="レイヤー_1" xmlns="http://www.w3.org/2000/svg" xmlns:xlink="http://www.w3.org/1999/xlink" x="0px"
	 y="0px" width="64px" height="64px" viewBox="0 0 64 64" enable-background="new 0 0 64 64" xml:space="preserve">
<g>
	<polygon fill="#212121" stroke="#000000" stroke-miterlimit="10" points="58.483,59.115 57.541,60.115 6.458,60.115 5.517,59.115 
		5.517,4.885 6.458,3.885 55.411,3.885 58.483,7.276 	"/>
	<g>
		<path fill="#FFFFFF" d="M52.275,30.243c0-0.55-0.45-1-1-1H12.725c-0.55,0-1,0.45-1,1v28.872c0,0.55,0.45,1,1,1h38.551
			c0.55,0,1-0.45,1-1V30.243z"/>
		<path fill="none" stroke="#000000" stroke-width="0.9532" stroke-miterlimit="10" d="M52.275,30.243c0-0.55-0.45-1-1-1H12.725
			c-0.55,0-1,0.45-1,1v28.872c0,0.55,0.45,1,1,1h38.551c0.55,0,1-0.45,1-1V30.243z"/>
	</g>
	<g>
		
			<line fill="#FFFFFF" stroke="#000000" stroke-width="0.9532" stroke-miterlimit="10" x1="17.099" y1="35.637" x2="47.754" y2="35.637"/>
		
			<line fill="#FFFFFF" stroke="#000000" stroke-width="0.9532" stroke-miterlimit="10" x1="17.099" y1="39.92" x2="47.754" y2="39.92"/>
		
			<line fill="#FFFFFF" stroke="#000000" stroke-width="0.9532" stroke-miterlimit="10" x1="17.099" y1="44.203" x2="47.754" y2="44.203"/>
		
			<line fill="#FFFFFF" stroke="#000000" stroke-width="0.9532" stroke-miterlimit="10" x1="17.099" y1="48.485" x2="47.754" y2="48.485"/>
		
			<line fill="#FFFFFF" stroke="#000000" stroke-width="0.9532" stroke-miterlimit="10" x1="17.099" y1="52.769" x2="47.754" y2="52.769"/>
	</g>
	<g>
		<path fill="#676A6D" d="M52.275,19.063c0,0.55-0.45,1-1,1H12.725c-0.55,0-1-0.45-1-1V4.885c0-0.55,0.45-1,1-1h38.551
			c0.55,0,1,0.45,1,1V19.063z"/>
		<path fill="none" stroke="#000000" stroke-miterlimit="10" d="M52.275,19.063c0,0.55-0.45,1-1,1H12.725c-0.55,0-1-0.45-1-1V4.885
			c0-0.55,0.45-1,1-1h38.551c0.55,0,1,0.45,1,1V19.063z"/>
	</g>
	<polygon fill="#595757" points="10.325,9.344 8.581,6.321 6.836,9.344 7.753,9.344 7.753,12.75 9.408,12.75 9.408,9.344 	"/>
	<path fill="#F4F4F4" stroke="#000000" stroke-miterlimit="10" d="M22.344,3.885v16.178h29.357V3.885H22.344z M47.18,17.521h-6.803
		V6.292h6.803V17.521z"/>
</g>
</svg>
