<?xml version="1.0" encoding="utf-8"?>
<!-- Generator: Adobe Illustrator 15.0.0, SVG Export Plug-In . SVG Version: 6.00 Build 0)  -->
<!DOCTYPE svg PUBLIC "-//W3C//DTD SVG 1.1//EN" "http://www.w3.org/Graphics/SVG/1.1/DTD/svg11.dtd">
<svg version="1.1" id="レイヤー_1" xmlns="http://www.w3.org/2000/svg" xmlns:xlink="http://www.w3.org/1999/xlink" x="0px"
	 y="0px" width="64px" height="64px" viewBox="0 0 64 64" style="enable-background:new 0 0 64 64;" xml:space="preserve">
<g>
	<g>
		<linearGradient id="SVGID_1_" gradientUnits="userSpaceOnUse" x1="37.78125" y1="74.9814453" x2="31.5324841" y2="32.3648643">
			<stop  offset="0" style="stop-color:#86FF00"/>
			<stop  offset="1" style="stop-color:#269F00"/>
		</linearGradient>
		<path style="fill:url(#SVGID_1_);" d="M32.347168,25.8032227l2.1625977,0.6347656c0,0-8.2495117,13.2495117,3.9628906,41.9995117
			h-4.9628906C33.5097656,68.4375,26.3852539,40.0625,32.347168,25.8032227z"/>
		<path style="fill:#0E6000;" d="M39.2285156,68.9375h-6.1074219l-0.0957031-0.3769531
			c-0.2924805-1.1660156-7.097168-28.7011719-1.1396484-42.9501953l0.1728516-0.4130859l3.2207031,0.9458008l-0.34375,0.5585938
			c-0.0820313,0.1308594-7.9487305,13.4174805,3.9980469,41.5405273L39.2285156,68.9375z M33.9042969,67.9375h3.8164063
			c-10.5439453-25.2753906-5.3696289-38.3710938-3.9472656-41.1948242l-1.1333008-0.3320313
			C27.4682617,39.5878906,33.1035156,64.5644531,33.9042969,67.9375z"/>
	</g>
	<g>
		
			<linearGradient id="SVGID_2_" gradientUnits="userSpaceOnUse" x1="10.8588867" y1="37.6259766" x2="26.7876987" y2="38.0854568" gradientTransform="matrix(-0.3445 -0.9388 -0.9388 0.3445 76.1960678 34.5274277)">
			<stop  offset="0" style="stop-color:#FFDB00"/>
			<stop  offset="1" style="stop-color:#FF4F1F"/>
		</linearGradient>
		<path style="fill:url(#SVGID_2_);" d="M31.4291992,28.8842773c0,0-2.2807617,8.0161133,6.2797852,17.1118164
			c0,0,7.3320313-7.5859375,0.0898438-17.980957C30.5605469,17.6210938,31.4291992,28.8842773,31.4291992,28.8842773z"/>
		<path style="fill:#FF5B00;" d="M37.703125,46.7207031l-0.359375-0.3828125
			c-8.2719727-8.7890625-6.6616211-16.5375977-6.4194336-17.5009766c-0.0449219-0.6728516-0.1972656-3.9311523,0.96875-5.1904297
			c0.3242188-0.3505859,0.7363281-0.5356445,1.190918-0.5356445c1.3027344,0,2.9316406,1.4672852,5.125,4.6186523
			c7.390625,10.6103516-0.0644531,18.5341797-0.140625,18.6142578L37.703125,46.7207031z M33.0839844,24.1108398
			c-0.1782227,0-0.3198242,0.065918-0.4575195,0.2148438c-0.7045898,0.7612305-0.8027344,3.1767578-0.6987305,4.5200195
			l0.0068359,0.0883789l-0.0244141,0.0859375c-0.0209961,0.0766602-2.0180664,7.6362305,5.7871094,16.2280273
			c1.3515625-1.6640625,5.765625-8.2265625-0.3085938-16.9472656
			C34.8496094,24.6547852,33.6015625,24.1108398,33.0839844,24.1108398z"/>
	</g>
	<g>
		
			<linearGradient id="SVGID_3_" gradientUnits="userSpaceOnUse" x1="16.4233398" y1="45.0527344" x2="32.3514633" y2="45.5121956" gradientTransform="matrix(0.3919 -0.92 0.92 0.3919 -21.860569 34.65728)">
			<stop  offset="0" style="stop-color:#FFDB00"/>
			<stop  offset="1" style="stop-color:#FF4F1F"/>
		</linearGradient>
		<path style="fill:url(#SVGID_3_);" d="M32.1469727,29.0952148c0,0,1.8686523,8.121582-7.1430664,16.7680664
			c0,0-6.9360352-7.9492188,0.8261719-17.9609375C33.5898438,17.8911133,32.1469727,29.0952148,32.1469727,29.0952148z"/>
		<path style="fill:#FF5B00;" d="M24.9716797,46.5859375l-0.3447266-0.3945313
			c-0.0717773-0.0820313-7.1147461-8.3769531,0.8081055-18.5952148c2.3022461-2.9702148,3.9750977-4.3540039,5.2646484-4.3540039
			c0.4755859,0,0.8969727,0.1938477,1.2192383,0.5605469c1.1376953,1.2939453,0.8149414,4.5932617,0.7348633,5.2709961
			c0.1923828,0.9741211,1.4067383,8.793457-7.3037109,17.1489258L24.9716797,46.5859375z M30.699707,24.2421875
			c-0.5229492,0-1.7993164,0.515625-4.4746094,3.9663086c-6.4335938,8.2993164-2.4008789,15.168457-1.1669922,16.902832
			C33.3125,36.9042969,31.6772461,29.284668,31.659668,29.2075195l-0.0200195-0.0874023l0.0112305-0.0888672
			c0.1743164-1.3564453,0.1967773-3.7958984-0.4829102-4.5683594C31.0336914,24.3105469,30.8896484,24.2421875,30.699707,24.2421875
			z"/>
	</g>
	<g>
		<linearGradient id="SVGID_4_" gradientUnits="userSpaceOnUse" x1="19.9121094" y1="26.2817383" x2="35.8409195" y2="26.7412186">
			<stop  offset="0" style="stop-color:#FFDB00"/>
			<stop  offset="1" style="stop-color:#FF4F1F"/>
		</linearGradient>
		<path style="fill:url(#SVGID_4_);" d="M29.7719727,28.7373047c0,0-6.7387695,4.9023438-18.2260742,0
			c0,0,4.5942383-9.496582,16.8476563-6.2802734C40.6464844,25.6738281,29.7719727,28.7373047,29.7719727,28.7373047z"/>
		<path style="fill:#FF5B00;" d="M21.3764648,31.4160156c-3.203125,0-6.5766602-0.746582-10.0268555-2.21875l-0.4819336-0.2060547
			l0.2280273-0.4716797c0.0351563-0.0722656,3.5996094-7.2275391,12.4467773-7.2275391
			c1.5810547,0,3.2558594,0.2294922,4.9780273,0.6816406c4.2172852,1.1069336,6.1884766,2.2993164,6.2001953,3.7514648
			c0.0175781,1.9682617-3.7670898,3.190918-4.7314453,3.4702148C29.4697266,29.546875,26.4667969,31.4160156,21.3764648,31.4160156z
			 M12.2578125,28.4921875c3.1450195,1.2768555,6.2099609,1.9238281,9.1186523,1.9238281
			c5.1772461,0,8.0727539-2.0620117,8.1015625-2.0830078l0.1582031-0.0771484
			c1.6523438-0.4663086,4.0942383-1.5908203,4.0844727-2.5219727c-0.0019531-0.3203125-0.4042969-1.4677734-5.4541016-2.793457
			c-1.6396484-0.4301758-3.2290039-0.6484375-4.7241211-0.6484375
			C16.6054688,22.2919922,13.1811523,26.980957,12.2578125,28.4921875z"/>
	</g>
	<g>
		
			<linearGradient id="SVGID_5_" gradientUnits="userSpaceOnUse" x1="12.6943359" y1="15.1738281" x2="28.6238365" y2="15.6333284" gradientTransform="matrix(0.7255 0.6882 -0.6882 0.7255 25.0757408 -3.2429199)">
			<stop  offset="0" style="stop-color:#FFDB00"/>
			<stop  offset="1" style="stop-color:#FF4F1F"/>
		</linearGradient>
		<path style="fill:url(#SVGID_5_);" d="M29.3051758,25.0688477c0,0-8.2626953-1.0825195-13.2226563-12.5444336
			c0,0,9.8686523-3.7275391,16.5449219,7.0395508C39.3027344,30.3300781,29.3051758,25.0688477,29.3051758,25.0688477z"/>
		<path style="fill:#FF5B00;" d="M33.4121094,26.8540039c-1.6162109,0-3.8173828-1.0761719-4.2626953-1.3027344
			c-0.9770508-0.1586914-8.730957-1.7485352-13.5258789-12.828125l-0.2080078-0.4814453l0.4902344-0.1850586
			c0.0708008-0.0268555,1.765625-0.65625,4.237793-0.65625c3.6542969,0,8.8603516,1.3706055,12.9091797,7.8999023
			c2.1054688,3.3964844,2.7832031,5.5209961,2.1367188,6.6855469C34.96875,26.3818359,34.4804688,26.8540039,33.4121094,26.8540039z
			 M16.7670898,12.8354492c4.8115234,10.5991211,12.5244141,11.7275391,12.6030273,11.737793l0.1679688,0.0532227
			c0.0229492,0.012207,2.3540039,1.2275391,3.8740234,1.2275391c0.7050781,0,0.8535156-0.2666016,0.9023438-0.3544922
			c0.1992188-0.3588867,0.3945313-1.6298828-2.1118164-5.671875c-3.8061523-6.1386719-8.6586914-7.4272461-12.059082-7.4272461
			C18.6186523,12.4003906,17.409668,12.6601563,16.7670898,12.8354492z"/>
	</g>
	<g>
		
			<linearGradient id="SVGID_6_" gradientUnits="userSpaceOnUse" x1="1.8862305" y1="5.7207031" x2="17.8143539" y2="6.1801643" gradientTransform="matrix(-0.2246 0.9745 -0.9745 -0.2246 40.9123383 13.0220947)">
			<stop  offset="0" style="stop-color:#FFDB00"/>
			<stop  offset="1" style="stop-color:#FF4F1F"/>
		</linearGradient>
		<path style="fill:url(#SVGID_6_);" d="M30.3056641,22.6318359c0,0-3.2626953-7.668457,4.0947266-17.7607422
			c0,0,8.21875,6.609375,2.3339844,17.8276367C30.8486328,33.9160156,30.3056641,22.6318359,30.3056641,22.6318359z"/>
		<path style="fill:#FF5B00;" d="M32.4633789,28.1669922c-2.2133789,0-2.5927734-4.3383789-2.652832-5.4257813
			c-0.3613281-0.9267578-2.9238281-8.4125977,4.1855469-18.1645508l0.3085938-0.4238281l0.4082031,0.3286133
			c0.0859375,0.0688477,8.4707031,6.9995117,2.4648438,18.449707C35.3027344,26.503418,33.8046875,28.1669922,32.4633789,28.1669922
			z M34.4785156,5.6206055c-6.6879883,9.5258789-3.7436523,16.7426758-3.7128906,16.8154297l0.0395508,0.171875
			c0.0893555,1.8383789,0.6782227,4.559082,1.6582031,4.559082c0.4091797,0,1.6030273-0.4580078,3.8295898-4.7006836
			C41.1699219,13.1689453,35.9980469,7.112793,34.4785156,5.6206055z"/>
	</g>
	<g>
		
			<linearGradient id="SVGID_7_" gradientUnits="userSpaceOnUse" x1="-5.0957031" y1="1.7460938" x2="10.8317308" y2="2.2055349" gradientTransform="matrix(-0.9382 0.3462 -0.3462 -0.9382 39.9691849 24.4774094)">
			<stop  offset="0" style="stop-color:#FFDB00"/>
			<stop  offset="1" style="stop-color:#FF4F1F"/>
		</linearGradient>
		<path style="fill:url(#SVGID_7_);" d="M34.046875,22.184082c0,0,4.625-6.9316406,17.0976563-6.309082
			c0,0-1.0234375,10.4990234-13.6308594,11.7236328C24.9052734,28.8212891,34.046875,22.184082,34.046875,22.184082z"/>
		<path style="fill:#FF5B00;" d="M34.7695313,28.2490234c-2.5776367,0-4-0.5219727-4.3491211-1.5961914
			c-0.5947266-1.8320313,2.46875-4.2373047,3.2631836-4.8227539c0.5742188-0.8071289,5.4023438-7.0561523,17.4863281-6.4545898
			l0.5234375,0.0263672l-0.0507813,0.5214844c-0.0117188,0.109375-1.2128906,10.9228516-14.0820313,12.1728516
			C36.5175781,28.1977539,35.578125,28.2490234,34.7695313,28.2490234z M49.5800781,16.3354492
			c-10.8652344,0-15.0761719,6.065918-15.1191406,6.1269531l-0.1210938,0.1264648
			c-1.4067383,1.0224609-3.2578125,2.8637695-2.9682617,3.7553711c0.0883789,0.2719727,0.5966797,0.9047852,3.3979492,0.9047852
			c0.7753906,0,1.6835938-0.0498047,2.6953125-0.1479492c10.5761719-1.0273438,12.7128906-8.6420898,13.1015625-10.7495117
			C50.2324219,16.3408203,49.9023438,16.3354492,49.5800781,16.3354492z"/>
	</g>
	<g>
		
			<linearGradient id="SVGID_8_" gradientUnits="userSpaceOnUse" x1="-6.2250977" y1="7.9423828" x2="9.7023363" y2="8.401824" gradientTransform="matrix(-0.9724 -0.2332 -0.2332 0.9724 40.769783 20.2700958)">
			<stop  offset="0" style="stop-color:#FFDB00"/>
			<stop  offset="1" style="stop-color:#FF4F1F"/>
		</linearGradient>
		<path style="fill:url(#SVGID_8_);" d="M34.8105469,29.5336914c0,0,5.4101563,6.3393555,17.7207031,4.2514648
			c0,0-2.2519531-10.3066406-14.9160156-10.0375977C24.9501953,24.019043,34.8105469,29.5336914,34.8105469,29.5336914z"/>
		<path style="fill:#FF5B00;" d="M47.71875,34.7070313L47.71875,34.7070313c-8.5566406,0-12.6640625-4.1611328-13.2265625-4.7788086
			c-0.8730469-0.4970703-4.2680664-2.5683594-3.7924805-4.4780273c0.3515625-1.4091797,2.5444336-2.1088867,6.9038086-2.2026367
			c0.1679688-0.003418,0.3320313-0.0053711,0.4960938-0.0053711c12.4941406,0,14.8984375,10.3320313,14.9199219,10.4355469
			l0.1132813,0.5117188l-0.5175781,0.0878906C50.9375,34.5625,49.2890625,34.7070313,47.71875,34.7070313z M38.0996094,24.2421875
			c-0.1582031,0-0.3144531,0.0019531-0.4746094,0.0053711c-5.2192383,0.1118164-5.8774414,1.1342773-5.9545898,1.4448242
			c-0.2260742,0.9052734,1.8862305,2.5668945,3.3842773,3.4047852l0.1347656,0.1113281
			c0.0390625,0.0449219,3.9707031,4.4985352,12.5292969,4.4985352l0,0c1.3457031,0,2.75-0.1103516,4.1835938-0.328125
			C51.2753906,31.3637695,48.3359375,24.2421875,38.0996094,24.2421875z"/>
	</g>
</g>
</svg>
