<?xml version="1.0" encoding="UTF-8" standalone="no"?>
<!-- Generator: Adobe Illustrator 15.0.2, SVG Export Plug-In . SVG Version: 6.00 Build 0)  -->

<svg
   xmlns:dc="http://purl.org/dc/elements/1.1/"
   xmlns:cc="http://creativecommons.org/ns#"
   xmlns:rdf="http://www.w3.org/1999/02/22-rdf-syntax-ns#"
   xmlns:svg="http://www.w3.org/2000/svg"
   xmlns="http://www.w3.org/2000/svg"
   xmlns:sodipodi="http://sodipodi.sourceforge.net/DTD/sodipodi-0.dtd"
   xmlns:inkscape="http://www.inkscape.org/namespaces/inkscape"
   version="1.1"
   id="レイヤー_1"
   x="0px"
   y="0px"
   width="64px"
   height="64px"
   viewBox="0 0 64 64"
   enable-background="new 0 0 64 64"
   xml:space="preserve"
   inkscape:version="0.48.4 r9939"
   sodipodi:docname="fog.svg"><metadata
     id="metadata15"><rdf:RDF><cc:Work
         rdf:about=""><dc:format>image/svg+xml</dc:format><dc:type
           rdf:resource="http://purl.org/dc/dcmitype/StillImage" /></cc:Work></rdf:RDF></metadata><defs
     id="defs13" /><sodipodi:namedview
     pagecolor="#ffffff"
     bordercolor="#666666"
     borderopacity="1"
     objecttolerance="10"
     gridtolerance="10"
     guidetolerance="10"
     inkscape:pageopacity="0"
     inkscape:pageshadow="2"
     inkscape:window-width="640"
     inkscape:window-height="480"
     id="namedview11" /><g
     id="g3"><path
       opacity="0.5"
       fill="#D9DADA"
       d="M51.502,13.75h-7.65c0.09-0.277,0.15-0.567,0.15-0.875c0-1.588-1.287-2.875-2.875-2.875   H6.376c-1.588,0-2.875,1.287-2.875,2.875s1.287,2.875,2.875,2.875h4.516c-0.082,0.266-0.14,0.542-0.14,0.834   c0,1.564,1.269,2.833,2.834,2.833h37.916c1.565,0,2.834-1.269,2.834-2.833C54.336,15.019,53.067,13.75,51.502,13.75z"
       id="path5" /><path
       opacity="0.5"
       fill="#D9DADA"
       d="M57.833,22.25H36.249c-1.473,0-2.667,1.193-2.667,2.666c0,0.354,0.072,0.691,0.198,1.001   H20.668c-1.427,0-2.584,1.156-2.584,2.583s1.157,2.583,2.584,2.583h1.4h1.558c0.806,0,1.458,0.654,1.458,1.459   s-0.652,1.459-1.458,1.459h-0.855H9.167c-1.288,0-2.333,1.045-2.333,2.332c0,1.289,1.045,2.334,2.333,2.334H36.21   c1.289,0,2.333-1.045,2.333-2.334c0-1.287-1.044-2.332-2.333-2.332h-0.645h-0.523c-0.806,0-1.459-0.654-1.459-1.459   s0.653-1.459,1.459-1.459h1.226h6.15c1.427,0,2.583-1.156,2.583-2.583c0-0.324-0.066-0.631-0.176-0.917h13.008   c1.473,0,2.666-1.193,2.666-2.667C60.499,23.443,59.306,22.25,57.833,22.25z"
       id="path7" /><path
       opacity="0.5"
       fill="#D9DADA"
       d="M57.374,40.333H25.541c-1.727,0-3.125,1.399-3.125,3.125s1.398,3.125,3.125,3.125h2.91h0.131   c0.553,0,1,0.447,1,1s-0.447,1-1,1h-0.365h-9.426c-1.496,0-2.709,1.213-2.709,2.708c0,1.496,1.213,2.709,2.709,2.709H52.79   c1.496,0,2.709-1.213,2.709-2.709c0-1.495-1.213-2.708-2.709-2.708h-7.157c-0.372-0.159-0.634-0.528-0.634-0.958   c0-0.575,0.467-1.042,1.042-1.042h2.256h9.077c1.726,0,3.125-1.399,3.125-3.125S59.1,40.333,57.374,40.333z"
       id="path9" /></g></svg>