<?xml version="1.0" encoding="utf-8"?>
<!-- Generator: Adobe Illustrator 18.0.0, SVG Export Plug-In . SVG Version: 6.00 Build 0)  -->
<!DOCTYPE svg PUBLIC "-//W3C//DTD SVG 1.1//EN" "http://www.w3.org/Graphics/SVG/1.1/DTD/svg11.dtd">
<svg version="1.1" id="レイヤー_1" xmlns="http://www.w3.org/2000/svg" xmlns:xlink="http://www.w3.org/1999/xlink" x="0px"
	 y="0px" width="64px" height="64px" viewBox="0 0 64 64" style="enable-background:new 0 0 64 64;" xml:space="preserve">
<g>
	<linearGradient id="SVGID_1_" gradientUnits="userSpaceOnUse" x1="29.5" y1="12" x2="29.5" y2="52">
		<stop  offset="0" style="stop-color:#FFF6AB"/>
		<stop  offset="1" style="stop-color:#DD9A42"/>
	</linearGradient>
	<path style="fill:url(#SVGID_1_);" d="M52.5,52h-46c-1.1045694,0-2-0.8954315-2-2V14c0-1.1045694,0.8954306-2,2-2h7.1715546
		c0.5304136,0,1.0391045,0.2106981,1.4141741,0.5857468l3.828723,3.8285065C19.2895222,16.7893009,19.7982121,17,20.3286247,17H52.5
		c1.1045685,0,2,0.8954296,2,2v31C54.5,51.1045685,53.6045685,52,52.5,52z"/>
	<linearGradient id="SVGID_2_" gradientUnits="userSpaceOnUse" x1="29.5" y1="12" x2="29.5" y2="52">
		<stop  offset="0" style="stop-color:#FFFFE0"/>
		<stop  offset="0.1858407" style="stop-color:#FFF6AB"/>
		<stop  offset="1" style="stop-color:#DD9A42"/>
	</linearGradient>
	<path style="fill:url(#SVGID_2_);" d="M13.6715555,14l3.8287325,3.8285103C18.2557774,18.5839539,19.2602329,19,20.3286228,19H52.5
		v31h-46V14H13.6715555 M13.6715555,12H6.5c-1.1045666,0-2,0.8954315-2,2v36c0,1.1045685,0.8954334,2,2,2h46
		c1.1045685,0,2-0.8954315,2-2V19c0-1.1045685-0.8954315-2-2-2H20.3286228c-0.5304108,0-1.0391006-0.210701-1.4141674-0.585743
		l-3.828722-3.8285141C14.7106552,12.210701,14.2019663,12,13.6715555,12L13.6715555,12z"/>
	<path style="fill:#A87E43;" d="M13.6715498,13c0.2671003,0,0.5182199,0.1040115,0.7070904,0.292881l3.8287191,3.8284988
		C18.7739792,17.6879692,19.5273304,18,20.3286209,18H52.5c0.5513992,0,1,0.4486008,1,1v31c0,0.5513992-0.4486008,1-1,1h-46
		c-0.5514002,0-1-0.4486008-1-1V14c0-0.5513992,0.4485998-1,1-1H13.6715498 M13.6715498,12H6.5c-1.1045699,0-2,0.8954315-2,2v36
		c0,1.1045685,0.8954301,2,2,2h46c1.1045685,0,2-0.8954315,2-2V19c0-1.1045685-0.8954315-2-2-2H20.3286209
		c-0.5304108,0-1.0391006-0.210701-1.4141712-0.5857506l-3.8287201-3.8284988C14.71066,12.210701,14.2019701,12,13.6715498,12
		L13.6715498,12z"/>
</g>
<g>
	<linearGradient id="SVGID_3_" gradientUnits="userSpaceOnUse" x1="31.6047401" y1="19.5" x2="31.6047401" y2="52">
		<stop  offset="0" style="stop-color:#FFF6AB"/>
		<stop  offset="1" style="stop-color:#DD9A42"/>
	</linearGradient>
	<path style="fill:url(#SVGID_3_);" d="M57,50V21.5c0-1.1045704-0.8954315-2-2-2H9c-1.1045694,0-2,0.8954296-2,2V50
		c0,0.6272545-0.2887564,1.1870651-0.740591,1.5537529C5.9155793,51.8327904,7.4773164,52,7,52h1.5H55
		C56.1045685,52,57,51.1045685,57,50z"/>
	<linearGradient id="SVGID_4_" gradientUnits="userSpaceOnUse" x1="31.6047421" y1="19.5" x2="31.6047421" y2="52">
		<stop  offset="0" style="stop-color:#FFFFE0"/>
		<stop  offset="0.1858407" style="stop-color:#FFF6AB"/>
		<stop  offset="1" style="stop-color:#DD9A42"/>
	</linearGradient>
	<path style="fill:url(#SVGID_4_);" d="M55,21.5V50h-46V21.5H55 M55,19.5h-46c-1.1045671,0-2.0000005,0.8954315-2.0000005,2V50
		c0,0.6272545-0.2887554,1.1870651-0.7405887,1.5537567C5.9155793,51.8327866,7.4773126,52,7.0000014,52h1.5000005H55
		c1.1045685,0,2-0.8954315,2-2V21.5C57,20.3954315,56.1045685,19.5,55,19.5L55,19.5z"/>
	<path style="fill:#A87E43;" d="M55,20.5c0.5513992,0,1,0.4486008,1,1V50c0,0.5513992-0.4486008,1-1,1H8.5H7.8296142
		C7.941298,50.6832161,8,50.3458862,8,50V21.5c0-0.5513992,0.4486008-1,1-1H55 M55,19.5H9
		c-1.1045694,0-1.9999995,0.8954315-1.9999995,2V50c0,0.6272507-0.2887602,1.1870613-0.7405901,1.5537491
		C5.9155803,51.8327904,7.4773202,52,7.0000005,52H8.5H55c1.1045685,0,2-0.8954315,2-2V21.5C57,20.3954315,56.1045685,19.5,55,19.5
		L55,19.5z"/>
</g>
<g>
</g>
<g>
</g>
<g>
</g>
<g>
</g>
<g>
</g>
<g>
</g>
</svg>
