<?xml version="1.0" encoding="utf-8"?>
<!-- Generator: Adobe Illustrator 15.0.2, SVG Export Plug-In . SVG Version: 6.00 Build 0)  -->
<!DOCTYPE svg PUBLIC "-//W3C//DTD SVG 1.1//EN" "http://www.w3.org/Graphics/SVG/1.1/DTD/svg11.dtd">
<svg version="1.1" id="レイヤー_1" xmlns="http://www.w3.org/2000/svg" xmlns:xlink="http://www.w3.org/1999/xlink" x="0px"
	 y="0px" width="64px" height="64px" viewBox="0 0 64 64" style="enable-background:new 0 0 64 64;" xml:space="preserve">
<g>
	<g>
		<g>
			<path style="fill:#8BB2BC;" d="M59.8994141,57.8056641h-6.1240234l0.0136719-1.0136719
				c0.0078125-0.5585938,0.2021484-13.7167969,1.0732422-17.8740234c0.1191406-0.5683594,0.2539063-1.1699219,0.3935547-1.7900391
				c0.7636719-3.390625,1.8085938-8.034668,0.3808594-9.8022461c-0.2197266-0.2714844-0.4316406-0.5224609-0.6337891-0.7626953
				c-1.90625-2.2597656-2.9316406-3.78125-1.8613281-8.7734375l0.3076172-1.4584961
				c1.1376953-5.4316406,2.1191406-10.1220703,5.4501953-10.1220703h1V57.8056641z M55.8076172,55.8056641h2.0917969V34.3037109
				C57.6953125,35.3964844,57.4472656,36.5,57.2070313,37.5673828c-0.1376953,0.6103516-0.2705078,1.2011719-0.3876953,1.7607422
				C56.1230469,42.6542969,55.8710938,52.5917969,55.8076172,55.8056641z M57.8994141,8.784668
				c-1.1083984,1.3447266-1.8349609,4.8149414-2.4921875,7.9560547l-0.3105469,1.4682617
				c-0.9169922,4.2763672-0.1308594,5.2080078,1.4345703,7.0649414c0.2119141,0.25,0.4326172,0.512207,0.6611328,0.7949219
				c0.2998047,0.3710938,0.5322266,0.7905273,0.7070313,1.25V8.784668z"/>
			<path style="fill:#FFFFFF;" d="M58.8994141,7.2089844v49.5966797h-4.1103516c0,0,0.1904297-13.5722656,1.0517578-17.6826172
				c0.8603516-4.1103516,2.5810547-9.9414063,0.5732422-12.4257813c-2.0068359-2.4853516-3.4423828-3.3457031-2.2949219-8.6982422
				C55.2675781,12.6474609,56.1279297,7.2089844,58.8994141,7.2089844z"/>
		</g>
		<g>
			<path style="fill:#8BB2BC;" d="M12.6723633,57.8056641H5.5102539l0.0571289-1.0537109
				c0.5708008-10.5722656,1.3115234-27.9345703,0.8706055-29.5195313c-0.4804688-1.0947266-1.3300781-3.0517578-1.5341797-3.5761719
				c-0.4545898-1.1621094-0.7226563-3.2802734-0.7519531-3.5180664c-0.0097656-0.1416016-0.1064453-1.9311523-0.0058594-3.6762695
				c0.0864258-1.4926758,0.6679688-9.0249023,0.6928711-9.3447266l0.0712891-0.9228516h8.3657227l0.0712891,0.9228516
				c0.0249023,0.3198242,0.6069336,7.8520508,0.6938477,9.3447266c0.1000977,1.7451172,0.0039063,3.5341797,0,3.609375
				c-0.0351563,0.3051758-0.3046875,2.4233398-0.7597656,3.5869141c-0.1264648,0.3256836-0.5361328,1.2685547-0.9052734,2.1181641
				c-0.2988281,0.6875-0.5708008,1.3100586-0.6240234,1.4526367c-0.3671875,1.4912109,0.3359375,18.9077148,0.8676758,29.5268555
				L12.6723633,57.8056641z M7.6210938,55.8056641h2.9492188c-0.3779297-7.6650391-1.2958984-27.6352539-0.6948242-29.2680664
				c0.0537109-0.1459961,0.3442383-0.8173828,0.6665039-1.5585938c0.3564453-0.8203125,0.7529297-1.7314453,0.8759766-2.0473633
				c0.3095703-0.7915039,0.5610352-2.4589844,0.6318359-3.0361328l0,0
				c-0.0014648,0.0004883,0.0429688-0.8637695,0.0356445-1.9404297H6.1015625
				c-0.0068359,1.1025391,0.0410156,1.9941406,0.0415039,2.0063477c0.0649414,0.5107422,0.3164063,2.1806641,0.6240234,2.9682617
				c0.1381836,0.3554688,0.7036133,1.6738281,1.512207,3.5283203C8.9951172,28.1079102,8.1020508,46.7480469,7.6210938,55.8056641z"
				/>
			<path style="fill:#FFFFFF;" d="M13.0424805,16.5195313c-0.0869141-1.5-0.6923828-9.3251953-0.6923828-9.3251953h-0.8496094
				v9.7607422h-1.0380859V7.1943359H9.6123047v9.7607422H8.5737305V7.1943359H7.7241211v9.7607422H6.6855469V7.1943359H5.8359375
				c0,0-0.6049805,7.8251953-0.6914063,9.3251953c-0.0986328,1.7089844,0,3.4970703,0,3.4970703
				s0.269043,2.1972656,0.6914063,3.2773438c0.2324219,0.5976563,1.4077148,3.2910156,1.5375977,3.5888672
				c0.7182617,1.65625-0.8076172,29.9228516-0.8076172,29.9228516h5.0551758c0,0-1.4165039-28.2666016-0.8071289-29.9228516
				c0.1123047-0.3046875,1.3037109-2.9912109,1.5361328-3.5888672c0.4223633-1.0800781,0.6923828-3.2773438,0.6923828-3.2773438
				S13.140625,18.2285156,13.0424805,16.5195313z"/>
		</g>
	</g>
	<g>
		<path style="fill:#8BB2BC;" d="M33.0419922,51.625c-10.8217773,0-19.6254883-8.8037109-19.6254883-19.625
			s8.8037109-19.625,19.6254883-19.625c10.8212891,0,19.625,8.8037109,19.625,19.625S43.8632813,51.625,33.0419922,51.625z
			 M33.0419922,14.375c-9.71875,0-17.6254883,7.9067383-17.6254883,17.625c0,9.71875,7.9067383,17.625,17.6254883,17.625
			s17.625-7.90625,17.625-17.625C50.6669922,22.2817383,42.7607422,14.375,33.0419922,14.375z"/>
		<circle style="fill:#FFFFFF;" cx="33.041748" cy="32" r="18.6252441"/>
	</g>
	<path style="fill:#D6E3E5;" d="M33.0419922,43.9941406c-3.2036133,0-6.215332-1.2480469-8.4814453-3.5136719
		C22.2949219,38.2158203,21.0473633,35.203125,21.0473633,32c0-3.2041016,1.2475586-6.2163086,3.5126953-8.4819336
		c2.265625-2.2646484,5.277832-3.512207,8.4819336-3.512207s6.2158203,1.2475586,8.4804688,3.512207l-0.6445313,0.6455078
		c-2.0927734-2.0927734-4.8759766-3.2456055-7.8359375-3.2456055c-2.9604492,0-5.7436523,1.152832-7.8369141,3.2456055
		C23.1123047,26.2563477,21.9594727,29.0395508,21.9594727,32c0,2.9599609,1.152832,5.7421875,3.2460938,7.8359375
		c2.09375,2.0927734,4.8764648,3.2460938,7.8364258,3.2460938V43.9941406z"/>
</g>
</svg>
