<?xml version="1.0" encoding="utf-8"?>
<!-- Generator: Adobe Illustrator 15.0.2, SVG Export Plug-In . SVG Version: 6.00 Build 0)  -->
<!DOCTYPE svg PUBLIC "-//W3C//DTD SVG 1.1//EN" "http://www.w3.org/Graphics/SVG/1.1/DTD/svg11.dtd">
<svg version="1.1" id="レイヤー_1" xmlns="http://www.w3.org/2000/svg" xmlns:xlink="http://www.w3.org/1999/xlink" x="0px"
	 y="0px" width="64px" height="64px" viewBox="0 0 64 64" enable-background="new 0 0 64 64" xml:space="preserve">
<g>
	<g>
		<path fill="none" stroke="#638896" stroke-miterlimit="10" d="M44.605,2.878v58.261h-4.828c0,0,0.224-15.943,1.235-20.771
			c1.011-4.828,3.032-11.678,0.673-14.597c-2.357-2.919-4.043-3.93-2.695-10.217C40.339,9.267,41.35,2.878,44.605,2.878z"/>
		<linearGradient id="SVGID_1_" gradientUnits="userSpaceOnUse" x1="41.5586" y1="0.6309" x2="41.5586" y2="61.8756">
			<stop  offset="0" style="stop-color:#FFFFFF"/>
			<stop  offset="0.1943" style="stop-color:#FDFDFD"/>
			<stop  offset="0.2644" style="stop-color:#F6F6F6"/>
			<stop  offset="0.3142" style="stop-color:#EBEBEB"/>
			<stop  offset="0.3543" style="stop-color:#DADADA"/>
			<stop  offset="0.3818" style="stop-color:#C9C9C9"/>
			<stop  offset="0.8" style="stop-color:#272727"/>
			<stop  offset="0.8067" style="stop-color:#323232"/>
			<stop  offset="0.8237" style="stop-color:#484848"/>
			<stop  offset="0.8438" style="stop-color:#595959"/>
			<stop  offset="0.8686" style="stop-color:#646464"/>
			<stop  offset="0.9034" style="stop-color:#6B6B6B"/>
			<stop  offset="1" style="stop-color:#6D6D6D"/>
		</linearGradient>
		<path fill="url(#SVGID_1_)" d="M44.605,2.878v58.261h-4.828c0,0,0.224-15.943,1.235-20.771c1.011-4.828,3.032-11.678,0.673-14.597
			c-2.357-2.919-4.043-3.93-2.695-10.217C40.339,9.267,41.35,2.878,44.605,2.878z"/>
	</g>
	<g>
		<path fill="none" stroke="#638896" stroke-miterlimit="10" d="M28.724,13.815c-0.102-1.763-0.813-10.954-0.813-10.954h-0.998
			v11.466h-1.219V2.861h-0.999v11.466h-1.22V2.861h-0.998v11.466h-1.22V2.861h-0.998c0,0-0.71,9.191-0.812,10.954
			c-0.116,2.007,0,4.107,0,4.107s0.316,2.582,0.812,3.851c0.273,0.701,1.654,3.865,1.806,4.216
			c0.844,1.945-0.949,35.149-0.949,35.149h5.938c0,0-1.664-33.204-0.948-35.149c0.132-0.358,1.532-3.515,1.805-4.216
			c0.496-1.27,0.813-3.851,0.813-3.851S28.839,15.822,28.724,13.815z"/>
		<linearGradient id="SVGID_2_" gradientUnits="userSpaceOnUse" x1="24.085" y1="5.2573" x2="24.085" y2="60.3431">
			<stop  offset="0" style="stop-color:#FFFFFF"/>
			<stop  offset="0.1943" style="stop-color:#FDFDFD"/>
			<stop  offset="0.2644" style="stop-color:#F6F6F6"/>
			<stop  offset="0.3142" style="stop-color:#EBEBEB"/>
			<stop  offset="0.3543" style="stop-color:#DADADA"/>
			<stop  offset="0.3818" style="stop-color:#C9C9C9"/>
			<stop  offset="0.8" style="stop-color:#272727"/>
			<stop  offset="0.8067" style="stop-color:#323232"/>
			<stop  offset="0.8237" style="stop-color:#484848"/>
			<stop  offset="0.8438" style="stop-color:#595959"/>
			<stop  offset="0.8686" style="stop-color:#646464"/>
			<stop  offset="0.9034" style="stop-color:#6B6B6B"/>
			<stop  offset="1" style="stop-color:#6D6D6D"/>
		</linearGradient>
		<path fill="url(#SVGID_2_)" d="M28.724,13.815c-0.102-1.763-0.813-10.954-0.813-10.954h-0.998v11.466h-1.219V2.861h-0.999v11.466
			h-1.22V2.861h-0.998v11.466h-1.22V2.861h-0.998c0,0-0.71,9.191-0.812,10.954c-0.116,2.007,0,4.107,0,4.107
			s0.316,2.582,0.812,3.851c0.273,0.701,1.654,3.865,1.806,4.216c0.844,1.945-0.949,35.149-0.949,35.149h5.938
			c0,0-1.664-33.204-0.948-35.149c0.132-0.358,1.532-3.515,1.805-4.216c0.496-1.27,0.813-3.851,0.813-3.851
			S28.839,15.822,28.724,13.815z"/>
	</g>
</g>
</svg>
