<?xml version="1.0" encoding="utf-8"?>
<!-- Generator: Adobe Illustrator 15.0.2, SVG Export Plug-In . SVG Version: 6.00 Build 0)  -->
<!DOCTYPE svg PUBLIC "-//W3C//DTD SVG 1.1//EN" "http://www.w3.org/Graphics/SVG/1.1/DTD/svg11.dtd">
<svg version="1.1" id="レイヤー_1" xmlns="http://www.w3.org/2000/svg" xmlns:xlink="http://www.w3.org/1999/xlink" x="0px"
	 y="0px" width="64px" height="64px" viewBox="0 0 64 64" style="enable-background:new 0 0 64 64;" xml:space="preserve">
<g>
	<g>
		<g>
			<linearGradient id="SVGID_1_" gradientUnits="userSpaceOnUse" x1="32.1298828" y1="45.4599609" x2="32.1298828" y2="59.6875">
				<stop  offset="0" style="stop-color:#EDF2F7"/>
				<stop  offset="1" style="stop-color:#B5CCDB"/>
			</linearGradient>
			<path style="fill:url(#SVGID_1_);" d="M5.2724609,45.4599609v5.3740234c0,4.8896484,12.0244141,8.8535156,26.8574219,8.8535156
				c14.8320313,0,26.8574219-3.9638672,26.8574219-8.8535156v-5.3740234H5.2724609z"/>
			<path style="fill:#53718C;" d="M32.1298828,60.0625c-15.2705078,0-27.2324219-4.0537109-27.2324219-9.2285156v-5.7490234
				h54.4648438v5.7490234C59.3623047,56.0087891,47.4003906,60.0625,32.1298828,60.0625z M5.6474609,45.8349609v4.9990234
				c0,4.5957031,12.1274414,8.4785156,26.4824219,8.4785156c14.3544922,0,26.4824219-3.8828125,26.4824219-8.4785156v-4.9990234
				H5.6474609z"/>
		</g>
		<linearGradient id="SVGID_2_" gradientUnits="userSpaceOnUse" x1="32.1298828" y1="48.9082031" x2="32.1298828" y2="58.7880859">
			<stop  offset="0" style="stop-color:#FFFFFF"/>
			<stop  offset="1" style="stop-color:#C4D4E3"/>
		</linearGradient>
		<path style="fill:url(#SVGID_2_);" d="M32.1298828,55.2294922c-21.625,0-25.8837891-6.3212891-25.8837891-6.3212891v2.0068359
			c0,4.0644531,11.7451172,7.8730469,25.8837891,7.8730469c14.1376953,0,25.8837891-3.9335938,25.8837891-7.8730469v-2.0068359
			C58.0136719,48.9082031,53.7548828,55.2294922,32.1298828,55.2294922z"/>
		<g>
			<linearGradient id="SVGID_3_" gradientUnits="userSpaceOnUse" x1="32.1298828" y1="36.6064453" x2="32.1298828" y2="54.3144531">
				<stop  offset="0" style="stop-color:#EDF2F7"/>
				<stop  offset="1" style="stop-color:#C4D4E3"/>
			</linearGradient>
			<ellipse style="fill:url(#SVGID_3_);" cx="32.1298828" cy="45.4599609" rx="26.8574219" ry="8.8544922"/>
			<path style="fill:#53718C;" d="M32.1298828,54.6894531c-15.2705078,0-27.2324219-4.0537109-27.2324219-9.2294922
				c0-5.1748047,11.9619141-9.2285156,27.2324219-9.2285156s27.2324219,4.0537109,27.2324219,9.2285156
				C59.3623047,50.6357422,47.4003906,54.6894531,32.1298828,54.6894531z M32.1298828,36.9814453
				c-14.3549805,0-26.4824219,3.8828125-26.4824219,8.4785156c0,4.5966797,12.1274414,8.4794922,26.4824219,8.4794922
				c14.3544922,0,26.4824219-3.8828125,26.4824219-8.4794922C58.6123047,40.8642578,46.484375,36.9814453,32.1298828,36.9814453z"/>
		</g>
		<linearGradient id="SVGID_4_" gradientUnits="userSpaceOnUse" x1="32.1611328" y1="37.1689453" x2="32.1611328" y2="53.4794922">
			<stop  offset="0" style="stop-color:#FFFFFF"/>
			<stop  offset="1" style="stop-color:#CCDBEB"/>
		</linearGradient>
		<ellipse style="fill:url(#SVGID_4_);" cx="32.1611328" cy="45.3242188" rx="25.65625" ry="8.1552734"/>
		<ellipse style="opacity:0.5;fill:#CCDBEB;" cx="32.1611328" cy="45.4169922" rx="23.4931641" ry="7.375"/>
	</g>
	<g>
		<linearGradient id="SVGID_5_" gradientUnits="userSpaceOnUse" x1="32.1303711" y1="38.7255859" x2="32.1303711" y2="52.1953125">
			<stop  offset="0" style="stop-color:#A6D4FF"/>
			<stop  offset="1" style="stop-color:#009DE6"/>
		</linearGradient>
		<ellipse style="fill:url(#SVGID_5_);" cx="32.1303711" cy="45.4599609" rx="23.0375977" ry="6.7353516"/>
		<linearGradient id="SVGID_6_" gradientUnits="userSpaceOnUse" x1="32.1303711" y1="39.2294922" x2="32.1303711" y2="51.8115234">
			<stop  offset="0" style="stop-color:#FFFFFF"/>
			<stop  offset="1" style="stop-color:#2BABE6"/>
		</linearGradient>
		<ellipse style="fill:url(#SVGID_6_);" cx="32.1303711" cy="45.5205078" rx="21.7250977" ry="6.2910156"/>
		<linearGradient id="SVGID_7_" gradientUnits="userSpaceOnUse" x1="32.1303711" y1="39.1318359" x2="32.1303711" y2="50.9169922">
			<stop  offset="0" style="stop-color:#A6D4FF"/>
			<stop  offset="1" style="stop-color:#009DE6"/>
		</linearGradient>
		<ellipse style="opacity:0.8;fill:url(#SVGID_7_);" cx="32.1303711" cy="45.0244141" rx="20.8999023" ry="5.8925781"/>
		<linearGradient id="SVGID_8_" gradientUnits="userSpaceOnUse" x1="32.1298828" y1="39.7294922" x2="32.1298828" y2="49.8544922">
			<stop  offset="0" style="stop-color:#FFFFFF"/>
			<stop  offset="1" style="stop-color:#2BABE6"/>
		</linearGradient>
		<ellipse style="fill:url(#SVGID_8_);" cx="32.130127" cy="44.7919922" rx="17.876709" ry="5.0625"/>
		<linearGradient id="SVGID_9_" gradientUnits="userSpaceOnUse" x1="32.1303711" y1="39.7050781" x2="32.1303711" y2="49.1367188">
			<stop  offset="0" style="stop-color:#A6D4FF"/>
			<stop  offset="1" style="stop-color:#009DE6"/>
		</linearGradient>
		<ellipse style="opacity:0.8;fill:url(#SVGID_9_);" cx="32.1303711" cy="44.4208984" rx="17.1977539" ry="4.7158203"/>
		<linearGradient id="SVGID_10_" gradientUnits="userSpaceOnUse" x1="32.1298828" y1="40.4902344" x2="32.1298828" y2="47.9541016">
			<stop  offset="0" style="stop-color:#FFFFFF"/>
			<stop  offset="1" style="stop-color:#2BABE6"/>
		</linearGradient>
		<ellipse style="fill:url(#SVGID_10_);" cx="32.130127" cy="44.2226563" rx="13.1774902" ry="3.7314453"/>
		<linearGradient id="SVGID_11_" gradientUnits="userSpaceOnUse" x1="32.1303711" y1="40.4726563" x2="32.1303711" y2="47.4248047">
			<stop  offset="0" style="stop-color:#A6D4FF"/>
			<stop  offset="1" style="stop-color:#009DE6"/>
		</linearGradient>
		<ellipse style="opacity:0.8;fill:url(#SVGID_11_);" cx="32.1303711" cy="43.9492188" rx="12.6772461" ry="3.4755859"/>
	</g>
	<linearGradient id="SVGID_12_" gradientUnits="userSpaceOnUse" x1="32.1455078" y1="42.4169922" x2="32.1455078" y2="46.1669922">
		<stop  offset="0" style="stop-color:#A6D4FF"/>
		<stop  offset="1" style="stop-color:#009DE6"/>
	</linearGradient>
	<ellipse style="opacity:0.35;fill:url(#SVGID_12_);" cx="32.1455078" cy="44.2919922" rx="6.328125" ry="1.8750001"/>
	<g>
		<linearGradient id="SVGID_13_" gradientUnits="userSpaceOnUse" x1="16.6669922" y1="3.9375" x2="16.6669922" y2="31.1176758">
			<stop  offset="0" style="stop-color:#E8FFFF"/>
			<stop  offset="1" style="stop-color:#85CFFF"/>
		</linearGradient>
		<path style="fill:url(#SVGID_13_);" d="M32.1708984,25.1035156c0,0-3.4995117-12.6201172-11.3330078-12.6201172
			c-8.4492188,0-8.9868164,10.0869141-8.5415039,12.1630859c2.0004883,2.9160156-0.8745117,6.5-3.3911133,3.8369141
			c0,0,0.2250977,3.0800781-2.6918945,2.5791016c-1.8842773-0.3232422-2.2246094-2.4580078-1.4746094-3.4121094
			C2.8383789,29.5625-0.2866211,27.3125,1.9213867,23.5625c-0.125-7.7080078,6-19.625,16.4169922-19.625
			c10.5014648,0,12.0825195,8.5839844,12.9995117,14.1660156C32.1669922,23.1494141,32.1708984,25.1035156,32.1708984,25.1035156z"
			/>
		<linearGradient id="SVGID_14_" gradientUnits="userSpaceOnUse" x1="16.6816406" y1="4.3125" x2="16.6816406" y2="30.6962891">
			<stop  offset="0.3" style="stop-color:#85CFFF"/>
			<stop  offset="1" style="stop-color:#009DE6"/>
		</linearGradient>
		<path style="fill:url(#SVGID_14_);" d="M31.9111328,23.8232422c0,0-3.4477539-11.8857422-11.6977539-11.59375
			c-8.0478516,0.2851563-8.6152344,10.3701172-8.190918,12.3369141c1.9067383,2.7646484-0.7255859,6.3300781-3.3505859,3.3300781
			c0,0,0.3334961,3.2265625-2.4467773,2.7519531C4.4296875,30.3417969,4.3740234,28.0917969,5.0883789,27.1875
			c-2.5,1.9169922-4.8330078,0.0839844-2.953125-3.6484375C2.0161133,16.2333984,8.2856445,4.3125,18.2133789,4.3125
			c10.0087891,0,11.8754883,8.1669922,12.7504883,13.4589844C31.7548828,22.5546875,31.9111328,23.8232422,31.9111328,23.8232422z"
			/>
		<linearGradient id="SVGID_15_" gradientUnits="userSpaceOnUse" x1="18.5791016" y1="7.6875" x2="18.5791016" y2="30.7001953">
			<stop  offset="0" style="stop-color:#85CFFF"/>
			<stop  offset="0.1214615" style="stop-color:#67C4F9"/>
			<stop  offset="0.3004963" style="stop-color:#42B6F2"/>
			<stop  offset="0.4797934" style="stop-color:#25ABED"/>
			<stop  offset="0.6571125" style="stop-color:#11A3E9"/>
			<stop  offset="0.8316315" style="stop-color:#049FE7"/>
			<stop  offset="1" style="stop-color:#009DE6"/>
		</linearGradient>
		<path style="fill:url(#SVGID_15_);" d="M31.9111328,23.8232422c0,0-3.4477539-11.8857422-11.6977539-11.59375
			c-8.0478516,0.2851563-8.6152344,10.3701172-8.190918,12.3369141c1.9067383,2.7646484-0.7255859,6.3300781-3.3505859,3.3300781
			c0,0,0.3295898,3.2490234-2.4467773,2.7519531C5.046875,30.4375,5.0053711,28.3964844,5.7133789,27.1464844
			C5.7133789,15.6875,11.796875,7.7109375,18.546875,7.6875C30.7548828,7.6464844,31.9111328,23.8232422,31.9111328,23.8232422z"/>
		<linearGradient id="SVGID_16_" gradientUnits="userSpaceOnUse" x1="20.2915039" y1="11.2714844" x2="20.2915039" y2="29.0893555">
			<stop  offset="0" style="stop-color:#85CFFF"/>
			<stop  offset="0.1214615" style="stop-color:#67C4F9"/>
			<stop  offset="0.3004963" style="stop-color:#42B6F2"/>
			<stop  offset="0.4797934" style="stop-color:#25ABED"/>
			<stop  offset="0.6571125" style="stop-color:#11A3E9"/>
			<stop  offset="0.8316315" style="stop-color:#049FE7"/>
			<stop  offset="1" style="stop-color:#009DE6"/>
		</linearGradient>
		<path style="fill:url(#SVGID_16_);" d="M31.9111328,23.8232422c0,0-3.4477539-11.8857422-11.6977539-11.59375
			c-8.0478516,0.2851563-8.6152344,10.3701172-8.190918,12.3369141c1.9067383,2.7646484-0.8505859,6.4550781-3.3505859,3.3300781
			c0-9.0419922,4.3125-16.625,11.375-16.625C29.265625,11.2714844,31.9111328,23.8232422,31.9111328,23.8232422z"/>
	</g>
	<g>
		
			<linearGradient id="SVGID_17_" gradientUnits="userSpaceOnUse" x1="-14.0927734" y1="6.9375" x2="-14.0927734" y2="34.1181641" gradientTransform="matrix(-1 0 0 1 33.2402344 0)">
			<stop  offset="0" style="stop-color:#E8FFFF"/>
			<stop  offset="1" style="stop-color:#85CFFF"/>
		</linearGradient>
		<path style="fill:url(#SVGID_17_);" d="M31.8291016,28.1035156c0,0,3.5-12.6201172,11.3330078-12.6201172
			c8.4492188,0,8.9873047,10.0869141,8.5419922,12.1630859c-2.0009766,2.9160156,0.8740234,6.5,3.390625,3.8369141
			c0,0-0.2246094,3.0800781,2.6914063,2.5800781c1.8847656-0.3242188,2.2246094-2.4589844,1.4746094-3.4130859
			c1.9003906,1.9130859,5.0253906-0.3378906,2.8183594-4.0878906c0.125-7.7080078-6-19.625-16.4179688-19.625
			c-10.5009766,0-12.0820313,8.5839844-12.9990234,14.1660156C31.8330078,26.1494141,31.8291016,28.1035156,31.8291016,28.1035156z"
			/>
		
			<linearGradient id="SVGID_18_" gradientUnits="userSpaceOnUse" x1="-14.1962891" y1="7.3125" x2="-14.1962891" y2="33.6972656" gradientTransform="matrix(-1 0 0 1 33.2402344 0)">
			<stop  offset="0.3" style="stop-color:#85CFFF"/>
			<stop  offset="1" style="stop-color:#009DE6"/>
		</linearGradient>
		<path style="fill:url(#SVGID_18_);" d="M32.328125,25.8964844c0,0,3.2080078-10.9589844,11.4580078-10.6669922
			c8.0488281,0.2851563,8.6152344,10.3701172,8.1914063,12.3369141c-1.90625,2.7646484,0.7255859,6.3300781,3.3505859,3.3300781
			c0,0-0.3330078,3.2265625,2.4462891,2.7529297c1.7958984-0.3066406,1.8515625-2.5576172,1.1367188-3.4619141
			c2.5,1.9169922,4.8330078,0.0839844,2.953125-3.6484375C61.9833984,19.2333984,55.7138672,7.3125,45.7861328,7.3125
			c-10.0078125,0-11.875,8.1669922-12.75,13.4589844C32.2451172,25.5546875,32.328125,25.8964844,32.328125,25.8964844z"/>
		
			<linearGradient id="SVGID_19_" gradientUnits="userSpaceOnUse" x1="-12.3007813" y1="10.6875" x2="-12.3007813" y2="33.7011719" gradientTransform="matrix(-1 0 0 1 33.2402344 0)">
			<stop  offset="0" style="stop-color:#85CFFF"/>
			<stop  offset="0.1214615" style="stop-color:#67C4F9"/>
			<stop  offset="0.3004963" style="stop-color:#42B6F2"/>
			<stop  offset="0.4797934" style="stop-color:#25ABED"/>
			<stop  offset="0.6571125" style="stop-color:#11A3E9"/>
			<stop  offset="0.8316315" style="stop-color:#049FE7"/>
			<stop  offset="1" style="stop-color:#009DE6"/>
		</linearGradient>
		<path style="fill:url(#SVGID_19_);" d="M32.328125,25.8964844c0,0,3.2080078-10.9589844,11.4580078-10.6669922
			c8.0488281,0.2851563,8.6152344,10.3701172,8.1914063,12.3369141c-1.90625,2.7646484,0.7255859,6.3300781,3.3505859,3.3300781
			c0,0-0.3291016,3.2490234,2.4462891,2.7529297c1.1787109-0.2109375,1.2207031-2.2529297,0.5117188-3.5029297
			c0-11.4589844-6.0830078-19.4355469-12.8330078-19.4589844C33.2451172,10.6464844,32.328125,25.8964844,32.328125,25.8964844z"/>
		
			<linearGradient id="SVGID_20_" gradientUnits="userSpaceOnUse" x1="-10.5878906" y1="14.2714844" x2="-10.5878906" y2="32.0893555" gradientTransform="matrix(-1 0 0 1 33.2402344 0)">
			<stop  offset="0" style="stop-color:#85CFFF"/>
			<stop  offset="0.1214615" style="stop-color:#67C4F9"/>
			<stop  offset="0.3004963" style="stop-color:#42B6F2"/>
			<stop  offset="0.4797934" style="stop-color:#25ABED"/>
			<stop  offset="0.6571125" style="stop-color:#11A3E9"/>
			<stop  offset="0.8316315" style="stop-color:#049FE7"/>
			<stop  offset="1" style="stop-color:#009DE6"/>
		</linearGradient>
		<path style="fill:url(#SVGID_20_);" d="M32.328125,25.8964844c0,0,3.2080078-10.9589844,11.4580078-10.6669922
			c8.0488281,0.2851563,8.6152344,10.3701172,8.1914063,12.3369141c-1.90625,2.7646484,0.8505859,6.4550781,3.3505859,3.3300781
			c0-9.0419922-4.3125-16.625-11.375-16.625C34.734375,14.2714844,32.328125,25.8964844,32.328125,25.8964844z"/>
	</g>
	<g>
		<linearGradient id="SVGID_21_" gradientUnits="userSpaceOnUse" x1="26.3798828" y1="34.3828125" x2="37.8798828" y2="34.3828125">
			<stop  offset="0" style="stop-color:#FFFFFF"/>
			<stop  offset="1" style="stop-color:#C7D6E5"/>
		</linearGradient>
		<path style="fill:url(#SVGID_21_);" d="M29.7963867,23.0205078l-3.4165039,20.8339844
			c0,1.5126953,2.5742188,1.8896484,5.75,1.8896484s5.75-0.3769531,5.75-1.8896484l-3.4169922-20.8339844H29.7963867z"/>
		<linearGradient id="SVGID_22_" gradientUnits="userSpaceOnUse" x1="26.3798828" y1="34.3828125" x2="37.8798828" y2="34.3828125">
			<stop  offset="0.5" style="stop-color:#FFFFFF"/>
			<stop  offset="1" style="stop-color:#C4D4E3"/>
		</linearGradient>
		<path style="opacity:0.6;fill:url(#SVGID_22_);" d="M29.7963867,23.0205078l-3.4165039,20.8339844
			c0,1.5126953,2.5742188,1.8896484,5.75,1.8896484s5.75-0.3769531,5.75-1.8896484l-3.4169922-20.8339844H29.7963867z"/>
		<linearGradient id="SVGID_23_" gradientUnits="userSpaceOnUse" x1="25.1689453" y1="35.3242188" x2="36.4579048" y2="33.7376595">
			<stop  offset="0.8076919" style="stop-color:#FFFFFF"/>
			<stop  offset="1" style="stop-color:#C4D4E3"/>
		</linearGradient>
		<path style="opacity:0.6;fill:url(#SVGID_23_);" d="M29.7963867,23.0205078l-3.4165039,20.8339844
			c0,1.5126953,2.5742188,1.8896484,5.75,1.8896484s5.75-0.3769531,5.75-1.8896484l-3.4169922-20.8339844H29.7963867z"/>
		<linearGradient id="SVGID_24_" gradientUnits="userSpaceOnUse" x1="32.1298828" y1="23.0205078" x2="32.1298828" y2="45.7441406">
			<stop  offset="0" style="stop-color:#FFFFFF"/>
			<stop  offset="0.5" style="stop-color:#C4D4E3"/>
		</linearGradient>
		<path style="opacity:0.6;fill:url(#SVGID_24_);" d="M29.7963867,23.0205078l-3.4165039,20.8339844
			c0,1.5126953,2.5742188,1.8896484,5.75,1.8896484s5.75-0.3769531,5.75-1.8896484l-3.4169922-20.8339844H29.7963867z"/>
		<linearGradient id="SVGID_25_" gradientUnits="userSpaceOnUse" x1="32.4135742" y1="23.8720703" x2="32.4135742" y2="45.7441406">
			<stop  offset="0" style="stop-color:#FFFFFF"/>
			<stop  offset="0.5" style="stop-color:#C4D4E3"/>
		</linearGradient>
		<path style="opacity:0.6;fill:url(#SVGID_25_);" d="M30.3637695,23.8720703l-3.4165039,19.9824219
			c0,1.5126953,2.0068359,1.8896484,5.1826172,1.8896484s5.75-0.3769531,5.75-1.8896484l-3.4169922-19.9824219H30.3637695z"/>
	</g>
</g>
</svg>
