<?xml version="1.0" encoding="utf-8"?>
<!-- Generator: Adobe Illustrator 15.0.2, SVG Export Plug-In . SVG Version: 6.00 Build 0)  -->
<!DOCTYPE svg PUBLIC "-//W3C//DTD SVG 1.1//EN" "http://www.w3.org/Graphics/SVG/1.1/DTD/svg11.dtd">
<svg version="1.1" id="レイヤー_1" xmlns="http://www.w3.org/2000/svg" xmlns:xlink="http://www.w3.org/1999/xlink" x="0px"
	 y="0px" width="64px" height="64px" viewBox="0 0 64 64" enable-background="new 0 0 64 64" xml:space="preserve">
<g>
	<g>
		<path fill="#96C600" d="M30.597,14.521c0.806-2.591,2.812-3.838,5.06-3.838c2.689,0,4.742,2.25,4.742,4.963
			c0,3.275-1.783,5.696-3.617,7.922c-1.76,2.126-5.28,5.843-6.185,6.746h-0.049c-0.905-0.903-4.402-4.62-6.161-6.746
			c-1.833-2.226-3.618-4.646-3.618-7.922c0-2.763,2.127-4.963,4.767-4.963c2.226,0,4.205,1.247,5.013,3.838H30.597z"/>
	</g>
	<g>
		<path fill="#96C600" d="M30.404,46.479c-0.807,2.592-2.812,3.838-5.061,3.838c-2.689,0-4.742-2.25-4.742-4.963
			c0-3.275,1.784-5.695,3.617-7.922c1.76-2.125,5.28-5.842,6.186-6.747h0.049c0.905,0.904,4.401,4.622,6.161,6.747
			c1.832,2.227,3.617,4.646,3.617,7.922c0,2.764-2.127,4.963-4.766,4.963c-2.227,0-4.206-1.246-5.013-3.838H30.404z"/>
	</g>
	<g>
		<path fill="#96C600" d="M14.013,30.403c-2.591-0.806-3.838-2.811-3.838-5.06c0-2.689,2.249-4.742,4.962-4.742
			c3.276,0,5.696,1.784,7.922,3.617c2.126,1.76,5.843,5.28,6.746,6.185v0.049c-0.903,0.906-4.62,4.401-6.746,6.161
			c-2.226,1.832-4.646,3.617-7.921,3.617c-2.763,0-4.962-2.127-4.962-4.766c0-2.227,1.247-4.205,3.838-5.013V30.403z"/>
	</g>
	<g>
		<path fill="#96C600" d="M46.987,31.095c2.592,0.807,3.838,2.813,3.838,5.062c0,2.689-2.248,4.742-4.961,4.742
			c-3.277,0-5.697-1.783-7.924-3.617c-2.125-1.76-5.842-5.282-6.746-6.187v-0.049c0.904-0.904,4.621-4.401,6.748-6.16
			c2.225-1.833,4.645-3.618,7.922-3.618c2.762,0,4.961,2.127,4.961,4.767c0,2.226-1.246,4.205-3.838,5.011V31.095z"/>
	</g>
</g>
<path fill="none" stroke="#96C600" stroke-width="2" stroke-miterlimit="10" d="M30.667,29c0,0-6.168,19.834,0.166,23.167
	s13.333,1.667,16.5-1.5s7,1.5,7,1.5"/>
</svg>
