<?xml version="1.0" encoding="utf-8"?>
<!-- Generator: Adobe Illustrator 17.0.0, SVG Export Plug-In . SVG Version: 6.00 Build 0)  -->
<!DOCTYPE svg PUBLIC "-//W3C//DTD SVG 1.1//EN" "http://www.w3.org/Graphics/SVG/1.1/DTD/svg11.dtd">
<svg version="1.1" id="レイヤー_1" xmlns="http://www.w3.org/2000/svg" xmlns:xlink="http://www.w3.org/1999/xlink" x="0px"
	 y="0px" width="64px" height="64px" viewBox="0 0 64 64" style="enable-background:new 0 0 64 64;" xml:space="preserve">
<path style="fill:#595757;" d="M51.0656548,2.9372368c0.381958,0,0.7114449,0.1306953,0.9664459,0.4308662
	c1.7326698,2.0396118,3.0590286,18.7211914-0.9781418,22.0233727c2.3699303,3.1708374,4.1277428,6.9273109,5.0302696,11.0636597
	c0.4560509,2.0897903,3.1759033,3.7632484,3.1759033,3.7632484l-0.7075233,1.3871384l1.4086914,1.9970856
	c0,0-0.6931686,0.0311775-1.8225098,0.1284676l1.2246094,2.1124306c0,0-1.0983582,0.6512604-1.9385109,0.6512604
	c-0.1575317,0-0.3059959-0.0228958-0.4364281-0.077282c0,0,0.4130287,0.4591599,0.309761,1.836792
	c0,0-1.1309814,0.0790367-2.8862915,0.0790367c-1.7554398,0-3.7359695,0.805542-8.994751,4.4166908
	c-5.0970497,3.5-7.4956703,7.3333092-13.4171791,7.3333092s-8.3201294-3.8333092-13.4171791-7.3333092
	c-5.2587214-3.6111488-7.2393112-4.4166908-8.9946213-4.4166908c-1.7554398,0-2.8864198-0.0790367-2.8864198-0.0790367
	C6.5985098,46.8766441,7.0116,46.4174843,7.0116,46.4174843c-0.1304917,0.0544052-0.2788482,0.077282-0.4364543,0.077282
	c-0.8401623,0-1.9385457-0.6512604-1.9385457-0.6512604l1.2246099-2.1124306
	c-1.1293397-0.09729-1.8225098-0.1284676-1.8225098-0.1284676l1.40869-1.9970856l-0.70752-1.3871384
	c0,0,2.7198501-1.6734581,3.1759-3.7632484c0.9025302-4.1363487,2.6603999-7.8928223,5.0302701-11.0636597
	C8.9088697,22.0892944,10.2352896,5.4077148,11.9679604,3.368103c0.2550983-0.3002968,0.5842667-0.4308853,0.9664221-0.4308662
	c2.2475147,0.0000992,6.3252153,4.5175171,7.9136972,5.5967598c1.8587112,1.2628174,2.5814209,2.5255775,5.0597,4.7067871
	c1.07061,0.9422607,2.2753906,1.7550621,3.2994995,2.3755493c0.9185715-0.1148071,1.84655-0.194397,2.7927208-0.194397
	s1.8741493,0.0795898,2.7927208,0.194397c1.0241089-0.6204872,2.2288895-1.4332886,3.2994995-2.3755493
	c2.4782791-2.1812096,3.2009888-3.4439697,5.0597-4.7067871C44.7405167,7.4546776,48.818203,2.9372368,51.0656548,2.9372368
	 M51.0656509,2.1872368c-1.8742409,0-4.4264793,2.2992363-6.4772415,4.1467094
	c-0.76894,0.6927071-1.4330101,1.2909584-1.8579712,1.579689c-1.1165085,0.7585602-1.8536072,1.524128-2.7070885,2.4105911
	c-0.6441116,0.6689873-1.3741608,1.4272385-2.4266396,2.3535576c-0.8254776,0.7265205-1.8246346,1.4533157-2.9728088,2.1626205
	C33.6449356,14.7256775,32.8051414,14.671936,32,14.671936c-0.8051395,0-1.6449356,0.0537415-2.6238995,0.1684685
	c-1.1481762-0.7093048-2.1473331-1.4361-2.9728107-2.1626205c-1.0524807-0.9263191-1.7825298-1.6845703-2.4266396-2.3535576
	c-0.8534794-0.8864632-1.59058-1.6520309-2.7070904-2.4106026c-0.4249096-0.2886887-1.0889492-0.8869095-1.8578491-1.5795784
	c-2.0507603-1.8474808-4.6030111-4.1467323-6.4773006-4.1468086c-0.6197605-0.0000305-1.1516199,0.2403984-1.5380497,0.6952972
	c-1.3502407,1.5894394-2.2214308,9.4079399-1.6948605,15.2105522c0.3209066,3.5362511,1.0795097,6.012085,2.2584248,7.3777161
	c-2.2807579,3.2042618-3.9277544,6.9327011-4.7769146,10.8244553c-0.3166699,1.451107-2.15521,2.8631668-2.8369002,3.2848053
	l-0.5874298,0.3633347l0.3130801,0.615757l0.501864,0.9839363l-1.1477942,1.6272125L2.63603,44.2899933l1.36889,0.0618515
	c0.003829,0.0001755,0.2226763,0.0102272,0.6087499,0.0358124l-0.6259198,1.0796967l-0.3724701,0.6425018l0.6388099,0.3787689
	c0.1052432,0.0624084,0.8888659,0.515728,1.721302,0.6890259c-0.0409498,0.3094978-0.0551672,0.6837311-0.021512,1.1326828
	l0.04849,0.6468925l0.64712,0.0452309c0.0472503,0.0032959,1.17735,0.0808563,2.9387097,0.0808563
	c1.5111904,0,3.3245201,0.6828613,8.5700607,4.2849503c1.3756294,0.9446106,2.54319,1.9076805,3.6723194,2.8390503
	C24.8398895,58.6895638,27.4388294,60.833313,32,60.833313s7.1601105-2.1437492,10.1694183-4.6259995
	c1.1291313-0.9313698,2.2966919-1.8944397,3.6723099-2.8390388c5.2456131-3.6021004,7.0589714-4.2849617,8.5702019-4.2849617
	c1.7612381,0,2.8913307-0.0775604,2.9385796-0.0808563l0.6471214-0.0452309l0.0484886-0.6468925
	c0.0336571-0.4489403,0.0194397-0.8231888-0.0214996-1.132679c0.8324242-0.1732979,1.6160583-0.6266327,1.7212982-0.6890297
	l0.6388016-0.3787689l-0.3724709-0.6425018l-0.6259193-1.0796967c0.3860741-0.0255852,0.6049232-0.0356369,0.6087494-0.0358124
	l1.3688202-0.0618515l-0.7897301-1.1196899l-1.1477928-1.6272125l0.5018654-0.9839363l0.313839-0.6152916l-0.588192-0.3638
	c-0.6816902-0.4216385-2.5202293-1.8336983-2.8369102-3.2848358c-0.8491669-3.8918381-2.496151-7.6202583-4.7768974-10.8244286
	c1.1789207-1.3656464,1.9375343-3.841507,2.2584496-7.3778152c0.5265694-5.802578-0.3446121-13.6210365-1.6948395-15.2104492
	C52.2172699,2.4276657,51.6854286,2.1872368,51.0656509,2.1872368L51.0656509,2.1872368z"/>
<path style="fill:#F5F5F5;" d="M59.3633919,45.8435059L57.8598595,43.25L32,44.6954956L6.1401396,43.25l-1.5035329,2.5935059
	c0,0,1.5488796,0.918396,2.3749523,0.5739746c0,0-0.4130635,0.4591675-0.3097978,1.836792
	c0,0,1.1309848,0.0790405,2.8863964,0.0790405c1.7553568,0,3.7359104,0.805542,8.9946785,4.416687
	C23.6798706,56.25,26.0784855,60.083313,32,60.083313S40.3201294,56.25,45.4171638,52.75
	c5.2588234-3.611145,7.2393227-4.416687,8.9947319-4.416687c1.7553596,0,2.8863411-0.0790405,2.8863411-0.0790405
	c0.1032677-1.3776245-0.3097954-1.836792-0.3097954-1.836792C57.8145142,46.7619019,59.3633919,45.8435059,59.3633919,45.8435059z"
	/>
<path style="fill:#BF8B22;" d="M58.552639,41.6055298l0.707489-1.387146c0,0-2.7198334-1.6734619-3.1758804-3.7632446
	c-0.9025497-4.1363525-2.6603775-7.8928223-5.0302773-11.0636597c4.0371437-3.3021851,2.7107735-19.9837646,0.9781418-22.0233765
	c-1.7554092-2.0664063-7.0215912,3.9031372-8.8802109,5.1658936c-1.8586769,1.2628174-2.5814323,2.5255737-5.0596504,4.7067871
	c-1.0706482,0.9422607-2.2754173,1.7550659-3.2995148,2.3755493C33.8741608,15.5015259,32.9461365,15.421936,32,15.421936
	c-0.9461384,0-1.8741589,0.0795898-2.792738,0.194397c-1.0240955-0.6204834-2.2288647-1.4332886-3.2995148-2.3755493
	c-2.4782181-2.1812134-3.2009697-3.4439697-5.0596466-4.7067871c-1.8586235-1.2627563-7.1247482-7.2322998-8.8801594-5.1658936
	c-1.7326832,2.0396118-3.0590553,18.7211914,0.9780893,22.0233765c-2.3699017,3.1708374-4.1277285,6.9273071-5.0302768,11.0636597
	c-0.4560499,2.0897827-3.1758809,3.7632446-3.1758809,3.7632446l0.7074895,1.387146l-1.4086661,1.9970703
	c0,0,15.3996391,0.6818237,20.0909119,5.8973999C24.6308403,50.057251,25.5,57.1875,32,57.1875s7.3691597-7.130249,7.8703918-7.6875
	c4.6912727-5.2155762,20.0909119-5.8973999,20.0909119-5.8973999L58.552639,41.6055298z"/>
<linearGradient id="SVGID_1_" gradientUnits="userSpaceOnUse" x1="32" y1="20.75" x2="32" y2="57.189743">
	<stop  offset="0.4070796" style="stop-color:#A6791E;stop-opacity:0"/>
	<stop  offset="0.6106195" style="stop-color:#A6791E"/>
	<stop  offset="0.8584071" style="stop-color:#A6791E"/>
	<stop  offset="1" style="stop-color:#A6791E;stop-opacity:0"/>
</linearGradient>
<path style="fill:url(#SVGID_1_);" d="M32,20.75c3.75,0,4.1286812,17.1715736,6.25,20c3.75,5,1.25,16.625-6.25,16.4375
	S22,45.75,25.75,40.75C27.8713207,37.9215736,28.25,20.75,32,20.75z"/>
<linearGradient id="SVGID_2_" gradientUnits="userSpaceOnUse" x1="42.9419479" y1="20.7079849" x2="52.7597656" y2="3.7030227">
	<stop  offset="0.159292" style="stop-color:#231815;stop-opacity:0"/>
	<stop  offset="1" style="stop-color:#231815;stop-opacity:0.9"/>
</linearGradient>
<path style="fill:url(#SVGID_2_);" d="M51.0539932,25.3914776c4.0371246-3.3021927,2.7107544-19.9837494,0.9781036-22.0233841
	c-1.7554131-2.0663712-7.0215759,3.9031177-8.8802223,5.1659274s-2.5814247,2.5255375-5.0596199,4.7067633
	c-1.0706749,0.9422941-2.2754364,1.7551031-3.2995224,2.375536L51.0539932,25.3914776z"/>
<g>
	<linearGradient id="SVGID_3_" gradientUnits="userSpaceOnUse" x1="37.8541679" y1="37.5" x2="52.9791679" y2="37.5">
		<stop  offset="0.3141593" style="stop-color:#926134"/>
		<stop  offset="1" style="stop-color:#926134;stop-opacity:0"/>
	</linearGradient>
	<path style="fill:url(#SVGID_3_);" d="M52.9791679,36.5c0,2.9236565-6.9075928,6.2937508-9.8312531,6.2937508
		c-2.9236565,0-5.2937469-2.3700943-5.2937469-5.2937508s2.3700905-5.2937508,5.2937469-5.2937508
		C46.0715752,32.2062492,52.9791679,33.5763435,52.9791679,36.5z"/>
	<circle style="fill:#231815;" cx="43.1479149" cy="37.5" r="4.0333333"/>
	<radialGradient id="SVGID_4_" cx="43.1479149" cy="37.5" r="3.0250001" gradientUnits="userSpaceOnUse">
		<stop  offset="0.6814159" style="stop-color:#F5B32C"/>
		<stop  offset="1" style="stop-color:#805D17"/>
	</radialGradient>
	<circle style="fill:url(#SVGID_4_);" cx="43.1479149" cy="37.5" r="3.0250001"/>
	<ellipse style="fill:#231815;" cx="43.1479149" cy="37.5" rx="1.6479167" ry="2.2750001"/>
	<linearGradient id="SVGID_5_" gradientUnits="userSpaceOnUse" x1="41.441288" y1="34.8333321" x2="41.441288" y2="37.25">
		<stop  offset="0" style="stop-color:#FFFFFF"/>
		<stop  offset="1" style="stop-color:#FFFFFF;stop-opacity:0.3"/>
	</linearGradient>
	<ellipse style="fill:url(#SVGID_5_);" cx="41.441288" cy="36.0416641" rx="1.2329545" ry="1.2083334"/>
	<linearGradient id="SVGID_6_" gradientUnits="userSpaceOnUse" x1="45.1639137" y1="38.7291679" x2="45.1639137" y2="40.0625">
		<stop  offset="0" style="stop-color:#FFFFFF"/>
		<stop  offset="1" style="stop-color:#FFFFFF;stop-opacity:0.3"/>
	</linearGradient>
	<circle style="fill:url(#SVGID_6_);" cx="45.1639137" cy="39.3958359" r="0.663915"/>
</g>
<linearGradient id="SVGID_7_" gradientUnits="userSpaceOnUse" x1="47.0940704" y1="4.5779772" x2="47.0940704" y2="24.25">
	<stop  offset="0" style="stop-color:#FFF8F2"/>
	<stop  offset="1" style="stop-color:#D9B9A1"/>
</linearGradient>
<path style="fill:url(#SVGID_7_);" d="M50.8889427,4.75c0.758873,0.8436856,2.9232864,15.583334-0.7495613,19.5
	c0,0-2.2486839-1.833334-5.396843-4c-3.1481552-2.166666-3.5978928-4.666667-1.4241638-7.666667
	C48.7504044,5.0864925,50.2892914,4.0833335,50.8889427,4.75z"/>
<linearGradient id="SVGID_8_" gradientUnits="userSpaceOnUse" x1="42.9419479" y1="20.7079849" x2="52.7597656" y2="3.7030232" gradientTransform="matrix(-1 0 0 1 64 0)">
	<stop  offset="0.159292" style="stop-color:#231815;stop-opacity:0"/>
	<stop  offset="1" style="stop-color:#231815;stop-opacity:0.9"/>
</linearGradient>
<path style="fill:url(#SVGID_8_);" d="M12.9460058,25.3914776C8.9088802,22.0892849,10.2352533,5.4077272,11.9679022,3.368094
	c1.7554131-2.0663712,7.0215769,3.9031177,8.8802214,5.1659274c1.8586464,1.2628107,2.5814285,2.5255375,5.0596237,4.7067633
	c1.0706711,0.9422941,2.2754345,1.7551031,3.2995186,2.375536L12.9460058,25.3914776z"/>
<g>
	
		<linearGradient id="SVGID_9_" gradientUnits="userSpaceOnUse" x1="37.8541679" y1="37.5" x2="52.9791679" y2="37.5" gradientTransform="matrix(-1 0 0 1 64 0)">
		<stop  offset="0.3141593" style="stop-color:#926134"/>
		<stop  offset="1" style="stop-color:#926134;stop-opacity:0"/>
	</linearGradient>
	<path style="fill:url(#SVGID_9_);" d="M11.020833,36.5c0,2.9236565,6.9075937,6.2937508,9.8312502,6.2937508
		S26.145834,40.4236565,26.145834,37.5s-2.3700924-5.2937508-5.2937508-5.2937508S11.020833,33.5763435,11.020833,36.5z"/>
	<circle style="fill:#231815;" cx="20.8520832" cy="37.5" r="4.0333333"/>
	
		<radialGradient id="SVGID_10_" cx="43.1479149" cy="37.5" r="3.0250001" gradientTransform="matrix(1 0 0 1 -22.2958336 0)" gradientUnits="userSpaceOnUse">
		<stop  offset="0.6814159" style="stop-color:#F5B32C"/>
		<stop  offset="1" style="stop-color:#805D17"/>
	</radialGradient>
	<circle style="fill:url(#SVGID_10_);" cx="20.8520832" cy="37.5" r="3.0250001"/>
	<ellipse style="fill:#231815;" cx="20.8520832" cy="37.5" rx="1.6479167" ry="2.2750001"/>
	
		<linearGradient id="SVGID_11_" gradientUnits="userSpaceOnUse" x1="41.441288" y1="34.8333321" x2="41.441288" y2="37.25" gradientTransform="matrix(1 0 0 1 -22.2958336 0)">
		<stop  offset="0" style="stop-color:#FFFFFF"/>
		<stop  offset="1" style="stop-color:#FFFFFF;stop-opacity:0.3"/>
	</linearGradient>
	<ellipse style="fill:url(#SVGID_11_);" cx="19.1454544" cy="36.0416641" rx="1.2329545" ry="1.2083334"/>
	
		<linearGradient id="SVGID_12_" gradientUnits="userSpaceOnUse" x1="45.1639137" y1="38.7291679" x2="45.1639137" y2="40.0625" gradientTransform="matrix(1 0 0 1 -22.2958336 0)">
		<stop  offset="0" style="stop-color:#FFFFFF"/>
		<stop  offset="1" style="stop-color:#FFFFFF;stop-opacity:0.3"/>
	</linearGradient>
	<circle style="fill:url(#SVGID_12_);" cx="22.868082" cy="39.3958359" r="0.663915"/>
</g>
<linearGradient id="SVGID_13_" gradientUnits="userSpaceOnUse" x1="47.0940704" y1="4.5779777" x2="47.0940704" y2="24.25" gradientTransform="matrix(-1 0 0 1 64 0)">
	<stop  offset="0" style="stop-color:#FFF8F2"/>
	<stop  offset="1" style="stop-color:#D9B9A1"/>
</linearGradient>
<path style="fill:url(#SVGID_13_);" d="M13.1110582,4.75c-0.758873,0.8436856-2.9232883,15.583334,0.7495613,19.5
	c0,0,2.248683-1.833334,5.3968401-4s3.5978947-4.666667,1.4241657-7.666667
	C15.2495966,5.0864925,13.7107077,4.0833335,13.1110582,4.75z"/>
<path style="fill:#231815;" d="M36.3333321,51.8499985C36.3333321,53.6449242,34.1666679,55.75,32,55.75
	s-4.333334-2.1050758-4.333334-3.9000015S29.6067657,49.25,32,49.25S36.3333321,50.0550728,36.3333321,51.8499985z"/>
<path style="fill:#3E3A39;" d="M24.1296082,49.5c0,0,0.059906,0.0726891,0.1394596,0.2280769
	c0.0761147,0.160347,0.1828403,0.3997307,0.2978878,0.7041588c0.2322254,0.6099167,0.5876236,1.4731712,1.1177807,2.4367638
	c0.272974,0.4761276,0.5863838,0.9830437,0.9903831,1.4543953c0.1951981,0.2419281,0.4074039,0.4775276,0.6521435,0.6889763
	c0.2257957,0.2321167,0.4887638,0.4269218,0.7570763,0.6233368c0.2520313,0.2205429,0.576479,0.3373146,0.8650055,0.5153961
	c0.304884,0.1492081,0.6392212,0.2433929,0.9582424,0.3772507c0.3404427,0.0717697,0.6835861,0.144104,1.0280819,0.2167244
	L32,56.8125l1.088768-0.0699921c0.3363075-0.0717583,0.6712952-0.1432381,1.0036469-0.2141533
	c0.3190193-0.1338577,0.6533585-0.2280426,0.9582405-0.3772507c0.2885246-0.1780815,0.6129723-0.2948532,0.8650055-0.5153961
	c0.2683144-0.1964149,0.5312805-0.3912201,0.7570763-0.6233368c0.2447357-0.2114487,0.4569473-0.4470482,0.6521454-0.6889763
	c0.4039993-0.4713516,0.7174072-0.9782677,0.9903793-1.4543953c0.530159-0.9635925,0.8855591-1.8268471,1.1177826-2.4367638
	c0.1154709-0.3056946,0.2213821-0.5423431,0.2967033-0.7017441C39.810585,49.5721169,39.8703918,49.5,39.8703918,49.5
	s-0.0490723,0.0824661-0.1030998,0.2459221c-0.0451851,0.1687813-0.111454,0.4163284-0.195797,0.7313881
	c-0.1749954,0.6280937-0.392189,1.550766-0.8810043,2.5832367c-0.2483139,0.5122643-0.5388718,1.0645943-0.9339409,1.5969429
	c-0.1904182,0.2718506-0.4008751,0.5405083-0.6502037,0.7894096c-0.22509,0.2721367-0.5129623,0.4908295-0.8000717,0.7202797
	c-0.2720375,0.2507133-0.623764,0.3994904-0.9416275,0.6065521c-0.3333282,0.180275-0.7022018,0.2996254-1.0606117,0.4468155
	c-0.3816643,0.0910873-0.7760658,0.1837349-1.1626091,0.2569351L32,57.5625l-1.165863-0.0875893
	c-0.3827724-0.0744553-0.7630138-0.1656189-1.1381721-0.254364c-0.3584099-0.1471901-0.7272816-0.2665405-1.0606098-0.4468155
	c-0.3178673-0.2070618-0.6695919-0.3558388-0.9416332-0.6065521c-0.2871056-0.2294502-0.5749779-0.448143-0.8000679-0.7202797
	c-0.2493305-0.2489014-0.4597836-0.5175591-0.6502037-0.7894096c-0.3950653-0.5323486-0.6856289-1.0846786-0.9339409-1.5969429
	c-0.4888172-1.0324707-0.7060127-1.955143-0.8810024-2.5832367c-0.0838337-0.3140221-0.1497021-0.5607491-0.1946144-0.7289734
	C24.1785851,49.5818901,24.1296082,49.5,24.1296082,49.5z"/>
<linearGradient id="SVGID_14_" gradientUnits="userSpaceOnUse" x1="32" y1="49.65625" x2="32" y2="55.34375">
	<stop  offset="0.6460177" style="stop-color:#3E3A39"/>
	<stop  offset="1" style="stop-color:#3E3A39;stop-opacity:0"/>
</linearGradient>
<path style="fill:url(#SVGID_14_);" d="M35.7916679,51.9312515c0,1.5705566-1.8958359,3.4124985-3.7916679,3.4124985
	c-1.895834,0-3.791666-1.8419418-3.791666-3.4124985c0-1.5705605,1.6975861-2.2750015,3.791666-2.2750015
	S35.7916679,50.3606911,35.7916679,51.9312515z"/>
<g>
</g>
<g>
</g>
<g>
</g>
<g>
</g>
<g>
</g>
<g>
</g>
</svg>
