<?xml version="1.0" encoding="utf-8"?>
<!-- Generator: Adobe Illustrator 15.0.2, SVG Export Plug-In . SVG Version: 6.00 Build 0)  -->
<!DOCTYPE svg PUBLIC "-//W3C//DTD SVG 1.1//EN" "http://www.w3.org/Graphics/SVG/1.1/DTD/svg11.dtd">
<svg version="1.1" id="レイヤー_1" xmlns="http://www.w3.org/2000/svg" xmlns:xlink="http://www.w3.org/1999/xlink" x="0px"
	 y="0px" width="64px" height="64px" viewBox="0 0 64 64" enable-background="new 0 0 64 64" xml:space="preserve">
<g>
	<rect x="23.167" y="23.5" fill="#474747" stroke="#0C0000" stroke-miterlimit="10" width="5.833" height="10.09"/>
	<g>
		<path fill="none" stroke="#000000" stroke-width="4" stroke-miterlimit="10" d="M16.75,30.669c0,0,4.915,5.464-0.983,13.165
			C5.555,57.167,27.333,67.001,27.333,54.001c0-18.167,0-20.41,0-20.41"/>
		<path fill="none" stroke="#ADADAD" stroke-width="2" stroke-miterlimit="10" d="M16.75,30.669c0,0,4.915,5.464-0.983,13.165
			C5.555,57.167,27.333,67.001,27.333,54.001c0-18.167,0-20.41,0-20.41"/>
	</g>
	<rect x="28.063" y="17.949" fill="#EF2222" stroke="#0C0000" stroke-miterlimit="10" width="29.375" height="42.77"/>
	<rect x="30.875" y="21.417" width="23.75" height="13.417"/>
	<g>
		<path fill="#FFFFFF" d="M42.918,53.989c-0.787,0.289-2.327,0.632-3.745,0.632c-2.087,0-3.592-0.547-4.652-1.573
			c-1.197-1.146-1.813-2.977-1.813-5.046c0-4.566,3.097-6.84,6.808-6.84c1.385,0,2.48,0.256,3.062,0.529l-0.565,2.496
			c-0.581-0.256-1.299-0.443-2.41-0.443c-2.121,0-3.729,1.249-3.729,4.258c0,2.805,1.453,4.155,3.266,4.155
			c0.428,0,0.77-0.033,0.941-0.119v-2.771h-1.574v-2.377h4.413V53.989z"/>
		<path fill="#FFFFFF" d="M51.715,44.171c-0.479-0.239-1.266-0.547-2.326-0.547c-1.162,0-1.727,0.563-1.727,1.214
			c0,0.735,0.547,1.095,2.154,1.83c2.104,0.941,2.977,2.241,2.977,3.883c0,2.412-1.83,4.122-5.028,4.122
			c-1.334,0-2.651-0.343-3.267-0.684l0.513-2.532c0.701,0.359,1.813,0.684,2.874,0.684c1.265,0,1.881-0.547,1.881-1.334
			c0-0.804-0.599-1.248-1.967-1.863c-2.087-0.958-3.164-2.259-3.164-3.831c0-2.24,1.71-4.002,4.771-4.002
			c1.266,0,2.24,0.272,2.873,0.581L51.715,44.171z"/>
	</g>
	<g>
		<g>
			<path fill="none" stroke="#000000" stroke-width="3" stroke-miterlimit="10" d="M7.96,21.479c0,0,1.55,10.34,7.807,9.084"/>
			<path fill="none" stroke="#E20707" stroke-miterlimit="10" d="M7.96,21.479c0,0,1.55,10.34,7.807,9.084"/>
		</g>
		<polygon fill="#D9DADA" stroke="#231815" stroke-miterlimit="10" points="15.107,20.788 12.565,8.129 5.148,2.306 3.276,4.689 
			9.815,9.823 12.136,21.384 		"/>
		<g>
			<path fill="#E20707" d="M7.831,17.622c-1.251,0.251-2.07,1.481-1.818,2.732l0.583,2.907c0.251,1.251,1.481,2.07,2.732,1.818
				l0.884-0.177c1.251-0.251,2.481,0.567,2.732,1.818l0.922,4.595c0.251,1.251,1.481,2.069,2.732,1.818l0.885-0.178
				c1.251-0.251,2.07-1.481,1.818-2.732l-0.922-4.594c-0.251-1.251-0.663-3.299-0.914-4.551l-0.12-0.599
				c-0.251-1.251-0.561-2.794-0.688-3.429s-1.255-0.948-2.507-0.697L7.831,17.622z"/>
			<path fill="none" stroke="#000000" stroke-miterlimit="10" d="M7.831,17.622c-1.251,0.251-2.07,1.481-1.818,2.732l0.583,2.907
				c0.251,1.251,1.481,2.07,2.732,1.818l0.884-0.177c1.251-0.251,2.481,0.567,2.732,1.818l0.922,4.595
				c0.251,1.251,1.481,2.069,2.732,1.818l0.885-0.178c1.251-0.251,2.07-1.481,1.818-2.732l-0.922-4.594
				c-0.251-1.251-0.663-3.299-0.914-4.551l-0.12-0.599c-0.251-1.251-0.561-2.794-0.688-3.429s-1.255-0.948-2.507-0.697L7.831,17.622
				z"/>
		</g>
	</g>
	<g>
		<path fill="#F9F9F9" d="M52.793,30.438c0,0.63-0.516,1.146-1.146,1.146H34.438c-0.631,0-1.146-0.516-1.146-1.146V24.23
			c0-0.63,0.516-1.146,1.146-1.146h17.209c0.631,0,1.146,0.516,1.146,1.146V30.438z"/>
	</g>
</g>
</svg>
