<?xml version="1.0" encoding="UTF-8" standalone="no"?>
<!-- Generator: Adobe Illustrator 15.0.0, SVG Export Plug-In . SVG Version: 6.00 Build 0)  -->

<svg
   xmlns:dc="http://purl.org/dc/elements/1.1/"
   xmlns:cc="http://creativecommons.org/ns#"
   xmlns:rdf="http://www.w3.org/1999/02/22-rdf-syntax-ns#"
   xmlns:svg="http://www.w3.org/2000/svg"
   xmlns="http://www.w3.org/2000/svg"
   xmlns:sodipodi="http://sodipodi.sourceforge.net/DTD/sodipodi-0.dtd"
   xmlns:inkscape="http://www.inkscape.org/namespaces/inkscape"
   version="1.1"
   id="レイヤー_1"
   x="0px"
   y="0px"
   width="64px"
   height="64px"
   viewBox="0 0 64 64"
   style="enable-background:new 0 0 64 64;"
   xml:space="preserve"
   inkscape:version="0.48.5 r10040"
   sodipodi:docname="fuelpump.svg"><metadata
     id="metadata57"><rdf:RDF><cc:Work
         rdf:about=""><dc:format>image/svg+xml</dc:format><dc:type
           rdf:resource="http://purl.org/dc/dcmitype/StillImage" /></cc:Work></rdf:RDF></metadata><defs
     id="defs55" /><sodipodi:namedview
     pagecolor="#ffffff"
     bordercolor="#666666"
     borderopacity="1"
     objecttolerance="10"
     gridtolerance="10"
     guidetolerance="10"
     inkscape:pageopacity="0"
     inkscape:pageshadow="2"
     inkscape:window-width="640"
     inkscape:window-height="480"
     id="namedview53" /><g
     id="g3"><g
       id="g5"><path
         d="M23.7573242,62.1503906c-3.3144531,0-6.9208984-1.9023438-9.0966797-5.0058594    c-1.4272461-2.0351563-4.1708984-7.5214844,1.1616211-14.4833984c4.831543-6.3085938,1.121582-10.5683594,1.0839844-10.6108398    l2.9736328-2.6748047c2.0839844,2.3168945,4.5820313,8.5834961-0.8818359,15.7172852    c-2.6601563,3.4736328-3.0375977,6.9384766-1.0620117,9.7558594c1.8320313,2.6142578,5.0766602,3.7285156,6.9633789,3.1386719    c1.378418-0.4355469,2.0771484-1.7617188,2.0771484-3.9433594l0.0004883-20.4101563h4l-0.0004883,20.4101563    c0,3.9521484-1.7763672,6.7802734-4.8730469,7.7578125C25.3554688,62.0371094,24.5649414,62.1503906,23.7573242,62.1503906z"
         id="path7" /><path
         style="fill:#ADADAD;"
         d="M23.7949219,61.1435547c-2.9921875,0-6.3476563-1.765625-8.3154297-4.5732422    c-2.7490234-3.9208984-2.3344727-8.7685547,1.1367188-13.3017578c5.3310547-6.9599609,1.0771484-11.8383789,1.0332031-11.8867188    l1.4873047-1.3378906c0.0546875,0.0610352,5.3964844,6.1767578-0.9326172,14.4414063    c-3.9770508,5.1923828-2.3881836,9.0810547-1.0869141,10.9375c1.9213867,2.7402344,5.5498047,4.3212891,8.0830078,3.5175781    c1.8164063-0.5732422,2.7763672-2.2666016,2.7763672-4.8964844l0.0004883-20.4101563h2l-0.0004883,20.4101563    c0,3.4863281-1.5214844,5.9667969-4.1743164,6.8037109C25.1679688,61.0478516,24.4912109,61.1435547,23.7949219,61.1435547z"
         id="path9" /></g><g
       id="g11"><rect
         x="24.8100586"
         y="23.5439453"
         style="fill:#474747;"
         width="5.8330078"
         height="10.0898438"
         id="rect13" /><path
         style="fill:#0C0000;"
         d="M31.1430664,34.1337891h-6.8330078V23.0439453h6.8330078V34.1337891z M25.3100586,33.1337891    h4.8330078v-9.0898438h-4.8330078V33.1337891z"
         id="path15" /></g><g
       id="g17"><rect
         x="29.7055664"
         y="17.9921875"
         style="fill:#EF2222;"
         width="29.3754883"
         height="42.7695313"
         id="rect19" /><path
         style="fill:#0C0000;"
         d="M59.0810547,61.2617188H29.7055664c-0.2763672,0-0.5-0.2236328-0.5-0.5V17.9921875    c0-0.2763672,0.2236328-0.5,0.5-0.5h29.3754883c0.2763672,0,0.5,0.2236328,0.5,0.5v42.7695313    C59.5810547,61.0380859,59.3574219,61.2617188,59.0810547,61.2617188z M30.2055664,60.2617188h28.3754883V18.4921875H30.2055664    V60.2617188z"
         id="path21" /></g><rect
       x="32.5180664"
       y="21.4604492"
       width="23.7504883"
       height="13.4165039"
       id="rect23" /><g
       id="g25"><path
         style="fill:#FFFFFF;"
         d="M44.5615234,54.0322266c-0.7871094,0.2890625-2.3271484,0.6318359-3.7451172,0.6318359    c-2.0869141,0-3.5917969-0.546875-4.6523438-1.5732422c-1.1972656-1.1464844-1.8134766-2.9765625-1.8134766-5.0458984    c0-4.5664063,3.0966797-6.8398438,6.8076172-6.8398438c1.3847656,0,2.4804688,0.2558594,3.0615234,0.5292969l-0.5654297,2.4960938    c-0.5810547-0.2558594-1.2988281-0.4433594-2.4101563-0.4433594c-2.1210938,0-3.7285156,1.2490234-3.7285156,4.2578125    c0,2.8046875,1.453125,4.1552734,3.265625,4.1552734c0.4277344,0,0.7695313-0.0332031,0.9414063-0.1191406v-2.7705078h-1.5742188    v-2.3769531h4.4130859V54.0322266z"
         id="path27" /><path
         style="fill:#FFFFFF;"
         d="M53.3583984,44.2138672c-0.4785156-0.2392578-1.265625-0.546875-2.3261719-0.546875    c-1.1621094,0-1.7265625,0.5634766-1.7265625,1.2138672c0,0.7353516,0.546875,1.0947266,2.1542969,1.8300781    c2.1044922,0.9414063,2.9765625,2.2412109,2.9765625,3.8828125c0,2.4121094-1.8300781,4.1220703-5.0283203,4.1220703    c-1.3339844,0-2.6513672-0.3427734-3.2666016-0.6835938L46.6542969,51.5    c0.7011719,0.359375,1.8134766,0.6835938,2.8740234,0.6835938c1.2646484,0,1.8808594-0.546875,1.8808594-1.3339844    c0-0.8037109-0.5986328-1.2480469-1.9667969-1.8632813c-2.0869141-0.9580078-3.1640625-2.2587891-3.1640625-3.8310547    c0-2.2402344,1.7099609-4.0019531,4.7714844-4.0019531c1.265625,0,2.2402344,0.2724609,2.8730469,0.5810547L53.3583984,44.2138672    z"
         id="path29" /></g><g
       id="g31"><g
         id="g33"><path
           d="M16.3676758,32.2148438c-1.2490234,0-2.4140625-0.375-3.4765625-1.1206055     c-3.7231445-2.6132813-4.7299805-9.0751953-4.7709961-9.3491211l2.9667969-0.4462891     c0.2304688,1.5161133,1.3149414,5.7905273,3.53125,7.3422852c0.7543945,0.5273438,1.5488281,0.6850586,2.496582,0.4951172     l0.5908203,2.9414063C17.25,32.1689453,16.8037109,32.2148438,16.3676758,32.2148438z"
           id="path35" /><path
           style="fill:#E20707;"
           d="M16.3793945,31.2128906c-1.0488281,0-2.0249023-0.3134766-2.9135742-0.9375     c-3.3764648-2.3691406-4.3183594-8.421875-4.3569336-8.6782227l0.9892578-0.1484375     c0.0087891,0.0585938,0.9179688,5.8876953,3.9433594,8.0092773c0.980957,0.6884766,2.0512695,0.9038086,3.2700195,0.6586914     l0.1972656,0.9804688C17.1240234,31.1743164,16.7470703,31.2128906,16.3793945,31.2128906z"
           id="path37" /></g><g
         id="g39"><polygon
           style="fill:#D9DADA;"
           points="16.75,20.831543 14.2084961,8.1728516 6.7910156,2.3496094 4.9194336,4.7329102      11.4580078,9.8662109 13.7792969,21.4277344    "
           id="polygon41" /><path
           style="fill:#231815;"
           d="M13.7788086,21.9277344c-0.2333984,0-0.4418945-0.1640625-0.4897461-0.4013672     l-2.2851563-11.3808594L4.6108398,5.1259766c-0.1044922-0.081543-0.171875-0.2016602-0.1879883-0.3334961     c-0.015625-0.1313477,0.0214844-0.2641602,0.1035156-0.3681641l1.871582-2.3833008     c0.1708984-0.2172852,0.484375-0.2558594,0.7016602-0.0844727l7.4174805,5.8232422     c0.09375,0.0732422,0.1582031,0.1777344,0.1816406,0.2944336l2.5415039,12.6586914     c0.0258789,0.1303711-0.0004883,0.2651367-0.0742188,0.3754883c-0.0732422,0.1103516-0.1875,0.1875-0.3178711,0.2133789     l-2.9707031,0.5961914C13.8442383,21.9248047,13.8115234,21.9277344,13.7788086,21.9277344z M5.621582,4.6484375     l6.1450195,4.824707c0.09375,0.0732422,0.1582031,0.1777344,0.1816406,0.2944336l2.2226563,11.0717773l1.9902344-0.3994141     l-2.4067383-11.987793L6.8754883,3.0517578L5.621582,4.6484375z"
           id="path43" /></g><g
         id="g45"><path
           style="fill:#E20707;"
           d="M9.4736328,17.6655273c-1.2514648,0.2514648-2.0698242,1.480957-1.8183594,2.7324219     l0.5834961,2.9067383c0.2514648,1.2514648,1.480957,2.0698242,2.7324219,1.8183594l0.8837891-0.1772461     c1.2514648-0.2514648,2.480957,0.5668945,2.7324219,1.8183594l0.9223633,4.5947266     c0.2514648,1.2514648,1.480957,2.0688477,2.7324219,1.8178711l0.8847656-0.1772461     c1.2514648-0.2514648,2.0698242-1.480957,1.8183594-2.7324219l-0.9223633-4.5942383     c-0.2514648-1.2514648-0.6625977-3.2993164-0.9140625-4.5507813l-0.1201172-0.5991211     c-0.2514648-1.2514648-0.5610352-2.7944336-0.6884766-3.4291992s-1.2553711-0.9482422-2.5068359-0.6967773L9.4736328,17.6655273z     "
           id="path47" /><path
           d="M17.7875977,33.7216797c-1.340332,0-2.5043945-0.9516602-2.7680664-2.2641602L14.097168,26.862793     c-0.1933594-0.9624023-1.1420898-1.6240234-2.1435547-1.4267578l-0.8842773,0.1772461     c-0.1850586,0.0371094-0.3701172,0.0551758-0.5532227,0.0551758l0,0c-1.3398438,0-2.5039063-0.9526367-2.7675781-2.2651367     L7.1650391,20.496582C6.8588867,18.9716797,7.8500977,17.4819336,9.375,17.175293l6.3198242-1.2685547     c0.3193359-0.0639648,0.6376953-0.0966797,0.9472656-0.0966797c1.1782227,0,2.0014648,0.4541016,2.1484375,1.1850586     l2.6450195,13.1733398c0.1479492,0.7363281-0.0009766,1.4882813-0.4194336,2.1166992     c-0.418457,0.6289063-1.0546875,1.0556641-1.7905273,1.2041016l-0.8847656,0.1777344     C18.1552734,33.7041016,17.9702148,33.7216797,17.7875977,33.7216797z M12.3100586,24.4003906     c1.3398438,0,2.5039063,0.9526367,2.7675781,2.2651367L16,31.2602539     c0.1938477,0.9624023,1.1445313,1.6264648,2.144043,1.4267578l0.8842773-0.1777344     c0.4746094-0.0952148,0.8847656-0.371582,1.1552734-0.777832c0.2705078-0.4067383,0.3666992-0.8916016,0.2714844-1.3657227     l-2.6450195-13.1733398c-0.0258789-0.1293945-0.40625-0.3823242-1.1679688-0.3823242     c-0.2431641,0-0.4956055,0.0258789-0.75,0.0771484l-6.3198242,1.2685547     c-0.984375,0.1977539-1.6245117,1.159668-1.4267578,2.1435547l0.5834961,2.9067383     c0.1704102,0.847168,0.921875,1.4624023,1.7871094,1.4624023l0,0c0.1176758,0,0.2368164-0.0117188,0.3564453-0.0356445     l0.8842773-0.1772461C11.9418945,24.418457,12.1274414,24.4003906,12.3100586,24.4003906z"
           id="path49" /></g></g><path
       style="fill:#F9F9F9;"
       d="M54.1445313,30.480957c0,0.6303711-0.515625,1.1464844-1.1464844,1.1464844H35.7890625   c-0.6298828,0-1.1464844-0.5161133-1.1464844-1.1464844v-6.2070313c0-0.6303711,0.5166016-1.1464844,1.1464844-1.1464844   h17.2089844c0.6308594,0,1.1464844,0.5161133,1.1464844,1.1464844V30.480957z"
       id="path51" /></g></svg>