<?xml version="1.0" encoding="UTF-8" standalone="no"?>
<!-- Generator: Adobe Illustrator 18.0.0, SVG Export Plug-In . SVG Version: 6.00 Build 0)  -->

<svg
   xmlns:dc="http://purl.org/dc/elements/1.1/"
   xmlns:cc="http://creativecommons.org/ns#"
   xmlns:rdf="http://www.w3.org/1999/02/22-rdf-syntax-ns#"
   xmlns:svg="http://www.w3.org/2000/svg"
   xmlns="http://www.w3.org/2000/svg"
   xmlns:sodipodi="http://sodipodi.sourceforge.net/DTD/sodipodi-0.dtd"
   xmlns:inkscape="http://www.inkscape.org/namespaces/inkscape"
   version="1.1"
   id="レイヤー_1"
   x="0px"
   y="0px"
   width="64px"
   height="64px"
   viewBox="0 0 64 64"
   style="enable-background:new 0 0 64 64;"
   xml:space="preserve"
   inkscape:version="0.48.5 r10040"
   sodipodi:docname="full_moon_with_face.svg"><metadata
     id="metadata336"><rdf:RDF><cc:Work
         rdf:about=""><dc:format>image/svg+xml</dc:format><dc:type
           rdf:resource="http://purl.org/dc/dcmitype/StillImage" /></cc:Work></rdf:RDF></metadata><defs
     id="defs334" /><sodipodi:namedview
     pagecolor="#ffffff"
     bordercolor="#666666"
     borderopacity="1"
     objecttolerance="10"
     gridtolerance="10"
     guidetolerance="10"
     inkscape:pageopacity="0"
     inkscape:pageshadow="2"
     inkscape:window-width="640"
     inkscape:window-height="480"
     id="namedview332" /><g
     id="g3"><radialGradient
       id="SVGID_1_"
       cx="32"
       cy="32"
       r="30.25"
       gradientUnits="userSpaceOnUse"><stop
         offset="0"
         style="stop-color:#F7F7E4"
         id="stop6" /><stop
         offset="0.5728128"
         style="stop-color:#F5F5E2"
         id="stop8" /><stop
         offset="0.7791135"
         style="stop-color:#EEEEDC"
         id="stop10" /><stop
         offset="0.9256564"
         style="stop-color:#E3E3D1"
         id="stop12" /><stop
         offset="1"
         style="stop-color:#D9D9C8"
         id="stop14" /></radialGradient><path
       style="fill:url(#SVGID_1_);"
       d="M32,62.25C15.3203125,62.25,1.75,48.6796875,1.75,32S15.3203125,1.75,32,1.75   S62.25,15.3203125,62.25,32S48.6796875,62.25,32,62.25z"
       id="path16" /><path
       style="fill:#99998D;"
       d="M32,2c16.5685005,0,30,13.4314613,30,30c0,16.5685005-13.4314995,30-30,30   C15.4314604,62,2,48.5685005,2,32C2,15.4314613,15.4314604,2,32,2 M32,1.5C15.1822395,1.5,1.5,15.1822395,1.5,32   S15.1822395,62.5,32,62.5S62.5,48.8177605,62.5,32S48.8177605,1.5,32,1.5L32,1.5z"
       id="path18" /></g><g
     style="opacity:0.2;"
     id="g20"><path
       style="fill:#B3B3A5;"
       d="M42.3125,13.5625c0.5881004,0.5767803,0.7275009,1.375,1.625,1.375   c0.7783012,0,1.5028992-0.6150503,2.0625-1.0625c0.730999-0.5844698,0.375-1.6279297,0.375-2.625   c0-0.9747295-0.6721001-1.1028404-1.375-1.6875c-0.5665016-0.4712496-1.6365013-0.5-2.4375-0.5   c-0.9356995,0-1.2820015,0.1918297-1.875,0.8125c-0.5446014,0.5699501-0.4375,0.9697905-0.4375,1.8125   C40.25,12.567688,41.7243996,12.9856567,42.3125,13.5625z"
       id="path22" /><path
       style="fill:#B3B3A5;"
       d="M54.8241997,24.0086002c-1.3320007-1.2931004-1.2739983-3.1789494-0.7528-3.4483604   c0.5212021-0.2694092,0.3474007-0.7004395-0.115799-0.9698505c-0.4634018-0.2694092-1.2162018-1.3469791-1.0424995-1.9396896   c0.1737976-0.59272-0.1158028-0.8082294-1.4477997-0.10779c-1.3319016,0.7005005-3.9379997,0.3233013-4.5750008-0.1616192   c-0.637001-0.48493-0.9845009-0.48493-2.0269012,0.1077805c-0.8451996,0.4805298-3.294899,0.3374691-4.2382011,0.545599   c-0.2433968-0.6241493-1.8761978-1.3017597-2.2804985-1.3017597c-0.4369011,0,0.4366989,1.45154-0.7280998,2.6391602   c-1.1646996,1.1876793-1.4558983-0.9237099-2.3293991-2.3752403c-0.8736-1.45154-3.3487015,0-4.2223015-1.1876297   c-0.8736-1.1876802-1.8927002-0.7918005-1.4559994-1.5835505c0.4368-0.79175,2.9120007-1.0556698,4.2222996-1.715457   c1.3102989-0.65979,0.8736-1.1876221-0.2911987-1.1876221c-1.1648026,0-1.3103027-0.7917509-2.6207008-0.659791   c-1.3104,0.1319599-1.4559002,1.9793711-2.7663002,2.5072002c0,0-1.0191002-0.3958712-1.0191002-1.3195772   c0-0.9237032-1.0191994,0.527832-1.8927994,0.9237061c-0.8735008,0.3958712,0.2912006,1.0556612-0.7280006,2.2432909   c-1.0191002,1.1876802-0.8734989,1.7155104-1.4559002,2.2433405c-0.5823002,0.5278301,1.0192013,2.6391602,0.7280006,3.4309692   c-0.2912006,0.79175-1.0191994,0.5278301-1.4559994,1.1876202c-0.4367409,0.659771-2.6206398,0.2638702-3.0574703,0.9236698   c-0.4367695,0.6597996,1.7471294,3.4309998,0.7279587,4.4867001c-1.0191593,1.0556011-3.2030582,1.5834999-2.47509,1.8474007   c0.7279606,0.2638988,1.1647911,3.2989998,1.0191612,4.0906982c-0.0893497,0.4861031,2.1732788,3.4575996,3.3188496,4.5262032   c-0.3184795,0.680397-0.0714703,2.7901001-0.195919,3.4125977C21.5,42,20.8333092,40.6665993,20,41.6665993s-2,1.25-4,0.5834007   c-2-0.6666985-1.3333702-2.1666985-3-2.6666985c-1.666687-0.5-0.875-1.875,1.125-1.7083015   C16.1249409,38.0415993,14,36.1665993,16.3333092,34c2.3333817-2.1667004-1.1666193-0.8334007-2.999999-0.3334007   C11.5,34.1665993,11.166687,32.5,12.5,32c1.3333101-0.5,4.1666908-3.1667004,2.3333101-2.3334007   c-1.8333101,0.8334007-1.9999971-2.5-0.5-3.8332996C15.8333101,24.5,15.5,21.1666298,14.5,21.5   c-1,0.3333092-3.6666298-1.1666908-5,0c-1.3333101,1.1665993,0,1.8332996-0.5,2.8332996s-0.8333101-0.8332996-1.8333101,1   s1,5.5-0.6666899,6.1667004c-1.6666298,0.6665993-2.3333101-4.1667004-2.3333101-5.8334007   C4.1666899,24,5.8333702,22.8332996,6.5,21.1666298c0.5255098-1.3136597,2.8569298-4.6893997,3.8234901-6.0640898   c0.0037794,0.31915,0.0601196,0.6760197,0.1765099,1.0640898c0.5,1.6666794,2.5,1.5,3.3333101,1.1666794   c0.8333797-0.3333092,2.999999-1.6666794,2.499999,0.3333206c-0.499999,2,2.5,1,4.1666908-1   c1.6667004-2-1.1666908-2.8333197,0.6666908-4.1666298c1.8333092-1.333313,2.6666088-1,2.6666088-1.8333101   c0-0.8333797-1.8332996-0.5-0.5-1.5c1.3334007-1-1.1665993-1.5-1.9999905-1.1666899c0,0-2.6666183,1-3.6666183,1.8333101   c-1,0.8333797-3.500001,4.5-5.3333778,4c-1.0397339-0.2835703-1.6372728-0.0192804-1.8800631,0.5564003   C9.7512197,14.3203096,7.7571998,15.11584,4,23.6665993c-4.8333001,11,0.875,21.9584007,3.6666899,25.5   C8.9879799,50.8428001,9.5,49.5,11.333374,52.5C13.1666899,55.5,16,54.3333015,14.5,53.5   c-1.5-0.8334007-1.833313-2.8334007-1-3.1666985C14.3333101,50,16.3333092,51.6665993,16.8333092,51.1665993   s-1.999999-2-0.6666183-2.3332977C17.5,48.5,22.1667004,52.1665993,20.1666908,52c-2-0.1666985,0.3333092,3,2.3333092,4.6665993   C24.5,58.3333015,27.1667004,57,26.5,56.5s-1-2.6666985,0.1667004-3c1.1665993-0.3334007,0.5,2.1665993,2,2.3333015   c1.5,0.1666985,3.1665993-0.6667023,2.3332996-1c-0.8332996-0.3333015-1.5-1.3333015-1.3332996-2   C29.8332996,52.1665993,31.5,52.5,32.5,51.6665993C33.5,50.8333015,32.6666985,51,33.5,50s0-3.9166985-1.0833015-4   c-1.0833988-0.0834007-1.0833988-1.0834007-0.7499981-2.5834007C32,41.9165993,30.25,41.75,29.8332996,42.0833015   c-0.4165993,0.3332977-2,0.1666985-2.6665993-0.3333015C26.5,41.25,27.0832996,40.5833015,25.5832996,40.5   c-1.4904995-0.0828018-2.8171997-2.5429993-3.157999-2.8237c-0.0972004-0.276001-0.2838001-0.6819-0.5919914-1.2597008   c-0.5138493-0.963501,2.825491,1.5618019,2.9709911,0.6380997c0.1457005-0.9236984-1.3103008-3.035099-1.3103008-3.4309998   s2.3295002-0.2639008,3.0575008-1.3195992c0.7278996-1.0555992-1.4559994-1.3195-1.4559994-0.6597996   c0,0.6597996-2.6206017,0.9237995-3.7854404,0.5278988c-1.1647396-0.3958988-0.8735409-2.2432995,0.1456299-3.6948986   c1.0192089-1.4514999,1.1647091,1.7154999,1.7471104,1.0557003c0.5823994-0.6598015,0.8736-1.3196011,1.4559994-1.3196011   c0.5823002,0,1.7470989-0.9237003,1.3103008-2.3752995c-0.4368-1.451601,1.6014996-2.2432995,2.4750996-2.771101   c0.8734989-0.5278988,0.7279987,3.0351009,2.1838989,3.4309006c1.4559002,0.3959007,3.3486996-0.3957996,4.3678989,0.2639008   c1.0191002,0.6597996,0.2912025,2.9030991-0.1456985,3.4309998c-0.4366989,0.5277996,2.0383987,0.6597996,3.6399002,0   c1.516201-0.6246014,1.4678993,1.2313995,2.1994019,1.4314995c0.3632965,0.5091,1.0709991,1.2970982,1.9770966,1.7090015   c1.8333015,0.8332977,0.25,1.75,0.8333015,1.5S47.3333015,38,48.25,37.9165993   c0.9166985-0.0832977,0.5-1.4165993,1.0833015-1.8332977c0.5833969-0.4167023,1.25,0.5,1.5,0.25s-1.3333015-1.75-1.6666031-2   c-0.3333969-0.25,0.5833015-0.75-0.4166985-1.0833015c-1-0.3334007-1.75-0.6666985-3.0833015-1.3334007   c-1.3333969-0.6665993-1.5,0.4167023-1.5,1.0834007c0,0.6665993-3.3468971-1.3556995-3.3468971-1.3556995   c0.873497,0,0.2911987-1.5834007,0.2911987-2.3753014c0-0.7916985-3.0574989-6.2019997-1.6016006-5.8062   c1.4559021,0.3959007,2.0382996-1.4514999,2.3295021-2.3752098c0.2085991-0.6617489-0.4749031-1.5233784-0.8819008-2.2033691   c0.7103996,0.37677,1.6436005,0.9323101,1.2425003,2.4842491c-0.4123001,1.5947304,0.9844971,2.9633312,2.0268974,3.1789303   c1.0424004,0.2154999,0.4633026,1.8318996,0.5791016,2.9633999s3.3008995,1.2932014,3.4747009,0.9160004   c0.1736984-0.3771992,0.7528-0.8081989,1.1002998-0.8621006c0.3474998-0.0538998,0.637001,1.9936008,0.3474998,2.4785004   c-0.2896004,0.4848995-0.3474998,1.8858013,0.8107986,1.5086002c1.1581993-0.3771,2.1427002,0.1077995,2.8376007-0.4848995   c0.6949997-0.592701-0.115799-0.8621006,1.2741013-2.155201C56.0402985,27.6186008,56.1562004,25.3017006,54.8241997,24.0086002z    M10.81738,43.6568985c-0.7481098-0.6343994-1.5162897-3.2315979-2.9419498-3.6478996   c-0.3457699-0.1008987-0.2301102-1.3480988,0.33319-0.6543007c0.5633497,0.6939011,1.3937998,0.3172035,1.7723398,1.0705032   C10.3594398,41.1786003,11.5654907,44.2913017,10.81738,43.6568985z M24.75,48.875c0.625,1,0,1.25-1.375,0.125   C23.375,49,24.125,47.875,24.75,48.875z M21.875,43.375C20.875,44,21,45.75,20,46s-5,0.625-4-0.375s4.25-0.875,5.25-3.25   C21.4925499,41.7989998,22.875,42.75,21.875,43.375z M26.7350998,23.2078991   c-1.1385994,0.3070011-1.1959-0.363699,0.2805004-1.3518791C27.0156002,21.85602,27.8736992,22.9008999,26.7350998,23.2078991z"
       id="path24" /><path
       style="fill:#B3B3A5;"
       d="M52.3333015,15.9166298C53.5,15.5,52.25,15.5,52.4166985,14.6666298   c0.1666031-0.8333197,0.3333015-0.8333197-0.5833969-1.3333197c0,0-0.25,1.0833197-0.5833015,0.9166899   c-0.3333015-0.1666899-1.5833015,0.25-2.1666985,0.6666298C48.5,15.3333101,51.1666985,16.3333092,52.3333015,15.9166298z"
       id="path26" /></g><g
     id="g28"><linearGradient
       id="SVGID_2_"
       gradientUnits="userSpaceOnUse"
       x1="36.4628983"
       y1="26.3211994"
       x2="36.4628983"
       y2="26.3211994"><stop
         offset="0.105505"
         style="stop-color:#40210F;stop-opacity:0.6"
         id="stop31" /><stop
         offset="1"
         style="stop-color:#40210F;stop-opacity:0"
         id="stop33" /></linearGradient><path
       style="fill:url(#SVGID_2_);"
       d="M36.4628983,26.3211994"
       id="path35" /><g
       id="g37"><linearGradient
         id="SVGID_3_"
         gradientUnits="userSpaceOnUse"
         x1="42.7451515"
         y1="25.3266201"
         x2="42.7451515"
         y2="28.5176983"><stop
           offset="0"
           style="stop-color:#B3B3A4"
           id="stop40" /><stop
           offset="0.1110269"
           style="stop-color:#C1C1B5"
           id="stop42" /><stop
           offset="0.3077993"
           style="stop-color:#D4D4CE"
           id="stop44" /><stop
           offset="0.5147999"
           style="stop-color:#E2E2DF"
           id="stop46" /><stop
           offset="0.7367548"
           style="stop-color:#EAEAEA"
           id="stop48" /><stop
           offset="1"
           style="stop-color:#EDEDED"
           id="stop50" /></linearGradient><path
         style="fill:url(#SVGID_3_);"
         d="M39.8195,25.9006996c-0.9132996,0.5074005-1.6577988,1.2942009-1.6577988,1.2942009    c5.0396004,2.545599,9.1669006,0.6337986,9.1669006,0.6337986C44.5887985,24.2770996,40.7327003,25.3932991,39.8195,25.9006996z"
         id="path52" /><radialGradient
         id="SVGID_4_"
         cx="42.7451515"
         cy="26.9221592"
         r="2.2659473"
         gradientUnits="userSpaceOnUse"><stop
           offset="0.288991"
           style="stop-color:#454540"
           id="stop55" /><stop
           offset="0.3302926"
           style="stop-color:#394D56"
           id="stop57" /><stop
           offset="0.4063814"
           style="stop-color:#255978"
           id="stop59" /><stop
           offset="0.48405"
           style="stop-color:#166293"
           id="stop61" /><stop
           offset="0.5629196"
           style="stop-color:#0C69A6"
           id="stop63" /><stop
           offset="0.6437209"
           style="stop-color:#056DB1"
           id="stop65" /><stop
           offset="0.729358"
           style="stop-color:#036EB5"
           id="stop67" /><stop
           offset="0.7801223"
           style="stop-color:#056DB2"
           id="stop69" /><stop
           offset="0.8160571"
           style="stop-color:#0A6AA9"
           id="stop71" /><stop
           offset="0.8474197"
           style="stop-color:#136499"
           id="stop73" /><stop
           offset="0.8761619"
           style="stop-color:#1F5D83"
           id="stop75" /><stop
           offset="0.9031214"
           style="stop-color:#2F5367"
           id="stop77" /><stop
           offset="0.928414"
           style="stop-color:#434644"
           id="stop79" /><stop
           offset="0.931193"
           style="stop-color:#454540"
           id="stop81" /><stop
           offset="1"
           style="stop-color:#454540;stop-opacity:0"
           id="stop83" /></radialGradient><path
         style="fill:url(#SVGID_4_);"
         d="M39.8195,25.9006996c-0.9132996,0.5074005-1.6577988,1.2942009-1.6577988,1.2942009    c5.0396004,2.545599,9.1669006,0.6337986,9.1669006,0.6337986C44.5887985,24.2770996,40.7327003,25.3932991,39.8195,25.9006996z"
         id="path85" /></g><path
       style="fill:#454540;"
       d="M44.7436981,29.2618999c0.8300018-0.1210003,1.6079025-0.3693008,2.2650032-0.7852001   c0.8778-0.2161007,1.3737984-0.4429989,1.3737984-0.4429989c-3.3316994-4.3189011-8.0209007-2.9616013-9.1312981-2.3446007   c-0.9628029,0.5349998-1.4850006,0.797699-1.8106003,0.9615002c-0.0513-0.0628014,0.7711983-0.5365009,1.9769974-1.2901001   c1.4807014-0.9253998,6.4166031-1.6041012,8.9462013,2.1595001c0,0-0.802002-2.2212009-3.9487-2.9616013   c-3.1465988-0.7402992-5.0284004,0.6123009-5.6762009,0.9255009c-1.3642998,0.6597996-2.0863991,0.9120007-2.7959976,0.3554993   c-0.7095032-0.5565987-0.4368019-1.102499-0.3040009-1.5785999c1.0352974-0.6828995,2.4158974-2.3603802,5.2129974-4.9945488   c2.8567009-2.690361,7.4884033-0.7488804,7.4884033-0.7488804C44.7901993,12.9704523,39.6039009,17.0474491,36.8027,19.62677   c-2.5457993,2.3439808-2.7064018,2.9529305-2.7064018,4.6659298c0,1.7131004,2.3250999,2.6907005,2.5539017,2.8362999   c2.2419014,1.1130009,4.3092995,1.5646,6.0714989,1.6872997c-1.5075989,0.0584011-3.2445984-0.0168991-5.031498-0.3976002   c0,0,1.8465996,0.6206017,4.0363007,0.8544998c0.5872993,0.2025013,1.5584984,0.578701,1.0390968,0.6985016   c-0.7210999,0.166399-2.3851967-0.2217999-2.3851967-0.2217999s1.0332985,0.4435997,2.0461998,0.7399998   c-0.7980995-0.0596008-1.3805008-0.1299-1.3805008-0.1299c2.7734985,1.4421997,4.9921989,0.110899,4.9921989,0.110899   c-0.2598,0.0382004-0.544899,0.0618-0.8396988,0.0775013c0.2645988-0.1260014,0.5734978-0.3436012,1.0615997-0.7431011   c0,0-0.8542023,0.1903-0.9966011-0.0774002c0.7047997-0.0600986,1.4487991-0.2460003,2.1613998-0.6991005   C47.4249992,29.0287991,46.0852013,29.1557999,44.7436981,29.2618999z M38.1617012,27.1949005   c0,0,0.7444992-0.7868004,1.6577988-1.2942009c0.9132004-0.5074005,4.7692986-1.6236,7.5091019,1.9279995   C47.3286018,27.8286991,43.2013016,29.7404995,38.1617012,27.1949005z"
       id="path87" /><g
       id="g89"><linearGradient
         id="SVGID_5_"
         gradientUnits="userSpaceOnUse"
         x1="34.8670197"
         y1="23.8544292"
         x2="47.3695984"
         y2="23.8544292"><stop
           offset="0.133028"
           style="stop-color:#454540"
           id="stop92" /><stop
           offset="0.816514"
           style="stop-color:#454540;stop-opacity:0"
           id="stop94" /></linearGradient><path
         style="fill:url(#SVGID_5_);"
         d="M36.3866997,26.4771996c0,0,5.5469017-6.5453186,10.9828987-2.8843994    c0,0-4.1046982-4.6593704-10.3172989-0.8875008C37.0522995,22.7052994,32.6147995,23.4818993,36.3866997,26.4771996z"
         id="path96" /><linearGradient
         id="SVGID_6_"
         gradientUnits="userSpaceOnUse"
         x1="36.3866997"
         y1="28.9733505"
         x2="48.2015991"
         y2="28.9733505"><stop
           offset="0"
           style="stop-color:#454540;stop-opacity:0"
           id="stop99" /><stop
           offset="0.610092"
           style="stop-color:#454540"
           id="stop101" /><stop
           offset="1"
           style="stop-color:#454540;stop-opacity:0"
           id="stop103" /></linearGradient><path
         style="fill:url(#SVGID_6_);"
         d="M36.3866997,26.9209995c0,0,2.7733994,4.1047001,7.2109985,4.1047001    c3.2727013,0,4.6039009-2.9398003,4.6039009-2.9398003S43.9305,29.8609009,36.3866997,26.9209995z"
         id="path105" /></g><path
       style="fill:#454540;"
       d="M35.790699,33.6190987c0,0,3.2649002,4.3034019,6.3376999,6.4550018   c3.0727997,2.1516991,3.0727997,4.1077995,3.0727997,4.1077995S44.625,40.6609001,40.5919991,37.726799   C36.5588989,34.7928009,35.790699,33.6190987,35.790699,33.6190987z"
       id="path107" /><linearGradient
       id="SVGID_7_"
       gradientUnits="userSpaceOnUse"
       x1="33.3409348"
       y1="31.5324554"
       x2="38.4553986"
       y2="31.5324554"><stop
         offset="0"
         style="stop-color:#454540;stop-opacity:0.3"
         id="stop110" /><stop
         offset="1"
         style="stop-color:#454540;stop-opacity:0"
         id="stop112" /></linearGradient><path
       style="fill:url(#SVGID_7_);"
       d="M34.3502998,24.8568001c0,0-1.049099,3.9442005-1.0082016,6.7698002   c0.0365028,2.5282001,1.1323013,3.9022999,1.6084023,4.9452991c0.2849998,0.6241989,0.9319992,1.0888023,0.6241989,1.8725014   c-0.3526001,0.8974991-0.8642998,0.8162003-0.8642998,0.8162003c1.5124016,0.1439972,2.6954994-1.849102,2.976799-2.6887016   c0.2801018-0.8360977-0.3360977-1.0083008-1.4883995-2.592701c-1.7763977-2.2085991-0.0480003-7.5212994,2.2565994-6.2415981   c0,0-2.6646996-1.4304008-2.6646996-2.8808002C35.790699,23.4064999,35.6327019,23.4811993,34.3502998,24.8568001z"
       id="path114" /><linearGradient
       id="SVGID_8_"
       gradientUnits="userSpaceOnUse"
       x1="33.2700996"
       y1="24.1719875"
       x2="34.6908112"
       y2="24.1719875"><stop
         offset="0"
         style="stop-color:#454540;stop-opacity:0.3"
         id="stop117" /><stop
         offset="1"
         style="stop-color:#454540;stop-opacity:0"
         id="stop119" /></linearGradient><path
       style="fill:url(#SVGID_8_);"
       d="M33.2700996,25.3610001c0,0,0.7201004-0.3600998,0.8642006-1.8724995   C34.2937012,21.8147697,35.7187004,24.7847996,33.2700996,25.3610001z"
       id="path121" /><linearGradient
       id="SVGID_9_"
       gradientUnits="userSpaceOnUse"
       x1="46.1613998"
       y1="41.8532486"
       x2="48.3105202"
       y2="41.8532486"><stop
         offset="0"
         style="stop-color:#454540;stop-opacity:0.3"
         id="stop124" /><stop
         offset="1"
         style="stop-color:#454540;stop-opacity:0"
         id="stop126" /></linearGradient><path
       style="fill:url(#SVGID_9_);"
       d="M46.1613998,38.9005013c0,0,2.3045998,4.0329971,1.1523018,5.9054985   C47.3137016,44.8059998,50.1945,42.7895012,46.1613998,38.9005013z"
       id="path128" /><linearGradient
       id="SVGID_10_"
       gradientUnits="userSpaceOnUse"
       x1="36.5108986"
       y1="48.6241684"
       x2="46.5934982"
       y2="48.6241684"><stop
         offset="0"
         style="stop-color:#454540;stop-opacity:0.3"
         id="stop131" /><stop
         offset="1"
         style="stop-color:#454540;stop-opacity:0"
         id="stop133" /></linearGradient><path
       style="fill:url(#SVGID_10_);"
       d="M42.5605011,46.8224983c0,0,2.592598,0.3600998-0.7201996,2.9528008   c-3.3129005,2.592701-5.3294029,1.2243004-5.3294029,1.2243004s2.088501,1.9445,6.1935997-1.296299   c3.170002-2.5026016,3.8889999-4.0331001,3.8889999-4.0331001s-1.4403992,1.152298-2.448597,0.8642998   c-1.0083008-0.2881012-0.2881012-0.7201996-0.2881012-0.7201996L42.5605011,46.8224983z"
       id="path135" /><linearGradient
       id="SVGID_11_"
       gradientUnits="userSpaceOnUse"
       x1="34.8544998"
       y1="49.7348099"
       x2="40.6160011"
       y2="49.7348099"><stop
         offset="0"
         style="stop-color:#454540;stop-opacity:0.3"
         id="stop138" /><stop
         offset="1"
         style="stop-color:#454540;stop-opacity:0"
         id="stop140" /></linearGradient><path
       style="fill:url(#SVGID_11_);"
       d="M40.6160011,48.6230011c0,0-2.9528008,1.800499-3.9611015,1.800499   c-1.0081978,0-1.8003998-0.2160988-1.8003998-0.2160988s1.5124016,1.0802994,2.8806992,0.4320984   C39.1035995,49.9914017,40.6160011,48.6230011,40.6160011,48.6230011z"
       id="path142" /><linearGradient
       id="SVGID_12_"
       gradientUnits="userSpaceOnUse"
       x1="48.2019005"
       y1="18.6086845"
       x2="52.1907883"
       y2="18.6086845"><stop
         offset="0"
         style="stop-color:#454540;stop-opacity:0.3"
         id="stop145" /><stop
         offset="1"
         style="stop-color:#454540;stop-opacity:0"
         id="stop147" /></linearGradient><path
       style="fill:url(#SVGID_12_);"
       d="M48.2019005,16.7187309c0,0,0.9603004,3.0727997,2.6886978,3.6489487   C52.6190987,20.9438305,53.3872986,19.5994797,48.2019005,16.7187309z"
       id="path149" /><linearGradient
       id="SVGID_13_"
       gradientUnits="userSpaceOnUse"
       x1="46.9884987"
       y1="39.83675"
       x2="51.7818298"
       y2="39.83675"><stop
         offset="0"
         style="stop-color:#454540;stop-opacity:0.3"
         id="stop152" /><stop
         offset="1"
         style="stop-color:#454540;stop-opacity:0"
         id="stop154" /></linearGradient><path
       style="fill:url(#SVGID_13_);"
       d="M46.9884987,35.8757019c0,0,6.0867004,6.0495987,3.3500023,7.9220963   C50.338501,43.7977982,55.2358017,41.6371994,46.9884987,35.8757019z"
       id="path156" /><linearGradient
       id="SVGID_14_"
       gradientUnits="userSpaceOnUse"
       x1="49.9063988"
       y1="27.9378319"
       x2="52.8214912"
       y2="27.9378319"><stop
         offset="0"
         style="stop-color:#454540;stop-opacity:0.3"
         id="stop159" /><stop
         offset="1"
         style="stop-color:#454540;stop-opacity:0"
         id="stop161" /></linearGradient><path
       style="fill:url(#SVGID_14_);"
       d="M49.9063988,28.2416992c0,0,1.8725014,0,2.4486008-0.7201996   C52.9311981,26.8013,53.6512985,29.25,49.9063988,28.2416992z"
       id="path163" /><linearGradient
       id="SVGID_15_"
       gradientUnits="userSpaceOnUse"
       x1="49.0161018"
       y1="25.5564003"
       x2="47.3695984"
       y2="25.5564003"><stop
         offset="0"
         style="stop-color:#454540;stop-opacity:0.3"
         id="stop166" /><stop
         offset="1"
         style="stop-color:#454540;stop-opacity:0"
         id="stop168" /></linearGradient><path
       style="fill:url(#SVGID_15_);"
       d="M47.3695984,23.5928001c0,0,2.9085007,1.8610992,0.9942017,3.9272003   C48.3638,27.5200005,48.4818001,25.4736996,47.3695984,23.5928001z"
       id="path170" /><linearGradient
       id="SVGID_16_"
       gradientUnits="userSpaceOnUse"
       x1="53.8378983"
       y1="26.3211994"
       x2="53.8378983"
       y2="26.3211994"
       gradientTransform="matrix(-1 0 0 1 81.4048004 0)"><stop
         offset="0.105505"
         style="stop-color:#40210F;stop-opacity:0.6"
         id="stop173" /><stop
         offset="1"
         style="stop-color:#40210F;stop-opacity:0"
         id="stop175" /></linearGradient><path
       style="fill:url(#SVGID_16_);"
       d="M27.5669003,26.3211994"
       id="path177" /><g
       id="g179"><linearGradient
         id="SVGID_17_"
         gradientUnits="userSpaceOnUse"
         x1="60.1201439"
         y1="25.3266201"
         x2="60.1201439"
         y2="28.5176983"
         gradientTransform="matrix(-1 0 0 1 81.4048004 0)"><stop
           offset="0"
           style="stop-color:#B3B3A4"
           id="stop182" /><stop
           offset="0.1110269"
           style="stop-color:#C1C1B5"
           id="stop184" /><stop
           offset="0.3077993"
           style="stop-color:#D4D4CE"
           id="stop186" /><stop
           offset="0.5147999"
           style="stop-color:#E2E2DF"
           id="stop188" /><stop
           offset="0.7367548"
           style="stop-color:#EAEAEA"
           id="stop190" /><stop
           offset="1"
           style="stop-color:#EDEDED"
           id="stop192" /></linearGradient><path
         style="fill:url(#SVGID_17_);"
         d="M24.2103996,25.9006996c0.9132004,0.5074005,1.6576996,1.2942009,1.6576996,1.2942009    c-5.0395298,2.545599-9.1668892,0.6337986-9.1668892,0.6337986    C19.4410095,24.2770996,23.2971001,25.3932991,24.2103996,25.9006996z"
         id="path194" /><radialGradient
         id="SVGID_18_"
         cx="60.1201439"
         cy="26.9221592"
         r="2.2659452"
         gradientTransform="matrix(-1 0 0 1 81.4048004 0)"
         gradientUnits="userSpaceOnUse"><stop
           offset="0.288991"
           style="stop-color:#454540"
           id="stop197" /><stop
           offset="0.3302926"
           style="stop-color:#394D56"
           id="stop199" /><stop
           offset="0.4063814"
           style="stop-color:#255978"
           id="stop201" /><stop
           offset="0.48405"
           style="stop-color:#166293"
           id="stop203" /><stop
           offset="0.5629196"
           style="stop-color:#0C69A6"
           id="stop205" /><stop
           offset="0.6437209"
           style="stop-color:#056DB1"
           id="stop207" /><stop
           offset="0.729358"
           style="stop-color:#036EB5"
           id="stop209" /><stop
           offset="0.7801223"
           style="stop-color:#056DB2"
           id="stop211" /><stop
           offset="0.8160571"
           style="stop-color:#0A6AA9"
           id="stop213" /><stop
           offset="0.8474197"
           style="stop-color:#136499"
           id="stop215" /><stop
           offset="0.8761619"
           style="stop-color:#1F5D83"
           id="stop217" /><stop
           offset="0.9031214"
           style="stop-color:#2F5367"
           id="stop219" /><stop
           offset="0.928414"
           style="stop-color:#434644"
           id="stop221" /><stop
           offset="0.931193"
           style="stop-color:#454540"
           id="stop223" /><stop
           offset="1"
           style="stop-color:#454540;stop-opacity:0"
           id="stop225" /></radialGradient><path
         style="fill:url(#SVGID_18_);"
         d="M24.2103996,25.9006996c0.9132004,0.5074005,1.6576996,1.2942009,1.6576996,1.2942009    c-5.0395298,2.545599-9.1668892,0.6337986-9.1668892,0.6337986    C19.4410095,24.2770996,23.2971001,25.3932991,24.2103996,25.9006996z"
         id="path227" /></g><path
       style="fill:#454540;"
       d="M16.6047897,29.0287991c0.7126598,0.4531002,1.4566212,0.6390018,2.1614704,0.6991005   c-0.1424198,0.2677002-0.9966602,0.0774002-0.9966602,0.0774002c0.4881706,0.3994999,0.79706,0.6170998,1.0615807,0.7431011   c-0.2947598-0.0157013-0.5798798-0.0393009-0.8396797-0.0775013c0,0,2.2187195,1.3313007,4.9921989-0.110899   c0,0-0.5823994,0.0702991-1.3804398,0.1299c1.0128403-0.2964001,2.0461407-0.7399998,2.0461407-0.7399998   s-1.6641006,0.3881989-2.3852005,0.2217999c-0.5193901-0.1198006,0.4517994-0.4960003,1.0391006-0.6985016   c2.1896992-0.2338982,4.0362988-0.8544998,4.0362988-0.8544998c-1.7868996,0.3807011-3.5238991,0.4560013-5.0314503,0.3976002   c1.7622509-0.1226997,3.8295498-0.5742989,6.0715504-1.6872997c0.2287998-0.1455994,2.5538006-1.1231995,2.5538006-2.8362999   c0-1.7129993-0.1606007-2.321949-2.7063999-4.6659298c-2.8012009-2.5793209-7.9875107-6.6563177-11.5376005-1.1093998   c0,0,4.6316996-1.9414806,7.4884005,0.7488804c2.7971001,2.6341686,4.1777,4.3116493,5.2131004,4.9945488   c0.1327,0.4761009,0.4053993,1.0220013-0.3041,1.5785999c-0.7096004,0.5565014-1.4317017,0.3043003-2.7960014-0.3554993   c-0.6476994-0.3132-2.5296001-1.6658001-5.6761684-0.9255009c-3.1466713,0.7404003-3.9487209,2.9616013-3.9487209,2.9616013   c2.5295906-3.7636013,7.4654903-3.0848999,8.9461899-2.1595001c1.205801,0.7535992,2.0282993,1.2272987,1.9769993,1.2901001   c-0.3254986-0.1638012-0.8477993-0.4265003-1.8105984-0.9615002c-1.1104012-0.6170006-5.7995911-1.9743004-9.1312304,2.3446007   c0,0,0.4959097,0.2268982,1.3737001,0.4429989c0.6570988,0.4158993,1.4350986,0.6641998,2.2650089,0.7852001   C17.9445896,29.1557999,16.6047897,29.0287991,16.6047897,29.0287991z M16.70121,27.8286991   c2.7397995-3.5515995,6.59589-2.4354,7.5091896-1.9279995c0.9132004,0.5074005,1.6576996,1.2942009,1.6576996,1.2942009   C20.8285694,29.7404995,16.70121,27.8286991,16.70121,27.8286991z"
       id="path229" /><g
       id="g231"><linearGradient
         id="SVGID_19_"
         gradientUnits="userSpaceOnUse"
         x1="52.2420197"
         y1="23.8544292"
         x2="64.7445679"
         y2="23.8544292"
         gradientTransform="matrix(-1 0 0 1 81.4048004 0)"><stop
           offset="0.133028"
           style="stop-color:#454540"
           id="stop234" /><stop
           offset="0.816514"
           style="stop-color:#454540;stop-opacity:0"
           id="stop236" /></linearGradient><path
         style="fill:url(#SVGID_19_);"
         d="M27.6431007,26.4771996c0,0-5.5468998-6.5453186-10.9828701-2.8843994    c0,0,4.1047192-4.6593704,10.3172703-0.8875008C26.9775009,22.7052994,31.4150009,23.4818993,27.6431007,26.4771996z"
         id="path238" /><linearGradient
         id="SVGID_20_"
         gradientUnits="userSpaceOnUse"
         x1="53.7616997"
         y1="28.9733505"
         x2="65.5766068"
         y2="28.9733505"
         gradientTransform="matrix(-1 0 0 1 81.4048004 0)"><stop
           offset="0"
           style="stop-color:#454540;stop-opacity:0"
           id="stop241" /><stop
           offset="0.610092"
           style="stop-color:#454540"
           id="stop243" /><stop
           offset="1"
           style="stop-color:#454540;stop-opacity:0"
           id="stop245" /></linearGradient><path
         style="fill:url(#SVGID_20_);"
         d="M27.6431007,26.9209995c0,0-2.7734013,4.1047001-7.2109604,4.1047001    c-3.2726898,0-4.6039505-2.9398003-4.6039505-2.9398003S20.0993195,29.8609009,27.6431007,26.9209995z"
         id="path247" /></g><path
       style="fill:#454540;"
       d="M28.2390995,33.6190987c0,0-3.2647991,4.3034019-6.3376389,6.4550018   C18.8286705,42.2257996,18.8286705,44.1819,18.8286705,44.1819s0.576149-3.5209999,4.60923-6.455101   C27.4708996,34.7928009,28.2390995,33.6190987,28.2390995,33.6190987z"
       id="path249" /><path
       style="fill:#454540;"
       d="M35.790699,44.1818008c-3.5221977-1.9761009-3.7757988,0-3.7757988,0s-0.2535-1.9761009-3.7758007,0   c-7.2738991,4.0811005-8.6422501,0.9603004-8.6422501,0.9603004c0.38414,2.8806992,12.4180508,1.7884979,12.4180508,1.7884979   s12.0340004,1.0922012,12.4180984-1.7884979C44.4329987,45.1421013,43.0646019,48.2629013,35.790699,44.1818008z"
       id="path251" /><path
       style="fill:#454540;"
       d="M32.0149002,47.1825981c0,0-8.3850002,0.792202-10.5455704-0.3600998   c0,0,2.1605701,2.8808022,5.4734707,3.0248032c2.0164986,0,2.9835987-0.8642006,5.0720997-0.8642006   c2.0886002,0,3.0555992,0.8642006,5.0721016,0.8642006c3.3128967-0.144001,5.4734993-3.0248032,5.4734993-3.0248032   C40.3998985,47.9748001,32.0149002,47.1825981,32.0149002,47.1825981z"
       id="path253" /><path
       style="fill:#454540;"
       d="M34.8544998,36.3437996c0,0,1.5484009,2.6646996-0.2341003,2.6646996   c-0.2881012,0-0.4141006-0.1079979-1.0382996-0.1079979c-0.4740982,0-0.5588989,0.5760994-1.5671997,0.5760994   c-1.0081997,0-1.0930996-0.5760994-1.5671997-0.5760994c-0.6242008,0-0.7502003,0.1079979-1.0382996,0.1079979   c-1.7825012,0-0.2341003-2.6646996-0.2341003-2.6646996c-1.4043007,1.4043999-1.1703014,3.0607986,0.2880993,3.0607986   c0.4141006,0,0.6121998-0.0359993,0.8763008-0.0359993c0.7200985,0,0.7148991,0.5881004,1.6751995,0.5881004   s0.955101-0.5881004,1.6752014-0.5881004c0.2640991,0,0.4622002,0.0359993,0.876297,0.0359993   C36.0247993,39.4045982,36.2588005,37.7481995,34.8544998,36.3437996z"
       id="path255" /><linearGradient
       id="SVGID_21_"
       gradientUnits="userSpaceOnUse"
       x1="50.7159348"
       y1="31.5324554"
       x2="55.8303986"
       y2="31.5324554"
       gradientTransform="matrix(-1 0 0 1 81.4048004 0)"><stop
         offset="0"
         style="stop-color:#454540;stop-opacity:0.3"
         id="stop258" /><stop
         offset="1"
         style="stop-color:#454540;stop-opacity:0"
         id="stop260" /></linearGradient><path
       style="fill:url(#SVGID_21_);"
       d="M29.6795006,24.8568001c0,0,1.049099,3.9442005,1.0081997,6.7698002   c-0.0365009,2.5282001-1.1322002,3.9022999-1.6084003,4.9452991c-0.2849007,0.6241989-0.9319992,1.0888023-0.6240997,1.8725014   c0.3526001,0.8974991,0.8642006,0.8162003,0.8642006,0.8162003c-1.5124016,0.1439972-2.6955013-1.849102-2.9768009-2.6887016   c-0.2800999-0.8360977,0.3360996-1.0083008,1.4883995-2.592701c1.7765007-2.2085991,0.0480003-7.5212994-2.2565994-6.2415981   c0,0,2.6646996-1.4304008,2.6646996-2.8808002C28.2390995,23.4064999,28.3971004,23.4811993,29.6795006,24.8568001z"
       id="path262" /><linearGradient
       id="SVGID_22_"
       gradientUnits="userSpaceOnUse"
       x1="50.6450005"
       y1="24.1719875"
       x2="52.0657959"
       y2="24.1719875"
       gradientTransform="matrix(-1 0 0 1 81.4048004 0)"><stop
         offset="0"
         style="stop-color:#454540;stop-opacity:0.3"
         id="stop265" /><stop
         offset="1"
         style="stop-color:#454540;stop-opacity:0"
         id="stop267" /></linearGradient><path
       style="fill:url(#SVGID_22_);"
       d="M30.7598,25.3610001c0,0-0.7201996-0.3600998-0.8642998-1.8724995   C29.7360992,21.8147697,28.3111,24.7847996,30.7598,25.3610001z"
       id="path269" /><linearGradient
       id="SVGID_23_"
       gradientUnits="userSpaceOnUse"
       x1="63.5363808"
       y1="41.8532486"
       x2="65.6854782"
       y2="41.8532486"
       gradientTransform="matrix(-1 0 0 1 81.4048004 0)"><stop
         offset="0"
         style="stop-color:#454540;stop-opacity:0.3"
         id="stop272" /><stop
         offset="1"
         style="stop-color:#454540;stop-opacity:0"
         id="stop274" /></linearGradient><path
       style="fill:url(#SVGID_23_);"
       d="M17.8684196,38.9005013c0,0-2.3045998,4.0329971-1.1522999,5.9054985   C16.7161198,44.8059998,13.8353701,42.7895012,17.8684196,38.9005013z"
       id="path276" /><linearGradient
       id="SVGID_24_"
       gradientUnits="userSpaceOnUse"
       x1="53.8858986"
       y1="48.6241684"
       x2="63.9684906"
       y2="48.6241684"
       gradientTransform="matrix(-1 0 0 1 81.4048004 0)"><stop
         offset="0"
         style="stop-color:#454540;stop-opacity:0.3"
         id="stop279" /><stop
         offset="1"
         style="stop-color:#454540;stop-opacity:0"
         id="stop281" /></linearGradient><path
       style="fill:url(#SVGID_24_);"
       d="M21.4693508,46.8224983c0,0-2.5926704,0.3600998,0.72015,2.9528008   c3.3128986,2.592701,5.3293991,1.2243004,5.3293991,1.2243004s-2.0884991,1.9445-6.1935806-1.296299   c-3.1700096-2.5026016-3.8890095-4.0331001-3.8890095-4.0331001s1.4403706,1.152298,2.4486294,0.8642998   c1.0082607-0.2881012,0.2880802-0.7201996,0.2880802-0.7201996L21.4693508,46.8224983z"
       id="path283" /><linearGradient
       id="SVGID_25_"
       gradientUnits="userSpaceOnUse"
       x1="52.2294006"
       y1="49.7348099"
       x2="57.9908981"
       y2="49.7348099"
       gradientTransform="matrix(-1 0 0 1 81.4048004 0)"><stop
         offset="0"
         style="stop-color:#454540;stop-opacity:0.3"
         id="stop286" /><stop
         offset="1"
         style="stop-color:#454540;stop-opacity:0"
         id="stop288" /></linearGradient><path
       style="fill:url(#SVGID_25_);"
       d="M23.4139004,48.6230011c0,0,2.9526997,1.800499,3.9610004,1.800499   c1.0081997,0,1.800499-0.2160988,1.800499-0.2160988s-1.5123997,1.0802994-2.8808002,0.4320984   C24.9262009,49.9914017,23.4139004,48.6230011,23.4139004,48.6230011z"
       id="path290" /><linearGradient
       id="SVGID_26_"
       gradientUnits="userSpaceOnUse"
       x1="65.5769119"
       y1="18.6086845"
       x2="69.5657578"
       y2="18.6086845"
       gradientTransform="matrix(-1 0 0 1 81.4048004 0)"><stop
         offset="0"
         style="stop-color:#454540;stop-opacity:0.3"
         id="stop293" /><stop
         offset="1"
         style="stop-color:#454540;stop-opacity:0"
         id="stop295" /></linearGradient><path
       style="fill:url(#SVGID_26_);"
       d="M15.8278904,16.7187309c0,0-0.9602509,3.0727997-2.6887007,3.6489487   C11.4107418,20.9438305,10.64254,19.5994797,15.8278904,16.7187309z"
       id="path297" /><linearGradient
       id="SVGID_27_"
       gradientUnits="userSpaceOnUse"
       x1="64.3634796"
       y1="39.83675"
       x2="69.1567917"
       y2="39.83675"
       gradientTransform="matrix(-1 0 0 1 81.4048004 0)"><stop
         offset="0"
         style="stop-color:#454540;stop-opacity:0.3"
         id="stop300" /><stop
         offset="1"
         style="stop-color:#454540;stop-opacity:0"
         id="stop302" /></linearGradient><path
       style="fill:url(#SVGID_27_);"
       d="M17.0413208,35.8757019c0,0-6.0867004,6.0495987-3.3499908,7.9220963   C13.69133,43.7977982,8.7940598,41.6371994,17.0413208,35.8757019z"
       id="path304" /><linearGradient
       id="SVGID_28_"
       gradientUnits="userSpaceOnUse"
       x1="67.2813492"
       y1="27.9378319"
       x2="70.1964722"
       y2="27.9378319"
       gradientTransform="matrix(-1 0 0 1 81.4048004 0)"><stop
         offset="0"
         style="stop-color:#454540;stop-opacity:0.3"
         id="stop307" /><stop
         offset="1"
         style="stop-color:#454540;stop-opacity:0"
         id="stop309" /></linearGradient><path
       style="fill:url(#SVGID_28_);"
       d="M14.1234503,28.2416992c0,0-1.8724899,0-2.4486389-0.7201996   C11.0986614,26.8013,10.3784704,29.25,14.1234503,28.2416992z"
       id="path311" /><linearGradient
       id="SVGID_29_"
       gradientUnits="userSpaceOnUse"
       x1="66.391098"
       y1="25.5564003"
       x2="64.7445679"
       y2="25.5564003"
       gradientTransform="matrix(-1 0 0 1 81.4048004 0)"><stop
         offset="0"
         style="stop-color:#454540;stop-opacity:0.3"
         id="stop314" /><stop
         offset="1"
         style="stop-color:#454540;stop-opacity:0"
         id="stop316" /></linearGradient><path
       style="fill:url(#SVGID_29_);"
       d="M16.6602306,23.5928001c0,0-2.9085503,1.8610992-0.9942207,3.9272003   C15.6660099,27.5200005,15.54807,25.4736996,16.6602306,23.5928001z"
       id="path318" /></g><g
     id="g320" /><g
     id="g322" /><g
     id="g324" /><g
     id="g326" /><g
     id="g328" /><g
     id="g330" /></svg>