<?xml version="1.0" encoding="UTF-8" standalone="no"?>
<!-- Generator: Adobe Illustrator 15.0.2, SVG Export Plug-In . SVG Version: 6.00 Build 0)  -->

<svg
   xmlns:dc="http://purl.org/dc/elements/1.1/"
   xmlns:cc="http://creativecommons.org/ns#"
   xmlns:rdf="http://www.w3.org/1999/02/22-rdf-syntax-ns#"
   xmlns:svg="http://www.w3.org/2000/svg"
   xmlns="http://www.w3.org/2000/svg"
   xmlns:sodipodi="http://sodipodi.sourceforge.net/DTD/sodipodi-0.dtd"
   xmlns:inkscape="http://www.inkscape.org/namespaces/inkscape"
   version="1.1"
   id="レイヤー_1"
   x="0px"
   y="0px"
   width="64px"
   height="64px"
   viewBox="0 0 64 64"
   enable-background="new 0 0 64 64"
   xml:space="preserve"
   inkscape:version="0.48.4 r9939"
   sodipodi:docname="full_mark.svg"><metadata
     id="metadata32"><rdf:RDF><cc:Work
         rdf:about=""><dc:format>image/svg+xml</dc:format><dc:type
           rdf:resource="http://purl.org/dc/dcmitype/StillImage" /></cc:Work></rdf:RDF></metadata><defs
     id="defs30" /><sodipodi:namedview
     pagecolor="#ffffff"
     bordercolor="#666666"
     borderopacity="1"
     objecttolerance="10"
     gridtolerance="10"
     guidetolerance="10"
     inkscape:pageopacity="0"
     inkscape:pageshadow="2"
     inkscape:window-width="640"
     inkscape:window-height="480"
     id="namedview28" /><g
     id="g3"><linearGradient
       id="SVGID_1_"
       gradientUnits="userSpaceOnUse"
       x1="32"
       y1="2.9961"
       x2="32"
       y2="60.9865"><stop
         offset="0"
         style="stop-color:#FF5F81"
         id="stop6" /><stop
         offset="1"
         style="stop-color:#FF0049"
         id="stop8" /></linearGradient><path
       fill="url(#SVGID_1_)"
       stroke="#EF1452"
       stroke-width="2"
       stroke-miterlimit="10"
       d="M62.205,50.205c0,6.627-5.373,12-12,12   h-36.41c-6.627,0-12-5.373-12-12v-36.41c0-6.627,5.373-12,12-12h36.41c6.627,0,12,5.373,12,12V50.205z"
       id="path10" /><g
       id="g12"><path
         opacity="0.28"
         fill="#FFFFFF"
         d="M2.672,13.369c-0.032,0.353-0.054,0.709-0.054,1.071v12.594    c0.006,0.006,0.012,0.012,0.017,0.018L2.672,13.369z"
         id="path14" /><path
         opacity="0.28"
         fill="#FFFFFF"
         d="M60.106,23.57c1.188-5.802,1.222-9.417,1.222-10.194C60.79,7.428,55.797,2.767,49.71,2.767    H14.291c-6.076,0-11.062,4.642-11.617,10.572c0.02,0.349,0.497,4.034,1.293,10.307C11.207,30.701,21.092,35.055,32,35.055    C42.945,35.055,52.859,30.669,60.106,23.57z"
         id="path16" /><path
         opacity="0.28"
         fill="#FFFFFF"
         d="M61.328,13.379l0.039,13.667c0.005-0.005,0.01-0.01,0.015-0.015V14.439    C61.382,14.082,61.359,13.729,61.328,13.379z"
         id="path18" /></g><path
       fill="#FFFFFF"
       d="M2.674,27.586c0,0-0.006-10.919-0.028-13.859c-0.027-3.6,3.244-10.89,10.375-10.89   c6.639,0,16.803,0,16.803,0S17.118,3.651,13.02,4.471s-7.494,6.043-8.442,9.263C3.198,18.415,2.674,27.586,2.674,27.586z"
       id="path20" /><path
       fill="#D8417F"
       d="M61.001,37.832c0,0,0.006,10.233,0.027,12.989c0.026,3.373-3.141,10.207-10.048,10.207   c-6.428,0-16.27,0-16.27,0s12.304-0.764,16.272-1.532c3.967-0.769,7.254-5.663,8.174-8.681   C60.493,46.427,61.001,37.832,61.001,37.832z"
       id="path22" /><g
       id="g24"><path
         fill="#FFFFFF"
         d="M13.931,29.616l2.614-4.767c0.922,0.206,1.999,0.718,3.229,1.537c1.435,0.923,2.307,1.642,2.614,2.153    L19.928,33c-0.514-0.513-1.487-1.178-2.922-2C15.569,30.181,14.545,29.72,13.931,29.616z M14.084,46.379    c2.357-2.973,3.792-6.767,4.306-11.38l4.768,2.922c-0.207,1.845-0.719,3.947-1.538,6.305c-0.821,2.461-1.744,4.307-2.768,5.536    L14.084,46.379z M50.069,21.313h-6.612v1.999h5.536v4.46h-10.15v1.691h9.996v16.455c0,2.46-1.129,3.69-3.383,3.69h-3.845    l-1.384-4.306h-7.074v1.229h-3.076V35.46h3.076v5.69h0.769v-7.229h-4.613v15.687H24.08V29.463h9.842v-1.691h-9.996v-4.46h5.383    v-1.999h-6.612v-1.846l-2.307,3.537c-0.411-0.716-1.23-1.485-2.461-2.307c-1.23-0.819-2.359-1.385-3.384-1.691l3.076-4.46    c0.716,0.104,1.691,0.564,2.922,1.384c1.127,0.822,1.846,1.437,2.153,1.846v-1.077h6.612v-2.46h5.382v2.46h3.537v-2.46h5.229v2.46    h6.612V21.313z M34.69,23.312h3.537v-1.999H34.69V23.312z M38.843,41.15h0.77v-5.69h2.922v8.766    c0.819,0.207,1.127-0.204,0.923-1.23v-9.073h-4.614V41.15z"
         id="path26" /></g></g></svg>