<?xml version="1.0" encoding="utf-8"?>
<!-- Generator: Adobe Illustrator 15.0.0, SVG Export Plug-In . SVG Version: 6.00 Build 0)  -->
<!DOCTYPE svg PUBLIC "-//W3C//DTD SVG 1.1//EN" "http://www.w3.org/Graphics/SVG/1.1/DTD/svg11.dtd">
<svg version="1.1" id="レイヤー_1" xmlns="http://www.w3.org/2000/svg" xmlns:xlink="http://www.w3.org/1999/xlink" x="0px"
	 y="0px" width="64px" height="64px" viewBox="0 0 64 64" style="enable-background:new 0 0 64 64;" xml:space="preserve">
<g>
	<path style="fill:#2CA4DE;" d="M32,62.1875C15.3544922,62.1875,1.8125,48.6455078,1.8125,32S15.3544922,1.8125,32,1.8125
		S62.1875,15.3544922,62.1875,32S48.6455078,62.1875,32,62.1875z M32,4.8125C17.0087891,4.8125,4.8125,17.0087891,4.8125,32
		S17.0087891,59.1875,32,59.1875S59.1875,46.9912109,59.1875,32S46.9912109,4.8125,32,4.8125z"/>
	<g>
		<path style="fill:#2CA4DE;" d="M52.625,51.9990234c-5.1982422-3.6660156-12.7158203-5.7685547-20.6259766-5.7685547
			c-7.9086914,0-15.4257813,2.1025391-20.6235352,5.7685547l-1.7294922-2.4511719
			c5.6923828-4.0146484,13.8393555-6.3173828,22.3530273-6.3173828c8.5146484,0,16.6630859,2.3027344,22.3544922,6.3173828
			L52.625,51.9990234z"/>
		<path style="fill:#2CA4DE;" d="M31.9990234,21.0546875c-8.7529297,0-17.0527344-2.4125977-22.7714844-6.6186523
			l1.7773438-2.4169922c5.2148438,3.8359375,12.8666992,6.0356445,20.9941406,6.0356445
			c8.1289063,0,15.7822266-2.2001953,20.9960938-6.0366211l1.7773438,2.4160156
			C49.0546875,18.6416016,40.7539063,21.0546875,31.9990234,21.0546875z"/>
	</g>
	<path style="fill:#2CA4DE;" d="M32,62.1875c-9.1733398,0-16.359375-13.2597656-16.359375-30.1875S22.8266602,1.8125,32,1.8125
		c9.1738281,0,16.359375,13.2597656,16.359375,30.1875S41.1738281,62.1875,32,62.1875z M32,4.8125
		c-7.2416992,0-13.359375,12.4501953-13.359375,27.1875S24.7583008,59.1875,32,59.1875
		c7.2412109,0,13.359375-12.4501953,13.359375-27.1875S39.2412109,4.8125,32,4.8125z"/>
	<rect x="3.3125" y="30.5" style="fill:#2CA4DE;" width="57.375" height="3"/>
	<rect x="30.5087891" y="4" style="fill:#2CA4DE;" width="2.9824219" height="56.6875"/>
</g>
</svg>
