<?xml version="1.0" encoding="utf-8"?>
<!-- Generator: Adobe Illustrator 15.0.2, SVG Export Plug-In . SVG Version: 6.00 Build 0)  -->
<!DOCTYPE svg PUBLIC "-//W3C//DTD SVG 1.1//EN" "http://www.w3.org/Graphics/SVG/1.1/DTD/svg11.dtd">
<svg version="1.1" id="レイヤー_1" xmlns="http://www.w3.org/2000/svg" xmlns:xlink="http://www.w3.org/1999/xlink" x="0px"
	 y="0px" width="64px" height="64px" viewBox="0 0 64 64" enable-background="new 0 0 64 64" xml:space="preserve">
<g>
	<g>
		<linearGradient id="SVGID_1_" gradientUnits="userSpaceOnUse" x1="22.6221" y1="2.5078" x2="41.1872" y2="48.3021">
			<stop  offset="0" style="stop-color:#FFEC9D"/>
			<stop  offset="1" style="stop-color:#DD8000"/>
		</linearGradient>
		<polygon fill="url(#SVGID_1_)" stroke="#C44F00" stroke-width="1.7365" stroke-miterlimit="10" points="32,3.818 39.997,20.022 
			57.879,22.621 44.941,35.234 47.994,53.045 32,44.635 16.006,53.045 19.062,35.234 6.121,22.621 24.003,20.022 		"/>
		<g>
			<polygon opacity="0.5" fill="#FFFFFF" points="31.951,5.689 31.951,28.277 8.17,23.48 24.834,20.541 			"/>
			<polygon opacity="0.5" fill="#FFFFFF" points="20.061,34.93 31.951,28.277 17.099,51.174 			"/>
			<polygon fill="#B05704" points="46.804,51.174 44.019,34.619 31.951,28.277 			"/>
			<polygon fill="#B05704" points="31.951,28.277 56.872,23.309 44.019,34.619 			"/>
			<polygon fill="#B05704" points="17.099,51.174 31.951,28.277 31.951,43.594 			"/>
		</g>
	</g>
	
		<linearGradient id="SVGID_2_" gradientUnits="userSpaceOnUse" x1="-76.8315" y1="-8.7583" x2="-76.8315" y2="-20.5311" gradientTransform="matrix(-1 0 0 -1 -44.8311 39.6689)">
		<stop  offset="0" style="stop-color:#FFFFFF"/>
		<stop  offset="1" style="stop-color:#FFB500"/>
	</linearGradient>
	<polygon fill="url(#SVGID_2_)" points="30.042,48.264 33.959,48.264 35.917,60.182 28.083,60.182 	"/>
	
		<linearGradient id="SVGID_3_" gradientUnits="userSpaceOnUse" x1="15.8276" y1="33.498" x2="15.8276" y2="9.4591" gradientTransform="matrix(0.8612 -0.5083 0.2677 0.4536 -3.5171 9.5463)">
		<stop  offset="0" style="stop-color:#FFFFFF"/>
		<stop  offset="1" style="stop-color:#FFB500"/>
	</linearGradient>
	<polygon fill="url(#SVGID_3_)" points="20.857,15.851 17.485,17.842 9.283,7.8 16.029,3.818 	"/>
	
		<linearGradient id="SVGID_4_" gradientUnits="userSpaceOnUse" x1="-16.0474" y1="-2.2202" x2="-16.0474" y2="-26.2601" gradientTransform="matrix(-0.8612 -0.5083 -0.2677 0.4536 30.3247 9.5463)">
		<stop  offset="0" style="stop-color:#FFFFFF"/>
		<stop  offset="1" style="stop-color:#FFB500"/>
	</linearGradient>
	<polygon fill="url(#SVGID_4_)" points="42.963,15.851 46.335,17.842 54.538,7.8 47.792,3.818 	"/>
</g>
</svg>
