<?xml version="1.0" encoding="UTF-8" standalone="no"?>
<!-- Generator: Adobe Illustrator 15.0.2, SVG Export Plug-In . SVG Version: 6.00 Build 0)  -->

<svg
   xmlns:dc="http://purl.org/dc/elements/1.1/"
   xmlns:cc="http://creativecommons.org/ns#"
   xmlns:rdf="http://www.w3.org/1999/02/22-rdf-syntax-ns#"
   xmlns:svg="http://www.w3.org/2000/svg"
   xmlns="http://www.w3.org/2000/svg"
   xmlns:sodipodi="http://sodipodi.sourceforge.net/DTD/sodipodi-0.dtd"
   xmlns:inkscape="http://www.inkscape.org/namespaces/inkscape"
   version="1.1"
   id="レイヤー_1"
   x="0px"
   y="0px"
   width="64px"
   height="64px"
   viewBox="0 0 64 64"
   enable-background="new 0 0 64 64"
   xml:space="preserve"
   inkscape:version="0.48.4 r9939"
   sodipodi:docname="golfer.svg"><metadata
     id="metadata23"><rdf:RDF><cc:Work
         rdf:about=""><dc:format>image/svg+xml</dc:format><dc:type
           rdf:resource="http://purl.org/dc/dcmitype/StillImage" /></cc:Work></rdf:RDF></metadata><defs
     id="defs21" /><sodipodi:namedview
     pagecolor="#ffffff"
     bordercolor="#666666"
     borderopacity="1"
     objecttolerance="10"
     gridtolerance="10"
     guidetolerance="10"
     inkscape:pageopacity="0"
     inkscape:pageshadow="2"
     inkscape:window-width="640"
     inkscape:window-height="480"
     id="namedview19" /><g
     id="g3"><circle
       cx="32.29"
       cy="19.613"
       r="3.417"
       id="circle5" /><path
       d="M28.874,30.071c-0.338-1.29,0-5.333,0-5.333s0.75-1.167,1.5-1.167s3.917-0.083,4.667,1.167s1.666,6.75,1.75,8.333   c0.084,1.583,0.917,11.083,0.917,11.083l-4.833,5.084l-5.584,7.416l-5-3c0,0,5.583-5.416,7.708-6.833c0,0-0.292-2.501,0-3.417   s1.292-1.5,1.292-1.5s-2.333-2.583-1.292-6.083C29.999,35.82,29.261,31.551,28.874,30.071z"
       id="path7" /><path
       d="M32.249,25.737l2.375-2.167h1c0,0,3.167-2.083,3.5-2.833s-0.916-1.417,0-1.917c0,0,1.083-1.583,1.833-0.833   c0,0,1.751,1.25,1.917,2.333c0.124,0.812-0.126,1.39-0.505,1.769c-0.126,0.126-0.267,0.23-0.412,0.314   c-0.583,0.333-3.417,4.25-4.25,4.5s-3.167,2.083-3.167,2.083L32.249,25.737z"
       id="path9" /><path
       d="M36.374,41.237c0,0,1.75,3.333,2,4.833s0.416,11.25,0.416,11.25l-4.25,0.417l0.417-9.334l-1.167-2.666L36.374,41.237z"
       id="path11" /><path
       d="M25.707,54.07l-1.583,2.583c0,0-1.25,2.75-1.083,3.25s-1.75,0.751-1.917-2.166s0.417-3.667,0.417-3.667l3.083-1.333   L25.707,54.07z"
       id="path13" /><path
       d="M37.577,56.475c0,0,0.297,1.846,0.797,2.096s2.25,1.171,2.25,1.171s1.166,0.441-0.417,0.941H35.29   c0,0,0.251-4.111,0.334-4.695S37.577,56.475,37.577,56.475z"
       id="path15" /><path
       d="M27.457,4.071L40.29,18.404v1.209L27.457,4.987c0,0-2.167,1-2.167-0.5C25.29,3.391,27.074,2.718,27.457,4.071z"
       id="path17" /></g></svg>