<?xml version="1.0" encoding="utf-8"?>
<!-- Generator: Adobe Illustrator 15.0.2, SVG Export Plug-In . SVG Version: 6.00 Build 0)  -->
<!DOCTYPE svg PUBLIC "-//W3C//DTD SVG 1.1//EN" "http://www.w3.org/Graphics/SVG/1.1/DTD/svg11.dtd">
<svg version="1.1" id="レイヤー_1" xmlns="http://www.w3.org/2000/svg" xmlns:xlink="http://www.w3.org/1999/xlink" x="0px"
	 y="0px" width="64px" height="64px" viewBox="0 0 64 64" enable-background="new 0 0 64 64" xml:space="preserve">
<g>
	<path fill="#020202" d="M48.54,41.813V22.809H15.046V42.38h0.207c0,2.094,7.498,3.791,16.747,3.791s16.747-1.697,16.747-3.791
		C48.747,42.188,48.663,41.999,48.54,41.813z"/>
	<g>
		<polygon fill="#1D1D1D" points="32,35.293 2.465,24.91 32,14.289 61.535,24.67 		"/>
		<polygon fill="#1D1D1D" points="32,35.293 2.465,24.91 32,14.289 61.535,24.67 		"/>
	</g>
	<path fill="none" stroke="#DD9F12" stroke-width="1.654" stroke-miterlimit="10" d="M32,22.809l16.747,6.46
		c0,0,7.649,6.083,3.101,14.904c-4.548,8.82,3.722,9.648,3.722,9.648"/>
	<path fill="none" stroke="#DD9F12" stroke-width="1.654" stroke-miterlimit="10" d="M52.571,56.026c0,0-6.099-3.859-1.688-13.922
		c4.411-10.061-1.601-12.113-1.601-12.113"/>
	<path fill="none" stroke="#DD9F12" stroke-width="1.654" stroke-miterlimit="10" d="M56.396,50.651c0,0-9.511-17.541-7.649-21.382
		c0,0,6.685,8.425,4.893,15.041c-1.792,6.617,2.757,8.271,2.757,8.271"/>
</g>
</svg>
