<?xml version="1.0" encoding="utf-8"?>
<!-- Generator: Adobe Illustrator 15.0.2, SVG Export Plug-In . SVG Version: 6.00 Build 0)  -->
<!DOCTYPE svg PUBLIC "-//W3C//DTD SVG 1.1//EN" "http://www.w3.org/Graphics/SVG/1.1/DTD/svg11.dtd">
<svg version="1.1" id="レイヤー_1" xmlns="http://www.w3.org/2000/svg" xmlns:xlink="http://www.w3.org/1999/xlink" x="0px"
	 y="0px" width="64px" height="64px" viewBox="0 0 64 64" enable-background="new 0 0 64 64" xml:space="preserve">
<g>
	<g>
		<path fill="none" stroke="#127201" stroke-width="4.5343" stroke-miterlimit="10" d="M32,54.346c0,0-16.888-9.531-22.389-21.351
			s0-23.341,10.184-23.341S32,21.474,32,21.474S34.021,9.655,44.205,9.655s15.685,11.521,10.184,23.34
			C48.889,44.814,32,54.346,32,54.346z"/>
		<linearGradient id="SVGID_1_" gradientUnits="userSpaceOnUse" x1="31.9995" y1="2.8848" x2="31.9995" y2="48.213">
			<stop  offset="0" style="stop-color:#FFFFFF"/>
			<stop  offset="0.5091" style="stop-color:#26BF00"/>
			<stop  offset="0.5875" style="stop-color:#2AC103"/>
			<stop  offset="0.6674" style="stop-color:#36C60E"/>
			<stop  offset="0.7479" style="stop-color:#4BCE1F"/>
			<stop  offset="0.829" style="stop-color:#67DA37"/>
			<stop  offset="0.9104" style="stop-color:#8CEA55"/>
			<stop  offset="0.991" style="stop-color:#B9FD7A"/>
			<stop  offset="1" style="stop-color:#BEFF7F"/>
		</linearGradient>
		<path fill="url(#SVGID_1_)" d="M32,54.346c0,0-16.888-9.531-22.389-21.351s0-23.341,10.184-23.341S32,21.474,32,21.474
			S34.021,9.655,44.205,9.655s15.685,11.521,10.184,23.34C48.889,44.814,32,54.346,32,54.346z"/>
	</g>
</g>
</svg>
