<?xml version="1.0" encoding="UTF-8" standalone="no"?>
<!-- Generator: Adobe Illustrator 15.0.2, SVG Export Plug-In . SVG Version: 6.00 Build 0)  -->

<svg
   xmlns:dc="http://purl.org/dc/elements/1.1/"
   xmlns:cc="http://creativecommons.org/ns#"
   xmlns:rdf="http://www.w3.org/1999/02/22-rdf-syntax-ns#"
   xmlns:svg="http://www.w3.org/2000/svg"
   xmlns="http://www.w3.org/2000/svg"
   xmlns:sodipodi="http://sodipodi.sourceforge.net/DTD/sodipodi-0.dtd"
   xmlns:inkscape="http://www.inkscape.org/namespaces/inkscape"
   version="1.1"
   id="レイヤー_1"
   x="0px"
   y="0px"
   width="64px"
   height="64px"
   viewBox="0 0 64 64"
   style="enable-background:new 0 0 64 64;"
   xml:space="preserve"
   inkscape:version="0.48.4 r9939"
   sodipodi:docname="grey_exclamation.svg"><metadata
     id="metadata15"><rdf:RDF><cc:Work
         rdf:about=""><dc:format>image/svg+xml</dc:format><dc:type
           rdf:resource="http://purl.org/dc/dcmitype/StillImage" /></cc:Work></rdf:RDF></metadata><defs
     id="defs13" /><sodipodi:namedview
     pagecolor="#ffffff"
     bordercolor="#666666"
     borderopacity="1"
     objecttolerance="10"
     gridtolerance="10"
     guidetolerance="10"
     inkscape:pageopacity="0"
     inkscape:pageshadow="2"
     inkscape:window-width="640"
     inkscape:window-height="480"
     id="namedview11" /><g
     id="g3"><g
       id="g5"><path
         style="fill:#FFFFFF;"
         d="M38.3261719,42.4619141l-6.9858398,2.0625L23.3266602,5.0029297l17.5405273,2.3769531    L38.3261719,42.4619141z M38.8203125,56.6962891l-9.4282227,2.1582031l2.2128906-10.6269531l6.7211914-2.078125    L38.8203125,56.6962891z"
         id="path7" /><path
         style="fill:#040000;"
         d="M28.0952148,60.1767578l2.6508789-12.7304688L39.265625,44.8125l0.59375,12.671875    L28.0952148,60.1767578z M32.4638672,49.0087891l-1.7749023,8.5234375l7.0942383-1.6240234l-0.3945313-8.421875    L32.4638672,49.0087891z M30.5771484,45.7919922l-8.5102539-41.96875l19.8666992,2.6918945l-2.6601563,36.7094727    L30.5771484,45.7919922z M24.5864258,6.1826172l7.5170898,37.0742188l5.2753906-1.5576172l2.4238281-33.4545898    L24.5864258,6.1826172z"
         id="path9" /></g></g></svg>