<?xml version="1.0" encoding="utf-8"?>
<!-- Generator: Adobe Illustrator 15.0.0, SVG Export Plug-In . SVG Version: 6.00 Build 0)  -->
<!DOCTYPE svg PUBLIC "-//W3C//DTD SVG 1.1//EN" "http://www.w3.org/Graphics/SVG/1.1/DTD/svg11.dtd">
<svg version="1.1" id="レイヤー_1" xmlns="http://www.w3.org/2000/svg" xmlns:xlink="http://www.w3.org/1999/xlink" x="0px"
	 y="0px" width="64px" height="64px" viewBox="0 0 64 64" style="enable-background:new 0 0 64 64;" xml:space="preserve">
<g>
	<linearGradient id="SVGID_1_" gradientUnits="userSpaceOnUse" x1="18.0126953" y1="-4.8999023" x2="45.1785965" y2="66.7651443">
		<stop  offset="0" style="stop-color:#FFF0ED"/>
		<stop  offset="0.4120165" style="stop-color:#FFE2D9"/>
		<stop  offset="1" style="stop-color:#FFC9B5"/>
	</linearGradient>
	<circle style="fill:url(#SVGID_1_);" cx="32" cy="32" r="28.9443359"/>
	<path style="fill:#FFB6B6;" d="M32.0009766,61.3291016C15.828125,61.3291016,2.6708984,48.171875,2.6708984,32
		c0-16.1723633,13.1572266-29.3291016,29.3300781-29.3291016c16.171875,0,29.328125,13.1567383,29.328125,29.3291016
		C61.3291016,48.171875,48.1728516,61.3291016,32.0009766,61.3291016z M32.0009766,5.1708984
		C17.2070313,5.1708984,5.1708984,17.206543,5.1708984,32c0,14.7939453,12.0361328,26.8291016,26.8300781,26.8291016
		c14.7929688,0,26.828125-12.0351563,26.828125-26.8291016C58.8291016,17.206543,46.7939453,5.1708984,32.0009766,5.1708984z"/>
	<path style="fill:#750000;" d="M32,62.1933594C15.3505859,62.1933594,1.8056641,48.6484375,1.8056641,32
		S15.3505859,1.8066406,32,1.8066406S62.1943359,15.3515625,62.1943359,32S48.6494141,62.1933594,32,62.1933594z M32,4.3066406
		C16.7294922,4.3066406,4.3056641,16.7299805,4.3056641,32c0,15.2705078,12.4238281,27.6933594,27.6943359,27.6933594
		S59.6943359,47.2705078,59.6943359,32C59.6943359,16.7299805,47.2705078,4.3066406,32,4.3066406z"/>
	<path style="fill:#750000;" d="M50.1699219,23.1083984l-3-0.0429688c0.0283203-1.9912109-1.3847656-3.6323242-3.1494141-3.6582031
		c-0.0126953-0.0004883-0.0263672-0.0004883-0.0400391-0.0004883c-1.7451172,0-3.1826172,1.5917969-3.2128906,3.5698242
		l-3-0.0458984c0.0556641-3.6152344,2.8349609-6.5239258,6.2138672-6.5239258c0.0273438,0,0.0546875,0,0.0830078,0.0004883
		C47.4824219,16.4575195,50.2216797,19.4633789,50.1699219,23.1083984z"/>
	<path style="fill:#750000;" d="M13.5185547,23.2739258c-0.1494141-3.6425781,2.480957-6.7197266,5.8632813-6.8603516
		c3.40625-0.1328125,6.2583008,2.7114258,6.4091797,6.3540039l-2.9970703,0.1240234
		c-0.0830078-1.9902344-1.5517578-3.5463867-3.2880859-3.480957c-1.7299805,0.0722656-3.0717773,1.75-2.9902344,3.7402344
		L13.5185547,23.2739258z"/>
	<path style="fill:#FFFFFF;" d="M32.1494141,51.71875c13.2998047,0,17.8300781-7.8164063,19.7822266-14.0322266
		l-4.4394531-2.0429688c0,0-7.8603516,3.9970703-15.3427734,3.9970703c-7.4819336,0-14.7646484-3.9970703-14.7646484-3.9970703
		l-3.996582,1.3339844C13.3881836,36.9775391,19.0722656,51.71875,32.1494141,51.71875z"/>
	<path style="fill:#9C9C9D;" d="M32.5268555,46.7666016c-0.4384766,0-0.8764648-0.0166016-1.3154297-0.0498047
		c-9.6538086-0.7255859-15.640625-9.1640625-15.890625-9.5224609l1.6401367-1.1445313
		c0.0561523,0.0800781,5.7163086,8.0283203,14.4165039,8.6738281c5.8618164,0.4345703,11.8208008-2.4921875,17.7084961-8.7011719
		l1.4511719,1.3769531C44.6367188,43.6201172,38.5849609,46.7666016,32.5268555,46.7666016z"/>
	<path style="fill:#750000;" d="M32.1494141,52.96875c-13.7763672,0-19.6826172-14.9072266-19.9277344-15.5410156
		c-0.1225586-0.3193359-0.1098633-0.6738281,0.0356445-0.9833984c0.1455078-0.3085938,0.4111328-0.5439453,0.7348633-0.6523438
		l3.996582-1.3339844c0.3305664-0.1103516,0.6918945-0.0791016,0.996582,0.0898438
		c0.0703125,0.0380859,7.1040039,3.8427734,14.1640625,3.8427734c7.0839844,0,14.7001953-3.8232422,14.7763672-3.8613281
		c0.3417969-0.1738281,0.7431641-0.1806641,1.0888672-0.0214844l4.4394531,2.0429688
		c0.5712891,0.2636719,0.8583984,0.9101563,0.6699219,1.5107422C50.8691406,45.2412109,43.34375,52.96875,32.1494141,52.96875z
		 M15.0966797,37.7255859C16.75,41.1064453,22.2265625,50.46875,32.1494141,50.46875
		c9.3945313,0,15.8671875-6.1005859,18.2246094-12.1230469l-2.8681641-1.3193359
		c-1.9609375,0.9228516-8.7294922,3.8642578-15.3564453,3.8642578c-6.6723633,0-13.0673828-2.9794922-14.8725586-3.8935547
		L15.0966797,37.7255859z"/>
</g>
</svg>
