<?xml version="1.0" encoding="utf-8"?>
<!-- Generator: Adobe Illustrator 15.0.2, SVG Export Plug-In . SVG Version: 6.00 Build 0)  -->
<!DOCTYPE svg PUBLIC "-//W3C//DTD SVG 1.1//EN" "http://www.w3.org/Graphics/SVG/1.1/DTD/svg11.dtd">
<svg version="1.1" id="レイヤー_1" xmlns="http://www.w3.org/2000/svg" xmlns:xlink="http://www.w3.org/1999/xlink" x="0px"
	 y="0px" width="64px" height="64px" viewBox="0 0 64 64" enable-background="new 0 0 64 64" xml:space="preserve">
<g>
	
		<linearGradient id="SVGID_1_" gradientUnits="userSpaceOnUse" x1="29.2671" y1="38.1357" x2="37.8614" y2="38.1357" gradientTransform="matrix(0.9901 -0.1401 0.1401 0.9901 -4.5276 4.181)">
		<stop  offset="0" style="stop-color:#A86B1A"/>
		<stop  offset="0.3022" style="stop-color:#A76718"/>
		<stop  offset="0.5957" style="stop-color:#A55B11"/>
		<stop  offset="0.8847" style="stop-color:#A14806"/>
		<stop  offset="1" style="stop-color:#9F3E00"/>
	</linearGradient>
	<polygon fill="url(#SVGID_1_)" stroke="#231815" stroke-width="1.0026" stroke-miterlimit="10" points="40.678,60.369 
		32.422,61.535 27.748,14.058 32,13.456 	"/>
	
		<linearGradient id="SVGID_2_" gradientUnits="userSpaceOnUse" x1="29.269" y1="14.3018" x2="37.8634" y2="14.3018" gradientTransform="matrix(0.9901 -0.1401 0.1401 0.9901 -4.5276 4.181)">
		<stop  offset="0" style="stop-color:#A86B1A"/>
		<stop  offset="0.3022" style="stop-color:#A76718"/>
		<stop  offset="0.5957" style="stop-color:#A55B11"/>
		<stop  offset="0.8847" style="stop-color:#A14806"/>
		<stop  offset="1" style="stop-color:#9F3E00"/>
	</linearGradient>
	<polygon fill="url(#SVGID_2_)" stroke="#231815" stroke-width="1.0026" stroke-miterlimit="10" points="34.808,18.715 
		26.509,19.889 24.94,8.798 33.238,7.625 	"/>
	
		<linearGradient id="SVGID_3_" gradientUnits="userSpaceOnUse" x1="32.7212" y1="28.8247" x2="32.7212" y2="8.9384" gradientTransform="matrix(0.9901 -0.1401 0.1401 0.9901 -4.5276 4.181)">
		<stop  offset="0" style="stop-color:#9F0000"/>
		<stop  offset="0.2545" style="stop-color:#A30000"/>
		<stop  offset="0.5017" style="stop-color:#AF0000"/>
		<stop  offset="0.746" style="stop-color:#C20000"/>
		<stop  offset="0.9871" style="stop-color:#DD0000"/>
		<stop  offset="1" style="stop-color:#DF0000"/>
	</linearGradient>
	<path fill="url(#SVGID_3_)" stroke="#231815" stroke-width="1.2308" stroke-miterlimit="10" d="M47.364,5.542
		c-2.701,2.712-9.522,5.311-17.737,6.473c-8.215,1.162-15.489,0.557-18.837-1.3l-7.479,1.058l2.973,21.016l7.479-1.058
		c2.7-2.712,9.523-5.312,17.738-6.474c8.216-1.162,15.491-0.558,18.837,1.3l7.479-1.058L54.844,4.483L47.364,5.542z"/>
</g>
<linearGradient id="SVGID_4_" gradientUnits="userSpaceOnUse" x1="30.9463" y1="22.8413" x2="32.2793" y2="32.0078">
	<stop  offset="0" style="stop-color:#000000"/>
	<stop  offset="0.9835" style="stop-color:#000000;stop-opacity:0.0165"/>
	<stop  offset="1" style="stop-color:#000000;stop-opacity:0"/>
</linearGradient>
<polygon opacity="0.75" fill="url(#SVGID_4_)" points="28.892,25.683 34.125,24.943 36.521,37.897 29.874,38.751 "/>
</svg>
