<?xml version="1.0" encoding="utf-8"?>
<!-- Generator: Adobe Illustrator 16.0.0, SVG Export Plug-In . SVG Version: 6.00 Build 0)  -->
<!DOCTYPE svg PUBLIC "-//W3C//DTD SVG 1.1//EN" "http://www.w3.org/Graphics/SVG/1.1/DTD/svg11.dtd">
<svg version="1.1" id="Layer_1_x2C_159" xmlns="http://www.w3.org/2000/svg" xmlns:xlink="http://www.w3.org/1999/xlink" x="0px"
	 y="0px" width="64px" height="64px" viewBox="0 0 64 64" enable-background="new 0 0 64 64" xml:space="preserve">
<path fill="#231815" stroke="#231815" stroke-width="2" stroke-linecap="round" stroke-linejoin="round" stroke-miterlimit="10" d="
	M34.153,8.35c0.556,0.771,0.464,1.165,0.583,1.417c-0.046,0.055-0.091,0.11-0.137,0.165c-3.452-1.085-6.057,1.485-6.057,1.485
	c-1.154,0.871-2.189,1.867-3.074,3.022c0.068,0.083,0.108,0.141,0.156,0.191c0.668,0.708,0.681,0.916-0.014,1.615
	c-0.52,0.523-1.082,1.006-1.695,1.572l0.2,0.206l0.158-0.167l7.692,7.895l0.842-0.837c2.874-2.878,5.73-5.73,8.564-8.604
	c0.139-0.141,0.153-0.484,0.111-0.712c-0.767-4.191,1.549-8.392,5.525-9.928c0,0,2.46-0.915,5.432-0.384
	c-0.162,0.173-0.287,0.315-0.421,0.449c-2.193,2.195-2.966,2.644-5.168,4.83c-0.239,0.237-0.316,0.437-0.22,0.783
	c0.394,1.407,0.758,2.822,1.104,4.241c0.088,0.359,0.269,0.513,0.613,0.599l4.241,1.106c0.319,0.088,0.515,0.031,0.741-0.196
	c1.757-1.758,2.105-1.757,3.873-3.505c0.572-0.565,1.154-1.119,1.747-1.692c0.035,0.087,0.054,0.118,0.061,0.15
	c1.318,6.216-3.778,11.818-10.267,10.792c-0.444-0.07-0.739,0.006-1.064,0.335c-2.791,2.82-5.603,5.619-8.406,8.425
	c-0.134,0.134-0.26,0.275-0.395,0.418l-0.409,0.409l4.092,4.2c4.745,4.943,9.885,9.446,15.312,13.625
	c0.396,0.305,0.56,0.544,0.507,0.815c0.302,0.355,0.22,0.66-0.252,1.138c-1.199,1.214-2.403,2.423-3.605,3.634
	c-0.818,0.823-1.637,1.647-2.455,2.471c-0.141,0-0.282,0-0.423,0c-0.167-0.221-0.336-0.439-0.498-0.663
	c-3.835-5.26-7.938-10.296-12.454-14.99l-5.16-5.296l-0.769,0.769c-0.156,0.148-0.297,0.277-0.432,0.412
	c-3.054,3.054-6.103,6.112-9.169,9.153l-0.25,0.285c-0.138,0.141-0.149,0.485-0.108,0.713c0.787,4.186-1.508,8.398-5.477,9.954
	c0,0-2.455,0.927-5.43,0.41c0.162-0.173,0.285-0.316,0.418-0.45c2.184-2.206,2.953-2.658,5.145-4.855
	c0.238-0.238,0.316-0.438,0.217-0.783c-0.4-1.405-0.771-2.818-1.125-4.237c-0.09-0.358-0.271-0.511-0.616-0.595l-4.245-1.086
	c-0.322-0.088-0.518-0.029-0.742,0.199c-1.746,1.768-2.098,1.768-3.855,3.523c-0.57,0.568-1.149,1.125-1.738,1.702
	c-0.036-0.088-0.056-0.118-0.063-0.15c-1.348-6.21,3.722-11.837,10.215-10.842c0.445,0.068,0.74-0.011,1.063-0.34
	c2.985-3,5.98-5.989,8.971-8.982c0.122-0.122,0.235-0.252,0.339-0.364l1.133-1.126l-7.206-7.396l-0.438-0.45
	c-0.585,0.554-1.159,1.096-1.732,1.638c-0.462,0.438-0.818,0.438-1.28-0.002c-0.086-0.082-0.171-0.163-0.257-0.245
	c-0.826-0.079-1.221,0.249-1.46,1.168c-0.031,0.12-0.082,0.24-0.083,0.36c-0.022,1.87-1.073,3.173-2.376,4.343
	c-0.424,0.381-0.81,0.413-1.197,0.006c-2.138-2.242-4.264-4.496-6.394-6.745c0-0.212,0-0.423,0-0.635
	c0.478-0.483,1.003-0.928,1.421-1.458c0.631-0.8,1.477-1.066,2.422-1.193c0.397-0.054,0.799-0.136,1.173-0.274
	c0.663-0.247,0.903-0.636,0.872-1.258c-0.069-0.07-0.137-0.14-0.206-0.21c-0.508-0.783-0.492-0.933,0.172-1.631
	c0.049-0.051,0.1-0.1,0.149-0.15c1.691-1.746,3.382-3.492,5.074-5.236c0.883-0.911,1.765-1.822,2.653-2.726
	c0.546-0.556,0.849-0.548,1.419,0.006c0.048,0.047,0.109,0.081,0.185,0.136c0.154-0.136,0.298-0.262,0.441-0.389
	c1.825-1.618,1.684-1.736,4.021-2.478C24.39,5.85,30.619,3.449,34.153,8.35z"/>
<g>
	<g>
		<linearGradient id="SVGID_1_" gradientUnits="userSpaceOnUse" x1="24.2813" y1="24.1826" x2="44.6154" y2="44.8502">
			<stop  offset="0" style="stop-color:#E5E2DF"/>
			<stop  offset="0" style="stop-color:#F1EFEE"/>
			<stop  offset="0" style="stop-color:#FFFFFF"/>
			<stop  offset="0.0791" style="stop-color:#F0F1F1"/>
			<stop  offset="0.2311" style="stop-color:#C9CCCD"/>
			<stop  offset="0.4383" style="stop-color:#8B9193"/>
			<stop  offset="0.6452" style="stop-color:#465053"/>
			<stop  offset="0.828" style="stop-color:#465053"/>
		</linearGradient>
		<path fill-rule="evenodd" clip-rule="evenodd" fill="url(#SVGID_1_)" d="M59.013,12.046c-0.007-0.032-0.025-0.063-0.061-0.15
			c-0.593,0.574-1.175,1.127-1.747,1.692c-1.768,1.748-2.116,1.747-3.873,3.505c-0.227,0.227-0.422,0.285-0.741,0.196l-4.241-1.106
			c-0.345-0.085-0.525-0.239-0.613-0.599c-0.347-1.419-0.711-2.834-1.104-4.241c-0.097-0.346-0.02-0.546,0.22-0.783
			c2.202-2.187,2.975-2.635,5.168-4.83c0.134-0.134,0.259-0.276,0.421-0.449c-2.972-0.531-5.432,0.384-5.432,0.384
			c-3.977,1.537-6.292,5.737-5.525,9.928c0.042,0.228,0.027,0.572-0.111,0.712c-2.834,2.874-5.69,5.726-8.564,8.604l-6.926,6.884
			c-0.104,0.112-0.217,0.242-0.339,0.364c-2.991,2.993-5.986,5.982-8.971,8.982c-0.323,0.329-0.618,0.408-1.063,0.34
			C9.016,40.486,3.946,46.113,5.294,52.323c0.007,0.032,0.026,0.063,0.063,0.15c0.589-0.577,1.168-1.134,1.738-1.702
			c1.758-1.756,2.109-1.756,3.855-3.523c0.225-0.229,0.42-0.287,0.742-0.199l4.245,1.086c0.345,0.084,0.526,0.236,0.616,0.595
			c0.354,1.419,0.725,2.832,1.125,4.237c0.1,0.345,0.021,0.545-0.217,0.783c-2.191,2.197-2.961,2.649-5.145,4.855
			c-0.133,0.134-0.256,0.277-0.418,0.45c2.975,0.517,5.43-0.41,5.43-0.41c3.969-1.556,6.264-5.769,5.477-9.954
			c-0.041-0.228-0.029-0.572,0.108-0.713l0.25-0.285c3.066-3.041,6.115-6.1,9.169-9.153c0.135-0.135,0.276-0.264,0.432-0.412
			l6.116-6.111c0.135-0.144,0.261-0.285,0.395-0.418c2.804-2.806,5.615-5.605,8.406-8.425c0.325-0.329,0.62-0.405,1.064-0.335
			C55.234,23.865,60.331,18.262,59.013,12.046z"/>
		<path fill="#BABBB8" d="M11.438,46.01c0.165,0,0.334,0.024,0.518,0.074l4.23,1.082c0.708,0.173,1.162,0.617,1.338,1.32
			c0.383,1.538,0.748,2.914,1.117,4.206c0.194,0.674,0.041,1.253-0.472,1.765c-1.096,1.1-1.849,1.775-2.578,2.429
			c-0.463,0.416-0.911,0.817-1.438,1.318c1.642-0.063,2.813-0.49,2.825-0.495c3.505-1.374,5.548-5.091,4.844-8.833
			c-0.044-0.246-0.144-1.065,0.377-1.597l0.212-0.245c2.421-2.404,4.783-4.769,7.146-7.132l2.068-2.069
			c0.098-0.098,0.198-0.192,0.305-0.293l0.144-0.136l6.194-6.198c0.1-0.107,0.197-0.213,0.299-0.314l2.214-2.214
			c2.066-2.065,4.133-4.131,6.188-6.208c0.539-0.544,1.123-0.747,1.932-0.619c2.927,0.463,5.767-0.605,7.549-2.805
			c1.16-1.432,1.771-3.209,1.769-5.051c-0.104,0.102-0.208,0.204-0.313,0.306c-0.898,0.889-1.447,1.344-1.978,1.784
			c-0.529,0.44-1.03,0.855-1.891,1.716c-0.486,0.488-1.038,0.641-1.715,0.453l-4.227-1.103c-0.708-0.175-1.16-0.624-1.333-1.329
			c-0.378-1.547-0.736-2.924-1.096-4.209c-0.19-0.679-0.033-1.256,0.479-1.763c1.101-1.093,1.857-1.765,2.589-2.415
			c0.466-0.414,0.916-0.814,1.445-1.313C48.54,6.178,47.367,6.6,47.354,6.604c-3.511,1.357-5.572,5.064-4.888,8.811
			c0.031,0.168,0.16,1.044-0.383,1.594c-2.368,2.402-4.752,4.788-7.149,7.188l-8.416,8.384c-0.084,0.093-0.174,0.19-0.267,0.284
			l-2.404,2.405c-2.19,2.19-4.381,4.381-6.566,6.577c-0.532,0.542-1.114,0.748-1.924,0.623c-2.913-0.447-5.75,0.627-7.522,2.826
			c-1.161,1.44-1.769,3.227-1.757,5.075c0.104-0.103,0.208-0.205,0.311-0.308c0.893-0.893,1.439-1.35,1.967-1.792
			c0.528-0.442,1.027-0.86,1.883-1.727C10.592,46.186,10.985,46.01,11.438,46.01z"/>
		<g>
			<linearGradient id="SVGID_2_" gradientUnits="userSpaceOnUse" x1="23.2002" y1="23.2344" x2="38.8671" y2="38.9008">
				<stop  offset="0" style="stop-color:#E5E2DF"/>
				<stop  offset="0" style="stop-color:#DED9D6"/>
				<stop  offset="0.063" style="stop-color:#CFCAC9"/>
				<stop  offset="0.1833" style="stop-color:#A8A4A7"/>
				<stop  offset="0.264" style="stop-color:#8B878D"/>
				<stop  offset="0.5225" style="stop-color:#F3F4F4"/>
				<stop  offset="0.5842" style="stop-color:#E5E5E6"/>
				<stop  offset="0.7027" style="stop-color:#C0BEC0"/>
				<stop  offset="0.8647" style="stop-color:#858085"/>
				<stop  offset="0.8764" style="stop-color:#807B80"/>
				<stop  offset="1" style="stop-color:#D1D3D4"/>
				<stop  offset="1" style="stop-color:#A7A9AC"/>
			</linearGradient>
			<path fill="url(#SVGID_2_)" d="M11.438,46.01c0.165,0,0.334,0.024,0.518,0.074l4.23,1.082c0.708,0.173,1.162,0.617,1.338,1.32
				c0.383,1.538,0.748,2.914,1.117,4.206c0.194,0.674,0.041,1.253-0.472,1.765c-1.096,1.1-1.849,1.775-2.578,2.429
				c-0.463,0.416-0.911,0.817-1.438,1.318c1.642-0.063,2.813-0.49,2.825-0.495c3.505-1.374,5.548-5.091,4.844-8.833
				c-0.044-0.246-0.144-1.065,0.377-1.597l0.212-0.245c2.421-2.404,4.783-4.769,7.146-7.132l2.068-2.069
				c0.098-0.098,0.198-0.192,0.305-0.293l0.144-0.136l6.194-6.198c0.1-0.107,0.197-0.213,0.299-0.314l2.214-2.214
				c2.066-2.065,4.133-4.131,6.188-6.208c0.539-0.544,1.123-0.747,1.932-0.619c2.927,0.463,5.767-0.605,7.549-2.805
				c1.16-1.432,1.771-3.209,1.769-5.051c-0.104,0.102-0.208,0.204-0.313,0.306c-0.898,0.889-1.447,1.344-1.978,1.784
				c-0.529,0.44-1.03,0.855-1.891,1.716c-0.486,0.488-1.038,0.641-1.715,0.453l-4.227-1.103c-0.708-0.175-1.16-0.624-1.333-1.329
				c-0.378-1.547-0.736-2.924-1.096-4.209c-0.19-0.679-0.033-1.256,0.479-1.763c1.101-1.093,1.857-1.765,2.589-2.415
				c0.466-0.414,0.916-0.814,1.445-1.313C48.54,6.178,47.367,6.6,47.354,6.604c-3.511,1.357-5.572,5.064-4.888,8.811
				c0.031,0.168,0.16,1.044-0.383,1.594c-2.368,2.402-4.752,4.788-7.149,7.188l-8.416,8.384c-0.084,0.093-0.174,0.19-0.267,0.284
				l-2.404,2.405c-2.19,2.19-4.381,4.381-6.566,6.577c-0.532,0.542-1.114,0.748-1.924,0.623c-2.913-0.447-5.75,0.627-7.522,2.826
				c-1.161,1.44-1.769,3.227-1.757,5.075c0.104-0.103,0.208-0.205,0.311-0.308c0.893-0.893,1.439-1.35,1.967-1.792
				c0.528-0.442,1.027-0.86,1.883-1.727C10.592,46.186,10.985,46.01,11.438,46.01z"/>
		</g>
		<g>
			<defs>
				<path id="SVGID_3_" d="M11.438,46.01c0.165,0,0.334,0.024,0.518,0.074l4.23,1.082c0.708,0.173,1.162,0.617,1.338,1.32
					c0.383,1.538,0.748,2.914,1.117,4.206c0.194,0.674,0.041,1.253-0.472,1.765c-1.096,1.1-1.849,1.775-2.578,2.429
					c-0.463,0.416-0.911,0.817-1.438,1.318c1.642-0.063,2.813-0.49,2.825-0.495c3.505-1.374,5.548-5.091,4.844-8.833
					c-0.044-0.246-0.144-1.065,0.377-1.597l0.212-0.245c2.421-2.404,4.783-4.769,7.146-7.132l2.068-2.069
					c0.098-0.098,0.198-0.192,0.305-0.293l0.144-0.136l6.194-6.198c0.1-0.107,0.197-0.213,0.299-0.314l2.214-2.214
					c2.066-2.065,4.133-4.131,6.188-6.208c0.539-0.544,1.123-0.747,1.932-0.619c2.927,0.463,5.767-0.605,7.549-2.805
					c1.16-1.432,1.771-3.209,1.769-5.051c-0.104,0.102-0.208,0.204-0.313,0.306c-0.898,0.889-1.447,1.344-1.978,1.784
					c-0.529,0.44-1.03,0.855-1.891,1.716c-0.486,0.488-1.038,0.641-1.715,0.453l-4.227-1.103c-0.708-0.175-1.16-0.624-1.333-1.329
					c-0.378-1.547-0.736-2.924-1.096-4.209c-0.19-0.679-0.033-1.256,0.479-1.763c1.101-1.093,1.857-1.765,2.589-2.415
					c0.466-0.414,0.916-0.814,1.445-1.313C48.54,6.178,47.367,6.6,47.354,6.604c-3.511,1.357-5.572,5.064-4.888,8.811
					c0.031,0.168,0.16,1.044-0.383,1.594c-2.368,2.402-4.752,4.788-7.149,7.188l-8.416,8.384c-0.084,0.093-0.174,0.19-0.267,0.284
					l-2.404,2.405c-2.19,2.19-4.381,4.381-6.566,6.577c-0.532,0.542-1.114,0.748-1.924,0.623c-2.913-0.447-5.75,0.627-7.522,2.826
					c-1.161,1.44-1.769,3.227-1.757,5.075c0.104-0.103,0.208-0.205,0.311-0.308c0.893-0.893,1.439-1.35,1.967-1.792
					c0.528-0.442,1.027-0.86,1.883-1.727C10.592,46.186,10.985,46.01,11.438,46.01z"/>
			</defs>
			<clipPath id="SVGID_4_">
				<use xlink:href="#SVGID_3_"  overflow="visible"/>
			</clipPath>
			<linearGradient id="SVGID_5_" gradientUnits="userSpaceOnUse" x1="24.2305" y1="26.9551" x2="37.2859" y2="40.5">
				<stop  offset="0" style="stop-color:#E5E2DF"/>
				<stop  offset="0" style="stop-color:#DED9D6"/>
				<stop  offset="0.063" style="stop-color:#CFCAC9"/>
				<stop  offset="0.1833" style="stop-color:#A8A4A7"/>
				<stop  offset="0.264" style="stop-color:#8B878D"/>
				<stop  offset="0.5225" style="stop-color:#F3F4F4"/>
				<stop  offset="0.5842" style="stop-color:#E5E5E6"/>
				<stop  offset="0.7027" style="stop-color:#C0BEC0"/>
				<stop  offset="0.8647" style="stop-color:#858085"/>
				<stop  offset="0.8764" style="stop-color:#807B80"/>
				<stop  offset="1" style="stop-color:#D1D3D4"/>
				<stop  offset="1" style="stop-color:#A7A9AC"/>
			</linearGradient>
			<path clip-path="url(#SVGID_4_)" fill="url(#SVGID_5_)" d="M58.432,8.067c-0.834,0.333-53.265,53.1-53.265,53.1l-8.4-8.333
				L49.6,0L58.432,8.067z"/>
		</g>
	</g>
	<g>
		<linearGradient id="SVGID_6_" gradientUnits="userSpaceOnUse" x1="14.1646" y1="10.2949" x2="36.3329" y2="33.7969">
			<stop  offset="0" style="stop-color:#E5E2DF"/>
			<stop  offset="0" style="stop-color:#F1EFEE"/>
			<stop  offset="0" style="stop-color:#FFFFFF"/>
			<stop  offset="0.0791" style="stop-color:#F0F1F1"/>
			<stop  offset="0.2311" style="stop-color:#C9CCCD"/>
			<stop  offset="0.4383" style="stop-color:#8B9193"/>
			<stop  offset="0.6452" style="stop-color:#465053"/>
			<stop  offset="0.828" style="stop-color:#465053"/>
		</linearGradient>
		<path fill-rule="evenodd" clip-rule="evenodd" fill="url(#SVGID_6_)" d="M34.153,8.35c0.58,0.752,0.464,1.165,0.583,1.417
			c-0.046,0.055-0.091,0.11-0.137,0.165c-3.452-1.085-6.057,1.485-6.057,1.485c-1.154,0.871-2.189,1.867-3.074,3.022
			c0.068,0.083,0.108,0.141,0.156,0.191c0.668,0.708,0.681,0.916-0.014,1.615c-0.52,0.523-1.082,1.006-1.695,1.572l18.813,19.311
			c4.745,4.943,9.885,9.446,15.312,13.625c0.667,0.514,0.693,0.842,0.089,1.453c-1.199,1.214-2.403,2.423-3.605,3.634
			c-0.818,0.823-1.637,1.647-2.455,2.471c-0.141,0-0.282,0-0.423,0c-0.167-0.221-0.336-0.439-0.498-0.663
			c-3.835-5.26-7.938-10.296-12.454-14.99L19.372,22.823c-0.585,0.554-1.159,1.096-1.732,1.638c-0.462,0.438-0.818,0.438-1.28-0.002
			c-0.086-0.082-0.171-0.163-0.257-0.245c-0.826-0.079-1.221,0.249-1.46,1.168c-0.031,0.12-0.082,0.24-0.083,0.36
			c-0.022,1.87-1.073,3.173-2.376,4.343c-0.424,0.381-0.81,0.413-1.197,0.006c-2.138-2.242-4.264-4.496-6.394-6.745
			c0-0.212,0-0.423,0-0.635c0.478-0.483,1.003-0.928,1.421-1.458c0.631-0.8,1.477-1.066,2.422-1.193
			c0.397-0.054,0.799-0.136,1.173-0.274c0.663-0.247,0.903-0.636,0.872-1.258c-0.069-0.07-0.137-0.14-0.206-0.21
			c-0.508-0.783-0.492-0.933,0.172-1.631c0.049-0.051,0.1-0.1,0.149-0.15c1.691-1.746,3.382-3.492,5.074-5.236
			c0.883-0.911,1.765-1.822,2.653-2.726c0.546-0.556,0.849-0.548,1.419,0.006c0.048,0.047,0.109,0.081,0.185,0.136
			c0.154-0.136,0.298-0.262,0.441-0.389c1.825-1.618,1.684-1.736,4.021-2.478C24.39,5.85,30.369,3.449,34.153,8.35z"/>
		<linearGradient id="SVGID_7_" gradientUnits="userSpaceOnUse" x1="13.3726" y1="9.229" x2="24.7072" y2="21.5638">
			<stop  offset="0" style="stop-color:#E5E2DF"/>
			<stop  offset="0" style="stop-color:#F1EFEE"/>
			<stop  offset="0" style="stop-color:#FFFFFF"/>
			<stop  offset="0.0791" style="stop-color:#F0F1F1"/>
			<stop  offset="0.2311" style="stop-color:#C9CCCD"/>
			<stop  offset="0.4383" style="stop-color:#8B9193"/>
			<stop  offset="0.6452" style="stop-color:#465053"/>
			<stop  offset="0.828" style="stop-color:#465053"/>
		</linearGradient>
		<path fill="url(#SVGID_7_)" d="M19.415,20.718l20.354,20.891c4.167,4.332,8.168,9.126,12.224,14.649l2.502-2.518
			c0.718-0.723,1.437-1.446,2.153-2.171c-5.619-4.359-10.531-8.749-15-13.404L21.766,17.758l1.715-1.575
			c0.292-0.265,0.573-0.517,0.841-0.776l-0.717-0.882l0.672-0.999c0.927-1.21,2.058-2.323,3.361-3.307
			c0.131-0.103,1.216-1.455,4.58-1.914c-0.99-1.013-2.189-1.302-3.273-1.438c-0.127-0.016-0.24-0.045-0.337-0.078
			c-0.157-0.004-0.311-0.01-0.464-0.017c-0.424-0.018-0.843-0.038-1.381,0.014c-0.749,0.122-1.165,0.254-1.794,0.454L24.843,7.28
			c-1.971,0.625-1.651,0.549-3.479,2.169l-1.343,1.186l-0.946-0.685c-0.692,0.707-1.381,1.417-2.07,2.128l-5.342,5.512l0.283,0.289
			l0.033,0.572c0.065,1.299-0.59,2.271-1.847,2.739c-0.437,0.162-0.925,0.278-1.495,0.355c-0.879,0.118-1.205,0.331-1.446,0.636
			c-0.257,0.326-0.531,0.61-0.804,0.877l0.916,0.968c1.433,1.515,2.866,3.029,4.304,4.54c1.029-1.017,1.441-1.843,1.453-2.843
			c0.002-0.299,0.075-0.538,0.119-0.68c0.507-1.942,1.747-2.341,2.7-2.341c0.116,0,0.238,0.006,0.367,0.018l0.515,0.049L17.001,23
			L19.415,20.718z"/>
		<g>
			<defs>
				<path id="SVGID_8_" d="M19.415,20.718l20.354,20.891c4.167,4.332,8.168,9.126,12.224,14.649l2.502-2.518
					c0.718-0.723,1.437-1.446,2.153-2.171c-5.619-4.359-10.531-8.749-15-13.404L21.766,17.758l1.715-1.575
					c0.292-0.265,0.573-0.517,0.841-0.776l-0.717-0.882l0.672-0.999c0.927-1.21,2.058-2.323,3.361-3.307
					c0.131-0.103,1.216-1.455,4.58-1.914c-0.99-1.013-2.189-1.302-3.273-1.438c-0.127-0.016-0.24-0.045-0.337-0.078
					c-0.157-0.004-0.311-0.01-0.464-0.017c-0.424-0.018-0.843-0.038-1.381,0.014c-0.749,0.122-1.165,0.254-1.794,0.454L24.843,7.28
					c-1.971,0.625-1.651,0.549-3.479,2.169l-1.343,1.186l-0.946-0.685c-0.692,0.707-1.381,1.417-2.07,2.128l-5.342,5.512
					l0.283,0.289l0.033,0.572c0.065,1.299-0.59,2.271-1.847,2.739c-0.437,0.162-0.925,0.278-1.495,0.355
					c-0.879,0.118-1.205,0.331-1.446,0.636c-0.257,0.326-0.531,0.61-0.804,0.877l0.916,0.968c1.433,1.515,2.866,3.029,4.304,4.54
					c1.029-1.017,1.441-1.843,1.453-2.843c0.002-0.299,0.075-0.538,0.119-0.68c0.507-1.942,1.747-2.341,2.7-2.341
					c0.116,0,0.238,0.006,0.367,0.018l0.515,0.049L17.001,23L19.415,20.718z"/>
			</defs>
			<clipPath id="SVGID_9_">
				<use xlink:href="#SVGID_8_"  overflow="visible"/>
			</clipPath>
			<polygon clip-path="url(#SVGID_9_)" fill-rule="evenodd" clip-rule="evenodd" fill="#3F4547" points="31.444,3.723 4.544,30.021 
				9.844,35.494 36.869,9.065 			"/>
			<linearGradient id="SVGID_10_" gradientUnits="userSpaceOnUse" x1="16.6592" y1="13.917" x2="25.9942" y2="24.0846">
				<stop  offset="0" style="stop-color:#E5E2DF"/>
				<stop  offset="0" style="stop-color:#F1EFEE"/>
				<stop  offset="0" style="stop-color:#FFFFFF"/>
				<stop  offset="0.0791" style="stop-color:#F0F1F1"/>
				<stop  offset="0.2311" style="stop-color:#C9CCCD"/>
				<stop  offset="0.4383" style="stop-color:#8B9193"/>
				<stop  offset="0.6452" style="stop-color:#465053"/>
				<stop  offset="0.828" style="stop-color:#465053"/>
			</linearGradient>
			<polygon clip-path="url(#SVGID_9_)" fill-rule="evenodd" clip-rule="evenodd" fill="url(#SVGID_10_)" points="35.043,6.423 
				8.146,32.723 13.445,38.193 40.465,11.766 			"/>
			<polygon clip-path="url(#SVGID_9_)" fill-rule="evenodd" clip-rule="evenodd" fill="#2E2B2A" points="5.562,16.555 
				16.902,28.882 18.612,27.394 7.148,14.942 			"/>
		</g>
		<g>
			<path fill="#B08046" d="M39.41,41.957c4.268,4.437,8.363,9.364,12.524,15.068l2.911-2.93c0.853-0.858,1.705-1.716,2.555-2.576
				c-5.787-4.458-10.822-8.94-15.393-13.701l-17.555-18.02l-3.259,3.462L39.41,41.957z"/>
			<path fill="#474646" d="M26.306,31.374l6.521,6.693l6.054-6.049c0.045-0.048,0.088-0.092,0.132-0.139l-6.5-6.672L26.306,31.374z"
				/>
		</g>
		<path fill-rule="evenodd" clip-rule="evenodd" fill="#B08046" d="M58.041,50.751c-5.427-4.179-10.566-8.682-15.312-13.625
			L24.44,18.353l-4.63,4.92l18.885,19.382c4.516,4.694,8.619,9.73,12.454,14.99c0.162,0.224,0.331,0.442,0.498,0.663
			c0.141,0,0.282,0,0.423,0c0.818-0.823,1.637-1.647,2.455-2.471c1.202-1.211,2.406-2.42,3.605-3.634
			C58.734,51.593,58.708,51.265,58.041,50.751z"/>
		<g>
			<path fill-rule="evenodd" clip-rule="evenodd" fill="#926134" d="M58.041,50.751c-5.427-4.179-10.566-8.682-15.312-13.625
				L24.44,18.353l-4.63,4.92l18.885,19.382c4.516,4.694,8.619,9.73,12.454,14.99c0.162,0.224,0.331,0.442,0.498,0.663
				c0.141,0,0.282,0,0.423,0c0.818-0.823,1.637-1.647,2.455-2.471c1.202-1.211,2.406-2.42,3.605-3.634
				C58.734,51.593,58.708,51.265,58.041,50.751z"/>
		</g>
		<path fill="#C59D62" d="M21.194,23.261L39.41,41.957c4.268,4.437,8.363,9.364,12.524,15.068l2.908-2.928
			c0.854-0.858,1.707-1.717,2.558-2.578c-5.787-4.458-10.822-8.94-15.393-13.701l-17.555-18.02L21.194,23.261z"/>
	</g>
</g>
</svg>
