<?xml version="1.0" encoding="utf-8"?>
<!-- Generator: Adobe Illustrator 15.0.0, SVG Export Plug-In . SVG Version: 6.00 Build 0)  -->
<!DOCTYPE svg PUBLIC "-//W3C//DTD SVG 1.1//EN" "http://www.w3.org/Graphics/SVG/1.1/DTD/svg11.dtd">
<svg version="1.1" id="レイヤー_1" xmlns="http://www.w3.org/2000/svg" xmlns:xlink="http://www.w3.org/1999/xlink" x="0px"
	 y="0px" width="64px" height="64px" viewBox="0 0 64 64" style="enable-background:new 0 0 64 64;" xml:space="preserve">
<g>
	<g>
		
			<rect x="28.1802444" y="7.8396339" transform="matrix(0.7071068 -0.7071068 0.7071068 0.7071068 -14.6499519 31.311573)" width="4.5823836" height="51.0004196"/>
		<path d="M14.2075195,17.0761719c-2.5712891,2.5712891-4.5996094,5.4384766-6.0673828,8.4121094L13.2133789,30.5625
			l14.4804688-14.4804688l-5.0732422-5.0732422C19.6459961,12.4755859,16.7797852,14.5039063,14.2075195,17.0761719z"/>
	</g>
	<g>
		
			<rect x="31.0594959" y="7.8399773" transform="matrix(0.7070002 0.7072133 -0.7072133 0.7070002 33.3500252 -13.8172379)" width="4.5816927" height="50.999733"/>
		<path d="M52.9121094,24.8535156c-1.4667969-2.9736328-8.7363281-12.3779297-11.7109375-13.8447266l-5.0742188,5.0732422
			l12.4257813,12.4248047l6.5996094,6.6005859l0.7070313-0.7070313L52.9121094,24.8535156z"/>
	</g>
</g>
</svg>
