<?xml version="1.0" encoding="utf-8"?>
<!-- Generator: Adobe Illustrator 15.0.2, SVG Export Plug-In . SVG Version: 6.00 Build 0)  -->
<!DOCTYPE svg PUBLIC "-//W3C//DTD SVG 1.1//EN" "http://www.w3.org/Graphics/SVG/1.1/DTD/svg11.dtd">
<svg version="1.1" id="レイヤー_1" xmlns="http://www.w3.org/2000/svg" xmlns:xlink="http://www.w3.org/1999/xlink" x="0px"
	 y="0px" width="64px" height="64px" viewBox="0 0 64 64" style="enable-background:new 0 0 64 64;" xml:space="preserve">
<g>
	<path style="fill:#FFB694;" d="M20.4165039,47.3349609c0,0,3.5-7.3330078,5-9.5"/>
	<line style="fill:#FFB694;" x1="26.0830078" y1="49.5009766" x2="30.4165039" y2="41.8349609"/>
	<path style="fill:#EFB075;" d="M60.75,12.3349609l-11.3339844,3.6669922c0,0-3.8339844-0.6669922-5.1660156-1
		c-1.3339844-0.3339844-6.8339844-0.1669922-8.8339844-0.8339844c-2-0.6660156-4.6665039-0.3330078-7.6665039,2.5
		c-3,2.8339844-4.6665039,3.3339844-5.6665039,4.3339844s1,6.3330078-0.5,9.1660156c0,0,1.5004883,2.8339844,3.8334961,1.6669922
		s4.3330078-7.3330078,4.3330078-7.3330078l4.3344727-1.5l5.5,21.1660156c0,0,14.5-8.8339844,16.5-11.1669922l5-2.5
		L60.75,12.3349609z"/>
	<polygon style="fill:#BC8058;" points="42.0839844,36.5009766 48.75,38.0009766 46.9160156,40.0009766 	"/>
	<path style="fill:#BC8058;" d="M33.25,24.1679688c0,0,0-1.5,1.6660156-1.3330078c1.6679688,0.1669922,7.8339844,5,10.5,5.1669922
		c2.6679688,0.1660156,4.5019531-1.5,6.1679688,1.5c1.6660156,2.9990234,6.5,0.1660156,8.8320313-0.6669922l0.6679688,1.6660156
		L53.25,35.1679688C53.25,35.1679688,45.25,27.6679688,33.25,24.1679688z"/>
	<path style="fill:none;stroke:#420707;stroke-width:1.5;stroke-linecap:round;stroke-linejoin:round;stroke-miterlimit:11;" d="
		M60.75,12.3349609l-11.3339844,3.6669922c0,0-3.8339844-0.6669922-5.1660156-1
		c-1.3339844-0.3339844-6.8339844-0.1669922-8.8339844-0.8339844c-2-0.6660156-4.6665039-0.3330078-7.6665039,2.5
		c-3,2.8339844-4.6665039,3.3339844-5.6665039,4.3339844s1,6.3330078-0.5,9.1660156c0,0,1.5004883,2.8339844,3.8334961,1.6669922
		s4.3330078-7.3330078,4.3330078-7.3330078l4.3344727-1.5l5.5,21.1660156c0,0,14.5-8.8339844,16.5-11.1669922l5-2.5
		L60.75,12.3349609z"/>
	<path style="fill:#EFB075;" d="M2.9165039,17.5019531c0,0,5.9995117,1.5,8.8330078,2.1660156
		c2.8334961,0.6669922,4.3339844-1,6.6669922-2.3330078s7.1660156-3,9.3330078-3.1669922
		c2.1669922-0.1660156,4,0.1669922,3.6669922,4.3339844l0.8330078,5c0,0,6.5004883,2.3330078,7.8344727,3.5
		c1.3320313,1.1660156,7,3.4990234,8,3.9990234s4.4980469,3,5.1660156,4.1669922
		c0.6660156,1.1669922,0.1660156,4.6660156-3.8339844,3.8330078l-5.8320313-3L38.75,33.8349609l5.6660156,4.6660156l3,2.3339844
		c0,0,1.1679688,3.8339844-4,4c0,0,0.5019531,2.8320313-4.3320313,3.1660156c0,0,0.1660156,3.3339844-4.6679688,1.8339844
		l-18.3330078-7.3339844l-6.8334961-6.5l-6,0.1669922L2.9165039,17.5019531z"/>
	<path style="fill:#BC8058;" d="M3.5830078,34.3349609l6.5,0.3330078c0,0,3.5004883,2.6669922,9.3334961,1.1669922
		l-3.6669922,4.8330078l-4.1665039-4l-8.3334961-0.5L3.5830078,34.3349609z"/>
	<path style="fill:#BC8058;" d="M24.2495117,35.8349609c0,0,2.6669922-0.5,3.6669922,0.5s5.6674805,5.1660156,5.9995117,7.6660156
		c0.3339844,2.5,1,4,2,4s3.1679688-0.6660156,3.1679688-0.6660156S42.4160156,45.6669922,42.75,44.0009766
		c0,0,3.5-1.5,3.5-3.3330078l-11.3339844-8.8330078c0,0,0.6679688-0.1660156,1.5,0
		C37.25,32.0009766,50.25,37.6679688,50.25,37.6679688l1.6660156-3.3330078c0,0,4.3339844,4.3330078-1.8320313,4.8330078
		L38.75,33.8349609l8.6660156,7c0,0,1.1679688,3.6669922-4,4c0,0-0.4980469,3.3320313-4.3320313,3.1660156
		c0,0-1.0019531,4.1669922-6.3344727,1.1669922v-4.6669922C32.7495117,44.5009766,27.2495117,36.5019531,24.2495117,35.8349609z"/>
	<path style="fill:none;stroke:#420707;stroke-width:1.5;stroke-linecap:round;stroke-linejoin:round;stroke-miterlimit:11;" d="
		M2.9165039,17.5019531c0,0,5.9995117,1.5,8.8330078,2.1660156c2.8334961,0.6669922,4.3339844-1,6.6669922-2.3330078
		s7.1660156-3,9.3330078-3.1669922c2.1669922-0.1660156,4,0.1669922,3.6669922,4.3339844l0.8330078,5
		c0,0,6.5004883,2.3330078,7.8344727,3.5c1.3320313,1.1660156,7,3.4990234,8,3.9990234s4.4980469,3,5.1660156,4.1669922
		c0.6660156,1.1669922,0.1660156,4.6660156-3.8339844,3.8330078l-5.8320313-3L38.75,33.8349609l5.6660156,4.6660156l3,2.3339844
		c0,0,1.1679688,3.8339844-4,4c0,0,0.5019531,2.8320313-4.3320313,3.1660156c0,0,0.1660156,3.3339844-4.6679688,1.8339844
		l-18.3330078-7.3339844l-6.8334961-6.5l-6,0.1669922L2.9165039,17.5019531z"/>
	<path style="fill:#EFB075;" d="M9.2583008,39.0224609c0.2114258-1.3359375,1.5458984-3.2851563,2.8989258-2.3183594
		c1.3535156,0.9658203,5.4121094,3.4794922,2.7060547,5.9912109S8.6787109,42.6953125,9.2583008,39.0224609z"/>
	<path style="fill:none;stroke:#420707;stroke-width:1.5;stroke-linecap:round;stroke-linejoin:round;stroke-miterlimit:11;" d="
		M9.2583008,39.0224609c0.2114258-1.3359375,1.5458984-3.2851563,2.8989258-2.3183594
		c1.3535156,0.9658203,5.4121094,3.4794922,2.7060547,5.9912109S8.6787109,42.6953125,9.2583008,39.0224609z"/>
	<path style="fill:#EFB075;" d="M16.7495117,47.0009766c-1.2758789-0.5097656-2.3330078-4.8339844-1.1665039-7
		s4.3330078-4.8330078,5.6665039-4.8330078s4.3339844-0.9990234,4.1669922,2.6669922c0,0,4.6669922-1,5,4
		c0,0,2.6655273-0.1679688,2.3330078,2.6660156c-0.3330078,2.8339844,0.1669922,5.3339844,0.1669922,5.3339844
		s-1.6669922,4.3320313-6.8334961-0.3339844c0,0-3.8330078,2.0009766-5.6665039-2.1660156
		C20.4165039,47.3349609,18.4160156,47.6669922,16.7495117,47.0009766z"/>
	<path style="fill:#BC8058;" d="M15.9165039,45.0009766c0,0,3.3334961,2,5.5-1.3330078l-0.6669922,2.8330078
		c0,0,1.1669922,4.0009766,6.3334961-0.1660156l-0.3334961,2.1660156c0,0,0.0009766,3,5.8339844,0
		c0,0,2.3325195,5.5009766-7.6669922,1.3339844c0,0-3.3330078,0.1660156-6-2.6669922
		C18.9165039,47.1679688,16.4165039,48.0009766,15.9165039,45.0009766z"/>
	<path style="fill:none;stroke:#420707;stroke-width:1.5;stroke-linecap:round;stroke-linejoin:round;stroke-miterlimit:11;" d="
		M16.7495117,47.0009766c-1.2758789-0.5097656-2.3330078-4.8339844-1.1665039-7s4.3330078-4.8330078,5.6665039-4.8330078
		s4.3339844-0.9990234,4.1669922,2.6669922c0,0,4.6669922-1,5,4c0,0,2.6655273-0.1679688,2.3330078,2.6660156
		c-0.3330078,2.8339844,0.1669922,5.3339844,0.1669922,5.3339844s-1.6669922,4.3320313-6.8334961-0.3339844
		c0,0-3.8330078,2.0009766-5.6665039-2.1660156C20.4165039,47.3349609,18.4160156,47.6669922,16.7495117,47.0009766z"/>
	<path style="fill:none;stroke:#420707;stroke-width:1.5;stroke-linecap:round;stroke-linejoin:round;stroke-miterlimit:11;" d="
		M20.4165039,47.3349609c0,0,3.5-7.3330078,5-9.5"/>
	
		<line style="fill:none;stroke:#420707;stroke-width:1.5;stroke-linecap:round;stroke-linejoin:round;stroke-miterlimit:11;" x1="26.0830078" y1="49.5009766" x2="30.4165039" y2="41.8349609"/>
	<path style="fill:#EFB075;" d="M44.25,15.0019531c-1.3339844-0.3339844-6.8339844-0.1669922-8.8339844-0.8339844
		c-2-0.6660156-4.6665039-0.3330078-7.6665039,2.5c-3,2.8339844-4.6665039,3.3339844-5.6665039,4.3339844s1,6.3330078-0.5,9.1660156
		c0,0,1.5004883,2.8339844,3.8334961,1.6669922s4.3330078-7.3330078,4.3330078-7.3330078l4.3344727-1.5"/>
	<path style="fill:none;stroke:#420707;stroke-width:1.5;stroke-linecap:round;stroke-linejoin:round;stroke-miterlimit:11;" d="
		M44.25,15.0019531c-1.3339844-0.3339844-6.8339844-0.1669922-8.8339844-0.8339844c-2-0.6660156-4.6665039-0.3330078-7.6665039,2.5
		c-3,2.8339844-4.6665039,3.3339844-5.6665039,4.3339844s1,6.3330078-0.5,9.1660156c0,0,1.5004883,2.8339844,3.8334961,1.6669922
		s4.3330078-7.3330078,4.3330078-7.3330078l4.3344727-1.5"/>
	
		<line style="fill:none;stroke:#420707;stroke-width:1.5;stroke-linecap:round;stroke-linejoin:round;stroke-miterlimit:11;" x1="36.9160156" y1="39.5009766" x2="43.4160156" y2="44.8349609"/>
	
		<line style="fill:none;stroke:#420707;stroke-width:1.5;stroke-linecap:round;stroke-linejoin:round;stroke-miterlimit:11;" x1="35.0839844" y1="45.5009766" x2="39.0839844" y2="48.0009766"/>
</g>
</svg>
