<?xml version="1.0" encoding="utf-8"?>
<!-- Generator: Adobe Illustrator 15.0.0, SVG Export Plug-In . SVG Version: 6.00 Build 0)  -->
<!DOCTYPE svg PUBLIC "-//W3C//DTD SVG 1.1//EN" "http://www.w3.org/Graphics/SVG/1.1/DTD/svg11.dtd">
<svg version="1.1" id="レイヤー_1" xmlns="http://www.w3.org/2000/svg" xmlns:xlink="http://www.w3.org/1999/xlink" x="0px"
	 y="0px" width="64px" height="64px" viewBox="0 0 64 64" style="enable-background:new 0 0 64 64;" xml:space="preserve">
<g>
	<path style="fill:#FFB643;" d="M31.375,22.125c0,0-5.125-16.25-5.625-17.625s-3.625-2-5.625,0.875s0.125,6.25,0.125,6.25
		l4.125,16.25C24.375,27.875,31.125,29.5,31.375,22.125z"/>
	<polygon style="fill:#DF8D0B;" points="28.375,18.625 29.375,16.625 31,20.375 29.25,22.25 	"/>
	<path style="fill:#DF8D0B;" d="M19.625,10.5c0,0,3.125,2,5.125-1.125l-3,8.25L19.625,10.5z"/>
	<path style="fill:#420707;" d="M25.890625,28.7456055L25.890625,28.7456055c-0.9580078,0-1.6547852-0.1650391-1.6835938-0.171875
		c-0.2592773-0.0625-0.4628906-0.2631836-0.5288086-0.5219727l-4.0947266-16.1313477
		c-0.4086914-0.6396484-2.0981445-3.6342773-0.0483398-6.5805664c1.152832-1.6577148,2.4672852-2.4980469,3.9057617-2.4980469
		c0.9433594,0,1.9008789,0.3823242,2.769043,1.105957c1.1723633,0.9765625,4.487793,12.90625,5.8588867,17.9902344
		c0.0185547,0.0688477,0.0268555,0.1401367,0.0244141,0.2114258C31.8916016,28.1025391,27.6884766,28.7456055,25.890625,28.7456055z
		 M24.9570313,27.246582c0.2368164,0.0317383,0.5610352,0.0620117,0.9335938,0.0620117
		c2.0766602,0,4.5786133-0.8886719,4.762207-5.1020508c-2.1162109-7.8364258-4.703125-16.3793945-5.3916016-17.1816406
		c-0.3945313-0.3256836-1.0585938-0.7460938-1.8203125-0.7460938c-0.9404297,0-1.8574219,0.6333008-2.7260742,1.8813477
		c-1.6923828,2.4331055,0.1030273,5.0234375,0.121582,5.0493164c0.0512695,0.0722656,0.0883789,0.1533203,0.1103516,0.2387695
		L24.9570313,27.246582z"/>
	<path style="fill:#FFB643;" d="M18.75,34.125c0,0,1.375-12.125,2-14.75s1.375-4.25,2.75-6.375s5.75-11.25,5.75-11.25
		s4.625,0.625,4.125,4.875c-0.3823242,3.2490234-5,12-5,12v5.25"/>
	<path style="fill:#DF8D0B;" d="M19.625,31l8.125-8L28,24.375C28,24.375,16.75,37.875,19.625,31z"/>
	<path style="fill:#420707;" d="M18.7509766,34.84375c-0.0273438,0-0.0546875-0.0019531-0.0820313-0.0048828
		c-0.394043-0.0449219-0.6777344-0.4003906-0.6328125-0.7949219c0.0561523-0.4970703,1.3867188-12.1982422,2.0146484-14.8354492
		c0.4365234-1.8320313,1.0898438-3.0942383,1.7817383-4.4306641c0.3334961-0.6445313,0.6787109-1.3110352,1.0092773-2.065918
		c2.640625-6.0361328,3.5302734-8.0698242,5.8251953-11.2568359c0.059082-0.0820313,0.1347656-0.1508789,0.2226563-0.2016602
		c0.7001953-0.4052734,1.5810547-0.3974609,2.418457,0.0224609c1.4702148,0.7382813,2.5356445,2.5166016,2.7807617,4.6416016
		c0.3740234,3.2426758-4.1176758,11.3510742-4.9951172,12.8979492V23.875c0,0.3969727-0.3217773,0.71875-0.71875,0.71875
		s-0.71875-0.3217773-0.71875-0.71875v-5.25c0-0.1254883,0.0327148-0.2485352,0.0952148-0.3574219
		c1.4624023-2.5507813,5.1948242-9.7128906,4.909668-12.1850586c-0.2275391-1.9736328-1.21875-3.1308594-1.9980469-3.5219727
		c-0.2089844-0.1044922-0.5878906-0.2485352-0.9350586-0.1191406c-2.1289063,2.9814453-3.0161133,5.0097656-5.5698242,10.8466797
		c-0.3491211,0.7978516-0.7050781,1.4858398-1.0493164,2.1508789c-0.6787109,1.3100586-1.2646484,2.4418945-1.659668,4.1025391
		c-0.6079102,2.5532227-1.9716797,14.543457-1.9853516,14.6645508C19.4223633,34.5732422,19.1113281,34.84375,18.7509766,34.84375z"
		/>
	<path style="fill:#FFB643;" d="M43.25,60H23.125l0.75-4.875c0,0-6.25-10-6.5-12.25s-1.25-4.625,1-7.875s6.75-7.125,8.875-9.875
		s3.5-5.375,3.5-5.375s4.9501953-1.0263672,6.875,1c2.375,2.5,2.25,4.875,2.25,4.875S43.5,25.75,45,29.375S47.25,42.5,45.875,46.25
		s-2.75,7-2.75,7L43.25,60z"/>
	<path style="fill:#DF8D0B;" d="M22.75,52.25c0,0,7,3,9.375,3s-0.25,0.875-0.25,0.875l-8,0.125L22.75,52.25z"/>
	<path style="fill:#DF8D0B;" d="M43.25,52.75l-4.125,2c0,0,0.625,1.125,2.375,1.125S43,55.75,43.25,52.75z"/>
	<path style="fill:#DF8D0B;" d="M30.75,33.5c0,0,5.375-2,5.75,3.25c0,0,1.25,2.625,4.5,3.5l1.125-3.125L43.75,36.5
		c0,0,1,3.875-1.625,4.875S36.5,48.75,36.5,48.75l-3-0.25c0,0,3.125-10.25-4.25-13.125L30.75,33.5z"/>
	<path style="fill:#420707;" d="M43.2695313,60.71875c-0.0058594,0-0.0126953-0.0009766-0.0195313,0H23.125
		c-0.2094727,0-0.4086914-0.0917969-0.5454102-0.2509766s-0.1967773-0.3701172-0.1650391-0.5771484l0.7094727-4.6113281
		c-1.0869141-1.75-6.2163086-10.1025391-6.4633789-12.3251953c-0.0424805-0.3837891-0.1083984-0.7724609-0.1748047-1.1679688
		c-0.3212891-1.90625-0.7207031-4.2792969,1.2983398-7.1953125c1.2993164-1.8769531,3.2739258-3.8999023,5.1831055-5.855957
		c1.4448242-1.4804688,2.809082-2.878418,3.7138672-4.0493164c2.0585938-2.6635742,3.4189453-5.2431641,3.4321289-5.269043
		c0.1044922-0.1987305,0.2958984-0.3378906,0.5170898-0.375c0.0454102-0.0078125,1.125-0.1875,2.5024414-0.1875
		c2.2275391,0,3.8945313,0.453125,4.9550781,1.3461914c1.9179688,1.6157227,2.3730469,3.7250977,2.4775391,4.7871094
		c1.2285156,0.222168,3.8310547,1.0493164,5.0986328,4.112793c1.5908203,3.8452148,2.3173828,13.4916992,0.8857422,17.3969727
		c-1.2050781,3.2861328-2.4238281,6.2236328-2.703125,6.8916016l0.1191406,6.4296875
		C43.9804688,59.8759766,43.9882813,59.9375,43.9882813,60C43.9882813,60.3964844,43.6669922,60.71875,43.2695313,60.71875z
		 M23.9624023,59.28125h18.5551758L42.40625,53.2636719c-0.0019531-0.1005859,0.0175781-0.2011719,0.0566406-0.2939453
		c0.0136719-0.0322266,1.3847656-3.2783203,2.7373047-6.9667969c1.2861328-3.5068359,0.5722656-12.8828125-0.8642578-16.3530273
		c-1.3076172-3.1611328-4.4541016-3.3056641-4.4853516-3.3066406c-0.1923828-0.0068359-0.3730469-0.0893555-0.5029297-0.2304688
		c-0.1308594-0.140625-0.1992188-0.3276367-0.1904297-0.519043c0.0029297-0.1010742,0.0664063-2.5581055-1.9951172-4.2939453
		c-0.7832031-0.659668-2.1767578-1.0083008-4.0292969-1.0083008c-0.8154297,0-1.5253906,0.0703125-1.9238281,0.1196289
		c-0.4404297,0.7973633-1.6660156,2.921875-3.3901367,5.1533203c-0.9560547,1.2368164-2.3486328,2.6635742-3.8227539,4.1743164
		c-1.8681641,1.9135742-3.7998047,3.8930664-5.0302734,5.6704102c-1.6860352,2.4355469-1.3833008,4.234375-1.0629883,6.1386719
		c0.0712891,0.4228516,0.140625,0.8369141,0.1865234,1.2480469c0.1689453,1.5205078,4.012207,8.1357422,6.3950195,11.9482422
		c0.0913086,0.1464844,0.1269531,0.3203125,0.1010742,0.4902344L23.9624023,59.28125z"/>
	<path style="fill:#420707;" d="M33.875,48.09375c-0.0703125,0-0.1425781-0.0107422-0.2138672-0.0332031
		c-0.3789063-0.1181641-0.5908203-0.5214844-0.4716797-0.8994141c0.7431641-2.3808594,0.1621094-6.2099609-1.324707-8.7167969
		c-0.5566406-0.9384766-1.4868164-2.1113281-2.7558594-2.3642578c-0.2509766-0.0507813-0.4560547-0.2304688-0.5390625-0.4726563
		c-0.0825195-0.2421875-0.0302734-0.5107422,0.1376953-0.7041016c0.0483398-0.0546875,4.8149414-5.5932617,4.6987305-9.7583008
		c-0.1083984-3.9199219-2.815918-4.6938477-2.8432617-4.7011719c-0.3833008-0.1030273-0.6098633-0.4975586-0.5068359-0.8808594
		c0.1035156-0.3828125,0.4980469-0.6118164,0.8808594-0.5068359c0.1538086,0.0415039,3.7680664,1.0712891,3.9067383,6.0488281
		c0.1035156,3.7441406-2.9951172,8.1450195-4.3920898,9.9331055c0.9951172,0.4980469,1.8969727,1.4052734,2.6489258,2.6738281
		c1.6982422,2.8623047,2.3251953,7.1083984,1.4599609,9.8769531C34.4648438,47.8964844,34.1816406,48.09375,33.875,48.09375z"/>
	<path style="fill:#420707;" d="M32.8740234,39.21875c-0.3491211,0-0.6557617-0.2548828-0.7094727-0.6113281
		c-0.0595703-0.3925781,0.2104492-0.7587891,0.6030273-0.8183594c3.2207031-0.4873047,3.7246094-1.7861328,4.3076172-3.2900391
		c0.0859375-0.2207031,0.171875-0.4404297,0.2646484-0.6572266c0.5810547-1.355957,1.3310547-7.0820313,1.5712891-9.1738281
		c0.0449219-0.3935547,0.3974609-0.6801758,0.7958984-0.6318359c0.3945313,0.0454102,0.6767578,0.4013672,0.6318359,0.7958984
		c-0.0908203,0.7910156-0.9091797,7.78125-1.6787109,9.5761719c-0.0859375,0.2011719-0.1650391,0.4052734-0.2441406,0.6103516
		c-0.6191406,1.5947266-1.3886719,3.5791016-5.4335938,4.1923828C32.9462891,39.2158203,32.909668,39.21875,32.8740234,39.21875z"/>
	<path style="fill:#420707;" d="M38.4462891,42.3476563c-2.359375,0-4.4257813-3.1845703-4.6806641-3.5917969
		c-0.2099609-0.3359375-0.1083984-0.7792969,0.2285156-0.9892578c0.3359375-0.2099609,0.7802734-0.1074219,0.9902344,0.2265625
		c0.5683594,0.90625,2.5029297,3.3710938,3.8798828,2.8369141c1.5419922-0.5996094,2.3691406-2.9873047,2.5585938-3.8564453
		c0.0117188-0.0537109,0.0292969-0.1074219,0.0537109-0.1572266l1.25-2.625
		c0.1708984-0.3583984,0.5986328-0.5117188,0.9570313-0.3398438c0.3583984,0.1699219,0.5107422,0.5986328,0.3398438,0.9570313
		l-1.2158203,2.5546875c-0.1416016,0.5927734-1.0263672,3.875-3.421875,4.8066406
		C39.0693359,42.2929688,38.7548828,42.3476563,38.4462891,42.3476563z"/>
</g>
</svg>
