<?xml version="1.0" encoding="utf-8"?>
<!-- Generator: Adobe Illustrator 15.0.2, SVG Export Plug-In . SVG Version: 6.00 Build 0)  -->
<!DOCTYPE svg PUBLIC "-//W3C//DTD SVG 1.1//EN" "http://www.w3.org/Graphics/SVG/1.1/DTD/svg11.dtd">
<svg version="1.1" id="レイヤー_1" xmlns="http://www.w3.org/2000/svg" xmlns:xlink="http://www.w3.org/1999/xlink" x="0px"
	 y="0px" width="64px" height="64px" viewBox="0 0 64 64" style="enable-background:new 0 0 64 64;" xml:space="preserve">
<g>
	<g>
		
			<linearGradient id="SVGID_1_" gradientUnits="userSpaceOnUse" x1="305.8964844" y1="-304.0600586" x2="305.8964844" y2="-356.8203125" gradientTransform="matrix(1 0 0 -1 -274 -298)">
			<stop  offset="0" style="stop-color:#9FE1FF"/>
			<stop  offset="0.2621" style="stop-color:#60A1CE"/>
			<stop  offset="0.5708" style="stop-color:#1B5B97"/>
			<stop  offset="0.7151999" style="stop-color:#004082"/>
			<stop  offset="0.7693999" style="stop-color:#004487"/>
			<stop  offset="0.8311" style="stop-color:#005094"/>
			<stop  offset="0.8963" style="stop-color:#0064AB"/>
			<stop  offset="0.9636" style="stop-color:#0080CB"/>
			<stop  offset="1" style="stop-color:#0092DF"/>
		</linearGradient>
		<path style="fill:url(#SVGID_1_);" d="M58.3144531,50.8203125c0,4.4003906-3.6005859,8-8,8H13.4799805
			c-4.3999023,0-8-3.5996094-8-8V14.0600586c0-4.3999023,3.6000977-8,8-8h36.8344727c4.3994141,0,8,3.6000977,8,8V50.8203125z"/>
	</g>
	<g>
		<path style="fill:#FFFFFF;" d="M37.8720703,38.4433594l-1.8193359,12.7822266h-3.9492188l1.8701172-12.7822266H28.206543
			l-1.8188477,12.7822266h-3.8964844l1.8188477-12.7822266h-6.9633789l0.4155273-3.3261719h7.0151367l0.9360352-6.5981445H18.75
			l0.4155273-3.378418h7.0151367l1.8178711-12.3662109h3.8969727L30.0761719,25.140625h5.7685547l1.765625-12.3662109h3.8984375
			L39.7421875,25.140625h6.9111328l-0.4677734,3.378418h-6.9111328l-0.9365234,6.5981445H45.25l-0.4677734,3.3261719H37.8720703z
			 M34.4423828,35.1171875l0.9335938-6.5981445h-5.7670898l-0.9345703,6.5981445H34.4423828z"/>
	</g>
	<g style="opacity:0.22;">
		<path style="fill:#FFFFFF;" d="M5.4799805,26.8129883C12.8608398,29.1958008,22,32.9394531,31.8969727,32.9394531
			c9.8979492,0,19.0366211-3.7436523,26.4174805-6.1264648c0,0,2.1035156-13.8359375-1.9179688-18.2700195
			C45.5917969,3.1831055,18.9848633,5.1889648,8.1469727,7.9648438C3.7231445,12.0571289,5.4799805,26.8129883,5.4799805,26.8129883
			z"/>
	</g>
	<g>
		<path style="fill:#057CDD;" d="M50.3144531,59.8203125H13.4799805c-4.9624023,0-9-4.0371094-9-9V14.0600586
			c0-4.9624023,4.0375977-9,9-9h36.8344727c4.9628906,0,9,4.0375977,9,9v36.7602539
			C59.3144531,55.7832031,55.2773438,59.8203125,50.3144531,59.8203125z M13.4799805,7.0600586c-3.8598633,0-7,3.1401367-7,7
			v36.7602539c0,3.859375,3.1401367,7,7,7h36.8344727c3.859375,0,7-3.140625,7-7V14.0600586c0-3.8598633-3.140625-7-7-7H13.4799805z
			"/>
	</g>
</g>
</svg>
