<?xml version="1.0" encoding="utf-8"?>
<!-- Generator: Adobe Illustrator 15.0.0, SVG Export Plug-In . SVG Version: 6.00 Build 0)  -->
<!DOCTYPE svg PUBLIC "-//W3C//DTD SVG 1.1//EN" "http://www.w3.org/Graphics/SVG/1.1/DTD/svg11.dtd">
<svg version="1.1" id="レイヤー_1" xmlns="http://www.w3.org/2000/svg" xmlns:xlink="http://www.w3.org/1999/xlink" x="0px"
	 y="0px" width="64px" height="64px" viewBox="0 0 64 64" style="enable-background:new 0 0 64 64;" xml:space="preserve">
<g>
	<g>
		<path style="fill:#2D0000;" d="M36.3544922,13.3081055c-0.1347656,0-0.2714844-0.0273438-0.4003906-0.0834961
			c-0.4111328-0.1796875-0.6523438-0.6108398-0.5898438-1.0551758c0.625-4.4658203,2.1953125-7.6308594,4.6669922-9.4082031
			c2.6884766-1.9311523,5.4287109-1.4438477,5.5439453-1.4223633c0.5429688,0.1020508,0.9003906,0.6245117,0.7978516,1.1669922
			c-0.1005859,0.5405273-0.6142578,0.902832-1.1601563,0.7998047l0,0c-0.0820313-0.0141602-2.0693359-0.3383789-4.0478516,1.1044922
			c-1.4775391,1.0776367-2.5664063,2.84375-3.2519531,5.2685547c2.1474609-1.3955078,5.7226563-2.7675781,10.515625-1.3261719
			c0.5292969,0.1591797,0.8291016,0.7167969,0.6699219,1.2456055c-0.1601563,0.5273438-0.7167969,0.8286133-1.2460938,0.6694336
			c-6.7773438-2.0380859-10.6845703,2.6254883-10.7236328,2.6728516
			C36.9345703,13.1787109,36.6474609,13.3081055,36.3544922,13.3081055z"/>
		<path style="fill:#2D0000;" d="M36.3554688,13.3081055c-0.2919922,0-0.5800781-0.1264648-0.7783203-0.3706055
			C30.8828125,7.1425781,35.2060547,3.0561523,35.25,3.0151367c0.40625-0.3725586,1.0390625-0.3466797,1.4130859,0.0605469
			c0.3720703,0.4052734,0.3466797,1.034668-0.0556641,1.4086914c-0.3115234,0.2958984-2.8994141,2.9682617,0.5244141,7.1943359
			c0.3476563,0.4291992,0.28125,1.0585938-0.1474609,1.40625C36.7988281,13.2353516,36.5761719,13.3081055,36.3554688,13.3081055z"
			/>
	</g>
	<g>
		<path style="fill:#2D0000;" d="M19.8154297,53.1474609c-0.0219727,0-0.0439453-0.0009766-0.065918-0.0019531
			c-0.2871094-0.0195313-0.5522461-0.1611328-0.7275391-0.3896484l-3.2890625-4.2890625
			c-0.3359375-0.4384766-0.253418-1.0654297,0.1850586-1.4023438c0.4370117-0.3349609,1.0654297-0.2529297,1.4018555,0.1855469
			l2.6674805,3.4785156c3.6533203-2.3730469,9.1445313,0.4003906,9.3955078,0.5292969
			c0.4912109,0.2529297,0.684082,0.8544922,0.4321289,1.3457031c-0.2524414,0.4902344-0.855957,0.6855469-1.3452148,0.4335938
			c-0.0537109-0.0263672-5.4072266-2.7207031-7.9472656-0.1826172
			C20.3339844,53.0429688,20.0795898,53.1474609,19.8154297,53.1474609z"/>
		<path style="fill:#2D0000;" d="M14.5136719,56.7363281c-0.3378906,0-0.6674805-0.1708984-0.855957-0.4814453
			c-0.2866211-0.4716797-0.1362305-1.0869141,0.3359375-1.3730469c0.0239258-0.0146484,1.7524414-1.0664063,3.4360352-2.2285156
			c-2.3017578-0.3583984-4.7827148-0.4208984-4.8154297-0.421875c-0.5522461-0.0136719-0.9892578-0.4716797-0.9760742-1.0234375
			c0.0126953-0.5517578,0.4506836-0.9716797,1.0229492-0.9765625c0.1889648,0.0048828,4.6582031,0.1181641,7.4428711,0.9589844
			c0.3569336,0.1074219,0.6240234,0.4042969,0.6938477,0.7695313c0.0698242,0.3662109-0.0698242,0.7402344-0.3618164,0.9716797
			c-2.0307617,1.6064453-5.2675781,3.5761719-5.4042969,3.6591797
			C14.8696289,56.6894531,14.6904297,56.7363281,14.5136719,56.7363281z"/>
	</g>
	<g>
		<path style="fill:#2D0000;" d="M46.5488281,60.9316406c-0.2128906,0-0.4277344-0.0683594-0.609375-0.2080078
			c-2.2792969-1.7578125-4.7714844-2.2197266-4.796875-2.2246094c-0.4804688-0.0859375-0.8291016-0.5078125-0.8232422-0.9960938
			c0.0234375-1.9570313-2.0888672-4.0673828-2.9042969-4.7148438c-0.4326172-0.34375-0.5048828-0.9726563-0.1611328-1.4052734
			c0.3427734-0.4316406,0.9736328-0.5039063,1.4052734-0.1611328c0.1386719,0.1103516,3.1367188,2.5244141,3.6005859,5.4912109
			c1.0537109,0.2919922,3.03125,0.984375,4.9003906,2.4267578c0.4375,0.3378906,0.5185547,0.9658203,0.1816406,1.4023438
			C47.1445313,60.7978516,46.8486328,60.9316406,46.5488281,60.9316406z"/>
		<path style="fill:#2D0000;" d="M42.5322266,62.7314453c-0.4345703,0-0.8349609-0.2851563-0.9609375-0.7236328
			l-1.2128906-4.2167969c-0.0654297-0.2255859-0.0488281-0.4667969,0.046875-0.6816406
			c1.0849609-2.4433594,5.3652344-2.2724609,6.2138672-2.2177734c0.5498047,0.0380859,0.9658203,0.515625,0.9277344,1.0664063
			c-0.0371094,0.5498047-0.4882813,0.9609375-1.0654297,0.9296875c-1.3857422-0.0996094-3.40625,0.1386719-4.0742188,0.7919922
			l1.0859375,3.7753906c0.1523438,0.5302734-0.1533203,1.0849609-0.6845703,1.2373047
			C42.7167969,62.71875,42.6230469,62.7314453,42.5322266,62.7314453z"/>
	</g>
	<g>
		
			<linearGradient id="SVGID_1_" gradientUnits="userSpaceOnUse" x1="15.4248047" y1="42.3789063" x2="22.3481445" y2="42.3789063" gradientTransform="matrix(0.8669 0.4984 -0.4984 0.8669 26.8429184 -5.6554871)">
			<stop  offset="0" style="stop-color:#FFC000"/>
			<stop  offset="0.1905768" style="stop-color:#FFC105"/>
			<stop  offset="0.4029312" style="stop-color:#FFC412"/>
			<stop  offset="0.6257544" style="stop-color:#FFCA28"/>
			<stop  offset="0.8543096" style="stop-color:#FFD147"/>
			<stop  offset="1" style="stop-color:#FFD75F"/>
		</linearGradient>
		<path style="fill:url(#SVGID_1_);" d="M26.7944336,39.2646484l-7.394043-1.0283203c0,0-1.8330078,3.6699219,3.2753906,6.5283203"
			/>
		<path style="fill:#2D0000;" d="M22.1308594,45.7382813c-5.96875-3.3398438-3.7519531-7.9541016-3.7290039-8.0009766
			l0.3583984-0.7167969l8.1879883,1.1386719l-0.3076172,2.2109375l-6.4375-0.8955078
			c-0.1147461,0.9746094,0.1748047,2.7255859,3.0175781,4.3164063L22.1308594,45.7382813z"/>
	</g>
	<g>
		<linearGradient id="SVGID_2_" gradientUnits="userSpaceOnUse" x1="53.0449219" y1="47.3974609" x2="21.5580826" y2="42.3393135">
			<stop  offset="0" style="stop-color:#FFC000"/>
			<stop  offset="0.1905768" style="stop-color:#FFC105"/>
			<stop  offset="0.4029312" style="stop-color:#FFC412"/>
			<stop  offset="0.6257544" style="stop-color:#FFCA28"/>
			<stop  offset="0.8543096" style="stop-color:#FFD147"/>
			<stop  offset="1" style="stop-color:#FFD75F"/>
		</linearGradient>
		<path style="fill:url(#SVGID_2_);" d="M51.3447266,43.65625l-5.9482422-0.2851563
			c-0.0019531-0.0048828-0.0058594-0.0087891-0.0058594-0.0136719c0-3.2783203-2.3291016-7.5683594-2.3291016-7.5683594
			s-9.265625-2.824707-13.2905273,0.7763672c0,0-6.8149414,1.1542969-6.8066406,9.3056641
			c0.0058594,5.7919922,7.2558594,12.0283203,20.668457,5.7626953C52.1083984,51.1025391,51.3447266,43.65625,51.3447266,43.65625z"
			/>
		<path style="fill:#2D0000;" d="M33.3730469,55.2470703c0,0,0,0-0.0009766,0c-7.4033203,0-11.4033203-4.8300781-11.4077148-9.375
			c-0.0078125-7.8769531,5.9301758-9.8642578,7.3417969-10.2255859c1.543457-1.2675781,3.7924805-1.9111328,6.6918945-1.9111328
			c3.7138672,0,7.2080078,1.0527344,7.3554688,1.0966797l0.3916016,0.1201172l0.1953125,0.359375
			c0.0908203,0.1679688,2.0527344,3.8144531,2.3984375,7.1035156l5.9130859,0.2832031l0.0878906,0.8564453
			c0.0136719,0.140625,0.328125,3.4853516-1.8974609,6.1123047c-1.4775391,1.7431641-3.6826172,2.7353516-6.5566406,2.9521484
			C40.1044922,54.3632813,36.5683594,55.2470703,33.3730469,55.2470703z M35.9980469,35.7353516
			c-2.5214844,0-4.3920898,0.5302734-5.5605469,1.5751953l-0.2148438,0.1923828l-0.284668,0.0488281
			c-0.2402344,0.0419922-5.980957,1.1484375-5.9736328,8.3183594c0.0039063,3.6660156,3.2363281,7.3769531,9.4077148,7.3769531
			c0.0009766,0,0.0009766,0,0.0009766,0c2.9482422,0,6.2578125-0.8476563,9.8369141-2.5195313l0.1708984-0.0800781
			l0.1894531-0.0117188c2.4033203-0.1503906,4.2011719-0.9121094,5.3457031-2.2617188
			c1.0878906-1.2841797,1.3691406-2.8271484,1.4316406-3.7646484l-5.640625-0.2705078l-0.3134766-0.7011719l-0.0029297-0.2802734
			c0-2.4560547-1.4833984-5.6503906-2.0185547-6.7226563C41.3857422,36.3720703,38.7158203,35.7353516,35.9980469,35.7353516z"/>
	</g>
	<g>
		<linearGradient id="SVGID_3_" gradientUnits="userSpaceOnUse" x1="39.4902344" y1="43.5722656" x2="31.8026867" y2="24.1131878">
			<stop  offset="0" style="stop-color:#FFC000"/>
			<stop  offset="0.1905768" style="stop-color:#FFC105"/>
			<stop  offset="0.4029312" style="stop-color:#FFC412"/>
			<stop  offset="0.6257544" style="stop-color:#FFCA28"/>
			<stop  offset="0.8543096" style="stop-color:#FFD147"/>
			<stop  offset="1" style="stop-color:#FFD75F"/>
		</linearGradient>
		<path style="fill:url(#SVGID_3_);" d="M46.2636719,26.1279297c-0.140625-14.3740234-11.5683594-12.9399414-11.5683594-12.9399414
			s-11.6474609-1.434082-11.7885742,12.9399414c0,0-3.7163086,0.9267578-3.7973633,4.7954102
			c-0.1040039,4.9516602,4.5117188,7.4125977,15.5859375,7.4125977S50.1650391,35.875,50.0625,30.9233398
			C49.9804688,27.0546875,46.2636719,26.1279297,46.2636719,26.1279297z"/>
		<path style="fill:#2D0000;" d="M34.6953125,39.3359375c-7.6757813,0-12.3701172-1.1425781-14.7729492-3.5966797
			c-1.2436523-1.2695313-1.8535156-2.8979492-1.8129883-4.8369141c0.065918-3.1357422,2.2255859-4.8300781,3.8134766-5.4946289
			c0.4443359-12.2900391,9.1972656-13.2592773,11.9121094-13.2592773c0.4052734,0,0.703125,0.0205078,0.859375,0.0341797
			c0.1542969-0.0136719,0.4472656-0.0341797,0.8447266-0.0341797c2.6679688,0,11.2705078,0.9692383,11.7089844,13.2597656
			c1.5878906,0.6640625,3.7480469,2.3579102,3.8144531,5.4941406c0.0410156,1.9780273-0.5712891,3.6269531-1.8183594,4.9003906
			C46.8828125,38.2128906,42.2597656,39.3359375,34.6953125,39.3359375z M33.8349609,14.1484375
			c-2.949707,0-9.8222656,1.1679688-9.9282227,11.9892578l-0.0078125,0.7734375l-0.75,0.1870117
			c-0.1166992,0.0307617-2.9760742,0.8125-3.0395508,3.8461914c-0.0297852,1.4008789,0.3764648,2.5117188,1.2416992,3.3955078
			c1.9741211,2.0166016,6.3393555,2.9960938,13.3442383,2.9960938c6.8955078,0,11.1875-0.9589844,13.1201172-2.9326172
			c0.8691406-0.8876953,1.2773438-2.019043,1.2470703-3.4594727c-0.0644531-3.0332031-2.9238281-3.8149414-3.0458984-3.847168
			l-0.7402344-0.1928711l-0.0126953-0.7661133c-0.1054688-10.8212891-6.8359375-11.9892578-9.7246094-11.9892578
			c-0.4277344,0-0.6933594,0.0288086-0.7216797,0.0322266l-0.1210938,0.0141602l-0.1230469-0.0141602
			C34.5478516,14.1777344,34.2744141,14.1484375,33.8349609,14.1484375z"/>
	</g>
	<g>
		
			<linearGradient id="SVGID_4_" gradientUnits="userSpaceOnUse" x1="42.1503906" y1="39.296875" x2="49.1865463" y2="43.342289" gradientTransform="matrix(0.9947 0.1031 -0.1031 0.9947 4.7193522 -4.2474823)">
			<stop  offset="0" style="stop-color:#FFC000"/>
			<stop  offset="0.1905768" style="stop-color:#FFC105"/>
			<stop  offset="0.4029312" style="stop-color:#FFC412"/>
			<stop  offset="0.6257544" style="stop-color:#FFCA28"/>
			<stop  offset="0.8543096" style="stop-color:#FFD147"/>
			<stop  offset="1" style="stop-color:#FFD75F"/>
		</linearGradient>
		<path style="fill:url(#SVGID_4_);" d="M42.6328125,39.1328125c0,0,6.6279297-0.4443359,7.4072266,0.0136719
			c0,0,0.6875,6.4804688-4.7041016,7.4296875"/>
		<path style="fill:#2D0000;" d="M45.5292969,47.6748047l-0.3867188-2.1972656
			c3.3339844-0.5878906,3.7910156-3.8427734,3.8164063-5.3964844c-1.2666016-0.0732422-3.9609375,0.0117188-6.2519531,0.1650391
			l-0.1484375-2.2265625c6.96875-0.4667969,7.78125,0.0087891,8.046875,0.1650391l0.4853516,0.2851563l0.0585938,0.5585938
			C51.4257813,41.6289063,50.6054688,46.78125,45.5292969,47.6748047z"/>
	</g>
	<g>
		<path style="fill:#FF7F1F;" d="M30.4042969,35.6679688c0,0,1.6699219,2.0224609,4.1679688,2.0224609
			c2.71875,0,3.9472656-1.7548828,4.1679688-2.0224609C38.7402344,35.6679688,35.1035156,33.0390625,30.4042969,35.6679688z"/>
		<path style="fill:#2D0000;" d="M34.5722656,38.1904297c-2.7026367,0-4.4790039-2.1142578-4.5537109-2.2041016l0.1416016-0.7548828
			C31.621582,34.4140625,33.1337891,34,34.6542969,34c2.6015625,0,4.3076172,1.2109375,4.3789063,1.2626953l0.0927734,0.7236328
			C37.6787109,37.8164063,35.8544922,38.1904297,34.5722656,38.1904297z M31.2416992,35.7978516
			c0.6157227,0.5458984,1.815918,1.3925781,3.3305664,1.3925781c1.3681641,0,2.5087891-0.46875,3.3984375-1.3945313
			C37.3525391,35.4775391,36.1708984,35,34.6542969,35C33.5087891,35,32.3642578,35.2675781,31.2416992,35.7978516z"/>
	</g>
	<g>
		<path style="fill:#FF7F1F;" d="M34.5722656,32.1323242c-3.4570313,0.0351563-4.6274414,3.137207-4.6274414,3.137207
			c0.8525391,1.0986328,4.6274414,0.3603516,4.6274414,0.3603516s3.7753906,0.7382813,4.6269531-0.3603516
			C39.1992188,35.2695313,38.0292969,32.1674805,34.5722656,32.1323242z"/>
		<path style="fill:#2D0000;" d="M37.0332031,36.5722656L37.0332031,36.5722656
			c-1.0488281,0-2.0957031-0.1660156-2.4609375-0.2304688c-0.3652344,0.0644531-1.4121094,0.2304688-2.4609375,0.2304688
			c-1.3735352,0-2.2631836-0.2851563-2.7197266-0.8740234l-0.1015625-0.6757813
			c0.0546875-0.1445313,1.3842773-3.550293,5.2753906-3.590332c3.9052734,0.0400391,5.234375,3.4458008,5.2890625,3.590332
			l-0.1015625,0.6757813C39.296875,36.2861328,38.4072266,36.5722656,37.0332031,36.5722656z M34.7060547,34.9423828
			c0.0117188,0.0029297,1.1933594,0.2304688,2.3271484,0.2304688c0.6357422,0,1.0273438-0.0693359,1.265625-0.1455078
			c-0.453125-0.7695313-1.5732422-2.1733398-3.7333984-2.1948242c-2.1386719,0.0214844-3.2626953,1.4272461-3.7177734,2.1958008
			c0.2382813,0.0751953,0.6298828,0.1445313,1.2636719,0.1445313c1.1386719,0,2.3144531-0.2275391,2.3261719-0.2294922
			L34.7060547,34.9423828z"/>
	</g>
	
		<ellipse transform="matrix(0.9999483 0.0101638 -0.0101638 0.9999483 0.3155346 -0.2379189)" style="opacity:0.58;fill:#FF7069;" cx="23.5656738" cy="30.9250488" rx="2.5702012" ry="1.7532694"/>
	
		<ellipse transform="matrix(0.9999483 0.0101648 -0.0101648 0.9999483 0.3166809 -0.4585114)" style="opacity:0.58;fill:#FF7069;" cx="45.2651367" cy="30.9245605" rx="2.569957" ry="1.7537551"/>
	<path style="fill:#2D0000;" d="M27.1416016,24.8369141c-0.8603516,0-1.5737305,0.9277344-1.7226563,2.1494141l1.6933594,0.8442383
		l-1.543457,0.7685547c0.284668,0.8740234,0.8789063,1.4814453,1.5727539,1.4814453
		c0.9697266,0,1.7558594-1.1743164,1.7558594-2.6225586C28.8974609,26.0102539,28.1113281,24.8369141,27.1416016,24.8369141z"/>
	<path style="fill:#2D0000;" d="M42.0439453,24.8369141c-0.8515625,0-1.5595703,0.9052734-1.7197266,2.1054688l1.78125,0.8881836
		l-1.6201172,0.8076172c0.2890625,0.8520508,0.875,1.4423828,1.5585938,1.4423828
		c0.9697266,0,1.7548828-1.1743164,1.7548828-2.6225586C43.7988281,26.0102539,43.0136719,24.8369141,42.0439453,24.8369141z"/>
	<g>
		<linearGradient id="SVGID_5_" gradientUnits="userSpaceOnUse" x1="34.4589844" y1="43.1904297" x2="34.4589844" y2="54.5825882">
			<stop  offset="0" style="stop-color:#FFFADF"/>
			<stop  offset="0.6420889" style="stop-color:#FFE7BD"/>
			<stop  offset="1" style="stop-color:#FFDBA8"/>
		</linearGradient>
		<path style="fill:url(#SVGID_5_);" d="M22.3256836,40.7919922c0,0-4.7368164,11.7890625,8.6743164,14.0410156
			c12.4335938,2.0888672,18.2216797-4.5029297,15.9003906-12.8652344l-2.7207031,1.5263672l-2.8681641-2.4033203
			l-3.3710938,2.2041016l-3.3535156-2.5029297l-2.9794922,2.1044922l-3.0849609-2.1044922l-3.1054688,1.8535156
			L22.3256836,40.7919922z"/>
		<path style="fill:#2D0000;" d="M35.4033203,56.2226563c-1.4365234,0-2.9736328-0.1357422-4.5688477-0.4033203
			c-4.4262695-0.7431641-7.4829102-2.5683594-9.0854492-5.4257813c-2.5107422-4.4765625-0.4404297-9.7519531-0.3510742-9.9746094
			l0.4370117-1.0869141l3.5830078,2.1484375l3.140625-1.8740234l3.0390625,2.0722656l3.0058594-2.1220703l3.375,2.5185547
			l3.40625-2.2275391l2.9082031,2.4365234l3.2304688-1.8125l0.3408203,1.2285156
			c1.0595703,3.8203125,0.5400391,7.3759766-1.4648438,10.0126953
			C44.1884766,54.6210938,40.2832031,56.2226563,35.4033203,56.2226563z M22.90625,42.3066406
			c-0.3994141,1.5986328-0.831543,4.5898438,0.5932617,7.1191406c1.2939453,2.296875,3.8730469,3.7841797,7.6660156,4.4208984
			c1.4858398,0.25,2.9116211,0.3759766,4.237793,0.3759766c4.3017578,0,7.5537109-1.2861328,9.4042969-3.7207031
			c1.4033203-1.8447266,1.890625-4.2988281,1.4150391-7.0078125l-2.15625,1.2099609l-2.828125-2.3701172l-3.3359375,2.1806641
			l-3.3320313-2.4873047l-2.953125,2.0869141l-3.1308594-2.1367188l-3.0703125,1.8330078L22.90625,42.3066406z"/>
	</g>
</g>
</svg>
