<?xml version="1.0" encoding="utf-8"?>
<!-- Generator: Adobe Illustrator 15.0.2, SVG Export Plug-In . SVG Version: 6.00 Build 0)  -->
<!DOCTYPE svg PUBLIC "-//W3C//DTD SVG 1.1//EN" "http://www.w3.org/Graphics/SVG/1.1/DTD/svg11.dtd">
<svg version="1.1" id="レイヤー_1" xmlns="http://www.w3.org/2000/svg" xmlns:xlink="http://www.w3.org/1999/xlink" x="0px"
	 y="0px" width="64px" height="64px" viewBox="0 0 64 64" enable-background="new 0 0 64 64" xml:space="preserve">
<g>
	<g>
		<g>
			<linearGradient id="SVGID_1_" gradientUnits="userSpaceOnUse" x1="61.1768" y1="10.48" x2="46.9209" y2="50.1393">
				<stop  offset="0" style="stop-color:#FFFFFF"/>
				<stop  offset="0.2909" style="stop-color:#000000"/>
				<stop  offset="1" style="stop-color:#8C8F9F"/>
			</linearGradient>
			
				<path fill-rule="evenodd" clip-rule="evenodd" fill="url(#SVGID_1_)" stroke="#000000" stroke-width="0.9497" stroke-miterlimit="10" d="
				M49.2,11.869c3.087,2.377,7.678,8.934,8.087,17.131s0,13.688,0,13.688h-2.131v6.804l3.77-0.82c0,0,2.213-8.114,1.394-19.508
				S51.056,8.59,51.056,8.59L49.2,11.869z"/>
			<linearGradient id="SVGID_2_" gradientUnits="userSpaceOnUse" x1="55.0459" y1="41.6318" x2="51.541" y2="51.3823">
				<stop  offset="0" style="stop-color:#FFFFFF"/>
				<stop  offset="0.2909" style="stop-color:#0F0D24"/>
				<stop  offset="1" style="stop-color:#2B4A85"/>
			</linearGradient>
			
				<rect x="51.056" y="42.288" fill-rule="evenodd" clip-rule="evenodd" fill="url(#SVGID_2_)" stroke="#000000" stroke-width="0.878" stroke-miterlimit="10" width="4.622" height="8.032"/>
			<linearGradient id="SVGID_3_" gradientUnits="userSpaceOnUse" x1="49.3447" y1="36.2002" x2="41.6906" y2="57.4938">
				<stop  offset="0" style="stop-color:#FFFFFF"/>
				<stop  offset="0.2909" style="stop-color:#0F0D24"/>
				<stop  offset="1" style="stop-color:#2B4A85"/>
			</linearGradient>
			
				<ellipse fill-rule="evenodd" clip-rule="evenodd" fill="url(#SVGID_3_)" stroke="#000000" stroke-width="0.878" stroke-miterlimit="10" cx="45.676" cy="46.405" rx="7.12" ry="10.268"/>
			<linearGradient id="SVGID_4_" gradientUnits="userSpaceOnUse" x1="44.4629" y1="45.8486" x2="44.4629" y2="56.84">
				<stop  offset="0" style="stop-color:#FFFFFF"/>
				<stop  offset="0.4727" style="stop-color:#52525F"/>
				<stop  offset="1" style="stop-color:#BDB7BA"/>
			</linearGradient>
			
				<rect x="43.251" y="36.137" fill-rule="evenodd" clip-rule="evenodd" fill="url(#SVGID_4_)" stroke="#000000" stroke-width="0.7978" stroke-miterlimit="10" width="2.425" height="20.536"/>
			<g>
				<linearGradient id="SVGID_5_" gradientUnits="userSpaceOnUse" x1="35.7217" y1="35.0869" x2="42.5977" y2="55.5677">
					<stop  offset="0" style="stop-color:#FFFFFF"/>
					<stop  offset="0.2061" style="stop-color:#52525F"/>
					<stop  offset="1" style="stop-color:#000000"/>
				</linearGradient>
				<path fill-rule="evenodd" clip-rule="evenodd" fill="url(#SVGID_5_)" d="M43.704,55.718c0,0.878-0.714,1.67-1.587,1.761
					l-4.915,0.51c-0.873,0.091-1.587-0.553-1.587-1.431V36.252c0-0.878,0.714-1.521,1.587-1.431l4.915,0.51
					c0.873,0.091,1.587,0.883,1.587,1.761V55.718z"/>
				<path fill="none" stroke="#000000" stroke-width="0.7978" stroke-miterlimit="10" d="M43.704,55.718
					c0,0.878-0.714,1.67-1.587,1.761l-4.915,0.51c-0.873,0.091-1.587-0.553-1.587-1.431V36.252c0-0.878,0.714-1.521,1.587-1.431
					l4.915,0.51c0.873,0.091,1.587,0.883,1.587,1.761V55.718z"/>
			</g>
			<linearGradient id="SVGID_6_" gradientUnits="userSpaceOnUse" x1="47.6299" y1="57.4971" x2="49.1448" y2="48.7075">
				<stop  offset="0" style="stop-color:#FFFFFF"/>
				<stop  offset="1" style="stop-color:#FFFFFF;stop-opacity:0"/>
			</linearGradient>
			<path fill-rule="evenodd" clip-rule="evenodd" fill="url(#SVGID_6_)" d="M46.585,48.046v7.427c0,0,3.865-0.53,5.229-6.744
				C51.814,48.729,48.782,51.608,46.585,48.046z"/>
		</g>
		<g>
			
				<linearGradient id="SVGID_7_" gradientUnits="userSpaceOnUse" x1="97.833" y1="10.4795" x2="83.577" y2="50.1393" gradientTransform="matrix(-1 0 0 1 100.6563 0)">
				<stop  offset="0" style="stop-color:#FFFFFF"/>
				<stop  offset="0.2909" style="stop-color:#000000"/>
				<stop  offset="1" style="stop-color:#8C8F9F"/>
			</linearGradient>
			
				<path fill-rule="evenodd" clip-rule="evenodd" fill="url(#SVGID_7_)" stroke="#000000" stroke-width="0.9497" stroke-miterlimit="10" d="
				M14.8,11.869C11.713,14.246,7.122,20.803,6.713,29s0,13.688,0,13.688h2.131v6.804l-3.77-0.82c0,0-2.213-8.114-1.394-19.508
				S12.944,8.59,12.944,8.59L14.8,11.869z"/>
			
				<linearGradient id="SVGID_8_" gradientUnits="userSpaceOnUse" x1="91.7021" y1="41.6309" x2="88.1973" y2="51.3813" gradientTransform="matrix(-1 0 0 1 100.6563 0)">
				<stop  offset="0" style="stop-color:#FFFFFF"/>
				<stop  offset="0.2909" style="stop-color:#0F0D24"/>
				<stop  offset="1" style="stop-color:#2B4A85"/>
			</linearGradient>
			
				<rect x="8.322" y="42.288" fill-rule="evenodd" clip-rule="evenodd" fill="url(#SVGID_8_)" stroke="#000000" stroke-width="0.878" stroke-miterlimit="10" width="4.622" height="8.032"/>
			
				<linearGradient id="SVGID_9_" gradientUnits="userSpaceOnUse" x1="86.002" y1="36.2002" x2="78.3478" y2="57.4938" gradientTransform="matrix(-1 0 0 1 100.6563 0)">
				<stop  offset="0" style="stop-color:#FFFFFF"/>
				<stop  offset="0.2909" style="stop-color:#0F0D24"/>
				<stop  offset="1" style="stop-color:#2B4A85"/>
			</linearGradient>
			
				<ellipse fill-rule="evenodd" clip-rule="evenodd" fill="url(#SVGID_9_)" stroke="#000000" stroke-width="0.878" stroke-miterlimit="10" cx="18.324" cy="46.405" rx="7.12" ry="10.268"/>
			
				<linearGradient id="SVGID_10_" gradientUnits="userSpaceOnUse" x1="81.1191" y1="45.8486" x2="81.1191" y2="56.84" gradientTransform="matrix(-1 0 0 1 100.6563 0)">
				<stop  offset="0" style="stop-color:#FFFFFF"/>
				<stop  offset="0.4727" style="stop-color:#52525F"/>
				<stop  offset="1" style="stop-color:#BDB7BA"/>
			</linearGradient>
			
				<rect x="18.324" y="36.137" fill-rule="evenodd" clip-rule="evenodd" fill="url(#SVGID_10_)" stroke="#000000" stroke-width="0.7978" stroke-miterlimit="10" width="2.425" height="20.536"/>
			<g>
				
					<linearGradient id="SVGID_11_" gradientUnits="userSpaceOnUse" x1="72.3779" y1="35.0869" x2="79.2537" y2="55.5668" gradientTransform="matrix(-1 0 0 1 100.6563 0)">
					<stop  offset="0" style="stop-color:#FFFFFF"/>
					<stop  offset="0.2061" style="stop-color:#52525F"/>
					<stop  offset="1" style="stop-color:#000000"/>
				</linearGradient>
				<path fill-rule="evenodd" clip-rule="evenodd" fill="url(#SVGID_11_)" d="M20.296,55.718c0,0.878,0.714,1.67,1.587,1.761
					l4.915,0.51c0.873,0.091,1.587-0.553,1.587-1.431V36.252c0-0.878-0.714-1.521-1.587-1.431l-4.915,0.51
					c-0.873,0.091-1.587,0.883-1.587,1.761V55.718z"/>
				<path fill="none" stroke="#000000" stroke-width="0.7978" stroke-miterlimit="10" d="M20.296,55.718
					c0,0.878,0.714,1.67,1.587,1.761l4.915,0.51c0.873,0.091,1.587-0.553,1.587-1.431V36.252c0-0.878-0.714-1.521-1.587-1.431
					l-4.915,0.51c-0.873,0.091-1.587,0.883-1.587,1.761V55.718z"/>
			</g>
			
				<linearGradient id="SVGID_12_" gradientUnits="userSpaceOnUse" x1="84.2861" y1="57.4971" x2="85.801" y2="48.7075" gradientTransform="matrix(-1 0 0 1 100.6563 0)">
				<stop  offset="0" style="stop-color:#FFFFFF"/>
				<stop  offset="1" style="stop-color:#FFFFFF;stop-opacity:0"/>
			</linearGradient>
			<path fill-rule="evenodd" clip-rule="evenodd" fill="url(#SVGID_12_)" d="M17.415,48.046v7.427c0,0-3.865-0.53-5.229-6.744
				C12.186,48.729,15.218,51.608,17.415,48.046z"/>
		</g>
	</g>
	<linearGradient id="SVGID_13_" gradientUnits="userSpaceOnUse" x1="25.1343" y1="-1.4878" x2="45.1303" y2="33.7145">
		<stop  offset="0" style="stop-color:#FFFFFF"/>
		<stop  offset="0.2909" style="stop-color:#00417F"/>
		<stop  offset="1" style="stop-color:#00689F"/>
	</linearGradient>
	
		<path fill-rule="evenodd" clip-rule="evenodd" fill="url(#SVGID_13_)" stroke="#000000" stroke-width="0.9037" stroke-miterlimit="10" d="
		M49.813,6.619C44.843,3.422,38.233,2.935,32,2.935S19.158,3.422,14.187,6.619l-2.182,2.862l0.924,3.863l5.731-2.295
		c0,0,1.911-0.656,13.34-0.902c11.429,0.246,13.34,0.902,13.34,0.902l5.731,2.295l0.924-3.863L49.813,6.619z"/>
</g>
</svg>
