<?xml version="1.0" encoding="UTF-8" standalone="no"?>
<!-- Generated by phantom_svg. -->

<svg
   xmlns:dc="http://purl.org/dc/elements/1.1/"
   xmlns:cc="http://creativecommons.org/ns#"
   xmlns:rdf="http://www.w3.org/1999/02/22-rdf-syntax-ns#"
   xmlns:svg="http://www.w3.org/2000/svg"
   xmlns="http://www.w3.org/2000/svg"
   xmlns:sodipodi="http://sodipodi.sourceforge.net/DTD/sodipodi-0.dtd"
   xmlns:inkscape="http://www.inkscape.org/namespaces/inkscape"
   width="64px"
   height="64px"
   viewBox="0 0 64 64"
   preserveAspectRatio="none"
   version="1.1"
   id="svg2"
   inkscape:version="0.91 r13725"
   sodipodi:docname="heart_decoration.svg">
  <metadata
     id="frame0_metadata38">
    <rdf:RDF>
      <cc:Work
         rdf:about="">
        <dc:format>
           image/svg+xml 
        </dc:format>
        <dc:type
           rdf:resource="http://purl.org/dc/dcmitype/StillImage" />
      </cc:Work>
    </rdf:RDF>
  </metadata>
  <defs
     id="frame0_defs36" />
  <sodipodi:namedview
     pagecolor="#ffffff"
     bordercolor="#666666"
     borderopacity="1"
     objecttolerance="10"
     gridtolerance="10"
     guidetolerance="10"
     inkscape:pageopacity="0"
     inkscape:pageshadow="2"
     inkscape:window-width="1920"
     inkscape:window-height="1043"
     id="frame0_namedview34"
     showgrid="false"
     inkscape:zoom="7.375"
     inkscape:cx="49.929708"
     inkscape:cy="38.367901"
     inkscape:window-x="0"
     inkscape:window-y="0"
     inkscape:window-maximized="1"
     inkscape:current-layer="frame0_g5" />
  <g
     id="frame0_g3">
    <g
       id="frame0_g5">
      <g
         id="frame0_g7">
        <linearGradient
           id="frame0_SVGID_1_"
           gradientUnits="userSpaceOnUse"
           x1="305.8964844"
           y1="-304.0600586"
           x2="305.8964844"
           y2="-356.8203125"
           gradientTransform="matrix(1,0,0,-1,-274,-298)">
          <stop
             offset="0"
             style="stop-color:#FFFFFF"
             id="frame0_stop10" />
          <stop
             offset="0.509091"
             style="stop-color:#FF1F3F"
             id="frame0_stop12" />
          <stop
             offset="0.6614935"
             style="stop-color:#FF2243"
             id="frame0_stop14" />
          <stop
             offset="0.8165283"
             style="stop-color:#FF2C4F"
             id="frame0_stop16" />
          <stop
             offset="0.9723371"
             style="stop-color:#FF3C64"
             id="frame0_stop18" />
          <stop
             offset="1"
             style="stop-color:#FF3F68"
             id="frame0_stop20" />
        </linearGradient>
        <path
           style="fill:url(#frame0_SVGID_1_)"
           d="M 13.480469 6.0605469 C 9.0805664 6.0605469 5.4804688 9.6606446 5.4804688 14.060547 L 5.4804688 50.820312 C 5.4804688 55.220703 9.0805664 58.820312 13.480469 58.820312 L 50.314453 58.820312 C 54.713867 58.820312 58.314453 55.220703 58.314453 50.820312 L 58.314453 14.060547 C 58.314453 9.6606446 54.713867 6.0605469 50.314453 6.0605469 L 13.480469 6.0605469 z M 22.722656 15.955078 C 30.462891 15.955078 32 24.939453 32 24.939453 C 32 24.939453 33.537109 15.955078 41.277344 15.955078 C 49.018555 15.955078 53.200195 24.712891 49.019531 33.697266 C 44.837891 42.680664 32 49.925781 32 49.925781 C 32 49.925781 19.163574 42.680664 14.982422 33.697266 C 10.801758 24.712891 14.981934 15.955078 22.722656 15.955078 z "
           id="frame0_path22" />
      </g>
      <g
         style="opacity:0.22;"
         id="frame0_g24">
        <path
           style="fill:#FFFFFF;"
           d="M5.4799805,26.8129883C12.8608398,29.1958008,22,32.9394531,31.8969727,32.9394531     c9.8979492,0,19.0366211-3.7436523,26.4174805-6.1264648c0,0,2.1035156-13.8359375-1.9179688-18.2700195     C45.5917969,3.1831055,18.9848633,5.1889648,8.1469727,7.9648438     C3.7231445,12.0571289,5.4799805,26.8129883,5.4799805,26.8129883z"
           id="frame0_path26" />
      </g>
      <g
         id="frame0_g28">
        <path
           style="fill:#C10021;"
           d="M50.3144531,60.6601563H13.4799805c-5.4257813,0-9.8398438-4.4140625-9.8398438-9.8398438     V14.0600586c0-5.4257813,4.4140625-9.8398438,9.8398438-9.8398438h36.8344727     c5.4257813,0,9.8398438,4.4140625,9.8398438,9.8398438v36.7602539     C60.1542969,56.2460938,55.7402344,60.6601563,50.3144531,60.6601563z M13.4799805,7.8999023     c-3.3969727,0-6.1601563,2.7631836-6.1601563,6.1601563v36.7602539c0,3.3964844,2.7631836,6.1601563,6.1601563,6.1601563     h36.8344727c3.3964844,0,6.1601563-2.7636719,6.1601563-6.1601563V14.0600586     c0-3.3969727-2.7636719-6.1601563-6.1601563-6.1601563H13.4799805z"
           id="frame0_path30" />
      </g>
    </g>
  </g>
</svg>
