<?xml version="1.0" encoding="utf-8"?>
<!-- Generator: Adobe Illustrator 15.0.0, SVG Export Plug-In . SVG Version: 6.00 Build 0)  -->
<!DOCTYPE svg PUBLIC "-//W3C//DTD SVG 1.1//EN" "http://www.w3.org/Graphics/SVG/1.1/DTD/svg11.dtd">
<svg version="1.1" id="レイヤー_1" xmlns="http://www.w3.org/2000/svg" xmlns:xlink="http://www.w3.org/1999/xlink" x="0px"
	 y="0px" width="64px" height="64px" viewBox="0 0 64 64" style="enable-background:new 0 0 64 64;" xml:space="preserve">
<g>
	<g>
		<g>
			
				<linearGradient id="SVGID_1_" gradientUnits="userSpaceOnUse" x1="305.8964844" y1="-304.0600586" x2="305.8964844" y2="-356.8203125" gradientTransform="matrix(1 0 0 -1 -274 -298)">
				<stop  offset="0" style="stop-color:#FFFFFF"/>
				<stop  offset="0.509091" style="stop-color:#FF1F3F"/>
				<stop  offset="0.6614935" style="stop-color:#FF2243"/>
				<stop  offset="0.8165283" style="stop-color:#FF2C4F"/>
				<stop  offset="0.9723371" style="stop-color:#FF3C64"/>
				<stop  offset="1" style="stop-color:#FF3F68"/>
			</linearGradient>
			<path style="fill:url(#SVGID_1_);" d="M58.3144531,50.8203125c0,4.4003906-3.6005859,8-8,8H13.4799805
				c-4.3999023,0-8-3.5996094-8-8V14.0600586c0-4.3999023,3.6000977-8,8-8h36.8344727c4.3994141,0,8,3.6000977,8,8V50.8203125z"/>
		</g>
		<g style="opacity:0.22;">
			<path style="fill:#FFFFFF;" d="M5.4799805,26.8129883C12.8608398,29.1958008,22,32.9394531,31.8969727,32.9394531
				c9.8979492,0,19.0366211-3.7436523,26.4174805-6.1264648c0,0,2.1035156-13.8359375-1.9179688-18.2700195
				C45.5917969,3.1831055,18.9848633,5.1889648,8.1469727,7.9648438
				C3.7231445,12.0571289,5.4799805,26.8129883,5.4799805,26.8129883z"/>
		</g>
		<g>
			<path style="fill:#C10021;" d="M50.3144531,60.6601563H13.4799805c-5.4257813,0-9.8398438-4.4140625-9.8398438-9.8398438
				V14.0600586c0-5.4257813,4.4140625-9.8398438,9.8398438-9.8398438h36.8344727
				c5.4257813,0,9.8398438,4.4140625,9.8398438,9.8398438v36.7602539
				C60.1542969,56.2460938,55.7402344,60.6601563,50.3144531,60.6601563z M13.4799805,7.8999023
				c-3.3969727,0-6.1601563,2.7631836-6.1601563,6.1601563v36.7602539c0,3.3964844,2.7631836,6.1601563,6.1601563,6.1601563
				h36.8344727c3.3964844,0,6.1601563-2.7636719,6.1601563-6.1601563V14.0600586
				c0-3.3969727-2.7636719-6.1601563-6.1601563-6.1601563H13.4799805z"/>
		</g>
	</g>
	<path style="fill:#FFFFFF;" d="M31.9995117,49.9248047c0,0-12.8364258-7.2451172-17.0175781-16.2285156
		c-4.1806641-8.984375,0-17.7421875,7.7407227-17.7421875c7.7402344,0,9.2768555,8.984375,9.2768555,8.984375
		s1.5375977-8.9833984,9.277832-8.9833984c7.7412109,0,11.921875,8.7568359,7.7412109,17.7412109
		C44.8369141,42.6796875,31.9995117,49.9248047,31.9995117,49.9248047z"/>
</g>
</svg>
