<?xml version="1.0" encoding="UTF-8" standalone="no"?>
<!-- Generator: Adobe Illustrator 15.0.0, SVG Export Plug-In . SVG Version: 6.00 Build 0)  -->

<svg
   xmlns:dc="http://purl.org/dc/elements/1.1/"
   xmlns:cc="http://creativecommons.org/ns#"
   xmlns:rdf="http://www.w3.org/1999/02/22-rdf-syntax-ns#"
   xmlns:svg="http://www.w3.org/2000/svg"
   xmlns="http://www.w3.org/2000/svg"
   xmlns:sodipodi="http://sodipodi.sourceforge.net/DTD/sodipodi-0.dtd"
   xmlns:inkscape="http://www.inkscape.org/namespaces/inkscape"
   version="1.1"
   id="レイヤー_1"
   x="0px"
   y="0px"
   width="64px"
   height="64px"
   viewBox="0 0 64 64"
   style="enable-background:new 0 0 64 64;"
   xml:space="preserve"
   inkscape:version="0.48.4 r9939"
   sodipodi:docname="heart.svg"><metadata
     id="metadata32"><rdf:RDF><cc:Work
         rdf:about=""><dc:format>image/svg+xml</dc:format><dc:type
           rdf:resource="http://purl.org/dc/dcmitype/StillImage" /></cc:Work></rdf:RDF></metadata><defs
     id="defs30" /><sodipodi:namedview
     pagecolor="#ffffff"
     bordercolor="#666666"
     borderopacity="1"
     objecttolerance="10"
     gridtolerance="10"
     guidetolerance="10"
     inkscape:pageopacity="0"
     inkscape:pageshadow="2"
     inkscape:window-width="640"
     inkscape:window-height="480"
     id="namedview28" /><g
     id="g3"><g
       id="g5"><path
         style="fill:#C10021;"
         d="M32,56.78125l-1.1142578-0.6289063c-0.715332-0.4042969-17.5883789-10.03125-23.3300781-22.3681641    C4.2607422,26.703125,4.3706055,19.2167969,7.8505859,13.7587891c2.6503906-4.15625,7.0039063-6.5400391,11.9443359-6.5400391    c6.1328125,0,10.0029297,3.6826172,12.2050781,7.5761719c2.2021484-3.8925781,6.0732422-7.5751953,12.2050781-7.5751953    c4.9404297,0,9.2949219,2.3837891,11.9443359,6.5410156c3.4804688,5.4570313,3.5898438,12.9423828,0.2949219,20.0234375    C50.703125,46.1210938,33.8300781,55.7480469,33.1142578,56.1523438L32,56.78125z M19.7949219,11.7529297    c-3.409668,0-6.2939453,1.578125-8.1210938,4.4443359C9.03125,20.3417969,9.0283203,26.2011719,11.6669922,31.8701172    c4.3427734,9.3320313,16.5688477,17.359375,20.3320313,19.6679688    c3.7626953-2.3105469,15.9990234-10.3525391,20.3339844-19.6679688c2.6386719-5.6689453,2.6357422-11.5273438-0.0068359-15.671875    c-1.8271484-2.8662109-4.7109375-4.4443359-8.1210938-4.4443359c-8.1767578,0-9.953125,9.8339844-9.9707031,9.9335938    L32,34.7529297L29.7651367,21.6875C29.6943359,21.2880859,27.9135742,11.7529297,19.7949219,11.7529297z"
         id="path7" /><linearGradient
         id="SVGID_1_"
         gradientUnits="userSpaceOnUse"
         x1="31.9995117"
         y1="2.7167969"
         x2="31.9995098"
         y2="48.045105"><stop
           offset="0"
           style="stop-color:#FFFFFF"
           id="stop10" /><stop
           offset="0.509091"
           style="stop-color:#FF1F3F"
           id="stop12" /><stop
           offset="0.6614935"
           style="stop-color:#FF2243"
           id="stop14" /><stop
           offset="0.8165283"
           style="stop-color:#FF2C4F"
           id="stop16" /><stop
           offset="0.9723371"
           style="stop-color:#FF3C64"
           id="stop18" /><stop
           offset="1"
           style="stop-color:#FF3F68"
           id="stop20" /></linearGradient><path
         style="fill:url(#SVGID_1_);"
         d="M32,54.1777344c0,0-16.8881836-9.53125-22.3886719-21.3505859    s0-23.3408203,10.1835938-23.3408203S32,21.3056641,32,21.3056641S34.0214844,9.4873047,44.2050781,9.4873047    s15.6845703,11.5205078,10.1835938,23.3398438C48.8886719,44.6464844,32,54.1777344,32,54.1777344z"
         id="path22" /></g><path
       style="fill:#FFFFFF;"
       d="M11.9428711,18.0380859c0.3691406-4.6962891,5.8828125-5.0761719,7.8164063-1.9335938   S11.3789063,25.2099609,11.9428711,18.0380859z"
       id="path24" /><path
       style="opacity:0.25;fill:#FFFFFF;"
       d="M32.3300781,48.4179688c3.1796875,0,19.3388672-9.4277344,19.3388672-16.5996094   s-5.3994141-6.2861328-10.1533203,1.8525391s-7.8164063,10.9599609-9.9916992,11.765625   S30.1542969,48.4179688,32.3300781,48.4179688z"
       id="path26" /></g></svg>