<?xml version="1.0" encoding="utf-8"?>
<!-- Generator: Adobe Illustrator 15.0.2, SVG Export Plug-In . SVG Version: 6.00 Build 0)  -->
<!DOCTYPE svg PUBLIC "-//W3C//DTD SVG 1.1//EN" "http://www.w3.org/Graphics/SVG/1.1/DTD/svg11.dtd">
<svg version="1.1" id="レイヤー_1" xmlns="http://www.w3.org/2000/svg" xmlns:xlink="http://www.w3.org/1999/xlink" x="0px"
	 y="0px" width="64px" height="64px" viewBox="0 0 64 64" enable-background="new 0 0 64 64" xml:space="preserve">
<g>
	<g>
		<linearGradient id="SVGID_1_" gradientUnits="userSpaceOnUse" x1="6.1333" y1="13.8613" x2="63.3838" y2="56.4454">
			<stop  offset="0" style="stop-color:#FF9FD6"/>
			<stop  offset="1" style="stop-color:#DF0018"/>
		</linearGradient>
		<path fill="url(#SVGID_1_)" d="M29.756,23.661C26.172,8.578,4.673,20.472,15.089,34.306c4.582,6.085,8.75,10.333,2,17.666
			c23.5-5.666,33.666-13.514,34.583-25.5C53.089,7.972,29.089,7.472,29.756,23.661z"/>
		<path fill="#DD0020" d="M14.125,53.715l2.228-2.421c5.713-6.206,2.997-9.76-1.114-15.139c-0.312-0.408-0.629-0.823-0.949-1.248
			c-4.378-5.815-3.064-10.629-1.891-12.981c1.875-3.759,5.79-6.284,9.742-6.284c2.94,0,5.391,1.415,6.999,3.924
			c0.488-1.991,1.42-3.729,2.769-5.134c2.076-2.163,5.088-3.403,8.264-3.403c3.429,0,6.71,1.42,9.005,3.896
			c1.847,1.993,3.951,5.628,3.492,11.623c-0.965,12.594-11.865,20.734-35.346,26.396L14.125,53.715z M22.142,17.642
			c-3.162,0-6.432,2.129-7.953,5.177c-1.669,3.347-1.066,7.213,1.699,10.885c0.317,0.421,0.631,0.832,0.941,1.237
			c3.746,4.901,7.038,9.208,2.893,15.34c20.791-5.42,30.093-12.643,30.954-23.886c0.319-4.176-0.706-7.672-2.966-10.111
			c-1.917-2.069-4.664-3.256-7.537-3.256c-2.634,0-5.12,1.016-6.82,2.788c-1.831,1.908-2.729,4.606-2.597,7.804l-1.972,0.272
			C27.84,19.92,25.419,17.642,22.142,17.642z"/>
	</g>
	<path fill="#FFFFFF" d="M17.006,28.305c-2.88-1.76-0.667-5.25,1.167-4.667S20.006,30.139,17.006,28.305z"/>
	<path opacity="0.27" fill="#FFFFFF" d="M34.089,41.639c3.021,2.643,15.418-8.25,14.334-15.083s-7-3.917-8.25,3.667
		S31.422,39.306,34.089,41.639z"/>
</g>
</svg>
