<?xml version="1.0" encoding="UTF-8" standalone="no"?>
<!-- Generated by phantom_svg. -->

<svg
   xmlns:dc="http://purl.org/dc/elements/1.1/"
   xmlns:cc="http://creativecommons.org/ns#"
   xmlns:rdf="http://www.w3.org/1999/02/22-rdf-syntax-ns#"
   xmlns:svg="http://www.w3.org/2000/svg"
   xmlns="http://www.w3.org/2000/svg"
   xmlns:sodipodi="http://sodipodi.sourceforge.net/DTD/sodipodi-0.dtd"
   xmlns:inkscape="http://www.inkscape.org/namespaces/inkscape"
   width="64px"
   height="64px"
   viewBox="0 0 64 64"
   preserveAspectRatio="none"
   version="1.1"
   id="svg2"
   inkscape:version="0.91 r13725"
   sodipodi:docname="japanese_heart.svg">
  <metadata
     id="frame0_metadata32">
    <rdf:RDF>
      <cc:Work
         rdf:about="">
        <dc:format>
           image/svg+xml 
        </dc:format>
        <dc:type
           rdf:resource="http://purl.org/dc/dcmitype/StillImage" />
      </cc:Work>
    </rdf:RDF>
  </metadata>
  <defs
     id="frame0_defs30" />
  <sodipodi:namedview
     pagecolor="#ffffff"
     bordercolor="#666666"
     borderopacity="1"
     objecttolerance="10"
     gridtolerance="10"
     guidetolerance="10"
     inkscape:pageopacity="0"
     inkscape:pageshadow="2"
     inkscape:window-width="1920"
     inkscape:window-height="1017"
     id="frame0_namedview28"
     showgrid="false"
     inkscape:zoom="3.6875"
     inkscape:cx="-27.932203"
     inkscape:cy="32"
     inkscape:window-x="0"
     inkscape:window-y="26"
     inkscape:window-maximized="1"
     inkscape:current-layer="g4154" />
  <g
     id="frame0_g3">
    <g
       id="g4154"
       transform="matrix(1.005968,0,0,1.005968,-0.1910659,-0.33887194)">
      <path
         id="frame0_path7"
         d="M 32,56.78125 30.885742,56.152344 C 30.17041,55.748047 13.297363,46.121094 7.5556641,33.78418 4.2607422,26.703125 4.3706055,19.216797 7.8505859,13.758789 10.500977,9.6025391 14.854492,7.21875 19.794922,7.21875 c 6.132812,0 10.002929,3.682617 12.205078,7.576172 2.202148,-3.892578 6.073242,-7.5751954 12.205078,-7.5751954 4.94043,0 9.294922,2.3837891 11.944336,6.5410154 3.480469,5.457031 3.589844,12.942383 0.294922,20.023438 C 50.703125,46.121094 33.830078,55.748047 33.114258,56.152344 L 32,56.78125 Z M 19.794922,11.75293 c -3.409668,0 -6.293945,1.578125 -8.121094,4.444336 -2.642578,4.144531 -2.6455077,10.003906 -0.0068,15.672851 4.342774,9.332031 16.568848,17.359375 20.332031,19.667969 3.762696,-2.310547 15.999024,-10.352539 20.333985,-19.667969 2.638672,-5.668945 2.635742,-11.527344 -0.0068,-15.671875 -1.827148,-2.866211 -4.710938,-4.444336 -8.121094,-4.444336 -8.176758,0 -9.953125,9.833985 -9.970703,9.933594 L 32,34.75293 29.765137,21.6875 c -0.0708,-0.399414 -1.851563,-9.93457 -9.970215,-9.93457 z"
         style="fill:#000000"
         inkscape:connector-curvature="0" />
      <path
         id="frame0_path22"
         d="m 32,54.177734 c 0,0 -16.888184,-9.53125 -22.3886719,-21.350586 -5.5004883,-11.819335 0,-23.3408198 10.1835939,-23.3408198 C 29.978516,9.4863282 32,21.305664 32,21.305664 c 0,0 2.021484,-11.8183593 12.205078,-11.8183593 10.183594,0 15.68457,11.5205073 10.183594,23.3398433 C 48.888672,44.646484 32,54.177734 32,54.177734 Z"
         style="fill:#ffffff"
         inkscape:connector-curvature="0" />
      <g
         id="frame0_g5"
         transform="matrix(0.99406741,0,0,0.99406741,11.512191,-57.866628)">
        <linearGradient
           id="frame0_SVGID_1_"
           gradientUnits="userSpaceOnUse"
           x1="31.999512"
           y1="2.7167969"
           x2="31.99951"
           y2="48.045105">
          <stop
             offset="0"
             style="stop-color:#FFFFFF"
             id="frame0_stop10" />
          <stop
             offset="0.509091"
             style="stop-color:#FF1F3F"
             id="frame0_stop12" />
          <stop
             offset="0.6614935"
             style="stop-color:#FF2243"
             id="frame0_stop14" />
          <stop
             offset="0.8165283"
             style="stop-color:#FF2C4F"
             id="frame0_stop16" />
          <stop
             offset="0.9723371"
             style="stop-color:#FF3C64"
             id="frame0_stop18" />
          <stop
             offset="1"
             style="stop-color:#FF3F68"
             id="frame0_stop20" />
        </linearGradient>
        <circle
           style="color:#000000;clip-rule:nonzero;display:inline;overflow:visible;visibility:visible;opacity:1;isolation:auto;mix-blend-mode:normal;color-interpolation:sRGB;color-interpolation-filters:linearRGB;solid-color:#000000;solid-opacity:1;fill:#c70025;fill-opacity:1;fill-rule:nonzero;stroke:none;stroke-width:4;stroke-linecap:butt;stroke-linejoin:round;stroke-miterlimit:0.60000002;stroke-dasharray:none;stroke-dashoffset:0;stroke-opacity:1;marker:none;color-rendering:auto;image-rendering:auto;shape-rendering:auto;text-rendering:auto;enable-background:accumulate"
           id="path4150"
           cx="20.61017"
           cy="93.805084"
           r="12.5" />
      </g>
      <path
         id="frame0_path24"
         d="m 11.942871,18.038086 c 0.369141,-4.696289 5.882813,-5.076172 7.816406,-1.933594 1.933594,3.142578 -8.380371,9.105469 -7.816406,1.933594 z"
         style="fill:#ffffff"
         inkscape:connector-curvature="0" />
      <path
         id="frame0_path26"
         d="m 32.330078,48.417969 c 3.179688,0 19.338867,-9.427735 19.338867,-16.59961 0,-7.171875 -5.399414,-6.286132 -10.15332,1.852539 -4.753906,8.138672 -7.816406,10.959961 -9.991699,11.765625 -2.175293,0.805665 -1.369629,2.981446 0.806152,2.981446 z"
         style="opacity:0.25;fill:#ffffff"
         inkscape:connector-curvature="0" />
    </g>
  </g>
</svg>
