<?xml version="1.0" encoding="utf-8"?>
<!-- Generator: Adobe Illustrator 15.0.2, SVG Export Plug-In . SVG Version: 6.00 Build 0)  -->
<!DOCTYPE svg PUBLIC "-//W3C//DTD SVG 1.1//EN" "http://www.w3.org/Graphics/SVG/1.1/DTD/svg11.dtd">
<svg version="1.1" id="レイヤー_1" xmlns="http://www.w3.org/2000/svg" xmlns:xlink="http://www.w3.org/1999/xlink" x="0px"
	 y="0px" width="64px" height="64px" viewBox="0 0 64 64" enable-background="new 0 0 64 64" xml:space="preserve">
<g>
	<g>
		
			<linearGradient id="SVGID_1_" gradientUnits="userSpaceOnUse" x1="305.8965" y1="-304.0601" x2="305.8965" y2="-356.8203" gradientTransform="matrix(1 0 0 -1 -274 -298)">
			<stop  offset="0" style="stop-color:#FFFFFF"/>
			<stop  offset="0.5091" style="stop-color:#FF1F3F"/>
			<stop  offset="0.6615" style="stop-color:#FF2243"/>
			<stop  offset="0.8165" style="stop-color:#FF2C4F"/>
			<stop  offset="0.9723" style="stop-color:#FF3C64"/>
			<stop  offset="1" style="stop-color:#FF3F68"/>
		</linearGradient>
		<path fill="url(#SVGID_1_)" d="M58.314,50.82c0,4.4-3.601,8-8,8H13.48c-4.4,0-8-3.6-8-8V14.06c0-4.4,3.6-8,8-8h36.834
			c4.399,0,8,3.6,8,8V50.82z"/>
	</g>
	<g opacity="0.22">
		<path fill="#FFFFFF" d="M5.48,26.813c7.381,2.383,16.52,6.126,26.417,6.126c9.898,0,19.037-3.744,26.417-6.126
			c0,0,2.104-13.836-1.918-18.27c-10.805-5.36-37.412-3.354-48.25-0.578C3.723,12.057,5.48,26.813,5.48,26.813z"/>
	</g>
	<g>
		<path fill="none" stroke="#C10021" stroke-width="3.6794" stroke-miterlimit="10" d="M58.314,50.82c0,4.4-3.601,8-8,8H13.48
			c-4.4,0-8-3.6-8-8V14.06c0-4.4,3.6-8,8-8h36.834c4.399,0,8,3.6,8,8V50.82z"/>
	</g>
</g>
<g>
	<path fill="#FFFFFF" d="M32,49.925c0,0-12.836-7.245-17.018-16.229c-4.181-8.984,0-17.742,7.741-17.742
		c7.74,0,9.277,8.984,9.277,8.984s1.538-8.983,9.278-8.983c7.741,0,11.922,8.757,7.741,17.741C44.837,42.68,32,49.925,32,49.925z"/>
</g>
</svg>
