<?xml version="1.0" encoding="UTF-8"?>
<!-- Generated by phantom_svg. -->
<svg id="phantom_svg" width="64px" height="64px" xmlns="http://www.w3.org/2000/svg" xmlns:xlink="http://www.w3.org/1999/xlink" version="1.1">
  <defs>
    <!-- Images. -->
    <svg id="frame0" viewBox="0 0 64 64" preserveAspectRatio="none" xmlns="http://www.w3.org/2000/svg" xmlns:xlink="http://www.w3.org/1999/xlink">
      <g>
        <path style='fill:#16DD00;' d='M13.7949219,1.7949219c-6.6269531,0-12,5.3730469-12,12v36.4101563c0,6.6279297,5.3730469,12,12,12
		h36.4101563c6.6269531,0,12-5.3720703,12-12V13.7949219c0-6.6269531-5.3730469-12-12-12H13.7949219z'/>
      </g>
      <path style="fill:#FFFFFF;" d="M13.0566406,42.3613281c2.8085938,2.3212891,6.2255859,3.4980469,10.1572266,3.4980469h1.4501953
	v-3.4003906l-0.9296875-0.0664063c-2.6376953-0.1865234-4.7324219-1.0029297-6.2236328-2.4238281
	c-1.5771484-1.5078125-2.34375-3.4941406-2.34375-6.0742188c0-2.7373047,0.8525391-4.9414063,2.6054688-6.7382813
	c1.7460938-1.7890625,3.9140625-2.6582031,6.6259766-2.6582031c2.4140625,0,4.7470703,0.7753906,6.9394531,2.3095703
	c2.3701172,1.6328125,3.5224609,3.4941406,3.5224609,5.6894531c0,0.90625-0.3007813,1.7138672-0.9208984,2.4677734
	c-0.5791016,0.7041016-1.2329102,1.0322266-2.0576172,1.0322266c-0.7338867,0-1.2890625-0.2529297-1.7470703-0.7939453
	c-0.4941406-0.5839844-0.734375-1.2597656-0.734375-2.0664063c0-0.2680664,0.046875-0.605957,0.1396484-1.0043945L29.75,31.2314453
	l-3.2636719-1.0341797l-0.296875,0.9633789c-0.34375,1.1147461-0.5175781,2.2026367-0.5175781,3.230957
	c0,2.0205078,0.5576172,3.7568359,1.6542969,5.1601563c1.2363281,1.5927734,2.9042969,2.4003906,4.9580078,2.4003906
	c2.0048828,0,3.7070313-0.8134766,5.078125-2.4208984c2.3330078,4.2011719,6.9082031,6.328125,13.6308594,6.328125h4.5048828
	v-3.46875h-1c-0.2617188,0-1.2167969-0.2558594-2.5009766-3.5527344l-0.4521484-1.1650391
	c-0.6328125-1.6064453-1.2324219-2.7236328-1.8310547-3.4130859c-0.2412109-0.2792969-0.5263672-0.5449219-0.8583984-0.7949219
	c4.203125-1.4042969,5.1738281-4.5458984,5.1738281-7.1484375c0-2.4785156-1.0146484-4.5214844-3.0117188-6.0683594
	c-1.7832031-1.3984375-3.9267578-2.1074219-6.3710938-2.1074219c-3.7851563,0-6.8808594,1.6640625-9.2001953,4.9462891
	l-0.5517578,0.7802734l2.8154297,2.1884766l0.6152344-0.7763672c1.2001953-1.5136719,2.5947266-2.2490234,4.2607422-2.2490234
	c1.2802734,0,2.3613281,0.3935547,3.3056641,1.2050781c0.9589844,0.8183594,1.4248047,1.8017578,1.4248047,3.0048828
	c0,0.9111328-0.3154297,1.6005859-0.9892578,2.1679688c-0.6728516,0.5615234-1.4794922,0.8339844-2.4619141,0.8339844
	c-1.7197266,0-3.7324219-0.9716797-5.9814453-2.8867188l-0.9716797-0.8291016
	c-2.2167969-1.890625-4.6572266-3.3955078-7.2470703-4.4697266c-2.7314453-1.1533203-5.3085938-1.7373047-7.6591797-1.7373047
	c-3.6699219,0-6.828125,1.1083984-9.3857422,3.2919922c-2.7324219,2.3203125-4.1181641,5.3583984-4.1181641,9.0283203
	C8.5019531,36.5810547,10.0332031,39.8515625,13.0566406,42.3613281z M45.578125,39.8144531
	c0.3779297,0.8603516,0.7773438,1.6132813,1.203125,2.2636719c-4.9677734-0.9423828-7.4013672-3.9638672-7.4130859-9.1748047
	c1.3134766,0.7802734,2.3134766,1.4667969,2.9785156,2.0449219c1.1972656,1.0673828,2.1728516,2.4501953,2.8994141,4.1064453
	L45.578125,39.8144531z"/>
    </svg>
    <!-- Animation. -->
    <symbol id="animation">
      <use xlink:href="#frame0" visibility="hidden">
        <set id="frame0_anim" attributeName="visibility" to="visible" begin="0s;frame0_anim.end" dur="0.1s"/>
      </use>
    </symbol>
  </defs>
  <!-- Main control. -->
  <animate id="controller" begin="0s" dur="0.1s" repeatCount="indefinite"/>
  <use xlink:href="#frame0">
    <set attributeName="xlink:href" to="#animation" begin="controller.begin"/>
    <set attributeName="xlink:href" to="#frame0" begin="controller.end"/>
  </use>
</svg>