<?xml version="1.0" encoding="UTF-8" standalone="no"?>
<!-- Generator: Adobe Illustrator 15.0.2, SVG Export Plug-In . SVG Version: 6.00 Build 0)  -->

<svg
   xmlns:dc="http://purl.org/dc/elements/1.1/"
   xmlns:cc="http://creativecommons.org/ns#"
   xmlns:rdf="http://www.w3.org/1999/02/22-rdf-syntax-ns#"
   xmlns:svg="http://www.w3.org/2000/svg"
   xmlns="http://www.w3.org/2000/svg"
   xmlns:sodipodi="http://sodipodi.sourceforge.net/DTD/sodipodi-0.dtd"
   xmlns:inkscape="http://www.inkscape.org/namespaces/inkscape"
   version="1.1"
   id="レイヤー_1"
   x="0px"
   y="0px"
   width="64px"
   height="64px"
   viewBox="0 0 64 64"
   style="enable-background:new 0 0 64 64;"
   xml:space="preserve"
   inkscape:version="0.48.5 r10040"
   sodipodi:docname="heavy_division_sign.svg"><metadata
     id="metadata11"><rdf:RDF><cc:Work
         rdf:about=""><dc:format>image/svg+xml</dc:format><dc:type
           rdf:resource="http://purl.org/dc/dcmitype/StillImage" /></cc:Work></rdf:RDF></metadata><defs
     id="defs9" /><sodipodi:namedview
     pagecolor="#ffffff"
     bordercolor="#666666"
     borderopacity="1"
     objecttolerance="10"
     gridtolerance="10"
     guidetolerance="10"
     inkscape:pageopacity="0"
     inkscape:pageshadow="2"
     inkscape:window-width="640"
     inkscape:window-height="480"
     id="namedview7" /><g
     id="g3"><path
       style="fill:#C028E5;"
       d="M9.0957031,28.1005859h45.8085938v7.2978516H9.0957031V28.1005859z M31.7480469,52.2607422   c-1.5087891,0-2.8515625-0.5859375-4.0283203-1.7597656c-1.0058594-1.0078125-1.5087891-2.2666016-1.5087891-3.7773438   c0-1.5087891,0.5029297-2.7675781,1.5087891-3.7744141c1.1767578-1.1738281,2.5195313-1.7617188,4.0283203-1.7617188   c1.5107422,0,2.8535156,0.5878906,4.0273438,1.7617188c1.0058594,1.0068359,1.5097656,2.265625,1.5097656,3.7744141   c0,1.5107422-0.5039063,2.7695313-1.5097656,3.7773438C34.6015625,51.6748047,33.2587891,52.2607422,31.7480469,52.2607422z    M32,22.8134766c-1.5087891,0-2.8525391-0.5869141-4.0273438-1.7607422   c-1.0078125-1.0068359-1.5087891-2.265625-1.5087891-3.7763672s0.5009766-2.7675781,1.5087891-3.7744141   C29.1474609,12.3271484,30.4912109,11.7392578,32,11.7392578s2.8515625,0.5878906,4.0263672,1.7626953   c1.0078125,1.0068359,1.5087891,2.2636719,1.5087891,3.7744141s-0.5009766,2.7695313-1.5087891,3.7763672   C34.8515625,22.2265625,33.5087891,22.8134766,32,22.8134766z"
       id="path5" /></g></svg>