<?xml version="1.0" encoding="UTF-8"?>
<!-- Generated by phantom_svg. -->
<svg width="64px" height="64px" viewBox="0 0 64 64" preserveAspectRatio="none" xmlns="http://www.w3.org/2000/svg" xmlns:xlink="http://www.w3.org/1999/xlink" version="1.1">
  <g>
    <path style='fill:#8BD300;' d='M13.7954102,62.2050781c-6.6269531,0-12-5.3730469-12-12V13.7949219c0-6.6279297,5.3730469-12,12-12
		h36.409668c6.6269531,0,12,5.3720703,12,12v36.4101563c0,6.6269531-5.3730469,12-12,12H13.7954102z'/>
  </g>
  <path style="fill:#FFFFFF;" d="M59.0478516,24.5517578c0-2.2763672-1.1679688-5.1992188-6.7333984-6.1972656l-1.7197266-0.3076172
	l0.4648438,1.6835938c0.1748047,0.6318359,0.2636719,1.3203125,0.2636719,2.0439453
	c0,3.4707031-1.2421875,6.2285156-3.796875,8.4296875c-2.4707031,2.1142578-5.4199219,3.1435547-9.0126953,3.1435547
	c-2.1376953,0-4.6621094-0.4121094-7.503418-1.2236328c-2.3115234-0.6679688-4.2583008-1.4375-5.8071289-2.2958984
	l1.2617188-1.2919922c6.3686523-6.5283203,8.9570313-7.5039063,9.9326172-7.5039063
	c0.515625,0,0.9277344,0.1728516,1.296875,0.5439453c0.3720703,0.3710938,0.5449219,0.7832031,0.5449219,1.2988281
	c0,1.0371094-0.4316406,1.8505859-1.3564453,2.5625c-0.9111328,0.6982422-1.9238281,1.0380859-3.0957031,1.0380859
	c-0.1113281,0-0.3427734-0.0166016-0.8071289-0.0957031l-3.003418-0.5068359l1.9863281,2.3085938
	c1.6767578,1.9501953,3.5019531,2.9389648,5.4248047,2.9389648c1.6894531,0,3.0898438-0.6977539,4.1650391-2.0737305
	c0.9384766-1.2011719,1.4140625-2.6308594,1.4140625-4.2490234c0-2.5029297-1.0986328-4.6582031-3.2675781-6.4082031
	c-1.9853516-1.6025391-4.2333984-2.4150391-6.6816406-2.4150391c-1.8349609,0-3.6606445,0.5654297-5.4267578,1.6816406
	c-1.3793945,0.875-3.7709961,2.921875-7.3125,6.2597656l-2.1303711,2
	c-4.0322266-1.9287109-7.9150391-1.8662109-10.6674805,0.0732422c-1.6518555,1.1425781-2.5288086,2.7851563-2.5288086,4.7451172
	c0,2.0043945,0.8896484,3.640625,2.6435547,4.8613281c1.4702148,1.0078125,3.1865234,1.5175781,5.1079102,1.5175781
	c3.2099609,0,6.40625-1.4960938,9.5107422-4.4482422c1.3300781,0.9863281,2.5834961,2.0585938,3.7363281,3.1953125
	l1.9223633,1.8974609c7.0083008,6.9101563,12.3051758,10.2675781,16.1938477,10.2675781
	c1.4804688,0,2.8525391-0.3417969,4.0771484-1.0146484c2.0400391-1.1572266,2.4648438-2.7314453,2.4648438-3.8496094
	c0-2.0029297-1.515625-3.5888672-4.5048828-4.7138672l-1.2685547-0.4765625
	c2.5791016-0.5244141,5.0380859-1.4677734,7.3476563-2.8242188C56.7382813,32.472168,59.0478516,28.9072266,59.0478516,24.5517578z
	 M10.0927734,29.9931641c0-0.3457031,0-1.2636719,2.8037109-1.2636719c0.5297852,0,1.1611328,0.0927734,1.887207,0.2773438
	c-1.2763672,1.0205078-2.434082,1.5361328-3.4541016,1.5361328C10.0927734,30.5429688,10.0927734,30.1982422,10.0927734,29.9931641z
	 M44.6982422,40.3027344c0,0.5917969-0.2226563,1.0253906-0.7207031,1.4042969
	c-0.515625,0.3828125-1.1191406,0.5722656-1.8359375,0.5722656c-0.8896484,0-2.5742188-0.4160156-5.5449219-2.4003906
	c-1.2138672-0.8037109-2.3671875-1.6699219-3.4492188-2.5878906c2.6523438,0.7841797,4.8808594,1.1699219,6.7421875,1.1699219
	c1.5292969,0,3.0263672-0.1347656,4.4853516-0.4013672l0.2548828,1.5917969
	C44.6738281,39.9257813,44.6982422,40.1416016,44.6982422,40.3027344z"/>
</svg>