<?xml version="1.0" encoding="utf-8"?>
<!-- Generator: Adobe Illustrator 15.0.2, SVG Export Plug-In . SVG Version: 6.00 Build 0)  -->
<!DOCTYPE svg PUBLIC "-//W3C//DTD SVG 1.1//EN" "http://www.w3.org/Graphics/SVG/1.1/DTD/svg11.dtd">
<svg version="1.1" id="レイヤー_1" xmlns="http://www.w3.org/2000/svg" xmlns:xlink="http://www.w3.org/1999/xlink" x="0px"
	 y="0px" width="64px" height="64px" viewBox="0 0 64 64" enable-background="new 0 0 64 64" xml:space="preserve">
<g>
	<path fill="#C028E5" d="M9.096,28.101h45.809v7.298H9.096V28.101z M31.748,52.261c-1.509,0-2.852-0.586-4.028-1.76
		c-1.006-1.008-1.509-2.267-1.509-3.777c0-1.509,0.503-2.768,1.509-3.774c1.177-1.174,2.52-1.762,4.028-1.762
		c1.511,0,2.854,0.588,4.027,1.762c1.006,1.007,1.51,2.266,1.51,3.774c0,1.511-0.504,2.77-1.51,3.777
		C34.602,51.675,33.259,52.261,31.748,52.261z M32,22.813c-1.509,0-2.853-0.587-4.027-1.761c-1.008-1.007-1.509-2.266-1.509-3.776
		s0.501-2.768,1.509-3.774c1.175-1.175,2.519-1.763,4.027-1.763s2.852,0.588,4.026,1.763c1.008,1.007,1.509,2.264,1.509,3.774
		s-0.501,2.77-1.509,3.776C34.852,22.227,33.509,22.813,32,22.813z"/>
</g>
</svg>
