<?xml version="1.0" encoding="UTF-8" standalone="no"?>
<!-- Generator: Adobe Illustrator 15.0.2, SVG Export Plug-In . SVG Version: 6.00 Build 0)  -->

<svg
   xmlns:dc="http://purl.org/dc/elements/1.1/"
   xmlns:cc="http://creativecommons.org/ns#"
   xmlns:rdf="http://www.w3.org/1999/02/22-rdf-syntax-ns#"
   xmlns:svg="http://www.w3.org/2000/svg"
   xmlns="http://www.w3.org/2000/svg"
   xmlns:sodipodi="http://sodipodi.sourceforge.net/DTD/sodipodi-0.dtd"
   xmlns:inkscape="http://www.inkscape.org/namespaces/inkscape"
   version="1.1"
   id="レイヤー_1"
   x="0px"
   y="0px"
   width="64px"
   height="64px"
   viewBox="0 0 64 64"
   enable-background="new 0 0 64 64"
   xml:space="preserve"
   inkscape:version="0.48.4 r9939"
   sodipodi:docname="helicopter.svg"><metadata
     id="metadata43"><rdf:RDF><cc:Work
         rdf:about=""><dc:format>image/svg+xml</dc:format><dc:type
           rdf:resource="http://purl.org/dc/dcmitype/StillImage" /></cc:Work></rdf:RDF></metadata><defs
     id="defs41" /><sodipodi:namedview
     pagecolor="#ffffff"
     bordercolor="#666666"
     borderopacity="1"
     objecttolerance="10"
     gridtolerance="10"
     guidetolerance="10"
     inkscape:pageopacity="0"
     inkscape:pageshadow="2"
     inkscape:window-width="640"
     inkscape:window-height="480"
     id="namedview39" /><g
     id="g3"><path
       fill="#F0FBFF"
       stroke="#2CA4DE"
       stroke-width="1.5"
       stroke-linecap="round"
       stroke-linejoin="bevel"
       stroke-miterlimit="10"
       d="   M58.014,32.268c0.002-0.033,0.005-0.065,0.007-0.098l0.858-11.889h-2.875l-2.854,8.871H42.562c-1.785,0-3.479-0.557-4.425-2.07   c0,0,0.617-4.426-3.008-4.676c-17.555-0.899-29,2.375-29.802,16.272c-0.354,6.124,5.552,7.103,8.054,7.103   c7.978,0,14.332,0,19.334,0c2.998,0,5.025-2.908,5.025-2.908c1.021-1.464,3.247-3.107,4.945-3.653l14.116-4.536   c0.727-0.233,1.127-1.28,1.21-2.401h0.001L58.014,32.268z"
       id="path5" /><rect
       x="15.004"
       y="45.156"
       fill="#2CA4DE"
       width="3.125"
       height="6.375"
       id="rect7" /><rect
       x="26.141"
       y="45.156"
       fill="#2CA4DE"
       width="3.125"
       height="6.375"
       id="rect9" /><path
       fill="#2CA4DE"
       d="M5.856,49.479c0,0-2.001-1.009-2.001-3.698H1.254c0,0,0.609,6.5,4.603,6.5h34.647v-2.802H5.856z"
       id="path11" /><path
       fill="#1AC9FF"
       d="M8.867,33.633c0,0,1.998-5.323,6.204-6.464l5.468-0.476l-4.837,6.939H8.867z"
       id="path13" /><polygon
       fill="#1AC9FF"
       points="20.455,33.633 24.583,27.082 28.711,27.082 28.711,33.633  "
       id="polygon15" /><polygon
       fill="none"
       stroke="#2CA4DE"
       stroke-linecap="round"
       stroke-linejoin="bevel"
       stroke-miterlimit="10"
       points="   30.207,42.207 17.574,42.207 17.574,35.497 23.402,25.957 30.207,25.957  "
       id="polygon17" /><polygon
       fill="#ABDBEF"
       points="37.629,41.531 35.504,36.531 56.379,34.082  "
       id="polygon19" /><path
       fill="none"
       stroke="#2CA4DE"
       stroke-width="1.5"
       stroke-linecap="round"
       stroke-linejoin="bevel"
       stroke-miterlimit="10"
       d="   M58.014,32.268c0.002-0.033,0.005-0.065,0.007-0.098l0.858-11.889h-2.875l-2.854,8.871H42.562c-1.785,0-3.479-0.557-4.425-2.07   c0,0,0.617-4.426-3.008-4.676c-17.555-0.899-29,2.375-29.802,16.272c-0.354,6.124,5.552,7.103,8.054,7.103   c7.978,0,14.332,0,19.334,0c2.998,0,5.025-2.908,5.025-2.908c1.021-1.464,3.247-3.107,4.945-3.653l14.116-4.536   c0.727-0.233,1.127-1.28,1.21-2.401h0.001L58.014,32.268z"
       id="path21" /><ellipse
       fill="#D9DADA"
       cx="25.691"
       cy="15.375"
       rx="24.438"
       ry="3.656"
       id="ellipse23" /><path
       fill="#F5F5F5"
       d="M25.691,15.375l12.329-3.157c0,0,6.557,0.868,8.983,1.579L25.691,15.375z"
       id="path25" /><path
       fill="#868686"
       d="M25.691,15.375l-20.38,2.017c0,0,1.311,0.35,3.556,0.634L25.691,15.375z"
       id="path27" /><g
       id="g29"><circle
         fill="#D9DADA"
         cx="56.191"
         cy="20.352"
         r="6.555"
         id="circle31" /><path
         fill="#F5F5F5"
         d="M56.191,20.352l-1.246-6.433c0,0,2.009-0.117,2.492,0L56.191,20.352z"
         id="path33" /><polygon
         fill="#F5F5F5"
         points="55.575,26.875 56.191,20.352 56.191,26.906   "
         id="polygon35" /></g><path
       fill="#003E68"
       d="M23.561,14.739c0,0,2.092-1.708,4.143-0.333l1.008,2.103L27.703,16.7v5.147h-3.813V16.7l-1.137-0.191   L23.561,14.739z"
       id="path37" /></g></svg>