<?xml version="1.0" encoding="utf-8"?>
<!-- Generator: Adobe Illustrator 15.0.2, SVG Export Plug-In . SVG Version: 6.00 Build 0)  -->
<!DOCTYPE svg PUBLIC "-//W3C//DTD SVG 1.1//EN" "http://www.w3.org/Graphics/SVG/1.1/DTD/svg11.dtd">
<svg version="1.1" id="レイヤー_1" xmlns="http://www.w3.org/2000/svg" xmlns:xlink="http://www.w3.org/1999/xlink" x="0px"
	 y="0px" width="64px" height="64px" viewBox="0 0 64 64" enable-background="new 0 0 64 64" xml:space="preserve">
<path fill="#7C3C18" d="M36.811,62.75c0,0-1.078-6.667-2.194-11c0,0-0.796-15.84-3.955-19.75c0,0-1.422-7.203,0-11.31
	s3.303-9.19,9.071-11.023s5.86-1.102,5.86-1.102l-5.109,1.745c0,0-5.819,1.773-6.402,5.69s-4.519,4.304-2.613,13.158L35.22,41
	l0.798,11.25c0,0,1.723,8.667,2.77,9.917s0.945,3.583,0.945,3.583h-5.651C34.081,65.75,36.621,64.583,36.811,62.75z"/>
<path fill="#8ECC05" d="M29.667,22.667c0,0,1.333-6.167-9.75-1.25C8.28,26.58,8.833,33.917,8.833,33.917S34.522,27.508,34,23.583
	C33.667,21.083,29.667,22.667,29.667,22.667z"/>
<path fill="#73A005" d="M30.662,35.756c0,0-0.255-6.372,4.558-5.466s8.578,4.377,8.578,4.377S41.349,40.762,30.662,35.756z"/>
<path fill="#7BAA07" d="M9.583,32.5c0,0,14.417-8.083,19.5-9.583C29.083,22.917,20.667,23.871,9.583,32.5z"/>
<path fill="none" stroke="#7BAA07" stroke-width="0.5" stroke-miterlimit="10" d="M23.833,21.25c0,0,5.167-1.5,4.833,1.667"/>
<path fill="none" stroke="#7BAA07" stroke-width="0.5" stroke-miterlimit="10" d="M18.917,23.5c0,0,8.282-2.607,6.099,0.821"/>
<path fill="none" stroke="#7BAA07" stroke-width="0.5" stroke-miterlimit="10" d="M12.917,27.708c0,0,10.17-4.731,8.501-1.761
	c0,0,5.415-1.291,8.082-1.119"/>
<path fill="none" stroke="#7BAA07" stroke-width="0.5" stroke-miterlimit="10" d="M23.833,24.828c0,0,4.667-1.994,7-1.911"/>
<path fill="none" stroke="#7BAA07" stroke-width="0.5" stroke-miterlimit="10" d="M16.987,28.226c0,0,3.836-2.169,8.013-1.51"/>
<path fill="#8BC01F" d="M43.25,31.417c0,0-7.916-2.333-6.833,6.167s13.167,9.5,13.417,12.833c0,0,2.084-6.584,1.25-13.167
	S45.5,26.26,43.25,31.417z"/>
<path fill="#7BAA07" d="M42.995,31.528c0,0,2.5,1.826,6.667,17.205C49.662,48.733,46.078,38.694,42.995,31.528z"/>
<path fill="none" stroke="#7BAA07" stroke-width="0.5" stroke-miterlimit="10" d="M38.5,35c0,0,2.429-3.389,5.298-1.569"/>
<path fill="none" stroke="#7BAA07" stroke-width="0.5" stroke-miterlimit="10" d="M38.787,37.284c0,0,3.198-3.49,5.933-1.745
	c0,0-0.127-3.896,2.484-2.535"/>
<path fill="none" stroke="#7BAA07" stroke-width="0.5" stroke-miterlimit="10" d="M44.223,33.304c0,0-0.107-2.497,1.21-1.775"/>
<path fill="none" stroke="#7BAA07" stroke-width="0.5" stroke-miterlimit="10" d="M40.137,41c0,0,1.989-4.912,5.578-2.914
	c0,0,0.922-3.502,2.589-1.919"/>
<path fill="none" stroke="#7BAA07" stroke-width="0.5" stroke-miterlimit="10" d="M43.014,44.964c0,0-0.694-6.677,3.947-4.13
	c0,0,1.134-3.288,2.72-0.579"/>
<path fill="#8BC01F" d="M35.501,56.676c0,0-6.418-3.333-3.334-3.5S35.501,56.676,35.501,56.676z"/>
<path fill="#8BC01F" d="M36.315,56.75c0,0-0.732-8.417,3.435-7S36.315,56.75,36.315,56.75z"/>
<path fill="#8BC01F" d="M31.546,32.137c0,0-2.305-5.112-7.801,1.67c-5.497,6.782-3.487,5.86-3.487,5.86S40.354,29.204,31.546,32.137
	z"/>
<path fill="#8EC606" d="M34.974,15.583c0,0-6.5-3.083-5.333,3.417s8.167,9.226,8.167,9.226s4.333-11.643,0-14.226
	S34.974,15.583,34.974,15.583z"/>
<path fill="#ADDB3B" d="M40.137,11.667c0,0-9.304-2.167-8.137-6.917C32,4.75,36.939,1.167,40.137,11.667z"/>
<path fill="#ADDB3B" d="M43.334,11c0,0-5.886-4.666,2.099-7.583S50.584,3.167,43.334,11z"/>
<path fill="#A6CC09" d="M38.787,13.155c0,0,7.879-4.488,10.463-1.488S46.824,14.227,38.787,13.155z"/>
<path fill="#8BC01F" d="M34.008,12.299c0,0-2.091-2.948-7.174-1.665C26.833,10.634,21.766,15.431,34.008,12.299z"/>
<path fill="#8BC01F" d="M34.834,11c0,0,3.906-0.652,3.953,1.299S34.834,11,34.834,11z"/>
<path fill="#8BC01F" d="M36.625,40.505c0,0-5.026-3.416-9.418,3s-7.308,6.827-7.308,6.827S28.185,49.839,36.625,40.505z"/>
<path fill="none" stroke="#7BAA07" stroke-width="0.5" stroke-miterlimit="10" d="M34.834,16c0,0,3.651,0.328,2.698,11.408"/>
<path fill="none" stroke="#7BAA07" stroke-width="0.5" stroke-miterlimit="10" d="M31.899,19.515c0,0,0.31-4.323,3.763-3.092
	c0,0-1.054-2.244,0.601-2.458"/>
<path fill="none" stroke="#7BAA07" stroke-width="0.5" stroke-miterlimit="10" d="M32.748,22.551c0,0,1.621-6.667,4.187-4.109
	c0,0-0.307-2.394,0.757-2.442"/>
<path fill="none" stroke="#7BAA07" stroke-width="0.5" stroke-miterlimit="10" d="M34.834,24.828c0,0,0.715-7.114,2.857-4.138
	c0,0,0.6-2.832,0.809-0.273"/>
</svg>
