<?xml version="1.0" encoding="utf-8"?>
<!-- Generator: Adobe Illustrator 15.0.2, SVG Export Plug-In . SVG Version: 6.00 Build 0)  -->
<!DOCTYPE svg PUBLIC "-//W3C//DTD SVG 1.1//EN" "http://www.w3.org/Graphics/SVG/1.1/DTD/svg11.dtd">
<svg version="1.1" id="レイヤー_1" xmlns="http://www.w3.org/2000/svg" xmlns:xlink="http://www.w3.org/1999/xlink" x="0px"
	 y="0px" width="64px" height="64px" viewBox="0 0 64 64" enable-background="new 0 0 64 64" xml:space="preserve">
<g>
	<circle fill="none" stroke="#FFD815" stroke-width="3.8514" stroke-miterlimit="10" cx="32" cy="32" r="10.688"/>
	<path fill="#FFD815" d="M34.938,13.688c0,1.623-1.314,2.938-2.938,2.938l0,0c-1.623,0-2.938-1.315-2.938-2.938v-9.25
		C29.063,2.815,30.377,1.5,32,1.5l0,0c1.623,0,2.938,1.315,2.938,2.938V13.688z"/>
	<path fill="#FFD815" d="M21.128,16.974c1.147,1.147,1.147,3.006,0,4.154l0,0c-1.147,1.147-3.007,1.147-4.154,0l-6.541-6.541
		c-1.147-1.147-1.147-3.007,0-4.154l0,0c1.148-1.147,3.007-1.147,4.154,0L21.128,16.974z"/>
	<path fill="#FFD815" d="M13.688,29.063c1.622,0,2.937,1.314,2.938,2.938l0,0c0,1.622-1.315,2.938-2.938,2.938h-9.25
		C2.815,34.938,1.5,33.622,1.5,32l0,0c0-1.623,1.315-2.938,2.938-2.938H13.688z"/>
	<path fill="#FFD815" d="M16.975,42.871c1.146-1.147,3.006-1.147,4.154,0l0,0c1.146,1.147,1.147,3.008,0,4.154l-6.542,6.541
		c-1.147,1.147-3.007,1.147-4.154,0l0,0c-1.147-1.147-1.147-3.007,0-4.154L16.975,42.871z"/>
	<path fill="#FFD815" d="M29.063,50.312c0-1.622,1.314-2.937,2.938-2.938l0,0c1.622,0.001,2.938,1.315,2.938,2.938v9.251
		c0,1.622-1.315,2.938-2.938,2.938l0,0c-1.622-0.001-2.937-1.315-2.938-2.938L29.063,50.312z"/>
	<path fill="#FFD815" d="M42.871,47.025c-1.147-1.146-1.147-3.006,0-4.154l0,0c1.147-1.146,3.008-1.147,4.154,0l6.541,6.541
		c1.147,1.147,1.147,3.008,0,4.155l0,0c-1.147,1.146-3.007,1.146-4.154,0L42.871,47.025z"/>
	<path fill="#FFD815" d="M50.312,34.938c-1.622,0.001-2.937-1.314-2.938-2.938l0,0c0.001-1.622,1.315-2.938,2.938-2.938h9.251
		c1.622,0,2.938,1.315,2.938,2.938l0,0c0,1.623-1.315,2.937-2.938,2.938L50.312,34.938z"/>
	<path fill="#FFD815" d="M47.025,21.129c-1.146,1.147-3.006,1.147-4.154,0l0,0c-1.146-1.147-1.147-3.008,0-4.154l6.541-6.542
		c1.147-1.147,3.008-1.147,4.155,0l0,0c1.147,1.147,1.146,3.007,0,4.155L47.025,21.129z"/>
</g>
</svg>
