<?xml version="1.0" encoding="utf-8"?>
<!-- Generator: Adobe Illustrator 15.0.2, SVG Export Plug-In . SVG Version: 6.00 Build 0)  -->
<!DOCTYPE svg PUBLIC "-//W3C//DTD SVG 1.1//EN" "http://www.w3.org/Graphics/SVG/1.1/DTD/svg11.dtd">
<svg version="1.1" xmlns="http://www.w3.org/2000/svg" xmlns:xlink="http://www.w3.org/1999/xlink" x="0px" y="0px" width="64px"
	 height="64px" viewBox="0 0 64 64" enable-background="new 0 0 64 64" xml:space="preserve">
<g id="レイヤー_1">
</g>
<g id="ここから下は新しいやつ">
	<g id="U_x2B_1F3E8">
		<g>
			<polygon fill="#A7C0C6" stroke="#5D6D84" stroke-width="2" stroke-miterlimit="1" points="61.828,59 50.666,59 50.666,30.333 
				61.828,35.11 			"/>
			<polygon fill="#A7C0C6" stroke="#5D6D84" stroke-width="2" stroke-miterlimit="2" points="48.008,59 36.846,59 36.846,7 
				48.008,15.667 			"/>
			<polygon fill="#DDE5E8" stroke="#5D6D84" stroke-width="2" stroke-miterlimit="10" points="36.711,30.667 36.711,7 4.545,7 
				4.545,59 35.875,59 36.711,59 51.666,59 51.666,30.667 			"/>
			<rect x="26.268" y="48.263" fill="#6CBAEA" width="11.374" height="9.577"/>
			<g>
				<g>
					<path fill="#FFFFFF" d="M25.752,26.359h-4.004v-5.511h-4.959v5.511h-4.004V12.877h4.004v5.215h4.959v-5.215h4.004V26.359z"/>
				</g>
				<g>
					<path fill="none" stroke="#2CA4DE" stroke-width="3.3533" d="M25.752,26.359h-4.004v-5.511h-4.959v5.511h-4.004V12.877h4.004
						v5.215h4.959v-5.215h4.004V26.359z"/>
				</g>
				<g>
					<path fill="#FFFFFF" d="M25.752,26.359h-4.004v-5.511h-4.959v5.511h-4.004V12.877h4.004v5.215h4.959v-5.215h4.004V26.359z"/>
				</g>
			</g>
			<g>
				<rect x="8.57" y="33" fill="#6CBAEA" width="5.13" height="6.012"/>
				<rect x="14.854" y="33" fill="#6CBAEA" width="5.129" height="6.012"/>
				<rect x="21.138" y="33" fill="#6CBAEA" width="5.129" height="6.012"/>
				<rect x="27.421" y="33" fill="#6CBAEA" width="5.129" height="6.012"/>
			</g>
			<g>
				<rect x="14.854" y="40.006" fill="#6CBAEA" width="5.13" height="6.012"/>
				<rect x="21.139" y="40.006" fill="#6CBAEA" width="5.13" height="6.012"/>
				<rect x="27.423" y="40.006" fill="#6CBAEA" width="5.129" height="6.012"/>
				<rect x="33.706" y="40.006" fill="#6CBAEA" width="5.129" height="6.012"/>
			</g>
		</g>
	</g>
</g>
</svg>
