<?xml version="1.0" encoding="utf-8"?>
<!-- Generator: Adobe Illustrator 15.0.2, SVG Export Plug-In . SVG Version: 6.00 Build 0)  -->
<!DOCTYPE svg PUBLIC "-//W3C//DTD SVG 1.1//EN" "http://www.w3.org/Graphics/SVG/1.1/DTD/svg11.dtd">
<svg version="1.1" id="レイヤー_1" xmlns="http://www.w3.org/2000/svg" xmlns:xlink="http://www.w3.org/1999/xlink" x="0px"
	 y="0px" width="64px" height="64px" viewBox="0 0 64 64" style="enable-background:new 0 0 64 64;" xml:space="preserve">
<g>
	<g>
		<g>
			<linearGradient id="SVGID_1_" gradientUnits="userSpaceOnUse" x1="3.3549805" y1="32" x2="60.6445313" y2="32">
				<stop  offset="0" style="stop-color:#F0F5FA"/>
				<stop  offset="1" style="stop-color:#94B0CC"/>
			</linearGradient>
			<polygon style="fill:url(#SVGID_1_);" points="46.7089844,10.9570313 46.7089844,29.7070313 49.8945313,29.7070313 
				60.6445313,34.4423828 60.6445313,58.0273438 3.3549805,58.0273438 3.3549805,5.9726563 35.734375,5.9726563 			"/>
		</g>
		<linearGradient id="SVGID_2_" gradientUnits="userSpaceOnUse" x1="4.6450195" y1="32.3945313" x2="48.5195313" y2="32.3945313">
			<stop  offset="0" style="stop-color:#E6EBF0"/>
			<stop  offset="1" style="stop-color:#94B0CC"/>
		</linearGradient>
		<polygon style="fill:url(#SVGID_2_);" points="48.5195313,30.8945313 48.5195313,57.8320313 4.6450195,57.8320313 
			4.6450195,6.9570313 34.8339844,6.9570313 34.8339844,30.8945313 		"/>
		<polygon style="opacity:0.25;fill:#3B6685;" points="49.6445313,58.0410156 60.6035156,58.0410156 60.6035156,34.4570313 
			49.7695313,29.6240234 		"/>
		<polygon style="opacity:0.25;fill:#3B6685;" points="35.7695313,6.1235352 35.7695313,29.6655273 46.6445313,29.6655273 
			46.6445313,10.9155273 		"/>
		<linearGradient id="SVGID_3_" gradientUnits="userSpaceOnUse" x1="36.4375" y1="18.5615234" x2="45.9375" y2="18.5615234">
			<stop  offset="0" style="stop-color:#C4D9E0"/>
			<stop  offset="1" style="stop-color:#3B6685"/>
		</linearGradient>
		<polygon style="opacity:0.1;fill:url(#SVGID_3_);" points="36.4375,29.6655273 36.4375,7.4570313 45.9375,11.5405273 
			45.9375,29.5405273 		"/>
		<linearGradient id="SVGID_4_" gradientUnits="userSpaceOnUse" x1="50.5625" y1="44.4570313" x2="59.8945313" y2="44.4570313">
			<stop  offset="0" style="stop-color:#C4D9E0"/>
			<stop  offset="1" style="stop-color:#3B6685"/>
		</linearGradient>
		<polygon style="opacity:0.1;fill:url(#SVGID_4_);" points="50.5625,57.9160156 50.5625,30.9570313 59.8945313,35.1445313 
			59.8945313,57.9570313 		"/>
	</g>
	<g>
		<g>
			<g>
				<linearGradient id="SVGID_5_" gradientUnits="userSpaceOnUse" x1="6.4956055" y1="32.1655273" x2="12.3375244" y2="38.0074425">
					<stop  offset="0" style="stop-color:#FFFFFF"/>
					<stop  offset="1" style="stop-color:#7AA8E0"/>
				</linearGradient>
				<path style="fill:url(#SVGID_5_);" d="M6.7109375,38.2226563V31.949707h5.4101563v6.043457v0.2294922H6.7109375
					L6.7109375,38.2226563z"/>
				<path style="fill:#5D6D84;" d="M12.2460938,38.3476563H6.5859375V31.824707h5.6601563V38.3476563z M6.8359375,38.0976563
					h5.1601563v-6.0224609H6.8359375V38.0976563z"/>
			</g>
			<g>
				<linearGradient id="SVGID_6_" gradientUnits="userSpaceOnUse" x1="6.9047852" y1="32.5834961" x2="11.9104671" y2="37.5891762">
					<stop  offset="0" style="stop-color:#D1F2FF"/>
					<stop  offset="1" style="stop-color:#1F5791"/>
				</linearGradient>
				<rect x="7.1054688" y="32.3828125" style="fill:url(#SVGID_6_);" width="4.6040039" height="5.4072266"/>
				<path style="fill:#5D6D84;" d="M11.8344727,37.9150391H6.9804688v-5.6572266h4.8540039V37.9150391z M7.2304688,37.6650391
					h4.3540039v-5.1572266H7.2304688V37.6650391z"/>
			</g>
			<g style="opacity:0.25;">
				<rect x="7.3632813" y="32.640625" style="opacity:0.5;fill:#FFFFFF;" width="4.097168" height="4.8828125"/>
			</g>
			<g style="opacity:0.25;">
				<polygon style="opacity:0.5;fill:#FFFFFF;" points="7.3632813,37.2558594 11.4604492,35.1591797 11.4604492,33.3691406 
					7.3632813,35.4658203 				"/>
			</g>
		</g>
		<g>
			<g>
				<linearGradient id="SVGID_7_" gradientUnits="userSpaceOnUse" x1="12.7363281" y1="39.265625" x2="18.5782471" y2="45.1075401">
					<stop  offset="0" style="stop-color:#FFFFFF"/>
					<stop  offset="1" style="stop-color:#7AA8E0"/>
				</linearGradient>
				<path style="fill:url(#SVGID_7_);" d="M12.9521484,45.3232422v-6.2734375h5.4101563V45.09375v0.2294922H12.9521484
					L12.9521484,45.3232422z"/>
				<path style="fill:#5D6D84;" d="M18.4873047,45.4482422h-5.6601563v-6.5234375h5.6601563V45.4482422z M13.0771484,45.1982422
					h5.1601563v-6.0234375h-5.1601563V45.1982422z"/>
			</g>
			<g>
				
					<linearGradient id="SVGID_8_" gradientUnits="userSpaceOnUse" x1="13.1459961" y1="39.6835938" x2="18.1523685" y2="44.6899643">
					<stop  offset="0" style="stop-color:#D1F2FF"/>
					<stop  offset="1" style="stop-color:#1F5791"/>
				</linearGradient>
				<rect x="13.3466797" y="39.4824219" style="fill:url(#SVGID_8_);" width="4.6040039" height="5.4082031"/>
				<path style="fill:#5D6D84;" d="M18.0756836,45.015625h-4.8540039v-5.6582031h4.8540039V45.015625z M13.4716797,44.765625
					h4.3540039v-5.1582031h-4.3540039V44.765625z"/>
			</g>
			<g style="opacity:0.25;">
				<rect x="13.6044922" y="39.7412109" style="opacity:0.5;fill:#FFFFFF;" width="4.097168" height="4.8828125"/>
			</g>
			<g style="opacity:0.25;">
				<polygon style="opacity:0.5;fill:#FFFFFF;" points="13.6044922,44.3554688 17.7016602,42.2597656 17.7016602,40.46875 
					13.6044922,42.5664063 				"/>
			</g>
		</g>
		<g>
			<g>
				
					<linearGradient id="SVGID_9_" gradientUnits="userSpaceOnUse" x1="12.7460938" y1="32.1660156" x2="18.5873222" y2="38.0072403">
					<stop  offset="0" style="stop-color:#FFFFFF"/>
					<stop  offset="1" style="stop-color:#7AA8E0"/>
				</linearGradient>
				<path style="fill:url(#SVGID_9_);" d="M12.9609375,38.2226563V31.949707h5.4101563v6.043457v0.2294922H12.9609375
					L12.9609375,38.2226563z"/>
				<path style="fill:#5D6D84;" d="M18.4960938,38.3476563h-5.6601563V31.824707h5.6601563V38.3476563z M13.0859375,38.0976563
					h5.1601563v-6.0224609h-5.1601563V38.0976563z"/>
			</g>
			<g>
				
					<linearGradient id="SVGID_10_" gradientUnits="userSpaceOnUse" x1="13.1552734" y1="32.5839844" x2="18.1609554" y2="37.5896645">
					<stop  offset="0" style="stop-color:#D1F2FF"/>
					<stop  offset="1" style="stop-color:#1F5791"/>
				</linearGradient>
				<rect x="13.3554688" y="32.3828125" style="fill:url(#SVGID_10_);" width="4.6040039" height="5.4072266"/>
				<path style="fill:#5D6D84;" d="M18.0844727,37.9150391h-4.8540039v-5.6572266h4.8540039V37.9150391z M13.4804688,37.6650391
					h4.3540039v-5.1572266h-4.3540039V37.6650391z"/>
			</g>
			<g style="opacity:0.25;">
				<rect x="13.6132813" y="32.640625" style="opacity:0.5;fill:#FFFFFF;" width="4.097168" height="4.8828125"/>
			</g>
			<g style="opacity:0.25;">
				<polygon style="opacity:0.5;fill:#FFFFFF;" points="13.6132813,37.2558594 17.7104492,35.1591797 17.7104492,33.3691406 
					13.6132813,35.4658203 				"/>
			</g>
		</g>
		<g>
			<g>
				
					<linearGradient id="SVGID_11_" gradientUnits="userSpaceOnUse" x1="18.9868164" y1="39.2666016" x2="24.8287354" y2="45.1085167">
					<stop  offset="0" style="stop-color:#FFFFFF"/>
					<stop  offset="1" style="stop-color:#7AA8E0"/>
				</linearGradient>
				<path style="fill:url(#SVGID_11_);" d="M19.2021484,45.3232422v-6.2734375h5.4101563V45.09375v0.2294922H19.2021484
					L19.2021484,45.3232422z"/>
				<path style="fill:#5D6D84;" d="M24.7373047,45.4482422h-5.6601563v-6.5234375h5.6601563V45.4482422z M19.3271484,45.1982422
					h5.1601563v-6.0234375h-5.1601563V45.1982422z"/>
			</g>
			<g>
				
					<linearGradient id="SVGID_12_" gradientUnits="userSpaceOnUse" x1="19.3959961" y1="39.6835938" x2="24.4016781" y2="44.6892738">
					<stop  offset="0" style="stop-color:#D1F2FF"/>
					<stop  offset="1" style="stop-color:#1F5791"/>
				</linearGradient>
				<rect x="19.5966797" y="39.4824219" style="fill:url(#SVGID_12_);" width="4.6040039" height="5.4082031"/>
				<path style="fill:#5D6D84;" d="M24.3256836,45.015625h-4.8540039v-5.6582031h4.8540039V45.015625z M19.7216797,44.765625
					h4.3540039v-5.1582031h-4.3540039V44.765625z"/>
			</g>
			<g style="opacity:0.25;">
				<rect x="19.8544922" y="39.7412109" style="opacity:0.5;fill:#FFFFFF;" width="4.097168" height="4.8828125"/>
			</g>
			<g style="opacity:0.25;">
				<polygon style="opacity:0.5;fill:#FFFFFF;" points="19.8544922,44.3554688 23.9516602,42.2597656 23.9516602,40.46875 
					19.8544922,42.5664063 				"/>
			</g>
		</g>
		<g>
			<g>
				
					<linearGradient id="SVGID_13_" gradientUnits="userSpaceOnUse" x1="18.9951172" y1="32.1660156" x2="24.8363457" y2="38.0072403">
					<stop  offset="0" style="stop-color:#FFFFFF"/>
					<stop  offset="1" style="stop-color:#7AA8E0"/>
				</linearGradient>
				<path style="fill:url(#SVGID_13_);" d="M19.2104492,38.2226563V31.949707h5.4101563v6.043457v0.2294922H19.2104492
					L19.2104492,38.2226563z"/>
				<path style="fill:#5D6D84;" d="M24.7456055,38.3476563h-5.6601563V31.824707h5.6601563V38.3476563z M19.3354492,38.0976563
					h5.1601563v-6.0224609h-5.1601563V38.0976563z"/>
			</g>
			<g>
				
					<linearGradient id="SVGID_14_" gradientUnits="userSpaceOnUse" x1="19.4042969" y1="32.5839844" x2="24.4099789" y2="37.5896645">
					<stop  offset="0" style="stop-color:#D1F2FF"/>
					<stop  offset="1" style="stop-color:#1F5791"/>
				</linearGradient>
				<rect x="19.6049805" y="32.3828125" style="fill:url(#SVGID_14_);" width="4.6040039" height="5.4072266"/>
				<path style="fill:#5D6D84;" d="M24.3339844,37.9150391h-4.8540039v-5.6572266h4.8540039V37.9150391z M19.7299805,37.6650391
					h4.3540039v-5.1572266h-4.3540039V37.6650391z"/>
			</g>
			<g style="opacity:0.25;">
				<rect x="19.862793" y="32.640625" style="opacity:0.5;fill:#FFFFFF;" width="4.097168" height="4.8828125"/>
			</g>
			<g style="opacity:0.25;">
				<polygon style="opacity:0.5;fill:#FFFFFF;" points="19.862793,37.2558594 23.9599609,35.1591797 23.9599609,33.3691406 
					19.862793,35.4658203 				"/>
			</g>
		</g>
		<g>
			<g>
				
					<linearGradient id="SVGID_15_" gradientUnits="userSpaceOnUse" x1="25.2363281" y1="39.265625" x2="31.0782471" y2="45.1075401">
					<stop  offset="0" style="stop-color:#FFFFFF"/>
					<stop  offset="1" style="stop-color:#7AA8E0"/>
				</linearGradient>
				<path style="fill:url(#SVGID_15_);" d="M25.4516602,45.3232422v-6.2734375h5.4101563V45.09375v0.2294922H25.4516602
					L25.4516602,45.3232422z"/>
				<path style="fill:#5D6D84;" d="M30.9868164,45.4482422h-5.6601563v-6.5234375h5.6601563V45.4482422z M25.5766602,45.1982422
					h5.1601563v-6.0234375h-5.1601563V45.1982422z"/>
			</g>
			<g>
				
					<linearGradient id="SVGID_16_" gradientUnits="userSpaceOnUse" x1="25.6455078" y1="39.6835938" x2="30.6511898" y2="44.6892738">
					<stop  offset="0" style="stop-color:#D1F2FF"/>
					<stop  offset="1" style="stop-color:#1F5791"/>
				</linearGradient>
				<rect x="25.8461914" y="39.4824219" style="fill:url(#SVGID_16_);" width="4.6040039" height="5.4082031"/>
				<path style="fill:#5D6D84;" d="M30.5751953,45.015625h-4.8540039v-5.6582031h4.8540039V45.015625z M25.9711914,44.765625
					h4.3540039v-5.1582031h-4.3540039V44.765625z"/>
			</g>
			<g style="opacity:0.25;">
				<rect x="26.1040039" y="39.7412109" style="opacity:0.5;fill:#FFFFFF;" width="4.097168" height="4.8828125"/>
			</g>
			<g style="opacity:0.25;">
				<polygon style="opacity:0.5;fill:#FFFFFF;" points="26.1040039,44.3554688 30.2011719,42.2597656 30.2011719,40.46875 
					26.1040039,42.5664063 				"/>
			</g>
		</g>
		<g>
			<g>
				
					<linearGradient id="SVGID_17_" gradientUnits="userSpaceOnUse" x1="25.2451172" y1="32.1655273" x2="31.0870361" y2="38.0074425">
					<stop  offset="0" style="stop-color:#FFFFFF"/>
					<stop  offset="1" style="stop-color:#7AA8E0"/>
				</linearGradient>
				<path style="fill:url(#SVGID_17_);" d="M25.4604492,38.2226563V31.949707h5.4101563v6.043457v0.2294922H25.4604492
					L25.4604492,38.2226563z"/>
				<path style="fill:#5D6D84;" d="M30.9956055,38.3476563h-5.6601563V31.824707h5.6601563V38.3476563z M25.5854492,38.0976563
					h5.1601563v-6.0224609h-5.1601563V38.0976563z"/>
			</g>
			<g>
				
					<linearGradient id="SVGID_18_" gradientUnits="userSpaceOnUse" x1="25.6547852" y1="32.5839844" x2="30.6604671" y2="37.5896645">
					<stop  offset="0" style="stop-color:#D1F2FF"/>
					<stop  offset="1" style="stop-color:#1F5791"/>
				</linearGradient>
				<rect x="25.8549805" y="32.3828125" style="fill:url(#SVGID_18_);" width="4.6044922" height="5.4072266"/>
				<path style="fill:#5D6D84;" d="M30.5844727,37.9150391h-4.8544922v-5.6572266h4.8544922V37.9150391z M25.9799805,37.6650391
					h4.3544922v-5.1572266h-4.3544922V37.6650391z"/>
			</g>
			<g style="opacity:0.25;">
				<rect x="26.112793" y="32.640625" style="opacity:0.5;fill:#FFFFFF;" width="4.0966797" height="4.8828125"/>
			</g>
			<g style="opacity:0.25;">
				<polygon style="opacity:0.5;fill:#FFFFFF;" points="26.112793,37.2558594 30.2094727,35.1591797 30.2094727,33.3691406 
					26.112793,35.4658203 				"/>
			</g>
		</g>
		<g>
			<g>
				
					<linearGradient id="SVGID_19_" gradientUnits="userSpaceOnUse" x1="31.4829102" y1="39.2685547" x2="37.3199959" y2="45.1056366">
					<stop  offset="0" style="stop-color:#FFFFFF"/>
					<stop  offset="1" style="stop-color:#7AA8E0"/>
				</linearGradient>
				<path style="fill:url(#SVGID_19_);" d="M31.7006836,45.3232422v-6.2734375h5.4008789V45.09375v0.2294922H31.7006836
					L31.7006836,45.3232422z"/>
				<path style="fill:#5D6D84;" d="M37.2265625,45.4482422h-5.6508789v-6.5234375h5.6508789V45.4482422z M31.8256836,45.1982422
					h5.1508789v-6.0234375h-5.1508789V45.1982422z"/>
			</g>
			<g>
				
					<linearGradient id="SVGID_20_" gradientUnits="userSpaceOnUse" x1="31.8930664" y1="39.6865234" x2="36.8952942" y2="44.6887512">
					<stop  offset="0" style="stop-color:#D1F2FF"/>
					<stop  offset="1" style="stop-color:#1F5791"/>
				</linearGradient>
				<rect x="32.0952148" y="39.4824219" style="fill:url(#SVGID_20_);" width="4.5961914" height="5.4082031"/>
				<path style="fill:#5D6D84;" d="M36.8164063,45.015625h-4.8461914v-5.6582031h4.8461914V45.015625z M32.2202148,44.765625
					h4.3461914v-5.1582031h-4.3461914V44.765625z"/>
			</g>
			<g style="opacity:0.25;">
				<rect x="32.3520508" y="39.7412109" style="opacity:0.5;fill:#FFFFFF;" width="4.0893555" height="4.8828125"/>
			</g>
			<g style="opacity:0.25;">
				<polygon style="opacity:0.5;fill:#FFFFFF;" points="32.3520508,44.3554688 36.4414063,42.2597656 36.4414063,40.46875 
					32.3520508,42.5664063 				"/>
			</g>
		</g>
	</g>
	<g>
		<g>
			<g>
				
					<linearGradient id="SVGID_21_" gradientUnits="userSpaceOnUse" x1="24.3730469" y1="45.9951172" x2="36.9801292" y2="58.6021919">
					<stop  offset="0" style="stop-color:#FFFFFF"/>
					<stop  offset="1" style="stop-color:#7AA8E0"/>
				</linearGradient>
				<path style="fill:url(#SVGID_21_);" d="M22.8149414,57.0439453v-9.4921875h15.722168v9.1445313v0.3476563H22.8149414
					L22.8149414,57.0439453z"/>
				<path style="fill:#5D6D84;" d="M38.6621094,57.1689453h-15.972168v-9.7421875h15.972168V57.1689453z M22.9399414,56.9189453
					h15.472168v-9.2421875h-15.472168V56.9189453z"/>
			</g>
			<g>
				
					<linearGradient id="SVGID_22_" gradientUnits="userSpaceOnUse" x1="22.9360352" y1="48.6074219" x2="30.5374355" y2="56.2088165">
					<stop  offset="0" style="stop-color:#D1F2FF"/>
					<stop  offset="1" style="stop-color:#1F5791"/>
				</linearGradient>
				<rect x="23.2739258" y="48.2685547" style="fill:url(#SVGID_22_);" width="6.9248047" height="8.2773438"/>
				<path style="fill:#5D6D84;" d="M30.3237305,56.6708984h-7.1748047v-8.5273438h7.1748047V56.6708984z M23.3989258,56.4208984
					h6.6748047v-8.0273438h-6.6748047V56.4208984z"/>
			</g>
			<g style="opacity:0.25;">
				<rect x="23.6113281" y="48.5976563" style="opacity:0.5;fill:#FFFFFF;" width="6.2275391" height="7.5449219"/>
			</g>
			<g style="opacity:0.25;">
				<polygon style="opacity:0.5;fill:#FFFFFF;" points="23.6113281,55.7275391 29.8388672,52.4892578 29.8388672,49.7226563 
					23.6113281,52.9638672 				"/>
			</g>
			<g>
				
					<linearGradient id="SVGID_23_" gradientUnits="userSpaceOnUse" x1="30.7646484" y1="48.5810547" x2="38.4178391" y2="56.2342415">
					<stop  offset="0" style="stop-color:#D1F2FF"/>
					<stop  offset="1" style="stop-color:#1F5791"/>
				</linearGradient>
				<rect x="31.0761719" y="48.2685547" style="fill:url(#SVGID_23_);" width="7.0292969" height="8.2773438"/>
				<path style="fill:#5D6D84;" d="M38.2304688,56.6708984h-7.2792969v-8.5273438h7.2792969V56.6708984z M31.2011719,56.4208984
					h6.7792969v-8.0273438h-6.7792969V56.4208984z"/>
			</g>
			<g style="opacity:0.25;">
				<rect x="31.418457" y="48.5976563" style="opacity:0.5;fill:#FFFFFF;" width="6.3217773" height="7.5449219"/>
			</g>
			<g style="opacity:0.25;">
				<polygon style="opacity:0.5;fill:#FFFFFF;" points="31.418457,55.7275391 37.7402344,52.4892578 37.7402344,49.7226563 
					31.418457,52.9638672 				"/>
			</g>
		</g>
		<g>
			<line style="fill:#DDE5E8;" x1="30.6240234" y1="47.5820313" x2="30.6240234" y2="57.1865234"/>
			<rect x="30.4990234" y="47.5820313" style="fill:#5D6D84;" width="0.25" height="9.6044922"/>
		</g>
	</g>
	<g>
		<g>
			<path style="fill:#5D6D84;" d="M61.0195313,58.4023438H2.9799805V5.5976563L35.890625,5.6313477l11.1933594,5.0839844v18.6166992
				l2.9628906,0.0317383l10.9726563,4.8344727V58.4023438z M3.7299805,57.6523438h56.5395508V34.6865234l-10.453125-4.6044922
				h-3.4824219V11.1987305L35.6542969,6.3476563H3.7299805V57.6523438z"/>
			<rect x="49.4433594" y="29.7070313" style="fill:#5D6D84;" width="0.5" height="28.375"/>
		</g>
		<rect x="35.4863281" y="6.2563477" style="fill:#5D6D84;" width="0.5" height="23.8256836"/>
		<rect x="35.6445313" y="29.3320313" style="fill:#5D6D84;" width="11.6875" height="0.75"/>
	</g>
	<g>
		<g>
			<path style="fill:#FFFFFF;" d="M24.1469727,25.3164063h-4.0043945v-5.5112305h-4.9594727v5.5112305h-4.0043945V11.8344727
				h4.0043945v5.2148438h4.9594727v-5.2148438h4.0043945V25.3164063z"/>
		</g>
		<g>
			<path style="fill:#5D6D84;" d="M24.1469727,25.3164063h-4.0043945v-5.5112305h-4.9594727v5.5112305h-4.0043945V11.8344727
				h4.0043945v5.2148438h4.9594727v-5.2148438h4.0043945V25.3164063z"/>
		</g>
	</g>
	<g>
		<g>
			<path style="fill:#FFFFFF;" d="M23.5800781,24.7495117h-4.0043945v-5.5112305h-4.9594727v5.5112305h-4.0043945V11.2675781
				h4.0043945v5.2148438h4.9594727v-5.2148438h4.0043945V24.7495117z"/>
		</g>
		<g>
			<path style="fill:#5D6D84;" d="M23.8300781,24.9995117h-4.5043945v-5.5112305h-4.4594727v5.5112305h-4.5043945V11.0175781
				h4.5043945v5.2148438h4.4594727v-5.2148438h4.5043945V24.9995117z M19.8256836,24.4995117h3.5043945V11.5175781h-3.5043945
				v5.2148438h-5.4594727v-5.2148438h-3.5043945v12.9819336h3.5043945v-5.5112305h5.4594727V24.4995117z"/>
		</g>
		<g>
			<linearGradient id="SVGID_24_" gradientUnits="userSpaceOnUse" x1="9.3144531" y1="13.5161133" x2="24.8783875" y2="22.5019493">
				<stop  offset="0" style="stop-color:#FFFFFF"/>
				<stop  offset="1" style="stop-color:#9CC9FF"/>
			</linearGradient>
			<path style="fill:url(#SVGID_24_);" d="M23.5800781,24.7495117h-4.0043945v-5.5112305h-4.9594727v5.5112305h-4.0043945
				V11.2675781h4.0043945v5.2148438h4.9594727v-5.2148438h4.0043945V24.7495117z"/>
		</g>
	</g>
</g>
</svg>
