<?xml version="1.0" encoding="UTF-8" standalone="no"?>
<!-- Generator: Adobe Illustrator 15.0.0, SVG Export Plug-In . SVG Version: 6.00 Build 0)  -->

<svg
   xmlns:dc="http://purl.org/dc/elements/1.1/"
   xmlns:cc="http://creativecommons.org/ns#"
   xmlns:rdf="http://www.w3.org/1999/02/22-rdf-syntax-ns#"
   xmlns:svg="http://www.w3.org/2000/svg"
   xmlns="http://www.w3.org/2000/svg"
   xmlns:sodipodi="http://sodipodi.sourceforge.net/DTD/sodipodi-0.dtd"
   xmlns:inkscape="http://www.inkscape.org/namespaces/inkscape"
   version="1.1"
   id="レイヤー_1"
   x="0px"
   y="0px"
   width="64px"
   height="64px"
   viewBox="0 0 64 64"
   style="enable-background:new 0 0 64 64;"
   xml:space="preserve"
   inkscape:version="0.48.4 r9939"
   sodipodi:docname="hotsprings.svg"><metadata
     id="metadata17"><rdf:RDF><cc:Work
         rdf:about=""><dc:format>image/svg+xml</dc:format><dc:type
           rdf:resource="http://purl.org/dc/dcmitype/StillImage" /></cc:Work></rdf:RDF></metadata><defs
     id="defs15" /><sodipodi:namedview
     pagecolor="#ffffff"
     bordercolor="#666666"
     borderopacity="1"
     objecttolerance="10"
     gridtolerance="10"
     guidetolerance="10"
     inkscape:pageopacity="0"
     inkscape:pageshadow="2"
     inkscape:window-width="640"
     inkscape:window-height="480"
     id="namedview13" /><g
     id="g3"><path
       style="fill-rule:evenodd;clip-rule:evenodd;fill:#EF0000;"
       d="M33.4814453,6.7558594   c-0.2294922,2.3178711-2.3666992,4.6791992-2.7255859,7.8886719c-0.8730469,7.8027344,5.7900391,11.6630859,5.7382813,18.6455078   c-0.0361328,4.7490234-3.1259766,8.3496094-6.8857422,10.1835938c3.7578125-4.2851563,4.3583984-10.4804688,1.2905273-15.7773438   c-1.4882813-2.5712891-3.2070313-4.559082-3.5854492-7.6015625C26.5307617,13.800293,30.1606445,9.90625,33.3378906,6.7558594   C33.3857422,6.7558594,33.4335938,6.7558594,33.4814453,6.7558594z"
       id="path5" /><path
       style="fill-rule:evenodd;clip-rule:evenodd;fill:#EF0000;"
       d="M22.7719727,6.7558594   c-0.2294922,2.3178711-2.3657227,4.6791992-2.7246094,7.8886719c-0.8730469,7.8027344,5.7890625,11.6630859,5.7373047,18.6455078   c-0.0361328,4.7490234-3.1259766,8.3496094-6.8847656,10.1835938c3.7568359-4.2851563,4.3574219-10.4804688,1.2905273-15.7773438   c-1.4882813-2.5712891-3.2070313-4.559082-3.5854492-7.6015625C15.8222656,13.800293,19.4521484,9.90625,22.628418,6.7558594   C22.6762695,6.7558594,22.7241211,6.7558594,22.7719727,6.7558594z"
       id="path7" /><path
       style="fill-rule:evenodd;clip-rule:evenodd;fill:#EF0000;"
       d="M49.8779297,27.409668   c6.4980469,2.5449219,15.1123047,9.4545898,10.3271484,18.215332   c-3.9882813,7.3007813-16.4345703,11.7304688-28.6865234,11.6171875   c-12.7661133-0.1181641-27.5664063-5.0371094-28.972168-15.0595703c-1.1933594-8.5107422,5.5424805-12.015625,11.1875-14.7729492   c0.1430664,0-6.7641602,4.8139648-6.7412109,10.4702148c0.078125,19.3212891,44.980957,19.1435547,49.6264648,3.0117188   C58.5117188,34.3203125,53.6464844,30.2148438,49.8779297,27.409668z"
       id="path9" /><path
       style="fill-rule:evenodd;clip-rule:evenodd;fill:#EF0000;"
       d="M44.1894531,6.7558594   c-0.2294922,2.3178711-2.3652344,4.6791992-2.7246094,7.8886719c-0.8730469,7.8027344,5.7890625,11.6630859,5.7373047,18.6455078   c-0.0361328,4.7490234-3.1259766,8.3496094-6.8847656,10.1835938c3.7568359-4.2851563,4.3574219-10.4804688,1.2900391-15.7773438   c-1.4882813-2.5712891-3.2070313-4.559082-3.5849609-7.6015625C37.2402344,13.800293,40.8691406,9.90625,44.0458984,6.7558594   C44.09375,6.7558594,44.1416016,6.7558594,44.1894531,6.7558594z"
       id="path11" /></g></svg>