<?xml version="1.0" encoding="utf-8"?>
<!-- Generator: Adobe Illustrator 15.0.2, SVG Export Plug-In . SVG Version: 6.00 Build 0)  -->
<!DOCTYPE svg PUBLIC "-//W3C//DTD SVG 1.1//EN" "http://www.w3.org/Graphics/SVG/1.1/DTD/svg11.dtd">
<svg version="1.1" xmlns="http://www.w3.org/2000/svg" xmlns:xlink="http://www.w3.org/1999/xlink" x="0px" y="0px" width="64px"
	 height="64px" viewBox="0 0 64 64" enable-background="new 0 0 64 64" xml:space="preserve">
<g id="レイヤー_1">
</g>
<g id="ここから下は新しいやつ">
	<g id="U_x2B_23F3">
		<g>
			<path fill="#E6F8FF" stroke="#231815" stroke-miterlimit="10" d="M44.667,9.644c0-1.817,1.914-3.592,1.757-5.311H17.576
				c-0.157,1.719,1.757,3.494,1.757,5.311c0,9.792,7.965,23.21,7.965,23.21s-7.965,13.556-7.965,23.446
				c0,1.836-1.913,3.627-1.757,5.365h28.848c0.157-1.738-1.757-3.529-1.757-5.365c0-9.891-7.965-23.446-7.965-23.446
				S44.667,19.436,44.667,9.644z"/>
			<path fill="#A9CDD3" stroke="#231815" stroke-miterlimit="10" d="M34.167,38.13c-1.171-1.762-1.146-6.684,0-8.462
				c2.609-4.049,7.667-9.874,7.667-19.313c0-0.176-0.012-0.347-0.014-0.521H22.18c-0.003,0.175-0.014,0.345-0.014,0.521
				c0,9.561,5.146,15.37,7.834,19.4c1.15,1.725,1.173,6.586,0,8.295c-2.712,3.952-7.834,9.112-7.834,17.968
				c0,0.164,0.012,0.321,0.014,0.483H41.82c0.002-0.162,0.014-0.319,0.014-0.483C41.834,47.274,36.801,42.093,34.167,38.13z"/>
			<g>
				<defs>
					<path id="SVGID_1_" d="M34.167,38.13c-1.171-1.762-1.146-6.684,0-8.462c2.609-4.049,7.667-9.874,7.667-19.313
						c0-0.176-0.012-0.347-0.014-0.521H22.18c-0.003,0.175-0.014,0.345-0.014,0.521c0,9.561,5.146,15.37,7.834,19.4
						c1.15,1.725,1.173,6.586,0,8.295c-2.712,3.952-7.834,9.112-7.834,17.968c0,0.164,0.012,0.321,0.014,0.483H41.82
						c0.002-0.162,0.014-0.319,0.014-0.483C41.834,47.274,36.801,42.093,34.167,38.13z"/>
				</defs>
				<clipPath id="SVGID_2_">
					<use xlink:href="#SVGID_1_"  overflow="visible"/>
				</clipPath>
				<path clip-path="url(#SVGID_2_)" fill="#FFD683" d="M34.167,49.183c-2.167-12.016,0-20.358,0-20.358
					c2.885-1.319,5.426-5.084,5.426-9.53c0-0.212-1.012-0.418-1.021-0.627H25.428c-0.008,0.209-1.021,0.416-1.021,0.627
					c0,4.359,2.445,8.059,5.259,9.446c0,0,3.25,5.26,0,20.579c-0.765,3.606-6.759,3.415-6.759,6.426
					c0,0.143,1.246,0.281,1.256,0.422h16.174c0.011-0.141,1.256-0.279,1.256-0.422C41.593,52.549,34.86,53.029,34.167,49.183z"/>
			</g>
			<path fill="none" stroke="#231815" stroke-miterlimit="10" d="M34.167,38.13c-1.171-1.762-1.146-6.684,0-8.462
				c2.609-4.049,7.667-9.874,7.667-19.313c0-0.176-0.012-0.347-0.014-0.521H22.18c-0.003,0.175-0.014,0.345-0.014,0.521
				c0,9.561,5.146,15.37,7.834,19.4c1.15,1.725,1.173,6.586,0,8.295c-2.712,3.952-7.834,9.112-7.834,17.968
				c0,0.164,0.012,0.321,0.014,0.483H41.82c0.002-0.162,0.014-0.319,0.014-0.483C41.834,47.274,36.801,42.093,34.167,38.13z"/>
			<ellipse fill="#FFFFFF" cx="25.917" cy="13.5" rx="1.75" ry="2.167"/>
			
				<ellipse transform="matrix(0.9645 -0.2643 0.2643 0.9645 -4.9612 8.5438)" fill="#FFFFFF" cx="29.276" cy="22.713" rx="1.145" ry="5.277"/>
			
				<ellipse transform="matrix(0.9834 0.1816 -0.1816 0.9834 9.3595 -4.1681)" fill="#FFFFFF" cx="27.444" cy="49.032" rx="1.802" ry="3.893"/>
		</g>
	</g>
</g>
</svg>
