<?xml version="1.0" encoding="utf-8"?>
<!-- Generator: Adobe Illustrator 15.0.2, SVG Export Plug-In . SVG Version: 6.00 Build 0)  -->
<!DOCTYPE svg PUBLIC "-//W3C//DTD SVG 1.1//EN" "http://www.w3.org/Graphics/SVG/1.1/DTD/svg11.dtd">
<svg version="1.1" xmlns="http://www.w3.org/2000/svg" xmlns:xlink="http://www.w3.org/1999/xlink" x="0px" y="0px" width="64px"
	 height="64px" viewBox="0 0 64 64" enable-background="new 0 0 64 64" xml:space="preserve">
<g id="レイヤー_1">
</g>
<g id="ここから下は新しいやつ">
	<g id="U_x2B_1F3E0">
		<g>
			<rect x="10.271" y="8.512" fill="#751F1D" width="7.872" height="19.458"/>
			<polygon fill="#CCBB9A" stroke="#684621" stroke-width="2.0896" stroke-miterlimit="10" points="23.448,35.404 23.448,57.488 
				32.395,57.488 43.39,57.488 54.386,57.488 54.386,35.404 			"/>
			<polygon fill="#E2D6BC" stroke="#684621" stroke-width="2.0896" stroke-miterlimit="10" points="44.454,35.404 22.927,14.94 
				11.433,35.404 11.433,57.488 35.51,57.488 35.51,35.404 			"/>
			<g>
				<rect x="16.499" y="30.352" fill="#1383D6" width="5.386" height="6.326"/>
				<rect x="22.928" y="30.352" fill="#1383D6" width="5.385" height="6.326"/>
			</g>
			<polygon fill="#751F1D" points="3.294,36.234 11.87,36.234 26.173,11.853 17.597,11.853 			"/>
			<g>
				<rect x="39.251" y="34.557" fill="#035C93" width="5.385" height="6.326"/>
				<rect x="45.68" y="34.557" fill="#035C93" width="5.386" height="6.326"/>
			</g>
			<polygon fill="#D62B27" stroke="#78211C" stroke-width="2.0128" stroke-miterlimit="10" points="60.706,35.404 35.688,35.404 
				19.16,12.682 42.912,12.682 			"/>
			<path fill="#A06B3C" d="M27.757,45.74c-0.216-2.25-2.588-4.023-5.488-4.023c-2.901,0-5.274,1.773-5.49,4.023h-0.022v10.742
				h11.023V45.74H27.757z"/>
		</g>
	</g>
</g>
</svg>
