<?xml version="1.0" encoding="utf-8"?>
<!-- Generator: Adobe Illustrator 18.0.0, SVG Export Plug-In . SVG Version: 6.00 Build 0)  -->
<!DOCTYPE svg PUBLIC "-//W3C//DTD SVG 1.1//EN" "http://www.w3.org/Graphics/SVG/1.1/DTD/svg11.dtd">
<svg version="1.1" id="レイヤー_1" xmlns="http://www.w3.org/2000/svg" xmlns:xlink="http://www.w3.org/1999/xlink" x="0px"
	 y="0px" width="64px" height="64px" viewBox="0 0 64 64" style="enable-background:new 0 0 64 64;" xml:space="preserve">
<g>
	<g>
		<linearGradient id="SVGID_1_" gradientUnits="userSpaceOnUse" x1="26.75" y1="60.0625" x2="37.25" y2="60.0625">
			<stop  offset="0" style="stop-color:#595757"/>
			<stop  offset="0.2633929" style="stop-color:#868686"/>
			<stop  offset="0.3348214" style="stop-color:#868686"/>
			<stop  offset="1" style="stop-color:#3E3A39"/>
		</linearGradient>
		<path style="fill:url(#SVGID_1_);" d="M32,62.2294922c-2.5449219,0-5.25-0.671875-5.25-1.9169922v-2.1669922
			c0-0.1376953,0.1118164-0.25,0.25-0.25h10c0.1376953,0,0.25,0.1123047,0.25,0.25V60.3125
			C37.25,61.5576172,34.5449219,62.2294922,32,62.2294922z"/>
		<path style="fill:#231815;" d="M37,58.1458282V60.3125c0,0.9204483-2.2385902,1.6666718-5,1.6666718s-5-0.7462234-5-1.6666718
			v-2.1666718H37 M37,57.6458282H27c-0.2761402,0-0.5,0.2238617-0.5,0.5V60.3125c0,1.4886513,2.8510399,2.1666718,5.5,2.1666718
			s5.5-0.6780205,5.5-2.1666718v-2.1666718C37.5,57.8696899,37.2761383,57.6458282,37,57.6458282L37,57.6458282z"/>
	</g>
	<g>
		<linearGradient id="SVGID_2_" gradientUnits="userSpaceOnUse" x1="29.1869488" y1="55.0202026" x2="34.8130531" y2="60.6463051">
			<stop  offset="0.2678571" style="stop-color:#868686"/>
			<stop  offset="1" style="stop-color:#595757"/>
		</linearGradient>
		<path style="fill:url(#SVGID_2_);" d="M32,59.75c-2.5449219,0-5.25-0.671875-5.25-1.9169922
			c0-1.2441406,2.7050781-1.9160156,5.25-1.9160156s5.25,0.671875,5.25,1.9160156C37.25,59.078125,34.5449219,59.75,32,59.75z"/>
		<path style="fill:#231815;" d="M32,56.1666641c2.7614288,0,5,0.7462006,5,1.6666679c0,0.9204712-2.2385712,1.6666718-5,1.6666718
			c-2.7614193,0-5-0.7462006-5-1.6666718C27,56.9128647,29.2385807,56.1666641,32,56.1666641 M32,55.6666641
			c-2.6489601,0-5.5,0.6780205-5.5,2.1666679c0,1.4886513,2.8510399,2.1666718,5.5,2.1666718s5.5-0.6780205,5.5-2.1666718
			C37.5,56.3446846,34.6489601,55.6666641,32,55.6666641L32,55.6666641z"/>
	</g>
</g>
<g>
	<g>
		
			<linearGradient id="SVGID_3_" gradientUnits="userSpaceOnUse" x1="34.2823601" y1="22.0319614" x2="36.4699974" y2="22.0319614" gradientTransform="matrix(0.8402378 0.5422181 -0.5422181 0.8402378 22.8613281 -11.8400097)">
			<stop  offset="0" style="stop-color:#98764F"/>
			<stop  offset="0.3348214" style="stop-color:#D9B98B"/>
			<stop  offset="1" style="stop-color:#694625"/>
		</linearGradient>
		<path style="fill:url(#SVGID_3_);" d="M55.85215,4.2971539L26.6721039,49.5154495l-1.8380432-1.1863174L54.0140114,3.1109769
			c0.3275566-0.5075867,1.00457-0.6535327,1.5121574-0.3259792v0.0000012
			C56.0337563,3.1125522,56.1797028,3.7895672,55.85215,4.2971539z"/>
		<path style="fill:#231815;" d="M26.746582,49.8613281l-2.2583008-1.4580078l0.1357422-0.2099609L53.8037109,2.9750977
			c0.3886719-0.6020508,1.2529297-0.7905273,1.8583984-0.3999023c0.6220703,0.4013672,0.8017578,1.2348633,0.4003906,1.8574219
			L26.746582,49.8613281z M25.1796875,48.2548828l1.4174805,0.9150391L55.6425781,4.1616211
			c0.2519531-0.3911133,0.1386719-0.9140625-0.2519531-1.1665039c-0.3818359-0.2475586-0.9238281-0.1254883-1.1669922,0.2514648
			L25.1796875,48.2548828z"/>
	</g>
	<g>
		
			<linearGradient id="SVGID_4_" gradientUnits="userSpaceOnUse" x1="19.7432861" y1="60.8392982" x2="36.4699974" y2="60.8392982" gradientTransform="matrix(0.8402378 0.5422181 -0.5422181 0.8402378 22.8613281 -11.8400097)">
			<stop  offset="0.9196429" style="stop-color:#595757"/>
			<stop  offset="1" style="stop-color:#3E3A39"/>
		</linearGradient>
		<path style="fill:url(#SVGID_4_);" d="M26.79072,49.3316383l-4.8647881,7.5386276
			c-1.4270649,2.2114258-3.7626705,3.6747322-6.3751183,3.9941483L5.0810695,62.1445236
			c-1.3405726,0.1639061-2.5849366-0.7214622-2.8695416-2.041687l-0.4270011-1.9807777
			c-0.2019579-0.9368439,0.4363822-1.847332,1.3859559-1.9768448l15.8324585-2.1593552
			c1.5177193-0.2070007,2.8692093-1.066864,3.6997623-2.3539124l2.2499733-3.4866295L26.79072,49.3316383z"/>
		
			<linearGradient id="SVGID_5_" gradientUnits="userSpaceOnUse" x1="25.6404991" y1="56.5193558" x2="32.9985619" y2="65.288353" gradientTransform="matrix(0.8402378 0.5422181 -0.5422181 0.8402378 22.8613281 -11.8400097)">
			<stop  offset="0.7571429" style="stop-color:#3E3A39;stop-opacity:0"/>
			<stop  offset="1" style="stop-color:#3E3A39"/>
		</linearGradient>
		<path style="fill:url(#SVGID_5_);" d="M26.79072,49.3316383l-4.8647881,7.5386276
			c-1.4270649,2.2114258-3.7626705,3.6747322-6.3751183,3.9941483L5.0810695,62.1445236
			c-1.3405726,0.1639061-2.5849366-0.7214622-2.8695416-2.041687l-0.4270011-1.9807777
			c-0.2019579-0.9368439,0.4363822-1.847332,1.3859559-1.9768448l15.8324585-2.1593552
			c1.5177193-0.2070007,2.8692093-1.066864,3.6997623-2.3539124l2.2499733-3.4866295L26.79072,49.3316383z"/>
		<path style="fill:#231815;" d="M4.7617188,62.4140625c-1.3374023,0-2.5126953-0.9501953-2.7944336-2.2587891l-0.4272461-1.9804688
			c-0.1108398-0.5146484-0.0009766-1.0566406,0.3012695-1.4882813c0.3022461-0.4306641,0.7744141-0.7177734,1.2954102-0.7890625
			l15.8325195-2.1591797c1.4467773-0.1972656,2.730957-1.0146484,3.5234375-2.2421875l2.3852539-3.6962891l2.2583008,1.4580078
			l-5.0004883,7.7480469c-1.4707031,2.2802734-3.8598633,3.7773438-6.5546875,4.1064453L5.1113281,62.3925781
			C4.9941406,62.4072266,4.8769531,62.4140625,4.7617188,62.4140625z M25.0268555,48.4912109l-2.1142578,3.2763672
			c-0.8710938,1.3505859-2.2841797,2.2490234-3.8759766,2.4667969L3.2041016,56.3935547
			c-0.3891602,0.0527344-0.7280273,0.2587891-0.9536133,0.5800781c-0.2255859,0.3222656-0.3041992,0.7109375-0.2216797,1.0957031
			l0.4272461,1.9804688c0.2524414,1.1738281,1.3696289,1.9970703,2.5947266,1.8466797l10.4697266-1.2802734
			c2.546875-0.3115234,4.8046875-1.7265625,6.1953125-3.8818359l4.7290039-7.328125L25.0268555,48.4912109z"/>
	</g>
	<g>
		
			<linearGradient id="SVGID_6_" gradientUnits="userSpaceOnUse" x1="24.8935661" y1="63.5305557" x2="29.2361584" y2="68.7058563" gradientTransform="matrix(0.8402378 0.5422181 -0.5422181 0.8402378 22.8613281 -11.8400097)">
			<stop  offset="0" style="stop-color:#797878"/>
			<stop  offset="0.1026786" style="stop-color:#9C9C9D"/>
			<stop  offset="0.8526786" style="stop-color:#9C9C9D"/>
			<stop  offset="1" style="stop-color:#717071"/>
		</linearGradient>
		<path style="fill:url(#SVGID_6_);" d="M5.0810547,62.3447266c-0.0864258,0-0.1640625-0.0556641-0.1904297-0.1396484
			l-1.9106445-5.9990234c-0.0180664-0.0556641-0.0102539-0.1171875,0.0214844-0.1669922
			c0.03125-0.0507813,0.0834961-0.0839844,0.1420898-0.0917969c0,0,12.4038086-1.6914063,12.4125977-1.6914063
			c0.0483398,0,0.0947266,0.0175781,0.1313477,0.0498047c0.0439453,0.0380859,0.0688477,0.0927734,0.0688477,0.1503906
			l-0.0053711,6.4082031c-0.0004883,0.1015625-0.0756836,0.1865234-0.1757813,0.1982422
			C15.5751953,61.0625,5.0888672,62.3447266,5.0810547,62.3447266z"/>
		<path style="fill:#231815;" d="M15.5559425,54.455986l-0.0051298,6.4084282L5.0810728,62.1445236l-1.9105902-5.9993095
			L15.5559425,54.455986 M15.5559645,54.0559845c-0.0179796,0-0.0360346,0.0012093-0.0540714,0.0036697L3.1164327,55.7488861
			c-0.1170301,0.0159607-0.22103,0.0828285-0.2841101,0.1826782c-0.0630901,0.0998611-0.07882,0.2224922-0.04298,0.3350296
			l1.9105899,5.9993095c0.0533428,0.1674995,0.208765,0.2786407,0.3808718,0.2786407
			c0.0161557,0,0.0324388-0.0009766,0.0488181-0.0029793l10.4697399-1.2801094
			c0.2005205-0.0245094,0.3512897-0.1946983,0.35145-0.3967209l0.0051298-6.4084282
			c0.0000906-0.1155701-0.0497999-0.2255325-0.1368399-0.3015594C15.7457743,54.090683,15.6521139,54.0559845,15.5559645,54.0559845
			L15.5559645,54.0559845z"/>
	</g>
	<g>
		
			<linearGradient id="SVGID_7_" gradientUnits="userSpaceOnUse" x1="34.2823601" y1="48.1741524" x2="36.4699974" y2="48.1741524" gradientTransform="matrix(0.8402378 0.5422181 -0.5422181 0.8402378 22.8613281 -11.8400097)">
			<stop  offset="0" style="stop-color:#E4FF00"/>
			<stop  offset="0.3348214" style="stop-color:#DFFFA3"/>
			<stop  offset="1" style="stop-color:#ECA900"/>
		</linearGradient>
		<polygon style="fill:url(#SVGID_7_);" points="27.9769897,47.4933586 26.138855,46.3071823 24.9526768,48.1453171 
			26.7908134,49.3314934 		"/>
		<path style="fill:#231815;" d="M26.8657227,49.6767578l-2.2587891-1.4570313l1.4570313-2.2578125l2.2587891,1.4570313
			L26.8657227,49.6767578z M25.2983398,48.0712891l1.4179688,0.9140625l0.9150391-1.4179688l-1.4179688-0.9140625
			L25.2983398,48.0712891z"/>
	</g>
</g>
<g>
	<g>
		
			<linearGradient id="SVGID_8_" gradientUnits="userSpaceOnUse" x1="34.2823601" y1="22.0319614" x2="36.4699974" y2="22.0319614" gradientTransform="matrix(-0.8402378 0.5422181 0.5422181 0.8402378 41.1386719 -11.8400097)">
			<stop  offset="0" style="stop-color:#98764F"/>
			<stop  offset="0.3348214" style="stop-color:#D9B98B"/>
			<stop  offset="1" style="stop-color:#694625"/>
		</linearGradient>
		<path style="fill:url(#SVGID_8_);" d="M8.14785,4.2971539l29.1800461,45.2182961l1.8380432-1.1863174L9.9859867,3.1109769
			C9.658433,2.6033902,8.9814186,2.4574442,8.4738321,2.7849977L8.4738302,2.7849989
			C7.9662428,3.1125522,7.8202972,3.7895672,8.14785,4.2971539z"/>
		<path style="fill:#231815;" d="M37.2539063,49.8613281l-0.1357422-0.2099609L7.9379883,4.4331055
			c-0.4018555-0.6225586-0.222168-1.4560547,0.3999023-1.8579102c0.6064453-0.3901367,1.4692383-0.2011719,1.8579102,0.3999023
			l29.315918,45.4282227L37.2539063,49.8613281z M9.065918,2.8603516c-0.1621094,0-0.3198242,0.0463867-0.456543,0.1347656
			C8.2182617,3.2475586,8.105957,3.7709961,8.3579102,4.1616211l29.0444336,45.0083008l1.4179688-0.9150391L9.7758789,3.246582
			C9.6196289,3.0043945,9.3540039,2.8603516,9.065918,2.8603516z"/>
	</g>
	<g>
		
			<linearGradient id="SVGID_9_" gradientUnits="userSpaceOnUse" x1="19.7432861" y1="60.8392982" x2="36.4699974" y2="60.8392982" gradientTransform="matrix(-0.8402378 0.5422181 0.5422181 0.8402378 41.1386719 -11.8400097)">
			<stop  offset="0.9196429" style="stop-color:#595757"/>
			<stop  offset="1" style="stop-color:#3E3A39"/>
		</linearGradient>
		<path style="fill:url(#SVGID_9_);" d="M37.2092781,49.3316383L42.07407,56.870266
			c1.427063,2.2114258,3.7626686,3.6747322,6.3751183,3.9941483l10.4697418,1.2801094
			c1.3405724,0.1639061,2.584938-0.7214622,2.8695412-2.041687l0.427002-1.9807777
			c0.2019577-0.9368439-0.4363823-1.847332-1.3859558-1.9768448l-15.8324585-2.1593552
			c-1.5177193-0.2070007-2.8692093-1.066864-3.6997643-2.3539124l-2.2499733-3.4866295L37.2092781,49.3316383z"/>
		
			<linearGradient id="SVGID_10_" gradientUnits="userSpaceOnUse" x1="25.6404991" y1="56.5193558" x2="32.9985619" y2="65.288353" gradientTransform="matrix(-0.8402378 0.5422181 0.5422181 0.8402378 41.1386719 -11.8400097)">
			<stop  offset="0.7571429" style="stop-color:#3E3A39;stop-opacity:0"/>
			<stop  offset="1" style="stop-color:#3E3A39"/>
		</linearGradient>
		<path style="fill:url(#SVGID_10_);" d="M37.2092781,49.3316383L42.07407,56.870266
			c1.427063,2.2114258,3.7626686,3.6747322,6.3751183,3.9941483l10.4697418,1.2801094
			c1.3405724,0.1639061,2.584938-0.7214622,2.8695412-2.041687l0.427002-1.9807777
			c0.2019577-0.9368439-0.4363823-1.847332-1.3859558-1.9768448l-15.8324585-2.1593552
			c-1.5177193-0.2070007-2.8692093-1.066864-3.6997643-2.3539124l-2.2499733-3.4866295L37.2092781,49.3316383z"/>
		<path style="fill:#231815;" d="M59.2382813,62.4140625L59.2382813,62.4140625
			c-0.1152344,0-0.2324219-0.0068359-0.3496094-0.0214844l-10.4697266-1.2802734
			c-2.6943359-0.3291016-5.0839844-1.8261719-6.5546875-4.1064453l-5.0009766-7.7480469l2.2578125-1.4580078l2.3857422,3.6962891
			c0.7929688,1.2275391,2.0771484,2.0449219,3.5244141,2.2421875l15.8320313,2.1591797
			c0.5205078,0.0712891,0.9921875,0.3583984,1.2949219,0.7890625s0.4130859,0.9736328,0.3017578,1.4882813l-0.4277344,1.9804688
			C61.7509766,61.4638672,60.5761719,62.4140625,59.2382813,62.4140625z M37.5546875,49.40625l4.7294922,7.328125
			c1.390625,2.1552734,3.6484375,3.5703125,6.1953125,3.8818359l10.4697266,1.2802734
			c0.0966797,0.0117188,0.1933594,0.0175781,0.2890625,0.0175781l0,0c1.1035156,0,2.0732422-0.7841797,2.3056641-1.8642578
			l0.4277344-1.9804688c0.0820313-0.3847656,0.0029297-0.7734375-0.2226563-1.0957031
			c-0.2255859-0.3212891-0.5644531-0.5273438-0.953125-0.5800781L44.9628906,54.234375
			c-1.5908203-0.2177734-3.0039063-1.1162109-3.8759766-2.4667969l-2.1142578-3.2763672L37.5546875,49.40625z"/>
	</g>
	<g>
		
			<linearGradient id="SVGID_11_" gradientUnits="userSpaceOnUse" x1="24.89361" y1="63.5304413" x2="29.2362423" y2="68.7057877" gradientTransform="matrix(-0.8402378 0.5422181 0.5422181 0.8402378 41.1386719 -11.8400097)">
			<stop  offset="0" style="stop-color:#797878"/>
			<stop  offset="0.1026786" style="stop-color:#9C9C9D"/>
			<stop  offset="0.8526786" style="stop-color:#9C9C9D"/>
			<stop  offset="1" style="stop-color:#717071"/>
		</linearGradient>
		<path style="fill:url(#SVGID_11_);" d="M48.4248047,61.0625c-0.1005859-0.0117188-0.1757813-0.0966797-0.1757813-0.1982422
			l-0.0048828-6.4082031c0-0.0576172,0.0253906-0.1123047,0.0683594-0.1503906
			c0.0371094-0.0322266,0.0839844-0.0498047,0.1318359-0.0498047c0.0087891,0,12.4121094,1.6914063,12.4121094,1.6914063
			c0.0585938,0.0078125,0.1103516,0.0410156,0.1416016,0.0917969c0.03125,0.0498047,0.0390625,0.1113281,0.0214844,0.1669922
			l-1.9101563,5.9990234c-0.0263672,0.0839844-0.1044922,0.1396484-0.1904297,0.1396484
			C58.9111328,62.3447266,48.4248047,61.0625,48.4248047,61.0625z"/>
		<path style="fill:#231815;" d="M48.4440575,54.455986l12.3854599,1.6892281l-1.9105911,5.9993095l-10.469738-1.2801094
			L48.4440575,54.455986 M48.4440346,54.0559845c-0.0961571,0-0.1898041,0.0346947-0.2631378,0.0987625
			c-0.0870399,0.0760269-0.1369286,0.1859894-0.1368408,0.3015594l0.0051308,6.4084282
			c0.0001602,0.2020226,0.1509323,0.3722115,0.3514519,0.3967209l10.469738,1.2801094
			c0.0163689,0.0020027,0.0326729,0.0029793,0.0488205,0.0029793c0.1721191,0,0.3275223-0.1111298,0.3808708-0.2786407
			l1.9105911-5.9993095c0.0358391-0.1125374,0.0201073-0.2351685-0.0429802-0.3350296
			c-0.0630798-0.0998497-0.1670799-0.1667175-0.284111-0.1826782l-12.3854599-1.6892319
			C48.4800758,54.0571976,48.4620094,54.0559845,48.4440346,54.0559845L48.4440346,54.0559845z"/>
	</g>
	<g>
		
			<linearGradient id="SVGID_12_" gradientUnits="userSpaceOnUse" x1="34.2823601" y1="48.1741524" x2="36.4699974" y2="48.1741524" gradientTransform="matrix(-0.8402378 0.5422181 0.5422181 0.8402378 41.1386719 -11.8400097)">
			<stop  offset="0" style="stop-color:#6700FF"/>
			<stop  offset="0.3348214" style="stop-color:#D7A3FF"/>
			<stop  offset="1" style="stop-color:#0037EC"/>
		</linearGradient>
		<polygon style="fill:url(#SVGID_12_);" points="36.0230103,47.4933586 37.861145,46.3071823 39.0473213,48.1453171 
			37.2091866,49.3314934 		"/>
		<path style="fill:#231815;" d="M37.1347656,49.6767578l-1.4570313-2.2578125l2.2578125-1.4570313l1.4570313,2.2578125
			L37.1347656,49.6767578z M36.3691406,47.5673828l0.9140625,1.4179688l1.4179688-0.9140625l-0.9140625-1.4179688
			L36.3691406,47.5673828z"/>
	</g>
</g>
<g>
</g>
<g>
</g>
<g>
</g>
<g>
</g>
<g>
</g>
<g>
</g>
</svg>
