<?xml version="1.0" encoding="UTF-8" standalone="no"?>
<!-- Generator: Adobe Illustrator 15.0.2, SVG Export Plug-In . SVG Version: 6.00 Build 0)  -->

<svg
   xmlns:dc="http://purl.org/dc/elements/1.1/"
   xmlns:cc="http://creativecommons.org/ns#"
   xmlns:rdf="http://www.w3.org/1999/02/22-rdf-syntax-ns#"
   xmlns:svg="http://www.w3.org/2000/svg"
   xmlns="http://www.w3.org/2000/svg"
   xmlns:sodipodi="http://sodipodi.sourceforge.net/DTD/sodipodi-0.dtd"
   xmlns:inkscape="http://www.inkscape.org/namespaces/inkscape"
   version="1.1"
   id="レイヤー_1"
   x="0px"
   y="0px"
   width="64px"
   height="64px"
   viewBox="0 0 64 64"
   style="enable-background:new 0 0 64 64;"
   xml:space="preserve"
   inkscape:version="0.48.4 r9939"
   sodipodi:docname="icecream.svg"><metadata
     id="metadata29"><rdf:RDF><cc:Work
         rdf:about=""><dc:format>image/svg+xml</dc:format><dc:type
           rdf:resource="http://purl.org/dc/dcmitype/StillImage" /></cc:Work></rdf:RDF></metadata><defs
     id="defs27" /><sodipodi:namedview
     pagecolor="#ffffff"
     bordercolor="#666666"
     borderopacity="1"
     objecttolerance="10"
     gridtolerance="10"
     guidetolerance="10"
     inkscape:pageopacity="0"
     inkscape:pageshadow="2"
     inkscape:window-width="640"
     inkscape:window-height="480"
     id="namedview25" /><g
     id="g3"><path
       style="fill:#FFF9F8;"
       d="M35.5107422,3.1616211c0,0-3.8583984,5.6381836-8.1113281,6.6274414   s-2.0771484,6.1323242-2.0771484,6.1323242s-6.4291992,0.3955078-5.6376953,7.6157227c0,0-5.5390625,1.7802734-2.3735352,8.2094727   c0,0,14.5195313,4.6635742,28.5649414-0.9746094c0,0,4.6679688-7.1357422-1.0683594-8.7182617   c0,0,0.7148438-5.2880859-4.0332031-6.8706055c0,0,3.7363281-3.5151367-2.7099609-6.9731445   C36.1064453,7.1586914,35.5107422,3.1616211,35.5107422,3.1616211z"
       id="path5" /><path
       style="fill:#6B3D37;"
       d="M30.6020508,34.3076172c-0.0004883,0-0.0004883,0-0.0009766,0   c-7.6787109,0-13.284668-1.7714844-13.5195313-1.847168l-0.3027344-0.097168l-0.140625-0.2851563   c-1.1489258-2.3334961-1.3618164-4.3886719-0.6323242-6.1083984c0.7036133-1.6591797,2.1000977-2.5332031,2.8842773-2.9116211   c-0.1435547-2.2358398,0.3740234-4.0683594,1.5410156-5.4536133c1.2285156-1.4584961,2.8769531-2.046875,3.9008789-2.2807617   c-0.2910156-1.0463867-0.5893555-2.8203125,0.1455078-4.2626953c0.5219727-1.0253906,1.4482422-1.6992188,2.7519531-2.0024414   c3.9150391-0.9106445,7.625-6.2666016,7.6621094-6.3208008L35.96875,1.1674805l0.2841797,1.8828125   c0.1513672,1.0092773,0.8369141,3.7851563,2.1660156,4.4990234c2.5244141,1.3540039,3.9208984,2.9194336,4.1494141,4.6523438   c0.1464844,1.1098633-0.2246094,2.0371094-0.6054688,2.6625977c3.0175781,1.5107422,3.7128906,4.6713867,3.640625,6.6606445   c1.2617188,0.4790039,2.1113281,1.2797852,2.5292969,2.3867188c1.1318359,2.9960938-1.515625,7.0976563-1.6289063,7.2709961   l-0.1298828,0.1972656l-0.21875,0.0878906C41.4609375,33.3525391,36.2275391,34.3076172,30.6020508,34.3076172z    M17.8447266,31.1230469c1.262207,0.3623047,6.3115234,1.6850586,12.7563477,1.6850586   c5.3432617,0,10.3120117-0.8891602,14.7700195-2.6425781c0.7050781-1.1586914,2.0332031-3.9428711,1.3583984-5.7255859   c-0.3066406-0.8100586-1.0009766-1.3540039-2.1210938-1.6630859l-0.6289063-0.1733398l0.0849609-0.6484375   c0.0244141-0.190918,0.5605469-4.6977539-3.5273438-6.0605469l-1.1914063-0.3969727l0.9150391-0.8608398   c0.0068359-0.0063477,0.9951172-0.9765625,0.8193359-2.2524414c-0.1669922-1.2050781-1.3320313-2.4199219-3.3701172-3.5131836   c-1.4003906-0.7524414-2.1767578-2.5976563-2.5761719-3.9741211c-1.4658203,1.7978516-4.3691406,4.8793945-7.5644531,5.6225586   c-0.8647461,0.2011719-1.4389648,0.6010742-1.7553711,1.222168c-0.6474609,1.2719727-0.0761719,3.2373047,0.1992188,3.8876953   l0.4125977,0.9755859l-1.0576172,0.0649414c-0.0209961,0.0014648-2.3486328,0.1787109-3.7998047,1.9125977   c-0.980957,1.1723633-1.3642578,2.8120117-1.1381836,4.8730469l0.0664063,0.6083984l-0.5825195,0.1870117   c-0.0151367,0.0053711-1.8208008,0.6196289-2.5332031,2.3188477C16.8647461,27.8007813,17.0209961,29.331543,17.8447266,31.1230469   z"
       id="path7" /></g><path
     style="fill:#FFCC7B;"
     d="M46.9833984,28.9150391c0,0-12.734375,3.9560547-30.6494141,0l1.9658203,6.3291016  c0,0,0.7104492,0.2568359,1.9648438,0.5898438l4.1674805,19.7685547c0,0,7.0224609,4.5693359,13.550293,0l4.9199219-19.7763672  c0.6318359-0.1767578,1.2675781-0.3662109,1.9052734-0.5820313L46.9833984,28.9150391z"
     id="path9" /><path
     style="fill:#F7DEDA;"
     d="M27.0952148,16.6894531c0,0,8.9750977-4.6655273,12.2260742-3.0776367  C42.5722656,15.2001953,27.0952148,16.6894531,27.0952148,16.6894531z"
     id="path11" /><path
     style="fill:#F7DEDA;"
     d="M20.875,24.5c0,0,18.4277344-2.565918,22.125-2C43,22.5,40.75,18.5,20.875,24.5z"
     id="path13" /><g
     id="g15"><path
       style="fill:#DDA654;"
       d="M41.5761719,36.3671875l-0.6904297,1.1630859l-0.7861328-1.1806641l-0.6582031,0.4394531   L40.4375,38.2851563l-1.8632813,3.1416016l-2.1240234-4.9443359l-2.8457031,4.2851563l-1.5898438-3.6162109l-0.7246094,0.3183594   l0.3442383,0.7832031l-0.4384766-0.2929688l-2.4741211,3.7158203l-2.1000977-5.1455078l-2.8657227,3.3378906l-1.2587891-3.5019531   l-0.7441406,0.2675781l1.4106445,3.9238281l-1.3388672,1.5595703l0.6005859,0.515625l1.0463867-1.21875l1.9018555,5.2900391   l-2.3544922,3.5361328l0.6582031,0.4394531l2.0297852-3.0478516l1.1723633,3.2607422L24.5454102,54.40625l0.6591797,0.4375   l2.0083008-3.0234375l2.0849609,5.7988281l0.6621094-0.2382813l0.050293,0.0302734l2.5351563-4.2724609l1.722168,4.2197266   L35,57.0595703l-0.1757813-0.4306641l0.1376953,0.0927734l2.9023438-4.2958984l0.3740234,0.8515625l0.7246094-0.3183594   l-0.5751953-1.3085938l1.5214844-2.2529297l-0.65625-0.4433594l-1.2421875,1.8388672l-1.7333984-3.9443359l2.1835938-3.6806641   l0.9462891,2.203125l0.7265625-0.3125l-1.1738281-2.7324219l1.9638672-3.3105469l0.6630859,0.9951172l0.6582031-0.4394531   l-0.8730469-1.3105469l0.8837891-1.4892578L41.5761719,36.3671875z M31.7602539,38.5400391l1.3237305,3.0107422   l-2.7338867,4.1152344l-1.2670898-3.1044922L31.7602539,38.5400391z M33.4619141,42.4111328l1.9267578,4.3837891   l-2.7124023,4.5712891l-1.9643555-4.8144531L33.4619141,42.4111328z M24.0639648,40.7246094l2.3144531-2.6962891   l1.8134766,4.4433594l-2.2724609,3.4130859L24.0639648,40.7246094z M26.2524414,46.8115234l2.3007813-3.4550781   l1.2675781,3.1064453l-2.3959961,3.6083984L26.2524414,46.8115234z M29.6962891,56.3896484l-1.9379883-5.390625   l2.4243164-3.6503906l1.987793,4.8710938L29.6962891,56.3896484z M37.4873047,51.5683594l-2.9472656,4.3632813   l-1.4882813-3.6464844l2.7285156-4.5996094L37.4873047,51.5683594z M35.8857422,45.9580078l-1.9033203-4.3300781   l2.3173828-3.4892578l1.7744141,4.1298828L35.8857422,45.9580078z"
       id="path17" /><path
       style="fill:#DDA654;"
       d="M45.0791016,29.8525391l-0.6582031-0.4394531l-1.6035156,2.4013672l-1.8945313-2.2729492   l-1.6669922,3.2055664l-1.4990234-2.1865234l-2.0126953,2.8105469l-2.2988281-2.8623047l-2.309082,2.6503906l-1.6860352-2.5063477   l-2.621582,2.3393555l-2.2709961-3.3178711l-2.9086914,2.3520508l-1.5107422-3.0458984l-3.0717773,2.8730469l0.5400391,0.578125   l2.2954102-2.1464844l1.1166992,2.2514648l-2.9677734,2.3999023l0.4980469,0.6152344l2.8300781-2.2890625l1.9433594,3.9189453   l3.3613281-3l2.0288086,2.9638672l2.3432617-2.6904297l2.3671875,3.5175781l2.3574219-3.2929688l2.0410156,2.5410156   l1.5283203-2.9384766l1.4052734,2.0488281l2.1337891-3.1962891l1.5576172,1.8681641l0.6074219-0.5058594l-1.7070313-2.0483398   L45.0791016,29.8525391z M23.5703125,35.9003906l-1.5610352-3.1474609l2.3793945-1.9243164l1.8447266,2.6948242   L23.5703125,35.9003906z M28.7875977,35.8544922l-1.5083008-2.2041016l2.0205078-1.8032227l1.2983398,1.9291992   L28.7875977,35.8544922z M33.4423828,36.5859375l-1.8491211-2.7480469l1.8266602-2.0966797l1.8457031,2.2978516   L33.4423828,36.5859375z M37.6787109,35.7792969l-1.4199219-1.7675781l1.484375-2.0722656l1.0986328,1.6025391   L37.6787109,35.7792969z M40.7451172,34.9189453l-0.9814453-1.4316406l1.3134766-2.5258789L42.3603516,32.5L40.7451172,34.9189453z   "
       id="path19" /></g><path
     style="fill:#51290B;"
     d="M31.5688477,58.3837891c-0.0004883,0-0.0004883,0-0.0009766,0  c-4.1884766-0.0009766-7.409668-2.0644531-7.5449219-2.1523438c-0.1665039-0.1083984-0.2836914-0.2792969-0.324707-0.4746094  L19.6254883,36.4375c-0.9936523-0.2773438-1.5541992-0.4785156-1.5805664-0.4882813  c-0.2211914-0.0800781-0.3916016-0.2587891-0.4614258-0.4824219l-1.9658203-6.3291016  c-0.0791016-0.2553711-0.0166016-0.5336914,0.1640625-0.7304688c0.1811523-0.1967773,0.4521484-0.2827148,0.7138672-0.2246094  c5.230957,1.1552734,10.5288086,1.7407227,15.746582,1.7407227c8.8427734-0.0004883,14.4638672-1.7075195,14.5195313-1.7246094  c0.2666016-0.0830078,0.5625-0.0087891,0.7597656,0.1943359c0.1972656,0.2026367,0.2626953,0.4985352,0.1708984,0.765625  l-2.1757813,6.3295898c-0.0751953,0.2197266-0.2480469,0.3916016-0.46875,0.4658203  c-0.5087891,0.1728516-1.0166016,0.3291016-1.5224609,0.4746094l-4.8154297,19.3544922  c-0.0429688,0.1757813-0.1494141,0.3300781-0.2978516,0.4335938C36.359375,57.6542969,34.0566406,58.3837891,31.5688477,58.3837891z   M25.0981445,55.1259766c0.800293,0.453125,3.3730469,1.7568359,6.4702148,1.7578125h0.0004883  c2.081543,0,4.0161133-0.5849609,5.7543945-1.7392578l4.8515625-19.4990234  c0.0644531-0.2626953,0.265625-0.46875,0.5253906-0.5419922c0.5039063-0.140625,1.0107422-0.2900391,1.5185547-0.4541016  l1.5996094-4.6523438c-2.2216797,0.5249023-6.9941406,1.4262695-13.5761719,1.4262695  c-4.9086914,0-9.8847656-0.5073242-14.8125-1.5092773l1.4726563,4.7412109  c0.3193359,0.1035156,0.8496094,0.2666016,1.5546875,0.4541016c0.2734375,0.0722656,0.4829102,0.2929688,0.5415039,0.5703125  L25.0981445,55.1259766z"
     id="path21" /><path
     style="fill:#51290B;"
     d="M31.7475586,38.0722656c-3.4106445,0-7.3920898-0.3798828-11.675293-1.5175781l0.3847656-1.4492188  c12.199707,3.2382813,22.109375,0.0410156,22.2099609,0.0087891l0.4707031,1.4238281  C42.8603516,36.6298828,38.3896484,38.0722656,31.7475586,38.0722656z"
     id="path23" /></svg>