<?xml version="1.0" encoding="UTF-8" standalone="no"?>
<!-- Generated by phantom_svg. -->

<svg
   xmlns:dc="http://purl.org/dc/elements/1.1/"
   xmlns:cc="http://creativecommons.org/ns#"
   xmlns:rdf="http://www.w3.org/1999/02/22-rdf-syntax-ns#"
   xmlns:svg="http://www.w3.org/2000/svg"
   xmlns="http://www.w3.org/2000/svg"
   xmlns:sodipodi="http://sodipodi.sourceforge.net/DTD/sodipodi-0.dtd"
   xmlns:inkscape="http://www.inkscape.org/namespaces/inkscape"
   width="64px"
   height="64px"
   viewBox="0 0 64 64"
   preserveAspectRatio="none"
   version="1.1"
   id="svg2"
   inkscape:version="0.91 r13725"
   sodipodi:docname="il.svg">
  <metadata
     id="metadata26">
    <rdf:RDF>
      <cc:Work
         rdf:about="">
        <dc:format>image/svg+xml</dc:format>
        <dc:type
           rdf:resource="http://purl.org/dc/dcmitype/StillImage" />
      </cc:Work>
    </rdf:RDF>
  </metadata>
  <defs
     id="defs24" />
  <sodipodi:namedview
     pagecolor="#ffffff"
     bordercolor="#666666"
     borderopacity="1"
     objecttolerance="10"
     gridtolerance="10"
     guidetolerance="10"
     inkscape:pageopacity="0"
     inkscape:pageshadow="2"
     inkscape:window-width="1627"
     inkscape:window-height="1025"
     id="namedview22"
     showgrid="false"
     inkscape:zoom="10.429825"
     inkscape:cx="53.721119"
     inkscape:cy="27.976829"
     inkscape:window-x="0"
     inkscape:window-y="26"
     inkscape:window-maximized="0"
     inkscape:current-layer="svg2" />
  <path
     d="m 45.015734,53.416638 c -3.724609,0 -7.674804,-0.289063 -11.743164,-0.859375 -6.503418,-0.913086 -12.870605,-1.375 -18.924316,-1.375 -6.8637686,0 -10.8564446,0.613281 -10.8959956,0.620117 l -0.866211,0.135742 0,-39.824707 0.504883,-0.174805 c 0.165527,-0.05713 4.161133,-1.402344 13.3417966,-1.402344 4.642578,0 9.813476,0.347657 15.36914,1.033692 6.445313,0.79541 12.383789,1.19873 17.652344,1.19873 7.525391,0 11.04297,-0.84082 11.07715,-0.849121 l 0.92871,-0.228027 9.8e-4,39.19873 -0.45313,0.195313 c -0.2207,0.0957 -5.529296,2.331055 -15.992187,2.331055 z"
     id="path14-5"
     style="color:#000000;clip-rule:nonzero;display:inline;overflow:visible;visibility:visible;opacity:1;isolation:auto;mix-blend-mode:normal;color-interpolation:sRGB;color-interpolation-filters:linearRGB;solid-color:#000000;solid-opacity:1;fill:#ffffff;fill-opacity:1;fill-rule:nonzero;stroke-width:1;stroke-linecap:butt;stroke-linejoin:miter;stroke-miterlimit:4;stroke-dasharray:none;stroke-dashoffset:0;stroke-opacity:1;color-rendering:auto;image-rendering:auto;shape-rendering:auto;text-rendering:auto;enable-background:accumulate"
     inkscape:connector-curvature="0"
     sodipodi:nodetypes="scsccccscsccccs" />
  <path
     style="fill-rule:evenodd;clip-rule:evenodd;fill:#0032D3;"
     d="M3.3125,16.6000977v6.0141602  c0,0,11.6240234-2.4306641,30.0410156,0.1523438C51.4941406,25.3105469,60.6875,22.699707,60.6875,22.699707v-6.0996094  c0,0-8.75,2.1665039-29.0009766-0.3334961C11.4873047,13.7729492,3.3125,16.6000977,3.3125,16.6000977z"
     id="path4" />
  <path
     style="fill-rule:evenodd;clip-rule:evenodd;fill:#0032D3;"
     d="M3.3125,41.4345703v6.0136719  c0,0,11.6240234-2.4296875,30.0410156,0.1523438C51.4941406,50.1455078,60.6875,47.2353516,60.6875,47.2353516v-6.3984375  c0,0-8.75,2.7636719-29.0009766,0.2636719C11.4873047,38.6074219,3.3125,41.4345703,3.3125,41.4345703z"
     id="path6" />
  <g
     id="g8">
    <path
       style="opacity:0.08;fill:#3D3D3D;"
       d="M31.6865234,12.3378906c0,0,20.2929688,2.03125,25.1367188,0.8896484   c0,0,2.7197266,40.0039063-7.15625,33.3583984C42.6669922,41.8759766,49.6669922,25.5004883,31.6865234,12.3378906z"
       id="path10" />
    <path
       style="opacity:0.08;fill:#3D3D3D;"
       d="M44.4990234,52.6875c0,0-22.4086914-3.1650391-38.3310547-1.9150391   c0,0,1.1191406-19.8920898,10.3505859-19.7060547S12.9926758,44.6689453,44.4990234,52.6875z"
       id="path12" />
  </g>
  <path
     d="M44.9921875,53.4404297c-3.7246094,0-7.6748047-0.2890625-11.7431641-0.859375  c-6.503418-0.9130859-12.8706055-1.375-18.9243164-1.375c-6.8637695,0-10.8564453,0.6132813-10.8959961,0.6201172L2.5625,51.9619141  V12.137207l0.5048828-0.1748047c0.1655273-0.0571289,4.1611328-1.4023438,13.3417969-1.4023438  c4.6425781,0,9.8134766,0.3476563,15.3691406,1.0336914c6.4453125,0.7954102,12.3837891,1.1987305,17.6523438,1.1987305  c7.5253906,0,11.0429688-0.8408203,11.0771484-0.8491211l0.9287109-0.2280273L61.4375,50.9140625l-0.453125,0.1953125  C60.7636719,51.2050781,55.4550781,53.4404297,44.9921875,53.4404297z M14.324707,49.7060547  c6.1230469,0,12.5605469,0.4677734,19.1333008,1.3886719c3.9990234,0.5615234,7.8798828,0.8457031,11.5341797,0.8457031  c8.4345703,0,13.4726563-1.5195313,14.9453125-2.0380859V13.5844727c-1.5166016,0.2617188-4.9208984,0.7080078-10.5068359,0.7080078  c-5.3300781,0-11.3300781-0.4072266-17.8359375-1.2104492c-5.4951172-0.6782227-10.6040039-1.0219727-15.1855469-1.0219727  c-7.0927734,0-11.0288086,0.8334961-12.3466797,1.1762695v36.9921875  C5.5991211,50.0439453,9.1259766,49.7060547,14.324707,49.7060547z"
     id="path14"
     style="color:#000000;clip-rule:nonzero;display:inline;overflow:visible;visibility:visible;opacity:1;isolation:auto;mix-blend-mode:normal;color-interpolation:sRGB;color-interpolation-filters:linearRGB;solid-color:#000000;solid-opacity:1;fill:#000000;fill-opacity:1;fill-rule:nonzero;stroke-width:1;stroke-linecap:butt;stroke-linejoin:miter;stroke-miterlimit:4;stroke-dasharray:none;stroke-dashoffset:0;stroke-opacity:1;filter-blend-mode:normal;filter-gaussianBlur-deviation:0;color-rendering:auto;image-rendering:auto;shape-rendering:auto;text-rendering:auto;enable-background:accumulate" />
  <g
     id="g16">
    <path
       style="fill:#0032D3;"
       d="M38.8701172,36H25.1308594L32,24.1035156L38.8701172,36z M26.8632813,35h10.2744141L32,26.1035156   L26.8632813,35z"
       id="path18" />
    <path
       style="fill:#0032D3;"
       d="M32,39.8964844L25.1308594,28h13.7392578L32,39.8964844z M26.8632813,29L32,37.8964844   L37.1376953,29H26.8632813z"
       id="path20" />
  </g>
</svg>
