<?xml version="1.0" encoding="utf-8"?>
<!-- Generator: Adobe Illustrator 18.0.0, SVG Export Plug-In . SVG Version: 6.00 Build 0)  -->
<!DOCTYPE svg PUBLIC "-//W3C//DTD SVG 1.1//EN" "http://www.w3.org/Graphics/SVG/1.1/DTD/svg11.dtd">
<svg version="1.1" id="レイヤー_1" xmlns="http://www.w3.org/2000/svg" xmlns:xlink="http://www.w3.org/1999/xlink" x="0px"
	 y="0px" width="64px" height="64px" viewBox="0 0 64 64" style="enable-background:new 0 0 64 64;" xml:space="preserve">
<g>
	<g>
		
			<linearGradient id="SVGID_1_" gradientUnits="userSpaceOnUse" x1="48.7939796" y1="26.783884" x2="48.7939796" y2="57" gradientTransform="matrix(-1 0 0 1 64.625 0)">
			<stop  offset="0" style="stop-color:#B2B2B3"/>
			<stop  offset="1" style="stop-color:#3E3A39"/>
		</linearGradient>
		<path style="fill:url(#SVGID_1_);" d="M4.5,57h4.5324078l1.3597088-4.5324059h10.8778038L22.6296291,57h4.5324078
			l-9.0648155-30.216116h-4.5324068L4.5,57z M11.7518253,47.9351845l4.0791931-13.59729l4.0791931,13.59729H11.7518253z"/>
		<linearGradient id="SVGID_2_" gradientUnits="userSpaceOnUse" x1="15.8310184" y1="26.7838821" x2="15.8310184" y2="57">
			<stop  offset="0" style="stop-color:#ECECED"/>
			<stop  offset="1" style="stop-color:#B2B2B3"/>
		</linearGradient>
		<path style="fill:url(#SVGID_2_);" d="M17.3531837,27.7838821L25.8180046,56h-2.4443398l-1.145916-3.8197594
			c-0.1268997-0.4229774-0.5162201-0.7126503-0.9578304-0.7126503h-10.8778c-0.4416103,0-0.8309298,0.2896729-0.9578304,0.7126503
			L8.2883711,56H5.8440328l8.4648209-28.2161179H17.3531837 M11.7518282,48.9351807h8.1583796
			c0.3161106,0,0.6135998-0.1494598,0.80229-0.4030685c0.1887016-0.2536087,0.2463703-0.581501,0.1555405-0.8842812
			l-4.0791893-13.5972786c-0.1268997-0.4229813-0.5162201-0.7126541-0.9578304-0.7126541s-0.8309298,0.2896729-0.9578304,0.7126541
			L10.7939987,47.647831c-0.0908298,0.3027802-0.0331602,0.6306725,0.1555395,0.8842812
			C11.1382284,48.7857208,11.4357185,48.9351807,11.7518282,48.9351807 M18.0972176,26.7838821h-4.5323992L4.4999986,57h4.5324101
			l1.3597097-4.5324097h10.8778L22.6296291,57h4.5324097L18.0972176,26.7838821L18.0972176,26.7838821z M11.7518282,47.9351807
			l4.0791903-13.5972824l4.0791893,13.5972824H11.7518282L11.7518282,47.9351807z"/>
		<path style="fill:#3E3A39;" d="M18.0972176,26.7838821L27.1620388,57h-4.5324097l-1.3597107-4.5324097h-10.8778L9.0324087,57
			H4.4999986l9.0648193-30.2161179H18.0972176 M11.7518282,47.9351807h8.1583796l-4.0791893-13.5972824L11.7518282,47.9351807
			 M18.0972176,25.7838821h-4.5323992c-0.4416103,0-0.8309298,0.289669-0.9578295,0.7126503L3.5421684,56.7126503
			c-0.0908298,0.3027802-0.03316,0.6306725,0.15554,0.8842812C3.8863986,57.8505402,4.1838884,58,4.4999986,58h4.5324101
			c0.4416094,0,0.8309298-0.289669,0.9578295-0.7126503l1.1459169-3.8197594h9.3897257l1.1459179,3.8197594
			C21.7986984,57.710331,22.1880188,58,22.6296291,58h4.5324097c0.3161087,0,0.6135998-0.1494598,0.80229-0.4030685
			c0.1886997-0.2536087,0.2463703-0.581501,0.1555405-0.8842812L19.055048,26.4965324
			C18.9281483,26.0735512,18.5388279,25.7838821,18.0972176,25.7838821L18.0972176,25.7838821z M13.0958643,46.9351807
			l2.7351542-9.1171684l2.7351551,9.1171684H13.0958643L13.0958643,46.9351807z"/>
	</g>
	<g>
		
			<linearGradient id="SVGID_3_" gradientUnits="userSpaceOnUse" x1="22.3549385" y1="9.3867865" x2="22.3549385" y2="57" gradientTransform="matrix(-1 0 0 1 64.625 0)">
			<stop  offset="0" style="stop-color:#D9DADA"/>
			<stop  offset="1" style="stop-color:#3E3A39"/>
		</linearGradient>
		<path style="fill:url(#SVGID_3_);" d="M38.6990738,9.3867865L24.415123,57h7.1419754l2.1426048-7.1419754h17.1407166
			L52.9830246,57H60.125L45.8410492,9.3867865H38.6990738z M35.8423119,42.7160492l6.4277496-21.425993l6.4277496,21.425993
			H35.8423119z"/>
		<linearGradient id="SVGID_4_" gradientUnits="userSpaceOnUse" x1="42.2700615" y1="9.3867836" x2="42.2700615" y2="57.0000038">
			<stop  offset="0" style="stop-color:#FFFFFF"/>
			<stop  offset="1" style="stop-color:#B2B2B3"/>
		</linearGradient>
		<path style="fill:url(#SVGID_4_);" d="M45.0970154,10.3867836l13.6839523,45.6132202h-5.0539131l-1.9288025-6.4293289
			c-0.1268997-0.4229813-0.5162201-0.7126503-0.9578323-0.7126503H33.6997032c-0.4416122,0-0.8309326,0.289669-0.9578323,0.7126503
			l-1.9288044,6.4293289h-5.0539112l13.6839523-45.6132202H45.0970154 M35.8423119,43.716053h12.8554993
			c0.3161087,0,0.6136017-0.1494598,0.8022919-0.4030685c0.1886978-0.2536125,0.2463684-0.581501,0.1555367-0.8842812
			L43.22789,21.0027046c-0.1268997-0.4229813-0.5162201-0.7126503-0.9578285-0.7126503s-0.8309288,0.289669-0.9578285,0.7126503
			l-6.4277496,21.4259987c-0.0908318,0.3027802-0.0331612,0.6306686,0.1555367,0.8842812
			C35.2287102,43.5665932,35.5262032,43.716053,35.8423119,43.716053 M45.841053,9.3867836H38.69907L24.4151211,57.0000038
			h7.1419811l2.142601-7.1419792h17.1407166l2.142601,7.1419792H60.125L45.841053,9.3867836L45.841053,9.3867836z
			 M35.8423119,42.716053l6.4277496-21.4259987l6.4277496,21.4259987H35.8423119L35.8423119,42.716053z"/>
		<path style="fill:#3E3A39;" d="M45.841053,9.3867836L60.125,57.0000038h-7.1419792l-2.142601-7.1419792H33.6997032
			l-2.142601,7.1419792h-7.1419811L38.69907,9.3867836H45.841053 M35.8423119,42.716053h12.8554993l-6.4277496-21.4259987
			L35.8423119,42.716053 M45.841053,8.3867836H38.69907c-0.4416084,0-0.8309288,0.289669-0.9578285,0.7126503L23.4572906,56.7126541
			c-0.0908298,0.3027802-0.0331593,0.6306686,0.1555405,0.8842812c0.1886902,0.2536087,0.4861813,0.4030685,0.80229,0.4030685
			h7.1419811c0.4416084,0,0.8309288-0.289669,0.9578285-0.7126503l1.9288063-6.4293289H50.096386l1.9288063,6.4293289
			c0.1268997,0.4229813,0.5162201,0.7126503,0.9578285,0.7126503H60.125c0.3161125,0,0.6136017-0.1494598,0.8022919-0.4030685
			c0.1886978-0.2536125,0.2463684-0.581501,0.1555405-0.8842812L46.7988815,9.0994339
			C46.6719818,8.6764526,46.2826614,8.3867836,45.841053,8.3867836L45.841053,8.3867836z M37.1863441,41.716053l5.0837173-16.945858
			l5.0837173,16.945858H37.1863441L37.1863441,41.716053z"/>
	</g>
</g>
<g>
</g>
<g>
</g>
<g>
</g>
<g>
</g>
<g>
</g>
<g>
</g>
</svg>
