<?xml version="1.0" encoding="utf-8"?>
<!-- Generator: Adobe Illustrator 15.0.0, SVG Export Plug-In . SVG Version: 6.00 Build 0)  -->
<!DOCTYPE svg PUBLIC "-//W3C//DTD SVG 1.1//EN" "http://www.w3.org/Graphics/SVG/1.1/DTD/svg11.dtd">
<svg version="1.1" id="レイヤー_1" xmlns="http://www.w3.org/2000/svg" xmlns:xlink="http://www.w3.org/1999/xlink" x="0px"
	 y="0px" width="64px" height="64px" viewBox="0 0 64 64" style="enable-background:new 0 0 64 64;" xml:space="preserve">
<g>
	<linearGradient id="SVGID_1_" gradientUnits="userSpaceOnUse" x1="16.3764648" y1="6.1020508" x2="48.9658012" y2="66.0400391">
		<stop  offset="0" style="stop-color:#3F1A07"/>
		<stop  offset="0.6526568" style="stop-color:#2B0E03"/>
		<stop  offset="1" style="stop-color:#1E0601"/>
	</linearGradient>
	<circle style="fill:url(#SVGID_1_);" cx="32" cy="34.8369141" r="26.4443359"/>
	<g>
		<polygon style="fill:#FF6490;" points="13.1474609,29.5063477 11.8994141,28.0366211 10.1660156,29.5063477 8.9189453,28.0366211 
			6.7939453,29.8383789 9.5048828,33.0351563 11.2387695,31.5639648 12.4868164,33.0351563 14.2197266,31.5639648 
			15.4672852,33.0351563 17.5917969,31.2329102 14.8803711,28.0366211 		"/>
		<polygon style="fill:#FF6490;" points="57.0791016,31.2319336 54.3662109,28.0366211 52.6337891,29.5068359 
			51.3847656,28.0361328 49.6533203,29.5058594 48.4052734,28.0366211 46.2822266,29.8383789 48.9921875,33.0341797 
			50.7255859,31.5629883 51.9746094,33.0351563 53.7080078,31.5629883 54.9550781,33.0341797 		"/>
	</g>
	<path style="fill:#C69C6D;" d="M48.3798828,26.965332l-2.9863281-0.2851563
		c0.1660156-1.7397461-0.9472656-3.2744141-2.4814453-3.4208984c-1.5292969-0.1401367-2.9169922,1.1523438-3.0849609,2.8935547
		l-2.9863281-0.2871094c0.3261719-3.3876953,3.1875-5.8930664,6.3564453-5.5927734
		C46.3779297,20.5771484,48.703125,23.5791016,48.3798828,26.965332z"/>
	<path style="fill:#C69C6D;" d="M15.0395508,27.0458984c-0.3735352-3.3813477,1.8813477-6.4165039,5.0263672-6.7651367
		c3.1420898-0.3491211,6.0092773,2.1196289,6.3837891,5.5024414l-2.9814453,0.3300781
		c-0.1923828-1.7373047-1.5693359-3.0117188-3.0717773-2.8510742c-1.5014648,0.1669922-2.5673828,1.7163086-2.3754883,3.4545898
		L15.0395508,27.0458984z"/>
	<path style="fill:#FF9F9F;" d="M32,51.1113281c-8.4873047,0-14.8291016-6.90625-14.8291016-13.0810547h3
		c0,4.5664063,5.2763672,10.0810547,11.8291016,10.0810547s11.8300781-5.5146484,11.8300781-10.0810547h3
		C46.8300781,44.2050781,40.4882813,51.1113281,32,51.1113281z"/>
	<path style="fill:#6B1D05;" d="M32,61.6103516c-14.7636719,0-26.7744141-12.0107422-26.7744141-26.7734375
		S17.2363281,8.0634766,32,8.0634766c14.7626953,0,26.7734375,12.0107422,26.7734375,26.7734375
		S46.7626953,61.6103516,32,61.6103516z M32,10.3037109c-13.5283203,0-24.5341797,11.0053711-24.5341797,24.5332031
		c0,13.5273438,11.0058594,24.5332031,24.5341797,24.5332031c13.5273438,0,24.5332031-11.0058594,24.5332031-24.5332031
		C56.5332031,21.309082,45.5273438,10.3037109,32,10.3037109z"/>
	<path style="fill:#541715;" d="M32,62.4003906c-15.1992188,0-27.5644531-12.3652344-27.5644531-27.5634766
		C4.4355469,19.6381836,16.8007813,7.2734375,32,7.2734375s27.5644531,12.3647461,27.5644531,27.5634766
		C59.5644531,50.0351563,47.1992188,62.4003906,32,62.4003906z M32,9.5136719
		c-13.9638672,0-25.3242188,11.3598633-25.3242188,25.3232422c0,13.9628906,11.3603516,25.3232422,25.3242188,25.3232422
		s25.3242188-11.3603516,25.3242188-25.3232422C57.3242188,20.8735352,45.9638672,9.5136719,32,9.5136719z"/>
	<path style="fill:#F8EB00;" d="M32.1494141,16.7670898c-8.5991211,0-23.1523438-1.597168-23.1523438-7.5834961
		c0-5.9868164,14.5532227-7.5839844,23.1523438-7.5839844c8.5986328,0,23.1513672,1.597168,23.1513672,7.5839844
		C55.3007813,15.1699219,40.7480469,16.7670898,32.1494141,16.7670898z M12.871582,9.1835938
		c0.887207,1.3657227,7.9667969,3.7495117,19.277832,3.7495117c11.3105469,0,18.3896484-2.3837891,19.2773438-3.7495117
		c-0.8867188-1.3662109-7.9658203-3.75-19.2773438-3.75S13.7587891,7.8173828,12.871582,9.1835938z"/>
</g>
</svg>
