<?xml version="1.0" encoding="UTF-8"?>
<!-- Generated by phantom_svg. -->
<svg id="phantom_svg" width="64px" height="64px" xmlns="http://www.w3.org/2000/svg" xmlns:xlink="http://www.w3.org/1999/xlink" version="1.1">
  <defs>
    <!-- Images. -->
    <svg id="frame0" viewBox="0 0 64 64" preserveAspectRatio="none" xmlns="http://www.w3.org/2000/svg" xmlns:xlink="http://www.w3.org/1999/xlink">
      <g>
        <path style='fill:#E26CFF;' d='M62.2050781,50.2050781c0,6.6269531-5.3730469,12-12,12H13.7949219c-6.6274414,0-12-5.3730469-12-12
		V13.7949219c0-6.6269531,5.3725586-12,12-12h36.4101563c6.6269531,0,12,5.3730469,12,12V50.2050781z'/>
      </g>
      <polygon style="fill:#FFFFFF;" points="45.25,21.9199219 36.9746094,21.9199219 42.8261719,16.0683594 39.9121094,13.1542969 
	34.0605469,19.0058594 34.0605469,9.6113281 29.9394531,9.6103516 29.9394531,19.0058594 24.0878906,13.1542969 
	21.1738281,16.0683594 27.0249023,21.9199219 18.75,21.9199219 18.75,26.0410156 27.0258789,26.0410156 21.1738281,31.8925781 
	24.0878906,34.8066406 29.9394531,28.9550781 29.9384766,41.2666016 19.5439453,41.2666016 19.5439453,45.3886719 
	29.9384766,45.3886719 29.9384766,54.3896484 34.0605469,54.3896484 34.0605469,48.1113281 34.0605469,45.3886719 
	44.4560547,45.3886719 44.4560547,41.2666016 34.0605469,41.2666016 34.0605469,28.9550781 39.9121094,34.8066406 
	42.8261719,31.8925781 36.9746094,26.0410156 45.25,26.0410156 "/>
    </svg>
    <!-- Animation. -->
    <symbol id="animation">
      <use xlink:href="#frame0" visibility="hidden">
        <set id="frame0_anim" attributeName="visibility" to="visible" begin="0s;frame0_anim.end" dur="0.1s"/>
      </use>
    </symbol>
  </defs>
  <!-- Main control. -->
  <animate id="controller" begin="0s" dur="0.1s" repeatCount="indefinite"/>
  <use xlink:href="#frame0">
    <set attributeName="xlink:href" to="#animation" begin="controller.begin"/>
    <set attributeName="xlink:href" to="#frame0" begin="controller.end"/>
  </use>
</svg>