<?xml version="1.0" encoding="UTF-8" standalone="no"?>
<!-- Generator: Adobe Illustrator 15.0.2, SVG Export Plug-In . SVG Version: 6.00 Build 0)  -->

<svg
   xmlns:dc="http://purl.org/dc/elements/1.1/"
   xmlns:cc="http://creativecommons.org/ns#"
   xmlns:rdf="http://www.w3.org/1999/02/22-rdf-syntax-ns#"
   xmlns:svg="http://www.w3.org/2000/svg"
   xmlns="http://www.w3.org/2000/svg"
   xmlns:sodipodi="http://sodipodi.sourceforge.net/DTD/sodipodi-0.dtd"
   xmlns:inkscape="http://www.inkscape.org/namespaces/inkscape"
   version="1.1"
   id="レイヤー_1"
   x="0px"
   y="0px"
   width="64px"
   height="64px"
   viewBox="0 0 64 64"
   style="enable-background:new 0 0 64 64;"
   xml:space="preserve"
   inkscape:version="0.48.5 r10040"
   sodipodi:docname="key.svg"><metadata
     id="metadata25"><rdf:RDF><cc:Work
         rdf:about=""><dc:format>image/svg+xml</dc:format><dc:type
           rdf:resource="http://purl.org/dc/dcmitype/StillImage" /></cc:Work></rdf:RDF></metadata><defs
     id="defs23" /><sodipodi:namedview
     pagecolor="#ffffff"
     bordercolor="#666666"
     borderopacity="1"
     objecttolerance="10"
     gridtolerance="10"
     guidetolerance="10"
     inkscape:pageopacity="0"
     inkscape:pageshadow="2"
     inkscape:window-width="640"
     inkscape:window-height="480"
     id="namedview21" /><g
     id="g3"><g
       id="g5"><path
         style="fill:#F5B32C;"
         d="M29.6020508,25.6533203c2.2084961-4.6298828,1.409668-10.3378906-2.4243164-14.1723633    c-4.8657227-4.8657227-12.7558594-4.8657227-17.6206055,0c-4.8666992,4.8652344-4.8666992,12.7553711,0,17.6210938    c3.8334961,3.8339844,9.5410156,4.6323242,14.1713867,2.4248047l24.6435547,24.6411133l3.6914063-3.6914063l2.1806641-2.1816406    l3.8486328-3.8496094l-3.9667969-3.96875l-3.8496094,3.8496094l-3.6035156-3.6035156l3.8486328-3.8496094l-6.0332031-6.0322266    l-3.8476563,3.8505859L29.6020508,25.6533203z M16.7001953,18.6245117    c-2.1479492,2.1474609-4.8134766,2.965332-5.9526367,1.8251953c-1.1401367-1.1396484-0.3222656-3.8046875,1.824707-5.953125    c2.1479492-2.1474609,4.8134766-2.9648438,5.9536133-1.824707C19.6650391,13.8115234,18.8481445,16.4765625,16.7001953,18.6245117    z"
         id="path7" /><path
         style="fill:#231815;"
         d="M48.3720703,56.9179688c-0.1923828,0-0.3837891-0.0722656-0.5302734-0.21875L23.5644531,32.4238281    c-1.6381836,0.6992188-3.4301758,1.0683594-5.2163086,1.0683594c-3.5224609,0-6.8330078-1.3710938-9.3212891-3.8598633    c-2.4956055-2.4946289-3.8696289-5.8120117-3.8696289-9.3408203s1.3740234-6.8461914,3.8696289-9.3408203    c2.4941406-2.4951172,5.8115234-3.8691406,9.340332-3.8691406s6.8457031,1.3740234,9.3408203,3.8691406    c3.8173828,3.8178711,4.9072266,9.5986328,2.7910156,14.5390625L40.640625,35.6308594l3.3173828-3.3203125    c0.28125-0.28125,0.7792969-0.28125,1.0605469,0l6.0332031,6.03125c0.2929688,0.2929688,0.2929688,0.7675781,0,1.0605469    l-3.3183594,3.3203125l2.5429688,2.5429688l3.3193359-3.3203125c0.140625-0.140625,0.3310547-0.21875,0.5302734-0.21875l0,0    c0.1992188,0,0.3896484,0.078125,0.5302734,0.21875l3.9667969,3.9707031c0.2929688,0.2929688,0.2929688,0.7675781,0,1.0605469    l-9.7207031,9.7226563C48.7558594,56.8457031,48.5644531,56.9179688,48.3720703,56.9179688z M23.7285156,30.7768555    c0.1943359,0,0.3862305,0.0756836,0.5302734,0.2197266l24.1132813,24.1108398l8.6601563-8.6621094l-2.90625-2.9082031    l-3.3193359,3.3203125c-0.28125,0.28125-0.7792969,0.28125-1.0605469,0l-3.6035156-3.6035156    c-0.2929688-0.2929688-0.2929688-0.7675781,0-1.0605469l3.3183594-3.3203125l-4.9726563-4.9707031l-3.3173828,3.3183594    c-0.28125,0.28125-0.7792969,0.28125-1.0605469,0L29.0717773,26.1835938    c-0.2246094-0.2246094-0.2832031-0.5664063-0.1464844-0.8530273c2.1323242-4.4711914,1.2172852-9.8237305-2.277832-13.3193359    c-2.2119141-2.2114258-5.1523438-3.4296875-8.2802734-3.4296875s-6.0683594,1.2182617-8.2797852,3.4296875    c-2.2119141,2.2114258-3.4301758,5.1518555-3.4301758,8.2802734c0,3.1279297,1.2182617,6.0683594,3.4301758,8.2802734    c2.2050781,2.2050781,5.1386719,3.4199219,8.2607422,3.4199219c1.7426758,0,3.4912109-0.3950195,5.0576172-1.1416016    C23.5087891,30.8007813,23.6191406,30.7768555,23.7285156,30.7768555z M12.1645508,21.7143555    c-0.7939453,0-1.4672852-0.2539063-1.9477539-0.734375c-1.4541016-1.4536133-0.6523438-4.5341797,1.8251953-7.0136719    c1.5786133-1.5786133,3.5200195-2.559082,5.065918-2.559082c0.7939453,0,1.4677734,0.2539063,1.9482422,0.734375    c1.4541016,1.4545898,0.6523438,4.5351563-1.8256836,7.0131836    C15.6513672,20.7333984,13.7104492,21.7143555,12.1645508,21.7143555z M17.1079102,12.9072266    c-1.1450195,0-2.7172852,0.8320313-4.0053711,2.1196289c-1.921875,1.9228516-2.5483398,4.1689453-1.824707,4.8925781    c0.1958008,0.1958008,0.4941406,0.2949219,0.8867188,0.2949219c1.1450195,0,2.7172852-0.8320313,4.0053711-2.1201172    c1.9223633-1.9223633,2.5493164-4.168457,1.8256836-4.8920898C17.7998047,13.0063477,17.5009766,12.9072266,17.1079102,12.9072266    z"
         id="path9" /></g><path
       style="fill:#FFFFFF;"
       d="M9.0136719,13.8339844c0,0-5.5,8.6665039,2,14.5   c7.5,5.8339844,12.6665039,1.6665039,12.6665039,1.6665039l5.8334961,4.1674805l-5-7.1674805   c0,0-7.0668945,5.5200195-12.8334961-0.5S9.0136719,13.8339844,9.0136719,13.8339844z"
       id="path11" /><polygon
       style="fill:#FFFFFF;"
       points="41.3466797,38 44.3466797,34.1679688 42.8466797,38.6679688  "
       id="polygon13" /><polygon
       style="fill:#FFFFFF;"
       points="50.6806641,47.8339844 54.0136719,44.8339844 53.0136719,47.8339844  "
       id="polygon15" /><polygon
       style="fill:#ED9700;"
       points="46.8466797,37.5 49.0136719,38.6679688 44.3466797,42.3339844 49.0136719,46.3339844    42.1806641,41.9160156 46.5136719,38.6679688  "
       id="polygon17" /><polygon
       style="fill:#ED9700;"
       points="56.0136719,47 49.0136719,51.6679688 48.1806641,54.1679688  "
       id="polygon19" /></g></svg>