<?xml version="1.0" encoding="utf-8"?>
<!-- Generator: Adobe Illustrator 18.0.0, SVG Export Plug-In . SVG Version: 6.00 Build 0)  -->
<!DOCTYPE svg PUBLIC "-//W3C//DTD SVG 1.1//EN" "http://www.w3.org/Graphics/SVG/1.1/DTD/svg11.dtd">
<svg version="1.1" id="レイヤー_1" xmlns="http://www.w3.org/2000/svg" xmlns:xlink="http://www.w3.org/1999/xlink" x="0px"
	 y="0px" width="64px" height="64px" viewBox="0 0 64 64" style="enable-background:new 0 0 64 64;" xml:space="preserve">
<g>
	<linearGradient id="SVGID_1_" gradientUnits="userSpaceOnUse" x1="24.5" y1="18" x2="24.5" y2="43.5">
		<stop  offset="0" style="stop-color:#868686"/>
		<stop  offset="1" style="stop-color:#3E3A39"/>
	</linearGradient>
	<path style="fill:url(#SVGID_1_);" d="M44,43.5H5c-1.6568542,0-3-1.3431473-3-3V21c0-1.6568546,1.3431458-3,3-3h39
		c1.6568527,0,3,1.3431454,3,3v19.5C47,42.1568527,45.6568527,43.5,44,43.5z"/>
	<linearGradient id="SVGID_2_" gradientUnits="userSpaceOnUse" x1="24.5" y1="18" x2="24.5" y2="43.5">
		<stop  offset="0" style="stop-color:#FFFFFF"/>
		<stop  offset="1" style="stop-color:#3E3A39"/>
	</linearGradient>
	<path style="fill:url(#SVGID_2_);" d="M44,20c0.5513992,0,1,0.4486008,1,1v19.5c0,0.5513992-0.4486008,1-1,1H5
		c-0.5514002,0-1-0.4486008-1-1V21c0-0.5513992,0.4485998-1,1-1H44 M44,18H5c-1.6568556,0-3,1.3431435-3,3v19.5
		c0,1.6568527,1.3431444,3,3,3h39c1.6568565,0,3-1.3431473,3-3V21C47,19.3431435,45.6568565,18,44,18L44,18z"/>
	<path style="fill:#3E3A39;" d="M44,19c1.1027985,0,2,0.8972015,2,2v19.5c0,1.1027985-0.8972015,2-2,2H5
		c-1.1027999,0-2-0.8972015-2-2V21c0-1.1027985,0.8972001-2,2-2H44 M44,18H5c-1.6568501,0-3,1.3431511-3,3v19.5
		c0,1.6568527,1.3431499,3,3,3h39c1.6568489,0,3-1.3431473,3-3V21C47,19.3431511,45.6568489,18,44,18L44,18z"/>
</g>
<g>
	<linearGradient id="SVGID_3_" gradientUnits="userSpaceOnUse" x1="54.204071" y1="23.6620712" x2="54.204071" y2="43.8333321">
		<stop  offset="0" style="stop-color:#868686"/>
		<stop  offset="1" style="stop-color:#3E3A39"/>
	</linearGradient>
	<path style="fill:url(#SVGID_3_);" d="M54.5,43.8333321h-0.5918579c-2.761425,0-5-2.238575-5-5V28.6620712
		c0-2.7614231,2.238575-5,5-5H54.5c2.761425,0,5,2.2385769,5,5v10.1712608C59.5,41.5947571,57.261425,43.8333321,54.5,43.8333321z"
		/>
	<linearGradient id="SVGID_4_" gradientUnits="userSpaceOnUse" x1="54.204071" y1="23.662075" x2="54.204071" y2="43.8333359">
		<stop  offset="0" style="stop-color:#FFFFFF"/>
		<stop  offset="1" style="stop-color:#3E3A39"/>
	</linearGradient>
	<path style="fill:url(#SVGID_4_);" d="M54.5,25.662075c1.654213,0,3,1.345787,3,3v10.1712608c0,1.6542053-1.345787,3-3,3
		h-0.5918579c-1.654213,0-3-1.3457947-3-3V28.662075c0-1.654213,1.345787-3,3-3H54.5 M54.5,23.662075h-0.5918579
		c-2.7614212,0-5,2.2385674-5,5v10.1712608c0,2.7614174,2.2385788,5,5,5H54.5c2.7614212,0,5-2.2385826,5-5V28.662075
		C59.5,25.9006424,57.2614212,23.662075,54.5,23.662075L54.5,23.662075z"/>
	<path style="fill:#3E3A39;" d="M54.5,24.662075c2.2056122,0,4,1.7943878,4,4v10.1712608c0,2.2056084-1.7943878,4-4,4h-0.5918579
		c-2.2056122,0-4-1.7943916-4-4V28.662075c0-2.2056122,1.7943878-4,4-4H54.5 M54.5,23.662075h-0.5918579
		c-2.7614212,0-5,2.2385674-5,5v10.1712608c0,2.7614174,2.2385788,5,5,5H54.5c2.7614212,0,5-2.2385826,5-5V28.662075
		C59.5,25.9006424,57.2614212,23.662075,54.5,23.662075L54.5,23.662075z"/>
</g>
<g>
	<linearGradient id="SVGID_5_" gradientUnits="userSpaceOnUse" x1="54.0760918" y1="24.6588383" x2="54.0760918" y2="30.1229019">
		<stop  offset="0" style="stop-color:#ECECED"/>
		<stop  offset="1" style="stop-color:#B2B2B3"/>
	</linearGradient>
	<path style="fill:url(#SVGID_5_);" d="M54.0760956,30.1229019h-0.0000038c-0.6656761,0-1.2053108-0.5396366-1.2053108-1.2053127
		v-3.0534401c0-0.6656742,0.5396347-1.2053108,1.2053108-1.2053108h0.0000038c0.6656723,0,1.2053108,0.5396366,1.2053108,1.2053108
		v3.0534401C55.2814064,29.5832653,54.7417679,30.1229019,54.0760956,30.1229019z"/>
	<linearGradient id="SVGID_6_" gradientUnits="userSpaceOnUse" x1="54.0760956" y1="24.6588402" x2="54.0760956" y2="30.1228981">
		<stop  offset="0" style="stop-color:#FFFFFF"/>
		<stop  offset="1" style="stop-color:#868686"/>
	</linearGradient>
	<path style="fill:url(#SVGID_6_);" d="M54.0760956,25.4088402c0.2510605,0,0.4553108,0.2042503,0.4553108,0.4553108v3.0534363
		c0,0.2510605-0.2042503,0.4553108-0.4553108,0.4553108s-0.4553108-0.2042503-0.4553108-0.4553108V25.864151
		C53.6207848,25.6130905,53.8250351,25.4088402,54.0760956,25.4088402 M54.0760956,24.6588402
		c-0.6656799,0-1.2053108,0.5396385-1.2053108,1.2053108v3.0534363c0,0.6656723,0.5396309,1.2053108,1.2053108,1.2053108
		c0.6656685,0,1.2053108-0.5396385,1.2053108-1.2053108V25.864151
		C55.2814064,25.1984787,54.7417641,24.6588402,54.0760956,24.6588402L54.0760956,24.6588402z"/>
	<path style="fill:#3E3A39;" d="M54.0761719,30.3730469c-0.8027344,0-1.4550781-0.652832-1.4550781-1.4555664v-3.0532227
		c0-0.8027344,0.6523438-1.4555664,1.4550781-1.4555664s1.4550781,0.652832,1.4550781,1.4555664v3.0532227
		C55.53125,29.7202148,54.8789063,30.3730469,54.0761719,30.3730469z M54.0761719,24.9086914
		c-0.5263672,0-0.9550781,0.4287109-0.9550781,0.9555664v3.0532227c0,0.5268555,0.4287109,0.9555664,0.9550781,0.9555664
		s0.9550781-0.4287109,0.9550781-0.9555664v-3.0532227C55.03125,25.3374023,54.6025391,24.9086914,54.0761719,24.9086914z"/>
</g>
<g>
	<g>
		<linearGradient id="SVGID_7_" gradientUnits="userSpaceOnUse" x1="7.2777777" y1="21.3613644" x2="7.2777777" y2="25.1168175">
			<stop  offset="0" style="stop-color:#ECECED"/>
			<stop  offset="1" style="stop-color:#B2B2B3"/>
		</linearGradient>
		<path style="fill:url(#SVGID_7_);" d="M8.4305553,25.1168175H6.125c-0.5522847,0-1-0.4477139-1-1v-1.7554531
			c0-0.5522861,0.4477153-1,1-1h2.3055553c0.5522852,0,1,0.4477139,1,1v1.7554531
			C9.4305553,24.6691036,8.9828405,25.1168175,8.4305553,25.1168175z"/>
		<linearGradient id="SVGID_8_" gradientUnits="userSpaceOnUse" x1="7.2777772" y1="21.3613586" x2="7.2777777" y2="25.1168213">
			<stop  offset="0" style="stop-color:#FFFFFF"/>
			<stop  offset="1" style="stop-color:#868686"/>
		</linearGradient>
		<path style="fill:url(#SVGID_8_);" d="M8.4305573,22.1113586c0.1378508,0,0.25,0.1121521,0.25,0.25v1.7554626
			c0,0.1378479-0.1121492,0.25-0.25,0.25H6.1249976c-0.1378498,0-0.25-0.1121521-0.25-0.25v-1.7554626
			c0-0.1378479,0.1121502-0.25,0.25-0.25H8.4305573 M8.4305573,21.3613586H6.1249976c-0.5522799,0-1,0.4477196-1,1v1.7554626
			c0,0.5522804,0.4477201,1,1,1h2.3055596c0.5522804,0,1-0.4477196,1-1v-1.7554626
			C9.4305573,21.8090782,8.9828377,21.3613586,8.4305573,21.3613586L8.4305573,21.3613586z"/>
		<path style="fill:#3E3A39;" d="M8.4306641,25.3666992H6.125c-0.6894531,0-1.25-0.5605469-1.25-1.25v-1.7553711
			c0-0.6894531,0.5605469-1.25,1.25-1.25h2.3056641c0.6894531,0,1.25,0.5605469,1.25,1.25v1.7553711
			C9.6806641,24.8061523,9.1201172,25.3666992,8.4306641,25.3666992z M6.125,21.6113281c-0.4135742,0-0.75,0.3364258-0.75,0.75
			v1.7553711c0,0.4135742,0.3364258,0.75,0.75,0.75h2.3056641c0.4135742,0,0.75-0.3364258,0.75-0.75v-1.7553711
			c0-0.4135742-0.3364258-0.75-0.75-0.75H6.125z"/>
	</g>
	<g>
		<linearGradient id="SVGID_9_" gradientUnits="userSpaceOnUse" x1="13.0185184" y1="21.3613644" x2="13.0185184" y2="25.1168175">
			<stop  offset="0" style="stop-color:#ECECED"/>
			<stop  offset="1" style="stop-color:#B2B2B3"/>
		</linearGradient>
		<path style="fill:url(#SVGID_9_);" d="M14.1712961,25.1168175h-2.3055553c-0.5522852,0-1-0.4477139-1-1v-1.7554531
			c0-0.5522861,0.4477148-1,1-1h2.3055553c0.5522852,0,1,0.4477139,1,1v1.7554531
			C15.1712961,24.6691036,14.7235813,25.1168175,14.1712961,25.1168175z"/>
		<linearGradient id="SVGID_10_" gradientUnits="userSpaceOnUse" x1="13.0185184" y1="21.3613586" x2="13.0185184" y2="25.1168213">
			<stop  offset="0" style="stop-color:#FFFFFF"/>
			<stop  offset="1" style="stop-color:#868686"/>
		</linearGradient>
		<path style="fill:url(#SVGID_10_);" d="M14.171298,22.1113586c0.1378508,0,0.25,0.1121521,0.25,0.25v1.7554626
			c0,0.1378479-0.1121492,0.25-0.25,0.25h-2.3055592c-0.1378508,0-0.25-0.1121521-0.25-0.25v-1.7554626
			c0-0.1378479,0.1121492-0.25,0.25-0.25H14.171298 M14.171298,21.3613586h-2.3055592c-0.5522804,0-1,0.4477196-1,1v1.7554626
			c0,0.5522804,0.4477196,1,1,1h2.3055592c0.5522804,0,1-0.4477196,1-1v-1.7554626
			C15.171298,21.8090782,14.7235785,21.3613586,14.171298,21.3613586L14.171298,21.3613586z"/>
		<path style="fill:#3E3A39;" d="M14.1713867,25.3666992h-2.3056641c-0.6894531,0-1.25-0.5605469-1.25-1.25v-1.7553711
			c0-0.6894531,0.5605469-1.25,1.25-1.25h2.3056641c0.6894531,0,1.25,0.5605469,1.25,1.25v1.7553711
			C15.4213867,24.8061523,14.8608398,25.3666992,14.1713867,25.3666992z M11.8657227,21.6113281
			c-0.4135742,0-0.75,0.3364258-0.75,0.75v1.7553711c0,0.4135742,0.3364258,0.75,0.75,0.75h2.3056641
			c0.4135742,0,0.75-0.3364258,0.75-0.75v-1.7553711c0-0.4135742-0.3364258-0.75-0.75-0.75H11.8657227z"/>
	</g>
	<g>
		<linearGradient id="SVGID_11_" gradientUnits="userSpaceOnUse" x1="18.7592602" y1="21.3613644" x2="18.7592602" y2="25.1168175">
			<stop  offset="0" style="stop-color:#ECECED"/>
			<stop  offset="1" style="stop-color:#B2B2B3"/>
		</linearGradient>
		<path style="fill:url(#SVGID_11_);" d="M19.9120369,25.1168175h-2.3055553c-0.5522842,0-1-0.4477139-1-1v-1.7554531
			c0-0.5522861,0.4477158-1,1-1h2.3055553c0.5522842,0,1,0.4477139,1,1v1.7554531
			C20.9120369,24.6691036,20.4643211,25.1168175,19.9120369,25.1168175z"/>
		<linearGradient id="SVGID_12_" gradientUnits="userSpaceOnUse" x1="18.7592583" y1="21.3613586" x2="18.7592583" y2="25.1168213">
			<stop  offset="0" style="stop-color:#FFFFFF"/>
			<stop  offset="1" style="stop-color:#868686"/>
		</linearGradient>
		<path style="fill:url(#SVGID_12_);" d="M19.9120388,22.1113586c0.1378498,0,0.25,0.1121521,0.25,0.25v1.7554626
			c0,0.1378479-0.1121502,0.25-0.25,0.25h-2.3055611c-0.1378498,0-0.25-0.1121521-0.25-0.25v-1.7554626
			c0-0.1378479,0.1121502-0.25,0.25-0.25H19.9120388 M19.9120388,21.3613586h-2.3055611c-0.5522785,0-1,0.4477196-1,1v1.7554626
			c0,0.5522804,0.4477215,1,1,1h2.3055611c0.5522785,0,1-0.4477196,1-1v-1.7554626
			C20.9120388,21.8090782,20.4643173,21.3613586,19.9120388,21.3613586L19.9120388,21.3613586z"/>
		<path style="fill:#3E3A39;" d="M19.9121094,25.3666992h-2.3056641c-0.6894531,0-1.25-0.5605469-1.25-1.25v-1.7553711
			c0-0.6894531,0.5605469-1.25,1.25-1.25h2.3056641c0.6894531,0,1.25,0.5605469,1.25,1.25v1.7553711
			C21.1621094,24.8061523,20.6015625,25.3666992,19.9121094,25.3666992z M17.6064453,21.6113281
			c-0.4135742,0-0.75,0.3364258-0.75,0.75v1.7553711c0,0.4135742,0.3364258,0.75,0.75,0.75h2.3056641
			c0.4135742,0,0.75-0.3364258,0.75-0.75v-1.7553711c0-0.4135742-0.3364258-0.75-0.75-0.75H17.6064453z"/>
	</g>
	<g>
		<linearGradient id="SVGID_13_" gradientUnits="userSpaceOnUse" x1="24.5" y1="21.3613644" x2="24.5" y2="25.1168175">
			<stop  offset="0" style="stop-color:#ECECED"/>
			<stop  offset="1" style="stop-color:#B2B2B3"/>
		</linearGradient>
		<path style="fill:url(#SVGID_13_);" d="M25.6527786,25.1168175h-2.3055573c-0.5522842,0-1-0.4477139-1-1v-1.7554531
			c0-0.5522861,0.4477158-1,1-1h2.3055573c0.5522842,0,1,0.4477139,1,1v1.7554531
			C26.6527786,24.6691036,26.2050629,25.1168175,25.6527786,25.1168175z"/>
		<linearGradient id="SVGID_14_" gradientUnits="userSpaceOnUse" x1="24.5" y1="21.3613586" x2="24.5" y2="25.1168213">
			<stop  offset="0" style="stop-color:#FFFFFF"/>
			<stop  offset="1" style="stop-color:#868686"/>
		</linearGradient>
		<path style="fill:url(#SVGID_14_);" d="M25.6527805,22.1113586c0.1378498,0,0.25,0.1121521,0.25,0.25v1.7554626
			c0,0.1378479-0.1121502,0.25-0.25,0.25h-2.3055611c-0.1378498,0-0.25-0.1121521-0.25-0.25v-1.7554626
			c0-0.1378479,0.1121502-0.25,0.25-0.25H25.6527805 M25.6527805,21.3613586h-2.3055611c-0.5522785,0-1,0.4477196-1,1v1.7554626
			c0,0.5522804,0.4477215,1,1,1h2.3055611c0.5522785,0,1-0.4477196,1-1v-1.7554626
			C26.6527805,21.8090782,26.2050591,21.3613586,25.6527805,21.3613586L25.6527805,21.3613586z"/>
		<path style="fill:#3E3A39;" d="M25.652832,25.3666992H23.347168c-0.6894531,0-1.25-0.5605469-1.25-1.25v-1.7553711
			c0-0.6894531,0.5605469-1.25,1.25-1.25h2.3056641c0.6894531,0,1.25,0.5605469,1.25,1.25v1.7553711
			C26.902832,24.8061523,26.3422852,25.3666992,25.652832,25.3666992z M23.347168,21.6113281c-0.4135742,0-0.75,0.3364258-0.75,0.75
			v1.7553711c0,0.4135742,0.3364258,0.75,0.75,0.75h2.3056641c0.4135742,0,0.75-0.3364258,0.75-0.75v-1.7553711
			c0-0.4135742-0.3364258-0.75-0.75-0.75H23.347168z"/>
	</g>
	<g>
		<linearGradient id="SVGID_15_" gradientUnits="userSpaceOnUse" x1="30.2407398" y1="21.3613644" x2="30.2407398" y2="25.1168175">
			<stop  offset="0" style="stop-color:#ECECED"/>
			<stop  offset="1" style="stop-color:#B2B2B3"/>
		</linearGradient>
		<path style="fill:url(#SVGID_15_);" d="M31.3935184,25.1168175h-2.3055553c-0.5522842,0-1-0.4477139-1-1v-1.7554531
			c0-0.5522861,0.4477158-1,1-1h2.3055553c0.5522842,0,1.0000019,0.4477139,1.0000019,1v1.7554531
			C32.3935204,24.6691036,31.9458027,25.1168175,31.3935184,25.1168175z"/>
		<linearGradient id="SVGID_16_" gradientUnits="userSpaceOnUse" x1="30.2407398" y1="21.3613586" x2="30.2407417" y2="25.1168213">
			<stop  offset="0" style="stop-color:#FFFFFF"/>
			<stop  offset="1" style="stop-color:#868686"/>
		</linearGradient>
		<path style="fill:url(#SVGID_16_);" d="M31.3935223,22.1113586c0.1378498,0,0.25,0.1121521,0.25,0.25v1.7554626
			c0,0.1378479-0.1121502,0.25-0.25,0.25h-2.3055611c-0.1378498,0-0.25-0.1121521-0.25-0.25v-1.7554626
			c0-0.1378479,0.1121502-0.25,0.25-0.25H31.3935223 M31.3935223,21.3613586h-2.3055611c-0.5522785,0-1,0.4477196-1,1v1.7554626
			c0,0.5522804,0.4477215,1,1,1h2.3055611c0.5522785,0,0.9999981-0.4477196,0.9999981-1v-1.7554626
			C32.3935204,21.8090782,31.9458008,21.3613586,31.3935223,21.3613586L31.3935223,21.3613586z"/>
		<path style="fill:#3E3A39;" d="M31.3935547,25.3666992h-2.3056641c-0.6894531,0-1.25-0.5605469-1.25-1.25v-1.7553711
			c0-0.6894531,0.5605469-1.25,1.25-1.25h2.3056641c0.6894531,0,1.25,0.5605469,1.25,1.25v1.7553711
			C32.6435547,24.8061523,32.0830078,25.3666992,31.3935547,25.3666992z M29.0878906,21.6113281
			c-0.4135742,0-0.75,0.3364258-0.75,0.75v1.7553711c0,0.4135742,0.3364258,0.75,0.75,0.75h2.3056641
			c0.4135742,0,0.75-0.3364258,0.75-0.75v-1.7553711c0-0.4135742-0.3364258-0.75-0.75-0.75H29.0878906z"/>
	</g>
	<g>
		<linearGradient id="SVGID_17_" gradientUnits="userSpaceOnUse" x1="35.9814796" y1="21.3613644" x2="35.9814796" y2="25.1168175">
			<stop  offset="0" style="stop-color:#ECECED"/>
			<stop  offset="1" style="stop-color:#B2B2B3"/>
		</linearGradient>
		<path style="fill:url(#SVGID_17_);" d="M37.1342583,25.1168175h-2.3055534c-0.5522842,0-1-0.4477139-1-1v-1.7554531
			c0-0.5522861,0.4477158-1,1-1h2.3055534c0.5522842,0,1,0.4477139,1,1v1.7554531
			C38.1342583,24.6691036,37.6865425,25.1168175,37.1342583,25.1168175z"/>
		<linearGradient id="SVGID_18_" gradientUnits="userSpaceOnUse" x1="35.9814796" y1="21.3613586" x2="35.9814796" y2="25.1168213">
			<stop  offset="0" style="stop-color:#FFFFFF"/>
			<stop  offset="1" style="stop-color:#868686"/>
		</linearGradient>
		<path style="fill:url(#SVGID_18_);" d="M37.1342545,22.1113586c0.1378479,0,0.25,0.1121521,0.25,0.25v1.7554626
			c0,0.1378479-0.1121521,0.25-0.25,0.25h-2.3055496c-0.1378517,0-0.25-0.1121521-0.25-0.25v-1.7554626
			c0-0.1378479,0.1121483-0.25,0.25-0.25H37.1342545 M37.1342545,21.3613586h-2.3055496c-0.5522804,0-1,0.4477196-1,1v1.7554626
			c0,0.5522804,0.4477196,1,1,1h2.3055496c0.5522881,0,1-0.4477196,1-1v-1.7554626
			C38.1342545,21.8090782,37.6865425,21.3613586,37.1342545,21.3613586L37.1342545,21.3613586z"/>
		<path style="fill:#3E3A39;" d="M37.1337891,25.3666992h-2.3046875c-0.6894531,0-1.25-0.5605469-1.25-1.25v-1.7553711
			c0-0.6894531,0.5605469-1.25,1.25-1.25h2.3046875c0.6894531,0,1.25,0.5605469,1.25,1.25v1.7553711
			C38.3837891,24.8061523,37.8232422,25.3666992,37.1337891,25.3666992z M34.8291016,21.6113281
			c-0.4130859,0-0.75,0.3364258-0.75,0.75v1.7553711c0,0.4135742,0.3369141,0.75,0.75,0.75h2.3046875
			c0.4130859,0,0.75-0.3364258,0.75-0.75v-1.7553711c0-0.4135742-0.3369141-0.75-0.75-0.75H34.8291016z"/>
	</g>
	<g>
		<linearGradient id="SVGID_19_" gradientUnits="userSpaceOnUse" x1="41.7222214" y1="21.3613644" x2="41.7222214" y2="25.1168175">
			<stop  offset="0" style="stop-color:#ECECED"/>
			<stop  offset="1" style="stop-color:#B2B2B3"/>
		</linearGradient>
		<path style="fill:url(#SVGID_19_);" d="M42.875,25.1168175h-2.3055573c-0.5522842,0-1-0.4477139-1-1v-1.7554531
			c0-0.5522861,0.4477158-1,1-1H42.875c0.5522842,0,1,0.4477139,1,1v1.7554531
			C43.875,24.6691036,43.4272842,25.1168175,42.875,25.1168175z"/>
		<linearGradient id="SVGID_20_" gradientUnits="userSpaceOnUse" x1="41.7222214" y1="21.3613586" x2="41.7222214" y2="25.1168213">
			<stop  offset="0" style="stop-color:#FFFFFF"/>
			<stop  offset="1" style="stop-color:#868686"/>
		</linearGradient>
		<path style="fill:url(#SVGID_20_);" d="M42.875,22.1113586c0.1378517,0,0.25,0.1121521,0.25,0.25v1.7554626
			c0,0.1378479-0.1121483,0.25-0.25,0.25h-2.3055573c-0.1378517,0-0.25-0.1121521-0.25-0.25v-1.7554626
			c0-0.1378479,0.1121483-0.25,0.25-0.25H42.875 M42.875,21.3613586h-2.3055573c-0.5522804,0-1,0.4477196-1,1v1.7554626
			c0,0.5522804,0.4477196,1,1,1H42.875c0.5522804,0,1-0.4477196,1-1v-1.7554626
			C43.875,21.8090782,43.4272804,21.3613586,42.875,21.3613586L42.875,21.3613586z"/>
		<path style="fill:#3E3A39;" d="M42.875,25.3666992h-2.3056641c-0.6894531,0-1.25-0.5605469-1.25-1.25v-1.7553711
			c0-0.6894531,0.5605469-1.25,1.25-1.25H42.875c0.6894531,0,1.25,0.5605469,1.25,1.25v1.7553711
			C44.125,24.8061523,43.5644531,25.3666992,42.875,25.3666992z M40.5693359,21.6113281c-0.4130859,0-0.75,0.3364258-0.75,0.75
			v1.7553711c0,0.4135742,0.3369141,0.75,0.75,0.75H42.875c0.4130859,0,0.75-0.3364258,0.75-0.75v-1.7553711
			c0-0.4135742-0.3369141-0.75-0.75-0.75H40.5693359z"/>
	</g>
	<g>
		<linearGradient id="SVGID_21_" gradientUnits="userSpaceOnUse" x1="40.2870369" y1="26.3686371" x2="40.2870369" y2="30.1240902">
			<stop  offset="0" style="stop-color:#ECECED"/>
			<stop  offset="1" style="stop-color:#B2B2B3"/>
		</linearGradient>
		<path style="fill:url(#SVGID_21_);" d="M37.6990738,30.1240902H42.875c0.5522842,0,1-0.4477139,1-1v-1.7554531
			c0-0.5522861-0.4477158-1-1-1h-5.1759262c-0.5522842,0-1,0.4477139-1,1v1.7554531
			C36.6990738,29.6763763,37.1467896,30.1240902,37.6990738,30.1240902z"/>
		<linearGradient id="SVGID_22_" gradientUnits="userSpaceOnUse" x1="40.2870369" y1="26.3686333" x2="40.2870369" y2="30.1240959">
			<stop  offset="0" style="stop-color:#FFFFFF"/>
			<stop  offset="1" style="stop-color:#868686"/>
		</linearGradient>
		<path style="fill:url(#SVGID_22_);" d="M42.8749962,27.1186333c0.1378517,0,0.25,0.1121521,0.25,0.25v1.7554626
			c0,0.1378479-0.1121483,0.25-0.25,0.25h-5.1759186c-0.1378517,0-0.25-0.1121521-0.25-0.25v-1.7554626
			c0-0.1378479,0.1121483-0.25,0.25-0.25H42.8749962 M42.8749962,26.3686333h-5.1759186c-0.5522919,0-1,0.4477196-1,1v1.7554626
			c0,0.5522804,0.4477081,1,1,1h5.1759186c0.5522919,0,1-0.4477196,1-1v-1.7554626
			C43.8749962,26.8163528,43.4272881,26.3686333,42.8749962,26.3686333L42.8749962,26.3686333z"/>
		<path style="fill:#3E3A39;" d="M42.875,30.3740234h-5.1757813c-0.6894531,0-1.25-0.5605469-1.25-1.25v-1.7553711
			c0-0.6894531,0.5605469-1.25,1.25-1.25H42.875c0.6894531,0,1.25,0.5605469,1.25,1.25v1.7553711
			C44.125,29.8134766,43.5644531,30.3740234,42.875,30.3740234z M37.6992188,26.6186523c-0.4130859,0-0.75,0.3364258-0.75,0.75
			v1.7553711c0,0.4135742,0.3369141,0.75,0.75,0.75H42.875c0.4130859,0,0.75-0.3364258,0.75-0.75v-1.7553711
			c0-0.4135742-0.3369141-0.75-0.75-0.75H37.6992188z"/>
	</g>
	<g>
		<linearGradient id="SVGID_23_" gradientUnits="userSpaceOnUse" x1="8.7129631" y1="26.3686371" x2="8.7129631" y2="30.1240902">
			<stop  offset="0" style="stop-color:#ECECED"/>
			<stop  offset="1" style="stop-color:#B2B2B3"/>
		</linearGradient>
		<path style="fill:url(#SVGID_23_);" d="M11.3009262,30.1240902H6.125c-0.5522847,0-1-0.4477139-1-1v-1.7554531
			c0-0.5522861,0.4477153-1,1-1h5.1759262c0.5522842,0,1,0.4477139,1,1v1.7554531
			C12.3009262,29.6763763,11.8532104,30.1240902,11.3009262,30.1240902z"/>
		<linearGradient id="SVGID_24_" gradientUnits="userSpaceOnUse" x1="8.7129631" y1="26.3686333" x2="8.7129631" y2="30.1240959">
			<stop  offset="0" style="stop-color:#FFFFFF"/>
			<stop  offset="1" style="stop-color:#868686"/>
		</linearGradient>
		<path style="fill:url(#SVGID_24_);" d="M11.3009233,27.1186333c0.1378498,0,0.25,0.1121521,0.25,0.25v1.7554626
			c0,0.1378479-0.1121502,0.25-0.25,0.25h-5.17592c-0.1378503,0-0.25-0.1121521-0.25-0.25v-1.7554626
			c0-0.1378479,0.1121497-0.25,0.25-0.25H11.3009233 M11.3009233,26.3686333h-5.17592c-0.5522904,0-1,0.4477196-1,1v1.7554626
			c0,0.5522804,0.4477096,1,1,1h5.17592c0.55229,0,1-0.4477196,1-1v-1.7554626
			C12.3009233,26.8163528,11.8532133,26.3686333,11.3009233,26.3686333L11.3009233,26.3686333z"/>
		<path style="fill:#3E3A39;" d="M11.3007813,30.3740234H6.125c-0.6894531,0-1.25-0.5605469-1.25-1.25v-1.7553711
			c0-0.6894531,0.5605469-1.25,1.25-1.25h5.1757813c0.6894531,0,1.25,0.5605469,1.25,1.25v1.7553711
			C12.5507813,29.8134766,11.9902344,30.3740234,11.3007813,30.3740234z M6.125,26.6186523c-0.4135742,0-0.75,0.3364258-0.75,0.75
			v1.7553711c0,0.4135742,0.3364258,0.75,0.75,0.75h5.1757813c0.4135742,0,0.75-0.3364258,0.75-0.75v-1.7553711
			c0-0.4135742-0.3364258-0.75-0.75-0.75H6.125z"/>
	</g>
	<g>
		<linearGradient id="SVGID_25_" gradientUnits="userSpaceOnUse" x1="15.8888893" y1="26.3686371" x2="15.8888893" y2="30.1240902">
			<stop  offset="0" style="stop-color:#ECECED"/>
			<stop  offset="1" style="stop-color:#B2B2B3"/>
		</linearGradient>
		<path style="fill:url(#SVGID_25_);" d="M17.041666,30.1240902h-2.3055553c-0.5522842,0-1-0.4477139-1-1v-1.7554531
			c0-0.5522861,0.4477158-1,1-1h2.3055553c0.5522861,0,1,0.4477139,1,1v1.7554531
			C18.041666,29.6763763,17.5939522,30.1240902,17.041666,30.1240902z"/>
		<linearGradient id="SVGID_26_" gradientUnits="userSpaceOnUse" x1="15.8888884" y1="26.3686333" x2="15.8888884" y2="30.1240959">
			<stop  offset="0" style="stop-color:#FFFFFF"/>
			<stop  offset="1" style="stop-color:#868686"/>
		</linearGradient>
		<path style="fill:url(#SVGID_26_);" d="M17.0416679,27.1186333c0.1378498,0,0.25,0.1121521,0.25,0.25v1.7554626
			c0,0.1378479-0.1121502,0.25-0.25,0.25h-2.3055592c-0.1378508,0-0.25-0.1121521-0.25-0.25v-1.7554626
			c0-0.1378479,0.1121492-0.25,0.25-0.25H17.0416679 M17.0416679,26.3686333h-2.3055592c-0.5522804,0-1,0.4477196-1,1v1.7554626
			c0,0.5522804,0.4477196,1,1,1h2.3055592c0.5522804,0,1-0.4477196,1-1v-1.7554626
			C18.0416679,26.8163528,17.5939484,26.3686333,17.0416679,26.3686333L17.0416679,26.3686333z"/>
		<path style="fill:#3E3A39;" d="M17.0415039,30.3740234h-2.3051758c-0.6894531,0-1.25-0.5605469-1.25-1.25v-1.7553711
			c0-0.6894531,0.5605469-1.25,1.25-1.25h2.3051758c0.6894531,0,1.25,0.5605469,1.25,1.25v1.7553711
			C18.2915039,29.8134766,17.730957,30.3740234,17.0415039,30.3740234z M14.7363281,26.6186523
			c-0.4135742,0-0.75,0.3364258-0.75,0.75v1.7553711c0,0.4135742,0.3364258,0.75,0.75,0.75h2.3051758
			c0.4135742,0,0.75-0.3364258,0.75-0.75v-1.7553711c0-0.4135742-0.3364258-0.75-0.75-0.75H14.7363281z"/>
	</g>
	<g>
		<linearGradient id="SVGID_27_" gradientUnits="userSpaceOnUse" x1="21.6296291" y1="26.3686371" x2="21.6296291" y2="30.1240902">
			<stop  offset="0" style="stop-color:#ECECED"/>
			<stop  offset="1" style="stop-color:#B2B2B3"/>
		</linearGradient>
		<path style="fill:url(#SVGID_27_);" d="M22.7824078,30.1240902h-2.3055553c-0.5522861,0-1-0.4477139-1-1v-1.7554531
			c0-0.5522861,0.4477139-1,1-1h2.3055553c0.5522842,0,1,0.4477139,1,1v1.7554531
			C23.7824078,29.6763763,23.334692,30.1240902,22.7824078,30.1240902z"/>
		<linearGradient id="SVGID_28_" gradientUnits="userSpaceOnUse" x1="21.629631" y1="26.3686333" x2="21.629631" y2="30.1240959">
			<stop  offset="0" style="stop-color:#FFFFFF"/>
			<stop  offset="1" style="stop-color:#868686"/>
		</linearGradient>
		<path style="fill:url(#SVGID_28_);" d="M22.7824116,27.1186333c0.1378498,0,0.25,0.1121521,0.25,0.25v1.7554626
			c0,0.1378479-0.1121502,0.25-0.25,0.25h-2.3055611c-0.1378498,0-0.25-0.1121521-0.25-0.25v-1.7554626
			c0-0.1378479,0.1121502-0.25,0.25-0.25H22.7824116 M22.7824116,26.3686333h-2.3055611c-0.5522785,0-1,0.4477196-1,1v1.7554626
			c0,0.5522804,0.4477215,1,1,1h2.3055611c0.5522785,0,1-0.4477196,1-1v-1.7554626
			C23.7824116,26.8163528,23.3346901,26.3686333,22.7824116,26.3686333L22.7824116,26.3686333z"/>
		<path style="fill:#3E3A39;" d="M22.7822266,30.3740234h-2.3051758c-0.6894531,0-1.25-0.5605469-1.25-1.25v-1.7553711
			c0-0.6894531,0.5605469-1.25,1.25-1.25h2.3051758c0.6894531,0,1.25,0.5605469,1.25,1.25v1.7553711
			C24.0322266,29.8134766,23.4716797,30.3740234,22.7822266,30.3740234z M20.4770508,26.6186523
			c-0.4135742,0-0.75,0.3364258-0.75,0.75v1.7553711c0,0.4135742,0.3364258,0.75,0.75,0.75h2.3051758
			c0.4135742,0,0.75-0.3364258,0.75-0.75v-1.7553711c0-0.4135742-0.3364258-0.75-0.75-0.75H20.4770508z"/>
	</g>
	<g>
		<linearGradient id="SVGID_29_" gradientUnits="userSpaceOnUse" x1="27.3703709" y1="26.3686371" x2="27.3703709" y2="30.1240902">
			<stop  offset="0" style="stop-color:#ECECED"/>
			<stop  offset="1" style="stop-color:#B2B2B3"/>
		</linearGradient>
		<path style="fill:url(#SVGID_29_);" d="M28.5231476,30.1240902h-2.3055553c-0.5522842,0-1-0.4477139-1-1v-1.7554531
			c0-0.5522861,0.4477158-1,1-1h2.3055553c0.5522861,0,1,0.4477139,1,1v1.7554531
			C29.5231476,29.6763763,29.0754337,30.1240902,28.5231476,30.1240902z"/>
		<linearGradient id="SVGID_30_" gradientUnits="userSpaceOnUse" x1="27.370369" y1="26.3686333" x2="27.370369" y2="30.1240959">
			<stop  offset="0" style="stop-color:#FFFFFF"/>
			<stop  offset="1" style="stop-color:#868686"/>
		</linearGradient>
		<path style="fill:url(#SVGID_30_);" d="M28.5231495,27.1186333c0.1378498,0,0.25,0.1121521,0.25,0.25v1.7554626
			c0,0.1378479-0.1121502,0.25-0.25,0.25h-2.3055611c-0.1378498,0-0.25-0.1121521-0.25-0.25v-1.7554626
			c0-0.1378479,0.1121502-0.25,0.25-0.25H28.5231495 M28.5231495,26.3686333h-2.3055611c-0.5522785,0-1,0.4477196-1,1v1.7554626
			c0,0.5522804,0.4477215,1,1,1h2.3055611c0.5522785,0,1-0.4477196,1-1v-1.7554626
			C29.5231495,26.8163528,29.075428,26.3686333,28.5231495,26.3686333L28.5231495,26.3686333z"/>
		<path style="fill:#3E3A39;" d="M28.5229492,30.3740234h-2.3051758c-0.6894531,0-1.25-0.5605469-1.25-1.25v-1.7553711
			c0-0.6894531,0.5605469-1.25,1.25-1.25h2.3051758c0.6894531,0,1.25,0.5605469,1.25,1.25v1.7553711
			C29.7729492,29.8134766,29.2124023,30.3740234,28.5229492,30.3740234z M26.2177734,26.6186523
			c-0.4135742,0-0.75,0.3364258-0.75,0.75v1.7553711c0,0.4135742,0.3364258,0.75,0.75,0.75h2.3051758
			c0.4135742,0,0.75-0.3364258,0.75-0.75v-1.7553711c0-0.4135742-0.3364258-0.75-0.75-0.75H26.2177734z"/>
	</g>
	<g>
		<linearGradient id="SVGID_31_" gradientUnits="userSpaceOnUse" x1="33.1111107" y1="26.3686371" x2="33.1111107" y2="30.1240902">
			<stop  offset="0" style="stop-color:#ECECED"/>
			<stop  offset="1" style="stop-color:#B2B2B3"/>
		</linearGradient>
		<path style="fill:url(#SVGID_31_);" d="M34.2638893,30.1240902H31.958334c-0.5522861,0-1-0.4477139-1-1v-1.7554531
			c0-0.5522861,0.4477139-1,1-1h2.3055553c0.5522842,0,1,0.4477139,1,1v1.7554531
			C35.2638893,29.6763763,34.8161736,30.1240902,34.2638893,30.1240902z"/>
		<linearGradient id="SVGID_32_" gradientUnits="userSpaceOnUse" x1="33.1111107" y1="26.3686333" x2="33.1111107" y2="30.1240959">
			<stop  offset="0" style="stop-color:#FFFFFF"/>
			<stop  offset="1" style="stop-color:#868686"/>
		</linearGradient>
		<path style="fill:url(#SVGID_32_);" d="M34.2638893,27.1186333c0.1378517,0,0.25,0.1121521,0.25,0.25v1.7554626
			c0,0.1378479-0.1121483,0.25-0.25,0.25h-2.3055592c-0.1378498,0-0.25-0.1121521-0.25-0.25v-1.7554626
			c0-0.1378479,0.1121502-0.25,0.25-0.25H34.2638893 M34.2638893,26.3686333h-2.3055592c-0.5522785,0-1,0.4477196-1,1v1.7554626
			c0,0.5522804,0.4477215,1,1,1h2.3055592c0.5522804,0,1-0.4477196,1-1v-1.7554626
			C35.2638893,26.8163528,34.8161697,26.3686333,34.2638893,26.3686333L34.2638893,26.3686333z"/>
		<path style="fill:#3E3A39;" d="M34.2636719,30.3740234h-2.3051758c-0.6894531,0-1.25-0.5605469-1.25-1.25v-1.7553711
			c0-0.6894531,0.5605469-1.25,1.25-1.25h2.3051758c0.6894531,0,1.25,0.5605469,1.25,1.25v1.7553711
			C35.5136719,29.8134766,34.953125,30.3740234,34.2636719,30.3740234z M31.9584961,26.6186523
			c-0.4135742,0-0.75,0.3364258-0.75,0.75v1.7553711c0,0.4135742,0.3364258,0.75,0.75,0.75h2.3051758
			c0.4130859,0,0.75-0.3364258,0.75-0.75v-1.7553711c0-0.4135742-0.3369141-0.75-0.75-0.75H31.9584961z"/>
	</g>
	<g>
		<linearGradient id="SVGID_33_" gradientUnits="userSpaceOnUse" x1="7.2777777" y1="31.3759098" x2="7.2777777" y2="35.1313629">
			<stop  offset="0" style="stop-color:#ECECED"/>
			<stop  offset="1" style="stop-color:#B2B2B3"/>
		</linearGradient>
		<path style="fill:url(#SVGID_33_);" d="M8.4305553,35.1313629H6.125c-0.5522847,0-1-0.4477158-1-1v-1.755455
			c0-0.5522842,0.4477153-0.9999981,1-0.9999981h2.3055553c0.5522852,0,1,0.4477139,1,0.9999981v1.755455
			C9.4305553,34.6836472,8.9828405,35.1313629,8.4305553,35.1313629z"/>
		<linearGradient id="SVGID_34_" gradientUnits="userSpaceOnUse" x1="7.2777772" y1="31.3759041" x2="7.2777777" y2="35.1313667">
			<stop  offset="0" style="stop-color:#FFFFFF"/>
			<stop  offset="1" style="stop-color:#868686"/>
		</linearGradient>
		<path style="fill:url(#SVGID_34_);" d="M8.4305573,32.1259079c0.1378508,0,0.25,0.1121483,0.25,0.25v1.755455
			c0,0.1378517-0.1121492,0.25-0.25,0.25H6.1249976c-0.1378498,0-0.25-0.1121483-0.25-0.25v-1.755455
			c0-0.1378517,0.1121502-0.25,0.25-0.25H8.4305573 M8.4305573,31.3759041H6.1249976c-0.5522799,0-1,0.4477196-1,1.0000038v1.755455
			c0,0.5522842,0.4477201,1,1,1h2.3055596c0.5522804,0,1-0.4477158,1-1v-1.755455
			C9.4305573,31.8236237,8.9828377,31.3759041,8.4305573,31.3759041L8.4305573,31.3759041z"/>
		<path style="fill:#3E3A39;" d="M8.4306641,35.3818359H6.125c-0.6894531,0-1.25-0.5605469-1.25-1.25v-1.7558594
			c0-0.6894531,0.5605469-1.25,1.25-1.25h2.3056641c0.6894531,0,1.25,0.5605469,1.25,1.25v1.7558594
			C9.6806641,34.8212891,9.1201172,35.3818359,8.4306641,35.3818359z M6.125,31.6259766c-0.4135742,0-0.75,0.3364258-0.75,0.75
			v1.7558594c0,0.4130859,0.3364258,0.75,0.75,0.75h2.3056641c0.4135742,0,0.75-0.3369141,0.75-0.75v-1.7558594
			c0-0.4135742-0.3364258-0.75-0.75-0.75H6.125z"/>
	</g>
	<g>
		<linearGradient id="SVGID_35_" gradientUnits="userSpaceOnUse" x1="13.0185184" y1="31.3759098" x2="13.0185184" y2="35.1313629">
			<stop  offset="0" style="stop-color:#ECECED"/>
			<stop  offset="1" style="stop-color:#B2B2B3"/>
		</linearGradient>
		<path style="fill:url(#SVGID_35_);" d="M14.1712961,35.1313629h-2.3055553c-0.5522852,0-1-0.4477158-1-1v-1.755455
			c0-0.5522842,0.4477148-0.9999981,1-0.9999981h2.3055553c0.5522852,0,1,0.4477139,1,0.9999981v1.755455
			C15.1712961,34.6836472,14.7235813,35.1313629,14.1712961,35.1313629z"/>
		<linearGradient id="SVGID_36_" gradientUnits="userSpaceOnUse" x1="13.0185184" y1="31.3759041" x2="13.0185184" y2="35.1313667">
			<stop  offset="0" style="stop-color:#FFFFFF"/>
			<stop  offset="1" style="stop-color:#868686"/>
		</linearGradient>
		<path style="fill:url(#SVGID_36_);" d="M14.171298,32.1259079c0.1378508,0,0.25,0.1121483,0.25,0.25v1.755455
			c0,0.1378517-0.1121492,0.25-0.25,0.25h-2.3055592c-0.1378508,0-0.25-0.1121483-0.25-0.25v-1.755455
			c0-0.1378517,0.1121492-0.25,0.25-0.25H14.171298 M14.171298,31.3759041h-2.3055592c-0.5522804,0-1,0.4477196-1,1.0000038
			v1.755455c0,0.5522842,0.4477196,1,1,1h2.3055592c0.5522804,0,1-0.4477158,1-1v-1.755455
			C15.171298,31.8236237,14.7235785,31.3759041,14.171298,31.3759041L14.171298,31.3759041z"/>
		<path style="fill:#3E3A39;" d="M14.1713867,35.3818359h-2.3056641c-0.6894531,0-1.25-0.5605469-1.25-1.25v-1.7558594
			c0-0.6894531,0.5605469-1.25,1.25-1.25h2.3056641c0.6894531,0,1.25,0.5605469,1.25,1.25v1.7558594
			C15.4213867,34.8212891,14.8608398,35.3818359,14.1713867,35.3818359z M11.8657227,31.6259766
			c-0.4135742,0-0.75,0.3364258-0.75,0.75v1.7558594c0,0.4130859,0.3364258,0.75,0.75,0.75h2.3056641
			c0.4135742,0,0.75-0.3369141,0.75-0.75v-1.7558594c0-0.4135742-0.3364258-0.75-0.75-0.75H11.8657227z"/>
	</g>
	<g>
		<linearGradient id="SVGID_37_" gradientUnits="userSpaceOnUse" x1="18.7592602" y1="31.3759098" x2="18.7592602" y2="35.1313629">
			<stop  offset="0" style="stop-color:#ECECED"/>
			<stop  offset="1" style="stop-color:#B2B2B3"/>
		</linearGradient>
		<path style="fill:url(#SVGID_37_);" d="M19.9120369,35.1313629h-2.3055553c-0.5522842,0-1-0.4477158-1-1v-1.755455
			c0-0.5522842,0.4477158-0.9999981,1-0.9999981h2.3055553c0.5522842,0,1,0.4477139,1,0.9999981v1.755455
			C20.9120369,34.6836472,20.4643211,35.1313629,19.9120369,35.1313629z"/>
		<linearGradient id="SVGID_38_" gradientUnits="userSpaceOnUse" x1="18.7592583" y1="31.3759041" x2="18.7592583" y2="35.1313667">
			<stop  offset="0" style="stop-color:#FFFFFF"/>
			<stop  offset="1" style="stop-color:#868686"/>
		</linearGradient>
		<path style="fill:url(#SVGID_38_);" d="M19.9120388,32.1259079c0.1378498,0,0.25,0.1121483,0.25,0.25v1.755455
			c0,0.1378517-0.1121502,0.25-0.25,0.25h-2.3055611c-0.1378498,0-0.25-0.1121483-0.25-0.25v-1.755455
			c0-0.1378517,0.1121502-0.25,0.25-0.25H19.9120388 M19.9120388,31.3759041h-2.3055611c-0.5522785,0-1,0.4477196-1,1.0000038
			v1.755455c0,0.5522842,0.4477215,1,1,1h2.3055611c0.5522785,0,1-0.4477158,1-1v-1.755455
			C20.9120388,31.8236237,20.4643173,31.3759041,19.9120388,31.3759041L19.9120388,31.3759041z"/>
		<path style="fill:#3E3A39;" d="M19.9121094,35.3818359h-2.3056641c-0.6894531,0-1.25-0.5605469-1.25-1.25v-1.7558594
			c0-0.6894531,0.5605469-1.25,1.25-1.25h2.3056641c0.6894531,0,1.25,0.5605469,1.25,1.25v1.7558594
			C21.1621094,34.8212891,20.6015625,35.3818359,19.9121094,35.3818359z M17.6064453,31.6259766
			c-0.4135742,0-0.75,0.3364258-0.75,0.75v1.7558594c0,0.4130859,0.3364258,0.75,0.75,0.75h2.3056641
			c0.4135742,0,0.75-0.3369141,0.75-0.75v-1.7558594c0-0.4135742-0.3364258-0.75-0.75-0.75H17.6064453z"/>
	</g>
	<g>
		<linearGradient id="SVGID_39_" gradientUnits="userSpaceOnUse" x1="24.5" y1="31.3759098" x2="24.5" y2="35.1313629">
			<stop  offset="0" style="stop-color:#ECECED"/>
			<stop  offset="1" style="stop-color:#B2B2B3"/>
		</linearGradient>
		<path style="fill:url(#SVGID_39_);" d="M25.6527786,35.1313629h-2.3055573c-0.5522842,0-1-0.4477158-1-1v-1.755455
			c0-0.5522842,0.4477158-0.9999981,1-0.9999981h2.3055573c0.5522842,0,1,0.4477139,1,0.9999981v1.755455
			C26.6527786,34.6836472,26.2050629,35.1313629,25.6527786,35.1313629z"/>
		<linearGradient id="SVGID_40_" gradientUnits="userSpaceOnUse" x1="24.5" y1="31.3759041" x2="24.5" y2="35.1313667">
			<stop  offset="0" style="stop-color:#FFFFFF"/>
			<stop  offset="1" style="stop-color:#868686"/>
		</linearGradient>
		<path style="fill:url(#SVGID_40_);" d="M25.6527805,32.1259079c0.1378498,0,0.25,0.1121483,0.25,0.25v1.755455
			c0,0.1378517-0.1121502,0.25-0.25,0.25h-2.3055611c-0.1378498,0-0.25-0.1121483-0.25-0.25v-1.755455
			c0-0.1378517,0.1121502-0.25,0.25-0.25H25.6527805 M25.6527805,31.3759041h-2.3055611c-0.5522785,0-1,0.4477196-1,1.0000038
			v1.755455c0,0.5522842,0.4477215,1,1,1h2.3055611c0.5522785,0,1-0.4477158,1-1v-1.755455
			C26.6527805,31.8236237,26.2050591,31.3759041,25.6527805,31.3759041L25.6527805,31.3759041z"/>
		<path style="fill:#3E3A39;" d="M25.652832,35.3818359H23.347168c-0.6894531,0-1.25-0.5605469-1.25-1.25v-1.7558594
			c0-0.6894531,0.5605469-1.25,1.25-1.25h2.3056641c0.6894531,0,1.25,0.5605469,1.25,1.25v1.7558594
			C26.902832,34.8212891,26.3422852,35.3818359,25.652832,35.3818359z M23.347168,31.6259766c-0.4135742,0-0.75,0.3364258-0.75,0.75
			v1.7558594c0,0.4130859,0.3364258,0.75,0.75,0.75h2.3056641c0.4135742,0,0.75-0.3369141,0.75-0.75v-1.7558594
			c0-0.4135742-0.3364258-0.75-0.75-0.75H23.347168z"/>
	</g>
	<g>
		<linearGradient id="SVGID_41_" gradientUnits="userSpaceOnUse" x1="30.2407398" y1="31.3759098" x2="30.2407398" y2="35.1313629">
			<stop  offset="0" style="stop-color:#ECECED"/>
			<stop  offset="1" style="stop-color:#B2B2B3"/>
		</linearGradient>
		<path style="fill:url(#SVGID_41_);" d="M31.3935184,35.1313629h-2.3055553c-0.5522842,0-1-0.4477158-1-1v-1.755455
			c0-0.5522842,0.4477158-0.9999981,1-0.9999981h2.3055553c0.5522842,0,1.0000019,0.4477139,1.0000019,0.9999981v1.755455
			C32.3935204,34.6836472,31.9458027,35.1313629,31.3935184,35.1313629z"/>
		<linearGradient id="SVGID_42_" gradientUnits="userSpaceOnUse" x1="30.2407398" y1="31.3759041" x2="30.2407417" y2="35.1313667">
			<stop  offset="0" style="stop-color:#FFFFFF"/>
			<stop  offset="1" style="stop-color:#868686"/>
		</linearGradient>
		<path style="fill:url(#SVGID_42_);" d="M31.3935223,32.1259079c0.1378498,0,0.25,0.1121483,0.25,0.25v1.755455
			c0,0.1378517-0.1121502,0.25-0.25,0.25h-2.3055611c-0.1378498,0-0.25-0.1121483-0.25-0.25v-1.755455
			c0-0.1378517,0.1121502-0.25,0.25-0.25H31.3935223 M31.3935223,31.3759041h-2.3055611c-0.5522785,0-1,0.4477196-1,1.0000038
			v1.755455c0,0.5522842,0.4477215,1,1,1h2.3055611c0.5522785,0,0.9999981-0.4477158,0.9999981-1v-1.755455
			C32.3935204,31.8236237,31.9458008,31.3759041,31.3935223,31.3759041L31.3935223,31.3759041z"/>
		<path style="fill:#3E3A39;" d="M31.3935547,35.3818359h-2.3056641c-0.6894531,0-1.25-0.5605469-1.25-1.25v-1.7558594
			c0-0.6894531,0.5605469-1.25,1.25-1.25h2.3056641c0.6894531,0,1.25,0.5605469,1.25,1.25v1.7558594
			C32.6435547,34.8212891,32.0830078,35.3818359,31.3935547,35.3818359z M29.0878906,31.6259766
			c-0.4135742,0-0.75,0.3364258-0.75,0.75v1.7558594c0,0.4130859,0.3364258,0.75,0.75,0.75h2.3056641
			c0.4135742,0,0.75-0.3369141,0.75-0.75v-1.7558594c0-0.4135742-0.3364258-0.75-0.75-0.75H29.0878906z"/>
	</g>
	<g>
		<linearGradient id="SVGID_43_" gradientUnits="userSpaceOnUse" x1="35.9814796" y1="31.3759098" x2="35.9814796" y2="35.1313629">
			<stop  offset="0" style="stop-color:#ECECED"/>
			<stop  offset="1" style="stop-color:#B2B2B3"/>
		</linearGradient>
		<path style="fill:url(#SVGID_43_);" d="M37.1342583,35.1313629h-2.3055534c-0.5522842,0-1-0.4477158-1-1v-1.755455
			c0-0.5522842,0.4477158-0.9999981,1-0.9999981h2.3055534c0.5522842,0,1,0.4477139,1,0.9999981v1.755455
			C38.1342583,34.6836472,37.6865425,35.1313629,37.1342583,35.1313629z"/>
		<linearGradient id="SVGID_44_" gradientUnits="userSpaceOnUse" x1="35.9814796" y1="31.3759041" x2="35.9814796" y2="35.1313667">
			<stop  offset="0" style="stop-color:#FFFFFF"/>
			<stop  offset="1" style="stop-color:#868686"/>
		</linearGradient>
		<path style="fill:url(#SVGID_44_);" d="M37.1342545,32.1259079c0.1378479,0,0.25,0.1121483,0.25,0.25v1.755455
			c0,0.1378517-0.1121521,0.25-0.25,0.25h-2.3055496c-0.1378517,0-0.25-0.1121483-0.25-0.25v-1.755455
			c0-0.1378517,0.1121483-0.25,0.25-0.25H37.1342545 M37.1342545,31.3759041h-2.3055496c-0.5522804,0-1,0.4477196-1,1.0000038
			v1.755455c0,0.5522842,0.4477196,1,1,1h2.3055496c0.5522881,0,1-0.4477158,1-1v-1.755455
			C38.1342545,31.8236237,37.6865425,31.3759041,37.1342545,31.3759041L37.1342545,31.3759041z"/>
		<path style="fill:#3E3A39;" d="M37.1337891,35.3818359h-2.3046875c-0.6894531,0-1.25-0.5605469-1.25-1.25v-1.7558594
			c0-0.6894531,0.5605469-1.25,1.25-1.25h2.3046875c0.6894531,0,1.25,0.5605469,1.25,1.25v1.7558594
			C38.3837891,34.8212891,37.8232422,35.3818359,37.1337891,35.3818359z M34.8291016,31.6259766
			c-0.4130859,0-0.75,0.3364258-0.75,0.75v1.7558594c0,0.4130859,0.3369141,0.75,0.75,0.75h2.3046875
			c0.4130859,0,0.75-0.3369141,0.75-0.75v-1.7558594c0-0.4135742-0.3369141-0.75-0.75-0.75H34.8291016z"/>
	</g>
	<g>
		<linearGradient id="SVGID_45_" gradientUnits="userSpaceOnUse" x1="41.7222214" y1="31.3759098" x2="41.7222214" y2="35.1313629">
			<stop  offset="0" style="stop-color:#ECECED"/>
			<stop  offset="1" style="stop-color:#B2B2B3"/>
		</linearGradient>
		<path style="fill:url(#SVGID_45_);" d="M42.875,35.1313629h-2.3055573c-0.5522842,0-1-0.4477158-1-1v-1.755455
			c0-0.5522842,0.4477158-0.9999981,1-0.9999981H42.875c0.5522842,0,1,0.4477139,1,0.9999981v1.755455
			C43.875,34.6836472,43.4272842,35.1313629,42.875,35.1313629z"/>
		<linearGradient id="SVGID_46_" gradientUnits="userSpaceOnUse" x1="41.7222214" y1="31.3759041" x2="41.7222214" y2="35.1313667">
			<stop  offset="0" style="stop-color:#FFFFFF"/>
			<stop  offset="1" style="stop-color:#868686"/>
		</linearGradient>
		<path style="fill:url(#SVGID_46_);" d="M42.875,32.1259079c0.1378517,0,0.25,0.1121483,0.25,0.25v1.755455
			c0,0.1378517-0.1121483,0.25-0.25,0.25h-2.3055573c-0.1378517,0-0.25-0.1121483-0.25-0.25v-1.755455
			c0-0.1378517,0.1121483-0.25,0.25-0.25H42.875 M42.875,31.3759041h-2.3055573c-0.5522804,0-1,0.4477196-1,1.0000038v1.755455
			c0,0.5522842,0.4477196,1,1,1H42.875c0.5522804,0,1-0.4477158,1-1v-1.755455
			C43.875,31.8236237,43.4272804,31.3759041,42.875,31.3759041L42.875,31.3759041z"/>
		<path style="fill:#3E3A39;" d="M42.875,35.3818359h-2.3056641c-0.6894531,0-1.25-0.5605469-1.25-1.25v-1.7558594
			c0-0.6894531,0.5605469-1.25,1.25-1.25H42.875c0.6894531,0,1.25,0.5605469,1.25,1.25v1.7558594
			C44.125,34.8212891,43.5644531,35.3818359,42.875,35.3818359z M40.5693359,31.6259766c-0.4130859,0-0.75,0.3364258-0.75,0.75
			v1.7558594c0,0.4130859,0.3369141,0.75,0.75,0.75H42.875c0.4130859,0,0.75-0.3369141,0.75-0.75v-1.7558594
			c0-0.4135742-0.3369141-0.75-0.75-0.75H40.5693359z"/>
	</g>
	<g>
		<linearGradient id="SVGID_47_" gradientUnits="userSpaceOnUse" x1="41.7222214" y1="36.3831825" x2="41.7222214" y2="40.1386375">
			<stop  offset="0" style="stop-color:#ECECED"/>
			<stop  offset="1" style="stop-color:#B2B2B3"/>
		</linearGradient>
		<path style="fill:url(#SVGID_47_);" d="M40.5694427,40.1386375H42.875c0.5522842,0,1-0.4477158,1-1v-1.755455
			c0-0.5522842-0.4477158-1-1-1h-2.3055573c-0.5522842,0-1,0.4477158-1,1v1.755455
			C39.5694427,39.6909218,40.0171585,40.1386375,40.5694427,40.1386375z"/>
		<linearGradient id="SVGID_48_" gradientUnits="userSpaceOnUse" x1="41.7222214" y1="36.3831787" x2="41.7222214" y2="40.1386414">
			<stop  offset="0" style="stop-color:#FFFFFF"/>
			<stop  offset="1" style="stop-color:#868686"/>
		</linearGradient>
		<path style="fill:url(#SVGID_48_);" d="M42.875,37.1331787c0.1378517,0,0.25,0.1121521,0.25,0.25v1.7554626
			c0,0.1378479-0.1121483,0.25-0.25,0.25h-2.3055573c-0.1378517,0-0.25-0.1121521-0.25-0.25v-1.7554626
			c0-0.1378479,0.1121483-0.25,0.25-0.25H42.875 M42.875,36.3831787h-2.3055573c-0.5522804,0-1,0.4477234-1,1v1.7554626
			c0,0.5522766,0.4477196,1,1,1H42.875c0.5522804,0,1-0.4477234,1-1v-1.7554626
			C43.875,36.8309021,43.4272804,36.3831787,42.875,36.3831787L42.875,36.3831787z"/>
		<path style="fill:#3E3A39;" d="M42.875,40.3886719h-2.3056641c-0.6894531,0-1.25-0.5605469-1.25-1.25v-1.7558594
			c0-0.6894531,0.5605469-1.25,1.25-1.25H42.875c0.6894531,0,1.25,0.5605469,1.25,1.25v1.7558594
			C44.125,39.828125,43.5644531,40.3886719,42.875,40.3886719z M40.5693359,36.6328125c-0.4130859,0-0.75,0.3369141-0.75,0.75
			v1.7558594c0,0.4130859,0.3369141,0.75,0.75,0.75H42.875c0.4130859,0,0.75-0.3369141,0.75-0.75v-1.7558594
			c0-0.4130859-0.3369141-0.75-0.75-0.75H40.5693359z"/>
	</g>
	<g>
		<linearGradient id="SVGID_49_" gradientUnits="userSpaceOnUse" x1="24.5" y1="36.3831825" x2="24.5" y2="40.1386375">
			<stop  offset="0" style="stop-color:#ECECED"/>
			<stop  offset="1" style="stop-color:#B2B2B3"/>
		</linearGradient>
		<path style="fill:url(#SVGID_49_);" d="M11.8657408,40.1386375h25.2685165c0.5522842,0,1-0.4477158,1-1v-1.755455
			c0-0.5522842-0.4477158-1-1-1H11.8657408c-0.5522852,0-1,0.4477158-1,1v1.755455
			C10.8657408,39.6909218,11.3134556,40.1386375,11.8657408,40.1386375z"/>
		<linearGradient id="SVGID_50_" gradientUnits="userSpaceOnUse" x1="24.4999981" y1="36.3831787" x2="24.5" y2="40.1386414">
			<stop  offset="0" style="stop-color:#FFFFFF"/>
			<stop  offset="1" style="stop-color:#868686"/>
		</linearGradient>
		<path style="fill:url(#SVGID_50_);" d="M37.1342583,37.1331787c0.1378517,0,0.25,0.1121521,0.25,0.25v1.7554626
			c0,0.1378479-0.1121483,0.25-0.25,0.25H11.8657398c-0.1378498,0-0.25-0.1121521-0.25-0.25v-1.7554626
			c0-0.1378479,0.1121502-0.25,0.25-0.25H37.1342583 M37.1342583,36.3831787H11.8657398c-0.5522795,0-1,0.4477234-1,1v1.7554626
			c0,0.5522766,0.4477205,1,1,1h25.2685184c0.5522804,0,1-0.4477234,1-1v-1.7554626
			C38.1342583,36.8309021,37.6865387,36.3831787,37.1342583,36.3831787L37.1342583,36.3831787z"/>
		<path style="fill:#3E3A39;" d="M37.1337891,40.3886719H11.8657227c-0.6894531,0-1.25-0.5605469-1.25-1.25v-1.7558594
			c0-0.6894531,0.5605469-1.25,1.25-1.25h25.2680664c0.6894531,0,1.25,0.5605469,1.25,1.25v1.7558594
			C38.3837891,39.828125,37.8232422,40.3886719,37.1337891,40.3886719z M11.8657227,36.6328125
			c-0.4135742,0-0.75,0.3369141-0.75,0.75v1.7558594c0,0.4130859,0.3364258,0.75,0.75,0.75h25.2680664
			c0.4130859,0,0.75-0.3369141,0.75-0.75v-1.7558594c0-0.4130859-0.3369141-0.75-0.75-0.75H11.8657227z"/>
	</g>
	<g>
		<linearGradient id="SVGID_51_" gradientUnits="userSpaceOnUse" x1="7.2777777" y1="36.3831825" x2="7.2777777" y2="40.1386375">
			<stop  offset="0" style="stop-color:#ECECED"/>
			<stop  offset="1" style="stop-color:#B2B2B3"/>
		</linearGradient>
		<path style="fill:url(#SVGID_51_);" d="M6.125,40.1386375h2.3055553c0.5522852,0,1-0.4477158,1-1v-1.755455
			c0-0.5522842-0.4477148-1-1-1H6.125c-0.5522847,0-1,0.4477158-1,1v1.755455
			C5.125,39.6909218,5.5727153,40.1386375,6.125,40.1386375z"/>
		<linearGradient id="SVGID_52_" gradientUnits="userSpaceOnUse" x1="7.2777772" y1="36.3831787" x2="7.2777777" y2="40.1386414">
			<stop  offset="0" style="stop-color:#FFFFFF"/>
			<stop  offset="1" style="stop-color:#868686"/>
		</linearGradient>
		<path style="fill:url(#SVGID_52_);" d="M8.4305573,37.1331787c0.1378508,0,0.25,0.1121521,0.25,0.25v1.7554626
			c0,0.1378479-0.1121492,0.25-0.25,0.25H6.1249976c-0.1378498,0-0.25-0.1121521-0.25-0.25v-1.7554626
			c0-0.1378479,0.1121502-0.25,0.25-0.25H8.4305573 M8.4305573,36.3831787H6.1249976c-0.5522799,0-1,0.4477234-1,1v1.7554626
			c0,0.5522766,0.4477201,1,1,1h2.3055596c0.5522804,0,1-0.4477234,1-1v-1.7554626
			C9.4305573,36.8309021,8.9828377,36.3831787,8.4305573,36.3831787L8.4305573,36.3831787z"/>
		<path style="fill:#3E3A39;" d="M8.4306641,40.3886719H6.125c-0.6894531,0-1.25-0.5605469-1.25-1.25v-1.7558594
			c0-0.6894531,0.5605469-1.25,1.25-1.25h2.3056641c0.6894531,0,1.25,0.5605469,1.25,1.25v1.7558594
			C9.6806641,39.828125,9.1201172,40.3886719,8.4306641,40.3886719z M6.125,36.6328125c-0.4135742,0-0.75,0.3369141-0.75,0.75
			v1.7558594c0,0.4130859,0.3364258,0.75,0.75,0.75h2.3056641c0.4135742,0,0.75-0.3369141,0.75-0.75v-1.7558594
			c0-0.4130859-0.3364258-0.75-0.75-0.75H6.125z"/>
	</g>
</g>
<g>
</g>
<g>
</g>
<g>
</g>
<g>
</g>
<g>
</g>
<g>
</g>
</svg>
