<?xml version="1.0" encoding="utf-8"?>
<!-- Generator: Adobe Illustrator 15.0.2, SVG Export Plug-In . SVG Version: 6.00 Build 0)  -->
<!DOCTYPE svg PUBLIC "-//W3C//DTD SVG 1.1//EN" "http://www.w3.org/Graphics/SVG/1.1/DTD/svg11.dtd">
<svg version="1.1" id="レイヤー_1" xmlns="http://www.w3.org/2000/svg" xmlns:xlink="http://www.w3.org/1999/xlink" x="0px"
	 y="0px" width="64px" height="64px" viewBox="0 0 64 64" enable-background="new 0 0 64 64" xml:space="preserve">
<g>
	<g>
		
			<linearGradient id="SVGID_1_" gradientUnits="userSpaceOnUse" x1="305.8965" y1="-304.0601" x2="305.8965" y2="-356.8203" gradientTransform="matrix(1 0 0 -1 -274 -298)">
			<stop  offset="0" style="stop-color:#9FE1FF"/>
			<stop  offset="0.2621" style="stop-color:#60A1CE"/>
			<stop  offset="0.5708" style="stop-color:#1B5B97"/>
			<stop  offset="0.7152" style="stop-color:#004082"/>
			<stop  offset="0.7694" style="stop-color:#004487"/>
			<stop  offset="0.8311" style="stop-color:#005094"/>
			<stop  offset="0.8963" style="stop-color:#0064AB"/>
			<stop  offset="0.9636" style="stop-color:#0080CB"/>
			<stop  offset="1" style="stop-color:#0092DF"/>
		</linearGradient>
		<path fill="url(#SVGID_1_)" d="M58.314,50.82c0,4.4-3.601,8-8,8H13.48c-4.4,0-8-3.6-8-8V14.06c0-4.4,3.6-8,8-8h36.834
			c4.399,0,8,3.6,8,8V50.82z"/>
	</g>
	<g>
		<path fill="#FFFFFF" d="M35.986,30.767c3.656,0.881,6.607,3.877,6.607,8.282c0,5.639-4.668,10.176-12.598,10.176
			c-3.656,0-6.872-0.881-8.59-1.938l1.63-5.858c1.277,0.793,3.92,1.718,6.299,1.718c3.436,0,5.374-1.982,5.374-4.493
			c0-3.348-2.995-4.846-6.21-4.846h-2.203v-5.419h1.982c2.467,0,5.505-1.189,5.505-4.009c0-2.026-1.452-3.48-4.228-3.48
			c-2.159,0-4.317,0.881-5.595,1.63l-1.498-5.551c1.762-1.101,5.33-2.203,8.987-2.203c6.606,0,10.132,3.789,10.132,8.282
			c0,3.437-2.07,6.211-5.596,7.621V30.767z"/>
	</g>
	<g opacity="0.22">
		<path fill="#FFFFFF" d="M5.48,26.813c7.381,2.383,16.52,6.126,26.417,6.126c9.898,0,19.037-3.744,26.417-6.126
			c0,0,2.104-13.836-1.918-18.27c-10.805-5.36-37.412-3.354-48.25-0.578C3.723,12.057,5.48,26.813,5.48,26.813z"/>
	</g>
	<g>
		<path fill="none" stroke="#057CDD" stroke-width="2" stroke-miterlimit="10" d="M58.314,50.82c0,4.4-3.601,8-8,8H13.48
			c-4.4,0-8-3.6-8-8V14.06c0-4.4,3.6-8,8-8h36.834c4.399,0,8,3.6,8,8V50.82z"/>
	</g>
</g>
</svg>
