<?xml version="1.0" encoding="utf-8"?>
<!-- Generator: Adobe Illustrator 15.0.2, SVG Export Plug-In . SVG Version: 6.00 Build 0)  -->
<!DOCTYPE svg PUBLIC "-//W3C//DTD SVG 1.1//EN" "http://www.w3.org/Graphics/SVG/1.1/DTD/svg11.dtd">
<svg version="1.1" id="レイヤー_1" xmlns="http://www.w3.org/2000/svg" xmlns:xlink="http://www.w3.org/1999/xlink" x="0px"
	 y="0px" width="64px" height="64px" viewBox="0 0 64 64" enable-background="new 0 0 64 64" xml:space="preserve">
<g>
	<linearGradient id="SVGID_1_" gradientUnits="userSpaceOnUse" x1="32.0005" y1="61.5605" x2="32.0005" y2="2.4395">
		<stop  offset="0" style="stop-color:#E20A1F"/>
		<stop  offset="0.2139" style="stop-color:#E00A1F"/>
		<stop  offset="0.291" style="stop-color:#D90A1E"/>
		<stop  offset="0.3459" style="stop-color:#CE091C"/>
		<stop  offset="0.39" style="stop-color:#BD0819"/>
		<stop  offset="0.4187" style="stop-color:#AD0717"/>
		<stop  offset="0.4368" style="stop-color:#B10718"/>
		<stop  offset="0.5438" style="stop-color:#C7081B"/>
		<stop  offset="0.662" style="stop-color:#D6091D"/>
		<stop  offset="0.7993" style="stop-color:#DF0A1F"/>
		<stop  offset="1" style="stop-color:#E20A1F"/>
	</linearGradient>
	<path fill="url(#SVGID_1_)" d="M1.537,2.873c4.292-0.142,15.83-0.352,18.01-0.423c2.182-0.07,20.826,0.211,23.357,0.281
		c2.534,0.071,18.363,0.985,19.559,1.197c-0.773,4.361-0.773,9.568-1.126,16.111c-0.352,6.543-1.407,16.181-1.478,19.628
		c-2.813,0-14.351,0-17.868-0.914c0.352,6.051,0.421,14.001,0.421,15.971c1.267,0.352,5.417,0.774,5.699,0.774
		c0.282,1.898-3.095,5.064-4.08,5.556c-0.985,0.492-2.251,0.423-5.487,0.492c-3.237,0.073-14.775-0.139-16.041-0.28
		c-1.267-0.141-1.407,0.492-3.658-0.633c-2.252-1.126-5.417-2.532-6.051-4.714c2.884,0.071,8.021-1.406,8.513-2.321
		c0.141-1.407,0.07-14.142,0.352-15.758C18.492,38.4,5.337,38.825,2.804,38.682c0.351-3.939-0.211-16.321-0.281-17.939
		S2.311,7.445,1.537,2.873z"/>
	<path fill="#FFFFFF" d="M2.399,12.722c1.829-0.493,12.733-1.618,14.703-0.282s2.744,2.744,4.222,3.658
		c1.478,0.915,6.191-0.703,7.949,0c1.76,0.704,4.593,0.74,5.909,4.362c0.282,0.774,2.745,1.83,1.83,4.503
		c-0.914,2.673,1.407,3.025,2.392,3.588c0.985,0.563,1.688,1.618,2.323,1.618c0.632,0,0.35-3.377,0.562-4.08
		c0.211-0.704,3.379-1.056,5.206-1.056c1.83,0,3.447-2.533,4.222-5.276c0.772-2.744,3.869-4.011,5.84-4.081
		c1.97-0.07,3.097,0.422,3.097,0.422l0.842,0.563l-0.842,11.116c-1.972,0.774-3.871,0.422-4.434,0.141
		c-0.563-0.281-1.759,3.377-1.9,4.221c-0.14,0.845-1.755,1.408-5.486,1.408c-1.408,0-4.715,0.703-6.966,0.354
		c0.07,1.756,0.141,3.797,0.141,3.797l0.213,11.327c-3.519-1.335-3.591-1.97-6.545-0.351c-2.954,1.616-3.939,4.994-10.482,4.643
		c-1.97,0-3.8,0.14-3.8,0.14c0-2.885,0.142-7.879,0.142-7.879c3.025-1.688,7.668-5.206,8.442-5.768
		c0.774-0.563,0.704-2.041-2.674-3.379c-3.376-1.335-5.135-2.181-5.347-2.462c0.141-2.603-0.281-2.252-0.281-2.252
		s-0.703,0.563-3.729,0.634c-3.025,0.07-5.98,0-6.754-0.071c-0.774-0.069-1.337-0.421-1.407-2.813s-3.869-3.377-6.894-4.081
		C2.68,19.827,2.539,13.777,2.399,12.722z"/>
	<path fill="#FF76DF" stroke="#FF76DF" stroke-width="1.0821" stroke-miterlimit="10" stroke-opacity="0.5" d="M3.031,15.19
		c0,0,0.3,8.208,0.3,8.841c1.195,0,5.61,0.581,8.003,2.761c2.392,2.181,9.075,4.081,10.553,4.222
		c1.478,0.14,4.503,3.871,6.262,3.871s5.839-0.984,6.05,3.166c0.211,4.149-2.673,4.29-4.08,4.643
		c-1.407,0.351-5.206,3.903-8.091,4.396l-0.141,5.066c1.759,0.353,4.714,0.177,7.106-1.935c2.392-2.111,7-5.171,12.628-5.522
		c0-1.478,0-6.263-0.14-6.755c-2.041-0.421-4.539-2.779-7.423-5.664c-2.885-2.884-4.081-7.808-9.076-8.02
		c-4.995-0.211-12.102-0.281-12.733-0.774c-0.634-0.492-3.236-1.336-1.83-2.884c1.408-1.547,2.259-2.945-2.603-4.151
		C3.631,15.413,3.031,15.19,3.031,15.19z"/>
	<path fill="#00930E" d="M36.38,22.501c0-2.955,0-3.096,0.703-5.206c0.705-2.111,1.547-7.176,1.829-3.518
		c0.282,3.659,0.846,1.97-0.139,4.222c-0.985,2.251-1.831,2.251-0.144,3.236c1.689,0.985,2.252,2.954,0.564,2.392
		C37.506,23.063,36.38,22.501,36.38,22.501z"/>
	<path fill="#00930E" d="M23.294,20.39c1.267-1.829,2.532-1.266,1.97-0.703C24.701,20.25,23.294,20.39,23.294,20.39z"/>
	<path fill="#00930E" d="M24.209,17.577c0.13-0.846,1.406-1.267,1.336-0.353C25.476,18.139,24.067,18.491,24.209,17.577z"/>
	<path fill="#00930E" d="M12.601,18.772c-1.024,0-0.773-0.282-0.422-0.633s-0.704-0.493-0.563-1.336
		c0.142-0.845,0.281-1.056,0.844-0.211c0.563,0.844,1.126,0,1.196,0.844C13.726,18.28,12.952,18.772,12.601,18.772z"/>
	<path fill="#00930E" d="M9.856,22.642c-0.844,0-1.829,0.141-1.688-1.126c0.142-1.266,0.915-1.618,1.407-1.477
		c0.492,0.141,0.563,0.07,0.773,0.563c0.211,0.492,0.423,1.97,2.322,2.814s2.814,1.056,2.814,2.251c0,1.196-1.407,1.548-2.674,1.056
		c-1.267-0.492-1.267-0.985-1.267-1.829C11.545,24.048,9.856,22.642,9.856,22.642z"/>
	<path fill="#00930E" d="M49.888,31.506c1.97,1.688,2.744,2.112,2.182,0.14c-0.564-1.969-1.478-1.125-0.072-0.703
		c1.408,0.423,3.518-0.261,0.845-1.195c-1.406-0.494-0.21-0.774,0.141-0.916c0.353-0.141-0.28-1.829-0.772-0.985
		C51.717,28.692,49.888,31.506,49.888,31.506z"/>
	<path fill="#00930E" d="M29.556,31.295c0.915,0.844,1.899,2.041,2.11,0.844c0.211-1.195-0.422-0.913,0.211-1.195
		c0.633-0.281,1.83-0.985,0.352-0.844C30.752,30.241,29.556,31.295,29.556,31.295z"/>
	<path fill="#00930E" d="M36.45,50.571c-1.268,0.423-2.322,0.915-2.181-0.492c0.14-1.405-0.211-0.985,0.351-3.024
		c0.563-2.04-0.351-1.408,0.563-2.464c0.916-1.054,1.478-1.477,2.113-1.123c0.632,0.351,0.913,0.209,0.842,1.123
		c-0.069,0.916,0.423,0.144-0.492,1.268c-0.913,1.126-1.617,1.266-1.617,1.758C36.028,48.109,36.45,50.571,36.45,50.571z"/>
	<path fill="#00D3D8" d="M10.067,27.074c1.381-0.125,2.463-2.603,1.337-3.026c-1.125-0.421-4.08-0.421-3.869,0.704
		S9.294,27.144,10.067,27.074z"/>
	<path fill="#00D3D8" d="M25.404,46.563c-1.744-0.416-3.307-3.659-0.914-5.488c2.392-1.828,5.909,0.281,5.276,2.744
		S26.882,46.915,25.404,46.563z"/>
	<path fill="#0057D6" d="M34.551,23.556c0.704,0,3.518,2.533,1.055,2.041c-2.463-0.492-2.463-1.056-2.463-0.492
		c0,0.562,3.308,2.18,0.282,2.04c-3.025-0.14-0.774-0.562-1.126-0.844c-0.352-0.281-0.211,1.759-0.844,1.759
		c-0.634,0-1.97-0.422-1.688-1.477C30.048,25.526,34.551,23.556,34.551,23.556z"/>
	<path fill="#0057D6" d="M47.072,27.66c0.985-0.375,2.909-1.969,1.55-2.157c-1.361-0.188-1.736,1.22-1.783,1.408
		c-0.047,0.187-0.704-1.361-1.594-1.408c-0.891-0.046-0.329,1.829,0.609,2.064c0.938,0.234-2.485,0.845-1.688,1.173
		s1.735,0.515,2.159,0.328C46.746,28.88,47.072,27.66,47.072,27.66z"/>
	<path fill="#FF9D00" d="M36.028,30.873c1.125,0.633,2.181,0.915,1.406,2.111c-0.774,1.195,0.211,2.533-1.406,1.125
		c-1.619-1.407-2.251-0.633-1.688-1.83C34.902,31.084,36.028,30.873,36.028,30.873z"/>
	<path fill="#FF9D00" d="M34.69,48.532c1.043,0.174,2.463,0.069,2.674-1.056c0.212-1.126-0.068-2.25-1.196-2.322
		c-1.125-0.07-2.743-0.07-2.954,1.337C33.003,47.899,33.849,48.392,34.69,48.532z"/>
	<path fill="#FF9D00" d="M25.615,48.32c0.789-0.394,1.408-1.266,0.915-1.898c-0.492-0.633-1.759-0.703-2.603,0.21
		C23.083,47.547,24.209,49.024,25.615,48.32z"/>
	<path fill="#FF9D00" d="M12.319,20.531c0,1.074,0.985,1.196,2.603,0.844c1.618-0.351,3.236-0.563,1.759-2.321
		c-1.478-1.759-2.463-1.619-3.025-1.056S12.319,20.25,12.319,20.531z"/>
	<path fill="#FF9D00" d="M40.39,12.3c0.646,0.893,2.604,1.196,2.604-0.492s0.844-3.025-0.916-2.604
		C40.319,9.627,39.476,11.033,40.39,12.3z"/>
	<path fill="#DB0000" d="M12.389,25.104c0.857-0.151,3.447-2.181,1.549-3.588c-1.9-1.407-4.081-0.071-4.433,0.563
		C9.153,22.711,9.997,25.526,12.389,25.104z"/>
	<path fill="#DB0000" d="M30.118,26.3c1.952,0.39,2.743,0.493,3.377-0.843c0.633-1.337,1.125-0.845,0.846-1.971
		c-0.282-1.125-0.071-2.11-1.269-1.97c-1.195,0.141-1.828-0.844-2.602-0.703c-0.774,0.14-1.619,0.914-2.041,1.266
		c-0.422,0.352-1.406,1.478-1.056,1.9c0.352,0.421,0.563,1.618,1.126,1.478C29.063,25.315,29.415,26.159,30.118,26.3z"/>
	<path fill="#DB0000" d="M47.072,31.226c0.634,0.284,1.478,0.985,2.815,0.562c1.336-0.421,1.689-0.141,1.336-1.055
		c-0.352-0.916,1.266-1.759-0.211-2.252c-1.478-0.492-0.773-1.899-1.828-1.477s-0.916,1.196-1.97,0.773
		c-1.055-0.422-0.916,0.633-1.127,0.985C45.877,29.114,45.668,30.591,47.072,31.226z"/>
	<path fill="#870000" d="M36.872,51.063c0.492,0.212,4.221-0.843,2.04-2.531c-2.18-1.689-3.586,2.181-2.321,2.392"/>
	<path fill="#FF80D8" d="M54.531,29.888c0-1.563,0.563-1.407,0.492-2.321c-0.07-0.915-0.914-1.9,0.844-1.408
		c1.76,0.493,3.8,0.141,2.322,1.337c-1.478,1.196-1.618-0.352-2.322,0.493C55.164,28.833,54.531,30.38,54.531,29.888z"/>
	<path fill="#F200B3" d="M55.938,26.792c0.624-1.249,0.985-1.619,1.76-1.759c0.773-0.141,1.617-0.281,1.055-1.337
		c-0.563-1.055-0.422-1.336-1.478-1.266c-1.055,0.07-2.673-0.281-2.181,0.915c0.492,1.196,0.142,1.055,0.281,1.759
		C55.516,25.808,55.867,26.934,55.938,26.792z"/>
	<circle fill="#FF80E4" cx="49.746" cy="21.165" r="3.166"/>
	
		<ellipse transform="matrix(0.8539 -0.5204 0.5204 0.8539 -2.5794 14.8027)" fill="#A2F9E8" cx="25.076" cy="11.996" rx="4.315" ry="3.001"/>
	<circle fill="#FF7955" cx="31.666" cy="14.199" r="3.799"/>
	<path fill="none" stroke="#49AD4E" stroke-width="0.2705" stroke-miterlimit="10" d="M37.576,9.345
		c0.705-0.774,1.689-1.407,2.675-1.97C41.235,6.812,42.5,6.25,42.713,6.25"/>
	<path fill="none" stroke="#49AD4E" stroke-width="0.2705" stroke-miterlimit="10" d="M37.963,8.799
		c0.462-0.939,1.233-1.819,2.025-2.632s1.853-1.704,2.055-1.762"/>
	<path fill="none" stroke="#F92CFF" stroke-width="1.0821" stroke-miterlimit="10" d="M34.128,11.104
		c-1.536-0.461-3.376-1.619-2.251-2.322c1.126-0.703,1.548-0.985,2.251-0.493c0,0-1.406-1.547-1.548-1.759
		c-0.14-0.211-0.844-0.773-0.07-1.547c0.775-0.775,2.533-0.423,2.673,0.633c0.144,1.055,0.212,1.336,0.212,1.899
		c0,0.563-0.14,2.814,0.281,0.563c0.423-2.252,2.674-4.292,2.181-1.83c-0.492,2.462-1.688,3.588-1.898,3.87
		C35.747,10.4,34.834,11.315,34.128,11.104z"/>
	<path fill="#D80096" d="M36.942,11.878c-1.178-0.353-1.478-1.478-0.492-2.111c0.984-0.633,0.984-0.563,1.97,0
		c0.984,0.563,1.338,1.056,0.774,1.548C38.63,11.808,37.646,12.089,36.942,11.878z"/>
	<path fill="#00930E" d="M25.803,34.485c0.915,0.845,1.9,2.041,2.111,0.845s-0.423-0.915,0.211-1.196
		c0.633-0.281,1.829-0.984,0.352-0.843C26.999,33.431,25.803,34.485,25.803,34.485z"/>
	<path fill="#00930E" d="M18.078,25.135c2.046-0.873,2.818,0.278,2.042,0.455C19.344,25.766,18.078,25.135,18.078,25.135z"/>
	<path fill="#00930E" d="M20.352,23.242c0.561-0.646,1.865-0.323,1.318,0.414C21.123,24.393,19.745,23.94,20.352,23.242z"/>
	<path fill="#00930E" d="M20.854,11.711c0.565,0.627,1.328,1.267,0.292,2.008c-1.036,0.742-1.815,0.402-2.039-0.059
		c-0.225-0.46-0.324-0.466-0.1-0.951c0.226-0.487,1.184-1.631,0.54-3.608c-0.642-1.978-1.097-2.799-0.208-3.598
		c0.891-0.8,2.093,0.011,2.573,1.282c0.479,1.271,0.114,1.601-0.514,2.165C20.772,9.515,20.854,11.711,20.854,11.711z"/>
	<path fill="#FF9D00" d="M18.186,9.091c1.026-0.313,0.856-1.292,0.048-2.736c-0.809-1.445-1.482-2.932-2.734-1.005
		c-1.251,1.926-0.829,2.828-0.126,3.201C16.075,8.924,17.916,9.172,18.186,9.091z"/>
	<path fill="#FF1F1F" d="M21.413,9.66c-0.395-0.775-3.092-2.662-3.883-0.435c-0.793,2.227,1.123,3.924,1.83,4.075
		C20.069,13.453,22.515,11.823,21.413,9.66z"/>
	<path fill="none" stroke="#000000" stroke-width="0.5411" stroke-miterlimit="10" d="M21.676,37.897
		c0.082-3.529,0.246-20.931,0.082-23.476"/>
	<path fill="none" stroke="#000000" stroke-width="0.5411" stroke-miterlimit="10" d="M42.113,38.472
		c-0.164-4.351,0.165-20.603,0.165-22.408"/>
	<path fill="none" stroke="#000000" stroke-width="0.5411" stroke-miterlimit="10" d="M21.394,53.456
		c-0.046,1.31-0.539,7.329-0.62,7.753"/>
	<path fill="none" stroke="#000000" stroke-width="0.5411" stroke-miterlimit="10" d="M42.412,54.724
		c0.03,1.231,0.605,5.747,1.262,6.567"/>
	<path fill="none" stroke="#000000" stroke-width="0.5411" stroke-miterlimit="10" d="M1.537,2.873
		c4.292-0.142,15.83-0.352,18.01-0.423c2.182-0.07,20.826,0.211,23.357,0.281c2.534,0.071,18.363,0.985,19.559,1.197
		c-0.773,4.361-0.773,9.568-1.126,16.111c-0.352,6.543-1.407,16.181-1.478,19.628c-2.813,0-14.351,0-17.868-0.914
		c0.352,6.051,0.421,14.001,0.421,15.971c1.267,0.352,5.417,0.774,5.699,0.774c0.282,1.898-3.095,5.064-4.08,5.556
		c-0.985,0.492-2.251,0.423-5.487,0.492c-3.237,0.073-14.775-0.139-16.041-0.28c-1.267-0.141-1.407,0.492-3.658-0.633
		c-2.252-1.126-5.417-2.532-6.051-4.714c2.884,0.071,8.021-1.406,8.513-2.321c0.141-1.407,0.07-14.142,0.352-15.758
		C18.492,38.4,5.337,38.825,2.804,38.682c0.351-3.939-0.211-16.321-0.281-17.939S2.311,7.445,1.537,2.873z"/>
</g>
</svg>
