<?xml version="1.0" encoding="utf-8"?>
<!-- Generator: Adobe Illustrator 15.0.0, SVG Export Plug-In . SVG Version: 6.00 Build 0)  -->
<!DOCTYPE svg PUBLIC "-//W3C//DTD SVG 1.1//EN" "http://www.w3.org/Graphics/SVG/1.1/DTD/svg11.dtd">
<svg version="1.1" id="レイヤー_1" xmlns="http://www.w3.org/2000/svg" xmlns:xlink="http://www.w3.org/1999/xlink" x="0px"
	 y="0px" width="64px" height="64px" viewBox="0 0 64 64" style="enable-background:new 0 0 64 64;" xml:space="preserve">
<g>
	<linearGradient id="SVGID_1_" gradientUnits="userSpaceOnUse" x1="18.7099609" y1="-4.8999023" x2="45.8758621" y2="66.7651443">
		<stop  offset="0" style="stop-color:#FFF0ED"/>
		<stop  offset="0.4120165" style="stop-color:#FFE2D9"/>
		<stop  offset="1" style="stop-color:#FFC9B5"/>
	</linearGradient>
	<circle style="fill:url(#SVGID_1_);" cx="32.6975098" cy="32" r="28.9440918"/>
	<g>
		<polygon style="fill:#FF6490;" points="11.2060547,25.5581055 9.862793,23.9746094 7.9956055,25.5581055 6.6523438,23.9746094 
			4.3642578,25.9150391 7.2841797,29.3574219 9.1518555,27.7739258 10.4951172,29.3574219 12.3618164,27.7739258 
			13.7050781,29.3574219 15.9931641,27.4169922 13.0732422,23.9746094 		"/>
		<polygon style="fill:#FF6490;" points="60.7958984,27.4160156 57.8759766,23.9746094 56.0097656,25.5585938 
			54.6640625,23.9741211 52.7988281,25.5576172 51.4550781,23.9746094 49.1679688,25.9150391 52.0878906,29.3564453 
			53.9541016,27.7729492 55.2988281,29.3569336 57.1650391,27.7729492 58.5087891,29.3564453 		"/>
	</g>
	<path style="fill:#FFB6B6;" d="M32.6987305,61.3291016C16.5258789,61.3291016,3.3686523,48.171875,3.3686523,32
		c0-16.1723633,13.1572266-29.3291016,29.3300781-29.3291016c16.1713867,0,29.3276367,13.1567383,29.3276367,29.3291016
		C62.0263672,48.171875,48.8701172,61.3291016,32.6987305,61.3291016z M32.6987305,5.1708984
		C17.9047852,5.1708984,5.8686523,17.206543,5.8686523,32c0,14.7939453,12.0361328,26.8291016,26.8300781,26.8291016
		c14.7924805,0,26.8276367-12.0351563,26.8276367-26.8291016C59.5263672,17.206543,47.4912109,5.1708984,32.6987305,5.1708984z"/>
	<path style="fill:#750000;" d="M32.6977539,62.1933594C16.0483398,62.1933594,2.503418,48.6484375,2.503418,32
		S16.0483398,1.8066406,32.6977539,1.8066406c16.6489258,0,30.1938477,13.5449219,30.1938477,30.1933594
		S49.3466797,62.1933594,32.6977539,62.1933594z M32.6977539,4.3066406C17.4272461,4.3066406,5.003418,16.7299805,5.003418,32
		c0,15.2705078,12.4238281,27.6933594,27.6943359,27.6933594c15.2700195,0,27.6938477-12.4228516,27.6938477-27.6933594
		C60.3916016,16.7299805,47.9677734,4.3066406,32.6977539,4.3066406z"/>
	<path style="fill:#750000;" d="M30.862793,49.7246094c-3.8183594,0-9.1762695-1.1503906-9.5361328-5.5615234
		c-0.1049805-1.2851563,0.3188477-2.4130859,1.2255859-3.2636719c0.5463867-0.5126953,1.2412109-0.8886719,2.012207-1.1611328
		c-0.815918-0.5273438-1.5458984-1.1572266-2.0986328-1.9082031c-0.8759766-1.1904297-1.2026367-2.5761719-0.9438477-4.0058594
		c0.1894531-1.0488281,0.7915039-1.8945313,1.7412109-2.4462891c3.6147461-2.0966797,12.112793,0.7392578,13.7788086,1.328125
		l-1,2.828125c-3.6044922-1.2724609-9.4858398-2.6000977-11.2724609-1.5615234
		c-0.2119141,0.1230469-0.2675781,0.2304688-0.2954102,0.3847656c-0.112793,0.6240234,0.0166016,1.1630859,0.4082031,1.6943359
		c1.2255859,1.6650391,4.6323242,2.8144531,7.4423828,3.2255859c0.1821289,0.0234375,0.3310547,0.0439453,0.4399414,0.0595703
		l-0.4023438,2.9726563c-0.0966797-0.0117188-0.2255859-0.0283203-0.3813477-0.0507813
		C29.4907227,41.9453125,25.7636719,42,24.6035156,43.0888672c-0.1708984,0.1601563-0.3242188,0.3720703-0.2866211,0.8300781
		c0.2192383,2.6894531,5.9755859,2.8740234,7.5043945,2.7753906l0.1923828,2.9941406
		C31.6523438,49.7119141,31.2661133,49.7246094,30.862793,49.7246094z"/>
	<g>
		
			<rect x="36.9832649" y="16.9898548" transform="matrix(0.9632785 0.2685041 -0.2685041 0.9632785 6.3148308 -10.6935139)" style="fill:#750000;" width="10.5383501" height="1.5002695"/>
	</g>
	
		<rect x="36.2891769" y="19.0165939" transform="matrix(0.9635898 0.267385 -0.267385 0.9635898 6.9984207 -10.3609524)" style="fill:#750000;" width="10.5075836" height="3.000016"/>
	
		<rect x="17.7796974" y="13.8984385" transform="matrix(0.4485151 0.8937753 -0.8937753 0.4485151 26.6221619 -6.4401798)" style="fill:#750000;" width="1.5001761" height="8.9086895"/>
	
		<rect x="18.2363949" y="16.2605133" transform="matrix(0.4491654 0.8934486 -0.8934486 0.4491654 29.3960304 -6.2128048)" style="fill:#750000;" width="3.0003562" height="8.9462605"/>
	<path style="fill:#FF6490;" d="M13.7236328,51.5820313c5.1015625-5.7617188,6.9228516-8.5078125,7.2114258-11.7734375
		c0.2548828-2.9511719-1.777832-7.2148438-4.7265625-7.09375c-4.5878906,0.1738281-6.0561523,3.8759766-5.3676758,6.7587891
		c-0.6884766-2.8828125-3.5571289-6.0068359-7.8427734-3.6162109c-2.578125,1.4375-2.2104492,5.8320313-0.7299805,8.3974609
		C3.6396484,46.6318359,6.7412109,48.6777344,13.7236328,51.5820313z"/>
</g>
</svg>
