<?xml version="1.0" encoding="utf-8"?>
<!-- Generator: Adobe Illustrator 15.0.0, SVG Export Plug-In . SVG Version: 6.00 Build 0)  -->
<!DOCTYPE svg PUBLIC "-//W3C//DTD SVG 1.1//EN" "http://www.w3.org/Graphics/SVG/1.1/DTD/svg11.dtd">
<svg version="1.1" id="レイヤー_1" xmlns="http://www.w3.org/2000/svg" xmlns:xlink="http://www.w3.org/1999/xlink" x="0px"
	 y="0px" width="64px" height="64px" viewBox="0 0 64 64" style="enable-background:new 0 0 64 64;" xml:space="preserve">
<g>
	<g>
		<linearGradient id="SVGID_1_" gradientUnits="userSpaceOnUse" x1="33.6474609" y1="32.5019531" x2="55.7657738" y2="32.5019531">
			<stop  offset="0" style="stop-color:#3F1600"/>
			<stop  offset="1" style="stop-color:#D49640"/>
		</linearGradient>
		<rect x="37.4267578" y="-2.9555664" style="fill:url(#SVGID_1_);" width="18.8330078" height="70.9145508"/>
		<path style="fill:#632B01;" d="M57.3671875,69.0664063H36.3193359V-4.0629883h21.0478516V69.0664063z M38.5341797,66.8515625
			h16.6181641v-68.699707H38.5341797V66.8515625z"/>
	</g>
	<g>
		<g>
			<path style="fill:#FFA748;" d="M46.0273438,31.0327148c-3.5917969,0.2241211-8.3613281,0-8.3613281,0l-2.0234375-1.8496094
				c3.4707031-2.0205078,5.765625-5.5004883,5.765625-9.4619141c0-0.0966797-0.0136719-0.1918945-0.0175781-0.2885742
				c4.7558594-0.5673828,8.4238281-4.1103516,8.4238281-8.4057617c0-4.690918-4.3701172-8.4931641-9.7578125-8.4931641
				c-4.4072266,0-8.1289063,2.5439453-9.3398438,6.0366211c-0.6660156-0.097168-1.3432617-0.1582031-2.0415039-0.1582031
				c-3.8144531,0-7.2294922,1.4970703-9.5620117,3.8583984c-1.5048828-0.9702148-3.324707-1.5415039-5.2900391-1.5415039
				c-5.1635742,0-9.3510742,3.9301758-9.3510742,8.7768555c0,4.8476563,4.1875,8.777832,9.3510742,8.777832
				c1.234375,0,2.402832-0.2446289,3.4794922-0.6538086c-1.8251953,3.9458008-3.0537109,14.3583984-1.840332,21.1542969
				c-0.7114258-0.4628906-1.5595703-0.7392578-2.472168-0.7392578c-2.5004883,0-4.5268555,2.0185547-4.5268555,4.5126953
				c0,2.4892578,2.0263672,4.5078125,4.5268555,4.5078125c1.7670898,0,3.2792969-1.0175781,4.0258789-2.4873047
				c0.9624023,1.7666016,2.4365234,3.1943359,4.6645508,3.8896484c9.4189453,2.9287109,11.0932617,0.5546875,11.0932617,0.5546875
				l11.2368164,1.5585938c0,0,3.0732422,0.7431641,4.1269531-4.5800781c1.0527344-5.3261719-0.65625-8.6357422-4.328125-7.4550781
				l-9.5957031-0.8837891c0,0,3.0830078-1.9384766,1.8671875-7.8857422l9.9462891,1.2685547
				c0,0,3.84375,0.7578125,3.5732422-3.703125C49.328125,32.8798828,49.6171875,30.8081055,46.0273438,31.0327148z"/>
		</g>
	</g>
	<path style="fill:#F48E31;" d="M40.2724609,18.7412109c0,0-1.5673828-6.2744141-6.0566406-7.3564453
		c0,0,3.5751953-5.1181641,8.1494141-1.0664063C45.4404297,13.0424805,44.0556641,17.987793,40.2724609,18.7412109z"/>
	<path style="fill:#F48E31;" d="M16.6152344,22.1611328c0,0-1.1386719-0.9462891,1.1455078-6.0429688
		c0,0-6.8237305-1.3271484-6.8237305,4.0810547c0,5.4072266,5.6030273,4.7841797,6.5820313,5.137207"/>
	<path style="fill:#F48E31;" d="M35.3847656,39.0820313L31.9960938,48.71875
		C35.2949219,48.7509766,38.4941406,47.1123047,35.3847656,39.0820313z"/>
	<path style="fill:#F48E31;" d="M32.3027344,58.2294922l2.0654297-1.6914063l9.8427734,2.109375
		c0,0,2.5742188-0.1425781,3.2509766-1.4931641c0,0-1.734375,3.1074219-3.8974609,2.7021484L32.3027344,58.2294922z"/>
	<path style="fill:#F48E31;" d="M20.9243164,28.7714844c0,0,3.3388672,6.3271484,12.565918,3.4272461
		c5.2763672-1.9853516,3.4296875-2.5712891,3.4296875-2.5712891l-0.4423828-1.7348633
		C32.8955078,28.7636719,33.2265625,30.7045898,20.9243164,28.7714844z"/>
	<path style="fill:#632B01;" d="M28.5732422,31.6640625c-4.7841797,0-8.2729492-1.1220703-10.387207-3.3447266
		c-2.3115234-2.4291992-2.0400391-5.2548828-2.0273438-5.3740234c0.0629883-0.5942383,0.6000977-1.0297852,1.1894531-0.9609375
		c0.5917969,0.0625,1.0209961,0.5913086,0.9619141,1.1826172c-0.0087891,0.1010742-0.1503906,2.0151367,1.4755859,3.6958008
		c1.9086914,1.9736328,5.5620117,2.8666992,10.5683594,2.5864258c0.5981445-0.0419922,1.1064453,0.4223633,1.1401367,1.019043
		c0.0336914,0.5961914-0.4223633,1.1069336-1.019043,1.1401367C29.8203125,31.6455078,29.1860352,31.6640625,28.5732422,31.6640625z
		"/>
	
		<ellipse transform="matrix(0.2272463 0.9738373 -0.9738373 0.2272463 41.3755188 -13.2305069)" style="fill:#632B01;" cx="29.0244141" cy="19.4558105" rx="3.2337742" ry="2.43366"/>
	<g>
		<polygon style="fill:#EA6C6C;" points="21.2719727,22.3564453 20.4731445,21.1665039 18.3105469,22.6171875 
			19.5151367,24.4130859 20.9785156,23.4316406 21.5317383,24.6206055 23.359375,23.7700195 22.4467773,21.8095703 		"/>
		<polygon style="fill:#EA6C6C;" points="40.3203125,19.6098633 38.6005859,18.296875 37.2773438,20.0292969 36.3349609,19.2324219 
			35.2177734,20.5556641 36.8691406,21.9511719 37.5546875,21.1396484 38.5634766,21.9101563 		"/>
	</g>
	<ellipse style="fill:#FFFFFF;" cx="28.2006836" cy="17.8276367" rx="0.534668" ry="0.612793"/>
	<g>
		<circle style="fill:#632B01;" cx="23.2519531" cy="18.7414551" r="2.1755371"/>
		<circle style="fill:#FFFFFF;" cx="22.6889648" cy="17.8276367" r="0.7285156"/>
	</g>
	<path style="fill:#F48E31;" d="M9.8525391,54.5175781c0,0,4.3935547,2.109375,5.7114258-2.1083984l0.7026367-0.9658203
		l1.40625,3.4267578C17.6728516,54.8701172,11.434082,60.5810547,9.8525391,54.5175781z"/>
	<g>
		<circle style="fill:#632B01;" cx="34.2158203" cy="16.2207031" r="2.175293"/>
		<circle style="fill:#FFFFFF;" cx="33.6328125" cy="15.2851563" r="0.7104492"/>
	</g>
	<path style="fill:#632B01;" d="M44.3974609,61.6982422c-0.2636719,0-0.4628906-0.0302734-0.5703125-0.0507813
		l-10.7197266-1.4873047c-0.5878906,0.4003906-1.6933594,0.8515625-3.6914063,0.8515625
		c-2.1201172,0-4.8305664-0.5078125-8.0566406-1.5117188c-1.7900391-0.5585938-3.2607422-1.5722656-4.390625-3.0214844
		c-1.034668,1.0546875-2.4541016,1.6679688-3.9785156,1.6679688c-3.0922852,0-5.6083984-2.5068359-5.6083984-5.5888672
		c0-3.0849609,2.5161133-5.59375,5.6083984-5.59375c0.3842773,0,0.7651367,0.0390625,1.1376953,0.1171875
		c-0.6489258-5.8945313,0.1337891-13.4277344,1.4487305-17.8637695c-0.5825195,0.0981445-1.1679688,0.1479492-1.753418,0.1479492
		c-5.7524414,0-10.4326172-4.4228516-10.4326172-9.859375c0-5.4360352,4.6801758-9.8583984,10.4326172-9.8583984
		c1.8129883,0,3.5722656,0.4399414,5.1367188,1.2788086c2.5800781-2.2944336,6.0722656-3.5957031,9.715332-3.5957031
		c0.4375,0,0.8842773,0.0219727,1.3491211,0.0664063c1.6518555-3.5888672,5.5683594-5.9448242,10.0322266-5.9448242
		c5.9765625,0,10.8388672,4.2954102,10.8388672,9.574707c0,4.4790039-3.5585938,8.347168-8.4238281,9.3271484
		c-0.1982422,3.5185547-2.0410156,6.7607422-5.0712891,8.9711914l0.7041016,0.6435547
		c0.7197266,0.027832,2.3505859,0.0820313,4.1591797,0.0820313c1.4160156,0,2.6591797-0.0327148,3.6962891-0.0976563
		c0.1992188-0.012207,0.3876953-0.0185547,0.5664063-0.0185547c3.7724609,0,3.9111328,2.6914063,4.0859375,6.0986328
		c0.0195313,0.390625,0.0410156,0.8056641,0.0673828,1.2431641c0.0976563,1.6103516-0.2646484,2.8642578-1.0771484,3.7275391
		c-0.7109375,0.7558594-1.7626953,1.1708984-2.9628906,1.1708984c0,0,0,0-0.0009766,0
		c-0.4472656,0-0.7617188-0.0576172-0.8203125-0.0683594L37.3710938,41.03125
		c0.2890625,2.7021484-0.2998047,4.5517578-0.9882813,5.7441406l7.3154297,0.6738281
		c1.8642578-0.53125,3.4814453-0.09375,4.5361328,1.1865234c1.2792969,1.5576172,1.6220703,4.2480469,0.9638672,7.5751953
		C48.21875,61.1630859,45.5136719,61.6982422,44.3974609,61.6982422z M44.265625,59.5292969
		c0.0078125,0,0.0605469,0.0058594,0.1318359,0.0058594c0.5820313,0,2.0107422-0.3652344,2.6796875-3.7441406
		c0.5136719-2.6025391,0.3222656-4.7636719-0.5136719-5.78125c-0.5341797-0.6513672-1.34375-0.7822266-2.4228516-0.4345703
		c-0.1386719,0.0458984-0.2851563,0.0595703-0.4306641,0.0478516l-9.5957031-0.8837891
		c-0.4609375-0.0429688-0.8447266-0.375-0.9521484-0.8251953c-0.1074219-0.4511719,0.0839844-0.9208984,0.4765625-1.1669922
		c0.0849609-0.0585938,2.4150391-1.703125,1.3828125-6.7539063c-0.0703125-0.3417969,0.0292969-0.6962891,0.2666016-0.9521484
		s0.578125-0.3769531,0.9296875-0.3378906l9.9462891,1.2685547c0.0966797,0.0166016,0.2539063,0.0400391,0.4755859,0.0400391l0,0
		c0.4228516,0,1.0058594-0.0849609,1.3876953-0.4902344c0.4833984-0.5126953,0.5351563-1.4326172,0.4941406-2.1142578
		c-0.0273438-0.4443359-0.0488281-0.8652344-0.0693359-1.2636719c-0.1962891-3.8208008-0.4023438-4.0458984-1.9257813-4.0458984
		c-0.1367188,0-0.2792969,0.0048828-0.4316406,0.0146484c-1.0820313,0.0673828-2.3710938,0.1015625-3.8310547,0.1015625
		c-2.4746094,0-4.6269531-0.1000977-4.6484375-0.1010742c-0.2519531-0.0117188-0.4921875-0.1113281-0.6787109-0.2817383
		l-2.0234375-1.8496094c-0.2539063-0.2324219-0.3828125-0.5712891-0.3457031-0.9135742
		c0.0361328-0.3417969,0.2333984-0.6464844,0.53125-0.8193359c3.2734375-1.9057617,5.2285156-5.09375,5.2285156-8.5273438
		l-0.0175781-0.2451172c-0.0224609-0.5639648,0.3925781-1.050293,0.953125-1.1171875
		c4.2587891-0.5083008,7.4707031-3.6601563,7.4707031-7.3320313c0-4.0869141-3.8925781-7.4116211-8.6767578-7.4116211
		c-3.8134766,0-7.234375,2.1831055-8.3178711,5.3095703c-0.1704102,0.4902344-0.6655273,0.7861328-1.1782227,0.7158203
		c-0.6772461-0.0991211-1.2939453-0.1469727-1.8852539-0.1469727c-3.3676758,0-6.5722656,1.2890625-8.7924805,3.5366211
		c-0.3603516,0.3632813-0.9248047,0.4272461-1.3554688,0.1489258c-1.3891602-0.8955078-3.015625-1.3686523-4.7041016-1.3686523
		c-4.5600586,0-8.2695313,3.4521484-8.2695313,7.6953125c0,4.2436523,3.7094727,7.6962891,8.2695313,7.6962891
		c1.0356445,0,2.0771484-0.1962891,3.0952148-0.5830078c0.4101563-0.1567383,0.8754883-0.0478516,1.175293,0.2734375
		s0.375,0.7924805,0.1904297,1.1914063c-1.7597656,3.8046875-2.9165039,14.0166016-1.7573242,20.5097656
		c0.0761719,0.4248047-0.1074219,0.8535156-0.4667969,1.0917969c-0.3603516,0.2373047-0.8271484,0.2402344-1.1875,0.0048828
		c-0.5673828-0.3691406-1.2182617-0.5644531-1.8823242-0.5644531c-1.8999023,0-3.4453125,1.5400391-3.4453125,3.4316406
		c0,1.8896484,1.5454102,3.4267578,3.4453125,3.4267578c1.2944336,0,2.4677734-0.7265625,3.0615234-1.8964844
		c0.1821289-0.3574219,0.5473633-0.5849609,0.9487305-0.5908203c0.4169922-0.0048828,0.7734375,0.2119141,0.965332,0.5634766
		c0.934082,1.7148438,2.2543945,2.8183594,4.0371094,3.375c3.0166016,0.9375,5.5112305,1.4140625,7.4130859,1.4140625
		c1.9672852,0,2.5297852-0.5214844,2.5351563-0.5263672c0.2011719-0.4316406,0.503418-0.4384766,0.9711914-0.3720703
		l11.2368164,1.5585938c0.0361328,0.0048828,0.0712891,0.0117188,0.1054688,0.0205078
		C44.2646484,59.5292969,44.2646484,59.5292969,44.265625,59.5292969z"/>
</g>
</svg>
