<?xml version="1.0" encoding="utf-8"?>
<!-- Generator: Adobe Illustrator 16.0.0, SVG Export Plug-In . SVG Version: 6.00 Build 0)  -->
<!DOCTYPE svg PUBLIC "-//W3C//DTD SVG 1.1//EN" "http://www.w3.org/Graphics/SVG/1.1/DTD/svg11.dtd">
<svg version="1.1" id="Layer_30" xmlns="http://www.w3.org/2000/svg" xmlns:xlink="http://www.w3.org/1999/xlink" x="0px" y="0px"
	 width="64px" height="64px" viewBox="0 0 64 64" enable-background="new 0 0 64 64" xml:space="preserve">
<g>
	
		<path fill="#F5B32C" stroke="#F5B32C" stroke-width="2" stroke-linecap="round" stroke-linejoin="round" stroke-miterlimit="10" d="
		M50.887,19.08H50.59v-0.301c0-0.276-0.224-0.5-0.5-0.5H36.01V6.565c0-0.276-0.224-0.5-0.5-0.5h-0.297V5.765
		c0-0.276-0.224-0.5-0.5-0.5H28.59c-0.276,0-0.5,0.224-0.5,0.5v12.515H13.444c-0.276,0-0.5,0.224-0.5,0.5v6.124
		c0,0.276,0.224,0.5,0.5,0.5h0.301v0.301c0,0.276,0.224,0.5,0.5,0.5H28.09v32.764c0,0.276,0.224,0.5,0.5,0.5h0.301v0.297
		c0,0.276,0.224,0.5,0.5,0.5h6.119c0.276,0,0.5-0.224,0.5-0.5V26.204h14.877c0.276,0,0.5-0.224,0.5-0.5V19.58
		C51.387,19.304,51.163,19.08,50.887,19.08z"/>
	<path fill="#F09400" d="M35.51,6.065h-6.119c-0.276,0-0.5,0.224-0.5,0.5v53.199c0,0.276,0.224,0.5,0.5,0.5h6.119
		c0.276,0,0.5-0.224,0.5-0.5V6.565C36.01,6.289,35.786,6.065,35.51,6.065z"/>
	<path fill="#F09400" d="M50.887,19.08H14.245c-0.276,0-0.5,0.224-0.5,0.5v6.124c0,0.276,0.224,0.5,0.5,0.5h36.642
		c0.276,0,0.5-0.224,0.5-0.5V19.58C51.387,19.304,51.163,19.08,50.887,19.08z"/>
	<linearGradient id="SVGID_1_" gradientUnits="userSpaceOnUse" x1="31.7666" y1="5.3662" x2="31.7666" y2="67.3898">
		<stop  offset="0" style="stop-color:#FFF465"/>
		<stop  offset="1" style="stop-color:#F5B32C"/>
	</linearGradient>
	<path fill="url(#SVGID_1_)" d="M50.09,18.279H35.213V5.765c0-0.276-0.224-0.5-0.5-0.5H28.59c-0.276,0-0.5,0.224-0.5,0.5v12.515
		H13.444c-0.276,0-0.5,0.224-0.5,0.5v6.124c0,0.276,0.224,0.5,0.5,0.5H28.09v33.564c0,0.276,0.224,0.5,0.5,0.5h6.123
		c0.276,0,0.5-0.224,0.5-0.5V25.403H50.09c0.276,0,0.5-0.224,0.5-0.5v-6.124C50.59,18.503,50.366,18.279,50.09,18.279z"/>
</g>
</svg>
