<?xml version="1.0" encoding="utf-8"?>
<!-- Generator: Adobe Illustrator 15.0.2, SVG Export Plug-In . SVG Version: 6.00 Build 0)  -->
<!DOCTYPE svg PUBLIC "-//W3C//DTD SVG 1.1//EN" "http://www.w3.org/Graphics/SVG/1.1/DTD/svg11.dtd">
<svg version="1.1" id="レイヤー_1" xmlns="http://www.w3.org/2000/svg" xmlns:xlink="http://www.w3.org/1999/xlink" x="0px"
	 y="0px" width="64px" height="64px" viewBox="0 0 64 64" enable-background="new 0 0 64 64" xml:space="preserve">
<g>
	<path fill="#C6270C" d="M31.198,70.275c0,0,7.303-3.167,15.777-12.696C55.451,48.049,36.496,63.654,31.198,70.275z"/>
	<path fill="#A52211" d="M48.666,51.705c0,0,4.093-5.532,4.851-7.491l0.507,0.558c0,0-2.706,2.884-3.255,6.59L48.666,51.705z"/>
	<path fill="#E5482E" d="M34.096,68.613c0,0,16.841-10.682,16.741-18.162C50.837,50.451,44.553,47.216,34.096,68.613z"/>
	
		<line opacity="0.57" fill="none" stroke="#BC0404" stroke-width="0.2896" stroke-miterlimit="10" x1="49.025" y1="51.214" x2="48.532" y2="56.077"/>
	
		<line opacity="0.57" fill="none" stroke="#BC0404" stroke-width="0.2896" stroke-miterlimit="10" x1="47.341" y1="52.454" x2="47.484" y2="57.409"/>
	
		<line opacity="0.57" fill="none" stroke="#BC0404" stroke-width="0.2896" stroke-miterlimit="10" x1="45.948" y1="54.078" x2="46.079" y2="58.567"/>
	
		<line opacity="0.57" fill="none" stroke="#BC0404" stroke-width="0.2896" stroke-miterlimit="10" x1="44.534" y1="55.005" x2="44.69" y2="60.356"/>
	
		<line opacity="0.57" fill="none" stroke="#BC0404" stroke-width="0.2896" stroke-miterlimit="10" x1="42.865" y1="56.402" x2="43.021" y2="61.679"/>
	
		<line opacity="0.57" fill="none" stroke="#BC0404" stroke-width="0.2896" stroke-miterlimit="10" x1="41.568" y1="58.233" x2="41.707" y2="62.898"/>
</g>
<g>
	<path fill="#A52211" d="M8.259,26.061c0,0,4.112,3.158,5.095,3.273c0.984,0.114,3.425,2.093,3.425,2.093l-0.527-1.645
		c0,0-2.369-1.214-2.913-1.301c-0.545-0.087-4.566-2.585-4.566-2.585L8.259,26.061z"/>
	
		<linearGradient id="SVGID_1_" gradientUnits="userSpaceOnUse" x1="32.3906" y1="41.8398" x2="13.9475" y2="28.0687" gradientTransform="matrix(0.9522 -0.3054 0.3054 0.9522 -7.6793 7.7471)">
		<stop  offset="0" style="stop-color:#FFC23F"/>
		<stop  offset="1" style="stop-color:#BF0600"/>
	</linearGradient>
	<path fill="url(#SVGID_1_)" d="M15.676,27.986c0,0,5.178-3.985,11.105,1.345c5.927,5.328,7.979,13.604,7.979,13.604
		s-10.104-2.25-13.01-4.329c-2.906-2.082-3.464-6.121-6.179-7.877C14.003,29.714,15.676,27.986,15.676,27.986z"/>
	<path opacity="0.22" fill="none" stroke="#BC0404" stroke-width="0.281" stroke-miterlimit="10" d="M19.122,32.82
		c0,0-2.416-3.09,0.724-4.449"/>
	<path opacity="0.22" fill="none" stroke="#BC0404" stroke-width="0.281" stroke-miterlimit="10" d="M17.092,31.327
		c0,0-1.65-2.06,0.273-3.108"/>
	<path opacity="0.22" fill="none" stroke="#BC0404" stroke-width="0.281" stroke-miterlimit="10" d="M20.509,34.229
		c0,0-3.141-3.917,3.156-6.295"/>
	<path opacity="0.22" fill="none" stroke="#BC0404" stroke-width="0.281" stroke-miterlimit="10" d="M22.123,35.473
		c0,0-2.675-4.048,3.26-6.209"/>
	<path opacity="0.22" fill="none" stroke="#BC0404" stroke-width="0.281" stroke-miterlimit="10" d="M26.817,30.782
		c-4.368,1.143-3.727,6.093-3.727,6.093"/>
	<path opacity="0.22" fill="none" stroke="#BC0404" stroke-width="0.281" stroke-miterlimit="10" d="M25.205,37.497
		c0,0-2.877-4.071,3.203-5.244"/>
	<path opacity="0.22" fill="none" stroke="#BC0404" stroke-width="0.281" stroke-miterlimit="10" d="M25.827,39.019
		c0,0-0.7-5.452,3.182-4.891"/>
	<path opacity="0.22" fill="none" stroke="#BC0404" stroke-width="0.281" stroke-miterlimit="10" d="M27.594,37.593
		c0,0,0.175-1.693,3.055-1.841"/>
	
		<linearGradient id="SVGID_2_" gradientUnits="userSpaceOnUse" x1="30.0391" y1="31.3091" x2="17.7447" y2="41.3907" gradientTransform="matrix(0.9522 -0.3054 0.3054 0.9522 -7.6793 7.7471)">
		<stop  offset="0" style="stop-color:#FFC23F"/>
		<stop  offset="1" style="stop-color:#BF6700"/>
	</linearGradient>
	<path fill="url(#SVGID_2_)" d="M21.209,31.548c1.793,0.889,8.869,5.378,13.552,11.388c0,0-11.722-0.584-15.139-6.659
		c-2.929-5.209-2.998-5.038-4.235-5.688C15.387,30.588,17.833,29.876,21.209,31.548z"/>
	
		<line opacity="0.35" fill="none" stroke="#BC0404" stroke-width="0.281" stroke-miterlimit="10" x1="17.964" y1="32.403" x2="22.513" y2="32.766"/>
	<path opacity="0.34" fill="none" stroke="#BC0404" stroke-width="0.281" stroke-miterlimit="10" d="M18.947,34.729
		c0,0,2.149-0.853,6.454,0.495"/>
	<path opacity="0.35" fill="none" stroke="#BC0404" stroke-width="0.281" stroke-miterlimit="10" d="M19.905,36.693
		c0,0,5.351-1.115,7.742-0.371"/>
	<path opacity="0.22" fill="none" stroke="#BC0404" stroke-width="0.281" stroke-miterlimit="10" d="M21.836,38.37
		c0,0,3.262-0.906,7.284-0.407c0,0,0.85-0.572,2.679-0.233"/>
	<path opacity="0.35" fill="none" stroke="#BC0404" stroke-width="0.281" stroke-miterlimit="10" d="M23.855,39.262
		c0,0,4.144-0.766,6.755-0.14"/>
	<path opacity="0.35" fill="none" stroke="#BC0404" stroke-width="0.281" stroke-miterlimit="10" d="M26.004,40.515
		c0,0,4.32-0.099,6.208,0.113"/>
</g>
<g>
	<path fill="#8E4A1B" d="M51.131-2.815l-2.58,1.389c0,0-3.299,3.313-4.081,4.159l-0.067,1.392c0,0,2.185-2.813,4.029-4.297
		c1.845-1.484,2.655-1.939,2.655-1.939L51.131-2.815z"/>
	<g>
		<g>
			
				<radialGradient id="SVGID_3_" cx="46.8467" cy="78.5186" r="17.4148" gradientTransform="matrix(0.4071 -1.0501 -1.1046 0.0991 99.4149 53.6585)" gradientUnits="userSpaceOnUse">
				<stop  offset="0" style="stop-color:#FFC23F"/>
				<stop  offset="1" style="stop-color:#BF0600"/>
			</radialGradient>
			<path fill="url(#SVGID_3_)" d="M43.753,11.584c-0.366-0.594-0.73-1.297-1.707-0.085c-0.978,1.213-0.955,2.504,0.051,2.882
				c0.001,0.003,0.001,0.002,0.001,0.002c-1.182,1.067-2.41,1.985-3.622,2.768c-0.171-0.777-0.944-0.973-1.755-0.504
				c-0.746,0.634-1.242,1.632-0.877,2.028c-4.083,2.108-7.433,2.741-7.433,2.741c2.221-5.635,0.439-8.087,5.616-14.408
				c4.398-5.368,8.507-5.467,11.355-5.072c0.98,1.384,2.89,2.929,0.107,8.637C45.409,10.516,44.555,10.399,43.753,11.584z
				 M34.436,11.377c-0.396-0.149-0.903-0.045-1.126,0.233c-0.008,0.007-0.011,0.015-0.017,0.025
				c-0.496-0.181-1.013-0.206-1.434,0.314c-0.429,0.533-0.285,0.933,0.221,1.126c0.507,0.191,0.811-0.053,1.614-0.647
				c0.021-0.017,0,0,0.019-0.016c0.381,0.105,0.83,0,1.038-0.258C34.976,11.876,34.834,11.528,34.436,11.377z"/>
			<path opacity="0.31" fill="none" stroke="#CC4009" stroke-width="0.1663" stroke-miterlimit="10" d="M44.992,2.535
				c0,0-14.758,14.987-15.76,18.216"/>
			<path opacity="0.31" fill="none" stroke="#BF4F10" stroke-width="0.1663" stroke-miterlimit="10" d="M37.57,4.138
				c0,0,3.268-1.82,6.793-0.962c0,0,2.706,2.032,2.087,4.604"/>
			<path opacity="0.31" fill="none" stroke="#BF4F10" stroke-width="0.1663" stroke-miterlimit="10" d="M36.147,5.58
				c0,0,4.765-2.297,7.286-1.4c0,0,2.041,2.774,1.863,4.566"/>
			<path opacity="0.31" fill="none" stroke="#BF4F10" stroke-width="0.1663" stroke-miterlimit="10" d="M34.605,7.261
				c0,0,5.135-2.587,7.868-2.128c0,0,1.202,1.895,1.607,4.074"/>
			<path opacity="0.31" fill="none" stroke="#BF4F10" stroke-width="0.1663" stroke-miterlimit="10" d="M32.261,9.296
				c0,0,6.46-3.116,9.045-2.885c0,0,1.397,2.934,1.513,3.721"/>
			<path opacity="0.31" fill="none" stroke="#BC4211" stroke-width="0.1663" stroke-miterlimit="10" d="M31.561,11.039
				c0,0,5.777-3.31,8.485-3.352c0,0,1.044,1.962,1.345,2.877"/>
			<path opacity="0.31" fill="none" stroke="#BC4211" stroke-width="0.1663" stroke-miterlimit="10" d="M33.354,11.028
				c0,0,3.798-2.004,5.566-2.14c0,0,1.366,2.407,1.657,2.976"/>
			<path opacity="0.31" fill="none" stroke="#C10D23" stroke-width="0.1663" stroke-miterlimit="10" d="M31.475,14.44
				c0,0,3.338-1.482,3.821-1.588l0.486,3.213"/>
			<polyline opacity="0.31" fill="none" stroke="#C10D23" stroke-width="0.1663" stroke-miterlimit="10" points="30.631,15.781 
				33.94,14.393 34.111,17.381 			"/>
			<polyline opacity="0.31" fill="none" stroke="#C10D23" stroke-width="0.1663" stroke-miterlimit="10" points="29.872,17.73 
				32.063,16.608 31.778,18.794 			"/>
			<path opacity="0.31" fill="none" stroke="#BC3511" stroke-width="0.1663" stroke-miterlimit="10" d="M36.814,11.301
				c0,0,1.483,1.991,1.426,3.171"/>
			<path opacity="0.31" fill="none" stroke="#BC4211" stroke-width="0.1663" stroke-miterlimit="10" d="M37.898,10.152
				c0,0,1.536,2.081,1.73,3.529"/>
			
				<linearGradient id="SVGID_4_" gradientUnits="userSpaceOnUse" x1="-22.4595" y1="27.5415" x2="-25.4035" y2="5.169" gradientTransform="matrix(0.6845 0.3342 0.5571 -0.7745 43.2904 33.1152)">
				<stop  offset="0" style="stop-color:#DF4800"/>
				<stop  offset="1" style="stop-color:#BF0600"/>
			</linearGradient>
			<path fill="url(#SVGID_4_)" d="M45.281,1.903l0.331,0.329c0,0-14.388,13.833-16.842,18.804
				C28.77,21.036,32.873,14.52,45.281,1.903z"/>
		</g>
		<g>
			<defs>
				<path id="SVGID_5_" d="M43.753,11.584c-0.366-0.594-0.73-1.297-1.707-0.085c-0.978,1.213-0.955,2.504,0.051,2.882
					c0.001,0.003,0.001,0.002,0.001,0.002c-1.182,1.067-2.41,1.985-3.622,2.768c-0.171-0.777-0.944-0.973-1.755-0.504
					c-0.746,0.634-1.242,1.632-0.877,2.028c-4.083,2.108-7.433,2.741-7.433,2.741c2.583-7.96-1.289-6.38,5.616-14.408
					c4.56-5.299,8.507-5.467,11.355-5.072c0.98,1.384,2.89,2.929,0.107,8.637C45.409,10.516,44.555,10.399,43.753,11.584z
					 M34.436,11.377c-0.396-0.149-0.903-0.045-1.126,0.233c-0.008,0.007-0.011,0.015-0.017,0.025
					c-0.496-0.181-1.013-0.206-1.434,0.314c-0.429,0.533-0.285,0.933,0.221,1.126c0.507,0.191,0.811-0.053,1.614-0.647
					c0.021-0.017,0,0,0.019-0.016c0.381,0.105,0.83,0,1.038-0.258C34.976,11.876,34.834,11.528,34.436,11.377z"/>
			</defs>
			<clipPath id="SVGID_6_">
				<use xlink:href="#SVGID_5_"  overflow="visible"/>
			</clipPath>
			
				<linearGradient id="SVGID_7_" gradientUnits="userSpaceOnUse" x1="-39.2896" y1="81.623" x2="-27.4643" y2="79.4118" gradientTransform="matrix(0.7437 0.3642 0.5848 -0.8116 18.0991 94.2204)">
				<stop  offset="0" style="stop-color:#7F3600"/>
				<stop  offset="1" style="stop-color:#FF875F"/>
			</linearGradient>
			<path opacity="0.28" clip-path="url(#SVGID_6_)" fill="url(#SVGID_7_)" d="M25.75,24.25c0,0,2.014-2.117,2.661-2.833
				c4.056-6.405,17.244-19.818,17.244-19.818l4.554,6.579L33.939,23.203L25.75,24.25z"/>
		</g>
	</g>
</g>
</svg>
