<?xml version="1.0" encoding="utf-8"?>
<!-- Generator: Adobe Illustrator 15.0.0, SVG Export Plug-In . SVG Version: 6.00 Build 0)  -->
<!DOCTYPE svg PUBLIC "-//W3C//DTD SVG 1.1//EN" "http://www.w3.org/Graphics/SVG/1.1/DTD/svg11.dtd">
<svg version="1.1" id="レイヤー_1" xmlns="http://www.w3.org/2000/svg" xmlns:xlink="http://www.w3.org/1999/xlink" x="0px"
	 y="0px" width="64px" height="64px" viewBox="0 0 64 64" style="enable-background:new 0 0 64 64;" xml:space="preserve">
<g>
	<path style="fill:#ECBAAA;" d="M18.1391602,15.6650391c0,0-5.3330078-1.6665039-7.3330078-0.6665039s-3.5,7.5-4,9.1665039
		s-4.6669922,10.6669922-1.3330078,13c3.3330078,2.3330078,15.8330078,3.5,15.8330078,3.5
		S34.8056641,19.6650391,18.1391602,15.6650391z"/>
	<path style="fill:#BB806F;" d="M21.3061523,41.3652344c-0.0214844,0-0.043457-0.0009766-0.0649414-0.0029297
		c-0.5180664-0.0488281-12.7241211-1.2119141-16.1694336-3.6240234c-3.277832-2.2939453-0.6303711-9.265625,0.6420898-12.6166992
		c0.1958008-0.5151367,0.3496094-0.9165039,0.421875-1.1577148c0.0678711-0.2260742,0.1542969-0.543457,0.2583008-0.9243164
		c1.0141602-3.7084961,2.2504883-7.7426758,4.0991211-8.6669922c0.5292969-0.2646484,1.2241211-0.3935547,2.1235352-0.3935547
		c2.4458008,0,5.5981445,0.9765625,5.7314453,1.0180664c4.0654297,0.9741211,6.784668,3.0541992,8.0366211,6.1699219
		c3.1508789,7.8442383-4.1762695,19.3886719-4.4897461,19.8769531
		C21.765625,41.2451172,21.5429688,41.3652344,21.3061523,41.3652344z M12.6166992,15.3789063
		c-0.831543,0-1.2734375,0.1337891-1.4975586,0.2456055c-1.4438477,0.722168-2.8461914,5.8530273-3.3745117,7.7841797
		c-0.1079102,0.3945313-0.1977539,0.7231445-0.2680664,0.9575195c-0.078125,0.2607422-0.2421875,0.6953125-0.4536133,1.2524414
		c-0.9663086,2.5449219-3.5332031,9.3041992-1.1484375,10.9731445c2.8076172,1.9648438,12.8535156,3.1035156,15.0649414,3.3330078
		c1.1987305-1.9960938,6.7373047-11.7900391,4.1450195-18.237793c-1.0727539-2.6694336-3.4648438-4.4667969-7.1088867-5.3413086
		C17.8999023,16.3237305,14.8466797,15.3789063,12.6166992,15.3789063z"/>
	<path style="fill:#FFE5D8;" d="M59.8056641,45.3320313c0,0-12.8330078-6.6660156-15.3330078-7.5
		c0,0-7.8330078,7.3330078-14.1665039,6.8330078c0,0-7.8330078,3.9990234-13,4.8330078s-6.5-5.1660156-5.5-7.6660156
		s9-5.1669922,9-5.1669922l-0.1669922-2.1669922l-2.3330078-1.5l-1.5,1.6669922c0,0,0.8330078,8.6669922-10.3330078,4.6669922
		C3.1040039,38.125,8.472168,27.4980469,9.1391602,25.331543s-1.8339844-13.1669922,11.5-10.5
		c13.3334961,2.6669922,11.6030273,1.8432617,19.3334961,3.5c2.3330078,0.5,4.5-2.3334961,9.1669922-0.6665039
		c4.6660156,1.6665039,10.6660156,2.1665039,10.6660156,2.1665039"/>
	<path style="fill:#ECBAAA;" d="M12.1391602,46.4980469c0,0,7.6669922,7.1669922,15.6669922-6.1660156
		c1.5-2.3339844,10.8334961,0.3320313,14.1665039-3.8339844s2.8330078-1,2.8330078-1s10.6679688,5.8330078,14.3339844,3
		l0.6660156,6.8339844l-15.5-6.6669922c0,0-9.9990234,6.1669922-13.9995117,6
		C30.3061523,44.6650391,15.472168,53.3310547,12.1391602,46.4980469z"/>
	<path style="fill:#FFB896;" d="M16.1391602,24.4985352c0,0,3,4.4995117,2.1669922,8.4995117"/>
	<line style="fill:#FFB896;" x1="11.4731445" y1="37.4980469" x2="16.8061523" y2="34.6650391"/>
	<path style="fill:#ECBAAA;" d="M16.1391602,35.1650391c0,0,2.1669922-5.6665039,1.6669922-7.1665039
		c0,0,2.8330078,3.1665039,8.3330078,2.1665039c0,0-5,7.1669922-7.8330078,7.5L16.1391602,35.1650391z"/>
	<line style="fill:#FFB896;" x1="20.6391602" y1="34.4980469" x2="23.4731445" y2="32.4980469"/>
	<path style="fill:#FFB896;" d="M20.8061523,36.6650391c0,0,3.8330078-4.6660156,6.6669922-7"/>
	<path style="fill:#FFB896;" d="M44.4726563,32.4980469c0,0,0.5,2.6679688,0,5.3339844"/>
	<path style="fill:#BB806F;" d="M16.3457031,50.2783203c-2.0117188,0-3.2763672-1.0039063-4.012207-1.9228516
		c-1.6025391-2.0019531-1.8588867-5.0791016-1.1772461-6.7832031c0.0200195-0.0498047,0.0419922-0.0996094,0.0664063-0.1494141
		c-3.300293-0.5957031-4.7553711-1.3007813-5.046875-1.4560547c-0.5449219-0.2226563-0.9619141-0.6425781-1.2084961-1.2158203
		c-0.9936523-2.3154297,0.7827148-6.9819336,2.6875-11.5625c0.3720703-0.8945313,0.6938477-1.6674805,0.8154297-2.0629883
		c0.0888672-0.2880859,0.1088867-0.9443359,0.1298828-1.6386719c0.0737305-2.4038086,0.1855469-6.0356445,2.8764648-8.1738281
		c2.0205078-1.6054688,5.1494141-1.9980469,9.2998047-1.1679688c7.1289063,1.4262695,9.9399414,1.8515625,12.1992188,2.1933594
		c1.9755859,0.2993164,3.5351563,0.5351563,7.1435547,1.3085938c0.7138672,0.152832,1.4609375-0.1088867,2.4121094-0.4399414
		c1.6699219-0.5820313,3.7490234-1.3061523,6.84375-0.2011719c4.5224609,1.6152344,10.4296875,2.1230469,10.4892578,2.1279297
		c0.3623047,0.0302734,0.6416016,0.3339844,0.6416016,0.6977539v25.5004883c0,0.2441406-0.1279297,0.4716797-0.3369141,0.5986328
		c-0.2089844,0.1259766-0.4707031,0.1347656-0.6855469,0.0224609c-0.1230469-0.0634766-11.71875-6.0820313-14.8544922-7.3173828
		c-1.5605469,1.3876953-8.3134766,7.0605469-14.1782227,6.7402344c-1.2158203,0.6103516-8.184082,4.0302734-13.0332031,4.8134766
		C17.0390625,50.25,16.6816406,50.2783203,16.3457031,50.2783203z M18.3061523,32.7978516
		c0.0932617,0,0.1870117,0.019043,0.2758789,0.0566406l2.3330078,1c0.2392578,0.1025391,0.4018555,0.3300781,0.421875,0.5898438
		l0.1669922,2.1669922c0.0249023,0.3203125-0.1713867,0.6162109-0.4760742,0.7177734
		c-2.9746094,0.9921875-7.9316406,3.1630859-8.5717773,4.7626953c-0.5268555,1.3173828-0.2578125,3.8544922,0.9702148,5.3886719
		c0.9111328,1.1367188,2.1782227,1.5830078,3.7685547,1.3261719C22.1918945,48,29.9106445,44.0810547,29.987793,44.0419922
		c0.1157227-0.0595703,0.2451172-0.0820313,0.3735352-0.0751953c5.9472656,0.4921875,13.5576172-6.5742188,13.6328125-6.6455078
		c0.1875-0.1767578,0.4570313-0.2353516,0.7001953-0.1533203c2.1308594,0.7109375,11.296875,5.4072266,14.4111328,7.0136719
		V20.4667969c-1.6875-0.1782227-6.3476563-0.7661133-10.2011719-2.1425781
		c-2.6308594-0.9384766-4.3740234-0.3310547-5.9130859,0.2050781c-1.0644531,0.371582-2.0703125,0.7207031-3.1650391,0.4868164
		c-3.5673828-0.7646484-5.1083984-0.9980469-7.0600586-1.293457c-2.2734375-0.34375-5.1030273-0.7724609-12.2641602-2.2045898
		c-3.7285156-0.7480469-6.472168-0.4462891-8.1542969,0.8911133c-2.1826172,1.7338867-2.2822266,4.9755859-2.3481445,7.1206055
		c-0.0263672,0.8598633-0.046875,1.5390625-0.1914063,2.0078125c-0.1411133,0.4594727-0.4584961,1.222168-0.8603516,2.1884766
		c-1.1484375,2.7612305-3.5375977,8.5063477-2.6938477,10.472168c0.1064453,0.2480469,0.2514648,0.3964844,0.4697266,0.4804688
		c0.034668,0.0126953,0.0688477,0.0292969,0.1010742,0.0478516c0.0102539,0.0058594,1.4853516,0.8193359,5.4135742,1.4492188
		c2.0859375-1.8583984,6.2758789-3.4482422,7.8286133-3.9960938l-0.0932617-1.2050781l-1.5634766-0.6708984l-1.1743164,0.9140625
		c-0.3051758,0.2373047-0.7446289,0.1826172-0.9824219-0.1230469c-0.2373047-0.3046875-0.1821289-0.7451172,0.1230469-0.9824219
		l1.5-1.1665039C18.0014648,32.8481445,18.1533203,32.7978516,18.3061523,32.7978516z"/>
	<path style="fill:#BB806F;" d="M18.3066406,33.6982422c-0.046875,0-0.0952148-0.0048828-0.1430664-0.0146484
		c-0.378418-0.0791016-0.621582-0.4501953-0.5424805-0.828125c0.7641602-3.6704102-2.0361328-7.9262695-2.0644531-7.96875
		c-0.2143555-0.3212891-0.1274414-0.7563477,0.1943359-0.9707031c0.3208008-0.2138672,0.7558594-0.128418,0.9707031,0.1943359
		c0.1289063,0.1933594,3.1523438,4.7919922,2.2695313,9.0302734C18.9228516,33.4707031,18.6313477,33.6982422,18.3066406,33.6982422
		z"/>
	<path style="fill:#BB806F;" d="M13.8066406,37.1982422c-0.2358398,0-0.4658203-0.1191406-0.5976563-0.3349609
		c-0.2016602-0.3300781-0.0976563-0.7607422,0.2324219-0.9628906l3-1.8330078
		c0.3291016-0.2001953,0.7612305-0.0976563,0.9619141,0.2324219c0.2016602,0.3300781,0.0976563,0.7607422-0.2324219,0.9628906
		l-3,1.8330078C14.0571289,37.1650391,13.9311523,37.1982422,13.8066406,37.1982422z"/>
	<path style="fill:#BB806F;" d="M20.8056641,37.3652344c-0.15625,0-0.3134766-0.0527344-0.4438477-0.1591797
		c-0.2988281-0.2451172-0.3417969-0.6865234-0.0966797-0.9853516c0.1582031-0.1923828,3.9091797-4.7456055,6.7631836-7.0961914
		c0.2978516-0.2456055,0.7387695-0.2036133,0.9853516,0.0957031c0.2456055,0.2983398,0.203125,0.7392578-0.0957031,0.9853516
		c-2.7475586,2.2631836-6.5332031,6.8579102-6.5708008,6.9038086
		C21.2084961,37.2783203,21.0078125,37.3652344,20.8056641,37.3652344z"/>
	<path style="fill:#BB806F;" d="M44.4736328,38.5322266c-0.0429688,0-0.0859375-0.0039063-0.1298828-0.0117188
		c-0.3798828-0.0712891-0.6298828-0.4375-0.5595703-0.8173828c0.46875-2.4980469,0.0048828-5.0512695,0-5.0766602
		c-0.0703125-0.3798828,0.1806641-0.7456055,0.5605469-0.8164063c0.3701172-0.0688477,0.7451172,0.1787109,0.8164063,0.559082
		c0.0205078,0.1142578,0.5175781,2.8291016,0,5.5917969C45.0976563,38.2978516,44.8037109,38.5322266,44.4736328,38.5322266z"/>
</g>
</svg>
