<?xml version="1.0" encoding="utf-8"?>
<!-- Generator: Adobe Illustrator 18.0.0, SVG Export Plug-In . SVG Version: 6.00 Build 0)  -->
<!DOCTYPE svg PUBLIC "-//W3C//DTD SVG 1.1//EN" "http://www.w3.org/Graphics/SVG/1.1/DTD/svg11.dtd">
<svg version="1.1" id="レイヤー_1" xmlns="http://www.w3.org/2000/svg" xmlns:xlink="http://www.w3.org/1999/xlink" x="0px"
	 y="0px" width="64px" height="64px" viewBox="0 0 64 64" style="enable-background:new 0 0 64 64;" xml:space="preserve">
<g>
	<linearGradient id="SVGID_1_" gradientUnits="userSpaceOnUse" x1="31.3861084" y1="54.5" x2="31.3861084" y2="9.3543701">
		<stop  offset="0" style="stop-color:#E75513"/>
		<stop  offset="0.6" style="stop-color:#F8EB00"/>
		<stop  offset="1" style="stop-color:#FFFFFF"/>
	</linearGradient>
	<polygon style="fill:url(#SVGID_1_);" points="54.3398438,34.647644 60.7722168,31.944397 54.2925415,29.3989258 
		58.6307373,24.2172241 51.8265991,23.2711182 54.4854126,16.5888062 48.1570435,20.0250244 46.6057739,13.4449463 
		41.4558105,17.6281128 39.8475342,11.1447754 34.9112549,15.732605 32.2895508,9.3543701 28.7069092,15.2607422 
		24.1646118,10.0418701 22.6682129,16.8187256 16.9683228,13.204834 16.2643433,19.8895874 9.9490967,16.902832 
		11.8746338,23.6260986 4.9859009,23.5326538 8.7695923,29.4032593 2,31.9946289 8.7875366,34.4164429 5.1876221,40.4572754 
		12.0618286,39.3828125 10.867981,46.043335 14.4666748,44.6566162 7.0841675,54.5 16.9906006,47.0701904 16.8761597,50.390686 
		22.644043,46.6912231 24.4470825,53.4264526 28.3392334,47.6953735 31.9034424,53.1573486 35.9142456,47.9325562 
		39.8104248,53.8621216 40.4030762,47.4262695 47.1244507,49.9797974 46.9153442,43.3546143 53.1035156,45.9523926 
		51.7004395,39.3342285 58.5979614,40.1517334 	"/>
	<linearGradient id="SVGID_2_" gradientUnits="userSpaceOnUse" x1="31.3861084" y1="54.4999962" x2="31.3861084" y2="9.3543739">
		<stop  offset="0" style="stop-color:#E75513"/>
		<stop  offset="0.4" style="stop-color:#F8EB00"/>
		<stop  offset="0.8" style="stop-color:#FFFFFF"/>
	</linearGradient>
	<path style="fill:url(#SVGID_2_);" d="M32.0314903,12.6720848l1.4923973,3.6307907l0.8229446,2.0021324l1.5855865-1.4736671
		l3.0720139-2.8551636l0.9954987,4.013073l0.5685768,2.2920685l1.8330231-1.4889107l3.2931747-2.674942l1.0023575,4.2517509
		l0.4504776,1.9108238l1.7252655-0.9368019l2.687027-1.4590187l-1.1269569,2.8323555l-0.7070007,1.7768631l1.8941307,0.2633896
		l4.1227303,0.5732651l-2.6003265,3.1059265l-1.3373146,1.597332l1.9389915,0.7617111l3.045002,1.1961937l-3.0303917,1.2735367
		l-1.7999458,0.7564354l1.1946793,1.5442543l2.070076,2.6758003l-3.3465195-0.3966331l-2.0778885-0.2462654l0.4339523,2.0469322
		l0.8087463,3.8147583l-3.545845-1.488533l-2.1535454-0.9040451l0.0736771,2.3344421l0.1381454,4.3767014l-4.6184311-1.7545891
		l-1.8453789-0.7010765l-0.1810226,1.9657516l-0.199543,2.166893l-1.5420113-2.3467789l-1.1586571-1.7633438l-1.28479,1.6736755
		l-2.7216873,3.5455017l-2.4072781-3.6890335l-1.2312775-1.8868675l-1.2658119,1.8638802l-2.0501308,3.0187607l-0.9551907-3.5680962
		l-0.5308552-1.9829979l-1.7279453,1.1082878l-3.3604355,2.1553535l0.0159245-0.4621124l0.107933-3.1319427l-2.5070438,1.8802795
		l-1.5064964,1.1298676l1.0825739-1.4434357l3.132823-4.1771088l-4.8721666,1.8774338l-1.1128693,0.4288292l0.7238359-4.0383186
		l0.3713331-2.0716782l-2.0794449,0.3250198l-3.7193737,0.5813522L10.076086,35.18433l0.9341002-1.5674667l-1.7185669-0.6131897
		L6.3250031,31.945179l2.9808383-1.1410484l1.7254896-0.6604996l-1.0009222-1.5529785L7.7615809,25.070446l4.0927052,0.0555153
		l2.0180445,0.0273666l-0.5556774-1.9402199l-1.0131235-3.5374603l3.3195009,1.5699387l1.9115992,0.9040642l0.221468-2.1029663
		l0.4507809-4.2804794l3.6581192,2.3193588l1.8066769,1.1454773l0.461256-2.0888901l0.8545513-3.8700638l2.5879593,2.9734306
		l1.3486233,1.5494995l1.0653439-1.7563438L32.0314903,12.6720848 M32.2895546,9.3543739l-3.5826454,5.9063683l-4.5423012-5.2188683
		l-1.4963989,6.7768555l-5.6998901-3.6138992l-0.7039776,6.6847534l-6.3152437-2.9867554l1.9255333,6.7232666L4.9858971,23.53265
		l3.7837,5.8706131l-6.7695999,2.5913658l6.7875443,2.421814l-3.5999217,6.0408325l6.8742108-1.0744705l-1.1938448,6.6605225
		l3.5986891-1.3867111l-7.3825107,9.84338l9.9064331-7.4298134l-0.1144333,3.3205032l5.7678776-3.6994667l1.8030453,6.7352333
		l3.8921452-5.7310791l3.5642109,5.4619789l4.0107994-5.2248001l3.8961792,5.9295654l0.5926552-6.4358444l6.7213783,2.553524
		l-0.2091141-6.6251793l6.188179,2.5977783l-1.4030762-6.6181679l6.897522,0.8175011l-4.2581253-5.5040894l6.4323807-2.7032433
		l-6.4796791-2.5454674l4.3381996-5.1817017l-6.804142-0.9461098l2.6588097-6.682312l-6.3283653,3.4362221l-1.5512695-6.5800781
		l-5.1499672,4.1831589l-1.6082764-6.4833336l-4.9362793,4.5878334L32.2895546,9.3543739L32.2895546,9.3543739z"/>
	<path style="fill:#E53828;" d="M4.5839844,57l8.4384766-11.2509766l-2.8032227,1.0800781l1.2270508-6.84375l-7.2333984,1.1298828
		l3.8339844-6.4326172l-7.4887695-2.6713867l7.4575195-2.8544922l-3.9550781-6.1367188l7.1479492,0.0966797l-2.0439453-7.1381836
		l6.6762695,3.1577148l0.7148438-6.7851563l5.777832,3.6635742l1.5566406-7.0493164l4.7446289,5.4506836l3.7407227-6.1674805
		L35.0996094,14.875l5.0292969-4.6743164l1.6230469,6.5429688l5.1572266-4.1894531l1.5849609,6.7192383l6.9667969-3.7832031
		l-2.9345703,7.3735352l7.0673828,0.9824219L55.1220703,29.1875l6.9785156,2.7412109l-6.9667969,2.9277344l4.5888672,5.9316406
		l-7.3886719-0.8759766l1.4570313,6.8710938l-6.3515625-2.6660156l0.2080078,6.5957031l-6.8066406-2.5859375l-0.6630859,7.2041016
		l-4.2949219-6.5361328l-4.0126953,5.2265625l-3.5390625-5.4238281l-4.0839844,6.0136719l-1.9091797-7.1298828l-5.9946289,3.8447266
		l0.1118164-3.2294922L4.5839844,57z M35.9453125,47.0703125l3.4980469,5.3232422l0.5224609-5.6689453l6.6347656,2.5214844
		l-0.2099609-6.6542969l6.0253906,2.5292969l-1.3496094-6.3652344l6.40625,0.7587891l-3.9267578-5.0761719l5.8984375-2.4785156
		l-5.9804688-2.3496094l4.2041016-5.0219727l-6.5419922-0.9101563L53.5097656,17.6875l-5.6894531,3.0888672l-1.5185547-6.440918
		l-5.1416016,4.1767578l-1.59375-6.4238281l-4.84375,4.5014648l-2.519043-6.1293945l-3.4243164,5.6450195l-4.340332-4.9868164
		l-1.4365234,6.5043945l-5.621582-3.5639648L16.6875,20.6430664l-5.9536133-2.815918l1.8066406,6.3081055l-6.6293945-0.0898438
		l3.6123047,5.6044922l-6.081543,2.328125l6.0864258,2.1713867l-3.3662109,5.6494141l6.515625-1.0185547l-1.1606445,6.4765625
		l4.394043-1.6933594L9.5839844,52l7.9423828-5.9560547l-0.1176758,3.4111328l5.5415039-3.5537109l1.6972656,6.3408203
		l3.7001953-5.4492188l3.5888672,5.5L35.9453125,47.0703125z"/>
</g>
<g>
</g>
<g>
</g>
<g>
</g>
<g>
</g>
<g>
</g>
<g>
</g>
</svg>
