<?xml version="1.0" encoding="UTF-8" standalone="no"?>
<!-- Generator: Adobe Illustrator 18.0.0, SVG Export Plug-In . SVG Version: 6.00 Build 0)  -->

<svg
   xmlns:dc="http://purl.org/dc/elements/1.1/"
   xmlns:cc="http://creativecommons.org/ns#"
   xmlns:rdf="http://www.w3.org/1999/02/22-rdf-syntax-ns#"
   xmlns:svg="http://www.w3.org/2000/svg"
   xmlns="http://www.w3.org/2000/svg"
   xmlns:sodipodi="http://sodipodi.sourceforge.net/DTD/sodipodi-0.dtd"
   xmlns:inkscape="http://www.inkscape.org/namespaces/inkscape"
   version="1.1"
   id="レイヤー_1"
   x="0px"
   y="0px"
   width="64px"
   height="64px"
   viewBox="0 0 64 64"
   style="enable-background:new 0 0 64 64;"
   xml:space="preserve"
   inkscape:version="0.48.5 r10040"
   sodipodi:docname="Leo.svg"><metadata
     id="metadata58"><rdf:RDF><cc:Work
         rdf:about=""><dc:format>image/svg+xml</dc:format><dc:type
           rdf:resource="http://purl.org/dc/dcmitype/StillImage" /></cc:Work></rdf:RDF></metadata><defs
     id="defs56" /><sodipodi:namedview
     pagecolor="#ffffff"
     bordercolor="#666666"
     borderopacity="1"
     objecttolerance="10"
     gridtolerance="10"
     guidetolerance="10"
     inkscape:pageopacity="0"
     inkscape:pageshadow="2"
     inkscape:window-width="640"
     inkscape:window-height="480"
     id="namedview54" /><g
     id="g3"><g
       id="g5"><linearGradient
         id="SVGID_1_"
         gradientUnits="userSpaceOnUse"
         x1="305.8972473"
         y1="-304.0600586"
         x2="305.8972473"
         y2="-356.8203125"
         gradientTransform="matrix(1 0 0 -1 -274 -298)"><stop
           offset="0"
           style="stop-color:#9FE1FF"
           id="stop8" /><stop
           offset="0.2621"
           style="stop-color:#60A1CE"
           id="stop10" /><stop
           offset="0.5708"
           style="stop-color:#1B5B97"
           id="stop12" /><stop
           offset="0.7152"
           style="stop-color:#004082"
           id="stop14" /><stop
           offset="0.7694"
           style="stop-color:#004487"
           id="stop16" /><stop
           offset="0.8311"
           style="stop-color:#005094"
           id="stop18" /><stop
           offset="0.8963"
           style="stop-color:#0064AB"
           id="stop20" /><stop
           offset="0.9636"
           style="stop-color:#0080CB"
           id="stop22" /><stop
           offset="1"
           style="stop-color:#0092DF"
           id="stop24" /></linearGradient><path
         style="fill:url(#SVGID_1_);"
         d="M58.3144989,50.8203011c0,4.4003983-3.6005974,8-8,8H13.4799805    c-4.3999004,0-8-3.5996017-8-8V14.0600595c0-4.3998995,3.6001-7.9999995,8-7.9999995h36.8345184c4.3994026,0,8,3.6001,8,7.9999995    V50.8203011z"
         id="path26" /></g><g
       style="opacity:0.22;"
       id="g28"><path
         style="fill:#FFFFFF;"
         d="M5.47998,26.8129997C12.8608398,29.1958008,22,32.9394989,31.8969994,32.9394989    c9.8978996,0,19.036602-3.7436981,26.4174995-6.1264992c0,0,2.1035004-13.8359489-1.9179993-18.270031    C45.5918007,3.18311,18.9848595,5.1889601,8.1469698,7.9648399C3.72314,12.0571289,5.47998,26.8129997,5.47998,26.8129997z"
         id="path30" /></g><g
       id="g32"><path
         style="fill:#057CDD;"
         d="M50.3144531,59.8203125H13.4799805c-4.9624023,0-9-4.0371094-9-9V14.0600586    c0-4.9624023,4.0375977-9,9-9h36.8344727c4.9628906,0,9,4.0375977,9,9v36.7602539    C59.3144531,55.7832031,55.2773438,59.8203125,50.3144531,59.8203125z M13.4799805,7.0600586c-3.8598633,0-7,3.1401367-7,7    v36.7602539c0,3.859375,3.1401367,7,7,7h36.8344727c3.859375,0,7-3.140625,7-7V14.0600586c0-3.8598633-3.140625-7-7-7H13.4799805z    "
         id="path34" /></g></g><g
     id="g36"><path
       style="fill:#FFFFFF;"
       d="M24.9506836,45.9736328c-4.8271484,0-8.7539063-3.9267578-8.7539063-8.7539063   c0-4.8261719,3.9267578-8.7529297,8.7539063-8.7529297s8.7543945,3.9267578,8.7543945,8.7529297   C33.7050781,42.046875,29.777832,45.9736328,24.9506836,45.9736328z M24.9506836,31.4667969   c-3.1728516,0-5.7539063,2.5810547-5.7539063,5.7529297c0,3.1728516,2.5810547,5.7539063,5.7539063,5.7539063   s5.7539063-2.5810547,5.7539063-5.7539063C30.7045898,34.0478516,28.1235352,31.4667969,24.9506836,31.4667969z"
       id="path38" /><path
       style="fill:#FFFFFF;"
       d="M42.6474609,52.6923828c-0.1806641,0-0.3583984-0.0068359-0.5341797-0.0205078   c-3.2832031-0.2587891-5.9990234-2.6923828-6.3173828-5.6601563c-0.2246094-2.0908203,1.3310547-5.0742188,3.4833984-9.203125   c3.1142578-5.9746094,7.3798828-14.1572266,4.53125-18.5888672c-2.5537109-3.9731445-5.9130859-4.1118164-7.6933594-3.8417969   c-2.8359375,0.4331055-5.3549805,2.4262695-5.9907227,4.7397461c-0.6489258,2.3623047,0.5263672,5.1777344,1.7705078,8.1586914   c2.1176758,5.0732422,4.753418,11.3867188-2.6040039,16.5253906l-1.7177734-2.4589844   c5.1157227-3.5732422,3.9233398-7.234375,1.5532227-12.9111328c-1.3852539-3.3183594-2.8173828-6.7495117-1.8945313-10.1088867   c0.949707-3.4560547,4.4165039-6.2973633,8.4301758-6.9106445c4.25-0.6459961,8.1347656,1.2412109,10.6699219,5.1855469   c3.7910156,5.8964844-0.7480469,14.6025391-4.3945313,21.5986328c-1.5419922,2.9560547-3.2880859,6.3066406-3.1611328,7.4951172   c0.1835938,1.7099609,1.9599609,2.8623047,3.5703125,2.9892578c1.0166016,0.0820313,2.8164063-0.1582031,3.4902344-2.6484375   l2.8964844,0.7832031C47.7587891,51.4257813,45.0439453,52.6923828,42.6474609,52.6923828z"
       id="path40" /></g><g
     id="g42" /><g
     id="g44" /><g
     id="g46" /><g
     id="g48" /><g
     id="g50" /><g
     id="g52" /></svg>