<?xml version="1.0" encoding="utf-8"?>
<!-- Generator: Adobe Illustrator 15.0.2, SVG Export Plug-In . SVG Version: 6.00 Build 0)  -->
<!DOCTYPE svg PUBLIC "-//W3C//DTD SVG 1.1//EN" "http://www.w3.org/Graphics/SVG/1.1/DTD/svg11.dtd">
<svg version="1.1" id="レイヤー_1" xmlns="http://www.w3.org/2000/svg" xmlns:xlink="http://www.w3.org/1999/xlink" x="0px"
	 y="0px" width="64px" height="64px" viewBox="0 0 64 64" style="enable-background:new 0 0 64 64;" xml:space="preserve">
<g>
	<path style="fill:#53A1C4;" d="M13.7949219,1.7949219c-6.6269531,0-12,5.3730469-12,12v36.4101563c0,6.6279297,5.3730469,12,12,12
		h36.4101563c6.6269531,0,12-5.3720703,12-12V13.7949219c0-6.6269531-5.3730469-12-12-12H13.7949219z"/>
</g>
<g>
	<g>
		<path style="fill:#FFFFFF;" d="M50.2773438,31.847168h-8.7763672v18.9780273h-5.0380859v-5.953125
			c-2.6269531,4.5957031-6.4174805,6.8935547-11.3701172,6.8935547c-3.2050781,0-5.8842773-0.9746094-8.0375977-2.9257813
			c-2.2216797-2.0009766-3.3325195-4.5859375-3.3325195-7.7578125c0-5.0371094,2.5180664-8.8105469,7.5546875-11.3208008
			c-4.3071289-2.1030273-6.4609375-4.909668-6.4609375-8.4199219c0-3.1035156,1.2719727-5.4609375,3.8154297-7.0717773
			c2.1538086-1.3564453,4.8754883-2.0351563,8.1665039-2.0351563c2.7641602,0,5.46875,0.4663086,8.1137695,1.3984375v4.3510742
			c-2.8149414-1.3398438-5.6386719-2.0102539-8.4707031-2.0102539c-1.8486328,0-3.375,0.449707-4.5791016,1.3481445
			c-1.355957,0.9838867-2.034668,2.3662109-2.034668,4.1464844c0,2.8325195,1.6533203,4.7490234,4.9604492,5.75
			c1.8994141,0.5766602,4.6977539,0.8642578,8.3955078,0.8642578h17.09375V31.847168z M36.4628906,34.3662109v-2.519043h-3.9921875
			c-3.2226563,0-4.9272461,0.0083008-5.112793,0.0258789c-2.0698242,0.152832-3.6635742,0.6357422-4.7832031,1.4501953
			c-2.340332,1.7119141-3.5107422,4.1640625-3.5107422,7.3515625c0,2.0517578,0.6450195,3.7558594,1.934082,5.1132813
			c1.3051758,1.4072266,2.9765625,2.1103516,5.0112305,2.1103516c3.4086914,0,6.0708008-1.4570313,7.9868164-4.3740234
			C35.6416016,41.0136719,36.4628906,37.9609375,36.4628906,34.3662109z"/>
	</g>
</g>
</svg>
