<?xml version="1.0" encoding="utf-8"?>
<!-- Generator: Adobe Illustrator 15.0.2, SVG Export Plug-In . SVG Version: 6.00 Build 0)  -->
<!DOCTYPE svg PUBLIC "-//W3C//DTD SVG 1.1//EN" "http://www.w3.org/Graphics/SVG/1.1/DTD/svg11.dtd">
<svg version="1.1" id="レイヤー_1" xmlns="http://www.w3.org/2000/svg" xmlns:xlink="http://www.w3.org/1999/xlink" x="0px"
	 y="0px" width="64px" height="64px" viewBox="0 0 64 64" style="enable-background:new 0 0 64 64;" xml:space="preserve">
<g>
	<path style="fill:#9C9C9D;" d="M24.9003906,25.5849609c-1.1884766,0-2.3896484-0.5410156-3.4697266-1.6210938
		c-1.6518555-1.652832-2.3955078-4.4667969-0.125-6.7382813l14.265625-14.2646484
		c0.9208984-0.9199219,2.0283203-1.3920898,3.2041016-1.359375c1.1298828,0.0292969,2.25,0.5439453,3.1542969,1.4482422
		c0.8261719,0.8261719,1.2177734,1.9355469,1.1025391,3.1235352c-0.0966797,0.9907227-0.5419922,1.9692383-1.1904297,2.6176758
		l-9.3310547,9.3300781c-0.8271484,0.8286133-1.7114258,1.2275391-2.6191406,1.1665039
		c-0.8432617-0.0498047-1.6811523-0.4858398-2.4902344-1.2949219c-1.578125-1.5786133-1.4433594-3.7529297,0.3432617-5.5395508
		l5.3989258-5.3979492l0.7070313,0.7070313l-5.3989258,5.3979492c-1.3989258,1.3989258-1.5268555,2.940918-0.3432617,4.1254883
		c0.6308594,0.6308594,1.2509766,0.96875,1.8422852,1.0039063c0.6176758,0.03125,1.2363281-0.2587891,1.8530273-0.8754883
		l9.3310547-9.3300781c0.4824219-0.4824219,0.828125-1.2519531,0.9013672-2.0078125
		c0.0615234-0.6259766-0.0302734-1.5361328-0.8134766-2.3193359c-0.7324219-0.7329102-1.5878906-1.1328125-2.4736328-1.1557617
		c-0.8623047-0.0166016-1.7480469,0.3452148-2.4707031,1.0668945l-14.265625,14.2646484
		c-1.7944336,1.7954102-1.2304688,3.9677734,0.125,5.3242188c1.7050781,1.7055664,3.6948242,1.7514648,5.3227539,0.1245117
		l11.159668-11.1586914l0.7070313,0.7070313l-11.159668,11.1586914
		C27.1689453,25.0869141,26.0405273,25.5849609,24.9003906,25.5849609z"/>
	<path style="fill:#9C9C9D;" d="M26.3662109,62.4003906c-1.1884766,0-2.3891602-0.5410156-3.4692383-1.6201172
		c-1.6523438-1.6533203-2.3959961-4.4667969-0.1254883-6.7382813l14.2666016-14.2646484
		c0.9199219-0.9208984,2.0283203-1.3925781,3.203125-1.3603516c1.1298828,0.0292969,2.25,0.5439453,3.1542969,1.4482422
		c1.84375,1.84375,1.1337891,4.5185547-0.0878906,5.7412109c-0.7929688,0.7939453-7.9970703,7.9980469-9.3310547,9.3310547
		c-0.828125,0.828125-1.7109375,1.2080078-2.6196289,1.1660156c-0.8432617-0.0507813-1.6806641-0.4873047-2.4897461-1.296875
		c-0.7460938-0.7451172-1.1254883-1.6445313-1.097168-2.6005859c0.0302734-1.0097656,0.5283203-2.0263672,1.440918-2.9384766
		l5.3994141-5.3974609l0.7070313,0.7070313l-5.3994141,5.3974609c-0.7285156,0.7285156-1.1259766,1.5107422-1.1479492,2.2607422
		c-0.0205078,0.6738281,0.2578125,1.3183594,0.8046875,1.8642578c0.6308594,0.6318359,1.2504883,0.9697266,1.8422852,1.0048828
		c0.609375,0.0322266,1.2353516-0.2568359,1.8525391-0.8740234c1.3339844-1.3330078,8.5380859-8.5371094,9.3310547-9.3310547
		c0.9013672-0.9023438,1.4521484-2.9628906,0.0878906-4.3271484c-0.7324219-0.7324219-1.5878906-1.1328125-2.4736328-1.1552734
		c-0.8623047-0.0292969-1.7480469,0.3447266-2.4697266,1.0673828L23.4785156,54.7490234
		c-1.7949219,1.7949219-1.2299805,3.9677734,0.1254883,5.3242188c1.7050781,1.7041016,3.6943359,1.7490234,5.3222656,0.1240234
		l11.159668-11.1582031l0.7070313,0.7070313l-11.159668,11.1582031
		C28.6347656,61.9023438,27.5063477,62.4003906,26.3662109,62.4003906z"/>
	<path style="fill:#9C9C9D;" d="M38.3193359,43.8662109c-1.078125,0-2.2001953-0.4140625-3.2138672-1.4277344l-0.8486328-0.8486328
		c-2.878418-2.8779297-11.7915039-11.7919922-13.4169922-13.4160156c-1.8457031-1.8466797-1.809082-4.4614258,0.0888672-6.3583984
		c0.8261719-0.8266602,1.9360352-1.2211914,3.1235352-1.1020508c0.9912109,0.0961914,1.9697266,0.5415039,2.6181641,1.1904297
		c0.793457,0.7919922,7.9975586,7.9960938,9.3305664,9.3305664c1.6054688,1.605957,1.5595703,3.4208984-0.1289063,5.109375
		C34.2919922,37.9199219,32.1176758,37.7851563,30.3320313,36l-5.3979492-5.3999023l0.7070313-0.7070313l5.3979492,5.3999023
		c1.3979492,1.3964844,2.9404297,1.5253906,4.1259766,0.34375c1.3037109-1.3037109,1.3447266-2.4785156,0.1289063-3.6953125
		c-1.3330078-1.3344727-8.5371094-8.5375977-9.3305664-9.3300781c-0.4829102-0.4833984-1.2519531-0.8291016-2.0083008-0.902832
		c-0.6230469-0.0625-1.5361328,0.0307617-2.3193359,0.8139648c-1.5048828,1.5048828-1.5405273,3.4916992-0.0888672,4.9443359
		c1.6254883,1.6235352,10.5385742,10.5380859,13.4169922,13.4160156L35.8125,41.7314453
		c1.796875,1.796875,3.9677734,1.2304688,5.3242188-0.1240234c0.8349609-0.8359375,1.2900391-1.7636719,1.3154297-2.6835938
		c0.0253906-0.9228516-0.3867188-1.8349609-1.1914063-2.6396484L30.1015625,25.1254883l0.7070313-0.7070313l11.1591797,11.1586914
		c1.0039063,1.0029297,1.5175781,2.1699219,1.484375,3.3740234c-0.0322266,1.1806641-0.5888672,2.3427734-1.6083984,3.3632813
		C40.9287109,43.2294922,39.6572266,43.8662109,38.3193359,43.8662109z"/>
</g>
</svg>
