<?xml version="1.0" encoding="UTF-8"?>
<!-- Generated by phantom_svg. -->
<svg id="phantom_svg" width="64px" height="64px" xmlns="http://www.w3.org/2000/svg" xmlns:xlink="http://www.w3.org/1999/xlink" version="1.1">
  <defs>
    <!-- Images. -->
    <svg id="frame0" viewBox="0 0 64 64" preserveAspectRatio="none" xmlns:dc="http://purl.org/dc/elements/1.1/" xmlns:cc="http://creativecommons.org/ns#" xmlns:rdf="http://www.w3.org/1999/02/22-rdf-syntax-ns#" xmlns:svg="http://www.w3.org/2000/svg" xmlns="http://www.w3.org/2000/svg" xmlns:sodipodi="http://sodipodi.sourceforge.net/DTD/sodipodi-0.dtd" xmlns:inkscape="http://www.inkscape.org/namespaces/inkscape">
      <metadata id="frame0_metadata9">
        <rdf:RDF>
          <cc:Work rdf:about=''>
            <dc:format>
              image/svg+xml
            </dc:format>
            <dc:type rdf:resource='http://purl.org/dc/dcmitype/StillImage'/>
          </cc:Work>
        </rdf:RDF>
      </metadata>
      <defs id="frame0_defs7"/>
      <sodipodi:namedview pagecolor="#ffffff" bordercolor="#666666" borderopacity="1" objecttolerance="10" gridtolerance="10" guidetolerance="10" inkscape:pageopacity="0" inkscape:pageshadow="2" inkscape:window-width="640" inkscape:window-height="480" id="frame0_namedview5"/>
      <path style="fill:#00B9F9;" d="M56.3710938,7.6289063c-1.5-1.5-3.4941406-2.3251953-5.6162109-2.3251953  s-4.1171875,0.8261719-5.6171875,2.3261719L34.0839844,18.6835938c-1.5004883,1.5-2.3266602,3.4951172-2.3266602,5.6162109  c0.0004883,1.4370117,0.3876953,2.8115234,1.0981445,4.0170898l-4.5380859,4.5375977  c-1.2060547-0.7104492-2.5805664-1.0976563-4.0175781-1.0976563c-2.121582,0-4.1162109,0.8261719-5.6157227,2.3261719  L7.6298828,45.1367188c-3.097168,3.0966797-3.0976563,8.1367188-0.0009766,11.2333984  c1.5009766,1.5,3.4956055,2.3261719,5.6171875,2.3261719s4.1162109-0.8261719,5.6162109-2.3261719l11.0541992-11.0546875  c1.5004883-1.5,2.3266602-3.4941406,2.3261719-5.6162109c0-1.4365234-0.3867188-2.8105469-1.097168-4.0166016l4.5380859-4.5375977  c1.2060547,0.7109375,2.5800781,1.0981445,4.0175781,1.0981445c2.1210938,0,4.1152344-0.8261719,5.6152344-2.3261719  l11.0546875-11.0537109C59.4677734,15.765625,59.4677734,10.7265625,56.3710938,7.6289063z M28.2426758,39.6992188  c0,1.0537109-0.409668,2.0429688-1.1542969,2.7880859L16.0341797,53.5419922c-1.4892578,1.4882813-4.0874023,1.4882813-5.5766602,0  c-1.5375977-1.5371094-1.5371094-4.0390625,0.0004883-5.5771484l11.0546875-11.0537109  c0.7441406-0.7441406,1.734375-1.1542969,2.7871094-1.1542969c0.3359375,0,0.6611328,0.0556641,0.9785156,0.1367188  l-2.5029297,2.5029297c-0.78125,0.78125-0.78125,2.046875,0,2.828125c0.3901367,0.390625,0.9023438,0.5859375,1.4140625,0.5859375  s1.0234375-0.1953125,1.4140625-0.5859375l2.5024414-2.5019531C28.1865234,39.0390625,28.2426758,39.3632813,28.2426758,39.6992188z   M53.5429688,16.0351563L42.4882813,27.0888672c-0.9804688,0.9794922-2.4335938,1.3007813-3.7402344,0.9926758l2.4775391-2.4780273  c0.78125-0.7802734,0.78125-2.046875,0-2.828125s-2.046875-0.78125-2.828125,0l-2.5029297,2.5024414  c-0.0800781-0.3173828-0.1367188-0.6420898-0.1367188-0.9780273c0-1.0527344,0.4091797-2.0429688,1.1542969-2.7871094  l11.0537109-11.0537109c0.7451172-0.7451172,1.7353516-1.1552734,2.7890625-1.1552734s2.0439453,0.4091797,2.7880859,1.1533203  C55.0800781,11.9951172,55.0800781,14.4970703,53.5429688,16.0351563z" id="frame0_path3"/>
    </svg>
    <!-- Animation. -->
    <symbol id="animation">
      <use xlink:href="#frame0" visibility="hidden">
        <set id="frame0_anim" attributeName="visibility" to="visible" begin="0s;frame0_anim.end" dur="0.1s"/>
      </use>
    </symbol>
  </defs>
  <!-- Main control. -->
  <animate id="controller" begin="0s" dur="0.1s" repeatCount="indefinite"/>
  <use xlink:href="#frame0">
    <set attributeName="xlink:href" to="#animation" begin="controller.begin"/>
    <set attributeName="xlink:href" to="#frame0" begin="controller.end"/>
  </use>
</svg>