<?xml version="1.0" encoding="utf-8"?>
<!-- Generator: Adobe Illustrator 15.0.2, SVG Export Plug-In . SVG Version: 6.00 Build 0)  -->
<!DOCTYPE svg PUBLIC "-//W3C//DTD SVG 1.1//EN" "http://www.w3.org/Graphics/SVG/1.1/DTD/svg11.dtd">
<svg version="1.1" id="レイヤー_1" xmlns="http://www.w3.org/2000/svg" xmlns:xlink="http://www.w3.org/1999/xlink" x="0px"
	 y="0px" width="64px" height="64px" viewBox="0 0 64 64" style="enable-background:new 0 0 64 64;" xml:space="preserve">
<g>
	<linearGradient id="SVGID_1_" gradientUnits="userSpaceOnUse" x1="20.840332" y1="11.8925781" x2="52.7573967" y2="60.3091202">
		<stop  offset="0" style="stop-color:#FFFFFF"/>
		<stop  offset="1" style="stop-color:#1FB2FF"/>
	</linearGradient>
	<polygon style="fill:url(#SVGID_1_);" points="19.1616211,22.9658203 19.1616211,41.0332031 40.8662109,53.4160156 
		40.8662109,10.5839844 	"/>
	<path style="fill:#003C93;" d="M41.8662109,55.1376953L18.1616211,41.6142578V22.3852539L41.8662109,8.8623047V55.1376953z
		 M20.1616211,40.4521484l19.7045898,11.2421875V12.3056641L20.1616211,23.5463867V40.4521484z"/>
</g>
<g>
	<linearGradient id="SVGID_2_" gradientUnits="userSpaceOnUse" x1="3.7246094" y1="23.1757813" x2="35.6415977" y2="71.5922089">
		<stop  offset="0" style="stop-color:#FFFFFF"/>
		<stop  offset="1" style="stop-color:#1FB2FF"/>
	</linearGradient>
	<rect x="3.3408203" y="23.3925781" style="fill:url(#SVGID_2_);" width="12.4018555" height="17.2148438"/>
	<path style="fill:#003C93;" d="M16.7426758,41.6074219H2.3408203V22.3925781h14.4018555V41.6074219z M4.3408203,39.6074219
		h10.4018555V24.3925781H4.3408203V39.6074219z"/>
</g>
<path style="fill:#2699F7;" d="M48.4521484,32c0-1.0283203-0.2412109-4.1738281-3.1748047-6.6240234L45.2763672,26.34375
	c0,0,1.7089844,1.9355469,1.5878906,5.65625c0.1210938,3.7207031-1.5878906,5.65625-1.5878906,5.65625v0.9677734
	C48.2109375,36.1728516,48.4521484,33.0283203,48.4521484,32z"/>
<path style="fill:#2699F7;" d="M54.9941406,32c0-1.6416016-0.3847656-6.6630859-5.0683594-10.5742188l-0.0019531,1.5449219
	c0,0,2.7285156,3.0898438,2.5361328,9.0292969c0.1923828,5.9384766-2.5361328,9.0292969-2.5361328,9.0292969v1.5449219
	C54.609375,38.6621094,54.9941406,33.640625,54.9941406,32z"/>
<path style="fill:#2699F7;" d="M61.7294922,32c0-2.3808594-0.5585938-9.6650391-7.3515625-15.3369141l-0.0009766,2.2402344
	c0,0,3.9570313,4.4824219,3.6767578,13.0966797c0.2802734,8.6142578-3.6767578,13.0957031-3.6767578,13.0957031v2.2412109
	C61.1708984,41.6630859,61.7294922,34.3808594,61.7294922,32z"/>
</svg>
