<?xml version="1.0" encoding="utf-8"?>
<!-- Generator: Adobe Illustrator 15.0.2, SVG Export Plug-In . SVG Version: 6.00 Build 0)  -->
<!DOCTYPE svg PUBLIC "-//W3C//DTD SVG 1.1//EN" "http://www.w3.org/Graphics/SVG/1.1/DTD/svg11.dtd">
<svg version="1.1" id="レイヤー_1" xmlns="http://www.w3.org/2000/svg" xmlns:xlink="http://www.w3.org/1999/xlink" x="0px"
	 y="0px" width="64px" height="64px" viewBox="0 0 64 64" enable-background="new 0 0 64 64" xml:space="preserve">
<g>
	<g>
		<linearGradient id="SVGID_1_" gradientUnits="userSpaceOnUse" x1="1.5425" y1="4.4683" x2="54.4594" y2="52.3017">
			<stop  offset="0" style="stop-color:#FFFFFF"/>
			<stop  offset="0.286" style="stop-color:#FFF8E7"/>
			<stop  offset="0.8856" style="stop-color:#FFE7AB"/>
			<stop  offset="1" style="stop-color:#FFE49F"/>
		</linearGradient>
		
			<rect x="5.291" y="14.25" fill="url(#SVGID_1_)" stroke="#260E00" stroke-width="1.0598" stroke-miterlimit="1" width="53.418" height="35.5"/>
		<linearGradient id="SVGID_2_" gradientUnits="userSpaceOnUse" x1="15.4043" y1="32.3486" x2="45.6555" y2="56.8497">
			<stop  offset="0" style="stop-color:#FFFFFF"/>
			<stop  offset="0.286" style="stop-color:#FFF8E7"/>
			<stop  offset="0.8856" style="stop-color:#FFE7AB"/>
			<stop  offset="1" style="stop-color:#FFE49F"/>
		</linearGradient>
		<polygon fill="url(#SVGID_2_)" stroke="#260E00" stroke-width="1.0598" stroke-miterlimit="1" points="5.151,49.75 32,20.084 
			58.849,49.75 		"/>
		<g>
			<linearGradient id="SVGID_3_" gradientUnits="userSpaceOnUse" x1="22.9321" y1="6.7002" x2="54.5986" y2="37.0336">
				<stop  offset="0" style="stop-color:#FFFFFF"/>
				<stop  offset="0.286" style="stop-color:#FFF8E7"/>
				<stop  offset="0.8856" style="stop-color:#FFE7AB"/>
				<stop  offset="1" style="stop-color:#FFE49F"/>
			</linearGradient>
			<path fill="url(#SVGID_3_)" d="M9.291,14.25c-2.2,0-2.602,1.273-0.892,2.829l20.633,18.774c1.709,1.555,4.507,1.555,6.216,0
				l20.633-18.774c1.71-1.556,1.309-2.829-0.892-2.829H9.291z"/>
			<path fill="none" stroke="#260E00" stroke-width="1.0598" stroke-miterlimit="1" d="M5.291,14.25l23.741,21.603
				c1.709,1.555,4.507,1.555,6.216,0L58.709,14.25H5.291z"/>
		</g>
	</g>
	<path opacity="0.89" fill="#FF0019" d="M44.891,25.6C42.364,18.122,32,20.464,32,27.035c0-6.571-10.363-8.913-12.89-1.435
		C16.648,32.883,25.126,42.141,32,45.012C38.874,42.141,47.352,32.883,44.891,25.6z"/>
</g>
</svg>
