<?xml version="1.0" encoding="utf-8"?>
<!-- Generator: Adobe Illustrator 15.0.2, SVG Export Plug-In . SVG Version: 6.00 Build 0)  -->
<!DOCTYPE svg PUBLIC "-//W3C//DTD SVG 1.1//EN" "http://www.w3.org/Graphics/SVG/1.1/DTD/svg11.dtd">
<svg version="1.1" id="レイヤー_1" xmlns="http://www.w3.org/2000/svg" xmlns:xlink="http://www.w3.org/1999/xlink" x="0px"
	 y="0px" width="64px" height="64px" viewBox="0 0 64 64" style="enable-background:new 0 0 64 64;" xml:space="preserve">
<g>
	<g>
		<circle style="fill:#58C4F0;" cx="32" cy="32" r="25.3027344"/>
		<path style="fill:#1E93D2;" d="M32,58.8027344C17.2207031,58.8027344,5.1972656,46.7792969,5.1972656,32
			S17.2207031,5.1972656,32,5.1972656S58.8027344,17.2207031,58.8027344,32S46.7792969,58.8027344,32,58.8027344z M32,8.1972656
			C18.875,8.1972656,8.1972656,18.875,8.1972656,32S18.875,55.8027344,32,55.8027344S55.8027344,45.125,55.8027344,32
			S45.125,8.1972656,32,8.1972656z"/>
	</g>
	<g>
		<rect x="29.9345703" y="29.2529297" style="fill:#FFFFFF;" width="4.1308594" height="4.1308594"/>
		<polygon style="fill:#FFFFFF;" points="38.1972656,43.0097656 42.328125,43.0097656 42.328125,20.9902344 38.1972656,20.9902344 
			38.1972656,25.1220703 34.0654297,25.1220703 34.0654297,29.2529297 38.1972656,29.2529297 		"/>
		<polygon style="fill:#FFFFFF;" points="25.8027344,43.0097656 25.8027344,29.2529297 29.9345703,29.2529297 
			29.9345703,25.1220703 25.8027344,25.1220703 25.8027344,20.9902344 21.671875,20.9902344 21.671875,43.0097656 		"/>
	</g>
</g>
</svg>
