<?xml version="1.0" encoding="utf-8"?>
<!-- Generator: Adobe Illustrator 15.0.2, SVG Export Plug-In . SVG Version: 6.00 Build 0)  -->
<!DOCTYPE svg PUBLIC "-//W3C//DTD SVG 1.1//EN" "http://www.w3.org/Graphics/SVG/1.1/DTD/svg11.dtd">
<svg version="1.1" id="レイヤー_1" xmlns="http://www.w3.org/2000/svg" xmlns:xlink="http://www.w3.org/1999/xlink" x="0px"
	 y="0px" width="64px" height="64px" viewBox="0 0 64 64" enable-background="new 0 0 64 64" xml:space="preserve">
<g>
	<linearGradient id="SVGID_1_" gradientUnits="userSpaceOnUse" x1="31.231" y1="66.4004" x2="36.5833" y2="66.4004">
		<stop  offset="0" style="stop-color:#FF923F"/>
		<stop  offset="0.1517" style="stop-color:#E77E33"/>
		<stop  offset="0.4694" style="stop-color:#AB4A16"/>
		<stop  offset="0.6848" style="stop-color:#7F2400"/>
		<stop  offset="1" style="stop-color:#9F3900"/>
	</linearGradient>
	
		<rect x="30.564" y="50.181" fill="url(#SVGID_1_)" stroke="#230202" stroke-width="1.0642" stroke-miterlimit="10" width="6.412" height="32.44"/>
	<linearGradient id="SVGID_2_" gradientUnits="userSpaceOnUse" x1="37.4307" y1="23.9604" x2="37.4307" y2="53.0741">
		<stop  offset="0" style="stop-color:#FF5F5F"/>
		<stop  offset="0.1265" style="stop-color:#E74848"/>
		<stop  offset="0.3918" style="stop-color:#AB0C0C"/>
		<stop  offset="0.4424" style="stop-color:#9F0000"/>
	</linearGradient>
	<path fill="url(#SVGID_2_)" stroke="#230202" stroke-width="1.1408" stroke-miterlimit="10" d="M49.847,22.094H14.152v32.488
		h24.834h10.86h10.862V32.955C60.709,26.957,55.847,22.094,49.847,22.094z"/>
	<linearGradient id="SVGID_3_" gradientUnits="userSpaceOnUse" x1="41.6035" y1="8.8828" x2="51.1796" y2="37.7853">
		<stop  offset="0" style="stop-color:#FFE01F"/>
		<stop  offset="0.5092" style="stop-color:#FFC910"/>
		<stop  offset="1" style="stop-color:#FFAE00"/>
	</linearGradient>
	<polygon fill="url(#SVGID_3_)" stroke="#230202" stroke-width="0.7323" stroke-miterlimit="10" points="53.813,7.636 37.48,7.636 
		35.764,7.636 35.764,19.163 35.764,29.353 38.288,29.353 38.288,19.163 53.813,19.163 	"/>
	<linearGradient id="SVGID_4_" gradientUnits="userSpaceOnUse" x1="34.6709" y1="43.3643" x2="-10.8308" y2="34.3639">
		<stop  offset="0" style="stop-color:#000000"/>
		<stop  offset="0.1202" style="stop-color:#180606"/>
		<stop  offset="0.3741" style="stop-color:#551515"/>
		<stop  offset="0.7372" style="stop-color:#B52D2D"/>
		<stop  offset="1" style="stop-color:#FF3F3F"/>
	</linearGradient>
	<path fill="url(#SVGID_4_)" stroke="#230202" stroke-width="1.1408" stroke-miterlimit="10" d="M25.014,32.955
		c0-5.998-4.862-10.861-10.861-10.861c-5.998,0-10.861,4.863-10.861,10.861l0,0v21.627h21.723V32.955L25.014,32.955z"/>
	<g>
		<defs>
			<path id="SVGID_5_" d="M25.014,32.955c0-5.998-4.862-10.861-10.861-10.861c-5.998,0-10.861,4.863-10.861,10.861l0,0v21.627
				h21.723V32.955L25.014,32.955z"/>
		</defs>
		<clipPath id="SVGID_6_">
			<use xlink:href="#SVGID_5_"  overflow="visible"/>
		</clipPath>
		<g clip-path="url(#SVGID_6_)">
			<linearGradient id="SVGID_7_" gradientUnits="userSpaceOnUse" x1="12.4629" y1="39.3008" x2="25.5464" y2="52.8008">
				<stop  offset="0" style="stop-color:#FFFFFF"/>
				<stop  offset="0.758" style="stop-color:#FFFCE8"/>
				<stop  offset="1" style="stop-color:#FFFBDF"/>
			</linearGradient>
			
				<rect x="9.23" y="39.787" fill="url(#SVGID_7_)" stroke="#230202" stroke-width="0.9372" stroke-miterlimit="10" width="20.744" height="13.761"/>
			<linearGradient id="SVGID_8_" gradientUnits="userSpaceOnUse" x1="15.9014" y1="35.9678" x2="28.9849" y2="49.4678">
				<stop  offset="0" style="stop-color:#FFFFFF"/>
				<stop  offset="0.758" style="stop-color:#FFFCE8"/>
				<stop  offset="1" style="stop-color:#FFFBDF"/>
			</linearGradient>
			
				<polygon fill="url(#SVGID_8_)" stroke="#230202" stroke-width="0.9372" stroke-linecap="round" stroke-linejoin="round" stroke-miterlimit="10" points="
				19.603,49.214 9.23,39.787 29.975,39.787 			"/>
		</g>
	</g>
</g>
</svg>
