<?xml version="1.0" encoding="iso-8859-1"?>
<!-- Generator: Adobe Illustrator 16.0.0, SVG Export Plug-In . SVG Version: 6.00 Build 0)  -->
<!DOCTYPE svg PUBLIC "-//W3C//DTD SVG 1.1//EN" "http://www.w3.org/Graphics/SVG/1.1/DTD/svg11.dtd">
<svg version="1.1" xmlns="http://www.w3.org/2000/svg" xmlns:xlink="http://www.w3.org/1999/xlink" x="0px" y="0px" width="64px"
	 height="64px" viewBox="0 0 64 64" style="enable-background:new 0 0 64 64;" xml:space="preserve">
<g id="man_x5F_dancing_x28_bk_x29_">
	<g id="man_x5F_dancing_x28_ye_x29__5_">
		
			<path id="path34-7-5_352_" style="fill:#4C0A02;stroke:#231815;stroke-width:2;stroke-linecap:round;stroke-linejoin:round;stroke-miterlimit:10;" d="
			M34.971,42.258c0.234-0.341,0.402-1.697-0.134-1.929c-0.535-0.228-1.878-0.505-1.878-0.505c-1.209-0.289-2.411-0.199-3.565,0.264
			c0,0-1.293,0.473-1.792,0.777c-0.496,0.306-0.147,1.627,0.133,1.929c0,0,0.732,3.819,0.025,7.853c0,0,1.623,1.709,4.259,1.514
			c2.635-0.195,4.01-2.126,4.01-2.126C34.771,46.145,34.971,42.258,34.971,42.258z"/>
		<g id="g204_8_">
			<g id="g202_9_">
				<g id="g191_6_">
					<path id="path4_56_" style="fill:#F09400;stroke:#231815;stroke-width:1.5423;stroke-miterlimit:10;" d="M44.689,20.775
						c0.605,8.465-5.891,15.821-14.504,16.438c-8.62,0.615-16.096-5.742-16.701-14.206c-0.605-8.466,5.889-15.83,14.509-16.446
						C36.607,5.944,44.085,12.31,44.689,20.775z"/>
					
						<radialGradient id="path19_1_" cx="287.3154" cy="-333.3706" r="0.5042" gradientTransform="matrix(0.9975 -0.0713 -0.0713 -0.9975 -272.6584 -295.0894)" gradientUnits="userSpaceOnUse">
						<stop  offset="0" style="stop-color:#6B6462"/>
						<stop  offset="0.3871" style="stop-color:#5E4B45"/>
						<stop  offset="0.6026" style="stop-color:#463934"/>
						<stop  offset="0.7151" style="stop-color:#3B2D27"/>
						<stop  offset="0.8698" style="stop-color:#2C221D"/>
						<stop  offset="1" style="stop-color:#1C110C"/>
					</radialGradient>
					<path id="path19_14_" style="fill:url(#path19_1_);" d="M43.966,20.827c0.577,8.072-5.618,15.085-13.832,15.673
						c-8.22,0.588-15.35-5.473-15.927-13.545C13.63,14.881,19.824,7.859,28.043,7.272C36.258,6.684,43.389,12.753,43.966,20.827z"/>
					<path id="path21_40_" style="fill:#48140F;stroke:#231815;stroke-width:2.7816;stroke-miterlimit:10;" d="M41.926,26.772
						c0.49,6.849-4.597,11.267-11.223,11.742c-6.626,0.476-12.288-3.176-12.777-10.026c-0.49-6.853,4.485-12.796,11.111-13.269
						C35.663,14.745,41.436,19.918,41.926,26.772z"/>
					<path id="path23_37_" style="fill:none;stroke:#231815;stroke-width:2.7816;stroke-miterlimit:10;" d="M43.857,27.713
						c-0.135,1.428-1.233,2.494-2.459,2.38c-1.224-0.115-2.106-1.362-1.974-2.791c0.134-1.426,1.232-2.488,2.454-2.376
						C43.105,25.041,43.99,26.29,43.857,27.713z"/>
					
						<radialGradient id="path30_1_" cx="348.2012" cy="-302.2393" r="4.3786" gradientTransform="matrix(0.9957 0.0925 0.0925 -0.9957 -277.1063 -305.6396)" gradientUnits="userSpaceOnUse">
						<stop  offset="0" style="stop-color:#C35B22"/>
						<stop  offset="1" style="stop-color:#45220E"/>
					</radialGradient>
					<path id="path30_3_" style="fill:url(#path30_1_);" d="M43.857,27.713c-0.135,1.428-1.233,2.494-2.459,2.38
						c-1.224-0.115-2.106-1.362-1.974-2.791c0.134-1.426,1.232-2.488,2.454-2.376C43.105,25.041,43.99,26.29,43.857,27.713z"/>
					
						<ellipse id="ellipse32_4_" transform="matrix(0.2329 0.9725 -0.9725 0.2329 41.6258 5.7411)" style="fill:none;stroke:#231815;stroke-width:2.7816;stroke-miterlimit:10;" cx="17.174" cy="29.258" rx="2.596" ry="2.226"/>
					
						<radialGradient id="path39_1_" cx="-135.4248" cy="-381.7471" r="4.3764" gradientTransform="matrix(-0.9724 0.2333 -0.2333 -0.9724 -203.5736 -310.3564)" gradientUnits="userSpaceOnUse">
						<stop  offset="0" style="stop-color:#C35B22"/>
						<stop  offset="1" style="stop-color:#45220E"/>
					</radialGradient>
					<path id="path39_20_" style="fill:url(#path39_1_);" d="M15.01,29.776c0.335,1.395,1.575,2.292,2.771,2.006
						c1.195-0.288,1.893-1.647,1.559-3.043c-0.334-1.393-1.573-2.287-2.771-2.002C15.375,27.024,14.676,28.385,15.01,29.776z"/>
					<path id="path41_3_" style="fill:#48140F;stroke:#231815;stroke-width:1.5;stroke-miterlimit:10;" d="M45.532,35.695
						c-0.151-0.238-1.083-0.274-2.56,0.207c-0.257,0.082-0.476,0.168-0.679,0.252c-1.313,0.289-3.655,1.398-6.121,2.746
						c-5.382,2.932-2.03,3.082-2.03,3.082c0.74,0.109,1.438-0.75,2.361-1.277c1.53-0.87,4.111-2.52,5.803-1.628
						c0.946,0.655,1.217-0.507,1.217-0.507c1.156-0.793,0.83-1.276,0.373-1.721C45.17,36.396,45.674,35.921,45.532,35.695z"/>
					
						<radialGradient id="path48_1_" cx="251.0596" cy="-365.4263" r="30.8932" gradientTransform="matrix(0.9907 -0.1364 -0.1364 -0.9907 -270.0861 -292.9514)" gradientUnits="userSpaceOnUse">
						<stop  offset="0" style="stop-color:#C35B22"/>
						<stop  offset="1" style="stop-color:#45220E"/>
					</radialGradient>
					<path id="path48_5_" style="fill:url(#path48_1_);" d="M45.532,35.695c-0.151-0.238-1.083-0.274-2.56,0.207
						c-0.257,0.082-0.476,0.168-0.679,0.252c-1.313,0.289-3.655,1.398-6.121,2.746c-5.382,2.932-2.03,3.082-2.03,3.082
						c0.74,0.109,1.438-0.75,2.361-1.277c1.53-0.87,4.111-2.52,5.803-1.628c0.946,0.655,1.217-0.507,1.217-0.507
						c1.156-0.793,0.83-1.276,0.373-1.721C45.17,36.396,45.674,35.921,45.532,35.695z"/>
					<g id="g52_4_">
						
							<ellipse id="ellipse50_4_" style="fill:#48140F;stroke:#231815;stroke-width:1.8499;stroke-linecap:round;stroke-linejoin:round;stroke-miterlimit:10;" cx="32.071" cy="51.381" rx="4.469" ry="3.375"/>
					</g>
					<ellipse id="ellipse54_20_" style="fill:#0083C5;" cx="32.071" cy="51.281" rx="4.469" ry="3.375"/>
					<path id="path56_26_" style="fill:#48140F;stroke:#231815;stroke-width:2;stroke-miterlimit:10;" d="M35.982,50.764
						c1.844,0.938,3.272,4.359,3.102,6.948s-1.252,2.904-1.84,1.612c-0.59-1.291-0.692-2.647-3.289-4.168
						C31.359,53.635,34.68,50.098,35.982,50.764z"/>
					<path id="path58_25_" style="fill:#48140F;stroke:#231815;stroke-width:2;stroke-miterlimit:10;" d="M40.684,59.658
						c-0.141-0.881-0.971-1.486-1.854-1.348c-0.883,0.14-1.487,0.969-1.348,1.854L40.684,59.658z"/>
					<path id="path60_4_" style="fill:#48140F;stroke:#231815;stroke-width:2;stroke-miterlimit:10;" d="M32.446,52.331
						c0.126,2.185-2.097,5.317-4.416,6.549c-2.317,1.231-3.139,0.417-2.323-0.813c0.813-1.227,1.932-2.045,1.926-5.229
						C27.625,49.656,32.359,50.789,32.446,52.331z"/>
					<path id="path62_13_" style="fill:#48140F;stroke:#231815;stroke-width:2;stroke-miterlimit:10;" d="M24.991,60.314
						c-0.008-0.892,0.711-1.625,1.604-1.635c0.893-0.011,1.627,0.709,1.637,1.604L24.991,60.314z"/>
					
						<ellipse id="ellipse64_6_" style="fill:#48140F;stroke:#231815;stroke-width:2;stroke-miterlimit:10;" cx="31.963" cy="51.305" rx="3.805" ry="3.375"/>
					<path id="path66_22_" style="fill:#0066CF;" d="M35.982,50.764c1.844,0.938,3.272,4.359,3.102,6.948s-1.252,2.904-1.84,1.612
						c-0.59-1.291-0.692-2.647-3.289-4.168C31.359,53.635,34.68,50.098,35.982,50.764z"/>
					<path id="path68_16_" style="fill:#9C9C9D;" d="M40.684,59.658c-0.141-0.881-0.971-1.486-1.854-1.348
						c-0.883,0.14-1.487,0.969-1.348,1.854L40.684,59.658z"/>
					<path id="path70_5_" style="fill:#0066CF;" d="M32.446,52.331c0.126,2.185-2.097,5.317-4.416,6.549
						c-2.317,1.231-3.139,0.417-2.323-0.813c0.813-1.227,1.926-2.045,1.926-5.229C27.633,48.917,32.359,50.789,32.446,52.331z"/>
					<path id="path72_8_" style="fill:#9C9C9D;" d="M24.991,60.314c-0.008-0.892,0.711-1.625,1.604-1.635
						c0.893-0.011,1.627,0.709,1.637,1.604L24.991,60.314z"/>
					<ellipse id="ellipse74_7_" style="fill:#0066CF;" cx="31.962" cy="51.504" rx="4.319" ry="3.375"/>
					<path id="path34-7-5_351_" style="fill:#0066CF;" d="M34.971,42.258c0.234-0.341,0.402-1.697-0.134-1.929
						c-0.535-0.228-1.878-0.505-1.878-0.505c-1.209-0.289-2.411-0.199-3.565,0.264c0,0-1.293,0.473-1.792,0.777
						c-0.496,0.306-0.147,1.627,0.133,1.929c0,0,0.732,3.819,0.025,7.853c0,0,1.61,1.51,4.246,1.313
						c2.637-0.194,4.023-1.927,4.023-1.927C34.771,46.145,34.971,42.258,34.971,42.258z"/>
					<radialGradient id="polygon82_1_" cx="31.75" cy="44.125" r="4.7762" gradientUnits="userSpaceOnUse">
						<stop  offset="0" style="stop-color:#C35B22"/>
						<stop  offset="1" style="stop-color:#45220E"/>
					</radialGradient>
					<polygon id="polygon82_5_" style="fill:url(#polygon82_1_);" points="32.417,40.809 30.293,40.959 30.072,37.863 
						32.195,37.711 					"/>
					
						<radialGradient id="path34-7-5_1_" cx="289.832" cy="-351.6528" r="29.5284" gradientTransform="matrix(0.9628 -0.0713 -0.0688 -0.9975 -272.354 -295.0894)" gradientUnits="userSpaceOnUse">
						<stop  offset="0" style="stop-color:#E5E2DF"/>
						<stop  offset="0" style="stop-color:#F1EFEE"/>
						<stop  offset="0" style="stop-color:#FFFFFF"/>
						<stop  offset="0.2292" style="stop-color:#FBFBFB"/>
						<stop  offset="0.4468" style="stop-color:#F0F0F0"/>
						<stop  offset="0.6598" style="stop-color:#DDDDDE"/>
						<stop  offset="0.8686" style="stop-color:#C2C3C4"/>
						<stop  offset="1" style="stop-color:#ADAEB0"/>
					</radialGradient>
					<path id="path34-7-5_350_" style="fill:url(#path34-7-5_1_);" d="M34.971,42.258c0.234-0.341,0.402-1.697-0.134-1.929
						c-0.535-0.228-1.878-0.505-1.878-0.505c-1.209-0.289-2.411-0.199-3.565,0.264c0,0-1.293,0.473-1.792,0.777
						c-0.496,0.306-0.147,1.627,0.133,1.929c0,0,0.732,2.425,0.025,6.458c2.224,2.084-0.614,1.674,4.246,1.313
						c2.637-0.194,4.023-1.926,4.023-1.926C34.771,44.75,34.971,42.258,34.971,42.258z"/>
					<path id="path102_15_" style="fill:#231815;stroke:#231815;stroke-width:1.5;stroke-miterlimit:10;" d="M33.053,39.961
						c0,0,0.348,7.122,1.215,10.984c0,0,2.529-0.26,3.01-1.205c0,0-1.607-4.891-2.237-9.699L33.053,39.961z"/>
					<polygon id="polygon104_3_" style="fill:#2CA4DE;stroke:#231815;stroke-width:1.5;stroke-miterlimit:10;" points="
						33.202,40.074 40.479,36.57 41.409,39.865 35.146,41.409 					"/>
					<path id="path106_7_" style="fill:#2CA4DE;" d="M33.053,39.961c0,0,0.348,7.122,1.215,10.984c0,0,2.529-0.26,3.01-1.205
						c0,0-1.607-4.891-2.237-9.699L33.053,39.961z"/>
					<path id="path30-2_356_" style="fill:#48140F;stroke:#231815;stroke-width:1.5;stroke-miterlimit:10;" d="M24.783,43.314
						c-0.939,0.756-1.526,1.44-1.345,3.127c0.219,0.933-0.791,0.789-0.791,0.789c-1.446,0.944-1.383-0.328-1.781-0.871
						c-0.397-0.543,0.52-2.934,3.001-4.319c2.836-1.41,4.231-1.224,4.211-0.367C28.062,42.523,26.287,42.107,24.783,43.314z"/>
					<g id="path34-7-5_349_">
						
							<radialGradient id="path30-2_1_" cx="398.2197" cy="289.3047" r="27.3367" gradientTransform="matrix(-0.008 0.8785 0.9004 0.0044 -224.5779 -312.1583)" gradientUnits="userSpaceOnUse">
							<stop  offset="0" style="stop-color:#C35B22"/>
							<stop  offset="1" style="stop-color:#45220E"/>
						</radialGradient>
						<path id="path30-2_355_" style="fill:url(#path30-2_1_);" d="M24.783,43.314c-0.939,0.756-1.526,1.44-1.345,3.127
							c0.219,0.933-0.791,0.789-0.791,0.789c-1.446,0.944-1.383-0.328-1.781-0.871c-0.397-0.543,0.52-2.934,3.001-4.319
							c2.836-1.41,5.316-1.657,4.211-0.367C28.062,42.523,26.287,42.107,24.783,43.314z"/>
					</g>
					<path id="path115_13_" style="fill:#231815;stroke:#231815;stroke-width:1.5;stroke-miterlimit:10;" d="M29.378,40.291
						c0,0,1.058,7.063,0.837,11.016c0,0-2.687,0.285-3.295-0.557c0,0,0.682-5.207,0.513-10.055L29.378,40.291z"/>
					<path id="path117_16_" style="fill:#2CA4DE;stroke:#231815;stroke-width:1.5;stroke-miterlimit:10;" d="M27.434,40.695
						c0,0-4.325,0.111-5.94,3.101l3.196,1.876c0,0,0.446-2.486,2.905-3.156L27.434,40.695z"/>
					<path id="path119_16_" style="fill:#2CA4DE;" d="M29.378,40.291c0,0,1.058,7.063,0.837,11.016c0,0-2.687,0.285-3.295-0.557
						c0,0,0.682-5.207,0.513-10.055L29.378,40.291z"/>
					<polygon id="polygon121_3_" style="fill:#868686;" points="29.902,39.3 31.253,39.91 29.979,42.288 29.152,40.05 					"/>
					<polygon id="polygon123_3_" style="fill:#868686;" points="32.418,39.141 31.208,39.916 32.827,42.098 33.292,39.785 					"/>
					
						<radialGradient id="polygon142_1_" cx="336.4863" cy="-338.8887" r="2.9233" gradientTransform="matrix(0.895 0 0 -1 -270.8938 -298)" gradientUnits="userSpaceOnUse">
						<stop  offset="0" style="stop-color:#E5E2DF"/>
						<stop  offset="0" style="stop-color:#F1EFEE"/>
						<stop  offset="0" style="stop-color:#FFFFFF"/>
						<stop  offset="0.2292" style="stop-color:#FBFBFB"/>
						<stop  offset="0.4468" style="stop-color:#F0F0F0"/>
						<stop  offset="0.6598" style="stop-color:#DDDDDE"/>
						<stop  offset="0.8686" style="stop-color:#C2C3C4"/>
						<stop  offset="1" style="stop-color:#ADAEB0"/>
					</radialGradient>
					<polygon id="polygon142_3_" style="fill:url(#polygon142_1_);" points="29.902,38.951 31.253,39.661 29.979,41.561 
						29.119,40.1 					"/>
					
						<radialGradient id="polygon161_1_" cx="-232.5938" cy="-370.4038" r="2.5426" gradientTransform="matrix(-0.8891 0.1149 -0.1028 -0.9934 -212.5972 -301.1094)" gradientUnits="userSpaceOnUse">
						<stop  offset="0" style="stop-color:#E5E2DF"/>
						<stop  offset="0" style="stop-color:#F1EFEE"/>
						<stop  offset="0" style="stop-color:#FFFFFF"/>
						<stop  offset="0.2292" style="stop-color:#FBFBFB"/>
						<stop  offset="0.4468" style="stop-color:#F0F0F0"/>
						<stop  offset="0.6598" style="stop-color:#DDDDDE"/>
						<stop  offset="0.8686" style="stop-color:#C2C3C4"/>
						<stop  offset="1" style="stop-color:#ADAEB0"/>
					</radialGradient>
					<polygon id="polygon161_3_" style="fill:url(#polygon161_1_);" points="32.418,38.792 31.208,39.667 32.827,41.369 
						33.273,39.835 					"/>
					
						<radialGradient id="path168_1_" cx="278.793" cy="-342.6895" r="22.039" gradientTransform="matrix(0.9975 -0.0713 -0.0713 -0.9975 -272.6584 -295.0894)" gradientUnits="userSpaceOnUse">
						<stop  offset="0" style="stop-color:#C35B22"/>
						<stop  offset="1" style="stop-color:#45220E"/>
					</radialGradient>
					<path id="path168_11_" style="fill:url(#path168_1_);" d="M41.926,26.772c0.49,6.849-4.597,11.267-11.223,11.742
						c-6.626,0.476-12.288-3.176-12.777-10.026c-0.49-6.853,4.485-12.796,11.111-13.269C35.663,14.745,41.436,19.918,41.926,26.772z
						"/>
					
						<path id="path170_10_" style="fill:none;stroke:#A4414A;stroke-width:0.8345;stroke-linecap:round;stroke-linejoin:round;stroke-miterlimit:10;" d="
						M36.867,20.729c0,0-1.701-1.992-3.646,0.261"/>
					
						<path id="path172_8_" style="fill:none;stroke:#40120D;stroke-width:0.8345;stroke-linecap:round;stroke-linejoin:round;stroke-miterlimit:10;" d="
						M26.181,21.493c0,0-1.702-1.992-3.646,0.261"/>
					<path id="path174_8_" style="fill:#231815;" d="M18.383,29.659c0,0-1.621-3.557-2.129-7.518
						c-0.355-2.785-0.814-4.559,1.158-7.21c2.018-2.713,5.082-6.348,10.996-6.771c5.91-0.422,9.464,2.739,11.846,5.137
						c2.33,2.344,2.126,4.166,2.172,6.973c0.063,3.993-0.498,7.707-0.498,7.707c-0.393-1.064-2.441-3.967-2.441-3.967
						c-0.717,0.052-3.084-0.521-3.084-0.521l0.064,0.922c-4.83-0.226-6.982-4.02-6.982-4.02l-0.116,5.096
						c-3.259-1.346-5.419-5.827-5.419-5.827C19.041,23.707,18.803,29.355,18.383,29.659z"/>
					
						<radialGradient id="path189_1_" cx="286.9893" cy="-333.6699" r="12.0946" gradientTransform="matrix(0.9661 -0.0691 -0.0713 -0.9975 -271.9749 -295.5065)" gradientUnits="userSpaceOnUse">
						<stop  offset="0" style="stop-color:#6B6462"/>
						<stop  offset="0.3871" style="stop-color:#5E4B45"/>
						<stop  offset="0.6026" style="stop-color:#463934"/>
						<stop  offset="0.7151" style="stop-color:#3B2D27"/>
						<stop  offset="0.8698" style="stop-color:#2C221D"/>
						<stop  offset="1" style="stop-color:#1C110C"/>
					</radialGradient>
					<path id="path189_9_" style="fill:url(#path189_1_);" d="M18.298,28.461c0,0-1.67-2.696-2.212-7.111
						c-0.38-3.104-0.703-4.567,1.269-7.218c2.018-2.713,5.083-6.349,10.996-6.771c5.911-0.423,9.463,2.738,11.847,5.137
						c2.329,2.344,2.217,3.837,2.282,6.964c0.093,4.447-0.638,7.315-0.638,7.315c-0.393-1.065-2.221-3.582-2.221-3.582
						c-0.718,0.051-3.276-0.507-3.276-0.507l0.065,0.922c-4.867-0.022-7.346-4.492-7.346-4.492l-0.154,5.396
						c-2.78-1.097-4.749-5.975-4.749-5.975C18.638,22.637,18.717,28.157,18.298,28.461z"/>
				</g>
				<path id="path209_156_" style="fill:#160201;" d="M38.48,27.379c0.121,1.699-0.651,3.141-1.724,3.217
					c-1.075,0.077-2.042-1.24-2.164-2.939c-0.122-1.708,0.648-3.153,1.724-3.229C37.389,24.351,38.357,25.671,38.48,27.379z"/>
				<g id="g200_9_">
					<g id="g198_8_">
						<g id="g196_6_">
							<circle id="circle194_4_" style="fill:#FFFFFF;" cx="36.923" cy="25.888" r="0.836"/>
						</g>
					</g>
				</g>
			</g>
		</g>
		<g id="g213_209_">
			
				<linearGradient id="path219_1_" gradientUnits="userSpaceOnUse" x1="286.6768" y1="-346.6069" x2="291.2637" y2="-346.6069" gradientTransform="matrix(0.9975 -0.0713 -0.0713 -0.9975 -272.6584 -295.0894)">
				<stop  offset="0" style="stop-color:#FFA67F"/>
				<stop  offset="0.0969" style="stop-color:#FF967B"/>
				<stop  offset="0.3655" style="stop-color:#FF7170"/>
				<stop  offset="0.6143" style="stop-color:#FF5568"/>
				<stop  offset="0.8336" style="stop-color:#FF4564"/>
				<stop  offset="1" style="stop-color:#FF3F62"/>
			</linearGradient>
			<path id="path219_6_" style="fill:url(#path219_1_);" d="M42.591,29.885c0.044,0.612-0.942,1.183-2.208,1.273
				c-1.264,0.09-2.324-0.334-2.367-0.946c-0.043-0.613,0.945-1.184,2.209-1.274S42.547,29.272,42.591,29.885z"/>
			
				<linearGradient id="path234_1_" gradientUnits="userSpaceOnUse" x1="-207.5054" y1="-347.0474" x2="-202.915" y2="-347.0474" gradientTransform="matrix(-0.9975 0.0713 -0.0713 -0.9975 -207.5894 -300.1815)">
				<stop  offset="0" style="stop-color:#FFA67F"/>
				<stop  offset="0.0969" style="stop-color:#FF967B"/>
				<stop  offset="0.3655" style="stop-color:#FF7170"/>
				<stop  offset="0.6143" style="stop-color:#FF5568"/>
				<stop  offset="0.8336" style="stop-color:#FF4564"/>
				<stop  offset="1" style="stop-color:#FF3F62"/>
			</linearGradient>
			<path id="path234_7_" style="fill:url(#path234_1_);" d="M19.563,31.531c0.044,0.612,1.105,1.037,2.37,0.946
				c1.263-0.09,2.253-0.662,2.209-1.273c-0.044-0.611-1.105-1.036-2.368-0.946C20.509,30.348,19.519,30.918,19.563,31.531z"/>
		</g>
		<g id="g213_208_">
			<path id="path209_155_" style="fill:#160201;" d="M27.331,28.177c0.121,1.699-0.651,3.14-1.723,3.217
				c-1.075,0.077-2.043-1.239-2.164-2.938c-0.123-1.708,0.647-3.153,1.723-3.23C26.239,25.148,27.208,26.468,27.331,28.177z"/>
			<path id="path211_129_" style="fill:#FFFFFF;" d="M26.606,26.626c0.033,0.461-0.313,0.858-0.776,0.892
				c-0.459,0.033-0.858-0.312-0.891-0.772c-0.033-0.46,0.313-0.861,0.771-0.894C26.173,25.819,26.573,26.167,26.606,26.626z"/>
		</g>
		<path id="path58-3-7_44_" style="fill:#3B0807;" d="M31.636,35.141c-1.674,0.215-3.136-0.094-3.427-0.537
			c-0.146-0.223-0.192-0.487,0.003-0.677c0.196-0.188,0.51-0.192,0.705-0.011c0.383,0.363,3.088,1.088,4.754-0.436
			c0.199-0.183,0.418-0.252,0.608-0.063c0.188,0.188,0.046,0.451-0.155,0.638C33.379,34.734,32.55,34.979,31.636,35.141z"/>
		<polygon id="polygon241_4_" style="fill:#2CA4DE;" points="33.202,40.074 40.479,36.57 41.409,39.865 35.146,41.409 		"/>
		<path id="path243_6_" style="fill:#2CA4DE;" d="M27.434,40.695c0,0-4.325,0.111-5.94,3.101l3.196,1.876
			c0,0,0.446-2.486,2.905-3.156L27.434,40.695z"/>
	</g>
	<g id="Layer_1_108_">
	</g>
	<g id="g257_6_">
		<g id="g247_6_">
			<path id="path245_10_" style="fill:#231815;" d="M55.104,28.7c-0.129,1.094-1.475,1.833-3.002,1.649
				c-1.529-0.178-2.666-1.212-2.537-2.305c0.131-1.092,1.475-1.832,3.002-1.649C54.096,26.575,55.232,27.608,55.104,28.7z"/>
		</g>
		<g id="g251_5_">
			<path id="path249_8_" style="fill:#231815;" d="M54.169,29.303c-0.403-0.091-0.681-0.401-0.627-0.72l0.935-5.324
				c0.058-0.326,0.455-0.537,0.891-0.463c0.453,0.068,0.738,0.396,0.68,0.729l-0.932,5.322c-0.059,0.328-0.457,0.537-0.895,0.465
				C54.205,29.31,54.188,29.304,54.169,29.303z"/>
		</g>
		<g id="g255_6_">
			<path id="path253_7_" style="fill:#231815;" d="M55.123,23.851c-0.293-0.07-0.531-0.305-0.594-0.619
				c-0.088-0.432,0.191-0.85,0.625-0.938l1.863-0.373c0.435-0.086,0.851,0.193,0.938,0.627c0.088,0.434-0.191,0.852-0.624,0.936
				l-1.865,0.373C55.35,23.88,55.23,23.878,55.123,23.851z"/>
		</g>
	</g>
</g>
<g id="Layer_1">
</g>
</svg>
