<?xml version="1.0" encoding="utf-8"?>
<!-- Generator: Adobe Illustrator 15.0.0, SVG Export Plug-In . SVG Version: 6.00 Build 0)  -->
<!DOCTYPE svg PUBLIC "-//W3C//DTD SVG 1.1//EN" "http://www.w3.org/Graphics/SVG/1.1/DTD/svg11.dtd">
<svg version="1.1" id="レイヤー_1" xmlns="http://www.w3.org/2000/svg" xmlns:xlink="http://www.w3.org/1999/xlink" x="0px"
	 y="0px" width="64px" height="64px" viewBox="0 0 64 64" style="enable-background:new 0 0 64 64;" xml:space="preserve">
<g>
	<rect x="23.9223633" y="51.5800781" style="fill:#FFFFFF;" width="16.1547852" height="27.9423828"/>
	<path d="M40.0771484,80.4873047H23.9223633l-0.9643555-0.9648438V51.5800781l0.9643555-0.9648438h16.1547852l0.9648438,0.9648438
		v27.9423828L40.0771484,80.4873047z M24.8867188,78.5576172h14.2255859V52.5449219H24.8867188V78.5576172z"/>
</g>
<g>
	<path style="fill:#F1B275;" d="M43.9667969,23.5864258c0,0,3.7558594-2.2075195,4.9628906,1.8754883
		c1.2080078,4.0839844-6.8857422,6.7617188-6.8857422,6.7617188L43.9667969,23.5864258z"/>
	<path style="fill:#F1B275;" d="M20.0336914,23.5864258c0,0-3.7563477-2.2075195-4.9638672,1.8754883
		c-1.2070313,4.0839844,6.8862305,6.7617188,6.8862305,6.7617188L20.0336914,23.5864258z"/>
</g>
<g>
	<rect x="26.6860352" y="36.7363281" style="fill:#F1B275;" width="10.628418" height="14.84375"/>
</g>
<g>
	<path style="fill:#72402D;" d="M40.6845703,33.7265625l2.4003906-10.7817383l0.375-0.2207031
		c0.1279297-0.074707,1.2880859-0.7333984,2.6640625-0.7333984c1.0537109,0,2.9443359,0.4140625,3.7646484,3.1875
		c1.4658203,4.9560547-7.1630859,7.8725586-7.5302734,7.9946289L40.6845703,33.7265625z M44.8378906,24.2763672
		l-1.4052734,6.3110352c2.21875-1.0263672,5.1220703-2.8676758,4.5380859-4.8417969
		c-0.4648438-1.5732422-1.2763672-1.7548828-1.8466797-1.7548828
		C45.6308594,23.9907227,45.1523438,24.1459961,44.8378906,24.2763672z"/>
	<path style="fill:#72402D;" d="M23.3149414,33.7265625l-1.6728516-0.5537109
		c-0.3681641-0.1220703-8.9960938-3.0385742-7.53125-7.9941406c0.8203125-2.7739258,2.7114258-3.1879883,3.7651367-3.1879883
		c1.3759766,0,2.5366211,0.6586914,2.6645508,0.7333984l0.375,0.2207031L23.3149414,33.7265625z M17.8759766,23.9907227
		c-0.5703125,0-1.3818359,0.1816406-1.847168,1.7548828c-0.5834961,1.9741211,2.3193359,3.8154297,4.5385742,4.8417969
		l-1.4047852-6.3115234C18.8491211,24.1459961,18.3696289,23.9907227,17.8759766,23.9907227z"/>
</g>
<g>
	<path style="fill:#72402D;" d="M38.3144531,52.5800781h-12.628418v-16.84375h12.628418V52.5800781z M27.6860352,50.5800781
		h8.628418v-12.84375h-8.628418V50.5800781z"/>
</g>
<path style="fill:#F1B275;" d="M44.9863281,25.4052734C42.921875,37.7226563,39.4726563,42.1455078,32,42.1455078
	c-7.4736328,0-11.2231445-6.6748047-12.9863281-18.4614258c0-11.4399414,5.4506836-14.0371094,12.925293-14.0371094
	C39.4101563,9.6469727,44.9863281,13.6142578,44.9863281,25.4052734z"/>
<path style="fill:#72402D;" d="M32,43.1455078c-9.9370117,0-12.7348633-11.0224609-13.9750977-19.3134766l-0.0112305-0.1479492
	c0-13.328125,7.4418945-15.0371094,13.925293-15.0371094c6.4086914,0,14.0473633,2.9072266,14.0473633,16.7583008
	l-0.0136719,0.1655273C43.8251953,38.3818359,40.0380859,43.1455078,32,43.1455078z M20.0136719,23.6098633
	C21.8393555,35.7363281,25.5375977,41.1455078,32,41.1455078c6.8759766,0,10.0175781-4.1416016,11.9863281-15.8232422
	c-0.0224609-9.8740234-3.9638672-14.675293-12.0473633-14.675293C25.7583008,10.6469727,20.0380859,12.21875,20.0136719,23.6098633z
	"/>
<linearGradient id="SVGID_1_" gradientUnits="userSpaceOnUse" x1="30.5595703" y1="29.2524414" x2="33.9322586" y2="34.0140305">
	<stop  offset="0" style="stop-color:#FFA57F"/>
	<stop  offset="0.0913411" style="stop-color:#FF977B"/>
	<stop  offset="0.3616658" style="stop-color:#FF7170"/>
	<stop  offset="0.6119642" style="stop-color:#FF5568"/>
	<stop  offset="0.8325609" style="stop-color:#FF4564"/>
	<stop  offset="1" style="stop-color:#FF3F62"/>
</linearGradient>
<ellipse style="fill:url(#SVGID_1_);" cx="32" cy="31.2851563" rx="2.0888672" ry="1.8388672"/>
<g>
	<polygon style="fill:#2B0F01;" points="29.0126953,24.2797852 22.2866211,23.4199219 21.519043,23.762207 20.8256836,22.2060547 
		22.0288086,21.6699219 29.2285156,22.590332 	"/>
	<polygon style="fill:#2B0F01;" points="34.9863281,24.2807617 34.7714844,22.5913086 41.9707031,21.6733398 43.1738281,22.2089844 
		42.4804688,23.7651367 41.7128906,23.4233398 	"/>
</g>
<g>
	<g>
		<ellipse style="fill:#2B0F01;" cx="25.8161621" cy="25.8574219" rx="1.4001465" ry="1.701172"/>
		<polygon style="fill:#2B0F01;" points="22.2456055,25.6298828 21.7192383,24.7539063 22.9492188,24.0141602 
			27.9824219,23.6342773 29.3393555,24.4331055 28.8208008,25.3139648 27.7402344,24.6782227 23.2680664,25.0151367 		"/>
	</g>
	<g>
		<ellipse style="fill:#2B0F01;" cx="38.184082" cy="25.8579102" rx="1.3999023" ry="1.701172"/>
		<polygon style="fill:#2B0F01;" points="41.7539063,25.6303711 40.7324219,25.0161133 36.2587891,24.6787109 
			35.1796875,25.3144531 34.6601563,24.4335938 36.0166016,23.6347656 41.0507813,24.0151367 42.28125,24.753418 		"/>
	</g>
</g>
<path style="fill:#2B0F01;" d="M31.4907227,37.5058594c-2.0458984,0-3.7006836-0.3935547-3.8217773-0.4228516
	c-0.4291992-0.1054688-0.6914063-0.5371094-0.5874023-0.9658203c0.1040039-0.4296875,0.5361328-0.6894531,0.9658203-0.5888672
	c0.0483398,0.0117188,4.7666016,1.1289063,7.6987305-0.5410156c0.3857422-0.2158203,0.8730469-0.0830078,1.0908203,0.2998047
	c0.2177734,0.3837891,0.0839844,0.8720703-0.2998047,1.0908203C34.9912109,37.2568359,33.1171875,37.5058594,31.4907227,37.5058594z
	"/>
<g>
	<path style="fill:#2B0F01;" d="M24.1391602,10.659668l11.0454102,2.1958008
		c4.4853516,0.9819336,4.2216797,0.8486328,6.0380859,1.8007813c1.5673828,0.8217773,3.8261719,9.9077148,3.8261719,9.9077148
		l2.0810547-5.8305664c0,0-0.0830078-8.1982422-1.4882813-9.5244141
		c-1.4052734-1.3256836-10.5673828-7.8359375-14.3046875-6.6303711S23.3046875,8.128418,23.3046875,8.128418
		s-4.2646484,0.7631836-6.4345703,6.527832l2.7983398,12.2856445c0,0,1.8618164-7.4853516,2.9072266-9.8964844
		s1.0454102-2.4111328,1.0454102-2.4111328L24.1391602,10.659668z"/>
	<path style="fill:#2B0F01;" d="M19.6293945,30.8735352l-3.7084961-16.2817383l0.0961914-0.2563477
		c2.0141602-5.3505859,5.7382813-6.7353516,6.8271484-7.0332031c0.8920898-0.8706055,4.7167969-4.4628906,8.2128906-5.5908203
		c0.3950195-0.1274414,0.8422852-0.1923828,1.3291016-0.1923828c4.6586914,0,12.7758789,5.9848633,13.8803711,7.0273438
		c1.5654297,1.4770508,1.7539063,8.1635742,1.7744141,10.1777344l0.0019531,0.1625977l-3.1503906,8.8251953l-0.7285156-2.9282227
		c-1.0126953-4.0756836-2.6123047-8.796875-3.3789063-9.3286133c-1.4746094-0.7724609-1.4746094-0.7724609-4.3720703-1.3999023
		l-1.4238281-0.3095703l-10.0722656-2.0024414l-0.4599609,3.253418l-1.0454102,2.4111328
		c-1.0039063,2.3154297-2.840332,9.6801758-2.8588867,9.7539063L19.6293945,30.8735352z M17.8203125,14.7255859l1.9082031,8.3779297
		c0.6240234-2.2978516,1.4301758-5.0800781,2.0112305-6.4204102l0.9941406-2.293457l0.6274414-4.8134766l13.4375,2.6977539
		c3.0214844,0.6542969,3.1386719,0.6801758,4.8271484,1.5649414c1.3037109,0.6835938,2.6484375,4.5478516,3.546875,7.6665039
		l1.0439453-2.9243164c-0.0507813-3.7373047-0.5390625-8.0849609-1.2001953-8.7094727
		c-1.4824219-1.3979492-9-6.5297852-12.6303711-6.5297852c-0.2963867,0-0.5551758,0.0351563-0.7695313,0.1040039
		c-3.4785156,1.1220703-7.6225586,5.2817383-7.6640625,5.3232422l-0.203125,0.2050781L23.465332,9.0253906
		C23.3193359,9.0537109,19.7856445,9.7895508,17.8203125,14.7255859z"/>
</g>
<g>
	<line style="fill:#FFFFFF;" x1="31.8256836" y1="51.8007813" x2="31.8256836" y2="79.3007813"/>
	<rect x="30.8808594" y="51.8007813" style="fill:#C5C5C5;" width="1.8896484" height="27.5"/>
</g>
<g>
	<g>
		<g>
			<polygon style="fill:#110D0B;" points="59.1181641,64.4521484 54.6572266,53.0185547 40.0703125,46.7080078 
				40.0703125,79.5224609 			"/>
			<path d="M40.6689453,80.2792969l-1.5634766-0.7568359V46.7080078l1.3476563-0.8847656l14.5869141,6.3105469l0.515625,0.5341797
				l4.4609375,11.4335938l-0.2998047,1.1074219L40.6689453,80.2792969z M41.0351563,48.1757813v29.3535156l16.9248047-13.390625
				l-4.0546875-10.3945313L41.0351563,48.1757813z"/>
		</g>
		<g>
			<path style="fill:#110D0B;" d="M37.7861328,45.4462891l7.1923828,3.9755859c0,0,2.5664063,4.9033203,3.4101563,10.4492188
				l-7.2333984,6.2685547C41.1552734,66.1396484,39.7548828,49.8261719,37.7861328,45.4462891z"/>
			<path d="M41.7871094,66.8681641l-1.5927734-0.6464844c-0.0136719-0.1611328-1.4082031-16.1992188-3.2880859-20.3798828
				l1.3466797-1.2392578l7.1923828,3.9755859l0.3876953,0.3964844c0.1074219,0.2060547,2.6513672,5.1113281,3.5087891,10.7509766
				l-0.3212891,0.8740234L41.7871094,66.8681641z M39.4580078,47.4726563
				c1.2246094,4.7646484,2.1220703,13.0058594,2.484375,16.7089844l5.4082031-4.6865234
				c-0.7646484-4.4101563-2.6015625-8.3574219-3.1005859-9.3740234L39.4580078,47.4726563z"/>
		</g>
		<g>
			<path style="fill:#110D0B;" d="M40.0703125,51.0429688c0,0,0.9638672,14.4941406-8.0776367,28.4794922
				c0,0,13.0200195-10.4892578,16.3959961-19.6513672l-3.4101563,0.7236328l-2.96875-9.5517578H40.0703125z"/>
			<path d="M32.5976563,80.2734375l-1.4150391-1.2744141c8.7666016-13.5605469,7.9345703-27.75,7.9257813-27.8916016
				l0.9619141-1.0292969h1.9394531l0.9208984,0.6787109l2.7080078,8.7119141l2.5498047-0.5410156l1.1054688,1.2763672
				C45.8652344,69.5097656,33.1376953,79.8388672,32.5976563,80.2734375z M41.0673828,52.0078125
				c0.0390625,3.0966797-0.3085938,12.6367188-5.3837891,22.9511719c3.640625-3.4423828,8.6464844-8.7255859,11.0878906-13.7587891
				l-1.5927734,0.3378906l-1.1210938-0.6572266l-2.7578125-8.8730469H41.0673828z"/>
		</g>
	</g>
	<g>
		<g>
			<polygon style="fill:#110D0B;" points="4.8818359,64.4521484 9.3427734,53.0185547 23.9301758,46.7080078 23.9301758,79.5224609 
							"/>
			<path d="M23.331543,80.2792969L4.2832031,65.2089844l-0.2998047-1.1074219l4.4609375-11.4335938l0.515625-0.5341797
				l14.5874023-6.3105469l1.347168,0.8847656v32.8144531L23.331543,80.2792969z M6.0395508,64.1386719l16.9262695,13.390625
				V48.1757813l-12.8706055,5.5683594L6.0395508,64.1386719z"/>
		</g>
		<g>
			<path style="fill:#110D0B;" d="M26.2143555,45.4462891l-7.1933594,3.9755859c0,0-2.5654297,4.9033203-3.4091797,10.4492188
				l7.2333984,6.2685547C22.8452148,66.1396484,24.2446289,49.8261719,26.2143555,45.4462891z"/>
			<path d="M22.2133789,66.8681641l-7.2333984-6.2685547l-0.3217773-0.8740234
				c0.8583984-5.6396484,3.4003906-10.5449219,3.5083008-10.7509766l0.3881836-0.3964844l7.1933594-3.9755859l1.3457031,1.2392578
				c-1.8803711,4.1816406-3.2739258,20.21875-3.2875977,20.3798828L22.2133789,66.8681641z M16.6503906,59.4951172
				l5.4082031,4.6865234c0.3618164-3.703125,1.2587891-11.9443359,2.4838867-16.7089844l-4.793457,2.6484375
				C19.2504883,51.1386719,17.4140625,55.0849609,16.6503906,59.4951172z"/>
		</g>
		<g>
			<path style="fill:#110D0B;" d="M23.9301758,51.0429688c0,0-0.9643555,14.4941406,8.0771484,28.4794922
				c0,0-13.0200195-10.4892578-16.3955078-19.6513672l3.4091797,0.7236328l2.96875-9.5517578H23.9301758z"/>
			<path d="M31.4023438,80.2734375c-0.5400391-0.4345703-13.2670898-10.7636719-16.6953125-20.0693359l1.1049805-1.2763672
				l2.5488281,0.5410156l2.7080078-8.7119141l0.9208984-0.6787109h1.9404297l0.9624023,1.0283203
				c-0.0092773,0.1416016-0.8251953,14.3583984,7.9248047,27.8925781L31.4023438,80.2734375z M17.2290039,61.2001953
				c2.4414063,5.0332031,7.4467773,10.3164063,11.0874023,13.7587891
				c-5.0756836-10.3144531-5.4223633-19.8544922-5.3833008-22.9511719h-0.2329102l-2.7583008,8.8730469l-1.1210938,0.6572266
				L17.2290039,61.2001953z"/>
		</g>
	</g>
</g>
<g>
	<g>
		<polygon style="fill:#FFFFFF;" points="32,49.4355469 26.6860352,45.7783203 23.9223633,53.2001953 25.8164063,56.3066406 
			32,53.8955078 		"/>
		<path d="M25.4135742,57.4990234l-2.5585938-4.1962891l3.3588867-9.0205078l6.7504883,4.6464844v5.6259766L25.4135742,57.4990234z
			 M24.9897461,53.0976563l1.2294922,2.0166016l4.8164063-1.8779297v-3.2939453l-3.8774414-2.6679688L24.9897461,53.0976563z"/>
	</g>
	<g>
		<polygon style="fill:#FFFFFF;" points="32,49.4355469 37.3144531,45.7783203 40.0771484,53.2001953 38.1845703,56.3066406 
			32,53.8955078 		"/>
		<path d="M38.5878906,57.4990234l-7.5522461-2.9443359v-5.6259766l6.7514648-4.6464844l3.3574219,9.0205078L38.5878906,57.4990234z
			 M32.9643555,53.2363281l4.8168945,1.8779297l1.2285156-2.0166016l-2.1679688-5.8232422l-3.8774414,2.6679688V53.2363281z"/>
	</g>
</g>
<g>
	<g>
		<path style="fill:#110D0B;" d="M25.1816406,49.421875c0,0-2.5498047,2.8535156-0.0898438,7.1943359l6.7402344-2.7734375V51.859375
			L25.1816406,49.421875z"/>
		<path d="M24.8818359,57.2236328l-0.2094727-0.3701172c-2.6005859-4.5888672,0.0361328-7.6259766,0.1499023-7.7529297
			l0.2177734-0.2441406l7.2744141,2.6660156v2.6435547L24.8818359,57.2236328z M25.3496094,49.9970703
			c-0.4882813,0.71875-1.6201172,2.9013672-0.0390625,6.0078125l6.0390625-2.4853516v-1.3232422L25.3496094,49.9970703z"/>
	</g>
	<g>
		<path style="fill:#110D0B;" d="M38.8183594,49.421875c0,0,2.5507813,2.8535156,0.0898438,7.1943359l-6.7402344-2.7734375
			V51.859375L38.8183594,49.421875z"/>
		<path d="M39.1181641,57.2236328l-7.4326172-3.0576172v-2.6435547l7.2744141-2.6660156l0.2177734,0.2441406
			c0.1132813,0.1269531,2.7519531,3.1640625,0.1503906,7.7539063L39.1181641,57.2236328z M32.6503906,53.5195313
			l6.0390625,2.4853516c1.5673828-3.0849609,0.4394531-5.2861328-0.0419922-6.0068359l-5.9970703,2.1982422V53.5195313z"/>
	</g>
	<g>
		<path style="fill:#110D0B;" d="M34.1240234,53.0175781c0,1.0917969-0.8857422,1.9765625-1.9755859,1.9765625h-0.2270508
			c-1.0913086,0-1.9755859-0.8847656-1.9755859-1.9765625l0,0c0-1.0898438,0.8842773-1.9746094,1.9755859-1.9746094h0.2270508
			C33.2382813,51.0429688,34.1240234,51.9277344,34.1240234,53.0175781L34.1240234,53.0175781z"/>
		<path d="M32.1484375,55.4765625h-0.2270508c-1.3554688,0-2.4580078-1.1035156-2.4580078-2.4589844
			c0-1.3544922,1.1025391-2.4570313,2.4580078-2.4570313h0.2270508c1.3554688,0,2.4580078,1.1025391,2.4580078,2.4570313
			C34.6064453,54.3730469,33.5039063,55.4765625,32.1484375,55.4765625z M31.9213867,51.5253906
			c-0.8232422,0-1.4931641,0.6689453-1.4931641,1.4921875c0,0.8242188,0.6699219,1.4941406,1.4931641,1.4941406h0.2270508
			c0.8232422,0,1.4931641-0.6699219,1.4931641-1.4941406c0-0.8232422-0.6699219-1.4921875-1.4931641-1.4921875H31.9213867z"/>
	</g>
</g>
</svg>
