<?xml version="1.0" encoding="iso-8859-1"?>
<!-- Generator: Adobe Illustrator 16.0.0, SVG Export Plug-In . SVG Version: 6.00 Build 0)  -->
<!DOCTYPE svg PUBLIC "-//W3C//DTD SVG 1.1//EN" "http://www.w3.org/Graphics/SVG/1.1/DTD/svg11.dtd">
<svg version="1.1" xmlns="http://www.w3.org/2000/svg" xmlns:xlink="http://www.w3.org/1999/xlink" x="0px" y="0px" width="64px"
	 height="64px" viewBox="0 0 64 64" style="enable-background:new 0 0 64 64;" xml:space="preserve">
<g id="man_x5F_rowing_x5F_boat_x28_p_x29_">
	
		<path id="path121_105_" style="fill:#231815;stroke:#231815;stroke-width:3;stroke-linecap:round;stroke-linejoin:round;stroke-miterlimit:10;" d="
		M49.76,20.243C49.032,12.183,41.548,6.14,33.333,6.73c-3.696,0.266-6.977,1.842-9.422,4.224c-0.041,0.041-0.077,0.082-0.118,0.122
		c-0.322,0.323-0.63,0.656-0.922,1.006c-0.065,0.078-0.127,0.159-0.19,0.238c-0.259,0.322-0.504,0.655-0.733,0.998
		c-0.065,0.098-0.13,0.196-0.192,0.295c-0.218,0.342-0.421,0.694-0.61,1.053c-0.054,0.102-0.107,0.2-0.158,0.304
		c-0.191,0.385-0.362,0.778-0.52,1.178c-0.032,0.082-0.066,0.16-0.098,0.242c-0.692,1.875-1.015,3.914-0.862,6.03
		c0,0,0.323-0.78,0.922-1.886c0.763,1.512,2.014,3.527,3.518,4.194l0.099-5.393c0,0,2.27,4.483,6.655,4.539l-0.066-0.922
		c0,0,2.311,0.575,2.957,0.528c0,0,1.397,2.548,1.758,3.614c0,0,0.134-0.426,0.29-1.197c0.223,0.153,4.49,3.133,5.575,6.351
		l1.066-1.122l0.797,4.372C43.077,35.497,50.733,31.008,49.76,20.243z"/>
	<linearGradient id="SVGID_1_" gradientUnits="userSpaceOnUse" x1="0" y1="59.877" x2="64" y2="59.877">
		<stop  offset="0" style="stop-color:#2BC4F3"/>
		<stop  offset="0.5" style="stop-color:#00AEEE"/>
		<stop  offset="1" style="stop-color:#0095DA"/>
	</linearGradient>
	<rect y="55.754" style="fill:url(#SVGID_1_);" width="64" height="8.246"/>
	<g id="person_x5F_running_x28_wh_x29__12_">
		<g id="g147_19_">
			<path id="path34-7-5_859_" style="fill:none;stroke:#231815;stroke-width:2;stroke-miterlimit:10;" d="M36.732,41.393
				c-0.182-0.461-0.701-1.735-1.087-1.902c-0.384-0.165-0.743-0.241-0.743-0.241c-0.815-0.151-1.536,0.062-2.138,0.633
				c0,0-0.125,0.167-0.339,0.709c-0.154,0.392-0.007,1.502-0.026,2.089c0,0,0.514,3.875,0.788,7.936c0,0,1.77,1.171,4.072,0.487
				c2.297-0.681,3.143-2.628,3.143-2.628C38.416,44.922,36.732,41.393,36.732,41.393z"/>
			
				<ellipse id="ellipse26_19_" transform="matrix(-0.2845 -0.9587 0.9587 -0.2845 -0.7601 101.7101)" style="fill:none;stroke:#231815;stroke-width:2;stroke-miterlimit:10;" cx="37.577" cy="51.139" rx="3.375" ry="3.619"/>
			<path id="path28_32_" style="fill:none;stroke:#231815;stroke-width:2;stroke-miterlimit:10;" d="M36.639,48.339
				c-2.691-0.045-6.42,3.014-7.799,6.095c-1.382,3.077-0.331,4.097,1.13,2.97c1.464-1.123,2.408-2.619,6.317-2.783
				C40.195,54.453,38.539,48.367,36.639,48.339z"/>
			<path id="path30_63_" style="fill:none;stroke:#231815;stroke-width:2;stroke-miterlimit:10;" d="M25.814,55.694
				c0.698-0.928,2.021-1.117,2.95-0.418c0.932,0.696,1.119,2.019,0.42,2.949L25.814,55.694z"/>
			<path id="path34-7-5_858_" style="fill:none;stroke:#231815;stroke-width:2;stroke-miterlimit:10;" d="M36.732,41.393
				c-0.234-0.488-0.781-1.826-1.169-1.992c-0.383-0.165-0.661-0.151-0.661-0.151c-0.815-0.151-1.229,0.664-1.83,1.235
				c0,0-0.125,0.168-0.339,0.709c-0.153,0.391-0.348,0.778-0.333,1.486c0,0,0.514,3.875,0.788,7.936c0,0,1.627,0.693,3.93,0.011
				c2.297-0.683,3.285-2.151,3.285-2.151C38.416,44.922,36.732,41.393,36.732,41.393z"/>
			<path id="path30-2_670_" style="fill:none;stroke:#231815;stroke-width:2;stroke-miterlimit:10;" d="M31.5,43.195
				c-1.339,0.456-2.395,0.611-4.005-0.633c-0.816-0.809-1.286,0.289-1.286,0.289c-1.851,0.846-0.514,1.588-0.205,2.324
				c0.312,0.738,3.311,1.334,6.236-0.263c3.181-1.936,3.839-3.445,2.955-3.966C34.314,40.428,33.652,42.459,31.5,43.195z"/>
			<g id="g106_18_">
				<g id="g104_17_">
					<g id="g102_25_">
						<path id="path34_53_" style="fill:#F09400;stroke:#231815;stroke-width:1.5423;stroke-miterlimit:10;" d="M50.486,20.193
							c0.605,8.464-6.386,15.858-15.001,16.479c-8.618,0.618-16.097-5.738-16.704-14.203c-0.607-8.465,5.885-15.831,14.504-16.449
							C41.902,5.401,49.878,11.729,50.486,20.193z"/>
						<path id="path45_57_" style="fill:#4C0A02;stroke:#231815;stroke-width:1.5423;stroke-miterlimit:10;" d="M49.761,20.246
							c0.58,8.072-6.111,15.123-14.327,15.712c-8.217,0.589-15.348-5.469-15.927-13.541c-0.58-8.073,5.609-15.097,13.829-15.687
							C41.55,6.141,49.181,12.171,49.761,20.246z"/>
						<path id="path47_31_" style="fill:#48140F;stroke:#231815;stroke-width:2.7816;stroke-miterlimit:10;" d="M44.69,26.423
							c0.493,6.849-4.626,10.948-11.22,11.745c-9.069,1.094-12.287-3.174-12.779-10.022c-0.492-6.854,4.482-12.795,11.107-13.272
							C38.426,14.398,44.198,19.57,44.69,26.423z"/>
						
							<radialGradient id="path34-7-5_1_" cx="526.3594" cy="-331.2783" r="33.8468" gradientTransform="matrix(0.5768 -0.1712 -0.2845 -0.9587 -365.6184 -193.1805)" gradientUnits="userSpaceOnUse">
							<stop  offset="0" style="stop-color:#FCDBD7"/>
							<stop  offset="0.1284" style="stop-color:#FBD4CF"/>
							<stop  offset="0.3271" style="stop-color:#F8C3B9"/>
							<stop  offset="0.5713" style="stop-color:#F3A596"/>
							<stop  offset="0.849" style="stop-color:#ED7D65"/>
							<stop  offset="1" style="stop-color:#E96547"/>
						</radialGradient>
						<path id="path34-7-5_857_" style="fill:url(#path34-7-5_1_);" d="M36.732,41.393c-0.182-0.461-0.701-1.735-1.087-1.902
							c-0.384-0.165-0.743-0.241-0.743-0.241c-0.815-0.151-1.536,0.062-2.138,0.633c0,0-0.125,0.167-0.339,0.709
							c-0.154,0.392-0.007,1.502-0.026,2.089c0,0,0.514,3.875,0.788,7.936c0,0,1.77,1.171,4.072,0.487
							c2.297-0.681,3.143-2.628,3.143-2.628C38.416,44.922,36.732,41.393,36.732,41.393z"/>
						
							<radialGradient id="rect76_1_" cx="305.4326" cy="-338.5732" r="4.0007" gradientTransform="matrix(0.9587 -0.2845 -0.2845 -0.9587 -354.6138 -196.0328)" gradientUnits="userSpaceOnUse">
							<stop  offset="0" style="stop-color:#F8D8CB"/>
							<stop  offset="0.1365" style="stop-color:#F7D1C3"/>
							<stop  offset="0.3479" style="stop-color:#F5BEAD"/>
							<stop  offset="0.6075" style="stop-color:#F19F8A"/>
							<stop  offset="0.903" style="stop-color:#EB7459"/>
							<stop  offset="1" style="stop-color:#E96547"/>
						</radialGradient>
						<polygon id="rect76_19_" style="fill:url(#rect76_1_);" points="32.227,37.776 34.267,37.171 35.15,40.146 33.109,40.752 
													"/>
						
							<ellipse id="ellipse78_18_" transform="matrix(-0.2845 -0.9587 0.9587 -0.2845 -0.7601 101.7101)" style="fill:#0066CF;" cx="37.577" cy="51.139" rx="3.375" ry="3.619"/>
						<path id="path80_19_" style="fill:#0066CF;" d="M36.639,48.339c-2.691-0.045-6.42,3.014-7.799,6.095
							c-1.382,3.077-0.331,4.097,1.13,2.97c1.464-1.123,2.408-2.619,6.317-2.783C40.195,54.453,38.539,48.367,36.639,48.339z"/>
						<path id="path82_19_" style="fill:#9C9C9D;" d="M25.814,55.694c0.698-0.928,2.021-1.117,2.95-0.418
							c0.932,0.696,1.119,2.019,0.42,2.949L25.814,55.694z"/>
						<path id="path34-7-5_856_" style="fill:#009DE6;" d="M36.732,41.393c-0.234-0.488-0.781-1.826-1.169-1.992
							c-0.383-0.165-0.661-0.151-0.661-0.151c-0.719,0.233-1.229,0.664-1.83,1.235c0,0-0.125,0.168-0.339,0.709
							c-0.153,0.391-0.348,0.778-0.333,1.486c0,0,0.514,3.875,0.788,7.936c0,0,1.627,0.693,3.93,0.011
							c2.297-0.683,3.285-2.151,3.285-2.151C38.416,44.922,36.732,41.393,36.732,41.393z"/>
						
							<radialGradient id="path98_1_" cx="306" cy="-323.1147" r="22.0399" gradientTransform="matrix(0.9974 -0.0716 -0.0716 -0.9974 -295.7024 -273.8458)" gradientUnits="userSpaceOnUse">
							<stop  offset="0" style="stop-color:#FCDBD7"/>
							<stop  offset="0.1284" style="stop-color:#FBD4CF"/>
							<stop  offset="0.3271" style="stop-color:#F8C3B9"/>
							<stop  offset="0.5713" style="stop-color:#F3A596"/>
							<stop  offset="0.849" style="stop-color:#ED7D65"/>
							<stop  offset="1" style="stop-color:#E96547"/>
						</radialGradient>
						<path id="path98_30_" style="fill:url(#path98_1_);" d="M44.69,26.423c0.493,6.849-4.597,11.269-11.22,11.745
							c-6.626,0.475-12.104-0.61-12.779-10.022c-0.492-6.854,4.482-12.795,11.107-13.272C38.426,14.398,44.198,19.57,44.69,26.423z"
							/>
						
							<path id="path100_28_" style="fill:none;stroke:#A4414A;stroke-width:0.8345;stroke-linecap:round;stroke-linejoin:round;stroke-miterlimit:10;" d="
							M27.201,21.273c0,0-1.706-1.991-3.647,0.261"/>
					</g>
				</g>
			</g>
			<g id="g213_527_">
				
					<linearGradient id="ellipse121_1_" gradientUnits="userSpaceOnUse" x1="423.9199" y1="396.1445" x2="427.751" y2="396.1445" gradientTransform="matrix(0.9974 -0.0716 0.0716 0.9974 -423.6522 -333.9475)">
					<stop  offset="0" style="stop-color:#FFA67F"/>
					<stop  offset="0.0969" style="stop-color:#FF967B"/>
					<stop  offset="0.3655" style="stop-color:#FF7170"/>
					<stop  offset="0.6143" style="stop-color:#FF5568"/>
					<stop  offset="0.8336" style="stop-color:#FF4564"/>
					<stop  offset="1" style="stop-color:#FF3F62"/>
				</linearGradient>
				<path id="ellipse121_19_" style="fill:url(#ellipse121_1_);" d="M29.36,29.568c1.057-0.075,1.946,0.361,1.99,0.972
					c0.045,0.612-0.774,1.171-1.831,1.246c-1.057,0.076-1.946-0.359-1.99-0.972C27.485,30.203,28.304,29.644,29.36,29.568z"/>
			</g>
			<g id="g213_526_">
				<path id="path209_316_" style="fill:#160201;" d="M27.77,28c0.123,1.698-0.649,3.139-1.721,3.217
					c-1.075,0.077-2.044-1.241-2.166-2.938c-0.122-1.709,0.647-3.154,1.723-3.23C26.678,24.972,27.647,26.291,27.77,28z"/>
				<path id="path211_267_" style="fill:#FFFFFF;" d="M27.045,26.449c0.034,0.461-0.312,0.859-0.775,0.892
					c-0.46,0.034-0.858-0.311-0.893-0.772c-0.032-0.459,0.313-0.859,0.771-0.892C26.613,25.642,27.012,25.989,27.045,26.449z"/>
			</g>
			<path id="path127_20_" style="fill:#C30D23;" d="M25.511,33.787c-0.165,0.26-1.079,0.827-2.201,1.045
				c0.223,0.23,0.457,0.449,0.704,0.661c1.264-0.284,2.209-0.802,2.352-1.218c0.088-0.248,0.068-0.518-0.166-0.654
				C25.961,33.488,25.654,33.562,25.511,33.787z"/>
		</g>
	</g>
	
		<path style="fill:#C10D23;stroke:#231815;stroke-width:2.9046;stroke-linecap:round;stroke-linejoin:round;stroke-miterlimit:10;" d="
		M10.176,49.5h43.423l-0.913,10.25H18.589C18.589,59.75,10.176,58,10.176,49.5z"/>
	<path style="fill:#C10D23;" d="M10.176,49.5h43.423l-0.913,10.25H18.589C18.589,59.75,10.176,58,10.176,49.5z"/>
	<path style="fill:#009DE6;" d="M2.333,59.833c5.833-0.833,15.817-0.166,23.5-0.166c8.667,0,14.5,0.499,29.333-1.834
		c0,0,12.167,4.167-21.333,5C24.157,63.073,2.333,59.833,2.333,59.833z"/>
	<path style="fill:#E53828;" d="M53.229,53.65l0.179-2H10.395c0.138,0.722,0.326,1.396,0.582,2H53.229z"/>
	<path style="fill:#E53828;" d="M53.028,55.9H12.346c0.667,0.818,1.418,1.479,2.171,2h38.334L53.028,55.9z"/>
	<path style="fill:#FFFFFF;" d="M55.237,58.174c-10.105-1.5-20.594,0-7.817,1L55.237,58.174z"/>
	<path style="fill:#FFFFFF;" d="M17.367,59.5C3.833,56.833,0,58.5,11.333,59.833L17.367,59.5z"/>
	
		<linearGradient id="SVGID_2_" gradientUnits="userSpaceOnUse" x1="28.5933" y1="73.6309" x2="36.918" y2="73.6309" gradientTransform="matrix(0.7053 -0.7089 0.7089 0.7053 -36.3972 26.7737)">
		<stop  offset="0" style="stop-color:#F69453"/>
		<stop  offset="0.5" style="stop-color:#F37521"/>
		<stop  offset="1" style="stop-color:#D4622A"/>
	</linearGradient>
	
		<path style="fill:url(#SVGID_2_);stroke:#231815;stroke-width:2;stroke-linecap:round;stroke-linejoin:round;stroke-miterlimit:10;" d="
		M44.594,55.277c1.631,1.621,0.862,3.488-0.76,5.118l0,0c-1.619,1.628-3.481,2.404-5.111,0.782l-5.399-6.082
		c-1.631-1.623-0.78-3.086,0.646-4.519l0,0c1.425-1.433,2.886-2.291,4.516-0.669L44.594,55.277z"/>
	
		<linearGradient id="SVGID_3_" gradientUnits="userSpaceOnUse" x1="31.9233" y1="61.0068" x2="33.5625" y2="61.0068" gradientTransform="matrix(0.7053 -0.7089 0.7089 0.7053 -36.3972 26.7737)">
		<stop  offset="0" style="stop-color:#F69453"/>
		<stop  offset="0.5" style="stop-color:#F37521"/>
		<stop  offset="1" style="stop-color:#D4622A"/>
	</linearGradient>
	
		<polygon style="fill:url(#SVGID_3_);stroke:#231815;stroke-width:2;stroke-linecap:round;stroke-linejoin:round;stroke-miterlimit:10;" points="
		37.15,52.604 35.993,53.766 22.739,40.578 23.893,39.419 	"/>
	
		<linearGradient id="SVGID_4_" gradientUnits="userSpaceOnUse" x1="28.5933" y1="73.6309" x2="36.918" y2="73.6309" gradientTransform="matrix(0.7053 -0.7089 0.7089 0.7053 -36.3972 26.7737)">
		<stop  offset="0" style="stop-color:#F69453"/>
		<stop  offset="0.5" style="stop-color:#F37521"/>
		<stop  offset="1" style="stop-color:#D4622A"/>
	</linearGradient>
	<path style="fill:url(#SVGID_4_);" d="M44.594,55.277c1.631,1.621,0.862,3.488-0.76,5.118l0,0
		c-1.619,1.628-3.481,2.404-5.111,0.782l-5.399-6.082c-1.631-1.623-0.78-3.086,0.646-4.519l0,0c1.425-1.433,2.886-2.291,4.516-0.669
		L44.594,55.277z"/>
	<path style="fill:#009DE6;" d="M55.167,60.333c-14.834,2.333-20.667,1.834-29.333,1.834c-7.683,0-17.667-0.667-23.5,0.166
		c0,0,5.825,0.864,12.788,1.667h37.46C61.436,62.48,55.167,60.333,55.167,60.333z"/>
	
		<linearGradient id="SVGID_5_" gradientUnits="userSpaceOnUse" x1="31.9233" y1="61.0068" x2="33.5625" y2="61.0068" gradientTransform="matrix(0.7053 -0.7089 0.7089 0.7053 -36.3972 26.7737)">
		<stop  offset="0" style="stop-color:#F69453"/>
		<stop  offset="0.5" style="stop-color:#F37521"/>
		<stop  offset="1" style="stop-color:#D4622A"/>
	</linearGradient>
	<polygon style="fill:url(#SVGID_5_);" points="37.15,52.604 35.993,53.766 22.739,40.578 23.893,39.419 	"/>
	
		<radialGradient id="path30-2_1_" cx="395.2744" cy="-221.9785" r="27.9919" gradientTransform="matrix(-0.8547 -0.519 0.519 -0.8547 493.377 53.7295)" gradientUnits="userSpaceOnUse">
		<stop  offset="0" style="stop-color:#FCDBD7"/>
		<stop  offset="0.1284" style="stop-color:#FBD4CF"/>
		<stop  offset="0.3271" style="stop-color:#F8C3B9"/>
		<stop  offset="0.5713" style="stop-color:#F3A596"/>
		<stop  offset="0.849" style="stop-color:#ED7D65"/>
		<stop  offset="1" style="stop-color:#E96547"/>
	</radialGradient>
	<path id="path30-2_669_" style="fill:url(#path30-2_1_);" d="M31.5,43.195c-1.339,0.456-2.395,0.611-4.005-0.633
		c-0.816-0.809-1.286,0.289-1.286,0.289c-1.851,0.846-0.514,1.588-0.205,2.324c0.312,0.738,3.311,1.334,6.236-0.263
		c3.181-1.936,3.839-3.445,2.955-3.966C34.314,40.428,33.652,42.459,31.5,43.195z"/>
	<path style="fill:#FFFFFF;" d="M43.839,61.854c-16.155-1.726-32.897,0-12.495,1.149L43.839,61.854z"/>
	<linearGradient id="SVGID_6_" gradientUnits="userSpaceOnUse" x1="57.3506" y1="61.666" x2="73.0028" y2="61.666">
		<stop  offset="0" style="stop-color:#2BC4F3"/>
		<stop  offset="0.5" style="stop-color:#00AEEE"/>
		<stop  offset="1" style="stop-color:#0095DA"/>
	</linearGradient>
	<path style="fill:url(#SVGID_6_);" d="M64,60.69c-5.231,0.331-15.593,0.977-16.833,0.977c-1.367,0,9.822,0.784,16.833,0.975V60.69z
		"/>
	<path id="path143_26_" style="fill:#009DE6;" d="M22.512,6.643c0,0-2.833-4.57-4.733-2.014C16.4,6.478,19.697,6.876,22.512,6.643z"
		/>
	<path id="path145_37_" style="fill:#009DE6;" d="M18.775,9.855c0,0-5.574-1.617-5.168,1.36C13.9,13.369,16.755,11.698,18.775,9.855
		z"/>
	<path id="path121_107_" style="fill:#231815;stroke:#231815;stroke-width:1.5;stroke-miterlimit:10;" d="M49.76,20.243
		C49.032,12.183,41.548,6.14,33.333,6.73c-3.696,0.266-6.977,1.842-9.422,4.224c-0.041,0.041-0.077,0.082-0.118,0.122
		c-0.322,0.323-0.63,0.656-0.922,1.006c-0.065,0.078-0.127,0.159-0.19,0.238c-0.259,0.322-0.504,0.655-0.733,0.998
		c-0.065,0.098-0.13,0.196-0.192,0.295c-0.218,0.342-0.421,0.694-0.61,1.053c-0.054,0.102-0.107,0.2-0.158,0.304
		c-0.191,0.385-0.362,0.778-0.52,1.178c-0.032,0.082-0.066,0.16-0.098,0.242c-0.692,1.875-1.015,3.914-0.862,6.03
		c0,0,0.323-0.78,0.922-1.886c0.763,1.512,2.014,3.527,3.518,4.194l0.099-5.393c0,0,2.27,4.483,6.655,4.539l-0.066-0.922
		c0,0,2.311,0.575,2.957,0.528c0,0,1.397,2.548,1.758,3.614c0,0,0.134-0.426,0.29-1.197c0.223,0.153,4.49,3.133,5.575,6.351
		l1.066-1.122l0.797,4.372C43.077,35.497,50.733,31.008,49.76,20.243z"/>
	
		<radialGradient id="path130_1_" cx="309.5918" cy="-319.8574" r="14.934" gradientTransform="matrix(0.9974 -0.0717 -0.0717 -0.9974 -297.0825 -275.4589)" gradientUnits="userSpaceOnUse">
		<stop  offset="0" style="stop-color:#E0CAAB"/>
		<stop  offset="0.6633" style="stop-color:#9E6C2A"/>
		<stop  offset="0.8265" style="stop-color:#8A581E"/>
		<stop  offset="1" style="stop-color:#653D14"/>
	</radialGradient>
	<path id="path130_9_" style="fill:url(#path130_1_);" d="M49.76,20.243C49.032,12.183,41.548,6.14,33.333,6.73
		c-3.696,0.266-6.977,1.842-9.422,4.224c-0.041,0.041-0.077,0.082-0.118,0.122c-0.322,0.323-0.63,0.656-0.922,1.006
		c-0.065,0.078-0.127,0.159-0.19,0.238c-0.259,0.322-0.504,0.655-0.733,0.998c-0.065,0.098-0.13,0.196-0.192,0.295
		c-0.218,0.342-0.421,0.694-0.61,1.053c-0.054,0.102-0.107,0.2-0.158,0.304c-0.191,0.385-0.362,0.778-0.52,1.178
		c-0.032,0.082-0.066,0.16-0.098,0.242c-0.692,1.875-1.015,3.914-0.862,6.03c0,0,0.323-0.78,0.922-1.886
		c0.763,1.512,2.014,3.527,3.518,4.194l0.099-5.393c0,0,2.27,4.483,6.655,4.539l-0.066-0.922c0,0,2.311,0.575,2.957,0.528
		c0,0,1.397,2.548,1.758,3.614c0,0,0.134-0.426,0.29-1.197c0.223,0.153,4.49,3.133,5.575,6.351l1.066-1.122l0.797,4.372
		C43.077,35.497,50.733,31.008,49.76,20.243z"/>
	
		<ellipse id="ellipse160_15_" transform="matrix(0.0917 -0.9958 0.9958 0.0917 6.9639 62.2306)" style="fill:#231815;" cx="37.593" cy="27.298" rx="3.084" ry="2.645"/>
	
		<radialGradient id="path175_1_" cx="362.1924" cy="-280.1636" r="5.2782" gradientTransform="matrix(0.9958 0.0922 0.0922 -0.9958 -299.5599 -284.3179)" gradientUnits="userSpaceOnUse">
		<stop  offset="0" style="stop-color:#FCDBD7"/>
		<stop  offset="0.1284" style="stop-color:#FBD4CF"/>
		<stop  offset="0.3271" style="stop-color:#F8C3B9"/>
		<stop  offset="0.5713" style="stop-color:#F3A596"/>
		<stop  offset="0.849" style="stop-color:#ED7D65"/>
		<stop  offset="1" style="stop-color:#E96547"/>
	</radialGradient>
	<path id="path175_20_" style="fill:url(#path175_1_);" d="M39.14,27.902c-0.132,1.428-1.233,2.494-2.456,2.381
		c-1.226-0.115-2.109-1.362-1.977-2.79c0.131-1.427,1.233-2.489,2.454-2.378C38.388,25.229,39.273,26.478,39.14,27.902z"/>
</g>
<g id="Layer_1">
</g>
</svg>
