<?xml version="1.0" encoding="utf-8"?>
<!-- Generator: Adobe Illustrator 18.0.0, SVG Export Plug-In . SVG Version: 6.00 Build 0)  -->
<!DOCTYPE svg PUBLIC "-//W3C//DTD SVG 1.1//EN" "http://www.w3.org/Graphics/SVG/1.1/DTD/svg11.dtd">
<svg version="1.1" id="レイヤー_1" xmlns="http://www.w3.org/2000/svg" xmlns:xlink="http://www.w3.org/1999/xlink" x="0px"
	 y="0px" width="64px" height="64px" viewBox="0 0 64 64" style="enable-background:new 0 0 64 64;" xml:space="preserve">
<g>
	<linearGradient id="SVGID_1_" gradientUnits="userSpaceOnUse" x1="32" y1="36.586483" x2="32" y2="57.5195541">
		<stop  offset="0" style="stop-color:#2EA7E0"/>
		<stop  offset="1" style="stop-color:#036EB8"/>
	</linearGradient>
	<path style="fill:url(#SVGID_1_);" d="M59.9448318,52.3234749c-1.0594673-1.302002-3.3031693-3.4528885-5.3691406-6.2464371
		c-4.9187279-6.6509743-8.3881073-7.98172-13.8114395-9.4904709C40.6716919,36.5608101,37.3548546,42.4640541,32,42.4640541
		s-8.6716938-5.903244-8.7642517-5.8774872c-5.4233341,1.5087509-8.8927126,2.8394966-13.8114386,9.4904709
		c-2.0659738,2.7935486-4.3096743,4.9444351-5.3691416,6.2464371c-0.4345267,0.5339622-0.1954632,1.3135948,0.474371,1.5380211
		c1.2204442,0.4089279,3.2819219,1.0247803,6.1694689,1.6351891c1.4616013,0.3089485,4.9376316-5.1960793,6.8205805-4.9175072
		c0,0,0.7629471,6.0331345,1.5926495,6.1345177C22.9992714,57.1885338,26.6269169,57.5195541,32,57.5195541
		s9.0007286-0.3310204,12.8877602-0.8058586c0.8297043-0.1013832,1.5926514-6.1345177,1.5926514-6.1345177
		c1.8829498-0.2785721,5.3589783,5.2264557,6.8205795,4.9175072c2.8875465-0.6104088,4.9490242-1.2262611,6.1694717-1.6351891
		C60.1402931,53.6370697,60.3793602,52.8574371,59.9448318,52.3234749z"/>
	<path style="fill:#172A88;" d="M32,57.7695313c-5.2495117,0-8.8349609-0.3085938-12.9179688-0.8076172
		c-0.8637695-0.1054688-1.4790039-3.7958984-1.7832031-6.1396484c-0.8774414,0.078125-2.1953125,1.4150391-3.3623047,2.5976563
		c-1.3300781,1.3496094-2.4790039,2.5-3.2890625,2.3212891C7.75,55.1289063,5.6777344,54.5097656,4.449707,54.0986328
		c-0.3979492-0.1337891-0.703125-0.4462891-0.815918-0.8359375c-0.1113281-0.3828125-0.0283203-0.7832031,0.2275391-1.0976563
		c0.3691406-0.453125,0.8779297-1.0058594,1.4667969-1.6464844c1.1347656-1.2324219,2.5473633-2.7675781,3.8950195-4.5898438
		c5.0537109-6.8330078,8.5917969-8.0927734,13.9458008-9.5830078l0.0668945-0.0087891l0,0
		c0.144043,0,0.1870117,0.0615234,0.3916016,0.3564453c3.1606445,4.5625,6.2973633,5.5205078,8.3725586,5.5205078
		c2.0761719,0,5.2138672-0.9580078,8.3730469-5.5214844c0.2041016-0.2939453,0.2470703-0.3554688,0.390625-0.3554688
		l0.0673828,0.0087891c5.3544922,1.4902344,8.8925781,2.75,13.9462891,9.5830078
		c1.3476563,1.8222656,2.7597656,3.3574219,3.8955078,4.5908203c0.5888672,0.6396484,1.0976563,1.1923828,1.4667969,1.6455078
		c0.2548828,0.3154297,0.3378906,0.7158203,0.2265625,1.0986328c-0.1132813,0.3896484-0.4179688,0.7011719-0.8164063,0.8349609
		c-1.2275391,0.4111328-3.2998047,1.0302734-6.1972656,1.6425781c-0.0566406,0.0126953-0.1152344,0.0185547-0.1757813,0.0185547l0,0
		c-0.8066406-0.0009766-1.875-1.0839844-3.1132813-2.3388672c-1.1669922-1.1835938-2.484375-2.5205078-3.3623047-2.5986328
		c-0.3037109,2.34375-0.9189453,6.0341797-1.7832031,6.1396484C40.8349609,57.4609375,37.25,57.7695313,32,57.7695313z
		 M17.3774414,50.3193359c0.0605469,0,0.1201172,0.0039063,0.1787109,0.0126953l0.1875,0.0273438l0.0239258,0.1884766
		c0.3398438,2.6865234,0.9677734,5.7138672,1.3896484,5.921875C23.2070313,56.9619141,26.7758789,57.2695313,32,57.2695313
		c5.2246094,0,8.7929688-0.3076172,12.8574219-0.8037109c0.4072266-0.203125,1.0351563-3.2314453,1.375-5.9179688
		l0.0234375-0.1884766l0.1884766-0.0273438c1.0820313-0.1582031,2.5673828,1.3085938,3.9755859,2.7373047
		c1.0615234,1.0771484,2.1591797,2.1904297,2.7568359,2.1904297l0,0c0.0263672,0,0.0498047-0.0029297,0.0722656-0.0068359
		c2.8740234-0.6083984,4.9267578-1.2216797,6.1425781-1.6289063c0.2460938-0.0820313,0.4257813-0.2646484,0.4941406-0.5
		c0.0654297-0.2236328,0.015625-0.4580078-0.1347656-0.6435547c-0.3583984-0.4404297-0.8632813-0.9882813-1.4462891-1.6220703
		c-1.1435547-1.2421875-2.5654297-2.7890625-3.9296875-4.6328125c-4.9052734-6.6328125-8.3554688-7.9111328-13.5175781-9.3535156
		c-0.0205078,0.0302734-0.0449219,0.0664063-0.0732422,0.1064453C37.5,41.71875,34.1943359,42.7138672,32,42.7138672
		c-2.1953125,0-5.5014648-0.9951172-8.7841797-5.7373047c-0.027832-0.0390625-0.0517578-0.0742188-0.0722656-0.1044922
		c-5.1625977,1.4423828-8.612793,2.7207031-13.5180664,9.3535156c-1.3637695,1.84375-2.7866211,3.3896484-3.9291992,4.6318359
		c-0.5839844,0.6347656-1.0878906,1.1816406-1.4472656,1.6240234c-0.1503906,0.1845703-0.199707,0.4189453-0.1352539,0.6425781
		c0.0683594,0.2353516,0.2485352,0.4179688,0.4951172,0.5c1.215332,0.4072266,3.2675781,1.0205078,6.1420898,1.6289063
		c0.5478516,0.09375,1.7216797-1.0595703,2.8295898-2.1835938C14.9135742,51.7167969,16.2924805,50.3193359,17.3774414,50.3193359z"
		/>
</g>
<g>
	<g>
		<path style="fill:#471E02;" d="M44.7524567,57.6133156c-0.9150658-0.5516205-4.973587-1.8075218-7.5047188-0.8449669
			c-2.5311317,0.9625587-4.833168,2.2661858-5.1822319,3.0570946c-0.5283031,1.1970367,1.5749931,1.8969002,1.5749931,1.8969002
			s1.0630951,0.6340942,2.5369873,0.8077965c2.741581,0.3231049,6.1471291-0.1648598,8.9650116-1.6844063
			C47.9603767,59.3261871,45.6675224,58.1649399,44.7524567,57.6133156z"/>
		<path style="fill:#110700;" d="M37.8398438,62.875L37.8398438,62.875c-0.5791016,0-1.1474609-0.0322266-1.6914063-0.0966797
			c-1.5097656-0.1777344-2.5908203-0.8134766-2.6357422-0.8408203l0,0c-0.0185547,0-1.315918-0.4433594-1.6831055-1.2724609
			c-0.1357422-0.3066406-0.1333008-0.6230469,0.0073242-0.9404297c0.4248047-0.9638672,3.0566406-2.3291016,5.3222656-3.1894531
			c0.6435547-0.2451172,1.4208984-0.3691406,2.3115234-0.3691406c2.2402344,0,4.6767578,0.7910156,5.4111328,1.2333984
			l0.1660156,0.0986328c0.6855469,0.4042969,1.7207031,1.015625,1.703125,1.8916016
			c-0.0107422,0.59375-0.4980469,1.1416016-1.4892578,1.6757813C43.0966797,62.2324219,40.4609375,62.875,37.8398438,62.875z
			 M39.4707031,56.6660156c-0.8291016,0-1.5478516,0.1132813-2.1337891,0.3359375
			c-2.5283203,0.9609375-4.7431641,2.2451172-5.0429688,2.9238281c-0.0820313,0.1865234-0.0844727,0.3623047-0.0073242,0.5361328
			c0.2314453,0.5234375,1.112793,0.9160156,1.4331055,1.0234375c0.0585938,0.0283203,1.0878906,0.6318359,2.4873047,0.796875
			C36.7314453,62.34375,37.2802734,62.375,37.8398438,62.375c2.5400391,0,5.0917969-0.6210938,7.1845703-1.7490234
			c0.7949219-0.4296875,1.2197266-0.8603516,1.2265625-1.2460938c0.0117188-0.5839844-0.9072266-1.1269531-1.4570313-1.4511719
			l-0.1699219-0.1015625C43.9511719,57.421875,41.5878906,56.6660156,39.4707031,56.6660156z"/>
	</g>
	<g>
		<path style="fill:#471E02;" d="M19.2399483,57.6133156c0.9110909-0.5516205,4.9519882-1.8075218,7.4721279-0.8449669
			c2.5201378,0.9625587,4.8121796,2.2661858,5.1597252,3.0570946c0.5260105,1.1970367-1.5681515,1.8969002-1.5681515,1.8969002
			s-1.0584812,0.6340942-2.5259686,0.8077965c-2.7296791,0.3231049-6.1204376-0.1648598-8.9260807-1.6844063
			S18.3288555,58.1649399,19.2399483,57.6133156z"/>
		<path style="fill:#110700;" d="M26.1230469,62.875c-2.6113281,0-5.2358398-0.6425781-7.390625-1.8095703
			c-0.9868164-0.5341797-1.4726563-1.0830078-1.4838867-1.6748047c-0.0170898-0.8769531,1.0136719-1.4882813,1.6958008-1.8925781
			l0.1660156-0.0986328c0.730957-0.4423828,3.1567383-1.2333984,5.3886719-1.2333984
			c0.8867188,0,1.6616211,0.1240234,2.3022461,0.3691406c2.2558594,0.8603516,4.8764648,2.2265625,5.2993164,3.1894531
			c0.1401367,0.3183594,0.1420898,0.6357422,0.0063477,0.9423828c-0.3686523,0.8310547-1.6689453,1.2744141-1.7241211,1.2929688
			c0.0043945,0.0039063-1.0722656,0.640625-2.5756836,0.8183594C27.265625,62.8427734,26.6992188,62.875,26.1230469,62.875z
			 M24.4990234,56.6660156c-2.109375,0-4.4604492,0.7558594-5.1298828,1.1611328l-0.1694336,0.1015625
			c-0.5473633,0.3242188-1.4628906,0.8671875-1.4511719,1.4521484c0.0073242,0.3857422,0.4301758,0.8164063,1.222168,1.2451172
			C21.0532227,61.7539063,23.59375,62.375,26.1230469,62.375c0.5566406,0,1.1035156-0.03125,1.6254883-0.0927734
			c1.3920898-0.1650391,2.4169922-0.7685547,2.4267578-0.7744141c0.3671875-0.1289063,1.2436523-0.5214844,1.4746094-1.0439453
			c0.0771484-0.1748047,0.0751953-0.3515625-0.0073242-0.5380859c-0.2978516-0.6787109-2.5029297-1.9628906-5.0200195-2.9238281
			C26.0390625,56.7792969,25.324707,56.6660156,24.4990234,56.6660156z"/>
	</g>
</g>
<g>
	<g>
		
			<linearGradient id="SVGID_2_" gradientUnits="userSpaceOnUse" x1="51.0691147" y1="51.4824181" x2="51.0691147" y2="61.8946991" gradientTransform="matrix(0.9943538 -0.1061161 0.1061161 0.9943538 -5.5716066 5.380538)">
			<stop  offset="0" style="stop-color:#2EA7E0"/>
			<stop  offset="1" style="stop-color:#036EB8"/>
		</linearGradient>
		<path style="fill:url(#SVGID_2_);" d="M52.8558083,51.1009979c-1.8852539,0.9146042-10.5915031,4.2089767-10.5915031,4.2089767
			s-0.8375244,0.5672035-1.0559769,1.0716057c-0.124588,0.2876701,1.2535324,0.5657845,1.9079437,2.381031
			c0.7192078,1.9949989-0.0860138,2.806675,0.4330025,3.1684532c1.207901,0.8419647,13.3744888-1.0428925,15.6417656-3.4429855
			c2.2672806-2.4000931,2.2351341-4.2211685,1.2209129-5.7518845
			C59.3977318,51.2054749,54.7410583,50.1863899,52.8558083,51.1009979z"/>
		<path style="fill:#172A88;" d="M44.9560547,62.3847656c0,0,0,0-0.0009766,0c-1.0683594,0-1.3955078-0.1416016-1.5488281-0.2490234
			c-0.3476563-0.2421875-0.3095703-0.6035156-0.265625-1.0214844c0.0537109-0.5048828,0.1269531-1.1953125-0.2597656-2.2666016
			c-0.4013672-1.1142578-1.0898438-1.6083984-1.5-1.9042969c-0.2705078-0.1933594-0.5253906-0.3769531-0.4023438-0.6611328
			c0.2412109-0.5556641,1.0537109-1.1171875,1.1455078-1.1796875c0.1386719-0.0595703,8.7695313-3.3271484,10.6220703-4.2265625
			c0.5009766-0.2431641,1.2080078-0.3710938,2.0439453-0.3710938c2.1455078,0,5.0009766,0.8408203,5.8300781,2.09375
			c1.2421875,1.8740234,0.8339844,3.8574219-1.2470703,6.0615234
			C57.4462891,60.6982422,48.6386719,62.3847656,44.9560547,62.3847656z M41.4814453,56.3955078
			c0.0498047,0.0410156,0.1259766,0.0957031,0.1904297,0.1416016c0.4287109,0.3076172,1.2255859,0.8798828,1.6796875,2.140625
			c0.4248047,1.1787109,0.3417969,1.9667969,0.2871094,2.4882813c-0.0410156,0.3876953-0.0419922,0.4931641,0.0527344,0.5595703
			c0.0537109,0.0371094,0.3037109,0.1591797,1.2636719,0.1591797c3.5175781,0,12.2431641-1.6513672,14.0546875-3.5683594
			c1.9238281-2.0371094,2.3037109-3.7666016,1.1943359-5.4423828c-0.6484375-0.9785156-3.2294922-1.8691406-5.4140625-1.8691406
			c-0.7607422,0-1.3925781,0.1103516-1.8251953,0.3203125c-1.8740234,0.9101563-10.2558594,4.0839844-10.6113281,4.2177734
			C42.2011719,55.6542969,41.6835938,56.0527344,41.4814453,56.3955078z"/>
	</g>
	<g>
		
			<linearGradient id="SVGID_3_" gradientUnits="userSpaceOnUse" x1="51.0691147" y1="51.4824181" x2="51.0691147" y2="61.8946991" gradientTransform="matrix(-0.9943538 -0.1061161 -0.1061161 0.9943538 69.5716095 5.380538)">
			<stop  offset="0" style="stop-color:#2EA7E0"/>
			<stop  offset="1" style="stop-color:#036EB8"/>
		</linearGradient>
		<path style="fill:url(#SVGID_3_);" d="M11.1441927,51.1009979c1.885252,0.9146042,10.5915041,4.2089767,10.5915041,4.2089767
			s0.8375225,0.5672035,1.055975,1.0716057c0.1245861,0.2876701-1.2535324,0.5657845-1.9079418,2.381031
			c-0.7192097,1.9949989,0.0860119,2.806675-0.4330063,3.1684532c-1.2078991,0.8419647-13.3744869-1.0428925-15.6417646-3.4429855
			s-2.2351346-4.2211685-1.2209122-5.7518845C4.6022692,51.2054749,9.2589407,50.1863899,11.1441927,51.1009979z"/>
		<path style="fill:#172A88;" d="M19.0439453,62.3847656c-3.6821289,0-12.4907227-1.6865234-14.4165039-3.7246094
			c-2.0820313-2.2041016-2.4902344-4.1875-1.2480469-6.0615234c0.8295898-1.2529297,3.6845703-2.09375,5.8305664-2.09375
			c0.8359375,0,1.5424805,0.1279297,2.0429688,0.3710938c1.8540039,0.8994141,10.484375,4.1669922,10.5712891,4.2001953
			c0.1435547,0.0888672,0.956543,0.6503906,1.1967773,1.2060547c0.1230469,0.2841797-0.1318359,0.4677734-0.4018555,0.6611328
			c-0.4106445,0.2958984-1.0986328,0.7900391-1.5,1.9042969c-0.3862305,1.0703125-0.3134766,1.7617188-0.2602539,2.265625
			c0.0444336,0.4189453,0.0825195,0.7802734-0.2651367,1.0224609C20.4404297,62.2431641,20.112793,62.3847656,19.0439453,62.3847656
			z M9.2099609,51.0048828c-2.1850586,0-4.765625,0.890625-5.4135742,1.8691406
			c-1.1103516,1.6757813-0.7304688,3.4042969,1.1943359,5.4423828c1.8110352,1.9169922,10.5361328,3.5683594,14.0532227,3.5683594
			c0.9609375,0,1.2099609-0.1220703,1.2636719-0.1591797c0.0952148-0.0664063,0.0952148-0.171875,0.0541992-0.5595703
			c-0.0551758-0.5214844-0.1381836-1.3095703,0.2866211-2.4882813c0.4545898-1.2597656,1.2509766-1.8320313,1.6791992-2.1396484
			c0.0649414-0.046875,0.140625-0.1015625,0.1904297-0.1425781c-0.2021484-0.34375-0.7231445-0.7441406-0.9223633-0.8789063
			c-0.3041992-0.1074219-8.6870117-3.28125-10.5610352-4.1914063C10.6020508,51.1152344,9.9707031,51.0048828,9.2099609,51.0048828z
			"/>
	</g>
</g>
<g>
	<g>
		<g>
			<path style="fill:#281000;" d="M42.9851913,37.6004906c0,0,0.7095032-1.6942291,2.1683044-1.8041992
				c1.4588051-0.1100426,2.3619385,4.0011787-0.3859177,5.8177872c-1.7394218,1.1498489-2.3817902,0.0137558-2.3817902,0.0137558
				L42.9851913,37.6004906z"/>
			<path style="fill:#110700;" d="M43.3681641,42.3789063c-0.8359375,0-1.1855469-0.6025391-1.2001953-0.6279297
				l-0.0419922-0.0751953l0.6123047-4.1123047c0.0478516-0.1347656,0.8027344-1.8964844,2.3964844-2.0166016l0.0751953-0.0029297
				c0.6035156,0,1.1435547,0.5527344,1.4111328,1.4423828c0.4472656,1.4873047,0.1015625,3.6357422-1.7158203,4.8369141
				C44.3476563,42.1914063,43.8300781,42.3789063,43.3681641,42.3789063z M42.6474609,41.5654297
				c0.0888672,0.1054688,0.3144531,0.3134766,0.7207031,0.3134766c0.3623047,0,0.7871094-0.1591797,1.2617188-0.4736328
				c1.6035156-1.0595703,1.9082031-2.9589844,1.5126953-4.2753906c-0.1982422-0.6601563-0.5644531-1.0859375-0.9326172-1.0859375
				c-1.3232422,0.0986328-1.9873047,1.6376953-1.9941406,1.6533203L42.6474609,41.5654297z"/>
		</g>
		<g>
			<path style="fill:#281000;" d="M21.1353607,37.6004906c0,0-0.7094059-1.6942291-2.1682091-1.8041992
				c-1.4589005-0.1100426-2.3619366,4.0011787,0.3859196,5.8177872c1.7393246,1.1498489,2.3817883,0.0137558,2.3817883,0.0137558
				L21.1353607,37.6004906z"/>
			<path style="fill:#110700;" d="M20.7519531,42.3789063L20.7519531,42.3789063c-0.4619141,0-0.9785156-0.1875-1.5366211-0.5556641
				c-1.8168945-1.2011719-2.1630859-3.3496094-1.7163086-4.8369141c0.2675781-0.8896484,0.8085938-1.4423828,1.4111328-1.4423828
				l0.0756836,0.0029297c1.5932617,0.1201172,2.3486328,1.8818359,2.3798828,1.9570313l0.6289063,4.171875l-0.0419922,0.0751953
				C21.9379883,41.7763672,21.5878906,42.3789063,20.7519531,42.3789063z M18.9462891,36.0449219
				c-0.4052734,0-0.7700195,0.4267578-0.9682617,1.0849609c-0.3955078,1.3164063-0.0908203,3.2158203,1.5126953,4.2753906
				c0.4750977,0.3144531,0.8994141,0.4736328,1.2612305,0.4736328l0,0c0.4057617,0,0.6313477-0.2070313,0.7207031-0.3134766
				l-0.5844727-3.9267578l0,0c-0.0087891,0-0.6723633-1.4980469-1.9399414-1.59375
				C18.9477539,36.0449219,18.9472656,36.0449219,18.9462891,36.0449219z"/>
		</g>
		<g>
			<path style="fill:#281000;" d="M42.7601051,21.0293255C39.8377953,19.0988922,37.3515663,18.39851,32,18.39851
				s-7.8377972,0.7003822-10.7601032,2.6308155c-3.5781975,2.363863-2.7388706,11.8634853-0.6290379,20.1992283
				C22.1115723,47.1577225,30.1736908,50.17136,32,50.17136s9.8884277-3.0136375,11.3891411-8.9428062
				C45.4989738,32.8928108,46.3383026,23.3931885,42.7601051,21.0293255z"/>
			<path style="fill:#110700;" d="M32,50.4208984c-1.7797852,0-10.090332-3.0429688-11.6313477-9.1308594
				c-2.0952148-8.2773438-3.0024414-18.0014648,0.7333984-20.4692383c3.0625-2.0229492,5.7109375-2.6723633,10.8979492-2.6723633
				c5.1875,0,7.8349609,0.6494141,10.8974609,2.6723633c3.7363281,2.4682617,2.8291016,12.1918945,0.7333984,20.4692383
				C42.0908203,47.3779297,33.7802734,50.4208984,32,50.4208984z M32,18.6484375
				c-5.1362305,0-7.6181641,0.6049805-10.6225586,2.5893555c-3.5214844,2.3261719-2.4833984,12.1899414-0.5244141,19.9291992
				C22.3305664,47.0029297,30.2944336,49.9208984,32,49.9208984c1.7050781,0,9.6699219-2.9179688,11.1464844-8.7539063
				c1.9589844-7.7392578,2.9970703-17.6025391-0.5244141-19.9291992C39.6181641,19.253418,37.1357422,18.6484375,32,18.6484375z"/>
		</g>
		<g>
			<path style="fill:#471E02;" d="M40.5944824,28.9130688c-1.4711761,3.0161972-4.7293396,7.4423847-7.4633827,8.9605503
				l-3.7828598,2.100502l3.0061264-3.1127739c0.0180321-0.0188904,1.1201668-1.1697464,2.4292641-3.0301018
				c-2.714386,2.2735138-5.3078365,3.6136818-5.4664631,3.6951065l-1.3507195,0.6903191l0.4400101-1.4519005
				c0.8791561-2.8995743,1.9758244-5.6659412,3.2668915-8.2459641c-0.5886612,0.2187576-1.1697483,0.4282131-1.7407627,0.6335449
				c-4.0404568,1.4556389-8.6681385,4.7490005-8.7349834,6.4641571c0.2653675,2.179142,0.6247215,2.4681015,1.0358639,4.5511475
				C23.8872452,48.5472183,30.6743126,49.3231812,32,49.3231812s8.1127548-0.7759628,9.7665329-9.1555252
				c0.4269676-2.1629333,0.7997475-2.5424271,1.0683746-4.8030891C42.4604988,33.4586563,41.7130165,31.29879,40.5944824,28.9130688
				z M32,46.1613693c-0.458519,0-1.1736794-0.9377213-1.1736794-1.1886101c0-0.3292389,0.9696903,0.8662758,1.1736794,0.8662758
				c0.2039871,0,1.1736794-1.1955147,1.1736794-0.8662758C33.1736794,45.2236481,32.458519,46.1613693,32,46.1613693z"/>
			<linearGradient id="SVGID_4_" gradientUnits="userSpaceOnUse" x1="31.5745029" y1="45.4566002" x2="31.5745029" y2="40.6808395">
				<stop  offset="0" style="stop-color:#FFFFFF;stop-opacity:0"/>
				<stop  offset="0.4" style="stop-color:#FFFFFF;stop-opacity:0.2"/>
				<stop  offset="0.6" style="stop-color:#FFFFFF;stop-opacity:0.2"/>
				<stop  offset="1" style="stop-color:#FFFFFF;stop-opacity:0"/>
			</linearGradient>
			<path style="fill:url(#SVGID_4_);" d="M32.1584358,43.0687675c0,1.3187828-0.2679596,2.3878326-0.2679596,2.3878326
				c-0.3794937,0-1.0712528-0.5224876-0.8609333-1.801857c0.1964111-1.1940117,0.3567638-2.9739037,0.7362576-2.9739037
				S32.1584358,41.7499847,32.1584358,43.0687675z"/>
		</g>
	</g>
</g>
<g>
	<path style="fill:#050505;" d="M29.4930553,33.8183975c0,0-0.4517097-0.2040672-1.1482639-0.4176941
		c-0.3442974-0.1113663-0.762249-0.2070351-1.2036972-0.2887268c-0.2254715-0.0336266-0.455164-0.0667267-0.6931019-0.0821571
		c-0.2347755-0.0328331-0.479044-0.0139122-0.7201481-0.024395c-0.4848938,0.0085716-0.9674835,0.0676498-1.4211121,0.1473656
		c-0.2185669,0.0537338-0.4418335,0.0927696-0.6518631,0.1368141c-0.1966057,0.0611191-0.3924427,0.1116257-0.5731258,0.1612091
		c-0.3729725,0.0884819-0.6442871,0.2088776-0.8671684,0.2671661c-0.220293,0.0638885-0.3461189,0.1004181-0.3461189,0.1004181
		s0.0790253-0.0668602,0.2303619-0.1803322c0.1621742-0.1056252,0.3559971-0.2878685,0.6933899-0.4399796
		c0.1630363-0.0799141,0.3389263-0.1703758,0.5367775-0.2570763c0.2142506-0.0716743,0.4383793-0.1546822,0.6827431-0.2272758
		c0.2467632-0.0690346,0.5248871-0.117363,0.8010921-0.1734734c0.28685-0.033165,0.5861683-0.0629044,0.8854847-0.0749702
		c0.3020992,0.0031662,0.6064053,0.0024414,0.8960361,0.0443764c0.2965374,0.0222168,0.5679474,0.086834,0.8274651,0.1470985
		c0.5093479,0.1327896,0.9390011,0.3047485,1.2421551,0.4867287C29.2964516,33.4941292,29.4930553,33.8183975,29.4930553,33.8183975
		z"/>
	<path style="fill:#050505;" d="M34.5069427,33.8183975c0,0,0.4517097-0.2040672,1.1482658-0.4176941
		c0.3442993-0.1113663,0.762249-0.2070351,1.2036972-0.2887268c0.2254715-0.0336266,0.455162-0.0667267,0.6931038-0.0821571
		c0.2347717-0.0328331,0.4790421-0.0139122,0.7201462-0.024395c0.4848938,0.0085716,0.9674835,0.0676498,1.4211121,0.1473656
		c0.2185669,0.0537338,0.4418335,0.0927696,0.6518631,0.1368141c0.1966057,0.0611191,0.3924408,0.1116257,0.5731277,0.1612091
		c0.3729706,0.0884819,0.6442833,0.2088776,0.8671684,0.2671661c0.2202911,0.0638885,0.3461189,0.1004181,0.3461189,0.1004181
		s-0.0790253-0.0668602-0.2303619-0.1803322c-0.162178-0.1056252-0.355999-0.2878685-0.6933899-0.4399796
		c-0.1630402-0.0799141-0.3389282-0.1703758-0.5367775-0.2570763c-0.2142525-0.0716743-0.4383812-0.1546822-0.6827469-0.2272758
		c-0.2467613-0.0690346-0.5248833-0.117363-0.8010902-0.1734734c-0.28685-0.033165-0.5861664-0.0629044-0.8854866-0.0749702
		c-0.3020973,0.0031662-0.6064034,0.0024414-0.8960342,0.0443764c-0.2965355,0.0222168-0.5679474,0.086834-0.8274651,0.1470985
		c-0.5093498,0.1327896-0.9389992,0.3047485-1.2421532,0.4867287
		C34.7035484,33.4941292,34.5069427,33.8183975,34.5069427,33.8183975z"/>
</g>
<g>
	<g>
		<path style="fill:#FFFFFF;" d="M39.911068,35.8211899c-0.2079201-0.0601311-2.7597504,0.0091133-2.979084,0.0738487
			c-1.2921181,0.3811226-1.8488464,1.3582001-1.8488464,1.9807167c0,0.4867134,0.3966637,1.3722649,1.1440468,1.6736946
			c0.510788,0.2060013,0.6564674,0.254818,1.0611839,0.2674789c0.170517,0.0053673,0.3856316,0.0074806,0.7095947,0.0127525
			c0.2271042,0.0036469,0.5129929-0.0012474,0.7798004-0.035675c1.3103447-0.1691742,2.1433716-1.2373314,3.2718811-2.7695961
			C42.0496445,37.0244102,41.4917679,36.27808,39.911068,35.8211899z"/>
		<g>
			<g>
				
					<linearGradient id="SVGID_5_" gradientUnits="userSpaceOnUse" x1="38.0991669" y1="39.6139259" x2="38.0991669" y2="35.3683281">
					<stop  offset="0" style="stop-color:#1E1E57"/>
					<stop  offset="0.452675" style="stop-color:#070714"/>
				</linearGradient>
				<path style="fill:url(#SVGID_5_);" d="M37.8933334,39.6139259c-0.0552406,0-0.1105804-0.0027809-0.1661072-0.0085335
					c-0.4750137-0.0494881-0.8901863-0.3081436-1.1685982-0.7285881c-0.2921257-0.4409676-0.396946-1.0007629-0.2957687-1.5763817
					c0.1903725-1.0835304,1.0873642-1.9320946,2.0419998-1.9320946c0.0552406,0,0.1104813,0.0028801,0.1661072,0.0085373
					c1.0123672,0.1053047,1.6695061,1.1392517,1.464653,2.3050652
					C39.7449608,38.7652664,38.8479652,39.6139259,37.8933334,39.6139259L37.8933334,39.6139259z"/>
				<g>
					<path style="fill:#050505;" d="M40.1523628,37.7044678c0.1493225-0.8488503-0.1442413-1.6246223-0.6943474-2.0817032
						c-0.2904968-0.1058769-0.6176262-0.1720543-0.9865723-0.1720543c-0.5970039,0-1.0863075,0.0976334-1.4950523,0.2496414
						c-0.4649467,0.3746033-0.8163414,0.9282608-0.9305611,1.5774384c-0.1923866,1.0939827,0.3412247,2.0781555,1.2274818,2.3958855
						c0.1420326,0.0056572,0.3211823,0.0078659,0.5911522,0.0134277c0.1891251,0.0038338,0.4004974,0.0063286,0.6245308-0.0080566
						C39.3035126,39.4205818,39.9836693,38.6639938,40.1523628,37.7044678z M37.8933334,39.4458046
						c-0.0455551,0-0.0915909-0.0023956-0.1367607-0.0070953c-0.4018402-0.0418129-0.7580299-0.2684364-1.0029678-0.6381493
						c-0.2720833-0.410759-0.3693314-0.9355469-0.2740021-1.4776955c0.176178-1.0016289,0.9779396-1.7863197,1.8253517-1.7863197
						c0.0455551,0,0.0914917,0.0023994,0.1367607,0.0070992c0.4018402,0.0417175,0.7580299,0.2683411,1.0028725,0.6381493
						c0.2720833,0.410759,0.3694229,0.9354515,0.2740974,1.4776001
						C39.5425072,38.6611176,38.7406502,39.4458046,37.8933334,39.4458046z"/>
				</g>
			</g>
			<path style="fill:#050505;" d="M37.3207817,37.3911476c-0.0840111,0.5903893,0.1964149,1.1138344,0.6262589,1.169075
				s0.8464508-0.3786278,0.9304657-0.9691124c0.0840111-0.5903893-0.1964149-1.113739-0.6262589-1.1689796
				C37.8213081,36.3668861,37.4047966,36.8007584,37.3207817,37.3911476z"/>
		</g>
		<linearGradient id="SVGID_6_" gradientUnits="userSpaceOnUse" x1="36.4001961" y1="37.642704" x2="36.4001961" y2="36.4509964">
			<stop  offset="0" style="stop-color:#FFFFFF;stop-opacity:0.5"/>
			<stop  offset="0.7" style="stop-color:#FFFFFF"/>
		</linearGradient>
		<ellipse style="fill:url(#SVGID_6_);" cx="36.4001961" cy="37.0468521" rx="0.6121585" ry="0.5958548"/>
		<linearGradient id="SVGID_7_" gradientUnits="userSpaceOnUse" x1="38.0121574" y1="39.5809364" x2="38.0121574" y2="38.8733521">
			<stop  offset="0" style="stop-color:#FFFFFF;stop-opacity:0.2"/>
			<stop  offset="0.7" style="stop-color:#FFFFFF;stop-opacity:0.5"/>
		</linearGradient>
		<ellipse style="fill:url(#SVGID_7_);" cx="38.0121574" cy="39.2271423" rx="0.3633822" ry="0.3537918"/>
		<g>
			<g>
				<path style="fill:#050505;" d="M41.2569923,38.3191185c0.2687225-0.5911522,0.505703-1.1266861,0.505703-1.1266861
					c0-0.2704506-1.7193756-1.3759422-2.1851845-1.3759422c-0.9432182,0-2.5054092,0.1429939-3.0587769,0.3475609
					c0,0-1.0613747,0.7399025-1.7958145,1.3131218c0.3224335-0.6090889,1.4331017-1.7197571,1.7854576-1.8451042
					c0.5865517-0.208786,2.1078835-0.2904015,3.0870705-0.2904015c1.0569611,0,2.9378433,1.7010612,2.9378433,1.7010612
					S41.9421349,37.6876831,41.2569923,38.3191185z"/>
			</g>
		</g>
	</g>
	<g>
		<path style="fill:#FFFFFF;" d="M24.088932,35.8211899c0.207922-0.0601311,2.7597485,0.0091133,2.9790821,0.0738487
			c1.2921219,0.3811226,1.8488483,1.3582001,1.8488483,1.9807167c0,0.4867134-0.3966618,1.3722649-1.1440468,1.6736946
			c-0.5107861,0.2060013-0.6564655,0.254818-1.061182,0.2674789c-0.1705189,0.0053673-0.3856335,0.0074806-0.7095985,0.0127525
			c-0.2271023,0.0036469-0.5129929-0.0012474-0.7797985-0.035675c-1.3103447-0.1691742-2.1433716-1.2373314-3.2718792-2.7695961
			C21.9503574,37.0244102,22.508234,36.27808,24.088932,35.8211899z"/>
		<g>
			<g>
				
					<linearGradient id="SVGID_8_" gradientUnits="userSpaceOnUse" x1="38.0991669" y1="39.6139259" x2="38.0991669" y2="35.3683281" gradientTransform="matrix(-1 0 0 1 64 0)">
					<stop  offset="0" style="stop-color:#1E1E57"/>
					<stop  offset="0.452675" style="stop-color:#070714"/>
				</linearGradient>
				<path style="fill:url(#SVGID_8_);" d="M26.1066666,39.6139259c0.0552425,0,0.1105785-0.0027809,0.1661072-0.0085335
					c0.4750156-0.0494881,0.8901863-0.3081436,1.1685963-0.7285881c0.2921257-0.4409676,0.3969498-1.0007629,0.2957706-1.5763817
					c-0.1903706-1.0835304-1.0873661-1.9320946-2.0419998-1.9320946c-0.0552406,0-0.1104813,0.0028801-0.1661072,0.0085373
					c-1.0123672,0.1053047-1.6695042,1.1392517-1.464653,2.3050652
					C24.2550392,38.7652664,25.1520348,39.6139259,26.1066666,39.6139259L26.1066666,39.6139259z"/>
				<g>
					<path style="fill:#050505;" d="M25.5110035,39.6790466c0.2240334,0.0143852,0.4354076,0.0118904,0.6245308,0.0080566
						c0.2699718-0.0055618,0.4491215-0.0077705,0.591156-0.0134277c0.8862534-0.3177299,1.4198666-1.3019028,1.2274818-2.3958855
						c-0.1142216-0.6491776-0.4656162-1.2028351-0.9305611-1.5774384c-0.4087448-0.1520081-0.8980503-0.2496414-1.4950562-0.2496414
						c-0.3689442,0-0.6960754,0.0661774-0.9865704,0.1720543c-0.550108,0.4570808-0.8436718,1.2328529-0.6943474,2.0817032
						C24.0163326,38.6639938,24.6964874,39.4205818,25.5110035,39.6790466z M24.2813168,37.6593933
						c-0.0953293-0.5421486,0.0020142-1.0668411,0.2740955-1.4776001c0.2448444-0.3698082,0.6010323-0.5964317,1.0028725-0.6381493
						c0.0452671-0.0046997,0.0912056-0.0070992,0.1367607-0.0070992c0.8474121,0,1.6491737,0.7846909,1.8253498,1.7863197
						c0.0953293,0.5421486-0.0019169,1.0669365-0.2739983,1.4776955c-0.2449398,0.3697128-0.6011295,0.5963364-1.0029697,0.6381493
						c-0.0451717,0.0046997-0.0912056,0.0070953-0.1367607,0.0070953
						C25.2593517,39.4458046,24.4574928,38.6611176,24.2813168,37.6593933z"/>
				</g>
			</g>
			<path style="fill:#050505;" d="M26.6792183,37.3911476c0.0840111,0.5903893-0.196413,1.1138344-0.6262569,1.169075
				s-0.8464546-0.3786278-0.9304657-0.9691124c-0.084013-0.5903893,0.1964111-1.113739,0.6262569-1.1689796
				C26.1786919,36.3668861,26.5952053,36.8007584,26.6792183,37.3911476z"/>
		</g>
		<linearGradient id="SVGID_9_" gradientUnits="userSpaceOnUse" x1="24.3758793" y1="37.643856" x2="24.3758793" y2="36.4521484">
			<stop  offset="0" style="stop-color:#FFFFFF;stop-opacity:0.5"/>
			<stop  offset="0.7" style="stop-color:#FFFFFF"/>
		</linearGradient>
		<ellipse style="fill:url(#SVGID_9_);" cx="24.3758793" cy="37.0480003" rx="0.6121585" ry="0.5958548"/>
		<linearGradient id="SVGID_10_" gradientUnits="userSpaceOnUse" x1="25.9878426" y1="39.5820885" x2="25.9878426" y2="38.8745041">
			<stop  offset="0" style="stop-color:#FFFFFF;stop-opacity:0.2"/>
			<stop  offset="0.7" style="stop-color:#FFFFFF;stop-opacity:0.5"/>
		</linearGradient>
		<ellipse style="fill:url(#SVGID_10_);" cx="25.9878426" cy="39.2282944" rx="0.3633822" ry="0.3537918"/>
		<g>
			<g>
				<path style="fill:#050505;" d="M22.7430077,38.3191185c-0.2687244-0.5911522-0.505703-1.1266861-0.505703-1.1266861
					c0-0.2704506,1.7193756-1.3759422,2.1851826-1.3759422c0.943222,0,2.5054111,0.1429939,3.0587788,0.3475609
					c0,0,1.0613766,0.7399025,1.7958126,1.3131218c-0.3224316-0.6090889-1.4331017-1.7197571-1.7854538-1.8451042
					c-0.5865517-0.208786-2.1078854-0.2904015-3.0870705-0.2904015c-1.0569649,0-2.9378433,1.7010612-2.9378433,1.7010612
					S22.0578671,37.6876831,22.7430077,38.3191185z"/>
			</g>
		</g>
	</g>
</g>
<g>
	<g>
		<linearGradient id="SVGID_11_" gradientUnits="userSpaceOnUse" x1="31.8862591" y1="13.3114185" x2="31.8862591" y2="38.3611984">
			<stop  offset="0" style="stop-color:#000000"/>
			<stop  offset="0.131687" style="stop-color:#3E3A39"/>
			<stop  offset="0.251029" style="stop-color:#3E3A39"/>
			<stop  offset="1" style="stop-color:#000000"/>
		</linearGradient>
		<path style="fill:url(#SVGID_11_);" d="M15.9413643,27.9144154c1.7820015-9.8307209,5.7934952-12.850709,11.267725-12.850709
			c2.5389767-0.9901762,4.9454136-1.2334566,6.4267559-1.6124239c2.0857315-0.5335264,3.6590424,0.5424747,4.7413254,1.8209105
			c6.8311882,1.0762014,7.9487572,4.3413515,9.4470749,12.67694c1.0120811,4.2561474-2.8131676,10.4120655-2.8131676,10.4120655
			c-0.0700111-2.4037514-0.5241165-4.5520134-1.2785034-6.4479485c0.0554352,2.1095161-0.0768204,3.6007347-0.0768204,3.6007347
			c-0.3460236-2.7553368-1.4993706-5.7619419-2.8448143-8.4995365c-0.1028099-0.1250591-0.2015915-0.2554893-0.306797-0.3773842
			c-0.9860916,2.7265644-4.6700706,8.1378803-7.6861725,9.8126621c0,0,3.1150742-3.2201843,5.1784592-7.7393036
			c-3.3497543,4.5082817-8.9727306,7.3819618-8.9727306,7.3819618c1.1706104-3.8604431,2.6003551-7.0653801,4.0180149-9.6581593
			c-0.0452652,0.0185089-0.0833397,0.0408554-0.1292763,0.0590782c-6.4335651,2.5560455-12.4658623,3.554987-13.1815987,9.599081
			c0,0-0.1618862-0.3360481-0.3941669-0.9128189c-0.1903706,0.9481125-0.3123608,1.9438896-0.3555183,2.9901123
			C18.9811535,38.1696777,14.9245844,32.1764107,15.9413643,27.9144154z"/>
		<path style="fill:#050505;" d="M44.7851563,39.1982422l-0.0244141-0.8300781
			c-0.0498047-1.7392578-0.3076172-3.3955078-0.7675781-4.9414063c-0.015625,1.2734375-0.0878906,2.0976563-0.0888672,2.109375
			l-0.2070313,2.3212891l-0.2900391-2.3125c-0.2998047-2.3896484-1.2490234-5.222168-2.8212891-8.4199219l-0.0019531-0.0029297
			c-1.2050781,2.9135742-4.7324219,7.9296875-7.6445313,9.546875l-1.4682617,0.8154297l1.1669922-1.2080078
			c0.0258789-0.0273438,2.2407227-2.3378906,4.1459961-5.734375c-3.3164063,3.5361328-7.597168,5.7480469-7.6464844,5.7734375
			l-0.5234375,0.2675781l0.1704102-0.5625c0.9770508-3.2231445,2.2236328-6.2792969,3.7094727-9.0947266
			c-0.9140625,0.3535156-1.8173828,0.6787109-2.6948242,0.9951172c-5.1640625,1.8603516-9.2431641,3.3300781-9.8203125,8.2011719
			l-0.1005859,0.8525391l-0.3725586-0.7734375c0,0-0.0249023-0.0517578-0.0693359-0.1494141
			c-0.1069336,0.6962891-0.1757813,1.4091797-0.2055664,2.1289063l-0.0317383,0.7578125l-0.425293-0.6289063
			c-0.1679688-0.2480469-4.105957-6.1337891-3.0756836-10.453125c1.6293945-8.9936523,5.1674805-13.0229492,11.4638672-13.0429688
			c1.7758789-0.6870117,3.4790039-1.0136719,4.8496094-1.2763672c0.6015625-0.1157227,1.1210938-0.215332,1.5625-0.328125
			c1.8056641-0.4633789,3.4912109,0.1650391,4.9326172,1.8305664c6.8232422,1.1025391,8.0458984,4.4189453,9.5634766,12.8652344
			c1.0214844,4.2944336-2.6884766,10.3334961-2.8476563,10.5883789L44.7851563,39.1982422z M43.4453125,30.5161133
			l0.5195313,1.3046875c0.6943359,1.7456055,1.1152344,3.6508789,1.2539063,5.6743164
			c0.953125-1.7441406,3.1367188-6.230957,2.3623047-9.4882813c-1.5126953-8.4135742-2.6308594-11.4458008-9.2431641-12.487793
			l-0.0917969-0.0146484l-0.0595703-0.0708008c-1.3300781-1.5703125-2.8496094-2.159668-4.4892578-1.7402344
			c-0.4550781,0.1166992-0.9819336,0.2177734-1.5917969,0.3344727c-1.3613281,0.2612305-3.0561523,0.5864258-4.8056641,1.2685547
			l-0.0908203,0.0170898c-6.0375977,0-9.4365234,3.8999023-11.0214844,12.6455078
			c-0.7895508,3.3105469,1.6005859,7.7636719,2.5913086,9.4179688c0.0615234-0.7636719,0.1665039-1.5166016,0.3129883-2.2460938
			l0.1645508-0.8203125l0.3125,0.7753906c0.0185547,0.0458984,0.0361328,0.0898438,0.0537109,0.1328125
			c0.9750977-4.5146484,5.1806641-6.0292969,10.0073242-7.7685547c1.0366211-0.3735352,2.1088867-0.7597656,3.1904297-1.1894531
			l0.7792969-0.324707l-0.3378906,0.6181641c-1.5224609,2.7827148-2.8046875,5.8154297-3.8164063,9.0229492
			c1.4765625-0.8378906,5.6748047-3.4145508,8.3505859-7.015625l1.4101563-1.8984375l-0.9824219,2.1513672
			c-1.1640625,2.5493164-2.6738281,4.703125-3.7714844,6.0996094c2.4814453-2.2807617,5.03125-6.1904297,5.8164063-8.3618164
			l0.1455078-0.4003906l0.2783203,0.3217773c0.0703125,0.0800781,0.1367188,0.1645508,0.2041016,0.2485352l0.1074219,0.1342773
			c1.1748047,2.3779297,2.0039063,4.5429688,2.4902344,6.4824219c0.0039063-0.4282227,0.0019531-0.9057617-0.0117188-1.4189453
			L43.4453125,30.5161133z"/>
	</g>
	<linearGradient id="SVGID_12_" gradientUnits="userSpaceOnUse" x1="44.1668472" y1="18.5581913" x2="44.1668472" y2="27.8963852">
		<stop  offset="0" style="stop-color:#FFFFFF;stop-opacity:0.6"/>
		<stop  offset="1" style="stop-color:#FFFFFF;stop-opacity:0"/>
	</linearGradient>
	<path style="fill:url(#SVGID_12_);" d="M41.3506889,18.5581913c0,0,4.2711105,1.9766979,5.6343918,9.3381939
		C46.9850807,27.8963852,41.2234268,21.4209995,41.3506889,18.5581913z"/>
	
		<linearGradient id="SVGID_13_" gradientUnits="userSpaceOnUse" x1="38.6934509" y1="18.3259563" x2="38.6934509" y2="27.486311" gradientTransform="matrix(0.9994 0.0332 -0.0332 0.9994 -1.1817069 -0.8298)">
		<stop  offset="0" style="stop-color:#FFFFFF;stop-opacity:0.6"/>
		<stop  offset="1" style="stop-color:#FFFFFF;stop-opacity:0"/>
	</linearGradient>
	<path style="fill:url(#SVGID_13_);" d="M39.9565277,18.8719807c0,0-2.0633888,6.0272923-6.4569664,8.9504623
		C33.4995613,27.822443,36.0563774,19.9019394,39.9565277,18.8719807z"/>
	<linearGradient id="SVGID_14_" gradientUnits="userSpaceOnUse" x1="29.2065887" y1="18.0118141" x2="29.2065887" y2="26.3332386">
		<stop  offset="0" style="stop-color:#FFFFFF;stop-opacity:0.6"/>
		<stop  offset="1" style="stop-color:#FFFFFF;stop-opacity:0"/>
	</linearGradient>
	<path style="fill:url(#SVGID_14_);" d="M34.8668747,18.0118141c0,0-4.8302326,1.0184765-5.9955673,2.383812
		c-1.1653366,1.3653355-5.3250027,5.9376125-5.3250027,5.9376125S33.4796143,21.7609615,34.8668747,18.0118141z"/>
	<linearGradient id="SVGID_15_" gradientUnits="userSpaceOnUse" x1="19.4624977" y1="18.9341278" x2="19.4624977" y2="28.5361652">
		<stop  offset="0" style="stop-color:#FFFFFF;stop-opacity:0.6"/>
		<stop  offset="1" style="stop-color:#FFFFFF;stop-opacity:0"/>
	</linearGradient>
	<path style="fill:url(#SVGID_15_);" d="M22.3296604,18.9341278c0,0-4.7472744,2.4078655-5.7343235,9.6020374
		C16.5953369,28.5361652,22.1588535,22.3954945,22.3296604,18.9341278z"/>
</g>
<g>
	<linearGradient id="SVGID_16_" gradientUnits="userSpaceOnUse" x1="32" y1="2" x2="32" y2="12.364481">
		<stop  offset="0" style="stop-color:#2EA7E0"/>
		<stop  offset="1" style="stop-color:#036EB8"/>
	</linearGradient>
	<path style="fill:url(#SVGID_16_);" d="M33.8505287,2.953768l-1.383709,8.8292856
		c-0.1214943,0.7752371-0.8121452,0.7752371-0.9336395,0l-1.383707-8.8292856C30.0735474,2.469301,30.3032455,2,30.616291,2
		h2.7674179C33.6967545,2,33.9264526,2.469301,33.8505287,2.953768z"/>
	
		<linearGradient id="SVGID_17_" gradientUnits="userSpaceOnUse" x1="32" y1="2" x2="32" y2="12.364481" gradientTransform="matrix(0.9396926 -0.3420202 0.3420202 0.9396926 -7.646728 12.6332512)">
		<stop  offset="0" style="stop-color:#2EA7E0"/>
		<stop  offset="1" style="stop-color:#036EB8"/>
	</linearGradient>
	<path style="fill:url(#SVGID_17_);" d="M25.1726112,3.8313229l1.719532,8.7700701
		c0.15098,0.7700386-0.4980183,1.0062551-0.8773327,0.3193235L21.6947575,5.097158
		c-0.2370434-0.4292822-0.1817093-0.948842,0.1124573-1.0559101l2.600523-0.9465122
		C24.7019043,2.9876678,25.0782585,3.350105,25.1726112,3.8313229z"/>
	
		<linearGradient id="SVGID_18_" gradientUnits="userSpaceOnUse" x1="32" y1="2" x2="32" y2="11.7830534" gradientTransform="matrix(0.7660444 -0.6427876 0.6427876 0.7660444 -10.5114756 27.1199589)">
		<stop  offset="0" style="stop-color:#2EA7E0"/>
		<stop  offset="1" style="stop-color:#036EB8"/>
	</linearGradient>
	<path style="fill:url(#SVGID_18_);" d="M14.4830065,10.0029688c-0.3695717-0.322319-0.4952736-0.8294716-0.2554665-1.030694
		l2.1199636-1.778861c0.2398071-0.2012219,0.7174263,0.0106368,0.9706745,0.4305634l4.6153736,7.6530557"/>
	
		<linearGradient id="SVGID_19_" gradientUnits="userSpaceOnUse" x1="33.6244202" y1="2" x2="33.6244202" y2="2.953768" gradientTransform="matrix(0.5 -0.8660254 0.8660254 0.5 -8.2487116 41.7128143)">
		<stop  offset="0" style="stop-color:#2EA7E0"/>
		<stop  offset="1" style="stop-color:#036EB8"/>
	</linearGradient>
	<path style="fill:url(#SVGID_19_);" d="M10.1751938,13.8016729c0.1565228-0.2711048,0.6777983-0.2353792,1.0593967,0.072607"/>
	
		<linearGradient id="SVGID_20_" gradientUnits="userSpaceOnUse" x1="30.3755798" y1="2.0000007" x2="30.3755798" y2="2.9537687" gradientTransform="matrix(0.5 0.8660254 -0.8660254 0.5 40.2487106 -13.7128124)">
		<stop  offset="0" style="stop-color:#2EA7E0"/>
		<stop  offset="1" style="stop-color:#036EB8"/>
	</linearGradient>
	<path style="fill:url(#SVGID_20_);" d="M52.7654114,13.87428c0.3815956-0.3079863,0.9028702-0.3437119,1.0593948-0.072607"/>
	
		<linearGradient id="SVGID_21_" gradientUnits="userSpaceOnUse" x1="32" y1="2.0000007" x2="32" y2="11.7830534" gradientTransform="matrix(0.7660444 0.6427876 -0.6427876 0.7660444 25.4846325 -14.0184479)">
		<stop  offset="0" style="stop-color:#2EA7E0"/>
		<stop  offset="1" style="stop-color:#036EB8"/>
	</linearGradient>
	<path style="fill:url(#SVGID_21_);" d="M42.0664482,15.2770329l4.6153717-7.6530557
		c0.2532501-0.4199266,0.7308693-0.6317854,0.9706764-0.4305634l2.1199646,1.778861
		c0.2398071,0.2012224,0.1141052,0.708375-0.2554665,1.030694"/>
	
		<linearGradient id="SVGID_22_" gradientUnits="userSpaceOnUse" x1="32" y1="2.0000007" x2="32" y2="12.3644819" gradientTransform="matrix(0.9396926 0.3420202 -0.3420202 0.9396926 11.5064011 -9.2560387)">
		<stop  offset="0" style="stop-color:#2EA7E0"/>
		<stop  offset="1" style="stop-color:#036EB8"/>
	</linearGradient>
	<path style="fill:url(#SVGID_22_);" d="M42.3052444,5.097158l-4.3200569,7.8235583
		c-0.3793106,0.6869316-1.0283127,0.4507151-0.8773308-0.3193235l1.719532-8.7700701
		c0.0943527-0.4812179,0.4707069-0.8436551,0.7648735-0.7365873l2.6005211,0.9465122
		C42.4869499,4.1483159,42.5422859,4.6678758,42.3052444,5.097158z"/>
</g>
</svg>
