<?xml version="1.0" encoding="iso-8859-1"?>
<!-- Generator: Adobe Illustrator 16.0.0, SVG Export Plug-In . SVG Version: 6.00 Build 0)  -->
<!DOCTYPE svg PUBLIC "-//W3C//DTD SVG 1.1//EN" "http://www.w3.org/Graphics/SVG/1.1/DTD/svg11.dtd">
<svg version="1.1" xmlns="http://www.w3.org/2000/svg" xmlns:xlink="http://www.w3.org/1999/xlink" x="0px" y="0px" width="64px"
	 height="64px" viewBox="0 0 64 64" style="enable-background:new 0 0 64 64;" xml:space="preserve">
<g id="man_x5F_playing_x5F_handball_x28_ye_x29_">
	<path id="path30-2_624_" style="fill:#231815;stroke:#231815;stroke-width:2.1649;stroke-miterlimit:10;" d="M39.202,35.9
		c1.449-0.785,2.417-1.534,2.641-3.598c-0.037-1.16,1.26-0.847,1.26-0.847c2.182-0.95,1.751,0.583,2.126,1.292
		c0.379,0.711-1.493,3.483-5.162,4.824c-4.152,1.326-5.948,0.908-5.69-0.124C34.637,36.416,36.878,37.16,39.202,35.9z"/>
	<g id="Layer_1_151_">
	</g>
	<g>
		
			<radialGradient id="path48_1_" cx="30.6646" cy="34.7588" r="27.0924" gradientTransform="matrix(0.8637 -0.504 0.504 0.8637 -13.4671 22.4443)" gradientUnits="userSpaceOnUse">
			<stop  offset="0" style="stop-color:#FFF89F"/>
			<stop  offset="1" style="stop-color:#F15F57"/>
		</radialGradient>
		<path id="path48_56_" style="fill:url(#path48_1_);stroke:#231815;stroke-width:2;stroke-miterlimit:10;" d="M17.925,44.746
			c-0.1-0.264,0.431-1.029,1.702-1.924c0.221-0.154,0.419-0.279,0.607-0.391c1.021-0.877,3.313-2.084,5.872-3.248
			c5.578-2.547,3.686,0.225,3.686,0.225c-0.357,0.656-1.466,0.699-2.441,1.123c-1.613,0.701-4.358,1.992-5.32,3.567
			c-0.279,0.597-0.838,1.212-0.838,1.212c-1.055,0.424,0.021-1.701-1.362-1.18C18.704,44.878,18.021,44.996,17.925,44.746z"/>
		<g id="man_x5F_dancing_x28_ye_x29__29_">
			
				<path id="path34-7-5_639_" style="fill:#4C0A02;stroke:#231815;stroke-width:2;stroke-linecap:round;stroke-linejoin:round;stroke-miterlimit:10;" d="
				M28.997,40.344c-0.324-0.258-0.881-1.506-0.437-1.885c0.445-0.373,1.647-1.031,1.647-1.031c1.07-0.629,2.248-0.896,3.487-0.789
				c0,0,1.279,0.104,1.847,0.248c0.563,0.146,0.364,1.357,0.437,1.883c0,0,0.513,3.838,2.367,7.488c0,0-1.052,2.108-3.63,2.692
				c-2.578,0.583-4.457-0.86-4.457-0.86C30.324,44.002,28.997,40.344,28.997,40.344z"/>
			<g id="g204_32_">
				<g id="g202_33_">
					<g id="g191_30_">
						<path id="path4_91_" style="fill:#F09400;stroke:#231815;stroke-width:1.5423;stroke-miterlimit:10;" d="M43.254,16.044
							c1.955,8.258-3.275,16.579-11.68,18.568c-8.414,1.99-16.814-3.106-18.769-11.364c-1.954-8.259,3.275-16.569,11.688-18.559
							C32.898,2.699,41.301,7.785,43.254,16.044z"/>
						
							<radialGradient id="path19_1_" cx="288.2617" cy="-330.6582" r="0.5045" gradientTransform="matrix(0.9732 -0.2303 -0.2303 -0.9732 -320.9343 -242.0072)" gradientUnits="userSpaceOnUse">
							<stop  offset="0" style="stop-color:#BF6D48"/>
							<stop  offset="0.3871" style="stop-color:#B35125"/>
							<stop  offset="0.6026" style="stop-color:#98411C"/>
							<stop  offset="0.7151" style="stop-color:#91350D"/>
							<stop  offset="0.8698" style="stop-color:#753012"/>
							<stop  offset="1" style="stop-color:#6B2100"/>
						</radialGradient>
						<path id="path19_42_" style="fill:url(#path19_1_);" d="M42.549,16.211c1.863,7.875-3.125,15.807-11.14,17.706
							c-8.022,1.898-16.034-2.961-17.897-10.835C11.648,15.204,16.637,7.28,24.656,5.383C32.672,3.486,40.686,8.334,42.549,16.211z"
							/>
						<path id="path21_64_" style="fill:#48140F;stroke:#231815;stroke-width:2.7816;stroke-miterlimit:10;" d="M40.5,22.566
							c1.583,6.685-2.728,11.877-9.194,13.407c-6.467,1.532-12.641-1.17-14.224-7.866c-1.582-6.687,2.376-13.351,8.843-14.88
							C32.389,11.699,38.919,15.88,40.5,22.566z"/>
						<path id="path23_101_" style="fill:none;stroke:#231815;stroke-width:2.7816;stroke-miterlimit:10;" d="M43.545,23.025
							c0.096,1.432-0.817,2.659-2.046,2.743c-1.227,0.083-2.298-1.007-2.396-2.438c-0.096-1.43,0.818-2.653,2.043-2.739
							C42.375,20.509,43.448,21.6,43.545,23.025z"/>
						
							<radialGradient id="path30_1_" cx="348.2754" cy="-299.3076" r="4.3783" gradientTransform="matrix(0.9977 -0.0683 -0.0683 -0.9977 -326.5918 -251.6543)" gradientUnits="userSpaceOnUse">
							<stop  offset="0" style="stop-color:#FFF89F"/>
							<stop  offset="1" style="stop-color:#F15F57"/>
						</radialGradient>
						<path id="path30_59_" style="fill:url(#path30_1_);" d="M43.545,23.025c0.096,1.432-0.817,2.659-2.046,2.743
							c-1.227,0.083-2.298-1.007-2.396-2.438c-0.096-1.43,0.818-2.653,2.043-2.739C42.375,20.509,43.448,21.6,43.545,23.025z"/>
						
							<ellipse id="ellipse32_28_" transform="matrix(0.3859 0.9226 -0.9226 0.3859 37.3107 1.6058)" style="fill:none;stroke:#231815;stroke-width:2.7816;stroke-miterlimit:10;" cx="17.449" cy="28.827" rx="2.597" ry="2.226"/>
						
							<radialGradient id="path39_1_" cx="-136.3213" cy="-378.5" r="4.3768" gradientTransform="matrix(-0.9224 0.3861 -0.3861 -0.9224 -254.4298 -267.6669)" gradientUnits="userSpaceOnUse">
							<stop  offset="0" style="stop-color:#FFF89F"/>
							<stop  offset="1" style="stop-color:#F15F57"/>
						</radialGradient>
						<path id="path39_46_" style="fill:url(#path39_1_);" d="M15.397,29.686c0.554,1.323,1.922,2.01,3.058,1.535
							c1.132-0.475,1.604-1.929,1.05-3.253c-0.553-1.32-1.919-2.005-3.057-1.532C15.316,26.91,14.844,28.366,15.397,29.686z"/>
						
							<radialGradient id="path48_2_" cx="30.6646" cy="34.7588" r="27.0924" gradientTransform="matrix(0.8637 -0.504 0.504 0.8637 -13.4671 22.4443)" gradientUnits="userSpaceOnUse">
							<stop  offset="0" style="stop-color:#FFF89F"/>
							<stop  offset="1" style="stop-color:#F15F57"/>
						</radialGradient>
						<path id="path48_53_" style="fill:url(#path48_2_);" d="M17.925,44.746c-0.1-0.264,0.431-1.029,1.702-1.924
							c0.221-0.154,0.419-0.279,0.607-0.391c1.021-0.877,3.313-2.084,5.872-3.248c5.578-2.547,3.686,0.225,3.686,0.225
							c-0.357,0.656-1.466,0.699-2.441,1.123c-1.613,0.701-4.358,1.992-5.32,3.567c-0.279,0.597-0.838,1.212-0.838,1.212
							c-1.055,0.424,0.021-1.701-1.362-1.18C18.704,44.878,18.021,44.996,17.925,44.746z"/>
						<g id="g52_28_">
							
								<ellipse id="ellipse50_28_" transform="matrix(-0.2924 -0.9563 0.9563 -0.2924 -1.604 95.2526)" style="fill:#48140F;stroke:#231815;stroke-width:1.8499;stroke-linecap:round;stroke-linejoin:round;stroke-miterlimit:10;" cx="34.439" cy="48.22" rx="3.375" ry="4.47"/>
						</g>
						
							<ellipse id="ellipse54_106_" transform="matrix(-0.2924 -0.9563 0.9563 -0.2924 -1.5504 95.1009)" style="fill:#0083C5;" cx="34.41" cy="48.124" rx="3.375" ry="4.47"/>
						<path id="path56_53_" style="fill:#48140F;stroke:#231815;stroke-width:2;stroke-miterlimit:10;" d="M31.073,49.884
							c-1.059,1.778-0.439,5.433,1.087,7.53c1.53,2.099,2.611,1.788,2.419,0.381c-0.192-1.406-0.827-2.609,0.556-5.28
							C36.519,49.842,31.82,48.626,31.073,49.884z"/>
						
							<path id="path58_52_" style="fill:#48140F;stroke:#231815;stroke-width:2;stroke-linecap:round;stroke-linejoin:round;stroke-miterlimit:10;" d="
							M32.226,60.918c-0.629-0.633-0.627-1.66,0.007-2.291c0.635-0.632,1.663-0.631,2.293,0.006L32.226,60.918z"/>
						<path id="path60_28_" style="fill:#48140F;stroke:#231815;stroke-width:2;stroke-miterlimit:10;" d="M35.495,49.56
							c1.06,1.915,4.617,3.374,7.236,3.177c2.616-0.197,2.875-1.324,1.529-1.93c-1.342-0.602-2.726-0.697-4.42-3.391
							C38.149,44.721,34.745,48.208,35.495,49.56z"/>
						
							<path id="path62_37_" style="fill:#48140F;stroke:#231815;stroke-width:2;stroke-linecap:round;stroke-linejoin:round;stroke-miterlimit:10;" d="
							M45.076,51.494c-0.885,0.115-1.513,0.928-1.398,1.814c0.112,0.887,0.926,1.514,1.813,1.4L45.076,51.494z"/>
						
							<ellipse id="ellipse64_30_" transform="matrix(-0.2925 -0.9563 0.9563 -0.2925 -1.3944 95.2008)" style="fill:#48140F;stroke:#231815;stroke-width:2;stroke-miterlimit:10;" cx="34.52" cy="48.116" rx="3.375" ry="3.806"/>
						
							<radialGradient id="path66_1_" cx="37.4805" cy="42.6611" r="34.376" gradientTransform="matrix(0.8455 -0.5339 0.5339 0.8455 -21.5303 26.4976)" gradientUnits="userSpaceOnUse">
							<stop  offset="0" style="stop-color:#FFF89F"/>
							<stop  offset="1" style="stop-color:#F15F57"/>
						</radialGradient>
						<path id="path66_47_" style="fill:url(#path66_1_);" d="M31.073,49.884c-1.059,1.778-0.439,5.433,1.087,7.53
							c1.53,2.099,2.611,1.788,2.419,0.381c-0.192-1.406-0.827-2.609,0.556-5.28C36.519,49.842,31.82,48.626,31.073,49.884z"/>
						
							<radialGradient id="path68_1_" cx="37.8418" cy="41.4111" r="34.377" gradientTransform="matrix(0.5904 -0.8071 0.8071 0.5904 -28.8989 50.4632)" gradientUnits="userSpaceOnUse">
							<stop  offset="0" style="stop-color:#FFF89F"/>
							<stop  offset="1" style="stop-color:#F15F57"/>
						</radialGradient>
						<path id="path68_41_" style="fill:url(#path68_1_);" d="M32.226,60.918c-0.629-0.633-0.627-1.66,0.007-2.291
							c0.635-0.632,1.663-0.631,2.293,0.006L32.226,60.918z"/>
						
							<radialGradient id="path70_1_" cx="37.8545" cy="43.1816" r="34.3731" gradientTransform="matrix(0.8455 -0.5339 0.5339 0.8455 -21.5303 26.4976)" gradientUnits="userSpaceOnUse">
							<stop  offset="0" style="stop-color:#FFF89F"/>
							<stop  offset="1" style="stop-color:#F15F57"/>
						</radialGradient>
						<path id="path70_29_" style="fill:url(#path70_1_);" d="M35.495,49.56c1.06,1.915,4.617,3.374,7.236,3.177
							c2.616-0.197,2.875-1.324,1.529-1.93c-1.342-0.602-2.722-0.699-4.42-3.391C37.747,44.102,34.745,48.208,35.495,49.56z"/>
						
							<radialGradient id="path72_1_" cx="37.4629" cy="41.1865" r="34.3735" gradientTransform="matrix(-0.1372 -0.9905 0.9905 -0.1372 -4.3812 102.1291)" gradientUnits="userSpaceOnUse">
							<stop  offset="0" style="stop-color:#FFF89F"/>
							<stop  offset="1" style="stop-color:#F15F57"/>
						</radialGradient>
						<path id="path72_32_" style="fill:url(#path72_1_);" d="M45.076,51.494c-0.885,0.115-1.513,0.928-1.398,1.814
							c0.112,0.887,0.926,1.514,1.813,1.4L45.076,51.494z"/>
						
							<radialGradient id="ellipse74_1_" cx="30.3799" cy="36.1211" r="27.084" gradientTransform="matrix(0.9853 -0.3013 0.2924 0.9563 -8.9437 11.7259)" gradientUnits="userSpaceOnUse">
							<stop  offset="0" style="stop-color:#FFF89F"/>
							<stop  offset="1" style="stop-color:#F15F57"/>
						</radialGradient>
						<path id="ellipse74_31_" style="fill:url(#ellipse74_1_);" d="M33.497,45.107c-2.354,0.719-3.816,2.747-3.271,4.529
							c0.546,1.782,2.894,2.645,5.245,1.926c2.35-0.719,3.813-2.746,3.269-4.529C38.194,45.252,35.847,44.389,33.497,45.107z"/>
						
							<radialGradient id="path34-7-5_1_" cx="30.5742" cy="35.8682" r="27.0386" gradientTransform="matrix(0.9563 -0.2924 0.2924 0.9563 -8.1651 11.749)" gradientUnits="userSpaceOnUse">
							<stop  offset="0" style="stop-color:#FFF89F"/>
							<stop  offset="1" style="stop-color:#F15F57"/>
						</radialGradient>
						<path id="path34-7-5_638_" style="fill:url(#path34-7-5_1_);" d="M28.997,40.344c-0.324-0.258-0.881-1.506-0.437-1.885
							c0.445-0.373,1.647-1.031,1.647-1.031c1.07-0.629,2.248-0.896,3.487-0.789c0,0,1.279,0.104,1.847,0.248
							c0.563,0.146,0.291,1.117,0.437,1.883c0,0,0.513,3.838,2.367,7.488c0,0-1.098,1.914-3.677,2.497
							c-2.578,0.585-4.411-0.667-4.411-0.667C30.324,44.002,28.997,40.344,28.997,40.344z"/>
						
							<linearGradient id="polygon82_1_" gradientUnits="userSpaceOnUse" x1="35.5264" y1="37.4639" x2="35.3344" y2="35.3194" gradientTransform="matrix(-0.9563 0.2924 0.2924 0.9563 55.0869 -8.0342)">
							<stop  offset="0" style="stop-color:#FFF89F"/>
							<stop  offset="1" style="stop-color:#F15F57"/>
						</linearGradient>
						<polygon id="polygon82_29_" style="fill:url(#polygon82_1_);" points="31.015,38.211 33.091,37.734 32.395,34.709 
							30.319,35.184 						"/>
						
							<radialGradient id="path168_1_" cx="278.7402" cy="-339.9092" r="22.0488" gradientTransform="matrix(0.9732 -0.2303 -0.2303 -0.9732 -320.9343 -242.0072)" gradientUnits="userSpaceOnUse">
							<stop  offset="0" style="stop-color:#FFF89F"/>
							<stop  offset="1" style="stop-color:#F15F57"/>
						</radialGradient>
						<path id="path168_35_" style="fill:url(#path168_1_);" d="M40.5,22.566c1.583,6.685-2.728,11.877-9.194,13.407
							c-6.467,1.532-12.641-1.17-14.224-7.866c-1.582-6.687,2.376-13.351,8.843-14.88C32.389,11.699,38.919,15.88,40.5,22.566z"/>
						
							<path id="path170_34_" style="fill:none;stroke:#A4414A;stroke-width:0.8345;stroke-linecap:round;stroke-linejoin:round;stroke-miterlimit:10;" d="
							M34.539,17.413c0,0-2.001-1.695-3.561,0.842"/>
						
							<path id="path172_32_" style="fill:none;stroke:#A4414A;stroke-width:0.8345;stroke-linecap:round;stroke-linejoin:round;stroke-miterlimit:10;" d="
							M24.109,19.88c0,0-1.999-1.694-3.557,0.841"/>
						<path id="path174_32_" style="fill:#231815;" d="M17.721,29.19c0,0-2.17-3.252-3.307-7.08
							c-0.797-2.692-1.534-4.37-0.013-7.303c1.558-3.001,4-7.08,9.771-8.445c5.766-1.364,9.784,1.187,12.519,3.171
							c2.677,1.94,2.767,3.771,3.261,6.535c0.703,3.932,0.744,7.688,0.744,7.688c-0.558-0.987-3.045-3.525-3.045-3.525
							c-0.699,0.167-3.128-0.019-3.128-0.019l0.212,0.898c-4.808,0.552-7.54-2.849-7.54-2.849l0.703,5.049
							c-3.434-0.807-6.285-4.883-6.285-4.883C17.416,23.209,18.087,28.822,17.721,29.19z"/>
						
							<radialGradient id="path189_1_" cx="287.4219" cy="-331.0332" r="12.0957" gradientTransform="matrix(0.9425 -0.2231 -0.2303 -0.9732 -320.8037 -242.5624)" gradientUnits="userSpaceOnUse">
							<stop  offset="0" style="stop-color:#BF6D48"/>
							<stop  offset="0.3871" style="stop-color:#B35125"/>
							<stop  offset="0.6026" style="stop-color:#98411C"/>
							<stop  offset="0.7151" style="stop-color:#91350D"/>
							<stop  offset="0.8698" style="stop-color:#753012"/>
							<stop  offset="1" style="stop-color:#6B2100"/>
						</radialGradient>
						<path id="path189_33_" style="fill:url(#path189_1_);" d="M17.445,28.021c0,0-2.081-2.393-3.323-6.664
							c-0.873-3.003-1.426-4.395,0.095-7.328c1.557-3.002,4-7.081,9.771-8.446c5.766-1.365,9.783,1.187,12.52,3.172
							c2.674,1.94,2.803,3.432,3.368,6.508c0.806,4.375,0.543,7.322,0.543,7.322c-0.559-0.988-2.766-3.18-2.766-3.18
							c-0.7,0.167-3.315,0.025-3.315,0.025l0.213,0.898c-4.811,0.759-7.975-3.255-7.975-3.255l0.714,5.351
							c-2.922-0.638-5.647-5.137-5.647-5.137C16.847,22.218,17.81,27.654,17.445,28.021z"/>
					</g>
					<path id="path209_227_" style="fill:#160201;" d="M35.635,24.073c0.392,1.657-0.141,3.204-1.187,3.451
						c-1.049,0.248-2.216-0.896-2.608-2.554c-0.396-1.667,0.135-3.217,1.186-3.463C34.071,21.26,35.24,22.406,35.635,24.073z"/>
					<g id="g200_33_">
						<g id="g198_32_">
							<g id="g196_30_">
								<circle id="circle194_28_" style="fill:#FFFFFF;" cx="33.858" cy="22.851" r="0.836"/>
							</g>
						</g>
					</g>
				</g>
			</g>
			<g id="g213_364_">
				
					<linearGradient id="path219_1_" gradientUnits="userSpaceOnUse" x1="285.1309" y1="-343.7119" x2="289.7168" y2="-343.7119" gradientTransform="matrix(0.9732 -0.2303 -0.2303 -0.9732 -320.9343 -242.0072)">
					<stop  offset="0" style="stop-color:#FFA67F"/>
					<stop  offset="0.0969" style="stop-color:#FF967B"/>
					<stop  offset="0.3655" style="stop-color:#FF7170"/>
					<stop  offset="0.6143" style="stop-color:#FF5568"/>
					<stop  offset="0.8336" style="stop-color:#FF4564"/>
					<stop  offset="1" style="stop-color:#FF3F62"/>
				</linearGradient>
				<path id="path219_30_" style="fill:url(#path219_1_);" d="M40.175,25.772c0.143,0.598-0.74,1.319-1.974,1.611
					c-1.234,0.291-2.349,0.042-2.489-0.555c-0.142-0.598,0.743-1.32,1.977-1.611C38.92,24.926,40.034,25.175,40.175,25.772z"/>
			</g>
			<g id="g213_363_">
				<path id="path209_226_" style="fill:#160201;" d="M24.751,26.647c0.393,1.658-0.138,3.204-1.185,3.452
					c-1.048,0.248-2.214-0.896-2.606-2.554c-0.395-1.666,0.133-3.216,1.183-3.464C23.188,23.833,24.356,24.98,24.751,26.647z"/>
				<path id="path211_176_" style="fill:#FFFFFF;" d="M23.788,25.233c0.107,0.449-0.171,0.896-0.624,1.004
					c-0.447,0.106-0.896-0.17-1.002-0.618c-0.106-0.449,0.17-0.9,0.617-1.006C23.231,24.506,23.682,24.785,23.788,25.233z"/>
			</g>
			<path id="path58-3-7_68_" style="fill:#C30D23;" d="M29.578,32.99c1.652-0.355,2.928-1.139,3.053-1.656
				c0.063-0.258,0.017-0.523-0.23-0.64c-0.248-0.112-0.545-0.011-0.667,0.227c-0.239,0.471-2.548,2.065-4.63,1.176
				c-0.25-0.106-0.479-0.099-0.594,0.142c-0.114,0.243,0.107,0.444,0.359,0.554C27.801,33.189,28.665,33.145,29.578,32.99z"/>
		</g>
		<path style="fill:#C30D23;stroke:#231815;stroke-width:2;stroke-miterlimit:10;" d="M37.034,44.677c0,0-1.462,4.222-6.752,4.679
			c0,0-1.016,1.222,0.141,4.926l4.459-0.391l1.109-2.104l2.16,0.485c0,0,2.29-1.965,3.13-3.677c0,0-0.67-0.627-1.323-1.209
			C39.055,46.58,38.446,45.016,37.034,44.677z"/>
		<path style="fill:#036EB5;" d="M37.034,44.677c0.014-0.024-2,2.879-7.009,3.312c0,0-0.758,2.589,0.398,6.293l4.459-0.391
			l1.109-2.104l2.16,0.485c0,0,2.29-1.965,3.13-3.677c0,0-0.67-0.627-1.323-1.209C39.055,46.58,38.446,45.016,37.034,44.677z"/>
	</g>
	
		<radialGradient id="path30-2_1_" cx="393.4912" cy="-223.0215" r="27.9875" gradientTransform="matrix(0.2388 -1.0086 -1.1331 -0.1205 -318.5902 409.8978)" gradientUnits="userSpaceOnUse">
		<stop  offset="0" style="stop-color:#FFF89F"/>
		<stop  offset="1" style="stop-color:#F15F57"/>
	</radialGradient>
	<path id="path30-2_623_" style="fill:url(#path30-2_1_);" d="M39.202,35.9c1.449-0.785,2.417-1.534,2.641-3.598
		c-0.037-1.16,1.26-0.847,1.26-0.847c2.182-0.95,1.751,0.583,2.126,1.292c0.379,0.711-1.493,3.483-5.162,4.824
		c-4.152,1.326-5.948,0.908-5.69-0.124C34.637,36.416,36.878,37.16,39.202,35.9z"/>
	<circle style="fill:#E75513;stroke:#F09400;stroke-width:2;stroke-miterlimit:10;" cx="46.619" cy="32.632" r="5.5"/>
	<circle style="fill:#F5B32C;" cx="46.619" cy="32.632" r="5.5"/>
	
		<linearGradient id="path234_1_" gradientUnits="userSpaceOnUse" x1="-206.4961" y1="-343.5835" x2="-201.9053" y2="-343.5835" gradientTransform="matrix(-0.9732 0.2303 -0.2303 -0.9732 -257.9174 -256.7878)">
		<stop  offset="0" style="stop-color:#FFA67F"/>
		<stop  offset="0.0969" style="stop-color:#FF967B"/>
		<stop  offset="0.3655" style="stop-color:#FF7170"/>
		<stop  offset="0.6143" style="stop-color:#FF5568"/>
		<stop  offset="0.8336" style="stop-color:#FF4564"/>
		<stop  offset="1" style="stop-color:#FF3F62"/>
	</linearGradient>
	<path id="path234_31_" style="fill:url(#path234_1_);" d="M17.705,31.089c0.141,0.597,1.257,0.847,2.491,0.554
		c1.233-0.292,2.118-1.015,1.977-1.61c-0.142-0.597-1.256-0.846-2.489-0.554C18.448,29.77,17.563,30.49,17.705,31.089z"/>
	<g>
		<path style="fill:#009DE6;" d="M36.046,38.646c0.189-0.375,0.146-1.744-0.438-1.885c-0.584-0.139-2-0.195-2-0.195
			c-0.123-0.008-0.241,0.004-0.363,0.002c0.031,0.075,0.063,0.154,0.082,0.234c0.188,0.807-0.314,1.613-1.123,1.801
			c-0.808,0.188-1.614-0.314-1.802-1.119c-0.021-0.087-0.028-0.174-0.032-0.258c-0.124,0.061-0.25,0.109-0.371,0.18
			c0,0-1.248,0.676-1.711,1.059c-0.46,0.383,0.104,1.629,0.438,1.883c0,0,1.348,3.654,1.256,7.752c0,0,1.882,1.23,4.551,0.611
			c2.665-0.621,3.813-2.557,3.813-2.557C36.452,42.518,36.046,38.646,36.046,38.646z"/>
	</g>
	<path style="fill:#009DE6;" d="M26.106,39.184c-0.38,0.172-0.75,0.346-1.113,0.518l0.748,1.58c0.582-0.293,1.145-0.549,1.609-0.75
		c0.976-0.424,2.084-0.467,2.441-1.123C29.792,39.408,31.685,36.637,26.106,39.184z"/>
	<path style="fill:#009DE6;" d="M38.794,36.082c-2.172,0.975-4.172,0.395-4.418,1.366c-0.24,0.958,1.297,1.386,4.847,0.378
		C39.15,37.223,38.987,36.621,38.794,36.082z"/>
	<path style="fill:#ECECED;" d="M36.244,39.904l-7.07,1.921c0.204,0.766,0.433,1.783,0.596,2.946l7.206-1.958
		C36.615,41.67,36.386,40.651,36.244,39.904z"/>
</g>
<g id="Layer_1">
</g>
</svg>
