<?xml version="1.0" encoding="iso-8859-1"?>
<!-- Generator: Adobe Illustrator 16.0.0, SVG Export Plug-In . SVG Version: 6.00 Build 0)  -->
<!DOCTYPE svg PUBLIC "-//W3C//DTD SVG 1.1//EN" "http://www.w3.org/Graphics/SVG/1.1/DTD/svg11.dtd">
<svg version="1.1" xmlns="http://www.w3.org/2000/svg" xmlns:xlink="http://www.w3.org/1999/xlink" x="0px" y="0px" width="64px"
	 height="64px" viewBox="0 0 64 64" style="enable-background:new 0 0 64 64;" xml:space="preserve">
<g id="man_x5F_in_x5F_steamy_x5F_room_x28_ye_x29_">
	<g>
		<path style="fill:#CADFE8;" d="M45.585,46.962c-0.222-0.736-0.774-1.317-1.524-1.491c-0.232-0.049-0.469-0.056-0.695-0.027
			c-0.271-1.506-1.217-2.704-2.546-3.007c-1.655-0.376-3.362,0.752-4.165,2.607c-1.834,0.528-3.289,1.88-3.707,3.715
			c-0.643,2.818,1.393,5.683,4.548,6.398c1.499,0.344,2.977,0.133,4.188-0.478c0.391,0.322,0.843,0.555,1.347,0.67
			c2.011,0.458,4.075-1.097,4.618-3.467C48.135,49.753,47.223,47.693,45.585,46.962z"/>
		<path style="fill:#E5EFF4;" d="M44.799,47.438c-0.192-0.6-0.663-1.083-1.303-1.227c-0.199-0.045-0.399-0.052-0.592-0.029
			c-0.242-1.232-1.052-2.219-2.184-2.476c-1.408-0.322-2.849,0.589-3.515,2.099c-1.552,0.416-2.778,1.51-3.118,3.006
			c-0.523,2.296,1.227,4.652,3.908,5.263c1.274,0.29,2.527,0.131,3.552-0.359c0.335,0.265,0.72,0.46,1.149,0.558
			c1.709,0.389,3.45-0.865,3.895-2.797C46.986,49.739,46.195,48.05,44.799,47.438z"/>
		<path style="fill:#FFFFFF;" d="M44.014,47.914c-0.164-0.464-0.554-0.843-1.082-0.964c-0.166-0.038-0.33-0.047-0.488-0.031
			c-0.213-0.958-0.887-1.731-1.822-1.943c-1.159-0.269-2.334,0.426-2.863,1.59c-1.27,0.305-2.268,1.139-2.529,2.297
			c-0.404,1.773,1.061,3.621,3.27,4.127c1.049,0.236,2.078,0.129,2.914-0.241c0.279,0.208,0.596,0.365,0.951,0.444
			c1.407,0.321,2.826-0.634,3.172-2.125C45.837,49.726,45.169,48.406,44.014,47.914z"/>
	</g>
	<g>
		<path style="fill:#CADFE8;" d="M18.859,21.686c-0.377-0.668-1.045-1.115-1.814-1.117c-0.236,0.002-0.469,0.048-0.684,0.126
			c-0.598-1.409-1.783-2.368-3.146-2.372c-1.696-0.002-3.113,1.475-3.488,3.461c-1.673,0.92-2.795,2.559-2.797,4.442
			c-0.007,2.889,2.61,5.233,5.846,5.237c1.539,0.005,2.934-0.525,3.981-1.389c0.45,0.228,0.944,0.355,1.46,0.355
			c2.063,0.006,3.734-1.966,3.74-4.398C21.963,23.847,20.62,22.039,18.859,21.686z"/>
		<path style="fill:#E5EFF4;" d="M18.198,22.324c-0.319-0.543-0.886-0.911-1.54-0.91c-0.203,0-0.401,0.037-0.584,0.102
			c-0.509-1.148-1.515-1.931-2.676-1.934c-1.443-0.003-2.648,1.202-2.966,2.821c-1.423,0.749-2.378,2.085-2.38,3.62
			c-0.004,2.354,2.223,4.267,4.973,4.271c1.309,0.002,2.495-0.429,3.385-1.133c0.385,0.186,0.804,0.287,1.244,0.289
			c1.753,0.009,3.176-1.602,3.182-3.585C20.839,24.087,19.697,22.612,18.198,22.324z"/>
		<path style="fill:#FFFFFF;" d="M17.537,22.962c-0.262-0.417-0.727-0.7-1.267-0.702c-0.17,0-0.333,0.027-0.483,0.078
			c-0.42-0.889-1.246-1.494-2.205-1.495c-1.19-0.005-2.185,0.929-2.443,2.181c-1.172,0.578-1.96,1.611-1.962,2.799
			c-0.003,1.818,1.833,3.299,4.099,3.305c1.077,0,2.057-0.332,2.789-0.877c0.318,0.143,0.662,0.225,1.026,0.224
			c1.444,0.003,2.618-1.239,2.624-2.772C19.715,24.327,18.773,23.186,17.537,22.962z"/>
	</g>
	<g>
		<path style="fill:#CADFE8;" d="M43.367,8.471c0.756-0.716,1.8-1.031,2.8-0.729c0.308,0.099,0.591,0.251,0.837,0.438
			c1.337-1.59,3.258-2.361,5.029-1.823c2.202,0.675,3.452,3.155,3.146,5.882c1.804,1.861,2.606,4.436,1.857,6.881
			c-1.142,3.75-5.474,5.749-9.674,4.465c-1.997-0.607-3.597-1.854-4.612-3.391c-0.675,0.116-1.365,0.084-2.036-0.121
			c-2.678-0.815-4.062-4.04-3.099-7.198C38.479,10.038,40.941,8.227,43.367,8.471z"/>
		<path style="fill:#E5EFF4;" d="M43.971,9.563c0.631-0.577,1.513-0.83,2.361-0.567c0.264,0.082,0.506,0.209,0.717,0.365
			c1.118-1.287,2.734-1.901,4.244-1.442c1.873,0.572,2.957,2.617,2.723,4.843c1.547,1.54,2.254,3.654,1.644,5.647
			c-0.931,3.056-4.583,4.65-8.155,3.559c-1.697-0.518-3.066-1.552-3.94-2.82c-0.573,0.087-1.157,0.056-1.729-0.12
			c-2.275-0.694-3.482-3.346-2.699-5.921C39.842,10.797,41.911,9.339,43.971,9.563z"/>
		<path style="fill:#FFFFFF;" d="M44.574,10.654c0.506-0.438,1.223-0.619,1.924-0.405c0.22,0.067,0.42,0.167,0.596,0.293
			c0.899-0.983,2.212-1.44,3.459-1.061c1.545,0.47,2.463,2.078,2.3,3.805c1.289,1.218,1.9,2.872,1.43,4.413
			c-0.721,2.362-3.693,3.551-6.636,2.653c-1.398-0.428-2.537-1.25-3.27-2.249c-0.472,0.059-0.949,0.027-1.422-0.118
			c-1.875-0.573-2.903-2.652-2.3-4.645C41.204,11.557,42.881,10.451,44.574,10.654z"/>
	</g>
	
		<radialGradient id="SVGID_1_" cx="32.2012" cy="50.209" r="4.5442" gradientTransform="matrix(0.9325 0 0 1 2.0136 0)" gradientUnits="userSpaceOnUse">
		<stop  offset="2.416600e-004" style="stop-color:#FFFFFF"/>
		<stop  offset="0.6057" style="stop-color:#F0F1F1"/>
		<stop  offset="1" style="stop-color:#E4E5E6"/>
	</radialGradient>
	<polygon style="fill:url(#SVGID_1_);stroke:#231815;stroke-miterlimit:10;" points="27.822,48.167 36.198,48.167 37.725,52.25 
		26.358,52.25 	"/>
	
		<ellipse id="ellipse141_8_" style="fill:none;stroke:#231815;stroke-width:2;stroke-miterlimit:10;" cx="32.071" cy="51.281" rx="4.469" ry="3.375"/>
	<g id="man_x5F_fairy_x28_ye_x29__18_">
		<g id="g155_18_">
			<g id="g153_28_">
				<g id="g142_24_">
					<path id="path26_57_" style="fill:#F09400;stroke:#231815;stroke-width:1.5423;stroke-miterlimit:10;" d="M47.643,21.765
						c0,8.486-7.004,15.361-15.642,15.361c-8.642,0-15.645-6.875-15.645-15.361c0-8.487,7.003-15.369,15.645-15.369
						C40.639,6.396,47.643,13.278,47.643,21.765z"/>
					
						<radialGradient id="path41_1_" cx="314.9492" cy="-315.4648" r="0.5042" gradientTransform="matrix(1 0 0 -1 -274 -298)" gradientUnits="userSpaceOnUse">
						<stop  offset="0" style="stop-color:#C97229"/>
						<stop  offset="0.3871" style="stop-color:#BC6330"/>
						<stop  offset="0.6026" style="stop-color:#B0522C"/>
						<stop  offset="0.7151" style="stop-color:#A84729"/>
						<stop  offset="0.8698" style="stop-color:#993F18"/>
						<stop  offset="1" style="stop-color:#8A3606"/>
					</radialGradient>
					<path id="path41_37_" style="fill:url(#path41_1_);" d="M46.916,21.765c0,8.093-6.68,14.647-14.916,14.647
						c-8.24,0-14.919-6.554-14.919-14.647c0-8.094,6.679-14.656,14.919-14.656C40.236,7.109,46.916,13.671,46.916,21.765z"/>
					<path id="path43_40_" style="fill:#48140F;stroke:#231815;stroke-width:2.7816;stroke-miterlimit:10;" d="M44.156,27.564
						c0,6.868-5.389,10.911-12.032,10.911c-6.644,0-12.03-4.043-12.03-10.911c0-6.871,5.387-12.443,12.03-12.443
						C38.768,15.121,44.156,20.693,44.156,27.564z"/>
					
						<ellipse id="ellipse45_20_" transform="matrix(0.1629 -0.9866 0.9866 0.1629 9.6167 67.8907)" style="fill:none;stroke:#231815;stroke-width:2.7816;stroke-miterlimit:10;" cx="44.817" cy="28.278" rx="2.596" ry="2.226"/>
					
						<radialGradient id="path52_1_" cx="372.791" cy="-278.9683" r="4.3796" gradientTransform="matrix(0.9866 0.1633 0.1633 -0.9866 -277.4218 -307.826)" gradientUnits="userSpaceOnUse">
						<stop  offset="0" style="stop-color:#FFF89F"/>
						<stop  offset="1" style="stop-color:#F15F57"/>
					</radialGradient>
					<path id="path52_26_" style="fill:url(#path52_1_);" d="M47.016,28.641c-0.233,1.415-1.408,2.399-2.621,2.198
						c-1.213-0.201-2.006-1.509-1.771-2.924c0.233-1.413,1.408-2.394,2.619-2.195C46.457,25.921,47.25,27.23,47.016,28.641z"/>
					
						<ellipse id="ellipse54_41_" transform="matrix(0.163 0.9866 -0.9866 0.163 44.0485 4.6363)" style="fill:none;stroke:#231815;stroke-width:2.7816;stroke-miterlimit:10;" cx="19.292" cy="28.279" rx="2.596" ry="2.226"/>
					
						<radialGradient id="path61_1_" cx="-165.9761" cy="-368.1431" r="4.3799" gradientTransform="matrix(-0.9866 0.1633 -0.1633 -0.9866 -204.5762 -307.826)" gradientUnits="userSpaceOnUse">
						<stop  offset="0" style="stop-color:#FFF89F"/>
						<stop  offset="1" style="stop-color:#F15F57"/>
					</radialGradient>
					<path id="path61_23_" style="fill:url(#path61_1_);" d="M17.095,28.641c0.235,1.415,1.408,2.399,2.62,2.198
						c1.213-0.201,2.006-1.509,1.771-2.924c-0.233-1.413-1.406-2.394-2.62-2.195C17.655,25.921,16.862,27.23,17.095,28.641z"/>
					
						<path id="path34-7-5_456_" style="fill:#4C0A02;stroke:#231815;stroke-width:2;stroke-linecap:round;stroke-linejoin:round;stroke-miterlimit:10;" d="
						M35.732,42.494c0.268-0.322,0.537-1.664,0-1.934c-0.537-0.269-1.904-0.644-1.904-0.644c-1.229-0.377-2.477-0.377-3.704,0
						c0,0-1.369,0.375-1.906,0.644c-0.535,0.27-0.268,1.61,0,1.934c0,0,0.484,3.863-0.535,7.834c0,0,1.555,1.824,4.293,1.824
						c2.736,0,4.293-1.824,4.293-1.824C35.25,46.357,35.732,42.494,35.732,42.494z"/>
					
						<radialGradient id="path34-7-5_1_" cx="305.9355" cy="-332.418" r="32.8077" gradientTransform="matrix(1 0 0 -1 -274 -298)" gradientUnits="userSpaceOnUse">
						<stop  offset="0" style="stop-color:#FFF89F"/>
						<stop  offset="1" style="stop-color:#F15F57"/>
					</radialGradient>
					<path id="path34-7-5_455_" style="fill:url(#path34-7-5_1_);" d="M35.732,42.494c0.268-0.322,0.537-1.664,0-1.934
						c-0.537-0.269-1.904-0.644-1.904-0.644c-1.229-0.377-2.477-0.377-3.704,0c0,0-1.369,0.375-1.906,0.644
						c-0.535,0.27-0.268,1.61,0,1.934c0,0,0.484,3.863-0.535,7.834c0,0,1.555,1.625,4.293,1.625c2.736,0,4.293-1.625,4.293-1.625
						C35.25,46.357,35.732,42.494,35.732,42.494z"/>
					<radialGradient id="ellipse141_1_" cx="32.1675" cy="42.834" r="12.5899" gradientUnits="userSpaceOnUse">
						<stop  offset="0" style="stop-color:#FFF89F"/>
						<stop  offset="1" style="stop-color:#F15F57"/>
					</radialGradient>
					<ellipse id="ellipse141_7_" style="fill:url(#ellipse141_1_);" cx="32.071" cy="51.281" rx="4.469" ry="3.375"/>
					
						<radialGradient id="SVGID_2_" cx="32.2012" cy="50.209" r="4.5442" gradientTransform="matrix(0.9325 0 0 1 2.0136 0)" gradientUnits="userSpaceOnUse">
						<stop  offset="2.416600e-004" style="stop-color:#FFFFFF"/>
						<stop  offset="0.6057" style="stop-color:#F0F1F1"/>
						<stop  offset="1" style="stop-color:#E4E5E6"/>
					</radialGradient>
					<polygon style="fill:url(#SVGID_2_);" points="27.822,48.167 36.198,48.167 37.725,52.25 26.358,52.25 					"/>
					<rect x="23.4" y="52.258" style="fill:#717071;" width="17.084" height="7.406"/>
					<linearGradient id="rect97_1_" gradientUnits="userSpaceOnUse" x1="32.0073" y1="41.3955" x2="32.0073" y2="38.187">
						<stop  offset="0" style="stop-color:#FFF89F"/>
						<stop  offset="1" style="stop-color:#F15F57"/>
					</linearGradient>
					<rect id="rect97_9_" x="30.943" y="37.745" style="fill:url(#rect97_1_);" width="2.128" height="3.104"/>
					
						<radialGradient id="path119_1_" cx="306.125" cy="-324.7979" r="22.0413" gradientTransform="matrix(1 0 0 -1 -274 -298)" gradientUnits="userSpaceOnUse">
						<stop  offset="0" style="stop-color:#FFF89F"/>
						<stop  offset="1" style="stop-color:#F15F57"/>
					</radialGradient>
					<path id="path119_33_" style="fill:url(#path119_1_);" d="M44.156,27.564c0,6.868-5.389,10.911-12.032,10.911
						c-6.644,0-12.03-4.043-12.03-10.911c0-6.871,5.387-12.443,12.03-12.443C38.768,15.121,44.156,20.693,44.156,27.564z"/>
					
						<path id="path121_29_" style="fill:none;stroke:#A4414A;stroke-width:0.8345;stroke-linecap:round;stroke-linejoin:round;stroke-miterlimit:10;" d="
						M39.541,21.175c0,0-1.555-2.108-3.654,0"/>
					
						<path id="path123_70_" style="fill:none;stroke:#A4414A;stroke-width:0.8345;stroke-linecap:round;stroke-linejoin:round;stroke-miterlimit:10;" d="
						M28.329,21.175c0,0-1.557-2.108-3.656,0"/>
					
						<path id="path123_69_" style="fill:none;stroke:#231815;stroke-width:1.5;stroke-linecap:round;stroke-linejoin:round;stroke-miterlimit:10;" d="
						M28.429,28.201c0,0-1.557-2.108-3.656,0"/>
					
						<path id="path123_68_" style="fill:none;stroke:#231815;stroke-width:1.5;stroke-linecap:round;stroke-linejoin:round;stroke-miterlimit:10;" d="
						M39.55,28.201c0,0-1.558-2.108-3.656,0"/>
					<path id="path125_38_" style="fill:#48140F;" d="M20.094,28.765c0,0-1.408-3.665-1.64-7.651
						c-0.16-2.803-0.503-4.605,1.724-7.109c2.278-2.563,5.702-5.97,11.822-5.97c6.117,0,9.544,3.407,11.822,5.969
						c2.227,2.504,1.883,4.306,1.723,7.109c-0.23,3.987-1.389,7.651-1.389,7.651c-0.326-1.09-1.914-4.131-1.914-4.131
						c-0.742,0-3.139-0.739-3.139-0.739v0.925c-4.957-0.57-6.896-4.507-6.896-4.507l-0.494,5.075
						c-3.256-1.575-5.15-6.199-5.15-6.199C21.208,22.875,20.548,28.492,20.094,28.765z"/>
					
						<radialGradient id="path140_1_" cx="306" cy="-315.3989" r="12.0945" gradientTransform="matrix(1 0 0 -1 -274 -298)" gradientUnits="userSpaceOnUse">
						<stop  offset="0" style="stop-color:#C97229"/>
						<stop  offset="0.3871" style="stop-color:#BC6330"/>
						<stop  offset="0.6026" style="stop-color:#B0522C"/>
						<stop  offset="0.7151" style="stop-color:#A84729"/>
						<stop  offset="0.8698" style="stop-color:#993F18"/>
						<stop  offset="1" style="stop-color:#8A3606"/>
					</radialGradient>
					<path id="path140_19_" style="fill:url(#path140_1_);" d="M20.094,27.564c0,0-1.521-2.809-1.754-7.251
						c-0.163-3.124-0.389-4.605,1.838-7.109c2.278-2.563,5.702-5.97,11.822-5.97c6.117,0,9.544,3.407,11.822,5.969
						c2.227,2.504,2,3.985,1.838,7.109c-0.232,4.442-1.504,7.251-1.504,7.251c-0.326-1.09-1.715-3.73-1.715-3.73
						c-0.742,0-3.338-0.739-3.338-0.739v0.925c-5.008-0.37-7.233-5.005-7.233-5.005l-0.557,5.372
						c-2.782-1.292-4.45-6.299-4.45-6.299C20.874,21.779,20.548,27.291,20.094,27.564z"/>
				</g>
			</g>
		</g>
		<g id="g213_259_">
			
				<linearGradient id="ellipse170_1_" gradientUnits="userSpaceOnUse" x1="313.0098" y1="-328.7158" x2="317.5977" y2="-328.7158" gradientTransform="matrix(1 0 0 -1 -274 -298)">
				<stop  offset="0" style="stop-color:#FFA67F"/>
				<stop  offset="0.0969" style="stop-color:#FF967B"/>
				<stop  offset="0.3655" style="stop-color:#FF7170"/>
				<stop  offset="0.6143" style="stop-color:#FF5568"/>
				<stop  offset="0.8336" style="stop-color:#FF4564"/>
				<stop  offset="1" style="stop-color:#FF3F62"/>
			</linearGradient>
			<ellipse id="ellipse170_17_" style="fill:url(#ellipse170_1_);" cx="41.305" cy="30.716" rx="2.293" ry="1.112"/>
			
				<linearGradient id="ellipse185_1_" gradientUnits="userSpaceOnUse" x1="-233.1021" y1="-328.7158" x2="-228.5122" y2="-328.7158" gradientTransform="matrix(-1 0 0 -1 -208 -298)">
				<stop  offset="0" style="stop-color:#FFA67F"/>
				<stop  offset="0.0969" style="stop-color:#FF967B"/>
				<stop  offset="0.3655" style="stop-color:#FF7170"/>
				<stop  offset="0.6143" style="stop-color:#FF5568"/>
				<stop  offset="0.8336" style="stop-color:#FF4564"/>
				<stop  offset="1" style="stop-color:#FF3F62"/>
			</linearGradient>
			<ellipse id="ellipse185_34_" style="fill:url(#ellipse185_1_);" cx="22.807" cy="30.716" rx="2.295" ry="1.112"/>
			<path id="ellipse185_33_" style="fill:#C30D23;" d="M32.008,32.841c2.136,0,3.868,0.499,3.868,1.113s-1.732,1.972-3.868,1.972
				c-2.137,0-3.869-1.357-3.869-1.972S29.871,32.841,32.008,32.841z"/>
		</g>
		<g>
			<radialGradient id="SVGID_3_" cx="35.2832" cy="48.9063" r="12.9064" gradientUnits="userSpaceOnUse">
				<stop  offset="0" style="stop-color:#FFF89F"/>
				<stop  offset="1" style="stop-color:#F15F57"/>
			</radialGradient>
			<path style="fill:url(#SVGID_3_);stroke:#231815;stroke-miterlimit:10;" d="M36.743,53.469c0.054-1.469-0.239-3.219-1.89-3.203
				c-1.611,0.016-1.825,1.859-1.811,2.422c0.053,2,1.13,4.019,0.984,4.745c-0.125,0.625-0.918,1.288-0.738,1.661
				c0.183,0.38,2.817,0.458,2.9,0c0.063-0.344-0.459-0.896-0.563-1.594S36.696,54.791,36.743,53.469z"/>
			
				<radialGradient id="SVGID_4_" cx="42.0186" cy="48.9063" r="12.9064" gradientTransform="matrix(-1 0 0 1 70.7871 0)" gradientUnits="userSpaceOnUse">
				<stop  offset="0" style="stop-color:#FFF89F"/>
				<stop  offset="1" style="stop-color:#F15F57"/>
			</radialGradient>
			<path style="fill:url(#SVGID_4_);stroke:#231815;stroke-miterlimit:10;" d="M27.309,53.469c-0.054-1.469,0.239-3.219,1.89-3.203
				c1.611,0.016,1.825,1.859,1.811,2.422c-0.053,2-1.13,4.019-0.984,4.745c0.125,0.625,0.918,1.288,0.738,1.661
				c-0.183,0.38-2.817,0.458-2.9,0c-0.063-0.344,0.459-0.896,0.563-1.594S27.356,54.791,27.309,53.469z"/>
			<radialGradient id="SVGID_5_" cx="35.2832" cy="48.9063" r="12.9064" gradientUnits="userSpaceOnUse">
				<stop  offset="0" style="stop-color:#FFF89F"/>
				<stop  offset="1" style="stop-color:#F15F57"/>
			</radialGradient>
			<path style="fill:url(#SVGID_5_);" d="M36.743,53.469c0.054-1.469-0.239-3.219-1.89-3.203c-1.611,0.016-1.825,1.859-1.811,2.422
				c0.053,2,1.13,4.019,0.984,4.745c-0.125,0.625-0.918,1.288-0.738,1.661c0.183,0.38,2.817,0.458,2.9,0
				c0.063-0.344-0.459-0.896-0.563-1.594S36.696,54.791,36.743,53.469z"/>
			
				<radialGradient id="path196_1_" cx="35.2148" cy="53.0664" r="6.5086" gradientTransform="matrix(1.5078 0 0 0.8599 -17.8993 8.2339)" gradientUnits="userSpaceOnUse">
				<stop  offset="0" style="stop-color:#FFF89F"/>
				<stop  offset="1" style="stop-color:#F15F57"/>
			</radialGradient>
			<path id="path196_78_" style="fill:url(#path196_1_);" d="M34.408,59.227c-0.169-0.2,0.357-0.624,1.254-0.506
				c0.536,0.071,0.783,0.354,0.659,0.506C36.191,59.386,34.527,59.369,34.408,59.227z"/>
			<radialGradient id="path196_2_" cx="33.9023" cy="55.4902" r="6.5092" gradientUnits="userSpaceOnUse">
				<stop  offset="0" style="stop-color:#FFF89F"/>
				<stop  offset="1" style="stop-color:#F15F57"/>
			</radialGradient>
			<path id="path196_77_" style="fill:url(#path196_2_);" d="M33.131,59.26c-0.112-0.232,0.236-0.726,0.831-0.588
				c0.355,0.082,0.52,0.41,0.438,0.588C34.313,59.444,33.21,59.426,33.131,59.26z"/>
		</g>
		<g>
			
				<radialGradient id="SVGID_6_" cx="42.0186" cy="48.9063" r="12.9064" gradientTransform="matrix(-1 0 0 1 70.7871 0)" gradientUnits="userSpaceOnUse">
				<stop  offset="0" style="stop-color:#FFF89F"/>
				<stop  offset="1" style="stop-color:#F15F57"/>
			</radialGradient>
			<path style="fill:url(#SVGID_6_);" d="M27.309,53.469c-0.054-1.469,0.239-3.219,1.89-3.203c1.611,0.016,1.825,1.859,1.811,2.422
				c-0.053,2-1.13,4.019-0.984,4.745c0.125,0.625,0.918,1.288,0.738,1.661c-0.183,0.38-2.817,0.458-2.9,0
				c-0.063-0.344,0.459-0.896,0.563-1.594S27.356,54.791,27.309,53.469z"/>
			
				<radialGradient id="path196_3_" cx="39.6807" cy="53.0664" r="6.5086" gradientTransform="matrix(-1.5078 0 0 0.8599 88.6864 8.2339)" gradientUnits="userSpaceOnUse">
				<stop  offset="0" style="stop-color:#FFF89F"/>
				<stop  offset="1" style="stop-color:#F15F57"/>
			</radialGradient>
			<path id="path196_76_" style="fill:url(#path196_3_);" d="M29.644,59.227c0.169-0.2-0.357-0.624-1.254-0.506
				c-0.536,0.071-0.783,0.354-0.659,0.506C27.861,59.386,29.525,59.369,29.644,59.227z"/>
			
				<radialGradient id="path196_4_" cx="40.6377" cy="55.4902" r="6.5092" gradientTransform="matrix(-1 0 0 1 70.7871 0)" gradientUnits="userSpaceOnUse">
				<stop  offset="0" style="stop-color:#FFF89F"/>
				<stop  offset="1" style="stop-color:#F15F57"/>
			</radialGradient>
			<path id="path196_75_" style="fill:url(#path196_4_);" d="M30.921,59.26c0.112-0.232-0.236-0.726-0.831-0.588
				c-0.355,0.082-0.52,0.41-0.438,0.588C29.739,59.444,30.842,59.426,30.921,59.26z"/>
		</g>
		
			<path id="line200_17_" style="fill:none;stroke:#026091;stroke-width:0.8312;stroke-linecap:round;stroke-linejoin:round;stroke-miterlimit:10;" d="
			M31.261,55.081"/>
	</g>
	<path id="path30-2_394_" style="fill:none;stroke:#231815;stroke-linecap:round;stroke-linejoin:round;stroke-miterlimit:10;" d="
		M35.713,44.813c-0.169,1.496-0.286,3.485-1.318,4.156c-1.25,0.813-1.313,1.125-1.219,1.406c0.266,0.798,1.125-0.063,2.563-0.125
		c0.594-0.063,1.317-0.696,1.625-4.75c0.204-3.458-0.646-4.625-1.021-5.083C36.343,40.417,35.963,42.604,35.713,44.813z"/>
	
		<radialGradient id="path30-2_1_" cx="308.416" cy="-333.3364" r="27.8997" gradientTransform="matrix(-0.8385 0.5448 -0.5448 -0.8385 112.3008 -412.3882)" gradientUnits="userSpaceOnUse">
		<stop  offset="0" style="stop-color:#FFF89F"/>
		<stop  offset="1" style="stop-color:#F15F57"/>
	</radialGradient>
	<path id="path30-2_393_" style="fill:url(#path30-2_1_);" d="M35.414,44.75c-0.169,1.496-0.187,3.548-1.219,4.219
		c-1.25,0.813-1.313,1.125-1.219,1.406c0.266,0.798,1.125-0.063,2.563-0.125c0.594-0.063,1.317-0.696,1.625-4.75
		c0.281-3.781-0.844-4.844-1.391-4.912C34.789,40.465,35.602,43.094,35.414,44.75z"/>
	<path style="fill:#ADDBF0;" d="M13.005,3.284c0,0,0.851,2.543-0.371,5.337c-1.07,2.444,0.407,4.307,2.563,5.624
		c0,0-0.642-2.016,0.438-4.813C17.046,5.777,13.518,3.736,13.005,3.284z"/>
	<path style="fill:#ADDBF0;" d="M18.005,41.617c0,0,0.851,2.543-0.371,5.337c-1.07,2.444,0.407,4.307,2.563,5.624
		c0,0-0.642-2.016,0.438-4.813C22.046,44.11,18.518,42.069,18.005,41.617z"/>
	<path style="fill:#ADDBF0;" d="M11.672,34.45c0,0,0.851,2.543-0.371,5.337c-1.07,2.444,0.407,4.307,2.563,5.624
		c0,0-0.642-2.016,0.438-4.813C15.713,36.943,12.185,34.902,11.672,34.45z"/>
	<path style="fill:#ADDBF0;" d="M50.339,34.45c0,0,0.851,2.543-0.371,5.337c-1.07,2.444,0.407,4.307,2.563,5.624
		c0,0-0.642-2.016,0.438-4.813C54.38,36.943,50.852,34.902,50.339,34.45z"/>
	<path id="path30-2_392_" style="fill:none;stroke:#231815;stroke-linecap:round;stroke-linejoin:round;stroke-miterlimit:10;" d="
		M28.279,44.813c0.169,1.496,0.286,3.485,1.318,4.156c1.25,0.813,1.313,1.125,1.219,1.406c-0.266,0.798-1.125-0.063-2.563-0.125
		c-0.594-0.063-1.317-0.696-1.625-4.75c-0.204-3.458,0.646-4.625,1.021-5.083C27.649,40.417,28.029,42.604,28.279,44.813z"/>
	
		<radialGradient id="path30-2_2_" cx="302.9229" cy="-336.9063" r="27.9019" gradientTransform="matrix(0.8385 0.5448 0.5448 -0.8385 -41.7598 -412.3882)" gradientUnits="userSpaceOnUse">
		<stop  offset="0" style="stop-color:#FFF89F"/>
		<stop  offset="1" style="stop-color:#F15F57"/>
	</radialGradient>
	<path id="path30-2_391_" style="fill:url(#path30-2_2_);" d="M28.578,44.75c0.169,1.496,0.187,3.548,1.219,4.219
		c1.25,0.813,1.313,1.125,1.219,1.406c-0.266,0.798-1.125-0.063-2.563-0.125c-0.594-0.063-1.317-0.696-1.625-4.75
		c-0.281-3.781,0.844-4.844,1.391-4.912C29.203,40.465,28.39,43.094,28.578,44.75z"/>
</g>
<g id="Layer_1">
</g>
</svg>
