<?xml version="1.0" encoding="utf-8"?>
<!-- Generator: Adobe Illustrator 18.0.0, SVG Export Plug-In . SVG Version: 6.00 Build 0)  -->
<!DOCTYPE svg PUBLIC "-//W3C//DTD SVG 1.1//EN" "http://www.w3.org/Graphics/SVG/1.1/DTD/svg11.dtd">
<svg version="1.1" id="レイヤー_1" xmlns="http://www.w3.org/2000/svg" xmlns:xlink="http://www.w3.org/1999/xlink" x="0px"
	 y="0px" width="64px" height="64px" viewBox="0 0 64 64" style="enable-background:new 0 0 64 64;" xml:space="preserve">
<g>
	<g>
		<path style="fill:#BA713A;" d="M39.8610992,47.5803986c-5.2738991-1.5990982-2.6574974-9.3815994-2.6574974-9.3815994
			L32,39.0224991l-5.2035999-0.8237c0,0,2.6163998,7.7825012-2.6574993,9.3815994
			c-5.273901,1.5992012-11.7419004,2.2388-11.7419004,8.9552002l-0.1218004,8.8294983h39.4496002l-0.1217995-8.8294983
			C51.6030006,49.8191986,45.1349983,49.1795998,39.8610992,47.5803986z"/>
		<path style="fill:#7C3F16;" d="M32,41.7122002l-4.6313-0.7331009c0.1061001,0.9799995,0.1135006,2.0903015-0.1252995,3.1374016
			c0.1329002,0.6690979,0.292099,1.2571983,0.4736996,1.5393982C28.2866993,46.5405998,30.1320992,48.4981003,32,48.4981003
			s3.7132988-1.9575005,4.2829018-2.8422012c0.1815987-0.2821999,0.3407974-0.8703003,0.4736977-1.5393982
			c-0.2388-1.0471001-0.2313995-2.157402-0.1252975-3.1374016L32,41.7122002z"/>
		<path style="fill:#210601;" d="M51.9785156,65.6152344h-39.956543l0.125-9.0839844
			c0-5.9580078,4.9052734-7.2773438,9.6489258-8.5537109c0.7661133-0.2070313,1.5297852-0.4121094,2.2700195-0.6367188
			c1.1411133-0.3457031,1.9814453-1.0283203,2.4975586-2.0292969c1.4111328-2.734375,0.0102539-6.9902344-0.0039063-7.0322266
			l-0.1313477-0.3916016L32,38.7695313l5.5712891-0.8818359l-0.1308594,0.3916016
			c-0.0146484,0.0419922-1.4160156,4.2978516-0.0048828,7.0322266c0.5166016,1.0009766,1.3574219,1.6835938,2.4980469,2.0292969
			c0.7402344,0.2246094,1.5039063,0.4296875,2.2705078,0.6367188c4.7431641,1.2763672,9.6484375,2.5957031,9.6484375,8.5576172
			L51.9785156,65.6152344z M12.5288086,65.1152344h38.9418945l-0.1181641-8.5761719
			c0-5.5820313-4.5068359-6.7949219-9.2783203-8.0791016c-0.7714844-0.2080078-1.5400391-0.4150391-2.2851563-0.640625
			c-1.2763672-0.3867188-2.2177734-1.1533203-2.7978516-2.2792969c-1.2646484-2.4511719-0.4697266-5.8798828-0.1435547-7.03125
			L32,39.2753906l-0.0390625-0.0058594l-4.8095703-0.7607422c0.3261719,1.1513672,1.1210938,4.5800781-0.1425781,7.03125
			c-0.5805664,1.1259766-1.5219727,1.8925781-2.7973633,2.2792969c-0.7456055,0.2255859-1.5146484,0.4326172-2.2856445,0.640625
			c-4.7719727,1.2841797-9.2788086,2.4970703-9.2788086,8.0751953L12.5288086,65.1152344z"/>
	</g>
	<g>
		<g>
			<path style="fill:#BA713A;" d="M43.4542999,26.8591003c0,0,0.7397995-2.2663002,2.2608986-2.4134007
				c1.5211029-0.1471996,2.4628029,5.3521996-0.4023972,7.7822018c-1.8137016,1.5380974-2.4835014,0.0183983-2.4835014,0.0183983
				L43.4542999,26.8591003z"/>
			<path style="fill:#210601;" d="M43.8535156,33.1660156c-0.8818359,0-1.2382813-0.7856445-1.2529297-0.8188477l-0.0273438-0.0625
				l0.6328125-5.4545898c0.0429688-0.1474609,0.8203125-2.472168,2.484375-2.6333008l0.0839844-0.0039063
				c0.5253906,0,0.984375,0.4609375,1.2919922,1.2983398c0.6289063,1.715332,0.5585938,5.1035156-1.5917969,6.9272461
				C44.8896484,32.9145508,44.34375,33.1660156,43.8535156,33.1660156z M43.0859375,32.1987305
				c0.078125,0.1333008,0.3173828,0.4672852,0.7675781,0.4672852c0.3691406,0,0.8056641-0.2114258,1.296875-0.6289063
				c1.9697266-1.6699219,2.0273438-4.7905273,1.4462891-6.3740234c-0.2226563-0.6074219-0.5302734-0.9702148-0.8222656-0.9702148
				c-1.3779297,0.1313477-2.0761719,2.2226563-2.0830078,2.2436523L43.0859375,32.1987305z"/>
		</g>
		<g>
			<path style="fill:#BA713A;" d="M20.6714001,26.8591003c0,0-0.7397003-2.2663002-2.2607994-2.4134007
				c-1.5212002-0.1471996-2.462801,5.3521996,0.4023991,7.7822018c1.8136005,1.5380974,2.4834995,0.0183983,2.4834995,0.0183983
				L20.6714001,26.8591003z"/>
			<path style="fill:#210601;" d="M20.2714844,33.1660156L20.2714844,33.1660156
				c-0.4902344,0-1.0351563-0.2514648-1.6201172-0.7470703c-2.1508789-1.8242188-2.2211914-5.2124023-1.5917969-6.9277344
				c0.3071289-0.8374023,0.765625-1.2983398,1.2910156-1.2983398l0.0839844,0.0039063
				c1.6650391,0.1611328,2.4423828,2.4858398,2.4746094,2.5844727l0.6435547,5.503418l-0.0273438,0.0625
				C21.5102539,32.3803711,21.1538086,33.1660156,20.2714844,33.1660156z M18.3842773,24.6948242
				c-0.3266602,0-0.6328125,0.3623047-0.8554688,0.9682617c-0.5810547,1.5834961-0.5234375,4.7041016,1.4458008,6.3745117
				c0.4921875,0.4169922,0.9282227,0.628418,1.296875,0.628418c0.4511719,0,0.6904297-0.3339844,0.7675781-0.4672852
				l-0.6162109-5.3110352v0.0004883c-0.0053711,0-0.7060547-2.0649414-2.0361328-2.1933594
				C18.3857422,24.6948242,18.3852539,24.6948242,18.3842773,24.6948242z"/>
		</g>
		<path style="fill:#7C3F16;" d="M44.5242004,30.7905998c0,0,1.905201-4.8330994,1.9612007-5.4494991
			c0,0-0.719101-2.0220013-2.157402,0.9385986L44.5242004,30.7905998z"/>
		<path style="fill:#7C3F16;" d="M19.4757996,30.7905998c0,0-1.9051991-4.8330994-1.9611988-5.4494991
			c0,0,0.719099-2.0220013,2.1574001,0.9385986L19.4757996,30.7905998z"/>
		<g>
			<path style="fill:#7C3F16;" d="M43.2196007,9.0474796C40.1725006,7.0345998,37.580101,6.3043199,32,6.3043199
				s-8.1725006,0.7302799-11.2196007,2.7431598c-3.730999,2.4648199-2.4644985,13.2803211-0.655899,22.061821
				c0.8923988,4.3323002,2.0905991,5.5992985,4.4787006,7.6944981C27.5466003,41.3862,29.5718002,42.4339981,32,42.4339981
				s3.4505005-0.6635971,6.6683006-3.2378998c3.6423988-2.9138985,4.3148003-3.7544975,5.2071991-8.0867977
				C45.6841011,22.3278008,46.9505997,11.5122995,43.2196007,9.0474796z"/>
			<path style="fill:#210601;" d="M32,42.6835938c-2.4443359,0-4.4936523-1.0009766-7.5620117-3.6923828
				c-2.3618164-2.0712891-3.637207-3.3613281-4.5581055-7.831543c-1.8046875-8.7607422-3.1367188-19.7446289,0.7626953-22.3208008
				C23.8339844,6.730957,26.59375,6.0541992,32,6.0541992s8.1660156,0.6767578,11.3574219,2.784668
				c3.8994141,2.5766602,2.5673828,13.5605469,0.7636719,22.3208008c-0.9130859,4.4291992-1.6367188,5.3041992-5.296875,8.2319336
				C35.4892578,42.0595703,34.4589844,42.6835938,32,42.6835938z M32,6.5541992
				c-5.3579102,0-7.9472656,0.6313477-11.0820313,2.7016602c-2.8603516,1.8896484-3.0551758,9.6328125-0.5488281,21.8032227
				c0.8886719,4.3129883,2.1196289,5.5571289,4.3989258,7.5571289C27.7329102,41.2167969,29.6928711,42.1835938,32,42.1835938
				c2.3154297,0,3.2363281-0.5625,6.5117188-3.1826172c3.59375-2.875,4.234375-3.6484375,5.1191406-7.9418945
				c2.5068359-12.1699219,2.3115234-19.9130859-0.5488281-21.8032227C39.9472656,7.1855469,37.3583984,6.5541992,32,6.5541992z"/>
		</g>
		<g>
			<path style="fill:#BA713A;" d="M43.486599,25.1308994c-0.2818985-2.2479992-1.1311989-4.8899994-2.5251007-7.862999
				c-1.5339966,3.1450005-4.9312973,7.7601986-7.7820969,9.3431988L29.2350006,28.8013l3.1344986-3.2457008
				c0.0188026-0.0196991,1.1679993-1.2196999,2.5330009-3.1595001c-2.8302994,2.3706017-5.5345001,3.7680016-5.6998997,3.8529015
				l-1.4083996,0.719799l0.4587994-1.5138988c0.9167004-3.0234013,2.0601997-5.9078999,3.4064007-8.5981007
				c-0.6138,0.2280998-1.2197018,0.4465008-1.8151016,0.6606007c-4.5286999,1.6315994-8.2307987,2.972599-9.5314999,6.4055996
				c0.2831001,2.3003006,0.6625004,4.6392002,1.0747013,6.8484001c0.7973995,4.2733002,1.8681984,5.523098,4.0022984,7.5896988
				C28.0202007,40.9082985,29.8299999,41.9418983,32,41.9418983s3.0834999-0.6545982,5.9592018-3.1937981
				c3.2549973-2.8743019,3.8558998-3.7033997,4.6532974-7.9766998c0.3307991-1.7723999,0.6380997-3.6284008,0.8941002-5.4811001
				L43.486599,25.1308994z M32,34.4793015c-0.4780998,0-1.2238007-0.2042999-1.2238007-0.4659004
				c0-0.3432999,1.0111008-0.8702011,1.2238007-0.8702011s1.2238007,0.5269012,1.2238007,0.8702011
				C33.2238007,34.2750015,32.4780998,34.4793015,32,34.4793015z"/>
			<linearGradient id="SVGID_1_" gradientUnits="userSpaceOnUse" x1="31.4257813" y1="33.5178986" x2="31.4257813" y2="27.4845009">
				<stop  offset="0" style="stop-color:#FFFFFF;stop-opacity:0"/>
				<stop  offset="0.4" style="stop-color:#FFFFFF;stop-opacity:0.2"/>
				<stop  offset="0.6" style="stop-color:#FFFFFF;stop-opacity:0.2"/>
				<stop  offset="1" style="stop-color:#FFFFFF;stop-opacity:0"/>
			</linearGradient>
			<path style="fill:url(#SVGID_1_);" d="M32.1651993,31.0280991c0,1.3750992-0.8836994,2.4897995-1.2793999,2.4897995
				c-0.3956985,0-0.1169987-1.5447979,0.1023006-2.8787994c0.2047997-1.2449989,0.3719997-3.1545982,0.7677002-3.1545982
				S32.1651993,29.6529999,32.1651993,31.0280991z"/>
		</g>
	</g>
</g>
<g>
	<g>
		<linearGradient id="SVGID_2_" gradientUnits="userSpaceOnUse" x1="31.881403" y1="2.3388829" x2="31.881403" y2="27.1194992">
			<stop  offset="0" style="stop-color:#000000"/>
			<stop  offset="0.131687" style="stop-color:#3E3A39"/>
			<stop  offset="0.251029" style="stop-color:#3E3A39"/>
			<stop  offset="1" style="stop-color:#000000"/>
		</linearGradient>
		<path style="fill:url(#SVGID_2_);" d="M15.2556,16.2266006C17.1137009,5.9760699,23.9319,4.3526201,27.0044994,4.1659999
			c2.6473999-1.03246,5.156599-1.28613,6.7012005-1.6812799c2.1748009-0.5563099,3.8153,0.56564,4.9438019,1.89867
			C42.0163002,5.0633302,46.9376984,7.57125,48.5,16.2628002c1.0553017,4.4379005-2.9333,10.856699-2.9333,10.856699
			c-0.0730019-2.5063992-0.5465012-4.7463989-1.3330994-6.723299c0.0578003,2.1996002-0.080101,3.7544994-0.080101,3.7544994
			c-0.3607979-2.8729992-1.5634003-6.0079994-2.966301-8.8624992c-0.1071968-0.1304007-0.2101974-0.2664003-0.3199005-0.3935003
			c-1.0281982,2.8429995-4.8694992,8.4854002-8.0143967,10.2316999c0,0,3.2481003-3.3577003,5.3995972-8.0697994
			c-3.4927979,4.7007999-9.3558979,7.6971989-9.3558979,7.6971989c1.2206001-4.0252991,2.7113991-7.3670998,4.1896-10.0705996
			c-0.0471992,0.0193005-0.0869026,0.0425997-0.1348,0.0615997c-6.7083015,2.6652002-12.9982014,3.7067995-13.7445011,10.0089998
			c0,0-0.1688004-0.350399-0.4109993-0.9517994c-0.1984997,0.9885998-0.3257008,2.0268993-0.3707008,3.1177998
			C18.4251995,26.9197998,14.1954002,20.6706009,15.2556,16.2266006z"/>
		<path style="fill:#050505;" d="M45.3408203,27.9570313l-0.0244141-0.8300781
			c-0.0527344-1.8413086-0.3291016-3.5913086-0.8212891-5.2231445c-0.0146484,1.3671875-0.0917969,2.2573242-0.0927734,2.269043
			l-0.2060547,2.3286133l-0.2910156-2.3193359c-0.3125-2.4907227-1.3017578-5.4458008-2.9423828-8.7836914l-0.015625-0.0185547
			c-1.2480469,3.0336914-4.9326172,8.2768555-7.9726563,9.965332l-1.46875,0.8154297l1.1674805-1.2080078
			c0.0273438-0.0283203,2.3706055-2.4726563,4.3666992-6.0576172c-3.4638672,3.722168-7.9780273,6.0551758-8.0297852,6.081543
			l-0.5234375,0.2675781l0.1704102-0.5629883c1.0214844-3.3686523,2.3256836-6.5629883,3.8803711-9.5058594
			c-0.9624023,0.3730469-1.9130859,0.715332-2.8374023,1.0483398c-5.387207,1.940918-9.6430664,3.4741211-10.2451172,8.5595703
			l-0.1005859,0.8520508l-0.3725586-0.7729492c0,0-0.0317383-0.0654297-0.0874023-0.1884766
			c-0.1142578,0.7373047-0.1879883,1.4931641-0.2192383,2.2563477l-0.03125,0.7587891l-0.4257813-0.6289063
			c-0.175293-0.2587891-4.2792969-6.3925781-3.2060547-10.8916016C16.9101563,5.6982422,23.9609375,4.1103516,26.9501953,3.9189453
			c1.8544922-0.71875,3.6333008-1.0600586,5.0649414-1.3344727c0.6269531-0.1201172,1.1694336-0.2241211,1.6293945-0.3417969
			c0.3984375-0.1020508,0.796875-0.1538086,1.1835938-0.1538086l0,0c1.4414063,0,2.7724609,0.6953125,3.9560547,2.0668945
			c3.7148438,0.7768555,8.4238281,3.5078125,9.9619141,12.0625c1.0644531,4.4741211-2.8017578,10.7675781-2.9677734,11.0332031
			L45.3408203,27.9570313z M43.9462891,19l0.5195313,1.3037109c0.7285156,1.8291016,1.1679688,3.8271484,1.3095703,5.949707
			c0.9853516-1.7958984,3.2949219-6.5126953,2.4814453-9.9331055C46.7539063,7.9633789,42.1757813,5.3505859,38.5996094,4.628418
			l-0.0849609-0.0170898l-0.0556641-0.0664063c-1.3876953-1.6396484-2.9716797-2.2592773-4.6914063-1.8178711
			c-0.4746094,0.121582-1.0229492,0.2265625-1.6586914,0.3486328c-1.4204102,0.2724609-3.1884766,0.6113281-5.0136719,1.3232422
			l-0.0756836,0.0166016c-2.8481445,0.1728516-9.6723633,1.6743164-11.5180664,11.8554688
			c-0.8286133,3.4741211,1.6972656,8.152832,2.7207031,9.8554688c0.0639648-0.8081055,0.1738281-1.6035156,0.3286133-2.3740234
			l0.1645508-0.8198242l0.3125,0.7758789c0.0239258,0.059082,0.046875,0.1162109,0.0693359,0.1704102
			c1.0019531-4.7275391,5.3925781-6.3095703,10.4335938-8.1259766c1.081543-0.3896484,2.199707-0.7924805,3.328125-1.2407227
			l0.7875977-0.3334961l-0.3408203,0.6245117c-1.5917969,2.9106445-2.9316406,6.0820313-3.9882813,9.4355469
			c1.519043-0.8598633,5.9287109-3.5556641,8.7353516-7.3310547l1.4101563-1.8989258l-0.9824219,2.1518555
			c-1.2421875,2.7197266-2.8623047,5.0078125-4.0117188,6.4584961c2.6191406-2.3662109,5.3339844-6.5166016,6.1630859-8.8095703
			l0.1455078-0.402832l0.2792969,0.3251953c0.0683594,0.0791016,0.1337891,0.1611328,0.2001953,0.2436523l0.1240234,0.1533203
			c1.2392578,2.512207,2.1103516,4.7949219,2.6132813,6.8359375c0.0058594-0.4677734,0.0039063-0.9941406-0.0107422-1.5625
			L43.9462891,19z"/>
	</g>
	<linearGradient id="SVGID_3_" gradientUnits="userSpaceOnUse" x1="44.6864166" y1="6.47083" x2="44.6864166" y2="16.2077999">
		<stop  offset="0" style="stop-color:#FFFFFF;stop-opacity:0.6"/>
		<stop  offset="1" style="stop-color:#FFFFFF;stop-opacity:0"/>
	</linearGradient>
	<path style="fill:url(#SVGID_3_);" d="M41.75,6.47083c0,0,4.4534988,2.0611105,5.875,9.7369699
		C47.625,16.2077999,41.6172981,9.4558897,41.75,6.47083z"/>
	
		<linearGradient id="SVGID_4_" gradientUnits="userSpaceOnUse" x1="38.5007057" y1="6.2467818" x2="38.5007057" y2="15.7983179" gradientTransform="matrix(0.9994 0.0332 -0.0332 0.9994 -1.1817069 -0.8298)">
		<stop  offset="0" style="stop-color:#FFFFFF;stop-opacity:0.6"/>
		<stop  offset="1" style="stop-color:#FFFFFF;stop-opacity:0"/>
	</linearGradient>
	<path style="fill:url(#SVGID_4_);" d="M40.296299,6.7980199c0,0-2.1515007,6.2846799-6.7327003,9.3326797
		C33.5635986,16.1306992,36.229599,7.8719602,40.296299,6.7980199z"/>
	<linearGradient id="SVGID_5_" gradientUnits="userSpaceOnUse" x1="29.0872993" y1="5.9011202" x2="29.0872993" y2="14.5778999">
		<stop  offset="0" style="stop-color:#FFFFFF;stop-opacity:0.6"/>
		<stop  offset="1" style="stop-color:#FFFFFF;stop-opacity:0"/>
	</linearGradient>
	<path style="fill:url(#SVGID_5_);" d="M34.9892998,5.9011202c0,0-5.036499,1.0619698-6.2516003,2.48561
		c-1.2150993,1.4236403-5.5523987,6.1911697-5.5523987,6.1911697S33.5428009,9.8103704,34.9892998,5.9011202z"/>
	<linearGradient id="SVGID_6_" gradientUnits="userSpaceOnUse" x1="18.9270992" y1="6.8628201" x2="18.9270992" y2="16.8749008">
		<stop  offset="0" style="stop-color:#FFFFFF;stop-opacity:0.6"/>
		<stop  offset="1" style="stop-color:#FFFFFF;stop-opacity:0"/>
	</linearGradient>
	<path style="fill:url(#SVGID_6_);" d="M21.9167004,6.8628201c0,0-4.9500008,2.5106902-5.9792004,10.0120811
		C15.9375,16.8749008,21.7385998,10.4720001,21.9167004,6.8628201z"/>
</g>
<path style="fill:#050505;" d="M32,36.9600983c-2.4643993,0-3.7891006,0.703701-3.7891006,0.703701
	S28.4724998,36.2563019,32,36.2563019s3.7891006,1.4074974,3.7891006,1.4074974S34.4644012,36.9600983,32,36.9600983z"/>
<g>
	<path style="fill:#050505;" d="M42.5642014,21.5655003c0,0-2.1407013-0.3743-4.5642014-0.7530003
		c-1.8778992-0.2935009-3.3728981-1.0802002-3.5064011-2.7292004c0,0,1.8961029,1.5373001,4.8178024,2.0902996
		C41.9166985,20.6667004,42.5642014,21.5655003,42.5642014,21.5655003z"/>
	<path style="fill:#050505;" d="M21.4358006,21.5655003c0,0,2.1406994-0.3743,4.5641994-0.7530003
		c1.8778992-0.2935009,3.3729-1.0802002,3.5063992-2.7292004c0,0-1.8960991,1.5373001-4.8177986,2.0902996
		C22.0832996,20.6667004,21.4358006,21.5655003,21.4358006,21.5655003z"/>
</g>
<g>
	<path style="fill:#050505;" d="M39.7742996,27.0160999c-1.2453995,0.093401-2.5974998,0.019001-2.982399-0.0660992
		c-0.3848991-0.0852013-0.8421021-0.2000008-1.9527016-0.903801c0.9717026,0.2073994,1.4703026,0.3845997,1.9288025,0.455801
		c0.4583969,0.0711994,2.0249977,0.0814991,3.0249977,0.0189991s3.1901016-0.9277992,3.1901016-0.9277992
		S41.3082008,26.9009991,39.7742996,27.0160999z"/>
</g>
<g>
	<path style="fill:#050505;" d="M24.2257004,27.0160999c1.2453995,0.093401,2.5974998,0.019001,2.982399-0.0660992
		c0.384901-0.0852013,0.8421001-0.2000008,1.9527016-0.903801c-0.9717007,0.2073994-1.4703007,0.3845997-1.9288006,0.455801
		c-0.4584007,0.0711994-2.0249996,0.0814991-3.0249996,0.0189991s-3.1901016-0.9277992-3.1901016-0.9277992
		S22.6917992,26.9009991,24.2257004,27.0160999z"/>
</g>
<g>
	<path style="fill:#BA713A;" d="M25.9042625,37.9097023c-3.1213627-1.5046196-3.9133911-3.8942528-4.0611935-4.8249435
		c-0.3859997-2.4355984-0.4224701-5.9738312-0.4224701-5.9738312s-0.6839542-2.3467846-0.8586845-3.0371494
		c-0.1750908-0.6905842,2.0044823-1.5963421,2.9163399,0.9510574c0.6701832,1.871994,0.635603,2.3318233,0.635603,2.3318233
		l1.3562622,0.3175812l0.7561359-1.6507549c0,0,1.6935539-5.3942242,1.7946148-6.5068684
		c0.1005955-1.1126347,0.450779-3.0850296,1.8149223-2.3184052c1.3642654,0.766449,0.6869812,3.4519539,0.6869812,3.4519539
		s-0.8471451,4.1474762-1.3145618,5.1920967l0.6778145,0.1000786c0,0,1.0661469-2.4739933,1.7207851-4.1528301
		c0.6541252-1.6788597,1.4638672-3.8668575,1.6576614-4.6444569c0.1937599-0.7776222,1.9175758-0.8901596,1.8851395,0.9087105
		c-0.0327187,1.7989635-1.2526932,4.3316917-1.2526932,4.3316917l-1.6989861,4.5485973l0.6561928,0.4542961
		c0,0,2.1082993-2.9183426,2.7076416-4.0915527c0.5988655-1.1732082,1.7584-2.744812,2.1435699-3.394043
		c0.3854675-0.648859,1.6144104,0.4156322,1.2690163,1.8094234c-0.3450432,1.3939571-1.6985321,2.8463726-1.6985321,2.8463726
		l-2.6992912,4.3586216l0.3124695,0.6495495c2.5187416-2.4143963,2.1710968-2.0226383,3.0489006-3.2567902
		c0.788269-1.1078262,1.616478-1.9614086,1.9603539-2.449028c0.3437843-0.4874287,1.6444588,0.5021267,0.9353561,1.9750481
		c-0.9222794,1.9142685-4.6930351,6.0844479-4.6930351,6.0844479s-0.9180794,2.2436485-1.7621269,3.5422478
		c-0.8435173,1.2983818-1.8108444,2.5125656-2.791584,3.0812416C30.121376,39.3938026,28.8787193,39.3435059,25.9042625,37.9097023z
		"/>
	<path style="fill:#7C3F16;" d="M33.3734398,36.8702927c-0.7803955,0.4892807-2.9310551,2.5684776-6.7195225,0.5658951
		c-3.788063-2.0024376-2.586256-3.6050835-3.3755398-4.3847084c-0.7890797-0.779953-1.4488792-1.8963242-1.4488792-1.8963242
		s-0.7988625,4.369133,4.737606,7.0740623C31.3830032,40.6229362,33.3734398,36.8702927,33.3734398,36.8702927z"/>
	<path style="fill:#210601;" d="M29.6943359,39.3525391c-0.9624023,0-2.1279297-0.3642578-3.8984375-1.2167969
		c-3.5092773-1.6923828-4.1137695-4.4716797-4.199707-5.0117188c-0.3642578-2.2973633-0.4199219-5.6015625-0.425293-5.9760742
		c-0.0864258-0.2973633-0.6865234-2.3623047-0.8510742-3.0126953c-0.0478516-0.1875,0.0014648-0.387207,0.1381836-0.5634766
		c0.2304688-0.2954102,0.6782227-0.4868164,1.1411133-0.4868164c0.4360352,0,1.5151367,0.1811523,2.1142578,1.8554688
		c0.4550781,1.2714844,0.59375,1.9155273,0.6342773,2.2138672l0.9804688,0.2299805l0.6704102-1.4648438
		c0.0058594-0.0244141,1.6757813-5.3520508,1.7734375-6.425293c0.1630859-1.8037109,0.6665039-2.7182617,1.4970703-2.7182617
		c0.2158203,0,0.4477539,0.0688477,0.6894531,0.2045898c1.5136719,0.8500977,0.8364258,3.6137695,0.8066406,3.730957
		c-0.0292969,0.1469727-0.7299805,3.5634766-1.2104492,4.9291992l0.1777344,0.0263672
		c0.2548828-0.5957031,1.0961914-2.5703125,1.6416016-3.9682617c0.6875-1.765625,1.4638672-3.8769531,1.6484375-4.6142578
		c0.1054688-0.4267578,0.5380859-0.7250977,1.0507813-0.7250977c0.3369141,0,0.6513672,0.1313477,0.8857422,0.3701172
		c0.2080078,0.2114258,0.453125,0.6137695,0.4404297,1.3286133c-0.0332031,1.8325195-1.2265625,4.3300781-1.2773438,4.4355469
		L32.5,26.8393555l0.2939453,0.2036133c0.4833984-0.6757813,2.0517578-2.8925781,2.5449219-3.8598633
		c0.3994141-0.7836914,1.0332031-1.7231445,1.5419922-2.4780273c0.2578125-0.3823242,0.4785156-0.7094727,0.609375-0.9296875
		c0.2714844-0.4604492,0.9306641-0.3891602,1.3691406,0.1704102c0.3847656,0.4926758,0.5185547,1.175293,0.3583984,1.8266602
		c-0.3574219,1.4399414-1.7021484,2.8955078-1.7597656,2.956543l-2.5976563,4.203125l0.1044922,0.2163086l0.6015625-0.5756836
		C37,27.2041016,37,27.2041016,37.5429688,26.4345703l0.1904297-0.2695313
		c0.4755859-0.6674805,0.9619141-1.2402344,1.3525391-1.7001953c0.2548828-0.300293,0.4755859-0.5595703,0.6083984-0.7480469
		c0.2802734-0.3969727,0.9824219-0.2158203,1.3417969,0.3549805c0.3320313,0.5297852,0.3408203,1.2119141,0.0234375,1.8725586
		c-0.8955078,1.8564453-4.3242188,5.6889648-4.7041016,6.1113281c-0.1328125,0.3198242-0.9726563,2.3203125-1.7666016,3.5429688
		c-1.0488281,1.6132813-1.9897461,2.6474609-2.8764648,3.1611328
		C31.0058594,39.1699219,30.3833008,39.3525391,29.6943359,39.3525391z M21.5991211,23.5849609
		c-0.3579102,0-0.6323242,0.1474609-0.7460938,0.2939453c-0.019043,0.0239258-0.0610352,0.0849609-0.0488281,0.1333008
		c0.171875,0.6782227,0.8496094,3.0053711,0.8564453,3.0288086c0.0063477,0.0219727,0.0092773,0.0444336,0.0097656,0.0673828
		c0.0004883,0.0351563,0.0410156,3.5478516,0.4199219,5.9375c0.0786133,0.4970703,0.6376953,3.0556641,3.9223633,4.6386719
		c1.6982422,0.8193359,2.7993164,1.1679688,3.6816406,1.1679688c0.6040039,0,1.1323242-0.1572266,1.7670898-0.5244141
		c0.8061523-0.4677734,1.7172852-1.4775391,2.7075195-3.0019531c0.8212891-1.2636719,1.7314453-3.4780273,1.7402344-3.5004883
		c0.0107422-0.0268555,0.0263672-0.0512695,0.0458984-0.0727539c0.0371094-0.0415039,3.7568359-4.1660156,4.6533203-6.0253906
		c0.34375-0.7133789,0.1171875-1.2094727,0.0039063-1.3896484c-0.1435547-0.2290039-0.3447266-0.3525391-0.4609375-0.3525391
		c-0.1943359,0.2265625-0.4101563,0.480957-0.6845703,0.8032227c-0.3837891,0.4526367-0.8623047,1.0161133-1.3251953,1.6665039
		l-0.1894531,0.2675781c-0.5712891,0.8095703-0.5712891,0.8095703-2.0400391,2.2119141l-0.8505859,0.8129883
		c-0.0576172,0.0551758-0.1347656,0.078125-0.2177734,0.0654297c-0.078125-0.0141602-0.1455078-0.0654297-0.1806641-0.1376953
		l-0.3125-0.6499023c-0.0371094-0.0771484-0.0322266-0.1674805,0.0126953-0.2402344L37.0625,24.4267578
		c0.0429688-0.0527344,1.34375-1.4614258,1.6699219-2.7744141c0.1240234-0.503418,0.0244141-1.0258789-0.2675781-1.3979492
		c-0.1601563-0.2050781-0.3330078-0.2963867-0.4335938-0.2963867c-0.0351563,0-0.0732422,0.0087891-0.1113281,0.0727539
		c-0.1337891,0.2255859-0.3603516,0.5615234-0.6240234,0.9536133c-0.5019531,0.7441406-1.1259766,1.6694336-1.5117188,2.4262695
		c-0.6005859,1.1767578-2.640625,4.0043945-2.7275391,4.1240234c-0.0795898,0.1103516-0.2338867,0.1357422-0.3447266,0.059082
		l-0.65625-0.4541016c-0.0942383-0.0649414-0.1323242-0.1860352-0.0922852-0.2929688l1.6987305-4.5488281
		c0.0214844-0.0458984,1.2060547-2.5263672,1.2373047-4.2485352c0.0078125-0.4287109-0.0947266-0.7641602-0.296875-0.9697266
		c-0.3310547-0.3374023-1.0087891-0.2197266-1.0957031,0.1259766c-0.2021484,0.8105469-1.0244141,3.0249023-1.6669922,4.6748047
		c-0.6489258,1.6635742-1.7133789,4.1362305-1.7241211,4.1611328c-0.0454102,0.1035156-0.1582031,0.1606445-0.2661133,0.1484375
		l-0.6782227-0.1000977c-0.0771484-0.0117188-0.1450195-0.0585938-0.1826172-0.1274414
		c-0.0375977-0.0683594-0.0410156-0.1508789-0.0087891-0.222168c0.4511719-1.0078125,1.2895508-5.0986328,1.2978516-5.1396484
		c0.0087891-0.0361328,0.6166992-2.5205078-0.5644531-3.1845703c-0.1655273-0.0927734-0.3154297-0.1401367-0.4443359-0.1401367
		c-0.5048828,0-0.8691406,0.824707-0.9990234,2.2631836c-0.1025391,1.1264648-1.7358398,6.3378906-1.8056641,6.559082
		l-0.7666016,1.6801758c-0.0498047,0.1079102-0.1708984,0.1655273-0.284668,0.1396484l-1.3564453-0.3178711
		c-0.1196289-0.0283203-0.2016602-0.1396484-0.1923828-0.262207c0-0.012207,0.0024414-0.4858398-0.621582-2.2285156
		C22.8959961,24.140625,22.296875,23.5849609,21.5991211,23.5849609z"/>
</g>
<g>
	<g>
		<linearGradient id="SVGID_7_" gradientUnits="userSpaceOnUse" x1="32" y1="47.5213509" x2="32" y2="65.365097">
			<stop  offset="0" style="stop-color:#2EA7E0"/>
			<stop  offset="1" style="stop-color:#036EB8"/>
		</linearGradient>
		<path style="fill:url(#SVGID_7_);" d="M52.0998993,56.4868011c0-6.686203-6.5005989-7.3832016-11.8777008-8.9569016
			c-0.0924988-0.0270004-0.1867981,0.0111008-0.2285995,0.0979996C39.5891991,48.4690018,37.3054008,52.6666985,32,52.6666985
			s-7.5891991-4.1976967-7.9936008-5.0387993c-0.0417995-0.0868988-0.1360989-0.125-0.2285995-0.0979996
			c-5.3771,1.5737-11.8776999,2.2706985-11.8776999,8.9569016l-0.125,8.8782959h40.4497986L52.0998993,56.4868011z"/>
		<path style="fill:#172A88;" d="M52.4785156,65.6152344H11.5214844l0.128418-9.1328125
			c0-5.9912109,5.0288086-7.3173828,9.8920898-8.6005859c0.7294922-0.1923828,1.4575195-0.3847656,2.1655273-0.5917969
			l0.1293945-0.0185547c0.1704102,0,0.3217773,0.0957031,0.3950195,0.2490234
			C24.625,48.3378906,26.8476563,52.4169922,32,52.4169922s7.375-4.0791016,7.7675781-4.8974609
			c0.0742188-0.1533203,0.2255859-0.2480469,0.3955078-0.2480469l0.1298828,0.0185547
			c0.7080078,0.2070313,1.4355469,0.3994141,2.1650391,0.5917969c4.8632813,1.2832031,9.8916016,2.609375,9.8916016,8.6044922
			L52.4785156,65.6152344z M12.0283203,65.1152344h39.9423828l-0.1210938-8.625c0-5.6142578-4.6240234-6.8339844-9.5185547-8.125
			c-0.7197266-0.1894531-1.4365234-0.3789063-2.1347656-0.5820313C39.7226563,48.7441406,37.3603516,52.9169922,32,52.9169922
			c-5.3623047,0-7.7250977-4.1748047-8.1967773-5.1357422c-0.6914063,0.2041016-1.4116211,0.3935547-2.1337891,0.5839844
			c-4.8955078,1.2919922-9.5195313,2.5117188-9.5195313,8.1210938L12.0283203,65.1152344z"/>
	</g>
	<path style="fill:#172A88;" d="M32,54.6669922c-7.5927734,0-9.8598633-6.5566406-9.8818359-6.6230469l0.4746094-0.1582031
		c0.0854492,0.2568359,2.1826172,6.28125,9.4072266,6.28125s9.3212891-6.0244141,9.4072266-6.28125l0.4746094,0.1582031
		C41.859375,48.1103516,39.5927734,54.6669922,32,54.6669922z"/>
</g>
<g>
	<g>
		
			<linearGradient id="SVGID_8_" gradientUnits="userSpaceOnUse" x1="30.4674377" y1="35.2914619" x2="30.4674377" y2="42.6121025" gradientTransform="matrix(0.929814 -0.3680296 0.3680296 0.929814 -16.5371323 13.9847317)">
			<stop  offset="0" style="stop-color:#2EA7E0"/>
			<stop  offset="1" style="stop-color:#036EB8"/>
		</linearGradient>
		<path style="fill:url(#SVGID_8_);" d="M21.9034348,38.6481934c0.7774925-1.3449364,1.4390278-2.3021851,1.9058647-2.6245193
			c2.0496178-1.4149284,6.6397591,1.485321,6.2600727,3.0388947c-0.0793324,0.3242569-0.4780483,1.3219185-1.076683,2.7296333
			L21.9034348,38.6481934z"/>
		<path style="fill:#172A88;" d="M29.1235352,42.1230469l-7.5761719-3.3583984l0.1396484-0.2412109
			c0.8793945-1.5205078,1.5083008-2.3798828,1.9799805-2.7060547c0.40625-0.2802734,0.9135742-0.421875,1.5083008-0.421875
			c1.7626953,0,3.8027344,1.2089844,4.6821289,2.3291016c0.3974609,0.5058594,0.5546875,0.9892578,0.4545898,1.3974609
			c-0.0786133,0.3222656-0.4448242,1.2529297-1.0893555,2.7675781L29.1235352,42.1230469z M22.2602539,38.5332031
			l6.6015625,2.9277344c0.7094727-1.6757813,0.9169922-2.2626953,0.9648438-2.4580078
			c0.0610352-0.25-0.0678711-0.59375-0.362793-0.9697266c-0.8105469-1.0322266-2.7270508-2.1376953-4.2885742-2.1376953
			c-0.4912109,0-0.9033203,0.1123047-1.2241211,0.3339844C23.5771484,36.4873047,23.0083008,37.2617188,22.2602539,38.5332031z"/>
	</g>
	<g>
		
			<linearGradient id="SVGID_9_" gradientUnits="userSpaceOnUse" x1="13.2868061" y1="45.8093414" x2="20.7975769" y2="56.5358315" gradientTransform="matrix(0.929814 -0.3680296 0.3680296 0.929814 -16.5371323 13.9847317)">
			<stop  offset="0" style="stop-color:#2EA7E0"/>
			<stop  offset="1" style="stop-color:#036EB8"/>
		</linearGradient>
		<path style="fill:url(#SVGID_9_);" d="M9.6424971,59.4098587c3.3909826-5.7843628,10.588254-20.5961494,12.9774294-22.2454987
			c2.3890858-1.6493149,7.739624,1.7314072,7.2969837,3.5422058c-0.4426041,1.8108902-9.1389446,21.51968-11.3301163,25.6134186
			c-1.3800468,2.5783615-3.6582689,6.0187836-8.0482311,6.8153305C6.1485724,73.9318695,6.0741386,65.4968414,9.6424971,59.4098587z
			"/>
		<path style="fill:#172A88;" d="M9.9799805,73.4384766c-1,0-1.8168945-0.5029297-2.3623047-1.4550781
			c-1.5361328-2.6806641-0.7241211-8.3779297,1.809082-12.6992188c1.0576172-1.8037109,2.5-4.5136719,4.0268555-7.3828125
			c3.4370117-6.4570313,7.3320313-13.7744141,9.0244141-14.9433594c0.4663086-0.3212891,1.0498047-0.484375,1.734375-0.484375
			c1.9770508,0,4.4008789,1.3955078,5.4243164,2.6992188c0.4550781,0.5791016,0.6362305,1.1308594,0.5229492,1.59375
			c-0.4692383,1.9189453-9.1694336,21.5927734-11.3525391,25.671875c-1.3876953,2.5917969-3.75,6.1308594-8.2241211,6.9433594
			C10.3764648,73.4189453,10.1738281,73.4384766,9.9799805,73.4384766z M24.2124023,36.9736328
			c-0.581543,0-1.0693359,0.1328125-1.4501953,0.3964844c-1.5922852,1.0986328-5.6259766,8.6767578-8.8671875,14.765625
			c-1.5292969,2.8740234-2.9741211,5.5888672-4.0366211,7.4003906c-2.4111328,4.1132813-3.2387695,9.6992188-1.8066406,12.1992188
			c0.5483398,0.9560547,1.3735352,1.3486328,2.4423828,1.1542969c4.2133789-0.7646484,6.4204102-3.9755859,7.8725586-6.6875
			c2.0888672-3.9033203,10.8603516-23.7255859,11.3076172-25.5546875c0.0742188-0.3037109-0.0791016-0.7177734-0.4306641-1.1660156
			C28.2924805,38.2705078,26.0439453,36.9736328,24.2124023,36.9736328z"/>
	</g>
</g>
</svg>
