<?xml version="1.0" encoding="utf-8"?>
<!-- Generator: Adobe Illustrator 15.0.2, SVG Export Plug-In . SVG Version: 6.00 Build 0)  -->
<!DOCTYPE svg PUBLIC "-//W3C//DTD SVG 1.1//EN" "http://www.w3.org/Graphics/SVG/1.1/DTD/svg11.dtd">
<svg version="1.1" id="レイヤー_1" xmlns="http://www.w3.org/2000/svg" xmlns:xlink="http://www.w3.org/1999/xlink" x="0px"
	 y="0px" width="64px" height="64px" viewBox="0 0 64 64" enable-background="new 0 0 64 64" xml:space="preserve">
<g>
	<g>
		<path fill-rule="evenodd" clip-rule="evenodd" fill="none" stroke="#0D0D0D" stroke-width="1.9098" stroke-miterlimit="10" d="
			M60.692,25.93c-0.012-0.03-0.023-0.06-0.038-0.09c0.013-0.103,0.014-0.197-0.008-0.277l-0.111,0.032
			c-0.008-0.015-0.014-0.028-0.021-0.043c-0.133-1.46-1.428-8.403-1.659-9.157c0.033-2.522-0.133-4.613-2.92-5.408
			c-2.954-0.398-6.781,1.142-7.334,1.427c-2.123,1.094-6.933,3.649-7.764,3.616c-0.631-0.597-2.268-1.526-2.997-1.615
			c-0.729-0.088-0.864-0.199-1.792,0.42c-0.176-0.088-0.686-0.465-0.686-0.465c0.045-1.039-0.242-1.017-0.551-1.238
			c-0.313-0.221-0.688,0.288-0.731,0.575c-0.42-0.509-1.02-0.375-1.24-0.221c-0.221,0.155-0.486,0.442-0.286,1.371
			c-0.399,0.487-0.886,1.128-0.886,1.128c-0.796-0.022-1.35,0.376-1.216,1.283c0,0-0.907,1.327-1.305,1.46
			c-0.442-0.133-0.84-0.243-1.106,0.332c-0.265,0.575-0.151,0.688-0.077,0.885c-0.15,0.282-0.83,1.028-1.012,1.062
			c-0.365-0.1-0.929-0.017-1.111,0.148c-0.184,0.167-0.315,0.299-0.299,1.096c-0.348,0.464-0.663,0.729-2.372,1.608
			c-1.708,0.88-2.008,2.008-2.372,4.048c-1.161,0.813-3.799,2.654-4.944,3.451c-1.145,0.794-5.475,3.917-5.723,4.03
			c-0.249,0.117-2.505,1.841-3.384,3.138c-0.866,1.273-1.454,2.397-1.694,3.098l-0.148,0.045c-0.006,0.015-0.011,0.032-0.018,0.05
			c-0.013,0.006-0.024,0.008-0.037,0.014c-0.004-0.02-0.018-0.021-0.045-0.004c-0.116,0.058-0.259,0.199-0.398,0.384
			c-0.011,0.014-0.021,0.029-0.033,0.044c-0.025,0.035-0.049,0.069-0.073,0.106c-0.276,0.407-0.464,0.936-0.409,1.354
			c-0.274,0.085-0.625,0.818-0.755,1.68c-0.003,0.017-0.007,0.032-0.009,0.05c-0.045,0.318-0.062,0.651-0.031,0.976
			c0.002,0.023,0.01,0.046,0.013,0.069c0.008,0.067,0.025,0.133,0.036,0.199c0.015,0.077,0.027,0.152,0.048,0.226
			c0.014,0.058,0.019,0.113,0.036,0.171c0.021,0.068,0.065,0.138,0.094,0.207c0.003,0.01,0.008,0.02,0.012,0.027
			c0.055,0.128,0.11,0.255,0.189,0.384c0.365,0.646,0.879,1.16,1.231,1.438c0.564,0.446,1.278,1.16,2.671,1.958
			c0.199,0.032,0.199,0,0.498-0.016c0.147-0.01,0.261,0.02,0.324,0.094c0.002,0.004,0.004,0.006,0.006,0.01
			c0.024,0.031,0.036,0.075,0.041,0.123c0.001,0.016,0.003,0.031,0.003,0.044c-0.002,0.06-0.012,0.127-0.042,0.21
			c0.332,0.135,1.294,0.463,2.456,0.778c0.077,0.021,0.151,0.034,0.228,0.054c0.302,0.084,0.525,0.144,0.585,0.147
			c0.023,0.002,0.078,0.008,0.146,0.016c0.811,0.151,1.576,0.227,2.209,0.298c0.879,0.1,0.896,0.183,4.198,0.3
			c2.764,0.096,4.633-0.145,6.531-0.381c0.034-0.004,0.068-0.008,0.103-0.012c0.335-0.042,0.671-0.084,1.014-0.123
			c0.628-0.072,1.439-0.195,2.305-0.344c1.009-0.161,2.023-0.336,3.045-0.534c0.733-0.14,1.409-0.28,2.031-0.416
			c0.317-0.063,0.575-0.117,0.73-0.148c0.908-0.181,2.553-0.64,3.956-1.184c0.01-0.004,0.021-0.007,0.034-0.013
			c0.126-0.049,0.254-0.097,0.375-0.148c1.286-0.536,1.477-0.83,1.735-1.051c0.002-0.002,0.004-0.004,0.005-0.006
			c0.036-0.03,0.074-0.06,0.117-0.088c0.154-0.104,0.441-0.29,0.842-0.563c0.514-0.332,1.156-0.757,1.918-1.365
			c0.042-0.031,0.081-0.06,0.126-0.093c1.562-1.162,3.685-3.686,4.133-4.164c0.33-0.355,1.303-1.382,1.956-2.048
			c0.355-0.338,0.476-0.429,0.532-0.526c0.862,0.267,2.355,0.666,2.355,0.666c0.331-0.219,3.251-2.474,4.28-3.236
			c0.647-0.482,1.794-1.377,2.644-2.098c0.501-0.419,0.87-0.749,0.974-0.905c0.008-0.011,0.019-0.026,0.028-0.042
			c0.004-0.006,0.016-0.018,0.02-0.023c0.021-0.028,0.044-0.072,0.064-0.109c0.009-0.013,0.017-0.028,0.025-0.044
			c0.02-0.032,0.035-0.058,0.055-0.094c0.174-0.322,0.397-0.87,0.579-1.89c0.141-0.716,0.251-1.598,0.288-2.659
			C60.972,26.817,60.914,26.25,60.692,25.93z"/>
		<linearGradient id="SVGID_1_" gradientUnits="userSpaceOnUse" x1="21.6416" y1="27.6143" x2="62.1057" y2="41.5797">
			<stop  offset="0" style="stop-color:#7F4000"/>
			<stop  offset="0.133" style="stop-color:#7A3C00"/>
			<stop  offset="0.2942" style="stop-color:#6B3200"/>
			<stop  offset="0.4695" style="stop-color:#532000"/>
			<stop  offset="0.5818" style="stop-color:#3F1200"/>
			<stop  offset="0.6536" style="stop-color:#471700"/>
			<stop  offset="0.7663" style="stop-color:#5E2400"/>
			<stop  offset="0.9051" style="stop-color:#823900"/>
			<stop  offset="1" style="stop-color:#9F4A00"/>
		</linearGradient>
		<path fill-rule="evenodd" clip-rule="evenodd" fill="url(#SVGID_1_)" d="M14.341,52.788c5.305,0.613,10.917,0,16.732-1.124
			c5.815-1.119,7.939-2.124,8.736-2.854c0.795-0.729,2.918-1.525,6.038-5.042c3.118-3.518,3.583-3.685,3.717-3.917
			c0.862,0.267,2.355,0.666,2.355,0.666c1.293-0.964,3.169-2.416,4.015-3.054c1.625-1.228,3.617-2.787,3.883-3.186
			c0.265-0.399,0.998-1.426,1.093-6.104c0.034-1.627-0.033-1.926-0.396-2.622c-0.133-1.46-1.428-8.403-1.659-9.157
			c0.033-2.522-0.133-4.613-2.92-5.408c-2.954-0.398-6.781,1.142-7.334,1.427c-2.123,1.094-6.933,3.649-7.764,3.616
			c-0.631-0.597-2.268-1.526-2.997-1.615c-0.729-0.088-0.864-0.199-1.792,0.42c-0.176-0.088-0.686-0.465-0.686-0.465
			c0.045-1.039-0.242-1.017-0.551-1.238c-0.313-0.221-0.688,0.288-0.731,0.575c-0.42-0.509-1.02-0.375-1.24-0.221
			c-0.221,0.155-0.486,0.442-0.286,1.371c-0.399,0.487-0.886,1.128-0.886,1.128c-0.796-0.022-1.35,0.376-1.216,1.283
			c0,0-0.907,1.327-1.305,1.46c-0.442-0.133-0.84-0.243-1.106,0.332c-0.265,0.575-0.151,0.688-0.077,0.885
			c-0.15,0.282-0.83,1.028-1.012,1.062c-0.365-0.1-0.929-0.017-1.111,0.148c-0.184,0.167-0.315,0.299-0.299,1.096
			c-0.348,0.464-0.663,0.729-2.372,1.608c-1.708,0.88-2.008,2.008-2.372,4.048c-1.161,0.813-3.799,2.654-4.944,3.451
			c-1.145,0.794-5.475,3.917-5.723,4.03c-0.249,0.117-2.505,1.841-3.384,3.138c-0.88,1.294-1.477,2.438-1.708,3.137
			c-0.581,0.096-1.245,1.208-1.146,1.953c-0.431,0.218-1.111,1.908-0.663,3.37C3.675,48.447,5.964,50.055,7.424,51
			c0.349,0.032,0.597-0.115,0.78,0.018c0.182,0.132,0.05,0.447,0.05,0.447c0.332,0.135,3.036,0.962,3.269,0.979
			C11.754,52.458,14.341,52.788,14.341,52.788z"/>
		<linearGradient id="SVGID_2_" gradientUnits="userSpaceOnUse" x1="2.8252" y1="50.6738" x2="64.2964" y2="33.8438">
			<stop  offset="0" style="stop-color:#3F1400"/>
			<stop  offset="0.8121" style="stop-color:#000000"/>
			<stop  offset="1" style="stop-color:#3F1D00"/>
		</linearGradient>
		<path fill-rule="evenodd" clip-rule="evenodd" fill="url(#SVGID_2_)" d="M3.89,43.615c-0.082-0.745,0.548-1.707,0.913-1.888
			c0.1-0.06,0.049,0.08-0.199,0.743c-0.249,0.667,0.099,1.742,1.892,2.956c1.792,1.209,6.071,2.521,7.631,2.669
			c1.56,0.151,7.748,0.499,9.755,0.066c2.007-0.43,11.016-2.124,13.371-3.02c2.356-0.895,6.305-3.518,9.723-7.33
			c3.418-3.817,8.195-6.835,9.673-7.583c1.476-0.747,4.03-3.683,4.015-4.347c0.247,0.315,0.313,0.813,0.214,3.534
			c-0.099,2.722-0.663,4.297-1.012,4.795c-0.348,0.496-2.637,2.304-3.665,3.068c-1.029,0.763-3.949,3.018-4.28,3.236
			c-1.212-0.816-1.941-1.047-2.355-0.666c-0.415,0.382-2.041,2.092-2.488,2.574c-0.448,0.479-2.571,3.002-4.133,4.164
			c-1.559,1.161-2.538,1.789-2.886,2.021c-0.348,0.234-0.382,0.53-1.857,1.145c-1.478,0.613-3.368,1.146-4.365,1.345
			c-0.995,0.198-5.79,1.178-8.111,1.442c-2.323,0.268-4.347,0.631-7.648,0.516c-3.302-0.117-3.318-0.2-4.198-0.3
			c-0.879-0.101-2.007-0.198-3.168-0.515c-1.162-0.315-2.124-0.644-2.456-0.778c0.132-0.365-0.033-0.5-0.332-0.48
			C7.624,51,7.624,51.032,7.424,51c-1.393-0.798-2.107-1.512-2.671-1.958c-0.563-0.447-1.542-1.494-1.659-2.722
			C2.978,45.093,3.509,43.732,3.89,43.615z"/>
		<g>
			<path fill="#0F0907" d="M4.903,41.668c-0.204,0.655-0.367,1.396,0,1.957c0.333,0.562,0.915,0.953,1.491,1.301
				c1.194,0.677,2.449,1.24,3.759,1.536c2.608,0.761,5.39,1.021,8.141,1.15c1.378,0.053,2.767,0.066,4.128-0.017
				c1.316-0.098,2.719-0.396,4.077-0.624c2.732-0.5,5.461-1.048,8.14-1.738c1.32-0.355,2.697-0.721,3.848-1.293
				c1.214-0.644,2.355-1.381,3.413-2.243c1.06-0.858,2.044-1.821,2.993-2.823c0.952-0.989,1.838-2.077,2.866-3.068
				c2.013-1.986,4.357-3.657,6.78-5.039c1.215-0.65,2.41-1.353,3.528-2.157c0.559-0.403,1.098-0.834,1.585-1.318
				c0.246-0.24,0.476-0.496,0.672-0.777c0.183-0.28,0.374-0.599,0.322-0.952c0.099,0.347-0.055,0.708-0.206,1.021
				c-0.164,0.315-0.367,0.61-0.587,0.888c-0.444,0.553-0.948,1.053-1.472,1.526c-1.052,0.946-2.184,1.789-3.35,2.587
				c-2.415,1.38-4.645,2.973-6.605,4.904c-0.982,0.944-1.86,2.021-2.841,3.042c-0.966,1.021-1.979,2.013-3.085,2.909
				c-1.103,0.899-2.314,1.681-3.562,2.342c-1.353,0.668-2.698,1.003-4.061,1.377c-2.72,0.7-5.46,1.249-8.21,1.753
				c-1.389,0.231-2.72,0.524-4.185,0.638c-1.42,0.086-2.823,0.071-4.229,0.018c-2.807-0.131-5.621-0.397-8.378-1.183
				c-0.666-0.23-1.363-0.532-1.974-0.886c-0.614-0.351-1.219-0.722-1.793-1.149c-0.561-0.432-1.142-0.91-1.458-1.6
				C4.324,43.025,4.624,42.278,4.903,41.668z"/>
		</g>
		<path fill-rule="evenodd" clip-rule="evenodd" d="M51.92,40.517c0.099-1.329,0.199-2.937,0.199-2.937s-1.908,1.358-2.555,2.271
			C50.726,40.214,51.123,40.333,51.92,40.517z"/>
		<path fill-rule="evenodd" clip-rule="evenodd" fill="#070102" d="M21.393,27.376c0.167-1.792,1.361-2.505,2.389-3.12
			c1.029-0.613,2.688-1.21,3.617-1.642s2.124-1.376,2.721-1.875s1.245-1.593,1.924-2.307c0.681-0.713,1.229-2.14,2.738-2.985
			c0.597,0.415,1.16,1.443-0.05,2.372c-1.212,0.929-2.672,1.726-3.104,1.958c-0.431,0.232-1.692,1.659-2.14,2.239
			c-0.448,0.581-1.2,1.728-3.385,2.389c-0.546,0.166-1.525,0.975-2.306,1.411C22.67,26.447,21.393,27.376,21.393,27.376z"/>
		<g>
			<path d="M37.177,35.445c-0.646-1.012-1.349-1.985-2.072-2.941c-0.363-0.487-0.706-0.945-1.134-1.391
				c-0.386-0.484-0.684-1.014-0.966-1.55c-0.588-1.05-0.989-2.277-0.939-3.517c0-1.241,0.458-2.444,0.94-3.526
				c0.472-1.104,1.066-2.198,1.781-3.167c0.346-0.493,0.701-0.982,1.074-1.458c0.367-0.459,0.769-0.979,1.282-1.312
				c0.491-0.364,1.084-0.661,1.727-0.676c0.637,0.015,1.211,0.134,1.811,0.244c1.168,0.269,2.372,0.576,3.365,1.276l-0.014,0.02
				c-1.004-0.667-2.207-0.938-3.375-1.172c-0.589-0.1-1.186-0.215-1.781-0.222c-0.602,0.021-1.16,0.304-1.634,0.663
				c-0.504,0.334-0.865,0.822-1.236,1.292c-0.365,0.476-0.713,0.965-1.053,1.46c-0.703,0.975-1.267,2.038-1.729,3.147
				c-0.495,1.089-0.942,2.228-0.957,3.437c-0.059,1.205,0.312,2.385,0.884,3.437c0.274,0.533,0.565,1.062,0.934,1.534
				c0.41,0.436,0.771,0.922,1.122,1.408c0.697,0.978,1.373,1.972,1.991,3.003L37.177,35.445z"/>
		</g>
		<path fill-rule="evenodd" clip-rule="evenodd" fill="#0E0807" d="M30.407,23.904c1.585,1.041,3.428,2.61,3.605,2.765
			c0.178,0.154,0.841,0.597,1.062,0.287c0.222-0.31,0.288-0.664-0.598-1.305c-0.883-0.641-2.852-2.013-3.56-2.455
			c-0.708-0.442-3.31-2.104-3.733-2.174c-0.796-0.132-1.256-0.127-1.543,0.449c-0.287,0.575-0.05,0.73-0.05,0.73
			c0.2-0.2,0.637-0.354,1.676,0.133C28.306,22.819,29.7,23.439,30.407,23.904z"/>
		<path fill-rule="evenodd" clip-rule="evenodd" fill="#0E0807" d="M32.027,21.62c0.713,0.481,2.605,1.957,2.887,2.189
			c0.283,0.233,1.327,0.763,1.576,0.298c0.249-0.464-0.33-1.161-1.027-1.493c-0.698-0.332-2.391-1.394-3.253-2.041
			c-0.863-0.646-2.169-1.131-2.621-1.443c-0.481-0.332-0.862-0.962-1.493-0.199c-0.509,0.616-0.183,1.061,0.066,0.996
			c0.353-0.094,1.477,0.38,2.091,0.779S31.314,21.138,32.027,21.62z"/>
		<path fill-rule="evenodd" clip-rule="evenodd" fill="#0E0807" d="M34.235,18.766c0.488,0.49,1.973,1.676,2.287,1.991
			c0.316,0.314,1.014,1.195,1.411,1.028c0.398-0.166,0.531-0.83,0.018-1.228c-0.515-0.398-1.593-1.194-2.24-1.825
			c-0.647-0.63-2.455-1.974-2.738-2.223c-0.281-0.249-1.193-0.73-2.089-0.415c-0.465,0.299-0.565,0.664-0.532,0.879
			c0.034,0.215,0.183,0.547,0.631,0.132c0.448-0.415,1.028,0.034,1.31,0.232C32.576,17.538,33.736,18.268,34.235,18.766z"/>
		<path fill-rule="evenodd" clip-rule="evenodd" fill="#0E0807" d="M36.093,16.211c0.961,0.71,2.141,1.493,2.522,1.992
			c0.381,0.498,0.68,0.862,0.977,0.862c0.3,0,0.466-0.747,0.101-1.211c-0.365-0.464-2.604-2.058-3.035-2.373
			c-0.433-0.315-1.211-0.995-1.492-1.277c-0.283-0.283-1.583-1.309-2.392-0.697c-0.48,0.365-0.303,1.184-0.22,1.349
			C32.637,15.022,33.04,15,33.173,14.9c0.132-0.1,0.198-0.199,0.216-0.398c0.016-0.199-0.033-0.464,0.615,0
			C34.649,14.967,35.711,15.929,36.093,16.211z"/>
		<path fill-rule="evenodd" clip-rule="evenodd" d="M46.313,20.165c1.238,0.974,3.361,1.283,5.972-0.486
			c2.61-1.77,3.938-3.229,4.557-4.823c0.619-1.592,0.088-2.212-0.222-2.61c-0.31-0.397-1.948-0.664-4.514,0.31
			c-2.563,0.974-5.175,2.3-5.838,2.832c-0.663,0.53-1.281,0.707-2.964,1.504C44.543,17.378,44.012,18.44,46.313,20.165z"/>
		<linearGradient id="SVGID_3_" gradientUnits="userSpaceOnUse" x1="3.6782" y1="24.9551" x2="19.3731" y2="37.0581">
			<stop  offset="0" style="stop-color:#FFFFFF"/>
			<stop  offset="1" style="stop-color:#FFFFFF;stop-opacity:0"/>
		</linearGradient>
		<path fill-rule="evenodd" clip-rule="evenodd" fill="url(#SVGID_3_)" d="M5.658,42.691c0,0-0.892-1.683,2.388-5.111
			c3.279-3.431,9.324-6.586,14.442-10.603c8.355-0.104,13.418,6.827,4.133,5C16.074,29.9,7.482,38.196,5.658,42.691z"/>
		<path opacity="0.11" fill-rule="evenodd" clip-rule="evenodd" fill="#FFFFFF" d="M26.616,43.408
			c0.095,0.58-1.173,1.271-2.832,1.542c-1.659,0.275-3.081,0.023-3.176-0.559s1.172-1.271,2.831-1.543
			C25.097,42.574,26.52,42.826,26.616,43.408z"/>
	</g>
	<linearGradient id="SVGID_4_" gradientUnits="userSpaceOnUse" x1="51.125" y1="13.3413" x2="53.4613" y2="26.1294">
		<stop  offset="0" style="stop-color:#FFFFFF"/>
		<stop  offset="1" style="stop-color:#FFFFFF;stop-opacity:0"/>
	</linearGradient>
	<path opacity="0.4" fill-rule="evenodd" clip-rule="evenodd" fill="url(#SVGID_4_)" d="M47.122,21.431
		c0,0,3.659,1.809,10.005-5.241C57.127,16.19,54.551,25.008,47.122,21.431z"/>
</g>
</svg>
