<?xml version="1.0" encoding="UTF-8" standalone="no"?>
<!-- Generator: Adobe Illustrator 18.0.0, SVG Export Plug-In . SVG Version: 6.00 Build 0)  -->

<svg
   xmlns:dc="http://purl.org/dc/elements/1.1/"
   xmlns:cc="http://creativecommons.org/ns#"
   xmlns:rdf="http://www.w3.org/1999/02/22-rdf-syntax-ns#"
   xmlns:svg="http://www.w3.org/2000/svg"
   xmlns="http://www.w3.org/2000/svg"
   xmlns:sodipodi="http://sodipodi.sourceforge.net/DTD/sodipodi-0.dtd"
   xmlns:inkscape="http://www.inkscape.org/namespaces/inkscape"
   version="1.1"
   id="レイヤー_1"
   x="0px"
   y="0px"
   width="64px"
   height="64px"
   viewBox="0 0 64 64"
   style="enable-background:new 0 0 64 64;"
   xml:space="preserve"
   inkscape:version="0.48.5 r10040"
   sodipodi:docname="maximize.svg"><metadata
     id="metadata37"><rdf:RDF><cc:Work
         rdf:about=""><dc:format>image/svg+xml</dc:format><dc:type
           rdf:resource="http://purl.org/dc/dcmitype/StillImage" /></cc:Work></rdf:RDF></metadata><defs
     id="defs35" /><sodipodi:namedview
     pagecolor="#ffffff"
     bordercolor="#666666"
     borderopacity="1"
     objecttolerance="10"
     gridtolerance="10"
     guidetolerance="10"
     inkscape:pageopacity="0"
     inkscape:pageshadow="2"
     inkscape:window-width="640"
     inkscape:window-height="480"
     id="namedview33" /><g
     id="g3"><linearGradient
       id="SVGID_1_"
       gradientUnits="userSpaceOnUse"
       x1="32"
       y1="12"
       x2="32"
       y2="57"><stop
         offset="0"
         style="stop-color:#B2B2B3"
         id="stop6" /><stop
         offset="1"
         style="stop-color:#3E3A39"
         id="stop8" /></linearGradient><path
       style="fill:url(#SVGID_1_);"
       d="M55,12H9c-1.1045532,0-2,0.8953857-2,2v41c0,1.1045532,0.8954468,2,2,2h46   c1.1045532,0,2-0.8954468,2-2V14C57,12.8953857,56.1045532,12,55,12z M52,51.833313H12.166687V22H52V51.833313z"
       id="path10" /><linearGradient
       id="SVGID_2_"
       gradientUnits="userSpaceOnUse"
       x1="32"
       y1="12"
       x2="32"
       y2="57"><stop
         offset="0"
         style="stop-color:#FFFFFF"
         id="stop13" /><stop
         offset="1"
         style="stop-color:#717071"
         id="stop15" /></linearGradient><path
       style="fill:url(#SVGID_2_);"
       d="M55,14v41H9V14H55 M12.1666889,53.833313H52c1.1045685,0,2-0.8954353,2-2V22   c0-1.1045685-0.8954315-2-2-2h-39.833313c-1.1045666,0-2,0.8954315-2,2v29.833313   C10.1666889,52.9378777,11.0621223,53.833313,12.1666889,53.833313 M55,12H9c-1.1045556,0-2,0.8953896-2,2v41   c0,1.104557,0.8954444,2,2,2h46c1.104557,0,2-0.895443,2-2V14C57,12.8953896,56.104557,12,55,12L55,12z M12.1666889,51.833313V22   H52v29.833313H12.1666889L12.1666889,51.833313z"
       id="path17" /><path
       style="fill:#3E3A39;"
       d="M55,13c0.5513992,0,1,0.4486008,1,1v41c0,0.5513992-0.4486008,1-1,1H9c-0.5514002,0-1-0.4486008-1-1   V14c0-0.5513992,0.4485998-1,1-1H55 M12.1666899,52.8333092H52c0.5522804,0,1-0.4477196,1-1V22c0-0.5522804-0.4477196-1-1-1   H12.1666899c-0.5522795,0-1,0.4477196-1,1v29.8333092C11.1666899,52.3855896,11.6144104,52.8333092,12.1666899,52.8333092 M55,12H9   c-1.1045499,0-2,0.8953896-2,2v41c0,1.1045494,0.8954501,2,2,2h46c1.1045494,0,2-0.8954506,2-2V14   C57,12.8953896,56.1045494,12,55,12L55,12z M12.1666899,51.8333092V22H52v29.8333092H12.1666899L12.1666899,51.8333092z"
       id="path19" /></g><g
     id="g21" /><g
     id="g23" /><g
     id="g25" /><g
     id="g27" /><g
     id="g29" /><g
     id="g31" /></svg>