<?xml version="1.0" encoding="utf-8"?>
<!-- Generator: Adobe Illustrator 15.0.2, SVG Export Plug-In . SVG Version: 6.00 Build 0)  -->
<!DOCTYPE svg PUBLIC "-//W3C//DTD SVG 1.1//EN" "http://www.w3.org/Graphics/SVG/1.1/DTD/svg11.dtd">
<svg version="1.1" id="レイヤー_1" xmlns="http://www.w3.org/2000/svg" xmlns:xlink="http://www.w3.org/1999/xlink" x="0px"
	 y="0px" width="64px" height="64px" viewBox="0 0 64 64" enable-background="new 0 0 64 64" xml:space="preserve">
<g>
	<path fill="#F7F9F8" stroke="#301902" stroke-width="1.9273" stroke-miterlimit="10" d="M41.903,16.098
		c0,0,6.654-5.703,6.813-6.813c-2.971-1.464-1.307-5.504,1.544-5.979c2.852-0.476,4.711,2.334,4.912,4.119
		c0,0,3.326-0.792,3.326,3.168c0,3.458-3.724,4.02-5.229,3.01l-7.842,6.417L41.903,16.098z"/>
	<g>
		<path fill="#BF702E" stroke="#301902" stroke-width="1.9273" stroke-miterlimit="10" d="M34.56,51.372
			c2.406-2.404,4.449-8.031,6.278-10.014c2.075-2.252,9.073-2.957,11.292-6.779c3.796-6.534,1.773-13.135-4.537-19.445
			c-6.31-6.31-14.837-6.333-20.117-1.053c-2.599,2.599-3.42,7.14-4.824,8.496c-3.706,3.576-7.506,5.438-9.912,7.843
			C7.63,35.53,9.714,43.94,16.238,49.608C23.731,56.116,29.451,56.481,34.56,51.372z"/>
	</g>
	<path fill="#F7F9F8" stroke="#301902" stroke-width="1.9273" stroke-miterlimit="10" d="M12.305,51.011l5.557-6.594
		c0,0,0.796-1.58,3.448,0.438c2.652,2.02,1.22,3.211,1.22,3.211l-6.728,7.283c0,0,1.403,2.988-0.524,4.705
		c-1.207,1.072-6.604,1.475-5.215-3.156c0,0-4.39,2.568-4.558-2.658C5.346,49.327,12.305,51.011,12.305,51.011z"/>
	<path fill="#A85416" d="M25.924,49.194c-0.036,1.186,3.854,5.42,7.106-1.807s7.95-10.961,11.805-12.287
		c3.854-1.324,7.6-5.541,5.366-10.961c-2.234-5.42-2.234,4.578-6.33,6.746c-4.095,2.169-10.721,11.083-13.25,13.974
		C28.092,47.749,26.044,45.22,25.924,49.194z"/>
	<ellipse fill="#A85416" cx="38.271" cy="15.105" rx="0.903" ry="0.723"/>
	<ellipse fill="#A85416" cx="30.441" cy="18.057" rx="0.783" ry="0.662"/>
	<ellipse fill="#A85416" cx="41.903" cy="15.828" rx="0.763" ry="0.614"/>
	<ellipse fill="#A85416" cx="33.994" cy="14.382" rx="0.662" ry="0.603"/>
	<ellipse fill="#A85416" cx="34.657" cy="25.645" rx="0.963" ry="0.663"/>
	<ellipse fill="#A85416" cx="25.141" cy="24.38" rx="0.783" ry="0.602"/>
	<ellipse fill="#A85416" cx="19.961" cy="30.162" rx="0.662" ry="0.482"/>
	<ellipse fill="#A85416" cx="24.357" cy="30.825" rx="0.721" ry="0.481"/>
	<ellipse fill="#A85416" cx="28.875" cy="25.645" rx="0.783" ry="0.663"/>
	<ellipse fill="#A85416" cx="14.36" cy="35.401" rx="0.843" ry="0.543"/>
	<ellipse fill="#A85416" cx="22.913" cy="37.571" rx="0.724" ry="0.541"/>
</g>
</svg>
