<?xml version="1.0" encoding="UTF-8" standalone="no"?>
<!-- Generator: Adobe Illustrator 15.0.2, SVG Export Plug-In . SVG Version: 6.00 Build 0)  -->

<svg
   xmlns:dc="http://purl.org/dc/elements/1.1/"
   xmlns:cc="http://creativecommons.org/ns#"
   xmlns:rdf="http://www.w3.org/1999/02/22-rdf-syntax-ns#"
   xmlns:svg="http://www.w3.org/2000/svg"
   xmlns="http://www.w3.org/2000/svg"
   xmlns:sodipodi="http://sodipodi.sourceforge.net/DTD/sodipodi-0.dtd"
   xmlns:inkscape="http://www.inkscape.org/namespaces/inkscape"
   version="1.1"
   id="レイヤー_1"
   x="0px"
   y="0px"
   width="64px"
   height="64px"
   viewBox="0 0 64 64"
   style="enable-background:new 0 0 64 64;"
   xml:space="preserve"
   inkscape:version="0.48.5 r10040"
   sodipodi:docname="mens.svg"><metadata
     id="metadata36"><rdf:RDF><cc:Work
         rdf:about=""><dc:format>image/svg+xml</dc:format><dc:type
           rdf:resource="http://purl.org/dc/dcmitype/StillImage" /></cc:Work></rdf:RDF></metadata><defs
     id="defs34" /><sodipodi:namedview
     pagecolor="#ffffff"
     bordercolor="#666666"
     borderopacity="1"
     objecttolerance="10"
     gridtolerance="10"
     guidetolerance="10"
     inkscape:pageopacity="0"
     inkscape:pageshadow="2"
     inkscape:window-width="640"
     inkscape:window-height="480"
     id="namedview32" /><g
     id="g3"><linearGradient
       id="SVGID_1_"
       gradientUnits="userSpaceOnUse"
       x1="31.9995117"
       y1="2.9956055"
       x2="31.9995098"
       y2="60.9864426"><stop
         offset="0"
         style="stop-color:#1FB8FF"
         id="stop6" /><stop
         offset="1"
         style="stop-color:#0070FF"
         id="stop8" /></linearGradient><path
       style="fill:url(#SVGID_1_);"
       d="M62.2050781,50.2050781c0,6.6269531-5.3730469,12-12,12H13.7949219   c-6.6269531,0-12-5.3730469-12-12V13.7949219c0-6.6269531,5.3730469-12,12-12h36.4101563c6.6269531,0,12,5.3730469,12,12   V50.2050781z"
       id="path10" /><g
       id="g12"><path
         style="opacity:0.28;fill:#FFFFFF;"
         d="M2.671875,13.3681641c-0.0322266,0.3535156-0.0537109,0.7099609-0.0537109,1.0712891    v12.59375c0.0058594,0.0058594,0.0117188,0.0117188,0.0166016,0.0175781L2.671875,13.3681641z"
         id="path14" /><path
         style="opacity:0.28;fill:#FFFFFF;"
         d="M60.1064453,23.5693359    c1.1884766-5.8017578,1.2216797-9.4169922,1.2216797-10.1933594c-0.5380859-5.9482422-5.53125-10.609375-11.6181641-10.609375    H14.2910156c-6.0761719,0-11.0625,4.6416016-11.6171875,10.5722656C2.6933594,13.6875,3.1708984,17.3730469,3.9667969,23.6455078    C11.2060547,30.7001953,21.0917969,35.0546875,32,35.0546875C42.9453125,35.0546875,52.859375,30.6689453,60.1064453,23.5693359z"
         id="path16" /><path
         style="opacity:0.28;fill:#FFFFFF;"
         d="M61.328125,13.3789063l0.0390625,13.6669922    c0.0048828-0.0048828,0.0097656-0.0097656,0.0146484-0.0146484V14.4394531    C61.3818359,14.0810547,61.359375,13.7285156,61.328125,13.3789063z"
         id="path18" /></g><path
       style="fill:#FFFFFF;"
       d="M2.0849609,29.4189453c0,0-0.0058594-11.9658203-0.0302734-15.1865234   C2.0244141,10.2871094,5.6083984,2.2988281,13.4238281,2.2988281c7.2744141,0,18.4130859,0,18.4130859,0   S17.9140625,3.1914063,13.4228516,4.0898438C8.9316406,4.9873047,5.2109375,10.7119141,4.171875,14.2392578   C2.6601563,19.3701172,2.0849609,29.4189453,2.0849609,29.4189453z"
       id="path20" /><path
       style="fill:#0D62B5;"
       d="M62.0322266,33.2695313c0,0,0.0078125,12.6494141,0.0341797,16.0566406   c0.0322266,4.1699219-3.8828125,12.6171875-12.4208984,12.6171875c-7.9443359,0-20.1113281,0-20.1113281,0   s15.2099609-0.9443359,20.1152344-1.8945313c4.9033203-0.9492188,8.9667969-7,10.1035156-10.7304688   C61.4042969,43.8935547,62.0322266,33.2695313,62.0322266,33.2695313z"
       id="path22" /><path
       style="fill:#0F50F2;"
       d="M50.2050781,63.2050781H13.7949219c-7.168457,0-13-5.8320313-13-13V13.7949219   c0-7.168457,5.831543-13,13-13h36.4101563c7.1679688,0,13,5.831543,13,13v36.4101563   C63.2050781,57.3730469,57.3730469,63.2050781,50.2050781,63.2050781z M13.7949219,2.7949219c-6.0654297,0-11,4.9345703-11,11   v36.4101563c0,6.0654297,4.9345703,11,11,11h36.4101563c6.0654297,0,11-4.9345703,11-11V13.7949219c0-6.0654297-4.9345703-11-11-11   H13.7949219z"
       id="path24" /><g
       id="g26"><circle
         style="fill:#FFFFFF;"
         cx="32"
         cy="11.1748047"
         r="4.1914063"
         id="circle28" /><path
         style="fill:#FFFFFF;"
         d="M22.5117188,34.5136719c0,0,0-12.3374023,0-14.1704102    c0-1.8339844,2.1835938-4.0605469,4.0605469-4.0605469c1.8774414,0,9.7431641,0,10.703125,0    c0.9609375,0,4.2128906,1.3964844,4.2128906,4.2128906c0,2.815918,0,12.9946289,0,14.0180664    s-0.7207031,2.1347656-1.9189453,1.9199219c-0.7958984-0.1445313-1.8007813-0.7851563-1.8007813-1.8027344    c0-1.015625,0-11.6689453,0-11.6689453h-0.6679688c0,0,0,31.4345703,0,32.3955078s-1.2900391,1.6582031-2.2509766,1.6582031    c-0.9599609,0-2.4643555-0.9609375-2.4643555-1.8339844s0-18.9472656,0-18.9472656h-1.0131836c0,0,0,18.1621094,0,19.0371094    c0,0.8710938-1.7802734,1.7441406-2.6538086,1.7441406c-0.8730469,0-2.0517578-0.7851563-2.0517578-2.0507813    c0-1.2675781,0-32.1777344,0-32.1777344h-0.5742188c0,0,0,10.703125,0,11.7265625s-0.7861328,1.9199219-1.9853516,1.9199219    C23.2167969,36.4335938,22.5117188,35.4980469,22.5117188,34.5136719z"
         id="path30" /></g></g></svg>