<?xml version="1.0" encoding="iso-8859-1"?>
<!-- Generator: Adobe Illustrator 16.0.0, SVG Export Plug-In . SVG Version: 6.00 Build 0)  -->
<!DOCTYPE svg PUBLIC "-//W3C//DTD SVG 1.1//EN" "http://www.w3.org/Graphics/SVG/1.1/DTD/svg11.dtd">
<svg version="1.1" xmlns="http://www.w3.org/2000/svg" xmlns:xlink="http://www.w3.org/1999/xlink" x="0px" y="0px" width="64px"
	 height="64px" viewBox="0 0 64 64" style="enable-background:new 0 0 64 64;" xml:space="preserve">
<g id="mermaid_x28_ye_x29_">
	<g id="mermaid_x28_ye_x29__1_">
		<path id="path30-2_36_" style="fill:#4C0A02;stroke:#231815;stroke-width:1.7375;stroke-miterlimit:10;" d="M29.079,40.432
			c0,0,0.927,0.93-1.541,4.157c-2.467,3.229-4.451,4.892-5.101,4.422c-0.648-0.469-2.177-0.409-1.033-2.093
			c0,0-0.169-1.182,0.949-0.913c1.5,0.97,4.405-2.433,5.074-3.473C28.003,41.637,28.01,40.016,29.079,40.432z"/>
		<path id="path3_4_" style="fill:#4C0A02;stroke:#231815;stroke-width:2;stroke-miterlimit:10;" d="M42.125,58.506
			c4.375-2.375,6.375-6.333,1.208-5.833c-4.774,0.462-7.315-2.333-7.315-2.333l-0.021-0.084H28.12L28.1,50.34
			c0,0-5.088,9.555,4.65,10.041C37.75,60.631,40.145,59.581,42.125,58.506z"/>
		<path id="path34-7-5_21_" style="fill:#4C0A02;stroke:#231815;stroke-width:1.9177;stroke-miterlimit:10;" d="M35.527,42.494
			c0.248-0.322,0.494-1.664,0-1.934c-0.492-0.269-1.75-0.644-1.75-0.644c-1.129-0.377-2.277-0.377-3.404,0
			c0,0-1.259,0.375-1.752,0.644c-0.493,0.27-0.247,1.61,0,1.934c0,0,0.444,3.863-0.493,7.834c0,0,1.43,1.824,3.947,1.824
			c2.516,0,3.946-1.824,3.946-1.824C35.085,46.357,35.527,42.494,35.527,42.494z"/>
		<path id="path30-2_35_" style="fill:#4C0A02;stroke:#231815;stroke-width:1.7375;stroke-miterlimit:10;" d="M36.77,42.582
			c0.668,1.04,3.572,4.441,5.072,3.473c1.118-0.268,0.949,0.913,0.949,0.913c1.145,1.683-0.385,1.624-1.032,2.093
			c-0.649,0.471-2.634-1.19-5.101-4.422c-2.469-3.228-1.541-4.158-1.541-4.158C36.188,40.064,36.191,41.688,36.77,42.582z"/>
		<path id="path38-2_6_" style="fill:#4C0A02;stroke:#231815;stroke-width:2;stroke-miterlimit:10;" d="M34.232,38.449H32.17h-2.061
			c0,0,0.747,0.693-0.096,1.818c0,0,0.781,0.778,2.156,0.778s2.158-0.778,2.158-0.778C33.484,39.143,34.232,38.449,34.232,38.449z"
			/>
		
			<path id="path8_29_" style="fill:#F09400;stroke:#231815;stroke-width:2;stroke-linecap:round;stroke-linejoin:round;stroke-miterlimit:10;" d="
			M43.939,54.409c1.5-2.75,1.625-2.25,1.875-5.5s2-6,5.375-5.875c0,0-0.875,0.75-0.625,3s3,6.125-1,8.25
			S43.939,54.409,43.939,54.409z"/>
		
			<path id="path10_19_" style="fill:#F09400;stroke:#231815;stroke-width:2;stroke-linecap:round;stroke-linejoin:round;stroke-miterlimit:10;" d="
			M44.234,54.801c2.943,1.07,2.707,0.612,5.043,2.885c2.339,2.272,5.47,3.178,7.918,0.852c0,0-1.151,0.016-2.452-1.836
			c-1.302-1.854-1.802-6.578-6.207-5.526C44.13,52.227,44.234,54.801,44.234,54.801z"/>
		<g id="g179_2_">
			<g id="g177_2_">
				<g id="g156_4_">
					<path id="path12_9_" style="fill:#F09400;stroke:#231815;stroke-width:1.5423;stroke-miterlimit:10;" d="M47.643,21.765
						c0,8.486-7.004,15.361-15.642,15.361c-8.642,0-15.645-6.875-15.645-15.361c0-8.487,7.003-15.369,15.645-15.369
						C40.639,6.396,47.643,13.278,47.643,21.765z"/>
					
						<radialGradient id="path27_1_" cx="306" cy="-319.7607" r="14.661" gradientTransform="matrix(1 0 0 -1 -274 -298)" gradientUnits="userSpaceOnUse">
						<stop  offset="0" style="stop-color:#BF6D48"/>
						<stop  offset="0.3871" style="stop-color:#B35125"/>
						<stop  offset="0.6026" style="stop-color:#98411C"/>
						<stop  offset="0.7151" style="stop-color:#91350D"/>
						<stop  offset="0.8698" style="stop-color:#753012"/>
						<stop  offset="1" style="stop-color:#6B2100"/>
					</radialGradient>
					<path id="path27_2_" style="fill:url(#path27_1_);" d="M46.792,21.765c0,8.025-6.624,14.524-14.791,14.524
						c-8.171,0-14.794-6.5-14.794-14.524c0-8.025,6.623-14.533,14.794-14.533C40.168,7.231,46.792,13.739,46.792,21.765z"/>
					
						<path id="path29_2_" style="fill:#F09400;stroke:#231815;stroke-width:3;stroke-linecap:round;stroke-linejoin:round;stroke-miterlimit:10;" d="
						M46.375,27.875c0,0-2.5,9.125,3.375,10c0,0-6.625,6.25-12.875-2C30.36,27.275,44.25,21.625,46.375,27.875z"/>
					
						<radialGradient id="path44_1_" cx="316.4502" cy="-330.6816" r="7.3808" gradientTransform="matrix(1 0 0 -1 -274 -298)" gradientUnits="userSpaceOnUse">
						<stop  offset="0" style="stop-color:#BF6D48"/>
						<stop  offset="0.3871" style="stop-color:#B35125"/>
						<stop  offset="0.6026" style="stop-color:#98411C"/>
						<stop  offset="0.7151" style="stop-color:#91350D"/>
						<stop  offset="0.8698" style="stop-color:#753012"/>
						<stop  offset="1" style="stop-color:#6B2100"/>
					</radialGradient>
					<path id="path44" style="fill:url(#path44_1_);" d="M46.375,27.875c0,0-2.5,9.125,3.375,10c0,0-6.625,6.25-12.875-2
						C30.36,27.275,44.25,21.625,46.375,27.875z"/>
					
						<path id="path46_6_" style="fill:#F09400;stroke:#231815;stroke-width:3;stroke-linecap:round;stroke-linejoin:round;stroke-miterlimit:10;" d="
						M17.875,27.875c0,0,2.5,9.125-3.375,10c0,0,6.625,6.25,12.875-2C33.891,27.275,20,21.625,17.875,27.875z"/>
					
						<radialGradient id="path61_1_" cx="-229.5498" cy="-330.6816" r="7.3808" gradientTransform="matrix(-1 0 0 -1 -207.75 -298)" gradientUnits="userSpaceOnUse">
						<stop  offset="0" style="stop-color:#BF6D48"/>
						<stop  offset="0.3871" style="stop-color:#B35125"/>
						<stop  offset="0.6026" style="stop-color:#98411C"/>
						<stop  offset="0.7151" style="stop-color:#91350D"/>
						<stop  offset="0.8698" style="stop-color:#753012"/>
						<stop  offset="1" style="stop-color:#6B2100"/>
					</radialGradient>
					<path id="path61_6_" style="fill:url(#path61_1_);" d="M17.875,27.875c0,0,2.5,9.125-3.375,10c0,0,6.625,6.25,12.875-2
						C33.891,27.275,20,21.625,17.875,27.875z"/>
					<path id="path63_11_" style="fill:#231815;stroke:#231815;stroke-width:2.7816;stroke-miterlimit:10;" d="M44.156,27.564
						c0,6.868-5.389,10.911-12.032,10.911c-6.644,0-12.03-4.043-12.03-10.911c0-6.871,5.387-12.443,12.03-12.443
						C38.768,15.121,44.156,20.693,44.156,27.564z"/>
					
						<ellipse id="ellipse65_4_" transform="matrix(0.1629 -0.9866 0.9866 0.1629 9.6167 67.8907)" style="fill:none;stroke:#231815;stroke-width:2.7816;stroke-miterlimit:10;" cx="44.817" cy="28.278" rx="2.596" ry="2.226"/>
					
						<radialGradient id="path72_1_" cx="372.791" cy="-278.9683" r="4.3796" gradientTransform="matrix(0.9866 0.1633 0.1633 -0.9866 -277.4218 -307.826)" gradientUnits="userSpaceOnUse">
						<stop  offset="0" style="stop-color:#FFF89F"/>
						<stop  offset="1" style="stop-color:#F15F57"/>
					</radialGradient>
					<path id="path72_3_" style="fill:url(#path72_1_);" d="M47.016,28.641c-0.233,1.415-1.408,2.399-2.621,2.198
						c-1.213-0.201-2.006-1.509-1.771-2.924c0.233-1.413,1.408-2.394,2.619-2.195C46.457,25.921,47.25,27.23,47.016,28.641z"/>
					
						<ellipse id="ellipse74_3_" transform="matrix(0.163 0.9866 -0.9866 0.163 44.0485 4.6363)" style="fill:none;stroke:#231815;stroke-width:2.7816;stroke-miterlimit:10;" cx="19.292" cy="28.279" rx="2.596" ry="2.226"/>
					
						<radialGradient id="path81_1_" cx="-165.9761" cy="-368.1431" r="4.3799" gradientTransform="matrix(-0.9866 0.1633 -0.1633 -0.9866 -204.5762 -307.826)" gradientUnits="userSpaceOnUse">
						<stop  offset="0" style="stop-color:#FFF89F"/>
						<stop  offset="1" style="stop-color:#F15F57"/>
					</radialGradient>
					<path id="path81_3_" style="fill:url(#path81_1_);" d="M17.095,28.641c0.235,1.415,1.408,2.399,2.62,2.198
						c1.213-0.201,2.006-1.509,1.771-2.924c-0.233-1.413-1.406-2.394-2.62-2.195C17.655,25.921,16.862,27.23,17.095,28.641z"/>
					
						<radialGradient id="rect96_1_" cx="410.8604" cy="-341.0195" r="1.5129" gradientTransform="matrix(0.7224 0 0 -1 -264.6991 -298)" gradientUnits="userSpaceOnUse">
						<stop  offset="0" style="stop-color:#F8D8CB"/>
						<stop  offset="0.1365" style="stop-color:#F7D1C3"/>
						<stop  offset="0.3479" style="stop-color:#F5BEAD"/>
						<stop  offset="0.6075" style="stop-color:#F19F8A"/>
						<stop  offset="0.903" style="stop-color:#EB7459"/>
						<stop  offset="1" style="stop-color:#E96547"/>
					</radialGradient>
					<rect id="rect96" x="31.043" y="37.745" style="fill:url(#rect96_1_);" width="2.128" height="3.104"/>
					
						<radialGradient id="path103_1_" cx="306.125" cy="-324.7979" r="22.0413" gradientTransform="matrix(1 0 0 -1 -274 -298)" gradientUnits="userSpaceOnUse">
						<stop  offset="0" style="stop-color:#FFF89F"/>
						<stop  offset="1" style="stop-color:#F15F57"/>
					</radialGradient>
					<path id="path103_3_" style="fill:url(#path103_1_);" d="M44.156,27.564c0,6.868-5.389,10.911-12.032,10.911
						c-6.644,0-12.03-4.043-12.03-10.911c0-6.871,5.387-12.443,12.03-12.443C38.768,15.121,44.156,20.693,44.156,27.564z"/>
					
						<linearGradient id="ellipse118_1_" gradientUnits="userSpaceOnUse" x1="313.0098" y1="-328.7158" x2="317.5977" y2="-328.7158" gradientTransform="matrix(1 0 0 -1 -274 -298)">
						<stop  offset="0" style="stop-color:#FFA67F"/>
						<stop  offset="0.0969" style="stop-color:#FF967B"/>
						<stop  offset="0.3655" style="stop-color:#FF7170"/>
						<stop  offset="0.6143" style="stop-color:#FF5568"/>
						<stop  offset="0.8336" style="stop-color:#FF4564"/>
						<stop  offset="1" style="stop-color:#FF3F62"/>
					</linearGradient>
					<ellipse id="ellipse118" style="fill:url(#ellipse118_1_);" cx="41.305" cy="30.716" rx="2.293" ry="1.112"/>
					
						<linearGradient id="ellipse133_1_" gradientUnits="userSpaceOnUse" x1="-233.1021" y1="-328.7158" x2="-228.5122" y2="-328.7158" gradientTransform="matrix(-1 0 0 -1 -208 -298)">
						<stop  offset="0" style="stop-color:#FFA67F"/>
						<stop  offset="0.0969" style="stop-color:#FF967B"/>
						<stop  offset="0.3655" style="stop-color:#FF7170"/>
						<stop  offset="0.6143" style="stop-color:#FF5568"/>
						<stop  offset="0.8336" style="stop-color:#FF4564"/>
						<stop  offset="1" style="stop-color:#FF3F62"/>
					</linearGradient>
					<ellipse id="ellipse133_4_" style="fill:url(#ellipse133_1_);" cx="22.807" cy="30.716" rx="2.295" ry="1.112"/>
					
						<path id="path135_2_" style="fill:none;stroke:#A4414A;stroke-width:0.8345;stroke-linecap:round;stroke-linejoin:round;stroke-miterlimit:10;" d="
						M39.541,21.175c0,0-1.555-2.108-3.654,0"/>
					
						<path id="path137_2_" style="fill:none;stroke:#A4414A;stroke-width:0.8345;stroke-linecap:round;stroke-linejoin:round;stroke-miterlimit:10;" d="
						M28.329,21.175c0,0-1.557-2.108-3.656,0"/>
					<path id="path139_4_" style="fill:#231815;" d="M20.258,28.064c0,0-1.5-2.809-1.729-7.251
						c-0.161-3.124-0.383-4.605,1.813-7.109c2.246-2.563,5.624-4.88,11.659-4.88c6.033,0,9.414,2.317,11.66,4.88
						c2.194,2.504,1.972,3.985,1.813,7.109c-0.23,4.442-1.484,7.251-1.484,7.251c-0.321-1.09-1.69-3.73-1.69-3.73
						c-0.731,0-3.292-0.739-3.292-0.739v0.925c-4.939-0.37-7.133-5.005-7.133-5.005l-0.549,5.372
						c-2.744-1.292-4.389-6.299-4.389-6.299C21.027,22.279,20.706,27.791,20.258,28.064z"/>
					
						<radialGradient id="path154_1_" cx="306" cy="-315.3989" r="12.0945" gradientTransform="matrix(1 0 0 -1 -274 -298)" gradientUnits="userSpaceOnUse">
						<stop  offset="0" style="stop-color:#BF6D48"/>
						<stop  offset="0.3871" style="stop-color:#B35125"/>
						<stop  offset="0.6026" style="stop-color:#98411C"/>
						<stop  offset="0.7151" style="stop-color:#91350D"/>
						<stop  offset="0.8698" style="stop-color:#753012"/>
						<stop  offset="1" style="stop-color:#6B2100"/>
					</radialGradient>
					<path id="path154_5_" style="fill:url(#path154_1_);" d="M20.094,27.564c0,0-1.521-2.809-1.754-7.251
						c-0.163-3.124-0.389-4.605,1.838-7.109c2.278-2.563,5.702-5.97,11.822-5.97c6.117,0,9.544,3.407,11.822,5.969
						c2.227,2.504,2,3.985,1.838,7.109c-0.232,4.442-1.504,7.251-1.504,7.251c-0.326-1.09-1.715-3.73-1.715-3.73
						c-0.742,0-3.338-0.739-3.338-0.739v0.925c-5.008-0.37-7.233-5.005-7.233-5.005l-0.557,5.372
						c-2.782-1.292-4.45-6.299-4.45-6.299C20.874,21.779,20.548,27.291,20.094,27.564z"/>
				</g>
				<g id="g175_3_">
					<g id="g167_2_">
						<path id="path158_5_" style="fill:#160201;" d="M39.218,25.823c0.438-0.005,0.984-0.224,1.166-0.5
							c0,0,0.193,1.114-0.963,1.614C38.497,27.337,39.218,25.823,39.218,25.823z"/>
						<g id="g213_15_">
							<path id="path209_109_" style="fill:#160201;" d="M39.676,27.924c0,1.703-0.873,3.086-1.947,3.086
								c-1.078,0-1.949-1.383-1.949-3.086c0-1.713,0.871-3.099,1.949-3.099C38.803,24.826,39.676,26.211,39.676,27.924z"/>
							<path id="path211_12_" style="fill:#FFFFFF;" d="M39.064,26.326c0,0.462-0.373,0.834-0.838,0.834
								c-0.461,0-0.834-0.372-0.834-0.834c0-0.461,0.373-0.836,0.834-0.836C38.691,25.49,39.064,25.865,39.064,26.326z"/>
						</g>
						<g id="g213_14_">
							<path id="path209_18_" style="fill:#160201;" d="M28.495,27.924c0,1.703-0.873,3.086-1.947,3.086
								c-1.078,0-1.949-1.383-1.949-3.086c0-1.713,0.871-3.099,1.949-3.099C27.622,24.826,28.495,26.211,28.495,27.924z"/>
							<path id="path211_11_" style="fill:#FFFFFF;" d="M27.884,26.326c0,0.462-0.373,0.834-0.838,0.834
								c-0.461,0-0.834-0.372-0.834-0.834c0-0.461,0.373-0.836,0.834-0.836C27.511,25.49,27.884,25.865,27.884,26.326z"/>
						</g>
						<circle id="circle223_5_" style="fill:#FFFFFF;" cx="27.048" cy="26.326" r="0.836"/>
					</g>
					<g id="g173_2_">
						<g id="g171_2_">
							<path id="path169_5_" style="fill:#160201;" d="M25.003,25.823c-0.438-0.005-0.984-0.224-1.167-0.5
								c0,0-0.193,1.114,0.963,1.614C25.724,27.337,25.003,25.823,25.003,25.823z"/>
						</g>
					</g>
				</g>
			</g>
		</g>
		<path id="path181_5_" style="fill:#1EA839;" d="M43.939,54.409c1.5-2.75,1.625-2.25,1.875-5.5s2-6,5.375-5.875
			c0,0-0.875,0.75-0.625,3s3,6.125-1,8.25S43.939,54.409,43.939,54.409z"/>
		<path id="path183_2_" style="fill:#1EA839;" d="M44.234,54.801c2.943,1.07,2.707,0.612,5.043,2.885
			c2.339,2.272,5.47,3.178,7.918,0.852c0,0-1.151,0.016-2.452-1.836c-1.302-1.854-1.802-6.578-6.207-5.526
			C44.13,52.227,44.234,54.801,44.234,54.801z"/>
		<path id="path185_2_" style="fill:#8BC01F;" d="M50.488,52.249c1.787,1.26,2.34,4.077,3.297,5.44
			c0.792,1.129,1.523,1.6,2.016,1.804c0.481-0.222,0.95-0.534,1.396-0.957c0,0-1.152,0.016-2.453-1.836
			c-1.073-1.53-1.607-5.007-4.237-5.587C50.538,51.496,50.547,51.878,50.488,52.249z"/>
		<path id="path187_6_" style="fill:#8BC01F;" d="M51.189,43.034c-0.453-0.017-0.873,0.021-1.269,0.103
			c-0.2,0.225-0.833,1.104-0.606,3.143c0.177,1.582,1.496,3.912,1.174,5.971c0.258,0.182,0.484,0.402,0.695,0.641
			c1.414-2.158-0.416-5.037-0.619-6.854C50.314,43.784,51.189,43.034,51.189,43.034z"/>
		
			<line id="line189_2_" style="fill:none;stroke:#00833F;stroke-linecap:round;stroke-linejoin:round;stroke-miterlimit:10;" x1="45.938" y1="53.688" x2="50.813" y2="51.938"/>
		<path id="path191_5_" style="fill:none;stroke:#00833F;stroke-linecap:round;stroke-linejoin:round;stroke-miterlimit:10;" d="
			M45.746,53.633c0,0,1.341-1.637,1.771-3.729c0.787-3.844,2.205-3.84,2.205-3.84"/>
		<path id="path193_3_" style="fill:none;stroke:#00833F;stroke-linecap:round;stroke-linejoin:round;stroke-miterlimit:10;" d="
			M45.93,54.083c0,0,2.096,0.308,3.818,1.563c3.172,2.309,4.215,1.354,4.215,1.354"/>
		<path id="path195_6_" style="fill:#1EA839;" d="M42.125,58.506c4.375-2.375,6.375-6.333,1.208-5.833
			c-4.774,0.462-7.22-2.333-7.22-2.333l-0.021-0.084H28.12L28.1,50.34c0,0-5.088,9.555,4.649,10.041
			C37.75,60.631,40.145,59.581,42.125,58.506z"/>
		<path id="path197_4_" style="fill:#00833F;" d="M42.523,57.58c-1.98,1.074-4.375,2.125-9.375,1.875
			c-7.961-0.398-5.813-6.857-5.005-9.199H28.12L28.1,50.34c0,0-5.088,9.555,4.649,10.041c5,0.25,7.396-0.8,9.375-1.875
			c2.319-1.259,3.957-2.959,4.228-4.207C45.684,55.384,44.307,56.611,42.523,57.58z"/>
		<circle id="circle199_2_" style="fill:#D8DD00;" cx="36.424" cy="52.275" r="0.75"/>
		<circle id="circle201_2_" style="fill:#8BC01F;" cx="35.199" cy="54.15" r="0.75"/>
		<circle id="circle203_2_" style="fill:#8BC01F;" cx="37.6" cy="54.15" r="0.75"/>
		<circle id="circle205_2_" style="fill:#8BC01F;" cx="42.396" cy="54.15" r="0.75"/>
		<circle id="circle207_2_" style="fill:#D8DD00;" cx="39.998" cy="54.15" r="0.75"/>
		<path id="path209_17_" style="fill:none;stroke:#00833F;stroke-linecap:round;stroke-linejoin:round;stroke-miterlimit:10;" d="
			M45.938,53.688"/>
		
			<radialGradient id="polygon224_1_" cx="306.1992" cy="-430.0762" r="7.0516" gradientTransform="matrix(1 0 0 -0.742 -274 -313.2586)" gradientUnits="userSpaceOnUse">
			<stop  offset="0" style="stop-color:#FEF7B8"/>
			<stop  offset="0.0981" style="stop-color:#FCF1A7"/>
			<stop  offset="0.2931" style="stop-color:#F7E17A"/>
			<stop  offset="0.5641" style="stop-color:#EFC732"/>
			<stop  offset="0.6854" style="stop-color:#EBBB10"/>
			<stop  offset="0.9946" style="stop-color:#E48123"/>
		</radialGradient>
		
			<polygon id="polygon224_2_" style="fill:url(#polygon224_1_);stroke:#F8EB00;stroke-linecap:round;stroke-linejoin:round;stroke-miterlimit:10;" points="
			34.447,4.076 32.201,1.201 29.951,4.076 26.326,2.701 27.811,9.014 32.201,9.014 36.587,9.014 38.072,2.701 		"/>
		
			<radialGradient id="polygon239_1_" cx="306.1992" cy="-430.0762" r="7.0516" gradientTransform="matrix(1 0 0 -0.742 -274 -313.2586)" gradientUnits="userSpaceOnUse">
			<stop  offset="0" style="stop-color:#FEF7B8"/>
			<stop  offset="0.0981" style="stop-color:#FCF1A7"/>
			<stop  offset="0.2931" style="stop-color:#F7E17A"/>
			<stop  offset="0.5641" style="stop-color:#EFC732"/>
			<stop  offset="0.6854" style="stop-color:#EBBB10"/>
			<stop  offset="0.9946" style="stop-color:#E48123"/>
		</radialGradient>
		<polygon id="polygon239_2_" style="fill:url(#polygon239_1_);" points="34.447,4.076 32.201,1.201 29.951,4.076 26.326,2.701 
			27.811,9.014 32.201,9.014 36.587,9.014 38.072,2.701 		"/>
		<g id="g40_4_" transform="translate(-74.276687,-37.165726)">
			
				<radialGradient id="path34-7-5_1_" cx="478.0892" cy="-332.4163" r="32.8045" gradientTransform="matrix(0.9194 0 0 -1 -333.2414 -260.8326)" gradientUnits="userSpaceOnUse">
				<stop  offset="0" style="stop-color:#FFF89F"/>
				<stop  offset="1" style="stop-color:#F15F57"/>
			</radialGradient>
			<path id="path34-7-5_20_" style="fill:url(#path34-7-5_1_);" d="M109.804,79.66c0.248-0.322,0.494-1.664,0-1.934
				c-0.492-0.268-1.75-0.643-1.75-0.643c-1.129-0.378-2.277-0.378-3.404,0c0,0-1.259,0.375-1.752,0.643
				c-0.493,0.27-0.247,1.611,0,1.934c0,0,0.444,3.863-0.493,7.834c0,0,1.43,1.625,3.947,1.625c2.517,0,3.946-1.625,3.946-1.625
				C109.363,83.523,109.804,79.66,109.804,79.66z"/>
			
				<radialGradient id="path30-2_1_" cx="455.1761" cy="-333.3563" r="28.9381" gradientTransform="matrix(1 0 0 -1 -348.2773 -260.8326)" gradientUnits="userSpaceOnUse">
				<stop  offset="0" style="stop-color:#FFF89F"/>
				<stop  offset="1" style="stop-color:#F15F57"/>
			</radialGradient>
			<path id="path30-2_34_" style="fill:url(#path30-2_1_);" d="M111.045,79.748c0.669,1.04,3.573,4.441,5.073,3.473
				c1.117-0.268,0.949,0.914,0.949,0.914c1.145,1.683-0.386,1.623-1.033,2.093c-0.648,0.47-2.633-1.191-5.101-4.423
				c-2.469-3.228-1.541-4.157-1.541-4.157C110.463,77.231,110.469,78.852,111.045,79.748z"/>
			
				<radialGradient id="path30-2_2_" cx="-75.9992" cy="-333.3065" r="28.9348" gradientTransform="matrix(-1 0 0 -1 29.8503 -260.8326)" gradientUnits="userSpaceOnUse">
				<stop  offset="0" style="stop-color:#FFF89F"/>
				<stop  offset="1" style="stop-color:#F15F57"/>
			</radialGradient>
			<path id="path30-2_33_" style="fill:url(#path30-2_2_);" d="M103.355,77.595c0,0,0.927,0.932-1.541,4.158
				c-2.467,3.23-4.451,4.893-5.101,4.422c-0.648-0.469-2.177-0.41-1.033-2.092c0,0-0.169-1.182,0.949-0.914
				c1.5,0.969,4.405-2.433,5.074-3.473C102.28,78.802,102.286,77.181,103.355,77.595z"/>
			<path id="path36-5-6_5_" style="fill:#800080;" d="M108.292,79.638c-0.879,0-1.317,1.166-1.946,1.385
				c-0.627-0.219-1.064-1.385-1.944-1.385c-0.879,0-1.581,1.729-1.581,1.729l0.025,0.482c0,0,0.694,1.068,1.573,1.068
				c0.879,0,1.351-0.607,1.926-0.813c0.577,0.204,1.049,0.813,1.93,0.813c0.877,0,1.572-1.068,1.572-1.068l0.025-0.482
				C109.874,81.367,109.171,79.638,108.292,79.638L108.292,79.638z"/>
			<path id="path38-2_5_" style="fill:#800080;" d="M108.509,75.615h-2.063h-2.061c0,0,0.747,0.693-0.096,1.818
				c0,0,0.781,0.779,2.156,0.779c1.375,0,2.158-0.779,2.158-0.779C107.761,76.308,108.509,75.615,108.509,75.615z"/>
		</g>
		<path id="path58-3-7_7_" style="fill:#C30D23;" d="M32.035,35.217c1.684-0.082,3.07-0.643,3.279-1.133
			c0.104-0.242,0.104-0.512-0.121-0.664c-0.228-0.15-0.537-0.1-0.697,0.115c-0.313,0.424-2.848,1.611-4.754,0.404
			c-0.229-0.146-0.457-0.176-0.611,0.045c-0.152,0.219,0.035,0.453,0.265,0.6C30.25,35.123,31.107,35.217,32.035,35.217z"/>
	</g>
	<g id="Layer_1_33_">
	</g>
</g>
<g id="Layer_1">
</g>
</svg>
