<?xml version="1.0" encoding="iso-8859-1"?>
<!-- Generator: Adobe Illustrator 16.0.0, SVG Export Plug-In . SVG Version: 6.00 Build 0)  -->
<!DOCTYPE svg PUBLIC "-//W3C//DTD SVG 1.1//EN" "http://www.w3.org/Graphics/SVG/1.1/DTD/svg11.dtd">
<svg version="1.1" xmlns="http://www.w3.org/2000/svg" xmlns:xlink="http://www.w3.org/1999/xlink" x="0px" y="0px" width="64px"
	 height="64px" viewBox="0 0 64 64" style="enable-background:new 0 0 64 64;" xml:space="preserve">
<g id="merperson_x28_br_x29_">
	<g id="merperson_x28_br_x29__1_">
		<path id="path30-2_228_" style="fill:#4C0A02;stroke:#231815;stroke-width:1.7375;stroke-miterlimit:10;" d="M29.079,40.432
			c0,0,0.927,0.93-1.541,4.157c-2.467,3.229-4.451,4.892-5.101,4.422c-0.648-0.469-2.177-0.409-1.033-2.093
			c0,0-0.169-1.182,0.949-0.913c1.5,0.97,4.405-2.433,5.074-3.473C28.003,41.637,28.01,40.016,29.079,40.432z"/>
		<path id="path3_11_" style="fill:#4C0A02;stroke:#231815;stroke-width:2;stroke-miterlimit:10;" d="M42.125,58.506
			c4.375-2.375,6.375-6.333,1.208-5.833c-4.774,0.462-7.315-2.333-7.315-2.333l-0.021-0.084H28.12L28.1,50.34
			c0,0-5.088,9.555,4.65,10.041C37.75,60.631,40.145,59.581,42.125,58.506z"/>
		<path id="path34-7-5_196_" style="fill:#4C0A02;stroke:#231815;stroke-width:1.9177;stroke-miterlimit:10;" d="M35.527,42.494
			c0.248-0.322,0.494-1.664,0-1.934c-0.492-0.269-1.75-0.644-1.75-0.644c-1.129-0.377-2.277-0.377-3.404,0
			c0,0-1.259,0.375-1.752,0.644c-0.493,0.27-0.247,1.61,0,1.934c0,0,0.444,3.863-0.493,7.834c0,0,1.43,1.824,3.947,1.824
			c2.516,0,3.946-1.824,3.946-1.824C35.085,46.357,35.527,42.494,35.527,42.494z"/>
		<path id="path30-2_227_" style="fill:#4C0A02;stroke:#231815;stroke-width:1.7375;stroke-miterlimit:10;" d="M36.77,42.582
			c0.668,1.04,3.572,4.441,5.072,3.473c1.118-0.268,0.949,0.913,0.949,0.913c1.145,1.683-0.385,1.624-1.032,2.093
			c-0.649,0.471-2.634-1.19-5.101-4.422c-2.469-3.228-1.541-4.158-1.541-4.158C36.188,40.064,36.191,41.688,36.77,42.582z"/>
		<path id="path38-2_36_" style="fill:#4C0A02;stroke:#231815;stroke-width:2;stroke-miterlimit:10;" d="M34.232,38.449H32.17
			h-2.061c0,0,0.747,0.693-0.096,1.818c0,0,0.781,0.778,2.156,0.778s2.158-0.778,2.158-0.778
			C33.484,39.143,34.232,38.449,34.232,38.449z"/>
		
			<path id="path8_36_" style="fill:#F09400;stroke:#231815;stroke-width:2;stroke-linecap:round;stroke-linejoin:round;stroke-miterlimit:10;" d="
			M43.939,54.409c1.5-2.75,1.625-2.25,1.875-5.5s2-6,5.375-5.875c0,0-0.875,0.75-0.625,3s3,6.125-1,8.25
			S43.939,54.409,43.939,54.409z"/>
		
			<path id="path10_26_" style="fill:#F09400;stroke:#231815;stroke-width:2;stroke-linecap:round;stroke-linejoin:round;stroke-miterlimit:10;" d="
			M44.234,54.801c2.943,1.07,2.707,0.612,5.043,2.885c2.339,2.272,5.47,3.178,7.918,0.852c0,0-1.151,0.016-2.452-1.836
			c-1.302-1.854-1.802-6.578-6.207-5.526C44.13,52.227,44.234,54.801,44.234,54.801z"/>
		<g id="g136_5_">
			<g id="g134_4_">
				<g id="g121_2_">
					<path id="path12_16_" style="fill:#F09400;stroke:#231815;stroke-width:1.5423;stroke-miterlimit:10;" d="M47.643,21.765
						c0,8.486-7.004,15.361-15.642,15.361c-8.642,0-15.645-6.875-15.645-15.361c0-8.487,7.003-15.369,15.645-15.369
						C40.639,6.396,47.643,13.278,47.643,21.765z"/>
					
						<radialGradient id="path21_1_" cx="314.9492" cy="-315.4648" r="0.5042" gradientTransform="matrix(1 0 0 -1 -274 -298)" gradientUnits="userSpaceOnUse">
						<stop  offset="0" style="stop-color:#A36C55"/>
						<stop  offset="0.3871" style="stop-color:#783E31"/>
						<stop  offset="0.6026" style="stop-color:#61331F"/>
						<stop  offset="0.8698" style="stop-color:#4D2412"/>
						<stop  offset="1" style="stop-color:#401400"/>
					</radialGradient>
					<path id="path21_12_" style="fill:url(#path21_1_);" d="M46.916,21.765c0,8.093-6.68,14.647-14.916,14.647
						c-8.24,0-14.919-6.554-14.919-14.647c0-8.094,6.679-14.656,14.919-14.656C40.236,7.109,46.916,13.671,46.916,21.765z"/>
					<g id="g34_1_">
						
							<path id="path23_12_" style="fill:#F09400;stroke:#231815;stroke-width:2;stroke-linecap:round;stroke-linejoin:round;stroke-miterlimit:10;" d="
							M43.352,31.712c0,0-3.455,4.532-0.379,6.345c0,0-5.101,1.987-6.724-4.02C34.568,27.77,43.577,27.751,43.352,31.712z"/>
						
							<radialGradient id="path32_1_" cx="429.9512" cy="-202.2383" r="4.439" gradientTransform="matrix(0.927 0.3752 0.3752 -0.927 -282.6059 -315.2812)" gradientUnits="userSpaceOnUse">
							<stop  offset="0" style="stop-color:#A36C55"/>
							<stop  offset="0.3871" style="stop-color:#783E31"/>
							<stop  offset="0.6026" style="stop-color:#61331F"/>
							<stop  offset="0.8698" style="stop-color:#4D2412"/>
							<stop  offset="1" style="stop-color:#401400"/>
						</radialGradient>
						<path id="path32_8_" style="fill:url(#path32_1_);" d="M43.352,31.712c0,0-3.455,4.532-0.379,6.345
							c0,0-5.101,1.987-6.724-4.02C34.568,27.77,43.577,27.751,43.352,31.712z"/>
					</g>
					<g id="g47_1_">
						
							<path id="path36_1_" style="fill:#F09400;stroke:#231815;stroke-width:2;stroke-linecap:round;stroke-linejoin:round;stroke-miterlimit:10;" d="
							M20.966,31.712c0,0,3.454,4.532,0.378,6.345c0,0,5.101,1.987,6.724-4.02C29.747,27.77,20.739,27.751,20.966,31.712z"/>
						
							<radialGradient id="path45_1_" cx="-62.1602" cy="-401.4209" r="4.4385" gradientTransform="matrix(-0.927 0.3752 -0.3752 -0.927 -183.9986 -315.2812)" gradientUnits="userSpaceOnUse">
							<stop  offset="0" style="stop-color:#A36C55"/>
							<stop  offset="0.3871" style="stop-color:#783E31"/>
							<stop  offset="0.6026" style="stop-color:#61331F"/>
							<stop  offset="0.8698" style="stop-color:#4D2412"/>
							<stop  offset="1" style="stop-color:#401400"/>
						</radialGradient>
						<path id="path45_13_" style="fill:url(#path45_1_);" d="M20.966,31.712c0,0,3.454,4.532,0.378,6.345
							c0,0,5.101,1.987,6.724-4.02C29.747,27.77,20.739,27.751,20.966,31.712z"/>
					</g>
					<path id="path49_14_" style="fill:#48140F;stroke:#231815;stroke-width:2.7816;stroke-miterlimit:10;" d="M44.156,27.564
						c0,6.868-5.389,10.911-12.032,10.911c-6.644,0-12.03-4.043-12.03-10.911c0-6.871,5.387-12.443,12.03-12.443
						C38.768,15.121,44.156,20.693,44.156,27.564z"/>
					
						<ellipse id="ellipse51_1_" transform="matrix(0.1629 -0.9866 0.9866 0.1629 9.6167 67.8907)" style="fill:none;stroke:#231815;stroke-width:2.7816;stroke-miterlimit:10;" cx="44.817" cy="28.278" rx="2.596" ry="2.226"/>
					
						<radialGradient id="path58_1_" cx="372.791" cy="-278.9683" r="4.3796" gradientTransform="matrix(0.9866 0.1633 0.1633 -0.9866 -277.4218 -307.826)" gradientUnits="userSpaceOnUse">
						<stop  offset="0" style="stop-color:#FDB913"/>
						<stop  offset="1" style="stop-color:#D63929"/>
					</radialGradient>
					<path id="path58_9_" style="fill:url(#path58_1_);" d="M47.016,28.641c-0.233,1.415-1.408,2.399-2.621,2.198
						c-1.213-0.201-2.006-1.509-1.771-2.924c0.233-1.413,1.408-2.394,2.619-2.195C46.457,25.921,47.25,27.23,47.016,28.641z"/>
					
						<ellipse id="ellipse60_1_" transform="matrix(0.163 0.9866 -0.9866 0.163 44.0485 4.6363)" style="fill:none;stroke:#231815;stroke-width:2.7816;stroke-miterlimit:10;" cx="19.292" cy="28.279" rx="2.596" ry="2.226"/>
					
						<radialGradient id="path67_1_" cx="-165.9761" cy="-368.1431" r="4.3799" gradientTransform="matrix(-0.9866 0.1633 -0.1633 -0.9866 -204.5762 -307.826)" gradientUnits="userSpaceOnUse">
						<stop  offset="0" style="stop-color:#FDB913"/>
						<stop  offset="1" style="stop-color:#D63929"/>
					</radialGradient>
					<path id="path67_6_" style="fill:url(#path67_1_);" d="M17.095,28.641c0.235,1.415,1.408,2.399,2.62,2.198
						c1.213-0.201,2.006-1.509,1.771-2.924c-0.233-1.413-1.406-2.394-2.62-2.195C17.655,25.921,16.862,27.23,17.095,28.641z"/>
					
						<radialGradient id="rect82_2_" cx="410.8604" cy="-341.0195" r="1.5129" gradientTransform="matrix(0.7224 0 0 -1 -264.6991 -298)" gradientUnits="userSpaceOnUse">
						<stop  offset="0" style="stop-color:#F8D8CB"/>
						<stop  offset="0.1365" style="stop-color:#F7D1C3"/>
						<stop  offset="0.3479" style="stop-color:#F5BEAD"/>
						<stop  offset="0.6075" style="stop-color:#F19F8A"/>
						<stop  offset="0.903" style="stop-color:#EB7459"/>
						<stop  offset="1" style="stop-color:#E96547"/>
					</radialGradient>
					<rect id="rect82_1_" x="31.043" y="37.745" style="fill:url(#rect82_2_);" width="2.128" height="3.104"/>
					
						<radialGradient id="path89_1_" cx="306.125" cy="-324.7979" r="22.0413" gradientTransform="matrix(1 0 0 -1 -274 -298)" gradientUnits="userSpaceOnUse">
						<stop  offset="0" style="stop-color:#FDB913"/>
						<stop  offset="1" style="stop-color:#D63929"/>
					</radialGradient>
					<path id="path89_2_" style="fill:url(#path89_1_);" d="M44.156,27.564c0,6.868-5.389,10.911-12.032,10.911
						c-6.644,0-12.03-4.043-12.03-10.911c0-6.871,5.387-12.443,12.03-12.443C38.768,15.121,44.156,20.693,44.156,27.564z"/>
					
						<linearGradient id="ellipse102_1_" gradientUnits="userSpaceOnUse" x1="313.0098" y1="-328.7158" x2="317.5977" y2="-328.7158" gradientTransform="matrix(1 0 0 -1 -274 -298)">
						<stop  offset="0" style="stop-color:#F26D6D"/>
						<stop  offset="0.1557" style="stop-color:#F35E70"/>
						<stop  offset="0.4859" style="stop-color:#F44275"/>
						<stop  offset="0.7781" style="stop-color:#F53278"/>
						<stop  offset="1" style="stop-color:#F52C79"/>
					</linearGradient>
					<ellipse id="ellipse102_3_" style="fill:url(#ellipse102_1_);" cx="41.305" cy="30.716" rx="2.293" ry="1.112"/>
					
						<linearGradient id="ellipse115_1_" gradientUnits="userSpaceOnUse" x1="-233.1021" y1="-328.7158" x2="-228.5122" y2="-328.7158" gradientTransform="matrix(-1 0 0 -1 -208 -298)">
						<stop  offset="0" style="stop-color:#F26D6D"/>
						<stop  offset="0.1557" style="stop-color:#F35E70"/>
						<stop  offset="0.4859" style="stop-color:#F44275"/>
						<stop  offset="0.7781" style="stop-color:#F53278"/>
						<stop  offset="1" style="stop-color:#F52C79"/>
					</linearGradient>
					<ellipse id="ellipse115" style="fill:url(#ellipse115_1_);" cx="22.807" cy="30.716" rx="2.295" ry="1.112"/>
					
						<path id="path117_9_" style="fill:none;stroke:#A4414A;stroke-width:0.8345;stroke-linecap:round;stroke-linejoin:round;stroke-miterlimit:10;" d="
						M39.541,21.175c0,0-1.555-2.108-3.654,0"/>
					
						<path id="path119_10_" style="fill:none;stroke:#40120D;stroke-linecap:round;stroke-linejoin:round;stroke-miterlimit:10;" d="
						M28.329,21.175c0,0-1.557-2.108-3.656,0"/>
				</g>
				<g id="g132_4_">
					<g id="g130_2_">
						<g id="g213_127_">
							<path id="path209_104_" style="fill:#160201;" d="M39.676,27.924c0,1.703-0.873,3.086-1.947,3.086
								c-1.078,0-1.949-1.383-1.949-3.086c0-1.713,0.871-3.099,1.949-3.099C38.803,24.826,39.676,26.211,39.676,27.924z"/>
							<path id="path211_85_" style="fill:#FFFFFF;" d="M39.064,26.326c0,0.462-0.373,0.834-0.838,0.834
								c-0.461,0-0.834-0.372-0.834-0.834c0-0.461,0.373-0.836,0.834-0.836C38.691,25.49,39.064,25.865,39.064,26.326z"/>
						</g>
						<g id="g213_126_">
							<path id="path209_103_" style="fill:#160201;" d="M28.495,27.924c0,1.703-0.873,3.086-1.947,3.086
								c-1.078,0-1.949-1.383-1.949-3.086c0-1.713,0.871-3.099,1.949-3.099C27.622,24.826,28.495,26.211,28.495,27.924z"/>
							<path id="path211_84_" style="fill:#FFFFFF;" d="M27.884,26.326c0,0.462-0.373,0.834-0.838,0.834
								c-0.461,0-0.834-0.372-0.834-0.834c0-0.461,0.373-0.836,0.834-0.836C27.511,25.49,27.884,25.865,27.884,26.326z"/>
						</g>
						<circle id="circle223_20_" style="fill:#FFFFFF;" cx="27.048" cy="26.326" r="0.836"/>
					</g>
				</g>
			</g>
		</g>
		<path id="path138_2_" style="fill:#0FB2D2;" d="M43.939,54.409c1.5-2.75,1.625-2.25,1.875-5.5s2-6,5.375-5.875
			c0,0-0.875,0.75-0.625,3s3,6.125-1,8.25S43.939,54.409,43.939,54.409z"/>
		<path id="path140_5_" style="fill:#0FB2D2;" d="M44.234,54.801c2.943,1.07,2.707,0.612,5.043,2.885
			c2.339,2.272,5.47,3.178,7.918,0.852c0,0-1.151,0.016-2.452-1.836c-1.302-1.854-1.802-6.578-6.207-5.526
			C44.13,52.227,44.234,54.801,44.234,54.801z"/>
		<path id="path142_9_" style="fill:#B9E4FA;" d="M50.488,52.249c1.787,1.26,2.34,4.077,3.297,5.44
			c0.792,1.129,1.523,1.6,2.016,1.804c0.481-0.222,0.95-0.534,1.396-0.957c0,0-1.152,0.016-2.453-1.836
			c-1.073-1.53-1.607-5.007-4.237-5.587C50.538,51.496,50.547,51.878,50.488,52.249z"/>
		<path id="path144_8_" style="fill:#B9E4FA;" d="M51.189,43.034c-0.453-0.017-0.873,0.021-1.269,0.103
			c-0.2,0.225-0.833,1.104-0.606,3.143c0.177,1.582,1.496,3.912,1.174,5.971c0.258,0.182,0.484,0.402,0.695,0.641
			c1.414-2.158-0.416-5.037-0.619-6.854C50.314,43.784,51.189,43.034,51.189,43.034z"/>
		
			<line id="line146" style="fill:none;stroke:#008DD8;stroke-linecap:round;stroke-linejoin:round;stroke-miterlimit:10;" x1="45.938" y1="53.688" x2="50.813" y2="51.938"/>
		<path id="path148_7_" style="fill:none;stroke:#008DD8;stroke-linecap:round;stroke-linejoin:round;stroke-miterlimit:10;" d="
			M45.746,53.633c0,0,1.341-1.637,1.771-3.729c0.787-3.844,2.205-3.84,2.205-3.84"/>
		<path id="path150_5_" style="fill:none;stroke:#008DD8;stroke-linecap:round;stroke-linejoin:round;stroke-miterlimit:10;" d="
			M45.93,54.083c0,0,2.096,0.308,3.818,1.563c3.172,2.309,4.215,1.354,4.215,1.354"/>
		<path id="path152_3_" style="fill:#0FB2D2;" d="M42.125,58.506c4.375-2.375,6.375-6.333,1.208-5.833
			c-4.774,0.462-7.22-2.333-7.22-2.333l-0.021-0.084H28.12L28.1,50.34c0,0-5.088,9.555,4.649,10.041
			C37.75,60.631,40.145,59.581,42.125,58.506z"/>
		<path id="path154_8_" style="fill:#008DD8;" d="M42.523,57.58c-1.98,1.074-4.375,2.125-9.375,1.875
			c-7.961-0.398-5.813-6.857-5.005-9.199H28.12L28.1,50.34c0,0-5.088,9.555,4.649,10.041c5,0.25,7.396-0.8,9.375-1.875
			c2.319-1.259,3.957-2.959,4.228-4.207C45.684,55.384,44.307,56.611,42.523,57.58z"/>
		<circle id="circle156" style="fill:#BEE7FB;" cx="36.424" cy="52.275" r="0.75"/>
		<circle id="circle158_2_" style="fill:#6CCEF5;" cx="35.199" cy="54.15" r="0.75"/>
		<circle id="circle160_2_" style="fill:#5FCBF5;" cx="37.6" cy="54.15" r="0.75"/>
		<circle id="circle162_2_" style="fill:#5FCBF5;" cx="42.396" cy="54.15" r="0.75"/>
		<circle id="circle164_3_" style="fill:#BEE7FB;" cx="39.998" cy="54.15" r="0.75"/>
		<path id="path166_1_" style="fill:none;stroke:#00833F;stroke-linecap:round;stroke-linejoin:round;stroke-miterlimit:10;" d="
			M45.938,53.688"/>
		<g id="g40_19_" transform="translate(-74.276687,-37.165726)">
			
				<radialGradient id="path34-7-5_1_" cx="478.0892" cy="-332.4163" r="32.8045" gradientTransform="matrix(0.9194 0 0 -1 -333.2414 -260.8326)" gradientUnits="userSpaceOnUse">
				<stop  offset="0" style="stop-color:#FDB913"/>
				<stop  offset="1" style="stop-color:#D63929"/>
			</radialGradient>
			<path id="path34-7-5_195_" style="fill:url(#path34-7-5_1_);" d="M109.804,79.66c0.248-0.322,0.494-1.664,0-1.934
				c-0.492-0.268-1.75-0.643-1.75-0.643c-1.129-0.378-2.277-0.378-3.404,0c0,0-1.259,0.375-1.752,0.643
				c-0.493,0.27-0.247,1.611,0,1.934c0,0,0.444,3.863-0.493,7.834c0,0,1.43,1.625,3.947,1.625c2.517,0,3.946-1.625,3.946-1.625
				C109.363,83.523,109.804,79.66,109.804,79.66z"/>
			
				<radialGradient id="path30-2_1_" cx="455.1761" cy="-333.3563" r="28.9381" gradientTransform="matrix(1 0 0 -1 -348.2773 -260.8326)" gradientUnits="userSpaceOnUse">
				<stop  offset="0" style="stop-color:#FDB913"/>
				<stop  offset="1" style="stop-color:#D63929"/>
			</radialGradient>
			<path id="path30-2_226_" style="fill:url(#path30-2_1_);" d="M111.045,79.748c0.669,1.04,3.573,4.441,5.073,3.473
				c1.117-0.268,0.949,0.914,0.949,0.914c1.145,1.683-0.386,1.623-1.033,2.093c-0.648,0.47-2.633-1.191-5.101-4.423
				c-2.469-3.228-1.541-4.157-1.541-4.157C110.463,77.231,110.469,78.852,111.045,79.748z"/>
			
				<radialGradient id="path30-2_2_" cx="-75.9992" cy="-333.3065" r="28.9348" gradientTransform="matrix(-1 0 0 -1 29.8503 -260.8326)" gradientUnits="userSpaceOnUse">
				<stop  offset="0" style="stop-color:#FDB913"/>
				<stop  offset="1" style="stop-color:#D63929"/>
			</radialGradient>
			<path id="path30-2_225_" style="fill:url(#path30-2_2_);" d="M103.355,77.595c0,0,0.927,0.932-1.541,4.158
				c-2.467,3.23-4.451,4.893-5.101,4.422c-0.648-0.469-2.177-0.41-1.033-2.092c0,0-0.169-1.182,0.949-0.914
				c1.5,0.969,4.405-2.433,5.074-3.473C102.28,78.802,102.286,77.181,103.355,77.595z"/>
			
				<radialGradient id="path38-2_1_" cx="454.723" cy="-339.5794" r="4.5941" gradientTransform="matrix(1 0 0 -1 -348.2773 -260.8326)" gradientUnits="userSpaceOnUse">
				<stop  offset="0" style="stop-color:#FDB913"/>
				<stop  offset="1" style="stop-color:#D63929"/>
			</radialGradient>
			<path id="path38-2_35_" style="fill:url(#path38-2_1_);" d="M108.509,75.615h-2.063h-2.061c0,0,0.747,0.693-0.096,1.818
				c0,0,0.781,0.779,2.156,0.779c1.375,0,2.158-0.779,2.158-0.779C107.761,76.308,108.509,75.615,108.509,75.615z"/>
		</g>
		<path id="path58-3-7_35_" style="fill:#C30D23;" d="M32.035,35.217c1.684-0.082,3.07-0.643,3.279-1.133
			c0.104-0.242,0.104-0.512-0.121-0.664c-0.228-0.15-0.537-0.1-0.697,0.115c-0.313,0.424-2.848,1.611-4.754,0.404
			c-0.229-0.146-0.457-0.176-0.611,0.045c-0.152,0.219,0.035,0.453,0.265,0.6C30.25,35.123,31.107,35.217,32.035,35.217z"/>
		<path id="path194" style="fill:#0FB2D2;" d="M32.075,51.953c2.516,0,3.946-1.625,3.946-1.625
			c-0.938-3.971-0.494-7.834-0.494-7.834c0.248-0.322,0.494-1.664,0-1.934c-0.385-0.209-1.226-0.479-1.58-0.592
			c-1.553,0.954-2.807,0.424-3.494-0.07c-0.026,0.008-0.054,0.011-0.08,0.02c0,0-1.259,0.375-1.752,0.643
			c-0.493,0.271-0.247,1.611,0,1.935c0,0,0.444,3.862-0.493,7.834C28.128,50.328,29.559,51.953,32.075,51.953z"/>
		<path id="path196_6_" style="fill:#1D2085;" d="M28.426,48.8c-0.079,0.503-0.176,1.015-0.297,1.528c0,0,1.43,1.625,3.947,1.625
			c2.516,0,3.945-1.625,3.945-1.625c-0.113-0.486-0.207-0.971-0.285-1.447C32.188,50.438,29.263,49.242,28.426,48.8z"/>
		<path id="path198_3_" style="fill:#1D2085;" d="M38.688,47.057c0.588,0.629,1.115,1.12,1.57,1.467
			c0.35-0.68,0.624-1.555,0.82-2.313c-0.459-0.049-0.971-0.303-1.479-0.665C39.309,46.072,38.979,46.604,38.688,47.057z"/>
		<path id="path200" style="fill:#1D2085;" d="M25.454,47.057c-0.588,0.629-1.116,1.12-1.571,1.467
			c-0.349-0.68-0.624-1.555-0.82-2.313c0.459-0.049,0.97-0.303,1.479-0.665C24.832,46.072,25.161,46.604,25.454,47.057z"/>
		<path id="path202_1_" style="fill:#231815;" d="M42.441,24.434c0,0,1.389,2.641,1.715,3.73c0,0,1.271-2.809,1.504-7.251
			c0.162-3.124,0.389-4.605-1.838-7.109C41.545,11.242,38.117,7.835,32,7.835c-6.12,0-9.545,3.407-11.822,5.969
			c-2.227,2.504-2.001,3.985-1.838,7.109c0.232,4.442,1.754,7.251,1.754,7.251c0.454-0.273,0.779-5.785,6.77-9.477
			C26.864,18.688,31.133,24.434,42.441,24.434z"/>
		
			<radialGradient id="path211_1_" cx="306" cy="-315.3984" r="12.19" gradientTransform="matrix(1 0 0 -1 -274 -298)" gradientUnits="userSpaceOnUse">
			<stop  offset="0" style="stop-color:#A36C55"/>
			<stop  offset="0.3871" style="stop-color:#783E31"/>
			<stop  offset="0.6026" style="stop-color:#61331F"/>
			<stop  offset="0.8698" style="stop-color:#4D2412"/>
			<stop  offset="1" style="stop-color:#401400"/>
		</radialGradient>
		<path id="path211_20_" style="fill:url(#path211_1_);" d="M42.441,23.833c0,0,1.389,2.641,1.715,3.73c0,0,1.471-2.809,1.703-7.251
			c0.162-3.124,0.188-4.605-2.037-7.109C41.545,10.641,38.117,7.234,32,7.234c-6.12,0-9.545,3.407-11.822,5.969
			c-2.227,2.504-2.201,3.985-2.038,7.109c0.232,4.442,1.954,7.251,1.954,7.251c0.454-0.273,0.779-5.785,6.77-9.477
			C26.864,18.087,31.133,23.833,42.441,23.833z"/>
	</g>
	<g id="Layer_1_40_">
	</g>
</g>
<g id="Layer_1">
</g>
</svg>
