<?xml version="1.0" encoding="utf-8"?>
<!-- Generator: Adobe Illustrator 15.0.2, SVG Export Plug-In . SVG Version: 6.00 Build 0)  -->
<!DOCTYPE svg PUBLIC "-//W3C//DTD SVG 1.1//EN" "http://www.w3.org/Graphics/SVG/1.1/DTD/svg11.dtd">
<svg version="1.1" id="レイヤー_1" xmlns="http://www.w3.org/2000/svg" xmlns:xlink="http://www.w3.org/1999/xlink" x="0px"
	 y="0px" width="64px" height="64px" viewBox="0 0 64 64" enable-background="new 0 0 64 64" xml:space="preserve">
<g>
	<g>
		<path fill="#FFFFFF" d="M54.629,15.861c0.342,0.431,0.171,0.784-0.379,0.784H13.281c-0.55,0-0.666-0.302-0.258-0.671l5.152-4.658
			c0.408-0.369,1.192-0.671,1.742-0.671H49.5c0.55,0,1.279,0.353,1.621,0.784L54.629,15.861z"/>
		
			<path fill="none" stroke="#0C0301" stroke-width="0.7374" stroke-linecap="round" stroke-linejoin="round" stroke-miterlimit="10" d="
			M54.629,15.861c0.342,0.431,0.171,0.784-0.379,0.784H13.281c-0.55,0-0.666-0.302-0.258-0.671l5.152-4.658
			c0.408-0.369,1.192-0.671,1.742-0.671H49.5c0.55,0,1.279,0.353,1.621,0.784L54.629,15.861z"/>
	</g>
	<circle fill="#0C0301" cx="18.406" cy="47.229" r="6.125"/>
	
		<path fill="#FFFFFF" stroke="#0C0301" stroke-width="0.7374" stroke-linecap="round" stroke-linejoin="round" stroke-miterlimit="10" d="
		M53.667,14.646H12.208l-5,17.083c0,0,0,10.333,0,13.25c0,1.082,1.125,2.25,1.125,2.25h2.855c0-3.97,3.218-7.188,7.188-7.188
		s7.188,3.219,7.188,7.188h13.041c0-3.97,3.219-7.188,7.188-7.188c3.97,0,7.188,3.219,7.188,7.188l3.813-0.584V31.729l-0.883-15.577
		L53.667,14.646z"/>
	<circle fill="#0C0301" cx="45.844" cy="47.229" r="6.125"/>
	<polygon fill="#308DB7" points="8.854,31.479 12.667,18.729 21,18.729 21,31.479 	"/>
	<g>
		<polygon fill="#308DB7" points="40.333,31.479 55.25,31.479 54.416,18.729 40.333,18.729 		"/>
		<rect x="22.75" y="18.729" fill="#308DB7" width="16" height="12.75"/>
	</g>
	<rect x="7.208" y="34.563" fill="#9E9E9E" width="49.584" height="3.916"/>
	<rect x="7.208" y="36.979" fill="#F2CF00" width="3.292" height="3"/>
	<rect x="54.75" y="33.52" fill="#EF0000" width="2.042" height="5.627"/>
	<polygon fill="none" stroke="#9E9E9E" stroke-width="0.5" stroke-miterlimit="10" points="39.719,39.646 36.583,43.146 
		27.083,43.146 21.917,39.646 21.917,16.646 39.719,16.646 	"/>
	
		<path fill="none" stroke="#0C0301" stroke-width="0.7374" stroke-linecap="round" stroke-linejoin="round" stroke-miterlimit="10" d="
		M53.667,14.646H12.208l-5,17.083c0,0,0,10.167,0,13.25c0.232,1.416,1.125,2.25,1.125,2.25h2.855c0-3.97,3.218-7.188,7.188-7.188
		s7.188,3.219,7.188,7.188h13.041c0-3.97,3.219-7.188,7.188-7.188c3.97,0,7.188,3.219,7.188,7.188l3.813-0.584V31.729L55.88,16.152
		L53.667,14.646z"/>
	<path fill="#090B0C" d="M14.203,27.229c-0.5-1.083-3.583-0.417-3.583-0.417l-1.766,2.114L7.44,30.937l1.414,0.542l0.929-1.223
		c0.58,0.253,1.754,0.561,2.837,0.056C13.87,29.729,14.703,28.312,14.203,27.229z"/>
	
		<circle fill="#C1C1C1" stroke="#0C0301" stroke-width="0.7374" stroke-linecap="round" stroke-linejoin="round" stroke-miterlimit="10" cx="18.406" cy="47.229" r="3.625"/>
	
		<circle fill="#C1C1C1" stroke="#0C0301" stroke-width="0.7374" stroke-linecap="round" stroke-linejoin="round" stroke-miterlimit="10" cx="45.844" cy="47.229" r="3.625"/>
</g>
</svg>
