<?xml version="1.0" encoding="utf-8"?>
<!-- Generator: Adobe Illustrator 15.0.0, SVG Export Plug-In . SVG Version: 6.00 Build 0)  -->
<!DOCTYPE svg PUBLIC "-//W3C//DTD SVG 1.1//EN" "http://www.w3.org/Graphics/SVG/1.1/DTD/svg11.dtd">
<svg version="1.1" id="レイヤー_1" xmlns="http://www.w3.org/2000/svg" xmlns:xlink="http://www.w3.org/1999/xlink" x="0px"
	 y="0px" width="64px" height="64px" viewBox="0 0 64 64" style="enable-background:new 0 0 64 64;" xml:space="preserve">
<g>
	<path style="fill:#009DE6;" d="M46.875,53.75c0,1.6503906-1.3496094,3-3,3h-23.75c-1.6499023,0-3-1.3496094-3-3v-43.5
		c0-1.6499023,1.3500977-3,3-3h23.75c1.6503906,0,3,1.3500977,3,3V53.75z"/>
	<g>
		<rect x="21.7563477" y="35.5" style="fill:#FFFFFF;" width="5.3232422" height="5"/>
		<rect x="29.3383789" y="35.5" style="fill:#FFFFFF;" width="5.3237305" height="5"/>
		<rect x="36.9199219" y="35.5" style="fill:#FFFFFF;" width="5.3242188" height="5"/>
	</g>
	<g>
		<rect x="21.7563477" y="42" style="fill:#FFFFFF;" width="5.3232422" height="5"/>
		<rect x="29.3383789" y="42" style="fill:#FFFFFF;" width="5.3237305" height="5"/>
		<rect x="36.9199219" y="42" style="fill:#FFFFFF;" width="5.3242188" height="5"/>
	</g>
	<rect x="20.6875" y="12.375" style="fill:#FFFFFF;" width="22.625" height="21.25"/>
	<g>
		<rect x="21.7563477" y="48.625" style="fill:#FFFFFF;" width="5.3232422" height="5"/>
		<rect x="29.3383789" y="48.625" style="fill:#FFFFFF;" width="5.3237305" height="5"/>
		<rect x="36.9199219" y="48.625" style="fill:#FFFFFF;" width="5.3242188" height="5"/>
	</g>
	<g>
		<path style="fill:#FF9FBF;" d="M24.8798828,33.5976563c0,2.2207031-0.6240234,4.0029297-1.8720703,5.3466797
			c-1.2963867,1.3925781-3.0488281,2.0888672-5.2568359,2.0888672c-2.1845703,0-3.9428711-0.6962891-5.2749023-2.0888672
			c-1.3081055-1.3798828-1.9624023-3.1621094-1.9624023-5.3466797c0-2.1962891,0.6479492-3.9785156,1.9443359-5.3466797
			c1.3081055-1.355957,3.0541992-2.0341797,5.2387695-2.0341797c2.1484375,0,3.8945313,0.6962891,5.2387695,2.0883789
			C24.2319336,29.6728516,24.8798828,31.4375,24.8798828,33.5976563z M20.4692383,33.7060547
			c0-0.9960938-0.2158203-1.8183594-0.6479492-2.4667969c-0.4921875-0.7197266-1.1884766-1.0800781-2.0883789-1.0800781
			c-0.9360352,0-1.6503906,0.3544922-2.1425781,1.0625c-0.4438477,0.6240234-0.6660156,1.4521484-0.6660156,2.484375
			c0,0.9960938,0.2280273,1.7880859,0.684082,2.3759766c0.4799805,0.6484375,1.1884766,0.9726563,2.1245117,0.9726563
			C19.5571289,37.0546875,20.4692383,35.9384766,20.4692383,33.7060547z"/>
		<path style="fill:#FF9FBF;" d="M39.2822266,28.4853516c0,0.6357422-0.1923828,1.1220703-0.5761719,1.4580078
			c-0.3720703,0.3359375-0.8759766,0.5039063-1.5126953,0.5039063h-6.2104492c-0.2880859,0-0.4321289,0.0722656-0.4321289,0.2158203
			v1.7109375h5.796875c0.5761719,0,1.0507813,0.1796875,1.421875,0.5400391
			c0.3730469,0.359375,0.5585938,0.828125,0.5585938,1.4042969c0,0.6240234-0.1855469,1.1103516-0.5585938,1.4580078
			c-0.3710938,0.3359375-0.8632813,0.5039063-1.4765625,0.5039063h-5.7421875v2.4121094
			c0,0.6845703-0.1918945,1.2363281-0.5761719,1.65625c-0.4082031,0.4560547-0.9541016,0.6845703-1.6381836,0.6845703
			c-0.7202148,0-1.2602539-0.2158203-1.6201172-0.6484375c-0.3603516-0.4316406-0.5400391-0.9960938-0.5400391-1.6923828v-9.6494141
			c0-1.6679688,0.894043-2.5019531,2.6821289-2.5019531h8.3896484c0.6113281,0,1.1035156,0.1738281,1.4755859,0.5219727
			C39.0957031,27.387207,39.2822266,27.8608398,39.2822266,28.4853516z"/>
		<path style="fill:#FF9FBF;" d="M53.4863281,28.4853516c0,0.6357422-0.1923828,1.1220703-0.5761719,1.4580078
			c-0.3720703,0.3359375-0.8759766,0.5039063-1.5117188,0.5039063H45.1875c-0.2880859,0-0.4326172,0.0722656-0.4326172,0.2158203
			v1.7109375h5.796875c0.5761719,0,1.0498047,0.1796875,1.421875,0.5400391
			c0.3720703,0.359375,0.5585938,0.828125,0.5585938,1.4042969c0,0.6240234-0.1865234,1.1103516-0.5585938,1.4580078
			c-0.3720703,0.3359375-0.8632813,0.5039063-1.4755859,0.5039063h-5.7431641v2.4121094
			c0,0.6845703-0.1923828,1.2363281-0.5761719,1.65625c-0.4082031,0.4560547-0.9541016,0.6845703-1.6376953,0.6845703
			c-0.7207031,0-1.2607422-0.2158203-1.6210938-0.6484375c-0.359375-0.4316406-0.5400391-0.9960938-0.5400391-1.6923828v-9.6494141
			c0-1.6679688,0.8945313-2.5019531,2.6826172-2.5019531h8.3896484c0.6123047,0,1.1044922,0.1738281,1.4765625,0.5219727
			C53.3007813,27.387207,53.4863281,27.8608398,53.4863281,28.4853516z"/>
	</g>
</g>
</svg>
