<?xml version="1.0" encoding="utf-8"?>
<!-- Generator: Adobe Illustrator 15.0.2, SVG Export Plug-In . SVG Version: 6.00 Build 0)  -->
<!DOCTYPE svg PUBLIC "-//W3C//DTD SVG 1.1//EN" "http://www.w3.org/Graphics/SVG/1.1/DTD/svg11.dtd">
<svg version="1.1" id="レイヤー_1" xmlns="http://www.w3.org/2000/svg" xmlns:xlink="http://www.w3.org/1999/xlink" x="0px"
	 y="0px" width="64px" height="64px" viewBox="0 0 64 64" enable-background="new 0 0 64 64" xml:space="preserve">
<g>
	<linearGradient id="SVGID_1_" gradientUnits="userSpaceOnUse" x1="8.1147" y1="40.6699" x2="8.1147" y2="75.766">
		<stop  offset="0" style="stop-color:#111111"/>
		<stop  offset="0.1282" style="stop-color:#5B5B5B"/>
		<stop  offset="0.2614" style="stop-color:#A1A1A1"/>
		<stop  offset="0.3728" style="stop-color:#D4D4D4"/>
		<stop  offset="0.4565" style="stop-color:#F3F3F3"/>
		<stop  offset="0.503" style="stop-color:#FFFFFF"/>
	</linearGradient>
	<rect x="4.407" y="46.004" fill="url(#SVGID_1_)" stroke="#595959" stroke-miterlimit="10" width="7.417" height="20.666"/>
	<linearGradient id="SVGID_2_" gradientUnits="userSpaceOnUse" x1="32.4175" y1="40.6699" x2="32.4175" y2="75.766">
		<stop  offset="0" style="stop-color:#111111"/>
		<stop  offset="0.1282" style="stop-color:#5B5B5B"/>
		<stop  offset="0.2614" style="stop-color:#A1A1A1"/>
		<stop  offset="0.3728" style="stop-color:#D4D4D4"/>
		<stop  offset="0.4565" style="stop-color:#F3F3F3"/>
		<stop  offset="0.503" style="stop-color:#FFFFFF"/>
	</linearGradient>
	<rect x="28.709" y="46.004" fill="url(#SVGID_2_)" stroke="#595959" stroke-miterlimit="10" width="7.417" height="20.666"/>
	<linearGradient id="SVGID_3_" gradientUnits="userSpaceOnUse" x1="56.7188" y1="40.6699" x2="56.7188" y2="75.766">
		<stop  offset="0" style="stop-color:#111111"/>
		<stop  offset="0.1282" style="stop-color:#5B5B5B"/>
		<stop  offset="0.2614" style="stop-color:#A1A1A1"/>
		<stop  offset="0.3728" style="stop-color:#D4D4D4"/>
		<stop  offset="0.4565" style="stop-color:#F3F3F3"/>
		<stop  offset="0.503" style="stop-color:#FFFFFF"/>
	</linearGradient>
	<rect x="53.011" y="46.004" fill="url(#SVGID_3_)" stroke="#595959" stroke-miterlimit="10" width="7.416" height="20.666"/>
	<linearGradient id="SVGID_4_" gradientUnits="userSpaceOnUse" x1="33.792" y1="32.6704" x2="33.792" y2="52.6011">
		<stop  offset="0" style="stop-color:#111111"/>
		<stop  offset="0.1282" style="stop-color:#5B5B5B"/>
		<stop  offset="0.2614" style="stop-color:#A1A1A1"/>
		<stop  offset="0.3728" style="stop-color:#D4D4D4"/>
		<stop  offset="0.4565" style="stop-color:#F3F3F3"/>
		<stop  offset="0.503" style="stop-color:#FFFFFF"/>
	</linearGradient>
	<rect x="-5.417" y="36.422" fill="url(#SVGID_4_)" stroke="#595959" stroke-miterlimit="10" width="78.417" height="11.665"/>
	<rect x="-6.083" y="43.137" fill="#595959" width="83" height="1.383"/>
	<rect x="-7.083" y="38.381" fill="#595959" width="85.667" height="1.146"/>
	<circle fill="#232323" cx="41.013" cy="40.471" r="4.049"/>
	<circle fill="#232323" cx="59.638" cy="40.471" r="4.049"/>
	<rect x="42.188" y="40.471" fill="#232323" width="17.451" height="1.826"/>
	<rect x="40.531" y="38.381" fill="#232323" width="9.906" height="3.002"/>
	<rect x="34.813" y="37.672" fill="#232323" width="4.063" height="3.711"/>
	<linearGradient id="SVGID_5_" gradientUnits="userSpaceOnUse" x1="34.0498" y1="16.8267" x2="41.175" y2="44.7024">
		<stop  offset="0" style="stop-color:#FFFFFF"/>
		<stop  offset="1" style="stop-color:#BFDBFF"/>
	</linearGradient>
	<path fill="url(#SVGID_5_)" stroke="#000000" stroke-miterlimit="10" d="M64.313,3.546c0,0-13.375,0-24.202,1.993
		c-3.319,0.611-9.923,8.257-9.923,8.257s-26.75,8-26.75,14.625c0,4.625,13.125,8.75,13.125,8.75h47.75V3.546z"/>
	<linearGradient id="SVGID_6_" gradientUnits="userSpaceOnUse" x1="46.1133" y1="5.9482" x2="39.7383" y2="12.8232">
		<stop  offset="0" style="stop-color:#5FCEFF"/>
		<stop  offset="1" style="stop-color:#1F72FF"/>
	</linearGradient>
	<polygon fill="url(#SVGID_6_)" stroke="#231815" stroke-miterlimit="10" points="37.475,7.044 48.688,7.044 49.438,11.671 
		38.875,13.171 30.784,13.171 	"/>
	<polyline fill="none" stroke="#2497FF" stroke-miterlimit="10" points="8.05,33.424 29.853,28.688 44.928,23 64.438,18.5 	"/>
	<path fill="#2497FF" d="M10.56,34.797l20.224-4.5l15.154-5.125l18.375-4.125v13.75c0,0-29.75,0-33.25,0
		c-3.346,1.625-14.5,2.375-14.5,2.375L10.56,34.797z"/>
	<path fill="none" stroke="#000000" stroke-miterlimit="10" d="M64.313,3.546c0,0-13.375,0-24.202,1.993
		c-3.319,0.611-9.923,8.257-9.923,8.257s-26.75,8-26.75,14.625c0,4.625,13.125,8.75,13.125,8.75h47.75V3.546z"/>
	<g>
		<path fill="#F5F5F5" d="M62.042,29.964c0,1.201-0.982,2.184-2.184,2.184h-2.836c-1.201,0-2.184-0.982-2.184-2.184V17.956
			c0-1.201,0.982-2.183,2.184-2.183h2.836c1.201,0,2.184,0.982,2.184,2.183V29.964z"/>
		<path fill="none" stroke="#000000" stroke-width="0.8" stroke-miterlimit="10" d="M62.042,29.964c0,1.201-0.982,2.184-2.184,2.184
			h-2.836c-1.201,0-2.184-0.982-2.184-2.184V17.956c0-1.201,0.982-2.183,2.184-2.183h2.836c1.201,0,2.184,0.982,2.184,2.183V29.964z
			"/>
	</g>
	<path fill="#2497FF" stroke="#000000" stroke-miterlimit="10" d="M16.563,37.172l-3.125,5.125h19.5c0,0,3.125-4,6.25-4
		s25.125,0,25.125,0v-3.5h-33.25C31.063,34.797,27.563,37.172,16.563,37.172z"/>
	<polygon fill="none" stroke="#969696" stroke-width="0.9259" stroke-miterlimit="10" points="48.688,7.044 60.713,7.044 
		62.563,8.553 49.381,11.796 	"/>
	<polygon opacity="0.46" fill="#FFFFFF" points="42.188,7.044 48.688,7.044 49.438,11.671 38.875,13.171 	"/>
	<polygon fill="none" stroke="#000000" stroke-miterlimit="10" points="37.475,7.044 48.688,7.044 49.438,11.671 38.875,13.171 
		30.784,13.171 	"/>
	<line fill="none" stroke="#000000" stroke-miterlimit="10" x1="42.188" y1="7.044" x2="38.875" y2="13.171"/>
	<g>
		<path fill="#969696" d="M16.485,25.963c0,0.526,0,0.95-2.963,0.95c-1.636,0-2.963-0.424-2.963-0.95s1.327-0.952,2.963-0.952
			C16.485,25.011,16.485,25.437,16.485,25.963z"/>
	</g>
	<linearGradient id="SVGID_7_" gradientUnits="userSpaceOnUse" x1="50.168" y1="6.1792" x2="62.159" y2="26.7353">
		<stop  offset="0" style="stop-color:#FFFFFF"/>
		<stop  offset="1" style="stop-color:#000000"/>
	</linearGradient>
	<rect x="56.222" y="17.757" fill="url(#SVGID_7_)" width="4.437" height="5.203"/>
</g>
</svg>
