<?xml version="1.0" encoding="utf-8"?>
<!-- Generator: Adobe Illustrator 16.0.0, SVG Export Plug-In . SVG Version: 6.00 Build 0)  -->
<!DOCTYPE svg PUBLIC "-//W3C//DTD SVG 1.1//EN" "http://www.w3.org/Graphics/SVG/1.1/DTD/svg11.dtd">
<svg version="1.1" id="Layer_27" xmlns="http://www.w3.org/2000/svg" xmlns:xlink="http://www.w3.org/1999/xlink" x="0px" y="0px"
	 width="64px" height="64px" viewBox="0 0 64 64" enable-background="new 0 0 64 64" xml:space="preserve">
<path fill-rule="evenodd" clip-rule="evenodd" fill="#B3E4FA" d="M5.542,15.307c2.869-2.629,12.016-4.185,15.354-4.209
	C34.583,11,52.562,16.79,38.094,18.056C23.627,19.323,0.647,19.791,5.542,15.307z"/>
<path fill-rule="evenodd" clip-rule="evenodd" fill="#CFEDFB" d="M14.187,14.84c1.563-1.432,6.543-2.279,8.361-2.292
	c7.454-0.053,17.245,3.099,9.366,3.789C24.036,17.027,11.522,17.281,14.187,14.84z"/>
<path fill-rule="evenodd" clip-rule="evenodd" fill="#B3E4FA" d="M39.078,23.171c1.547-1.417,6.477-2.256,8.275-2.269
	c7.379-0.053,17.07,3.068,9.271,3.75C48.826,25.336,36.439,25.588,39.078,23.171z"/>
<path fill-rule="evenodd" clip-rule="evenodd" fill="none" stroke="#595757" stroke-width="2" stroke-linecap="round" stroke-linejoin="round" stroke-miterlimit="10" d="
	M3.228,45.4c0,0,3.729-7.232,5.683-10.566c1.954-3.334,4.439-6,5.505-7.5c0,0,1.775,2.833,2.664,4.333c0,0,4.971-6.333,5.682-7.333
	c0,0,2.485,2.167,3.196,3.333c0.475,0.779,3.907-4.833,5.328-7c1.42-2.167,3.951-3.236,4.439-4c0.692-1.083,4.439-5,4.439-5
	S47.623,24,48.865,25.833c0,0,1.775-1.833,2.13-2.333s2.31,4.167,4.794,7.667c2.486,3.5,5.149,14.201,5.149,14.201L3.228,45.4z"/>
<path fill-rule="evenodd" clip-rule="evenodd" fill="#868686" d="M3.228,45.4c0,0,3.729-7.232,5.683-10.566
	c1.954-3.334,4.439-6,5.505-7.5c0,0,1.775,2.833,2.664,4.333c0,0,4.971-6.333,5.682-7.333c0,0,2.485,2.167,3.196,3.333
	c0.475,0.779,3.907-4.833,5.328-7c1.42-2.167,4.082-3.167,4.439-4c0.354-0.833,4.439-5,4.439-5S47.623,24,48.865,25.833
	c0,0,1.775-1.833,2.13-2.333s2.31,4.167,4.794,7.667c2.486,3.5,5.149,14.201,5.149,14.201L3.228,45.4z"/>
<path fill-rule="evenodd" clip-rule="evenodd" fill="#8C9394" d="M22,42.5c0.667-3.333,2.167-6.5,2-8.333
	c-0.167-1.833-0.333-4.166-1.833-1S20,38.333,18.5,40.333s-2.5,4.666-1.5,4.5S22,42.5,22,42.5z"/>
<path fill-rule="evenodd" clip-rule="evenodd" fill="#8C9394" d="M40.633,27.167c0,0,1,3.333,1.833,6.167s1.334,6.333,1.167,8
	S39.8,42,38.633,42s-4.168,3.167-3.334,0s2.501-9,2.834-11.333S39.132,27,39.799,25.5S40.633,27.167,40.633,27.167z"/>
<path fill-rule="evenodd" clip-rule="evenodd" fill="#8C9394" d="M25.939,40.108l4.133,4.839c0,0,3.152-1.043,2.089-3.179
	c-0.866-1.74-1.12-2.764-2.572-5.552c-0.926-1.779-1.719-3.647-2.458-4.876c-0.739-1.228-1.758-3.147-1.482-0.283
	C25.925,33.922,26.026,34.765,25.939,40.108z"/>
<path fill-rule="evenodd" clip-rule="evenodd" fill="#8C9394" d="M54.495,43.269c-0.866-1.74-1.12-2.764-2.572-5.552
	c-0.927-1.779-1.719-3.647-2.458-4.876c-0.74-1.228-1.758-3.147-1.482-0.283s0.377,3.707,0.291,9.051l3.216,3.765l2.667-0.001
	C54.646,44.857,54.938,44.159,54.495,43.269z"/>
<path fill-rule="evenodd" clip-rule="evenodd" fill="#8C9394" d="M59.781,41.174c-1.169-1.486-4.113-5.682-5.021-6.683
	c-0.965-1.062-2.834-2.874-2.01-0.116c0.791,2.646,3.446,6.278,4.309,10.995l3.88-0.002C60.938,45.368,60.486,43.553,59.781,41.174z
	"/>
<path fill-rule="evenodd" clip-rule="evenodd" fill="#A6C2CA" d="M48.588,25.41c-1.739-2.696-7.934-12.93-8.395-13.694
	c0.429,1.763,2.64,5.618,3.807,7.951c1.7,3.399,6.756,12.334,8,14.167C52.696,34.861,50.609,29.859,48.588,25.41z"/>
<linearGradient id="SVGID_1_" gradientUnits="userSpaceOnUse" x1="21.9023" y1="12.7051" x2="39.5712" y2="26.5395">
	<stop  offset="0.0056" style="stop-color:#668B9D"/>
	<stop  offset="0.2463" style="stop-color:#60818E"/>
	<stop  offset="0.7085" style="stop-color:#567177"/>
	<stop  offset="1" style="stop-color:#536B6F"/>
</linearGradient>
<path fill-rule="evenodd" clip-rule="evenodd" fill="url(#SVGID_1_)" d="M29.153,32.25c1.243,2.833,2.22,3.084,2.22,3.084
	l2.131-3.417c0.621-1.833,3.375-4.417,3.375-4.417s1.953-5.5,2.397-7.5c0.376-1.693,0.749-6.779,0.856-8.302
	c-0.314,0.321-4.067,4.17-4.408,4.969c-0.357,0.833-3.02,1.833-4.439,4c-1.421,2.167-4.853,7.779-5.328,7
	C25.958,27.667,27.911,29.417,29.153,32.25z"/>
<linearGradient id="SVGID_2_" gradientUnits="userSpaceOnUse" x1="3.6411" y1="33.0957" x2="27.8077" y2="37.5957">
	<stop  offset="0.0056" style="stop-color:#668B9D"/>
	<stop  offset="0.2463" style="stop-color:#60818E"/>
	<stop  offset="0.7085" style="stop-color:#567177"/>
	<stop  offset="1" style="stop-color:#536B6F"/>
</linearGradient>
<path fill-rule="evenodd" clip-rule="evenodd" fill="url(#SVGID_2_)" d="M9.887,41.167c0.977-1.25,7.096-3.284,7.947-4.667
	c1.333-2.167,4.128-6.583,4.661-8.75c0.301-1.224,0.373-2.459,0.38-3.316c-0.072-0.064-0.114-0.101-0.114-0.101
	c-0.711,1-5.682,7.333-5.682,7.333c-0.889-1.5-2.664-4.333-2.664-4.333c-1.066,1.5-3.551,4.167-5.505,7.5
	c-1.873,3.195-5.368,9.955-5.655,10.512C5.425,44.17,9.198,42.049,9.887,41.167z"/>
<path fill-rule="evenodd" clip-rule="evenodd" fill="#536B6F" d="M42.357,22.837c-0.051,0.245-0.004,4.331,0.457,6.029
	c0.458,1.698,1.855,2.806,2.415,4.013c0.562,1.209,1.315,2.368,1.315,2.368s-0.24-3.612-0.188-3.858
	C46.408,31.144,42.357,22.837,42.357,22.837z"/>
<path fill-rule="evenodd" clip-rule="evenodd" fill="#548148" d="M52.118,40.396c0,0-0.538-0.574-1.321-1.002
	c-0.785-0.43-1.183-0.217-1.889-0.102c-0.706,0.118,1.352,1.362,2.338,1.459C52.229,40.848,52.118,40.396,52.118,40.396z"/>
<path fill-rule="evenodd" clip-rule="evenodd" fill="#548148" d="M55.385,42.18c0,0-0.395-0.506-0.967-0.883
	c-0.575-0.38-0.867-0.191-1.383-0.09c-0.518,0.104,0.988,1.201,1.711,1.287C55.466,42.578,55.385,42.18,55.385,42.18z"/>
<path fill-rule="evenodd" clip-rule="evenodd" fill="#548148" d="M20.507,42.595c0,0-0.585-0.262-1.268-0.325
	c-0.687-0.066-0.855,0.238-1.263,0.57c-0.409,0.334,1.436,0.596,2.114,0.332C20.766,42.908,20.507,42.595,20.507,42.595z"/>
<path fill-rule="evenodd" clip-rule="evenodd" fill="#548148" d="M59.643,43.95c0,0-0.585-0.262-1.268-0.325
	c-0.687-0.066-0.855,0.238-1.263,0.57c-0.409,0.334,1.436,0.596,2.114,0.332C59.901,44.264,59.643,43.95,59.643,43.95z"/>
<path fill-rule="evenodd" clip-rule="evenodd" fill="#548148" d="M60.938,45.368c0,0-0.008-0.028-0.017-0.069
	c-2.551-1.665-5.766-2.697-6.421-3.049c-0.932-0.5-2.108-0.203-4.927-2.583c-2.664-2.25-5.859-3.167-8.524-3
	c-1.726,0.108-4.794,2-4.794,2s-2.396,1.708-2.93,2.208s-3.996,2.625-4.35,0.959c-0.318-1.491-2.22-2.167-3.019-2.167
	c-0.799,0-4.085,1.333-5.683,2.833c-0.86,0.807-1.824,1.915-3.449,2.893L60.938,45.368z"/>
<path fill-rule="evenodd" clip-rule="evenodd" fill="#456D3B" d="M4.811,45.398l9.249-0.004c1.242-1.177,2.131-2.895,1.554-3.77
	c-0.635-0.963-3.063-0.082-4.75,0.709C8.847,43.279,7.099,44.097,4.811,45.398z"/>
<path fill-rule="evenodd" clip-rule="evenodd" fill="#456D3B" d="M20.431,45.391c1.47-1.196,3.36-2.772,5.171-4.391
	c0.472-0.421,0.848-0.821,1.143-1.195c-0.304-0.092-0.583-0.138-0.787-0.138c-0.799,0-4.085,1.333-5.683,2.833
	c-0.86,0.807-4.59,1.915-6.215,2.893L20.431,45.391z"/>
<path fill-rule="evenodd" clip-rule="evenodd" fill="#A6C2CA" d="M56,34.334c0.326,0.57,1.448,1.776,2.51,2.861
	c-0.832-2.393-1.789-4.716-2.721-6.028c-1.828-2.575-3.366-5.774-4.194-7.09C52.991,27.443,55.522,33.498,56,34.334z"/>
<path fill-rule="evenodd" clip-rule="evenodd" fill="#6EAF71" d="M42.5,38.75c0,0,1.167,2.082,3.167,3.916s3.333,1.5,5.5,1.667
	s-2.999-5-5.833-6S42.5,38.75,42.5,38.75z"/>
<path fill-rule="evenodd" clip-rule="evenodd" fill="#548148" d="M14.8,42.551c0,0-0.773,0.144-1.557,0.571
	c-0.785,0.429-0.821,0.878-1.106,1.535c-0.281,0.658,1.877-0.401,2.491-1.18C15.24,42.702,14.8,42.551,14.8,42.551z"/>
<path fill-rule="evenodd" clip-rule="evenodd" fill="#548148" d="M32.967,39.384c0,0-0.774,0.144-1.557,0.571
	c-0.785,0.429-0.821,0.878-1.106,1.535c-0.281,0.658,1.877-0.401,2.491-1.18C33.406,39.535,32.967,39.384,32.967,39.384z"/>
<path fill-rule="evenodd" clip-rule="evenodd" fill="#456D3B" d="M37.083,38.025c0,0-0.784,0.061-1.608,0.402
	c-0.827,0.342-0.911,0.784-1.265,1.407c-0.35,0.625,1.909-0.198,2.604-0.906C37.504,38.223,37.083,38.025,37.083,38.025z"/>
<path fill-rule="evenodd" clip-rule="evenodd" fill="#6EAF71" d="M52.684,42.691c0,0,0.772,0.982,1.615,1.756
	c0.844,0.773,1.405,0.633,2.318,0.703c0.914,0.07-1.264-2.107-2.459-2.529C52.964,42.199,52.684,42.691,52.684,42.691z"/>
<path fill-rule="evenodd" clip-rule="evenodd" fill="#456D3B" d="M36.256,38.667c0,0-2.396,1.708-2.93,2.208
	c-0.258,0.242-1.201,0.861-2.146,1.251c-1.773,1.185-3.768,2.345-5.422,3.262l6.992-0.005c2.716-1.614,3.875-3.633,3.875-3.633
	c2.296-3.002,4.836-4.627,5.02-5.09c-0.199,0.001-0.4-0.005-0.595,0.007c-0.282,0.11-0.561,0.149-0.842,0.156
	C38.481,37.297,36.256,38.667,36.256,38.667z"/>
<path fill-rule="evenodd" clip-rule="evenodd" fill="#8C9394" d="M40.965,16.232c0,0,0.187,1.854,0.73,3.402
	c0.547,1.549,2.342,4.199,2.342,4.199S44.262,21.009,40.965,16.232z"/>
<path fill-rule="evenodd" clip-rule="evenodd" fill="#868686" d="M16.867,34.667c0,0-1.266,2.399-3.933,4.9
	c-2.667,2.5-0.934-1.233,0.667-2.333C16.665,35.129,16.867,34.667,16.867,34.667z"/>
<path fill-rule="evenodd" clip-rule="evenodd" fill="#868686" d="M36.65,23.764c1.25-1.036-1.105,2.072-2.196,3.824
	c-1.091,1.752-2.364,2.257-2.519,2.359c-0.154,0.102,1.33-2.424,1.33-2.424S34.898,25.215,36.65,23.764z"/>
<path fill-rule="evenodd" clip-rule="evenodd" fill="#868686" d="M38,13.867c0,0-0.5,2-1.833,4.833s-2.667,4.833-3.5,6.333
	c-0.833,1.5,1.167-4.167,1.167-4.167l1.891-4L38,13.867z"/>
<path fill-rule="evenodd" clip-rule="evenodd" fill="#868686" d="M14.167,30.034c0,0,0,1.333-1.667,4.83
	c-1.667,3.5,2.5-0.834,2.5-0.834l0.667-1.996l-1-2.833L14.167,30.034z"/>
</svg>
