<?xml version="1.0" encoding="utf-8"?>
<!-- Generator: Adobe Illustrator 15.0.2, SVG Export Plug-In . SVG Version: 6.00 Build 0)  -->
<!DOCTYPE svg PUBLIC "-//W3C//DTD SVG 1.1//EN" "http://www.w3.org/Graphics/SVG/1.1/DTD/svg11.dtd">
<svg version="1.1" id="レイヤー_1" xmlns="http://www.w3.org/2000/svg" xmlns:xlink="http://www.w3.org/1999/xlink" x="0px"
	 y="0px" width="64px" height="64px" viewBox="0 0 64 64" enable-background="new 0 0 64 64" xml:space="preserve">
<polygon fill="#661222" points="9.333,35.667 8.167,29.833 18.667,19.167 46,22.581 55.167,31.666 46.333,38 "/>
<linearGradient id="SVGID_1_" gradientUnits="userSpaceOnUse" x1="17.8975" y1="24.9985" x2="52.2147" y2="26.0599">
	<stop  offset="0" style="stop-color:#9C9C9C"/>
	<stop  offset="0.0142" style="stop-color:#A9A9A9"/>
	<stop  offset="0.0497" style="stop-color:#C4C4C4"/>
	<stop  offset="0.0905" style="stop-color:#DADADA"/>
	<stop  offset="0.1381" style="stop-color:#EBEBEB"/>
	<stop  offset="0.197" style="stop-color:#F6F6F6"/>
	<stop  offset="0.2797" style="stop-color:#FDFDFD"/>
	<stop  offset="0.5091" style="stop-color:#FFFFFF"/>
	<stop  offset="0.6532" style="stop-color:#FDFDFD"/>
	<stop  offset="0.7265" style="stop-color:#F5F5F5"/>
	<stop  offset="0.7838" style="stop-color:#E8E8E8"/>
	<stop  offset="0.8329" style="stop-color:#D5D5D5"/>
	<stop  offset="0.8766" style="stop-color:#BCBCBC"/>
	<stop  offset="0.9166" style="stop-color:#9E9E9E"/>
	<stop  offset="0.9537" style="stop-color:#7A7A7A"/>
	<stop  offset="0.9876" style="stop-color:#525252"/>
	<stop  offset="1" style="stop-color:#414141"/>
</linearGradient>
<path fill="url(#SVGID_1_)" d="M12.833,24.991c0,0,11.146,4.919,19.284,4.919s21.407-3.876,21.407-3.876l-10.438-4.55l-20.345-0.818
	L12.833,24.991z"/>
<linearGradient id="SVGID_2_" gradientUnits="userSpaceOnUse" x1="28.4619" y1="12.6665" x2="32.6284" y2="33.6665">
	<stop  offset="0" style="stop-color:#FF9FB0"/>
	<stop  offset="0.2186" style="stop-color:#FF7D94"/>
	<stop  offset="0.5773" style="stop-color:#FF4A6A"/>
	<stop  offset="0.849" style="stop-color:#FF2B51"/>
	<stop  offset="1" style="stop-color:#FF1F47"/>
</linearGradient>
<path fill="url(#SVGID_2_)" stroke="#BC001B" stroke-miterlimit="10" d="M3.426,29.167c1.833-4.219,8.689-12.639,16.023-16.472
	s9.811,3.021,12.811,3.021c3,0,7.528-7.002,13.668-2.384c6.28,4.723,15.503,15.396,15.003,16.896s-3.035,5.341-8.701,2.007
	s-7.124-7.073-10.946-6.852C38.5,25.544,38,27.667,32,27.667c-6.5,0-7.711-3.631-11.878-2.606S8.679,34.47,5.913,33.563
	C3.881,32.897,2.297,31.763,3.426,29.167z"/>
<linearGradient id="SVGID_3_" gradientUnits="userSpaceOnUse" x1="32.0557" y1="35.5488" x2="34.3892" y2="57.8818">
	<stop  offset="0" style="stop-color:#FF9FB0"/>
	<stop  offset="0.2186" style="stop-color:#FF7D94"/>
	<stop  offset="0.5773" style="stop-color:#FF4A6A"/>
	<stop  offset="0.849" style="stop-color:#FF2B51"/>
	<stop  offset="1" style="stop-color:#FF1F47"/>
</linearGradient>
<path fill="url(#SVGID_3_)" stroke="#BC001B" stroke-miterlimit="10" d="M5.885,32.888c10.333-3.5,16.333,1.668,27,1.334
	s14.833-4.167,25.167-1.751c3.644,0.852,1.747,5.584-1.834,9.047c-2.797,2.705-14.5,7.87-23.333,7.87
	c-8.833,0-22.333-5-25.833-8.666C4.679,38.236,2.14,34.156,5.885,32.888z"/>
</svg>
