<?xml version="1.0" encoding="UTF-8" standalone="no"?>
<!-- Generator: Adobe Illustrator 15.0.0, SVG Export Plug-In . SVG Version: 6.00 Build 0)  -->

<svg
   xmlns:dc="http://purl.org/dc/elements/1.1/"
   xmlns:cc="http://creativecommons.org/ns#"
   xmlns:rdf="http://www.w3.org/1999/02/22-rdf-syntax-ns#"
   xmlns:svg="http://www.w3.org/2000/svg"
   xmlns="http://www.w3.org/2000/svg"
   xmlns:sodipodi="http://sodipodi.sourceforge.net/DTD/sodipodi-0.dtd"
   xmlns:inkscape="http://www.inkscape.org/namespaces/inkscape"
   version="1.1"
   id="レイヤー_1"
   x="0px"
   y="0px"
   width="64px"
   height="64px"
   viewBox="0 0 64 64"
   style="enable-background:new 0 0 64 64;"
   xml:space="preserve"
   inkscape:version="0.48.4 r9939"
   sodipodi:docname="musical_keyboard.svg"><metadata
     id="metadata70"><rdf:RDF><cc:Work
         rdf:about=""><dc:format>image/svg+xml</dc:format><dc:type
           rdf:resource="http://purl.org/dc/dcmitype/StillImage" /></cc:Work></rdf:RDF></metadata><defs
     id="defs68" /><sodipodi:namedview
     pagecolor="#ffffff"
     bordercolor="#666666"
     borderopacity="1"
     objecttolerance="10"
     gridtolerance="10"
     guidetolerance="10"
     inkscape:pageopacity="0"
     inkscape:pageshadow="2"
     inkscape:window-width="640"
     inkscape:window-height="480"
     id="namedview66" /><g
     id="g3"><g
       id="g5"><path
         style="fill:#FFFFFF;"
         d="M18.375,53.6875c0,0.5498047-0.4501953,1-1,1H5.75c-0.5498047,0-1-0.4501953-1-1v-43.375    c0-0.5498047,0.4501953-1,1-1h11.625c0.5498047,0,1,0.4501953,1,1V53.6875z"
         id="path7" /><path
         d="M17.375,55.1875H5.75c-0.8271484,0-1.5-0.6728516-1.5-1.5v-43.375c0-0.8271484,0.6728516-1.5,1.5-1.5h11.625    c0.8271484,0,1.5,0.6728516,1.5,1.5v43.375C18.875,54.5146484,18.2021484,55.1875,17.375,55.1875z M5.75,9.8125    c-0.2758789,0-0.5,0.2241211-0.5,0.5v43.375c0,0.2753906,0.2241211,0.5,0.5,0.5h11.625c0.2758789,0,0.5-0.2246094,0.5-0.5v-43.375    c0-0.2758789-0.2241211-0.5-0.5-0.5H5.75z"
         id="path9" /></g><g
       id="g11"><path
         style="fill:#FFFFFF;"
         d="M32,53.6875c0,0.5498047-0.4501953,1-1,1H19.375c-0.5498047,0-1-0.4501953-1-1v-43.375    c0-0.5498047,0.4501953-1,1-1H31c0.5498047,0,1,0.4501953,1,1V53.6875z"
         id="path13" /><path
         d="M31,55.1875H19.375c-0.8271484,0-1.5-0.6728516-1.5-1.5v-43.375c0-0.8271484,0.6728516-1.5,1.5-1.5H31    c0.8271484,0,1.5,0.6728516,1.5,1.5v43.375C32.5,54.5146484,31.8271484,55.1875,31,55.1875z M19.375,9.8125    c-0.2758789,0-0.5,0.2241211-0.5,0.5v43.375c0,0.2753906,0.2241211,0.5,0.5,0.5H31c0.2758789,0,0.5-0.2246094,0.5-0.5v-43.375    c0-0.2758789-0.2241211-0.5-0.5-0.5H19.375z"
         id="path15" /></g><g
       id="g17"><path
         style="fill:#FFFFFF;"
         d="M45.625,53.6875c0,0.5498047-0.4501953,1-1,1H33c-0.5498047,0-1-0.4501953-1-1v-43.375    c0-0.5498047,0.4501953-1,1-1h11.625c0.5498047,0,1,0.4501953,1,1V53.6875z"
         id="path19" /><path
         d="M44.625,55.1875H33c-0.8271484,0-1.5-0.6728516-1.5-1.5v-43.375c0-0.8271484,0.6728516-1.5,1.5-1.5h11.625    c0.8271484,0,1.5,0.6728516,1.5,1.5v43.375C46.125,54.5146484,45.4521484,55.1875,44.625,55.1875z M33,9.8125    c-0.2758789,0-0.5,0.2241211-0.5,0.5v43.375c0,0.2753906,0.2241211,0.5,0.5,0.5h11.625c0.2753906,0,0.5-0.2246094,0.5-0.5v-43.375    c0-0.2758789-0.2246094-0.5-0.5-0.5H33z"
         id="path21" /></g><g
       id="g23"><path
         style="fill:#FFFFFF;"
         d="M59.25,53.6875c0,0.5498047-0.4501953,1-1,1H46.625c-0.5498047,0-1-0.4501953-1-1v-43.375    c0-0.5498047,0.4501953-1,1-1H58.25c0.5498047,0,1,0.4501953,1,1V53.6875z"
         id="path25" /><path
         d="M58.25,55.1875H46.625c-0.8271484,0-1.5-0.6728516-1.5-1.5v-43.375c0-0.8271484,0.6728516-1.5,1.5-1.5H58.25    c0.8271484,0,1.5,0.6728516,1.5,1.5v43.375C59.75,54.5146484,59.0771484,55.1875,58.25,55.1875z M46.625,9.8125    c-0.2753906,0-0.5,0.2241211-0.5,0.5v43.375c0,0.2753906,0.2246094,0.5,0.5,0.5H58.25c0.2753906,0,0.5-0.2246094,0.5-0.5v-43.375    c0-0.2758789-0.2246094-0.5-0.5-0.5H46.625z"
         id="path27" /></g><linearGradient
       id="SVGID_1_"
       gradientUnits="userSpaceOnUse"
       x1="31.9995117"
       y1="1.7509766"
       x2="31.9995117"
       y2="13.1358757"><stop
         offset="0"
         style="stop-color:#000000"
         id="stop30" /><stop
         offset="1"
         style="stop-color:#000000;stop-opacity:0"
         id="stop32" /></linearGradient><rect
       x="4.75"
       y="9.3125"
       style="fill:url(#SVGID_1_);"
       width="54.5"
       height="4.625"
       id="rect34" /><g
       id="g36"><rect
         x="14.25"
         y="9.3125"
         style="fill:#3F3F3F;"
         width="8.25"
         height="26.5"
         id="rect38" /><path
         d="M23,36.3125h-9.25v-27.5H23V36.3125z M14.75,35.3125H22v-25.5h-7.25V35.3125z"
         id="path40" /></g><g
       id="g42"><rect
         x="27.875"
         y="9.3125"
         style="fill:#3F3F3F;"
         width="8.25"
         height="26.5"
         id="rect44" /><path
         d="M36.625,36.3125h-9.25v-27.5h9.25V36.3125z M28.375,35.3125h7.25v-25.5h-7.25V35.3125z"
         id="path46" /></g><g
       id="g48"><rect
         x="41.5"
         y="9.3125"
         style="fill:#3F3F3F;"
         width="8.25"
         height="26.5"
         id="rect50" /><path
         d="M50.25,36.3125H41v-27.5h9.25V36.3125z M42,35.3125h7.25v-25.5H42V35.3125z"
         id="path52" /></g><rect
       x="15.75"
       y="9.3125"
       width="5.25"
       height="23.5"
       id="rect54" /><rect
       x="29.375"
       y="9.3125"
       width="5.25"
       height="23.5"
       id="rect56" /><rect
       x="43"
       y="9.3125"
       width="5.25"
       height="23.5"
       id="rect58" /><polygon
       style="opacity:0.59;fill:#9B9B9B;"
       points="15.75,32.8125 14.25,35.8125 22.5,35.8125 21,32.8125  "
       id="polygon60" /><polygon
       style="opacity:0.59;fill:#9B9B9B;"
       points="29.375,32.8125 27.875,35.8125 36.125,35.8125 34.625,32.8125  "
       id="polygon62" /><polygon
       style="opacity:0.59;fill:#9B9B9B;"
       points="43,32.8125 41.5,35.8125 49.75,35.8125 48.25,32.8125  "
       id="polygon64" /></g></svg>