<?xml version="1.0" encoding="utf-8"?>
<!-- Generator: Adobe Illustrator 15.0.2, SVG Export Plug-In . SVG Version: 6.00 Build 0)  -->
<!DOCTYPE svg PUBLIC "-//W3C//DTD SVG 1.1//EN" "http://www.w3.org/Graphics/SVG/1.1/DTD/svg11.dtd">
<svg version="1.1" id="レイヤー_1" xmlns="http://www.w3.org/2000/svg" xmlns:xlink="http://www.w3.org/1999/xlink" x="0px"
	 y="0px" width="64px" height="64px" viewBox="0 0 64 64" enable-background="new 0 0 64 64" xml:space="preserve">
<g>
	<path fill="#FFB997" d="M-14.027,52.318c0,0,30.5-8.979,38.419-11.563c7.92-2.584,13.604-5.609,14.663,2.813
		c1.058,8.421-6.676,14.645-13,17.099C19.731,63.12-7.147,72.671-7.147,72.671L-14.027,52.318z"/>
	<path fill="#FF9D83" d="M-8.227,69.477c0,0,32.311-9.875,47.229-22.493c0,0-2.365,8.938-9.386,11.961
		C22.595,61.967-7.147,72.671-7.147,72.671L-8.227,69.477z"/>
	<polygon fill="#FF9D83" points="32.227,46.865 38.563,41.758 37.251,39.563 	"/>
	<path fill="none" stroke="#420707" stroke-width="1.5718" stroke-linejoin="bevel" stroke-miterlimit="11" d="M-14.027,52.318
		c0,0,30.5-8.979,38.419-11.563c7.92-2.584,13.604-5.609,14.663,2.813c1.058,8.421-6.676,14.645-13,17.099
		C19.731,63.12-7.147,72.671-7.147,72.671L-14.027,52.318z"/>
	<g>
		<path fill="none" stroke="#FF558A" stroke-width="2" stroke-miterlimit="10" d="M19.69,42.454c0,0,12.626-5.288,16.477-5.473
			c3.85-0.186-1.188,11.977-14.422,15.546C21.745,52.527,19.509,46.443,19.69,42.454z"/>
		<linearGradient id="SVGID_1_" gradientUnits="userSpaceOnUse" x1="28.3896" y1="40.1807" x2="30.0563" y2="50.3484">
			<stop  offset="0" style="stop-color:#FFFFFF"/>
			<stop  offset="0.0147" style="stop-color:#FFDEE7"/>
			<stop  offset="0.0727" style="stop-color:#FF5F8D"/>
			<stop  offset="0.2016" style="stop-color:#FF6493"/>
			<stop  offset="0.3747" style="stop-color:#FF74A4"/>
			<stop  offset="0.4727" style="stop-color:#FF7FB1"/>
		</linearGradient>
		<path fill="url(#SVGID_1_)" d="M19.69,42.454c0,0,12.626-5.288,16.477-5.473c3.85-0.186-1.188,11.977-14.422,15.546
			C21.745,52.527,19.509,46.443,19.69,42.454z"/>
	</g>
</g>
<g>
	<g>
		
			<rect x="37.515" y="6.245" transform="matrix(0.9252 0.3796 -0.3796 0.9252 9.165 -13.4949)" fill="none" stroke="#C90E3B" stroke-width="2" stroke-miterlimit="10" width="2.582" height="20.5"/>
		
			<rect x="37.515" y="6.245" transform="matrix(0.9252 0.3796 -0.3796 0.9252 9.165 -13.4949)" fill="#FFFFFF" width="2.582" height="20.5"/>
	</g>
	<g>
		<polygon fill="none" stroke="#C90E3B" stroke-width="2" stroke-miterlimit="10" points="59.182,-16.488 47.47,-21.294 
			40.759,-4.939 44.387,-3.451 37.748,12.728 42.205,14.558 48.845,-1.622 52.472,-0.133 		"/>
		<polygon fill="#FF71A0" points="59.182,-16.488 47.47,-21.294 40.759,-4.939 44.387,-3.451 37.748,12.728 42.205,14.558 
			48.845,-1.622 52.472,-0.133 		"/>
	</g>
	<g>
		<path fill="none" stroke="#C90E3B" stroke-width="1.5361" stroke-miterlimit="10" d="M34.031,26.216L35.632,27
			c0,0,0.981,3.73-0.973,6.965c-1.955,3.234-5.735,5.029-8.95,3.537c-1.775-0.406-1.743-4.359-1.743-4.359s1.845,2.027,3.695-0.489
			C29.512,30.135,29.829,24.987,34.031,26.216z"/>
		<path fill="#FF6CA4" d="M34.031,26.216L35.632,27c0,0,0.981,3.73-0.973,6.965c-1.955,3.234-5.735,5.029-8.95,3.537
			c-1.775-0.406-1.743-4.359-1.743-4.359s1.845,2.027,3.695-0.489C29.512,30.135,29.829,24.987,34.031,26.216z"/>
	</g>
</g>
</svg>
