<?xml version="1.0" encoding="utf-8"?>
<!-- Generator: Adobe Illustrator 15.0.2, SVG Export Plug-In . SVG Version: 6.00 Build 0)  -->
<!DOCTYPE svg PUBLIC "-//W3C//DTD SVG 1.1//EN" "http://www.w3.org/Graphics/SVG/1.1/DTD/svg11.dtd">
<svg version="1.1" id="レイヤー_1" xmlns="http://www.w3.org/2000/svg" xmlns:xlink="http://www.w3.org/1999/xlink" x="0px"
	 y="0px" width="64px" height="64px" viewBox="0 0 64 64" enable-background="new 0 0 64 64" xml:space="preserve">
<g>
	<g>
		
			<linearGradient id="SVGID_1_" gradientUnits="userSpaceOnUse" x1="305.8965" y1="-304.0601" x2="305.8965" y2="-356.8203" gradientTransform="matrix(1 0 0 -1 -274 -298)">
			<stop  offset="0" style="stop-color:#FF6B5F"/>
			<stop  offset="0.7152" style="stop-color:#FF0012"/>
			<stop  offset="1" style="stop-color:#FF4D3F"/>
		</linearGradient>
		<path fill="url(#SVGID_1_)" d="M58.314,50.82c0,4.4-3.601,8-8,8H13.48c-4.4,0-8-3.6-8-8V14.06c0-4.4,3.6-8,8-8h36.834
			c4.399,0,8,3.6,8,8V50.82z"/>
	</g>
	<g opacity="0.22">
		<path fill="#FFFFFF" d="M5.48,26.813c7.381,2.383,16.52,6.126,26.417,6.126c9.898,0,19.037-3.744,26.417-6.126
			c0,0,2.104-13.836-1.918-18.27c-10.805-5.36-37.412-3.354-48.25-0.578C3.723,12.057,5.48,26.813,5.48,26.813z"/>
	</g>
	<g>
		<path fill="none" stroke="#C10D23" stroke-width="2" stroke-miterlimit="10" d="M58.314,50.82c0,4.4-3.601,8-8,8H13.48
			c-4.4,0-8-3.6-8-8V14.06c0-4.4,3.6-8,8-8h36.834c4.399,0,8,3.6,8,8V50.82z"/>
	</g>
</g>
<g>
	<path fill="#FFFFFF" d="M49.585,31.634c0,2.619-0.382,4.96-1.148,7.025c-0.764,2.067-1.904,3.818-3.417,5.258
		c-1.512,1.439-3.383,2.538-5.611,3.295c-2.229,0.756-4.81,1.134-7.737,1.134c-2.891,0-5.412-0.321-7.566-0.964
		c-2.153-0.642-3.947-1.623-5.383-2.94c-1.436-1.316-2.513-2.991-3.229-5.026c-0.719-2.031-1.077-4.438-1.077-7.22
		c0-2.554,0.382-4.851,1.148-6.892c0.765-2.041,1.904-3.778,3.416-5.208c1.513-1.432,3.384-2.529,5.614-3.294
		c2.229-0.764,4.818-1.146,7.766-1.146c2.813,0,5.297,0.317,7.451,0.951s3.952,1.611,5.396,2.928
		c1.444,1.316,2.536,2.98,3.273,4.989C49.219,26.531,49.585,28.9,49.585,31.634z M41.663,31.976c0-1.659-0.153-3.167-0.46-4.526
		c-0.307-1.357-0.829-2.52-1.564-3.488c-0.737-0.968-1.72-1.716-2.943-2.245c-1.227-0.529-2.757-0.792-4.595-0.792
		c-1.856,0-3.407,0.296-4.65,0.89c-1.244,0.594-2.25,1.388-3.016,2.379c-0.766,0.993-1.307,2.151-1.622,3.477
		c-0.315,1.326-0.473,2.728-0.473,4.209c0,1.724,0.151,3.272,0.458,4.647c0.307,1.374,0.824,2.55,1.552,3.525
		c0.726,0.976,1.703,1.72,2.928,2.231c1.226,0.514,2.766,0.77,4.622,0.77c1.857,0,3.408-0.294,4.653-0.878
		c1.241-0.586,2.247-1.383,3.014-2.392c0.764-1.009,1.307-2.185,1.621-3.526C41.505,34.916,41.663,33.488,41.663,31.976z"/>
</g>
</svg>
