<?xml version="1.0" encoding="utf-8"?>
<!-- Generator: Adobe Illustrator 15.0.2, SVG Export Plug-In . SVG Version: 6.00 Build 0)  -->
<!DOCTYPE svg PUBLIC "-//W3C//DTD SVG 1.1//EN" "http://www.w3.org/Graphics/SVG/1.1/DTD/svg11.dtd">
<svg version="1.1" id="レイヤー_1" xmlns="http://www.w3.org/2000/svg" xmlns:xlink="http://www.w3.org/1999/xlink" x="0px"
	 y="0px" width="64px" height="64px" viewBox="0 0 64 64" enable-background="new 0 0 64 64" xml:space="preserve">
<g>
	<g>
		
			<linearGradient id="SVGID_1_" gradientUnits="userSpaceOnUse" x1="305.8965" y1="-304.0601" x2="305.8965" y2="-356.8203" gradientTransform="matrix(1 0 0 -1 -274 -298)">
			<stop  offset="0" style="stop-color:#FF6B5F"/>
			<stop  offset="0.7152" style="stop-color:#FF0012"/>
			<stop  offset="1" style="stop-color:#FF4D3F"/>
		</linearGradient>
		<path fill="url(#SVGID_1_)" d="M58.314,50.82c0,4.4-3.601,8-8,8H13.48c-4.4,0-8-3.6-8-8V14.06c0-4.4,3.6-8,8-8h36.834
			c4.399,0,8,3.6,8,8V50.82z"/>
	</g>
	<g opacity="0.22">
		<path fill="#FFFFFF" d="M5.48,26.813c7.381,2.383,16.52,6.126,26.417,6.126c9.898,0,19.037-3.744,26.417-6.126
			c0,0,2.104-13.836-1.918-18.27c-10.805-5.36-37.412-3.354-48.25-0.578C3.723,12.057,5.48,26.813,5.48,26.813z"/>
	</g>
	<g>
		<path fill="none" stroke="#C10D23" stroke-width="2" stroke-miterlimit="10" d="M58.314,50.82c0,4.4-3.601,8-8,8H13.48
			c-4.4,0-8-3.6-8-8V14.06c0-4.4,3.6-8,8-8h36.834c4.399,0,8,3.6,8,8V50.82z"/>
	</g>
</g>
<g>
	<path fill="#FFFFFF" d="M33.505,42.684c0.159,0.466,0.259,0.837,0.299,1.108c0.041,0.272-0.013,0.477-0.16,0.614
		c-0.146,0.136-0.406,0.219-0.779,0.252c-0.374,0.032-0.888,0.049-1.541,0.049c-0.68,0-1.211-0.01-1.591-0.029
		c-0.38-0.02-0.67-0.059-0.87-0.117c-0.201-0.059-0.341-0.14-0.421-0.243c-0.08-0.104-0.146-0.239-0.201-0.407L26.5,38.85h-9.726
		l-1.642,4.923c-0.054,0.183-0.124,0.334-0.21,0.458c-0.086,0.123-0.227,0.221-0.42,0.291c-0.194,0.071-0.467,0.12-0.821,0.146
		c-0.354,0.026-0.817,0.04-1.391,0.04c-0.614,0-1.094-0.02-1.441-0.059s-0.587-0.133-0.72-0.282
		c-0.134-0.149-0.18-0.359-0.141-0.632c0.04-0.273,0.141-0.637,0.3-1.091l7.985-22.339c0.08-0.22,0.173-0.398,0.28-0.535
		c0.106-0.136,0.276-0.24,0.51-0.311c0.233-0.071,0.557-0.117,0.971-0.136c0.414-0.019,0.96-0.029,1.641-0.029
		c0.788,0,1.415,0.01,1.882,0.029c0.466,0.02,0.831,0.065,1.09,0.136c0.26,0.071,0.447,0.178,0.56,0.321
		c0.113,0.143,0.21,0.338,0.291,0.583L33.505,42.684z M21.616,24.216h-0.021l-3.662,10.703h7.346L21.616,24.216z"/>
	<path fill="#FFFFFF" d="M54.025,37.04c0,0.895-0.129,1.705-0.38,2.433c-0.254,0.726-0.604,1.368-1.053,1.926
		c-0.446,0.559-0.979,1.038-1.601,1.439c-0.62,0.402-1.304,0.733-2.051,0.994c-0.747,0.259-1.545,0.45-2.393,0.574
		c-0.846,0.123-1.789,0.185-2.831,0.185h-6.886c-0.439,0-0.811-0.127-1.11-0.38s-0.45-0.666-0.45-1.236v-21.95
		c0-0.571,0.15-0.982,0.45-1.235c0.3-0.252,0.671-0.379,1.11-0.379h6.506c1.588,0,2.933,0.129,4.032,0.39
		c1.102,0.259,2.029,0.651,2.782,1.177c0.754,0.525,1.331,1.191,1.731,1.994c0.4,0.804,0.601,1.752,0.601,2.842
		c0,0.609-0.081,1.183-0.239,1.722c-0.161,0.538-0.395,1.027-0.702,1.468c-0.307,0.442-0.684,0.832-1.13,1.168
		c-0.447,0.338-0.957,0.61-1.531,0.817c0.733,0.13,1.411,0.357,2.031,0.681c0.62,0.325,1.161,0.744,1.621,1.256
		c0.46,0.511,0.823,1.112,1.091,1.8C53.892,35.411,54.025,36.184,54.025,37.04z M47.22,26.435c0-0.506-0.079-0.96-0.24-1.362
		c-0.16-0.402-0.399-0.736-0.721-1.002c-0.318-0.266-0.723-0.47-1.21-0.612c-0.488-0.143-1.138-0.214-1.95-0.214h-2.662v6.538h2.941
		c0.761,0,1.367-0.088,1.821-0.263c0.453-0.175,0.831-0.415,1.131-0.72c0.3-0.305,0.523-0.662,0.669-1.07
		C47.146,27.319,47.22,26.889,47.22,26.435z M48.562,37.214c0-0.583-0.101-1.105-0.3-1.564c-0.2-0.461-0.494-0.848-0.882-1.159
		c-0.386-0.311-0.88-0.551-1.48-0.721c-0.6-0.167-1.381-0.252-2.342-0.252h-3.121v7.161h3.802c0.733,0,1.351-0.075,1.852-0.225
		c0.5-0.148,0.934-0.369,1.302-0.661c0.365-0.292,0.652-0.654,0.86-1.09C48.459,38.27,48.562,37.772,48.562,37.214z"/>
</g>
</svg>
