<?xml version="1.0" encoding="utf-8"?>
<!-- Generator: Adobe Illustrator 15.0.2, SVG Export Plug-In . SVG Version: 6.00 Build 0)  -->
<!DOCTYPE svg PUBLIC "-//W3C//DTD SVG 1.1//EN" "http://www.w3.org/Graphics/SVG/1.1/DTD/svg11.dtd">
<svg version="1.1" id="レイヤー_1" xmlns="http://www.w3.org/2000/svg" xmlns:xlink="http://www.w3.org/1999/xlink" x="0px"
	 y="0px" width="64px" height="64px" viewBox="0 0 64 64" enable-background="new 0 0 64 64" xml:space="preserve">
<g>
	<g>
		
			<linearGradient id="SVGID_1_" gradientUnits="userSpaceOnUse" x1="305.8965" y1="-304.0601" x2="305.8965" y2="-356.8203" gradientTransform="matrix(1 0 0 -1 -274 -298)">
			<stop  offset="0" style="stop-color:#FF6B5F"/>
			<stop  offset="0.7152" style="stop-color:#FF0012"/>
			<stop  offset="1" style="stop-color:#FF4D3F"/>
		</linearGradient>
		<path fill="url(#SVGID_1_)" d="M58.314,50.82c0,4.4-3.601,8-8,8H13.48c-4.4,0-8-3.6-8-8V14.06c0-4.4,3.6-8,8-8h36.834
			c4.399,0,8,3.6,8,8V50.82z"/>
	</g>
	<g opacity="0.22">
		<path fill="#FFFFFF" d="M5.48,26.813c7.381,2.383,16.52,6.126,26.417,6.126c9.898,0,19.037-3.744,26.417-6.126
			c0,0,2.104-13.836-1.918-18.27c-10.805-5.36-37.412-3.354-48.25-0.578C3.723,12.057,5.48,26.813,5.48,26.813z"/>
	</g>
	<g>
		<path fill="none" stroke="#C10D23" stroke-width="2" stroke-miterlimit="10" d="M58.314,50.82c0,4.4-3.601,8-8,8H13.48
			c-4.4,0-8-3.6-8-8V14.06c0-4.4,3.6-8,8-8h36.834c4.399,0,8,3.6,8,8V50.82z"/>
	</g>
</g>
<g>
	<path fill="#FFFFFF" d="M48.292,45.103c0.225,0.572,0.364,1.026,0.421,1.36s-0.019,0.585-0.224,0.752
		c-0.208,0.167-0.572,0.27-1.096,0.311c-0.525,0.039-1.246,0.06-2.163,0.06c-0.955,0-1.699-0.013-2.233-0.035
		c-0.533-0.024-0.94-0.073-1.222-0.144c-0.28-0.073-0.478-0.172-0.591-0.299c-0.111-0.127-0.206-0.294-0.28-0.501L38.461,40.4
		h-13.65l-2.304,6.038c-0.075,0.224-0.173,0.41-0.295,0.562c-0.122,0.151-0.319,0.271-0.589,0.357
		c-0.272,0.088-0.656,0.147-1.152,0.18c-0.496,0.031-1.147,0.048-1.952,0.048c-0.861,0-1.535-0.024-2.022-0.072
		c-0.487-0.047-0.824-0.163-1.011-0.346c-0.188-0.184-0.253-0.441-0.197-0.775c0.057-0.334,0.197-0.78,0.421-1.337l11.208-27.398
		c0.112-0.271,0.243-0.489,0.393-0.657c0.149-0.167,0.388-0.294,0.716-0.382c0.328-0.087,0.782-0.144,1.363-0.167
		c0.58-0.023,1.348-0.035,2.303-0.035c1.105,0,1.985,0.012,2.641,0.035c0.654,0.023,1.166,0.08,1.53,0.167
		c0.366,0.088,0.628,0.219,0.787,0.395c0.158,0.175,0.295,0.413,0.407,0.716L48.292,45.103z M31.607,22.453h-0.028l-5.14,13.126
		h10.309L31.607,22.453z"/>
</g>
</svg>
