<?xml version="1.0" encoding="utf-8"?>
<!-- Generator: Adobe Illustrator 17.0.0, SVG Export Plug-In . SVG Version: 6.00 Build 0)  -->
<!DOCTYPE svg PUBLIC "-//W3C//DTD SVG 1.1//EN" "http://www.w3.org/Graphics/SVG/1.1/DTD/svg11.dtd">
<svg version="1.1" id="レイヤー_1" xmlns="http://www.w3.org/2000/svg" xmlns:xlink="http://www.w3.org/1999/xlink" x="0px"
	 y="0px" width="64px" height="64px" viewBox="0 0 64 64" style="enable-background:new 0 0 64 64;" xml:space="preserve">
<linearGradient id="SVGID_1_" gradientUnits="userSpaceOnUse" x1="18.012104" y1="-4.9007359" x2="45.1785355" y2="66.7657013">
	<stop  offset="0" style="stop-color:#FFF0ED"/>
	<stop  offset="0.4120165" style="stop-color:#FFE2D9"/>
	<stop  offset="1" style="stop-color:#FFC9B5"/>
</linearGradient>
<path style="fill:url(#SVGID_1_);" d="M3.05566,32C3.05566,16.0156002,16.0146008,3.0566399,32,3.0566399
	S60.9443016,16.0156002,60.9443016,32S47.9854012,60.9434013,32,60.9434013S3.05566,47.9844017,3.05566,32"/>
<path style="fill:#FFB6B6;" d="M32.0009766,61.3291016C15.828125,61.3291016,2.6708984,48.171875,2.6708984,32
	c0-16.1723633,13.1572266-29.3291016,29.3300781-29.3291016c16.171875,0,29.328125,13.1567383,29.328125,29.3291016
	C61.3291016,48.171875,48.1728516,61.3291016,32.0009766,61.3291016z M32.0009766,5.1708984
	C17.2070313,5.1708984,5.1708984,17.206543,5.1708984,32c0,14.7939453,12.0361328,26.8291016,26.8300781,26.8291016
	c14.7929688,0,26.828125-12.0351563,26.828125-26.8291016C58.8291016,17.206543,46.7939453,5.1708984,32.0009766,5.1708984z"/>
<path style="fill:#541715;" d="M32,62.1933594C15.3505859,62.1933594,1.8056641,48.6484375,1.8056641,32
	S15.3505859,1.8066406,32,1.8066406S62.1943359,15.3515625,62.1943359,32S48.6494141,62.1933594,32,62.1933594z M32,4.3066406
	C16.7294922,4.3066406,4.3056641,16.7299805,4.3056641,32c0,15.2705078,12.4238281,27.6933594,27.6943359,27.6933594
	S59.6943359,47.2705078,59.6943359,32C59.6943359,16.7299805,47.2705078,4.3066406,32,4.3066406z"/>
<g>
	<ellipse style="fill:#750000;" cx="19.9648495" cy="26.5205002" rx="3.5078499" ry="4.5282998"/>
	<ellipse style="fill:#750000;" cx="44.0346985" cy="26.5205002" rx="3.5083001" ry="4.5282998"/>
</g>
<path style="fill:#FFFFFF;" d="M9.5,26.875c0-5.5515747,4.2593994-10.1022949,9.687561-10.5776367
	C18.87854,16.2686157,18.5665283,16.25,18.25,16.25c-5.5228271,0-10,4.4771118-10,10
	c0,3.6066895,1.9158936,6.7578735,4.7789917,8.5169678C10.8673706,32.8220215,9.5,30.0116577,9.5,26.875z"/>
<path style="fill:#750000;" d="M45.75,14.25c-6.0421753,0-11.0412598,4.4929199-11.8668213,10.3103027
	C33.4254761,24.3743896,32.815918,24.25,32,24.25c-0.815979,0-1.4254761,0.1243286-1.8831787,0.3103027
	C29.2911377,18.7428589,24.291748,14.25,18.25,14.25c-6.6166992,0-12,5.3833008-12,12s5.3833008,12,12,12
	c6.5983887,0,11.9675903-5.354248,11.9972534-11.9457397C30.2771606,26.1497192,30.6495361,25.75,32,25.75
	c1.3515625,0,1.7236328,0.4003906,1.75,0.5c0,6.6166992,5.3828125,12,12,12s12-5.3833008,12-12S52.3671875,14.25,45.75,14.25z
	 M18.25,36.75c-5.7895508,0-10.5-4.7104492-10.5-10.5s4.7104492-10.5,10.5-10.5s10.5,4.7104492,10.5,10.5
	S24.0395508,36.75,18.25,36.75z M45.75,36.75c-5.7900391,0-10.5-4.7104492-10.5-10.5s4.7099609-10.5,10.5-10.5
	s10.5,4.7104492,10.5,10.5S51.5400391,36.75,45.75,36.75z"/>
<path style="fill:#FFFFFF;" d="M37,26.875c0-5.5515747,4.2593994-10.1022949,9.687561-10.5776367
	C46.37854,16.2686157,46.0665283,16.25,45.75,16.25c-5.5228271,0-10,4.4771118-10,10
	c0,3.6066895,1.9158936,6.7578735,4.7789917,8.5169678C38.3673706,32.8220215,37,30.0116577,37,26.875z"/>
<g>
	<path style="fill:#F5F5F5;" d="M37,48.25V52c0,0,0,1.25-1.25,1.25c0,0-6.25,0-7.5,0S27,52,27,52v-3.75"/>
	<path style="fill:#750000;" d="M35.75,54.25h-7.5C26.6108398,54.25,26,52.8701172,26,52v-3.75h2V52
		c0.0126953,0.25,0.1123047,0.25,0.25,0.25h7.5c0.1171875,0,0.25,0,0.25-0.25v-3.75h2V52
		C38,52.8701172,37.3886719,54.25,35.75,54.25z"/>
</g>
<g>
	<line style="fill:#F5F5F5;" x1="32" y1="48.25" x2="32" y2="53.25"/>
	<rect x="31" y="48.25" style="fill:#750000;" width="2" height="5"/>
</g>
<path style="fill:#750000;" d="M32,49.75c-10.5004883,0-15.8383789-5.2167969-16.0605469-5.4394531l2.1210938-2.1210938
	C18.1025391,42.2304688,22.8120117,46.75,32,46.75c9.1875,0,13.8974609-4.5195313,13.9443359-4.5654297l2.1162109,2.1259766
	C47.8388672,44.5332031,42.5009766,49.75,32,49.75z"/>
<g>
</g>
<g>
</g>
<g>
</g>
<g>
</g>
<g>
</g>
<g>
</g>
</svg>
