<?xml version="1.0" encoding="utf-8"?>
<!-- Generator: Adobe Illustrator 15.0.2, SVG Export Plug-In . SVG Version: 6.00 Build 0)  -->
<!DOCTYPE svg PUBLIC "-//W3C//DTD SVG 1.1//EN" "http://www.w3.org/Graphics/SVG/1.1/DTD/svg11.dtd">
<svg version="1.1" id="レイヤー_1" xmlns="http://www.w3.org/2000/svg" xmlns:xlink="http://www.w3.org/1999/xlink" x="0px"
	 y="0px" width="64px" height="64px" viewBox="0 0 64 64" enable-background="new 0 0 64 64" xml:space="preserve">
<g>
	<g>
		<polygon fill="#595757" points="38.521,27.809 43.584,27.809 41.352,30.648 		"/>
		<path fill="#595757" d="M38.481,24.54c0,0,2.434,2.058,3.169,3.926l-2.229,1.676c0,0,0.002-4.436-1.876-4.436
			S38.481,24.54,38.481,24.54z"/>
		<polygon fill="#595757" points="21.679,26.663 24.032,28.3 18.631,33.846 		"/>
		
			<rect x="19.91" y="20.181" transform="matrix(0.945 0.3271 -0.3271 0.945 10.4149 -5.2073)" fill="#595757" width="1.555" height="16.354"/>
		<path fill="#595757" d="M38.089,36.579c0.002-4.448,3.606-8.055,8.057-8.055v-1.541c-5.301,0-9.597,4.296-9.597,9.596H38.089z"/>
		<g>
			<path fill="#595757" d="M17.94,28.417c-4.508,0-8.162,3.654-8.162,8.162c0,4.509,3.654,8.163,8.162,8.163
				c4.509,0,8.162-3.654,8.162-8.163C26.103,32.071,22.449,28.417,17.94,28.417z M17.941,43.432c-3.785,0-6.854-3.068-6.854-6.853
				s3.068-6.853,6.854-6.853c3.783,0,6.852,3.068,6.852,6.853S21.725,43.432,17.941,43.432z"/>
			<path fill="#595757" d="M46.06,28.417c-4.509,0-8.162,3.654-8.162,8.162c0,4.509,3.653,8.163,8.162,8.163
				c4.508,0,8.162-3.654,8.162-8.163C54.222,32.071,50.567,28.417,46.06,28.417z M46.06,43.432c-3.785,0-6.853-3.068-6.853-6.853
				s3.067-6.853,6.853-6.853c3.783,0,6.851,3.068,6.851,6.853S49.843,43.432,46.06,43.432z"/>
		</g>
		<g>
			
				<rect x="19.777" y="20.159" transform="matrix(0.9449 0.3273 -0.3273 0.9449 10.5379 -5.1453)" fill="#595757" width="1.557" height="17.156"/>
			<rect x="22.143" y="19.258" fill="#595757" width="7.922" height="1.682"/>
			<rect x="20.48" y="26.608" fill="#595757" width="17.944" height="1.465"/>
			
				<rect x="19.529" y="31.39" transform="matrix(0.8077 0.5896 -0.5896 0.8077 24.4375 -10.6602)" fill="#595757" width="18.064" height="1.485"/>
			
				<rect x="36.218" y="21.367" transform="matrix(0.9885 0.1511 -0.1511 0.9885 4.9147 -5.2664)" fill="#595757" width="1.797" height="16.689"/>
			<rect x="35.822" y="36.038" fill="#595757" width="11.049" height="1.466"/>
			
				<rect x="35.829" y="31.484" transform="matrix(0.7071 0.7071 -0.7071 0.7071 35.0781 -20.2572)" fill="#595757" width="12.329" height="1.467"/>
			
				<rect x="32.002" y="37.753" transform="matrix(0.965 -0.2624 0.2624 0.965 -8.9581 10.4507)" fill="#595757" width="5.288" height="2.018"/>
		</g>
		<polygon fill="#595757" points="43.209,22.266 35.341,22.71 35.418,19.73 42.899,20.463 		"/>
	</g>
	<path fill="#E30012" d="M32,2.008C15.436,2.008,2.008,15.436,2.008,32S15.436,61.992,32,61.992S61.992,48.564,61.992,32
		S48.564,2.008,32,2.008z M56.158,32.001c0,5.72-1.992,10.972-5.316,15.11L16.888,13.157C21.026,9.834,26.279,7.842,32,7.842
		C45.342,7.842,56.158,18.657,56.158,32.001z M7.842,32.001c0-5.55,1.875-10.657,5.021-14.736l33.872,33.874
		c-4.078,3.145-9.186,5.02-14.734,5.02C18.657,56.158,7.842,45.342,7.842,32.001z"/>
</g>
</svg>
