<?xml version="1.0" encoding="UTF-8" standalone="no"?>
<!-- Generator: Adobe Illustrator 15.0.2, SVG Export Plug-In . SVG Version: 6.00 Build 0)  -->

<svg
   xmlns:dc="http://purl.org/dc/elements/1.1/"
   xmlns:cc="http://creativecommons.org/ns#"
   xmlns:rdf="http://www.w3.org/1999/02/22-rdf-syntax-ns#"
   xmlns:svg="http://www.w3.org/2000/svg"
   xmlns="http://www.w3.org/2000/svg"
   xmlns:sodipodi="http://sodipodi.sourceforge.net/DTD/sodipodi-0.dtd"
   xmlns:inkscape="http://www.inkscape.org/namespaces/inkscape"
   version="1.1"
   id="レイヤー_1"
   x="0px"
   y="0px"
   width="64px"
   height="64px"
   viewBox="0 0 64 64"
   style="enable-background:new 0 0 64 64;"
   xml:space="preserve"
   inkscape:version="0.48.5 r10040"
   sodipodi:docname="no_entry_sign.svg"><metadata
     id="metadata11"><rdf:RDF><cc:Work
         rdf:about=""><dc:format>image/svg+xml</dc:format><dc:type
           rdf:resource="http://purl.org/dc/dcmitype/StillImage" /></cc:Work></rdf:RDF></metadata><defs
     id="defs9" /><sodipodi:namedview
     pagecolor="#ffffff"
     bordercolor="#666666"
     borderopacity="1"
     objecttolerance="10"
     gridtolerance="10"
     guidetolerance="10"
     inkscape:pageopacity="0"
     inkscape:pageshadow="2"
     inkscape:window-width="640"
     inkscape:window-height="480"
     id="namedview7" /><g
     id="g3"><path
       style="fill:#EA0000;"
       d="M32,2.0078125C15.4355469,2.0078125,2.0078125,15.4355469,2.0078125,32   S15.4355469,61.9921875,32,61.9921875S61.9921875,48.5644531,61.9921875,32S48.5644531,2.0078125,32,2.0078125z    M7.8417969,32.0009766c0-5.4697266,1.8276367-10.5048828,4.8911133-14.5541992l33.8208008,33.8208008   C42.5048828,54.3300781,37.46875,56.1582031,32,56.1582031C18.6572266,56.1582031,7.8417969,45.3417969,7.8417969,32.0009766z    M51.2597656,46.5458984L17.4536133,12.7397461C21.5024414,9.6767578,26.5317383,7.8417969,32,7.8417969   c13.3417969,0,24.1582031,10.8154297,24.1582031,24.1591797C56.1582031,37.46875,54.3232422,42.4970703,51.2597656,46.5458984z"
       id="path5" /></g></svg>