<?xml version="1.0" encoding="utf-8"?>
<!-- Generator: Adobe Illustrator 15.0.2, SVG Export Plug-In . SVG Version: 6.00 Build 0)  -->
<!DOCTYPE svg PUBLIC "-//W3C//DTD SVG 1.1//EN" "http://www.w3.org/Graphics/SVG/1.1/DTD/svg11.dtd">
<svg version="1.1" id="レイヤー_1" xmlns="http://www.w3.org/2000/svg" xmlns:xlink="http://www.w3.org/1999/xlink" x="0px"
	 y="0px" width="64px" height="64px" viewBox="0 0 64 64" enable-background="new 0 0 64 64" xml:space="preserve">
<g>
	<path fill="#EA0000" d="M32,2.008C15.436,2.008,2.008,15.436,2.008,32S15.436,61.992,32,61.992S61.992,48.564,61.992,32
		S48.564,2.008,32,2.008z M7.842,32.001c0-5.47,1.828-10.505,4.891-14.554l33.821,33.821C42.505,54.33,37.469,56.158,32,56.158
		C18.657,56.158,7.842,45.342,7.842,32.001z M51.26,46.546L17.454,12.74C21.502,9.677,26.532,7.842,32,7.842
		c13.342,0,24.158,10.815,24.158,24.159C56.158,37.469,54.323,42.497,51.26,46.546z"/>
</g>
</svg>
