<?xml version="1.0" encoding="UTF-8" standalone="no"?>
<!-- Generator: Adobe Illustrator 15.0.2, SVG Export Plug-In . SVG Version: 6.00 Build 0)  -->

<svg
   xmlns:dc="http://purl.org/dc/elements/1.1/"
   xmlns:cc="http://creativecommons.org/ns#"
   xmlns:rdf="http://www.w3.org/1999/02/22-rdf-syntax-ns#"
   xmlns:svg="http://www.w3.org/2000/svg"
   xmlns="http://www.w3.org/2000/svg"
   xmlns:sodipodi="http://sodipodi.sourceforge.net/DTD/sodipodi-0.dtd"
   xmlns:inkscape="http://www.inkscape.org/namespaces/inkscape"
   version="1.1"
   id="レイヤー_1"
   x="0px"
   y="0px"
   width="64px"
   height="64px"
   viewBox="0 0 64 64"
   enable-background="new 0 0 64 64"
   xml:space="preserve"
   inkscape:version="0.48.4 r9939"
   sodipodi:docname="no_entry.svg"><metadata
     id="metadata15"><rdf:RDF><cc:Work
         rdf:about=""><dc:format>image/svg+xml</dc:format><dc:type
           rdf:resource="http://purl.org/dc/dcmitype/StillImage" /></cc:Work></rdf:RDF></metadata><defs
     id="defs13" /><sodipodi:namedview
     pagecolor="#ffffff"
     bordercolor="#666666"
     borderopacity="1"
     objecttolerance="10"
     gridtolerance="10"
     guidetolerance="10"
     inkscape:pageopacity="0"
     inkscape:pageshadow="2"
     inkscape:window-width="640"
     inkscape:window-height="480"
     id="namedview11" /><g
     id="g3"><g
       id="g5"><path
         fill="none"
         stroke="#FFFFFF"
         stroke-width="2.9262"
         stroke-miterlimit="10"
         d="M52.686,11.313    c-11.425-11.424-29.947-11.424-41.372,0c-11.424,11.424-11.424,29.947,0,41.372c11.425,11.425,29.947,11.425,41.372,0    S64.11,22.738,52.686,11.313z M15.337,15.338c9.202-9.202,24.122-9.203,33.325,0c3.312,3.311,5.41,7.365,6.338,11.625H8.999    C9.926,22.704,12.026,18.649,15.337,15.338z M48.661,48.662c-9.202,9.203-24.122,9.202-33.323,0    c-3.312-3.312-5.422-7.366-6.349-11.626h46.022C54.084,41.296,51.974,45.351,48.661,48.662z"
         id="path7" /><path
         fill="#EA0000"
         d="M52.686,11.313c-11.425-11.424-29.947-11.424-41.372,0c-11.424,11.424-11.424,29.947,0,41.372    c11.425,11.425,29.947,11.425,41.372,0S64.11,22.738,52.686,11.313z M15.337,15.338c9.202-9.202,24.122-9.203,33.325,0    c3.312,3.311,5.41,7.365,6.338,11.625H8.999C9.926,22.704,12.026,18.649,15.337,15.338z M48.661,48.662    c-9.202,9.203-24.122,9.202-33.323,0c-3.312-3.312-5.422-7.366-6.349-11.626h46.022C54.084,41.296,51.974,45.351,48.661,48.662z"
         id="path9" /></g></g></svg>