<?xml version="1.0" encoding="utf-8"?>
<!-- Generator: Adobe Illustrator 15.0.2, SVG Export Plug-In . SVG Version: 6.00 Build 0)  -->
<!DOCTYPE svg PUBLIC "-//W3C//DTD SVG 1.1//EN" "http://www.w3.org/Graphics/SVG/1.1/DTD/svg11.dtd">
<svg version="1.1" id="レイヤー_1" xmlns="http://www.w3.org/2000/svg" xmlns:xlink="http://www.w3.org/1999/xlink" x="0px"
	 y="0px" width="64px" height="64px" viewBox="0 0 64 64" enable-background="new 0 0 64 64" xml:space="preserve">
<g>
	<g>
		<g>
			<g>
				
					<rect x="10.474" y="32.948" fill="none" stroke="#020100" stroke-width="2.3364" stroke-miterlimit="10" width="42.26" height="6.064"/>
				<rect x="10.474" y="32.948" fill="#FFFFFF" width="42.26" height="6.064"/>
			</g>
			<g>
				<rect x="10.474" y="32.948" fill="#E0A353" width="16.854" height="6.064"/>
			</g>
			<g>
				<rect x="49.669" y="32.948" fill="#DD0B0B" width="3.064" height="6.064"/>
			</g>
		</g>
		<path fill="none" stroke="#2B2B2B" stroke-width="1.5576" stroke-miterlimit="10" d="M27.008,10.669c0,0,0.127,8.682,10.213,8.682
			c0,0,0.957,5.938,7.66,5.938c6.704,0,5.171,4.532,5.171,4.532"/>
		<path fill="none" stroke="#2B2B2B" stroke-width="1.5576" stroke-miterlimit="10" d="M37.859,12.01c0,0,5.809,0.192,7.086,8.235
			c0,0,12.576-1.469,7.277,9.575"/>
	</g>
	<path fill="#EA0000" d="M32,2.008C15.436,2.008,2.008,15.436,2.008,32S15.436,61.992,32,61.992S61.992,48.564,61.992,32
		S48.564,2.008,32,2.008z M56.158,32.001c0,5.72-1.992,10.972-5.316,15.11L16.888,13.157C21.026,9.834,26.279,7.842,32,7.842
		C45.342,7.842,56.158,18.657,56.158,32.001z M7.842,32.001c0-5.55,1.875-10.657,5.021-14.736l33.872,33.874
		c-4.078,3.145-9.186,5.02-14.734,5.02C18.657,56.158,7.842,45.342,7.842,32.001z"/>
</g>
</svg>
