<?xml version="1.0" encoding="utf-8"?>
<!-- Generator: Adobe Illustrator 15.0.2, SVG Export Plug-In . SVG Version: 6.00 Build 0)  -->
<!DOCTYPE svg PUBLIC "-//W3C//DTD SVG 1.1//EN" "http://www.w3.org/Graphics/SVG/1.1/DTD/svg11.dtd">
<svg version="1.1" id="レイヤー_1" xmlns="http://www.w3.org/2000/svg" xmlns:xlink="http://www.w3.org/1999/xlink" x="0px"
	 y="0px" width="64px" height="64px" viewBox="0 0 64 64" style="enable-background:new 0 0 64 64;" xml:space="preserve">
<g>
	<path style="fill:#16DD00;" d="M13.7949219,1.7949219c-6.6269531,0-12,5.3730469-12,12v36.4101563c0,6.6279297,5.3730469,12,12,12
		h36.4101563c6.6269531,0,12-5.3720703,12-12V13.7949219c0-6.6269531-5.3730469-12-12-12H13.7949219z"/>
</g>
<g>
	<g>
		<path style="fill:#FFFFFF;" d="M13.6933594,22.4091797c2.6367188-2.1787109,5.8105469-3.2685547,9.5205078-3.2685547h0.4501953
			v1.46875c-2.8896484,0.2050781-5.1708984,1.1044922-6.84375,2.6992188
			c-1.7685547,1.6894531-2.6533203,3.9550781-2.6533203,6.796875c0,2.984375,0.9638672,5.4628906,2.8896484,7.4365234
			c1.9257813,1.9726563,4.3730469,2.9599609,7.3417969,2.9599609c2.6367188,0,5.1386719-0.8291016,7.5068359-2.4863281
			c2.6367188-1.8164063,3.9550781-3.9873047,3.9550781-6.5126953c0-1.1367188-0.3828125-2.1708984-1.1484375-3.1025391
			s-1.7089844-1.3974609-2.8300781-1.3974609c-1.0263672,0-1.8632813,0.3828125-2.5107422,1.1484375
			s-0.9707031,1.6699219-0.9707031,2.7119141c0,0.3476563,0.0556641,0.7578125,0.1660156,1.2314453l-1.4208984,0.4501953
			c-0.3164063-1.0263672-0.4736328-2.0048828-0.4736328-2.9365234c0-1.7998047,0.4814453-3.3154297,1.4443359-4.546875
			c1.0419922-1.3427734,2.4316406-2.0136719,4.1679688-2.0136719c2.1787109,0,3.9316406,1.1367188,5.2578125,3.4101563
			c1.8466797-4.8779297,6.3310547-7.3173828,13.4511719-7.3173828h3.5048828v1.46875
			c-1.1992188,0-2.3447266,1.3964844-3.4335938,4.1914063l-0.4501953,1.1601563
			c-0.5839844,1.484375-1.1367188,2.5263672-1.6572266,3.1259766c-0.6005859,0.6953125-1.5878906,1.3105469-2.9609375,1.8476563
			c4.6894531,0.5683594,7.0332031,2.8183594,7.0332031,6.7490234c0,2.1630859-0.8759766,3.9238281-2.6289063,5.28125
			c-1.609375,1.2626953-3.5273438,1.8945313-5.7539063,1.8945313c-3.4580078,0-6.2519531-1.5078125-8.3837891-4.5234375
			l1.2792969-0.9941406c1.3896484,1.7519531,3.0703125,2.6279297,5.0439453,2.6279297
			c1.515625,0,2.8339844-0.4814453,3.9550781-1.4443359c1.1835938-1.0107422,1.7753906-2.265625,1.7753906-3.765625
			c0-1.1992188-0.4492188-2.1787109-1.3496094-2.9365234c-0.8515625-0.7099609-1.8867188-1.0654297-3.1015625-1.0654297
			c-1.9736328,0-4.1835938,1.0419922-6.6308594,3.1259766l-0.9716797,0.8291016
			c-2.1464844,1.8310547-4.4755859,3.2675781-6.9863281,4.3095703c-2.6201172,1.1054688-5.0439453,1.6582031-7.2705078,1.6582031
			c-3.4414063,0-6.3544922-1.0185547-8.7382813-3.0546875c-2.5107422-2.1318359-3.765625-4.8867188-3.765625-8.265625
			C9.5019531,27.7138672,10.8994141,24.7294922,13.6933594,22.4091797z M38.3945313,32.8056641
			c2.1152344-1.1689453,3.6552734-2.1708984,4.6181641-3.0078125c1.3105469-1.1689453,2.3603516-2.6523438,3.1494141-4.4521484
			l0.3320313-0.7578125c0.8046875-1.8320313,1.7207031-3.1503906,2.7470703-3.9550781
			c-7.3574219,0.3789063-10.9804688,3.9785156-10.8701172,10.7988281L38.3945313,32.8056641z"/>
	</g>
</g>
</svg>
