<?xml version="1.0" encoding="utf-8"?>
<!-- Generator: Adobe Illustrator 15.0.2, SVG Export Plug-In . SVG Version: 6.00 Build 0)  -->
<!DOCTYPE svg PUBLIC "-//W3C//DTD SVG 1.1//EN" "http://www.w3.org/Graphics/SVG/1.1/DTD/svg11.dtd">
<svg version="1.1" id="レイヤー_1" xmlns="http://www.w3.org/2000/svg" xmlns:xlink="http://www.w3.org/1999/xlink" x="0px"
	 y="0px" width="64px" height="64px" viewBox="0 0 64 64" enable-background="new 0 0 64 64" xml:space="preserve">
<g>
	<path fill="#FFC98F" stroke="#210601" stroke-width="2" stroke-miterlimit="10" d="M42.587,35.177l-2.262-5.927
		c0-0.111,0.009,0.111,0.009,0c0-11.322-3.693-20.5-8.25-20.5c-4.417,0-8.013,9.659-8.229,20.5l-3.558,6.466
		c-2.389,1.373-3.964,3.708-3.964,6.366c0,3.898,3.385,7.108,7.763,7.596c1.061,3.216,4.492,5.572,8.57,5.572
		c4.186,0,7.688-2.481,8.648-5.825c3.674-0.947,6.353-3.874,6.353-7.343C47.667,39.031,45.589,36.408,42.587,35.177z"/>
	<path fill="#E09563" d="M44.629,36.333c0,0-0.117,0.449-0.349,1.166c-0.29-0.36-0.648-0.713-1.086-1.052
		c0.088-0.07,0.139-0.114,0.139-0.114s-3-3.666-2.833-10.833s-5.109-15.032-5.109-15.032S31.167,26,34,34
		c1.35,3.813,3.531,4.519,5.447,4.216c1.118,0.833,2.423,2.068,3.067,3.631c-0.78,1.564-1.778,3.191-3.015,4.486
		c-3.5,3.666-6.167,7.334-6.167,7.334c2.333,3.834,7.981-4.242,7.981-4.242C52.5,44.667,44.629,36.333,44.629,36.333z"/>
	<path fill="none" stroke="#210601" stroke-width="2" stroke-miterlimit="10" d="M42.587,35.177l-2.262-5.927
		c0-0.111,0.009,0.111,0.009,0c0-11.322-3.693-20.5-8.25-20.5c-4.417,0-8.013,9.659-8.229,20.5l-3.558,6.466
		c-2.389,1.373-3.964,3.708-3.964,6.366c0,3.898,3.385,7.108,7.763,7.596c1.061,3.216,4.492,5.572,8.57,5.572
		c4.186,0,7.688-2.481,8.648-5.825c3.674-0.947,6.353-3.874,6.353-7.343C47.667,39.031,45.589,36.408,42.587,35.177z"/>
</g>
</svg>
