<?xml version="1.0" encoding="utf-8"?>
<!-- Generator: Adobe Illustrator 15.0.2, SVG Export Plug-In . SVG Version: 6.00 Build 0)  -->
<!DOCTYPE svg PUBLIC "-//W3C//DTD SVG 1.1//EN" "http://www.w3.org/Graphics/SVG/1.1/DTD/svg11.dtd">
<svg version="1.1" id="レイヤー_1" xmlns="http://www.w3.org/2000/svg" xmlns:xlink="http://www.w3.org/1999/xlink" x="0px"
	 y="0px" width="64px" height="64px" viewBox="0 0 64 64" enable-background="new 0 0 64 64" xml:space="preserve">
<g>
	<g>
		<linearGradient id="SVGID_1_" gradientUnits="userSpaceOnUse" x1="32.2344" y1="10.8813" x2="36.5501" y2="56.2373">
			<stop  offset="0" style="stop-color:#DF7000"/>
			<stop  offset="1" style="stop-color:#9F3900"/>
		</linearGradient>
		<path fill="url(#SVGID_1_)" d="M54.418,53.654c0,1.1-0.9,2-2,2H15.681c-1.1,0-2-0.9-2-2V6.261c0-1.1,0.9-2,2-2h36.737
			c1.1,0,2,0.9,2,2V53.654z"/>
		<path fill="none" stroke="#231815" stroke-miterlimit="20" d="M54.418,53.654c0,1.1-0.9,2-2,2H15.681c-1.1,0-2-0.9-2-2V6.261
			c0-1.1,0.9-2,2-2h36.737c1.1,0,2,0.9,2,2V53.654z"/>
	</g>
	<g>
		<polygon fill="none" stroke="#350D07" stroke-width="1.0132" stroke-miterlimit="20" points="53.188,9.261 12.123,9.261 
			16.14,6.064 53.188,6.064 		"/>
		<polygon fill="#FFFFFF" points="53.188,9.261 12.123,9.261 16.14,6.064 53.188,6.064 		"/>
	</g>
	<g>
		<linearGradient id="SVGID_2_" gradientUnits="userSpaceOnUse" x1="31.9995" y1="17.373" x2="31.9995" y2="50.0913">
			<stop  offset="0" style="stop-color:#DF7000"/>
			<stop  offset="1" style="stop-color:#9F3900"/>
		</linearGradient>
		<path fill="url(#SVGID_2_)" d="M51.776,6.744c-0.801,0.753-2.357,1.37-3.457,1.37H11.582c-1.1,0-2,0.9-2,2v47.393c0,1.1,0.9,2,2,2
			h36.737c1.1,0,2.656-0.616,3.457-1.369l1.185-1.113c0.801-0.753,1.457-2.27,1.457-3.369V6.261c0-1.1-0.656-1.384-1.457-0.63
			L51.776,6.744z"/>
		<path fill="none" stroke="#231815" stroke-linejoin="round" stroke-miterlimit="13" d="M51.776,6.744
			c-0.801,0.753-2.357,1.37-3.457,1.37H11.582c-1.1,0-2,0.9-2,2v47.393c0,1.1,0.9,2,2,2h36.737c1.1,0,2.656-0.616,3.457-1.369
			l1.185-1.113c0.801-0.753,1.457-2.27,1.457-3.369V6.261c0-1.1-0.656-1.384-1.457-0.63L51.776,6.744z"/>
	</g>
	<linearGradient id="SVGID_3_" gradientUnits="userSpaceOnUse" x1="47.9063" y1="15.9233" x2="51.8878" y2="57.7672">
		<stop  offset="0" style="stop-color:#DF7000"/>
		<stop  offset="1" style="stop-color:#9F3900"/>
	</linearGradient>
	
		<line opacity="0.5" fill="url(#SVGID_3_)" stroke="#54190E" stroke-width="1.0132" stroke-miterlimit="20" x1="49.581" y1="8.195" x2="49.581" y2="58.851"/>
	<g>
		<path fill="#470802" d="M20.13,21.371h-0.731c-0.03,0-0.069,0.015-0.069-0.09V20.2c0-0.06,0.013-0.15,0.066-0.15h3.551
			c0.156,0,2.311,0.398,2.311,2.808c0,2.402-1.736,2.822-2.476,2.822h-3.313c-0.065,0-0.138,0-0.138-0.188v-0.894
			c0-0.112,0.006-0.255,0.073-0.255h0.728V21.371z M21.813,24.344h0.609c0.38,0,0.952-0.473,0.952-1.486
			c0-1.059-0.625-1.486-0.787-1.486h-0.774V24.344z"/>
		<path fill="#470802" d="M28.049,24.531c0.027,0,0.043,0.045,0.043,0.083v0.991c0,0.06-0.017,0.075-0.043,0.075H25.51
			c-0.02,0-0.033-0.067-0.033-0.105v-0.968c0-0.045,0.023-0.075,0.04-0.075h0.585v-1.696h-0.565c-0.037,0-0.06-0.023-0.06-0.075
			v-0.938c0-0.09,0.02-0.143,0.053-0.143h1.914c0.027,0,0.043,0.038,0.043,0.076v2.777H28.049z M27.312,20.05
			c0.037,0,0.063,0.03,0.063,0.113v1.036c0,0.045-0.013,0.098-0.046,0.098H26.27c-0.026,0-0.043-0.007-0.043-0.06v-1.119
			c0-0.03,0.017-0.067,0.046-0.067H27.312z"/>
		<path fill="#470802" d="M31.98,24.141c0,0.038,0.039,0.406,0.237,0.406c0.241,0,0.258-0.57,0.258-0.601
			c0-0.038,0.011-0.067,0.03-0.067h0.413c0.007,0,0.014,0.015,0.014,0.038c0,1.306-0.479,1.764-0.823,1.764h-0.922
			c-0.311,0-0.542-0.39-0.632-0.728c-0.165,0.541-0.763,0.743-0.896,0.743c-0.4,0-1.369-0.083-1.369-1.178
			c0-1.104,1.071-1.261,1.221-1.261h0.565c0.155,0,0.473-0.09,0.473-0.3c0-0.248-0.172-0.345-0.314-0.345h-0.414
			c-0.156,0-0.374,0.322-0.453,0.398c-0.086,0.083-0.463,0.285-0.595,0.285c-0.119,0-0.459-0.142-0.459-0.698
			c0-0.833,0.681-0.938,1.742-0.938c1.2,0,1.925,0.143,1.925,1.374V24.141z M30.542,23.488h-0.006
			c-0.037,0.12-0.156,0.375-0.301,0.45c-0.239,0.12-0.427,0.172-0.427,0.458c0,0.165,0.145,0.18,0.198,0.18
			c0.281,0,0.535-0.18,0.535-0.781V23.488z"/>
		<path fill="#470802" d="M36.172,21.656c0.23,0,0.589,0.353,0.589,0.931c0,0.541-0.248,0.841-0.48,0.841
			c-0.228,0-0.39-0.24-0.479-0.375c-0.089-0.142-0.178-0.195-0.283-0.195c-0.149,0-0.44,0.285-0.44,0.803v0.864h0.569
			c0.023,0,0.039,0.045,0.039,0.083v0.991c0,0.053-0.03,0.083-0.053,0.083h-2.526c-0.02,0-0.039-0.053-0.039-0.09v-0.991
			c0-0.045,0.022-0.075,0.039-0.075h0.592v-1.689h-0.571c-0.037,0-0.06-0.023-0.06-0.075v-0.938c0-0.09,0.022-0.143,0.056-0.143
			h1.911c0.026,0,0.043,0.038,0.043,0.076v0.66c0.136-0.345,0.482-0.758,0.867-0.758H36.172z"/>
		<path fill="#470802" d="M38.345,26.888c-0.195,0-1.313-0.053-1.313-1.051c0-0.691,0.433-0.9,0.559-0.9
			c0.168,0,0.582,0.075,0.813,0.78c0.037,0.015,0.119,0.015,0.139,0.015c0.1,0,0.14-0.12,0.14-0.233
			c0-0.135-0.021-0.202-0.053-0.285l-1.032-2.402h-0.642c-0.036,0-0.06-0.03-0.06-0.075v-0.916c0-0.09,0.023-0.143,0.057-0.143
			h2.698c0.026,0,0.046,0.038,0.046,0.076V22.7c0,0.052-0.007,0.112-0.02,0.112h-0.479l0.535,1.247l0.546-1.247h-0.424
			c-0.022,0-0.029-0.037-0.029-0.075v-0.991c0-0.03,0.016-0.067,0.033-0.067h1.864c0.018,0,0.033,0.023,0.033,0.053v0.983
			c0,0.037-0.014,0.097-0.02,0.097h-0.56l-1.438,3.213c-0.04,0.089-0.434,0.863-0.876,0.863H38.345z"/>
	</g>
</g>
</svg>
