<?xml version="1.0" encoding="utf-8"?>
<!-- Generator: Adobe Illustrator 15.0.2, SVG Export Plug-In . SVG Version: 6.00 Build 0)  -->
<!DOCTYPE svg PUBLIC "-//W3C//DTD SVG 1.1//EN" "http://www.w3.org/Graphics/SVG/1.1/DTD/svg11.dtd">
<svg version="1.1" id="レイヤー_1" xmlns="http://www.w3.org/2000/svg" xmlns:xlink="http://www.w3.org/1999/xlink" x="0px"
	 y="0px" width="64px" height="64px" viewBox="0 0 64 64" enable-background="new 0 0 64 64" xml:space="preserve">
<g>
	<polygon fill="#3D3D3D" points="22.375,12.375 24.417,17.417 23.75,18.667 15.458,28.292 12.792,29.75 11.542,29.958 5,22.083 
		10.5,12.75 	"/>
	<path fill="#D8D5D3" d="M14.688,16.375c1.438-0.417,7.479-3.25,7.688-4c-2.292-2-4.25-3.25-4.25-3.25
		c-3.563,0.125-7.438,3.188-7.688,3.813C10.438,12.938,13.375,15.417,14.688,16.375z"/>
	<path fill="#969696" d="M8.917,25.333c1.625-0.792,5.833-8.333,5.771-8.958l-4.25-3.438C8.292,14.5,5.583,18.958,5,22.083
		L8.917,25.333z"/>
	<path fill="#BABABA" d="M11.542,29.958c0.042-0.75-1.5-4-2.625-4.625L5,22.083c-0.042,1.167,1.958,4.042,2.125,4.333
		C7.125,26.417,11,29.958,11.542,29.958z"/>
	<linearGradient id="SVGID_1_" gradientUnits="userSpaceOnUse" x1="27.0332" y1="37.9209" x2="35.5271" y2="27.7982">
		<stop  offset="0" style="stop-color:#4D4D4D"/>
		<stop  offset="0.0913" style="stop-color:#737373"/>
		<stop  offset="0.2674" style="stop-color:#B9B9B9"/>
		<stop  offset="0.3498" style="stop-color:#D4D4D4"/>
		<stop  offset="0.3685" style="stop-color:#C8C8C8"/>
		<stop  offset="0.5079" style="stop-color:#737373"/>
		<stop  offset="0.5714" style="stop-color:#525252"/>
		<stop  offset="0.6206" style="stop-color:#595959"/>
		<stop  offset="0.6943" style="stop-color:#6E6E6E"/>
		<stop  offset="0.7828" style="stop-color:#8F8F8F"/>
		<stop  offset="0.8621" style="stop-color:#B3B3B3"/>
		<stop  offset="0.8963" style="stop-color:#B0B0B0"/>
		<stop  offset="0.919" style="stop-color:#A7A7A7"/>
		<stop  offset="0.9384" style="stop-color:#989898"/>
		<stop  offset="0.956" style="stop-color:#838383"/>
		<stop  offset="0.9722" style="stop-color:#676767"/>
		<stop  offset="0.9874" style="stop-color:#464646"/>
		<stop  offset="1" style="stop-color:#242424"/>
	</linearGradient>
	<path fill="url(#SVGID_1_)" d="M32.125,26.146c0.292,0.021,1.376-0.063,1.646,0.708S34,27.417,34,27.417s0.543-0.021,0.709,0.021
		s0.666,1.063,0.666,1.063c0.438,0,0.938,0.031,1.078,0.344s0.401,0.886,0.401,0.886c0.349-0.089,1.052-0.011,1.239,0.442
		s0.141,0.688,0.141,0.688c0.453-0.031,1.016-0.047,1.25,0.375s0.286,0.891,0.286,0.891c0.292-0.094,0.854-0.094,1.151,0.203
		s0.328,0.901,0.328,0.901c0.063,0.005,0.594,0.036,0.594,0.036l-2.453,2.031l-5.625,8.031c-0.406-0.063-0.094-0.016-0.516-0.219
		s-0.484-0.766-0.484-0.766l-0.313-0.172l-1.094-1.063l-0.25-0.125l-1.219-1.141H29.75l-0.469-0.172
		c-0.203-0.047-0.719-0.531-0.922-0.984s-0.906-0.469-0.906-0.469c-0.531-0.453-0.531-0.568-0.516-0.823
		c-0.484,0.042-1.172-0.349-1.438-1.271s-0.938-0.781-0.938-0.781c-0.141,0-0.219-0.125-0.406-0.469l-0.859-0.531l0.094-5.516
		l4.813-3.563l3.109,0.047l0.344,0.172L32.125,26.146z"/>
	<g>
		<linearGradient id="SVGID_2_" gradientUnits="userSpaceOnUse" x1="23.959" y1="35.0273" x2="31.9487" y2="25.5056">
			<stop  offset="0" style="stop-color:#7F7F7F"/>
			<stop  offset="0.1257" style="stop-color:#646464"/>
			<stop  offset="0.2401" style="stop-color:#535353"/>
			<stop  offset="0.3251" style="stop-color:#4D4D4D"/>
			<stop  offset="0.6764" style="stop-color:#767676"/>
			<stop  offset="0.798" style="stop-color:#858585"/>
			<stop  offset="0.8653" style="stop-color:#828282"/>
			<stop  offset="0.9018" style="stop-color:#7A7A7A"/>
			<stop  offset="0.931" style="stop-color:#6D6D6D"/>
			<stop  offset="0.9563" style="stop-color:#595959"/>
			<stop  offset="0.9788" style="stop-color:#404040"/>
			<stop  offset="0.9995" style="stop-color:#222222"/>
			<stop  offset="1" style="stop-color:#212121"/>
		</linearGradient>
		<path fill="url(#SVGID_2_)" d="M25.5,36.125c-0.438-0.063-1.375-0.656-1.125-2.313s1.5-4.281,2.938-5.656s2.778-2.719,4.219-2.719
			c0.313,0,0.719,0.156,0.969,0.75c-1.781,0.313-3,1.406-3.844,2.313S24.938,32.313,25.5,36.125z"/>
		<linearGradient id="SVGID_3_" gradientUnits="userSpaceOnUse" x1="25.3389" y1="36.2021" x2="33.4694" y2="26.5126">
			<stop  offset="0" style="stop-color:#7F7F7F"/>
			<stop  offset="0.1257" style="stop-color:#646464"/>
			<stop  offset="0.2401" style="stop-color:#535353"/>
			<stop  offset="0.3251" style="stop-color:#4D4D4D"/>
			<stop  offset="0.6764" style="stop-color:#767676"/>
			<stop  offset="0.798" style="stop-color:#858585"/>
			<stop  offset="0.8653" style="stop-color:#828282"/>
			<stop  offset="0.9018" style="stop-color:#7A7A7A"/>
			<stop  offset="0.931" style="stop-color:#6D6D6D"/>
			<stop  offset="0.9563" style="stop-color:#595959"/>
			<stop  offset="0.9788" style="stop-color:#404040"/>
			<stop  offset="0.9995" style="stop-color:#222222"/>
			<stop  offset="1" style="stop-color:#212121"/>
		</linearGradient>
		<path fill="url(#SVGID_3_)" d="M26.938,37.396c-0.479-0.063-2.208-1.333-0.479-4.833s3.375-4.604,4.292-5.208
			s2.938-1.771,3.25,0.063c-1.854,0.313-3.812,2.354-4.292,2.938s-2.563,3.542-2.771,4.875S26.792,36.896,26.938,37.396z"/>
		<linearGradient id="SVGID_4_" gradientUnits="userSpaceOnUse" x1="26.6733" y1="37.6074" x2="35.0648" y2="27.6069">
			<stop  offset="0" style="stop-color:#7F7F7F"/>
			<stop  offset="0.1257" style="stop-color:#646464"/>
			<stop  offset="0.2401" style="stop-color:#535353"/>
			<stop  offset="0.3251" style="stop-color:#4D4D4D"/>
			<stop  offset="0.6764" style="stop-color:#767676"/>
			<stop  offset="0.798" style="stop-color:#858585"/>
			<stop  offset="0.8653" style="stop-color:#828282"/>
			<stop  offset="0.9018" style="stop-color:#7A7A7A"/>
			<stop  offset="0.931" style="stop-color:#6D6D6D"/>
			<stop  offset="0.9563" style="stop-color:#595959"/>
			<stop  offset="0.9788" style="stop-color:#404040"/>
			<stop  offset="0.9995" style="stop-color:#222222"/>
			<stop  offset="1" style="stop-color:#212121"/>
		</linearGradient>
		<path fill="url(#SVGID_4_)" d="M35.375,28.5c0.125-0.521-0.354-1.354-1.25-1s-2.396,0.917-4.417,3.333s-2.956,5.241-2.646,6.646
			c0.229,1.042,0.896,1.041,1.354,1.208c-0.125-3.708,1.541-5.438,2.458-6.646C31.792,30.833,33.375,29.083,35.375,28.5z"/>
		<linearGradient id="SVGID_5_" gradientUnits="userSpaceOnUse" x1="28.1167" y1="38.7813" x2="36.4699" y2="28.8263">
			<stop  offset="0" style="stop-color:#7F7F7F"/>
			<stop  offset="0.1257" style="stop-color:#646464"/>
			<stop  offset="0.2401" style="stop-color:#535353"/>
			<stop  offset="0.3251" style="stop-color:#4D4D4D"/>
			<stop  offset="0.6764" style="stop-color:#767676"/>
			<stop  offset="0.798" style="stop-color:#858585"/>
			<stop  offset="0.8653" style="stop-color:#828282"/>
			<stop  offset="0.9018" style="stop-color:#7A7A7A"/>
			<stop  offset="0.931" style="stop-color:#6D6D6D"/>
			<stop  offset="0.9563" style="stop-color:#595959"/>
			<stop  offset="0.9788" style="stop-color:#404040"/>
			<stop  offset="0.9995" style="stop-color:#222222"/>
			<stop  offset="1" style="stop-color:#212121"/>
		</linearGradient>
		<path fill="url(#SVGID_5_)" d="M29.813,39.875c-0.875-0.041-1.646-1.021-1.229-2.688s1.521-3.833,2.208-4.708
			s2.771-2.938,3.708-3.396s2.125-0.979,2.354,0.646c-1.563,0.375-2.979,1.333-4.313,3c-1.333,1.667-2.271,3.458-2.458,4.146
			S29.604,38.604,29.813,39.875z"/>
		<linearGradient id="SVGID_6_" gradientUnits="userSpaceOnUse" x1="29.5103" y1="39.9834" x2="37.9152" y2="29.9668">
			<stop  offset="0" style="stop-color:#7F7F7F"/>
			<stop  offset="0.1257" style="stop-color:#646464"/>
			<stop  offset="0.2401" style="stop-color:#535353"/>
			<stop  offset="0.3251" style="stop-color:#4D4D4D"/>
			<stop  offset="0.6764" style="stop-color:#767676"/>
			<stop  offset="0.798" style="stop-color:#858585"/>
			<stop  offset="0.8653" style="stop-color:#828282"/>
			<stop  offset="0.9018" style="stop-color:#7A7A7A"/>
			<stop  offset="0.931" style="stop-color:#6D6D6D"/>
			<stop  offset="0.9563" style="stop-color:#595959"/>
			<stop  offset="0.9788" style="stop-color:#404040"/>
			<stop  offset="0.9995" style="stop-color:#222222"/>
			<stop  offset="1" style="stop-color:#212121"/>
		</linearGradient>
		<path fill="url(#SVGID_6_)" d="M31.229,41.042c-0.563,0.104-1.583-0.688-1.458-2s1.521-3.833,2.167-4.938s2.625-3.083,3.688-3.646
			s2.625-1.208,2.667,0.417c-0.958,0.208-3.501,1.98-4.042,2.834s-2.167,2.771-2.688,4.646S31.167,40.729,31.229,41.042z"/>
		<linearGradient id="SVGID_7_" gradientUnits="userSpaceOnUse" x1="30.9419" y1="41.1934" x2="39.3915" y2="31.1236">
			<stop  offset="0" style="stop-color:#7F7F7F"/>
			<stop  offset="0.1257" style="stop-color:#646464"/>
			<stop  offset="0.2401" style="stop-color:#535353"/>
			<stop  offset="0.3251" style="stop-color:#4D4D4D"/>
			<stop  offset="0.6764" style="stop-color:#767676"/>
			<stop  offset="0.798" style="stop-color:#858585"/>
			<stop  offset="0.8653" style="stop-color:#828282"/>
			<stop  offset="0.9018" style="stop-color:#7A7A7A"/>
			<stop  offset="0.931" style="stop-color:#6D6D6D"/>
			<stop  offset="0.9563" style="stop-color:#595959"/>
			<stop  offset="0.9788" style="stop-color:#404040"/>
			<stop  offset="0.9995" style="stop-color:#222222"/>
			<stop  offset="1" style="stop-color:#212121"/>
		</linearGradient>
		<path fill="url(#SVGID_7_)" d="M32.708,42.292c-0.729-0.063-1.979-0.75-1.25-2.917c0.68-2.021,2.083-4.668,3.312-5.917
			c1.229-1.25,3.188-2.375,3.729-2.437s1.291-0.083,1.271,1.104c-1,0.188-2.77,1.376-3.416,2.042s-2.522,3.395-3.021,4.604
			C32.833,39.979,32.542,41.167,32.708,42.292z"/>
		<linearGradient id="SVGID_8_" gradientUnits="userSpaceOnUse" x1="32.2334" y1="42.2822" x2="40.7293" y2="32.1572">
			<stop  offset="0" style="stop-color:#7F7F7F"/>
			<stop  offset="0.1257" style="stop-color:#646464"/>
			<stop  offset="0.2401" style="stop-color:#535353"/>
			<stop  offset="0.3251" style="stop-color:#4D4D4D"/>
			<stop  offset="0.6764" style="stop-color:#767676"/>
			<stop  offset="0.798" style="stop-color:#858585"/>
			<stop  offset="0.8653" style="stop-color:#828282"/>
			<stop  offset="0.9018" style="stop-color:#7A7A7A"/>
			<stop  offset="0.931" style="stop-color:#6D6D6D"/>
			<stop  offset="0.9563" style="stop-color:#595959"/>
			<stop  offset="0.9788" style="stop-color:#404040"/>
			<stop  offset="0.9995" style="stop-color:#222222"/>
			<stop  offset="1" style="stop-color:#212121"/>
		</linearGradient>
		<path fill="url(#SVGID_8_)" d="M33.646,43.313c-0.604-0.167-1.375-0.833-0.667-2.771s1.812-4.105,2.917-5.334s2.751-2.77,4.021-3
			s1.333,0.542,1.333,1.021c-1.667,0.604-3.104,1.938-3.708,2.688s-1.959,2.457-2.417,3.479s-0.708,1.791-0.771,2.313L33.646,43.313
			z"/>
		<linearGradient id="SVGID_9_" gradientUnits="userSpaceOnUse" x1="34.1133" y1="41.5049" x2="40.6865" y2="33.6712">
			<stop  offset="0" style="stop-color:#7F7F7F"/>
			<stop  offset="0.1257" style="stop-color:#646464"/>
			<stop  offset="0.2401" style="stop-color:#535353"/>
			<stop  offset="0.3251" style="stop-color:#4D4D4D"/>
			<stop  offset="0.6764" style="stop-color:#767676"/>
			<stop  offset="0.798" style="stop-color:#858585"/>
			<stop  offset="0.8653" style="stop-color:#828282"/>
			<stop  offset="0.9018" style="stop-color:#7A7A7A"/>
			<stop  offset="0.931" style="stop-color:#6D6D6D"/>
			<stop  offset="0.9563" style="stop-color:#595959"/>
			<stop  offset="0.9788" style="stop-color:#404040"/>
			<stop  offset="0.9995" style="stop-color:#222222"/>
			<stop  offset="1" style="stop-color:#212121"/>
		</linearGradient>
		<path fill="url(#SVGID_9_)" d="M38.063,35.771c0.396-0.4,2.042-1.792,2.667-2.063c-1.188,1.396-3.521,5.125-3.521,5.125
			l-2.438,3.021l-0.416-0.146C35.625,38.771,36.229,37.624,38.063,35.771z"/>
	</g>
	<linearGradient id="SVGID_10_" gradientUnits="userSpaceOnUse" x1="17.6108" y1="30.0591" x2="25.8919" y2="20.19">
		<stop  offset="0" style="stop-color:#4D4D4D"/>
		<stop  offset="0.0913" style="stop-color:#737373"/>
		<stop  offset="0.2674" style="stop-color:#B9B9B9"/>
		<stop  offset="0.3498" style="stop-color:#D4D4D4"/>
		<stop  offset="0.3685" style="stop-color:#C8C8C8"/>
		<stop  offset="0.5079" style="stop-color:#737373"/>
		<stop  offset="0.5714" style="stop-color:#525252"/>
		<stop  offset="0.6206" style="stop-color:#595959"/>
		<stop  offset="0.6943" style="stop-color:#6E6E6E"/>
		<stop  offset="0.7828" style="stop-color:#8F8F8F"/>
		<stop  offset="0.8621" style="stop-color:#B3B3B3"/>
		<stop  offset="0.8963" style="stop-color:#B0B0B0"/>
		<stop  offset="0.919" style="stop-color:#A7A7A7"/>
		<stop  offset="0.9384" style="stop-color:#989898"/>
		<stop  offset="0.956" style="stop-color:#838383"/>
		<stop  offset="0.9722" style="stop-color:#676767"/>
		<stop  offset="0.9874" style="stop-color:#464646"/>
		<stop  offset="1" style="stop-color:#242424"/>
	</linearGradient>
	<path fill="url(#SVGID_10_)" d="M13.208,26.333l9,7.583l1.375,0.583c-0.833-2.083,1.167-4.708,2.167-6.042s3.458-3.625,5.625-3.083
		l-1.042-1.458l-8.083-6.458c-3.75-0.042-4.625,1.042-5.958,2.5C15.078,21.287,13.167,23.458,13.208,26.333z"/>
	<linearGradient id="SVGID_11_" gradientUnits="userSpaceOnUse" x1="21.7266" y1="33.5127" x2="30.0077" y2="23.6437">
		<stop  offset="0" style="stop-color:#4D4D4D"/>
		<stop  offset="0.0183" style="stop-color:#5E5E5E"/>
		<stop  offset="0.063" style="stop-color:#828282"/>
		<stop  offset="0.1101" style="stop-color:#A0A0A0"/>
		<stop  offset="0.1597" style="stop-color:#B7B7B7"/>
		<stop  offset="0.2128" style="stop-color:#C7C7C7"/>
		<stop  offset="0.2721" style="stop-color:#D1D1D1"/>
		<stop  offset="0.3498" style="stop-color:#D4D4D4"/>
		<stop  offset="0.4121" style="stop-color:#A1A1A1"/>
		<stop  offset="0.5215" style="stop-color:#4D4D4D"/>
		<stop  offset="0.5714" style="stop-color:#2B2B2B"/>
		<stop  offset="0.7033" style="stop-color:#3F3F3F"/>
		<stop  offset="0.8276" style="stop-color:#4D4D4D"/>
		<stop  offset="0.8515" style="stop-color:#454545"/>
		<stop  offset="0.9436" style="stop-color:#2D2D2D"/>
		<stop  offset="1" style="stop-color:#242424"/>
	</linearGradient>
	<path fill="url(#SVGID_11_)" d="M30.333,23.917l1.042,1.458c-2.167-0.542-4.625,1.75-5.625,3.083s-3,3.958-2.167,6.042
		l-1.375-0.583c-1.302-1.386-0.49-3.948,2.073-6.792S28.323,23.24,30.333,23.917z"/>
	<path fill="#3D3D3D" d="M45.656,53.188c-0.531,0.406-2.344,0.938-3.125,0.719s-1.906-2.656-1.375-4s3.594-5.875,4.5-6.938
		s4.188-4.5,5.625-4.781s2.813-0.156,3.125,0.938s-0.125,3.281-0.625,3.938S45.656,53.188,45.656,53.188z"/>
	<path fill="#595959" d="M45.531,53.25c-0.844,0.781-4.104,1.523-5.052,1.23s-2.292-5.387-2.292-5.387l6.219-9.5l8-3.938
		c0.875,0.5,1.781,2.906,2,3.469C53.25,38.5,52,38,49.125,40.375s-6.281,7.063-6.875,9.125s-1.221,2.612,0.271,4.104
		C43.063,54.146,44.104,53.729,45.531,53.25z"/>
	<path fill="#EAEAEA" d="M45.5,40.219c0,1.25-0.296,3.532-1.531,5.313c-1.063,1.531-2.688,3.188-4.813,4.344l-5.844-4.719
		c0.375-3.843,5.281-9.313,6.25-9.75L45.5,40.219z"/>
	<path fill="#BCBCBC" d="M45.5,40.219c1.5-0.125,6.938-0.938,7.063-4.375l-5.625-4.313c-0.844-0.344-7,1.938-7.375,3.875
		L45.5,40.219z"/>
	<path fill="#828282" d="M34.521,49.605l5.958,4.875c0.583-0.375,0.876-1.666-1.396-4.625l-5.771-4.699
		C33.167,45.396,33.146,46.98,34.521,49.605z"/>
	<linearGradient id="SVGID_12_" gradientUnits="userSpaceOnUse" x1="45.7813" y1="53.6963" x2="54.5544" y2="43.2408">
		<stop  offset="0" style="stop-color:#4D4D4D"/>
		<stop  offset="0.0913" style="stop-color:#737373"/>
		<stop  offset="0.2674" style="stop-color:#B9B9B9"/>
		<stop  offset="0.3498" style="stop-color:#D4D4D4"/>
		<stop  offset="0.3685" style="stop-color:#C8C8C8"/>
		<stop  offset="0.5079" style="stop-color:#737373"/>
		<stop  offset="0.5714" style="stop-color:#525252"/>
		<stop  offset="0.6206" style="stop-color:#595959"/>
		<stop  offset="0.6943" style="stop-color:#6E6E6E"/>
		<stop  offset="0.7828" style="stop-color:#8F8F8F"/>
		<stop  offset="0.8621" style="stop-color:#B3B3B3"/>
		<stop  offset="0.8963" style="stop-color:#B0B0B0"/>
		<stop  offset="0.919" style="stop-color:#A7A7A7"/>
		<stop  offset="0.9384" style="stop-color:#989898"/>
		<stop  offset="0.956" style="stop-color:#838383"/>
		<stop  offset="0.9722" style="stop-color:#676767"/>
		<stop  offset="0.9874" style="stop-color:#464646"/>
		<stop  offset="1" style="stop-color:#242424"/>
	</linearGradient>
	<path fill="url(#SVGID_12_)" d="M51.584,41.958c0.208,0,1.084-0.041,1.229,0.042s0.249,1.313,0.249,1.313s0.297-0.094,0.406-0.031
		s1.375,1.141,1.375,1.141c0.344-0.078,1.328-0.313,1.438,0.531s-0.063,0.766-0.063,0.766l0.156,0.188l-2.094,1.688l-3.531,4.391
		l-0.734,4c-0.219-0.156-0.281-0.234-0.313-0.297s-1.016-0.109-1.016-0.109c-0.5-0.141-0.734-0.453-0.875-1.016s-0.734,0-0.734,0
		c-0.516-0.328-0.813-0.703-0.875-1.297s-0.344,0.031-0.344,0.031c-0.484-0.016-1.031,0.031-1.188-1.188s-0.625-1.734-0.625-1.734
		l2.641-5.094l3.031-3.031L51.584,41.958z"/>
	<g>
		<linearGradient id="SVGID_13_" gradientUnits="userSpaceOnUse" x1="42.9971" y1="51.25" x2="51.5753" y2="41.0268">
			<stop  offset="0" style="stop-color:#7F7F7F"/>
			<stop  offset="0.1257" style="stop-color:#646464"/>
			<stop  offset="0.2401" style="stop-color:#535353"/>
			<stop  offset="0.3251" style="stop-color:#4D4D4D"/>
			<stop  offset="0.6764" style="stop-color:#767676"/>
			<stop  offset="0.798" style="stop-color:#858585"/>
			<stop  offset="0.8653" style="stop-color:#828282"/>
			<stop  offset="0.9018" style="stop-color:#7A7A7A"/>
			<stop  offset="0.931" style="stop-color:#6D6D6D"/>
			<stop  offset="0.9563" style="stop-color:#595959"/>
			<stop  offset="0.9788" style="stop-color:#404040"/>
			<stop  offset="0.9995" style="stop-color:#222222"/>
			<stop  offset="1" style="stop-color:#212121"/>
		</linearGradient>
		<path fill="url(#SVGID_13_)" d="M44.672,52.109c-1.578-0.219-1.505-0.785-1.255-2.441s1.917-4.313,3.354-5.688
			c1.438-1.376,3.016-3.323,4.438-3.167c0.311,0.035,0.618,0.462,0.634,1.165c-1.28,0.271-2.546,1.646-3.39,2.553
			S44.093,49.327,44.672,52.109z"/>
		<linearGradient id="SVGID_14_" gradientUnits="userSpaceOnUse" x1="44.5879" y1="52.4326" x2="53.2197" y2="42.1456">
			<stop  offset="0" style="stop-color:#7F7F7F"/>
			<stop  offset="0.1257" style="stop-color:#646464"/>
			<stop  offset="0.2401" style="stop-color:#535353"/>
			<stop  offset="0.3251" style="stop-color:#4D4D4D"/>
			<stop  offset="0.6764" style="stop-color:#767676"/>
			<stop  offset="0.798" style="stop-color:#858585"/>
			<stop  offset="0.8653" style="stop-color:#828282"/>
			<stop  offset="0.9018" style="stop-color:#7A7A7A"/>
			<stop  offset="0.931" style="stop-color:#6D6D6D"/>
			<stop  offset="0.9563" style="stop-color:#595959"/>
			<stop  offset="0.9788" style="stop-color:#404040"/>
			<stop  offset="0.9995" style="stop-color:#222222"/>
			<stop  offset="1" style="stop-color:#212121"/>
		</linearGradient>
		<path fill="url(#SVGID_14_)" d="M53.063,43.313c0.594-0.844,0.409-1.456-0.875-1.359c-0.625,0.047-3.375,2.453-4.125,3.453
			s-1.854,2.285-2.234,3.156c-0.422,0.969-2.047,4.781,0.422,4.781c0.141-3.156,1.672-5.047,2.484-6.047s2-2.453,2.813-3.078
			S52.703,43.5,53.063,43.313z"/>
		<linearGradient id="SVGID_15_" gradientUnits="userSpaceOnUse" x1="46.0781" y1="53.7383" x2="54.7711" y2="43.3784">
			<stop  offset="0" style="stop-color:#7F7F7F"/>
			<stop  offset="0.1257" style="stop-color:#646464"/>
			<stop  offset="0.2401" style="stop-color:#535353"/>
			<stop  offset="0.3251" style="stop-color:#4D4D4D"/>
			<stop  offset="0.6764" style="stop-color:#767676"/>
			<stop  offset="0.798" style="stop-color:#858585"/>
			<stop  offset="0.8653" style="stop-color:#828282"/>
			<stop  offset="0.9018" style="stop-color:#7A7A7A"/>
			<stop  offset="0.931" style="stop-color:#6D6D6D"/>
			<stop  offset="0.9563" style="stop-color:#595959"/>
			<stop  offset="0.9788" style="stop-color:#404040"/>
			<stop  offset="0.9995" style="stop-color:#222222"/>
			<stop  offset="1" style="stop-color:#212121"/>
		</linearGradient>
		<path fill="url(#SVGID_15_)" d="M54.844,44.422c0.016-0.531,0.063-1.266-0.656-1.375s-2.359,1.078-2.516,1.266
			s-3.063,3.266-3.656,4.516s-1.868,3.225-1.5,4.813c0.297,1.281,1.031,0.922,1.297,0.922c-0.078-2.547,1.688-4.984,2.469-6
			S52.906,45.281,54.844,44.422z"/>
		<linearGradient id="SVGID_16_" gradientUnits="userSpaceOnUse" x1="47.7949" y1="54.9268" x2="56.2908" y2="44.8017">
			<stop  offset="0" style="stop-color:#7F7F7F"/>
			<stop  offset="0.1257" style="stop-color:#646464"/>
			<stop  offset="0.2401" style="stop-color:#535353"/>
			<stop  offset="0.3251" style="stop-color:#4D4D4D"/>
			<stop  offset="0.6764" style="stop-color:#767676"/>
			<stop  offset="0.798" style="stop-color:#858585"/>
			<stop  offset="0.8653" style="stop-color:#828282"/>
			<stop  offset="0.9018" style="stop-color:#7A7A7A"/>
			<stop  offset="0.931" style="stop-color:#6D6D6D"/>
			<stop  offset="0.9563" style="stop-color:#595959"/>
			<stop  offset="0.9788" style="stop-color:#404040"/>
			<stop  offset="0.9995" style="stop-color:#222222"/>
			<stop  offset="1" style="stop-color:#212121"/>
		</linearGradient>
		<path fill="url(#SVGID_16_)" d="M56.313,45.828c0.172-0.641,0.022-2.112-1.979-0.911c-2.604,1.563-4.854,5.042-5.25,5.75
			c-1.12,2-2.271,5.271,0.682,5.052c-0.619-1.218-0.197-3.57,1.942-6.447C53.521,46.834,54.334,46.334,56.313,45.828z"/>
		<linearGradient id="SVGID_17_" gradientUnits="userSpaceOnUse" x1="49.3525" y1="55.4443" x2="57.165" y2="46.1338">
			<stop  offset="0" style="stop-color:#7F7F7F"/>
			<stop  offset="0.1257" style="stop-color:#646464"/>
			<stop  offset="0.2401" style="stop-color:#535353"/>
			<stop  offset="0.3251" style="stop-color:#4D4D4D"/>
			<stop  offset="0.6764" style="stop-color:#767676"/>
			<stop  offset="0.798" style="stop-color:#858585"/>
			<stop  offset="0.8653" style="stop-color:#828282"/>
			<stop  offset="0.9018" style="stop-color:#7A7A7A"/>
			<stop  offset="0.931" style="stop-color:#6D6D6D"/>
			<stop  offset="0.9563" style="stop-color:#595959"/>
			<stop  offset="0.9788" style="stop-color:#404040"/>
			<stop  offset="0.9995" style="stop-color:#222222"/>
			<stop  offset="1" style="stop-color:#212121"/>
		</linearGradient>
		<path fill="url(#SVGID_17_)" d="M57.334,47.584c0.146-1.041,0.001-2.188-1.646-1.5s-4.188,3.729-5,5.417s-1.628,2.584-0.834,4.313
			c0.229,0.5,1.354,0.313,1.479,0.104S57.334,47.584,57.334,47.584z"/>
		<linearGradient id="SVGID_18_" gradientUnits="userSpaceOnUse" x1="50.0615" y1="55.291" x2="56.9551" y2="47.0756">
			<stop  offset="0" style="stop-color:#7F7F7F"/>
			<stop  offset="0.1257" style="stop-color:#646464"/>
			<stop  offset="0.2401" style="stop-color:#535353"/>
			<stop  offset="0.3251" style="stop-color:#4D4D4D"/>
			<stop  offset="0.6764" style="stop-color:#767676"/>
			<stop  offset="0.798" style="stop-color:#858585"/>
			<stop  offset="0.8653" style="stop-color:#828282"/>
			<stop  offset="0.9018" style="stop-color:#7A7A7A"/>
			<stop  offset="0.931" style="stop-color:#6D6D6D"/>
			<stop  offset="0.9563" style="stop-color:#595959"/>
			<stop  offset="0.9788" style="stop-color:#404040"/>
			<stop  offset="0.9995" style="stop-color:#222222"/>
			<stop  offset="1" style="stop-color:#212121"/>
		</linearGradient>
		<path fill="url(#SVGID_18_)" d="M57.646,48.834c-0.208-0.813-0.167-1.563-0.792-1.771s-2.021,0.104-3.063,1.25
			s-2.5,2.896-2.708,3.458s-1.354,2.438-0.917,3.375s1.146,0.875,1.146,0.875L57.646,48.834z"/>
	</g>
	<path fill="#AAAAAA" d="M57.604,48.584c0.296,0.557-0.209,2.521-1.688,4.271s-3.062,3.396-4.416,3.146s1.646-4.813,2.25-5.646
		S57.063,47.563,57.604,48.584z"/>
</g>
</svg>
