<?xml version="1.0" encoding="UTF-8" standalone="no"?>
<!-- Generator: Adobe Illustrator 15.0.2, SVG Export Plug-In . SVG Version: 6.00 Build 0)  -->

<svg
   xmlns:dc="http://purl.org/dc/elements/1.1/"
   xmlns:cc="http://creativecommons.org/ns#"
   xmlns:rdf="http://www.w3.org/1999/02/22-rdf-syntax-ns#"
   xmlns:svg="http://www.w3.org/2000/svg"
   xmlns="http://www.w3.org/2000/svg"
   xmlns:sodipodi="http://sodipodi.sourceforge.net/DTD/sodipodi-0.dtd"
   xmlns:inkscape="http://www.inkscape.org/namespaces/inkscape"
   version="1.1"
   id="レイヤー_1"
   x="0px"
   y="0px"
   width="64px"
   height="64px"
   viewBox="0 0 64 64"
   enable-background="new 0 0 64 64"
   xml:space="preserve"
   inkscape:version="0.48.4 r9939"
   sodipodi:docname="ok.svg"><metadata
     id="metadata36"><rdf:RDF><cc:Work
         rdf:about=""><dc:format>image/svg+xml</dc:format><dc:type
           rdf:resource="http://purl.org/dc/dcmitype/StillImage" /></cc:Work></rdf:RDF></metadata><defs
     id="defs34" /><sodipodi:namedview
     pagecolor="#ffffff"
     bordercolor="#666666"
     borderopacity="1"
     objecttolerance="10"
     gridtolerance="10"
     guidetolerance="10"
     inkscape:pageopacity="0"
     inkscape:pageshadow="2"
     inkscape:window-width="640"
     inkscape:window-height="480"
     id="namedview32" /><g
     id="g3"><g
       id="g5"><linearGradient
         id="SVGID_1_"
         gradientUnits="userSpaceOnUse"
         x1="32"
         y1="2.9961"
         x2="32"
         y2="60.9865"><stop
           offset="0"
           style="stop-color:#489F00"
           id="stop8" /><stop
           offset="1"
           style="stop-color:#00BF5B"
           id="stop10" /></linearGradient><path
         fill="url(#SVGID_1_)"
         stroke="#0BB20F"
         stroke-width="2"
         stroke-miterlimit="10"
         d="M62.205,50.205c0,6.627-5.373,12-12,12    h-36.41c-6.627,0-12-5.373-12-12v-36.41c0-6.627,5.373-12,12-12h36.41c6.627,0,12,5.373,12,12V50.205z"
         id="path12" /><g
         id="g14"><path
           opacity="0.28"
           fill="#FFFFFF"
           d="M2.672,13.369c-0.032,0.353-0.054,0.709-0.054,1.071v12.594     c0.006,0.006,0.012,0.012,0.017,0.018L2.672,13.369z"
           id="path16" /><path
           opacity="0.28"
           fill="#FFFFFF"
           d="M60.106,23.57c1.188-5.802,1.222-9.417,1.222-10.194     C60.79,7.428,55.797,2.767,49.71,2.767H14.291c-6.076,0-11.062,4.642-11.617,10.572c0.02,0.349,0.497,4.034,1.293,10.307     C11.207,30.701,21.092,35.055,32,35.055C42.945,35.055,52.859,30.669,60.106,23.57z"
           id="path18" /><path
           opacity="0.28"
           fill="#FFFFFF"
           d="M61.328,13.379l0.039,13.667c0.005-0.005,0.01-0.01,0.015-0.015V14.439     C61.382,14.082,61.359,13.729,61.328,13.379z"
           id="path20" /></g><path
         fill="#FFFFFF"
         d="M2.674,27.586c0,0-0.006-10.919-0.028-13.859c-0.027-3.6,3.244-10.89,10.375-10.89    c6.639,0,16.803,0,16.803,0S17.118,3.651,13.02,4.471s-7.494,6.043-8.442,9.263C3.198,18.415,2.674,27.586,2.674,27.586z"
         id="path22" /><path
         fill="#08870C"
         d="M61.001,37.832c0,0,0.006,10.233,0.027,12.989c0.026,3.373-3.141,10.207-10.048,10.207    c-6.428,0-16.27,0-16.27,0s12.304-0.764,16.272-1.532c3.967-0.769,7.254-5.663,8.174-8.681    C60.493,46.427,61.001,37.832,61.001,37.832z"
         id="path24" /></g><g
       id="g26"><path
         fill="#FFFFFF"
         d="M29.762,32.072c0,4.037-0.337,6.986-1.003,8.849c-1.126,3.152-3.311,4.729-6.556,4.729    c-3.25,0-5.436-1.576-6.559-4.729c-0.668-1.863-1.003-4.813-1.003-8.849c0-4.061,0.335-7.034,1.003-8.921    c1.123-3.2,3.309-4.8,6.559-4.8c3.245,0,5.43,1.6,6.556,4.8C29.425,25.038,29.762,28.011,29.762,32.072z M23.564,32.036    c0-3.2-0.051-5.254-0.144-6.162c-0.144-1.457-0.553-2.186-1.218-2.186c-0.672,0-1.075,0.729-1.219,2.186    c-0.099,0.907-0.143,2.961-0.143,6.162c0,3.177,0.044,5.207,0.143,6.09c0.144,1.434,0.547,2.149,1.219,2.149    c0.665,0,1.074-0.716,1.218-2.149C23.514,37.242,23.564,35.213,23.564,32.036z"
         id="path28" /><path
         fill="#FFFFFF"
         d="M49.358,45.005H42.73c0.024-0.263-0.144-0.788-0.501-1.576l-4.049-8.634l-0.215,0.322v8.419    c0,0.597,0.048,1.086,0.144,1.469h-6.341c0.095-0.431,0.143-0.92,0.143-1.469V20.464c0-0.573-0.048-1.075-0.143-1.505h6.341    c-0.096,0.382-0.144,0.884-0.144,1.505v5.338l3.618-5.374c0.383-0.621,0.621-1.11,0.717-1.469h6.95L42.05,29.42L49.358,45.005z"
         id="path30" /></g></g></svg>