<?xml version="1.0" encoding="utf-8"?>
<!-- Generator: Adobe Illustrator 18.0.0, SVG Export Plug-In . SVG Version: 6.00 Build 0)  -->
<!DOCTYPE svg PUBLIC "-//W3C//DTD SVG 1.1//EN" "http://www.w3.org/Graphics/SVG/1.1/DTD/svg11.dtd">
<svg version="1.1" id="レイヤー_1" xmlns="http://www.w3.org/2000/svg" xmlns:xlink="http://www.w3.org/1999/xlink" x="0px"
	 y="0px" width="64px" height="64px" viewBox="0 0 64 64" style="enable-background:new 0 0 64 64;" xml:space="preserve">
<g>
	<path style="fill:#BA713A;" d="M33.2743988,54.5098c0,0,11.9981003-5.0429993,14.3516006-10.6231003
		c2.2988014-5.4432983,3.2020988-16.4955997,3.485302-18.7406998C51.3848,22.9883003,47.5049019,13.9546003,46.1436005,11.5239
		c-1.3623009-2.4301996-8.4189987-9.0018997-8.4189987-9.0018997S35.1318016-0.1045,34.4628983,3.1963
		c-0.6689987,3.3003001,0.4297028,4.7993002,1.5976028,5.5653996c1.1660995,0.7660999,4.9941978,5.8003006,4.9941978,5.8003006
		s0.8398018,4.8661995,1.9491997,7.5741997c0,0-3.0985985,6.7266006-2.4442978,9.6655998
		C41.2139015,34.7402,32.0513,46.3945007,32.0513,46.3945007L33.2743988,54.5098z"/>
	<polygon style="fill:#7C3F16;" points="45.5770988,21.4785004 50.7333984,28.6459999 49.7607002,33.3788986 	"/>
	<polygon style="fill:#7C3F16;" points="40.3730011,12.8584003 43.0889015,13.915 41.4403992,15.7578001 	"/>
	<path style="fill:#210601;" d="M32.7504997,55.4424019l-1.3910999-9.2305031l0.1753006-0.2235985
		c3.4681988-4.4112015,8.8109989-12.125,8.3832989-14.0440006C39.2919998,29.1313,41.7139015,23.4214001,42.2910004,22.1201
		c-0.9706993-2.5170994-1.7031021-6.4364996-1.8554993-7.2866001c-1.4696999-1.9243002-3.9715996-5.0209999-4.735302-5.5229998
		c-1.8428001-1.2083998-2.4755974-3.3095002-1.8808975-6.2446003C34.205101,1.1592,35.2490005,0.8745,35.8368988,0.8745
		c1.1514015,0,2.2354012,1.0645001,2.3555031,1.1859999C38.4639015,2.3125,45.3203011,8.7114,46.7168007,11.2025995
		c1.1133003,1.9888,5.3642998,11.5201006,5.0458984,14.0259008c-0.0370979,0.3002987-0.0868988,0.7738991-0.1503983,1.3808994
		c-0.3935013,3.7845993-1.3174019,12.6474018-3.3809013,17.5332012C45.8017998,49.9023018,34.0293007,54.9053001,33.5293007,55.1152
		L32.7504997,55.4424019z M32.7431984,46.5770988l1.0527,6.982502c2.6592026-1.2139015,11.3398018-5.4580002,13.2246017-9.9277992
		c1.9883003-4.7060013,2.8974991-13.4321022,3.2851982-17.1587009c0.0643997-0.6196003,0.1152-1.1025009,0.1543007-1.4091015
		c0.2382011-1.8808994-3.4316978-10.6161995-4.889698-13.2192993c-1.2969017-2.3134995-8.2236023-8.7768002-8.2929993-8.8417997
		c-0.3261032-0.3260999-0.9824028-0.8144-1.440403-0.8144c-0.4130974,0-0.625,0.6191001-0.7304993,1.1382
		c-0.4842987,2.3901002-0.0545998,3.9877999,1.3144989,4.8857002c1.2246017,0.8051996,4.7578011,5.4276991,5.1562004,5.9521999
		l0.097702,0.1273994l0.027298,0.1582003c0.0079002,0.0478001,0.8409004,4.8275995,1.9092026,7.4369993l0.1083984,0.2642002
		l-0.1190987,0.2597008c-0.8360023,1.8155003-2.8964996,7.0165997-2.3994026,9.2481003
		C41.8652,34.642601,34.6348,44.1533012,32.7431984,46.5770988z"/>
	<path style="fill:#FFB997;" d="M43.7266006,53.25c0,0,7.2616997-10.8320007,6.3017006-16.9121017
		c-0.9589996-6.0824986-5.9717026-16.0302982-6.8711014-18.0375977c-0.8964996-2.0078011-8.7871017-7.6982002-11.1718006-9.057601
		C29.5991001,7.8838,22.4258003,6.5801001,22.4258003,6.5801001s-3.5015011-0.8632998-2.3374004,2.3431997
		c1.1650009,3.2070999,2.8491001,3.9053001,4.2084999,3.9351006c1.3598003,0.0302992,5.075201,1.7519999,5.075201,1.7519999
		s3.2201996,3.7417002,5.5429001,5.4759989c0,0,0.9444008,7.4722004,3.0098,9.652401
		c2.0663986,2.1791992,0.577198,17.1753006,0.577198,17.1753006L43.7266006,53.25z"/>
	<path style="fill:#420707;" d="M43.7803001,54.3437996l-5.9561005-7.2237015l0.027401-0.2704964
		c0.5634003-5.6836014,0.9540977-15.2319012-0.4014015-16.6611023C35.4716988,28.1000996,34.5,21.8495998,34.3027,20.4419003
		c-2.125-1.6562996-4.7910004-4.6753006-5.3325005-5.2964001C27.5590992,14.5,25.1459999,13.5312004,24.2821999,13.5122004
		c-2.1551991-0.0474005-3.7733994-1.5160999-4.8085995-4.3657007C19.0897999,8.0894003,19.1079006,7.25,19.5268993,6.6518998
		c0.2660999-0.3793998,0.8222008-0.8315997,1.9624004-0.8315997c0.5703011,0,1.0410004,0.1122999,1.0932007,0.125
		c0.2577991,0.0453997,7.2714996,1.3311,9.7266006,2.7290001c1.9506989,1.1122999,10.4048004,7.0292997,11.4447975,9.3594007
		c0.1240005,0.2748985,0.3262024,0.7020988,0.5850029,1.2494984c1.6434975,3.4775009,5.4950981,11.6216011,6.3348999,16.9531021
		c0.9892998,6.2607994-6.1015015,16.9267998-6.4043007,17.3779984L43.7803001,54.3437996z M39.1786995,46.7070007
		l4.4814987,5.4356003c1.5800018-2.5195999,6.4902-10.8360023,5.7226028-15.7031021
		c-0.8115005-5.1455994-4.6063995-13.1704998-6.2265015-16.5971985c-0.2636986-0.5580997-0.469799-0.9937-0.5957985-1.2744007
		c-0.7831993-1.7539005-8.3456993-7.3017998-10.898901-8.7573996C29.3999004,8.5228996,22.3794003,7.2363,22.3085995,7.2235999
		c-0.0415001-0.0092001-0.4037991-0.0952001-0.8192997-0.0952001c-0.4443989,0-0.7691002,0.0996003-0.8911991,0.2739
		c-0.1533012,0.2188001-0.1152,0.6919003,0.1049995,1.2979002c0.8437996,2.3232002,2.0244007,3.4696999,3.6079006,3.5044003
		c1.4545994,0.0321999,4.9428997,1.6303997,5.3359985,1.8125l0.1284008,0.0595999l0.0923004,0.1069002
		c0.0317001,0.0370998,3.2007008,3.7079992,5.4388981,5.3788996l0.222702,0.1660004l0.0341988,0.2758999
		c0.2558022,2.0194988,1.2635994,7.625,2.8358994,9.2847004C40.4940987,31.4976006,39.4756012,43.6259995,39.1786995,46.7070007z"/>
	<path style="fill:#DE9170;" d="M33.8339996,18.2147999l1.7098999,3.3945999l13.5040016,12.1737995l-1.4336014-4.4784985
		c0,0-7.2412987-5.0122013-10.4101982-9.0318012C37.2041016,20.2728996,35.4443016,20.1011009,33.8339996,18.2147999z"/>
	<polygon style="fill:#DE9170;" points="27.7728996,13.6133003 30.6401005,13.6133003 32.6767998,17.4599991 	"/>
	<g>
		<path style="fill:#BA713A;" d="M28.2012005,62.4687996c0,0-9.8271999-3.6407013-6.9824009-14.4082985
			c0,0-5.1075001-6.7089005-6.7890997-8.8027c-1.6812-2.0918007-0.5176001-5.8398018,0.6464996-6.4233017
			c1.1640005-0.5811005,6.4009008-3.490799,6.4009008-3.490799s1.8754005-1.4876995,2.9095993,1.3575001
			c1.0347004,2.8436985-1.4862995,4.9941006-2.1982002,5.2772999l-0.3876991,0.9941978l3.3617992,2.2851028
			c0,0,4.4609013,2.4335976,6.7886009,1.7891006c2.3281002-0.6465034,6.4032993-3.0235023,6.4667988-5.0684013
			c0.0634003-2.0429993-2.3456993-4.9384995-2.3456993-4.9384995L32.6767998,28.2598c0,0-4.2388,4.4126015-7.3207989,2.5708008
			c-3.0806007-1.8418007-2.0035-3.4263-2.0035-3.4263l4.1187-2.6162014c0,0,4.2030983-4.0839996,8.0726986-3.1786995
			c3.2714996,0.7651005,8.6269989,7.0223999,9.8564987,9.2212009c1.2275009,2.1987,5.9473,4.2533989,3.8135033,9.5932007
			c-2.1328011,5.3417969-1.1631012,13.1660004-2.3907013,15.7519989
			C46.8232002,56.1758003,37.8349991,61.7773018,28.2012005,62.4687996z"/>
		<path style="fill:#BA713A;" d="M28.2012005,62.4687996c0,0-9.8271999-3.6407013-6.9824009-14.4082985
			c0,0-5.1075001-6.7089005-6.7890997-8.8027c-1.6812-2.0918007-0.5176001-5.8398018,0.6464996-6.4233017
			c1.1640005-0.5811005,6.4009008-3.490799,6.4009008-3.490799s1.8754005-1.4876995,2.9095993,1.3575001
			c1.0347004,2.8436985-1.4862995,4.9941006-2.1982002,5.2772999l-0.3876991,0.9941978l3.3617992,2.2851028
			c0,0,4.4609013,2.4335976,6.7886009,1.7891006c2.3281002-0.6465034,6.4032993-3.0235023,6.4667988-5.0684013
			c0.0634003-2.0429993-2.3456993-4.9384995-2.3456993-4.9384995L32.6767998,28.2598c0,0-4.2388,4.4126015-7.3207989,2.5708008
			c-3.0806007-1.8418007-2.0035-3.4263-2.0035-3.4263l4.1187-2.6162014c0,0,4.2030983-4.0839996,8.0726986-3.1786995
			c3.2714996,0.7651005,8.6269989,7.0223999,9.8564987,9.2212009c1.2275009,2.1987,5.9473,4.2533989,3.8135033,9.5932007
			c-2.1328011,5.3417969-1.1631012,13.1660004-2.3907013,15.7519989
			C46.8232002,56.1758003,37.8349991,61.7773018,28.2012005,62.4687996z"/>
		<path style="fill:#BA713A;" d="M43.7266006,53.25c0,0,7.2616997-10.8320007,6.3017006-16.9121017
			c-0.9589996-6.0824986-5.9717026-16.0302982-6.8711014-18.0375977c-0.8964996-2.0078011-8.7871017-7.6982002-11.1718006-9.057601
			C29.5991001,7.8838,22.4258003,6.5801001,22.4258003,6.5801001s-3.5015011-0.8632998-2.3374004,2.3431997
			c1.1650009,3.2070999,2.8491001,3.9053001,4.2084999,3.9351006c1.3598003,0.0302992,5.075201,1.7519999,5.075201,1.7519999
			s3.2201996,3.7417002,5.5429001,5.4759989c0,0,0.9444008,7.4722004,3.0098,9.652401
			c2.0663986,2.1791992,0.577198,17.1753006,0.577198,17.1753006L43.7266006,53.25z"/>
		<path style="fill:#BA713A;" d="M28.2012005,62.4687996c0,0-9.8271999-3.6407013-6.9824009-14.4082985
			c0,0-5.1075001-6.7089005-6.7890997-8.8027c-1.6812-2.0918007-0.5176001-5.8398018,0.6464996-6.4233017
			c1.1640005-0.5811005,6.4009008-3.490799,6.4009008-3.490799s1.8754005-1.4876995,2.9095993,1.3575001
			c1.0347004,2.8436985-1.4862995,4.9941006-2.1982002,5.2772999l-0.3876991,0.9941978l3.3617992,2.2851028
			c0,0,4.4609013,2.4335976,6.7886009,1.7891006c2.3281002-0.6465034,6.4032993-3.0235023,6.4667988-5.0684013
			c0.0634003-2.0429993-2.3456993-4.9384995-2.3456993-4.9384995L32.6767998,28.2598c0,0-4.2388,4.4126015-7.3207989,2.5708008
			c-3.0806007-1.8418007-2.0035-3.4263-2.0035-3.4263l4.1187-2.6162014c0,0,4.2030983-4.0839996,8.0726986-3.1786995
			c3.2714996,0.7651005,8.6269989,7.0223999,9.8564987,9.2212009c1.2275009,2.1987,5.9473,4.2533989,3.8135033,9.5932007
			c-2.1328011,5.3417969-1.1631012,13.1660004-2.3907013,15.7519989
			C46.8232002,56.1758003,37.8349991,61.7773018,28.2012005,62.4687996z"/>
	</g>
	<path style="fill:#7C3F16;" d="M19.8521004,44.9961014L23.6991997,47.5c0,0-2.2631989,9.7929993,0.9053001,11.3788986
		c3.1683998,1.5839996,3.772501,3.1680031,3.772501,3.1680031S20.25,60.3983994,21.1264992,48.4277L19.8521004,44.9961014z"/>
	<path style="fill:#7C3F16;" d="M25.9633999,40.3203011c0,0,3.8017006,3.1679993,5.7108994,2.5644989
		c1.9087009-0.6035995,6.0503025-4.4824982,6.0503025-4.4824982S32.5264015,43.1094017,25.9633999,40.3203011z"/>
	<path style="fill:#7C3F16;" d="M48.3163986,41.9746017c0,0-2.1348,1.7362976-2.2860985,3.9257965
		c-0.1503983,2.1894035,1.4950981,6.9433022,1.1445007,8.6094017L48.3163986,41.9746017z"/>
	<path style="fill:#210601;" d="M50.6738014,36.2363014c-0.8398018-5.331501-4.6914024-13.4756012-6.3348999-16.9531021
		c-0.2588005-0.5473995-0.4610023-0.9745998-0.5850029-1.2494984c-1.0399971-2.330101-9.4940987-8.2471008-11.4447975-9.3594007
		c-2.455101-1.3979001-9.4688015-2.6836004-9.7266006-2.7290001c-0.0522003-0.0127001-0.5228996-0.125-1.0932007-0.125
		c-1.1401997,0-1.6963005,0.4521999-1.9624004,0.8315997C19.1079006,7.25,19.0897999,8.0894003,19.4736004,9.1464996
		c1.0352001,2.8496008,2.6534004,4.3183002,4.8085995,4.3657007c0.8638,0.0190001,3.2768993,0.9877996,4.6879997,1.6332998
		c0.5415001,0.6210995,3.2075005,3.6401005,5.3325005,5.2964001c0.0136986,0.1000996,0.0341988,0.2362995,0.0567017,0.3838005
		c-3.5200024,0.0116997-6.8281021,3.0067997-7.2930012,3.4447994l-4.1787014,2.6543007l-0.0761986,0.1117992
		c-0.0395012,0.0585995-0.3462009,0.5366001-0.2881012,1.2651997c-0.6898994,0.0200005-1.2308998,0.3675995-1.4018002,0.4917011
		C20.6439991,29.0580997,15.8701,31.7070007,14.7832003,32.25c-0.8832998,0.4429016-1.4512005,1.7598-1.6875,2.8446999
		c-0.3862,1.7734985-0.0859003,3.4404984,0.8241997,4.5723c1.4727001,1.8339996,5.6426001,7.2988014,6.5868998,8.5381012
		c-2.6919003,10.9735985,7.3642998,14.8387985,7.4673004,14.8768997l0.1327991,0.0489006l0.1410999-0.0098
		c9.6835995-0.6953011,18.5489025-6.1582031,18.9209003-6.3906021l0.1631012-0.1016006l0.0820999-0.1727982
		c0.5878983-1.2392998,0.7108994-3.4219017,0.8525009-5.9482994c0.089798-1.5996017,0.1864967-3.3027,0.3993988-4.9706993
		C50.0360985,42.392601,51.0966988,38.9141006,50.6738014,36.2363014z M29.8677006,14.1836004l-0.0923004-0.1069002
		l-0.1284008-0.0595999c-0.3930988-0.1821003-3.8813992-1.7803001-5.3359985-1.8125
		c-1.5834999-0.0347004-2.764101-1.1812-3.6079006-3.5044003c-0.2201996-0.6059999-0.2583008-1.0791001-0.1049995-1.2979002
		c0.1220989-0.1742997,0.4468002-0.2739,0.8911991-0.2739c0.4155006,0,0.7777996,0.086,0.8192997,0.0952001
		c0.0708008,0.0127001,7.091301,1.2992997,9.3530006,2.5869002c2.5532017,1.4555998,10.1157017,7.003499,10.898901,8.7573996
		c0.1259995,0.2807007,0.3320999,0.716301,0.5957985,1.2744007c1.3446999,2.8442001,4.1835022,8.8529987,5.5750999,13.7562981
		c-0.4422989-0.5370979-0.9179001-1.0150986-1.3535004-1.4530983c-0.5790977-0.5820007-1.1259003-1.1313-1.4071999-1.6343002
		c-1.1415977-2.0410004-6.5956993-8.664999-10.2655983-9.5345993c-0.0596008-0.3731003-0.1084023-0.7070999-0.1416016-0.9722004
		l-0.0341988-0.2758999L35.3065987,19.5625C33.0684013,17.8915997,29.8994007,14.2207003,29.8677006,14.1836004z
		 M46.9608994,50.4346008c-0.1268997,2.2607002-0.2373009,4.2304001-0.6543007,5.2889977
		c-1.2714005,0.7569008-9.4208984,5.420002-18.0047989,6.0820999c-1.1529007-0.4716988-8.9659004-4.0585976-6.4506989-13.5781975
		L21.9326,47.9188995l-0.1933002-0.2547989c-0.0513-0.0664024-5.1318989-6.7392998-6.7997999-8.8155022
		c-0.6519003-0.8114967-0.8633003-2.1102982-0.566-3.4755974c0.2455997-1.1268997,0.7300005-1.8212013,0.9947004-1.9531021
		c1.1634998-0.5809975,6.2118988-3.3851986,6.426199-3.5043983l0.0889015-0.0594997
		c0.0033989-0.0025005,0.3344994-0.2471008,0.7011986-0.2471008c0.586401,0,0.9696999,0.7152996,1.1879997,1.3159008
		c0.9248009,2.5419998-1.5190983,4.3241997-1.8256989,4.4463005L21.6826,35.4756012l-0.6802006,1.7450981l3.8472004,2.6113014
		c0.1480007,0.0811005,3.6543007,1.9776001,6.2080002,1.9776001c0.3915997,0,0.7509995-0.045002,1.0683994-0.1328011
		c2.4510994-0.6806984,6.8671989-3.1601982,6.9453011-5.6777992c0.0692978-2.2265015-2.2334023-5.0615005-2.4961014-5.3774014
		l-3.9516983-3.2504997l-0.4183998,0.4355011c-0.0269012,0.0283985-2.7363014,2.8193989-5.1768017,2.8193989
		c-0.4974995,0-0.9349995-0.1166992-1.3368988-0.3564987c-2.012701-1.2035999-1.9209003-2.1328011-1.8330002-2.4116001
		l3.9633999-2.5181007l0.1049995-0.0830002c0.0321999-0.0312004,3.2529011-3.1245003,6.4531021-3.1245003
		c0.3505974,0,0.6923981,0.0381012,1.0155983,0.1138c2.9608994,0.6928997,8.1493988,6.6055012,9.4336014,8.9033012
		c0.3681984,0.6596985,0.9774971,1.270998,1.6210976,1.9190006c1.6719017,1.6795998,3.5664024,3.5830002,2.1562004,7.1131973
		C47.3613014,43.3008003,47.1386986,47.2568016,46.9608994,50.4346008z M25.2577991,31.5224991
		c0.5405006,0.2734013,1.1348,0.4116001,1.7705002,0.4116001c2.3609009,0,4.7280006-1.9242992,5.6835995-2.8002987
		l2.8964996,2.3715992c0.6514015,0.7964001,2.2012024,3.0101986,2.1562004,4.4526005
		c-0.0487976,1.5565987-3.6581993,3.8115005-5.9876995,4.4589996c-0.2036991,0.0556984-0.4457989,0.0849991-0.7192993,0.0849991
		c-2.2098999,0-5.5209999-1.7851982-5.5272999-1.7851982l-2.9312-1.9921989l0.1093998-0.2803001
		C23.6685009,35.8740005,25.5767002,34.0321999,25.2577991,31.5224991z"/>
</g>
<g>
</g>
<g>
</g>
<g>
</g>
<g>
</g>
<g>
</g>
<g>
</g>
</svg>
