<?xml version="1.0" encoding="utf-8"?>
<!-- Generator: Adobe Illustrator 17.0.0, SVG Export Plug-In . SVG Version: 6.00 Build 0)  -->
<!DOCTYPE svg PUBLIC "-//W3C//DTD SVG 1.1//EN" "http://www.w3.org/Graphics/SVG/1.1/DTD/svg11.dtd">
<svg version="1.1" id="レイヤー_1" xmlns="http://www.w3.org/2000/svg" xmlns:xlink="http://www.w3.org/1999/xlink" x="0px"
	 y="0px" width="64px" height="64px" viewBox="0 0 64 64" style="enable-background:new 0 0 64 64;" xml:space="preserve">
<g>
	<path style="fill:#C6C7C8;" d="M53.5146484,16.8339844c-5.5107422,0-10.0185547,4.3769531-10.2265625,9.8745117
		c-0.3496094-0.0166016-0.7070313-0.0180664-1.0585938,0.0024414C42.0400391,21.2324219,37.5234375,16.8339844,32,16.8339844
		c-5.5063477,0-10.0112305,4.3706055-10.2250977,9.8745117c-0.3510742-0.0175781-0.7089844-0.0175781-1.0595703,0.0024414
		c-0.1899414-5.4780273-4.7055664-9.8769531-10.2294922-9.8769531C4.8417969,16.8339844,0.25,21.4257813,0.25,27.0698242
		s4.5917969,10.2358398,10.2358398,10.2358398c0.1772461,0,0.3530273-0.0058594,0.527832-0.0166016
		c0.1889648,5.4785156,4.7050781,9.8769531,10.2290039,9.8769531c5.4990234,0,9.9990234-4.3583984,10.2231445-9.8769531
		c0.3520508,0.0214844,0.7104492,0.0214844,1.0620117,0c0.1889648,5.4785156,4.7055664,9.8769531,10.2290039,9.8769531
		c5.5029297,0,10.0048828-4.3642578,10.2246094-9.8769531c0.1767578,0.0107422,0.3535156,0.0166016,0.5332031,0.0166016
		c5.6435547,0,10.2353516-4.5917969,10.2353516-10.2358398S59.1582031,16.8339844,53.5146484,16.8339844z M18.1787109,27.0698242
		c0,0.0341797-0.0019531,0.0683594-0.0053711,0.1020508c-3.4604492,1.0898438-6.1381836,4.0092773-6.9204102,7.5449219
		c-0.2836914,0.03125-0.5317383,0.0458984-0.7670898,0.0458984c-4.2416992,0-7.6928711-3.4511719-7.6928711-7.6928711
		s3.4511719-7.6928711,7.6928711-7.6928711S18.1787109,22.828125,18.1787109,27.0698242z M17.5107422,30.2055664
		c-0.6787109,1.5239258-1.8310547,2.7797852-3.2929688,3.5893555
		C14.8964844,32.2705078,16.0488281,31.0146484,17.5107422,30.2055664z M28.9355469,36.9306641
		c0,4.2412109-3.4511719,7.6923828-7.6928711,7.6923828s-7.6928711-3.4511719-7.6928711-7.6923828
		c0-0.0341797,0.0019531-0.0683594,0.0048828-0.1025391c3.4584961-1.0888672,6.1352539-4.0083008,6.9194336-7.5454102
		c0.5751953-0.0629883,1.0058594-0.0566406,1.5366211,0.0063477c0.784668,3.534668,3.4628906,6.4511719,6.9223633,7.5400391
		C28.9345703,36.8623047,28.9355469,36.8964844,28.9355469,36.9306641z M24.987793,30.2348633
		c1.4487305,0.8046875,2.5913086,2.0395508,3.2670898,3.5297852C26.8061523,32.9599609,25.6635742,31.7250977,24.987793,30.2348633z
		 M32,19.3769531c4.2421875,0,7.6933594,3.4511719,7.6933594,7.6928711c0,0.0341797-0.0019531,0.0683594-0.0048828,0.1020508
		c-3.4609375,1.0893555-6.1386719,4.0092773-6.9213867,7.5449219c-0.5844727,0.0644531-1.0244141,0.0585938-1.5327148,0
		c-0.7836914-3.5390625-3.4638672-6.4604492-6.9248047-7.5493164c-0.0014648-0.0327148-0.0024414-0.0649414-0.0024414-0.0976563
		C24.3071289,22.828125,27.7583008,19.3769531,32,19.3769531z M39.0263672,30.2045898
		c-0.6796875,1.5249023-1.8330078,2.7822266-3.2949219,3.5922852
		C36.4101563,32.2714844,37.5634766,31.0141602,39.0263672,30.2045898z M50.4501953,36.9306641
		c0,4.2412109-3.4511719,7.6923828-7.6933594,7.6923828c-4.2412109,0-7.6923828-3.4511719-7.6923828-7.6923828
		c0-0.0341797,0.0019531-0.0683594,0.0048828-0.1025391c3.4580078-1.0888672,6.1347656-4.0092773,6.9189453-7.5454102
		c0.5751953-0.0629883,1.0039063-0.0561523,1.5371094,0.0068359c0.7841797,3.5336914,3.4619141,6.4506836,6.921875,7.5395508
		C50.4492188,36.8623047,50.4501953,36.8964844,50.4501953,36.9306641z M46.5019531,30.2348633
		c1.4492188,0.8051758,2.5917969,2.0395508,3.2675781,3.5297852C48.3203125,32.9594727,47.1777344,31.7250977,46.5019531,30.2348633
		z M61.2070313,27.0698242c0,4.2416992-3.4511719,7.6928711-7.6923828,7.6928711
		c-0.2431641,0-0.4960938-0.015625-0.7666016-0.0478516c-0.7841797-3.5380859-3.4638672-6.4589844-6.9238281-7.5478516
		c-0.0019531-0.0322266-0.0029297-0.0644531-0.0029297-0.097168c0-4.2416992,3.4511719-7.6928711,7.6933594-7.6928711
		C57.7558594,19.3769531,61.2070313,22.828125,61.2070313,27.0698242z"/>
	<g>
		<path style="fill:#DF0024;" d="M53.514286,17.2089291c-5.4458923,0-9.860714,4.4147358-9.860714,9.860714
			c0,5.4458904,4.4148216,9.8607159,9.860714,9.8607159S63.375,32.5155334,63.375,27.069643
			C63.375,21.6236649,58.9601784,17.2089291,53.514286,17.2089291z M53.514286,35.1375008
			c-4.4557037,0-8.0678558-3.6121521-8.0678558-8.0678577c0-4.4557934,3.6121521-8.0678577,8.0678558-8.0678577
			c4.4557915,0,8.0678558,3.6120644,8.0678558,8.0678577C61.5821419,31.5253487,57.9700775,35.1375008,53.514286,35.1375008z"/>
		<linearGradient id="SVGID_1_" gradientUnits="userSpaceOnUse" x1="53.514286" y1="17.2089291" x2="53.514286" y2="36.9303589">
			<stop  offset="0" style="stop-color:#FFFFFF;stop-opacity:0.3"/>
			<stop  offset="1" style="stop-color:#FFFFFF;stop-opacity:0"/>
		</linearGradient>
		<path style="fill:url(#SVGID_1_);" d="M53.514286,17.2089291c-5.4458923,0-9.860714,4.4147358-9.860714,9.860714
			c0,5.4458904,4.4148216,9.8607159,9.860714,9.8607159S63.375,32.5155334,63.375,27.069643
			C63.375,21.6236649,58.9601784,17.2089291,53.514286,17.2089291z M53.514286,35.1375008
			c-4.4557037,0-8.0678558-3.6121521-8.0678558-8.0678577c0-4.4557934,3.6121521-8.0678577,8.0678558-8.0678577
			c4.4557915,0,8.0678558,3.6120644,8.0678558,8.0678577C61.5821419,31.5253487,57.9700775,35.1375008,53.514286,35.1375008z"/>
	</g>
	<g>
		<path style="fill:#019F3E;" d="M50.8053017,36.5406227c0.006218,0.130085,0.0196991,0.2581596,0.0196991,0.3897362
			c0,4.4557037-3.6120644,8.0678558-8.0678596,8.0678558c-4.4557037,0-8.0678558-3.6121521-8.0678558-8.0678558
			c0-4.4557953,3.6121521-8.0678596,8.0678558-8.0678596c3.6167068,0,6.6770821,2.3799133,7.7016716,5.6590576
			c0.6212845,0.2567596,1.2845001,0.4199371,1.9728432,0.5137825c-0.8840866-4.5386086-4.8773079-7.9656963-9.6745148-7.9656963
			c-5.4458885,0-9.860714,4.4147358-9.860714,9.8607159c0,5.4458885,4.4148254,9.860714,9.860714,9.860714
			s9.8607178-4.4148254,9.8607178-9.860714c0-0.0224991-0.0032425-0.0442085-0.0034142-0.0667076
			C51.9940338,36.806572,51.3869324,36.7078247,50.8053017,36.5406227z"/>
		<linearGradient id="SVGID_2_" gradientUnits="userSpaceOnUse" x1="42.7571411" y1="27.069643" x2="42.7571411" y2="46.7910728">
			<stop  offset="0" style="stop-color:#FFFFFF;stop-opacity:0.3"/>
			<stop  offset="1" style="stop-color:#FFFFFF;stop-opacity:0"/>
		</linearGradient>
		<path style="fill:url(#SVGID_2_);" d="M50.8053017,36.5406227c0.006218,0.130085,0.0196991,0.2581596,0.0196991,0.3897362
			c0,4.4557037-3.6120644,8.0678558-8.0678596,8.0678558c-4.4557037,0-8.0678558-3.6121521-8.0678558-8.0678558
			c0-4.4557953,3.6121521-8.0678596,8.0678558-8.0678596c3.6167068,0,6.6770821,2.3799133,7.7016716,5.6590576
			c0.6212845,0.2567596,1.2845001,0.4199371,1.9728432,0.5137825c-0.8840866-4.5386086-4.8773079-7.9656963-9.6745148-7.9656963
			c-5.4458885,0-9.860714,4.4147358-9.860714,9.8607159c0,5.4458885,4.4148254,9.860714,9.860714,9.860714
			s9.8607178-4.4148254,9.8607178-9.860714c0-0.0224991-0.0032425-0.0442085-0.0034142-0.0667076
			C51.9940338,36.806572,51.3869324,36.7078247,50.8053017,36.5406227z"/>
	</g>
	<g>
		<path d="M32,17.2089291c-5.4458904,0-9.860714,4.4147358-9.860714,9.860714c0,5.4458904,4.4148235,9.8607159,9.860714,9.8607159
			c0.303772,0,0.6030769-0.0185623,0.8998413-0.0454369c0.0028915-0.6284637,0.0827293-1.2359161,0.1986351-1.8308487
			C32.7384148,35.1031837,32.3735428,35.1375008,32,35.1375008c-4.4557056,0-8.0678577-3.6121521-8.0678577-8.0678577
			c0-4.4557934,3.6121521-8.0678577,8.0678577-8.0678577c4.4557915,0,8.0678558,3.6120644,8.0678558,8.0678577
			c0,3.3651962-2.0617828,6.2465496-4.9898834,7.456728c-0.2013474,0.6411552-0.320755,1.315052-0.3547211,2.0144234
			c4.1198082-1.1828651,7.1374626-4.9710617,7.1374626-9.4711514C41.860714,21.6236649,37.4458923,17.2089291,32,17.2089291z"/>
		<linearGradient id="SVGID_3_" gradientUnits="userSpaceOnUse" x1="32" y1="17.2089291" x2="32" y2="36.9303589">
			<stop  offset="0" style="stop-color:#FFFFFF;stop-opacity:0.3"/>
			<stop  offset="1" style="stop-color:#FFFFFF;stop-opacity:0"/>
		</linearGradient>
		<path style="fill:url(#SVGID_3_);" d="M32,17.2089291c-5.4458904,0-9.860714,4.4147358-9.860714,9.860714
			c0,5.4458904,4.4148235,9.8607159,9.860714,9.8607159c0.303772,0,0.6030769-0.0185623,0.8998413-0.0454369
			c0.0028915-0.6284637,0.0827293-1.2359161,0.1986351-1.8308487C32.7384148,35.1031837,32.3735428,35.1375008,32,35.1375008
			c-4.4557056,0-8.0678577-3.6121521-8.0678577-8.0678577c0-4.4557934,3.6121521-8.0678577,8.0678577-8.0678577
			c4.4557915,0,8.0678558,3.6120644,8.0678558,8.0678577c0,3.3651962-2.0617828,6.2465496-4.9898834,7.456728
			c-0.2013474,0.6411552-0.320755,1.315052-0.3547211,2.0144234c4.1198082-1.1828651,7.1374626-4.9710617,7.1374626-9.4711514
			C41.860714,21.6236649,37.4458923,17.2089291,32,17.2089291z"/>
	</g>
	<g>
		<path style="fill:#F4C300;" d="M29.2910175,36.5406227c0.006216,0.130085,0.0196972,0.2581596,0.0196972,0.3897362
			c0,4.4557037-3.6120644,8.0678558-8.0678577,8.0678558c-4.4557056,0-8.0678568-3.6121521-8.0678568-8.0678558
			c0-4.4557953,3.6121511-8.0678596,8.0678568-8.0678596c3.6167049,0,6.6770802,2.3799133,7.7016697,5.6590576
			c0.6212845,0.2567596,1.284502,0.4199371,1.9728432,0.5137825c-0.8840847-4.5386086-4.877306-7.9656963-9.6745129-7.9656963
			c-5.4458914,0-9.860714,4.4147358-9.860714,9.8607159c0,5.4458885,4.4148226,9.860714,9.860714,9.860714
			s9.860714-4.4148254,9.860714-9.860714c0-0.0224991-0.0032387-0.0442085-0.0034142-0.0667076
			C30.4797478,36.806572,29.8726463,36.7078247,29.2910175,36.5406227z"/>
		<linearGradient id="SVGID_4_" gradientUnits="userSpaceOnUse" x1="21.242857" y1="27.069643" x2="21.242857" y2="46.7910728">
			<stop  offset="0" style="stop-color:#FFFFFF;stop-opacity:0.3"/>
			<stop  offset="1" style="stop-color:#FFFFFF;stop-opacity:0"/>
		</linearGradient>
		<path style="fill:url(#SVGID_4_);" d="M29.2910175,36.5406227c0.006216,0.130085,0.0196972,0.2581596,0.0196972,0.3897362
			c0,4.4557037-3.6120644,8.0678558-8.0678577,8.0678558c-4.4557056,0-8.0678568-3.6121521-8.0678568-8.0678558
			c0-4.4557953,3.6121511-8.0678596,8.0678568-8.0678596c3.6167049,0,6.6770802,2.3799133,7.7016697,5.6590576
			c0.6212845,0.2567596,1.284502,0.4199371,1.9728432,0.5137825c-0.8840847-4.5386086-4.877306-7.9656963-9.6745129-7.9656963
			c-5.4458914,0-9.860714,4.4147358-9.860714,9.8607159c0,5.4458885,4.4148226,9.860714,9.860714,9.860714
			s9.860714-4.4148254,9.860714-9.860714c0-0.0224991-0.0032387-0.0442085-0.0034142-0.0667076
			C30.4797478,36.806572,29.8726463,36.7078247,29.2910175,36.5406227z"/>
	</g>
	<g>
		<path style="fill:#0085C7;" d="M10.485714,17.2089291c-5.4458909,0-9.860714,4.4147358-9.860714,9.860714
			c0,5.4458904,4.4148231,9.8607159,9.860714,9.8607159c0.3035955,0,0.6026382-0.0185623,0.89923-0.0454369
			c0.0028887-0.6277618,0.0791378-1.2361794,0.195569-1.8302383c-0.358922,0.048851-0.7224836,0.0828171-1.094799,0.0828171
			c-4.4557047,0-8.0678568-3.6121521-8.0678568-8.0678577c0-4.4557934,3.6121521-8.0678577,8.0678568-8.0678577
			c4.4557934,0,8.0678577,3.6120644,8.0678577,8.0678577c0,3.3748264-2.0739536,6.2621326-5.0154486,7.4660931
			c-0.1981068,0.6368675-0.3004427,1.3125153-0.3338842,2.0062866c4.1221714-1.1812897,7.142189-4.9706268,7.142189-9.4723797
			C20.3464279,21.6236649,15.9316053,17.2089291,10.485714,17.2089291z"/>
		<linearGradient id="SVGID_5_" gradientUnits="userSpaceOnUse" x1="10.485714" y1="17.2089291" x2="10.485714" y2="36.9303589">
			<stop  offset="0" style="stop-color:#FFFFFF;stop-opacity:0.3"/>
			<stop  offset="1" style="stop-color:#FFFFFF;stop-opacity:0"/>
		</linearGradient>
		<path style="fill:url(#SVGID_5_);" d="M10.485714,17.2089291c-5.4458909,0-9.860714,4.4147358-9.860714,9.860714
			c0,5.4458904,4.4148231,9.8607159,9.860714,9.8607159c0.3035955,0,0.6026382-0.0185623,0.89923-0.0454369
			c0.0028887-0.6277618,0.0791378-1.2361794,0.195569-1.8302383c-0.358922,0.048851-0.7224836,0.0828171-1.094799,0.0828171
			c-4.4557047,0-8.0678568-3.6121521-8.0678568-8.0678577c0-4.4557934,3.6121521-8.0678577,8.0678568-8.0678577
			c4.4557934,0,8.0678577,3.6120644,8.0678577,8.0678577c0,3.3748264-2.0739536,6.2621326-5.0154486,7.4660931
			c-0.1981068,0.6368675-0.3004427,1.3125153-0.3338842,2.0062866c4.1221714-1.1812897,7.142189-4.9706268,7.142189-9.4723797
			C20.3464279,21.6236649,15.9316053,17.2089291,10.485714,17.2089291z"/>
	</g>
</g>
<g>
</g>
<g>
</g>
<g>
</g>
<g>
</g>
<g>
</g>
<g>
</g>
</svg>
