<?xml version="1.0" encoding="utf-8"?>
<!-- Generator: Adobe Illustrator 15.0.2, SVG Export Plug-In . SVG Version: 6.00 Build 0)  -->
<!DOCTYPE svg PUBLIC "-//W3C//DTD SVG 1.1//EN" "http://www.w3.org/Graphics/SVG/1.1/DTD/svg11.dtd">
<svg version="1.1" id="レイヤー_1" xmlns="http://www.w3.org/2000/svg" xmlns:xlink="http://www.w3.org/1999/xlink" x="0px"
	 y="0px" width="64px" height="64px" viewBox="0 0 64 64" style="enable-background:new 0 0 64 64;" xml:space="preserve">
<g>
	<path style="fill:#231815;" d="M52.1611328,15.4023438l-4.2685547-4.8012695c0,0-12.6679688,13.3369141-20.8051758-1.6005859
		C25.6196289,19.2700195,41.2255859,27.0043945,52.1611328,15.4023438z"/>
	<polygon style="fill:#231815;" points="41.8916016,9.0004883 37.0175781,5.5332031 32.1425781,10.6010742 36.9570313,14.46875 	"/>
	<path style="fill:#231815;" d="M56.2939453,28.3388672c-2.9345703-6.6674805-11.5605469-7.9916992-16.0019531-4.2675781
		c-4.4423828,3.7236328-5.46875,10.4033203-8.1494141,11.4697266c-0.8950195,0.3554688-2.234375,0.2929688-3.6186523,0.0537109
		c-1.2202148-0.7451172-2.1030273-1.1201172-2.1030273-1.1201172s9.8681641-6.5356445,3.0668945-15.6049805
		c-5.2016602-6.5341797-19.3383789,3.0683594-19.3383789,3.0683594l3.8676758,6.4008789c0,0,6.534668-5.734375,10.9355469-4.4008789
		c4.4018555,1.3330078,6.1352539,8.8027344-7.4013672,7.3349609l2.8671875,7.737793c0,0,6.2670898-1.2001953,7.7348633,0
		c1.4677734,1.1982422,6.8027344,8.6660156-4.0004883,12.1337891c-10.8022461,3.46875-18.1376953-10.2666016-18.1376953-16.0029297
		c-3.6000977,20.4052734,23.2060547,31.875,28.940918,15.6044922c2.1210938-5.6103516-0.1806641-9.7431641-2.9272461-12.4414063
		c4.3452148-0.0126953,9.5141602-0.8007813,10.7709961-5.0087891c2.1591797-7.2236328,10.4277344-13.0927734,12.4277344-0.2890625
		c2.2666016,14.5117188-13.3359375,16.8076172-16.4042969,5.0693359
		c-2.8251953,13.5859375,7.8691406,18.0039063,15.2050781,12.5351563
		C59.3681641,46.6318359,59.2285156,35.0078125,56.2939453,28.3388672z"/>
</g>
</svg>
