<?xml version="1.0" encoding="utf-8"?>
<!-- Generator: Adobe Illustrator 15.0.2, SVG Export Plug-In . SVG Version: 6.00 Build 0)  -->
<!DOCTYPE svg PUBLIC "-//W3C//DTD SVG 1.1//EN" "http://www.w3.org/Graphics/SVG/1.1/DTD/svg11.dtd">
<svg version="1.1" id="レイヤー_1" xmlns="http://www.w3.org/2000/svg" xmlns:xlink="http://www.w3.org/1999/xlink" x="0px"
	 y="0px" width="64px" height="64px" viewBox="0 0 64 64" enable-background="new 0 0 64 64" xml:space="preserve">
<g>
	<g>
		<path fill="#FFFFFF" d="M48.945,7.61c1.806,1.257,1.483,2.285-0.717,2.285H15.291c-2.2,0-2.433-0.885-0.517-1.967l3.462-1.955
			c1.916-1.082,5.283-1.967,7.483-1.967h14.049c2.2,0,5.478,1.028,7.283,2.285L48.945,7.61z"/>
		<path fill="none" stroke="#000000" stroke-miterlimit="3" d="M48.945,7.61c1.806,1.257,1.483,2.285-0.717,2.285H15.291
			c-2.2,0-2.433-0.885-0.517-1.967l3.462-1.955c1.916-1.082,5.283-1.967,7.483-1.967h14.049c2.2,0,5.478,1.028,7.283,2.285
			L48.945,7.61z"/>
	</g>
	<g>
		<g>
			<rect x="58.648" y="39.77" fill="#E75513" width="1.303" height="2.988"/>
		</g>
		<g>
			<rect x="3.567" y="39.77" fill="#E75513" width="1.304" height="2.988"/>
		</g>
	</g>
	<g>
		<g>
			<g>
				<path fill="#383838" d="M14.502,59.084c0,0.501-0.409,0.91-0.91,0.91H7.433c-0.5,0-0.91-0.409-0.91-0.91V48.078
					c0-0.501,0.409-0.91,0.91-0.91h6.159c0.5,0,0.91,0.409,0.91,0.91V59.084z"/>
				<path fill="none" stroke="#110E0E" stroke-width="0.9097" stroke-miterlimit="3" d="M14.502,59.084
					c0,0.501-0.409,0.91-0.91,0.91H7.433c-0.5,0-0.91-0.409-0.91-0.91V48.078c0-0.501,0.409-0.91,0.91-0.91h6.159
					c0.5,0,0.91,0.409,0.91,0.91V59.084z"/>
			</g>
			<g>
				
					<line fill="#383838" stroke="#110E0E" stroke-width="0.9097" stroke-miterlimit="3" x1="8.537" y1="59.682" x2="8.537" y2="46.111"/>
				
					<line fill="#383838" stroke="#110E0E" stroke-width="0.9097" stroke-miterlimit="3" x1="12.488" y1="59.994" x2="12.488" y2="46.111"/>
			</g>
		</g>
		<g>
			<g>
				<path fill="#383838" d="M57.08,59.084c0,0.501-0.409,0.91-0.91,0.91h-6.158c-0.501,0-0.91-0.409-0.91-0.91V48.078
					c0-0.501,0.409-0.91,0.91-0.91h6.158c0.501,0,0.91,0.409,0.91,0.91V59.084z"/>
				<path fill="none" stroke="#110E0E" stroke-width="0.9097" stroke-miterlimit="3" d="M57.08,59.084c0,0.501-0.409,0.91-0.91,0.91
					h-6.158c-0.501,0-0.91-0.409-0.91-0.91V48.078c0-0.501,0.409-0.91,0.91-0.91h6.158c0.501,0,0.91,0.409,0.91,0.91V59.084z"/>
			</g>
			<g>
				
					<line fill="#383838" stroke="#110E0E" stroke-width="0.9097" stroke-miterlimit="3" x1="51.115" y1="59.682" x2="51.115" y2="46.111"/>
				
					<line fill="#383838" stroke="#110E0E" stroke-width="0.9097" stroke-miterlimit="3" x1="55.068" y1="59.994" x2="55.068" y2="46.111"/>
			</g>
		</g>
	</g>
	<g>
		<path fill="#FFE20D" d="M58.727,29.312c0,1.65-1.35,3-3,3H7.793c-1.65,0-3-1.35-3-3V9.951c0-1.65,1.35-3,3-3h47.934
			c1.65,0,3,1.35,3,3V29.312z"/>
		<path fill="none" stroke="#000000" stroke-miterlimit="3" d="M58.727,29.312c0,1.65-1.35,3-3,3H7.793c-1.65,0-3-1.35-3-3V9.951
			c0-1.65,1.35-3,3-3h47.934c1.65,0,3,1.35,3,3V29.312z"/>
	</g>
	<rect x="6.675" y="11.576" fill="#F7D300" width="50.169" height="15.722"/>
	<g>
		<g>
			<path fill="#3DA3BF" d="M56.209,28.026c0,1.241-1.015,2.255-2.255,2.255H9.566c-1.241,0-2.255-1.015-2.255-2.255V15.915
				c0-1.241,1.015-2.255,2.255-2.255h44.388c1.24,0,2.255,1.015,2.255,2.255V28.026z"/>
			<path fill="none" stroke="#000000" stroke-width="1.0232" stroke-miterlimit="3" d="M56.209,28.026
				c0,1.241-1.015,2.255-2.255,2.255H9.566c-1.241,0-2.255-1.015-2.255-2.255V15.915c0-1.241,1.015-2.255,2.255-2.255h44.388
				c1.24,0,2.255,1.015,2.255,2.255V28.026z"/>
		</g>
	</g>
	<g>
		<path fill="#D28F37" d="M4.841,49.54c0,0.479,0.393,0.872,0.872,0.872h52.093c0.479,0,0.872-0.393,0.872-0.872V29.102
			c0-0.479-0.393-0.872-0.872-0.872H5.713c-0.479,0-0.872,0.393-0.872,0.872V49.54z"/>
		<path fill="none" stroke="#161212" stroke-width="0.9411" stroke-miterlimit="3" d="M4.841,49.54c0,0.479,0.393,0.872,0.872,0.872
			h52.093c0.479,0,0.872-0.393,0.872-0.872V29.102c0-0.479-0.393-0.872-0.872-0.872H5.713c-0.479,0-0.872,0.393-0.872,0.872V49.54z"
			/>
	</g>
	<g>
		<rect x="5.363" y="34.586" fill="#F7D300" width="52.793" height="15.359"/>
	</g>
	<g>
		<rect x="5.363" y="28.767" fill="#FFE20D" width="52.793" height="9.103"/>
	</g>
	<g>
		<rect x="3.567" y="48.959" fill="#D8D8D8" width="56.384" height="2.742"/>
		<g>
			
				<rect x="3.567" y="48.959" fill="none" stroke="#161212" stroke-width="0.6326" stroke-miterlimit="3" width="56.384" height="2.908"/>
		</g>
	</g>
	<g>
		<rect x="4.855" y="28.229" fill="#D8D8D8" width="53.809" height="2.743"/>
		<g>
			
				<rect x="4.855" y="28.229" fill="none" stroke="#161212" stroke-width="0.618" stroke-miterlimit="3" width="53.809" height="2.908"/>
		</g>
	</g>
	<g>
		<rect x="4.871" y="42.266" width="13.139" height="4.561"/>
		<rect x="45.51" y="42.266" width="13.139" height="4.561"/>
		<g>
			<g>
				<rect x="10.172" y="43.055" fill="#FFFFFF" width="6.563" height="3.057"/>
				<rect x="8.756" y="43.055" fill="#FB5908" width="1.789" height="3.057"/>
			</g>
			<g>
				<rect x="46.873" y="43.055" fill="#FFFFFF" width="6.488" height="3.057"/>
				<rect x="52.994" y="43.055" fill="#FB5908" width="1.77" height="3.057"/>
			</g>
		</g>
		<g>
			<rect x="25.438" y="48.008" fill="none" stroke="#231815" stroke-miterlimit="3" width="12.304" height="4.645"/>
			<rect x="25.438" y="48.008" fill="#FFFFFF" width="12.304" height="4.645"/>
		</g>
	</g>
	<g>
		<g>
			<path fill="#3A3A38" d="M5.436,25.65c0,0.512-0.419,0.932-0.932,0.932h-3.01c-0.512,0-0.932-0.419-0.932-0.932v-4.727
				c0-0.512,0.419-0.932,0.932-0.932h3.01c0.512,0,0.932,0.419,0.932,0.932V25.65z"/>
			<path fill="none" stroke="#000000" stroke-miterlimit="3" d="M5.436,25.65c0,0.512-0.419,0.932-0.932,0.932h-3.01
				c-0.512,0-0.932-0.419-0.932-0.932v-4.727c0-0.512,0.419-0.932,0.932-0.932h3.01c0.512,0,0.932,0.419,0.932,0.932V25.65z"/>
		</g>
		<g>
			<polygon fill="none" stroke="#161212" stroke-width="0.7346" stroke-miterlimit="3" points="3.551,27.262 3.551,25.311 
				2.567,25.311 2.567,27.262 2.567,27.983 3.551,27.983 6.912,27.983 6.912,27.262 			"/>
			<polygon fill="#3A3A38" points="3.551,27.262 3.551,25.311 2.567,25.311 2.567,27.262 2.567,27.983 3.551,27.983 6.912,27.983 
				6.912,27.262 			"/>
		</g>
	</g>
	<g>
		<g>
			<path fill="#3A3A38" d="M58.086,25.65c0,0.512,0.419,0.932,0.932,0.932h3.488c0.513,0,0.932-0.419,0.932-0.932v-4.727
				c0-0.512-0.419-0.932-0.932-0.932h-3.488c-0.513,0-0.932,0.419-0.932,0.932V25.65z"/>
			<path fill="none" stroke="#000000" stroke-miterlimit="3" d="M58.086,25.65c0,0.512,0.419,0.932,0.932,0.932h3.488
				c0.513,0,0.932-0.419,0.932-0.932v-4.727c0-0.512-0.419-0.932-0.932-0.932h-3.488c-0.513,0-0.932,0.419-0.932,0.932V25.65z"/>
		</g>
		<g>
			<polygon fill="none" stroke="#161212" stroke-width="0.7698" stroke-miterlimit="3" points="60.156,27.262 60.156,25.311 
				61.236,25.311 61.236,27.262 61.236,27.983 60.156,27.983 56.465,27.983 56.465,27.262 			"/>
			<polygon fill="#3A3A38" points="60.156,27.262 60.156,25.311 61.236,25.311 61.236,27.262 61.236,27.983 60.156,27.983 
				56.465,27.983 56.465,27.262 			"/>
		</g>
	</g>
	<line fill="none" stroke="#000000" stroke-miterlimit="3" x1="9.65" y1="27.983" x2="30.207" y2="26.582"/>
	<line fill="none" stroke="#000000" stroke-miterlimit="3" x1="33.322" y1="27.983" x2="53.879" y2="26.582"/>
</g>
</svg>
