<?xml version="1.0" encoding="utf-8"?>
<!-- Generator: Adobe Illustrator 15.0.0, SVG Export Plug-In . SVG Version: 6.00 Build 0)  -->
<!DOCTYPE svg PUBLIC "-//W3C//DTD SVG 1.1//EN" "http://www.w3.org/Graphics/SVG/1.1/DTD/svg11.dtd">
<svg version="1.1" id="レイヤー_1" xmlns="http://www.w3.org/2000/svg" xmlns:xlink="http://www.w3.org/1999/xlink" x="0px"
	 y="0px" width="64px" height="64px" viewBox="0 0 64 64" style="enable-background:new 0 0 64 64;" xml:space="preserve">
<g>
	<linearGradient id="SVGID_1_" gradientUnits="userSpaceOnUse" x1="18.0126953" y1="-4.8999023" x2="45.1785965" y2="66.7651443">
		<stop  offset="0" style="stop-color:#FFF0ED"/>
		<stop  offset="0.4120165" style="stop-color:#FFE2D9"/>
		<stop  offset="1" style="stop-color:#FFC9B5"/>
	</linearGradient>
	<circle style="fill:url(#SVGID_1_);" cx="32" cy="32" r="28.9443359"/>
	<g>
		<polygon style="fill:#FF6490;" points="10.5083008,29.5581055 9.1650391,27.9746094 7.2978516,29.5581055 5.9545898,27.9746094 
			3.6665039,29.9150391 6.5864258,33.3574219 8.4541016,31.7739258 9.7973633,33.3574219 11.6640625,31.7739258 
			13.0073242,33.3574219 15.2954102,31.4169922 12.3754883,27.9746094 		"/>
		<polygon style="fill:#FF6490;" points="60.0986328,31.4160156 57.1787109,27.9746094 55.3125,29.5585938 53.9667969,27.9741211 
			52.1015625,29.5576172 50.7578125,27.9746094 48.4707031,29.9150391 51.390625,33.3564453 53.2568359,31.7729492 
			54.6015625,33.3574219 56.4677734,31.7729492 57.8115234,33.3564453 		"/>
	</g>
	<path style="fill:#FFB6B6;" d="M32.0009766,61.3291016C15.828125,61.3291016,2.6708984,48.171875,2.6708984,32
		c0-16.1723633,13.1572266-29.3291016,29.3300781-29.3291016c16.171875,0,29.328125,13.1567383,29.328125,29.3291016
		C61.3291016,48.171875,48.1728516,61.3291016,32.0009766,61.3291016z M32.0009766,5.1708984
		C17.2070313,5.1708984,5.1708984,17.206543,5.1708984,32c0,14.7939453,12.0361328,26.8291016,26.8300781,26.8291016
		c14.7929688,0,26.828125-12.0351563,26.828125-26.8291016C58.8291016,17.206543,46.7939453,5.1708984,32.0009766,5.1708984z"/>
	<path style="fill:#750000;" d="M32,62.1933594C15.3505859,62.1933594,1.8056641,48.6484375,1.8056641,32
		S15.3505859,1.8066406,32,1.8066406S62.1943359,15.3515625,62.1943359,32S48.6494141,62.1933594,32,62.1933594z M32,4.3066406
		C16.7294922,4.3066406,4.3056641,16.7299805,4.3056641,32c0,15.2705078,12.4238281,27.6933594,27.6943359,27.6933594
		S59.6943359,47.2705078,59.6943359,32C59.6943359,16.7299805,47.2705078,4.3066406,32,4.3066406z"/>
	<g>
		<ellipse style="fill:#750000;" cx="18.7678223" cy="20.9824219" rx="3.2956543" ry="4.5439453"/>
		<ellipse style="fill:#750000;" cx="45.2324219" cy="20.9824219" rx="3.2949219" ry="4.5439453"/>
	</g>
	<path style="fill:#750000;" d="M25.9384766,46.921875c0,4.6132813,2.7792969,8.3496094,6.2133789,8.3496094
		c3.4282227,0,6.2084961-3.7363281,6.2084961-8.3496094c0-4.6103516-2.7802734-8.3447266-6.2084961-8.3447266
		C28.7177734,38.5771484,25.9384766,42.3115234,25.9384766,46.921875z"/>
</g>
</svg>
