<?xml version="1.0" encoding="utf-8"?>
<!-- Generator: Adobe Illustrator 18.0.0, SVG Export Plug-In . SVG Version: 6.00 Build 0)  -->
<!DOCTYPE svg PUBLIC "-//W3C//DTD SVG 1.1//EN" "http://www.w3.org/Graphics/SVG/1.1/DTD/svg11.dtd">
<svg version="1.1" id="レイヤー_1" xmlns="http://www.w3.org/2000/svg" xmlns:xlink="http://www.w3.org/1999/xlink" x="0px"
	 y="0px" width="64px" height="64px" viewBox="0 0 64 64" style="enable-background:new 0 0 64 64;" xml:space="preserve">
<g>
	<linearGradient id="SVGID_1_" gradientUnits="userSpaceOnUse" x1="29.5" y1="12" x2="29.5" y2="52">
		<stop  offset="0" style="stop-color:#FFF6AB"/>
		<stop  offset="1" style="stop-color:#DD9A42"/>
	</linearGradient>
	<path style="fill:url(#SVGID_1_);" d="M52.5,52h-46c-1.1045694,0-2-0.8954315-2-2V14c0-1.1045694,0.8954306-2,2-2h7.1715546
		c0.5304136,0,1.0391045,0.2106981,1.4141741,0.5857468l3.828723,3.8285065C19.2895222,16.7893009,19.7982121,17,20.3286247,17H52.5
		c1.1045685,0,2,0.8954296,2,2v31C54.5,51.1045685,53.6045685,52,52.5,52z"/>
	<linearGradient id="SVGID_2_" gradientUnits="userSpaceOnUse" x1="29.5" y1="12" x2="29.5" y2="52">
		<stop  offset="0" style="stop-color:#FFFFE0"/>
		<stop  offset="0.1858407" style="stop-color:#FFF6AB"/>
		<stop  offset="1" style="stop-color:#DD9A42"/>
	</linearGradient>
	<path style="fill:url(#SVGID_2_);" d="M13.6715555,14l3.8287325,3.8285103C18.2557774,18.5839539,19.2602329,19,20.3286228,19H52.5
		v31h-46V14H13.6715555 M13.6715555,12H6.5c-1.1045666,0-2,0.8954315-2,2v36c0,1.1045685,0.8954334,2,2,2h46
		c1.1045685,0,2-0.8954315,2-2V19c0-1.1045685-0.8954315-2-2-2H20.3286228c-0.5304108,0-1.0391006-0.210701-1.4141674-0.585743
		l-3.828722-3.8285141C14.7106552,12.210701,14.2019663,12,13.6715555,12L13.6715555,12z"/>
	<path style="fill:#A87E43;" d="M13.6715498,13c0.2671003,0,0.5182199,0.1040115,0.7070904,0.292881l3.8287191,3.8284988
		C18.7739792,17.6879692,19.5273304,18,20.3286209,18H52.5c0.5513992,0,1,0.4486008,1,1v31c0,0.5513992-0.4486008,1-1,1h-46
		c-0.5514002,0-1-0.4486008-1-1V14c0-0.5513992,0.4485998-1,1-1H13.6715498 M13.6715498,12H6.5c-1.1045699,0-2,0.8954315-2,2v36
		c0,1.1045685,0.8954301,2,2,2h46c1.1045685,0,2-0.8954315,2-2V19c0-1.1045685-0.8954315-2-2-2H20.3286209
		c-0.5304108,0-1.0391006-0.210701-1.4141712-0.5857506l-3.8287201-3.8284988C14.71066,12.210701,14.2019701,12,13.6715498,12
		L13.6715498,12z"/>
</g>
<g>
	<linearGradient id="SVGID_3_" gradientUnits="userSpaceOnUse" x1="33.9152298" y1="30.75" x2="33.9152298" y2="52">
		<stop  offset="0" style="stop-color:#F1D07F"/>
		<stop  offset="1" style="stop-color:#DD9A42"/>
	</linearGradient>
	<path style="fill:url(#SVGID_3_);" d="M57.3628044,50.4580803l4.0588226-17.25
		C61.7170219,31.9526634,60.764492,30.75,59.4747925,30.75H13.5840292c-0.9281025,0-1.7342625,0.6384907-1.9468346,1.5419197
		L7.3628049,50.4580803c-0.1323905,0.5626564-0.4950233,1.0225525-0.9739618,1.2894363
		C6.0987768,51.9091568,7.7660484,52,7.4159708,52H9.5h45.9159698C56.3440742,52,57.1502342,51.3615112,57.3628044,50.4580803z"/>
	<linearGradient id="SVGID_4_" gradientUnits="userSpaceOnUse" x1="33.915226" y1="30.75" x2="33.915226" y2="52">
		<stop  offset="0" style="stop-color:#FFFFE0"/>
		<stop  offset="0.1858407" style="stop-color:#FFF6AB"/>
		<stop  offset="1" style="stop-color:#DD9A42"/>
	</linearGradient>
	<path style="fill:url(#SVGID_4_);" d="M59.4747925,32.75L55.4159698,50H9.5252075l4.0588198-17.25H59.4747925 M59.4747925,30.75
		H13.5840273c-0.9281054,0-1.7342587,0.6384926-1.9468355,1.5419159L7.3628039,50.4580841
		c-0.1323881,0.5626564-0.4950237,1.0225525-0.9739647,1.2894325C6.0987802,51.909153,7.7660508,52,7.4159684,52h2.0840354
		h45.915966c0.9281044,0,1.7342682-0.6384964,1.9468346-1.5419159l4.0588226-17.25
		C61.7170258,31.9526596,60.7644844,30.75,59.4747925,30.75L59.4747925,30.75z"/>
	<path style="fill:#A87E43;" d="M59.4747887,31.75c0.3073578,0,0.5930901,0.1381912,0.7839203,0.3791275
		c0.1908302,0.2409439,0.2598991,0.5507202,0.1894989,0.8499146l-4.0588188,17.25C56.282589,50.6829681,55.8822975,51,55.4159698,51
		H9.4999981H8.2442808c0.0361719-0.1021004,0.0669241-0.2065315,0.0919476-0.3128815l4.2743893-18.1661606
		C12.7174177,32.0670319,13.1177082,31.75,13.5840282,31.75H59.4747887 M59.4747887,30.75H13.5840282
		c-0.9281006,0-1.7342606,0.6384888-1.9468307,1.5419197L7.3628078,50.4580803
		c-0.13239,0.5626602-0.4950299,1.0225487-0.9739599,1.2894402C6.0987778,51.9091606,7.766048,52,7.4159679,52h2.0840302h45.9159698
		c0.9281082,0,1.7342682-0.6384888,1.9468384-1.5419197l4.0588188-17.25C61.7170181,31.9526596,60.7644882,30.75,59.4747887,30.75
		L59.4747887,30.75z"/>
</g>
<g>
</g>
<g>
</g>
<g>
</g>
<g>
</g>
<g>
</g>
<g>
</g>
</svg>
