<?xml version="1.0" encoding="utf-8"?>
<!-- Generator: Adobe Illustrator 18.0.0, SVG Export Plug-In . SVG Version: 6.00 Build 0)  -->
<!DOCTYPE svg PUBLIC "-//W3C//DTD SVG 1.1//EN" "http://www.w3.org/Graphics/SVG/1.1/DTD/svg11.dtd">
<svg version="1.1" id="レイヤー_1" xmlns="http://www.w3.org/2000/svg" xmlns:xlink="http://www.w3.org/1999/xlink" x="0px"
	 y="0px" width="64px" height="64px" viewBox="0 0 64 64" style="enable-background:new 0 0 64 64;" xml:space="preserve">
<g>
	<path style="fill:#F2B375;" d="M21.6660004,48.1161995c-5.8921003,1.7900009-8.9243002-1.5888977-9.8735008-3.0487976
		C9.8891602,42.142601,6.8032198,36.8115005,3.86133,30.4424c-3.543947-6.6903992,1.3945298-6.0674,5.0546904,0.8929996
		c0,0-3.2700205-5.2124004-4.2314506-7.7889996c-1.0864298-2.9120998,1.7070303-4.6270008,3.0034204-2.3360004l2.5581102,4.5214996
		c0,0-2.3232503-4.5248985-3.3945403-6.4179001c-1.0703101-1.8925991,0.7856498-5.4145994,3.31004-2.5971985
		c1.4159994,1.5785999,4.3364,7.2440987,1.6308994,2.4623985c-0.9579992-1.6942997,1.5254002-5.538599,2.9907007-2.9491997
		C16.25,18.8208008,22.9111004,29.8232002,22.9111004,29.8232002s-0.1933002,1.9345989,0.2670994,1.5263996
		c0.3197994-3.4995003,1.4444008-5.6196003,1.4444008-5.6196003s1.4090996-4.3495998,5.1878986-2.8036995
		c-0.9525986,3.6938-0.4613991,5.7856007-0.4613991,5.7856007s0.2534008,5.3310986,0.0401001,8.1317997
		C29.7339001,41.3046989,29.3628006,44.294899,21.6660004,48.1161995z"/>
	<path style="fill:#F2B375;" d="M42.3330002,48.1161995c5.8936005,1.7900009,8.9248009-1.5888977,9.875-3.0487976
		C54.1123009,42.142601,57.1973,36.8115005,60.1386986,30.4424c3.5438995-6.6903992-1.3945999-6.0674-5.0546989,0.8929996
		c0,0,3.2695007-5.2124004,4.2313995-7.7889996c1.0860023-2.9120998-1.7070007-4.6270008-3.0038986-2.3360004l-2.5576019,4.5214996
		c0,0,2.3223-4.5248985,3.3936005-6.4179001c1.0703011-1.8925991-0.7841988-5.4145994-3.3096008-2.5971985
		c-1.4159966,1.5785999-4.3358994,7.2440987-1.6298981,2.4623985c0.9580002-1.6942997-1.5254021-5.538599-2.9921989-2.9491997
		C47.75,18.8208008,41.0889015,29.8232002,41.0889015,29.8232002s0.1942978,1.9345989-0.2666016,1.5263996
		c-0.3194008-3.4995003-1.4444008-5.6196003-1.4444008-5.6196003s-1.410099-4.3495998-5.1884003-2.8036995
		c0.9521027,3.6938,0.4628029,5.7856007,0.4628029,5.7856007s-0.2548027,5.3310986-0.0429001,8.1317997
		C34.2655983,41.3046989,34.6366997,44.294899,42.3330002,48.1161995z"/>
	<g>
		<path style="fill:#BF8258;" d="M20.3183994,38.1963005c0,0,1.0620003-5.7929993,3.3198013-6.9633999l-1.3745003-2.2147999
			C22.2637005,29.0181007,17.9335995,35.1679993,20.3183994,38.1963005z"/>
		<path style="fill:#BF8258;" d="M11.6977997,37.5527c0,0,4.9281998,1.1973,6.8768997,2.1651001
			C20.5044003,40.6786995,16.3257008,36.1094017,11.6977997,37.5527z"/>
		<path style="fill:#BF8258;" d="M29.2924995,34.2450981c0,0,1.4980011,7.1289024-2.7572994,10.8174019
			c-3.2266006,2.1211014-4.7241993,2.7509995-4.7241993,2.7509995s3.4750996-3.482399,4.9721985-6.9365005
			C28.4818993,36.9530983,29.2924995,34.2450981,29.2924995,34.2450981z"/>
		<path style="fill:#BF8258;" d="M43.6815987,38.1963005c0,0-1.0625-5.7929993-3.3192978-6.9633999l1.3740005-2.2147999
			C41.7363014,29.0181007,46.0663986,35.1679993,43.6815987,38.1963005z"/>
		<path style="fill:#BF8258;" d="M52.3027,37.5527c0,0-4.9286995,1.1973-6.8778992,2.1651001
			C43.4961014,40.6786995,47.6748009,36.1094017,52.3027,37.5527z"/>
		<path style="fill:#BF8258;" d="M34.7080002,34.2450981c0,0-1.4990005,7.1289024,2.7568016,10.8174019
			c3.2276001,2.1211014,4.7246971,2.7509995,4.7246971,2.7509995s-3.4755974-3.482399-4.9726982-6.9365005
			C35.517601,36.9530983,34.7080002,34.2450981,34.7080002,34.2450981z"/>
	</g>
	<path style="fill:#72402D;" d="M42.1025009,48.5820007l0.0800972,0.032299
		c1.8594017,0.5643997,3.6104012,0.6805992,5.2070007,0.3446999c3.0401001-0.6405983,4.6884995-2.7363014,5.2549019-3.6064987
		c1.8008003-2.7695007,4.9356003-8.1308022,7.9668007-14.6914005c1.2304993-2.2807007,1.5243988-4.0737,0.8173981-5.0214996
		c-0.4756012-0.6367016-1.9081993-1.5566006-3.7910004,1.9473c0.8799019-1.5473003,1.7187004-2.6626015,2.1650009-3.8593998
		c0.4737015-1.2705002,0.3330002-2.5195007-0.375-3.3432007c-0.4902-0.5708008-1.1845016-0.8404007-1.8730011-0.7320004
		c0.0166016-0.0282993,0.0312004-0.0550995,0.0469017-0.0814991c0.5858994-1.0366001,0.482399-2.5132008-0.2490997-3.5112
		c-0.9267006-1.2686005-2.5361023-1.216301-3.9023018,0.3099995c-0.2860985,0.3193989-0.5028992,0.5702991-0.6865005,0.8046989
		c-0.1875-0.6093998-0.5186005-1.1996994-0.9501991-1.6425991c-1.0098-1.0366001-2.2998009-0.8828001-3.0508003,0.4424
		c-1.2528992,2.2138996-6.3827972,10.7075005-7.7714996,13.0058994c-0.419899-1.9820004-1.0088005-3.2080002-1.1328011-3.4526997
		c-0.4843979-1.4487-2.122097-3.9619007-4.9696999-3.3626995c-0.2910004,0.0615005-0.5937996,0.1562004-0.8964996,0.2796993
		l-0.3056984,0.6114006c0.902401,3.4995003,0.4599991,5.5184994,0.4561005,5.5384998l-0.0116997,0.0928001
		c-0.0108032,0.2178001-0.2520027,5.346199-0.0419998,8.1557999C33.7431984,41.3613014,34.1328011,44.6259995,42.1025009,48.5820007
		z M35.1299019,36.8838005v-0.080101c-0.1983032-2.6063995,0.0155983-7.5199986,0.0389977-8.0254002
		c0.0694008-0.3456993,0.3955994-2.2953987-0.3613014-5.5194988c0.1006012-0.0303001,0.1983032-0.0547009,0.2969017-0.0747013
		c2.6846008-0.5663986,3.7344017,2.5727005,3.7783012,2.706501l0.0341988,0.0820999
		C38.9277,25.9937,39.9980011,28.0576,40.3027,31.3978996c0,0,0.6192017-0.2176991,1.3203011-1.4515991
		c0.7958984-1.3169003,6.684597-11.0547009,8.0458984-13.4595013c0.1973-0.3471985,0.4112015-0.5531988,0.6231003-0.597599
		c0.2988014-0.0640001,0.6152,0.2035999,0.7764015,0.3685989c0.5848999,0.6011009,0.9384003,1.6279011,0.8055992,2.3262005
		c-0.092701,0.1709003-0.1943016,0.3618011-0.3115005,0.5806007c-0.3700981,0.6947994-5.3378983,9.4105988-5.3378983,9.4105988
		l0.9062996,0.5132008l5.5301971-9.6523991c0.0820999-0.1459999,0.1485023-0.3066006,0.1944008-0.4775009
		c0.4375-0.7978992,0.6533012-1.0956993,1.3701019-1.8945007c0.4306984-0.4799995,0.8593979-0.7763996,1.2402-0.8569984
		c0.5058975-0.1069012,0.8486977,0.1957989,1.0478973,0.4678001c0.4843025,0.6605988,0.5634003,1.7074986,0.1816025,2.3827991
		c-1.0536995,1.8623009-6.8057022,12.4463005-6.8057022,12.4463005l0.9062996,0.5132008l5.9687004-10.5503006
		c0.4981003-0.8789005,1.3437996-1.0215015,1.875-0.4028015c0.4561005,0.5307007,0.527401,1.3906002,0.1875,2.2993011
		c-0.732399,1.9652996-6.152298,11.1738014-6.152298,11.1738014l0.9053001,0.5126991c0,0,2.0839996-3.6582012,2.2977982-4.0088005
		c0.8506012-1.2593002,1.3379021-2.1748009,3.0694008-4.0785999c0.7363014-0.8096008,1.5088005-0.8857002,1.6473999-0.6991997
		c0.3232994,0.4315987,0.277401,1.7206993-0.9140015,3.9320984c-3.0136986,6.5215015-6.1288986,11.8535023-7.9081993,14.5888996
		c-0.4971008,0.7616997-1.9384995,2.5957031-4.5976982,3.1562004c-1.410202,0.2969017-2.9736023,0.1934013-4.6483994-0.3104973
		C34.9873009,43.8788986,34.8046989,41.1006012,35.1299019,36.8838005z"/>
	<path style="fill:#72402D;" d="M29.9116001,36.8428001c0.2084999-2.8096008-0.0312004-7.9379997-0.0429001-8.1557999
		l-0.0118008-0.0928001c-0.0038986-0.0200005-0.4447994-2.0389996,0.4576015-5.5384998l-0.3072014-0.6114006
		c-0.3022003-0.1234989-0.6044998-0.2181988-0.8959999-0.2796993c-2.8466988-0.5992012-4.4842987,1.9139996-4.9696999,3.3626995
		c-0.1234989,0.2446995-0.7133999,1.4706993-1.1322994,3.4526997c-1.3901997-2.298399-6.5200005-10.7919998-7.7729998-13.0058994
		c-0.75-1.3252001-2.0400009-1.4790001-3.0503006-0.4424c-0.4321003,0.4428997-0.7616997,1.0331993-0.9496994,1.6425991
		c-0.1836004-0.2343998-0.4004002-0.4853001-0.6865005-0.8046989c-1.36621-1.5263004-2.97509-1.5785999-3.9033198-0.3099995
		c-0.72998,0.9979992-0.8344703,2.4745998-0.2480402,3.5112c0.0156202,0.0263996,0.03125,0.0531998,0.0468702,0.0814991
		C5.75635,19.5438995,5.0629902,19.8134995,4.57129,20.3843002c-0.70801,0.8237-0.8476601,2.0727005-0.3740201,3.3432007
		c0.4467702,1.1967983,1.2841802,2.3120995,2.16503,3.8593998c-1.8828101-3.5039005-3.3154199-2.5840015-3.7910099-1.9473
		c-0.70801,0.9477997-0.4126,2.740799,0.8178699,5.0214996c3.0302699,6.5605984,6.16504,11.9218998,7.9663401,14.6914005
		c0.5669003,0.8701973,2.2147999,2.9659004,5.254899,3.6064987c1.5960999,0.3358994,3.3481007,0.2196999,5.2070007-0.3446999
		l0.0804996-0.032299C29.8666992,44.6259995,30.2563,41.3613014,29.9116001,36.8428001z M21.4745998,47.6299019
		c-1.6753006,0.5038986-3.2397003,0.607399-4.6494007,0.3104973c-2.6596994-0.5604973-4.1005993-2.3945007-4.5966988-3.1562004
		C10.4487,42.0488014,7.33252,36.7168007,4.3193402,30.1952991c-1.1914103-2.2113991-1.2378001-3.5004997-0.9145503-3.9320984
		c0.1391602-0.1865005,0.9116201-0.1104012,1.6479402,0.6991997C6.78369,28.8661995,7.27246,29.7817001,8.1220703,31.0410004
		c0.2143593,0.3505993,2.2978296,4.0088005,2.2978296,4.0088005l0.9057999-0.5126991c0,0-5.41994-9.2085018-6.1533399-11.1738014
		c-0.33886-0.9087009-0.2690401-1.7686005,0.1875-2.2993011c0.5327201-0.6187,1.3784199-0.476099,1.875,0.4028015
		l5.9702401,10.5503006l0.9056997-0.5132008c0,0-5.7523994-10.5839996-6.8056197-12.4463005
		c-0.3828201-0.6753006-0.3032303-1.7222004,0.1806598-2.3827991c0.1997104-0.2720013,0.5429697-0.5747013,1.0478506-0.4678001
		c0.3818398,0.0805988,0.8110399,0.3769989,1.2407198,0.8569984c0.7172899,0.7988014,0.9335899,1.0966015,1.3705902,1.8945007
		c0.0463991,0.1709003,0.1112995,0.331501,0.1938992,0.4775009l5.5307007,9.6523991l0.9062996-0.5132008
		c0,0-4.9682999-8.7157993-5.3388996-9.4105988c-0.1171999-0.2187996-0.2187004-0.4097004-0.3105001-0.5806007
		c-0.1324005-0.6982994,0.2207003-1.7250996,0.8056002-2.3262005c0.1602001-0.164999,0.4755993-0.4325991,0.7768993-0.3685989
		c0.2109003,0.0444002,0.4253006,0.2504005,0.6211004,0.597599c1.3612995,2.4048004,7.2510004,12.142601,8.0472994,13.4595013
		c0.7012005,1.2339001,1.3189011,1.4515991,1.3189011,1.4515991c0.3057003-3.3402996,1.3759995-5.4041996,1.3862-5.4251995
		l0.0347004-0.0820999c0.0438995-0.1338005,1.0941982-3.2728996,3.7787991-2.706501
		c0.0977001,0.0200005,0.1968002,0.0444012,0.2964001,0.0747013c-0.7577991,3.2241001-0.4307003,5.1737995-0.3603992,5.5194988
		c0.0234985,0.5054016,0.2363987,5.4190006,0.0380993,8.0254002v0.080101
		C29.1952991,41.1006012,29.0132008,43.8788986,21.4745998,47.6299019z"/>
</g>
<g>
</g>
<g>
</g>
<g>
</g>
<g>
</g>
<g>
</g>
<g>
</g>
</svg>
