<?xml version="1.0" encoding="utf-8"?>
<!-- Generator: Adobe Illustrator 15.0.0, SVG Export Plug-In . SVG Version: 6.00 Build 0)  -->
<!DOCTYPE svg PUBLIC "-//W3C//DTD SVG 1.1//EN" "http://www.w3.org/Graphics/SVG/1.1/DTD/svg11.dtd">
<svg version="1.1" id="レイヤー_1" xmlns="http://www.w3.org/2000/svg" xmlns:xlink="http://www.w3.org/1999/xlink" x="0px"
	 y="0px" width="64px" height="64px" viewBox="0 0 64 64" style="enable-background:new 0 0 64 64;" xml:space="preserve">
<g>
	<g>
		<g>
			<path style="fill:#FFB997;" d="M21.6660156,48.1162109c-5.8920898,1.7900391-8.9243164-1.5888672-9.8735352-3.0488281
				c-1.9033203-2.9248047-4.9892578-8.2558594-7.9311523-14.625C0.3173828,23.7519531,5.2558594,24.375,8.9160156,31.3354492
				c0,0-3.2700195-5.2124023-4.2314453-7.7890625c-1.0864258-2.9121094,1.7070313-4.6269531,3.003418-2.3359375l2.5581055,4.5214844
				c0,0-2.3232422-4.5249023-3.3945313-6.4179688c-1.0703125-1.8925781,0.7856445-5.4145508,3.3100586-2.597168
				c1.4160156,1.5786133,4.3364258,7.2441406,1.6308594,2.4624023c-0.9580078-1.6943359,1.5253906-5.5385742,2.9907227-2.9492188
				C16.25,18.8208008,22.9111328,29.8232422,22.9111328,29.8232422s-0.1933594,1.9345703,0.2670898,1.5263672
				c0.3198242-3.4995117,1.4443359-5.6196289,1.4443359-5.6196289s1.4091797-4.3496094,5.1879883-2.8037109
				c-0.9526367,3.6938477-0.4614258,5.7856445-0.4614258,5.7856445s0.253418,5.3310547,0.0400391,8.1318359
				C29.7338867,41.3046875,29.362793,44.2949219,21.6660156,48.1162109z"/>
			<path style="fill:#DE9170;" d="M20.3183594,38.1962891c0,0,1.0620117-5.7929688,3.3198242-6.9633789l-1.3745117-2.2148438
				C22.2636719,29.0180664,17.9335938,35.1679688,20.3183594,38.1962891z"/>
			<path style="fill:#DE9170;" d="M11.6977539,37.5527344c0,0,4.9282227,1.1972656,6.8769531,2.1650391
				C20.5043945,40.6787109,16.3256836,36.109375,11.6977539,37.5527344z"/>
			<path style="fill:#DE9170;" d="M29.2924805,34.2451172c0,0,1.4980469,7.1289063-2.7573242,10.8173828
				c-3.2265625,2.1210938-4.7241211,2.7509766-4.7241211,2.7509766s3.4750977-3.4824219,4.972168-6.9365234
				C28.4819336,36.953125,29.2924805,34.2451172,29.2924805,34.2451172z"/>
			<path style="fill:#420707;" d="M29.9116211,36.8427734c0.2084961-2.8095703-0.03125-7.9379883-0.0429688-8.1557617
				l-0.0117188-0.0927734c-0.0039063-0.0200195-0.4448242-2.0390625,0.4575195-5.5385742l-0.3071289-0.6113281
				c-0.3022461-0.1235352-0.6044922-0.2182617-0.8959961-0.2797852c-2.8466797-0.5991211-4.484375,1.9140625-4.9697266,3.362793
				c-0.1235352,0.2446289-0.7133789,1.4707031-1.1323242,3.4526367c-1.3901367-2.2983398-6.5200195-10.7919922-7.7729492-13.0058594
				c-0.75-1.3251953-2.0400391-1.4790039-3.050293-0.4423828c-0.4321289,0.4428711-0.7617188,1.0332031-0.949707,1.6425781
				c-0.1835938-0.234375-0.4003906-0.4853516-0.6865234-0.8046875c-1.3662109-1.5263672-2.9750977-1.5786133-3.9033203-0.3100586
				c-0.7299805,0.9980469-0.8344727,2.4746094-0.2480469,3.5112305c0.015625,0.0263672,0.03125,0.0532227,0.046875,0.081543
				c-0.6889648-0.1083984-1.3823242,0.1611328-1.8740234,0.7319336c-0.7080078,0.8237305-0.8476563,2.0727539-0.3740234,3.3432617
				c0.4467773,1.1967773,1.2841797,2.3120117,2.1650391,3.859375c-1.8828125-3.5039063-3.3154297-2.5839844-3.7910156-1.9472656
				c-0.7080078,0.9477539-0.4125977,2.7407227,0.8178711,5.0214844c3.0302734,6.5605469,6.1650391,11.921875,7.9663086,14.6914063
				c0.5668945,0.8701172,2.2148438,2.9658203,5.2548828,3.6064453c1.5961914,0.3359375,3.3481445,0.2197266,5.2070313-0.3447266
				l0.0805664-0.0322266C29.8666992,44.6259766,30.2563477,41.3613281,29.9116211,36.8427734z M21.4746094,47.6298828
				c-1.675293,0.5039063-3.2397461,0.6074219-4.6494141,0.3105469c-2.659668-0.5605469-4.1005859-2.3945313-4.5966797-3.15625
				c-1.7797852-2.7353516-4.8959961-8.0673828-7.9091797-14.5888672c-1.1914063-2.2114258-1.237793-3.5004883-0.9145508-3.9321289
				c0.1391602-0.1865234,0.9116211-0.1103516,1.6479492,0.6992188c1.730957,1.9038086,2.2197266,2.8193359,3.0693359,4.0786133
				c0.2143555,0.3505859,2.2978516,4.0087891,2.2978516,4.0087891l0.9057617-0.5126953
				c0,0-5.4199219-9.2084961-6.1533203-11.1738281c-0.3388672-0.9086914-0.269043-1.7685547,0.1875-2.2993164
				c0.5327148-0.6186523,1.378418-0.4760742,1.875,0.402832l5.9702148,10.550293l0.9057617-0.5131836
				c0,0-5.7524414-10.5839844-6.8056641-12.4462891c-0.3828125-0.675293-0.3032227-1.722168,0.1806641-2.3828125
				c0.199707-0.2719727,0.5429688-0.574707,1.0478516-0.4677734c0.3818359,0.0805664,0.8110352,0.3769531,1.2407227,0.8569336
				c0.7172852,0.7988281,0.9335938,1.0966797,1.3706055,1.8945313c0.0463867,0.1708984,0.1113281,0.331543,0.1938477,0.4775391
				l5.5307617,9.6523438l0.90625-0.5131836c0,0-4.9682617-8.7158203-5.3388672-9.4106445
				c-0.1171875-0.21875-0.21875-0.409668-0.3105469-0.5805664c-0.1323242-0.6982422,0.2207031-1.7250977,0.8056641-2.3261719
				c0.1601563-0.1650391,0.4755859-0.4326172,0.7768555-0.3686523c0.2109375,0.0444336,0.425293,0.2504883,0.6210938,0.5976563
				c1.3613281,2.4047852,7.2509766,12.1425781,8.0473633,13.4594727c0.7011719,1.2338867,1.3188477,1.4516602,1.3188477,1.4516602
				c0.3056641-3.340332,1.3759766-5.4042969,1.3862305-5.425293l0.034668-0.0820313
				c0.0439453-0.1337891,1.0942383-3.2729492,3.7788086-2.706543c0.0976563,0.0200195,0.1967773,0.0444336,0.2963867,0.074707
				c-0.7578125,3.2241211-0.4306641,5.1738281-0.3603516,5.5195313c0.0234375,0.5053711,0.2363281,5.4189453,0.0380859,8.0253906
				v0.0800781C29.1953125,41.1005859,29.0131836,43.8789063,21.4746094,47.6298828z"/>
		</g>
	</g>
	<g>
		<g>
			<path style="fill:#FFB997;" d="M42.3330078,48.1162109c5.8935547,1.7900391,8.9248047-1.5888672,9.875-3.0488281
				c1.9042969-2.9248047,4.9892578-8.2558594,7.9306641-14.625c3.5439453-6.6904297-1.3945313-6.0673828-5.0546875,0.8930664
				c0,0,3.2695313-5.2124023,4.2314453-7.7890625c1.0859375-2.9121094-1.7070313-4.6269531-3.0039063-2.3359375
				l-2.5576172,4.5214844c0,0,2.3222656-4.5249023,3.3935547-6.4179688c1.0703125-1.8925781-0.7841797-5.4145508-3.3095703-2.597168
				c-1.4160156,1.5786133-4.3359375,7.2441406-1.6298828,2.4624023c0.9580078-1.6943359-1.5253906-5.5385742-2.9921875-2.9492188
				C47.75,18.8208008,41.0888672,29.8232422,41.0888672,29.8232422s0.1943359,1.9345703-0.2666016,1.5263672
				c-0.3193359-3.4995117-1.4443359-5.6196289-1.4443359-5.6196289s-1.4101563-4.3496094-5.1884766-2.8037109
				c0.9521484,3.6938477,0.4628906,5.7856445,0.4628906,5.7856445s-0.2548828,5.3310547-0.0429688,8.1318359
				C34.265625,41.3046875,34.6367188,44.2949219,42.3330078,48.1162109z"/>
			<path style="fill:#DE9170;" d="M43.6816406,38.1962891c0,0-1.0625-5.7929688-3.3193359-6.9633789l1.3740234-2.2148438
				C41.7363281,29.0180664,46.0664063,35.1679688,43.6816406,38.1962891z"/>
			<path style="fill:#DE9170;" d="M52.3027344,37.5527344c0,0-4.9287109,1.1972656-6.8779297,2.1650391
				C43.4960938,40.6787109,47.6748047,36.109375,52.3027344,37.5527344z"/>
			<path style="fill:#DE9170;" d="M34.7080078,34.2451172c0,0-1.4990234,7.1289063,2.7568359,10.8173828
				c3.2275391,2.1210938,4.7246094,2.7509766,4.7246094,2.7509766s-3.4755859-3.4824219-4.9726563-6.9365234
				C35.5175781,36.953125,34.7080078,34.2451172,34.7080078,34.2451172z"/>
			<path style="fill:#420707;" d="M42.1025391,48.5820313l0.0800781,0.0322266
				c1.859375,0.5644531,3.6103516,0.6806641,5.2070313,0.3447266c3.0400391-0.640625,4.6884766-2.7363281,5.2548828-3.6064453
				c1.8007813-2.7695313,4.9355469-8.1308594,7.9667969-14.6914063c1.2304688-2.2807617,1.5244141-4.0737305,0.8173828-5.0214844
				c-0.4755859-0.6367188-1.9082031-1.5566406-3.7910156,1.9472656c0.8798828-1.5473633,1.71875-2.6625977,2.1650391-3.859375
				c0.4736328-1.2705078,0.3330078-2.5195313-0.375-3.3432617c-0.4902344-0.5708008-1.1845703-0.840332-1.8730469-0.7319336
				c0.0166016-0.0283203,0.03125-0.0551758,0.046875-0.081543c0.5859375-1.0366211,0.4824219-2.5131836-0.2490234-3.5112305
				c-0.9267578-1.2685547-2.5361328-1.2163086-3.9023438,0.3100586c-0.2861328,0.3193359-0.5029297,0.5703125-0.6865234,0.8046875
				c-0.1875-0.609375-0.5185547-1.199707-0.9501953-1.6425781c-1.0097656-1.0366211-2.2998047-0.8828125-3.0507813,0.4423828
				c-1.2529297,2.2138672-6.3828125,10.7075195-7.7714844,13.0058594c-0.4199219-1.9819336-1.0087891-3.2080078-1.1328125-3.4526367
				c-0.484375-1.4487305-2.1220703-3.9619141-4.9697266-3.362793c-0.2910156,0.0615234-0.59375,0.15625-0.8964844,0.2797852
				l-0.3056641,0.6113281c0.9023438,3.4995117,0.4599609,5.5185547,0.4560547,5.5385742l-0.0117188,0.0927734
				c-0.0107422,0.2177734-0.2519531,5.3461914-0.0419922,8.1557617
				C33.7431641,41.3613281,34.1328125,44.6259766,42.1025391,48.5820313z M35.1298828,36.8837891v-0.0800781
				c-0.1982422-2.6064453,0.015625-7.5200195,0.0390625-8.0253906c0.0693359-0.3457031,0.3955078-2.2954102-0.3613281-5.5195313
				c0.1005859-0.0302734,0.1982422-0.0546875,0.296875-0.074707c2.6845703-0.5664063,3.734375,2.5727539,3.7783203,2.706543
				l0.0341797,0.0820313c0.0107422,0.0209961,1.0810547,2.0849609,1.3857422,5.425293c0,0,0.6191406-0.2177734,1.3203125-1.4516602
				c0.7958984-1.3168945,6.6845703-11.0546875,8.0458984-13.4594727c0.1972656-0.347168,0.4111328-0.5532227,0.6230469-0.5976563
				c0.2988281-0.0639648,0.6152344,0.2036133,0.7763672,0.3686523c0.5849609,0.6010742,0.9384766,1.6279297,0.8056641,2.3261719
				c-0.0927734,0.1708984-0.1943359,0.3618164-0.3115234,0.5805664c-0.3701172,0.6948242-5.3378906,9.4106445-5.3378906,9.4106445
				l0.90625,0.5131836l5.5302734-9.6523438c0.0820313-0.1459961,0.1484375-0.3066406,0.1943359-0.4775391
				c0.4375-0.7978516,0.6533203-1.0957031,1.3701172-1.8945313c0.4306641-0.4799805,0.859375-0.7763672,1.2402344-0.8569336
				c0.5058594-0.1069336,0.8486328,0.1958008,1.0478516,0.4677734c0.484375,0.6606445,0.5634766,1.7075195,0.1816406,2.3828125
				c-1.0537109,1.8623047-6.8056641,12.4462891-6.8056641,12.4462891l0.90625,0.5131836l5.96875-10.550293
				c0.4980469-0.8789063,1.34375-1.0214844,1.875-0.402832c0.4560547,0.5307617,0.5273438,1.390625,0.1875,2.2993164
				c-0.7324219,1.965332-6.1523438,11.1738281-6.1523438,11.1738281l0.9052734,0.5126953
				c0,0,2.0839844-3.6582031,2.2978516-4.0087891c0.8505859-1.2592773,1.3378906-2.1748047,3.0693359-4.0786133
				c0.7363281-0.8095703,1.5087891-0.8857422,1.6474609-0.6992188c0.3232422,0.4316406,0.2773438,1.7207031-0.9140625,3.9321289
				c-3.0136719,6.5214844-6.1289063,11.8535156-7.9082031,14.5888672c-0.4970703,0.7617188-1.9384766,2.5957031-4.5976563,3.15625
				c-1.4101563,0.296875-2.9736328,0.1933594-4.6484375-0.3105469
				C34.9873047,43.8789063,34.8046875,41.1005859,35.1298828,36.8837891z"/>
		</g>
	</g>
</g>
</svg>
