<?xml version="1.0" encoding="utf-8"?>
<!-- Generator: Adobe Illustrator 18.0.0, SVG Export Plug-In . SVG Version: 6.00 Build 0)  -->
<!DOCTYPE svg PUBLIC "-//W3C//DTD SVG 1.1//EN" "http://www.w3.org/Graphics/SVG/1.1/DTD/svg11.dtd">
<svg version="1.1" id="レイヤー_1" xmlns="http://www.w3.org/2000/svg" xmlns:xlink="http://www.w3.org/1999/xlink" x="0px"
	 y="0px" width="64px" height="64px" viewBox="0 0 64 64" style="enable-background:new 0 0 64 64;" xml:space="preserve">
<g>
	<path style="fill:#FFFFFF;" d="M32,4.5C16.8121948,4.5,4.5,16.8121338,4.5,32c0,15.1878052,12.3121948,27.5,27.5,27.5
		S59.5,47.1878052,59.5,32C59.5,16.8121338,47.1878052,4.5,32,4.5z M32,39.5c-4.1421509,0-7.5-3.3578491-7.5-7.5
		s3.3578491-7.5,7.5-7.5s7.5,3.3578491,7.5,7.5S36.1421509,39.5,32,39.5z"/>
	<path style="fill:#231815;" d="M32,60.5C16.2851563,60.5,3.5,47.7148438,3.5,32S16.2851563,3.5,32,3.5S60.5,16.2851563,60.5,32
		S47.7148438,60.5,32,60.5z M32,5.5C17.3876953,5.5,5.5,17.3876953,5.5,32S17.3876953,58.5,32,58.5S58.5,46.6123047,58.5,32
		S46.6123047,5.5,32,5.5z M32,40.5c-4.6870117,0-8.5-3.8134766-8.5-8.5c0-4.6870117,3.8129883-8.5,8.5-8.5
		c4.6865234,0,8.5,3.8129883,8.5,8.5C40.5,36.6865234,36.6865234,40.5,32,40.5z M32,25.5c-3.5839844,0-6.5,2.9160156-6.5,6.5
		s2.9160156,6.5,6.5,6.5s6.5-2.9160156,6.5-6.5S35.5839844,25.5,32,25.5z"/>
</g>
<path style="fill:#231815;" d="M32,24.5c4.1421394,0,7.5,3.3578606,7.5,7.5s-3.3578606,7.5-7.5,7.5s-7.5-3.3578568-7.5-7.5
	S27.8578587,24.5,32,24.5 M32,20.5c-6.3411179,0-11.5,5.1588821-11.5,11.5S25.6588821,43.5,32,43.5S43.5,38.3411179,43.5,32
	S38.3411179,20.5,32,20.5L32,20.5z"/>
<path style="fill:#231815;" d="M32,55.5C19.0419922,55.5,8.5,44.9580078,8.5,32h2c0,11.8554688,9.6450195,21.5,21.5,21.5V55.5z"/>
<g>
</g>
<g>
</g>
<g>
</g>
<g>
</g>
<g>
</g>
<g>
</g>
</svg>
