<?xml version="1.0" encoding="UTF-8" standalone="no"?>
<!-- Generator: Adobe Illustrator 18.0.0, SVG Export Plug-In . SVG Version: 6.00 Build 0)  -->

<svg
   xmlns:dc="http://purl.org/dc/elements/1.1/"
   xmlns:cc="http://creativecommons.org/ns#"
   xmlns:rdf="http://www.w3.org/1999/02/22-rdf-syntax-ns#"
   xmlns:svg="http://www.w3.org/2000/svg"
   xmlns="http://www.w3.org/2000/svg"
   xmlns:sodipodi="http://sodipodi.sourceforge.net/DTD/sodipodi-0.dtd"
   xmlns:inkscape="http://www.inkscape.org/namespaces/inkscape"
   version="1.1"
   id="レイヤー_1"
   x="0px"
   y="0px"
   width="64px"
   height="64px"
   viewBox="0 0 64 64"
   style="enable-background:new 0 0 64 64;"
   xml:space="preserve"
   inkscape:version="0.48.5 r10040"
   sodipodi:docname="overlap.svg"><metadata
     id="metadata55"><rdf:RDF><cc:Work
         rdf:about=""><dc:format>image/svg+xml</dc:format><dc:type
           rdf:resource="http://purl.org/dc/dcmitype/StillImage" /></cc:Work></rdf:RDF></metadata><defs
     id="defs53" /><sodipodi:namedview
     pagecolor="#ffffff"
     bordercolor="#666666"
     borderopacity="1"
     objecttolerance="10"
     gridtolerance="10"
     guidetolerance="10"
     inkscape:pageopacity="0"
     inkscape:pageshadow="2"
     inkscape:window-width="640"
     inkscape:window-height="480"
     id="namedview51" /><g
     id="g3"><linearGradient
       id="SVGID_1_"
       gradientUnits="userSpaceOnUse"
       x1="42"
       y1="7"
       x2="42"
       y2="38.666687"><stop
         offset="0"
         style="stop-color:#B2B2B3"
         id="stop6" /><stop
         offset="1"
         style="stop-color:#3E3A39"
         id="stop8" /></linearGradient><path
       style="fill:url(#SVGID_1_);"
       d="M39.5,38.666687h20V7h-35v24.999958h5V16.166687h25v17.5h-15V38.666687z"
       id="path10" /><linearGradient
       id="SVGID_2_"
       gradientUnits="userSpaceOnUse"
       x1="42"
       y1="7.0000038"
       x2="42"
       y2="38.6666832"><stop
         offset="0"
         style="stop-color:#FFFFFF"
         id="stop13" /><stop
         offset="1"
         style="stop-color:#717071"
         id="stop15" /></linearGradient><path
       style="fill:url(#SVGID_2_);"
       d="M57.5,9.0000038v27.6666794h-16v-1h13c1.1045685,0,2-0.8954277,2-2v-17.5   c0-1.1045685-0.8954315-2-2-2h-25c-1.1045704,0-2,0.8954315-2,2v13.833271h-1V9.0000038H57.5 M59.5,7.0000038h-35v24.9999504h5   v-15.833271h25v17.5h-15v5h20V7.0000038L59.5,7.0000038z"
       id="path17" /><path
       style="fill:#3E3A39;"
       d="M58.5,8.0000038v29.6666794h-18v-3h14c0.5522804,0,1-0.4477196,1-1v-17.5   c0-0.5522804-0.4477196-1-1-1h-25c-0.5522804,0-1,0.4477196-1,1v14.833271h-3V8.0000038H58.5 M59.5,7.0000038h-35v24.9999504h5   v-15.833271h25v17.5h-15v5h20V7.0000038L59.5,7.0000038z"
       id="path19" /></g><g
     id="g21"><linearGradient
       id="SVGID_3_"
       gradientUnits="userSpaceOnUse"
       x1="24.5"
       y1="25.333313"
       x2="24.5"
       y2="57"><stop
         offset="0"
         style="stop-color:#B2B2B3"
         id="stop24" /><stop
         offset="1"
         style="stop-color:#3E3A39"
         id="stop26" /></linearGradient><path
       style="fill:url(#SVGID_3_);"
       d="M7,25.333313V57h35V25.333313H7z M37,52H12V34.5h25V52z"
       id="path28" /><linearGradient
       id="SVGID_4_"
       gradientUnits="userSpaceOnUse"
       x1="24.5"
       y1="25.3333168"
       x2="24.5"
       y2="56.9999962"><stop
         offset="0"
         style="stop-color:#FFFFFF"
         id="stop31" /><stop
         offset="1"
         style="stop-color:#717071"
         id="stop33" /></linearGradient><path
       style="fill:url(#SVGID_4_);"
       d="M40,27.3333168v27.6666794H9V27.3333168H40 M12,53.9999962h25c1.1045685,0,2-0.8954277,2-2   v-17.5c0-1.1045723-0.8954315-2-2-2H12c-1.1045704,0-2,0.8954277-2,2v17.5C10,53.1045685,10.8954296,53.9999962,12,53.9999962    M42,25.3333168H7v31.6666794h35V25.3333168L42,25.3333168z M12,51.9999962v-17.5h25v17.5H12L12,51.9999962z"
       id="path35" /><path
       style="fill:#3E3A39;"
       d="M41,26.3333168v29.6666794H8V26.3333168H41 M12,52.9999962h25c0.5522804,0,1-0.4477196,1-1v-17.5   c0-0.5522804-0.4477196-1-1-1H12c-0.5522804,0-1,0.4477196-1,1v17.5C11,52.5522766,11.4477196,52.9999962,12,52.9999962    M42,25.3333168H7v31.6666794h35V25.3333168L42,25.3333168z M12,51.9999962v-17.5h25v17.5H12L12,51.9999962z"
       id="path37" /></g><g
     id="g39" /><g
     id="g41" /><g
     id="g43" /><g
     id="g45" /><g
     id="g47" /><g
     id="g49" /></svg>