<?xml version="1.0" encoding="UTF-8" standalone="no"?>
<!-- Generator: Adobe Illustrator 18.0.0, SVG Export Plug-In . SVG Version: 6.00 Build 0)  -->

<svg
   xmlns:dc="http://purl.org/dc/elements/1.1/"
   xmlns:cc="http://creativecommons.org/ns#"
   xmlns:rdf="http://www.w3.org/1999/02/22-rdf-syntax-ns#"
   xmlns:svg="http://www.w3.org/2000/svg"
   xmlns="http://www.w3.org/2000/svg"
   xmlns:sodipodi="http://sodipodi.sourceforge.net/DTD/sodipodi-0.dtd"
   xmlns:inkscape="http://www.inkscape.org/namespaces/inkscape"
   version="1.1"
   id="レイヤー_1"
   x="0px"
   y="0px"
   width="64px"
   height="64px"
   viewBox="0 0 64 64"
   style="enable-background:new 0 0 64 64;"
   xml:space="preserve"
   inkscape:version="0.48.5 r10040"
   sodipodi:docname="pages.svg"><metadata
     id="metadata130"><rdf:RDF><cc:Work
         rdf:about=""><dc:format>image/svg+xml</dc:format><dc:type
           rdf:resource="http://purl.org/dc/dcmitype/StillImage" /></cc:Work></rdf:RDF></metadata><defs
     id="defs128" /><sodipodi:namedview
     pagecolor="#ffffff"
     bordercolor="#666666"
     borderopacity="1"
     objecttolerance="10"
     gridtolerance="10"
     guidetolerance="10"
     inkscape:pageopacity="0"
     inkscape:pageshadow="2"
     inkscape:window-width="640"
     inkscape:window-height="480"
     id="namedview126" /><g
     id="g3"><rect
       x="18"
       y="2.7001953"
       style="fill:#FFFFFF;"
       width="37"
       height="50.5"
       id="rect5" /><path
       style="fill:#868686;"
       d="M54.5,3.2000008v49.5h-36v-49.5H54.5 M55.5,2.2000008h-1h-36h-1v1v49.5v1h1h36h1v-1v-49.5V2.2000008   L55.5,2.2000008z"
       id="path7" /><path
       style="fill:#FFFFFF;"
       d="M54.5,3.2000008v49.5h-36v-49.5H54.5 M55,2.7000008h-0.5h-36H18v0.5v49.5v0.5h0.5h36H55v-0.5v-49.5   V2.7000008L55,2.7000008z"
       id="path9" /></g><linearGradient
     id="SVGID_1_"
     gradientUnits="userSpaceOnUse"
     x1="21.2829361"
     y1="54.3067284"
     x2="51.7170639"
     y2="1.5932714"><stop
       offset="0.7699115"
       style="stop-color:#3E3A39;stop-opacity:0"
       id="stop12" /><stop
       offset="1"
       style="stop-color:#3E3A39;stop-opacity:0.1"
       id="stop14" /></linearGradient><rect
     x="18.5"
     y="3.2000008"
     style="fill:url(#SVGID_1_);"
     width="36"
     height="49.5"
     id="rect16" /><g
     id="g18"><rect
       x="20.75"
       y="6.8000007"
       style="fill:#868686;"
       width="31.5"
       height="1.8"
       id="rect20" /><rect
       x="20.75"
       y="11.3000011"
       style="fill:#868686;"
       width="31.5"
       height="1.8"
       id="rect22" /><rect
       x="20.75"
       y="15.8000011"
       style="fill:#868686;"
       width="31.5"
       height="1.8"
       id="rect24" /><rect
       x="20.75"
       y="20.3000011"
       style="fill:#868686;"
       width="31.5"
       height="1.8"
       id="rect26" /><rect
       x="20.75"
       y="24.8000011"
       style="fill:#868686;"
       width="27"
       height="1.8"
       id="rect28" /><rect
       x="20.75"
       y="29.3000011"
       style="fill:#868686;"
       width="31.5"
       height="1.8"
       id="rect30" /><rect
       x="20.75"
       y="33.7999992"
       style="fill:#868686;"
       width="31.5"
       height="1.8"
       id="rect32" /><rect
       x="20.75"
       y="38.2999992"
       style="fill:#868686;"
       width="31.5"
       height="1.8"
       id="rect34" /><rect
       x="20.75"
       y="42.7999992"
       style="fill:#868686;"
       width="31.5"
       height="1.8"
       id="rect36" /><rect
       x="20.75"
       y="47.2999992"
       style="fill:#868686;"
       width="27"
       height="1.8"
       id="rect38" /></g><g
     id="g40"><rect
       x="13.5"
       y="6.75"
       style="fill:#FFFFFF;"
       width="37"
       height="50.5"
       id="rect42" /><path
       style="fill:#868686;"
       d="M50,7.25v49.5H14V7.25H50 M51,6.25h-1H14h-1v1v49.5v1h1h36h1v-1V7.25V6.25L51,6.25z"
       id="path44" /><path
       style="fill:#FFFFFF;"
       d="M50,7.25v49.5H14V7.25H50 M50.5,6.75H50H14h-0.5v0.5v49.5v0.5H14h36h0.5v-0.5V7.25V6.75L50.5,6.75z"
       id="path46" /></g><linearGradient
     id="SVGID_2_"
     gradientUnits="userSpaceOnUse"
     x1="16.7829361"
     y1="58.3567276"
     x2="47.2170639"
     y2="5.6432714"><stop
       offset="0.7699115"
       style="stop-color:#3E3A39;stop-opacity:0"
       id="stop49" /><stop
       offset="1"
       style="stop-color:#3E3A39;stop-opacity:0.1"
       id="stop51" /></linearGradient><rect
     x="14"
     y="7.25"
     style="fill:url(#SVGID_2_);"
     width="36"
     height="49.5"
     id="rect53" /><g
     id="g55"><rect
       x="16.25"
       y="10.8500004"
       style="fill:#868686;"
       width="31.5"
       height="1.8"
       id="rect57" /><rect
       x="16.25"
       y="15.3500004"
       style="fill:#868686;"
       width="31.5"
       height="1.8"
       id="rect59" /><rect
       x="16.25"
       y="19.8500004"
       style="fill:#868686;"
       width="31.5"
       height="1.8"
       id="rect61" /><rect
       x="16.25"
       y="24.3500004"
       style="fill:#868686;"
       width="31.5"
       height="1.8"
       id="rect63" /><rect
       x="16.25"
       y="28.8500004"
       style="fill:#868686;"
       width="27"
       height="1.8"
       id="rect65" /><rect
       x="16.25"
       y="33.3499985"
       style="fill:#868686;"
       width="31.5"
       height="1.8"
       id="rect67" /><rect
       x="16.25"
       y="37.8499985"
       style="fill:#868686;"
       width="31.5"
       height="1.8"
       id="rect69" /><rect
       x="16.25"
       y="42.3499985"
       style="fill:#868686;"
       width="31.5"
       height="1.8"
       id="rect71" /><rect
       x="16.25"
       y="46.8499985"
       style="fill:#868686;"
       width="31.5"
       height="1.8"
       id="rect73" /><rect
       x="16.25"
       y="51.3499985"
       style="fill:#868686;"
       width="27"
       height="1.8"
       id="rect75" /></g><g
     id="g77"><rect
       x="9"
       y="10.7998047"
       style="fill:#FFFFFF;"
       width="37"
       height="50.5"
       id="rect79" /><path
       style="fill:#868686;"
       d="M45.5,11.2999992v49.5h-36v-49.5H45.5 M46.5,10.2999992h-1h-36h-1v1v49.5v1h1h36h1v-1v-49.5   V10.2999992L46.5,10.2999992z"
       id="path81" /><path
       style="fill:#FFFFFF;"
       d="M45.5,11.2999992v49.5h-36v-49.5H45.5 M46,10.7999992h-0.5h-36H9v0.5v49.5v0.5h0.5h36H46v-0.5v-49.5   V10.7999992L46,10.7999992z"
       id="path83" /></g><linearGradient
     id="SVGID_3_"
     gradientUnits="userSpaceOnUse"
     x1="12.2829361"
     y1="62.4067268"
     x2="42.7170639"
     y2="9.6932716"><stop
       offset="0.7699115"
       style="stop-color:#3E3A39;stop-opacity:0"
       id="stop86" /><stop
       offset="1"
       style="stop-color:#3E3A39;stop-opacity:0.1"
       id="stop88" /></linearGradient><rect
     x="9.5"
     y="11.2999992"
     style="fill:url(#SVGID_3_);"
     width="36"
     height="49.5"
     id="rect90" /><g
     id="g92"><rect
       x="11.75"
       y="14.8999996"
       style="fill:#868686;"
       width="31.5"
       height="1.8"
       id="rect94" /><rect
       x="11.75"
       y="19.3999996"
       style="fill:#868686;"
       width="31.5"
       height="1.8"
       id="rect96" /><rect
       x="11.75"
       y="23.8999996"
       style="fill:#868686;"
       width="31.5"
       height="1.8"
       id="rect98" /><rect
       x="11.75"
       y="28.3999996"
       style="fill:#868686;"
       width="31.5"
       height="1.8"
       id="rect100" /><rect
       x="11.75"
       y="32.8999977"
       style="fill:#868686;"
       width="27"
       height="1.8"
       id="rect102" /><rect
       x="11.75"
       y="37.3999977"
       style="fill:#868686;"
       width="31.5"
       height="1.8"
       id="rect104" /><rect
       x="11.75"
       y="41.8999977"
       style="fill:#868686;"
       width="31.5"
       height="1.8"
       id="rect106" /><rect
       x="11.75"
       y="46.3999977"
       style="fill:#868686;"
       width="31.5"
       height="1.8"
       id="rect108" /><rect
       x="11.75"
       y="50.9000015"
       style="fill:#868686;"
       width="31.5"
       height="1.8"
       id="rect110" /><rect
       x="11.75"
       y="55.4000015"
       style="fill:#868686;"
       width="27"
       height="1.8"
       id="rect112" /></g><g
     id="g114" /><g
     id="g116" /><g
     id="g118" /><g
     id="g120" /><g
     id="g122" /><g
     id="g124" /></svg>