<?xml version="1.0" encoding="UTF-8" standalone="no"?>
<!-- Generator: Adobe Illustrator 18.0.0, SVG Export Plug-In . SVG Version: 6.00 Build 0)  -->

<svg
   xmlns:dc="http://purl.org/dc/elements/1.1/"
   xmlns:cc="http://creativecommons.org/ns#"
   xmlns:rdf="http://www.w3.org/1999/02/22-rdf-syntax-ns#"
   xmlns:svg="http://www.w3.org/2000/svg"
   xmlns="http://www.w3.org/2000/svg"
   xmlns:sodipodi="http://sodipodi.sourceforge.net/DTD/sodipodi-0.dtd"
   xmlns:inkscape="http://www.inkscape.org/namespaces/inkscape"
   version="1.1"
   id="レイヤー_1"
   x="0px"
   y="0px"
   width="64px"
   height="64px"
   viewBox="0 0 64 64"
   style="enable-background:new 0 0 64 64;"
   xml:space="preserve"
   inkscape:version="0.48.5 r10040"
   sodipodi:docname="page.svg"><metadata
     id="metadata56"><rdf:RDF><cc:Work
         rdf:about=""><dc:format>image/svg+xml</dc:format><dc:type
           rdf:resource="http://purl.org/dc/dcmitype/StillImage" /></cc:Work></rdf:RDF></metadata><defs
     id="defs54" /><sodipodi:namedview
     pagecolor="#ffffff"
     bordercolor="#666666"
     borderopacity="1"
     objecttolerance="10"
     gridtolerance="10"
     guidetolerance="10"
     inkscape:pageopacity="0"
     inkscape:pageshadow="2"
     inkscape:window-width="640"
     inkscape:window-height="480"
     id="namedview52" /><g
     id="g3"><rect
       x="11.5"
       y="4"
       style="fill:#FFFFFF;"
       width="41"
       height="56"
       id="rect5" /><path
       style="fill:#868686;"
       d="M52,4.5v55H12v-55H52 M53,3.5h-1H12h-1v1v55v1h1h40h1v-1v-55V3.5L53,3.5z"
       id="path7" /><path
       style="fill:#FFFFFF;"
       d="M52,4.5v55H12v-55H52 M52.5,4H52H12h-0.5v0.5v55V60H12h40h0.5v-0.5v-55V4L52.5,4z"
       id="path9" /></g><linearGradient
     id="SVGID_1_"
     gradientUnits="userSpaceOnUse"
     x1="15.0921507"
     y1="61.2852554"
     x2="48.9078484"
     y2="2.714746"><stop
       offset="0.7699115"
       style="stop-color:#3E3A39;stop-opacity:0"
       id="stop12" /><stop
       offset="1"
       style="stop-color:#3E3A39;stop-opacity:0.1"
       id="stop14" /></linearGradient><rect
     x="12"
     y="4.5"
     style="fill:url(#SVGID_1_);"
     width="40"
     height="55"
     id="rect16" /><g
     id="g18"><rect
       x="14.5"
       y="8.5"
       style="fill:#868686;"
       width="35"
       height="2"
       id="rect20" /><rect
       x="14.5"
       y="13.5"
       style="fill:#868686;"
       width="35"
       height="2"
       id="rect22" /><rect
       x="14.5"
       y="18.5"
       style="fill:#868686;"
       width="35"
       height="2"
       id="rect24" /><rect
       x="14.5"
       y="23.5"
       style="fill:#868686;"
       width="35"
       height="2"
       id="rect26" /><rect
       x="14.5"
       y="28.5"
       style="fill:#868686;"
       width="30"
       height="2"
       id="rect28" /><rect
       x="14.5"
       y="33.5"
       style="fill:#868686;"
       width="35"
       height="2"
       id="rect30" /><rect
       x="14.5"
       y="38.5"
       style="fill:#868686;"
       width="35"
       height="2"
       id="rect32" /><rect
       x="14.5"
       y="43.5"
       style="fill:#868686;"
       width="35"
       height="2"
       id="rect34" /><rect
       x="14.5"
       y="48.5"
       style="fill:#868686;"
       width="35"
       height="2"
       id="rect36" /><rect
       x="14.5"
       y="53.5"
       style="fill:#868686;"
       width="30"
       height="2"
       id="rect38" /></g><g
     id="g40" /><g
     id="g42" /><g
     id="g44" /><g
     id="g46" /><g
     id="g48" /><g
     id="g50" /></svg>