<?xml version="1.0" encoding="utf-8"?>
<!-- Generator: Adobe Illustrator 15.0.2, SVG Export Plug-In . SVG Version: 6.00 Build 0)  -->
<!DOCTYPE svg PUBLIC "-//W3C//DTD SVG 1.1//EN" "http://www.w3.org/Graphics/SVG/1.1/DTD/svg11.dtd">
<svg version="1.1" id="レイヤー_1" xmlns="http://www.w3.org/2000/svg" xmlns:xlink="http://www.w3.org/1999/xlink" x="0px"
	 y="0px" width="64px" height="64px" viewBox="0 0 64 64" enable-background="new 0 0 64 64" xml:space="preserve">
<path fill="none" stroke="#700800" stroke-miterlimit="10" d="M3.33,60.555c0,0-5.205,1.07-4.83,6.32s-5.25,9.75-11.375,7.75"/>
<g>
	<polygon fill="#FFA910" stroke="#700800" stroke-width="0.9289" stroke-miterlimit="10" points="19.71,28.057 3.33,60.555 
		35.827,44.174 	"/>
	
		<linearGradient id="SVGID_1_" gradientUnits="userSpaceOnUse" x1="30.8296" y1="35.8994" x2="30.8296" y2="44.6762" gradientTransform="matrix(0.7071 0.7071 -0.7071 0.7071 33.167 -12.8825)">
		<stop  offset="0" style="stop-color:#FFB81F"/>
		<stop  offset="1" style="stop-color:#3F1900"/>
	</linearGradient>
	<path fill="url(#SVGID_1_)" stroke="#700800" stroke-width="0.9025" stroke-miterlimit="10" d="M35.827,44.174
		c-1.422,1.422-6.182-1.034-10.632-5.484c-4.451-4.451-6.906-9.211-5.485-10.632c1.421-1.421,6.181,1.035,10.632,5.486
		C34.792,37.993,37.248,42.753,35.827,44.174z"/>
	<path fill="#BF0900" d="M22.563,41.322c-3.746-3.746-5.604-7.961-4.149-9.415l-3.194,4.704c-1.455,1.455-0.352,4.914,3.394,8.66
		c3.746,3.746,7.206,4.848,8.66,3.395l4.704-3.195C30.522,46.926,26.308,45.067,22.563,41.322z"/>
	<path fill="#BF0900" d="M15.247,48.637c-2.29-2.289-3.698-5.453-2.616-6.535l-2.049,3.83c-1.083,1.084-0.566,3.355,1.724,5.646
		c2.29,2.289,4.562,2.807,5.646,1.723l3.831-2.047C20.701,52.336,17.537,50.928,15.247,48.637z"/>
	<path fill="#BF0900" d="M9.861,54.023c-1.236-1.236-1.725-3.219-0.802-4.141l-2.022,2.984c-0.923,0.922-0.916,2.424,0.32,3.66
		c1.237,1.238,2.737,1.242,3.66,0.32l2.986-2.021C13.08,55.748,11.098,55.262,9.861,54.023z"/>
</g>
<g>
	<g>
		<g enable-background="new    ">
			<g>
				<polygon fill="#FF4874" points="52.368,0.041 54.526,2.433 54.568,2.526 52.409,0.135 				"/>
			</g>
			<g>
				<path fill="#FF4874" d="M52.409,0.135l2.159,2.391c-0.042,0.024-3.741,1.733-7.438,4.413c-1.885,1.363-3.974,3.147-5.502,5.159
					L39.47,9.707c1.529-2.011,3.618-3.795,5.503-5.159C48.668,1.868,52.367,0.16,52.409,0.135z"/>
			</g>
			<g>
				<polygon fill="#FF4874" points="26.94,27.394 29.099,29.785 29.003,29.753 26.845,27.362 				"/>
			</g>
			<g>
				<path fill="#FF4874" d="M39.19,9.911l2.159,2.391c-6.457,2.254-12.191,17.329-12.251,17.482l-2.158-2.391
					C27,27.239,32.734,12.165,39.19,9.911z"/>
			</g>
			<g>
				<path fill="#FF4874" d="M44.906,11.828l2.158,2.391c-0.083-0.091-0.168-0.183-0.255-0.275c-1.408-1.474-2.933-2.107-4.516-1.877
					c-0.088,0.013-0.176,0.028-0.264,0.046c-0.168,0.034-0.343,0.077-0.509,0.128L39.363,9.85c0.165-0.051,0.341-0.095,0.508-0.129
					c0.089-0.018,0.176-0.033,0.264-0.045c1.583-0.23,3.107,0.403,4.517,1.877C44.738,11.645,44.823,11.736,44.906,11.828z"/>
			</g>
			<g>
				<path fill="#FF4874" d="M40.506,20.601l-2.158-2.392c-0.742-0.821-1.115-1.917-1.063-3.208c0.076-1.81,0.898-3.555,2.078-5.152
					l2.158,2.391c-1.18,1.597-2.001,3.342-2.078,5.152C39.391,18.683,39.765,19.779,40.506,20.601z"/>
			</g>
			<g>
				<path fill="#FF4874" d="M44.988,11.767l2.159,2.391c2.849,3.156,2.313,5.185,1.727,6.135c-0.641,1.032-1.937,1.72-3.395,1.932
					c-0.925,0.134-1.916,0.077-2.847-0.208c-0.92-0.281-1.664-0.741-2.211-1.347l-2.159-2.391c0.548,0.606,1.292,1.066,2.212,1.347
					c0.93,0.285,1.922,0.342,2.847,0.208c1.458-0.212,2.753-0.9,3.395-1.932C47.303,16.952,47.838,14.923,44.988,11.767z"/>
			</g>
			<g>
				<path fill="#FF4874" d="M40.122,9.567c1.629-0.237,3.176,0.411,4.601,1.912c3.147,3.321,2.598,5.444,1.993,6.423
					c-0.642,1.032-1.937,1.72-3.395,1.932c-0.925,0.134-1.917,0.077-2.847-0.208c-2.195-0.671-3.393-2.36-3.29-4.627
					c0.07-1.791,0.86-3.503,2.006-5.086C32.734,12.165,27,27.239,26.94,27.394l-0.096-0.031c0.011-0.048,1.561-4.133,3.919-8.344
					c2.07-3.688,5.188-8.183,8.532-9.259c1.546-2.078,3.694-3.897,5.619-5.293c3.704-2.69,7.41-4.409,7.453-4.425l0.041,0.094
					c-0.042,0.024-3.741,1.733-7.437,4.413c-1.885,1.363-3.974,3.147-5.503,5.159c0.122-0.036,0.254-0.064,0.378-0.091
					C39.946,9.601,40.033,9.58,40.122,9.567z M46.625,17.841c1.02-1.638,0.317-3.87-1.974-6.289
					c-1.409-1.474-2.934-2.107-4.517-1.877c-0.088,0.013-0.175,0.028-0.264,0.045c-0.167,0.034-0.343,0.078-0.508,0.129
					c-1.18,1.597-2.002,3.342-2.078,5.152c-0.091,2.22,1.081,3.867,3.221,4.527c0.911,0.28,1.882,0.337,2.789,0.206
					C44.725,19.526,45.996,18.85,46.625,17.841"/>
			</g>
		</g>
	</g>
</g>
<g>
	<g>
		<g enable-background="new    ">
			<g>
				<polygon fill="#4AB6FF" points="37.255,33.953 39.295,36.213 39.215,36.161 37.175,33.901 				"/>
			</g>
			<g>
				<path fill="#4AB6FF" d="M62.545,22.934l2.04,2.26c-0.759,2.69-2.549,3.84-5.294,4.239c-2.01,0.292-4.53,0.181-7.532-0.024
					c-1.062-0.073-2.044-0.031-2.953,0.101c-5.565,0.808-8.359,4.983-9.511,6.704l-2.04-2.26c1.151-1.721,3.945-5.896,9.511-6.704
					c0.909-0.132,1.893-0.174,2.953-0.102c3.002,0.205,5.522,0.316,7.532,0.024C59.996,26.774,61.787,25.624,62.545,22.934z"/>
			</g>
			<g>
				<path fill="#4AB6FF" d="M62.441,22.912l0.104,0.022c-0.758,2.69-2.549,3.84-5.294,4.239c-2.01,0.292-4.53,0.181-7.532-0.024
					c-1.061-0.073-2.044-0.031-2.953,0.102c-5.565,0.808-8.359,4.982-9.511,6.704l-0.08-0.052c1.156-1.737,3.962-5.937,9.572-6.751
					c0.915-0.133,1.905-0.176,2.976-0.103c2.995,0.205,5.508,0.317,7.507,0.027C59.938,26.681,61.701,25.549,62.441,22.912z"/>
			</g>
		</g>
	</g>
</g>
<g>
	<g>
		<g enable-background="new    ">
			<g>
				<path fill="#FFDD4D" d="M18.157,20.583l-2.04-2.26c-0.465-0.515-0.723-1.222-0.724-2.049c0.004-1.3,0.688-2.807,2.015-3.181
					l2.04,2.26c-1.327,0.374-2.011,1.881-2.015,3.181C17.434,19.361,17.692,20.067,18.157,20.583z"/>
			</g>
			<g>
				<path fill="#FFDD4D" d="M20.98,14.72l2.04,2.26c-1.421-1.575-2.572-1.792-3.298-1.686c-0.107,0.016-0.196,0.029-0.274,0.058
					l-2.04-2.26c0.078-0.03,0.167-0.042,0.274-0.058C18.408,12.929,19.559,13.146,20.98,14.72z"/>
			</g>
			<g>
				<path fill="#FFDD4D" d="M21.053,14.648l2.04,2.26c0.291,0.323,0.593,0.701,0.904,1.145l-2.04-2.26
					C21.646,15.35,21.344,14.971,21.053,14.648z"/>
			</g>
			<g>
				<path fill="#FFDD4D" d="M21.104,6.87l2.04,2.26c1.308,3.035,1.607,6.515,0.923,9.03l-2.04-2.26
					C22.711,13.385,22.412,9.905,21.104,6.87z"/>
			</g>
			<g>
				<path fill="#FFDD4D" d="M18.077,20.645l-2.04-2.26c0.344,0.382,0.8,0.662,1.346,0.814c0.547,0.154,1.064,0.194,1.546,0.125
					c0.737-0.107,1.39-0.472,1.934-1.084c0.5-0.572,0.88-1.335,1.136-2.217l2.04,2.26c-0.255,0.881-0.636,1.646-1.136,2.217
					c-0.544,0.611-1.197,0.977-1.934,1.084c-0.481,0.07-0.999,0.03-1.546-0.125C18.877,21.307,18.422,21.026,18.077,20.645z"/>
			</g>
			<g>
				<path fill="#FFDD4D" d="M22.027,15.9l2.04,2.26c0.159,0.223,0.32,0.462,0.476,0.722l-2.04-2.26
					C22.348,16.362,22.187,16.123,22.027,15.9z"/>
			</g>
			<g>
				<path fill="#FFDD4D" d="M22.503,16.622l2.04,2.26c2.898,4.684,2.536,8.051,1.724,10.049c-0.881,2.162-2.471,3.238-2.488,3.25
					l-2.04-2.26c0.017-0.011,1.607-1.087,2.488-3.249C25.039,24.673,25.401,21.306,22.503,16.622z"/>
			</g>
			<g>
				<path fill="#FFDD4D" d="M22.503,16.622c2.898,4.684,2.536,8.051,1.724,10.05c-0.881,2.162-2.471,3.238-2.488,3.249l-0.057-0.083
					c0.017-0.012,1.582-1.074,2.457-3.208c0.797-1.978,1.156-5.309-1.718-9.951c-0.143-0.233-0.282-0.449-0.421-0.656
					c-0.255,0.882-0.636,1.646-1.136,2.217c-0.544,0.612-1.197,0.977-1.934,1.084c-0.481,0.07-0.999,0.03-1.546-0.125
					c-1.306-0.364-2.09-1.458-2.091-2.92c0-1.335,0.712-2.892,2.083-3.282c0.091-0.027,0.19-0.05,0.3-0.065
					c0.902-0.131,2.428,0.222,4.281,2.861c0.652-2.484,0.345-5.9-0.938-8.883l0.085-0.04c1.308,3.035,1.607,6.515,0.923,9.031
					C22.187,16.123,22.348,16.362,22.503,16.622z M20.789,18.169c0.5-0.572,0.878-1.354,1.131-2.253
					c-1.854-2.665-3.357-3.009-4.238-2.881c-0.107,0.016-0.196,0.028-0.274,0.058c-1.327,0.374-2.011,1.881-2.015,3.181
					c0.003,1.416,0.755,2.479,2.014,2.832c0.532,0.149,1.037,0.188,1.507,0.12C19.631,19.122,20.266,18.767,20.789,18.169"/>
			</g>
		</g>
	</g>
</g>
<g>
	<g>
		<g enable-background="new    ">
			<g>
				<polygon fill="#C64DFF" points="44.023,38.472 46.063,40.732 46.061,40.832 44.021,38.572 				"/>
			</g>
			<g>
				<polygon fill="#C64DFF" points="44.021,38.572 46.061,40.832 32.98,41.124 30.94,38.863 				"/>
			</g>
			<g>
				<polygon fill="#C64DFF" points="30.935,38.765 44.023,38.472 44.021,38.572 30.94,38.863 				"/>
			</g>
		</g>
	</g>
</g>
<g>
	<g>
		<g enable-background="new    ">
			<g>
				<polygon fill="#FFB24D" points="49.93,44.158 51.97,46.419 51.967,46.519 49.927,44.259 				"/>
			</g>
			<g>
				<polygon fill="#FFB24D" points="49.927,44.259 51.967,46.519 44.444,46.021 42.404,43.761 				"/>
			</g>
			<g>
				<polygon fill="#FFB24D" points="42.416,43.66 49.93,44.158 49.927,44.259 42.404,43.761 				"/>
			</g>
		</g>
	</g>
</g>
<g>
	<g>
		<g enable-background="new    ">
			<g>
				<polygon fill="#FCCC00" points="51.466,32.357 53.506,34.617 53.511,34.716 51.471,32.456 				"/>
			</g>
			<g>
				<polygon fill="#FCCC00" points="51.471,32.456 53.511,34.716 42.908,35.619 40.868,33.359 				"/>
			</g>
			<g>
				<polygon fill="#FCCC00" points="40.863,33.261 51.466,32.357 51.471,32.456 40.868,33.359 				"/>
			</g>
		</g>
	</g>
</g>
<g>
	<g>
		<g enable-background="new    ">
			<g>
				<path fill="#74FF4D" d="M45.608,25.157l2.04,2.26c-1.421,0.17-3.388-0.107-5.298-0.375c-1.942-0.272-3.817-0.533-5.079-0.35
					c-0.601,0.087-1.062,0.274-1.326,0.608c-0.33,0.429-0.318,1.073,0.036,1.966c0.509,1.261,0.498,2.461-0.017,3.563
					c-1.175,2.514-4.681,3.668-4.714,3.682l-2.04-2.26c0.034-0.014,3.54-1.168,4.714-3.682c0.515-1.102,0.525-2.302,0.017-3.563
					c-0.354-0.893-0.366-1.537-0.036-1.966c0.265-0.333,0.726-0.521,1.325-0.608c1.263-0.183,3.138,0.078,5.08,0.35
					C42.221,25.05,44.188,25.327,45.608,25.157z"/>
			</g>
			<g>
				<polygon fill="#74FF4D" points="45.752,25.146 47.792,27.405 47.648,27.417 45.608,25.157 				"/>
			</g>
			<g>
				<path fill="#74FF4D" d="M51.294,18.864l2.04,2.26c-0.01,0.056-1.332,5.67-5.542,6.281l-2.04-2.26
					C49.962,24.534,51.284,18.92,51.294,18.864z"/>
			</g>
			<g>
				<path fill="#74FF4D" d="M51.199,18.841l0.095,0.022c-0.01,0.056-1.332,5.67-5.542,6.282l-0.144,0.011
					c-1.421,0.17-3.388-0.107-5.298-0.375c-1.942-0.272-3.817-0.533-5.08-0.35c-0.6,0.087-1.061,0.274-1.325,0.608
					c-0.33,0.429-0.318,1.073,0.036,1.966c0.509,1.261,0.498,2.461-0.017,3.563c-1.174,2.514-4.68,3.668-4.714,3.682l-0.032-0.096
					c0.034-0.014,3.497-1.152,4.658-3.627c0.501-1.072,0.506-2.245,0.01-3.489c-0.37-0.927-0.375-1.599-0.015-2.06
					c0.28-0.357,0.764-0.556,1.388-0.646c1.279-0.186,3.154,0.079,5.105,0.357c1.899,0.26,3.866,0.538,5.27,0.371l0.143-0.012
					C49.877,24.447,51.189,18.897,51.199,18.841z"/>
			</g>
		</g>
	</g>
</g>
</svg>
