<?xml version="1.0" encoding="utf-8"?>
<!-- Generator: Adobe Illustrator 15.0.0, SVG Export Plug-In . SVG Version: 6.00 Build 0)  -->
<!DOCTYPE svg PUBLIC "-//W3C//DTD SVG 1.1//EN" "http://www.w3.org/Graphics/SVG/1.1/DTD/svg11.dtd">
<svg version="1.1" id="レイヤー_1" xmlns="http://www.w3.org/2000/svg" xmlns:xlink="http://www.w3.org/1999/xlink" x="0px"
	 y="0px" width="64px" height="64px" viewBox="0 0 64 64" style="enable-background:new 0 0 64 64;" xml:space="preserve">
<g>
	<linearGradient id="SVGID_1_" gradientUnits="userSpaceOnUse" x1="32" y1="2.9960938" x2="31.9999981" y2="60.9864616">
		<stop  offset="0" style="stop-color:#1FB8FF"/>
		<stop  offset="1" style="stop-color:#0070FF"/>
	</linearGradient>
	<path style="fill:url(#SVGID_1_);" d="M62.2050781,50.2050781c0,6.6269531-5.3730469,12-12,12h-36.409668
		c-6.6274414,0-12-5.3730469-12-12v-36.409668c0-6.6274414,5.3725586-12,12-12h36.409668c6.6269531,0,12,5.3725586,12,12V50.2050781
		z"/>
	<path style="fill:#0D62B5;" d="M61.6230469,37.8320313c0,0,0.0068359,10.4414063,0.0302734,13.2529297
		C61.6816406,54.5263672,58.2714844,61.5,50.8320313,61.5c-6.9228516,0-17.5224609,0-17.5224609,0
		s13.2509766-0.7792969,17.5253906-1.5634766c4.2724609-0.7841797,7.8125-5.7783203,8.8027344-8.8574219
		C61.0771484,46.6015625,61.6230469,37.8320313,61.6230469,37.8320313z"/>
	<path style="fill:#FFFFFF;" d="M2.6738281,27.5859375c0,0-0.0058594-10.9194336-0.0283203-13.8588867
		c-0.0273438-3.6000977,3.2436523-10.8901367,10.375-10.8901367c6.6391602,0,16.8032227,0,16.8032227,0
		S17.1181641,3.6513672,13.0200195,4.4711914s-7.4936523,6.043457-8.4423828,9.2626953
		C3.1982422,18.4150391,2.6738281,27.5859375,2.6738281,27.5859375z"/>
	<path style="fill:#0F50F2;" d="M50.2050781,63.2050781h-36.409668c-7.168457,0-13-5.8320313-13-13v-36.409668
		c0-7.168457,5.831543-13,13-13h36.409668c7.1679688,0,13,5.831543,13,13v36.409668
		C63.2050781,57.3730469,57.3730469,63.2050781,50.2050781,63.2050781z M13.7954102,2.7954102c-6.0654297,0-11,4.9345703-11,11
		v36.409668c0,6.0654297,4.9345703,11,11,11h36.409668c6.0654297,0,11-4.9345703,11-11v-36.409668c0-6.0654297-4.9345703-11-11-11
		H13.7954102z"/>
	<g>
		<path style="opacity:0.28;fill:#FFFFFF;" d="M2.6723633,13.3686523c-0.0322266,0.3530273-0.0541992,0.7094727-0.0541992,1.0708008
			v12.59375c0.0058594,0.0058594,0.0117188,0.0117188,0.0170898,0.0175781L2.6723633,13.3686523z"/>
		<path style="opacity:0.28;fill:#FFFFFF;" d="M60.1064453,23.5698242
			c1.1884766-5.8022461,1.2216797-9.4174805,1.2216797-10.1938477c-0.5380859-5.9477539-5.53125-10.609375-11.6181641-10.609375
			H14.2910156c-6.0756836,0-11.0620117,4.6420898-11.6171875,10.5722656
			c0.0195313,0.3491211,0.4970703,4.0341797,1.2929688,10.3071289C11.206543,30.7006836,21.0922852,35.0546875,32,35.0546875
			C42.9453125,35.0546875,52.859375,30.6694336,60.1064453,23.5698242z"/>
		<path style="opacity:0.28;fill:#FFFFFF;" d="M61.328125,13.3789063l0.0390625,13.6674805
			c0.0048828-0.0048828,0.0097656-0.0097656,0.0146484-0.0146484V14.4394531
			C61.3818359,14.081543,61.359375,13.7290039,61.328125,13.3789063z"/>
	</g>
</g>
<g>
	<path style="fill:#FFFFFF;" d="M37.28125,21.1621094c-0.0527344,0.3510742-0.0888672,0.7075195-0.0888672,1.0737305
		c0,3.9814453,3.2275391,7.2084961,7.2089844,7.2084961s7.2080078-3.2270508,7.2080078-7.2084961
		c0-0.3662109-0.0351563-0.7226563-0.0888672-1.0737305H37.28125z"/>
	<polygon style="fill:#FFFFFF;" points="38.1630859,11 37.1923828,16.6674805 33.8222656,17.9150391 35.5068359,18.8852539 
		51.609375,18.8852539 50.6328125,11.7924805 46.25,12.125 	"/>
	<polygon style="fill:#FFFFFF;" points="12.6547852,18.2114258 20.3017578,19.5 20.3017578,32.2128906 12.6547852,30.722168 	"/>
	<g>
		<polygon style="fill:#FFFFFF;" points="38.1630859,55.9023438 38.1630859,57.3046875 52.9960938,57.3046875 
			52.9960938,34.4550781 		"/>
		<path style="fill:#FFFFFF;" d="M38.1630859,52.0996094l13.1914063-19.8867188H38.1630859v0.1049805l-7.4482422,7.4477539
			c0,0-3.0834961-3.0830078-6.7182617-6.7177734c-2.3837891-2.0405273-5.8857422,1.2509766-3.9794922,3.9794922
			c2.7680664,2.7666016,10.6103516,10.6103516,10.6103516,10.6103516l7.5356445-7.4208984V52.0996094z"/>
	</g>
</g>
</svg>
