<?xml version="1.0" encoding="utf-8"?>
<!-- Generator: Adobe Illustrator 16.0.0, SVG Export Plug-In . SVG Version: 6.00 Build 0)  -->
<!DOCTYPE svg PUBLIC "-//W3C//DTD SVG 1.1//EN" "http://www.w3.org/Graphics/SVG/1.1/DTD/svg11.dtd">
<svg version="1.1" id="Layer_26" xmlns="http://www.w3.org/2000/svg" xmlns:xlink="http://www.w3.org/1999/xlink" x="0px" y="0px"
	 width="64px" height="64px" viewBox="0 0 64 64" enable-background="new 0 0 64 64" xml:space="preserve">
<g>
	<ellipse fill-rule="evenodd" clip-rule="evenodd" fill="#9C9C9D" cx="16.45" cy="16.95" rx="2.5" ry="2.375"/>
	<ellipse fill-rule="evenodd" clip-rule="evenodd" fill="#9C9C9D" cx="14.45" cy="17.45" rx="2.5" ry="2.375"/>
	<ellipse fill-rule="evenodd" clip-rule="evenodd" fill="#9C9C9D" cx="13.7" cy="14.95" rx="2.5" ry="2.375"/>
	
		<ellipse transform="matrix(-0.0875 0.9962 -0.9962 -0.0875 21.2362 5.5048)" fill-rule="evenodd" clip-rule="evenodd" fill="#9C9C9D" cx="8.097" cy="12.479" rx="2.022" ry="1.921"/>
	
		<ellipse transform="matrix(-0.0876 0.9962 -0.9962 -0.0876 19.3121 3.9745)" fill-rule="evenodd" clip-rule="evenodd" fill="#9C9C9D" cx="7.836" cy="10.831" rx="2.022" ry="1.921"/>
	
		<ellipse transform="matrix(-0.0876 0.9962 -0.9962 -0.0876 21.1354 1.4497)" fill-rule="evenodd" clip-rule="evenodd" fill="#9C9C9D" cx="9.904" cy="10.404" rx="2.023" ry="1.921"/>
	
		<path fill-rule="evenodd" clip-rule="evenodd" fill="#3E3A39" stroke="#3E3A39" stroke-width="3" stroke-linecap="round" stroke-linejoin="round" stroke-miterlimit="10" d="
		M54.58,45.931c0.102-0.122,0.203-0.246,0.305-0.375c0.201-0.253,0.401-0.514,0.601-0.792l0,0c1.641-2.293,3.184-5.459,3.887-9.723
		h-9.094c0,0-0.848-0.306-1.696,1.119c-0.335,0.564-0.725,0.979-1.257,1.282c-0.05-0.177-0.102-0.36-0.157-0.559
		c-0.009,0.004-0.018,0.008-0.026,0.012c-0.961-3.418-2.695-9.668-2.995-10.75c-0.029-0.107-0.046-0.165-0.046-0.165H42.92
		c-0.504-1.851-0.896-3.284-0.896-3.284H30.75l-0.083,3.284h-4.551c-0.247-1.018-0.433-1.785-0.433-1.785h-6.213
		c-0.165-2.578-0.315-4.938-0.315-4.938h-5.693h-1.667l-0.111,4.938H8.747L8.595,25.98H7.362l-0.226,2.313h0l-0.122,1.251H7.015
		l-0.218,2.24h0L6.245,37.46c-0.003,0-0.008,0-0.011,0l-0.062,0.636c-0.796,0-1.262,0-1.262,0v6.668v0.153
		c0,0,2.204,4.986,3.051,4.986h41.929c0,0,0.022-0.011,0.055-0.028c0.017-0.008,0.023-0.012,0.05-0.025
		c0.049-0.026,0.11-0.06,0.192-0.106c0.032-0.018,0.067-0.039,0.104-0.062c0.061-0.035,0.126-0.074,0.199-0.119
		c0.06-0.037,0.117-0.073,0.186-0.117c0.1-0.063,0.208-0.136,0.322-0.214c0.076-0.052,0.153-0.106,0.235-0.164
		c0.09-0.064,0.184-0.134,0.28-0.206c0.129-0.096,0.261-0.199,0.4-0.31c0.096-0.076,0.192-0.155,0.293-0.238
		c0.103-0.086,0.204-0.171,0.311-0.264c0.165-0.144,0.333-0.296,0.505-0.458c0.105-0.1,0.212-0.206,0.319-0.313
		c0.118-0.116,0.237-0.238,0.356-0.363c0.142-0.146,0.281-0.298,0.424-0.457C54.274,46.29,54.427,46.114,54.58,45.931z"/>
	<g>
		<linearGradient id="SVGID_1_" gradientUnits="userSpaceOnUse" x1="30.4609" y1="28.4238" x2="45.0898" y2="28.4238">
			<stop  offset="0" style="stop-color:#8B878D"/>
			<stop  offset="0.5" style="stop-color:#F3F4F4"/>
			<stop  offset="0.5872" style="stop-color:#E5E5E6"/>
			<stop  offset="0.7546" style="stop-color:#C0BEC0"/>
			<stop  offset="0.9834" style="stop-color:#858085"/>
			<stop  offset="1" style="stop-color:#807B80"/>
		</linearGradient>
		<path fill-rule="evenodd" clip-rule="evenodd" fill="url(#SVGID_1_)" d="M45.09,34.151c-0.036-0.399-3.066-11.455-3.066-11.455
			H30.75l-0.289,11.455H45.09z"/>
		<path fill-rule="evenodd" clip-rule="evenodd" fill="#E30012" d="M19.892,30.712c-0.032-0.399-0.736-11.455-0.736-11.455h-7.359
			l-0.257,11.455H19.892z"/>
		<path fill-rule="evenodd" clip-rule="evenodd" fill="#F05B71" d="M13.462,19.257l-0.257,11.455h6.686
			c-0.032-0.399-0.736-11.455-0.736-11.455H13.462z"/>
		<linearGradient id="SVGID_2_" gradientUnits="userSpaceOnUse" x1="8.1563" y1="27.6602" x2="27.377" y2="27.6602">
			<stop  offset="0" style="stop-color:#8B878D"/>
			<stop  offset="0.5" style="stop-color:#F3F4F4"/>
			<stop  offset="0.5872" style="stop-color:#E5E5E6"/>
			<stop  offset="0.7546" style="stop-color:#C0BEC0"/>
			<stop  offset="0.9834" style="stop-color:#858085"/>
			<stop  offset="1" style="stop-color:#807B80"/>
		</linearGradient>
		<path fill-rule="evenodd" clip-rule="evenodd" fill="url(#SVGID_2_)" d="M27.377,31.125c-0.074-0.242-1.693-6.93-1.693-6.93H8.747
			l-0.591,6.93H27.377z"/>
		<linearGradient id="SVGID_3_" gradientUnits="userSpaceOnUse" x1="2.084" y1="32.5469" x2="52.3355" y2="32.5469">
			<stop  offset="0" style="stop-color:#8B878D"/>
			<stop  offset="0.5" style="stop-color:#F3F4F4"/>
			<stop  offset="0.5872" style="stop-color:#E5E5E6"/>
			<stop  offset="0.7546" style="stop-color:#C0BEC0"/>
			<stop  offset="0.9834" style="stop-color:#858085"/>
			<stop  offset="1" style="stop-color:#807B80"/>
		</linearGradient>
		<path fill-rule="evenodd" clip-rule="evenodd" fill="url(#SVGID_3_)" d="M47.775,39.113c-0.16-0.459-3.675-13.133-3.675-13.133
			H7.362L6.084,39.113H47.775z"/>
		<g>
			<rect x="9.258" y="33.804" fill-rule="evenodd" clip-rule="evenodd" fill="#036EB5" width="4.473" height="2.473"/>
			<rect x="15.222" y="33.804" fill-rule="evenodd" clip-rule="evenodd" fill="#036EB5" width="4.474" height="2.473"/>
			<rect x="21.186" y="33.804" fill-rule="evenodd" clip-rule="evenodd" fill="#036EB5" width="4.473" height="2.473"/>
			<rect x="27.149" y="33.804" fill-rule="evenodd" clip-rule="evenodd" fill="#036EB5" width="4.473" height="2.473"/>
			<rect x="33.114" y="33.804" fill-rule="evenodd" clip-rule="evenodd" fill="#036EB5" width="4.47" height="2.473"/>
			<rect x="39.074" y="33.804" fill-rule="evenodd" clip-rule="evenodd" fill="#036EB5" width="4.474" height="2.473"/>
		</g>
		<path fill-rule="evenodd" clip-rule="evenodd" fill="#036EB5" d="M6.797,31.784h38.916c-0.216-0.777-0.428-1.537-0.623-2.24H7.015
			L6.797,31.784z"/>
		<path fill-rule="evenodd" clip-rule="evenodd" fill="#868686" d="M47.168,36.884c-0.804,0.403-1.922,0.576-3.673,0.576
			c-2.729,0-30.83,0-37.261,0l-0.15,1.548h41.691C47.736,38.896,47.501,38.07,47.168,36.884z"/>
		<linearGradient id="SVGID_4_" gradientUnits="userSpaceOnUse" x1="-1.7554" y1="42.459" x2="65.6738" y2="42.459">
			<stop  offset="0" style="stop-color:#8B878D"/>
			<stop  offset="0.5" style="stop-color:#F3F4F4"/>
			<stop  offset="0.5872" style="stop-color:#E5E5E6"/>
			<stop  offset="0.7546" style="stop-color:#C0BEC0"/>
			<stop  offset="0.9834" style="stop-color:#858085"/>
			<stop  offset="1" style="stop-color:#807B80"/>
		</linearGradient>
		<path fill-rule="evenodd" clip-rule="evenodd" fill="url(#SVGID_4_)" d="M59.372,35.041h-9.094c0,0-0.848-0.306-1.696,1.119
			c-0.847,1.426-2.003,1.936-5.087,1.936c-3.083,0-38.584,0-38.584,0v6.821c0,0,2.204,4.986,3.051,4.986h41.929
			C49.891,49.903,57.524,46.239,59.372,35.041z"/>
		<path fill-rule="evenodd" clip-rule="evenodd" fill="#036EB5" d="M4.911,44.764v0.153c0,0,2.204,4.986,3.051,4.986h41.929
			c0,0,2.926-1.41,5.595-5.14H4.911z"/>
		<path fill-rule="evenodd" clip-rule="evenodd" fill="#F09400" d="M13.634,41.938c0,0.392-0.317,0.709-0.709,0.709H9.912
			c-0.392,0-0.709-0.317-0.709-0.709l0,0c0-0.391,0.317-0.708,0.709-0.708h3.013C13.316,41.229,13.634,41.547,13.634,41.938
			L13.634,41.938z"/>
		<path fill-rule="evenodd" clip-rule="evenodd" fill="#F09400" d="M19.127,41.938c0,0.392-0.317,0.709-0.709,0.709h-3.013
			c-0.392,0-0.709-0.317-0.709-0.709l0,0c0-0.391,0.317-0.708,0.709-0.708h3.013C18.81,41.229,19.127,41.547,19.127,41.938
			L19.127,41.938z"/>
		<path fill-rule="evenodd" clip-rule="evenodd" fill="#F09400" d="M24.619,41.938c0,0.392-0.317,0.709-0.708,0.709h-3.014
			c-0.391,0-0.708-0.317-0.708-0.709l0,0c0-0.391,0.317-0.708,0.708-0.708h3.014C24.302,41.229,24.619,41.547,24.619,41.938
			L24.619,41.938z"/>
		<path fill-rule="evenodd" clip-rule="evenodd" fill="#F09400" d="M30.112,41.938c0,0.392-0.317,0.709-0.709,0.709h-3.013
			c-0.392,0-0.709-0.317-0.709-0.709l0,0c0-0.391,0.317-0.708,0.709-0.708h3.013C29.795,41.229,30.112,41.547,30.112,41.938
			L30.112,41.938z"/>
		<path fill-rule="evenodd" clip-rule="evenodd" fill="#F09400" d="M35.608,41.938c0,0.392-0.317,0.709-0.709,0.709h-3.016
			c-0.392,0-0.709-0.317-0.709-0.709l0,0c0-0.391,0.317-0.708,0.709-0.708h3.016C35.291,41.229,35.608,41.547,35.608,41.938
			L35.608,41.938z"/>
		
			<circle fill-rule="evenodd" clip-rule="evenodd" fill="#2CA4DE" stroke="#2CA4DE" stroke-miterlimit="10" cx="52.104" cy="39.545" r="0.894"/>
		<circle fill-rule="evenodd" clip-rule="evenodd" fill="#3E3A39" cx="52.104" cy="39.545" r="0.894"/>
		<linearGradient id="SVGID_5_" gradientUnits="userSpaceOnUse" x1="7.1367" y1="27.1367" x2="44.7422" y2="27.1367">
			<stop  offset="0" style="stop-color:#A23642"/>
			<stop  offset="0.2921" style="stop-color:#CE5A4F"/>
			<stop  offset="0.4101" style="stop-color:#E8B091"/>
			<stop  offset="0.5225" style="stop-color:#DB6752"/>
			<stop  offset="0.691" style="stop-color:#CA4D46"/>
			<stop  offset="0.7697" style="stop-color:#A24339"/>
			<stop  offset="1" style="stop-color:#A81330"/>
		</linearGradient>
		<path fill-rule="evenodd" clip-rule="evenodd" fill="url(#SVGID_5_)" d="M44.742,28.293c-0.381-1.372-0.642-2.313-0.642-2.313
			H7.362l-0.226,2.313H44.742z"/>
	</g>
	
		<line fill-rule="evenodd" clip-rule="evenodd" fill="none" stroke="#2CA4DE" stroke-width="2" stroke-linecap="round" stroke-linejoin="round" stroke-miterlimit="10" x1="2.767" y1="50.761" x2="61.267" y2="50.761"/>
</g>
</svg>
