<?xml version="1.0" encoding="iso-8859-1"?>
<!-- Generator: Adobe Illustrator 16.0.0, SVG Export Plug-In . SVG Version: 6.00 Build 0)  -->
<!DOCTYPE svg PUBLIC "-//W3C//DTD SVG 1.1//EN" "http://www.w3.org/Graphics/SVG/1.1/DTD/svg11.dtd">
<svg version="1.1" xmlns="http://www.w3.org/2000/svg" xmlns:xlink="http://www.w3.org/1999/xlink" x="0px" y="0px" width="64px"
	 height="64px" viewBox="0 0 64 64" style="enable-background:new 0 0 64 64;" xml:space="preserve">
<g id="person_x5F_taking_x5F_bath_x28_p_x29_">
	<g id="person_x5F_golfing_x28_ye_x29__6_">
		
			<radialGradient id="path9_1_" cx="134.9863" cy="-407.8672" r="15.3457" gradientTransform="matrix(0.9985 0.0556 0.0556 -0.9985 -67.868 -389.5373)" gradientUnits="userSpaceOnUse">
			<stop  offset="0" style="stop-color:#FF85B8"/>
			<stop  offset="0.5054" style="stop-color:#FF5B5B"/>
			<stop  offset="1" style="stop-color:#E1233C"/>
		</radialGradient>
		
			<path id="path9_16_" style="fill:url(#path9_1_);stroke:#231815;stroke-width:2;stroke-linecap:round;stroke-linejoin:round;stroke-miterlimit:10;" d="
			M44.404,29.196c0.189,0.169,3.602,3.269,4.566,6.402c0.02,0.285,0.051,0.584,0.119,0.904c0.311,1.455,0.84,2.455,1.471,3.148
			v0.016l0.01-0.004c2.008,2.201,5.008,1.225,5.008,1.225c-2.221-1.479-0.709-4.279,0.191-5.602
			c0.162-0.211,0.324-0.416,0.482-0.648c0.033-0.043,0.057-0.072,0.057-0.072c0.002-0.008,0-0.016,0-0.023
			c1.461-2.187,3.168-5.249,3.318-9.235c0.301-8.088-6.852-14.954-15.074-15.411c-2.203-0.125-4.313,0.244-6.238,0.984
			c-0.002-0.001-0.002-0.003-0.002-0.003c-0.021,0.005-0.035,0.014-0.055,0.022c-0.205,0.078-0.404,0.164-0.604,0.255
			c-0.158,0.068-0.318,0.141-0.475,0.216c-0.172,0.083-0.344,0.164-0.512,0.253c-0.26,0.138-0.516,0.286-0.768,0.437
			c-0.117,0.071-0.23,0.145-0.346,0.218c-0.258,0.167-0.512,0.34-0.76,0.521c-0.041,0.03-0.084,0.055-0.125,0.087
			c-0.045,0.034-0.088,0.071-0.133,0.105c-0.021,0.018-0.043,0.039-0.066,0.057c-1.655,1.287-3.027,2.909-4.005,4.775
			c-0.001,0.001,0,0.001-0.002,0.003l0,0c-0.693,1.329-1.195,2.777-1.448,4.315c2.284,1.743,6.34,3.864,12.827,4.227
			c0,0,1.238,2.712,1.504,3.821L44.404,29.196z"/>
		<g id="g15_6_">
			<path id="path13_37_" style="fill:#231815;" d="M34.914,43.911l-5.865-0.457l-0.084,2l5.792,0.453
				c0.552,0.043,1.034-0.369,1.075-0.92C35.877,44.437,35.465,43.954,34.914,43.911z"/>
		</g>
		<g id="g142_68_">
			<path id="path34-7-5_596_" style="fill:none;stroke:#231815;stroke-width:2;stroke-miterlimit:10;" d="M40.227,45.759
				c0.223-0.449,0.819-1.688,0.685-2.082c-0.135-0.398-0.323-0.717-0.323-0.717c-0.43-0.703-1.076-1.094-1.9-1.156
				c0,0-0.21,0.02-0.754,0.225c-0.396,0.146-1.119,1-1.563,1.381c0,0-2.531,2.982-5.362,5.914c0,0,0.324,2.096,2.375,3.346
				c2.052,1.246,3.561,0.563,3.561,0.563C38.243,49.374,40.227,45.759,40.227,45.759z"/>
			
				<ellipse id="ellipse18_20_" transform="matrix(0.8398 -0.5429 0.5429 0.8398 -22.3713 26.7223)" style="fill:none;stroke:#231815;stroke-width:2;stroke-miterlimit:10;" cx="34.093" cy="51.268" rx="3.376" ry="3.619"/>
			<path id="path20_21_" style="fill:#48140F;stroke:#231815;stroke-width:2;stroke-miterlimit:10;" d="M35.529,48.312
				c-2.462-1.254-7.016,0.854-9.52,3.121c-2.498,2.264-1.949,3.617-0.155,3.176c1.789-0.443,3.22-1.766,6.886-0.17
				C36.408,56.03,37.268,49.2,35.529,48.312z"/>
			<path id="path22_21_" style="fill:#48140F;stroke:#231815;stroke-width:2;stroke-miterlimit:10;" d="M23.681,50.831
				c1.154-0.143,2.208,0.678,2.352,1.83c0.145,1.156-0.678,2.205-1.831,2.352L23.681,50.831z"/>
			<path id="path34-7-5_595_" style="fill:none;stroke:#231815;stroke-width:2;stroke-miterlimit:10;" d="M40.227,45.759
				c0.207-0.506,0.832-1.805,0.697-2.203c-0.137-0.395-0.336-0.596-0.336-0.596c-0.43-0.705-1.316-0.463-2.141-0.527
				c0,0-0.211,0.021-0.756,0.227c-0.394,0.148-0.811,0.262-1.32,0.75c0,0-2.531,2.982-5.362,5.914c0,0,0.582,1.668,2.636,2.92
				c2.047,1.242,3.301,0.986,3.301,0.986C38.243,49.374,40.227,45.759,40.227,45.759z"/>
			<path id="path30-2_598_" style="fill:#48140F;stroke:#231815;stroke-width:2;stroke-miterlimit:10;" d="M35.313,44.079
				c-1.4,0.197-2.466,0.156-3.821-1.365c-0.651-0.945-1.315,0.045-1.315,0.045c-1.975,0.484-0.8,1.467-0.631,2.246
				c0.167,0.787,3.004,1.926,6.178,0.896c3.48-1.313,4.411-2.678,3.638-3.35C38.594,41.876,37.566,43.755,35.313,44.079z"/>
			<g id="g102_16_">
				<g id="g100_6_">
					<g id="g98_6_">
						<path id="path26_108_" style="fill:#F09400;stroke:#231815;stroke-width:1.5423;stroke-miterlimit:10;" d="M59.857,25.428
							c-0.473,8.473-8.346,14.92-16.975,14.436c-8.627-0.482-15.238-7.737-14.762-16.21c0.472-8.477,7.85-14.957,16.477-14.474
							C53.223,9.663,60.33,16.954,59.857,25.428z"/>
						<path id="path28_14_" style="fill:#48140F;" d="M59.135,25.387c-0.457,8.084-7.986,14.229-16.211,13.766
							c-8.227-0.461-14.533-7.376-14.083-15.458c0.454-8.082,7.491-14.262,15.715-13.802C52.779,10.351,59.584,17.307,59.135,25.387
							z"/>
						<path id="path30_51_" style="fill:#48140F;stroke:#231815;stroke-width:2.7816;stroke-miterlimit:10;" d="M53.316,30.87
							c-0.385,6.857-5.982,10.273-12.621,10.225c-9.139-0.066-11.789-4.709-11.406-11.568c0.383-6.859,6.078-12.124,12.708-11.75
							C48.629,18.142,53.697,24.01,53.316,30.87z"/>
						<radialGradient id="path34-7-5_1_" cx="46.0713" cy="41.2686" r="33.0157" gradientUnits="userSpaceOnUse">
							<stop  offset="0" style="stop-color:#FEF1F6"/>
							<stop  offset="0.1271" style="stop-color:#FDE9EE"/>
							<stop  offset="0.3239" style="stop-color:#FAD5D8"/>
							<stop  offset="0.5658" style="stop-color:#F4B2B5"/>
							<stop  offset="0.8408" style="stop-color:#ED8384"/>
							<stop  offset="1" style="stop-color:#E86564"/>
						</radialGradient>
						<path id="path34-7-5_594_" style="fill:url(#path34-7-5_1_);" d="M40.227,45.759c0.223-0.449,0.819-1.688,0.685-2.082
							c-0.135-0.398-0.323-0.717-0.323-0.717c-0.43-0.703-1.076-1.094-1.9-1.156c0,0-0.21,0.02-0.754,0.225
							c-0.396,0.146-1.119,1-1.563,1.381c0,0-2.531,2.982-5.362,5.914c0,0,0.324,2.096,2.375,3.346
							c2.052,1.246,3.561,0.563,3.561,0.563C38.243,49.374,40.227,45.759,40.227,45.759z"/>
						
							<radialGradient id="polygon46_1_" cx="140.4873" cy="-421.8843" r="4.006" gradientTransform="matrix(0.8544 0.5195 0.5195 -0.8544 137.6909 -389.137)" gradientUnits="userSpaceOnUse">
							<stop  offset="0" style="stop-color:#FEF1F6"/>
							<stop  offset="0.1271" style="stop-color:#FDE9EE"/>
							<stop  offset="0.3239" style="stop-color:#FAD5D8"/>
							<stop  offset="0.5658" style="stop-color:#F4B2B5"/>
							<stop  offset="0.8408" style="stop-color:#ED8384"/>
							<stop  offset="1" style="stop-color:#E86564"/>
						</radialGradient>
						<polygon id="polygon46_6_" style="fill:url(#polygon46_1_);" points="40.092,43.749 38.273,42.644 39.887,39.985 
							41.705,41.095 						"/>
						<radialGradient id="ellipse48_1_" cx="46.0732" cy="41.2686" r="33.0169" gradientUnits="userSpaceOnUse">
							<stop  offset="0" style="stop-color:#FEF1F6"/>
							<stop  offset="0.1271" style="stop-color:#FDE9EE"/>
							<stop  offset="0.3239" style="stop-color:#FAD5D8"/>
							<stop  offset="0.5658" style="stop-color:#F4B2B5"/>
							<stop  offset="0.8408" style="stop-color:#ED8384"/>
							<stop  offset="1" style="stop-color:#E86564"/>
						</radialGradient>
						<path id="ellipse48_8_" style="fill:url(#ellipse48_1_);" d="M36.929,49.435c1.085,1.678,0.696,3.859-0.868,4.871
							s-3.718,0.473-4.803-1.205s-0.694-3.859,0.87-4.871C33.696,47.218,35.844,47.757,36.929,49.435z"/>
						
							<radialGradient id="path50_1_" cx="47.2852" cy="40.3135" r="33.0156" gradientTransform="matrix(0.8949 0.4463 -0.4463 0.8949 24.9015 -9.3473)" gradientUnits="userSpaceOnUse">
							<stop  offset="0" style="stop-color:#FEF1F6"/>
							<stop  offset="0.1271" style="stop-color:#FDE9EE"/>
							<stop  offset="0.3239" style="stop-color:#FAD5D8"/>
							<stop  offset="0.5658" style="stop-color:#F4B2B5"/>
							<stop  offset="0.8408" style="stop-color:#ED8384"/>
							<stop  offset="1" style="stop-color:#E86564"/>
						</radialGradient>
						<path id="path50_12_" style="fill:url(#path50_1_);" d="M35.529,48.312c-2.462-1.254-7.016,0.854-9.52,3.121
							c-2.498,2.264-1.949,3.617-0.155,3.176c1.789-0.443,3.22-1.766,6.886-0.17L35.529,48.312z"/>
						
							<radialGradient id="path52_1_" cx="47.2783" cy="40.3174" r="33.0062" gradientTransform="matrix(0.8949 0.4463 -0.4463 0.8949 24.9015 -9.3473)" gradientUnits="userSpaceOnUse">
							<stop  offset="0" style="stop-color:#FEF1F6"/>
							<stop  offset="0.1271" style="stop-color:#FDE9EE"/>
							<stop  offset="0.3239" style="stop-color:#FAD5D8"/>
							<stop  offset="0.5658" style="stop-color:#F4B2B5"/>
							<stop  offset="0.8408" style="stop-color:#ED8384"/>
							<stop  offset="1" style="stop-color:#E86564"/>
						</radialGradient>
						<path id="path52_70_" style="fill:url(#path52_1_);" d="M23.681,50.831c1.154-0.143,2.208,0.678,2.352,1.83
							c0.145,1.156,0.12,2.133-1.831,2.352L23.681,50.831z"/>
						
							<radialGradient id="path77_1_" cx="140.5977" cy="-410.6904" r="22.0458" gradientTransform="matrix(0.9984 0.0558 0.0558 -0.9984 -76.1113 -388.4427)" gradientUnits="userSpaceOnUse">
							<stop  offset="0" style="stop-color:#FEF1F6"/>
							<stop  offset="0.1271" style="stop-color:#FDE9EE"/>
							<stop  offset="0.3239" style="stop-color:#FAD5D8"/>
							<stop  offset="0.5658" style="stop-color:#F4B2B5"/>
							<stop  offset="0.8408" style="stop-color:#ED8384"/>
							<stop  offset="1" style="stop-color:#E86564"/>
						</radialGradient>
						<path id="path77_10_" style="fill:url(#path77_1_);" d="M53.316,30.87c-0.385,6.857-5.992,10.598-12.621,10.225
							C34.063,40.72,28.763,38.95,29.29,29.527c0.383-6.859,6.078-12.124,12.708-11.75C48.629,18.142,53.697,24.01,53.316,30.87z"/>
						
							<path id="path79_8_" style="fill:none;stroke:#A4414A;stroke-width:0.8345;stroke-linecap:round;stroke-linejoin:round;stroke-miterlimit:10;" d="
							M36.623,23.539c0,0-1.438-2.194-3.651-0.204"/>
						<path id="path81_11_" style="fill:#231815;" d="M43.979,29.674c0.189,0.168,3.602,3.266,4.568,6.403
							c0.016,0.283,0.051,0.582,0.117,0.898c0.309,1.457,0.842,2.457,1.471,3.15l0.002,0.012l0.006-0.002
							c2.01,2.201,5.014,1.229,5.014,1.229c-2.221-1.484-0.713-4.281,0.188-5.6c0.16-0.215,0.324-0.42,0.48-0.652
							c0.037-0.045,0.061-0.07,0.061-0.07c0.002-0.012,0-0.018,0-0.025c1.463-2.185,3.168-5.25,3.32-9.235
							c0.301-8.088-6.855-14.953-15.078-15.413c-2.201-0.123-4.313,0.244-6.24,0.986c0-0.002-0.002-0.002-0.002-0.002
							c-0.02,0.005-0.035,0.014-0.053,0.021c-0.203,0.078-0.404,0.165-0.607,0.255c-0.156,0.07-0.316,0.143-0.473,0.217
							c-0.172,0.083-0.342,0.164-0.51,0.254c-0.26,0.138-0.516,0.284-0.768,0.436c-0.117,0.071-0.232,0.144-0.346,0.218
							c-0.258,0.165-0.514,0.34-0.76,0.524c-0.041,0.028-0.086,0.053-0.125,0.085c-0.045,0.034-0.088,0.07-0.133,0.105
							c-0.021,0.017-0.045,0.037-0.066,0.055c-1.657,1.287-3.029,2.911-4.006,4.777c-0.001,0-0.001,0.002-0.001,0.002l0,0
							c-0.695,1.33-1.195,2.778-1.45,4.315c2.284,1.745,6.338,3.865,12.829,4.226c0,0,1.238,2.713,1.504,3.822L43.979,29.674z"/>
						
							<radialGradient id="path96_1_" cx="134.7412" cy="-407.8662" r="15.2235" gradientTransform="matrix(0.9985 0.0556 0.0556 -0.9985 -67.868 -389.5373)" gradientUnits="userSpaceOnUse">
							<stop  offset="0" style="stop-color:#F1E1B2"/>
							<stop  offset="0.3798" style="stop-color:#DBB242"/>
							<stop  offset="0.6854" style="stop-color:#B88700"/>
							<stop  offset="0.8418" style="stop-color:#9E6C2A"/>
							<stop  offset="1" style="stop-color:#754312"/>
						</radialGradient>
						<path id="path96_15_" style="fill:url(#path96_1_);" d="M44.404,29.196c0.189,0.169,3.602,3.269,4.566,6.402
							c0.02,0.285,0.051,0.584,0.119,0.904c0.311,1.455,0.84,2.455,1.471,3.148v0.016l0.01-0.004
							c2.008,2.201,5.008,1.225,5.008,1.225c-2.221-1.479-0.709-4.279,0.191-5.602c0.162-0.211,0.324-0.416,0.482-0.648
							c0.033-0.043,0.057-0.072,0.057-0.072c0.002-0.008,0-0.016,0-0.023c1.461-2.187,2.674-5.17,2.82-9.158
							c0.301-8.086-6.354-15.031-14.576-15.49c-2.203-0.124-4.313,0.244-6.238,0.984c-0.002-0.001-0.004-0.003-0.004-0.003
							c-0.02,0.007-0.033,0.015-0.051,0.02c-0.207,0.081-0.406,0.168-0.607,0.258c-0.156,0.068-0.316,0.14-0.473,0.216
							c-0.172,0.082-0.344,0.164-0.512,0.253c-0.26,0.138-0.516,0.285-0.768,0.437c-0.117,0.072-0.23,0.145-0.346,0.217
							c-0.258,0.167-0.512,0.341-0.758,0.521c-0.043,0.031-0.088,0.055-0.127,0.088c-0.045,0.034-0.088,0.071-0.133,0.104
							c-0.021,0.017-0.045,0.039-0.066,0.057c-1.655,1.288-3.028,2.91-4.007,4.777c0.001,0.002,0,0.002,0,0.003l0,0
							c-0.694,1.329-1.194,2.776-1.448,4.314c2.282,1.744,6.34,3.864,12.827,4.226c0,0,1.238,2.714,1.502,3.822L44.404,29.196z"/>
					</g>
				</g>
			</g>
			<g id="g213_334_">
				
					<linearGradient id="path117_1_" gradientUnits="userSpaceOnUse" x1="258.8477" y1="482.7715" x2="262.6816" y2="482.7715" gradientTransform="matrix(0.9984 0.0558 -0.0558 0.9984 -195.7599 -463.3955)">
					<stop  offset="0" style="stop-color:#FFA67F"/>
					<stop  offset="0.0969" style="stop-color:#FF967B"/>
					<stop  offset="0.3655" style="stop-color:#FF7170"/>
					<stop  offset="0.6143" style="stop-color:#FF5568"/>
					<stop  offset="0.8336" style="stop-color:#FF4564"/>
					<stop  offset="1" style="stop-color:#FF3F62"/>
				</linearGradient>
				<path id="path117_37_" style="fill:url(#path117_1_);" d="M39.563,33.259c0.033-0.614-0.793-1.159-1.854-1.217
					c-1.055-0.062-1.941,0.39-1.975,1.006c-0.033,0.613,0.795,1.158,1.85,1.219C38.645,34.323,39.527,33.872,39.563,33.259z"/>
			</g>
			<g id="g213_333_">
				
					<path id="path123_201_" style="fill:none;stroke:#231815;stroke-width:1.5;stroke-linecap:round;stroke-linejoin:round;stroke-miterlimit:10;" d="
					M32.839,29.764c0,0,1.558,2.108,3.657,0"/>
			</g>
			<path id="path123_200_" style="fill:#C30D23;" d="M33.355,35.733c-0.193,0.24-1.177,0.686-2.32,0.76
				c0.194,0.258,0.398,0.506,0.614,0.742c1.293-0.119,2.297-0.512,2.491-0.902c0.117-0.24,0.133-0.508-0.084-0.674
				C33.842,35.497,33.527,35.53,33.355,35.733z"/>
			<path id="path125_82_" style="fill:#231815;" d="M48.744,31.413c-0.367,1.664-1.826,2.752-3.252,2.432
				c-1.424-0.316-2.277-1.92-1.904-3.584c0.369-1.663,1.826-2.747,3.25-2.433C48.264,28.15,49.121,29.753,48.744,31.413z"/>
			
				<radialGradient id="path132_1_" cx="212.5215" cy="-392.3154" r="5.2791" gradientTransform="matrix(0.976 0.2181 0.2181 -0.976 -78.086 -397.9457)" gradientUnits="userSpaceOnUse">
				<stop  offset="0" style="stop-color:#FEF1F6"/>
				<stop  offset="0.1271" style="stop-color:#FDE9EE"/>
				<stop  offset="0.3239" style="stop-color:#FAD5D8"/>
				<stop  offset="0.5658" style="stop-color:#F4B2B5"/>
				<stop  offset="0.8408" style="stop-color:#ED8384"/>
				<stop  offset="1" style="stop-color:#E86564"/>
			</radialGradient>
			<path id="path132_12_" style="fill:url(#path132_1_);" d="M47.623,31.633c-0.313,1.399-1.539,2.315-2.74,2.048
				c-1.199-0.27-1.918-1.619-1.605-3.02c0.316-1.398,1.541-2.312,2.74-2.045C47.219,28.884,47.934,30.234,47.623,31.633z"/>
			<path id="path134_14_" style="fill:#717071;" d="M39.324,43.897c-0.631-0.744-1.941,0.275-4.012,0.732
				c-0.553,0.629-1.286,1.455-2.121,2.369c0.731-0.051,1.52-0.201,2.326-0.498C39.143,45.272,39.98,44.671,39.324,43.897z"/>
			
				<radialGradient id="path30-2_1_" cx="-205.2622" cy="-445.3853" r="27.792" gradientTransform="matrix(-0.744 -0.6682 0.6682 -0.744 189.8354 -426.5594)" gradientUnits="userSpaceOnUse">
				<stop  offset="0" style="stop-color:#FEF1F6"/>
				<stop  offset="0.1271" style="stop-color:#FDE9EE"/>
				<stop  offset="0.3239" style="stop-color:#FAD5D8"/>
				<stop  offset="0.5658" style="stop-color:#F4B2B5"/>
				<stop  offset="0.8408" style="stop-color:#ED8384"/>
				<stop  offset="1" style="stop-color:#E86564"/>
			</radialGradient>
			<path id="path30-2_597_" style="fill:url(#path30-2_1_);" d="M35.313,44.079c-1.4,0.197-2.466,0.156-3.821-1.365
				c-0.651-0.945-1.315,0.045-1.315,0.045c-1.975,0.484-0.8,1.467-0.631,2.246c0.167,0.787,3.004,1.926,6.178,0.896
				c3.673-1.078,4.533-1.646,3.909-2.445C39.007,42.651,37.566,43.755,35.313,44.079z"/>
		</g>
	</g>
	<g id="Layer_1_141_">
	</g>
	
		<radialGradient id="SVGID_1_" cx="27.5176" cy="49.9785" r="37.4828" gradientTransform="matrix(1 0 0 1 0 1.3208)" gradientUnits="userSpaceOnUse">
		<stop  offset="0" style="stop-color:#E5E2DF"/>
		<stop  offset="0" style="stop-color:#F1EFEE"/>
		<stop  offset="0" style="stop-color:#FFFFFF"/>
		<stop  offset="0.1259" style="stop-color:#F0F0F1"/>
		<stop  offset="0.3664" style="stop-color:#C9CACB"/>
		<stop  offset="0.5225" style="stop-color:#ADAEB0"/>
		<stop  offset="0.6029" style="stop-color:#A3A5A7"/>
		<stop  offset="0.7382" style="stop-color:#898D90"/>
		<stop  offset="0.9108" style="stop-color:#5F6769"/>
		<stop  offset="1" style="stop-color:#465053"/>
	</radialGradient>
	<path style="fill:url(#SVGID_1_);stroke:#231815;stroke-width:2;stroke-miterlimit:10;" d="M49.77,44.796L49.77,44.796
		c0,7.187-4.626,13.012-10.333,13.012H15.598c-5.707,0-10.333-5.825-10.333-13.012l0,0H49.77z"/>
	<radialGradient id="SVGID_2_" cx="27.4004" cy="43.3623" r="53.3377" gradientUnits="userSpaceOnUse">
		<stop  offset="0" style="stop-color:#E5E2DF"/>
		<stop  offset="0" style="stop-color:#F1EFEE"/>
		<stop  offset="0" style="stop-color:#FFFFFF"/>
		<stop  offset="0.1259" style="stop-color:#F0F0F1"/>
		<stop  offset="0.3664" style="stop-color:#C9CACB"/>
		<stop  offset="0.5225" style="stop-color:#ADAEB0"/>
		<stop  offset="0.6029" style="stop-color:#A3A5A7"/>
		<stop  offset="0.7382" style="stop-color:#898D90"/>
		<stop  offset="0.9108" style="stop-color:#5F6769"/>
		<stop  offset="1" style="stop-color:#465053"/>
	</radialGradient>
	<path style="fill:url(#SVGID_2_);stroke:#231815;stroke-width:2;stroke-miterlimit:10;" d="M50.735,43.362
		c0,0.828-0.672,1.5-1.5,1.5H5.566c-0.829,0-1.5-0.672-1.5-1.5l0,0c0-0.828,0.671-1.5,1.5-1.5h43.669
		C50.063,41.862,50.735,42.534,50.735,43.362L50.735,43.362z"/>
	<circle style="fill:#868686;stroke:#231815;stroke-width:2;stroke-miterlimit:10;" cx="14.167" cy="57.907" r="2.667"/>
	<circle style="fill:#868686;stroke:#231815;stroke-width:2;stroke-miterlimit:10;" cx="41.503" cy="57.907" r="2.667"/>
	<circle style="fill:#868686;" cx="14.167" cy="57.907" r="2.667"/>
	<circle style="fill:#868686;" cx="41.503" cy="57.907" r="2.667"/>
	
		<radialGradient id="SVGID_3_" cx="27.5176" cy="49.9785" r="37.4828" gradientTransform="matrix(1 0 0 1.2593 0 -11.637)" gradientUnits="userSpaceOnUse">
		<stop  offset="0" style="stop-color:#E5E2DF"/>
		<stop  offset="0" style="stop-color:#F1EFEE"/>
		<stop  offset="0" style="stop-color:#FFFFFF"/>
		<stop  offset="0.1259" style="stop-color:#F0F0F1"/>
		<stop  offset="0.3664" style="stop-color:#C9CACB"/>
		<stop  offset="0.5225" style="stop-color:#ADAEB0"/>
		<stop  offset="0.6029" style="stop-color:#A3A5A7"/>
		<stop  offset="0.7382" style="stop-color:#898D90"/>
		<stop  offset="0.9108" style="stop-color:#5F6769"/>
		<stop  offset="1" style="stop-color:#465053"/>
	</radialGradient>
	<path style="fill:url(#SVGID_3_);" d="M49.77,44.796L49.77,44.796c0,7.187-4.626,13.012-10.333,13.012H15.598
		c-5.707,0-10.333-5.825-10.333-13.012l0,0H49.77z"/>
	<radialGradient id="SVGID_4_" cx="27.6665" cy="38.9658" r="30.8468" gradientUnits="userSpaceOnUse">
		<stop  offset="0" style="stop-color:#E5E2DF"/>
		<stop  offset="0" style="stop-color:#F1EFEE"/>
		<stop  offset="0" style="stop-color:#FFFFFF"/>
		<stop  offset="0.1259" style="stop-color:#F0F0F1"/>
		<stop  offset="0.3664" style="stop-color:#C9CACB"/>
		<stop  offset="0.5225" style="stop-color:#ADAEB0"/>
		<stop  offset="0.6029" style="stop-color:#A3A5A7"/>
		<stop  offset="0.7382" style="stop-color:#898D90"/>
		<stop  offset="0.9108" style="stop-color:#5F6769"/>
		<stop  offset="1" style="stop-color:#465053"/>
	</radialGradient>
	<path style="fill:url(#SVGID_4_);" d="M5.388,45.8h44.26c0.072-0.622,0.122-1.253,0.122-1.9H5.265
		C5.265,44.547,5.315,45.178,5.388,45.8z"/>
	<radialGradient id="SVGID_5_" cx="27.4004" cy="43.3623" r="53.3377" gradientUnits="userSpaceOnUse">
		<stop  offset="0" style="stop-color:#E5E2DF"/>
		<stop  offset="0" style="stop-color:#F1EFEE"/>
		<stop  offset="0" style="stop-color:#FFFFFF"/>
		<stop  offset="0.1259" style="stop-color:#F0F0F1"/>
		<stop  offset="0.3664" style="stop-color:#C9CACB"/>
		<stop  offset="0.5225" style="stop-color:#ADAEB0"/>
		<stop  offset="0.6029" style="stop-color:#A3A5A7"/>
		<stop  offset="0.7382" style="stop-color:#898D90"/>
		<stop  offset="0.9108" style="stop-color:#5F6769"/>
		<stop  offset="1" style="stop-color:#465053"/>
	</radialGradient>
	<path style="fill:url(#SVGID_5_);" d="M50.735,43.362c0,0.828-0.672,1.5-1.5,1.5H5.566c-0.829,0-1.5-0.672-1.5-1.5l0,0
		c0-0.828,0.671-1.5,1.5-1.5h43.669C50.063,41.862,50.735,42.534,50.735,43.362L50.735,43.362z"/>
	<path id="path143_19_" style="fill:#009DE6;" d="M52.453,8.209c0,0,1.953-4.931,3.938-2.677C57.83,7.163,54.968,8.033,52.453,8.209
		z"/>
	<path id="path145_23_" style="fill:#009DE6;" d="M56.139,10.848c0,0,4.725-2.406,4.725,0.599
		C60.863,13.619,58.142,12.379,56.139,10.848z"/>
	<path style="fill:#ADDBF0;" d="M11.138,27.116c0,0,0.851,2.542-0.371,5.337c-1.07,2.443,0.407,4.306,2.563,5.623
		c0,0-0.642-2.016,0.438-4.813C15.179,29.61,11.65,27.569,11.138,27.116z"/>
	<path style="fill:#ADDBF0;" d="M20.137,27.251c0,0,0.851,2.543-0.371,5.336c-1.07,2.446,0.407,4.307,2.563,5.625
		c0,0-0.642-2.016,0.438-4.814C24.178,29.744,20.65,27.703,20.137,27.251z"/>
</g>
<g id="Layer_1">
</g>
</svg>
