<?xml version="1.0" encoding="iso-8859-1"?>
<!-- Generator: Adobe Illustrator 16.0.0, SVG Export Plug-In . SVG Version: 6.00 Build 0)  -->
<!DOCTYPE svg PUBLIC "-//W3C//DTD SVG 1.1//EN" "http://www.w3.org/Graphics/SVG/1.1/DTD/svg11.dtd">
<svg version="1.1" xmlns="http://www.w3.org/2000/svg" xmlns:xlink="http://www.w3.org/1999/xlink" x="0px" y="0px" width="64px"
	 height="64px" viewBox="0 0 64 64" style="enable-background:new 0 0 64 64;" xml:space="preserve">
<g id="person_x5F_in_x5F_bed_x28_p_x29_">
	
		<ellipse style="fill:#231815;stroke:#231815;stroke-width:3;stroke-linecap:round;stroke-linejoin:round;stroke-miterlimit:10;" cx="47.609" cy="40.333" rx="9.75" ry="3.5"/>
	<path style="fill:#231815;stroke:#231815;stroke-width:3;stroke-linecap:round;stroke-linejoin:round;stroke-miterlimit:10;" d="
		M58.376,54.559c0,1.154-1.668,2.09-3.727,2.09H9.254c-2.06,0-3.728-0.936-3.728-2.09V42.775c0-1.154,1.668-2.09,3.728-2.09h45.396
		c2.059,0,3.727,0.936,3.727,2.09V54.559z"/>
	
		<rect x="5" y="54.834" style="fill:#231815;stroke:#231815;stroke-width:3;stroke-linecap:round;stroke-linejoin:round;stroke-miterlimit:10;" width="53.732" height="4.333"/>
	<g id="Layer_1_142_">
	</g>
	
		<radialGradient id="path30-2_1_" cx="-193.0063" cy="-448.9443" r="27.7857" gradientTransform="matrix(-0.7442 -0.668 0.668 -0.7442 187.4295 -428.577)" gradientUnits="userSpaceOnUse">
		<stop  offset="0" style="stop-color:#FEF1F6"/>
		<stop  offset="0.1271" style="stop-color:#FDE9EE"/>
		<stop  offset="0.3239" style="stop-color:#FAD5D8"/>
		<stop  offset="0.5658" style="stop-color:#F4B2B5"/>
		<stop  offset="0.8408" style="stop-color:#ED8384"/>
		<stop  offset="1" style="stop-color:#E86564"/>
	</radialGradient>
	<path id="path30-2_599_" style="fill:url(#path30-2_1_);" d="M21.538,36.573c-1.399,0.199-2.463,0.157-3.818-1.364
		c-0.652-0.943-1.316,0.045-1.316,0.045c-1.974,0.487-0.798,1.469-0.629,2.25c0.167,0.784,3.004,1.923,6.177,0.894
		c3.671-1.081,4.532-1.65,3.907-2.449C25.231,35.146,23.792,36.248,21.538,36.573z"/>
	
		<radialGradient id="path161_1_" cx="309.335" cy="-339.9146" r="3.6068" gradientTransform="matrix(0.5433 0.8395 0.8395 -0.5433 141.4494 -407.7468)" gradientUnits="userSpaceOnUse">
		<stop  offset="0" style="stop-color:#E5E2DF"/>
		<stop  offset="0" style="stop-color:#F1EFEE"/>
		<stop  offset="0" style="stop-color:#FFFFFF"/>
		<stop  offset="0.2292" style="stop-color:#FBFBFB"/>
		<stop  offset="0.4468" style="stop-color:#F0F0F0"/>
		<stop  offset="0.6598" style="stop-color:#DDDDDE"/>
		<stop  offset="0.8686" style="stop-color:#C2C3C4"/>
		<stop  offset="1" style="stop-color:#ADAEB0"/>
	</radialGradient>
	<path id="path161_13_" style="fill:url(#path161_1_);" d="M22.962,38.086c2.798-0.885,3.458-1.417,2.896-2.135
		c-0.54-0.691-1.684,0.023-3.422,0.446L22.962,38.086z"/>
	<g>
		<g id="person_x5F_golfing_x28_ye_x29__7_">
			
				<radialGradient id="path9_1_" cx="122.8555" cy="-403.3706" r="15.3447" gradientTransform="matrix(0.622 0.7831 0.7831 -0.622 284.131 -318.9527)" gradientUnits="userSpaceOnUse">
				<stop  offset="0" style="stop-color:#FF85B8"/>
				<stop  offset="0.5054" style="stop-color:#FF5B5B"/>
				<stop  offset="1" style="stop-color:#E1233C"/>
			</radialGradient>
			
				<path id="path9_17_" style="fill:url(#path9_1_);stroke:#231815;stroke-width:2;stroke-linecap:round;stroke-linejoin:round;stroke-miterlimit:10;" d="
				M41.81,30.916c-0.002,0.255-0.05,4.862-1.75,7.667c-0.2,0.202-0.4,0.425-0.596,0.688c-0.883,1.2-1.275,2.259-1.376,3.193
				l-0.011,0.011l0.01,0.003c-0.311,2.963,2.412,4.559,2.412,4.559c-0.369-2.645,2.727-3.377,4.313-3.579
				c0.266-0.021,0.527-0.036,0.804-0.074c0.055-0.001,0.095-0.004,0.095-0.004c0.008-0.005,0.013-0.01,0.018-0.015
				c2.605-0.361,6.025-1.121,9.104-3.658c6.247-5.148,6.621-15.057,1.5-21.506c-1.373-1.728-3.049-3.061-4.881-4.008
				c-0.002-0.002-0.002-0.004-0.002-0.004c-0.018-0.01-0.034-0.017-0.052-0.024c-0.194-0.101-0.392-0.192-0.593-0.282
				c-0.157-0.072-0.316-0.143-0.478-0.21c-0.175-0.073-0.349-0.148-0.528-0.214c-0.276-0.101-0.557-0.194-0.838-0.284
				c-0.129-0.038-0.259-0.076-0.39-0.113c-0.298-0.082-0.597-0.156-0.896-0.221c-0.049-0.011-0.096-0.026-0.146-0.035
				c-0.058-0.012-0.111-0.02-0.168-0.028c-0.028-0.006-0.059-0.009-0.085-0.013c-2.062-0.381-4.187-0.327-6.229,0.182
				c0,0-0.002,0.001-0.004,0.001l0,0c-1.455,0.364-2.869,0.953-4.188,1.786c0.215,2.865,1.325,7.302,5.364,12.39
				c0,0-1.204,2.729-1.854,3.662L41.81,30.916z"/>
			<g id="g142_69_">
				<path id="path34-7-5_599_" style="fill:none;stroke:#231815;stroke-width:2;stroke-miterlimit:10;" d="M26.833,38.87
					c0.486-0.121,1.815-0.471,2.029-0.831c0.215-0.359,0.334-0.709,0.334-0.709c0.258-0.784,0.136-1.529-0.351-2.196
					c0,0-0.152-0.147-0.661-0.429c-0.368-0.206-1.487-0.203-2.065-0.293c0,0-3.912,0.01-7.977-0.241c0,0-1.384,1.605-1.006,3.975
					c0.382,2.369,2.207,3.456,2.207,3.456C23.118,40.087,26.833,38.87,26.833,38.87z"/>
				
					<ellipse id="ellipse18_21_" style="fill:none;stroke:#231815;stroke-width:2;stroke-miterlimit:10;" cx="18.644" cy="37.762" rx="3.375" ry="3.619"/>
				<path id="path20_25_" style="fill:#48140F;stroke:#231815;stroke-width:2;stroke-miterlimit:10;" d="M20.466,34.824
					c-2.309-1.52-7.064,0.068-9.803,2.044c-2.736,1.972-2.34,3.38-0.508,3.138c1.827-0.24,3.395-1.396,6.86,0.596
					C20.481,42.592,22.096,35.9,20.466,34.824z"/>
				<path id="path22_25_" style="fill:#48140F;stroke:#231815;stroke-width:2;stroke-miterlimit:10;" d="M8.413,36.012
					c1.162-0.014,2.119,0.918,2.134,2.08c0.016,1.164-0.918,2.117-2.081,2.133L8.413,36.012z"/>
				<path id="path34-7-5_598_" style="fill:none;stroke:#231815;stroke-width:2;stroke-miterlimit:10;" d="M26.833,38.87
					c0.519-0.169,1.913-0.538,2.129-0.899c0.211-0.359,0.234-0.641,0.234-0.641c0.258-0.784-0.5-1.303-0.986-1.973
					c0,0-0.153-0.146-0.663-0.427c-0.368-0.205-0.726-0.448-1.428-0.52c0,0-3.911,0.01-7.977-0.241c0,0-0.893,1.525-0.515,3.897
					c0.383,2.364,1.715,3.533,1.715,3.533C23.118,40.087,26.833,38.87,26.833,38.87z"/>
				<path id="path30-2_600_" style="fill:#48140F;stroke:#231815;stroke-width:2;stroke-miterlimit:10;" d="M24.207,36.075
					c-1.399,0.199-2.463,0.157-3.818-1.364c-0.652-0.943-1.316,0.045-1.316,0.045c-1.974,0.487-0.798,1.469-0.629,2.25
					c0.167,0.784,3.004,1.923,6.177,0.894c3.479-1.315,4.408-2.682,3.635-3.352C27.486,33.871,26.461,35.75,24.207,36.075z"/>
				<g id="g102_17_">
					<g id="g100_7_">
						<g id="g98_7_">
							<path id="path26_110_" style="fill:#F09400;stroke:#231815;stroke-width:1.5423;stroke-miterlimit:10;" d="M54.896,39.961
								c-6.646,5.275-16.696,3.676-22.07-3.092c-5.37-6.768-4.343-16.526,2.302-21.804c6.65-5.277,16.393-4.073,21.764,2.693
								C62.266,24.524,61.542,34.682,54.896,39.961z"/>
							<path id="path28_15_" style="fill:#48140F;" d="M54.442,39.392c-6.339,5.03-15.937,3.487-21.057-2.967
								c-5.123-6.453-4.145-15.758,2.195-20.791c6.336-5.032,15.631-3.883,20.755,2.569C61.456,24.651,60.782,34.357,54.442,39.392z
								"/>
							<path id="path30_52_" style="fill:#48140F;stroke:#231815;stroke-width:2.7816;stroke-miterlimit:10;" d="M46.481,38.687
								c-5.379,4.271-11.65,2.358-16.028-2.638c-6.022-6.869-4.313-11.934,1.063-16.206c5.382-4.27,13.097-3.518,17.227,1.686
								C52.876,26.728,51.86,34.413,46.481,38.687z"/>
							<path id="path34-7-5_597_" style="fill:#D9DADA;" d="M26.833,38.87c0.486-0.121,1.815-0.471,2.029-0.831
								c0.215-0.359,0.334-0.709,0.334-0.709c0.258-0.784,0.136-1.529-0.351-2.196c0,0-0.152-0.147-0.661-0.429
								c-0.368-0.206-1.487-0.203-2.065-0.293c0,0-3.912,0.01-7.977-0.241c0,0-1.384,1.605-1.006,3.975
								c0.382,2.369,2.207,3.456,2.207,3.456C23.118,40.087,26.833,38.87,26.833,38.87z"/>
							
								<radialGradient id="polygon46_1_" cx="127.2559" cy="-423.8223" r="4.004" gradientTransform="matrix(0.1589 0.9873 0.9873 -0.1589 425.0728 -156.3334)" gradientUnits="userSpaceOnUse">
								<stop  offset="0" style="stop-color:#FEF1F6"/>
								<stop  offset="0.1271" style="stop-color:#FDE9EE"/>
								<stop  offset="0.3239" style="stop-color:#FAD5D8"/>
								<stop  offset="0.5658" style="stop-color:#F4B2B5"/>
								<stop  offset="0.8408" style="stop-color:#ED8384"/>
								<stop  offset="1" style="stop-color:#E86564"/>
							</radialGradient>
							<polygon id="polygon46_7_" style="fill:url(#polygon46_1_);" points="28.275,37.464 27.937,35.362 31.005,34.866 
								31.339,36.969 							"/>
							<ellipse id="ellipse48_9_" style="fill:#0066CF;" cx="18.644" cy="37.762" rx="3.375" ry="3.619"/>
							<path id="path50_11_" style="fill:#0066CF;" d="M20.466,34.824c-2.309-1.52-7.064,0.068-9.803,2.044
								c-2.736,1.972-2.34,3.38-0.508,3.138c1.827-0.24,3.395-1.396,6.86,0.596C20.481,42.592,22.096,35.9,20.466,34.824z"/>
							<path id="path52_71_" style="fill:#9C9C9D;" d="M8.413,36.012c1.162-0.014,2.119,0.918,2.134,2.08
								c0.016,1.164-0.117,2.133-2.081,2.133L8.413,36.012z"/>
							
								<radialGradient id="path34-7-5_1_" cx="311.9746" cy="-344.1025" r="8.0391" gradientTransform="matrix(-0.2868 0.958 0.958 0.2868 442.0725 -162.1407)" gradientUnits="userSpaceOnUse">
								<stop  offset="0" style="stop-color:#E5E2DF"/>
								<stop  offset="0" style="stop-color:#F1EFEE"/>
								<stop  offset="0" style="stop-color:#FFFFFF"/>
								<stop  offset="0.2292" style="stop-color:#FBFBFB"/>
								<stop  offset="0.4468" style="stop-color:#F0F0F0"/>
								<stop  offset="0.6598" style="stop-color:#DDDDDE"/>
								<stop  offset="0.8686" style="stop-color:#C2C3C4"/>
								<stop  offset="1" style="stop-color:#ADAEB0"/>
							</radialGradient>
							<path id="path34-7-5_593_" style="fill:url(#path34-7-5_1_);" d="M26.833,38.87c0.519-0.169,1.913-0.538,2.129-0.899
								c0.211-0.359,0.234-0.641,0.234-0.641c-0.14-0.741-0.5-1.303-0.986-1.973c0,0-0.153-0.146-0.663-0.427
								c-0.368-0.205-0.726-0.448-1.428-0.52c0,0-3.911,0.01-7.977-0.241c0,0-0.893,1.525-0.515,3.897
								c0.383,2.364,1.715,3.533,1.715,3.533C23.118,40.087,26.833,38.87,26.833,38.87z"/>
							
								<radialGradient id="path77_1_" cx="129.1406" cy="-406.3159" r="22.0445" gradientTransform="matrix(0.6218 0.7831 0.7831 -0.6218 277.485 -324.9888)" gradientUnits="userSpaceOnUse">
								<stop  offset="0" style="stop-color:#FEF1F6"/>
								<stop  offset="0.1271" style="stop-color:#FDE9EE"/>
								<stop  offset="0.3239" style="stop-color:#FAD5D8"/>
								<stop  offset="0.5658" style="stop-color:#F4B2B5"/>
								<stop  offset="0.8408" style="stop-color:#ED8384"/>
								<stop  offset="1" style="stop-color:#E86564"/>
							</radialGradient>
							<path id="path77_11_" style="fill:url(#path77_1_);" d="M46.481,38.687c-5.379,4.271-11.9,2.566-16.028-2.638
								c-4.128-5.203-6.324-10.336,1.063-16.206c5.382-4.27,13.097-3.518,17.227,1.686C52.876,26.728,51.86,34.413,46.481,38.687z"
								/>
							
								<path id="path79_9_" style="fill:none;stroke:#A4414A;stroke-width:0.8345;stroke-linecap:round;stroke-linejoin:round;stroke-miterlimit:10;" d="
								M40.866,21.342c0,0,0.683-2.531-2.275-2.863"/>
							<path id="path81_12_" style="fill:#231815;" d="M41.167,30.914c0.002,0.255-0.045,4.861-1.747,7.669
								c-0.202,0.201-0.398,0.425-0.595,0.685c-0.88,1.2-1.273,2.26-1.375,3.194l-0.009,0.01l0.008,0.002
								c-0.311,2.963,2.413,4.56,2.413,4.56c-0.368-2.646,2.726-3.377,4.311-3.578c0.266-0.021,0.527-0.038,0.806-0.074
								c0.058-0.001,0.093-0.003,0.093-0.003c0.008-0.007,0.015-0.011,0.02-0.017c2.605-0.36,6.026-1.12,9.104-3.656
								c6.245-5.148,6.62-15.059,1.498-21.508c-1.373-1.728-3.048-3.062-4.883-4.009c0-0.001,0-0.001-0.002-0.003
								c-0.015-0.01-0.031-0.017-0.049-0.024c-0.195-0.102-0.393-0.192-0.594-0.283c-0.16-0.073-0.316-0.142-0.479-0.211
								c-0.174-0.071-0.349-0.146-0.526-0.211c-0.276-0.104-0.556-0.197-0.837-0.284c-0.132-0.04-0.26-0.077-0.393-0.113
								c-0.296-0.084-0.596-0.157-0.895-0.221c-0.049-0.012-0.1-0.028-0.147-0.036c-0.056-0.012-0.112-0.019-0.169-0.029
								c-0.026-0.005-0.056-0.009-0.084-0.013c-2.062-0.382-4.186-0.327-6.229,0.183c0,0.001-0.003,0.001-0.003,0.001l0,0
								c-1.456,0.364-2.872,0.953-4.189,1.786c0.217,2.865,1.326,7.301,5.365,12.39c0,0-1.203,2.729-1.854,3.664L41.167,30.914z"/>
							
								<radialGradient id="path96_1_" cx="122.6113" cy="-403.3701" r="15.2222" gradientTransform="matrix(0.622 0.7831 0.7831 -0.622 284.131 -318.9527)" gradientUnits="userSpaceOnUse">
								<stop  offset="0" style="stop-color:#F1E1B2"/>
								<stop  offset="0.3798" style="stop-color:#DBB242"/>
								<stop  offset="0.6854" style="stop-color:#B88700"/>
								<stop  offset="0.8418" style="stop-color:#9E6C2A"/>
								<stop  offset="1" style="stop-color:#754312"/>
							</radialGradient>
							<path id="path96_16_" style="fill:url(#path96_1_);" d="M41.81,30.916c-0.002,0.255-0.05,4.862-1.75,7.667
								c-0.2,0.202-0.4,0.425-0.596,0.688c-0.883,1.2-1.275,2.259-1.376,3.193l-0.011,0.011l0.01,0.003
								c-0.311,2.963,2.412,4.559,2.412,4.559c-0.369-2.645,2.727-3.377,4.313-3.579c0.266-0.021,0.527-0.036,0.804-0.074
								c0.055-0.001,0.095-0.004,0.095-0.004c0.008-0.005,0.013-0.01,0.018-0.015c2.605-0.361,5.637-1.439,8.716-3.979
								c6.241-5.149,7.009-14.736,1.888-21.187c-1.371-1.727-3.049-3.062-4.881-4.007c-0.002-0.002-0.002-0.004-0.002-0.004
								c-0.018-0.012-0.034-0.018-0.049-0.026c-0.197-0.101-0.395-0.191-0.594-0.282c-0.158-0.071-0.318-0.142-0.479-0.209
								c-0.175-0.074-0.349-0.148-0.526-0.213c-0.277-0.103-0.557-0.196-0.839-0.285c-0.13-0.039-0.26-0.076-0.391-0.113
								c-0.297-0.083-0.595-0.156-0.894-0.222c-0.051-0.01-0.098-0.024-0.148-0.035c-0.056-0.011-0.111-0.019-0.166-0.028
								c-0.029-0.005-0.061-0.007-0.087-0.012c-2.062-0.382-4.185-0.327-6.228,0.181c-0.004,0.001-0.004,0.001-0.004,0.001l0,0
								c-1.457,0.365-2.871,0.955-4.188,1.787c0.215,2.864,1.324,7.302,5.364,12.39c0,0-1.205,2.729-1.857,3.662L41.81,30.916z"/>
						</g>
					</g>
				</g>
				<g id="g213_336_">
					
						<linearGradient id="path117_1_" gradientUnits="userSpaceOnUse" x1="247.2363" y1="478.6875" x2="251.0664" y2="478.6875" gradientTransform="matrix(0.6218 0.7831 -0.7831 0.6218 254.3023 -464.2611)">
						<stop  offset="0" style="stop-color:#FFA67F"/>
						<stop  offset="0.0969" style="stop-color:#FF967B"/>
						<stop  offset="0.3655" style="stop-color:#FF7170"/>
						<stop  offset="0.6143" style="stop-color:#FF5568"/>
						<stop  offset="0.8336" style="stop-color:#FF4564"/>
						<stop  offset="1" style="stop-color:#FF3F62"/>
					</linearGradient>
					<path id="path117_38_" style="fill:url(#path117_1_);" d="M35.556,29.996c0.48-0.382,0.34-1.362-0.321-2.193
						c-0.655-0.828-1.581-1.19-2.063-0.805c-0.481,0.381-0.337,1.362,0.318,2.188C34.149,30.019,35.076,30.379,35.556,29.996z"/>
				</g>
				<path id="path123_202_" style="fill:#C30D23;" d="M29.581,27.006c-0.307,0.011-1.29-0.425-2.104-1.229
					c-0.066,0.317-0.115,0.633-0.147,0.953c0.946,0.887,1.906,1.374,2.329,1.258c0.257-0.069,0.467-0.236,0.446-0.509
					C30.083,27.21,29.849,26.998,29.581,27.006z"/>
				<path id="path125_83_" style="fill:#231815;" d="M43.038,35.633c-1.489,0.829-3.271,0.464-3.979-0.815
					c-0.709-1.274-0.08-2.979,1.411-3.806c1.488-0.827,3.268-0.459,3.978,0.813C45.155,33.104,44.526,34.811,43.038,35.633z"/>
				
					<radialGradient id="path132_1_" cx="200.9023" cy="-390.5054" r="5.2765" gradientTransform="matrix(0.4857 0.8742 0.8742 -0.4857 283.6138 -333.4523)" gradientUnits="userSpaceOnUse">
					<stop  offset="0" style="stop-color:#FEF1F6"/>
					<stop  offset="0.1271" style="stop-color:#FDE9EE"/>
					<stop  offset="0.3239" style="stop-color:#FAD5D8"/>
					<stop  offset="0.5658" style="stop-color:#F4B2B5"/>
					<stop  offset="0.8408" style="stop-color:#ED8384"/>
					<stop  offset="1" style="stop-color:#E86564"/>
				</radialGradient>
				<path id="path132_13_" style="fill:url(#path132_1_);" d="M42.126,34.939c-1.25,0.694-2.751,0.389-3.349-0.686
					c-0.596-1.076-0.065-2.509,1.188-3.206c1.254-0.694,2.752-0.385,3.346,0.688C43.913,32.813,43.379,34.245,42.126,34.939z"/>
			</g>
			<polygon id="polygon188_6_" style="fill:#717071;" points="28.926,35 27.281,34.683 28.888,38.033 29.773,37.689 			"/>
			
				<radialGradient id="polygon207_1_" cx="308.5557" cy="-339.04" r="3.0223" gradientTransform="matrix(-0.2868 0.958 0.958 0.2868 442.0725 -162.1407)" gradientUnits="userSpaceOnUse">
				<stop  offset="0" style="stop-color:#E5E2DF"/>
				<stop  offset="0" style="stop-color:#F1EFEE"/>
				<stop  offset="0" style="stop-color:#FFFFFF"/>
				<stop  offset="0.2292" style="stop-color:#FBFBFB"/>
				<stop  offset="0.4468" style="stop-color:#F0F0F0"/>
				<stop  offset="0.6598" style="stop-color:#DDDDDE"/>
				<stop  offset="0.8686" style="stop-color:#C2C3C4"/>
				<stop  offset="1" style="stop-color:#ADAEB0"/>
			</radialGradient>
			<polygon id="polygon207_10_" style="fill:url(#polygon207_1_);" points="29.237,34.833 27.593,34.514 29.198,37.865 
				30.084,37.521 			"/>
		</g>
		<g id="g213_335_">
			
				<path id="path123_204_" style="fill:none;stroke:#231815;stroke-width:1.5;stroke-linecap:round;stroke-linejoin:round;stroke-miterlimit:10;" d="
				M33.579,22.639c0,0-0.468,2.578,2.506,2.664"/>
		</g>
	</g>
	<radialGradient id="SVGID_1_" cx="47.6094" cy="40.333" r="23.025" gradientUnits="userSpaceOnUse">
		<stop  offset="0" style="stop-color:#E5E2DF"/>
		<stop  offset="0" style="stop-color:#F1EFEE"/>
		<stop  offset="0" style="stop-color:#FFFFFF"/>
		<stop  offset="0.1259" style="stop-color:#F0F0F1"/>
		<stop  offset="0.3664" style="stop-color:#C9CACB"/>
		<stop  offset="0.5225" style="stop-color:#ADAEB0"/>
		<stop  offset="0.6029" style="stop-color:#A3A5A7"/>
		<stop  offset="0.7382" style="stop-color:#898D90"/>
		<stop  offset="0.9108" style="stop-color:#5F6769"/>
		<stop  offset="1" style="stop-color:#465053"/>
	</radialGradient>
	<ellipse style="fill:url(#SVGID_1_);" cx="47.609" cy="40.333" rx="9.75" ry="3.5"/>
	<radialGradient id="SVGID_2_" cx="47.6094" cy="40.333" r="23.025" gradientUnits="userSpaceOnUse">
		<stop  offset="0" style="stop-color:#E5E2DF"/>
		<stop  offset="0" style="stop-color:#F1EFEE"/>
		<stop  offset="0" style="stop-color:#FFFFFF"/>
		<stop  offset="0.1259" style="stop-color:#F0F0F1"/>
		<stop  offset="0.3664" style="stop-color:#C9CACB"/>
		<stop  offset="0.5225" style="stop-color:#ADAEB0"/>
		<stop  offset="0.6029" style="stop-color:#A3A5A7"/>
		<stop  offset="0.7382" style="stop-color:#898D90"/>
		<stop  offset="0.9108" style="stop-color:#5F6769"/>
		<stop  offset="1" style="stop-color:#465053"/>
	</radialGradient>
	<ellipse style="fill:url(#SVGID_2_);stroke:#717071;stroke-miterlimit:10;" cx="47.609" cy="40.333" rx="9.75" ry="3.5"/>
	<path style="fill:#48140F;" d="M47.359,36.083c-2.575,0-4.91,0.361-6.652,0.946c-0.231,0.728-0.522,1.436-0.897,2.054
		c-0.2,0.202-0.4,0.425-0.596,0.688c-0.318,0.433-0.554,0.841-0.754,1.237c1.521,1.223,4.93,2.075,8.899,2.075
		c0.476,0,0.939-0.017,1.396-0.04c1.74-0.632,3.579-1.625,5.438-3.157c0.693-0.572,1.308-1.206,1.865-1.877
		C54.452,36.867,51.165,36.083,47.359,36.083z"/>
	<radialGradient id="SVGID_3_" cx="47.6094" cy="40.333" r="23.025" gradientUnits="userSpaceOnUse">
		<stop  offset="0" style="stop-color:#E5E2DF"/>
		<stop  offset="0" style="stop-color:#F1EFEE"/>
		<stop  offset="0" style="stop-color:#FFFFFF"/>
		<stop  offset="0.1259" style="stop-color:#F0F0F1"/>
		<stop  offset="0.3664" style="stop-color:#C9CACB"/>
		<stop  offset="0.5225" style="stop-color:#ADAEB0"/>
		<stop  offset="0.6029" style="stop-color:#A3A5A7"/>
		<stop  offset="0.7382" style="stop-color:#898D90"/>
		<stop  offset="0.9108" style="stop-color:#5F6769"/>
		<stop  offset="1" style="stop-color:#465053"/>
	</radialGradient>
	<ellipse style="fill:url(#SVGID_3_);" cx="47.609" cy="40.333" rx="9.75" ry="3.5"/>
	<path style="fill:#B2B2B3;" d="M57.357,40.847c-0.68-0.405-1.638-0.661-2.708-0.661H38.033c-0.11,0.21-0.174,0.426-0.174,0.647
		c0,1.933,4.365,3.5,9.75,3.5C52.98,44.333,57.336,42.773,57.357,40.847z"/>
	<radialGradient id="SVGID_4_" cx="31.9512" cy="48.667" r="61.3543" gradientUnits="userSpaceOnUse">
		<stop  offset="0" style="stop-color:#E5E2DF"/>
		<stop  offset="0" style="stop-color:#F1EFEE"/>
		<stop  offset="0" style="stop-color:#FFFFFF"/>
		<stop  offset="0.1259" style="stop-color:#F0F0F1"/>
		<stop  offset="0.3664" style="stop-color:#C9CACB"/>
		<stop  offset="0.5225" style="stop-color:#ADAEB0"/>
		<stop  offset="0.6029" style="stop-color:#A3A5A7"/>
		<stop  offset="0.7382" style="stop-color:#898D90"/>
		<stop  offset="0.9108" style="stop-color:#5F6769"/>
		<stop  offset="1" style="stop-color:#465053"/>
	</radialGradient>
	<path style="fill:url(#SVGID_4_);stroke:#717071;stroke-miterlimit:10;" d="M58.376,54.559c0,1.154-1.668,2.09-3.727,2.09H9.254
		c-2.06,0-3.728-0.936-3.728-2.09V42.775c0-1.154,1.668-2.09,3.728-2.09h45.396c2.059,0,3.727,0.936,3.727,2.09V54.559z"/>
	<radialGradient id="SVGID_5_" cx="31.9512" cy="48.667" r="61.3543" gradientUnits="userSpaceOnUse">
		<stop  offset="0" style="stop-color:#E5E2DF"/>
		<stop  offset="0" style="stop-color:#F1EFEE"/>
		<stop  offset="0" style="stop-color:#FFFFFF"/>
		<stop  offset="0.1259" style="stop-color:#F0F0F1"/>
		<stop  offset="0.3664" style="stop-color:#C9CACB"/>
		<stop  offset="0.5225" style="stop-color:#ADAEB0"/>
		<stop  offset="0.6029" style="stop-color:#A3A5A7"/>
		<stop  offset="0.7382" style="stop-color:#898D90"/>
		<stop  offset="0.9108" style="stop-color:#5F6769"/>
		<stop  offset="1" style="stop-color:#465053"/>
	</radialGradient>
	<path style="fill:url(#SVGID_5_);" d="M58.376,54.559c0,1.154-1.668,2.09-3.727,2.09H9.254c-2.06,0-3.728-0.936-3.728-2.09V42.775
		c0-1.154,1.668-2.09,3.728-2.09h45.396c2.059,0,3.727,0.936,3.727,2.09V54.559z"/>
	<rect x="5" y="54.834" style="fill:#804F21;" width="53.732" height="4.333"/>
	<path style="fill:#9C9C9D;" d="M5.526,43.525v9.559c1.895,0,7.339,0,13.916,0c0.006,0,0.012,0,0.018,0l0.087,0.698
		c8.191,0,10.493,0.179,10.493,0.179c0.096-2.238-0.736-7.858-1.516-12.525h-19.1C7.271,41.436,5.526,42.371,5.526,43.525z"/>
	<path style="fill:#231815;stroke:#231815;stroke-width:2;stroke-linecap:round;stroke-linejoin:round;stroke-miterlimit:10;" d="
		M15.417,32.417c-14.083,0-10.583,18.917-10.583,18.917s6.167,0,14,0S28.869,51.5,28.869,51.5
		c0.167-3.834-2.667-18.333-2.667-18.333L15.417,32.417z"/>
	<path style="fill:#231815;stroke:#231815;stroke-width:2;stroke-linecap:round;stroke-linejoin:round;stroke-miterlimit:10;" d="
		M18.934,52.032c7.833,0,10.035,0.179,10.035,0.179c0.167-4.12-2.667-19.699-2.667-19.699l-9.784-0.806L18.934,52.032z"/>
	<radialGradient id="SVGID_6_" cx="16.6621" cy="41.959" r="34.4485" gradientUnits="userSpaceOnUse">
		<stop  offset="0" style="stop-color:#EB2D2E"/>
		<stop  offset="1" style="stop-color:#332D2E"/>
	</radialGradient>
	<path style="fill:url(#SVGID_6_);" d="M15.417,32.417c-14.083,0-10.583,18.917-10.583,18.917s6.167,0,14,0S28.869,51.5,28.869,51.5
		c0.167-3.834-2.667-18.333-2.667-18.333L15.417,32.417z"/>
	
		<radialGradient id="SVGID_7_" cx="22.7471" cy="42.2061" r="25.3271" gradientTransform="matrix(1 0 0 1.0745 0 -3.392)" gradientUnits="userSpaceOnUse">
		<stop  offset="0" style="stop-color:#E5E2DF"/>
		<stop  offset="0" style="stop-color:#F1EFEE"/>
		<stop  offset="0" style="stop-color:#FFFFFF"/>
		<stop  offset="0.1259" style="stop-color:#F0F0F1"/>
		<stop  offset="0.3664" style="stop-color:#C9CACB"/>
		<stop  offset="0.5225" style="stop-color:#ADAEB0"/>
		<stop  offset="0.6029" style="stop-color:#A3A5A7"/>
		<stop  offset="0.7382" style="stop-color:#898D90"/>
		<stop  offset="0.9108" style="stop-color:#5F6769"/>
		<stop  offset="1" style="stop-color:#465053"/>
	</radialGradient>
	<path style="fill:url(#SVGID_7_);" d="M18.934,52.032c7.833,0,10.035,0.179,10.035,0.179c0.167-4.12-2.667-19.699-2.667-19.699
		l-9.784-0.806L18.934,52.032z"/>
	<g>
		<path d="M15.118,8.13h-3.03c-0.182,0-0.334-0.037-0.455-0.111c-0.183-0.113-0.273-0.271-0.273-0.475
			c0-0.215,0.103-0.377,0.307-0.486c0.115-0.063,0.256-0.094,0.422-0.094h4.288c0.453,0,0.776,0.09,0.969,0.27
			c0.127,0.113,0.19,0.248,0.19,0.404c0,0.191-0.094,0.379-0.281,0.563l-3.759,3.727h3.659c0.204,0,0.373,0.051,0.506,0.152
			c0.148,0.125,0.223,0.279,0.223,0.463c0,0.254-0.124,0.436-0.372,0.545c-0.104,0.043-0.224,0.064-0.356,0.064h-4.967
			c-0.408,0-0.709-0.111-0.902-0.334c-0.105-0.121-0.157-0.246-0.157-0.375c0-0.215,0.088-0.41,0.265-0.586L15.118,8.13z"/>
	</g>
	<g>
		<path d="M21.702,16.392h-2.619c-0.156,0-0.289-0.033-0.393-0.097c-0.158-0.098-0.236-0.235-0.236-0.411
			c0-0.185,0.088-0.325,0.265-0.42c0.101-0.054,0.222-0.081,0.364-0.081h3.707c0.391,0,0.671,0.078,0.836,0.233
			c0.11,0.098,0.165,0.214,0.165,0.35c0,0.165-0.08,0.327-0.243,0.486l-3.249,3.22h3.163c0.177,0,0.323,0.044,0.437,0.133
			c0.129,0.106,0.193,0.241,0.193,0.398c0,0.221-0.107,0.377-0.322,0.472c-0.09,0.037-0.193,0.056-0.308,0.056h-4.293
			c-0.353,0-0.612-0.097-0.779-0.289c-0.091-0.104-0.136-0.212-0.136-0.324c0-0.186,0.075-0.354,0.229-0.506L21.702,16.392z"/>
	</g>
</g>
<g id="Layer_1">
</g>
</svg>
