<?xml version="1.0" encoding="iso-8859-1"?>
<!-- Generator: Adobe Illustrator 16.0.0, SVG Export Plug-In . SVG Version: 6.00 Build 0)  -->
<!DOCTYPE svg PUBLIC "-//W3C//DTD SVG 1.1//EN" "http://www.w3.org/Graphics/SVG/1.1/DTD/svg11.dtd">
<svg version="1.1" xmlns="http://www.w3.org/2000/svg" xmlns:xlink="http://www.w3.org/1999/xlink" x="0px" y="0px" width="64px"
	 height="64px" viewBox="0 0 64 64" style="enable-background:new 0 0 64 64;" xml:space="preserve">
<g id="person_x5F_walking_x28_br_x29_">
	<g id="person_x5F_walking_x28_br_x29__1_">
		
			<radialGradient id="path9_1_" cx="308.3486" cy="-320.0557" r="15.346" gradientTransform="matrix(1 0 0 -1 -274 -298)" gradientUnits="userSpaceOnUse">
			<stop  offset="0" style="stop-color:#FF85B8"/>
			<stop  offset="0.5054" style="stop-color:#FF5B5B"/>
			<stop  offset="1" style="stop-color:#E1233C"/>
		</radialGradient>
		
			<path id="path9_4_" style="fill:url(#path9_1_);stroke:#231815;stroke-width:2;stroke-linecap:round;stroke-linejoin:round;stroke-miterlimit:10;" d="
			M34.732,26.016c0.197,0.159,3.776,3.061,4.916,6.137c0.033,0.284,0.084,0.58,0.168,0.895c0.388,1.437,0.977,2.404,1.645,3.063
			l0.002,0.014l0.008-0.004c2.127,2.085,5.069,0.945,5.069,0.945c-2.3-1.355-0.949-4.236-0.121-5.604
			c0.149-0.222,0.3-0.437,0.442-0.675c0.033-0.045,0.057-0.076,0.057-0.076c0-0.009-0.001-0.017,0-0.025
			c1.338-2.263,2.871-5.416,2.798-9.403c-0.147-8.092-7.673-14.549-15.909-14.549c-2.205,0-4.292,0.482-6.173,1.33
			c-0.001-0.001-0.002-0.001-0.003-0.002c-0.017,0.008-0.033,0.017-0.05,0.024c-0.2,0.091-0.396,0.188-0.591,0.288
			c-0.155,0.079-0.309,0.16-0.461,0.244c-0.167,0.092-0.333,0.183-0.495,0.281c-0.253,0.152-0.5,0.313-0.744,0.479
			c-0.112,0.078-0.223,0.156-0.333,0.236c-0.249,0.181-0.493,0.369-0.73,0.564c-0.039,0.032-0.081,0.06-0.12,0.092
			c-0.044,0.037-0.084,0.076-0.127,0.113c-0.022,0.019-0.042,0.041-0.063,0.06c-1.58,1.376-2.859,3.073-3.731,4.992
			c0,0.001-0.001,0.002-0.001,0.003l0,0c-0.62,1.366-1.039,2.839-1.207,4.389c2.377,1.613,6.542,3.505,13.039,3.505
			c0,0,1.387,2.641,1.713,3.73L34.732,26.016z"/>
		<g id="g101_1_">
			<path id="path11_5_" style="fill:#231815;stroke:#231815;stroke-width:2;stroke-miterlimit:10;" d="M28.992,50.697
				c0.189,2.688,3.556,6.135,6.742,7.242c3.189,1.108,4.111-0.024,2.867-1.385c-1.25-1.357-2.819-2.172-3.326-6.052
				C34.773,46.623,28.858,48.802,28.992,50.697z"/>
			<path id="path13_5_" style="fill:none;stroke:#231815;stroke-width:2;stroke-miterlimit:10;" d="M37.809,61.119
				c-1.058-0.484-1.521-1.736-1.039-2.793c0.483-1.057,1.734-1.523,2.789-1.039L37.809,61.119z"/>
			<path id="path15_4_" style="fill:#004482;" d="M28.992,50.697c0.189,2.688,3.556,6.135,6.742,7.242
				c3.189,1.108,4.111-0.024,2.867-1.385c-1.25-1.357-2.819-2.172-3.326-6.052C34.773,46.623,28.858,48.802,28.992,50.697z"/>
			<path id="path17_5_" style="fill:#9C9C9D;" d="M37.809,61.119c-1.058-0.484-1.521-1.736-1.039-2.793
				c0.483-1.057,1.734-1.523,2.789-1.039L37.809,61.119z"/>
			<path id="path30-2_272_" style="fill:#231815;stroke:#231815;stroke-width:2;stroke-miterlimit:10;" d="M29.3,43.514
				c-0.843,1.144-1.619,1.873-3.65,1.771c-1.131-0.196-0.891,0.973-0.891,0.973c-1.039,1.745,0.485,1.593,1.159,2.022
				c0.675,0.431,3.479-0.795,4.968-3.778c1.509-3.401,1.186-5.019,0.162-4.942C30.028,39.635,30.644,41.68,29.3,43.514z"/>
			
				<radialGradient id="path30-2_1_" cx="-5.6982" cy="-428.4067" r="6.761" gradientTransform="matrix(0.7636 -0.6457 -0.6457 -0.7636 -250.4939 -283.479)" gradientUnits="userSpaceOnUse">
				<stop  offset="0" style="stop-color:#FDB913"/>
				<stop  offset="1" style="stop-color:#D63929"/>
			</radialGradient>
			<path id="path30-2_271_" style="fill:url(#path30-2_1_);" d="M29.3,43.514c-0.843,1.144-1.619,1.873-3.65,1.771
				c-1.131-0.196-0.891,0.973-0.891,0.973c-1.039,1.745,0.485,1.593,1.159,2.022c0.675,0.431,3.479-0.795,4.968-3.778
				c1.509-3.401,1.186-5.019,0.162-4.942C30.028,39.635,30.644,41.68,29.3,43.514z"/>
			<path id="path34-7-5_236_" style="fill:none;stroke:#231815;stroke-width:2;stroke-miterlimit:10;" d="M33.9,42.119
				c-0.043-0.494-0.178-1.863-0.5-2.133c-0.321-0.269-0.645-0.443-0.645-0.443c-0.738-0.377-1.49-0.377-2.228,0
				c0,0-0.169,0.124-0.527,0.582c-0.259,0.331-0.434,1.438-0.619,1.994c0,0-0.61,3.863-1.504,7.834c0,0,1.363,1.625,3.765,1.625
				c2.396,0,3.761-1.625,3.761-1.625C34.51,45.982,33.9,42.119,33.9,42.119z"/>
			
				<ellipse id="ellipse27_1_" style="fill:none;stroke:#231815;stroke-width:2;stroke-miterlimit:10;" cx="31.938" cy="51.703" rx="3.619" ry="3.375"/>
			<path id="path29_7_" style="fill:#231815;stroke:#231815;stroke-width:2;stroke-miterlimit:10;" d="M30.773,48.864
				c-2.398,1.222-4.258,5.67-4.033,9.036c0.222,3.367,1.627,3.776,2.393,2.097c0.766-1.679,0.899-3.442,4.275-5.419
				C36.781,52.6,32.467,48,30.773,48.864z"/>
			<path id="path31_4_" style="fill:#231815;stroke:#231815;stroke-width:2;stroke-miterlimit:10;" d="M24.659,60.434
				c0.183-1.146,1.262-1.934,2.409-1.752c1.15,0.18,1.936,1.26,1.754,2.409L24.659,60.434z"/>
			<path id="path34-7-5_235_" style="fill:none;stroke:#231815;stroke-width:2;stroke-miterlimit:10;" d="M33.9,42.119
				c-0.086-0.535-0.229-1.973-0.553-2.242c-0.32-0.268-0.592-0.334-0.592-0.334c-0.738-0.377-1.367,0.288-2.105,0.665
				c0,0-0.169,0.124-0.527,0.582c-0.259,0.331-0.556,0.647-0.742,1.329c0,0-0.61,3.863-1.504,7.834c0,0,1.363,1.127,3.765,1.127
				c2.396,0,3.761-1.127,3.761-1.127C34.51,45.982,33.9,42.119,33.9,42.119z"/>
			<path id="path30-2_270_" style="fill:#231815;stroke:#231815;stroke-width:2;stroke-miterlimit:10;" d="M35.509,43.313
				c0.835,1.147,1.292,2.112,0.578,4.018c-0.53,1.018,0.655,1.146,0.655,1.146c1.351,1.517,1.666,0.021,2.281-0.492
				c0.615-0.514,0.301-3.555-2.09-5.883c-2.785-2.465-4.422-2.649-4.659-1.653C32.036,41.441,34.173,41.477,35.509,43.313z"/>
			<g id="g74_4_">
				<g id="g72_4_">
					<g id="g70_4_">
						<path id="path35_15_" style="fill:#F09400;stroke:#231815;stroke-width:1.5423;stroke-miterlimit:10;" d="M49.949,21.39
							c0,8.486-7.504,15.361-16.143,15.361c-8.64,0-15.643-6.875-15.643-15.361c0-8.487,7.003-15.369,15.643-15.369
							C42.445,6.021,49.949,12.903,49.949,21.39z"/>
						<path id="path37_13_" style="fill:#231815;stroke:#231815;stroke-miterlimit:10;" d="M49.223,21.39
							c0,8.093-7.18,14.647-15.416,14.647c-8.238,0-14.917-6.554-14.917-14.647c0-8.094,6.679-14.656,14.917-14.656
							C42.043,6.734,49.223,13.296,49.223,21.39z"/>
						<path id="path39_6_" style="fill:#231815;stroke:#231815;stroke-width:2.7816;stroke-miterlimit:10;" d="M43.723,27.189
							c0,6.868-5.396,10.588-12.031,10.911c-9.125,0.442-12.03-4.043-12.03-10.911c0-6.871,5.387-12.443,12.03-12.443
							C38.333,14.746,43.723,20.318,43.723,27.189z"/>
						
							<radialGradient id="path34-7-5_1_" cx="526.0771" cy="-332.043" r="33.8481" gradientTransform="matrix(0.6017 0 0 -1 -284.9348 -298)" gradientUnits="userSpaceOnUse">
							<stop  offset="0" style="stop-color:#FDB913"/>
							<stop  offset="1" style="stop-color:#D63929"/>
						</radialGradient>
						<path id="path34-7-5_234_" style="fill:url(#path34-7-5_1_);" d="M33.9,42.119c-0.043-0.494-0.178-1.863-0.5-2.133
							c-0.321-0.269-0.645-0.443-0.645-0.443c-0.738-0.377-1.49-0.377-2.228,0c0,0-0.169,0.124-0.527,0.582
							c-0.259,0.331-0.434,1.438-0.619,1.994c0,0-0.61,3.863-1.504,7.834c0,0,1.363,1.625,3.765,1.625
							c2.396,0,3.761-1.625,3.761-1.625C34.51,45.982,33.9,42.119,33.9,42.119z"/>
						
							<radialGradient id="rect52_1_" cx="305.7129" cy="-339.749" r="4.0006" gradientTransform="matrix(1 0 0 -1 -274 -298)" gradientUnits="userSpaceOnUse">
							<stop  offset="0" style="stop-color:#FDB913"/>
							<stop  offset="1" style="stop-color:#D63929"/>
						</radialGradient>
						<rect id="rect52_4_" x="30.611" y="37.37" style="fill:url(#rect52_1_);" width="2.127" height="3.104"/>
						<ellipse id="ellipse54_6_" style="fill:#0066CF;" cx="31.938" cy="51.703" rx="3.619" ry="3.375"/>
						<path id="path56_13_" style="fill:#0066CF;" d="M30.773,48.864c-2.398,1.222-4.258,5.67-4.033,9.036
							c0.222,3.367,1.627,3.776,2.393,2.097c0.766-1.679,0.899-3.442,4.275-5.419C36.781,52.6,32.467,48,30.773,48.864z"/>
						<path id="path58_15_" style="fill:#9C9C9D;" d="M24.659,60.434c0.183-1.146,1.262-1.934,2.409-1.752
							c1.15,0.18,1.936,1.26,1.754,2.409L24.659,60.434z"/>
						<path id="path34-7-5_233_" style="fill:#B2B2B3;" d="M33.9,42.119c-0.086-0.535-0.229-1.973-0.553-2.242
							c-0.32-0.268-0.592-0.334-0.592-0.334c-0.756,0.02-1.367,0.288-2.105,0.665c0,0-0.169,0.124-0.527,0.582
							c-0.259,0.331-0.556,0.647-0.742,1.329c0,0-0.61,3.863-1.504,7.834c0,0,1.363,1.127,3.765,1.127
							c2.396,0,3.761-1.127,3.761-1.127C34.51,45.982,33.9,42.119,33.9,42.119z"/>
						
							<radialGradient id="path66_1_" cx="305.6924" cy="-324.4229" r="22.0394" gradientTransform="matrix(1 0 0 -1 -274 -298)" gradientUnits="userSpaceOnUse">
							<stop  offset="0" style="stop-color:#FDB913"/>
							<stop  offset="1" style="stop-color:#D63929"/>
						</radialGradient>
						<path id="path66_12_" style="fill:url(#path66_1_);" d="M43.723,27.189c0,6.868-5.39,10.911-12.031,10.911
							c-6.644,0-12.03-1.475-12.03-10.911c0-6.871,5.387-12.443,12.03-12.443C38.333,14.746,43.723,20.318,43.723,27.189z"/>
						
							<path id="path68_6_" style="fill:none;stroke:#A4414A;stroke-width:0.8345;stroke-linecap:round;stroke-linejoin:round;stroke-miterlimit:10;" d="
							M26.646,20.8c0,0-1.557-2.108-3.656,0"/>
					</g>
				</g>
			</g>
			<g id="g213_149_">
				
					<linearGradient id="ellipse87_1_" gradientUnits="userSpaceOnUse" x1="423.5107" y1="396.9082" x2="427.3428" y2="396.9082" gradientTransform="matrix(1 0 0 1 -397.2197 -366.5684)">
					<stop  offset="0" style="stop-color:#F26D6D"/>
					<stop  offset="0.1557" style="stop-color:#F35E70"/>
					<stop  offset="0.4859" style="stop-color:#F44275"/>
					<stop  offset="0.7781" style="stop-color:#F53278"/>
					<stop  offset="1" style="stop-color:#F52C79"/>
				</linearGradient>
				<ellipse id="ellipse87_3_" style="fill:url(#ellipse87_1_);" cx="28.207" cy="30.34" rx="1.916" ry="1.112"/>
			</g>
			<g id="g213_148_">
				<path id="path209_117_" style="fill:#160201;" d="M26.732,27.549c0,1.703-0.873,3.086-1.947,3.086
					c-1.078,0-1.949-1.383-1.949-3.086c0-1.713,0.871-3.099,1.949-3.099C25.859,24.451,26.732,25.836,26.732,27.549z"/>
				<path id="path211_98_" style="fill:#FFFFFF;" d="M26.121,25.951c0,0.462-0.373,0.834-0.838,0.834
					c-0.461,0-0.834-0.372-0.834-0.834c0-0.461,0.373-0.836,0.834-0.836C25.748,25.115,26.121,25.49,26.121,25.951z"/>
			</g>
			<path id="path93_10_" style="fill:#C30D23;" d="M24.065,33.16c-0.183,0.248-1.135,0.748-2.271,0.885
				c0.207,0.247,0.425,0.482,0.655,0.709c1.282-0.191,2.262-0.641,2.435-1.045c0.104-0.242,0.104-0.512-0.121-0.664
				C24.536,32.895,24.225,32.945,24.065,33.16z"/>
			
				<radialGradient id="path30-2_2_" cx="268.9697" cy="-382.8174" r="27.9916" gradientTransform="matrix(-0.2441 0.9697 -0.9697 -0.2441 -277.3192 -317.946)" gradientUnits="userSpaceOnUse">
				<stop  offset="0" style="stop-color:#FDB913"/>
				<stop  offset="1" style="stop-color:#D63929"/>
			</radialGradient>
			<path id="path30-2_269_" style="fill:url(#path30-2_2_);" d="M35.509,43.313c0.835,1.147,1.292,2.112,0.578,4.018
				c-0.53,1.018,0.655,1.146,0.655,1.146c1.351,1.517,1.666,0.021,2.281-0.492c0.615-0.514,0.301-3.555-2.09-5.883
				c-2.785-2.465-4.422-2.649-4.659-1.653C32.036,41.441,34.173,41.477,35.509,43.313z"/>
		</g>
		<path id="path103_9_" style="fill:#231815;" d="M34.334,26.517c0.198,0.159,3.777,3.061,4.916,6.137
			c0.033,0.283,0.084,0.578,0.168,0.892c0.389,1.437,0.977,2.404,1.645,3.063l0.002,0.014l0.009-0.004
			c2.126,2.085,5.069,0.945,5.069,0.945c-2.301-1.355-0.949-4.235-0.121-5.602c0.148-0.222,0.299-0.437,0.442-0.675
			c0.033-0.045,0.056-0.076,0.056-0.076c0-0.009,0-0.017,0-0.025c1.338-2.263,2.871-5.416,2.799-9.403
			C49.17,13.692,41.645,7.235,33.409,7.235c-2.207,0-4.293,0.482-6.175,1.33c-0.001-0.001-0.002-0.001-0.003-0.002
			c-0.017,0.008-0.033,0.017-0.05,0.024c-0.2,0.091-0.396,0.188-0.591,0.288c-0.155,0.079-0.309,0.16-0.461,0.244
			C25.96,9.21,25.794,9.302,25.632,9.4c-0.253,0.152-0.5,0.313-0.744,0.479c-0.112,0.078-0.223,0.156-0.333,0.236
			c-0.249,0.181-0.493,0.369-0.73,0.564c-0.039,0.032-0.081,0.06-0.12,0.092c-0.044,0.037-0.084,0.076-0.127,0.113
			c-0.022,0.019-0.042,0.041-0.063,0.06c-1.58,1.376-2.859,3.073-3.731,4.992c0,0.001-0.001,0.002-0.001,0.003l0,0
			c-0.62,1.366-1.039,2.839-1.207,4.389c2.377,1.613,6.542,3.505,13.039,3.505c0,0,1.39,2.641,1.716,3.73L34.334,26.517z"/>
		
			<radialGradient id="path112_1_" cx="308.1025" cy="-320.0557" r="15.2232" gradientTransform="matrix(1 0 0 -1 -274 -298)" gradientUnits="userSpaceOnUse">
			<stop  offset="0" style="stop-color:#A36C55"/>
			<stop  offset="0.3871" style="stop-color:#783E31"/>
			<stop  offset="0.6026" style="stop-color:#61331F"/>
			<stop  offset="0.8698" style="stop-color:#4D2412"/>
			<stop  offset="1" style="stop-color:#401400"/>
		</radialGradient>
		<path id="path112_2_" style="fill:url(#path112_1_);" d="M34.732,26.016c0.197,0.159,3.776,3.061,4.916,6.137
			c0.033,0.284,0.084,0.58,0.168,0.895c0.388,1.437,0.977,2.404,1.645,3.063l0.002,0.014l0.008-0.004
			c2.127,2.085,5.069,0.945,5.069,0.945c-2.3-1.355-0.949-4.236-0.121-5.604c0.149-0.222,0.3-0.437,0.442-0.675
			c0.033-0.045,0.057-0.076,0.057-0.076c0-0.009-0.001-0.017,0-0.025c1.338-2.263,2.378-5.309,2.305-9.296
			c-0.147-8.092-7.18-14.656-15.416-14.656c-2.205,0-4.292,0.482-6.173,1.33c-0.001-0.001-0.002-0.001-0.003-0.002
			c-0.017,0.008-0.033,0.017-0.05,0.024c-0.2,0.091-0.396,0.188-0.591,0.288c-0.155,0.079-0.309,0.16-0.461,0.244
			c-0.167,0.092-0.333,0.183-0.495,0.281c-0.253,0.152-0.5,0.313-0.744,0.479c-0.112,0.078-0.223,0.156-0.333,0.236
			c-0.249,0.181-0.493,0.369-0.73,0.564c-0.039,0.032-0.081,0.06-0.12,0.092c-0.044,0.037-0.084,0.076-0.127,0.113
			c-0.022,0.019-0.042,0.041-0.063,0.06c-1.58,1.376-2.859,3.073-3.731,4.992c0,0.001-0.001,0.002-0.001,0.003l0,0
			c-0.62,1.366-1.039,2.839-1.207,4.389c2.377,1.613,6.542,3.505,13.039,3.505c0,0,1.387,2.641,1.713,3.73L34.732,26.016z"/>
		
			<ellipse id="ellipse114_1_" transform="matrix(0.1631 -0.9866 0.9866 0.1631 3.4319 59.1507)" style="fill:#231815;" cx="36.581" cy="27.552" rx="3.084" ry="2.645"/>
		
			<radialGradient id="path121_1_" cx="362.3105" cy="-280.5732" r="5.2779" gradientTransform="matrix(0.9866 0.1633 0.1633 -0.9866 -277.4218 -307.826)" gradientUnits="userSpaceOnUse">
			<stop  offset="0" style="stop-color:#FDB913"/>
			<stop  offset="1" style="stop-color:#D63929"/>
		</radialGradient>
		<path id="path121_10_" style="fill:url(#path121_1_);" d="M38.08,28.266c-0.234,1.415-1.408,2.399-2.621,2.198
			c-1.213-0.201-2.006-1.509-1.771-2.924c0.234-1.413,1.408-2.394,2.619-2.195C37.521,25.546,38.314,26.855,38.08,28.266z"/>
	</g>
	<g id="Layer_1_52_">
	</g>
</g>
<g id="Layer_1">
</g>
</svg>
