<?xml version="1.0" encoding="utf-8"?>
<!-- Generator: Adobe Illustrator 18.0.0, SVG Export Plug-In . SVG Version: 6.00 Build 0)  -->
<!DOCTYPE svg PUBLIC "-//W3C//DTD SVG 1.1//EN" "http://www.w3.org/Graphics/SVG/1.1/DTD/svg11.dtd">
<svg version="1.1" id="レイヤー_1" xmlns="http://www.w3.org/2000/svg" xmlns:xlink="http://www.w3.org/1999/xlink" x="0px"
	 y="0px" width="64px" height="64px" viewBox="0 0 64 64" style="enable-background:new 0 0 64 64;" xml:space="preserve">
<g>
	<g>
		<linearGradient id="SVGID_1_" gradientUnits="userSpaceOnUse" x1="41.3003616" y1="10.7292004" x2="41.3003616" y2="42.7947998">
			<stop  offset="0" style="stop-color:#000000"/>
			<stop  offset="0.131687" style="stop-color:#3E3A39"/>
			<stop  offset="0.251029" style="stop-color:#3E3A39"/>
			<stop  offset="0.740741" style="stop-color:#000000"/>
		</linearGradient>
		<path style="fill:url(#SVGID_1_);" d="M40.9328003,40.1206017c0,0-0.1907997-0.8091011-0.7593994-1.7331009
			c0,0-1.6170998,2.4335976-2.6141014,4.407299c0,0-1.6883011-0.9084015-1.7047997-1.6190987l1.0555992-30.4465008
			C36.910099,10.7292004,56.0489006,18.3367996,40.9328003,40.1206017z"/>
		<path style="fill:#050505;" d="M37.6669922,43.1367188l-0.2255859-0.1220703
			c-0.3037109-0.1630859-1.8173828-1.0175781-1.8369141-1.8330078l1.0683594-30.815918l0.3300781,0.1308594
			c0.0712891,0.0288086,7.2207031,2.9433594,9.375,10.0869141c1.6914063,5.6098633-0.0712891,12.230957-5.2402344,19.6791992
			l-0.3183594,0.4599609l-0.1298828-0.5449219c-0.0019531-0.0068359-0.1425781-0.5888672-0.5292969-1.3115234
			c-0.4765625,0.7363281-1.6162109,2.5351563-2.3779297,4.0410156L37.6669922,43.1367188z M37.1474609,11.1074219
			l-1.0429688,30.0771484c0.0078125,0.3330078,0.7353516,0.8984375,1.3515625,1.2646484
			c0.9970703-1.9189453,2.4941406-4.1767578,2.5097656-4.2001953l0.2158203-0.3251953l0.2050781,0.3330078
			c0.3076172,0.5,0.5078125,0.9658203,0.6298828,1.2988281c4.8535156-7.144043,6.4960938-13.4760742,4.8828125-18.8276367
			C44.0761719,14.6835938,38.5556641,11.765625,37.1474609,11.1074219z"/>
	</g>
	<g>
		<linearGradient id="SVGID_2_" gradientUnits="userSpaceOnUse" x1="22.7805443" y1="10.7292004" x2="22.7805443" y2="42.7947998">
			<stop  offset="0" style="stop-color:#000000"/>
			<stop  offset="0.131687" style="stop-color:#3E3A39"/>
			<stop  offset="0.251029" style="stop-color:#3E3A39"/>
			<stop  offset="0.740741" style="stop-color:#000000"/>
		</linearGradient>
		<path style="fill:url(#SVGID_2_);" d="M23.0671997,40.1206017c0,0,0.1907997-0.8091011,0.7593994-1.7331009
			c0,0,1.5611,2.3775978,2.6141014,4.407299c0,0,1.6882992-0.9084015,1.7047997-1.6190987l-0.2026997-30.4465008
			C27.9428005,10.7292004,7.9511299,18.3367996,23.0671997,40.1206017z"/>
		<path style="fill:#050505;" d="M26.3359375,43.1357422l-0.1166992-0.2255859
			c-0.8017578-1.5458984-1.9121094-3.3125-2.3798828-4.0419922c-0.3862305,0.7216797-0.5273438,1.3027344-0.5288086,1.3095703
			l-0.1293945,0.5449219l-0.3193359-0.4599609c-5.0683594-7.3041992-6.7680664-13.8188477-5.0517578-19.3632813
			c2.2836914-7.3754883,9.9667969-10.3745117,10.0439453-10.4042969l0.3364258-0.1279297l0.2050781,30.8066406
			c-0.019043,0.8232422-1.5327148,1.6777344-1.8359375,1.8408203L26.3359375,43.1357422z M23.8198242,37.921875L24.0356445,38.25
			c0.0151367,0.0234375,1.4643555,2.2353516,2.5068359,4.2001953c0.6166992-0.3662109,1.3452148-0.9335938,1.3530273-1.2802734
			l-0.2001953-30.0644531c-1.4868164,0.6635742-7.4707031,3.6787109-9.4086914,9.9467773
			c-1.6337891,5.2827148-0.0537109,11.5058594,4.6967773,18.503418c0.1220703-0.3330078,0.3222656-0.7988281,0.6303711-1.2988281
			L23.8198242,37.921875z"/>
	</g>
</g>
<g>
	<g>
		<path style="fill:#BA713A;" d="M39.8610992,47.5803986c-5.2738991-1.5990982-2.6574974-9.3815994-2.6574974-9.3815994
			L32,39.0224991l-5.2035999-0.8237c0,0,2.6163998,7.7825012-2.6574993,9.3815994
			c-5.273901,1.5992012-11.7419004,2.2388-11.7419004,8.9552002l-0.1218004,8.8294983h39.4496002l-0.1217995-8.8294983
			C51.6030006,49.8191986,45.1349983,49.1795998,39.8610992,47.5803986z"/>
		<path style="fill:#7C3F16;" d="M32,41.7122002l-4.6313-0.7331009c0.1061001,0.9799995,0.1135006,2.0903015-0.1252995,3.1374016
			c0.1329002,0.6690979,0.292099,1.2571983,0.4736996,1.5393982C28.2866993,46.5405998,30.3749008,48.4981003,32,48.4981003
			s3.7132988-1.9575005,4.2829018-2.8422012c0.1815987-0.2821999,0.3407974-0.8703003,0.4736977-1.5393982
			c-0.2388-1.0471001-0.2313995-2.157402-0.1252975-3.1374016L32,41.7122002z"/>
		<path style="fill:#210601;" d="M51.9785156,65.6152344h-39.956543l0.125-9.0839844
			c0-5.9580078,4.9052734-7.2773438,9.6489258-8.5537109c0.7661133-0.2070313,1.5297852-0.4121094,2.2700195-0.6367188
			c1.1411133-0.3457031,1.9814453-1.0283203,2.4975586-2.0292969c1.4111328-2.734375,0.0102539-6.9902344-0.0039063-7.0322266
			l-0.1313477-0.3916016L32,38.7695313l5.5712891-0.8818359l-0.1308594,0.3916016
			c-0.0146484,0.0419922-1.4160156,4.2978516-0.0048828,7.0322266c0.5166016,1.0009766,1.3574219,1.6835938,2.4980469,2.0292969
			c0.7402344,0.2246094,1.5039063,0.4296875,2.2705078,0.6367188c4.7431641,1.2763672,9.6484375,2.5957031,9.6484375,8.5576172
			L51.9785156,65.6152344z M12.5288086,65.1152344h38.9418945l-0.1181641-8.5761719
			c0-5.5820313-4.5068359-6.7949219-9.2783203-8.0791016c-0.7714844-0.2080078-1.5400391-0.4150391-2.2851563-0.640625
			c-1.2763672-0.3867188-2.2177734-1.1533203-2.7978516-2.2792969c-1.2646484-2.4511719-0.4697266-5.8798828-0.1435547-7.03125
			L32,39.2753906l-0.0390625-0.0058594l-4.8095703-0.7607422c0.3261719,1.1513672,1.1210938,4.5800781-0.1425781,7.03125
			c-0.5805664,1.1259766-1.5219727,1.8925781-2.7973633,2.2792969c-0.7456055,0.2255859-1.5146484,0.4326172-2.2856445,0.640625
			c-4.7719727,1.2841797-9.2788086,2.4970703-9.2788086,8.0751953L12.5288086,65.1152344z"/>
	</g>
	<g>
		<g>
			<path style="fill:#7C3F16;" d="M43.4542999,26.8591003c0,0,0.7397995-2.2663002,2.2608986-2.4134007
				c1.5211029-0.1471996,2.4628029,5.3521996-0.4023972,7.7822018c-1.8137016,1.5380974-2.4835014,0.0183983-2.4835014,0.0183983
				L43.4542999,26.8591003z"/>
			<path style="fill:#210601;" d="M43.8535156,33.1660156c-0.8818359,0-1.2382813-0.7856445-1.2529297-0.8188477l-0.0273438-0.0625
				l0.6328125-5.4545898c0.0429688-0.1474609,0.8203125-2.472168,2.484375-2.6333008l0.0839844-0.0039063
				c0.5253906,0,0.984375,0.4609375,1.2919922,1.2983398c0.6289063,1.715332,0.5585938,5.1035156-1.5917969,6.9272461
				C44.8896484,32.9145508,44.34375,33.1660156,43.8535156,33.1660156z M43.0859375,32.1987305
				c0.078125,0.1333008,0.3173828,0.4672852,0.7675781,0.4672852c0.3691406,0,0.8056641-0.2114258,1.296875-0.6289063
				c1.9697266-1.6699219,2.0273438-4.7905273,1.4462891-6.3740234c-0.2226563-0.6074219-0.5302734-0.9702148-0.8222656-0.9702148
				c-1.3779297,0.1313477-2.0761719,2.2226563-2.0830078,2.2436523L43.0859375,32.1987305z"/>
		</g>
		<g>
			<path style="fill:#7C3F16;" d="M20.6714001,26.8591003c0,0-0.7397003-2.2663002-2.2607994-2.4134007
				c-1.5212002-0.1471996-2.462801,5.3521996,0.4023991,7.7822018c1.8136005,1.5380974,2.4834995,0.0183983,2.4834995,0.0183983
				L20.6714001,26.8591003z"/>
			<path style="fill:#210601;" d="M20.2714844,33.1660156L20.2714844,33.1660156
				c-0.4902344,0-1.0351563-0.2514648-1.6201172-0.7470703c-2.1508789-1.8242188-2.2211914-5.2124023-1.5917969-6.9277344
				c0.3071289-0.8374023,0.765625-1.2983398,1.2910156-1.2983398l0.0839844,0.0039063
				c1.6650391,0.1611328,2.4423828,2.4858398,2.4746094,2.5844727l0.6435547,5.503418l-0.0273438,0.0625
				C21.5102539,32.3803711,21.1538086,33.1660156,20.2714844,33.1660156z M18.3842773,24.6948242
				c-0.3266602,0-0.6328125,0.3623047-0.8554688,0.9682617c-0.5810547,1.5834961-0.5234375,4.7041016,1.4458008,6.3745117
				c0.4921875,0.4169922,0.9282227,0.628418,1.296875,0.628418c0.4511719,0,0.6904297-0.3339844,0.7675781-0.4672852
				l-0.6162109-5.3110352v0.0004883c-0.0053711,0-0.7060547-2.0649414-2.0361328-2.1933594
				C18.3857422,24.6948242,18.3852539,24.6948242,18.3842773,24.6948242z"/>
		</g>
		<g>
			<path style="fill:#7C3F16;" d="M43.2196007,9.0474796C40.1725006,7.0345998,37.580101,6.3043199,32,6.3043199
				s-8.1725006,0.7302799-11.2196007,2.7431598c-3.730999,2.4648199-2.6289997,13.3158207-0.655899,22.061821
				c1.1164989,4.948698,2.5319004,5.9645977,4.4527988,7.7175007C27.4983006,41.4922981,30.1508007,42.4339981,32,42.4339981
				c1.8492012,0,4.5017014-0.9417,7.422699-3.6071968c1.9209023-1.752903,3.3362999-2.7688026,4.4528008-7.7175007
				C45.8485985,22.3633003,46.9505997,11.5122995,43.2196007,9.0474796z"/>
			<path style="fill:#210601;" d="M32,42.6835938c-1.3320313,0-4.0893555-0.4765625-7.5913086-3.671875l-0.3525391-0.3193359
				c-1.7382813-1.5703125-3.1108398-2.8105469-4.175293-7.527832c-1.0053711-4.4555664-3.9208984-19.2324219,0.7617188-22.3256836
				C23.8339844,6.730957,26.59375,6.0541992,32,6.0541992s8.1660156,0.6767578,11.3574219,2.784668
				c4.6816406,3.0932617,1.7675781,17.8701172,0.7626953,22.3256836c-1.0654297,4.7172852-2.4384766,5.9575195-4.1757813,7.527832
				l-0.3525391,0.3193359C36.0898438,42.2070313,33.3320313,42.6835938,32,42.6835938z M32,6.5541992
				c-5.3579102,0-7.9472656,0.6313477-11.0820313,2.7016602c-3.5083008,2.3178711-2.5839844,12.7802734-0.5498047,21.7983398
				c1.0297852,4.5629883,2.2856445,5.6967773,4.0234375,7.2670898l0.3540039,0.3212891
				c2.4667969,2.25,5.1108398,3.5410156,7.2543945,3.5410156s4.7880859-1.2910156,7.2539063-3.5410156l0.3544922-0.3212891
				c1.7382813-1.5703125,2.9931641-2.7041016,4.0234375-7.2670898c2.0341797-9.0180664,2.9580078-19.4804688-0.5498047-21.7983398
				C39.9472656,7.1855469,37.3583984,6.5541992,32,6.5541992z"/>
		</g>
		<path style="fill:#BA713A;" d="M43.486599,25.1308994c-0.2818985-2.2479992-1.1311989-4.8899994-2.5251007-7.862999
			c-1.5339966,3.1450005-4.9312973,7.7601986-7.7820969,9.3431988L29.2350006,28.8013l3.1344986-3.2457008
			c0.0188026-0.0196991,1.1679993-1.2196999,2.5330009-3.1595001c-2.8302994,2.3706017-5.5345001,3.7680016-5.6998997,3.8529015
			l-1.4083996,0.719799l0.4587994-1.5138988c0.9167004-3.0234013,2.0601997-5.9078999,3.4064007-8.5981007
			c-0.6138,0.2280998-1.2197018,0.4465008-1.8151016,0.6606007c-4.5928993,1.6546993-8.3415985,3.0053997-9.5911999,6.547699
			c0.2886009,2.2572994,0.6815014,4.5468998,1.1233006,6.7063007c0.9988003,4.8814011,2.2649994,5.8834,3.9834003,7.6124001
			c2.6131001,2.6292,4.985899,3.5580978,6.6401997,3.5580978s4.0270996-0.9288979,6.6402016-3.5580978
			c1.718399-1.7290001,2.9846001-2.730999,3.9833984-7.6124001c0.3446999-1.6846008,0.6576996-3.4483013,0.9165001-5.214201
			L43.486599,25.1308994z M32,34.4793015c-0.4780998,0-1.2238007-0.2042999-1.2238007-0.4659004
			c0-0.3432999,1.0111008-0.8702011,1.2238007-0.8702011s1.2238007,0.5269012,1.2238007,0.8702011
			C33.2238007,34.2750015,32.4780998,34.4793015,32,34.4793015z"/>
		<g>
			<linearGradient id="SVGID_3_" gradientUnits="userSpaceOnUse" x1="31.4257813" y1="33.5178986" x2="31.4257813" y2="28.5382004">
				<stop  offset="0" style="stop-color:#FFFFFF;stop-opacity:0"/>
				<stop  offset="0.4" style="stop-color:#FFFFFF;stop-opacity:0.2"/>
				<stop  offset="0.6" style="stop-color:#FFFFFF;stop-opacity:0.2"/>
				<stop  offset="1" style="stop-color:#FFFFFF;stop-opacity:0"/>
			</linearGradient>
			<path style="fill:url(#SVGID_3_);" d="M32.1651993,31.0280991c0,1.3750992-0.8836994,2.4897995-1.2793999,2.4897995
				c-0.3956985,0-0.1169987-1.5447979,0.1023006-2.8787994c0.2047997-1.2449989,0.3719997-2.1008987,0.7677002-2.1008987
				S32.1651993,29.6529999,32.1651993,31.0280991z"/>
		</g>
	</g>
</g>
<g>
	<g>
		<linearGradient id="SVGID_4_" gradientUnits="userSpaceOnUse" x1="32.0108185" y1="2.3388829" x2="32.0108185" y2="32.4990005">
			<stop  offset="0" style="stop-color:#807540"/>
			<stop  offset="0.131687" style="stop-color:#C9B965"/>
			<stop  offset="0.251029" style="stop-color:#C9B965"/>
			<stop  offset="0.9" style="stop-color:#807640"/>
		</linearGradient>
		<path style="fill:url(#SVGID_4_);" d="M48.5693016,16.2628002C47.0069008,7.57125,42.0163002,5.0633302,38.6495018,4.3833899
			c-1.1285019-1.33303-2.769001-2.4549799-4.9438019-1.89867c-1.5446014,0.3951499-4.0538006,0.6488199-6.7012005,1.6812799
			c-3.0725994,0.1866202-9.7073994,1.81007-11.5653992,12.0606003c-0.7828007,3.280899,1.1929989,16.0727005,1.1929989,16.0727005
			s1.9653015-7.5087013,2.1638012-8.4973011c0.2421989,0.6014004,0.4109993,0.9517994,0.4109993,0.9517994
			c0.7462997-6.3022003,7.0361996-7.3437996,13.7445011-10.0089998c0.0478973-0.0190001,0.0876007-0.0422993,0.1348-0.0615997
			c-1.4782009,2.7034998-2.9689999,6.0453005-4.1896,10.0705996c0,0,5.8631001-2.9963989,9.3558979-7.6971989
			C36.1010017,21.7686996,32.8529015,25.1264,32.8529015,25.1264c3.1448975-1.7462997,6.9861984-7.3887005,8.0143967-10.2316999
			c0.1097031,0.1271,0.2127037,0.2630997,0.3199005,0.3935003c1.4029007,2.8544998,2.6055031,5.9895,2.966301,8.8624992
			c0,0,0.1379013-1.5548992,0.080101-3.7544994c0.7865982,1.9769001,3.1263008,12.1028004,3.1263008,12.1028004
			S49.3936996,19.7299004,48.5693016,16.2628002z"/>
		<path style="fill:#72402D;" d="M47.4052734,33.8046875l-0.2880859-1.2495117
			c-0.0195313-0.0839844-1.6396484-7.0844727-2.6240234-10.5234375c-0.0175781,1.2944336-0.0898438,2.1298828-0.0908203,2.1411133
			l-0.2060547,2.3286133l-0.2910156-2.3193359c-0.3125-2.4902344-1.3017578-5.4458008-2.9423828-8.7836914l-0.015625-0.0185547
			c-1.2490234,3.0336914-4.9326172,8.2768555-7.9726563,9.965332l-1.46875,0.8154297l1.1674805-1.2080078
			c0.0273438-0.0283203,2.3706055-2.4726563,4.3666992-6.0576172c-3.4638672,3.722168-7.9780273,6.0551758-8.0297852,6.081543
			l-0.5234375,0.2675781l0.1704102-0.5629883c1.0214844-3.3686523,2.3256836-6.5629883,3.8803711-9.5058594
			c-0.9624023,0.3730469-1.9130859,0.715332-2.8374023,1.0483398c-5.387207,1.940918-9.6430664,3.4741211-10.2451172,8.5595703
			l-0.1005859,0.8520508l-0.3725586-0.7729492c0,0-0.0429688-0.0888672-0.1166992-0.2548828
			c-0.5209961,2.1352539-1.9223633,7.4916992-1.9912109,7.7553711l-0.3046875,1.1655273l-0.184082-1.190918
			c-0.0810547-0.5244141-1.9746094-12.878418-1.1894531-16.1689453C17.0947266,5.6889648,24.0166016,4.1069336,26.9501953,3.9189453
			c1.8544922-0.71875,3.6333008-1.0600586,5.0649414-1.3344727c0.6269531-0.1201172,1.1694336-0.2241211,1.6293945-0.3417969
			c1.8837891-0.4814453,3.6386719,0.1738281,5.1396484,1.9130859c3.0917969,0.6489258,8.4169922,3.0839844,10.03125,12.0625
			c0.8232422,3.4619141-1.125,15.796875-1.2080078,16.3203125L47.4052734,33.8046875z M43.9462891,19l0.5195313,1.3037109
			c0.625,1.5703125,2.1845703,8.0766602,2.8417969,10.8696289c0.4853516-3.3222656,1.6689453-12.1176758,1.0185547-14.8530273
			C46.8251953,7.9750977,42.2089844,5.3574219,38.5996094,4.628418l-0.0849609-0.0170898l-0.0556641-0.0664063
			c-1.3876953-1.6396484-2.9716797-2.2592773-4.6914063-1.8178711c-0.4746094,0.121582-1.0229492,0.2265625-1.6586914,0.3486328
			c-1.4204102,0.2724609-3.1884766,0.6113281-5.0136719,1.3232422l-0.0756836,0.0166016
			c-2.7924805,0.1694336-9.4873047,1.6640625-11.3344727,11.8554688c-0.6240234,2.6162109,0.5498047,11.5083008,1.015625,14.7749023
			c0.5620117-2.1582031,1.703125-6.5620117,1.8500977-7.293457l0.1645508-0.8198242l0.3125,0.7758789
			c0.0239258,0.059082,0.046875,0.1162109,0.0693359,0.1704102c1.0014648-4.7275391,5.3925781-6.3095703,10.4335938-8.1259766
			c1.081543-0.3896484,2.199707-0.7924805,3.328125-1.2407227l0.7875977-0.3334961l-0.3408203,0.6245117
			c-1.5917969,2.9106445-2.9316406,6.0820313-3.9882813,9.4355469c1.519043-0.8598633,5.9287109-3.5556641,8.7353516-7.3310547
			l1.4101563-1.8989258l-0.9824219,2.1518555c-1.2421875,2.7197266-2.8623047,5.0078125-4.0117188,6.4584961
			c2.6191406-2.3662109,5.3339844-6.5166016,6.1630859-8.8095703l0.1464844-0.402832l0.2783203,0.3251953
			c0.0683594,0.0791016,0.1337891,0.1611328,0.1992188,0.2431641l0.125,0.1538086
			c1.2392578,2.5117188,2.109375,4.7949219,2.6132813,6.8359375c0.0058594-0.4677734,0.0039063-0.9941406-0.0107422-1.5625
			L43.9462891,19z"/>
	</g>
	<linearGradient id="SVGID_5_" gradientUnits="userSpaceOnUse" x1="44.7966805" y1="6.7490902" x2="44.7966805" y2="16.4860992">
		<stop  offset="0" style="stop-color:#FFFFFF;stop-opacity:0.6"/>
		<stop  offset="1" style="stop-color:#FFFFFF;stop-opacity:0"/>
	</linearGradient>
	<path style="fill:url(#SVGID_5_);" d="M41.9595985,6.7490902c0,0,4.2550011,2.0611095,5.676403,9.737009
		C47.6360016,16.4860992,41.8269005,9.7341499,41.9595985,6.7490902z"/>
	
		<linearGradient id="SVGID_6_" gradientUnits="userSpaceOnUse" x1="38.5007057" y1="6.2467818" x2="38.5007057" y2="15.7983179" gradientTransform="matrix(0.9994 0.0332 -0.0332 0.9994 -1.1817069 -0.8298)">
		<stop  offset="0" style="stop-color:#FFFFFF;stop-opacity:0.6"/>
		<stop  offset="1" style="stop-color:#FFFFFF;stop-opacity:0"/>
	</linearGradient>
	<path style="fill:url(#SVGID_6_);" d="M40.296299,6.7980199c0,0-2.1515007,6.2846799-6.7327003,9.3326797
		C33.5635986,16.1306992,36.229599,7.8719602,40.296299,6.7980199z"/>
	<linearGradient id="SVGID_7_" gradientUnits="userSpaceOnUse" x1="29.0872993" y1="5.9011202" x2="29.0872993" y2="14.5778999">
		<stop  offset="0" style="stop-color:#FFFFFF;stop-opacity:0.6"/>
		<stop  offset="1" style="stop-color:#FFFFFF;stop-opacity:0"/>
	</linearGradient>
	<path style="fill:url(#SVGID_7_);" d="M34.9892998,5.9011202c0,0-5.036499,1.0619698-6.2516003,2.48561
		c-1.2150993,1.4236403-5.5523987,6.1911697-5.5523987,6.1911697S33.5428009,9.8103704,34.9892998,5.9011202z"/>
	<linearGradient id="SVGID_8_" gradientUnits="userSpaceOnUse" x1="19.3210506" y1="6.8628201" x2="19.3210506" y2="16.8749008">
		<stop  offset="0" style="stop-color:#FFFFFF;stop-opacity:0.6"/>
		<stop  offset="1" style="stop-color:#FFFFFF;stop-opacity:0"/>
	</linearGradient>
	<path style="fill:url(#SVGID_8_);" d="M22.3323002,6.8628201c0,0-4.9932995,2.5106902-6.022501,10.0120811
		C16.3097992,16.8749008,22.1541996,10.4720001,22.3323002,6.8628201z"/>
</g>
<g>
	<g>
		<linearGradient id="SVGID_9_" gradientUnits="userSpaceOnUse" x1="32.0108185" y1="2.3388829" x2="32.0108185" y2="32.4990005">
			<stop  offset="0" style="stop-color:#000000"/>
			<stop  offset="0.131687" style="stop-color:#3E3A39"/>
			<stop  offset="0.251029" style="stop-color:#3E3A39"/>
			<stop  offset="0.9" style="stop-color:#000000"/>
		</linearGradient>
		<path style="fill:url(#SVGID_9_);" d="M48.5693016,16.2628002C47.0069008,7.57125,42.0163002,5.0633302,38.6495018,4.3833899
			c-1.1285019-1.33303-2.769001-2.4549799-4.9438019-1.89867c-1.5446014,0.3951499-4.0538006,0.6488199-6.7012005,1.6812799
			c-3.0725994,0.1866202-9.7073994,1.81007-11.5653992,12.0606003c-0.7828007,3.280899,1.1929989,16.0727005,1.1929989,16.0727005
			s1.9653015-7.5087013,2.1638012-8.4973011c0.2421989,0.6014004,0.4109993,0.9517994,0.4109993,0.9517994
			c0.7462997-6.3022003,7.0361996-7.3437996,13.7445011-10.0089998c0.0478973-0.0190001,0.0876007-0.0422993,0.1348-0.0615997
			c-1.4782009,2.7034998-2.9689999,6.0453005-4.1896,10.0705996c0,0,5.8631001-2.9963989,9.3558979-7.6971989
			C36.1010017,21.7686996,32.8529015,25.1264,32.8529015,25.1264c3.1448975-1.7462997,6.9861984-7.3887005,8.0143967-10.2316999
			c0.1097031,0.1271,0.2127037,0.2630997,0.3199005,0.3935003c1.4029007,2.8544998,2.6055031,5.9895,2.966301,8.8624992
			c0,0,0.1379013-1.5548992,0.080101-3.7544994c0.7865982,1.9769001,3.1263008,12.1028004,3.1263008,12.1028004
			S49.3936996,19.7299004,48.5693016,16.2628002z"/>
		<path style="fill:#050505;" d="M47.4052734,33.8046875l-0.2880859-1.2495117
			c-0.0195313-0.0839844-1.6396484-7.0844727-2.6240234-10.5234375c-0.0175781,1.2944336-0.0898438,2.1298828-0.0908203,2.1411133
			l-0.2060547,2.3286133l-0.2910156-2.3193359c-0.3125-2.4902344-1.3017578-5.4458008-2.9423828-8.7836914l-0.015625-0.0185547
			c-1.2490234,3.0336914-4.9326172,8.2768555-7.9726563,9.965332l-1.46875,0.8154297l1.1674805-1.2080078
			c0.0273438-0.0283203,2.3706055-2.4726563,4.3666992-6.0576172c-3.4638672,3.722168-7.9780273,6.0551758-8.0297852,6.081543
			l-0.5234375,0.2675781l0.1704102-0.5629883c1.0214844-3.3686523,2.3256836-6.5629883,3.8803711-9.5058594
			c-0.9624023,0.3730469-1.9130859,0.715332-2.8374023,1.0483398c-5.387207,1.940918-9.6430664,3.4741211-10.2451172,8.5595703
			l-0.1005859,0.8520508l-0.3725586-0.7729492c0,0-0.0429688-0.0888672-0.1166992-0.2548828
			c-0.5209961,2.1352539-1.9223633,7.4916992-1.9912109,7.7553711l-0.3046875,1.1655273l-0.184082-1.190918
			c-0.0810547-0.5244141-1.9746094-12.878418-1.1894531-16.1689453C17.0947266,5.6889648,24.0166016,4.1069336,26.9501953,3.9189453
			c1.8544922-0.71875,3.6333008-1.0600586,5.0649414-1.3344727c0.6269531-0.1201172,1.1694336-0.2241211,1.6293945-0.3417969
			c1.8837891-0.4814453,3.6386719,0.1738281,5.1396484,1.9130859c3.0917969,0.6489258,8.4169922,3.0839844,10.03125,12.0625
			c0.8232422,3.4619141-1.125,15.796875-1.2080078,16.3203125L47.4052734,33.8046875z M43.9462891,19l0.5195313,1.3037109
			c0.625,1.5703125,2.1845703,8.0766602,2.8417969,10.8696289c0.4853516-3.3222656,1.6689453-12.1176758,1.0185547-14.8530273
			C46.8251953,7.9750977,42.2089844,5.3574219,38.5996094,4.628418l-0.0849609-0.0170898l-0.0556641-0.0664063
			c-1.3876953-1.6396484-2.9716797-2.2592773-4.6914063-1.8178711c-0.4746094,0.121582-1.0229492,0.2265625-1.6586914,0.3486328
			c-1.4204102,0.2724609-3.1884766,0.6113281-5.0136719,1.3232422l-0.0756836,0.0166016
			c-2.7924805,0.1694336-9.4873047,1.6640625-11.3344727,11.8554688c-0.6240234,2.6162109,0.5498047,11.5083008,1.015625,14.7749023
			c0.5620117-2.1582031,1.703125-6.5620117,1.8500977-7.293457l0.1645508-0.8198242l0.3125,0.7758789
			c0.0239258,0.059082,0.046875,0.1162109,0.0693359,0.1704102c1.0014648-4.7275391,5.3925781-6.3095703,10.4335938-8.1259766
			c1.081543-0.3896484,2.199707-0.7924805,3.328125-1.2407227l0.7875977-0.3334961l-0.3408203,0.6245117
			c-1.5917969,2.9106445-2.9316406,6.0820313-3.9882813,9.4355469c1.519043-0.8598633,5.9287109-3.5556641,8.7353516-7.3310547
			l1.4101563-1.8989258l-0.9824219,2.1518555c-1.2421875,2.7197266-2.8623047,5.0078125-4.0117188,6.4584961
			c2.6191406-2.3662109,5.3339844-6.5166016,6.1630859-8.8095703l0.1464844-0.402832l0.2783203,0.3251953
			c0.0683594,0.0791016,0.1337891,0.1611328,0.1992188,0.2431641l0.125,0.1538086
			c1.2392578,2.5117188,2.109375,4.7949219,2.6132813,6.8359375c0.0058594-0.4677734,0.0039063-0.9941406-0.0107422-1.5625
			L43.9462891,19z"/>
	</g>
	<linearGradient id="SVGID_10_" gradientUnits="userSpaceOnUse" x1="44.7966805" y1="6.7490902" x2="44.7966805" y2="16.4860992">
		<stop  offset="0" style="stop-color:#FFFFFF;stop-opacity:0.6"/>
		<stop  offset="1" style="stop-color:#FFFFFF;stop-opacity:0"/>
	</linearGradient>
	<path style="fill:url(#SVGID_10_);" d="M41.9595985,6.7490902c0,0,4.2550011,2.0611095,5.676403,9.737009
		C47.6360016,16.4860992,41.8269005,9.7341499,41.9595985,6.7490902z"/>
	
		<linearGradient id="SVGID_11_" gradientUnits="userSpaceOnUse" x1="38.5007057" y1="6.2467818" x2="38.5007057" y2="15.7983179" gradientTransform="matrix(0.9994 0.0332 -0.0332 0.9994 -1.1817069 -0.8298)">
		<stop  offset="0" style="stop-color:#FFFFFF;stop-opacity:0.6"/>
		<stop  offset="1" style="stop-color:#FFFFFF;stop-opacity:0"/>
	</linearGradient>
	<path style="fill:url(#SVGID_11_);" d="M40.296299,6.7980199c0,0-2.1515007,6.2846799-6.7327003,9.3326797
		C33.5635986,16.1306992,36.229599,7.8719602,40.296299,6.7980199z"/>
	<linearGradient id="SVGID_12_" gradientUnits="userSpaceOnUse" x1="29.0872993" y1="5.9011202" x2="29.0872993" y2="14.5778999">
		<stop  offset="0" style="stop-color:#FFFFFF;stop-opacity:0.6"/>
		<stop  offset="1" style="stop-color:#FFFFFF;stop-opacity:0"/>
	</linearGradient>
	<path style="fill:url(#SVGID_12_);" d="M34.9892998,5.9011202c0,0-5.036499,1.0619698-6.2516003,2.48561
		c-1.2150993,1.4236403-5.5523987,6.1911697-5.5523987,6.1911697S33.5428009,9.8103704,34.9892998,5.9011202z"/>
	<linearGradient id="SVGID_13_" gradientUnits="userSpaceOnUse" x1="19.3210506" y1="6.8628201" x2="19.3210506" y2="16.8749008">
		<stop  offset="0" style="stop-color:#FFFFFF;stop-opacity:0.6"/>
		<stop  offset="1" style="stop-color:#FFFFFF;stop-opacity:0"/>
	</linearGradient>
	<path style="fill:url(#SVGID_13_);" d="M22.3323002,6.8628201c0,0-4.9932995,2.5106902-6.022501,10.0120811
		C16.3097992,16.8749008,22.1541996,10.4720001,22.3323002,6.8628201z"/>
</g>
<path style="fill:#210601;" d="M32,36.9600983c-2.5979996,0-3.9944992,0.703701-3.9944992,0.703701
	S28.2812996,36.2563019,32,36.2563019s3.9944992,1.4074974,3.9944992,1.4074974S34.5979996,36.9600983,32,36.9600983z"/>
<g>
	<path style="fill:#050505;" d="M29.3859997,20.9864998c0,0-0.4709988-0.3094997-1.1973-0.6334991
		c-0.3589993-0.1689014-0.7947998-0.3140011-1.2551003-0.4379005c-0.2350998-0.0510006-0.4745998-0.1012001-0.7227001-0.1245995
		c-0.2447987-0.0498009-0.4995003-0.021101-0.7509003-0.0370007c-0.5056,0.0130005-1.0087986,0.1026001-1.4817982,0.2234993
		c-0.2279015,0.081501-0.460701,0.1407013-0.6797009,0.2075005c-0.2049999,0.092701-0.4092007,0.1693001-0.5976009,0.2445011
		C22.3120003,20.5632,22.0291004,20.7458,21.7966995,20.8341999c-0.2297001,0.0969009-0.360899,0.1522999-0.360899,0.1522999
		s0.0823994-0.1014004,0.2402-0.2735004c0.1690998-0.1602001,0.3711987-0.4365997,0.7229996-0.6672993
		c0.1700001-0.1212006,0.3533993-0.2584,0.5597-0.3899002c0.2234001-0.1086998,0.4570999-0.2346001,0.7119007-0.3446999
		c0.2572994-0.1047001,0.5472984-0.1779995,0.8352985-0.2630997c0.2991009-0.0503006,0.6112003-0.0953999,0.9232998-0.1137009
		c0.3150005,0.0048008,0.6323013,0.0037003,0.9343014,0.0673008c0.3092003,0.033699,0.5921993,0.1317005,0.8627987,0.2231007
		c0.5311012,0.2013988,0.9791012,0.4621983,1.2952003,0.7381992C29.1809998,20.4946995,29.3859997,20.9864998,29.3859997,20.9864998
		z"/>
	<path style="fill:#050505;" d="M34.6139984,20.9864998c0,0,0.4710007-0.3094997,1.1973-0.6334991
		c0.3590012-0.1689014,0.7947998-0.3140011,1.2551003-0.4379005c0.2350998-0.0510006,0.4746017-0.1012001,0.722702-0.1245995
		c0.2448006-0.0498009,0.4995003-0.021101,0.7509003-0.0370007c0.5056,0.0130005,1.0088005,0.1026001,1.4818001,0.2234993
		c0.2278976,0.081501,0.4606972,0.1407013,0.6796989,0.2075005c0.2050018,0.092701,0.4091988,0.1693001,0.597599,0.2445011
		c0.3889008,0.1341991,0.6718025,0.3167992,0.9042015,0.4051991c0.2296982,0.0969009,0.3609009,0.1522999,0.3609009,0.1522999
		s-0.0824013-0.1014004-0.2402-0.2735004c-0.1691017-0.1602001-0.3712006-0.4365997-0.7229996-0.6672993
		c-0.170002-0.1212006-0.3534012-0.2584-0.5597-0.3899002c-0.2234001-0.1086998-0.4570999-0.2346001-0.7119026-0.3446999
		c-0.2572975-0.1047001-0.5472984-0.1779995-0.8353004-0.2630997c-0.299099-0.0503006-0.6111984-0.0953999-0.9232979-0.1137009
		c-0.3150024,0.0048008-0.6323013,0.0037003-0.9342995,0.0673008c-0.3092003,0.033699-0.5922012,0.1317005-0.8628006,0.2231007
		c-0.5311012,0.2013988-0.9790993,0.4621983-1.2952003,0.7381992
		C34.8190002,20.4946995,34.6139984,20.9864998,34.6139984,20.9864998z"/>
</g>
<g>
	<g>
		<path style="fill:#FFFFFF;" d="M40.2489014,24.2514992c-0.2168007-0.0720997-2.8776016,0.0109005-3.1063004,0.088501
			c-1.3473015,0.4568005-1.9277992,1.3827-1.9277992,2.1287994c0,0.9796009,0.3798981,1.8936005,1.1928978,2.1651001
			c0.5539017,0.1849995,0.6845016,0.2250996,1.1064987,0.2403011c0.177803,0.0064983,0.4021034,0.0089989,0.7399025,0.0152988
			c0.2367973,0.0044003,0.5014,0.0072002,0.7817993-0.0091991c1.1589012-0.0678997,2.5960007-0.4757004,3.5340996-2.5676003
			C42.5699997,26.3127003,41.8970985,24.7991009,40.2489014,24.2514992z"/>
		<g>
			<g>
				
					<linearGradient id="SVGID_14_" gradientUnits="userSpaceOnUse" x1="38.4218521" y1="28.8061008" x2="38.4218521" y2="23.9612007">
					<stop  offset="0" style="stop-color:#1E1E57"/>
					<stop  offset="0.452675" style="stop-color:#070714"/>
				</linearGradient>
				<path style="fill:url(#SVGID_14_);" d="M38.1990013,28.8061008c-0.059803,0-0.1196022-0.0032005-0.1798019-0.0097008
					c-0.5141983-0.0564995-0.9636002-0.3516998-1.2649994-0.8316002c-0.3161011-0.5030994-0.4296989-1.1418991-0.3200989-1.7987995
					c0.2059975-1.2364006,1.1769981-2.2047997,2.2103996-2.2047997c0.0597992,0,0.1195984,0.0031986,0.1797981,0.0096989
					c1.0959015,0.1201,1.8072014,1.3001003,1.5855026,2.6303997C40.2033997,27.8376007,39.232399,28.8061008,38.1990013,28.8061008
					L38.1990013,28.8061008z"/>
				<g>
					<path style="fill:#050505;" d="M40.6445007,26.6271c0.161499-0.9687004-0.1562004-1.8540001-0.7518005-2.3756008
						c-0.3143997-0.1208992-0.668499-0.1962986-1.0679016-0.1962986c-0.6461983,0-1.1758995,0.1113987-1.6182976,0.2847996
						c-0.5032997,0.427599-0.8837013,1.0592995-1.0073013,1.8001995c-0.2083015,1.2483997,0.3694,2.3715,1.328701,2.7340012
						c0.153698,0.0064983,0.3476982,0.0089989,0.639801,0.0152988c0.2047997,0.0044003,0.4335976,0.0072994,0.6760979-0.0091991
						C39.7256012,28.5853996,40.4617996,27.7220001,40.6445007,26.6271z M38.1990013,28.6142006
						c-0.0493011,0-0.099102-0.0027008-0.1480026-0.0081005c-0.4349976-0.0477009-0.8205986-0.3062992-1.0856972-0.7283001
						c-0.2945023-0.4687004-0.3998032-1.0676003-0.2966003-1.6861992c0.1907005-1.1431007,1.0585976-2.0385017,1.9758987-2.0385017
						c0.0493011,0,0.0990982,0.0027008,0.1479988,0.0081005c0.4350014,0.0475998,0.8206024,0.3063011,1.085701,0.7282009
						c0.2944984,0.4687996,0.3998985,1.0676003,0.2966003,1.6861992
						C39.9841995,27.7187004,39.1162987,28.6142006,38.1990013,28.6142006z"/>
				</g>
			</g>
			
				<ellipse transform="matrix(-0.9909557 -0.1341895 0.1341895 -0.9909557 72.9556961 57.6843834)" style="fill:#050505;" cx="38.4217987" cy="26.3836002" rx="0.8502903" ry="1.2310537"/>
		</g>
		<linearGradient id="SVGID_15_" gradientUnits="userSpaceOnUse" x1="36.5881004" y1="26.1700993" x2="36.5881004" y2="24.8348999">
			<stop  offset="0" style="stop-color:#FFFFFF;stop-opacity:0.5"/>
			<stop  offset="0.7" style="stop-color:#FFFFFF"/>
		</linearGradient>
		<ellipse style="fill:url(#SVGID_15_);" cx="36.5881004" cy="25.5025005" rx="0.6383" ry="0.6676"/>
		<linearGradient id="SVGID_16_" gradientUnits="userSpaceOnUse" x1="38.3311005" y1="28.8061008" x2="38.3311005" y2="27.8962002">
			<stop  offset="0" style="stop-color:#FFFFFF;stop-opacity:0.2"/>
			<stop  offset="0.7" style="stop-color:#FFFFFF;stop-opacity:0.7"/>
		</linearGradient>
		<ellipse style="fill:url(#SVGID_16_);" cx="38.3311005" cy="28.3511009" rx="0.435" ry="0.455"/>
		<g>
			<g>
				<path style="fill:#050505;" d="M41.9595985,27.4447002c0.1766014-0.2691002,0.5040016-0.8120995,0.5040016-1.132
					c0-0.3031006-0.8400002-1.1778011-1.9564018-1.7192001c-0.464798-0.1982002-0.8674965-0.3491001-1.4848976-0.3491001
					c-0.3246002,0-0.6956024,0.0401993-1.1668015,0.1266003c-1.4006996,0.2565994-2.5545998,1.3943996-2.9388008,1.8132
					c0.0946007-0.2888012,0.7627029-2.4717999,4.1865005-2.4717999c2.7532005,0,4.3481026,2.178299,4.4673004,2.2971001
					C43.5704994,26.0095005,42.2542992,27.2548008,41.9595985,27.4447002z"/>
			</g>
			<path style="fill:#050505;" d="M34.9166985,25.3400993c0,0,3.1245003-4.1984997,8.2773018-0.3685989
				C43.1940002,24.9715004,38.4571991,22.4139004,34.9166985,25.3400993z"/>
		</g>
	</g>
	<g>
		<path style="fill:#FFFFFF;" d="M23.7511005,24.2514992c0.2167988-0.0720997,2.8775997,0.0109005,3.1063004,0.088501
			c1.3472996,0.4568005,1.9277992,1.3827,1.9277992,2.1287994c0,0.9796009-0.3799,1.8936005-1.1928997,2.1651001
			c-0.5538998,0.1849995-0.6844997,0.2250996-1.1065006,0.2403011c-0.1777992,0.0064983-0.4020996,0.0089989-0.7399006,0.0152988
			c-0.2367992,0.0044003-0.5014,0.0072002-0.7817993-0.0091991c-1.1588993-0.0678997-2.5960007-0.4757004-3.5340996-2.5676003
			C21.4300003,26.3127003,22.1028996,24.7991009,23.7511005,24.2514992z"/>
		<g>
			<g>
				
					<linearGradient id="SVGID_17_" gradientUnits="userSpaceOnUse" x1="38.4218521" y1="28.8061008" x2="38.4218521" y2="23.9612007" gradientTransform="matrix(-1 0 0 1 64 0)">
					<stop  offset="0" style="stop-color:#1E1E57"/>
					<stop  offset="0.452675" style="stop-color:#070714"/>
				</linearGradient>
				<path style="fill:url(#SVGID_17_);" d="M25.8010006,28.8061008c0.0597992,0,0.1196003-0.0032005,0.1798-0.0097008
					c0.5142002-0.0564995,0.9636002-0.3516998,1.2649994-0.8316002c0.3160992-0.5030994,0.4297009-1.1418991,0.3201008-1.7987995
					c-0.2060013-1.2364006-1.177-2.2047997-2.2104015-2.2047997c-0.0597992,0-0.1195984,0.0031986-0.1798,0.0096989
					c-1.0958996,0.1201-1.8071995,1.3001003-1.5854988,2.6303997
					C23.7966003,27.8376007,24.7675991,28.8061008,25.8010006,28.8061008L25.8010006,28.8061008z"/>
				<g>
					<path style="fill:#050505;" d="M25.1562004,28.8803005c0.2425003,0.0164986,0.4713001,0.0135994,0.6760998,0.0091991
						c0.292099-0.0063,0.4860992-0.0088005,0.6397991-0.0152988c0.959301-0.3625011,1.5370007-1.4856014,1.328701-2.7340012
						c-0.1236-0.7409-0.5039997-1.3726006-1.0072994-1.8001995c-0.4424-0.1734009-0.9721012-0.2847996-1.6183014-0.2847996
						c-0.3993988,0-0.7535,0.0753994-1.0678997,0.1962986c-0.5956001,0.5216007-0.9132996,1.4069004-0.7518005,2.3756008
						C23.5382004,27.7220001,24.2744007,28.5853996,25.1562004,28.8803005z M23.8250999,26.5755997
						c-0.1033001-0.6185989,0.0021-1.2173996,0.2966003-1.6861992c0.2651005-0.4218998,0.6506996-0.6806011,1.0856991-0.7282009
						c0.0489006-0.0053997,0.0987015-0.0081005,0.1480007-0.0081005c0.9172993,0,1.7852001,0.895401,1.9759007,2.0385017
						c0.103199,0.6185989-0.0021,1.2174988-0.2966003,1.6861992c-0.2651005,0.4220009-0.6506996,0.6805992-1.085701,0.7283001
						c-0.0488987,0.0053997-0.0986996,0.0081005-0.1479988,0.0081005
						C24.8836994,28.6142006,24.0158005,27.7187004,23.8250999,26.5755997z"/>
				</g>
			</g>
			
				<ellipse transform="matrix(0.9909557 -0.1341895 0.1341895 0.9909557 -3.3090641 3.6709461)" style="fill:#050505;" cx="25.5781994" cy="26.3836002" rx="0.8502903" ry="1.2310537"/>
		</g>
		
			<linearGradient id="SVGID_18_" gradientUnits="userSpaceOnUse" x1="38.0486488" y1="26.1700993" x2="38.0486488" y2="24.8348999" gradientTransform="matrix(1 0 0 1 -14.1226997 0)">
			<stop  offset="0" style="stop-color:#FFFFFF;stop-opacity:0.5"/>
			<stop  offset="0.7" style="stop-color:#FFFFFF"/>
		</linearGradient>
		<ellipse style="fill:url(#SVGID_18_);" cx="23.9259491" cy="25.5025005" rx="0.63825" ry="0.6676"/>
		
			<linearGradient id="SVGID_19_" gradientUnits="userSpaceOnUse" x1="39.7915993" y1="28.8061008" x2="39.7915993" y2="27.8962002" gradientTransform="matrix(1 0 0 1 -14.1226997 0)">
			<stop  offset="0" style="stop-color:#FFFFFF;stop-opacity:0.2"/>
			<stop  offset="0.7" style="stop-color:#FFFFFF;stop-opacity:0.7"/>
		</linearGradient>
		<ellipse style="fill:url(#SVGID_19_);" cx="25.6688995" cy="28.3511009" rx="0.435" ry="0.455"/>
		<g>
			<g>
				<path style="fill:#050505;" d="M22.0403996,27.4447002c-0.1765995-0.2691002-0.5039997-0.8120995-0.5039997-1.132
					c0-0.3031006,0.8400002-1.1778011,1.9563999-1.7192001c0.4647999-0.1982002,0.8675003-0.3491001,1.4848995-0.3491001
					c0.3246002,0,0.6956005,0.0401993,1.1668015,0.1266003c1.4006996,0.2565994,2.5545998,1.3943996,2.9387989,1.8132
					c-0.0945988-0.2888012-0.7626991-2.4717999-4.1865005-2.4717999c-2.7531986,0-4.3480988,2.178299-4.4672985,2.2971001
					C20.4295006,26.0095005,21.7457008,27.2548008,22.0403996,27.4447002z"/>
			</g>
			<path style="fill:#050505;" d="M29.0832996,25.3400993c0,0-3.1245003-4.1984997-8.2772999-0.3685989
				C20.8059998,24.9715004,25.5428009,22.4139004,29.0832996,25.3400993z"/>
		</g>
	</g>
</g>
<g>
	<path style="fill:#BA713A;" d="M8.9289103,23.434c0.0544901-0.0737991,0.1375799-0.1047001,0.2328997-0.1170006
		c-0.1382895-0.6497993-0.19767-1.7782001,1.3543901-0.9716988c1.7554998,0.9120998,11.9448996,11.7413998,13.6311998,15.1035976
		l-3.6460991,2.5447998c0,0-5.6289005-5.8799973-6.9405012-9.0116978C12.2493,27.8502007,7.9907398,24.7063999,8.9289103,23.434z"/>
	<path style="fill:#210601;" d="M14.7797852,29.2036133c-2.5244141-3.2011719-5.0424805-5.7783203-5.5424805-5.6484375
		l-0.1513672-0.4765625c1.0883789-0.3491211,4.6171875,3.9521484,6.0864258,5.8154297L14.7797852,29.2036133z"/>
	<path style="fill:#7C3F16;" d="M22.6989994,38.4598007l-2.1976986,1.5338974c0,0-4.134901-4.3228989-6.1408005-7.5298996
		C16.5592995,34.2999001,19.9736996,37.6590004,22.6989994,38.4598007z"/>
	<path style="fill:#210601;" d="M20.46875,40.3212891l-0.1479492-0.1542969
		c-0.230957-0.2412109-5.6762695-5.9501953-6.9902344-9.0883789c-0.5722656-1.3662109-1.7353516-2.7539063-2.762207-3.9780273
		c-1.3833008-1.6499023-2.4760742-2.9536133-1.8408203-3.8149414c0.0405273-0.0546875,0.0908203-0.0996094,0.1499023-0.1347656
		c-0.0732422-0.4838867-0.0161133-0.8447266,0.1694336-1.0742188c0.0966797-0.1191406,0.277832-0.2612305,0.5932617-0.2612305
		c0.2680664,0,0.5922852,0.1005859,0.9912109,0.3081055c1.7880859,0.9291992,11.9829102,11.7114258,13.7397461,15.2133789
		l0.0966797,0.1933594L20.46875,40.3212891z M9.6401367,22.3154297c-0.128418,0-0.1782227,0.043457-0.2045898,0.0761719
		c-0.1069336,0.1313477-0.1176758,0.4580078-0.0292969,0.8730469l0.0561523,0.265625l-0.269043,0.034668
		c-0.0463867,0.0058594-0.0620117,0.015625-0.0639648,0.0180664c-0.4008789,0.5444336,0.6787109,1.8325195,1.8222656,3.1962891
		c1.0493164,1.2514648,2.2387695,2.6699219,2.8398438,4.105957c1.1616211,2.7729492,5.8500977,7.8305664,6.7436523,8.7807617
		l3.2885742-2.2958984c-1.9389648-3.5292969-11.75-13.934082-13.4228516-14.8032227
		C10.0004883,22.3588867,9.7661133,22.3154297,9.6401367,22.3154297z"/>
</g>
<g>
	<path style="fill:#BA713A;" d="M55.0710983,23.434c-0.0544968-0.0737991-0.1375999-0.1047001-0.2328987-0.1170006
		c0.1383018-0.6497993,0.1977005-1.7782001-1.3544006-0.9716988c-1.7555008,0.9120998-11.9449005,11.7413998-13.6311989,15.1035976
		l3.6460991,2.5447998c0,0,5.6289024-5.8799973,6.9405022-9.0116978C51.7507019,27.8502007,56.0093002,24.7063999,55.0710983,23.434
		z"/>
	<path style="fill:#210601;" d="M49.2197266,29.2036133l-0.3925781-0.3095703
		c1.46875-1.8623047,4.9853516-6.1591797,6.0869141-5.8154297l-0.1523438,0.4765625
		C54.3085938,23.4150391,51.7470703,25.9990234,49.2197266,29.2036133z"/>
	<path style="fill:#7C3F16;" d="M41.3009987,38.4598007l2.1977005,1.5338974c0,0,4.1348991-4.3228989,6.1408005-7.5298996
		C47.4407005,34.2999001,44.0262985,37.6590004,41.3009987,38.4598007z"/>
	<path style="fill:#210601;" d="M43.53125,40.3212891l-3.9990234-2.7910156l0.0966797-0.1933594
		c1.7568359-3.5009766,11.9511719-14.2841797,13.7392578-15.2133789c0.3994141-0.2075195,0.7236328-0.3081055,0.9921875-0.3081055
		c0.3154297,0,0.4960938,0.1420898,0.5927734,0.2612305c0.1855469,0.2294922,0.2421875,0.590332,0.1689453,1.0742188
		c0.0595703,0.034668,0.109375,0.0795898,0.1503906,0.1342773c0.6357422,0.8618164-0.4570313,2.1655273-1.8408203,3.815918
		c-1.0263672,1.2241211-2.1894531,2.6113281-2.7617188,3.9775391c-1.3144531,3.1381836-6.7587891,8.847168-6.9902344,9.0883789
		L43.53125,40.3212891z M40.1767578,37.3701172l3.2890625,2.2958984c0.8935547-0.9501953,5.5820313-6.0087891,6.7431641-8.7807617
		c0.6015625-1.4360352,1.7900391-2.8544922,2.8398438-4.1054688c1.1435547-1.3642578,2.2236328-2.6523438,1.8212891-3.1972656
		c-0.0009766-0.0019531-0.0175781-0.0117188-0.0634766-0.0175781l-0.2695313-0.034668l0.0566406-0.265625
		c0.0878906-0.4150391,0.0771484-0.7416992-0.0292969-0.8730469c-0.0517578-0.0644531-0.1621094-0.2421875-0.9658203,0.175293
		C51.9257813,23.4365234,42.1152344,33.8408203,40.1767578,37.3701172z"/>
</g>
<g>
	<g>
		<linearGradient id="SVGID_20_" gradientUnits="userSpaceOnUse" x1="32" y1="47.5213509" x2="32" y2="65.365097">
			<stop  offset="0" style="stop-color:#7D7D7D"/>
			<stop  offset="1" style="stop-color:#2B2B2B"/>
		</linearGradient>
		<path style="fill:url(#SVGID_20_);" d="M52.0998993,56.4868011c0-6.686203-6.5005989-7.3832016-11.8777008-8.9569016
			c-0.0924988-0.0270004-0.1867981,0.0111008-0.2285995,0.0979996C39.5891991,48.4690018,37.3054008,52.6666985,32,52.6666985
			s-7.5891991-4.1976967-7.9936008-5.0387993c-0.0417995-0.0868988-0.1360989-0.125-0.2285995-0.0979996
			c-5.3771,1.5737-11.8776999,2.2706985-11.8776999,8.9569016l-0.125,8.8782959h40.4497986L52.0998993,56.4868011z"/>
		<path d="M52.4785156,65.6152344H11.5214844l0.128418-9.1328125c0-5.9912109,5.0288086-7.3173828,9.8920898-8.6005859
			c0.7294922-0.1923828,1.4575195-0.3847656,2.1655273-0.5917969l0.1293945-0.0185547
			c0.1704102,0,0.3217773,0.0957031,0.3950195,0.2490234C24.625,48.3378906,26.8476563,52.4169922,32,52.4169922
			s7.375-4.0791016,7.7675781-4.8974609c0.0742188-0.1533203,0.2255859-0.2480469,0.3955078-0.2480469l0.1298828,0.0185547
			c0.7080078,0.2070313,1.4355469,0.3994141,2.1650391,0.5917969c4.8632813,1.2832031,9.8916016,2.609375,9.8916016,8.6044922
			L52.4785156,65.6152344z M12.0283203,65.1152344h39.9423828l-0.1210938-8.625c0-5.6142578-4.6240234-6.8339844-9.5185547-8.125
			c-0.7197266-0.1894531-1.4365234-0.3789063-2.1347656-0.5820313C39.7226563,48.7441406,37.3603516,52.9169922,32,52.9169922
			c-5.3623047,0-7.7250977-4.1748047-8.1967773-5.1357422c-0.6914063,0.2041016-1.4116211,0.3935547-2.1337891,0.5839844
			c-4.8955078,1.2919922-9.5195313,2.5117188-9.5195313,8.1210938L12.0283203,65.1152344z"/>
	</g>
	<path style="fill:#172A88;" d="M32,54.6669922c-7.5927734,0-9.8598633-6.5566406-9.8818359-6.6230469l0.4746094-0.1582031
		c0.0854492,0.2568359,2.1826172,6.28125,9.4072266,6.28125s9.3212891-6.0244141,9.4072266-6.28125l0.4746094,0.1582031
		C41.859375,48.1103516,39.5927734,54.6669922,32,54.6669922z"/>
</g>
<g>
	<g>
		<linearGradient id="SVGID_21_" gradientUnits="userSpaceOnUse" x1="41.0696411" y1="35.4196625" x2="41.0696411" y2="42.7402992">
			<stop  offset="0" style="stop-color:#7D7D7D"/>
			<stop  offset="1" style="stop-color:#2B2B2B"/>
		</linearGradient>
		<path style="fill:url(#SVGID_21_);" d="M37.2678986,37.207901c1.2179031-0.9644012,2.1853027-1.6110001,2.7380028-1.7388992
			c2.4264984-0.5613022,5.6270981,3.8246994,4.7022972,5.1294975c-0.1931,0.2723007-0.9309998,1.0531998-2.0056992,2.1417999
			L37.2678986,37.207901z"/>
		<path d="M42.7021484,43.0966797l-5.8076172-5.9121094l0.2177734-0.1728516
			c1.375-1.0888672,2.2763672-1.6572266,2.8369141-1.7861328c0.1601563-0.0371094,0.328125-0.0566406,0.4980469-0.0566406
			c1.6357422,0,3.3945313,1.6953125,4.21875,3.2890625c0.5078125,0.9814453,0.5947266,1.7929688,0.2460938,2.2851563
			c-0.1923828,0.2714844-0.8759766,1.0019531-2.0322266,2.1728516L42.7021484,43.0966797z M37.6416016,37.2324219
			l5.0605469,5.1513672c1.2763672-1.296875,1.6855469-1.765625,1.8017578-1.9296875
			c0.2285156-0.3222656,0.1230469-0.9824219-0.2822266-1.7666016c-0.7666016-1.4833984-2.3886719-3.0185547-3.7744141-3.0185547
			c-0.1328125,0-0.2617188,0.0146484-0.3847656,0.0429688C39.6171875,35.8154297,38.8037109,36.3261719,37.6416016,37.2324219z"/>
	</g>
	<g>
		<linearGradient id="SVGID_22_" gradientUnits="userSpaceOnUse" x1="23.8890095" y1="45.9375381" x2="31.3997822" y2="56.664032">
			<stop  offset="0" style="stop-color:#7D7D7D"/>
			<stop  offset="1" style="stop-color:#2B2B2B"/>
		</linearGradient>
		<path style="fill:url(#SVGID_22_);" d="M18.2266006,52C23.5084,47.8695984,35.6516991,36.7462006,38.4802017,36.0918999
			c2.8283997-0.6543007,6.5591965,4.4583015,5.4811974,5.9790993C42.8834,43.5918999,27.5440006,58.7168999,24,61.7168999
			c-2.2320995,1.8894997-5.6166,4.2500038-9.9916,3.3750038C9.6333704,64.2169037,12.6684999,56.3465004,18.2266006,52z"/>
		<path d="M15.8818359,65.5292969c-0.6362305,0-1.2832031-0.0644531-1.9223633-0.1923828
			c-1.1611328-0.2324219-1.9155273-0.9453125-2.1806641-2.0634766c-0.7109375-2.9931641,2.1713867-8.2460938,6.2939453-11.4707031
			c1.6450195-1.2861328,3.9814453-3.2734375,6.4545898-5.3769531c5.5742188-4.7402344,11.8916016-10.1142578,13.8964844-10.5771484
			c0.1835938-0.0429688,0.3759766-0.0644531,0.5712891-0.0644531c1.8896484,0,3.9248047,1.9628906,4.8798828,3.8105469
			c0.5839844,1.1298828,0.6875,2.0605469,0.2900391,2.6210938c-1.140625,1.6103516-16.4702148,16.7011719-20.003418,19.6914063
			C22.1694336,63.59375,19.4287109,65.5292969,15.8818359,65.5292969z M38.9951172,36.2841797
			c-0.1582031,0-0.3115234,0.0175781-0.4580078,0.0507813c-1.8867188,0.4365234-8.4287109,6.0009766-13.6855469,10.4716797
			c-2.4775391,2.1074219-4.8173828,4.0966797-6.4711914,5.390625c-3.9165039,3.0625-6.7744141,8.1845703-6.1152344,10.9609375
			c0.2202148,0.9267578,0.8232422,1.4941406,1.7919922,1.6884766c0.6074219,0.1210938,1.2211914,0.1826172,1.824707,0.1826172
			c3.3842773,0,6.0297852-1.8720703,7.956543-3.5029297c3.3808594-2.8623047,18.831543-18.0654297,19.918457-19.5996094
			c0.2753906-0.3886719,0.1533203-1.1748047-0.3261719-2.1025391C42.53125,38.0839844,40.6259766,36.2841797,38.9951172,36.2841797z
			"/>
	</g>
</g>
<g>
	<g>
		
			<linearGradient id="SVGID_23_" gradientUnits="userSpaceOnUse" x1="41.0696411" y1="35.4196625" x2="41.0696411" y2="42.7402992" gradientTransform="matrix(-1 0 0 1 64 0)">
			<stop  offset="0" style="stop-color:#7D7D7D"/>
			<stop  offset="1" style="stop-color:#2B2B2B"/>
		</linearGradient>
		<path style="fill:url(#SVGID_23_);" d="M26.7320995,37.207901c-1.2178993-0.9644012-2.1852989-1.6110001-2.737999-1.7388992
			c-2.4265003-0.5613022-5.6271,3.8246994-4.702301,5.1294975c0.1931,0.2723007,0.9309998,1.0531998,2.0057011,2.1417999
			L26.7320995,37.207901z"/>
		<path d="M21.2978516,43.0966797l-0.1782227-0.1806641c-1.1743164-1.1894531-1.8388672-1.9003906-2.0317383-2.1728516
			c-0.3486328-0.4921875-0.2612305-1.3037109,0.2460938-2.2851563c0.8242188-1.59375,2.5830078-3.2890625,4.21875-3.2890625
			c0.1704102,0,0.3378906,0.0195313,0.4975586,0.0566406c0.5605469,0.1289063,1.4619141,0.6972656,2.8369141,1.7861328
			l0.2177734,0.1728516L21.2978516,43.0966797z M23.5527344,35.6689453c-1.3862305,0-3.0078125,1.5351563-3.7744141,3.0185547
			c-0.4052734,0.7841797-0.5107422,1.4443359-0.2822266,1.7666016c0.1147461,0.1621094,0.5234375,0.6308594,1.8007813,1.9296875
			l5.0610352-5.1513672c-1.1616211-0.90625-1.9750977-1.4169922-2.4199219-1.5205078
			C23.8144531,35.6835938,23.6850586,35.6689453,23.5527344,35.6689453z"/>
	</g>
	<g>
		
			<linearGradient id="SVGID_24_" gradientUnits="userSpaceOnUse" x1="23.8890133" y1="45.9375381" x2="31.3997841" y2="56.6640282" gradientTransform="matrix(-1 0 0 1 64 0)">
			<stop  offset="0" style="stop-color:#7D7D7D"/>
			<stop  offset="1" style="stop-color:#2B2B2B"/>
		</linearGradient>
		<path style="fill:url(#SVGID_24_);" d="M45.7733994,52C40.4916,47.8695984,28.3483009,36.7462006,25.5198002,36.0918999
			c-2.8283997-0.6543007-6.5592003,4.4583015-5.4811993,5.9790993C21.1166,43.5918999,36.4560013,58.7168999,40,61.7168999
			c2.2321014,1.8894997,5.6166,4.2500038,9.9916,3.3750038S51.331501,56.3465004,45.7733994,52z"/>
		<path d="M48.1181641,65.5292969L48.1181641,65.5292969c-3.5458984,0-6.2871094-1.9355469-8.2792969-3.6220703
			c-3.53125-2.9882813-18.8613281-18.0791016-20.0043945-19.6914063c-0.3969727-0.5605469-0.2939453-1.4912109,0.2900391-2.6201172
			c0.9550781-1.8476563,2.9902344-3.8115234,4.8813477-3.8115234c0.1948242,0,0.387207,0.0214844,0.5703125,0.0644531
			c2.0039063,0.4628906,8.3203125,5.8349609,13.8925781,10.5742188c2.4746094,2.1044922,4.8125,4.0927734,6.4589844,5.3798828
			c4.1220703,3.2246094,7.0039063,8.4775391,6.2929688,11.4707031c-0.265625,1.1181641-1.0195313,1.8310547-2.1806641,2.0634766
			C49.4003906,65.4648438,48.7539063,65.5292969,48.1181641,65.5292969z M25.0058594,36.2841797
			c-1.6318359,0-3.5375977,1.8007813-4.4375,3.5410156c-0.4794922,0.9267578-0.6010742,1.7128906-0.3256836,2.1015625
			c1.0888672,1.5361328,16.5405273,16.7392578,19.918457,19.5996094c1.9277344,1.6308594,4.5732422,3.5029297,7.9570313,3.5029297
			l0,0c0.6035156,0,1.2167969-0.0615234,1.8242188-0.1826172c0.96875-0.1933594,1.5722656-0.7617188,1.7919922-1.6884766
			c0.6591797-2.7763672-2.1982422-7.8984375-6.1152344-10.9609375c-1.6542969-1.2939453-3.9951172-3.2851563-6.4746094-5.3935547
			c-5.2548828-4.4697266-11.7954102-10.0322266-13.6806641-10.46875
			C25.3168945,36.3017578,25.1630859,36.2841797,25.0058594,36.2841797z"/>
	</g>
</g>
</svg>
