<?xml version="1.0" encoding="utf-8"?>
<!-- Generator: Adobe Illustrator 18.0.0, SVG Export Plug-In . SVG Version: 6.00 Build 0)  -->
<!DOCTYPE svg PUBLIC "-//W3C//DTD SVG 1.1//EN" "http://www.w3.org/Graphics/SVG/1.1/DTD/svg11.dtd">
<svg version="1.1" id="レイヤー_1" xmlns="http://www.w3.org/2000/svg" xmlns:xlink="http://www.w3.org/1999/xlink" x="0px"
	 y="0px" width="64px" height="64px" viewBox="0 0 64 64" style="enable-background:new 0 0 64 64;" xml:space="preserve">
<g>
	<g>
		<linearGradient id="SVGID_1_" gradientUnits="userSpaceOnUse" x1="41.3003616" y1="10.7292004" x2="41.3003616" y2="42.7947998">
			<stop  offset="0" style="stop-color:#807540"/>
			<stop  offset="0.131687" style="stop-color:#C9B965"/>
			<stop  offset="0.251029" style="stop-color:#C9B965"/>
			<stop  offset="0.740741" style="stop-color:#807640"/>
		</linearGradient>
		<path style="fill:url(#SVGID_1_);" d="M40.9328003,40.1206017c0,0-0.1907997-0.8091011-0.7593994-1.7331009
			c0,0-1.6170998,2.4335976-2.6141014,4.407299c0,0-1.6883011-0.9084015-1.7047997-1.6190987l1.0555992-30.4465008
			C36.910099,10.7292004,56.0489006,18.3367996,40.9328003,40.1206017z"/>
		<path style="fill:#72402D;" d="M37.6669922,43.1367188l-0.2255859-0.1220703
			c-0.3037109-0.1630859-1.8173828-1.0175781-1.8369141-1.8330078l1.0683594-30.815918l0.3300781,0.1308594
			c0.0712891,0.0288086,7.2207031,2.9433594,9.375,10.0869141c1.6914063,5.6098633-0.0712891,12.230957-5.2402344,19.6791992
			l-0.3183594,0.4599609l-0.1298828-0.5449219c-0.0019531-0.0068359-0.1425781-0.5888672-0.5292969-1.3115234
			c-0.4765625,0.7363281-1.6162109,2.5351563-2.3779297,4.0410156L37.6669922,43.1367188z M37.1474609,11.1074219
			l-1.0429688,30.0771484c0.0078125,0.3330078,0.7353516,0.8984375,1.3515625,1.2646484
			c0.9970703-1.9189453,2.4941406-4.1767578,2.5097656-4.2001953l0.2158203-0.3251953l0.2050781,0.3330078
			c0.3076172,0.5,0.5078125,0.9658203,0.6298828,1.2988281c4.8535156-7.144043,6.4960938-13.4760742,4.8828125-18.8276367
			C44.0761719,14.6835938,38.5556641,11.765625,37.1474609,11.1074219z"/>
	</g>
	<g>
		<linearGradient id="SVGID_2_" gradientUnits="userSpaceOnUse" x1="22.7805443" y1="10.7292004" x2="22.7805443" y2="42.7947998">
			<stop  offset="0" style="stop-color:#807540"/>
			<stop  offset="0.131687" style="stop-color:#C9B965"/>
			<stop  offset="0.251029" style="stop-color:#C9B965"/>
			<stop  offset="0.740741" style="stop-color:#807640"/>
		</linearGradient>
		<path style="fill:url(#SVGID_2_);" d="M23.0671997,40.1206017c0,0,0.1907997-0.8091011,0.7593994-1.7331009
			c0,0,1.5611,2.3775978,2.6141014,4.407299c0,0,1.6882992-0.9084015,1.7047997-1.6190987l-0.2026997-30.4465008
			C27.9428005,10.7292004,7.9511299,18.3367996,23.0671997,40.1206017z"/>
		<path style="fill:#72402D;" d="M26.3359375,43.1357422l-0.1166992-0.2255859
			c-0.8017578-1.5458984-1.9121094-3.3125-2.3798828-4.0419922c-0.3862305,0.7216797-0.5273438,1.3027344-0.5288086,1.3095703
			l-0.1293945,0.5449219l-0.3193359-0.4599609c-5.0683594-7.3041992-6.7680664-13.8188477-5.0517578-19.3632813
			c2.2836914-7.3754883,9.9667969-10.3745117,10.0439453-10.4042969l0.3364258-0.1279297l0.2050781,30.8066406
			c-0.019043,0.8232422-1.5327148,1.6777344-1.8359375,1.8408203L26.3359375,43.1357422z M23.8198242,37.921875L24.0356445,38.25
			c0.0151367,0.0234375,1.4643555,2.2353516,2.5068359,4.2001953c0.6166992-0.3662109,1.3452148-0.9335938,1.3530273-1.2802734
			l-0.2001953-30.0644531c-1.4868164,0.6635742-7.4707031,3.6787109-9.4086914,9.9467773
			c-1.6337891,5.2827148-0.0537109,11.5058594,4.6967773,18.503418c0.1220703-0.3330078,0.3222656-0.7988281,0.6303711-1.2988281
			L23.8198242,37.921875z"/>
	</g>
</g>
<g>
	<g>
		<path style="fill:#FFE6D9;" d="M39.8610992,47.5803986c-5.2738991-1.5990982-2.6574974-9.3815994-2.6574974-9.3815994
			L32,39.0224991l-5.2035999-0.8237c0,0,2.6163998,7.7825012-2.6574993,9.3815994
			c-5.273901,1.5992012-11.7419004,2.2388-11.7419004,8.9552002l-0.1218004,8.8294983h39.4496002l-0.1217995-8.8294983
			C51.6030006,49.8191986,45.1349983,49.1795998,39.8610992,47.5803986z"/>
		<path style="fill:#EDBBAB;" d="M32,41.7122002l-4.6313-0.7331009c0.1061001,0.9799995,0.1135006,2.0903015-0.1252995,3.1374016
			c0.1329002,0.6690979,0.292099,1.2571983,0.4736996,1.5393982C28.2866993,46.5405998,30.3749008,48.4981003,32,48.4981003
			s3.7132988-1.9575005,4.2829018-2.8422012c0.1815987-0.2821999,0.3407974-0.8703003,0.4736977-1.5393982
			c-0.2388-1.0471001-0.2313995-2.157402-0.1252975-3.1374016L32,41.7122002z"/>
		<path style="fill:#BC816F;" d="M51.9785156,65.6152344h-39.956543l0.125-9.0839844
			c0-5.9580078,4.9052734-7.2773438,9.6489258-8.5537109c0.7661133-0.2070313,1.5297852-0.4121094,2.2700195-0.6367188
			c1.1411133-0.3457031,1.9814453-1.0283203,2.4975586-2.0292969c1.4111328-2.734375,0.0102539-6.9902344-0.0039063-7.0322266
			l-0.1313477-0.3916016L32,38.7695313l5.5712891-0.8818359l-0.1308594,0.3916016
			c-0.0146484,0.0419922-1.4160156,4.2978516-0.0048828,7.0322266c0.5166016,1.0009766,1.3574219,1.6835938,2.4980469,2.0292969
			c0.7402344,0.2246094,1.5039063,0.4296875,2.2705078,0.6367188c4.7431641,1.2763672,9.6484375,2.5957031,9.6484375,8.5576172
			L51.9785156,65.6152344z M12.5288086,65.1152344h38.9418945l-0.1181641-8.5761719
			c0-5.5820313-4.5068359-6.7949219-9.2783203-8.0791016c-0.7714844-0.2080078-1.5400391-0.4150391-2.2851563-0.640625
			c-1.2763672-0.3867188-2.2177734-1.1533203-2.7978516-2.2792969c-1.2646484-2.4511719-0.4697266-5.8798828-0.1435547-7.03125
			L32,39.2753906l-0.0390625-0.0058594l-4.8095703-0.7607422c0.3261719,1.1513672,1.1210938,4.5800781-0.1425781,7.03125
			c-0.5805664,1.1259766-1.5219727,1.8925781-2.7973633,2.2792969c-0.7456055,0.2255859-1.5146484,0.4326172-2.2856445,0.640625
			c-4.7719727,1.2841797-9.2788086,2.4970703-9.2788086,8.0751953L12.5288086,65.1152344z"/>
	</g>
	<g>
		<g>
			<path style="fill:#EDBBAB;" d="M43.4542999,26.8591003c0,0,0.7397995-2.2663002,2.2608986-2.4134007
				c1.5211029-0.1471996,2.4628029,5.3521996-0.4023972,7.7822018c-1.8137016,1.5380974-2.4835014,0.0183983-2.4835014,0.0183983
				L43.4542999,26.8591003z"/>
			<path style="fill:#BC816F;" d="M43.8535156,33.1660156c-0.8818359,0-1.2382813-0.7856445-1.2529297-0.8188477l-0.0273438-0.0625
				l0.6328125-5.4545898c0.0429688-0.1474609,0.8203125-2.472168,2.484375-2.6333008l0.0839844-0.0039063
				c0.5253906,0,0.984375,0.4609375,1.2919922,1.2983398c0.6289063,1.715332,0.5585938,5.1035156-1.5917969,6.9272461
				C44.8896484,32.9145508,44.34375,33.1660156,43.8535156,33.1660156z M43.0859375,32.1987305
				c0.078125,0.1333008,0.3173828,0.4672852,0.7675781,0.4672852c0.3691406,0,0.8056641-0.2114258,1.296875-0.6289063
				c1.9697266-1.6699219,2.0273438-4.7905273,1.4462891-6.3740234c-0.2226563-0.6074219-0.5302734-0.9702148-0.8222656-0.9702148
				c-1.3779297,0.1313477-2.0761719,2.2226563-2.0830078,2.2436523L43.0859375,32.1987305z"/>
		</g>
		<g>
			<path style="fill:#EDBBAB;" d="M20.6714001,26.8591003c0,0-0.7397003-2.2663002-2.2607994-2.4134007
				c-1.5212002-0.1471996-2.462801,5.3521996,0.4023991,7.7822018c1.8136005,1.5380974,2.4834995,0.0183983,2.4834995,0.0183983
				L20.6714001,26.8591003z"/>
			<path style="fill:#BC816F;" d="M20.2714844,33.1660156L20.2714844,33.1660156
				c-0.4902344,0-1.0351563-0.2514648-1.6201172-0.7470703c-2.1508789-1.8242188-2.2211914-5.2124023-1.5917969-6.9277344
				c0.3071289-0.8374023,0.765625-1.2983398,1.2910156-1.2983398l0.0839844,0.0039063
				c1.6650391,0.1611328,2.4423828,2.4858398,2.4746094,2.5844727l0.6435547,5.503418l-0.0273438,0.0625
				C21.5102539,32.3803711,21.1538086,33.1660156,20.2714844,33.1660156z M18.3842773,24.6948242
				c-0.3266602,0-0.6328125,0.3623047-0.8554688,0.9682617c-0.5810547,1.5834961-0.5234375,4.7041016,1.4458008,6.3745117
				c0.4921875,0.4169922,0.9282227,0.628418,1.296875,0.628418c0.4511719,0,0.6904297-0.3339844,0.7675781-0.4672852
				l-0.6162109-5.3110352v0.0004883c-0.0053711,0-0.7060547-2.0649414-2.0361328-2.1933594
				C18.3857422,24.6948242,18.3852539,24.6948242,18.3842773,24.6948242z"/>
		</g>
		<g>
			<path style="fill:#EDBBAB;" d="M43.2196007,9.0474796C40.1725006,7.0345998,37.580101,6.3043199,32,6.3043199
				s-8.1725006,0.7302799-11.2196007,2.7431598c-3.730999,2.4648199-2.6289997,13.3158207-0.655899,22.061821
				c1.1164989,4.948698,2.5319004,5.9645977,4.4527988,7.7175007C27.4983006,41.4922981,30.1508007,42.4339981,32,42.4339981
				c1.8492012,0,4.5017014-0.9417,7.422699-3.6071968c1.9209023-1.752903,3.3362999-2.7688026,4.4528008-7.7175007
				C45.8485985,22.3633003,46.9505997,11.5122995,43.2196007,9.0474796z"/>
			<path style="fill:#BC816F;" d="M32,42.6835938c-1.3320313,0-4.0893555-0.4765625-7.5913086-3.671875l-0.3525391-0.3193359
				c-1.7382813-1.5703125-3.1108398-2.8105469-4.175293-7.527832c-1.0053711-4.4555664-3.9208984-19.2324219,0.7617188-22.3256836
				C23.8339844,6.730957,26.59375,6.0541992,32,6.0541992s8.1660156,0.6767578,11.3574219,2.784668
				c4.6816406,3.0932617,1.7675781,17.8701172,0.7626953,22.3256836c-1.0654297,4.7172852-2.4384766,5.9575195-4.1757813,7.527832
				l-0.3525391,0.3193359C36.0898438,42.2070313,33.3320313,42.6835938,32,42.6835938z M32,6.5541992
				c-5.3579102,0-7.9472656,0.6313477-11.0820313,2.7016602c-3.5083008,2.3178711-2.5839844,12.7802734-0.5498047,21.7983398
				c1.0297852,4.5629883,2.2856445,5.6967773,4.0234375,7.2670898l0.3540039,0.3212891
				c2.4667969,2.25,5.1108398,3.5410156,7.2543945,3.5410156s4.7880859-1.2910156,7.2539063-3.5410156l0.3544922-0.3212891
				c1.7382813-1.5703125,2.9931641-2.7041016,4.0234375-7.2670898c2.0341797-9.0180664,2.9580078-19.4804688-0.5498047-21.7983398
				C39.9472656,7.1855469,37.3583984,6.5541992,32,6.5541992z"/>
		</g>
		<path style="fill:#FFE6D9;" d="M43.486599,25.1308994c-0.2818985-2.2479992-1.1311989-4.8899994-2.5251007-7.862999
			c-1.5339966,3.1450005-4.9312973,7.7601986-7.7820969,9.3431988L29.2350006,28.8013l3.1344986-3.2457008
			c0.0188026-0.0196991,1.1679993-1.2196999,2.5330009-3.1595001c-2.8302994,2.3706017-5.5345001,3.7680016-5.6998997,3.8529015
			l-1.4083996,0.719799l0.4587994-1.5138988c0.9167004-3.0234013,2.0601997-5.9078999,3.4064007-8.5981007
			c-0.6138,0.2280998-1.2197018,0.4465008-1.8151016,0.6606007c-4.5928993,1.6546993-8.3415985,3.0053997-9.5911999,6.547699
			c0.2886009,2.2572994,0.6815014,4.5468998,1.1233006,6.7063007c0.9988003,4.8814011,2.2649994,5.8834,3.9834003,7.6124001
			c2.6131001,2.6292,4.985899,3.5580978,6.6401997,3.5580978s4.0270996-0.9288979,6.6402016-3.5580978
			c1.718399-1.7290001,2.9846001-2.730999,3.9833984-7.6124001c0.3446999-1.6846008,0.6576996-3.4483013,0.9165001-5.214201
			L43.486599,25.1308994z M32,34.4793015c-0.4780998,0-1.2238007-0.2042999-1.2238007-0.4659004
			c0-0.3432999,1.0111008-0.8702011,1.2238007-0.8702011s1.2238007,0.5269012,1.2238007,0.8702011
			C33.2238007,34.2750015,32.4780998,34.4793015,32,34.4793015z"/>
		<g>
			<linearGradient id="SVGID_3_" gradientUnits="userSpaceOnUse" x1="31.4257813" y1="33.5178986" x2="31.4257813" y2="28.5382004">
				<stop  offset="0" style="stop-color:#FFFFFF;stop-opacity:0"/>
				<stop  offset="0.4" style="stop-color:#FFFFFF;stop-opacity:0.2"/>
				<stop  offset="0.6" style="stop-color:#FFFFFF;stop-opacity:0.2"/>
				<stop  offset="1" style="stop-color:#FFFFFF;stop-opacity:0"/>
			</linearGradient>
			<path style="fill:url(#SVGID_3_);" d="M32.1651993,31.0280991c0,1.3750992-0.8836994,2.4897995-1.2793999,2.4897995
				c-0.3956985,0-0.1169987-1.5447979,0.1023006-2.8787994c0.2047997-1.2449989,0.3719997-2.1008987,0.7677002-2.1008987
				S32.1651993,29.6529999,32.1651993,31.0280991z"/>
		</g>
	</g>
</g>
<g>
	<g>
		<linearGradient id="SVGID_4_" gradientUnits="userSpaceOnUse" x1="32.0108185" y1="2.3388829" x2="32.0108185" y2="32.4990005">
			<stop  offset="0" style="stop-color:#807540"/>
			<stop  offset="0.131687" style="stop-color:#C9B965"/>
			<stop  offset="0.251029" style="stop-color:#C9B965"/>
			<stop  offset="0.9" style="stop-color:#807640"/>
		</linearGradient>
		<path style="fill:url(#SVGID_4_);" d="M48.5693016,16.2628002C47.0069008,7.57125,42.0163002,5.0633302,38.6495018,4.3833899
			c-1.1285019-1.33303-2.769001-2.4549799-4.9438019-1.89867c-1.5446014,0.3951499-4.0538006,0.6488199-6.7012005,1.6812799
			c-3.0725994,0.1866202-9.7073994,1.81007-11.5653992,12.0606003c-0.7828007,3.280899,1.1929989,16.0727005,1.1929989,16.0727005
			s1.9653015-7.5087013,2.1638012-8.4973011c0.2421989,0.6014004,0.4109993,0.9517994,0.4109993,0.9517994
			c0.7462997-6.3022003,7.0361996-7.3437996,13.7445011-10.0089998c0.0478973-0.0190001,0.0876007-0.0422993,0.1348-0.0615997
			c-1.4782009,2.7034998-2.9689999,6.0453005-4.1896,10.0705996c0,0,5.8631001-2.9963989,9.3558979-7.6971989
			C36.1010017,21.7686996,32.8529015,25.1264,32.8529015,25.1264c3.1448975-1.7462997,6.9861984-7.3887005,8.0143967-10.2316999
			c0.1097031,0.1271,0.2127037,0.2630997,0.3199005,0.3935003c1.4029007,2.8544998,2.6055031,5.9895,2.966301,8.8624992
			c0,0,0.1379013-1.5548992,0.080101-3.7544994c0.7865982,1.9769001,3.1263008,12.1028004,3.1263008,12.1028004
			S49.3936996,19.7299004,48.5693016,16.2628002z"/>
		<path style="fill:#72402D;" d="M47.4052734,33.8046875l-0.2880859-1.2495117
			c-0.0195313-0.0839844-1.6396484-7.0844727-2.6240234-10.5234375c-0.0175781,1.2944336-0.0898438,2.1298828-0.0908203,2.1411133
			l-0.2060547,2.3286133l-0.2910156-2.3193359c-0.3125-2.4902344-1.3017578-5.4458008-2.9423828-8.7836914l-0.015625-0.0185547
			c-1.2490234,3.0336914-4.9326172,8.2768555-7.9726563,9.965332l-1.46875,0.8154297l1.1674805-1.2080078
			c0.0273438-0.0283203,2.3706055-2.4726563,4.3666992-6.0576172c-3.4638672,3.722168-7.9780273,6.0551758-8.0297852,6.081543
			l-0.5234375,0.2675781l0.1704102-0.5629883c1.0214844-3.3686523,2.3256836-6.5629883,3.8803711-9.5058594
			c-0.9624023,0.3730469-1.9130859,0.715332-2.8374023,1.0483398c-5.387207,1.940918-9.6430664,3.4741211-10.2451172,8.5595703
			l-0.1005859,0.8520508l-0.3725586-0.7729492c0,0-0.0429688-0.0888672-0.1166992-0.2548828
			c-0.5209961,2.1352539-1.9223633,7.4916992-1.9912109,7.7553711l-0.3046875,1.1655273l-0.184082-1.190918
			c-0.0810547-0.5244141-1.9746094-12.878418-1.1894531-16.1689453C17.0947266,5.6889648,24.0166016,4.1069336,26.9501953,3.9189453
			c1.8544922-0.71875,3.6333008-1.0600586,5.0649414-1.3344727c0.6269531-0.1201172,1.1694336-0.2241211,1.6293945-0.3417969
			c1.8837891-0.4814453,3.6386719,0.1738281,5.1396484,1.9130859c3.0917969,0.6489258,8.4169922,3.0839844,10.03125,12.0625
			c0.8232422,3.4619141-1.125,15.796875-1.2080078,16.3203125L47.4052734,33.8046875z M43.9462891,19l0.5195313,1.3037109
			c0.625,1.5703125,2.1845703,8.0766602,2.8417969,10.8696289c0.4853516-3.3222656,1.6689453-12.1176758,1.0185547-14.8530273
			C46.8251953,7.9750977,42.2089844,5.3574219,38.5996094,4.628418l-0.0849609-0.0170898l-0.0556641-0.0664063
			c-1.3876953-1.6396484-2.9716797-2.2592773-4.6914063-1.8178711c-0.4746094,0.121582-1.0229492,0.2265625-1.6586914,0.3486328
			c-1.4204102,0.2724609-3.1884766,0.6113281-5.0136719,1.3232422l-0.0756836,0.0166016
			c-2.7924805,0.1694336-9.4873047,1.6640625-11.3344727,11.8554688c-0.6240234,2.6162109,0.5498047,11.5083008,1.015625,14.7749023
			c0.5620117-2.1582031,1.703125-6.5620117,1.8500977-7.293457l0.1645508-0.8198242l0.3125,0.7758789
			c0.0239258,0.059082,0.046875,0.1162109,0.0693359,0.1704102c1.0014648-4.7275391,5.3925781-6.3095703,10.4335938-8.1259766
			c1.081543-0.3896484,2.199707-0.7924805,3.328125-1.2407227l0.7875977-0.3334961l-0.3408203,0.6245117
			c-1.5917969,2.9106445-2.9316406,6.0820313-3.9882813,9.4355469c1.519043-0.8598633,5.9287109-3.5556641,8.7353516-7.3310547
			l1.4101563-1.8989258l-0.9824219,2.1518555c-1.2421875,2.7197266-2.8623047,5.0078125-4.0117188,6.4584961
			c2.6191406-2.3662109,5.3339844-6.5166016,6.1630859-8.8095703l0.1464844-0.402832l0.2783203,0.3251953
			c0.0683594,0.0791016,0.1337891,0.1611328,0.1992188,0.2431641l0.125,0.1538086
			c1.2392578,2.5117188,2.109375,4.7949219,2.6132813,6.8359375c0.0058594-0.4677734,0.0039063-0.9941406-0.0107422-1.5625
			L43.9462891,19z"/>
	</g>
	<linearGradient id="SVGID_5_" gradientUnits="userSpaceOnUse" x1="44.7966805" y1="6.7490902" x2="44.7966805" y2="16.4860992">
		<stop  offset="0" style="stop-color:#FFFFFF;stop-opacity:0.6"/>
		<stop  offset="1" style="stop-color:#FFFFFF;stop-opacity:0"/>
	</linearGradient>
	<path style="fill:url(#SVGID_5_);" d="M41.9595985,6.7490902c0,0,4.2550011,2.0611095,5.676403,9.737009
		C47.6360016,16.4860992,41.8269005,9.7341499,41.9595985,6.7490902z"/>
	
		<linearGradient id="SVGID_6_" gradientUnits="userSpaceOnUse" x1="38.5007057" y1="6.2467818" x2="38.5007057" y2="15.7983179" gradientTransform="matrix(0.9994 0.0332 -0.0332 0.9994 -1.1817069 -0.8298)">
		<stop  offset="0" style="stop-color:#FFFFFF;stop-opacity:0.6"/>
		<stop  offset="1" style="stop-color:#FFFFFF;stop-opacity:0"/>
	</linearGradient>
	<path style="fill:url(#SVGID_6_);" d="M40.296299,6.7980199c0,0-2.1515007,6.2846799-6.7327003,9.3326797
		C33.5635986,16.1306992,36.229599,7.8719602,40.296299,6.7980199z"/>
	<linearGradient id="SVGID_7_" gradientUnits="userSpaceOnUse" x1="29.0872993" y1="5.9011202" x2="29.0872993" y2="14.5778999">
		<stop  offset="0" style="stop-color:#FFFFFF;stop-opacity:0.6"/>
		<stop  offset="1" style="stop-color:#FFFFFF;stop-opacity:0"/>
	</linearGradient>
	<path style="fill:url(#SVGID_7_);" d="M34.9892998,5.9011202c0,0-5.036499,1.0619698-6.2516003,2.48561
		c-1.2150993,1.4236403-5.5523987,6.1911697-5.5523987,6.1911697S33.5428009,9.8103704,34.9892998,5.9011202z"/>
	<linearGradient id="SVGID_8_" gradientUnits="userSpaceOnUse" x1="19.3210506" y1="6.8628201" x2="19.3210506" y2="16.8749008">
		<stop  offset="0" style="stop-color:#FFFFFF;stop-opacity:0.6"/>
		<stop  offset="1" style="stop-color:#FFFFFF;stop-opacity:0"/>
	</linearGradient>
	<path style="fill:url(#SVGID_8_);" d="M22.3323002,6.8628201c0,0-4.9932995,2.5106902-6.022501,10.0120811
		C16.3097992,16.8749008,22.1541996,10.4720001,22.3323002,6.8628201z"/>
</g>
<path style="fill:#BC816F;" d="M32,36.9600983c-2.5979996,0-3.9944992-0.7037964-3.9944992-0.7037964
	S28.2812996,37.6637993,32,37.6637993s3.9944992-1.4074974,3.9944992-1.4074974S34.5979996,36.9600983,32,36.9600983z"/>
<g>
	<path style="fill:#C9B965;" d="M29.3859997,20.9864998c0,0-0.4709988-0.3094997-1.1973-0.6334991
		c-0.3589993-0.1689014-0.7947998-0.3140011-1.2551003-0.4379005c-0.2350998-0.0510006-0.4745998-0.1012001-0.7227001-0.1245995
		c-0.2447987-0.0498009-0.4995003-0.021101-0.7509003-0.0370007c-0.5056,0.0130005-1.0087986,0.1026001-1.4817982,0.2234993
		c-0.2279015,0.081501-0.460701,0.1407013-0.6797009,0.2075005c-0.2049999,0.092701-0.4092007,0.1693001-0.5976009,0.2445011
		C22.3120003,20.5632,22.0291004,20.7458,21.7966995,20.8341999c-0.2297001,0.0969009-0.360899,0.1522999-0.360899,0.1522999
		s0.0823994-0.1014004,0.2402-0.2735004c0.1690998-0.1602001,0.3711987-0.4365997,0.7229996-0.6672993
		c0.1700001-0.1212006,0.3533993-0.2584,0.5597-0.3899002c0.2234001-0.1086998,0.4570999-0.2346001,0.7119007-0.3446999
		c0.2572994-0.1047001,0.5472984-0.1779995,0.8352985-0.2630997c0.2991009-0.0503006,0.6112003-0.0953999,0.9232998-0.1137009
		c0.3150005,0.0048008,0.6323013,0.0037003,0.9343014,0.0673008c0.3092003,0.033699,0.5921993,0.1317005,0.8627987,0.2231007
		c0.5311012,0.2013988,0.9791012,0.4621983,1.2952003,0.7381992C29.1809998,20.4946995,29.3859997,20.9864998,29.3859997,20.9864998
		z"/>
	<path style="fill:#C9B965;" d="M34.6139984,20.9864998c0,0,0.4710007-0.3094997,1.1973-0.6334991
		c0.3590012-0.1689014,0.7947998-0.3140011,1.2551003-0.4379005c0.2350998-0.0510006,0.4746017-0.1012001,0.722702-0.1245995
		c0.2448006-0.0498009,0.4995003-0.021101,0.7509003-0.0370007c0.5056,0.0130005,1.0088005,0.1026001,1.4818001,0.2234993
		c0.2278976,0.081501,0.4606972,0.1407013,0.6796989,0.2075005c0.2050018,0.092701,0.4091988,0.1693001,0.597599,0.2445011
		c0.3889008,0.1341991,0.6718025,0.3167992,0.9042015,0.4051991c0.2296982,0.0969009,0.3609009,0.1522999,0.3609009,0.1522999
		s-0.0824013-0.1014004-0.2402-0.2735004c-0.1691017-0.1602001-0.3712006-0.4365997-0.7229996-0.6672993
		c-0.170002-0.1212006-0.3534012-0.2584-0.5597-0.3899002c-0.2234001-0.1086998-0.4570999-0.2346001-0.7119026-0.3446999
		c-0.2572975-0.1047001-0.5472984-0.1779995-0.8353004-0.2630997c-0.299099-0.0503006-0.6111984-0.0953999-0.9232979-0.1137009
		c-0.3150024,0.0048008-0.6323013,0.0037003-0.9342995,0.0673008c-0.3092003,0.033699-0.5922012,0.1317005-0.8628006,0.2231007
		c-0.5311012,0.2013988-0.9790993,0.4621983-1.2952003,0.7381992
		C34.8190002,20.4946995,34.6139984,20.9864998,34.6139984,20.9864998z"/>
</g>
<g>
	<g>
		<path style="fill:#FFFFFF;" d="M40.2489014,24.2514992c-0.2168007-0.0720997-2.8776016,0.0109005-3.1063004,0.088501
			c-1.3473015,0.4568005-1.9277992,1.3827-1.9277992,2.1287994c0,0.9796009,0.3798981,1.8936005,1.1928978,2.1651001
			c0.5539017,0.1849995,0.6845016,0.2250996,1.1064987,0.2403011c0.177803,0.0064983,0.4021034,0.0089989,0.7399025,0.0152988
			c0.2367973,0.0044003,0.5014,0.0072002,0.7817993-0.0091991c1.1589012-0.0678997,2.5960007-0.4757004,3.5340996-2.5676003
			C42.5699997,26.3127003,41.8970985,24.7991009,40.2489014,24.2514992z"/>
		<g>
			<g>
				
					<linearGradient id="SVGID_9_" gradientUnits="userSpaceOnUse" x1="38.4218521" y1="28.8061008" x2="38.4218521" y2="23.9612007">
					<stop  offset="0" style="stop-color:#3D72A4"/>
					<stop  offset="0.452675" style="stop-color:#2B5175"/>
				</linearGradient>
				<path style="fill:url(#SVGID_9_);" d="M38.1990013,28.8061008c-0.059803,0-0.1196022-0.0032005-0.1798019-0.0097008
					c-0.5141983-0.0564995-0.9636002-0.3516998-1.2649994-0.8316002c-0.3161011-0.5030994-0.4296989-1.1418991-0.3200989-1.7987995
					c0.2059975-1.2364006,1.1769981-2.2047997,2.2103996-2.2047997c0.0597992,0,0.1195984,0.0031986,0.1797981,0.0096989
					c1.0959015,0.1201,1.8072014,1.3001003,1.5855026,2.6303997C40.2033997,27.8376007,39.232399,28.8061008,38.1990013,28.8061008
					L38.1990013,28.8061008z"/>
				<g>
					<path style="fill:#194066;" d="M40.6445007,26.6271c0.161499-0.9687004-0.1562004-1.8540001-0.7518005-2.3756008
						c-0.3143997-0.1208992-0.668499-0.1962986-1.0679016-0.1962986c-0.6461983,0-1.1758995,0.1113987-1.6182976,0.2847996
						c-0.5032997,0.427599-0.8837013,1.0592995-1.0073013,1.8001995c-0.2083015,1.2483997,0.3694,2.3715,1.328701,2.7340012
						c0.153698,0.0064983,0.3476982,0.0089989,0.639801,0.0152988c0.2047997,0.0044003,0.4335976,0.0072994,0.6760979-0.0091991
						C39.7256012,28.5853996,40.4617996,27.7220001,40.6445007,26.6271z M38.1990013,28.6142006
						c-0.0493011,0-0.099102-0.0027008-0.1480026-0.0081005c-0.4349976-0.0477009-0.8205986-0.3062992-1.0856972-0.7283001
						c-0.2945023-0.4687004-0.3998032-1.0676003-0.2966003-1.6861992c0.1907005-1.1431007,1.0585976-2.0385017,1.9758987-2.0385017
						c0.0493011,0,0.0990982,0.0027008,0.1479988,0.0081005c0.4350014,0.0475998,0.8206024,0.3063011,1.085701,0.7282009
						c0.2944984,0.4687996,0.3998985,1.0676003,0.2966003,1.6861992
						C39.9841995,27.7187004,39.1162987,28.6142006,38.1990013,28.6142006z"/>
				</g>
			</g>
			
				<ellipse transform="matrix(-0.9909557 -0.1341895 0.1341895 -0.9909557 72.9556961 57.6843834)" style="fill:#194066;" cx="38.4217987" cy="26.3836002" rx="0.8502903" ry="1.2310537"/>
		</g>
		<linearGradient id="SVGID_10_" gradientUnits="userSpaceOnUse" x1="36.5881004" y1="26.1700993" x2="36.5881004" y2="24.8348999">
			<stop  offset="0" style="stop-color:#FFFFFF;stop-opacity:0.5"/>
			<stop  offset="0.7" style="stop-color:#FFFFFF"/>
		</linearGradient>
		<ellipse style="fill:url(#SVGID_10_);" cx="36.5881004" cy="25.5025005" rx="0.6383" ry="0.6676"/>
		<linearGradient id="SVGID_11_" gradientUnits="userSpaceOnUse" x1="38.3311005" y1="28.8061008" x2="38.3311005" y2="27.8962002">
			<stop  offset="0" style="stop-color:#FFFFFF;stop-opacity:0.2"/>
			<stop  offset="0.7" style="stop-color:#FFFFFF;stop-opacity:0.7"/>
		</linearGradient>
		<ellipse style="fill:url(#SVGID_11_);" cx="38.3311005" cy="28.3511009" rx="0.435" ry="0.455"/>
		<g>
			<g>
				<path style="fill:#72402D;" d="M41.9595985,27.4447002c0.1766014-0.2691002,0.5040016-0.8120995,0.5040016-1.132
					c0-0.3031006-0.8400002-1.1778011-1.9564018-1.7192001c-0.464798-0.1982002-0.8674965-0.3491001-1.4848976-0.3491001
					c-0.3246002,0-0.6956024,0.0401993-1.1668015,0.1266003c-1.4006996,0.2565994-2.5545998,1.3943996-2.9388008,1.8132
					c0.0946007-0.2888012,0.7627029-2.4717999,4.1865005-2.4717999c2.7532005,0,4.3481026,2.178299,4.4673004,2.2971001
					C43.5704994,26.0095005,42.2542992,27.2548008,41.9595985,27.4447002z"/>
			</g>
			<path style="fill:#72402D;" d="M34.9166985,25.3400993c0,0,3.1245003-4.1984997,8.2773018-0.3685989
				C43.1940002,24.9715004,38.4571991,22.4139004,34.9166985,25.3400993z"/>
		</g>
	</g>
	<g>
		<path style="fill:#FFFFFF;" d="M23.7511005,24.2514992c0.2167988-0.0720997,2.8775997,0.0109005,3.1063004,0.088501
			c1.3472996,0.4568005,1.9277992,1.3827,1.9277992,2.1287994c0,0.9796009-0.3799,1.8936005-1.1928997,2.1651001
			c-0.5538998,0.1849995-0.6844997,0.2250996-1.1065006,0.2403011c-0.1777992,0.0064983-0.4020996,0.0089989-0.7399006,0.0152988
			c-0.2367992,0.0044003-0.5014,0.0072002-0.7817993-0.0091991c-1.1588993-0.0678997-2.5960007-0.4757004-3.5340996-2.5676003
			C21.4300003,26.3127003,22.1028996,24.7991009,23.7511005,24.2514992z"/>
		<g>
			<g>
				
					<linearGradient id="SVGID_12_" gradientUnits="userSpaceOnUse" x1="38.4218521" y1="28.8061008" x2="38.4218521" y2="23.9612007" gradientTransform="matrix(-1 0 0 1 64 0)">
					<stop  offset="0" style="stop-color:#3D72A4"/>
					<stop  offset="0.452675" style="stop-color:#2B5175"/>
				</linearGradient>
				<path style="fill:url(#SVGID_12_);" d="M25.8010006,28.8061008c0.0597992,0,0.1196003-0.0032005,0.1798-0.0097008
					c0.5142002-0.0564995,0.9636002-0.3516998,1.2649994-0.8316002c0.3160992-0.5030994,0.4297009-1.1418991,0.3201008-1.7987995
					c-0.2060013-1.2364006-1.177-2.2047997-2.2104015-2.2047997c-0.0597992,0-0.1195984,0.0031986-0.1798,0.0096989
					c-1.0958996,0.1201-1.8071995,1.3001003-1.5854988,2.6303997
					C23.7966003,27.8376007,24.7675991,28.8061008,25.8010006,28.8061008L25.8010006,28.8061008z"/>
				<g>
					<path style="fill:#194066;" d="M25.1562004,28.8803005c0.2425003,0.0164986,0.4713001,0.0135994,0.6760998,0.0091991
						c0.292099-0.0063,0.4860992-0.0088005,0.6397991-0.0152988c0.959301-0.3625011,1.5370007-1.4856014,1.328701-2.7340012
						c-0.1236-0.7409-0.5039997-1.3726006-1.0072994-1.8001995c-0.4424-0.1734009-0.9721012-0.2847996-1.6183014-0.2847996
						c-0.3993988,0-0.7535,0.0753994-1.0678997,0.1962986c-0.5956001,0.5216007-0.9132996,1.4069004-0.7518005,2.3756008
						C23.5382004,27.7220001,24.2744007,28.5853996,25.1562004,28.8803005z M23.8250999,26.5755997
						c-0.1033001-0.6185989,0.0021-1.2173996,0.2966003-1.6861992c0.2651005-0.4218998,0.6506996-0.6806011,1.0856991-0.7282009
						c0.0489006-0.0053997,0.0987015-0.0081005,0.1480007-0.0081005c0.9172993,0,1.7852001,0.895401,1.9759007,2.0385017
						c0.103199,0.6185989-0.0021,1.2174988-0.2966003,1.6861992c-0.2651005,0.4220009-0.6506996,0.6805992-1.085701,0.7283001
						c-0.0488987,0.0053997-0.0986996,0.0081005-0.1479988,0.0081005
						C24.8836994,28.6142006,24.0158005,27.7187004,23.8250999,26.5755997z"/>
				</g>
			</g>
			
				<ellipse transform="matrix(0.9909557 -0.1341895 0.1341895 0.9909557 -3.3090641 3.6709461)" style="fill:#194066;" cx="25.5781994" cy="26.3836002" rx="0.8502903" ry="1.2310537"/>
		</g>
		
			<linearGradient id="SVGID_13_" gradientUnits="userSpaceOnUse" x1="38.0486488" y1="26.1700993" x2="38.0486488" y2="24.8348999" gradientTransform="matrix(1 0 0 1 -14.1226997 0)">
			<stop  offset="0" style="stop-color:#FFFFFF;stop-opacity:0.5"/>
			<stop  offset="0.7" style="stop-color:#FFFFFF"/>
		</linearGradient>
		<ellipse style="fill:url(#SVGID_13_);" cx="23.9259491" cy="25.5025005" rx="0.63825" ry="0.6676"/>
		
			<linearGradient id="SVGID_14_" gradientUnits="userSpaceOnUse" x1="39.7915993" y1="28.8061008" x2="39.7915993" y2="27.8962002" gradientTransform="matrix(1 0 0 1 -14.1226997 0)">
			<stop  offset="0" style="stop-color:#FFFFFF;stop-opacity:0.2"/>
			<stop  offset="0.7" style="stop-color:#FFFFFF;stop-opacity:0.7"/>
		</linearGradient>
		<ellipse style="fill:url(#SVGID_14_);" cx="25.6688995" cy="28.3511009" rx="0.435" ry="0.455"/>
		<g>
			<g>
				<path style="fill:#72402D;" d="M22.0403996,27.4447002c-0.1765995-0.2691002-0.5039997-0.8120995-0.5039997-1.132
					c0-0.3031006,0.8400002-1.1778011,1.9563999-1.7192001c0.4647999-0.1982002,0.8675003-0.3491001,1.4848995-0.3491001
					c0.3246002,0,0.6956005,0.0401993,1.1668015,0.1266003c1.4006996,0.2565994,2.5545998,1.3943996,2.9387989,1.8132
					c-0.0945988-0.2888012-0.7626991-2.4717999-4.1865005-2.4717999c-2.7531986,0-4.3480988,2.178299-4.4672985,2.2971001
					C20.4295006,26.0095005,21.7457008,27.2548008,22.0403996,27.4447002z"/>
			</g>
			<path style="fill:#72402D;" d="M29.0832996,25.3400993c0,0-3.1245003-4.1984997-8.2772999-0.3685989
				C20.8059998,24.9715004,25.5428009,22.4139004,29.0832996,25.3400993z"/>
		</g>
	</g>
</g>
<g>
	<g>
		<g>
			<path style="fill:#FFE6D9;" d="M47.34375,41.4771461c-0.4141769,0.0613708-0.7087517,0.4242897-0.6803207,0.0065536
				c0.0990829-1.4558754,0.6456604-2.848568,3.8103333-3.131752C52.9170074,38.133316,55.53125,36.71875,56.21875,37.84375
				C56.9499092,39.0401917,54.5,39.6930161,54.5,39.6930161L47.34375,41.4771461z"/>
			<path style="fill:#BC816F;" d="M46.7460938,41.9316406h-0.1083984l-0.1279297-0.1005859
				c-0.0996094-0.1064453-0.1035156-0.2509766-0.0957031-0.3642578c0.1015625-1.4941406,0.6611328-3.0625,4.0371094-3.3642578
				c0.8623047-0.0771484,1.7714844-0.3125,2.5742188-0.5214844c0.8271484-0.2138672,1.6083984-0.4169922,2.2158203-0.4169922
				c0.5751953,0,0.9648438,0.1796875,1.1904297,0.5498047c0.1875,0.3056641,0.2236328,0.625,0.1035156,0.9228516
				c-0.3359375,0.8408203-1.8046875,1.2539063-1.9707031,1.2978516l-7.1601563,1.7851563
				c-0.1386719,0.0214844-0.25,0.0732422-0.3486328,0.1181641C46.9453125,41.8876953,46.8505859,41.9316406,46.7460938,41.9316406z
				 M55.2412109,37.6640625c-0.5439453,0-1.2949219,0.1953125-2.0898438,0.4013672
				c-0.8212891,0.2128906-1.7529297,0.4550781-2.6552734,0.5351563c-3.0166016,0.2695313-3.4648438,1.5361328-3.5712891,2.7480469
				c0.1054688-0.046875,0.2363281-0.0966797,0.3828125-0.1181641l7.1318359-1.7792969
				c0.3808594-0.1025391,1.4257813-0.4833984,1.6318359-1.0009766c0.0605469-0.1513672,0.0400391-0.3027344-0.0654297-0.4755859
				C55.9238281,37.8408203,55.7568359,37.6640625,55.2412109,37.6640625z"/>
		</g>
		<g>
			<path style="fill:#FFE6D9;" d="M63.119175,37.2034416c0.8381004,0.9150009-0.4350739,1.6476974-1.1909752,2.8839989
				c-1.044899,1.7089996-4.7338982,2.0817986-4.7338982,2.0817986l-3.9409103,0.6769753L49.6897469,62.625L46.7556,43.1093407
				c0,0-1.2080612-2.0872993,1.9221382-3.2160988s8.3182602-0.5167999,8.3182602-0.5167999s1.9262009-0.3036995,2.8492012-0.6985016
				C60.7960014,38.2712402,62.5320778,36.562439,63.119175,37.2034416z"/>
			<path style="fill:#BC816F;" d="M49.6669922,64.1582031l-3.1523438-20.9697266
				c-0.0947266-0.1865234-0.4111328-0.9101563-0.1132813-1.7265625c0.2822266-0.7744141,1.0195313-1.3808594,2.1914063-1.8037109
				c1.2832031-0.4628906,3.0380859-0.6972656,5.2138672-0.6972656c1.625,0,2.9521484,0.1376953,3.1835938,0.1630859
				c0.2558594-0.0419922,1.9375-0.3261719,2.7558594-0.6757813c0.2900391-0.1240234,0.6728516-0.3886719,1.0791016-0.6689453
				c0.6904297-0.4755859,1.4042969-0.96875,1.9453125-0.96875c0.2148438,0,0.3994141,0.078125,0.5332031,0.2236328
				c0.7402344,0.8085938,0.1337891,1.5371094-0.453125,2.2412109c-0.2451172,0.2929688-0.4980469,0.5966797-0.7099609,0.9433594
				c-1.0966797,1.7939453-4.765625,2.1835938-4.9208984,2.1992188l-3.7519531,0.6455078L49.6669922,64.1582031z
				 M53.8066406,39.4609375c-2.0878906,0-3.8320313,0.2304688-5.0439453,0.6679688
				c-1.0224609,0.3681641-1.6582031,0.8730469-1.8896484,1.4990234c-0.2617188,0.7070313,0.0957031,1.3505859,0.0996094,1.3574219
				l0.0302734,0.0869141l2.7089844,18.0195313l3.3261719-18.4619141l4.1142578-0.7070313
				c0.0527344-0.0058594,3.5947266-0.3828125,4.5625-1.9658203c0.2304688-0.3769531,0.5068359-0.7089844,0.7509766-1.0019531
				c0.6777344-0.8125,0.8779297-1.1367188,0.46875-1.5830078c-0.0273438-0.0302734-0.0683594-0.0615234-0.1640625-0.0615234
				c-0.3857422,0-1.0634766,0.4677734-1.6611328,0.8808594c-0.4277344,0.2949219-0.8310547,0.5732422-1.1660156,0.7158203
				c-0.9414063,0.4023438-2.828125,0.703125-2.9082031,0.7158203l-0.0341797,0.0048828l-0.0341797-0.0039063
				C56.953125,39.6230469,55.5566406,39.4609375,53.8066406,39.4609375z"/>
		</g>
	</g>
</g>
<g>
	<g>
		<g>
			<linearGradient id="SVGID_15_" gradientUnits="userSpaceOnUse" x1="32" y1="47.5213509" x2="32" y2="65.365097">
				<stop  offset="0" style="stop-color:#7D7D7D"/>
				<stop  offset="1" style="stop-color:#2B2B2B"/>
			</linearGradient>
			<path style="fill:url(#SVGID_15_);" d="M52.0998993,56.4868011c0-6.686203-6.5005989-7.3832016-11.8777008-8.9569016
				c-0.0924988-0.0270004-0.1867981,0.0111008-0.2285995,0.0979996C39.5891991,48.4690018,37.3054008,52.6666985,32,52.6666985
				s-7.5891991-4.1976967-7.9936008-5.0387993c-0.0417995-0.0868988-0.1360989-0.125-0.2285995-0.0979996
				c-5.3771,1.5737-11.8776999,2.2706985-11.8776999,8.9569016l-0.125,8.8782959h40.4497986L52.0998993,56.4868011z"/>
			<path d="M52.4785156,65.6152344H11.5214844l0.128418-9.1328125c0-5.9912109,5.0288086-7.3173828,9.8920898-8.6005859
				c0.7294922-0.1923828,1.4575195-0.3847656,2.1655273-0.5917969l0.1293945-0.0185547
				c0.1704102,0,0.3217773,0.0957031,0.3950195,0.2490234C24.625,48.3378906,26.8476563,52.4169922,32,52.4169922
				s7.375-4.0791016,7.7675781-4.8974609c0.0742188-0.1533203,0.2255859-0.2480469,0.3955078-0.2480469l0.1298828,0.0185547
				c0.7080078,0.2070313,1.4355469,0.3994141,2.1650391,0.5917969c4.8632813,1.2832031,9.8916016,2.609375,9.8916016,8.6044922
				L52.4785156,65.6152344z M12.0283203,65.1152344h39.9423828l-0.1210938-8.625c0-5.6142578-4.6240234-6.8339844-9.5185547-8.125
				c-0.7197266-0.1894531-1.4365234-0.3789063-2.1347656-0.5820313C39.7226563,48.7441406,37.3603516,52.9169922,32,52.9169922
				c-5.3623047,0-7.7250977-4.1748047-8.1967773-5.1357422c-0.6914063,0.2041016-1.4116211,0.3935547-2.1337891,0.5839844
				c-4.8955078,1.2919922-9.5195313,2.5117188-9.5195313,8.1210938L12.0283203,65.1152344z"/>
		</g>
		<path d="M32,54.6669922c-7.5927734,0-9.8598633-6.5566406-9.8818359-6.6230469l0.4746094-0.1582031
			c0.0854492,0.2568359,2.1826172,6.28125,9.4072266,6.28125s9.3212891-6.0244141,9.4072266-6.28125l0.4746094,0.1582031
			C41.859375,48.1103516,39.5927734,54.6669922,32,54.6669922z"/>
	</g>
	<g>
		<g>
			
				<linearGradient id="SVGID_16_" gradientUnits="userSpaceOnUse" x1="56.3498955" y1="53.4461899" x2="53.8817673" y2="55.6667938" gradientTransform="matrix(0.7456 -0.7049 0.7432 0.7093 -31.8675003 45.4087982)">
				<stop  offset="0" style="stop-color:#7D7D7D"/>
				<stop  offset="1" style="stop-color:#2B2B2B"/>
			</linearGradient>
			<path style="fill:url(#SVGID_16_);" d="M45.6060982,46.6957397c0.1840019-1.0318985,0.5022011-2.667408,0.8169022-2.9874077
				c0.6908989-0.7025986,0.7419891,0.628582,4.0698814,0.628582c2.5904503,0,3.1054688-0.905983,3.2493172-0.3772812
				c0.0599022,0.2208023,0.0123024,1.8130074,0.0273018,2.8372078L45.6060982,46.6957397z"/>
			<path d="M54.0234375,47.0498047l-8.7148438-0.1083984l0.0517578-0.2900391
				c0.4277344-2.4013672,0.6972656-2.9277344,0.8837891-3.1181641c0.1181641-0.1201172,0.3056641-0.2792969,0.5634766-0.2792969
				c0.1982422,0,0.3798828,0.0888672,0.6103516,0.2021484c0.4794922,0.2363281,1.2822266,0.6308594,3.0751953,0.6308594
				c1.3964844,0,2.1533203-0.265625,2.6054688-0.4238281c0.2050781-0.0712891,0.3398438-0.1191406,0.4697266-0.1191406
				c0.1191406,0,0.3320313,0.0458984,0.4150391,0.3505859c0.0419922,0.15625,0.0439453,0.5917969,0.0371094,1.6230469
				c-0.0029297,0.4375-0.0068359,0.8955078-0.0009766,1.2753906L54.0234375,47.0498047z M45.9052734,46.4492188l7.6123047,0.0947266
				c-0.0019531-0.3242188,0-0.6835938,0.0029297-1.0292969c0.0029297-0.5683594,0.0078125-1.2666016-0.0146484-1.4589844
				c-0.0634766,0.0166016-0.15625,0.0498047-0.2412109,0.0791016c-0.4511719,0.1582031-1.2890625,0.4521484-2.7714844,0.4521484
				c-1.9091797,0-2.7773438-0.4267578-3.2958984-0.6816406c-0.171875-0.0849609-0.3076172-0.1513672-0.3896484-0.1513672
				c-0.0234375,0-0.0791016,0-0.2070313,0.1298828C46.5166016,43.96875,46.2851563,44.3925781,45.9052734,46.4492188z"/>
		</g>
		<g>
			
				<linearGradient id="SVGID_17_" gradientUnits="userSpaceOnUse" x1="55.708889" y1="55.1694756" x2="32.3123055" y2="76.2196655" gradientTransform="matrix(0.7087 -0.7054 0.7054 0.7087 -29.0261993 45.2333984)">
				<stop  offset="0" style="stop-color:#7D7D7D"/>
				<stop  offset="1" style="stop-color:#2B2B2B"/>
			</linearGradient>
			<path style="fill:url(#SVGID_17_);" d="M42.6097984,67.533844c0.7980003-4.4509048,1.7680016-20.6953049,3.2993011-22.334404
				c0.7091522-0.7591248,0.5763016,0.7588921,4.1081772,0.7588921c3.0660553,0,3.825367-1.1336708,3.9958229-0.4720917
				c0.3176003,1.232399-0.0704994,20.8878975-0.4439011,23.9836006c-0.235199,1.9496994-0.9707985,5.0539017-4.676899,6.6875
				S41.7700996,72.2174377,42.6097984,67.533844z"/>
			<path d="M47.5595703,76.6982422c-1.1640625,0-2.3320313-0.6289063-3.2880859-1.7714844
				c-1.5966797-1.9072266-2.3632813-4.8964844-1.9082031-7.4365234c0.265625-1.4804688,0.546875-4.234375,0.8710938-7.4228516
				c0.8027344-7.8681641,1.4951172-13.9716797,2.4921875-15.0390625c0.1269531-0.1357422,0.3037109-0.2919922,0.5429688-0.2919922
				c0.1953125,0,0.359375,0.1005859,0.5673828,0.2265625c0.4580078,0.2783203,1.2255859,0.7451172,3.1806641,0.7451172
				c1.6367188,0,2.5917969-0.3291016,3.1621094-0.5253906c0.2695313-0.0927734,0.4472656-0.1542969,0.6074219-0.1542969
				c0.1367188,0,0.3798828,0.0517578,0.4677734,0.3955078c0.3554688,1.375-0.0966797,21.2519531-0.4375,24.0761719
				c-0.1494141,1.2431641-0.6064453,5.0263672-4.8242188,6.8857422
				C48.5234375,76.5927734,48.0410156,76.6982422,47.5595703,76.6982422z M46.2695313,45.2363281
				c-0.015625,0-0.0654297,0.0136719-0.1777344,0.1337891c-0.9609375,1.0292969-1.7695313,8.9580078-2.359375,14.7480469
				c-0.3261719,3.1982422-0.6083984,5.9609375-0.8769531,7.4599609c-0.4306641,2.4033203,0.2929688,5.2275391,1.7998047,7.0283203
				c1.2089844,1.4433594,2.7314453,1.9414063,4.1367188,1.3222656c3.546875-1.5634766,4.2832031-4.4521484,4.5292969-6.4892578
				c0.3740234-3.1035156,0.7431641-22.7519531,0.4492188-23.890625c-0.0585938-0.0214844-0.2314453,0.0390625-0.4277344,0.1064453
				c-0.6005859,0.2070313-1.6044922,0.5527344-3.3251953,0.5527344c-2.0947266,0-2.9697266-0.5322266-3.4404297-0.8173828
				C46.4472656,45.3115234,46.3251953,45.2363281,46.2695313,45.2363281z"/>
		</g>
	</g>
</g>
</svg>
