<?xml version="1.0" encoding="iso-8859-1"?>
<!-- Generator: Adobe Illustrator 16.0.0, SVG Export Plug-In . SVG Version: 6.00 Build 0)  -->
<!DOCTYPE svg PUBLIC "-//W3C//DTD SVG 1.1//EN" "http://www.w3.org/Graphics/SVG/1.1/DTD/svg11.dtd">
<svg version="1.1" xmlns="http://www.w3.org/2000/svg" xmlns:xlink="http://www.w3.org/1999/xlink" x="0px" y="0px" width="64px"
	 height="64px" viewBox="0 0 64 64" style="enable-background:new 0 0 64 64;" xml:space="preserve">
<g id="person_x5F_climbing_x28_ye_x29_">
	<g id="person_x5F_climbing_x28_blk_x29__2_">
		
			<radialGradient id="path9_1_" cx="445.8369" cy="-156.3276" r="15.3462" gradientTransform="matrix(0.8955 0.445 0.445 -0.8955 -288.3721 -315.6292)" gradientUnits="userSpaceOnUse">
			<stop  offset="0" style="stop-color:#FF85B8"/>
			<stop  offset="0.5054" style="stop-color:#FF5B5B"/>
			<stop  offset="1" style="stop-color:#E1233C"/>
		</radialGradient>
		
			<path id="path9_11_" style="fill:url(#path9_1_);stroke:#231815;stroke-width:2;stroke-linecap:round;stroke-linejoin:round;stroke-miterlimit:10;" d="
			M39.893,26.477c0.105,0.229,2.021,4.422,1.67,7.684c-0.096,0.271-0.182,0.556-0.246,0.876c-0.293,1.458-0.195,2.587,0.108,3.475
			l-0.004,0.014c0,0,0.007,0,0.009,0c0.975,2.813,4.118,3.103,4.118,3.103c-1.456-2.235,1.034-4.216,2.386-5.071
			c0.232-0.133,0.463-0.258,0.696-0.408c0.05-0.024,0.085-0.043,0.085-0.043c0.004-0.008,0.006-0.016,0.012-0.021
			c2.205-1.432,4.98-3.57,6.688-7.176c3.468-7.313-0.396-16.443-7.771-20.108c-1.976-0.981-4.06-1.479-6.121-1.557
			c0-0.002-0.002-0.003-0.002-0.003c-0.02-0.001-0.037-0.001-0.057-0.001c-0.22-0.008-0.438-0.008-0.658-0.006
			c-0.174,0.002-0.348,0.007-0.521,0.014c-0.188,0.009-0.379,0.016-0.568,0.031c-0.295,0.022-0.588,0.056-0.88,0.096
			c-0.135,0.02-0.27,0.041-0.402,0.063c-0.305,0.051-0.604,0.111-0.904,0.181c-0.049,0.011-0.1,0.017-0.148,0.029
			c-0.056,0.013-0.109,0.03-0.164,0.045c-0.027,0.007-0.056,0.018-0.082,0.024c-2.027,0.529-3.93,1.48-5.563,2.811
			c-0.001,0.001-0.002,0.002-0.003,0.002l0,0c-1.163,0.947-2.194,2.08-3.033,3.393c1.411,2.503,4.299,6.051,10.117,8.942
			c0,0,0.066,2.981-0.127,4.103L39.893,26.477z"/>
		<g id="g195_2_">
			<g>
				<path id="path17_12_" style="fill:#231815;stroke:#231815;stroke-width:2;stroke-miterlimit:10;" d="M32.224,47.448
					c-1.655-2.125-6.373-3.106-9.636-2.248c-3.266,0.858-3.397,2.313-1.606,2.749c1.795,0.429,3.551,0.228,6.136,3.166
					C29.699,54.057,33.393,48.945,32.224,47.448z"/>
			</g>
			<g>
				<path id="path19_11_" style="fill:#231815;stroke:#231815;stroke-width:2;stroke-miterlimit:10;" d="M19.093,43.719
					c1.147-0.188,2.231,0.592,2.422,1.737c0.188,1.146-0.591,2.231-1.735,2.42L19.093,43.719z"/>
			</g>
			<g>
				<path id="path21_37_" style="fill:#3E3A39;" d="M32.224,47.448c-1.655-2.125-6.373-3.106-9.636-2.248
					c-3.266,0.858-3.397,2.313-1.606,2.749c1.795,0.429,3.551,0.228,6.136,3.166C29.699,54.057,33.393,48.945,32.224,47.448z"/>
			</g>
			<g>
				<path id="path23_34_" style="fill:#9C9C9D;" d="M19.093,43.719c1.147-0.188,2.231,0.592,2.422,1.737
					c0.188,1.146-0.591,2.231-1.735,2.42L19.093,43.719z"/>
			</g>
			<g>
				<path id="path21_36_" style="fill:#5A5858;" d="M0,64h22.2c0.4-4.1,0.5-8,0.1-10.7c-0.7-4.7-0.8-9.7-0.9-13.8
					c-0.2-6.3-0.2-8.2-2.2-8.2c-0.2,0-0.6,0.1-0.8,0.2c-0.6,0.3-2.8,1.1-4.8,1.8C12.9,26.5,11.5,7.1,11,0H0V64z"/>
				<path id="path23_33_" style="fill:#868686;" d="M0,64h20.7c0.4-4.1,0.6-7.8,0.2-10.5c-1.4-9.7-0.5-21.3-1.8-20.6
					c-1.2,0.6-6.8,2.5-6.8,2.5C11.8,31.2,10.1,7.8,9.5,0H0V64z"/>
				<path id="path25_16_" style="fill:#A7C2CA;" d="M8.8,17.7C8.7,26.5,9.7,50,10.3,55c0.3,2.8,1.3-9.6,1.8-20.7
					C11.5,28,10,7.3,9.5,0H9C8.5,4.8,8.8,12.7,8.8,17.7z"/>
				<path id="path27_21_" style="fill:#A7C2CA;" d="M19.7,34.7C19,43,17.9,58,18,60.2c0,0.8,0.3,2.2,0.8,3.8h1.9
					c0.4-4.1,0.6-7.8,0.2-10.5C19.8,46.3,20,38.2,19.7,34.7z"/>
				<path id="path29_23_" style="fill:#8C9394;" d="M11.3,56.9c-0.4,2-0.4,4.399-0.5,7.1h5.4c-0.4-2.1-0.7-3.9-0.9-4.8
					C14.4,56.1,12.5,50.4,11.3,56.9z"/>
				<path id="path31_18_" style="fill:#8C9394;" d="M6.2,50.3C6,47,5.9,42,3.5,48.2C2.2,51.5,1.4,53.6,0,56.5V64h6.1
					c0-0.4,0-0.8,0-1.2C6.1,58.2,6.4,53.6,6.2,50.3z"/>
				<path id="path33_19_" style="fill:#8C9394;" d="M4.1,15.3c-0.5,3.7,0.4,11,0.4,11s3.4-5.5,1.7-18.7C6.2,7.6,4.6,11.6,4.1,15.3z"
					/>
			</g>
			<g>
				<path id="path92_2_" style="fill:#231815;stroke:#231815;stroke-width:2;stroke-miterlimit:10;" d="M29.984,37.518
					c-0.919-0.051-3.182-0.391-5.358-1.815c-2.175-1.427-2.735-3.157-3.743-3.372c-1.009-0.215-0.913,1.074-0.098,2.005
					c0.782,0.892,0.131,1.033,0.322,2.033c0.104,0.539,0.958,1.17,2.057,1.596c1.184,0.459,5.012,2.502,7.89,1.519
					C32.001,39.158,31.822,37.62,29.984,37.518z"/>
			</g>
			<g>
				<g id="g186_6_">
					<path id="path34-7-5_340_" style="fill:none;stroke:#231815;stroke-width:2;stroke-miterlimit:10;" d="M33.543,40.182
						c0.012-0.496,0.027-1.871-0.264-2.175c-0.289-0.302-0.592-0.512-0.592-0.512c-0.691-0.455-1.438-0.538-2.213-0.245
						c0,0-0.182,0.104-0.588,0.521c-0.293,0.301-0.588,1.381-0.834,1.914c0,0-1.031,3.771-2.355,7.621c0,0,1.177,1.764,3.563,2.027
						c2.383,0.264,3.918-1.202,3.918-1.202C33.725,44.088,33.543,40.182,33.543,40.182z"/>
					
						<ellipse id="ellipse95_3_" transform="matrix(0.1097 -0.994 0.994 0.1097 -22.0026 74.4226)" style="fill:none;stroke:#231815;stroke-width:2;stroke-miterlimit:10;" cx="30.542" cy="49.493" rx="3.375" ry="3.618"/>
					<path id="path97_10_" style="fill:none;stroke:#231815;stroke-width:2;stroke-miterlimit:10;" d="M30.761,46.547
						c-2.684-0.206-6.588,2.622-8.151,5.613c-1.565,2.988-0.578,4.07,0.951,3.033c1.528-1.032,2.561-2.469,6.473-2.397
						C33.943,52.865,32.656,46.691,30.761,46.547z"/>
					<path id="path99_8_" style="fill:none;stroke:#231815;stroke-width:2;stroke-miterlimit:10;" d="M19.514,53.236
						c0.753-0.883,2.085-0.992,2.97-0.24c0.888,0.754,0.995,2.084,0.242,2.971L19.514,53.236z"/>
					<path id="path34-7-5_339_" style="fill:none;stroke:#231815;stroke-width:2;stroke-miterlimit:10;" d="M33.543,40.182
						c-0.025-0.541-0.011-1.986-0.303-2.289c-0.289-0.302-0.553-0.396-0.553-0.396c-0.691-0.455-1.391,0.136-2.166,0.43
						c0,0-0.182,0.104-0.588,0.521c-0.294,0.301-0.624,0.582-0.883,1.24c0,0-1.031,3.771-2.355,7.621c0,0,1.231,1.27,3.618,1.532
						c2.381,0.265,3.863-0.707,3.863-0.707C33.725,44.088,33.543,40.182,33.543,40.182z"/>
					<g id="g143_9_">
						<g id="g141_4_">
							<g id="g139_7_">
								<path id="path102_12_" style="fill:#F09400;stroke:#231815;stroke-width:1.5423;stroke-miterlimit:10;" d="M55.576,29.108
									c-3.777,7.6-13.559,10.416-21.293,6.569c-7.736-3.846-10.947-13.118-7.169-20.717c3.778-7.601,13.113-10.646,20.849-6.8
									C55.698,12.006,59.354,21.508,55.576,29.108z"/>
								<path id="path104_5_" style="fill:#231815;stroke:#231815;stroke-miterlimit:10;" d="M54.926,28.785
									c-3.603,7.247-12.949,9.92-20.324,6.254c-7.376-3.667-10.439-12.51-6.836-19.756C31.367,8.035,40.27,5.132,47.646,8.8
									C55.02,12.466,58.529,21.538,54.926,28.785z"/>
								<path id="path106_4_" style="fill:#231815;stroke:#231815;stroke-width:2.7816;stroke-miterlimit:10;" d="M47.419,31.529
									c-3.058,6.148-9.546,7.081-15.63,4.415c-8.367-3.665-8.973-8.978-5.916-15.125c3.058-6.152,10.363-8.744,16.313-5.787
									C48.131,17.987,50.477,25.376,47.419,31.529z"/>
								
									<radialGradient id="path34-7-5_1_" cx="589.2764" cy="-299.3384" r="33.8449" gradientTransform="matrix(0.5981 0.0661 0.1098 -0.994 -287.4313 -304.5879)" gradientUnits="userSpaceOnUse">
									<stop  offset="0" style="stop-color:#C35B22"/>
									<stop  offset="1" style="stop-color:#45220E"/>
								</radialGradient>
								<path id="path34-7-5_338_" style="fill:url(#path34-7-5_1_);" d="M33.543,40.182c0.012-0.496,0.027-1.871-0.264-2.175
									c-0.289-0.302-0.592-0.512-0.592-0.512c-0.691-0.455-1.438-0.538-2.213-0.245c0,0-0.182,0.104-0.588,0.521
									c-0.293,0.301-0.588,1.381-0.834,1.914c0,0-1.031,3.771-2.355,7.621c0,0,1.177,1.764,3.563,2.027
									c2.383,0.264,3.918-1.202,3.918-1.202C33.725,44.088,33.543,40.182,33.543,40.182z"/>
								
									<radialGradient id="polygon119_1_" cx="343.7129" cy="-307.4463" r="4.0017" gradientTransform="matrix(0.994 0.1098 0.1098 -0.994 -276.4819 -303.7641)" gradientUnits="userSpaceOnUse">
									<stop  offset="0" style="stop-color:#FFF89F"/>
									<stop  offset="1" style="stop-color:#F15F57"/>
								</radialGradient>
								<polygon id="polygon119_2_" style="fill:url(#polygon119_1_);" points="32.568,38.42 30.454,38.188 30.795,35.1 
									32.91,35.334 								"/>
								
									<ellipse id="ellipse121_12_" transform="matrix(0.1097 -0.994 0.994 0.1097 -22.0026 74.4226)" style="fill:#3E3A39;" cx="30.542" cy="49.493" rx="3.375" ry="3.618"/>
								<path id="path123_18_" style="fill:#3E3A39;" d="M30.761,46.547c-2.684-0.206-6.588,2.622-8.151,5.613
									c-1.565,2.988-0.578,4.07,0.951,3.033c1.528-1.032,2.561-2.469,6.473-2.397C33.943,52.865,32.656,46.691,30.761,46.547z"/>
								<path id="path125_23_" style="fill:#9C9C9D;" d="M19.514,53.236c0.753-0.883,2.085-0.992,2.97-0.24
									c0.888,0.754,0.995,2.084,0.242,2.971L19.514,53.236z"/>
								<path id="path86_8_" style="fill:#24A84A;" d="M30.6,48.6c2.6,3.4,2.4,9,0.6,15.4h1c1.7-6.6,1.899-12.4-0.9-16L30.6,48.6z"
									/>
								<path id="path34-7-5_337_" style="fill:#0066CF;" d="M33.543,40.182c-0.025-0.541-0.011-1.986-0.303-2.289
									c-0.289-0.302-0.553-0.396-0.553-0.396c-0.753-0.063-1.391,0.136-2.166,0.43c0,0-0.182,0.104-0.588,0.521
									c-0.294,0.301-0.624,0.582-0.883,1.24c0,0-1.031,3.771-2.355,7.621c0,0,1.231,1.27,3.618,1.532
									c2.381,0.265,3.863-0.707,3.863-0.707C33.725,44.088,33.543,40.182,33.543,40.182z"/>
								
									<radialGradient id="path135_1_" cx="438.5723" cy="-165.0645" r="22.0377" gradientTransform="matrix(0.8955 0.4451 0.4451 -0.8955 -282.2835 -317.5364)" gradientUnits="userSpaceOnUse">
									<stop  offset="0" style="stop-color:#FFF89F"/>
									<stop  offset="1" style="stop-color:#F15F57"/>
								</radialGradient>
								<path id="path135_5_" style="fill:url(#path135_1_);" d="M47.419,31.529c-3.058,6.148-9.683,7.372-15.63,4.415
									c-5.949-2.957-10.116-6.675-5.916-15.125c3.058-6.152,10.363-8.744,16.313-5.787C48.131,17.987,50.477,25.376,47.419,31.529
									z"/>
								
									<path id="path137_6_" style="fill:none;stroke:#A4414A;stroke-width:0.8345;stroke-linecap:round;stroke-linejoin:round;stroke-miterlimit:10;" d="
									M34.973,18.208c0,0-0.457-2.582-3.274-1.629"/>
							</g>
						</g>
					</g>
					<g id="g213_203_">
						
							<linearGradient id="path156_1_" gradientUnits="userSpaceOnUse" x1="557.3027" y1="237.8379" x2="561.1348" y2="237.8379" gradientTransform="matrix(0.8955 0.4451 -0.4451 0.8955 -362.7966 -434.4466)">
							<stop  offset="0" style="stop-color:#F26D6D"/>
							<stop  offset="0.1557" style="stop-color:#F35E70"/>
							<stop  offset="0.4859" style="stop-color:#F44275"/>
							<stop  offset="0.7781" style="stop-color:#F53278"/>
							<stop  offset="1" style="stop-color:#F52C79"/>
						</linearGradient>
						<path id="path156_12_" style="fill:url(#path156_1_);" d="M33.838,28.297c0.273-0.549-0.273-1.378-1.221-1.848
							c-0.947-0.472-1.938-0.407-2.21,0.143c-0.273,0.549,0.273,1.378,1.22,1.85C32.574,28.912,33.564,28.848,33.838,28.297z"/>
					</g>
					<g id="g213_202_">
						<path id="path209_150_" style="fill:#160201;" d="M32.044,24.289c-0.758,1.525-2.156,2.375-3.118,1.896
							c-0.966-0.48-1.13-2.105-0.372-3.632c0.763-1.533,2.16-2.386,3.125-1.907C32.643,21.125,32.807,22.755,32.044,24.289z"/>
						<path id="path211_126_" style="fill:#FFFFFF;" d="M32.208,22.586c-0.206,0.413-0.705,0.58-1.121,0.373
							c-0.413-0.205-0.582-0.704-0.376-1.117c0.205-0.414,0.706-0.584,1.118-0.379C32.246,21.67,32.413,22.172,32.208,22.586z"/>
					</g>
					<path id="path162_8_" style="fill:#3B0807;" d="M27.158,28.126c-0.274,0.141-1.35,0.164-2.427-0.219
						c0.076,0.313,0.165,0.622,0.271,0.927c1.233,0.397,2.311,0.434,2.646,0.147c0.2-0.17,0.32-0.412,0.187-0.648
						C27.698,28.098,27.397,28.005,27.158,28.126z"/>
					<path id="path164_8_" style="fill:#231815;" d="M39.313,26.747c0.105,0.229,2.021,4.422,1.672,7.685
						c-0.098,0.27-0.183,0.555-0.246,0.873c-0.293,1.457-0.195,2.588,0.109,3.477l-0.006,0.013c0,0,0.008-0.001,0.01,0
						c0.976,2.813,4.117,3.103,4.117,3.103c-1.455-2.236,1.035-4.215,2.385-5.069c0.232-0.132,0.463-0.257,0.697-0.407
						c0.051-0.025,0.084-0.043,0.084-0.043c0.004-0.009,0.006-0.016,0.012-0.021c2.205-1.433,4.98-3.572,6.689-7.177
						c3.469-7.313-0.396-16.443-7.771-20.108c-1.977-0.981-4.061-1.479-6.123-1.558c0-0.002-0.002-0.002-0.002-0.003
						c-0.02-0.001-0.037,0-0.057-0.001C40.664,7.5,40.445,7.5,40.227,7.503c-0.175,0.001-0.349,0.007-0.521,0.014
						c-0.189,0.008-0.38,0.016-0.568,0.031c-0.295,0.024-0.587,0.058-0.879,0.099c-0.135,0.02-0.27,0.04-0.402,0.063
						c-0.304,0.052-0.605,0.111-0.904,0.182c-0.049,0.011-0.1,0.017-0.148,0.029c-0.056,0.013-0.109,0.03-0.164,0.044
						c-0.029,0.008-0.056,0.019-0.084,0.025c-2.027,0.529-3.928,1.479-5.562,2.81c-0.001,0.001-0.002,0.002-0.002,0.002l0,0
						c-1.163,0.947-2.194,2.081-3.033,3.394c1.411,2.503,4.298,6.05,10.117,8.941c0,0,0.067,2.982-0.125,4.104L39.313,26.747z"/>
					
						<radialGradient id="path173_1_" cx="445.5918" cy="-156.3276" r="15.2235" gradientTransform="matrix(0.8955 0.445 0.445 -0.8955 -288.3721 -315.6292)" gradientUnits="userSpaceOnUse">
						<stop  offset="0" style="stop-color:#BF6D48"/>
						<stop  offset="0.3871" style="stop-color:#B35125"/>
						<stop  offset="0.6026" style="stop-color:#98411C"/>
						<stop  offset="0.7151" style="stop-color:#91350D"/>
						<stop  offset="0.8698" style="stop-color:#753012"/>
						<stop  offset="1" style="stop-color:#6B2100"/>
					</radialGradient>
					<path id="path173_12_" style="fill:url(#path173_1_);" d="M39.893,26.477c0.105,0.229,2.021,4.422,1.67,7.684
						c-0.096,0.271-0.182,0.556-0.246,0.876c-0.293,1.458-0.195,2.587,0.108,3.475l-0.004,0.014c0,0,0.007,0,0.009,0
						c0.975,2.813,4.118,3.103,4.118,3.103c-1.456-2.235,1.034-4.216,2.386-5.071c0.232-0.133,0.463-0.258,0.696-0.408
						c0.05-0.024,0.085-0.043,0.085-0.043c0.004-0.008,0.006-0.016,0.012-0.021c2.205-1.432,4.49-3.696,6.2-7.3
						c3.468-7.313,0.093-16.319-7.282-19.984c-1.976-0.981-4.06-1.479-6.121-1.557c0-0.002-0.002-0.003-0.002-0.003
						c-0.02-0.001-0.037-0.001-0.057-0.001c-0.22-0.008-0.438-0.008-0.658-0.006c-0.174,0.002-0.348,0.007-0.521,0.014
						c-0.188,0.009-0.379,0.016-0.568,0.031c-0.295,0.022-0.588,0.056-0.88,0.096c-0.135,0.02-0.27,0.041-0.402,0.063
						c-0.305,0.051-0.604,0.111-0.904,0.181c-0.049,0.011-0.1,0.017-0.148,0.029c-0.056,0.013-0.109,0.03-0.164,0.045
						c-0.027,0.007-0.056,0.018-0.082,0.024c-2.027,0.529-3.93,1.48-5.563,2.811c-0.001,0.001-0.002,0.002-0.003,0.002l0,0
						c-1.163,0.947-2.194,2.08-3.033,3.393c1.411,2.503,4.299,6.051,10.117,8.942c0,0,0.066,2.981-0.127,4.103L39.893,26.477z"/>
					
						<ellipse id="ellipse175_7_" transform="matrix(0.5852 -0.8109 0.8109 0.5852 -6.3032 45.032)" style="fill:#231815;" cx="40.864" cy="28.677" rx="3.084" ry="2.645"/>
					
						<radialGradient id="path182_1_" cx="467.5586" cy="-101.2461" r="5.2767" gradientTransform="matrix(0.8108 0.5854 0.5854 -0.8108 -281.3462 -327.635)" gradientUnits="userSpaceOnUse">
						<stop  offset="0" style="stop-color:#FFF89F"/>
						<stop  offset="1" style="stop-color:#F15F57"/>
					</radialGradient>
					<path id="path182_9_" style="fill:url(#path182_1_);" d="M41.887,29.982c-0.84,1.163-2.328,1.521-3.326,0.802
						c-0.996-0.721-1.123-2.244-0.283-3.407c0.84-1.161,2.326-1.517,3.322-0.8C42.598,27.298,42.725,28.823,41.887,29.982z"/>
					<path id="path184_5_" style="fill:#48140F;" d="M40.582,22.06C37.507,25.877,30.5,32.75,26.667,34l2.735,1.945
						c4.825-1.342,12.642-10.917,13.518-12.005L40.582,22.06z"/>
				</g>
			</g>
			<g>
				
					<radialGradient id="path193_1_" cx="280.2129" cy="-339.3521" r="18.2182" gradientTransform="matrix(0.9994 -0.0347 -0.0347 -0.9994 -273.3801 -299.5273)" gradientUnits="userSpaceOnUse">
					<stop  offset="0" style="stop-color:#FFF89F"/>
					<stop  offset="1" style="stop-color:#F15F57"/>
				</radialGradient>
				<path id="path193_11_" style="fill:url(#path193_1_);" d="M29.984,37.518c-0.919-0.051-3.182-0.391-5.358-1.815
					c-2.175-1.427-2.735-3.157-3.743-3.372c-1.009-0.215-0.913,1.074-0.098,2.005c0.782,0.892,0.131,1.033,0.322,2.033
					c0.104,0.539,0.958,1.17,2.057,1.596c1.184,0.459,5.012,2.502,7.89,1.519C32.001,39.158,31.822,37.62,29.984,37.518z"/>
			</g>
		</g>
		<path id="path197_10_" style="fill:#231815;stroke:#231815;stroke-width:3;stroke-miterlimit:10;" d="M52.357,34.906
			c-7.404,5.068-6.018-6.159-11.178-13.694C36.707,14.673,26.382,10.19,30.866,9.066c0.917-0.23,1.51-1.24,2.489-1.91
			c7.404-5.072,17.593-3.072,22.752,4.466C61.268,19.157,59.762,29.837,52.357,34.906z"/>
		
			<radialGradient id="path204_1_" cx="490.1758" cy="72.2246" r="14.0135" gradientTransform="matrix(0.565 0.8251 0.8251 -0.565 -288.9273 -345.8702)" gradientUnits="userSpaceOnUse">
			<stop  offset="0" style="stop-color:#EB2D2E"/>
			<stop  offset="1" style="stop-color:#A91D1D"/>
		</radialGradient>
		<path id="path204_9_" style="fill:url(#path204_1_);" d="M52.357,34.906c-7.404,5.068-6.018-6.159-11.178-13.694
			C36.707,14.673,26.382,10.19,30.866,9.066c0.917-0.23,1.51-1.24,2.489-1.91c7.404-5.072,17.593-3.072,22.752,4.466
			C61.268,19.157,59.762,29.837,52.357,34.906z"/>
		<path id="path206_8_" style="fill:#009DE6;" d="M56.311,36.506c0,0,5.303,0.01,3.933,2.684
			C59.253,41.124,57.396,38.779,56.311,36.506z"/>
		<path id="path208_8_" style="fill:#009DE6;" d="M55.207,40.9c0,0,3.97,3.515,1.175,4.615C54.359,46.311,54.516,43.324,55.207,40.9
			z"/>
	</g>
	<g id="Layer_1_105_">
	</g>
</g>
<g id="Layer_1">
</g>
</svg>
