<?xml version="1.0" encoding="iso-8859-1"?>
<!-- Generator: Adobe Illustrator 16.0.0, SVG Export Plug-In . SVG Version: 6.00 Build 0)  -->
<!DOCTYPE svg PUBLIC "-//W3C//DTD SVG 1.1//EN" "http://www.w3.org/Graphics/SVG/1.1/DTD/svg11.dtd">
<svg version="1.1" xmlns="http://www.w3.org/2000/svg" xmlns:xlink="http://www.w3.org/1999/xlink" x="0px" y="0px" width="64px"
	 height="64px" viewBox="0 0 64 64" style="enable-background:new 0 0 64 64;" xml:space="preserve">
<g id="person_x5F_mountain_x5F_biking_x28_blk_x29_">
	<linearGradient id="SVGID_1_" gradientUnits="userSpaceOnUse" x1="32.0005" y1="47.125" x2="32.0005" y2="3.7484">
		<stop  offset="0" style="stop-color:#C1E8FB"/>
		<stop  offset="1" style="stop-color:#7BADE2"/>
	</linearGradient>
	<rect style="fill:url(#SVGID_1_);" width="64" height="64"/>
	<linearGradient id="SVGID_2_" gradientUnits="userSpaceOnUse" x1="32.0005" y1="47.125" x2="32.0005" y2="3.7484">
		<stop  offset="0" style="stop-color:#C1E8FB"/>
		<stop  offset="1" style="stop-color:#7BADE2"/>
	</linearGradient>
	<rect style="fill:url(#SVGID_2_);" width="64" height="64"/>
	<path style="fill:#595757;" d="M21.161,39.067c-0.187-0.353-0.37-0.657-0.549-0.909c-0.839-1.184-1.587-2.551-2.189-3.65
		c-0.923-1.688-1.171-2.142-1.763-2.142c-0.231,0-0.494,0.138-0.627,0.327c-0.098,0.137-0.452,0.528-0.829,0.929
		c-1.566-2.486-5.654-9.243-5.7-9.32c-0.115-0.189-0.311-0.315-0.532-0.34c-0.221-0.023-0.44,0.056-0.593,0.216
		c-0.278,0.291-2.733,2.865-3.247,3.668c-0.075,0.102-0.435,0.354-0.698,0.539c-0.741,0.519-1.757,1.23-2.464,2.31
		c-0.152,0.231-0.335,0.517-0.54,0.834c-0.579,0.902-1.802,2.811-2.474,3.609c-0.715-0.851-1.843-1.842-1.997-1.976
		c-0.151-0.132-0.354-0.193-0.552-0.171c-0.2,0.024-0.38,0.131-0.497,0.295c-0.362,0.508-2.351,3.056-3.394,4.387
		c-0.633-1.036-1.37-2.214-1.37-2.214c-0.126-0.201-0.345-0.327-0.583-0.334c-0.227,0.01-0.463,0.106-0.602,0.3
		c-0.221,0.311-0.546,0.713-0.921,1.178c-0.864,1.066-2.045,2.529-3.037,4.221c-1.386,2.365-3.959,7.353-4.067,7.564
		c-0.114,0.221-0.104,0.484,0.025,0.697c0.129,0.213,0.36,0.342,0.608,0.342l0,0l38.591-0.021V39.067z"/>
	<path style="fill-rule:evenodd;clip-rule:evenodd;fill:#8C9394;" d="M-4.051,46.648c0.476-2.376,1.544-4.633,1.426-5.939
		c-0.119-1.307-0.237-2.97-1.307-0.713c-1.069,2.256-1.544,3.682-2.613,5.107c-1.069,1.426-1.782,3.325-1.069,3.207
		S-4.051,46.648-4.051,46.648z"/>
	<path style="fill-rule:evenodd;clip-rule:evenodd;fill:#8C9394;" d="M9.229,35.719c0,0,0.712,2.375,1.306,4.396
		s0.951,4.514,0.832,5.702c-0.119,1.188-2.731,0.475-3.563,0.475c-0.832,0-2.971,2.258-2.376,0c0.594-2.257,1.782-6.414,2.02-8.078
		c0.237-1.662,0.712-2.612,1.188-3.682C9.11,33.463,9.229,35.719,9.229,35.719z"/>
	<path style="fill-rule:evenodd;clip-rule:evenodd;fill:#8C9394;" d="M-1.244,44.943l2.946,3.449c0,0,2.247-0.744,1.489-2.266
		c-0.618-1.24-0.798-1.971-1.833-3.957c-0.661-1.269-1.225-2.6-1.752-3.476c-0.527-0.875-1.253-2.243-1.057-0.202
		C-1.254,40.534-1.182,41.135-1.244,44.943z"/>
	<path style="fill-rule:evenodd;clip-rule:evenodd;fill:#8C9394;" d="M19.108,47.195c-0.617-1.24-0.798-1.97-1.833-3.957
		c-0.661-1.268-1.225-2.6-1.752-3.475c-0.527-0.875-1.253-2.244-1.057-0.202s0.269,2.642,0.208,6.45l2.292,2.684h1.901
		C19.216,48.328,19.425,47.83,19.108,47.195z"/>
	<path style="fill-rule:evenodd;clip-rule:evenodd;fill:#8C9394;" d="M21.161,43.389c-0.759-1.038-1.519-2.068-1.864-2.449
		c-0.688-0.756-2.02-2.048-1.433-0.082c0.564,1.886,2.457,4.475,3.071,7.836h0.226V43.389z"/>
	<path style="fill-rule:evenodd;clip-rule:evenodd;fill:#A6C2CA;" d="M14.898,34.467c-1.24-1.922-5.654-9.216-5.983-9.761
		c0.306,1.256,1.881,4.003,2.713,5.667c1.212,2.422,4.815,8.792,5.702,10.098C17.827,41.203,16.339,37.639,14.898,34.467z"/>
	<linearGradient id="SVGID_3_" gradientUnits="userSpaceOnUse" x1="-4.1226" y1="25.4092" x2="8.474" y2="35.2721">
		<stop  offset="0.0056" style="stop-color:#668B9D"/>
		<stop  offset="0.2463" style="stop-color:#60818E"/>
		<stop  offset="0.7085" style="stop-color:#567177"/>
		<stop  offset="1" style="stop-color:#536B6F"/>
	</linearGradient>
	<path style="fill-rule:evenodd;clip-rule:evenodd;fill:url(#SVGID_3_);" d="M1.047,39.342c0.886,2.02,1.582,2.199,1.582,2.199
		l1.519-2.436c0.442-1.307,2.405-3.148,2.405-3.148s1.392-3.921,1.709-5.347c0.268-1.207,0.534-4.832,0.61-5.917
		c-0.224,0.229-2.899,2.972-3.142,3.542c-0.254,0.594-2.152,1.306-3.164,2.851c-1.013,1.544-3.459,5.545-3.797,4.991
		C-1.231,36.076,0.162,37.323,1.047,39.342z"/>
	<linearGradient id="SVGID_4_" gradientUnits="userSpaceOnUse" x1="-17.1353" y1="39.9443" x2="0.0869" y2="43.1512">
		<stop  offset="0.0056" style="stop-color:#668B9D"/>
		<stop  offset="0.2463" style="stop-color:#60818E"/>
		<stop  offset="0.7085" style="stop-color:#567177"/>
		<stop  offset="1" style="stop-color:#536B6F"/>
	</linearGradient>
	<path style="fill-rule:evenodd;clip-rule:evenodd;fill:url(#SVGID_4_);" d="M-12.685,45.697c0.696-0.891,5.057-2.34,5.664-3.326
		c0.95-1.544,2.941-4.691,3.322-6.236c0.214-0.871,0.266-1.752,0.271-2.363C-3.479,33.727-3.508,33.7-3.508,33.7
		c-0.507,0.713-4.05,5.227-4.05,5.227c-0.634-1.069-1.898-3.088-1.898-3.088c-0.76,1.069-2.531,2.969-3.924,5.345
		c-1.334,2.277-3.825,7.096-4.03,7.492C-15.865,47.838-13.175,46.326-12.685,45.697z"/>
	<path style="fill-rule:evenodd;clip-rule:evenodd;fill:#536B6F;" d="M10.458,32.632c-0.036,0.175-0.003,3.088,0.326,4.299
		c0.326,1.209,1.322,1.998,1.721,2.859c0.4,0.861,0.938,1.688,0.938,1.688s-0.171-2.574-0.134-2.75
		C13.345,38.555,10.458,32.632,10.458,32.632z"/>
	<path style="fill-rule:evenodd;clip-rule:evenodd;fill:#A6C2CA;" d="M21.161,40.746c-0.37-0.875-0.752-1.645-1.13-2.176
		c-1.303-1.835-2.399-4.115-2.989-5.053c0.995,2.398,2.799,6.715,3.14,7.311c0.148,0.26,0.528,0.703,0.98,1.191V40.746z"/>
	<path style="fill-rule:evenodd;clip-rule:evenodd;fill:#8C9394;" d="M9.465,27.925c0,0,0.133,1.321,0.521,2.425
		c0.39,1.104,1.669,2.994,1.669,2.994S11.815,31.33,9.465,27.925z"/>
	<path style="fill-rule:evenodd;clip-rule:evenodd;fill:#868686;" d="M-7.709,41.064c0,0-0.902,1.711-2.803,3.493
		c-1.9,1.782-0.666-0.879,0.475-1.663C-7.854,41.395-7.709,41.064-7.709,41.064z"/>
	<path style="fill-rule:evenodd;clip-rule:evenodd;fill:#868686;" d="M6.391,33.294c0.891-0.739-0.788,1.478-1.565,2.726
		S3.14,37.628,3.03,37.701c-0.11,0.072,0.948-1.728,0.948-1.728S5.142,34.328,6.391,33.294z"/>
	<path style="fill-rule:evenodd;clip-rule:evenodd;fill:#868686;" d="M7.353,26.239c0,0-0.356,1.425-1.307,3.445
		s-1.901,3.447-2.495,4.516s0.832-2.971,0.832-2.971l1.347-2.851L7.353,26.239z"/>
	<path style="fill-rule:evenodd;clip-rule:evenodd;fill:#868686;" d="M-9.634,37.764c0,0,0,0.949-1.188,3.441
		c-1.188,2.495,1.782-0.594,1.782-0.594l0.475-1.423l-0.712-2.019L-9.634,37.764z"/>
	<path style="fill-rule:evenodd;clip-rule:evenodd;fill:#8A8EAB;" d="M40.847,52.116c-0.146-0.264-1.621-2.875-2.818-4.867
		c-0.002-0.006-0.006-0.012-0.01-0.018c-0.086-0.145-0.172-0.285-0.256-0.422c-0.01-0.018-0.021-0.035-0.031-0.053
		c-0.074-0.12-0.145-0.236-0.215-0.35c-0.018-0.027-0.037-0.059-0.055-0.088c-0.084-0.137-0.166-0.266-0.244-0.387
		c-1.254-1.961-2.849-3.529-3.532-4.411c0,0-1.14,1.667-1.71,2.549c0,0-3.189-3.726-3.646-4.313c0,0-1.594,1.274-2.051,1.961
		c-0.305,0.458-2.508-2.843-3.419-4.117c-0.911-1.275-2.536-1.903-2.849-2.354c-0.014-0.029-0.037-0.066-0.068-0.11
		c-0.014-0.019-0.031-0.042-0.047-0.063c-0.021-0.028-0.041-0.055-0.068-0.087c-0.021-0.025-0.047-0.057-0.071-0.085
		c-0.026-0.031-0.052-0.062-0.082-0.095c-0.028-0.031-0.059-0.065-0.089-0.098c-0.033-0.037-0.064-0.072-0.1-0.111
		c-0.029-0.031-0.062-0.064-0.092-0.098c-0.042-0.044-0.084-0.088-0.127-0.134c-0.027-0.028-0.057-0.058-0.084-0.087
		c-0.051-0.052-0.102-0.104-0.154-0.159c-0.023-0.023-0.049-0.049-0.074-0.074c-0.061-0.061-0.121-0.122-0.184-0.185
		c-0.009-0.009-0.018-0.019-0.027-0.027l-0.193-0.234c0,0,0.006,0.021,0.018,0.058c-0.648-0.639-1.287-1.24-1.387-1.333v0
		c-0.009-0.008-0.02-0.019-0.02-0.019s-2.677,4.056-4.36,6.553c-0.008,0.012-0.017,0.023-0.024,0.035
		c-0.064,0.096-0.127,0.188-0.187,0.277c-0.091,0.134-0.179,0.264-0.261,0.385c-0.02,0.027-0.038,0.055-0.057,0.083
		c-0.098,0.143-0.189,0.276-0.272,0.397c-0.003,0.004-0.005,0.007-0.009,0.011c-0.088,0.129-0.168,0.243-0.236,0.341v0.001
		c-0.071,0.101-0.133,0.187-0.178,0.248c0,0-0.031-0.029-0.076-0.072v11.566l22.413,0.011l0.891,0.002l6.06,0.002
		c0,0-0.01-0.018-0.018-0.033C40.847,52.116,40.847,52.116,40.847,52.116z"/>
	<path style="fill-rule:evenodd;clip-rule:evenodd;fill:#B3E4FA;" d="M33.637,17.19c-3.894-1.958-16.304-3.117-20.831-3.134
		C8.643,14.04,4.187,14.244,0,14.581v5.063C18.427,20.194,39.171,19.974,33.637,17.19z"/>
	<path style="fill-rule:evenodd;clip-rule:evenodd;fill:#B3E4FA;" d="M12.166,22.432c2.869-2.629,12.017-4.185,15.354-4.209
		c13.688-0.098,31.667,5.691,17.199,6.958C30.252,26.448,7.272,26.916,12.166,22.432z"/>
	<path style="fill-rule:evenodd;clip-rule:evenodd;fill:#CFEDFB;" d="M20.813,21.965c1.563-1.432,6.543-2.279,8.36-2.292
		c7.454-0.053,17.245,3.099,9.366,3.789S18.146,24.406,20.813,21.965z"/>
	<path style="fill-rule:evenodd;clip-rule:evenodd;fill:#B3E4FA;" d="M64,6.335c-15.691,1.367-29.346,5.471-13.194,6.513
		c4.051,0.261,8.594,0.488,13.194,0.645V6.335z"/>
	<path style="fill-rule:evenodd;clip-rule:evenodd;fill:#CFEDFB;" d="M64,7.83c-7.428,0.903-12.776,2.785-4.811,3.299
		c1.504,0.097,3.133,0.185,4.811,0.258V7.83z"/>
	<path style="fill-rule:evenodd;clip-rule:evenodd;fill:#B3E4FA;" d="M64,29.522c-2.418-0.815-6.483-1.52-10.021-1.495
		c-1.799,0.013-6.729,0.852-8.275,2.269c-2.639,2.417,9.748,2.165,17.547,1.482c0.272-0.024,0.52-0.051,0.75-0.081V29.522z"/>
	<path style="fill:#595757;" d="M75.501,38.989c-0.263-0.494-0.519-0.922-0.771-1.276c-1.178-1.659-2.228-3.578-3.071-5.121
		c-1.296-2.368-1.644-3.004-2.474-3.004c-0.324,0-0.692,0.194-0.88,0.459c-0.137,0.192-0.634,0.739-1.162,1.302
		c-2.197-3.486-7.933-12.966-7.998-13.075c-0.161-0.266-0.437-0.442-0.746-0.477c-0.31-0.033-0.617,0.078-0.832,0.303
		c-0.391,0.408-3.835,4.02-4.556,5.147c-0.105,0.143-0.61,0.497-0.979,0.755c-1.04,0.729-2.465,1.726-3.457,3.241
		c-0.213,0.325-0.471,0.726-0.757,1.171c-0.813,1.266-2.529,3.941-3.472,5.062c-1.004-1.193-2.586-2.584-2.802-2.772
		c-0.213-0.186-0.496-0.27-0.774-0.239c-0.28,0.033-0.533,0.183-0.697,0.413c-0.508,0.713-3.299,4.288-4.762,6.156
		c-0.888-1.454-1.922-3.106-1.922-3.106c-0.177-0.282-0.484-0.459-0.818-0.469c-0.318,0.014-0.65,0.148-0.844,0.421
		c-0.31,0.436-0.766,0.999-1.293,1.651c-1.211,1.498-2.87,3.549-4.261,5.922c-1.944,3.319-5.555,10.317-5.708,10.614
		c-0.16,0.31-0.146,0.681,0.035,0.979c0.181,0.298,0.505,0.479,0.854,0.479h0l54.146-0.03V38.989z"/>
	<path style="fill-rule:evenodd;clip-rule:evenodd;fill:#8C9394;" d="M40.126,49.625c0.667-3.333,2.166-6.5,2-8.333
		s-0.333-4.166-1.833-1s-2.167,5.166-3.667,7.166s-2.5,4.666-1.5,4.5S40.126,49.625,40.126,49.625z"/>
	<path style="fill-rule:evenodd;clip-rule:evenodd;fill:#8C9394;" d="M58.759,34.291c0,0,1,3.333,1.833,6.167s1.334,6.333,1.167,8
		s-3.833,0.667-5,0.667s-4.168,3.167-3.334,0s2.501-9,2.834-11.334c0.333-2.332,0.999-3.666,1.666-5.166
		S58.759,34.291,58.759,34.291z"/>
	<path style="fill-rule:evenodd;clip-rule:evenodd;fill:#8C9394;" d="M44.065,47.233l4.133,4.839c0,0,3.152-1.043,2.09-3.179
		c-0.867-1.74-1.12-2.764-2.572-5.552c-0.927-1.779-1.719-3.647-2.459-4.876c-0.739-1.228-1.758-3.147-1.482-0.283
		C44.051,41.047,44.151,41.89,44.065,47.233z"/>
	<path style="fill-rule:evenodd;clip-rule:evenodd;fill:#8C9394;" d="M72.621,50.394c-0.866-1.74-1.12-2.764-2.572-5.552
		c-0.927-1.779-1.719-3.647-2.458-4.876c-0.74-1.228-1.758-3.147-1.482-0.283s0.377,3.707,0.291,9.051l3.216,3.765l2.667-0.001
		C72.771,51.982,73.064,51.284,72.621,50.394z"/>
	<path style="fill-rule:evenodd;clip-rule:evenodd;fill:#8C9394;" d="M75.501,45.052c-1.065-1.456-2.131-2.901-2.615-3.436
		c-0.965-1.062-2.834-2.874-2.01-0.116c0.791,2.646,3.446,6.278,4.309,10.995h0.316V45.052z"/>
	<path style="fill-rule:evenodd;clip-rule:evenodd;fill:#A6C2CA;" d="M66.714,32.535c-1.739-2.696-7.934-12.93-8.395-13.694
		c0.429,1.763,2.64,5.618,3.807,7.951c1.7,3.399,6.756,12.334,8,14.167C70.822,41.986,68.735,36.984,66.714,32.535z"/>
	<linearGradient id="SVGID_5_" gradientUnits="userSpaceOnUse" x1="40.0283" y1="19.8296" x2="57.6972" y2="33.6641">
		<stop  offset="0.0056" style="stop-color:#668B9D"/>
		<stop  offset="0.2463" style="stop-color:#60818E"/>
		<stop  offset="0.7085" style="stop-color:#567177"/>
		<stop  offset="1" style="stop-color:#536B6F"/>
	</linearGradient>
	<path style="fill-rule:evenodd;clip-rule:evenodd;fill:url(#SVGID_5_);" d="M47.279,39.375c1.243,2.833,2.22,3.084,2.22,3.084
		l2.131-3.417c0.621-1.833,3.375-4.417,3.375-4.417s1.953-5.5,2.397-7.5c0.376-1.693,0.749-6.779,0.856-8.302
		c-0.314,0.321-4.067,4.17-4.408,4.969c-0.357,0.833-3.02,1.833-4.439,4c-1.421,2.167-4.854,7.779-5.328,7
		C44.083,34.792,46.037,36.542,47.279,39.375z"/>
	<linearGradient id="SVGID_6_" gradientUnits="userSpaceOnUse" x1="21.7671" y1="40.2197" x2="45.9322" y2="44.7194">
		<stop  offset="0.0056" style="stop-color:#668B9D"/>
		<stop  offset="0.2463" style="stop-color:#60818E"/>
		<stop  offset="0.7085" style="stop-color:#567177"/>
		<stop  offset="1" style="stop-color:#536B6F"/>
	</linearGradient>
	<path style="fill-rule:evenodd;clip-rule:evenodd;fill:url(#SVGID_6_);" d="M28.013,48.292c0.977-1.25,7.096-3.284,7.947-4.667
		c1.333-2.167,4.127-6.583,4.66-8.75c0.301-1.224,0.373-2.459,0.381-3.316c-0.072-0.064-0.113-0.101-0.113-0.101
		c-0.712,1-5.683,7.333-5.683,7.333c-0.889-1.5-2.663-4.333-2.663-4.333c-1.066,1.5-3.552,4.166-5.506,7.5
		c-1.872,3.195-5.367,9.955-5.654,10.512C23.551,51.295,27.324,49.174,28.013,48.292z"/>
	<path style="fill-rule:evenodd;clip-rule:evenodd;fill:#536B6F;" d="M60.483,29.962c-0.051,0.245-0.004,4.331,0.457,6.03
		c0.458,1.697,1.855,2.805,2.415,4.012c0.562,1.21,1.315,2.368,1.315,2.368s-0.24-3.612-0.188-3.858
		C64.534,38.27,60.483,29.962,60.483,29.962z"/>
	<path style="fill-rule:evenodd;clip-rule:evenodd;fill:#548148;" d="M58.743,47.521c0,0-0.538-0.574-1.321-1.002
		c-0.785-0.43-1.183-0.217-1.889-0.102c-0.706,0.118,1.352,1.362,2.338,1.459C58.854,47.973,58.743,47.521,58.743,47.521z"/>
	<path style="fill-rule:evenodd;clip-rule:evenodd;fill:#548148;" d="M62.01,49.305c0,0-0.395-0.506-0.967-0.883
		c-0.575-0.38-0.867-0.191-1.383-0.09c-0.518,0.104,0.988,1.201,1.711,1.287C62.091,49.703,62.01,49.305,62.01,49.305z"/>
	<path style="fill-rule:evenodd;clip-rule:evenodd;fill:#548148;" d="M27.132,49.72c0,0-0.585-0.262-1.268-0.325
		c-0.687-0.066-0.855,0.238-1.263,0.57c-0.409,0.334,1.436,0.596,2.114,0.332C27.391,50.033,27.132,49.72,27.132,49.72z"/>
	<path style="fill-rule:evenodd;clip-rule:evenodd;fill:#456D3B;" d="M11.436,52.523l9.249-0.004
		c1.241-1.177,2.131-2.895,1.554-3.77c-0.635-0.963-3.063-0.082-4.75,0.709C15.472,50.404,13.725,51.222,11.436,52.523z"/>
	<path style="fill-rule:evenodd;clip-rule:evenodd;fill:#456D3B;" d="M27.057,52.516c1.47-1.196,3.359-2.772,5.17-4.391
		c0.473-0.421,0.849-0.821,1.143-1.195c-0.303-0.092-0.582-0.138-0.787-0.138c-0.799,0-4.084,1.333-5.682,2.833
		c-0.86,0.807-4.591,1.915-6.216,2.893L27.057,52.516z"/>
	<path style="fill-rule:evenodd;clip-rule:evenodd;fill:#A6C2CA;" d="M75.501,41.345c-0.519-1.228-1.056-2.307-1.586-3.053
		c-1.828-2.575-3.366-5.774-4.194-7.09c1.396,3.367,3.928,9.421,4.405,10.257c0.208,0.364,0.741,0.987,1.375,1.672V41.345z"/>
	<path style="fill:#548148;" d="M64,50.568c-1.375-0.599-2.514-1-2.874-1.193c-0.932-0.5-2.108-0.203-4.927-2.583
		c-2.664-2.25-5.859-3.167-8.524-3c-1.726,0.108-4.794,2-4.794,2S40.484,47.5,39.951,48s-3.996,2.625-4.35,0.959
		c-0.318-1.491-2.221-2.167-3.02-2.167s-4.084,1.333-5.682,2.833c-0.86,0.807-1.824,1.915-3.449,2.893L64,52.495V50.568z"/>
	<path style="fill-rule:evenodd;clip-rule:evenodd;fill:#6EAF71;" d="M49.125,45.875c0,0,1.167,2.082,3.167,3.916
		s3.333,1.5,5.5,1.667s-2.999-5-5.833-6S49.125,45.875,49.125,45.875z"/>
	<path style="fill-rule:evenodd;clip-rule:evenodd;fill:#548148;" d="M21.425,49.676c0,0-0.773,0.144-1.557,0.571
		c-0.784,0.429-0.821,0.878-1.106,1.535c-0.28,0.658,1.877-0.401,2.491-1.18C21.865,49.827,21.425,49.676,21.425,49.676z"/>
	<path style="fill-rule:evenodd;clip-rule:evenodd;fill:#548148;" d="M39.592,46.509c0,0-0.773,0.144-1.557,0.571
		c-0.785,0.429-0.822,0.878-1.106,1.535c-0.28,0.658,1.877-0.401,2.491-1.18C40.031,46.66,39.592,46.509,39.592,46.509z"/>
	<path style="fill-rule:evenodd;clip-rule:evenodd;fill:#456D3B;" d="M43.708,45.15c0,0-0.784,0.061-1.608,0.402
		c-0.827,0.342-0.911,0.784-1.265,1.407c-0.35,0.625,1.909-0.198,2.604-0.906C44.129,45.348,43.708,45.15,43.708,45.15z"/>
	<path style="fill-rule:evenodd;clip-rule:evenodd;fill:#6EAF71;" d="M59.309,49.816c0,0,0.772,0.982,1.615,1.756
		c0.844,0.773,1.405,0.633,2.318,0.703c0.914,0.07-1.264-2.107-2.459-2.529C59.589,49.324,59.309,49.816,59.309,49.816z"/>
	<path style="fill-rule:evenodd;clip-rule:evenodd;fill:#456D3B;" d="M42.881,45.792c0,0-2.396,1.708-2.93,2.208
		c-0.258,0.242-1.201,0.861-2.146,1.251c-1.773,1.185-3.768,2.345-5.422,3.262l6.992-0.005c2.716-1.614,3.875-3.633,3.875-3.633
		c2.296-3.002,4.836-4.627,5.02-5.09c-0.199,0.001-0.4-0.005-0.595,0.007c-0.282,0.11-0.561,0.149-0.842,0.156
		C45.106,44.422,42.881,45.792,42.881,45.792z"/>
	<path style="fill-rule:evenodd;clip-rule:evenodd;fill:#8C9394;" d="M59.091,23.357c0,0,0.187,1.854,0.73,3.402
		c0.547,1.549,2.342,4.199,2.342,4.199S62.388,28.134,59.091,23.357z"/>
	<path style="fill-rule:evenodd;clip-rule:evenodd;fill:#868686;" d="M34.993,41.792c0,0-1.266,2.399-3.934,4.9
		c-2.666,2.5-0.934-1.233,0.667-2.333C34.79,42.254,34.993,41.792,34.993,41.792z"/>
	<path style="fill-rule:evenodd;clip-rule:evenodd;fill:#868686;" d="M54.776,30.889c1.25-1.036-1.105,2.072-2.196,3.824
		s-2.364,2.257-2.519,2.359c-0.154,0.102,1.33-2.424,1.33-2.424S53.024,32.34,54.776,30.889z"/>
	<path style="fill-rule:evenodd;clip-rule:evenodd;fill:#868686;" d="M56.126,20.992c0,0-0.5,2-1.833,4.833s-2.667,4.833-3.5,6.333
		c-0.833,1.5,1.167-4.167,1.167-4.167l1.891-4L56.126,20.992z"/>
	<path style="fill-rule:evenodd;clip-rule:evenodd;fill:#868686;" d="M32.293,37.159c0,0-0.001,1.333-1.667,4.83
		c-1.666,3.5,2.5-0.834,2.5-0.834l0.667-1.996l-1-2.833L32.293,37.159z"/>
	<path style="fill:#3C5C1A;" d="M4.855,37.52c-0.701,0-1.343,0.763-1.853,2.03c-0.601-3.182-1.581-5.262-2.69-5.262
		c-0.105,0-0.209,0.023-0.313,0.06v25.055c0.103,0.036,0.207,0.06,0.313,0.06c1.104,0,2.08-2.062,2.682-5.218
		c0.511,1.28,1.157,2.051,1.861,2.051c1.65,0,2.988-4.203,2.988-9.389C7.844,41.722,6.506,37.52,4.855,37.52z"/>
	<path style="fill:#3C5C1A;" d="M64,38.862c-1.109,0.186-2.076,2.426-2.641,5.763c-0.53-1.51-1.231-2.438-2.004-2.438
		c-1.65,0-2.988,4.202-2.988,9.387c0,5.186,1.338,9.389,2.988,9.389c0.789,0,1.506-0.969,2.04-2.54
		c0.569,3.218,1.52,5.361,2.604,5.543V38.862z"/>
	<ellipse style="fill:#53782B;" cx="59.48" cy="50.198" rx="1.852" ry="7.128"/>
	<ellipse style="fill:#3C5C1A;" cx="11.063" cy="46.875" rx="3.313" ry="12.587"/>
	<path style="fill:#53782B;" d="M13.156,42.75c0,4.131-0.881,3.125-1.969,3.125S9.375,44.375,9.375,42
		c0-4.132,0.725-6.73,1.813-6.73S13.156,38.618,13.156,42.75z"/>
	<ellipse style="fill:#456D3B;" cx="20.23" cy="47.406" rx="1.929" ry="7.174"/>
	<ellipse style="fill:#456D3B;" cx="24.23" cy="51.531" rx="1.929" ry="7.174"/>
	<ellipse style="fill:#3C5C1A;" cx="15.605" cy="46.906" rx="2.988" ry="9.389"/>
	<path style="fill:#7E9D44;" d="M17.416,43c0,2-0.699,2.719-1.561,2.719s-1.517-0.887-1.561-3.594
		c-0.02-1.25,0.699-3.621,1.561-3.621S17.416,40.292,17.416,43z"/>
	<path style="fill:#586C89;" d="M4.75,47.75c0,0-0.625-1.25-1.5-2.5s-1.183-1.655-3.25-2v4.5H4.75z"/>
	<path style="fill:#3A573B;" d="M64,47.351c-0.045,0-0.087-0.017-0.132-0.011c-1.157,0.154-2.308,0.317-3.442,0.497
		c-5.548,0.134-10.952,0.498-16.07,1.082c-0.266-0.106-0.545-0.146-0.769-0.165c-0.459-0.04-0.971-0.06-1.564-0.06h-0.045
		c-10.34-1.875-22.419-2.865-34.936-2.865c-2.286,0-4.655,0.037-7.042,0.108V64h64V47.351z"/>
	<path style="fill:#ABC81C;" d="M64,56.819c-9.621-5.881-31.496-9.99-56.958-9.99c-2.382,0-4.729,0.039-7.042,0.109V64h64V56.819z"
		/>
	<path style="fill:#D1F037;" d="M28.25,48.75C23.758,48.215,7.562,46.859,0,48.436v7.544c3.127-1.021,7.261-2.137,15.125-3.729
		C25,50.25,32.902,49.304,28.25,48.75z"/>
	<path style="fill:#95AE1B;" d="M43.5,49.75c-7.125-0.625-24.375,4-25.25,4.25s-2.5,0.375-3.125,0.625s-4.375,2.625-3,1.125
		S11,55.5,9.625,56.5s-3.75,2.75-3.875,1.75s-2.5,1.125-3.25,2.125C2.017,61.02,1.114,61.351,0,61.506V64h8.968
		C22.808,59.309,48.775,50.213,43.5,49.75z"/>
	<path style="fill:#ABC81C;" d="M64,48.537C41.833,47.666,28.71,57.7,21.465,64H64V48.537z"/>
	<path style="fill:#95AE1B;" d="M64,64v-4.792c-4.771,0.628-10.272,1.941-10.875,2.167c-1,0.375-8,1.5-8.125,1s2-1.25-1.125-1.125
		c-2.273,0.091-4.747,1.505-7.467,2.75H64z"/>
	<path style="fill:#BCDA30;" d="M64,49.215c-7.842,1.664-14.412,3.681-16.633,4.927c-4.6,2.58,9.988,0.496,15.998,0.345
		c0.216-0.006,0.421-0.012,0.635-0.018V49.215z"/>
	<circle style="fill:none;stroke:#595757;stroke-width:1.2436;stroke-miterlimit:10;" cx="26.164" cy="56.922" r="5.597"/>
	<g id="man_x5F_climbing_x28_ye_x29__23_">
		<g id="g235_23_">
			<g>
				<path id="path8_105_" style="fill:#231815;stroke:#231815;stroke-width:2;stroke-miterlimit:10;" d="M44.513,43.31
					c-2.694,0.094-6.258,3.338-7.477,6.484c-1.224,3.146-0.121,4.105,1.282,2.912c1.401-1.203,2.269-2.742,6.166-3.109
					C48.381,49.231,46.409,43.243,44.513,43.31z"/>
			</g>
			<g>
				<path id="path10_61_" style="fill:#231815;stroke:#231815;stroke-width:2;stroke-miterlimit:10;" d="M33.784,51.753
					c0.522-1.039,1.789-1.461,2.829-0.941c1.038,0.52,1.461,1.787,0.941,2.826L33.784,51.753z"/>
			</g>
			<g>
				<path id="path12_46_" style="fill:#3E3A39;" d="M44.513,43.31c-2.694,0.094-6.258,3.338-7.477,6.484
					c-1.224,3.146-0.121,4.105,1.282,2.912c1.401-1.203,2.269-2.742,6.166-3.109C48.381,49.231,46.409,43.243,44.513,43.31z"/>
			</g>
			<g>
				<path id="path14_47_" style="fill:#9C9C9D;" d="M33.784,51.753c0.522-1.039,1.789-1.461,2.829-0.941
					c1.038,0.52,1.461,1.787,0.941,2.826L33.784,51.753z"/>
			</g>
			
				<polygon style="fill:none;stroke:#E30012;stroke-width:1.3958;stroke-linecap:round;stroke-linejoin:round;stroke-miterlimit:10;" points="
				45.879,56.922 36.785,56.922 29.899,50.477 41.369,50.477 			"/>
			<circle style="fill:none;stroke:#595757;stroke-width:1.2436;stroke-miterlimit:10;" cx="45.88" cy="56.922" r="5.597"/>
			<circle style="fill:none;stroke:#231815;stroke-width:1.3958;stroke-miterlimit:10;" cx="26.165" cy="56.921" r="6.281"/>
			<circle style="fill:none;stroke:#231815;stroke-width:1.3958;stroke-miterlimit:10;" cx="45.952" cy="56.921" r="6.281"/>
			<g>
				<path id="path83_37_" style="fill:#231815;stroke:#231815;stroke-width:2;stroke-miterlimit:10;" d="M35.085,39.765
					c-0.273,0.879-1.15,2.993-3.063,4.759c-1.91,1.762-3.726,1.888-4.177,2.814c-0.453,0.93,0.82,1.145,1.92,0.58
					c1.055-0.541,1.035,0.124,2.052,0.18c0.548,0.032,1.365-0.645,2.046-1.607c0.73-1.037,3.641-4.258,3.386-7.289
					C37.164,38.205,35.627,38.006,35.085,39.765z"/>
			</g>
			<g>
				<g id="g226_23_">
					<path id="path34-7-5_791_" style="fill:none;stroke:#231815;stroke-width:2;stroke-miterlimit:10;" d="M39.401,37.978
						c-0.395-0.303-1.498-1.121-1.915-1.065c-0.414,0.058-0.761,0.181-0.761,0.181c-0.775,0.291-1.28,0.85-1.499,1.648
						c0,0-0.021,0.209,0.077,0.781c0.072,0.416,0.772,1.289,1.061,1.801c0,0,2.448,3.047,4.789,6.38c0,0,2.119,0.081,3.731-1.696
						c1.612-1.775,1.325-3.878,1.325-3.878C42.671,40.123,39.401,37.978,39.401,37.978z"/>
					
						<ellipse id="ellipse86_31_" transform="matrix(-0.7404 -0.6722 0.6722 -0.7404 47.7929 110.2022)" style="fill:none;stroke:#231815;stroke-width:2;stroke-miterlimit:10;" cx="45.179" cy="45.871" rx="3.375" ry="3.619"/>
					<path id="path88_33_" style="fill:none;stroke:#231815;stroke-width:2;stroke-miterlimit:10;" d="M43.906,43.352
						c-2.354,1.305-4.057,5.814-3.717,9.173c0.337,3.356,1.757,3.717,2.463,2.011c0.706-1.705,0.778-3.474,4.086-5.564
						C50.041,46.877,45.57,42.43,43.906,43.352z"/>
					<path id="path90_32_" style="fill:none;stroke:#231815;stroke-width:2;stroke-miterlimit:10;" d="M38.196,55.126
						c0.142-1.149,1.196-1.976,2.347-1.834c1.157,0.14,1.979,1.192,1.838,2.347L38.196,55.126z"/>
					<path id="path34-7-5_790_" style="fill:none;stroke:#231815;stroke-width:2;stroke-miterlimit:10;" d="M39.401,37.978
						c-0.452-0.299-1.613-1.158-2.032-1.098c-0.413,0.057-0.644,0.215-0.644,0.215c-0.773,0.291-0.706,1.205-0.924,2.004
						c0,0-0.022,0.209,0.078,0.781c0.07,0.415,0.104,0.848,0.485,1.443c0,0,2.448,3.051,4.788,6.38c0,0,1.752-0.252,3.365-2.029
						c1.608-1.774,1.694-3.542,1.694-3.542C42.671,40.123,39.401,37.978,39.401,37.978z"/>
					<g id="g192_23_">
						<g id="g190_23_">
							<g id="g188_23_">
								<path id="path93_39_" style="fill:#F09400;stroke:#231815;stroke-width:1.5423;stroke-miterlimit:10;" d="M49.482,16.882
									c1.7,8.314-4.276,16.554-12.74,18.284c-8.464,1.729-16.701-3.604-18.401-11.917C16.64,14.933,22.122,6.787,30.588,5.056
									C39.053,3.327,47.781,8.567,49.482,16.882z"/>
								<path id="path123_257_" style="fill:#231815;" d="M48.771,17.025c1.621,7.93-4.1,15.791-12.171,17.441
									c-8.068,1.65-15.927-3.437-17.546-11.364c-1.623-7.929,3.607-15.697,11.678-17.347C38.799,4.106,47.149,9.096,48.771,17.025
									z"/>
								
									<radialGradient id="path9_1_" cx="446.0352" cy="-161.1533" r="15.3467" gradientTransform="matrix(0.98 -0.1987 -0.1987 -0.98 -434.7867 -48.632)" gradientUnits="userSpaceOnUse">
									<stop  offset="0" style="stop-color:#FF85B8"/>
									<stop  offset="0.5054" style="stop-color:#FF5B5B"/>
									<stop  offset="1" style="stop-color:#E1233C"/>
								</radialGradient>
								
									<path id="path9_28_" style="fill:url(#path9_1_);stroke:#231815;stroke-width:2;stroke-linecap:round;stroke-linejoin:round;stroke-miterlimit:10;" d="
									M35.515,24.476c0.223,0.117,4.309,2.25,6.035,5.039c0.093,0.273,0.199,0.551,0.345,0.843c0.663,1.33,1.434,2.161,2.22,2.675
									l0.005,0.014c0,0,0.006-0.004,0.007-0.006c2.495,1.622,5.155-0.081,5.155-0.081c-2.521-0.869-1.771-3.961-1.23-5.466
									c0.102-0.247,0.206-0.488,0.299-0.75c0.023-0.051,0.04-0.086,0.04-0.086c-0.002-0.008-0.005-0.016-0.005-0.025
									c0.862-2.483,1.738-5.875,0.873-9.771C47.503,8.962,38.848,4.129,30.775,5.765c-2.161,0.438-4.111,1.326-5.786,2.531
									c-0.002-0.002-0.004-0.001-0.004-0.001c-0.017,0.011-0.029,0.022-0.046,0.033c-0.177,0.129-0.35,0.263-0.522,0.399
									c-0.136,0.108-0.27,0.22-0.402,0.332c-0.144,0.122-0.288,0.244-0.43,0.372c-0.219,0.199-0.429,0.406-0.635,0.617
									c-0.093,0.099-0.188,0.199-0.278,0.296c-0.211,0.228-0.41,0.459-0.603,0.699c-0.033,0.038-0.07,0.074-0.1,0.114
									c-0.036,0.044-0.067,0.09-0.103,0.135c-0.017,0.023-0.032,0.049-0.05,0.07c-1.275,1.662-2.192,3.581-2.665,5.635
									c0,0.002,0,0.002,0,0.003l0,0c-0.337,1.462-0.455,2.989-0.311,4.541c2.65,1.108,7.108,2.137,13.475,0.844
									c0,0,1.885,2.313,2.42,3.316L35.515,24.476z"/>
								<path id="path125_135_" style="fill:#231815;stroke:#231815;stroke-width:2.7816;stroke-miterlimit:10;" d="M44.543,23.81
									c1.373,6.726-3.165,11.456-9.603,13.102c-8.848,2.26-12.597-1.556-13.972-8.283c-1.377-6.728,2.787-13.269,9.295-14.6
									C36.771,12.697,43.165,17.077,44.543,23.81z"/>
								
									<radialGradient id="path34-7-5_1_" cx="588.0488" cy="-294.5703" r="33.8462" gradientTransform="matrix(0.4045 -0.4455 -0.7404 -0.6723 -424.0844 98.1861)" gradientUnits="userSpaceOnUse">
									<stop  offset="0" style="stop-color:#C35B22"/>
									<stop  offset="1" style="stop-color:#45220E"/>
								</radialGradient>
								<path id="path34-7-5_789_" style="fill:url(#path34-7-5_1_);" d="M39.401,37.978c-0.395-0.303-1.498-1.121-1.915-1.065
									c-0.414,0.058-0.761,0.181-0.761,0.181c-0.775,0.291-1.28,0.85-1.499,1.648c0,0-0.021,0.209,0.077,0.781
									c0.072,0.416,0.772,1.289,1.061,1.801c0,0,2.448,3.047,4.789,6.38c0,0,2.119,0.081,3.731-1.696
									c1.612-1.775,1.325-3.878,1.325-3.878C42.671,40.123,39.401,37.978,39.401,37.978z"/>
								<linearGradient id="polygon138_1_" gradientUnits="userSpaceOnUse" x1="37.165" y1="39.3203" x2="35.29" y2="37.1953">
									<stop  offset="0" style="stop-color:#C35B22"/>
									<stop  offset="1" style="stop-color:#45220E"/>
								</linearGradient>
								<polygon id="polygon138_24_" style="fill:url(#polygon138_1_);" points="37.402,37.733 35.975,39.308 33.675,37.22 
									35.107,35.644 								"/>
								
									<ellipse id="ellipse140_24_" transform="matrix(-0.7404 -0.6722 0.6722 -0.7404 47.7929 110.2022)" style="fill:#3E3A39;" cx="45.179" cy="45.871" rx="3.375" ry="3.619"/>
								<path id="path142_41_" style="fill:#3E3A39;" d="M43.906,43.352c-2.354,1.305-4.057,5.814-3.717,9.173
									c0.337,3.356,1.757,3.717,2.463,2.011c0.706-1.705,0.778-3.474,4.086-5.564C50.041,46.877,45.57,42.43,43.906,43.352z"/>
								<path id="path144_39_" style="fill:#9C9C9D;" d="M38.196,55.126c0.142-1.149,1.196-1.976,2.347-1.834
									c1.157,0.14,1.979,1.192,1.838,2.347L38.196,55.126z"/>
								<path id="path146_31_" style="fill:none;stroke:#1EA839;stroke-miterlimit:10;" d="M44.462,44.76"/>
								<path id="path34-7-5_788_" style="fill:#C6C7C8;" d="M39.401,37.978c-0.452-0.299-1.613-1.158-2.032-1.098
									c-0.413,0.057-0.644,0.215-0.644,0.215c-0.492,0.572-0.706,1.205-0.924,2.004c0,0-0.022,0.209,0.078,0.781
									c0.07,0.415,0.104,0.848,0.485,1.443c0,0,2.448,3.051,4.788,6.38c0,0,1.752-0.252,3.365-2.029
									c1.608-1.774,1.694-3.542,1.694-3.542C42.671,40.123,39.401,37.978,39.401,37.978z"/>
								<path style="fill:#F09400;" d="M37.363,38.7c-0.15,0.301-0.27,0.626-0.375,0.983c2.096,1.693,5.315,4.286,7.477,6.043
									c0.019-0.02,0.036-0.033,0.054-0.053c0.221-0.244,0.408-0.486,0.575-0.726C42.832,43.11,39.344,40.301,37.363,38.7z"/>
								
									<radialGradient id="path154_1_" cx="435.8262" cy="-159.8062" r="22.0399" gradientTransform="matrix(0.9797 -0.2004 -0.2004 -0.9797 -426.4009 -43.7519)" gradientUnits="userSpaceOnUse">
									<stop  offset="0" style="stop-color:#C35B22"/>
									<stop  offset="1" style="stop-color:#45220E"/>
								</radialGradient>
								<path id="path154_39_" style="fill:url(#path154_1_);" d="M44.543,23.81c1.373,6.726-3.095,11.769-9.603,13.102
									c-6.507,1.33-12.081,0.964-13.972-8.283c-1.377-6.728,2.787-13.269,9.295-14.6C36.771,12.697,43.165,17.077,44.543,23.81z"
									/>
								
									<path id="path156_36_" style="fill:none;stroke:#A4414A;stroke-width:0.8345;stroke-linecap:round;stroke-linejoin:round;stroke-miterlimit:10;" d="
									M26.534,20.971c0,0-1.949-1.754-3.582,0.732"/>
								<path id="path164_18_" style="fill:#231815;" d="M35.222,25.046c0.224,0.116,4.311,2.248,6.039,5.039
									c0.087,0.272,0.196,0.55,0.342,0.841c0.663,1.329,1.436,2.161,2.222,2.676l0.003,0.014c0,0,0.006-0.006,0.007-0.007
									c2.5,1.622,5.155-0.079,5.155-0.079c-2.522-0.871-1.771-3.963-1.232-5.466c0.104-0.246,0.209-0.486,0.302-0.749
									c0.025-0.051,0.041-0.086,0.041-0.086c-0.004-0.01-0.006-0.015-0.006-0.024c0.859-2.484,1.738-5.877,0.872-9.772
									C47.213,9.53,38.554,4.698,30.482,6.334c-2.161,0.44-4.111,1.327-5.787,2.531c-0.002-0.002-0.004,0-0.004-0.001
									c-0.016,0.011-0.029,0.022-0.045,0.035c-0.178,0.127-0.351,0.262-0.521,0.399c-0.138,0.108-0.271,0.22-0.401,0.331
									c-0.146,0.122-0.29,0.246-0.431,0.374c-0.219,0.2-0.428,0.406-0.634,0.618c-0.094,0.099-0.188,0.197-0.278,0.297
									c-0.208,0.228-0.409,0.458-0.602,0.699c-0.032,0.038-0.068,0.075-0.1,0.113c-0.036,0.045-0.067,0.092-0.102,0.136
									c-0.02,0.024-0.032,0.05-0.053,0.071c-1.275,1.662-2.19,3.579-2.662,5.634c0,0-0.001,0.002-0.001,0.002l0,0
									c-0.336,1.462-0.454,2.99-0.31,4.542c2.651,1.108,7.108,2.135,13.475,0.844c0,0,1.886,2.311,2.422,3.315L35.222,25.046z"/>
								
									<radialGradient id="path173_1_" cx="445.7578" cy="-160.8916" r="15.2239" gradientTransform="matrix(0.98 -0.1987 -0.1987 -0.98 -434.7867 -48.632)" gradientUnits="userSpaceOnUse">
									<stop  offset="0" style="stop-color:#6B6462"/>
									<stop  offset="0.3871" style="stop-color:#5E4B45"/>
									<stop  offset="0.6026" style="stop-color:#463934"/>
									<stop  offset="0.7151" style="stop-color:#3B2D27"/>
									<stop  offset="0.8698" style="stop-color:#2C221D"/>
									<stop  offset="1" style="stop-color:#1C110C"/>
								</radialGradient>
								<path id="path173_22_" style="fill:url(#path173_1_);" d="M35.432,24.226c0.223,0.117,4.309,2.25,6.035,5.039
									c0.092,0.273,0.199,0.551,0.344,0.843c0.664,1.33,1.434,2.161,2.221,2.675l0.004,0.014c0,0,0.006-0.004,0.008-0.006
									c2.494,1.622,5.154-0.081,5.154-0.081c-2.521-0.869-1.771-3.961-1.23-5.466c0.102-0.247,0.207-0.488,0.299-0.75
									c0.023-0.051,0.041-0.086,0.041-0.086c-0.002-0.008-0.006-0.016-0.006-0.025c0.863-2.483,1.275-5.674,0.412-9.568
									c-1.754-7.9-9.949-12.936-18.021-11.3c-2.161,0.438-4.111,1.326-5.786,2.531c-0.002-0.002-0.004-0.001-0.004-0.001
									c-0.017,0.011-0.029,0.022-0.046,0.033c-0.177,0.129-0.35,0.263-0.522,0.399c-0.136,0.108-0.27,0.22-0.402,0.332
									c-0.144,0.122-0.288,0.244-0.43,0.372c-0.219,0.199-0.429,0.406-0.635,0.617c-0.093,0.099-0.188,0.199-0.278,0.296
									c-0.211,0.228-0.41,0.459-0.603,0.699c-0.033,0.038-0.07,0.074-0.1,0.114c-0.036,0.044-0.067,0.09-0.103,0.135
									c-0.017,0.023-0.032,0.049-0.05,0.07c-1.275,1.662-2.192,3.581-2.665,5.635c0,0.002,0,0.002,0,0.003l0,0
									c-0.337,1.462-0.455,2.989-0.311,4.541c2.65,1.108,7.108,2.137,13.475,0.844c0,0,1.884,2.313,2.419,3.316L35.432,24.226z"/>
							</g>
						</g>
					</g>
					<g id="g213_493_">
						
							<linearGradient id="path207_1_" gradientUnits="userSpaceOnUse" x1="554.4102" y1="233.0859" x2="558.2422" y2="233.0859" gradientTransform="matrix(0.9797 -0.2004 0.2004 0.9797 -561.7686 -86.8614)">
							<stop  offset="0" style="stop-color:#FFA67F"/>
							<stop  offset="0.0969" style="stop-color:#FF967B"/>
							<stop  offset="0.3655" style="stop-color:#FF7170"/>
							<stop  offset="0.6143" style="stop-color:#FF5568"/>
							<stop  offset="0.8336" style="stop-color:#FF4564"/>
							<stop  offset="1" style="stop-color:#FF3F62"/>
						</linearGradient>
						<path id="path207_35_" style="fill:url(#path207_1_);" d="M31.851,29.62c-0.122-0.601-1.064-0.917-2.102-0.704
							c-1.035,0.211-1.775,0.871-1.651,1.474c0.12,0.6,1.062,0.917,2.1,0.705C31.233,30.885,31.975,30.224,31.851,29.62z"/>
					</g>
					<g id="g213_492_">
						<path id="path209_299_" style="fill:#160201;" d="M27.969,27.567c0.342,1.667-0.237,3.198-1.29,3.414
							c-1.057,0.213-2.186-0.966-2.528-2.636c-0.343-1.675,0.234-3.207,1.289-3.425C26.494,24.705,27.626,25.888,27.969,27.567z"/>
						<path id="path211_250_" style="fill:#FFFFFF;" d="M27.051,26.126c0.093,0.452-0.199,0.887-0.655,0.981
							c-0.452,0.093-0.891-0.197-0.983-0.648c-0.093-0.453,0.198-0.896,0.649-0.987C26.519,25.378,26.957,25.671,27.051,26.126z"/>
					</g>
					<path id="path213_24_" style="fill:#3B0807;" d="M26.48,33.6c-0.129,0.279-0.964,0.959-2.046,1.322
						c0.249,0.199,0.51,0.389,0.783,0.561c1.215-0.445,2.087-1.076,2.175-1.513c0.053-0.255-0.001-0.521-0.252-0.622
						C26.887,33.243,26.593,33.357,26.48,33.6z"/>
					<path id="ellipse215_22_" style="fill:#231815;" d="M37.507,22.515c1.456-0.056,2.691,1.277,2.759,2.982
						c0.063,1.7-1.065,3.125-2.527,3.18c-1.459,0.056-2.695-1.28-2.762-2.981C34.914,23.995,36.047,22.568,37.507,22.515z"/>
					
						<radialGradient id="path222_1_" cx="464.0752" cy="-96.5591" r="5.2779" gradientTransform="matrix(0.9993 -0.0377 -0.0377 -0.9993 -431.964 -52.3363)" gradientUnits="userSpaceOnUse">
						<stop  offset="0" style="stop-color:#C35B22"/>
						<stop  offset="1" style="stop-color:#45220E"/>
					</radialGradient>
					<path id="path222_28_" style="fill:url(#path222_1_);" d="M39.232,25.995c0.051,1.433-0.899,2.632-2.128,2.68
						c-1.231,0.046-2.269-1.078-2.321-2.511c-0.054-1.432,0.898-2.627,2.126-2.676C38.14,23.443,39.179,24.568,39.232,25.995z"/>
					<path id="path224_26_" style="fill:#48140F;" d="M33.327,20.554c-0.076,4.902-1.367,14.634-3.618,17.977l3.352-0.149
						c2.976-4.029,3.245-16.387,3.266-17.785L33.327,20.554z"/>
				</g>
			</g>
			<g>
				
					<radialGradient id="path233_1_" cx="280.5938" cy="-333.5518" r="18.2183" gradientTransform="matrix(0.2084 -0.978 -0.978 -0.2084 -359.7965 254.0259)" gradientUnits="userSpaceOnUse">
					<stop  offset="0" style="stop-color:#C35B22"/>
					<stop  offset="1" style="stop-color:#45220E"/>
				</radialGradient>
				<path id="path233_22_" style="fill:url(#path233_1_);" d="M35.085,39.765c-0.273,0.879-1.15,2.993-3.063,4.759
					c-1.91,1.762-3.726,1.888-4.177,2.814c-0.453,0.93,0.82,1.145,1.92,0.58c1.055-0.541,1.035,0.124,2.052,0.18
					c0.548,0.032,1.365-0.645,2.046-1.607c0.73-1.037,3.641-4.258,3.386-7.289C37.164,38.205,35.627,38.006,35.085,39.765z"/>
			</g>
		</g>
		<path id="path237_23_" style="fill:#231815;stroke:#231815;stroke-width:3;stroke-miterlimit:10;" d="M50.514,23.431
			c-2.717,8.554-8.532-1.15-17.236-3.911c-7.553-2.402-18.449,0.419-15.605-3.226c0.58-0.746,0.426-1.906,0.785-3.038
			C21.17,4.7,30.431,0.008,39.139,2.771C47.844,5.534,53.229,14.879,50.514,23.431z"/>
		
			<radialGradient id="path244_1_" cx="484.9102" cy="74.5566" r="14.0123" gradientTransform="matrix(0.9532 0.3025 0.3025 -0.9532 -448.543 -62.7766)" gradientUnits="userSpaceOnUse">
			<stop  offset="0" style="stop-color:#EB2D2E"/>
			<stop  offset="1" style="stop-color:#A91D1D"/>
		</radialGradient>
		<path id="path244_26_" style="fill:url(#path244_1_);" d="M50.514,23.431c-2.717,8.554-8.532-1.15-17.236-3.911
			c-7.553-2.402-18.449,0.419-15.605-3.226c0.58-0.746,0.426-1.906,0.785-3.038C21.17,4.7,30.431,0.008,39.139,2.771
			C47.844,5.534,53.229,14.879,50.514,23.431z"/>
	</g>
	<g id="Layer_1_173_">
	</g>
	
		<line style="fill:none;stroke:#231815;stroke-width:1.3958;stroke-linecap:round;stroke-linejoin:round;stroke-miterlimit:10;" x1="26.164" y1="56.921" x2="30.412" y2="49.012"/>
	<path style="fill:#868686;" d="M37.946,39.201c-0.085-0.996-1.622-1.195-2.164,0.563c-0.091,0.293-0.257,0.729-0.497,1.237
		c0.681,0.426,1.335,0.886,1.919,1.51C37.703,41.461,38.04,40.318,37.946,39.201z"/>
	<path style="fill:#C6C7C8;" d="M37.249,39.201c-0.085-0.996-1.622-1.195-2.164,0.563c-0.091,0.293-0.257,0.729-0.497,1.237
		c0.681,0.426,1.335,0.886,1.919,1.51C37.006,41.461,37.343,40.318,37.249,39.201z"/>
	<path style="fill:#710303;" d="M26.8,14.366c2.804,0.443,15.001,2.833,19.168,5s-0.334-4.167-4.667-6.333
		S20.466,13.366,26.8,14.366z"/>
	<path style="fill:#710303;" d="M25.528,10.036c2.443-0.276,13.173-1.091,17.15-0.243c3.979,0.848-1.238-3.401-5.354-4.211
		C33.208,4.772,20.011,10.661,25.528,10.036z"/>
</g>
<g id="Layer_1">
</g>
</svg>
