<?xml version="1.0" encoding="utf-8"?>
<!-- Generator: Adobe Illustrator 18.0.0, SVG Export Plug-In . SVG Version: 6.00 Build 0)  -->
<!DOCTYPE svg PUBLIC "-//W3C//DTD SVG 1.1//EN" "http://www.w3.org/Graphics/SVG/1.1/DTD/svg11.dtd">
<svg version="1.1" id="レイヤー_1" xmlns="http://www.w3.org/2000/svg" xmlns:xlink="http://www.w3.org/1999/xlink" x="0px"
	 y="0px" width="64px" height="64px" viewBox="0 0 64 64" style="enable-background:new 0 0 64 64;" xml:space="preserve">
<g>
	<g>
		<linearGradient id="SVGID_1_" gradientUnits="userSpaceOnUse" x1="41.3003616" y1="10.7292004" x2="41.3003616" y2="42.7947998">
			<stop  offset="0" style="stop-color:#807540"/>
			<stop  offset="0.131687" style="stop-color:#C9B965"/>
			<stop  offset="0.251029" style="stop-color:#C9B965"/>
			<stop  offset="0.740741" style="stop-color:#807640"/>
		</linearGradient>
		<path style="fill:url(#SVGID_1_);" d="M40.9328003,40.1206017c0,0-0.1907997-0.8091011-0.7593994-1.7331009
			c0,0-1.6170998,2.4335976-2.6141014,4.407299c0,0-1.6883011-0.9084015-1.7047997-1.6190987l1.0555992-30.4465008
			C36.910099,10.7292004,56.0489006,18.3367996,40.9328003,40.1206017z"/>
		<path style="fill:#72402D;" d="M37.6669922,43.1367188l-0.2255859-0.1220703
			c-0.3037109-0.1630859-1.8173828-1.0175781-1.8369141-1.8330078l1.0683594-30.815918l0.3300781,0.1308594
			c0.0712891,0.0288086,7.2207031,2.9433594,9.375,10.0869141c1.6914063,5.6098633-0.0712891,12.230957-5.2402344,19.6791992
			l-0.3183594,0.4599609l-0.1298828-0.5449219c-0.0019531-0.0068359-0.1425781-0.5888672-0.5292969-1.3115234
			c-0.4765625,0.7363281-1.6162109,2.5351563-2.3779297,4.0410156L37.6669922,43.1367188z M37.1474609,11.1074219
			l-1.0429688,30.0771484c0.0078125,0.3330078,0.7353516,0.8984375,1.3515625,1.2646484
			c0.9970703-1.9189453,2.4941406-4.1767578,2.5097656-4.2001953l0.2158203-0.3251953l0.2050781,0.3330078
			c0.3076172,0.5,0.5078125,0.9658203,0.6298828,1.2988281c4.8535156-7.144043,6.4960938-13.4760742,4.8828125-18.8276367
			C44.0761719,14.6835938,38.5556641,11.765625,37.1474609,11.1074219z"/>
	</g>
	<g>
		<linearGradient id="SVGID_2_" gradientUnits="userSpaceOnUse" x1="22.7805443" y1="10.7292004" x2="22.7805443" y2="42.7947998">
			<stop  offset="0" style="stop-color:#807540"/>
			<stop  offset="0.131687" style="stop-color:#C9B965"/>
			<stop  offset="0.251029" style="stop-color:#C9B965"/>
			<stop  offset="0.740741" style="stop-color:#807640"/>
		</linearGradient>
		<path style="fill:url(#SVGID_2_);" d="M23.0671997,40.1206017c0,0,0.1907997-0.8091011,0.7593994-1.7331009
			c0,0,1.5611,2.3775978,2.6141014,4.407299c0,0,1.6882992-0.9084015,1.7047997-1.6190987l-0.2026997-30.4465008
			C27.9428005,10.7292004,7.9511299,18.3367996,23.0671997,40.1206017z"/>
		<path style="fill:#72402D;" d="M26.3359375,43.1357422l-0.1166992-0.2255859
			c-0.8017578-1.5458984-1.9121094-3.3125-2.3798828-4.0419922c-0.3862305,0.7216797-0.5273438,1.3027344-0.5288086,1.3095703
			l-0.1293945,0.5449219l-0.3193359-0.4599609c-5.0683594-7.3041992-6.7680664-13.8188477-5.0517578-19.3632813
			c2.2836914-7.3754883,9.9667969-10.3745117,10.0439453-10.4042969l0.3364258-0.1279297l0.2050781,30.8066406
			c-0.019043,0.8232422-1.5327148,1.6777344-1.8359375,1.8408203L26.3359375,43.1357422z M23.8198242,37.921875L24.0356445,38.25
			c0.0151367,0.0234375,1.4643555,2.2353516,2.5068359,4.2001953c0.6166992-0.3662109,1.3452148-0.9335938,1.3530273-1.2802734
			l-0.2001953-30.0644531c-1.4868164,0.6635742-7.4707031,3.6787109-9.4086914,9.9467773
			c-1.6337891,5.2827148-0.0537109,11.5058594,4.6967773,18.503418c0.1220703-0.3330078,0.3222656-0.7988281,0.6303711-1.2988281
			L23.8198242,37.921875z"/>
	</g>
</g>
<g>
	<g>
		<path style="fill:#FFE6D9;" d="M39.8610992,47.5803986c-5.2738991-1.5990982-2.6574974-9.3815994-2.6574974-9.3815994
			L32,39.0224991l-5.2035999-0.8237c0,0,2.6163998,7.7825012-2.6574993,9.3815994
			c-5.273901,1.5992012-11.7419004,2.2388-11.7419004,8.9552002l-0.1218004,8.8294983h39.4496002l-0.1217995-8.8294983
			C51.6030006,49.8191986,45.1349983,49.1795998,39.8610992,47.5803986z"/>
		<path style="fill:#EDBBAB;" d="M32,41.7122002l-4.6313-0.7331009c0.1061001,0.9799995,0.1135006,2.0903015-0.1252995,3.1374016
			c0.1329002,0.6690979,0.292099,1.2571983,0.4736996,1.5393982C28.2866993,46.5405998,30.3749008,48.4981003,32,48.4981003
			s3.7132988-1.9575005,4.2829018-2.8422012c0.1815987-0.2821999,0.3407974-0.8703003,0.4736977-1.5393982
			c-0.2388-1.0471001-0.2313995-2.157402-0.1252975-3.1374016L32,41.7122002z"/>
		<path style="fill:#BC816F;" d="M51.9785156,65.6152344h-39.956543l0.125-9.0839844
			c0-5.9580078,4.9052734-7.2773438,9.6489258-8.5537109c0.7661133-0.2070313,1.5297852-0.4121094,2.2700195-0.6367188
			c1.1411133-0.3457031,1.9814453-1.0283203,2.4975586-2.0292969c1.4111328-2.734375,0.0102539-6.9902344-0.0039063-7.0322266
			l-0.1313477-0.3916016L32,38.7695313l5.5712891-0.8818359l-0.1308594,0.3916016
			c-0.0146484,0.0419922-1.4160156,4.2978516-0.0048828,7.0322266c0.5166016,1.0009766,1.3574219,1.6835938,2.4980469,2.0292969
			c0.7402344,0.2246094,1.5039063,0.4296875,2.2705078,0.6367188c4.7431641,1.2763672,9.6484375,2.5957031,9.6484375,8.5576172
			L51.9785156,65.6152344z M12.5288086,65.1152344h38.9418945l-0.1181641-8.5761719
			c0-5.5820313-4.5068359-6.7949219-9.2783203-8.0791016c-0.7714844-0.2080078-1.5400391-0.4150391-2.2851563-0.640625
			c-1.2763672-0.3867188-2.2177734-1.1533203-2.7978516-2.2792969c-1.2646484-2.4511719-0.4697266-5.8798828-0.1435547-7.03125
			L32,39.2753906l-0.0390625-0.0058594l-4.8095703-0.7607422c0.3261719,1.1513672,1.1210938,4.5800781-0.1425781,7.03125
			c-0.5805664,1.1259766-1.5219727,1.8925781-2.7973633,2.2792969c-0.7456055,0.2255859-1.5146484,0.4326172-2.2856445,0.640625
			c-4.7719727,1.2841797-9.2788086,2.4970703-9.2788086,8.0751953L12.5288086,65.1152344z"/>
	</g>
	<g>
		<g>
			<path style="fill:#EDBBAB;" d="M43.4542999,26.8591003c0,0,0.7397995-2.2663002,2.2608986-2.4134007
				c1.5211029-0.1471996,2.4628029,5.3521996-0.4023972,7.7822018c-1.8137016,1.5380974-2.4835014,0.0183983-2.4835014,0.0183983
				L43.4542999,26.8591003z"/>
			<path style="fill:#BC816F;" d="M43.8535156,33.1660156c-0.8818359,0-1.2382813-0.7856445-1.2529297-0.8188477l-0.0273438-0.0625
				l0.6328125-5.4545898c0.0429688-0.1474609,0.8203125-2.472168,2.484375-2.6333008l0.0839844-0.0039063
				c0.5253906,0,0.984375,0.4609375,1.2919922,1.2983398c0.6289063,1.715332,0.5585938,5.1035156-1.5917969,6.9272461
				C44.8896484,32.9145508,44.34375,33.1660156,43.8535156,33.1660156z M43.0859375,32.1987305
				c0.078125,0.1333008,0.3173828,0.4672852,0.7675781,0.4672852c0.3691406,0,0.8056641-0.2114258,1.296875-0.6289063
				c1.9697266-1.6699219,2.0273438-4.7905273,1.4462891-6.3740234c-0.2226563-0.6074219-0.5302734-0.9702148-0.8222656-0.9702148
				c-1.3779297,0.1313477-2.0761719,2.2226563-2.0830078,2.2436523L43.0859375,32.1987305z"/>
		</g>
		<g>
			<path style="fill:#EDBBAB;" d="M20.6714001,26.8591003c0,0-0.7397003-2.2663002-2.2607994-2.4134007
				c-1.5212002-0.1471996-2.462801,5.3521996,0.4023991,7.7822018c1.8136005,1.5380974,2.4834995,0.0183983,2.4834995,0.0183983
				L20.6714001,26.8591003z"/>
			<path style="fill:#BC816F;" d="M20.2714844,33.1660156L20.2714844,33.1660156
				c-0.4902344,0-1.0351563-0.2514648-1.6201172-0.7470703c-2.1508789-1.8242188-2.2211914-5.2124023-1.5917969-6.9277344
				c0.3071289-0.8374023,0.765625-1.2983398,1.2910156-1.2983398l0.0839844,0.0039063
				c1.6650391,0.1611328,2.4423828,2.4858398,2.4746094,2.5844727l0.6435547,5.503418l-0.0273438,0.0625
				C21.5102539,32.3803711,21.1538086,33.1660156,20.2714844,33.1660156z M18.3842773,24.6948242
				c-0.3266602,0-0.6328125,0.3623047-0.8554688,0.9682617c-0.5810547,1.5834961-0.5234375,4.7041016,1.4458008,6.3745117
				c0.4921875,0.4169922,0.9282227,0.628418,1.296875,0.628418c0.4511719,0,0.6904297-0.3339844,0.7675781-0.4672852
				l-0.6162109-5.3110352v0.0004883c-0.0053711,0-0.7060547-2.0649414-2.0361328-2.1933594
				C18.3857422,24.6948242,18.3852539,24.6948242,18.3842773,24.6948242z"/>
		</g>
		<g>
			<path style="fill:#EDBBAB;" d="M43.2196007,9.0474796C40.1725006,7.0345998,37.580101,6.3043199,32,6.3043199
				s-8.1725006,0.7302799-11.2196007,2.7431598c-3.730999,2.4648199-2.6289997,13.3158207-0.655899,22.061821
				c1.1164989,4.948698,2.5319004,5.9645977,4.4527988,7.7175007C27.4983006,41.4922981,30.1508007,42.4339981,32,42.4339981
				c1.8492012,0,4.5017014-0.9417,7.422699-3.6071968c1.9209023-1.752903,3.3362999-2.7688026,4.4528008-7.7175007
				C45.8485985,22.3633003,46.9505997,11.5122995,43.2196007,9.0474796z"/>
			<path style="fill:#BC816F;" d="M32,42.6835938c-1.3320313,0-4.0893555-0.4765625-7.5913086-3.671875l-0.3525391-0.3193359
				c-1.7382813-1.5703125-3.1108398-2.8105469-4.175293-7.527832c-1.0053711-4.4555664-3.9208984-19.2324219,0.7617188-22.3256836
				C23.8339844,6.730957,26.59375,6.0541992,32,6.0541992s8.1660156,0.6767578,11.3574219,2.784668
				c4.6816406,3.0932617,1.7675781,17.8701172,0.7626953,22.3256836c-1.0654297,4.7172852-2.4384766,5.9575195-4.1757813,7.527832
				l-0.3525391,0.3193359C36.0898438,42.2070313,33.3320313,42.6835938,32,42.6835938z M32,6.5541992
				c-5.3579102,0-7.9472656,0.6313477-11.0820313,2.7016602c-3.5083008,2.3178711-2.5839844,12.7802734-0.5498047,21.7983398
				c1.0297852,4.5629883,2.2856445,5.6967773,4.0234375,7.2670898l0.3540039,0.3212891
				c2.4667969,2.25,5.1108398,3.5410156,7.2543945,3.5410156s4.7880859-1.2910156,7.2539063-3.5410156l0.3544922-0.3212891
				c1.7382813-1.5703125,2.9931641-2.7041016,4.0234375-7.2670898c2.0341797-9.0180664,2.9580078-19.4804688-0.5498047-21.7983398
				C39.9472656,7.1855469,37.3583984,6.5541992,32,6.5541992z"/>
		</g>
		<path style="fill:#FFE6D9;" d="M43.486599,25.1308994c-0.2818985-2.2479992-1.1311989-4.8899994-2.5251007-7.862999
			c-1.5339966,3.1450005-4.9312973,7.7601986-7.7820969,9.3431988L29.2350006,28.8013l3.1344986-3.2457008
			c0.0188026-0.0196991,1.1679993-1.2196999,2.5330009-3.1595001c-2.8302994,2.3706017-5.5345001,3.7680016-5.6998997,3.8529015
			l-1.4083996,0.719799l0.4587994-1.5138988c0.9167004-3.0234013,2.0601997-5.9078999,3.4064007-8.5981007
			c-0.6138,0.2280998-1.2197018,0.4465008-1.8151016,0.6606007c-4.5928993,1.6546993-8.3415985,3.0053997-9.5911999,6.547699
			c0.2886009,2.2572994,0.6815014,4.5468998,1.1233006,6.7063007c0.9988003,4.8814011,2.2649994,5.8834,3.9834003,7.6124001
			c2.6131001,2.6292,4.985899,3.5580978,6.6401997,3.5580978s4.0270996-0.9288979,6.6402016-3.5580978
			c1.718399-1.7290001,2.9846001-2.730999,3.9833984-7.6124001c0.3446999-1.6846008,0.6576996-3.4483013,0.9165001-5.214201
			L43.486599,25.1308994z M32,34.4793015c-0.4780998,0-1.2238007-0.2042999-1.2238007-0.4659004
			c0-0.3432999,1.0111008-0.8702011,1.2238007-0.8702011s1.2238007,0.5269012,1.2238007,0.8702011
			C33.2238007,34.2750015,32.4780998,34.4793015,32,34.4793015z"/>
		<g>
			<linearGradient id="SVGID_3_" gradientUnits="userSpaceOnUse" x1="31.4257813" y1="33.5178986" x2="31.4257813" y2="28.5382004">
				<stop  offset="0" style="stop-color:#FFFFFF;stop-opacity:0"/>
				<stop  offset="0.4" style="stop-color:#FFFFFF;stop-opacity:0.2"/>
				<stop  offset="0.6" style="stop-color:#FFFFFF;stop-opacity:0.2"/>
				<stop  offset="1" style="stop-color:#FFFFFF;stop-opacity:0"/>
			</linearGradient>
			<path style="fill:url(#SVGID_3_);" d="M32.1651993,31.0280991c0,1.3750992-0.8836994,2.4897995-1.2793999,2.4897995
				c-0.3956985,0-0.1169987-1.5447979,0.1023006-2.8787994c0.2047997-1.2449989,0.3719997-2.1008987,0.7677002-2.1008987
				S32.1651993,29.6529999,32.1651993,31.0280991z"/>
		</g>
	</g>
</g>
<g>
	<g>
		<linearGradient id="SVGID_4_" gradientUnits="userSpaceOnUse" x1="32.0108185" y1="2.3388829" x2="32.0108185" y2="32.4990005">
			<stop  offset="0" style="stop-color:#807540"/>
			<stop  offset="0.131687" style="stop-color:#C9B965"/>
			<stop  offset="0.251029" style="stop-color:#C9B965"/>
			<stop  offset="0.9" style="stop-color:#807640"/>
		</linearGradient>
		<path style="fill:url(#SVGID_4_);" d="M48.5693016,16.2628002C47.0069008,7.57125,42.0163002,5.0633302,38.6495018,4.3833899
			c-1.1285019-1.33303-2.769001-2.4549799-4.9438019-1.89867c-1.5446014,0.3951499-4.0538006,0.6488199-6.7012005,1.6812799
			c-3.0725994,0.1866202-9.7073994,1.81007-11.5653992,12.0606003c-0.7828007,3.280899,1.1929989,16.0727005,1.1929989,16.0727005
			s1.9653015-7.5087013,2.1638012-8.4973011c0.2421989,0.6014004,0.4109993,0.9517994,0.4109993,0.9517994
			c0.7462997-6.3022003,7.0361996-7.3437996,13.7445011-10.0089998c0.0478973-0.0190001,0.0876007-0.0422993,0.1348-0.0615997
			c-1.4782009,2.7034998-2.9689999,6.0453005-4.1896,10.0705996c0,0,5.8631001-2.9963989,9.3558979-7.6971989
			C36.1010017,21.7686996,32.8529015,25.1264,32.8529015,25.1264c3.1448975-1.7462997,6.9861984-7.3887005,8.0143967-10.2316999
			c0.1097031,0.1271,0.2127037,0.2630997,0.3199005,0.3935003c1.4029007,2.8544998,2.6055031,5.9895,2.966301,8.8624992
			c0,0,0.1379013-1.5548992,0.080101-3.7544994c0.7865982,1.9769001,3.1263008,12.1028004,3.1263008,12.1028004
			S49.3936996,19.7299004,48.5693016,16.2628002z"/>
		<path style="fill:#72402D;" d="M47.4052734,33.8046875l-0.2880859-1.2495117
			c-0.0195313-0.0839844-1.6396484-7.0844727-2.6240234-10.5234375c-0.0175781,1.2944336-0.0898438,2.1298828-0.0908203,2.1411133
			l-0.2060547,2.3286133l-0.2910156-2.3193359c-0.3125-2.4902344-1.3017578-5.4458008-2.9423828-8.7836914l-0.015625-0.0185547
			c-1.2490234,3.0336914-4.9326172,8.2768555-7.9726563,9.965332l-1.46875,0.8154297l1.1674805-1.2080078
			c0.0273438-0.0283203,2.3706055-2.4726563,4.3666992-6.0576172c-3.4638672,3.722168-7.9780273,6.0551758-8.0297852,6.081543
			l-0.5234375,0.2675781l0.1704102-0.5629883c1.0214844-3.3686523,2.3256836-6.5629883,3.8803711-9.5058594
			c-0.9624023,0.3730469-1.9130859,0.715332-2.8374023,1.0483398c-5.387207,1.940918-9.6430664,3.4741211-10.2451172,8.5595703
			l-0.1005859,0.8520508l-0.3725586-0.7729492c0,0-0.0429688-0.0888672-0.1166992-0.2548828
			c-0.5209961,2.1352539-1.9223633,7.4916992-1.9912109,7.7553711l-0.3046875,1.1655273l-0.184082-1.190918
			c-0.0810547-0.5244141-1.9746094-12.878418-1.1894531-16.1689453C17.0947266,5.6889648,24.0166016,4.1069336,26.9501953,3.9189453
			c1.8544922-0.71875,3.6333008-1.0600586,5.0649414-1.3344727c0.6269531-0.1201172,1.1694336-0.2241211,1.6293945-0.3417969
			c1.8837891-0.4814453,3.6386719,0.1738281,5.1396484,1.9130859c3.0917969,0.6489258,8.4169922,3.0839844,10.03125,12.0625
			c0.8232422,3.4619141-1.125,15.796875-1.2080078,16.3203125L47.4052734,33.8046875z M43.9462891,19l0.5195313,1.3037109
			c0.625,1.5703125,2.1845703,8.0766602,2.8417969,10.8696289c0.4853516-3.3222656,1.6689453-12.1176758,1.0185547-14.8530273
			C46.8251953,7.9750977,42.2089844,5.3574219,38.5996094,4.628418l-0.0849609-0.0170898l-0.0556641-0.0664063
			c-1.3876953-1.6396484-2.9716797-2.2592773-4.6914063-1.8178711c-0.4746094,0.121582-1.0229492,0.2265625-1.6586914,0.3486328
			c-1.4204102,0.2724609-3.1884766,0.6113281-5.0136719,1.3232422l-0.0756836,0.0166016
			c-2.7924805,0.1694336-9.4873047,1.6640625-11.3344727,11.8554688c-0.6240234,2.6162109,0.5498047,11.5083008,1.015625,14.7749023
			c0.5620117-2.1582031,1.703125-6.5620117,1.8500977-7.293457l0.1645508-0.8198242l0.3125,0.7758789
			c0.0239258,0.059082,0.046875,0.1162109,0.0693359,0.1704102c1.0014648-4.7275391,5.3925781-6.3095703,10.4335938-8.1259766
			c1.081543-0.3896484,2.199707-0.7924805,3.328125-1.2407227l0.7875977-0.3334961l-0.3408203,0.6245117
			c-1.5917969,2.9106445-2.9316406,6.0820313-3.9882813,9.4355469c1.519043-0.8598633,5.9287109-3.5556641,8.7353516-7.3310547
			l1.4101563-1.8989258l-0.9824219,2.1518555c-1.2421875,2.7197266-2.8623047,5.0078125-4.0117188,6.4584961
			c2.6191406-2.3662109,5.3339844-6.5166016,6.1630859-8.8095703l0.1464844-0.402832l0.2783203,0.3251953
			c0.0683594,0.0791016,0.1337891,0.1611328,0.1992188,0.2431641l0.125,0.1538086
			c1.2392578,2.5117188,2.109375,4.7949219,2.6132813,6.8359375c0.0058594-0.4677734,0.0039063-0.9941406-0.0107422-1.5625
			L43.9462891,19z"/>
	</g>
	<linearGradient id="SVGID_5_" gradientUnits="userSpaceOnUse" x1="44.7966805" y1="6.7490902" x2="44.7966805" y2="16.4860992">
		<stop  offset="0" style="stop-color:#FFFFFF;stop-opacity:0.6"/>
		<stop  offset="1" style="stop-color:#FFFFFF;stop-opacity:0"/>
	</linearGradient>
	<path style="fill:url(#SVGID_5_);" d="M41.9595985,6.7490902c0,0,4.2550011,2.0611095,5.676403,9.737009
		C47.6360016,16.4860992,41.8269005,9.7341499,41.9595985,6.7490902z"/>
	
		<linearGradient id="SVGID_6_" gradientUnits="userSpaceOnUse" x1="38.5007057" y1="6.2467818" x2="38.5007057" y2="15.7983179" gradientTransform="matrix(0.9994 0.0332 -0.0332 0.9994 -1.1817069 -0.8298)">
		<stop  offset="0" style="stop-color:#FFFFFF;stop-opacity:0.6"/>
		<stop  offset="1" style="stop-color:#FFFFFF;stop-opacity:0"/>
	</linearGradient>
	<path style="fill:url(#SVGID_6_);" d="M40.296299,6.7980199c0,0-2.1515007,6.2846799-6.7327003,9.3326797
		C33.5635986,16.1306992,36.229599,7.8719602,40.296299,6.7980199z"/>
	<linearGradient id="SVGID_7_" gradientUnits="userSpaceOnUse" x1="29.0872993" y1="5.9011202" x2="29.0872993" y2="14.5778999">
		<stop  offset="0" style="stop-color:#FFFFFF;stop-opacity:0.6"/>
		<stop  offset="1" style="stop-color:#FFFFFF;stop-opacity:0"/>
	</linearGradient>
	<path style="fill:url(#SVGID_7_);" d="M34.9892998,5.9011202c0,0-5.036499,1.0619698-6.2516003,2.48561
		c-1.2150993,1.4236403-5.5523987,6.1911697-5.5523987,6.1911697S33.5428009,9.8103704,34.9892998,5.9011202z"/>
	<linearGradient id="SVGID_8_" gradientUnits="userSpaceOnUse" x1="19.3210506" y1="6.8628201" x2="19.3210506" y2="16.8749008">
		<stop  offset="0" style="stop-color:#FFFFFF;stop-opacity:0.6"/>
		<stop  offset="1" style="stop-color:#FFFFFF;stop-opacity:0"/>
	</linearGradient>
	<path style="fill:url(#SVGID_8_);" d="M22.3323002,6.8628201c0,0-4.9932995,2.5106902-6.022501,10.0120811
		C16.3097992,16.8749008,22.1541996,10.4720001,22.3323002,6.8628201z"/>
</g>
<path style="fill:#BC816F;" d="M32,36.9600983c-2.5979996,0-3.9944992,0.703701-3.9944992,0.703701
	S28.2812996,36.2563019,32,36.2563019s3.9944992,1.4074974,3.9944992,1.4074974S34.5979996,36.9600983,32,36.9600983z"/>
<g>
	<path style="fill:#C9B965;" d="M42.5642014,20.9864998c0,0-6.0445023,1.2241001-7.9502029-3.0282001
		C34.6139984,17.9582996,37.25,20.2917004,42.5642014,20.9864998z"/>
	<path style="fill:#C9B965;" d="M21.4358006,20.9864998c0,0,6.0445004,1.2241001,7.9501991-3.0282001
		C29.3859997,17.9582996,26.75,20.2917004,21.4358006,20.9864998z"/>
</g>
<g>
	<path style="fill:#72402D;" d="M42.3648987,25.8673992c0.5951996-0.3659,0.8291016-0.601799,0.8291016-0.601799
		l-0.9261017,0.2691002C39.7969017,27.1870995,35.125,25.8635998,35.125,25.8635998
		c0.1996994,0.2691994,0.5634003,0.4904995,1.0153999,0.6637993c-0.6814003-0.1547985-1.0621986-0.3142986-1.2237015-0.3431988
		c1.1771011,1.0345993,2.9791031,1.3839989,4.4166031,1.3782997c1.3274994-0.0053005,2.2136002-0.4062004,3.0261002-1.0468998
		l1.2109985-0.5060997C43.5331001,25.9722004,42.766201,25.8483009,42.3648987,25.8673992z"/>
	<path style="fill:#72402D;" d="M28.875,25.8635998c0,0-4.6718998,1.3234997-7.1429005-0.3288994l-0.9260998-0.2691002
		c0,0,0.2339001,0.235899,0.8290997,0.601799c-0.4012985-0.0190983-1.1681995,0.1048012-1.2054996,0.1421013l1.2110004,0.5060997
		c0.8125,0.6406994,1.6985989,1.0415993,3.0261002,1.0468998c1.4375,0.0056992,3.2395992-0.3437004,4.4165993-1.3782997
		c-0.161499,0.0289001-0.5422993,0.1884003-1.2236996,0.3431988C28.3115997,26.3540993,28.6753006,26.1327991,28.875,25.8635998z"/>
</g>
<g>
	<path style="fill:#FFE6D9;" d="M25.9042625,37.9097023c-3.1213627-1.5046196-3.9133911-3.8942528-4.0611935-4.8249435
		c-0.3859997-2.4355984-0.4224701-5.9738312-0.4224701-5.9738312s-0.6839542-2.3467846-0.8586845-3.0371494
		c-0.1750908-0.6905842,2.0044823-1.5963421,2.9163399,0.9510574c0.6701832,1.871994,0.635603,2.3318233,0.635603,2.3318233
		l1.3562622,0.3175812l0.7561359-1.6507549c0,0,1.6935539-5.3942242,1.7946148-6.5068684
		c0.1005955-1.1126347,0.450779-3.0850296,1.8149223-2.3184052c1.3642654,0.766449,0.6869812,3.4519539,0.6869812,3.4519539
		s-0.8471451,4.1474762-1.3145618,5.1920967l0.6778145,0.1000786c0,0,1.0661469-2.4739933,1.7207851-4.1528301
		c0.6541252-1.6788597,1.4638672-3.8668575,1.6576614-4.6444569c0.1937599-0.7776222,1.9175758-0.8901596,1.8851395,0.9087105
		c-0.0327187,1.7989635-1.2526932,4.3316917-1.2526932,4.3316917l-1.6989861,4.5485973l0.6561928,0.4542961
		c0,0,2.1082993-2.9183426,2.7076416-4.0915527c0.5988655-1.1732082,1.7584-2.744812,2.1435699-3.394043
		c0.3854675-0.648859,1.6144104,0.4156322,1.2690163,1.8094234c-0.3450432,1.3939571-1.6985321,2.8463726-1.6985321,2.8463726
		l-2.6992912,4.3586216l0.3124695,0.6495495c2.5187416-2.4143963,2.1710968-2.0226383,3.0489006-3.2567902
		c0.788269-1.1078262,1.616478-1.9614086,1.9603539-2.449028c0.3437843-0.4874287,1.6444588,0.5021267,0.9353561,1.9750481
		c-0.9222794,1.9142685-4.6930351,6.0844479-4.6930351,6.0844479s-0.9180794,2.2436485-1.7621269,3.5422478
		c-0.8435173,1.2983818-1.8108444,2.5125656-2.791584,3.0812416C30.121376,39.3938026,28.8787193,39.3435059,25.9042625,37.9097023z
		"/>
	<path style="fill:#EDBBAB;" d="M33.3734398,36.8702927c-0.7803955,0.4892807-2.9310551,2.5684776-6.7195225,0.5658951
		c-3.788063-2.0024376-2.586256-3.6050835-3.3755398-4.3847084c-0.7890797-0.779953-1.4488792-1.8963242-1.4488792-1.8963242
		s-0.7988625,4.369133,4.737606,7.0740623C31.3830032,40.6229362,33.3734398,36.8702927,33.3734398,36.8702927z"/>
	<path style="fill:#BC816F;" d="M29.6943359,39.3525391c-0.9624023,0-2.1279297-0.3642578-3.8984375-1.2167969
		c-3.5092773-1.6923828-4.1137695-4.4716797-4.199707-5.0117188c-0.3642578-2.2973633-0.4199219-5.6015625-0.425293-5.9760742
		c-0.0864258-0.2973633-0.6865234-2.3623047-0.8510742-3.0126953c-0.0478516-0.1875,0.0014648-0.387207,0.1381836-0.5634766
		c0.2304688-0.2954102,0.6782227-0.4868164,1.1411133-0.4868164c0.4360352,0,1.5151367,0.1811523,2.1142578,1.8554688
		c0.4550781,1.2714844,0.59375,1.9155273,0.6342773,2.2138672l0.9804688,0.2299805l0.6704102-1.4648438
		c0.0058594-0.0244141,1.6757813-5.3520508,1.7734375-6.425293c0.1630859-1.8037109,0.6665039-2.7182617,1.4970703-2.7182617
		c0.2158203,0,0.4477539,0.0688477,0.6894531,0.2045898c1.5136719,0.8500977,0.8364258,3.6137695,0.8066406,3.730957
		c-0.0292969,0.1469727-0.7299805,3.5634766-1.2104492,4.9291992l0.1777344,0.0263672
		c0.2548828-0.5957031,1.0961914-2.5703125,1.6416016-3.9682617c0.6875-1.765625,1.4638672-3.8769531,1.6484375-4.6142578
		c0.1054688-0.4267578,0.5380859-0.7250977,1.0507813-0.7250977c0.3369141,0,0.6513672,0.1313477,0.8857422,0.3701172
		c0.2080078,0.2114258,0.453125,0.6137695,0.4404297,1.3286133c-0.0332031,1.8325195-1.2265625,4.3300781-1.2773438,4.4355469
		L32.5,26.8393555l0.2939453,0.2036133c0.4833984-0.6757813,2.0517578-2.8925781,2.5449219-3.8598633
		c0.3994141-0.7836914,1.0332031-1.7231445,1.5419922-2.4780273c0.2578125-0.3823242,0.4785156-0.7094727,0.609375-0.9296875
		c0.2714844-0.4604492,0.9306641-0.3891602,1.3691406,0.1704102c0.3847656,0.4926758,0.5185547,1.175293,0.3583984,1.8266602
		c-0.3574219,1.4399414-1.7021484,2.8955078-1.7597656,2.956543l-2.5976563,4.203125l0.1044922,0.2163086l0.6015625-0.5756836
		C37,27.2041016,37,27.2041016,37.5429688,26.4345703l0.1904297-0.2695313
		c0.4755859-0.6674805,0.9619141-1.2402344,1.3525391-1.7001953c0.2548828-0.300293,0.4755859-0.5595703,0.6083984-0.7480469
		c0.2802734-0.3969727,0.9824219-0.2158203,1.3417969,0.3549805c0.3320313,0.5297852,0.3408203,1.2119141,0.0234375,1.8725586
		c-0.8955078,1.8564453-4.3242188,5.6889648-4.7041016,6.1113281c-0.1328125,0.3198242-0.9726563,2.3203125-1.7666016,3.5429688
		c-1.0488281,1.6132813-1.9897461,2.6474609-2.8764648,3.1611328
		C31.0058594,39.1699219,30.3833008,39.3525391,29.6943359,39.3525391z M21.5991211,23.5849609
		c-0.3579102,0-0.6323242,0.1474609-0.7460938,0.2939453c-0.019043,0.0239258-0.0610352,0.0849609-0.0488281,0.1333008
		c0.171875,0.6782227,0.8496094,3.0053711,0.8564453,3.0288086c0.0063477,0.0219727,0.0092773,0.0444336,0.0097656,0.0673828
		c0.0004883,0.0351563,0.0410156,3.5478516,0.4199219,5.9375c0.0786133,0.4970703,0.6376953,3.0556641,3.9223633,4.6386719
		c1.6982422,0.8193359,2.7993164,1.1679688,3.6816406,1.1679688c0.6040039,0,1.1323242-0.1572266,1.7670898-0.5244141
		c0.8061523-0.4677734,1.7172852-1.4775391,2.7075195-3.0019531c0.8212891-1.2636719,1.7314453-3.4780273,1.7402344-3.5004883
		c0.0107422-0.0268555,0.0263672-0.0512695,0.0458984-0.0727539c0.0371094-0.0415039,3.7568359-4.1660156,4.6533203-6.0253906
		c0.34375-0.7133789,0.1171875-1.2094727,0.0039063-1.3896484c-0.1435547-0.2290039-0.3447266-0.3525391-0.4609375-0.3525391
		c-0.1943359,0.2265625-0.4101563,0.480957-0.6845703,0.8032227c-0.3837891,0.4526367-0.8623047,1.0161133-1.3251953,1.6665039
		l-0.1894531,0.2675781c-0.5712891,0.8095703-0.5712891,0.8095703-2.0400391,2.2119141l-0.8505859,0.8129883
		c-0.0576172,0.0551758-0.1347656,0.078125-0.2177734,0.0654297c-0.078125-0.0141602-0.1455078-0.0654297-0.1806641-0.1376953
		l-0.3125-0.6499023c-0.0371094-0.0771484-0.0322266-0.1674805,0.0126953-0.2402344L37.0625,24.4267578
		c0.0429688-0.0527344,1.34375-1.4614258,1.6699219-2.7744141c0.1240234-0.503418,0.0244141-1.0258789-0.2675781-1.3979492
		c-0.1601563-0.2050781-0.3330078-0.2963867-0.4335938-0.2963867c-0.0351563,0-0.0732422,0.0087891-0.1113281,0.0727539
		c-0.1337891,0.2255859-0.3603516,0.5615234-0.6240234,0.9536133c-0.5019531,0.7441406-1.1259766,1.6694336-1.5117188,2.4262695
		c-0.6005859,1.1767578-2.640625,4.0043945-2.7275391,4.1240234c-0.0795898,0.1103516-0.2338867,0.1357422-0.3447266,0.059082
		l-0.65625-0.4541016c-0.0942383-0.0649414-0.1323242-0.1860352-0.0922852-0.2929688l1.6987305-4.5488281
		c0.0214844-0.0458984,1.2060547-2.5263672,1.2373047-4.2485352c0.0078125-0.4287109-0.0947266-0.7641602-0.296875-0.9697266
		c-0.3310547-0.3374023-1.0087891-0.2197266-1.0957031,0.1259766c-0.2021484,0.8105469-1.0244141,3.0249023-1.6669922,4.6748047
		c-0.6489258,1.6635742-1.7133789,4.1362305-1.7241211,4.1611328c-0.0454102,0.1035156-0.1582031,0.1606445-0.2661133,0.1484375
		l-0.6782227-0.1000977c-0.0771484-0.0117188-0.1450195-0.0585938-0.1826172-0.1274414
		c-0.0375977-0.0683594-0.0410156-0.1508789-0.0087891-0.222168c0.4511719-1.0078125,1.2895508-5.0986328,1.2978516-5.1396484
		c0.0087891-0.0361328,0.6166992-2.5205078-0.5644531-3.1845703c-0.1655273-0.0927734-0.3154297-0.1401367-0.4443359-0.1401367
		c-0.5048828,0-0.8691406,0.824707-0.9990234,2.2631836c-0.1025391,1.1264648-1.7358398,6.3378906-1.8056641,6.559082
		l-0.7666016,1.6801758c-0.0498047,0.1079102-0.1708984,0.1655273-0.284668,0.1396484l-1.3564453-0.3178711
		c-0.1196289-0.0283203-0.2016602-0.1396484-0.1923828-0.262207c0-0.012207,0.0024414-0.4858398-0.621582-2.2285156
		C22.8959961,24.140625,22.296875,23.5849609,21.5991211,23.5849609z"/>
</g>
<g>
	<g>
		<linearGradient id="SVGID_9_" gradientUnits="userSpaceOnUse" x1="32" y1="47.5213509" x2="32" y2="65.365097">
			<stop  offset="0" style="stop-color:#7D7D7D"/>
			<stop  offset="1" style="stop-color:#2B2B2B"/>
		</linearGradient>
		<path style="fill:url(#SVGID_9_);" d="M52.0998993,56.4868011c0-6.686203-6.5005989-7.3832016-11.8777008-8.9569016
			c-0.0924988-0.0270004-0.1867981,0.0111008-0.2285995,0.0979996C39.5891991,48.4690018,37.3054008,52.6666985,32,52.6666985
			s-7.5891991-4.1976967-7.9936008-5.0387993c-0.0417995-0.0868988-0.1360989-0.125-0.2285995-0.0979996
			c-5.3771,1.5737-11.8776999,2.2706985-11.8776999,8.9569016l-0.125,8.8782959h40.4497986L52.0998993,56.4868011z"/>
		<path d="M52.4785156,65.6152344H11.5214844l0.128418-9.1328125c0-5.9912109,5.0288086-7.3173828,9.8920898-8.6005859
			c0.7294922-0.1923828,1.4575195-0.3847656,2.1655273-0.5917969l0.1293945-0.0185547
			c0.1704102,0,0.3217773,0.0957031,0.3950195,0.2490234C24.625,48.3378906,26.8476563,52.4169922,32,52.4169922
			s7.375-4.0791016,7.7675781-4.8974609c0.0742188-0.1533203,0.2255859-0.2480469,0.3955078-0.2480469l0.1298828,0.0185547
			c0.7080078,0.2070313,1.4355469,0.3994141,2.1650391,0.5917969c4.8632813,1.2832031,9.8916016,2.609375,9.8916016,8.6044922
			L52.4785156,65.6152344z M12.0283203,65.1152344h39.9423828l-0.1210938-8.625c0-5.6142578-4.6240234-6.8339844-9.5185547-8.125
			c-0.7197266-0.1894531-1.4365234-0.3789063-2.1347656-0.5820313C39.7226563,48.7441406,37.3603516,52.9169922,32,52.9169922
			c-5.3623047,0-7.7250977-4.1748047-8.1967773-5.1357422c-0.6914063,0.2041016-1.4116211,0.3935547-2.1337891,0.5839844
			c-4.8955078,1.2919922-9.5195313,2.5117188-9.5195313,8.1210938L12.0283203,65.1152344z"/>
	</g>
	<path d="M32,54.6669922c-7.5927734,0-9.8598633-6.5566406-9.8818359-6.6230469l0.4746094-0.1582031
		c0.0854492,0.2568359,2.1826172,6.28125,9.4072266,6.28125s9.3212891-6.0244141,9.4072266-6.28125l0.4746094,0.1582031
		C41.859375,48.1103516,39.5927734,54.6669922,32,54.6669922z"/>
</g>
<g>
	<g>
		
			<linearGradient id="SVGID_10_" gradientUnits="userSpaceOnUse" x1="30.4674377" y1="35.2914619" x2="30.4674377" y2="42.6121025" gradientTransform="matrix(0.929814 -0.3680296 0.3680296 0.929814 -16.5371323 13.9847317)">
			<stop  offset="0" style="stop-color:#7D7D7D"/>
			<stop  offset="1" style="stop-color:#2B2B2B"/>
		</linearGradient>
		<path style="fill:url(#SVGID_10_);" d="M21.9034348,38.6481934c0.7774925-1.3449364,1.4390278-2.3021851,1.9058647-2.6245193
			c2.0496178-1.4149284,6.6397591,1.485321,6.2600727,3.0388947c-0.0793324,0.3242569-0.4780483,1.3219185-1.076683,2.7296333
			L21.9034348,38.6481934z"/>
		<path d="M29.1235352,42.1230469l-7.5761719-3.3583984l0.1396484-0.2412109
			c0.8793945-1.5205078,1.5083008-2.3798828,1.9799805-2.7060547c0.40625-0.2802734,0.9135742-0.421875,1.5083008-0.421875
			c1.7626953,0,3.8027344,1.2089844,4.6821289,2.3291016c0.3974609,0.5058594,0.5546875,0.9892578,0.4545898,1.3974609
			c-0.0786133,0.3222656-0.4448242,1.2529297-1.0893555,2.7675781L29.1235352,42.1230469z M22.2602539,38.5332031
			l6.6015625,2.9277344c0.7094727-1.6757813,0.9169922-2.2626953,0.9648438-2.4580078
			c0.0610352-0.25-0.0678711-0.59375-0.362793-0.9697266c-0.8105469-1.0322266-2.7270508-2.1376953-4.2885742-2.1376953
			c-0.4912109,0-0.9033203,0.1123047-1.2241211,0.3339844C23.5771484,36.4873047,23.0083008,37.2617188,22.2602539,38.5332031z"/>
	</g>
	<g>
		
			<linearGradient id="SVGID_11_" gradientUnits="userSpaceOnUse" x1="13.2868061" y1="45.8093414" x2="20.7975769" y2="56.5358315" gradientTransform="matrix(0.929814 -0.3680296 0.3680296 0.929814 -16.5371323 13.9847317)">
			<stop  offset="0" style="stop-color:#7D7D7D"/>
			<stop  offset="1" style="stop-color:#2B2B2B"/>
		</linearGradient>
		<path style="fill:url(#SVGID_11_);" d="M9.6424971,59.4098587c3.3909826-5.7843628,10.588254-20.5961494,12.9774294-22.2454987
			c2.3890858-1.6493149,7.739624,1.7314072,7.2969837,3.5422058c-0.4426041,1.8108902-9.1389446,21.51968-11.3301163,25.6134186
			c-1.3800468,2.5783615-3.6582689,6.0187836-8.0482311,6.8153305C6.1485724,73.9318695,6.0741386,65.4968414,9.6424971,59.4098587z
			"/>
		<path d="M9.9799805,73.4384766c-1,0-1.8168945-0.5029297-2.3623047-1.4550781
			c-1.5361328-2.6806641-0.7241211-8.3779297,1.809082-12.6992188c1.0576172-1.8037109,2.5-4.5136719,4.0268555-7.3828125
			c3.4370117-6.4570313,7.3320313-13.7744141,9.0244141-14.9433594c0.4663086-0.3212891,1.0498047-0.484375,1.734375-0.484375
			c1.9770508,0,4.4008789,1.3955078,5.4243164,2.6992188c0.4550781,0.5791016,0.6362305,1.1308594,0.5229492,1.59375
			c-0.4692383,1.9189453-9.1694336,21.5927734-11.3525391,25.671875c-1.3876953,2.5917969-3.75,6.1308594-8.2241211,6.9433594
			C10.3764648,73.4189453,10.1738281,73.4384766,9.9799805,73.4384766z M24.2124023,36.9736328
			c-0.581543,0-1.0693359,0.1328125-1.4501953,0.3964844c-1.5922852,1.0986328-5.6259766,8.6767578-8.8671875,14.765625
			c-1.5292969,2.8740234-2.9741211,5.5888672-4.0366211,7.4003906c-2.4111328,4.1132813-3.2387695,9.6992188-1.8066406,12.1992188
			c0.5483398,0.9560547,1.3735352,1.3486328,2.4423828,1.1542969c4.2133789-0.7646484,6.4204102-3.9755859,7.8725586-6.6875
			c2.0888672-3.9033203,10.8603516-23.7255859,11.3076172-25.5546875c0.0742188-0.3037109-0.0791016-0.7177734-0.4306641-1.1660156
			C28.2924805,38.2705078,26.0439453,36.9736328,24.2124023,36.9736328z"/>
	</g>
</g>
</svg>
