<?xml version="1.0" encoding="utf-8"?>
<!-- Generator: Adobe Illustrator 15.0.0, SVG Export Plug-In . SVG Version: 6.00 Build 0)  -->
<!DOCTYPE svg PUBLIC "-//W3C//DTD SVG 1.1//EN" "http://www.w3.org/Graphics/SVG/1.1/DTD/svg11.dtd">
<svg version="1.1" id="レイヤー_1" xmlns="http://www.w3.org/2000/svg" xmlns:xlink="http://www.w3.org/1999/xlink" x="0px"
	 y="0px" width="64px" height="64px" viewBox="0 0 64 64" style="enable-background:new 0 0 64 64;" xml:space="preserve">
<g id="poop_その1_2_">
	<linearGradient id="SVGID_1_" gradientUnits="userSpaceOnUse" x1="22.3076172" y1="4.3369141" x2="34.848671" y2="63.6811256">
		<stop  offset="0" style="stop-color:#B36638"/>
		<stop  offset="0.2969571" style="stop-color:#B06437"/>
		<stop  offset="0.4806681" style="stop-color:#A85D32"/>
		<stop  offset="0.6335729" style="stop-color:#99512A"/>
		<stop  offset="0.7695858" style="stop-color:#85401F"/>
		<stop  offset="0.8931876" style="stop-color:#6B2A10"/>
		<stop  offset="1" style="stop-color:#4D1200"/>
	</linearGradient>
	<path style="fill:url(#SVGID_1_);" d="M54.2373047,40.7021484c1.578125-1.5458984,2.5732422-3.7636719,2.5732422-6.2363281
		c0-4.671875-3.5322266-8.4589844-7.890625-8.4589844h-3.1220703c2.046875-1.2324219,3.4980469-2.2880859,3.4980469-5.8720703
		c0-2.7250977-0.9023438-6.3642578-5.5009766-7.4589844h-4.2929688C34.7480469,0.8720703,21.46875,4.2333984,21.46875,4.2333984
		c2.3769531,1.3115234,2.5410156,8.4423828,2.5410156,8.4423828h-3.8037109
		c-4.4355469,1.1767578-5.5009766,4.5458984-5.5009766,7.4589844c0,3.5839844,1.4511719,4.6396484,3.4980469,5.8720703h-3.1230469
		c-4.3574219,0-7.890625,3.7871094-7.890625,8.4589844c0,2.4726563,0.9951172,4.6904297,2.5732422,6.2363281
		c-3.6142578,1.3134766-6.2265625,5.0673828-6.2265625,9.5009766c0,5.5263672,4.0527344,10.0058594,9.0527344,10.0058594h38.8222656
		c5,0,9.0527344-4.4794922,9.0527344-10.0058594C60.4638672,45.7695313,57.8515625,42.015625,54.2373047,40.7021484z"/>
	<path style="fill:#541715;" d="M51.4111328,61.4589844H12.5888672c-5.6811523,0-10.3027344-5.0498047-10.3027344-11.2558594
		c0-4.2197266,2.1416016-8.0136719,5.4726563-9.9394531c-1.1699219-1.6660156-1.8193359-3.7021484-1.8193359-5.7978516
		c0-5.3535156,4.1005859-9.7089844,9.140625-9.7089844h0.1552734c-1.0097656-1.0390625-1.7802734-2.472168-1.7802734-4.6220703
		c0-4.4887695,2.2836914-7.5668945,6.4306641-8.6669922l0.3203125-0.0419922h2.4868164
		c-0.2216797-2.762207-0.9262695-5.6005859-1.828125-6.0981445l-2.7714844-1.5288086l3.0688477-0.7773438
		c0.0771484-0.0195313,1.9287109-0.4804688,4.5102539-0.4804688c4.0117188,0,11.1293945,1.1762695,14.652832,8.8847656
		l3.7587891,0.0341797c4.1669922,0.9916992,6.4619141,4.0727539,6.4619141,8.6748047
		c0,2.1499023-0.7705078,3.5830078-1.7802734,4.6220703h0.1542969c5.0400391,0,9.140625,4.3554688,9.140625,9.7089844
		c0,2.0957031-0.6494141,4.1318359-1.8193359,5.7978516c3.3310547,1.9257813,5.4726563,5.7197266,5.4726563,9.9394531
		C61.7138672,56.4091797,57.0917969,61.4589844,51.4111328,61.4589844z M15.0800781,27.2568359
		c-3.6616211,0-6.640625,3.2338867-6.640625,7.2089844c0,2.0273438,0.8012695,3.9746094,2.1977539,5.34375l1.4189453,1.3896484
		l-1.8666992,0.6777344c-3.2319336,1.1748047-5.4033203,4.5205078-5.4033203,8.3261719
		c0,4.828125,3.5004883,8.7558594,7.8027344,8.7558594h38.8222656c4.3027344,0,7.8027344-3.9277344,7.8027344-8.7558594
		c0-3.8056641-2.171875-7.1513672-5.4033203-8.3261719l-1.8662109-0.6777344l1.4179688-1.3896484
		c1.3974609-1.3691406,2.1982422-3.3164063,2.1982422-5.34375c0-3.9750977-2.9785156-7.2089844-6.640625-7.2089844h-4.1220703
		l-0.6445313-2.3208008l0.6025391-0.3554688c1.8378906-1.0717773,3.2900391-1.918457,3.2900391-4.4458008
		c0-3.3730469-1.4814453-5.4609375-4.4033203-6.2089844h-4.984375l-0.3154297-0.7832031
		c-2.6972656-6.6962891-8.3789063-8.1015625-12.6704102-8.1015625c-0.6982422,0-1.3364258,0.0385742-1.8857422,0.0917969
		c1.2792969,2.5893555,1.4501953,6.534668,1.4726563,7.5141602l0.0297852,1.2788086h-4.9150391
		c-2.9731445,0.8427734-4.4189453,2.8754883-4.4189453,6.2089844c0,2.5273438,1.4516602,3.3740234,3.2895508,4.4458008
		l0.6030273,0.3554688l-0.6445313,2.3208008H15.0800781z"/>
	<g>
		<g>
			
				<rect x="9.8828487" y="29.5005665" transform="matrix(0.6469164 0.7625609 -0.7625609 0.6469164 27.9258842 1.6884556)" style="fill:#FF698E;" width="4.5135994" height="2.999356"/>
			
				<rect x="13.0935707" y="29.5000057" transform="matrix(0.6470327 0.7624623 -0.7624623 0.6470327 29.0544987 -0.7620697)" style="fill:#FF698E;" width="4.5135431" height="2.9999878"/>
			
				<rect x="16.3037472" y="29.5005665" transform="matrix(0.6469164 0.7625609 -0.7625609 0.6469164 30.192997 -3.2078705)" style="fill:#FF698E;" width="4.5135994" height="2.999356"/>
		</g>
		<g>
			
				<rect x="43.2314835" y="29.5005665" transform="matrix(0.6469164 0.7625609 -0.7625609 0.6469164 39.700737 -23.741909)" style="fill:#FF698E;" width="4.5135994" height="2.999356"/>
			
				<rect x="46.4409981" y="29.5000057" transform="matrix(0.6472213 0.7623022 -0.7623022 0.6472213 40.8110695 -26.1866379)" style="fill:#FF698E;" width="4.5144911" height="2.9999878"/>
			
				<rect x="49.6523819" y="29.5005665" transform="matrix(0.6469164 0.7625609 -0.7625609 0.6469164 41.9678497 -28.6382332)" style="fill:#FF698E;" width="4.5135994" height="2.999356"/>
		</g>
	</g>
	<path style="fill:#FFFFFF;" d="M23.7133789,38.4433594h16.5893555c0,0,1.2265625,17.9511719-8.3637695,17.9511719
		S23.7133789,38.4433594,23.7133789,38.4433594z"/>
	<g>
		<defs>
			<path id="SVGID_2_" d="M23.7133789,38.4433594h16.5893555c0,0,1.2265625,17.9511719-8.3637695,17.9511719
				S23.7133789,38.4433594,23.7133789,38.4433594z"/>
		</defs>
		<clipPath id="SVGID_3_">
			<use xlink:href="#SVGID_2_"  style="overflow:visible;"/>
		</clipPath>
		<ellipse style="clip-path:url(#SVGID_3_);fill:#FF5A7E;" cx="32.0334473" cy="51.0488281" rx="8.3200684" ry="5.7382813"/>
	</g>
	<path style="fill:#3A0202;" d="M31.9389648,57.3945313c-2.1567383,0-3.9887695-0.796875-5.4458008-2.3681641
		c-4.6079102-4.9726563-3.8129883-16.1835938-3.7768555-16.6591797l0.0703125-0.9238281h18.449707L41.3007813,38.375
		c0.0322266,0.4746094,0.7402344,11.6816406-3.9013672,16.6523438
		C35.9316406,56.5976563,34.0947266,57.3945313,31.9389648,57.3945313z M24.6674805,39.4433594
		c-0.0839844,2.7070313-0.0253906,10.6455078,3.2944336,14.2246094c1.0771484,1.1621094,2.378418,1.7265625,3.9770508,1.7265625
		c1.6010742,0,2.9086914-0.5664063,3.9975586-1.7314453c3.3447266-3.578125,3.4677734-11.5048828,3.4042969-14.2197266H24.6674805z"
		/>
	<linearGradient id="SVGID_4_" gradientUnits="userSpaceOnUse" x1="22.3076172" y1="4.3369141" x2="34.848671" y2="63.6811256">
		<stop  offset="0" style="stop-color:#B36638"/>
		<stop  offset="0.2969571" style="stop-color:#B06437"/>
		<stop  offset="0.4806681" style="stop-color:#A85D32"/>
		<stop  offset="0.6335729" style="stop-color:#99512A"/>
		<stop  offset="0.7695858" style="stop-color:#85401F"/>
		<stop  offset="0.8931876" style="stop-color:#6B2A10"/>
		<stop  offset="1" style="stop-color:#4D1200"/>
	</linearGradient>
	<path style="fill:url(#SVGID_4_);" d="M54.2373047,40.7021484c1.578125-1.5458984,2.5732422-3.7636719,2.5732422-6.2363281
		c0-4.671875-3.5322266-8.4589844-7.890625-8.4589844h-3.1220703c2.046875-1.2324219,3.4980469-2.2880859,3.4980469-5.8720703
		c0-2.7250977-0.9023438-6.3642578-5.5009766-7.4589844h-4.2929688C34.7480469,0.8720703,21.46875,4.2333984,21.46875,4.2333984
		c2.3769531,1.3115234,2.5410156,8.4423828,2.5410156,8.4423828h-3.8037109
		c-4.4355469,1.1767578-5.5009766,4.5458984-5.5009766,7.4589844c0,3.5839844,1.4511719,4.6396484,3.4980469,5.8720703h-3.1230469
		c-4.3574219,0-7.890625,3.7871094-7.890625,8.4589844c0,2.4726563,0.9951172,4.6904297,2.5732422,6.2363281
		c-3.6142578,1.3134766-6.2265625,5.0673828-6.2265625,9.5009766c0,5.5263672,4.0527344,10.0058594,9.0527344,10.0058594h38.8222656
		c5,0,9.0527344-4.4794922,9.0527344-10.0058594C60.4638672,45.7695313,57.8515625,42.015625,54.2373047,40.7021484z"/>
	<path style="fill:#541715;" d="M51.4111328,61.4589844H12.5888672c-5.6811523,0-10.3027344-5.0498047-10.3027344-11.2558594
		c0-4.2197266,2.1416016-8.0136719,5.4726563-9.9394531c-1.1699219-1.6660156-1.8193359-3.7021484-1.8193359-5.7978516
		c0-5.3535156,4.1005859-9.7089844,9.140625-9.7089844h0.1552734c-1.0097656-1.0390625-1.7802734-2.472168-1.7802734-4.6220703
		c0-4.4887695,2.2836914-7.5668945,6.4306641-8.6669922l0.3203125-0.0419922h2.4868164
		c-0.2216797-2.762207-0.9262695-5.6005859-1.828125-6.0981445l-2.7714844-1.5288086l3.0688477-0.7773438
		c0.0771484-0.0195313,1.9287109-0.4804688,4.5102539-0.4804688c4.0117188,0,11.1293945,1.1762695,14.652832,8.8847656
		l3.7587891,0.0341797c4.1669922,0.9916992,6.4619141,4.0727539,6.4619141,8.6748047
		c0,2.1499023-0.7705078,3.5830078-1.7802734,4.6220703h0.1542969c5.0400391,0,9.140625,4.3554688,9.140625,9.7089844
		c0,2.0957031-0.6494141,4.1318359-1.8193359,5.7978516c3.3310547,1.9257813,5.4726563,5.7197266,5.4726563,9.9394531
		C61.7138672,56.4091797,57.0917969,61.4589844,51.4111328,61.4589844z M15.0800781,27.2568359
		c-3.6616211,0-6.640625,3.2338867-6.640625,7.2089844c0,2.0273438,0.8012695,3.9746094,2.1977539,5.34375l1.4189453,1.3896484
		l-1.8666992,0.6777344c-3.2319336,1.1748047-5.4033203,4.5205078-5.4033203,8.3261719
		c0,4.828125,3.5004883,8.7558594,7.8027344,8.7558594h38.8222656c4.3027344,0,7.8027344-3.9277344,7.8027344-8.7558594
		c0-3.8056641-2.171875-7.1513672-5.4033203-8.3261719l-1.8662109-0.6777344l1.4179688-1.3896484
		c1.3974609-1.3691406,2.1982422-3.3164063,2.1982422-5.34375c0-3.9750977-2.9785156-7.2089844-6.640625-7.2089844h-4.1220703
		l-0.6445313-2.3208008l0.6025391-0.3554688c1.8378906-1.0717773,3.2900391-1.918457,3.2900391-4.4458008
		c0-3.3730469-1.4814453-5.4609375-4.4033203-6.2089844h-4.984375l-0.3154297-0.7832031
		c-2.6972656-6.6962891-8.3789063-8.1015625-12.6704102-8.1015625c-0.6982422,0-1.3364258,0.0385742-1.8857422,0.0917969
		c1.2792969,2.5893555,1.4501953,6.534668,1.4726563,7.5141602l0.0297852,1.2788086h-4.9150391
		c-2.9731445,0.8427734-4.4189453,2.8754883-4.4189453,6.2089844c0,2.5273438,1.4516602,3.3740234,3.2895508,4.4458008
		l0.6030273,0.3554688l-0.6445313,2.3208008H15.0800781z"/>
	<g>
		<polygon style="fill:#FF698E;" points="16.3779297,29.8925781 15.0336914,28.3085938 13.1669922,29.8930664 11.8232422,28.309082 
			9.5361328,30.2495117 12.4560547,33.6914063 14.3227539,32.1074219 15.6669922,33.6914063 17.5332031,32.1074219 
			18.8769531,33.6914063 21.1640625,31.7504883 18.2441406,28.309082 		"/>
		<polygon style="fill:#FF698E;" points="54.5126953,31.7504883 51.5927734,28.309082 49.7255859,29.8930664 48.3808594,28.3085938 
			46.515625,29.8920898 45.171875,28.309082 42.8847656,30.2495117 45.8046875,33.6914063 47.6708984,32.1074219 
			49.015625,33.6914063 50.8818359,32.1074219 52.2255859,33.6914063 		"/>
	</g>
	<path style="fill:#FFFFFF;" d="M23.7133789,38.4433594h16.5893555c0,0,1.2265625,17.9511719-8.3637695,17.9511719
		S23.7133789,38.4433594,23.7133789,38.4433594z"/>
	<path style="fill:#FF5A7E;" d="M39.4755859,48.4951172c-1.3632813-1.8857422-4.1796875-3.1835938-7.4428711-3.1835938
		c-3.3398438,0-6.2124023,1.3603516-7.5361328,3.3183594c0.9882813,4.0498047,3.0800781,7.7646484,7.4423828,7.7646484
		C36.3496094,56.3945313,38.4697266,52.5966797,39.4755859,48.4951172z"/>
	<path style="fill:#3A0202;" d="M31.9389648,57.3945313c-2.1567383,0-3.9887695-0.796875-5.4458008-2.3681641
		c-4.6079102-4.9726563-3.8129883-16.1835938-3.7768555-16.6591797l0.0703125-0.9238281h18.449707L41.3007813,38.375
		c0.0322266,0.4746094,0.7402344,11.6816406-3.9013672,16.6523438
		C35.9316406,56.5976563,34.0947266,57.3945313,31.9389648,57.3945313z M24.6674805,39.4433594
		c-0.0839844,2.7070313-0.0253906,10.6455078,3.2944336,14.2246094c1.0771484,1.1621094,2.378418,1.7265625,3.9770508,1.7265625
		c1.6010742,0,2.9086914-0.5664063,3.9975586-1.7314453c3.3447266-3.578125,3.4677734-11.5048828,3.4042969-14.2197266H24.6674805z"
		/>
	<path d="M27.8642578,28.1264648h-3c0-3.9775391-1.4833984-6.1235352-2.0898438-6.1235352s-2.090332,2.1459961-2.090332,6.1235352
		h-3c0-5.2011719,2.1884766-9.1235352,5.090332-9.1235352S27.8642578,22.925293,27.8642578,28.1264648z"/>
	<path d="M46.453125,28.1264648h-3c0-3.9775391-1.4824219-6.1235352-2.0888672-6.1235352s-2.0908203,2.1459961-2.0908203,6.1235352
		h-3c0-5.2011719,2.1884766-9.1235352,5.0908203-9.1235352C44.265625,19.0029297,46.453125,22.925293,46.453125,28.1264648z"/>
</g>
</svg>
