<?xml version="1.0" encoding="utf-8"?>
<!-- Generator: Adobe Illustrator 18.0.0, SVG Export Plug-In . SVG Version: 6.00 Build 0)  -->
<!DOCTYPE svg PUBLIC "-//W3C//DTD SVG 1.1//EN" "http://www.w3.org/Graphics/SVG/1.1/DTD/svg11.dtd">
<svg version="1.1" id="レイヤー_1" xmlns="http://www.w3.org/2000/svg" xmlns:xlink="http://www.w3.org/1999/xlink" x="0px"
	 y="0px" width="64px" height="64px" viewBox="0 0 64 64" style="enable-background:new 0 0 64 64;" xml:space="preserve">
<radialGradient id="SVGID_1_" cx="32.2046204" cy="94.9447861" r="13.1014624" gradientTransform="matrix(1.3449 0 0 0.211 -19.7670994 40.2024994)" gradientUnits="userSpaceOnUse">
	<stop  offset="0" style="stop-color:#000000;stop-opacity:0.6"/>
	<stop  offset="0.451327" style="stop-color:#231815;stop-opacity:0.40885"/>
	<stop  offset="0.849558" style="stop-color:#231815;stop-opacity:0.148344"/>
	<stop  offset="1" style="stop-color:#231815;stop-opacity:0"/>
</radialGradient>
<ellipse style="fill:url(#SVGID_1_);" cx="23.5448952" cy="60.2358017" rx="17.6218052" ry="2.7641001"/>
<g>
	
		<linearGradient id="SVGID_2_" gradientUnits="userSpaceOnUse" x1="29.656004" y1="-3.120883" x2="30.4135132" y2="24.1501389" gradientTransform="matrix(0.8283 0.5602 -0.5602 0.8283 19.6667004 -6.3182998)">
		<stop  offset="0" style="stop-color:#CAFF5F"/>
		<stop  offset="1" style="stop-color:#105F00"/>
	</linearGradient>
	<path style="fill:url(#SVGID_2_);" d="M35.2958984,33.2480011l-3.4984989-2.3662014c0,0,0.7700024-3.8920994-2.1528988-4.7905006
		c0,0,3.1708984,0.5313015,3.9141006,2.4775009c0,0-1.2812996-5.5009003-7.2090015-4.9995003
		c0,0,5.2353992-1.362299,7.4697018,1.4234009c0,0,0.3622971-3.5796108-4.0908012-4.8257103
		c0,0,2.5985985-1.0864201,4.8311005,1.9917107c0,0-1.3164024-5.3027401-8.4405003-4.6294003
		c0,0,5.4096985-3.793951,9.8603992,1.0795898c0,0-6.5576-9.1523504-14.7309589-10.2617207
		c0,0,12.8940601,1.9580097,15.783659,7.8354492c0,0,0.4678001-12.7255888-9.1581993-15.3135195
		c0,0,6.9878006-0.0336,11.5908012,5.1914501C42.6875,9.71875,42.5625,12.5,42.5625,12.5L43.25,5.9726601
		c0,0,2.6123009,5.4931602,1.8671989,8.22509c0,0,4.7949028-3.7197199,8.8994026-0.94384l-7.4346008,3.3071308
		c0,0,8.1562996-3.5053806,13.1142998,6.4184589c0,0-7.4618988-5.9301796-11.6669998-3.7719803
		c0,0,7.8681984-0.7592793,7.9237976,11.0458813c0,0-2.089798-7.4927006-9.7196999-8.8281116
		c0,0,8.5166016,3.5034103,7.2588005,9.7143116c0,0-2.1054993-6.8076-11.2782974-6.8437004
		c0,0,6.4237976-0.3628006,5.6200981,9.6845989c0,0-1.3280983-9.3316002-7.3066978-8.1772995
		c0,0,4.2861977-0.8276005,2.3134995,8.036602c0,0-1.735302-7.3520012-3.9023018-4.6992016
		c0,0,2.6308022,1.3876991,2.9384995,3.1655979c0,0-2.9638977-1.4165974-4.6231003-0.6752987l1.9629021,1.6210995
		L35.2958984,33.2480011z"/>
	<g>
		
			<linearGradient id="SVGID_3_" gradientUnits="userSpaceOnUse" x1="19.2439537" y1="39.2104836" x2="46.1093674" y2="39.2104836" gradientTransform="matrix(0.8283 0.5602 -0.5602 0.8283 19.6667004 -6.3182998)">
			<stop  offset="0" style="stop-color:#FFD200"/>
			<stop  offset="1" style="stop-color:#FFB01F"/>
		</linearGradient>
		<path style="fill:url(#SVGID_3_);" d="M35.8036995,51.9296989c-4.5366001,7.8711014-10.3584003,12.8516045-20.2504807,6.1621017
			c-9.1503897-6.1875-7.5278301-14.0214996-1.8198195-21.0879021c7.8369102-9.7040977,15.6742992-9.2582989,20.2499981-6.163599
			C38.6269989,33.9804993,41.4570007,42.1211014,35.8036995,51.9296989z"/>
		<path style="fill:#F2AD00;" d="M24.0439453,61.5429688c-2.6328125,0-5.5507813-1.0712891-8.6728516-3.1816406
			c-3.8129883-2.5791016-6.003418-5.6054688-6.5097656-8.9951172c-0.5732422-3.8339844,0.980957-8.0625,4.6191406-12.5664063
			c5.5087891-6.8212891,10.684082-8.253418,14.0556641-8.253418c2.378418,0,4.6708984,0.7001953,6.6289063,2.0249023
			c5.1220703,3.4628906,7.4257813,11.9677734,1.9199219,21.5205078
			C33.7470703,56.1484375,29.9545898,61.5429688,24.0439453,61.5429688z M27.5361328,29.1962891
			c-3.2299805,0-8.2021484,1.3901367-13.5498047,8.0117188c-3.5195313,4.3574219-5.027832,8.4150391-4.4824219,12.0625
			c0.4785156,3.2021484,2.5751953,6.0800781,6.2314453,8.5517578c3.012207,2.0371094,5.8076172,3.0703125,8.3085938,3.0703125
			c4.2426758,0,7.8901367-2.8994141,11.4785156-9.125c5.3076172-9.2089844,3.1513672-17.3632813-1.7207031-20.6582031
			C31.9506836,29.8579102,29.7841797,29.1962891,27.5361328,29.1962891z"/>
	</g>
	
		<linearGradient id="SVGID_4_" gradientUnits="userSpaceOnUse" x1="32.5654182" y1="27.090374" x2="32.799614" y2="35.5215683" gradientTransform="matrix(0.8283 0.5602 -0.5602 0.8283 19.6667004 -6.3182998)">
		<stop  offset="0" style="stop-color:#FFD200"/>
		<stop  offset="1" style="stop-color:#FFB01F"/>
	</linearGradient>
	<path style="fill:url(#SVGID_4_);" d="M38.7344017,39.892601c0.5077972-1.2598,1.2733994-2.6797028,1.4764977-3.3184013
		c-0.660099-0.142601-1.3504982,0.4531021-1.7793007,0.9258003c-0.0321999-0.1875-0.0516968-0.2910004-0.0516968-0.2910004
		l-2.125,1.0018997l-1.0215034-2.2578011L32.7974014,36.3652l-0.2476006-3.4048004l-3.5142002-0.0233994l0.1504002-2.2529011
		l-4.8984013-1.3725986l-0.3778992-1.4106007c-0.5811005,0.4878006-1.1265011,1.3999004-1.4444008,1.9927006
		c-2.2792587,1.0263004-4.4462605,2.9477005-4.4462605,2.9477005l8.0356617,7.9848976l11.9384975,5.9258003
		C38.9365005,44.9023018,38.9179993,42.0098,38.7344017,39.892601z"/>
	
		<linearGradient id="SVGID_5_" gradientUnits="userSpaceOnUse" x1="32.6474037" y1="32.5607796" x2="32.8896828" y2="41.2831039" gradientTransform="matrix(0.8283 0.5602 -0.5602 0.8283 19.6667004 -6.3182998)">
		<stop  offset="0" style="stop-color:#FFD200"/>
		<stop  offset="1" style="stop-color:#FFB01F"/>
	</linearGradient>
	<path style="fill:url(#SVGID_5_);" d="M37.5321999,48.0059013l2.6913986-2.9922028
		c-0.4804001,0.0605011-1.2285004,0.2793007-1.8036995,0.4609032l-1.5790977-3.9238014l-5.142601,0.9336014L32.7406998,38.1875
		l-4.846199,1.6269989L28.7451,35.9766006l-7.0781097,0.607399l0.8877106-4.7939987L19.23242,32.0923004
		c-0.1352501,0.0126991-0.2768497,0.0468979-0.4228497,0.0985985l-0.3173809-1.8754997l-1.1591797,2.8349991
		c-2.0082998,1.7480011-4.1655293,5.0391006-4.1655293,5.0391006l21.8452187,15.1660004
		C35.7030983,52.6621017,36.7733994,50.0351982,37.5321999,48.0059013z"/>
	<g>
		
			<linearGradient id="SVGID_6_" gradientUnits="userSpaceOnUse" x1="17.6026516" y1="38.2723732" x2="17.6058369" y2="38.3870277" gradientTransform="matrix(0.8283 0.5602 -0.5602 0.8283 19.6667004 -6.3182998)">
			<stop  offset="0" style="stop-color:#FFD200"/>
			<stop  offset="1" style="stop-color:#FFB01F"/>
		</linearGradient>
		<path style="fill:url(#SVGID_6_);" d="M12.8413086,35.4003983c-0.0283203-0.0937996-0.0625-0.1796989-0.109375-0.25
			L12.8413086,35.4003983z"/>
		
			<linearGradient id="SVGID_7_" gradientUnits="userSpaceOnUse" x1="32.2655411" y1="38.3781281" x2="32.5283394" y2="47.83918" gradientTransform="matrix(0.8283 0.5602 -0.5602 0.8283 19.6667004 -6.3182998)">
			<stop  offset="0" style="stop-color:#FFD200"/>
			<stop  offset="1" style="stop-color:#FFB01F"/>
		</linearGradient>
		<path style="fill:url(#SVGID_7_);" d="M38.5028992,49.2421989c-0.3418007-0.0391006-0.9365005,0.125-1.5048981,0.3281021
			c0.1171989-0.2304993,0.1816978-0.3633003,0.1816978-0.3633003l-5.6029987,1.4335976L31.9438,46.1815987l-3.9335003,2.0469017
			l-0.7763996-5.2344017l-5.0102997,1.3204002l1.1396999-5.3106003l-4.5156403,1.4570007l-0.5307693-4.8690987l-4.5834904,1.4120979
			c-0.0405302,0.0449028-0.0839901,0.1055031-0.1254902,0.1562996l-0.7666016-1.7598
			c0.3256817,1.0605011-0.4448242,3.3809013-0.4448242,3.3809013l0.168457-0.0997009
			c-1.3930664,2.2754021-2.8769512,5.4589996-2.8769512,5.4589996l21.2158089,14.347702
			c1.1558018-0.7754021,2.5083027-2.6641006,3.6625996-4.5371017L38.5028992,49.2421989z"/>
	</g>
	
		<linearGradient id="SVGID_8_" gradientUnits="userSpaceOnUse" x1="32.1390953" y1="45.5569763" x2="32.4273415" y2="55.9341583" gradientTransform="matrix(0.8283 0.5602 -0.5602 0.8283 19.6667004 -6.3182998)">
		<stop  offset="0" style="stop-color:#FFD200"/>
		<stop  offset="1" style="stop-color:#FF8900"/>
	</linearGradient>
	<path style="fill:url(#SVGID_8_);" d="M34.2187996,56.4473c-0.517601-0.1796989-1.2651978,0.0233994-1.9444008,0.3105011
		L31.6030006,53.5l-4.2426014,1.0546989l0.2465-3.2655983l-3.4764996,1.079998l0.0688-3.5819969l-5.0483189,0.2148972
		l0.3618183-3.5800972l-4.2871094,0.25l0.6142502-3.5195999l-5.3530197,0.2109985
		c-0.72754-0.8379021-2.02637-1.7695007-2.02637-1.7695007c0.7563496,0.9570007,0.96875,3.2070007,1.0278301,4.2616997
		c-0.3989201,1.5508003-0.6689405,3.5683022-0.0698204,5.2714996c1.1582003,3.2910004,5.0219698,9.3203011,12.1196299,10.8300018
		c4.9433098,1.0489006,8.2241096-1.3125,9.7612095-2.8456993C32.6669998,57.3065987,34.2187996,56.4473,34.2187996,56.4473z"/>
	
		<linearGradient id="SVGID_9_" gradientUnits="userSpaceOnUse" x1="32.5700417" y1="49.9025841" x2="32.7325134" y2="55.7517166" gradientTransform="matrix(0.8283 0.5602 -0.5602 0.8283 19.6667004 -6.3182998)">
		<stop  offset="0" style="stop-color:#FFD200"/>
		<stop  offset="1" style="stop-color:#FF8900"/>
	</linearGradient>
	<path style="fill:url(#SVGID_9_);" d="M29.5858994,60.9628983l-1.7446003-0.6875l-0.3900986-2.5214996l-2.8472004,1.3106003
		l-0.5410004-3.4062996l-3.4287205,0.7206993l-0.1806698-3.357399l-3.3852501,0.9453011l0.20508-3.7831993l-4.6464863,0.7812004
		l0.8110371-3.375L9.0966797,47.080101c0,0-0.0014696,0.0097008-0.0029297,0.0233994l-1.59619-1.080101l1.7910104,5.527401
		c0.6918993,2.0858994,2.5742226,3.8730011,6.2646494,6.5410004c4.2197294,3.0508003,7.6357794,3.3633003,9.7905798,3.0723
		L29.5858994,60.9628983z"/>
	<path style="fill:#B2924B;" d="M16.48242,58.892601c0,0,6.4384804,1.6464996,8.4394798,1.0057983
		c2.0018997-0.6385994,5.517601,0.2812996,5.517601,0.2812996s-5.4605007,0.1875-6.8746014,1.0605011
		C22.1508999,62.1113014,17.8710899,60.0391006,16.48242,58.892601z"/>
	<path style="fill:#B2924B;" d="M15.6132803,58.3378983c0,0-3.6445303-1.6152-4.97754-3.5585976
		c-1.3325205-1.9453011-3.2514601-6.2108994-4.8515601-7.1816025c0,0,4.4072299,3.7793007,5.5624995,6.1289024
		C12.503418,56.0780983,15.0063496,58.1171989,15.6132803,58.3378983z"/>
	<path style="fill:#D1A775;" d="M18.6860409,57.6641006c3.9252586-0.4375,6.0356598,0.0078011,6.0356598,0.0078011
		s-5.4018803,1.9882965-7.0981598,1.9940987c0,0-2.8203211-1.625-3.0390711-2.0254021
		C14.5844698,57.6405983,15.8417997,57.982399,18.6860409,57.6641006z"/>
</g>
<g>
</g>
<g>
</g>
<g>
</g>
<g>
</g>
<g>
</g>
<g>
</g>
</svg>
