<?xml version="1.0" encoding="utf-8"?>
<!-- Generator: Adobe Illustrator 17.0.0, SVG Export Plug-In . SVG Version: 6.00 Build 0)  -->
<!DOCTYPE svg PUBLIC "-//W3C//DTD SVG 1.1//EN" "http://www.w3.org/Graphics/SVG/1.1/DTD/svg11.dtd">
<svg version="1.1" id="レイヤー_1" xmlns="http://www.w3.org/2000/svg" xmlns:xlink="http://www.w3.org/1999/xlink" x="0px"
	 y="0px" width="64px" height="64px" viewBox="0 0 64 64" style="enable-background:new 0 0 64 64;" xml:space="preserve">
<linearGradient id="SVGID_1_" gradientUnits="userSpaceOnUse" x1="32" y1="3.5002489" x2="32" y2="60.0320282">
	<stop  offset="0" style="stop-color:#717071"/>
	<stop  offset="1" style="stop-color:#3E3A39"/>
</linearGradient>
<polygon style="fill:url(#SVGID_1_);" points="32,3.5002489 61.7205162,25.0934677 50.3682899,60.0320282 13.631711,60.0320282 
	2.2794838,25.0934677 "/>
<g>
	<linearGradient id="SVGID_2_" gradientUnits="userSpaceOnUse" x1="32" y1="2.5000048" x2="32" y2="61.0324745">
		<stop  offset="0" style="stop-color:#8FD1FF"/>
		<stop  offset="0.2477876" style="stop-color:#8FD1FF"/>
		<stop  offset="1" style="stop-color:#036EB5"/>
	</linearGradient>
	<path style="fill:url(#SVGID_2_);" d="M50.3681641,61.0324745H13.6318359c-0.4331055,0-0.8173828-0.2792969-0.9511719-0.6914063
		L1.328125,25.4025917c-0.1337891-0.4121094,0.0126953-0.8632813,0.3632813-1.1181641L31.4121094,2.6911669
		c0.3505859-0.2548828,0.8251953-0.2548828,1.1757813,0l29.7207031,21.5932617
		c0.3505859,0.2548828,0.4970703,0.7060547,0.3632813,1.1181641L51.3193359,60.3410683
		C51.1855469,60.7531776,50.8017578,61.0324745,50.3681641,61.0324745z M14.3583984,59.0324745h35.2832031l10.9033203-33.5571289
		L32,4.7360888L3.4550781,25.4753456L14.3583984,59.0324745z"/>
</g>
<g>
	<linearGradient id="SVGID_3_" gradientUnits="userSpaceOnUse" x1="21.710865" y1="10.513092" x2="21.710865" y2="56.000248">
		<stop  offset="0" style="stop-color:#A1D8FF"/>
		<stop  offset="1" style="stop-color:#2098E8"/>
	</linearGradient>
	<path style="fill:url(#SVGID_3_);" d="M27.7225227,10.5224953c-1.2468567-0.2029772-2.640934,2.9341574-4.6288338,4.1868229
		c-2.0719948,1.3056583-4.4337616,5.5897923-5.367485,8.2261868c-1.867444,5.2727833-5.1315832,8.8797531-5.0530834,14.0607567
		c0.1098499,7.2500763,1.8751917,12.7539864,3.1251917,19.0039864h11.250001c0,0,2.5416527-6.4811287,2.8712025-10.6554146
		c0.3295479-4.1742859,0.204586-11.4091949,0.7538357-14.5948334c0.5492477-3.1856403-1.9772949-4.7235355-3.6250381-2.4166927
		c-1.6477451,2.3068428-3.2803783,12.8372402-3.2803783,12.8372402s0.1098499-3.0757904-0.2196999-8.0190239
		C23.2186871,28.2082882,32.4460564,11.2914429,27.7225227,10.5224953z"/>
</g>
<g>
	
		<linearGradient id="SVGID_4_" gradientUnits="userSpaceOnUse" x1="21.710865" y1="10.513092" x2="21.710865" y2="56.000248" gradientTransform="matrix(-1 0 0 1 64 0)">
		<stop  offset="0" style="stop-color:#A1D8FF"/>
		<stop  offset="1" style="stop-color:#2098E8"/>
	</linearGradient>
	<path style="fill:url(#SVGID_4_);" d="M36.2774773,10.5224953c1.2468567-0.2029772,2.640934,2.9341574,4.6288338,4.1868229
		c2.0719948,1.3056583,4.4337616,5.5897923,5.367485,8.2261868c1.8674431,5.2727833,5.1315842,8.8797531,5.0530815,14.0607567
		c-0.109848,7.2500763-1.8751907,12.7539864-3.1251907,19.0039864h-11.25c0,0-2.5416527-6.4811287-2.8712006-10.6554146
		C33.7509346,41.1705475,33.8758965,33.9356384,33.3266487,30.75s1.9772949-4.7235355,3.6250381-2.4166927
		c1.647747,2.3068428,3.2803764,12.8372402,3.2803764,12.8372402s-0.109848-3.0757904,0.2196999-8.0190239
		C40.7813148,28.2082882,31.5539436,11.2914429,36.2774773,10.5224953z"/>
</g>
<g>
</g>
<g>
</g>
<g>
</g>
<g>
</g>
<g>
</g>
<g>
</g>
</svg>
