<?xml version="1.0" encoding="utf-8"?>
<!-- Generator: Adobe Illustrator 17.0.0, SVG Export Plug-In . SVG Version: 6.00 Build 0)  -->
<!DOCTYPE svg PUBLIC "-//W3C//DTD SVG 1.1//EN" "http://www.w3.org/Graphics/SVG/1.1/DTD/svg11.dtd">
<svg version="1.1" id="レイヤー_1" xmlns="http://www.w3.org/2000/svg" xmlns:xlink="http://www.w3.org/1999/xlink" x="0px"
	 y="0px" width="64px" height="64px" viewBox="0 0 64 64" style="enable-background:new 0 0 64 64;" xml:space="preserve">
<g>
	<g>
		
			<radialGradient id="SVGID_1_" cx="21.6903877" cy="56.8862381" r="3.9716249" fx="20.0546513" fy="55.4549675" gradientTransform="matrix(0.8016543 -0.2612157 0.2698261 0.8280789 -3.8420959 8.3445539)" gradientUnits="userSpaceOnUse">
			<stop  offset="0.3616071" style="stop-color:#FFFFFF"/>
			<stop  offset="0.7366071" style="stop-color:#C6C7C8"/>
			<stop  offset="1" style="stop-color:#868686"/>
		</radialGradient>
		<path style="fill:url(#SVGID_1_);" d="M32.0793571,48.7475281c0.5918541,1.8163643-0.3538189,3.7533035-2.1122227,4.3262711
			c-1.7584019,0.5729675-3.6636639-0.4350052-4.255518-2.2513695s0.3538189-3.7532997,2.1122227-4.3262672
			C29.5822411,45.9231949,31.4875011,46.9311638,32.0793571,48.7475281z"/>
		
			<linearGradient id="SVGID_2_" gradientUnits="userSpaceOnUse" x1="20.91609" y1="51.8073616" x2="26.2269001" y2="57.1181717" gradientTransform="matrix(0.8580264 -0.2795843 0.2820573 0.8656158 -6.6910996 9.2313671)">
			<stop  offset="0.2" style="stop-color:#ECECED"/>
			<stop  offset="0.8" style="stop-color:#B2B2B3"/>
		</linearGradient>
		<path style="fill:url(#SVGID_2_);" d="M28.0590782,47.2180939c1.3702221-0.4464836,2.8601856,0.3417778,3.3213844,1.7571678
			c0.4611969,1.41539-0.2783432,2.9301262-1.6485653,3.376606c-1.370224,0.4464836-2.8601875-0.3417816-3.3213844-1.7571678
			C25.9493141,49.1793098,26.6888542,47.6645737,28.0590782,47.2180939 M27.8238373,46.4961548
			c-1.7584,0.5729675-2.7040768,2.5099144-2.1122227,4.3262787c0.5918541,1.8163605,2.4971218,2.824337,4.2555218,2.2513695
			s2.7040787-2.5099106,2.1122246-4.3262749C31.4875069,46.9311676,29.5822392,45.9231873,27.8238373,46.4961548
			L27.8238373,46.4961548z"/>
		<path style="fill:#3E3A39;" d="M30.0458012,53.3147087c-1.8842049,0.6139603-3.932951-0.4695358-4.5673027-2.416317
			s0.3827724-4.0292778,2.2669773-4.6432381c1.883749-0.6138115,3.9324951,0.4696808,4.5668449,2.4164658
			C32.9466743,50.6184006,31.9295502,52.7008972,30.0458012,53.3147087z M27.9023018,46.7364426
			c-1.6271229,0.5301933-2.5055389,2.3293686-1.9578705,4.010128c0.5476665,1.6807556,2.317421,2.6170387,3.9445438,2.0868454
			c1.6271229-0.5301895,2.5050831-2.3292198,1.9574146-4.0099754
			C31.2987232,47.1426849,29.5294247,46.2062531,27.9023018,46.7364426z"/>
	</g>
	<g>
		
			<radialGradient id="SVGID_3_" cx="14.0861797" cy="54.4645157" r="3.9716249" fx="12.4504433" fy="53.0332451" gradientTransform="matrix(0.8016543 -0.2612157 0.2698261 0.8280789 -3.8420959 8.3445539)" gradientUnits="userSpaceOnUse">
			<stop  offset="0.3616071" style="stop-color:#FFFFFF"/>
			<stop  offset="0.7366071" style="stop-color:#C6C7C8"/>
			<stop  offset="1" style="stop-color:#868686"/>
		</radialGradient>
		<path style="fill:url(#SVGID_3_);" d="M25.3299675,48.7284927c0.5918541,1.8163643-0.3538208,3.7532997-2.1122227,4.3262672
			c-1.7584038,0.5729675-3.6636639-0.4350014-4.255518-2.2513657c-0.591856-1.8163643,0.3538189-3.7533035,2.1122227-4.3262711
			C22.8328514,45.9041557,24.7381115,46.9121284,25.3299675,48.7284927z"/>
		
			<linearGradient id="SVGID_4_" gradientUnits="userSpaceOnUse" x1="13.8114767" y1="49.4906578" x2="19.122282" y2="54.8014641" gradientTransform="matrix(0.8580264 -0.2795843 0.2820573 0.8656158 -6.6910996 9.2313671)">
			<stop  offset="0.2" style="stop-color:#ECECED"/>
			<stop  offset="0.8" style="stop-color:#B2B2B3"/>
		</linearGradient>
		<path style="fill:url(#SVGID_4_);" d="M21.3096886,47.1990623c1.370224-0.4464798,2.8601856,0.3417778,3.3213806,1.7571602
			c0.4611988,1.4153862-0.2783413,2.9301224-1.6485653,3.376606c-1.3702221,0.4464798-2.8601856-0.3417816-3.3213844-1.7571716
			C19.1999245,49.1602783,19.9394665,47.6455421,21.3096886,47.1990623 M21.0744495,46.4771271
			c-1.7584,0.5729675-2.7040825,2.509903-2.1122284,4.3262634c0.5918541,1.8163643,2.4971237,2.8243408,4.2555237,2.2513733
			s2.7040768-2.5099144,2.1122227-4.3262749C24.7381134,46.9121246,22.8328495,45.9041595,21.0744495,46.4771271
			L21.0744495,46.4771271z"/>
		<path style="fill:#3E3A39;" d="M23.2959042,53.2951431c-1.8837509,0.6138115-3.932497-0.4696846-4.5665417-2.4155273
			c-0.6343517-1.9467812,0.3827724-4.0292778,2.2665215-4.6430893c1.884203-0.6139603,3.932951,0.4695358,4.5673027,2.416317
			C26.1972313,50.5986862,25.1801071,52.6811829,23.2959042,53.2951431z M21.15271,46.7178192
			c-1.6271229,0.5301895-2.5050831,2.3292198-1.9574165,4.0099754c0.5476685,1.6807556,2.3166618,2.6162491,3.9437828,2.0860558
			c1.6271229-0.5301895,2.505846-2.3284264,1.9581776-4.0091858C24.5495872,47.123909,22.7798328,46.1876259,21.15271,46.7178192z"
			/>
	</g>
	<g>
		
			<radialGradient id="SVGID_5_" cx="7.7412667" cy="49.5242043" r="3.9716249" fx="6.1055298" fy="48.0929337" gradientTransform="matrix(0.8016543 -0.2612157 0.2698261 0.8280789 -3.8420959 8.3445539)" gradientUnits="userSpaceOnUse">
			<stop  offset="0.3616071" style="stop-color:#FFFFFF"/>
			<stop  offset="0.7366071" style="stop-color:#C6C7C8"/>
			<stop  offset="1" style="stop-color:#868686"/>
		</radialGradient>
		<path style="fill:url(#SVGID_5_);" d="M18.9105148,46.2949104c0.5918541,1.8163681-0.3538189,3.7533035-2.1122227,4.3262711
			s-3.6636629-0.4350014-4.255518-2.2513695c-0.5918541-1.8163643,0.3538198-3.7532997,2.1122227-4.3262672
			S18.3186607,44.4785461,18.9105148,46.2949104z"/>
		
			<linearGradient id="SVGID_6_" gradientUnits="userSpaceOnUse" x1="7.8834243" y1="44.7645798" x2="13.1942301" y2="50.075386" gradientTransform="matrix(0.8580264 -0.2795843 0.2820573 0.8656158 -6.6910996 9.2313671)">
			<stop  offset="0.2" style="stop-color:#ECECED"/>
			<stop  offset="0.8" style="stop-color:#B2B2B3"/>
		</linearGradient>
		<path style="fill:url(#SVGID_6_);" d="M14.8902378,44.7654839c1.3702221-0.4464836,2.8601856,0.3417778,3.3213806,1.7571564
			c0.4611988,1.41539-0.2783413,2.9301262-1.6485653,3.376606c-1.3702221,0.4464836-2.8601856-0.3417778-3.3213844-1.7571678
			C12.7804737,46.7266998,13.5200148,45.2119637,14.8902378,44.7654839 M14.6549978,44.0435486
			c-1.7584,0.5729675-2.7040815,2.509903-2.1122274,4.3262634s2.4971228,2.8243408,4.2555237,2.2513733
			s2.7040768-2.5099144,2.1122227-4.3262787C18.3186626,44.4785461,16.4133987,43.4705811,14.6549978,44.0435486
			L14.6549978,44.0435486z"/>
		<path style="fill:#3E3A39;" d="M16.8767548,50.8614655c-1.8842039,0.6139603-3.9329519-0.4695358-4.5669966-2.4153786
			c-0.6343508-1.9467812,0.3827724-4.0292778,2.2669764-4.6432381c1.883749-0.6138115,3.932497,0.4696846,4.5668488,2.4164658
			C19.7776279,48.1651573,18.7605038,50.247654,16.8767548,50.8614655z M14.7335615,44.2841415
			c-1.6271229,0.5301895-2.5055389,2.3293686-1.9578705,4.0101242c0.5476675,1.6807556,2.3171148,2.6161003,3.9442377,2.085907
			c1.6271229-0.5301895,2.5053883-2.3282776,1.9577217-4.009037C18.129982,44.6903801,16.3606834,43.7539482,14.7335615,44.2841415z
			"/>
	</g>
	<g>
		
			<radialGradient id="SVGID_7_" cx="3.5759041" cy="42.6949463" r="3.9716249" fx="1.9401673" fy="41.2636757" gradientTransform="matrix(0.8016543 -0.2612157 0.2698261 0.8280789 -3.8420959 8.3445539)" gradientUnits="userSpaceOnUse">
			<stop  offset="0.3616071" style="stop-color:#FFFFFF"/>
			<stop  offset="0.7366071" style="stop-color:#C6C7C8"/>
			<stop  offset="1" style="stop-color:#868686"/>
		</radialGradient>
		<path style="fill:url(#SVGID_7_);" d="M13.7286224,41.7278061c0.5918541,1.8163643-0.3538198,3.7532997-2.1122227,4.3262711
			c-1.7584028,0.5729675-3.6636629-0.4350052-4.2555175-2.2513695s0.3538189-3.7532997,2.1122222-4.3262711
			C11.2315073,38.9034691,13.1367674,39.9114418,13.7286224,41.7278061z"/>
		
			<linearGradient id="SVGID_8_" gradientUnits="userSpaceOnUse" x1="3.991724" y1="38.2314682" x2="9.3025322" y2="43.5422783" gradientTransform="matrix(0.8580264 -0.2795843 0.2820573 0.8656158 -6.6910996 9.2313671)">
			<stop  offset="0.2" style="stop-color:#ECECED"/>
			<stop  offset="0.8" style="stop-color:#B2B2B3"/>
		</linearGradient>
		<path style="fill:url(#SVGID_8_);" d="M9.7083435,40.1983719c1.370223-0.4464798,2.8601856,0.3417778,3.3213835,1.7571678
			c0.4611988,1.4153862-0.2783422,2.9301224-1.6485653,3.376606c-1.370223,0.4464798-2.8601856-0.3417816-3.3213844-1.7571678
			C7.5985794,42.1595879,8.3381205,40.6448517,9.7083435,40.1983719 M9.4731035,39.4764366
			c-1.7584,0.5729675-2.7040782,2.5099106-2.1122241,4.3262749c0.5918541,1.8163605,2.4971223,2.824337,4.2555223,2.2513695
			s2.7040777-2.5099144,2.1122236-4.3262749S11.2315035,38.9034691,9.4731035,39.4764366L9.4731035,39.4764366z"/>
		<path style="fill:#3E3A39;" d="M11.6947107,46.2944069c-1.883749,0.6138115-3.9324965-0.4696808-4.5665412-2.4155235
			c-0.6343513-1.946785,0.382772-4.0292778,2.266521-4.6430893s3.932497,0.4696808,4.5668478,2.4164619
			C14.595583,43.5980988,13.5784597,45.6805954,11.6947107,46.2944069z M9.5515175,39.717083
			c-1.6271229,0.5301933-2.5050836,2.3292198-1.9574161,4.0099792c0.547668,1.6807556,2.3166604,2.6162453,3.9437833,2.0860558
			c1.6271219-0.5301933,2.5053892-2.3282814,1.9577217-4.009037C12.9479389,40.1233215,11.1786394,39.1868935,9.5515175,39.717083z"
			/>
	</g>
	<g>
		
			<radialGradient id="SVGID_9_" cx="2.5347548" cy="34.9694595" r="3.6327748" fx="1.0385753" fy="33.6603012" gradientTransform="matrix(0.8016543 -0.2612157 0.2698261 0.8280789 -3.8420959 8.3445539)" gradientUnits="userSpaceOnUse">
			<stop  offset="0.1946903" style="stop-color:#FFFFFF"/>
			<stop  offset="0.4014302" style="stop-color:#B2B2B3"/>
			<stop  offset="0.7100585" style="stop-color:#595757"/>
			<stop  offset="0.9690266" style="stop-color:#3E3A39"/>
		</radialGradient>
		<path style="fill:url(#SVGID_9_);" d="M10.5378027,35.6909714c0.5413589,1.661396-0.3236322,3.4330788-1.9320126,3.9571609
			c-1.6083798,0.524086-3.351088-0.3978882-3.892447-2.0592842s0.3236322-3.4330788,1.9320126-3.9571609
			C8.2537355,33.1076012,9.9964437,34.0295753,10.5378027,35.6909714z"/>
		
			<linearGradient id="SVGID_10_" gradientUnits="userSpaceOnUse" x1="3.2455325" y1="31.0675488" x2="8.1032314" y2="35.9252472" gradientTransform="matrix(0.8580264 -0.2795843 0.2820573 0.8656158 -6.6910996 9.2313671)">
			<stop  offset="0.2" style="stop-color:#B2B2B3"/>
			<stop  offset="0.8" style="stop-color:#717071"/>
		</linearGradient>
		<path style="fill:url(#SVGID_10_);" d="M6.8805962,34.3536224c1.2204351-0.3976707,2.5475216,0.3044205,2.9583035,1.5650826
			s-0.2479134,2.6098251-1.4683475,3.0074959c-1.2204351,0.3976746-2.5475249-0.3044243-2.9583068-1.5650902
			C5.0014639,36.1004486,5.6601615,34.751297,6.8805962,34.3536224 M6.6453567,33.6316872
			c-1.6083794,0.524086-2.4733686,2.2957611-1.9320097,3.9571571s2.2840652,2.5833778,3.8924441,2.0592918
			c1.6083794-0.5240822,2.4733658-2.2957687,1.9320068-3.9571648S8.2537355,33.107605,6.6453567,33.6316872L6.6453567,33.6316872z"
			/>
		<path style="fill:#3E3A39;" d="M8.6842508,39.8884163c-1.7345052,0.5651817-3.620265-0.4320831-4.2040763-2.2237625
			c-0.583658-1.7912102,0.3524132-3.708477,2.0869184-4.2736588c1.7340508-0.565033,3.6199636,0.4327011,4.2036219,2.2239113
			C11.3545256,37.4065857,10.4183016,39.3233833,8.6842508,39.8884163z M6.7239194,33.8722839
			c-1.4774237,0.4814148-2.2750936,2.1144218-1.7778125,3.6405449c0.4971275,1.5256538,2.1038938,2.3757095,3.5813179,1.8942986
			c1.4774237-0.4814148,2.2744856-2.1147461,1.7773571-3.6403999C9.8075008,34.2406044,8.2013435,33.390873,6.7239194,33.8722839z"
			/>
	</g>
	<g>
		
			<radialGradient id="SVGID_11_" cx="3.4548182" cy="27.2927914" r="3.9716249" fx="1.8190814" fy="25.8615208" gradientTransform="matrix(0.8016543 -0.2612157 0.2698261 0.8280789 -3.8420959 8.3445539)" gradientUnits="userSpaceOnUse">
			<stop  offset="0.3616071" style="stop-color:#FFFFFF"/>
			<stop  offset="0.7366071" style="stop-color:#C6C7C8"/>
			<stop  offset="1" style="stop-color:#868686"/>
		</radialGradient>
		<path style="fill:url(#SVGID_11_);" d="M9.4756508,29.0052357c0.5918541,1.8163643-0.3538198,3.7533016-2.1122227,4.3262691
			s-3.6636631-0.4350014-4.255518-2.2513676c-0.5918548-1.8163643,0.3538194-3.7533016,2.1122222-4.3262691
			S8.8837957,27.1888714,9.4756508,29.0052357z"/>
		
			<linearGradient id="SVGID_12_" gradientUnits="userSpaceOnUse" x1="3.8785932" y1="23.4972172" x2="9.1894016" y2="28.8080254" gradientTransform="matrix(0.8580264 -0.2795843 0.2820573 0.8656158 -6.6910996 9.2313671)">
			<stop  offset="0.2" style="stop-color:#ECECED"/>
			<stop  offset="0.8" style="stop-color:#B2B2B3"/>
		</linearGradient>
		<path style="fill:url(#SVGID_12_);" d="M5.4553714,27.4758015c1.3702226-0.4464817,2.8601851,0.3417778,3.321384,1.7571659
			c0.4611988,1.41539-0.2783432,2.9301224-1.6485658,3.376606c-1.370223,0.4464798-2.8601856-0.3417778-3.3213842-1.7571678
			S4.0851483,27.9222832,5.4553714,27.4758015 M5.2201314,26.7538643c-1.7584002,0.5729675-2.704078,2.5099125-2.1122243,4.3262749
			c0.5918539,1.8163605,2.497122,2.824337,4.2555227,2.2513695s2.7040782-2.5099125,2.1122241-4.326273
			C8.8837996,27.1888733,6.9785318,26.1808987,5.2201314,26.7538643L5.2201314,26.7538643z"/>
		<path style="fill:#3E3A39;" d="M7.4420438,33.572258c-1.8842044,0.6139603-3.933105-0.470005-4.5673027-2.416317
			c-0.6340449-1.9458427,0.382925-4.0288086,2.2671294-4.642767c1.8837495-0.6138134,3.9326496,0.4701519,4.5666943,2.4159946
			C10.3427629,30.8754807,9.3257933,32.9584465,7.4420438,33.572258z M5.298697,26.994463
			c-1.6271226,0.5301914-2.5056913,2.3288994-1.9580238,4.0096569c0.5476675,1.6807556,2.3174212,2.6170387,3.9445441,2.0868492
			c1.6271229-0.5301933,2.5050831-2.3292217,1.9574156-4.0099792C8.6949654,27.4002342,6.9258194,26.4642735,5.298697,26.994463z"/>
	</g>
	<g>
		
			<radialGradient id="SVGID_13_" cx="4.9320688" cy="19.3737583" r="3.9716249" fx="3.2963321" fy="17.9424877" gradientTransform="matrix(0.8016543 -0.2612157 0.2698261 0.8280789 -3.8420959 8.3445539)" gradientUnits="userSpaceOnUse">
			<stop  offset="0.3616071" style="stop-color:#FFFFFF"/>
			<stop  offset="0.7366071" style="stop-color:#C6C7C8"/>
			<stop  offset="1" style="stop-color:#868686"/>
		</radialGradient>
		<path style="fill:url(#SVGID_13_);" d="M8.5231333,22.0617714c0.591855,1.8163643-0.3538189,3.7533016-2.1122222,4.3262691
			s-3.6636631-0.4350033-4.255518-2.2513676s0.3538191-3.7533016,2.112222-4.3262691
			C6.0260181,19.2374344,7.9312787,20.2454071,8.5231333,22.0617714z"/>
		
			<linearGradient id="SVGID_14_" gradientUnits="userSpaceOnUse" x1="5.2587886" y1="15.9215879" x2="10.5695972" y2="21.2323971" gradientTransform="matrix(0.8580264 -0.2795843 0.2820573 0.8656158 -6.6910996 9.2313671)">
			<stop  offset="0.2" style="stop-color:#ECECED"/>
			<stop  offset="0.8" style="stop-color:#B2B2B3"/>
		</linearGradient>
		<path style="fill:url(#SVGID_14_);" d="M4.5028539,20.5323353c1.370223-0.4464817,2.8601856,0.3417797,3.3213844,1.7571678
			c0.4611983,1.4153881-0.2783427,2.9301243-1.6485658,3.3766041c-1.3702226,0.4464817-2.8601856-0.3417778-3.3213842-1.7571659
			C2.3930898,22.4935513,3.1326313,20.978817,4.5028539,20.5323353 M4.2676144,19.8104
			c-1.7584002,0.5729675-2.7040782,2.5099125-2.1122243,4.326273c0.5918539,1.8163624,2.497122,2.8243389,4.2555218,2.2513714
			s2.7040782-2.5099125,2.1122241-4.3262749C7.9312825,20.245409,6.0260143,19.2374325,4.2676144,19.8104L4.2676144,19.8104z"/>
		<path style="fill:#3E3A39;" d="M6.4892235,26.6288929c-1.8837495,0.6138115-3.9326499-0.4701538-4.5668478-2.4164658
			c-0.6340448-1.9458427,0.3829252-4.0288086,2.2666745-4.6426201c1.8842044-0.6139603,3.933105,0.470005,4.5671496,2.4158478
			C9.390398,23.9319668,8.3734283,26.0149326,6.4892235,26.6288929z M4.3458767,20.0510979
			c-1.6271226,0.5301914-2.5052361,2.3287506-1.9575686,4.0095062c0.5476675,1.6807575,2.3169665,2.6171894,3.9440889,2.086998
			s2.5055385-2.3293686,1.957871-4.0101261S5.9729996,19.5209064,4.3458767,20.0510979z"/>
	</g>
	<g>
		
			<radialGradient id="SVGID_15_" cx="7.2327051" cy="11.6726818" r="3.9716249" fx="5.5969682" fy="10.2414122" gradientTransform="matrix(0.8016543 -0.2612157 0.2698261 0.8280789 -3.8420959 8.3445539)" gradientUnits="userSpaceOnUse">
			<stop  offset="0.3616071" style="stop-color:#FFFFFF"/>
			<stop  offset="0.7366071" style="stop-color:#C6C7C8"/>
			<stop  offset="1" style="stop-color:#868686"/>
		</radialGradient>
		<path style="fill:url(#SVGID_15_);" d="M8.2894974,15.0837088c0.5918541,1.8163652-0.3538194,3.7533007-2.1122227,4.3262701
			c-1.7584028,0.5729675-3.6636629-0.4350033-4.255518-2.2513676s0.3538194-3.7533026,2.1122224-4.3262701
			C5.7923822,12.2593727,7.6976423,13.2673445,8.2894974,15.0837088z"/>
		
			<linearGradient id="SVGID_16_" gradientUnits="userSpaceOnUse" x1="7.4082742" y1="8.5544634" x2="12.7190819" y2="13.8652716" gradientTransform="matrix(0.8580264 -0.2795843 0.2820573 0.8656158 -6.6910996 9.2313671)">
			<stop  offset="0.2" style="stop-color:#ECECED"/>
			<stop  offset="0.8" style="stop-color:#B2B2B3"/>
		</linearGradient>
		<path style="fill:url(#SVGID_16_);" d="M4.269218,13.5542736c1.3702226-0.4464817,2.8601856,0.3417788,3.321384,1.7571678
			c0.4611988,1.4153881-0.2783427,2.9301224-1.6485658,3.3766041s-2.8601854-0.3417778-3.321384-1.7571678
			C2.1594536,15.5154896,2.8989952,14.0007544,4.269218,13.5542736 M4.033978,12.8323374
			c-1.7584,0.5729675-2.704078,2.5099125-2.1122241,4.3262739s2.4971218,2.824337,4.2555223,2.2513714
			c1.7584-0.5729675,2.7040782-2.5099125,2.1122241-4.3262749S5.7923779,12.2593699,4.033978,12.8323374L4.033978,12.8323374z"/>
		<path style="fill:#3E3A39;" d="M6.2558904,19.6507301c-1.8842044,0.6139603-3.9331048-0.4700031-4.5673027-2.4163151
			c-0.6340448-1.9458437,0.3829252-4.0288086,2.2671294-4.6427689c1.8837492-0.6138115,3.9326499,0.4701529,4.5666943,2.4159946
			C9.1566095,16.9539547,8.1396399,19.0369186,6.2558904,19.6507301z M4.1125436,13.072937
			c-1.6271224,0.5301905-2.5056911,2.3288984-1.9580235,4.009655s2.3174214,2.6170387,3.9445438,2.0868492
			c1.6271229-0.5301914,2.5050831-2.3292217,1.9574156-4.0099783S5.7396665,12.5427456,4.1125436,13.072937z"/>
	</g>
	<g>
		
			<radialGradient id="SVGID_17_" cx="12.4636259" cy="5.5699415" r="3.9716249" fx="10.8278894" fy="4.1386719" gradientTransform="matrix(0.8016543 -0.2612157 0.2698261 0.8280789 -3.8420959 8.3445539)" gradientUnits="userSpaceOnUse">
			<stop  offset="0.3616071" style="stop-color:#FFFFFF"/>
			<stop  offset="0.7366071" style="stop-color:#C6C7C8"/>
			<stop  offset="1" style="stop-color:#868686"/>
		</radialGradient>
		<path style="fill:url(#SVGID_17_);" d="M10.8362083,8.6637592c0.591855,1.8163652-0.3538189,3.7533016-2.1122217,4.3262701
			c-1.7584033,0.5729675-3.6636634-0.4350042-4.2555184-2.2513685s0.3538194-3.7533011,2.1122227-4.3262691
			S10.2443542,6.8473949,10.8362083,8.6637592z"/>
		
			<linearGradient id="SVGID_18_" gradientUnits="userSpaceOnUse" x1="12.2955236" y1="2.7163651" x2="17.6063328" y2="8.027173" gradientTransform="matrix(0.8580264 -0.2795843 0.2820573 0.8656158 -6.6910996 9.2313671)">
			<stop  offset="0.2" style="stop-color:#ECECED"/>
			<stop  offset="0.8" style="stop-color:#B2B2B3"/>
		</linearGradient>
		<path style="fill:url(#SVGID_18_);" d="M6.8159294,7.1343246c1.3702221-0.4464812,2.8601856,0.3417788,3.3213844,1.7571673
			c0.4611979,1.4153891-0.2783442,2.9301233-1.6485662,3.376605s-2.8601856-0.3417788-3.321384-1.7571678
			S5.4457068,7.5808058,6.8159294,7.1343246 M6.5806894,6.4123888c-1.7584,0.5729675-2.7040782,2.5099115-2.1122241,4.3262739
			s2.4971218,2.824337,4.2555223,2.2513704c1.7584-0.5729675,2.7040777-2.5099125,2.1122246-4.3262749
			C10.2443581,6.8473969,8.3390894,5.8394213,6.5806894,6.4123888L6.5806894,6.4123888z"/>
		<path style="fill:#3E3A39;" d="M8.8026018,13.2307816c-1.8842044,0.6139603-3.9331045-0.4700041-4.5673027-2.416317
			c-0.6340446-1.9458427,0.382925-4.0288076,2.2671294-4.6427679c1.8837495-0.6138115,3.9326501,0.4701524,4.5666947,2.4159956
			C11.7033215,10.5340042,10.6863518,12.6169701,8.8026018,13.2307816z M6.659255,6.6529875
			c-1.6271224,0.5301909-2.5056911,2.3288984-1.9580235,4.009655s2.3174214,2.6170397,3.9445443,2.0868483
			c1.6271219-0.5301905,2.5050831-2.3292198,1.9574156-4.0099764S8.2863779,6.1227965,6.659255,6.6529875z"/>
	</g>
	<g>
		
			<radialGradient id="SVGID_19_" cx="20.2857895" cy="3.463043" r="3.9716249" fx="18.650053" fy="2.0317733" gradientTransform="matrix(0.8016543 -0.2612157 0.2698261 0.8280789 -3.8420959 8.3445539)" gradientUnits="userSpaceOnUse">
			<stop  offset="0.3616071" style="stop-color:#FFFFFF"/>
			<stop  offset="0.7366071" style="stop-color:#C6C7C8"/>
			<stop  offset="1" style="stop-color:#868686"/>
		</radialGradient>
		<path style="fill:url(#SVGID_19_);" d="M16.5383835,4.8758092c0.5918541,1.8163648-0.3538189,3.7533011-2.1122227,4.3262696
			s-3.6636629-0.4350033-4.255518-2.251368c-0.5918541-1.8163643,0.3538198-3.7533011,2.1122227-4.3262691
			S15.9465284,3.0594449,16.5383835,4.8758092z"/>
		
			<linearGradient id="SVGID_20_" gradientUnits="userSpaceOnUse" x1="19.603775" y1="0.7008311" x2="24.9145832" y2="6.0116391" gradientTransform="matrix(0.8580264 -0.2795843 0.2820573 0.8656158 -6.6910996 9.2313671)">
			<stop  offset="0.2" style="stop-color:#ECECED"/>
			<stop  offset="0.8" style="stop-color:#B2B2B3"/>
		</linearGradient>
		<path style="fill:url(#SVGID_20_);" d="M12.5181046,3.3463743c1.370223-0.4464815,2.8601866,0.3417778,3.3213854,1.7571671
			c0.4611979,1.4153886-0.2783442,2.9301233-1.6485672,3.376605s-2.8601847-0.3417788-3.3213835-1.7571678
			S11.1478815,3.7928557,12.5181046,3.3463743 M12.2828655,2.6244383c-1.7584,0.5729673-2.7040787,2.5099125-2.1122246,4.3262734
			s2.4971218,2.8243375,4.2555218,2.2513709c1.7584-0.5729675,2.7040787-2.5099125,2.1122246-4.3262744
			C15.9465342,3.0594471,14.0412645,2.0514712,12.2828655,2.6244383L12.2828655,2.6244383z"/>
		<path style="fill:#3E3A39;" d="M14.5046253,9.4428806c-1.88375,0.6138124-3.9326496-0.4701519-4.5668478-2.4164648
			c-0.6340446-1.9458427,0.382925-4.0288076,2.266674-4.6426196s3.9326506,0.4701524,4.5666952,2.4159951
			C17.405344,6.7461038,16.3883743,8.8290691,14.5046253,9.4428806z M12.3612785,2.8650868
			c-1.6271229,0.5301909-2.5052366,2.3287504-1.9575691,4.0095072s2.316967,2.6171875,3.9440889,2.086997
			c1.6271229-0.5301914,2.505084-2.3292208,1.9574156-4.0099773C15.7575464,3.2708564,13.9884014,2.3348956,12.3612785,2.8650868z"
			/>
	</g>
	<g>
		
			<radialGradient id="SVGID_21_" cx="28.1321697" cy="4.9645109" r="3.9716249" fx="26.4964333" fy="3.5332413" gradientTransform="matrix(0.8016543 -0.2612157 0.2698261 0.8280789 -3.8420959 8.3445539)" gradientUnits="userSpaceOnUse">
			<stop  offset="0.3616071" style="stop-color:#FFFFFF"/>
			<stop  offset="0.7366071" style="stop-color:#C6C7C8"/>
			<stop  offset="1" style="stop-color:#868686"/>
		</radialGradient>
		<path style="fill:url(#SVGID_21_);" d="M23.2336025,4.0695457c0.591856,1.8163643-0.3538189,3.7533011-2.1122208,4.3262691
			c-1.7584038,0.5729685-3.6636639-0.4350033-4.255518-2.251368c-0.591856-1.8163643,0.3538189-3.7533011,2.1122208-4.3262691
			C20.7364883,1.2452092,22.6417484,2.253181,23.2336025,4.0695457z"/>
		
			<linearGradient id="SVGID_22_" gradientUnits="userSpaceOnUse" x1="26.9346485" y1="2.1371882" x2="32.2454567" y2="7.4479966" gradientTransform="matrix(0.8580264 -0.2795843 0.2820573 0.8656158 -6.6910996 9.2313671)">
			<stop  offset="0.2" style="stop-color:#ECECED"/>
			<stop  offset="0.8" style="stop-color:#B2B2B3"/>
		</linearGradient>
		<path style="fill:url(#SVGID_22_);" d="M19.2133236,2.5401099c1.3702221-0.446481,2.8601856,0.3417792,3.3213844,1.7571681
			s-0.2783432,2.9301238-1.6485653,3.3766046c-1.3702221,0.4464817-2.8601856-0.3417788-3.3213844-1.7571673
			S17.8431015,2.9865911,19.2133236,2.5401099 M18.9780846,1.8181741c-1.7584019,0.5729675-2.7040787,2.5099123-2.1122246,4.3262739
			s2.4971218,2.824338,4.2555218,2.2513704s2.7040787-2.509912,2.1122246-4.3262739S20.7364845,1.2452066,18.9780846,1.8181741
			L18.9780846,1.8181741z"/>
		<path style="fill:#3E3A39;" d="M21.1997948,8.6364603c-1.8837509,0.6138115-3.9326515-0.4701519-4.5666962-2.4159951
			c-0.6341972-1.9463124,0.3827724-4.0292778,2.2665215-4.6430898c1.8846607-0.6141083,3.9331055,0.4700042,4.5673027,2.416317
			C24.1009674,5.9395351,23.0844536,8.0223522,21.1997948,8.6364603z M19.056448,2.0586662
			c-1.6271229,0.5301909-2.5050831,2.3292203-1.9574165,4.0099769c0.5476685,1.680757,2.3168125,2.6167178,3.9439354,2.0865264
			s2.5056915-2.3288984,1.958025-4.009655C22.4533234,2.4647574,20.6835709,1.528475,19.056448,2.0586662z"/>
	</g>
	<g>
		
			<radialGradient id="SVGID_23_" cx="33.4357414" cy="10.9219475" r="3.9716249" fx="31.800005" fy="9.4906778" gradientTransform="matrix(0.8016543 -0.2612157 0.2698261 0.8280789 -3.8420959 8.3445539)" gradientUnits="userSpaceOnUse">
			<stop  offset="0.3616071" style="stop-color:#FFFFFF"/>
			<stop  offset="0.7366071" style="stop-color:#C6C7C8"/>
			<stop  offset="1" style="stop-color:#868686"/>
		</radialGradient>
		<path style="fill:url(#SVGID_23_);" d="M29.0927067,7.6173973c0.5918541,1.8163643-0.3538189,3.7533016-2.1122227,4.3262701
			c-1.7584019,0.5729675-3.663662-0.4350042-4.255518-2.2513685c-0.5918541-1.8163643,0.3538189-3.7533011,2.1122227-4.3262696
			C26.5955906,4.7930613,28.5008526,5.801033,29.0927067,7.6173973z"/>
		
			<linearGradient id="SVGID_24_" gradientUnits="userSpaceOnUse" x1="31.8897781" y1="7.8362846" x2="37.2005844" y2="13.1470928" gradientTransform="matrix(0.8580264 -0.2795843 0.2820573 0.8656158 -6.6910996 9.2313671)">
			<stop  offset="0.2" style="stop-color:#ECECED"/>
			<stop  offset="0.8" style="stop-color:#B2B2B3"/>
		</linearGradient>
		<path style="fill:url(#SVGID_24_);" d="M25.0724277,6.0879617c1.3702221-0.4464808,2.8601837,0.3417788,3.3213825,1.7571678
			s-0.2783432,2.9301238-1.6485653,3.3766046c-1.3702221,0.4464817-2.8601856-0.3417788-3.3213844-1.7571669
			C22.9626637,8.0491781,23.7022057,6.5344429,25.0724277,6.0879617 M24.8371868,5.3660259
			c-1.7584,0.5729675-2.7040768,2.509912-2.1122246,4.3262739c0.5918541,1.8163614,2.4971218,2.824338,4.2555237,2.2513704
			c1.7584-0.5729675,2.7040768-2.5099125,2.1122227-4.3262739S26.5955887,4.7930584,24.8371868,5.3660259L24.8371868,5.3660259z"/>
		<path style="fill:#3E3A39;" d="M27.058897,12.1843119c-1.8846588,0.614109-3.9331055-0.4700041-4.5671501-2.4158468
			c-0.6341972-1.9463124,0.3823185-4.029129,2.2669773-4.6432376s3.9331055,0.4700041,4.5673027,2.416317
			C29.9600716,9.4873867,28.9435558,11.5702038,27.058897,12.1843119z M24.9155502,5.6065178
			c-1.6271229,0.5301914-2.505537,2.3293686-1.9578705,4.0101252c0.5476685,1.6807575,2.3172684,2.6165695,3.9443913,2.0863791
			c1.6271229-0.5301914,2.5056915-2.3288984,1.9580231-4.0096555C28.3124275,6.0126095,26.5426731,5.0763268,24.9155502,5.6065178z"
			/>
	</g>
	<g>
		
			<radialGradient id="SVGID_25_" cx="33.5810432" cy="18.8167629" r="3.9716249" fx="31.9453068" fy="17.3854923" gradientTransform="matrix(0.8016543 -0.2612157 0.2698261 0.8280789 -3.8420959 8.3445539)" gradientUnits="userSpaceOnUse">
			<stop  offset="0.3616071" style="stop-color:#FFFFFF"/>
			<stop  offset="0.7366071" style="stop-color:#C6C7C8"/>
			<stop  offset="1" style="stop-color:#868686"/>
		</radialGradient>
		<path style="fill:url(#SVGID_25_);" d="M31.3394165,14.116972c0.5918541,1.8163643-0.3538189,3.7533016-2.1122227,4.3262691
			c-1.7584019,0.5729694-3.663662-0.4350033-4.255518-2.2513676c-0.5918541-1.8163643,0.3538189-3.7533016,2.1122227-4.3262701
			C28.8423023,11.2926359,30.7475624,12.3006077,31.3394165,14.116972z"/>
		
			<linearGradient id="SVGID_26_" gradientUnits="userSpaceOnUse" x1="32.0255356" y1="15.3887463" x2="37.3363419" y2="20.6995544" gradientTransform="matrix(0.8580264 -0.2795843 0.2820573 0.8656158 -6.6910996 9.2313671)">
			<stop  offset="0.2" style="stop-color:#ECECED"/>
			<stop  offset="0.8" style="stop-color:#B2B2B3"/>
		</linearGradient>
		<path style="fill:url(#SVGID_26_);" d="M27.3191376,12.5875368c1.3702221-0.4464817,2.8601856,0.3417788,3.3213825,1.7571669
			c0.4611988,1.4153891-0.2783432,2.9301243-1.6485653,3.376606c-1.3702221,0.4464798-2.8601856-0.3417797-3.3213844-1.7571688
			C25.2093735,14.5487528,25.9489155,13.0340176,27.3191376,12.5875368 M27.0838966,11.8656006
			c-1.7584,0.5729675-2.7040768,2.5099125-2.1122246,4.326273c0.5918541,1.8163624,2.4971218,2.8243389,4.2555237,2.2513714
			c1.7584-0.5729675,2.7040768-2.5099125,2.1122227-4.3262739S28.8422985,11.2926331,27.0838966,11.8656006L27.0838966,11.8656006z"
			/>
		<path style="fill:#3E3A39;" d="M29.3055553,18.6837292c-1.8846588,0.614109-3.9331036-0.4700031-4.5671482-2.4158459
			s0.3824692-4.0286598,2.267128-4.6427679c1.8846607-0.6141081,3.9331055,0.4700041,4.5671501,2.4158468
			S31.1902161,18.069622,29.3055553,18.6837292z M27.1623631,12.1064062
			c-1.6271229,0.5301905-2.5056915,2.3288984-1.958025,4.009656c0.5476685,1.6807556,2.3172684,2.6165676,3.9443913,2.0863781
			c1.6271229-0.5301914,2.5056915-2.3288994,1.958025-4.009656C30.5590858,12.5120277,28.7894859,11.5762148,27.1623631,12.1064062z
			"/>
	</g>
	<g>
		
			<radialGradient id="SVGID_27_" cx="35.1781235" cy="26.2783146" r="3.6327748" fx="33.6819458" fy="24.9691582" gradientTransform="matrix(0.8016543 -0.2612157 0.2698261 0.8280789 -3.8420959 8.3445539)" gradientUnits="userSpaceOnUse">
			<stop  offset="0.1946903" style="stop-color:#FFFFFF"/>
			<stop  offset="0.4014302" style="stop-color:#B2B2B3"/>
			<stop  offset="0.7100585" style="stop-color:#595757"/>
			<stop  offset="0.9690266" style="stop-color:#3E3A39"/>
		</radialGradient>
		<path style="fill:url(#SVGID_27_);" d="M34.3614006,19.9670563c0.5413589,1.661396-0.3236313,3.4330788-1.9320107,3.9571609
			c-1.6083813,0.5240841-3.3510876-0.3978901-3.8924465-2.0592861s0.3236313-3.4330769,1.9320107-3.9571609
			C32.0773354,17.3836861,33.8200417,18.3056602,34.3614006,19.9670563z"/>
		
			<linearGradient id="SVGID_28_" gradientUnits="userSpaceOnUse" x1="33.7442398" y1="22.7532864" x2="38.6019402" y2="27.6109848" gradientTransform="matrix(0.8580264 -0.2795843 0.2820573 0.8656158 -6.6910996 9.2313671)">
			<stop  offset="0.2" style="stop-color:#B2B2B3"/>
			<stop  offset="0.8" style="stop-color:#717071"/>
		</linearGradient>
		<path style="fill:url(#SVGID_28_);" d="M30.704195,18.6297112c1.2204342-0.3976746,2.5475292,0.3044128,2.9583111,1.5650768
			s-0.2479248,2.6098175-1.4683571,3.0074902c-1.2204361,0.3976746-2.5475235-0.3044167-2.9583054-1.5650806
			S29.4837608,19.0273838,30.704195,18.6297112 M30.468956,17.907774c-1.6083813,0.5240841-2.4733696,2.2957611-1.9320107,3.9571571
			s2.2840614,2.5833683,3.8924408,2.0592842s2.4733772-2.2957649,1.9320183-3.9571609
			C33.8200455,18.3056602,32.0773354,17.3836899,30.468956,17.907774L30.468956,17.907774z"/>
		<path style="fill:#3E3A39;" d="M32.5078506,24.1646748c-1.7345066,0.5651817-3.6199646-0.432703-4.2036209-2.2239113
			c-0.5836582-1.7912102,0.3519573-3.7083302,2.086462-4.27351c1.7345066-0.5651817,3.6199627,0.432703,4.2036228,2.2239113
			C35.1779709,21.682375,34.2423553,23.599493,32.5078506,24.1646748z M30.5475197,18.1485443
			c-1.4769688,0.4812622-2.2746391,2.1142731-1.777359,3.6403961c0.497282,1.526123,2.1038952,2.3757076,3.580864,1.8944435
			c1.4769669-0.4812641,2.2746391-2.1142731,1.7773552-3.6403961
			C33.6310997,18.5168629,32.0244865,17.6672802,30.5475197,18.1485443z"/>
	</g>
	<g>
		
			<radialGradient id="SVGID_29_" cx="38.9572678" cy="32.9596214" r="3.9716249" fx="37.3215294" fy="31.5283508" gradientTransform="matrix(0.8016543 -0.2612157 0.2698261 0.8280789 -3.8420959 8.3445539)" gradientUnits="userSpaceOnUse">
			<stop  offset="0.3616071" style="stop-color:#FFFFFF"/>
			<stop  offset="0.7366071" style="stop-color:#C6C7C8"/>
			<stop  offset="1" style="stop-color:#868686"/>
		</radialGradient>
		<path style="fill:url(#SVGID_29_);" d="M39.4654007,24.4240208c0.5918541,1.8163662-0.353817,3.7533016-2.1122208,4.3262711
			c-1.7584038,0.5729675-3.663662-0.4350052-4.2555199-2.2513695c-0.5918541-1.8163643,0.3538208-3.7532997,2.1122246-4.3262691
			C36.9682884,21.5996857,38.8735466,22.6076565,39.4654007,24.4240208z"/>
		
			<linearGradient id="SVGID_30_" gradientUnits="userSpaceOnUse" x1="37.048542" y1="28.9183102" x2="42.3593521" y2="34.2291183" gradientTransform="matrix(0.8580264 -0.2795843 0.2820573 0.8656158 -6.6910996 9.2313671)">
			<stop  offset="0.2" style="stop-color:#ECECED"/>
			<stop  offset="0.8" style="stop-color:#B2B2B3"/>
		</linearGradient>
		<path style="fill:url(#SVGID_30_);" d="M35.4451218,22.8945866c1.370224-0.4464798,2.8601875,0.3417797,3.3213844,1.7571678
			c0.4612007,1.4153881-0.2783432,2.9301243-1.6485672,3.3766041c-1.3702202,0.4464817-2.8601837-0.3417778-3.3213806-1.7571659
			C33.3353577,24.8558044,34.0749016,23.3410683,35.4451218,22.8945866 M35.2098808,22.1726513
			c-1.7584,0.5729675-2.7040749,2.5099125-2.1122208,4.326273c0.5918503,1.8163624,2.4971199,2.8243389,4.2555199,2.2513714
			s2.7040787-2.5099125,2.1122246-4.3262749S36.9682846,21.5996838,35.2098808,22.1726513L35.2098808,22.1726513z"/>
		<path style="fill:#3E3A39;" d="M37.431488,28.9906235c-1.8846588,0.6141071-3.9331017-0.470005-4.5671463-2.4158478
			s0.3824692-4.0286598,2.267128-4.642767c1.8846588-0.614109,3.9331055,0.4700031,4.5671501,2.4158459
			S39.3161507,28.3765144,37.431488,28.9906235z M35.2882957,22.4132996
			c-1.627121,0.5301895-2.5056915,2.3288975-1.9580231,4.009655c0.5476685,1.6807556,2.3172684,2.6165695,3.9443893,2.0863781
			c1.6271248-0.5301914,2.5056915-2.3288994,1.9580269-4.009655C38.6850204,22.8189201,36.9154205,21.8831081,35.2882957,22.4132996
			z"/>
	</g>
	<g>
		
			<radialGradient id="SVGID_31_" cx="43.4132385" cy="39.7404442" r="3.9716249" fx="41.7775002" fy="38.3091736" gradientTransform="matrix(0.8016543 -0.2612157 0.2698261 0.8280789 -3.8420959 8.3445539)" gradientUnits="userSpaceOnUse">
			<stop  offset="0.3616071" style="stop-color:#FFFFFF"/>
			<stop  offset="0.7366071" style="stop-color:#C6C7C8"/>
			<stop  offset="1" style="stop-color:#868686"/>
		</radialGradient>
		<path style="fill:url(#SVGID_31_);" d="M44.8671913,28.8751087c0.5918541,1.8163643-0.3538208,3.7533016-2.1122246,4.3262691
			c-1.7584,0.5729675-3.663662-0.4350052-4.2555161-2.2513676c-0.5918541-1.8163643,0.3538208-3.7533016,2.1122208-4.3262691
			C42.3700752,26.0507717,44.2753372,27.0587444,44.8671913,28.8751087z"/>
		
			<linearGradient id="SVGID_32_" gradientUnits="userSpaceOnUse" x1="41.2117577" y1="35.4050865" x2="46.5225639" y2="40.7158928" gradientTransform="matrix(0.8580264 -0.2795843 0.2820573 0.8656158 -6.6910996 9.2313671)">
			<stop  offset="0.2" style="stop-color:#ECECED"/>
			<stop  offset="0.8" style="stop-color:#B2B2B3"/>
		</linearGradient>
		<path style="fill:url(#SVGID_32_);" d="M40.8469124,27.3456726c1.3702164-0.4464779,2.8601761,0.3417816,3.3213768,1.7571697
			c0.4611969,1.4153881-0.2783432,2.9301243-1.6485558,3.3766041c-1.370224,0.4464798-2.8601875-0.3417816-3.3213844-1.7571697
			C38.7371483,29.3068886,39.4766922,27.7921543,40.8469124,27.3456726 M40.6116753,26.6237373
			c-1.7584038,0.5729675-2.7040787,2.5099106-2.1122246,4.326273s2.4971199,2.8243389,4.2555199,2.2513714
			s2.704071-2.5099087,2.1122169-4.3262711S42.3700752,26.0507698,40.6116753,26.6237373L40.6116753,26.6237373z"/>
		<path style="fill:#3E3A39;" d="M42.8331795,33.4424362c-1.8837471,0.6138115-3.9320412-0.4698296-4.566391-2.4166145
			c-0.6340446-1.9458427,0.3824692-4.0286598,2.2662201-4.6424713c1.8846588-0.6141071,3.9331017,0.470005,4.5671463,2.4158478
			C45.7345085,30.7459812,44.7178383,32.8283272,42.8331795,33.4424362z M40.6898346,26.8646412
			c-1.6271248,0.5301914-2.5047836,2.3286018-1.9571152,4.0093594c0.5476685,1.6807556,2.3165131,2.6173363,3.943634,2.0871429
			c1.6271248-0.5301895,2.5055389-2.3293667,1.9578705-4.0101242
			C44.0865555,27.2702637,42.3169556,26.3344498,40.6898346,26.8646412z"/>
	</g>
	<g>
		
			<radialGradient id="SVGID_33_" cx="44.4787941" cy="47.5868263" r="3.9716249" fx="42.8430557" fy="46.1555557" gradientTransform="matrix(0.8016543 -0.2612157 0.2698261 0.8280789 -3.8420959 8.3445539)" gradientUnits="userSpaceOnUse">
			<stop  offset="0.3616071" style="stop-color:#FFFFFF"/>
			<stop  offset="0.7366071" style="stop-color:#C6C7C8"/>
			<stop  offset="1" style="stop-color:#868686"/>
		</radialGradient>
		<path style="fill:url(#SVGID_33_);" d="M47.8385582,35.0941925c0.5918541,1.8163643-0.3538208,3.7532997-2.1122246,4.3262672
			c-1.7584,0.5729675-3.663662-0.4350014-4.2555161-2.2513657s0.3538208-3.7533035,2.1122208-4.3262711
			C45.3414421,32.2698555,47.2467041,33.2778282,47.8385582,35.0941925z"/>
		
			<linearGradient id="SVGID_34_" gradientUnits="userSpaceOnUse" x1="42.2073059" y1="42.9112129" x2="47.518116" y2="48.222023" gradientTransform="matrix(0.8580264 -0.2795843 0.2820573 0.8656158 -6.6910996 9.2313671)">
			<stop  offset="0.2" style="stop-color:#ECECED"/>
			<stop  offset="0.8" style="stop-color:#B2B2B3"/>
		</linearGradient>
		<path style="fill:url(#SVGID_34_);" d="M43.8182793,33.5647545c1.3702202-0.4464798,2.8601875,0.3417778,3.3213844,1.7571678
			s-0.2783432,2.9301262-1.6485672,3.376606c-1.3702202,0.4464836-2.8601837-0.3417816-3.3213844-1.7571678
			C41.7085152,35.5259705,42.4480553,34.0112381,43.8182793,33.5647545 M43.5830383,32.8428192
			c-1.7584,0.5729675-2.7040787,2.5099106-2.1122246,4.3262749c0.5918541,1.8163605,2.4971237,2.824337,4.2555237,2.2513695
			s2.7040787-2.5099106,2.1122246-4.3262749C47.2467079,33.2778282,45.3414383,32.2698517,43.5830383,32.8428192
			L43.5830383,32.8428192z"/>
		<path style="fill:#3E3A39;" d="M45.8048515,39.6614189c-1.8846588,0.614109-3.9329529-0.4695358-4.5673027-2.416317
			c-0.6343536-1.9467812,0.3823166-4.029129,2.2669754-4.6432381s3.9329529,0.4695358,4.5673027,2.416317
			S47.6895103,39.0473099,45.8048515,39.6614189z M43.6613503,33.0831528
			c-1.627121,0.5301933-2.5055389,2.3293686-1.9578705,4.010128c0.5476685,1.6807556,2.317421,2.6170387,3.9445457,2.0868492
			c1.627121-0.5301933,2.5055351-2.3293686,1.9578705-4.010128C47.0582275,33.4892464,45.288475,32.5529633,43.6613503,33.0831528z"
			/>
	</g>
	<g>
		
			<radialGradient id="SVGID_35_" cx="38.9572678" cy="53.3989601" r="3.9716249" fx="37.3215294" fy="51.9676895" gradientTransform="matrix(0.8016543 -0.2612157 0.2698261 0.8280789 -3.8420959 8.3445539)" gradientUnits="userSpaceOnUse">
			<stop  offset="0.3616071" style="stop-color:#FFFFFF"/>
			<stop  offset="0.7366071" style="stop-color:#C6C7C8"/>
			<stop  offset="1" style="stop-color:#868686"/>
		</radialGradient>
		<path style="fill:url(#SVGID_35_);" d="M44.9804688,41.3494072c0.5918541,1.8163643-0.3538208,3.7532997-2.1122246,4.3262672
			s-3.663662-0.4350014-4.2555161-2.2513657s0.353817-3.7533035,2.1122208-4.3262711S44.3886108,39.5330429,44.9804688,41.3494072z"
			/>
		
			<linearGradient id="SVGID_36_" gradientUnits="userSpaceOnUse" x1="37.048542" y1="48.4713058" x2="42.3593521" y2="53.7821159" gradientTransform="matrix(0.8580264 -0.2795843 0.2820573 0.8656158 -6.6910996 9.2313671)">
			<stop  offset="0.2" style="stop-color:#ECECED"/>
			<stop  offset="0.8" style="stop-color:#B2B2B3"/>
		</linearGradient>
		<path style="fill:url(#SVGID_36_);" d="M40.960186,39.8199692c1.370224-0.4464798,2.8601875,0.3417816,3.3213882,1.7571678
			c0.4611969,1.41539-0.278347,2.9301262-1.6485672,3.376606c-1.370224,0.4464836-2.8601875-0.3417778-3.3213844-1.7571678
			C38.8504219,41.7811852,39.5899658,40.266449,40.960186,39.8199692 M40.7249489,39.0980339
			c-1.7584038,0.5729675-2.7040787,2.5099106-2.1122246,4.3262749c0.5918541,1.8163605,2.4971199,2.8243408,4.2555237,2.2513733
			c1.7584-0.5729675,2.7040787-2.5099144,2.1122246-4.3262787C44.3886185,39.5330429,42.4833488,38.5250664,40.7249489,39.0980339
			L40.7249489,39.0980339z"/>
		<path style="fill:#3E3A39;" d="M42.9467583,45.9166336c-1.8846588,0.614109-3.9329491-0.469532-4.5673027-2.416317
			c-0.6343498-1.9467812,0.3823166-4.029129,2.2669792-4.6432381c1.8846588-0.614109,3.9329491,0.4695358,4.5673027,2.416317
			C45.8480873,43.2201805,44.8314209,45.3025246,42.9467583,45.9166336z M40.8032608,39.3383713
			c-1.6271248,0.5301895-2.5055389,2.3293686-1.9578705,4.0101242s2.317421,2.6170387,3.9445419,2.0868492
			c1.6271248-0.5301933,2.5055389-2.3293686,1.9578705-4.010128C44.2001381,39.7444611,42.4303818,38.8081779,40.8032608,39.3383713
			z"/>
	</g>
	<g>
		
			<radialGradient id="SVGID_37_" cx="30.5913525" cy="56.5903358" r="4.867662" fx="28.5865784" fy="54.8361588" gradientTransform="matrix(0.8016543 -0.2612157 0.2698261 0.8280789 -3.8420959 8.3445539)" gradientUnits="userSpaceOnUse">
			<stop  offset="0.3616071" style="stop-color:#FFFFFF"/>
			<stop  offset="0.6259877" style="stop-color:#FFE9CA"/>
			<stop  offset="0.8628318" style="stop-color:#D9B98B"/>
		</radialGradient>
		<path style="fill:url(#SVGID_37_);" d="M39.8533211,45.943367c0.7253838,2.2261543-0.4336433,4.6000824-2.5887566,5.3023186
			c-2.155117,0.7022362-4.4902229-0.5331459-5.2156067-2.7593002c-0.7253819-2.2261543,0.4336433-4.6000824,2.5887604-5.3023186
			S39.1279411,43.7172127,39.8533211,45.943367z"/>
		
			<linearGradient id="SVGID_38_" gradientUnits="userSpaceOnUse" x1="28.6331806" y1="50.9252052" x2="35.1421585" y2="57.4341812" gradientTransform="matrix(0.8580264 -0.2795843 0.2820573 0.8656158 -6.6910996 9.2313671)">
			<stop  offset="0.2" style="stop-color:#FFEFD9"/>
			<stop  offset="0.8" style="stop-color:#BFA37A"/>
		</linearGradient>
		<path style="fill:url(#SVGID_38_);" d="M34.8729591,43.906002c1.7662926-0.5755386,3.6869545,0.4405823,4.2814674,2.2650948
			c0.5945091,1.8245163-0.3588104,3.7771111-2.125103,4.3526497s-3.6869545-0.4405823-4.2814674-2.2650948
			C32.153347,46.4341393,33.1066666,44.4815407,34.8729591,43.906002 M34.6377182,43.1840668
			c-2.1551132,0.7022362-3.3141422,3.0761642-2.5887604,5.3023186c0.7253838,2.2261505,3.0604897,3.4615326,5.2156067,2.7592964
			c2.1551132-0.7022324,3.3141403-3.0761642,2.5887604-5.3023148
			C39.1279411,43.7172127,36.7928314,42.4818306,34.6377182,43.1840668L34.6377182,43.1840668z"/>
		<path style="fill:#403628;" d="M37.3425713,51.4861145c-2.2800636,0.7429504-4.7589378-0.5684891-5.5265293-2.9241791
			c-0.7675915-2.3556938,0.4627934-4.8757782,2.742857-5.6187286c2.2805214-0.7430954,4.7593918,0.5683441,5.5269852,2.9240341
			C40.8534775,48.2229347,39.6230888,50.7430191,37.3425713,51.4861145z M34.7157249,43.4244995
			c-2.0229797,0.6591797-3.1146603,2.8959465-2.4337502,4.9856148c0.6809082,2.0896645,2.8807869,3.253891,4.9037704,2.5947113
			s3.1151161-2.8960953,2.4342079-4.9857635C38.9390411,43.9293976,36.7387085,42.7653198,34.7157249,43.4244995z"/>
	</g>
	<g>
		
			<radialGradient id="SVGID_39_" cx="29.0637436" cy="35.0826759" r="3.5262938" gradientTransform="matrix(0.8220488 -0.569417 0.8514979 1.22928 -17.1280918 21.516571)" gradientUnits="userSpaceOnUse">
			<stop  offset="0.2831858" style="stop-color:#FFFFFF"/>
			<stop  offset="1" style="stop-color:#B2B2B3"/>
		</radialGradient>
		<path style="fill:url(#SVGID_39_);" d="M40.6216354,48.0226936c0.6952782,1.0037498,0.0383606,2.662899-1.4672623,3.7058144
			c-1.5056267,1.0429192-3.2898064,1.0746689-3.9850845,0.070919s-0.0383644-2.662899,1.4672623-3.7058144
			C38.1421738,47.0506973,39.9263573,47.0189438,40.6216354,48.0226936z"/>
		<radialGradient id="SVGID_40_" cx="37.8983498" cy="49.9111328" r="3.0675962" gradientUnits="userSpaceOnUse">
			<stop  offset="0.6238938" style="stop-color:#FFFFFF"/>
			<stop  offset="1" style="stop-color:#3E3A39"/>
		</radialGradient>
		<path style="fill:url(#SVGID_40_);" d="M36.8037109,52.7822266c-0.8115234,0-1.4648438-0.2988281-1.8398438-0.8398438
			c-0.7734375-1.1162109-0.0859375-2.9345703,1.5302734-4.0537109c0.7900391-0.5478516,1.6757813-0.8486328,2.4941406-0.8486328
			c0.8105469,0,1.4638672,0.2988281,1.8388672,0.8398438c0.3857422,0.5566406,0.4277344,1.2929688,0.1191406,2.0732422
			c-0.2958984,0.7451172-0.8808594,1.4482422-1.6494141,1.9804688
			C38.5068359,52.4804688,37.6220703,52.7822266,36.8037109,52.7822266z M38.9882813,47.5400391
			c-0.7070313,0-1.5126953,0.2763672-2.2089844,0.7587891c-1.390625,0.9628906-2.0205078,2.4697266-1.4052734,3.3583984
			c0.2792969,0.4033203,0.7871094,0.625,1.4296875,0.625c0.7070313,0,1.5117188-0.2773438,2.2080078-0.7587891
			c0.6884766-0.4775391,1.2099609-1.0996094,1.4697266-1.7548828c0.2451172-0.6191406,0.2226563-1.1894531-0.0644531-1.6035156
			C40.1376953,47.7617188,39.6298828,47.5400391,38.9882813,47.5400391z"/>
	</g>
	<g>
		
			<radialGradient id="SVGID_41_" cx="29.0637436" cy="36.5105324" r="2.5712559" gradientTransform="matrix(0.8220488 -0.569417 0.8514979 1.22928 -17.5308647 20.9351025)" gradientUnits="userSpaceOnUse">
			<stop  offset="0.2831858" style="stop-color:#FFFFFF"/>
			<stop  offset="1" style="stop-color:#B2B2B3"/>
		</radialGradient>
		<path style="fill:url(#SVGID_41_);" d="M40.3553886,49.2156715c0.5069733,0.7318993,0.0279694,1.9416962-1.0698814,2.7021561
			s-2.3988152,0.7836113-2.9057884,0.051712c-0.5069733-0.7319031-0.0279732-1.9417,1.0698776-2.7021599
			S39.8484154,48.4837685,40.3553886,49.2156715z"/>
		<radialGradient id="SVGID_42_" cx="38.3666115" cy="50.5927734" r="2.3060613" gradientUnits="userSpaceOnUse">
			<stop  offset="0.6238938" style="stop-color:#FFFFFF"/>
			<stop  offset="1" style="stop-color:#3E3A39"/>
		</radialGradient>
		<path style="fill:url(#SVGID_42_);" d="M37.5722656,52.7539063c-0.6152344,0-1.1113281-0.2275391-1.3974609-0.6416016
			c-0.5947266-0.8583984-0.0966797-2.1982422,1.1318359-3.0498047c0.5878906-0.4072266,1.2470703-0.6308594,1.8574219-0.6308594
			c0.6142578,0,1.1103516,0.2275391,1.3974609,0.6416016c0.2939453,0.4248047,0.3271484,0.984375,0.09375,1.5742188
			c-0.2207031,0.5566406-0.65625,1.0800781-1.2275391,1.4755859C38.8408203,52.5302734,38.1816406,52.7539063,37.5722656,52.7539063
			z M39.1640625,48.9316406c-0.5019531,0-1.0751953,0.1972656-1.5722656,0.5410156
			c-0.9658203,0.6699219-1.4267578,1.7480469-1.0058594,2.3544922c0.4042969,0.5849609,1.6191406,0.5351563,2.5566406-0.1142578
			c0.4912109-0.3408203,0.8632813-0.7841797,1.046875-1.2490234c0.1708984-0.4296875,0.15625-0.8222656-0.0390625-1.1054688
			C39.9599609,49.0830078,39.609375,48.9316406,39.1640625,48.9316406z"/>
	</g>
	<g>
		<path style="fill:#6A3906;" d="M59.1875,61.5c-2.4435425,0.112793-6.0770264-0.4821777-8.5916748-0.9749146
			C53.4213867,60.7336426,57.25,60.583313,57.25,60.583313l0.583313-1.166687L59.416687,59.25L59.25,57.5l-1.5,0.166626
			l0.166687-1.333313l1.416626-0.25L59.25,55c-0.6998901,0.2441406-1.4214478,0.3712769-2.1304321,0.421936L57,54.625
			c-1.4276123,0.3059082-2.5427856,0.4481812-3.4217529,0.4995117C52.3363647,54.8493652,51.5,54.5,51.5,54.5
			c3,1.166626,8.166687-0.666687,8.166687-0.666687l-0.453186-0.906311c1.4783325-0.5205688,2.4667358-1,2.5911865-1.0617676
			L61.3613281,50.96875c-0.0284424,0.0140991-0.9129639,0.4425049-2.2769775,0.9296875L58.875,51.375
			c-2.9676514,1.288269-5.4978638,1.7775879-7.3649292,1.9414673c-1.9025879-0.0269775-3.7994995-0.4159546-5.3997192-1.4824829
			c-2.859375-1.90625-5.1347656-2.6923828-6.7695313-2.34375c-0.8320313,0.1787109-1.2294922,0.6103516-1.3554688,0.7763672
			c-0.3212891,0.3251953-1.6425781,1.9414063,0.5390625,4.7099609c2.0634766,2.6201172,5.9042969,7.4960938,22.2871094,8.1904297
			l0.0429688-1c-0.6513062-0.0275879-1.2747192-0.0640259-1.8857422-0.1044312L59.1875,61.5z"/>
		<path style="fill:#804F21;" d="M54.3743286,60.1204834C54.4700928,60.1212769,54.569458,60.125,54.6640625,60.125
			c3.5908203,0,6.3359375-0.5771484,6.609375-0.6367188l-0.2128906-0.9765625
			c-0.1341553,0.0274658-11.4665527,2.5182495-18.3017578-2.5814819C44.4402466,56.8944092,48.40625,58.84375,54.53125,58.9375
			c0,0-6.375-0.5-8.642334-3.3218994c4.2446289,2.1329956,7.6047363,2.7496338,10.0622559,2.7496338
			c3.1708984,0,4.8427734-1.0205078,4.9853516-1.1113281l-0.5390625-0.8417969
			c-0.0656738,0.0418701-6.6866455,4.0629883-19.5071411-5.0028687c0.3728027,0.1326904,0.8042603,0.3103027,1.2575684,0.505127
			C43.4929199,52.8222046,46.65625,54.90625,50.40625,56.15625c0,0-2.5-1.34375-3.133606-1.9414673
			c0.9439087,0.4089966,1.9532471,0.8310547,3.0476685,1.2520142c2.3974609,0.921875,4.5048828,1.2197266,6.2294922,1.2197266
			c3.0478516,0,4.8955078-0.9316406,5.0136719-0.9931641l-0.4599609-0.8876953
			c-0.0365601,0.019165-3.3823853,1.6733398-8.4949951,0.3425903c4.8081055,0.4606323,8.6831665-1.3640747,8.8582764-1.4480591
			l-0.4335938-0.9003906c-0.0439453,0.0195313-4.4189453,2.0830078-9.4472656,1.2080078
			c-0.0976563-0.0170288-0.1967773-0.0429077-0.2948608-0.0621338C55.8934326,53.9945679,59.6875,52.0625,59.6875,52.0625
			c-3.973938,1.421875-7,1.78125-9.5625,1.4375s-4.3345947-1.4819946-5.28125-2.0625s-2.1500092-0.9292297-3.6021729-1.368103
			C37.703125,49,37.1762695,52.458252,38.4326172,54.1328125l0.1806641,0.2460938
			c1.2880859,1.7763672,4.9169922,6.7832031,17.7294922,6.7822266c1.5888672,0,3.3183594-0.0761719,5.2021484-0.2460938
			l-0.0898438-0.9960938C58.7833252,60.1606445,56.4396973,60.2106323,54.3743286,60.1204834z"/>
		<linearGradient id="SVGID_43_" gradientUnits="userSpaceOnUse" x1="37.7650719" y1="51.9432602" x2="43.8692398" y2="58.0474281">
			<stop  offset="0" style="stop-color:#FFFFFF;stop-opacity:0.2"/>
			<stop  offset="0.0663717" style="stop-color:#FFFFFF;stop-opacity:0.4"/>
			<stop  offset="0.340708" style="stop-color:#FFFFFF;stop-opacity:0.4"/>
			<stop  offset="0.960177" style="stop-color:#FFFFFF;stop-opacity:0"/>
		</linearGradient>
		<path style="fill:url(#SVGID_43_);" d="M38.5,51.2083321c0,0-1.9166679,3.0833359,5.125,7.0833359
			c0,0-2.4234886-2.0186043-3.7083321-3.9166679C38.0833321,51.6666679,38.5,51.2083321,38.5,51.2083321z"/>
		
			<linearGradient id="SVGID_44_" gradientUnits="userSpaceOnUse" x1="39.6548729" y1="51.2315903" x2="46.9636688" y2="58.5403862" gradientTransform="matrix(0.9711643 -0.2384113 0.2384113 0.9711643 -11.672595 11.658659)">
			<stop  offset="0" style="stop-color:#FFFFFF;stop-opacity:0.2"/>
			<stop  offset="0.0663717" style="stop-color:#FFFFFF;stop-opacity:0.4"/>
			<stop  offset="0.340708" style="stop-color:#FFFFFF;stop-opacity:0.4"/>
			<stop  offset="0.960177" style="stop-color:#FFFFFF;stop-opacity:0"/>
		</linearGradient>
		<path style="fill:url(#SVGID_44_);" d="M39.5833321,51.0833321c0,0,0.3497887,4.3027153,8.1420517,6.5085564
			c0,0-2.8348656-1.3826065-4.5351791-2.9196167C40.7640381,52.4791222,39.5833321,51.0833321,39.5833321,51.0833321z"/>
		
			<linearGradient id="SVGID_45_" gradientUnits="userSpaceOnUse" x1="42.5895805" y1="48.318779" x2="50.6855659" y2="56.4147606" gradientTransform="matrix(0.8263324 -0.5631827 0.5631827 0.8263324 -22.1913033 35.2201881)">
			<stop  offset="0" style="stop-color:#FFFFFF;stop-opacity:0.2"/>
			<stop  offset="0.0663717" style="stop-color:#FFFFFF;stop-opacity:0.4"/>
			<stop  offset="0.340708" style="stop-color:#FFFFFF;stop-opacity:0.4"/>
			<stop  offset="0.960177" style="stop-color:#FFFFFF;stop-opacity:0"/>
		</linearGradient>
		<path style="fill:url(#SVGID_45_);" d="M40.375,50.3125c0,0,4.7916679,3.3125,10.9387856,3.7710724
			c0,0-4.1471176-0.6669044-6.6887856-2.2085724C41.8286896,50.1788788,40.375,50.3125,40.375,50.3125z"/>
	</g>
</g>
<g>
</g>
<g>
</g>
<g>
</g>
<g>
</g>
<g>
</g>
<g>
</g>
</svg>
