<?xml version="1.0" encoding="utf-8"?>
<!-- Generator: Adobe Illustrator 16.0.0, SVG Export Plug-In . SVG Version: 6.00 Build 0)  -->
<!DOCTYPE svg PUBLIC "-//W3C//DTD SVG 1.1//EN" "http://www.w3.org/Graphics/SVG/1.1/DTD/svg11.dtd">
<svg version="1.1" id="Layer_31_copy_5" xmlns="http://www.w3.org/2000/svg" xmlns:xlink="http://www.w3.org/1999/xlink" x="0px"
	 y="0px" width="64px" height="64px" viewBox="0 0 64 64" enable-background="new 0 0 64 64" xml:space="preserve">
<g>
	<path fill="#182985" stroke="#2C5DA9" stroke-width="5" stroke-miterlimit="10" d="M54.396,6.526H10.052
		c-1.933,0-3.5,1.567-3.5,3.5v44.348c0,1.934,1.567,3.501,3.5,3.501h44.344c1.934,0,3.5-1.567,3.5-3.501V10.027
		C57.896,8.094,56.33,6.526,54.396,6.526z"/>
	<radialGradient id="SVGID_1_" cx="32.2241" cy="32.2012" r="29.6558" gradientUnits="userSpaceOnUse">
		<stop  offset="0" style="stop-color:#DFF0F9"/>
		<stop  offset="1" style="stop-color:#008CCD"/>
	</radialGradient>
	<path fill="url(#SVGID_1_)" d="M54.396,6.526H10.052c-1.933,0-3.5,1.567-3.5,3.5v44.348c0,1.934,1.567,3.501,3.5,3.501h44.344
		c1.934,0,3.5-1.567,3.5-3.501V10.027C57.896,8.094,56.33,6.526,54.396,6.526z"/>
	<path fill="#00B0E7" d="M54.396,6.526h-0.697c1.934,0,3.5,1.567,3.5,3.5v44.348c0,1.934-1.566,3.501-3.5,3.501h0.697
		c1.934,0,3.5-1.567,3.5-3.501V10.027C57.896,8.094,56.33,6.526,54.396,6.526z"/>
	<path fill="#00B0E7" d="M7.252,54.375V10.027c0-1.933,1.567-3.5,3.5-3.5h-0.701c-1.933,0-3.5,1.567-3.5,3.5v44.348
		c0,1.934,1.567,3.501,3.5,3.501h0.701C8.82,57.876,7.252,56.309,7.252,54.375z"/>
	<radialGradient id="SVGID_2_" cx="32.2241" cy="9.0293" r="21.0683" gradientUnits="userSpaceOnUse">
		<stop  offset="0" style="stop-color:#DFF0F9"/>
		<stop  offset="1" style="stop-color:#00B4EB"/>
	</radialGradient>
	<path fill="url(#SVGID_2_)" d="M54.396,6.526H10.052c-1.933,0-3.5,1.567-3.5,3.5v1.506c0-1.933,1.567-3.5,3.5-3.5h44.344
		c1.934,0,3.5,1.567,3.5,3.5v-1.506C57.896,8.094,56.33,6.526,54.396,6.526z"/>
	<radialGradient id="SVGID_3_" cx="32.2241" cy="54.5977" r="18.3005" gradientUnits="userSpaceOnUse">
		<stop  offset="0" style="stop-color:#DFF0F9"/>
		<stop  offset="1" style="stop-color:#00B4EB"/>
	</radialGradient>
	<path fill="url(#SVGID_3_)" d="M10.052,57.876h44.345c1.934,0,3.5-1.567,3.5-3.501v-3.056c0,1.935-1.566,3.501-3.5,3.501H10.052
		c-1.933,0-3.5-1.566-3.5-3.501v3.056C6.552,56.309,8.119,57.876,10.052,57.876z"/>
	<g>
		<g>
			<g>
				<g>
					<g>
						<path fill="#F5B32C" stroke="#036EB5" stroke-width="5" stroke-miterlimit="10" d="M31.637,31.434l-13.397-9.278
							c-0.24-0.166-0.604-0.216-0.918-0.126c-0.313,0.091-0.518,0.303-0.518,0.539v18.554c0,0.236,0.204,0.449,0.518,0.539
							c0.104,0.031,0.214,0.045,0.322,0.045c0.219,0,0.435-0.061,0.596-0.172l13.397-9.276c0.158-0.109,0.247-0.257,0.247-0.413
							C31.884,31.692,31.795,31.543,31.637,31.434z"/>
						<path fill="#F5B32C" stroke="#036EB5" stroke-width="5" stroke-miterlimit="10" d="M37.925,21.985h-3.897
							c-0.463,0-0.838,0.261-0.838,0.584v18.554c0,0.322,0.375,0.584,0.838,0.584h3.897c0.465,0,0.841-0.262,0.841-0.584V22.569
							C38.766,22.246,38.39,21.985,37.925,21.985z"/>
					</g>
				</g>
			</g>
		</g>
		<g>
			<g>
				<g>
					<g>
						<path fill="#F5B32C" d="M31.637,31.434l-13.397-9.278c-0.24-0.166-0.604-0.216-0.918-0.126
							c-0.313,0.091-0.518,0.303-0.518,0.539v18.554c0,0.236,0.204,0.449,0.518,0.539c0.104,0.031,0.214,0.045,0.322,0.045
							c0.219,0,0.435-0.061,0.596-0.172l13.397-9.276c0.158-0.109,0.247-0.257,0.247-0.413
							C31.884,31.692,31.795,31.543,31.637,31.434z"/>
						<path fill="#F5B32C" d="M37.925,21.985h-3.897c-0.463,0-0.838,0.261-0.838,0.584v18.554c0,0.322,0.375,0.584,0.838,0.584
							h3.897c0.465,0,0.841-0.262,0.841-0.584V22.569C38.766,22.246,38.39,21.985,37.925,21.985z"/>
					</g>
					<g>
						<g>
							<path fill="#FFFFFF" d="M18.61,24.183V39.51l11.065-7.664L18.61,24.183z"/>
						</g>
						<g>
							<path fill="#FFFFFF" d="M34.989,40.455h1.97V23.237h-1.97V40.455z"/>
						</g>
						<path fill="#F5B32C" stroke="#036EB5" stroke-width="5" stroke-miterlimit="10" d="M46.895,21.985h-3.901
							c-0.465,0-0.842,0.261-0.842,0.584v18.554c0,0.322,0.377,0.584,0.842,0.584h3.901c0.465,0,0.841-0.262,0.841-0.584V22.569
							C47.735,22.246,47.359,21.985,46.895,21.985z"/>
						<path fill="#F5B32C" d="M46.895,21.985h-3.901c-0.465,0-0.842,0.261-0.842,0.584v18.554c0,0.322,0.377,0.584,0.842,0.584
							h3.901c0.465,0,0.841-0.262,0.841-0.584V22.569C47.735,22.246,47.359,21.985,46.895,21.985z"/>
						<g>
							<path fill="#FFFFFF" d="M43.959,40.455h1.97V23.237h-1.97V40.455z"/>
						</g>
					</g>
				</g>
			</g>
		</g>
	</g>
</g>
</svg>
