<?xml version="1.0" encoding="UTF-8" standalone="no"?>
<!-- Generator: Adobe Illustrator 18.0.0, SVG Export Plug-In . SVG Version: 6.00 Build 0)  -->

<svg
   xmlns:dc="http://purl.org/dc/elements/1.1/"
   xmlns:cc="http://creativecommons.org/ns#"
   xmlns:rdf="http://www.w3.org/1999/02/22-rdf-syntax-ns#"
   xmlns:svg="http://www.w3.org/2000/svg"
   xmlns="http://www.w3.org/2000/svg"
   xmlns:sodipodi="http://sodipodi.sourceforge.net/DTD/sodipodi-0.dtd"
   xmlns:inkscape="http://www.inkscape.org/namespaces/inkscape"
   version="1.1"
   id="レイヤー_1"
   x="0px"
   y="0px"
   width="64px"
   height="64px"
   viewBox="0 0 64 64"
   style="enable-background:new 0 0 64 64;"
   xml:space="preserve"
   inkscape:version="0.48.5 r10040"
   sodipodi:docname="pocket_calculator.svg"><metadata
     id="metadata227"><rdf:RDF><cc:Work
         rdf:about=""><dc:format>image/svg+xml</dc:format><dc:type
           rdf:resource="http://purl.org/dc/dcmitype/StillImage" /></cc:Work></rdf:RDF></metadata><defs
     id="defs225" /><sodipodi:namedview
     pagecolor="#ffffff"
     bordercolor="#666666"
     borderopacity="1"
     objecttolerance="10"
     gridtolerance="10"
     guidetolerance="10"
     inkscape:pageopacity="0"
     inkscape:pageshadow="2"
     inkscape:window-width="640"
     inkscape:window-height="480"
     id="namedview223" /><g
     id="g3"><linearGradient
       id="SVGID_1_"
       gradientUnits="userSpaceOnUse"
       x1="32"
       y1="2"
       x2="32"
       y2="62"><stop
         offset="0"
         style="stop-color:#B2B2B3"
         id="stop6" /><stop
         offset="1"
         style="stop-color:#3E3A39"
         id="stop8" /></linearGradient><path
       style="fill:url(#SVGID_1_);"
       d="M51,62H13c-3.3137083,0-6-2.6862907-6-6V8c0-3.3137083,2.6862917-6,6-6h38   c3.3137093,0,6,2.6862917,6,6v48C57,59.3137093,54.3137093,62,51,62z"
       id="path10" /><linearGradient
       id="SVGID_2_"
       gradientUnits="userSpaceOnUse"
       x1="32"
       y1="2"
       x2="32"
       y2="62"><stop
         offset="0"
         style="stop-color:#FFFFFF"
         id="stop13" /><stop
         offset="1"
         style="stop-color:#3E3A39"
         id="stop15" /></linearGradient><path
       style="fill:url(#SVGID_2_);"
       d="M51,4c2.2056122,0,4,1.7943878,4,4v48c0,2.2056122-1.7943878,4-4,4H13   c-2.2056122,0-4-1.7943878-4-4V8c0-2.2056122,1.7943878-4,4-4H51 M51,2H13C9.6862879,2,7,4.6862869,7,8v48   c0,3.3137131,2.6862879,6,6,6h38c3.3137131,0,6-2.6862869,6-6V8C57,4.6862869,54.3137131,2,51,2L51,2z"
       id="path17" /><path
       style="fill:#3E3A39;"
       d="M51,3c2.7570114,0,5,2.2429886,5,5v48c0,2.7570114-2.2429886,5-5,5H13c-2.7570105,0-5-2.2429886-5-5   V8c0-2.7570114,2.2429895-5,5-5H51 M51,2H13C9.6862898,2,7,4.6862907,7,8v48c0,3.3137093,2.6862898,6,6,6h38   c3.3137093,0,6-2.6862907,6-6V8C57,4.6862907,54.3137093,2,51,2L51,2z"
       id="path19" /></g><g
     id="g21"><path
       style="fill:#F5F5F5;"
       d="M51,14.5H13c-0.5522852,0-1-0.4477148-1-1V8c0-0.5522847,0.4477148-1,1-1h38   c0.5522842,0,1,0.4477153,1,1v5.5C52,14.0522852,51.5522842,14.5,51,14.5z"
       id="path23" /><linearGradient
       id="SVGID_3_"
       gradientUnits="userSpaceOnUse"
       x1="32"
       y1="15.5"
       x2="32"
       y2="6"><stop
         offset="0"
         style="stop-color:#C6C7C8"
         id="stop26" /><stop
         offset="1"
         style="stop-color:#717071"
         id="stop28" /></linearGradient><path
       style="fill:url(#SVGID_3_);"
       d="M51,7c0.5522804,0,1,0.4477196,1,1v5.5c0,0.5522804-0.4477196,1-1,1H13   c-0.55229,0-1-0.4477196-1-1V8c0-0.5522804,0.44771-1,1-1H51 M51,6H13c-1.1028004,0-2,0.8972015-2,2v5.5   c0,1.1027985,0.8971996,2,2,2h38c1.1027985,0,2-0.8972015,2-2V8C53,6.8972015,52.1027985,6,51,6L51,6z"
       id="path30" /></g><g
     id="g32"><g
       id="g34"><path
         style="fill:#F5F5F5;"
         d="M19,27h-6c-0.5522852,0-1-0.4477158-1-1v-5.5c0-0.5522842,0.4477148-1,1-1h6    c0.5522842,0,1,0.4477158,1,1V26C20,26.5522842,19.5522842,27,19,27z"
         id="path36" /><linearGradient
         id="SVGID_4_"
         gradientUnits="userSpaceOnUse"
         x1="16"
         y1="19"
         x2="16"
         y2="27.5"><stop
           offset="0"
           style="stop-color:#C6C7C8"
           id="stop39" /><stop
           offset="1"
           style="stop-color:#717071"
           id="stop41" /></linearGradient><path
         style="fill:url(#SVGID_4_);"
         d="M19,27.5h-6c-0.8271484,0-1.5-0.6728516-1.5-1.5v-5.5c0-0.8271484,0.6728516-1.5,1.5-1.5h6    c0.8271484,0,1.5,0.6728516,1.5,1.5V26C20.5,26.8271484,19.8271484,27.5,19,27.5z M13,20c-0.2758789,0-0.5,0.2241211-0.5,0.5V26    c0,0.2758789,0.2241211,0.5,0.5,0.5h6c0.2758789,0,0.5-0.2241211,0.5-0.5v-5.5c0-0.2758789-0.2241211-0.5-0.5-0.5H13z"
         id="path43" /></g><g
       id="g45"><path
         style="fill:#F5F5F5;"
         d="M29.666666,27h-6c-0.5522842,0-1-0.4477158-1-1v-5.5c0-0.5522842,0.4477158-1,1-1h6    c0.5522861,0,1,0.4477158,1,1V26C30.666666,26.5522842,30.2189522,27,29.666666,27z"
         id="path47" /><linearGradient
         id="SVGID_5_"
         gradientUnits="userSpaceOnUse"
         x1="26.6665039"
         y1="19"
         x2="26.6665039"
         y2="27.5"><stop
           offset="0"
           style="stop-color:#C6C7C8"
           id="stop50" /><stop
           offset="1"
           style="stop-color:#717071"
           id="stop52" /></linearGradient><path
         style="fill:url(#SVGID_5_);"
         d="M29.6665039,27.5h-6c-0.8271484,0-1.5-0.6728516-1.5-1.5v-5.5    c0-0.8271484,0.6728516-1.5,1.5-1.5h6c0.8271484,0,1.5,0.6728516,1.5,1.5V26    C31.1665039,26.8271484,30.4936523,27.5,29.6665039,27.5z M23.6665039,20c-0.2758789,0-0.5,0.2241211-0.5,0.5V26    c0,0.2758789,0.2241211,0.5,0.5,0.5h6c0.2758789,0,0.5-0.2241211,0.5-0.5v-5.5c0-0.2758789-0.2241211-0.5-0.5-0.5H23.6665039z"
         id="path54" /></g><g
       id="g56"><path
         style="fill:#F5F5F5;"
         d="M40.3333321,27h-6c-0.5522842,0-1-0.4477158-1-1v-5.5c0-0.5522842,0.4477158-1,1-1h6    c0.5522842,0,1,0.4477158,1,1V26C41.3333321,26.5522842,40.8856163,27,40.3333321,27z"
         id="path58" /><linearGradient
         id="SVGID_6_"
         gradientUnits="userSpaceOnUse"
         x1="37.3330078"
         y1="19"
         x2="37.3330078"
         y2="27.5"><stop
           offset="0"
           style="stop-color:#C6C7C8"
           id="stop61" /><stop
           offset="1"
           style="stop-color:#717071"
           id="stop63" /></linearGradient><path
         style="fill:url(#SVGID_6_);"
         d="M40.3330078,27.5h-6c-0.8271484,0-1.5-0.6728516-1.5-1.5v-5.5    c0-0.8271484,0.6728516-1.5,1.5-1.5h6c0.8271484,0,1.5,0.6728516,1.5,1.5V26    C41.8330078,26.8271484,41.1601563,27.5,40.3330078,27.5z M34.3330078,20c-0.2753906,0-0.5,0.2241211-0.5,0.5V26    c0,0.2758789,0.2246094,0.5,0.5,0.5h6c0.2753906,0,0.5-0.2241211,0.5-0.5v-5.5c0-0.2758789-0.2246094-0.5-0.5-0.5H34.3330078z"
         id="path65" /></g><g
       id="g67"><path
         style="fill:#F5F5F5;"
         d="M19,37h-6c-0.5522852,0-1-0.4477158-1-1v-5.5c0-0.5522842,0.4477148-1,1-1h6    c0.5522842,0,1,0.4477158,1,1V36C20,36.5522842,19.5522842,37,19,37z"
         id="path69" /><linearGradient
         id="SVGID_7_"
         gradientUnits="userSpaceOnUse"
         x1="16"
         y1="29"
         x2="16"
         y2="37.5"><stop
           offset="0"
           style="stop-color:#C6C7C8"
           id="stop72" /><stop
           offset="1"
           style="stop-color:#717071"
           id="stop74" /></linearGradient><path
         style="fill:url(#SVGID_7_);"
         d="M19,37.5h-6c-0.8271484,0-1.5-0.6728516-1.5-1.5v-5.5c0-0.8271484,0.6728516-1.5,1.5-1.5h6    c0.8271484,0,1.5,0.6728516,1.5,1.5V36C20.5,36.8271484,19.8271484,37.5,19,37.5z M13,30c-0.2758789,0-0.5,0.2241211-0.5,0.5V36    c0,0.2753906,0.2241211,0.5,0.5,0.5h6c0.2758789,0,0.5-0.2246094,0.5-0.5v-5.5c0-0.2758789-0.2241211-0.5-0.5-0.5H13z"
         id="path76" /></g><g
       id="g78"><path
         style="fill:#F5F5F5;"
         d="M29.666666,37h-6c-0.5522842,0-1-0.4477158-1-1v-5.5c0-0.5522842,0.4477158-1,1-1h6    c0.5522861,0,1,0.4477158,1,1V36C30.666666,36.5522842,30.2189522,37,29.666666,37z"
         id="path80" /><linearGradient
         id="SVGID_8_"
         gradientUnits="userSpaceOnUse"
         x1="26.6665039"
         y1="29"
         x2="26.6665039"
         y2="37.5"><stop
           offset="0"
           style="stop-color:#C6C7C8"
           id="stop83" /><stop
           offset="1"
           style="stop-color:#717071"
           id="stop85" /></linearGradient><path
         style="fill:url(#SVGID_8_);"
         d="M29.6665039,37.5h-6c-0.8271484,0-1.5-0.6728516-1.5-1.5v-5.5    c0-0.8271484,0.6728516-1.5,1.5-1.5h6c0.8271484,0,1.5,0.6728516,1.5,1.5V36    C31.1665039,36.8271484,30.4936523,37.5,29.6665039,37.5z M23.6665039,30c-0.2758789,0-0.5,0.2241211-0.5,0.5V36    c0,0.2753906,0.2241211,0.5,0.5,0.5h6c0.2758789,0,0.5-0.2246094,0.5-0.5v-5.5c0-0.2758789-0.2241211-0.5-0.5-0.5H23.6665039z"
         id="path87" /></g><g
       id="g89"><path
         style="fill:#F5F5F5;"
         d="M40.3333321,37h-6c-0.5522842,0-1-0.4477158-1-1v-5.5c0-0.5522842,0.4477158-1,1-1h6    c0.5522842,0,1,0.4477158,1,1V36C41.3333321,36.5522842,40.8856163,37,40.3333321,37z"
         id="path91" /><linearGradient
         id="SVGID_9_"
         gradientUnits="userSpaceOnUse"
         x1="37.3330078"
         y1="29"
         x2="37.3330078"
         y2="37.5"><stop
           offset="0"
           style="stop-color:#C6C7C8"
           id="stop94" /><stop
           offset="1"
           style="stop-color:#717071"
           id="stop96" /></linearGradient><path
         style="fill:url(#SVGID_9_);"
         d="M40.3330078,37.5h-6c-0.8271484,0-1.5-0.6728516-1.5-1.5v-5.5    c0-0.8271484,0.6728516-1.5,1.5-1.5h6c0.8271484,0,1.5,0.6728516,1.5,1.5V36    C41.8330078,36.8271484,41.1601563,37.5,40.3330078,37.5z M34.3330078,30c-0.2753906,0-0.5,0.2241211-0.5,0.5V36    c0,0.2753906,0.2246094,0.5,0.5,0.5h6c0.2753906,0,0.5-0.2246094,0.5-0.5v-5.5c0-0.2758789-0.2246094-0.5-0.5-0.5H34.3330078z"
         id="path98" /></g><g
       id="g100"><path
         style="fill:#F5F5F5;"
         d="M19,47h-6c-0.5522852,0-1-0.4477158-1-1v-5.5c0-0.5522842,0.4477148-1,1-1h6    c0.5522842,0,1,0.4477158,1,1V46C20,46.5522842,19.5522842,47,19,47z"
         id="path102" /><linearGradient
         id="SVGID_10_"
         gradientUnits="userSpaceOnUse"
         x1="16"
         y1="39"
         x2="16"
         y2="47.5"><stop
           offset="0"
           style="stop-color:#C6C7C8"
           id="stop105" /><stop
           offset="1"
           style="stop-color:#717071"
           id="stop107" /></linearGradient><path
         style="fill:url(#SVGID_10_);"
         d="M19,47.5h-6c-0.8271484,0-1.5-0.6728516-1.5-1.5v-5.5c0-0.8271484,0.6728516-1.5,1.5-1.5h6    c0.8271484,0,1.5,0.6728516,1.5,1.5V46C20.5,46.8271484,19.8271484,47.5,19,47.5z M13,40c-0.2758789,0-0.5,0.2246094-0.5,0.5V46    c0,0.2753906,0.2241211,0.5,0.5,0.5h6c0.2758789,0,0.5-0.2246094,0.5-0.5v-5.5c0-0.2753906-0.2241211-0.5-0.5-0.5H13z"
         id="path109" /></g><g
       id="g111"><path
         style="fill:#F5F5F5;"
         d="M29.666666,47h-6c-0.5522842,0-1-0.4477158-1-1v-5.5c0-0.5522842,0.4477158-1,1-1h6    c0.5522861,0,1,0.4477158,1,1V46C30.666666,46.5522842,30.2189522,47,29.666666,47z"
         id="path113" /><linearGradient
         id="SVGID_11_"
         gradientUnits="userSpaceOnUse"
         x1="26.6665039"
         y1="39"
         x2="26.6665039"
         y2="47.5"><stop
           offset="0"
           style="stop-color:#C6C7C8"
           id="stop116" /><stop
           offset="1"
           style="stop-color:#717071"
           id="stop118" /></linearGradient><path
         style="fill:url(#SVGID_11_);"
         d="M29.6665039,47.5h-6c-0.8271484,0-1.5-0.6728516-1.5-1.5v-5.5    c0-0.8271484,0.6728516-1.5,1.5-1.5h6c0.8271484,0,1.5,0.6728516,1.5,1.5V46    C31.1665039,46.8271484,30.4936523,47.5,29.6665039,47.5z M23.6665039,40c-0.2758789,0-0.5,0.2246094-0.5,0.5V46    c0,0.2753906,0.2241211,0.5,0.5,0.5h6c0.2758789,0,0.5-0.2246094,0.5-0.5v-5.5c0-0.2753906-0.2241211-0.5-0.5-0.5H23.6665039z"
         id="path120" /></g><g
       id="g122"><path
         style="fill:#F5F5F5;"
         d="M40.3333321,47h-6c-0.5522842,0-1-0.4477158-1-1v-5.5c0-0.5522842,0.4477158-1,1-1h6    c0.5522842,0,1,0.4477158,1,1V46C41.3333321,46.5522842,40.8856163,47,40.3333321,47z"
         id="path124" /><linearGradient
         id="SVGID_12_"
         gradientUnits="userSpaceOnUse"
         x1="37.3330078"
         y1="39"
         x2="37.3330078"
         y2="47.5"><stop
           offset="0"
           style="stop-color:#C6C7C8"
           id="stop127" /><stop
           offset="1"
           style="stop-color:#717071"
           id="stop129" /></linearGradient><path
         style="fill:url(#SVGID_12_);"
         d="M40.3330078,47.5h-6c-0.8271484,0-1.5-0.6728516-1.5-1.5v-5.5    c0-0.8271484,0.6728516-1.5,1.5-1.5h6c0.8271484,0,1.5,0.6728516,1.5,1.5V46    C41.8330078,46.8271484,41.1601563,47.5,40.3330078,47.5z M34.3330078,40c-0.2753906,0-0.5,0.2246094-0.5,0.5V46    c0,0.2753906,0.2246094,0.5,0.5,0.5h6c0.2753906,0,0.5-0.2246094,0.5-0.5v-5.5c0-0.2753906-0.2246094-0.5-0.5-0.5H34.3330078z"
         id="path131" /></g><g
       id="g133"><path
         style="fill:#F5F5F5;"
         d="M19,57h-6c-0.5522852,0-1-0.4477158-1-1v-5.5c0-0.5522842,0.4477148-1,1-1h6    c0.5522842,0,1,0.4477158,1,1V56C20,56.5522842,19.5522842,57,19,57z"
         id="path135" /><linearGradient
         id="SVGID_13_"
         gradientUnits="userSpaceOnUse"
         x1="16"
         y1="49"
         x2="16"
         y2="57.5"><stop
           offset="0"
           style="stop-color:#C6C7C8"
           id="stop138" /><stop
           offset="1"
           style="stop-color:#717071"
           id="stop140" /></linearGradient><path
         style="fill:url(#SVGID_13_);"
         d="M19,57.5h-6c-0.8271484,0-1.5-0.6728516-1.5-1.5v-5.5c0-0.8271484,0.6728516-1.5,1.5-1.5h6    c0.8271484,0,1.5,0.6728516,1.5,1.5V56C20.5,56.8271484,19.8271484,57.5,19,57.5z M13,50c-0.2758789,0-0.5,0.2246094-0.5,0.5V56    c0,0.2753906,0.2241211,0.5,0.5,0.5h6c0.2758789,0,0.5-0.2246094,0.5-0.5v-5.5c0-0.2753906-0.2241211-0.5-0.5-0.5H13z"
         id="path142" /></g><g
       id="g144"><path
         style="fill:#F5F5F5;"
         d="M29.666666,57h-6c-0.5522842,0-1-0.4477158-1-1v-5.5c0-0.5522842,0.4477158-1,1-1h6    c0.5522861,0,1,0.4477158,1,1V56C30.666666,56.5522842,30.2189522,57,29.666666,57z"
         id="path146" /><linearGradient
         id="SVGID_14_"
         gradientUnits="userSpaceOnUse"
         x1="26.6665039"
         y1="49"
         x2="26.6665039"
         y2="57.5"><stop
           offset="0"
           style="stop-color:#C6C7C8"
           id="stop149" /><stop
           offset="1"
           style="stop-color:#717071"
           id="stop151" /></linearGradient><path
         style="fill:url(#SVGID_14_);"
         d="M29.6665039,57.5h-6c-0.8271484,0-1.5-0.6728516-1.5-1.5v-5.5    c0-0.8271484,0.6728516-1.5,1.5-1.5h6c0.8271484,0,1.5,0.6728516,1.5,1.5V56    C31.1665039,56.8271484,30.4936523,57.5,29.6665039,57.5z M23.6665039,50c-0.2758789,0-0.5,0.2246094-0.5,0.5V56    c0,0.2753906,0.2241211,0.5,0.5,0.5h6c0.2758789,0,0.5-0.2246094,0.5-0.5v-5.5c0-0.2753906-0.2241211-0.5-0.5-0.5H23.6665039z"
         id="path153" /></g><g
       id="g155"><path
         style="fill:#F5F5F5;"
         d="M40.3333321,57h-6c-0.5522842,0-1-0.4477158-1-1v-5.5c0-0.5522842,0.4477158-1,1-1h6    c0.5522842,0,1,0.4477158,1,1V56C41.3333321,56.5522842,40.8856163,57,40.3333321,57z"
         id="path157" /><linearGradient
         id="SVGID_15_"
         gradientUnits="userSpaceOnUse"
         x1="37.3330078"
         y1="49"
         x2="37.3330078"
         y2="57.5"><stop
           offset="0"
           style="stop-color:#C6C7C8"
           id="stop160" /><stop
           offset="1"
           style="stop-color:#717071"
           id="stop162" /></linearGradient><path
         style="fill:url(#SVGID_15_);"
         d="M40.3330078,57.5h-6c-0.8271484,0-1.5-0.6728516-1.5-1.5v-5.5    c0-0.8271484,0.6728516-1.5,1.5-1.5h6c0.8271484,0,1.5,0.6728516,1.5,1.5V56    C41.8330078,56.8271484,41.1601563,57.5,40.3330078,57.5z M34.3330078,50c-0.2753906,0-0.5,0.2246094-0.5,0.5V56    c0,0.2753906,0.2246094,0.5,0.5,0.5h6c0.2753906,0,0.5-0.2246094,0.5-0.5v-5.5c0-0.2753906-0.2246094-0.5-0.5-0.5H34.3330078z"
         id="path164" /></g><g
       id="g166"><path
         style="fill:#F5F5F5;"
         d="M51,39.5h-6c-0.5522842,0-1,0.4477158-1,1V56c0,0.5522842,0.4477158,1,1,1h6    c0.5522842,0,1-0.4477158,1-1V40.5C52,39.9477158,51.5522842,39.5,51,39.5z"
         id="path168" /><linearGradient
         id="SVGID_16_"
         gradientUnits="userSpaceOnUse"
         x1="48"
         y1="39"
         x2="48"
         y2="57.5"><stop
           offset="0"
           style="stop-color:#C6C7C8"
           id="stop171" /><stop
           offset="1"
           style="stop-color:#717071"
           id="stop173" /></linearGradient><path
         style="fill:url(#SVGID_16_);"
         d="M51,57.5h-6c-0.8271484,0-1.5-0.6728516-1.5-1.5V40.5c0-0.8271484,0.6728516-1.5,1.5-1.5h6    c0.8271484,0,1.5,0.6728516,1.5,1.5V56C52.5,56.8271484,51.8271484,57.5,51,57.5z M45,40c-0.2753906,0-0.5,0.2246094-0.5,0.5V56    c0,0.2753906,0.2246094,0.5,0.5,0.5h6c0.2753906,0,0.5-0.2246094,0.5-0.5V40.5c0-0.2753906-0.2246094-0.5-0.5-0.5H45z"
         id="path175" /></g><g
       id="g177"><path
         style="fill:#F5F5F5;"
         d="M51,27h-6c-0.5522842,0-1-0.4477158-1-1v-5.5c0-0.5522842,0.4477158-1,1-1h6    c0.5522842,0,1,0.4477158,1,1V26C52,26.5522842,51.5522842,27,51,27z"
         id="path179" /><linearGradient
         id="SVGID_17_"
         gradientUnits="userSpaceOnUse"
         x1="48"
         y1="19"
         x2="48"
         y2="27.5"><stop
           offset="0"
           style="stop-color:#C6C7C8"
           id="stop182" /><stop
           offset="1"
           style="stop-color:#717071"
           id="stop184" /></linearGradient><path
         style="fill:url(#SVGID_17_);"
         d="M51,27.5h-6c-0.8271484,0-1.5-0.6728516-1.5-1.5v-5.5c0-0.8271484,0.6728516-1.5,1.5-1.5h6    c0.8271484,0,1.5,0.6728516,1.5,1.5V26C52.5,26.8271484,51.8271484,27.5,51,27.5z M45,20c-0.2753906,0-0.5,0.2241211-0.5,0.5V26    c0,0.2758789,0.2246094,0.5,0.5,0.5h6c0.2753906,0,0.5-0.2241211,0.5-0.5v-5.5c0-0.2758789-0.2246094-0.5-0.5-0.5H45z"
         id="path186" /></g><g
       id="g188"><path
         style="fill:#F5F5F5;"
         d="M51,37h-6c-0.5522842,0-1-0.4477158-1-1v-5.5c0-0.5522842,0.4477158-1,1-1h6    c0.5522842,0,1,0.4477158,1,1V36C52,36.5522842,51.5522842,37,51,37z"
         id="path190" /><linearGradient
         id="SVGID_18_"
         gradientUnits="userSpaceOnUse"
         x1="48"
         y1="29"
         x2="48"
         y2="37.5"><stop
           offset="0"
           style="stop-color:#C6C7C8"
           id="stop193" /><stop
           offset="1"
           style="stop-color:#717071"
           id="stop195" /></linearGradient><path
         style="fill:url(#SVGID_18_);"
         d="M51,37.5h-6c-0.8271484,0-1.5-0.6728516-1.5-1.5v-5.5c0-0.8271484,0.6728516-1.5,1.5-1.5h6    c0.8271484,0,1.5,0.6728516,1.5,1.5V36C52.5,36.8271484,51.8271484,37.5,51,37.5z M45,30c-0.2753906,0-0.5,0.2241211-0.5,0.5V36    c0,0.2753906,0.2246094,0.5,0.5,0.5h6c0.2753906,0,0.5-0.2246094,0.5-0.5v-5.5c0-0.2758789-0.2246094-0.5-0.5-0.5H45z"
         id="path197" /></g></g><g
     id="g199"><rect
       x="47.4737816"
       y="8.416667"
       style="fill:#F5F5F5;"
       width="2.099251"
       height="4.9166665"
       id="rect201" /><path
       style="fill:#717071;"
       d="M49.5732422,13.8334961h-2.0996094c-0.2763672,0-0.5-0.2236328-0.5-0.5V8.4165039   c0-0.2763672,0.2236328-0.5,0.5-0.5h2.0996094c0.2763672,0,0.5,0.2236328,0.5,0.5v4.9169922   C50.0732422,13.6098633,49.8496094,13.8334961,49.5732422,13.8334961z M47.9736328,12.8334961h1.0996094V8.9165039h-1.0996094   V12.8334961z"
       id="path203" /></g><g
     id="g205"><line
       style="fill:#F5F5F5;"
       x1="45.625"
       y1="8.416667"
       x2="45.625"
       y2="13.333333"
       id="line207" /><path
       style="fill:#717071;"
       d="M45.625,13.8334961c-0.2763672,0-0.5-0.2236328-0.5-0.5V8.4165039   c0-0.2763672,0.2236328-0.5,0.5-0.5s0.5,0.2236328,0.5,0.5v4.9169922C46.125,13.6098633,45.9013672,13.8334961,45.625,13.8334961z"
       id="path209" /></g><g
     id="g211" /><g
     id="g213" /><g
     id="g215" /><g
     id="g217" /><g
     id="g219" /><g
     id="g221" /></svg>