<?xml version="1.0" encoding="UTF-8" standalone="no"?>
<!-- Generator: Adobe Illustrator 15.0.2, SVG Export Plug-In . SVG Version: 6.00 Build 0)  -->

<svg
   xmlns:dc="http://purl.org/dc/elements/1.1/"
   xmlns:cc="http://creativecommons.org/ns#"
   xmlns:rdf="http://www.w3.org/1999/02/22-rdf-syntax-ns#"
   xmlns:svg="http://www.w3.org/2000/svg"
   xmlns="http://www.w3.org/2000/svg"
   xmlns:sodipodi="http://sodipodi.sourceforge.net/DTD/sodipodi-0.dtd"
   xmlns:inkscape="http://www.inkscape.org/namespaces/inkscape"
   version="1.1"
   id="レイヤー_1"
   x="0px"
   y="0px"
   width="64px"
   height="64px"
   viewBox="0 0 64 64"
   enable-background="new 0 0 64 64"
   xml:space="preserve"
   inkscape:version="0.48.4 r9939"
   sodipodi:docname="point_up_2.svg"><metadata
     id="metadata29"><rdf:RDF><cc:Work
         rdf:about=""><dc:format>image/svg+xml</dc:format><dc:type
           rdf:resource="http://purl.org/dc/dcmitype/StillImage" /></cc:Work></rdf:RDF></metadata><defs
     id="defs27" /><sodipodi:namedview
     pagecolor="#ffffff"
     bordercolor="#666666"
     borderopacity="1"
     objecttolerance="10"
     gridtolerance="10"
     guidetolerance="10"
     inkscape:pageopacity="0"
     inkscape:pageshadow="2"
     inkscape:window-width="640"
     inkscape:window-height="480"
     id="namedview25" /><g
     id="g3"><path
       fill="#FFB997"
       stroke="#420707"
       stroke-width="1.6241"
       stroke-linejoin="bevel"
       stroke-miterlimit="11"
       d="M23.975,60.137   c0,0-3.562-3.3-4.521-5.296c-0.488-1.016-5.845-7.185-7.1-11.92c-1.254-4.734,4.202-8.214,8.059-9.453c0,0,0.356-3.139,1.096-5.016   c0,0,0.215-14.223,0.411-17.232c0.274-4.194,0.644-5.646,3.761-7.058c3.117-1.411,7.045,2.195,6.742,10.664l0.249,13.626   c0,0,3.35-2.145,4.183-1.728c2.803,1.401,3.739,2.429,5.274,2.778s3.67,1.777,7.069,3.83c3.398,2.053,2.533,5.33,2.533,8.618   c0,8.614-3.222,15.836-9.603,18.188H23.975z"
       id="path5" /><path
       fill="none"
       stroke="#420707"
       stroke-width="1.6241"
       stroke-linejoin="bevel"
       stroke-miterlimit="11"
       d="M20.413,33.468   c0,0-0.727,4.006-1.335,6.166c-0.608,2.159,1.199,5.411,1.199,5.411"
       id="path7" /><path
       fill="#E79774"
       d="M19.682,42.921c0,0,4.587,7.495,3.176,8.75C21.447,52.925,18.23,47.813,19.682,42.921z"
       id="path9" /><path
       fill="#E79774"
       d="M39.9,28.124c0,0-0.597,4.825,1.098,5.37c1.696,0.546,2.226-3.825,2.226-3.825L39.9,28.124z"
       id="path11" /><path
       fill="#E79774"
       d="M46.718,31.727c0,0-0.812,4.284-0.534,5.437c0.278,1.152,4.096-4.278,4.096-4.278L46.718,31.727z"
       id="path13" /><path
       fill="#E79774"
       d="M32.427,28.936c0.47-3.988,0.767-8.973,0.669-10.913c-0.182-3.639-3.467-5.271-3.731-1.93   c-0.359,4.55,0.163,12.816,0.985,16.565c-0.05,0.514-0.049,0.963,0.03,1.29c0.418,1.73,1.719,8.346,2.604,6.37   c0.885-1.975,1.813-12.728,1.813-12.728S33.35,29.523,32.427,28.936z"
       id="path15" /><path
       fill="#E79774"
       d="M50.279,49.324c0,0-12.338,6.295-17.058,6.75c-4.719,0.456-9.247,4.063-9.247,4.063h18.153   C42.128,60.137,49.637,57.013,50.279,49.324z"
       id="path17" /><path
       fill="none"
       stroke="#420707"
       stroke-width="1.6241"
       stroke-linejoin="bevel"
       stroke-miterlimit="11"
       d="M23.975,60.137   c0,0-3.562-3.3-4.521-5.296c-0.488-1.016-5.845-7.185-7.1-11.92c-1.254-4.734,4.202-8.214,8.059-9.453c0,0,0.356-3.139,1.096-5.016   c0,0,0.215-14.223,0.411-17.232c0.274-4.194,0.644-5.646,3.761-7.058c3.117-1.411,7.045,2.195,6.742,10.664l0.249,13.626   c0,0,3.35-2.145,4.183-1.728c2.803,1.401,3.739,2.429,5.274,2.778s3.67,1.777,7.069,3.83c3.398,2.053,2.533,5.33,2.533,8.618   c0,8.614-3.222,15.836-9.603,18.188H23.975z"
       id="path19" /><path
       fill="#E79774"
       d="M19.454,35.797c0,0-3.18,3.801-2.709,5.839c0.47,2.039,3.415,9.263,4.764,9.648   C21.508,51.284,16.675,38.425,19.454,35.797z"
       id="path21" /><path
       fill="none"
       stroke="#420707"
       stroke-width="1.6241"
       stroke-linejoin="bevel"
       stroke-miterlimit="11"
       d="M20.413,33.468   c0,0-0.727,4.006-1.335,6.166c-0.608,2.159,1.199,5.411,1.199,5.411"
       id="path23" /></g></svg>