<?xml version="1.0" encoding="utf-8"?>
<!-- Generator: Adobe Illustrator 18.0.0, SVG Export Plug-In . SVG Version: 6.00 Build 0)  -->
<!DOCTYPE svg PUBLIC "-//W3C//DTD SVG 1.1//EN" "http://www.w3.org/Graphics/SVG/1.1/DTD/svg11.dtd">
<svg version="1.1" id="レイヤー_1" xmlns="http://www.w3.org/2000/svg" xmlns:xlink="http://www.w3.org/1999/xlink" x="0px"
	 y="0px" width="64px" height="64px" viewBox="0 0 64 64" style="enable-background:new 0 0 64 64;" xml:space="preserve">
<g>
	<path style="fill:#471E02;" d="M23.6704006,38.6855011c0,0-5.9111004,10.6894989-5.2129002,14.125
		C19.1562996,56.2441406,20.1655006,62.6738281,30.8057003,61c0,0,11.3379002,3.2050781,15.7324009-3.2441406
		C50.5273018,51.9014015,31.3027,35.1152,31.3027,35.1152L23.6704006,38.6855011z"/>
	<path style="fill:#110700;" d="M36.9931984,62.6591797c-2.9931984,0-5.5351982-0.5976601-6.2353992-0.7783203
		c-1.1283989,0.1699219-2.1952991,0.2558594-3.1732998,0.2558594h-0.0004997
		c-8.1294003-0.0009804-9.293499-5.7831993-9.9189987-8.8906174l-0.0532017-0.2637024
		c-0.7402-3.6415977,4.6826-13.5918007,5.3032017-14.714798l0.3896999-0.3642998l7.6322994-3.5703011l0.9335995,0.1318016
		c2.0258999,1.7695999,19.6773014,17.4716988,15.3813992,23.7773895
		C45.2821999,61.1318398,41.7344017,62.6591797,36.9931984,62.6591797z M30.6714001,60.1474609l0.3686008,0.0214882
		c0.0268993,0.0078125,2.7519989,0.7646408,5.9531975,0.7646408c4.2041016,0,7.1748009-1.2333908,8.8310013-3.6640587
		c2.5419998-3.7304306-7.4794998-14.7705307-14.6674995-21.1328316l-6.8656998,3.2118988
		c-2.2236004,4.0674019-5.4404011,11.0606003-4.9873009,13.2901001l0.0537014,0.2675018
		c0.6376991,3.166069,1.5107994,7.5029793,8.2265987,7.5039597c0,0,0.0004997,0,0.0009995,0
		C28.5254002,60.4101601,29.5639992,60.3212891,30.6714001,60.1474609z"/>
	<path style="fill:#471E02;" d="M13.7406998,38.6855011c-0.5625,2.8867989,2.1822004,8.9433975,5.1611996,9.7949982
		c2.9790001,0.8535004,7.5073013-0.4296989,5.4920998-4.8964996c-2.0155983-4.4687996-6.0897999-9.6836014-6.0897999-9.6836014
		S14.5551996,34.5078011,13.7406998,38.6855011z"/>
	<path style="fill:#471E02;" d="M48.9413986,48.3241997c0,0,2.2821999-12.6307983-0.1620979-19.6387005
		c-2.4443016-7.0077991-3.1455002-13.5262995-3.4473-15.8080988C45.0303001,10.5962,44.2773018-0.0786,38.9491997,2.6514001
		C33.6230011,5.3813,36.3096008,15.3232002,36.4687996,17.1245003c0,0,0.2900009,9.163599,0.6748009,11.3783989
		c0.3837013,2.214901,1.3690987,10.1826019,1.3690987,10.1826019"/>
	<path style="fill:#471E02;" d="M17.4892998,31.8666992c-1.0074005,2.2974014,4.5282993,11.6802025,7.8862,10.0356026
		c3.3589001-1.6464005,4.2964001-4.6152,2.5981007-8.0019035c-1.6093006-3.2069988-1.6797009-6.8520985-1.6797009-6.8520985
		S20.0972004,25.9204006,17.4892998,31.8666992z"/>
	<path style="fill:#471E02;" d="M27.3145008,24.9375c1.7181988-0.8740005,4.6313-2.8642998,6.907198-2.1620998
		c2.7773018,0.8579006,2.8594017,8.3794003,2.8594017,8.3794003s4.3955002,6.5658989-1.4296989,8.0326996
		c-5.8243008,1.4687004-5.8628006-2.1621017-8.2510014-6.4272003C25.4624004,29.2992992,25.4965992,25.8612995,27.3145008,24.9375z"
		/>
	<path style="fill:#281000;" d="M36.8730011,28.4629002c0,0-5.4370003,5.8300991-9.166502,4.8691006
		c0,0-3.9940987,4.7392998-7.5282993,5.5556984c0,0,4.2157993,4.6963005-0.2010994,9.8408012
		c0,0-1.1655998,1.5419998-0.5396004,4.1718979c0,0,14.8339996-0.8017998,15.8525009-3.4745979
		C35.2900009,49.4258003,39.2695007,39.3886986,36.8730011,28.4629002z"/>
	<path style="fill:#281000;" d="M36.9990005,21.3710995c0,0,1.1436005,5.3506012,3.4776001,5.5918007
		c0,0,7.0546989,4.7856007,8.527298,2.4302006v6.1830978c0,0-4.0946999-5.7255993-11.4638977-2.4814987
		C37.5400009,33.0946999,37.4608994,23.6938,36.9990005,21.3710995z"/>
	<path style="fill:#110700;" d="M49.7910004,48.4775009l-1.6991997-0.3066025
		c0.0224991-0.1239967,2.2128983-12.4911995-0.1278992-19.2011986c-2.285202-6.5517006-3.0733032-12.7383003-3.410202-15.3802996
		l-0.0770988-0.5987005c-0.0245018-0.1806002-0.0508003-0.4120998-0.0820999-0.6849995
		C44.169899,10.3549995,43.4883003,4.4184999,41.3223,3.2593c-0.5489006-0.293-1.1953011-0.2412-1.9794998,0.1601
		c-4.0107994,2.0561998-2.75,9.2740002-2.2118988,12.3559999c0.0985985,0.5648994,0.1737976,1.0044003,0.1982002,1.2728996
		c0.0048981,0.1401997,0.294899,9.1767998,0.6649971,11.3066998c0.3829002,2.2103996,1.3350029,9.8978996,1.375,10.2251015
		l-1.7127991,0.2108994c-0.0098-0.0791016-0.9874001-7.9717007-1.3633003-10.1406002
		c-0.3906975-2.2485008-0.6748009-11.1221008-0.6875-11.4985008c-0.017601-0.1894989-0.0878983-0.5786991-0.1748009-1.0790997
		c-0.6044998-3.4575996-2.0175972-11.5537996,3.125-14.1894999C39.8633003,1.2129,41.0693016,1.1646,42.1376991,1.7373
		c2.610302,1.3974999,3.472702,6.0269003,3.9717026,10.3711004c0.0301971,0.2612,0.0555992,0.4828997,0.0780983,0.6557999
		l0.0780983,0.6069002c0.330101,2.5883999,1.1035004,8.6489,3.3291016,15.0302992
		C52.0849991,35.5410004,49.8857002,47.9530983,49.7910004,48.4775009z"/>
	<path style="fill:#110700;" d="M20.7201996,49.5918007c-0.7026005,0-1.413599-0.097702-2.0560989-0.2812996
		c-3.3853006-0.967701-6.421401-7.4500999-5.7705002-10.7900009c0.5711994-2.9326019,2.4544992-4.3241997,3.7279987-4.9443016
		c-0.1737995-0.8530998-0.1484985-1.5424995,0.0771008-2.0561981c2.8803997-6.5683002,9.3633003-5.6723003,9.3647995-5.6709003
		l0.7436008,0.7656002c0.0044003,0.038599,0.4214001,3.8759995,1.9379997,6.8989983
		c0.9531002,1.9004021,1.1690006,3.7588005,0.6245003,5.375c-0.5326996,1.5810013-1.7826996,2.8906021-3.6142006,3.7890015
		c-0.2290001,0.1123009-0.469799,0.1904984-0.719799,0.2354012c0.0493984,0.1054993,0.0981998,0.2108994,0.1455994,0.3163986
		c0.9619007,2.1328011,0.5394993,3.547802,0.0151005,4.3583984C24.3862,48.8428001,22.7129002,49.5918007,20.7201996,49.5918007z
		 M25.1884995,27.5342007c-1.5303001,0.0160999-5.0879002,0.5282993-6.908699,4.6792011
		c-0.0186005,0.0419998-0.1690006,0.4423981,0.1884995,1.6195984l-0.5429993,1.0663986
		c-1.0283012,0.3574028-2.8296003,1.3456993-3.3374004,3.9512024c-0.4888,2.5088005,2.1054993,8.1005974,4.5513,8.7997971
		c0.4902,0.1406021,1.0366001,0.2148018,1.5809994,0.2148018c1.3828011,0,2.5424995-0.4648018,3.0258999-1.2137985
		c0.4238014-0.6563034,0.3768997-1.5684013-0.1392002-2.7119026c-0.2440987-0.5419998-0.5199986-1.0957985-0.8153992-1.6484985
		l1.0800991-1.2089996c0.2456017,0.0976982,0.4717007,0.1464996,0.6719017,0.1464996l0,0
		c0.1644993,0,0.3125-0.0331993,0.4520988-0.1015015c1.4286995-0.7001991,2.3500996-1.6386986,2.7378006-2.7901001
		c0.3944988-1.1688995,0.2103996-2.5692978-0.5312996-4.0497971C25.9447994,31.7826996,25.3910999,28.8740005,25.1884995,27.5342007
		z"/>
	<path style="fill:#110700;" d="M33.3368988,40.3828011c-3.2767982,0-4.3544979-2.3291016-5.4955997-4.7949028
		c-0.3583984-0.7743988-0.7289982-1.5751991-1.1942997-2.4062996c-1.4013996-2.5023994-1.8998985-5.107399-1.3344994-6.9681988
		c0.2886009-0.9491997,0.8456993-1.6567993,1.6107998-2.0454006c0.272501-0.1386986,0.5757008-0.3062,0.9029007-0.4867992
		c1.4647999-0.8085995,3.471199-1.9160995,5.3681011-1.9160995c0.4511986,0,0.8827972,0.0620003,1.282299,0.1856003
		c3.0527,0.9428997,3.4208984,7.1547985,3.4628983,8.9467983c0.5273018,0.8613014,2.2635994,3.9911995,1.3105011,6.4706993
		c-0.5098,1.3252029-1.6493988,2.2187004-3.3876991,2.6562004C34.9062996,40.2655983,34.080101,40.3828011,33.3368988,40.3828011z
		 M33.1943016,23.4911995c-1.4521008,0-3.2334023,0.9834003-4.5337009,1.7017002
		c-0.3457012,0.1904011-0.6665001,0.3675995-0.9545002,0.514101c-0.3418007,0.173399-0.5909004,0.5126991-0.7417011,1.0082989
		c-0.4252987,1.3990002,0.030201,3.5536995,1.1893997,5.6231022c0.4976006,0.8890991,0.8994007,1.758297,1.2544003,2.5248985
		c1.2173004,2.6298981,1.8432999,3.7929001,3.9286995,3.7929001c0.5908012,0,1.2988014-0.1025009,2.1035004-0.3055992
		c1.1777992-0.2969017,1.8964996-0.8194008,2.1973-1.5996017c0.6416016-1.6641006-0.702198-4.2578011-1.2743988-5.1166992
		l-0.1455002-0.4696999c-0.0331993-2.8624001-0.7529984-7.1016006-2.2509995-7.5645008
		C33.7333984,23.5277996,33.4735985,23.4911995,33.1943016,23.4911995z"/>
	<path style="fill:#471E02;" d="M44.5136986,59.75c0,0,5.3866997-3.7617188,5.7324028-12.1171989
		c0.3456993-8.3535004-0.3106003-12.2656021-3.9043007-15.8511009c-3.5928001-3.5848999-11.4150009,3.4487991-13.3706017,4.0873985
		c-1.9555988,0.6387024-8.8075981,4.3555031-9.2533989,5.4258003c-0.4463005,1.0703011,2.1616001,7.6581993,11.4921989,4.4512024
		c0,0,3.3095016,0.0508003,4.6093025-2.0664024c0,0-4.8143997,2.1172028-4.6093025,7.1699028"/>
	<path style="fill:#110700;" d="M23.1366997,42.6405983c-0.1879997-0.1034966-4.6299-2.6014977-6.3221989-8.3114967
		l1.6551991-0.4902c1.4839001,5.0057983,5.4610004,7.267498,5.5009995,7.2889977L23.1366997,42.6405983z"/>
	<path style="fill:#281000;" d="M28.4468002,46.3788986c0,0,11.1977005-3.1210976,12.3637009-5.0643997l2.1904984,0.780201
		c0,0-1.5,2.0157013-6.6786995,6.2294998l0.9882011-2.7860985C37.3105011,45.5381012,29.6138,49.1006012,28.4468002,46.3788986z"/>
	<path style="fill:#110700;" d="M44.3535004,60.7226601l-0.9589996-1.4365311
		c0.0566978-0.0380783,5.6669998-3.9003906,5.9892998-11.6894302c0.3563995-8.6122971-0.4629021-12.0224991-3.6514015-15.203598
		c-2.214798-2.2080002-7.0399971,0.9360008-9.9237976,2.8148994c-1.1494026,0.7481003-1.9794998,1.2891006-2.5693016,1.4814987
		c-1.9267998,0.6298027-7.9151001,3.9482002-8.7070999,4.9277c0.0064011,0.3672028,0.3726006,1.6562004,1.6905003,2.7411995
		c1.3924999,1.1465034,4.0321999,2.1787033,8.7069988,0.5713005l0.2938995-0.0468979
		c-0.0067978-0.0078011,0.8125,0.0038986,1.7168007-0.2441025c1.2187996-1.157299,2.4277992-1.7040977,2.5312996-1.7490997
		l1.0830002,1.2413025c-0.6562996,1.0692978-1.6991997,1.6777-2.6913986,2.0243988
		c-0.9776001,1.0283012-1.8759995,2.5555992-1.7910004,4.6591988L34.3476982,50.8848
		c-0.0703964-1.7285995,0.3740005-3.1436005,1.0273018-4.277401c-0.0059013,0-0.0116997,0-0.017601,0
		c-6.2504997,2.1026001-9.5116997-0.0604973-10.9047985-1.5458984c-1.2578011-1.3418007-1.9306011-3.1416016-1.5317001-4.0986023
		c0.6732998-1.6161995,8.2686005-5.419899,9.782198-5.9140968c0.3740005-0.1230011,1.2432022-0.6884003,2.1631012-1.2871017
		c3.3232994-2.163599,8.8866997-5.785099,12.0849991-2.5907993c3.9775009,3.9677982,4.4970016,8.2959003,4.1571999,16.4979992
		C50.7490005,56.3632813,44.6142998,60.5478516,44.3535004,60.7226601z"/>
	<path style="fill:#281000;" d="M47.8096008,53.6211014c-3.5830002,10.8339767-15.1655998,6.3828087-17.3320999,6.5234299
		c-6.5,1.1455078-8.4170017-1.5234413-8.4170017-1.5234413s5.4170017,1.1289101,8.6670017,0.5
		C39.6016006,61.0849609,47.8096008,53.6211014,47.8096008,53.6211014z"/>
</g>
<g>
</g>
<g>
</g>
<g>
</g>
<g>
</g>
<g>
</g>
<g>
</g>
</svg>
