<?xml version="1.0" encoding="utf-8"?>
<!-- Generator: Adobe Illustrator 15.0.0, SVG Export Plug-In . SVG Version: 6.00 Build 0)  -->
<!DOCTYPE svg PUBLIC "-//W3C//DTD SVG 1.1//EN" "http://www.w3.org/Graphics/SVG/1.1/DTD/svg11.dtd">
<svg version="1.1" id="レイヤー_1" xmlns="http://www.w3.org/2000/svg" xmlns:xlink="http://www.w3.org/1999/xlink" x="0px"
	 y="0px" width="64px" height="64px" viewBox="0 0 64 64" style="enable-background:new 0 0 64 64;" xml:space="preserve">
<g>
	<path style="fill:#B9713A;" d="M43.3027344,27.4555664l-4.4912109-11.3276367l-3.8417969,6.2661133
		c0,0,1.4580078,5.5395508-4.9326172,8.4145508"/>
	<path style="fill:#210601;" d="M30.2421875,31.2646484l-0.4101563-0.9121094
		c5.9355469-2.6704102,4.6679688-7.7797852,4.6542969-7.8310547l-0.0546875-0.206543l4.4765625-7.3007813l4.859375,12.2573242
		l-0.9296875,0.3681641l-4.1230469-10.3979492l-3.2158203,5.246582
		C35.6943359,23.5957031,36.2041016,28.5825195,30.2421875,31.2646484z"/>
	<g>
		<linearGradient id="SVGID_1_" gradientUnits="userSpaceOnUse" x1="28.5405273" y1="31.9985352" x2="42.0405273" y2="60.1235466">
			<stop  offset="0" style="stop-color:#FFBFBF"/>
			<stop  offset="1" style="stop-color:#FF4542"/>
		</linearGradient>
		<path style="fill:url(#SVGID_1_);" d="M42.4414063,23.3583984c0,0,2.1806641,0.6064453,3.3740234,3.3740234
			c2.6513672,6.1455078-3.9765625,10.6044922-1.6865234,16.0273438c2.2890625,5.4228516,2.1689453,18.7988281,2.1689453,18.7988281
			h-23.378418c0,0-4.8203125-10.484375-3.1328125-16.3886719c1.6870117-5.9052734,7.7124023-8.6767578,7.7124023-8.6767578
			c-2.2900391-5.7841797,3.3740234-7.8325195,4.8203125-9.0375977L42.4414063,23.3583984z"/>
		<path d="M46.7929688,62.0585938H22.5991211l-0.1337891-0.2910156c-0.2001953-0.4355469-4.8779297-10.7216797-3.159668-16.7353516
			c1.4887695-5.2109375,6.1386719-8.0263672,7.5698242-8.7851563c-1.6757813-4.8925781,2.0859375-7.2368164,4.1333008-8.512207
			c0.4135742-0.2578125,0.7705078-0.4799805,0.9902344-0.6635742l0.1328125-0.0791016l10.2792969-4.1611328l0.1640625,0.0454102
			c0.0986328,0.027832,2.4257813,0.7045898,3.6992188,3.6582031c1.4541016,3.3691406,0.3027344,6.1972656-0.8095703,8.9321289
			c-0.9775391,2.4013672-1.9003906,4.6699219-0.875,7.0986328c2.3027344,5.4550781,2.2128906,18.4472656,2.2080078,18.9980469
			L46.7929688,62.0585938z M23.2446289,61.0585938h22.5532227c-0.0068359-2.4619141-0.1533203-13.421875-2.1298828-18.1044922
			c-1.1865234-2.8095703-0.140625-5.3798828,0.8701172-7.8642578c1.0830078-2.6611328,2.1064453-5.1743164,0.8183594-8.1591797
			c-0.9111328-2.1132813-2.4257813-2.8520508-2.9013672-3.0385742l-9.8789063,3.9990234
			c-0.2675781,0.2119141-0.6269531,0.4360352-1.0380859,0.6923828c-2.1191406,1.3198242-5.3208008,3.3144531-3.5742188,7.7260742
			l0.1743164,0.4394531l-0.4296875,0.1982422c-0.0585938,0.0273438-5.8393555,2.7529297-7.440918,8.3603516
			C18.8027344,50.4316406,22.4960938,59.3398438,23.2446289,61.0585938z"/>
	</g>
	<path style="fill:#B9713A;" d="M26.0527344,12.753418c0.0390625,1.4936523,0.9638672,4.940918,0,5.1821289
		c-0.9638672,0.2407227,0.0942383,3.0717773,3.0595703,5.1508789c2.9658203,2.0795898,7.0332031,0.1513672,9.6992188-3.3432617
		s3.0273438-6.387207,2.4248047-8.6767578s-3.3740234-7.5917969-8.9169922-5.5429688
		C26.7758789,7.5717773,25.9799805,9.972168,26.0527344,12.753418z"/>
	<path style="fill:#210601;" d="M31.8486328,24.4443359L31.8486328,24.4443359
		c-1.1083984,0-2.1259766-0.3193359-3.0234375-0.9487305c-2.4980469-1.7514648-3.8110352-4.09375-3.5947266-5.2602539
		c0.0756836-0.40625,0.3310547-0.6923828,0.7011719-0.784668c0.2075195-0.2724609-0.0522461-2.0546875-0.1767578-2.9111328
		c-0.0976563-0.668457-0.1894531-1.2993164-0.2021484-1.7729492c-0.0820313-3.1367188,1.0078125-5.6484375,6.59375-7.7124023
		c0.8837891-0.3266602,1.7509766-0.4921875,2.5761719-0.4921875c4.2070313,0,6.4169922,4.1713867,6.9970703,6.3769531
		c0.7548828,2.8696289-0.0898438,5.9335938-2.5107422,9.1074219C37.1083984,22.800293,34.3564453,24.4443359,31.8486328,24.4443359z
		 M34.7226563,5.5620117c-0.7070313,0-1.4570313,0.1445313-2.2294922,0.4306641
		c-5.5908203,2.0654297-6.0004883,4.4658203-5.9404297,6.7475586c0.0107422,0.4145508,0.0986328,1.0170898,0.1914063,1.6547852
		c0.2807617,1.9267578,0.5458984,3.7460938-0.5698242,4.0253906c-0.1464844,0.3388672,0.6669922,2.4628906,3.2250977,4.2568359
		c0.7260742,0.5087891,1.550293,0.7670898,2.4492188,0.7670898c2.1650391,0,4.6806641-1.5341797,6.5654297-4.0043945
		c2.2246094-2.9160156,3.0117188-5.6904297,2.3388672-8.2460938C40.3408203,9.6274414,38.4541016,5.5620117,34.7226563,5.5620117z"
		/>
	<path style="fill:#210601;" d="M29.3583984,23.3095703c-0.5288086,0-0.918457-0.137207-0.9448242-0.1469727
		c-0.2597656-0.09375-0.394043-0.3803711-0.300293-0.6401367c0.09375-0.2587891,0.3793945-0.3925781,0.637207-0.3012695l0,0
		c0.1679688,0.0571289,1.6494141,0.5151367,2.2685547-1.2568359c0.0917969-0.2607422,0.3774414-0.3979492,0.637207-0.3071289
		c0.2607422,0.0913086,0.3984375,0.3764648,0.3066406,0.637207c-0.2988281,0.8544922-0.7890625,1.4487305-1.4575195,1.7666016
		C30.1054688,23.2509766,29.7026367,23.3095703,29.3583984,23.3095703z"/>
	<g>
		<linearGradient id="SVGID_2_" gradientUnits="userSpaceOnUse" x1="31.8808594" y1="5.4130859" x2="43.012558" y2="27.8059483">
			<stop  offset="0" style="stop-color:#DF7800"/>
			<stop  offset="1" style="stop-color:#BF2900"/>
		</linearGradient>
		<path style="fill:url(#SVGID_2_);" d="M32.6699219,13.1845703c0,0,4.7578125,6.9990234,1.7578125,11.9990234
			c0,0,7.375-2.625,9-8.375s1.5-11.125-4.625-13.1625977c-4.0009766-1.3310547-9.875-2.8374023-13.640625,3.1625977
			c0,0-3.7705078,2.5566406,0.9975586,7.0283203l0.5180664-3.4033203c0,0,3.2753906,4.375,6.2626953,6.25L32.6699219,13.1845703z"/>
		<path d="M33.28125,26.1225586l0.7177734-1.1962891c1.8691406-3.1152344,0.484375-7.1518555-0.6552734-9.5092773
			l0.171875,2.2177734l-0.8408203-0.527832c-2.2138672-1.3891602-4.5332031-4.0512695-5.6762695-5.4575195l-0.487793,3.2026367
			l-0.6933594-0.6503906c-1.8227539-1.7094727-2.6835938-3.3779297-2.5585938-4.9589844
			c0.1245117-1.5791016,1.203125-2.5268555,1.5307617-2.7802734c1.9130859-3,4.6000977-4.5209961,7.987793-4.5209961
			c2.1904297,0,4.3544922,0.6220703,6.1835938,1.2299805c5.4375,1.809082,7.0556641,6.3144531,4.9482422,13.7729492
			C42.2333984,22.875,34.90625,25.5439453,34.5957031,25.6547852L33.28125,26.1225586z M32.0263672,11.3486328l1.0566406,1.5546875
			c0.1865234,0.2739258,4.2011719,6.2758789,2.3652344,11.2978516c2.0996094-0.9975586,6.3505859-3.4672852,7.4980469-7.5283203
			c1.9599609-6.9355469,0.59375-10.9243164-4.3017578-12.5522461c-1.7519531-0.5830078-3.8193359-1.1791992-5.8671875-1.1791992
			c-3.0942383,0-5.4462891,1.3520508-7.1918945,4.1328125l-0.1425781,0.1484375
			c-0.0092773,0.0058594-1.0888672,0.7680664-1.1884766,2.1118164c-0.0786133,1.0615234,0.4458008,2.2167969,1.5605469,3.4433594
			l0.5478516-3.5986328l0.715332,0.9545898c0.0288086,0.0390625,2.6582031,3.5297852,5.2822266,5.5356445L32.0263672,11.3486328z"/>
	</g>
	<path d="M28.8950195,14.3203125c-0.4609375,0-0.8525391,0.4819336-1.0092773,1.1591797l1.2260742,0.6210938l-1.2358398,0.6259766
		c0.1489258,0.7026367,0.546875,1.2089844,1.019043,1.2089844c0.5986328,0,1.0844727-0.809082,1.0844727-1.8076172
		S29.4936523,14.3203125,28.8950195,14.3203125z"/>
	<path style="fill:#B9713A;" d="M37.1777344,39.3085938c0,0-0.125,7.1279297-0.75,7.7529297
		c-4.9365234,0.2470703-10,6.1220703-16.2885742,6.3222656c-0.4609375,0.0146484-0.7114258-1.7001953-0.7114258-1.7001953
		s-1-0.125-1.5,1.875c-1.125,3.25,0.5,3,1.5004883,4.5c1.625,1.3515625,2.3369141,0.6503906,2.3369141,0.6503906
		s10.6030273-3.1503906,17.6625977-6.1503906c2.1748047-2.7802734,4.7011719-9.7988281,4.7011719-9.7988281"/>
	<path style="fill:#210601;" d="M21.1865234,59.3945313c-0.4936523,0-1.1845703-0.2080078-2.078125-0.9511719l-0.0961914-0.1074219
		c-0.2426758-0.3632813-0.5385742-0.6171875-0.824707-0.8632813c-0.9985352-0.8564453-1.5888672-1.6035156-0.7324219-4.0771484
		c0.578125-2.3203125,1.8881836-2.2236328,2.034668-2.2080078l0.3774414,0.046875l0.0551758,0.3769531
		c0.0742188,0.5029297,0.2270508,1.0556641,0.3442383,1.2675781c3.1791992-0.1474609,6.0483398-1.7939453,8.824707-3.3876953
		c2.4213867-1.3896484,4.7143555-2.7050781,7.0375977-2.9101563c0.2695313-0.8115234,0.4960938-4.2910156,0.5488281-7.28125
		l1,0.0175781c-0.0478516,2.7373047-0.2285156,7.4296875-0.8964844,8.0976563l-0.1357422,0.1367188l-0.1923828,0.0087891
		c-2.1787109,0.109375-4.4541016,1.4150391-6.8642578,2.7978516c-2.9243164,1.6787109-5.9477539,3.4140625-9.4335938,3.5253906
		c-0.4902344,0.0009766-0.8813477-0.4931641-1.1108398-1.5166016c-0.1962891,0.1875-0.4438477,0.5615234-0.6318359,1.3125
		c-0.7104492,2.0585938-0.2827148,2.4257813,0.4257813,3.0341797c0.3076172,0.2636719,0.6542969,0.5615234,0.9628906,1.0039063
		c1.1611328,0.9443359,1.6308594,0.6171875,1.6352539,0.6152344l0.0888672-0.0878906l0.097168-0.015625
		c0.1054688-0.03125,10.5366211-3.140625,17.4887695-6.0800781c2.0839844-2.7529297,4.5224609-9.4902344,4.546875-9.5585938
		l0.9414063,0.3378906c-0.1044922,0.2900391-2.5791016,7.1269531-4.7783203,9.9375L39.7421875,52.96875l-0.1191406,0.0498047
		c-6.6640625,2.8320313-16.5869141,5.8310547-17.6269531,6.1435547
		C21.8500977,59.2617188,21.581543,59.3945313,21.1865234,59.3945313z"/>
	<g>
		<linearGradient id="SVGID_3_" gradientUnits="userSpaceOnUse" x1="37.7998047" y1="30.2192383" x2="44.0311546" y2="43.2012177">
			<stop  offset="0" style="stop-color:#FFBFBF"/>
			<stop  offset="1" style="stop-color:#FF4542"/>
		</linearGradient>
		<path style="fill:url(#SVGID_3_);" d="M39.4277344,28.1835938c2.0595703-1.125,5.4140625-0.4580078,6.3095703,4.625
			c1.0576172,6-1.0253906,11.6708984-1.0253906,11.6708984s-4.2841797,1.6992188-8.2841797-2.3007813
			c0,0,0.1386719-6.9794922,0.2421875-8.6201172C36.8144531,31.2597656,37.3085938,29.3408203,39.4277344,28.1835938z"/>
		<path d="M42.4423828,45.3378906c-1.625,0-4.0488281-0.4863281-6.3681641-2.8056641l-0.1503906-0.1503906l0.0039063-0.2128906
			c0.0058594-0.2851563,0.140625-7.0087891,0.2431641-8.6416016c0.1396484-2.2241211,0.6025391-4.4638672,3.0175781-5.7827148
			c0.6337891-0.3461914,1.3476563-0.5292969,2.0664063-0.5292969c0.9394531,0,4.0751953,0.3974609,4.9746094,5.5063477
			c1.0693359,6.0634766-0.9609375,11.6933594-1.0478516,11.9306641l-0.0771484,0.2099609l-0.2080078,0.0820313
			C44.8554688,44.9599609,43.8867188,45.3378906,42.4423828,45.3378906z M36.9316406,41.9726563
			c2.0302734,1.9501953,4.109375,2.3652344,5.5107422,2.3652344c0.8779297,0,1.5527344-0.1601563,1.8769531-0.2548828
			c0.359375-1.0986328,1.8300781-6.0556641,0.9257813-11.1875c-0.5166016-2.9306641-2.0078125-4.6801758-3.9902344-4.6801758
			c-0.5517578,0-1.1005859,0.1411133-1.5878906,0.4072266c-1.8789063,1.0258789-2.3574219,2.7275391-2.4980469,4.9672852
			C37.0771484,35.0390625,36.9560547,40.7832031,36.9316406,41.9726563z"/>
	</g>
</g>
</svg>
