<?xml version="1.0" encoding="utf-8"?>
<!-- Generator: Adobe Illustrator 16.0.0, SVG Export Plug-In . SVG Version: 6.00 Build 0)  -->
<!DOCTYPE svg PUBLIC "-//W3C//DTD SVG 1.1//EN" "http://www.w3.org/Graphics/SVG/1.1/DTD/svg11.dtd">
<svg version="1.1" id="Layer_1" xmlns="http://www.w3.org/2000/svg" xmlns:xlink="http://www.w3.org/1999/xlink" x="0px" y="0px"
	 width="64px" height="64px" viewBox="0 0 64 64" enable-background="new 0 0 64 64" xml:space="preserve">
<g>
	<g>
		<g>
			
				<path fill="none" stroke="#874A20" stroke-width="10.3806" stroke-linecap="round" stroke-linejoin="round" stroke-miterlimit="10" d="
				M13.085,49.142c0,0,25.005-11.993,24.819-23.601c-0.205-12.374-19.6-15.662-25.399-3.089
				c-5.801,12.576,4.059,26.705,18.175,26.705c14.12,0,21.163-7.258,22.821-15.098c2.125-10.063-4.834-18.184-11.602-18.57
				c-7.311-0.415-13.348,4.257-13.151,12.566c0.192,8.325,12.266,20.857,19.719,23.216"/>
		</g>
		<g>
			<g>
				<path fill="#D37828" d="M48.47,55.333c-0.406,0-0.819-0.061-1.227-0.19c-1.973-0.624-4.264-1.871-6.614-3.551
					c-3.007,0.807-6.339,1.227-9.948,1.227c-8.39,0-15.722-4.099-20.116-10.964C6.436,35.401,5.908,27.709,9.118,20.75
					c0.939-2.036,3.05-2.925,5.088-1.986c2.036,0.939,2.926,3.352,1.986,5.389c-2.027,4.394-1.8,10.44,0.807,14.515
					c2.894,4.521,8.074,6.03,13.681,6.03c0.765,0,1.51-0.022,2.236-0.067c-4.558-5.083-8.104-11.162-8.228-16.481
					c-0.117-4.951,1.509-8.703,4.704-11.794c3.238-3.133,7.628-4.94,12.607-4.655c4.394,0.25,8.444,2.437,11.5,6.433
					C57.068,22.8,58.267,29.003,57,35c-1.1,5.197-4.061,9.322-8.115,12.363c0.037,0.013,0.772,0.025,0.81,0.037
					c2.139,0.677,3.323,2.958,2.646,5.097C51.793,54.228,50.193,55.333,48.47,55.333z M41.002,19.524
					c-2.406,0-4.505,0.758-5.961,2.167c-1.522,1.473-2.294,3.64-2.232,6.268c0.091,3.951,4.926,10.774,9.713,15.151
					c3.645-2.443,6.134-5.769,7.007-9.892c1.063-5.035-0.877-8.532-2.129-10.168c-1.592-2.083-3.734-3.394-5.731-3.508
					C41.444,19.53,41.222,19.524,41.002,19.524z"/>
			</g>
			<path fill="#F5AF1B" d="M55.934,29.933c0,0,1.166,10.338-8.5,16.171C47.434,46.104,55.101,37.104,55.934,29.933z"/>
			
				<path fill="none" stroke="#D37828" stroke-width="8.1218" stroke-linecap="round" stroke-linejoin="round" stroke-miterlimit="10" d="
				M13.085,49.142"/>
		</g>
		<g>
			<g>
				<path fill="#874A20" d="M15.297,53.837l-4.424-9.391l2.212,4.695l-2.253-4.676c9.06-4.415,22.121-13.598,22.039-18.653
					c-0.057-3.435-2.969-5.27-5.676-5.84c-3.292-0.693-7.881,0.107-9.977,4.652l-9.426-4.348
					c4.357-9.445,13.959-12.062,21.544-10.461c8.193,1.727,13.784,8.087,13.913,15.827C43.489,40.386,16.448,53.295,15.297,53.837z"
					/>
			</g>
			<g>
				<path fill="#D37828" d="M13.088,53.203c-1.523,0-2.984-0.862-3.676-2.332c-0.955-2.028-0.084-4.447,1.943-5.403
					C20.818,41.007,34.1,31.944,34,25.764c-0.068-4.089-3.429-6.25-6.552-6.908c-3.997-0.842-9.028,0.469-11.255,5.297
					c-0.939,2.036-3.352,2.924-5.389,1.986c-2.036-0.939-2.625-3.352-1.686-5.389c4.101-8.89,12.561-10.922,19.715-9.417
					C36.487,12.947,41.38,18.308,41.5,25.5c0.219,13.548-22.088,25.153-26.687,27.316C14.255,53.079,13.667,53.203,13.088,53.203z"
					/>
			</g>
			<path fill="#F5AF1B" d="M23.167,12.333C23.167,12.333,11.5,15,9,26.5C9,26.5,8.667,13.5,23.167,12.333z"/>
		</g>
		<g>
			<path fill="#874A20" d="M48.471,56.463c-0.518,0-1.045-0.08-1.564-0.244C38.084,53.43,23.82,39.463,23.56,28.175
				c-0.065-2.866,2.204-5.242,5.07-5.308c2.826-0.064,5.243,2.203,5.308,5.07c0.131,5.649,10.38,16.577,16.095,18.385
				c2.734,0.865,4.25,3.78,3.384,6.512C52.719,55.049,50.674,56.463,48.471,56.463z"/>
		</g>
		<g>
			<path fill="#D37828" d="M48.471,55.034c-0.407,0-0.818-0.063-1.227-0.19c-8.322-2.633-22.309-16.339-22.555-26.995
				c-0.052-2.243,0.022-6.53,3.935-5.912c2.987,0.472,4.426-0.322,4.185,5.724C32.556,34.05,43.167,44.735,48,46.902
				c2.046,0.917,5.016,3.154,4.341,5.295C51.792,53.928,50.195,55.034,48.471,55.034z"/>
		</g>
		<path fill="#F5AF1B" d="M27.446,23.211c0,0-1.712,8.698,4.948,17.337C39.119,49.268,21.006,31.676,27.446,23.211z"/>
	</g>
	<g>
		<circle fill="#AB5E27" stroke="#AB5E27" stroke-miterlimit="10" cx="44.568" cy="17.589" r="1.424"/>
		<circle fill="#AB5E27" stroke="#AB5E27" stroke-miterlimit="10" cx="56.44" cy="27.719" r="1.424"/>
		<circle fill="#AB5E27" stroke="#AB5E27" stroke-miterlimit="10" cx="36.339" cy="28.827" r="1.425"/>
		<circle fill="#AB5E27" stroke="#AB5E27" stroke-miterlimit="10" cx="27.159" cy="44.02" r="1.425"/>
		<circle fill="#AB5E27" stroke="#AB5E27" stroke-miterlimit="10" cx="46.942" cy="52.727" r="1.425"/>
		<circle fill="#AB5E27" stroke="#AB5E27" stroke-miterlimit="10" cx="30.008" cy="51.617" r="1.425"/>
		<circle fill="#AB5E27" stroke="#AB5E27" stroke-miterlimit="10" cx="14.337" cy="28.828" r="1.425"/>
		<circle fill="#AB5E27" stroke="#AB5E27" stroke-miterlimit="10" cx="17.504" cy="14.423" r="1.424"/>
		<circle fill="#AB5E27" stroke="#AB5E27" stroke-miterlimit="10" cx="34.44" cy="36.896" r="1.423"/>
		<circle fill="#AB5E27" stroke="#AB5E27" stroke-miterlimit="10" cx="26.368" cy="27.719" r="1.21"/>
		<circle fill="#AB5E27" stroke="#AB5E27" stroke-miterlimit="10" cx="51.375" cy="37.322" r="0.842"/>
		<circle fill="#AB5E27" stroke="#AB5E27" stroke-miterlimit="10" cx="34.438" cy="18.114" r="0.843"/>
		<circle fill="#AB5E27" stroke="#AB5E27" stroke-miterlimit="10" cx="17.396" cy="18.064" r="0.842"/>
		<circle fill="#AB5E27" stroke="#AB5E27" stroke-miterlimit="10" cx="10.856" cy="30.884" r="0.842"/>
		<circle fill="#AB5E27" stroke="#AB5E27" stroke-miterlimit="10" cx="29.059" cy="25.187" r="0.842"/>
		<circle fill="#AB5E27" stroke="#AB5E27" stroke-miterlimit="10" cx="40.771" cy="45.762" r="0.842"/>
		<circle fill="#AB5E27" stroke="#AB5E27" stroke-miterlimit="10" cx="16.13" cy="51.617" r="0.842"/>
		<circle fill="#AB5E27" stroke="#AB5E27" stroke-miterlimit="10" cx="22.253" cy="45.076" r="0.842"/>
		<circle fill="#AB5E27" stroke="#AB5E27" stroke-miterlimit="10" cx="52.643" cy="21.229" r="0.842"/>
	</g>
	<g>
		<circle fill="#FFFFFF" cx="44.27" cy="17.089" r="1.424"/>
		<circle fill="#FFFFFF" cx="56.141" cy="27.218" r="1.424"/>
		<circle fill="#FFFFFF" cx="36.04" cy="28.326" r="1.425"/>
		<circle fill="#FFFFFF" cx="26.859" cy="43.521" r="1.425"/>
		<circle fill="#FFFFFF" cx="46.644" cy="52.229" r="1.425"/>
		<circle fill="#FFFFFF" cx="29.708" cy="51.119" r="1.425"/>
		<circle fill="#FFFFFF" cx="14.037" cy="28.327" r="1.425"/>
		<circle fill="#FFFFFF" cx="17.203" cy="13.922" r="1.424"/>
		<circle fill="#FFFFFF" cx="34.14" cy="36.398" r="1.424"/>
		<circle fill="#FFFFFF" cx="26.067" cy="27.218" r="1.21"/>
		<circle fill="#FFFFFF" cx="51.076" cy="36.824" r="0.842"/>
		<circle fill="#FFFFFF" cx="34.14" cy="17.614" r="0.843"/>
		<circle fill="#FFFFFF" cx="17.096" cy="17.563" r="0.842"/>
		<circle fill="#FFFFFF" cx="10.556" cy="30.384" r="0.842"/>
		<circle fill="#FFFFFF" cx="28.758" cy="24.686" r="0.842"/>
		<circle fill="#FFFFFF" cx="40.473" cy="45.264" r="0.842"/>
		<circle fill="#FFFFFF" cx="15.83" cy="51.119" r="0.842"/>
		<circle fill="#FFFFFF" cx="21.953" cy="44.578" r="0.842"/>
		<circle fill="#FFFFFF" cx="52.344" cy="20.728" r="0.842"/>
	</g>
</g>
<path fill="#F5AF1B" d="M10.734,47.303c0,0,9.7-4.937,13.667-8C24.4,39.303,19.934,45.699,10.734,47.303z"/>
</svg>
