<?xml version="1.0" encoding="utf-8"?>
<!-- Generator: Adobe Illustrator 18.0.0, SVG Export Plug-In . SVG Version: 6.00 Build 0)  -->
<!DOCTYPE svg PUBLIC "-//W3C//DTD SVG 1.1//EN" "http://www.w3.org/Graphics/SVG/1.1/DTD/svg11.dtd">
<svg version="1.1" id="レイヤー_1" xmlns="http://www.w3.org/2000/svg" xmlns:xlink="http://www.w3.org/1999/xlink" x="0px"
	 y="0px" width="64px" height="64px" viewBox="0 0 64 64" style="enable-background:new 0 0 64 64;" xml:space="preserve">
<g>
	<g>
		<linearGradient id="SVGID_1_" gradientUnits="userSpaceOnUse" x1="32" y1="19.5" x2="32" y2="44.8333321">
			<stop  offset="0" style="stop-color:#C6C7C8"/>
			<stop  offset="0.0803571" style="stop-color:#F5F5F5"/>
			<stop  offset="0.320757" style="stop-color:#F5F5F5"/>
			<stop  offset="1" style="stop-color:#3E3A39"/>
		</linearGradient>
		<path style="fill:url(#SVGID_1_);" d="M57.5,44.8333321h-51c-1.1045694,0-2-0.8954277-2-2V23.5c0-2.2091389,1.7908611-4,4-4h47
			c2.2091408,0,4,1.7908611,4,4v19.3333321C59.5,43.9379044,58.6045685,44.8333321,57.5,44.8333321z"/>
		<linearGradient id="SVGID_2_" gradientUnits="userSpaceOnUse" x1="32" y1="19.4999962" x2="32" y2="44.8333397">
			<stop  offset="0" style="stop-color:#B2B2B3"/>
			<stop  offset="0.0803571" style="stop-color:#D9DADA"/>
			<stop  offset="0.2455357" style="stop-color:#D9DADA"/>
			<stop  offset="1" style="stop-color:#3E3A39"/>
		</linearGradient>
		<path style="fill:url(#SVGID_2_);" d="M55.5,19.9999962c1.9299088,0,3.5,1.5700912,3.5,3.5v19.3333397
			c0,0.8271027-0.6729012,1.5-1.5,1.5h-51c-0.8270998,0-1.5-0.6728973-1.5-1.5V23.4999962c0-1.9299088,1.5700898-3.5,3.5-3.5H55.5
			 M55.5,19.4999962h-47c-2.2091398,0-4,1.790863-4,4v19.3333397c0,1.1045609,0.8954301,2,2,2h51c1.1045685,0,2-0.8954391,2-2
			V23.4999962C59.5,21.2908592,57.7091408,19.4999962,55.5,19.4999962L55.5,19.4999962z"/>
	</g>
	<path style="fill:#3E3A39;" d="M55.5,19.4999962c2.2091408,0,4,1.7908707,4,4v19.3333397c0,1.1045685-0.8954315,2-2,2h-51
		c-1.1045699,0-2-0.8954315-2-2V23.4999962c0-2.2091293,1.7908602-4,4-4H55.5 M55.5,18.9999962h-47
		c-2.4813099,0-4.5,2.0186901-4.5,4.5v19.3333397c0,1.3785019,1.1215,2.5,2.5,2.5h51c1.3785019,0,2.5-1.1214981,2.5-2.5V23.4999962
		C60,21.0186863,57.9813118,18.9999962,55.5,18.9999962L55.5,18.9999962z"/>
</g>
<path style="opacity:0.5;fill:#231815;" d="M20,37h24c1.6568527,0,3-1.3431473,3-3V22H17v12C17,35.6568527,18.3431454,37,20,37z"/>
<path style="fill:#3E3A39;" d="M44,37.25H20c-1.7919922,0-3.25-1.4580078-3.25-3.25V21.75h30.5V34
	C47.25,35.7919922,45.7919922,37.25,44,37.25z M17.25,22.25V34c0,1.5166016,1.2333984,2.75,2.75,2.75h24
	c1.5166016,0,2.75-1.2333984,2.75-2.75V22.25H17.25z"/>
<g>
	<g>
		<linearGradient id="SVGID_3_" gradientUnits="userSpaceOnUse" x1="32" y1="14.5" x2="32" y2="22">
			<stop  offset="0" style="stop-color:#717071"/>
			<stop  offset="1" style="stop-color:#3E3A39"/>
		</linearGradient>
		<rect x="17" y="14.5" style="fill:url(#SVGID_3_);" width="30" height="7.5"/>
		<path style="fill:#3E3A39;" d="M47.25,22.25h-30.5v-8h30.5V22.25z M17.25,21.75h29.5v-7h-29.5V21.75z"/>
	</g>
	<g>
		<rect x="19.5" y="9.5" style="fill:#FFFFFF;" width="25" height="12.5"/>
		<path style="fill:#3E3A39;" d="M44.75,22.25h-25.5v-13h25.5V22.25z M19.75,21.75h24.5v-12h-24.5V21.75z"/>
	</g>
	<g>
		<linearGradient id="SVGID_4_" gradientUnits="userSpaceOnUse" x1="32" y1="49.5" x2="32" y2="42">
			<stop  offset="0" style="stop-color:#717071"/>
			<stop  offset="1" style="stop-color:#3E3A39"/>
		</linearGradient>
		<rect x="17" y="42" style="fill:url(#SVGID_4_);" width="30" height="7.5"/>
		<path style="fill:#3E3A39;" d="M47.25,49.75h-30.5v-8h30.5V49.75z M17.25,49.25h29.5v-7h-29.5V49.25z"/>
	</g>
	<g>
		<linearGradient id="SVGID_5_" gradientUnits="userSpaceOnUse" x1="32" y1="57" x2="32" y2="42">
			<stop  offset="0.6339285" style="stop-color:#F5F5F5"/>
			<stop  offset="1" style="stop-color:#3E3A39"/>
		</linearGradient>
		<rect x="19.5" y="42" style="fill:url(#SVGID_5_);" width="25" height="15"/>
		<path style="fill:#3E3A39;" d="M44.75,57.25h-25.5v-15.5h25.5V57.25z M19.75,56.75h24.5v-14.5h-24.5V56.75z"/>
	</g>
	<rect x="22" y="44.25" style="fill:#3E3A39;" width="20" height="0.5"/>
	<rect x="22" y="46.75" style="fill:#3E3A39;" width="20" height="0.5"/>
	<rect x="22" y="49.25" style="fill:#3E3A39;" width="20" height="0.5"/>
	<rect x="22" y="51.75" style="fill:#3E3A39;" width="20" height="0.5"/>
	<rect x="22" y="54.25" style="fill:#3E3A39;" width="20" height="0.5"/>
</g>
<g>
	<path style="fill:#595757;" d="M14.5,44.5H7v-3c0-1.1045685,0.8954306-2,2-2h3.5c1.1045694,0,2,0.8954315,2,2V44.5z"/>
	<path style="fill:#3E3A39;" d="M12.5,39.4861107c1.1045704,0,2,0.8705559,2,1.9444466v2.9166641H7v-2.9166641
		c0-1.0738907,0.8954301-1.9444466,2-1.9444466H12.5 M12.5,39H9c-1.3785,0-2.5,1.0903473-2.5,2.4305573v2.9166641
		c0,0.2684669,0.2238598,0.4861107,0.5,0.4861107h7.5c0.2761402,0,0.5-0.2176437,0.5-0.4861107v-2.9166641
		C15,40.0903473,13.8785,39,12.5,39L12.5,39z"/>
</g>
<g>
	<circle style="fill:#00E6FF;" cx="12.6240768" cy="42.4166641" r="1.0880799"/>
	<path style="fill:#3E3A39;" d="M12.6240768,41.3285866c0.6009293,0,1.0880795,0.4871483,1.0880795,1.0880775
		s-0.4871502,1.0880814-1.0880795,1.0880814c-0.6009302,0-1.0880804-0.4871521-1.0880804-1.0880814
		S12.0231466,41.3285866,12.6240768,41.3285866 M12.6240768,40.8285866c-0.8756704,0-1.5880804,0.71241-1.5880804,1.5880775
		c0,0.8756714,0.71241,1.5880814,1.5880804,1.5880814c0.8756695,0,1.5880795-0.71241,1.5880795-1.5880814
		C14.2121563,41.5409966,13.4997463,40.8285866,12.6240768,40.8285866L12.6240768,40.8285866z"/>
</g>
<g>
	<circle style="fill:#FFEE00;" cx="8.8759232" cy="42.4166641" r="1.0880799"/>
	<path style="fill:#3E3A39;" d="M8.8759232,41.3285866c0.6009302,0,1.0880804,0.4871521,1.0880804,1.0880814
		s-0.4871502,1.0880775-1.0880804,1.0880775s-1.0880795-0.4871483-1.0880795-1.0880775S8.2749929,41.3285866,8.8759232,41.3285866
		 M8.8759232,40.8285866c-0.8756695,0-1.5880795,0.71241-1.5880795,1.5880814c0,0.8756676,0.71241,1.5880814,1.5880795,1.5880814
		c0.8756704,0,1.5880804-0.7124138,1.5880804-1.5880814C10.4640036,41.5409966,9.7515936,40.8285866,8.8759232,40.8285866
		L8.8759232,40.8285866z"/>
</g>
<g>
</g>
<g>
</g>
<g>
</g>
<g>
</g>
<g>
</g>
<g>
</g>
</svg>
