<?xml version="1.0" encoding="utf-8"?>
<!-- Generator: Adobe Illustrator 18.0.0, SVG Export Plug-In . SVG Version: 6.00 Build 0)  -->
<!DOCTYPE svg PUBLIC "-//W3C//DTD SVG 1.1//EN" "http://www.w3.org/Graphics/SVG/1.1/DTD/svg11.dtd">
<svg version="1.1" id="レイヤー_1" xmlns="http://www.w3.org/2000/svg" xmlns:xlink="http://www.w3.org/1999/xlink" x="0px"
	 y="0px" width="64px" height="64px" viewBox="0 0 64 64" style="enable-background:new 0 0 64 64;" xml:space="preserve">
<g>
	<g>
		<path style="fill:#FFFFFF;" d="M57.5,41.5201225h-51c-1.0999999,0-2-0.8999977-2-2V23.3839016c0-2.2000008,1.8000002-4,4-4h47
			c2.2000008,0,4,1.7999992,4,4v16.1362209C59.5,40.6201248,58.5999985,41.5201225,57.5,41.5201225z"/>
		<path style="fill:#231815;" d="M57.5,42.5205078h-51c-1.6542969,0-3-1.3457031-3-3V23.3837891c0-2.7568359,2.2431641-5,5-5h47
			c2.7568359,0,5,2.2431641,5,5v16.1367188C60.5,41.1748047,59.1542969,42.5205078,57.5,42.5205078z M8.5,20.3837891
			c-1.6542969,0-3,1.3457031-3,3v16.1367188c0,0.5517578,0.4487305,1,1,1h51c0.5517578,0,1-0.4482422,1-1V23.3837891
			c0-1.6542969-1.3457031-3-3-3H8.5z"/>
	</g>
	<g>
		<rect x="17" y="13.1919518" style="fill:#FFFFFF;" width="30" height="9.2879257"/>
		<path style="fill:#231815;" d="M48,23.4799805H16V12.1918945h32V23.4799805z M18,21.4799805h28v-7.2880859H18V21.4799805z"/>
	</g>
	<g>
		<rect x="19.5" y="6.9999986" style="fill:#FFFFFF;" width="25" height="15.4798765"/>
		<path style="fill:#231815;" d="M45.5,23.4799805h-27V6h27V23.4799805z M20.5,21.4799805h23V8h-23V21.4799805z"/>
	</g>
	<g>
		<path style="fill:#FFFFFF;" d="M44,32.3353958H20c-1.6568546,0-3-1.3431435-3-2.9999981v-6.8555222h30v6.8555222
			C47,30.9922523,45.6568527,32.3353958,44,32.3353958z"/>
		<path style="fill:#231815;" d="M44,33.3349609H20c-2.2055664,0-4-1.7939453-4-3.9995117v-7.8554688h32v7.8554688
			C48,31.5410156,46.2060547,33.3349609,44,33.3349609z M18,23.4799805v5.8554688c0,1.1030273,0.8969727,2,2,2h24
			c1.1025391,0,2-0.8969727,2-2v-5.8554688H18z"/>
	</g>
	<g>
		<path style="fill:#FFFFFF;" d="M12.5,35.3281746H9c-1.1045694,0-2,0.8954277-2,2v4.1919479h7.5v-4.1919479
			C14.5,36.2236023,13.6045694,35.3281746,12.5,35.3281746z"/>
		<path style="fill:#231815;" d="M15.5,42.5205078H6V37.328125c0-1.6542969,1.3457031-3,3-3h3.5c1.6542969,0,3,1.3457031,3,3
			V42.5205078z M8,40.5205078h5.5V37.328125c0-0.5517578-0.4487305-1-1-1H9c-0.5512695,0-1,0.4482422-1,1V40.5205078z"/>
	</g>
	<g>
		<rect x="17" y="38.4241486" style="fill:#FFFFFF;" width="30" height="9.2879257"/>
		<path style="fill:#231815;" d="M48,48.7119141H16V37.4238281h32V48.7119141z M18,46.7119141h28v-7.2880859H18V46.7119141z"/>
	</g>
	<g>
		<rect x="19.5" y="38.4241486" style="fill:#FFFFFF;" width="25" height="18.5758514"/>
		<path style="fill:#231815;" d="M45.5,58h-27V37.4238281h27V58z M20.5,56h23V39.4238281h-23V56z"/>
	</g>
	<g>
		<line style="fill:#FFFFFF;" x1="42" y1="42.7585144" x2="22" y2="42.7585144"/>
		<rect x="22" y="41.7587891" style="fill:#231815;" width="20" height="2"/>
	</g>
	<g>
		<line style="fill:#FFFFFF;" x1="42" y1="47.7120743" x2="22" y2="47.7120743"/>
		<rect x="22" y="46.7119141" style="fill:#231815;" width="20" height="2"/>
	</g>
	<g>
		<line style="fill:#FFFFFF;" x1="42" y1="52.6656342" x2="22" y2="52.6656342"/>
		<rect x="22" y="51.6660156" style="fill:#231815;" width="20" height="2"/>
	</g>
</g>
<g>
</g>
<g>
</g>
<g>
</g>
<g>
</g>
<g>
</g>
<g>
</g>
</svg>
