<?xml version="1.0" encoding="utf-8"?>
<!-- Generator: Adobe Illustrator 15.0.2, SVG Export Plug-In . SVG Version: 6.00 Build 0)  -->
<!DOCTYPE svg PUBLIC "-//W3C//DTD SVG 1.1//EN" "http://www.w3.org/Graphics/SVG/1.1/DTD/svg11.dtd">
<svg version="1.1" id="レイヤー_1" xmlns="http://www.w3.org/2000/svg" xmlns:xlink="http://www.w3.org/1999/xlink" x="0px"
	 y="0px" width="64px" height="64px" viewBox="0 0 64 64" enable-background="new 0 0 64 64" xml:space="preserve">
<g>
	<linearGradient id="SVGID_1_" gradientUnits="userSpaceOnUse" x1="20.3047" y1="11.8921" x2="52.2218" y2="60.3086">
		<stop  offset="0" style="stop-color:#FFFFFF"/>
		<stop  offset="1" style="stop-color:#1FB2FF"/>
	</linearGradient>
	<polygon fill="url(#SVGID_1_)" stroke="#003C93" stroke-width="2" stroke-miterlimit="10" points="18.626,22.966 18.626,41.033 
		40.331,53.416 40.331,10.584 	"/>
	<linearGradient id="SVGID_2_" gradientUnits="userSpaceOnUse" x1="3.1899" y1="23.1763" x2="35.1055" y2="71.5905">
		<stop  offset="0" style="stop-color:#FFFFFF"/>
		<stop  offset="1" style="stop-color:#1FB2FF"/>
	</linearGradient>
	
		<rect x="2.806" y="23.393" fill="url(#SVGID_2_)" stroke="#003C93" stroke-width="2" stroke-miterlimit="10" width="12.402" height="17.215"/>
	<path fill="#2699F7" d="M47.917,32c0-1.028-0.241-4.174-3.175-6.624l-0.001,0.968c0,0,1.709,1.936,1.588,5.656
		c0.121,3.721-1.588,5.656-1.588,5.656v0.968C47.676,36.173,47.917,33.028,47.917,32z"/>
	<path fill="#2699F7" d="M54.459,32c0-1.642-0.385-6.663-5.068-10.574l-0.002,1.545c0,0,2.729,3.09,2.536,9.029
		c0.192,5.938-2.536,9.029-2.536,9.029v1.545C54.074,38.662,54.459,33.641,54.459,32z"/>
	<path fill="#2699F7" d="M61.194,32c0-2.381-0.559-9.665-7.352-15.337l-0.001,2.24c0,0,3.957,4.482,3.677,13.097
		c0.28,8.614-3.677,13.096-3.677,13.096v2.241C60.636,41.663,61.194,34.381,61.194,32z"/>
</g>
</svg>
