<?xml version="1.0" encoding="UTF-8" standalone="no"?>
<!-- Generator: Adobe Illustrator 15.0.2, SVG Export Plug-In . SVG Version: 6.00 Build 0)  -->

<svg
   xmlns:dc="http://purl.org/dc/elements/1.1/"
   xmlns:cc="http://creativecommons.org/ns#"
   xmlns:rdf="http://www.w3.org/1999/02/22-rdf-syntax-ns#"
   xmlns:svg="http://www.w3.org/2000/svg"
   xmlns="http://www.w3.org/2000/svg"
   xmlns:sodipodi="http://sodipodi.sourceforge.net/DTD/sodipodi-0.dtd"
   xmlns:inkscape="http://www.inkscape.org/namespaces/inkscape"
   version="1.1"
   id="レイヤー_1"
   x="0px"
   y="0px"
   width="64px"
   height="64px"
   viewBox="0 0 64 64"
   enable-background="new 0 0 64 64"
   xml:space="preserve"
   inkscape:version="0.48.4 r9939"
   sodipodi:docname="put_litter_in_its_place.svg"><metadata
     id="metadata38"><rdf:RDF><cc:Work
         rdf:about=""><dc:format>image/svg+xml</dc:format><dc:type
           rdf:resource="http://purl.org/dc/dcmitype/StillImage" /></cc:Work></rdf:RDF></metadata><defs
     id="defs36" /><sodipodi:namedview
     pagecolor="#ffffff"
     bordercolor="#666666"
     borderopacity="1"
     objecttolerance="10"
     gridtolerance="10"
     guidetolerance="10"
     inkscape:pageopacity="0"
     inkscape:pageshadow="2"
     inkscape:window-width="640"
     inkscape:window-height="480"
     id="namedview34" /><g
     id="g3"><linearGradient
       id="SVGID_1_"
       gradientUnits="userSpaceOnUse"
       x1="31.9995"
       y1="2.9956"
       x2="31.9995"
       y2="60.9864"><stop
         offset="0"
         style="stop-color:#1FB8FF"
         id="stop6" /><stop
         offset="1"
         style="stop-color:#0070FF"
         id="stop8" /></linearGradient><path
       fill="url(#SVGID_1_)"
       stroke="#0F50F2"
       stroke-width="2"
       stroke-miterlimit="10"
       d="M62.205,50.205c0,6.627-5.373,12-12,12   h-36.41c-6.627,0-12-5.373-12-12v-36.41c0-6.627,5.373-12,12-12h36.41c6.627,0,12,5.373,12,12V50.205z"
       id="path10" /><g
       id="g12"><path
         opacity="0.28"
         fill="#FFFFFF"
         d="M2.672,13.368c-0.032,0.354-0.054,0.71-0.054,1.071v12.594    c0.006,0.006,0.012,0.012,0.017,0.018L2.672,13.368z"
         id="path14" /><path
         opacity="0.28"
         fill="#FFFFFF"
         d="M60.106,23.569c1.188-5.802,1.222-9.417,1.222-10.193    C60.79,7.428,55.797,2.767,49.71,2.767H14.291c-6.076,0-11.063,4.642-11.617,10.572c0.02,0.349,0.497,4.034,1.293,10.307    C11.206,30.7,21.092,35.055,32,35.055C42.945,35.055,52.859,30.669,60.106,23.569z"
         id="path16" /><path
         opacity="0.28"
         fill="#FFFFFF"
         d="M61.328,13.379l0.039,13.667c0.005-0.005,0.01-0.01,0.015-0.015V14.439    C61.382,14.081,61.359,13.729,61.328,13.379z"
         id="path18" /></g><path
       fill="#FFFFFF"
       d="M2.674,27.586c0,0-0.006-10.92-0.028-13.859c-0.027-3.6,3.243-10.89,10.375-10.89   c6.639,0,16.803,0,16.803,0S17.118,3.651,13.02,4.471c-4.098,0.82-7.493,6.044-8.442,9.263C3.198,18.415,2.674,27.586,2.674,27.586   z"
       id="path20" /><path
       fill="#0D62B5"
       d="M61.001,37.832c0,0,0.006,10.233,0.027,12.989c0.026,3.373-3.141,10.207-10.048,10.207   c-6.428,0-16.27,0-16.27,0s12.304-0.764,16.272-1.532c3.967-0.769,7.254-5.663,8.174-8.681   C60.493,46.427,61.001,37.832,61.001,37.832z"
       id="path22" /><g
       id="g24"><circle
         fill="#FFFFFF"
         cx="42.191"
         cy="11.175"
         r="4.191"
         id="circle26" /><path
         fill="#FFFFFF"
         d="M47.146,16.282c-0.96,0-8.826,0-10.704,0c-1.303,0-1.572,0.968-1.572,0.968l-3.994,6.125h-6.5    c-3.5,0-3.75,4.875,0,4.875c2,0,9.375,0,9.375,0l2.786-4.815c0,4.408,0,30.37,0,31.53c0,1.266,1.179,2.051,2.052,2.051    c0.874,0,2.654-0.873,2.654-1.744c0-0.875,0-19.037,0-19.037h1.013c0,0,0,18.074,0,18.947s1.505,1.834,2.465,1.834    c0.961,0,2.251-0.697,2.251-1.658s0-32.396,0-32.396h0.668c0,0,0,10.653,0,11.669c0,1.018,1.005,1.658,1.801,1.803    c1.198,0.215,1.919-0.896,1.919-1.92s0-11.202,0-14.019S48.106,16.282,47.146,16.282z"
         id="path28" /></g><polyline
       fill="none"
       stroke="#FFFFFF"
       stroke-width="1.86"
       stroke-miterlimit="10"
       points="27.573,31.371 25.573,55.387    10.448,55.387 8.448,31.371  "
       id="polyline30" /><rect
       x="15.836"
       y="29.833"
       transform="matrix(0.9883 -0.1523 0.1523 0.9883 -4.8703 3.1688)"
       fill="#FFFFFF"
       width="4.814"
       height="7.066"
       id="rect32" /></g></svg>