<?xml version="1.0" encoding="utf-8"?>
<!-- Generator: Adobe Illustrator 15.0.0, SVG Export Plug-In . SVG Version: 6.00 Build 0)  -->
<!DOCTYPE svg PUBLIC "-//W3C//DTD SVG 1.1//EN" "http://www.w3.org/Graphics/SVG/1.1/DTD/svg11.dtd">
<svg version="1.1" id="レイヤー_1" xmlns="http://www.w3.org/2000/svg" xmlns:xlink="http://www.w3.org/1999/xlink" x="0px"
	 y="0px" width="64px" height="64px" viewBox="0 0 64 64" style="enable-background:new 0 0 64 64;" xml:space="preserve">
<g>
	<linearGradient id="SVGID_1_" gradientUnits="userSpaceOnUse" x1="32" y1="2.9960938" x2="31.9999981" y2="60.9864616">
		<stop  offset="0" style="stop-color:#1FB8FF"/>
		<stop  offset="1" style="stop-color:#0070FF"/>
	</linearGradient>
	<path style="fill:url(#SVGID_1_);" d="M62.2050781,50.2050781c0,6.6269531-5.3730469,12-12,12h-36.409668
		c-6.6274414,0-12-5.3730469-12-12v-36.409668c0-6.6274414,5.3725586-12,12-12h36.409668c6.6269531,0,12,5.3725586,12,12V50.2050781
		z"/>
	<path style="fill:#0D62B5;" d="M61.6230469,37.8320313c0,0,0.0068359,10.4414063,0.0302734,13.2529297
		C61.6816406,54.5263672,58.2714844,61.5,50.8320313,61.5c-6.9228516,0-17.5224609,0-17.5224609,0
		s13.2509766-0.7792969,17.5253906-1.5634766c4.2724609-0.7841797,7.8125-5.7783203,8.8027344-8.8574219
		C61.0771484,46.6015625,61.6230469,37.8320313,61.6230469,37.8320313z"/>
	<path style="fill:#FFFFFF;" d="M2.6738281,27.5859375c0,0-0.0058594-10.9194336-0.0283203-13.8588867
		c-0.0273438-3.6000977,3.2436523-10.8901367,10.375-10.8901367c6.6391602,0,16.8032227,0,16.8032227,0
		S17.1181641,3.6513672,13.0200195,4.4711914s-7.4936523,6.043457-8.4423828,9.2626953
		C3.1982422,18.4150391,2.6738281,27.5859375,2.6738281,27.5859375z"/>
	<path style="fill:#0F50F2;" d="M50.2050781,63.2050781h-36.409668c-7.168457,0-13-5.8320313-13-13v-36.409668
		c0-7.168457,5.831543-13,13-13h36.409668c7.1679688,0,13,5.831543,13,13v36.409668
		C63.2050781,57.3730469,57.3730469,63.2050781,50.2050781,63.2050781z M13.7954102,2.7954102c-6.0654297,0-11,4.9345703-11,11
		v36.409668c0,6.0654297,4.9345703,11,11,11h36.409668c6.0654297,0,11-4.9345703,11-11v-36.409668c0-6.0654297-4.9345703-11-11-11
		H13.7954102z"/>
	<g>
		<path style="opacity:0.28;fill:#FFFFFF;" d="M2.6723633,13.3686523c-0.0322266,0.3530273-0.0541992,0.7094727-0.0541992,1.0708008
			v12.59375c0.0058594,0.0058594,0.0117188,0.0117188,0.0170898,0.0175781L2.6723633,13.3686523z"/>
		<path style="opacity:0.28;fill:#FFFFFF;" d="M60.1064453,23.5698242
			c1.1884766-5.8022461,1.2216797-9.4174805,1.2216797-10.1938477c-0.5380859-5.9477539-5.53125-10.609375-11.6181641-10.609375
			H14.2910156c-6.0756836,0-11.0620117,4.6420898-11.6171875,10.5722656
			c0.0195313,0.3491211,0.4970703,4.0341797,1.2929688,10.3071289C11.206543,30.7006836,21.0922852,35.0546875,32,35.0546875
			C42.9453125,35.0546875,52.859375,30.6694336,60.1064453,23.5698242z"/>
		<path style="opacity:0.28;fill:#FFFFFF;" d="M61.328125,13.3789063l0.0390625,13.6674805
			c0.0048828-0.0048828,0.0097656-0.0097656,0.0146484-0.0146484V14.4394531
			C61.3818359,14.081543,61.359375,13.7290039,61.328125,13.3789063z"/>
	</g>
</g>
<g>
	<circle style="fill:#FFFFFF;" cx="42.1914063" cy="11.1750488" r="4.1911621"/>
	<path style="fill:#FFFFFF;" d="M47.1455078,16.2827148c-0.9599609,0-8.8261719,0-10.7041016,0
		c-1.3027344,0-1.5722656,0.9672852-1.5722656,0.9672852L30.875,23.375h-6.5c-3.5,0-3.75,4.875,0,4.875c2,0,9.375,0,9.375,0
		l2.7861328-4.8149414c0,4.4077148,0,30.3696289,0,31.5297852c0,1.265625,1.1787109,2.0507813,2.0517578,2.0507813
		c0.8740234,0,2.6542969-0.8730469,2.6542969-1.7441406c0-0.875,0-19.0371094,0-19.0371094h1.0126953c0,0,0,18.0742188,0,18.9472656
		s1.5048828,1.8339844,2.4648438,1.8339844c0.9609375,0,2.2509766-0.6972656,2.2509766-1.6582031s0-32.3955078,0-32.3955078
		h0.6679688c0,0,0,10.6533203,0,11.6689453c0,1.0175781,1.0048828,1.6582031,1.8007813,1.8027344
		c1.1982422,0.2148438,1.9189453-0.8964844,1.9189453-1.9199219s0-11.2021484,0-14.0180664
		C51.3583984,17.6791992,48.1064453,16.2827148,47.1455078,16.2827148z"/>
</g>
<polygon style="fill:#FFFFFF;" points="26.4291992,56.3164063 9.5922852,56.3164063 7.5214844,31.4482422 9.375,31.2939453 
	11.3041992,54.4570313 24.7172852,54.4570313 26.6464844,31.2939453 28.5,31.4482422 "/>
<rect x="15.8364029" y="29.8334064" transform="matrix(0.9883248 -0.1523621 0.1523621 0.9883248 -4.8707523 3.1691246)" style="fill:#FFFFFF;" width="4.8135233" height="7.0656104"/>
</svg>
