<?xml version="1.0" encoding="utf-8"?>
<!-- Generator: Adobe Illustrator 15.0.2, SVG Export Plug-In . SVG Version: 6.00 Build 0)  -->
<!DOCTYPE svg PUBLIC "-//W3C//DTD SVG 1.1//EN" "http://www.w3.org/Graphics/SVG/1.1/DTD/svg11.dtd">
<svg version="1.1" id="レイヤー_1" xmlns="http://www.w3.org/2000/svg" xmlns:xlink="http://www.w3.org/1999/xlink" x="0px"
	 y="0px" width="64px" height="64px" viewBox="0 0 64 64" style="enable-background:new 0 0 64 64;" xml:space="preserve">
<path style="fill:#471E02;" d="M60.9404297,66.3710938c0,0-1.359375-15.7382813-1.1220703-21.0273438L46.109375,44.2548828
	c0,0,0.0947266,8.7949219-0.2958984,10.5078125c-0.3876953,1.7119141,0.7529297,12.0302734,0.7529297,12.0302734
	L60.9404297,66.3710938z"/>
<path style="fill:#110700;" d="M45.6738281,67.8193359l-0.1015625-0.9160156
	c-0.1933594-1.7509766-1.1386719-10.5761719-0.734375-12.3613281c0.2675781-1.1738281,0.3095703-6.7880859,0.2714844-10.2763672
	l-0.0117188-1.0947266l15.7626953,1.2529297l-0.0429688,0.9648438c-0.2314453,5.1630859,1.1054688,20.7392578,1.1191406,20.8964844
	l0.0908203,1.0546875L45.6738281,67.8193359z M47.1171875,45.3378906c0.0136719,2.4921875,0.0039063,8.1875-0.3291016,9.6474609
	c-0.2353516,1.0419922,0.2548828,6.8154297,0.6728516,10.78125l12.3945313-0.3642578
	c-0.2822266-3.4101563-1.1220703-14.0507813-1.0615234-19.1367188L47.1171875,45.3378906z"/>
<path style="fill:#281000;" d="M58.9072266,51.9873047c0,0-2.9423828,4.4921875-6.1103516,4.4921875
	c-3.1669922,0-6.109375-2.9394531-6.109375-2.9394531S55.3730469,56.2314453,58.9072266,51.9873047z"/>
<path style="fill:#471E02;" d="M61.5576172,30.3164063C61.3300781,28.3720703,61.0947266,26.6875,60.9404297,25.8125
	c-0.3203125-1.8125-2.5742188-1.5039063-2.9179688-0.625c-0.5244141,1.3417969-0.0244141,4.4599609,0,7.5615234
	c0,0-0.6826172-9.6992188-1.3496094-12.6787109C55.9853516,17,52.6376953,18.140625,52.6376953,21.0664063
	c0.4599609,4.6699219,0.6308594,11.5585938,0.6982422,11.6826172c-0.0673828-0.1240234-0.2382813-7.0126953-0.6982422-11.6826172
	c-0.1992188-2.0166016-0.4521484-3.6191406-0.7734375-4.0849609C50.7978516,15.4375,48,15.9160156,48,18.875
	c0,2.0625,0.1396484,3,0.1396484,5.25s0.3759766,7.3125,0.3759766,7.3125s-0.3759766-5.0625-0.3759766-7.3125S48,20.9375,48,18.875
	s-4.0078125-2.0488281-4.0078125,1.2597656c0,3.3066406,0.3476563,16.3125-0.2919922,16.1699219
	c-1.765625-0.3964844-3.6767578-2.8144531-3.6767578-2.8144531s-3.5839844-3.4355469-6.2724609,0.1269531
	c2.8154297,3.0527344,3.4570313,5.34375,3.4570313,5.34375s2.5595703,5.2929688,4.2236328,7.8867188
	c2.0185547,4.5039063,1.7285156,6.9277344,13.0566406,6.6757813c8.421875-2.1738281,6.7539063-7.359375,7.0693359-9.2695313
	C62.1474609,40.6894531,62.7626953,36.5703125,61.5576172,30.3164063z"/>
<path style="fill:#281000;" d="M58.0224609,37.7177734c0,0-4.5722656,3.2021484-5.3007813,5.4746094
	C51.9941406,45.4658203,52.9814453,38.8535156,58.0224609,37.7177734z"/>
<path style="fill:#281000;" d="M39.5400391,42.6757813l2.265625,3.6083984c0,0,0.3232422,5.5175781,6.4179688,6.7910156
	c4.2539063,0.2939453,5.1123047-0.1044922,5.1123047-0.1044922s-4.6279297-0.9570313-7.4326172-4.2441406
	C43.0996094,45.4355469,39.5400391,42.6757813,39.5400391,42.6757813z"/>
<path style="fill:#281000;" d="M49.4189453,42.6757813c0,0-3.6181641-5.7988281-6.3222656-5.8535156l0.96875-2.3242188
	C44.0654297,34.4980469,50.2880859,38.4833984,49.4189453,42.6757813z"/>
<g>
	<path style="fill:#420707;" d="M53.3369141,33.578125c-0.2939453,0-0.578125-0.15625-0.7285156-0.4326172
		c-0.1142578-0.2089844-0.1142578-0.2089844-0.2070313-2.3588867c-0.1054688-2.4414063-0.2822266-6.527832-0.5888672-9.6391602
		c-0.2998047-3.0366211-0.5791016-3.6132813-0.6328125-3.6982422c-0.2900391-0.4204102-0.8203125-0.5996094-1.3242188-0.4438477
		c-0.6523438,0.203125-1.0263672,0.8847656-1.0263672,1.8696289c0,0.4580078-0.3710938,0.8291016-0.8291016,0.8291016
		S47.1708984,19.3330078,47.1708984,18.875c0-2.0419922,1.1318359-3.1225586,2.1914063-3.4526367
		c1.2001953-0.3725586,2.4775391,0.0644531,3.1835938,1.0878906c0.2744141,0.3969727,0.5966797,1.2387695,0.9169922,4.4746094
		c0.3105469,3.1567383,0.4882813,7.2719727,0.5947266,9.7304688c0.0371094,0.8569336,0.0722656,1.668457,0.0908203,1.8671875
		c0.0712891,0.3476563-0.0878906,0.715332-0.4160156,0.894043C53.6064453,33.5458984,53.4707031,33.578125,53.3369141,33.578125z"/>
	<path style="fill:#420707;" d="M52.9707031,54.3701172c-8.8837891,0-10.1181641-1.9775391-11.7441406-5.8916016
		c-0.1630859-0.3916016-0.3339844-0.8037109-0.5263672-1.2353516c-1.671875-2.6220703-4.1337891-7.7041016-4.2382813-7.9199219
		c-0.0214844-0.0449219-0.0390625-0.0908203-0.0517578-0.1376953c-0.0058594-0.0175781-0.6494141-2.1669922-3.2685547-5.0058594
		c-0.2719727-0.2949219-0.2939453-0.7421875-0.0527344-1.0615234c0.8935547-1.1835938,1.9775391-1.8339844,3.2216797-1.9335938
		c2.265625-0.1796875,4.2060547,1.6303711,4.2861328,1.7070313c0.0273438,0.0263672,0.0537109,0.0546875,0.0771484,0.0839844
		c0.3867188,0.4882813,1.4394531,1.6396484,2.4638672,2.2167969c0.1914063-2.237793,0.1044922-8.6030273,0.0595703-11.8857422
		c-0.0185547-1.3457031-0.0341797-2.4741211-0.0341797-3.1723633c0-2.2983398,1.6064453-3.5009766,3.1923828-3.5009766
		c1.4335938,0,2.4736328,0.9428711,2.4736328,2.2416992c0,0.9936523,0.0332031,1.722168,0.0664063,2.4667969
		C48.9316406,22.1420898,48.96875,22.9599609,48.96875,24.125c0,2.1933594,0.3701172,7.2006836,0.3740234,7.2509766
		c0.0332031,0.456543-0.3095703,0.8544922-0.765625,0.8881836c-0.4736328,0.0292969-0.8535156-0.3085938-0.8886719-0.7651367
		c-0.0146484-0.2080078-0.3779297-5.1191406-0.3779297-7.3740234c0-1.1337891-0.0361328-1.9296875-0.0712891-2.7084961
		c-0.0341797-0.7670898-0.0683594-1.5175781-0.0683594-2.5415039c0-0.5673828-0.7314453-0.5834961-0.8154297-0.5834961
		c-0.5693359,0-1.5341797,0.3876953-1.5341797,1.8427734c0,0.6928711,0.015625,1.8134766,0.0332031,3.1499023
		c0.171875,12.5302734-0.0419922,13.2099609-0.5869141,13.6523438c-0.1953125,0.1591797-0.4960938,0.2324219-0.7480469,0.1787109
		c-1.8984375-0.4267578-3.7441406-2.6123047-4.1035156-3.0566406c-0.2275391-0.203125-1.578125-1.3383789-2.9794922-1.2207031
		c-0.578125,0.0478516-1.0996094,0.3017578-1.5810547,0.7714844c2.265625,2.6132813,2.9892578,4.6201172,3.1259766,5.0478516
		c0.2792969,0.5742188,2.6210938,5.3632813,4.1484375,7.7441406c0.0214844,0.0341797,0.0410156,0.0703125,0.0585938,0.1083984
		c0.2089844,0.4658203,0.3935547,0.9101563,0.5683594,1.3320313c1.4414063,3.4677734,2.1123047,5.0644531,11.6162109,4.8544922
		c6.3271484-1.6640625,6.3154297-5.0332031,6.3076172-7.265625c-0.0019531-0.4990234-0.0039063-0.9296875,0.0585938-1.3105469
		c0.5419922-3.2763672,1.2167969-7.3525391,0.0039063-13.6464844c-0.2226563-1.8881836-0.4570313-3.5957031-0.6191406-4.5170898
		c-0.0625-0.3535156-0.2314453-0.5498047-0.5322266-0.6171875c-0.3808594-0.0874023-0.7451172,0.0810547-0.8066406,0.1689453
		c-0.2695313,0.6958008-0.1708984,2.3422852-0.0664063,4.0849609c0.0605469,1.0180664,0.1240234,2.0703125,0.1328125,3.1494141
		c0.0029297,0.4477539-0.3496094,0.8168945-0.796875,0.8344727c-0.4130859,0.0332031-0.8271484-0.3222656-0.859375-0.7700195
		c-0.0068359-0.0961914-0.6855469-9.6708984-1.3310547-12.5556641c-0.0849609-0.3779297-0.3535156-1.2402344-1.0771484-1.1674805
		c-0.6494141,0.0717773-1.3203125,0.8330078-1.3203125,1.9824219c0,0.4580078-0.3710938,0.8291016-0.8291016,0.8291016
		s-0.8291016-0.3710938-0.8291016-0.8291016c0-2.1572266,1.4404297-3.4804688,2.7958984-3.6303711
		c1.046875-0.1137695,2.4306641,0.4560547,2.8769531,2.453125c0.2060547,0.9169922,0.4101563,2.4296875,0.5966797,4.0996094
		c0.4433594-0.2495117,0.9960938-0.3740234,1.5634766-0.3178711c1.1064453,0.1098633,1.9169922,0.875,2.1152344,1.9975586
		c0.1679688,0.9506836,0.4072266,2.6948242,0.6240234,4.5522461c1.2597656,6.5244141,0.5283203,10.9433594-0.0048828,14.1699219
		C62.3349609,44.6337891,62.3369141,45,62.3378906,45.4248047c0.0087891,2.4189453,0.0263672,6.9228516-7.6425781,8.9013672
		c-0.0615234,0.015625-0.125,0.0244141-0.1884766,0.0263672C53.9716797,54.3642578,53.4589844,54.3701172,52.9707031,54.3701172z"/>
</g>
<path style="fill:#471E02;" d="M3.0595703,66.3710938c0,0,1.359375-15.7382813,1.1220703-21.0273438l13.7089844-1.0888672
	c0,0-0.0947266,8.7949219,0.2958984,10.5078125c0.3876953,1.7119141-0.7529297,12.0302734-0.7529297,12.0302734
	L3.0595703,66.3710938z"/>
<path style="fill:#110700;" d="M18.3261719,67.8193359L1.972168,67.3398438l0.0913086-1.0546875
	c0.0131836-0.1572266,1.3505859-15.7333984,1.1191406-20.8964844l-0.043457-0.9648438l15.7631836-1.2529297L18.890625,44.265625
	c-0.0375977,3.4882813,0.003418,9.1025391,0.2709961,10.2744141c0.4042969,1.7871094-0.5405273,10.6123047-0.7338867,12.3632813
	L18.3261719,67.8193359z M4.1445313,65.4023438l12.394043,0.3642578c0.418457-3.9658203,0.9091797-9.7392578,0.6728516-10.7832031
	c-0.3330078-1.4580078-0.3417969-7.1533203-0.3291016-9.6455078L5.206543,46.265625
	C5.2666016,51.3515625,4.4267578,61.9921875,4.1445313,65.4023438z"/>
<path style="fill:#281000;" d="M5.0927734,51.9873047c0,0,2.9423828,4.4921875,6.1103516,4.4921875
	c3.1669922,0,6.109375-2.9394531,6.109375-2.9394531S8.6269531,56.2314453,5.0927734,51.9873047z"/>
<path style="fill:#471E02;" d="M2.4423828,30.3164063C2.6699219,28.3720703,2.9052734,26.6875,3.0595703,25.8125
	C3.3798828,24,5.6337891,24.3085938,5.9775391,25.1875c0.5244141,1.3417969,0.0244141,4.4599609,0,7.5615234
	c0,0,0.6826172-9.6992188,1.3496094-12.6787109C8.0146484,17,11.3623047,18.140625,11.3623047,21.0664063
	C10.9023438,25.7363281,10.7314453,32.625,10.6640625,32.7490234c0.0673828-0.1240234,0.2382813-7.0126953,0.6982422-11.6826172
	c0.1992188-2.0166016,0.4521484-3.6191406,0.7734375-4.0849609C13.2021484,15.4375,16,15.9160156,16,18.875
	c0,2.0625-0.1396484,3-0.1396484,5.25s-0.3759766,7.3125-0.3759766,7.3125s0.3759766-5.0625,0.3759766-7.3125S16,20.9375,16,18.875
	s4.0078125-2.0488281,4.0078125,1.2597656c0,3.3066406-0.3476563,16.3125,0.2919922,16.1699219
	c1.765625-0.3964844,3.6767578-2.8144531,3.6767578-2.8144531s3.5839844-3.4355469,6.2724609,0.1269531
	c-2.8154297,3.0527344-3.4570313,5.34375-3.4570313,5.34375s-2.5595703,5.2929688-4.2236328,7.8867188
	c-2.0185547,4.5039063-1.7285156,6.9277344-13.0566406,6.6757813c-8.421875-2.1738281-6.7539063-7.359375-7.0693359-9.2695313
	C1.8525391,40.6894531,1.2373047,36.5703125,2.4423828,30.3164063z"/>
<path style="fill:#110700;" d="M52.9560547,54.5410156c-8.9775391,0-10.25-2.0566406-11.8886719-5.9990234
	c-0.1601563-0.3867188-0.3291016-0.7929688-0.5185547-1.21875c-1.6767578-2.6337891-4.1367188-7.7099609-4.2412109-7.9267578
	l-0.0625-0.1660156c-0.0048828-0.015625-0.6435547-2.1318359-3.2294922-4.9355469l-0.565918-0.6132813l0.5029297-0.6669922
	c1.2563477-1.6650391,2.6987305-2.0141602,3.6870117-2.0141602c2.2060547,0,4,1.6958008,4.0761719,1.7675781l0.0917969,0.1015625
	c0.4726563,0.5961914,1.3457031,1.4897461,2.1806641,2.0288086c0.1630859-2.4267578,0.0810547-8.440918,0.0380859-11.590332
	c-0.0185547-1.3461914-0.0341797-2.4750977-0.0341797-3.1733398c0-2.4111328,1.6923828-3.6728516,3.3632813-3.6728516
	c0.4306641,0,0.8310547,0.0849609,1.1835938,0.237793c0.6074219-1.0419922,1.6464844-1.578125,2.6777344-1.578125
	c0.9882813,0,1.9111328,0.4829102,2.4707031,1.2915039c0.1630859,0.237793,0.3339844,0.5996094,0.5078125,1.4086914
	C53.7119141,17.4482422,54.3037109,17.25,54.8779297,17.25c1.0576172,0,2.3408203,0.6835938,2.7705078,2.6015625
	c0.1962891,0.8769531,0.3916016,2.2924805,0.5712891,3.8696289c0.3447266-0.1503906,0.7392578-0.2338867,1.1542969-0.2338867
	c1.3193359,0,2.3203125,0.8442383,2.5507813,2.1513672c0.1689453,0.9550781,0.4082031,2.7026367,0.6259766,4.5615234
	c1.2636719,6.5419922,0.5292969,10.9775391-0.0068359,14.2167969c-0.0380859,0.2294922-0.0361328,0.6064453-0.0351563,1.0058594
	c0.0097656,2.4658203,0.0263672,7.0566406-7.7705078,9.0693359l-0.2275391,0.03125
	C53.9658203,54.5351563,53.4492188,54.5410156,52.9560547,54.5410156z M38.140625,38.5917969
	c0.2998047,0.6162109,2.6191406,5.3574219,4.1328125,7.7158203l0.0703125,0.1308594
	c0.2099609,0.4677734,0.3955078,0.9130859,0.5712891,1.3359375c1.359375,3.2734375,1.9804688,4.7666016,10.0410156,4.7666016
	c0.4433594,0,0.9072266-0.0048828,1.3935547-0.0146484c6.1796875-1.6328125,6.1679688-4.7880859,6.1591797-7.0957031
	c-0.0009766-0.5068359-0.0029297-0.9443359,0.0625-1.3398438c0.5390625-3.2617188,1.2109375-7.3212891,0.0039063-13.5849609
	c-0.2246094-1.8964844-0.4570313-3.6000977-0.6191406-4.5195313c-0.0439453-0.246582-0.1474609-0.4990234-0.5820313-0.4990234
	c-0.2519531,0-0.4238281,0.0961914-0.4580078,0.1313477c-0.2275391,0.612793-0.1259766,2.3164063-0.0263672,3.9643555
	c0.0605469,1.0200195,0.1240234,2.074707,0.1328125,3.1582031l-1.9970703,0.078125
	c-0.0068359-0.0961914-0.6855469-9.6582031-1.328125-12.5307617C55.6269531,19.9765625,55.4072266,19.25,54.8779297,19.25
	c-0.5,0-1.2216797,0.6303711-1.2402344,1.7709961c0.2041016,2.0869141,0.3505859,4.581543,0.4570313,6.7387695
	c0.046875,0.9643555,0.0869141,1.8637695,0.1201172,2.6289063c0,0.0053711,0,0.0102539,0,0.015625
	c0,0.0004883,0,0.0004883,0,0.0009766c0.0009766,0.0175781,0.0019531,0.034668,0.0029297,0.0517578
	c0,0.0004883,0,0.0009766,0,0.0009766c0,0.0073242,0,0.0146484,0.0009766,0.0219727c0,0.0029297,0,0.0058594,0,0.0087891
	c0.0009766,0.0219727,0.0019531,0.0439453,0.0029297,0.065918c0,0.0058594,0.0009766,0.0112305,0.0009766,0.0170898
	c0.0019531,0.0458984,0.0039063,0.0913086,0.0058594,0.1362305c0.0380859,0.8886719,0.0742188,1.7280273,0.0917969,1.878418
	l-0.8740234,0.1025391l-0.9892578,0.5375977c-0.1328125-0.2441406-0.1328125-0.2441406-0.2265625-2.4321289
	c-0.1054688-2.4399414-0.2822266-6.5234375-0.5878906-9.6298828c-0.2910156-2.9467773-0.5585938-3.5390625-0.609375-3.6274414
	C50.5527344,16.8432617,49,16.8066406,49,18.875c0,0.9907227,0.0332031,1.7167969,0.0664063,2.4589844
	c0.0361328,0.8022461,0.0732422,1.6225586,0.0732422,2.7910156c0,2.1870117,0.3691406,7.1879883,0.3730469,7.2382813
	l-1.9941406,0.1484375c-0.015625-0.2084961-0.3789063-5.1254883-0.3789063-7.3867188
	c0-1.1303711-0.0361328-1.9243164-0.0712891-2.7006836C47.0341797,20.6547852,47,19.9018555,47,18.875
	c0-0.3930664-0.5371094-0.4130859-0.6445313-0.4130859c-0.6289063,0-1.3632813,0.4384766-1.3632813,1.6728516
	c0,0.6923828,0.015625,1.8115234,0.0332031,3.1459961c0.1699219,12.4331055-0.0488281,13.1860352-0.5595703,13.7055664
	l-0.2939453,0.2978516l-0.5703125,0.0214844l-0.1191406-0.0253906c-1.9375-0.4345703-3.8037109-2.6269531-4.1904297-3.1035156
	C39.0654297,33.9765625,37.8945313,33,36.6396484,33c-0.5644531,0-1.0751953,0.2050781-1.546875,0.6220703
	C37.2675781,36.1689453,37.9912109,38.1308594,38.140625,38.5917969z"/>
<path style="fill:#420707;" d="M11.043457,54.3701172c-0.4916992,0-1.0073242-0.0058594-1.550293-0.0175781
	c-0.0634766-0.0019531-0.1269531-0.0107422-0.1884766-0.0263672c-7.668457-1.9794922-7.6518555-6.4833984-7.6430664-8.9023438
	c0.0019531-0.4248047,0.0029297-0.7910156-0.0371094-1.0351563C1.0908203,41.1630859,0.359375,36.7441406,1.628418,30.159668
	c0.2075195-1.7954102,0.4467773-3.5395508,0.6147461-4.4912109c0.2158203-1.2211914,1.1508789-2.0102539,2.3823242-2.0102539
	c0.4746094,0,0.9257813,0.1210938,1.2963867,0.3295898c0.1865234-1.6699219,0.3911133-3.1816406,0.5961914-4.0986328
	c0.4077148-1.8198242,1.6123047-2.4682617,2.6040039-2.4682617c0.6210938,0,1.2626953,0.2470703,1.7978516,0.7001953
	c0.1879883-0.9755859,0.3696289-1.3725586,0.5332031-1.6103516c0.5273438-0.7631836,1.3979492-1.2182617,2.3295898-1.2182617
	c1.0141602,0,2.0371094,0.5522461,2.6015625,1.6240234c0.3623047-0.1821289,0.7900391-0.2832031,1.2602539-0.2832031
	c1.5864258,0,3.1923828,1.2026367,3.1923828,3.5014648c0,0.6977539-0.015625,1.8256836-0.0336914,3.1713867
	c-0.0449219,3.2822266-0.1318359,9.6479492,0.0595703,11.8862305c1.0239258-0.5771484,2.0766602-1.7285156,2.4638672-2.2167969
	c0.0234375-0.0292969,0.0493164-0.0576172,0.0761719-0.0839844c0.0732422-0.0703125,1.8198242-1.7202148,3.9575195-1.7202148
	c0.9492188,0,2.3364258,0.3374023,3.550293,1.9467773c0.2416992,0.3193359,0.2197266,0.7666016-0.0522461,1.0615234
	c-2.6191406,2.8388672-3.2631836,4.9873047-3.269043,5.0087891c-0.0131836,0.0439453-0.0307617,0.0917969-0.0512695,0.1337891
	c-0.1044922,0.2158203-2.5668945,5.2978516-4.2382813,7.9199219c-0.1918945,0.4316406-0.362793,0.8427734-0.5253906,1.234375
	C21.1650391,52.3496094,19.9121094,54.3701172,11.043457,54.3701172z M9.6269531,52.6962891
	c0.4946289,0.0107422,0.9658203,0.015625,1.4165039,0.015625c8.175293,0,8.8095703-1.5263672,10.199707-4.8720703
	c0.175293-0.4208984,0.3598633-0.8652344,0.5688477-1.3310547c0.0166016-0.0380859,0.0361328-0.0742188,0.0585938-0.1083984
	c1.5273438-2.3808594,3.8686523-7.1708984,4.1479492-7.7441406c0.1367188-0.4277344,0.8603516-2.4335938,3.1259766-5.046875
	c-0.5371094-0.5244141-1.1254883-0.7802734-1.7841797-0.7802734c-1.3276367,0-2.5605469,1.0380859-2.7768555,1.2294922
	c-0.3598633,0.4453125-2.2045898,2.6289063-4.1020508,3.0546875c-0.2758789,0.0644531-0.6259766-0.0449219-0.8242188-0.2460938
	c-0.4995117-0.5058594-0.6728516-1.8085938-0.512207-13.5839844c0.0185547-1.3354492,0.0336914-2.4555664,0.0336914-3.1484375
	c0-1.4550781-0.9643555-1.84375-1.5341797-1.84375c-0.0834961,0-0.8154297,0.0166016-0.8154297,0.5839844
	c0,1.0239258-0.0336914,1.7744141-0.0683594,2.5415039c-0.0351563,0.7788086-0.0712891,1.574707-0.0712891,2.7084961
	c0,2.2548828-0.362793,7.1660156-0.378418,7.3740234c-0.0336914,0.456543-0.4287109,0.7944336-0.8881836,0.7651367
	c-0.4360352-0.0322266-0.7680664-0.3964844-0.7675781-0.8271484c0-0.0200195,0.0009766-0.0405273,0.0024414-0.0610352
	c0.003418-0.050293,0.3735352-5.0576172,0.3735352-7.2509766c0-1.1650391,0.0371094-1.9829102,0.0732422-2.7832031
	c0.0332031-0.7446289,0.0664063-1.4731445,0.0664063-2.4667969c0-1.4204102-0.7475586-1.9248047-1.3881836-1.9248047
	c-0.3925781,0-0.7446289,0.1831055-0.9648438,0.5024414c-0.0507813,0.081543-0.3305664,0.6582031-0.6303711,3.6953125
	c-0.2021484,2.0498047-0.3476563,4.5234375-0.4536133,6.6708984c-0.0493164,0.9990234-0.0898438,1.925293-0.1235352,2.7060547
	c-0.0004883,0.0068359-0.0004883,0.0136719-0.0009766,0.0205078c0,0.0039063-0.0004883,0.0073242-0.0004883,0.0107422
	c-0.0009766,0.0214844-0.0019531,0.0424805-0.0029297,0.0634766c0,0.0004883,0,0.0004883,0,0.0004883
	c-0.0024414,0.0566406-0.0043945,0.1123047-0.0068359,0.1669922c-0.0927734,2.1484375-0.0927734,2.1484375-0.206543,2.3574219
	c-0.2182617,0.4013672-0.7207031,0.5527344-1.1240234,0.3330078c-0.2768555-0.1503906-0.4335938-0.4355469-0.4335938-0.7294922
	c0-0.0551758,0.0053711-0.1108398,0.0166016-0.1655273c0.019043-0.1987305,0.0537109-1.0102539,0.0908203-1.8671875
	c0.1064453-2.4584961,0.2841797-6.5732422,0.5947266-9.7299805c-0.0039063-1.2158203-0.8232422-1.90625-1.4150391-1.90625
	c-0.652832,0-0.9072266,0.8198242-0.9858398,1.1723633c-0.6459961,2.8847656-1.324707,12.4594727-1.331543,12.5556641
	c-0.0317383,0.4467773-0.4199219,0.8139648-0.859375,0.7700195c-0.4477539-0.0175781-0.800293-0.3867188-0.796875-0.8344727
	c0.0087891-1.0791016,0.0717773-2.1318359,0.1328125-3.1494141c0.1044922-1.7431641,0.2036133-3.3891602-0.0756836-4.1040039
	c-0.0307617-0.0371094-0.2573242-0.1728516-0.5800781-0.1728516c-0.6362305,0-0.7216797,0.4819336-0.7495117,0.6401367
	c-0.1625977,0.9223633-0.3964844,2.6298828-0.6103516,4.4560547c-1.2216797,6.3540039-0.5473633,10.4301758-0.0053711,13.7055664
	c0.0629883,0.3818359,0.0615234,0.8125,0.0595703,1.3115234C3.3115234,47.6621094,3.2993164,51.03125,9.6269531,52.6962891z"/>
<path style="fill:#281000;" d="M5.9775391,37.7177734c0,0,4.5722656,3.2021484,5.3007813,5.4746094
	C12.0058594,45.4658203,11.0185547,38.8535156,5.9775391,37.7177734z"/>
<path style="fill:#281000;" d="M24.1699219,42.6757813l-2.2182617,3.6083984c0,0-0.3164063,5.5175781-6.2832031,6.7910156
	c-4.1640625,0.2939453-5.0043945-0.1044922-5.0043945-0.1044922s4.5302734-0.9570313,7.2763672-4.2441406
	C20.6850586,45.4355469,24.1699219,42.6757813,24.1699219,42.6757813z"/>
<path style="fill:#281000;" d="M14.5810547,42.6757813c0,0,3.6181641-5.7988281,6.3222656-5.8535156l-0.96875-2.3242188
	C19.9345703,34.4980469,13.7119141,38.4833984,14.5810547,42.6757813z"/>
<g>
	<g>
		<path style="fill:#420707;" d="M10.6630859,33.578125c-0.1337891,0-0.2700195-0.0322266-0.3959961-0.1015625
			c-0.3276367-0.1787109-0.4868164-0.5463867-0.4155273-0.894043c0.019043-0.1987305,0.0537109-1.0102539,0.0908203-1.8671875
			c0.1064453-2.4584961,0.2841797-6.5737305,0.5947266-9.7299805c0.3198242-3.2363281,0.6425781-4.078125,0.9160156-4.4746094
			c0.7075195-1.0249023,1.9887695-1.4614258,3.1845703-1.0883789c1.059082,0.3300781,2.1914063,1.4106445,2.1914063,3.4526367
			c0,0.4580078-0.3710938,0.8291016-0.8291016,0.8291016S15.1708984,19.3330078,15.1708984,18.875
			c0-0.9848633-0.3740234-1.6665039-1.0268555-1.8696289c-0.4985352-0.15625-1.0336914,0.0234375-1.3261719,0.4472656
			c-0.0507813,0.081543-0.3305664,0.6582031-0.6303711,3.6953125c-0.3066406,3.1108398-0.4829102,7.1972656-0.5883789,9.6386719
			c-0.0927734,2.1499023-0.0927734,2.1499023-0.2070313,2.3588867C11.2412109,33.421875,10.9570313,33.578125,10.6630859,33.578125z
			"/>
		<path style="fill:#420707;" d="M11.0288086,54.3701172c-0.4882813,0-0.9995117-0.0058594-1.5356445-0.0175781
			c-0.0634766-0.0019531-0.1269531-0.0107422-0.1884766-0.0263672c-7.668457-1.9785156-7.6518555-6.4824219-7.6430664-8.9013672
			C1.6635742,45,1.6645508,44.6337891,1.6245117,44.3896484C1.0908203,41.1640625,0.359375,36.7451172,1.628418,30.1601563
			c0.2080078-1.796875,0.4472656-3.5410156,0.6147461-4.4916992c0.1982422-1.1225586,1.0087891-1.8876953,2.1147461-1.9975586
			c0.5664063-0.0551758,1.1210938,0.0683594,1.5639648,0.3178711c0.1860352-1.6699219,0.3911133-3.1826172,0.5961914-4.0996094
			c0.4472656-1.9960938,1.8334961-2.5703125,2.8774414-2.453125c1.3554688,0.1499023,2.7958984,1.4731445,2.7958984,3.6303711
			c0,0.4580078-0.3710938,0.8291016-0.8291016,0.8291016s-0.8291016-0.3710938-0.8291016-0.8291016
			c0-1.1494141-0.6708984-1.9106445-1.3203125-1.9824219c-0.7202148-0.0864258-0.9926758,0.7895508-1.0766602,1.1674805
			c-0.6459961,2.8847656-1.324707,12.4594727-1.331543,12.5556641c-0.0317383,0.4467773-0.4199219,0.8139648-0.859375,0.7700195
			c-0.4477539-0.0175781-0.800293-0.3867188-0.796875-0.8344727c0.0087891-1.0791016,0.0717773-2.1313477,0.1328125-3.1494141
			c0.1044922-1.7426758,0.2036133-3.3891602-0.0756836-4.1040039c-0.0522461-0.0683594-0.4101563-0.2382813-0.7978516-0.1499023
			c-0.300293,0.0673828-0.4692383,0.2636719-0.5317383,0.6171875c-0.1625977,0.9213867-0.3964844,2.6289063-0.6103516,4.456543
			C2.0439453,36.7675781,2.7182617,40.84375,3.2602539,44.1191406c0.0629883,0.3818359,0.0615234,0.8125,0.0595703,1.3115234
			c-0.0083008,2.2324219-0.0205078,5.6015625,6.3071289,7.265625c9.5151367,0.2089844,10.1748047-1.3867188,11.6157227-4.8544922
			c0.175293-0.421875,0.3603516-0.8662109,0.5693359-1.3320313c0.0166016-0.0380859,0.0361328-0.0742188,0.0585938-0.1083984
			c1.5273438-2.3808594,3.8686523-7.1699219,4.1479492-7.7441406c0.1362305-0.4277344,0.8603516-2.4345703,3.1259766-5.0478516
			c-0.4814453-0.4697266-1.0029297-0.7236328-1.5805664-0.7714844c-1.4160156-0.121582-2.7485352,1.0146484-2.9804688,1.2207031
			c-0.3598633,0.4453125-2.2045898,2.6298828-4.1020508,3.0556641c-0.2480469,0.0566406-0.5522461-0.0185547-0.7495117-0.1777344
			c-0.5439453-0.4423828-0.7583008-1.1220703-0.5869141-13.6523438c0.0185547-1.3364258,0.0336914-2.4570313,0.0336914-3.1499023
			c0-1.4550781-0.9643555-1.8427734-1.5341797-1.8427734c-0.0834961,0-0.8154297,0.0161133-0.8154297,0.5834961
			c0,1.0239258-0.0336914,1.7744141-0.0683594,2.5415039c-0.0351563,0.7788086-0.0712891,1.574707-0.0712891,2.7084961
			c0,2.2548828-0.362793,7.1660156-0.378418,7.3740234c-0.0336914,0.456543-0.4287109,0.7944336-0.8881836,0.7651367
			c-0.456543-0.0336914-0.7993164-0.4316406-0.7651367-0.8881836C14.6616211,31.3256836,15.03125,26.3183594,15.03125,24.125
			c0-1.1650391,0.0371094-1.9829102,0.0732422-2.7832031c0.0332031-0.7446289,0.0664063-1.4731445,0.0664063-2.4667969
			c0-1.2988281,1.0405273-2.2416992,2.4736328-2.2416992c0.8041992,0,1.5961914,0.3183594,2.171875,0.8735352
			c0.465332,0.4487305,1.0205078,1.269043,1.0205078,2.6274414c0,0.6982422-0.015625,1.8266602-0.0336914,3.1723633
			c-0.0449219,3.2817383-0.1318359,9.6445313,0.0595703,11.8837891c1.0322266-0.5849609,2.1030273-1.7587891,2.4633789-2.2143555
			c0.0234375-0.0297852,0.0493164-0.0581055,0.0766602-0.0844727c0.0805664-0.0766602,2.0024414-1.894043,4.2866211-1.7070313
			c1.2446289,0.0996094,2.3286133,0.75,3.2211914,1.9335938c0.2416992,0.3193359,0.2197266,0.7666016-0.0522461,1.0615234
			c-2.6191406,2.8388672-3.2626953,4.9882813-3.269043,5.0097656c-0.0131836,0.0439453-0.0307617,0.0917969-0.0512695,0.1337891
			c-0.1044922,0.2158203-2.5668945,5.2978516-4.2382813,7.9199219c-0.1918945,0.4316406-0.3632813,0.84375-0.5258789,1.2353516
			C21.1474609,52.3916016,19.9111328,54.3701172,11.0288086,54.3701172z"/>
	</g>
	<g>
		<path style="fill:none;stroke:#110700;stroke-width:2;stroke-miterlimit:10;" d="M10.6630859,33.578125
			c-0.1337891,0-0.2700195-0.0322266-0.3959961-0.1015625c-0.3276367-0.1787109-0.4868164-0.5463867-0.4155273-0.894043
			c0.019043-0.1987305,0.0537109-1.0102539,0.0908203-1.8671875c0.1064453-2.4584961,0.2841797-6.5737305,0.5947266-9.7299805
			c0.3198242-3.2363281,0.6425781-4.078125,0.9160156-4.4746094c0.7075195-1.0249023,1.9887695-1.4614258,3.1845703-1.0883789
			c1.059082,0.3300781,2.1914063,1.4106445,2.1914063,3.4526367c0,0.4580078-0.3710938,0.8291016-0.8291016,0.8291016
			S15.1708984,19.3330078,15.1708984,18.875c0-0.9848633-0.3740234-1.6665039-1.0268555-1.8696289
			c-0.4985352-0.15625-1.0336914,0.0234375-1.3261719,0.4472656c-0.0507813,0.081543-0.3305664,0.6582031-0.6303711,3.6953125
			c-0.3066406,3.1108398-0.4829102,7.1972656-0.5883789,9.6386719c-0.0927734,2.1499023-0.0927734,2.1499023-0.2070313,2.3588867
			C11.2412109,33.421875,10.9570313,33.578125,10.6630859,33.578125z"/>
		<path style="fill:none;stroke:#110700;stroke-width:2;stroke-miterlimit:10;" d="M11.0288086,54.3701172
			c-0.4882813,0-0.9995117-0.0058594-1.5356445-0.0175781c-0.0634766-0.0019531-0.1269531-0.0107422-0.1884766-0.0263672
			c-7.668457-1.9785156-7.6518555-6.4824219-7.6430664-8.9013672C1.6635742,45,1.6645508,44.6337891,1.6245117,44.3896484
			C1.0908203,41.1640625,0.359375,36.7451172,1.628418,30.1601563c0.2080078-1.796875,0.4472656-3.5410156,0.6147461-4.4916992
			c0.1982422-1.1225586,1.0087891-1.8876953,2.1147461-1.9975586c0.5664063-0.0551758,1.1210938,0.0683594,1.5639648,0.3178711
			c0.1860352-1.6699219,0.3911133-3.1826172,0.5961914-4.0996094c0.4472656-1.9960938,1.8334961-2.5703125,2.8774414-2.453125
			c1.3554688,0.1499023,2.7958984,1.4731445,2.7958984,3.6303711c0,0.4580078-0.3710938,0.8291016-0.8291016,0.8291016
			s-0.8291016-0.3710938-0.8291016-0.8291016c0-1.1494141-0.6708984-1.9106445-1.3203125-1.9824219
			c-0.7202148-0.0864258-0.9926758,0.7895508-1.0766602,1.1674805c-0.6459961,2.8847656-1.324707,12.4594727-1.331543,12.5556641
			c-0.0317383,0.4467773-0.4199219,0.8139648-0.859375,0.7700195c-0.4477539-0.0175781-0.800293-0.3867188-0.796875-0.8344727
			c0.0087891-1.0791016,0.0717773-2.1313477,0.1328125-3.1494141c0.1044922-1.7426758,0.2036133-3.3891602-0.0756836-4.1040039
			c-0.0522461-0.0683594-0.4101563-0.2382813-0.7978516-0.1499023c-0.300293,0.0673828-0.4692383,0.2636719-0.5317383,0.6171875
			c-0.1625977,0.9213867-0.3964844,2.6289063-0.6103516,4.456543C2.0439453,36.7675781,2.7182617,40.84375,3.2602539,44.1191406
			c0.0629883,0.3818359,0.0615234,0.8125,0.0595703,1.3115234c-0.0083008,2.2324219-0.0205078,5.6015625,6.3071289,7.265625
			c9.5151367,0.2089844,10.1748047-1.3867188,11.6157227-4.8544922c0.175293-0.421875,0.3603516-0.8662109,0.5693359-1.3320313
			c0.0166016-0.0380859,0.0361328-0.0742188,0.0585938-0.1083984c1.5273438-2.3808594,3.8686523-7.1699219,4.1479492-7.7441406
			c0.1362305-0.4277344,0.8603516-2.4345703,3.1259766-5.0478516c-0.4814453-0.4697266-1.0029297-0.7236328-1.5805664-0.7714844
			c-1.4160156-0.121582-2.7485352,1.0146484-2.9804688,1.2207031c-0.3598633,0.4453125-2.2045898,2.6298828-4.1020508,3.0556641
			c-0.2480469,0.0566406-0.5522461-0.0185547-0.7495117-0.1777344c-0.5439453-0.4423828-0.7583008-1.1220703-0.5869141-13.6523438
			c0.0185547-1.3364258,0.0336914-2.4570313,0.0336914-3.1499023c0-1.4550781-0.9643555-1.8427734-1.5341797-1.8427734
			c-0.0834961,0-0.8154297,0.0161133-0.8154297,0.5834961c0,1.0239258-0.0336914,1.7744141-0.0683594,2.5415039
			c-0.0351563,0.7788086-0.0712891,1.574707-0.0712891,2.7084961c0,2.2548828-0.362793,7.1660156-0.378418,7.3740234
			c-0.0336914,0.456543-0.4287109,0.7944336-0.8881836,0.7651367c-0.456543-0.0336914-0.7993164-0.4316406-0.7651367-0.8881836
			C14.6616211,31.3256836,15.03125,26.3183594,15.03125,24.125c0-1.1650391,0.0371094-1.9829102,0.0732422-2.7832031
			c0.0332031-0.7446289,0.0664063-1.4731445,0.0664063-2.4667969c0-1.2988281,1.0405273-2.2416992,2.4736328-2.2416992
			c0.8041992,0,1.5961914,0.3183594,2.171875,0.8735352c0.465332,0.4487305,1.0205078,1.269043,1.0205078,2.6274414
			c0,0.6982422-0.015625,1.8266602-0.0336914,3.1723633c-0.0449219,3.2817383-0.1318359,9.6445313,0.0595703,11.8837891
			c1.0322266-0.5849609,2.1030273-1.7587891,2.4633789-2.2143555c0.0234375-0.0297852,0.0493164-0.0581055,0.0766602-0.0844727
			c0.0805664-0.0766602,2.0024414-1.894043,4.2866211-1.7070313c1.2446289,0.0996094,2.3286133,0.75,3.2211914,1.9335938
			c0.2416992,0.3193359,0.2197266,0.7666016-0.0522461,1.0615234c-2.6191406,2.8388672-3.2626953,4.9882813-3.269043,5.0097656
			c-0.0131836,0.0439453-0.0307617,0.0917969-0.0512695,0.1337891c-0.1044922,0.2158203-2.5668945,5.2978516-4.2382813,7.9199219
			c-0.1918945,0.4316406-0.3632813,0.84375-0.5258789,1.2353516C21.1474609,52.3916016,19.9111328,54.3701172,11.0288086,54.3701172
			z"/>
	</g>
</g>
<g>
	<g>
		
			<linearGradient id="SVGID_1_" gradientUnits="userSpaceOnUse" x1="-20.5351563" y1="-9.609375" x2="-7.834929" y2="0.6081132" gradientTransform="matrix(-0.6974 0.7167 0.7167 0.6974 28.071106 22.2292328)">
			<stop  offset="0" style="stop-color:#FFA117"/>
			<stop  offset="0.1345448" style="stop-color:#FFA31B;stop-opacity:0.8654552"/>
			<stop  offset="0.2664427" style="stop-color:#FFA727;stop-opacity:0.7335573"/>
			<stop  offset="0.3973633" style="stop-color:#FFAF3A;stop-opacity:0.6026367"/>
			<stop  offset="0.5276699" style="stop-color:#FFBB56;stop-opacity:0.4723301"/>
			<stop  offset="0.6576088" style="stop-color:#FFC97A;stop-opacity:0.3423912"/>
			<stop  offset="0.7872576" style="stop-color:#FFDBA6;stop-opacity:0.2127424"/>
			<stop  offset="0.9142619" style="stop-color:#FFEFD8;stop-opacity:0.0857381"/>
			<stop  offset="1" style="stop-color:#FFFFFF;stop-opacity:0"/>
		</linearGradient>
		<polygon style="fill:url(#SVGID_1_);" points="37.2373047,2.6386719 33.4775391,2.1049805 33.8730469,16.4165039 		"/>
		
			<linearGradient id="SVGID_2_" gradientUnits="userSpaceOnUse" x1="-17.4482422" y1="-18.6494141" x2="-4.7480149" y2="-8.4319258" gradientTransform="matrix(-0.7257 0.4653 0.4772 0.7539 38.159729 25.0386162)">
			<stop  offset="0" style="stop-color:#FFA117"/>
			<stop  offset="0.1345448" style="stop-color:#FFA31B;stop-opacity:0.8654552"/>
			<stop  offset="0.2664427" style="stop-color:#FFA727;stop-opacity:0.7335573"/>
			<stop  offset="0.3973633" style="stop-color:#FFAF3A;stop-opacity:0.6026367"/>
			<stop  offset="0.5276699" style="stop-color:#FFBB56;stop-opacity:0.4723301"/>
			<stop  offset="0.6576088" style="stop-color:#FFC97A;stop-opacity:0.3423912"/>
			<stop  offset="0.7872576" style="stop-color:#FFDBA6;stop-opacity:0.2127424"/>
			<stop  offset="0.9142619" style="stop-color:#FFEFD8;stop-opacity:0.0857381"/>
			<stop  offset="1" style="stop-color:#FFFFFF;stop-opacity:0"/>
		</linearGradient>
		<polygon style="fill:url(#SVGID_2_);" points="43.0488281,4.8056641 39.9599609,3.5356445 37.6142578,15.9179688 		"/>
		
			<linearGradient id="SVGID_3_" gradientUnits="userSpaceOnUse" x1="-4.8613281" y1="-18.7407227" x2="7.8388991" y2="-8.5232344" gradientTransform="matrix(-0.8461 0.1651 0.1657 0.8767 46.7532501 24.6192589)">
			<stop  offset="0" style="stop-color:#FFA117"/>
			<stop  offset="0.1345448" style="stop-color:#FFA31B;stop-opacity:0.8654552"/>
			<stop  offset="0.2664427" style="stop-color:#FFA727;stop-opacity:0.7335573"/>
			<stop  offset="0.3973633" style="stop-color:#FFAF3A;stop-opacity:0.6026367"/>
			<stop  offset="0.5276699" style="stop-color:#FFBB56;stop-opacity:0.4723301"/>
			<stop  offset="0.6576088" style="stop-color:#FFC97A;stop-opacity:0.3423912"/>
			<stop  offset="0.7872576" style="stop-color:#FFDBA6;stop-opacity:0.2127424"/>
			<stop  offset="0.9142619" style="stop-color:#FFEFD8;stop-opacity:0.0857381"/>
			<stop  offset="1" style="stop-color:#FFFFFF;stop-opacity:0"/>
		</linearGradient>
		<polygon style="fill:url(#SVGID_3_);" points="48.0917969,9.6088867 45.6875,7.2900391 38.9423828,17.9360352 		"/>
	</g>
	<g>
		
			<linearGradient id="SVGID_4_" gradientUnits="userSpaceOnUse" x1="-38.2104492" y1="8.5566406" x2="-25.5110931" y2="18.7734261" gradientTransform="matrix(0.6974 0.7167 -0.7167 0.6974 61.2745972 22.2292328)">
			<stop  offset="0" style="stop-color:#FFA117"/>
			<stop  offset="0.1345448" style="stop-color:#FFA31B;stop-opacity:0.8654552"/>
			<stop  offset="0.2664427" style="stop-color:#FFA727;stop-opacity:0.7335573"/>
			<stop  offset="0.3973633" style="stop-color:#FFAF3A;stop-opacity:0.6026367"/>
			<stop  offset="0.5276699" style="stop-color:#FFBB56;stop-opacity:0.4723301"/>
			<stop  offset="0.6576088" style="stop-color:#FFC97A;stop-opacity:0.3423912"/>
			<stop  offset="0.7872576" style="stop-color:#FFDBA6;stop-opacity:0.2127424"/>
			<stop  offset="0.9142619" style="stop-color:#FFEFD8;stop-opacity:0.0857381"/>
			<stop  offset="1" style="stop-color:#FFFFFF;stop-opacity:0"/>
		</linearGradient>
		<polygon style="fill:url(#SVGID_4_);" points="26.762207,2.6386719 30.5219727,2.1049805 30.1259766,16.4165039 		"/>
		
			<linearGradient id="SVGID_5_" gradientUnits="userSpaceOnUse" x1="-42.2915039" y1="-3.3164063" x2="-29.5912762" y2="6.901082" gradientTransform="matrix(0.7257 0.4653 -0.4772 0.7539 51.1859741 25.0386162)">
			<stop  offset="0" style="stop-color:#FFA117"/>
			<stop  offset="0.1345448" style="stop-color:#FFA31B;stop-opacity:0.8654552"/>
			<stop  offset="0.2664427" style="stop-color:#FFA727;stop-opacity:0.7335573"/>
			<stop  offset="0.3973633" style="stop-color:#FFAF3A;stop-opacity:0.6026367"/>
			<stop  offset="0.5276699" style="stop-color:#FFBB56;stop-opacity:0.4723301"/>
			<stop  offset="0.6576088" style="stop-color:#FFC97A;stop-opacity:0.3423912"/>
			<stop  offset="0.7872576" style="stop-color:#FFDBA6;stop-opacity:0.2127424"/>
			<stop  offset="0.9142619" style="stop-color:#FFEFD8;stop-opacity:0.0857381"/>
			<stop  offset="1" style="stop-color:#FFFFFF;stop-opacity:0"/>
		</linearGradient>
		<polygon style="fill:url(#SVGID_5_);" points="20.9511719,4.8056641 24.0400391,3.5356445 26.3857422,15.9179688 		"/>
		
			<linearGradient id="SVGID_6_" gradientUnits="userSpaceOnUse" x1="-33.7524414" y1="-13.3007813" x2="-21.0522137" y2="-3.0832932" gradientTransform="matrix(0.8461 0.1651 -0.1657 0.8767 42.592453 24.6192589)">
			<stop  offset="0" style="stop-color:#FFA117"/>
			<stop  offset="0.1345448" style="stop-color:#FFA31B;stop-opacity:0.8654552"/>
			<stop  offset="0.2664427" style="stop-color:#FFA727;stop-opacity:0.7335573"/>
			<stop  offset="0.3973633" style="stop-color:#FFAF3A;stop-opacity:0.6026367"/>
			<stop  offset="0.5276699" style="stop-color:#FFBB56;stop-opacity:0.4723301"/>
			<stop  offset="0.6576088" style="stop-color:#FFC97A;stop-opacity:0.3423912"/>
			<stop  offset="0.7872576" style="stop-color:#FFDBA6;stop-opacity:0.2127424"/>
			<stop  offset="0.9142619" style="stop-color:#FFEFD8;stop-opacity:0.0857381"/>
			<stop  offset="1" style="stop-color:#FFFFFF;stop-opacity:0"/>
		</linearGradient>
		<polygon style="fill:url(#SVGID_6_);" points="15.9082031,9.6088867 18.3115234,7.2900391 25.0571289,17.9360352 		"/>
	</g>
</g>
</svg>
