<?xml version="1.0" encoding="utf-8"?>
<!-- Generator: Adobe Illustrator 15.0.0, SVG Export Plug-In . SVG Version: 6.00 Build 0)  -->
<!DOCTYPE svg PUBLIC "-//W3C//DTD SVG 1.1//EN" "http://www.w3.org/Graphics/SVG/1.1/DTD/svg11.dtd">
<svg version="1.1" id="レイヤー_1" xmlns="http://www.w3.org/2000/svg" xmlns:xlink="http://www.w3.org/1999/xlink" x="0px"
	 y="0px" width="64px" height="64px" viewBox="0 0 64 64" style="enable-background:new 0 0 64 64;" xml:space="preserve">
<g>
	<path style="fill:#FFE5D8;" d="M37.9804688,60.4345703c-15.4067383,0-15.0097656-8.0361328-16.3994141-10.5976563
		c-2.4272461-4.4746094-2.5522461-8.8496094-3.5073242-9.8046875c-0.9555664-0.9550781-6.8369141-8.5605469-8.3891602-8.8969727
		c-1.5517578-0.3369141,3.2236328-6.0678711,8.5966797-3.0830078c5.3725586,2.9848633,6.2924805,6.3549805,6.2924805,6.3549805
		s1.0092773-6.4370117,1.125-7.875c0.246582-3.0673828,1.0595703-15.9116211,0.8208008-18.0605469
		s5.4921875-4.1108398,7.5214844,3.3769531c0,0-1.1855469-8.515625,2.1572266-8.2768555s4.375,0.8354492,5.5556641,7.8681641
		c0,0-0.3105469-5.1171875,3.2714844-3.2070313s2.9111328,6.5786133,2.7685547,10.7421875
		c0,0,0.4550781-2.3847656,2.484375-2.2651367c2.0302734,0.1191406,3.3369141,2.8618164,3.3017578,9.5517578
		c-0.0361328,6.6894531,1.2714844,9.5966797,0.9931641,14.5205078
		C54.1982422,47.4072266,53.4482422,60.4345703,37.9804688,60.4345703z"/>
	<g>
		<path style="fill:#ECBAAA;" d="M25.21875,33.7822266c0,0,0.8886719,6.5009766-0.800293,7
			c-0.921875,0.2724609-0.7197266-0.875-1.8447266-3.375s-1.75-7.25-1.75-7.25L25.21875,33.7822266z"/>
		<path style="fill:#ECBAAA;" d="M41.5859375,23.9072266c0,0-2.5126953,7.375-3.0126953,8.75
			s0.5117188,5.078125,1.5058594,3.4140625S42.0986328,29.0322266,41.5859375,23.9072266z"/>
		<path style="fill:#ECBAAA;" d="M48.3232422,27.7539063c0,0-2.40625,5.7783203-2.015625,7.2783203s1.34375,4,1.8046875,2.375
			S48.3232422,27.7539063,48.3232422,27.7539063z"/>
		<path style="fill:#ECBAAA;" d="M54.109375,45.9121094c0,0-8.9248047,13.4052734-16.9179688,14.5126953
			C37.1914063,60.4248047,51.1455078,62.7919922,54.109375,45.9121094z"/>
		<path style="fill:#ECBAAA;" d="M33.0732422,34.9072266c0,0-0.8969727-1.875-1.0732422-4s2.1982422-9.5087891,1.9404297-6.1298828
			S34.5732422,34.0322266,33.0732422,34.9072266z"/>
	</g>
	<path style="fill:#BB806F;" d="M37.9804688,61.234375c-13.5039063,0-15.4882813-6.2070313-16.5541992-9.5419922
		c-0.1933594-0.6044922-0.3598633-1.1269531-0.5483398-1.4736328c-1.4433594-2.6611328-2.0952148-5.2695313-2.5712891-7.1748047
		c-0.2573242-1.0292969-0.5493164-2.1962891-0.7988281-2.4462891c-0.2758789-0.2753906-0.8510742-0.9667969-1.6474609-1.9228516
		c-1.4726563-1.7685547-5.3833008-6.465332-6.3530273-6.7597656c-0.6118164-0.1323242-0.980957-0.6611328-0.9111328-1.3134766
		c0.1586914-1.4780273,2.9458008-4.2075195,6.5-4.2075195c1.2255859,0,2.4282227,0.3222656,3.5737305,0.9589844
		c2.8491211,1.5830078,4.5161133,3.2866211,5.472168,4.5986328c0.3007813-1.9838867,0.6914063-4.6420898,0.7592773-5.4833984
		c0.2529297-3.1450195,1.0507813-15.8608398,0.8232422-17.9082031c-0.0668945-0.6000977,0.1435547-1.2070313,0.5927734-1.7089844
		c0.6303711-0.7041016,1.6542969-1.1245117,2.7392578-1.1245117c0.6748047,0,2.4633789,0.2045898,3.9931641,2.1538086
		c0.0703125-1.6225586,0.3681641-3.3208008,1.1982422-4.2739258c0.5205078-0.5976563,1.2001953-0.894043,2.0068359-0.8325195
		c3.1337891,0.2236328,4.5273438,0.9838867,5.5839844,5.0751953c0.0371094-0.0463867,0.0761719-0.0913086,0.1171875-0.1347656
		c0.8085938-0.859375,2.0185547-0.9482422,3.4453125-0.1875c3.2128906,1.7133789,3.4287109,5.2978516,3.3095703,8.75
		c0.4394531-0.2548828,0.9755859-0.3989258,1.6142578-0.3657227c2.7646484,0.1625977,4.0908203,3.5493164,4.0546875,10.3549805
		c-0.0175781,3.2817383,0.2988281,5.6806641,0.578125,7.7973633c0.2871094,2.1708984,0.5576172,4.2207031,0.4140625,6.7636719
		C54.9970703,47.4511719,54.2167969,61.234375,37.9804688,61.234375z M10.2851563,30.5166016
		c1.2641602,0.6508789,3.3681641,3.0068359,6.8046875,7.1337891c0.7109375,0.8544922,1.324707,1.5917969,1.5493164,1.8164063
		c0.5629883,0.5625,0.8242188,1.6074219,1.2197266,3.1894531c0.4550781,1.8212891,1.0786133,4.3164063,2.425293,6.7988281
		c0.2602539,0.4804688,0.4482422,1.0683594,0.6660156,1.75c1.0078125,3.1523438,2.6948242,8.4296875,15.0302734,8.4296875
		c14.7246094,0,15.4199219-12.2929688,15.7939453-18.8974609c0.1357422-2.3925781-0.1132813-4.2802734-0.4023438-6.4648438
		c-0.2861328-2.1669922-0.6103516-4.6240234-0.5917969-8.0151367c0.0283203-5.4633789-0.9003906-8.6518555-2.5488281-8.7485352
		c-0.0009766,0-0.0029297,0-0.0039063,0c-1.3076172,0-1.6347656,1.5541992-1.6484375,1.6201172
		c-0.0830078,0.4086914-0.4755859,0.6811523-0.8779297,0.6386719c-0.4130859-0.0483398-0.7207031-0.4038086-0.7070313-0.8198242
		c0.015625-0.4575195,0.0380859-0.9208984,0.0595703-1.3862305c0.1748047-3.6816406,0.3398438-7.1591797-2.4042969-8.6225586
		C43.9335938,8.5571289,43.4375,8.4760742,43.1220703,8.8100586c-0.4931641,0.5224609-0.6113281,1.8613281-0.5693359,2.5825195
		c0.0244141,0.4243164-0.2871094,0.7944336-0.7099609,0.8417969c-0.4169922,0.0429688-0.8076172-0.2426758-0.8779297-0.6621094
		c-1.1650391-6.9414063-2.0869141-7.0068359-4.8232422-7.2026367c-0.0058594,0-0.0107422,0-0.015625,0
		c-0.3154297,0-0.4990234,0.0898438-0.6708984,0.2871094c-1.0078125,1.1567383-0.9160156,4.9580078-0.6220703,7.0820313
		c0.0585938,0.4179688-0.21875,0.809082-0.6318359,0.8935547c-0.4101563,0.0839844-0.8212891-0.1665039-0.9326172-0.5742188
		c-0.8027344-2.9628906-2.3774414-4.7314453-4.2119141-4.7314453c-0.75,0-1.2910156,0.3056641-1.546875,0.5913086
		c-0.0820313,0.0917969-0.2163086,0.2739258-0.1953125,0.465332c0.2543945,2.2871094-0.5820313,15.2758789-0.8183594,18.2128906
		c-0.1166992,1.4516602-1.0908203,7.6713867-1.1318359,7.9350586c-0.0585938,0.3730469-0.3696289,0.6542969-0.7460938,0.6748047
		c-0.3789063,0.0273438-0.7167969-0.2236328-0.8164063-0.5878906c-0.0073242-0.0253906-0.949707-3.1113281-5.9091797-5.8666992
		c-0.9047852-0.5029297-1.8457031-0.7578125-2.7963867-0.7578125
		C12.5698242,27.9936523,10.7236328,29.7216797,10.2851563,30.5166016z"/>
	<path style="fill:#BB806F;" d="M24.5244141,38.2070313c-0.019043,0-0.0375977,0-0.0566406-0.0019531
		c-0.4404297-0.0302734-0.7729492-0.4121094-0.7421875-0.8535156c0.0126953-0.1845703,0.3188477-4.5629883,0.7006836-7.3046875
		c0.0605469-0.4379883,0.4589844-0.7431641,0.902832-0.6821289c0.4375,0.0610352,0.7431641,0.465332,0.6821289,0.902832
		c-0.3740234,2.6870117-0.6865234,7.1503906-0.6899414,7.1953125C25.2919922,37.8847656,24.940918,38.2070313,24.5244141,38.2070313
		z"/>
	<path style="fill:#BB806F;" d="M33.5732422,30.9570313c-0.4414063,0-0.7998047-0.3579102-0.7998047-0.7998047
		c0-0.6625977,0.105957-2.015625,0.2182617-3.4482422c0.1245117-1.5878906,0.2661133-3.3881836,0.2495117-4.159668
		c-0.0322266-1.4926758-0.0019531-10.328125,0-10.7036133c0.0009766-0.440918,0.359375-0.796875,0.7998047-0.796875
		c0.0009766,0,0.0019531,0,0.0029297,0c0.4414063,0.0014648,0.7988281,0.3608398,0.796875,0.8027344
		c0,0.0917969-0.03125,9.1904297,0,10.6635742c0.0185547,0.8515625-0.1201172,2.6142578-0.2539063,4.3193359
		c-0.109375,1.4003906-0.2138672,2.7231445-0.2138672,3.3227539C34.3730469,30.5991211,34.0146484,30.9570313,33.5732422,30.9570313
		z"/>
	<path style="fill:#BB806F;" d="M41.5869141,32.3325195c-0.0332031,0-0.0664063-0.0024414-0.1005859-0.0063477
		c-0.4384766-0.0546875-0.7490234-0.4545898-0.6943359-0.8930664c0.2460938-1.965332,0.2285156-7.5161133,0.0712891-9.0703125
		c-0.1669922-1.652832-0.0107422-11.0834961-0.0039063-11.484375c0.0068359-0.4370117,0.3642578-0.7861328,0.7998047-0.7861328
		c0.0039063,0,0.0087891,0,0.0136719,0c0.4414063,0.0073242,0.7939453,0.371582,0.7861328,0.8134766
		c-0.0566406,3.3613281-0.1298828,10.0478516-0.0039063,11.2958984c0.1669922,1.6557617,0.1865234,7.3374023-0.0751953,9.4296875
		C42.3291016,32.0361328,41.984375,32.3325195,41.5869141,32.3325195z"/>
	<path style="fill:#BB806F;" d="M48.4033203,34.5820313c-0.0068359,0-0.0146484,0-0.0214844,0
		c-0.4423828-0.0126953-0.7900391-0.3798828-0.7783203-0.8212891c0.0009766-0.0361328,0.0966797-3.6132813-0.078125-5.9472656
		c-0.1240234-1.6577148-0.5136719-8.5024414-0.5302734-8.7929688c-0.0253906-0.440918,0.3125-0.8188477,0.7529297-0.8442383
		c0.4384766-0.0302734,0.8193359,0.3120117,0.8447266,0.753418c0.0039063,0.0708008,0.4052734,7.1206055,0.5283203,8.7646484
		c0.1806641,2.4160156,0.0859375,5.9599609,0.0820313,6.109375C49.1914063,34.2382813,48.8349609,34.5820313,48.4033203,34.5820313z
		"/>
</g>
</svg>
