<?xml version="1.0" encoding="utf-8"?>
<!-- Generator: Adobe Illustrator 15.0.0, SVG Export Plug-In . SVG Version: 6.00 Build 0)  -->
<!DOCTYPE svg PUBLIC "-//W3C//DTD SVG 1.1//EN" "http://www.w3.org/Graphics/SVG/1.1/DTD/svg11.dtd">
<svg version="1.1" id="レイヤー_1" xmlns="http://www.w3.org/2000/svg" xmlns:xlink="http://www.w3.org/1999/xlink" x="0px"
	 y="0px" width="64px" height="64px" viewBox="0 0 64 64" style="enable-background:new 0 0 64 64;" xml:space="preserve">
<g>
	<path d="M26.46875,38.234375l3.0546875-0.3710938c0.097168,0.7792969,0.359375,1.375,0.7861328,1.7851563
		c0.4267578,0.4121094,0.9438477,0.6191406,1.5493164,0.6191406c0.6523438,0,1.199707-0.2480469,1.6450195-0.7421875
		s0.6699219-1.1601563,0.6699219-1.9980469c0-0.7949219-0.2148438-1.4238281-0.640625-1.8867188
		c-0.4277344-0.4648438-0.9477539-0.6972656-1.5610352-0.6972656c-0.4042969,0-0.8876953,0.078125-1.4492188,0.2363281
		l0.3481445-2.5717773c0.8530273,0.0224609,1.5053711-0.1630859,1.9545898-0.5556641
		C33.2753906,31.6586914,33.5,31.1367188,33.5,30.4853516c0-0.5541992-0.1660156-0.9956055-0.4941406-1.3251953
		c-0.3305664-0.3295898-0.7680664-0.4941406-1.3149414-0.4941406c-0.5390625,0-0.9995117,0.1870117-1.3813477,0.5615234
		s-0.6137695,0.9208984-0.6962891,1.6396484l-2.9086914-0.4941406c0.2021484-0.9956055,0.5073242-1.7915039,0.9150391-2.3862305
		c0.4082031-0.5957031,0.9775391-1.0634766,1.7070313-1.4042969c0.7304688-0.340332,1.5483398-0.5107422,2.4541016-0.5107422
		c1.5493164,0,2.793457,0.4941406,3.7290039,1.4824219c0.7714844,0.8085938,1.15625,1.722168,1.15625,2.7402344
		c0,1.4448242-0.7890625,2.5981445-2.3691406,3.4594727c0.9433594,0.2011719,1.6972656,0.6542969,2.2617188,1.3574219
		c0.5664063,0.7050781,0.8496094,1.5546875,0.8496094,2.5507813c0,1.4453125-0.5292969,2.6757813-1.5839844,3.6933594
		c-1.0566406,1.0195313-2.3691406,1.5273438-3.9418945,1.5273438c-1.4902344,0-2.7255859-0.4277344-3.706543-1.2851563
		S26.6259766,39.6191406,26.46875,38.234375z"/>
</g>
<g>
	<path style="fill-rule:evenodd;clip-rule:evenodd;" d="M46.3818359,16.1743164
		c1.4570313-0.7929688,2.7480469-1.7519531,4.2753906-2.4750977c0.2080078,0.3925781,0.4394531,0.7602539,0.6738281,1.1259766
		c-1.2421875,2.9570313-2.9355469,5.4628906-4.3867188,8.2114258c-3.1982422-0.0859375-6.0527344,0.171875-9.2246094,0.112793
		c-0.2089844-0.3916016-0.4404297-0.7592773-0.6748047-1.125c1.1015625-1.1855469,2.7802734-1.7944336,4.1621094-2.699707
		c-1.8115234-2.4326172-3.0488281-5.890625-4.9501953-8.3251953c-2.1474609-2.7504883-6.543457-2.5546875-8.5488281,0.2255859
		c-0.815918,1.1303711-1.4682617,2.6552734-2.2504883,4.0498047c-2.1025391,3.7490234-4.6367188,8.3891602-6.6367188,12.0371094
		c-1.8203125-0.8798828-3.4213867-1.9790039-5.2875977-2.8125c1.4750977-3.0761719,3.3710938-6.1914063,5.1748047-9.449707
		c2.9750977-5.3754883,4.90625-11.2900391,12.3740234-12.0375977C40.5585938,2.0649414,42.5517578,10.515625,46.3818359,16.1743164z
		"/>
	<path style="fill-rule:evenodd;clip-rule:evenodd;" d="M50.5449219,23.824707
		c0.0898438,0.0209961,0.1113281,0.112793,0.2246094,0.112793c1.7734375,3.1279297,3.6767578,6.472168,5.7373047,10.0117188
		c1.9335938,3.3212891,4.5771484,6.4238281,4.6123047,11.0253906c0.0429688,5.640625-4.2373047,10.7490234-9.5625,11.25
		c-3.3359375,0.3134766-6.7128906-0.2294922-10.6865234,0c-0.2626953,1.3876953-0.0380859,3.2617188-0.1132813,4.8369141
		c-0.4873047,0-0.9746094,0-1.4628906,0c-1.796875-2.3642578-3.0263672-5.2978516-4.7246094-7.7617188
		c1.5595703-2.7167969,2.9960938-5.5546875,4.7246094-8.0996094c0.4882813,0,0.9755859,0,1.4628906,0
		c0,1.6494141,0,3.2998047,0,4.9492188c6.3027344-0.1806641,12.3847656,1.1884766,14.0625-3.2626953
		c1.1328125-3.0058594-1-5.3642578-2.25-7.5371094c-2.2861328-3.9726563-5.0214844-8.8095703-7.0869141-12.6000977
		C47.1865234,25.7919922,48.8818359,24.824707,50.5449219,23.824707z"/>
	<path style="fill-rule:evenodd;clip-rule:evenodd;" d="M5.6582031,27.6494141c3.0371094,0,6.074707,0,9.1118164,0
		c1.5415039,2.6958008,3.2250977,5.2504883,4.612793,8.1005859c-0.3120117,0.2880859-0.5327148,0.6669922-0.6748047,1.125
		c-1.5717773-0.6416016-2.8295898-1.5966797-4.2753906-2.3632813c-0.9111328,1.2470703-1.8349609,2.7363281-2.699707,4.2753906
		c-1.0112305,1.7998047-2.5849609,3.6318359-2.7001953,5.8505859c-0.1464844,2.8330078,1.7827148,5.1523438,4.3876953,5.5117188
		c2.6044922,0.359375,6.1176758,0,9.449707,0c3.3105469,0,6.6064453,0,9.3374023,0c0,2.0244141,0,4.0498047,0,6.0751953
		c-6.2939453-0.1933594-12.6318359,0.2617188-17.887207,0c-6.7832031-0.3388672-12.1542969-5.2021484-11.3623047-12.9375
		c0.2749023-2.6796875,2.0219727-4.9316406,3.262207-7.0878906c0.9262695-1.6074219,1.9848633-3.1357422,2.8125-4.7250977
		c-1.2949219-0.9174805-2.7895508-1.6352539-4.1625977-2.4746094C5.0683594,28.4848633,5.3017578,28.0058594,5.6582031,27.6494141z"
		/>
</g>
</svg>
