<?xml version="1.0" encoding="utf-8"?>
<!-- Generator: Adobe Illustrator 15.0.0, SVG Export Plug-In . SVG Version: 6.00 Build 0)  -->
<!DOCTYPE svg PUBLIC "-//W3C//DTD SVG 1.1//EN" "http://www.w3.org/Graphics/SVG/1.1/DTD/svg11.dtd">
<svg version="1.1" id="レイヤー_1" xmlns="http://www.w3.org/2000/svg" xmlns:xlink="http://www.w3.org/1999/xlink" x="0px"
	 y="0px" width="64px" height="64px" viewBox="0 0 64 64" style="enable-background:new 0 0 64 64;" xml:space="preserve">
<g>
	<path d="M37.2734375,30.1708984L34.21875,30.5078125c-0.0761719-0.6289063-0.2695313-1.0932617-0.5839844-1.3925781
		s-0.7231445-0.4492188-1.2250977-0.4492188c-0.6660156,0-1.2294922,0.2993164-1.6904297,0.8984375
		c-0.4599609,0.5991211-0.7504883,1.8457031-0.8701172,3.7402344c0.7861328-0.9287109,1.7636719-1.3930664,2.9316406-1.3930664
		c1.3168945,0,2.4458008,0.5014648,3.3852539,1.5043945c0.9394531,1.0039063,1.4101563,2.2988281,1.4101563,3.8867188
		c0,1.6835938-0.4941406,3.0351563-1.4824219,4.0527344c-0.9882813,1.0195313-2.2578125,1.5273438-3.8071289,1.5273438
		c-1.6625977,0-3.0288086-0.6445313-4.0996094-1.9355469c-1.0708008-1.2929688-1.605957-3.4101563-1.605957-6.3515625
		c0-3.0170898,0.5576172-5.1923828,1.6733398-6.5249023s2.5644531-1.9990234,4.3466797-1.9990234
		c1.2504883,0,2.2856445,0.3500977,3.1040039,1.0498047C36.5253906,27.8217773,37.0488281,28.8383789,37.2734375,30.1708984z
		 M30.1186523,37.0546875c0,1.0253906,0.2358398,1.8183594,0.7075195,2.375
		c0.472168,0.5585938,1.0112305,0.8378906,1.6166992,0.8378906c0.5844727,0,1.0708008-0.2285156,1.4614258-0.6855469
		c0.3886719-0.4570313,0.5839844-1.2050781,0.5839844-2.2460938c0-1.0703125-0.2109375-1.8554688-0.6289063-2.3535156
		c-0.4199219-0.4980469-0.9438477-0.7460938-1.5727539-0.7460938c-0.6074219,0-1.1201172,0.2382813-1.5390625,0.7128906
		C30.328125,35.4257813,30.1186523,36.1269531,30.1186523,37.0546875z"/>
</g>
<g>
	<path style="fill-rule:evenodd;clip-rule:evenodd;" d="M46.3818359,16.1743164
		c1.4570313-0.7929688,2.7480469-1.7519531,4.2753906-2.4750977c0.2080078,0.3925781,0.4394531,0.7602539,0.6738281,1.1259766
		c-1.2421875,2.9570313-2.9355469,5.4628906-4.3867188,8.2114258c-3.1982422-0.0859375-6.0527344,0.171875-9.2246094,0.112793
		c-0.2089844-0.3916016-0.4404297-0.7592773-0.6748047-1.125c1.1015625-1.1855469,2.7802734-1.7944336,4.1621094-2.699707
		c-1.8115234-2.4326172-3.0488281-5.890625-4.9501953-8.3251953c-2.1474609-2.7504883-6.543457-2.5546875-8.5488281,0.2255859
		c-0.815918,1.1303711-1.4682617,2.6552734-2.2504883,4.0498047c-2.1025391,3.7490234-4.6367188,8.3891602-6.6367188,12.0371094
		c-1.8203125-0.8798828-3.4213867-1.9790039-5.2875977-2.8125c1.4750977-3.0761719,3.3710938-6.1914063,5.1748047-9.449707
		c2.9750977-5.3754883,4.90625-11.2900391,12.3740234-12.0375977C40.5585938,2.0649414,42.5517578,10.515625,46.3818359,16.1743164z
		"/>
	<path style="fill-rule:evenodd;clip-rule:evenodd;" d="M50.5449219,23.824707
		c0.0898438,0.0209961,0.1113281,0.112793,0.2246094,0.112793c1.7734375,3.1279297,3.6767578,6.472168,5.7373047,10.0117188
		c1.9335938,3.3212891,4.5771484,6.4238281,4.6123047,11.0253906c0.0429688,5.640625-4.2373047,10.7490234-9.5625,11.25
		c-3.3359375,0.3134766-6.7128906-0.2294922-10.6865234,0c-0.2626953,1.3876953-0.0380859,3.2617188-0.1132813,4.8369141
		c-0.4873047,0-0.9746094,0-1.4628906,0c-1.796875-2.3642578-3.0263672-5.2978516-4.7246094-7.7617188
		c1.5595703-2.7167969,2.9960938-5.5546875,4.7246094-8.0996094c0.4882813,0,0.9755859,0,1.4628906,0
		c0,1.6494141,0,3.2998047,0,4.9492188c6.3027344-0.1806641,12.3847656,1.1884766,14.0625-3.2626953
		c1.1328125-3.0058594-1-5.3642578-2.25-7.5371094c-2.2861328-3.9726563-5.0214844-8.8095703-7.0869141-12.6000977
		C47.1865234,25.7919922,48.8818359,24.824707,50.5449219,23.824707z"/>
	<path style="fill-rule:evenodd;clip-rule:evenodd;" d="M5.6582031,27.6494141c3.0371094,0,6.074707,0,9.1118164,0
		c1.5415039,2.6958008,3.2250977,5.2504883,4.612793,8.1005859c-0.3120117,0.2880859-0.5327148,0.6669922-0.6748047,1.125
		c-1.5717773-0.6416016-2.8295898-1.5966797-4.2753906-2.3632813c-0.9111328,1.2470703-1.8349609,2.7363281-2.699707,4.2753906
		c-1.0112305,1.7998047-2.5849609,3.6318359-2.7001953,5.8505859c-0.1464844,2.8330078,1.7827148,5.1523438,4.3876953,5.5117188
		c2.6044922,0.359375,6.1176758,0,9.449707,0c3.3105469,0,6.6064453,0,9.3374023,0c0,2.0244141,0,4.0498047,0,6.0751953
		c-6.2939453-0.1933594-12.6318359,0.2617188-17.887207,0c-6.7832031-0.3388672-12.1542969-5.2021484-11.3623047-12.9375
		c0.2749023-2.6796875,2.0219727-4.9316406,3.262207-7.0878906c0.9262695-1.6074219,1.9848633-3.1357422,2.8125-4.7250977
		c-1.2949219-0.9174805-2.7895508-1.6352539-4.1625977-2.4746094C5.0683594,28.4848633,5.3017578,28.0058594,5.6582031,27.6494141z"
		/>
</g>
</svg>
