<?xml version="1.0" encoding="utf-8"?>
<!-- Generator: Adobe Illustrator 15.0.2, SVG Export Plug-In . SVG Version: 6.00 Build 0)  -->
<!DOCTYPE svg PUBLIC "-//W3C//DTD SVG 1.1//EN" "http://www.w3.org/Graphics/SVG/1.1/DTD/svg11.dtd">
<svg version="1.1" id="レイヤー_1" xmlns="http://www.w3.org/2000/svg" xmlns:xlink="http://www.w3.org/1999/xlink" x="0px"
	 y="0px" width="64px" height="64px" viewBox="0 0 64 64" style="enable-background:new 0 0 64 64;" xml:space="preserve">
<g>
	<path style="fill-rule:evenodd;clip-rule:evenodd;fill:#52AA3E;" d="M25.0776367,25.1894531L14.625,19.1865234
		c0,0,4.2880859-7.65625,5.2260742-9.2519531c0.9375-1.5966797,3.2915039-3.0917969,5.5566406-3.0917969
		c2.2646484,0,11.8100586,0,13.7202148,0s4.1435547,0.9492188,5.1064453,2.3691406
		c0.9638672,1.4199219,3.0439453,4.9638672,3.0439453,4.9638672l3.9736328-2.2460938l-5.9609375,10.4091797l-11.9208984,0.0859375
		l3.5849609-2.1591797c0,0-3.2148438-5.9345703-3.7666016-6.4628906c-0.5517578-0.5273438-1.0087891-1.0400391-1.9780273,0.6757813
		C30.2407227,16.1933594,25.0776367,25.1894531,25.0776367,25.1894531z"/>
	<path style="fill-rule:evenodd;clip-rule:evenodd;fill:#52AA3E;" d="M41.2607422,27.8544922l10.4101563-6.0751953
		c0,0,4.5048828,7.53125,5.421875,9.1396484c0.9179688,1.6074219,1.0419922,4.3935547-0.0859375,6.3574219
		c-1.1279297,1.9628906-5.8798828,10.2412109-6.8310547,11.8984375s-2.8876953,3.1210938-4.5986328,3.25
		c-1.7109375,0.1269531-5.8193359,0.1669922-5.8193359,0.1669922l-0.0302734,4.5654297l-6.0605469-10.3535156l5.8613281-10.3808594
		l0.0878906,4.1835938c0,0,6.7480469,0.1679688,7.4794922-0.0478516c0.734375-0.2167969,1.4052734-0.3574219,0.4003906-2.0517578
		C46.4921875,36.8115234,41.2607422,27.8544922,41.2607422,27.8544922z"/>
	<path style="fill-rule:evenodd;clip-rule:evenodd;fill:#52AA3E;" d="M30.8305664,40.4960938l0.0830078,12.0527344
		c0,0-8.7739258,0.15625-10.6254883,0.1503906c-1.8515625-0.0048828-4.3286133-1.2841797-5.4702148-3.2402344
		c-1.140625-1.9570313-5.9526367-10.1992188-6.9160156-11.8496094s-1.269043-4.0595703-0.5283203-5.6064453
		c0.7421875-1.546875,2.7524414-5.1298828,2.7524414-5.1298828l-3.9433594-2.2998047l11.996582-0.0986328l6.0834961,10.2509766
		l-3.6728516-2.0058594c0,0-3.5053711,5.7675781-3.6831055,6.5097656c-0.1772461,0.7441406-0.3891602,1.3955078,1.5810547,1.3681641
		C20.4575195,40.5722656,30.8305664,40.4960938,30.8305664,40.4960938z"/>
</g>
</svg>
