<?xml version="1.0" encoding="utf-8"?>
<!-- Generator: Adobe Illustrator 15.0.2, SVG Export Plug-In . SVG Version: 6.00 Build 0)  -->
<!DOCTYPE svg PUBLIC "-//W3C//DTD SVG 1.1//EN" "http://www.w3.org/Graphics/SVG/1.1/DTD/svg11.dtd">
<svg version="1.1" id="レイヤー_1" xmlns="http://www.w3.org/2000/svg" xmlns:xlink="http://www.w3.org/1999/xlink" x="0px"
	 y="0px" width="64px" height="64px" viewBox="0 0 64 64" style="enable-background:new 0 0 64 64;" xml:space="preserve">
<g>
	<polygon points="59.25,59.25 54.75,59.25 54.75,57.25 57.25,57.25 57.25,54.75 59.25,54.75 	"/>
	<path d="M51.5751953,59.25h-7.4072266v-2h7.4072266V59.25z M40.9941406,59.25h-7.4072266v-2h7.4072266V59.25z M30.4125977,59.25
		h-7.4072266v-2h7.4072266V59.25z M19.8310547,59.25h-7.4072266v-2h7.4072266V59.25z"/>
	<polygon points="9.25,59.25 4.75,59.25 4.75,54.75 6.75,54.75 6.75,57.25 9.25,57.25 	"/>
	<path d="M6.75,51.5751953h-2v-7.4072266h2V51.5751953z M6.75,40.9941406h-2v-7.4072266h2V40.9941406z M6.75,30.4125977h-2
		v-7.4072266h2V30.4125977z M6.75,19.8310547h-2v-7.4072266h2V19.8310547z"/>
	<polygon points="6.75,9.25 4.75,9.25 4.75,4.75 9.25,4.75 9.25,6.75 6.75,6.75 	"/>
	<path d="M51.5751953,6.75h-7.40625v-2h7.40625V6.75z M40.9941406,6.75h-7.4072266v-2h7.4072266V6.75z M30.4125977,6.75h-7.4067383
		v-2h7.4067383V6.75z M19.8310547,6.75h-7.4067383v-2h7.4067383V6.75z"/>
	<polygon points="59.25,9.25 57.25,9.25 57.25,6.75 54.75,6.75 54.75,4.75 59.25,4.75 	"/>
	<path d="M59.25,51.5751953h-2v-7.40625h2V51.5751953z M59.25,40.9941406h-2v-7.4072266h2V40.9941406z M59.25,30.4125977h-2
		v-7.4067383h2V30.4125977z M59.25,19.8310547h-2v-7.4067383h2V19.8310547z"/>
</g>
<g>
	<path d="M36.3652344,17.2285156v2.8125h-2.734375v22.3828125h2.734375v2.8125h-8.75v-2.8125h2.734375V20.0410156h-2.734375v-2.8125
		H36.3652344z"/>
</g>
</svg>
