<?xml version="1.0" encoding="utf-8"?>
<!-- Generator: Adobe Illustrator 15.0.2, SVG Export Plug-In . SVG Version: 6.00 Build 0)  -->
<!DOCTYPE svg PUBLIC "-//W3C//DTD SVG 1.1//EN" "http://www.w3.org/Graphics/SVG/1.1/DTD/svg11.dtd">
<svg version="1.1" id="レイヤー_1" xmlns="http://www.w3.org/2000/svg" xmlns:xlink="http://www.w3.org/1999/xlink" x="0px"
	 y="0px" width="64px" height="64px" viewBox="0 0 64 64" enable-background="new 0 0 64 64" xml:space="preserve">
<g>
	<g>
		<polyline fill="none" stroke="#000000" stroke-width="2" stroke-miterlimit="10" points="58.25,54.75 58.25,58.25 54.75,58.25 		
			"/>
		
			<line fill="none" stroke="#000000" stroke-width="2" stroke-miterlimit="10" stroke-dasharray="7.407,3.1744" x1="51.575" y1="58.25" x2="10.837" y2="58.25"/>
		<polyline fill="none" stroke="#000000" stroke-width="2" stroke-miterlimit="10" points="9.25,58.25 5.75,58.25 5.75,54.75 		"/>
		
			<line fill="none" stroke="#000000" stroke-width="2" stroke-miterlimit="10" stroke-dasharray="7.407,3.1744" x1="5.75" y1="51.575" x2="5.75" y2="10.837"/>
		<polyline fill="none" stroke="#000000" stroke-width="2" stroke-miterlimit="10" points="5.75,9.25 5.75,5.75 9.25,5.75 		"/>
		
			<line fill="none" stroke="#000000" stroke-width="2" stroke-miterlimit="10" stroke-dasharray="7.407,3.1744" x1="12.424" y1="5.75" x2="53.163" y2="5.75"/>
		<polyline fill="none" stroke="#000000" stroke-width="2" stroke-miterlimit="10" points="54.75,5.75 58.25,5.75 58.25,9.25 		"/>
		
			<line fill="none" stroke="#000000" stroke-width="2" stroke-miterlimit="10" stroke-dasharray="7.407,3.1744" x1="58.25" y1="12.424" x2="58.25" y2="53.163"/>
	</g>
</g>
<g id="U_x2B_1F1F2">
	<path d="M46.268,45.236h-3.262V26.447c0-1.484,0.091-3.301,0.273-5.449h-0.078c-0.313,1.263-0.593,2.168-0.84,2.715l-9.57,21.523
		h-1.602l-9.551-21.367c-0.273-0.625-0.554-1.582-0.84-2.871h-0.078c0.104,1.12,0.156,2.949,0.156,5.488v18.75h-3.164V17.229h4.336
		l8.594,19.531c0.664,1.497,1.094,2.617,1.289,3.359h0.117c0.56-1.536,1.009-2.683,1.348-3.438l8.77-19.453h4.102V45.236z"/>
</g>
</svg>
