<?xml version="1.0" encoding="utf-8"?>
<!-- Generator: Adobe Illustrator 15.0.2, SVG Export Plug-In . SVG Version: 6.00 Build 0)  -->
<!DOCTYPE svg PUBLIC "-//W3C//DTD SVG 1.1//EN" "http://www.w3.org/Graphics/SVG/1.1/DTD/svg11.dtd">
<svg version="1.1" id="レイヤー_1" xmlns="http://www.w3.org/2000/svg" xmlns:xlink="http://www.w3.org/1999/xlink" x="0px"
	 y="0px" width="64px" height="64px" viewBox="0 0 64 64" style="enable-background:new 0 0 64 64;" xml:space="preserve">
<g>
	<polygon points="59.25,59.25 54.75,59.25 54.75,57.25 57.25,57.25 57.25,54.75 59.25,54.75 	"/>
	<path d="M51.5751953,59.25h-7.4072266v-2h7.4072266V59.25z M40.9941406,59.25h-7.4072266v-2h7.4072266V59.25z M30.4125977,59.25
		h-7.4072266v-2h7.4072266V59.25z M19.8310547,59.25h-7.4072266v-2h7.4072266V59.25z"/>
	<polygon points="9.25,59.25 4.75,59.25 4.75,54.75 6.75,54.75 6.75,57.25 9.25,57.25 	"/>
	<path d="M6.75,51.5751953h-2v-7.4072266h2V51.5751953z M6.75,40.9941406h-2v-7.4072266h2V40.9941406z M6.75,30.4125977h-2
		v-7.4072266h2V30.4125977z M6.75,19.8310547h-2v-7.4072266h2V19.8310547z"/>
	<polygon points="6.75,9.25 4.75,9.25 4.75,4.75 9.25,4.75 9.25,6.75 6.75,6.75 	"/>
	<path d="M51.5751953,6.75h-7.40625v-2h7.40625V6.75z M40.9941406,6.75h-7.4072266v-2h7.4072266V6.75z M30.4125977,6.75h-7.4067383
		v-2h7.4067383V6.75z M19.8310547,6.75h-7.4067383v-2h7.4067383V6.75z"/>
	<polygon points="59.25,9.25 57.25,9.25 57.25,6.75 54.75,6.75 54.75,4.75 59.25,4.75 	"/>
	<path d="M59.25,51.5751953h-2v-7.40625h2V51.5751953z M59.25,40.9941406h-2v-7.4072266h2V40.9941406z M59.25,30.4125977h-2
		v-7.4067383h2V30.4125977z M59.25,19.8310547h-2v-7.4067383h2V19.8310547z"/>
</g>
<g>
	<path d="M42.3515625,44.0644531c-2.0703125,1.09375-4.6484375,1.640625-7.734375,1.640625
		c-3.984375,0-7.1748047-1.2822266-9.5703125-3.8476563c-2.3959961-2.5654297-3.59375-5.9306641-3.59375-10.0976563
		c0-4.4790039,1.3476563-8.0986328,4.0429688-10.859375c2.6953125-2.7602539,6.1132813-4.140625,10.2539063-4.140625
		c2.65625,0,4.8564453,0.3842773,6.6015625,1.1523438v3.4960938c-2.0048828-1.1196289-4.21875-1.6796875-6.640625-1.6796875
		c-3.2158203,0-5.8237305,1.0742188-7.8222656,3.2226563c-1.9990234,2.1484375-2.9980469,5.0195313-2.9980469,8.6132813
		c0,3.4121094,0.934082,6.1298828,2.8027344,8.1542969c1.8681641,2.0244141,4.3193359,3.0371094,7.3535156,3.0371094
		c2.8125,0,5.2470703-0.625,7.3046875-1.875V44.0644531z"/>
</g>
</svg>
