<?xml version="1.0" encoding="UTF-8" standalone="no"?>
<!-- Generator: Adobe Illustrator 15.0.2, SVG Export Plug-In . SVG Version: 6.00 Build 0)  -->

<svg
   xmlns:dc="http://purl.org/dc/elements/1.1/"
   xmlns:cc="http://creativecommons.org/ns#"
   xmlns:rdf="http://www.w3.org/1999/02/22-rdf-syntax-ns#"
   xmlns:svg="http://www.w3.org/2000/svg"
   xmlns="http://www.w3.org/2000/svg"
   xmlns:sodipodi="http://sodipodi.sourceforge.net/DTD/sodipodi-0.dtd"
   xmlns:inkscape="http://www.inkscape.org/namespaces/inkscape"
   version="1.1"
   id="レイヤー_1"
   x="0px"
   y="0px"
   width="64px"
   height="64px"
   viewBox="0 0 64 64"
   style="enable-background:new 0 0 64 64;"
   xml:space="preserve"
   inkscape:version="0.48.5 r10040"
   sodipodi:docname="regional_indicator_symbol_letter_D.svg"><metadata
     id="metadata29"><rdf:RDF><cc:Work
         rdf:about=""><dc:format>image/svg+xml</dc:format><dc:type
           rdf:resource="http://purl.org/dc/dcmitype/StillImage" /></cc:Work></rdf:RDF></metadata><defs
     id="defs27" /><sodipodi:namedview
     pagecolor="#ffffff"
     bordercolor="#666666"
     borderopacity="1"
     objecttolerance="10"
     gridtolerance="10"
     guidetolerance="10"
     inkscape:pageopacity="0"
     inkscape:pageshadow="2"
     inkscape:window-width="640"
     inkscape:window-height="480"
     id="namedview25" /><g
     id="g3"><polygon
       points="59.25,59.25 54.75,59.25 54.75,57.25 57.25,57.25 57.25,54.75 59.25,54.75  "
       id="polygon5" /><path
       d="M51.5751953,59.25h-7.4072266v-2h7.4072266V59.25z M40.9941406,59.25h-7.4072266v-2h7.4072266V59.25z M30.4125977,59.25   h-7.4072266v-2h7.4072266V59.25z M19.8310547,59.25h-7.4072266v-2h7.4072266V59.25z"
       id="path7" /><polygon
       points="9.25,59.25 4.75,59.25 4.75,54.75 6.75,54.75 6.75,57.25 9.25,57.25  "
       id="polygon9" /><path
       d="M6.75,51.5751953h-2v-7.4072266h2V51.5751953z M6.75,40.9941406h-2v-7.4072266h2V40.9941406z M6.75,30.4125977h-2   v-7.4072266h2V30.4125977z M6.75,19.8310547h-2v-7.4072266h2V19.8310547z"
       id="path11" /><polygon
       points="6.75,9.25 4.75,9.25 4.75,4.75 9.25,4.75 9.25,6.75 6.75,6.75  "
       id="polygon13" /><path
       d="M51.5751953,6.75h-7.40625v-2h7.40625V6.75z M40.9941406,6.75h-7.4072266v-2h7.4072266V6.75z M30.4125977,6.75h-7.4067383   v-2h7.4067383V6.75z M19.8310547,6.75h-7.4067383v-2h7.4067383V6.75z"
       id="path15" /><polygon
       points="59.25,9.25 57.25,9.25 57.25,6.75 54.75,6.75 54.75,4.75 59.25,4.75  "
       id="polygon17" /><path
       d="M59.25,51.5751953h-2v-7.40625h2V51.5751953z M59.25,40.9941406h-2v-7.4072266h2V40.9941406z M59.25,30.4125977h-2   v-7.4067383h2V30.4125977z M59.25,19.8310547h-2v-7.4067383h2V19.8310547z"
       id="path19" /></g><g
     id="g21"><path
       d="M21.6484375,45.2363281V17.2285156h7.734375c9.8701172,0,14.8046875,4.5507813,14.8046875,13.6523438   c0,4.3232422-1.3701172,7.7958984-4.1113281,10.4199219s-6.4091797,3.9355469-11.0058594,3.9355469H21.6484375z    M24.9296875,20.1972656v22.0703125h4.1796875c3.671875,0,6.5302734-0.9833984,8.5742188-2.9492188   S40.75,34.5664063,40.75,30.9589844c0-7.1743164-3.8154297-10.7617188-11.4453125-10.7617188H24.9296875z"
       id="path23" /></g></svg>