<?xml version="1.0" encoding="utf-8"?>
<!-- Generator: Adobe Illustrator 15.0.2, SVG Export Plug-In . SVG Version: 6.00 Build 0)  -->
<!DOCTYPE svg PUBLIC "-//W3C//DTD SVG 1.1//EN" "http://www.w3.org/Graphics/SVG/1.1/DTD/svg11.dtd">
<svg version="1.1" id="レイヤー_1" xmlns="http://www.w3.org/2000/svg" xmlns:xlink="http://www.w3.org/1999/xlink" x="0px"
	 y="0px" width="64px" height="64px" viewBox="0 0 64 64" enable-background="new 0 0 64 64" xml:space="preserve">
<g>
	<g>
		<polyline fill="none" stroke="#000000" stroke-width="2" stroke-miterlimit="10" points="58.25,54.75 58.25,58.25 54.75,58.25 		
			"/>
		
			<line fill="none" stroke="#000000" stroke-width="2" stroke-miterlimit="10" stroke-dasharray="7.407,3.1744" x1="51.575" y1="58.25" x2="10.837" y2="58.25"/>
		<polyline fill="none" stroke="#000000" stroke-width="2" stroke-miterlimit="10" points="9.25,58.25 5.75,58.25 5.75,54.75 		"/>
		
			<line fill="none" stroke="#000000" stroke-width="2" stroke-miterlimit="10" stroke-dasharray="7.407,3.1744" x1="5.75" y1="51.575" x2="5.75" y2="10.837"/>
		<polyline fill="none" stroke="#000000" stroke-width="2" stroke-miterlimit="10" points="5.75,9.25 5.75,5.75 9.25,5.75 		"/>
		
			<line fill="none" stroke="#000000" stroke-width="2" stroke-miterlimit="10" stroke-dasharray="7.407,3.1744" x1="12.424" y1="5.75" x2="53.163" y2="5.75"/>
		<polyline fill="none" stroke="#000000" stroke-width="2" stroke-miterlimit="10" points="54.75,5.75 58.25,5.75 58.25,9.25 		"/>
		
			<line fill="none" stroke="#000000" stroke-width="2" stroke-miterlimit="10" stroke-dasharray="7.407,3.1744" x1="58.25" y1="12.424" x2="58.25" y2="53.163"/>
	</g>
</g>
<g id="U_x2B_1F1F7">
	<path d="M43.787,45.236h-3.906l-4.688-7.852c-0.43-0.729-0.847-1.351-1.25-1.865c-0.403-0.514-0.817-0.934-1.24-1.26
		c-0.423-0.325-0.879-0.563-1.367-0.713c-0.488-0.149-1.039-0.225-1.65-0.225H26.99v11.914h-3.281V17.229h8.359
		c1.224,0,2.354,0.153,3.389,0.459c1.035,0.306,1.934,0.771,2.695,1.396s1.357,1.403,1.787,2.334
		c0.43,0.931,0.645,2.021,0.645,3.271c0,0.977-0.146,1.872-0.439,2.686c-0.293,0.814-0.71,1.54-1.25,2.178
		c-0.54,0.638-1.191,1.182-1.953,1.631s-1.618,0.798-2.568,1.045v0.078c0.469,0.208,0.876,0.446,1.221,0.713
		c0.345,0.268,0.674,0.583,0.986,0.947c0.313,0.365,0.622,0.778,0.928,1.24c0.306,0.463,0.647,1,1.025,1.611L43.787,45.236z
		 M26.99,20.197v10.156h4.453c0.82,0,1.579-0.124,2.275-0.371c0.696-0.247,1.299-0.602,1.807-1.064
		c0.508-0.462,0.905-1.028,1.191-1.699c0.286-0.67,0.43-1.422,0.43-2.256c0-1.497-0.485-2.666-1.455-3.506s-2.373-1.26-4.209-1.26
		H26.99z"/>
</g>
</svg>
