<?xml version="1.0" encoding="utf-8"?>
<!-- Generator: Adobe Illustrator 15.0.2, SVG Export Plug-In . SVG Version: 6.00 Build 0)  -->
<!DOCTYPE svg PUBLIC "-//W3C//DTD SVG 1.1//EN" "http://www.w3.org/Graphics/SVG/1.1/DTD/svg11.dtd">
<svg version="1.1" id="レイヤー_1" xmlns="http://www.w3.org/2000/svg" xmlns:xlink="http://www.w3.org/1999/xlink" x="0px"
	 y="0px" width="64px" height="64px" viewBox="0 0 64 64" enable-background="new 0 0 64 64" xml:space="preserve">
<g>
	<g>
		<polyline fill="none" stroke="#000000" stroke-width="2" stroke-miterlimit="10" points="58.25,54.75 58.25,58.25 54.75,58.25 		
			"/>
		
			<line fill="none" stroke="#000000" stroke-width="2" stroke-miterlimit="10" stroke-dasharray="7.407,3.1744" x1="51.575" y1="58.25" x2="10.837" y2="58.25"/>
		<polyline fill="none" stroke="#000000" stroke-width="2" stroke-miterlimit="10" points="9.25,58.25 5.75,58.25 5.75,54.75 		"/>
		
			<line fill="none" stroke="#000000" stroke-width="2" stroke-miterlimit="10" stroke-dasharray="7.407,3.1744" x1="5.75" y1="51.575" x2="5.75" y2="10.837"/>
		<polyline fill="none" stroke="#000000" stroke-width="2" stroke-miterlimit="10" points="5.75,9.25 5.75,5.75 9.25,5.75 		"/>
		
			<line fill="none" stroke="#000000" stroke-width="2" stroke-miterlimit="10" stroke-dasharray="7.407,3.1744" x1="12.424" y1="5.75" x2="53.163" y2="5.75"/>
		<polyline fill="none" stroke="#000000" stroke-width="2" stroke-miterlimit="10" points="54.75,5.75 58.25,5.75 58.25,9.25 		"/>
		
			<line fill="none" stroke="#000000" stroke-width="2" stroke-miterlimit="10" stroke-dasharray="7.407,3.1744" x1="58.25" y1="12.424" x2="58.25" y2="53.163"/>
	</g>
</g>
<g id="U_x2B_1F1F5">
	<path d="M27.752,34.65v10.586h-3.281V17.229h7.695c2.995,0,5.315,0.729,6.963,2.188c1.647,1.458,2.471,3.516,2.471,6.172
		s-0.915,4.831-2.744,6.523c-1.829,1.693-4.3,2.539-7.412,2.539H27.752z M27.752,20.197v11.484h3.438
		c2.266,0,3.994-0.518,5.186-1.553s1.787-2.497,1.787-4.385c0-3.698-2.188-5.547-6.563-5.547H27.752z"/>
</g>
</svg>
