<?xml version="1.0" encoding="utf-8"?>
<!-- Generator: Adobe Illustrator 15.0.2, SVG Export Plug-In . SVG Version: 6.00 Build 0)  -->
<!DOCTYPE svg PUBLIC "-//W3C//DTD SVG 1.1//EN" "http://www.w3.org/Graphics/SVG/1.1/DTD/svg11.dtd">
<svg version="1.1" id="レイヤー_1" xmlns="http://www.w3.org/2000/svg" xmlns:xlink="http://www.w3.org/1999/xlink" x="0px"
	 y="0px" width="64px" height="64px" viewBox="0 0 64 64" enable-background="new 0 0 64 64" xml:space="preserve">
<g>
	<g>
		<polyline fill="none" stroke="#000000" stroke-width="2" stroke-miterlimit="10" points="58.25,54.75 58.25,58.25 54.75,58.25 		
			"/>
		
			<line fill="none" stroke="#000000" stroke-width="2" stroke-miterlimit="10" stroke-dasharray="7.407,3.1744" x1="51.575" y1="58.25" x2="10.837" y2="58.25"/>
		<polyline fill="none" stroke="#000000" stroke-width="2" stroke-miterlimit="10" points="9.25,58.25 5.75,58.25 5.75,54.75 		"/>
		
			<line fill="none" stroke="#000000" stroke-width="2" stroke-miterlimit="10" stroke-dasharray="7.407,3.1744" x1="5.75" y1="51.575" x2="5.75" y2="10.837"/>
		<polyline fill="none" stroke="#000000" stroke-width="2" stroke-miterlimit="10" points="5.75,9.25 5.75,5.75 9.25,5.75 		"/>
		
			<line fill="none" stroke="#000000" stroke-width="2" stroke-miterlimit="10" stroke-dasharray="7.407,3.1744" x1="12.424" y1="5.75" x2="53.163" y2="5.75"/>
		<polyline fill="none" stroke="#000000" stroke-width="2" stroke-miterlimit="10" points="54.75,5.75 58.25,5.75 58.25,9.25 		"/>
		
			<line fill="none" stroke="#000000" stroke-width="2" stroke-miterlimit="10" stroke-dasharray="7.407,3.1744" x1="58.25" y1="12.424" x2="58.25" y2="53.163"/>
	</g>
</g>
<g id="U_x2B_1F1E9">
	<path d="M21.648,45.236V17.229h7.734c9.87,0,14.805,4.551,14.805,13.652c0,4.323-1.37,7.796-4.111,10.42s-6.409,3.936-11.006,3.936
		H21.648z M24.93,20.197v22.07h4.18c3.672,0,6.53-0.983,8.574-2.949s3.066-4.752,3.066-8.359c0-7.174-3.815-10.762-11.445-10.762
		H24.93z"/>
</g>
</svg>
