<?xml version="1.0" encoding="utf-8"?>
<!-- Generator: Adobe Illustrator 15.0.2, SVG Export Plug-In . SVG Version: 6.00 Build 0)  -->
<!DOCTYPE svg PUBLIC "-//W3C//DTD SVG 1.1//EN" "http://www.w3.org/Graphics/SVG/1.1/DTD/svg11.dtd">
<svg version="1.1" id="レイヤー_1" xmlns="http://www.w3.org/2000/svg" xmlns:xlink="http://www.w3.org/1999/xlink" x="0px"
	 y="0px" width="64px" height="64px" viewBox="0 0 64 64" enable-background="new 0 0 64 64" xml:space="preserve">
<g>
	<g>
		<polyline fill="none" stroke="#000000" stroke-width="2" stroke-miterlimit="10" points="58.25,54.75 58.25,58.25 54.75,58.25 		
			"/>
		
			<line fill="none" stroke="#000000" stroke-width="2" stroke-miterlimit="10" stroke-dasharray="7.407,3.1744" x1="51.575" y1="58.25" x2="10.837" y2="58.25"/>
		<polyline fill="none" stroke="#000000" stroke-width="2" stroke-miterlimit="10" points="9.25,58.25 5.75,58.25 5.75,54.75 		"/>
		
			<line fill="none" stroke="#000000" stroke-width="2" stroke-miterlimit="10" stroke-dasharray="7.407,3.1744" x1="5.75" y1="51.575" x2="5.75" y2="10.837"/>
		<polyline fill="none" stroke="#000000" stroke-width="2" stroke-miterlimit="10" points="5.75,9.25 5.75,5.75 9.25,5.75 		"/>
		
			<line fill="none" stroke="#000000" stroke-width="2" stroke-miterlimit="10" stroke-dasharray="7.407,3.1744" x1="12.424" y1="5.75" x2="53.163" y2="5.75"/>
		<polyline fill="none" stroke="#000000" stroke-width="2" stroke-miterlimit="10" points="54.75,5.75 58.25,5.75 58.25,9.25 		"/>
		
			<line fill="none" stroke="#000000" stroke-width="2" stroke-miterlimit="10" stroke-dasharray="7.407,3.1744" x1="58.25" y1="12.424" x2="58.25" y2="53.163"/>
	</g>
</g>
<g id="U_x2B_1F1F4">
	<path d="M31.883,45.705c-3.972,0-7.152-1.309-9.541-3.926c-2.39-2.617-3.584-6.021-3.584-10.215c0-4.505,1.217-8.099,3.652-10.781
		c2.435-2.682,5.749-4.023,9.941-4.023c3.867,0,6.982,1.302,9.346,3.906c2.363,2.604,3.545,6.009,3.545,10.215
		c0,4.57-1.211,8.184-3.633,10.84S35.945,45.705,31.883,45.705z M32.117,19.729c-2.942,0-5.332,1.062-7.168,3.184
		c-1.836,2.123-2.754,4.909-2.754,8.359c0,3.451,0.895,6.228,2.686,8.33c1.79,2.103,4.124,3.154,7.002,3.154
		c3.073,0,5.495-1.003,7.266-3.008s2.656-4.811,2.656-8.418c0-3.698-0.859-6.556-2.578-8.574
		C37.508,20.738,35.138,19.729,32.117,19.729z"/>
</g>
</svg>
