<?xml version="1.0" encoding="UTF-8" standalone="no"?>
<!-- Generator: Adobe Illustrator 15.0.2, SVG Export Plug-In . SVG Version: 6.00 Build 0)  -->

<svg
   xmlns:dc="http://purl.org/dc/elements/1.1/"
   xmlns:cc="http://creativecommons.org/ns#"
   xmlns:rdf="http://www.w3.org/1999/02/22-rdf-syntax-ns#"
   xmlns:svg="http://www.w3.org/2000/svg"
   xmlns="http://www.w3.org/2000/svg"
   xmlns:sodipodi="http://sodipodi.sourceforge.net/DTD/sodipodi-0.dtd"
   xmlns:inkscape="http://www.inkscape.org/namespaces/inkscape"
   version="1.1"
   id="レイヤー_1"
   x="0px"
   y="0px"
   width="64px"
   height="64px"
   viewBox="0 0 64 64"
   style="enable-background:new 0 0 64 64;"
   xml:space="preserve"
   inkscape:version="0.48.5 r10040"
   sodipodi:docname="regional_indicator_symbol_letter_X.svg"><metadata
     id="metadata29"><rdf:RDF><cc:Work
         rdf:about=""><dc:format>image/svg+xml</dc:format><dc:type
           rdf:resource="http://purl.org/dc/dcmitype/StillImage" /></cc:Work></rdf:RDF></metadata><defs
     id="defs27" /><sodipodi:namedview
     pagecolor="#ffffff"
     bordercolor="#666666"
     borderopacity="1"
     objecttolerance="10"
     gridtolerance="10"
     guidetolerance="10"
     inkscape:pageopacity="0"
     inkscape:pageshadow="2"
     inkscape:window-width="640"
     inkscape:window-height="480"
     id="namedview25" /><g
     id="g3"><polygon
       points="59.25,59.25 54.75,59.25 54.75,57.25 57.25,57.25 57.25,54.75 59.25,54.75  "
       id="polygon5" /><path
       d="M51.5751953,59.25h-7.4072266v-2h7.4072266V59.25z M40.9941406,59.25h-7.4072266v-2h7.4072266V59.25z M30.4125977,59.25   h-7.4072266v-2h7.4072266V59.25z M19.8310547,59.25h-7.4072266v-2h7.4072266V59.25z"
       id="path7" /><polygon
       points="9.25,59.25 4.75,59.25 4.75,54.75 6.75,54.75 6.75,57.25 9.25,57.25  "
       id="polygon9" /><path
       d="M6.75,51.5751953h-2v-7.4072266h2V51.5751953z M6.75,40.9941406h-2v-7.4072266h2V40.9941406z M6.75,30.4125977h-2   v-7.4072266h2V30.4125977z M6.75,19.8310547h-2v-7.4072266h2V19.8310547z"
       id="path11" /><polygon
       points="6.75,9.25 4.75,9.25 4.75,4.75 9.25,4.75 9.25,6.75 6.75,6.75  "
       id="polygon13" /><path
       d="M51.5751953,6.75h-7.40625v-2h7.40625V6.75z M40.9941406,6.75h-7.4072266v-2h7.4072266V6.75z M30.4125977,6.75h-7.4067383   v-2h7.4067383V6.75z M19.8310547,6.75h-7.4067383v-2h7.4067383V6.75z"
       id="path15" /><polygon
       points="59.25,9.25 57.25,9.25 57.25,6.75 54.75,6.75 54.75,4.75 59.25,4.75  "
       id="polygon17" /><path
       d="M59.25,51.5751953h-2v-7.40625h2V51.5751953z M59.25,40.9941406h-2v-7.4072266h2V40.9941406z M59.25,30.4125977h-2   v-7.4067383h2V30.4125977z M59.25,19.8310547h-2v-7.4067383h2V19.8310547z"
       id="path19" /></g><g
     id="g21"><path
       d="M43.2109375,45.2363281h-4.0039063l-6.4453125-10.7226563c-0.1953125-0.3251953-0.4101563-0.7871094-0.6445313-1.3867188   h-0.078125C31.9091797,33.4267578,31.6875,33.8886719,31.375,34.5136719l-6.640625,10.7226563h-4.0234375l9.375-14.0820313   L21.453125,17.2285156h4.0234375l5.7226563,9.84375c0.3779297,0.6513672,0.7099609,1.3022461,0.9960938,1.953125h0.078125   c0.4169922-0.859375,0.78125-1.5361328,1.09375-2.03125l5.9570313-9.765625H43.09375l-8.8085938,13.8867188L43.2109375,45.2363281z   "
       id="path23" /></g></svg>