<?xml version="1.0" encoding="UTF-8" standalone="no"?>
<!-- Generator: Adobe Illustrator 15.0.0, SVG Export Plug-In . SVG Version: 6.00 Build 0)  -->

<svg
   xmlns:dc="http://purl.org/dc/elements/1.1/"
   xmlns:cc="http://creativecommons.org/ns#"
   xmlns:rdf="http://www.w3.org/1999/02/22-rdf-syntax-ns#"
   xmlns:svg="http://www.w3.org/2000/svg"
   xmlns="http://www.w3.org/2000/svg"
   xmlns:sodipodi="http://sodipodi.sourceforge.net/DTD/sodipodi-0.dtd"
   xmlns:inkscape="http://www.inkscape.org/namespaces/inkscape"
   version="1.1"
   id="レイヤー_1"
   x="0px"
   y="0px"
   width="64px"
   height="64px"
   viewBox="0 0 64 64"
   style="enable-background:new 0 0 64 64;"
   xml:space="preserve"
   inkscape:version="0.48.4 r9939"
   sodipodi:docname="registered.svg"><metadata
     id="metadata15"><rdf:RDF><cc:Work
         rdf:about=""><dc:format>image/svg+xml</dc:format><dc:type
           rdf:resource="http://purl.org/dc/dcmitype/StillImage" /></cc:Work></rdf:RDF></metadata><defs
     id="defs13" /><sodipodi:namedview
     pagecolor="#ffffff"
     bordercolor="#666666"
     borderopacity="1"
     objecttolerance="10"
     gridtolerance="10"
     guidetolerance="10"
     inkscape:pageopacity="0"
     inkscape:pageshadow="2"
     inkscape:window-width="640"
     inkscape:window-height="480"
     id="namedview11" /><g
     id="g3"><g
       id="g5"><path
         d="M37.2421875,44.7734375l-3.5976563-8.2099609c-0.3378906-0.7802734-0.8105469-1.3710938-1.4169922-1.7685547    c-0.6054688-0.3974609-1.3183594-0.5957031-2.1396484-0.5957031h-0.9199219v10.5742188h-4.8076172v-25.546875h7.4472656    c1.4072266,0,2.6845703,0.1201172,3.8310547,0.3613281s2.1230469,0.6425781,2.9316406,1.2021484    C39.3789063,21.3505859,40,22.0800781,40.4375,22.9794922s0.6542969,2,0.6542969,3.3027344    c0,0.9384766-0.1367188,1.7724609-0.4101563,2.5019531s-0.6582031,1.359375-1.1523438,1.8857422    c-0.4960938,0.5283203-1.0859375,0.9550781-1.7695313,1.28125s-1.4296875,0.5537109-2.2382813,0.6835938    c0.625,0.1308594,1.1992188,0.4853516,1.7207031,1.0664063c0.5195313,0.5791016,1.0429688,1.4160156,1.5625,2.5097656    l4.0859375,8.5625H37.2421875z M36.0488281,26.7519531c0-1.2509766-0.3984375-2.1503906-1.1933594-2.6972656    c-0.7949219-0.5478516-1.9853516-0.8212891-3.5751953-0.8212891h-2.1123047v7.2128906h1.9560547    c0.7421875,0,1.4160156-0.078125,2.0224609-0.2353516c0.6054688-0.1552734,1.125-0.390625,1.5546875-0.703125    s0.7617188-0.7001953,0.9960938-1.1630859C35.9316406,27.8828125,36.0488281,27.3515625,36.0488281,26.7519531z"
         id="path7" /></g><path
       d="M32,54.8691406C19.3896484,54.8691406,9.1308594,44.6103516,9.1308594,32S19.3896484,9.1308594,32,9.1308594   S54.8691406,19.3896484,54.8691406,32S44.6103516,54.8691406,32,54.8691406z M32,11.6201172   c-11.2373047,0-20.3798828,9.1425781-20.3798828,20.3798828S20.7626953,52.3808594,32,52.3808594   S52.3808594,43.2373047,52.3808594,32S43.2373047,11.6201172,32,11.6201172z"
       id="path9" /></g></svg>