<?xml version="1.0" encoding="UTF-8" standalone="no"?>
<!-- Generator: Adobe Illustrator 15.0.2, SVG Export Plug-In . SVG Version: 6.00 Build 0)  -->

<svg
   xmlns:dc="http://purl.org/dc/elements/1.1/"
   xmlns:cc="http://creativecommons.org/ns#"
   xmlns:rdf="http://www.w3.org/1999/02/22-rdf-syntax-ns#"
   xmlns:svg="http://www.w3.org/2000/svg"
   xmlns="http://www.w3.org/2000/svg"
   xmlns:sodipodi="http://sodipodi.sourceforge.net/DTD/sodipodi-0.dtd"
   xmlns:inkscape="http://www.inkscape.org/namespaces/inkscape"
   version="1.1"
   id="レイヤー_1"
   x="0px"
   y="0px"
   width="64px"
   height="64px"
   viewBox="0 0 64 64"
   style="enable-background:new 0 0 64 64;"
   xml:space="preserve"
   inkscape:version="0.48.4 r9939"
   sodipodi:docname="regional_indicator_symbol_letter_G.svg"><metadata
     id="metadata29"><rdf:RDF><cc:Work
         rdf:about=""><dc:format>image/svg+xml</dc:format><dc:type
           rdf:resource="http://purl.org/dc/dcmitype/StillImage" /></cc:Work></rdf:RDF></metadata><defs
     id="defs27" /><sodipodi:namedview
     pagecolor="#ffffff"
     bordercolor="#666666"
     borderopacity="1"
     objecttolerance="10"
     gridtolerance="10"
     guidetolerance="10"
     inkscape:pageopacity="0"
     inkscape:pageshadow="2"
     inkscape:window-width="640"
     inkscape:window-height="480"
     id="namedview25" /><g
     id="g3"><polygon
       points="59.25,59.25 54.75,59.25 54.75,57.25 57.25,57.25 57.25,54.75 59.25,54.75  "
       id="polygon5" /><path
       d="M51.5751953,59.25h-7.4072266v-2h7.4072266V59.25z M40.9941406,59.25h-7.4072266v-2h7.4072266V59.25z M30.4125977,59.25   h-7.4072266v-2h7.4072266V59.25z M19.8310547,59.25h-7.4072266v-2h7.4072266V59.25z"
       id="path7" /><polygon
       points="9.25,59.25 4.75,59.25 4.75,54.75 6.75,54.75 6.75,57.25 9.25,57.25  "
       id="polygon9" /><path
       d="M6.75,51.5751953h-2v-7.4072266h2V51.5751953z M6.75,40.9941406h-2v-7.4072266h2V40.9941406z M6.75,30.4125977h-2   v-7.4072266h2V30.4125977z M6.75,19.8310547h-2v-7.4072266h2V19.8310547z"
       id="path11" /><polygon
       points="6.75,9.25 4.75,9.25 4.75,4.75 9.25,4.75 9.25,6.75 6.75,6.75  "
       id="polygon13" /><path
       d="M51.5751953,6.75h-7.40625v-2h7.40625V6.75z M40.9941406,6.75h-7.4072266v-2h7.4072266V6.75z M30.4125977,6.75h-7.4067383   v-2h7.4067383V6.75z M19.8310547,6.75h-7.4067383v-2h7.4067383V6.75z"
       id="path15" /><polygon
       points="59.25,9.25 57.25,9.25 57.25,6.75 54.75,6.75 54.75,4.75 59.25,4.75  "
       id="polygon17" /><path
       d="M59.25,51.5751953h-2v-7.40625h2V51.5751953z M59.25,40.9941406h-2v-7.4072266h2V40.9941406z M59.25,30.4125977h-2   v-7.4067383h2V30.4125977z M59.25,19.8310547h-2v-7.4067383h2V19.8310547z"
       id="path19" /></g><g
     id="g21"><path
       d="M42.8886719,43.3222656c-2.8125,1.5888672-5.9375,2.3828125-9.375,2.3828125   c-3.9970703,0-7.2299805-1.2890625-9.6972656-3.8671875c-2.4677734-2.578125-3.7011719-5.9892578-3.7011719-10.234375   c0-4.3359375,1.3701172-7.8935547,4.1113281-10.6738281c2.7407227-2.7797852,6.2138672-4.1699219,10.4199219-4.1699219   c3.046875,0,5.6054688,0.4951172,7.6757813,1.484375v3.6328125c-2.265625-1.4321289-4.9482422-2.1484375-8.046875-2.1484375   c-3.1376953,0-5.7099609,1.0810547-7.7148438,3.2421875c-2.0053711,2.1616211-3.0078125,4.9609375-3.0078125,8.3984375   c0,3.5419922,0.9306641,6.3251953,2.7929688,8.3496094c1.8618164,2.0244141,4.3876953,3.0371094,7.578125,3.0371094   c2.1875,0,4.0820313-0.4365234,5.6835938-1.3085938v-7.8515625h-6.1328125v-2.96875h9.4140625V43.3222656z"
       id="path23" /></g></svg>