<?xml version="1.0" encoding="utf-8"?>
<!-- Generator: Adobe Illustrator 15.0.2, SVG Export Plug-In . SVG Version: 6.00 Build 0)  -->
<!DOCTYPE svg PUBLIC "-//W3C//DTD SVG 1.1//EN" "http://www.w3.org/Graphics/SVG/1.1/DTD/svg11.dtd">
<svg version="1.1" id="レイヤー_1" xmlns="http://www.w3.org/2000/svg" xmlns:xlink="http://www.w3.org/1999/xlink" x="0px"
	 y="0px" width="64px" height="64px" viewBox="0 0 64 64" enable-background="new 0 0 64 64" xml:space="preserve">
<g>
	<g>
		<path d="M37.242,44.773l-3.598-8.21c-0.338-0.78-0.811-1.371-1.417-1.769c-0.605-0.397-1.319-0.596-2.14-0.596h-0.919v10.574
			H24.36V19.227h7.448c1.407,0,2.685,0.12,3.831,0.361s2.123,0.643,2.932,1.202c0.809,0.561,1.43,1.29,1.867,2.189
			s0.654,2,0.654,3.303c0,0.938-0.137,1.772-0.41,2.502s-0.658,1.359-1.152,1.886c-0.496,0.528-1.086,0.955-1.77,1.281
			s-1.43,0.554-2.238,0.684c0.625,0.131,1.199,0.485,1.721,1.066c0.52,0.579,1.043,1.416,1.563,2.51l4.086,8.563H37.242z
			 M36.049,26.752c0-1.251-0.398-2.15-1.193-2.697c-0.795-0.548-1.986-0.821-3.576-0.821h-2.112v7.213h1.956
			c0.743,0,1.417-0.078,2.023-0.235c0.605-0.155,1.125-0.391,1.555-0.703s0.762-0.7,0.996-1.163
			C35.932,27.883,36.049,27.352,36.049,26.752z"/>
	</g>
	<circle fill="none" stroke="#000000" stroke-width="2.4892" stroke-miterlimit="10" cx="32" cy="32" r="21.625"/>
</g>
</svg>
