<?xml version="1.0" encoding="utf-8"?>
<!-- Generator: Adobe Illustrator 15.0.0, SVG Export Plug-In . SVG Version: 6.00 Build 0)  -->
<!DOCTYPE svg PUBLIC "-//W3C//DTD SVG 1.1//EN" "http://www.w3.org/Graphics/SVG/1.1/DTD/svg11.dtd">
<svg version="1.1" id="レイヤー_1" xmlns="http://www.w3.org/2000/svg" xmlns:xlink="http://www.w3.org/1999/xlink" x="0px"
	 y="0px" width="64px" height="64px" viewBox="0 0 64 64" style="enable-background:new 0 0 64 64;" xml:space="preserve">
<g>
	<linearGradient id="SVGID_1_" gradientUnits="userSpaceOnUse" x1="18.1948242" y1="-5.5224609" x2="45.3611832" y2="66.1437988">
		<stop  offset="0" style="stop-color:#FFCC91"/>
		<stop  offset="0.2750012" style="stop-color:#F8B87D"/>
		<stop  offset="0.8372955" style="stop-color:#E68348"/>
		<stop  offset="1" style="stop-color:#E07338"/>
	</linearGradient>
	<circle style="fill:url(#SVGID_1_);" cx="32.1826172" cy="31.3779297" r="28.9443359"/>
	<path style="fill:#B76658;" d="M32.1835938,60.7070313c-16.1728516,0-29.3300781-13.1572266-29.3300781-29.3291016
		c0-16.1723633,13.1572266-29.3291016,29.3300781-29.3291016c16.171875,0,29.328125,13.1567383,29.328125,29.3291016
		C61.5117188,47.5498047,48.3554688,60.7070313,32.1835938,60.7070313z M32.1835938,4.5488281
		c-14.7939453,0-26.8300781,12.0356445-26.8300781,26.8291016c0,14.7939453,12.0361328,26.8291016,26.8300781,26.8291016
		c14.7929688,0,26.828125-12.0351563,26.828125-26.8291016C59.0117188,16.5844727,46.9765625,4.5488281,32.1835938,4.5488281z"/>
	<path style="fill:#440E00;" d="M32.1826172,61.5712891c-16.6494141,0-30.1943359-13.5449219-30.1943359-30.1933594
		S15.5332031,1.1845703,32.1826172,1.1845703s30.1943359,13.5449219,30.1943359,30.1933594
		S48.8320313,61.5712891,32.1826172,61.5712891z M32.1826172,3.6845703c-15.2705078,0-27.6943359,12.4233398-27.6943359,27.6933594
		c0,15.2705078,12.4238281,27.6933594,27.6943359,27.6933594s27.6943359-12.4228516,27.6943359-27.6933594
		C59.8769531,16.1079102,47.453125,3.6845703,32.1826172,3.6845703z"/>
	<path style="fill:#842C38;" d="M23.0737305,39.1074219c0,0,13.1625977,0.078125,15.472168,3.2509766
		c2.3095703,3.1738281,1.7626953,11.5361328-2.328125,12.1132813c-5.3632813,0.7578125-9.5712891-1.7617188-8.4370117-3.4619141
		c2.8422852-4.2636719-0.2666016-10.9248047-0.2666016-10.9248047"/>
	<path style="fill:#EA7C91;" d="M39.2373047,46.7958984c0,0-7.6708984-3.3144531-10.7626953,1.4501953
		c-3.0913086,4.765625,6.1513672,6.1064453,8.0986328,5.0927734C38.5214844,52.3232422,39.2373047,46.7958984,39.2373047,46.7958984
		z"/>
	<path style="fill:#E42A56;" d="M39.2373047,48.7548828c0,0-7.6708984-3.3115234-10.7626953,1.453125
		c-3.0913086,4.7626953,6.1513672,6.1064453,8.0986328,5.0898438
		C38.5214844,54.2841797,39.2373047,48.7548828,39.2373047,48.7548828z"/>
	<path style="fill:#440E00;" d="M34.2119141,55.8652344c-3.6723633,0-6.484375-1.3603516-7.4487305-2.8935547
		c-0.5532227-0.8798828-0.5615234-1.8476563-0.0224609-2.6552734c2.4130859-3.6201172-0.3320313-9.6435547-0.3598633-9.7041016
		l0.2597656-0.1210938c-1.2543945-0.0830078-2.4755859-0.1269531-3.5742188-0.1337891l0.0146484-2.5
		c2.3037109,0.0136719,13.9238281,0.2597656,16.4755859,3.765625c1.8007813,2.4746094,2.1357422,7.3671875,0.7314453,10.6826172
		c-0.8300781,1.9580078-2.2128906,3.1660156-3.8955078,3.4033203
		C35.6396484,55.8154297,34.9101563,55.8652344,34.2119141,55.8652344z M28.8671875,51.6328125
		c0.3364258,0.6806641,3.1186523,2.171875,7.1757813,1.6015625c0.9990234-0.1416016,1.6074219-1.1132813,1.9423828-1.9042969
		c1.0488281-2.4746094,0.8300781-6.4765625-0.4501953-8.2363281c-0.8691406-1.1943359-4.5361328-1.9804688-8.4257813-2.3916016
		C29.9179688,42.9326172,31.2724609,47.9355469,28.8671875,51.6328125z"/>
	
		<rect x="18.0502777" y="19.3368359" transform="matrix(0.2355441 0.9718637 -0.9718637 0.2355441 38.4963112 -0.0820217)" style="fill:#440E00;" width="2.5000291" height="10.185214"/>
	
		<rect x="38.4528122" y="23.2411804" transform="matrix(0.9759638 0.2179324 -0.2179324 0.9759638 6.3986626 -9.0338783)" style="fill:#440E00;" width="11.4019899" height="2.4995742"/>
	
		<rect x="18.2082233" y="16.8039951" transform="matrix(0.266586 0.9638111 -0.9638111 0.266586 34.7296677 -2.0445518)" style="fill:#440E00;" width="1.0000582" height="9.9872246"/>
	
		<rect x="39.082531" y="21.0568848" transform="matrix(0.9687548 0.2480204 -0.2480204 0.9687548 6.7429695 -10.4110737)" style="fill:#440E00;" width="11.2197027" height="1.0000019"/>
	
		<rect x="17.6584492" y="11.0881748" transform="matrix(0.489867 0.8717971 -0.8717971 0.489867 23.8474789 -7.8813553)" style="fill:#440E00;" width="1.9995064" height="10.6966972"/>
	<path style="fill:#440E00;" d="M51.0820313,20.3710938c-6.4169922,0-12.5820313-6.2915039-12.8417969-6.5595703
		l1.4365234-1.3916016c0.0585938,0.0595703,5.8408203,5.9511719,11.4052734,5.9511719c0.0097656,0,0.0185547,0,0.0273438,0
		l0.0078125,2C51.1054688,20.3710938,51.09375,20.3710938,51.0820313,20.3710938z"/>
	<g>
		<path style="fill:#FFFFFF;" d="M25.6196289,50.0585938l-6.0625,1.9091797c0,0,0.9399414-5.0683594-5.8857422-5.0683594
			c0,0-1.2788086-3.3457031-4.2651367-3.2041016c-2.9868164,0.1445313-6.144043,3.2880859-4.0107422,7.1083984
			c0,0-4.4365234,1.9560547-2.5595703,6.5429688c1.8774414,4.5849609,6.144043,1.953125,6.144043,1.953125
			s1.9609375,3.4833984,6.1416016,2.6318359c4.1816406-0.8486328,4.2666016-4.1601563,4.2666016-4.1601563L25.6196289,50.0585938z"
			/>
		<path style="fill:#989798;" d="M13.8344727,62.8154297c0,0,0,0-0.0004883,0c-2.7211914,0-4.3833008-1.6396484-5.0981445-2.5537109
			c-0.5600586,0.2451172-1.4326172,0.5400391-2.3959961,0.5400391c-1.3227539,0-3.125-0.5498047-4.1977539-3.1708984
			c-1.4951172-3.6533203,0.5473633-6.0820313,2.2631836-7.1474609c-0.6621094-1.5732422-0.6079102-3.1748047,0.1699219-4.5771484
			c0.9453125-1.703125,2.8271484-2.8652344,4.7949219-2.9599609c2.8022461-0.1572266,4.2651367,2.1845703,4.7861328,3.2119141
			c2.3320313,0.0810547,4.046875,0.7646484,5.1020508,2.0332031c0.7705078,0.9267578,1.0151367,1.96875,1.0751953,2.7451172
			l7.4316406-2.3398438l-7.6459961,9.4638672c-0.159668,1.4199219-1.3139648,3.8886719-4.8481445,4.6064453
			C14.7851563,62.765625,14.3017578,62.8154297,13.8344727,62.8154297z M9.2504883,58.2519531l0.3828125,0.6796875
			c0.0546875,0.0947266,1.4013672,2.3837891,4.2011719,2.3837891l0,0c0.3671875,0,0.75-0.0400391,1.137207-0.1191406
			c3.5561523-0.7207031,3.6660156-3.4169922,3.6669922-3.4443359l0.0063477-0.2539063l4.8291016-5.9775391l-4.8818359,1.5371094
			l0.2275391-1.2265625c0.0019531-0.0117188,0.2524414-1.5302734-0.7255859-2.6933594
			c-0.8305664-0.9873047-2.3188477-1.4882813-4.4228516-1.4882813h-0.5161133l-0.1845703-0.4824219
			c-0.0097656-0.0253906-1.0869141-2.7255859-3.3808594-2.7255859l-0.1479492,0.0029297
			c-1.4379883,0.0693359-2.8666992,0.9501953-3.5551758,2.1904297C5.440918,47.4375,5.1074219,48.75,6.050293,50.4384766
			l0.4018555,0.71875l-0.7539063,0.3330078c-0.3828125,0.171875-3.7128906,1.796875-2.1679688,5.5722656
			c0.6166992,1.5068359,1.5356445,2.2392578,2.8095703,2.2392578c1.1757813,0,2.2358398-0.6337891,2.246582-0.640625
			L9.2504883,58.2519531z"/>
	</g>
</g>
</svg>
