<?xml version="1.0" encoding="utf-8"?>
<!-- Generator: Adobe Illustrator 15.0.2, SVG Export Plug-In . SVG Version: 6.00 Build 0)  -->
<!DOCTYPE svg PUBLIC "-//W3C//DTD SVG 1.1//EN" "http://www.w3.org/Graphics/SVG/1.1/DTD/svg11.dtd">
<svg version="1.1" id="レイヤー_1" xmlns="http://www.w3.org/2000/svg" xmlns:xlink="http://www.w3.org/1999/xlink" x="0px"
	 y="0px" width="64px" height="64px" viewBox="0 0 64 64" enable-background="new 0 0 64 64" xml:space="preserve">
<g>
	<path fill="#CE1B1B" d="M25.792,3.736c0,0,8.75-6.125,16.625,0l3.875,14.125c0,0-9.166-10.75-22.875-1.5L25.792,3.736z"/>
	<path fill="#F9505D" d="M42.417,3.736c0,0,6.832,12.375-32.709,41.75l6.959,17.5c0,0,29.875-34,30.625-42.875
		S42.417,3.736,42.417,3.736z"/>
	<polygon fill="#CE1B1B" points="34.597,22.952 41.571,31.288 35.833,38.861 29.417,29.986 	"/>
	<polygon fill="#CE1B1B" points="31.575,25.986 39.555,34.959 33.275,43.014 26.029,32.021 	"/>
	<path fill="#F9505D" d="M25.792,3.736c0,0-3.5,16.25,28.5,39.75l-5,16.125c0,0-25.532-28.031-28.875-37.875
		C18.167,15.111,25.792,3.736,25.792,3.736z"/>
</g>
</svg>
