<?xml version="1.0" encoding="UTF-8" standalone="no"?>
<!-- Generator: Adobe Illustrator 15.0.2, SVG Export Plug-In . SVG Version: 6.00 Build 0)  -->

<svg
   xmlns:dc="http://purl.org/dc/elements/1.1/"
   xmlns:cc="http://creativecommons.org/ns#"
   xmlns:rdf="http://www.w3.org/1999/02/22-rdf-syntax-ns#"
   xmlns:svg="http://www.w3.org/2000/svg"
   xmlns="http://www.w3.org/2000/svg"
   xmlns:sodipodi="http://sodipodi.sourceforge.net/DTD/sodipodi-0.dtd"
   xmlns:inkscape="http://www.inkscape.org/namespaces/inkscape"
   version="1.1"
   id="レイヤー_1"
   x="0px"
   y="0px"
   width="64px"
   height="64px"
   viewBox="0 0 64 64"
   enable-background="new 0 0 64 64"
   xml:space="preserve"
   inkscape:version="0.48.5 r10040"
   sodipodi:docname="reminder_ribbon.svg"><metadata
     id="metadata19"><rdf:RDF><cc:Work
         rdf:about=""><dc:format>image/svg+xml</dc:format><dc:type
           rdf:resource="http://purl.org/dc/dcmitype/StillImage" /></cc:Work></rdf:RDF></metadata><defs
     id="defs17" /><sodipodi:namedview
     pagecolor="#ffffff"
     bordercolor="#666666"
     borderopacity="1"
     objecttolerance="10"
     gridtolerance="10"
     guidetolerance="10"
     inkscape:pageopacity="0"
     inkscape:pageshadow="2"
     inkscape:window-width="640"
     inkscape:window-height="480"
     id="namedview15" /><g
     id="g3"><path
       fill="#CE1B1B"
       d="M25.792,3.736c0,0,8.75-6.125,16.625,0l3.875,14.125c0,0-9.166-10.75-22.875-1.5L25.792,3.736z"
       id="path5" /><path
       fill="#F9505D"
       d="M42.417,3.736c0,0,6.832,12.375-32.709,41.75l6.959,17.5c0,0,29.875-34,30.625-42.875   S42.417,3.736,42.417,3.736z"
       id="path7" /><polygon
       fill="#CE1B1B"
       points="34.597,22.952 41.571,31.288 35.833,38.861 29.417,29.986  "
       id="polygon9" /><polygon
       fill="#CE1B1B"
       points="31.575,25.986 39.555,34.959 33.275,43.014 26.029,32.021  "
       id="polygon11" /><path
       fill="#F9505D"
       d="M25.792,3.736c0,0-3.5,16.25,28.5,39.75l-5,16.125c0,0-25.532-28.031-28.875-37.875   C18.167,15.111,25.792,3.736,25.792,3.736z"
       id="path13" /></g></svg>