<?xml version="1.0" encoding="utf-8"?>
<!-- Generator: Adobe Illustrator 15.0.2, SVG Export Plug-In . SVG Version: 6.00 Build 0)  -->
<!DOCTYPE svg PUBLIC "-//W3C//DTD SVG 1.1//EN" "http://www.w3.org/Graphics/SVG/1.1/DTD/svg11.dtd">
<svg version="1.1" id="レイヤー_1" xmlns="http://www.w3.org/2000/svg" xmlns:xlink="http://www.w3.org/1999/xlink" x="0px"
	 y="0px" width="64px" height="64px" viewBox="0 0 64 64" style="enable-background:new 0 0 64 64;" xml:space="preserve">
<g>
	<path style="fill:#CE1B1B;" d="M25.7919922,3.7363281c0,0,8.75-6.125,16.625,0l3.875,14.125c0,0-9.1660156-10.75-22.875-1.5
		L25.7919922,3.7363281z"/>
	<path style="fill:#F9505D;" d="M42.4169922,3.7363281c0,0,5.3955078,14.125-32.7089844,41.75l6.9589844,17.5
		c0,0,29.875-34,30.625-42.875S42.4169922,3.7363281,42.4169922,3.7363281z"/>
	<polygon style="opacity:0.78;fill:#CE1B1B;" points="34.3115234,23.394043 41.5712891,31.4887695 35.8330078,38.8613281 
		29.4169922,29.9863281 	"/>
	<polygon style="opacity:0.78;fill:#CE1B1B;" points="31.574707,25.9858398 39.5546875,34.9589844 33.2412109,42.9023438 
		25.9799805,32.2246094 	"/>
	<path style="fill:#F9505D;" d="M25.7919922,3.7363281c0,0-3.5,16.25,28.5,39.75l-5,16.125c0,0-25.5317383-28.03125-28.875-37.875
		C18.1669922,15.1113281,25.7919922,3.7363281,25.7919922,3.7363281z"/>
</g>
</svg>
