<?xml version="1.0" encoding="UTF-8" standalone="no"?>
<!-- Generator: Adobe Illustrator 15.0.2, SVG Export Plug-In . SVG Version: 6.00 Build 0)  -->

<svg
   xmlns:dc="http://purl.org/dc/elements/1.1/"
   xmlns:cc="http://creativecommons.org/ns#"
   xmlns:rdf="http://www.w3.org/1999/02/22-rdf-syntax-ns#"
   xmlns:svg="http://www.w3.org/2000/svg"
   xmlns="http://www.w3.org/2000/svg"
   xmlns:sodipodi="http://sodipodi.sourceforge.net/DTD/sodipodi-0.dtd"
   xmlns:inkscape="http://www.inkscape.org/namespaces/inkscape"
   version="1.1"
   id="レイヤー_1"
   x="0px"
   y="0px"
   width="64px"
   height="64px"
   viewBox="0 0 64 64"
   enable-background="new 0 0 64 64"
   xml:space="preserve"
   inkscape:version="0.48.4 r9939"
   sodipodi:docname="repeat.svg"><metadata
     id="metadata36"><rdf:RDF><cc:Work
         rdf:about=""><dc:format>image/svg+xml</dc:format><dc:type
           rdf:resource="http://purl.org/dc/dcmitype/StillImage" /></cc:Work></rdf:RDF></metadata><defs
     id="defs34" /><sodipodi:namedview
     pagecolor="#ffffff"
     bordercolor="#666666"
     borderopacity="1"
     objecttolerance="10"
     gridtolerance="10"
     guidetolerance="10"
     inkscape:pageopacity="0"
     inkscape:pageshadow="2"
     inkscape:window-width="640"
     inkscape:window-height="480"
     id="namedview32" /><g
     id="g3"><linearGradient
       id="SVGID_1_"
       gradientUnits="userSpaceOnUse"
       x1="31.9995"
       y1="2.9956"
       x2="31.9995"
       y2="60.9864"><stop
         offset="0"
         style="stop-color:#1FB8FF"
         id="stop6" /><stop
         offset="1"
         style="stop-color:#0070FF"
         id="stop8" /></linearGradient><path
       fill="url(#SVGID_1_)"
       stroke="#0F50F2"
       stroke-width="2"
       stroke-miterlimit="10"
       d="M62.205,50.205c0,6.627-5.373,12-12,12   h-36.41c-6.627,0-12-5.373-12-12v-36.41c0-6.627,5.373-12,12-12h36.41c6.627,0,12,5.373,12,12V50.205z"
       id="path10" /><g
       id="g12"><path
         opacity="0.28"
         fill="#FFFFFF"
         d="M2.672,13.368c-0.032,0.354-0.054,0.71-0.054,1.071v12.594    c0.006,0.006,0.012,0.012,0.017,0.018L2.672,13.368z"
         id="path14" /><path
         opacity="0.28"
         fill="#FFFFFF"
         d="M60.106,23.569c1.188-5.802,1.222-9.417,1.222-10.193    C60.79,7.428,55.797,2.767,49.71,2.767H14.291c-6.076,0-11.063,4.642-11.617,10.572c0.02,0.349,0.497,4.034,1.293,10.307    C11.206,30.7,21.092,35.055,32,35.055C42.945,35.055,52.859,30.669,60.106,23.569z"
         id="path16" /><path
         opacity="0.28"
         fill="#FFFFFF"
         d="M61.328,13.379l0.039,13.667c0.005-0.005,0.01-0.01,0.015-0.015V14.439    C61.382,14.081,61.359,13.729,61.328,13.379z"
         id="path18" /></g><path
       fill="#FFFFFF"
       d="M2.674,27.586c0,0-0.006-10.92-0.028-13.859c-0.027-3.6,3.243-10.89,10.375-10.89   c6.639,0,16.803,0,16.803,0S17.118,3.651,13.02,4.471c-4.098,0.82-7.493,6.044-8.442,9.263C3.198,18.415,2.674,27.586,2.674,27.586   z"
       id="path20" /><path
       fill="#0D62B5"
       d="M61.001,37.832c0,0,0.006,10.233,0.027,12.989c0.026,3.373-3.141,10.207-10.048,10.207   c-6.428,0-16.27,0-16.27,0s12.304-0.764,16.272-1.532c3.967-0.769,7.254-5.663,8.174-8.681   C60.493,46.427,61.001,37.832,61.001,37.832z"
       id="path22" /><path
       fill="none"
       stroke="#FFFFFF"
       stroke-width="4"
       stroke-miterlimit="10"
       d="M53.5,32L53.5,32c0,6.627-5.373,12-12,12h-19   c-4.938,0-9.18-2.983-11.021-7.245"
       id="path24" /><path
       fill="none"
       stroke="#FFFFFF"
       stroke-width="4"
       stroke-miterlimit="10"
       d="M10.5,32L10.5,32c0-6.628,5.372-12,12-12h19   c4.499,0,8.421,2.477,10.475,6.141"
       id="path26" /><polygon
       fill="#FFFFFF"
       points="52.389,18.91 57.271,28.322 46.679,27.846  "
       id="polygon28" /><polygon
       fill="#FFFFFF"
       points="11.514,44.651 7.008,35.055 17.572,35.95  "
       id="polygon30" /></g></svg>