<?xml version="1.0" encoding="utf-8"?>
<!-- Generator: Adobe Illustrator 18.0.0, SVG Export Plug-In . SVG Version: 6.00 Build 0)  -->
<!DOCTYPE svg PUBLIC "-//W3C//DTD SVG 1.1//EN" "http://www.w3.org/Graphics/SVG/1.1/DTD/svg11.dtd">
<svg version="1.1" id="レイヤー_1" xmlns="http://www.w3.org/2000/svg" xmlns:xlink="http://www.w3.org/1999/xlink" x="0px"
	 y="0px" width="64px" height="64px" viewBox="0 0 64 64" style="enable-background:new 0 0 64 64;" xml:space="preserve">
<g>
	<path style="fill:#471E02;" d="M55.8096008,23.2949009c-2.9169998,1.7070999-8.0839996,1.7070999-10.4356003,1.7070999
		c0,0-2.7294998,7.1093006-6.1483994,10.7206974c0,0-0.3692017,5.3007011-1.5264015,10.4834023
		c0,0,1.5078011,7.6132011,2.2988014,11.3544998c-0.7910004,3.4658012-3.9443016,3.4539986-7.2993011,1.0634003
		c-3.722599-2.6523018-3.7973003-8.5586014-3.3890991-11.9023018c-0.4405003-2.4160004-1.3334999-7.6660004-1.3334999-7.6660004
		s-0.9756012-0.6513977-2-1.25c-1.9307003,0.7754021-12.3325005-0.2558975-14.666501-1
		C8.9755898,36.0625,7.8930702,31.6396008,9.4760704,28.0557003C7.4418898,25.4297009,7.88623,20.8027,10.3930998,18.4717007
		c-2.0068693-1.2276001-1.8335295-6.6660004,2.5830002-8.0830011c0.4296999,0.8623009-3.1108704-6.7499995,7.1698999-5.7392993
		c2.9136009-1.6767001,12.7108994,0.0595999,17.7328987,0.5341997c5.1807022-1.6475,13.097702-1.7821999,17.9307022-1.1162
		V23.2949009z"/>
	<g>
		<g>
			<path style="fill:#281000;" d="M29.4745998,53.0253983c0,0,0.5844994-4.4696999,2.0015011-5.2196999
				c1.4169998-0.75-0.5865002-4.0830002-2.0015011-1.75C28.0596008,48.3895988,29.4745998,53.0253983,29.4745998,53.0253983z"/>
		</g>
		<path style="fill:#281000;" d="M55.8096008,18.9424c0,0-6.5009995,3.0830002-12.0009995,3.25
			c0,0-3.9160004,9.5321999-7.1660004,9.8076c0,0,2.25,5.3583984,1.3330002,8.8583984s1.9169998-5.8330002,1.9169998-5.8330002
			l5.8330002-9.7499981l9.1660004-1.5312996L55.8096008,18.9424z"/>
		<path style="fill:#281000;" d="M8.9853497,33.732399c0,0,2.5742502,1.7929993,5.0742502,2.0429993s11.750001-0.75,12.166501,0
			c0.4164982,0.75,1.8329983,3.7656021,1.8329983,3.7656021s-1.8329983-2.0996017-4.8329983-1.4326019
			S8.9990196,37.8993988,8.9853497,33.732399z"/>
		<path style="fill:#281000;" d="M8.9853497,24.3584003c0,0,2.9072504,3.3330002,5.6572504,3.1669998
			c2.749999-0.1669998,4.4170008,0.9169998,2.9170008,1.0830002c-1.5,0.1669998-8.1509104-0.3516006-8.5742512-1.3271999
			C8.5620098,26.3057003,8.9853497,24.3584003,8.9853497,24.3584003z"/>
		<path style="fill:#281000;" d="M9.1894503,15.0839996c0,0,2.3696499,2.0244007,3.7031498,1.9414005s6.8329992,0.5,5.999999,1.25
			c-0.8329983,0.75-8.1615992,0.8271008-8.7582989,0C9.5375996,17.4473,9.1894503,15.0839996,9.1894503,15.0839996z"/>
		<path style="fill:#281000;" d="M13.4603996,8.1924c0,0,2.4361,2.3330002,5.517601,2.8330002
			c3.0816002,0.5-6.5019007,0.6357002-6.2519007,0C12.9761,10.3886995,13.4603996,8.1924,13.4603996,8.1924z"/>
	</g>
	<path style="fill:#110700;" d="M36.9473,61.1357002c-1.4081993,0-3.0439987-0.6357002-4.7299995-1.8368988
		c-4.3178997-3.0761032-4.0771999-9.705101-3.7455997-12.5517006c-0.3770008-2.0762024-1.0479012-5.9990997-1.2520008-7.1963005
		c-0.3041992-0.1973-0.8085995-0.5195999-1.352499-0.8456993c-0.4570007,0.107399-1.2349014,0.2050972-2.6865005,0.2050972
		c-3.7378006,0-10.1957998-0.7001991-12.1231003-1.3144989c-1.0223999-0.3261986-1.8969603-1.1953011-2.4614096-2.4482002
		c-0.9091806-2.0175972-0.9233403-4.7089996-0.0600605-6.9833984c-1.8115201-2.767601-1.4858398-7.027401,0.6816397-9.6504002
		c-0.6913996-0.8721008-1.0126896-2.2032013-0.8393497-3.6524c0.2719698-2.2676001,1.6147404-4.0879002,3.6440802-4.9941006
		c-0.3013-1.6044998-0.0439997-3.0127001,0.7391996-4.0537c1.2358999-1.6426001,3.648901-2.3223,7.2178001-2.0116999
		c0.9775009-0.4677999,2.4741001-0.6963,4.5596008-0.6963c2.9618988,0,6.5863991,0.4442999,9.7840996,0.8369
		c1.2764015,0.1561999,2.461998,0.3017001,3.4678001,0.4004002C41.9473,3.0576,47.0155983,2.8643,49.6875,2.8643
		c2.2636986,0,4.4188995,0.1317999,6.2354012,0.3817999l0.7157974,0.0986001v20.4258003l-0.4101982,0.2402
		c-2.8945007,1.6943989-7.6240005,1.8115997-10.2919998,1.8204002c-0.6982002,1.7080002-3.0205002,7.0625-5.9071999,10.2430992
		c-0.0956993,1.1786995-0.5078011,5.7061005-1.4834023,10.1416016c0.2285004,1.1474991,1.5479012,7.7901001,2.2637024,11.1728973
		l0.0370979,0.1787033l-0.0401001,0.1776962C40.3144989,59.8993988,38.9081993,61.1357002,36.9473,61.1357002z M26.0438995,36.8848
		l0.3506012,0.2050018c1.033699,0.6044998,2.0009995,1.2490997,2.0419998,1.2763977l0.2968998,0.1982994l0.0601006,0.3525009
		c0,0,0.8919983,5.2431984,1.3314991,7.6562004L30.1478996,46.6973l-0.0156002,0.125
		c-0.2357998,1.9326019-0.7133999,8.4472008,3.0473995,11.1268997c1.3828011,0.9854012,2.7206993,1.5283012,3.767601,1.5283012
		c1.1376991,0,1.8583984-0.6318016,2.2001991-1.9305992c-0.7919998-3.7647018-2.2471008-11.1044998-2.2617989-11.1797028
		l-0.0331993-0.1708984l0.0370979-0.1709023c1.1299019-5.0585976,1.5049019-10.3075981,1.5088005-10.3603973l0.0205002-0.2968025
		l0.205101-0.2158966c3.267601-3.4521027,5.9491997-10.3779011,5.9766006-10.4472027l0.2040977-0.5321999h0.5693016
		c2.077198,0,6.8075981,0,9.6064987-1.3730984V4.7988C53.3964996,4.6171999,51.5839996,4.5215001,49.6875,4.5215001
		c-4.4434013,0-8.6553001,0.5292997-11.5575981,1.4520998l-0.1611023,0.0518003L37.8008003,6.0088
		C36.7480011,5.9092002,35.4854012,5.7549,34.1211014,5.5879002C30.9706993,5.2020998,27.3999004,4.7637,24.5391006,4.7637
		c-2.4214001,0-3.5004997,0.3291001-3.9794998,0.6044998l-0.2305012,0.1328001l-0.2642002-0.0264001
		C17.0170994,5.1738,14.9716997,5.6348,14.0864,6.8105001c-0.5864,0.7792997-0.6924,1.9609995-0.2988005,3.3261995l0.1147003,0.3975
		l-0.2255001,0.4209003L13.4277,11.2861004h-0.5033998c-2.3760004,0.9238997-2.8193007,3.1044998-2.8993998,3.7725
		c-0.1435509,1.1962996,0.1933994,2.335,0.8007994,2.7060003l0.9321003,0.5703983l-0.8002996,0.7441006
		c-2.2070103,2.0527-2.6083803,6.1680012-0.8262005,8.4687996l0.3028002,0.3906002l-0.1997004,0.4521008
		c-0.9795198,2.2178001-0.7690697,4.6494007-0.1265001,6.075201c0.3687,0.8183975,0.8848,1.3691978,1.4531002,1.5497971
		c1.6220999,0.517601,7.7792997,1.2364006,11.6197004,1.2364006c1.8085995,0,2.3603001-0.1651001,2.4862995-0.2159004
		L26.0438995,36.8848z"/>
</g>
<g>
</g>
<g>
</g>
<g>
</g>
<g>
</g>
<g>
</g>
<g>
</g>
</svg>
