<?xml version="1.0" encoding="UTF-8" standalone="no"?>
<!-- Generator: Adobe Illustrator 15.0.0, SVG Export Plug-In . SVG Version: 6.00 Build 0)  -->

<svg
   xmlns:dc="http://purl.org/dc/elements/1.1/"
   xmlns:cc="http://creativecommons.org/ns#"
   xmlns:rdf="http://www.w3.org/1999/02/22-rdf-syntax-ns#"
   xmlns:svg="http://www.w3.org/2000/svg"
   xmlns="http://www.w3.org/2000/svg"
   xmlns:sodipodi="http://sodipodi.sourceforge.net/DTD/sodipodi-0.dtd"
   xmlns:inkscape="http://www.inkscape.org/namespaces/inkscape"
   version="1.1"
   id="レイヤー_1"
   x="0px"
   y="0px"
   width="64px"
   height="64px"
   viewBox="0 0 64 64"
   style="enable-background:new 0 0 64 64;"
   xml:space="preserve"
   inkscape:version="0.48.5 r10040"
   sodipodi:docname="reversed_raised_hand_with_fingers_splayed.svg"><metadata
     id="metadata23"><rdf:RDF><cc:Work
         rdf:about=""><dc:format>image/svg+xml</dc:format><dc:type
           rdf:resource="http://purl.org/dc/dcmitype/StillImage" /></cc:Work></rdf:RDF></metadata><defs
     id="defs21" /><sodipodi:namedview
     pagecolor="#ffffff"
     bordercolor="#666666"
     borderopacity="1"
     objecttolerance="10"
     gridtolerance="10"
     guidetolerance="10"
     inkscape:pageopacity="0"
     inkscape:pageshadow="2"
     inkscape:window-width="640"
     inkscape:window-height="480"
     id="namedview19" /><g
     id="g3"><path
       style="fill:#FFB997;"
       d="M35.1533203,58.7294922c-8.1123047,0-12.2119141-4.234375-13.4697266-6.046875   c-3.2900391-4.7441406-6.9638672-12.1689453-6.9638672-12.1689453s-3.828125-4.2539063-4.8984375-5.5322266   C8.75,33.703125,12.4257813,29.5771484,16.9384766,34.0224609c3.3164063,3.2666016,3.7109375,4.2714844,3.7109375,4.2714844   l3.1831055-0.7089844l-0.0834961-4.25c0,0-1.9121094-13.0976563-2.8300781-15.546875   C20,15.3398438,18.7333984,10.8242188,22.3896484,11.0537109s4.9580078,6.5820313,4.9580078,6.5820313   s2.4296875,9.6074219,2.5058594,12.2861328l1.53125-0.4785156c0,0-0.2666016-6.3007813-0.5927734-10.5068359   c-0.3271484-4.2060547-0.84375-9.6435547-1.2255859-11.4804688s3.1391602-3.8261719,4.8994141,0   c1.7597656,3.8271484,1.7617188,10.4091797,1.7617188,10.4091797l1.0410156,11.3193359l1.8457031,0.2910156   c0,0,1.4794922-8.2978516,1.5507813-11.3808594c0.0703125-3.0830078,0.9179688-7.5761719,1.0703125-9.3369141   c0.1533203-1.7607422,3.8271484-0.7646484,4.515625,2.5253906c0.6894531,3.2910156-0.6884766,7.7294922-0.6884766,7.7294922   l-1.2617188,11.9365234l1.3193359,1.0517578c2.8574219-7.6523438,2.5224609-6.4726563,3.1191406-9.9677734   c0.5361328-3.1376953,1.4150391-5.7792969,1.6445313-7.1572266s3.9785156-0.6132813,3.9804688,3.2138672   c0.0009766,4.9746094-3.7119141,17.6025391-3.7119141,17.6025391s0.3447266,5.6650391-0.1152344,9.2617188   c-0.4589844,3.5957031-1.2646484,7.1396484-2.7548828,9.3359375   C45.5556641,57.5722656,42.8837891,58.7294922,35.1533203,58.7294922z"
       id="path5" /><path
       style="fill:#DE9170;"
       d="M23.5844727,34.6162109c0,0-1.1269531-7.5546875,0.6015625-5.2216797   c1.7294922,2.3339844,2.2949219,4.5693359,2.2949219,4.5693359S25.4282227,39.7158203,23.5844727,34.6162109z"
       id="path7" /><path
       style="fill:#DE9170;"
       d="M34.7373047,41.8339844c0,0-0.2626953-4.0859375-0.8720703-7.7294922   c0.0625-0.0625,0.0996094-0.1064453,0.0996094-0.1064453s-0.078125-6.0087891-1.1738281-7.3740234   c-0.6240234-0.7773438-1.2192383,0.4853516-1.527832,2.1181641c-0.2080078,0.2734375-0.2553711,0.8066406-0.190918,1.5029297   c-0.0532227,0.7851563-0.0307617,1.5439453,0.0957031,2.1142578c0.2265625,1.0195313,0.5224609,1.6181641,0.8364258,1.9511719   C33.0986328,37.8994141,34.7373047,41.8339844,34.7373047,41.8339844z"
       id="path9" /><path
       style="fill:#DE9170;"
       d="M38.1591797,31.4599609c0,0,0.6845703-5.3466797,2.0068359-5.3007813   c1.3212891,0.0449219,1.4882813,6.3720703,1.4882813,6.3720703S38.4345703,34.1191406,38.1591797,31.4599609z"
       id="path11" /><path
       style="fill:#DE9170;"
       d="M45.1982422,32.8398438c0,0,1.6367188-3.59375,2.3720703-3.2724609   c0.734375,0.3212891-0.7607422,5.5078125-0.7607422,5.5078125S44.4521484,36.9931641,45.1982422,32.8398438z"
       id="path13" /><path
       style="fill:#DE9170;"
       d="M49.8486328,48.9443359c-1.1484375,1.8251953-3.5703125,8.3964844-13.5957031,8.0244141   c-10.0244141-0.3720703-9.1191406-4.9736328-11.5761719-5.8154297c-2.4570313-0.8427734-4.9833984-2.5263672-4.9833984-2.5263672   s2.7568359,10.0263672,17.1826172,10.1025391C49.4658203,58.8818359,49.8486328,48.9443359,49.8486328,48.9443359z"
       id="path15" /><path
       style="fill:#420707;"
       d="M35.1533203,59.3730469c-9.1469727,0-13.265625-5.2675781-13.9985352-6.3232422   c-3.0961914-4.4638672-6.5629883-11.3515625-6.972168-12.1708984c-0.5039063-0.5595703-3.8491211-4.2832031-4.8549805-5.484375   c-0.4023438-0.4804688-0.4458008-1.1894531-0.1157227-1.8964844c0.4951172-1.0605469,1.8120117-2.1298828,3.6376953-2.1298828   c1.0541992,0,2.6977539,0.3808594,4.5405273,2.1953125c2.2177734,2.1845703,3.1708984,3.3925781,3.5761719,4l2.2124023-0.4921875   l-0.0732422-3.7236328c-0.0126953-0.0498047-1.9057617-12.9765625-2.7895508-15.3330078   c-1.1713867-3.1220703-1.3344727-5.3271484-0.484375-6.5537109c0.3598633-0.5195313,1.1123047-1.1347656,2.5986328-1.0498047   c4.1005859,0.2578125,5.4907227,6.8164063,5.5483398,7.0947266c0.0849609,0.3349609,2.0546875,8.1464844,2.4511719,11.5615234   l0.2900391-0.0908203c-0.0698242-1.5664063-0.3007813-6.5234375-0.5693359-9.9902344   c-0.3442383-4.421875-0.8530273-9.6611328-1.2143555-11.3994141c-0.1313477-0.6328125,0.0532227-1.3164063,0.5073242-1.8740234   c0.5532227-0.6796875,1.4125977-1.0859375,2.2988281-1.0859375c0.7954102,0,2.2832031,0.3320313,3.3085938,2.5605469   c1.7978516,3.9101563,1.8203125,10.4023438,1.8203125,10.6777344l0.9921875,10.7617188l0.7255859,0.1142578   c0.3417969-1.9794922,1.3740234-8.1484375,1.4326172-10.6611328c0.046875-2.0644531,0.4277344-4.6923828,0.7333984-6.8037109   c0.1552734-1.0673828,0.2880859-1.9882813,0.3388672-2.5742188c0.0771484-0.8789063,0.7441406-1.4472656,1.7011719-1.4472656   c1.5732422,0,3.5830078,1.4902344,4.0859375,3.8964844c0.6787109,3.2382813-0.5107422,7.4082031-0.6845703,7.9902344   l-1.2177734,11.5244141l0.3496094,0.2792969l0.6582031-1.7558594c1.6269531-4.3330078,1.6269531-4.3330078,1.9902344-6.5039063   l0.1279297-0.7607422c0.3242188-1.8964844,0.7685547-3.6015625,1.125-4.9716797   c0.2314453-0.8876953,0.4316406-1.6542969,0.5195313-2.1835938c0.1181641-0.7128906,0.7490234-1.1738281,1.6054688-1.1738281   c1.4726563,0,3.6523438,1.4277344,3.6533203,4.4941406c0.0009766,4.8212891-3.3193359,16.3505859-3.7060547,17.6767578   c0.046875,0.8408203,0.3056641,5.8916016-0.1259766,9.2695313c-0.5712891,4.4746094-1.5068359,7.6201172-2.8603516,9.6152344   C45.8603516,58.2705078,42.7851563,59.3730469,35.1533203,59.3730469z M12.8496094,32.6552734   c-1.2529297,0-2.1591797,0.71875-2.4707031,1.3876953c-0.1240234,0.265625-0.1201172,0.4580078-0.0644531,0.5253906   c1.0512695,1.2548828,4.8457031,5.4726563,4.8837891,5.5146484c0.0390625,0.0439453,0.0722656,0.0927734,0.0986328,0.1455078   c0.0366211,0.0732422,3.690918,7.4375,6.9155273,12.0869141c0.6689453,0.9638672,4.4350586,5.7705078,12.940918,5.7705078   c7.9365234,0,10.1464844-1.2822266,12.0957031-4.1572266c1.2207031-1.7988281,2.1123047-4.8457031,2.6494141-9.0556641   c0.4472656-3.4951172,0.1142578-9.0859375,0.1113281-9.1416016c-0.0048828-0.0742188,0.0039063-0.1494141,0.0253906-0.2207031   c0.0361328-0.125,3.6865234-12.5957031,3.6855469-17.4208984c-0.0009766-2.3994141-1.6259766-3.2070313-2.3662109-3.2070313   c-0.1914063,0-0.328125,0.0507813-0.3359375,0.0986328c-0.0976563,0.5859375-0.2939453,1.3408203-0.5429688,2.296875   c-0.3505859,1.3457031-0.7871094,3.0214844-1.1015625,4.8632813l-0.1279297,0.7558594   c-0.3837891,2.2949219-0.4150391,2.3789063-2.0546875,6.7441406l-0.9677734,2.5849609   c-0.0722656,0.1933594-0.2333984,0.3398438-0.4316406,0.3955078s-0.4121094,0.0107422-0.5732422-0.1171875l-1.3193359-1.0527344   c-0.171875-0.1367188-0.2617188-0.3525391-0.2392578-0.5712891l1.2617188-11.9355469   c0.0048828-0.0419922,0.0136719-0.0830078,0.0253906-0.1230469c0.0136719-0.0429688,1.3203125-4.3222656,0.6738281-7.4072266   c-0.3925781-1.8740234-1.8935547-2.8730469-2.8261719-2.8730469c-0.3945313,0-0.4091797,0.1699219-0.4179688,0.2714844   c-0.0537109,0.6220703-0.1904297,1.5605469-0.3476563,2.6474609c-0.3007813,2.0771484-0.6757813,4.6621094-0.7207031,6.6484375   c-0.0712891,3.0976563-1.5,11.1386719-1.5605469,11.4794922c-0.0615234,0.3447266-0.3886719,0.5771484-0.734375,0.5224609   l-1.8457031-0.2910156c-0.2910156-0.0458984-0.5136719-0.2832031-0.5400391-0.5761719l-1.0410156-11.3203125   c-0.0029297-0.1230469-0.0263672-6.5458984-1.7060547-10.1982422c-0.5371094-1.1679688-1.296875-1.8115234-2.1386719-1.8115234   c-0.4951172,0-0.9936523,0.234375-1.300293,0.6113281C30.3198242,6.6757813,30.125,6.9804688,30.1967773,7.3251953   c0.3984375,1.9169922,0.9155273,7.4257813,1.2368164,11.5615234c0.3237305,4.1689453,0.5917969,10.4667969,0.5942383,10.5292969   c0.0126953,0.2919922-0.1728516,0.5556641-0.4511719,0.6425781l-1.53125,0.4775391   c-0.1918945,0.0605469-0.4018555,0.0273438-0.565918-0.0908203c-0.1640625-0.1171875-0.2636719-0.3037109-0.2695313-0.5058594   c-0.0732422-2.5771484-2.4624023-12.0507813-2.4863281-12.1464844c-0.0185547-0.0869141-1.253418-5.9003906-4.3745117-6.0966797   c-1.0307617-0.0683594-1.3657227,0.3632813-1.4594727,0.4980469c-0.5698242,0.8222656-0.3393555,2.7792969,0.6318359,5.3681641   c0.9316406,2.4853516,2.7861328,15.1425781,2.8647461,15.6796875l0.0898438,4.3300781   c0.0058594,0.3066406-0.2045898,0.5742188-0.503418,0.640625l-3.1831055,0.7089844   c-0.3120117,0.0683594-0.6235352-0.0986328-0.7392578-0.3925781c-0.0112305-0.0224609-0.4921875-1.0224609-3.5634766-4.0478516   C15.2739258,33.2861328,14.0161133,32.6552734,12.8496094,32.6552734z"
       id="path17" /></g></svg>