<?xml version="1.0" encoding="utf-8"?>
<!-- Generator: Adobe Illustrator 15.0.2, SVG Export Plug-In . SVG Version: 6.00 Build 0)  -->
<!DOCTYPE svg PUBLIC "-//W3C//DTD SVG 1.1//EN" "http://www.w3.org/Graphics/SVG/1.1/DTD/svg11.dtd">
<svg version="1.1" id="レイヤー_1" xmlns="http://www.w3.org/2000/svg" xmlns:xlink="http://www.w3.org/1999/xlink" x="0px"
	 y="0px" width="64px" height="64px" viewBox="0 0 64 64" style="enable-background:new 0 0 64 64;" xml:space="preserve">
<g>
	
		<radialGradient id="SVGID_1_" cx="33.1513672" cy="43.3896484" r="19.6655388" gradientTransform="matrix(1.3067454 0 0 0.1396991 -7.831583 37.5586128)" gradientUnits="userSpaceOnUse">
		<stop  offset="0" style="stop-color:#6D6D6D"/>
		<stop  offset="0.2618218" style="stop-color:#707070;stop-opacity:0.7381783"/>
		<stop  offset="0.4842476" style="stop-color:#7B7B7B;stop-opacity:0.5157524"/>
		<stop  offset="0.6923064" style="stop-color:#8C8C8C;stop-opacity:0.3076936"/>
		<stop  offset="0.8904338" style="stop-color:#A5A5A5;stop-opacity:0.1095662"/>
		<stop  offset="1" style="stop-color:#B6B6B6;stop-opacity:0"/>
	</radialGradient>
	<path style="fill:url(#SVGID_1_);" d="M62.6230469,43.6181641c0,1.7617188-12.1484375,3.1884766-27.1357422,3.1884766
		c-14.9848633,0-27.1337891-1.4267578-27.1337891-3.1884766c0-1.7578125,12.1489258-3.1845703,27.1337891-3.1845703
		C50.4746094,40.4335938,62.6230469,41.8603516,62.6230469,43.6181641z"/>
	<g>
		<linearGradient id="SVGID_2_" gradientUnits="userSpaceOnUse" x1="42.0253906" y1="42.6386719" x2="51.6913719" y2="36.5556831">
			<stop  offset="0" style="stop-color:#E9DFFF"/>
			<stop  offset="0.0666503" style="stop-color:#D1C9E2"/>
			<stop  offset="0.1731438" style="stop-color:#AFAABA"/>
			<stop  offset="0.2781415" style="stop-color:#95929B"/>
			<stop  offset="0.3798162" style="stop-color:#828185"/>
			<stop  offset="0.4766967" style="stop-color:#777778"/>
			<stop  offset="0.563636" style="stop-color:#737373"/>
			<stop  offset="0.6339943" style="stop-color:#6B6B6B"/>
			<stop  offset="0.7408475" style="stop-color:#565656"/>
			<stop  offset="0.8704311" style="stop-color:#343434"/>
			<stop  offset="1" style="stop-color:#0B0B0B"/>
		</linearGradient>
		<path style="fill:url(#SVGID_2_);" d="M47.7822266,29.8496094c0,0,0.4824219,3.4101563,2.4169922,4.5253906
			s1.53125,7.1591797,1.53125,7.1591797s-1.8544922,0.8867188-1.53125,2.3369141h4.4326172
			c0,0,0.4023438-0.7265625-0.4033203-1.9345703s2.9003906-2.8203125,2.9003906-2.8203125l-3.1416016-7.2519531
			C53.9873047,31.8642578,50.1191406,28.7216797,47.7822266,29.8496094z"/>
		<path style="fill:#3A1405;" d="M54.6318359,44.1210938h-4.4326172c-0.1171875,0-0.21875-0.0810547-0.2441406-0.1953125
			c-0.3115234-1.3984375,1.0839844-2.2978516,1.5341797-2.5478516c0.0976563-1.7363281,0.0205078-5.9589844-1.4150391-6.7861328
			c-2.0166016-1.1630859-2.5195313-4.5634766-2.5390625-4.7070313c-0.015625-0.1074219,0.0400391-0.2128906,0.1386719-0.2607422
			c0.3701172-0.1777344,0.7949219-0.2685547,1.2626953-0.2685547c2.3320313,0,5.0917969,2.2207031,5.2080078,2.3144531
			c0.03125,0.0253906,0.0566406,0.0576172,0.0722656,0.0947266l3.1416016,7.2519531
			c0.0546875,0.1269531-0.0029297,0.2734375-0.1298828,0.3291016c-0.7109375,0.3095703-2.6083984,1.2880859-2.84375,2.0888672
			c-0.0390625,0.1357422-0.0234375,0.2509766,0.0517578,0.3632813c0.8798828,1.3193359,0.4335938,2.1591797,0.4140625,2.1943359
			C54.8066406,44.0712891,54.7226563,44.1210938,54.6318359,44.1210938z M50.4150391,43.6210938h4.0400391
			c0.0546875-0.2333984,0.0839844-0.7675781-0.4345703-1.5458984c-0.15625-0.2353516-0.1962891-0.5048828-0.1152344-0.7822266
			c0.296875-1.0087891,2.2011719-1.9785156,2.8964844-2.3027344l-3.0185547-6.96875
			c-0.3701172-0.2890625-2.8486328-2.1660156-4.8466797-2.1660156c-0.3203125,0-0.6132813,0.0488281-0.875,0.1464844
			c0.1337891,0.7128906,0.7089844,3.2607422,2.2626953,4.15625c2.0458984,1.1796875,1.6728516,7.1396484,1.6552734,7.3925781
			c-0.0058594,0.0898438-0.0595703,0.1699219-0.140625,0.2089844
			C51.8232422,41.7675781,50.3408203,42.4951172,50.4150391,43.6210938z"/>
	</g>
	<g>
		<linearGradient id="SVGID_3_" gradientUnits="userSpaceOnUse" x1="31.3349609" y1="15.7651367" x2="31.334959" y2="42.5577316">
			<stop  offset="0" style="stop-color:#E9DFFF"/>
			<stop  offset="0.0666503" style="stop-color:#D1C9E2"/>
			<stop  offset="0.1731438" style="stop-color:#AFAABA"/>
			<stop  offset="0.2781415" style="stop-color:#95929B"/>
			<stop  offset="0.3798162" style="stop-color:#828185"/>
			<stop  offset="0.4766967" style="stop-color:#777778"/>
			<stop  offset="0.563636" style="stop-color:#737373"/>
			<stop  offset="0.6466937" style="stop-color:#6B6B6B"/>
			<stop  offset="0.7727759" style="stop-color:#565656"/>
			<stop  offset="0.9254467" style="stop-color:#343434"/>
			<stop  offset="1" style="stop-color:#212121"/>
		</linearGradient>
		<path style="fill:url(#SVGID_3_);" d="M60.3525391,42.0175781c-0.7255859-0.6445313,0.4033203-3.7070313,0.4033203-3.7070313
			c-0.6445313-0.7255859-2.7402344-4.3515625-2.7402344-4.3515625c1.1279297-2.4980469,0.3222656-9.9111328-1.2080078-11.3613281
			s-3.6259766-4.4321289-7.9775391-4.3515625s-3.9482422-1.1279297-6.1240234-0.7250977s-8.2998047,2.0952148-10.1538086,1.934082
			c-1.8535156-0.1611328-5.0766602-1.6923828-6.9301758-1.2895508s-2.175293-0.2416992-5.0761719,0
			s-3.1425781,3.3041992-3.1425781,3.3041992c-0.5639648,0.0805664-0.8867188,0.9667969-0.8867188,0.9667969
			c-1.4506836,0.0805664-3.1425781,2.7397461-3.3842773,4.109375c-0.2416992,1.3701172-2.3369141,2.4980469-2.3369141,2.4980469
			c-1.3701172,0.0800781-2.0952148-1.2890625-2.5786133-0.6445313s0.7255859,2.6591797,0.7255859,2.6591797
			c-4.6733398-0.4033203-5.8828125-2.3369141-7.171875-4.0292969c-0.4907227-0.644043,0.3105469,1.7919922,0.5639648,2.3369141
			c1.6118164,3.4648438,5.0766602,5.3183594,5.0766602,5.3183594S7.25,36.3769531,7.652832,36.9404297
			s1.8535156,1.3701172,3.7871094,0.9677734s5.0766602-2.9013672,5.0766602-2.9013672
			c0.5639648,0,1.2089844-0.4833984,1.2089844-0.4833984c1.128418,0.2412109,3.1425781-0.4033203,3.1425781-0.4033203
			s0.9667969,0.4033203,1.6918945,0.4033203s2.7397461,0.6445313,2.7397461,0.6445313l0.0551758,0.0087891
			c0.984375,2.7060547,2.9301758,3.5009766,3.1679688,3.8173828c0.2416992,0.3222656,2.0952148,2.8203125,0.0805664,3.4648438
			s-1.1279297,1.4121094-1.1279297,1.4121094h4.5932617c0.4033203-0.9667969-0.65625-1.5732422-0.65625-1.5732422
			c1.8764648-1.6689453,0.3769531-5.4199219,0.0595703-6.1503906c6.6635742,1.6630859,14.2973633-0.6591797,14.8598633-1.3017578
			c0.5644531-0.6445313,2.7626953-3.9824219,2.7626953-3.9824219c0.2412109,2.2558594,4.5703125,5.0302734,5.0537109,4.9492188
			s3.3837891,6.6884766,3.3837891,6.6884766c-2.1757813,0.0810547-1.8535156,1.3701172-1.8535156,1.3701172h4.6738281
			C61.4804688,43.46875,61.078125,42.6621094,60.3525391,42.0175781z"/>
		<path style="fill:#3A1405;" d="M60.3525391,44.1210938h-4.6738281c-0.1142578,0-0.2148438-0.078125-0.2421875-0.1894531
			c-0.0058594-0.0205078-0.1230469-0.5097656,0.21875-0.9648438c0.2861328-0.3798828,0.7919922-0.6113281,1.5087891-0.6894531
			c-1.2480469-2.8867188-2.6855469-5.8964844-3.0673828-6.2207031c-0.7861328-0.1240234-4.3300781-2.421875-5.109375-4.578125
			c-0.6328125,0.9521484-2.0234375,3.0253906-2.4667969,3.5322266c-0.4990234,0.5693359-4.9853516,1.9755859-9.8984375,1.9755859
			c-1.6875,0-3.2783203-0.1630859-4.7368164-0.4853516c0.4726563,1.2412109,1.3491211,4.15625-0.0869141,5.7646484
			c0.3994141,0.3349609,0.8154297,0.9482422,0.5009766,1.7021484c-0.0390625,0.0927734-0.1293945,0.1533203-0.2304688,0.1533203
			h-4.5932617c-0.0600586,0-0.1181641-0.0214844-0.1635742-0.0605469c-0.1323242-0.1152344-0.3369141-0.4003906-0.2661133-0.7470703
			c0.0913086-0.4453125,0.5756836-0.8027344,1.4814453-1.0927734c0.3867188-0.1240234,0.6186523-0.3222656,0.7099609-0.6074219
			c0.2060547-0.6464844-0.3369141-1.6992188-0.9145508-2.46875c-0.0302734-0.0380859-0.1767578-0.1396484-0.3056641-0.2294922
			c-0.6674805-0.4628906-2.0424805-1.4160156-2.8500977-3.5273438c-0.5932617-0.1865234-2.0625-0.6142578-2.6069336-0.6142578
			c-0.6450195,0-1.4418945-0.2871094-1.7026367-0.3886719c-0.3330078,0.1005859-1.5405273,0.4423828-2.543457,0.4423828
			c-0.1943359,0-0.3725586-0.0126953-0.53125-0.0390625c-0.2006836,0.1347656-0.6923828,0.4306641-1.175293,0.4658203
			c-0.4741211,0.3701172-3.2792969,2.5166016-5.1166992,2.8994141c-0.3623047,0.0751953-0.7270508,0.1132813-1.0839844,0.1132813
			c-1.387207,0-2.5375977-0.59375-2.9575195-1.1806641c-0.3793945-0.53125-0.3325195-1.7929688-0.300293-2.2617188
			c-0.6870117-0.3984375-3.5810547-2.2148438-5.0410156-5.3525391c-0.0102539-0.0214844-0.9306641-2.2949219-0.690918-2.6708984
			c0.0458984-0.0722656,0.1469727-0.1289063,0.2324219-0.1289063c0.1435547,0,0.2421875,0.1044922,0.3198242,0.2060547
			l0.2080078,0.2744141c1.1708984,1.5546875,2.3803711,3.1591797,6.3125,3.609375
			c-0.362793-0.6904297-0.9067383-1.9345703-0.4731445-2.5126953c0.1362305-0.1806641,0.3066406-0.2724609,0.5073242-0.2724609
			c0.2543945,0,0.5014648,0.1503906,0.7875977,0.3251953c0.3813477,0.2324219,0.8134766,0.4960938,1.3676758,0.4951172
			l0.0473633-0.0009766c0.3095703-0.1767578,1.9614258-1.1699219,2.159668-2.2929688
			c0.2363281-1.3413086,1.8681641-4.0415039,3.4560547-4.2983398c0.1162109-0.2583008,0.3925781-0.7612305,0.8354492-0.9326172
			c0.1108398-0.6865234,0.6914063-3.1342773,3.347168-3.3554688c0.4589844-0.0385742,0.8759766-0.0571289,1.2753906-0.0571289
			c0.7172852,0,1.2265625,0.0610352,1.6757813,0.1147461c0.7163086,0.0854492,1.2988281,0.1210938,2.0927734-0.0527344
			c0.2231445-0.0483398,0.4741211-0.0732422,0.746582-0.0732422c1.0952148,0,2.4160156,0.3837891,3.6933594,0.7543945
			c0.9624023,0.2792969,1.8710938,0.5429688,2.5649414,0.6035156c1.2700195,0.1118164,4.6293945-0.6816406,7.2875977-1.3061523
			c1.1503906-0.2700195,2.1435547-0.503418,2.7988281-0.6245117c0.9941406-0.1860352,1.5654297-0.0268555,2.2089844,0.1948242
			c0.7304688,0.2509766,1.6347656,0.5708008,3.9560547,0.5258789l0.1767578-0.0014648
			c3.7041016,0,5.7597656,2.1367188,7.2607422,3.6967773c0.2548828,0.2651367,0.4921875,0.5117188,0.7167969,0.7246094
			c1.5976563,1.5146484,2.4130859,8.8242188,1.3154297,11.5263672c0.3525391,0.6054688,2.0888672,3.5722656,2.6474609,4.2021484
			c0.0615234,0.0693359,0.0800781,0.1660156,0.0478516,0.2529297c-0.4306641,1.1699219-0.8789063,3.0712891-0.4716797,3.4335938
			c0.4111328,0.3652344,0.8789063,0.9169922,0.7714844,1.4697266c-0.0693359,0.3574219-0.3564453,0.6289063-0.8535156,0.8056641
			C60.4091797,44.1162109,60.3808594,44.1210938,60.3525391,44.1210938z M55.9160156,43.6210938h4.3916016
			c0.2109375-0.0800781,0.453125-0.2148438,0.4921875-0.4150391c0.046875-0.2441406-0.1826172-0.6181641-0.6132813-1.0019531
			c-0.7578125-0.6728516,0.0175781-3.0869141,0.2851563-3.84375c-0.7363281-0.9306641-2.5898438-4.1337891-2.6728516-4.2763672
			c-0.0400391-0.0693359-0.0439453-0.1542969-0.0107422-0.2275391c1.0625-2.3535156,0.2978516-9.703125-1.1523438-11.0771484
			c-0.2304688-0.2182617-0.4726563-0.4702148-0.7333984-0.7412109c-1.4394531-1.4956055-3.4091797-3.543457-6.9003906-3.543457
			l-0.1669922,0.0014648c-2.4160156,0.0375977-3.4013672-0.3032227-4.1279297-0.5532227
			c-0.6132813-0.2099609-1.0800781-0.3364258-1.9550781-0.1762695c-0.6445313,0.1196289-1.6318359,0.3515625-2.7763672,0.6201172
			c-2.7041016,0.6357422-6.1210938,1.4379883-7.4448242,1.3173828c-0.7431641-0.0644531-1.6748047-0.3349609-2.6611328-0.621582
			c-1.2436523-0.3608398-2.5297852-0.734375-3.5541992-0.734375c-0.2368164,0-0.4521484,0.0209961-0.6401367,0.0615234
			c-0.8603516,0.1865234-1.5371094,0.1464844-2.2583008,0.0610352c-0.4355469-0.0522461-0.9291992-0.1113281-1.6166992-0.1113281
			c-0.3852539,0-0.7885742,0.0180664-1.2333984,0.0551758c-2.6499023,0.2207031-2.9047852,2.9589844-2.9145508,3.0751953
			c-0.0092773,0.1162109-0.0981445,0.2109375-0.2138672,0.2275391c-0.3369141,0.0478516-0.6157227,0.6113281-0.6870117,0.8051758
			c-0.034668,0.09375-0.121582,0.1582031-0.2211914,0.1635742c-1.2583008,0.0698242-2.9077148,2.5205078-3.1518555,3.902832
			c-0.2597656,1.4726563-2.3745117,2.6269531-2.4643555,2.6748047c-0.0322266,0.0175781-0.0678711,0.0273438-0.1040039,0.0302734
			c-0.7587891,0.0351563-1.3408203-0.3105469-1.7587891-0.5654297c-0.2124023-0.1298828-0.4130859-0.2519531-0.5273438-0.2519531
			c-0.0195313,0-0.0522461,0-0.1069336,0.0732422c-0.2607422,0.3466797,0.2871094,1.625,0.7397461,2.3798828
			c0.0483398,0.0810547,0.0473633,0.1816406-0.0024414,0.2617188c-0.0498047,0.0791016-0.1435547,0.125-0.2333984,0.1162109
			c-4.1987305-0.3623047-5.6977539-1.9667969-6.8676758-3.4912109c0.15625,0.5263672,0.3740234,1.15625,0.5078125,1.4443359
			c1.5561523,3.3457031,4.934082,5.1855469,4.9682617,5.203125c0.0883789,0.0478516,0.1401367,0.1445313,0.1308594,0.2441406
			c-0.0585938,0.6191406-0.0571289,1.7324219,0.1962891,2.0869141c0.2680664,0.3759766,1.1982422,0.9716797,2.550293,0.9716797
			c0.3227539,0,0.6533203-0.0351563,0.9824219-0.1035156c1.8525391-0.3847656,4.940918-2.8271484,4.9716797-2.8515625
			c0.0444336-0.0351563,0.0991211-0.0546875,0.1557617-0.0546875c0.3920898,0,0.8974609-0.3134766,1.059082-0.4335938
			c0.0581055-0.0419922,0.1347656-0.0595703,0.2021484-0.0439453c0.1503906,0.0322266,0.3310547,0.0478516,0.5361328,0.0478516
			c1.0717773,0,2.4638672-0.4404297,2.4780273-0.4453125c0.0561523-0.0175781,0.1171875-0.0146484,0.1723633,0.0078125
			c0.0092773,0.0039063,0.9301758,0.3837891,1.5957031,0.3837891c0.7553711,0,2.7319336,0.6298828,2.815918,0.65625
			c0.0898438,0.0146484,0.1831055,0.0761719,0.2138672,0.1611328c0.7456055,2.0507813,2.0737305,2.9707031,2.7119141,3.4130859
			c0.2158203,0.1494141,0.3457031,0.2402344,0.4208984,0.3398438c0.4057617,0.5410156,1.3139648,1.9082031,0.9907227,2.921875
			c-0.1416016,0.4443359-0.4892578,0.7578125-1.0336914,0.9316406c-0.9584961,0.3066406-1.1186523,0.6015625-1.1435547,0.7138672
			c-0.0180664,0.0830078,0.0180664,0.1591797,0.0527344,0.2099609h4.2988281
			c0.1503906-0.6611328-0.5668945-1.0878906-0.6000977-1.1064453c-0.0693359-0.0400391-0.1152344-0.1113281-0.1235352-0.1914063
			c-0.0078125-0.0800781,0.0224609-0.1591797,0.0825195-0.2119141c1.7460938-1.5537109,0.3032227-5.1572266-0.0039063-5.8642578
			c-0.0375977-0.0869141-0.0229492-0.1884766,0.0385742-0.2607422c0.0615234-0.0732422,0.1582031-0.1074219,0.2514648-0.0810547
			c1.5454102,0.3857422,3.2583008,0.5810547,5.0893555,0.5810547c4.9589844,0,9.1943359-1.4316406,9.5214844-1.8056641
			c0.546875-0.6240234,2.7207031-3.921875,2.7421875-3.9550781c0.0576172-0.0878906,0.1650391-0.1318359,0.2675781-0.1054688
			c0.1025391,0.0253906,0.1787109,0.1113281,0.1904297,0.2167969c0.2255859,2.1171875,4.3115234,4.6962891,4.7841797,4.7275391
			c0.2255859,0.0019531,0.7070313,0.0078125,3.6337891,6.8378906c0.0332031,0.0761719,0.0253906,0.1630859-0.0185547,0.2324219
			s-0.1191406,0.1132813-0.2011719,0.1162109c-0.734375,0.0273438-1.2460938,0.203125-1.4814453,0.5097656
			C55.9628906,43.3876953,55.9267578,43.5185547,55.9160156,43.6210938z"/>
	</g>
	<linearGradient id="SVGID_4_" gradientUnits="userSpaceOnUse" x1="28.3378906" y1="28.3774414" x2="20.1734085" y2="18.4635162">
		<stop  offset="0" style="stop-color:#737373"/>
		<stop  offset="0.1903404" style="stop-color:#6B6B6B"/>
		<stop  offset="0.4792787" style="stop-color:#565656"/>
		<stop  offset="0.8291489" style="stop-color:#343434"/>
		<stop  offset="1" style="stop-color:#212121"/>
	</linearGradient>
	<path style="opacity:0.45;fill:url(#SVGID_4_);" d="M19.1816406,21.4697266c0,0,3.065918-2.0380859,6.1494141-0.9545898
		C25.3310547,20.5151367,21.7822266,22.6743164,19.1816406,21.4697266z"/>
	<linearGradient id="SVGID_5_" gradientUnits="userSpaceOnUse" x1="5.5078125" y1="38.0146484" x2="7.5076947" y2="25.7653599">
		<stop  offset="0" style="stop-color:#9B7A6E"/>
		<stop  offset="0.1769545" style="stop-color:#9F8176"/>
		<stop  offset="0.4456744" style="stop-color:#A9938B"/>
		<stop  offset="0.7709651" style="stop-color:#BBB0AD"/>
		<stop  offset="1" style="stop-color:#C9C9C9"/>
	</linearGradient>
	<path style="fill:url(#SVGID_5_);" d="M7.409668,34.5234375c0,0-5.3662109-2.7304688-5.6391602-7.4941406
		c0,0,0.449707,3.15625,7.171875,4.0292969c0,0-1.7856445-3.8076172,0.5097656-2.3837891s2.3041992-0.3964844,3.328125-1.3232422
		c0,0-4.7114258,3.9082031-5.3706055,7.3496094"/>
	<g>
		<linearGradient id="SVGID_6_" gradientUnits="userSpaceOnUse" x1="14.3935547" y1="44.6601563" x2="24.7423248" y2="38.1474724">
			<stop  offset="0" style="stop-color:#E9DFFF"/>
			<stop  offset="0.0666503" style="stop-color:#D1C9E2"/>
			<stop  offset="0.1731438" style="stop-color:#AFAABA"/>
			<stop  offset="0.2781415" style="stop-color:#95929B"/>
			<stop  offset="0.3798162" style="stop-color:#828185"/>
			<stop  offset="0.4766967" style="stop-color:#777778"/>
			<stop  offset="0.563636" style="stop-color:#737373"/>
			<stop  offset="0.6339943" style="stop-color:#6B6B6B"/>
			<stop  offset="0.7408475" style="stop-color:#565656"/>
			<stop  offset="0.8704311" style="stop-color:#343434"/>
			<stop  offset="1" style="stop-color:#0B0B0B"/>
		</linearGradient>
		<path style="fill:url(#SVGID_6_);" d="M21.9150391,33.1933594c1.5317383,2.5390625,2.015625,8.7441406,1.2900391,8.9853516
			c0,0-2.418457,0.9677734-1.2900391,1.6923828h4.4326172c0,0,0.8051758-0.6445313-0.4838867-1.53125
			c0,0,2.3369141-2.6064453,1.934082-5.1708984l-0.8056641-4.375L21.9150391,33.1933594z"/>
		<path style="fill:#3A1405;" d="M26.3476563,44.1210938h-4.4326172c-0.0478516,0-0.0947266-0.0136719-0.1352539-0.0400391
			c-0.3725586-0.2392578-0.4296875-0.5117188-0.4121094-0.6992188c0.0698242-0.7294922,1.465332-1.3232422,1.7446289-1.4355469
			c0.4233398-0.4169922,0.0961914-6.125-1.4111328-8.6240234c-0.0449219-0.0742188-0.0483398-0.1660156-0.0083008-0.2431641
			c0.0395508-0.0771484,0.1162109-0.1279297,0.2026367-0.1347656l5.0771484-0.3994141
			c0.1328125-0.0146484,0.2426758,0.0771484,0.265625,0.2041016l0.8056641,4.375
			c0.3549805,2.2607422-1.265625,4.4912109-1.8183594,5.1738281c0.3989258,0.3242188,0.6074219,0.6640625,0.6196289,1.0126953
			c0.0136719,0.3701172-0.2080078,0.6494141-0.3413086,0.7558594
			C26.4594727,44.1015625,26.4042969,44.1210938,26.3476563,44.1210938z M21.9931641,43.6210938h4.2495117
			c0.0478516-0.0595703,0.109375-0.1640625,0.1030273-0.2978516c-0.0117188-0.2353516-0.2270508-0.5048828-0.6235352-0.7773438
			c-0.059082-0.0410156-0.0981445-0.1054688-0.1064453-0.1767578c-0.0087891-0.0712891,0.0141602-0.1425781,0.0620117-0.1962891
			c0.0224609-0.0253906,2.2524414-2.5498047,1.8730469-4.9648438l-0.7636719-4.1474609l-4.4648438,0.3515625
			c1.3012695,2.5371094,1.7314453,7.4394531,1.296875,8.6171875c-0.078125,0.2109375-0.1875,0.3378906-0.3349609,0.3867188
			c-0.6538086,0.2626953-1.3916016,0.7285156-1.418457,1.0136719
			C21.8588867,43.4990234,21.9223633,43.5673828,21.9931641,43.6210938z"/>
	</g>
	<linearGradient id="SVGID_7_" gradientUnits="userSpaceOnUse" x1="26.8515625" y1="46.3037109" x2="29.6015644" y2="28.5537071">
		<stop  offset="0" style="stop-color:#737373"/>
		<stop  offset="0.1903404" style="stop-color:#6B6B6B"/>
		<stop  offset="0.4792787" style="stop-color:#565656"/>
		<stop  offset="0.8291489" style="stop-color:#343434"/>
		<stop  offset="1" style="stop-color:#212121"/>
	</linearGradient>
	<path style="fill:url(#SVGID_7_);" d="M8.3535156,37.1689453c0,0,4.859375-0.2207031,6.793457-2.6455078
		c0,0,1.0927734-0.7841797,1.5551758-1.7294922c0,0,1.7431641-0.8095703,1.7753906-2.1386719
		c0,0,1.0366211,4.1484375,2.6538086,1.7314453c0,0,2.0737305,0.9267578,3.5986328-5.9711914
		c0,0,6.1123047,7.7553711,7.5234375,4.8442383c0,0,1.1616211-1.6542969,1.1616211-5.4111328
		c0,0,0.75,7.3447266,2.0830078,7.5869141c0,0,1.25,1.1699219,3.5,0c0,0,1.0839844,0.3037109,2.0839844-0.6416016
		c0,0,0.75,0.4707031,1.3330078-0.3623047c0,0,5.1669922-0.9238281,6.2919922-9.0869141l0.3876953,7.9150391l-2.7626953,3.5859375
		c0,0-11.9169922,3.5410156-15.4174805,0.6054688c0,0-7.3876953,0.0263672-10.1030273-1.3125
		c-0.0649414-0.0322266-0.1274414-0.0654297-0.1870117-0.0996094c-0.7387695,0.9677734-2.0078125-0.0371094-3.7451172,0.9677734
		l-1.0478516,0.4443359C15.831543,35.4511719,11.1259766,39.9892578,8.3535156,37.1689453z"/>
	<path style="fill:#3A1405;" d="M60.3525391,44.1210938h-4.6738281c-0.1142578,0-0.2148438-0.078125-0.2421875-0.1894531
		c-0.0058594-0.0205078-0.1230469-0.5097656,0.21875-0.9648438c0.2861328-0.3798828,0.7919922-0.6113281,1.5087891-0.6894531
		c-1.2470703-2.8867188-2.6845703-5.8964844-3.0673828-6.2207031c-0.7861328-0.1230469-4.3291016-2.4208984-5.109375-4.578125
		c-0.6328125,0.9521484-2.0234375,3.0253906-2.4667969,3.5322266c-0.5,0.5703125-4.9882813,1.9775391-9.9023438,1.9775391
		c-1.8945313,0-3.6674805-0.2060547-5.2670898-0.6113281l-6.090332-0.9619141
		c-0.5874023-0.1845703-2.1381836-0.6416016-2.7006836-0.6416016c-0.6450195,0-1.4418945-0.2871094-1.7026367-0.3886719
		c-0.3330078,0.1005859-1.5405273,0.4423828-2.543457,0.4423828c-0.1943359,0-0.3725586-0.0126953-0.53125-0.0390625
		c-0.2006836,0.1347656-0.6923828,0.4306641-1.175293,0.4658203c-0.4741211,0.3701172-3.2792969,2.5166016-5.1166992,2.8994141
		c-0.3623047,0.0751953-0.7270508,0.1132813-1.0839844,0.1132813c-1.387207,0-2.5375977-0.59375-2.9575195-1.1806641
		c-0.3793945-0.53125-0.3325195-1.7929688-0.300293-2.2617188c-0.6870117-0.3984375-3.5810547-2.2148438-5.0410156-5.3525391
		c-0.0102539-0.0214844-0.9306641-2.2949219-0.690918-2.6708984c0.0458984-0.0722656,0.1469727-0.1289063,0.2324219-0.1289063
		c0.1435547,0,0.2421875,0.1044922,0.3198242,0.2060547l0.2080078,0.2744141
		c1.1708984,1.5546875,2.3803711,3.1591797,6.3125,3.609375c-0.362793-0.6904297-0.9067383-1.9345703-0.4731445-2.5126953
		c0.1362305-0.1806641,0.3066406-0.2724609,0.5073242-0.2724609c0.2543945,0,0.5014648,0.1503906,0.7875977,0.3251953
		c0.3813477,0.2324219,0.8139648,0.4951172,1.3676758,0.4951172l0.0473633-0.0009766
		c0.3095703-0.1767578,1.9614258-1.1699219,2.159668-2.2929688c0.2363281-1.3413086,1.8681641-4.0415039,3.4560547-4.2983398
		c0.1162109-0.2583008,0.3925781-0.7612305,0.8354492-0.9326172c0.1108398-0.6865234,0.6914063-3.1342773,3.347168-3.3554688
		c0.4589844-0.0385742,0.8759766-0.0571289,1.2753906-0.0571289c0.7177734,0,1.2270508,0.0610352,1.6762695,0.1147461
		c0.7148438,0.0854492,1.2983398,0.1210938,2.0922852-0.0527344c0.2231445-0.0483398,0.4741211-0.0732422,0.746582-0.0732422
		c1.0952148,0,2.4160156,0.3837891,3.6933594,0.7543945c0.9624023,0.2792969,1.8710938,0.5429688,2.5649414,0.6035156
		c1.2797852,0.1152344,4.6313477-0.6816406,7.2875977-1.3061523c1.1503906-0.2700195,2.1435547-0.503418,2.7988281-0.6245117
		c0.9960938-0.1850586,1.5654297-0.0258789,2.2099609,0.1948242c0.7294922,0.2509766,1.6494141,0.5605469,3.9550781,0.5258789
		l0.1767578-0.0014648c3.7041016,0,5.7597656,2.1362305,7.2607422,3.6962891
		c0.2548828,0.2651367,0.4921875,0.512207,0.7167969,0.7250977c1.5976563,1.5146484,2.4130859,8.8242188,1.3154297,11.5263672
		c0.3525391,0.6054688,2.0888672,3.5722656,2.6474609,4.2021484c0.0615234,0.0693359,0.0800781,0.1660156,0.0478516,0.2529297
		c-0.4306641,1.1699219-0.8789063,3.0712891-0.4716797,3.4335938c0.4111328,0.3652344,0.8789063,0.9169922,0.7714844,1.4697266
		c-0.0693359,0.3574219-0.3564453,0.6289063-0.8535156,0.8056641
		C60.4091797,44.1162109,60.3808594,44.1210938,60.3525391,44.1210938z M55.9160156,43.6210938h4.3916016
		c0.2109375-0.0800781,0.453125-0.2148438,0.4921875-0.4150391c0.046875-0.2441406-0.1826172-0.6181641-0.6132813-1.0019531
		c-0.7578125-0.6728516,0.0175781-3.0869141,0.2851563-3.84375c-0.7363281-0.9306641-2.5898438-4.1337891-2.6728516-4.2763672
		c-0.0400391-0.0693359-0.0439453-0.1542969-0.0107422-0.2275391c1.0625-2.3535156,0.2978516-9.703125-1.1523438-11.0771484
		c-0.2304688-0.2182617-0.4726563-0.4702148-0.7333984-0.7416992c-1.4394531-1.4951172-3.4091797-3.5429688-6.9003906-3.5429688
		l-0.1669922,0.0014648c-2.4150391,0.0366211-3.4013672-0.3032227-4.1279297-0.5532227
		c-0.6113281-0.2099609-1.0800781-0.3364258-1.9550781-0.1762695c-0.6445313,0.1196289-1.6328125,0.3515625-2.7763672,0.6201172
		c-2.703125,0.6352539-6.109375,1.4360352-7.4448242,1.3173828c-0.7431641-0.0644531-1.6748047-0.3349609-2.6611328-0.621582
		c-1.2441406-0.3608398-2.5297852-0.734375-3.5541992-0.734375c-0.2368164,0-0.4521484,0.0209961-0.6401367,0.0615234
		c-0.8603516,0.1865234-1.5371094,0.1464844-2.2583008,0.0610352c-0.4355469-0.0522461-0.9287109-0.1113281-1.6166992-0.1113281
		c-0.3852539,0-0.7885742,0.0180664-1.2333984,0.0551758c-2.6499023,0.2207031-2.9047852,2.9589844-2.9145508,3.0751953
		c-0.0092773,0.1162109-0.0981445,0.2109375-0.2138672,0.2275391c-0.3369141,0.0478516-0.6157227,0.6113281-0.6870117,0.8051758
		c-0.034668,0.09375-0.121582,0.1582031-0.2211914,0.1635742c-1.2583008,0.0698242-2.9077148,2.5205078-3.1518555,3.902832
		c-0.2597656,1.4726563-2.3745117,2.6269531-2.4643555,2.6748047c-0.0322266,0.0175781-0.0678711,0.0273438-0.1040039,0.0302734
		c-0.7661133,0.0361328-1.3408203-0.3105469-1.7587891-0.5654297c-0.2124023-0.1298828-0.4130859-0.2519531-0.5273438-0.2519531
		c-0.0195313,0-0.0522461,0-0.1069336,0.0732422c-0.2607422,0.3466797,0.2871094,1.625,0.7397461,2.3798828
		c0.0483398,0.0810547,0.0473633,0.1816406-0.0024414,0.2617188c-0.0498047,0.0791016-0.1435547,0.125-0.2333984,0.1162109
		c-4.1987305-0.3623047-5.6977539-1.9667969-6.8676758-3.4912109c0.15625,0.5263672,0.3740234,1.15625,0.5078125,1.4443359
		c1.5561523,3.3457031,4.934082,5.1855469,4.9682617,5.203125c0.0883789,0.0478516,0.1401367,0.1445313,0.1308594,0.2441406
		c-0.0585938,0.6191406-0.0571289,1.7324219,0.1962891,2.0869141c0.2680664,0.3759766,1.1982422,0.9716797,2.550293,0.9716797
		c0.3227539,0,0.6533203-0.0351563,0.9824219-0.1035156c1.8525391-0.3847656,4.940918-2.8271484,4.9716797-2.8515625
		c0.0444336-0.0351563,0.0991211-0.0546875,0.1557617-0.0546875c0.3920898,0,0.8974609-0.3134766,1.059082-0.4335938
		c0.0581055-0.0419922,0.1347656-0.0595703,0.2021484-0.0439453c0.1503906,0.0322266,0.3310547,0.0478516,0.5361328,0.0478516
		c1.0737305,0,2.4638672-0.4404297,2.4780273-0.4453125c0.0561523-0.0175781,0.1171875-0.0146484,0.1723633,0.0078125
		c0.0092773,0.0039063,0.9301758,0.3837891,1.5957031,0.3837891c0.7553711,0,2.7319336,0.6298828,2.815918,0.65625
		l6.0756836,0.9580078c1.5825195,0.3994141,3.3129883,0.6005859,5.1665039,0.6005859
		c4.9599609,0,9.1982422-1.4335938,9.5253906-1.8076172c0.546875-0.6240234,2.7207031-3.921875,2.7421875-3.9550781
		c0.0576172-0.0878906,0.1650391-0.1318359,0.2675781-0.1054688c0.1025391,0.0253906,0.1787109,0.1113281,0.1904297,0.2167969
		c0.2255859,2.1171875,4.3115234,4.6962891,4.7841797,4.7275391c0.2402344,0.015625,0.7080078,0.0078125,3.6337891,6.8378906
		c0.0332031,0.0761719,0.0253906,0.1630859-0.0185547,0.2324219s-0.1191406,0.1132813-0.2011719,0.1162109
		c-0.734375,0.0273438-1.2460938,0.203125-1.4814453,0.5097656C55.9628906,43.3876953,55.9267578,43.5185547,55.9160156,43.6210938z
		"/>
	<path style="fill:#3A1405;" d="M20.8681641,34.3701172c-0.0292969,0-0.059082-0.0048828-0.0883789-0.0166016
		c-0.1289063-0.0488281-0.1938477-0.1933594-0.1455078-0.3222656c0.0063477-0.015625,0.6020508-1.6416016-0.0839844-3.6992188
		c-0.6489258-1.9472656,0.6108398-4.7485352,1.8291016-7.4575195c0.2041016-0.4541016,0.40625-0.9038086,0.5961914-1.3427734
		c0.0546875-0.1274414,0.2021484-0.1875,0.3286133-0.1303711c0.1269531,0.0546875,0.1850586,0.2021484,0.1303711,0.3286133
		c-0.190918,0.4414063-0.394043,0.8930664-0.5991211,1.3496094c-1.1791992,2.621582-2.3979492,5.3325195-1.8105469,7.0942383
		c0.7446289,2.234375,0.1044922,3.9628906,0.0766602,4.0351563C21.0639648,34.3085938,20.9692383,34.3701172,20.8681641,34.3701172z
		"/>
	<path style="fill:#3A1405;" d="M19.8857422,34.625c-0.0556641,0-0.1113281-0.0185547-0.1572266-0.0556641
		c-2.3647461-1.9160156-1.2480469-7.0546875-1.199707-7.2724609c0.0307617-0.1347656,0.1635742-0.21875,0.2988281-0.1894531
		c0.1347656,0.0302734,0.2192383,0.1640625,0.1894531,0.2988281c-0.0112305,0.0498047-1.0981445,5.0527344,1.0258789,6.7744141
		c0.1074219,0.0869141,0.1240234,0.2441406,0.0371094,0.3515625C20.0307617,34.59375,19.9584961,34.625,19.8857422,34.625z"/>
	<path style="fill:#3A1405;" d="M17.7255859,34.7734375c-0.0976563,0-0.190918-0.0576172-0.230957-0.1542969
		c-0.3857422-0.9257813-1.6474609-2.5869141-1.6601563-2.6035156c-0.0839844-0.109375-0.0625-0.2666016,0.0473633-0.3505859
		c0.1083984-0.0830078,0.2661133-0.0625,0.3500977,0.0478516c0.0537109,0.0703125,1.3139648,1.7294922,1.7246094,2.7148438
		c0.0527344,0.1269531-0.0073242,0.2734375-0.1347656,0.3261719C17.7905273,34.7675781,17.7578125,34.7734375,17.7255859,34.7734375
		z"/>
	<path style="fill:#3A1405;" d="M16.5166016,35.2568359c-0.0673828,0-0.1347656-0.0273438-0.184082-0.0810547
		c-0.9213867-1.0048828-1.4091797-3.1660156-1.4296875-3.2578125c-0.0297852-0.1347656,0.0551758-0.2675781,0.1899414-0.2978516
		c0.137207-0.0273438,0.2685547,0.0556641,0.2983398,0.1894531c0.0043945,0.0214844,0.4790039,2.1230469,1.3095703,3.0283203
		c0.0932617,0.1015625,0.0864258,0.2597656-0.0151367,0.3535156C16.6376953,35.2353516,16.5771484,35.2568359,16.5166016,35.2568359
		z"/>
	<path style="fill:#3A1405;" d="M49.0947266,31.1132813c-0.1132813,0-0.2158203-0.0771484-0.2431641-0.1923828
		c-0.9433594-3.9824219-0.2753906-8.7143555-0.2685547-8.7617188c0.0195313-0.1367188,0.1367188-0.2270508,0.2832031-0.2119141
		c0.1367188,0.0200195,0.2314453,0.1469727,0.2109375,0.2832031c-0.0068359,0.0463867-0.6601563,4.6865234,0.2607422,8.5751953
		c0.0322266,0.1347656-0.0507813,0.2695313-0.1855469,0.3007813C49.1328125,31.1113281,49.1132813,31.1132813,49.0947266,31.1132813
		z"/>
	<path style="fill:#3A1405;" d="M56.2431641,34.3701172c-0.1279297,0-0.2373047-0.0976563-0.2490234-0.2275391
		c-0.0126953-0.1376953,0.0888672-0.2587891,0.2265625-0.2714844l1.7724609-0.1611328
		c0.1572266-0.0224609,0.2587891,0.0898438,0.2714844,0.2265625c0.0126953,0.1376953-0.0888672,0.2587891-0.2265625,0.2714844
		l-1.7724609,0.1611328C56.2578125,34.3701172,56.25,34.3701172,56.2431641,34.3701172z"/>
	<path style="fill:#3A1405;" d="M10.956543,30.8632813l1.0478516-0.2080078l-0.5239258,1.2089844
		C11.4804688,31.8642578,10.3173828,30.9902344,10.956543,30.8632813z"/>
	<path style="fill:#3A1405;" d="M7.409668,36.0644531c0,0,1.6132813-1.1259766,1.8549805-0.3261719
		s-0.9272461,0.3261719-0.9272461,0.3261719H7.409668z"/>
	<path style="fill:#3A1405;" d="M9.2973633,38.1240234c-0.0668945,0-0.1337891-0.0263672-0.1831055-0.0800781
		c-0.03125-0.0332031-0.3022461-0.3388672-0.1455078-0.6708984c0.1699219-0.3623047,0.7475586-0.5,1.8105469-0.4404297
		c0.1376953,0.0087891,0.2426758,0.1269531,0.2348633,0.2646484c-0.0078125,0.1328125-0.1176758,0.2353516-0.2495117,0.2353516
		c-0.0043945,0-0.0092773,0-0.0146484,0c-1.1884766-0.0703125-1.3276367,0.1513672-1.3291016,0.1533203
		c-0.003418,0.0224609,0.034668,0.0917969,0.0595703,0.1181641c0.09375,0.1005859,0.0883789,0.2587891-0.0126953,0.3525391
		C9.4194336,38.1015625,9.3583984,38.1240234,9.2973633,38.1240234z"/>
	<g>
		<linearGradient id="SVGID_8_" gradientUnits="userSpaceOnUse" x1="18.6518555" y1="15.0375977" x2="36.1523972" y2="48.3716431">
			<stop  offset="0" style="stop-color:#E9DFFF"/>
			<stop  offset="0.0666503" style="stop-color:#D1C9E2"/>
			<stop  offset="0.1731438" style="stop-color:#AFAABA"/>
			<stop  offset="0.2781415" style="stop-color:#95929B"/>
			<stop  offset="0.3798162" style="stop-color:#828185"/>
			<stop  offset="0.4766967" style="stop-color:#777778"/>
			<stop  offset="0.563636" style="stop-color:#737373"/>
			<stop  offset="0.6466937" style="stop-color:#6B6B6B"/>
			<stop  offset="0.7727759" style="stop-color:#565656"/>
			<stop  offset="0.9254467" style="stop-color:#343434"/>
			<stop  offset="1" style="stop-color:#212121"/>
		</linearGradient>
		<path style="fill:url(#SVGID_8_);" d="M25.1645508,25.4316406c0,0-2.9169922,5.4316406,0.1352539,9.6142578
			c0.9667969,2.8203125,2.9814453,3.6259766,3.2231445,3.9482422s2.0952148,2.8203125,0.0805664,3.4648438
			s-1.1279297,1.4121094-1.1279297,1.4121094h4.5932617c0.4033203-0.9667969-0.65625-1.5732422-0.65625-1.5732422
			c2.0834961-1.8535156,0-6.2851563,0-6.2851563c1.8383789,0.1611328,0.3339844-3.6259766,0.3339844-3.6259766
			c0.4179688-1.1269531,1.1679688-2.2880859,1.1679688-2.2880859"/>
		<path style="fill:#3A1405;" d="M32.0688477,44.1210938h-4.5932617c-0.0600586,0-0.1181641-0.0214844-0.1635742-0.0605469
			c-0.1323242-0.1152344-0.3369141-0.4003906-0.2661133-0.7470703c0.0913086-0.4453125,0.5756836-0.8027344,1.4814453-1.0927734
			c0.3867188-0.1240234,0.6191406-0.3222656,0.7099609-0.6074219c0.2060547-0.6464844-0.3369141-1.6992188-0.9145508-2.46875
			c-0.0307617-0.0390625-0.1777344-0.1396484-0.3076172-0.2294922c-0.6982422-0.4804688-2.1479492-1.4775391-2.9394531-3.7519531
			c-3.0732422-4.2568359-0.1611328-9.7939453-0.1313477-9.8496094c0.0654297-0.1220703,0.2182617-0.1660156,0.3383789-0.1020508
			c0.121582,0.0654297,0.1674805,0.2167969,0.1020508,0.3383789c-0.0283203,0.0532227-2.8046875,5.3447266,0.1171875,9.3486328
			c0.0146484,0.0205078,0.0263672,0.0429688,0.0341797,0.0664063c0.7353516,2.1445313,2.1044922,3.0859375,2.7626953,3.5380859
			c0.2172852,0.1503906,0.3481445,0.2402344,0.4243164,0.3408203c0.4052734,0.5410156,1.3134766,1.9082031,0.9902344,2.921875
			c-0.1416016,0.4443359-0.4892578,0.7578125-1.0336914,0.9316406c-0.9584961,0.3066406-1.1186523,0.6015625-1.1435547,0.7138672
			c-0.0180664,0.0830078,0.0180664,0.1591797,0.0527344,0.2099609h4.2988281
			c0.1533203-0.6660156-0.5664063-1.0869141-0.5991211-1.1064453c-0.0698242-0.0400391-0.1162109-0.1113281-0.1245117-0.1914063
			c-0.0083008-0.0791016,0.0224609-0.1582031,0.0825195-0.2119141c1.9213867-1.7099609-0.0400391-5.9492188-0.0600586-5.9921875
			c-0.0380859-0.0810547-0.0302734-0.1757813,0.0209961-0.25c0.0512695-0.0722656,0.1386719-0.1162109,0.2270508-0.1054688
			c0.3027344,0.0273438,0.4213867-0.0820313,0.4838867-0.1660156c0.3964844-0.53125-0.0375977-2.1953125-0.4042969-3.1191406
			c-0.0229492-0.0566406-0.0234375-0.1210938-0.0019531-0.1787109c0.4228516-1.1396484,1.1611328-2.2880859,1.1923828-2.3369141
			c0.0751953-0.1171875,0.2304688-0.1484375,0.3461914-0.0742188c0.1162109,0.0751953,0.1494141,0.2294922,0.0742188,0.3457031
			c-0.0068359,0.0107422-0.7016602,1.0917969-1.1108398,2.1513672c0.1977539,0.5205078,0.9462891,2.6503906,0.3056641,3.5107422
			c-0.1005859,0.1347656-0.2675781,0.2832031-0.5361328,0.34375c0.4326172,1.0517578,1.5708008,4.2880859,0.0146484,6.0253906
			c0.3994141,0.3349609,0.8154297,0.9482422,0.5009766,1.7021484
			C32.2602539,44.0605469,32.1699219,44.1210938,32.0688477,44.1210938z"/>
	</g>
	<g>
		<linearGradient id="SVGID_9_" gradientUnits="userSpaceOnUse" x1="15.9643555" y1="20.5126953" x2="11.2978439" y2="27.0966949">
			<stop  offset="0" style="stop-color:#E9DFFF"/>
			<stop  offset="0.0666503" style="stop-color:#D1C9E2"/>
			<stop  offset="0.1731438" style="stop-color:#AFAABA"/>
			<stop  offset="0.2781415" style="stop-color:#95929B"/>
			<stop  offset="0.3798162" style="stop-color:#828185"/>
			<stop  offset="0.4766967" style="stop-color:#777778"/>
			<stop  offset="0.563636" style="stop-color:#737373"/>
			<stop  offset="0.6466937" style="stop-color:#6B6B6B"/>
			<stop  offset="0.7727759" style="stop-color:#565656"/>
			<stop  offset="0.9254467" style="stop-color:#343434"/>
			<stop  offset="1" style="stop-color:#212121"/>
		</linearGradient>
		<path style="fill:url(#SVGID_9_);" d="M16.5166016,24.6928711C17,23.9672852,16.6772461,22.9458008,15.831543,22.6508789
			s-3.2631836-2.3095703-2.8603516-2.8735352c0,0-1.144043,2.8388672-0.0449219,3.7871094s1.6694336,1.8671875,1.6694336,1.8671875"
			/>
		<path style="fill:#3A1405;" d="M14.5961914,25.6816406c-0.0839844,0-0.1655273-0.0419922-0.2128906-0.1181641
			c-0.0053711-0.0087891-0.5664063-0.9003906-1.6201172-1.8095703c-1.0849609-0.9360352-0.2993164-3.3256836-0.0761719-3.9326172
			c0.015625-0.0805664,0.0478516-0.1430664,0.0805664-0.1894531c0.0742188-0.1030273,0.2133789-0.1342773,0.3237305-0.0737305
			c0.1108398,0.0610352,0.1591797,0.1953125,0.1118164,0.3125c-0.0107422,0.0263672-0.0214844,0.0546875-0.0332031,0.0844727
			c-0.0068359,0.4458008,1.8852539,2.1601563,2.7441406,2.4599609c0.4711914,0.1640625,0.8330078,0.5317383,0.9926758,1.0078125
			c0.1611328,0.4799805,0.0947266,0.9931641-0.1821289,1.4086914c-0.0771484,0.1152344-0.2329102,0.1455078-0.3466797,0.0693359
			c-0.1147461-0.0766602-0.1459961-0.2319336-0.0693359-0.3466797c0.1904297-0.2856445,0.2358398-0.6401367,0.1240234-0.972168
			C16.3227539,23.253418,16.0732422,23,15.7490234,22.8867188c-0.6152344-0.2143555-2.1621094-1.3813477-2.7929688-2.277832
			c-0.2631836,0.9321289-0.4643555,2.2504883,0.1333008,2.7661133c1.1152344,0.9624023,1.6948242,1.8857422,1.71875,1.9248047
			c0.0727539,0.1171875,0.0366211,0.2709961-0.0805664,0.3442383
			C14.6865234,25.6694336,14.6411133,25.6816406,14.5961914,25.6816406z"/>
	</g>
	<path style="fill:#3A1405;" d="M7.390625,35.2568359c-0.0146484,0-0.0292969-0.0009766-0.0439453-0.0039063
		c-0.1357422-0.0244141-0.2265625-0.1533203-0.2026367-0.2890625c0.0097656-0.0566406,0.246582-1.3779297,0.7016602-2.2822266
		c0.0620117-0.1230469,0.2124023-0.1728516,0.3354492-0.1113281c0.1235352,0.0625,0.1728516,0.2128906,0.1108398,0.3359375
		c-0.4213867,0.8378906-0.6533203,2.1308594-0.6557617,2.1445313C7.6147461,35.171875,7.5092773,35.2568359,7.390625,35.2568359z"/>
	<g>
		<linearGradient id="SVGID_10_" gradientUnits="userSpaceOnUse" x1="10.8251953" y1="34.4316406" x2="10.5753698" y2="25.9371605">
			<stop  offset="0" style="stop-color:#737373"/>
			<stop  offset="0.1840606" style="stop-color:#7B7B7B"/>
			<stop  offset="0.4636022" style="stop-color:#909090"/>
			<stop  offset="0.8019506" style="stop-color:#B2B2B2"/>
			<stop  offset="1" style="stop-color:#C9C9C9"/>
		</linearGradient>
		<path style="fill:url(#SVGID_10_);" d="M11.3847656,28.6748047c-0.9267578,0.7617188-1.4169922,1.4238281-1.4169922,1.4238281"/>
		<path style="fill:#3A1405;" d="M9.9677734,30.3486328c-0.0517578,0-0.1040039-0.015625-0.1489258-0.0488281
			c-0.1108398-0.0830078-0.1342773-0.2392578-0.0517578-0.3496094c0.0205078-0.0283203,0.519043-0.6962891,1.4589844-1.46875
			c0.105957-0.0869141,0.2636719-0.0712891,0.3520508,0.0341797c0.0874023,0.1074219,0.0722656,0.2646484-0.034668,0.3525391
			c-0.8886719,0.7304688-1.3701172,1.3730469-1.375,1.3798828C10.1196289,30.3134766,10.0439453,30.3486328,9.9677734,30.3486328z"
			/>
	</g>
	<linearGradient id="SVGID_11_" gradientUnits="userSpaceOnUse" x1="11.3974609" y1="32.6318359" x2="11.557704" y2="31.597538">
		<stop  offset="0" style="stop-color:#737373"/>
		<stop  offset="0.1903404" style="stop-color:#6B6B6B"/>
		<stop  offset="0.4792787" style="stop-color:#565656"/>
		<stop  offset="0.8291489" style="stop-color:#343434"/>
		<stop  offset="1" style="stop-color:#212121"/>
	</linearGradient>
	<path style="fill:url(#SVGID_11_);" d="M10.6762695,31.8642578c0,0,0.9746094,1.3066406,1.7729492-0.6044922
		C12.4492188,31.2597656,11.5214844,32.4628906,10.6762695,31.8642578z"/>
	<linearGradient id="SVGID_12_" gradientUnits="userSpaceOnUse" x1="11.0917969" y1="33.3427734" x2="11.2910347" y2="32.0567856">
		<stop  offset="0" style="stop-color:#737373"/>
		<stop  offset="0.1903404" style="stop-color:#6B6B6B"/>
		<stop  offset="0.4792787" style="stop-color:#565656"/>
		<stop  offset="0.8291489" style="stop-color:#343434"/>
		<stop  offset="1" style="stop-color:#212121"/>
	</linearGradient>
	<path style="fill:url(#SVGID_12_);" d="M9.9677734,31.2597656c0,0,1.5952148,2.9521484,2.8125,0.5205078
		C12.7802734,31.7802734,11.6044922,34.8378906,9.9677734,31.2597656z"/>
	<linearGradient id="SVGID_13_" gradientUnits="userSpaceOnUse" x1="44.1972656" y1="20.2104492" x2="47.530262" y2="32.1274223">
		<stop  offset="0" style="stop-color:#737373"/>
		<stop  offset="0.1903404" style="stop-color:#6B6B6B"/>
		<stop  offset="0.4792787" style="stop-color:#565656"/>
		<stop  offset="0.8291489" style="stop-color:#343434"/>
		<stop  offset="1" style="stop-color:#212121"/>
	</linearGradient>
	<path style="opacity:0.86;fill:url(#SVGID_13_);" d="M45.9980469,22.1948242c0,0,2.7646484,5.409668,0,9.5854492
		C45.9980469,31.7802734,46.7001953,25.418457,45.9980469,22.1948242z"/>
	<linearGradient id="SVGID_14_" gradientUnits="userSpaceOnUse" x1="43.2255859" y1="20.4824219" x2="46.5589027" y2="32.4005356">
		<stop  offset="0" style="stop-color:#737373"/>
		<stop  offset="0.1903404" style="stop-color:#6B6B6B"/>
		<stop  offset="0.4792787" style="stop-color:#565656"/>
		<stop  offset="0.8291489" style="stop-color:#343434"/>
		<stop  offset="1" style="stop-color:#212121"/>
	</linearGradient>
	<path style="opacity:0.86;fill:url(#SVGID_14_);" d="M44.0820313,20.1816406c0,0,2.7333984,5.453125,0.8330078,10.4736328
		C44.9150391,30.6552734,45.4990234,23.5981445,44.0820313,20.1816406z"/>
	<linearGradient id="SVGID_15_" gradientUnits="userSpaceOnUse" x1="37.9345703" y1="21.9643555" x2="41.26717" y2="33.8799095">
		<stop  offset="0" style="stop-color:#737373"/>
		<stop  offset="0.1903404" style="stop-color:#6B6B6B"/>
		<stop  offset="0.4792787" style="stop-color:#565656"/>
		<stop  offset="0.8291489" style="stop-color:#343434"/>
		<stop  offset="1" style="stop-color:#212121"/>
	</linearGradient>
	<path style="opacity:0.86;fill:url(#SVGID_15_);" d="M38.4150391,26.9873047c0,0,2.0839844,6.4042969,3.9169922,7.1328125
		C42.3320313,34.1201172,39.5820313,33.0429688,38.4150391,26.9873047z"/>
	<linearGradient id="SVGID_16_" gradientUnits="userSpaceOnUse" x1="35.6708984" y1="22.5961914" x2="39.0039024" y2="34.513195">
		<stop  offset="0" style="stop-color:#737373"/>
		<stop  offset="0.1903404" style="stop-color:#6B6B6B"/>
		<stop  offset="0.4792787" style="stop-color:#565656"/>
		<stop  offset="0.8291489" style="stop-color:#343434"/>
		<stop  offset="1" style="stop-color:#212121"/>
	</linearGradient>
	<path style="opacity:0.86;fill:url(#SVGID_16_);" d="M35.1650391,26.5292969c0,0,3.1162109,7.5234375,5.5830078,8.4775391
		C40.7480469,35.0068359,37.6650391,34.2929688,35.1650391,26.5292969z"/>
	<path style="fill:#3A1405;" d="M23.2050781,35.0966797c-0.0361328,0-0.0722656-0.0078125-0.1064453-0.0234375
		c-0.125-0.0595703-0.1787109-0.2080078-0.1196289-0.3330078c0.2617188-0.5556641,0.0737305-2.2978516-0.0209961-2.9228516
		c-0.0209961-0.1357422,0.0732422-0.2636719,0.2094727-0.2841797c0.1337891-0.0205078,0.2646484,0.0732422,0.284668,0.2099609
		c0.0371094,0.2451172,0.3530273,2.4179688-0.0209961,3.2099609C23.3886719,35.0439453,23.2988281,35.0966797,23.2050781,35.0966797
		z"/>
	<path style="fill:#3A1405;" d="M31.7758789,36.2255859c-0.0302734,0-0.0610352-0.0058594-0.0913086-0.0175781
		c-0.0839844-0.0322266-2.074707-0.8164063-3.1152344-1.6367188c-0.6928711-0.5478516-0.8930664-0.4091797-1.4848633-0.0048828
		c-0.1367188,0.09375-0.2866211,0.1962891-0.4580078,0.2988281c-0.1157227,0.0722656-0.2714844,0.0341797-0.3427734-0.0849609
		c-0.0712891-0.1181641-0.0332031-0.2714844,0.0849609-0.3427734c0.1621094-0.0976563,0.3037109-0.1953125,0.4335938-0.2841797
		c0.6113281-0.4189453,1.0952148-0.7490234,2.0766602,0.0253906c0.9829102,0.7744141,2.9682617,1.5566406,2.9882813,1.5644531
		c0.128418,0.0498047,0.1918945,0.1953125,0.1416016,0.3232422C31.9702148,36.1650391,31.8754883,36.2255859,31.7758789,36.2255859z
		"/>
	<path style="fill:#3A1405;" d="M31.746582,32.6367188c-0.0678711,0-0.1352539-0.0273438-0.1845703-0.0810547
		c-1.2236328-1.3408203-3.0927734-1.0517578-3.1098633-1.0488281c-0.1323242,0.0185547-0.2651367-0.0703125-0.2875977-0.2060547
		c-0.0224609-0.1367188,0.0693359-0.2646484,0.2050781-0.2871094c0.0883789-0.0166016,2.1508789-0.3388672,3.5615234,1.2041016
		c0.0932617,0.1025391,0.0859375,0.2607422-0.0161133,0.3535156C31.8671875,32.6152344,31.8066406,32.6367188,31.746582,32.6367188z
		"/>
	<path style="fill:#3A1405;" d="M18.7075195,21.8481445c-0.7441406,0-1.3227539-0.1264648-1.3588867-0.1342773
		c-0.1347656-0.0302734-0.2192383-0.1640625-0.1894531-0.2983398c0.0307617-0.1347656,0.1674805-0.2163086,0.2983398-0.1899414
		c0.0126953,0.003418,1.2485352,0.2714844,2.3696289,0.0009766c0.1337891-0.03125,0.269043,0.0507813,0.3017578,0.1845703
		c0.0322266,0.1342773-0.050293,0.269043-0.1845703,0.3017578C19.5224609,21.8144531,19.0927734,21.8481445,18.7075195,21.8481445z"
		/>
</g>
</svg>
