<?xml version="1.0" encoding="utf-8"?>
<!-- Generator: Adobe Illustrator 15.0.2, SVG Export Plug-In . SVG Version: 6.00 Build 0)  -->
<!DOCTYPE svg PUBLIC "-//W3C//DTD SVG 1.1//EN" "http://www.w3.org/Graphics/SVG/1.1/DTD/svg11.dtd">
<svg version="1.1" id="レイヤー_1" xmlns="http://www.w3.org/2000/svg" xmlns:xlink="http://www.w3.org/1999/xlink" x="0px"
	 y="0px" width="64px" height="64px" viewBox="0 0 64 64" style="enable-background:new 0 0 64 64;" xml:space="preserve">
<g>
	<g>
		<g>
			<g>
				
					<linearGradient id="SVGID_1_" gradientUnits="userSpaceOnUse" x1="67.859375" y1="50.9541016" x2="52.2778435" y2="17.6141701" gradientTransform="matrix(-1 0 0 1 81.21875 0)">
					<stop  offset="0" style="stop-color:#FF7F7F"/>
					<stop  offset="0.557576" style="stop-color:#DF0000"/>
					<stop  offset="1" style="stop-color:#7F0000"/>
				</linearGradient>
				<path style="fill:url(#SVGID_1_);" d="M29.6777344,29.0219727l-4.8515625-5.7773438
					c0,0-8.2519531,9.3740234-10.9296875,12.1567383C11.2177734,38.1865234,7.2695313,41.7236328,1.5097656,50.25
					l14.7265625-2.9189453l5.5830078,8.9521484c0,0,8.4951172-10.5800781,7.0302734-18.0966797
					C27.9570313,33.6044922,29.6777344,29.0219727,29.6777344,29.0219727z"/>
				<path style="fill:#5B0000;" d="M21.7792969,56.9580078l-5.7319336-9.1904297l-15.394043,3.0507813L1.1855469,50.03125
					c4.9501953-7.328125,8.559082-10.9765625,11.1938477-13.6416016c0.4389648-0.4433594,0.8500977-0.859375,1.2348633-1.2597656
					c2.6416016-2.7446289,10.8359375-12.050293,10.9179688-12.144043l0.3007813-0.3413086l5.2915039,6.3007813l-0.0805664,0.2138672
					c-0.0166016,0.0449219-1.6704102,4.5380859-0.8100586,8.9521484c1.4824219,7.6074219-6.7578125,17.9794922-7.109375,18.4169922
					L21.7792969,56.9580078z M16.425293,46.8945313l5.4277344,8.703125
					c1.5537109-2.0644531,7.8598633-10.9355469,6.6123047-17.3359375c-0.8032227-4.125,0.4345703-8.1782227,0.769043-9.1591797
					l-4.4155273-5.2578125c-1.5107422,1.7128906-8.277832,9.3730469-10.640625,11.828125
					c-0.3867188,0.4023438-0.8007813,0.8203125-1.2421875,1.2675781
					c-2.5170898,2.5449219-5.9301758,5.9960938-10.5644531,12.7402344L16.425293,46.8945313z"/>
			</g>
			
				<linearGradient id="SVGID_2_" gradientUnits="userSpaceOnUse" x1="69.2519531" y1="47.4101563" x2="65.6916962" y2="26.5572548" gradientTransform="matrix(-1 0 0 1 81.21875 0)">
				<stop  offset="0" style="stop-color:#FFEE9F"/>
				<stop  offset="1" style="stop-color:#FFA400"/>
			</linearGradient>
			<path style="fill:url(#SVGID_2_);" d="M25.2529297,24.3203125C11.5195313,37.4707031,11.5410156,37.4941406,8.9443359,40.578125
				C6.15625,43.8886719,1.5097656,50.25,1.5097656,50.25l3.4306641-0.6787109c0,0,4.3164063-8.3105469,20.5556641-22.9975586
				L25.2529297,24.3203125z"/>
			
				<linearGradient id="SVGID_3_" gradientUnits="userSpaceOnUse" x1="57.1083984" y1="52.4511719" x2="53.469799" y2="31.139389" gradientTransform="matrix(-1 0 0 1 81.21875 0)">
				<stop  offset="0" style="stop-color:#FFEE9F"/>
				<stop  offset="1" style="stop-color:#FFA400"/>
			</linearGradient>
			<path style="fill:url(#SVGID_3_);" d="M30.1279297,28.21875l-0.4501953-0.7329102c0,0-3.6611328,6.5698242-2.3310547,11.0239258
				c1.3300781,4.4550781-6.4824219,16.2412109-6.4824219,16.2412109l1.0761719,2.0566406
				c0,0,8.1337891-11.8818359,6.9091797-18.6210938S30.1279297,28.21875,30.1279297,28.21875z"/>
			<path style="fill:#5B0000;" d="M21.7792969,56.9580078l-5.7319336-9.1904297l-15.394043,3.0507813L1.1855469,50.03125
				c4.9501953-7.328125,8.5585938-10.9765625,11.1938477-13.6416016c0.4389648-0.4433594,0.8500977-0.859375,1.2348633-1.2597656
				c2.6445313-2.7475586,11.5048828-12.3676758,11.59375-12.4648438l0.3330078-0.3613281l4.574707,6.6645508l-0.0717773,0.190918
				c-0.0166016,0.0449219-1.6704102,4.5380859-0.8100586,8.9521484c1.4824219,7.6074219-6.7578125,17.9794922-7.109375,18.4169922
				L21.7792969,56.9580078z M16.425293,46.8945313l5.4277344,8.703125
				c1.5537109-2.0644531,7.8598633-10.9355469,6.6123047-17.3359375c-0.8095703-4.1582031,0.4545898-8.2441406,0.7768555-9.1826172
				l-3.7910156-5.5229492c-1.6455078,1.7856445-8.9165039,9.6674805-11.2729492,12.1166992
				c-0.3867188,0.4023438-0.8007813,0.8203125-1.2421875,1.2675781c-2.5170898,2.5449219-5.9301758,5.9960938-10.5644531,12.7402344
				L16.425293,46.8945313z"/>
			<g>
				
					<linearGradient id="SVGID_4_" gradientUnits="userSpaceOnUse" x1="65.2216797" y1="10.2319336" x2="64.4939117" y2="28.2179737" gradientTransform="matrix(-1 0 0 1 81.21875 0)">
					<stop  offset="0" style="stop-color:#FF7F7F"/>
					<stop  offset="0.557576" style="stop-color:#DF0000"/>
					<stop  offset="1" style="stop-color:#7F0000"/>
				</linearGradient>
				<path style="fill:url(#SVGID_4_);" d="M28.6230469,15.9282227c0,0-12.6972656-10.8676758-20.5986328-8.253418
					c-7.9013672,2.6147461-7.0546875,21.734375,3.1972656,21.5717773c10.2519531-0.1630859,18.90625-5.5561523,18.90625-5.5561523
					L28.6230469,15.9282227z"/>
				<path style="fill:#5B0000;" d="M11.0917969,29.6386719c-5.2133789-0.0004883-7.824707-4.6821289-8.5307617-9.0629883
					C1.7084961,15.2807617,3.2900391,8.8295898,7.9013672,7.3032227c0.8540039-0.2822266,1.800293-0.4257813,2.8120117-0.4257813
					c7.8466797,0,17.746582,8.3959961,18.1640625,8.753418l0.1040039,0.0888672l1.5820313,8.1606445l-0.2285156,0.1420898
					c-0.0874023,0.0546875-8.8652344,5.4526367-19.1069336,5.6152344L11.0917969,29.6386719z M10.7133789,7.6601563
					c-0.9282227,0-1.7915039,0.1298828-2.565918,0.3862305c-4.0483398,1.3393555-5.6264648,7.3588867-4.8134766,12.4047852
					c0.6542969,4.0629883,3.0361328,8.4042969,7.7583008,8.4052734l0.1230469-0.0009766
					c9.1147461-0.1450195,17.0439453-4.5244141,18.4760742-5.3603516l-1.4262695-7.3564453
					C27.1811523,15.2368164,17.8564453,7.6601563,10.7133789,7.6601563z"/>
			</g>
			<path style="opacity:0.7;fill:#510000;" d="M28.90625,27.4858398c0,0-2.2871094,3.1186523-2.3916016,4.8867188
				c-0.1035156,1.7661133-1.5595703,4.6772461-1.5595703,4.6772461s-1.3505859-0.8320313-0.5195313-3.3271484
				c0.8320313-2.4941406,3.0166016-6.2368164,3.0166016-6.2368164H28.90625z"/>
			<path style="opacity:0.7;fill:#510000;" d="M28.5664063,26.9008789c0,0-4.7402344,4.2255859-6.3447266,4.4023438
				c-1.6044922,0.1777344,4.1855469-4.7294922,4.1855469-4.7294922L28.5664063,26.9008789z"/>
			<path style="opacity:0.5;fill:#510000;" d="M30.0722656,20.6020508c0,0-12.0458984-4.4047852-11.8115234-2.7338867
				C18.4941406,19.5390625,25.2939453,21.3198242,30.0722656,20.6020508z"/>
			
				<linearGradient id="SVGID_5_" gradientUnits="userSpaceOnUse" x1="64.1132813" y1="11.2709961" x2="56.8357582" y2="15.2216606" gradientTransform="matrix(-1 0 0 1 81.21875 0)">
				<stop  offset="0" style="stop-color:#FFEE9F"/>
				<stop  offset="1" style="stop-color:#FFA400"/>
			</linearGradient>
			<path style="fill:url(#SVGID_5_);" d="M25.2529297,14.5996094c0,0-7.1591797-6.7578125-18.6542969-6.2167969
				c0,0,2.2421875-1.6733398,5.2568359-1.0527344c3.0136719,0.6206055,9.6728516,2.3510742,16.0126953,7.9814453
				L25.2529297,14.5996094z"/>
			<path style="fill:#5B0000;" d="M11.0917969,29.6386719c-5.2133789-0.0004883-7.824707-4.6821289-8.5307617-9.0629883
				C1.7084961,15.2807617,3.2900391,8.8295898,7.9013672,7.3032227c0.8540039-0.2822266,1.800293-0.4257813,2.8120117-0.4257813
				c7.8466797,0,17.746582,8.3959961,18.1640625,8.753418l0.1040039,0.0888672l1.5820313,8.1606445l-0.2285156,0.1420898
				c-0.0874023,0.0546875-8.8652344,5.4526367-19.1069336,5.6152344L11.0917969,29.6386719z M10.7133789,7.6601563
				c-0.9282227,0-1.7915039,0.1298828-2.565918,0.3862305c-4.0483398,1.3393555-5.6264648,7.3588867-4.8134766,12.4047852
				c0.6542969,4.0629883,3.0361328,8.4042969,7.7583008,8.4052734l0.1230469-0.0009766
				c9.1147461-0.1450195,17.0439453-4.5244141,18.4760742-5.3603516l-1.4262695-7.3564453
				C27.1811523,15.2368164,17.8564453,7.6601563,10.7133789,7.6601563z"/>
			<path style="opacity:0.5;fill:#510000;" d="M30.4521484,22.2324219c0,0-13.7871094-3.0585938-12.4873047,0.199707
				C19.4316406,26.1113281,19.0068359,20.5029297,30.4521484,22.2324219z"/>
		</g>
		<g>
			<g>
				
					<linearGradient id="SVGID_6_" gradientUnits="userSpaceOnUse" x1="50.6523438" y1="50.9785156" x2="35.1638718" y2="17.8377037">
					<stop  offset="0" style="stop-color:#FF7F7F"/>
					<stop  offset="0.557576" style="stop-color:#DF0000"/>
					<stop  offset="1" style="stop-color:#7F0000"/>
				</linearGradient>
				<path style="fill:url(#SVGID_6_);" d="M34.3222656,29.0219727l4.4238281-5.3510742
					c0,0,8.6796875,8.9477539,11.3574219,11.7304688C52.78125,38.1865234,56.7304688,41.7236328,62.4902344,50.25
					l-14.7265625-2.9189453l-5.5820313,8.9521484c0,0-8.4960938-10.5800781-7.03125-18.0966797
					C36.0429688,33.6044922,34.3222656,29.0219727,34.3222656,29.0219727z"/>
				<path style="fill:#5B0000;" d="M42.2216797,56.9580078l-0.3447266-0.4296875
					c-0.3515625-0.4375-8.5927734-10.8095703-7.1103516-18.4169922c0.859375-4.4140625-0.7939453-8.9072266-0.8105469-8.9521484
					l-0.0791016-0.2119141l4.8457031-5.8623047l0.3046875,0.3134766c0,0,8.6796875,8.9487305,11.3583984,11.7314453
					c0.3857422,0.4013672,0.7988281,0.8193359,1.2392578,1.2646484c2.6337891,2.6640625,6.2421875,6.3125,11.1894531,13.6367188
					l0.5322266,0.7871094L47.953125,47.7675781L42.2216797,56.9580078z M34.7646484,29.1005859
					c0.3339844,0.9780273,1.5732422,5.0341797,0.7695313,9.1611328c-1.2480469,6.4033203,5.0595703,15.2724609,6.6132813,17.3359375
					l5.4267578-8.703125l14.0546875,2.7861328c-4.6318359-6.7402344-8.0439453-10.1914063-10.5605469-12.7363281
					c-0.4433594-0.4482422-0.8583984-0.8681641-1.2470703-1.2714844
					c-2.3779297-2.4716797-9.4931641-9.8085938-11.0517578-11.4160156L34.7646484,29.1005859z"/>
			</g>
			<linearGradient id="SVGID_7_" gradientUnits="userSpaceOnUse" x1="51.3583984" y1="47.5195313" x2="47.7937889" y2="26.6411362">
				<stop  offset="0" style="stop-color:#FFEE9F"/>
				<stop  offset="1" style="stop-color:#FFA400"/>
			</linearGradient>
			<path style="fill:url(#SVGID_7_);" d="M38.7460938,24.3203125c13.734375,13.1503906,13.7128906,13.1738281,16.3085938,16.2578125
				C57.84375,43.8886719,62.4902344,50.25,62.4902344,50.25l-3.4296875-0.6787109c0,0-6.0410156-10.265625-22.2792969-24.9526367
				L38.7460938,24.3203125z"/>
			<linearGradient id="SVGID_8_" gradientUnits="userSpaceOnUse" x1="39.8896484" y1="52.4521484" x2="36.251049" y2="31.1403656">
				<stop  offset="0" style="stop-color:#FFEE9F"/>
				<stop  offset="1" style="stop-color:#FFA400"/>
			</linearGradient>
			<path style="fill:url(#SVGID_8_);" d="M33.8710938,28.21875l0.4511719-0.7329102c0,0,3.6621094,6.5698242,2.3320313,11.0239258
				c-1.3320313,4.4550781,6.4804688,16.2412109,6.4804688,16.2412109l-1.0761719,2.0566406
				c0,0-8.1328125-11.8818359-6.9082031-18.6210938S33.8710938,28.21875,33.8710938,28.21875z"/>
			<path style="fill:#5B0000;" d="M42.2216797,56.9580078l-0.3447266-0.4296875
				c-0.3515625-0.4375-8.5927734-10.8095703-7.1103516-18.4169922c0.859375-4.4140625-0.7939453-8.9072266-0.8105469-8.9521484
				l-0.0664063-0.1777344l4.0664063-6.6870117l0.3525391,0.3632813c0,0,9.3984375,9.6894531,12.0771484,12.472168
				c0.3857422,0.4013672,0.7988281,0.8193359,1.2392578,1.2646484c2.6337891,2.6640625,6.2421875,6.3125,11.1894531,13.6367188
				l0.5322266,0.7871094L47.953125,47.7675781L42.2216797,56.9580078z M34.7529297,29.065918
				c0.3154297,0.9140625,1.5947266,5.0180664,0.78125,9.1958008c-1.2480469,6.4033203,5.0595703,15.2724609,6.6132813,17.3359375
				l5.4267578-8.703125l14.0546875,2.7861328c-4.6318359-6.7402344-8.0439453-10.1914063-10.5605469-12.7363281
				c-0.4433594-0.4482422-0.8583984-0.8681641-1.2470703-1.2714844
				c-2.3671875-2.4609375-9.9912109-10.3217773-11.7226563-12.1069336L34.7529297,29.065918z"/>
			<g>
				
					<linearGradient id="SVGID_9_" gradientUnits="userSpaceOnUse" x1="48.0019531" y1="10.2319336" x2="47.2741814" y2="28.2179737">
					<stop  offset="0" style="stop-color:#FF7F7F"/>
					<stop  offset="0.557576" style="stop-color:#DF0000"/>
					<stop  offset="1" style="stop-color:#7F0000"/>
				</linearGradient>
				<path style="fill:url(#SVGID_9_);" d="M35.3769531,15.9282227c0,0,12.6972656-10.8676758,20.5976563-8.253418
					c7.9023438,2.6147461,7.0546875,21.734375-3.1972656,21.5717773c-10.2519531-0.1630859-18.90625-5.5561523-18.90625-5.5561523
					L35.3769531,15.9282227z"/>
				<path style="fill:#5B0000;" d="M52.9072266,29.6386719l-0.1357422-0.0009766
					c-10.2421875-0.1625977-19.0195313-5.5605469-19.1074219-5.6152344l-0.2285156-0.1420898l1.5830078-8.1606445
					l0.1035156-0.0888672c0.4179688-0.3574219,10.3183594-8.753418,18.1640625-8.753418
					c1.0117188,0,1.9580078,0.1435547,2.8115234,0.4257813c4.6123047,1.5263672,6.1933594,7.9780273,5.3408203,13.2734375
					C60.7324219,24.9575195,58.1201172,29.6386719,52.9072266,29.6386719z M34.3076172,23.4951172
					c1.4335938,0.8359375,9.3691406,5.215332,18.4755859,5.3603516l0.1240234,0.0009766
					c4.7216797,0,7.1035156-4.3413086,7.7578125-8.4038086c0.8134766-5.0463867-0.7646484-11.0668945-4.8134766-12.40625
					c-0.7744141-0.2563477-1.6376953-0.3862305-2.5654297-0.3862305c-7.1425781,0-16.46875,7.5776367-17.5517578,8.4785156
					L34.3076172,23.4951172z"/>
			</g>
			<path style="opacity:0.7;fill:#510000;" d="M35.09375,27.4858398c0,0,2.2871094,3.1186523,2.390625,4.8867188
				c0.1035156,1.7661133,1.5605469,4.6772461,1.5605469,4.6772461s1.3515625-0.8320313,0.5195313-3.3271484
				c-0.8320313-2.4941406-3.0175781-6.2368164-3.0175781-6.2368164H35.09375z"/>
			<path style="opacity:0.7;fill:#510000;" d="M35.4335938,26.9008789c0,0,4.7402344,4.2255859,6.3457031,4.4023438
				c1.6035156,0.1777344-4.1875-4.7294922-4.1875-4.7294922L35.4335938,26.9008789z"/>
			<path style="opacity:0.5;fill:#510000;" d="M33.9257813,20.6020508c0,0,12.046875-4.4047852,11.8144531-2.7338867
				C45.5058594,19.5390625,38.7070313,21.3198242,33.9257813,20.6020508z"/>
			
				<linearGradient id="SVGID_10_" gradientUnits="userSpaceOnUse" x1="46.8945313" y1="11.2709961" x2="39.6175728" y2="15.2213545">
				<stop  offset="0" style="stop-color:#FFEE9F"/>
				<stop  offset="1" style="stop-color:#FFA400"/>
			</linearGradient>
			<path style="fill:url(#SVGID_10_);" d="M38.7460938,14.5996094c0,0,7.1601563-6.7578125,18.6542969-6.2167969
				c0,0-2.2421875-1.6733398-5.2558594-1.0527344s-9.671875,2.3510742-16.0117188,7.9814453L38.7460938,14.5996094z"/>
			<path style="fill:#5B0000;" d="M52.9072266,29.6386719l-0.1357422-0.0009766
				c-10.2421875-0.1625977-19.0195313-5.5605469-19.1074219-5.6152344l-0.2285156-0.1420898l1.5830078-8.1606445
				l0.1035156-0.0888672c0.4179688-0.3574219,10.3183594-8.753418,18.1640625-8.753418
				c1.0117188,0,1.9580078,0.1435547,2.8115234,0.4257813c4.6123047,1.5263672,6.1933594,7.9780273,5.3408203,13.2734375
				C60.7324219,24.9575195,58.1201172,29.6386719,52.9072266,29.6386719z M34.3076172,23.4951172
				c1.4335938,0.8359375,9.3691406,5.215332,18.4755859,5.3603516l0.1240234,0.0009766
				c4.7216797,0,7.1035156-4.3413086,7.7578125-8.4038086c0.8134766-5.0463867-0.7646484-11.0668945-4.8134766-12.40625
				c-0.7744141-0.2563477-1.6376953-0.3862305-2.5654297-0.3862305c-7.1425781,0-16.46875,7.5776367-17.5517578,8.4785156
				L34.3076172,23.4951172z"/>
			<path style="opacity:0.5;fill:#510000;" d="M33.5478516,22.2324219c0,0,13.7861328-3.0585938,12.4873047,0.199707
				C44.5683594,26.1113281,44.9921875,20.5029297,33.5478516,22.2324219z"/>
		</g>
	</g>
	<g>
		<linearGradient id="SVGID_11_" gradientUnits="userSpaceOnUse" x1="27.4033203" y1="15.3139648" x2="36.6460228" y2="25.4182587">
			<stop  offset="0" style="stop-color:#FF7F7F"/>
			<stop  offset="0.557576" style="stop-color:#DF0000"/>
			<stop  offset="1" style="stop-color:#7F0000"/>
		</linearGradient>
		<path style="fill:url(#SVGID_11_);" d="M39.0791016,24.0444336c-0.3085938,2.6020508-2.7050781,4.730957-5.3261719,4.730957
			h-3.5073242c-2.6201172,0-5.0166016-2.1289063-5.3251953-4.7314453l-0.6914063-5.8330078
			c-0.3085938-2.6025391,1.5830078-4.7314453,4.203125-4.7314453h7.1352539c2.6210938,0,4.5117188,2.1289063,4.203125,4.730957
			L39.0791016,24.0444336z"/>
		<path style="fill:#5B0000;" d="M33.7529297,29.1723633h-3.5073242c-2.8212891,0-5.387207-2.2797852-5.7192383-5.081543
			l-0.6914063-5.8330078c-0.1630859-1.3730469,0.2280273-2.6699219,1.1005859-3.6523438
			c0.8725586-0.9819336,2.1142578-1.5229492,3.496582-1.5229492h7.1352539c1.3828125,0,2.6240234,0.5410156,3.4970703,1.5229492
			c0.8720703,0.9819336,1.2626953,2.2788086,1.1005859,3.6518555l-0.6914063,5.8339844
			C39.140625,26.8930664,36.5751953,29.1723633,33.7529297,29.1723633z M28.4321289,13.8764648
			c-1.1523438,0-2.1831055,0.4462891-2.902832,1.2563477c-0.7202148,0.8105469-1.0415039,1.8867188-0.90625,3.03125
			l0.6914063,5.8330078c0.2866211,2.4160156,2.4985352,4.3813477,4.9311523,4.3813477h3.5073242
			c2.4326172,0,4.6455078-1.965332,4.9316406-4.3808594l0.6914063-5.8339844
			c0.1357422-1.1445313-0.1855469-2.2207031-0.9052734-3.0307617s-1.7509766-1.2563477-2.9033203-1.2563477H28.4321289z"/>
	</g>
</g>
</svg>
