<?xml version="1.0" encoding="utf-8"?>
<!-- Generator: Adobe Illustrator 15.0.2, SVG Export Plug-In . SVG Version: 6.00 Build 0)  -->
<!DOCTYPE svg PUBLIC "-//W3C//DTD SVG 1.1//EN" "http://www.w3.org/Graphics/SVG/1.1/DTD/svg11.dtd">
<svg version="1.1" id="レイヤー_1" xmlns="http://www.w3.org/2000/svg" xmlns:xlink="http://www.w3.org/1999/xlink" x="0px"
	 y="0px" width="64px" height="64px" viewBox="0 0 64 64" enable-background="new 0 0 64 64" xml:space="preserve">
<g>
	<g>
		<g>
			
				<linearGradient id="SVGID_1_" gradientUnits="userSpaceOnUse" x1="67.8594" y1="50.9541" x2="52.2778" y2="17.6142" gradientTransform="matrix(-1 0 0 1 81.2188 0)">
				<stop  offset="0" style="stop-color:#FF7F7F"/>
				<stop  offset="0.5576" style="stop-color:#DF0000"/>
				<stop  offset="1" style="stop-color:#7F0000"/>
			</linearGradient>
			<path fill="url(#SVGID_1_)" stroke="#5B0000" stroke-width="0.7826" stroke-miterlimit="10" d="M29.678,29.022l-4.852-5.777
				c0,0-8.252,9.374-10.93,12.157C11.218,38.187,7.27,41.724,1.51,50.25l14.727-2.919l5.583,8.952c0,0,8.495-10.58,7.03-18.097
				C27.957,33.604,29.678,29.022,29.678,29.022z"/>
			
				<linearGradient id="SVGID_2_" gradientUnits="userSpaceOnUse" x1="69.252" y1="47.4102" x2="65.6917" y2="26.5573" gradientTransform="matrix(-1 0 0 1 81.2188 0)">
				<stop  offset="0" style="stop-color:#FFEE9F"/>
				<stop  offset="1" style="stop-color:#FFA400"/>
			</linearGradient>
			<path fill="url(#SVGID_2_)" d="M25.253,24.32C11.52,37.471,11.541,37.494,8.944,40.578C6.156,43.889,1.51,50.25,1.51,50.25
				l3.431-0.679c0,0,4.316-8.311,20.556-22.998L25.253,24.32z"/>
			
				<linearGradient id="SVGID_3_" gradientUnits="userSpaceOnUse" x1="57.1084" y1="52.4512" x2="53.4698" y2="31.1394" gradientTransform="matrix(-1 0 0 1 81.2188 0)">
				<stop  offset="0" style="stop-color:#FFEE9F"/>
				<stop  offset="1" style="stop-color:#FFA400"/>
			</linearGradient>
			<path fill="url(#SVGID_3_)" d="M30.128,28.219l-0.45-0.733c0,0-3.661,6.57-2.331,11.024c1.33,4.455-6.482,16.241-6.482,16.241
				l1.076,2.057c0,0,8.134-11.882,6.909-18.621S30.128,28.219,30.128,28.219z"/>
			<path fill="none" stroke="#5B0000" stroke-width="0.7826" stroke-miterlimit="10" d="M29.678,29.022l-4.182-6.092
				c0,0-8.922,9.688-11.6,12.471C11.218,38.187,7.27,41.724,1.51,50.25l14.727-2.919l5.583,8.952c0,0,8.495-10.58,7.03-18.097
				C27.957,33.604,29.678,29.022,29.678,29.022z"/>
			
				<linearGradient id="SVGID_4_" gradientUnits="userSpaceOnUse" x1="65.2217" y1="10.2319" x2="64.4939" y2="28.218" gradientTransform="matrix(-1 0 0 1 81.2188 0)">
				<stop  offset="0" style="stop-color:#FF7F7F"/>
				<stop  offset="0.5576" style="stop-color:#DF0000"/>
				<stop  offset="1" style="stop-color:#7F0000"/>
			</linearGradient>
			<path fill="url(#SVGID_4_)" stroke="#5B0000" stroke-width="0.7826" stroke-miterlimit="10" d="M28.623,15.928
				c0,0-12.697-10.868-20.599-8.253C0.123,10.29,0.97,29.409,11.222,29.247c10.252-0.163,18.906-5.556,18.906-5.556L28.623,15.928z"
				/>
			<path fill="#7C0808" d="M28.906,27.486c0,0-2.287,3.119-2.392,4.887c-0.104,1.766-1.56,4.677-1.56,4.677s-1.351-0.832-0.52-3.327
				c0.832-2.494,3.017-6.237,3.017-6.237H28.906z"/>
			<path fill="#7C0808" d="M28.566,26.901c0,0-4.74,4.226-6.345,4.402c-1.604,0.178,4.186-4.729,4.186-4.729L28.566,26.901z"/>
			<path fill="#7C0808" d="M30.072,20.602c0,0-12.046-4.405-11.812-2.734C18.494,19.539,25.294,21.32,30.072,20.602z"/>
			
				<linearGradient id="SVGID_5_" gradientUnits="userSpaceOnUse" x1="64.1133" y1="11.271" x2="56.8358" y2="15.2217" gradientTransform="matrix(-1 0 0 1 81.2188 0)">
				<stop  offset="0" style="stop-color:#FFEE9F"/>
				<stop  offset="1" style="stop-color:#FFA400"/>
			</linearGradient>
			<path fill="url(#SVGID_5_)" d="M25.253,14.6c0,0-7.159-6.758-18.654-6.217c0,0,2.242-1.673,5.257-1.053
				c3.014,0.621,9.673,2.351,16.013,7.981L25.253,14.6z"/>
			<path fill="none" stroke="#5B0000" stroke-width="0.7826" stroke-miterlimit="10" d="M28.623,15.928
				c0,0-12.697-10.868-20.599-8.253C0.123,10.29,0.97,29.409,11.222,29.247c10.252-0.163,18.906-5.556,18.906-5.556L28.623,15.928z"
				/>
			<path fill="#7C0808" d="M30.452,22.232c0,0-13.787-3.059-12.487,0.2C19.432,26.111,19.007,20.503,30.452,22.232z"/>
		</g>
		<g>
			<linearGradient id="SVGID_6_" gradientUnits="userSpaceOnUse" x1="50.6523" y1="50.9785" x2="35.1639" y2="17.8377">
				<stop  offset="0" style="stop-color:#FF7F7F"/>
				<stop  offset="0.5576" style="stop-color:#DF0000"/>
				<stop  offset="1" style="stop-color:#7F0000"/>
			</linearGradient>
			<path fill="url(#SVGID_6_)" stroke="#5B0000" stroke-width="0.7826" stroke-miterlimit="10" d="M34.322,29.022l4.424-5.351
				c0,0,8.68,8.948,11.357,11.73c2.678,2.785,6.627,6.322,12.387,14.849l-14.727-2.919l-5.582,8.952c0,0-8.496-10.58-7.031-18.097
				C36.043,33.604,34.322,29.022,34.322,29.022z"/>
			<linearGradient id="SVGID_7_" gradientUnits="userSpaceOnUse" x1="51.3584" y1="47.5195" x2="47.7938" y2="26.6411">
				<stop  offset="0" style="stop-color:#FFEE9F"/>
				<stop  offset="1" style="stop-color:#FFA400"/>
			</linearGradient>
			<path fill="url(#SVGID_7_)" d="M38.746,24.32c13.734,13.15,13.713,13.174,16.309,16.258c2.789,3.311,7.436,9.672,7.436,9.672
				l-3.43-0.679c0,0-6.041-10.266-22.279-24.953L38.746,24.32z"/>
			<linearGradient id="SVGID_8_" gradientUnits="userSpaceOnUse" x1="39.8896" y1="52.4521" x2="36.251" y2="31.1404">
				<stop  offset="0" style="stop-color:#FFEE9F"/>
				<stop  offset="1" style="stop-color:#FFA400"/>
			</linearGradient>
			<path fill="url(#SVGID_8_)" d="M33.871,28.219l0.451-0.733c0,0,3.662,6.57,2.332,11.024c-1.332,4.455,6.48,16.241,6.48,16.241
				l-1.076,2.057c0,0-8.133-11.882-6.908-18.621S33.871,28.219,33.871,28.219z"/>
			<path fill="none" stroke="#5B0000" stroke-width="0.7826" stroke-miterlimit="10" d="M34.322,29.022l3.705-6.092
				c0,0,9.398,9.688,12.076,12.471c2.678,2.785,6.627,6.322,12.387,14.849l-14.727-2.919l-5.582,8.952c0,0-8.496-10.58-7.031-18.097
				C36.043,33.604,34.322,29.022,34.322,29.022z"/>
			<linearGradient id="SVGID_9_" gradientUnits="userSpaceOnUse" x1="48.002" y1="10.2319" x2="47.2742" y2="28.218">
				<stop  offset="0" style="stop-color:#FF7F7F"/>
				<stop  offset="0.5576" style="stop-color:#DF0000"/>
				<stop  offset="1" style="stop-color:#7F0000"/>
			</linearGradient>
			<path fill="url(#SVGID_9_)" stroke="#5B0000" stroke-width="0.7826" stroke-miterlimit="10" d="M35.377,15.928
				c0,0,12.697-10.868,20.598-8.253c7.902,2.615,7.055,21.734-3.197,21.572c-10.252-0.163-18.906-5.556-18.906-5.556L35.377,15.928z
				"/>
			<path fill="#7C0808" d="M35.094,27.486c0,0,2.287,3.119,2.391,4.887c0.104,1.766,1.561,4.677,1.561,4.677s1.352-0.832,0.52-3.327
				c-0.832-2.494-3.018-6.237-3.018-6.237H35.094z"/>
			<path fill="#7C0808" d="M35.434,26.901c0,0,4.74,4.226,6.346,4.402c1.604,0.178-4.188-4.729-4.188-4.729L35.434,26.901z"/>
			<path fill="#7C0808" d="M33.926,20.602c0,0,12.047-4.405,11.814-2.734C45.506,19.539,38.707,21.32,33.926,20.602z"/>
			<linearGradient id="SVGID_10_" gradientUnits="userSpaceOnUse" x1="46.8945" y1="11.271" x2="39.6176" y2="15.2214">
				<stop  offset="0" style="stop-color:#FFEE9F"/>
				<stop  offset="1" style="stop-color:#FFA400"/>
			</linearGradient>
			<path fill="url(#SVGID_10_)" d="M38.746,14.6c0,0,7.16-6.758,18.654-6.217c0,0-2.242-1.673-5.256-1.053
				s-9.672,2.351-16.012,7.981L38.746,14.6z"/>
			<path fill="none" stroke="#5B0000" stroke-width="0.7826" stroke-miterlimit="10" d="M35.377,15.928
				c0,0,12.697-10.868,20.598-8.253c7.902,2.615,7.055,21.734-3.197,21.572c-10.252-0.163-18.906-5.556-18.906-5.556L35.377,15.928z
				"/>
			<path fill="#7C0808" d="M33.548,22.232c0,0,13.786-3.059,12.487,0.2C44.568,26.111,44.992,20.503,33.548,22.232z"/>
		</g>
	</g>
	<g>
		<linearGradient id="SVGID_11_" gradientUnits="userSpaceOnUse" x1="27.4033" y1="15.314" x2="36.646" y2="25.4183">
			<stop  offset="0" style="stop-color:#FF7F7F"/>
			<stop  offset="0.5576" style="stop-color:#DF0000"/>
			<stop  offset="1" style="stop-color:#7F0000"/>
		</linearGradient>
		<path fill="url(#SVGID_11_)" d="M39.079,24.044c-0.309,2.603-2.705,4.731-5.326,4.731h-3.507c-2.62,0-5.017-2.129-5.325-4.731
			l-0.691-5.833c-0.309-2.603,1.583-4.731,4.203-4.731h7.135c2.621,0,4.512,2.129,4.203,4.731L39.079,24.044z"/>
		<path fill="none" stroke="#5B0000" stroke-width="0.7941" stroke-miterlimit="10" d="M39.079,24.044
			c-0.309,2.603-2.705,4.731-5.326,4.731h-3.507c-2.62,0-5.017-2.129-5.325-4.731l-0.691-5.833
			c-0.309-2.603,1.583-4.731,4.203-4.731h7.135c2.621,0,4.512,2.129,4.203,4.731L39.079,24.044z"/>
	</g>
</g>
</svg>
