<?xml version="1.0" encoding="utf-8"?>
<!-- Generator: Adobe Illustrator 15.0.2, SVG Export Plug-In . SVG Version: 6.00 Build 0)  -->
<!DOCTYPE svg PUBLIC "-//W3C//DTD SVG 1.1//EN" "http://www.w3.org/Graphics/SVG/1.1/DTD/svg11.dtd">
<svg version="1.1" id="レイヤー_1" xmlns="http://www.w3.org/2000/svg" xmlns:xlink="http://www.w3.org/1999/xlink" x="0px"
	 y="0px" width="64px" height="64px" viewBox="0 0 64 64" enable-background="new 0 0 64 64" xml:space="preserve">
<g>
	<g>
		<polygon fill="none" stroke="#140800" stroke-width="2" stroke-miterlimit="10" points="55.23,31.769 55.752,30.54 55.057,29.379 
			55.35,28.118 54.721,27.006 54.615,25.791 54.137,24.675 54.018,23.426 53.635,22.259 52.84,21.293 52.477,20.097 51.424,19.33 
			50.775,18.317 50.215,17.212 49.412,16.296 48.227,15.773 47.719,14.535 46.828,13.686 45.404,13.583 44.416,12.92 43.684,11.787 
			42.4,11.632 41.311,11.135 40.133,10.869 39.15,10.03 38.078,9.325 36.783,9.524 35.658,8.884 34.416,8.957 33.178,9.331 
			31.981,9.072 30.792,9.465 29.602,9.503 28.412,9.601 27.223,9.736 26.041,9.946 24.793,9.978 23.736,10.624 22.734,11.337 
			21.358,11.224 20.58,12.339 19.521,12.888 18.216,13.098 17.388,14.021 16.671,15.036 15.415,15.444 14.355,16.118 13.856,17.31 
			12.788,18.018 12.498,19.309 11.786,20.284 11.549,21.525 10.387,22.291 9.805,23.374 9.292,24.497 9.051,25.71 8.725,26.893 
			8.524,28.104 8.912,29.379 9.006,30.583 8.691,31.769 8.785,32.966 8.249,34.229 8.449,35.445 8.989,36.587 9.729,37.64 
			10.154,38.75 10.366,39.94 10.817,41.051 11.443,42.072 11.858,43.214 12.197,44.438 12.75,45.554 13.605,46.445 14.603,47.191 
			15.325,48.193 16.501,48.703 17.372,49.544 18.355,50.244 19.279,51.046 20.26,51.783 21.269,52.502 22.561,52.612 23.667,53.106 
			24.861,53.348 25.886,54.195 27.206,53.88 28.331,54.481 29.531,54.738 30.774,54.432 31.981,54.263 33.18,54.274 34.375,54.19 
			35.598,54.255 36.855,54.374 37.973,53.789 39.166,53.549 40.205,52.857 41.523,52.893 42.568,52.24 43.563,51.526 44.375,50.544 
			45.711,50.388 46.365,49.246 47.332,48.548 48.391,47.929 49.051,46.895 50.148,46.264 50.527,45.028 51.645,44.352 52.33,43.347 
			52.574,42.098 53.221,41.081 53.551,39.919 54.674,39.042 54.707,37.771 55.125,36.619 54.893,35.343 55.549,34.212 55.5,32.984 
					"/>
		<linearGradient id="SVGID_1_" gradientUnits="userSpaceOnUse" x1="29.2705" y1="13.3701" x2="36.639" y2="64.6956">
			<stop  offset="0" style="stop-color:#FFCD7F"/>
			<stop  offset="1" style="stop-color:#CF6100"/>
		</linearGradient>
		<polygon fill="url(#SVGID_1_)" points="55.23,31.769 55.752,30.54 55.057,29.379 55.35,28.118 54.721,27.006 54.615,25.791 
			54.137,24.675 54.018,23.426 53.635,22.259 52.84,21.293 52.477,20.097 51.424,19.33 50.775,18.317 50.215,17.212 49.412,16.296 
			48.227,15.773 47.719,14.535 46.828,13.686 45.404,13.583 44.416,12.92 43.684,11.787 42.4,11.632 41.311,11.135 40.133,10.869 
			39.15,10.03 38.078,9.325 36.783,9.524 35.658,8.884 34.416,8.957 33.178,9.331 31.981,9.072 30.792,9.465 29.602,9.503 
			28.412,9.601 27.223,9.736 26.041,9.946 24.793,9.978 23.736,10.624 22.734,11.337 21.358,11.224 20.58,12.339 19.521,12.888 
			18.216,13.098 17.388,14.021 16.671,15.036 15.415,15.444 14.355,16.118 13.856,17.31 12.788,18.018 12.498,19.309 11.786,20.284 
			11.549,21.525 10.387,22.291 9.805,23.374 9.292,24.497 9.051,25.71 8.725,26.893 8.524,28.104 8.912,29.379 9.006,30.583 
			8.691,31.769 8.785,32.966 8.249,34.229 8.449,35.445 8.989,36.587 9.729,37.64 10.154,38.75 10.366,39.94 10.817,41.051 
			11.443,42.072 11.858,43.214 12.197,44.438 12.75,45.554 13.605,46.445 14.603,47.191 15.325,48.193 16.501,48.703 17.372,49.544 
			18.355,50.244 19.279,51.046 20.26,51.783 21.269,52.502 22.561,52.612 23.667,53.106 24.861,53.348 25.886,54.195 27.206,53.88 
			28.331,54.481 29.531,54.738 30.774,54.432 31.981,54.263 33.18,54.274 34.375,54.19 35.598,54.255 36.855,54.374 37.973,53.789 
			39.166,53.549 40.205,52.857 41.523,52.893 42.568,52.24 43.563,51.526 44.375,50.544 45.711,50.388 46.365,49.246 47.332,48.548 
			48.391,47.929 49.051,46.895 50.148,46.264 50.527,45.028 51.645,44.352 52.33,43.347 52.574,42.098 53.221,41.081 53.551,39.919 
			54.674,39.042 54.707,37.771 55.125,36.619 54.893,35.343 55.549,34.212 55.5,32.984 		"/>
	</g>
	<path fill="#0C0501" d="M19.805,52.331V31.206h24.613v20.235C44.418,51.441,33.293,59.081,19.805,52.331z"/>
	<ellipse opacity="0.44" fill="#AA6D44" cx="19.805" cy="25.925" rx="1.063" ry="1.125"/>
	<ellipse fill="#AA6D44" cx="23.968" cy="17.831" rx="3.101" ry="3.284"/>
	<ellipse fill="#AA6D44" cx="30.075" cy="23.769" rx="2.037" ry="2.156"/>
	<ellipse opacity="0.44" fill="#AA6D44" cx="14.135" cy="24.8" rx="0.853" ry="1.125"/>
	<ellipse opacity="0.44" fill="#AA6D44" cx="47.315" cy="27.331" rx="0.853" ry="1.125"/>
	<ellipse opacity="0.44" fill="#AA6D44" cx="15.668" cy="42.581" rx="1.063" ry="1.125"/>
	<ellipse opacity="0.44" fill="#AA6D44" cx="36.293" cy="28.082" rx="0.609" ry="1.125"/>
	<ellipse opacity="0.44" fill="#AA6D44" cx="12.919" cy="34.956" rx="0.489" ry="1.125"/>
	<ellipse opacity="0.44" fill="#AA6D44" cx="50.083" cy="40.331" rx="0.853" ry="1.125"/>
</g>
</svg>
