<?xml version="1.0" encoding="utf-8"?>
<!-- Generator: Adobe Illustrator 15.0.2, SVG Export Plug-In . SVG Version: 6.00 Build 0)  -->
<!DOCTYPE svg PUBLIC "-//W3C//DTD SVG 1.1//EN" "http://www.w3.org/Graphics/SVG/1.1/DTD/svg11.dtd">
<svg version="1.1" id="レイヤー_1" xmlns="http://www.w3.org/2000/svg" xmlns:xlink="http://www.w3.org/1999/xlink" x="0px"
	 y="0px" width="64px" height="64px" viewBox="0 0 64 64" style="enable-background:new 0 0 64 64;" xml:space="preserve">
<g>
	<g>
		<path style="fill:#FFFFFF;" d="M58.9882813,43.9033203c0-0.0126953,0.0019531-0.0244141,0.0019531-0.0371094
			c0-1.2841797-0.4199219-2.375-1.0097656-2.8183594c-0.2802734-1.2275391-0.6962891-2.5009766-1.2587891-3.8134766
			c-0.0625-0.1826172-0.1337891-0.3535156-0.2158203-0.5068359c-0.0605469-0.1337891-0.1044922-0.2626953-0.1689453-0.3974609
			c-2.5791016-5.4155273-6.4892578-12.9423828-11.1796875-18.9667969c-0.1962891-1.2504883-0.7978516-2.1665039-1.5175781-2.1665039
			c-0.078125,0-0.1523438,0.0229492-0.2265625,0.043457C39.4306641,10.659668,34.9736328,7.375,30.3364258,7.375
			c-3.9873047,0-8.2675781,3.390625-12.1079102,8.1928711c-0.1010742-0.0385742-0.2055664-0.0600586-0.3125-0.0600586
			c-0.7973633,0-1.4516602,1.1162109-1.5693359,2.5722656c-0.128418,0.1826172-0.2583008,0.3618164-0.3852539,0.546875
			c-0.253418,0.1118164-0.4799805,0.3417969-0.6708984,0.652832c-0.277832-0.453125-0.6342773-0.7368164-1.0288086-0.7368164
			c-0.8818359,0-1.59375,1.3574219-1.59375,3.0341797c0,0.6879883,0.1245117,1.315918,0.3276367,1.8251953
			c-0.5566406,0.9853516-1.0883789,1.9824219-1.5932617,2.9848633c-0.1972656-0.1547852-0.4130859-0.2426758-0.6396484-0.2426758
			c-0.9331055,0-1.6865234,1.4365234-1.6865234,3.2109375c0,0.581543,0.0874023,1.1196289,0.2290039,1.590332
			C8.7104492,32.375,8.184082,33.7773438,7.7392578,35.1269531c-0.7182617,0.2519531-1.262207,1.4433594-1.262207,2.8837891
			c0,0.4248047,0.0498047,0.8271484,0.1347656,1.1914063c-0.2978516,1.3740234-0.4711914,2.6289063-0.5083008,3.7294922
			c-0.6323242,0.3671875-1.0942383,1.4716797-1.0942383,2.796875c0,1.6220703,0.6899414,2.9394531,1.543457,2.9394531
			c0.0498047,0,0.0961914-0.0195313,0.1450195-0.0283203c0.1152344,0.4453125,0.2436523,0.8720703,0.3881836,1.2734375
			c-0.0473633,0.2822266-0.0795898,0.5771484-0.0795898,0.8886719c0,1.6230469,0.6899414,2.9384766,1.543457,2.9384766
			c0.0512695,0,0.0996094-0.0195313,0.1494141-0.0283203c0.0595703,0.0175781,0.1020508,0.0283203,0.1020508,0.0283203
			c0.1699219-0.0263672,0.3154297-0.0898438,0.4438477-0.1757813c0.3530273,0.3828125,0.722168,0.7324219,1.1152344,1.0351563
			c0.2636719,0.8964844,0.7612305,1.5097656,1.3408203,1.5097656c0.0512695,0,0.0991211-0.0195313,0.1489258-0.0283203
			c0.0595703,0.0175781,0.1020508,0.0283203,0.1020508,0.0283203c0.2319336-0.0361328,0.418457-0.140625,0.5751953-0.2832031
			C13.9018555,56.3808594,15.3769531,56.625,16.8364258,56.625c4.5,0,29.7504883,0,34.7504883,0
			c3.2792969-0.9746094,6.3710938-4.7832031,6.8173828-10.1777344
			C58.9931641,45.7070313,59.0009766,44.3105469,58.9882813,43.9033203z"/>
		<path style="fill:#C6C7C8;" d="M51.6591797,57.125H16.8364258c-1.5078125,0-2.9301758-0.2460938-4.2329102-0.7324219
			c-0.1772461,0.1083984-0.3696289,0.1787109-0.5742188,0.2109375l-0.1005859,0.015625l-0.0908203-0.0224609
			c-0.0405273,0.0068359-0.0859375,0.0126953-0.1367188,0.0126953c-0.7597656,0-1.4145508-0.6367188-1.7714844-1.7128906
			c-0.2670898-0.2138672-0.5302734-0.453125-0.7963867-0.7246094c-0.0830078,0.0283203-0.168457,0.0488281-0.2553711,0.0625
			L8.777832,54.25l-0.0908203-0.0224609c-0.0410156,0.0068359-0.0864258,0.0126953-0.137207,0.0126953
			c-1.1650391,0-2.043457-1.4785156-2.043457-3.4384766c0-0.2685547,0.0214844-0.5449219,0.065918-0.8417969
			c-0.0913086-0.2617188-0.1757813-0.5332031-0.2548828-0.8125c-1.0458984-0.1845703-1.8081055-1.5927734-1.8081055-3.4189453
			c0-1.3378906,0.4262695-2.4970703,1.1049805-3.0615234c0.0522461-1.0302734,0.215332-2.1933594,0.4858398-3.4628906
			c-0.081543-0.3867188-0.1230469-0.7871094-0.1230469-1.1933594c0-1.5009766,0.5458984-2.7802734,1.3549805-3.2441406
			c0.4130859-1.2353516,0.8984375-2.5288086,1.4448242-3.8515625c-0.1333008-0.5-0.2006836-1.0234375-0.2006836-1.5595703
			c0-2.1157227,0.9399414-3.7109375,2.1865234-3.7109375c0.1420898,0,0.2836914,0.0224609,0.4223633,0.0664063
			c0.40625-0.7929688,0.8295898-1.581543,1.2617188-2.3530273c-0.1826172-0.5415039-0.2788086-1.1518555-0.2788086-1.7807617
			c0-2.0146484,0.8999023-3.5341797,2.09375-3.5341797c0.3681641,0,0.7202148,0.1538086,1.0283203,0.4423828
			c0.105957-0.0991211,0.2172852-0.1816406,0.3339844-0.2475586l0.2373047-0.3374023
			c0.1821289-1.7744141,1.0771484-2.980957,2.171875-2.887207C21.0913086,11.2426758,25.6464844,6.875,30.3364258,6.875
			c4.2329102,0,8.6948242,2.6313477,13.2661133,7.8227539c0.9580078-0.0375977,1.7539063,0.9389648,2.0263672,2.4584961
			c3.6669922,4.7304688,7.4208984,11.1083984,11.1591797,18.9589844c0.0400391,0.0830078,0.0732422,0.1660156,0.1074219,0.2480469
			l0.0654297,0.1582031c0.0800781,0.1455078,0.1621094,0.3417969,0.2333984,0.5507813
			c0.5263672,1.2236328,0.9453125,2.4775391,1.2353516,3.7001953c0.6582031,0.6054688,1.0605469,1.7666016,1.0605469,3.09375
			c0.0146484,0.5712891-0.0126953,1.9003906-0.5996094,2.7636719c-0.4658203,5.0595703-3.3964844,9.3554688-7.1611328,10.4746094
			L51.6591797,57.125z M12.4233398,55.2451172l0.2910156,0.1171875C13.9682617,55.8681641,15.3549805,56.125,16.8364258,56.125
			h34.6762695c2.7763672-0.8642578,5.9414063-4.2558594,6.3935547-9.71875l0.0126953-0.1513672l0.09375-0.1191406
			c0.3867188-0.4863281,0.4980469-1.4980469,0.4755859-2.2167969c0.0019531-1.2958984-0.4179688-2.1777344-0.8085938-2.4716797
			l-0.1455078-0.109375l-0.0410156-0.1787109c-0.2773438-1.2148438-0.6914063-2.4697266-1.2314453-3.7275391
			c-0.0664063-0.1914063-0.1269531-0.3369141-0.1962891-0.4677734l-0.0976563-0.2265625
			c-0.0253906-0.0634766-0.0507813-0.1269531-0.0820313-0.1914063c-3.734375-7.8417969-7.4765625-14.1918945-11.1230469-18.8754883
			l-0.0791016-0.1020508l-0.0205078-0.1274414c-0.1708984-1.0917969-0.6552734-1.7441406-1.0234375-1.7441406l-0.3037109,0.0839844
			l-0.2998047-0.2124023C38.5976563,10.4633789,34.3251953,7.875,30.3364258,7.875
			c-4.3935547,0-8.796875,4.3530273-11.7172852,8.0053711l-0.2280273,0.284668l-0.3408203-0.1298828
			c-0.0478516-0.0185547-0.0917969-0.0273438-0.1342773-0.0273438c-0.4345703,0-0.96875,0.8486328-1.0708008,2.1123047
			l-0.0112305,0.1362305l-0.5405273,0.7705078l-0.1303711,0.0576172c-0.1469727,0.0649414-0.3051758,0.2270508-0.4462891,0.4570313
			l-0.4262695,0.6943359l-0.4262695-0.6948242c-0.1943359-0.3164063-0.4135742-0.4980469-0.6025391-0.4980469
			c-0.4458008,0-1.09375,0.9873047-1.09375,2.5341797c0,0.59375,0.1010742,1.1611328,0.2919922,1.6401367l0.0888672,0.222168
			l-0.1176758,0.2089844c-0.5463867,0.9667969-1.0791016,1.9643555-1.5820313,2.9638672l-0.2749023,0.5454102L11.09375,26.7807617
			c-0.1152344-0.090332-0.2265625-0.1362305-0.3310547-0.1362305c-0.5600586,0-1.1865234,1.1591797-1.1865234,2.7109375
			c0,0.5014648,0.0698242,0.987793,0.2080078,1.4462891l0.0512695,0.1708984l-0.0688477,0.1650391
			c-0.5942383,1.4291992-1.1166992,2.8242188-1.5522461,4.1455078l-0.0771484,0.234375l-0.2324219,0.0810547
			c-0.4462891,0.15625-0.9277344,1.1230469-0.9277344,2.4121094c0,0.3691406,0.0410156,0.7314453,0.121582,1.078125
			l0.0258789,0.109375l-0.0239258,0.109375c-0.2944336,1.3583984-0.4619141,2.5830078-0.4975586,3.640625L6.59375,43.2246094
			l-0.2392578,0.1396484c-0.4199219,0.2441406-0.8452148,1.1337891-0.8452148,2.3642578
			c0,1.4892578,0.6181641,2.4394531,1.043457,2.4394531l0.456543-0.0820313l0.1723633,0.4287109
			c0.1113281,0.4296875,0.2353516,0.8417969,0.3745117,1.2294922l0.0444336,0.1230469l-0.0214844,0.1289063
			c-0.0488281,0.2910156-0.0727539,0.5546875-0.0727539,0.8056641c0,1.4882813,0.6181641,2.4384766,1.043457,2.4384766
			l0.1157227-0.0205078l0.1337891,0.0097656c0.0576172-0.0166016,0.1123047-0.0429688,0.1674805-0.0810547l0.355957-0.2373047
			l0.2900391,0.3144531c0.3579102,0.3876953,0.7021484,0.7080078,1.0527344,0.9775391l0.128418,0.0996094l0.0458984,0.15625
			c0.199707,0.6767578,0.5537109,1.1503906,0.8613281,1.1503906l0.1157227-0.0205078l0.1333008,0.0097656
			c0.0854492-0.0253906,0.1630859-0.0722656,0.2407227-0.1425781L12.4233398,55.2451172z"/>
	</g>
	<g>
		<ellipse style="fill:#FFFFFF;" cx="53.8510742" cy="51.5966797" rx="1.5932617" ry="3.0361328"/>
		<path style="fill:#D9DADA;" d="M55.4365234,51.5195313c0,0,0.1904297,2.8798828-1.3242188,3.1132813
			c0,0-0.8632813-0.1914063-1.0185547-0.7753906C53.09375,53.8574219,54.5419922,53.8154297,55.4365234,51.5195313z"/>
	</g>
	<g>
		<g>
			<ellipse style="fill:#FFFFFF;" cx="51.7900391" cy="51.5986328" rx="1.5927734" ry="3.0341799"/>
			<path style="fill:#D9DADA;" d="M53.3759766,51.5195313c0,0,0.1894531,2.8808594-1.3251953,3.1132813
				c0,0-0.8632813-0.1914063-1.0195313-0.7753906C51.03125,53.8574219,52.4814453,53.8164063,53.3759766,51.5195313z"/>
		</g>
		<g>
			<ellipse style="fill:#FFFFFF;" cx="55.4453125" cy="48.5634766" rx="1.59375" ry="3.0351565"/>
			<path style="fill:#D9DADA;" d="M57.03125,48.484375c0,0,0.1904297,2.8818359-1.3251953,3.1142578
				c0,0-0.8632813-0.1923828-1.0185547-0.7763672C54.6875,50.8222656,56.1357422,50.7822266,57.03125,48.484375z"/>
		</g>
		<g>
			<ellipse style="fill:#FFFFFF;" cx="49.0712891" cy="51.5576172" rx="1.5927734" ry="3.0361331"/>
			<path style="fill:#D9DADA;" d="M50.6572266,51.4794922c0,0,0.1894531,2.8808594-1.3251953,3.1142578
				c0,0-0.8642578-0.1923828-1.0195313-0.7763672C48.3125,53.8173828,49.7626953,53.7763672,50.6572266,51.4794922z"/>
		</g>
		<g>
			<ellipse style="fill:#FFFFFF;" cx="47.0107422" cy="51.5585938" rx="1.5927734" ry="3.0351565"/>
			<path style="fill:#D9DADA;" d="M48.5966797,51.4794922c0,0,0.1894531,2.8818359-1.3251953,3.1142578
				c0,0-0.8642578-0.1923828-1.0195313-0.7763672C46.2519531,53.8173828,47.7011719,53.7773438,48.5966797,51.4794922z"/>
		</g>
		<g>
			<ellipse style="fill:#FFFFFF;" cx="50.6650391" cy="48.5244141" rx="1.5927734" ry="3.0341799"/>
			<path style="fill:#D9DADA;" d="M52.2509766,48.4453125c0,0,0.1894531,2.8808594-1.3251953,3.1132813
				c0,0-0.8632813-0.1914063-1.0195313-0.7753906C49.90625,50.7832031,51.3564453,50.7421875,52.2509766,48.4453125z"/>
		</g>
	</g>
	<g>
		<g>
			<ellipse style="fill:#FFFFFF;" cx="11.6135254" cy="53.2939453" rx="1.5422363" ry="2.9404299"/>
			<path style="fill:#D9DADA;" d="M13.1494141,53.2197266c0,0,0.1835938,2.7871094-1.2836914,3.0146484
				c0,0-0.8359375-0.1855469-0.9868164-0.75C10.8789063,55.484375,12.2832031,55.4414063,13.1494141,53.2197266z"/>
		</g>
		<g>
			<ellipse style="fill:#FFFFFF;" cx="8.4621582" cy="50.9267578" rx="1.5422363" ry="2.9384768"/>
			<path style="fill:#D9DADA;" d="M9.9975586,50.8515625c0,0,0.184082,2.7890625-1.2827148,3.0136719
				c0,0-0.8364258-0.1855469-0.9873047-0.75C7.7275391,53.1152344,9.1313477,53.0751953,9.9975586,50.8515625z"/>
		</g>
		<g>
			<ellipse style="fill:#FFFFFF;" cx="13.1572266" cy="50.3574219" rx="1.5424805" ry="2.9384768"/>
			<path style="fill:#D9DADA;" d="M14.6933594,50.2802734c0,0,0.1831055,2.7900391-1.2841797,3.015625
				c0,0-0.8359375-0.1855469-0.9868164-0.7509766C12.4223633,52.5449219,13.8261719,52.5058594,14.6933594,50.2802734z"/>
		</g>
	</g>
	<g>
		<g>
			<ellipse style="fill:#FFFFFF;" cx="53.6542969" cy="47.0263672" rx="1.5927734" ry="3.0341804"/>
			<path style="fill:#D9DADA;" d="M55.2412109,46.9472656c0,0,0.1884766,2.8808594-1.3261719,3.1132813
				c0,0-0.8632813-0.1914063-1.0185547-0.7753906C52.8964844,49.2851563,54.3457031,49.2441406,55.2412109,46.9472656z"/>
		</g>
		<g>
			<ellipse style="fill:#FFFFFF;" cx="57.3100586" cy="43.9912109" rx="1.5932617" ry="3.0351565"/>
			<path style="fill:#D9DADA;" d="M58.8964844,43.9121094c0,0,0.1894531,2.8818359-1.3251953,3.1142578
				c0,0-0.8642578-0.1923828-1.0195313-0.7753906C56.5517578,46.2509766,58.0009766,46.2099609,58.8964844,43.9121094z"/>
		</g>
		<g>
			<ellipse style="fill:#FFFFFF;" cx="50.9355469" cy="46.9853516" rx="1.5927734" ry="3.0371096"/>
			<path style="fill:#D9DADA;" d="M52.5214844,46.9091797c0,0,0.1894531,2.8789063-1.3251953,3.1132813
				c0,0-0.8632813-0.1914063-1.0195313-0.7753906C50.1767578,49.2470703,51.6269531,49.2041016,52.5214844,46.9091797z"/>
		</g>
		<g>
			<ellipse style="fill:#FFFFFF;" cx="48.875" cy="46.9873047" rx="1.5927734" ry="3.0351565"/>
			<path style="fill:#D9DADA;" d="M50.4609375,46.9091797c0,0,0.1894531,2.8808594-1.3251953,3.1132813
				c0,0-0.8632813-0.1914063-1.0195313-0.7753906C48.1162109,49.2470703,49.5664063,49.2060547,50.4609375,46.9091797z"/>
		</g>
		<g>
			<ellipse style="fill:#FFFFFF;" cx="52.5292969" cy="43.953125" rx="1.5927734" ry="3.0341804"/>
			<path style="fill:#D9DADA;" d="M54.1162109,43.8740234c0,0,0.1884766,2.8818359-1.3261719,3.1132813
				c0,0-0.8632813-0.1914063-1.0185547-0.7753906C51.7714844,46.2119141,53.2207031,46.171875,54.1162109,43.8740234z"/>
		</g>
	</g>
	<g>
		<g>
			<ellipse style="fill:#FFFFFF;" cx="12.1088867" cy="48.9072266" rx="1.5424805" ry="2.9375002"/>
			<path style="fill:#D9DADA;" d="M13.6445313,48.8300781c0,0,0.1835938,2.7900391-1.2836914,3.0146484
				c0,0-0.8359375-0.1855469-0.9873047-0.75C11.3735352,51.0947266,12.777832,51.0546875,13.6445313,48.8300781z"/>
		</g>
		<g>
			<ellipse style="fill:#FFFFFF;" cx="8.7421875" cy="49.8925781" rx="1.5424805" ry="2.9404299"/>
			<path style="fill:#D9DADA;" d="M10.277832,49.8183594c0,0,0.1835938,2.7871094-1.2832031,3.0146484
				c0,0-0.8364258-0.1855469-0.9868164-0.7509766C8.0078125,52.0820313,9.4111328,52.0400391,10.277832,49.8183594z"/>
		</g>
		<g>
			<ellipse style="fill:#FFFFFF;" cx="6.465332" cy="45.8535156" rx="1.5424805" ry="2.9394534"/>
			<path style="fill:#D9DADA;" d="M8.0009766,45.7773438c0,0,0.1835938,2.7900391-1.2832031,3.015625
				c0,0-0.8364258-0.1865234-0.9873047-0.7519531C5.7304688,48.0410156,7.1342773,48.0019531,8.0009766,45.7773438z"/>
		</g>
		<g>
			<ellipse style="fill:#FFFFFF;" cx="11.0192871" cy="45.9306641" rx="1.5427246" ry="2.9384768"/>
			<path style="fill:#D9DADA;" d="M12.5551758,45.8544922c0,0,0.1831055,2.7900391-1.2836914,3.0146484
				c0,0-0.8364258-0.1855469-0.9868164-0.7509766C10.284668,48.1181641,11.6879883,48.0791016,12.5551758,45.8544922z"/>
		</g>
	</g>
	<g>
		<g>
			<ellipse style="fill:#FFFFFF;" cx="51.3955078" cy="40.6679688" rx="1.5927734" ry="3.0351565"/>
			<path style="fill:#D9DADA;" d="M52.9814453,40.5898438c0,0,0.1894531,2.8808594-1.3251953,3.1132813
				c0,0-0.8642578-0.1914063-1.0195313-0.7753906C50.6367188,42.9277344,52.0869141,42.8867188,52.9814453,40.5898438z"/>
		</g>
		<g>
			<ellipse style="fill:#FFFFFF;" cx="55.3012695" cy="39.0126953" rx="1.5932617" ry="3.0341797"/>
			<path style="fill:#D9DADA;" d="M56.8867188,38.9335938c0,0,0.1904297,2.8808594-1.3251953,3.1132813
				c0,0-0.8632813-0.1914063-1.0185547-0.7753906C54.5429688,41.2714844,55.9912109,41.2304688,56.8867188,38.9335938z"/>
		</g>
		<g>
			<ellipse style="fill:#FFFFFF;" cx="48.2373047" cy="42.6337891" rx="1.5927734" ry="3.0361331"/>
			<path style="fill:#D9DADA;" d="M49.8232422,42.5566406c0,0,0.1894531,2.8798828-1.3261719,3.1132813
				c0,0-0.8632813-0.1914063-1.0185547-0.7753906C47.4785156,44.8945313,48.9277344,44.8525391,49.8232422,42.5566406z"/>
		</g>
		<g>
			<ellipse style="fill:#FFFFFF;" cx="46.1748047" cy="44.1132813" rx="1.5927734" ry="3.0341804"/>
			<path style="fill:#D9DADA;" d="M47.7617188,44.0341797c0,0,0.1884766,2.8818359-1.3261719,3.1132813
				c0,0-0.8632813-0.1914063-1.0185547-0.7753906C45.4169922,46.3720703,46.8662109,46.3320313,47.7617188,44.0341797z"/>
		</g>
		<g>
			<ellipse style="fill:#FFFFFF;" cx="49.4140625" cy="36.8984375" rx="1.5927734" ry="3.0351565"/>
			<path style="fill:#D9DADA;" d="M51,36.8203125c0,0,0.1894531,2.8808594-1.3261719,3.1132813
				c0,0-0.8632813-0.1923828-1.0185547-0.7753906C48.6552734,39.1582031,50.1044922,39.1171875,51,36.8203125z"/>
		</g>
	</g>
	<g>
		<g>
			<ellipse style="fill:#FFFFFF;" cx="47.1572266" cy="37.4208984" rx="1.5927734" ry="3.0351565"/>
			<path style="fill:#D9DADA;" d="M48.7431641,37.3417969c0,0,0.1894531,2.8818359-1.3251953,3.1142578
				c0,0-0.8642578-0.1923828-1.0195313-0.7763672C46.3984375,39.6796875,47.8486328,39.6396484,48.7431641,37.3417969z"/>
		</g>
		<g>
			<ellipse style="fill:#FFFFFF;" cx="50.8120117" cy="34.3867188" rx="1.5932617" ry="3.0341806"/>
			<path style="fill:#D9DADA;" d="M52.3994141,34.3076172c0,0,0.1884766,2.8808594-1.3261719,3.1132813
				c0,0-0.8632813-0.1914063-1.0185547-0.7753906C50.0546875,36.6455078,51.5039063,36.6054688,52.3994141,34.3076172z"/>
		</g>
		<g>
			<ellipse style="fill:#FFFFFF;" cx="44.4384766" cy="37.3808594" rx="1.5927734" ry="3.0361331"/>
			<path style="fill:#D9DADA;" d="M46.0244141,37.3037109c0,0,0.1894531,2.8789063-1.3261719,3.1132813
				c0,0-0.8632813-0.1914063-1.0185547-0.7753906C43.6796875,39.6416016,45.1289063,39.5986328,46.0244141,37.3037109z"/>
		</g>
		<g>
			<ellipse style="fill:#FFFFFF;" cx="42.3779297" cy="37.3828125" rx="1.5927734" ry="3.0341799"/>
			<path style="fill:#D9DADA;" d="M43.9638672,37.3037109c0,0,0.1894531,2.8818359-1.3261719,3.1132813
				c0,0-0.8632813-0.1914063-1.0185547-0.7753906C41.6191406,39.6416016,43.0683594,39.6015625,43.9638672,37.3037109z"/>
		</g>
		<g>
			<ellipse style="fill:#FFFFFF;" cx="46.0322266" cy="34.3486328" rx="1.5927734" ry="3.0341799"/>
			<path style="fill:#D9DADA;" d="M47.6181641,34.2695313c0,0,0.1894531,2.8808594-1.3251953,3.1132813
				c0,0-0.8642578-0.1914063-1.0195313-0.7753906C45.2734375,36.6074219,46.7236328,36.5664063,47.6181641,34.2695313z"/>
		</g>
	</g>
	<g>
		<g>
			<ellipse style="fill:#FFFFFF;" cx="14.104248" cy="40.6572266" rx="1.5422363" ry="2.9375002"/>
			<path style="fill:#D9DADA;" d="M15.640625,40.5810547c0,0,0.1831055,2.7900391-1.2841797,3.0136719
				c0,0-0.8359375-0.1845703-0.9868164-0.75C13.3696289,42.8447266,14.7739258,42.8056641,15.640625,40.5810547z"/>
		</g>
		<g>
			<ellipse style="fill:#FFFFFF;" cx="10.7382813" cy="41.6435547" rx="1.5424805" ry="2.9394534"/>
			<path style="fill:#D9DADA;" d="M12.2739258,41.5683594c0,0,0.1835938,2.7890625-1.2836914,3.0146484
				c0,0-0.8359375-0.1855469-0.9873047-0.7509766C10.0029297,43.8320313,11.4072266,43.7910156,12.2739258,41.5683594z"/>
		</g>
		<g>
			<ellipse style="fill:#FFFFFF;" cx="7.9331055" cy="38.1357422" rx="1.5424805" ry="2.9394534"/>
			<path style="fill:#D9DADA;" d="M9.4692383,38.0605469c0,0,0.1831055,2.7890625-1.2836914,3.0146484
				c0,0-0.8364258-0.1855469-0.9868164-0.7509766C7.1987305,40.3242188,8.6025391,40.2851563,9.4692383,38.0605469z"/>
		</g>
		<g>
			<ellipse style="fill:#FFFFFF;" cx="13.0151367" cy="37.6806641" rx="1.5424805" ry="2.9384768"/>
			<path style="fill:#D9DADA;" d="M14.5507813,37.6054688c0,0,0.1835938,2.7890625-1.2836914,3.0136719
				c0,0-0.8359375-0.1845703-0.9863281-0.75C12.2807617,39.8691406,13.684082,39.8300781,14.5507813,37.6054688z"/>
		</g>
	</g>
	<g>
		<g>
			<ellipse style="fill:#FFFFFF;" cx="43.6914063" cy="28.8666992" rx="1.5078125" ry="2.8725588"/>
			<path style="fill:#D9DADA;" d="M45.1933594,28.7919922c0,0,0.1787109,2.7270508-1.2558594,2.9472656
				c0,0-0.8173828-0.1816406-0.9638672-0.734375C42.9736328,31.0048828,44.3457031,30.9663086,45.1933594,28.7919922z"/>
		</g>
		<g>
			<ellipse style="fill:#FFFFFF;" cx="47.7485352" cy="27.3745117" rx="1.5083008" ry="2.8725588"/>
			<path style="fill:#D9DADA;" d="M49.25,27.2998047c0,0,0.1796875,2.7275391-1.2548828,2.9472656
				c0,0-0.8173828-0.1811523-0.9648438-0.7338867C47.0302734,29.5131836,48.4033203,29.4746094,49.25,27.2998047z"/>
		</g>
		<g>
			<path style="fill:#FFFFFF;" d="M41.0693359,31.3408203c0,1.5883789-0.6748047,2.8759766-1.5068359,2.8759766
				c-0.8339844,0-1.5087891-1.2875977-1.5087891-2.8759766c0-1.5854492,0.6748047-2.8725586,1.5087891-2.8725586
				C40.3945313,28.4682617,41.0693359,29.7553711,41.0693359,31.3408203z"/>
			<path style="fill:#D9DADA;" d="M41.0634766,31.2685547c0,0,0.1787109,2.7255859-1.2558594,2.9482422
				c0,0-0.8173828-0.1816406-0.9638672-0.734375C38.84375,33.4824219,40.2158203,33.4414063,41.0634766,31.2685547z"/>
		</g>
		<g>
			<ellipse style="fill:#FFFFFF;" cx="34.5947266" cy="31.0463867" rx="1.5078125" ry="2.8735354"/>
			<path style="fill:#D9DADA;" d="M36.0966797,30.9716797c0,0,0.1787109,2.7275391-1.2548828,2.9482422
				c0,0-0.8173828-0.1816406-0.9648438-0.734375C33.8769531,33.1855469,35.2490234,33.1464844,36.0966797,30.9716797z"/>
		</g>
		<g>
			<ellipse style="fill:#FFFFFF;" cx="42.1835938" cy="22.7607422" rx="1.5078125" ry="2.8725588"/>
			<path style="fill:#D9DADA;" d="M43.6845703,22.6860352c0,0,0.1796875,2.7275391-1.2548828,2.9472656
				c0,0-0.8173828-0.1811523-0.9638672-0.734375C41.4658203,24.8989258,42.8378906,24.8608398,43.6845703,22.6860352z"/>
		</g>
	</g>
	<g>
		<g>
			<ellipse style="fill:#FFFFFF;" cx="17.4187012" cy="32.2348633" rx="1.6853027" ry="3.2104492"/>
			<path style="fill:#D9DADA;" d="M19.097168,32.1518555c0,0,0.2006836,3.0473633-1.402832,3.293457
				c0,0-0.9135742-0.203125-1.078125-0.8203125C16.6162109,34.625,18.1499023,34.5820313,19.097168,32.1518555z"/>
		</g>
		<g>
			<ellipse style="fill:#FFFFFF;" cx="13.7402344" cy="33.3125" rx="1.6855469" ry="3.2128909"/>
			<path style="fill:#D9DADA;" d="M15.4189453,33.2304688c0,0,0.199707,3.046875-1.4033203,3.2949219
				c0,0-0.9135742-0.203125-1.0786133-0.8203125C12.9370117,35.7050781,14.4711914,35.6601563,15.4189453,33.2304688z"/>
		</g>
		<g>
			<ellipse style="fill:#FFFFFF;" cx="10.6750488" cy="29.4804688" rx="1.6853027" ry="3.2119143"/>
			<path style="fill:#D9DADA;" d="M12.3540039,29.3974609c0,0,0.2001953,3.0488281-1.4033203,3.2949219
				c0,0-0.9135742-0.203125-1.0786133-0.8212891C9.8720703,31.8710938,11.4067383,31.8276367,12.3540039,29.3974609z"/>
		</g>
		<g>
			<ellipse style="fill:#FFFFFF;" cx="14.5422363" cy="27.3364258" rx="1.685791" ry="3.2109377"/>
			<path style="fill:#D9DADA;" d="M16.2211914,27.2529297c0,0,0.199707,3.0488281-1.4033203,3.2944336
				c0,0-0.9140625-0.2036133-1.0786133-0.8208008C13.7392578,29.7265625,15.2734375,29.6835938,16.2211914,27.2529297z"/>
		</g>
	</g>
	<g>
		<ellipse style="fill:#FFFFFF;" cx="53.8510742" cy="51.5966797" rx="1.5932617" ry="3.0361328"/>
		<path style="fill:#D9DADA;" d="M55.4365234,51.5195313c0,0,0.1904297,2.8798828-1.3242188,3.1132813
			c0,0-0.8632813-0.1914063-1.0185547-0.7753906C53.09375,53.8574219,54.5419922,53.8154297,55.4365234,51.5195313z"/>
	</g>
	<g>
		<g>
			<ellipse style="fill:#FFFFFF;" cx="51.7900391" cy="51.5986328" rx="1.5927734" ry="3.0341799"/>
			<path style="fill:#D9DADA;" d="M53.3759766,51.5195313c0,0,0.1894531,2.8808594-1.3251953,3.1132813
				c0,0-0.8632813-0.1914063-1.0195313-0.7753906C51.03125,53.8574219,52.4814453,53.8164063,53.3759766,51.5195313z"/>
		</g>
		<g>
			<ellipse style="fill:#FFFFFF;" cx="55.4453125" cy="48.5634766" rx="1.59375" ry="3.0351565"/>
			<path style="fill:#D9DADA;" d="M57.03125,48.484375c0,0,0.1904297,2.8818359-1.3251953,3.1142578
				c0,0-0.8632813-0.1923828-1.0185547-0.7763672C54.6875,50.8222656,56.1357422,50.7822266,57.03125,48.484375z"/>
		</g>
		<g>
			<ellipse style="fill:#FFFFFF;" cx="49.0712891" cy="51.5576172" rx="1.5927734" ry="3.0361331"/>
			<path style="fill:#D9DADA;" d="M50.6572266,51.4794922c0,0,0.1894531,2.8808594-1.3251953,3.1142578
				c0,0-0.8642578-0.1923828-1.0195313-0.7763672C48.3125,53.8173828,49.7626953,53.7763672,50.6572266,51.4794922z"/>
		</g>
		<g>
			<ellipse style="fill:#FFFFFF;" cx="47.0107422" cy="51.5585938" rx="1.5927734" ry="3.0351565"/>
			<path style="fill:#D9DADA;" d="M48.5966797,51.4794922c0,0,0.1894531,2.8818359-1.3251953,3.1142578
				c0,0-0.8642578-0.1923828-1.0195313-0.7763672C46.2519531,53.8173828,47.7011719,53.7773438,48.5966797,51.4794922z"/>
		</g>
		<g>
			<ellipse style="fill:#FFFFFF;" cx="50.6650391" cy="48.5244141" rx="1.5927734" ry="3.0341799"/>
			<path style="fill:#D9DADA;" d="M52.2509766,48.4453125c0,0,0.1894531,2.8808594-1.3251953,3.1132813
				c0,0-0.8632813-0.1914063-1.0195313-0.7753906C49.90625,50.7832031,51.3564453,50.7421875,52.2509766,48.4453125z"/>
		</g>
	</g>
	<g>
		<g>
			<ellipse style="fill:#FFFFFF;" cx="11.6135254" cy="53.2939453" rx="1.5422363" ry="2.9404299"/>
			<path style="fill:#D9DADA;" d="M13.1494141,53.2197266c0,0,0.1835938,2.7871094-1.2836914,3.0146484
				c0,0-0.8359375-0.1855469-0.9868164-0.75C10.8789063,55.484375,12.2832031,55.4414063,13.1494141,53.2197266z"/>
		</g>
		<g>
			<ellipse style="fill:#FFFFFF;" cx="8.4621582" cy="50.9267578" rx="1.5422363" ry="2.9384768"/>
			<path style="fill:#D9DADA;" d="M9.9975586,50.8515625c0,0,0.184082,2.7890625-1.2827148,3.0136719
				c0,0-0.8364258-0.1855469-0.9873047-0.75C7.7275391,53.1152344,9.1313477,53.0751953,9.9975586,50.8515625z"/>
		</g>
		<g>
			<ellipse style="fill:#FFFFFF;" cx="13.1572266" cy="50.3574219" rx="1.5424805" ry="2.9384768"/>
			<path style="fill:#D9DADA;" d="M14.6933594,50.2802734c0,0,0.1831055,2.7900391-1.2841797,3.015625
				c0,0-0.8359375-0.1855469-0.9868164-0.7509766C12.4223633,52.5449219,13.8261719,52.5058594,14.6933594,50.2802734z"/>
		</g>
	</g>
	<g>
		<g>
			<ellipse style="fill:#FFFFFF;" cx="53.6542969" cy="47.0263672" rx="1.5927734" ry="3.0341804"/>
			<path style="fill:#D9DADA;" d="M55.2412109,46.9472656c0,0,0.1884766,2.8808594-1.3261719,3.1132813
				c0,0-0.8632813-0.1914063-1.0185547-0.7753906C52.8964844,49.2851563,54.3457031,49.2441406,55.2412109,46.9472656z"/>
		</g>
		<g>
			<ellipse style="fill:#FFFFFF;" cx="57.3100586" cy="43.9912109" rx="1.5932617" ry="3.0351565"/>
			<path style="fill:#D9DADA;" d="M58.8964844,43.9121094c0,0,0.1894531,2.8818359-1.3251953,3.1142578
				c0,0-0.8642578-0.1923828-1.0195313-0.7753906C56.5517578,46.2509766,58.0009766,46.2099609,58.8964844,43.9121094z"/>
		</g>
		<g>
			<ellipse style="fill:#FFFFFF;" cx="50.9355469" cy="46.9853516" rx="1.5927734" ry="3.0371096"/>
			<path style="fill:#D9DADA;" d="M52.5214844,46.9091797c0,0,0.1894531,2.8789063-1.3251953,3.1132813
				c0,0-0.8632813-0.1914063-1.0195313-0.7753906C50.1767578,49.2470703,51.6269531,49.2041016,52.5214844,46.9091797z"/>
		</g>
		<g>
			<ellipse style="fill:#FFFFFF;" cx="48.875" cy="46.9873047" rx="1.5927734" ry="3.0351565"/>
			<path style="fill:#D9DADA;" d="M50.4609375,46.9091797c0,0,0.1894531,2.8808594-1.3251953,3.1132813
				c0,0-0.8632813-0.1914063-1.0195313-0.7753906C48.1162109,49.2470703,49.5664063,49.2060547,50.4609375,46.9091797z"/>
		</g>
		<g>
			<ellipse style="fill:#FFFFFF;" cx="52.5292969" cy="43.953125" rx="1.5927734" ry="3.0341804"/>
			<path style="fill:#D9DADA;" d="M54.1162109,43.8740234c0,0,0.1884766,2.8818359-1.3261719,3.1132813
				c0,0-0.8632813-0.1914063-1.0185547-0.7753906C51.7714844,46.2119141,53.2207031,46.171875,54.1162109,43.8740234z"/>
		</g>
	</g>
	<g>
		<g>
			<ellipse style="fill:#FFFFFF;" cx="12.1088867" cy="48.9072266" rx="1.5424805" ry="2.9375002"/>
			<path style="fill:#D9DADA;" d="M13.6445313,48.8300781c0,0,0.1835938,2.7900391-1.2836914,3.0146484
				c0,0-0.8359375-0.1855469-0.9873047-0.75C11.3735352,51.0947266,12.777832,51.0546875,13.6445313,48.8300781z"/>
		</g>
		<g>
			<ellipse style="fill:#FFFFFF;" cx="8.7421875" cy="49.8925781" rx="1.5424805" ry="2.9404299"/>
			<path style="fill:#D9DADA;" d="M10.277832,49.8183594c0,0,0.1835938,2.7871094-1.2832031,3.0146484
				c0,0-0.8364258-0.1855469-0.9868164-0.7509766C8.0078125,52.0820313,9.4111328,52.0400391,10.277832,49.8183594z"/>
		</g>
		<g>
			<ellipse style="fill:#FFFFFF;" cx="6.465332" cy="45.8535156" rx="1.5424805" ry="2.9394534"/>
			<path style="fill:#D9DADA;" d="M8.0009766,45.7773438c0,0,0.1835938,2.7900391-1.2832031,3.015625
				c0,0-0.8364258-0.1865234-0.9873047-0.7519531C5.7304688,48.0410156,7.1342773,48.0019531,8.0009766,45.7773438z"/>
		</g>
		<g>
			<ellipse style="fill:#FFFFFF;" cx="11.0192871" cy="45.9306641" rx="1.5427246" ry="2.9384768"/>
			<path style="fill:#D9DADA;" d="M12.5551758,45.8544922c0,0,0.1831055,2.7900391-1.2836914,3.0146484
				c0,0-0.8364258-0.1855469-0.9868164-0.7509766C10.284668,48.1181641,11.6879883,48.0791016,12.5551758,45.8544922z"/>
		</g>
	</g>
	<g>
		<g>
			<ellipse style="fill:#FFFFFF;" cx="48.4785156" cy="38.8671875" rx="1.5927734" ry="3.0351565"/>
			<path style="fill:#D9DADA;" d="M50.0644531,38.7890625c0,0,0.1894531,2.8808594-1.3251953,3.1132813
				c0,0-0.8642578-0.1914063-1.0195313-0.7753906C47.7197266,41.1269531,49.1699219,41.0859375,50.0644531,38.7890625z"/>
		</g>
		<g>
			<ellipse style="fill:#FFFFFF;" cx="52.3842773" cy="37.2119141" rx="1.5932617" ry="3.0341797"/>
			<path style="fill:#D9DADA;" d="M53.9697266,37.1328125c0,0,0.1904297,2.8808594-1.3251953,3.1132813
				c0,0-0.8632813-0.1914063-1.0185547-0.7753906C51.6259766,39.4707031,53.0742188,39.4296875,53.9697266,37.1328125z"/>
		</g>
		<g>
			<ellipse style="fill:#FFFFFF;" cx="45.3203125" cy="40.8330078" rx="1.5927734" ry="3.0361331"/>
			<path style="fill:#D9DADA;" d="M46.90625,40.7558594c0,0,0.1894531,2.8798828-1.3261719,3.1132813
				c0,0-0.8632813-0.1914063-1.0185547-0.7753906C44.5615234,43.09375,46.0107422,43.0517578,46.90625,40.7558594z"/>
		</g>
		<g>
			<ellipse style="fill:#FFFFFF;" cx="43.2578125" cy="42.3125" rx="1.5927734" ry="3.0341804"/>
			<path style="fill:#D9DADA;" d="M44.8447266,42.2333984c0,0,0.1884766,2.8818359-1.3261719,3.1132813
				c0,0-0.8632813-0.1914063-1.0185547-0.7753906C42.5,44.5712891,43.9492188,44.53125,44.8447266,42.2333984z"/>
		</g>
		<g>
			<ellipse style="fill:#FFFFFF;" cx="46.4970703" cy="35.0976563" rx="1.5927734" ry="3.0351565"/>
			<path style="fill:#D9DADA;" d="M48.0830078,35.0195313c0,0,0.1894531,2.8808594-1.3261719,3.1132813
				c0,0-0.8632813-0.1923828-1.0185547-0.7753906C45.7382813,37.3574219,47.1875,37.3164063,48.0830078,35.0195313z"/>
		</g>
	</g>
	<g>
		<g>
			<ellipse style="fill:#FFFFFF;" cx="14.104248" cy="40.6572266" rx="1.5422363" ry="2.9375002"/>
			<path style="fill:#D9DADA;" d="M15.640625,40.5810547c0,0,0.1831055,2.7900391-1.2841797,3.0136719
				c0,0-0.8359375-0.1845703-0.9868164-0.75C13.3696289,42.8447266,14.7739258,42.8056641,15.640625,40.5810547z"/>
		</g>
		<g>
			<ellipse style="fill:#FFFFFF;" cx="10.7382813" cy="41.6435547" rx="1.5424805" ry="2.9394534"/>
			<path style="fill:#D9DADA;" d="M12.2739258,41.5683594c0,0,0.1835938,2.7890625-1.2836914,3.0146484
				c0,0-0.8359375-0.1855469-0.9873047-0.7509766C10.0029297,43.8320313,11.4072266,43.7910156,12.2739258,41.5683594z"/>
		</g>
		<g>
			<ellipse style="fill:#FFFFFF;" cx="7.9331055" cy="38.1357422" rx="1.5424805" ry="2.9394534"/>
			<path style="fill:#D9DADA;" d="M9.4692383,38.0605469c0,0,0.1831055,2.7890625-1.2836914,3.0146484
				c0,0-0.8364258-0.1855469-0.9868164-0.7509766C7.1987305,40.3242188,8.6025391,40.2851563,9.4692383,38.0605469z"/>
		</g>
		<g>
			<ellipse style="fill:#FFFFFF;" cx="13.0151367" cy="37.6806641" rx="1.5424805" ry="2.9384768"/>
			<path style="fill:#D9DADA;" d="M14.5507813,37.6054688c0,0,0.1835938,2.7890625-1.2836914,3.0136719
				c0,0-0.8359375-0.1845703-0.9863281-0.75C12.2807617,39.8691406,13.684082,39.8300781,14.5507813,37.6054688z"/>
		</g>
	</g>
	<g>
		<g>
			<ellipse style="fill:#FFFFFF;" cx="43.6914063" cy="28.8666992" rx="1.5078125" ry="2.8725588"/>
			<path style="fill:#D9DADA;" d="M45.1933594,28.7919922c0,0,0.1787109,2.7270508-1.2558594,2.9472656
				c0,0-0.8173828-0.1816406-0.9638672-0.734375C42.9736328,31.0048828,44.3457031,30.9663086,45.1933594,28.7919922z"/>
		</g>
		<g>
			<ellipse style="fill:#FFFFFF;" cx="47.7485352" cy="27.3745117" rx="1.5083008" ry="2.8725588"/>
			<path style="fill:#D9DADA;" d="M49.25,27.2998047c0,0,0.1796875,2.7275391-1.2548828,2.9472656
				c0,0-0.8173828-0.1811523-0.9648438-0.7338867C47.0302734,29.5131836,48.4033203,29.4746094,49.25,27.2998047z"/>
		</g>
		<g>
			<path style="fill:#FFFFFF;" d="M41.0693359,31.3408203c0,1.5883789-0.6748047,2.8759766-1.5068359,2.8759766
				c-0.8339844,0-1.5087891-1.2875977-1.5087891-2.8759766c0-1.5854492,0.6748047-2.8725586,1.5087891-2.8725586
				C40.3945313,28.4682617,41.0693359,29.7553711,41.0693359,31.3408203z"/>
			<path style="fill:#D9DADA;" d="M41.0634766,31.2685547c0,0,0.1787109,2.7255859-1.2558594,2.9482422
				c0,0-0.8173828-0.1816406-0.9638672-0.734375C38.84375,33.4824219,40.2158203,33.4414063,41.0634766,31.2685547z"/>
		</g>
		<g>
			<ellipse style="fill:#FFFFFF;" cx="34.5947266" cy="31.0463867" rx="1.5078125" ry="2.8735354"/>
			<path style="fill:#D9DADA;" d="M36.0966797,30.9716797c0,0,0.1787109,2.7275391-1.2548828,2.9482422
				c0,0-0.8173828-0.1816406-0.9648438-0.734375C33.8769531,33.1855469,35.2490234,33.1464844,36.0966797,30.9716797z"/>
		</g>
		<g>
			<ellipse style="fill:#FFFFFF;" cx="42.1835938" cy="22.7607422" rx="1.5078125" ry="2.8725588"/>
			<path style="fill:#D9DADA;" d="M43.6845703,22.6860352c0,0,0.1796875,2.7275391-1.2548828,2.9472656
				c0,0-0.8173828-0.1811523-0.9638672-0.734375C41.4658203,24.8989258,42.8378906,24.8608398,43.6845703,22.6860352z"/>
		</g>
	</g>
	<g>
		<g>
			<ellipse style="fill:#FFFFFF;" cx="17.4187012" cy="32.2348633" rx="1.6853027" ry="3.2104492"/>
			<path style="fill:#D9DADA;" d="M19.097168,32.1518555c0,0,0.2006836,3.0473633-1.402832,3.293457
				c0,0-0.9135742-0.203125-1.078125-0.8203125C16.6162109,34.625,18.1499023,34.5820313,19.097168,32.1518555z"/>
		</g>
		<g>
			<ellipse style="fill:#FFFFFF;" cx="13.7402344" cy="33.3125" rx="1.6855469" ry="3.2128909"/>
			<path style="fill:#D9DADA;" d="M15.4189453,33.2304688c0,0,0.199707,3.046875-1.4033203,3.2949219
				c0,0-0.9135742-0.203125-1.0786133-0.8203125C12.9370117,35.7050781,14.4711914,35.6601563,15.4189453,33.2304688z"/>
		</g>
		<g>
			<ellipse style="fill:#FFFFFF;" cx="10.6750488" cy="29.4804688" rx="1.6853027" ry="3.2119143"/>
			<path style="fill:#D9DADA;" d="M12.3540039,29.3974609c0,0,0.2001953,3.0488281-1.4033203,3.2949219
				c0,0-0.9135742-0.203125-1.0786133-0.8212891C9.8720703,31.8710938,11.4067383,31.8276367,12.3540039,29.3974609z"/>
		</g>
		<g>
			<ellipse style="fill:#FFFFFF;" cx="14.5422363" cy="27.3364258" rx="1.685791" ry="3.2109377"/>
			<path style="fill:#D9DADA;" d="M16.2211914,27.2529297c0,0,0.199707,3.0488281-1.4033203,3.2944336
				c0,0-0.9140625-0.2036133-1.0786133-0.8208008C13.7392578,29.7265625,15.2734375,29.6835938,16.2211914,27.2529297z"/>
		</g>
	</g>
	<g>
		<ellipse style="fill:#FFFFFF;" cx="24.7373047" cy="52.2744141" rx="1.5932617" ry="3.0361328"/>
		<path style="fill:#D9DADA;" d="M26.3227539,52.1972656c0,0,0.1904297,2.8798828-1.3242188,3.1132813
			c0,0-0.8632813-0.1914063-1.0185547-0.7753906C23.9799805,54.5351563,25.4282227,54.4931641,26.3227539,52.1972656z"/>
	</g>
	<g>
		<g>
			<ellipse style="fill:#FFFFFF;" cx="22.6762695" cy="52.2763672" rx="1.5927734" ry="3.0341799"/>
			<path style="fill:#D9DADA;" d="M24.262207,52.1972656c0,0,0.1894531,2.8808594-1.3251953,3.1132813
				c0,0-0.8632813-0.1914063-1.0195313-0.7753906C21.9174805,54.5351563,23.3676758,54.4941406,24.262207,52.1972656z"/>
		</g>
		<g>
			<ellipse style="fill:#FFFFFF;" cx="26.331543" cy="49.2412109" rx="1.59375" ry="3.0351565"/>
			<path style="fill:#D9DADA;" d="M27.9174805,49.1621094c0,0,0.1904297,2.8818359-1.3251953,3.1142578
				c0,0-0.8632813-0.1923828-1.0185547-0.7763672C25.5737305,51.5,27.0219727,51.4599609,27.9174805,49.1621094z"/>
		</g>
		<g>
			<ellipse style="fill:#FFFFFF;" cx="19.9575195" cy="52.2353516" rx="1.5927734" ry="3.0361331"/>
			<path style="fill:#D9DADA;" d="M21.543457,52.1572266c0,0,0.1894531,2.8808594-1.3251953,3.1142578
				c0,0-0.8642578-0.1923828-1.0195313-0.7763672C19.1987305,54.4951172,20.6489258,54.4541016,21.543457,52.1572266z"/>
		</g>
		<g>
			<ellipse style="fill:#FFFFFF;" cx="17.8969727" cy="52.2363281" rx="1.5927734" ry="3.0351565"/>
			<path style="fill:#D9DADA;" d="M19.4829102,52.1572266c0,0,0.1894531,2.8818359-1.3251953,3.1142578
				c0,0-0.8642578-0.1923828-1.0195313-0.7763672C17.1381836,54.4951172,18.5874023,54.4550781,19.4829102,52.1572266z"/>
		</g>
		<g>
			<ellipse style="fill:#FFFFFF;" cx="21.5512695" cy="49.2021484" rx="1.5927734" ry="3.0341799"/>
			<path style="fill:#D9DADA;" d="M23.137207,49.1230469c0,0,0.1894531,2.8808594-1.3251953,3.1132813
				c0,0-0.8632813-0.1914063-1.0195313-0.7753906C20.7924805,51.4609375,22.2426758,51.4199219,23.137207,49.1230469z"/>
		</g>
	</g>
	<g>
		<g>
			<ellipse style="fill:#FFFFFF;" cx="24.5405273" cy="47.7041016" rx="1.5927734" ry="3.0341804"/>
			<path style="fill:#D9DADA;" d="M26.1274414,47.625c0,0,0.1884766,2.8808594-1.3261719,3.1132813
				c0,0-0.8632813-0.1914063-1.0185547-0.7753906C23.7827148,49.9628906,25.2319336,49.921875,26.1274414,47.625z"/>
		</g>
		<g>
			<ellipse style="fill:#FFFFFF;" cx="28.1962891" cy="44.6689453" rx="1.5932617" ry="3.0351565"/>
			<path style="fill:#D9DADA;" d="M29.7827148,44.5898438c0,0,0.1894531,2.8818359-1.3251953,3.1142578
				c0,0-0.8642578-0.1923828-1.0195313-0.7753906C27.4379883,46.9287109,28.887207,46.8876953,29.7827148,44.5898438z"/>
		</g>
		<g>
			<ellipse style="fill:#FFFFFF;" cx="21.8217773" cy="47.6630859" rx="1.5927734" ry="3.0371096"/>
			<path style="fill:#D9DADA;" d="M23.4077148,47.5869141c0,0,0.1894531,2.8789063-1.3251953,3.1132813
				c0,0-0.8632813-0.1914063-1.0195313-0.7753906C21.0629883,49.9248047,22.5131836,49.8818359,23.4077148,47.5869141z"/>
		</g>
		<g>
			<ellipse style="fill:#FFFFFF;" cx="19.7612305" cy="47.6650391" rx="1.5927734" ry="3.0351565"/>
			<path style="fill:#D9DADA;" d="M21.347168,47.5869141c0,0,0.1894531,2.8808594-1.3251953,3.1132813
				c0,0-0.8632813-0.1914063-1.0195313-0.7753906C19.0024414,49.9248047,20.4526367,49.8837891,21.347168,47.5869141z"/>
		</g>
		<g>
			<ellipse style="fill:#FFFFFF;" cx="23.4155273" cy="44.6308594" rx="1.5927734" ry="3.0341804"/>
			<path style="fill:#D9DADA;" d="M25.0024414,44.5517578c0,0,0.1884766,2.8818359-1.3261719,3.1132813
				c0,0-0.8632813-0.1914063-1.0185547-0.7753906C22.6577148,46.8896484,24.1069336,46.8496094,25.0024414,44.5517578z"/>
		</g>
	</g>
	<g>
		<g>
			<ellipse style="fill:#FFFFFF;" cx="21.550293" cy="43.171875" rx="1.5927734" ry="3.0351565"/>
			<path style="fill:#D9DADA;" d="M23.1362305,43.09375c0,0,0.1894531,2.8808594-1.3251953,3.1132813
				c0,0-0.8642578-0.1914063-1.0195313-0.7753906C20.7915039,45.4316406,22.2416992,45.390625,23.1362305,43.09375z"/>
		</g>
		<g>
			<ellipse style="fill:#FFFFFF;" cx="25.4560547" cy="41.5166016" rx="1.5932617" ry="3.0341797"/>
			<path style="fill:#D9DADA;" d="M27.0415039,41.4375c0,0,0.1904297,2.8808594-1.3251953,3.1132813
				c0,0-0.8632813-0.1914063-1.0185547-0.7753906C24.6977539,43.7753906,26.1459961,43.734375,27.0415039,41.4375z"/>
		</g>
		<g>
			<ellipse style="fill:#FFFFFF;" cx="18.3920898" cy="45.1376953" rx="1.5927734" ry="3.0361331"/>
			<path style="fill:#D9DADA;" d="M19.9780273,45.0605469c0,0,0.1894531,2.8798828-1.3261719,3.1132813
				c0,0-0.8632813-0.1914063-1.0185547-0.7753906C17.6333008,47.3984375,19.0825195,47.3564453,19.9780273,45.0605469z"/>
		</g>
		<g>
			<ellipse style="fill:#FFFFFF;" cx="16.3295898" cy="46.6171875" rx="1.5927734" ry="3.0341804"/>
			<path style="fill:#D9DADA;" d="M17.9165039,46.5380859c0,0,0.1884766,2.8818359-1.3261719,3.1132813
				c0,0-0.8632813-0.1914063-1.0185547-0.7753906C15.5717773,48.8759766,17.0209961,48.8359375,17.9165039,46.5380859z"/>
		</g>
		<g>
			<ellipse style="fill:#FFFFFF;" cx="19.5688477" cy="39.4023438" rx="1.5927734" ry="3.0351565"/>
			<path style="fill:#D9DADA;" d="M21.1547852,39.3242188c0,0,0.1894531,2.8808594-1.3261719,3.1132813
				c0,0-0.8632813-0.1923828-1.0185547-0.7753906C18.8100586,41.6621094,20.2592773,41.6210938,21.1547852,39.3242188z"/>
		</g>
	</g>
	<g>
		<ellipse style="fill:#FFFFFF;" cx="24.7373047" cy="52.2744141" rx="1.5932617" ry="3.0361328"/>
		<path style="fill:#D9DADA;" d="M26.3227539,52.1972656c0,0,0.1904297,2.8798828-1.3242188,3.1132813
			c0,0-0.8632813-0.1914063-1.0185547-0.7753906C23.9799805,54.5351563,25.4282227,54.4931641,26.3227539,52.1972656z"/>
	</g>
	<g>
		<g>
			<ellipse style="fill:#FFFFFF;" cx="22.6762695" cy="52.2763672" rx="1.5927734" ry="3.0341799"/>
			<path style="fill:#D9DADA;" d="M24.262207,52.1972656c0,0,0.1894531,2.8808594-1.3251953,3.1132813
				c0,0-0.8632813-0.1914063-1.0195313-0.7753906C21.9174805,54.5351563,23.3676758,54.4941406,24.262207,52.1972656z"/>
		</g>
		<g>
			<ellipse style="fill:#FFFFFF;" cx="26.331543" cy="49.2412109" rx="1.59375" ry="3.0351565"/>
			<path style="fill:#D9DADA;" d="M27.9174805,49.1621094c0,0,0.1904297,2.8818359-1.3251953,3.1142578
				c0,0-0.8632813-0.1923828-1.0185547-0.7763672C25.5737305,51.5,27.0219727,51.4599609,27.9174805,49.1621094z"/>
		</g>
		<g>
			<ellipse style="fill:#FFFFFF;" cx="19.9575195" cy="52.2353516" rx="1.5927734" ry="3.0361331"/>
			<path style="fill:#D9DADA;" d="M21.543457,52.1572266c0,0,0.1894531,2.8808594-1.3251953,3.1142578
				c0,0-0.8642578-0.1923828-1.0195313-0.7763672C19.1987305,54.4951172,20.6489258,54.4541016,21.543457,52.1572266z"/>
		</g>
		<g>
			<ellipse style="fill:#FFFFFF;" cx="17.8969727" cy="52.2363281" rx="1.5927734" ry="3.0351565"/>
			<path style="fill:#D9DADA;" d="M19.4829102,52.1572266c0,0,0.1894531,2.8818359-1.3251953,3.1142578
				c0,0-0.8642578-0.1923828-1.0195313-0.7763672C17.1381836,54.4951172,18.5874023,54.4550781,19.4829102,52.1572266z"/>
		</g>
		<g>
			<ellipse style="fill:#FFFFFF;" cx="21.5512695" cy="49.2021484" rx="1.5927734" ry="3.0341799"/>
			<path style="fill:#D9DADA;" d="M23.137207,49.1230469c0,0,0.1894531,2.8808594-1.3251953,3.1132813
				c0,0-0.8632813-0.1914063-1.0195313-0.7753906C20.7924805,51.4609375,22.2426758,51.4199219,23.137207,49.1230469z"/>
		</g>
	</g>
	<g>
		<g>
			<ellipse style="fill:#FFFFFF;" cx="24.5405273" cy="47.7041016" rx="1.5927734" ry="3.0341804"/>
			<path style="fill:#D9DADA;" d="M26.1274414,47.625c0,0,0.1884766,2.8808594-1.3261719,3.1132813
				c0,0-0.8632813-0.1914063-1.0185547-0.7753906C23.7827148,49.9628906,25.2319336,49.921875,26.1274414,47.625z"/>
		</g>
		<g>
			<ellipse style="fill:#FFFFFF;" cx="28.1962891" cy="44.6689453" rx="1.5932617" ry="3.0351565"/>
			<path style="fill:#D9DADA;" d="M29.7827148,44.5898438c0,0,0.1894531,2.8818359-1.3251953,3.1142578
				c0,0-0.8642578-0.1923828-1.0195313-0.7753906C27.4379883,46.9287109,28.887207,46.8876953,29.7827148,44.5898438z"/>
		</g>
		<g>
			<ellipse style="fill:#FFFFFF;" cx="21.8217773" cy="47.6630859" rx="1.5927734" ry="3.0371096"/>
			<path style="fill:#D9DADA;" d="M23.4077148,47.5869141c0,0,0.1894531,2.8789063-1.3251953,3.1132813
				c0,0-0.8632813-0.1914063-1.0195313-0.7753906C21.0629883,49.9248047,22.5131836,49.8818359,23.4077148,47.5869141z"/>
		</g>
		<g>
			<ellipse style="fill:#FFFFFF;" cx="19.7612305" cy="47.6650391" rx="1.5927734" ry="3.0351565"/>
			<path style="fill:#D9DADA;" d="M21.347168,47.5869141c0,0,0.1894531,2.8808594-1.3251953,3.1132813
				c0,0-0.8632813-0.1914063-1.0195313-0.7753906C19.0024414,49.9248047,20.4526367,49.8837891,21.347168,47.5869141z"/>
		</g>
		<g>
			<ellipse style="fill:#FFFFFF;" cx="23.4155273" cy="44.6308594" rx="1.5927734" ry="3.0341804"/>
			<path style="fill:#D9DADA;" d="M25.0024414,44.5517578c0,0,0.1884766,2.8818359-1.3261719,3.1132813
				c0,0-0.8632813-0.1914063-1.0185547-0.7753906C22.6577148,46.8896484,24.1069336,46.8496094,25.0024414,44.5517578z"/>
		</g>
	</g>
	<g>
		<ellipse style="fill:#FFFFFF;" cx="39.1601563" cy="52.1826172" rx="1.59375" ry="3.0361328"/>
		<path style="fill:#D9DADA;" d="M40.7460938,52.1054688c0,0,0.1894531,2.8798828-1.3242188,3.1132813
			c0,0-0.8632813-0.1914063-1.0195313-0.7753906C38.4023438,54.4433594,39.8515625,54.4013672,40.7460938,52.1054688z"/>
	</g>
	<g>
		<g>
			<ellipse style="fill:#FFFFFF;" cx="37.0986328" cy="52.1845703" rx="1.5927734" ry="3.0341799"/>
			<path style="fill:#D9DADA;" d="M38.6855469,52.1054688c0,0,0.1894531,2.8808594-1.3261719,3.1132813
				c0,0-0.8632813-0.1914063-1.0195313-0.7753906C36.3398438,54.4433594,37.7910156,54.4023438,38.6855469,52.1054688z"/>
		</g>
		<g>
			<ellipse style="fill:#FFFFFF;" cx="40.7539063" cy="49.1494141" rx="1.59375" ry="3.035157"/>
			<path style="fill:#D9DADA;" d="M42.3398438,49.0703125c0,0,0.1914063,2.8818359-1.3242188,3.1142578
				c0,0-0.8632813-0.1923828-1.0195313-0.7763672C39.9960938,51.4082031,41.4453125,51.3681641,42.3398438,49.0703125z"/>
		</g>
		<g>
			<ellipse style="fill:#FFFFFF;" cx="34.380127" cy="52.1435547" rx="1.5925293" ry="3.0361331"/>
			<path style="fill:#D9DADA;" d="M35.9667969,52.0654297c0,0,0.1894531,2.8808594-1.3261719,3.1142578
				c0,0-0.8632813-0.1923828-1.0195313-0.7763672C33.6210938,54.4033203,35.0722656,54.3623047,35.9667969,52.0654297z"/>
		</g>
		<g>
			<ellipse style="fill:#FFFFFF;" cx="32.3195801" cy="52.1445313" rx="1.5925293" ry="3.0351565"/>
			<path style="fill:#D9DADA;" d="M33.90625,52.0654297c0,0,0.1894531,2.8818359-1.3256836,3.1142578
				c0,0-0.8642578-0.1923828-1.0195313-0.7763672C31.5610352,54.4033203,33.0097656,54.3632813,33.90625,52.0654297z"/>
		</g>
		<g>
			<ellipse style="fill:#FFFFFF;" cx="35.9736328" cy="49.1103516" rx="1.5927734" ry="3.0341799"/>
			<path style="fill:#D9DADA;" d="M37.5605469,49.03125c0,0,0.1894531,2.8808594-1.3261719,3.1132813
				c0,0-0.8632813-0.1914063-1.0195313-0.7753906C35.2148438,51.3691406,36.6660156,51.328125,37.5605469,49.03125z"/>
		</g>
	</g>
	<g>
		<g>
			<ellipse style="fill:#FFFFFF;" cx="38.9638672" cy="47.6123047" rx="1.5927734" ry="3.0341799"/>
			<path style="fill:#D9DADA;" d="M40.5507813,47.5332031c0,0,0.1875,2.8808594-1.3261719,3.1132813
				c0,0-0.8632813-0.1914063-1.0195313-0.7753906C38.2050781,49.8710938,39.6542969,49.8300781,40.5507813,47.5332031z"/>
		</g>
		<g>
			<ellipse style="fill:#FFFFFF;" cx="42.6191406" cy="44.5771484" rx="1.59375" ry="3.035157"/>
			<path style="fill:#D9DADA;" d="M44.2050781,44.4980469c0,0,0.1894531,2.8818359-1.3242188,3.1142578
				c0,0-0.8652344-0.1923828-1.0195313-0.7753906C41.8613281,46.8369141,43.3105469,46.7958984,44.2050781,44.4980469z"/>
		</g>
		<g>
			<ellipse style="fill:#FFFFFF;" cx="36.2451172" cy="47.5712891" rx="1.5927734" ry="3.0371096"/>
			<path style="fill:#D9DADA;" d="M37.8300781,47.4951172c0,0,0.1894531,2.8789063-1.3242188,3.1132813
				c0,0-0.8632813-0.1914063-1.0195313-0.7753906C35.4863281,49.8330078,36.9355469,49.7900391,37.8300781,47.4951172z"/>
		</g>
		<g>
			<ellipse style="fill:#FFFFFF;" cx="34.1843262" cy="47.5732422" rx="1.5930176" ry="3.0351565"/>
			<path style="fill:#D9DADA;" d="M35.7695313,47.4951172c0,0,0.1894531,2.8808594-1.3242188,3.1132813
				c0,0-0.8632813-0.1914063-1.0195313-0.7753906C33.4257813,49.8330078,34.875,49.7919922,35.7695313,47.4951172z"/>
		</g>
		<g>
			<ellipse style="fill:#FFFFFF;" cx="37.8388672" cy="44.5390625" rx="1.5927734" ry="3.0341799"/>
			<path style="fill:#D9DADA;" d="M39.4257813,44.4599609c0,0,0.1875,2.8818359-1.3261719,3.1132813
				c0,0-0.8632813-0.1914063-1.0195313-0.7753906C37.0800781,46.7978516,38.5292969,46.7578125,39.4257813,44.4599609z"/>
		</g>
	</g>
	<g>
		<ellipse style="fill:#FFFFFF;" cx="39.1601563" cy="52.1826172" rx="1.59375" ry="3.0361328"/>
		<path style="fill:#D9DADA;" d="M40.7460938,52.1054688c0,0,0.1894531,2.8798828-1.3242188,3.1132813
			c0,0-0.8632813-0.1914063-1.0195313-0.7753906C38.4023438,54.4433594,39.8515625,54.4013672,40.7460938,52.1054688z"/>
	</g>
	<g>
		<g>
			<ellipse style="fill:#FFFFFF;" cx="37.0986328" cy="52.1845703" rx="1.5927734" ry="3.0341799"/>
			<path style="fill:#D9DADA;" d="M38.6855469,52.1054688c0,0,0.1894531,2.8808594-1.3261719,3.1132813
				c0,0-0.8632813-0.1914063-1.0195313-0.7753906C36.3398438,54.4433594,37.7910156,54.4023438,38.6855469,52.1054688z"/>
		</g>
		<g>
			<ellipse style="fill:#FFFFFF;" cx="40.7539063" cy="49.1494141" rx="1.59375" ry="3.035157"/>
			<path style="fill:#D9DADA;" d="M42.3398438,49.0703125c0,0,0.1914063,2.8818359-1.3242188,3.1142578
				c0,0-0.8632813-0.1923828-1.0195313-0.7763672C39.9960938,51.4082031,41.4453125,51.3681641,42.3398438,49.0703125z"/>
		</g>
		<g>
			<ellipse style="fill:#FFFFFF;" cx="34.380127" cy="52.1435547" rx="1.5925293" ry="3.0361331"/>
			<path style="fill:#D9DADA;" d="M35.9667969,52.0654297c0,0,0.1894531,2.8808594-1.3261719,3.1142578
				c0,0-0.8632813-0.1923828-1.0195313-0.7763672C33.6210938,54.4033203,35.0722656,54.3623047,35.9667969,52.0654297z"/>
		</g>
		<g>
			<ellipse style="fill:#FFFFFF;" cx="32.3195801" cy="52.1445313" rx="1.5925293" ry="3.0351565"/>
			<path style="fill:#D9DADA;" d="M33.90625,52.0654297c0,0,0.1894531,2.8818359-1.3256836,3.1142578
				c0,0-0.8642578-0.1923828-1.0195313-0.7763672C31.5610352,54.4033203,33.0097656,54.3632813,33.90625,52.0654297z"/>
		</g>
		<g>
			<ellipse style="fill:#FFFFFF;" cx="35.9736328" cy="49.1103516" rx="1.5927734" ry="3.0341799"/>
			<path style="fill:#D9DADA;" d="M37.5605469,49.03125c0,0,0.1894531,2.8808594-1.3261719,3.1132813
				c0,0-0.8632813-0.1914063-1.0195313-0.7753906C35.2148438,51.3691406,36.6660156,51.328125,37.5605469,49.03125z"/>
		</g>
	</g>
	<g>
		<g>
			<ellipse style="fill:#FFFFFF;" cx="38.9638672" cy="47.6123047" rx="1.5927734" ry="3.0341799"/>
			<path style="fill:#D9DADA;" d="M40.5507813,47.5332031c0,0,0.1875,2.8808594-1.3261719,3.1132813
				c0,0-0.8632813-0.1914063-1.0195313-0.7753906C38.2050781,49.8710938,39.6542969,49.8300781,40.5507813,47.5332031z"/>
		</g>
		<g>
			<ellipse style="fill:#FFFFFF;" cx="42.6191406" cy="44.5771484" rx="1.59375" ry="3.035157"/>
			<path style="fill:#D9DADA;" d="M44.2050781,44.4980469c0,0,0.1894531,2.8818359-1.3242188,3.1142578
				c0,0-0.8652344-0.1923828-1.0195313-0.7753906C41.8613281,46.8369141,43.3105469,46.7958984,44.2050781,44.4980469z"/>
		</g>
		<g>
			<ellipse style="fill:#FFFFFF;" cx="36.2451172" cy="47.5712891" rx="1.5927734" ry="3.0371096"/>
			<path style="fill:#D9DADA;" d="M37.8300781,47.4951172c0,0,0.1894531,2.8789063-1.3242188,3.1132813
				c0,0-0.8632813-0.1914063-1.0195313-0.7753906C35.4863281,49.8330078,36.9355469,49.7900391,37.8300781,47.4951172z"/>
		</g>
		<g>
			<ellipse style="fill:#FFFFFF;" cx="34.1843262" cy="47.5732422" rx="1.5930176" ry="3.0351565"/>
			<path style="fill:#D9DADA;" d="M35.7695313,47.4951172c0,0,0.1894531,2.8808594-1.3242188,3.1132813
				c0,0-0.8632813-0.1914063-1.0195313-0.7753906C33.4257813,49.8330078,34.875,49.7919922,35.7695313,47.4951172z"/>
		</g>
		<g>
			<ellipse style="fill:#FFFFFF;" cx="37.8388672" cy="44.5390625" rx="1.5927734" ry="3.0341799"/>
			<path style="fill:#D9DADA;" d="M39.4257813,44.4599609c0,0,0.1875,2.8818359-1.3261719,3.1132813
				c0,0-0.8632813-0.1914063-1.0195313-0.7753906C37.0800781,46.7978516,38.5292969,46.7578125,39.4257813,44.4599609z"/>
		</g>
	</g>
	<g>
		<ellipse style="fill:#FFFFFF;" cx="32.2104492" cy="51.4619141" rx="1.5932617" ry="3.0361328"/>
		<path style="fill:#D9DADA;" d="M33.7958984,51.3847656c0,0,0.1904297,2.8798828-1.3242188,3.1132813
			c0,0-0.8632813-0.1914063-1.0185547-0.7753906C31.453125,53.7226563,32.9013672,53.6806641,33.7958984,51.3847656z"/>
	</g>
	<g>
		<g>
			<ellipse style="fill:#FFFFFF;" cx="30.1494141" cy="51.4638672" rx="1.5927734" ry="3.0341799"/>
			<path style="fill:#D9DADA;" d="M31.7353516,51.3847656c0,0,0.1894531,2.8808594-1.3251953,3.1132813
				c0,0-0.8632813-0.1914063-1.0195313-0.7753906C29.390625,53.7226563,30.8408203,53.6816406,31.7353516,51.3847656z"/>
		</g>
		<g>
			<ellipse style="fill:#FFFFFF;" cx="33.8046875" cy="48.4287109" rx="1.59375" ry="3.0351565"/>
			<path style="fill:#D9DADA;" d="M35.390625,48.3496094c0,0,0.1904297,2.8818359-1.3251953,3.1142578
				c0,0-0.8632813-0.1923828-1.0185547-0.7763672C33.046875,50.6875,34.4951172,50.6474609,35.390625,48.3496094z"/>
		</g>
		<g>
			<ellipse style="fill:#FFFFFF;" cx="27.4306641" cy="51.4228516" rx="1.5927734" ry="3.0361331"/>
			<path style="fill:#D9DADA;" d="M29.0166016,51.3447266c0,0,0.1894531,2.8808594-1.3251953,3.1142578
				c0,0-0.8642578-0.1923828-1.0195313-0.7763672C26.671875,53.6826172,28.1220703,53.6416016,29.0166016,51.3447266z"/>
		</g>
		<g>
			<ellipse style="fill:#FFFFFF;" cx="25.3701172" cy="51.4238281" rx="1.5927734" ry="3.0351565"/>
			<path style="fill:#D9DADA;" d="M26.9560547,51.3447266c0,0,0.1894531,2.8818359-1.3251953,3.1142578
				c0,0-0.8642578-0.1923828-1.0195313-0.7763672C24.6113281,53.6826172,26.0605469,53.6425781,26.9560547,51.3447266z"/>
		</g>
		<g>
			<ellipse style="fill:#FFFFFF;" cx="29.0244141" cy="48.3896484" rx="1.5927734" ry="3.0341799"/>
			<path style="fill:#D9DADA;" d="M30.6103516,48.3105469c0,0,0.1894531,2.8808594-1.3251953,3.1132813
				c0,0-0.8632813-0.1914063-1.0195313-0.7753906C28.265625,50.6484375,29.7158203,50.6074219,30.6103516,48.3105469z"/>
		</g>
	</g>
	<g>
		<g>
			<ellipse style="fill:#FFFFFF;" cx="32.0136719" cy="46.8916016" rx="1.5927734" ry="3.0341804"/>
			<path style="fill:#D9DADA;" d="M33.6005859,46.8125c0,0,0.1884766,2.8808594-1.3261719,3.1132813
				c0,0-0.8632813-0.1914063-1.0185547-0.7753906C31.2558594,49.1503906,32.7050781,49.109375,33.6005859,46.8125z"/>
		</g>
		<g>
			<ellipse style="fill:#FFFFFF;" cx="35.6694336" cy="43.8564453" rx="1.5932617" ry="3.0351565"/>
			<path style="fill:#D9DADA;" d="M37.2558594,43.7773438c0,0,0.1894531,2.8818359-1.3251953,3.1142578
				c0,0-0.8642578-0.1923828-1.0195313-0.7753906C34.9111328,46.1162109,36.3603516,46.0751953,37.2558594,43.7773438z"/>
		</g>
		<g>
			<ellipse style="fill:#FFFFFF;" cx="29.2949219" cy="46.8505859" rx="1.5927734" ry="3.0371096"/>
			<path style="fill:#D9DADA;" d="M30.8808594,46.7744141c0,0,0.1894531,2.8789063-1.3251953,3.1132813
				c0,0-0.8632813-0.1914063-1.0195313-0.7753906C28.5361328,49.1123047,29.9863281,49.0693359,30.8808594,46.7744141z"/>
		</g>
		<g>
			<ellipse style="fill:#FFFFFF;" cx="27.234375" cy="46.8525391" rx="1.5927734" ry="3.0351565"/>
			<path style="fill:#D9DADA;" d="M28.8203125,46.7744141c0,0,0.1894531,2.8808594-1.3251953,3.1132813
				c0,0-0.8632813-0.1914063-1.0195313-0.7753906C26.4755859,49.1123047,27.9257813,49.0712891,28.8203125,46.7744141z"/>
		</g>
		<g>
			<ellipse style="fill:#FFFFFF;" cx="30.8886719" cy="43.8183594" rx="1.5927734" ry="3.0341804"/>
			<path style="fill:#D9DADA;" d="M32.4755859,43.7392578c0,0,0.1884766,2.8818359-1.3261719,3.1132813
				c0,0-0.8632813-0.1914063-1.0185547-0.7753906C30.1308594,46.0771484,31.5800781,46.0371094,32.4755859,43.7392578z"/>
		</g>
	</g>
	<g>
		<g>
			<ellipse style="fill:#FFFFFF;" cx="29.0234375" cy="42.359375" rx="1.5927734" ry="3.0351565"/>
			<path style="fill:#D9DADA;" d="M30.609375,42.28125c0,0,0.1894531,2.8808594-1.3251953,3.1132813
				c0,0-0.8642578-0.1914063-1.0195313-0.7753906C28.2646484,44.6191406,29.7148438,44.578125,30.609375,42.28125z"/>
		</g>
		<g>
			<ellipse style="fill:#FFFFFF;" cx="32.9291992" cy="40.7041016" rx="1.5932617" ry="3.0341797"/>
			<path style="fill:#D9DADA;" d="M34.5146484,40.625c0,0,0.1904297,2.8808594-1.3251953,3.1132813
				c0,0-0.8632813-0.1914063-1.0185547-0.7753906C32.1708984,42.9628906,33.6191406,42.921875,34.5146484,40.625z"/>
		</g>
		<g>
			<ellipse style="fill:#FFFFFF;" cx="25.8652344" cy="44.3251953" rx="1.5927734" ry="3.0361331"/>
			<path style="fill:#D9DADA;" d="M27.4511719,44.2480469c0,0,0.1894531,2.8798828-1.3261719,3.1132813
				c0,0-0.8632813-0.1914063-1.0185547-0.7753906C25.1064453,46.5859375,26.5556641,46.5439453,27.4511719,44.2480469z"/>
		</g>
		<g>
			<ellipse style="fill:#FFFFFF;" cx="23.8027344" cy="45.8046875" rx="1.5927734" ry="3.0341804"/>
			<path style="fill:#D9DADA;" d="M25.3896484,45.7255859c0,0,0.1884766,2.8818359-1.3261719,3.1132813
				c0,0-0.8632813-0.1914063-1.0185547-0.7753906C23.0449219,48.0634766,24.4941406,48.0234375,25.3896484,45.7255859z"/>
		</g>
		<g>
			<ellipse style="fill:#FFFFFF;" cx="27.0419922" cy="38.5898438" rx="1.5927734" ry="3.0351565"/>
			<path style="fill:#D9DADA;" d="M28.6279297,38.5117188c0,0,0.1894531,2.8808594-1.3261719,3.1132813
				c0,0-0.8632813-0.1923828-1.0185547-0.7753906C26.2832031,40.8496094,27.7324219,40.8085938,28.6279297,38.5117188z"/>
		</g>
	</g>
	<g>
		<g>
			<ellipse style="fill:#FFFFFF;" cx="30.03125" cy="37.0917969" rx="1.5927734" ry="3.0351565"/>
			<path style="fill:#D9DADA;" d="M31.6171875,37.0126953c0,0,0.1894531,2.8818359-1.3251953,3.1142578
				c0,0-0.8642578-0.1923828-1.0195313-0.7763672C29.2724609,39.3505859,30.7226563,39.3105469,31.6171875,37.0126953z"/>
		</g>
		<g>
			<ellipse style="fill:#FFFFFF;" cx="33.6860352" cy="34.0576172" rx="1.5932617" ry="3.0341806"/>
			<path style="fill:#D9DADA;" d="M35.2734375,33.9785156c0,0,0.1884766,2.8808594-1.3261719,3.1132813
				c0,0-0.8632813-0.1914063-1.0185547-0.7753906C32.9287109,36.3164063,34.3779297,36.2763672,35.2734375,33.9785156z"/>
		</g>
		<g>
			<ellipse style="fill:#FFFFFF;" cx="27.3125" cy="37.0517578" rx="1.5927734" ry="3.0361331"/>
			<path style="fill:#D9DADA;" d="M28.8984375,36.9746094c0,0,0.1894531,2.8789063-1.3261719,3.1132813
				c0,0-0.8632813-0.1914063-1.0185547-0.7753906C26.5537109,39.3125,28.0029297,39.2695313,28.8984375,36.9746094z"/>
		</g>
		<g>
			<ellipse style="fill:#FFFFFF;" cx="25.2519531" cy="37.0537109" rx="1.5927734" ry="3.0341799"/>
			<path style="fill:#D9DADA;" d="M26.8378906,36.9746094c0,0,0.1894531,2.8818359-1.3261719,3.1132813
				c0,0-0.8632813-0.1914063-1.0185547-0.7753906C24.4931641,39.3125,25.9423828,39.2724609,26.8378906,36.9746094z"/>
		</g>
		<g>
			<ellipse style="fill:#FFFFFF;" cx="28.90625" cy="34.0195313" rx="1.5927734" ry="3.0341799"/>
			<path style="fill:#D9DADA;" d="M30.4921875,33.9404297c0,0,0.1894531,2.8808594-1.3251953,3.1132813
				c0,0-0.8642578-0.1914063-1.0195313-0.7753906C28.1474609,36.2783203,29.5976563,36.2373047,30.4921875,33.9404297z"/>
		</g>
	</g>
	<g>
		<ellipse style="fill:#FFFFFF;" cx="32.2104492" cy="51.4619141" rx="1.5932617" ry="3.0361328"/>
		<path style="fill:#D9DADA;" d="M33.7958984,51.3847656c0,0,0.1904297,2.8798828-1.3242188,3.1132813
			c0,0-0.8632813-0.1914063-1.0185547-0.7753906C31.453125,53.7226563,32.9013672,53.6806641,33.7958984,51.3847656z"/>
	</g>
	<g>
		<g>
			<ellipse style="fill:#FFFFFF;" cx="30.1494141" cy="51.4638672" rx="1.5927734" ry="3.0341799"/>
			<path style="fill:#D9DADA;" d="M31.7353516,51.3847656c0,0,0.1894531,2.8808594-1.3251953,3.1132813
				c0,0-0.8632813-0.1914063-1.0195313-0.7753906C29.390625,53.7226563,30.8408203,53.6816406,31.7353516,51.3847656z"/>
		</g>
		<g>
			<ellipse style="fill:#FFFFFF;" cx="33.8046875" cy="48.4287109" rx="1.59375" ry="3.0351565"/>
			<path style="fill:#D9DADA;" d="M35.390625,48.3496094c0,0,0.1904297,2.8818359-1.3251953,3.1142578
				c0,0-0.8632813-0.1923828-1.0185547-0.7763672C33.046875,50.6875,34.4951172,50.6474609,35.390625,48.3496094z"/>
		</g>
		<g>
			<ellipse style="fill:#FFFFFF;" cx="27.4306641" cy="51.4228516" rx="1.5927734" ry="3.0361331"/>
			<path style="fill:#D9DADA;" d="M29.0166016,51.3447266c0,0,0.1894531,2.8808594-1.3251953,3.1142578
				c0,0-0.8642578-0.1923828-1.0195313-0.7763672C26.671875,53.6826172,28.1220703,53.6416016,29.0166016,51.3447266z"/>
		</g>
		<g>
			<ellipse style="fill:#FFFFFF;" cx="25.3701172" cy="51.4238281" rx="1.5927734" ry="3.0351565"/>
			<path style="fill:#D9DADA;" d="M26.9560547,51.3447266c0,0,0.1894531,2.8818359-1.3251953,3.1142578
				c0,0-0.8642578-0.1923828-1.0195313-0.7763672C24.6113281,53.6826172,26.0605469,53.6425781,26.9560547,51.3447266z"/>
		</g>
		<g>
			<ellipse style="fill:#FFFFFF;" cx="29.0244141" cy="48.3896484" rx="1.5927734" ry="3.0341799"/>
			<path style="fill:#D9DADA;" d="M30.6103516,48.3105469c0,0,0.1894531,2.8808594-1.3251953,3.1132813
				c0,0-0.8632813-0.1914063-1.0195313-0.7753906C28.265625,50.6484375,29.7158203,50.6074219,30.6103516,48.3105469z"/>
		</g>
	</g>
	<g>
		<g>
			<ellipse style="fill:#FFFFFF;" cx="32.0136719" cy="46.8916016" rx="1.5927734" ry="3.0341804"/>
			<path style="fill:#D9DADA;" d="M33.6005859,46.8125c0,0,0.1884766,2.8808594-1.3261719,3.1132813
				c0,0-0.8632813-0.1914063-1.0185547-0.7753906C31.2558594,49.1503906,32.7050781,49.109375,33.6005859,46.8125z"/>
		</g>
		<g>
			<ellipse style="fill:#FFFFFF;" cx="35.6694336" cy="43.8564453" rx="1.5932617" ry="3.0351565"/>
			<path style="fill:#D9DADA;" d="M37.2558594,43.7773438c0,0,0.1894531,2.8818359-1.3251953,3.1142578
				c0,0-0.8642578-0.1923828-1.0195313-0.7753906C34.9111328,46.1162109,36.3603516,46.0751953,37.2558594,43.7773438z"/>
		</g>
		<g>
			<ellipse style="fill:#FFFFFF;" cx="29.2949219" cy="46.8505859" rx="1.5927734" ry="3.0371096"/>
			<path style="fill:#D9DADA;" d="M30.8808594,46.7744141c0,0,0.1894531,2.8789063-1.3251953,3.1132813
				c0,0-0.8632813-0.1914063-1.0195313-0.7753906C28.5361328,49.1123047,29.9863281,49.0693359,30.8808594,46.7744141z"/>
		</g>
		<g>
			<ellipse style="fill:#FFFFFF;" cx="27.234375" cy="46.8525391" rx="1.5927734" ry="3.0351565"/>
			<path style="fill:#D9DADA;" d="M28.8203125,46.7744141c0,0,0.1894531,2.8808594-1.3251953,3.1132813
				c0,0-0.8632813-0.1914063-1.0195313-0.7753906C26.4755859,49.1123047,27.9257813,49.0712891,28.8203125,46.7744141z"/>
		</g>
		<g>
			<ellipse style="fill:#FFFFFF;" cx="30.8886719" cy="43.8183594" rx="1.5927734" ry="3.0341804"/>
			<path style="fill:#D9DADA;" d="M32.4755859,43.7392578c0,0,0.1884766,2.8818359-1.3261719,3.1132813
				c0,0-0.8632813-0.1914063-1.0185547-0.7753906C30.1308594,46.0771484,31.5800781,46.0371094,32.4755859,43.7392578z"/>
		</g>
	</g>
	<g>
		<g>
			<ellipse style="fill:#FFFFFF;" cx="29.0234375" cy="42.359375" rx="1.5927734" ry="3.0351565"/>
			<path style="fill:#D9DADA;" d="M30.609375,42.28125c0,0,0.1894531,2.8808594-1.3251953,3.1132813
				c0,0-0.8642578-0.1914063-1.0195313-0.7753906C28.2646484,44.6191406,29.7148438,44.578125,30.609375,42.28125z"/>
		</g>
		<g>
			<ellipse style="fill:#FFFFFF;" cx="32.9291992" cy="40.7041016" rx="1.5932617" ry="3.0341797"/>
			<path style="fill:#D9DADA;" d="M34.5146484,40.625c0,0,0.1904297,2.8808594-1.3251953,3.1132813
				c0,0-0.8632813-0.1914063-1.0185547-0.7753906C32.1708984,42.9628906,33.6191406,42.921875,34.5146484,40.625z"/>
		</g>
		<g>
			<ellipse style="fill:#FFFFFF;" cx="25.8652344" cy="44.3251953" rx="1.5927734" ry="3.0361331"/>
			<path style="fill:#D9DADA;" d="M27.4511719,44.2480469c0,0,0.1894531,2.8798828-1.3261719,3.1132813
				c0,0-0.8632813-0.1914063-1.0185547-0.7753906C25.1064453,46.5859375,26.5556641,46.5439453,27.4511719,44.2480469z"/>
		</g>
		<g>
			<ellipse style="fill:#FFFFFF;" cx="23.8027344" cy="45.8046875" rx="1.5927734" ry="3.0341804"/>
			<path style="fill:#D9DADA;" d="M25.3896484,45.7255859c0,0,0.1884766,2.8818359-1.3261719,3.1132813
				c0,0-0.8632813-0.1914063-1.0185547-0.7753906C23.0449219,48.0634766,24.4941406,48.0234375,25.3896484,45.7255859z"/>
		</g>
		<g>
			<ellipse style="fill:#FFFFFF;" cx="27.0419922" cy="38.5898438" rx="1.5927734" ry="3.0351565"/>
			<path style="fill:#D9DADA;" d="M28.6279297,38.5117188c0,0,0.1894531,2.8808594-1.3261719,3.1132813
				c0,0-0.8632813-0.1923828-1.0185547-0.7753906C26.2832031,40.8496094,27.7324219,40.8085938,28.6279297,38.5117188z"/>
		</g>
	</g>
	<g>
		<g>
			<ellipse style="fill:#FFFFFF;" cx="30.03125" cy="37.0917969" rx="1.5927734" ry="3.0351565"/>
			<path style="fill:#D9DADA;" d="M31.6171875,37.0126953c0,0,0.1894531,2.8818359-1.3251953,3.1142578
				c0,0-0.8642578-0.1923828-1.0195313-0.7763672C29.2724609,39.3505859,30.7226563,39.3105469,31.6171875,37.0126953z"/>
		</g>
		<g>
			<ellipse style="fill:#FFFFFF;" cx="33.6860352" cy="34.0576172" rx="1.5932617" ry="3.0341806"/>
			<path style="fill:#D9DADA;" d="M35.2734375,33.9785156c0,0,0.1884766,2.8808594-1.3261719,3.1132813
				c0,0-0.8632813-0.1914063-1.0185547-0.7753906C32.9287109,36.3164063,34.3779297,36.2763672,35.2734375,33.9785156z"/>
		</g>
		<g>
			<ellipse style="fill:#FFFFFF;" cx="27.3125" cy="37.0517578" rx="1.5927734" ry="3.0361331"/>
			<path style="fill:#D9DADA;" d="M28.8984375,36.9746094c0,0,0.1894531,2.8789063-1.3261719,3.1132813
				c0,0-0.8632813-0.1914063-1.0185547-0.7753906C26.5537109,39.3125,28.0029297,39.2695313,28.8984375,36.9746094z"/>
		</g>
		<g>
			<ellipse style="fill:#FFFFFF;" cx="25.2519531" cy="37.0537109" rx="1.5927734" ry="3.0341799"/>
			<path style="fill:#D9DADA;" d="M26.8378906,36.9746094c0,0,0.1894531,2.8818359-1.3261719,3.1132813
				c0,0-0.8632813-0.1914063-1.0185547-0.7753906C24.4931641,39.3125,25.9423828,39.2724609,26.8378906,36.9746094z"/>
		</g>
		<g>
			<ellipse style="fill:#FFFFFF;" cx="28.90625" cy="34.0195313" rx="1.5927734" ry="3.0341799"/>
			<path style="fill:#D9DADA;" d="M30.4921875,33.9404297c0,0,0.1894531,2.8808594-1.3251953,3.1132813
				c0,0-0.8642578-0.1914063-1.0195313-0.7753906C28.1474609,36.2783203,29.5976563,36.2373047,30.4921875,33.9404297z"/>
		</g>
	</g>
	<g>
		<ellipse style="fill:#FFFFFF;" cx="21.0146484" cy="21.7402344" rx="1.5932617" ry="3.0361328"/>
		<path style="fill:#D9DADA;" d="M22.6000977,21.6630859c0,0,0.1904297,2.8798828-1.3242188,3.1132813
			c0,0-0.8632813-0.1914063-1.0185547-0.7753906C20.2573242,24.0009766,21.7055664,23.9589844,22.6000977,21.6630859z"/>
	</g>
	<g>
		<g>
			<ellipse style="fill:#FFFFFF;" cx="18.9536133" cy="21.7421875" rx="1.5927734" ry="3.0341799"/>
			<path style="fill:#D9DADA;" d="M20.5395508,21.6630859c0,0,0.1894531,2.8808594-1.3251953,3.1132813
				c0,0-0.8632813-0.1914063-1.0195313-0.7753906C18.1948242,24.0009766,19.6450195,23.9599609,20.5395508,21.6630859z"/>
		</g>
		<g>
			<ellipse style="fill:#FFFFFF;" cx="22.6088867" cy="18.7070313" rx="1.59375" ry="3.0351565"/>
			<path style="fill:#D9DADA;" d="M24.1948242,18.6279297c0,0,0.1904297,2.8818359-1.3251953,3.1142578
				c0,0-0.8632813-0.1923828-1.0185547-0.7763672C21.8510742,20.9658203,23.2993164,20.9257813,24.1948242,18.6279297z"/>
		</g>
		<g>
			<ellipse style="fill:#FFFFFF;" cx="16.2348633" cy="21.7011719" rx="1.5927734" ry="3.0361331"/>
			<path style="fill:#D9DADA;" d="M17.8208008,21.6230469c0,0,0.1894531,2.8808594-1.3251953,3.1142578
				c0,0-0.8642578-0.1923828-1.0195313-0.7763672C15.4760742,23.9609375,16.9262695,23.9199219,17.8208008,21.6230469z"/>
		</g>
		<g>
			<ellipse style="fill:#FFFFFF;" cx="14.1743164" cy="21.7021484" rx="1.5927734" ry="3.0351565"/>
			<path style="fill:#D9DADA;" d="M15.7602539,21.6230469c0,0,0.1894531,2.8818359-1.3251953,3.1142578
				c0,0-0.8642578-0.1923828-1.0195313-0.7763672C13.4155273,23.9609375,14.8647461,23.9208984,15.7602539,21.6230469z"/>
		</g>
		<g>
			<ellipse style="fill:#FFFFFF;" cx="17.8286133" cy="18.6679688" rx="1.5927734" ry="3.0341799"/>
			<path style="fill:#D9DADA;" d="M19.4145508,18.5888672c0,0,0.1894531,2.8808594-1.3251953,3.1132813
				c0,0-0.8632813-0.1914063-1.0195313-0.7753906C17.0698242,20.9267578,18.5200195,20.8857422,19.4145508,18.5888672z"/>
		</g>
	</g>
	<g>
		<g>
			<ellipse style="fill:#FFFFFF;" cx="30.5126953" cy="27.2905273" rx="1.5927734" ry="3.0341804"/>
			<path style="fill:#D9DADA;" d="M32.0996094,27.2114258c0,0,0.1884766,2.8808594-1.3261719,3.1132813
				c0,0-0.8632813-0.1914063-1.0185547-0.7753906C29.7548828,29.5493164,31.2041016,29.5083008,32.0996094,27.2114258z"/>
		</g>
		<g>
			<ellipse style="fill:#FFFFFF;" cx="34.168457" cy="24.2553711" rx="1.5932617" ry="3.0351565"/>
			<path style="fill:#D9DADA;" d="M35.7539063,24.1762695c0,0,0.1894531,2.8818359-1.3242188,3.1142578
				c0,0-0.8652344-0.1923828-1.0195313-0.7753906C33.4101563,26.5151367,34.859375,26.4741211,35.7539063,24.1762695z"/>
		</g>
		<g>
			<ellipse style="fill:#FFFFFF;" cx="27.7939453" cy="27.2495117" rx="1.5927734" ry="3.0371096"/>
			<path style="fill:#D9DADA;" d="M29.3798828,27.1733398c0,0,0.1894531,2.8789063-1.3251953,3.1132813
				c0,0-0.8632813-0.1914063-1.0195313-0.7753906C27.0351563,29.5112305,28.4853516,29.4682617,29.3798828,27.1733398z"/>
		</g>
		<g>
			<ellipse style="fill:#FFFFFF;" cx="25.7333984" cy="27.2514648" rx="1.5927734" ry="3.0351565"/>
			<path style="fill:#D9DADA;" d="M27.3193359,27.1733398c0,0,0.1894531,2.8808594-1.3251953,3.1132813
				c0,0-0.8632813-0.1914063-1.0195313-0.7753906C24.9746094,29.5112305,26.4248047,29.4702148,27.3193359,27.1733398z"/>
		</g>
		<g>
			<ellipse style="fill:#FFFFFF;" cx="29.3876953" cy="24.2172852" rx="1.5927734" ry="3.0341804"/>
			<path style="fill:#D9DADA;" d="M30.9746094,24.1381836c0,0,0.1884766,2.8818359-1.3261719,3.1132813
				c0,0-0.8632813-0.1914063-1.0185547-0.7753906C28.6298828,26.4760742,30.0791016,26.4360352,30.9746094,24.1381836z"/>
		</g>
	</g>
	<g>
		<ellipse style="fill:#FFFFFF;" cx="21.0146484" cy="21.7402344" rx="1.5932617" ry="3.0361328"/>
		<path style="fill:#D9DADA;" d="M22.6000977,21.6630859c0,0,0.1904297,2.8798828-1.3242188,3.1132813
			c0,0-0.8632813-0.1914063-1.0185547-0.7753906C20.2573242,24.0009766,21.7055664,23.9589844,22.6000977,21.6630859z"/>
	</g>
	<g>
		<g>
			<ellipse style="fill:#FFFFFF;" cx="21.3530273" cy="30.5615234" rx="1.5927734" ry="3.0341799"/>
			<path style="fill:#D9DADA;" d="M22.9389648,30.4824219c0,0,0.1894531,2.8808594-1.3251953,3.1132813
				c0,0-0.8632813-0.1914063-1.0195313-0.7753906C20.5942383,32.8203125,22.0444336,32.7792969,22.9389648,30.4824219z"/>
		</g>
		<g>
			<ellipse style="fill:#FFFFFF;" cx="25.0083008" cy="27.5263672" rx="1.59375" ry="3.0351565"/>
			<path style="fill:#D9DADA;" d="M26.5942383,27.4472656c0,0,0.1904297,2.8818359-1.3251953,3.1142578
				c0,0-0.8632813-0.1923828-1.0185547-0.7763672C24.2504883,29.7851563,25.6987305,29.7451172,26.5942383,27.4472656z"/>
		</g>
		<g>
			<ellipse style="fill:#FFFFFF;" cx="18.6342773" cy="30.5205078" rx="1.5927734" ry="3.0361331"/>
			<path style="fill:#D9DADA;" d="M20.2202148,30.4423828c0,0,0.1894531,2.8808594-1.3251953,3.1142578
				c0,0-0.8642578-0.1923828-1.0195313-0.7763672C17.8754883,32.7802734,19.3256836,32.7392578,20.2202148,30.4423828z"/>
		</g>
		<g>
			<ellipse style="fill:#FFFFFF;" cx="16.5737305" cy="30.5214844" rx="1.5927734" ry="3.0351565"/>
			<path style="fill:#D9DADA;" d="M18.159668,30.4423828c0,0,0.1894531,2.8818359-1.3251953,3.1142578
				c0,0-0.8642578-0.1923828-1.0195313-0.7763672C15.8149414,32.7802734,17.2641602,32.7402344,18.159668,30.4423828z"/>
		</g>
		<g>
			<ellipse style="fill:#FFFFFF;" cx="20.2280273" cy="27.4873047" rx="1.5927734" ry="3.0341799"/>
			<path style="fill:#D9DADA;" d="M21.8139648,27.4082031c0,0,0.1894531,2.8808594-1.3251953,3.1132813
				c0,0-0.8632813-0.1914063-1.0195313-0.7753906C19.4692383,29.7460938,20.9194336,29.7050781,21.8139648,27.4082031z"/>
		</g>
	</g>
	<g>
		<ellipse style="fill:#FFFFFF;" cx="38.7177734" cy="26.5517578" rx="1.59375" ry="3.0361328"/>
		<path style="fill:#D9DADA;" d="M40.3037109,26.4746094c0,0,0.1894531,2.8798828-1.3242188,3.1132813
			c0,0-0.8632813-0.1914063-1.0195313-0.7753906C37.9599609,28.8125,39.4091797,28.7705078,40.3037109,26.4746094z"/>
	</g>
	<g>
		<g>
			<ellipse style="fill:#FFFFFF;" cx="39.8955078" cy="21.3911133" rx="1.5927734" ry="3.0341799"/>
			<path style="fill:#D9DADA;" d="M41.4824219,21.3120117c0,0,0.1875,2.8808594-1.3261719,3.1132813
				c0,0-0.8632813-0.1914063-1.0195313-0.7753906C39.1367188,23.6499023,40.5859375,23.6088867,41.4824219,21.3120117z"/>
		</g>
		<g>
			<ellipse style="fill:#FFFFFF;" cx="43.5507813" cy="18.355957" rx="1.59375" ry="3.035157"/>
			<path style="fill:#D9DADA;" d="M45.1367188,18.2768555c0,0,0.1894531,2.8818359-1.3242188,3.1142578
				c0,0-0.8652344-0.1923828-1.0195313-0.7753906C42.7929688,20.6157227,44.2421875,20.574707,45.1367188,18.2768555z"/>
		</g>
		<g>
			<ellipse style="fill:#FFFFFF;" cx="37.1767578" cy="21.3500977" rx="1.5927734" ry="3.0371096"/>
			<path style="fill:#D9DADA;" d="M38.7617188,21.2739258c0,0,0.1894531,2.8789063-1.3242188,3.1132813
				c0,0-0.8632813-0.1914063-1.0195313-0.7753906C36.4179688,23.6118164,37.8671875,23.5688477,38.7617188,21.2739258z"/>
		</g>
		<g>
			<ellipse style="fill:#FFFFFF;" cx="35.1162109" cy="21.3520508" rx="1.5927734" ry="3.0351565"/>
			<path style="fill:#D9DADA;" d="M36.7011719,21.2739258c0,0,0.1894531,2.8808594-1.3242188,3.1132813
				c0,0-0.8632813-0.1914063-1.0195313-0.7753906C34.3574219,23.6118164,35.8066406,23.5708008,36.7011719,21.2739258z"/>
		</g>
		<g>
			<ellipse style="fill:#FFFFFF;" cx="38.7705078" cy="18.3178711" rx="1.5927734" ry="3.0341799"/>
			<path style="fill:#D9DADA;" d="M40.3574219,18.2387695c0,0,0.1875,2.8818359-1.3261719,3.1132813
				c0,0-0.8632813-0.1914063-1.0195313-0.7753906C38.0117188,20.5766602,39.4609375,20.5366211,40.3574219,18.2387695z"/>
		</g>
	</g>
	<g>
		<ellipse style="fill:#FFFFFF;" cx="38.7177734" cy="26.5517578" rx="1.59375" ry="3.0361328"/>
		<path style="fill:#D9DADA;" d="M40.3037109,26.4746094c0,0,0.1894531,2.8798828-1.3242188,3.1132813
			c0,0-0.8632813-0.1914063-1.0195313-0.7753906C37.9599609,28.8125,39.4091797,28.7705078,40.3037109,26.4746094z"/>
	</g>
	<g>
		<g>
			<ellipse style="fill:#FFFFFF;" cx="39.8955078" cy="21.3911133" rx="1.5927734" ry="3.0341799"/>
			<path style="fill:#D9DADA;" d="M41.4824219,21.3120117c0,0,0.1875,2.8808594-1.3261719,3.1132813
				c0,0-0.8632813-0.1914063-1.0195313-0.7753906C39.1367188,23.6499023,40.5859375,23.6088867,41.4824219,21.3120117z"/>
		</g>
		<g>
			<ellipse style="fill:#FFFFFF;" cx="43.5507813" cy="18.355957" rx="1.59375" ry="3.035157"/>
			<path style="fill:#D9DADA;" d="M45.1367188,18.2768555c0,0,0.1894531,2.8818359-1.3242188,3.1142578
				c0,0-0.8652344-0.1923828-1.0195313-0.7753906C42.7929688,20.6157227,44.2421875,20.574707,45.1367188,18.2768555z"/>
		</g>
		<g>
			<ellipse style="fill:#FFFFFF;" cx="37.1767578" cy="21.3500977" rx="1.5927734" ry="3.0371096"/>
			<path style="fill:#D9DADA;" d="M38.7617188,21.2739258c0,0,0.1894531,2.8789063-1.3242188,3.1132813
				c0,0-0.8632813-0.1914063-1.0195313-0.7753906C36.4179688,23.6118164,37.8671875,23.5688477,38.7617188,21.2739258z"/>
		</g>
		<g>
			<ellipse style="fill:#FFFFFF;" cx="35.1162109" cy="21.3520508" rx="1.5927734" ry="3.0351565"/>
			<path style="fill:#D9DADA;" d="M36.7011719,21.2739258c0,0,0.1894531,2.8808594-1.3242188,3.1132813
				c0,0-0.8632813-0.1914063-1.0195313-0.7753906C34.3574219,23.6118164,35.8066406,23.5708008,36.7011719,21.2739258z"/>
		</g>
		<g>
			<ellipse style="fill:#FFFFFF;" cx="38.7705078" cy="18.3178711" rx="1.5927734" ry="3.0341799"/>
			<path style="fill:#D9DADA;" d="M40.3574219,18.2387695c0,0,0.1875,2.8818359-1.3261719,3.1132813
				c0,0-0.8632813-0.1914063-1.0195313-0.7753906C38.0117188,20.5766602,39.4609375,20.5366211,40.3574219,18.2387695z"/>
		</g>
	</g>
	<g>
		<ellipse style="fill:#FFFFFF;" cx="31.7680664" cy="25.8310547" rx="1.5932617" ry="3.0361328"/>
		<path style="fill:#D9DADA;" d="M33.3535156,25.7539063c0,0,0.1904297,2.8798828-1.3242188,3.1132813
			c0,0-0.8632813-0.1914063-1.0185547-0.7753906C31.0107422,28.0917969,32.4589844,28.0498047,33.3535156,25.7539063z"/>
	</g>
	<g>
		<g>
			<ellipse style="fill:#FFFFFF;" cx="30.0986328" cy="16.8383789" rx="1.5927734" ry="3.0351565"/>
			<path style="fill:#D9DADA;" d="M31.6845703,16.7602539c0,0,0.1894531,2.8808594-1.3251953,3.1132813
				c0,0-0.8642578-0.1914063-1.0195313-0.7753906C29.3398438,19.0981445,30.7900391,19.0571289,31.6845703,16.7602539z"/>
		</g>
		<g>
			<ellipse style="fill:#FFFFFF;" cx="34.0043945" cy="15.1831055" rx="1.5932617" ry="3.0341797"/>
			<path style="fill:#D9DADA;" d="M35.5898438,15.1040039c0,0,0.1894531,2.8808594-1.3261719,3.1132813
				c0,0-0.8623047-0.1914063-1.0175781-0.7753906C33.2460938,17.4418945,34.6933594,17.4008789,35.5898438,15.1040039z"/>
		</g>
		<g>
			<ellipse style="fill:#FFFFFF;" cx="26.9404297" cy="18.8041992" rx="1.5927734" ry="3.0361331"/>
			<path style="fill:#D9DADA;" d="M28.5263672,18.7270508c0,0,0.1894531,2.8798828-1.3261719,3.1132813
				c0,0-0.8632813-0.1914063-1.0185547-0.7753906C26.1816406,21.0649414,27.6308594,21.0229492,28.5263672,18.7270508z"/>
		</g>
		<g>
			<ellipse style="fill:#FFFFFF;" cx="24.8779297" cy="20.2836914" rx="1.5927734" ry="3.0341804"/>
			<path style="fill:#D9DADA;" d="M26.4648438,20.2045898c0,0,0.1884766,2.8818359-1.3261719,3.1132813
				c0,0-0.8632813-0.1914063-1.0185547-0.7753906C24.1201172,22.5424805,25.5693359,22.5024414,26.4648438,20.2045898z"/>
		</g>
		<g>
			<ellipse style="fill:#FFFFFF;" cx="28.1171875" cy="13.0688477" rx="1.5927734" ry="3.0351565"/>
			<path style="fill:#D9DADA;" d="M29.703125,12.9907227c0,0,0.1894531,2.8808594-1.3261719,3.1132813
				c0,0-0.8632813-0.1923828-1.0185547-0.7753906C27.3583984,15.3286133,28.8076172,15.2875977,29.703125,12.9907227z"/>
		</g>
	</g>
	<g>
		<ellipse style="fill:#FFFFFF;" cx="31.7680664" cy="25.8310547" rx="1.5932617" ry="3.0361328"/>
		<path style="fill:#D9DADA;" d="M33.3535156,25.7539063c0,0,0.1904297,2.8798828-1.3242188,3.1132813
			c0,0-0.8632813-0.1914063-1.0185547-0.7753906C31.0107422,28.0917969,32.4589844,28.0498047,33.3535156,25.7539063z"/>
	</g>
	<g>
		<g>
			<ellipse style="fill:#FFFFFF;" cx="34.8798828" cy="17.4116211" rx="1.5927734" ry="3.0351565"/>
			<path style="fill:#D9DADA;" d="M36.4648438,17.3334961c0,0,0.1894531,2.8808594-1.3242188,3.1132813
				c0,0-0.8652344-0.1914063-1.0195313-0.7753906C34.1210938,19.6713867,35.5703125,19.6303711,36.4648438,17.3334961z"/>
		</g>
		<g>
			<ellipse style="fill:#FFFFFF;" cx="38.7851563" cy="15.7563477" rx="1.59375" ry="3.0341797"/>
			<path style="fill:#D9DADA;" d="M40.3710938,15.6772461c0,0,0.1894531,2.8808594-1.3261719,3.1132813
				c0,0-0.8632813-0.1914063-1.0175781-0.7753906C38.0273438,18.0151367,39.4746094,17.9741211,40.3710938,15.6772461z"/>
		</g>
		<g>
			<ellipse style="fill:#FFFFFF;" cx="31.7214355" cy="19.3774414" rx="1.5930176" ry="3.0361331"/>
			<path style="fill:#D9DADA;" d="M33.3066406,19.300293c0,0,0.1894531,2.8798828-1.3256836,3.1132813
				c0,0-0.8632813-0.1914063-1.0185547-0.7753906C30.9624023,21.6381836,32.4116211,21.5961914,33.3066406,19.300293z"/>
		</g>
		<g>
			<ellipse style="fill:#FFFFFF;" cx="29.6586914" cy="20.8569336" rx="1.5927734" ry="3.0341804"/>
			<path style="fill:#D9DADA;" d="M31.2456055,20.777832c0,0,0.1884766,2.8818359-1.3261719,3.1132813
				c0,0-0.8632813-0.1914063-1.0185547-0.7753906C28.9008789,23.1157227,30.3500977,23.0756836,31.2456055,20.777832z"/>
		</g>
		<g>
			<ellipse style="fill:#FFFFFF;" cx="32.8977051" cy="13.6420898" rx="1.5925293" ry="3.0351565"/>
			<path style="fill:#D9DADA;" d="M34.484375,13.5639648c0,0,0.1894531,2.8808594-1.3261719,3.1132813
				c0,0-0.8637695-0.1923828-1.019043-0.7753906C32.1391602,15.9018555,33.5878906,15.8608398,34.484375,13.5639648z"/>
		</g>
	</g>
	<g>
		<path style="fill:#231815;" d="M22.0708008,56.9404297c-0.1425781,0-0.2797852-0.0136719-0.4140625-0.0400391
			c-0.5473633-0.1054688-1.0004883-0.421875-1.2788086-0.8916016c-0.2368164-0.1337891-0.4453125-0.3095703-0.6186523-0.5205078
			c-0.3222656-0.1630859-0.5883789-0.4130859-0.7719727-0.7314453c-0.1762695-0.3046875-0.2543945-0.6484375-0.230957-0.9970703
			c-0.1938477-0.1660156-0.3598633-0.3662109-0.4921875-0.5957031c-0.2626953-0.4541016-0.3212891-0.9912109-0.1655273-1.5117188
			c0.0283203-0.0947266,0.0639648-0.1884766,0.1079102-0.2832031c-0.1425781-0.3417969-0.1899414-0.7138672-0.1386719-1.0869141
			c-0.0327148-0.0488281-0.0639648-0.0986328-0.0932617-0.1494141c-0.1577148-0.2724609-0.2348633-0.578125-0.2290039-0.8896484
			c-0.3530273-0.1708984-0.6445313-0.4404297-0.8447266-0.7880859c-0.1572266-0.2714844-0.2333984-0.5761719-0.2260742-0.8857422
			c-0.0483398-0.0644531-0.0932617-0.1328125-0.1342773-0.2041016c-0.2636719-0.4560547-0.3217773-0.9941406-0.1640625-1.5136719
			c0.0351563-0.1171875,0.081543-0.2333984,0.1401367-0.3496094c-0.2397461-0.4199219-0.2924805-0.9111328-0.1489258-1.3857422
			c0.0268555-0.0878906,0.0605469-0.1748047,0.1005859-0.2607422c0.0029297-0.1582031,0.0273438-0.3173828,0.0732422-0.4755859
			c0.0390625-0.1347656,0.0927734-0.265625,0.1625977-0.3945313c-0.0039063-0.1767578,0.0205078-0.3564453,0.0737305-0.5322266
			c0.0629883-0.2109375,0.1606445-0.4052734,0.3022461-0.5966797c0.0117188-0.0810547,0.0283203-0.1621094,0.0512695-0.2431641
			c0.125-0.4404297,0.3867188-0.8144531,0.8681641-1.2197266c-0.1621094-0.5410156,0.012207-1.0351563,0.3535156-1.5117188
			c-0.1835938-0.5019531-0.0512695-0.953125,0.1567383-1.3417969c-0.0415039-0.4628906,0.1347656-0.9296875,0.4892578-1.2490234
			c0.2895508-0.5458984,0.7382813-0.7236328,1.0332031-0.7841797c0.1704102-0.0332031,0.6152344-0.0869141,1.0664063,0.1689453
			c0.1962891-0.0644531,0.4082031-0.09375,0.6459961-0.0761719c0.3530273,0.0263672,0.6782227,0.1591797,0.9453125,0.3798828
			c0.6196289-0.4492188,1.2202148-0.6992188,1.8828125-0.6064453c0.1376953,0.0195313,0.2709961,0.0537109,0.3984375,0.1015625
			c0.2685547-0.0625,0.5351563-0.0761719,0.8076172-0.0361328c0.1298828,0.0205078,0.2553711,0.0537109,0.3759766,0.0996094
			c0.5366211-0.2226563,1.0131836-0.2939453,1.4750977-0.2109375c0.2021484,0.0380859,0.3916016,0.1044922,0.5639648,0.1982422
			c0.6303711-0.2568359,1.1918945-0.3496094,1.7182617-0.2539063c0.2558594,0.0458984,0.4936523,0.1347656,0.706543,0.2607422
			c0.059082,0.0058594,0.1171875,0.0136719,0.175293,0.0244141c0.2338867,0.0429688,0.4511719,0.1230469,0.6464844,0.2373047
			c0.2216797-0.0546875,0.4287109-0.0830078,0.6259766-0.0839844c0.578125-0.1894531,1.0966797-0.2470703,1.5742188-0.1582031
			c0.2050781,0.0371094,0.3984375,0.1005859,0.5771484,0.1875c1.0253906-0.4951172,1.8154297-0.6611328,2.5019531-0.5253906
			c0.2617188,0.0517578,0.5039063,0.1474609,0.71875,0.2832031c0.1787109-0.0126953,0.3486328,0.0039063,0.5136719,0.0371094
			c0.2080078,0.0400391,0.4013672,0.1123047,0.5771484,0.2119141c0.5703125-0.1855469,1.0576172-0.234375,1.5009766-0.1474609
			c0.6044922,0.1152344,1.1025391,0.4667969,1.4042969,0.9892578c0.0888672,0.1533203,0.15625,0.3154297,0.2021484,0.4833984
			c0.2666016,0.1767578,0.4902344,0.4130859,0.6542969,0.6982422c0.2792969,0.4833984,0.3417969,1.0566406,0.1748047,1.6123047
			c-0.0742188,0.2509766-0.1962891,0.5-0.3701172,0.7529297c0.0761719,0.09375,0.1464844,0.1943359,0.2080078,0.3017578
			c0.2568359,0.4453125,0.3144531,0.9707031,0.1611328,1.4794922c-0.0908203,0.3007813-0.2539063,0.5976563-0.5146484,0.9091797
			c-0.0126953,0.0693359-0.0292969,0.1386719-0.0498047,0.2080078c-0.0380859,0.1240234-0.0878906,0.2460938-0.1542969,0.3691406
			c-0.0009766,0.1328125-0.0166016,0.2675781-0.046875,0.4003906c0.2246094,0.4453125,0.2675781,0.9580078,0.1220703,1.4570313
			c0.09375,0.3115234,0.0966797,0.6464844,0.0029297,0.9726563c-0.0273438,0.0966797-0.0625,0.1914063-0.1054688,0.2851563
			c0.0673828,0.1894531,0.1005859,0.3886719,0.0986328,0.5908203c0.2363281,0.4169922,0.2880859,0.9033203,0.1474609,1.3730469
			c-0.0136719,0.0458984-0.0292969,0.0908203-0.046875,0.1357422c0.0869141,0.40625-0.0068359,0.7822266-0.2753906,1.1650391
			c0.0742188,0.2099609,0.1044922,0.4326172,0.0888672,0.65625c0.1728516,0.1435547,0.3222656,0.3203125,0.4384766,0.5224609
			c0.4365234,0.7558594,0.2783203,1.3662109-0.2636719,1.9755859c0.0097656,0.1142578,0.0048828,0.2265625-0.0126953,0.3359375
			c0.0546875,0.1103516,0.0947266,0.2226563,0.125,0.3427734c0.1767578,0.1289063,0.3476563,0.3115234,0.4951172,0.5673828
			c0.3876953,0.6708984,0.1982422,1.515625-0.4140625,1.9619141c-0.3173828,0.4765625-0.7373047,0.6357422-1.0810547,0.6796875
			c-0.1787109,0.0244141-0.6972656,0.046875-1.1669922-0.3251953c-0.2539063,0.1298828-0.5390625,0.2197266-0.8857422,0.1933594
			c-0.2783203-0.0107422-0.5419922-0.0878906-0.7802734-0.2216797c-0.3681641,0.1943359-0.7568359,0.2978516-1.2041016,0.2421875
			c-0.3330078-0.0380859-0.6435547-0.1679688-0.9042969-0.3710938c-0.1699219,0.0214844-0.3447266,0.0195313-0.5234375-0.0068359
			c-0.2060547-0.0322266-0.4013672-0.0996094-0.578125-0.1992188c-0.7197266,0.4462891-1.3007813,0.640625-1.8730469,0.5644531
			c-0.4091797,0.1494141-0.7983398,0.1972656-1.1914063,0.1347656c-0.3188477-0.0498047-0.6088867-0.171875-0.8574219-0.3544922
			c-0.3505859,0.0947266-0.6855469,0.1132813-1.0185547,0.0595703c-0.1337891-0.0224609-0.2626953-0.0566406-0.3857422-0.1025391
			c-0.6660156,0.3242188-1.2211914,0.4355469-1.7548828,0.3388672c-0.1459961-0.0273438-0.2856445-0.0693359-0.4169922-0.125
			c-0.1738281,0.0048828-0.3378906-0.0068359-0.5009766-0.0341797c-0.2924805-0.0507813-0.5629883-0.1552734-0.8022461-0.3076172
			c-0.6630859,0.2851563-1.2109375,0.3671875-1.7270508,0.2734375c-0.199707-0.0371094-0.3881836-0.1005859-0.5605469-0.1894531
			C23.1611328,56.7675781,22.5834961,56.9404297,22.0708008,56.9404297z"/>
	</g>
	<g>
		<g>
			<ellipse style="fill:#FFFFFF;" cx="48.4785156" cy="38.8671875" rx="1.5927734" ry="3.0351565"/>
			<path style="fill:#D9DADA;" d="M50.0644531,38.7890625c0,0,0.1894531,2.8808594-1.3251953,3.1132813
				c0,0-0.8642578-0.1914063-1.0195313-0.7753906C47.7197266,41.1269531,49.1699219,41.0859375,50.0644531,38.7890625z"/>
		</g>
		<g>
			<ellipse style="fill:#FFFFFF;" cx="52.3842773" cy="37.2119141" rx="1.5932617" ry="3.0341797"/>
			<path style="fill:#D9DADA;" d="M53.9697266,37.1328125c0,0,0.1904297,2.8808594-1.3251953,3.1132813
				c0,0-0.8632813-0.1914063-1.0185547-0.7753906C51.6259766,39.4707031,53.0742188,39.4296875,53.9697266,37.1328125z"/>
		</g>
		<g>
			<ellipse style="fill:#FFFFFF;" cx="45.3203125" cy="40.8330078" rx="1.5927734" ry="3.0361331"/>
			<path style="fill:#D9DADA;" d="M46.90625,40.7558594c0,0,0.1894531,2.8798828-1.3261719,3.1132813
				c0,0-0.8632813-0.1914063-1.0185547-0.7753906C44.5615234,43.09375,46.0107422,43.0517578,46.90625,40.7558594z"/>
		</g>
		<g>
			<ellipse style="fill:#FFFFFF;" cx="43.2578125" cy="42.3125" rx="1.5927734" ry="3.0341804"/>
			<path style="fill:#D9DADA;" d="M44.8447266,42.2333984c0,0,0.1884766,2.8818359-1.3261719,3.1132813
				c0,0-0.8632813-0.1914063-1.0185547-0.7753906C42.5,44.5712891,43.9492188,44.53125,44.8447266,42.2333984z"/>
		</g>
		<g>
			<ellipse style="fill:#FFFFFF;" cx="46.4970703" cy="35.0976563" rx="1.5927734" ry="3.0351565"/>
			<path style="fill:#D9DADA;" d="M48.0830078,35.0195313c0,0,0.1894531,2.8808594-1.3261719,3.1132813
				c0,0-0.8632813-0.1923828-1.0185547-0.7753906C45.7382813,37.3574219,47.1875,37.3164063,48.0830078,35.0195313z"/>
		</g>
	</g>
	<g>
		<g>
			<ellipse style="fill:#FFFFFF;" cx="47.1572266" cy="37.4208984" rx="1.5927734" ry="3.0351565"/>
			<path style="fill:#D9DADA;" d="M48.7431641,37.3417969c0,0,0.1894531,2.8818359-1.3251953,3.1142578
				c0,0-0.8642578-0.1923828-1.0195313-0.7763672C46.3984375,39.6796875,47.8486328,39.6396484,48.7431641,37.3417969z"/>
		</g>
		<g>
			<ellipse style="fill:#FFFFFF;" cx="50.8120117" cy="34.3867188" rx="1.5932617" ry="3.0341806"/>
			<path style="fill:#D9DADA;" d="M52.3994141,34.3076172c0,0,0.1884766,2.8808594-1.3261719,3.1132813
				c0,0-0.8632813-0.1914063-1.0185547-0.7753906C50.0546875,36.6455078,51.5039063,36.6054688,52.3994141,34.3076172z"/>
		</g>
		<g>
			<ellipse style="fill:#FFFFFF;" cx="44.4384766" cy="37.3808594" rx="1.5927734" ry="3.0361331"/>
			<path style="fill:#D9DADA;" d="M46.0244141,37.3037109c0,0,0.1894531,2.8789063-1.3261719,3.1132813
				c0,0-0.8632813-0.1914063-1.0185547-0.7753906C43.6796875,39.6416016,45.1289063,39.5986328,46.0244141,37.3037109z"/>
		</g>
		<g>
			<ellipse style="fill:#FFFFFF;" cx="42.3779297" cy="37.3828125" rx="1.5927734" ry="3.0341799"/>
			<path style="fill:#D9DADA;" d="M43.9638672,37.3037109c0,0,0.1894531,2.8818359-1.3261719,3.1132813
				c0,0-0.8632813-0.1914063-1.0185547-0.7753906C41.6191406,39.6416016,43.0683594,39.6015625,43.9638672,37.3037109z"/>
		</g>
		<g>
			<ellipse style="fill:#FFFFFF;" cx="46.0322266" cy="34.3486328" rx="1.5927734" ry="3.0341799"/>
			<path style="fill:#D9DADA;" d="M47.6181641,34.2695313c0,0,0.1894531,2.8808594-1.3251953,3.1132813
				c0,0-0.8642578-0.1914063-1.0195313-0.7753906C45.2734375,36.6074219,46.7236328,36.5664063,47.6181641,34.2695313z"/>
		</g>
	</g>
</g>
</svg>
