<?xml version="1.0" encoding="utf-8"?>
<!-- Generator: Adobe Illustrator 15.0.2, SVG Export Plug-In . SVG Version: 6.00 Build 0)  -->
<!DOCTYPE svg PUBLIC "-//W3C//DTD SVG 1.1//EN" "http://www.w3.org/Graphics/SVG/1.1/DTD/svg11.dtd">
<svg version="1.1" id="レイヤー_1" xmlns="http://www.w3.org/2000/svg" xmlns:xlink="http://www.w3.org/1999/xlink" x="0px"
	 y="0px" width="64px" height="64px" viewBox="0 0 64 64" enable-background="new 0 0 64 64" xml:space="preserve">
<g>
	<linearGradient id="SVGID_1_" gradientUnits="userSpaceOnUse" x1="32.0005" y1="55.1689" x2="32.0005" y2="2.5446">
		<stop  offset="0" style="stop-color:#00749F"/>
		<stop  offset="0.2025" style="stop-color:#006492"/>
		<stop  offset="1" style="stop-color:#00265F"/>
	</linearGradient>
	<rect fill="url(#SVGID_1_)" width="64" height="64"/>
	<linearGradient id="SVGID_2_" gradientUnits="userSpaceOnUse" x1="38.167" y1="35.9199" x2="9.6027" y2="7.3556">
		<stop  offset="0" style="stop-color:#FFD200"/>
		<stop  offset="1" style="stop-color:#FFEE00"/>
	</linearGradient>
	<circle fill="url(#SVGID_2_)" cx="23.019" cy="20.771" r="18.435"/>
	<g>
		<path fill="none" stroke="#CCA24E" stroke-width="0.7451" stroke-miterlimit="10" d="M1.722,53.896c0,0-0.311-17.778,6.334-23.854
			c6.644-6.076,8.21-4.275,8.21-4.275"/>
		<path fill="none" stroke="#CCA24E" stroke-width="0.7451" stroke-miterlimit="10" d="M5.906,32.76
			c3.501-4.866,10.359-4.013,10.359-4.013"/>
		<path fill="none" stroke="#CCA24E" stroke-width="0.7451" stroke-miterlimit="10" d="M16.5,27.057c0,0-4.838-0.75-9.436,4.041"/>
		<path fill="none" stroke="#CCA24E" stroke-width="0.7451" stroke-miterlimit="10" d="M16.5,30.725c0,0-7.249-2.048-11.697,4.228"
			/>
		<path fill="none" stroke="#CCA24E" stroke-width="0.7451" stroke-miterlimit="10" d="M16.004,31.727c0,0-8.942-1.869-11.488,3.226
			"/>
		<path fill="none" stroke="#CCA24E" stroke-width="0.7451" stroke-miterlimit="10" d="M14.327,33.172c0,0-7.373-2.128-9.523,2.157"
			/>
	</g>
	<g>
		<path fill="none" stroke="#CCA24E" stroke-width="0.7451" stroke-miterlimit="10" d="M3.264,61.139c0,0-0.311-17.778,6.334-23.854
			c6.644-6.075,8.21-4.275,8.21-4.275"/>
		<path fill="none" stroke="#CCA24E" stroke-width="0.7451" stroke-miterlimit="10" d="M7.448,40.003
			c3.501-4.866,10.359-4.014,10.359-4.014"/>
		<path fill="none" stroke="#CCA24E" stroke-width="0.7451" stroke-miterlimit="10" d="M18.043,34.3c0,0-4.839-0.75-9.437,4.041"/>
		<path fill="none" stroke="#CCA24E" stroke-width="0.7451" stroke-miterlimit="10" d="M18.043,37.968c0,0-7.249-2.048-11.697,4.228
			"/>
		<path fill="none" stroke="#CCA24E" stroke-width="0.7451" stroke-miterlimit="10" d="M17.546,38.971c0,0-8.942-1.87-11.488,3.225"
			/>
		<path fill="none" stroke="#CCA24E" stroke-width="0.7451" stroke-miterlimit="10" d="M15.869,40.415c0,0-7.373-2.128-9.523,2.157"
			/>
	</g>
	<g>
		<path fill="none" stroke="#CCA24E" stroke-width="0.7451" stroke-miterlimit="10" d="M15.63,63.708c0,0-0.311-17.778,6.333-23.854
			c6.644-6.077,8.21-4.276,8.21-4.276"/>
		<path fill="none" stroke="#CCA24E" stroke-width="0.7451" stroke-miterlimit="10" d="M19.814,42.572
			c3.502-4.866,10.359-4.014,10.359-4.014"/>
		<path fill="none" stroke="#CCA24E" stroke-width="0.7451" stroke-miterlimit="10" d="M30.409,36.869c0,0-4.839-0.75-9.437,4.04"/>
		<path fill="none" stroke="#CCA24E" stroke-width="0.7451" stroke-miterlimit="10" d="M30.409,40.536c0,0-7.249-2.047-11.697,4.229
			"/>
		<path fill="none" stroke="#CCA24E" stroke-width="0.7451" stroke-miterlimit="10" d="M29.911,41.539c0,0-8.941-1.87-11.487,3.226"
			/>
		<path fill="none" stroke="#CCA24E" stroke-width="0.7451" stroke-miterlimit="10" d="M28.235,42.984c0,0-7.373-2.128-9.523,2.156"
			/>
	</g>
	<g>
		<linearGradient id="SVGID_3_" gradientUnits="userSpaceOnUse" x1="47.3975" y1="16.7798" x2="51.0656" y2="25.4666">
			<stop  offset="0" style="stop-color:#FFFFFF"/>
			<stop  offset="0.3466" style="stop-color:#FFFADD"/>
			<stop  offset="1" style="stop-color:#FFF19F"/>
		</linearGradient>
		<circle fill="url(#SVGID_3_)" cx="48.964" cy="20.491" r="4.005"/>
		<linearGradient id="SVGID_4_" gradientUnits="userSpaceOnUse" x1="43.3926" y1="22.4536" x2="47.0603" y2="31.1394">
			<stop  offset="0" style="stop-color:#FFFFFF"/>
			<stop  offset="0.3466" style="stop-color:#FFFADD"/>
			<stop  offset="1" style="stop-color:#FFF19F"/>
		</linearGradient>
		<circle fill="url(#SVGID_4_)" cx="44.959" cy="26.164" r="4.005"/>
		<linearGradient id="SVGID_5_" gradientUnits="userSpaceOnUse" x1="50.6309" y1="22.4536" x2="54.299" y2="31.1405">
			<stop  offset="0" style="stop-color:#FFFFFF"/>
			<stop  offset="0.3466" style="stop-color:#FFFADD"/>
			<stop  offset="1" style="stop-color:#FFF19F"/>
		</linearGradient>
		<circle fill="url(#SVGID_5_)" cx="52.198" cy="26.164" r="4.005"/>
		<linearGradient id="SVGID_6_" gradientUnits="userSpaceOnUse" x1="39.3398" y1="27.376" x2="43.0076" y2="36.0618">
			<stop  offset="0" style="stop-color:#FFFFFF"/>
			<stop  offset="0.3466" style="stop-color:#FFFADD"/>
			<stop  offset="1" style="stop-color:#FFF19F"/>
		</linearGradient>
		<circle fill="url(#SVGID_6_)" cx="40.907" cy="31.086" r="4.005"/>
		<linearGradient id="SVGID_7_" gradientUnits="userSpaceOnUse" x1="46.627" y1="27.3755" x2="50.2947" y2="36.0613">
			<stop  offset="0" style="stop-color:#FFFFFF"/>
			<stop  offset="0.3466" style="stop-color:#FFFADD"/>
			<stop  offset="1" style="stop-color:#FFF19F"/>
		</linearGradient>
		<circle fill="url(#SVGID_7_)" cx="48.193" cy="31.086" r="4.005"/>
		<linearGradient id="SVGID_8_" gradientUnits="userSpaceOnUse" x1="53.9131" y1="27.376" x2="57.5808" y2="36.0618">
			<stop  offset="0" style="stop-color:#FFFFFF"/>
			<stop  offset="0.3466" style="stop-color:#FFFADD"/>
			<stop  offset="1" style="stop-color:#FFF19F"/>
		</linearGradient>
		<circle fill="url(#SVGID_8_)" cx="55.48" cy="31.086" r="4.005"/>
	</g>
	<linearGradient id="SVGID_9_" gradientUnits="userSpaceOnUse" x1="31.8984" y1="47.9756" x2="32.0649" y2="64.3076">
		<stop  offset="0" style="stop-color:#004A7F"/>
		<stop  offset="0.2122" style="stop-color:#005B8D"/>
		<stop  offset="1" style="stop-color:#0099BF"/>
	</linearGradient>
	<path fill="url(#SVGID_9_)" d="M64,51.753c0,0-27.916-9-64,0C0,59.003,0,64,0,64h64V51.753z"/>
	<g>
		<linearGradient id="SVGID_10_" gradientUnits="userSpaceOnUse" x1="31.9546" y1="21.3286" x2="62.1198" y2="61.7435">
			<stop  offset="0" style="stop-color:#FFE79F"/>
			<stop  offset="0.5933" style="stop-color:#B18C3E"/>
			<stop  offset="1" style="stop-color:#7F5200"/>
		</linearGradient>
		<polygon fill="url(#SVGID_10_)" points="39.11,51.673 57.277,51.673 58.277,35.839 38.11,35.839 		"/>
		<linearGradient id="SVGID_11_" gradientUnits="userSpaceOnUse" x1="37.4014" y1="14.6309" x2="54.3184" y2="47.5473">
			<stop  offset="0" style="stop-color:#FFE79F"/>
			<stop  offset="0.5933" style="stop-color:#B18C3E"/>
			<stop  offset="1" style="stop-color:#7F5200"/>
		</linearGradient>
		<rect x="35.277" y="32.67" fill="url(#SVGID_11_)" width="25.833" height="5.919"/>
		<linearGradient id="SVGID_12_" gradientUnits="userSpaceOnUse" x1="47.5195" y1="40.6738" x2="48.8525" y2="48.3408">
			<stop  offset="0" style="stop-color:#3F2400"/>
			<stop  offset="0.0358" style="stop-color:#412600"/>
			<stop  offset="1" style="stop-color:#7F5200"/>
		</linearGradient>
		<circle fill="url(#SVGID_12_)" cx="48.193" cy="44.548" r="3.875"/>
	</g>
</g>
</svg>
