<?xml version="1.0" encoding="utf-8"?>
<!-- Generator: Adobe Illustrator 18.0.0, SVG Export Plug-In . SVG Version: 6.00 Build 0)  -->
<!DOCTYPE svg PUBLIC "-//W3C//DTD SVG 1.1//EN" "http://www.w3.org/Graphics/SVG/1.1/DTD/svg11.dtd">
<svg version="1.1" id="レイヤー_1" xmlns="http://www.w3.org/2000/svg" xmlns:xlink="http://www.w3.org/1999/xlink" x="0px"
	 y="0px" width="64px" height="64px" viewBox="0 0 64 64" style="enable-background:new 0 0 64 64;" xml:space="preserve">
<g>
	
		<linearGradient id="SVGID_1_" gradientUnits="userSpaceOnUse" x1="30.1583252" y1="54.5" x2="30.1583252" y2="9.3543701" gradientTransform="matrix(-1 0 0 1 62.7722168 0)">
		<stop  offset="0" style="stop-color:#E75513"/>
		<stop  offset="0.6" style="stop-color:#F8EB00"/>
		<stop  offset="1" style="stop-color:#FFFFFF"/>
	</linearGradient>
	<polygon style="fill:url(#SVGID_1_);" points="9.6601563,34.647644 3.2277832,31.944397 9.7074585,29.3989258 
		5.3692627,24.2172241 12.1734009,23.2711182 9.5145874,16.5888062 15.8429565,20.0250244 17.3942261,13.4449463 
		22.5441895,17.6281128 24.1524658,11.1447754 29.0887451,15.732605 31.7104492,9.3543701 35.2930908,15.2607422 
		39.8353882,10.0418701 41.3317871,16.8187256 47.0316772,13.204834 47.7356567,19.8895874 54.0509033,16.902832 
		52.1253662,23.6260986 59.0140991,23.5326538 55.2304077,29.4032593 62,31.9946289 55.2124634,34.4164429 58.8123779,40.4572754 
		51.9381714,39.3828125 53.132019,46.043335 49.5333252,44.6566162 56.9158325,54.5 47.0093994,47.0701904 47.1238403,50.390686 
		41.355957,46.6912231 39.5529175,53.4264526 35.6607666,47.6953735 32.0965576,53.1573486 28.0857544,47.9325562 
		24.1895752,53.8621216 23.5969238,47.4262695 16.8755493,49.9797974 17.0846558,43.3546143 10.8964844,45.9523926 
		12.2995605,39.3342285 5.4020386,40.1517334 	"/>
	<linearGradient id="SVGID_2_" gradientUnits="userSpaceOnUse" x1="32.6138916" y1="54.4999962" x2="32.6138916" y2="9.3543739">
		<stop  offset="0" style="stop-color:#E75513"/>
		<stop  offset="0.4" style="stop-color:#F8EB00"/>
		<stop  offset="0.8" style="stop-color:#FFFFFF"/>
	</linearGradient>
	<path style="fill:url(#SVGID_2_);" d="M31.9685078,12.6720848l2.0420856,3.3665886l1.0653419,1.7563438l1.3486214-1.5494995
		l2.5879631-2.9734306l0.8545494,3.8700638l0.4612541,2.0888901l1.8066788-1.1454773l3.6581192-2.3193588l0.4507828,4.2804794
		l0.2214661,2.1029663l1.9115982-0.9040642l3.3195-1.5699387l-1.0131226,3.5374603l-0.5556755,1.9402199l2.0180435-0.0273666
		l4.0927048-0.0555153l-2.2688255,3.5202065l-1.0009232,1.5529785l1.7254868,0.6604996l2.9808388,1.1410484l-2.9666138,1.0584946
		l-1.7185669,0.6131897L53.923912,35.18433l1.9652748,3.2978172l-3.7193718-0.5813522l-2.0794449-0.3250198l0.3713341,2.0716782
		l0.723835,4.0383186L50.07267,43.2569427l-4.8721657-1.8774338l3.1328201,4.1771088l1.0825768,1.4434357l-1.5065002-1.1298676
		l-2.5070419-1.8802795l0.107933,3.1319427l0.0159264,0.4621124l-3.3604393-2.1553535l-1.7279434-1.1082878l-0.5308571,1.9829979
		l-0.9551888,3.5680962l-2.0501328-3.0187607l-1.2658081-1.8638802l-1.2312813,1.8868675l-2.4072742,3.6890335l-2.7216911-3.5455017
		l-1.2847881-1.6736755l-1.1586552,1.7633438l-1.5420151,2.3467789l-0.1995411-2.166893l-0.1810226-1.9657516l-1.845377,0.7010765
		l-4.6184311,1.7545891l0.1381416-4.3767014l0.0736771-2.3344421l-2.1535435,0.9040451l-3.5458441,1.488533l0.8087435-3.8147583
		l0.4339561-2.0469322l-2.0778894,0.2462654L8.776494,38.2412834l2.070075-2.6758003l1.1946783-1.5442543l-1.7999449-0.7564354
		l-3.0303907-1.2735367l3.045002-1.1961937l1.9389887-0.7617111l-1.3373108-1.597332l-2.6003304-3.1059265l4.1227303-0.5732651
		l1.8941336-0.2633896l-0.7069998-1.7768631l-1.1269598-2.8323555l2.687026,1.4590187l1.7252674,0.9368019l0.4504776-1.9108238
		l1.0023594-4.2517509l3.2931728,2.674942l1.8330231,1.4889107l0.5685768-2.2920685l0.9954987-4.013073l3.0720139,2.8551636
		l1.5855885,1.4736671l0.8229446-2.0021324L31.9685078,12.6720848 M31.7104473,9.3543739l-2.6217003,6.3782349l-4.9362774-4.5878334
		l-1.6082783,6.4833336l-5.1499672-4.1831589l-1.5512657,6.5800781l-6.3283672-3.4362221l2.6588116,6.682312l-6.8041444,0.9461098
		l4.3382001,5.1817017L3.2277806,31.944397l6.4323778,2.7032433l-4.258122,5.5040894l6.8975224-0.8175011l-1.4030781,6.6181679
		l6.1881771-2.5977783l-0.2091103,6.6251793l6.7213783-2.553524l0.5926552,6.4358444l3.8961773-5.9295654l4.0107994,5.2248001
		l3.5642128-5.4619789l3.8921432,5.7310791l1.8030434-6.7352333l5.7678795,3.6994667l-0.1144333-3.3205032l9.9064331,7.4298134
		l-7.3825111-9.84338l3.59869,1.3867111l-1.1938477-6.6605225l6.8742142,1.0744705l-3.5999222-6.0408325l6.7875443-2.421814
		l-6.7695999-2.5913658l3.783699-5.8706131L52.12537,23.6260948l1.9255333-6.7232666l-6.3152466,2.9867554l-0.7039757-6.6847534
		l-5.6998901,3.6138992l-1.4963989-6.7768555l-4.5423012,5.2188683L31.7104473,9.3543739L31.7104473,9.3543739z"/>
	<path style="fill:#E53828;" d="M59.4160156,57l-11.8710938-8.9033203l0.1113281,3.2294922l-5.9951172-3.8447266
		l-1.9082031,7.1308594l-4.0839844-6.0146484l-3.5390625,5.4238281l-4.012207-5.2265625l-4.2949219,6.5361328l-0.6635742-7.2041016
		l-6.8071289,2.5859375l0.2080078-6.5957031l-6.3505859,2.6660156l1.4560547-6.8710938l-7.3886719,0.8759766l4.5893555-5.9316406
		l-6.9663086-2.9277344L8.878418,29.1875L4.40625,23.8461914l7.0668945-0.9824219l-2.9335938-7.3735352l6.9667969,3.7832031
		l1.5839844-6.7192383l5.1582031,4.1894531l1.6225586-6.5429688L28.9008789,14.875l2.7236328-6.6264648l3.7407227,6.1674805
		L40.109375,8.965332l1.5566406,7.0493164l5.7783203-3.6635742l0.7148438,6.7851563l6.6767578-3.1577148l-2.0449219,7.1381836
		l7.1474609-0.0966797l-3.9541016,6.1367188l7.4570313,2.8544922l-7.4873047,2.6713867l3.8330078,6.4326172l-7.2324219-1.1298828
		l1.2255859,6.84375l-2.8027344-1.0800781L59.4160156,57z M24.0341797,46.7246094l0.5219727,5.6689453l3.4980469-5.3232422
		l4.0092773,5.2226563l3.5898438-5.5l3.6992188,5.4482422l1.6972656-6.3398438l5.5419922,3.5537109l-0.1171875-3.4111328
		L54.4160156,52l-6.3271484-8.4365234l4.3945313,1.6933594l-1.1611328-6.4765625l6.515625,1.0185547l-3.3662109-5.6494141
		l6.0869141-2.1713867l-6.0820313-2.328125l3.6123047-5.6044922l-6.6298828,0.0898438l1.8066406-6.3081055l-5.9541016,2.815918
		l-0.6933594-6.5839844l-5.6201172,3.5639648l-1.4375-6.5043945l-4.3398438,4.9868164l-3.4243164-5.6450195l-2.5195313,6.1293945
		l-4.8432617-4.5014648L22.840332,18.512207l-5.1425781-4.1767578l-1.5185547,6.440918L10.4897461,17.6875l2.3837891,5.9907227
		l-6.5415039,0.9101563l4.2045898,5.0219727l-5.9814453,2.3496094l5.8989258,2.4785156l-3.9272461,5.0761719l6.40625-0.7587891
		l-1.3496094,6.3652344l6.0253906-2.5292969l-0.2099609,6.6542969L24.0341797,46.7246094z"/>
</g>
<g>
</g>
<g>
</g>
<g>
</g>
<g>
</g>
<g>
</g>
<g>
</g>
</svg>
