<?xml version="1.0" encoding="utf-8"?>
<!-- Generator: Adobe Illustrator 17.0.0, SVG Export Plug-In . SVG Version: 6.00 Build 0)  -->
<!DOCTYPE svg PUBLIC "-//W3C//DTD SVG 1.1//EN" "http://www.w3.org/Graphics/SVG/1.1/DTD/svg11.dtd">
<svg version="1.1" id="レイヤー_1" xmlns="http://www.w3.org/2000/svg" xmlns:xlink="http://www.w3.org/1999/xlink" x="0px"
	 y="0px" width="64px" height="64px" viewBox="0 0 64 64" style="enable-background:new 0 0 64 64;" xml:space="preserve">
<g>
	<g>
		
			<radialGradient id="SVGID_1_" cx="32" cy="58.875" r="3.4516754" gradientTransform="matrix(0 1.0888889 -0.88 0 56.5600014 -2.8444445)" gradientUnits="userSpaceOnUse">
			<stop  offset="0" style="stop-color:#E75513"/>
			<stop  offset="1" style="stop-color:#E53828"/>
		</radialGradient>
		<path style="fill:url(#SVGID_1_);" d="M2,32c0,0,0.6111112,4.0833321,3.0555553,4.0833321S7.5,32,7.5,32
			s0-4.083334-2.4444447-4.083334S2,32,2,32z"/>
		
			<radialGradient id="SVGID_2_" cx="32" cy="58.2916679" r="2.3011169" gradientTransform="matrix(0 1.0888889 -0.88 0 56.5600014 -2.8444445)" gradientUnits="userSpaceOnUse">
			<stop  offset="0.1460177" style="stop-color:#F8EB00"/>
			<stop  offset="1" style="stop-color:#F8EB00;stop-opacity:0.3"/>
		</radialGradient>
		<path style="fill:url(#SVGID_2_);" d="M3.4300001,32c0,0,0.4074073,2.7222214,2.0370371,2.7222214S7.0966668,32,7.0966668,32
			s0-2.7222214-1.6296296-2.7222214S3.4300001,32,3.4300001,32z"/>
	</g>
	<g>
		<g>
			<g>
				<linearGradient id="SVGID_3_" gradientUnits="userSpaceOnUse" x1="7" y1="22.4722214" x2="26.8936176" y2="22.4722214">
					<stop  offset="0" style="stop-color:#595757"/>
					<stop  offset="1" style="stop-color:#B2B2B3"/>
				</linearGradient>
				<path style="fill:url(#SVGID_3_);" d="M23.1635647,19.75c1.243351,0,1.243351,0,2.486702,0.6049385l1.243351,0.6049385
					v4.2345676c0,0-14.9202137,0-16.1635647,0s-1.243351,0-2.486702-0.6049385S7,23.9845676,7,23.3796291s0-1.8148136,0-2.4197521
					S7,19.75,8.243351,19.75S23.1635647,19.75,23.1635647,19.75z"/>
				<path style="fill:#B2B2B3;" d="M26.4255314,24.6499996H10.7300568c-1.1493998,0-1.1493998,0-2.3060665-0.5627708
					c-0.4667783-0.2271004-0.8422656-0.4097919-0.9526591-0.5051765c-0.0032458-0.0483398-0.0032458-0.1321678-0.0032458-0.2024269
					v-2.4197502c0-0.5376816,0-0.6654301,0.7752695-0.6654301h14.9202137c1.1493912,0,1.1493912,0,2.3060684,0.5627708
					l0.9558945,0.4650764V24.6499996 M26.8936176,25.1944447v-4.2345695l-1.2433472-0.6049328
					C24.4069157,19.75,24.4069157,19.75,23.1635685,19.75c0,0-13.6768665,0-14.9202137,0C7,19.75,7,20.3549423,7,20.9598751
					c0,0.6049423,0,1.8148174,0,2.4197502c0,0.6049442,0,0.6049442,1.2433548,1.2098751
					c1.2433472,0.6049442,1.2433472,0.6049442,2.486702,0.6049442
					C11.9734039,25.1944447,26.8936176,25.1944447,26.8936176,25.1944447L26.8936176,25.1944447z"/>
			</g>
			<g>
				<path style="fill:#FF2121;" d="M25.7234039,19.75c1.1702137,0,1.1702137,0,2.3404255,0.6049385
					c4.6808529,2.4197521,4.6808529,2.4197521,4.6808529,3.0246906s0,1.209877,0,1.209877
					c0,0.6049385-1.1702137,0.6049385-2.3404274,0.6049385c-1.1702118,0-10.5319138,0-11.7021275,0
					c-1.1702118,0-2.3404255,0-2.3404255-0.6049385s0-0.6049385,1.1702137-1.209877
					c1.1702118-0.6049385,4.680851-2.4197521,5.8510628-3.0246906C24.5531921,19.75,24.5531921,19.75,25.7234039,19.75z"/>
				<path style="fill:#FF7E23;" d="M32.0425529,24.287714c-0.3654747,0.0900536-1.1432896,0.0900631-1.638298,0.0900631H18.7021275
					c-0.3707237,0-0.9000397,0-1.2959938-0.0378265c0.122963-0.065176,0.2633305-0.1377392,0.4109383-0.2140427l2.9255314-1.5123482
					l2.9255409-1.5123348c1.0340481-0.5345573,1.0340481-0.5345573,2.0552597-0.5345573s1.0212116,0,2.0552692,0.5345573
					c2.5369892,1.311491,3.9060612,2.0192318,4.2638798,2.3148155V24.287714 M32.7446823,24.5895004c0,0,0-0.6049309,0-1.2098751
					c0-0.6049328,0-0.6049328-4.6808529-3.024683C26.8936176,19.75,26.8936176,19.75,25.7234039,19.75
					c-1.1702118,0-1.1702118,0-2.3404255,0.6049423c-1.1702118,0.6049328-4.680851,2.4197502-5.8510628,3.024683
					c-1.1702137,0.6049442-1.1702137,0.6049442-1.1702137,1.2098751c0,0.6049442,1.1702137,0.6049442,2.3404255,0.6049442
					c1.1702137,0,10.5319157,0,11.7021275,0C31.5744686,25.1944447,32.7446823,25.1944447,32.7446823,24.5895004
					L32.7446823,24.5895004z"/>
			</g>
		</g>
		<g>
			<g>
				<linearGradient id="SVGID_4_" gradientUnits="userSpaceOnUse" x1="7" y1="41.5277786" x2="26.8936176" y2="41.5277786">
					<stop  offset="0" style="stop-color:#595757"/>
					<stop  offset="1" style="stop-color:#B2B2B3"/>
				</linearGradient>
				<path style="fill:url(#SVGID_4_);" d="M23.1635647,44.25c1.243351,0,1.243351,0,2.486702-0.6049385l1.243351-0.6049385
					v-4.2345657c0,0-14.9202137,0-16.1635647,0s-1.243351,0-2.486702,0.6049347C7,40.0154305,7,40.0154305,7,40.620369
					s0,1.8148155,0,2.419754S7,44.25,8.243351,44.25S23.1635647,44.25,23.1635647,44.25z"/>
				<path style="fill:#B2B2B3;" d="M26.4255314,39.3499985v3.3277092l-0.9558945,0.4650764
					c-1.1566772,0.5627708-1.1566772,0.5627708-2.3060684,0.5627708H8.2433548
					c-0.7752695,0-0.7752695-0.1277466-0.7752695-0.6654282v-2.419754c0-0.0702553,0-0.1540871,0.0032458-0.2024231
					c0.1103935-0.0953865,0.4858809-0.2780762,0.9526591-0.5051804c1.1566668-0.5627708,1.1566668-0.5627708,2.3060665-0.5627708
					H26.4255314 M26.8936176,38.8055573c0,0-14.9202137,0-16.1635609,0c-1.2433548,0-1.2433548,0-2.486702,0.6049423
					C7,40.0154305,7,40.0154305,7,40.6203728c0,0.6049347,0,1.8148079,0,2.419754C7,43.6450577,7,44.25,8.2433548,44.25
					c1.2433472,0,14.9202137,0,14.9202137,0c1.2433472,0,1.2433472,0,2.486702-0.6049423l1.2433472-0.6049309V38.8055573
					L26.8936176,38.8055573z"/>
			</g>
			<g>
				<path style="fill:#FF2121;" d="M25.7234039,44.25c1.1702137,0,1.1702137,0,2.3404255-0.6049385
					c4.6808529-2.419754,4.6808529-2.419754,4.6808529-3.0246925s0-1.209877,0-1.209877
					c0-0.6049347-1.1702137-0.6049347-2.3404274-0.6049347c-1.1702118,0-10.5319138,0-11.7021275,0
					c-1.1702118,0-2.3404255,0-2.3404255,0.6049347c0,0.6049385,0,0.6049385,1.1702137,1.209877
					c1.1702118,0.6049385,4.680851,2.419754,5.8510628,3.0246925C24.5531921,44.25,24.5531921,44.25,25.7234039,44.25z"/>
				<path style="fill:#FF7E23;" d="M32.0425529,39.7122841v0.8716736c-0.3578186,0.2955856-1.7268906,1.0033264-4.2638798,2.3148193
					c-1.0340576,0.5345573-1.0340576,0.5345573-2.0552692,0.5345573s-1.0212116,0-2.0552597-0.5345573l-2.9255409-1.5123367
					l-2.9255314-1.5123482c-0.1476078-0.0763016-0.2879753-0.1488647-0.4109383-0.2140427
					c0.3959541-0.0378265,0.9252701-0.0378265,1.2959938-0.0378265h11.7021275
					C30.8992634,39.6222229,31.6770782,39.6222305,32.0425529,39.7122841 M32.7446823,39.4104996
					c0-0.6049423-1.1702137-0.6049423-2.3404274-0.6049423c-1.1702118,0-10.5319138,0-11.7021275,0
					c-1.1702118,0-2.3404255,0-2.3404255,0.6049423c0,0.6049309,0,0.6049309,1.1702137,1.2098732
					c1.1702118,0.6049347,4.680851,2.419754,5.8510628,3.0246849C24.5531921,44.25,24.5531921,44.25,25.7234039,44.25
					c1.1702137,0,1.1702137,0,2.3404255-0.6049423c4.6808529-2.4197502,4.6808529-2.4197502,4.6808529-3.0246849
					C32.7446823,40.0154305,32.7446823,39.4104996,32.7446823,39.4104996L32.7446823,39.4104996z"/>
			</g>
		</g>
	</g>
	<g>
		<path style="fill:#9C9C9D;" d="M7.1319966,26.5967617C6.5068455,26.5967617,6,29.0157909,6,32h16.7500019
			C13.5444374,26.5555553,7.1319966,26.5967617,7.1319966,26.5967617z"/>
		<path style="fill:#595757;" d="M22.7500019,32H6c0,2.984211,0.5068455,5.4032402,1.1319966,5.4032402
			C7.1319966,37.4032402,13.5444374,37.4444427,22.7500019,32z"/>
		<path style="fill:#3E3A39;" d="M22.7500019,32c-9.6110945-3.2500515-16.4886684-3.225462-16.4886684-3.225462
			c-0.0117769,0-0.0225644,0.0085087-0.0342512,0.0094376C6.0863023,29.6845818,6,30.7899532,6,32
			c0,1.2100449,0.0863023,2.3154182,0.2270827,3.2160225c0.0116868,0.0009308,0.0224743,0.0094376,0.0342512,0.0094376
			C6.2613339,35.2254601,13.1389074,35.2500534,22.7500019,32z"/>
	</g>
	<g>
		<path style="fill:#C6C7C8;" d="M49.4025307,38.3281784c0.5102463-0.5781822,0.89534-3.1916351,0.89534-6.3281784
			s-0.3850937-5.7499943-0.89534-6.3281803c-0.0690193-0.0781994-6.1942444-1.4086609-8.4114876-1.4086609
			c-2.217247,0-20.6259823,0-22.8432274,0c-7.4646893,0-8.9652815,1.3120766-9.012105,1.3550797
			C8.5910349,26.1181622,8.1702127,29.3770409,8.1702127,32s0.4208221,5.8818398,0.965498,6.3817596
			c0.0468235,0.0430069,1.5474157,1.3550835,9.012105,1.3550835c2.2172451,0,19.6259804,0,21.8432274,0
			C42.2082863,39.7368431,49.3335114,38.4063797,49.4025307,38.3281784z"/>
		<ellipse style="fill:#595757;" cx="49.3031921" cy="32" rx="0.8776596" ry="5.9208331"/>
		<path style="fill:#D9DADA;" d="M48.8125191,37.5539703c-0.1757622-0.4349823-0.3240395-1.2425461-0.4266624-2.2740784
			c-0.6152725,0.1791763-6.4368134,0.373642-7.7068481,0.373642c-2.2788277,0-21.0002174,0-23.279047,0
			c-5.8658056,0-8.1430931-0.3614807-8.9142447-0.5411224c0.1044512,0.9735794,0.2512417,1.8549805,0.4256306,2.4660835
			c1.0642767,0.3303108,3.4560699,0.7972603,8.516326,0.7972603c2.2850018,0,21.0710716,0,23.3560143,0
			C42.2981644,38.3757553,48.2370682,37.8975716,48.8125191,37.5539703z"/>
		<path style="fill:#F5F5F5;" d="M40.6790085,28.3464661c1.2700348,0,7.0915756,0.1944637,7.7068481,0.373642
			c0.102623-1.0315342,0.2509003-1.8390961,0.4266624-2.2740803c-0.5754509-0.3435993-6.5143547-0.8217831-8.0288315-0.8217831
			c-2.2849426,0-21.0710125,0-23.3560143,0c-5.060256,0-7.4520493,0.4669514-8.516326,0.7972603
			c-0.1743889,0.611105-0.3211794,1.4925041-0.4256306,2.4660835c0.7711515-0.1796436,3.048439-0.5411224,8.9142447-0.5411224
			C19.678791,28.3464661,38.4001808,28.3464661,40.6790085,28.3464661z"/>
		<path style="fill:#B2B2B3;" d="M40.6790085,35.6535339c1.2700348,0,7.0915756-0.1944656,7.7068481-0.373642
			c-0.0934219-0.9391518-0.149189-2.0629997-0.149189-3.279892s0.0557671-2.3407383,0.149189-3.279892
			c-0.6152725-0.1791782-6.4368134-0.373642-7.7068481-0.373642c-2.2788277,0-21.0002174,0-23.279047,0
			c-5.8658056,0-8.1430931,0.3614788-8.9142447,0.5411224C8.3780661,29.890543,8.3153849,30.991396,8.3153849,32
			c0,1.008606,0.0626812,2.1094551,0.170332,3.1124115c0.7711515,0.1796417,3.048439,0.5411224,8.9142447,0.5411224
			C19.678791,35.6535339,38.4001808,35.6535339,40.6790085,35.6535339z"/>
	</g>
	<g>
		<path style="fill:#FF0014;" d="M49.4375839,26.5967617c-0.3973465,0-0.7194977,2.4190292-0.7194977,5.4032383H62
			C56.1489372,26.5555553,49.4375839,26.5967617,49.4375839,26.5967617z"/>
		<path style="fill:#E30012;" d="M62,32H48.7180862c0,2.984211,0.3221512,5.4032402,0.7194977,5.4032402
			C49.4375839,37.4032402,56.1489372,37.4444427,62,32z"/>
		<path style="fill:#C10D23;" d="M62,32c-6.1088181-3.2500515-13.1158104-3.225462-13.1158104-3.225462
			c-0.0074844,0-0.0143433,0.0085087-0.0217705,0.0094376C48.7729378,29.6845818,48.7180862,30.7899532,48.7180862,32
			c0,1.2100449,0.0548515,2.3154182,0.1443329,3.2160225c0.0074272,0.0009308,0.014286,0.0094376,0.0217705,0.0094376
			C48.8841896,35.2254601,55.8911819,35.2500534,62,32z"/>
	</g>
	<g>
		<path style="fill:#595757;" d="M36.1223412,24.2870369c-0.6314354,0-1.1433105,3.4532108-1.1433105,7.7129631
			s0.5118752,7.7129631,1.1433105,7.7129631h0.5208321c-0.6314316,0-1.1433105-3.4532127-1.1433105-7.7129631
			s0.511879-7.7129631,1.1433105-7.7129631H36.1223412z"/>
		<path style="fill:#595757;" d="M15.7473402,24.2870369c-0.6314335,0-1.1433105,3.4532108-1.1433105,7.7129631
			s0.5118771,7.7129631,1.1433105,7.7129631h0.520833c-0.6314325,0-1.1433105-3.4532127-1.1433105-7.7129631
			s0.511878-7.7129631,1.1433105-7.7129631H15.7473402z"/>
		<path style="fill:#595757;" d="M37.1223412,24.2870369c-0.6314354,0-1.1433105,3.4532108-1.1433105,7.7129631
			s0.5118752,7.7129631,1.1433105,7.7129631h0.5208321c-0.6314316,0-1.1433105-3.4532127-1.1433105-7.7129631
			s0.511879-7.7129631,1.1433105-7.7129631H37.1223412z"/>
	</g>
	<g>
		<g>
			<circle style="fill:#717071;" cx="30.5" cy="32" r="3.1666667"/>
			<circle style="fill:#182985;" cx="30.5" cy="32" r="2.5833333"/>
		</g>
		<g>
			<circle style="fill:#717071;" cx="40.5" cy="32" r="3.1666667"/>
			<circle style="fill:#182985;" cx="40.5" cy="32" r="2.5833333"/>
		</g>
	</g>
</g>
<g>
</g>
<g>
</g>
<g>
</g>
<g>
</g>
<g>
</g>
<g>
</g>
</svg>
