<?xml version="1.0" encoding="utf-8"?>
<!-- Generator: Adobe Illustrator 15.0.2, SVG Export Plug-In . SVG Version: 6.00 Build 0)  -->
<!DOCTYPE svg PUBLIC "-//W3C//DTD SVG 1.1//EN" "http://www.w3.org/Graphics/SVG/1.1/DTD/svg11.dtd">
<svg version="1.1" id="レイヤー_1" xmlns="http://www.w3.org/2000/svg" xmlns:xlink="http://www.w3.org/1999/xlink" x="0px"
	 y="0px" width="64px" height="64px" viewBox="0 0 64 64" style="enable-background:new 0 0 64 64;" xml:space="preserve">
<g>
	<g>
		
			<linearGradient id="SVGID_1_" gradientUnits="userSpaceOnUse" x1="20.3056641" y1="11.8930664" x2="52.2227287" y2="60.3096085" gradientTransform="matrix(-1 0 0 1 64 0)">
			<stop  offset="0" style="stop-color:#FFFFFF"/>
			<stop  offset="1" style="stop-color:#1FB2FF"/>
		</linearGradient>
		<polygon style="fill:url(#SVGID_1_);" points="45.3730469,22.9658203 45.3730469,41.0332031 23.6689453,53.4160156 
			23.6689453,10.5839844 		"/>
		<path style="fill:#003C93;" d="M22.6689453,55.1376953V8.8623047l23.7041016,13.5229492v19.2290039L22.6689453,55.1376953z
			 M24.6689453,12.3056641v39.3886719l19.7041016-11.2421875V23.5463867L24.6689453,12.3056641z"/>
	</g>
	<g>
		
			<linearGradient id="SVGID_2_" gradientUnits="userSpaceOnUse" x1="3.1894531" y1="23.1762695" x2="35.1049728" y2="71.5904617" gradientTransform="matrix(-1 0 0 1 64 0)">
			<stop  offset="0" style="stop-color:#FFFFFF"/>
			<stop  offset="1" style="stop-color:#1FB2FF"/>
		</linearGradient>
		<rect x="48.7929688" y="23.3925781" style="fill:url(#SVGID_2_);" width="12.4013672" height="17.2148438"/>
		<path style="fill:#003C93;" d="M62.1943359,41.6074219H47.7929688V22.3925781h14.4013672V41.6074219z M49.7929688,39.6074219
			h10.4013672V24.3925781H49.7929688V39.6074219z"/>
	</g>
	<path style="fill:#2699F7;" d="M16.0830078,32c0-1.0283203,0.2412109-4.1738281,3.1748047-6.6240234l0.0009766,0.9677734
		c0,0-1.7089844,1.9355469-1.5878906,5.65625c-0.1210938,3.7207031,1.5878906,5.65625,1.5878906,5.65625v0.9677734
		C16.3242188,36.1728516,16.0830078,33.0283203,16.0830078,32z"/>
</g>
</svg>
