<?xml version="1.0" encoding="UTF-8" standalone="no"?>
<!-- Generator: Adobe Illustrator 15.0.2, SVG Export Plug-In . SVG Version: 6.00 Build 0)  -->

<svg
   xmlns:dc="http://purl.org/dc/elements/1.1/"
   xmlns:cc="http://creativecommons.org/ns#"
   xmlns:rdf="http://www.w3.org/1999/02/22-rdf-syntax-ns#"
   xmlns:svg="http://www.w3.org/2000/svg"
   xmlns="http://www.w3.org/2000/svg"
   xmlns:sodipodi="http://sodipodi.sourceforge.net/DTD/sodipodi-0.dtd"
   xmlns:inkscape="http://www.inkscape.org/namespaces/inkscape"
   version="1.1"
   id="レイヤー_1"
   x="0px"
   y="0px"
   width="64px"
   height="64px"
   viewBox="0 0 64 64"
   style="enable-background:new 0 0 64 64;"
   xml:space="preserve"
   inkscape:version="0.48.5 r10040"
   sodipodi:docname="ringing_bell.svg"><metadata
     id="metadata53"><rdf:RDF><cc:Work
         rdf:about=""><dc:format>image/svg+xml</dc:format><dc:type
           rdf:resource="http://purl.org/dc/dcmitype/StillImage" /></cc:Work></rdf:RDF></metadata><defs
     id="defs51" /><sodipodi:namedview
     pagecolor="#ffffff"
     bordercolor="#666666"
     borderopacity="1"
     objecttolerance="10"
     gridtolerance="10"
     guidetolerance="10"
     inkscape:pageopacity="0"
     inkscape:pageshadow="2"
     inkscape:window-width="640"
     inkscape:window-height="480"
     id="namedview49" /><g
     id="g3"><g
       id="g5"><path
         style="fill:#E5AB1A;"
         d="M47.1132813,55.7148438c0.2314453-0.3847656,0.3652344-0.8105469,0.4501953-1.2558594    c0.1123047-0.2949219,0.1542969-0.609375,0.0976563-0.9453125c-0.0068359-0.046875-0.015625-0.0917969-0.0234375-0.1367188    c-0.0224609-0.4609375-0.1064453-0.9453125-0.2529297-1.4511719c-0.5166016-3-0.5292969-4.7246094,2.6806641-14.2109375    c3.4101563-10.0786133,5.1660156-17.2548828-0.9853516-22.2719727l4.2685547-7.1362305l-3.5751953-2.1386719l-4.2685547,7.1362305    c-7.3291016-3.0458984-12.8203125,1.8955078-20.0878906,9.6674805c-6.6479492,7.1083984-8.2749023,8.0683594-11.0136719,9.0014648    c-0.612793,0.1259766-1.1723633,0.3051758-1.6577148,0.5488281c-0.0380859,0.0131836-0.0742188,0.0249023-0.1123047,0.0385742    c-0.3637695,0.1230469-0.6503906,0.3374023-0.8676758,0.625c-0.3447266,0.296875-0.6513672,0.6269531-0.8833008,1.015625    c-2.3691406,3.9609375,1.9155273,11.5566406,13.1118164,18.2539063c0.0654297,0.0390625,0.1298828,0.0703125,0.1948242,0.1113281    l-0.0029297,0.0019531c0.0634766,0.0390625,0.1303711,0.0742188,0.1938477,0.1113281    c0.0634766,0.0390625,0.1254883,0.0800781,0.1879883,0.1191406l0.0058594-0.0097656    c0.0888672,0.0527344,0.1816406,0.0996094,0.2714844,0.1503906    C35.6679688,59.1582031,44.8056641,59.5761719,47.1132813,55.7148438z"
         id="path7" /><path
         style="fill:#231815;"
         d="M40.9765625,59.203125c0,0,0,0-0.0009766,0    c-4.5273438,0-10.2192383-1.8027344-16.0839844-5.0878906l-0.0185547,0.0273438L23.4814453,53.3125    c-12.1831055-7.2871094-15.9912109-15.3886719-13.4575195-19.625c0.2519531-0.4199219,0.5839844-0.8120117,1.0136719-1.1938477    c0.3369141-0.4121094,0.7651367-0.7080078,1.2753906-0.8803711c0.512207-0.2504883,1.1313477-0.4589844,1.8256836-0.6064453    c2.378418-0.8139648,3.8666992-1.5742188,10.5478516-8.7182617c5.7724609-6.1728516,10.6542969-10.8950195,16.5292969-10.8950195    c1.2822266,0,2.5527344,0.222168,3.8613281,0.6772461l4.3515625-7.2744141l5.2910156,3.1655273l-4.3505859,7.2739258    c5.9072266,5.4223633,3.9882813,12.9130859,0.6435547,22.7993164c-3.1699219,9.3671875-3.1230469,10.9140625-2.6513672,13.6679688    c0.1513672,0.5351563,0.2421875,1.0605469,0.2714844,1.5625l0.0175781,0.1035156    c0.0751953,0.4433594,0.0361328,0.90625-0.1201172,1.3574219c-0.1191406,0.5839844-0.3027344,1.0761719-0.5605469,1.5039063    C46.8251953,58.1464844,44.3408203,59.203125,40.9765625,59.203125z M24.8076172,51.7714844l0.5366211,0.3027344    c5.6733398,3.2597656,11.3706055,5.1289063,15.6313477,5.1289063c0.0009766,0,0.0009766,0,0.0009766,0    c2.6328125,0,4.5068359-0.7109375,5.2783203-2c0.1494141-0.2480469,0.2519531-0.5429688,0.3261719-0.9316406l0.0478516-0.1679688    c0.0556641-0.1464844,0.0703125-0.28125,0.0458984-0.4238281l-0.0361328-0.2539063    c-0.0185547-0.3847656-0.0908203-0.7949219-0.2138672-1.2207031l-0.0253906-0.109375    c-0.5634766-3.2734375-0.4755859-5.2617188,2.71875-14.7011719c3.3046875-9.7666016,5.0429688-16.5170898-0.6699219-21.1767578    l-0.6699219-0.5463867l4.1992188-7.0200195l-1.859375-1.1118164l-4.1992188,7.0200195l-0.7978516-0.3320313    c-1.3505859-0.5610352-2.6279297-0.8339844-3.9052734-0.8339844c-5.0703125,0-9.6318359,4.4472656-15.0683594,10.2612305    c-6.7397461,7.206543-8.4853516,8.2646484-11.421875,9.2651367l-0.1210938,0.0327148    c-0.5483398,0.112793-1.0229492,0.2680664-1.4101563,0.4633789l-0.2407227,0.0917969    c-0.1635742,0.0546875-0.2875977,0.1445313-0.390625,0.28125l-0.1435547,0.1523438    c-0.3022461,0.2617188-0.5244141,0.5136719-0.6787109,0.7734375c-1.9746094,3.3007813,1.8291016,10.3398438,12.7666016,16.8808594    L24.8076172,51.7714844z"
         id="path9" /></g><g
       id="g11"><rect
         x="46.0126801"
         y="6.2799392"
         transform="matrix(0.8581747 0.5133577 -0.5133577 0.8581747 13.510376 -22.8422775)"
         style="fill:#FFC82C;"
         width="4.1660457"
         height="13.5006685"
         id="rect13" /><path
         style="fill:#231815;"
         d="M46.5283203,20.3325195l-4.1259766-2.4677734l7.2607422-12.1367188l4.1259766,2.4677734    L46.5283203,20.3325195z M43.2832031,17.6430664l3.0244141,1.8095703l6.6005859-11.0351563l-3.0244141-1.8095703    L43.2832031,17.6430664z"
         id="path15" /></g><g
       id="g17"><path
         style="fill:#FFC82C;"
         d="M47.6611328,53.5136719c-0.7080078-4.2363281-1.3232422-4.7832031,2.4042969-15.7988281    c3.6669922-10.8354492,5.4326172-18.3193359-2.4960938-23.3696289l0.0126953-0.0214844    c-0.0673828-0.0400391-0.1308594-0.0639648-0.1982422-0.1030273c-0.0654297-0.0405273-0.1162109-0.0849609-0.1845703-0.1254883    l-0.0126953,0.0209961c-8.1992188-4.597168-13.9570313,0.5-21.7695313,8.8554688    c-7.9423828,8.4931641-8.7172852,8.2089844-12.7836914,9.5888672c-4.0180664,1.3613281,1.090332,13.4960938,11.5571289,20    l-0.0043945,0.0078125c0.0634766,0.0390625,0.1303711,0.0742188,0.1938477,0.1113281    c0.0634766,0.0390625,0.1254883,0.0800781,0.1879883,0.1191406l0.0058594-0.0097656    C35.2548828,58.9355469,48.3632813,57.6972656,47.6611328,53.5136719z"
         id="path19" /><path
         style="fill:#231815;"
         d="M40.046875,57.3496094C40.046875,57.3496094,40.0478516,57.3496094,40.046875,57.3496094    c-5.1113281,0-10.6962891-1.5039063-15.3720703-4.1328125l-0.0048828,0.0078125l-0.9145508-0.5449219l0.0058594-0.0097656    c-8.6010742-5.4609375-13.2436523-14.2539063-12.7871094-18.2167969c0.1308594-1.1367188,0.6689453-1.8959961,1.5561523-2.1962891    c0.3413086-0.1157227,0.6591797-0.2197266,0.9604492-0.3183594c3.2529297-1.0649414,4.4697266-1.4628906,11.6918945-9.1860352    C30.8461914,16.6958008,35.6230469,12.0625,41.21875,12.0625c1.9072266,0,3.8251953,0.5317383,5.8525391,1.6245117    l0.0048828-0.0087891l0.2861328,0.1411133c0.0458984,0.0268555,0.0849609,0.0546875,0.1240234,0.0830078l0.1328125,0.0791016    c0.0419922,0.0205078,0.0839844,0.0410156,0.1269531,0.0664063l0.2744141,0.1635742l-0.0185547,0.0322266    c7.8623047,5.1928711,6.0390625,12.7250977,2.3671875,23.574707c-3.390625,10.0175781-3.1650391,11.2792969-2.5644531,14.6484375    c0.0546875,0.3105469,0.1132813,0.6386719,0.1728516,0.9941406c0.109375,0.6484375-0.0712891,1.2734375-0.5214844,1.8046875    C46.3359375,56.5898438,43.6357422,57.3496094,40.046875,57.3496094z M24.6201172,52.4511719l0.1137695,0.0605469    c4.6337891,2.6660156,10.2143555,4.1953125,15.3129883,4.1953125c3.3496094,0,5.9365234-0.6933594,6.9189453-1.8554688    c0.3339844-0.3945313,0.4580078-0.8144531,0.3789063-1.2851563c-0.0585938-0.3515625-0.1171875-0.6777344-0.171875-0.9882813    c-0.6220703-3.4863281-0.8544922-4.7910156,2.5888672-14.9648438c3.6142578-10.6801758,5.4013672-18.050293-2.3642578-22.9975586    l-0.2617188-0.1665039l0.0019531-0.003418l-0.1083984-0.0498047c-2.0302734-1.1386719-3.9306641-1.6918945-5.8105469-1.6918945    c-5.3378906,0-10.0117188,4.5449219-15.5673828,10.4868164c-7.3344727,7.8432617-8.5942383,8.2553711-11.9609375,9.3569336    c-0.2993164,0.0981445-0.6152344,0.2016602-0.9541016,0.3164063c-0.6445313,0.2177734-1.0229492,0.7783203-1.125,1.6630859    c-0.4311523,3.7441406,4.3203125,12.5234375,12.7485352,17.7617188l0.2607422,0.1621094H24.6201172z"
         id="path21" /></g><g
       id="g23"><path
         style="fill:#E5AB1A;"
         d="M47.1132813,55.7148438c-2.3701172,3.9628906-11.9238281,3.4375-23.1191406-3.2597656    c-11.1962891-6.6972656-15.480957-14.2929688-13.1118164-18.2539063    c2.3691406-3.9604492,10.7919922-3.2832031,21.9892578,3.4140625C44.0664063,44.3125,49.4833984,51.7558594,47.1132813,55.7148438    z"
         id="path25" /><path
         style="fill:#231815;"
         d="M40.9580078,58.53125c-4.7236328,0-10.9667969-2.1152344-17.128418-5.8007813    C12.0297852,45.671875,8.2460938,37.9824219,10.6069336,34.0351563c1.0151367-1.6958008,3.0449219-2.5927734,5.8701172-2.5927734    c4.3198242,0,10.2006836,2.0947266,16.559082,5.8974609c5.4326172,3.25,9.6845703,6.7617188,12.296875,10.15625    c2.5664063,3.3339844,3.2958984,6.3125,2.0556641,8.3847656C46.3662109,57.5898438,44.0820313,58.53125,40.9580078,58.53125z     M16.4770508,32.0839844c-2.5869141,0-4.4262695,0.7885742-5.3193359,2.28125    c-2.1435547,3.5839844,1.6845703,11.0449219,13.0009766,17.8144531    c6.0649414,3.6289063,12.1879883,5.7089844,16.7993164,5.7089844c2.8896484,0,4.9775391-0.8300781,5.8798828-2.3378906    c1.0957031-1.8300781,0.3808594-4.5527344-2.0126953-7.6621094c-2.5634766-3.3320313-6.7548828-6.7890625-12.1181641-9.9980469    C26.4462891,34.1464844,20.6826172,32.0839844,16.4770508,32.0839844z"
         id="path27" /></g><path
       style="fill:#7A5700;"
       d="M49.1162109,17.8164063c1.3496094,1.4794922,1.3496094,1.4794922,1.5224609,4.6005859   c0,0-1.4121094,6.6044922-2.8291016,9.1035156c-3.6240234,6.3798828-3.7441406,13.5693359-3.7441406,13.5693359   s-2.4423828-2.9179688-4.8652344-4.8515625C39.2001953,40.2382813,46.1835938,31.6884766,49.1162109,17.8164063z"
       id="path29" /><path
       style="fill:#FFF0CC;"
       d="M31.3930664,32.7558594c-2.8950195-2.3115234-3.0581055-4.7050781-2.2133789-6.7485352   c1.0649414-1.5039063,2.5688477-3.4223633,5.7919922-5.8032227c2.7666016-2.0424805,7.4238281-6.4082031,7.4238281-6.4082031   c-4.7929688-0.3212891-10.2553711,4.1577148-13.9370117,8.3647461c-2.9423828,3.3618164-6.1538086,6.5541992-7.3256836,7.7021484   c-0.7202148,0.3041992-1.3642578,0.7958984-1.894043,1.5419922c0,0,4.3974609-2.8066406,19.4165039,7.1479492   C38.6552734,38.5527344,35.3681641,35.3554688,31.3930664,32.7558594z"
       id="path31" /><path
       style="fill:#C18500;"
       d="M39.2216797,47.9941406c-1.0673828,4.4746094-7.8032227,2.2714844-10.5004883,1.3574219   c-4.4472656-1.5058594-8.480957-4.640625-10.5683594-4.4433594c-2.8085938,0.2636719,20.3842773,16.2460938,26.8803711,8.6582031   C47.7988281,51.8457031,39.8261719,45.4628906,39.2216797,47.9941406z"
       id="path33" /><polygon
       style="fill:#FFF0CC;"
       points="49.4560547,7.5078125 46.6660156,12.1748047 48.0957031,13.0297852  "
       id="polygon35" /><g
       id="g37"><g
         id="g39"><path
           style="fill:#FFC82C;"
           d="M46.0986328,49.4375c-2.9746094,3.390625-9.0966797,4.8242188-12.4873047,1.8476563     c-3.3891602-2.9746094-2.7631836-9.2324219,0.2109375-12.6210938C38.7207031,40.9140625,42.5849609,44.21875,46.0986328,49.4375z     "
           id="path41" /><path
           style="fill:#231815;"
           d="M38.2958984,53.2226563c-1.9384766,0-3.6308594-0.5859375-4.8964844-1.6953125     c-3.5913086-3.1542969-2.8515625-9.6191406,0.1816406-13.0761719l0.1582031-0.1796875l0.2167969,0.1015625     c5.0859375,2.3359375,8.9130859,5.6933594,12.4082031,10.8867188l0.1386719,0.203125l-0.1630859,0.1875     C44.4355469,51.8203125,41.2773438,53.2226563,38.2958984,53.2226563z M33.9082031,39.0566406     c-2.7075195,3.2734375-3.3442383,9.1269531-0.0849609,11.9882813c1.1455078,1.0058594,2.6923828,1.5371094,4.4726563,1.5371094     c2.7207031,0,5.59375-1.2382813,7.3964844-3.171875C42.3544922,44.5136719,38.7041016,41.3066406,33.9082031,39.0566406z"
           id="path43" /></g><path
         style="fill:#7A5700;"
         d="M35.390625,49.28125c-1.5419922-0.1035156,4.1083984,5,8.7939453-0.1894531l-1.6289063-1.4296875    C42.5556641,47.6621094,37.0878906,49.3945313,35.390625,49.28125z"
         id="path45" /><path
         style="fill:#FFF0CC;"
         d="M34.5400391,40.625l1.6279297,1.4257813c0,0-2.5595703,4.2167969-2.6552734,6.1875    C33.5126953,48.2382813,31.7260742,46.3574219,34.5400391,40.625z"
         id="path47" /></g></g></svg>