<?xml version="1.0" encoding="utf-8"?>
<!-- Generator: Adobe Illustrator 15.0.2, SVG Export Plug-In . SVG Version: 6.00 Build 0)  -->
<!DOCTYPE svg PUBLIC "-//W3C//DTD SVG 1.1//EN" "http://www.w3.org/Graphics/SVG/1.1/DTD/svg11.dtd">
<svg version="1.1" id="レイヤー_1" xmlns="http://www.w3.org/2000/svg" xmlns:xlink="http://www.w3.org/1999/xlink" x="0px"
	 y="0px" width="64px" height="64px" viewBox="0 0 64 64" enable-background="new 0 0 64 64" xml:space="preserve">
<g>
	
		<rect x="55.056" y="15.75" fill-rule="evenodd" clip-rule="evenodd" fill="#FFB448" stroke="#070200" stroke-miterlimit="10" width="5.359" height="52.334"/>
	<polygon fill-rule="evenodd" clip-rule="evenodd" fill="#FFB448" stroke="#070200" stroke-miterlimit="10" points="44.332,68.5 
		39.332,68.5 39.332,25.58 44.332,19.58 	"/>
	
		<polygon fill-rule="evenodd" clip-rule="evenodd" fill="#FFB448" stroke="#070200" stroke-width="0.9231" stroke-miterlimit="10" points="
		24.391,71.584 29.18,71.584 29.18,37.75 24.391,43.75 	"/>
	<polygon fill-rule="evenodd" clip-rule="evenodd" fill="#0C0300" stroke="#000000" stroke-miterlimit="10" points="7.582,64.75 
		45.044,14.083 71.915,14.083 71.915,17.75 45.923,17.75 11.293,65.75 	"/>
	<g>
		<polygon fill-rule="evenodd" clip-rule="evenodd" fill="#231815" points="57.257,5.833 55.673,2.417 53.681,2.417 51.173,9.75 
			56.431,9.75 		"/>
		<circle fill-rule="evenodd" clip-rule="evenodd" fill="#231815" cx="47.298" cy="12.167" r="1.375"/>
		<circle fill-rule="evenodd" clip-rule="evenodd" fill="#231815" cx="55.056" cy="12.167" r="1.375"/>
		
			<polygon fill-rule="evenodd" clip-rule="evenodd" fill="#E30012" stroke="#231815" stroke-width="0.8891" stroke-miterlimit="10" points="
			57.923,12.167 43.673,12.167 43.673,9.583 44.673,5.167 48.673,5.167 50.923,8 55.056,8 56.09,5.167 57.923,5.167 		"/>
	</g>
	<g>
		<polygon fill-rule="evenodd" clip-rule="evenodd" fill="#231815" points="38,9.596 34.298,8.906 33.144,10.53 37.665,16.824 
			40.713,12.539 		"/>
		<circle fill-rule="evenodd" clip-rule="evenodd" fill="#231815" cx="37.389" cy="21.382" r="1.375"/>
		<circle fill-rule="evenodd" clip-rule="evenodd" fill="#231815" cx="41.885" cy="15.061" r="1.375"/>
		
			<polygon fill-rule="evenodd" clip-rule="evenodd" fill="#E30012" stroke="#231815" stroke-width="0.8891" stroke-miterlimit="10" points="
			43.547,12.724 35.287,24.336 33.183,22.839 30.163,19.464 32.481,16.205 36.094,16.013 38.489,12.646 36.78,10.161 37.843,8.667 
					"/>
	</g>
	<g>
		<polygon fill-rule="evenodd" clip-rule="evenodd" fill="#231815" points="28.417,22.311 24.714,21.622 23.56,23.245 
			28.082,29.539 31.129,25.254 		"/>
		<circle fill-rule="evenodd" clip-rule="evenodd" fill="#231815" cx="27.805" cy="34.098" r="1.375"/>
		<circle fill-rule="evenodd" clip-rule="evenodd" fill="#231815" cx="32.301" cy="27.776" r="1.375"/>
		
			<polygon fill-rule="evenodd" clip-rule="evenodd" fill="#E30012" stroke="#231815" stroke-width="0.8891" stroke-miterlimit="10" points="
			33.963,25.439 25.704,37.052 23.599,35.555 20.58,32.179 22.898,28.92 26.51,28.729 28.906,25.361 27.197,22.876 28.259,21.382 		
			"/>
	</g>
	<g>
		<polygon fill-rule="evenodd" clip-rule="evenodd" fill="#231815" points="19.13,34.959 15.428,34.27 14.274,35.894 18.795,42.188 
			21.843,37.902 		"/>
		<circle fill-rule="evenodd" clip-rule="evenodd" fill="#231815" cx="18.519" cy="46.746" r="1.375"/>
		<circle fill-rule="evenodd" clip-rule="evenodd" fill="#231815" cx="23.015" cy="40.424" r="1.375"/>
		
			<polygon fill-rule="evenodd" clip-rule="evenodd" fill="#E30012" stroke="#231815" stroke-width="0.8891" stroke-miterlimit="10" points="
			24.677,38.088 16.417,49.7 14.313,48.203 11.293,44.828 13.612,41.568 17.224,41.377 19.62,38.01 17.911,35.524 18.973,34.031 		
			"/>
	</g>
	<g>
		<polygon fill-rule="evenodd" clip-rule="evenodd" fill="#231815" points="9.417,48.191 5.714,47.502 4.56,49.126 9.082,55.42 
			12.129,51.135 		"/>
		<circle fill-rule="evenodd" clip-rule="evenodd" fill="#231815" cx="8.805" cy="59.979" r="1.375"/>
		<circle fill-rule="evenodd" clip-rule="evenodd" fill="#231815" cx="13.301" cy="53.657" r="1.375"/>
		
			<polygon fill-rule="evenodd" clip-rule="evenodd" fill="#E30012" stroke="#231815" stroke-width="0.8891" stroke-miterlimit="10" points="
			14.963,51.32 6.704,62.933 4.599,61.436 1.58,58.061 3.898,54.801 7.51,54.609 9.906,51.242 8.197,48.757 9.259,47.264 		"/>
	</g>
</g>
</svg>
