<?xml version="1.0" encoding="UTF-8" standalone="no"?>
<!-- Generator: Adobe Illustrator 18.0.0, SVG Export Plug-In . SVG Version: 6.00 Build 0)  -->

<svg
   xmlns:dc="http://purl.org/dc/elements/1.1/"
   xmlns:cc="http://creativecommons.org/ns#"
   xmlns:rdf="http://www.w3.org/1999/02/22-rdf-syntax-ns#"
   xmlns:svg="http://www.w3.org/2000/svg"
   xmlns="http://www.w3.org/2000/svg"
   xmlns:sodipodi="http://sodipodi.sourceforge.net/DTD/sodipodi-0.dtd"
   xmlns:inkscape="http://www.inkscape.org/namespaces/inkscape"
   version="1.1"
   id="レイヤー_1"
   x="0px"
   y="0px"
   width="64px"
   height="64px"
   viewBox="0 0 64 64"
   style="enable-background:new 0 0 64 64;"
   xml:space="preserve"
   inkscape:version="0.48.5 r10040"
   sodipodi:docname="rose.svg"><metadata
     id="metadata260"><rdf:RDF><cc:Work
         rdf:about=""><dc:format>image/svg+xml</dc:format><dc:type
           rdf:resource="http://purl.org/dc/dcmitype/StillImage" /></cc:Work></rdf:RDF></metadata><defs
     id="defs258" /><sodipodi:namedview
     pagecolor="#ffffff"
     bordercolor="#666666"
     borderopacity="1"
     objecttolerance="10"
     gridtolerance="10"
     guidetolerance="10"
     inkscape:pageopacity="0"
     inkscape:pageshadow="2"
     inkscape:window-width="640"
     inkscape:window-height="480"
     id="namedview256" /><g
     id="g3"><linearGradient
       id="SVGID_1_"
       gradientUnits="userSpaceOnUse"
       x1="29.7385006"
       y1="38"
       x2="29.7385006"
       y2="62.8333015"><stop
         offset="0"
         style="stop-color:#344A24"
         id="stop6" /><stop
         offset="0.423645"
         style="stop-color:#517338"
         id="stop8" /><stop
         offset="1"
         style="stop-color:#425E2E"
         id="stop10" /></linearGradient><path
       style="fill:url(#SVGID_1_);"
       d="M32.1022987,40.7949982c0,0-1.1426983-1.2165985-1.0965996-1.6834984   C31.0433006,38.7310982,31.0827007,38.3624001,31.1228008,38c-0.7951012,0-1.5586014,0-2.3395004,0   c0.1385994,0.2761993,0.2392998,0.5367012,0.2227993,0.7019997c-0.1173992,1.1850014-0.2206993,2.4529991-0.2980995,3.7840004   c-0.0307007,0.5276985-1.2702999,1.6081009-1.2702999,1.6081009s1.1569004,0.9608002,1.1457005,1.4484978   c-0.0237007,1.0321999-0.0289001,2.0901031-0.0110016,3.1655998c0.0080013,0.4844017-1.1976986,1.4207001-1.1976986,1.4207001   s1.2559986,1.0326004,1.2733994,1.5278015c0.0401993,1.1500015,0.0907001,2.2221985,0.1478996,3.216301   c0.0358009,0.6208-1.1690998,1.9343987-1.1690998,1.9343987s1.3663006,0.9402008,1.4096012,1.4449005   c0.3320999,3.8714981,0.2691994,4.4468994,0.2950993,4.5810013h2.1872005   c-0.0073013-0.0401001-0.3826008-2.356102-0.7213001-8.3675003c-0.0275002-0.4866028,1.1156998-1.4402008,1.1156998-1.4402008   s-1.2311001-0.9765015-1.2478008-1.446701c-0.0328999-0.924099-0.0588989-1.8997002-0.0758991-2.9259987   c-0.0088005-0.5312996,1.3237-1.5816002,1.3237-1.5816002s-1.3240013-0.9163017-1.3139-1.368   c0.0261993-1.1599007,0.0771999-2.2896996,0.1457005-3.3759003C30.7831993,41.7204018,32.1022987,40.7949982,32.1022987,40.7949982   z"
       id="path12" /><path
       style="fill:#344A24;"
       d="M31.519043,62.9833984h-2.3110352l-0.0239258-0.1220703   c-0.0068359-0.0351563-0.0092773-0.0966797-0.012207-0.2275391c-0.0083008-0.3837891-0.0307617-1.4052734-0.284668-4.3691406   c-0.0258789-0.2988281-0.8022461-0.9599609-1.3452148-1.3330078l-0.1420898-0.0986328l0.1166992-0.1269531   c0.3232422-0.3525391,1.15625-1.3671875,1.1293945-1.8242188c-0.059082-1.0341797-0.1088867-2.1181641-0.1479492-3.2207031   c-0.0102539-0.2939453-0.71875-1.0058594-1.21875-1.4160156l-0.1450195-0.1191406l0.1484375-0.1152344   c0.4760742-0.3701172,1.1445313-1.0185547,1.1396484-1.2998047c-0.0170898-1.0458984-0.0131836-2.1123047,0.0112305-3.171875   c0.0063477-0.2861328-0.6347656-0.9501953-1.0917969-1.3300781l-0.1357422-0.1123047l0.1328125-0.1162109   c0.4609375-0.4013672,1.199707-1.1650391,1.2192383-1.5029297c0.0722656-1.2412109,0.1723633-2.5166016,0.2983398-3.7900391   c0.0078125-0.0791016-0.0214844-0.25-0.2075195-0.6201172l-0.1088867-0.2177734h2.75l-0.0185547,0.1669922   c-0.0400391,0.3613281-0.0786133,0.7304688-0.1162109,1.109375c-0.0273438,0.2753906,0.6015625,1.0810547,1.0566406,1.5664063   l0.1181641,0.1259766l-0.1411133,0.0996094c-0.4873047,0.3417969-1.2695313,1.0292969-1.2939453,1.4189453   c-0.0717773,1.1289063-0.1206055,2.2626953-0.1459961,3.3691406c-0.0048828,0.2294922,0.6445313,0.8232422,1.2495117,1.2421875   l0.1665039,0.1152344l-0.1591797,0.1259766c-0.5288086,0.4169922-1.2714844,1.1464844-1.2666016,1.4609375   c0.0166016,0.9960938,0.0424805,1.9794922,0.0761719,2.9228516c0.0097656,0.2763672,0.7021484,0.9472656,1.190918,1.3349609   l0.1445313,0.1142578l-0.1416016,0.1181641c-0.4506836,0.3759766-1.078125,1.0332031-1.0620117,1.3164063   c0.3383789,6.0019531,0.7158203,8.328125,0.7192383,8.3496094l0.03125,0.1757813L31.519043,62.9833984z M29.4726563,62.6826172   h1.8720703c-0.0922852-0.6455078-0.409668-3.1064453-0.6972656-8.2080078   c-0.0253906-0.4550781,0.6928711-1.1464844,1.0322266-1.4462891c-0.3613281-0.3007813-1.1484375-1.0048828-1.1640625-1.4443359   c-0.0341797-0.9443359-0.0595703-1.9296875-0.0761719-2.9277344c-0.0083008-0.4921875,0.8349609-1.2519531,1.2260742-1.5771484   c-0.394043-0.2890625-1.2255859-0.9492188-1.2163086-1.3789063c0.0253906-1.1113281,0.0742188-2.2490234,0.1459961-3.3828125   c0.0351563-0.5556641,0.921875-1.2744141,1.2832031-1.5449219c-0.3256836-0.3603516-1.065918-1.234375-1.0219727-1.6757813   c0.0322266-0.3222656,0.0649414-0.6376953,0.0986328-0.9462891h-1.9355469   c0.105957,0.2451172,0.1494141,0.4287109,0.1357422,0.5664063c-0.1259766,1.2695313-0.2255859,2.5410156-0.2973633,3.7783203   c-0.0283203,0.4833984-0.8549805,1.2871094-1.1923828,1.5957031c0.3393555,0.2978516,1.0786133,0.9990234,1.0678711,1.4560547   c-0.0244141,1.0546875-0.0283203,2.1171875-0.0112305,3.1582031c0.0078125,0.453125-0.7539063,1.1328125-1.1113281,1.4267578   c0.3666992,0.3164063,1.1713867,1.0595703,1.1870117,1.5195313c0.0385742,1.0996094,0.0883789,2.1806641,0.1479492,3.2128906   c0.0327148,0.5673828-0.7773438,1.5546875-1.0947266,1.9179688c0.3925781,0.2832031,1.2939453,0.9824219,1.3349609,1.4570313   c0.2548828,2.9726563,0.2773438,4.0009766,0.2856445,4.3886719C29.472168,62.6484375,29.4726563,62.6669922,29.4726563,62.6826172z   "
       id="path14" /></g><g
     id="g16"><linearGradient
       id="SVGID_2_"
       gradientUnits="userSpaceOnUse"
       x1="23.1162071"
       y1="18.6059265"
       x2="17.6773701"
       y2="9.1855822"
       gradientTransform="matrix(0.9926 0.1217 -0.1217 0.9926 3.9821999 -4.0331001)"><stop
         offset="0"
         style="stop-color:#9E1627"
         id="stop19" /><stop
         offset="1"
         style="stop-color:#F5223C"
         id="stop21" /></linearGradient><path
       style="fill:url(#SVGID_2_);"
       d="M20.7945595,7.0728998c0,0,3.783041-0.32407,4.7168407,4.9128284   s-3.4356003,6.3263617-3.4356003,6.3263617S17.5374794,11.9435472,20.7945595,7.0728998z"
       id="path23" /><linearGradient
       id="SVGID_3_"
       gradientUnits="userSpaceOnUse"
       x1="51.0270691"
       y1="15.0123816"
       x2="21.0130672"
       y2="9.7201042"
       gradientTransform="matrix(0.9926 0.1217 -0.1217 0.9926 3.9821999 -4.0331001)"><stop
         offset="0"
         style="stop-color:#F5223C"
         id="stop26" /><stop
         offset="0.477833"
         style="stop-color:#9E1627"
         id="stop28" /><stop
         offset="1"
         style="stop-color:#F5223C"
         id="stop30" /></linearGradient><path
       style="fill:url(#SVGID_3_);"
       d="M25.4316998,16.8520603c-0.0876999-1.0611506-3.0543995-8.5596199-1.2469006-9.5111103   c1.9350014-1.01864,3.7213001-1.4275298,5.5925007-2.5278802c1.8710995-1.1003499,8.4294987-1.3418097,14.6350002,2.0535703   c9.4850998,5.1898232,9.3124008,7.2003498,9.3124008,7.2003498l-5.3605003,8.4668102   C48.3642006,22.5338001,25.4379005,16.9269409,25.4316998,16.8520603z"
       id="path32" /><linearGradient
       id="SVGID_4_"
       gradientUnits="userSpaceOnUse"
       x1="26.2865219"
       y1="17.4663315"
       x2="22.2046318"
       y2="10.3962927"
       gradientTransform="matrix(0.9926 0.1217 -0.1217 0.9926 3.9821999 -4.0331001)"><stop
         offset="0"
         style="stop-color:#9E1627"
         id="stop35" /><stop
         offset="1"
         style="stop-color:#F5223C"
         id="stop37" /></linearGradient><path
       style="fill:url(#SVGID_4_);"
       d="M26.9396992,8.17138c0,0,0.4535999-0.4861603,1.5298004,3.3891039   c0.493,1.7752361,0.6620998,4.4401455,0.6620998,4.4401455l-6.1970997-4.5895395   C22.9344997,11.4110899,23.7064991,8.9322796,26.9396992,8.17138z"
       id="path39" /><linearGradient
       id="SVGID_5_"
       gradientUnits="userSpaceOnUse"
       x1="41.7752266"
       y1="14.2350731"
       x2="48.2317581"
       y2="15.3735342"
       gradientTransform="matrix(0.9926 0.1217 -0.1217 0.9926 3.9821999 -4.0331001)"><stop
         offset="0.492611"
         style="stop-color:#9E1627"
         id="stop42" /><stop
         offset="1"
         style="stop-color:#F5223C"
         id="stop44" /></linearGradient><path
       style="fill:url(#SVGID_5_);"
       d="M48.7711983,11.6863117c0,0-5.2616997,0.7337627-5.2763977,4.8692474   c-0.0060997,1.7195816-0.1403008,3.5536709-0.1403008,3.5536709s5.4099998,0.9971695,5.8384018-0.41675   C50.2377014,16.2435894,50.5125008,14.7565899,48.7711983,11.6863117z"
       id="path46" /><linearGradient
       id="SVGID_6_"
       gradientUnits="userSpaceOnUse"
       x1="31.3414574"
       y1="13.8772154"
       x2="27.9082584"
       y2="7.9307413"
       gradientTransform="matrix(0.9926 0.1217 -0.1217 0.9926 3.9821999 -4.0331001)"><stop
         offset="0"
         style="stop-color:#9E1627"
         id="stop49" /><stop
         offset="1"
         style="stop-color:#F5223C"
         id="stop51" /></linearGradient><path
       style="fill:url(#SVGID_6_);"
       d="M32.7330017,6.6162601c0,0,0.886097-0.2976599,0.8448982,1.5442901   c-0.0411987,1.84196-0.0648994,5.3483601-0.0648994,5.3483601L28.9608002,9.66292   C28.9608002,9.66292,29.5095005,6.9966402,32.7330017,6.6162601z"
       id="path53" /><linearGradient
       id="SVGID_7_"
       gradientUnits="userSpaceOnUse"
       x1="37.735363"
       y1="10.3369303"
       x2="44.1033516"
       y2="11.4597788"
       gradientTransform="matrix(0.9926 0.1217 -0.1217 0.9926 3.9821999 -4.0331001)"><stop
         offset="0.492611"
         style="stop-color:#9E1627"
         id="stop56" /><stop
         offset="1"
         style="stop-color:#F5223C"
         id="stop58" /></linearGradient><path
       style="fill:url(#SVGID_7_);"
       d="M42.037899,7.9545202c0,0-1.6772995,1.02561-1.7157974,2.7447701   c-0.0385017,1.7191544-0.1403008,3.5536699-0.1403008,3.5536699s5.4099998,0.99716,5.838398-0.41675   C47.0649986,10.3873196,44.2328987,8.9317598,42.037899,7.9545202z"
       id="path60" /><linearGradient
       id="SVGID_8_"
       gradientUnits="userSpaceOnUse"
       x1="29.650362"
       y1="10.796443"
       x2="40.2446327"
       y2="10.796443"
       gradientTransform="matrix(0.9926 0.1217 -0.1217 0.9926 3.9821999 -4.0331001)"><stop
         offset="0"
         style="stop-color:#F5223C"
         id="stop63" /><stop
         offset="0.2"
         style="stop-color:#9E1627"
         id="stop65" /><stop
         offset="0.8"
         style="stop-color:#9E1627"
         id="stop67" /><stop
         offset="1"
         style="stop-color:#F5223C"
         id="stop69" /></linearGradient><path
       style="fill:url(#SVGID_8_);"
       d="M41.2216988,13.6047697l1.5076027-2.95502c0,0-1.6099014-1.93363-3.5483017-2.3930197   c-1.9384003-0.4593902-5.7953987-0.63692-6.1809006-0.20399c-0.385601,0.43293-1.0756989,0.9393396-0.6012001,1.5885696   c0.4745026,0.6492405,0.6887016,2.8180456,0.6887016,2.8180456S33.7200012,14.5316896,41.2216988,13.6047697z"
       id="path71" /><linearGradient
       id="SVGID_9_"
       gradientUnits="userSpaceOnUse"
       x1="37.2739258"
       y1="22.9856911"
       x2="54.1066628"
       y2="22.9856911"
       gradientTransform="matrix(0.9926 0.1217 -0.1217 0.9926 3.9821999 -4.0331001)"><stop
         offset="0"
         style="stop-color:#F5223C"
         id="stop74" /><stop
         offset="0.477833"
         style="stop-color:#9E1627"
         id="stop76" /><stop
         offset="1"
         style="stop-color:#F5223C"
         id="stop78" /></linearGradient><path
       style="fill:url(#SVGID_9_);"
       d="M54.5270996,14.9534702c0,0-2.3367996-1.6287699-4.0544014,0.9310694   c-1.7176971,2.5598402-13.1848984,14.7350607-13.1848984,14.7350607s3.1677017,6.2989979,6.1790009,2.6294994   c3.0112-3.6695004,4.4321976-8.0264988,9.1737976-8.1345005C57.3821983,25.0065994,54.5270996,14.9534702,54.5270996,14.9534702z"
       id="path80" /><linearGradient
       id="SVGID_10_"
       gradientUnits="userSpaceOnUse"
       x1="29.6486416"
       y1="13.0627813"
       x2="40.5379257"
       y2="13.0627813"
       gradientTransform="matrix(0.9926 0.1217 -0.1217 0.9926 3.9821999 -4.0331001)"><stop
         offset="0"
         style="stop-color:#F5223C"
         id="stop83" /><stop
         offset="0.2"
         style="stop-color:#9E1627"
         id="stop85" /><stop
         offset="0.8"
         style="stop-color:#9E1627"
         id="stop87" /><stop
         offset="1"
         style="stop-color:#F5223C"
         id="stop89" /></linearGradient><path
       style="fill:url(#SVGID_10_);"
       d="M42.9757996,11.0493908c0,0-1.6172981-0.2168207-2.5770988,2.6391392   c-0.7196007,2.1413298-3.489502,1.34513-4.4536018,1.37465s-1.9151001-0.8505602-1.9151001-0.8505602   s0.1944008-3.7933102-1.8449974-4.6344795c0,0,0.4730988,3.9736795-0.1346016,4.7118301   c-0.6077003,0.7381496,6.1462021,2.8963699,8.1622009,1.51826C42.2286987,14.43013,39.4157982,15.3780403,42.9757996,11.0493908z"
       id="path91" /><linearGradient
       id="SVGID_11_"
       gradientUnits="userSpaceOnUse"
       x1="30.7753468"
       y1="19.2950077"
       x2="43.7561188"
       y2="21.583868"
       gradientTransform="matrix(0.9926 0.1217 -0.1217 0.9926 3.9821999 -4.0331001)"><stop
         offset="0.492611"
         style="stop-color:#9E1627"
         id="stop94" /><stop
         offset="1"
         style="stop-color:#F5223C"
         id="stop96" /></linearGradient><path
       style="fill:url(#SVGID_11_);"
       d="M29.4272003,28.4487991c0,0,9.4798012-7.4048386,12.5342979-7.6238384   c3.8013-0.2725716,2.6004028-4.3355312,5.7398033-7.6444902c0,0-3.1337013,0.2566595-5.9299011,0.1592493   c-2.2722015-0.0791597-4.3684998-0.9672146-5.7378006-0.6052284   C32.9794006,13.5419703,29.4272003,28.4487991,29.4272003,28.4487991z"
       id="path98" /><linearGradient
       id="SVGID_12_"
       gradientUnits="userSpaceOnUse"
       x1="52.856884"
       y1="25.7872162"
       x2="63.177124"
       y2="7.9120378"
       gradientTransform="matrix(-0.9926 -0.1217 -0.1217 0.9926 93.3180008 7.6156998)"><stop
         offset="0"
         style="stop-color:#9E1627"
         id="stop101" /><stop
         offset="1"
         style="stop-color:#F5223C"
         id="stop103" /></linearGradient><path
       style="fill:url(#SVGID_12_);"
       d="M36.0466003,27.4874992c0,0-6.2094002-5.5306797-8.0647011-6.5301399   c-3.9104996-2.1065197,2.4610004-5.6085796-0.6466999-12.1956892c0,0,6.6266003,5.3884001,8.781702,5.6746902   c5.5769005,0.7408495,6.6472969,3.4579592,5.4820976,6.9351702C40.5452003,24.5161991,36.0466003,27.4874992,36.0466003,27.4874992   z"
       id="path105" /><linearGradient
       id="SVGID_13_"
       gradientUnits="userSpaceOnUse"
       x1="21.1423874"
       y1="24.7186661"
       x2="49.104805"
       y2="24.7186661"
       gradientTransform="matrix(0.9926 0.1217 -0.1217 0.9926 3.9821999 -4.0331001)"><stop
         offset="0"
         style="stop-color:#F5223C"
         id="stop108" /><stop
         offset="0.477833"
         style="stop-color:#9E1627"
         id="stop110" /><stop
         offset="1"
         style="stop-color:#F5223C"
         id="stop112" /></linearGradient><path
       style="fill:url(#SVGID_13_);"
       d="M50.6730995,18.6673203c0,0-1.6441994,2.1624699-3.4927979,5.1864796   c-1.8485031,3.0240002-0.8368034,5.2166996-0.8368034,5.2166996l-6.594799,6.3823013l-10.9507999,0.1344986l-5.7018986-11.3380985   c0,0,1.1674995-3.8956604,1.0035992-6.5754604c-0.1639004-2.6797905-0.7297001-6.0984173-0.7297001-6.0984173   S30.8150005,21.5510693,50.6730995,18.6673203z"
       id="path114" /><linearGradient
       id="SVGID_14_"
       gradientUnits="userSpaceOnUse"
       x1="57.0416336"
       y1="37.467617"
       x2="70.7020798"
       y2="13.8070278"
       gradientTransform="matrix(-0.9926 -0.1217 -0.1217 0.9926 93.3180008 7.6156998)"><stop
         offset="0"
         style="stop-color:#9E1627"
         id="stop117" /><stop
         offset="1"
         style="stop-color:#F5223C"
         id="stop119" /></linearGradient><path
       style="fill:url(#SVGID_14_);"
       d="M29.3435993,39.0511017c0,0-4.1742001-4.802002-6.8702984-6.254303   c-5.6827106-3.0611992,0.3848991-13.1774082-7.3742809-17.3798084c0,0,7.8958797,2.8538704,11.0431805,3.1275902   c8.2846985,0.7205887,10.1289978,6.8648205,9.1839981,10.6569195   C34.1607018,33.8781013,29.3435993,39.0511017,29.3435993,39.0511017z"
       id="path121" /><linearGradient
       id="SVGID_15_"
       gradientUnits="userSpaceOnUse"
       x1="34.9143372"
       y1="42.220005"
       x2="47.4244308"
       y2="20.5518875"
       gradientTransform="matrix(0.9926 0.1217 -0.1217 0.9926 3.9821999 -4.0331001)"><stop
         offset="0"
         style="stop-color:#9E1627"
         id="stop124" /><stop
         offset="1"
         style="stop-color:#F5223C"
         id="stop126" /></linearGradient><path
       style="fill:url(#SVGID_15_);"
       d="M29.3607006,39.0055008c0,0,10.4402981-2.917202,13.4074993-3.6749001   c6.2541008-1.5970993,1.9473991-7.4447002,10.4921989-9.647501c0,0-11.4231987,0.3721008-14.4774971,1.1795998   C35.7286987,27.6702003,29.3607006,39.0055008,29.3607006,39.0055008z"
       id="path128" /><linearGradient
       id="SVGID_16_"
       gradientUnits="userSpaceOnUse"
       x1="40.2900009"
       y1="34.15308"
       x2="52.6990356"
       y2="12.6600027"
       gradientTransform="matrix(0.9926 0.1217 -0.1217 0.9926 3.9821999 -4.0331001)"><stop
         offset="0.334975"
         style="stop-color:#F5223C"
         id="stop131" /><stop
         offset="1"
         style="stop-color:#F55367"
         id="stop133" /></linearGradient><path
       style="fill:url(#SVGID_16_);"
       d="M34.5671997,30.8155003c0,0,4.0903015-5.7413006,11.8796997-4.1949005   s14.0587997-4.5925007,10.9243011-6.3437004c-1.7833023-0.9963303-1.9583015-2.5058498-2.111599-3.2634602   c-0.1534004-0.7576084-0.4933014-2.2030191-1.1429024-2.5289593c-0.649498-0.3259401-2.0691986,0.0047903-2.0691986,0.0047903   s1.1190987-0.1536503,1.6973,0.4174995c0.3675995,0.3631201,0.3107986,1.1755209,0.2714005,2.0034304   c-0.1379013,2.9034805-2.5697021,5.7982998-6.1282005,6.1931C42.1955986,23.7350006,35.9914017,25.2275009,34.5671997,30.8155003z"
       id="path135" /><linearGradient
       id="SVGID_17_"
       gradientUnits="userSpaceOnUse"
       x1="60.6865349"
       y1="28.3893166"
       x2="72.2179794"
       y2="8.4162712"
       gradientTransform="matrix(-0.9926 -0.1217 -0.1217 0.9926 92.1584015 7.4734998)"><stop
         offset="0.334975"
         style="stop-color:#F5223C"
         id="stop138" /><stop
         offset="1"
         style="stop-color:#F55367"
         id="stop140" /></linearGradient><path
       style="fill:url(#SVGID_17_);"
       d="M35.2561989,25.3834991c0,0-2.5956001-5.3421898-10.5277996-5.7240391   c-7.9322395-0.3818398-13.0293331-7.299159-11.0476389-7.7949085c1.9816895-0.4957476,4.0776205-2.7259912,5.6287889-4.5305114   C20.8607197,5.52952,23.3038006,7.89782,23.3038006,7.89782s-1.8759212-0.9688902-2.4232101,2.2886004   c-0.33494,1.9935799,0.6410103,5.1900291,3.2216091,6.1455097C29.4731998,18.3205299,35.2246017,19.6169796,35.2561989,25.3834991z   "
       id="path142" /><linearGradient
       id="SVGID_18_"
       gradientUnits="userSpaceOnUse"
       x1="40.0314331"
       y1="22.132616"
       x2="30.3845177"
       y2="5.4236693"
       gradientTransform="matrix(0.9926 0.1217 -0.1217 0.9926 3.9821999 -4.0331001)"><stop
         offset="0"
         style="stop-color:#F55367"
         id="stop145" /><stop
         offset="0.334975"
         style="stop-color:#F54056"
         id="stop147" /><stop
         offset="1"
         style="stop-color:#F55367"
         id="stop149" /></linearGradient><path
       style="fill:url(#SVGID_18_);"
       d="M23.4074001,12.0724497c0,0,6.5268993,6.218461,8.4916992,6.2623796   c1.9647007,0.0439205,5.0124989,1.6984005,5.0124989,1.6984005s4.3827019,2.0151711,5.2918015,1.831131   c0.9091988-0.1840115,3.6935005-2.7937012,6.1306-2.5974102c1.1705017,0.094389,5.1761017-1.0789013,3.1236-3.5817604   c-1.8638-2.2726202-2.6864014-3.9988785-2.6864014-3.9988785s0.646801,4.3643875-1.8370972,5.3403282   c-3.7851028,1.4872398-7.7584,1.4125805-9.6278,0.5922508c-1.8696022-0.8203106-11.9319019-5.1109009-11.5257015-7.2255106   C26.0531998,8.9738302,26.9396992,8.17138,26.9396992,8.17138s0.2178001-0.17031-1.6243,0.39182   C22.6018009,9.3912802,21.5379791,11.2521191,23.4074001,12.0724497z"
       id="path151" /><linearGradient
       id="SVGID_19_"
       gradientUnits="userSpaceOnUse"
       x1="35.0640564"
       y1="18.3325577"
       x2="28.3544388"
       y2="6.7111545"
       gradientTransform="matrix(0.9926 0.1217 -0.1217 0.9926 3.9821999 -4.0331001)"><stop
         offset="0"
         style="stop-color:#F55367"
         id="stop154" /><stop
         offset="0.334975"
         style="stop-color:#F54056"
         id="stop156" /><stop
         offset="1"
         style="stop-color:#F55367"
         id="stop158" /></linearGradient><path
       style="fill:url(#SVGID_19_);"
       d="M41.0873985,16.5065708c0,0-2.6338997-1.0126009-6.5295982-2.1799612   c-3.8955994-1.1673498-9.9454994-5.6526299-6.2375011-6.9709797C32.0283012,6.0372801,33.1333008,6.66536,33.1333008,6.66536   s-2.7274017,0.5520401-2.6522999,1.5463204c0.0749989,0.9942799-3.1395016,0.6985292,2.7245998,3.4863987   C39.0695992,14.4859505,41.0873985,16.5065708,41.0873985,16.5065708z"
       id="path160" /><linearGradient
       id="SVGID_20_"
       gradientUnits="userSpaceOnUse"
       x1="41.8570213"
       y1="14.6622248"
       x2="37.9981651"
       y2="7.9784908"
       gradientTransform="matrix(0.9926 0.1217 -0.1217 0.9926 3.9821999 -4.0331001)"><stop
         offset="0"
         style="stop-color:#F55367"
         id="stop163" /><stop
         offset="0.334975"
         style="stop-color:#F54056"
         id="stop165" /><stop
         offset="1"
         style="stop-color:#F55367"
         id="stop167" /></linearGradient><path
       style="fill:url(#SVGID_20_);"
       d="M42.037899,7.9545202c0,0,1.6873016,0.6994801,2.7548027,0.8303995   c1.0674973,0.1309404,1.7605972,0.9055004,2.2714996,1.5592003c0.5107994,0.6536999,2.0159988,1.2323303,1.2890968,1.5372   c-0.7270966,0.3048668,2.1077003,2.8935804-5.027298,2.4371405c-5.3702011-0.3435602-7.2924004-1.5839691-7.2924004-1.5839691   s2.5709-0.0787067,4.4147987,0.1474428c1.8440018,0.2261658,6.3557014,0.3855057,5.5281029-0.8980865   c-0.8277016-1.2836075-0.0138016-0.6912498-0.8277016-1.2836075C44.3348999,10.1078796,41.9308014,8.82794,42.037899,7.9545202z"
       id="path169" /><linearGradient
       id="SVGID_21_"
       gradientUnits="userSpaceOnUse"
       x1="41.1500931"
       y1="17.9298344"
       x2="31.3849907"
       y2="1.0161767"
       gradientTransform="matrix(0.9926 0.1217 -0.1217 0.9926 3.9821999 -4.0331001)"><stop
         offset="0"
         style="stop-color:#F55367"
         id="stop172" /><stop
         offset="0.334975"
         style="stop-color:#F54056"
         id="stop174" /><stop
         offset="1"
         style="stop-color:#F55367"
         id="stop176" /></linearGradient><path
       style="fill:url(#SVGID_21_);"
       d="M53.7247009,14.0669899c0,0,0.9850998-1.4060345-2.2973022-3.7029295   c-1.2803993-0.8960009-1.4330978-3.1729503-1.3955002-4.1380205c0.0687027-1.7647099-3.805397-1.50106-3.805397-1.50106   s-5.1486015-0.18819-6.6784019-0.9668698c-1.5298996-0.7786801-3.4428978-2.04761-8.4431-1.0355501   c-5.0002995,1.01209-3.3220997,2.9910502-6.9202003,4.6183901c0,0,5.5056-2.7232299,10.728302-1.9349098   C40.1357994,6.1943698,41.3717995,5.75492,42.7204018,6.80689c1.3485985,1.05196,1.6553001,0.7038002,4.0429993,1.9734797   C53.1441994,12.1734171,53.7247009,14.0669899,53.7247009,14.0669899z"
       id="path178" /><linearGradient
       id="SVGID_22_"
       gradientUnits="userSpaceOnUse"
       x1="36.5522003"
       y1="12.5348577"
       x2="32.9019051"
       y2="6.2123594"
       gradientTransform="matrix(0.9926 0.1217 -0.1217 0.9926 3.9821999 -4.0331001)"><stop
         offset="0"
         style="stop-color:#F55367"
         id="stop181" /><stop
         offset="0.334975"
         style="stop-color:#F54056"
         id="stop183" /><stop
         offset="1"
         style="stop-color:#F55367"
         id="stop185" /></linearGradient><path
       style="fill:url(#SVGID_22_);"
       d="M42.0213013,11.3017292c0,0,2.4737968-0.0906181,0.129097-1.8557997   c-2.3445969-1.7651796-1.0829964-1.6104493-2.926899-1.8365993c-1.8438988-0.22616-4.6702003-0.4742904-5.5792999-0.2902703   c-0.9091988,0.18401-2.0366993,0.3412499-1.6802998,1.0498805c0.3564014,0.7086296-1.1082993,0.60287,1.0319996,1.82582   c0,0-1.5592995-1.7427406,1.2601013-1.8402205s2.4822006-0.3604798,3.6110992,0.0734997   C38.9959984,8.8620195,43.428299,10.07057,42.0213013,11.3017292z"
       id="path187" /><linearGradient
       id="SVGID_23_"
       gradientUnits="userSpaceOnUse"
       x1="36.5293922"
       y1="11.854949"
       x2="34.4377632"
       y2="8.2321358"
       gradientTransform="matrix(0.9926 0.1217 -0.1217 0.9926 3.9821999 -4.0331001)"><stop
         offset="0"
         style="stop-color:#F55367"
         id="stop190" /><stop
         offset="0.334975"
         style="stop-color:#F54056"
         id="stop192" /><stop
         offset="1"
         style="stop-color:#F55367"
         id="stop194" /></linearGradient><path
       style="fill:url(#SVGID_23_);"
       d="M38.6997986,9.2689695c0,0,5.4583015,1.5919809,1.0755005,2.2744436   c-1.8578987,0.2892952-5.8701973-1.5326633-5.289299-2.0524635c0.5808983-0.5197897,4.3656998-0.0555792,3.7210007,0.3825006   c-0.6448021,0.4380798-1.0637016,0.2389498-1.0637016,0.2389498s-2.1848984-0.8590202-1.3829002-0.1696205   c0.802002,0.6894102,3.1154022,0.8264303,3.3763008,0.7835102C40.5945015,10.4864302,40.8064003,10.3646603,38.6997986,9.2689695z"
       id="path196" /><path
       style="fill:#C10D23;"
       d="M34.4723167,2.3469467c2.617157,0.0000229,3.9502068,0.8382759,5.0757828,1.4111633   c1.5298004,0.7786827,6.6783981,0.9668732,6.6783981,0.9668732s0.2049484-0.0139542,0.5199585-0.0139542   c1.0539894,0,3.3383369,0.1563683,3.2854424,1.5150108c-0.0375977,0.9650726,0.1151009,3.2420425,1.3955002,4.1380424   c3.282402,2.2968483,2.2973022,3.7029076,2.2973022,3.7029076l-0.1799011,0.2841415   c0.2145004,0.016201,0.4160004,0.0550613,0.5718994,0.1333504c0.649601,0.3259087,0.989502,1.7713203,1.1428986,2.5289383   c0.1534004,0.7576218,0.3283005,2.2671432,2.1116028,3.2634926c2.5756989,1.4390373-1.2027016,5.8323898-6.9522018,6.4979897   c-4.7150993,2.6349983-2.2532997,7.1772995-7.6507988,8.5557022c-2.9672012,0.7576981-13.4075012,3.6748962-13.4075012,3.6748962   s-4.174099-4.8019981-6.8703003-6.2543983c-4.9203796-2.6505013-1.0376797-10.5879021-4.9426994-15.398201   c-3.4692297-2.1857109-5.1444397-5.1688309-3.8669596-5.4883995c1.9816999-0.4957504,4.0776396-2.7259407,5.6288099-4.5304604   c0.4286804-0.4986877,0.9248581-0.6791229,1.418642-0.6791C21.869442,6.6549873,22.9975262,7.6190109,23.2472,7.8457832   c0.1434002,0.10215,0.2861996,0.2199478,0.4277,0.3505096c0.0809994-0.4016724,0.2350998-0.7106895,0.5098991-0.8553429   c0.0320129-0.0168724,0.0633163-0.0309105,0.0945835-0.0448074C24.2198982,7.3240204,24.1847992,7.34095,24.1847992,7.34095   c3.5981007-1.6273384,1.9199009-3.6062965,6.9202003-4.6183891C32.4264641,2.4550934,33.5321884,2.3469391,34.4723167,2.3469467    M24.3718987,7.2531509c-0.0312366,0.0158882-0.0618591,0.0293694-0.0925159,0.0429916   C24.3057442,7.2837906,24.3368931,7.2692833,24.3718987,7.2531509 M34.4723206,2.0469513   c-1.0228996-0.0000114-2.1758614,0.1283722-3.4268303,0.3815689c-2.971981,0.6015511-3.6864204,1.5493202-4.4428005,2.5527496   c-0.5040359,0.6686516-1.0245266,1.3591118-2.3561058,1.999855l-0.0002155-0.0004425l-0.091116,0.0423355   c-0.0365047,0.016243-0.0730076,0.032856-0.1103935,0.0525742c-0.2289276,0.1204987-0.4023666,0.3181458-0.5241222,0.599102   c-0.0333405-0.025341-0.0665131-0.0497704-0.0994778-0.0732536c-0.3000393-0.2753601-1.4646492-1.2464485-2.6930599-1.2464981   c-0.6453495-0.0000305-1.1991997,0.263588-1.6461506,0.7835388c-1.5629997,1.8182793-3.5976992,3.96558-5.4741192,4.4349899   c-0.3555803,0.0889511-0.5829401,0.3351097-0.6401796,0.693119c-0.17766,1.1111755,1.4448099,3.4530373,4.3775988,5.3133087   c1.7332726,2.1660423,1.852705,4.9892197,1.9682903,7.7200546c0.1354504,3.1999969,0.2633801,6.222538,3.0344906,7.7152672   c2.6168098,1.4096413,6.7447701,6.1394882,6.7861595,6.1871033l0.1244507,0.1431503l0.1826897-0.0510406   c0.1043701-0.0291595,10.4709702-2.9249496,13.401001-3.6731644c3.034008-0.7748184,3.7072678-2.5011292,4.4200592-4.3287964   c0.5860062-1.5025787,1.1916161-3.0557938,3.2514229-4.2266998c4.2479591-0.5118065,7.5307236-3.027977,7.938736-5.0709419   c0.1688499-0.845459-0.16325-1.5485687-0.9351273-1.9798203c-1.5417824-0.8614082-1.7858505-2.1350288-1.9316711-2.8959885   l-0.0322189-0.1651306c-0.3204498-1.5826607-0.7342911-2.4525299-1.3024025-2.7375488   c-0.0662956-0.0332947-0.1389885-0.0616531-0.21875-0.0852318c0.0822868-0.1713791,0.2109489-0.5608101,0.0650406-1.128891   c-0.2360001-0.9188576-1.0764885-1.8891602-2.4981194-2.8839378c-1.0903397-0.7630005-1.3098907-2.7982597-1.2677307-3.8805618   c0.0146408-0.3760185-0.1104507-0.7044373-0.371788-0.9761505c-0.6761398-0.70298-2.1206703-0.8505402-3.2134209-0.8505402   c-0.3273506,0-0.540329,0.0146408-0.540329,0.0146408c-0.0194931-0.0023499-5.0684624-0.1950798-6.5219421-0.9349174   l-0.321991-0.1667404C38.2725105,2.7550507,36.9163589,2.0469704,34.4723206,2.0469513L34.4723206,2.0469513z"
       id="path198" /></g><g
     id="g200"><g
       id="g202"><linearGradient
         id="SVGID_24_"
         gradientUnits="userSpaceOnUse"
         x1="48.3929482"
         y1="50.4891548"
         x2="59.8446388"
         y2="39.0374641"
         gradientTransform="matrix(-0.894 -0.4481 -0.4481 0.894 108.5140991 28.5793991)"><stop
           offset="0"
           style="stop-color:#8BB312"
           id="stop205" /><stop
           offset="0.17734"
           style="stop-color:#9DC914"
           id="stop207" /><stop
           offset="1"
           style="stop-color:#344A24"
           id="stop209" /></linearGradient><path
         style="fill:url(#SVGID_24_);"
         d="M48.4902344,49.3867188c-2.6884766,0-6.453125-0.2890625-9.1181641-1.6621094    l-0.9326172-0.9482422l0.2861328,0.6220703l-0.3769531-0.1835938c-0.2617188-0.1269531-0.5234375-0.2539063-0.7890625-0.375    c-0.7617188-0.3515625-1.5322266-0.7734375-2.3554688-1.2900391l-1.3544922-1.40625l0.1826172,0.6318359l-0.3535156-0.2578125    c-2.996582-2.1806641-5.0961914-4.5917969-5.1166992-4.6152344l-0.140625-0.1630859l0.2006836-0.0761719    c0.0195313-0.0068359,1.9331055-0.7275391,4.1171875-1.3867188c1.3505859-0.4072266,2.4433594-0.6953125,4.2119141-0.6953125    c1.0800781,0,2.3867188,0.1044922,4.1152344,0.3291016l0.4042969,0.0517578l-0.359375,0.234375l0.6767578-0.1679688    c1.7753906,0.2851563,3.2314453,0.7519531,4.390625,1.3857422l0.6015625,0.3291016l-0.6845703-0.0478516    c-0.4443359-0.03125-0.7265625-0.0507813-0.9521484-0.0507813c-0.2148438,0-0.3740234,0.0175781-0.5869141,0.0634766    c2.1923828,0.5664063,3.9072266,1.6611328,3.9257813,1.6728516c3.1552734,4.3388672,2.4189453,7.6748047,2.3867188,7.8144531    L50.84375,49.3017578l-0.1083984,0.0087891C50.7265625,49.3115234,49.8203125,49.3867188,48.4902344,49.3867188z"
         id="path211" /><path
         style="fill:#344A24;"
         d="M36.9532127,37.7305069c1.0456047,0,2.3373795,0.0995255,4.0933876,0.3278961l-0.7649002,0.4973984    l1.5426979-0.3815994c1.5415993,0.2584,3.0301018,0.6874008,4.2820015,1.3720016    c-0.4507065-0.0318069-0.735508-0.0519028-0.9636917-0.0519028c-0.3917007,0-0.6165543,0.0592194-1.2274094,0.2201004    c2.4776993,0.4988022,4.4857025,1.7921982,4.4857025,1.7921982c3.1111984,4.2949028,2.3217964,7.6544037,2.3217964,7.6544037    s-0.8935699,0.0753326-2.23386,0.0753326c-2.4327888,0-6.3381653-0.2480621-9.0487366-1.6450348l-1.4952011-1.5313988    l0.4688988,1.0196991c-0.2625999-0.1278-0.5256996-0.2544975-0.7915001-0.3759995    c-0.8113976-0.3742027-1.5929985-0.8127022-2.3382988-1.281002l-1.7467995-1.8196983l0.2289009,0.7938995    c-3.0167027-2.1963997-5.0907021-4.5930977-5.0907021-4.5930977s1.9027996-0.7187042,4.107399-1.3834991    C34.1590233,38.0051651,35.2164268,37.7305069,36.9532127,37.7305069 M36.9532089,37.4305038    c-1.7894211,0-2.8931007,0.2911568-4.2569313,0.7024765c-2.1890793,0.6601219-4.1076584,1.3828506-4.1267776,1.3900719    l-0.4021511,0.1518974l0.2812996,0.3250618c0.0209599,0.024231,2.1313,2.44804,5.1409702,4.6393204l0.70718,0.5148811    l-0.1347198-0.4672546l0.9056015,0.9433937l0.0255585,0.0266304l0.03125,0.0196381    c0.8267021,0.5194511,1.6026802,0.9444885,2.3722687,1.2994118c0.2645226,0.1209068,0.5254326,0.2465782,0.785862,0.3733177    l0.7543297,0.3671112l-0.0945244-0.2055588l0.283123,0.289978l0.0339813,0.0348015l0.0432396,0.0222893    c2.6915703,1.3871803,6.4811096,1.67836,9.1861687,1.67836c1.337532,0,2.2220612-0.0732689,2.2590599-0.0763893    l0.2170334-0.0182991l0.0498199-0.2120209c0.0335083-0.1426201,0.7844887-3.5431099-2.370903-7.8990097l-0.0330772-0.045681    l-0.0474205-0.0305405c-0.0670509-0.0431862-1.3571854-0.8661003-3.1504097-1.4524345    c0.1774368,0.0085907,0.3947449,0.0239258,0.6717606,0.0434647l1.37043,0.0966911l-1.2048912-0.6591225    c-1.1742516-0.6421356-2.6466713-1.1147385-4.3763504-1.4046555l-0.0001411-0.0000267l0.0190315-0.0123787L41.085289,37.76091    C39.3519897,37.5354919,38.03899,37.4305038,36.9532089,37.4305038L36.9532089,37.4305038z"
         id="path213" /></g><radialGradient
       id="SVGID_25_"
       cx="39.6921921"
       cy="43.6760597"
       r="8.6483974"
       gradientTransform="matrix(1 0 0 0.6 0 17.4704227)"
       gradientUnits="userSpaceOnUse"><stop
         offset="0"
         style="stop-color:#344A24;stop-opacity:0.3"
         id="stop216" /><stop
         offset="1"
         style="stop-color:#000000;stop-opacity:0"
         id="stop218" /></radialGradient><path
       style="fill:url(#SVGID_25_);"
       d="M28.6755009,39.8036995c0,0,12.3260975-2.8793983,21.9479008,9.1847992   c0,0,1.5761986-6.9632988-8.8077011-9.7697983C33.6002007,36.9982986,28.6755009,39.8036995,28.6755009,39.8036995z"
       id="path220" /></g><g
     id="g222"><g
       id="g224"><linearGradient
         id="SVGID_26_"
         gradientUnits="userSpaceOnUse"
         x1="5.7031918"
         y1="47.1340675"
         x2="21.3494625"
         y2="31.4877968"
         gradientTransform="matrix(0.9992 0.04 -0.04 0.9992 2.9495914 -0.5318)"><stop
           offset="0"
           style="stop-color:#8CB311"
           id="stop227" /><stop
           offset="0.226601"
           style="stop-color:#9DC914"
           id="stop229" /><stop
           offset="1"
           style="stop-color:#344A24"
           id="stop231" /></linearGradient><path
         style="fill:url(#SVGID_26_);"
         d="M3.3525391,42.9589844c-0.0083008-0.0947266-0.7836914-9.4492188,4.9736328-12.1547852    c0.0537109-0.0141602,0.3095703-0.03125,0.7456055-0.03125c0.9223633,0,2.6557617,0.078125,4.4814453,0.5644531    c-0.453125-0.4082031-0.6757813-0.5117188-1.6977539-0.9853516l-0.6235352-0.2890625l0.6870117,0.0029297    c1.574707,0.0068359,3.362793,0.3583984,5.3144531,1.0458984l0.7998047,0.7314453l-0.293457-0.5507813l0.3789063,0.1489258    c4.9306641,1.9423828,7.7973633,3.6113281,9.8945313,5.7607422c1.9360352,1.9833984,2.0214844,2.9375,2.0244141,2.9775391    l0.0068359,0.1005859l-0.0917969,0.0439453c-0.034668,0.0175781-3.5288086,1.6787109-7.921875,2.2285156l-0.434082,0.0546875    l0.5771484-0.5771484l-2.2949219,0.7128906c-0.5556641,0.0361328-1.0805664,0.0527344-1.6074219,0.0527344    c-0.5424805,0-1.0869141-0.0175781-1.6298828-0.0576172c-0.347168-0.0263672-0.6938477-0.0458984-1.0405273-0.0634766    l-0.4199219-0.0205078l0.7182617-0.5302734l-1.6152344,0.4873047c-0.6811523-0.0117188-1.3071289-0.0195313-1.9199219-0.0195313    c-4.7827148,0-8.8037109,0.4970703-8.84375,0.5019531l-0.1538086,0.0195313L3.3525391,42.9589844z"
         id="path233" /><path
         style="fill:#344A24;"
         d="M11.9184752,30.2159004c1.7030001,0.0070992,3.5056601,0.4177017,5.2653494,1.0373993    l1.3915997,1.2887993l-0.5121784-0.9609985c5.2326584,2.0613022,7.9230499,3.7591019,9.8427601,5.7257996    c1.9196987,1.9666977,1.9815884,2.8830032,1.9815884,2.8830032s-3.4561901,1.6601944-7.8752899,2.2141953l0.6971016-0.6973953    l-2.8749599,0.8932953c-0.5173244,0.0292015-1.0396671,0.0457497-1.5638809,0.0457497    c-0.5386162,0-1.0792103-0.0174751-1.6182003-0.0566483c-0.3477802-0.0264015-0.6958399-0.0459023-1.0439396-0.0639    l1.0783005-0.7947006l-2.4457607,0.7370987c-0.635026-0.0182419-1.2623272-0.0263252-1.8770428-0.0263252    c-4.8470497,0-8.8618069,0.5036278-8.8618069,0.5036278s-0.8408499-9.3129997,4.8878899-12.0047989    c0,0,0.2522583-0.0170975,0.6826029-0.0170937c1.0144863,0.0000038,3.0183401,0.0950203,5.0380068,0.7329941    C13.2475653,30.8320999,13.2475653,30.8320999,11.9184752,30.2159004 M10.5458155,29.9101715l1.2464695,0.5778999    c0.533946,0.2475471,0.8458586,0.3921585,1.0875425,0.5334129c-1.5704021-0.3388672-2.9980516-0.3984756-3.8072224-0.3984756    c-0.4431305-0.0000076-0.7028904,0.0177803-0.7028904,0.0177803l-0.0561495,0.0038414l-0.0511398,0.0239487    C2.4108751,33.4180908,3.168225,42.5830688,3.203335,42.9718781l0.02792,0.3093338l0.3081901-0.0386429    c0.0399799-0.0050087,4.0535898-0.501297,8.8244801-0.501297c0.6118898,0,1.23631,0.008049,1.8684301,0.026207    l0.0486097,0.0013924l0.0465698-0.0140305l0.7844-0.2364006l-0.3568993,0.263031l0.8378992,0.0433273    c0.3456907,0.0178833,0.69135,0.0372238,1.0367212,0.0634422c0.5254192,0.0381813,1.077179,0.0575104,1.6409092,0.0575104    c0.5055008,0,1.0373592-0.0155525,1.5807896-0.0462303l0.03685-0.0020828l0.0352612-0.0109482l1.715189-0.5329361    l-0.45681,0.4570084l0.8677807-0.1087914c4.4165192-0.5536804,7.9328594-2.2246399,7.9678688-2.2414513l0.1831112-0.0879593    l-0.0136909-0.2026825c-0.0070992-0.1050682-0.12537-1.0839577-2.0662289-3.0723267    c-2.1140804-2.1658325-4.9960613-3.8448601-9.9474812-5.795372l-0.7577591-0.2985077l0.0583439,0.1094704l-0.0861149-0.0797501    l-0.0455894-0.0422211l-0.058609-0.0206413c-1.9679308-0.6930275-3.7725611-1.0477905-5.3637505-1.0544281L10.5458155,29.9101715    L10.5458155,29.9101715z"
         id="path235" /></g><radialGradient
       id="SVGID_27_"
       cx="16.6948605"
       cy="37.5810013"
       r="10.0702486"
       gradientTransform="matrix(1 0 0 0.6 0 15.0324001)"
       gradientUnits="userSpaceOnUse"><stop
         offset="0"
         style="stop-color:#344A24;stop-opacity:0.3"
         id="stop238" /><stop
         offset="1"
         style="stop-color:#000000;stop-opacity:0"
         id="stop240" /></radialGradient><path
       style="fill:url(#SVGID_27_);"
       d="M3.50212,42.9449005c0,0,7.4624796-13.3976002,26.385479-2.7550011   c0,0-7.2208004-7.9728012-15.0227995-7.9728012C5.1377802,32.2170982,4.4584799,34.9203987,3.50212,42.9449005z"
       id="path242" /></g><g
     id="g244" /><g
     id="g246" /><g
     id="g248" /><g
     id="g250" /><g
     id="g252" /><g
     id="g254" /></svg>