<?xml version="1.0" encoding="UTF-8" standalone="no"?>
<!-- Generator: Adobe Illustrator 15.0.2, SVG Export Plug-In . SVG Version: 6.00 Build 0)  -->

<svg
   xmlns:dc="http://purl.org/dc/elements/1.1/"
   xmlns:cc="http://creativecommons.org/ns#"
   xmlns:rdf="http://www.w3.org/1999/02/22-rdf-syntax-ns#"
   xmlns:svg="http://www.w3.org/2000/svg"
   xmlns="http://www.w3.org/2000/svg"
   xmlns:sodipodi="http://sodipodi.sourceforge.net/DTD/sodipodi-0.dtd"
   xmlns:inkscape="http://www.inkscape.org/namespaces/inkscape"
   version="1.1"
   id="レイヤー_1"
   x="0px"
   y="0px"
   width="64px"
   height="64px"
   viewBox="0 0 64 64"
   enable-background="new 0 0 64 64"
   xml:space="preserve"
   inkscape:version="0.48.5 r10040"
   sodipodi:docname="rowboat.svg"><metadata
     id="metadata111"><rdf:RDF><cc:Work
         rdf:about=""><dc:format>image/svg+xml</dc:format><dc:type
           rdf:resource="http://purl.org/dc/dcmitype/StillImage" /></cc:Work></rdf:RDF></metadata><defs
     id="defs109" /><sodipodi:namedview
     pagecolor="#ffffff"
     bordercolor="#666666"
     borderopacity="1"
     objecttolerance="10"
     gridtolerance="10"
     guidetolerance="10"
     inkscape:pageopacity="0"
     inkscape:pageshadow="2"
     inkscape:window-width="640"
     inkscape:window-height="480"
     id="namedview107" /><g
     id="g3"><linearGradient
       id="SVGID_1_"
       gradientUnits="userSpaceOnUse"
       x1="31.9995"
       y1="23.5"
       x2="31.9995"
       y2="60.8769"><stop
         offset="0"
         style="stop-color:#5FC2FF"
         id="stop6" /><stop
         offset="1"
         style="stop-color:#0082DF"
         id="stop8" /></linearGradient><rect
       y="22.024"
       fill="url(#SVGID_1_)"
       width="64"
       height="41.976"
       id="rect10" /><linearGradient
       id="SVGID_2_"
       gradientUnits="userSpaceOnUse"
       x1="27.9087"
       y1="23.8354"
       x2="36.8822"
       y2="25.368"
       gradientTransform="matrix(0.9866 -0.1629 0.1629 0.9866 -3.9289 5.2757)"><stop
         offset="0"
         style="stop-color:#FFE3BF"
         id="stop13" /><stop
         offset="1"
         style="stop-color:#FFB67F"
         id="stop15" /></linearGradient><path
       fill="url(#SVGID_2_)"
       stroke="#050505"
       stroke-width="0.6888"
       stroke-miterlimit="3"
       d="M30.102,22.274   c0,0-1.008-0.731-1.85,0.305c0,0-2.506,0.167-0.434,2.741c2.072,2.574,3.967,0.091,3.967,0.091l7.163,0.002l0.254-2.542   l-7.576,0.862L30.102,22.274z"
       id="path17" /><path
       fill="#D3BB6E"
       stroke="#050505"
       stroke-width="0.9066"
       stroke-miterlimit="10"
       d="M1.871,28.296c0,0,19.254-9.564,54.129,0   l1.375-1.807l4.754,1.807L58.5,32.677C58.5,32.677,6.742,38.342,1.871,28.296z"
       id="path19" /><path
       fill="none"
       stroke="#BA9F54"
       stroke-width="0.9066"
       stroke-miterlimit="10"
       d="M3.875,29.131c0,0,28.125-7.366,52.454,1.389"
       id="path21" /><path
       fill="none"
       stroke="#BA9F54"
       stroke-width="0.9066"
       stroke-miterlimit="10"
       d="M10.625,32.677c0,0,17.193-7.356,41.125,0.28"
       id="path23" /><polygon
       fill="#D8A377"
       stroke="#050505"
       stroke-width="0.9066"
       stroke-miterlimit="10"
       points="25.677,20.772 26.821,19.767    40.544,38.287 39.828,40.035  "
       id="polygon25" /><linearGradient
       id="SVGID_3_"
       gradientUnits="userSpaceOnUse"
       x1="37.9248"
       y1="17.7988"
       x2="41.8956"
       y2="18.477"><stop
         offset="0"
         style="stop-color:#FFE3BF"
         id="stop28" /><stop
         offset="1"
         style="stop-color:#FFB67F"
         id="stop30" /></linearGradient><polygon
       fill="url(#SVGID_3_)"
       stroke="#050505"
       stroke-width="0.6888"
       stroke-miterlimit="10"
       points="41.689,19.682    39.139,20.364 38.13,16.594 40.681,15.912  "
       id="polygon32" /><linearGradient
       id="SVGID_4_"
       gradientUnits="userSpaceOnUse"
       x1="37.2852"
       y1="8.7012"
       x2="42.3938"
       y2="17.8275"><stop
         offset="0"
         style="stop-color:#FFE3BF"
         id="stop35" /><stop
         offset="1"
         style="stop-color:#FFB67F"
         id="stop37" /></linearGradient><path
       fill="url(#SVGID_4_)"
       stroke="#050505"
       stroke-width="0.6888"
       stroke-miterlimit="10"
       d="M45.281,12.394   c0,3.18-2.577,5.758-5.757,5.758c-3.181,0-5.354-1.071-5.354-4.25c0-4.824,2.173-7.264,5.354-7.264   C42.704,6.638,45.281,9.215,45.281,12.394z"
       id="path39" /><linearGradient
       id="SVGID_5_"
       gradientUnits="userSpaceOnUse"
       x1="35.8604"
       y1="3.561"
       x2="44.5086"
       y2="15.9196"><stop
         offset="0"
         style="stop-color:#FF781F"
         id="stop42" /><stop
         offset="1"
         style="stop-color:#1F1100"
         id="stop44" /></linearGradient><path
       fill="url(#SVGID_5_)"
       stroke="#050505"
       stroke-width="0.6888"
       stroke-miterlimit="10"
       d="M44.456,8.089   c0,0-1.16-2.338-3.675-4.821l-1.843,2.066l-3.151-1.721c0,0-1.204,1.32-0.574,2.353c0,0-1.328,0.287-3.213,1.607l2.467,1.09   l-0.452,1.435c0,0,1.736-0.355,3.439-1.033c0,0,0.739,1.721,1.484,3.328l1.365-0.573l1.386,4.091l1.044-0.763   c0,0,0.045,0.763,0.333,1.779l1.33-1.607l1.688-1.195C46.084,14.126,49.105,9.18,44.456,8.089z"
       id="path46" /><path
       fill="#020202"
       d="M36.42,11.305c-0.254,0-0.47,0.258-0.57,0.628l0.396,0.384l-0.453,0.151   c0.021,0.565,0.293,1.013,0.627,1.013c0.348,0,0.63-0.487,0.63-1.089C37.05,11.793,36.768,11.305,36.42,11.305z"
       id="path48" /><linearGradient
       id="SVGID_6_"
       gradientUnits="userSpaceOnUse"
       x1="35.2832"
       y1="22.8638"
       x2="41.3475"
       y2="35.6656"><stop
         offset="0"
         style="stop-color:#FFE81F"
         id="stop51" /><stop
         offset="1"
         style="stop-color:#FF701F"
         id="stop53" /></linearGradient><path
       fill="url(#SVGID_6_)"
       stroke="#050505"
       stroke-width="0.6888"
       stroke-miterlimit="10"
       d="M37.05,21.156l1.969-1.244   l2.671-0.482c0,0,2.648,0.964,2.209,4.168c-0.43,3.137-3.989,8.66-3.989,8.66l-8.925,0.699   C30.984,32.957,34.576,24.162,37.05,21.156z"
       id="path55" /><ellipse
       fill="#FFFFFF"
       cx="30.984"
       cy="53.514"
       rx="13.969"
       ry="1.285"
       id="ellipse57" /><ellipse
       fill="#FFFFFF"
       cx="30.456"
       cy="57.063"
       rx="7.139"
       ry="0.795"
       id="ellipse59" /><polygon
       fill="#D3BB6E"
       stroke="#050505"
       stroke-width="0.9066"
       stroke-miterlimit="10"
       points="11.125,31.618 15.375,27.227    19.875,27.227 15.5,32.575  "
       id="polygon61" /><ellipse
       fill="#FFFFFF"
       cx="32.172"
       cy="59.801"
       rx="4.589"
       ry="0.8"
       id="ellipse63" /><linearGradient
       id="SVGID_7_"
       gradientUnits="userSpaceOnUse"
       x1="12.4995"
       y1="22.8682"
       x2="51.2696"
       y2="44.4401"><stop
         offset="0"
         style="stop-color:#FF5F70"
         id="stop66" /><stop
         offset="1"
         style="stop-color:#DF0000"
         id="stop68" /></linearGradient><path
       fill="url(#SVGID_7_)"
       stroke="#050505"
       stroke-width="0.9919"
       stroke-miterlimit="10"
       d="M1.871,28.296l5.828,14.087   c0,0,18.97,8.785,46,0c0,0,8.059-6.971,8.431-14.087l-2.852-0.572l-1.116,2.533C58.161,30.257,33.736,34.42,1.871,28.296z"
       id="path70" /><linearGradient
       id="SVGID_8_"
       gradientUnits="userSpaceOnUse"
       x1="31.9595"
       y1="46.2793"
       x2="30.7095"
       y2="54.0293"><stop
         offset="0"
         style="stop-color:#5FC2FF"
         id="stop73" /><stop
         offset="0.2223"
         style="stop-color:#4FB7FA;stop-opacity:0.9155"
         id="stop75" /><stop
         offset="0.6541"
         style="stop-color:#269BEC;stop-opacity:0.7514"
         id="stop77" /><stop
         offset="1"
         style="stop-color:#0082DF;stop-opacity:0.62"
         id="stop79" /></linearGradient><path
       fill="url(#SVGID_8_)"
       d="M1.871,44.562c0,0,2.704-0.64,5.254-1.855c8.554-4.077,4.996,5.085,19.819,0.678   c14.746-4.384,8.078,1.167,12.137-0.372c7.365-2.793,24.044-3.066,15.794,0c-5.173,1.923,4.629,2.037,7.254,2.254   s-10.379,1.513-15.08,2.04c-10.848,1.217-13.34,1.616-23.34,2.291s3.487-1.706-4.138-1.582S11.121,48.187,1.871,44.562z"
       id="path81" /><path
       opacity="0.29"
       fill="none"
       stroke="#840404"
       stroke-width="0.9919"
       stroke-miterlimit="10"
       d="M3.642,32.575   c0,0,28.683,8.238,56.65,1.47"
       id="path83" /><path
       opacity="0.29"
       fill="none"
       stroke="#840404"
       stroke-width="0.9919"
       stroke-miterlimit="10"
       d="M5.945,38.145   c0,0,25.996,6.713,51.338,0.472"
       id="path85" /><path
       fill="#D8A377"
       stroke="#050505"
       stroke-width="0.9066"
       stroke-miterlimit="10"
       d="M36.422,44.65   c-0.611-0.367-1.597-0.334-2.589-0.037l-9.994-25.183l-1.586,0.726l9.924,25.215c-1.049,0.675-1.809,1.623-1.651,2.63   c0.44,2.819,3.74,11.834,6.524,13.874c2.031,0.25,5.81-0.948,6.897-3.144C43.946,56.123,38.118,45.67,36.422,44.65z"
       id="path87" /><linearGradient
       id="SVGID_9_"
       gradientUnits="userSpaceOnUse"
       x1="22.5161"
       y1="23.5186"
       x2="35.3798"
       y2="25.7155"><stop
         offset="0"
         style="stop-color:#FFE3BF"
         id="stop90" /><stop
         offset="1"
         style="stop-color:#FFB67F"
         id="stop92" /></linearGradient><path
       fill="url(#SVGID_9_)"
       stroke="#050505"
       stroke-width="0.6888"
       stroke-miterlimit="3"
       d="M37.466,23.132L32,24.682   l-5.32-0.872c0,0-0.345-2.75-1.55-1.271c0,0-0.861-1.155-1.894-0.642c-1.034,0.512-2.325,2.167-0.861,3.805   c1.463,1.638,3.444,0.861,3.444,0.861S30.845,28.036,32,28.04c1.157,0.003,7.082-1.846,7.082-1.846L37.466,23.132z"
       id="path94" /><linearGradient
       id="SVGID_10_"
       gradientUnits="userSpaceOnUse"
       x1="38.209"
       y1="21.9922"
       x2="41.1934"
       y2="28.2924"><stop
         offset="0"
         style="stop-color:#FFE81F"
         id="stop97" /><stop
         offset="1"
         style="stop-color:#FF701F"
         id="stop99" /></linearGradient><path
       fill="url(#SVGID_10_)"
       stroke="#050505"
       stroke-width="0.6888"
       stroke-miterlimit="10"
       d="M36.011,22.636   c0,0,3.616-2.521,5.133-1.48c2.152,1.48,2.496,5.579-4.094,6.453L36.011,22.636z"
       id="path101" /><path
       fill="#CAEBFF"
       d="M53.5,39.669c0,0,1.917-4.126,4.403-2.777C60.391,38.24,54.971,38.056,53.5,39.669z"
       id="path103" /><path
       fill="#CAEBFF"
       d="M57.283,39.371c0,0,4.182-2.9,5.46-1.319S58.806,38.301,57.283,39.371z"
       id="path105" /></g></svg>