<?xml version="1.0" encoding="UTF-8" standalone="no"?>
<!-- Generator: Adobe Illustrator 15.0.2, SVG Export Plug-In . SVG Version: 6.00 Build 0)  -->

<svg
   xmlns:dc="http://purl.org/dc/elements/1.1/"
   xmlns:cc="http://creativecommons.org/ns#"
   xmlns:rdf="http://www.w3.org/1999/02/22-rdf-syntax-ns#"
   xmlns:svg="http://www.w3.org/2000/svg"
   xmlns="http://www.w3.org/2000/svg"
   xmlns:sodipodi="http://sodipodi.sourceforge.net/DTD/sodipodi-0.dtd"
   xmlns:inkscape="http://www.inkscape.org/namespaces/inkscape"
   version="1.1"
   id="レイヤー_1"
   x="0px"
   y="0px"
   width="64px"
   height="64px"
   viewBox="0 0 64 64"
   enable-background="new 0 0 64 64"
   xml:space="preserve"
   inkscape:version="0.48.5 r10040"
   sodipodi:docname="sa.svg"><metadata
     id="metadata34"><rdf:RDF><cc:Work
         rdf:about=""><dc:format>image/svg+xml</dc:format><dc:type
           rdf:resource="http://purl.org/dc/dcmitype/StillImage" /></cc:Work></rdf:RDF></metadata><defs
     id="defs32" /><sodipodi:namedview
     pagecolor="#ffffff"
     bordercolor="#666666"
     borderopacity="1"
     objecttolerance="10"
     gridtolerance="10"
     guidetolerance="10"
     inkscape:pageopacity="0"
     inkscape:pageshadow="2"
     inkscape:window-width="640"
     inkscape:window-height="480"
     id="namedview30" /><g
     id="g3"><g
       id="g5"><linearGradient
         id="SVGID_1_"
         gradientUnits="userSpaceOnUse"
         x1="31.9995"
         y1="2.9956"
         x2="31.9995"
         y2="60.9864"><stop
           offset="0"
           style="stop-color:#FFAE00"
           id="stop8" /><stop
           offset="1"
           style="stop-color:#FF601F"
           id="stop10" /></linearGradient><path
         fill="url(#SVGID_1_)"
         stroke="#FF5215"
         stroke-width="2"
         stroke-miterlimit="10"
         d="M62.205,50.205c0,6.627-5.373,12-12,12    h-36.41c-6.627,0-12-5.373-12-12v-36.41c0-6.627,5.373-12,12-12h36.41c6.627,0,12,5.373,12,12V50.205z"
         id="path12" /><g
         id="g14"><path
           opacity="0.28"
           fill="#FFFFFF"
           d="M2.672,13.368c-0.032,0.354-0.054,0.71-0.054,1.071v12.594     c0.006,0.006,0.012,0.012,0.017,0.018L2.672,13.368z"
           id="path16" /><path
           opacity="0.28"
           fill="#FFFFFF"
           d="M60.106,23.57c1.188-5.803,1.222-9.418,1.222-10.194     C60.79,7.428,55.797,2.767,49.71,2.767H14.291c-6.076,0-11.063,4.642-11.617,10.572c0.02,0.349,0.497,4.034,1.293,10.308     C11.206,30.701,21.092,35.055,32,35.055C42.945,35.055,52.859,30.67,60.106,23.57z"
           id="path18" /><path
           opacity="0.28"
           fill="#FFFFFF"
           d="M61.328,13.379l0.039,13.668c0.005-0.006,0.01-0.01,0.015-0.016V14.439     C61.382,14.081,61.359,13.729,61.328,13.379z"
           id="path20" /></g><path
         fill="#FFFFFF"
         d="M2.674,27.586c0,0-0.006-10.92-0.028-13.859c-0.027-3.6,3.243-10.89,10.375-10.89    c6.639,0,16.803,0,16.803,0S17.118,3.651,13.02,4.471c-4.098,0.82-7.493,6.044-8.442,9.263    C3.198,18.415,2.674,27.586,2.674,27.586z"
         id="path22" /><path
         fill="#B2390F"
         d="M61.001,37.832c0,0,0.006,10.233,0.027,12.989c0.026,3.373-3.141,10.207-10.048,10.207    c-6.428,0-16.27,0-16.27,0s12.304-0.764,16.272-1.532c3.967-0.769,7.254-5.663,8.174-8.681    C60.493,46.427,61.001,37.832,61.001,37.832z"
         id="path24" /></g><g
       id="g26"><path
         fill="#FFFFFF"
         d="M21.111,38.161v-7.45h-6.447V23.26h6.447v-8.167h7.45v8.167h6.591v-8.167h7.307v8.167h6.877v7.451h-6.877    v3.009c0,4.106-1.433,7.593-4.298,10.459c-3.152,3.151-7.45,4.728-12.895,4.728l-4.298-7.45c0.859,0.096,1.67,0.144,2.436,0.144    c4.678,0,7.927-0.907,9.743-2.723c1.337-1.337,2.006-3.199,2.006-5.588v-2.578h-6.591v7.45H21.111z"
         id="path28" /></g></g></svg>