<?xml version="1.0" encoding="utf-8"?>
<!-- Generator: Adobe Illustrator 18.0.0, SVG Export Plug-In . SVG Version: 6.00 Build 0)  -->
<!DOCTYPE svg PUBLIC "-//W3C//DTD SVG 1.1//EN" "http://www.w3.org/Graphics/SVG/1.1/DTD/svg11.dtd">
<svg version="1.1" id="レイヤー_1" xmlns="http://www.w3.org/2000/svg" xmlns:xlink="http://www.w3.org/1999/xlink" x="0px"
	 y="0px" width="64px" height="64px" viewBox="0 0 64 64" style="enable-background:new 0 0 64 64;" xml:space="preserve">
<g>
	<g>
		
			<linearGradient id="SVGID_1_" gradientUnits="userSpaceOnUse" x1="305.8972473" y1="-304.0600586" x2="305.8972473" y2="-356.8203125" gradientTransform="matrix(1 0 0 -1 -274 -298)">
			<stop  offset="0" style="stop-color:#9FE1FF"/>
			<stop  offset="0.2621" style="stop-color:#60A1CE"/>
			<stop  offset="0.5708" style="stop-color:#1B5B97"/>
			<stop  offset="0.7152" style="stop-color:#004082"/>
			<stop  offset="0.7694" style="stop-color:#004487"/>
			<stop  offset="0.8311" style="stop-color:#005094"/>
			<stop  offset="0.8963" style="stop-color:#0064AB"/>
			<stop  offset="0.9636" style="stop-color:#0080CB"/>
			<stop  offset="1" style="stop-color:#0092DF"/>
		</linearGradient>
		<path style="fill:url(#SVGID_1_);" d="M58.3144989,50.8203011c0,4.4003983-3.6005974,8-8,8H13.4799805
			c-4.3999004,0-8-3.5996017-8-8V14.0600595c0-4.3998995,3.6001-7.9999995,8-7.9999995h36.8345184c4.3994026,0,8,3.6001,8,7.9999995
			V50.8203011z"/>
	</g>
	<g style="opacity:0.22;">
		<path style="fill:#FFFFFF;" d="M5.47998,26.8129997C12.8608398,29.1958008,22,32.9394989,31.8969994,32.9394989
			c9.8978996,0,19.036602-3.7436981,26.4174995-6.1264992c0,0,2.1035004-13.8359489-1.9179993-18.270031
			C45.5918007,3.18311,18.9848595,5.1889601,8.1469698,7.9648399C3.72314,12.0571289,5.47998,26.8129997,5.47998,26.8129997z"/>
	</g>
	<g>
		<path style="fill:#057CDD;" d="M50.3144531,59.8203125H13.4799805c-4.9624023,0-9-4.0371094-9-9V14.0600586
			c0-4.9624023,4.0375977-9,9-9h36.8344727c4.9628906,0,9,4.0375977,9,9v36.7602539
			C59.3144531,55.7832031,55.2773438,59.8203125,50.3144531,59.8203125z M13.4799805,7.0600586c-3.8598633,0-7,3.1401367-7,7
			v36.7602539c0,3.859375,3.1401367,7,7,7h36.8344727c3.859375,0,7-3.140625,7-7V14.0600586c0-3.8598633-3.140625-7-7-7H13.4799805z
			"/>
	</g>
</g>
<g>
	
		<rect x="14.9045591" y="36.1610489" transform="matrix(0.7071281 0.7070854 -0.7070854 0.7071281 34.3434486 -7.5941873)" style="fill:#FFFFFF;" width="22.8691044" height="2.9996796"/>
	
		<rect x="30.0777969" y="12.667841" transform="matrix(0.7071068 0.7071068 -0.7071068 0.7071068 32.174778 -12.8325424)" style="fill:#FFFFFF;" width="2.9996796" height="39.5085564"/>
	<polygon style="fill:#FFFFFF;" points="47.890625,35.078125 44.890625,35.078125 44.890625,19.109375 28.9204102,19.1088867 
		28.9204102,16.1088867 47.890625,16.109375 	"/>
</g>
<g>
</g>
<g>
</g>
<g>
</g>
<g>
</g>
<g>
</g>
<g>
</g>
</svg>
