<?xml version="1.0" encoding="utf-8"?>
<!-- Generator: Adobe Illustrator 13.0.0, SVG Export Plug-In . SVG Version: 6.00 Build 14948)  -->
<!DOCTYPE svg PUBLIC "-//W3C//DTD SVG 1.1//EN" "http://www.w3.org/Graphics/SVG/1.1/DTD/svg11.dtd">
<svg version="1.1" id="レイヤー_1" xmlns="http://www.w3.org/2000/svg" xmlns:xlink="http://www.w3.org/1999/xlink" x="0px"
	 y="0px" width="63.25px" height="62.333px" viewBox="0 0 63.25 62.333" enable-background="new 0 0 63.25 62.333"
	 xml:space="preserve">
<polyline fill="none" stroke="#231815" stroke-width="0.5" stroke-miterlimit="10" points="40.5,36 54.237,43.833 31.801,0.751 "/>
<linearGradient id="SVGID_1_" gradientUnits="userSpaceOnUse" x1="29.9146" y1="49.3306" x2="46.3316" y2="67.7476">
	<stop  offset="0" style="stop-color:#5FD4FF"/>
	<stop  offset="1" style="stop-color:#1F7AFF"/>
</linearGradient>
<path fill="url(#SVGID_1_)" d="M0,51.25h63.25c0,0-2.304,1.768-9.014,3.114C46.083,56,52.833,57.78,35.833,57.78
	c-16.168,0-8.936-2.072-20.75-2.946S12.25,52.75,0,51.25z"/>
<polygon fill="#231815" points="59.855,48.375 55.522,48.375 58.439,51.75 61.272,51.25 61.272,49.417 60.105,49.417 "/>
<path fill="none" stroke="#231815" stroke-width="0.5" stroke-miterlimit="10" d="M1.667,42.667c0,0,17.922-25.553,27.794-34.401"/>
<linearGradient id="SVGID_2_" gradientUnits="userSpaceOnUse" x1="29.1245" y1="41.1577" x2="29.4872" y2="48.9629">
	<stop  offset="0" style="stop-color:#FFFFFF"/>
	<stop  offset="1" style="stop-color:#FFD1BF"/>
</linearGradient>
<path fill="url(#SVGID_2_)" stroke="#231815" stroke-width="1.1428" stroke-linejoin="bevel" stroke-miterlimit="10" d="
	M2.25,42.833c0,0,20.285-1.278,35.333,0c9.75,0.828,16.334,0.828,16.334,0.828l2.333,1.255C56.25,44.917,14.417,50.774,2.25,42.833z
	"/>
<g>
	<path fill="none" stroke="#231815" stroke-width="1.3461" stroke-linejoin="bevel" stroke-miterlimit="10" d="M17.917,45.248
		l3.667-5.66h10.333l2.167,7.283C34.084,46.871,26.833,47.671,17.917,45.248z"/>
	<linearGradient id="SVGID_3_" gradientUnits="userSpaceOnUse" x1="25.6646" y1="38.8169" x2="26.1838" y2="49.9931">
		<stop  offset="0" style="stop-color:#FFFFFF"/>
		<stop  offset="1" style="stop-color:#FFD1BF"/>
	</linearGradient>
	<path fill="url(#SVGID_3_)" d="M17.917,45.248l3.667-5.66h10.333l2.167,7.283C34.084,46.871,26.833,47.671,17.917,45.248z"/>
</g>
<polygon opacity="0.54" fill="#B79774" points="22.167,40.083 31.801,40.083 32.083,42.482 "/>
<linearGradient id="SVGID_4_" gradientUnits="userSpaceOnUse" x1="7.8896" y1="43.897" x2="59.7166" y2="53.0634">
	<stop  offset="0" style="stop-color:#FF1F1F"/>
	<stop  offset="1" style="stop-color:#7F0000"/>
</linearGradient>
<path fill="url(#SVGID_4_)" d="M1.667,42.667l8.5,9.167c0,0,24.499,3.5,48.583-0.5l-2.5-6.417c0,0-8.015,1.177-18.337,0.521
	C23.245,44.507,10.75,42.583,1.667,42.667z"/>
<defs>
	<filter id="Adobe_OpacityMaskFilter" filterUnits="userSpaceOnUse" x="3.417" y="43.833" width="54.564" height="6.863">
		<feFlood  style="flood-color:white;flood-opacity:1" result="back"/>
		<feBlend  in="SourceGraphic" in2="back" mode="normal"/>
	</filter>
</defs>
<mask maskUnits="userSpaceOnUse" x="3.417" y="43.833" width="54.564" height="6.863" id="SVGID_5_">
	<g filter="url(#Adobe_OpacityMaskFilter)">
		<defs>
			<filter id="Adobe_OpacityMaskFilter_1_" filterUnits="userSpaceOnUse" x="3.417" y="43.833" width="54.564" height="6.863">
				<feFlood  style="flood-color:white;flood-opacity:1" result="back"/>
				<feBlend  in="SourceGraphic" in2="back" mode="normal"/>
			</filter>
		</defs>
		<mask maskUnits="userSpaceOnUse" x="3.417" y="43.833" width="54.564" height="6.863" id="SVGID_5_">
			<g filter="url(#Adobe_OpacityMaskFilter_1_)">
			</g>
		</mask>
		<linearGradient id="SVGID_6_" gradientUnits="userSpaceOnUse" x1="30.5352" y1="49.4644" x2="30.7021" y2="46.5483">
			<stop  offset="0" style="stop-color:#000000"/>
			<stop  offset="1" style="stop-color:#FFFFFF"/>
		</linearGradient>
		<path mask="url(#SVGID_5_)" fill="url(#SVGID_6_)" d="M3.417,43.833c0,0,22.333,1.917,33.833,2.917s19-0.75,19-0.75l1.73,3.358
			c0,0-24.681,3.403-50.706-0.645L3.417,43.833z"/>
	</g>
</mask>
<linearGradient id="SVGID_7_" gradientUnits="userSpaceOnUse" x1="30.5352" y1="49.4644" x2="30.7021" y2="46.5483">
	<stop  offset="0" style="stop-color:#FF1F1F"/>
	<stop  offset="1" style="stop-color:#5F0000"/>
</linearGradient>
<path opacity="0.54" fill="url(#SVGID_7_)" d="M3.417,43.833c0,0,22.333,1.917,33.833,2.917s19-0.75,19-0.75l1.73,3.358
	c0,0-24.681,3.403-50.706-0.645L3.417,43.833z"/>
<path fill="none" stroke="#231815" stroke-miterlimit="10" d="M1.667,42.667l8.5,9.167c0,0,24.499,3.5,48.583-0.5l-2.5-6.417
	c0,0-8.015,1.177-18.337,0.521C23.245,44.507,10.75,42.583,1.667,42.667z"/>
<linearGradient id="SVGID_8_" gradientUnits="userSpaceOnUse" x1="35.8843" y1="22.1523" x2="20.9673" y2="35.9858">
	<stop  offset="0" style="stop-color:#FFFFFF"/>
	<stop  offset="1" style="stop-color:#DBAD73"/>
</linearGradient>
<path fill="url(#SVGID_8_)" stroke="#000000" stroke-width="0.25" d="M29.235,37.917c0,0-0.826-32.98,1.303-36.407h0.712
	c0,0,6.539,27.574,14.25,37.324C45.5,38.833,34.554,37.583,29.235,37.917z"/>
<linearGradient id="SVGID_9_" gradientUnits="userSpaceOnUse" x1="16.5493" y1="25.3623" x2="32.9672" y2="47.114">
	<stop  offset="0" style="stop-color:#FFFFFF"/>
	<stop  offset="1" style="stop-color:#DBAD73"/>
</linearGradient>
<path fill="url(#SVGID_9_)" stroke="#000000" stroke-width="0.25" d="M27.125,33.75c0,0-7.709-10.333,1.917-25.484
	c0,0-12.475,10.913-26.142,32.663C2.9,40.928,17.875,42.164,27.125,33.75z"/>
<path fill="none" stroke="#231815" stroke-width="0.2" stroke-miterlimit="10" d="M1.667,42.667"/>
<path fill="#161616" d="M28.25,39.587c0,0-0.167-32.004,1.958-39.254L32.083,0v0.667l-1.385,0.417c0,0-1.698,0.587-1.448,38.504
	H28.25z"/>
<path fill="none" stroke="#231815" stroke-width="0.5" stroke-miterlimit="10" d="M30.208,0.333c0,0-3.357,23.596-2.533,44.298"/>
<linearGradient id="SVGID_10_" gradientUnits="userSpaceOnUse" x1="29.209" y1="49.8735" x2="45.6272" y2="68.2919">
	<stop  offset="0" style="stop-color:#5FD4FF"/>
	<stop  offset="1" style="stop-color:#1F7AFF"/>
</linearGradient>
<ellipse fill="url(#SVGID_10_)" cx="37.791" cy="59.5" rx="9.543" ry="0.833"/>
<linearGradient id="SVGID_11_" gradientUnits="userSpaceOnUse" x1="27.6338" y1="51.2817" x2="44.049" y2="69.6967">
	<stop  offset="0" style="stop-color:#5FD4FF"/>
	<stop  offset="1" style="stop-color:#1F7AFF"/>
</linearGradient>
<ellipse fill="url(#SVGID_11_)" cx="36.854" cy="61.625" rx="6.646" ry="0.708"/>
</svg>
