<?xml version="1.0" encoding="utf-8"?>
<!-- Generator: Adobe Illustrator 15.0.2, SVG Export Plug-In . SVG Version: 6.00 Build 0)  -->
<!DOCTYPE svg PUBLIC "-//W3C//DTD SVG 1.1//EN" "http://www.w3.org/Graphics/SVG/1.1/DTD/svg11.dtd">
<svg version="1.1" id="レイヤー_1" xmlns="http://www.w3.org/2000/svg" xmlns:xlink="http://www.w3.org/1999/xlink" x="0px"
	 y="0px" width="64px" height="64px" viewBox="0 0 64 64" style="enable-background:new 0 0 64 64;" xml:space="preserve">
<g>
	<path d="M27.2587891,59.2373047l5.9023438-9.1025391v-6.1015625c0-1.2128906-0.1855469-1.9980469-0.6005859-2.5429688
		c-0.3388672-0.4453125-1.0068359-0.9775391-2.2587891-0.9775391h-4.6660156c-1.5800781,0-2.453125,0.2412109-3.0175781,0.8349609
		c-0.5253906,0.5546875-0.7597656,1.3828125-0.7597656,2.6855469v3.453125c0,1.2734375,0.2128906,2.0888672,0.6914063,2.6484375
		c0.484375,0.5644531,1.2265625,0.8369141,2.5,0.8974609l-4.5253906,8.2050781H27.2587891z"/>
	<path d="M10.9775391,51.0332031l-4.5253906,8.2041016h6.7285156l5.9824219-9.0976563v-6.1064453
		c0-1.1933594-0.1933594-1.9746094-0.625-2.5332031c-0.3476563-0.4501953-1.0292969-0.9873047-2.3085938-0.9873047h-4.6660156
		c-1.5527344,0-2.4121094,0.2363281-2.9609375,0.8164063c-0.5195313,0.5478516-0.7421875,1.3574219-0.7421875,2.7041016v3.453125
		c0,1.2568359,0.1992188,2.0634766,0.6445313,2.6152344C9.0654297,50.7939453,9.9931641,50.9873047,10.9775391,51.0332031z"/>
</g>
</svg>
