<?xml version="1.0" encoding="utf-8"?>
<!-- Generator: Adobe Illustrator 16.0.0, SVG Export Plug-In . SVG Version: 6.00 Build 0)  -->
<!DOCTYPE svg PUBLIC "-//W3C//DTD SVG 1.1//EN" "http://www.w3.org/Graphics/SVG/1.1/DTD/svg11.dtd">
<svg version="1.1" id="Layer_24" xmlns="http://www.w3.org/2000/svg" xmlns:xlink="http://www.w3.org/1999/xlink" x="0px" y="0px"
	 width="64px" height="64px" viewBox="0 0 64 64" enable-background="new 0 0 64 64" xml:space="preserve">
<linearGradient id="SVGID_1_" gradientUnits="userSpaceOnUse" x1="29.0581" y1="102.624" x2="29.0581" y2="-57.5722">
	<stop  offset="0" style="stop-color:#2BC4F3"/>
	<stop  offset="0.5" style="stop-color:#00AEEE"/>
	<stop  offset="1" style="stop-color:#0095DA"/>
</linearGradient>
<path fill-rule="evenodd" clip-rule="evenodd" fill="url(#SVGID_1_)" stroke="#3E3A39" stroke-width="2" stroke-linecap="round" stroke-linejoin="round" stroke-miterlimit="10" d="
	M42.361,21.758c-2.987-2.989-7.157-3.709-9.546-1.737c-0.035,0.016-0.071,0.03-0.097,0.056L32.496,20.3l0,0l0,0L20.392,32.405
	c-0.311,0.311,0.108,1.287,1.021,2.591c0.069,0.119,0.154,0.25,0.238,0.381c-0.89-0.385-1.606-0.466-1.958-0.116
	c-0.049,0.05-0.065,0.126-0.099,0.188c-2.686-1.18-5.166-1.226-6.544,0.148c-0.813,0.812,1.993,4.934,6.261,9.2
	c4.273,4.279,8.394,7.081,9.205,6.27c1.379-1.379,1.333-3.86,0.149-6.55c0.062-0.033,0.138-0.049,0.187-0.098
	c0.352-0.351,0.271-1.066-0.115-1.957c0.136,0.088,0.274,0.177,0.398,0.249c1.299,0.905,2.271,1.32,2.581,1.011l12.328-12.321
	c0.028-0.028,0.044-0.066,0.061-0.104C46.07,28.908,45.351,24.751,42.361,21.758z"/>
<g>
	
		<rect x="16.34" y="29.132" transform="matrix(-0.7072 -0.707 0.707 -0.7072 32.7421 77.2868)" fill-rule="evenodd" clip-rule="evenodd" fill="#231815" width="32.069" height="5.463"/>
	
		<path fill-rule="evenodd" clip-rule="evenodd" fill="#3E3A39" stroke="#231815" stroke-width="2" stroke-linecap="round" stroke-linejoin="round" stroke-miterlimit="10" d="
		M48.438,24.271c0.314-0.316-0.948-2.896-3.319-5.269c-2.369-2.371-4.951-3.632-5.265-3.316l-5.163,7.794
		c-0.313,0.312,0.769,1.897,2.41,3.541c1.646,1.646,3.229,2.723,3.54,2.41L48.438,24.271z"/>
	<path fill-rule="evenodd" clip-rule="evenodd" fill="#3E3A39" d="M48.438,24.271c0.314-0.316-0.948-2.896-3.319-5.269
		c-2.369-2.371-4.951-3.632-5.265-3.316l-5.163,7.794c-0.313,0.312,0.769,1.897,2.41,3.541c1.646,1.646,3.229,2.723,3.54,2.41
		L48.438,24.271z"/>
	
		<ellipse transform="matrix(-0.7071 -0.7071 0.7071 -0.7071 54.8196 68.1393)" fill-rule="evenodd" clip-rule="evenodd" fill="#231815" cx="41.523" cy="22.715" rx="6.71" ry="2.155"/>
	
		<radialGradient id="SVGID_2_" cx="30.7739" cy="24.0225" r="7.0519" gradientTransform="matrix(0.7071 0.7071 -0.7071 0.7071 33.3838 -12.7849)" gradientUnits="userSpaceOnUse">
		<stop  offset="0" style="stop-color:#E5E2DF"/>
		<stop  offset="0" style="stop-color:#F1EFEE"/>
		<stop  offset="0" style="stop-color:#FFFFFF"/>
		<stop  offset="0.1259" style="stop-color:#F0F0F1"/>
		<stop  offset="0.3664" style="stop-color:#C9CACB"/>
		<stop  offset="0.5225" style="stop-color:#ADAEB0"/>
		<stop  offset="0.6029" style="stop-color:#A3A5A7"/>
		<stop  offset="0.7382" style="stop-color:#898D90"/>
		<stop  offset="0.9108" style="stop-color:#5F6769"/>
		<stop  offset="1" style="stop-color:#465053"/>
	</radialGradient>
	<path fill-rule="evenodd" clip-rule="evenodd" fill="url(#SVGID_2_)" d="M32.496,20.3c2.321-2.32,6.743-1.667,9.866,1.458
		c3.129,3.133,3.779,7.547,1.456,9.868c-2.314,2.313-6.73,1.667-9.861-1.459C30.828,27.04,30.177,22.621,32.496,20.3z"/>
	
		<linearGradient id="SVGID_3_" gradientUnits="userSpaceOnUse" x1="22.7666" y1="32.4209" x2="38.7822" y2="32.4209" gradientTransform="matrix(0.7071 0.7071 -0.7071 0.7071 33.3838 -12.7849)">
		<stop  offset="0" style="stop-color:#E5E2DF"/>
		<stop  offset="0" style="stop-color:#DED9D6"/>
		<stop  offset="0.063" style="stop-color:#CFCAC9"/>
		<stop  offset="0.1833" style="stop-color:#A8A4A7"/>
		<stop  offset="0.264" style="stop-color:#8B878D"/>
		<stop  offset="0.5225" style="stop-color:#F3F4F4"/>
		<stop  offset="0.5842" style="stop-color:#E5E5E6"/>
		<stop  offset="0.7027" style="stop-color:#C0BEC0"/>
		<stop  offset="0.8647" style="stop-color:#858085"/>
		<stop  offset="0.8764" style="stop-color:#807B80"/>
		<stop  offset="1" style="stop-color:#D1D3D4"/>
		<stop  offset="1" style="stop-color:#A7A9AC"/>
	</linearGradient>
	<path fill-rule="evenodd" clip-rule="evenodd" fill="url(#SVGID_3_)" d="M44.044,31.402c0.596-0.595-1.455-3.609-4.585-6.742
		c-3.126-3.124-6.144-5.177-6.741-4.582L20.392,32.405C19.798,33,21.85,36.01,24.978,39.139c3.129,3.128,6.145,5.177,6.738,4.584
		L44.044,31.402z"/>
	<path fill-rule="evenodd" clip-rule="evenodd" fill="#D7D06B" d="M21.052,33.593c0.497-0.495,3.021,1.215,5.635,3.83
		c2.621,2.621,4.337,5.145,3.839,5.642c-0.498,0.498-3.021-1.218-5.642-3.838C22.27,36.616,20.553,34.09,21.052,33.593z"/>
	
		<ellipse transform="matrix(-0.7071 -0.7071 0.7071 -0.7071 13.2643 85.1749)" fill-rule="evenodd" clip-rule="evenodd" fill="#3E3A39" cx="24.272" cy="39.84" rx="6.477" ry="2.08"/>
	
		<radialGradient id="SVGID_4_" cx="30.771" cy="45.6641" r="8.0068" gradientTransform="matrix(0.7071 0.7071 -0.7071 0.7071 33.3838 -12.7849)" gradientUnits="userSpaceOnUse">
		<stop  offset="0" style="stop-color:#E5E2DF"/>
		<stop  offset="0" style="stop-color:#F1EFEE"/>
		<stop  offset="0" style="stop-color:#FFFFFF"/>
		<stop  offset="0.1259" style="stop-color:#F0F0F1"/>
		<stop  offset="0.3664" style="stop-color:#C9CACB"/>
		<stop  offset="0.5225" style="stop-color:#ADAEB0"/>
		<stop  offset="0.6029" style="stop-color:#A3A5A7"/>
		<stop  offset="0.7382" style="stop-color:#898D90"/>
		<stop  offset="0.9108" style="stop-color:#5F6769"/>
		<stop  offset="1" style="stop-color:#465053"/>
	</radialGradient>
	<path fill-rule="evenodd" clip-rule="evenodd" fill="url(#SVGID_4_)" d="M13.05,35.598c2.287-2.279,7.602-0.675,11.871,3.592
		c4.273,4.275,5.882,9.591,3.595,11.878L13.05,35.598z"/>
	
		<linearGradient id="SVGID_5_" gradientUnits="userSpaceOnUse" x1="30.7705" y1="57.292" x2="30.7705" y2="36.6579" gradientTransform="matrix(0.7071 0.7071 -0.7071 0.7071 33.3838 -12.7849)">
		<stop  offset="0" style="stop-color:#2BC4F3"/>
		<stop  offset="0.5" style="stop-color:#00AEEE"/>
		<stop  offset="1" style="stop-color:#0095DA"/>
	</linearGradient>
	<path fill-rule="evenodd" clip-rule="evenodd" fill="url(#SVGID_5_)" d="M13.05,35.598c0.813-0.813,4.933,1.991,9.202,6.261
		c4.271,4.274,7.076,8.396,6.264,9.209c-0.812,0.812-4.932-1.99-9.205-6.27C15.043,40.531,12.237,36.409,13.05,35.598z"/>
	
		<linearGradient id="SVGID_6_" gradientUnits="userSpaceOnUse" x1="30.7705" y1="57.292" x2="30.7705" y2="36.6579" gradientTransform="matrix(0.7071 0.7071 -0.7071 0.7071 33.3838 -12.7849)">
		<stop  offset="0" style="stop-color:#2BC4F3"/>
		<stop  offset="0.5" style="stop-color:#00AEEE"/>
		<stop  offset="1" style="stop-color:#0095DA"/>
	</linearGradient>
	<path fill-rule="evenodd" clip-rule="evenodd" fill="url(#SVGID_6_)" d="M13.05,35.598c0.813-0.813,4.933,1.991,9.202,6.261
		c4.271,4.274,7.076,8.396,6.264,9.209c-0.812,0.812-4.932-1.99-9.205-6.27C15.043,40.531,12.237,36.409,13.05,35.598z"/>
	
		<linearGradient id="SVGID_7_" gradientUnits="userSpaceOnUse" x1="30.7705" y1="57.292" x2="30.7705" y2="36.6579" gradientTransform="matrix(0.7071 0.7071 -0.7071 0.7071 33.3838 -12.7849)">
		<stop  offset="0" style="stop-color:#2BC4F3"/>
		<stop  offset="0.5" style="stop-color:#00AEEE"/>
		<stop  offset="1" style="stop-color:#0095DA"/>
	</linearGradient>
	<path fill-rule="evenodd" clip-rule="evenodd" fill="url(#SVGID_7_)" d="M13.05,35.598c0.813-0.813,4.933,1.991,9.202,6.261
		c4.271,4.274,7.076,8.396,6.264,9.209c-0.812,0.812-4.932-1.99-9.205-6.27C15.043,40.531,12.237,36.409,13.05,35.598z"/>
	<path fill="#595757" d="M24.702,44.473l-6.324,0.582c-0.346,0.031-0.603,0.339-0.572,0.685c0.017,0.152,0.082,0.288,0.184,0.39
		c0.127,0.128,0.309,0.199,0.505,0.18l7.107-0.652c0.031-0.002,0.054-0.018,0.083-0.025C25.376,45.255,25.048,44.868,24.702,44.473z
		"/>
	<path fill="#595757" d="M19.645,39.414c-0.396-0.347-0.781-0.675-1.159-0.981c-0.006,0.027-0.022,0.051-0.024,0.082l-0.655,7.11
		c-0.018,0.193,0.055,0.375,0.183,0.504c0.102,0.1,0.235,0.166,0.389,0.182c0.346,0.032,0.652-0.225,0.685-0.571L19.645,39.414z"/>
	
		<radialGradient id="SVGID_8_" cx="30.771" cy="51.9141" r="1.3364" gradientTransform="matrix(0.7071 0.7071 -0.7071 0.7071 33.3838 -12.7849)" gradientUnits="userSpaceOnUse">
		<stop  offset="0.1798" style="stop-color:#F4E8D9"/>
		<stop  offset="0.5899" style="stop-color:#EDD089"/>
		<stop  offset="1" style="stop-color:#C08329"/>
	</radialGradient>
	<path fill-rule="evenodd" clip-rule="evenodd" fill="url(#SVGID_8_)" d="M17.588,44.834c0.57-0.57,1.409-0.654,1.879-0.187
		c0.463,0.469,0.385,1.31-0.186,1.88c-0.571,0.569-1.416,0.653-1.884,0.187C16.932,46.246,17.017,45.405,17.588,44.834z"/>
	<g>
		
			<polygon fill-rule="evenodd" clip-rule="evenodd" fill="#91D9F8" stroke="#036EB5" stroke-linecap="round" stroke-linejoin="round" stroke-miterlimit="10" points="
			45.666,41.289 41.805,37.427 45.666,33.57 49.529,37.427 		"/>
		
			<rect x="46.798" y="38.557" transform="matrix(0.7072 0.707 -0.707 0.7072 43.694 -22.9283)" fill-rule="evenodd" clip-rule="evenodd" fill="#2CA4DE" stroke="#036EB5" stroke-linecap="round" stroke-linejoin="round" stroke-miterlimit="10" width="5.461" height="5.463"/>
		
			<rect x="50.659" y="42.421" transform="matrix(0.707 0.7072 -0.7072 0.707 47.5745 -24.5298)" fill-rule="evenodd" clip-rule="evenodd" fill="#2CA4DE" stroke="#036EB5" stroke-linecap="round" stroke-linejoin="round" stroke-miterlimit="10" width="5.466" height="5.462"/>
		
			<rect x="39.072" y="38.559" transform="matrix(0.707 0.7072 -0.7072 0.707 41.4485 -17.4667)" fill-rule="evenodd" clip-rule="evenodd" fill="#2CA4DE" stroke="#036EB5" stroke-linecap="round" stroke-linejoin="round" stroke-miterlimit="10" width="5.466" height="5.464"/>
		
			<rect x="42.936" y="42.421" transform="matrix(0.7071 0.7071 -0.7071 0.7071 45.3028 -19.0659)" fill-rule="evenodd" clip-rule="evenodd" fill="#2CA4DE" stroke="#036EB5" stroke-linecap="round" stroke-linejoin="round" stroke-miterlimit="10" width="5.461" height="5.464"/>
		
			<rect x="46.798" y="46.282" transform="matrix(0.7072 0.707 -0.707 0.7072 49.1556 -20.666)" fill-rule="evenodd" clip-rule="evenodd" fill="#91D9F8" stroke="#036EB5" stroke-linecap="round" stroke-linejoin="round" stroke-miterlimit="10" width="5.461" height="5.464"/>
		
			<rect x="35.209" y="42.422" transform="matrix(0.707 0.7072 -0.7072 0.707 43.0477 -13.6032)" fill-rule="evenodd" clip-rule="evenodd" fill="#2CA4DE" stroke="#036EB5" stroke-linecap="round" stroke-linejoin="round" stroke-miterlimit="10" width="5.466" height="5.461"/>
		
			<rect x="39.074" y="46.285" transform="matrix(0.7072 0.707 -0.707 0.7072 46.8955 -15.2047)" fill-rule="evenodd" clip-rule="evenodd" fill="#0088CE" stroke="#036EB5" stroke-linecap="round" stroke-linejoin="round" stroke-miterlimit="10" width="5.461" height="5.461"/>
		
			<rect x="42.936" y="50.147" transform="matrix(0.7071 0.7071 -0.7071 0.7071 50.7649 -16.8035)" fill-rule="evenodd" clip-rule="evenodd" fill="#2CA4DE" stroke="#036EB5" stroke-linecap="round" stroke-linejoin="round" stroke-miterlimit="10" width="5.461" height="5.461"/>
		
			<rect x="54.523" y="46.283" transform="matrix(0.707 0.7072 -0.7072 0.707 51.4367 -26.1288)" fill-rule="evenodd" clip-rule="evenodd" fill="#91D9F8" stroke="#036EB5" stroke-linecap="round" stroke-linejoin="round" stroke-miterlimit="10" width="5.46" height="5.462"/>
		
			<rect x="50.661" y="50.146" transform="matrix(0.7072 0.707 -0.707 0.7072 53.0187 -22.2664)" fill-rule="evenodd" clip-rule="evenodd" fill="#2CA4DE" stroke="#036EB5" stroke-linecap="round" stroke-linejoin="round" stroke-miterlimit="10" width="5.463" height="5.463"/>
		
			<rect x="46.797" y="54.009" transform="matrix(0.7071 0.7071 -0.7071 0.7071 54.6274 -18.4036)" fill-rule="evenodd" clip-rule="evenodd" fill="#2CA4DE" stroke="#036EB5" stroke-linecap="round" stroke-linejoin="round" stroke-miterlimit="10" width="5.464" height="5.461"/>
	</g>
	<g>
		
			<rect x="16.212" y="23.43" transform="matrix(-0.7072 -0.707 0.707 -0.7072 13.8423 58.0539)" fill-rule="evenodd" clip-rule="evenodd" fill="#91D9F8" stroke="#036EB5" stroke-linecap="round" stroke-linejoin="round" stroke-miterlimit="10" width="5.461" height="5.462"/>
		
			<rect x="12.35" y="19.567" transform="matrix(-0.7069 -0.7073 0.7073 -0.7069 9.9701 48.7279)" fill-rule="evenodd" clip-rule="evenodd" fill="#2CA4DE" stroke="#036EB5" stroke-linecap="round" stroke-linejoin="round" stroke-miterlimit="10" width="5.462" height="5.462"/>
		
			<rect x="8.488" y="15.705" transform="matrix(-0.7071 -0.7071 0.7071 -0.7071 6.115 39.406)" fill-rule="evenodd" clip-rule="evenodd" fill="#2CA4DE" stroke="#036EB5" stroke-linecap="round" stroke-linejoin="round" stroke-miterlimit="10" width="5.462" height="5.464"/>
		
			<rect x="20.074" y="19.568" transform="matrix(-0.707 -0.7072 0.7072 -0.707 23.1595 54.1914)" fill-rule="evenodd" clip-rule="evenodd" fill="#2CA4DE" stroke="#036EB5" stroke-linecap="round" stroke-linejoin="round" stroke-miterlimit="10" width="5.463" height="5.461"/>
		
			<rect x="16.212" y="15.705" transform="matrix(-0.7071 -0.7071 0.7071 -0.7071 19.3009 44.8677)" fill-rule="evenodd" clip-rule="evenodd" fill="#2CA4DE" stroke="#036EB5" stroke-linecap="round" stroke-linejoin="round" stroke-miterlimit="10" width="5.462" height="5.463"/>
		
			<rect x="12.35" y="11.843" transform="matrix(-0.7069 -0.7073 0.7073 -0.7069 15.4357 35.5424)" fill-rule="evenodd" clip-rule="evenodd" fill="#91D9F8" stroke="#036EB5" stroke-linecap="round" stroke-linejoin="round" stroke-miterlimit="10" width="5.462" height="5.461"/>
		
			<rect x="23.936" y="15.706" transform="matrix(-0.7071 -0.7071 0.7071 -0.7071 32.4873 50.3307)" fill-rule="evenodd" clip-rule="evenodd" fill="#2CA4DE" stroke="#036EB5" stroke-linecap="round" stroke-linejoin="round" stroke-miterlimit="10" width="5.462" height="5.462"/>
		
			<rect x="20.073" y="11.843" transform="matrix(-0.707 -0.7072 0.7072 -0.707 28.6219 41.0042)" fill-rule="evenodd" clip-rule="evenodd" fill="#0088CE" stroke="#036EB5" stroke-linecap="round" stroke-linejoin="round" stroke-miterlimit="10" width="5.464" height="5.461"/>
		
			<rect x="16.212" y="7.98" transform="matrix(-0.7072 -0.707 0.707 -0.7072 24.7652 31.6791)" fill-rule="evenodd" clip-rule="evenodd" fill="#2CA4DE" stroke="#036EB5" stroke-linecap="round" stroke-linejoin="round" stroke-miterlimit="10" width="5.461" height="5.462"/>
		
			<rect x="4.626" y="11.842" transform="matrix(-0.707 -0.7072 0.7072 -0.707 2.2519 30.0804)" fill-rule="evenodd" clip-rule="evenodd" fill="#91D9F8" stroke="#036EB5" stroke-linecap="round" stroke-linejoin="round" stroke-miterlimit="10" width="5.463" height="5.463"/>
		
			<rect x="8.487" y="7.979" transform="matrix(-0.7071 -0.7071 0.7071 -0.7071 11.5782 26.2167)" fill-rule="evenodd" clip-rule="evenodd" fill="#2CA4DE" stroke="#036EB5" stroke-linecap="round" stroke-linejoin="round" stroke-miterlimit="10" width="5.464" height="5.463"/>
		
			<rect x="12.35" y="4.119" transform="matrix(-0.7071 -0.7071 0.7071 -0.7071 20.9014 22.3549)" fill-rule="evenodd" clip-rule="evenodd" fill="#2CA4DE" stroke="#036EB5" stroke-linecap="round" stroke-linejoin="round" stroke-miterlimit="10" width="5.462" height="5.46"/>
	</g>
	
		<path fill-rule="evenodd" clip-rule="evenodd" fill="none" stroke="#3E3A39" stroke-linecap="round" stroke-linejoin="round" stroke-miterlimit="10" d="
		M25.543,45.027"/>
	<polygon fill-rule="evenodd" clip-rule="evenodd" fill="#2CA4DE" points="28.486,36.383 27.707,35.604 30.71,32.607 31.492,33.384 
			"/>
	
		<rect x="32.634" y="36.643" transform="matrix(0.708 0.7062 -0.7062 0.708 37.0701 -12.1156)" fill-rule="evenodd" clip-rule="evenodd" fill="#036EB5" width="1.103" height="4.251"/>
	
		<rect x="24.837" y="28.856" transform="matrix(0.7058 0.7084 -0.7084 0.7058 29.4167 -8.871)" fill-rule="evenodd" clip-rule="evenodd" fill="#036EB5" width="1.103" height="4.247"/>
	
		<path fill-rule="evenodd" clip-rule="evenodd" fill="none" stroke="#D8DD00" stroke-width="1.5064" stroke-linecap="round" stroke-linejoin="round" stroke-miterlimit="10" d="
		M4.827,44.137c0,0,2.228,11.807,15.148,15.148"/>
	
		<path fill-rule="evenodd" clip-rule="evenodd" fill="none" stroke="#D8DD00" stroke-width="1.5064" stroke-linecap="round" stroke-linejoin="round" stroke-miterlimit="10" d="
		M11.537,44.231c0,0,1.229,6.502,8.345,8.343"/>
</g>
</svg>
