<?xml version="1.0" encoding="utf-8"?>
<!-- Generator: Adobe Illustrator 15.0.2, SVG Export Plug-In . SVG Version: 6.00 Build 0)  -->
<!DOCTYPE svg PUBLIC "-//W3C//DTD SVG 1.1//EN" "http://www.w3.org/Graphics/SVG/1.1/DTD/svg11.dtd">
<svg version="1.1" id="レイヤー_1" xmlns="http://www.w3.org/2000/svg" xmlns:xlink="http://www.w3.org/1999/xlink" x="0px"
	 y="0px" width="64px" height="64px" viewBox="0 0 64 64" enable-background="new 0 0 64 64" xml:space="preserve">
<g>
	<path fill="#EFAF7B" stroke="#510202" stroke-width="1.4616" stroke-miterlimit="1" d="M16.459,53.5c0,0-22.459-3.861-7.084-39.482
		l4.125-2.983c0,0-13.5,24.09-2.25,34.965c7.468,7.219,8.75,3.639,8.75,3.639L16.459,53.5z"/>
	<polygon fill="#EFAF7B" stroke="#510202" stroke-width="1.4616" stroke-miterlimit="1" points="36.889,6.125 32.064,16.431 
		39.444,14.92 	"/>
	<path fill="#EA111C" stroke="#510202" stroke-width="1.4616" stroke-miterlimit="1" d="M8.862,14.92c0,0,3.11-3.885,5.513-3.885
		c5.625,0,15.247,2.886,14.625,4.84l-3.818,2.917C25.182,18.792,15.632,8.125,8.862,14.92z"/>
	<path fill="#EA111C" stroke="#510202" stroke-width="1.4616" stroke-miterlimit="1" d="M37,14.018c0,0-0.25-5.018,0-7.143h3.812
		l1.188,6.625L37,14.018z"/>
	<path fill="#EA111C" stroke="#510202" stroke-width="1.4616" stroke-miterlimit="10" d="M15.5,25.074c0,0,0-10.303,8.737-10.303
		c13.343,0,7.793,34.928,7.793,45.608L15.5,55.73V25.074z"/>
	<polygon fill="#5E1600" points="15.632,23.496 31.827,27.124 40.313,18.792 35.101,19.545 	"/>
	<path fill="#872F1B" d="M24.039,15.045c-5.351,0.605-7.448,5.113-7.58,8.45l18.523-3.322C34.982,20.174,33.54,13.971,24.039,15.045
		z"/>
	<linearGradient id="SVGID_1_" gradientUnits="userSpaceOnUse" x1="39.0186" y1="13.9741" x2="46.9898" y2="57.8177">
		<stop  offset="0" style="stop-color:#FF001B"/>
		<stop  offset="0.067" style="stop-color:#FF021D"/>
		<stop  offset="0.0912" style="stop-color:#FF0923"/>
		<stop  offset="0.1084" style="stop-color:#FF142E"/>
		<stop  offset="0.1223" style="stop-color:#FF253E"/>
		<stop  offset="0.1342" style="stop-color:#FF3B52"/>
		<stop  offset="0.1448" style="stop-color:#FF576B"/>
		<stop  offset="0.1543" style="stop-color:#FF7789"/>
		<stop  offset="0.1628" style="stop-color:#FF9BAB"/>
		<stop  offset="0.1697" style="stop-color:#FFBFCC"/>
		<stop  offset="0.1968" style="stop-color:#FDB8C5"/>
		<stop  offset="0.5951" style="stop-color:#DC565C"/>
		<stop  offset="0.871" style="stop-color:#C7181A"/>
		<stop  offset="1" style="stop-color:#BF0000"/>
	</linearGradient>
	<path fill="url(#SVGID_1_)" stroke="#510202" stroke-width="1.4616" stroke-miterlimit="1" d="M22.5,14.967l22.637-3.588
		c0,0,12.988,0.251,12.988,18.972c0,18.721,0,22.238,0,22.238l-26.095,7.79c0,0,0-18.972,0-25.693
		C32.03,27.963,33.175,15.776,22.5,14.967z"/>
	
		<line fill="none" stroke="#510202" stroke-width="1.4616" stroke-miterlimit="10" x1="15.632" y1="23.496" x2="32.667" y2="27.124"/>
	
		<line fill="none" stroke="#510202" stroke-width="1.4616" stroke-miterlimit="10" x1="15.632" y1="27.124" x2="32.064" y2="30.979"/>
	<line fill="none" stroke="#510202" stroke-width="1.4616" stroke-miterlimit="10" x1="15.5" y1="34.12" x2="32.03" y2="38.518"/>
	<line fill="none" stroke="#510202" stroke-width="1.4616" stroke-miterlimit="10" x1="15.5" y1="37.575" x2="32.03" y2="41.973"/>
	
		<line fill="none" stroke="#510202" stroke-width="1.4616" stroke-miterlimit="10" x1="21.876" y1="57.383" x2="21.876" y2="39.146"/>
	
		<line fill="none" stroke="#510202" stroke-width="1.4616" stroke-miterlimit="10" x1="25.182" y1="58.758" x2="25.182" y2="40.52"/>
	<path opacity="0.75" fill="none" stroke="#AA1111" stroke-miterlimit="1" d="M29,14.92c0,0,5.965,2.307,5.982,14.131
		s0,15.699,0,18.449s1.268,7.625,4.518,6.75s13.748-4.545,13.748-4.545s1.75,0.125,1.75-4.75s0-16.125,0-19.125
		S54.563,15.813,43.75,12.506"/>
	<ellipse fill="#FFFDFD" cx="41.999" cy="54.354" rx="1.188" ry="1.563"/>
	<ellipse fill="#FFFDFD" cx="51.625" cy="51.201" rx="1.188" ry="1.563"/>
</g>
</svg>
