<?xml version="1.0" encoding="utf-8"?>
<!-- Generator: Adobe Illustrator 15.0.0, SVG Export Plug-In . SVG Version: 6.00 Build 0)  -->
<!DOCTYPE svg PUBLIC "-//W3C//DTD SVG 1.1//EN" "http://www.w3.org/Graphics/SVG/1.1/DTD/svg11.dtd">
<svg version="1.1" id="レイヤー_1" xmlns="http://www.w3.org/2000/svg" xmlns:xlink="http://www.w3.org/1999/xlink" x="0px"
	 y="0px" width="64px" height="64px" viewBox="0 0 64 64" style="enable-background:new 0 0 64 64;" xml:space="preserve">
<g>
	
		<radialGradient id="SVGID_1_" cx="58.7021484" cy="44.0722656" r="17.7748985" gradientTransform="matrix(1.2416762 -0.1017852 0.0095869 0.1169487 -41.311306 59.8059502)" gradientUnits="userSpaceOnUse">
		<stop  offset="0" style="stop-color:#585858"/>
		<stop  offset="0.5340474" style="stop-color:#545454;stop-opacity:0.4659526"/>
		<stop  offset="1" style="stop-color:#4A4A4A;stop-opacity:0"/>
	</radialGradient>
	<path style="opacity:0.75;fill:url(#SVGID_1_);" d="M55.8789063,57.0273438
		c0.1064453,1.2988281-10.4980469,3.2265625-23.6904297,4.3076172c-13.1875,1.0810547-23.9609375,0.90625-24.0673828-0.3916016
		c-0.1064453-1.2988281,10.4941406-3.2255859,23.6826172-4.3066406
		C44.9960938,55.5556641,55.7724609,55.7294922,55.8789063,57.0273438z"/>
	<g>
		<polygon style="fill:#E00012;" points="44.3652344,53.5 41.6103516,53.2167969 47.8310547,52.625 46.4189453,52.1357422 
			22.0351563,54.4267578 24.9257813,56.1269531 50.2128906,53.4501953 49.03125,53.0410156 		"/>
		<path d="M24.9257813,56.3769531c-0.0449219,0-0.0888672-0.0117188-0.1269531-0.0341797l-2.890625-1.7001953
			c-0.09375-0.0556641-0.140625-0.1640625-0.1171875-0.2705078c0.0234375-0.1054688,0.1123047-0.1835938,0.2207031-0.1943359
			l24.3837891-2.2910156c0.0351563-0.0048828,0.0712891,0.0009766,0.1054688,0.0126953l1.4121094,0.4892578
			c0.1113281,0.0390625,0.1806641,0.1494141,0.1660156,0.265625c-0.0136719,0.1171875-0.1074219,0.2080078-0.2246094,0.2197266
			l-3.7060547,0.3525391l0.2421875,0.0244141l4.6162109-0.4589844c0.0341797-0.0048828,0.0722656,0.0009766,0.1064453,0.0126953
			l1.1816406,0.4091797c0.1103516,0.0380859,0.1796875,0.1484375,0.1660156,0.2646484
			c-0.0126953,0.1162109-0.1054688,0.2080078-0.2216797,0.2207031l-25.2871094,2.6767578
			C24.9433594,56.3769531,24.9345703,56.3769531,24.9257813,56.3769531z M22.828125,54.6035156l2.1533203,1.2666016
			l24.0898438-2.5507813l-0.0703125-0.0244141l-4.6113281,0.4541016l-2.8046875-0.2832031
			c-0.1279297-0.0136719-0.2246094-0.1210938-0.2246094-0.25c0.0009766-0.1289063,0.0986328-0.2353516,0.2265625-0.2480469
			l5.0761719-0.4824219l-0.2744141-0.0957031L22.828125,54.6035156z"/>
	</g>
	<g>
		<path d="M24.9257813,56.0371094l-2.8652344-1.7255859l0.8115234-3.4394531c0,0,3.6611328-0.3925781,5.9853516,4.6669922
			L24.9257813,56.0371094z"/>
		<path d="M24.9257813,56.2871094c-0.0458984,0-0.0898438-0.0126953-0.1289063-0.0361328l-2.8652344-1.7255859
			c-0.09375-0.0556641-0.1396484-0.1660156-0.1142578-0.2714844l0.8115234-3.4394531
			c0.0234375-0.1025391,0.1113281-0.1787109,0.2167969-0.1914063c0,0,0.0751953-0.0078125,0.2119141-0.0078125
			c0.8945313,0,3.9726563,0.3476563,6.0263672,4.8193359c0.0332031,0.0722656,0.0302734,0.15625-0.0078125,0.2255859
			c-0.0390625,0.0703125-0.1083984,0.1171875-0.1875,0.1269531l-3.9316406,0.4980469
			C24.9462891,56.2861328,24.9355469,56.2871094,24.9257813,56.2871094z M22.3457031,54.1914063l2.6347656,1.5869141
			l3.5029297-0.4443359c-1.9130859-3.8867188-4.5966797-4.2158203-5.4121094-4.21875L22.3457031,54.1914063z"/>
	</g>
	<g>
		<g>
			<path style="fill:#2B2627;" d="M46.5800781,49.2060547c-2.1152344,0-3.828125,1.7138672-3.828125,3.828125
				c0,2.1132813,1.7128906,3.8271484,3.828125,3.8271484c2.1132813,0,3.8271484-1.7138672,3.8271484-3.8271484
				C50.4072266,50.9199219,48.6933594,49.2060547,46.5800781,49.2060547z M46.5800781,55.9501953
				c-1.6113281,0-2.9169922-1.3056641-2.9169922-2.9160156c0-1.6113281,1.3056641-2.9169922,2.9169922-2.9169922
				c1.609375,0,2.9160156,1.3056641,2.9160156,2.9169922C49.4960938,54.6445313,48.1894531,55.9501953,46.5800781,55.9501953z"/>
			<path d="M46.5800781,56.9658203c-2.1679688,0-3.9326172-1.7636719-3.9326172-3.9316406s1.7646484-3.9326172,3.9326172-3.9326172
				s3.9316406,1.7646484,3.9316406,3.9326172S48.7480469,56.9658203,46.5800781,56.9658203z M46.5800781,49.3105469
				c-2.0537109,0-3.7236328,1.6699219-3.7236328,3.7236328c0,2.0527344,1.6699219,3.7226563,3.7236328,3.7226563
				c2.0527344,0,3.7226563-1.6699219,3.7226563-3.7226563C50.3027344,50.9804688,48.6328125,49.3105469,46.5800781,49.3105469z
				 M46.5800781,56.0546875c-1.6660156,0-3.0214844-1.3554688-3.0214844-3.0205078
				c0-1.6660156,1.3554688-3.0214844,3.0214844-3.0214844c1.6650391,0,3.0205078,1.3554688,3.0205078,3.0214844
				C49.6005859,54.6992188,48.2451172,56.0546875,46.5800781,56.0546875z M46.5800781,50.2216797
				c-1.5507813,0-2.8125,1.2617188-2.8125,2.8125s1.2617188,2.8115234,2.8125,2.8115234s2.8115234-1.2607422,2.8115234-2.8115234
				S48.1308594,50.2216797,46.5800781,50.2216797z"/>
		</g>
		<g>
			<g>
				<rect x="46.7578125" y="50.2607422" style="fill:#717071;" width="0.9238281" height="6.4091797"/>
				<path d="M47.6816406,56.7734375h-0.9238281c-0.0566406,0-0.1035156-0.046875-0.1035156-0.1035156v-6.4091797
					c0-0.0566406,0.046875-0.1035156,0.1035156-0.1035156h0.9238281c0.0566406,0,0.1035156,0.046875,0.1035156,0.1035156v6.4091797
					C47.7851563,56.7265625,47.7382813,56.7734375,47.6816406,56.7734375z M46.8613281,56.5664063h0.7167969v-6.2021484h-0.7167969
					V56.5664063z"/>
			</g>
			<g>
				
					<rect x="46.7581062" y="50.2607079" transform="matrix(-0.7065777 0.7076355 -0.7076355 -0.7065777 118.4184418 57.8292236)" style="fill:#717071;" width="0.9232442" height="6.4102268"/>
				<path d="M49.1591797,56.1611328c-0.0263672,0-0.0527344-0.0107422-0.0732422-0.0302734l-4.5322266-4.53125
					c-0.0400391-0.0410156-0.0400391-0.1054688,0-0.1464844l0.6523438-0.6533203
					c0.0390625-0.0371094,0.1074219-0.0390625,0.1464844,0l4.5332031,4.5322266
					c0.0195313,0.0195313,0.0302734,0.0458984,0.0302734,0.0732422s-0.0107422,0.0537109-0.0302734,0.0732422l-0.6533203,0.6523438
					C49.2119141,56.1503906,49.1855469,56.1611328,49.1591797,56.1611328z M44.7724609,51.5263672l4.3867188,4.3857422
					l0.5078125-0.5068359l-4.3876953-4.3867188L44.7724609,51.5263672z"/>
			</g>
			<g>
				<rect x="44.0146484" y="53.0039063" style="fill:#717071;" width="6.4091797" height="0.9238281"/>
				<path d="M44.0146484,54.03125c-0.0273438,0-0.0537109-0.0107422-0.0732422-0.0302734s-0.0302734-0.0458984-0.0302734-0.0732422
					v-0.9238281c0-0.0566406,0.046875-0.1035156,0.1035156-0.1035156h6.4091797c0.0566406,0,0.1035156,0.046875,0.1035156,0.1035156
					v0.9228516c0,0.0566406-0.046875,0.1035156-0.1035156,0.1035156L44.0146484,54.03125z M44.1181641,53.1074219v0.7167969
					l6.2021484-0.0009766v-0.7158203H44.1181641z"/>
			</g>
			<g>
				
					<rect x="46.7579613" y="50.2605629" transform="matrix(0.7071068 0.7071068 -0.7071068 0.7071068 51.6358948 -17.7294083)" style="fill:#717071;" width="0.9225534" height="6.4095364"/>
				<path d="M45.2792969,56.1611328c-0.0263672,0-0.0527344-0.0107422-0.0732422-0.0302734l-0.6523438-0.6523438
					c-0.0400391-0.0410156-0.0400391-0.1054688,0-0.1464844l4.5322266-4.5322266
					c0.0410156-0.0390625,0.1054688-0.0390625,0.1464844,0l0.6533203,0.6523438
					c0.0195313,0.0195313,0.0302734,0.0458984,0.0302734,0.0732422s-0.0107422,0.0537109-0.0302734,0.0732422l-4.5332031,4.5322266
					C45.3320313,56.1503906,45.3056641,56.1611328,45.2792969,56.1611328z M44.7724609,55.4052734l0.5068359,0.5068359
					l4.3876953-4.3867188l-0.5078125-0.5068359L44.7724609,55.4052734z"/>
			</g>
			<g>
				<path style="fill:#C3C4C5;" d="M47.2197266,49.6728516c-2.0947266,0-3.7919922,1.6982422-3.7919922,3.7929688
					c0,2.09375,1.6972656,3.7919922,3.7919922,3.7919922c2.09375,0,3.7919922-1.6982422,3.7919922-3.7919922
					C51.0117188,51.3710938,49.3134766,49.6728516,47.2197266,49.6728516z M47.2197266,56.3544922
					c-1.5966797,0-2.8896484-1.2929688-2.8896484-2.8886719c0-1.5966797,1.2929688-2.8896484,2.8896484-2.8896484
					c1.5957031,0,2.8886719,1.2929688,2.8886719,2.8896484C50.1083984,55.0615234,48.8154297,56.3544922,47.2197266,56.3544922z"/>
				<path d="M47.2197266,57.3613281c-2.1474609,0-3.8955078-1.7480469-3.8955078-3.8955078
					c0-2.1484375,1.7480469-3.8964844,3.8955078-3.8964844s3.8955078,1.7480469,3.8955078,3.8964844
					C51.1152344,55.6132813,49.3671875,57.3613281,47.2197266,57.3613281z M47.2197266,49.7763672
					c-2.0341797,0-3.6884766,1.6552734-3.6884766,3.6894531s1.6542969,3.6884766,3.6884766,3.6884766
					S50.9082031,55.5,50.9082031,53.4658203S49.2539063,49.7763672,47.2197266,49.7763672z M47.2197266,56.4580078
					c-1.6503906,0-2.9931641-1.3427734-2.9931641-2.9921875c0-1.6503906,1.3427734-2.9931641,2.9931641-2.9931641
					c1.6494141,0,2.9921875,1.3427734,2.9921875,2.9931641C50.2119141,55.1152344,48.8691406,56.4580078,47.2197266,56.4580078z
					 M47.2197266,50.6796875c-1.5361328,0-2.7861328,1.25-2.7861328,2.7861328s1.25,2.7851563,2.7861328,2.7851563
					s2.7851563-1.2490234,2.7851563-2.7851563S48.7558594,50.6796875,47.2197266,50.6796875z"/>
			</g>
			<g>
				<circle style="fill:#C3C4C5;" cx="47.2192383" cy="53.4648438" r="0.9233398"/>
				<path d="M47.21875,54.4921875c-0.5654297,0-1.0263672-0.4609375-1.0263672-1.0273438
					c0-0.5654297,0.4609375-1.0263672,1.0263672-1.0263672c0.5664063,0,1.0273438,0.4609375,1.0273438,1.0263672
					C48.2460938,54.03125,47.7851563,54.4921875,47.21875,54.4921875z M47.21875,52.6455078
					c-0.4521484,0-0.8193359,0.3671875-0.8193359,0.8193359s0.3671875,0.8203125,0.8193359,0.8203125
					s0.8203125-0.3681641,0.8203125-0.8203125S47.6708984,52.6455078,47.21875,52.6455078z"/>
			</g>
		</g>
	</g>
	<g>
		
			<rect x="20.7132626" y="5.2582088" transform="matrix(0.9696845 -0.2443605 0.2443605 0.9696845 -0.6643028 6.8772826)" style="fill:#E00012;" width="13.3439837" height="1.7155157"/>
		<path d="M20.9433594,8.8818359l-0.5410156-2.1484375l13.4228516-3.3828125l0.5429688,2.1479492L20.9433594,8.8818359z
			 M21.0097656,7.0957031l0.2958984,1.1787109l12.4550781-3.1381836l-0.2978516-1.1782227L21.0097656,7.0957031z"/>
	</g>
	<g>
		<polygon style="fill:#AF0B1F;" points="22.0351563,54.2275391 24.9257813,55.9277344 24.9257813,57.6279297 
			22.0351563,55.9277344 		"/>
		<path d="M24.9257813,57.8779297c-0.0439453,0-0.0878906-0.0117188-0.1269531-0.0341797l-2.890625-1.7001953
			c-0.0761719-0.0449219-0.1230469-0.1269531-0.1230469-0.2158203v-1.7001953c0-0.0898438,0.0478516-0.1728516,0.1259766-0.2167969
			c0.078125-0.0458984,0.1728516-0.0439453,0.2509766,0.0009766l2.890625,1.7001953
			c0.0761719,0.0449219,0.1230469,0.1269531,0.1230469,0.2158203v1.7001953c0,0.0898438-0.0478516,0.1728516-0.1259766,0.2167969
			C25.0107422,57.8671875,24.96875,57.8779297,24.9257813,57.8779297z M22.2851563,55.7851563l2.390625,1.4052734v-1.1201172
			l-2.390625-1.4052734V55.7851563z"/>
	</g>
	<g>
		<polygon style="fill:#AF0B1F;" points="50.2128906,53.4501953 24.9257813,56.0693359 24.9257813,57.6279297 
			50.2128906,54.8173828 		"/>
		<path d="M24.9257813,57.8779297c-0.0615234,0-0.1210938-0.0224609-0.1669922-0.0634766
			c-0.0527344-0.0478516-0.0830078-0.1152344-0.0830078-0.1865234v-1.5585938c0-0.1279297,0.0966797-0.2353516,0.2236328-0.2490234
			L50.1875,53.2011719c0.0644531-0.0087891,0.1396484,0.015625,0.1923828,0.0634766
			c0.0527344,0.046875,0.0830078,0.1152344,0.0830078,0.1855469v1.3671875c0,0.1269531-0.0957031,0.234375-0.2226563,0.2480469
			L24.953125,57.8759766C24.9443359,57.8769531,24.9345703,57.8779297,24.9257813,57.8779297z M25.1757813,56.2949219v1.0537109
			L49.9628906,54.59375v-0.8662109L25.1757813,56.2949219z"/>
	</g>
	<g>
		
			<rect x="20.5565701" y="44.6352463" transform="matrix(0.8988832 -0.4381883 0.4381883 0.8988832 -19.7228813 14.529213)" style="fill:#E00012;" width="2.1261191" height="10.7275505"/>
		<path d="M22.8994141,55.6201172l-4.9208984-10.0917969l2.3603516-1.1494141l4.9208984,10.0908203L22.8994141,55.6201172z
			 M18.6474609,45.7587891l4.4824219,9.1933594l1.4609375-0.7128906l-4.4824219-9.1923828L18.6474609,45.7587891z"/>
	</g>
	<g>
		
			<rect x="21.9999714" y="4.9806614" transform="matrix(0.9783641 0.2068909 -0.2068909 0.9783641 6.2841854 -4.1663208)" style="fill:#E00012;" width="2.1240816" height="45.9639702"/>
		<path d="M19.5390625,50.9628906l-2.5683594-0.5419922l9.6152344-45.4589844l2.5673828,0.543457L19.5390625,50.9628906z
			 M17.5634766,50.0341797l1.5898438,0.3369141l9.4072266-44.4799805l-1.5888672-0.3364258L17.5634766,50.0341797z"/>
	</g>
	<g>
		
			<rect x="18.4110489" y="40.0925484" transform="matrix(0.9783754 0.2068368 -0.2068368 0.9783754 9.2571115 -3.2367973)" width="3.3946979" height="5.1215453"/>
		<path d="M21.3212891,45.6347656l-3.5283203-0.7460938l0.0214844-0.1025391l1.0810547-5.1142578l3.5283203,0.7460938
			l-0.0214844,0.1025391L21.3212891,45.6347656z M18.0429688,44.7265625l3.1152344,0.6582031l1.015625-4.8046875
			l-3.1152344-0.6582031L18.0429688,44.7265625z"/>
	</g>
	<g>
		
			<rect x="16.5648575" y="48.4956665" transform="matrix(0.9783754 0.2068368 -0.2068368 0.9783754 10.7617989 -2.6934509)" width="3.3946979" height="3.2508521"/>
		<path d="M19.6523438,52.1621094l-3.4863281-0.7373047l0.7070313-3.3447266l3.4863281,0.7373047L19.6523438,52.1621094z
			 M16.3652344,51.2958984l3.1572266,0.6669922l0.6376953-3.0166016l-3.1572266-0.6669922L16.3652344,51.2958984z"/>
	</g>
	<g>
		<g>
			<path style="fill:#2B2627;" d="M16.2802734,53.2568359c-2.1142578,0-3.828125,1.7138672-3.828125,3.828125
				c0,2.1132813,1.7138672,3.8271484,3.828125,3.8271484s3.828125-1.7138672,3.828125-3.8271484
				C20.1083984,54.9707031,18.3945313,53.2568359,16.2802734,53.2568359z M16.2802734,60.0009766
				c-1.6103516,0-2.9160156-1.3056641-2.9160156-2.9160156c0-1.6113281,1.3056641-2.9169922,2.9160156-2.9169922
				s2.9160156,1.3056641,2.9160156,2.9169922C19.1962891,58.6953125,17.890625,60.0009766,16.2802734,60.0009766z"/>
			<path d="M16.2802734,61.0166016c-2.1679688,0-3.9316406-1.7636719-3.9316406-3.9316406s1.7636719-3.9326172,3.9316406-3.9326172
				s3.9316406,1.7646484,3.9316406,3.9326172S18.4482422,61.0166016,16.2802734,61.0166016z M16.2802734,53.3613281
				c-2.0527344,0-3.7236328,1.6699219-3.7236328,3.7236328c0,2.0527344,1.6708984,3.7226563,3.7236328,3.7226563
				c2.0537109,0,3.7236328-1.6699219,3.7236328-3.7226563C20.0039063,55.03125,18.3339844,53.3613281,16.2802734,53.3613281z
				 M16.2802734,60.1054688c-1.6650391,0-3.0205078-1.3554688-3.0205078-3.0205078
				c0-1.6660156,1.3554688-3.0214844,3.0205078-3.0214844c1.6660156,0,3.0205078,1.3554688,3.0205078,3.0214844
				C19.3007813,58.75,17.9462891,60.1054688,16.2802734,60.1054688z M16.2802734,54.2724609
				c-1.5507813,0-2.8125,1.2617188-2.8125,2.8125s1.2617188,2.8115234,2.8125,2.8115234s2.8125-1.2607422,2.8125-2.8115234
				S17.8310547,54.2724609,16.2802734,54.2724609z"/>
		</g>
		<g>
			<g>
				<rect x="16.4589844" y="54.3115234" style="fill:#717071;" width="0.9228516" height="6.4091797"/>
				<path d="M17.3818359,60.8242188h-0.9228516c-0.0576172,0-0.1035156-0.046875-0.1035156-0.1035156v-6.4091797
					c0-0.0566406,0.0458984-0.1035156,0.1035156-0.1035156h0.9228516c0.0576172,0,0.1035156,0.046875,0.1035156,0.1035156v6.4091797
					C17.4853516,60.7773438,17.4394531,60.8242188,17.3818359,60.8242188z M16.5615234,60.6171875h0.7177734v-6.2021484h-0.7177734
					V60.6171875z"/>
			</g>
			<g>
				
					<rect x="16.4587879" y="54.3118324" transform="matrix(-0.7065777 0.7076355 -0.7076355 -0.7065777 69.5767822 86.1830673)" style="fill:#717071;" width="0.9232442" height="6.4095364"/>
				<path d="M18.8603516,60.2119141c-0.0263672,0-0.0527344-0.0107422-0.0732422-0.0302734l-4.5322266-4.53125
					c-0.0400391-0.0410156-0.0400391-0.1054688,0-0.1464844l0.6533203-0.6533203
					c0.0380859-0.0390625,0.1074219-0.0390625,0.1455078,0l4.5322266,4.5322266
					c0.0195313,0.0195313,0.0302734,0.0458984,0.0302734,0.0732422s-0.0107422,0.0537109-0.0302734,0.0732422l-0.6533203,0.6523438
					C18.9130859,60.2011719,18.8867188,60.2119141,18.8603516,60.2119141z M14.4736328,55.5771484l4.3867188,4.3857422
					l0.5068359-0.5068359l-4.3867188-4.3867188L14.4736328,55.5771484z"/>
			</g>
			<g>
				<rect x="13.7158203" y="57.0546875" style="fill:#717071;" width="6.4091797" height="0.9238281"/>
				<path d="M13.7158203,58.0820313c-0.0273438,0-0.0537109-0.0107422-0.0732422-0.0302734
					s-0.0302734-0.0458984-0.0302734-0.0732422v-0.9238281c0-0.0566406,0.0458984-0.1035156,0.1035156-0.1035156H20.125
					c0.0566406,0,0.1025391,0.046875,0.1025391,0.1035156v0.9228516c0,0.0566406-0.0458984,0.1035156-0.1025391,0.1035156
					L13.7158203,58.0820313z M13.8183594,57.1582031V57.875l6.203125-0.0009766v-0.7158203H13.8183594z"/>
			</g>
			<g>
				
					<rect x="16.4591331" y="54.3113441" transform="matrix(0.7071068 0.7071068 -0.7071068 0.7071068 45.6259079 4.8815422)" style="fill:#717071;" width="0.9225534" height="6.4095364"/>
				<path d="M14.9804688,60.2119141c-0.0263672,0-0.0527344-0.0107422-0.0722656-0.0302734l-0.6533203-0.6523438
					c-0.0195313-0.0195313-0.0302734-0.0458984-0.0302734-0.0732422s0.0107422-0.0537109,0.0302734-0.0732422l4.5322266-4.5322266
					c0.0400391-0.0390625,0.1054688-0.0390625,0.1455078,0l0.6533203,0.6523438
					c0.0195313,0.0195313,0.0302734,0.0458984,0.0302734,0.0732422s-0.0107422,0.0537109-0.0302734,0.0732422l-4.5322266,4.5322266
					C15.0332031,60.2011719,15.0068359,60.2119141,14.9804688,60.2119141z M14.4736328,59.4560547l0.5068359,0.5068359
					l4.3867188-4.3867188l-0.5068359-0.5068359L14.4736328,59.4560547z"/>
			</g>
			<g>
				<path style="fill:#C3C4C5;" d="M16.9208984,53.7236328c-2.0947266,0-3.7929688,1.6982422-3.7929688,3.7929688
					c0,2.09375,1.6982422,3.7919922,3.7929688,3.7919922c2.09375,0,3.7919922-1.6982422,3.7919922-3.7919922
					C20.7128906,55.421875,19.0146484,53.7236328,16.9208984,53.7236328z M16.9208984,60.4052734
					c-1.5966797,0-2.8896484-1.2929688-2.8896484-2.8886719c0-1.5966797,1.2929688-2.8896484,2.8896484-2.8896484
					c1.5957031,0,2.8886719,1.2929688,2.8886719,2.8896484C19.8095703,59.1123047,18.5166016,60.4052734,16.9208984,60.4052734z"/>
				<path d="M16.9208984,61.4121094c-2.1484375,0-3.8955078-1.7480469-3.8955078-3.8955078
					c0-2.1484375,1.7470703-3.8964844,3.8955078-3.8964844c2.1474609,0,3.8945313,1.7480469,3.8945313,3.8964844
					C20.8154297,59.6640625,19.0683594,61.4121094,16.9208984,61.4121094z M16.9208984,53.8271484
					c-2.0341797,0-3.6894531,1.6552734-3.6894531,3.6894531s1.6552734,3.6884766,3.6894531,3.6884766
					s3.6884766-1.6542969,3.6884766-3.6884766S18.9550781,53.8271484,16.9208984,53.8271484z M16.9208984,60.5087891
					c-1.6503906,0-2.9921875-1.3427734-2.9921875-2.9921875c0-1.6503906,1.3417969-2.9931641,2.9921875-2.9931641
					c1.6494141,0,2.9912109,1.3427734,2.9912109,2.9931641C19.9121094,59.1660156,18.5703125,60.5087891,16.9208984,60.5087891z
					 M16.9208984,54.7304688c-1.5361328,0-2.7861328,1.25-2.7861328,2.7861328s1.25,2.7851563,2.7861328,2.7851563
					s2.7851563-1.2490234,2.7851563-2.7851563S18.4570313,54.7304688,16.9208984,54.7304688z"/>
			</g>
			<g>
				<circle style="fill:#C3C4C5;" cx="16.9204102" cy="57.515625" r="0.9233398"/>
				<path d="M16.9199219,58.5429688c-0.5654297,0-1.0263672-0.4609375-1.0263672-1.0273438
					c0-0.5654297,0.4609375-1.0263672,1.0263672-1.0263672c0.5664063,0,1.0263672,0.4609375,1.0263672,1.0263672
					C17.9462891,58.0820313,17.4863281,58.5429688,16.9199219,58.5429688z M16.9199219,56.6962891
					c-0.4521484,0-0.8203125,0.3671875-0.8203125,0.8193359s0.3681641,0.8203125,0.8203125,0.8203125
					s0.8203125-0.3681641,0.8203125-0.8203125S17.3720703,56.6962891,16.9199219,56.6962891z"/>
			</g>
		</g>
	</g>
	<g>
		<polyline style="fill:#E00012;" points="24.9257813,56.1269531 50.2128906,53.4501953 49.03125,53.0410156 44.3652344,53.5 		"/>
		<path d="M24.9248047,56.3769531c-0.1259766,0-0.234375-0.0957031-0.2480469-0.2236328
			c-0.0146484-0.1376953,0.0849609-0.2607422,0.2226563-0.2753906l24.171875-2.5585938l-0.0703125-0.0244141l-4.6113281,0.4541016
			c-0.1347656,0.0146484-0.2607422-0.0878906-0.2734375-0.2246094c-0.0136719-0.1376953,0.0869141-0.2597656,0.2246094-0.2734375
			l4.6660156-0.4589844c0.0341797-0.0048828,0.0722656,0.0009766,0.1064453,0.0126953l1.1816406,0.4091797
			c0.1103516,0.0380859,0.1796875,0.1484375,0.1660156,0.2646484c-0.0126953,0.1162109-0.1054688,0.2080078-0.2216797,0.2207031
			l-25.2871094,2.6767578C24.9433594,56.3769531,24.9335938,56.3769531,24.9248047,56.3769531z"/>
	</g>
	<g>
		<path style="fill:#E00012;" d="M16.2802734,49.8144531L20.125,51.1748047l-2.9433594,6.7988281h-0.7226563
			C16.4589844,57.9736328,16.0039063,53.8671875,16.2802734,49.8144531z"/>
		<path d="M17.3398438,58.2148438h-1.0966797L16.21875,58c-0.0039063-0.0410156-0.4541016-4.1738281-0.1796875-8.2021484
			l0.0214844-0.3164063l4.3876953,1.5517578L17.3398438,58.2148438z M16.6767578,57.7324219h0.3466797l2.7773438-6.4160156
			l-3.2998047-1.1679688C16.3027344,53.5068359,16.5927734,56.8652344,16.6767578,57.7324219z"/>
	</g>
	<g>
		<path style="fill:#231815;" d="M37.7988281,2.1767578c-0.1142578,0.0263672-0.2197266,0.0688477-0.3193359,0.1171875
			l-6.0302734,1.4072266c-0.1103516,0-0.2246094,0.0092773-0.3378906,0.0356445
			c-0.7236328,0.168457-1.1894531,0.8198242-1.0419922,1.4541016c0.1484375,0.6342773,0.8544922,1.012207,1.578125,0.8427734
			c0.1142578-0.0263672,0.2197266-0.0688477,0.3183594-0.1171875l6.0302734-1.4072266
			c0.1113281,0,0.2236328-0.0083008,0.3378906-0.0356445c0.7236328-0.168457,1.1904297-0.8198242,1.0419922-1.4541016
			S38.5214844,2.0078125,37.7988281,2.1767578z"/>
		<path d="M31.2998047,6.2539063c-0.6875,0-1.2646484-0.4204102-1.4052734-1.0219727
			c-0.1699219-0.7304688,0.3574219-1.4799805,1.1757813-1.6704102C31.1875,3.534668,31.3115234,3.5214844,31.4492188,3.5214844
			l5.9892578-1.402832c0.0917969-0.0493164,0.2050781-0.0908203,0.3203125-0.1171875
			c0.1269531-0.0297852,0.2568359-0.0449219,0.3867188-0.0449219c0.6865234,0,1.2646484,0.4204102,1.4052734,1.0219727
			c0.0761719,0.3256836,0.0166016,0.6694336-0.1699219,0.96875C39.1650391,4.2944336,38.7988281,4.550293,38.375,4.6489258
			c-0.1152344,0.0273438-0.2353516,0.0400391-0.3789063,0.0400391l-5.9892578,1.402832
			C31.9179688,6.1401367,31.8017578,6.1826172,31.6875,6.2089844C31.5605469,6.2387695,31.4296875,6.2539063,31.2998047,6.2539063z
			 M38.1455078,2.3164063c-0.1015625,0-0.2050781,0.0117188-0.3056641,0.0356445
			c-0.0878906,0.0205078-0.1777344,0.0532227-0.2822266,0.1035156l-6.0673828,1.4208984
			c-0.1513672,0.0043945-0.2480469,0.0146484-0.3388672,0.0356445c-0.6240234,0.1455078-1.03125,0.7011719-0.90625,1.2382813
			C30.3466797,5.5883789,30.78125,5.894043,31.2998047,5.894043l0,0c0.1025391,0,0.2050781-0.0117188,0.3066406-0.0356445
			c0.0888672-0.0205078,0.1777344-0.0532227,0.28125-0.1035156l6.0673828-1.4208984
			c0.1552734-0.0043945,0.2490234-0.0141602,0.3369141-0.0351563c0.3320313-0.0776367,0.6171875-0.2749023,0.7832031-0.5415039
			c0.1357422-0.2177734,0.1796875-0.4648438,0.1259766-0.6967773C39.0986328,2.6225586,38.6640625,2.3164063,38.1455078,2.3164063z"
			/>
	</g>
	<g>
		<path style="fill:#231815;" d="M24.3144531,5.6005859c-0.0878906,0.0200195-0.1669922,0.0561523-0.2412109,0.0986328
			l-4.5927734,1.0722656c-0.0859375-0.0058594-0.1728516-0.0029297-0.2597656,0.0170898
			c-0.5507813,0.128418-0.8769531,0.7470703-0.7294922,1.3813477c0.1484375,0.6342773,0.7148438,1.0449219,1.265625,0.9155273
			c0.0869141-0.0200195,0.1660156-0.0561523,0.2402344-0.0986328l4.5927734-1.0722656
			c0.0859375,0.0058594,0.1728516,0.0039063,0.2597656-0.0170898c0.5507813-0.128418,0.8779297-0.7470703,0.7294922-1.3813477
			S24.8642578,5.4716797,24.3144531,5.6005859z"/>
		<path d="M19.5507813,9.2661133c-0.5585938,0-1.0693359-0.4458008-1.2119141-1.0605469
			c-0.1669922-0.7177734,0.2128906-1.4223633,0.8466797-1.5698242c0.0869141-0.0200195,0.1816406-0.0268555,0.28125-0.0224609
			l4.5488281-1.0620117c0.0927734-0.0507813,0.1767578-0.0839844,0.2636719-0.1035156
			c0.6210938-0.1489258,1.2890625,0.3295898,1.4521484,1.0327148c0.0878906,0.3730469,0.0292969,0.7617188-0.1601563,1.065918
			c-0.1611328,0.2592773-0.4052734,0.4384766-0.6865234,0.5039063c-0.0849609,0.0209961-0.1787109,0.0283203-0.2822266,0.0224609
			l-4.5478516,1.0620117c-0.0917969,0.0507813-0.1757813,0.0839844-0.2626953,0.1035156
			C19.7138672,9.2568359,19.6318359,9.2661133,19.5507813,9.2661133z M19.4052734,6.9257813
			c-0.0546875,0-0.1035156,0.0053711-0.1484375,0.015625c-0.4658203,0.1083984-0.7402344,0.6435547-0.6123047,1.1928711
			c0.1259766,0.5390625,0.6201172,0.9086914,1.0761719,0.7983398c0.0634766-0.0146484,0.1259766-0.0405273,0.1982422-0.0820313
			l0.0429688-0.0166016l4.6152344-1.0776367l0.0234375,0.0014648c0.0751953,0.0053711,0.1503906,0.0024414,0.2119141-0.0131836
			c0.2011719-0.0463867,0.375-0.1757813,0.4921875-0.3637695c0.1455078-0.234375,0.1894531-0.5366211,0.1210938-0.8291016
			C25.2998047,6.0126953,24.8125,5.6479492,24.3496094,5.753418c-0.0625,0.0146484-0.1259766,0.0405273-0.1992188,0.0825195
			l-0.0419922,0.0161133l-4.6152344,1.0776367l-0.0234375-0.0014648
			C19.4482422,6.9267578,19.4267578,6.9257813,19.4052734,6.9257813z"/>
	</g>
	<polygon style="opacity:0.63;fill:#FFEEF1;" points="27.0068359,6.7749023 20.3173828,38.8505859 20.7128906,39.7998047 
		27.5849609,7.0004883 	"/>
</g>
</svg>
