<?xml version="1.0" encoding="utf-8"?>
<!-- Generator: Adobe Illustrator 15.0.2, SVG Export Plug-In . SVG Version: 6.00 Build 0)  -->
<!DOCTYPE svg PUBLIC "-//W3C//DTD SVG 1.1//EN" "http://www.w3.org/Graphics/SVG/1.1/DTD/svg11.dtd">
<svg version="1.1" id="レイヤー_1" xmlns="http://www.w3.org/2000/svg" xmlns:xlink="http://www.w3.org/1999/xlink" x="0px"
	 y="0px" width="64px" height="64px" viewBox="0 0 64 64" enable-background="new 0 0 64 64" xml:space="preserve">
<g>
	
		<line fill="none" stroke="#96C600" stroke-width="2.7351" stroke-miterlimit="10" x1="32.458" y1="17.92" x2="32.458" y2="56.217"/>
	<path fill="#96C600" d="M31.434,18.535c0,0,14.394-9.926,21.535-7.199c11.942,4.56,10.587,22.557,2.532,19.557
		C44.646,26.849,39.307,17.575,31.434,18.535z"/>
	<path fill="#96C600" d="M3.928,26.108c7.371,12.845,15.02-9.714,29.671-7.077c0,0-8.439-11.562-17.062-11.241
		C10.409,8.017-2.284,15.284,3.928,26.108z"/>
	<path fill="none" stroke="#91AF14" stroke-width="0.2045" stroke-miterlimit="10" d="M6.885,18.938c0,0,4.443-6.669,10.06-6.921
		c5.616-0.251,14.489,5.904,14.489,5.904"/>
	<path fill="none" stroke="#91AF14" stroke-width="0.2045" stroke-miterlimit="10" d="M56.847,21.908c0,0-5.112-6.127-9.388-6.709
		C43.183,14.615,33.6,17.92,33.6,17.92"/>
	<path fill="none" stroke="#91AF14" stroke-width="0.2045" stroke-miterlimit="10" d="M11.161,21.044c0,0,0.25-7.771,3.017-8.399"/>
	<path fill="none" stroke="#91AF14" stroke-width="0.2045" stroke-miterlimit="10" d="M14.681,10.862c0,0,3.781,0.537,5.495,1.558"
		/>
	<path fill="none" stroke="#91AF14" stroke-width="0.2045" stroke-miterlimit="10" d="M17.929,14.615c0,0,1.2-2.617,3.055-1.97"/>
	<path fill="none" stroke="#91AF14" stroke-width="0.2045" stroke-miterlimit="10" d="M5.963,14.615c0,0,4.358-1.672,6.706-1.171"/>
	<path fill="none" stroke="#91AF14" stroke-width="0.2045" stroke-miterlimit="10" d="M24.405,16.208c0,0,2.429-0.522,3.562-0.429
		l-3.227-3.134"/>
	<polyline fill="none" stroke="#91AF14" stroke-width="0.2045" stroke-miterlimit="10" points="42.094,17.92 38.586,16.43 
		42.428,14.615 	"/>
	<path fill="none" stroke="#91AF14" stroke-width="0.2045" stroke-miterlimit="10" d="M51.063,13.982c0,0-4.023,0.319-5.7,1.147"/>
	<path fill="none" stroke="#91AF14" stroke-width="0.2045" stroke-miterlimit="10" d="M47.625,18.938c0,0-0.248-3.348-2.988-3.709"
		/>
	
		<line fill="none" stroke="#91AF14" stroke-width="0.2045" stroke-miterlimit="10" x1="57.266" y1="18.938" x2="53.22" y2="18.388"/>
	<path fill="none" stroke="#91AF14" stroke-width="0.2045" stroke-miterlimit="10" d="M53.22,24.842c0,0,1.838-5.723-1.227-7.494"/>
</g>
</svg>
