<?xml version="1.0" encoding="utf-8"?>
<!-- Generator: Adobe Illustrator 15.0.0, SVG Export Plug-In . SVG Version: 6.00 Build 0)  -->
<!DOCTYPE svg PUBLIC "-//W3C//DTD SVG 1.1//EN" "http://www.w3.org/Graphics/SVG/1.1/DTD/svg11.dtd">
<svg version="1.1" id="レイヤー_1" xmlns="http://www.w3.org/2000/svg" xmlns:xlink="http://www.w3.org/1999/xlink" x="0px"
	 y="0px" width="64px" height="64px" viewBox="0 0 64 64" style="enable-background:new 0 0 64 64;" xml:space="preserve">
<g>
	<path style="fill:#7C3F16;" d="M28.4975586,32.449707c0,0,4.9995117-2.625,5.7495117-4.625s2.5-5.375,3.5-5.75
		s0.875-3.25-2.25-1.25l-6.4995117-0.25C28.9975586,20.574707,22.8725586,27.949707,28.4975586,32.449707z"/>
	<path style="fill:#420707;" d="M28.4975586,33.1679688c-0.1601563,0-0.3188477-0.0537109-0.4487305-0.1572266
		c-1.5463867-1.2368164-2.4243164-2.7875977-2.6098633-4.609375c-0.418457-4.1098633,2.8657227-8.1171875,3.0058594-8.2856445
		c0.1430664-0.1723633,0.3613281-0.2558594,0.5805664-0.2592773l6.2792969,0.2416992
		c0.7646484-0.4604492,1.4443359-0.6933594,2.0234375-0.6933594c0.8613281,0,1.5146484,0.5292969,1.6630859,1.3486328
		c0.1542969,0.8515625-0.28125,1.7275391-0.9921875,1.9941406c-0.5566406,0.2265625-2.1503906,2.8515625-3.0791016,5.3295898
		c-0.8222656,2.1933594-5.5517578,4.7270508-6.0883789,5.0087891C28.7265625,33.140625,28.6118164,33.1679688,28.4975586,33.1679688
		z M29.3393555,21.3071289c-0.6835938,0.918457-2.7734375,3.9995117-2.4697266,6.9536133
		c0.1313477,1.277832,0.7094727,2.3935547,1.7202148,3.3222656c1.855957-1.0283203,4.5439453-2.8359375,4.984375-4.0107422
		c0.4335938-1.1552734,2.3681641-5.5883789,3.9208984-6.1704102c0.0478516-0.0385742,0.1279297-0.2636719,0.0703125-0.4399414
		c-0.0185547-0.0561523-0.0390625-0.1201172-0.2373047-0.1201172c-0.1962891,0-0.6445313,0.0766602-1.4433594,0.5883789
		c-0.1240234,0.0786133-0.2666016,0.1147461-0.4150391,0.112793L29.3393555,21.3071289z"/>
	<polygon style="fill:#DADADA;" points="30.9975586,5.824707 40.5712891,3.2998047 41.3720703,4.199707 34.7470703,26.824707 
		25.2475586,27.199707 	"/>
	<polygon style="fill:#708C9F;" points="40.5712891,3.2998047 35.7470703,18.699707 29.3725586,23.199707 29.8725586,24.324707 
		33.2470703,22.699707 34.3720703,23.074707 32.6225586,27.574707 34.2470703,27.074707 41.3720703,4.5991211 	"/>
	<path style="fill:#420707;" d="M34.7470703,27.543457c-0.0029297,0-0.0058594,0-0.0087891,0l-10.6240234-0.125
		c-0.2299805-0.0029297-0.4443359-0.1152344-0.5776367-0.3027344c-0.1328125-0.1870117-0.168457-0.4267578-0.0952148-0.6445313
		l7-20.875c0.0766602-0.2285156,0.2626953-0.4033203,0.4956055-0.4658203l9.4487305-2.5249023
		c0.2636719-0.0683594,0.5419922,0.0141602,0.7226563,0.2167969l0.8007813,0.8999023
		c0.1640625,0.1850586,0.2226563,0.4418945,0.1523438,0.6796875l-6.625,22.625
		C35.3466797,27.3330078,35.0654297,27.543457,34.7470703,27.543457z M25.1176758,25.9926758l9.0932617,0.1069336
		l6.359375-21.7197266l-0.2412109-0.2714844l-8.6479492,2.3110352L25.1176758,25.9926758z"/>
	<path style="fill:#B9713A;" d="M32.7475586,60.6992188c0,0-8-21.75-9.5-22.625s-0.5-3.25-0.125-4.375
		c0.375-1.1245117,1.5-9.4995117,1.375-11.6245117s4.25-8.25,5.25-9.5s5.1245117-3.75,5.8745117-4.625s1.625,1.125-0.5,3.125
		c-2.1245117,2-3.2495117,2.875-3.2495117,2.875l-0.75,1.375l4.7495117,0.5l2.625,1.875c0,0-0.25,1.625-1.5,1.375
		s-2.375-1.125-2.375-1.125l-4.7495117,0.75l6.2495117,0.75c0,0,1.25,1,1.375,1.5s-1.125,0.875-2,0.875
		s-2.9995117-0.375-2.9995117-0.375l-3.125,1.75l2.5,0.75l1.6245117,2.5c0,0,0.125,1.125-0.8745117,1.125
		c-1,0-2.375-1.125-2.375-1.125l-1.75,1c0,0,1.375,0.375,1.75,3.125c0.375,2.7495117,0.25,4.4995117,0.25,4.4995117
		l8.9995117,16.375C39.4970703,51.4492188,40.8720703,59.4492188,32.7475586,60.6992188z"/>
	<path style="fill:#7C3F16;" d="M24.3725586,27.074707c0,0,1.75-4.25,2.5-4.125s2.5,0.25,2.5,0.25l0.875-1l-4.25,0.25
		C25.9975586,22.449707,23.6225586,22.324707,24.3725586,27.074707z"/>
	<path style="fill:#7C3F16;" d="M23.3725586,37.1992188c0,0,3.875,1,5.375,7.625s1,8.375,1,8.375
		S24.7475586,38.5742188,23.3725586,37.1992188z"/>
	<path style="fill:#7C3F16;" d="M29.8725586,18.699707l-3.75,0.625c0,0,2.375-2.5,3.25-2s3.5,0.375,3.5,0.375L29.8725586,18.699707z
		"/>
	<path style="fill:#420707;" d="M32.7470703,61.4179688c-0.3017578,0-0.5766602-0.1904297-0.6782227-0.4824219
		c-3.6645508-10.5292969-8.1015625-22.2197266-9.1054688-23.1484375c-1.5737305-0.9121094-1.0195313-2.859375-0.652832-4.1474609
		c0.0996094-0.3496094,0.1933594-0.6791992,0.2246094-0.9116211c0.2700195-1.996582,0.3974609-3.4355469,0.5205078-4.8266602
		c0.1567383-1.7734375,0.3051758-3.4492188,0.7333984-5.9482422c0.4042969-2.3564453,4.4833984-8.6850586,5.3974609-9.8271484
		c0.6196289-0.7749023,2.1342773-1.8505859,3.5986328-2.890625c0.9453125-0.6713867,2.0166016-1.4326172,2.2910156-1.753418
		c0.6035156-0.7041016,1.6318359-0.5175781,1.9638672,0.3232422c0.3525391,0.8881836,0.0488281,2.4057617-1.4257813,3.7929688
		c-1.7587891,1.6557617-2.8354492,2.5454102-3.1806641,2.8232422l-0.1640625,0.3012695l3.6777344,0.387207
		c0.1230469,0.0131836,0.2412109,0.0581055,0.3427734,0.1298828l2.625,1.875
		c0.2207031,0.1577148,0.3339844,0.4262695,0.2919922,0.6943359c-0.1074219,0.7026367-0.6582031,2.0498047-1.9970703,2.0097656
		c1.3447266,0.6459961,1.4277344,0.9794922,1.484375,1.206543c0.0693359,0.2763672,0.0068359,0.5654297-0.171875,0.793457
		c-0.375,0.480957-1.3925781,0.7246094-3.0253906,0.7246094c-0.7480469,0-2.265625-0.2412109-2.8701172-0.3427734
		l-1.4243164,0.7978516l0.8764648,0.2626953c0.1630859,0.0488281,0.3032227,0.1542969,0.3959961,0.296875l1.6245117,2.5
		c0.0615234,0.09375,0.0996094,0.2006836,0.1113281,0.3120117c0.0166016,0.144043,0.0712891,0.8881836-0.4150391,1.4316406
		c-0.2001953,0.2241211-0.5673828,0.4916992-1.1733398,0.4916992c-0.8808594,0-1.8793945-0.6010742-2.4282227-0.9858398
		l-0.3964844,0.2265625c0.472168,0.5419922,0.9575195,1.4462891,1.1616211,2.9433594
		c0.309082,2.2661133,0.2880859,3.8671875,0.2661133,4.4287109l8.9013672,16.1972656
		c0.0380859,0.0693359,0.0644531,0.1455078,0.078125,0.2236328c0.0273438,0.15625,0.6328125,3.8564453-1.4882813,6.8037109
		c-1.2773438,1.7734375-3.2490234,2.8769531-5.8598633,3.2783203
		C32.8198242,61.4150391,32.7832031,61.4179688,32.7470703,61.4179688z M35.7021484,8.8608398
		c-0.4628906,0.3901367-1.1533203,0.8842773-2.0849609,1.5458984c-1.2539063,0.8911133-2.8149414,1.9995117-3.3085938,2.6166992
		c-1.0366211,1.2958984-4.78125,7.2973633-5.1025391,9.1728516c-0.4189453,2.440918-0.5644531,4.0883789-0.71875,5.8320313
		c-0.1245117,1.4072266-0.253418,2.862793-0.5273438,4.8930664c-0.0454102,0.3325195-0.152832,0.7114258-0.2670898,1.1118164
		c-0.3486328,1.2246094-0.5668945,2.1904297,0.0419922,2.5449219c1.5180664,0.8857422,6.9887695,16.1435547,9.4887695,23.3046875
		c1.9189453-0.4023438,3.3701172-1.2695313,4.3193359-2.5820313c1.5869141-2.1943359,1.3349609-5.0302734,1.2607422-5.6210938
		l-8.9360352-16.2597656c-0.0664063-0.1201172-0.0966797-0.2587891-0.0869141-0.3964844
		c0.0009766-0.0166016,0.1132813-1.7216797-0.2451172-4.3515625c-0.2949219-2.1635742-1.2441406-2.5332031-1.2539063-2.5371094
		c-0.2626953-0.0957031-0.4614258-0.340332-0.4848633-0.6191406c-0.0239258-0.2788086,0.1010742-0.5512695,0.3442383-0.6899414
		l1.75-1c0.2573242-0.1474609,0.5805664-0.1210938,0.8110352,0.0673828
		c0.4907227,0.3999023,1.4111328,0.9628906,1.9204102,0.9628906c0.0776367,0,0.1049805-0.0141602,0.1054688-0.0146484
		c0.0229492-0.0239258,0.0415039-0.1020508,0.0507813-0.1787109L31.4135742,24.5625l-2.2475586-0.6743164
		c-0.2763672-0.0830078-0.4760742-0.3232422-0.5078125-0.6098633s0.1113281-0.5644531,0.3632813-0.7055664l3.125-1.75
		c0.1455078-0.0810547,0.3144531-0.109375,0.4760742-0.0805664c0.5737305,0.1010742,2.2094727,0.3637695,2.8745117,0.3637695
		c0.3398438,0,0.6699219-0.0170898,0.9599609-0.0444336c-0.6386719-0.2919922-1.4931641-0.6352539-2.2666016-0.9135742
		l-4.4360352-0.7392578c-0.3476563-0.0581055-0.6020508-0.359375-0.6005859-0.7119141s0.2583008-0.6518555,0.6064453-0.7070313
		l4.7495117-0.75c0.1953125-0.03125,0.3955078,0.0209961,0.5527344,0.1420898
		c0.0097656,0.0078125,1.0136719,0.7758789,2.0751953,0.9882813c0.2568359,0.0512695,0.4199219-0.1489258,0.5234375-0.3842773
		l-2.0527344-1.4663086l-4.5610352-0.4799805c-0.2387695-0.0253906-0.449707-0.1679688-0.5610352-0.3808594
		c-0.1118164-0.2128906-0.1098633-0.4672852,0.0053711-0.6782227l0.75-1.375
		c0.0473633-0.0864258,0.1118164-0.1621094,0.1894531-0.2226563c0.0112305-0.0087891,1.1308594-0.8852539,3.1987305-2.831543
		C35.3505859,9.8725586,35.6181641,9.2700195,35.7021484,8.8608398z"/>
</g>
</svg>
