<?xml version="1.0" encoding="UTF-8" standalone="no"?>
<!-- Generator: Adobe Illustrator 15.0.0, SVG Export Plug-In . SVG Version: 6.00 Build 0)  -->

<svg
   xmlns:dc="http://purl.org/dc/elements/1.1/"
   xmlns:cc="http://creativecommons.org/ns#"
   xmlns:rdf="http://www.w3.org/1999/02/22-rdf-syntax-ns#"
   xmlns:svg="http://www.w3.org/2000/svg"
   xmlns="http://www.w3.org/2000/svg"
   xmlns:sodipodi="http://sodipodi.sourceforge.net/DTD/sodipodi-0.dtd"
   xmlns:inkscape="http://www.inkscape.org/namespaces/inkscape"
   version="1.1"
   id="レイヤー_1"
   x="0px"
   y="0px"
   width="64px"
   height="64px"
   viewBox="0 0 64 64"
   style="enable-background:new 0 0 64 64;"
   xml:space="preserve"
   inkscape:version="0.48.5 r10040"
   sodipodi:docname="shell.svg"><metadata
     id="metadata173"><rdf:RDF><cc:Work
         rdf:about=""><dc:format>image/svg+xml</dc:format><dc:type
           rdf:resource="http://purl.org/dc/dcmitype/StillImage" /></cc:Work></rdf:RDF></metadata><defs
     id="defs171" /><sodipodi:namedview
     pagecolor="#ffffff"
     bordercolor="#666666"
     borderopacity="1"
     objecttolerance="10"
     gridtolerance="10"
     guidetolerance="10"
     inkscape:pageopacity="0"
     inkscape:pageshadow="2"
     inkscape:window-width="640"
     inkscape:window-height="480"
     id="namedview169" /><g
     id="g3"><path
       style="fill:#BF7F5C;"
       d="M31.3701172,59.9785156c-0.0004883,0-0.0004883,0-0.0009766,0   c-3.34375,0-5.5888672-1.5117188-7.7592773-2.9726563c-1.9584961-1.3183594-3.8105469-2.5644531-6.53125-2.7246094   c-1.4091797,0.3671875-2.6982422,0.5546875-3.8339844,0.5546875c-2.6362305,0-3.8051758-1.0078125-4.1352539-1.3632813   c-0.8969727-0.9257813-1.1899414-1.8203125-0.8706055-2.6582031C8.5488281,50,9.3251953,49.6386719,9.9375,49.5664063   c1.0449219-0.1933594,2.7607422-1.4628906,4.2802734-3.8886719c1.8300781-2.9238281,2.5327148-6.1894531,1.8339844-8.5234375   c-2.0952148-7.0009766-1.0922852-12.105957,3.3544922-17.0703125c2.2993164-2.5664063,5.0532227-3.9267578,8.8266602-4.3320313   c0.8046875-2.4677734,3.0839844-5.5805664,9.456543-5.6254883c0.796875-1.230957,2.5283203-2.3110352,6.0166016-2.1274414   c0.8027344-1.8476563,2.6552734-3.9780273,6.9267578-3.9780273l0.3779297,0.0483398l4.2519531,1.1079102l0.1757813,0.9331055   c0.0302734,0.1582031,0.6572266,3.6274414-1.0214844,6.7211914c0.6796875,1.5834961,1.3554688,3.9780273,0.6894531,6.3613281   c0.7978516,2.0654297,1.4853516,5.4379883-0.6103516,8.5966797c1.5185547,4.6455078,0.34375,8.6616211-3.5771484,12.2573242   c-1.8994141,1.7421875-2.2714844,3.6699219-2.703125,5.9003906c-0.7519531,3.8945313-1.6054688,8.3105469-10.0380859,12.265625   C35.6435547,59.4003906,33.4160156,59.9785156,31.3701172,59.9785156z M16.7436523,51.2636719l0.2285156,0.0097656   c3.6948242,0.1347656,6.1479492,1.7871094,8.3125,3.2441406c1.9619141,1.3203125,3.65625,2.4609375,6.0844727,2.4609375   c0.0004883,0,0.0004883,0,0.0009766,0c1.5957031,0,3.40625-0.484375,5.5341797-1.4824219   c7.0498047-3.3066406,7.6894531-6.6152344,8.3662109-10.1191406c0.4648438-2.4042969,0.9912109-5.1289063,3.6210938-7.5410156   c4.0917969-3.7539063,3.5732422-7.0356445,2.5253906-9.7514648l-0.3125-0.8095703l0.5458984-0.6738281   c1.8476563-2.2841797,1.2841797-4.9277344,0.4853516-6.7431641l-0.2470703-0.5610352l0.2167969-0.5737305   c0.7558594-1.9975586-0.2568359-4.3798828-0.7265625-5.3110352l-0.4023438-0.7963867l0.5078125-0.7333984   c1.0048828-1.4516602,1.1240234-3.2456055,1.0878906-4.3061523l-2.1240234-0.5537109   c-2.421875,0.0449219-3.7714844,0.9770508-4.2402344,2.9233398l-0.3115234,1.2949219l-1.3222656-0.15625   c-0.5996094-0.0708008-1.1552734-0.1069336-1.6533203-0.1069336c-1.15625,0-2.5888672,0.1875-2.8457031,1.0795898L39.75,13.1894531   l-1.1777344-0.0483398c-4.5878906-0.1850586-7.1240234,1.2646484-7.675293,4.2875977l-0.2114258,1.1611328l-1.1787109,0.0673828   c-3.5883789,0.2045898-5.8676758,1.1977539-7.8662109,3.4287109c-3.7583008,4.1958008-4.5195313,8.1791992-2.7148438,14.2089844   c0.9536133,3.1835938,0.144043,7.2871094-2.1655273,10.9746094c-1.2817383,2.046875-2.8237305,3.6210938-4.3666992,4.5097656   c0.2382813,0.0332031,0.5200195,0.0566406,0.8510742,0.0566406c0.9316406,0,2.034668-0.171875,3.277832-0.5117188   L16.7436523,51.2636719z"
       id="path5" /><g
       id="g7"><g
         id="g9"><linearGradient
           id="SVGID_1_"
           gradientUnits="userSpaceOnUse"
           x1="4.605957"
           y1="26.9863281"
           x2="38.0584755"
           y2="38.8836975"
           gradientTransform="matrix(0.7449 0.6672 -0.6672 0.7449 30.3597279 -12.0651169)"><stop
             offset="0"
             style="stop-color:#FFFFFF"
             id="stop12" /><stop
             offset="0.234823"
             style="stop-color:#FEFEFD"
             id="stop14" /><stop
             offset="0.3194047"
             style="stop-color:#FBF9F6"
             id="stop16" /><stop
             offset="0.3796872"
             style="stop-color:#F6F2EB"
             id="stop18" /><stop
             offset="0.4284583"
             style="stop-color:#EEE6DA"
             id="stop20" /><stop
             offset="0.4702187"
             style="stop-color:#E4D8C4"
             id="stop22" /><stop
             offset="0.5065259"
             style="stop-color:#D8C6A9"
             id="stop24" /><stop
             offset="0.527273"
             style="stop-color:#CFBA96"
             id="stop26" /><stop
             offset="1"
             style="stop-color:#FFEE9F"
             id="stop28" /></linearGradient><path
           style="fill:url(#SVGID_1_);"
           d="M50.84375,23.8930664l-17.6992188-6.7373047     c-5.3432617-0.2075195-9.2978516,0.2197266-12.6210938,3.9291992c-4.0634766,4.5366211-5.0175781,9.0141602-3.034668,15.6396484     c1.7016602,5.6816406-3.4956055,13.703125-7.3481445,14.328125c0,0-1.2167969,0.0839844,0.0595703,1.390625     c0,0,1.9936523,2.4863281,9.9819336-0.7949219c3.8676758-1.5878906,5.3823242-4.5390625,14.668457-6.1523438l4.375-2.7558594     C62.2617188,38.7832031,50.84375,23.8930664,50.84375,23.8930664z"
           id="path30" /><path
           style="fill:#40210F;"
           d="M13.2470703,53.8457031L13.2470703,53.8457031     c-2.4912109,0-3.3476563-0.9785156-3.4370117-1.0898438c-0.1962891-0.1972656-0.8935547-0.9101563-0.6367188-1.5859375     c0.1591797-0.4179688,0.6020508-0.5917969,0.9326172-0.6152344c1.496582-0.2460938,3.4609375-1.953125,4.9589844-4.3457031     c1.5507813-2.4765625,2.8759766-6.2324219,1.9448242-9.3417969c-2.0092773-6.7124023-1.0991211-11.3818359,3.1411133-16.1157227     c3.5341797-3.9453125,7.6420898-4.3037109,13.0131836-4.0952148c0.0537109,0.0019531,0.1074219,0.0126953,0.1582031,0.0322266     l17.6992188,6.7373047c0.0869141,0.0332031,0.1630859,0.0893555,0.21875,0.1630859     c0.1845703,0.2397461,4.4833984,5.940918,2.3427734,11.4072266c-1.6054688,4.0996094-6.3740234,6.8652344-14.1748047,8.2207031     l-4.2910156,2.703125C35.0615234,45.9550781,35,45.9785156,34.9365234,45.9882813     c-6.2880859,1.09375-8.9199219,2.7851563-11.2416992,4.2773438c-1.0664063,0.6855469-2.0732422,1.3320313-3.3227539,1.8457031     C17.5703125,53.2617188,15.1728516,53.8457031,13.2470703,53.8457031z M10.1445313,51.5585938     c0.0419922,0.0917969,0.1474609,0.2636719,0.4130859,0.5351563c0.0317383,0.0351563,0.6889648,0.7519531,2.6894531,0.7519531     c1.7949219,0,4.0639648-0.5585938,6.7451172-1.6601563c1.1650391-0.4785156,2.1352539-1.1015625,3.1616211-1.7617188     c2.3901367-1.5351563,5.0966797-3.2753906,11.5131836-4.4023438l4.2919922-2.703125     c0.0556641-0.0351563,0.1171875-0.0585938,0.1816406-0.0703125c7.4902344-1.2871094,12.0351563-3.8496094,13.5107422-7.6171875     c1.7841797-4.5556641-1.5537109-9.5249023-2.1240234-10.3232422l-17.484375-6.6552734     c-5.0244141-0.190918-8.8959961,0.1376953-12.1469727,3.7661133c-3.9750977,4.4379883-4.8232422,8.8305664-2.9282227,15.1616211     c0.8720703,2.9140625,0.1040039,6.7109375-2.0551758,10.1582031C14.2431641,49.40625,12.0625,51.2480469,10.2207031,51.546875     C10.1923828,51.5507813,10.1665039,51.5546875,10.1445313,51.5585938z"
           id="path32" /></g><g
         id="g34"><linearGradient
           id="SVGID_2_"
           gradientUnits="userSpaceOnUse"
           x1="10.8588867"
           y1="12.2412109"
           x2="38.9962387"
           y2="18.1206398"
           gradientTransform="matrix(0.7449 0.6672 -0.6672 0.7449 30.3597279 -12.0651169)"><stop
             offset="0"
             style="stop-color:#FFFFFF"
             id="stop37" /><stop
             offset="0.234823"
             style="stop-color:#FEFEFD"
             id="stop39" /><stop
             offset="0.3194047"
             style="stop-color:#FBF9F6"
             id="stop41" /><stop
             offset="0.3796872"
             style="stop-color:#F6F2EB"
             id="stop43" /><stop
             offset="0.4284583"
             style="stop-color:#EEE6DA"
             id="stop45" /><stop
             offset="0.4702187"
             style="stop-color:#E4D8C4"
             id="stop47" /><stop
             offset="0.5065259"
             style="stop-color:#D8C6A9"
             id="stop49" /><stop
             offset="0.527273"
             style="stop-color:#CFBA96"
             id="stop51" /><stop
             offset="1"
             style="stop-color:#FFEE9F"
             id="stop53" /></linearGradient><path
           style="fill:url(#SVGID_2_);"
           d="M29.3852539,19.8569336c0,0-2.0004883-10.2255859,12.347168-7.8935547     l10.9472656,5.7456055c0,0,5.9189453,8.5166016-4.2783203,12.9736328     C48.4013672,30.6826172,38.578125,34.8964844,29.3852539,19.8569336z"
           id="path55" /><path
           style="fill:#40210F;"
           d="M45.0849609,31.7260742c-4.1201172,0-10.2617188-2.0136719-16.1264648-11.6083984     c-0.0307617-0.0507813-0.0527344-0.1064453-0.0639648-0.1650391c-0.0273438-0.1411133-0.6508789-3.4863281,1.4633789-6.0537109     c2.0556641-2.4960938,5.9350586-3.3256836,11.4545898-2.4291992c0.0537109,0.0087891,0.1044922,0.0258789,0.1523438,0.0507813     l10.9472656,5.7456055c0.0712891,0.0375977,0.1318359,0.0913086,0.1777344,0.1577148     c0.1083984,0.1547852,2.6298828,3.8466797,1.5175781,7.7763672c-0.7099609,2.5102539-2.7304688,4.5092773-6.0058594,5.9404297     C48.5429688,31.1660156,47.2128906,31.7260742,45.0849609,31.7260742z M29.8623047,19.6782227     c5.6074219,9.128418,11.3701172,11.0478516,15.2226563,11.0478516c1.9072266,0,3.1083984-0.4985352,3.1201172-0.503418     c2.9804688-1.3027344,4.8115234-3.0825195,5.4384766-5.2875977c0.8935547-3.144043-0.9404297-6.2587891-1.3115234-6.84375     l-10.7597656-5.6474609c-5.0800781-0.8100586-8.6411133-0.0966797-10.4423828,2.0908203     C29.4814453,16.5356445,29.7866211,19.1801758,29.8623047,19.6782227z"
           id="path57" /></g><g
         id="g59"><linearGradient
           id="SVGID_3_"
           gradientUnits="userSpaceOnUse"
           x1="21.8071289"
           y1="3.7666016"
           x2="31.7452908"
           y2="3.346679"
           gradientTransform="matrix(0.7449 0.6672 -0.6672 0.7449 30.3597279 -12.0651169)"><stop
             offset="0"
             style="stop-color:#FFFFFF"
             id="stop62" /><stop
             offset="0.234823"
             style="stop-color:#FEFEFD"
             id="stop64" /><stop
             offset="0.3194047"
             style="stop-color:#FBF9F6"
             id="stop66" /><stop
             offset="0.3796872"
             style="stop-color:#F6F2EB"
             id="stop68" /><stop
             offset="0.4284583"
             style="stop-color:#EEE6DA"
             id="stop70" /><stop
             offset="0.4702187"
             style="stop-color:#E4D8C4"
             id="stop72" /><stop
             offset="0.5065259"
             style="stop-color:#D8C6A9"
             id="stop74" /><stop
             offset="0.527273"
             style="stop-color:#CFBA96"
             id="stop76" /><stop
             offset="1"
             style="stop-color:#FFEE9F"
             id="stop78" /></linearGradient><path
           style="fill:url(#SVGID_3_);"
           d="M44.6337891,12.7236328c0,0-1.34375-7.2036133,6-7.2026367l3.3310547,0.8681641     c0,0,1.1435547,5.9541016-3.6533203,8.465332C50.3115234,14.8544922,49.140625,16.7910156,44.6337891,12.7236328z"
           id="path80" /><path
           style="fill:#40210F;"
           d="M49.2246094,15.8154297c-1.2685547,0-2.9257813-0.9155273-4.9257813-2.7207031     c-0.0810547-0.0732422-0.1367188-0.171875-0.15625-0.2792969c-0.0263672-0.1401367-0.6171875-3.4541016,1.2841797-5.7426758     c1.1308594-1.3613281,2.8828125-2.0517578,5.2050781-2.0517578c0.0429688,0,0.0849609,0.0053711,0.1269531,0.0161133     l3.3320313,0.8681641c0.1865234,0.0488281,0.3291016,0.2001953,0.3652344,0.3896484     c0.0117188,0.0625,1.140625,6.2700195-3.8164063,8.9516602C50.4589844,15.4526367,50.0283203,15.8154297,49.2246094,15.8154297z      M45.1015625,12.4711914c2.2900391,2.0361328,3.5634766,2.3442383,4.1230469,2.3442383     c0.4921875,0,0.6621094-0.2265625,0.6699219-0.2358398c0.0449219-0.0620117,0.1171875-0.1323242,0.1855469-0.1679688     c3.8154297-1.9980469,3.5791016-6.4208984,3.4375-7.6225586l-2.9472656-0.7680664     c-1.9804688,0.012207-3.4521484,0.5810547-4.3740234,1.6914063     C44.8066406,9.3842773,45.0166016,11.8261719,45.1015625,12.4711914z"
           id="path82" /></g><g
         id="g84"><linearGradient
           id="SVGID_4_"
           gradientUnits="userSpaceOnUse"
           x1="18.4692383"
           y1="9.9291992"
           x2="34.8465385"
           y2="8.6694059"
           gradientTransform="matrix(0.7449 0.6672 -0.6672 0.7449 30.3597279 -12.0651169)"><stop
             offset="0"
             style="stop-color:#FFFFFF"
             id="stop87" /><stop
             offset="0.234823"
             style="stop-color:#FEFEFD"
             id="stop89" /><stop
             offset="0.3194047"
             style="stop-color:#FBF9F6"
             id="stop91" /><stop
             offset="0.3796872"
             style="stop-color:#F6F2EB"
             id="stop93" /><stop
             offset="0.4284583"
             style="stop-color:#EEE6DA"
             id="stop95" /><stop
             offset="0.4702187"
             style="stop-color:#E4D8C4"
             id="stop97" /><stop
             offset="0.5065259"
             style="stop-color:#D8C6A9"
             id="stop99" /><stop
             offset="0.527273"
             style="stop-color:#CFBA96"
             id="stop101" /><stop
             offset="1"
             style="stop-color:#FFEE9F"
             id="stop103" /></linearGradient><path
           style="fill:url(#SVGID_4_);"
           d="M38.9355469,14.4775391c0,0-3.2294922-6.918457,8.1738281-4.4873047l5.1152344,1.8608398     c0,0,4.5498047,6.8842773-1.4111328,10.4555664C44.3691406,22.4428711,38.9355469,14.4775391,38.9355469,14.4775391z"
           id="path105" /><path
           style="fill:#40210F;"
           d="M50.6494141,22.8085938c-6.5615234,0-11.9023438-7.7207031-12.1269531-8.0493164     c-0.0830078-0.1630859-1.0888672-2.3637695-0.0146484-4.0498047c1.1357422-1.7866211,4.0615234-2.1992188,8.7060547-1.2080078     l5.1816406,1.8798828c0.1005859,0.0366211,0.1875,0.1044922,0.2460938,0.1938477     c0.0966797,0.1464844,2.3623047,3.6269531,1.5810547,7.0605469c-0.3857422,1.6982422-1.4462891,3.0776367-3.1523438,4.0996094     c-0.0742188,0.0449219-0.1591797,0.0693359-0.2460938,0.0712891L50.6494141,22.8085938z M42.9179688,9.972168     c-1.8261719,0-3.0253906,0.4277344-3.5644531,1.2709961c-0.78125,1.2202148,0.0273438,3.0058594,0.0351563,3.0239258     c0.0117188,0.0048828,5.2294922,7.5415039,11.2607422,7.5415039l0.0214844-0.0004883     c1.3955078-0.8681641,2.2626953-2.0092773,2.5771484-3.394043c0.6074219-2.6708984-0.9677734-5.5073242-1.3564453-6.1523438     l-4.953125-1.8017578C45.4277344,10.1430664,44.0527344,9.972168,42.9179688,9.972168z"
           id="path107" /></g><g
         id="g109"><g
           id="g111"><radialGradient
             id="SVGID_5_"
             cx="34.3984375"
             cy="37.9160156"
             r="19.1166744"
             fx="33.8634415"
             fy="38.0567589"
             gradientTransform="matrix(0.7449 0.6672 -0.6672 0.7449 30.3597279 -12.0651169)"
             gradientUnits="userSpaceOnUse"><stop
               offset="0"
               style="stop-color:#DF2000"
               id="stop114" /><stop
               offset="0.690909"
               style="stop-color:#FFD17F"
               id="stop116" /><stop
               offset="0.7936431"
               style="stop-color:#FFDFA6"
               id="stop118" /><stop
               offset="1"
               style="stop-color:#FFFFFF"
               id="stop120" /></radialGradient><path
             style="fill:url(#SVGID_5_);"
             d="M49.9052734,38.9414063c-5.8105469,5.1289063,0.7382813,10.8242188-12.3642578,17.9121094      C24.6606445,61.5625,24.3359375,51.2265625,14.5024414,52.9765625      C32.4970703,40.7402344,33.0478516,30.0136719,49.9052734,38.9414063z"
             id="path122" /><path
             style="fill:#40210F;"
             d="M31.4462891,58.5957031c-3.4570313,0-5.6982422-1.4199219-7.8652344-2.7929688      c-2.0537109-1.3007813-3.9936523-2.5292969-6.902832-2.5292969c-0.6621094,0-1.3642578,0.0664063-2.0883789,0.1953125      l-0.3686523-0.90625c5.2822266-3.5917969,9.1113281-7.1054688,12.1879883-9.9296875      c4.7358398-4.3476563,8.1582031-7.4882813,13.1318359-7.4882813c2.9082031,0,6.2763672,1.0664063,10.5986328,3.3554688      l0.6386719,0.3378906l-0.5419922,0.4785156c-2.1435547,1.8925781-2.4941406,3.8164063-2.9003906,6.0429688      c-0.6416016,3.5175781-1.3691406,7.5058594-9.5566406,11.9335938      C35.3730469,58.1796875,33.3232422,58.5957031,31.4462891,58.5957031z M16.6782227,52.2734375      c3.1992188,0,5.3540039,1.3652344,7.4375,2.6855469c2.1411133,1.3554688,4.1635742,2.6367188,7.3305664,2.6367188      c1.7578125,0,3.6953125-0.3964844,5.9228516-1.2109375c7.7001953-4.171875,8.3525391-7.7460938,8.9833984-11.2050781      c0.3710938-2.0371094,0.7548828-4.1386719,2.7001953-6.1191406c-3.875-1.9863281-6.9101563-2.9160156-9.5117188-2.9160156      c-4.5849609,0-7.7163086,2.875-12.4555664,7.2246094c-2.7836914,2.5546875-6.1777344,5.6699219-10.7080078,8.9082031      C16.4785156,52.2753906,16.5786133,52.2734375,16.6782227,52.2734375z"
             id="path124" /></g><g
           id="g126"><linearGradient
             id="SVGID_6_"
             gradientUnits="userSpaceOnUse"
             x1="29.9267578"
             y1="38.2558594"
             x2="38.3265648"
             y2="41.4757843"
             gradientTransform="matrix(0.7449 0.6672 -0.6672 0.7449 30.3597279 -12.0651169)"><stop
               offset="0"
               style="stop-color:#FFFFFF"
               id="stop129" /><stop
               offset="0.234823"
               style="stop-color:#FEFEFD"
               id="stop131" /><stop
               offset="0.3194047"
               style="stop-color:#FBF9F6"
               id="stop133" /><stop
               offset="0.3796872"
               style="stop-color:#F6F2EB"
               id="stop135" /><stop
               offset="0.4284583"
               style="stop-color:#EEE6DA"
               id="stop137" /><stop
               offset="0.4702187"
               style="stop-color:#E4D8C4"
               id="stop139" /><stop
               offset="0.5065259"
               style="stop-color:#D8C6A9"
               id="stop141" /><stop
               offset="0.527273"
               style="stop-color:#CFBA96"
               id="stop143" /><stop
               offset="1"
               style="stop-color:#FFEE9F"
               id="stop145" /></linearGradient><path
             style="fill:url(#SVGID_6_);"
             d="M14.2524414,53.1425781c0,0,4.4482422-3.5976563,7.4111328-9.5800781      c3.9736328-8.0234375,15.8696289-12.6240234,28.2416992-4.6210938c0,0-10.9150391-2.09375-18.5800781,2.4628906      C24.7280273,45.3300781,19.8330078,52.5761719,14.2524414,53.1425781z"
             id="path147" /><path
             style="fill:#40210F;"
             d="M14.2524414,53.6425781c-0.2011719,0-0.3842773-0.1210938-0.4624023-0.3105469      c-0.0839844-0.203125-0.0239258-0.4394531,0.1479492-0.578125c0.043457-0.0351563,4.4018555-3.6054688,7.2773438-9.4140625      c2.7294922-5.5097656,8.871582-9.0703125,15.6489258-9.0703125c4.4082031,0,9.0117188,1.4707031,13.3125,4.2519531      c0.2011719,0.1308594,0.28125,0.3847656,0.1923828,0.6074219s-0.328125,0.3457031-0.5576172,0.3046875      c-0.0253906-0.0058594-2.5039063-0.4726563-5.8623047-0.4726563c-3.4384766,0-8.375,0.4980469-12.3686523,2.8730469      C28.9921875,43.375,26.671875,45.4316406,24.4282227,47.421875c-3.3984375,3.0136719-6.6083984,5.8613281-10.1254883,6.2167969      C14.2861328,53.640625,14.269043,53.6425781,14.2524414,53.6425781z M36.8642578,35.2695313      c-6.4003906,0-12.190918,3.3417969-14.7524414,8.5136719c-1.9619141,3.9628906-4.5341797,6.8710938-6.1132813,8.4355469      c2.5703125-0.9375,5.1088867-3.1875,7.7661133-5.5449219c2.2788086-2.0214844,4.6347656-4.1113281,7.3046875-5.6992188      c4.1894531-2.4902344,9.3164063-3.0136719,12.8798828-3.0136719c1.3828125,0,2.609375,0.0761719,3.5917969,0.1660156      C44.0273438,36.2519531,40.3759766,35.2695313,36.8642578,35.2695313z"
             id="path149" /></g></g><g
         id="g151"><polygon
           style="fill:#D1BE9F;"
           points="26.6425781,27.1474609 25.0688477,30.9165039 21.1523438,28.4331055      22.3037109,23.9423828 26.9321289,23.6489258    "
           id="polygon153" /><path
           style="fill:#D1BE9F;"
           d="M39.8369141,26.4760742c0,0-1.4169922,1.0834961-2.3369141,2.203125     c-0.8916016,0.0541992-3.5654297,0.2167969-3.5654297,0.2167969l-3.9169922-2.4838867     c0,0,2.1669922-1.5952148,3.0107422-1.8642578c1.3916016-1.3217773,4.8085938-0.5717773,4.8085938-0.5717773     L39.8369141,26.4760742z"
           id="path155" /><polygon
           style="fill:#D1BE9F;"
           points="48.1972656,20.7089844 46.5283203,20.2260742 46.4716797,18.4907227      48.1054688,17.9003906 49.171875,19.2709961    "
           id="polygon157" /><polygon
           style="fill:#D1BE9F;"
           points="38.4560547,19.5761719 37.0029297,15.6425781 38.5029297,13.3095703      39.8369141,15.7260742 41.90625,17.6972656    "
           id="polygon159" /><polygon
           style="fill:#D1BE9F;"
           points="47.8623047,29.0541992 46.5078125,29.0092773 46.1318359,27.7070313      47.2529297,26.9458008 48.3242188,27.7788086    "
           id="polygon161" /><polygon
           style="fill:#D1BE9F;"
           points="49.3876953,36.3535156 46.8457031,34.7109375 47.8310547,33.4746094      50.6435547,31.6210938 51.7333984,34.4433594    "
           id="polygon163" /><polygon
           style="fill:#D1BE9F;"
           points="21.2089844,39.9179688 18.9165039,37.2109375 20.78125,34.1972656 23.1391602,36.0097656      24.0029297,38.4746094    "
           id="polygon165" /><polygon
           style="fill:#D1BE9F;"
           points="48.7001953,12.4926758 47.2138672,12.8125 46.4492188,11.4975586 47.4648438,10.3647461      48.8554688,10.9794922    "
           id="polygon167" /></g></g></g></svg>