<?xml version="1.0" encoding="utf-8"?>
<!-- Generator: Adobe Illustrator 16.0.0, SVG Export Plug-In . SVG Version: 6.00 Build 0)  -->
<!DOCTYPE svg PUBLIC "-//W3C//DTD SVG 1.1//EN" "http://www.w3.org/Graphics/SVG/1.1/DTD/svg11.dtd">
<svg version="1.1" id="Layer_1_x2C_164" xmlns="http://www.w3.org/2000/svg" xmlns:xlink="http://www.w3.org/1999/xlink" x="0px"
	 y="0px" width="64px" height="64px" viewBox="0 0 64 64" enable-background="new 0 0 64 64" xml:space="preserve">
<g>
	
		<path fill-rule="evenodd" clip-rule="evenodd" fill="#3E3A39" stroke="#231815" stroke-width="2.083" stroke-linecap="round" stroke-linejoin="round" stroke-miterlimit="10" d="
		M32.117,61.004C56.942,48.41,56.942,18.246,56.942,18.246C47.998,7.806,32.117,3.662,32.117,3.662S16.237,7.806,7.293,18.246
		C7.293,18.246,7.292,48.41,32.117,61.004z"/>
	<linearGradient id="SVGID_1_" gradientUnits="userSpaceOnUse" x1="7.293" y1="32.333" x2="56.9424" y2="32.333">
		<stop  offset="0" style="stop-color:#E5E2DF"/>
		<stop  offset="0" style="stop-color:#DED9D6"/>
		<stop  offset="0.063" style="stop-color:#CFCAC9"/>
		<stop  offset="0.1833" style="stop-color:#A8A4A7"/>
		<stop  offset="0.264" style="stop-color:#8B878D"/>
		<stop  offset="0.5225" style="stop-color:#F3F4F4"/>
		<stop  offset="0.5842" style="stop-color:#E5E5E6"/>
		<stop  offset="0.7027" style="stop-color:#C0BEC0"/>
		<stop  offset="0.8647" style="stop-color:#858085"/>
		<stop  offset="0.8764" style="stop-color:#807B80"/>
		<stop  offset="1" style="stop-color:#D1D3D4"/>
		<stop  offset="1" style="stop-color:#A7A9AC"/>
	</linearGradient>
	<path fill-rule="evenodd" clip-rule="evenodd" fill="url(#SVGID_1_)" d="M32.117,61.004C56.942,48.41,56.942,18.246,56.942,18.246
		C47.998,7.806,32.117,3.662,32.117,3.662S16.237,7.806,7.293,18.246C7.293,18.246,7.292,48.41,32.117,61.004z"/>
	<g>
		<g>
			<path fill="#009DE6" d="M12.666,20.45c0.395,5.441,2.958,24.9,19.452,34.487c16.573-9.623,19.08-29.04,19.457-34.483
				c-6.447-6.705-16.311-10.153-19.453-11.126C28.983,10.305,19.092,13.777,12.666,20.45z"/>
			<path fill="#595757" stroke="#FFFFFF" stroke-width="1.0415" stroke-miterlimit="10" d="M32.117,56.744l-0.784-0.456
				c-17.083-9.929-19.8-29.854-20.225-35.726l-0.051-0.694l0.483-0.502c6.726-6.983,17.098-10.591,20.117-11.529l0.463-0.144
				l0.462,0.143c3.016,0.933,13.373,4.521,20.117,11.536l0.48,0.499l-0.048,0.691c-0.404,5.86-3.062,25.757-20.229,35.726
				L32.117,56.744z"/>
			<linearGradient id="SVGID_2_" gradientUnits="userSpaceOnUse" x1="32.1196" y1="66.6162" x2="32.1196" y2="13.2335">
				<stop  offset="0" style="stop-color:#383D40"/>
				<stop  offset="0.1391" style="stop-color:#3B4042"/>
				<stop  offset="0.2331" style="stop-color:#44484A"/>
				<stop  offset="0.3139" style="stop-color:#535758"/>
				<stop  offset="0.3872" style="stop-color:#686B6B"/>
				<stop  offset="0.4547" style="stop-color:#848583"/>
				<stop  offset="0.5" style="stop-color:#9B9B98"/>
				<stop  offset="0.5974" style="stop-color:#8C8D8B"/>
				<stop  offset="0.7842" style="stop-color:#656868"/>
				<stop  offset="1" style="stop-color:#31373A"/>
			</linearGradient>
			<path fill="url(#SVGID_2_)" d="M32.117,56.744l-0.784-0.456c-17.083-9.929-19.8-29.854-20.225-35.726l-0.051-0.694l0.483-0.502
				c6.726-6.983,17.098-10.591,20.117-11.529l0.463-0.144l0.462,0.143c3.016,0.933,13.373,4.521,20.117,11.536l0.48,0.499
				l-0.048,0.691c-0.404,5.86-3.062,25.757-20.229,35.726L32.117,56.744z"/>
		</g>
	</g>
	<g>
		<path fill="#E75513" stroke="#3E3A39" stroke-width="4.166" stroke-miterlimit="10" d="M14.29,21.426
			c0.362,4.987,2.712,22.822,17.829,31.605C47.307,44.215,49.605,26.418,49.95,21.43c-5.908-6.146-14.948-9.306-17.828-10.196
			C29.245,12.128,20.18,15.311,14.29,21.426z"/>
	</g>
	<g>
		<radialGradient id="SVGID_3_" cx="39.6338" cy="10.6353" r="29.17" gradientUnits="userSpaceOnUse">
			<stop  offset="0" style="stop-color:#FFFBCC"/>
			<stop  offset="0.1146" style="stop-color:#FBF2BB"/>
			<stop  offset="0.3413" style="stop-color:#F0D98E"/>
			<stop  offset="0.3708" style="stop-color:#EED688"/>
			<stop  offset="0.6854" style="stop-color:#EBBB10"/>
			<stop  offset="1" style="stop-color:#FF922E"/>
		</radialGradient>
		<path fill="url(#SVGID_3_)" d="M14.29,21.426c0.362,4.987,2.712,22.822,17.829,31.605C47.307,44.215,49.605,26.418,49.95,21.43
			c-5.908-6.146-14.948-9.306-17.828-10.196C29.245,12.128,20.18,15.311,14.29,21.426z"/>
	</g>
	<radialGradient id="SVGID_4_" cx="32.1196" cy="32.1895" r="20.5347" gradientUnits="userSpaceOnUse">
		<stop  offset="0" style="stop-color:#FFFBCC"/>
		<stop  offset="0.1146" style="stop-color:#FBF2BB"/>
		<stop  offset="0.3413" style="stop-color:#F0D98E"/>
		<stop  offset="0.3708" style="stop-color:#EED688"/>
		<stop  offset="0.6854" style="stop-color:#EBBB10"/>
		<stop  offset="1" style="stop-color:#FF922E"/>
	</radialGradient>
	<path fill="url(#SVGID_4_)" d="M32.119,54.236l-0.523-0.305c-15.489-8.999-17.957-27.098-18.344-32.431l-0.034-0.463l0.322-0.335
		c6.1-6.333,15.528-9.611,18.272-10.465l0.309-0.096l0.309,0.095c2.739,0.849,12.153,4.107,18.271,10.471l0.32,0.332l-0.031,0.461
		c-0.368,5.323-2.779,23.393-18.349,32.432L32.119,54.236z"/>
	<radialGradient id="SVGID_5_" cx="41.541" cy="32.1895" r="16.9697" gradientUnits="userSpaceOnUse">
		<stop  offset="0" style="stop-color:#FFFBCC"/>
		<stop  offset="0.1417" style="stop-color:#EEEFDD"/>
		<stop  offset="0.3708" style="stop-color:#CAD6FF"/>
		<stop  offset="0.6854" style="stop-color:#00B2EF"/>
		<stop  offset="1" style="stop-color:#3D5BD8"/>
	</radialGradient>
	<path fill="url(#SVGID_5_)" d="M32.43,10.237l-0.309-0.095l-0.061,0.019v44.041l0.059,0.034l0.522-0.304
		c15.569-9.039,17.98-27.108,18.349-32.432l0.031-0.461l-0.32-0.332C44.583,14.345,35.169,11.086,32.43,10.237z"/>
	<g>
		<radialGradient id="SVGID_6_" cx="32.0054" cy="7.1807" r="40.0932" gradientUnits="userSpaceOnUse">
			<stop  offset="0" style="stop-color:#FFFBCC"/>
			<stop  offset="0.1146" style="stop-color:#FBF2BB"/>
			<stop  offset="0.3413" style="stop-color:#F0D98E"/>
			<stop  offset="0.3708" style="stop-color:#EED688"/>
			<stop  offset="0.6854" style="stop-color:#EBBB10"/>
			<stop  offset="1" style="stop-color:#FF922E"/>
		</radialGradient>
		<path fill="url(#SVGID_6_)" d="M14.29,21.426c0.362,4.987,2.712,22.822,17.829,31.605C47.307,44.215,49.605,26.418,49.95,21.43
			c-5.908-6.146-14.948-9.306-17.828-10.196C29.245,12.128,20.18,15.311,14.29,21.426z"/>
	</g>
	<radialGradient id="SVGID_7_" cx="31.9961" cy="11.6768" r="32.981" gradientUnits="userSpaceOnUse">
		<stop  offset="0" style="stop-color:#FFFBCC"/>
		<stop  offset="0.1417" style="stop-color:#EEEFDD"/>
		<stop  offset="0.3708" style="stop-color:#CAD6FF"/>
		<stop  offset="0.6854" style="stop-color:#00B2EF"/>
		<stop  offset="1" style="stop-color:#3D5BD8"/>
	</radialGradient>
	<path fill="url(#SVGID_7_)" d="M32.135,53.021c15.173-8.82,17.471-26.605,17.815-31.592c-5.9-6.137-14.923-9.297-17.815-10.192
		V53.021z"/>
	
		<radialGradient id="SVGID_8_" cx="49.1143" cy="11.6865" r="32.9819" gradientTransform="matrix(-1 0 0 1 81.373 0)" gradientUnits="userSpaceOnUse">
		<stop  offset="0" style="stop-color:#FFFBCC"/>
		<stop  offset="0.1146" style="stop-color:#FBF2BB"/>
		<stop  offset="0.3413" style="stop-color:#F0D98E"/>
		<stop  offset="0.3708" style="stop-color:#EED688"/>
		<stop  offset="0.6854" style="stop-color:#EBBB10"/>
		<stop  offset="1" style="stop-color:#FF922E"/>
	</radialGradient>
	<path fill="url(#SVGID_8_)" d="M32.119,53.031c-15.175-8.82-17.472-26.604-17.817-31.592c5.9-6.137,14.923-9.296,17.817-10.192
		V53.031z"/>
	
		<path fill="none" stroke="#036EB5" stroke-width="0.5208" stroke-linecap="round" stroke-linejoin="round" stroke-miterlimit="10" d="
		M32.327,11.247v41.784"/>
</g>
</svg>
