<?xml version="1.0" encoding="utf-8"?>
<!-- Generator: Adobe Illustrator 15.0.2, SVG Export Plug-In . SVG Version: 6.00 Build 0)  -->
<!DOCTYPE svg PUBLIC "-//W3C//DTD SVG 1.1//EN" "http://www.w3.org/Graphics/SVG/1.1/DTD/svg11.dtd">
<svg version="1.1" id="レイヤー_1" xmlns="http://www.w3.org/2000/svg" xmlns:xlink="http://www.w3.org/1999/xlink" x="0px"
	 y="0px" width="64px" height="64px" viewBox="0 0 64 64" style="enable-background:new 0 0 64 64;" xml:space="preserve">
<g>
	<g>
		<circle style="fill:#FFFFFF;" cx="17.5786133" cy="58.625" r="2.9580078"/>
		<path d="M17.5786133,62.5830078c-2.1826172,0-3.9580078-1.7753906-3.9580078-3.9580078s1.7753906-3.9580078,3.9580078-3.9580078
			s3.9580078,1.7753906,3.9580078,3.9580078S19.7612305,62.5830078,17.5786133,62.5830078z M17.5786133,56.6669922
			c-1.0795898,0-1.9580078,0.8779297-1.9580078,1.9580078s0.878418,1.9580078,1.9580078,1.9580078
			s1.9580078-0.8779297,1.9580078-1.9580078S18.6582031,56.6669922,17.5786133,56.6669922z"/>
	</g>
	<g>
		<circle style="fill:#FFFFFF;" cx="49.2890625" cy="58.625" r="2.9580078"/>
		<path d="M49.2880859,62.5830078c-2.1816406,0-3.9570313-1.7753906-3.9570313-3.9580078s1.7753906-3.9580078,3.9570313-3.9580078
			c2.1826172,0,3.9589844,1.7753906,3.9589844,3.9580078S51.4707031,62.5830078,49.2880859,62.5830078z M49.2880859,56.6669922
			c-1.0791016,0-1.9570313,0.8779297-1.9570313,1.9580078s0.8779297,1.9580078,1.9570313,1.9580078
			c1.0800781,0,1.9589844-0.8779297,1.9589844-1.9580078S50.3681641,56.6669922,49.2880859,56.6669922z"/>
	</g>
	<g>
		<path style="fill:#212121;" d="M42.0830078,38.3935547H7.4995117c-0.4814453,0-0.8945313-0.3427734-0.9829102-0.8164063
			L2.7670898,17.4936523c-0.0498047-0.2666016,0.0107422-0.5415039,0.1674805-0.7626953
			c0.1572266-0.2207031,0.3969727-0.3686523,0.6650391-0.409668l44.3339844-6.75
			c0.3271484-0.0478516,0.65625,0.0654297,0.8818359,0.3066406c0.2246094,0.2412109,0.3164063,0.578125,0.2441406,0.9003906
			l-6.0009766,26.8330078C42.9570313,38.0683594,42.5507813,38.3935547,42.0830078,38.3935547z M8.3300781,36.3935547h32.9521484
			l5.5068359-24.625L4.9228516,18.1430664L8.3300781,36.3935547z"/>
		<path style="fill:#212121;" d="M4.5761719,22.7431641c-0.4907227,0-0.9189453-0.3613281-0.9887695-0.8613281
			c-0.0766602-0.5473633,0.3046875-1.0527344,0.8515625-1.1289063l42.3286133-5.9165039
			c0.5439453-0.0810547,1.0527344,0.3046875,1.1289063,0.8515625c0.0761719,0.5473633-0.3046875,1.0527344-0.8515625,1.1289063
			L4.7163086,22.7333984C4.6689453,22.7402344,4.6225586,22.7431641,4.5761719,22.7431641z"/>
		<path style="fill:#212121;" d="M5.503418,27.7099609c-0.4931641,0-0.9223633-0.3647461-0.9897461-0.8671875
			C4.4404297,26.2954102,4.824707,25.7919922,5.3720703,25.71875l40.1699219-5.3793945
			c0.5498047-0.0742188,1.0507813,0.3110352,1.1240234,0.8583984s-0.3115234,1.0507813-0.8583984,1.1240234L5.6376953,27.7011719
			C5.5927734,27.7070313,5.5478516,27.7099609,5.503418,27.7099609z"/>
		<path style="fill:#212121;" d="M6.3710938,32.355957c-0.5063477,0-0.940918-0.3833008-0.9936523-0.8979492
			c-0.0566406-0.5493164,0.3427734-1.0405273,0.8920898-1.097168l37.9365234-3.9121094
			c0.5546875-0.0615234,1.0400391,0.3427734,1.0976563,0.8920898c0.0566406,0.5493164-0.3427734,1.0405273-0.8925781,1.097168
			L6.4746094,32.3500977C6.4399414,32.3540039,6.4052734,32.355957,6.3710938,32.355957z"/>
		<path style="fill:#212121;" d="M7.0551758,36.0166016c-0.5239258,0-0.9638672-0.4072266-0.9970703-0.9375
			c-0.034668-0.5507813,0.3842773-1.0263672,0.9355469-1.0605469l36.0649414-2.2631836
			c0.5390625-0.0449219,1.0263672,0.3833008,1.0605469,0.9355469c0.0341797,0.550293-0.3837891,1.0258789-0.9355469,1.0600586
			L7.1186523,36.0146484C7.0976563,36.015625,7.0761719,36.0166016,7.0551758,36.0166016z"/>
		<path style="fill:#212121;" d="M10.9980469,38.3935547c-0.4902344,0-0.9179688-0.3603516-0.9887695-0.8603516
			l-2.9165039-20.644043c-0.0771484-0.5463867,0.3037109-1.0527344,0.8505859-1.1298828
			c0.543457-0.078125,1.0522461,0.3032227,1.1298828,0.8505859l2.9165039,20.644043
			c0.0771484,0.546875-0.3037109,1.0527344-0.8505859,1.1298828C11.0917969,38.390625,11.0449219,38.3935547,10.9980469,38.3935547z
			"/>
		<path style="fill:#212121;" d="M15.1655273,38.3935547c-0.5073242,0-0.9418945-0.3837891-0.9941406-0.8994141
			l-2.1669922-21.3740234c-0.0556641-0.5498047,0.3447266-1.0400391,0.894043-1.0961914
			c0.5585938-0.0537109,1.0405273,0.3447266,1.0961914,0.894043l2.1669922,21.375
			c0.0556641,0.5488281-0.3447266,1.0400391-0.894043,1.0957031C15.2329102,38.3916016,15.1992188,38.3935547,15.1655273,38.3935547
			z"/>
		<path style="fill:#212121;" d="M20.0820313,38.3935547c-0.5214844,0-0.9614258-0.4042969-0.996582-0.9326172l-1.5-22.277832
			c-0.0371094-0.5512695,0.3793945-1.027832,0.9301758-1.0649414c0.5605469-0.0366211,1.0283203,0.3798828,1.0649414,0.9301758
			l1.5,22.277832c0.0371094,0.5507813-0.3793945,1.0283203-0.9301758,1.0654297
			C20.1274414,38.3925781,20.1044922,38.3935547,20.0820313,38.3935547z"/>
		<path style="fill:#212121;" d="M25.0883789,38.3935547c-0.5395508,0-0.984375-0.4296875-0.9990234-0.9726563
			l-0.6279297-23.0742188c-0.0151367-0.5522461,0.4204102-1.0117188,0.972168-1.0268555
			c0.546875-0.0112305,1.0117188,0.4204102,1.0268555,0.972168l0.6279297,23.0742188
			c0.0151367,0.5517578-0.4204102,1.0117188-0.972168,1.0273438C25.1069336,38.3935547,25.0976563,38.3935547,25.0883789,38.3935547
			z"/>
		<path style="fill:#212121;" d="M29.9165039,38.3935547c-0.5522461,0-1-0.4472656-1-1V13.4658203c0-0.5522461,0.4477539-1,1-1
			s1,0.4477539,1,1v23.9277344C30.9165039,37.9462891,30.46875,38.3935547,29.9165039,38.3935547z"/>
		<path style="fill:#212121;" d="M34.4619141,38.3935547c-0.0195313,0-0.0390625-0.0009766-0.0585938-0.0019531
			c-0.5507813-0.03125-0.9726563-0.5039063-0.9404297-1.0556641l1.4169922-24.7587891
			c0.03125-0.5517578,0.5058594-0.9765625,1.0556641-0.9414063c0.5507813,0.0317383,0.9726563,0.5043945,0.9404297,1.0556641
			l-1.4169922,24.7597656C35.4287109,37.9824219,34.9882813,38.3935547,34.4619141,38.3935547z"/>
		<path style="fill:#212121;" d="M38.1669922,38.0595703c-0.0507813,0-0.1025391-0.0039063-0.1542969-0.0117188
			c-0.5458984-0.0849609-0.9189453-0.5957031-0.8349609-1.1416016l3.9169922-25.2885742
			c0.0839844-0.5454102,0.5976563-0.9189453,1.1416016-0.8354492c0.5458984,0.0844727,0.9189453,0.5957031,0.8349609,1.1411133
			l-3.9169922,25.2895508C39.078125,37.7060547,38.6523438,38.0595703,38.1669922,38.0595703z"/>
		<path style="fill:#212121;" d="M14.0830078,57.8339844c-0.2680664,0-0.5356445-0.1074219-0.7324219-0.3193359
			c-0.3759766-0.4042969-0.3530273-1.0371094,0.0517578-1.4130859l2-1.8583984
			c0.1850586-0.171875,0.4282227-0.2675781,0.6806641-0.2675781h33.25c0.3662109,0,0.6337891-0.0722656,0.7177734-0.1933594
			c0.1376953-0.2011719,0.0849609-0.6865234-0.0146484-1.0351563L39.390625,41.2382813
			c-0.3046875-0.3291016-0.3525391-0.8222656-0.1162109-1.2050781l1.8691406-3.0224609l5.9648438-26.6689453
			c0.0136719-0.0615234,0.0332031-0.121582,0.0585938-0.1796875l1.9160156-4.4169922
			c0.1083984-0.2514648,0.3164063-0.4467773,0.5732422-0.5410156l6.8330078-2.5
			c0.5175781-0.1889648,1.09375,0.0766602,1.2832031,0.5952148c0.1894531,0.519043-0.0771484,1.0932617-0.5957031,1.2827148
			l-6.4296875,2.3525391l-1.7080078,3.9365234l-5.9804688,26.7402344c-0.0244141,0.109375-0.0664063,0.2128906-0.125,0.3085938
			L41.375,40.4384766L51.6503906,51.546875c0.0839844,0.0908203,0.1503906,0.1962891,0.1962891,0.3115234
			c0.0722656,0.1845703,0.6845703,1.8339844-0.1416016,3.0478516c-0.3320313,0.4882813-1.0136719,1.0693359-2.3720703,1.0693359
			H16.4760742l-1.7124023,1.5908203C14.5712891,57.7451172,14.3266602,57.8339844,14.0830078,57.8339844z"/>
		<path style="fill:#212121;" d="M28.6669922,55.9755859c-0.2753906,0-0.5488281-0.1123047-0.746582-0.3339844
			c-0.3676758-0.4121094-0.3320313-1.0439453,0.0800781-1.4121094l3.3334961-2.9755859C31.5170898,51.0908203,31.7543945,51,32,51
			h10.6826172l3.4882813-3.7871094c0.375-0.40625,1.0068359-0.4306641,1.4130859-0.0576172
			c0.40625,0.3740234,0.4316406,1.0068359,0.0576172,1.4130859l-3.7851563,4.109375
			C43.6669922,52.8828125,43.4003906,53,43.1210938,53H32.3813477l-3.0488281,2.7216797
			C29.1416016,55.8916016,28.9038086,55.9755859,28.6669922,55.9755859z"/>
	</g>
	<path style="fill:#FFFFFF;" d="M10.9990234,37.8935547c-0.2451172,0-0.4594727-0.1806641-0.4946289-0.4296875L7.5878906,16.8193359
		c-0.0385742-0.2734375,0.1518555-0.5263672,0.425293-0.5649414c0.2739258-0.0385742,0.5263672,0.1523438,0.5649414,0.425293
		l2.9165039,20.6435547c0.0385742,0.2734375-0.1518555,0.5263672-0.425293,0.5654297
		C11.0458984,37.8916016,11.0219727,37.8935547,10.9990234,37.8935547z"/>
	<g>
		<g>
			<path style="fill:#FFFFFF;" d="M42.0830078,37.8935547H7.4995117c-0.2407227,0-0.4472656-0.171875-0.4916992-0.4082031
				L3.2583008,17.4018555c-0.0249023-0.1333008,0.0053711-0.2709961,0.0839844-0.3813477s0.1987305-0.1845703,0.3325195-0.2045898
				l44.3339844-6.75c0.1650391-0.0244141,0.328125,0.0322266,0.4404297,0.152832
				c0.1132813,0.1206055,0.1591797,0.2895508,0.1230469,0.4501953l-6.0009766,26.8339844
				C42.5195313,37.7314453,42.3173828,37.8935547,42.0830078,37.8935547z M7.9150391,36.8935547h33.7675781l5.7539063-25.7290039
				L4.3364258,17.7265625L7.9150391,36.8935547z"/>
			<path style="fill:#FFFFFF;" d="M4.5771484,22.2431641c-0.2456055,0-0.4599609-0.1806641-0.4946289-0.4306641
				c-0.0380859-0.2734375,0.1523438-0.5263672,0.4257813-0.5644531l42.3286133-5.9165039
				c0.265625-0.0419922,0.5263672,0.1513672,0.5644531,0.4257813c0.0380859,0.2734375-0.1523438,0.5263672-0.4257813,0.5644531
				L4.6469727,22.2382813C4.6235352,22.2416992,4.6000977,22.2431641,4.5771484,22.2431641z"/>
			<path style="fill:#FFFFFF;" d="M5.5043945,27.2099609c-0.246582,0-0.4614258-0.1826172-0.4951172-0.4335938
				c-0.0366211-0.2739258,0.1557617-0.5253906,0.4291992-0.5620117l40.1699219-5.3793945
				c0.2685547-0.0400391,0.5253906,0.1552734,0.5615234,0.4291992c0.0371094,0.2739258-0.1552734,0.5253906-0.4287109,0.5620117
				L5.5712891,27.2055664C5.5488281,27.2084961,5.5263672,27.2099609,5.5043945,27.2099609z"/>
			<path style="fill:#FFFFFF;" d="M6.371582,31.8554688c-0.253418,0-0.4702148-0.1914063-0.4970703-0.4487305
				c-0.0283203-0.2749023,0.1713867-0.5205078,0.4462891-0.5488281l37.9360352-3.9121094
				c0.2675781-0.0244141,0.5205078,0.1708984,0.5488281,0.4462891c0.0283203,0.2749023-0.1708984,0.5205078-0.4453125,0.5488281
				L6.4233398,31.8530273C6.4057617,31.8544922,6.3886719,31.8554688,6.371582,31.8554688z"/>
			<path style="fill:#FFFFFF;" d="M7.0556641,35.5166016c-0.2617188,0-0.4819336-0.2041016-0.4985352-0.46875
				c-0.0170898-0.2753906,0.1918945-0.5126953,0.4677734-0.5302734l36.0649414-2.2631836
				c0.3056641-0.015625,0.5126953,0.1933594,0.5302734,0.4677734c0.0175781,0.2753906-0.1923828,0.512207-0.4677734,0.5297852
				L7.0874023,35.515625C7.0766602,35.5166016,7.0664063,35.5166016,7.0556641,35.5166016z"/>
			<path style="fill:#FFFFFF;" d="M15.1660156,37.8935547c-0.253418,0-0.4707031-0.1923828-0.4970703-0.4492188l-2.1669922-21.375
				c-0.027832-0.2744141,0.1723633-0.5200195,0.4472656-0.5478516c0.2792969-0.0209961,0.5200195,0.1728516,0.5478516,0.4472656
				l2.1669922,21.3740234c0.027832,0.2753906-0.1723633,0.5205078-0.4472656,0.5478516
				C15.199707,37.8925781,15.1826172,37.8935547,15.1660156,37.8935547z"/>
			<path style="fill:#FFFFFF;" d="M20.0825195,37.8935547c-0.2607422,0-0.4804688-0.2021484-0.4985352-0.4667969l-1.5-22.2773438
				c-0.0185547-0.2753906,0.1899414-0.5141602,0.465332-0.5327148c0.2905273-0.0029297,0.5136719,0.1899414,0.5327148,0.465332
				l1.5,22.2783203c0.0185547,0.2753906-0.1899414,0.5136719-0.465332,0.5322266
				C20.1049805,37.8935547,20.09375,37.8935547,20.0825195,37.8935547z"/>
			<path style="fill:#FFFFFF;" d="M25.0883789,37.8935547c-0.2695313,0-0.4916992-0.2148438-0.4995117-0.4863281
				l-0.6279297-23.0742188c-0.0073242-0.2758789,0.2104492-0.5058594,0.4863281-0.5136719
				c0.2661133-0.0078125,0.5058594,0.2099609,0.5136719,0.4863281l0.6279297,23.0742188
				c0.0073242,0.2763672-0.2104492,0.5058594-0.4863281,0.5136719
				C25.0976563,37.8935547,25.0932617,37.8935547,25.0883789,37.8935547z"/>
			<path style="fill:#FFFFFF;" d="M29.9165039,37.8935547c-0.2763672,0-0.5-0.2236328-0.5-0.5V13.4658203
				c0-0.2763672,0.2236328-0.5,0.5-0.5s0.5,0.2236328,0.5,0.5v23.9277344
				C30.4165039,37.6699219,30.1928711,37.8935547,29.9165039,37.8935547z"/>
			<path style="fill:#FFFFFF;" d="M34.4609375,37.8935547c-0.0087891,0-0.0185547,0-0.0283203-0.0009766
				c-0.2763672-0.015625-0.4863281-0.2519531-0.4707031-0.5273438l1.4169922-24.7597656
				c0.015625-0.2739258,0.2324219-0.472168,0.5273438-0.4702148c0.2763672,0.015625,0.4863281,0.2519531,0.4707031,0.527832
				L34.9599609,37.421875C34.9453125,37.6884766,34.7246094,37.8935547,34.4609375,37.8935547z"/>
			<path style="fill:#FFFFFF;" d="M38.1669922,37.5595703c-0.0253906,0-0.0517578-0.0019531-0.0771484-0.0058594
				c-0.2734375-0.0419922-0.4599609-0.2978516-0.4179688-0.5703125l3.9169922-25.2895508
				c0.0419922-0.2729492,0.3046875-0.4560547,0.5703125-0.4174805c0.2734375,0.0424805,0.4599609,0.2978516,0.4179688,0.5708008
				l-3.9169922,25.2885742C38.6220703,37.3828125,38.4091797,37.5595703,38.1669922,37.5595703z"/>
			<path style="fill:#FFFFFF;" d="M14.0830078,57.3339844c-0.1337891,0-0.2675781-0.0537109-0.3662109-0.1591797
				c-0.1879883-0.203125-0.1762695-0.5195313,0.0258789-0.7070313l2-1.8583984
				c0.0922852-0.0859375,0.2138672-0.1337891,0.340332-0.1337891h33.25c0.5634766,0,0.9433594-0.1386719,1.1308594-0.4121094
				c0.3027344-0.4423828,0.1347656-1.21875,0.0166016-1.5722656L39.7578125,40.8994141
				c-0.1523438-0.1650391-0.1757813-0.4121094-0.0576172-0.6025391l1.9130859-3.0947266l5.9824219-26.7509766l1.9453125-4.5073242
				c0.0546875-0.1254883,0.1582031-0.2231445,0.2871094-0.2705078l6.8330078-2.5
				c0.2607422-0.0942383,0.546875,0.0385742,0.6416016,0.2978516s-0.0390625,0.5463867-0.2978516,0.6416016l-6.6318359,2.4262695
				l-1.8300781,4.2202148l-5.9716797,26.7436523c-0.0126953,0.0537109-0.0341797,0.1064453-0.0634766,0.1533203L40.75,40.4990234
				l10.5332031,11.3867188c0.0419922,0.0458984,0.0751953,0.0986328,0.0976563,0.15625
				c0.0625,0.1591797,0.5927734,1.5810547-0.0898438,2.5830078c-0.3837891,0.5644531-1.0429688,0.8505859-1.9580078,0.8505859
				H16.2792969l-1.855957,1.7246094C14.3271484,57.2900391,14.2050781,57.3339844,14.0830078,57.3339844z"/>
		</g>
		<path style="fill:#FFFFFF;" d="M28.6665039,55.4755859c-0.137207,0-0.2744141-0.0566406-0.3730469-0.1669922
			c-0.184082-0.2060547-0.1660156-0.5224609,0.0400391-0.7060547l3.3334961-2.9755859
			C31.7587891,51.5449219,31.8769531,51.5,32,51.5h10.9023438l3.6357422-3.9482422
			c0.1875-0.203125,0.5029297-0.2148438,0.7070313-0.0292969c0.203125,0.1875,0.2158203,0.5039063,0.0292969,0.7070313
			l-3.7851563,4.109375C43.3945313,52.4414063,43.2607422,52.5,43.1210938,52.5H32.190918l-3.1914063,2.8486328
			C28.9042969,55.4335938,28.7851563,55.4755859,28.6665039,55.4755859z"/>
	</g>
	<path style="fill:#F83030;" d="M52.8134766,6.5849609c-0.6396484,0-1.2314453-0.4111328-1.4316406-1.0532227
		c-0.2470703-0.7905273,0.1933594-1.6318359,0.984375-1.8789063l6.9365234-2.1669922
		c0.7929688-0.2485352,1.6328125,0.1943359,1.8789063,0.984375c0.2470703,0.7905273-0.1933594,1.6318359-0.984375,1.8789063
		l-6.9365234,2.1669922C53.1123047,6.5625,52.9609375,6.5849609,52.8134766,6.5849609z"/>
</g>
</svg>
