<?xml version="1.0" encoding="utf-8"?>
<!-- Generator: Adobe Illustrator 15.0.0, SVG Export Plug-In . SVG Version: 6.00 Build 0)  -->
<!DOCTYPE svg PUBLIC "-//W3C//DTD SVG 1.1//EN" "http://www.w3.org/Graphics/SVG/1.1/DTD/svg11.dtd">
<svg version="1.1" id="レイヤー_1" xmlns="http://www.w3.org/2000/svg" xmlns:xlink="http://www.w3.org/1999/xlink" x="0px"
	 y="0px" width="64px" height="64px" viewBox="0 0 64 64" style="enable-background:new 0 0 64 64;" xml:space="preserve">
<g>
	<g>
		<path style="fill:#FFE5D8;" d="M14.168457,34.8173828c0,0-0.8681641-2.1923828-3.1791992-1.1865234
			c-2.3120117,1.0058594-3.3598633,2.6650391-3.3598633,2.6650391s-4.0839844-0.6689453-5.2548828-1.1044922
			c-0.7612305-0.2841797-1.0688477,1.5791016,0.0219727,1.78125c0.8569336,0.1582031,4.5249023,2.0371094,5.2314453,2.1425781
			C8.3354492,39.2236328,14.0585938,37.1875,14.0585938,37.1875l1.4125977,0.0654297l0.1206055-2.5917969L14.168457,34.8173828z"/>
		<path style="fill:#FFE5D8;" d="M49.8310547,34.8173828c0,0,0.8681641-2.1923828,3.1796875-1.1865234
			c2.3125,1.0058594,3.359375,2.6650391,3.359375,2.6650391s4.0849609-0.6689453,5.2548828-1.1044922
			c0.7617188-0.2841797,1.0703125,1.5791016-0.0224609,1.78125c-0.8554688,0.1582031-4.5244141,2.0371094-5.2304688,2.1425781
			C55.6640625,39.2236328,49.9414063,37.1875,49.9414063,37.1875l-1.4121094,0.0654297l-0.1201172-2.5917969L49.8310547,34.8173828z
			"/>
	</g>
	<g>
		<path style="fill:#BB806F;" d="M7.6928711,39.6191406l-0.140625-0.0097656
			c-0.394043-0.0585938-1.2568359-0.4423828-2.6323242-1.0644531c-0.9970703-0.4501953-2.2382813-1.0107422-2.6142578-1.0810547
			c-0.7299805-0.1347656-1.1865234-0.8046875-1.1113281-1.6279297c0.0771484-0.8320313,0.7133789-1.3505859,1.3549805-1.1132813
			c0.9311523,0.3466797,3.8930664,0.8652344,4.855957,1.0283203c0.4189453-0.5439453,1.5087891-1.7626953,3.3842773-2.5791016
			c0.4658203-0.2021484,0.9189453-0.3051758,1.3461914-0.3051758c1.2954102,0,2.0141602,0.8999023,2.3198242,1.4165039
			l1.6630859-0.1826172l-0.1713867,3.6748047l-1.8139648-0.0839844
			C13.0302734,38.0830078,8.6357422,39.6191406,7.6928711,39.6191406z M2.2001953,35.6601563
			C2.234375,35.6875,2.1416016,35.9384766,2.2114258,36.1982422c0.0649414,0.2431641,0.2182617,0.2724609,0.2763672,0.2832031
			c0.4604492,0.0849609,1.425293,0.5117188,2.8442383,1.1523438c0.8740234,0.3955078,2.0688477,0.9355469,2.3618164,0.9853516
			c0.6201172-0.0009766,4.1298828-1.1669922,6.1972656-1.9023438l0.0922852-0.0332031l1.0117188,0.046875l0.0698242-1.5087891
			l-1.2207031,0.1347656l-0.140625-0.3544922c-0.0180664-0.0439453-0.4765625-1.1347656-1.5678711-1.1347656
			c-0.2890625,0-0.6079102,0.0742188-0.9467773,0.2216797C9.0424805,35.0234375,8.0620117,36.5478516,8.0522461,36.5625
			l-0.1767578,0.2802734l-0.3271484-0.0537109C7.3798828,36.7617188,3.402832,36.1074219,2.2001953,35.6601563z"/>
		<path style="fill:#BB806F;" d="M56.3076172,39.6191406c-0.9433594,0-5.3378906-1.5361328-6.4414063-1.9277344
			l-1.8134766,0.0839844l-0.1699219-3.6748047l1.6611328,0.1826172c0.3056641-0.5166016,1.0244141-1.4165039,2.3203125-1.4165039
			c0.4267578,0,0.8798828,0.1030273,1.3457031,0.3051758c1.8759766,0.8164063,2.9658203,2.0351563,3.3847656,2.5791016
			c0.9628906-0.1630859,3.9257813-0.6816406,4.8554688-1.0283203c0.6396484-0.2373047,1.2792969,0.2822266,1.3554688,1.1142578
			c0.0751953,0.8232422-0.3818359,1.4921875-1.1123047,1.6269531c-0.375,0.0703125-1.6152344,0.6298828-2.6123047,1.0810547
			c-1.3759766,0.6210938-2.2392578,1.0058594-2.6347656,1.0644531L56.3076172,39.6191406z M50.0166016,36.6835938
			l0.0927734,0.0332031c2.0673828,0.7353516,5.5791016,1.9023438,6.1972656,1.9023438v0.5l0.0039063-0.5
			c0.265625-0.0400391,1.4755859-0.5869141,2.359375-0.9853516c1.4179688-0.6416016,2.3818359-1.0673828,2.8417969-1.1523438
			c0.0576172-0.0107422,0.2119141-0.0400391,0.2773438-0.2832031c0.0693359-0.2597656-0.0234375-0.5107422-0.0761719-0.5556641
			c-1.1152344,0.4648438-5.0927734,1.1191406-5.2617188,1.1464844l-0.3251953,0.0537109l-0.1777344-0.2792969
			c-0.0097656-0.0146484-1.0068359-1.5478516-3.1367188-2.4736328c-0.3398438-0.1484375-0.6582031-0.2226563-0.9472656-0.2226563
			c-1.1064453,0-1.5634766,1.1230469-1.5683594,1.1347656l-0.140625,0.3544922l-1.2197266-0.1347656l0.0703125,1.5087891
			L50.0166016,36.6835938z"/>
	</g>
	<g>
		<g>
			<rect x="29.0141602" y="33.3662109" style="fill:#FFB896;" width="5.9702148" height="13.3457031"/>
			<path style="fill:#2B0F01;" d="M35.4960938,47.2236328h-6.9936523V32.8544922h6.9936523V47.2236328z M29.5258789,46.2001953
				h4.9467773V33.8779297h-4.9467773V46.2001953z"/>
		</g>
	</g>
	<g>
		<path style="fill:#FFE5D8;" d="M37.7597656,28.4291992c0,0,2.4189453-0.3696289,2.2001953,2.0117188
			c-0.2207031,2.3813477-5,2.09375-5,2.09375L37.7597656,28.4291992z"/>
		<path style="fill:#FFE5D8;" d="M25.2739258,23.449707c0,0-1.5-1.9326172-2.9790039-0.0537109
			s2.1860352,4.9599609,2.1860352,4.9599609L25.2739258,23.449707z"/>
	</g>
	<g>
		<path style="fill:#BB806F;" d="M35.4335938,33.0449219c-0.3115234,0-0.5039063-0.0117188-0.5039063-0.0117188
			l-0.8779297-0.0532227l3.4160156-5.0107422l0.2167969-0.0341797c0,0,0.1660156-0.0263672,0.4150391-0.0263672
			c0.7753906,0,1.4306641,0.2495117,1.84375,0.7026367c0.4140625,0.4536133,0.5869141,1.0844727,0.5146484,1.8754883
			C40.2441406,32.7963867,36.8730469,33.0449219,35.4335938,33.0449219z M38.0380859,28.9091797l-2.1318359,3.125
			c1.1123047-0.050293,3.4326172-0.3139648,3.5556641-1.6391602c0.0458984-0.4990234-0.0410156-0.8720703-0.2568359-1.109375
			C38.8828125,28.9326172,38.3125,28.9018555,38.0380859,28.9091797z"/>
		<path style="fill:#BB806F;" d="M24.8339844,29.3056641l-0.6748047-0.5668945
			c-0.1645508-0.1386719-4.015625-3.418457-2.2573242-5.6518555c0.5288086-0.671875,1.1337891-1.012207,1.7978516-1.012207
			c1.1269531,0,1.9355469,1.0249023,1.9692383,1.0683594l0.1333008,0.171875L24.8339844,29.3056641z M23.699707,23.074707
			c-0.3417969,0-0.6826172,0.2119141-1.0117188,0.6303711c-0.8085938,1.0268555,0.5634766,2.71875,1.4506836,3.6333008
			l0.6035156-3.7329102C24.5185547,23.3833008,24.1157227,23.074707,23.699707,23.074707z"/>
	</g>
	<g>
		<rect x="29.0141602" y="33.3662109" style="fill:#FFE5D8;" width="5.9702148" height="13.3457031"/>
	</g>
	<g>
		<path style="fill:#1196E9;" d="M48.4853516,34.1376953l-3.0429688,8.6298828c0,0-2.8535156-4.6796875-4.1416016-5.8095703
			c-1.3125-1.1513672-6.0068359-3.0517578-6.0068359-3.0517578v1.4628906c0,1.6708984-1.4755859,3.4404297-3.2939453,3.4404297
			c-1.8178711,0-3.2929688-1.7695313-3.2929688-3.4404297V33.90625c0,0-4.6938477,1.9003906-6.0073242,3.0517578
			c-1.2895508,1.1298828-4.1411133,5.8095703-4.1411133,5.8095703l-3.0424805-8.6298828l-2.625,3.7460938
			c0,0,0.6352539,10.0830078,2.3574219,12.2958984c0.4907227,0.6318359,1.9189453,1.5761719,2.6342773,1.4345703
			C18.7963867,51.4326172,22.8120117,45.6416016,24,44.2480469l-1.0830078,6.828125H32h8.5839844l-0.9746094-6.828125
			c1.1884766,1.3935547,5.5957031,7.1845703,6.5087891,7.3662109c0.7148438,0.1416016,2.1425781-0.8027344,2.6337891-1.4345703
			c1.7216797-2.2128906,2.3564453-12.2958984,2.3564453-12.2958984L48.4853516,34.1376953z"/>
		<path style="fill:#2B0F01;" d="M46.2734375,52.1787109L46.2734375,52.1787109
			c-0.0917969,0-0.1796875-0.0087891-0.2617188-0.0244141c-0.6962891-0.1386719-1.9414063-1.4824219-5.5556641-5.9912109
			c-0.0068359-0.0087891-0.0146484-0.0175781-0.0214844-0.0273438l0.6738281,4.7197266
			c0.0292969,0.0683594,0.0458984,0.1425781,0.0458984,0.2207031c0,0.3037109-0.2460938,0.5498047-0.5507813,0.5498047
			c-0.0058594-0.0009766-0.0126953-0.0009766-0.0195313,0H22.9169922c-0.1611328,0-0.3139648-0.0703125-0.418457-0.1923828
			c-0.1044922-0.1230469-0.1499023-0.2841797-0.125-0.4433594l0.7475586-4.7109375
			c-0.112793,0.1494141-0.2294922,0.3046875-0.3486328,0.4638672c-2.7753906,3.6972656-4.0537109,5.265625-4.7822266,5.4101563
			c-0.9536133,0.1904297-2.6137695-0.9121094-3.1762695-1.6357422c-1.7749023-2.28125-2.4057617-11.5498047-2.4716797-12.5996094
			c-0.0078125-0.1240234,0.0268555-0.2480469,0.0981445-0.3496094l2.625-3.7460938
			c0.1181641-0.1689453,0.3193359-0.2636719,0.5253906-0.2294922c0.2041016,0.0283203,0.3754883,0.1679688,0.4438477,0.3623047
			l2.6625977,7.5507813c0.9228516-1.4560547,2.6665039-4.1083984,3.6401367-4.9619141
			c1.3671875-1.1982422,5.9682617-3.0683594,6.1630859-3.1474609c0.1694336-0.0693359,0.3618164-0.0488281,0.5141602,0.0537109
			c0.1513672,0.1025391,0.2426758,0.2734375,0.2426758,0.4560547v1.4628906c0,1.3369141,1.1977539,2.890625,2.7426758,2.890625
			s2.7441406-1.5537109,2.7441406-2.890625V33.90625c0-0.1826172,0.0908203-0.3535156,0.2421875-0.4560547
			c0.1523438-0.1025391,0.3427734-0.1240234,0.5136719-0.0537109c0.1953125,0.0791016,4.796875,1.9492188,6.1630859,3.1484375
			c0.9726563,0.8525391,2.7167969,3.5048828,3.640625,4.9619141l2.6630859-7.5517578
			c0.0683594-0.1943359,0.2402344-0.3339844,0.4443359-0.3623047c0.203125-0.0322266,0.4072266,0.0605469,0.5244141,0.2294922
			l2.6230469,3.7460938c0.0722656,0.1025391,0.1064453,0.2255859,0.0986328,0.3496094
			c-0.0654297,1.0498047-0.6962891,10.3183594-2.4707031,12.5996094
			C48.671875,51.1787109,47.2480469,52.1787109,46.2734375,52.1787109z M39.609375,43.6982422
			c0.1572266,0,0.3115234,0.0673828,0.4189453,0.1923828c0.2802734,0.3291016,0.7373047,0.9003906,1.2861328,1.5849609
			c1.2792969,1.5957031,4.2744141,5.3320313,4.9423828,5.6074219l0.0166016-0.0048828
			c0.5234375,0,1.6474609-0.7255859,2.0439453-1.2363281c1.2978516-1.6669922,2.0351563-8.9013672,2.2294922-11.8007813
			l-1.8984375-2.7119141l-2.6875,7.6210938c-0.0703125,0.2001953-0.25,0.3427734-0.4609375,0.3642578
			c-0.21875,0.0234375-0.4169922-0.0791016-0.5273438-0.2607422c-0.78125-1.28125-3.0302734-4.8007813-4.0341797-5.6826172
			c-0.859375-0.7529297-3.5126953-1.9658203-5.0947266-2.6396484v0.6376953c0,1.8837891-1.6435547,3.9902344-3.84375,3.9902344
			c-2.199707,0-3.8432617-2.1064453-3.8432617-3.9902344v-0.6376953c-1.581543,0.6738281-4.2358398,1.8876953-5.0942383,2.640625
			c-1.0058594,0.8808594-3.2529297,4.4003906-4.0341797,5.6816406c-0.1108398,0.1816406-0.3178711,0.2783203-0.5268555,0.2607422
			c-0.2114258-0.0214844-0.3911133-0.1640625-0.4614258-0.3642578l-2.6870117-7.6210938l-1.9003906,2.7119141
			c0.1948242,2.8994141,0.9326172,10.1337891,2.2299805,11.8007813c0.3969727,0.5107422,1.5209961,1.2363281,2.0444336,1.2363281
			c0.6030273-0.2509766,2.9204102-3.3378906,4.1655273-4.9960938c0.7094727-0.9443359,1.3222656-1.7607422,1.6889648-2.1904297
			c0.159668-0.1884766,0.4257813-0.2431641,0.6484375-0.1435547c0.2241211,0.1035156,0.3520508,0.3427734,0.3134766,0.5859375
			l-0.9824219,6.1923828h16.3891602l-0.8857422-6.2001953c-0.0341797-0.2431641,0.0957031-0.4785156,0.3183594-0.5791016
			C39.4560547,43.7138672,39.5332031,43.6982422,39.609375,43.6982422z"/>
	</g>
	<path style="fill:#FFE5D8;" d="M37.9130859,29.590332c-3.6386719,5.9975586-6.3583984,7.5854492-10.2568359,6.0297852
		c-3.8989258-1.5537109-4.4663086-5.8164063-2.934082-12.3310547c2.3798828-5.96875,5.7636719-6.1899414,9.6645508-4.6342773
		C38.2822266,20.2084961,40.3671875,23.4394531,37.9130859,29.590332z"/>
	<path style="fill:#BB806F;" d="M30.2490234,36.6796875c-0.8657227,0-1.7744141-0.1943359-2.7783203-0.5947266
		c-5.1396484-2.0488281-4.3081055-8.3491211-3.2353516-12.9101563c1.5693359-3.9511719,3.7084961-5.8374023,6.5605469-5.8374023
		c1.1015625,0,2.3369141,0.2788086,3.7763672,0.8530273c2.2294922,0.8896484,3.71875,2.2431641,4.4238281,4.0239258
		c0.7929688,2.0019531,0.5849609,4.5458984-0.6181641,7.5610352C35.3974609,34.7011719,33.0527344,36.6796875,30.2490234,36.6796875
		z M30.7958984,18.3374023c-2.4291992,0-4.2119141,1.6323242-5.609375,5.1367188
		c-1.5693359,6.6972656-0.7573242,10.3217773,2.6547852,11.6811523c0.8837891,0.3525391,1.6713867,0.5244141,2.4077148,0.5244141
		c2.4042969,0,4.5009766-1.8398438,7.2363281-6.3486328c1.0683594-2.6967773,1.2763672-4.9916992,0.5810547-6.7485352
		c-0.6005859-1.5146484-1.9003906-2.6796875-3.8652344-3.4633789
		C32.8823242,18.5932617,31.7680664,18.3374023,30.7958984,18.3374023z"/>
	<path style="fill:#2B0F01;" d="M37.4755859,26.4135742c-0.2021484,0-0.3857422-0.1376953-0.4365234-0.3427734
		c-0.5048828-2.0678711-1.2109375-2.7333984-1.7148438-2.9272461c-0.5693359-0.2197266-1.0664063,0.1000977-1.0712891,0.1030273
		c-0.2041016,0.1396484-0.484375,0.0869141-0.6240234-0.1196289c-0.1386719-0.2050781-0.0849609-0.484375,0.1201172-0.6235352
		c0.0351563-0.0239258,0.8857422-0.5864258,1.8984375-0.1982422c1.0234375,0.3945313,1.7851563,1.5898438,2.2646484,3.5527344
		c0.0585938,0.2407227-0.0888672,0.4838867-0.3300781,0.5429688C37.5458984,26.4091797,37.5107422,26.4135742,37.4755859,26.4135742
		z"/>
	<path style="fill:#2B0F01;" d="M28.996582,23.0888672c-1.5688477,0-2.4594727-1.0522461-2.4726563-1.0683594
		c-0.1572266-0.1918945-0.1293945-0.4750977,0.0625-0.6323242c0.1914063-0.1567383,0.4726563-0.1289063,0.6303711,0.0605469
		c0.0673828,0.0795898,1.5444336,1.7583008,4.1992188-0.2172852c0.1982422-0.1489258,0.480957-0.1074219,0.628418,0.0922852
		c0.1479492,0.1992188,0.1069336,0.4804688-0.0922852,0.628418C30.8037109,22.8061523,29.809082,23.0888672,28.996582,23.0888672z"
		/>
	
		<linearGradient id="SVGID_1_" gradientUnits="userSpaceOnUse" x1="30.6542969" y1="29.4008789" x2="32.5485458" y2="32.0751953" gradientTransform="matrix(0.9289 0.3704 -0.3704 0.9289 12.0018721 -10.0690384)">
		<stop  offset="0" style="stop-color:#FFA57F"/>
		<stop  offset="0.0913411" style="stop-color:#FF977B"/>
		<stop  offset="0.3616658" style="stop-color:#FF7170"/>
		<stop  offset="0.6119642" style="stop-color:#FF5568"/>
		<stop  offset="0.8325609" style="stop-color:#FF4564"/>
		<stop  offset="1" style="stop-color:#FF3F62"/>
	</linearGradient>
	<path style="fill:url(#SVGID_1_);" d="M31.0053711,30.390625c-0.2119141,0.5307617-0.8701172,0.7651367-1.4726563,0.5249023
		s-0.918457-0.8637695-0.7070313-1.394043C29.0366211,28.9926758,29.6943359,28.7597656,30.296875,29
		C30.8994141,29.2407227,31.2158203,29.8618164,31.0053711,30.390625z"/>
	<g>
		<g>
			
				<ellipse transform="matrix(0.9289255 0.3702666 -0.3702666 0.9289255 11.5441933 -8.4638672)" style="fill:#2B0F01;" cx="27.8186035" cy="25.8381348" rx="0.7866216" ry="0.9555424"/>
			<polygon style="fill:#2B0F01;" points="29.621582,25.8027344 29.1254883,25.3022461 26.6489258,24.8447266 
				26.0058594,25.0322266 25.8447266,24.4814453 26.6186523,24.2548828 29.4067383,24.7700195 30.0297852,25.3984375 			"/>
		</g>
		<g>
			
				<ellipse transform="matrix(-0.9286478 -0.3709628 0.3709628 -0.9286478 55.5568466 67.5102158)" style="fill:#2B0F01;" cx="34.2709961" cy="28.4121094" rx="0.7871198" ry="0.9561322"/>
			<polygon style="fill:#2B0F01;" points="36.1474609,29.184082 35.8427734,28.5878906 33.8095703,27.0986328 
				33.1074219,27.0820313 33.1210938,26.5078125 34.0029297,26.5292969 36.3232422,28.265625 36.6591797,28.9223633 			"/>
		</g>
	</g>
	<path style="fill:#2B0F01;" d="M30.3466797,35.3935547c-0.1816406,0-0.3530273-0.1113281-0.4204102-0.2919922
		c-0.5073242-1.3515625-1.1757813-2.2333984-1.9335938-2.5493164c-0.6420898-0.2666016-1.1420898-0.0488281-1.1635742-0.0395508
		c-0.2246094,0.1025391-0.4907227,0.0039063-0.59375-0.2192383c-0.1035156-0.2231445-0.0107422-0.4873047,0.2109375-0.5932617
		c0.0341797-0.0161133,0.8515625-0.3969727,1.8618164,0.0107422c1.0205078,0.4111328,1.8481445,1.4453125,2.4589844,3.0761719
		c0.0874023,0.2314453-0.0302734,0.4902344-0.2626953,0.578125C30.4526367,35.3847656,30.3989258,35.3935547,30.3466797,35.3935547z
		"/>
	<g>
		<path style="fill:#2B0F01;" d="M24.5737305,22.8100586c0,0,0.1923828-1.8061523,1.3759766-4.9428711
			c1.4033203-3.7192383,3.4824219-5.28125,3.4824219-5.28125l1.2255859,1.9711914l0.5825195-1.4614258l1.6318359,1.3916016
			l0.9326172-1.5341797l1.1943359,2.9116211l1.0322266-2.0229492c0,0,3.7519531,2.8720703,4.7314453,8.0273438
			c0.3515625,1.8481445-2.6025391,7.0649414-2.6025391,7.0649414l-0.6757813,1.1552734l1.3681641-6.5585938l-2.1474609-2.5390625
			l-4.190918-0.71875l1.4379883-1.7817383l-3.5742188,0.9301758l1.4438477-1.4970703l-4.2207031,1.7661133l-0.2993164-1.4960938
			l-2.7802734,6.0024414L24.5737305,22.8100586z"/>
		<path style="fill:#2B0F01;" d="M36.3427734,33.0537109l1.9580078-9.3833008l-1.8662109-2.2055664l-4.8662109-0.8349609
			l1.0107422-1.2524414l-3.831543,0.9970703l0.9848633-1.0209961l-2.5107422,1.050293l-0.1142578-0.5722656l-3.1933594,6.8945313
			L24.0625,22.7910156c0.0102539-0.1113281,0.215332-1.9428711,1.4082031-5.1044922
			c1.4394531-3.8144531,3.5644531-5.4423828,3.6538086-5.5097656l0.4472656-0.3359375l0.9858398,1.5859375l0.4716797-1.1835938
			l1.7177734,1.4648438l1.1464844-1.8867188l1.15625,2.8183594l0.8046875-1.5776367l0.4882813,0.3735352
			c0.1591797,0.1220703,3.9179688,3.0517578,4.9228516,8.3378906c0.3759766,1.9755859-2.3486328,6.8623047-2.6601563,7.4125977
			L36.3427734,33.0537109z M33.4599609,19.9160156l3.515625,0.6030273l2.4287109,2.8720703l-0.7148438,3.4287109
			c0.8955078-1.8432617,1.7382813-3.9716797,1.5703125-4.8549805c-0.7275391-3.8295898-3.0634766-6.3652344-4.0703125-7.3071289
			l-1.2412109,2.4321289l-1.2324219-3.0048828l-0.71875,1.1816406l-1.5458984-1.3183594L30.7578125,15.6875l-1.4375-2.3125
			c-0.6538086,0.6479492-1.9379883,2.1455078-2.8916016,4.6728516c-0.4130859,1.0942383-0.703125,2.0249023-0.9052734,2.7680664
			l1.9726563-4.2587891l0.484375,2.4199219l5.9306641-2.4819336l-1.902832,1.9731445l3.3168945-0.8632813L33.4599609,19.9160156z"/>
	</g>
</g>
</svg>
