<?xml version="1.0" encoding="UTF-8"?>
<!-- Generated by phantom_svg. -->
<svg id="phantom_svg" width="64px" height="64px" xmlns="http://www.w3.org/2000/svg" xmlns:xlink="http://www.w3.org/1999/xlink" version="1.1">
  <defs>
    <!-- Images. -->
    <svg id="frame0" viewBox="0 0 64 64" preserveAspectRatio="none" xmlns="http://www.w3.org/2000/svg" xmlns:xlink="http://www.w3.org/1999/xlink" xmlns:dc="http://purl.org/dc/elements/1.1/" xmlns:cc="http://creativecommons.org/ns#" xmlns:rdf="http://www.w3.org/1999/02/22-rdf-syntax-ns#" xmlns:svg="http://www.w3.org/2000/svg" xmlns:sodipodi="http://sodipodi.sourceforge.net/DTD/sodipodi-0.dtd" xmlns:inkscape="http://www.inkscape.org/namespaces/inkscape">
      <metadata id="frame0_metadata9">
        <rdf:RDF>
          <cc:Work rdf:about=''>
            <dc:format>
               image/svg+xml 
            </dc:format>
            <dc:type rdf:resource='http://purl.org/dc/dcmitype/StillImage'/>
          </cc:Work>
        </rdf:RDF>
      </metadata>
      <defs id="frame0_defs7"/>
      <sodipodi:namedview pagecolor="#ffffff" bordercolor="#666666" borderopacity="1" objecttolerance="10" gridtolerance="10" guidetolerance="10" inkscape:pageopacity="0" inkscape:pageshadow="2" inkscape:window-width="640" inkscape:window-height="480" id="frame0_namedview5"/>
      <path d="M0.9101563,22.4462891c0.1826172-0.1621094,0.4248047-0.2397461,0.6669922-0.2084961l4.0019531,0.480957  c1.4707031-0.2045898,17.3076172-2.4272461,20.4052734-3.7119141c0.4619141-0.1914063,1.1367188-0.2807617,2.125-0.2807617  c4.1376953,0,13.0136719,1.6000977,20.84375,3.0112305c5.2207031,0.940918,9.7285156,1.7539063,11.3515625,1.8115234  c2.8857422,0.1025391,3.0800781,1.7841797,3.0712891,2.2973633c-0.0341797,1.8911133-2.6943359,4.1757813-5.9482422,4.1757813  l-0.1308594-0.0014648c-3.3955078-0.0634766-11.625-0.7563477-15.2890625-1.0771484  c1.2167969,1.8569336,3.15625,5.0585938,3.7949219,7.4931641c0.3671875,1.4023438-0.2363281,2.4921875-1.2314453,3.3662109  c0.2548828,0.5478516,0.2275391,1.1953125-0.1123047,1.8369141c-0.9316406,1.7587891-4.1230469,3.5390625-6.7617188,3.5390625  c-0.3583984,0-0.7070313-0.0332031-1.0371094-0.1035156c-1.5703125-0.3320313-3.5908203-1.2050781-5.5454102-2.0498047  c-0.9223633-0.3994141-1.8295898-0.7910156-2.6557617-1.1113281c-0.2255859-0.0380859-0.6914063-0.0644531-1.1816406-0.0927734  c-2.2900391-0.1308594-6.4599609-0.3730469-10.1201172-2.5214844c-0.5556641-0.0625-1.1035156-0.140625-1.6318359-0.2529297  c-4.8271484-1.0234375-7.8300781-2.1005859-8.5322266-2.3652344H1.4755859c-0.4707031,0-0.8515625-0.3808594-0.8515625-0.8515625  v-12.746582C0.6240234,22.8398438,0.7275391,22.6079102,0.9101563,22.4462891z" id="frame0_path3"/>
    </svg>
    <!-- Animation. -->
    <symbol id="animation">
      <use xlink:href="#frame0" visibility="hidden">
        <set id="frame0_anim" attributeName="visibility" to="visible" begin="0s;frame0_anim.end" dur="0.1s"/>
      </use>
    </symbol>
  </defs>
  <!-- Main control. -->
  <animate id="controller" begin="0s" dur="0.1s" repeatCount="indefinite"/>
  <use xlink:href="#frame0">
    <set attributeName="xlink:href" to="#animation" begin="controller.begin"/>
    <set attributeName="xlink:href" to="#frame0" begin="controller.end"/>
  </use>
</svg>