<?xml version="1.0" encoding="UTF-8"?>
<!-- Generated by phantom_svg. -->
<svg width="64px" height="64px" viewBox="0 0 64 64" preserveAspectRatio="none" xmlns="http://www.w3.org/2000/svg" xmlns:xlink="http://www.w3.org/1999/xlink" xmlns:dc="http://purl.org/dc/elements/1.1/" xmlns:cc="http://creativecommons.org/ns#" xmlns:rdf="http://www.w3.org/1999/02/22-rdf-syntax-ns#" xmlns:svg="http://www.w3.org/2000/svg" xmlns:sodipodi="http://sodipodi.sourceforge.net/DTD/sodipodi-0.dtd" xmlns:inkscape="http://www.inkscape.org/namespaces/inkscape" version="1.1">
  <metadata id="frame0_metadata9">
    <rdf:RDF>
      <cc:Work rdf:about=''>
        <dc:format>
           image/svg+xml 
        </dc:format>
        <dc:type rdf:resource='http://purl.org/dc/dcmitype/StillImage'/>
      </cc:Work>
    </rdf:RDF>
  </metadata>
  <defs id="frame0_defs7"/>
  <sodipodi:namedview pagecolor="#ffffff" bordercolor="#666666" borderopacity="1" objecttolerance="10" gridtolerance="10" guidetolerance="10" inkscape:pageopacity="0" inkscape:pageshadow="2" inkscape:window-width="640" inkscape:window-height="480" id="frame0_namedview5"/>
  <path d="M41.5058594,63.0419922c0.1621094-0.1826172,0.2402344-0.4248047,0.2089844-0.6669922l-0.4814453-4.0019531  c0.2050781-1.4707031,2.4277344-17.3076172,3.7119141-20.4052734c0.1914063-0.4619141,0.28125-1.1367188,0.28125-2.125  c0-4.137207-1.6005859-13.0126953-3.0117188-20.8432617c-0.9404297-5.2207031-1.7539063-9.7290039-1.8115234-11.3515625  c-0.1025391-2.8857422-1.7841797-3.0805664-2.296875-3.0712891c-1.8916016,0.0336914-4.1757813,2.6943359-4.1757813,5.9487305  l0.0009766,0.1298828c0.0634766,3.3959961,0.7568359,11.6259766,1.0771484,15.2895508  c-1.8564453-1.2172852-5.0585938-3.1567383-7.4931641-3.7944336c-1.4023438-0.3671875-2.4921875,0.2353516-3.3662109,1.230957  c-0.5478516-0.2548828-1.1953125-0.2280273-1.8369141,0.1123047c-1.7587891,0.9316406-3.5390625,4.1230469-3.5390625,6.762207  c0,0.3579102,0.0332031,0.7060547,0.1035156,1.0361328c0.3320313,1.5703125,1.2050781,3.5913086,2.0498047,5.5458984  c0.3994141,0.921875,0.7910156,1.8291016,1.1113281,2.6552734c0.0380859,0.2255859,0.0644531,0.6914063,0.0927734,1.1816406  c0.1308594,2.2900391,0.3730469,6.4599609,2.5214844,10.1201172c0.0625,0.5556641,0.140625,1.1035156,0.2529297,1.6318359  c1.0234375,4.8271484,2.1005859,7.8300781,2.3652344,8.5322266v5.5175781c0,0.4707031,0.3808594,0.8515625,0.8515625,0.8515625  h12.7470703C41.1123047,63.328125,41.3447266,63.2246094,41.5058594,63.0419922z" id="frame0_path3"/>
</svg>