<?xml version="1.0" encoding="UTF-8"?>
<!-- Generated by phantom_svg. -->
<svg id="phantom_svg" width="64px" height="64px" xmlns="http://www.w3.org/2000/svg" xmlns:xlink="http://www.w3.org/1999/xlink" version="1.1">
  <defs>
    <!-- Images. -->
    <svg id="frame0" viewBox="0 0 64 64" preserveAspectRatio="none" xmlns="http://www.w3.org/2000/svg" xmlns:xlink="http://www.w3.org/1999/xlink" xmlns:dc="http://purl.org/dc/elements/1.1/" xmlns:cc="http://creativecommons.org/ns#" xmlns:rdf="http://www.w3.org/1999/02/22-rdf-syntax-ns#" xmlns:svg="http://www.w3.org/2000/svg" xmlns:sodipodi="http://sodipodi.sourceforge.net/DTD/sodipodi-0.dtd" xmlns:inkscape="http://www.inkscape.org/namespaces/inkscape">
      <metadata id="frame0_metadata9">
        <rdf:RDF>
          <cc:Work rdf:about=''>
            <dc:format>
               image/svg+xml 
            </dc:format>
            <dc:type rdf:resource='http://purl.org/dc/dcmitype/StillImage'/>
          </cc:Work>
        </rdf:RDF>
      </metadata>
      <defs id="frame0_defs7"/>
      <sodipodi:namedview pagecolor="#ffffff" bordercolor="#666666" borderopacity="1" objecttolerance="10" gridtolerance="10" guidetolerance="10" inkscape:pageopacity="0" inkscape:pageshadow="2" inkscape:window-width="640" inkscape:window-height="480" id="frame0_namedview5"/>
      <path d="M22.4936523,0.8623047c-0.1621094,0.1826172-0.2397461,0.4248047-0.2084961,0.6669922l0.480957,4.0019531  c-0.2045898,1.4707031-2.4272461,17.3076172-3.7119141,20.4052734c-0.1914063,0.4619141-0.2807617,1.1367188-0.2807617,2.125  c0,4.1376953,1.6000977,13.0136719,3.0112305,20.84375c0.940918,5.2207031,1.7539063,9.7294922,1.8115234,11.3515625  c0.1025391,2.8857422,1.7841797,3.0810547,2.2973633,3.0712891c1.8911133-0.0332031,4.1757813-2.6943359,4.1757813-5.9482422  L30.0678711,57.25c-0.0634766-3.3964844-0.7563477-11.6259766-1.0771484-15.2900391  c1.8569336,1.2177734,5.059082,3.1572266,7.4936523,3.7949219c1.4023438,0.3671875,2.4921875-0.2353516,3.3662109-1.2314453  c0.5478516,0.2548828,1.1953125,0.2285156,1.8369141-0.1123047c1.7587891-0.9316406,3.5390625-4.1230469,3.5390625-6.7617188  c0-0.3583984-0.0332031-0.7060547-0.1035156-1.0361328c-0.3320313-1.5703125-1.2050781-3.5917969-2.0498047-5.5463867  c-0.3994141-0.9223633-0.7910156-1.8295898-1.1113281-2.6557617c-0.0380859-0.2255859-0.0644531-0.6914063-0.0927734-1.1816406  c-0.1308594-2.2900391-0.3730469-6.4599609-2.5214844-10.1201172c-0.0625-0.5556641-0.140625-1.1035156-0.2529297-1.6318359  c-1.0234375-4.8271484-2.1005859-7.8300781-2.3652344-8.5322266V1.4277344c0-0.4707031-0.3808594-0.8515625-0.8515625-0.8515625  H23.1308594C22.887207,0.5761719,22.6552734,0.6796875,22.4936523,0.8623047z" id="frame0_path3"/>
    </svg>
    <!-- Animation. -->
    <symbol id="animation">
      <use xlink:href="#frame0" visibility="hidden">
        <set id="frame0_anim" attributeName="visibility" to="visible" begin="0s;frame0_anim.end" dur="0.1s"/>
      </use>
    </symbol>
  </defs>
  <!-- Main control. -->
  <animate id="controller" begin="0s" dur="0.1s" repeatCount="indefinite"/>
  <use xlink:href="#frame0">
    <set attributeName="xlink:href" to="#animation" begin="controller.begin"/>
    <set attributeName="xlink:href" to="#frame0" begin="controller.end"/>
  </use>
</svg>