<?xml version="1.0" encoding="utf-8"?>
<!-- Generator: Adobe Illustrator 17.0.0, SVG Export Plug-In . SVG Version: 6.00 Build 0)  -->
<!DOCTYPE svg PUBLIC "-//W3C//DTD SVG 1.1//EN" "http://www.w3.org/Graphics/SVG/1.1/DTD/svg11.dtd">
<svg version="1.1" id="レイヤー_1" xmlns="http://www.w3.org/2000/svg" xmlns:xlink="http://www.w3.org/1999/xlink" x="0px"
	 y="0px" width="64px" height="64px" viewBox="0 0 64 64" style="enable-background:new 0 0 64 64;" xml:space="preserve">
<g>
	<path d="M25.2947178,25.0584545c0.0319862-0.2633247,0.0752792-0.5258465,0.0939636-0.7901115
		c0.0718212-1.0157738,0.1095181-2.0347309,0.2107735-3.0474186c0.0838737-0.8388309,0.6037006-1.4669151,1.1466255-2.0675087
		c0.006897-0.0076313,0.0173283-0.0121174,0.0240421-0.0198631c0.9438515-1.0885239,2.24473-1.1577816,3.4948444-1.020195
		c0.9596882,0.1056232,1.8072834,0.6326103,2.4420643,1.470335c0.5132484,0.6773281,0.7724533,1.4656239,1.1819077,2.1840019
		c0.0609131,0.1068726,0.1069717,0.2222118,0.2230072,0.333271c0.0284233-0.195076,0.0848198-0.3907948,0.0803185-0.5851078
		c-0.0175171-0.7566948,0.2574234-1.4496269,0.4420013-2.1628265c0.0729408-0.2818565,0.162468-0.5640793,0.1920052-0.8515244
		c0.0586548-0.5708523,0.3968697-0.9373779,0.8323784-1.2451134c0.3911667-0.2764053,0.769413-0.5767651,1.1836891-0.8134842
		c0.6452026-0.3686714,1.3446198-0.4139633,2.0499496-0.1854954c0.5735626,0.1857853,1.1432953,0.3859024,1.7046127,0.6055145
		c0.1771049,0.0692921,0.339241,0.2043552,0.4764557,0.3411789c0.1751595,0.1746578,0.2958336,0.1235809,0.3882637-0.0573997
		c0.0748444-0.1465511,0.1258774-0.307888,0.1688766-0.4676704c0.3915024-1.4546766,0.5394249-2.9487534,0.7223091-4.437993
		c0.1612778-1.3132982,0.3467064-2.6236734,0.526989-3.9345808c0.1417923-1.0310035,0.246479-2.0701523,0.4544907-3.0879335
		c0.1382599-0.6764874,0.3520737-1.3622684,0.67099-1.9711199c0.4438324-0.8473306,1.2432518-1.2007544,2.1987762-1.2223263
		c0.6429825-0.0145154,1.2133102,0.223583,1.7402115,0.5260706c0.278038,0.1596162,0.4622688,0.4955878,0.6660538,0.7689357
		c0.4433289,0.5946825,0.5225945,1.2964764,0.5757446,2.0092187c0.1102791,1.4789114,0.1046982,2.9500427-0.047924,4.4306946
		c-0.1482925,1.438674-0.197052,2.8895035-0.2405739,4.3364658c-0.0330086,1.0977201-0.1947136,2.172822-0.3916283,3.2480097
		c-0.292984,1.5997219-0.4596786,3.2096577-0.5327034,4.8385429c-0.0537796,1.1995544-0.3104515,2.3905334-0.4863014,3.5839195
		c-0.1367378,0.9279823-0.2486076,1.8505688-0.1768875,2.7973385c0.1148758,1.5164013,0.1783409,3.0370083,0.2437325,4.5566921
		c0.0241699,0.5615959,0.1232872,1.0749817,0.4195938,1.5743561c0.3533401,0.5954895,0.6389503,1.2348671,0.9129295,1.8728294
		c0.3557358,0.8283424,0.3686981,1.6996918,0.2295761,2.5793686c-0.1072693,0.678299-0.2255135,1.3554878-0.3080215,2.0369034
		c-0.0794907,0.6565514-0.4064484,1.1827965-0.8391953,1.6410828c-1.2083092,1.2796364-2.4510384,2.5269508-3.6509705,3.8142548
		c-0.6017876,0.6456032-1.2145233,1.3029099-1.6860504,2.0418777c-0.4720383,0.7397614-0.7858124,1.5827904-1.1420593,2.3923912
		c-0.0792351,0.1800613-0.0702438,0.4108658-0.0596924,0.6161385c0.0256386,0.4989433-0.2060852,2.2511101-0.1486359,2.7473259
		c0.0103416,0.0893135,0.1592178,6.6362343,0.1875,7.28125c0.0110245,0.2514229-1.5558777,0.4677849-2.8416862,0.4932251H22.9059601
		c-0.8485451-0.0437393-1.1813374-0.1298256-1.1872101-0.3057251c-0.0556068-1.6657753-0.0924072-7.9455376-0.03125-8.875
		c0.0745125-1.1323929-0.0868111-2.2812462-0.2901993-3.4072189c-0.0684776-0.3791161-0.2383862-0.7552376-0.4303055-1.0939903
		c-0.7115631-1.2559395-1.2087708-2.6016159-1.7472916-3.9338722c-0.3311234-0.8191719-0.3258667-1.6563034-0.3122368-2.4898148
		c0.0352612-2.1561127,0.1031303-4.3128052,0.2174377-6.4661102c0.0711174-1.3397598,0.2077179-2.6797485,0.3935089-4.0086517
		c0.1786156-1.2775707,0.0604992-2.5216446-0.2621422-3.7472801c-0.6230145-2.3666763-1.2923374-4.7211266-1.9304485-7.0838871
		c-0.233263-0.8637104-0.4171944-1.7407494-0.650732-2.6043777c-0.3370838-1.246542-0.7504768-2.4747505-1.0344982-3.7326412
		c-0.2470894-1.0943336-0.3864288-2.2158642-0.5177164-3.3319254c-0.0460758-0.3916798,0.0573606-0.8055601,0.1256399-1.2036228
		c0.0244694-0.1426525,0.120822-0.2956829,0.2284145-0.3973751c0.428669-0.4051685,0.9099426-0.6679306,1.527813-0.7450571
		c0.8666477-0.108181,1.5365429,0.1781769,2.2200165,0.6809769c0.7087765,0.5214138,1.1171436,1.1768312,1.4391155,1.9741907
		c0.6456375,1.5989103,1.0399208,3.2717981,1.5563984,4.9080381c0.2660122,0.8427429,0.4210663,1.7226372,0.7179756,2.5529442
		c0.3462505,0.9682922,0.7981987,1.8984604,1.1940346,2.8494377c0.3749981,0.900919,0.7976894,1.7867355,0.8806629,2.7828865
		c0.0148315,0.1780586,0.1087685,0.3495274,0.1661797,0.5240383C25.2176571,25.0581093,25.2561874,25.0582829,25.2947178,25.0584545
		z"/>
	<path style="fill:#717071;" d="M38.6279297,62.3369141h-15.722168c-0.8642578-0.0449219-1.3017578-0.1230469-1.3120117-0.4267578
		c-0.0527344-1.5839844-0.09375-7.9287109-0.0307617-8.8867188c0.0751953-1.1455078-0.0942383-2.2998047-0.2885742-3.3769531
		c-0.0576172-0.3164063-0.1938477-0.6611328-0.4165039-1.0546875c-0.6040039-1.0664063-1.0610352-2.2128906-1.5029297-3.3212891
		c-0.0834961-0.2099609-0.1665039-0.4189453-0.2509766-0.6279297c-0.3481445-0.8603516-0.3339844-1.7519531-0.3217773-2.5380859
		C18.8203125,39.7949219,18.8916016,37.6777344,19,35.6337891c0.0678711-1.2802734,0.2006836-2.6328125,0.3945313-4.0195313
		c0.1669922-1.1923828,0.0820313-2.4023438-0.2592773-3.6982422c-0.371582-1.4130859-0.7670898-2.8452148-1.1489258-4.230957
		c-0.262207-0.9501953-0.5244141-1.9003906-0.78125-2.8520508c-0.1162109-0.4306641-0.2202148-0.8642578-0.3242188-1.2983398
		c-0.1044922-0.4365234-0.2089844-0.8725586-0.3261719-1.3056641c-0.125-0.4614258-0.2602539-0.9199219-0.3955078-1.378418
		c-0.2265625-0.769043-0.4609375-1.5639648-0.640625-2.3598633c-0.2436523-1.0791016-0.3793945-2.1533203-0.5195313-3.3447266
		c-0.0405273-0.3398438,0.0244141-0.6875,0.0874023-1.0239258l0.0390625-0.215332
		c0.0268555-0.1586914,0.1289063-0.3378906,0.265625-0.4672852c0.4814453-0.4545898,0.9892578-0.7016602,1.5981445-0.777832
		c0.8076172-0.0996094,1.4995117,0.1069336,2.3095703,0.7041016c0.6508789,0.4790039,1.1079102,1.1044922,1.480957,2.027832
		c0.4365234,1.0805664,0.7626953,2.2099609,1.0786133,3.3022461c0.1557617,0.5400391,0.3120117,1.0795898,0.480957,1.6152344
		c0.1176758,0.3720703,0.2148438,0.7558594,0.3085938,1.1274414c0.1196289,0.4716797,0.2431641,0.9594727,0.4082031,1.4208984
		c0.2246094,0.628418,0.4995117,1.2529297,0.7651367,1.8569336c0.1445313,0.3276367,0.2885742,0.6557617,0.4262695,0.9868164
		l0.1396484,0.331543c0.3325195,0.7841797,0.6762695,1.5952148,0.7504883,2.4887695
		c0.0068359,0.081543,0.034668,0.1650391,0.0678711,0.2524414c0.0234375-0.171875,0.0463867-0.34375,0.0585938-0.5161133
		c0.0249023-0.3530273,0.0454102-0.7070313,0.0664063-1.0605469c0.0385742-0.652832,0.078125-1.328125,0.1445313-1.9912109
		c0.0864258-0.8671875,0.6069336-1.5063477,1.1782227-2.1386719l0.0322266-0.0273438
		c0.6411133-0.7407227,1.5327148-1.105957,2.7163086-1.105957c0.2661133,0,0.5527344,0.0170898,0.8769531,0.0532227
		c0.9824219,0.1079102,1.8564453,0.6328125,2.527832,1.5185547c0.3291016,0.4345703,0.5576172,0.9155273,0.7783203,1.3803711
		c0.1279297,0.2719727,0.2617188,0.5532227,0.4121094,0.8173828l0.0410156,0.0737305
		c0.0009766,0.0024414,0.0019531,0.0048828,0.0029297,0.0068359c0.0166016-0.0922852,0.0283203-0.1811523,0.0263672-0.2680664
		c-0.0136719-0.5966797,0.1484375-1.15625,0.3056641-1.6972656c0.0478516-0.1660156,0.0966797-0.3320313,0.1396484-0.4990234
		l0.0478516-0.1791992c0.0585938-0.2148438,0.1191406-0.4370117,0.1416016-0.6538086
		c0.0693359-0.6787109,0.5087891-1.0698242,0.8837891-1.3344727c0.1064453-0.0751953,0.2119141-0.1518555,0.3164063-0.2285156
		c0.2802734-0.2041016,0.5703125-0.4155273,0.8789063-0.5913086c0.6523438-0.3735352,1.390625-0.4414063,2.1494141-0.1962891
		c0.6142578,0.1992188,1.1738281,0.3979492,1.7119141,0.6083984c0.1650391,0.0644531,0.3349609,0.1850586,0.5195313,0.3691406
		c0.0517578,0.0527344,0.0898438,0.0712891,0.1064453,0.0712891c0.0117188,0,0.0429688-0.0205078,0.0820313-0.0976563
		c0.0595703-0.1171875,0.1083984-0.2539063,0.1591797-0.4428711c0.3408203-1.2636719,0.4980469-2.5834961,0.6513672-3.859375
		l0.0673828-0.5610352c0.1347656-1.0981445,0.2890625-2.2124023,0.4384766-3.2895508l0.0888672-0.6469727
		c0.0371094-0.2714844,0.0722656-0.5439453,0.1074219-0.8164063c0.0957031-0.75,0.1943359-1.5258789,0.3486328-2.2792969
		c0.15625-0.762207,0.3857422-1.4365234,0.6826172-2.0043945c0.4345703-0.8305664,1.2109375-1.2641602,2.3066406-1.2895508
		l0.0576172-0.0004883c0.5537109,0,1.0927734,0.1674805,1.7480469,0.543457
		c0.2392578,0.137207,0.4072266,0.3789063,0.5683594,0.612793c0.0449219,0.0644531,0.0898438,0.1289063,0.1357422,0.1899414
		c0.4560547,0.6118164,0.5439453,1.3300781,0.6005859,2.0742188c0.1152344,1.5615234,0.0986328,3.0180664-0.0498047,4.4526367
		c-0.1416016,1.3881836-0.1923828,2.78125-0.2392578,4.328125c-0.0361328,1.1835938-0.21875,2.3154297-0.3935547,3.2661133
		c-0.28125,1.534668-0.4541016,3.1118164-0.5302734,4.8217773c-0.0390625,0.8657227-0.1845703,1.7373047-0.3242188,2.5800781
		c-0.0566406,0.3388672-0.1132813,0.6777344-0.1630859,1.0166016c-0.1298828,0.8754883-0.2490234,1.8110352-0.1767578,2.7700195
		c0.1103516,1.4624023,0.1748047,2.9526367,0.2373047,4.394043l0.0068359,0.1660156
		c0.0273438,0.6269531,0.1513672,1.09375,0.4023438,1.5166016c0.3632813,0.6113281,0.6542969,1.2675781,0.9208984,1.8867188
		c0.3271484,0.7626953,0.4023438,1.6035156,0.2373047,2.6484375l-0.0771484,0.4794922
		c-0.0820313,0.5087891-0.1669922,1.0341797-0.2304688,1.5527344c-0.0732422,0.6083984-0.3583984,1.1679688-0.8720703,1.7119141
		c-0.5458984,0.578125-1.0986328,1.1503906-1.6513672,1.7216797c-0.6601563,0.6816406-1.3417969,1.3867188-1.9990234,2.0917969
		c-0.5927734,0.6367188-1.2060547,1.2939453-1.671875,2.0244141c-0.3632813,0.5683594-0.6376953,1.2138672-0.9023438,1.8369141
		c-0.0761719,0.1806641-0.1523438,0.3603516-0.2314453,0.5390625c-0.0703125,0.1591797-0.0576172,0.3896484-0.0488281,0.5585938
		c0.0117188,0.234375-0.0292969,0.7177734-0.0732422,1.2304688c-0.0498047,0.5859375-0.1064453,1.25-0.0761719,1.5087891
		c0.0048828,0.0419922,0.0263672,0.8837891,0.0761719,2.9433594c0.0449219,1.8720703,0.0966797,3.9951172,0.1123047,4.3466797
		c0.0019531,0.0380859-0.0078125,0.0947266-0.0605469,0.1513672c-0.2744141,0.2919922-1.8632813,0.4521484-2.9033203,0.4726563
		H38.6279297z M17.362793,8.8876953c-0.1113281,0-0.2265625,0.0073242-0.3422852,0.0219727
		c-0.5537109,0.0688477-1.0166016,0.2949219-1.4575195,0.7114258C15.4663086,9.7124023,15.3896484,9.84375,15.371582,9.9487305
		c-0.012207,0.0727539-0.0258789,0.1455078-0.0395508,0.2192383c-0.059082,0.3178711-0.1206055,0.6469727-0.0849609,0.9487305
		c0.1396484,1.1845703,0.2744141,2.2519531,0.515625,3.3193359c0.1777344,0.7875977,0.4111328,1.5786133,0.6367188,2.34375
		c0.1357422,0.4604492,0.2709961,0.9208984,0.3964844,1.3837891c0.1176758,0.4355469,0.2231445,0.8740234,0.328125,1.3129883
		c0.1035156,0.4316406,0.2070313,0.862793,0.3222656,1.2910156c0.2568359,0.9511719,0.519043,1.9013672,0.7807617,2.8510742
		c0.3823242,1.3862305,0.777832,2.8193359,1.1503906,4.2338867c0.3496094,1.3286133,0.4365234,2.5703125,0.2651367,3.7958984
		c-0.1933594,1.3808594-0.3256836,2.7255859-0.3925781,3.9990234c-0.1083984,2.0410156-0.1796875,4.1542969-0.2177734,6.4609375
		c-0.012207,0.7626953-0.0258789,1.6269531,0.3032227,2.4404297c0.0849609,0.2089844,0.168457,0.4189453,0.2519531,0.6289063
		c0.4389648,1.1005859,0.8925781,2.2392578,1.4882813,3.2910156c0.2368164,0.4179688,0.3823242,0.7890625,0.4448242,1.1328125
		c0.1972656,1.09375,0.3691406,2.2666016,0.2915039,3.4375c-0.0581055,0.890625-0.0268555,7.1142578,0.0317383,8.8632813
		c0.0004883,0.0126953,0.0341797,0.1308594,1.0683594,0.1845703h15.7138672
		c1.2949219-0.0253906,2.5507813-0.2304688,2.7167969-0.3857422c-0.0166016-0.4150391-0.0673828-2.4921875-0.1113281-4.3291016
		c-0.0361328-1.4667969-0.0693359-2.8515625-0.0742188-2.9228516c-0.0332031-0.28125,0.0224609-0.9296875,0.0751953-1.5566406
		c0.0429688-0.5039063,0.0830078-0.9785156,0.0722656-1.1953125C41.2949219,51.5029297,41.28125,51.2373047,41.375,51.0234375
		c0.078125-0.1767578,0.1542969-0.3554688,0.2304688-0.5351563c0.2685547-0.6328125,0.546875-1.2871094,0.9208984-1.8740234
		c0.4785156-0.7490234,1.0996094-1.4160156,1.6992188-2.0595703c0.6591797-0.7070313,1.3417969-1.4130859,2.0029297-2.0957031
		c0.5517578-0.5712891,1.1044922-1.1416016,1.6494141-1.7197266c0.4824219-0.5107422,0.7382813-1.0087891,0.8056641-1.5693359
		c0.0634766-0.5244141,0.1494141-1.0527344,0.2324219-1.5634766l0.0771484-0.4785156
		c0.15625-0.9960938,0.0859375-1.7939453-0.2216797-2.5107422c-0.2626953-0.6113281-0.5498047-1.2587891-0.9052734-1.8583984
		c-0.2734375-0.4589844-0.4082031-0.9628906-0.4375-1.6318359l-0.0068359-0.1669922
		c-0.0625-1.4394531-0.1259766-2.9272461-0.2373047-4.3862305c-0.0742188-0.984375,0.0478516-1.9355469,0.1787109-2.824707
		c0.0507813-0.3408203,0.1074219-0.6811523,0.1640625-1.0214844c0.1396484-0.8354492,0.2832031-1.699707,0.3212891-2.5498047
		c0.0761719-1.7216797,0.2509766-3.3100586,0.5341797-4.855957c0.1728516-0.9418945,0.3544922-2.0620117,0.3896484-3.2290039
		c0.046875-1.5517578,0.0976563-2.949707,0.2412109-4.3457031c0.1464844-1.4199219,0.1621094-2.8618164,0.0478516-4.4086914
		c-0.0546875-0.7324219-0.1347656-1.3847656-0.5517578-1.9433594c-0.046875-0.0634766-0.0927734-0.1298828-0.1396484-0.1967773
		c-0.1464844-0.2109375-0.2978516-0.4291992-0.4882813-0.5385742c-0.6142578-0.3530273-1.1152344-0.5102539-1.6230469-0.5102539
		l-0.0517578,0.0004883c-0.9980469,0.0229492-1.7011719,0.4116211-2.0917969,1.1557617
		c-0.2851563,0.546875-0.5068359,1.1987305-0.6591797,1.9379883c-0.1513672,0.7446289-0.25,1.515625-0.3457031,2.2612305
		c-0.0341797,0.2729492-0.0693359,0.5463867-0.1064453,0.8188477l-0.0898438,0.6469727
		c-0.1484375,1.0766602-0.3027344,2.1894531-0.4375,3.2856445l-0.0673828,0.5605469
		c-0.1542969,1.284668-0.3125,2.6137695-0.6572266,3.8950195c-0.0556641,0.2060547-0.1103516,0.3574219-0.1787109,0.4912109
		c-0.1396484,0.2734375-0.3632813,0.3134766-0.5888672,0.0893555c-0.1582031-0.1591797-0.3007813-0.2612305-0.4335938-0.3134766
		c-0.5332031-0.2080078-1.0878906-0.4052734-1.6972656-0.6025391c-0.6914063-0.2246094-1.3574219-0.1635742-1.9482422,0.1748047
		c-0.296875,0.1689453-0.5810547,0.3764648-0.8554688,0.5766602c-0.1064453,0.0776367-0.2119141,0.1547852-0.3193359,0.2304688
		c-0.5,0.3530273-0.7333984,0.6987305-0.7802734,1.1557617c-0.0234375,0.2373047-0.0869141,0.4697266-0.1484375,0.6943359
		l-0.046875,0.1757813c-0.0439453,0.1694336-0.0927734,0.3378906-0.1416016,0.5058594
		c-0.1591797,0.5473633-0.3085938,1.0639648-0.2958984,1.6225586c0.0029297,0.1464844-0.0244141,0.2890625-0.0498047,0.4267578
		c-0.0117188,0.0600586-0.0224609,0.1196289-0.03125,0.1796875l-0.0351563,0.2402344l-0.1757813-0.1679688
		c-0.1044922-0.1010742-0.1601563-0.2036133-0.2080078-0.2944336l-0.0371094-0.0668945
		c-0.1552734-0.2734375-0.2910156-0.5585938-0.421875-0.8344727c-0.2148438-0.4536133-0.4370117-0.9223633-0.7509766-1.3364258
		c-0.6289063-0.8295898-1.4433594-1.3212891-2.355957-1.421875c-0.3149414-0.034668-0.5927734-0.0512695-0.8496094-0.0512695
		c-1.1220703,0-1.9287109,0.3271484-2.5375977,1.0297852l-0.0336914,0.0292969
		c-0.5341797,0.5922852-1.027832,1.1962891-1.1064453,1.987793c-0.065918,0.6577148-0.1054688,1.3305664-0.144043,1.9814453
		c-0.0209961,0.3544922-0.0415039,0.7089844-0.0668945,1.0629883c-0.0126953,0.1821289-0.0371094,0.362793-0.0615234,0.5439453
		c-0.0112305,0.0839844-0.0224609,0.1679688-0.0327148,0.2524414l-0.0131836,0.1113281l-0.3168945-0.0019531l-0.0283203-0.0859375
		c-0.0175781-0.0527344-0.0380859-0.1049805-0.059082-0.1572266c-0.0498047-0.1254883-0.1010742-0.2553711-0.112793-0.3959961
		c-0.0712891-0.8535156-0.4067383-1.6455078-0.7314453-2.4121094l-0.1401367-0.3330078
		c-0.137207-0.3291016-0.2807617-0.6552734-0.4243164-0.9819336c-0.2675781-0.6079102-0.5444336-1.2368164-0.7719727-1.8735352
		c-0.1694336-0.472168-0.2944336-0.9663086-0.4150391-1.4438477c-0.0932617-0.3676758-0.1894531-0.7480469-0.3046875-1.1132813
		c-0.1699219-0.5375977-0.3261719-1.0791016-0.4829102-1.6210938c-0.3139648-1.0859375-0.6386719-2.2094727-1.0698242-3.277832
		c-0.3598633-0.8901367-0.777832-1.4643555-1.3979492-1.9204102C18.5126953,9.097168,17.9609375,8.8876953,17.362793,8.8876953z"/>
</g>
<g>
	<path style="fill:#FFE6D9;" d="M35.3792725,20.7227783c0.098938-0.7022705,0.000061-1.4303589,0.0366211-2.1445313
		c0.0126953-0.2473755,0.1026611-0.5539551,0.2703247-0.7180786c0.4581909-0.4486084,0.9724121-0.8408813,1.4749756-1.2423096
		c0.0875854-0.0700073,0.2261353-0.1057129,0.3416138-0.1066895c1.0233154-0.0087891,1.9556274,0.369812,2.8927612,0.7130127
		c0.1421509,0.052002,0.2574463,0.2054443,0.3595581,0.3325195c0.2080688,0.2587891,0.4050903,0.5272217,0.5929565,0.8010864
		c0.062439,0.0910645,0.1107178,0.2087402,0.1187134,0.317688c0.0784912,1.0690918,0.1470947,2.1389771,0.2333984,3.4314575
		c-0.1374512,1.043457-0.3046265,2.3012085-0.4678345,3.5594482c-0.0319214,0.2460327-0.0699463,0.4942017-0.067688,0.7410278
		c0.0049438,0.5335693-0.2941284,0.8612061-0.697876,1.144104c-0.5129395,0.359314-1.0827637,0.4224854-1.6832275,0.3763428
		c-0.9604492-0.0736694-1.8642578-0.3070679-2.619873-0.9416504c-0.1118774-0.0939941-0.2185669-0.2297974-0.2592163-0.3666382
		c-0.1799316-0.6051025-0.387207-1.201416-0.3643799-1.8549194c0.0143433-0.4126587-0.0653076-0.8299561-0.1174927-1.2432861
		C35.3049316,22.5898438,35.2460938,21.6675415,35.3792725,20.7227783z"/>
	<path style="fill:#FFE6D9;" d="M48.2954102,39.0021362c-0.2841797,0.8918457-0.477417,1.8198242-0.8408813,2.6766968
		c-0.2497559,0.5887451-0.7349854,1.074585-1.0913086,1.6218872c-0.5253906,0.8070068-1.3383789,1.2199097-2.1483154,1.6575317
		c-0.6108398,0.3300171-1.1964722,0.710144-1.7744141,1.0962524c-0.288147,0.1925049-0.5240479,0.4614868-0.8019409,0.6716309
		c-0.2299194,0.1738892-0.4758301,0.3342285-0.7337646,0.4619141c-0.6160889,0.3048706-1.2570801,0.5617065-1.8601685,0.8892822
		c-0.2816162,0.1529541-0.5166626,0.4080811-0.7400513,0.6474609c-0.2623901,0.2811279-0.4659424,0.6193848-0.7408447,0.885498
		c-0.1433716,0.1386719-0.3783569,0.2041626-0.5837402,0.2536621c-1.0755005,0.2591553-2.1021118,0.0542603-3.1034546-0.3572388
		c-0.1605225-0.065979-0.3260498-0.119751-0.519043-0.1281738c0.1245117,0.0819092,0.2468872,0.1672363,0.3738403,0.2451782
		c1.0602417,0.6509399,2.1912231,1.1486206,3.3635254,1.5585938c0.0721436,0.0252686,0.1849976,1.1429443,0.1734619,1.1671143
		c-0.1374512,0.2872314,0.1078491,0.4278564,0.2345581,0.5916138c0.1373291,0.1774902,0.34552,4.2987061,0.4957886,4.4684448
		c0.0761108,0.0859375,0.1426392,4.0951538,0.1272583,4.2014771c-0.0627441,0.4336548-0.0749512,0.4263916-0.5161133,0.4202881
		c-2.5737305-0.0357056-5.1474609-0.0791626-7.7213745-0.0992432c-2.1469727-0.0167236-4.2941284-0.0050049-6.4412231-0.0059204
		c-0.0821533-0.000061-0.1643677,0-0.2950439,0c-0.0352173-0.7128906-0.112793-10.2738037,0.3493652-10.8718872
		c0.1251831-0.1619873,0.3371582-0.2738037,0.5303345-0.3631592c0.4951782-0.2289429,1.0022583-0.432312,1.5045776-0.6459351
		c-0.0065308-0.0293579-0.0130615-0.0587769-0.0195923-0.0881348c-0.388855,0.0187378-0.77771,0.0467529-1.166748,0.0512695
		c-0.1348877,0.0015259-0.2953491-0.0188599-0.4011841-0.0916748c-0.3859863-0.2653198-0.7510376-0.5609131-1.1297607-0.8372192
		c-0.1763916-0.1287231-0.2727051-0.2819824-0.2262573-0.5045166c0.0733643-0.3518066-0.0682983-0.6353149-0.2357788-0.9381104
		c-0.387207-0.7000732-0.7405396-1.4195557-1.0857544-2.1416016c-0.0717163-0.1500244-0.0875854-0.3508911-0.0631104-0.5187378
		c0.1514893-1.039917-0.1590576-1.946167-0.7653198-2.772644c-0.1754761-0.2392578-0.2294312-0.5007324-0.2080688-0.7945557
		c0.0421143-0.5793457,0.0150757-1.1686401,0.1120605-1.7376099c0.0965576-0.5665283,0.3100586-1.1131592,0.4384766-1.6904907
		c-0.2067871,0.3740234-0.4135742,0.7479858-0.6693115,1.2105713c-0.1584473-0.5846558-0.331543-1.074707-0.4187622-1.5795898
		c-0.1348877-0.781311-0.149292-1.5662842-0.0178223-2.3612671c0.2411499-1.4588013,0.4069824-2.9301147,0.6525269-4.3880615
		c0.1348267-0.8004761,0.2039795-1.5787354-0.0110474-2.3755493c-0.0938721-0.3477783-0.0736694-0.7249756-0.1462402-1.0804443
		c-0.0440063-0.2153931-0.1783447-0.4106445-0.2518311-0.6220093c-0.4029541-1.1593018-0.8362427-2.3099365-1.1875-3.4849243
		c-0.3005981-1.0055542-0.4841309-2.0454712-0.7582397-3.0596924c-0.2116699-0.7833862-0.5004272-1.5456543-0.7246704-2.3259888
		c-0.4456177-1.5509033-0.9060059-3.0990601-1.2910156-4.6653442c-0.244873-0.9962158-0.4679565-2.0147095-0.2497559-3.0587769
		c0.1159058-0.5547485,0.5445557-0.9349365,1.1139526-1.0094604c0.7788086-0.1019287,1.4985962,0.0707397,2.1469116,0.4901733
		c0.4508057,0.291687,0.7952881,0.6923828,0.9761353,1.2194824c0.1791992,0.5220947,0.4008789,1.0300293,0.5690918,1.5552979
		c0.196167,0.6126709,0.3483276,1.2393188,0.5308228,1.8565674c0.2183838,0.7385254,0.4454956,1.4744873,0.6744995,2.2097778
		c0.2942505,0.9447632,0.5788574,1.8929443,0.895752,2.8301392c0.3629761,1.0735474,0.7700806,2.1321411,1.1318359,3.2060547
		c0.1954956,0.5805054,0.3366089,1.1793823,0.5014038,1.7702026c0.013916,0.0500488,0.0344849,0.1032715,0.0296021,0.152771
		c-0.0921631,0.9396362,0.7255859,1.0601807,1.2792358,1.4108887c0.1269531,0.0803833,0.2924805,0.1196899,0.4448242,0.1366577
		c0.6868286,0.0766602,1.0656128,0.4743042,1.3190308,1.0993042c0.1938477,0.4779053,0.5236816,0.8989868,0.7597046,1.3623047
		c0.0986328,0.1936646,0.1524658,0.4310913,0.1540527,0.6491089c0.0039673,0.5319824-0.0064087,1.0489502,0.2199097,1.5610962
		c0.0812378,0.1837769-0.0385742,0.4836426-0.1327515,0.7020264c-0.0305176,0.0708008-0.2714844,0.0695801-0.4160767,0.0692749
		c-0.6981812-0.0015259-1.3963623-0.0160522-2.0945435-0.0203247c-0.112854-0.0007324-0.2259521,0.0268555-0.3450317,0.1067505
		c0.3381958,0.0340576,0.6757202,0.078186,1.0147095,0.0999146c0.5616455,0.0360718,1.1254883,0.0440063,1.6855469,0.0949707
		c0.1404419,0.0127563,0.3031006,0.1158447,0.3981323,0.2266235c0.2485962,0.2896729,0.3642578,0.6393433,0.4303589,1.0212402
		c0.0374146,0.2160645,0.1934814,0.418457,0.3215332,0.6099854c0.1150513,0.1722412,0.2608032,0.3248901,0.4002075,0.4797363
		c0.2879028,0.3197021,0.2640991,0.4790649-0.1090088,0.711731c-0.2811279,0.175293-0.5593872,0.3551025-0.8389282,0.5328979
		c0.0145874,0.0256958,0.0292358,0.0513306,0.0438232,0.0769653c0.2670898-0.1555176,0.5374146-0.3057251,0.8005371-0.4677124
		c0.4017334-0.2473755,0.9680176-0.0855103,1.1760254,0.3447876c0.1178589,0.2438965,0.2146606,0.500061,0.3535156,0.7311401
		c0.125,0.2080078,0.3034058,0.3831177,0.4421387,0.5839233c0.2003174,0.289978,0.3962402,0.5843506,0.5685425,0.8911743
		c0.0308228,0.0548706-0.0479126,0.1878662-0.0996094,0.2698975c-0.449585,0.713501-0.9215698,1.4135742-1.3515625,2.1386108
		c-0.2564087,0.432312-0.4494629,0.9021606-0.6710205,1.3551636c0.0305176,0.0185547,0.0609741,0.0370483,0.0914917,0.055603
		c0.2338257-0.3529053,0.4676514-0.7058105,0.701416-1.0587158c-0.2485352,1.0284424-0.3232422,2.0604858-0.1997681,3.1027832
		c0.0326538,0.0030518,0.0652466,0.0061646,0.0979004,0.0092163c0.0162964-0.187561,0.0473633-0.3751831,0.0464478-0.5626221
		c-0.0042114-0.9217529,0.0720215-1.8293457,0.3572388-2.71521c0.2163696-0.6719971,0.602478-1.2443237,1.0686035-1.7451782
		c0.2699585-0.2900391,0.6762085-0.4486694,1.1170044-0.3674927c0.5118408,0.0942993,1.0216675,0.2155151,1.5380859,0.2640381
		c0.3442993,0.0323486,0.7034302-0.0140381,1.0476074-0.0734863c1.1491089-0.1983643,2.2367554-0.0545654,3.2630615,0.5134277
		c0.1542969,0.0853882,0.3181763,0.1603394,0.486145,0.2127075c0.6445313,0.2008057,0.9174194,0.6851196,1.0778809,1.2987671
		c0.0872803,0.3334961,0.2763672,0.6403809,0.4902954,0.9387817c-0.0266724-0.1109619-0.0565796-0.2213135-0.0794067-0.3331299
		c-0.0396118-0.1936646-0.0908203-0.3867798-0.1083984-0.5827026c-0.0328369-0.3656006,0.039856-0.4009399,0.3973389-0.3894653
		c0.4412231,0.0140991,0.7783813,0.138855,0.9558105,0.5800781c0.0598145,0.1488647,0.1833496,0.2720337,0.3318481,0.3796997
		c-0.0982666-0.204895-0.194458-0.4108276-0.2953491-0.6144409c-0.1348267-0.2722778-0.1693726-0.5238037,0.0814209-0.7625732
		c0.1091309-0.1039429,0.1787109-0.2493896,0.2456665-0.3462524c-0.5916748-0.9221802-1.2301025-1.7931519-1.6373291-2.8537598
		c0.1994019,0,0.3457642,0,0.4921265,0c0.010376-0.0220337,0.020813-0.0441284,0.031189-0.0662231
		c-0.1748657-0.1132813-0.3398438-0.2474976-0.5265503-0.3357544c-0.4523315-0.2138062-0.7531128-0.5774536-1.0385742-0.9673462
		c-0.0574951-0.0784912-0.1853027-0.1694336-0.2660522-0.1572876c-1.192688,0.1795044-2.1552734-0.4505005-3.1618042-0.9014282
		c-0.4714355-0.2111816-0.9556274-0.4512329-1.3389282-0.7868652c-0.4217529-0.3692627-0.7537231-0.8491821-1.0874634-1.3081055
		c-0.2312622-0.3181152-0.4243774-0.6708374-0.5862427-1.0299072c-0.1004639-0.2229004-0.1107178-0.4865112-0.1074219-0.7632446
		c0.4771729,0.6625977,1.0519409,1.1473999,1.8540039,1.359375c-0.4719238-0.4434814-0.9234619-0.8673706-1.3742065-1.2921143
		c-0.0377808-0.0355835-0.0787964-0.0722046-0.1032715-0.1166382c-0.1779785-0.322937-0.5697632-0.5872192-0.3494263-1.02948
		c0.2485962-0.4991455,0.6323853-0.869751,1.2098389-0.9284058c0.2823486-0.0286865,0.5853271,0.0118408,0.8617554,0.0855713
		c0.7333374,0.1957397,1.4541626,0.4379883,2.1862793,0.6387329c0.3887329,0.1065674,0.7879028,0.1833496,1.1870117,0.2416382
		c0.5806274,0.0847778,0.7059937,0.3145752,0.4213257,0.8156128c-0.0577393,0.1016235-0.0875854,0.2190552-0.1303101,0.3292236
		c0.0335083,0.0145264,0.0669556,0.0289917,0.1004639,0.0435181c0.1161499-0.2477417,0.2451782-0.4904175,0.3444214-0.744751
		c0.0829468-0.2126465,0.2088013-0.3081665,0.4423218-0.3121948c0.7387695-0.0128174,1.477356-0.0401001,2.2158203-0.0670776
		c0.7501831-0.0274658,1.3769531,0.355896,2.0502319,0.5932617c0.6465454,0.2279053,0.9925537,0.6983643,1.2461548,1.300415
		c0.492981,1.1704102,1.0075684,2.3319092,1.5305176,3.4892578c0.1967163,0.4352417,0.4490967,0.8449097,0.6630249,1.2727051
		C48.4240723,36.6574097,48.6824341,37.7875977,48.2954102,39.0021362z"/>
	<path style="fill:#FFE6D9;" d="M41.9454956,18.1964722c0.152771-1.140564,0.4685059-2.2583008,0.6730347-3.3933105
		c0.2012329-1.1168213,0.3972168-2.2382813,0.5112305-3.3662109c0.1758423-1.7398071,0.2947998-3.4859009,0.4088135-5.2312622
		c0.0673828-1.0318604,0.2630005-2.0159912,0.7914429-2.9193726c0.3607788-0.6168213,0.8641968-0.9411621,1.6005249-0.9320068
		c0.5697021,0.0070801,1.116272,0.0283813,1.621582,0.3414307c0.5089111,0.3153687,0.7800903,0.8125,0.8960571,1.3422241
		c0.2721558,1.242981,0.3880615,2.5111084,0.3309326,3.7874146c-0.0143433,0.3215942-0.09375,0.6404419-0.1061401,0.9619751
		c-0.0531616,1.3827515-0.0581055,2.7682495-0.1487427,4.1482544c-0.0619507,0.9421997-0.1734009,1.8911133-0.3796997,2.810791
		c-0.1766968,0.7875977-0.1124268,1.5758667-0.2011108,2.359375c-0.1264648,1.1178589-0.2624512,2.2346802-0.3878784,3.3526001
		c-0.0650024,0.5787964-0.0616455,1.1709595-0.1843872,1.7363892c-0.284668,1.3120117-0.6234741,2.6123657-0.9528198,3.9143066
		c-0.02948,0.116394-0.1691284,0.2008057-0.2232056,0.3162231c-0.0584106,0.1246338-0.1461792,0.3004761-0.1009521,0.3984985
		c0.369751,0.8016357,0.3781128,1.6292114,0.2341919,2.4746704c-0.0244141,0.1433716-0.0542603,0.2857666-0.0827637,0.4284058
		c-0.0016479,0.0083008-0.0145264,0.0143433-0.0529785,0.0501709c-0.1951294-0.3274536-0.3684692-0.661438-0.5849609-0.9645996
		c-0.1190796-0.166748-0.2926025-0.3156128-0.4737549-0.4124756c-0.338501-0.1810913-0.7151489-0.2921143-1.0495605-0.4793701
		c-0.6905518-0.3865356-1.409729-0.5438232-2.1911621-0.385376c-0.0704956,0.0142822-0.1450806,0.0126343-0.2175293,0.010437
		c-0.0284424-0.0008545-0.0562744-0.0233765-0.0881348-0.0377197c-0.0137329-0.0377197-0.0231934-0.0509033-0.0198975-0.0563965
		c0.4974365-0.821167,0.3071899-1.7388306,0.3633423-2.6204224c0.0629272-0.9871216,0.1401367-1.9750977,0.1488647-2.9632568
		c0.006958-0.7890625-0.0924683-1.5784912-0.1206665-2.3686523C41.9317017,19.7312622,41.8445435,18.9501343,41.9454956,18.1964722z
		"/>
	<path style="fill:#FFE6D9;" d="M26.6195679,20.7926025c0.0037231-0.072876,0.0150757-0.1462402,0.0099487-0.2185059
		c-0.0593262-0.8331299,0.4083862-1.3928833,1.0020142-1.8660278c0.1756592-0.1399536,0.4239502-0.2306519,0.649292-0.2578735
		c0.5457153-0.065918,1.1022339-0.1433105,1.645874-0.102478c0.8567505,0.06427,1.5513916,0.4924316,2.1737671,1.0941162
		c0.7775879,0.751709,1.0479126,1.7593994,1.4848633,2.6838379c0.5645752,1.194397,1.1170654,2.3948364,1.6495361,3.6037598
		c0.1405029,0.3189697,0.2231445,0.6741333,0.2692261,1.0210571c0.0537109,0.4046631-0.2416382,0.6947021-0.9157715,0.9013672
		c-0.727478,0.2229614-1.1688843,0.6711426-1.3088379,1.4276123c-0.083313,0.4501953-0.6887817,0.725708-1.0877686,0.5142822
		c-0.4766235-0.2526245-0.8687744-0.5571899-1.0842896-1.104126c-0.1241455-0.3149414-0.4719849-0.5386963-0.7079468-0.8131104
		c-0.5491943-0.638916-1.0869141-1.2877808-1.6397705-1.9234619c-0.1555786-0.178894-0.3623657-0.3129883-0.5202026-0.4902344
		c-0.7637939-0.8573608-1.2626343-1.8475952-1.4492188-2.9856567c-0.0805054-0.4911499-0.1464233-0.9846802-0.2189331-1.4771118
		C26.5874023,20.7975464,26.6035156,20.795105,26.6195679,20.7926025z"/>
</g>
<g>
	<path style="fill:#EDBBAB;" d="M32.4694214,20.4534302c0.3261108,1.0792847,0.8634644,2.0593262,1.305603,3.0838623
		c0.2981567,0.6911011,0.5921021,1.3883057,0.8183594,2.1047363c0.182373,0.5774536,0.0744629,1.1495361-0.4694214,1.5100708
		c-0.4257813,0.2822876-0.8776245,0.5575562-1.3573608,0.7182007c-0.6074829,0.2034302-1.1834717,0.0731812-1.7139893-0.3604126
		c-0.7138672-0.583374-1.3723145-1.2096558-1.9283447-1.9442749c-0.6055298-0.7999878-1.3899536-1.4596558-1.8519287-2.3726196
		c-0.1535034-0.3033447-0.319397-0.6015015-0.4788208-0.9022217c0.1883545,1.1321411,0.6853638,2.1182251,1.4459839,2.9720459
		c0.1578369,0.1772461,0.364624,0.3113403,0.5202026,0.4902344c0.5528564,0.6356812,1.0905762,1.2845459,1.6397705,1.9234619
		c0.2359619,0.2744141,0.5838013,0.4981689,0.7079468,0.8131104c0.2155151,0.546936,0.607666,0.8515015,1.0842896,1.104126
		c0.3989868,0.2114258,1.0044556-0.0640869,1.0877686-0.5142822c0.1399536-0.7564697,0.5813599-1.2046509,1.3088379-1.4276123
		c0.6741333-0.206665,0.9694824-0.4967041,0.9157715-0.9013672c-0.0460815-0.3469238-0.1287231-0.7020874-0.2692261-1.0210571
		c-0.5324707-1.2089233-1.0849609-2.4093628-1.6495361-3.6037598c-0.4369507-0.9244385-0.7072754-1.9321289-1.4848633-2.6838379
		c-0.1300049-0.1256714-0.2654419-0.2385864-0.4025879-0.3474121c0.020813,0.0535889,0.0377808,0.109375,0.0665283,0.1582642
		C32.0008545,19.6538086,32.3389893,20.0217896,32.4694214,20.4534302z"/>
	<path style="fill:#EDBBAB;" d="M35.6190186,27.9613647c-0.0685425-0.0183105-0.1414795-0.0266113-0.2125854-0.0402832
		c0.3419189,0.3029785,0.7659912,0.2763062,1.1726685,0.3190308C36.2600098,28.1437378,35.940918,28.0473022,35.6190186,27.9613647z
		"/>
	<path style="fill:#EDBBAB;" d="M26.7108765,51.8364868c0.1768799-0.2930298,0.3630981-0.5805664,0.5346069-0.8766479
		c0.0482788-0.083313,0.1046753-0.2024536,0.0801392-0.2810669c-0.2026367-0.6497803-0.015686-1.1911621,0.425354-1.6733398
		c0.0720825-0.0787964,0.1346436-0.1663818,0.2015381-0.2498779c-0.4161377,0.1216431-0.8011475,0.2938843-1.1940918,0.4454956
		c-0.0952148,0.0367432-0.2166138,0.0054321-0.3459473,0.0054321c0.4967041-0.5956421,0.9445801-1.1328125,1.3924561-1.6699219
		c-0.0230713-0.0267944-0.0462036-0.0536499-0.0693359-0.0804443c-0.6479492,0.2086182-1.2722778,0.2626953-1.8295288-0.225647
		c-0.0817871-0.0716553-0.203186-0.1000977-0.3087158-0.142334c-0.5181274-0.2073975-0.9437256-0.5232544-1.3380737-0.9307251
		c-0.5263672-0.5439453-0.9307861-1.1646729-1.3406982-1.7869873c-0.2266846-0.3440552-0.4812012-0.6833496-0.6317749-1.0612183
		c-0.2824097-0.7086792-0.5476074-1.4318848-0.7279663-2.1714478c-0.1727905-0.7084961-0.2302856-1.4453125-0.3340454-2.1703491
		c-0.0115967-0.0808105-0.0126343-0.1714478,0.0116577-0.2479248c0.2286377-0.7211914,0.4550171-1.4458618,0.9490967-2.0421143
		c0.1841431-0.222229,0.3920288-0.4247437,0.5891113-0.6362305c-0.3582764,0.1148682-0.6793823,0.2910156-0.9978027,0.4720459
		c-0.1967773,0.1118774-0.331604,0.0553589-0.3627319-0.1714478c-0.0169067-0.1229248-0.0129395-0.2498169-0.0080566-0.3745117
		c0.0406494-1.0386963,0.0845947-2.0772095,0.1256104-3.1158447c0.0288086-0.7284546,0.0274048-0.7285156,0.6088257-1.1129761
		c-0.0668335-0.0362549-0.12323-0.0780029-0.1864624-0.0991211c-0.262207-0.0875244-0.3563232-0.265625-0.4086914-0.5397949
		c-0.1643677-0.8609009-0.3690186-1.7141724-0.5644531-2.5689697c-0.1331787-0.5825806-0.3435059-1.159668,0.0232544-1.7418823
		c0.0404053-0.064209-0.0247803-0.2408447-0.0940552-0.3173828c-0.1010132-0.1118164-0.2636719-0.1657715-0.3753052-0.2706909
		c-0.1360474-0.1278076-0.2862549-0.2653198-0.3591919-0.4301147c-0.1287231-0.2909546-0.1862793-0.6126709-0.3040161-0.9094238
		c-0.434021-1.0939941-0.8477783-2.194397-0.947937-3.3788452c-0.0300903-0.355835-0.3185425-0.7671509,0.1494751-1.0604248
		c0.0099487-0.0062256,0.0037842-0.0380249,0.0080566-0.0999146c-0.9013062-0.2232056-1.2254028-0.9362793-1.4257202-1.7574463
		c-0.161377-0.6619263-0.3103027-1.3305054-0.5333862-1.9723511c-0.1384277-0.3984375-0.1793823-0.7288818,0.119873-1.0515747
		c0.0110474-0.0119019,0.0056152-0.0391846,0.0102539-0.0807495c-0.4194946-0.3010864-0.6807861-0.723938-0.8411865-1.2230225
		c-0.0979004-0.3045044-0.2283325-0.5991821-0.3569946-0.8926392c-0.0232544-0.0529785-0.062561-0.098877-0.1037598-0.1439819
		c0.0039673,0.0161743,0.0072632,0.0325317,0.0112305,0.0487061c0.3850098,1.5662842,0.8453979,3.1144409,1.2910156,4.6653442
		c0.2242432,0.7803345,0.5130005,1.5426025,0.7246704,2.3259888c0.2741089,1.0142212,0.4576416,2.0541382,0.7582397,3.0596924
		c0.3512573,1.1749878,0.7845459,2.3256226,1.1875,3.4849243c0.0734863,0.2113647,0.2078247,0.4066162,0.2518311,0.6220093
		c0.0725708,0.3554688,0.0523682,0.732666,0.1462402,1.0804443c0.2150269,0.796814,0.145874,1.5750732,0.0110474,2.3755493
		c-0.2455444,1.4579468-0.411377,2.9292603-0.6525269,4.3880615c-0.1314697,0.7949829-0.1170654,1.5799561,0.0178223,2.3612671
		c0.0872192,0.5048828,0.2603149,0.9949341,0.4187622,1.5795898c0.2557373-0.4625854,0.4625244-0.8365479,0.6693115-1.2105713
		c-0.128418,0.5773315-0.3419189,1.1239624-0.4384766,1.6904907c-0.0969849,0.5689697-0.0699463,1.1582642-0.1120605,1.7376099
		c-0.0213623,0.2938232,0.0325928,0.5552979,0.2080688,0.7945557c0.6062622,0.8264771,0.9168091,1.7327271,0.7653198,2.772644
		c-0.0244751,0.1678467-0.008606,0.3687134,0.0631104,0.5187378c0.3452148,0.7220459,0.6985474,1.4415283,1.0857544,2.1416016
		c0.1674805,0.3027954,0.3091431,0.5863037,0.2357788,0.9381104c-0.0464478,0.2225342,0.0498657,0.3757935,0.2262573,0.5045166
		c0.3787231,0.2763062,0.7437744,0.5718994,1.1297607,0.8372192c0.105835,0.0728149,0.2662964,0.0932007,0.4011841,0.0916748
		c0.3890381-0.0045166,0.7778931-0.0325317,1.166748-0.0512695c0.0065308,0.0293579,0.0130615,0.0587769,0.0195923,0.0881348
		c-0.5023193,0.213623-1.0093994,0.4169922-1.5045776,0.6459351c-0.1931763,0.0893555-0.4051514,0.2011719-0.5303345,0.3631592
		c-0.4621582,0.5980835-0.3845825,10.1589966-0.3493652,10.8718872c0.1306763,0,0.2128906-0.000061,0.2950439,0
		c1.1296997,0.0004883,2.2593384,0.0036621,3.3890381,0.0031128c-0.043396-0.0165405-0.0814819-8.9013672-0.0858765-8.9239502
		C26.6756592,52.6188965,26.4718628,52.2323608,26.7108765,51.8364868z"/>
	<path style="fill:#EDBBAB;" d="M25.2999268,26.145752c0.4904785,0.4525757,1.1673584,0.7142334,1.3452148,1.4782104
		c0.1112671,0.4779053,0.3529663,0.9240723,0.513855,1.3920898c0.1896973,0.552002,0.0585938,1.100769-0.0479736,1.6502075
		c-0.0585938,0.302124-0.2278442,0.5135498-0.5239258,0.534729c-0.4348755,0.031189-0.8710327,0.0499268-1.3069458,0.0579834
		c-0.9035645,0.0166016-1.8084717,0.0142212-2.677002,0.3188477c-0.085144,0.0299072-0.1640015,0.0777588-0.2458496,0.1173096
		c0.3915405,0.109314,0.7587891,0.1630859,1.1279907,0.1915283c0.934021,0.0718384,1.8688965,0.1321411,2.8033447,0.1974487
		c0.5603027,0.0391235,1.0041504,0.2183838,1.0502319,0.8753052c0.0021362,0.0307617,0.0112305,0.0612793,0.0195313,0.0913086
		c0.1459351,0.5281982,0.2860107,1.0581665,0.4404297,1.5839233c0.1168213,0.3978882,0.0621338,0.7407837-0.2126465,1.0686035
		c-0.2285156,0.272644-0.4095459,0.585022-0.6116333,0.8798218c0.0158691,0.0322876,0.0317993,0.0646362,0.0476685,0.0969849
		c0.3174438-0.0567017,0.6419067-0.0894165,0.949707-0.1793213c0.1760864-0.0514526,0.2711182-0.0126953,0.3735962,0.1109619
		c0.5203857,0.6278687,1.0410767,1.2554932,1.5671387,1.8786011c0.0928955,0.1100464,0.197937,0.2231445,0.3214111,0.2913208
		c0.2619629,0.1448364,0.3059692,0.3687134,0.2315063,0.6129761c-0.1497803,0.4910278-0.3237305,0.9747925-0.4945679,1.4591675
		c-0.0924072,0.2618408-0.2000732,0.5181885-0.2974243,0.7783203c-0.0093994,0.0250854,0.0054321,0.0592041,0.0089722,0.0887451
		c0.0750122,0.0046997,0.1486206,0.0093384,0.2965698,0.0186157c0,0.9850464-0.1201172,1.972168,0.0341187,2.9143066
		c0.1512451,0.9240112,0.5714111,1.8059082,0.8921509,2.699585c0.3302612,0.9202881,1.1361694,1.5223389,1.6436768,2.3253784
		c-0.0209351,0.0249023-0.0419312,0.0498047-0.0629272,0.074707c-0.5548096-0.3136597-1.1096191-0.6273804-1.7325439-0.9796143
		c0.1013184,0.184082,0.1557617,0.3052368,0.2294312,0.413208c0.4614868,0.6762695,0.8062687,1.452198,1.3936157,2.0224609
		c1.41502,1.3738594,3.0816841,2.6238594,3.2483521,6.7071953c0.0790367,1.936409,0.25,4.0989571,0.25,4.0989571
		s1.234375,0.015625,1.7348022,0.015625c0.4412041,0,1.7337036,0.0274048,1.7964478-0.40625
		c0.0153809-0.1063232-0.28125-2.21875-0.3125-3.5s-0.03125-3.46875-0.4375-4.0625s-1.5253906-1.4258423-1.3879395-1.7130737
		c0.0115356-0.0241699-0.1013184-1.1418457-0.1734619-1.1671143c-1.1723022-0.4099731-2.3032837-0.9076538-3.3635254-1.5585938
		c-0.1269531-0.0779419-0.2493286-0.163269-0.3738403-0.2451782c0.1929932,0.0084229,0.3585205,0.0621948,0.519043,0.1281738
		c1.0013428,0.411499,2.0279541,0.616394,3.1034546,0.3572388c0.2053833-0.0494995,0.4403687-0.1149902,0.5837402-0.2536621
		c0.2749023-0.2661133,0.4784546-0.6043701,0.7408447-0.885498c0.2233887-0.2393799,0.4584351-0.4945068,0.7400513-0.6474609
		c0.6030884-0.3275757,1.2440796-0.5844116,1.8601685-0.8892822c0.2579346-0.1276855,0.5038452-0.2880249,0.7337646-0.4619141
		c0.2778931-0.210144,0.5137939-0.479126,0.8019409-0.6716309c0.5779419-0.3861084,1.1635742-0.7662354,1.7744141-1.0962524
		c0.8099365-0.4376221,1.6229248-0.8505249,2.1483154-1.6575317c0.3563232-0.5473022,0.8415527-1.0331421,1.0913086-1.6218872
		c0.3634644-0.8568726,0.5567017-1.7848511,0.8408813-2.6766968c0.3870239-1.2145386,0.1286621-2.3447266-0.4191284-3.4404297
		c-0.2139282-0.4277954-0.4663086-0.8374634-0.6630249-1.2727051c-0.5229492-1.1573486-1.0375366-2.3188477-1.5305176-3.4892578
		c-0.2536011-0.6020508-0.5996094-1.0725098-1.2461548-1.300415c-0.553772-0.1952515-1.079834-0.4763794-1.6652222-0.5593872
		c0.0037231,0.0178833-0.010376,0.026123,0.0008545,0.0479736c0.1993408,0.1225586,0.3857422,0.2282104,0.5626831,0.3479614
		c0.2907715,0.1967163,0.581604,0.3944092,0.8600464,0.6078491c0.1529541,0.1172485,0.1793823,0.2591553,0.0835571,0.4613037
		c-0.4070435,0.8581543-0.7767944,1.7341309-1.1904907,2.5889282c-0.0836792,0.1728516-0.2773438,0.3484497-0.4580078,0.4077759
		c-0.538208,0.1765747-1.0985107,0.2844849-1.644043,0.4406128c-0.6594849,0.1886597-1.3093262,0.2714844-1.987854,0.0670166
		c-0.4937134-0.1488037-1.013916-0.2080078-1.5112915-0.3467407c-0.4235229-0.118103-0.8598022-0.2421265-1.2382813-0.4559937
		c-0.4024048-0.227356-0.7537231-0.5513306-1.1079712-0.8556519c-0.3000488-0.2578125-0.6149292-0.5166626-0.7344971-0.9596558
		c0.0859375,0.0222168,0.1326904,0.0336304,0.1791382,0.0463867c0.6623535,0.1821899,1.3210449,0.3800049,1.989502,0.5361328
		c0.1707764,0.039856,0.3723145-0.0523682,0.5598145-0.0834351c0.1615601-0.0267944,0.3283081-0.0922852,0.4840088-0.0724487
		c0.6003418,0.0766602,1.182373-0.1867065,1.4268188-0.737854c0.208252-0.4693604,0.381958-0.951355,0.5576172-1.4239502
		c-0.0733643,0.1578979-0.1452637,0.3162842-0.2191772,0.473938c-0.0335083-0.0145264-0.0669556-0.0289917-0.1004639-0.0435181
		c0.0427246-0.1101685,0.0725708-0.2276001,0.1303101-0.3292236c0.284668-0.5010376,0.1593018-0.730835-0.4213257-0.8156128
		c-0.3991089-0.0582886-0.7982788-0.1350708-1.1870117-0.2416382c-0.2250977-0.0617065-0.4482422-0.1304932-0.671875-0.1975098
		c0.0002441,0.0001831,0.0006104,0.0002441,0.0006104,0.0002441c0.4199219,0.3251343,0.9326782,0.4094238,1.4196777,0.5332031
		c0.2445068,0.0621948,0.4382935,0.1287842,0.5321045,0.3533325c0.050415,0.1207275,0.0749512,0.284729,0.0355225,0.4042969
		c-0.1130981,0.3428955-0.2315063,0.692749-0.4140015,1.0005493c-0.1055298,0.1779785-0.3205566,0.3219604-0.5181274,0.4088745
		c-0.746521,0.328186-1.5118408,0.2987061-2.2660522,0.0202026c-0.5206299-0.1922607-1.0151978-0.4310303-1.4661865-0.7434082
		c0.3026733,0.284668,0.6022949,0.5664673,0.9173584,0.8625488c-0.7929077-0.2095337-1.3627319-0.6872559-1.8366699-1.3382568
		c-0.0056152,0.0083008-0.0101929,0.0198975-0.0155029,0.0291138c-0.0012207,0.2576904,0.0114136,0.5040283,0.1055908,0.7130127
		c0.1618652,0.3590698,0.3549805,0.711792,0.5862427,1.0299072c0.3337402,0.4589233,0.6657104,0.9388428,1.0874634,1.3081055
		c0.3833008,0.3356323,0.8674927,0.5756836,1.3389282,0.7868652c1.0065308,0.4509277,1.9691162,1.0809326,3.1618042,0.9014282
		c0.0807495-0.012146,0.2085571,0.0787964,0.2660522,0.1572876c0.2854614,0.3898926,0.5862427,0.75354,1.0385742,0.9673462
		c0.1867065,0.0882568,0.3516846,0.2224731,0.5265503,0.3357544c-0.010376,0.0220947-0.020813,0.0441895-0.031189,0.0662231
		c-0.1463623,0-0.2927246,0-0.4921265,0c0.4072266,1.0606079,1.0456543,1.9315796,1.6373291,2.8537598
		c-0.0669556,0.0968628-0.1365356,0.2423096-0.2456665,0.3462524c-0.2507935,0.2387695-0.2162476,0.4902954-0.0814209,0.7625732
		c0.1008911,0.2036133,0.1970825,0.4095459,0.2953491,0.6144409c-0.1484985-0.107666-0.2720337-0.230835-0.3318481-0.3796997
		c-0.1774292-0.4412231-0.5145874-0.565979-0.9558105-0.5800781c-0.3574829-0.0114746-0.4301758,0.0238647-0.3973389,0.3894653
		c0.0175781,0.1959229,0.0687866,0.3890381,0.1083984,0.5827026c0.0228271,0.1118164,0.0527344,0.222168,0.0794067,0.3331299
		c-0.2139282-0.2984009-0.4030151-0.6052856-0.4902954-0.9387817c-0.1604614-0.6136475-0.4333496-1.0979614-1.0778809-1.2987671
		c-0.1679688-0.0523682-0.3318481-0.1273193-0.486145-0.2127075c-1.0263062-0.5679932-2.1139526-0.711792-3.2630615-0.5134277
		c-0.3441772,0.0594482-0.7033081,0.105835-1.0476074,0.0734863c-0.5164185-0.0485229-1.0262451-0.1697388-1.5380859-0.2640381
		c-0.4407959-0.0811768-0.8470459,0.0774536-1.1170044,0.3674927c-0.4661255,0.5008545-0.8522339,1.0731812-1.0686035,1.7451782
		c-0.2852173,0.8858643-0.3614502,1.793457-0.3572388,2.71521c0.0009155,0.187439-0.0301514,0.375061-0.0464478,0.5626221
		c-0.0326538-0.0030518-0.0652466-0.0061646-0.0979004-0.0092163c-0.1234741-1.0422974-0.0487671-2.0743408,0.1997681-3.1027832
		c-0.2337646,0.3529053-0.4675903,0.7058105-0.701416,1.0587158c-0.0305176-0.0185547-0.0609741-0.0370483-0.0914917-0.055603
		c0.2215576-0.4530029,0.4146118-0.9228516,0.6710205-1.3551636c0.4299927-0.7250366,0.9019775-1.4251099,1.3515625-2.1386108
		c0.0516968-0.0820313,0.1304321-0.2150269,0.0996094-0.2698975c-0.1723022-0.3068237-0.3682251-0.6011963-0.5685425-0.8911743
		c-0.1387329-0.2008057-0.3171387-0.3759155-0.4421387-0.5839233c-0.138855-0.2310791-0.2356567-0.4872437-0.3535156-0.7311401
		c-0.2080078-0.4302979-0.774292-0.5921631-1.1760254-0.3447876c-0.2631226,0.1619873-0.5334473,0.3121948-0.8005371,0.4677124
		c-0.0145874-0.0256348-0.0292358-0.0512695-0.0438232-0.0769653c0.279541-0.1777954,0.5578003-0.357605,0.8389282-0.5328979
		c0.3731079-0.232666,0.3969116-0.3920288,0.1090088-0.711731c-0.1394043-0.1548462-0.2851563-0.3074951-0.4002075-0.4797363
		c-0.1280518-0.1915283-0.2841187-0.3939209-0.3215332-0.6099854c-0.0661011-0.381897-0.1817627-0.7315674-0.4303589-1.0212402
		c-0.0950317-0.1107788-0.2576904-0.2138672-0.3981323-0.2266235c-0.5600586-0.0509644-1.1239014-0.0588989-1.6855469-0.0949707
		c-0.3389893-0.0217285-0.6765137-0.0658569-1.0147095-0.0999146c0.1190796-0.079895,0.2321777-0.1074829,0.3450317-0.1067505
		c0.6981812,0.0042725,1.3963623,0.0187988,2.0945435,0.0203247c0.1445923,0.0003052,0.3855591,0.0015259,0.4160767-0.0692749
		c0.0941772-0.2183838,0.2139893-0.5182495,0.1327515-0.7020264c-0.2263184-0.512146-0.2159424-1.0291138-0.2199097-1.5610962
		c-0.0015869-0.2180176-0.0554199-0.4554443-0.1540527-0.6491089c-0.2360229-0.4633179-0.5658569-0.8843994-0.7597046-1.3623047
		c-0.253418-0.625-0.6322021-1.022644-1.3190308-1.0993042c-0.1523438-0.0169678-0.3178711-0.0562744-0.4448242-0.1366577
		c-0.362915-0.2298584-0.8347168-0.3650513-1.0939331-0.692627c0.0128784,0.0834351,0.0222778,0.1702271,0.0700073,0.2207031
		C24.77948,25.6664429,25.0402222,25.9061279,25.2999268,26.145752z M31.0436401,42.8218384
		c0.1697998-0.7209473,0.3324585-1.444458,0.532959-2.1571045c0.1122437-0.3989868,0.4220581-0.6538696,0.833252-0.6964722
		c1.0096436-0.1046753,2.0233154-0.1703491,3.0339966-0.265625c0.3677979-0.034729,0.7301025-0.130249,1.0979614-0.1600952
		c0.5058594-0.0410156,1.0180664-0.0915527,1.5210571-0.0529175c0.4598999,0.0352783,0.9109497,0.1847534,1.366272,0.2820435
		c0.3204956,0.0684204,0.5606079,0.2401733,0.7490234,0.5125122c0.3585205,0.5180664,0.7362061,1.0228271,1.1044922,1.5341187
		c0.0408325,0.0567017,0.0724487,0.1199341,0.1083374,0.1801758c0.0541382-0.0245361,0.1082153-0.0490112,0.1623535-0.0735474
		c-0.0717163-0.5554199-0.1433716-1.1108398-0.2150269-1.6659546c0.4622803-0.0698242,1.0026855,0.2437134,1.1520386,0.687439
		c0.0853271,0.2536621,0.164856,0.5095215,0.2590942,0.7598877c0.1756592,0.4668579,0.6211548,0.5799561,1.0168457,0.7521362
		c0.1196899,0.052063,0.2525024,0.0739746,0.3944702,0.1139526c-0.1506958,0.4469604-0.378418,0.762085-0.8887329,0.7717285
		c-0.1521606,0.0028687-0.3076782,0.0484009-0.4539795,0.097229c-0.4416504,0.1472778-0.8787231,0.2901001-1.3514404-0.2029419
		c0.1134033,0.6287842-0.2321777,0.796936-0.5991821,0.9846802c-0.3771362,0.1929321-0.7491455,0.4136963-1.0790405,0.6776733
		c-0.782959,0.6264648-1.699585,0.99646-2.604248,1.3773804c-0.3983765,0.1677246-0.8632813,0.1932983-1.3025513,0.2436523
		c-0.4228516,0.0484619-0.8554688,0.0159912-1.2768555,0.0718994c-0.7468872,0.098999-1.387207-0.1390381-1.9956055-0.5340576
		c-0.1821289-0.1182861-0.3912964-0.1970825-0.5654907-0.3248291c-0.1447754-0.1062012-0.2785034-0.242981-0.3771973-0.3925781
		c-0.1246948-0.1890869-0.1976318-0.4115601-0.3128052-0.6079712
		C31.0021973,44.1351318,30.8839111,43.4998169,31.0436401,42.8218384z"/>
	<path style="fill:#EDBBAB;" d="M34.8711548,27.8769531c-0.0377197,0.0014648-0.0767822-0.0049438-0.1138916-0.0011597
		c-0.5774536,0.0586548-0.9612427,0.4292603-1.2098389,0.9284058c-0.0809326,0.1624756-0.0783691,0.3006592-0.0350342,0.4268188
		c0.0766602-0.1831055,0.1525879-0.3665771,0.2329712-0.5480347C33.8748169,28.390686,34.4506836,28.0009155,34.8711548,27.8769531z
		"/>
	<path style="fill:#EDBBAB;" d="M41.187561,28.9423828c-0.3389893,0.0105591-0.6779175,0.0249023-1.0170288,0.0307617
		c-0.2016602,0.003479-0.3145752,0.0917969-0.3973389,0.24823c0.3181152-0.0526733,0.6797485-0.1096191,1.0425415-0.1756592
		C40.9423218,29.0227051,41.0835571,29.0048828,41.187561,28.9423828z"/>
	<path style="fill:#EDBBAB;" d="M21.9404297,19.5825806c0.6808472,0.161377,0.8713989,0.6748657,1.0686035,1.1981812
		c0.0604248,0.1602783,0.171814,0.3013916,0.2754517,0.4453735c-0.225647-0.626709-0.4522705-1.2532349-0.6655884-1.8841553
		c-0.2251587-0.6658936-0.428894-1.3390503-0.6364746-2.0108643c0.0217896,0.1747437,0.0444946,0.3493652,0.0629272,0.5244141
		C22.1053467,18.4265747,22.552002,19.0057983,21.9404297,19.5825806z"/>
	<path style="fill:#EDBBAB;" d="M20.8894653,14.8148193c0.1343994,0.5461426,0.4466553,1.0488281,0.6864624,1.5686646
		c0.071228,0.1543579,0.1518555,0.3044434,0.2281494,0.4564819c0.0072021-0.0014038,0.0144043-0.0027466,0.0216064-0.0041504
		c-0.0335083-0.1082153-0.0688477-0.2158203-0.1025391-0.3239746c-0.2290039-0.7352905-0.4561157-1.4712524-0.6744995-2.2097778
		c-0.0270996-0.0915527-0.0512085-0.184021-0.0772095-0.2759399C20.9017944,14.2993774,20.8300171,14.5732422,20.8894653,14.8148193
		z"/>
	<path style="fill:#EDBBAB;" d="M41.1289063,18.6112671c0.0292358,0.036438,0.0379639,0.0986938,0.0368042,0.1484985
		c-0.0196533,0.8222656,0.0411987,1.6572266-0.0824585,2.4638672c-0.2322998,1.515625-0.3851318,3.0325317-0.4107056,4.5638428
		c-0.0119019,0.7148438-0.4488525,1.3359985-1.1127319,1.5928955c-0.718689,0.2780762-1.4552002,0.3105469-2.147644-0.0057373
		c-0.3895874-0.1779175-0.8734131-0.458313-1.0113525-0.8111572c-0.2496338-0.6386108-0.4998779-1.3032837-0.508606-2.0328979
		c-0.0102539-0.8533325-0.265686-1.6832886-0.18927-2.5622559c0.0899658-1.0343018,0.0123291-2.0822754,0.0375366-3.1235962
		c0.008606-0.3549194,0.1011963-0.7091064,0.1697998-1.060791c0.0101318-0.0517578,0.0272217-0.1063843,0.0415039-0.1591187
		c-0.0877686,0.0792236-0.1811523,0.15271-0.265564,0.2353516c-0.1676636,0.1641235-0.2576294,0.4707031-0.2703247,0.7180786
		c-0.0365601,0.7141724,0.0623169,1.4422607-0.0366211,2.1445313c-0.1331787,0.9447632-0.0743408,1.8670654,0.043335,2.798584
		c0.0521851,0.4133301,0.1318359,0.8306274,0.1174927,1.2432861c-0.0228271,0.6535034,0.1844482,1.2498169,0.3643799,1.8549194
		c0.0406494,0.1368408,0.1473389,0.272644,0.2592163,0.3666382c0.7556152,0.6345825,1.6594238,0.867981,2.619873,0.9416504
		c0.6004639,0.0461426,1.1702881-0.0170288,1.6832275-0.3763428c0.4037476-0.2828979,0.7028198-0.6105347,0.697876-1.144104
		c-0.0022583-0.2468262,0.0357666-0.4949951,0.067688-0.7410278c0.163208-1.2582397,0.3303833-2.5159912,0.4678345-3.5594482
		c-0.0863037-1.2924805-0.1549072-2.3623657-0.2333984-3.4314575c-0.0079956-0.1089478-0.0562744-0.2266235-0.1187134-0.317688
		c-0.1201172-0.1751709-0.2510376-0.3427124-0.3792114-0.5123291
		C40.9442749,18.1101685,40.9351196,18.3695679,41.1289063,18.6112671z"/>
	<path style="fill:#EDBBAB;" d="M42.2543335,18.7751465c0.06073-0.6152344-0.1209106-1.3311768,0.5130005-1.7504883
		c-0.0952148-0.1328125-0.2340088-0.2375488-0.236145-0.3450928c-0.0089111-0.446228,0.0268555-0.8932495,0.0393066-1.34021
		c0.0048218-0.1722412,0.0819702-0.3582764,0.0458374-0.5253296c-0.2045898,1.1312256-0.5185547,2.2455444-0.6708374,3.3824463
		c-0.1009521,0.7536621-0.0137939,1.53479,0.0136719,2.3027344c0.0219727,0.6159058,0.0754395,1.2312622,0.0998535,1.8464355
		c0.0406494-0.315918,0.0847168-0.6318359,0.102478-0.9488525C42.2103882,20.5236816,42.1687012,19.6435547,42.2543335,18.7751465z"
		/>
	<path style="fill:#EDBBAB;" d="M42.2217407,26.5189819c0.041748-0.6745605,0.0066528-0.576416,0.5802612-0.7576294
		c0.0236816-0.0074463,0.0430908-0.0287476,0.0924683-0.0630493c-0.1654053-0.1092529-0.3186646-0.1939697-0.4516602-0.3032837
		c-0.1171265-0.0963135-0.2860107-0.2096558-0.3034058-0.3334961c-0.0391235-0.2791138-0.0783691-0.5599365-0.1089478-0.8409424
		c-0.0293579,0.5369873-0.0653076,1.0739136-0.0994873,1.6105347c-0.0561523,0.8815918,0.1340942,1.7992554-0.3633423,2.6204224
		c-0.0032959,0.0054932,0.0061646,0.0186768,0.0198975,0.0563965c0.0059814,0.0026855,0.0108032,0.0040283,0.0165405,0.0070801
		c0.1762695-0.2479858,0.3097534-0.5256348,0.4263916-0.7992554C42.1843872,27.3544922,42.1967163,26.9226685,42.2217407,26.5189819
		z"/>
	<path style="fill:#EDBBAB;" d="M48.350769,9.3060303c-0.0394897,0.387146-0.1394043,0.7515259-0.4586182,1.0241699
		c-0.0458984,0.0391846-0.0230713,0.1942139,0.0085449,0.2808228c0.0552368,0.151001,0.211792,0.2941284,0.2043457,0.4341431
		c-0.0506592,0.9524536-0.1009521,1.9071045-0.2160034,2.8532104c-0.0844116,0.6943359-0.265564,1.3770142-0.4067993,2.064209
		c-0.0822754,0.4005127-0.0806274,0.8431396-0.458374,1.1149292c-0.2512207,0.1807251-0.5247803,0.3305664-0.8099976,0.5076904
		c0.0967407,0.0751953,0.1918945,0.1512451,0.2893066,0.2243042c0.217041,0.1626587,0.322937,0.3848877,0.2941284,0.6484375
		c-0.0767212,0.7009888-0.1425781,1.4047852-0.2612915,2.0991821c-0.2265015,1.3244019-0.4869995,2.6430054-0.7327881,3.9641113
		c-0.074646,0.4012451-0.2762451,0.6999512-0.6560059,0.8804321c-0.2545776,0.1209717-0.4937134,0.2745972-0.7634277,0.4269409
		c0.1972046,0.2515259,0.3807373,0.4736328,0.5488281,0.7069092c0.0550537,0.076416,0.1011353,0.1828613,0.0981445,0.2738037
		c-0.0274048,0.8259277-0.0648193,1.6550293-0.100647,2.4987183c0.0678101,0.0308838,0.1382446,0.0568848,0.2037964,0.0919189
		c0.1811523,0.0968628,0.3546753,0.2457275,0.4737549,0.4124756c0.2164917,0.3031616,0.3898315,0.637146,0.5849609,0.9645996
		c0.0384521-0.0358276,0.0513306-0.0418701,0.0529785-0.0501709c0.0285034-0.1426392,0.0583496-0.2850342,0.0827637-0.4284058
		c0.1439209-0.845459,0.1355591-1.6730347-0.2341919-2.4746704c-0.0452271-0.0980225,0.0425415-0.2738647,0.1009521-0.3984985
		c0.0540771-0.1154175,0.1937256-0.1998291,0.2232056-0.3162231c0.3293457-1.3019409,0.6681519-2.6022949,0.9528198-3.9143066
		c0.1227417-0.5654297,0.1193848-1.1575928,0.1843872-1.7363892c0.1254272-1.1179199,0.2614136-2.2347412,0.3878784-3.3526001
		c0.0886841-0.7835083,0.0244141-1.5717773,0.2011108-2.359375c0.2062988-0.9196777,0.317749-1.8685913,0.3796997-2.810791
		c0.0906372-1.3800049,0.0955811-2.7655029,0.1487427-4.1482544c0.0123901-0.3215332,0.0917969-0.6403809,0.1061401-0.9619751
		c0.0368042-0.8226318-0.0056763-1.6409912-0.1080933-2.4522095c0.0043335,0.144104,0.0179443,0.2888794,0.008728,0.4321289
		C48.6046143,6.9744873,48.4697266,8.1399536,48.350769,9.3060303z"/>
	<path style="fill:#EDBBAB;" d="M43.8422852,10.380127c0.0136108-0.008667,0.0153198-0.0361328,0.034729-0.0859375
		c-0.1841431-0.2280884-0.3817139-0.4727783-0.5846558-0.7240601c-0.0506592,0.6226196-0.0997925,1.2454834-0.1625977,1.8668213
		c-0.0500488,0.4951782-0.1206055,0.9885864-0.1957397,1.4814453c0.1922607-0.3100586,0.215332-0.6899414,0.2512817-1.0733032
		C43.2373657,11.2901001,43.3015137,10.723938,43.8422852,10.380127z"/>
</g>
<path d="M39.266674,30.1580906c-0.0369339,0.5754356-0.5359268,1.3277073-1.0243988,1.4607162
	c-0.7863503,0.2141228-1.5111732,0.0465527-2.2520103-0.1157913c-0.0018158-0.0307007-0.003624-0.0613976-0.0054321-0.0920982
	c0.1015511-0.0113449,0.2034798-0.0349426,0.3045769-0.0317917c0.3315964,0.0103474,0.6631927,0.047327,0.9941902,0.0412598
	c0.2547874-0.0046654,0.5113869-0.0448494,0.7623825-0.0938225c0.4949455-0.0965729,0.8354607-0.3957138,1.0487366-0.8476372
	C39.1333122,30.39715,39.1799545,30.3191719,39.266674,30.1580906z"/>
<g>
</g>
<g>
</g>
<g>
</g>
<g>
</g>
<g>
</g>
<g>
</g>
</svg>
