<?xml version="1.0" encoding="utf-8"?>
<!-- Generator: Adobe Illustrator 15.0.2, SVG Export Plug-In . SVG Version: 6.00 Build 0)  -->
<!DOCTYPE svg PUBLIC "-//W3C//DTD SVG 1.1//EN" "http://www.w3.org/Graphics/SVG/1.1/DTD/svg11.dtd">
<svg version="1.1" id="レイヤー_1" xmlns="http://www.w3.org/2000/svg" xmlns:xlink="http://www.w3.org/1999/xlink" x="0px"
	 y="0px" width="64px" height="64px" viewBox="0 0 64 64" enable-background="new 0 0 64 64" xml:space="preserve">
<g>
	<rect fill-rule="evenodd" clip-rule="evenodd" fill="#83DCFF" width="64" height="64"/>
	<g>
		<path fill="none" stroke="#0D3A00" stroke-miterlimit="10" d="M45.8,1.733c0.846-0.075,0.888,0.653,1.733,0.578
			c0.611,3.093,4.989,3.256,7.223,5.489c0.995,0.995,2.029-1.405,3.755-1.733c-0.076,1.448-0.694,4.581,0.867,5.777
			c-1.196,0.73-3.042,0.81-4.622,1.156c-1.127,0.703-1.289,2.371-2.022,3.467c-2.467-0.422-3.705-2.073-5.778-2.889
			c-0.737,0.129-1.328,0.405-1.732,0.867c-0.622-0.341-0.693-1.233-2.022-0.867c-0.632,0.042-0.62,0.728-0.578,1.445
			c0.292,1.345,3.679-0.405,2.889,2.022c-2.709-1.077-2.231,1.251-4.622,1.156c0.653-2.014-0.486-2.906-1.444-4.044
			c0.464-0.884,1.272-1.424,2.312-1.733c-0.009-1.205-1-1.425-0.289-2.6c1.325-0.267,1.396,0.723,2.6,0.578
			C45.345,8.211,45.062,4.461,45.8,1.733z"/>
		<path fill-rule="evenodd" clip-rule="evenodd" fill="#599F00" d="M45.8,1.733c0.846-0.075,0.888,0.653,1.733,0.578
			c0.611,3.093,4.989,3.256,7.223,5.489c0.995,0.995,2.029-1.405,3.755-1.733c-0.076,1.448-0.694,4.581,0.867,5.777
			c-1.196,0.73-3.042,0.81-4.622,1.156c-1.127,0.703-1.289,2.371-2.022,3.467c-2.467-0.422-3.705-2.073-5.778-2.889
			c-0.737,0.129-1.328,0.405-1.732,0.867c-0.622-0.341-0.693-1.233-2.022-0.867c-0.632,0.042-0.62,0.728-0.578,1.445
			c0.292,1.345,3.679-0.405,2.889,2.022c-2.709-1.077-2.231,1.251-4.622,1.156c0.653-2.014-0.486-2.906-1.444-4.044
			c0.464-0.884,1.272-1.424,2.312-1.733c-0.009-1.205-1-1.425-0.289-2.6c1.325-0.267,1.396,0.723,2.6,0.578
			C45.345,8.211,45.062,4.461,45.8,1.733z"/>
	</g>
	<g>
		<path fill="none" stroke="#0D3A00" stroke-miterlimit="10" d="M47.244,18.489c0.249,1.152-0.431,2.134,0,2.6
			c1.708,1.4,2.711,4.115,1.156,6.934c0.435,1.311,0.188,2.369,0,3.755c-0.909,0.138-1.13-0.412-1.733-0.578
			c-1.346,0.984,0.028,2.643,0.288,3.755c-0.982,2.048-1.666,4.94,0,6.645c-1.491,0.724-2.091,2.339-4.044,2.601
			c0.195-1.08,1.934-1.752,0.866-3.178c-0.973,2.012-3.014,2.956-4.044,4.911c-0.447-0.42-0.606-1.127-0.578-2.022
			c-1.104-0.141-0.904,1.021-1.444,1.444c-1.915-0.492-4.959,0.145-5.489-1.733c-0.593,0.081-0.577,0.771-0.867,1.155
			c-0.049,1.012,1.017,0.91,1.444,1.445c-1.612,0.794-3.1,1.715-4.333,2.889c-1.496-0.238-2.043-1.424-2.6-2.601
			c0.514-0.545,0.952-1.166,0.867-2.311c-3.206-2.634-7.659,1.398-10.4,0c-0.845,0.311-1.513,0.798-1.445,2.022
			c-1.482-0.829-3.705-0.918-3.755-3.178c1.85-1.617,5.391-1.543,6.355-4.045c3.132,0.624,7.04,0.471,10.4,0.866
			c1.007-0.148,0.424-1.887,0.578-2.889c0.669-0.485,1.23-1.08,2.311-1.155c0.175-0.692,0.416-1.318,0.289-2.312
			c0.869-0.286,1.289-1.021,2.6-0.866c0.378,1.438-0.89,1.229-0.867,2.311c-0.21,0.789,0.574,0.582,0.578,1.156
			c3.493-0.359,4.58-3.124,6.934-4.623c0.255-1.381,0.838-2.436,1.444-3.466c-0.227-2.45,0.154-3.774-0.578-5.778
			c0.462-1.079,1.344-1.738,1.733-2.889c0.81,0.154,0.534,1.392,0.866,2.022c1.292-0.349,1.11-0.665,2.312,0
			c0.547-1.703-0.927-1.385-1.155-2.311C44.957,17.877,46.498,18.207,47.244,18.489z"/>
		<path fill-rule="evenodd" clip-rule="evenodd" fill="#599F00" d="M47.244,18.489c0.249,1.152-0.431,2.134,0,2.6
			c1.708,1.4,2.711,4.115,1.156,6.934c0.435,1.311,0.188,2.369,0,3.755c-0.909,0.138-1.13-0.412-1.733-0.578
			c-1.346,0.984,0.028,2.643,0.288,3.755c-0.982,2.048-1.666,4.94,0,6.645c-1.491,0.724-2.091,2.339-4.044,2.601
			c0.195-1.08,1.934-1.752,0.866-3.178c-0.973,2.012-3.014,2.956-4.044,4.911c-0.447-0.42-0.606-1.127-0.578-2.022
			c-1.104-0.141-0.904,1.021-1.444,1.444c-1.915-0.492-4.959,0.145-5.489-1.733c-0.593,0.081-0.577,0.771-0.867,1.155
			c-0.049,1.012,1.017,0.91,1.444,1.445c-1.612,0.794-3.1,1.715-4.333,2.889c-1.496-0.238-2.043-1.424-2.6-2.601
			c0.514-0.545,0.952-1.166,0.867-2.311c-3.206-2.634-7.659,1.398-10.4,0c-0.845,0.311-1.513,0.798-1.445,2.022
			c-1.482-0.829-3.705-0.918-3.755-3.178c1.85-1.617,5.391-1.543,6.355-4.045c3.132,0.624,7.04,0.471,10.4,0.866
			c1.007-0.148,0.424-1.887,0.578-2.889c0.669-0.485,1.23-1.08,2.311-1.155c0.175-0.692,0.416-1.318,0.289-2.312
			c0.869-0.286,1.289-1.021,2.6-0.866c0.378,1.438-0.89,1.229-0.867,2.311c-0.21,0.789,0.574,0.582,0.578,1.156
			c3.493-0.359,4.58-3.124,6.934-4.623c0.255-1.381,0.838-2.436,1.444-3.466c-0.227-2.45,0.154-3.774-0.578-5.778
			c0.462-1.079,1.344-1.738,1.733-2.889c0.81,0.154,0.534,1.392,0.866,2.022c1.292-0.349,1.11-0.665,2.312,0
			c0.547-1.703-0.927-1.385-1.155-2.311C44.957,17.877,46.498,18.207,47.244,18.489z"/>
	</g>
	<g>
		<path fill="none" stroke="#0D3A00" stroke-miterlimit="10" d="M37.422,29.755c0.407,0.828-0.896,1.577,0.289,1.445
			c-0.104,1.051-0.683,1.628-1.733,1.733c0.257-0.843,0.369-0.997-0.289-1.444C35.906,30.551,36.168,29.657,37.422,29.755z"/>
		<path fill-rule="evenodd" clip-rule="evenodd" fill="#599F00" d="M37.422,29.755c0.407,0.828-0.896,1.577,0.289,1.445
			c-0.104,1.051-0.683,1.628-1.733,1.733c0.257-0.843,0.369-0.997-0.289-1.444C35.906,30.551,36.168,29.657,37.422,29.755z"/>
	</g>
	<g>
		<path fill="none" stroke="#0D3A00" stroke-miterlimit="10" d="M25.289,44.489c0.666-0.089,0.321,0.834,0.867,0.866
			c-0.033,0.738-0.968,0.573-1.733,0.578C24.591,45.332,25.029,45,25.289,44.489z"/>
		<path fill-rule="evenodd" clip-rule="evenodd" fill="#599F00" d="M25.289,44.489c0.666-0.089,0.321,0.834,0.867,0.866
			c-0.033,0.738-0.968,0.573-1.733,0.578C24.591,45.332,25.029,45,25.289,44.489z"/>
	</g>
	<g>
		<path fill="none" stroke="#0D3A00" stroke-miterlimit="10" d="M24.711,47.089c-0.161,1.476-1.111,2.163-1.733,3.178
			c-0.576-0.29-0.456-1.277-1.444-1.155c-1.622,0.304-2.405,1.447-2.889,2.889c-1.063-0.671-2.539-0.929-2.311-2.889
			c-0.246-0.429-0.727-0.621-1.445-0.578c0.41-1.857,2.886-3.229,4.623-2.022C20.409,43.474,23.782,45.355,24.711,47.089z"/>
		<path fill-rule="evenodd" clip-rule="evenodd" fill="#599F00" d="M24.711,47.089c-0.161,1.476-1.111,2.163-1.733,3.178
			c-0.576-0.29-0.456-1.277-1.444-1.155c-1.622,0.304-2.405,1.447-2.889,2.889c-1.063-0.671-2.539-0.929-2.311-2.889
			c-0.246-0.429-0.727-0.621-1.445-0.578c0.41-1.857,2.886-3.229,4.623-2.022C20.409,43.474,23.782,45.355,24.711,47.089z"/>
	</g>
	<g>
		<path fill="none" stroke="#0D3A00" stroke-miterlimit="10" d="M13.156,46.8c-0.775,1.331,0.154,2.224,1.444,2.312
			c0.296,1.74-0.647,2.242-1.156,3.178c0.458,3.154-1.188,4.204-3.755,4.333c0.056-0.906,1.143-0.783,0.867-2.022
			c-0.126-0.355-0.37-0.593-0.867-0.577c-0.954,0.463,0.041,1.079-0.578,1.733c-0.257-0.225-0.653-0.311-1.156-0.289
			c-0.35-2.276,0.491-3.361,1.733-4.045c-1.752-0.513,0.778-2.394-1.444-2.889c-0.798,0.092-0.5,0.895,0,1.155
			c-1.126,0.599-2.276,0.209-2.889-0.288c0-0.771,0-1.541,0-2.312c1.382-0.93,3.222-1.4,4.911-2.022
			C11.493,45.381,11.712,46.703,13.156,46.8z"/>
		<path fill-rule="evenodd" clip-rule="evenodd" fill="#599F00" d="M13.156,46.8c-0.775,1.331,0.154,2.224,1.444,2.312
			c0.296,1.74-0.647,2.242-1.156,3.178c0.458,3.154-1.188,4.204-3.755,4.333c0.056-0.906,1.143-0.783,0.867-2.022
			c-0.126-0.355-0.37-0.593-0.867-0.577c-0.954,0.463,0.041,1.079-0.578,1.733c-0.257-0.225-0.653-0.311-1.156-0.289
			c-0.35-2.276,0.491-3.361,1.733-4.045c-1.752-0.513,0.778-2.394-1.444-2.889c-0.798,0.092-0.5,0.895,0,1.155
			c-1.126,0.599-2.276,0.209-2.889-0.288c0-0.771,0-1.541,0-2.312c1.382-0.93,3.222-1.4,4.911-2.022
			C11.493,45.381,11.712,46.703,13.156,46.8z"/>
	</g>
	<g>
		<path fill="none" stroke="#0D3A00" stroke-miterlimit="10" d="M6.222,50.556c0.508,0.069,0.659,0.497,0.578,1.155
			c-0.385,0-0.77,0-1.155,0C5.434,50.923,6.218,51.13,6.222,50.556z"/>
		<path fill-rule="evenodd" clip-rule="evenodd" fill="#599F00" d="M6.222,50.556c0.508,0.069,0.659,0.497,0.578,1.155
			c-0.385,0-0.77,0-1.155,0C5.434,50.923,6.218,51.13,6.222,50.556z"/>
	</g>
	<g>
		<path fill="none" stroke="#0D3A00" stroke-miterlimit="10" d="M5.067,60.089c0.232,0.153,0.469,0.302,0.866,0.289
			c-0.466,1.556-2.186,1.858-2.889,3.178C1.793,62.099,4.631,61.184,5.067,60.089z"/>
		<path fill-rule="evenodd" clip-rule="evenodd" fill="#599F00" d="M5.067,60.089c0.232,0.153,0.469,0.302,0.866,0.289
			c-0.466,1.556-2.186,1.858-2.889,3.178C1.793,62.099,4.631,61.184,5.067,60.089z"/>
	</g>
</g>
</svg>
