<?xml version="1.0" encoding="UTF-8" standalone="no"?>
<!-- Generator: Adobe Illustrator 15.0.0, SVG Export Plug-In . SVG Version: 6.00 Build 0)  -->

<svg
   xmlns:dc="http://purl.org/dc/elements/1.1/"
   xmlns:cc="http://creativecommons.org/ns#"
   xmlns:rdf="http://www.w3.org/1999/02/22-rdf-syntax-ns#"
   xmlns:svg="http://www.w3.org/2000/svg"
   xmlns="http://www.w3.org/2000/svg"
   xmlns:sodipodi="http://sodipodi.sourceforge.net/DTD/sodipodi-0.dtd"
   xmlns:inkscape="http://www.inkscape.org/namespaces/inkscape"
   version="1.1"
   id="レイヤー_1"
   x="0px"
   y="0px"
   width="64px"
   height="64px"
   viewBox="0 0 64 64"
   style="enable-background:new 0 0 64 64;"
   xml:space="preserve"
   inkscape:version="0.48.4 r9939"
   sodipodi:docname="six.svg"><metadata
     id="metadata44"><rdf:RDF><cc:Work
         rdf:about=""><dc:format>image/svg+xml</dc:format><dc:type
           rdf:resource="http://purl.org/dc/dcmitype/StillImage" /></cc:Work></rdf:RDF></metadata><defs
     id="defs42" /><sodipodi:namedview
     pagecolor="#ffffff"
     bordercolor="#666666"
     borderopacity="1"
     objecttolerance="10"
     gridtolerance="10"
     guidetolerance="10"
     inkscape:pageopacity="0"
     inkscape:pageshadow="2"
     inkscape:window-width="640"
     inkscape:window-height="480"
     id="namedview40" /><g
     id="g3"><g
       id="g5"><linearGradient
         id="SVGID_1_"
         gradientUnits="userSpaceOnUse"
         x1="306"
         y1="-303.6201172"
         x2="306"
         y2="-356.3798828"
         gradientTransform="matrix(1 0 0 -1 -274 -298)"><stop
           offset="0"
           style="stop-color:#9FE1FF"
           id="stop8" /><stop
           offset="0.2621"
           style="stop-color:#60A1CE"
           id="stop10" /><stop
           offset="0.5708"
           style="stop-color:#1B5B97"
           id="stop12" /><stop
           offset="0.7151999"
           style="stop-color:#004082"
           id="stop14" /><stop
           offset="0.7693999"
           style="stop-color:#004487"
           id="stop16" /><stop
           offset="0.8311"
           style="stop-color:#005094"
           id="stop18" /><stop
           offset="0.8963"
           style="stop-color:#0064AB"
           id="stop20" /><stop
           offset="0.9636"
           style="stop-color:#0080CB"
           id="stop22" /><stop
           offset="1"
           style="stop-color:#0092DF"
           id="stop24" /></linearGradient><path
         style="fill:url(#SVGID_1_);"
         d="M58.4169922,50.3798828c0,4.4003906-3.6005859,8-8,8H13.5830078    c-4.4003906,0-8-3.5996094-8-8V13.6201172c0-4.4003906,3.5996094-8,8-8h36.8339844c4.3994141,0,8,3.5996094,8,8V50.3798828z"
         id="path26" /></g><g
       id="g28"><path
         style="fill:#FFFFFF;"
         d="M28.4902344,28.6523438c1.4091797-1.5419922,3.5244141-2.5117188,6.1220703-2.5117188    c5.0234375,0,9.03125,3.8330078,9.03125,10.5732422c0,6.2998047-4.1855469,12.0263672-11.1445313,12.0263672    c-7.8408203,0-11.9375-6.1669922-11.9375-14.2724609c0-11.4541016,6.6074219-19.1640625,16.6074219-19.9121094    c1.2324219-0.1767578,1.7617188-0.1767578,3.2148438-0.1767578v5.9033203c-0.8378906,0-1.71875,0.0878906-2.8183594,0.2197266    c-5.6835938,0.6611328-8.3701172,4.3173828-9.2509766,8.1503906H28.4902344z M35.9345703,36.9345703    c0-2.6435547-1.1894531-5.5078125-3.8759766-5.5078125c-1.4980469,0-2.7753906,1.1025391-3.4355469,2.5566406    c-0.1767578,0.4404297-0.3525391,1.3212891-0.3525391,2.5546875c0.0878906,3.5244141,1.453125,6.6962891,4.140625,6.6962891    C34.9658203,43.234375,35.9345703,40.0625,35.9345703,36.9345703z"
         id="path30" /></g><g
       style="opacity:0.22;"
       id="g32"><path
         style="fill:#FFFFFF;"
         d="M5.5830078,26.3730469C12.9638672,28.7558594,22.1025391,32.4990234,32,32.4990234    s19.0361328-3.7431641,26.4169922-6.1259766c0,0,2.1035156-13.8359375-1.9179688-18.2705078    C45.6943359,2.7431641,19.0878906,4.7490234,8.25,7.5244141C3.8261719,11.6171875,5.5830078,26.3730469,5.5830078,26.3730469z"
         id="path34" /></g><g
       id="g36"><path
         style="fill:#057CDD;"
         d="M50.4169922,59.3798828H13.5830078c-4.9628906,0-9-4.0371094-9-9V13.6201172    c0-4.9628906,4.0371094-9,9-9h36.8339844c4.9628906,0,9,4.0371094,9,9v36.7597656    C59.4169922,55.3427734,55.3798828,59.3798828,50.4169922,59.3798828z M13.5830078,6.6201172c-3.8603516,0-7,3.1396484-7,7    v36.7597656c0,3.859375,3.1396484,7,7,7h36.8339844c3.859375,0,7-3.140625,7-7V13.6201172c0-3.8603516-3.140625-7-7-7H13.5830078z    "
         id="path38" /></g></g></svg>