<?xml version="1.0" encoding="utf-8"?>
<!-- Generator: Adobe Illustrator 15.0.2, SVG Export Plug-In . SVG Version: 6.00 Build 0)  -->
<!DOCTYPE svg PUBLIC "-//W3C//DTD SVG 1.1//EN" "http://www.w3.org/Graphics/SVG/1.1/DTD/svg11.dtd">
<svg version="1.1" id="レイヤー_1" xmlns="http://www.w3.org/2000/svg" xmlns:xlink="http://www.w3.org/1999/xlink" x="0px"
	 y="0px" width="64px" height="64px" viewBox="0 0 64 64" style="enable-background:new 0 0 64 64;" xml:space="preserve">
<g>
	<g>
		<g>
			
				<linearGradient id="SVGID_1_" gradientUnits="userSpaceOnUse" x1="306" y1="-303.6201172" x2="306" y2="-356.3798828" gradientTransform="matrix(1 0 0 -1 -274 -298)">
				<stop  offset="0" style="stop-color:#9ED8F4"/>
				<stop  offset="0.2621" style="stop-color:#5F99C3"/>
				<stop  offset="0.5708" style="stop-color:#1B588F"/>
				<stop  offset="0.7151999" style="stop-color:#013E7B"/>
				<stop  offset="0.7693999" style="stop-color:#034280"/>
				<stop  offset="0.8311" style="stop-color:#024D8C"/>
				<stop  offset="0.8963" style="stop-color:#045FA1"/>
				<stop  offset="0.9636" style="stop-color:#1179BD"/>
				<stop  offset="1" style="stop-color:#1B89CB"/>
			</linearGradient>
			<path style="fill:url(#SVGID_1_);" d="M58.4169922,50.3798828c0,4.4003906-3.6005859,8-8,8H13.5830078
				c-4.4003906,0-8-3.5996094-8-8V13.6201172c0-4.4003906,3.5996094-8,8-8h36.8339844c4.3994141,0,8,3.5996094,8,8V50.3798828z"/>
		</g>
		<g style="opacity:0.22;">
			<path style="fill:#FFFFFF;" d="M5.5830078,26.3730469C12.9638672,28.7558594,22.1025391,32.4990234,32,32.4990234
				s19.0361328-3.7431641,26.4169922-6.1259766c0,0,2.1035156-13.8359375-1.9179688-18.2705078
				C45.6943359,2.7431641,19.0878906,4.7490234,8.25,7.5244141C3.8261719,11.6171875,5.5830078,26.3730469,5.5830078,26.3730469z"/>
		</g>
		<g>
			<path style="fill:#2074BC;" d="M50.4169922,59.3798828H13.5830078c-4.9628906,0-9-4.0371094-9-9V13.6201172
				c0-4.9628906,4.0371094-9,9-9h36.8339844c4.9628906,0,9,4.0371094,9,9v36.7597656
				C59.4169922,55.3427734,55.3798828,59.3798828,50.4169922,59.3798828z M13.5830078,6.6201172c-3.8603516,0-7,3.1396484-7,7
				v36.7597656c0,3.859375,3.1396484,7,7,7h36.8339844c3.859375,0,7-3.140625,7-7V13.6201172c0-3.8603516-3.140625-7-7-7H13.5830078
				z"/>
		</g>
	</g>
	<path style="fill:#FFFFFF;" d="M44.2177734,31.559082l6.0527344-10.4838867H38.1650391l-6.0625-10.5l-6.0620117,10.5h-12.105957
		l6.0527344,10.4838867l-6.0527344,10.4838867h12.1054688l6.0625,10.5009766l6.0625-10.5009766h12.1054688L44.2177734,31.559082z
		 M45.0751953,24.0751953l-2.5888672,4.484375l-2.5898438-4.484375H45.0751953z M40.7539063,31.559082l-4.3203125,7.4838867
		h-8.6616211l-4.3203125-7.4838867l4.3208008-7.4838867h8.6601563L40.7539063,31.559082z M32.1025391,16.5751953l2.5986328,4.5
		h-5.1967773L32.1025391,16.5751953z M19.1308594,24.0751953h5.1772461l-2.5883789,4.4838867L19.1308594,24.0751953z
		 M19.1308594,39.0429688l2.5883789-4.4833984l2.5888672,4.4833984H19.1308594z M32.1025391,46.5439453l-2.5986328-4.5009766
		h5.1972656L32.1025391,46.5439453z M42.4863281,34.5585938l2.5888672,4.484375h-5.1777344L42.4863281,34.5585938z"/>
	<circle style="fill:#FFFFFF;" cx="32.1025391" cy="31.5595703" r="2.875"/>
</g>
</svg>
