<?xml version="1.0" encoding="iso-8859-1"?>
<!-- Generator: Adobe Illustrator 16.0.0, SVG Export Plug-In . SVG Version: 6.00 Build 0)  -->
<!DOCTYPE svg PUBLIC "-//W3C//DTD SVG 1.1//EN" "http://www.w3.org/Graphics/SVG/1.1/DTD/svg11.dtd">
<svg version="1.1" xmlns="http://www.w3.org/2000/svg" xmlns:xlink="http://www.w3.org/1999/xlink" x="0px" y="0px" width="64px"
	 height="64px" viewBox="0 0 64 64" style="enable-background:new 0 0 64 64;" xml:space="preserve">
<g id="skier">
	<path style="fill:#2CA4DE;stroke:#97D8E4;stroke-width:3;stroke-miterlimit:10;" d="M69.917,40.583
		c0,0-15.834,17.667-74.167,17.667v8.667h74.167V40.583z"/>
	<radialGradient id="SVGID_1_" cx="32.8335" cy="53.75" r="59.2507" gradientUnits="userSpaceOnUse">
		<stop  offset="0.0056" style="stop-color:#D4EFFC"/>
		<stop  offset="1" style="stop-color:#CEE3FF"/>
	</radialGradient>
	<path style="fill:url(#SVGID_1_);" d="M69.917,40.583c0,0-15.834,17.667-74.167,17.667v8.667h74.167V40.583z"/>
	<g id="person_x5F_golfing_x28_ye_x29__8_">
		
			<radialGradient id="path9_1_" cx="120.7285" cy="-403.8604" r="15.3452" gradientTransform="matrix(0.9803 -0.1976 -0.1976 -0.9803 -166.6951 -350.8506)" gradientUnits="userSpaceOnUse">
			<stop  offset="0" style="stop-color:#FF85B8"/>
			<stop  offset="0.5054" style="stop-color:#FF5B5B"/>
			<stop  offset="1" style="stop-color:#E1233C"/>
		</radialGradient>
		
			<path id="path9_18_" style="fill:url(#path9_1_);stroke:#231815;stroke-width:2;stroke-linecap:round;stroke-linejoin:round;stroke-miterlimit:10;" d="
			M32.618,25.001c0.225,0.116,4.307,2.253,6.031,5.045c0.09,0.271,0.197,0.55,0.342,0.844c0.665,1.33,1.431,2.164,2.215,2.677
			l0.004,0.014l0.009-0.006c2.498,1.625,5.158-0.076,5.158-0.076c-2.523-0.871-1.768-3.962-1.227-5.467
			c0.102-0.246,0.208-0.486,0.3-0.749c0.024-0.051,0.041-0.085,0.041-0.085c-0.003-0.01-0.005-0.017-0.006-0.022
			c0.863-2.485,1.744-5.877,0.885-9.772C44.626,9.499,35.975,4.658,27.899,6.285c-2.161,0.436-4.111,1.322-5.789,2.524
			c-0.001-0.001-0.003-0.001-0.003-0.001c-0.017,0.011-0.03,0.022-0.046,0.033c-0.178,0.129-0.35,0.263-0.521,0.398
			c-0.136,0.11-0.271,0.219-0.404,0.331c-0.145,0.123-0.29,0.245-0.429,0.374c-0.218,0.201-0.428,0.406-0.635,0.616
			c-0.095,0.099-0.187,0.197-0.279,0.297c-0.208,0.227-0.41,0.458-0.604,0.697c-0.031,0.039-0.068,0.075-0.099,0.115
			c-0.035,0.045-0.068,0.091-0.102,0.135c-0.018,0.021-0.034,0.049-0.05,0.071c-1.277,1.661-2.195,3.578-2.672,5.63
			c0,0.001-0.001,0.002-0.001,0.004l0,0c-0.337,1.46-0.456,2.987-0.314,4.54c2.648,1.111,7.105,2.143,13.473,0.86
			c0,0,1.883,2.313,2.419,3.317L32.618,25.001z"/>
		<g id="g142_70_">
			<path id="path34-7-5_603_" style="fill:none;stroke:#231815;stroke-width:2;stroke-miterlimit:10;" d="M36.37,40.063
				c-0.256-0.431-0.971-1.604-1.377-1.705c-0.406-0.103-0.775-0.117-0.775-0.117c-0.825-0.021-1.504,0.309-2.004,0.967
				c0,0-0.098,0.188-0.221,0.756c-0.092,0.411,0.232,1.482,0.312,2.063c0,0,1.131,3.744,2.057,7.711c0,0,1.935,0.865,4.097-0.176
				c2.16-1.047,2.678-3.105,2.678-3.105C38.602,43.271,36.37,40.063,36.37,40.063z"/>
			
				<ellipse id="ellipse18_22_" style="fill:none;stroke:#231815;stroke-width:2;stroke-miterlimit:10;" cx="37.667" cy="48.203" rx="3.619" ry="3.375"/>
			<path id="path20_26_" style="fill:#48140F;stroke:#231815;stroke-width:2;stroke-miterlimit:10;" d="M34.729,46.381
				c-1.52,2.309,0.068,7.064,2.044,9.803c1.972,2.736,3.38,2.34,3.138,0.508c-0.24-1.827-1.396-3.395,0.596-6.86
				C42.497,46.365,35.806,44.751,34.729,46.381z"/>
			<path id="path22_26_" style="fill:#48140F;stroke:#231815;stroke-width:2;stroke-miterlimit:10;" d="M35.934,58.262
				c-0.104-1.156,0.75-2.184,1.906-2.289c1.16-0.107,2.184,0.749,2.29,1.908L35.934,58.262z"/>
			<path id="path34-7-5_602_" style="fill:none;stroke:#231815;stroke-width:2;stroke-miterlimit:10;" d="M36.37,40.063
				c-0.311-0.448-1.063-1.678-1.472-1.781c-0.405-0.1-0.681-0.041-0.681-0.041c-0.826-0.021-1.104,0.854-1.606,1.511
				c0,0-0.097,0.188-0.22,0.758c-0.09,0.411-0.221,0.823-0.088,1.517c0,0,1.131,3.744,2.057,7.711c0,0,1.717,0.418,3.881-0.625
				c2.155-1.045,2.893-2.656,2.893-2.656C38.602,43.271,36.37,40.063,36.37,40.063z"/>
			<path style="fill:#C10D23;" d="M36.375,36.176c0,0,12.578-0.342,14.888-1.326c0,0,0.451,4.324-1.216,5.495
				c0,0-1.543,1.194-13.165-2.394L36.375,36.176z"/>
			<path id="path30-2_602_" style="fill:#48140F;stroke:#231815;stroke-width:2;stroke-miterlimit:10;" d="M38.175,40.93
				c1.388,0.264,2.383,0.645,3.173,2.522c0.313,1.103,1.262,0.378,1.262,0.378c2.026,0.176,1.229-1.129,1.321-1.924
				c0.093-0.799-2.225-2.789-5.561-2.834c-3.717,0.123-5.038,1.117-4.521,2C34.357,41.961,35.936,40.512,38.175,40.93z"/>
			<g id="g102_18_">
				<g id="g100_8_">
					<g id="g98_8_">
						<path id="path26_111_" style="fill:#F09400;stroke:#231815;stroke-width:1.5423;stroke-miterlimit:10;" d="M46.626,17.462
							c1.674,8.319-4.323,16.542-12.796,18.246c-8.47,1.704-16.691-3.651-18.367-11.971c-1.675-8.321,3.831-16.45,12.301-18.156
							C36.232,3.876,44.947,9.144,46.626,17.462z"/>
						<path id="path28_16_" style="fill:#48140F;" d="M45.912,17.605c1.596,7.937-4.146,15.779-12.221,17.403
							c-8.078,1.624-15.92-3.479-17.517-11.415c-1.598-7.934,3.653-15.687,11.729-17.313C35.978,4.655,44.313,9.671,45.912,17.605z"
							/>
						<path id="path30_53_" style="fill:#48140F;stroke:#231815;stroke-width:2.7816;stroke-miterlimit:10;" d="M41.663,24.375
							c1.355,6.734-3.201,11.45-9.642,13.072c-8.856,2.238-12.59-1.588-13.947-8.32c-1.354-6.735,2.826-13.262,9.337-14.572
							C33.924,13.24,40.304,17.642,41.663,24.375z"/>
						<path id="path34-7-5_601_" style="fill:#D9DADA;" d="M36.37,40.063c-0.256-0.431-0.971-1.604-1.377-1.705
							c-0.406-0.103-0.775-0.117-0.775-0.117c-0.825-0.021-1.504,0.309-2.004,0.967c0,0-0.098,0.188-0.221,0.756
							c-0.092,0.411,0.232,1.482,0.312,2.063c0,0,1.131,3.744,2.057,7.711c0,0,1.935,0.865,4.097-0.176
							c2.16-1.047,2.678-3.105,2.678-3.105C38.602,43.271,36.37,40.063,36.37,40.063z"/>
						
							<radialGradient id="polygon46_1_" cx="127.5566" cy="-421.4546" r="4.0058" gradientTransform="matrix(0.9002 -0.4354 -0.4354 -0.9002 -264.0879 -283.1779)" gradientUnits="userSpaceOnUse">
							<stop  offset="0" style="stop-color:#FEF1F6"/>
							<stop  offset="0.1271" style="stop-color:#FDE9EE"/>
							<stop  offset="0.3239" style="stop-color:#FAD5D8"/>
							<stop  offset="0.5658" style="stop-color:#F4B2B5"/>
							<stop  offset="0.8408" style="stop-color:#ED8384"/>
							<stop  offset="1" style="stop-color:#E86564"/>
						</radialGradient>
						<polygon id="polygon46_8_" style="fill:url(#polygon46_1_);" points="34.609,39.084 32.693,40.012 31.339,37.214 
							33.257,36.29 						"/>
						<ellipse id="ellipse48_10_" style="fill:#3E3A39;" cx="37.667" cy="48.203" rx="3.619" ry="3.375"/>
						<path id="path50_13_" style="fill:#3E3A39;" d="M34.729,46.381c-1.52,2.309,0.068,7.064,2.044,9.803
							c1.972,2.736,3.38,2.34,3.138,0.508c-0.24-1.827-1.396-3.395,0.596-6.86C42.497,46.365,35.806,44.751,34.729,46.381z"/>
						<path id="path52_72_" style="fill:#9C9C9D;" d="M35.934,58.262c-0.104-1.156,0.75-2.184,1.906-2.289
							c1.16-0.107,2.137-0.05,2.29,1.908L35.934,58.262z"/>
						<path id="path34-7-5_600_" style="fill:#036EB5;" d="M36.37,40.063c-0.311-0.448-0.964-1.678-1.372-1.781
							c-0.405-0.1-0.78-0.041-0.78-0.041c-0.67,0.347-1.257,0.249-1.759,0.906c0,0-0.21,0.159-0.333,0.729
							c-0.09,0.411-0.354,0.361-0.222,1.055c0,0,1.531,4.84,2.457,8.807c0,0,1.717,0.418,3.881-0.625
							c2.155-1.045,2.992-2.557,2.992-2.557C38.701,43.371,36.37,40.063,36.37,40.063z"/>
						
							<line style="fill:none;stroke:#231815;stroke-linecap:round;stroke-linejoin:round;stroke-miterlimit:10;" x1="38.19" y1="43.29" x2="58.708" y2="40.198"/>
						
							<line style="fill:none;stroke:#231815;stroke-linecap:round;stroke-linejoin:round;stroke-miterlimit:10;" x1="56.136" y1="39.128" x2="56.576" y2="41.97"/>
						
							<radialGradient id="path77_1_" cx="126.002" cy="-407.1431" r="22.0436" gradientTransform="matrix(0.9803 -0.1974 -0.1974 -0.9803 -174.1731 -348.2485)" gradientUnits="userSpaceOnUse">
							<stop  offset="0" style="stop-color:#FEF1F6"/>
							<stop  offset="0.1271" style="stop-color:#FDE9EE"/>
							<stop  offset="0.3239" style="stop-color:#FAD5D8"/>
							<stop  offset="0.5658" style="stop-color:#F4B2B5"/>
							<stop  offset="0.8408" style="stop-color:#ED8384"/>
							<stop  offset="1" style="stop-color:#E86564"/>
						</radialGradient>
						<path id="path77_12_" style="fill:url(#path77_1_);" d="M41.663,24.375c1.355,6.734-3.13,11.765-9.642,13.072
							c-6.512,1.311-12.082,0.93-13.947-8.32c-1.354-6.735,2.826-13.262,9.337-14.572C33.924,13.24,40.304,17.642,41.663,24.375z"/>
						
							<path id="path79_10_" style="fill:none;stroke:#A4414A;stroke-width:0.8345;stroke-linecap:round;stroke-linejoin:round;stroke-miterlimit:10;" d="
							M23.662,21.485c0,0-1.943-1.761-3.585,0.723"/>
						<path id="path81_13_" style="fill:#231815;" d="M32.323,25.571c0.227,0.115,4.309,2.254,6.033,5.046
							c0.088,0.271,0.197,0.549,0.342,0.84c0.665,1.332,1.433,2.164,2.216,2.678l0.006,0.012l0.006-0.004
							c2.497,1.623,5.158-0.076,5.158-0.076c-2.522-0.874-1.767-3.963-1.227-5.467c0.103-0.246,0.208-0.486,0.303-0.75
							c0.023-0.05,0.037-0.084,0.037-0.084c0-0.01-0.003-0.019-0.005-0.024c0.865-2.483,1.746-5.874,0.888-9.771
							C44.334,10.066,35.682,5.225,27.607,6.852c-2.163,0.436-4.113,1.32-5.791,2.523c-0.001-0.001-0.003,0-0.004,0
							c-0.015,0.01-0.028,0.022-0.044,0.033c-0.179,0.128-0.351,0.263-0.521,0.399c-0.138,0.109-0.271,0.218-0.405,0.33
							c-0.145,0.122-0.289,0.244-0.429,0.373c-0.218,0.2-0.429,0.406-0.634,0.617c-0.096,0.098-0.188,0.197-0.279,0.296
							c-0.209,0.226-0.411,0.46-0.604,0.697c-0.031,0.039-0.068,0.075-0.099,0.115c-0.036,0.045-0.067,0.09-0.103,0.135
							c-0.018,0.022-0.032,0.048-0.049,0.071c-1.278,1.661-2.196,3.579-2.672,5.63c0,0.002-0.001,0.003-0.001,0.003l0,0
							c-0.338,1.463-0.457,2.99-0.315,4.542c2.649,1.112,7.105,2.144,13.474,0.858c0,0,1.884,2.314,2.419,3.319L32.323,25.571z"/>
						
							<radialGradient id="path96_1_" cx="120.4814" cy="-403.8599" r="15.2222" gradientTransform="matrix(0.9803 -0.1976 -0.1976 -0.9803 -166.6951 -350.8506)" gradientUnits="userSpaceOnUse">
							<stop  offset="0" style="stop-color:#F1E1B2"/>
							<stop  offset="0.3798" style="stop-color:#DBB242"/>
							<stop  offset="0.6854" style="stop-color:#B88700"/>
							<stop  offset="0.8418" style="stop-color:#9E6C2A"/>
							<stop  offset="1" style="stop-color:#754312"/>
						</radialGradient>
						<path id="path96_17_" style="fill:url(#path96_1_);" d="M32.618,25.001c0.225,0.116,4.307,2.253,6.031,5.045
							c0.09,0.271,0.197,0.55,0.342,0.844c0.665,1.33,1.431,2.164,2.215,2.677l0.004,0.014l0.009-0.006
							c2.498,1.625,5.158-0.076,5.158-0.076c-2.523-0.871-1.768-3.962-1.227-5.467c0.102-0.246,0.208-0.486,0.3-0.749
							c0.024-0.051,0.041-0.085,0.041-0.085c-0.003-0.01-0.005-0.017-0.006-0.022c0.863-2.485,1.282-5.676,0.421-9.57
							C44.162,9.702,35.975,4.658,27.898,6.284c-2.161,0.435-4.11,1.322-5.788,2.524c-0.002-0.001-0.004-0.002-0.004-0.002
							c-0.017,0.011-0.03,0.023-0.045,0.033c-0.179,0.129-0.351,0.264-0.521,0.399c-0.136,0.109-0.271,0.219-0.405,0.331
							c-0.146,0.123-0.29,0.245-0.429,0.374c-0.218,0.201-0.428,0.406-0.635,0.616c-0.094,0.098-0.187,0.197-0.279,0.296
							c-0.208,0.227-0.409,0.459-0.604,0.697c-0.031,0.04-0.067,0.076-0.098,0.115c-0.035,0.045-0.069,0.091-0.103,0.136
							c-0.018,0.021-0.033,0.049-0.05,0.071c-1.276,1.661-2.195,3.578-2.671,5.63c-0.001,0.001-0.001,0.002-0.002,0.004l0,0
							c-0.337,1.459-0.456,2.988-0.314,4.54c2.648,1.111,7.105,2.143,13.474,0.859c0,0,1.882,2.314,2.417,3.318L32.618,25.001z"/>
					</g>
				</g>
			</g>
			<g id="g213_338_">
				
					<linearGradient id="path117_1_" gradientUnits="userSpaceOnUse" x1="244.5947" y1="478.9004" x2="248.4277" y2="478.9004" gradientTransform="matrix(0.9803 -0.1974 0.1974 0.9803 -309.1148 -390.2747)">
					<stop  offset="0" style="stop-color:#FFA67F"/>
					<stop  offset="0.0969" style="stop-color:#FF967B"/>
					<stop  offset="0.3655" style="stop-color:#FF7170"/>
					<stop  offset="0.6143" style="stop-color:#FF5568"/>
					<stop  offset="0.8336" style="stop-color:#FF4564"/>
					<stop  offset="1" style="stop-color:#FF3F62"/>
				</linearGradient>
				<path id="path117_39_" style="fill:url(#path117_1_);" d="M28.954,30.151c-0.122-0.602-1.06-0.921-2.101-0.711
					c-1.036,0.207-1.779,0.867-1.656,1.473c0.121,0.6,1.061,0.919,2.096,0.711C28.332,31.413,29.076,30.753,28.954,30.151z"/>
			</g>
			<path id="path123_203_" style="fill:#C30D23;" d="M23.571,34.111c-0.129,0.279-0.964,0.955-2.054,1.316
				c0.254,0.201,0.514,0.389,0.783,0.564c1.219-0.441,2.092-1.074,2.18-1.503c0.055-0.26,0.002-0.523-0.25-0.628
				C23.981,33.757,23.686,33.869,23.571,34.111z"/>
			<path style="fill:none;stroke:#160201;stroke-width:3;stroke-miterlimit:10;" d="M28.375,24.625l18.5-4.125L28.375,24.625z"/>
			<path id="path125_84_" style="fill:#231815;" d="M37.378,26.052c0.06,1.703-1.076,3.125-2.537,3.173
				c-1.46,0.052-2.688-1.285-2.748-2.989c-0.059-1.701,1.079-3.117,2.535-3.172C36.09,23.017,37.321,24.354,37.378,26.052z"/>
			
				<radialGradient id="path132_1_" cx="197.5557" cy="-391.3418" r="5.2762" gradientTransform="matrix(0.9995 -0.0347 -0.0347 -0.9995 -178.5005 -357.0906)" gradientUnits="userSpaceOnUse">
				<stop  offset="0" style="stop-color:#FEF1F6"/>
				<stop  offset="0.1271" style="stop-color:#FDE9EE"/>
				<stop  offset="0.3239" style="stop-color:#FAD5D8"/>
				<stop  offset="0.5658" style="stop-color:#F4B2B5"/>
				<stop  offset="0.8408" style="stop-color:#ED8384"/>
				<stop  offset="1" style="stop-color:#E86564"/>
			</radialGradient>
			<path id="path132_14_" style="fill:url(#path132_1_);" d="M36.345,26.548c0.048,1.432-0.906,2.628-2.136,2.671
				c-1.229,0.041-2.263-1.083-2.313-2.517c-0.048-1.432,0.909-2.624,2.136-2.667C35.261,23.991,36.295,25.116,36.345,26.548z"/>
			<path style="fill:#0B308C;" d="M36.37,40.063c-0.088-0.127-0.213-0.318-0.354-0.527c-1.884,0.05-2.384,0.376-2.135,1.096
				c0.286,0.824,1.596,0.519,3.373,0.677C36.703,40.541,36.37,40.063,36.37,40.063z"/>
			<path id="path30-2_601_" style="fill:#036EB5;" d="M38.175,40.93c1.388,0.264,2.383,0.645,3.173,2.522
				c0.313,1.103,1.262,0.378,1.262,0.378c2.026,0.176,1.229-1.129,1.321-1.924c0.093-0.799-2.225-2.789-5.561-2.834
				c-3.825-0.16-4.821,0.101-4.489,1.059C34.215,41.092,35.936,40.512,38.175,40.93z"/>
		</g>
		
			<radialGradient id="polygon207_1_" cx="307.2715" cy="-336.959" r="3.0223" gradientTransform="matrix(1 0 0 -1 -274 -298)" gradientUnits="userSpaceOnUse">
			<stop  offset="0" style="stop-color:#E5E2DF"/>
			<stop  offset="0" style="stop-color:#F1EFEE"/>
			<stop  offset="0" style="stop-color:#FFFFFF"/>
			<stop  offset="0.2292" style="stop-color:#FBFBFB"/>
			<stop  offset="0.4468" style="stop-color:#F0F0F0"/>
			<stop  offset="0.6598" style="stop-color:#DDDDDE"/>
			<stop  offset="0.8686" style="stop-color:#C2C3C4"/>
			<stop  offset="1" style="stop-color:#ADAEB0"/>
		</radialGradient>
		<polygon id="polygon207_11_" style="fill:url(#polygon207_1_);" points="31.813,38.917 31.979,40.584 34.729,38.084 
			34.146,37.334 		"/>
	</g>
	<g id="Layer_1_143_">
	</g>
	<path style="fill:#C10D23;stroke:#231815;stroke-width:2;stroke-linecap:round;stroke-linejoin:round;stroke-miterlimit:10;" d="
		M28.884,38.968l8.199-2.334c0,0-0.416-0.468,0.417,0.699s0.435,0.769,0.435,0.769S33,39.75,31.625,41c0,0-1,1.375-1.75-0.25
		S28.884,38.968,28.884,38.968z"/>
	<path style="fill:#C10D23;" d="M28.884,38.968l8.199-2.334c0,0-0.416-0.468,0.417,0.699s0.435,0.769,0.435,0.769
		S33,39.75,31.625,41c0,0-1,1.375-1.75-0.25S28.884,38.968,28.884,38.968z"/>
	<path style="fill:#3E3A39;" d="M43.931,41.906c0.043-0.368-0.443-0.985-1.286-1.553l-1.865,2.052
		c0.2,0.287,0.391,0.624,0.568,1.047c0.313,1.103,1.262,0.378,1.262,0.378C44.636,44.006,43.839,42.701,43.931,41.906z"/>
	<path style="fill:none;stroke:#C10D23;stroke-width:2;stroke-miterlimit:10;" d="M22.517,58.127c0,0,1.145,2.813,5.215,2.486
		c14.454-1.163,25.252-2.031,25.252-2.031"/>
	<linearGradient id="SVGID_2_" gradientUnits="userSpaceOnUse" x1="16.875" y1="27.8525" x2="28.9468" y2="27.8525">
		<stop  offset="0" style="stop-color:#2BC4F3"/>
		<stop  offset="0.5" style="stop-color:#00AEEE"/>
		<stop  offset="1" style="stop-color:#0095DA"/>
	</linearGradient>
	<path style="fill:url(#SVGID_2_);" d="M18.75,32.125c0,0,7.687,1.77,9.563-2.063c1.438-2.938,0.438-6.188-3.063-6.813
		S16.875,26,16.875,26L18.75,32.125z"/>
	<path style="fill:none;stroke:#231815;stroke-width:2;stroke-linecap:round;stroke-linejoin:round;stroke-miterlimit:10;" d="
		M18.75,32.125c0,0,7.687,1.77,9.563-2.063c1.438-2.938,0.438-6.188-3.063-6.813S16.875,26,16.875,26L18.75,32.125z"/>
	<g id="g213_337_">
		<path id="path209_209_" style="fill:#160201;" d="M25.079,28.083c0.336,1.671-0.247,3.199-1.301,3.412
			c-1.059,0.212-2.184-0.971-2.521-2.643c-0.336-1.681,0.242-3.207,1.298-3.422C23.61,25.219,24.742,26.404,25.079,28.083z"/>
		<path id="path211_162_" style="fill:#FFFFFF;" d="M24.163,26.638c0.091,0.452-0.201,0.891-0.657,0.982
			c-0.451,0.09-0.891-0.2-0.98-0.652c-0.092-0.453,0.198-0.894,0.652-0.984C23.632,25.891,24.071,26.187,24.163,26.638z"/>
	</g>
	
		<ellipse transform="matrix(0.9547 -0.2975 0.2975 0.9547 -12.6367 19.9869)" style="fill:#F5F5F5;" cx="59.333" cy="51.501" rx="2.667" ry="1.083"/>
	
		<ellipse transform="matrix(0.9841 -0.1777 0.1777 0.9841 -9.1898 11.0628)" style="fill:#F5F5F5;" cx="57.166" cy="56.835" rx="1.921" ry="0.779"/>
</g>
<g id="Layer_1">
</g>
</svg>
