<?xml version="1.0" encoding="utf-8"?>
<!-- Generator: Adobe Illustrator 15.0.2, SVG Export Plug-In . SVG Version: 6.00 Build 0)  -->
<!DOCTYPE svg PUBLIC "-//W3C//DTD SVG 1.1//EN" "http://www.w3.org/Graphics/SVG/1.1/DTD/svg11.dtd">
<svg version="1.1" id="レイヤー_1" xmlns="http://www.w3.org/2000/svg" xmlns:xlink="http://www.w3.org/1999/xlink" x="0px"
	 y="0px" width="64px" height="64px" viewBox="0 0 64 64" enable-background="new 0 0 64 64" xml:space="preserve">
<g>
	<g>
		<path fill="#054CE8" d="M15.208,60.728H5.158v-1.94l5.407-7.895h-3.74c-0.523,0-1.024,0.021-1.5,0.066v-2.392h9.717v1.739
			l-5.454,7.979h4.263c0.556,0,1.008-0.017,1.357-0.05V60.728z"/>
	</g>
	<g>
		<path fill="#054CE8" d="M59.553,31.461H35.167v-4.707L48.285,7.601h-9.073c-1.271,0-2.484,0.052-3.641,0.161V1.959h23.575V6.18
			L45.915,25.536h10.344c1.348,0,2.442-0.04,3.294-0.121V31.461z"/>
	</g>
	<g>
		<path fill="#054CE8" d="M30.896,43.972H16.041v-2.868l7.991-11.667h-5.527c-0.774,0-1.513,0.032-2.218,0.098V26h14.361v2.57
			l-8.061,11.792h6.301c0.82,0,1.487-0.025,2.007-0.073V43.972z"/>
	</g>
</g>
</svg>
