<?xml version="1.0" encoding="utf-8"?>
<!-- Generator: Adobe Illustrator 15.0.0, SVG Export Plug-In . SVG Version: 6.00 Build 0)  -->
<!DOCTYPE svg PUBLIC "-//W3C//DTD SVG 1.1//EN" "http://www.w3.org/Graphics/SVG/1.1/DTD/svg11.dtd">
<svg version="1.1" id="レイヤー_1" xmlns="http://www.w3.org/2000/svg" xmlns:xlink="http://www.w3.org/1999/xlink" x="0px"
	 y="0px" width="64px" height="64px" viewBox="0 0 64 64" style="enable-background:new 0 0 64 64;" xml:space="preserve">
<g>
	<linearGradient id="SVGID_1_" gradientUnits="userSpaceOnUse" x1="17.2114258" y1="-0.6894531" x2="42.2179298" y2="65.2789917">
		<stop  offset="0" style="stop-color:#3F1A07"/>
		<stop  offset="0.6526568" style="stop-color:#2B0E03"/>
		<stop  offset="1" style="stop-color:#1E0601"/>
	</linearGradient>
	<circle style="fill:url(#SVGID_1_);" cx="30.0864258" cy="33.2763672" r="26.6430664"/>
	<g>
		<polygon style="fill:#FF6490;" points="11.0834961,35.9833984 9.7402344,34.3994141 7.8730469,35.9833984 6.5297852,34.3994141 
			4.2416992,36.3398438 7.1616211,39.7822266 9.0292969,38.1982422 10.3725586,39.7822266 12.2392578,38.1982422 
			13.5825195,39.7822266 15.8706055,37.8417969 12.9506836,34.3994141 		"/>
		<polygon style="fill:#FF6490;" points="56.6738281,37.8408203 53.7539063,34.3994141 51.8876953,35.9833984 
			50.5419922,34.3994141 48.6767578,35.9824219 47.3330078,34.3994141 45.0458984,36.3398438 47.9658203,39.78125 
			49.8320313,38.1982422 51.1767578,39.7822266 53.0429688,38.1982422 54.3867188,39.78125 		"/>
	</g>
	<path style="fill:#6B1D05;" d="M30.0878906,60.2734375c-14.8867188,0-26.9980469-12.1103516-26.9980469-26.9970703
		c0-14.8857422,12.1113281-26.9960938,26.9980469-26.9960938c14.8857422,0,26.9960938,12.1103516,26.9960938,26.9960938
		C57.0839844,48.1630859,44.9736328,60.2734375,30.0878906,60.2734375z M30.0878906,8.5810547
		c-13.6181641,0-24.6972656,11.0786133-24.6972656,24.6953125c0,13.6171875,11.0791016,24.6962891,24.6972656,24.6962891
		c13.6171875,0,24.6953125-11.0791016,24.6953125-24.6962891C54.7832031,19.659668,43.7050781,8.5810547,30.0878906,8.5810547z"/>
	<path style="fill:#541715;" d="M30.0869141,61.0693359c-15.3256836,0-27.7939453-12.4677734-27.7939453-27.7929688
		c0-15.324707,12.4682617-27.7919922,27.7939453-27.7919922c15.3251953,0,27.7929688,12.4672852,27.7929688,27.7919922
		C57.8798828,48.6015625,45.4121094,61.0693359,30.0869141,61.0693359z M30.0869141,7.7851563
		c-14.0566406,0-25.4931641,11.4355469-25.4931641,25.4912109c0,14.0566406,11.4365234,25.4921875,25.4931641,25.4921875
		s25.4921875-11.4355469,25.4921875-25.4921875C55.5791016,19.2207031,44.1435547,7.7851563,30.0869141,7.7851563z"/>
	<path style="fill:#C69C6D;" d="M16.8300781,33.1699219c-2.2963867,0-4.4697266-0.8212891-6.0825195-2.046875l1.8154297-2.3886719
		c1.5703125,1.1933594,5.4174805,2.6538086,8.7407227-0.3608398l2.015625,2.2216797
		C21.296875,32.4296875,19.0083008,33.1699219,16.8300781,33.1699219z"/>
	<path style="fill:#FF9F9F;" d="M30.0869141,56.5117188c-4.0092773,0-7.2714844-3.2626953-7.2714844-7.2734375
		c0-4.0097656,3.262207-7.2714844,7.2714844-7.2714844c4.0097656,0,7.2714844,3.2617188,7.2714844,7.2714844
		C37.3583984,53.2490234,34.0966797,56.5117188,30.0869141,56.5117188z M30.0869141,44.9667969
		c-2.3554688,0-4.2714844,1.9160156-4.2714844,4.2714844c0,2.3564453,1.9160156,4.2734375,4.2714844,4.2734375
		s4.2714844-1.9169922,4.2714844-4.2734375C34.3583984,46.8828125,32.4423828,44.9667969,30.0869141,44.9667969z"/>
	<path style="fill:#C69C6D;" d="M41.7246094,33.6171875c-2.2958984,0-4.4697266-0.8212891-6.0830078-2.046875l1.8144531-2.3886719
		c1.5722656,1.1928711,5.4199219,2.6533203,8.7421875-0.3608398l2.015625,2.2216797
		C46.1914063,32.8769531,43.9033203,33.6171875,41.7246094,33.6171875z"/>
	<g>
		<path style="fill:#3590CF;" d="M34.0976563,20.6484375c0,0.3037109-0.0722656,0.5566406-0.2119141,0.7587891
			c-0.1748047,0.2353516-0.421875,0.3535156-0.7392578,0.3535156h-5.609375c-0.7753906,0-1.1621094-0.4082031-1.1621094-1.2236328
			c0-0.2294922,0.1328125-0.4951172,0.4042969-0.7978516l3.3046875-3.75h-2.4355469
			c-0.3164063,0-0.5634766-0.1142578-0.7382813-0.3427734c-0.1552734-0.2041016-0.2314453-0.4560547-0.2314453-0.7587891
			c0-0.3232422,0.0859375-0.5898438,0.2626953-0.7988281c0.1621094-0.2089844,0.4042969-0.3134766,0.7275391-0.3134766h4.6914063
			c0.8730469,0,1.3095703,0.421875,1.3095703,1.2636719c0,0.2822266-0.1308594,0.5761719-0.4023438,0.8789063l-3.2041016,3.6191406
			h3.1357422c0.3144531,0,0.5517578,0.1210938,0.7050781,0.3642578
			C34.0322266,20.1025391,34.0976563,20.3525391,34.0976563,20.6484375z"/>
	</g>
	<g>
		<path style="fill:#2E7AA1;" d="M44.4345703,15.3613281c0,0.4873047-0.1152344,0.8935547-0.3398438,1.2177734
			c-0.2802734,0.3779297-0.6767578,0.5673828-1.1855469,0.5673828h-9.0048828c-1.2431641,0-1.8652344-0.65625-1.8652344-1.9628906
			c0-0.3681641,0.2148438-0.7949219,0.6503906-1.28125l5.3037109-6.0195313h-3.9082031
			c-0.5087891,0-0.9033203-0.1835938-1.1855469-0.5517578c-0.2490234-0.3242188-0.3720703-0.7304688-0.3720703-1.2158203
			c0-0.5195313,0.1386719-0.9462891,0.4208984-1.2822266c0.2617188-0.3349609,0.6503906-0.5029297,1.1679688-0.5029297h7.5273438
			c1.4042969,0,2.1083984,0.6757813,2.1083984,2.0273438c0,0.4541016-0.2158203,0.9257813-0.6474609,1.4121094l-5.1445313,5.8085938
			h5.0322266c0.5048828,0,0.8837891,0.1933594,1.1318359,0.5830078
			C44.3320313,14.4853516,44.4345703,14.8867188,44.4345703,15.3613281z"/>
	</g>
	<g>
		<path style="fill:#3853A0;" d="M61.7070313,18.7568359c0,0.6982422-0.1650391,1.2802734-0.4892578,1.7451172
			c-0.4023438,0.5429688-0.9697266,0.8154297-1.7001953,0.8154297H46.6025391c-1.7861328,0-2.6767578-0.9394531-2.6767578-2.8164063
			c0-0.5273438,0.3076172-1.1396484,0.9296875-1.8388672l7.6142578-8.6347656h-5.6113281
			c-0.7285156,0-1.2949219-0.2626953-1.6972656-0.7900391c-0.3603516-0.4658203-0.5380859-1.0488281-0.5380859-1.7470703
			c0-0.7441406,0.2011719-1.3564453,0.6054688-1.8378906c0.3759766-0.4804688,0.9326172-0.7216797,1.6777344-0.7216797h10.796875
			c2.0175781,0,3.0244141,0.9697266,3.0244141,2.9091797c0,0.6523438-0.3085938,1.3271484-0.9287109,2.0253906l-7.3789063,8.3310547
			h7.2167969c0.7265625,0,1.2724609,0.2792969,1.6279297,0.8378906C61.5605469,17.5,61.7070313,18.0742188,61.7070313,18.7568359z"
			/>
	</g>
</g>
</svg>
