<?xml version="1.0" encoding="utf-8"?>
<!-- Generator: Adobe Illustrator 15.0.2, SVG Export Plug-In . SVG Version: 6.00 Build 0)  -->
<!DOCTYPE svg PUBLIC "-//W3C//DTD SVG 1.1//EN" "http://www.w3.org/Graphics/SVG/1.1/DTD/svg11.dtd">
<svg version="1.1" id="レイヤー_1" xmlns="http://www.w3.org/2000/svg" xmlns:xlink="http://www.w3.org/1999/xlink" x="0px"
	 y="0px" width="64px" height="64px" viewBox="0 0 64 64" enable-background="new 0 0 64 64" xml:space="preserve">
<g>
	<g>
		<linearGradient id="SVGID_1_" gradientUnits="userSpaceOnUse" x1="13.6792" y1="12.5693" x2="13.6792" y2="51.333">
			<stop  offset="0" style="stop-color:#2E2E2E"/>
			<stop  offset="0.0015" style="stop-color:#313131"/>
			<stop  offset="0.0298" style="stop-color:#5C5C5C"/>
			<stop  offset="0.0602" style="stop-color:#828282"/>
			<stop  offset="0.0939" style="stop-color:#A4A4A4"/>
			<stop  offset="0.1307" style="stop-color:#C0C0C0"/>
			<stop  offset="0.1716" style="stop-color:#D7D7D7"/>
			<stop  offset="0.2185" style="stop-color:#E9E9E9"/>
			<stop  offset="0.2749" style="stop-color:#F6F6F6"/>
			<stop  offset="0.3507" style="stop-color:#FDFDFD"/>
			<stop  offset="0.5273" style="stop-color:#FFFFFF"/>
			<stop  offset="0.6594" style="stop-color:#FDFDFD"/>
			<stop  offset="0.7279" style="stop-color:#F5F5F5"/>
			<stop  offset="0.7818" style="stop-color:#E8E8E8"/>
			<stop  offset="0.8281" style="stop-color:#D4D4D4"/>
			<stop  offset="0.8694" style="stop-color:#BCBCBC"/>
			<stop  offset="0.9073" style="stop-color:#9D9D9D"/>
			<stop  offset="0.9426" style="stop-color:#797979"/>
			<stop  offset="0.9749" style="stop-color:#505050"/>
			<stop  offset="1" style="stop-color:#2B2B2B"/>
		</linearGradient>
		
			<rect x="4.519" y="12.125" fill="url(#SVGID_1_)" stroke="#FFC306" stroke-width="2" stroke-miterlimit="10" width="18.32" height="39.75"/>
		<linearGradient id="SVGID_2_" gradientUnits="userSpaceOnUse" x1="31.9995" y1="12.5693" x2="31.9995" y2="51.333">
			<stop  offset="0" style="stop-color:#2E2E2E"/>
			<stop  offset="0.0015" style="stop-color:#313131"/>
			<stop  offset="0.0298" style="stop-color:#5C5C5C"/>
			<stop  offset="0.0602" style="stop-color:#828282"/>
			<stop  offset="0.0939" style="stop-color:#A4A4A4"/>
			<stop  offset="0.1307" style="stop-color:#C0C0C0"/>
			<stop  offset="0.1716" style="stop-color:#D7D7D7"/>
			<stop  offset="0.2185" style="stop-color:#E9E9E9"/>
			<stop  offset="0.2749" style="stop-color:#F6F6F6"/>
			<stop  offset="0.3507" style="stop-color:#FDFDFD"/>
			<stop  offset="0.5273" style="stop-color:#FFFFFF"/>
			<stop  offset="0.6594" style="stop-color:#FDFDFD"/>
			<stop  offset="0.7279" style="stop-color:#F5F5F5"/>
			<stop  offset="0.7818" style="stop-color:#E8E8E8"/>
			<stop  offset="0.8281" style="stop-color:#D4D4D4"/>
			<stop  offset="0.8694" style="stop-color:#BCBCBC"/>
			<stop  offset="0.9073" style="stop-color:#9D9D9D"/>
			<stop  offset="0.9426" style="stop-color:#797979"/>
			<stop  offset="0.9749" style="stop-color:#505050"/>
			<stop  offset="1" style="stop-color:#2B2B2B"/>
		</linearGradient>
		
			<rect x="22.839" y="12.125" fill="url(#SVGID_2_)" stroke="#FFC306" stroke-width="2" stroke-miterlimit="10" width="18.321" height="39.75"/>
		<linearGradient id="SVGID_3_" gradientUnits="userSpaceOnUse" x1="50.3203" y1="12.5693" x2="50.3203" y2="51.333">
			<stop  offset="0" style="stop-color:#2E2E2E"/>
			<stop  offset="0.0015" style="stop-color:#313131"/>
			<stop  offset="0.0298" style="stop-color:#5C5C5C"/>
			<stop  offset="0.0602" style="stop-color:#828282"/>
			<stop  offset="0.0939" style="stop-color:#A4A4A4"/>
			<stop  offset="0.1307" style="stop-color:#C0C0C0"/>
			<stop  offset="0.1716" style="stop-color:#D7D7D7"/>
			<stop  offset="0.2185" style="stop-color:#E9E9E9"/>
			<stop  offset="0.2749" style="stop-color:#F6F6F6"/>
			<stop  offset="0.3507" style="stop-color:#FDFDFD"/>
			<stop  offset="0.5273" style="stop-color:#FFFFFF"/>
			<stop  offset="0.6594" style="stop-color:#FDFDFD"/>
			<stop  offset="0.7279" style="stop-color:#F5F5F5"/>
			<stop  offset="0.7818" style="stop-color:#E8E8E8"/>
			<stop  offset="0.8281" style="stop-color:#D4D4D4"/>
			<stop  offset="0.8694" style="stop-color:#BCBCBC"/>
			<stop  offset="0.9073" style="stop-color:#9D9D9D"/>
			<stop  offset="0.9426" style="stop-color:#797979"/>
			<stop  offset="0.9749" style="stop-color:#505050"/>
			<stop  offset="1" style="stop-color:#2B2B2B"/>
		</linearGradient>
		
			<rect x="41.16" y="12.125" fill="url(#SVGID_3_)" stroke="#FFC306" stroke-width="2" stroke-miterlimit="10" width="18.32" height="39.75"/>
	</g>
	<g>
		
			<rect x="4.519" y="12.125" fill="none" stroke="#D3AA00" stroke-width="0.5" stroke-miterlimit="10" width="18.32" height="39.75"/>
		
			<rect x="22.839" y="12.125" fill="none" stroke="#D3AA00" stroke-width="0.5" stroke-miterlimit="10" width="18.321" height="39.75"/>
		
			<rect x="41.16" y="12.125" fill="none" stroke="#D3AA00" stroke-width="0.5" stroke-miterlimit="10" width="18.32" height="39.75"/>
	</g>
	<g>
		<g>
			<path fill="#ED1429" d="M30.289,33.766c0.42-0.758,0.239-1.221-0.12-1.387c0.6-0.056,1.08-0.186,1.08-0.426
				c0-0.129-0.119-0.259-0.66-0.406c0.541-0.093,1.08-0.389,1.44-1.092l1.682-3.182c0.42-0.813,0.301-0.925-1.562-0.925
				c-2.16,0-2.341,0.111-2.341,0.703v0.962c0,0.629,0.24,0.832,0.601,0.98c-1.44,0.222-2.161,0.37-2.161,1.517h-0.42
				c0-1.146-0.48-1.313-2.041-1.498c0.36-0.186,0.48-0.389,0.48-0.999v-1.609c0-0.814-0.18-1.055-0.541-1.185
				c0.601,0,1.381-0.203,1.562-0.351c0.18,0.092,1.08,0.259,1.5,0.259c0.661,0,1.081-0.056,1.561-0.111
				c0.541-0.056,1.141-0.074,2.041-0.074c0.841,0,1.442,0.037,1.923,0.074c0.539,0.037,0.959,0.111,1.379,0.111
				c0.602,0,1.441-0.111,1.74-0.186c0.182,0.167,0.48,0.277,1.021,0.277l-2.221,5.272c-0.24,0.573-0.061,0.98,0.301,1.165
				c-0.602,0.074-0.961,0.167-0.961,0.352c0,0.148,0.24,0.24,0.66,0.352c-0.48,0.185-1.201,0.795-1.561,1.701l-1.563,3.774
				c-0.059,0.167,0.121,0.24,0.301,0.24s0.422-0.056,0.541-0.203l0.42-0.611h0.422l-0.662,1.647c-0.66,0-1.441,0.056-1.861,0.222
				c-0.24-0.074-0.72-0.11-1.14-0.148c-0.48-0.018-0.961-0.037-1.381-0.037c-0.721,0-1.801,0.056-2.461,0.186
				c-0.24-0.186-0.9-0.314-1.741-0.314l1.501-1.572h0.42l-0.24,0.665c-0.06,0.148,0.12,0.204,0.36,0.204s0.42-0.056,0.54-0.24
				L30.289,33.766z"/>
		</g>
		<g>
			<path fill="none" stroke="#E30012" stroke-width="1.5414" d="M30.289,33.766c0.42-0.758,0.239-1.221-0.12-1.387
				c0.6-0.056,1.08-0.186,1.08-0.426c0-0.129-0.119-0.259-0.66-0.406c0.541-0.093,1.08-0.389,1.44-1.092l1.682-3.182
				c0.42-0.813,0.301-0.925-1.562-0.925c-2.16,0-2.341,0.111-2.341,0.703v0.962c0,0.629,0.24,0.832,0.601,0.98
				c-1.44,0.222-2.161,0.37-2.161,1.517h-0.42c0-1.146-0.48-1.313-2.041-1.498c0.36-0.186,0.48-0.389,0.48-0.999v-1.609
				c0-0.814-0.18-1.055-0.541-1.185c0.601,0,1.381-0.203,1.562-0.351c0.18,0.092,1.08,0.259,1.5,0.259
				c0.661,0,1.081-0.056,1.561-0.111c0.541-0.056,1.141-0.074,2.041-0.074c0.841,0,1.442,0.037,1.923,0.074
				c0.539,0.037,0.959,0.111,1.379,0.111c0.602,0,1.441-0.111,1.74-0.186c0.182,0.167,0.48,0.277,1.021,0.277l-2.221,5.272
				c-0.24,0.573-0.061,0.98,0.301,1.165c-0.602,0.074-0.961,0.167-0.961,0.352c0,0.148,0.24,0.24,0.66,0.352
				c-0.48,0.185-1.201,0.795-1.561,1.701l-1.563,3.774c-0.059,0.167,0.121,0.24,0.301,0.24s0.422-0.056,0.541-0.203l0.42-0.611
				h0.422l-0.662,1.647c-0.66,0-1.441,0.056-1.861,0.222c-0.24-0.074-0.72-0.11-1.14-0.148c-0.48-0.018-0.961-0.037-1.381-0.037
				c-0.721,0-1.801,0.056-2.461,0.186c-0.24-0.186-0.9-0.314-1.741-0.314l1.501-1.572h0.42l-0.24,0.665
				c-0.06,0.148,0.12,0.204,0.36,0.204s0.42-0.056,0.54-0.24L30.289,33.766z"/>
		</g>
		<g>
			<path fill="none" stroke="#FFFFFF" stroke-width="0.7707" d="M30.289,33.766c0.42-0.758,0.239-1.221-0.12-1.387
				c0.6-0.056,1.08-0.186,1.08-0.426c0-0.129-0.119-0.259-0.66-0.406c0.541-0.093,1.08-0.389,1.44-1.092l1.682-3.182
				c0.42-0.813,0.301-0.925-1.562-0.925c-2.16,0-2.341,0.111-2.341,0.703v0.962c0,0.629,0.24,0.832,0.601,0.98
				c-1.44,0.222-2.161,0.37-2.161,1.517h-0.42c0-1.146-0.48-1.313-2.041-1.498c0.36-0.186,0.48-0.389,0.48-0.999v-1.609
				c0-0.814-0.18-1.055-0.541-1.185c0.601,0,1.381-0.203,1.562-0.351c0.18,0.092,1.08,0.259,1.5,0.259
				c0.661,0,1.081-0.056,1.561-0.111c0.541-0.056,1.141-0.074,2.041-0.074c0.841,0,1.442,0.037,1.923,0.074
				c0.539,0.037,0.959,0.111,1.379,0.111c0.602,0,1.441-0.111,1.74-0.186c0.182,0.167,0.48,0.277,1.021,0.277l-2.221,5.272
				c-0.24,0.573-0.061,0.98,0.301,1.165c-0.602,0.074-0.961,0.167-0.961,0.352c0,0.148,0.24,0.24,0.66,0.352
				c-0.48,0.185-1.201,0.795-1.561,1.701l-1.563,3.774c-0.059,0.167,0.121,0.24,0.301,0.24s0.422-0.056,0.541-0.203l0.42-0.611
				h0.422l-0.662,1.647c-0.66,0-1.441,0.056-1.861,0.222c-0.24-0.074-0.72-0.11-1.14-0.148c-0.48-0.018-0.961-0.037-1.381-0.037
				c-0.721,0-1.801,0.056-2.461,0.186c-0.24-0.186-0.9-0.314-1.741-0.314l1.501-1.572h0.42l-0.24,0.665
				c-0.06,0.148,0.12,0.204,0.36,0.204s0.42-0.056,0.54-0.24L30.289,33.766z"/>
		</g>
		<g>
			<linearGradient id="SVGID_4_" gradientUnits="userSpaceOnUse" x1="29.5522" y1="22.0566" x2="33.695" y2="38.9167">
				<stop  offset="0" style="stop-color:#FF9FBE"/>
				<stop  offset="0.1053" style="stop-color:#FA84A5"/>
				<stop  offset="0.3297" style="stop-color:#EC4065"/>
				<stop  offset="0.5273" style="stop-color:#DF0028"/>
				<stop  offset="0.8758" style="stop-color:#F69339"/>
				<stop  offset="1" style="stop-color:#FFC93F"/>
			</linearGradient>
			<path fill="url(#SVGID_4_)" d="M30.289,33.766c0.42-0.758,0.239-1.221-0.12-1.387c0.6-0.056,1.08-0.186,1.08-0.426
				c0-0.129-0.119-0.259-0.66-0.406c0.541-0.093,1.08-0.389,1.44-1.092l1.682-3.182c0.42-0.813,0.301-0.925-1.562-0.925
				c-2.16,0-2.341,0.111-2.341,0.703v0.962c0,0.629,0.24,0.832,0.601,0.98c-1.44,0.222-2.161,0.37-2.161,1.517h-0.42
				c0-1.146-0.48-1.313-2.041-1.498c0.36-0.186,0.48-0.389,0.48-0.999v-1.609c0-0.814-0.18-1.055-0.541-1.185
				c0.601,0,1.381-0.203,1.562-0.351c0.18,0.092,1.08,0.259,1.5,0.259c0.661,0,1.081-0.056,1.561-0.111
				c0.541-0.056,1.141-0.074,2.041-0.074c0.841,0,1.442,0.037,1.923,0.074c0.539,0.037,0.959,0.111,1.379,0.111
				c0.602,0,1.441-0.111,1.74-0.186c0.182,0.167,0.48,0.277,1.021,0.277l-2.221,5.272c-0.24,0.573-0.061,0.98,0.301,1.165
				c-0.602,0.074-0.961,0.167-0.961,0.352c0,0.148,0.24,0.24,0.66,0.352c-0.48,0.185-1.201,0.795-1.561,1.701l-1.563,3.774
				c-0.059,0.167,0.121,0.24,0.301,0.24s0.422-0.056,0.541-0.203l0.42-0.611h0.422l-0.662,1.647c-0.66,0-1.441,0.056-1.861,0.222
				c-0.24-0.074-0.72-0.11-1.14-0.148c-0.48-0.018-0.961-0.037-1.381-0.037c-0.721,0-1.801,0.056-2.461,0.186
				c-0.24-0.186-0.9-0.314-1.741-0.314l1.501-1.572h0.42l-0.24,0.665c-0.06,0.148,0.12,0.204,0.36,0.204s0.42-0.056,0.54-0.24
				L30.289,33.766z"/>
		</g>
	</g>
	<g>
		<g>
			<path fill="#ED1429" d="M49.289,33.766c0.421-0.758,0.24-1.221-0.119-1.387c0.6-0.056,1.08-0.186,1.08-0.426
				c0-0.129-0.119-0.259-0.66-0.406c0.541-0.093,1.08-0.389,1.44-1.092l1.681-3.182c0.42-0.813,0.301-0.925-1.561-0.925
				c-2.16,0-2.342,0.111-2.342,0.703v0.962c0,0.629,0.24,0.832,0.602,0.98c-1.441,0.222-2.161,0.37-2.161,1.517h-0.421
				c0-1.146-0.479-1.313-2.04-1.498c0.36-0.186,0.479-0.389,0.479-0.999v-1.609c0-0.814-0.18-1.055-0.54-1.185
				c0.601,0,1.381-0.203,1.562-0.351c0.18,0.092,1.08,0.259,1.5,0.259c0.66,0,1.08-0.056,1.561-0.111
				c0.541-0.056,1.141-0.074,2.041-0.074c0.84,0,1.441,0.037,1.921,0.074c0.54,0.037,0.96,0.111,1.38,0.111
				c0.601,0,1.441-0.111,1.74-0.186c0.181,0.167,0.48,0.277,1.021,0.277l-2.22,5.272c-0.241,0.573-0.061,0.98,0.3,1.165
				c-0.601,0.074-0.961,0.167-0.961,0.352c0,0.148,0.24,0.24,0.661,0.352c-0.48,0.185-1.201,0.795-1.562,1.701l-1.561,3.774
				c-0.06,0.167,0.12,0.24,0.3,0.24s0.422-0.056,0.541-0.203l0.42-0.611h0.421l-0.661,1.647c-0.66,0-1.44,0.056-1.86,0.222
				c-0.24-0.074-0.72-0.11-1.14-0.148c-0.48-0.018-0.961-0.037-1.381-0.037c-0.721,0-1.801,0.056-2.461,0.186
				c-0.24-0.186-0.9-0.314-1.741-0.314l1.501-1.572h0.42l-0.24,0.665c-0.061,0.148,0.12,0.204,0.359,0.204
				c0.24,0,0.421-0.056,0.541-0.24L49.289,33.766z"/>
		</g>
		<g>
			<path fill="none" stroke="#E30012" stroke-width="1.5414" d="M49.289,33.766c0.421-0.758,0.24-1.221-0.119-1.387
				c0.6-0.056,1.08-0.186,1.08-0.426c0-0.129-0.119-0.259-0.66-0.406c0.541-0.093,1.08-0.389,1.44-1.092l1.681-3.182
				c0.42-0.813,0.301-0.925-1.561-0.925c-2.16,0-2.342,0.111-2.342,0.703v0.962c0,0.629,0.24,0.832,0.602,0.98
				c-1.441,0.222-2.161,0.37-2.161,1.517h-0.421c0-1.146-0.479-1.313-2.04-1.498c0.36-0.186,0.479-0.389,0.479-0.999v-1.609
				c0-0.814-0.18-1.055-0.54-1.185c0.601,0,1.381-0.203,1.562-0.351c0.18,0.092,1.08,0.259,1.5,0.259c0.66,0,1.08-0.056,1.561-0.111
				c0.541-0.056,1.141-0.074,2.041-0.074c0.84,0,1.441,0.037,1.921,0.074c0.54,0.037,0.96,0.111,1.38,0.111
				c0.601,0,1.441-0.111,1.74-0.186c0.181,0.167,0.48,0.277,1.021,0.277l-2.22,5.272c-0.241,0.573-0.061,0.98,0.3,1.165
				c-0.601,0.074-0.961,0.167-0.961,0.352c0,0.148,0.24,0.24,0.661,0.352c-0.48,0.185-1.201,0.795-1.562,1.701l-1.561,3.774
				c-0.06,0.167,0.12,0.24,0.3,0.24s0.422-0.056,0.541-0.203l0.42-0.611h0.421l-0.661,1.647c-0.66,0-1.44,0.056-1.86,0.222
				c-0.24-0.074-0.72-0.11-1.14-0.148c-0.48-0.018-0.961-0.037-1.381-0.037c-0.721,0-1.801,0.056-2.461,0.186
				c-0.24-0.186-0.9-0.314-1.741-0.314l1.501-1.572h0.42l-0.24,0.665c-0.061,0.148,0.12,0.204,0.359,0.204
				c0.24,0,0.421-0.056,0.541-0.24L49.289,33.766z"/>
		</g>
		<g>
			<path fill="none" stroke="#FFFFFF" stroke-width="0.7707" d="M49.289,33.766c0.421-0.758,0.24-1.221-0.119-1.387
				c0.6-0.056,1.08-0.186,1.08-0.426c0-0.129-0.119-0.259-0.66-0.406c0.541-0.093,1.08-0.389,1.44-1.092l1.681-3.182
				c0.42-0.813,0.301-0.925-1.561-0.925c-2.16,0-2.342,0.111-2.342,0.703v0.962c0,0.629,0.24,0.832,0.602,0.98
				c-1.441,0.222-2.161,0.37-2.161,1.517h-0.421c0-1.146-0.479-1.313-2.04-1.498c0.36-0.186,0.479-0.389,0.479-0.999v-1.609
				c0-0.814-0.18-1.055-0.54-1.185c0.601,0,1.381-0.203,1.562-0.351c0.18,0.092,1.08,0.259,1.5,0.259c0.66,0,1.08-0.056,1.561-0.111
				c0.541-0.056,1.141-0.074,2.041-0.074c0.84,0,1.441,0.037,1.921,0.074c0.54,0.037,0.96,0.111,1.38,0.111
				c0.601,0,1.441-0.111,1.74-0.186c0.181,0.167,0.48,0.277,1.021,0.277l-2.22,5.272c-0.241,0.573-0.061,0.98,0.3,1.165
				c-0.601,0.074-0.961,0.167-0.961,0.352c0,0.148,0.24,0.24,0.661,0.352c-0.48,0.185-1.201,0.795-1.562,1.701l-1.561,3.774
				c-0.06,0.167,0.12,0.24,0.3,0.24s0.422-0.056,0.541-0.203l0.42-0.611h0.421l-0.661,1.647c-0.66,0-1.44,0.056-1.86,0.222
				c-0.24-0.074-0.72-0.11-1.14-0.148c-0.48-0.018-0.961-0.037-1.381-0.037c-0.721,0-1.801,0.056-2.461,0.186
				c-0.24-0.186-0.9-0.314-1.741-0.314l1.501-1.572h0.42l-0.24,0.665c-0.061,0.148,0.12,0.204,0.359,0.204
				c0.24,0,0.421-0.056,0.541-0.24L49.289,33.766z"/>
		</g>
		<g>
			
				<linearGradient id="SVGID_5_" gradientUnits="userSpaceOnUse" x1="29.5522" y1="22.0566" x2="33.695" y2="38.9167" gradientTransform="matrix(1 0 0 1 19 0)">
				<stop  offset="0" style="stop-color:#FF9FBE"/>
				<stop  offset="0.1053" style="stop-color:#FA84A5"/>
				<stop  offset="0.3297" style="stop-color:#EC4065"/>
				<stop  offset="0.5273" style="stop-color:#DF0028"/>
				<stop  offset="0.8758" style="stop-color:#F69339"/>
				<stop  offset="1" style="stop-color:#FFC93F"/>
			</linearGradient>
			<path fill="url(#SVGID_5_)" d="M49.289,33.766c0.421-0.758,0.24-1.221-0.119-1.387c0.6-0.056,1.08-0.186,1.08-0.426
				c0-0.129-0.119-0.259-0.66-0.406c0.541-0.093,1.08-0.389,1.44-1.092l1.681-3.182c0.42-0.813,0.301-0.925-1.561-0.925
				c-2.16,0-2.342,0.111-2.342,0.703v0.962c0,0.629,0.24,0.832,0.602,0.98c-1.441,0.222-2.161,0.37-2.161,1.517h-0.421
				c0-1.146-0.479-1.313-2.04-1.498c0.36-0.186,0.479-0.389,0.479-0.999v-1.609c0-0.814-0.18-1.055-0.54-1.185
				c0.601,0,1.381-0.203,1.562-0.351c0.18,0.092,1.08,0.259,1.5,0.259c0.66,0,1.08-0.056,1.561-0.111
				c0.541-0.056,1.141-0.074,2.041-0.074c0.84,0,1.441,0.037,1.921,0.074c0.54,0.037,0.96,0.111,1.38,0.111
				c0.601,0,1.441-0.111,1.74-0.186c0.181,0.167,0.48,0.277,1.021,0.277l-2.22,5.272c-0.241,0.573-0.061,0.98,0.3,1.165
				c-0.601,0.074-0.961,0.167-0.961,0.352c0,0.148,0.24,0.24,0.661,0.352c-0.48,0.185-1.201,0.795-1.562,1.701l-1.561,3.774
				c-0.06,0.167,0.12,0.24,0.3,0.24s0.422-0.056,0.541-0.203l0.42-0.611h0.421l-0.661,1.647c-0.66,0-1.44,0.056-1.86,0.222
				c-0.24-0.074-0.72-0.11-1.14-0.148c-0.48-0.018-0.961-0.037-1.381-0.037c-0.721,0-1.801,0.056-2.461,0.186
				c-0.24-0.186-0.9-0.314-1.741-0.314l1.501-1.572h0.42l-0.24,0.665c-0.061,0.148,0.12,0.204,0.359,0.204
				c0.24,0,0.421-0.056,0.541-0.24L49.289,33.766z"/>
		</g>
	</g>
	<g>
		<g>
			<path fill="#ED1429" d="M12.29,33.766c0.42-0.758,0.239-1.221-0.12-1.387c0.6-0.056,1.08-0.186,1.08-0.426
				c0-0.129-0.12-0.259-0.66-0.406c0.54-0.093,1.08-0.389,1.44-1.092l1.681-3.182c0.42-0.813,0.301-0.925-1.561-0.925
				c-2.161,0-2.341,0.111-2.341,0.703v0.962c0,0.629,0.24,0.832,0.6,0.98c-1.439,0.222-2.16,0.37-2.16,1.517h-0.42
				c0-1.146-0.48-1.313-2.041-1.498c0.359-0.186,0.48-0.389,0.48-0.999v-1.609c0-0.814-0.18-1.055-0.541-1.185
				c0.601,0,1.381-0.203,1.561-0.351c0.181,0.092,1.08,0.259,1.501,0.259c0.661,0,1.081-0.056,1.561-0.111
				c0.54-0.056,1.14-0.074,2.041-0.074c0.84,0,1.441,0.037,1.921,0.074c0.54,0.037,0.96,0.111,1.38,0.111
				c0.601,0,1.441-0.111,1.74-0.186c0.181,0.167,0.48,0.277,1.021,0.277l-2.22,5.272c-0.241,0.573-0.061,0.98,0.3,1.165
				c-0.601,0.074-0.961,0.167-0.961,0.352c0,0.148,0.24,0.24,0.661,0.352c-0.48,0.185-1.201,0.795-1.562,1.701l-1.561,3.774
				c-0.06,0.167,0.12,0.24,0.3,0.24s0.422-0.056,0.541-0.203l0.42-0.611h0.421l-0.661,1.647c-0.66,0-1.44,0.056-1.86,0.222
				c-0.24-0.074-0.721-0.11-1.141-0.148c-0.48-0.018-0.96-0.037-1.381-0.037c-0.72,0-1.801,0.056-2.461,0.186
				c-0.239-0.186-0.9-0.314-1.74-0.314l1.501-1.572h0.42l-0.24,0.665c-0.06,0.148,0.12,0.204,0.36,0.204s0.42-0.056,0.539-0.24
				L12.29,33.766z"/>
		</g>
		<g>
			<path fill="none" stroke="#E30012" stroke-width="1.5414" d="M12.29,33.766c0.42-0.758,0.239-1.221-0.12-1.387
				c0.6-0.056,1.08-0.186,1.08-0.426c0-0.129-0.12-0.259-0.66-0.406c0.54-0.093,1.08-0.389,1.44-1.092l1.681-3.182
				c0.42-0.813,0.301-0.925-1.561-0.925c-2.161,0-2.341,0.111-2.341,0.703v0.962c0,0.629,0.24,0.832,0.6,0.98
				c-1.439,0.222-2.16,0.37-2.16,1.517h-0.42c0-1.146-0.48-1.313-2.041-1.498c0.359-0.186,0.48-0.389,0.48-0.999v-1.609
				c0-0.814-0.18-1.055-0.541-1.185c0.601,0,1.381-0.203,1.561-0.351c0.181,0.092,1.08,0.259,1.501,0.259
				c0.661,0,1.081-0.056,1.561-0.111c0.54-0.056,1.14-0.074,2.041-0.074c0.84,0,1.441,0.037,1.921,0.074
				c0.54,0.037,0.96,0.111,1.38,0.111c0.601,0,1.441-0.111,1.74-0.186c0.181,0.167,0.48,0.277,1.021,0.277l-2.22,5.272
				c-0.241,0.573-0.061,0.98,0.3,1.165c-0.601,0.074-0.961,0.167-0.961,0.352c0,0.148,0.24,0.24,0.661,0.352
				c-0.48,0.185-1.201,0.795-1.562,1.701l-1.561,3.774c-0.06,0.167,0.12,0.24,0.3,0.24s0.422-0.056,0.541-0.203l0.42-0.611h0.421
				l-0.661,1.647c-0.66,0-1.44,0.056-1.86,0.222c-0.24-0.074-0.721-0.11-1.141-0.148c-0.48-0.018-0.96-0.037-1.381-0.037
				c-0.72,0-1.801,0.056-2.461,0.186c-0.239-0.186-0.9-0.314-1.74-0.314l1.501-1.572h0.42l-0.24,0.665
				c-0.06,0.148,0.12,0.204,0.36,0.204s0.42-0.056,0.539-0.24L12.29,33.766z"/>
		</g>
		<g>
			<path fill="none" stroke="#FFFFFF" stroke-width="0.7707" d="M12.29,33.766c0.42-0.758,0.239-1.221-0.12-1.387
				c0.6-0.056,1.08-0.186,1.08-0.426c0-0.129-0.12-0.259-0.66-0.406c0.54-0.093,1.08-0.389,1.44-1.092l1.681-3.182
				c0.42-0.813,0.301-0.925-1.561-0.925c-2.161,0-2.341,0.111-2.341,0.703v0.962c0,0.629,0.24,0.832,0.6,0.98
				c-1.439,0.222-2.16,0.37-2.16,1.517h-0.42c0-1.146-0.48-1.313-2.041-1.498c0.359-0.186,0.48-0.389,0.48-0.999v-1.609
				c0-0.814-0.18-1.055-0.541-1.185c0.601,0,1.381-0.203,1.561-0.351c0.181,0.092,1.08,0.259,1.501,0.259
				c0.661,0,1.081-0.056,1.561-0.111c0.54-0.056,1.14-0.074,2.041-0.074c0.84,0,1.441,0.037,1.921,0.074
				c0.54,0.037,0.96,0.111,1.38,0.111c0.601,0,1.441-0.111,1.74-0.186c0.181,0.167,0.48,0.277,1.021,0.277l-2.22,5.272
				c-0.241,0.573-0.061,0.98,0.3,1.165c-0.601,0.074-0.961,0.167-0.961,0.352c0,0.148,0.24,0.24,0.661,0.352
				c-0.48,0.185-1.201,0.795-1.562,1.701l-1.561,3.774c-0.06,0.167,0.12,0.24,0.3,0.24s0.422-0.056,0.541-0.203l0.42-0.611h0.421
				l-0.661,1.647c-0.66,0-1.44,0.056-1.86,0.222c-0.24-0.074-0.721-0.11-1.141-0.148c-0.48-0.018-0.96-0.037-1.381-0.037
				c-0.72,0-1.801,0.056-2.461,0.186c-0.239-0.186-0.9-0.314-1.74-0.314l1.501-1.572h0.42l-0.24,0.665
				c-0.06,0.148,0.12,0.204,0.36,0.204s0.42-0.056,0.539-0.24L12.29,33.766z"/>
		</g>
		<g>
			
				<linearGradient id="SVGID_6_" gradientUnits="userSpaceOnUse" x1="29.5522" y1="22.0566" x2="33.695" y2="38.9167" gradientTransform="matrix(1 0 0 1 -18 0)">
				<stop  offset="0" style="stop-color:#FF9FBE"/>
				<stop  offset="0.1053" style="stop-color:#FA84A5"/>
				<stop  offset="0.3297" style="stop-color:#EC4065"/>
				<stop  offset="0.5273" style="stop-color:#DF0028"/>
				<stop  offset="0.8758" style="stop-color:#F69339"/>
				<stop  offset="1" style="stop-color:#FFC93F"/>
			</linearGradient>
			<path fill="url(#SVGID_6_)" d="M12.29,33.766c0.42-0.758,0.239-1.221-0.12-1.387c0.6-0.056,1.08-0.186,1.08-0.426
				c0-0.129-0.12-0.259-0.66-0.406c0.54-0.093,1.08-0.389,1.44-1.092l1.681-3.182c0.42-0.813,0.301-0.925-1.561-0.925
				c-2.161,0-2.341,0.111-2.341,0.703v0.962c0,0.629,0.24,0.832,0.6,0.98c-1.439,0.222-2.16,0.37-2.16,1.517h-0.42
				c0-1.146-0.48-1.313-2.041-1.498c0.359-0.186,0.48-0.389,0.48-0.999v-1.609c0-0.814-0.18-1.055-0.541-1.185
				c0.601,0,1.381-0.203,1.561-0.351c0.181,0.092,1.08,0.259,1.501,0.259c0.661,0,1.081-0.056,1.561-0.111
				c0.54-0.056,1.14-0.074,2.041-0.074c0.84,0,1.441,0.037,1.921,0.074c0.54,0.037,0.96,0.111,1.38,0.111
				c0.601,0,1.441-0.111,1.74-0.186c0.181,0.167,0.48,0.277,1.021,0.277l-2.22,5.272c-0.241,0.573-0.061,0.98,0.3,1.165
				c-0.601,0.074-0.961,0.167-0.961,0.352c0,0.148,0.24,0.24,0.661,0.352c-0.48,0.185-1.201,0.795-1.562,1.701l-1.561,3.774
				c-0.06,0.167,0.12,0.24,0.3,0.24s0.422-0.056,0.541-0.203l0.42-0.611h0.421l-0.661,1.647c-0.66,0-1.44,0.056-1.86,0.222
				c-0.24-0.074-0.721-0.11-1.141-0.148c-0.48-0.018-0.96-0.037-1.381-0.037c-0.72,0-1.801,0.056-2.461,0.186
				c-0.239-0.186-0.9-0.314-1.74-0.314l1.501-1.572h0.42l-0.24,0.665c-0.06,0.148,0.12,0.204,0.36,0.204s0.42-0.056,0.539-0.24
				L12.29,33.766z"/>
		</g>
	</g>
	<g>
		<g>
			<polyline fill="none" stroke="#0B3505" stroke-width="0.6134" stroke-miterlimit="10" points="29.224,50.045 32.932,45.387 
				32.932,50.045 			"/>
			<path fill="#0B3505" d="M29.773,43.388c0,0,3.069-1.332,3.6,1.266C33.373,44.653,31.028,45.786,29.773,43.388z"/>
			<path fill="#0B3505" d="M37.257,44.921c0,0-1.854-1.6-4.325-0.268C32.932,44.653,32.843,47.187,37.257,44.921z"/>
		</g>
		<ellipse fill="#ED1433" cx="29.259" cy="50.045" rx="2.516" ry="1.965"/>
		<ellipse fill="#ED1433" cx="33.241" cy="50.5" rx="2.771" ry="2.176"/>
		<ellipse fill="#FFFFFF" cx="28.504" cy="49.077" rx="0.755" ry="0.602"/>
		<ellipse fill="#FFFFFF" cx="31.99" cy="49.788" rx="0.843" ry="0.712"/>
	</g>
	<g>
		<g>
			<polyline fill="none" stroke="#0B3505" stroke-width="0.6134" stroke-miterlimit="10" points="9.972,18.202 13.679,13.544 
				13.679,18.202 			"/>
			<path fill="#0B3505" d="M10.521,11.545c0,0,3.07-1.332,3.6,1.266C14.12,12.811,11.776,13.943,10.521,11.545z"/>
			<path fill="#0B3505" d="M18.004,13.078c0,0-1.854-1.6-4.325-0.268C13.679,12.811,13.591,15.344,18.004,13.078z"/>
		</g>
		<ellipse fill="#ED1433" cx="10.006" cy="18.202" rx="2.516" ry="1.965"/>
		<ellipse fill="#ED1433" cx="13.988" cy="18.657" rx="2.771" ry="2.176"/>
		<ellipse fill="#FFFFFF" cx="9.251" cy="17.234" rx="0.754" ry="0.602"/>
		<ellipse fill="#FFFFFF" cx="12.737" cy="17.945" rx="0.844" ry="0.712"/>
	</g>
	<g>
		<path fill="#278417" d="M28.429,10.741v9.123c5.687,0,10.296-2.042,10.296-4.562C38.725,12.784,34.115,10.741,28.429,10.741z"/>
		<path fill="#113F07" d="M29.638,11.317c0,0,6.716,0.704,8.915,3.16c0,0-5.977-2.448-8.915-2.355V11.317z"/>
		<path fill="#113F07" d="M30.474,13.665c0,0,5.563,0.265,8.079,0.813c0,0,0.223,0.375,0.172,0.825l-8.014,0L30.474,13.665z"/>
		<path fill="#113F07" d="M30.126,17.792c0,0,5.596,0.558,7.993-0.945l0.434-0.718c0,0-7.524,1.123-8.426,0.566V17.792z"/>
		<ellipse fill="#F9F7F7" cx="28.209" cy="15.302" rx="2.942" ry="4.562"/>
		<ellipse fill="#E30012" cx="28.209" cy="15.303" rx="2.502" ry="3.879"/>
		<ellipse fill="#140404" cx="27.082" cy="13.435" rx="0.328" ry="0.538"/>
		<ellipse fill="#140404" cx="29.065" cy="15.715" rx="0.239" ry="0.413"/>
		<ellipse fill="#140404" cx="27.435" cy="16.728" rx="0.358" ry="0.6"/>
		<ellipse fill="#140404" cx="28.517" cy="14.071" rx="0.309" ry="0.499"/>
	</g>
	<g>
		<g>
			
				<linearGradient id="SVGID_7_" gradientUnits="userSpaceOnUse" x1="11.8018" y1="49.4971" x2="18.8865" y2="49.632" gradientTransform="matrix(0.762 -0.6475 0.6475 0.762 -28.1942 18.3592)">
				<stop  offset="0" style="stop-color:#FFF19F"/>
				<stop  offset="0.1231" style="stop-color:#F9E482"/>
				<stop  offset="0.3887" style="stop-color:#EAC238"/>
				<stop  offset="0.5758" style="stop-color:#DFA800"/>
				<stop  offset="0.6182" style="stop-color:#1F1900"/>
				<stop  offset="0.6225" style="stop-color:#251D00"/>
				<stop  offset="0.6617" style="stop-color:#583C00"/>
				<stop  offset="0.7027" style="stop-color:#845800"/>
				<stop  offset="0.7449" style="stop-color:#AA6F00"/>
				<stop  offset="0.7885" style="stop-color:#C98300"/>
				<stop  offset="0.8339" style="stop-color:#E19100"/>
				<stop  offset="0.882" style="stop-color:#F29C00"/>
				<stop  offset="0.9346" style="stop-color:#FCA200"/>
				<stop  offset="1" style="stop-color:#FFA400"/>
			</linearGradient>
			<path fill="url(#SVGID_7_)" stroke="#C47D00" stroke-width="0.2699" stroke-miterlimit="10" d="M12.07,45.059
				c0,0-0.176,1.534,0.947,3.615c0.71,1.315,0.335,2.063,0.335,2.063s4.062-0.795,5.879-4.021c0,0-1.25-0.222-1.919-1.114
				s-2.266-2.405-3.239-1.936C13.099,44.135,12.963,44.13,12.07,45.059z"/>
			
				<ellipse transform="matrix(0.8216 -0.5701 0.5701 0.8216 -24.8519 18.0351)" fill="#59421E" stroke="#C47D00" stroke-width="0.2057" stroke-miterlimit="10" cx="16.388" cy="48.723" rx="3.481" ry="0.667"/>
			
				<ellipse transform="matrix(-0.7621 0.6475 -0.6475 -0.7621 61.0809 76.2235)" fill="#F4C551" stroke="#C47D00" stroke-width="0.2699" stroke-miterlimit="10" cx="16.536" cy="49.334" rx="0.95" ry="0.891"/>
		</g>
		<g>
			<linearGradient id="SVGID_8_" gradientUnits="userSpaceOnUse" x1="8.6841" y1="46.6211" x2="17.8198" y2="46.7951">
				<stop  offset="0" style="stop-color:#FFF19F"/>
				<stop  offset="0.1231" style="stop-color:#F9E482"/>
				<stop  offset="0.3887" style="stop-color:#EAC238"/>
				<stop  offset="0.5758" style="stop-color:#DFA800"/>
				<stop  offset="0.6182" style="stop-color:#1F1900"/>
				<stop  offset="0.6225" style="stop-color:#251D00"/>
				<stop  offset="0.6617" style="stop-color:#583C00"/>
				<stop  offset="0.7027" style="stop-color:#845800"/>
				<stop  offset="0.7449" style="stop-color:#AA6F00"/>
				<stop  offset="0.7885" style="stop-color:#C98300"/>
				<stop  offset="0.8339" style="stop-color:#E19100"/>
				<stop  offset="0.882" style="stop-color:#F29C00"/>
				<stop  offset="0.9346" style="stop-color:#FCA200"/>
				<stop  offset="1" style="stop-color:#FFA400"/>
			</linearGradient>
			<path fill="url(#SVGID_8_)" stroke="#C47D00" stroke-width="0.348" stroke-miterlimit="10" d="M10.737,42.654
				c0,0-1.455,1.36-2.088,4.344c-0.4,1.885-1.392,2.306-1.392,2.306s4.655,2.61,9.136,0.957c0,0-1.044-1.261-0.957-2.697
				c0.087-1.436-0.218-4.256-1.566-4.607S12.391,42.486,10.737,42.654z"/>
			
				<ellipse transform="matrix(0.9952 0.0977 -0.0977 0.9952 4.9275 -0.9261)" fill="#59421E" stroke="#C47D00" stroke-width="0.2653" stroke-miterlimit="10" cx="11.922" cy="49.86" rx="4.489" ry="0.862"/>
			
				<ellipse fill="#F4C551" stroke="#C47D00" stroke-width="0.348" stroke-miterlimit="10" cx="11.556" cy="50.585" rx="1.226" ry="1.149"/>
		</g>
	</g>
	<g>
		<g>
			
				<linearGradient id="SVGID_9_" gradientUnits="userSpaceOnUse" x1="60.5811" y1="50.3711" x2="67.6658" y2="50.506" gradientTransform="matrix(0.762 -0.6475 0.6475 0.762 -28.1942 18.3592)">
				<stop  offset="0" style="stop-color:#FFF19F"/>
				<stop  offset="0.1231" style="stop-color:#F9E482"/>
				<stop  offset="0.3887" style="stop-color:#EAC238"/>
				<stop  offset="0.5758" style="stop-color:#DFA800"/>
				<stop  offset="0.6182" style="stop-color:#1F1900"/>
				<stop  offset="0.6225" style="stop-color:#251D00"/>
				<stop  offset="0.6617" style="stop-color:#583C00"/>
				<stop  offset="0.7027" style="stop-color:#845800"/>
				<stop  offset="0.7449" style="stop-color:#AA6F00"/>
				<stop  offset="0.7885" style="stop-color:#C98300"/>
				<stop  offset="0.8339" style="stop-color:#E19100"/>
				<stop  offset="0.882" style="stop-color:#F29C00"/>
				<stop  offset="0.9346" style="stop-color:#FCA200"/>
				<stop  offset="1" style="stop-color:#FFA400"/>
			</linearGradient>
			<path fill="url(#SVGID_9_)" stroke="#C47D00" stroke-width="0.2699" stroke-miterlimit="10" d="M49.806,14.139
				c0,0-0.177,1.534,0.946,3.615c0.71,1.315,0.335,2.063,0.335,2.063s4.063-0.795,5.879-4.021c0,0-1.25-0.222-1.919-1.114
				s-2.266-2.405-3.239-1.936C50.835,13.215,50.698,13.21,49.806,14.139z"/>
			
				<ellipse transform="matrix(0.8216 -0.5701 0.5701 0.8216 -0.4931 34.0309)" fill="#59421E" stroke="#C47D00" stroke-width="0.2057" stroke-miterlimit="10" cx="54.124" cy="17.803" rx="3.481" ry="0.668"/>
			
				<ellipse transform="matrix(-0.7619 0.6477 -0.6477 -0.7619 107.5467 -2.7098)" fill="#F4C551" stroke="#C47D00" stroke-width="0.2699" stroke-miterlimit="10" cx="54.271" cy="18.415" rx="0.95" ry="0.891"/>
		</g>
		<g>
			<linearGradient id="SVGID_10_" gradientUnits="userSpaceOnUse" x1="46.4189" y1="15.7021" x2="55.5546" y2="15.8762">
				<stop  offset="0" style="stop-color:#FFF19F"/>
				<stop  offset="0.1231" style="stop-color:#F9E482"/>
				<stop  offset="0.3887" style="stop-color:#EAC238"/>
				<stop  offset="0.5758" style="stop-color:#DFA800"/>
				<stop  offset="0.6182" style="stop-color:#1F1900"/>
				<stop  offset="0.6225" style="stop-color:#251D00"/>
				<stop  offset="0.6617" style="stop-color:#583C00"/>
				<stop  offset="0.7027" style="stop-color:#845800"/>
				<stop  offset="0.7449" style="stop-color:#AA6F00"/>
				<stop  offset="0.7885" style="stop-color:#C98300"/>
				<stop  offset="0.8339" style="stop-color:#E19100"/>
				<stop  offset="0.882" style="stop-color:#F29C00"/>
				<stop  offset="0.9346" style="stop-color:#FCA200"/>
				<stop  offset="1" style="stop-color:#FFA400"/>
			</linearGradient>
			<path fill="url(#SVGID_10_)" stroke="#C47D00" stroke-width="0.348" stroke-miterlimit="10" d="M48.473,11.735
				c0,0-1.454,1.36-2.089,4.344c-0.399,1.885-1.392,2.306-1.392,2.306s4.655,2.61,9.136,0.957c0,0-1.044-1.261-0.957-2.697
				c0.088-1.436-0.217-4.256-1.566-4.607C50.257,11.685,50.126,11.567,48.473,11.735z"/>
			
				<ellipse transform="matrix(0.9952 0.0977 -0.0977 0.9952 2.0879 -4.7606)" fill="#59421E" stroke="#C47D00" stroke-width="0.2653" stroke-miterlimit="10" cx="49.657" cy="18.941" rx="4.488" ry="0.862"/>
			
				<ellipse fill="#F4C551" stroke="#C47D00" stroke-width="0.348" stroke-miterlimit="10" cx="49.291" cy="19.666" rx="1.226" ry="1.149"/>
		</g>
	</g>
	<g>
		<path fill="#278417" d="M47.43,43.914v9.123c5.686,0,10.295-2.042,10.295-4.562S53.115,43.914,47.43,43.914z"/>
		<path fill="#113F07" d="M48.639,44.489c0,0,6.715,0.705,8.914,3.16c0,0-5.977-2.447-8.914-2.355V44.489z"/>
		<path fill="#113F07" d="M49.475,46.837c0,0,5.563,0.266,8.078,0.813c0,0,0.223,0.375,0.172,0.826h-8.014L49.475,46.837z"/>
		<path fill="#113F07" d="M49.127,50.964c0,0,5.596,0.559,7.992-0.944l0.434-0.718c0,0-7.523,1.123-8.426,0.566V50.964z"/>
		<ellipse fill="#F9F7F7" cx="47.209" cy="48.476" rx="2.942" ry="4.562"/>
		<ellipse fill="#E30012" cx="47.209" cy="48.476" rx="2.502" ry="3.879"/>
		<ellipse fill="#140404" cx="46.083" cy="46.607" rx="0.328" ry="0.538"/>
		<ellipse fill="#140404" cx="48.065" cy="48.888" rx="0.239" ry="0.414"/>
		<ellipse fill="#140404" cx="46.436" cy="49.901" rx="0.357" ry="0.6"/>
		<ellipse fill="#140404" cx="47.518" cy="47.243" rx="0.309" ry="0.499"/>
	</g>
	<linearGradient id="SVGID_11_" gradientUnits="userSpaceOnUse" x1="31.9995" y1="8.75" x2="31.9995" y2="16.626">
		<stop  offset="0" style="stop-color:#000000"/>
		<stop  offset="1" style="stop-color:#000000;stop-opacity:0"/>
	</linearGradient>
	<rect x="4.519" y="12.125" fill="url(#SVGID_11_)" width="54.961" height="6.532"/>
	
		<linearGradient id="SVGID_12_" gradientUnits="userSpaceOnUse" x1="31.9995" y1="-19.1118" x2="31.9995" y2="-11.2358" gradientTransform="matrix(1 0 0 -0.9622 0 36.4181)">
		<stop  offset="0" style="stop-color:#000000"/>
		<stop  offset="1" style="stop-color:#000000;stop-opacity:0"/>
	</linearGradient>
	<rect x="4.519" y="45.275" fill="url(#SVGID_12_)" width="54.961" height="6.285"/>
	<linearGradient id="SVGID_13_" gradientUnits="userSpaceOnUse" x1="33.4375" y1="52.7539" x2="33.4375" y2="10.8844">
		<stop  offset="0" style="stop-color:#D8D8D8"/>
		<stop  offset="0.0684" style="stop-color:#E9E9E9"/>
		<stop  offset="0.152" style="stop-color:#F6F6F6"/>
		<stop  offset="0.2646" style="stop-color:#FDFDFD"/>
		<stop  offset="0.5273" style="stop-color:#FFFFFF"/>
		<stop  offset="0.8723" style="stop-color:#FDFDFD"/>
		<stop  offset="1" style="stop-color:#F8F8F8"/>
	</linearGradient>
	<path fill="url(#SVGID_13_)" stroke="#0C0902" stroke-width="1.0176" stroke-miterlimit="10" d="M-3.875,6.25V57.5H70.75V6.25
		H-3.875z M4.519,51.734V12.281H59.48v39.454H4.519z"/>
</g>
</svg>
