<?xml version="1.0" encoding="utf-8"?>
<!-- Generator: Adobe Illustrator 15.0.0, SVG Export Plug-In . SVG Version: 6.00 Build 0)  -->
<!DOCTYPE svg PUBLIC "-//W3C//DTD SVG 1.1//EN" "http://www.w3.org/Graphics/SVG/1.1/DTD/svg11.dtd">
<svg version="1.1" id="レイヤー_1" xmlns="http://www.w3.org/2000/svg" xmlns:xlink="http://www.w3.org/1999/xlink" x="0px"
	 y="0px" width="64px" height="64px" viewBox="0 0 64 64" style="enable-background:new 0 0 64 64;" xml:space="preserve">
<g>
	<linearGradient id="SVGID_1_" gradientUnits="userSpaceOnUse" x1="18.0126953" y1="-4.8999023" x2="45.1785965" y2="66.7651443">
		<stop  offset="0" style="stop-color:#FFCC91"/>
		<stop  offset="0.2750012" style="stop-color:#F8B87D"/>
		<stop  offset="0.8372955" style="stop-color:#E68348"/>
		<stop  offset="1" style="stop-color:#E07338"/>
	</linearGradient>
	<circle style="fill:url(#SVGID_1_);" cx="32" cy="32" r="28.9443359"/>
	<g>
		<polygon style="fill:#ED2941;" points="10.5083008,25.5581055 9.1650391,23.9746094 7.2978516,25.5581055 5.9545898,23.9746094 
			3.6665039,25.9150391 6.5864258,29.3574219 8.4541016,27.7739258 9.7973633,29.3574219 11.6640625,27.7739258 
			13.0073242,29.3574219 15.2954102,27.4169922 12.3754883,23.9746094 		"/>
		<polygon style="fill:#ED2941;" points="60.0986328,27.4160156 57.1787109,23.9746094 55.3125,25.5585938 53.9667969,23.9741211 
			52.1015625,25.5576172 50.7578125,23.9746094 48.4707031,25.9150391 51.390625,29.3564453 53.2568359,27.7729492 
			54.6015625,29.3569336 56.4677734,27.7729492 57.8115234,29.3564453 		"/>
	</g>
	<path style="fill:#B76658;" d="M32.0009766,61.3291016C15.828125,61.3291016,2.6708984,48.171875,2.6708984,32
		c0-16.1723633,13.1572266-29.3291016,29.3300781-29.3291016c16.171875,0,29.328125,13.1567383,29.328125,29.3291016
		C61.3291016,48.171875,48.1728516,61.3291016,32.0009766,61.3291016z M32.0009766,5.1708984
		C17.2070313,5.1708984,5.1708984,17.206543,5.1708984,32c0,14.7939453,12.0361328,26.8291016,26.8300781,26.8291016
		c14.7929688,0,26.828125-12.0351563,26.828125-26.8291016C58.8291016,17.206543,46.7939453,5.1708984,32.0009766,5.1708984z"/>
	<path style="fill:#440E00;" d="M32,62.1933594C15.3505859,62.1933594,1.8056641,48.6484375,1.8056641,32
		S15.3505859,1.8066406,32,1.8066406S62.1943359,15.3515625,62.1943359,32S48.6494141,62.1933594,32,62.1933594z M32,4.3066406
		C16.7294922,4.3066406,4.3056641,16.7299805,4.3056641,32c0,15.2705078,12.4238281,27.6933594,27.6943359,27.6933594
		S59.6943359,47.2705078,59.6943359,32C59.6943359,16.7299805,47.2705078,4.3066406,32,4.3066406z"/>
	<path style="fill:#842C38;" d="M54.0302734,31.8857422c0,12.3115234-9.7958984,22.296875-21.8808594,22.296875
		c-12.0844727,0-21.8813477-9.9853516-21.8813477-22.296875c8.8344727-0.2558594,9.796875,0,21.8813477,0
		C44.234375,31.8857422,44.234375,31.8857422,54.0302734,31.8857422z"/>
	<g>
		<g>
			<path style="fill:#EA7C91;" d="M32,39c-7.4912109,0-15.1953125,3.3652344-15.1953125,7.7753906
				c0,4.4082031,7.7041016,7.2041016,15.1953125,7.2041016c7.4902344,0,15-2.7958984,15-7.2041016
				C47,42.3652344,39.4902344,39,32,39z"/>
		</g>
		<path style="fill:#E42A56;" d="M32,44.5507813c-8.1254883-0.0029297-15.7851563,2.0136719-13.7260742,4.8232422
			C21.7783203,54.1542969,29.3178711,54.3378906,32,54.2412109c2,0.0966797,10.2216797-0.0869141,13.7265625-4.8671875
			C47.7851563,46.5644531,40.0107422,44.5537109,32,44.5507813z"/>
	</g>
	<rect x="10.2680664" y="32.2255859" style="fill:#FFFFFF;" width="43.4194336" height="4.4853516"/>
	<path style="fill:#440E00;" d="M32.1494141,55.1826172c-12.6166992,0-22.8813477-10.4511719-22.8813477-23.296875v-1h45.762207v1
		C55.0302734,44.7314453,44.765625,55.1826172,32.1494141,55.1826172z M11.2910156,32.8857422
		c0.5136719,11.2802734,9.6733398,20.296875,20.8583984,20.296875c11.1845703,0,20.34375-9.0166016,20.8583984-20.296875H11.2910156
		z"/>
	<g>
		<ellipse style="fill:#330100;" cx="21.253418" cy="19.1733398" rx="3.7163086" ry="5.3276367"/>
		<ellipse style="fill:#330100;" cx="42.7460938" cy="19.1733398" rx="3.7167969" ry="5.3276367"/>
	</g>
</g>
</svg>
