<?xml version="1.0" encoding="utf-8"?>
<!-- Generator: Adobe Illustrator 17.0.0, SVG Export Plug-In . SVG Version: 6.00 Build 0)  -->
<!DOCTYPE svg PUBLIC "-//W3C//DTD SVG 1.1//EN" "http://www.w3.org/Graphics/SVG/1.1/DTD/svg11.dtd">
<svg version="1.1" id="レイヤー_1" xmlns="http://www.w3.org/2000/svg" xmlns:xlink="http://www.w3.org/1999/xlink" x="0px"
	 y="0px" width="64px" height="64px" viewBox="0 0 64 64" style="enable-background:new 0 0 64 64;" xml:space="preserve">
<circle style="fill:#FFE3D6;" cx="35.999733" cy="27.3334999" r="24.2775669"/>
<path style="fill:#FFB5B5;" d="M36.6679688,51.8857422c-13.5385742,0-24.5532227-11.0136719-24.5532227-24.5522461
	c0-13.5380859,11.0146484-24.5517578,24.5532227-24.5517578c13.5371094,0,24.5507813,11.0136719,24.5507813,24.5517578
	C61.21875,40.8720703,50.2050781,51.8857422,36.6679688,51.8857422z M36.6679688,4.7817383
	c-12.4360352,0-22.5532227,10.1166992-22.5532227,22.5517578s10.1171875,22.5522461,22.5532227,22.5522461
	c12.4345703,0,22.5507813-10.1171875,22.5507813-22.5522461S49.1025391,4.7817383,36.6679688,4.7817383z"/>
<path style="fill:#750000;" d="M36.6669922,52.6103516c-13.9384766,0-25.277832-11.3388672-25.277832-25.2768555
	c0-13.9375,11.3393555-25.2768555,25.277832-25.2768555c13.9375,0,25.2773438,11.3393555,25.2773438,25.2768555
	C61.9443359,41.2714844,50.6044922,52.6103516,36.6669922,52.6103516z M36.6669922,4.0566406
	c-12.8354492,0-23.277832,10.4418945-23.277832,23.2768555c0,12.8344727,10.4423828,23.2768555,23.277832,23.2768555
	c12.8349609,0,23.2773438-10.4423828,23.2773438-23.2768555C59.9443359,14.4985352,49.5019531,4.0566406,36.6669922,4.0566406z"/>
<polygon style="fill:#750000;" points="17.612793,32.9135742 17.4165039,30.4213867 22.7875977,29.9975586 19.7172852,22.6928711 
	22.0219727,21.7241211 26.4321289,32.2182617 "/>
<polygon style="fill:#750000;" points="44.5009766,41.1269531 36.7480469,34.2011719 48.9492188,31.2006836 49.546875,33.6279297 
	41.9511719,35.4960938 46.1669922,39.2617188 "/>
<polygon style="fill:#750000;" points="28.6367188,27.8320313 23.8037109,18.0874023 25.4160156,17.2875977 29.3193359,25.1572266 
	29.8598633,24.7788086 30.8920898,26.253418 "/>
<polygon style="fill:#750000;" points="35.7666016,30.9921875 35.7666016,25.6557617 37.5673828,25.6557617 37.5673828,28.4267578 
	49.5019531,24.1103516 50.1132813,25.8027344 "/>
<path style="fill:#FFE3D6;" d="M26.1068993,40.8065987c-5.3095398-2.6327972-7.8676395,4.0020027-1.3237,5.2070999
	c-5.5107384,1.6084023-1.0443993,6.3261032,3.5517998,3.8691025"/>
<path style="fill:#750000;" d="M25.6943359,52.1386719c-1.4125977,0.0009766-2.6191406-0.4580078-3.4204102-1.0361328
	c-1.1889648-0.8583984-1.7709961-2.1142578-1.5561523-3.359375c0.0649414-0.3789063,0.2324219-0.8945313,0.6450195-1.4238281
	c-1.3149414-0.9228516-1.7641602-2.0527344-1.9155273-2.6474609c-0.3828125-1.5078125,0.1396484-3.0585938,1.3637695-4.046875
	c1.5302734-1.2363281,3.7680664-1.3173828,5.9887695-0.2148438c0.7709961,0.3818359,1.0864258,1.3173828,0.7041016,2.0888672
	c-0.3833008,0.7714844-1.3188477,1.0859375-2.0898438,0.7041016c-1.2939453-0.6396484-2.2133789-0.4990234-2.6435547-0.1533203
	c-0.2729492,0.2207031-0.3823242,0.5322266-0.3007813,0.8544922c0.1416016,0.5566406,0.8979492,1.2636719,2.5957031,1.5761719
	c0.7104492,0.1308594,1.2382813,0.7324219,1.2749023,1.4541016c0.0366211,0.7207031-0.4267578,1.3730469-1.1201172,1.5761719
	c-1.0444336,0.3046875-1.3930664,0.6708984-1.4326172,0.7744141c0.015625,0.0029297,0.1679688,0.2626953,0.6503906,0.4833984
	c0.3393555,0.1542969,1.5668945,0.59375,3.1621094-0.2607422c0.7583008-0.4072266,1.7036133-0.1201172,2.1098633,0.6396484
	c0.4057617,0.7597656,0.1196289,1.7041016-0.6401367,2.1103516C27.8867188,51.890625,26.7348633,52.1386719,25.6943359,52.1386719z"
	/>
<g>
	<g>
		<g>
			
				<linearGradient id="SVGID_1_" gradientUnits="userSpaceOnUse" x1="27.2626514" y1="55.6805153" x2="30.5647488" y2="63.583889" gradientTransform="matrix(-0.2091274 -0.9779244 -0.9779244 0.2091274 70.9498596 62.4227753)">
				<stop  offset="0" style="stop-color:#FFFFFF;stop-opacity:0.8"/>
				<stop  offset="0.0690277" style="stop-color:#F5FBFE;stop-opacity:0.8"/>
				<stop  offset="0.1846193" style="stop-color:#DBF0FB;stop-opacity:0.8"/>
				<stop  offset="0.3326388" style="stop-color:#B1DEF5;stop-opacity:0.8"/>
				<stop  offset="0.5072739" style="stop-color:#77C5EE;stop-opacity:0.8"/>
				<stop  offset="0.7020245" style="stop-color:#2DA5E5;stop-opacity:0.8"/>
				<stop  offset="0.812121" style="stop-color:#0092DF;stop-opacity:0.8"/>
				<stop  offset="1" style="stop-color:#00D5FF;stop-opacity:0.8"/>
			</linearGradient>
			<path style="fill:url(#SVGID_1_);" d="M5.2574625,44.9317436c-1.9794335,0.3978271-2.8087633,1.4367561-2.5665209,2.4648819
				c0.2431679,1.0274887,1.4666021,1.6538353,3.4453318,1.2562981c1.9779749-0.3972588,6.9396791-3.3427734,6.9396791-3.3427734
				S7.2354832,44.5344734,5.2574625,44.9317436z"/>
			<path style="fill:#234E9E;" d="M5.2249093,44.7961845c2.0204253-0.4060249,7.703609,0.3417473,7.9447036,0.3734665
				l0.3640203,0.0485306l-0.3087015,0.183815c-0.2047682,0.121357-5.0369072,2.9807434-7.0566287,3.3864746
				c-1.9378576,0.3897171-3.4293706-0.1510201-3.7115195-1.3445053C2.1749907,46.2498398,3.2872269,45.1855698,5.2249093,44.7961845
				z M5.2888737,45.066494c-1.6827683,0.3384628-2.6100805,1.2342873-2.3621886,2.2829094
				c0.2475388,1.0482483,1.4951069,1.5068741,3.1776536,1.1687546c1.6097307-0.3234062,5.3882656-2.4658279,6.5063553-3.1147079
				C11.3013773,45.2431946,6.8985677,44.7431488,5.2888737,45.066494z"/>
		</g>
		<path style="fill:#FFFFFF;" d="M7.4217639,45.3395958c1.5049119-0.2519379,3.060761,0.2933006,2.7457767,0.4309464
			C9.3280697,46.1376572,5.8953047,45.593647,7.4217639,45.3395958z"/>
		
			<linearGradient id="SVGID_2_" gradientUnits="userSpaceOnUse" x1="36.459053" y1="60.9652481" x2="37.873436" y2="62.2649384" gradientTransform="matrix(0.151093 0.9885552 -0.9885552 0.151093 59.8227043 1.6785295)">
			<stop  offset="0" style="stop-color:#FFFFFF;stop-opacity:0"/>
			<stop  offset="1" style="stop-color:#FFFFFF"/>
		</linearGradient>
		<path style="fill:url(#SVGID_2_);" d="M3.3684456,46.2260818c-1.0135839,1.1205177,0.7201693,2.6989403,2.4886076,2.1167259
			c1.8073745-0.5946503-0.4202299-0.7181091-0.7875791-1.3145981C4.7006397,46.4324036,4.1026802,45.4156647,3.3684456,46.2260818z"
			/>
	</g>
	<g>
		<g>
			
				<linearGradient id="SVGID_3_" gradientUnits="userSpaceOnUse" x1="20.4579029" y1="57.5544662" x2="23.5443172" y2="64.9416122" gradientTransform="matrix(-0.6086812 -0.7934593 -0.7934593 0.6086812 69.7156525 34.0281029)">
				<stop  offset="0" style="stop-color:#FFFFFF;stop-opacity:0.8"/>
				<stop  offset="0.0690277" style="stop-color:#F5FBFE;stop-opacity:0.8"/>
				<stop  offset="0.1846193" style="stop-color:#DBF0FB;stop-opacity:0.8"/>
				<stop  offset="0.3326388" style="stop-color:#B1DEF5;stop-opacity:0.8"/>
				<stop  offset="0.5072739" style="stop-color:#77C5EE;stop-opacity:0.8"/>
				<stop  offset="0.7020245" style="stop-color:#2DA5E5;stop-opacity:0.8"/>
				<stop  offset="0.812121" style="stop-color:#0092DF;stop-opacity:0.8"/>
				<stop  offset="1" style="stop-color:#00D5FF;stop-opacity:0.8"/>
			</linearGradient>
			<path style="fill:url(#SVGID_3_);" d="M5.9782367,52.9175949c-1.4735126,1.2908325-1.749661,2.6727409-1.1480947,3.5531082
				c0.6020789,0.8793297,1.8540254,0.9225731,3.3270731-0.3676529c1.4725342-1.2896156,4.4039249-6.4039459,4.4039249-6.4039459
				S7.4508052,51.6279526,5.9782367,52.9175949z"/>
			<path style="fill:#234E9E;" d="M5.8984146,52.8017998c1.5040436-1.3175201,6.4740133-3.2011871,6.6848497-3.2810974
				l0.3185863-0.1200447l-0.1821651,0.318737c-0.1210566,0.2108688-2.9795055,5.1827621-4.4830847,6.4996758
				c-1.4424667,1.263958-2.8815622,1.4261322-3.5806589,0.4046021C3.956887,55.6013641,4.4559612,54.0653534,5.8984146,52.8017998z
				 M6.0568027,53.0331383c-1.2525716,1.0976143-1.6653428,2.3864403-1.0511084,3.2839851
				c0.6137972,0.8973427,1.8199954,0.7677956,3.0725183-0.3293877c1.198348-1.0496254,3.4701138-4.8472862,4.1365032-5.985424
				C11.0744143,50.4478683,7.2551451,51.9835892,6.0568027,53.0331383z"/>
		</g>
		<path style="fill:#FFFFFF;" d="M7.9190769,52.3189354c1.1400347-0.9326744,2.6338425-1.1199913,2.4284458-0.8428993
			C9.8002224,52.2147827,6.7621312,53.2635155,7.9190769,52.3189354z"/>
		
			<linearGradient id="SVGID_4_" gradientUnits="userSpaceOnUse" x1="43.6283493" y1="62.1349335" x2="45.1456528" y2="63.5291977" gradientTransform="matrix(0.5608298 0.8279737 -0.8279737 0.5608298 33.5896416 -16.0577087)">
			<stop  offset="0" style="stop-color:#FFFFFF;stop-opacity:0"/>
			<stop  offset="1" style="stop-color:#FFFFFF"/>
		</linearGradient>
		<path style="fill:url(#SVGID_4_);" d="M4.9298449,55.0314674c-0.3958769,1.5450287,1.6485224,2.2724419,2.8762484,0.9005165
			c1.2549086-1.4017601-0.6267796-0.4998512-1.1624608-0.9066658C6.1069965,54.6198463,5.2171173,53.9134903,4.9298449,55.0314674z"
			/>
	</g>
	<g>
		<g>
			
				<linearGradient id="SVGID_5_" gradientUnits="userSpaceOnUse" x1="15.8483772" y1="50.8454895" x2="18.8614998" y2="58.0572166" gradientTransform="matrix(-0.8426118 -0.5385868 -0.5385868 0.8426118 58.9140778 21.5204754)">
				<stop  offset="0" style="stop-color:#FFFFFF;stop-opacity:0.8"/>
				<stop  offset="0.0690277" style="stop-color:#F5FBFE;stop-opacity:0.8"/>
				<stop  offset="0.1846193" style="stop-color:#DBF0FB;stop-opacity:0.8"/>
				<stop  offset="0.3326388" style="stop-color:#B1DEF5;stop-opacity:0.8"/>
				<stop  offset="0.5072739" style="stop-color:#77C5EE;stop-opacity:0.8"/>
				<stop  offset="0.7020245" style="stop-color:#2DA5E5;stop-opacity:0.8"/>
				<stop  offset="0.812121" style="stop-color:#0092DF;stop-opacity:0.8"/>
				<stop  offset="1" style="stop-color:#00D5FF;stop-opacity:0.8"/>
			</linearGradient>
			<path style="fill:url(#SVGID_5_);" d="M13.0162811,57.8363953c-1.0112906,1.5399551-0.8688393,2.7445679-0.0461435,3.246727
				c0.8228769,0.5011482,2.0140743,0.1087494,3.0251036-1.4305573c1.010725-1.5386429,2.2810555-6.6482811,2.2810555-6.6482811
				S14.02703,56.297718,13.0162811,57.8363953z"/>
			<path style="fill:#234E9E;" d="M12.9074144,57.7705841c1.0322618-1.5718155,5.1625414-4.7810555,5.3377562-4.917202
				l0.2649651-0.2051506l-0.0786743,0.3182602c-0.0525589,0.2107468-1.2956982,5.1810455-2.3276978,6.7522163
				c-0.9898901,1.5077667-2.2974548,2.1290703-3.2530746,1.5467644
				C11.8948812,60.6825218,11.9174204,59.2780228,12.9074144,57.7705841z M13.1238918,57.9024315
				c-0.8595591,1.3093185-0.8728333,2.4857521-0.0332098,2.9973907c0.8391542,0.5116234,1.936965-0.0040054,2.7966042-1.3129616
				c0.8224878-1.2522545,1.8552599-5.0788612,2.1511755-6.2207489
				C17.0947094,54.1131783,13.9463959,56.650238,13.1238918,57.9024315z"/>
		</g>
		<path style="fill:#FFFFFF;" d="M14.6690884,56.6931763c0.8016481-1.1383858,2.1533966-1.7985649,2.0407238-1.5058327
			C16.4097023,55.9676743,13.8549881,57.8469009,14.6690884,56.6931763z"/>
		
			<linearGradient id="SVGID_6_" gradientUnits="userSpaceOnUse" x1="47.6851845" y1="54.9758301" x2="48.9757919" y2="56.1617813" gradientTransform="matrix(0.8093837 0.5873402 -0.5873402 0.8093837 7.8841963 -13.2592325)">
			<stop  offset="0" style="stop-color:#FFFFFF;stop-opacity:0"/>
			<stop  offset="1" style="stop-color:#FFFFFF"/>
		</linearGradient>
		<path style="fill:url(#SVGID_6_);" d="M12.6448822,59.8926392c0.07724,1.3765411,2.2137032,1.2635231,2.9699907-0.2577324
			c0.7731905-1.5545044-0.7356224-0.1877975-1.3583899-0.3319206
			C13.6332073,59.1602669,12.5897617,58.8963013,12.6448822,59.8926392z"/>
	</g>
</g>
<g>
</g>
<g>
</g>
<g>
</g>
<g>
</g>
<g>
</g>
<g>
</g>
</svg>
