<?xml version="1.0" encoding="UTF-8" standalone="no"?>
<!-- Generator: Adobe Illustrator 15.0.0, SVG Export Plug-In . SVG Version: 6.00 Build 0)  -->

<svg
   xmlns:dc="http://purl.org/dc/elements/1.1/"
   xmlns:cc="http://creativecommons.org/ns#"
   xmlns:rdf="http://www.w3.org/1999/02/22-rdf-syntax-ns#"
   xmlns:svg="http://www.w3.org/2000/svg"
   xmlns="http://www.w3.org/2000/svg"
   xmlns:sodipodi="http://sodipodi.sourceforge.net/DTD/sodipodi-0.dtd"
   xmlns:inkscape="http://www.inkscape.org/namespaces/inkscape"
   version="1.1"
   id="レイヤー_1"
   x="0px"
   y="0px"
   width="64px"
   height="64px"
   viewBox="0 0 64 64"
   enable-background="new 0 0 64 64"
   xml:space="preserve"
   inkscape:version="0.48.5 r10040"
   sodipodi:docname="snow_capped_mountain.svg"><metadata
     id="metadata46"><rdf:RDF><cc:Work
         rdf:about=""><dc:format>image/svg+xml</dc:format><dc:type
           rdf:resource="http://purl.org/dc/dcmitype/StillImage" /></cc:Work></rdf:RDF></metadata><defs
     id="defs44" /><sodipodi:namedview
     pagecolor="#ffffff"
     bordercolor="#666666"
     borderopacity="1"
     objecttolerance="10"
     gridtolerance="10"
     guidetolerance="10"
     inkscape:pageopacity="0"
     inkscape:pageshadow="2"
     inkscape:window-width="640"
     inkscape:window-height="480"
     id="namedview42" /><g
     id="g3"><linearGradient
       id="SVGID_1_"
       gradientUnits="userSpaceOnUse"
       x1="32.3335"
       y1="15.9165"
       x2="32.3335"
       y2="65.0865"><stop
         offset="0"
         style="stop-color:#7FC5FF"
         id="stop6" /><stop
         offset="1"
         style="stop-color:#004C9F"
         id="stop8" /></linearGradient><path
       fill="url(#SVGID_1_)"
       d="M-5,52.523c0,0,27.835-36.103,29.667-40.023l5.75-0.62l3.831,1.439l7.283-5.653   c0,0,7.387,15.919,9.552,17.833c0,0,7.679,16.631,18.584,18.637V67.75H-5V52.523z"
       id="path10" /><linearGradient
       id="SVGID_2_"
       gradientUnits="userSpaceOnUse"
       x1="34.084"
       y1="13.5835"
       x2="34.084"
       y2="35.5158"><stop
         offset="0"
         style="stop-color:#FFFFFF"
         id="stop13" /><stop
         offset="1"
         style="stop-color:#BFEBFF"
         id="stop15" /></linearGradient><polygon
       fill="url(#SVGID_2_)"
       points="10.167,32.667 24.667,12.5 31,11.333 34.248,13.319 41.651,7.931 50.13,24.304 58,36.361    47.833,31.583 41.917,38.917 27.333,25.132 25.417,26.417 14.583,35 13.75,31.333  "
       id="polygon17" /><path
       fill="#25487F"
       d="M69.667,68.75H-5l-1-1V52.523l0.208-0.61c9.604-12.457,28.141-36.814,29.553-39.836l0.799-0.571l5.75-0.62   l0.458,0.058l3.308,1.242l6.842-5.31l1.521,0.369c2.822,6.082,7.844,16.211,9.307,17.505l0.246,0.33   c0.074,0.162,7.592,16.185,17.856,18.073l0.819,0.983V67.75L69.667,68.75z M-4,66.75h72.667V44.943   c-10.37-2.575-17.538-17.018-18.412-18.854c-2.104-2.194-7.324-13.091-9.1-16.865l-6.294,4.885l-0.965,0.146L30.288,12.9   l-4.992,0.538C22.03,19.035-1.346,49.418-4,52.864V66.75z"
       id="path19" /><linearGradient
       id="SVGID_3_"
       gradientUnits="userSpaceOnUse"
       x1="29.6836"
       y1="37.4854"
       x2="52.4233"
       y2="66.7466"><stop
         offset="0"
         style="stop-color:#00537F"
         id="stop22" /><stop
         offset="1"
         style="stop-color:#00337F"
         id="stop24" /></linearGradient><polygon
       fill="url(#SVGID_3_)"
       points="35.626,42.167 42.875,53.417 53.209,63.417 39.209,54.084  "
       id="polygon26" /><linearGradient
       id="SVGID_4_"
       gradientUnits="userSpaceOnUse"
       x1="47.5703"
       y1="42.1895"
       x2="62.112"
       y2="60.9016"><stop
         offset="0"
         style="stop-color:#00537F"
         id="stop29" /><stop
         offset="1"
         style="stop-color:#00337F"
         id="stop31" /></linearGradient><polygon
       fill="url(#SVGID_4_)"
       points="51.5,45.083 56.187,56.333 62.75,58.667 57.25,52.333  "
       id="polygon33" /><linearGradient
       id="SVGID_5_"
       gradientUnits="userSpaceOnUse"
       x1="10.375"
       y1="38.1094"
       x2="10.375"
       y2="50.8207"><stop
         offset="0"
         style="stop-color:#7FBCFF"
         id="stop36" /><stop
         offset="1"
         style="stop-color:#008ADF"
         id="stop38" /></linearGradient><polygon
       fill="url(#SVGID_5_)"
       points="1.167,52.792 11.417,43.833 19.583,34.833 13,47.417  "
       id="polygon40" /></g></svg>