<?xml version="1.0" encoding="UTF-8" standalone="no"?>
<!-- Generator: Adobe Illustrator 18.0.0, SVG Export Plug-In . SVG Version: 6.00 Build 0)  -->

<svg
   xmlns:dc="http://purl.org/dc/elements/1.1/"
   xmlns:cc="http://creativecommons.org/ns#"
   xmlns:rdf="http://www.w3.org/1999/02/22-rdf-syntax-ns#"
   xmlns:svg="http://www.w3.org/2000/svg"
   xmlns="http://www.w3.org/2000/svg"
   xmlns:sodipodi="http://sodipodi.sourceforge.net/DTD/sodipodi-0.dtd"
   xmlns:inkscape="http://www.inkscape.org/namespaces/inkscape"
   version="1.1"
   id="レイヤー_1"
   x="0px"
   y="0px"
   width="64px"
   height="64px"
   viewBox="0 0 64 64"
   style="enable-background:new 0 0 64 64;"
   xml:space="preserve"
   inkscape:version="0.48.5 r10040"
   sodipodi:docname="snowman.svg"><metadata
     id="metadata171"><rdf:RDF><cc:Work
         rdf:about=""><dc:format>image/svg+xml</dc:format><dc:type
           rdf:resource="http://purl.org/dc/dcmitype/StillImage" /></cc:Work></rdf:RDF></metadata><defs
     id="defs169" /><sodipodi:namedview
     pagecolor="#ffffff"
     bordercolor="#666666"
     borderopacity="1"
     objecttolerance="10"
     gridtolerance="10"
     guidetolerance="10"
     inkscape:pageopacity="0"
     inkscape:pageshadow="2"
     inkscape:window-width="640"
     inkscape:window-height="480"
     id="namedview167" /><radialGradient
     id="SVGID_1_"
     cx="35"
     cy="60.4166489"
     r="18.9524002"
     gradientTransform="matrix(1 0 0 0.134959 0 52.2628784)"
     gradientUnits="userSpaceOnUse"><stop
       offset="0"
       style="stop-color:#595757;stop-opacity:0.8"
       id="stop4" /><stop
       offset="1"
       style="stop-color:#595757;stop-opacity:0"
       id="stop6" /></radialGradient><ellipse
     style="fill:url(#SVGID_1_);"
     cx="35"
     cy="60.4166985"
     rx="20"
     ry="2.9524"
     id="ellipse8" /><g
     id="g10"><polygon
       style="fill:#A3741F;"
       points="16.9144306,22.1562996 15.39188,22.1807003 15.4617996,26.5480003 14.5585699,27.3803997    5.9721899,24.8006992 5.5391302,26.2436008 14.9155302,29.0604992 22.0755997,36.8344002 23.8183994,35.2299995    17.0056801,27.8335991  "
       id="polygon12" /><radialGradient
       id="SVGID_2_"
       cx="15.9287567"
       cy="28.1203499"
       r="8.288393"
       gradientUnits="userSpaceOnUse"><stop
         offset="0"
         style="stop-color:#6A3906;stop-opacity:0.8"
         id="stop15" /><stop
         offset="0.458716"
         style="stop-color:#6A3906;stop-opacity:0"
         id="stop17" /></radialGradient><polygon
       style="fill:url(#SVGID_2_);"
       points="16.9144306,22.1562996 15.39188,22.1807003 15.4617996,26.5480003    14.5585699,27.3803997 5.9721899,24.8006992 5.5391302,26.2436008 14.9155302,29.0604992 22.0755997,36.8344002    23.8183994,35.2299995 17.0056801,27.8335991  "
       id="polygon19" /><radialGradient
       id="SVGID_3_"
       cx="6.3037882"
       cy="26.1203403"
       r="9.3392134"
       gradientTransform="matrix(0.9610478 0.2763822 -0.0390688 0.1358518 1.2660376 20.8295918)"
       gradientUnits="userSpaceOnUse"><stop
         offset="0"
         style="stop-color:#6A3906;stop-opacity:0.8"
         id="stop22" /><stop
         offset="1"
         style="stop-color:#6A3906;stop-opacity:0"
         id="stop24" /></radialGradient><polygon
       style="fill:url(#SVGID_3_);"
       points="16.9144306,22.1562996 15.39188,22.1807003 15.4617996,26.5480003    14.5585699,27.3803997 5.9721899,24.8006992 5.5391302,26.2436008 14.9155302,29.0604992 22.0755997,36.8344002    23.8183994,35.2299995 17.0056801,27.8335991  "
       id="polygon26" /><radialGradient
       id="SVGID_4_"
       cx="16.9912567"
       cy="22.2453232"
       r="5.6933408"
       gradientTransform="matrix(-0.0086499 0.9999626 -0.1413527 -0.0012227 20.2826653 5.2819014)"
       gradientUnits="userSpaceOnUse"><stop
         offset="0"
         style="stop-color:#6A3906;stop-opacity:0.8"
         id="stop29" /><stop
         offset="1"
         style="stop-color:#6A3906;stop-opacity:0"
         id="stop31" /></radialGradient><polygon
       style="fill:url(#SVGID_4_);"
       points="16.9144306,22.1562996 15.39188,22.1807003 15.4617996,26.5480003    14.5585699,27.3803997 5.9721899,24.8006992 5.5391302,26.2436008 14.9155302,29.0604992 22.0755997,36.8344002    23.8183994,35.2299995 17.0056801,27.8335991  "
       id="polygon33" /><radialGradient
       id="SVGID_5_"
       cx="19.1787548"
       cy="32.8703575"
       r="5.6933236"
       gradientTransform="matrix(0.6857587 0.727829 -0.1356018 0.1277637 10.4840384 14.7118654)"
       gradientUnits="userSpaceOnUse"><stop
         offset="0"
         style="stop-color:#6A3906;stop-opacity:0.8"
         id="stop36" /><stop
         offset="1"
         style="stop-color:#6A3906;stop-opacity:0"
         id="stop38" /></radialGradient><polygon
       style="fill:url(#SVGID_5_);"
       points="16.9144306,22.1562996 15.39188,22.1807003 15.4617996,26.5480003    14.5585699,27.3803997 5.9721899,24.8006992 5.5391302,26.2436008 14.9155302,29.0604992 22.0755997,36.8344002    23.8183994,35.2299995 17.0056801,27.8335991  "
       id="polygon40" /><path
       style="fill:#542607;"
       d="M22.2519531,37.0253906l-0.3676758-0.0146484l-7.1118164-7.7211914l-9.3081055-2.7963867   l-0.1748047-0.3242188l0.4331055-1.4428711l0.3242188-0.1748047l8.4443359,2.5371094l0.7084961-0.652832l-0.0678711-4.2504883   l0.2558594-0.2646484l1.5224609-0.0244141l0.2646484,0.2558594l0.0898438,5.578125l6.7451172,7.3237305l-0.0151367,0.3681641   L22.2519531,37.0253906z M5.8632813,26.0693359l9.1269531,2.7416992l0.1166992,0.0732422l6.9838867,7.581543l1.359375-1.2509766   l-6.6357422-7.2050781l-0.0688477-0.171875l-0.0874023-5.4169922l-1.0014648,0.0161133l0.0654297,4.1064453l-0.0839844,0.1958008   l-0.9033203,0.8325195l-0.2509766,0.0581055L6.1464844,25.125L5.8632813,26.0693359z"
       id="path42" /></g><radialGradient
     id="SVGID_6_"
     cx="33.3333359"
     cy="39.6285362"
     r="21.1777954"
     gradientTransform="matrix(1 0 0 0.9545 0 2.4472907)"
     gradientUnits="userSpaceOnUse"><stop
       offset="0.582569"
       style="stop-color:#FFFFFF"
       id="stop45" /><stop
       offset="0.857798"
       style="stop-color:#DCF3FF"
       id="stop47" /><stop
       offset="1"
       style="stop-color:#ABE2FF"
       id="stop49" /></radialGradient><ellipse
     style="fill:url(#SVGID_6_);"
     cx="35"
     cy="43.2955017"
     rx="17.5"
     ry="16.7045994"
     id="ellipse51" /><radialGradient
     id="SVGID_7_"
     cx="33.8095245"
     cy="15.5321388"
     r="16.3627205"
     gradientTransform="matrix(1 0 0 0.9545 0 2.4472907)"
     gradientUnits="userSpaceOnUse"><stop
       offset="0.582569"
       style="stop-color:#FFFFFF"
       id="stop54" /><stop
       offset="0.857798"
       style="stop-color:#DCF3FF"
       id="stop56" /><stop
       offset="1"
       style="stop-color:#ABE2FF"
       id="stop58" /></radialGradient><ellipse
     style="fill:url(#SVGID_7_);"
     cx="35"
     cy="19.4318199"
     rx="12.5"
     ry="11.9318199"
     id="ellipse60" /><g
     id="g62"><ellipse
       transform="matrix(0.9997475 0.0224728 -0.0224728 0.9997475 0.3891615 -0.63613)"
       style="fill:#5CB7CC;"
       cx="28.4976997"
       cy="16.9967651"
       rx="1.845566"
       ry="2.8143146"
       id="ellipse64" /><ellipse
       transform="matrix(0.9997475 0.0224728 -0.0224728 0.9997475 0.3968762 -0.8651679)"
       style="fill:#5CB7CC;"
       cx="38.6919518"
       cy="17.2254448"
       rx="1.845116"
       ry="2.8147945"
       id="ellipse66" /></g><g
     id="g68"><path
       style="fill:#FFFFFF;"
       d="M29.6907997,23.5121002c0,0,3.0591011,3.9419003,7.172802,0.1613007"
       id="path70" /><path
       style="fill:#5CB7CC;"
       d="M33.2685547,25.7792969c-0.125,0-0.2490234-0.0053711-0.3730469-0.015625   c-2.1655273-0.1816406-3.5166016-1.8930664-3.5727539-1.9658203l0.7358398-0.5722656   c0.0112305,0.0146484,1.1689453,1.4667969,2.9238281,1.6098633c1.1679688,0.0927734,2.375-0.4111328,3.5654297-1.5053711   l0.6308594,0.6865234C35.9052734,25.1875,34.5908203,25.7792969,33.2685547,25.7792969z"
       id="path72" /></g><path
     style="fill:#5A96B3;"
     d="M35,7.5c6.9035988,0,12.5,5.342041,12.5,11.9318199  c0,3.632782-1.706501,6.8804817-4.3894997,9.0689812C48.6889992,31.2932014,52.5,36.8656998,52.5,43.2954025  C52.5,52.5210991,44.6650009,60,35,60s-17.5-7.4789009-17.5-16.7045975c0-6.4297028,3.8110409-12.0022011,9.3894997-14.7946014  C24.2064991,26.3123016,22.5,23.0646019,22.5,19.4318199C22.5,12.842041,28.0963993,7.5,35,7.5 M35,6.75  c-7.3060703,0-13.25,5.6890411-13.25,12.6818199c0,3.3543129,1.3867073,6.5478706,3.8392277,8.9166641  C20.1099586,31.5024757,16.75,37.1368637,16.75,43.2954025C16.75,52.919899,24.9369202,60.75,35,60.75  s18.25-7.830101,18.25-17.4545975c0-6.1585541-3.359951-11.7929535-8.8392296-14.9469185  C46.8632927,25.9796906,48.25,22.7861328,48.25,19.4318199C48.25,12.4390411,42.3060684,6.75,35,6.75L35,6.75z"
     id="path74" /><g
     id="g76"><g
       id="g78"><radialGradient
         id="SVGID_8_"
         cx="33.2740746"
         cy="-0.9764935"
         r="13.4736586"
         gradientTransform="matrix(0.8769 0.0525 0.0212 0.7732 2.3616788 -0.1825)"
         gradientUnits="userSpaceOnUse"><stop
           offset="0"
           style="stop-color:#B04C32"
           id="stop81" /><stop
           offset="0.2964319"
           style="stop-color:#AA452D"
           id="stop83" /><stop
           offset="0.7222891"
           style="stop-color:#9A3220"
           id="stop85" /><stop
           offset="1"
           style="stop-color:#8C2214"
           id="stop87" /></radialGradient><path
         style="fill:url(#SVGID_8_);"
         d="M30.6889992,6.78723c0,0,2.3526001-4.8259301,5.3356018-4.7933302    c2.9829979,0.03258,8.4953995,1.6774601,9.5593987,4.2245703c1.0639,2.5471101,0.1366005,4.9749627,0.1366005,4.9749627    S36.6226997,4.7527399,30.6889992,6.78723z"
         id="path89" /><path
         style="fill:#8C2214;"
         d="M45.8388672,11.5834961l-0.2626953-0.1860352    c-0.0673828-0.0478516-6.7871094-4.7578125-12.3134766-4.7578125c-0.9111328,0-1.75,0.1293945-2.4926758,0.3837891    L30.2001953,7.21875l0.2641602-0.5410156c0.0981445-0.2016602,2.4414063-4.9335938,5.5297852-4.9335938    c2.8232422,0.0302734,8.6425781,1.5600586,9.8203125,4.3779297c1.0898438,2.609375,0.1787109,5.0576172,0.1396484,5.1606445    L45.8388672,11.5834961z M33.2626953,6.1396484c5.0996094,0,10.9619141,3.7402344,12.3203125,4.6557617    c0.1972656-0.7167969,0.5654297-2.5761719-0.2294922-4.480957c-0.9667969-2.3129883-6.2451172-4.0371094-9.3320313-4.0703125    c-2.2324219,0-4.1342773,2.9208984-4.8276367,4.1342773C31.8334961,6.2197266,32.5268555,6.1396484,33.2626953,6.1396484z"
         id="path91" /></g><g
       id="g93"><radialGradient
         id="SVGID_9_"
         cx="32.1628189"
         cy="1.0212138"
         r="14.9432459"
         gradientTransform="matrix(0.8769 0.0525 0.0212 0.7732 2.3616788 -0.1825)"
         gradientUnits="userSpaceOnUse"><stop
           offset="0"
           style="stop-color:#D9D84B"
           id="stop96" /><stop
           offset="0.1863301"
           style="stop-color:#D4D147"
           id="stop98" /><stop
           offset="0.4547813"
           style="stop-color:#C4BE3C"
           id="stop100" /><stop
           offset="0.7712955"
           style="stop-color:#AC9F2A"
           id="stop102" /><stop
           offset="1"
           style="stop-color:#96841A"
           id="stop104" /></radialGradient><path
         style="fill:url(#SVGID_9_);"
         d="M29.5534992,6.3557401c0,0,1.6689014-2.98786,4.296999-2.92696    c3.8587036,0.0894299,11.2962036,2.4811697,12.6712036,5.7726903c1.374897,3.2915277,0.726799,3.9071798,0.726799,3.9071798    S41.6650009,5.0547299,29.5534992,6.3557401z"
         id="path106" /><path
         style="fill:#665B11;"
         d="M47.2089844,13.4907227l-0.1660156-0.2392578    c-0.0478516-0.0678711-4.8349609-6.7875977-14.8823242-6.7875977c-0.8422852,0-1.7104492,0.0473633-2.5800781,0.140625    L29.0996094,6.65625l0.2358398-0.4223633c0.0698242-0.1245117,1.7373047-3.0561523,4.4360352-3.0561523l0.0849609,0.0009766    c3.7089844,0.0859375,11.4228516,2.4013672,12.8955078,5.9267578c1.3720703,3.2841797,0.7978516,4.0620117,0.6679688,4.1845703    L47.2089844,13.4907227z M32.1606445,5.9638672c8.8764648,0,13.762207,5.1298828,14.9848633,6.6088867    c0.0292969-0.4580078-0.078125-1.4165039-0.8544922-3.2749023c-1.2832031-3.0712891-8.4345703-5.5263672-12.4462891-5.6191406    l-0.0732422-0.0009766c-1.8242188,0-3.1743164,1.597168-3.7260742,2.3793945    C30.7587891,5.9951172,31.4682617,5.9638672,32.1606445,5.9638672z"
         id="path108" /></g><g
       id="g110"><radialGradient
         id="SVGID_10_"
         cx="23.6256847"
         cy="1.6839839"
         r="21.6482811"
         gradientUnits="userSpaceOnUse"><stop
           offset="0"
           style="stop-color:#B04C32"
           id="stop113" /><stop
           offset="0.2964319"
           style="stop-color:#AA452D"
           id="stop115" /><stop
           offset="0.7222891"
           style="stop-color:#9A3220"
           id="stop117" /><stop
           offset="1"
           style="stop-color:#8C2214"
           id="stop119" /></radialGradient><path
         style="fill:url(#SVGID_10_);"
         d="M28.1667004,8.5c0,0,5.2082996-1.5,11.3332996,1.375    c7.1467018,3.3545599,7.8333015,5.625,7.8333015,5.625S62.5,17,45.375,9C26.125-1.25,13,3.75,28.1667004,8.5z"
         id="path121" /><path
         style="fill:#8C2214;"
         d="M49.7548828,15.8613281L49.7548828,15.8613281    c-1.2910156,0-2.4355469-0.1113281-2.4462891-0.1123047l-0.1669922-0.0166016L47.09375,15.5722656    c-0.0068359-0.0185547-0.8095703-2.2363281-7.7001953-5.4711914c-2.4628906-1.1557617-5.0615234-1.7421875-7.7241211-1.7421875    c-2.0786133,0-3.4204102,0.3774414-3.434082,0.3813477l-0.0717773,0.0205078l-0.0717773-0.0219727    c-4.5131836-1.4135742-6.9824219-3.0058594-6.7739258-4.3686523c0.1567383-1.0268555,1.7543945-1.6157227,4.3828125-1.6157227    c1.9887695,0,9.2924805,0.4345703,19.7915039,6.0249023c7.7714844,3.6298828,8.4404297,5.0913086,8.2666016,5.8745117    C53.578125,15.4663086,52.2685547,15.8613281,49.7548828,15.8613281z M47.5029297,15.2641602    c0.34375,0.0292969,1.2529297,0.097168,2.2519531,0.097168c3.09375,0.0004883,3.4736328-0.6245117,3.515625-0.815918    c0.0957031-0.4306641-0.4921875-1.8110352-8.0009766-5.3188477c-10.4091797-5.5419922-17.609375-5.972168-19.5688477-5.972168    c-2.7358398,0-3.8046875,0.6416016-3.8886719,1.1914063c-0.1206055,0.7895508,1.4746094,2.2548828,6.3598633,3.7939453    c0.3164063-0.0820313,1.5981445-0.3808594,3.4975586-0.3808594c2.7358398,0,5.4067383,0.6020508,7.9370117,1.7900391    C45.7841797,12.5488281,47.2089844,14.6723633,47.5029297,15.2641602z"
         id="path123" /></g></g><g
     id="g125"><radialGradient
       id="SVGID_11_"
       cx="29.8450127"
       cy="31.8379078"
       r="4.5442758"
       gradientTransform="matrix(0.8664368 0.0091332 -0.051369 1.0049794 6.0605206 0.0643629)"
       gradientUnits="userSpaceOnUse"><stop
         offset="0"
         style="stop-color:#B04C32"
         id="stop128" /><stop
         offset="0.2964319"
         style="stop-color:#AA452D"
         id="stop130" /><stop
         offset="0.7222891"
         style="stop-color:#9A3220"
         id="stop132" /><stop
         offset="1"
         style="stop-color:#8C2214"
         id="stop134" /></radialGradient><path
       style="fill:url(#SVGID_11_);"
       d="M33.5960999,35.8451004c-0.2260017,1.3016014-1.3204994,2.1984978-2.4445992,2.0032997   c-1.1242008-0.1952019-1.8522015-1.4085999-1.6262016-2.7102013c0.2260017-1.3015976,1.3206005-2.198597,2.4447002-2.0033989   C33.094101,33.3300018,33.8222008,34.543499,33.5960999,35.8451004z"
       id="path136" /><path
       style="fill:#8C2214;"
       d="M31.4604492,38c-0.1103516,0-0.2216797-0.0087891-0.3305664-0.0283203   c-0.5800781-0.1005859-1.0786133-0.4550781-1.4047852-0.9990234c-0.3227539-0.5380859-0.4375-1.1962891-0.3227539-1.8554688   c0.2114258-1.2167969,1.1821289-2.1342773,2.2587891-2.1342773c0.1103516,0,0.2216797,0.0097656,0.3305664,0.0288086   c0.5795898,0.1005859,1.0786133,0.4560547,1.4047852,0.9990234c0.3222656,0.5380859,0.4375,1.1972656,0.3222656,1.8554688   C33.5078125,37.0830078,32.5371094,38,31.4604492,38z M31.6611328,33.2333984c-0.956543,0-1.8217773,0.828125-2.0126953,1.9267578   c-0.1040039,0.5996094-0.0009766,1.1972656,0.2910156,1.6835938c0.2880859,0.4804688,0.7260742,0.7939453,1.2333984,0.8818359   C31.2675781,37.7421875,31.3642578,37.75,31.4604492,37.75c0.956543,0,1.8217773-0.828125,2.012207-1.9267578   c0.1044922-0.5996094,0.0009766-1.1972656-0.2910156-1.6835938c-0.2875977-0.4804688-0.7255859-0.7939453-1.2329102-0.8818359   C31.8540039,33.2412109,31.7573242,33.2333984,31.6611328,33.2333984z"
       id="path138" /></g><g
     id="g140"><radialGradient
       id="SVGID_12_"
       cx="31.1049061"
       cy="39.4614334"
       r="4.544518"
       gradientTransform="matrix(0.8636 0.0091 -0.0105001 0.99991 2.4751041 -0.4198946)"
       gradientUnits="userSpaceOnUse"><stop
         offset="0"
         style="stop-color:#B04C32"
         id="stop143" /><stop
         offset="0.2964319"
         style="stop-color:#AA452D"
         id="stop145" /><stop
         offset="0.7222891"
         style="stop-color:#9A3220"
         id="stop147" /><stop
         offset="1"
         style="stop-color:#8C2214"
         id="stop149" /></radialGradient><path
       style="fill:url(#SVGID_12_);"
       d="M32.7565994,42.2546005c-0.0137978,1.3210983-0.9499989,2.3821983-2.0908985,2.3703003   c-1.1408005-0.012001-2.0545006-1.0926018-2.0406017-2.4137001c0.0139008-1.3209991,0.9500008-2.3822021,2.0909004-2.3702011   S32.7705002,40.9336014,32.7565994,42.2546005z"
       id="path151" /><path
       style="fill:#8C2214;"
       d="M30.684082,44.75h-0.0200195c-0.5883789-0.0058594-1.1376953-0.2763672-1.5473633-0.7597656   C28.7124023,43.5107422,28.4931641,42.8789063,28.5,42.2099609c0.0146484-1.3759766,1.0004883-2.4941406,2.1972656-2.4941406   c0.6083984,0.0058594,1.1582031,0.2763672,1.5673828,0.7597656c0.4047852,0.4794922,0.6240234,1.1113281,0.6171875,1.7802734   C32.8671875,43.6318359,31.8813477,44.75,30.684082,44.75z M30.7143555,39.9658203   c-1.0776367,0-1.9511719,1.0078125-1.9643555,2.2460938c-0.0063477,0.609375,0.1918945,1.1835938,0.5581055,1.6162109   c0.3613281,0.4277344,0.84375,0.6669922,1.3588867,0.671875l0.0170898,0.125V44.5   c1.0610352,0,1.9345703-1.0078125,1.9477539-2.2460938c0.0063477-0.609375-0.1918945-1.1835938-0.5581055-1.6162109   C31.7124023,40.2099609,31.2294922,39.9707031,30.7143555,39.9658203z"
       id="path153" /></g><g
     id="g155" /><g
     id="g157" /><g
     id="g159" /><g
     id="g161" /><g
     id="g163" /><g
     id="g165" /></svg>