<?xml version="1.0" encoding="utf-8"?>
<!-- Generator: Adobe Illustrator 17.0.0, SVG Export Plug-In . SVG Version: 6.00 Build 0)  -->
<!DOCTYPE svg PUBLIC "-//W3C//DTD SVG 1.1//EN" "http://www.w3.org/Graphics/SVG/1.1/DTD/svg11.dtd">
<svg version="1.1" id="レイヤー_1" xmlns="http://www.w3.org/2000/svg" xmlns:xlink="http://www.w3.org/1999/xlink" x="0px"
	 y="0px" width="64px" height="64px" viewBox="0 0 64 64" style="enable-background:new 0 0 64 64;" xml:space="preserve">
<linearGradient id="SVGID_1_" gradientUnits="userSpaceOnUse" x1="18.012104" y1="-4.9007359" x2="45.1785355" y2="66.7657013">
	<stop  offset="0" style="stop-color:#FFCC91"/>
	<stop  offset="0.2750012" style="stop-color:#F8B87D"/>
	<stop  offset="0.8372955" style="stop-color:#E68348"/>
	<stop  offset="1" style="stop-color:#E07338"/>
</linearGradient>
<circle style="fill:url(#SVGID_1_);" cx="31.9999809" cy="32" r="28.9443207"/>
<path style="fill:#B76658;" d="M32.0009766,61.3291016C15.828125,61.3291016,2.6708984,48.171875,2.6708984,32
	c0-16.1723633,13.1572266-29.3291016,29.3300781-29.3291016c16.171875,0,29.328125,13.1567383,29.328125,29.3291016
	C61.3291016,48.171875,48.1728516,61.3291016,32.0009766,61.3291016z M32.0009766,5.1708984
	C17.2070313,5.1708984,5.1708984,17.206543,5.1708984,32c0,14.7939453,12.0361328,26.8291016,26.8300781,26.8291016
	c14.7929688,0,26.828125-12.0351563,26.828125-26.8291016C58.8291016,17.206543,46.7939453,5.1708984,32.0009766,5.1708984z"/>
<path style="fill:#440E00;" d="M32,62.1933594C15.3505859,62.1933594,1.8056641,48.6484375,1.8056641,32
	S15.3505859,1.8066406,32,1.8066406S62.1943359,15.3515625,62.1943359,32S48.6494141,62.1933594,32,62.1933594z M32,4.3066406
	C16.7294922,4.3066406,4.3056641,16.7299805,4.3056641,32c0,15.2705078,12.4238281,27.6933594,27.6943359,27.6933594
	S59.6943359,47.2705078,59.6943359,32C59.6943359,16.7299805,47.2705078,4.3066406,32,4.3066406z"/>
<path style="fill:#440E00;" d="M49.6044922,16.7392578c-0.3544922-0.0258789-8.734375-0.6748047-13.4980469-3.6503906
	l1.0585938-1.6962891c4.3496094,2.7163086,12.5048828,3.3461914,12.5859375,3.3525391L49.6044922,16.7392578z"/>
<g>
	<path style="fill:#973344;" d="M46.375,51.7578011c-1.8270988,4.1875-6.2089996,1.4375-13.8676987,1.4375
		s-11.7573013,3.125-13.8677006-1.4375C17.1763,48.5937996,22.625,42.1641006,32,42.1641006
		C42.25,42.1641006,47.7695007,48.5625,46.375,51.7578011z"/>
	<path style="fill:#440E00;" d="M22.4912109,55.2392578c-2.3120117,0-3.7797852-0.9443359-4.7592773-3.0615234
		c-0.6157227-1.3310547-0.3481445-3.0654297,0.7338867-4.7578125C20.3105469,44.5341797,24.9624023,41.1640625,32,41.1640625
		c7.6523438,0,12.5986328,3.4082031,14.5097656,6.3261719c1.0908203,1.6660156,1.3681641,3.3242188,0.7822266,4.6679688
		c-1.1308594,2.5908203-3.1474609,2.9238281-4.7763672,2.9238281c-1.0732422,0-2.2724609-0.1640625-3.6611328-0.3535156
		c-1.8339844-0.25-3.9130859-0.5332031-6.347168-0.5332031c-2.4804688,0-4.5561523,0.3349609-6.3876953,0.6308594
		C24.7475586,55.0478516,23.5629883,55.2392578,22.4912109,55.2392578z M32,43.1640625
		c-5.8300781,0-10.1523438,2.6787109-11.8491211,5.3339844c-0.6967773,1.0888672-0.9223633,2.1513672-0.6035156,2.8398438
		c0.7353516,1.5908203,1.6362305,1.9013672,2.9438477,1.9013672c0.9111328,0,2.0224609-0.1796875,3.3095703-0.3876953
		c1.8115234-0.2919922,4.0654297-0.65625,6.706543-0.65625c2.5698242,0,4.8139648,0.3056641,6.6166992,0.5517578
		c1.3164063,0.1796875,2.4541016,0.3349609,3.3916016,0.3349609c1.6171875,0,2.3876953-0.4511719,2.9423828-1.7246094
		c0.3037109-0.6943359,0.0761719-1.7041016-0.6220703-2.7714844C43.1982422,46.0849609,38.8544922,43.1640625,32,43.1640625z"/>
</g>
<path style="fill:#440E00;" d="M12.7172852,17.7734375l-0.2412109-1.9853516
	c3.6254883-0.4414063,9.9560547-1.7070313,11.5078125-3.2241211l1.3979492,1.4306641
	C22.8388672,16.4799805,13.7456055,17.6484375,12.7172852,17.7734375z"/>
<g>
	<g>
		<linearGradient id="SVGID_2_" gradientUnits="userSpaceOnUse" x1="13.1043425" y1="29.2314224" x2="28.5312004" y2="57.604351">
			<stop  offset="0" style="stop-color:#50BEDF"/>
			<stop  offset="0.156303" style="stop-color:#4DB6DA;stop-opacity:0.9531091"/>
			<stop  offset="0.3982337" style="stop-color:#44A0CE;stop-opacity:0.8805299"/>
			<stop  offset="0.6954401" style="stop-color:#357DB9;stop-opacity:0.7913679"/>
			<stop  offset="1" style="stop-color:#2351A0;stop-opacity:0.7"/>
		</linearGradient>
		<path style="fill:url(#SVGID_2_);" d="M23.7803001,60.1875c-5.1401997-1.0956993-8.6563005-4.625-8.6563005-4.625V28.1333008
			L23.7803001,26.25C23.7803001,26.25,24.2094994,48.4375,23.7803001,60.1875z"/>
		<path style="fill:#234E9E;" d="M24.2583008,60.8007813l-0.5820313-0.1240234
			c-5.2255859-1.1142578-8.7587891-4.6132813-8.90625-4.7617188l-0.1459961-0.1455078V27.7304688l9.6445313-2.0981445
			l0.0117188,0.6079102c0.0043945,0.222168,0.4243164,22.3359375-0.0004883,33.9658203L24.2583008,60.8007813z
			 M15.6240234,55.3476563c0.6738281,0.6230469,3.6210938,3.1767578,7.6777344,4.2138672
			c0.3515625-10.6298828,0.0527344-29.1132813-0.0102539-32.6933594l-7.6674805,1.6679688V55.3476563z"/>
	</g>
	<linearGradient id="SVGID_3_" gradientUnits="userSpaceOnUse" x1="17" y1="27" x2="17" y2="55">
		<stop  offset="0" style="stop-color:#FFFFFF;stop-opacity:0.2"/>
		<stop  offset="0.5" style="stop-color:#FFFFFF;stop-opacity:0.3"/>
		<stop  offset="1" style="stop-color:#FFFFFF;stop-opacity:0"/>
	</linearGradient>
	<rect x="16" y="27" style="fill:url(#SVGID_3_);" width="2" height="28"/>
	<g>
		<linearGradient id="SVGID_4_" gradientUnits="userSpaceOnUse" x1="36.1096535" y1="28.4847031" x2="50.6444893" y2="55.2170334">
			<stop  offset="0" style="stop-color:#50BEDF"/>
			<stop  offset="0.156303" style="stop-color:#4DB6DA;stop-opacity:0.9531091"/>
			<stop  offset="0.3982337" style="stop-color:#44A0CE;stop-opacity:0.8805299"/>
			<stop  offset="0.6954401" style="stop-color:#357DB9;stop-opacity:0.7913679"/>
			<stop  offset="1" style="stop-color:#2351A0;stop-opacity:0.7"/>
		</linearGradient>
		<path style="fill:url(#SVGID_4_);" d="M48.8759995,55.875c0,0-5.0009995,3.75-8.6562996,4c0.0303001-6.4150009,0-33.625,0-33.625
			l8.6562996,1.8833008V55.875z"/>
		<path style="fill:#234E9E;" d="M39.7167969,60.4101563l0.0029297-0.5371094c0.0302734-6.3408203,0-33.3505859,0-33.6225586
			L39.71875,25.6293945l9.6572266,2.1010742V56.125l-0.2001953,0.1503906
			c-0.2089844,0.15625-5.1621094,3.8417969-8.921875,4.0986328L39.7167969,60.4101563z M40.7207031,26.8706055
			c0.0039063,3.9760742,0.0253906,25.8461914,0.0009766,32.4448242c2.9980469-0.4697266,6.7539063-3.0507813,7.6542969-3.6953125
			V28.5361328L40.7207031,26.8706055z"/>
	</g>
	<linearGradient id="SVGID_5_" gradientUnits="userSpaceOnUse" x1="42" y1="27" x2="42" y2="55">
		<stop  offset="0" style="stop-color:#FFFFFF;stop-opacity:0.2"/>
		<stop  offset="0.5" style="stop-color:#FFFFFF;stop-opacity:0.3"/>
		<stop  offset="1" style="stop-color:#FFFFFF;stop-opacity:0"/>
	</linearGradient>
	<rect x="41" y="27" style="fill:url(#SVGID_5_);" width="2" height="28"/>
</g>
<polygon style="fill:#440E00;" points="14.5947266,30.2749023 13.6552734,27.4257813 19.8969727,25.3676758 12.8178711,21.7524414 
	14.1821289,19.0805664 27.6635742,25.965332 "/>
<polygon style="fill:#440E00;" points="49.3222656,30.2749023 36.2529297,25.965332 49.734375,19.0805664 51.0996094,21.7524414 
	44.0205078,25.3676758 50.2617188,27.4257813 "/>
<g>
</g>
<g>
</g>
<g>
</g>
<g>
</g>
<g>
</g>
<g>
</g>
</svg>
