<?xml version="1.0" encoding="utf-8"?>
<!-- Generator: Adobe Illustrator 15.0.2, SVG Export Plug-In . SVG Version: 6.00 Build 0)  -->
<!DOCTYPE svg PUBLIC "-//W3C//DTD SVG 1.1//EN" "http://www.w3.org/Graphics/SVG/1.1/DTD/svg11.dtd">
<svg version="1.1" id="レイヤー_1" xmlns="http://www.w3.org/2000/svg" xmlns:xlink="http://www.w3.org/1999/xlink" x="0px"
	 y="0px" width="64px" height="64px" viewBox="0 0 64 64" style="enable-background:new 0 0 64 64;" xml:space="preserve">
<g>
	<path style="fill:#16DD00;" d="M50.2050781,62.2050781c6.6269531,0,12-5.3730469,12-12V13.7949219c0-6.6279297-5.3730469-12-12-12
		H13.7949219c-6.6269531,0-12,5.3720703-12,12v36.4101563c0,6.6269531,5.3730469,12,12,12H50.2050781z"/>
</g>
<g>
	<g>
		<path style="fill:#FFFFFF;" d="M50.3066406,41.5908203c-2.6367188,2.1787109-5.8105469,3.2685547-9.5205078,3.2685547h-0.4501953
			v-1.46875c2.8896484-0.2050781,5.1708984-1.1044922,6.84375-2.6992188
			c1.7685547-1.6894531,2.6533203-3.9550781,2.6533203-6.796875c0-2.984375-0.9638672-5.4628906-2.8896484-7.4365234
			c-1.9257813-1.9726563-4.3730469-2.9599609-7.3417969-2.9599609c-2.6367188,0-5.1386719,0.8291016-7.5068359,2.4863281
			c-2.6367188,1.8164063-3.9550781,3.9873047-3.9550781,6.5126953c0,1.1367188,0.3828125,2.1708984,1.1489258,3.1025391
			c0.765625,0.9316406,1.7089844,1.3974609,2.8295898,1.3974609c1.0263672,0,1.8632813-0.3828125,2.5107422-1.1484375
			s0.9707031-1.6699219,0.9707031-2.7119141c0-0.3476563-0.0556641-0.7578125-0.1660156-1.2314453l1.4208984-0.4501953
			c0.3164063,1.0263672,0.4736328,2.0048828,0.4736328,2.9365234c0,1.7998047-0.4814453,3.3154297-1.4443359,4.546875
			c-1.0419922,1.3427734-2.4316406,2.0136719-4.1679688,2.0136719c-2.1787109,0-3.9311523-1.1367188-5.2573242-3.4101563
			c-1.847168,4.8779297-6.3310547,7.3173828-13.4516602,7.3173828H9.5019531v-1.46875
			c1.199707,0,2.3447266-1.3964844,3.434082-4.1914063l0.449707-1.1601563
			c0.5844727-1.484375,1.1367188-2.5263672,1.6577148-3.1259766c0.6000977-0.6953125,1.5869141-1.3105469,2.9604492-1.8476563
			c-4.6889648-0.5683594-7.0336914-2.8183594-7.0336914-6.7490234c0-2.1630859,0.8764648-3.9238281,2.6289063-5.28125
			c1.6103516-1.2626953,3.5283203-1.8945313,5.7543945-1.8945313c3.4580078,0,6.2524414,1.5078125,8.3837891,4.5234375
			l-1.2788086,0.9941406c-1.3896484-1.7519531-3.0708008-2.6279297-5.0444336-2.6279297
			c-1.515625,0-2.8339844,0.4814453-3.9550781,1.4443359c-1.184082,1.0107422-1.7758789,2.265625-1.7758789,3.765625
			c0,1.1992188,0.449707,2.1787109,1.3496094,2.9365234c0.8525391,0.7099609,1.8867188,1.0654297,3.1025391,1.0654297
			c1.9736328,0,4.1835938-1.0419922,6.6308594-3.1259766l0.9711914-0.8291016
			c2.1469727-1.8310547,4.4755859-3.2675781,6.9863281-4.3095703c2.6201172-1.1054688,5.0439453-1.6582031,7.2705078-1.6582031
			c3.4414063,0,6.3544922,1.0185547,8.7382813,3.0546875c2.5107422,2.1318359,3.765625,4.8867188,3.765625,8.265625
			C54.4980469,36.2861328,53.1005859,39.2705078,50.3066406,41.5908203z M25.605957,31.1943359
			c-2.1157227,1.1689453-3.6552734,2.1708984-4.6181641,3.0078125c-1.3105469,1.1689453-2.3603516,2.6523438-3.1499023,4.4521484
			l-0.331543,0.7578125c-0.8051758,1.8320313-1.7207031,3.1503906-2.7470703,3.9550781
			c7.3574219-0.3789063,10.9804688-3.9785156,10.8701172-10.7988281L25.605957,31.1943359z"/>
	</g>
</g>
<g>
	<path style="fill:#16DD00;" d="M50.2050781,62.2050781c6.6269531,0,12-5.3730469,12-12V13.7949219c0-6.6279297-5.3730469-12-12-12
		H13.7949219c-6.6269531,0-12,5.3720703-12,12v36.4101563c0,6.6269531,5.3730469,12,12,12H50.2050781z"/>
</g>
<g>
	<g>
		<path style="fill:#FFFFFF;" d="M50.3066406,41.5908203c-2.6367188,2.1787109-5.8105469,3.2685547-9.5205078,3.2685547h-0.4501953
			v-1.46875c2.8896484-0.2050781,5.1708984-1.1044922,6.84375-2.6992188
			c1.7685547-1.6894531,2.6533203-3.9550781,2.6533203-6.796875c0-2.984375-0.9638672-5.4628906-2.8896484-7.4365234
			c-1.9257813-1.9726563-4.3730469-2.9599609-7.3417969-2.9599609c-2.6367188,0-5.1386719,0.8291016-7.5068359,2.4863281
			c-2.6367188,1.8164063-3.9550781,3.9873047-3.9550781,6.5126953c0,1.1367188,0.3828125,2.1708984,1.1489258,3.1025391
			c0.765625,0.9316406,1.7089844,1.3974609,2.8295898,1.3974609c1.0263672,0,1.8632813-0.3828125,2.5107422-1.1484375
			s0.9707031-1.6699219,0.9707031-2.7119141c0-0.3476563-0.0556641-0.7578125-0.1660156-1.2314453l1.4208984-0.4501953
			c0.3164063,1.0263672,0.4736328,2.0048828,0.4736328,2.9365234c0,1.7998047-0.4814453,3.3154297-1.4443359,4.546875
			c-1.0419922,1.3427734-2.4316406,2.0136719-4.1679688,2.0136719c-2.1787109,0-3.9311523-1.1367188-5.2573242-3.4101563
			c-1.847168,4.8779297-6.3310547,7.3173828-13.4516602,7.3173828H9.5019531v-1.46875
			c1.199707,0,2.3447266-1.3964844,3.434082-4.1914063l0.449707-1.1601563
			c0.5844727-1.484375,1.1367188-2.5263672,1.6577148-3.1259766c0.6000977-0.6953125,1.5869141-1.3105469,2.9604492-1.8476563
			c-4.6889648-0.5683594-7.0336914-2.8183594-7.0336914-6.7490234c0-2.1630859,0.8764648-3.9238281,2.6289063-5.28125
			c1.6103516-1.2626953,3.5283203-1.8945313,5.7543945-1.8945313c3.4580078,0,6.2524414,1.5078125,8.3837891,4.5234375
			l-1.2788086,0.9941406c-1.3896484-1.7519531-3.0708008-2.6279297-5.0444336-2.6279297
			c-1.515625,0-2.8339844,0.4814453-3.9550781,1.4443359c-1.184082,1.0107422-1.7758789,2.265625-1.7758789,3.765625
			c0,1.1992188,0.449707,2.1787109,1.3496094,2.9365234c0.8525391,0.7099609,1.8867188,1.0654297,3.1025391,1.0654297
			c1.9736328,0,4.1835938-1.0419922,6.6308594-3.1259766l0.9711914-0.8291016
			c2.1469727-1.8310547,4.4755859-3.2675781,6.9863281-4.3095703c2.6201172-1.1054688,5.0439453-1.6582031,7.2705078-1.6582031
			c3.4414063,0,6.3544922,1.0185547,8.7382813,3.0546875c2.5107422,2.1318359,3.765625,4.8867188,3.765625,8.265625
			C54.4980469,36.2861328,53.1005859,39.2705078,50.3066406,41.5908203z M25.605957,31.1943359
			c-2.1157227,1.1689453-3.6552734,2.1708984-4.6181641,3.0078125c-1.3105469,1.1689453-2.3603516,2.6523438-3.1499023,4.4521484
			l-0.331543,0.7578125c-0.8051758,1.8320313-1.7207031,3.1503906-2.7470703,3.9550781
			c7.3574219-0.3789063,10.9804688-3.9785156,10.8701172-10.7988281L25.605957,31.1943359z"/>
	</g>
</g>
</svg>
