<?xml version="1.0" encoding="utf-8"?>
<!-- Generator: Adobe Illustrator 15.0.2, SVG Export Plug-In . SVG Version: 6.00 Build 0)  -->
<!DOCTYPE svg PUBLIC "-//W3C//DTD SVG 1.1//EN" "http://www.w3.org/Graphics/SVG/1.1/DTD/svg11.dtd">
<svg version="1.1" id="レイヤー_1" xmlns="http://www.w3.org/2000/svg" xmlns:xlink="http://www.w3.org/1999/xlink" x="0px"
	 y="0px" width="64px" height="64px" viewBox="0 0 64 64" style="enable-background:new 0 0 64 64;" xml:space="preserve">
<g>
	<path style="fill:#10AFFF;" d="M50.2050781,1.7949219c6.6269531,0,12,5.3730469,12,12v36.4101563c0,6.6269531-5.3730469,12-12,12
		H13.7949219c-6.6269531,0-12-5.3730469-12-12V13.7949219c0-6.6269531,5.3730469-12,12-12H50.2050781z"/>
</g>
<g>
	<g>
		<path style="fill:#FFFFFF;" d="M28.5097656,17.4853516c4.3544922,0,7.8994141,2.4921875,10.6357422,7.4755859
			l-3.1367188,4.6933594c-0.6757813-1.9501953-1.6113281-3.59375-2.8066406-4.9296875
			c-1.4619141-1.6347656-3.0888672-2.4521484-4.8808594-2.4521484c-1.8710938,0-3.2700195,0.8876953-4.1977539,2.6650391
			c-0.7387695,1.3837891-1.1088867,3.1054688-1.1088867,5.1640625c0,3.8369141,0.9907227,7.3105469,2.9716797,10.4238281
			l-2.6655273,2.4755859c-2.9238281-4.4482422-4.3852539-9.1259766-4.3852539-14.03125
			c0-3.1904297,0.777832-5.8408203,2.3339844-7.9472656C23.0146484,18.6640625,25.4277344,17.4853516,28.5097656,17.4853516z
			 M50.2998047,9.0185547l4.6699219,5.6357422c-1.4462891,3.4755859-3.8369141,7.3427734-7.1689453,11.6035156
			c4.7949219,3.9619141,7.1923828,8.1679688,7.1923828,12.6171875c0,4.5742188-1.7607422,8.1347656-5.2822266,10.6826172
			c-3.1289063,2.2636719-7.0751953,3.3955078-11.8388672,3.3955078s-9.2128906-0.7470703-13.3481445-2.2402344
			c-4.0717773,2.8457031-7.5776367,4.2685547-10.5175781,4.2685547c-1.3994141,0-2.5551758-0.3457031-3.4667969-1.0371094
			c-1.0214844-0.7548828-1.5327148-1.8085938-1.5327148-3.1601563c0-1.8398438,0.8491211-3.2626953,2.546875-4.2685547
			c1.4150391-0.8339844,3.1054688-1.2509766,5.0698242-1.2509766c2.0761719,0,4.6074219,0.5195313,7.59375,1.5566406
			C31.1191406,40.8310547,36.4257813,35.1875,40.1367188,29.8886719
			C44.0820313,24.2460938,47.4697266,17.2880859,50.2998047,9.0185547z M45.7246094,29.1103516
			c-4.1191406,6.6044922-10.0302734,12.9160156-17.7333984,18.9384766c2.9873047,0.8320313,5.7539063,1.2490234,8.3007813,1.2490234
			c3.7255859,0,6.8466797-0.9199219,9.3623047-2.7587891c2.7988281-2.0439453,4.1982422-4.8662109,4.1982422-8.4658203
			C49.8525391,34.5986328,48.4765625,31.6113281,45.7246094,29.1103516z"/>
	</g>
</g>
</svg>
