<?xml version="1.0" encoding="utf-8"?>
<!-- Generator: Adobe Illustrator 15.0.2, SVG Export Plug-In . SVG Version: 6.00 Build 0)  -->
<!DOCTYPE svg PUBLIC "-//W3C//DTD SVG 1.1//EN" "http://www.w3.org/Graphics/SVG/1.1/DTD/svg11.dtd">
<svg version="1.1" id="レイヤー_1" xmlns="http://www.w3.org/2000/svg" xmlns:xlink="http://www.w3.org/1999/xlink" x="0px"
	 y="0px" width="64px" height="64px" viewBox="0 0 64 64" style="enable-background:new 0 0 64 64;" xml:space="preserve">
<g>
	<path style="fill:#8BD300;" d="M13.7954102,1.7954102c-6.6269531,0-12,5.3730469-12,12v36.409668c0,6.6279297,5.3730469,12,12,12
		h36.409668c6.6269531,0,12-5.3720703,12-12v-36.409668c0-6.6269531-5.3730469-12-12-12H13.7954102z"/>
</g>
<g>
	<g>
		<path style="fill:#FFFFFF;" d="M51.6259766,34.1982422c-3.5917969,2.1083984-7.5048828,3.1621094-11.7363281,3.1621094
			c-2.7490234,0-6.4970703-0.9365234-11.2441406-2.8046875L30.625,36.4814453
			c1.6123047,1.5742188,3.4003906,3.0136719,5.3603516,4.3125c2.5839844,1.7255859,4.6357422,2.5859375,6.15625,2.5859375
			c0.9541016,0,1.7880859-0.2666016,2.5019531-0.7978516c0.7695313-0.5849609,1.1542969-1.3466797,1.1542969-2.2792969
			c0-0.2041016-0.0263672-0.4775391-0.0820313-0.8251953c2.5283203,0.9511719,3.7929688,2.1806641,3.7929688,3.6835938
			c0,1.2089844-0.6318359,2.1689453-1.8955078,2.8857422c-1.0634766,0.5849609-2.2451172,0.8789063-3.546875,0.8789063
			c-3.5546875,0-8.6943359-3.3183594-15.4208984-9.9501953l-1.9228516-1.8984375
			c-1.4111328-1.3916016-2.9511719-2.6757813-4.6191406-3.8486328c-3.1147461,3.1884766-6.2480469,4.7841797-9.4003906,4.7841797
			c-1.7036133,0-3.1972656-0.4404297-4.4794922-1.3193359c-1.4472656-1.0078125-2.171875-2.328125-2.171875-3.9589844
			c0-1.6113281,0.6870117-2.8945313,2.0620117-3.8457031c1.2270508-0.8642578,2.6743164-1.2929688,4.3417969-1.2929688
			c1.8510742,0,3.8125,0.5488281,5.8837891,1.6494141l2.6933594-2.5283203
			c3.4628906-3.2636719,5.8447266-5.3056641,7.1459961-6.1308594c1.5947266-1.0078125,3.2070313-1.5117188,4.8388672-1.5117188
			c2.1982422,0,4.1962891,0.7226563,5.9912109,2.171875c1.90625,1.5380859,2.8583984,3.3896484,2.8583984,5.5517578
			c0,1.3740234-0.3945313,2.5644531-1.1816406,3.5722656c-0.8603516,1.1015625-1.9599609,1.6503906-3.2978516,1.6503906
			c-1.5947266,0-3.1259766-0.8525391-4.5908203-2.5556641c0.421875,0.0712891,0.7509766,0.1103516,0.9902344,0.1103516
			c1.4111328,0,2.6660156-0.4228516,3.765625-1.265625c1.1904297-0.9150391,1.7861328-2.0605469,1.7861328-3.4345703
			c0-0.8066406-0.2880859-1.4990234-0.8652344-2.0751953c-0.5771484-0.5791016-1.2685547-0.8671875-2.0761719-0.8671875
			c-2.0527344,0-5.625,2.6123047-10.7197266,7.8349609l-2.2255859,2.2792969
			c1.7949219,1.2119141,4.2138672,2.2558594,7.2558594,3.1347656c2.9501953,0.8427734,5.5517578,1.265625,7.8056641,1.265625
			c3.8310547,0,7.0742188-1.1367188,9.7304688-3.4101563c2.7851563-2.3994141,4.1787109-5.4863281,4.1787109-9.2626953
			c0-0.8251953-0.1005859-1.6044922-0.3027344-2.3369141c3.8857422,0.6962891,5.828125,2.4003906,5.828125,5.1142578
			C57.9482422,28.5087891,55.8408203,31.7236328,51.6259766,34.1982422z M12.8964844,27.6298828
			c-2.6020508,0-3.9038086,0.7880859-3.9038086,2.3632813c0,1.1005859,0.7783203,1.6494141,2.3369141,1.6494141
			c1.6855469,0,3.5541992-1.0341797,5.6074219-3.1074219C15.3051758,27.9326172,13.9584961,27.6298828,12.8964844,27.6298828z"/>
	</g>
</g>
</svg>
