<?xml version="1.0" encoding="UTF-8" standalone="no"?>
<!-- Generator: Adobe Illustrator 15.0.2, SVG Export Plug-In . SVG Version: 6.00 Build 0)  -->

<svg
   xmlns:dc="http://purl.org/dc/elements/1.1/"
   xmlns:cc="http://creativecommons.org/ns#"
   xmlns:rdf="http://www.w3.org/1999/02/22-rdf-syntax-ns#"
   xmlns:svg="http://www.w3.org/2000/svg"
   xmlns="http://www.w3.org/2000/svg"
   xmlns:sodipodi="http://sodipodi.sourceforge.net/DTD/sodipodi-0.dtd"
   xmlns:inkscape="http://www.inkscape.org/namespaces/inkscape"
   version="1.1"
   id="レイヤー_1"
   x="0px"
   y="0px"
   width="64px"
   height="64px"
   viewBox="0 0 64 64"
   enable-background="new 0 0 64 64"
   xml:space="preserve"
   inkscape:version="0.48.5 r10040"
   sodipodi:docname="sparkle.svg"><metadata
     id="metadata27"><rdf:RDF><cc:Work
         rdf:about=""><dc:format>image/svg+xml</dc:format><dc:type
           rdf:resource="http://purl.org/dc/dcmitype/StillImage" /></cc:Work></rdf:RDF></metadata><defs
     id="defs25" /><sodipodi:namedview
     pagecolor="#ffffff"
     bordercolor="#666666"
     borderopacity="1"
     objecttolerance="10"
     gridtolerance="10"
     guidetolerance="10"
     inkscape:pageopacity="0"
     inkscape:pageshadow="2"
     inkscape:window-width="640"
     inkscape:window-height="480"
     id="namedview23" /><g
     id="g3"><polygon
       fill="#FF9D00"
       points="34.905,9.549 32,32 29.095,9.549 32,3.539  "
       id="polygon5" /><polygon
       fill="#FF9D00"
       points="9.549,29.095 32,32 9.549,34.905 3.539,32  "
       id="polygon7" /><polygon
       fill="#FF9D00"
       points="29.095,54.451 32,32 34.905,54.451 32,60.462  "
       id="polygon9" /><polygon
       fill="#FF9D00"
       points="54.451,34.905 32,32 54.451,29.095 60.462,32  "
       id="polygon11" /><g
       id="g13"><polygon
         fill="#FFCE00"
         points="15.486,11.948 26.331,26.331 11.948,15.485 10.34,10.34   "
         id="polygon15" /><polygon
         fill="#FFCE00"
         points="11.948,48.514 26.331,37.669 15.485,52.052 10.34,53.659   "
         id="polygon17" /><polygon
         fill="#FFCE00"
         points="48.514,52.052 37.669,37.669 52.052,48.515 53.66,53.66   "
         id="polygon19" /><polygon
         fill="#FFCE00"
         points="52.052,15.486 37.669,26.331 48.515,11.949 53.66,10.34   "
         id="polygon21" /></g></g></svg>