<?xml version="1.0" encoding="UTF-8" standalone="no"?>
<!-- Generator: Adobe Illustrator 15.0.2, SVG Export Plug-In . SVG Version: 6.00 Build 0)  -->

<svg
   xmlns:dc="http://purl.org/dc/elements/1.1/"
   xmlns:cc="http://creativecommons.org/ns#"
   xmlns:rdf="http://www.w3.org/1999/02/22-rdf-syntax-ns#"
   xmlns:svg="http://www.w3.org/2000/svg"
   xmlns="http://www.w3.org/2000/svg"
   xmlns:sodipodi="http://sodipodi.sourceforge.net/DTD/sodipodi-0.dtd"
   xmlns:inkscape="http://www.inkscape.org/namespaces/inkscape"
   version="1.1"
   id="レイヤー_1"
   x="0px"
   y="0px"
   width="64px"
   height="64px"
   viewBox="0 0 64 64"
   style="enable-background:new 0 0 64 64;"
   xml:space="preserve"
   inkscape:version="0.48.5 r10040"
   sodipodi:docname="sparkle.svg"><metadata
     id="metadata27"><rdf:RDF><cc:Work
         rdf:about=""><dc:format>image/svg+xml</dc:format><dc:type
           rdf:resource="http://purl.org/dc/dcmitype/StillImage" /></cc:Work></rdf:RDF></metadata><defs
     id="defs25" /><sodipodi:namedview
     pagecolor="#ffffff"
     bordercolor="#666666"
     borderopacity="1"
     objecttolerance="10"
     gridtolerance="10"
     guidetolerance="10"
     inkscape:pageopacity="0"
     inkscape:pageshadow="2"
     inkscape:window-width="640"
     inkscape:window-height="480"
     id="namedview23" /><g
     id="g3"><polygon
       style="fill:#FF9D00;"
       points="34.9052734,9.5488281 32,32 29.0947266,9.5488281 32,3.5385742  "
       id="polygon5" /><polygon
       style="fill:#FF9D00;"
       points="9.5488281,29.0947266 32,32 9.5488281,34.9052734 3.5385742,32  "
       id="polygon7" /><polygon
       style="fill:#FF9D00;"
       points="29.0947266,54.4511719 32,32 34.9052734,54.4511719 32,60.4619141  "
       id="polygon9" /><polygon
       style="fill:#FF9D00;"
       points="54.4511719,34.9052734 32,32 54.4511719,29.0947266 60.4619141,32  "
       id="polygon11" /><g
       id="g13"><polygon
         style="fill:#FFCE00;"
         points="15.4858398,11.9482422 26.3310547,26.3310547 11.9482422,15.4853516 10.340332,10.3398438       "
         id="polygon15" /><polygon
         style="fill:#FFCE00;"
         points="11.9482422,48.5136719 26.3310547,37.6689453 15.4853516,52.0517578     10.3398438,53.6591797   "
         id="polygon17" /><polygon
         style="fill:#FFCE00;"
         points="48.5136719,52.0517578 37.6689453,37.6689453 52.0517578,48.5146484     53.6601563,53.6601563   "
         id="polygon19" /><polygon
         style="fill:#FFCE00;"
         points="52.0517578,15.4863281 37.6689453,26.3310547 48.5146484,11.9492188     53.6601563,10.3398438   "
         id="polygon21" /></g></g></svg>