<?xml version="1.0" encoding="utf-8"?>
<!-- Generator: Adobe Illustrator 15.0.2, SVG Export Plug-In . SVG Version: 6.00 Build 0)  -->
<!DOCTYPE svg PUBLIC "-//W3C//DTD SVG 1.1//EN" "http://www.w3.org/Graphics/SVG/1.1/DTD/svg11.dtd">
<svg version="1.1" id="レイヤー_1" xmlns="http://www.w3.org/2000/svg" xmlns:xlink="http://www.w3.org/1999/xlink" x="0px"
	 y="0px" width="64px" height="64px" viewBox="0 0 64 64" enable-background="new 0 0 64 64" xml:space="preserve">
<g>
	<polygon fill="#FF9D00" points="34.905,9.549 32,32 29.095,9.549 32,3.539 	"/>
	<polygon fill="#FF9D00" points="9.549,29.095 32,32 9.549,34.905 3.539,32 	"/>
	<polygon fill="#FF9D00" points="29.095,54.451 32,32 34.905,54.451 32,60.462 	"/>
	<polygon fill="#FF9D00" points="54.451,34.905 32,32 54.451,29.095 60.462,32 	"/>
	<g>
		<polygon fill="#FFCE00" points="15.486,11.948 26.331,26.331 11.948,15.485 10.34,10.34 		"/>
		<polygon fill="#FFCE00" points="11.948,48.514 26.331,37.669 15.485,52.052 10.34,53.659 		"/>
		<polygon fill="#FFCE00" points="48.514,52.052 37.669,37.669 52.052,48.515 53.66,53.66 		"/>
		<polygon fill="#FFCE00" points="52.052,15.486 37.669,26.331 48.515,11.949 53.66,10.34 		"/>
	</g>
</g>
</svg>
