<?xml version="1.0" encoding="utf-8"?>
<!-- Generator: Adobe Illustrator 15.0.2, SVG Export Plug-In . SVG Version: 6.00 Build 0)  -->
<!DOCTYPE svg PUBLIC "-//W3C//DTD SVG 1.1//EN" "http://www.w3.org/Graphics/SVG/1.1/DTD/svg11.dtd">
<svg version="1.1" id="レイヤー_1" xmlns="http://www.w3.org/2000/svg" xmlns:xlink="http://www.w3.org/1999/xlink" x="0px"
	 y="0px" width="64px" height="64px" viewBox="0 0 64 64" enable-background="new 0 0 64 64" xml:space="preserve">
<path fill="#F9D128" stroke="#FFA624" stroke-width="0.9381" stroke-miterlimit="10" d="M5.954,33.324c0,0,9.145,0,12.701-25.57
	c0,0,1.694,20.49,12.702,25.57c0,0-8.976,1.017-12.702,23.707C18.654,57.031,15.606,36.203,5.954,33.324z"/>
<path fill="#F9D128" stroke="#FFA624" stroke-width="0.8998" stroke-miterlimit="10" d="M37.563,43.44c0,0,5.898,0,8.191-16.491
	c0,0,1.092,13.215,8.19,16.491c0,0-5.787,0.654-8.19,15.289C45.754,58.729,43.788,45.298,37.563,43.44z"/>
<path fill="#F9D128" stroke="#FFA624" stroke-width="0.8394" stroke-miterlimit="10" d="M48.279,17.376c0,0,4.079,0,5.664-11.404
	c0,0,0.756,9.139,5.665,11.404c0,0-4.003,0.453-5.665,10.573C53.943,27.949,52.584,18.66,48.279,17.376z"/>
</svg>
