<?xml version="1.0" encoding="utf-8"?>
<!-- Generator: Adobe Illustrator 15.0.2, SVG Export Plug-In . SVG Version: 6.00 Build 0)  -->
<!DOCTYPE svg PUBLIC "-//W3C//DTD SVG 1.1//EN" "http://www.w3.org/Graphics/SVG/1.1/DTD/svg11.dtd">
<svg version="1.1" id="レイヤー_1" xmlns="http://www.w3.org/2000/svg" xmlns:xlink="http://www.w3.org/1999/xlink" x="0px"
	 y="0px" width="64px" height="64px" viewBox="0 0 64 64" enable-background="new 0 0 64 64" xml:space="preserve">
<g>
	<g>
		<path fill="#D9DADA" stroke="#231815" stroke-width="1.1833" stroke-linejoin="bevel" stroke-miterlimit="10" d="M21.263,57.483
			c0,0,7.573-2.118,11.82-4.93c3.358-9.406-6.889-23.823-21.161-21.159c-2.646,5.185-2.947,8.871-3.961,12.786
			C9.455,55.025,21.263,57.483,21.263,57.483z"/>
		<path fill="#D9DADA" stroke="#231815" stroke-width="1.1833" stroke-linejoin="bevel" stroke-miterlimit="10" d="M30.619,56.867
			c0,0,13.103-3.661,20.451-8.527C56.88,32.071,39.15,7.127,14.462,11.733c-4.58,8.973-5.1,15.35-6.853,22.122
			C10.189,52.613,30.619,56.867,30.619,56.867z"/>
		
			<ellipse transform="matrix(0.7071 -0.7071 0.7071 0.7071 -10.0953 32.6676)" fill="#B2B2B3" stroke="#231815" stroke-width="1.1833" stroke-miterlimit="10" cx="34.387" cy="28.52" rx="14.94" ry="27.291"/>
		
			<ellipse transform="matrix(0.7071 -0.7071 0.7071 0.7071 -9.5506 32.8324)" fill="#868686" stroke="#231815" stroke-width="1.1833" stroke-miterlimit="10" cx="34.857" cy="27.945" rx="12.573" ry="22.928"/>
		
			<linearGradient id="SVGID_1_" gradientUnits="userSpaceOnUse" x1="34.9053" y1="19.5522" x2="25.3942" y2="36.8275" gradientTransform="matrix(0.7071 -0.7071 0.7071 0.7071 -10.7003 38.291)">
			<stop  offset="0" style="stop-color:#D2D2D2"/>
			<stop  offset="1" style="stop-color:#101010"/>
		</linearGradient>
		<path fill="url(#SVGID_1_)" stroke="#231815" stroke-width="1.1833" stroke-miterlimit="10" d="M26.124,36.992
			c3.668,3.668,8.188,5.096,10.094,3.19c1.906-1.907,0.478-6.426-3.189-10.093c-3.669-3.669-8.188-5.097-10.094-3.19
			C21.027,28.806,22.456,33.324,26.124,36.992z"/>
	</g>
	<g>
		<path fill="none" stroke="#FFFFFF" stroke-width="2" stroke-miterlimit="10" d="M60.375,54.649
			c0.521,0.521,0.636,1.26,0.254,1.642l-4.338,4.338c-0.382,0.382-1.12,0.265-1.641-0.255L3.625,9.35
			C3.104,8.829,2.99,8.09,3.371,7.708l4.337-4.337c0.381-0.381,1.12-0.267,1.641,0.253L60.375,54.649z"/>
		<path fill="#E30012" d="M60.375,54.649c0.521,0.521,0.636,1.26,0.254,1.642l-4.338,4.338c-0.382,0.382-1.12,0.265-1.641-0.255
			L3.625,9.35C3.104,8.829,2.99,8.09,3.371,7.708l4.337-4.337c0.381-0.381,1.12-0.267,1.641,0.253L60.375,54.649z"/>
	</g>
</g>
</svg>
