<?xml version="1.0" encoding="UTF-8" standalone="no"?>
<!-- Generator: Adobe Illustrator 15.0.2, SVG Export Plug-In . SVG Version: 6.00 Build 0)  -->

<svg
   xmlns:dc="http://purl.org/dc/elements/1.1/"
   xmlns:cc="http://creativecommons.org/ns#"
   xmlns:rdf="http://www.w3.org/1999/02/22-rdf-syntax-ns#"
   xmlns:svg="http://www.w3.org/2000/svg"
   xmlns="http://www.w3.org/2000/svg"
   xmlns:sodipodi="http://sodipodi.sourceforge.net/DTD/sodipodi-0.dtd"
   xmlns:inkscape="http://www.inkscape.org/namespaces/inkscape"
   version="1.1"
   id="レイヤー_1"
   x="0px"
   y="0px"
   width="64px"
   height="64px"
   viewBox="0 0 64 64"
   enable-background="new 0 0 64 64"
   xml:space="preserve"
   inkscape:version="0.48.5 r10040"
   sodipodi:docname="specified_mark.svg"><metadata
     id="metadata34"><rdf:RDF><cc:Work
         rdf:about=""><dc:format>image/svg+xml</dc:format><dc:type
           rdf:resource="http://purl.org/dc/dcmitype/StillImage" /></cc:Work></rdf:RDF></metadata><defs
     id="defs32" /><sodipodi:namedview
     pagecolor="#ffffff"
     bordercolor="#666666"
     borderopacity="1"
     objecttolerance="10"
     gridtolerance="10"
     guidetolerance="10"
     inkscape:pageopacity="0"
     inkscape:pageshadow="2"
     inkscape:window-width="640"
     inkscape:window-height="480"
     id="namedview30" /><g
     id="g3"><g
       id="g5"><linearGradient
         id="SVGID_1_"
         gradientUnits="userSpaceOnUse"
         x1="32"
         y1="2.9961"
         x2="32"
         y2="60.9865"><stop
           offset="0"
           style="stop-color:#65FF1F"
           id="stop8" /><stop
           offset="1"
           style="stop-color:#6A9F00"
           id="stop10" /></linearGradient><path
         fill="url(#SVGID_1_)"
         stroke="#296B05"
         stroke-width="2"
         stroke-miterlimit="10"
         d="M62.205,50.205c0,6.627-5.373,12-12,12    h-36.41c-6.627,0-12-5.373-12-12v-36.41c0-6.627,5.373-12,12-12h36.41c6.627,0,12,5.373,12,12V50.205z"
         id="path12" /><g
         id="g14"><path
           opacity="0.28"
           fill="#FFFFFF"
           d="M2.672,13.369c-0.032,0.353-0.054,0.709-0.054,1.071v12.594     c0.006,0.006,0.012,0.012,0.017,0.018L2.672,13.369z"
           id="path16" /><path
           opacity="0.28"
           fill="#FFFFFF"
           d="M60.106,23.57c1.188-5.802,1.222-9.417,1.222-10.194     C60.79,7.428,55.797,2.767,49.71,2.767H14.291c-6.076,0-11.062,4.642-11.617,10.572c0.02,0.349,0.497,4.034,1.293,10.307     C11.207,30.701,21.092,35.055,32,35.055C42.945,35.055,52.859,30.669,60.106,23.57z"
           id="path18" /><path
           opacity="0.28"
           fill="#FFFFFF"
           d="M61.328,13.379l0.039,13.667c0.005-0.005,0.01-0.01,0.015-0.015V14.439     C61.382,14.082,61.359,13.729,61.328,13.379z"
           id="path20" /></g><path
         fill="#FFFFFF"
         d="M2.674,27.586c0,0-0.006-10.919-0.028-13.859c-0.027-3.6,3.244-10.89,10.375-10.89    c6.639,0,16.803,0,16.803,0S17.118,3.651,13.02,4.471s-7.494,6.043-8.442,9.263C3.198,18.415,2.674,27.586,2.674,27.586z"
         id="path22" /><path
         fill="#3C910F"
         d="M61.001,37.832c0,0,0.006,10.233,0.027,12.989c0.026,3.373-3.141,10.207-10.048,10.207    c-6.428,0-16.27,0-16.27,0s12.304-0.764,16.272-1.532c3.967-0.769,7.254-5.663,8.174-8.681    C60.493,46.427,61.001,37.832,61.001,37.832z"
         id="path24" /></g><g
       id="g26"><path
         fill="#FFFFFF"
         d="M15.93,49.916l-1.23-5.536h2.461c1.127,0,1.639-0.512,1.537-1.538v-5.229l-3.845,0.923l-0.769-5.229    l4.613-0.923v-6.152h-4.306v-4.767h4.306v-7.382h5.536v7.382h3.229v4.767h-3.229V31l2.461-1.076l1.23,4.768l-3.691,1.384v9.688    c0,2.769-1.229,4.152-3.69,4.152H15.93z M35.152,23.619h8.92c0.408,0.104,0.769-0.87,1.076-2.922l4.768,1.384    c-0.308,2.256-0.769,3.844-1.384,4.767c-0.719,1.026-1.898,1.538-3.537,1.538h-12.61c-2.564,0-3.845-1.23-3.845-3.691V14.084    h5.229v2.768c4.203-0.308,8.509-1.076,12.918-2.307l2.461,4.46c-4.921,1.333-10.049,2.153-15.379,2.46v1.076    C33.665,23.364,34.127,23.722,35.152,23.619z M29.155,49.916V30.385h18.607v19.531h-5.229V48.07h-7.996v1.846H29.155z     M34.538,37.151h7.996v-2.46h-7.996V37.151z M34.538,43.61h7.996v-2.46h-7.996V43.61z"
         id="path28" /></g></g></svg>