<?xml version="1.0" encoding="utf-8"?>
<!-- Generator: Adobe Illustrator 15.0.2, SVG Export Plug-In . SVG Version: 6.00 Build 0)  -->
<!DOCTYPE svg PUBLIC "-//W3C//DTD SVG 1.1//EN" "http://www.w3.org/Graphics/SVG/1.1/DTD/svg11.dtd">
<svg version="1.1" id="レイヤー_1" xmlns="http://www.w3.org/2000/svg" xmlns:xlink="http://www.w3.org/1999/xlink" x="0px"
	 y="0px" width="64px" height="64px" viewBox="0 0 64 64" enable-background="new 0 0 64 64" xml:space="preserve">
<g>
	<polygon fill="#021C26" stroke="#231815" stroke-width="1.0458" stroke-miterlimit="10" points="60.298,32.388 59.25,23.881 
		53.667,23.881 47.334,32.388 	"/>
	<linearGradient id="SVGID_1_" gradientUnits="userSpaceOnUse" x1="29.0327" y1="22.4517" x2="37.4497" y2="29.1182">
		<stop  offset="0" style="stop-color:#9FECFF"/>
		<stop  offset="0.0521" style="stop-color:#9DEBFF"/>
		<stop  offset="0.0709" style="stop-color:#96E8FD"/>
		<stop  offset="0.0843" style="stop-color:#8BE3FB"/>
		<stop  offset="0.0951" style="stop-color:#7ADBF7"/>
		<stop  offset="0.1044" style="stop-color:#64D1F3"/>
		<stop  offset="0.1126" style="stop-color:#48C4EE"/>
		<stop  offset="0.12" style="stop-color:#29B6E7"/>
		<stop  offset="0.1266" style="stop-color:#04A5E0"/>
		<stop  offset="0.1273" style="stop-color:#00A3DF"/>
		<stop  offset="1" style="stop-color:#FFFFFF"/>
	</linearGradient>
	<path fill="url(#SVGID_1_)" stroke="#231815" stroke-miterlimit="10" d="M20.75,23.882l12.584-5.462c0,0,5.416,1.581,8.25,10.414
		L30,29.344L20.75,23.882z"/>
	<polygon fill="#FFFFFF" stroke="#231815" stroke-width="1.1285" stroke-miterlimit="10" points="58.584,32 56.935,25.667 
		41.605,25.667 34.963,32 	"/>
	<path fill="#FFFFFF" stroke="#231815" stroke-width="1.0458" stroke-miterlimit="10" d="M3.083,22.419c0,0,13.5,13.5,32.833,14.25
		c7.931,0.308,16.333,0.475,24.333-0.75l1.584-2.166l0.5-4.409c0,0-15.084-1.258-24.917-2.008l-3.667-4.166
		C33.75,23.169,9.667,20.669,3.083,22.419z"/>
	<path fill="#FF2A00" d="M7.167,25.169l30,2.965l24,5.368l-0.869,1.833C60.298,35.336,25.084,33.67,7.167,25.169z"/>
	<linearGradient id="SVGID_2_" gradientUnits="userSpaceOnUse" x1="34.6592" y1="31.4165" x2="34.3827" y2="39.3739">
		<stop  offset="0" style="stop-color:#DFFAFF"/>
		<stop  offset="0.5654" style="stop-color:#E1FAFF"/>
		<stop  offset="0.7691" style="stop-color:#E8FBFF"/>
		<stop  offset="0.9137" style="stop-color:#F3FDFF"/>
		<stop  offset="1" style="stop-color:#FFFFFF"/>
	</linearGradient>
	<path fill="url(#SVGID_2_)" d="M19.577,35.845c0,0,13.494-6.573,13.77-5.12l-3.252,2.673c0,0,16.624-5.855,10.976-1.773
		c0,0-7.005,0.167-5.669,2.575c0,0,7.324-2.834,5.783-0.802c-1.542,2.032-1.818,1.201-2.372,1.894c0,0,3.392-0.829,4.913-1.176
		c1.522-0.346-2.976,1.729-2.976,1.729l5.397-1.521l-2.837,2.075l4.359-0.554l-4.429,2.007c0,0,9.065-1.225,10.863-0.716l0.899,1.2
		c0,0-35.427-1.314-41.17,0L19.577,35.845z"/>
	<linearGradient id="SVGID_3_" gradientUnits="userSpaceOnUse" x1="14.1655" y1="34.2949" x2="63.417" y2="34.2949">
		<stop  offset="0" style="stop-color:#FFFFFF"/>
		<stop  offset="0.8587" style="stop-color:#FFFFFF"/>
		<stop  offset="1" style="stop-color:#FFFFFF"/>
	</linearGradient>
	<path fill="url(#SVGID_3_)" d="M14.166,38.192l13.168-7.939L23.5,35.336l7.667-1.912l-7.833,2.662c0,0,8.083-0.25,8.667-0.25
		s-5.417,1.055-5.417,1.055s5.752-0.851,10.167,0l26.667,1.445L14.166,38.192z"/>
</g>
</svg>
