<?xml version="1.0" encoding="UTF-8"?>
<!-- Generated by phantom_svg. -->
<svg width="64px" height="64px" viewBox="0 0 64 64" preserveAspectRatio="none" xmlns="http://www.w3.org/2000/svg" xmlns:xlink="http://www.w3.org/1999/xlink" version="1.1">
  <path style="fill:#717071;" d="M62,43.1792603l-1.1304932-0.4511108C55.7799683,34.4815674,60.2312622,26.645874,62,24.0917969
	v-2.5835571l-0.0971069,0.0293579C47.1561279,16.2113037,38.6237183,7.479187,36.9536743,5.6547241L37.6311646,2h-2.0343018
	l-0.6027222,3.2514648C24.7287598,9.7893677,8.1235962,9.0679321,5.6351318,8.9294434L2,5.8321533v2.6273804l2.3884888,2.0350952
	c3.5065308,9.5446777,1.3525391,20.4257202,0.7125854,23.1646729L2,33.987854v2.0108032l3.6878662-0.390625
	c10.4213867,5.6608276,15.1228027,12.9706421,16.1449585,14.7341919l-3.701416,8.3769531
	C16.6463623,54.4050293,12.5321655,45.7238159,2,37.2301636v2.5939941
	C13.6499634,49.7669067,16.4584961,59.7939453,16.8751221,61.5625L16.6818237,62h2.5013428
	c23.18396-16.5678711,39.0750732-17.4232788,40.8196411-17.4642334L62,45.3327026V43.1792603z M36.5025635,8.0880127
	c2.9003906,2.9398193,10.3548584,9.5927124,22.2880249,14.3914795l-6.8964844,2.0870972
	c-8.192627-2.1074829-15.0982056-7.0049438-16.8969727-8.3574219L36.5025635,8.0880127z M48.3150024,37.7186279
	l-5.5099487-2.1986084c-1.0304565-3.6483765,0.8284302-5.9797974,1.3412476-6.5318604l5.3236084-1.6087646
	C48.1290283,29.7486572,46.736084,33.5773315,48.3150024,37.7186279z M16.7841797,21.0562134l4.4105225,3.7579346
	c0.3074341,0.668335,1.4284668,3.3847656,1.2284546,7.0099487l-5.2353516,0.5546265
	C17.637207,30.3659668,18.0909424,26.4421997,16.7841797,21.0562134z M40.5836182,34.633606l-6.515625-2.5998535
	l7.1624756-2.1644287C40.6959839,31.0684814,40.3203735,32.6807251,40.5836182,34.633606z M24.0672607,27.2616577
	l4.5807495,3.9028931l-4.215332,0.4465942C24.4950562,29.9522705,24.3217773,28.4743042,24.0672607,27.2616577z
	 M26.0089111,26.2886353c1.5964966,0.1220093,3.4502563-0.0776978,5.2761841-1.0283203l-0.8842773,4.7704468L26.0089111,26.2886353z
	 M31.5938721,33.199646l6.0689697,2.4216919c-2.3971558,0.4042358-5.4807129,1.2619629-8.487793,3.0524902L31.5938721,33.199646z
	 M32.3515015,30.4807129l1.0704956-5.7746582c1.4763794,0.9262085,4.0362549,2.4113159,6.673645,3.4310913L32.3515015,30.4807129z
	 M31.7954712,22.5072021c-3.9214478,3.322876-8.5584717,1.1871338-9.2297363,0.8477173l-4.2034302-3.5814819
	c3.7515869,0.5095825,9.6050415,0.7996826,14.1725464-1.2549438L31.7954712,22.5072021z M29.4556274,33.090271l-2.9713745,6.7247925
	c-1.3705444-1.4544067-3.9317627-3.9379883-6.8901978-5.6801758L29.4556274,33.090271z M27.5908813,42.2591553
	c5.6923218-4.8598022,13.0671997-5.0008545,14.1911011-4.9941406l5.0752563,2.0252075
	c-4.947876,1.0317993-14.2301025,3.4483032-21.5300293,8.09198L27.5908813,42.2591553z M48.4243164,25.6166382l-4.8745117,1.4751587
	c-3.6167603-0.6866455-8.1987915-3.5115967-9.7340698-4.5098267l0.7755127-4.1834717
	C36.9084473,20.067749,42.067688,23.4555054,48.4243164,25.6166382z M34.5584717,7.6017456l-1.5599365,8.4154663
	c-5.8720703,3.6498413-16.0515137,1.5494995-17.6517334,1.1868896l-7.2418213-6.1702271
	C13.62146,11.1810303,25.7150269,11.0413818,34.5584717,7.6017456z M7.2254639,12.9118652l6.7923584,5.7872925
	c2.4619751,7.2980347,1.4899902,12.3117065,1.0480957,13.9043579l-7.8579712,0.8325195
	C7.9380493,30.1091309,9.3930054,21.4765625,7.2254639,12.9118652z M9.0699463,35.2497559l6.6358032-0.7029419
	c4.2984619,1.3375244,8.5964966,5.8231201,9.8956299,7.2663574l-2.7863159,6.3060303
	C21.0453491,45.4174805,16.8397827,40.0195923,9.0699463,35.2497559z M20.2941895,58.7727051l3.4660034-7.8441162
	c9.1235962-7.203186,24.4182739-9.9003296,26.5742188-10.2508545l5.6276855,2.2456055
	C49.7539673,43.8886108,37.1077271,47.2335815,20.2941895,58.7727051z M51.1176758,38.8369141
	c-3.7333374-5.7871094,0.4567871-11.2913208,1.364502-12.3677979l7.026001-2.1231689
	c-1.9700317,3.4237061-4.6687622,10.098938-1.4846802,17.246582L51.1176758,38.8369141z"/>
  <path style="fill:#D9DADA;" d="M61.6875,21.9876099C46.2871094,16.4124146,37.6192017,7.1538086,36.413269,5.8025513
	L37.0614624,2.3125h-1.0136108l-0.6099854,3.2903442C24.8133545,10.4293823,7.2463379,9.5281982,5.4390869,9.4193726
	L2.3125,6.7554321v1.3132935l2.5021973,2.131958c3.7903442,10.168396,1.2022095,21.8456421,0.6900024,23.9185791L2.3125,34.4574585
	v1.0023804l3.4779053-0.3692017c11.1627808,6.019165,15.8807983,13.9234009,16.6010742,15.2241821l-4.3463135,9.8364258
	c-1.0484619-3.499939-4.7445068-12.8828735-15.732666-22.010498v1.2893066
	c12.1693115,10.3793335,14.8009644,20.875,15.0872192,22.1818848L17.366333,61.6875h1.3921509
	c23.8290405-17.0703735,40.0716553-17.6383057,41.3344727-17.6536865L61.6875,44.670105v-1.0776367l-1.1603394-0.4630127
	c-5.3963623-8.5775146-0.5715332-16.9312744,1.1603394-19.444519V21.9876099z M36.1855469,7.0286255
	c2.3204346,2.4472046,10.546814,10.3518677,24.1359863,15.5128174l-8.4123535,2.5476685
	c-8.8134155-2.2285156-16.1625366-7.6687012-17.46698-8.673584L36.1855469,7.0286255z M15.8824463,19.6307983l5.7178955,4.8718872
	c0.244751,0.5072632,1.6287842,3.6046143,1.2879639,7.7749023l-6.3560181,0.6733398
	C17.0246582,31.1936646,17.8922729,26.4916382,15.8824463,19.6307983z M41.2419434,35.4343262l-8.6610718-3.4559326
	l9.6460571-2.9191895C41.4238892,30.3386841,40.571167,32.5228271,41.2419434,35.4343262z M23.1879272,25.8553467
	l6.6707764,5.6837769l-5.9646606,0.631897C24.0825806,29.5199585,23.6392822,27.3115234,23.1879272,25.8553467z
	 M24.3580322,25.5387573c2.0167236,0.458252,4.914978,0.5756836,7.6203003-1.274231l-1.2434082,6.7074585L24.3580322,25.5387573z
	 M31.3314209,32.5568848l8.2854614,3.3062134c-2.7332153,0.2578125-7.3674316,1.1546021-11.5770874,4.1434326L31.3314209,32.5568848
	z M41.7119751,28.1773071L31.694397,31.2111206l1.3615112-7.3312378
	C34.5093994,24.8261108,38.2234497,27.1096802,41.7119751,28.1773071z M33.2542725,22.8118896l0.9838257-5.2971802
	c1.9796143,1.4712524,8.2810669,5.8450928,15.8884277,8.1142578l-6.5409546,1.980896
	C39.5978394,26.9016724,34.4412231,23.5992432,33.2542725,22.8118896z M32.2539063,22.7782593
	c-4.3292847,3.8192139-9.4984741,1.2427979-9.9694214,0.9937744l-5.5924072-4.7648926
	c3.5505981,0.6367188,11.2111206,1.5109253,16.5186768-1.390564L32.2539063,22.7782593z M30.2664185,32.4926758
	l-3.6325073,8.2208252c-1.2907715-1.4317627-4.7954102-5.0509033-8.7287598-6.9087524L30.2664185,32.4926758z
	 M27.1824341,41.9467773c6.0193481-5.2012939,13.8991699-5.2016602,14.6948242-5.1817017l6.7498779,2.6934204
	c-4.4105225,0.8370361-16.2348022,3.5068359-24.4492798,9.2883301L27.1824341,41.9467773z M42.3928833,35.8935547
	c-1.3157349-4.2244873,1.0067139-6.8621826,1.4657593-7.328125l6.7199707-2.0336914
	c-1.4921265,2.2005005-3.9182129,7.0012207-1.2915649,12.1126709L42.3928833,35.8935547z M35.2175903,6.7911377
	l-1.7670288,9.5319214c-6.1759033,4.0239258-17.1485596,1.6184692-18.3341675,1.3416138l-8.4260254-7.1791992
	C11.3100586,10.6827393,25.5527954,10.8963013,35.2175903,6.7911377z M6.2784424,11.447876l8.1715088,6.9624023
	c2.7484741,8.0430298,1.3931274,13.4151611,1.0009766,14.6552124l-8.892334,0.9420776
	C7.1922607,31.2982178,9.2200317,21.0045166,6.2784424,11.447876z M7.5030518,34.9088745l8.2478027-0.8754883
	c4.7299805,1.4190063,9.4435425,6.5557251,10.4381714,7.6870117l-3.2954712,7.4581299
	C21.4849854,46.8372803,16.9499512,40.3356934,7.5030518,34.9088745z M19.1133423,60.2086792l4.241333-9.598938
	c9.4440918-7.5213623,25.494873-10.2047119,27.0370483-10.4470825l7.5809937,3.0250854
	C52.6998901,43.7763672,38.4127808,46.6176147,19.1133423,60.2086792z M59.0240479,42.5296631l-8.2406006-3.288147
	c-4.2150269-6.3362427,0.6558228-12.3399048,1.4030762-13.1963501l8.4268799-2.5502319
	C58.6896973,26.4325562,54.6044922,34.2663574,59.0240479,42.5296631z"/>
  <g>
  </g>
  <g>
  </g>
  <g>
  </g>
  <g>
  </g>
  <g>
  </g>
  <g>
  </g>
</svg>