<?xml version="1.0" encoding="UTF-8"?>
<!-- Generated by phantom_svg. -->
<svg width="64px" height="64px" viewBox="0 0 64 64" preserveAspectRatio="none" xmlns="http://www.w3.org/2000/svg" xmlns:xlink="http://www.w3.org/1999/xlink" xmlns:dc="http://purl.org/dc/elements/1.1/" xmlns:cc="http://creativecommons.org/ns#" xmlns:rdf="http://www.w3.org/1999/02/22-rdf-syntax-ns#" xmlns:svg="http://www.w3.org/2000/svg" xmlns:sodipodi="http://sodipodi.sourceforge.net/DTD/sodipodi-0.dtd" xmlns:inkscape="http://www.inkscape.org/namespaces/inkscape" version="1.1">
  <metadata id="frame0_metadata9">
    <rdf:RDF>
      <cc:Work rdf:about=''>
        <dc:format>
           image/svg+xml 
        </dc:format>
        <dc:type rdf:resource='http://purl.org/dc/dcmitype/StillImage'/>
      </cc:Work>
    </rdf:RDF>
  </metadata>
  <defs id="frame0_defs7"/>
  <sodipodi:namedview pagecolor="#ffffff" bordercolor="#666666" borderopacity="1" objecttolerance="10" gridtolerance="10" guidetolerance="10" inkscape:pageopacity="0" inkscape:pageshadow="2" inkscape:window-width="640" inkscape:window-height="480" id="frame0_namedview5"/>
  <path style="fill:#231815;" d="M75.6689453,40.6699219L72.96875,40.1533203  c-3.5234375-5.9296875-8.3105469-15.1835938-7.5615234-17.2631836l6.7998047-2.0898438l-0.2890625-0.9414063l-6.8671875,2.1103516  c-1.4707031-0.6459961-13.1582031-6.140625-20.1142578-20.0839844l1.4609375-3.5322266l-0.9101563-0.3759766L44.0380859,1.480957  C41.3320313,2.0693359,15.8510742,7.546875,5.2749023,7.546875c-1.3129883,0-2.3383789-0.0869141-3.0678711-0.2539063  l-4.9101563-4.140625l-0.6347656,0.7529297l4.8671875,4.1044922c0.3251953,2.0551758,3.4931641,22.6308594,1.1865234,29.2177734  l-12.2104492,2.0996094l0.1669922,0.9707031l12.2138672-2.1005859c1.6606445,2.0625,14.2631836,17.7988281,16.949707,23.546875  l-2.2290039,5.7333984l0.9179688,0.3574219l2.2329102-5.7421875c3.2041016-1.4179688,46.5185547-20.53125,52.1757813-20.53125  l0.8867188,0.0126953l-0.1738281-0.2890625l1.8369141,0.3515625L75.6689453,40.6699219z M71.6767578,39.90625l-11.8701172-2.2685547  c-0.7753906-0.6816406-6.2724609-5.7246094-6.2060547-11.1191406l10.7890625-3.3154297  C64.2558594,26.7963867,69.3525391,35.9394531,71.6767578,39.90625z M35.0605469,25.7641602  c0.7197266,2.0952148,2.8408203,3.3447266,4.7167969,3.972168l-7.2851563,2.2392578L35.0605469,25.7641602z M31.4404297,31.9428711  l-5.5053711-4.6420898c1.0053711,0.2363281,1.9716797,0.3618164,2.8852539,0.3618164  c2.2905273,0,3.9169922-0.7294922,5.0214844-1.5268555L31.4404297,31.9428711z M30.5107422,32.4472656l-6.2211914,1.0703125  c1.1152344-2.2675781,0.9672852-4.3793945,0.5986328-5.8115234L30.5107422,32.4472656z M30.8413086,33.390625l-0.0581055,0.140625  l0.0268555-0.0078125L28.8261719,38.625c-0.6367188-2.0058594-2.5649414-3.4355469-3.9072266-4.2158203L30.8413086,33.390625z   M31.9482422,33.3144531l6.234375,1.1914063c-4.0166016,0.7207031-6.6435547,2.4550781-8.2260742,3.9306641L31.9482422,33.3144531z   M33.6767578,32.6420898l6.9199219-2.1269531c-0.6279297,1.4575195-0.3818359,2.6538086-0.015625,3.4467773L33.6767578,32.6420898z   M41.5878906,29.1801758c-0.7900391-0.1469727-5.9970703-1.2685547-5.7861328-5.2080078l4.2519531-10.2807617  c1.3994141,5.6054688,9.0576172,10.65625,11.828125,12.3251953L41.5878906,29.1801758z M34.8652344,23.6611328  c-0.1123047,0.1967773-1.8017578,3.0166016-6.0449219,3.0166016c-1.4663086,0-3.0869141-0.3408203-4.8168945-1.0058594  l-10.2260742-8.6225586c0.7441406,0.0703125,1.5253906,0.1157227,2.3701172,0.1157227  c8.4179688,0,19.8867188-3.5078125,23.3154297-4.6210938L34.8652344,23.6611328z M23.3686523,26.4248047  c0.2817383,0.5292969,1.8364258,3.7915039-0.3061523,7.3037109l-7.7822266,1.3378906  c3.6953125-5.4589844,0.8330078-12.6733398-1.1796875-16.456543L23.3686523,26.4248047z M23.309082,34.6855469  c0.8056641,0.3652344,5.5473633,2.6826172,4.6225586,6.2392578l-2.8583984,7.3515625  c-0.6933594-7.0458984-6.5234375-10.8603516-9.3066406-12.2939453L23.309082,34.6855469z M28.8491211,41.2841797  c0.1455078-0.2509766,3.5249023-5.9082031,12.7338867-6.1279297l12.5351563,2.3964844  c-13.1416016,0.8769531-24.4882813,8.7314453-28.3833008,11.7402344L28.8491211,41.2841797z M41.8691406,34.2080078  c-0.3378906-0.390625-1.3935547-1.90625,0.0673828-4.1044922l10.6738281-3.2807617  c0.0996094,4.4902344,3.4921875,8.5454102,5.3994141,10.4711914L41.8691406,34.2080078z M63.6621094,22.3964844l-10.5,3.2265625  c-1.5351563-0.8793945-12.4824219-7.3876953-12.3388672-13.7910156l3.625-8.7651367  C50.7109375,15.0664063,60.3496094,20.7329102,63.6621094,22.3964844z M5.2749023,8.5317383  c10.0727539,0,33.4106445-4.8935547,38.3051758-5.9443359l-3.6201172,8.7558594  c-1.7734375,0.5981445-14.6699219,4.8364258-23.8125,4.8364258c-1.4091797,0-2.6713867-0.1040039-3.762207-0.3041992  L3.6113281,8.4770508C4.1083984,8.512207,4.6567383,8.5317383,5.2749023,8.5317383z M2.6762695,8.9765625l9.1264648,7.6953125  c0.5595703,0.8339844,7.7617188,11.8754883,2.0541992,18.6396484L3.8110352,37.0390625  C5.6987305,30.3964844,3.4042969,13.7910156,2.6762695,8.9765625z M3.9970703,38.0068359l10.074707-1.7324219  c1.1577148,0.46875,10.7817383,4.6767578,10.0478516,14.4541016l-3.8012695,9.7763672  C17.0649414,54.3994141,6.5097656,41.1347656,3.9970703,38.0068359z M21.2636719,60.7919922l3.7578125-9.6640625  c1.1972656-1.0195313,15.2646484-12.6826172,31.4619141-12.6826172c1.015625,0,2.0322266,0.046875,3.0253906,0.1376953  l11.7246094,2.2412109C61.9648438,42.9257813,27.9453125,57.8427734,21.2636719,60.7919922z" id="frame0_path3"/>
</svg>