<?xml version="1.0" encoding="utf-8"?>
<!-- Generator: Adobe Illustrator 15.0.2, SVG Export Plug-In . SVG Version: 6.00 Build 0)  -->
<!DOCTYPE svg PUBLIC "-//W3C//DTD SVG 1.1//EN" "http://www.w3.org/Graphics/SVG/1.1/DTD/svg11.dtd">
<svg version="1.1" id="レイヤー_1" xmlns="http://www.w3.org/2000/svg" xmlns:xlink="http://www.w3.org/1999/xlink" x="0px"
	 y="0px" width="64px" height="64px" viewBox="0 0 64 64" enable-background="new 0 0 64 64" xml:space="preserve">
<g>
	<g>
		<path fill="none" stroke="#3180FF" stroke-width="2" stroke-miterlimit="10" d="M9.588,52.066c0,0,2.882-11.47,15.178-17.192
			c12.295-5.723,20.19,10.743,11.164,16.048C26.907,56.231,21.342,43.567,9.588,52.066z"/>
		<path fill="#2CA4DE" d="M9.588,52.066c0,0,2.882-11.47,15.178-17.192c12.295-5.723,20.19,10.743,11.164,16.048
			C26.907,56.231,21.342,43.567,9.588,52.066z"/>
	</g>
	<g>
		<path fill="none" stroke="#3180FF" stroke-width="2" stroke-miterlimit="10" d="M23.285,23.026c0,0,3.36-11.72,18.441-17.206
			C59.56-0.667,65.75,20.625,54.378,25.537C43.007,30.447,38.327,14.766,23.285,23.026z"/>
		<path fill="#2CA4DE" d="M23.285,23.026c0,0,3.36-11.72,18.441-17.206C59.56-0.667,65.75,20.625,54.378,25.537
			C43.007,30.447,38.327,14.766,23.285,23.026z"/>
	</g>
</g>
</svg>
