<?xml version="1.0" encoding="utf-8"?>
<!-- Generator: Adobe Illustrator 15.0.2, SVG Export Plug-In . SVG Version: 6.00 Build 0)  -->
<!DOCTYPE svg PUBLIC "-//W3C//DTD SVG 1.1//EN" "http://www.w3.org/Graphics/SVG/1.1/DTD/svg11.dtd">
<svg version="1.1" id="レイヤー_1" xmlns="http://www.w3.org/2000/svg" xmlns:xlink="http://www.w3.org/1999/xlink" x="0px"
	 y="0px" width="64px" height="64px" viewBox="0 0 64 64" enable-background="new 0 0 64 64" xml:space="preserve">
<g>
	<g>
		<linearGradient id="SVGID_1_" gradientUnits="userSpaceOnUse" x1="32" y1="2.9961" x2="32" y2="60.9865">
			<stop  offset="0" style="stop-color:#FF1200"/>
			<stop  offset="1" style="stop-color:#FF0000"/>
		</linearGradient>
		<path fill="url(#SVGID_1_)" stroke="#BF0000" stroke-width="2" stroke-miterlimit="10" d="M62.205,50.205c0,6.627-5.373,12-12,12
			h-36.41c-6.627,0-12-5.373-12-12v-36.41c0-6.627,5.373-12,12-12h36.41c6.627,0,12,5.373,12,12V50.205z"/>
		<g>
			<path opacity="0.28" fill="#FFFFFF" d="M2.672,13.369c-0.032,0.353-0.054,0.709-0.054,1.071v12.594
				c0.006,0.006,0.012,0.012,0.017,0.018L2.672,13.369z"/>
			<path opacity="0.28" fill="#FFFFFF" d="M60.106,23.57c1.188-5.802,1.222-9.417,1.222-10.194
				C60.79,7.428,55.797,2.767,49.71,2.767H14.291c-6.076,0-11.062,4.642-11.617,10.572c0.02,0.349,0.497,4.034,1.293,10.307
				C11.207,30.701,21.092,35.055,32,35.055C42.945,35.055,52.859,30.669,60.106,23.57z"/>
			<path opacity="0.28" fill="#FFFFFF" d="M61.328,13.379l0.039,13.667c0.005-0.005,0.01-0.01,0.015-0.015V14.439
				C61.382,14.082,61.359,13.729,61.328,13.379z"/>
		</g>
		<path fill="#FFFFFF" d="M2.674,27.586c0,0-0.006-10.919-0.028-13.859c-0.027-3.6,3.244-10.89,10.375-10.89
			c6.639,0,16.803,0,16.803,0S17.118,3.651,13.02,4.471s-7.494,6.043-8.442,9.263C3.198,18.415,2.674,27.586,2.674,27.586z"/>
		<path fill="#BC0000" d="M61.001,37.832c0,0,0.006,10.233,0.027,12.989c0.026,3.373-3.141,10.207-10.048,10.207
			c-6.428,0-16.27,0-16.27,0s12.304-0.764,16.272-1.532c3.967-0.769,7.254-5.663,8.174-8.681
			C60.493,46.427,61.001,37.832,61.001,37.832z"/>
	</g>
	<g>
		<path fill="#FFFFFF" d="M16.852,41.304V18.698h12.303v-4.46h5.537v4.46h12.457v22.605h-5.383v-1.691h-7.074v10.149h-5.537V39.612
			h-6.92v1.691H16.852z M22.234,26.694h6.92v-3.075h-6.92V26.694z M22.234,34.691h6.92V31.77h-6.92V34.691z M34.691,26.694h7.074
			v-3.075h-7.074V26.694z M34.691,34.691h7.074V31.77h-7.074V34.691z"/>
	</g>
</g>
</svg>
