<?xml version="1.0" encoding="utf-8"?>
<!-- Generator: Adobe Illustrator 15.0.2, SVG Export Plug-In . SVG Version: 6.00 Build 0)  -->
<!DOCTYPE svg PUBLIC "-//W3C//DTD SVG 1.1//EN" "http://www.w3.org/Graphics/SVG/1.1/DTD/svg11.dtd">
<svg version="1.1" id="レイヤー_1" xmlns="http://www.w3.org/2000/svg" xmlns:xlink="http://www.w3.org/1999/xlink" x="0px"
	 y="0px" width="64px" height="64px" viewBox="0 0 64 64" enable-background="new 0 0 64 64" xml:space="preserve">
<g>
	<linearGradient id="SVGID_1_" gradientUnits="userSpaceOnUse" x1="32" y1="2.9961" x2="32" y2="60.9865">
		<stop  offset="0" style="stop-color:#FF1200"/>
		<stop  offset="1" style="stop-color:#FF0000"/>
	</linearGradient>
	<path fill="url(#SVGID_1_)" stroke="#BF0000" stroke-width="2" stroke-miterlimit="10" d="M62.205,50.205c0,6.627-5.373,12-12,12
		h-36.41c-6.627,0-12-5.373-12-12v-36.41c0-6.627,5.373-12,12-12h36.41c6.627,0,12,5.373,12,12V50.205z"/>
	<g>
		<path opacity="0.28" fill="#FFFFFF" d="M2.672,13.369c-0.032,0.353-0.054,0.709-0.054,1.071v12.594
			c0.006,0.006,0.012,0.012,0.017,0.018L2.672,13.369z"/>
		<path opacity="0.28" fill="#FFFFFF" d="M60.106,23.57c1.188-5.802,1.222-9.417,1.222-10.194C60.79,7.428,55.797,2.767,49.71,2.767
			H14.291c-6.076,0-11.062,4.642-11.617,10.572c0.02,0.349,0.497,4.034,1.293,10.307C11.207,30.701,21.092,35.055,32,35.055
			C42.945,35.055,52.859,30.669,60.106,23.57z"/>
		<path opacity="0.28" fill="#FFFFFF" d="M61.328,13.379l0.039,13.667c0.005-0.005,0.01-0.01,0.015-0.015V14.439
			C61.382,14.082,61.359,13.729,61.328,13.379z"/>
	</g>
	<path fill="#FFFFFF" d="M2.674,27.586c0,0-0.006-10.919-0.028-13.859c-0.027-3.6,3.244-10.89,10.375-10.89
		c6.639,0,16.803,0,16.803,0S17.118,3.651,13.02,4.471s-7.494,6.043-8.442,9.263C3.198,18.415,2.674,27.586,2.674,27.586z"/>
	<path fill="#BC0000" d="M61.001,37.832c0,0,0.006,10.233,0.027,12.989c0.026,3.373-3.141,10.207-10.048,10.207
		c-6.428,0-16.27,0-16.27,0s12.304-0.764,16.272-1.532c3.967-0.769,7.254-5.663,8.174-8.681
		C60.493,46.427,61.001,37.832,61.001,37.832z"/>
	<g>
		<path fill="#FFFFFF" d="M32.491,16.528l-7.47,31.028h-6.316l-7.469-31.028h7.597c-0.028,0.342,0.043,0.953,0.214,1.835
			l2.816,13.999l2.817-13.999c0.199-0.911,0.271-1.522,0.213-1.835H32.491z"/>
		<path fill="#FFFFFF" d="M52.764,39.277c0,2.674-0.868,4.852-2.604,6.529c-1.707,1.621-3.898,2.434-6.572,2.434
			c-5.776,0-8.664-3.672-8.664-11.012h7.597c-0.114,0.541-0.171,1.139-0.171,1.793c-0.028,1.963,0.441,2.943,1.408,2.943
			c1.139,0,1.708-0.854,1.708-2.561c0-1.564-0.868-3.145-2.604-4.736c-1.081-0.939-2.689-2.405-4.823-4.397
			c-1.764-1.707-2.646-3.627-2.646-5.761c0-2.533,0.769-4.624,2.305-6.274c1.48-1.65,3.472-2.476,5.976-2.476
			c2.788,0,4.937,0.911,6.444,2.731c1.395,1.622,2.148,3.855,2.263,6.701h-7.384c0.085-0.313,0.128-0.612,0.128-0.896
			c0-1.565-0.398-2.348-1.195-2.348c-0.854,0-1.28,0.526-1.28,1.579c0,1.28,0.882,2.661,2.646,4.14
			c2.731,2.334,4.339,3.799,4.822,4.396C51.882,34.17,52.764,36.574,52.764,39.277z"/>
	</g>
</g>
</svg>
