<?xml version="1.0" encoding="UTF-8" standalone="no"?>
<!-- Generator: Adobe Illustrator 15.0.2, SVG Export Plug-In . SVG Version: 6.00 Build 0)  -->

<svg
   xmlns:dc="http://purl.org/dc/elements/1.1/"
   xmlns:cc="http://creativecommons.org/ns#"
   xmlns:rdf="http://www.w3.org/1999/02/22-rdf-syntax-ns#"
   xmlns:svg="http://www.w3.org/2000/svg"
   xmlns="http://www.w3.org/2000/svg"
   xmlns:sodipodi="http://sodipodi.sourceforge.net/DTD/sodipodi-0.dtd"
   xmlns:inkscape="http://www.inkscape.org/namespaces/inkscape"
   version="1.1"
   id="レイヤー_1"
   x="0px"
   y="0px"
   width="64px"
   height="64px"
   viewBox="0 0 64 64"
   style="enable-background:new 0 0 64 64;"
   xml:space="preserve"
   inkscape:version="0.48.5 r10040"
   sodipodi:docname="star_of_david.svg"><metadata
     id="metadata11"><rdf:RDF><cc:Work
         rdf:about=""><dc:format>image/svg+xml</dc:format><dc:type
           rdf:resource="http://purl.org/dc/dcmitype/StillImage" /></cc:Work></rdf:RDF></metadata><defs
     id="defs9" /><sodipodi:namedview
     pagecolor="#ffffff"
     bordercolor="#666666"
     borderopacity="1"
     objecttolerance="10"
     gridtolerance="10"
     guidetolerance="10"
     inkscape:pageopacity="0"
     inkscape:pageshadow="2"
     inkscape:window-width="640"
     inkscape:window-height="480"
     id="namedview7" /><g
     id="g3"><path
       style="fill:#0038B8;"
       d="M44.4042969,31.9995117l6.1972656-10.734375H38.2060547L32,10.515625l-6.206543,10.7495117   H13.3984375l6.1972656,10.734375l-6.1972656,10.7338867h12.3945313L32,53.484375l6.2070313-10.7509766h12.3945313   L44.4042969,31.9995117z M40.2275391,24.7651367h4.3115234l-2.15625,3.734375L40.2275391,24.7651367z M40.3623047,31.9995117   l-4.1757813,7.2338867h-8.3725586l-4.1762695-7.2338867l4.1767578-7.234375h8.3710938L40.3623047,31.9995117z    M29.8349609,21.2651367L32,17.515625l2.1650391,3.7495117H29.8349609z M21.6166992,28.4995117l-2.1557617-3.734375h4.3120117   L21.6166992,28.4995117z M23.7724609,39.2333984h-4.3115234L21.6166992,35.5L23.7724609,39.2333984z M34.1660156,42.7333984   L32,46.484375l-2.1655273-3.7509766H34.1660156z M42.3837891,35.5l2.1552734,3.7333984h-4.3115234L42.3837891,35.5z"
       id="path5" /></g></svg>