<?xml version="1.0" encoding="utf-8"?>
<!-- Generator: Adobe Illustrator 15.0.0, SVG Export Plug-In . SVG Version: 6.00 Build 0)  -->
<!DOCTYPE svg PUBLIC "-//W3C//DTD SVG 1.1//EN" "http://www.w3.org/Graphics/SVG/1.1/DTD/svg11.dtd">
<svg version="1.1" id="レイヤー_1" xmlns="http://www.w3.org/2000/svg" xmlns:xlink="http://www.w3.org/1999/xlink" x="0px"
	 y="0px" width="64px" height="64px" viewBox="0 0 64 64" style="enable-background:new 0 0 64 64;" xml:space="preserve">
<g>
	<path style="fill:#E50000;" d="M29.3457031,52.2285156c-11.1484375,0-20.1875-9.0371094-20.1875-20.1870117
		c0-11.1489258,9.0390625-20.1875,20.1875-20.1875c6.7226563,0,12.6601563,3.2983398,16.3300781,8.3510742
		C41.6582031,13.4941406,34.3183594,8.9995117,25.9287109,8.9995117c-12.7021484,0-23,10.2978516-23,23
		C2.9287109,44.703125,13.2265625,55,25.9287109,55c8.1767578,0,15.3525391-4.2714844,19.4306641-10.6992188
		C41.6699219,49.1132813,35.8789063,52.2285156,29.3457031,52.2285156z"/>
	<polygon style="fill:#E50000;" points="51.9160156,22.309082 55.5507813,26.5102539 61.0712891,25.8969727 58.1992188,30.6518555 
		60.4873047,35.7109375 55.0791016,34.4492188 50.9726563,38.1894531 50.5009766,32.6567383 45.6757813,29.9077148 
		50.7939453,27.7495117 	"/>
</g>
</svg>
