<?xml version="1.0" encoding="utf-8"?>
<!-- Generator: Adobe Illustrator 15.0.2, SVG Export Plug-In . SVG Version: 6.00 Build 0)  -->
<!DOCTYPE svg PUBLIC "-//W3C//DTD SVG 1.1//EN" "http://www.w3.org/Graphics/SVG/1.1/DTD/svg11.dtd">
<svg version="1.1" id="レイヤー_1" xmlns="http://www.w3.org/2000/svg" xmlns:xlink="http://www.w3.org/1999/xlink" x="0px"
	 y="0px" width="64px" height="64px" viewBox="0 0 64 64" style="enable-background:new 0 0 64 64;" xml:space="preserve">
<g>
	<path style="fill:#0038B8;" d="M44.4042969,31.9995117l6.1972656-10.734375H38.2060547L32,10.515625l-6.206543,10.7495117
		H13.3984375l6.1972656,10.734375l-6.1972656,10.7338867h12.3945313L32,53.484375l6.2070313-10.7509766h12.3945313
		L44.4042969,31.9995117z M40.2275391,24.7651367h4.3115234l-2.15625,3.734375L40.2275391,24.7651367z M40.3623047,31.9995117
		l-4.1757813,7.2338867h-8.3725586l-4.1762695-7.2338867l4.1767578-7.234375h8.3710938L40.3623047,31.9995117z
		 M29.8349609,21.2651367L32,17.515625l2.1650391,3.7495117H29.8349609z M21.6166992,28.4995117l-2.1557617-3.734375h4.3120117
		L21.6166992,28.4995117z M23.7724609,39.2333984h-4.3115234L21.6166992,35.5L23.7724609,39.2333984z M34.1660156,42.7333984
		L32,46.484375l-2.1655273-3.7509766H34.1660156z M42.3837891,35.5l2.1552734,3.7333984h-4.3115234L42.3837891,35.5z"/>
</g>
</svg>
