<?xml version="1.0" encoding="utf-8"?>
<!-- Generator: Adobe Illustrator 15.0.2, SVG Export Plug-In . SVG Version: 6.00 Build 0)  -->
<!DOCTYPE svg PUBLIC "-//W3C//DTD SVG 1.1//EN" "http://www.w3.org/Graphics/SVG/1.1/DTD/svg11.dtd">
<svg version="1.1" id="レイヤー_1" xmlns="http://www.w3.org/2000/svg" xmlns:xlink="http://www.w3.org/1999/xlink" x="0px"
	 y="0px" width="64px" height="64px" viewBox="0 0 64 64" style="enable-background:new 0 0 64 64;" xml:space="preserve">
<g>
	<g>
		<path style="fill:#4F4748;" d="M26.9067383,39.2109375l-0.7871094,22.3212891l3.3300781,0.7246094l6.8852539-2.4980469
			c0,0-0.1552734-12.8125-1.3720703-15.8740234l-1.7001953-5.7207031L26.9067383,39.2109375z"/>
		<path d="M29.484375,62.7763672l-3.8793945-0.8447266l0.8164063-23.1474609l7.1948242-1.1855469l1.8261719,6.1435547
			c1.2216797,3.0693359,1.3857422,15.4833984,1.3925781,16.0107422l0.0039063,0.3544922L29.484375,62.7763672z
			 M26.6342773,61.1328125l2.7807617,0.6044922l6.4140625-2.3271484
			c-0.0361328-2.0810547-0.2724609-12.6787109-1.3310547-15.3408203l-1.5893555-5.3398438l-5.5166016,0.9082031
			L26.6342773,61.1328125z"/>
	</g>
	<g>
		<linearGradient id="SVGID_1_" gradientUnits="userSpaceOnUse" x1="26.1630859" y1="35.2060547" x2="35.5401573" y2="37.0141525">
			<stop  offset="0" style="stop-color:#FFFFFF"/>
			<stop  offset="0.175758" style="stop-color:#B3B3B3"/>
			<stop  offset="0.309091" style="stop-color:#6B6B6B"/>
			<stop  offset="1" style="stop-color:#FFFFFF"/>
		</linearGradient>
		<path style="fill:url(#SVGID_1_);" d="M26.1196289,31.8115234v4.4990234c0,0-2.1279297,3.5449219,1.2988281,5.2373047h6.4086914
			c0,0,2.3847656-1.9335938,1.6357422-3.9482422l2.1464844-6.2851563L26.1196289,31.8115234z"/>
		<path d="M34.0039063,42.0478516h-6.7021484l-0.1044922-0.0517578c-1.0952148-0.5410156-1.796875-1.3134766-2.0859375-2.296875
			c-0.4492188-1.5302734,0.2695313-3.0693359,0.5083008-3.5185547v-4.8486328l12.699707-0.5488281l-2.3291016,6.8183594
			c0.6787109,2.2529297-1.7421875,4.2490234-1.8486328,4.3349609L34.0039063,42.0478516z M27.5385742,41.0478516h6.1000977
			c0.4453125-0.4082031,1.8789063-1.8662109,1.3554688-3.2744141l-0.0625-0.1669922l1.9677734-5.7607422l-10.2797852,0.4443359
			v4.1582031l-0.0708008,0.1191406c-0.0087891,0.0146484-0.8774414,1.5-0.4760742,2.8544922
			C26.2719727,40.0957031,26.7646484,40.6416016,27.5385742,41.0478516z"/>
	</g>
	<g>
		<linearGradient id="SVGID_2_" gradientUnits="userSpaceOnUse" x1="22.7084961" y1="15.9960938" x2="40.6785583" y2="19.4611034">
			<stop  offset="0" style="stop-color:#FFFFFF"/>
			<stop  offset="0.175758" style="stop-color:#B3B3B3"/>
			<stop  offset="0.309091" style="stop-color:#6B6B6B"/>
			<stop  offset="1" style="stop-color:#FFFFFF"/>
		</linearGradient>
		<path style="fill:url(#SVGID_2_);" d="M23.2705078,6.3339844c0,0,1.128418-4.2705078,4.5126953-4.5126953
			c3.3842773-0.2412109,15.2304688-0.8046875,15.875,9.3476563c0,0-2.578125,14.9882813-3.1425781,18.7753906
			s-9.6704102,3.7871094-12.4101563,3.3037109s-8.2192383-1.8535156-7.7358398-8.7832031S23.2705078,6.3339844,23.2705078,6.3339844
			z"/>
		<path d="M31.3208008,33.96875c-1.2568359,0-2.4907227-0.0849609-3.3022461-0.2285156
			c-5.7666016-1.0175781-8.5078125-4.1503906-8.1479492-9.3105469c0.4804688-6.8857422,2.8867188-18.0888672,2.9111328-18.2011719
			c0.0551758-0.2109375,1.2675781-4.6416016,4.9658203-4.9052734c0.5932617-0.0429688,1.5048828-0.0996094,2.5703125-0.0996094
			c8.519043,0,13.4331055,3.5214844,13.8393555,9.9140625l0.0039063,0.0585938l-0.0097656,0.0576172
			C44.125,11.4033203,41.5673828,26.2792969,41.0097656,30.0175781C40.4785156,33.5839844,34.0566406,33.96875,31.3208008,33.96875z
			 M30.3178711,2.2236328c-1.0332031,0-1.9208984,0.0556641-2.4990234,0.0966797
			c-2.9931641,0.2138672-4.0546875,4.1025391-4.0649414,4.1416016c-0.0185547,0.0898438-2.4101563,11.2236328-2.8852539,18.0371094
			c-0.4301758,6.1660156,3.9736328,7.6650391,7.3237305,8.2568359c0.7573242,0.1337891,1.9267578,0.2128906,3.128418,0.2128906
			c3.9829102,0,8.3598633-0.8134766,8.7006836-3.0986328c0.5410156-3.6289063,2.9570313-17.6962891,3.1337891-18.7275391
			C42.6523438,3.7734375,35.9013672,2.2236328,30.3178711,2.2236328z"/>
	</g>
	<path d="M22.8261719,8.4863281c0,0,7.6166992-0.8623047,16.3193359,2.3603516V9.6142578
		c0,0-3.7138672-2.9091797-15.9995117-2.6914063L22.8261719,8.4863281z"/>
	<path d="M22.2626953,10.984375c0,0,7.6166992-0.8623047,16.3193359,2.3603516v-1.2324219
		c0,0-3.7138672-2.9091797-15.9995117-2.6914063L22.2626953,10.984375z"/>
	<path d="M21.9550781,13.5166016c0,0,7.6166992-0.8623047,16.3193359,2.3613281v-1.2333984
		c0,0-3.7138672-2.9082031-15.9995117-2.6914063L21.9550781,13.5166016z"/>
	<path d="M21.8535156,15.6572266c0,0,7.6166992-0.8623047,16.3193359,2.3613281v-1.2333984
		c0,0-3.7138672-2.9082031-15.9995117-2.6914063L21.8535156,15.6572266z"/>
	<path d="M21.2900391,18.1552734c0,0,7.6166992-0.8623047,16.3193359,2.3613281v-1.2333984
		c0,0-3.7138672-2.9082031-15.9995117-2.6914063L21.2900391,18.1552734z"/>
	<path d="M20.9824219,20.6884766c0,0,7.6166992-0.8623047,16.3193359,2.3603516v-1.2324219
		c0,0-3.7138672-2.9091797-15.9995117-2.6914063L20.9824219,20.6884766z"/>
	<path d="M20.3232422,22.65625c0,0,7.6166992-0.8623047,16.3193359,2.3613281v-1.2333984
		c0,0-3.7143555-2.9082031-15.9995117-2.6914063L20.3232422,22.65625z"/>
	<path d="M20.015625,25.1894531c0,0,7.6166992-0.8623047,16.3193359,2.3603516v-1.2324219
		c0,0-3.7143555-2.9091797-15.9995117-2.6914063L20.015625,25.1894531z"/>
	<path d="M20.3232422,26.2373047h0.9667969l0.5634766,3.3037109C21.8535156,29.5410156,20.2768555,28.0107422,20.3232422,26.2373047
		z"/>
	<path d="M22.2802734,26.5595703h1.0078125c0,0-0.4907227,4.1816406,2.3647461,6.0791016
		C25.652832,32.6386719,21.3076172,32.9619141,22.2802734,26.5595703z"/>
	<path d="M24.0458984,26.5595703l1.3198242,0.3222656c0,0-0.8027344,3.9619141,2.0527344,5.8603516
		C27.418457,32.7421875,23.0732422,32.9619141,24.0458984,26.5595703z"/>
	<path d="M26.2045898,26.8818359l1.7880859,0.3300781c0,0-0.7104492,5.0537109,3.8417969,6.6806641
		C31.8344727,33.8925781,25.3066406,34.1113281,26.2045898,26.8818359z"/>
	<path d="M29.1079102,27.3808594l1.6357422,0.3378906c0,0-0.6289063,2.5078125,4.2192383,5.5019531h-3.128418
		C31.8344727,33.2207031,28.6826172,30.1816406,29.1079102,27.3808594z"/>
	<path d="M24.1713867,4.3125l0.4692383,1.1357422h0.4833984c0,0,1.043457-3.1201172,2.2944336-3.5751953
		C27.418457,1.8730469,24.5874023,1.7099609,24.1713867,4.3125z"/>
	<path d="M26.4487305,5.4482422h0.609375c0,0,0.8027344-3.7519531,2.6542969-3.7246094L27.418457,1.8730469
		C27.418457,1.8730469,25.996582,3.9384766,26.4487305,5.4482422z"/>
	<path d="M28.0361328,5.4482422h0.6811523c0,0,1.5478516-3.6064453,3.1171875-3.5771484l-2.1220703-0.1474609
		C29.7124023,1.7236328,27.8056641,3.5146484,28.0361328,5.4482422z"/>
	<path d="M30.4223633,5.0449219h1.0673828c0,0,1.6713867-3.1738281,3.4731445-2.7929688
		C34.9628906,2.2519531,30.9858398,0.4521484,30.4223633,5.0449219z"/>
	<path d="M32.3422852,5.0449219l1.3237305,0.4033203c0,0,2.1474609-3.4873047,4.9160156-1.7890625l-3.1191406-1.4072266
		C35.4628906,2.2519531,33.9052734,2.8447266,32.3422852,5.0449219z"/>
	<linearGradient id="SVGID_3_" gradientUnits="userSpaceOnUse" x1="22.2250977" y1="15.4467773" x2="43.5995979" y2="18.1524734">
		<stop  offset="0" style="stop-color:#FFFFFF"/>
		<stop  offset="0.175758" style="stop-color:#B3B3B3"/>
		<stop  offset="0.309091" style="stop-color:#6B6B6B"/>
		<stop  offset="1" style="stop-color:#FFFFFF"/>
	</linearGradient>
	<path style="fill:url(#SVGID_3_);" d="M27.418457,6.4951172c0,0-2.0283203,7.2138672-3.53125,19.0869141h1.9077148
		c0,0,3.0322266-16.8984375,4.1308594-19.0869141H27.418457z"/>
	<path style="fill:#999999;" d="M33.1826172,40.4199219c-1.277832,0.6875-1.7602539-1.9345703-0.840332-2.9013672
		l0.840332-3.0615234h2.2802734l-1.1523438,2.9814453C34.3105469,37.4384766,35.2783203,39.2919922,33.1826172,40.4199219z"/>
	<path style="fill:#232323;" d="M33.6640625,42.7568359h-2.6782227l-1.0600586,18.2109375l5.0371094-1.8535156
		c0,0-0.1689453-11.0400391-0.6523438-13.4570313L33.6640625,42.7568359z"/>
</g>
</svg>
