<?xml version="1.0" encoding="UTF-8" standalone="no"?>
<!-- Generator: Adobe Illustrator 15.0.0, SVG Export Plug-In . SVG Version: 6.00 Build 0)  -->

<svg
   xmlns:dc="http://purl.org/dc/elements/1.1/"
   xmlns:cc="http://creativecommons.org/ns#"
   xmlns:rdf="http://www.w3.org/1999/02/22-rdf-syntax-ns#"
   xmlns:svg="http://www.w3.org/2000/svg"
   xmlns="http://www.w3.org/2000/svg"
   xmlns:sodipodi="http://sodipodi.sourceforge.net/DTD/sodipodi-0.dtd"
   xmlns:inkscape="http://www.inkscape.org/namespaces/inkscape"
   version="1.1"
   id="レイヤー_1"
   x="0px"
   y="0px"
   width="64px"
   height="64px"
   viewBox="0 0 64 64"
   style="enable-background:new 0 0 64 64;"
   xml:space="preserve"
   inkscape:version="0.48.4 r9939"
   sodipodi:docname="sunny.svg"><metadata
     id="metadata37"><rdf:RDF><cc:Work
         rdf:about=""><dc:format>image/svg+xml</dc:format><dc:type
           rdf:resource="http://purl.org/dc/dcmitype/StillImage" /></cc:Work></rdf:RDF></metadata><defs
     id="defs35" /><sodipodi:namedview
     pagecolor="#ffffff"
     bordercolor="#666666"
     borderopacity="1"
     objecttolerance="10"
     gridtolerance="10"
     guidetolerance="10"
     inkscape:pageopacity="0"
     inkscape:pageshadow="2"
     inkscape:window-width="640"
     inkscape:window-height="480"
     id="namedview33" /><g
     id="g3"><polygon
       style="fill:#FF9417;"
       points="32,1.7441406 37.3378906,14.4467773 48.6953125,6.6459961 46.3183594,20.2182617    60.0908203,19.796875 50.7529297,29.9287109 62.5673828,37.0205078 49.2333984,40.4960938 55.3388672,52.8486328    42.2431641,48.5634766 40.7001953,62.2558594 32,51.5712891 23.2998047,62.2558594 21.7568359,48.5634766 8.6611328,52.8486328    14.765625,40.4960938 1.4326172,37.0205078 13.2470703,29.9287109 3.9091797,19.796875 17.6816406,20.2182617    15.3037109,6.6459961 26.6621094,14.4467773  "
       id="polygon5" /><g
       id="g7"><circle
         style="fill:#FF9948;"
         cx="32"
         cy="32"
         r="21.9169922"
         id="circle9" /><path
         style="fill:#EC6203;"
         d="M32,54.9169922C19.3637695,54.9169922,9.0830078,44.6367188,9.0830078,32    C9.0830078,19.3637695,19.3637695,9.0830078,32,9.0830078c12.6367188,0,22.9169922,10.2807617,22.9169922,22.9169922    C54.9169922,44.6367188,44.6367188,54.9169922,32,54.9169922z M32,11.0830078    c-11.5336914,0-20.9169922,9.3833008-20.9169922,20.9169922c0,11.5332031,9.3833008,20.9169922,20.9169922,20.9169922    c11.5332031,0,20.9169922-9.3837891,20.9169922-20.9169922C52.9169922,20.4663086,43.5332031,11.0830078,32,11.0830078z"
         id="path11" /></g><g
       id="g13"><linearGradient
         id="SVGID_1_"
         gradientUnits="userSpaceOnUse"
         x1="26.2416992"
         y1="14.2045898"
         x2="40.1167068"
         y2="57.0795326"><stop
           offset="0"
           style="stop-color:#FFCF3F"
           id="stop16" /><stop
           offset="0.636364"
           style="stop-color:#FF5400"
           id="stop18" /><stop
           offset="1"
           style="stop-color:#FFC71F"
           id="stop20" /></linearGradient><circle
         style="fill:url(#SVGID_1_);"
         cx="32.0002441"
         cy="32"
         r="20.9587402"
         id="circle22" /><path
         style="fill:#FFD531;"
         d="M32,53.4589844c-11.8320313,0-21.4584961-9.6259766-21.4584961-21.4589844    c0-11.8320313,9.6264648-21.4584961,21.4584961-21.4584961c11.8330078,0,21.4589844,9.6264648,21.4589844,21.4584961    C53.4589844,43.8330078,43.8330078,53.4589844,32,53.4589844z M32,11.5415039    c-11.2807617,0-20.4584961,9.1777344-20.4584961,20.4584961c0,11.28125,9.1777344,20.4589844,20.4584961,20.4589844    c11.28125,0,20.4589844-9.1777344,20.4589844-20.4589844C52.4589844,20.7192383,43.28125,11.5415039,32,11.5415039z"
         id="path24" /></g><linearGradient
       id="SVGID_2_"
       gradientUnits="userSpaceOnUse"
       x1="24.1435547"
       y1="26.0141602"
       x2="16.4270954"
       y2="19.044445"><stop
         offset="0"
         style="stop-color:#FFFFFF;stop-opacity:0"
         id="stop27" /><stop
         offset="1"
         style="stop-color:#FFFFFF"
         id="stop29" /></linearGradient><path
       style="fill:url(#SVGID_2_);"
       d="M33.0585938,13.2954102c-1.6723633-1.7890625-14.1450195-0.5463867-19.0634766,11.8647461   C10.5415039,33.875,14.8579102,42.3847656,20.7573242,39.78125c5.8999023-2.6035156,1.7568359-13.7578125,5.3979492-17.0844727   C29.7949219,19.3701172,37.5019531,18.0478516,33.0585938,13.2954102z"
       id="path31" /></g></svg>