<?xml version="1.0" encoding="utf-8"?>
<!-- Generator: Adobe Illustrator 17.0.0, SVG Export Plug-In . SVG Version: 6.00 Build 0)  -->
<!DOCTYPE svg PUBLIC "-//W3C//DTD SVG 1.1//EN" "http://www.w3.org/Graphics/SVG/1.1/DTD/svg11.dtd">
<svg version="1.1" id="レイヤー_1" xmlns="http://www.w3.org/2000/svg" xmlns:xlink="http://www.w3.org/1999/xlink" x="0px"
	 y="0px" width="64px" height="64px" viewBox="0 0 64 64" style="enable-background:new 0 0 64 64;" xml:space="preserve">
<g>
	<polygon style="fill:#BFA27A;" points="19.5,30.75 32,20.75 44.5,30.75 44.5,32 32,22 19.5,32 	"/>
	<polygon style="fill:#BFA27A;" points="19.5,32.6666679 32,22.666666 44.5,32.6666679 44.5,33.5 32,23.5 19.5,33.5 	"/>
	<polygon style="fill:#BFA27A;" points="19.5,27 32,17 44.5,27 44.5,28.25 32,18.25 19.5,28.25 	"/>
	<linearGradient id="SVGID_1_" gradientUnits="userSpaceOnUse" x1="32" y1="17" x2="32" y2="62">
		<stop  offset="0" style="stop-color:#FFEFD9"/>
		<stop  offset="1" style="stop-color:#ECD4B1"/>
	</linearGradient>
	<polygon style="fill:url(#SVGID_1_);" points="44.5,17 44.5,28.25 32,18.25 19.5,28.25 19.5,17 7,17 7,62 19.5,62 32,62 44.5,62 
		57,62 57,17 	"/>
	<linearGradient id="SVGID_2_" gradientUnits="userSpaceOnUse" x1="45.0208321" y1="17" x2="45.0208321" y2="62">
		<stop  offset="0" style="stop-color:#FFD291"/>
		<stop  offset="0.9955752" style="stop-color:#AD946F"/>
	</linearGradient>
	<rect x="44.5" y="17" style="fill:url(#SVGID_2_);" width="1.0416666" height="45"/>
	<linearGradient id="SVGID_3_" gradientUnits="userSpaceOnUse" x1="18.979166" y1="17" x2="18.979166" y2="62">
		<stop  offset="0" style="stop-color:#FFD291"/>
		<stop  offset="0.9955752" style="stop-color:#AD946F"/>
	</linearGradient>
	<rect x="18.4583321" y="17" style="fill:url(#SVGID_3_);" width="1.0416666" height="45"/>
	<linearGradient id="SVGID_4_" gradientUnits="userSpaceOnUse" x1="7.5208335" y1="17" x2="7.5208335" y2="62">
		<stop  offset="0" style="stop-color:#FFD291"/>
		<stop  offset="0.9955752" style="stop-color:#AD946F"/>
	</linearGradient>
	<rect x="7" y="17" style="fill:url(#SVGID_4_);" width="1.0416666" height="45"/>
	<linearGradient id="SVGID_5_" gradientUnits="userSpaceOnUse" x1="56.4791679" y1="17" x2="56.4791679" y2="62">
		<stop  offset="0" style="stop-color:#FFD291"/>
		<stop  offset="0.9955752" style="stop-color:#AD946F"/>
	</linearGradient>
	<rect x="55.9583359" y="17" style="fill:url(#SVGID_5_);" width="1.0416666" height="45"/>
	<path style="fill:#8C775A;" d="M32,27.333334c0,0-9.583334,2.622221-9.583334,11.8000011V47h19.166666v-7.8666649
		C41.5833321,29.955555,32,27.333334,32,27.333334z"/>
	<linearGradient id="SVGID_6_" gradientUnits="userSpaceOnUse" x1="32" y1="28.25" x2="32" y2="47">
		<stop  offset="0" style="stop-color:#4A3F2F"/>
		<stop  offset="1" style="stop-color:#6A5B44"/>
	</linearGradient>
	<path style="fill:url(#SVGID_6_);" d="M32,28.25c0,0-8.75,2.5-8.75,11.25V47h17.5v-7.5C40.75,30.75,32,28.25,32,28.25z"/>
	<rect x="30.75" y="13.25" style="fill:#BFA27A;" width="2.5" height="5.5"/>
	<polygon style="fill:#BFA27A;" points="19.5,30.75 32,20.75 44.5,30.75 44.5,31.5 32,21.5 19.5,31.5 	"/>
	<rect x="7" y="45.75" style="fill:#A68D6A;" width="50" height="1.25"/>
	<rect x="7" y="30.75" style="fill:#CCAE83;" width="12.5" height="1.25"/>
	<rect x="44.5" y="30.75" style="fill:#CCAE83;" width="12.5" height="1.25"/>
	<rect x="44.5" y="28.25" style="fill:#CCAE83;" width="12.5" height="1.25"/>
	<rect x="7" y="28.25" style="fill:#CCAE83;" width="12.5" height="1.25"/>
	<rect x="7" y="17" style="fill:#A68D6A;" width="12.5" height="1.25"/>
	<rect x="44.5" y="17" style="fill:#A68D6A;" width="12.5" height="1.25"/>
	<path style="fill:#292C47;" d="M48.1783104,27.5v-6c0,0,0-1.5,1.2858467-1.5C50.75,20,50.75,21.5,50.75,21.5v6H48.1783104z"/>
	<path style="fill:#D9B98B;" d="M51.1001854,28H47.828125v-6.5c0-0.5561523,0.2941017-2,1.6360321-2
		c1.3419266,0,1.6360283,1.4438477,1.6360283,2V28z M48.5284996,27h1.871315v-5.5c-0.002739-0.1621094-0.0615578-1-0.9356575-1
		c-0.909668,0-0.9356575,0.8974609-0.9356575,1V27z"/>
	<path style="fill:#292C47;" d="M50.75,27.5v-6c0,0,0-1.5,1.2858429-1.5c1.2858467,0,1.2858467,1.5,1.2858467,1.5v6H50.75z"/>
	<path style="fill:#D9B98B;" d="M53.671875,28h-3.2720604v-6.5c0-0.5561523,0.2941017-2,1.6360283-2
		c1.3419304,0,1.6360321,1.4438477,1.6360321,2V28z M51.1001854,27h1.871315v-5.5c-0.0027351-0.1621094-0.0615578-1-0.9356575-1
		c-0.9096642,0-0.9356575,0.8974609-0.9356575,1V27z"/>
	<path style="fill:#292C47;" d="M48.1783104,44v-6c0,0,0-1.5,1.2858467-1.5C50.75,36.5,50.75,38,50.75,38v6H48.1783104z"/>
	<path style="fill:#D9B98B;" d="M51.1001854,44.5H47.828125V38c0-0.5566406,0.2941017-2,1.6360321-2
		c1.3419266,0,1.6360283,1.4433594,1.6360283,2V44.5z M48.5284996,43.5h1.871315V38c-0.002739-0.1621094-0.0615578-1-0.9356575-1
		c-0.909668,0-0.9356575,0.8974609-0.9356575,1V43.5z"/>
	<path style="fill:#292C47;" d="M50.75,44v-6c0,0,0-1.5,1.2858429-1.5c1.2858467,0,1.2858467,1.5,1.2858467,1.5v6H50.75z"/>
	<path style="fill:#D9B98B;" d="M53.671875,44.5h-3.2720604V38c0-0.5566406,0.2941017-2,1.6360283-2
		c1.3419304,0,1.6360321,1.4433594,1.6360321,2V44.5z M51.1001854,43.5h1.871315V38c-0.0027351-0.1621094-0.0615578-1-0.9356575-1
		c-0.9096642,0-0.9356575,0.8974609-0.9356575,1V43.5z"/>
	<path style="fill:#292C47;" d="M48.1783104,57.75v-6c0,0,0-1.5,1.2858467-1.5C50.75,50.25,50.75,51.75,50.75,51.75v6H48.1783104z"
		/>
	<path style="fill:#D9B98B;" d="M51.1001854,58.25H47.828125v-6.5c0-0.5566406,0.2941017-2,1.6360321-2
		c1.3419266,0,1.6360283,1.4433594,1.6360283,2V58.25z M48.5284996,57.25h1.871315v-5.5
		c-0.002739-0.1621094-0.0615578-1-0.9356575-1c-0.909668,0-0.9356575,0.8974609-0.9356575,1V57.25z"/>
	<path style="fill:#292C47;" d="M50.75,57.75v-6c0,0,0-1.5,1.2858429-1.5c1.2858467,0,1.2858467,1.5,1.2858467,1.5v6H50.75z"/>
	<path style="fill:#D9B98B;" d="M53.671875,58.25h-3.2720604v-6.5c0-0.5566406,0.2941017-2,1.6360283-2
		c1.3419304,0,1.6360321,1.4433594,1.6360321,2V58.25z M51.1001854,57.25h1.871315v-5.5
		c-0.0027351-0.1621094-0.0615578-1-0.9356575-1c-0.9096642,0-0.9356575,0.8974609-0.9356575,1V57.25z"/>
	<path style="fill:#292C47;" d="M10.7564373,27.5v-6c0,0,0-1.5,1.2858438-1.5s1.2858438,1.5,1.2858438,1.5v6H10.7564373z"/>
	<path style="fill:#D9B98B;" d="M13.6783123,28H10.40625v-6.5c0-0.5561523,0.2937603-2,1.6360312-2s1.6360312,1.4438477,1.6360312,2
		V28z M11.1066246,27h1.8713131v-5.5c-0.0027361-0.1621094-0.0612144-1-0.9356565-1c-0.9093246,0-0.9356565,0.8974609-0.9356565,1
		V27z"/>
	<path style="fill:#292C47;" d="M13.328125,27.5v-6c0,0,0-1.5,1.2858438-1.5s1.2858438,1.5,1.2858438,1.5v6H13.328125z"/>
	<path style="fill:#D9B98B;" d="M16.25,28h-3.2720623v-6.5c0-0.5561523,0.2937603-2,1.6360312-2S16.25,20.9438477,16.25,21.5V28z
		 M13.6783123,27h1.8713131v-5.5c-0.0027361-0.1621094-0.0612144-1-0.9356565-1c-0.9093237,0-0.9356565,0.8974609-0.9356565,1V27z"
		/>
	<path style="fill:#292C47;" d="M10.7564373,44v-6c0,0,0-1.5,1.2858438-1.5S13.328125,38,13.328125,38v6H10.7564373z"/>
	<path style="fill:#D9B98B;" d="M13.6783123,44.5H10.40625V38c0-0.5566406,0.2937603-2,1.6360312-2s1.6360312,1.4433594,1.6360312,2
		V44.5z M11.1066246,43.5h1.8713131V38c-0.0027361-0.1621094-0.0612144-1-0.9356565-1c-0.9093246,0-0.9356565,0.8974609-0.9356565,1
		V43.5z"/>
	<path style="fill:#292C47;" d="M13.328125,44v-6c0,0,0-1.5,1.2858438-1.5s1.2858438,1.5,1.2858438,1.5v6H13.328125z"/>
	<path style="fill:#D9B98B;" d="M16.25,44.5h-3.2720623V38c0-0.5566406,0.2937603-2,1.6360312-2S16.25,37.4433594,16.25,38V44.5z
		 M13.6783123,43.5h1.8713131V38c-0.0027361-0.1621094-0.0612144-1-0.9356565-1c-0.9093237,0-0.9356565,0.8974609-0.9356565,1V43.5z
		"/>
	<path style="fill:#292C47;" d="M10.7564373,57.75v-6c0,0,0-1.5,1.2858438-1.5s1.2858438,1.5,1.2858438,1.5v6H10.7564373z"/>
	<path style="fill:#D9B98B;" d="M13.6783123,58.25H10.40625v-6.5c0-0.5566406,0.2937603-2,1.6360312-2
		s1.6360312,1.4433594,1.6360312,2V58.25z M11.1066246,57.25h1.8713131v-5.5c-0.0027361-0.1621094-0.0612144-1-0.9356565-1
		c-0.9093246,0-0.9356565,0.8974609-0.9356565,1V57.25z"/>
	<path style="fill:#292C47;" d="M13.328125,57.75v-6c0,0,0-1.5,1.2858438-1.5s1.2858438,1.5,1.2858438,1.5v6H13.328125z"/>
	<path style="fill:#D9B98B;" d="M16.25,58.25h-3.2720623v-6.5c0-0.5566406,0.2937603-2,1.6360312-2S16.25,51.1933594,16.25,51.75
		V58.25z M13.6783123,57.25h1.8713131v-5.5c-0.0027361-0.1621094-0.0612144-1-0.9356565-1
		c-0.9093237,0-0.9356565,0.8974609-0.9356565,1V57.25z"/>
	<rect x="46.772728" y="29.5" style="fill:#998361;" width="1.1363636" height="1.25"/>
	<rect x="49.0454559" y="29.5" style="fill:#998361;" width="1.1363636" height="1.25"/>
	<rect x="51.3181839" y="29.5" style="fill:#998361;" width="1.1363636" height="1.25"/>
	<rect x="53.5909119" y="29.5" style="fill:#998361;" width="1.1363636" height="1.25"/>
	<rect x="55.8636398" y="29.5" style="fill:#998361;" width="1.1363636" height="1.25"/>
	<rect x="46.772728" y="32" style="fill:#998361;" width="1.1363636" height="1.25"/>
	<rect x="49.0454559" y="32" style="fill:#998361;" width="1.1363636" height="1.25"/>
	<rect x="51.3181839" y="32" style="fill:#998361;" width="1.1363636" height="1.25"/>
	<rect x="53.5909119" y="32" style="fill:#998361;" width="1.1363636" height="1.25"/>
	<rect x="55.8636398" y="32" style="fill:#998361;" width="1.1363636" height="1.25"/>
	<rect x="45.75" y="45.75" style="fill:#665741;" width="1.25" height="1.25"/>
	<rect x="48.25" y="45.75" style="fill:#665741;" width="1.25" height="1.25"/>
	<rect x="50.75" y="45.75" style="fill:#665741;" width="1.25" height="1.25"/>
	<rect x="53.25" y="45.75" style="fill:#665741;" width="1.25" height="1.25"/>
	<rect x="55.75" y="45.75" style="fill:#665741;" width="1.25" height="1.25"/>
	<rect x="7" y="29.5" style="fill:#998361;" width="1.1363636" height="1.25"/>
	<rect x="9.272727" y="29.5" style="fill:#998361;" width="1.1363636" height="1.25"/>
	<rect x="11.545454" y="29.5" style="fill:#998361;" width="1.1363636" height="1.25"/>
	<rect x="13.818182" y="29.5" style="fill:#998361;" width="1.1363636" height="1.25"/>
	<rect x="16.0909081" y="29.5" style="fill:#998361;" width="1.1363636" height="1.25"/>
	<rect x="7" y="32" style="fill:#998361;" width="1.1363636" height="1.25"/>
	<rect x="9.272727" y="32" style="fill:#998361;" width="1.1363636" height="1.25"/>
	<rect x="11.545454" y="32" style="fill:#998361;" width="1.1363636" height="1.25"/>
	<rect x="13.818182" y="32" style="fill:#998361;" width="1.1363636" height="1.25"/>
	<rect x="16.0909081" y="32" style="fill:#998361;" width="1.1363636" height="1.25"/>
	<rect x="44.5" y="29.5" style="fill:#998361;" width="1.1363636" height="1.25"/>
	<rect x="44.5" y="32" style="fill:#998361;" width="1.1363636" height="1.25"/>
	<rect x="18.363636" y="29.5" style="fill:#998361;" width="1.1363636" height="1.25"/>
	<rect x="18.363636" y="32" style="fill:#998361;" width="1.1363636" height="1.25"/>
	<rect x="7" y="45.75" style="fill:#665741;" width="1.25" height="1.25"/>
	<rect x="9.5" y="45.75" style="fill:#665741;" width="1.25" height="1.25"/>
	<rect x="12" y="45.75" style="fill:#665741;" width="1.25" height="1.25"/>
	<rect x="14.5" y="45.75" style="fill:#665741;" width="1.25" height="1.25"/>
	<rect x="17" y="45.75" style="fill:#665741;" width="1.25" height="1.25"/>
	<rect x="19.5" y="45.75" style="fill:#665741;" width="1.1904762" height="1.25"/>
	<rect x="43.3095245" y="45.75" style="fill:#665741;" width="1.1904762" height="1.25"/>
	<rect x="40.9285736" y="45.75" style="fill:#665741;" width="1.1904762" height="1.25"/>
	<rect x="38.5476189" y="45.75" style="fill:#665741;" width="1.1904762" height="1.25"/>
	<rect x="36.1666679" y="45.75" style="fill:#665741;" width="1.1904762" height="1.25"/>
	<rect x="33.7857132" y="45.75" style="fill:#665741;" width="1.1904762" height="1.25"/>
	<rect x="31.4047623" y="45.75" style="fill:#665741;" width="1.1904762" height="1.25"/>
	<rect x="29.0238094" y="45.75" style="fill:#665741;" width="1.1904762" height="1.25"/>
	<rect x="26.6428566" y="45.75" style="fill:#665741;" width="1.1904762" height="1.25"/>
	<rect x="24.2619057" y="45.75" style="fill:#665741;" width="1.1904762" height="1.25"/>
	<rect x="21.8809528" y="45.75" style="fill:#665741;" width="1.1904762" height="1.25"/>
	<polygon style="fill:#F8F072;" points="32,8.25 30.75,10.75 29.5,12 30.75,13.25 29.5,14.5 30.75,15.75 33.25,15.75 34.5,14.5 
		33.25,13.25 34.5,12 33.25,10.75 	"/>
	<linearGradient id="SVGID_7_" gradientUnits="userSpaceOnUse" x1="32" y1="12" x2="32" y2="13.25">
		<stop  offset="0" style="stop-color:#F09400"/>
		<stop  offset="1" style="stop-color:#F09400;stop-opacity:0.3"/>
	</linearGradient>
	<polygon style="fill:url(#SVGID_7_);" points="29.5,12 34.5,12 33.25,13.25 30.75,13.25 	"/>
	<linearGradient id="SVGID_8_" gradientUnits="userSpaceOnUse" x1="32" y1="14.5" x2="32" y2="15.75">
		<stop  offset="0" style="stop-color:#F09400"/>
		<stop  offset="1" style="stop-color:#F09400;stop-opacity:0.3"/>
	</linearGradient>
	<polygon style="fill:url(#SVGID_8_);" points="29.5,14.5 34.5,14.5 33.25,15.75 30.75,15.75 	"/>
	<linearGradient id="SVGID_9_" gradientUnits="userSpaceOnUse" x1="32" y1="8.25" x2="32" y2="10.75">
		<stop  offset="0" style="stop-color:#F09400;stop-opacity:0"/>
		<stop  offset="1" style="stop-color:#F09400;stop-opacity:0.3"/>
	</linearGradient>
	<polygon style="fill:url(#SVGID_9_);" points="32,8.25 30.75,10.75 33.25,10.75 	"/>
	<linearGradient id="SVGID_10_" gradientUnits="userSpaceOnUse" x1="13.25" y1="7" x2="13.25" y2="17">
		<stop  offset="0" style="stop-color:#ECD4B1"/>
		<stop  offset="1" style="stop-color:#D9B98B"/>
	</linearGradient>
	<polygon style="fill:url(#SVGID_10_);" points="8.25,12 8.25,17 18.25,17 18.25,12 13.25,7 	"/>
	<linearGradient id="SVGID_11_" gradientUnits="userSpaceOnUse" x1="50.75" y1="7" x2="50.75" y2="17">
		<stop  offset="0" style="stop-color:#ECD4B1"/>
		<stop  offset="1" style="stop-color:#D9B98B"/>
	</linearGradient>
	<polygon style="fill:url(#SVGID_11_);" points="45.75,12 45.75,17 55.75,17 55.75,12 50.75,7 	"/>
	<linearGradient id="SVGID_12_" gradientUnits="userSpaceOnUse" x1="18.25" y1="13.25" x2="18.25" y2="17">
		<stop  offset="0" style="stop-color:#ECD4B1"/>
		<stop  offset="1" style="stop-color:#796A56"/>
	</linearGradient>
	<polygon style="fill:url(#SVGID_12_);" points="18.25,13.25 19.5,14.5 19.5,17 17,17 17,14.5 	"/>
	<linearGradient id="SVGID_13_" gradientUnits="userSpaceOnUse" x1="8.25" y1="13.25" x2="8.25" y2="17">
		<stop  offset="0" style="stop-color:#ECD4B1"/>
		<stop  offset="1" style="stop-color:#796A56"/>
	</linearGradient>
	<polygon style="fill:url(#SVGID_13_);" points="8.25,13.25 9.5,14.5 9.5,17 7,17 7,14.5 	"/>
	<linearGradient id="SVGID_14_" gradientUnits="userSpaceOnUse" x1="45.75" y1="13.25" x2="45.75" y2="17">
		<stop  offset="0" style="stop-color:#ECD4B1"/>
		<stop  offset="1" style="stop-color:#796A56"/>
	</linearGradient>
	<polygon style="fill:url(#SVGID_14_);" points="45.75,13.25 47,14.5 47,17 44.5,17 44.5,14.5 	"/>
	<linearGradient id="SVGID_15_" gradientUnits="userSpaceOnUse" x1="55.75" y1="13.25" x2="55.75" y2="17">
		<stop  offset="0" style="stop-color:#ECD4B1"/>
		<stop  offset="1" style="stop-color:#796A56"/>
	</linearGradient>
	<polygon style="fill:url(#SVGID_15_);" points="55.75,13.25 57,14.5 57,17 54.5,17 54.5,14.5 	"/>
	<rect x="44.5" y="33.25" style="fill:#CCAE83;" width="12.5" height="1.25"/>
	<rect x="7" y="33.25" style="fill:#CCAE83;" width="12.5" height="1.25"/>
	<circle style="fill:#292C47;" cx="32" cy="38" r="5.5357141"/>
	<path style="fill:#FFE9CA;" d="M32,44.4995232c-3.5838108,0-6.4995213-2.9154778-6.4995213-6.4995232
		c0-3.5838127,2.9157104-6.4995213,6.4995213-6.4995213c3.5840454,0,6.4995232,2.9157085,6.4995232,6.4995213
		C38.4995232,41.5840454,35.5840454,44.4995232,32,44.4995232z M32,32.4633713
		c-3.0529976,0-5.5366287,2.4836311-5.5366287,5.5366287c0,3.0527611,2.4836311,5.5366287,5.5366287,5.5366287
		c3.0527611,0,5.5366287-2.4838676,5.5366287-5.5366287C37.5366287,34.9470024,35.0527611,32.4633713,32,32.4633713z"/>
	<path style="fill:#7D6D57;" d="M32,43.5366287c3.0527611,0,5.5366287-2.4838676,5.5366287-5.5366287
		c0-3.0529976-2.4838676-5.5366287-5.5366287-5.5366287c-3.0529976,0-5.5366287,2.4836311-5.5366287,5.5366287
		C26.4633713,41.0527611,28.9470024,43.5366287,32,43.5366287 M32,43.2959061c-2.9201717,0-5.2959061-2.3757324-5.2959061-5.2959061
		S29.0798283,32.7040939,32,32.7040939S37.2959061,35.0798264,37.2959061,38S34.9201736,43.2959061,32,43.2959061L32,43.2959061z"/>
	<path style="fill:#FFE9CA;" d="M32,45.4732132c-4.1207008,0-7.4732151-3.3522415-7.4732151-7.4732132
		c0-4.1207008,3.3525143-7.4732151,7.4732151-7.4732151c4.1209717,0,7.4732132,3.3525143,7.4732132,7.4732151
		C39.4732132,42.1209717,36.1209717,45.4732132,32,45.4732132z M32,31.6339283
		c-3.5103664,0-6.3660717,2.8557034-6.3660717,6.3660717c0,3.5100975,2.8557053,6.3660698,6.3660717,6.3660698
		c3.5100975,0,6.3660698-2.8559723,6.3660698-6.3660698C38.3660698,34.4896317,35.5100975,31.6339283,32,31.6339283z"/>
	<path style="fill:#99856A;" d="M32,30.5267849c4.1209755,0,7.4732132,3.3525143,7.4732132,7.4732151
		c0,4.1209755-3.3522377,7.4732132-7.4732132,7.4732132c-4.1207027,0-7.4732151-3.3522377-7.4732151-7.4732132
		C24.5267849,33.8792992,27.8792973,30.5267849,32,30.5267849 M32,44.3660698c3.5100975,0,6.3660698-2.8559723,6.3660698-6.3660698
		c0-3.5103683-2.8559723-6.3660717-6.3660698-6.3660717c-3.5103683,0-6.3660717,2.8557034-6.3660717,6.3660717
		C25.6339283,41.5100975,28.4896317,44.3660698,32,44.3660698 M32,30.25c-4.2733669,0-7.75,3.476635-7.75,7.75
		s3.4766331,7.75,7.75,7.75s7.75-3.476635,7.75-7.75S36.273365,30.25,32,30.25L32,30.25z M32,44.0892868
		c-3.3576431,0-6.0892849-2.7316437-6.0892849-6.0892868S28.6423569,31.9107151,32,31.9107151S38.0892868,34.6423569,38.0892868,38
		S35.3576431,44.0892868,32,44.0892868L32,44.0892868z"/>
	<g>
		<polygon style="fill:#FFE2A5;" points="32,30.6651783 28.4044895,36.8929253 29.043644,38 32,32.8794632 32.838974,34.3325882 
			34.1175194,34.3325882 		"/>
		<path style="fill:#604C3F;" d="M32.0000076,31.1651726l1.6844788,2.9174156h-0.7011719l-0.7668076-1.3281174l-0.2165108-0.3749924
			l-0.2165108,0.3749924l-2.7398376,4.7455215l-0.3504848-0.6070633L32.0000076,31.1651726 M31.9999962,30.6651783
			l-3.5955105,6.2277508L29.0436459,38l2.9563503-5.1205292l0.8389778,1.4531174h1.2785416L31.9999962,30.6651783
			L31.9999962,30.6651783z"/>
	</g>
	<g>
		<polygon style="fill:#FFE2A5;" points="25.6478577,34.3325882 29.2434883,40.5602646 30.521822,40.5602798 27.5654869,35.4397316 
			29.2434158,35.439724 29.8826885,34.3324699 		"/>
		<path style="fill:#604C3F;" d="M29.449667,34.582489l-0.3505878,0.6072388l-1.5335884,0.0000076h-0.4330101l0.2164993,0.375
			l2.7398243,4.7455368l-0.7009735-0.0000076l-3.3069553-5.727684L29.449667,34.582489 M29.8826904,34.3324738l-4.2348289,0.0001221
			l3.5956287,6.2276688l1.2783298,0.0000076l-2.9563293-5.1205368l1.6779308-0.0000114L29.8826904,34.3324738L29.8826904,34.3324738
			z"/>
	</g>
	<g>
		<polygon style="fill:#FFE2A5;" points="25.6478577,41.6674118 32.8390007,41.6673431 33.4781799,40.5602798 
			27.5654869,40.5602684 28.4044418,39.107132 27.7651691,37.9998817 		"/>
		<path style="fill:#604C3F;" d="M27.7651711,38.4998932l0.3505898,0.6072426l-0.7667809,1.3281288l-0.2165012,0.375h0.4330101
			l5.4796696,0.0000076l-0.350502,0.6070747l-6.6138,0.0000648L27.7651711,38.4998932 M27.7651691,37.9998741l-2.1173115,3.6675415
			l7.1911392-0.0000725l0.639183-1.1070709l-5.9126911-0.0000076l0.8389492-1.4531288L27.7651691,37.9998741L27.7651691,37.9998741z
			"/>
	</g>
	<g>
		<polygon style="fill:#FFE2A5;" points="32,45.3348198 35.5955124,39.1070747 34.956356,38 32,43.1205368 31.1610279,41.6674118 
			29.8824806,41.6674118 		"/>
		<path style="fill:#604C3F;" d="M34.9563522,38.5000076l0.3504868,0.6070633l-3.3068466,5.7277527l-1.6844807-2.9174118h0.7011738
			l0.7668095,1.3281174l0.2165089,0.3749924l0.2165108-0.3749924L34.9563522,38.5000076 M34.9563522,38l-2.9563484,5.1205292
			l-0.8389797-1.4531174h-1.2785397l2.1175194,3.667408l3.5955086-6.2277489L34.9563522,38L34.9563522,38z"/>
	</g>
	<g>
		<polygon style="fill:#FFE2A5;" points="38.3521423,41.6674118 34.7565117,35.4397354 33.4781799,35.4397202 
			36.4345131,40.5602684 34.7565842,40.560276 34.1173096,41.6675301 		"/>
		<path style="fill:#604C3F;" d="M33.9111977,35.6897278l0.7009735,0.0000076l3.3069572,5.727684l-3.3687935,0.0000916
			l0.3505898-0.6072388l1.5335846-0.0000076h0.4330139l-0.2164993-0.375L33.9111977,35.6897278 M33.4781799,35.4397278
			l2.9563293,5.1205368l-1.6779289,0.0000114l-0.6392708,1.1072502l4.2348328-0.0001221l-3.5956306-6.2276688L33.4781799,35.4397278
			L33.4781799,35.4397278z"/>
	</g>
	<g>
		<polygon style="fill:#FFE2A5;" points="38.3521423,34.3325882 31.1609993,34.3326569 30.521822,35.4397202 36.4345131,35.4397316 
			35.5955582,36.892868 36.2348289,38.0001183 		"/>
		<path style="fill:#604C3F;" d="M37.9191437,34.5825882l-1.6843185,2.9175186l-0.3505859-0.6072426l0.7667847-1.3281288
			l0.2164993-0.375h-0.4330139l-5.4796677-0.0000076l0.3505001-0.6070747L37.9191437,34.5825882 M38.3521423,34.3325844
			l-7.1911411,0.0000725l-0.6391792,1.1070709l5.9126873,0.0000076l-0.8389473,1.4531288l0.6392708,1.1072617L38.3521423,34.3325844
			L38.3521423,34.3325844z"/>
	</g>
	<polygon style="fill:#F8F072;" points="13.25,0.75 12,3.25 10.75,4.5 12,5.75 10.75,7 12,8.25 14.5,8.25 15.75,7 14.5,5.75 
		15.75,4.5 14.5,3.25 	"/>
	<linearGradient id="SVGID_16_" gradientUnits="userSpaceOnUse" x1="13.25" y1="4.5" x2="13.25" y2="5.75">
		<stop  offset="0" style="stop-color:#F09400"/>
		<stop  offset="1" style="stop-color:#F09400;stop-opacity:0.3"/>
	</linearGradient>
	<polygon style="fill:url(#SVGID_16_);" points="10.75,4.5 15.75,4.5 14.5,5.75 12,5.75 	"/>
	<linearGradient id="SVGID_17_" gradientUnits="userSpaceOnUse" x1="13.25" y1="7" x2="13.25" y2="8.25">
		<stop  offset="0" style="stop-color:#F09400"/>
		<stop  offset="1" style="stop-color:#F09400;stop-opacity:0.3"/>
	</linearGradient>
	<polygon style="fill:url(#SVGID_17_);" points="10.75,7 15.75,7 14.5,8.25 12,8.25 	"/>
	<linearGradient id="SVGID_18_" gradientUnits="userSpaceOnUse" x1="13.25" y1="0.75" x2="13.25" y2="3.25">
		<stop  offset="0" style="stop-color:#F09400;stop-opacity:0"/>
		<stop  offset="1" style="stop-color:#F09400;stop-opacity:0.3"/>
	</linearGradient>
	<polygon style="fill:url(#SVGID_18_);" points="13.25,0.75 12,3.25 14.5,3.25 	"/>
	<polygon style="fill:#F8F072;" points="50.75,0.75 49.5,3.25 48.25,4.5 49.5,5.75 48.25,7 49.5,8.25 52,8.25 53.25,7 52,5.75 
		53.25,4.5 52,3.25 	"/>
	<linearGradient id="SVGID_19_" gradientUnits="userSpaceOnUse" x1="50.75" y1="4.5" x2="50.75" y2="5.75">
		<stop  offset="0" style="stop-color:#F09400"/>
		<stop  offset="1" style="stop-color:#F09400;stop-opacity:0.3"/>
	</linearGradient>
	<polygon style="fill:url(#SVGID_19_);" points="48.25,4.5 53.25,4.5 52,5.75 49.5,5.75 	"/>
	<linearGradient id="SVGID_20_" gradientUnits="userSpaceOnUse" x1="50.75" y1="7" x2="50.75" y2="8.25">
		<stop  offset="0" style="stop-color:#F09400"/>
		<stop  offset="1" style="stop-color:#F09400;stop-opacity:0.3"/>
	</linearGradient>
	<polygon style="fill:url(#SVGID_20_);" points="48.25,7 53.25,7 52,8.25 49.5,8.25 	"/>
	<linearGradient id="SVGID_21_" gradientUnits="userSpaceOnUse" x1="50.75" y1="0.75" x2="50.75" y2="3.25">
		<stop  offset="0" style="stop-color:#F09400;stop-opacity:0"/>
		<stop  offset="1" style="stop-color:#F09400;stop-opacity:0.3"/>
	</linearGradient>
	<polygon style="fill:url(#SVGID_21_);" points="50.75,0.75 49.5,3.25 52,3.25 	"/>
	<path style="fill:#8C775A;" d="M38.25,48.25c-5,0-7.5,0-12.5,0s-5,5-5,5v7.5h22.5v-7.5C43.25,53.25,43.25,48.25,38.25,48.25z"/>
	<linearGradient id="SVGID_22_" gradientUnits="userSpaceOnUse" x1="32" y1="49.5" x2="32" y2="60.75">
		<stop  offset="0" style="stop-color:#4A3F2F"/>
		<stop  offset="1" style="stop-color:#6A5B44"/>
	</linearGradient>
	<path style="fill:url(#SVGID_22_);" d="M37.5555573,49.5c-4.4444466,0-6.6666679,0-11.1111126,0S22,54,22,54v6.75h20V54
		C42,54,42,49.5,37.5555573,49.5z"/>
	<path style="fill:#292C47;" d="M32,50.75c0,0-3.75,0-3.75,3.75s0,6.25,0,6.25h7.5c0,0,0-2.5,0-6.25S32,50.75,32,50.75z"/>
	<path style="fill:#403329;" d="M36.25,61.25h-8.5V54.5c0-3.3613281,2.7797852-4.25,4.25-4.25c1.4697266,0,4.25,0.8886719,4.25,4.25
		V61.25z M28.75,60.25h6.5V54.5c0-3.2128906-3.1171875-3.25-3.25-3.25c-0.1313477,0.0009766-3.25,0.0556641-3.25,3.25V60.25z"/>
	<rect x="5.75" y="60.75" style="fill:#A68D6A;" width="52.5" height="1.25"/>
	<rect x="31.5625" y="50.75" style="fill:#403329;" width="0.875" height="10"/>
</g>
<g>
</g>
<g>
</g>
<g>
</g>
<g>
</g>
<g>
</g>
<g>
</g>
</svg>
