<?xml version="1.0" encoding="utf-8"?>
<!-- Generator: Adobe Illustrator 15.0.2, SVG Export Plug-In . SVG Version: 6.00 Build 0)  -->
<!DOCTYPE svg PUBLIC "-//W3C//DTD SVG 1.1//EN" "http://www.w3.org/Graphics/SVG/1.1/DTD/svg11.dtd">
<svg version="1.1" id="レイヤー_1" xmlns="http://www.w3.org/2000/svg" xmlns:xlink="http://www.w3.org/1999/xlink" x="0px"
	 y="0px" width="64px" height="64px" viewBox="0 0 64 64" enable-background="new 0 0 64 64" xml:space="preserve">
<g>
	<linearGradient id="SVGID_1_" gradientUnits="userSpaceOnUse" x1="23.5532" y1="39.8584" x2="40.5321" y2="60.2923">
		<stop  offset="0" style="stop-color:#F5FFBF"/>
		<stop  offset="1" style="stop-color:#7F6400"/>
	</linearGradient>
	<path fill="url(#SVGID_1_)" stroke="#000000" stroke-width="1.4272" stroke-miterlimit="10" d="M16.813,45.459v8.716
		c0,2.146,6.8,3.886,15.187,3.886c8.387,0,15.186-1.739,15.186-3.886v-8.716H16.813z"/>
	<linearGradient id="SVGID_2_" gradientUnits="userSpaceOnUse" x1="31.9995" y1="8.3022" x2="31.9995" y2="64.188">
		<stop  offset="0" style="stop-color:#FFFBDF"/>
		<stop  offset="0.8606" style="stop-color:#5F3D00"/>
		<stop  offset="1" style="stop-color:#9F3E00"/>
	</linearGradient>
	<path fill="url(#SVGID_2_)" stroke="#000000" stroke-width="1.165" stroke-miterlimit="10" d="M50.519,11.655
		c0-3.156-8.291-5.716-18.519-5.716s-18.519,2.56-18.519,5.716c0,0.112,0.034,0.222,0.054,0.333
		c-0.024,0.159-0.054,0.316-0.054,0.482v36.276c0,0.193,0.03,0.383,0.064,0.568c-0.029,0.13-0.064,0.261-0.064,0.394
		c0,3.156,8.291,5.715,18.519,5.715s18.519-2.559,18.519-5.715c0-0.133-0.035-0.264-0.065-0.394
		c0.035-0.186,0.065-0.375,0.065-0.568V12.471c0-0.166-0.03-0.323-0.055-0.482C50.484,11.877,50.519,11.768,50.519,11.655z"/>
	<path fill="#F4E7D0" d="M14.243,11.753v18.249c0,0,3.408,1.249,5.226-3.408c1.818-4.658,4.316,3.827,8.407,3.561
		s3.067-5.265,7.725-5.038c4.659,0.228,2.727,7.478,7.158,5.045c4.431-2.433,2.088-5.726,3.714-5.158
		c1.625,0.567,0.603,5.68,3.216,5.68v-18.93C49.688,11.753,31.397,22.93,14.243,11.753z"/>
	<linearGradient id="SVGID_3_" gradientUnits="userSpaceOnUse" x1="29.9443" y1="9.3467" x2="35.1463" y2="20.3951">
		<stop  offset="0" style="stop-color:#F0FF3F"/>
		<stop  offset="1" style="stop-color:#79BF00"/>
	</linearGradient>
	<path fill="url(#SVGID_3_)" d="M16.813,12.953c0,0,5.934-2.86,15.187-2.86c9.253,0,14.473,2.86,14.473,2.86
		S33.646,20.894,16.813,12.953z"/>
	<path fill="none" stroke="#000000" stroke-width="1.165" stroke-miterlimit="10" d="M15.296,11.753c0,0,4.843,5.081,16.704,5.081
		c11.86,0,15.77-5.081,15.77-5.081"/>
	<ellipse fill="#FFFFFF" cx="25.017" cy="12.521" rx="2.118" ry="0.767"/>
	<ellipse fill="#F4E7D0" cx="42.646" cy="35.284" rx="2.075" ry="3.183"/>
	<ellipse fill="#F4E7D0" cx="43.782" cy="42.443" rx="1.135" ry="1.987"/>
</g>
</svg>
