<?xml version="1.0" encoding="utf-8"?>
<!-- Generator: Adobe Illustrator 15.0.2, SVG Export Plug-In . SVG Version: 6.00 Build 0)  -->
<!DOCTYPE svg PUBLIC "-//W3C//DTD SVG 1.1//EN" "http://www.w3.org/Graphics/SVG/1.1/DTD/svg11.dtd">
<svg version="1.1" id="レイヤー_1" xmlns="http://www.w3.org/2000/svg" xmlns:xlink="http://www.w3.org/1999/xlink" x="0px"
	 y="0px" width="64px" height="64px" viewBox="0 0 64 64" enable-background="new 0 0 64 64" xml:space="preserve">
<g>
	<g>
		
			<linearGradient id="SVGID_1_" gradientUnits="userSpaceOnUse" x1="61.3906" y1="6.623" x2="72.9788" y2="14.8446" gradientTransform="matrix(-0.4555 0.8903 -0.8903 -0.4555 56.7217 -1.5103)">
			<stop  offset="0" style="stop-color:#5E5E5E"/>
			<stop  offset="0.9091" style="stop-color:#171717"/>
			<stop  offset="1" style="stop-color:#6E6E6E"/>
		</linearGradient>
		<path fill="url(#SVGID_1_)" stroke="#141516" stroke-width="1.0014" stroke-miterlimit="1" d="M23.12,48.123
			c0,0-7.403,5.49-11.435,9.709"/>
		
			<linearGradient id="SVGID_2_" gradientUnits="userSpaceOnUse" x1="14.6265" y1="-2.8677" x2="72.2847" y2="19.5781" gradientTransform="matrix(-0.4555 0.8903 -0.8903 -0.4555 56.7217 -1.5103)">
			<stop  offset="0" style="stop-color:#7E7E7E"/>
			<stop  offset="0.0645" style="stop-color:#5E5E5E"/>
			<stop  offset="0.1397" style="stop-color:#414141"/>
			<stop  offset="0.2237" style="stop-color:#292929"/>
			<stop  offset="0.3186" style="stop-color:#171717"/>
			<stop  offset="0.4307" style="stop-color:#0A0A0A"/>
			<stop  offset="0.5763" style="stop-color:#020202"/>
			<stop  offset="0.8788" style="stop-color:#000000"/>
			<stop  offset="1" style="stop-color:#6E6E6E"/>
		</linearGradient>
		<path fill="url(#SVGID_2_)" stroke="#141516" stroke-width="1.0234" stroke-miterlimit="1" d="M20.758,61.349
			c10.93-3.779,20.54-22.19,20.544-22.199l0,0h0.001l0,0l0,0c0.004-0.011,9.312-18.577,5.983-29.652c0,0-3.123-5.253-8.161-5.301
			l-4.089,2.127l-0.436,10.93l3.341,1.897c0,0-1.689,9.165-5.034,15.702c-3.345,6.536-9.789,13.27-9.789,13.27l-3.494-1.6
			l-8.607,6.75l0.666,4.559C14.671,61.891,20.758,61.349,20.758,61.349z"/>
		<path fill="none" stroke="#141516" stroke-width="1.0234" stroke-miterlimit="1" d="M39.126,4.197c0,0,0.276,10.453-1.184,14.955"
			/>
		<path fill="none" stroke="#141516" stroke-width="1.0234" stroke-miterlimit="1" d="M23.12,48.123c0,0-3.583,4.26-11.435,9.709"/>
		
			<linearGradient id="SVGID_3_" gradientUnits="userSpaceOnUse" x1="16.4912" y1="3.0972" x2="46.7801" y2="-1.5753" gradientTransform="matrix(-0.4555 0.8903 -0.8903 -0.4555 56.7217 -1.5103)">
			<stop  offset="0" style="stop-color:#FFFFFF"/>
			<stop  offset="1" style="stop-color:#FFFFFF;stop-opacity:0"/>
		</linearGradient>
		<path fill="url(#SVGID_3_)" d="M45.917,14.668l0.754-3.236c0,0,2.3,17.672-14.39,38.566c0,0-3.649,3.288-1.336-0.685
			C33.258,45.343,45.146,33.582,45.917,14.668z"/>
	</g>
	<linearGradient id="SVGID_4_" gradientUnits="userSpaceOnUse" x1="14.333" y1="56.5967" x2="27.8413" y2="54.5128">
		<stop  offset="0" style="stop-color:#FFFFFF"/>
		<stop  offset="1" style="stop-color:#FFFFFF;stop-opacity:0"/>
	</linearGradient>
	<path opacity="0.37" fill="url(#SVGID_4_)" d="M14.583,59.335c0,0,2.734,1.399,5.667,1.166s10.063-7.006,12.031-10.503
		S18.25,54.085,14.583,59.335z"/>
</g>
</svg>
