<?xml version="1.0" encoding="utf-8"?>
<!-- Generator: Adobe Illustrator 15.0.2, SVG Export Plug-In . SVG Version: 6.00 Build 0)  -->
<!DOCTYPE svg PUBLIC "-//W3C//DTD SVG 1.1//EN" "http://www.w3.org/Graphics/SVG/1.1/DTD/svg11.dtd">
<svg version="1.1" id="レイヤー_1" xmlns="http://www.w3.org/2000/svg" xmlns:xlink="http://www.w3.org/1999/xlink" x="0px"
	 y="0px" width="64px" height="64px" viewBox="0 0 64 64" style="enable-background:new 0 0 64 64;" xml:space="preserve">
<g>
	<g>
		<path style="fill:#FFD215;" d="M11.8447266,7.559082C16.9140625,1.3144531,23.1279297,2.925293,23.1279297,2.925293
			l3.2871094,2.8164063l-1.8740234,12.9453125l-3.9287109,0.1572266C19.1992188,23.2753906,18.4951172,28.668457,18.4951172,32
			c0,3.3320313,0.7041016,8.7226563,2.1171875,13.15625l3.9287109,0.15625l1.8740234,12.9453125l-3.2871094,2.8183594
			c0,0-6.2138672,1.609375-11.2832031-4.6367188C9.0449219,46.5703125,7.8603516,40.0585938,7.8603516,32
			S9.0449219,17.4311523,11.8447266,7.559082z"/>
		<path style="fill:#EFB21B;" d="M19.7402344,18.8847656c-0.265625-5.7514648,2.4301758-15.7646484,2.5454102-16.1879883
			l1.6845703,0.4570313c-0.0273438,0.1010742-2.7392578,10.1728516-2.4858398,15.6499023L19.7402344,18.8847656z"/>
		<path style="fill:#EFB21B;" d="M22.2856445,61.4902344c-0.1152344-0.4238281-2.8110352-10.4355469-2.5454102-16.1875
			l1.7441406,0.0800781c-0.253418,5.4804688,2.4584961,15.5488281,2.4858398,15.6503906L22.2856445,61.4902344z"/>
		<path style="fill:#231815;" d="M21.2612305,62.1347656c-2.2104492,0-6.4604492-0.6679688-10.0942383-5.1445313
			c-0.074707-0.0917969-0.1298828-0.1972656-0.1621094-0.3125C8.0385742,46.2207031,6.9873047,39.7636719,6.9873047,32
			c0-7.762207,1.0512695-14.2202148,4.0175781-24.6791992c0.0322266-0.1137695,0.0874023-0.2197266,0.1621094-0.3120117
			c3.6328125-4.4746094,7.8823242-5.1430664,10.0917969-5.1430664c1.246582,0,2.0541992,0.2060547,2.0883789,0.2148438
			c0.128418,0.0332031,0.2475586,0.0952148,0.3486328,0.1816406l3.2871094,2.8164063
			c0.2270508,0.1948242,0.3388672,0.4921875,0.2958984,0.7880859l-1.8740234,12.9453125
			c-0.0600586,0.4165039-0.4086914,0.7304688-0.8291016,0.7470703l-3.3115234,0.1328125
			C19.9628906,24.0380859,19.3681641,29.059082,19.3681641,32c0,2.9394531,0.5947266,7.9609375,1.8959961,12.3085938
			l3.3115234,0.1308594c0.4204102,0.0175781,0.769043,0.3320313,0.8291016,0.7480469l1.8740234,12.9453125
			c0.0429688,0.2949219-0.0688477,0.5917969-0.2954102,0.7871094l-3.2871094,2.8183594
			c-0.1010742,0.0859375-0.2207031,0.1484375-0.3496094,0.1816406
			C23.3129883,61.9296875,22.5058594,62.1347656,21.2612305,62.1347656z M12.6347656,56.0273438
			c2.9902344,3.5996094,6.3344727,4.3613281,8.6264648,4.3613281c0.6914063,0,1.2099609-0.0742188,1.4682617-0.1210938
			l2.7529297-2.3613281l-1.7011719-11.75l-3.2036133-0.1289063c-0.3666992-0.0136719-0.6855469-0.2558594-0.796875-0.6074219
			C18.2978516,40.7695313,17.6220703,35.203125,17.6220703,32c0-3.2041016,0.6757813-8.7705078,2.1586914-13.4208984
			c0.1113281-0.3496094,0.4296875-0.5922852,0.796875-0.6069336L23.78125,17.84375l1.7011719-11.7519531l-2.7529297-2.3583984
			c-0.2568359-0.046875-0.7768555-0.121582-1.4707031-0.121582c-2.2910156,0-5.6342773,0.7607422-8.6240234,4.3603516
			C9.7553711,18.1557617,8.7333984,24.4599609,8.7333984,32C8.7333984,39.5410156,9.7553711,45.8457031,12.6347656,56.0273438z"/>
		
			<linearGradient id="SVGID_1_" gradientUnits="userSpaceOnUse" x1="72.0244141" y1="32.3417969" x2="96.1682358" y2="32.3417969" gradientTransform="matrix(-1 0 0 1 95.328125 0)">
			<stop  offset="0" style="stop-color:#FFFFFF;stop-opacity:0"/>
			<stop  offset="1" style="stop-color:#FFFFFF"/>
		</linearGradient>
		<path style="fill:url(#SVGID_1_);" d="M13.3242188,9.1098633l1.0458984,2.1337891c0,0-7.9008789,20.7568359,0.3378906,39.8188477
			l-0.8261719,4.5117188C13.8818359,55.5742188,4.9130859,33.5917969,13.3242188,9.1098633z"/>
	</g>
	<g>
		<path style="fill:#FFFFFF;" d="M24.4609375,22.0307617c7.5302734-4.6025391,14.5048828,2.9296875,19.3867188,2.9296875
			s9.6386719-1.0834961,12.1357422-3.0693359v19.6264648c0,0-5.1621094,4.7832031-12.2753906,1.4355469
			c-7.1132813-3.3457031-14.78125-2.6503906-19.2470703-0.9765625V22.0307617z"/>
		<path style="fill:#231815;" d="M48.7910156,45.171875c-1.8486328,0-3.7060547-0.4335938-5.5214844-1.2871094
			c-3.1630859-1.4882813-6.78125-2.2753906-10.4628906-2.2753906c-2.8603516,0-5.6962891,0.4726563-7.984375,1.3300781
			c-0.3149414,0.1210938-0.6699219,0.0761719-0.9477539-0.1171875c-0.2773438-0.1933594-0.4428711-0.5078125-0.4428711-0.8457031
			V22.0307617c0-0.3583984,0.1870117-0.690918,0.4926758-0.8779297c1.78125-1.0888672,3.703125-1.640625,5.7124023-1.640625
			c3.2451172,0,6.2431641,1.394043,8.8876953,2.6240234c1.9853516,0.9228516,3.8613281,1.7949219,5.3232422,1.7949219
			c4.8837891,0,9.2880859-1.090332,11.4951172-2.8452148c0.3095703-0.2470703,0.7304688-0.2944336,1.0878906-0.121582
			c0.3554688,0.1713867,0.5820313,0.5317383,0.5820313,0.9267578v19.6264648c0,0.2871094-0.1201172,0.5605469-0.3300781,0.7558594
			C56.5546875,42.390625,53.4990234,45.171875,48.7910156,45.171875z M32.8066406,39.5507813
			c3.9824219,0,7.9033203,0.8554688,11.3398438,2.4726563c1.5390625,0.7226563,3.1015625,1.0898438,4.6435547,1.0898438
			c3.1035156,0,5.3535156-1.4648438,6.1640625-2.0820313V23.7617188c-2.7275391,1.4130859-6.7080078,2.2280273-11.1064453,2.2280273
			c-1.9169922,0-3.9931641-0.965332-6.1904297-1.9873047c-2.5712891-1.1958008-5.2304688-2.4321289-8.0205078-2.4321289
			c-1.4648438,0-2.8271484,0.3457031-4.1464844,1.0556641v17.9248047
			C27.7114258,39.9023438,30.2558594,39.5507813,32.8066406,39.5507813z"/>
	</g>
</g>
</svg>
