<?xml version="1.0" encoding="utf-8"?>
<!-- Generator: Adobe Illustrator 18.0.0, SVG Export Plug-In . SVG Version: 6.00 Build 0)  -->
<!DOCTYPE svg PUBLIC "-//W3C//DTD SVG 1.1//EN" "http://www.w3.org/Graphics/SVG/1.1/DTD/svg11.dtd">
<svg version="1.1" id="レイヤー_1" xmlns="http://www.w3.org/2000/svg" xmlns:xlink="http://www.w3.org/1999/xlink" x="0px"
	 y="0px" width="64px" height="64px" viewBox="0 0 64 64" style="enable-background:new 0 0 64 64;" xml:space="preserve">
<g>
	<g>
		<linearGradient id="SVGID_1_" gradientUnits="userSpaceOnUse" x1="32.0000038" y1="5.34444" x2="32.0000038" y2="20.9576607">
			<stop  offset="0" style="stop-color:#B2B2B3"/>
			<stop  offset="1" style="stop-color:#3E3A39"/>
		</linearGradient>
		<path style="fill:url(#SVGID_1_);" d="M42.8252983,20.9576607h-21.650589c-0.2761497,0-0.5-0.2238598-0.5-0.5V5.84444
			c0-0.2761402,0.2238503-0.5,0.5-0.5h21.650589c0.2761002,0,0.5,0.2238598,0.5,0.5v14.6132202
			C43.3252983,20.7338009,43.1013985,20.9576607,42.8252983,20.9576607z"/>
		<linearGradient id="SVGID_2_" gradientUnits="userSpaceOnUse" x1="32.0000038" y1="5.34444" x2="32.0000038" y2="20.9576607">
			<stop  offset="0" style="stop-color:#FFFFFF"/>
			<stop  offset="1" style="stop-color:#3E3A39"/>
		</linearGradient>
		<path style="fill:url(#SVGID_2_);" d="M42.8252983,5.84444v14.6132202h-21.650589V5.84444H42.8252983 M42.8252983,5.34444
			h-21.650589c-0.2761497,0-0.5,0.2238598-0.5,0.5v14.6132202c0,0.2761402,0.2238503,0.5,0.5,0.5h21.650589
			c0.2761002,0,0.5-0.2238598,0.5-0.5V5.84444C43.3252983,5.5682998,43.1013985,5.34444,42.8252983,5.34444L42.8252983,5.34444z"/>
		<path style="fill:#3E3A39;" d="M42.8252983,5.59444c0.1378021,0,0.25,0.1121502,0.25,0.25v14.6132202
			c0,0.1378498-0.1121979,0.25-0.25,0.25h-21.650589c-0.1378498,0-0.25-0.1121502-0.25-0.25V5.84444
			c0-0.1378498,0.1121502-0.25,0.25-0.25H42.8252983 M42.8252983,5.34444h-21.650589c-0.2761497,0-0.5,0.2238598-0.5,0.5v14.6132202
			c0,0.2761402,0.2238503,0.5,0.5,0.5h21.650589c0.2761002,0,0.5-0.2238598,0.5-0.5V5.84444
			C43.3252983,5.5682998,43.1013985,5.34444,42.8252983,5.34444L42.8252983,5.34444z"/>
	</g>
	<g>
		<linearGradient id="SVGID_3_" gradientUnits="userSpaceOnUse" x1="32.0000038" y1="20.9576607" x2="32.0000038" y2="25.9885998">
			<stop  offset="0" style="stop-color:#B2B2B3"/>
			<stop  offset="1" style="stop-color:#717071"/>
		</linearGradient>
		<path style="fill:url(#SVGID_3_);" d="M42.8252983,25.9885998h-21.650589c-0.2761497,0-0.5-0.2238998-0.5-0.5v-4.0309391
			c0-0.2761402,0.2238503-0.5,0.5-0.5h21.650589c0.2761002,0,0.5,0.2238598,0.5,0.5v4.0309391
			C43.3252983,25.7646999,43.1013985,25.9885998,42.8252983,25.9885998z"/>
		<linearGradient id="SVGID_4_" gradientUnits="userSpaceOnUse" x1="32.0000038" y1="20.9576607" x2="32.0000038" y2="25.9885998">
			<stop  offset="0" style="stop-color:#FFFFFF"/>
			<stop  offset="1" style="stop-color:#717071"/>
		</linearGradient>
		<path style="fill:url(#SVGID_4_);" d="M42.8252983,21.4576607v4.0309391h-21.650589v-4.0309391H42.8252983 M42.8252983,20.9576607
			h-21.650589c-0.2761497,0-0.5,0.2238598-0.5,0.5v4.0309391c0,0.2761002,0.2238503,0.5,0.5,0.5h21.650589
			c0.2761002,0,0.5-0.2238998,0.5-0.5v-4.0309391C43.3252983,21.1815205,43.1013985,20.9576607,42.8252983,20.9576607
			L42.8252983,20.9576607z"/>
		<path style="fill:#3E3A39;" d="M42.8252983,21.2076607c0.1378021,0,0.25,0.1121502,0.25,0.25v4.0309391
			c0,0.1378002-0.1121979,0.25-0.25,0.25h-21.650589c-0.1378498,0-0.25-0.1121998-0.25-0.25v-4.0309391
			c0-0.1378498,0.1121502-0.25,0.25-0.25H42.8252983 M42.8252983,20.9576607h-21.650589c-0.2761497,0-0.5,0.2238598-0.5,0.5
			v4.0309391c0,0.2761002,0.2238503,0.5,0.5,0.5h21.650589c0.2761002,0,0.5-0.2238998,0.5-0.5v-4.0309391
			C43.3252983,21.1815205,43.1013985,20.9576607,42.8252983,20.9576607L42.8252983,20.9576607z"/>
	</g>
	<g>
		<rect x="22.2766991" y="6.8210907" style="fill:#4CB6E6;" width="19.4466" height="12.6599197"/>
		<path style="fill:#3E3A39;" d="M41.7236328,19.605957H22.2768555c-0.0688477,0-0.125-0.0561523-0.125-0.125V6.8212891
			c0-0.0688477,0.0561523-0.125,0.125-0.125h19.4467773c0.0693359,0,0.125,0.0561523,0.125,0.125v12.659668
			C41.8486328,19.5498047,41.7929688,19.605957,41.7236328,19.605957z M22.4018555,19.355957h19.1967773V6.9462891H22.4018555
			V19.355957z"/>
	</g>
</g>
<g>
	<g>
		<linearGradient id="SVGID_5_" gradientUnits="userSpaceOnUse" x1="50.1791" y1="38.5224991" x2="50.1791" y2="54.1357002">
			<stop  offset="0" style="stop-color:#B2B2B3"/>
			<stop  offset="1" style="stop-color:#3E3A39"/>
		</linearGradient>
		<path style="fill:url(#SVGID_5_);" d="M61.0043983,54.1357002H39.3538017c-0.2761002,0-0.5-0.2238007-0.5-0.5V39.0224991
			c0-0.2761002,0.2238998-0.5,0.5-0.5h21.6505966c0.2762032,0,0.5,0.2238998,0.5,0.5v14.6132011
			C61.5043983,53.9118996,61.2806015,54.1357002,61.0043983,54.1357002z"/>
		<linearGradient id="SVGID_6_" gradientUnits="userSpaceOnUse" x1="50.1791" y1="38.5224991" x2="50.1791" y2="54.1357002">
			<stop  offset="0" style="stop-color:#FFFFFF"/>
			<stop  offset="1" style="stop-color:#3E3A39"/>
		</linearGradient>
		<path style="fill:url(#SVGID_6_);" d="M61.0043983,39.0224991v14.6132011H39.3538017V39.0224991H61.0043983
			 M61.0043983,38.5224991H39.3538017c-0.2761002,0-0.5,0.2238998-0.5,0.5v14.6132011c0,0.2761993,0.2238998,0.5,0.5,0.5h21.6505966
			c0.2762032,0,0.5-0.2238007,0.5-0.5V39.0224991C61.5043983,38.7463989,61.2806015,38.5224991,61.0043983,38.5224991
			L61.0043983,38.5224991z"/>
		<path style="fill:#3E3A39;" d="M61.0043983,38.7724991c0.1379013,0,0.25,0.1122017,0.25,0.25v14.6132011
			c0,0.1379013-0.1120987,0.25-0.25,0.25H39.3538017c-0.1378021,0-0.25-0.1120987-0.25-0.25V39.0224991
			c0-0.1377983,0.1121979-0.25,0.25-0.25H61.0043983 M61.0043983,38.5224991H39.3538017c-0.2761002,0-0.5,0.2238998-0.5,0.5
			v14.6132011c0,0.2761993,0.2238998,0.5,0.5,0.5h21.6505966c0.2762032,0,0.5-0.2238007,0.5-0.5V39.0224991
			C61.5043983,38.7463989,61.2806015,38.5224991,61.0043983,38.5224991L61.0043983,38.5224991z"/>
	</g>
	<g>
		<linearGradient id="SVGID_7_" gradientUnits="userSpaceOnUse" x1="50.1791" y1="54.1357002" x2="50.1791" y2="59.1666985">
			<stop  offset="0" style="stop-color:#B2B2B3"/>
			<stop  offset="1" style="stop-color:#717071"/>
		</linearGradient>
		<path style="fill:url(#SVGID_7_);" d="M61.0043983,59.1666985H39.3538017c-0.2761002,0-0.5-0.2238998-0.5-0.5v-4.0309982
			c0-0.2761002,0.2238998-0.5,0.5-0.5h21.6505966c0.2762032,0,0.5,0.2238998,0.5,0.5v4.0309982
			C61.5043983,58.9427986,61.2806015,59.1666985,61.0043983,59.1666985z"/>
		<linearGradient id="SVGID_8_" gradientUnits="userSpaceOnUse" x1="50.1791" y1="54.1357002" x2="50.1791" y2="59.1666985">
			<stop  offset="0" style="stop-color:#FFFFFF"/>
			<stop  offset="1" style="stop-color:#717071"/>
		</linearGradient>
		<path style="fill:url(#SVGID_8_);" d="M61.0043983,54.6357002v4.0309982H39.3538017v-4.0309982H61.0043983 M61.0043983,54.1357002
			H39.3538017c-0.2761002,0-0.5,0.2238998-0.5,0.5v4.0309982c0,0.2761002,0.2238998,0.5,0.5,0.5h21.6505966
			c0.2762032,0,0.5-0.2238998,0.5-0.5v-4.0309982C61.5043983,54.3596001,61.2806015,54.1357002,61.0043983,54.1357002
			L61.0043983,54.1357002z"/>
		<path style="fill:#3E3A39;" d="M61.0043983,54.3857002c0.1379013,0,0.25,0.1121979,0.25,0.25v4.0309982
			c0,0.1378021-0.1120987,0.25-0.25,0.25H39.3538017c-0.1378021,0-0.25-0.1121979-0.25-0.25v-4.0309982
			c0-0.1378021,0.1121979-0.25,0.25-0.25H61.0043983 M61.0043983,54.1357002H39.3538017c-0.2761002,0-0.5,0.2238998-0.5,0.5
			v4.0309982c0,0.2761002,0.2238998,0.5,0.5,0.5h21.6505966c0.2762032,0,0.5-0.2238998,0.5-0.5v-4.0309982
			C61.5043983,54.3596001,61.2806015,54.1357002,61.0043983,54.1357002L61.0043983,54.1357002z"/>
	</g>
	<g>
		<rect x="40.4558983" y="39.9991989" style="fill:#4CB6E6;" width="19.4465008" height="12.6598997"/>
		<path style="fill:#3E3A39;" d="M59.9023438,52.7841797H40.4560547c-0.0693359,0-0.125-0.0556641-0.125-0.125V39.9990234
			c0-0.0693359,0.0556641-0.125,0.125-0.125h19.4462891c0.0693359,0,0.125,0.0556641,0.125,0.125v12.6601563
			C60.0273438,52.7285156,59.9716797,52.7841797,59.9023438,52.7841797z M40.5810547,52.5341797h19.1962891V40.1240234H40.5810547
			V52.5341797z"/>
	</g>
</g>
<g>
	<g>
		<linearGradient id="SVGID_9_" gradientUnits="userSpaceOnUse" x1="13.8208847" y1="38.5224991" x2="13.8208847" y2="54.1357002">
			<stop  offset="0" style="stop-color:#B2B2B3"/>
			<stop  offset="1" style="stop-color:#3E3A39"/>
		</linearGradient>
		<path style="fill:url(#SVGID_9_);" d="M24.6462002,54.1357002H2.9955699c-0.27614,0-0.5-0.2238007-0.5-0.5V39.0224991
			c0-0.2761002,0.22386-0.5,0.5-0.5h21.650631c0.2761002,0,0.5,0.2238998,0.5,0.5v14.6132011
			C25.1462002,53.9118996,24.9223003,54.1357002,24.6462002,54.1357002z"/>
		<linearGradient id="SVGID_10_" gradientUnits="userSpaceOnUse" x1="13.8208847" y1="38.5224991" x2="13.8208847" y2="54.1357002">
			<stop  offset="0" style="stop-color:#FFFFFF"/>
			<stop  offset="1" style="stop-color:#3E3A39"/>
		</linearGradient>
		<path style="fill:url(#SVGID_10_);" d="M24.6462002,39.0224991v14.6132011H2.9955699V39.0224991H24.6462002
			 M24.6462002,38.5224991H2.9955699c-0.27615,0-0.5,0.2238998-0.5,0.5v14.6132011c0,0.2761993,0.22385,0.5,0.5,0.5h21.650631
			c0.2761002,0,0.5-0.2238007,0.5-0.5V39.0224991C25.1462002,38.7463989,24.9223003,38.5224991,24.6462002,38.5224991
			L24.6462002,38.5224991z"/>
		<path style="fill:#3E3A39;" d="M24.6462002,38.7724991c0.1378002,0,0.25,0.1122017,0.25,0.25v14.6132011
			c0,0.1379013-0.1121998,0.25-0.25,0.25H2.9955699c-0.13785,0-0.25-0.1120987-0.25-0.25V39.0224991
			c0-0.1377983,0.11215-0.25,0.25-0.25H24.6462002 M24.6462002,38.5224991H2.9955699c-0.27615,0-0.5,0.2238998-0.5,0.5v14.6132011
			c0,0.2761993,0.22385,0.5,0.5,0.5h21.650631c0.2761002,0,0.5-0.2238007,0.5-0.5V39.0224991
			C25.1462002,38.7463989,24.9223003,38.5224991,24.6462002,38.5224991L24.6462002,38.5224991z"/>
	</g>
	<g>
		<linearGradient id="SVGID_11_" gradientUnits="userSpaceOnUse" x1="13.8208847" y1="54.1357002" x2="13.8208847" y2="59.1666985">
			<stop  offset="0" style="stop-color:#B2B2B3"/>
			<stop  offset="1" style="stop-color:#717071"/>
		</linearGradient>
		<path style="fill:url(#SVGID_11_);" d="M24.6462002,59.1666985H2.9955699c-0.27614,0-0.5-0.2238998-0.5-0.5v-4.0309982
			c0-0.2761002,0.22386-0.5,0.5-0.5h21.650631c0.2761002,0,0.5,0.2238998,0.5,0.5v4.0309982
			C25.1462002,58.9427986,24.9223003,59.1666985,24.6462002,59.1666985z"/>
		<linearGradient id="SVGID_12_" gradientUnits="userSpaceOnUse" x1="13.8208847" y1="54.1357002" x2="13.8208847" y2="59.1666985">
			<stop  offset="0" style="stop-color:#FFFFFF"/>
			<stop  offset="1" style="stop-color:#717071"/>
		</linearGradient>
		<path style="fill:url(#SVGID_12_);" d="M24.6462002,54.6357002v4.0309982H2.9955699v-4.0309982H24.6462002 M24.6462002,54.1357002
			H2.9955699c-0.27615,0-0.5,0.2238998-0.5,0.5v4.0309982c0,0.2761002,0.22385,0.5,0.5,0.5h21.650631
			c0.2761002,0,0.5-0.2238998,0.5-0.5v-4.0309982C25.1462002,54.3596001,24.9223003,54.1357002,24.6462002,54.1357002
			L24.6462002,54.1357002z"/>
		<path style="fill:#3E3A39;" d="M24.6462002,54.3857002c0.1378002,0,0.25,0.1121979,0.25,0.25v4.0309982
			c0,0.1378021-0.1121998,0.25-0.25,0.25H2.9955699c-0.13785,0-0.25-0.1121979-0.25-0.25v-4.0309982
			c0-0.1378021,0.11215-0.25,0.25-0.25H24.6462002 M24.6462002,54.1357002H2.9955699c-0.27615,0-0.5,0.2238998-0.5,0.5v4.0309982
			c0,0.2761002,0.22385,0.5,0.5,0.5h21.650631c0.2761002,0,0.5-0.2238998,0.5-0.5v-4.0309982
			C25.1462002,54.3596001,24.9223003,54.1357002,24.6462002,54.1357002L24.6462002,54.1357002z"/>
	</g>
	<g>
		<rect x="4.0976105" y="39.9991989" style="fill:#4CB6E6;" width="19.4464893" height="12.6598997"/>
		<path style="fill:#3E3A39;" d="M23.5439453,52.7841797H4.0976563c-0.0688477,0-0.125-0.0556641-0.125-0.125V39.9990234
			c0-0.0693359,0.0561523-0.125,0.125-0.125h19.4462891c0.0688477,0,0.125,0.0556641,0.125,0.125v12.6601563
			C23.6689453,52.7285156,23.612793,52.7841797,23.5439453,52.7841797z M4.2226563,52.5341797h19.1962891V40.1240234H4.2226563
			V52.5341797z"/>
	</g>
</g>
<polygon style="fill:#E53828;" points="28.6478996,38.8330994 25.2957993,42.299099 28.6478996,45.7649994 28.6478996,44.0321007 
	35.3521004,44.0321007 35.3521004,45.7649994 38.7042007,42.299099 35.3521004,38.8330994 35.3521004,40.5661011 
	28.6478996,40.5661011 "/>
<polygon style="fill:#E53828;" points="19.1667309,31.9013004 19.1667309,36.8027992 23.9073009,36.8027992 22.7222004,35.5774002 
	27.4627991,30.6758995 28.6478996,31.9013004 28.6478996,26.9997005 23.9073009,26.9997005 25.0925007,28.2250996 
	20.3518696,33.1267014 "/>
<polygon style="fill:#E53828;" points="40.092701,36.8027992 44.8333015,36.8027992 44.8333015,31.9013004 43.6481018,33.1267014 
	38.9075012,28.2250996 40.092701,26.9997005 35.3521004,26.9997005 35.3521004,31.9013004 36.5372009,30.6758995 
	41.2778015,35.5774002 "/>
<g>
</g>
<g>
</g>
<g>
</g>
<g>
</g>
<g>
</g>
<g>
</g>
</svg>
