<?xml version="1.0" encoding="UTF-8" standalone="no"?>
<!-- Generator: Adobe Illustrator 15.0.0, SVG Export Plug-In . SVG Version: 6.00 Build 0)  -->

<svg
   xmlns:dc="http://purl.org/dc/elements/1.1/"
   xmlns:cc="http://creativecommons.org/ns#"
   xmlns:rdf="http://www.w3.org/1999/02/22-rdf-syntax-ns#"
   xmlns:svg="http://www.w3.org/2000/svg"
   xmlns="http://www.w3.org/2000/svg"
   xmlns:sodipodi="http://sodipodi.sourceforge.net/DTD/sodipodi-0.dtd"
   xmlns:inkscape="http://www.inkscape.org/namespaces/inkscape"
   version="1.1"
   id="レイヤー_1"
   x="0px"
   y="0px"
   width="64px"
   height="64px"
   viewBox="0 0 64 64"
   style="enable-background:new 0 0 64 64;"
   xml:space="preserve"
   inkscape:version="0.48.4 r9939"
   sodipodi:docname="thumbsdown.svg"><metadata
     id="metadata33"><rdf:RDF><cc:Work
         rdf:about=""><dc:format>image/svg+xml</dc:format><dc:type
           rdf:resource="http://purl.org/dc/dcmitype/StillImage" /></cc:Work></rdf:RDF></metadata><defs
     id="defs31" /><sodipodi:namedview
     pagecolor="#ffffff"
     bordercolor="#666666"
     borderopacity="1"
     objecttolerance="10"
     gridtolerance="10"
     guidetolerance="10"
     inkscape:pageopacity="0"
     inkscape:pageshadow="2"
     inkscape:window-width="640"
     inkscape:window-height="480"
     id="namedview29" /><g
     id="g3"><path
       style="fill:#DE9170;"
       d="M16.5834961,15.75c0,0-4,7.75-0.9169922,9.9624023   C17.3334961,22.5,14.9165039,18.4160156,16.5834961,15.75"
       id="path5" /><path
       style="fill:#FFB997;"
       d="M3.5834961,25.0673828c1.6665039,1.3388672,10.0830078,2.8730469,12.25,1.7070313   c0,0,2.0419922,7.5751953,6.8125,10.5634766c0,0-0.2949219,5.4580078,0.862793,10.640625   c0,0-2.2285156,5.6074219-3.0195313,9.3476563c0.7910156,3.4667969,4.7480469,5.0292969,9.6772461,2.2978516   c4.6665039-2.5859375,3.3842773-9.4541016,2.9760742-12.7978516c0.4404297-2.4160156,0.2080078-6.59375,0.2080078-6.59375   s1.7773438-0.4990234,2.8017578-1.0976563c1.9306641,0.7753906,10.8466797,1.6796875,13.1806641,0.9355469   s4.6816406-4.7421875,3.6328125-8.2011719C55,29.2431641,54.9169922,25.21875,52.4101563,22.8876953   c2.0068359-1.2275391,1.1425781-8.6142578-5.4931641-10.3886719c0.8330078-1.671875-0.0175781-6.6728516-6.8007813-6.0058594   C38,4.9931641,26.7416992,5.1689453,23.3291016,6.9560547C20.4165039,4.4931641,6.2504883,2.0664063,3.5834961,4.0283203   V25.0673828z"
       id="path7" /><path
       style="fill:#DE9170;"
       d="M15.6665039,25.7124023c1.0004883-1.5458984,0.1669922-5.0458984,0.1669922-9.2124023   C15.8334961,16.5,12.5834961,23.5,15.6665039,25.7124023z"
       id="path9" /><path
       style="fill:#DE9170;"
       d="M32.3134766,17.0546875l1.4091797,0.359375l4.1972656-10.9326172l-6.2529297-0.8149414   l-4.2524414,9.581543c-1.9750977-0.4082031-4.0341797-0.4506836-5.262207,0.4951172   c4.875-0.15625,8.0444336,4.6044922,10.1245117,8.8876953c1.2817383,3.7749023,1.8793945,7.4052734,0.6401367,13.0361328   L30,40.6601563c0,0,2.0004883,1.8320313-0.6665039,6c0,0,4.4165039,5.0820313,2.6665039,9.75   c0,0,2.8330078-4.4941406,0.9169922-10.4101563l-0.4726563,0.0869141c0.0498047-1.2001953,0.2045898-4.1025391,0.5898438-6.7197266   C34.2919922,37.7324219,41.5390625,27.3955078,32.3134766,17.0546875z"
       id="path11" /><path
       style="fill:#DE9170;"
       d="M36.7285156,37.1943359C37.4345703,37.8330078,39.0273438,37.9169922,39.75,37.25   c1.0839844-1,2.8398438-7.090332,0.3984375-7.840332S36.7285156,37.1943359,36.7285156,37.1943359z"
       id="path13" /><path
       style="fill:#DE9170;"
       d="M39.1796875,27.7431641c0,0,1.8203125,1.0195313,2.5703125,0.5097656   s1.1337891-7.3515625-0.7666016-7.4306641S34.6923828,20.0761719,39.1796875,27.7431641z"
       id="path15" /><path
       style="fill:#DE9170;"
       d="M37.2265625,14.2734375c0.9033203,0.6884766,3.7929688,3.2714844,3.0332031,5.1621094   s-1.65625,1.3808594-3.0332031,0.6884766S32.9882813,16.7958984,33.75,15.6601563S36.7763672,13.9306641,37.2265625,14.2734375z"
       id="path17" /><path
       style="fill:#DE9170;"
       d="M39.4238281,9.3579102c3.015625,0.1137695,6.7431641,1.0922852,6.7431641,1.0922852   c-1-5.4599609-8.3330078-2.8666992-8.3330078-2.8666992l-0.6582031,0.8266602   C36.7060547,7.6245117,36.1513672,7.125,35.6123047,7.3642578c-3.1152344,1.3808594-1.8457031,5.4082031,0,5.9042969   C37.4589844,13.7636719,38.390625,14,38.3662109,12.2832031c-0.0068359-0.4663086-0.1191406-1.0864258-0.3007813-1.7294922   C38.3349609,10.1230469,38.7587891,9.6811523,39.4238281,9.3579102z"
       id="path19" /><path
       style="fill:#DE9170;"
       d="M21.9023438,7.0029297c0,0-9.6533203-5.4106445-17.9023438-2.4267578v7.0058594   c2-3.0625,4.7978516-4.5361328,7.8081055-5.2451172c2.8417969,0.8491211,5.7675781,1.9921875,7.3583984,3.40625   L21.9023438,7.0029297z"
       id="path21" /><g
       id="g23"><path
         style="fill:#420707;"
         d="M13.3115234,28.0170898c-0.0048828,0-0.0102539-0.0004883-0.0151367-0.0004883    s-0.0092773,0.0004883-0.0146484,0.0004883C13.28125,28.0170898,13.3120117,28.0170898,13.3115234,28.0170898z"
         id="path25" /><path
         style="fill:#420707;"
         d="M53.5566406,22.8950195c0.5566406-0.8305664,0.7675781-2.1083984,0.5546875-3.5742188    c-0.3925781-2.7148438-2.2236328-5.9814453-6.1669922-7.371582c0.1728516-1.0371094-0.0048828-2.3857422-0.7373047-3.5688477    c-0.8554688-1.3828125-2.7753906-3.0625-6.8945313-2.7368164c-1.6748047-0.8916016-5.4667969-0.9921875-7.0898438-0.9921875    c-3.1318359,0-7.4375,0.3579102-9.7988281,1.3461914C20.5322266,4.1015625,12.4379883,2.4824219,7.5112305,2.4824219    c-2.1704102,0-3.4926758,0.2871094-4.2963867,0.8779297L3,3.6088867v21.855957l0.1875,0.2490234    c1.5405273,1.2382813,6.8134766,2.2993164,10.1088867,2.3027344c0.8081055-0.0004883,1.4643555-0.0605469,2.0092773-0.1821289    c0.6757813,2.0527344,2.6933594,7.2856445,6.5014648,9.9370117c-0.043457,1.4335938-0.0854492,5.8154297,0.8417969,10.1386719    c-0.4384766,1.1230469-2.2558594,5.8730469-2.96875,9.2441406l-0.0385742,0.1787109l0.0400391,0.1777344    c0.6098633,2.6738281,2.8046875,4.3349609,5.7285156,4.3349609c1.6308594,0,3.3662109-0.5039063,5.1582031-1.4960938    c4.828125-2.6757813,3.9599609-9.3046875,3.4941406-12.8662109l-0.0820313-0.6376953    c0.3261719-1.9267578,0.2724609-4.7451172,0.2265625-6.0087891c0.5478516-0.1777344,1.3535156-0.4648438,2.0195313-0.8007813    c1.9238281,0.5849609,6.7558594,1.140625,10.1455078,1.140625c1.4941406,0,2.5449219-0.1035156,3.2128906-0.3164063    c2.703125-0.8623047,5.1494141-5.1025391,4.2841797-8.8222656C55.7880859,29.2470703,55.6318359,25.3876953,53.5566406,22.8950195    z M46.703125,13.2998047c3.7285156,0.9970703,5.4238281,3.8867188,5.7675781,6.2587891    c0.1621094,1.1220703-0.0087891,1.9838867-0.2861328,2.3994141c-2.3554688-0.8276367-11.1425781-3.7246094-14.6044922-2.1777344    c-1.1328125-0.3896484-3.1289063-2.2333984-3.5869141-3.5888672c-0.0859375-0.2543945-0.1015625-0.4658203-0.0449219-0.53125    c0.2685547-0.2587891,1.2783203-0.5756836,2.7080078-0.9052734c0.2441406-0.0419922,0.4375-0.0883789,0.5595703-0.125    c2.4267578-0.5263672,5.8203125-1.0722656,8.9833984-1.4648438L46.703125,13.2998047z M43,7.465332V7.4384766    c1,0.2807617,2.2060547,0.8925781,2.7773438,1.8144531c0.4970703,0.8046875,0.6152344,1.6660156,0.5429688,2.2832031    c-2.3945313,0.2900391-6.7597656,0.8798828-9.9335938,1.6416016c-0.4091797,0.0683594-0.9755859,0.0917969-1.3017578-0.1801758    c-0.3388672-0.2827148-0.4619141-0.9648438-0.3125-1.9199219C35.3955078,7.0996094,43,7.4638672,43,7.465332z     M32.9248047,39.4912109l-0.4389648,0.1230469l0.0371094,0.6640625c0.0019531,0.0410156,0.222168,4.1064453-0.1958008,6.3994141    l-0.0229492,0.1240234l0.1142578,0.8964844c0.4443359,3.3935547,1.1870117,9.0722656-2.6538086,11.2001953    c-1.5214844,0.84375-3.0268555,1.2890625-4.3544922,1.2890625c-2.0751953,0-3.5834961-1.0703125-4.0698242-2.8740234    c0.7998047-3.6269531,2.9169922-8.9746094,2.9389648-9.0292969l0.0942383-0.2373047l-0.0556641-0.2490234    c-1.1181641-5.0048828-0.847168-10.3623047-0.8442383-10.4150391L23.5,36.8945313l-0.4140625-0.2587891    c-4.4335938-2.7773438-6.4326172-10.0048828-6.4521484-10.0776367l-0.046875-0.1728516l-0.3779297-2.7001953l-1.5849609,0.2216797    l0.3222656,2.1235352C14.6030273,26.1083984,14.0727539,26,13.2509766,26c-0.0004883,0-0.2070313,0-0.2070313,0    C9.9677734,26,7,25.3344727,5,24.5507813V4.4516602C6,4.2758789,5.2607422,4.140625,7.0136719,4.140625    c4.6328125,0,11.7797852,1.4379883,14.6303711,2.8852539c-1.4101563,1.1040039-2.4326172,2.4941406-2.6186523,2.7246094    l1.3071289,1.0048828c0.5644531-0.7001953,2.1191406-2.3520508,3.4838867-3.1220703    c1.6435547-0.793457,5.3803711-1.3237305,9.3896484-1.3237305c1.7509766,0,3.1777344,0.1035156,4.2480469,0.2583008    c-2.0146484,0.6572266-3.8759766,1.9052734-4.2451172,4.2626953c-0.2182617,1.3979492,0.0078125,2.4335938,0.6210938,3.1264648    c-0.5039063,0.2089844-0.8911133,0.4248047-1.0844727,0.6474609c-0.2807617,0.3232422-0.5493164,0.8706055-0.3745117,1.7119141    l-0.5654297,0.465332C41.1474609,28.1342773,34.1943359,37.8916016,32.9248047,39.4912109z M49.0810547,39.2802734    c-0.2792969,0.0888672-1.0019531,0.2382813-2.7089844,0.2382813c-3.6259766,0-8.6572266-0.6494141-9.9111328-1.1533203    l-0.3759766-0.1513672l-0.3505859,0.2050781c-0.0927734,0.0537109-0.1972656,0.1064453-0.3027344,0.1591797    c0.1845703-0.3183594,0.375-0.6777344,0.5664063-1.0576172c0.0507813,0.0683594,0.0986328,0.1376953,0.1601563,0.2011719    c1.1708984,1.2128906,4.3740234,1.3603516,5.8642578,1.3603516c0.28125,0,0.5019531-0.0058594,0.6357422-0.0097656    l-0.0517578-1.5996094c-1.7529297,0.0625-4.6386719-0.1796875-5.2978516-0.8623047    c-0.0644531-0.0673828-0.0625-0.0947266-0.0615234-0.1191406c0.1816406-2.7021484,1.4003906-6.4233398,2.1142578-6.6240234    c0.8037109-0.0751953,7.1738281,1.2739258,12.8642578,2.6210938l0.0185547-0.0795898    C52.9511719,35.3945313,50.8740234,38.7089844,49.0810547,39.2802734z M38.1416016,28.8374023    c0-0.0161133,0.0019531-0.0307617,0.0019531-0.046875c0.0078125,0.0063477,0.0166016,0.0107422,0.0244141,0.0170898    C38.1591797,28.8164063,38.1503906,28.8286133,38.1416016,28.8374023z M52.5839844,30.9291992    c-0.6943359-0.1645508-1.4082031-0.331543-2.1279297-0.4985352l0.0019531-0.0087891    c-0.0849609-0.0200195-8.5380859-1.9707031-10.7802734-2.5732422c-1.5449219-0.4150391-2.1240234-4.1958008-2.0078125-6.1411133    c0.0683594-0.1362305,0.2060547-0.3066406,0.5322266-0.4589844c2.5966797-1.2128906,10.5507813,1.1806641,13.6962891,2.3061523    C53.8271484,25.4067383,54.0869141,28.5917969,52.5839844,30.9291992z"
         id="path27" /></g></g></svg>