<?xml version="1.0" encoding="utf-8"?>
<!-- Generator: Adobe Illustrator 16.0.0, SVG Export Plug-In . SVG Version: 6.00 Build 0)  -->
<!DOCTYPE svg PUBLIC "-//W3C//DTD SVG 1.1//EN" "http://www.w3.org/Graphics/SVG/1.1/DTD/svg11.dtd">
<svg version="1.1" id="Layer_1" xmlns="http://www.w3.org/2000/svg" xmlns:xlink="http://www.w3.org/1999/xlink" x="0px" y="0px"
	 width="64px" height="64px" viewBox="0 0 64 64" enable-background="new 0 0 64 64" xml:space="preserve">
<path fill="#3E3B3A" stroke="#3E3B3A" stroke-width="3" stroke-miterlimit="10" d="M31.951,7.226
	c-12.897,0-23.35,10.455-23.35,23.352v23.512c0,2.377,1.927,4.305,4.304,4.305h38.089c2.377,0,4.305-1.928,4.305-4.305V30.577
	C55.299,17.68,44.848,7.226,31.951,7.226z"/>
<linearGradient id="SVGID_1_" gradientUnits="userSpaceOnUse" x1="8.6011" y1="32.8096" x2="55.2988" y2="32.8096">
	<stop  offset="0" style="stop-color:#E5E2DF"/>
	<stop  offset="0" style="stop-color:#DEDAD6"/>
	<stop  offset="0.058" style="stop-color:#CFCAC8"/>
	<stop  offset="0.1688" style="stop-color:#ABA6A8"/>
	<stop  offset="0.264" style="stop-color:#8C888E"/>
	<stop  offset="0.5225" style="stop-color:#F3F4F4"/>
	<stop  offset="0.5836" style="stop-color:#E1E0E1"/>
	<stop  offset="0.7008" style="stop-color:#B9B6B8"/>
	<stop  offset="0.8611" style="stop-color:#858085"/>
	<stop  offset="0.8764" style="stop-color:#817C81"/>
	<stop  offset="1" style="stop-color:#D2D3D4"/>
	<stop  offset="1" style="stop-color:#A8AAAD"/>
</linearGradient>
<path fill="url(#SVGID_1_)" d="M31.951,7.226c-12.897,0-23.35,10.455-23.35,23.352v23.512c0,2.377,1.927,4.305,4.304,4.305h38.089
	c2.377,0,4.305-1.928,4.305-4.305V30.577C55.299,17.68,44.848,7.226,31.951,7.226z"/>
<path fill="#FFFFFF" d="M31.951,7.226c-12.897,0-23.35,10.455-23.35,23.352v0.601c0-12.897,10.453-23.352,23.35-23.352
	s23.348,10.455,23.348,23.352v-0.601C55.299,17.68,44.848,7.226,31.951,7.226z"/>
<g>
	<path fill="#5A5858" d="M32.011,9.703c-11.934,0-21.643,9.708-21.643,21.644c0,11.933,9.709,21.643,21.643,21.643
		c11.935,0,21.645-9.71,21.645-21.643C53.656,19.412,43.946,9.703,32.011,9.703z"/>
	<g>
		<linearGradient id="SVGID_2_" gradientUnits="userSpaceOnUse" x1="10.9404" y1="31.3462" x2="53.084" y2="31.3462">
			<stop  offset="0" style="stop-color:#E5E2DF"/>
			<stop  offset="0" style="stop-color:#DEDAD6"/>
			<stop  offset="0.058" style="stop-color:#CFCAC8"/>
			<stop  offset="0.1688" style="stop-color:#ABA6A8"/>
			<stop  offset="0.264" style="stop-color:#8C888E"/>
			<stop  offset="0.5225" style="stop-color:#F3F4F4"/>
			<stop  offset="0.5836" style="stop-color:#E1E0E1"/>
			<stop  offset="0.7008" style="stop-color:#B9B6B8"/>
			<stop  offset="0.8611" style="stop-color:#858085"/>
			<stop  offset="0.8764" style="stop-color:#817C81"/>
			<stop  offset="1" style="stop-color:#D2D3D4"/>
			<stop  offset="1" style="stop-color:#A8AAAD"/>
		</linearGradient>
		<path fill="url(#SVGID_2_)" d="M32.012,52.418c-11.619,0-21.071-9.452-21.071-21.071s9.453-21.072,21.071-21.072
			c11.619,0,21.072,9.453,21.072,21.072S43.631,52.418,32.012,52.418z M32.012,10.774c-11.343,0-20.571,9.229-20.571,20.572
			c0,11.343,9.228,20.571,20.571,20.571c11.344,0,20.572-9.229,20.572-20.571C52.584,20.003,43.355,10.774,32.012,10.774z"/>
	</g>
	<circle fill-rule="evenodd" clip-rule="evenodd" fill="#3E3B3A" cx="32.013" cy="31.347" r="19.759"/>
	<circle fill-rule="evenodd" clip-rule="evenodd" fill="#F2FAFB" cx="32.013" cy="31.347" r="18.453"/>
	<g>
		<polygon fill-rule="evenodd" clip-rule="evenodd" fill="#BFCCCB" points="32.804,18.455 30.159,29.589 33.983,29.867 		"/>
		<circle fill-rule="evenodd" clip-rule="evenodd" fill="#C1CDCD" cx="32.013" cy="31.347" r="4.158"/>
		<polygon fill-rule="evenodd" clip-rule="evenodd" fill="#D82E27" points="31.983,18.571 30.149,29.867 33.983,29.867 		"/>
		<circle fill-rule="evenodd" clip-rule="evenodd" fill="#5E5F61" cx="32.013" cy="31.347" r="2.541"/>
	</g>
	<g>
		<rect x="31.436" y="14.743" fill-rule="evenodd" clip-rule="evenodd" fill="#2C9AD6" width="1.126" height="3.333"/>
		
			<rect x="42.003" y="19.108" transform="matrix(0.7071 0.7071 -0.7071 0.7071 27.1572 -24.0135)" fill-rule="evenodd" clip-rule="evenodd" fill="#5E5F61" width="1.126" height="3.333"/>
		<rect x="45.284" y="30.771" fill-rule="evenodd" clip-rule="evenodd" fill="#2C9AD6" width="3.333" height="1.126"/>
		
			<rect x="42.022" y="40.234" transform="matrix(-0.7071 0.7071 -0.7071 -0.7071 102.326 41.416)" fill-rule="evenodd" clip-rule="evenodd" fill="#5E5F61" width="1.127" height="3.333"/>
		<rect x="31.463" y="44.619" fill-rule="evenodd" clip-rule="evenodd" fill="#2C9AD6" width="1.127" height="3.333"/>
		
			<rect x="20.896" y="40.254" transform="matrix(-0.7071 -0.7071 0.7071 -0.7071 6.9922 86.7371)" fill-rule="evenodd" clip-rule="evenodd" fill="#5E5F61" width="1.127" height="3.333"/>
		<rect x="15.408" y="30.798" fill-rule="evenodd" clip-rule="evenodd" fill="#2C9AD6" width="3.333" height="1.127"/>
		
			<rect x="20.876" y="19.128" transform="matrix(0.7071 -0.7071 0.7071 0.7071 -8.4246 21.251)" fill-rule="evenodd" clip-rule="evenodd" fill="#5E5F61" width="1.127" height="3.333"/>
	</g>
</g>
</svg>
