<?xml version="1.0" encoding="utf-8"?>
<!-- Generator: Adobe Illustrator 15.0.2, SVG Export Plug-In . SVG Version: 6.00 Build 0)  -->
<!DOCTYPE svg PUBLIC "-//W3C//DTD SVG 1.1//EN" "http://www.w3.org/Graphics/SVG/1.1/DTD/svg11.dtd">
<svg version="1.1" id="レイヤー_1" xmlns="http://www.w3.org/2000/svg" xmlns:xlink="http://www.w3.org/1999/xlink" x="0px"
	 y="0px" width="64px" height="64px" viewBox="0 0 64 64" enable-background="new 0 0 64 64" xml:space="preserve">
<g>
	<linearGradient id="SVGID_1_" gradientUnits="userSpaceOnUse" x1="-5.8677" y1="30.1636" x2="52.3824" y2="58.2887">
		<stop  offset="0" style="stop-color:#B5BAB8"/>
		<stop  offset="0.8606" style="stop-color:#050606"/>
		<stop  offset="1" style="stop-color:#3D3D38"/>
	</linearGradient>
	
		<path fill-rule="evenodd" clip-rule="evenodd" fill="url(#SVGID_1_)" stroke="#000000" stroke-width="1.3859" stroke-miterlimit="10" d="
		M29.447,40.54c0,0-18.5-5.125-23.5,2.25s4.125,19.625,21.25,17.875c17.125-1.75,33.625-9.182,32.125-14.528
		s-4.875-9.097-18.5-3.972C27.197,47.29,29.447,40.54,29.447,40.54z"/>
	<linearGradient id="SVGID_2_" gradientUnits="userSpaceOnUse" x1="-8.728" y1="22.6475" x2="38.1458" y2="29.5223">
		<stop  offset="0" style="stop-color:#B5BAB8"/>
		<stop  offset="1" style="stop-color:#000000"/>
	</linearGradient>
	
		<path fill-rule="evenodd" clip-rule="evenodd" fill="url(#SVGID_2_)" stroke="#000000" stroke-width="1.3859" stroke-miterlimit="10" d="
		M49.571,7.666h-32.25c0,0-2.293,38.49-2.293,38.75c0,2.898,7.994,5.249,17.855,5.249c9.86,0,17.855-2.351,17.855-5.249
		C50.739,46.117,49.571,7.666,49.571,7.666z"/>
	<linearGradient id="SVGID_3_" gradientUnits="userSpaceOnUse" x1="5.5527" y1="-0.3867" x2="30.177" y2="6.3631">
		<stop  offset="0" style="stop-color:#B5BAB8"/>
		<stop  offset="1" style="stop-color:#000000"/>
	</linearGradient>
	
		<ellipse fill-rule="evenodd" clip-rule="evenodd" fill="url(#SVGID_3_)" stroke="#000000" stroke-width="1.3859" stroke-miterlimit="10" cx="33.447" cy="7.259" rx="16.125" ry="4.094"/>
	<linearGradient id="SVGID_4_" gradientUnits="userSpaceOnUse" x1="16.1812" y1="38.2119" x2="50.6035" y2="39.7932">
		<stop  offset="0" style="stop-color:#FF3F3F"/>
		<stop  offset="1" style="stop-color:#7F0000"/>
	</linearGradient>
	<path fill-rule="evenodd" clip-rule="evenodd" fill="url(#SVGID_4_)" d="M16.447,32.263c0,0,13.832,8.652,33.125,0l0.616,9.526
		c0,0-13.454,10.204-34.637,0.421L16.447,32.263z"/>
</g>
</svg>
