<?xml version="1.0" encoding="utf-8"?>
<!-- Generator: Adobe Illustrator 15.0.2, SVG Export Plug-In . SVG Version: 6.00 Build 0)  -->
<!DOCTYPE svg PUBLIC "-//W3C//DTD SVG 1.1//EN" "http://www.w3.org/Graphics/SVG/1.1/DTD/svg11.dtd">
<svg version="1.1" id="レイヤー_1" xmlns="http://www.w3.org/2000/svg" xmlns:xlink="http://www.w3.org/1999/xlink" x="0px"
	 y="0px" width="64px" height="64px" viewBox="0 0 64 64" enable-background="new 0 0 64 64" xml:space="preserve">
<g>
	<g>
		<path fill="#E8E8E8" d="M60.798,35.863c0,4.568-3.658,8.307-8.131,8.307H11.334c-4.472,0-8.132-3.738-8.132-8.307v-4.065
			c0-4.569,3.66-8.308,8.132-8.308h41.333c4.473,0,8.131,3.738,8.131,8.308V35.863z"/>
		<path fill="none" stroke="#000000" stroke-width="1.0274" stroke-miterlimit="10" d="M60.798,35.863
			c0,4.568-3.658,8.307-8.131,8.307H11.334c-4.472,0-8.132-3.738-8.132-8.307v-4.065c0-4.569,3.66-8.308,8.132-8.308h41.333
			c4.473,0,8.131,3.738,8.131,8.308V35.863z"/>
	</g>
	<g>
		<g>
			<path fill="#717071" stroke="#000000" stroke-width="1.1815" stroke-miterlimit="10" d="M22.36,30.735
				c0-7.576-3.501-10.905-7.819-10.905c-4.317,0-7.818,3.721-7.818,10.905c0,4.66,3.501,8.44,7.818,8.44
				C18.859,39.176,22.36,35.396,22.36,30.735z"/>
			<linearGradient id="SVGID_1_" gradientUnits="userSpaceOnUse" x1="11.3457" y1="26.6938" x2="17.9292" y2="38.1938">
				<stop  offset="0" style="stop-color:#1FB2FF"/>
				<stop  offset="0.2395" style="stop-color:#19A5F2"/>
				<stop  offset="0.682" style="stop-color:#0983D1"/>
				<stop  offset="0.8909" style="stop-color:#0070BF"/>
				<stop  offset="1" style="stop-color:#3FC4FF"/>
			</linearGradient>
			<circle fill="url(#SVGID_1_)" stroke="#000000" stroke-miterlimit="10" cx="14.542" cy="32.277" r="6.875"/>
		</g>
		<g>
			<path fill="#717071" stroke="#000000" stroke-width="1.1815" stroke-miterlimit="10" d="M39.819,30.735
				c0-7.576-3.501-10.905-7.819-10.905c-4.317,0-7.818,3.721-7.818,10.905c0,4.66,3.501,8.44,7.818,8.44
				C36.318,39.176,39.819,35.396,39.819,30.735z"/>
			<linearGradient id="SVGID_2_" gradientUnits="userSpaceOnUse" x1="28.8042" y1="26.6938" x2="35.3877" y2="38.1938">
				<stop  offset="0" style="stop-color:#FFD63F"/>
				<stop  offset="0.4307" style="stop-color:#FFD432"/>
				<stop  offset="0.8909" style="stop-color:#FFD01F"/>
				<stop  offset="1" style="stop-color:#FFF8BF"/>
			</linearGradient>
			<circle fill="url(#SVGID_2_)" stroke="#000000" stroke-miterlimit="10" cx="32" cy="32.277" r="6.875"/>
		</g>
		<g>
			<path fill="#717071" stroke="#000000" stroke-width="1.1815" stroke-miterlimit="10" d="M57.277,30.735
				c0-7.576-3.501-10.905-7.819-10.905c-4.317,0-7.818,3.721-7.818,10.905c0,4.66,3.501,8.44,7.818,8.44
				C53.776,39.176,57.277,35.396,57.277,30.735z"/>
			<linearGradient id="SVGID_3_" gradientUnits="userSpaceOnUse" x1="46.2627" y1="26.6938" x2="52.8462" y2="38.1938">
				<stop  offset="0" style="stop-color:#FF3F3F"/>
				<stop  offset="0.2486" style="stop-color:#FF3232"/>
				<stop  offset="0.7083" style="stop-color:#FF1010"/>
				<stop  offset="0.8909" style="stop-color:#FF0000"/>
				<stop  offset="1" style="stop-color:#FF763F"/>
			</linearGradient>
			<circle fill="url(#SVGID_3_)" stroke="#000000" stroke-miterlimit="10" cx="49.459" cy="32.277" r="6.875"/>
		</g>
	</g>
</g>
</svg>
