<?xml version="1.0" encoding="utf-8"?>
<!-- Generator: Adobe Illustrator 15.0.2, SVG Export Plug-In . SVG Version: 6.00 Build 0)  -->
<!DOCTYPE svg PUBLIC "-//W3C//DTD SVG 1.1//EN" "http://www.w3.org/Graphics/SVG/1.1/DTD/svg11.dtd">
<svg version="1.1" id="レイヤー_1" xmlns="http://www.w3.org/2000/svg" xmlns:xlink="http://www.w3.org/1999/xlink" x="0px"
	 y="0px" width="64px" height="64px" viewBox="0 0 64 64" enable-background="new 0 0 64 64" xml:space="preserve">
<g>
	<polygon fill="#A18877" points="44.917,47.458 19.542,47.458 6.959,69.295 58.25,69.295 	"/>
	<path fill="#442809" d="M44.757,49.15H19.243L6.705,64.622h50.591L44.757,49.15z M19.404,51.557h25.191l1.672,2.426H17.732
		L19.404,51.557z M16.954,55.33h30.092l1.997,2.896H14.957L16.954,55.33z M13.5,60.875l36.875,0.063l1.837,2.543H11.788L13.5,60.875
		z"/>
	<path fill="#8E4F03" d="M45.604,48.123H18.396L5.026,64.622h53.948L45.604,48.123z M18.568,50.69h26.863l1.782,2.586H16.786
		L18.568,50.69z M15.956,54.713h32.089l2.129,3.089H13.826L15.956,54.713z M12.972,59.74h38.057l2.525,3.664H10.446L12.972,59.74z"
		/>
	<g>
		<linearGradient id="SVGID_1_" gradientUnits="userSpaceOnUse" x1="13.3618" y1="53.7432" x2="23.2515" y2="52.1483">
			<stop  offset="0" style="stop-color:#FFFFFF"/>
			<stop  offset="1" style="stop-color:#000000"/>
		</linearGradient>
		<polygon fill="url(#SVGID_1_)" stroke="#231815" stroke-width="0.1988" stroke-miterlimit="10" points="23.854,42.215 
			22.308,42.215 4.926,64.622 8.447,64.622 		"/>
		
			<linearGradient id="SVGID_2_" gradientUnits="userSpaceOnUse" x1="-22.0703" y1="53.7207" x2="-12.1812" y2="52.1259" gradientTransform="matrix(-1 0 0 1 28.5684 0)">
			<stop  offset="0" style="stop-color:#FFFFFF"/>
			<stop  offset="1" style="stop-color:#000000"/>
		</linearGradient>
		<polygon fill="url(#SVGID_2_)" stroke="#231815" stroke-width="0.1988" stroke-miterlimit="10" points="40.146,42.191 
			41.693,42.191 59.074,64.599 55.553,64.599 		"/>
	</g>
	<g>
		<g>
			<rect x="27.583" y="48.123" width="10.959" height="4.688"/>
			<rect x="16.165" y="48.852" width="5.821" height="2.795"/>
			<rect x="44.139" y="48.852" width="5.822" height="2.795"/>
		</g>
		<g>
			<path fill="#FFF8C7" d="M51.037,46.93c0,1.537-1.258,2.795-2.795,2.795H15.757c-1.537,0-2.794-1.258-2.794-2.795V8.858
				c0-1.537,1.257-2.794,2.794-2.794h32.485c1.537,0,2.795,1.257,2.795,2.794V46.93z"/>
			<path fill="none" stroke="#000000" stroke-width="0.9315" stroke-miterlimit="10" d="M51.037,46.93
				c0,1.537-1.258,2.795-2.795,2.795H15.757c-1.537,0-2.794-1.258-2.794-2.795V8.858c0-1.537,1.257-2.794,2.794-2.794h32.485
				c1.537,0,2.795,1.257,2.795,2.794V46.93z"/>
		</g>
		<rect x="12.963" y="31.269" fill="#95D353" width="38.074" height="5.473"/>
		<path d="M51.037,31.385C44.138,34.262,37.822,35.229,32,35.229c-4.828,0-15.766-0.994-19.037-3.843c0-7.801,0-22.12,0-22.12
			h38.074C51.037,9.266,51.037,25.447,51.037,31.385z"/>
		<g>
			<linearGradient id="SVGID_3_" gradientUnits="userSpaceOnUse" x1="20.3818" y1="6.2246" x2="49.2919" y2="43.9377">
				<stop  offset="0" style="stop-color:#BFE0FF"/>
				<stop  offset="1" style="stop-color:#00D5FF"/>
			</linearGradient>
			
				<rect x="15.408" y="15.32" fill="url(#SVGID_3_)" stroke="#000000" stroke-width="0.8283" stroke-miterlimit="10" width="33.185" height="12.122"/>
			<polygon opacity="0.58" fill="#FFFFFF" points="48.127,15.32 42.275,15.32 35.959,27.499 48.593,27.499 			"/>
			
				<rect x="15.408" y="15.32" fill="none" stroke="#000000" stroke-width="0.8299" stroke-miterlimit="10" width="33.185" height="12.178"/>
		</g>
		<rect x="12.963" y="39.07" fill="#418902" width="38.074" height="6.287"/>
		<g>
			<path fill="none" stroke="#000000" stroke-width="0.9315" stroke-miterlimit="10" d="M51.037,46.93
				c0,1.537-1.258,2.795-2.795,2.795H15.757c-1.537,0-2.794-1.258-2.794-2.795V8.858c0-1.537,1.257-2.794,2.794-2.794h32.485
				c1.537,0,2.795,1.257,2.795,2.794V46.93z"/>
		</g>
		<g>
			<rect x="12.963" y="38.431" width="7.51" height="7.568"/>
			<g>
				<rect x="16.718" y="39.669" fill="#FFD524" width="2.969" height="3.73"/>
				<rect x="16.718" y="43.399" fill="#FF2727" width="2.969" height="1.363"/>
			</g>
		</g>
		<g>
			<rect x="43.295" y="38.431" width="7.51" height="7.568"/>
			<g>
				<rect x="44.08" y="39.669" fill="#FFD524" width="2.97" height="3.73"/>
				<rect x="44.08" y="43.399" fill="#FF2727" width="2.97" height="1.363"/>
			</g>
		</g>
		<rect x="21.986" y="15.32" width="2.096" height="12.456"/>
		<rect x="32" y="15.32" width="2.096" height="12.456"/>
	</g>
</g>
</svg>
