<?xml version="1.0" encoding="utf-8"?>
<!-- Generator: Adobe Illustrator 15.0.0, SVG Export Plug-In . SVG Version: 6.00 Build 0)  -->
<!DOCTYPE svg PUBLIC "-//W3C//DTD SVG 1.1//EN" "http://www.w3.org/Graphics/SVG/1.1/DTD/svg11.dtd">
<svg version="1.1" id="レイヤー_1" xmlns="http://www.w3.org/2000/svg" xmlns:xlink="http://www.w3.org/1999/xlink" x="0px"
	 y="0px" width="64px" height="64px" viewBox="0 0 64 64" style="enable-background:new 0 0 64 64;" xml:space="preserve">
<polygon style="fill:#383838;" points="48.1884766,39.0703125 14.8261719,39.0703125 -1.71875,67.78125 65.71875,67.78125 "/>
<g>
	<linearGradient id="SVGID_1_" gradientUnits="userSpaceOnUse" x1="12.2641602" y1="44.28125" x2="13.8891621" y2="72.15625">
		<stop  offset="0" style="stop-color:#5F5F5F"/>
		<stop  offset="1" style="stop-color:#000000"/>
	</linearGradient>
	<polygon style="fill:url(#SVGID_1_);" points="5.3125,69.8359375 18.5625,44.6777344 20.7290039,44.6777344 10.3125,69.0986328 	
		"/>
	
		<linearGradient id="SVGID_2_" gradientUnits="userSpaceOnUse" x1="-23.8383789" y1="46.3857422" x2="-22.213377" y2="74.2607422" gradientTransform="matrix(-1 0 0 1 27.7753906 0)">
		<stop  offset="0" style="stop-color:#5F5F5F"/>
		<stop  offset="1" style="stop-color:#000000"/>
	</linearGradient>
	<polygon style="fill:url(#SVGID_2_);" points="58.6875,69.8359375 45.4375,44.6777344 43.2714844,44.6777344 53.6875,69.0986328 	
		"/>
</g>
<g>
	<g>
		<rect x="27.5825195" y="48.1230469" width="10.9594727" height="4.6875"/>
		<rect x="16.1645508" y="48.8515625" width="5.8217773" height="2.7949219"/>
		<rect x="44.1386719" y="48.8515625" width="5.8222656" height="2.7949219"/>
	</g>
	<g>
		<path style="fill:#FFF8C7;" d="M51.0371094,46.9296875c0,1.5371094-1.2578125,2.7949219-2.7949219,2.7949219H15.7568359
			c-1.5371094,0-2.7944336-1.2578125-2.7944336-2.7949219V8.8579102c0-1.5371094,1.2573242-2.7944336,2.7944336-2.7944336
			h32.4853516c1.5371094,0,2.7949219,1.2573242,2.7949219,2.7944336V46.9296875z"/>
		<path d="M48.2421875,50.1904297H15.7568359c-1.7978516,0-3.2602539-1.4628906-3.2602539-3.2607422V8.8579102
			c0-1.7978516,1.4624023-3.2602539,3.2602539-3.2602539h32.4853516c1.7978516,0,3.2607422,1.4624023,3.2607422,3.2602539
			v38.0717773C51.5029297,48.7275391,50.0400391,50.1904297,48.2421875,50.1904297z M15.7568359,6.5292969
			c-1.2841797,0-2.3286133,1.0444336-2.3286133,2.3286133v38.0717773c0,1.2841797,1.0444336,2.3291016,2.3286133,2.3291016
			h32.4853516c1.2841797,0,2.3291016-1.0449219,2.3291016-2.3291016V8.8579102c0-1.2841797-1.0449219-2.3286133-2.3291016-2.3286133
			H15.7568359z"/>
	</g>
	<rect x="12.9624023" y="31.269043" style="fill:#95D353;" width="38.074707" height="5.4731445"/>
	<path d="M51.0371094,31.3852539C44.1376953,34.2617188,37.8222656,35.2285156,32,35.2285156
		c-4.8286133,0-15.765625-0.9941406-19.0375977-3.8432617c0-7.8012695,0-22.1196289,0-22.1196289h38.074707
		C51.0371094,9.265625,51.0371094,25.4472656,51.0371094,31.3852539z"/>
	<g>
		<g>
			<linearGradient id="SVGID_3_" gradientUnits="userSpaceOnUse" x1="32.0454102" y1="15.8613281" x2="31.9204102" y2="31.2363281">
				<stop  offset="0" style="stop-color:#5FD4FF"/>
				<stop  offset="1" style="stop-color:#007ADF"/>
			</linearGradient>
			<rect x="15.4077148" y="15.3203125" style="fill:url(#SVGID_3_);" width="33.1850586" height="12.121582"/>
			<path d="M49.0068359,27.855957H14.9936523V14.90625h34.0131836V27.855957z M15.8217773,27.027832h32.3569336V15.734375
				H15.8217773V27.027832z"/>
		</g>
		<polygon style="opacity:0.58;fill:#FFFFFF;" points="48.1269531,15.3203125 42.2753906,15.3203125 35.9589844,27.4985352 
			48.5927734,27.4985352 		"/>
		<path d="M49.0078125,27.9135742H14.9926758V14.9052734h34.0151367V27.9135742z M15.8227539,27.0834961h32.3549805V15.7353516
			H15.8227539V27.0834961z"/>
	</g>
	<rect x="12.9624023" y="39.0703125" style="fill:#418902;" width="38.074707" height="6.2871094"/>
	<path d="M48.2421875,50.2246094H15.7568359c-1.8164063,0-3.2944336-1.4785156-3.2944336-3.2949219V8.8579102
		c0-1.8164063,1.4780273-3.2944336,3.2944336-3.2944336h32.4853516c1.8164063,0,3.2949219,1.4780273,3.2949219,3.2944336v38.0717773
		C51.5371094,48.7460938,50.0585938,50.2246094,48.2421875,50.2246094z M15.7568359,6.5634766
		c-1.2651367,0-2.2944336,1.0292969-2.2944336,2.2944336v38.0717773c0,1.265625,1.0292969,2.2949219,2.2944336,2.2949219h32.4853516
		c1.265625,0,2.2949219-1.0292969,2.2949219-2.2949219V8.8579102c0-1.2651367-1.0292969-2.2944336-2.2949219-2.2944336H15.7568359z"
		/>
	<g>
		<rect x="12.9624023" y="38.4306641" width="7.5102539" height="7.5683594"/>
		<g>
			<rect x="16.7177734" y="39.6689453" style="fill:#FFD524;" width="2.96875" height="3.7304688"/>
			<rect x="16.7177734" y="43.3994141" style="fill:#FF2727;" width="2.96875" height="1.3632813"/>
		</g>
	</g>
	<g>
		<rect x="43.2949219" y="38.4306641" width="7.5097656" height="7.5683594"/>
		<g>
			<rect x="44.0800781" y="39.6689453" style="fill:#FFD524;" width="2.9697266" height="3.7304688"/>
			<rect x="44.0800781" y="43.3994141" style="fill:#FF2727;" width="2.9697266" height="1.3632813"/>
		</g>
	</g>
	<rect x="21.9863281" y="15.3203125" width="2.0957031" height="12.4555664"/>
	<rect x="32" y="15.3203125" width="2.0957031" height="12.4555664"/>
</g>
</svg>
