<?xml version="1.0" encoding="UTF-8" standalone="no"?>
<!-- Generator: Adobe Illustrator 15.0.2, SVG Export Plug-In . SVG Version: 6.00 Build 0)  -->

<svg
   xmlns:dc="http://purl.org/dc/elements/1.1/"
   xmlns:cc="http://creativecommons.org/ns#"
   xmlns:rdf="http://www.w3.org/1999/02/22-rdf-syntax-ns#"
   xmlns:svg="http://www.w3.org/2000/svg"
   xmlns="http://www.w3.org/2000/svg"
   xmlns:sodipodi="http://sodipodi.sourceforge.net/DTD/sodipodi-0.dtd"
   xmlns:inkscape="http://www.inkscape.org/namespaces/inkscape"
   version="1.1"
   id="レイヤー_1"
   x="0px"
   y="0px"
   width="64px"
   height="64px"
   viewBox="0 0 64 64"
   style="enable-background:new 0 0 64 64;"
   xml:space="preserve"
   inkscape:version="0.48.4 r9939"
   sodipodi:docname="triangular_ruler.svg"><metadata
     id="metadata86"><rdf:RDF><cc:Work
         rdf:about=""><dc:format>image/svg+xml</dc:format><dc:type
           rdf:resource="http://purl.org/dc/dcmitype/StillImage" /></cc:Work></rdf:RDF></metadata><defs
     id="defs84" /><sodipodi:namedview
     pagecolor="#ffffff"
     bordercolor="#666666"
     borderopacity="1"
     objecttolerance="10"
     gridtolerance="10"
     guidetolerance="10"
     inkscape:pageopacity="0"
     inkscape:pageshadow="2"
     inkscape:window-width="640"
     inkscape:window-height="480"
     id="namedview82" /><g
     style="opacity:0.7;"
     id="g3"><linearGradient
       id="SVGID_1_"
       gradientUnits="userSpaceOnUse"
       x1="3.284668"
       y1="33.9453125"
       x2="59.7845573"
       y2="34.1953125"><stop
         offset="0"
         style="stop-color:#FFFFFF"
         id="stop6" /><stop
         offset="0.0549626"
         style="stop-color:#FDFFFF"
         id="stop8" /><stop
         offset="0.0747587"
         style="stop-color:#F6FEFF"
         id="stop10" /><stop
         offset="0.0888746"
         style="stop-color:#EBFDFF"
         id="stop12" /><stop
         offset="0.1002809"
         style="stop-color:#DAFBFF"
         id="stop14" /><stop
         offset="0.1100461"
         style="stop-color:#C4F9FF"
         id="stop16" /><stop
         offset="0.1185508"
         style="stop-color:#A9F7FF"
         id="stop18" /><stop
         offset="0.121212"
         style="stop-color:#9FF6FF"
         id="stop20" /><stop
         offset="0.1844248"
         style="stop-color:#B0F8FF"
         id="stop22" /><stop
         offset="0.311891"
         style="stop-color:#CDFAFF"
         id="stop24" /><stop
         offset="0.4486138"
         style="stop-color:#E3FCFF"
         id="stop26" /><stop
         offset="0.5971354"
         style="stop-color:#F3FEFF"
         id="stop28" /><stop
         offset="0.7660564"
         style="stop-color:#FCFFFF"
         id="stop30" /><stop
         offset="1"
         style="stop-color:#FFFFFF"
         id="stop32" /></linearGradient><path
       style="fill:url(#SVGID_1_);"
       d="M6.2202148,6.1860352v55.5444336h52.9467773L6.2202148,6.1860352z M23.125,48.0185547   c-1.9560547,0-3.5415039-1.5859375-3.5415039-3.5410156c0-1.9560547,1.5854492-3.5419922,3.5415039-3.5419922   s3.5415039,1.5859375,3.5415039,3.5419922C26.6665039,46.4326172,25.0810547,48.0185547,23.125,48.0185547z"
       id="path34" /><path
       style="fill:#2767C4;"
       d="M60.6220703,62.3535156H5.5966797V4.6289063L60.6220703,62.3535156z M6.84375,61.1074219h50.8681641   L6.84375,7.7431641V61.1074219z M23.125,48.6416016c-2.2963867,0-4.1650391-1.8681641-4.1650391-4.1640625   c0-2.296875,1.8686523-4.1650391,4.1650391-4.1650391s4.1650391,1.8681641,4.1650391,4.1650391   C27.2900391,46.7734375,25.4213867,48.6416016,23.125,48.6416016z M23.125,41.5585938   c-1.6088867,0-2.9179688,1.3095703-2.9179688,2.9189453c0,1.6083984,1.309082,2.9179688,2.9179688,2.9179688   s2.9179688-1.3095703,2.9179688-2.9179688C26.0429688,42.8681641,24.7338867,41.5585938,23.125,41.5585938z"
       id="path36" /></g><g
     id="g38"><rect
       x="6.84375"
       y="14.03125"
       style="fill:#2767C4;"
       width="4.5727539"
       height="0.609375"
       id="rect40" /><rect
       x="6.84375"
       y="16.3027344"
       style="fill:#2767C4;"
       width="2.9897461"
       height="0.5"
       id="rect42" /><rect
       x="6.84375"
       y="18.5185547"
       style="fill:#2767C4;"
       width="2.9897461"
       height="0.5"
       id="rect44" /><rect
       x="6.84375"
       y="20.7353516"
       style="fill:#2767C4;"
       width="2.9897461"
       height="0.5"
       id="rect46" /><rect
       x="6.84375"
       y="22.9521484"
       style="fill:#2767C4;"
       width="2.9897461"
       height="0.5"
       id="rect48" /><rect
       x="6.84375"
       y="25.1142578"
       style="fill:#2767C4;"
       width="4.5727539"
       height="0.609375"
       id="rect50" /><rect
       x="6.84375"
       y="27.3847656"
       style="fill:#2767C4;"
       width="2.9897461"
       height="0.5"
       id="rect52" /><rect
       x="6.84375"
       y="29.6015625"
       style="fill:#2767C4;"
       width="2.9897461"
       height="0.5"
       id="rect54" /><rect
       x="6.84375"
       y="31.8183594"
       style="fill:#2767C4;"
       width="2.9897461"
       height="0.5"
       id="rect56" /><rect
       x="6.84375"
       y="34.0351563"
       style="fill:#2767C4;"
       width="2.9897461"
       height="0.5"
       id="rect58" /><rect
       x="6.84375"
       y="36.1972656"
       style="fill:#2767C4;"
       width="4.5727539"
       height="0.609375"
       id="rect60" /><rect
       x="6.84375"
       y="38.46875"
       style="fill:#2767C4;"
       width="2.9897461"
       height="0.5"
       id="rect62" /><rect
       x="6.84375"
       y="40.6855469"
       style="fill:#2767C4;"
       width="2.9897461"
       height="0.5"
       id="rect64" /><rect
       x="6.84375"
       y="42.9023438"
       style="fill:#2767C4;"
       width="2.9897461"
       height="0.5"
       id="rect66" /><rect
       x="6.84375"
       y="45.1191406"
       style="fill:#2767C4;"
       width="2.9897461"
       height="0.5"
       id="rect68" /><rect
       x="6.84375"
       y="47.28125"
       style="fill:#2767C4;"
       width="4.5727539"
       height="0.609375"
       id="rect70" /><rect
       x="6.84375"
       y="49.5517578"
       style="fill:#2767C4;"
       width="2.9897461"
       height="0.5"
       id="rect72" /><rect
       x="6.84375"
       y="51.7685547"
       style="fill:#2767C4;"
       width="2.9897461"
       height="0.5"
       id="rect74" /><rect
       x="6.84375"
       y="53.9853516"
       style="fill:#2767C4;"
       width="2.9897461"
       height="0.5"
       id="rect76" /><rect
       x="6.84375"
       y="56.2021484"
       style="fill:#2767C4;"
       width="2.9897461"
       height="0.5"
       id="rect78" /><rect
       x="6.84375"
       y="58.3642578"
       style="fill:#2767C4;"
       width="4.5727539"
       height="0.609375"
       id="rect80" /></g></svg>