<?xml version="1.0" encoding="utf-8"?>
<!-- Generator: Adobe Illustrator 15.0.0, SVG Export Plug-In . SVG Version: 6.00 Build 0)  -->
<!DOCTYPE svg PUBLIC "-//W3C//DTD SVG 1.1//EN" "http://www.w3.org/Graphics/SVG/1.1/DTD/svg11.dtd">
<svg version="1.1" id="レイヤー_1" xmlns="http://www.w3.org/2000/svg" xmlns:xlink="http://www.w3.org/1999/xlink" x="0px"
	 y="0px" width="64px" height="64px" viewBox="0 0 64 64" style="enable-background:new 0 0 64 64;" xml:space="preserve">
<g>
	<linearGradient id="SVGID_1_" gradientUnits="userSpaceOnUse" x1="18.0126953" y1="-4.8999023" x2="45.1785965" y2="66.7651443">
		<stop  offset="0" style="stop-color:#FFF0ED"/>
		<stop  offset="0.4120165" style="stop-color:#FFE2D9"/>
		<stop  offset="1" style="stop-color:#FFC9B5"/>
	</linearGradient>
	<circle style="fill:url(#SVGID_1_);" cx="32" cy="32" r="28.9443359"/>
	<path style="fill:#FFB6B6;" d="M32.0009766,61.3291016C15.828125,61.3291016,2.6708984,48.171875,2.6708984,32
		c0-16.1723633,13.1572266-29.3291016,29.3300781-29.3291016c16.171875,0,29.328125,13.1567383,29.328125,29.3291016
		C61.3291016,48.171875,48.1728516,61.3291016,32.0009766,61.3291016z M32.0009766,5.1708984
		C17.2070313,5.1708984,5.1708984,17.206543,5.1708984,32c0,14.7939453,12.0361328,26.8291016,26.8300781,26.8291016
		c14.7929688,0,26.828125-12.0351563,26.828125-26.8291016C58.8291016,17.206543,46.7939453,5.1708984,32.0009766,5.1708984z"/>
	<path style="fill:#750000;" d="M32,62.1933594C15.3505859,62.1933594,1.8056641,48.6484375,1.8056641,32
		S15.3505859,1.8066406,32,1.8066406S62.1943359,15.3515625,62.1943359,32S48.6494141,62.1933594,32,62.1933594z M32,4.3066406
		C16.7294922,4.3066406,4.3056641,16.7299805,4.3056641,32c0,15.2705078,12.4238281,27.6933594,27.6943359,27.6933594
		S59.6943359,47.2705078,59.6943359,32C59.6943359,16.7299805,47.2705078,4.3066406,32,4.3066406z"/>
	<path style="fill:#750000;" d="M19.3359375,50.125l-0.0004883-3c0.1489258,0,14.9887695-0.0576172,23.4663086-4.5146484
		c3.6669922-1.9287109,4.1376953-3.2832031,4.1943359-3.6523438c0.0537109-0.3427734-0.1201172-0.5488281-0.1738281-0.6035156
		l1.9892578-2.2441406c0.1425781,0.1220703,1.3847656,1.2460938,1.1708984,3.1455078
		c-0.2382813,2.1220703-2.1308594,4.0878906-5.7841797,6.0087891C35.0615234,50.0693359,19.9736328,50.125,19.3359375,50.125z"/>
	<ellipse style="fill:#750000;" cx="18.625" cy="25.8325195" rx="3.5078125" ry="4.5292969"/>
	<ellipse style="fill:#750000;" cx="43.8037109" cy="25.8325195" rx="3.5087891" ry="4.5292969"/>
	
		<rect x="13.1888533" y="16.4011765" transform="matrix(0.8586784 0.5125148 -0.5125148 0.8586784 11.9765596 -7.6317654)" style="fill:#750000;" width="13.2761021" height="2.9998944"/>
	
		<rect x="42.6738815" y="11.2628622" transform="matrix(0.5123879 0.8587542 -0.8587542 0.5123879 36.9123573 -29.2056541)" style="fill:#750000;" width="2.9998944" height="13.2765217"/>
</g>
</svg>
