<?xml version="1.0" encoding="utf-8"?>
<!-- Generator: Adobe Illustrator 15.0.2, SVG Export Plug-In . SVG Version: 6.00 Build 0)  -->
<!DOCTYPE svg PUBLIC "-//W3C//DTD SVG 1.1//EN" "http://www.w3.org/Graphics/SVG/1.1/DTD/svg11.dtd">
<svg version="1.1" id="レイヤー_1" xmlns="http://www.w3.org/2000/svg" xmlns:xlink="http://www.w3.org/1999/xlink" x="0px"
	 y="0px" width="64px" height="64px" viewBox="0 0 64 64" enable-background="new 0 0 64 64" xml:space="preserve">
<g>
	<linearGradient id="SVGID_1_" gradientUnits="userSpaceOnUse" x1="17.1162" y1="21.2705" x2="51.7825" y2="38.6031">
		<stop  offset="0.0606" style="stop-color:#FFFFFF"/>
		<stop  offset="0.1182" style="stop-color:#FFFBDA"/>
		<stop  offset="0.2456" style="stop-color:#FFF27D"/>
		<stop  offset="0.3273" style="stop-color:#FFEB3F"/>
		<stop  offset="1" style="stop-color:#FFB700"/>
	</linearGradient>
	<path fill="url(#SVGID_1_)" stroke="#231815" stroke-width="0.845" d="M62.42,14.627c-9.717-2.817-25.068-1.595-25.068-1.595l0,0
		c-5.811-0.054-13.796,1.275-18.59,2.722c-7.463,2.253-6.196,12.674-7.746,17.604c-1.549,4.929-6.875,4.267-8.591,5.069
		c-1.298,0.609-1.21,3.521,0.563,3.238c2.675-0.424,4.929,2.816,7.323,4.227c7.183,8.59,20.42,3.943,22.111,3.238
		s7.042,4.225,11.689,0.986s-2.395-15.211-2.395-15.211c1.128,0.281,9.858,8.592,9.858,8.592V22.796
		c-0.986,2.112-8.873,3.38-8.873,3.38c3.455-2.351,4.174-8.083,1.552-11.36c6.976-0.25,16.723,0.551,17.461,0.657
		C62.701,15.613,62.42,14.627,62.42,14.627z"/>
	<g>
		<g>
			<circle fill="none" stroke="#000000" stroke-width="1.5" cx="17.31" cy="32.606" r="3.135"/>
			<circle fill="#FFFFFF" cx="17.31" cy="32.606" r="3.135"/>
		</g>
		<circle fill="#050000" cx="17.917" cy="31.999" r="1.784"/>
	</g>
	<path opacity="0.66" fill="#FFA506" d="M29.667,15.833c0,0,8.739,1.351,13.036,10.342C42.703,26.176,41.635,14.453,29.667,15.833z"
		/>
	<path opacity="0.66" fill="#FFA506" d="M41.167,33.781c0,0-3.999,14.087-12.25,14.719C28.917,48.5,42,51.896,41.167,33.781z"/>
	<path fill="#050100" d="M17.917,16.065l6.045-1.582c0,0-0.704,3.183,0,10.183s7.803,16.151,3.67,25.826c0,0-3.46,1.174-7.188,0.426
		c0,0,2.291-15.918-0.744-23.918S17.917,16.065,17.917,16.065z"/>
	<path fill="#050100" d="M34.646,13.098c0,0-5.646,7.798-0.979,20.684s4.367,17.067,4.367,17.067s4.679,1.462,6.822-1.443
		c0,0-11.356-17.572-9.856-25.572s4.334-10.736,4.334-10.736H34.646z"/>
	<path fill="#050100" d="M11.333,37.333c-1.362,1.781-9.687,2.104-9.687,2.104s0.251-0.804,3.007-1.513s6.069-1.136,6.833-6.646
		C11.488,31.278,13.5,34.499,11.333,37.333z"/>
</g>
</svg>
