<?xml version="1.0" encoding="UTF-8" standalone="no"?>
<!-- Generator: Adobe Illustrator 15.0.2, SVG Export Plug-In . SVG Version: 6.00 Build 0)  -->

<svg
   xmlns:dc="http://purl.org/dc/elements/1.1/"
   xmlns:cc="http://creativecommons.org/ns#"
   xmlns:rdf="http://www.w3.org/1999/02/22-rdf-syntax-ns#"
   xmlns:svg="http://www.w3.org/2000/svg"
   xmlns="http://www.w3.org/2000/svg"
   xmlns:sodipodi="http://sodipodi.sourceforge.net/DTD/sodipodi-0.dtd"
   xmlns:inkscape="http://www.inkscape.org/namespaces/inkscape"
   version="1.1"
   id="レイヤー_1"
   x="0px"
   y="0px"
   width="64px"
   height="64px"
   viewBox="0 0 64 64"
   style="enable-background:new 0 0 64 64;"
   xml:space="preserve"
   inkscape:version="0.48.5 r10040"
   sodipodi:docname="tropical_drink.svg"><metadata
     id="metadata382"><rdf:RDF><cc:Work
         rdf:about=""><dc:format>image/svg+xml</dc:format><dc:type
           rdf:resource="http://purl.org/dc/dcmitype/StillImage" /></cc:Work></rdf:RDF></metadata><defs
     id="defs380" /><sodipodi:namedview
     pagecolor="#ffffff"
     bordercolor="#666666"
     borderopacity="1"
     objecttolerance="10"
     gridtolerance="10"
     guidetolerance="10"
     inkscape:pageopacity="0"
     inkscape:pageshadow="2"
     inkscape:window-width="640"
     inkscape:window-height="480"
     id="namedview378" /><g
     id="g3"><linearGradient
       id="SVGID_1_"
       gradientUnits="userSpaceOnUse"
       x1="32.0004883"
       y1="61.5576172"
       x2="32.0004883"
       y2="43.3527756"><stop
         offset="0"
         style="stop-color:#FFFFFF"
         id="stop6" /><stop
         offset="0.1358306"
         style="stop-color:#FBFCFC"
         id="stop8" /><stop
         offset="0.2582493"
         style="stop-color:#F0F1F4"
         id="stop10" /><stop
         offset="0.3755133"
         style="stop-color:#DEDFE5"
         id="stop12" /><stop
         offset="0.4895882"
         style="stop-color:#C4C7D1"
         id="stop14" /><stop
         offset="0.6003014"
         style="stop-color:#A3A7B8"
         id="stop16" /><stop
         offset="0.69697"
         style="stop-color:#80859C"
         id="stop18" /><stop
         offset="0.7013986"
         style="stop-color:#898EA3"
         id="stop20" /><stop
         offset="0.7194595"
         style="stop-color:#A8ACBC"
         id="stop22" /><stop
         offset="0.7399051"
         style="stop-color:#C4C6D1"
         id="stop24" /><stop
         offset="0.7629902"
         style="stop-color:#DADBE2"
         id="stop26" /><stop
         offset="0.7899505"
         style="stop-color:#EBEBEF"
         id="stop28" /><stop
         offset="0.8233091"
         style="stop-color:#F6F7F8"
         id="stop30" /><stop
         offset="0.8701028"
         style="stop-color:#FDFDFE"
         id="stop32" /><stop
         offset="1"
         style="stop-color:#FFFFFF"
         id="stop34" /></linearGradient><path
       style="fill:url(#SVGID_1_);"
       d="M33.765625,55.4619141c-0.5898438-3.2363281-0.3105469-7.0009766,1.1855469-10.0146484   c-0.9570313-0.9560547-4.9570313-0.9638672-5.9023438,0c1.8520508,2.7421875,1.8427734,6.7617188,1.1450195,10.0166016   c-5.1821289,0.2851563-9.1362305,1.7646484-9.1362305,3.5537109c0,1.9921875,4.8989258,3.6064453,10.9423828,3.6064453   c6.0429688,0,10.9423828-1.6142578,10.9423828-3.6064453C42.9423828,57.2236328,38.9667969,55.7412109,33.765625,55.4619141z"
       id="path36" /><path
       style="fill:#2CA4DE;"
       d="M32,63.1806641c-5.574707,0-11.4990234-1.4589844-11.4990234-4.1630859   c0-2.3974609,4.5678711-3.7617188,9.2319336-4.0830078c0.3886719-2.0380859,0.8442383-6.2294922-1.1455078-9.1757813   l-0.2543945-0.3769531l0.3183594-0.3242188c0.8071289-0.8232422,2.7578125-0.8867188,3.3369141-0.8867188   c0.5800781,0,2.5361328,0.0634766,3.3564453,0.8828125l0.2832031,0.2822266l-0.1777344,0.359375   c-1.2714844,2.5605469-1.7148438,5.984375-1.2089844,9.2373047c4.6796875,0.3183594,9.2578125,1.6806641,9.2578125,4.0849609   C43.4990234,61.7216797,37.5742188,63.1806641,32,63.1806641z M29.8120117,45.6181641   c2.0092773,3.4736328,1.3291016,8.0820313,0.9262695,9.9628906l-0.0893555,0.4150391l-0.4243164,0.0234375   c-5.3183594,0.2929688-8.6103516,1.7841797-8.6103516,2.9980469c0,1.2734375,3.9511719,3.0498047,10.3857422,3.0498047   s10.3857422-1.7763672,10.3857422-3.0498047c0-1.2197266-3.3076172-2.7128906-8.6503906-3l-0.4384766-0.0234375   l-0.0791016-0.4326172c-0.6337891-3.4775391-0.2592773-7.0595703,1.0244141-9.9169922   c-0.4492188-0.1992188-1.2509766-0.3603516-2.2539063-0.3603516   C31.0322266,45.2841797,30.2631836,45.4316406,29.8120117,45.6181641z"
       id="path38" /></g><g
     id="g40"><linearGradient
       id="SVGID_2_"
       gradientUnits="userSpaceOnUse"
       x1="32"
       y1="22.4589844"
       x2="31.9999981"
       y2="48.8850937"><stop
         offset="0"
         style="stop-color:#FFFFFF"
         id="stop43" /><stop
         offset="0.1358306"
         style="stop-color:#FBFCFC"
         id="stop45" /><stop
         offset="0.2582493"
         style="stop-color:#F0F1F4"
         id="stop47" /><stop
         offset="0.3755133"
         style="stop-color:#DEDFE5"
         id="stop49" /><stop
         offset="0.4895882"
         style="stop-color:#C4C7D1"
         id="stop51" /><stop
         offset="0.6003014"
         style="stop-color:#A3A7B8"
         id="stop53" /><stop
         offset="0.69697"
         style="stop-color:#80859C"
         id="stop55" /><stop
         offset="0.7013986"
         style="stop-color:#898EA3"
         id="stop57" /><stop
         offset="0.7194595"
         style="stop-color:#A8ACBC"
         id="stop59" /><stop
         offset="0.7399051"
         style="stop-color:#C4C6D1"
         id="stop61" /><stop
         offset="0.7629902"
         style="stop-color:#DADBE2"
         id="stop63" /><stop
         offset="0.7899505"
         style="stop-color:#EBEBEF"
         id="stop65" /><stop
         offset="0.8233091"
         style="stop-color:#F6F7F8"
         id="stop67" /><stop
         offset="0.8701028"
         style="stop-color:#FDFDFE"
         id="stop69" /><stop
         offset="1"
         style="stop-color:#FFFFFF"
         id="stop71" /></linearGradient><path
       style="fill:url(#SVGID_2_);"
       d="M31.5976563,46.3935547c6.1806641,0,16.9306641-5.4775391,14.6357422-18.1826172   s-5.1142578-18.1821289-5.1142578-18.1821289H22.921875c0,0-3.1308594,4.8706055-5.2128906,18.1821289   C15.6904297,41.1171875,25.9912109,46.3935547,31.5976563,46.3935547z"
       id="path73" /><path
       style="fill:#2CA4DE;"
       d="M31.5976563,46.9501953c-3.2373047,0-7.9379883-1.6757813-11.1420898-5.4199219   c-2.0800781-2.4306641-4.3408203-6.7294922-3.296875-13.4052734c2.0766602-13.2749023,5.1645508-18.1943359,5.2949219-18.3974609   l0.1640625-0.2553711h18.8413086l0.1552734,0.3017578c0.1162109,0.2265625,2.8837891,5.6962891,5.1669922,18.3378906   c0.9121094,5.0512695-0.1308594,9.5463867-3.015625,12.9995117C40.3955078,45.1445313,35.2255859,46.9501953,31.5976563,46.9501953   z M23.2426758,10.5854492c-0.6391602,1.159668-3.2070313,6.3520508-4.9833984,17.7114258   C17.484375,33.25,18.5366211,37.5751953,21.3017578,40.8066406c2.9736328,3.4746094,7.3139648,5.0302734,10.2958984,5.0302734   c3.3691406,0,8.1738281-1.6816406,11.3134766-5.4394531c2.6669922-3.1914063,3.6259766-7.3720703,2.7744141-12.0874023   c-1.9560547-10.8300781-4.3183594-16.4179688-4.9179688-17.7246094H23.2426758z"
       id="path75" /></g><g
     id="g77"><path
       style="fill:#8BC01F;"
       d="M9.3867188,16.5615234c0,0,2.4350586-7.3681641,13.2871094-8.2617188l3.1796875,4.8330078   C25.8535156,13.1328125,15.7675781,15.7080078,9.3867188,16.5615234z"
       id="path79" /><path
       style="fill:#F8EB00;"
       d="M9.1567383,18.3120117l16.6967773-5.1791992L9.3867188,16.5615234   C9.3867188,16.5615234,9.1533203,17.6362305,9.1567383,18.3120117z"
       id="path81" /><path
       style="fill:#1EA839;"
       d="M25.8535156,13.1328125L25.4165039,12.46875c0,0-12.6098633,2.7573242-15.5263672,3.9248047   S23.2729492,13.2983398,25.8535156,13.1328125z"
       id="path83" /></g><g
     id="g85"><ellipse
       style="fill:#FFFFFF;"
       cx="32"
       cy="10.0288086"
       rx="9.0986328"
       ry="1.2700195"
       id="ellipse87" /><path
       style="fill:#2CA4DE;"
       d="M32,11.8554688c-3.605957,0-9.6552734-0.2373047-9.6552734-1.8266602   c0-1.590332,6.0493164-1.8276367,9.6552734-1.8276367c3.6064453,0,9.6552734,0.2373047,9.6552734,1.8276367   C41.6552734,11.6181641,35.6064453,11.8554688,32,11.8554688z M23.8857422,10.0283203   C24.9716797,10.3505859,27.6870117,10.7421875,32,10.7421875c4.3134766,0,7.0283203-0.3916016,8.1142578-0.7138672   C39.0283203,9.7060547,36.3134766,9.3144531,32,9.3144531S24.9716797,9.7060547,23.8857422,10.0283203z"
       id="path89" /></g><g
     id="g91"><path
       style="fill:#C10D23;"
       d="M29.5849609,7.6318359c-0.7617188,2.0419922-2.7470703,1.9174805-4.2138672,1.3842773   c-1.4672852-0.5327148-1.7524414-1.8212891-1.1845703-3.3457031c0.5683594-1.5249023,1.6313477-2.3237305,3.0986328-1.7905273   C28.7514648,4.4130859,30.3422852,5.6010742,29.5849609,7.6318359z"
       id="path93" /><path
       style="fill:#770A1C;"
       d="M14.809082,1.831543l0.5244141,0.8017578l0.8251953-0.0058594   c0,0,4.4941406-1.581543,8.6523438,3.6689453l0.2436523-0.652832c0,0-4.3691406-5.2524414-8.5073242-3.6162109   l-0.7978516-0.2900391C15.7495117,1.7373047,15.1391602,1.1665039,14.809082,1.831543z"
       id="path95" /><path
       style="fill:#770A1C;"
       d="M25.7045898,4.6245117c0,0-0.4501953,2.1821289-0.8564453,2.2963867   S24.9458008,5.53125,25.7045898,4.6245117z"
       id="path97" /><path
       style="fill:#FFFFFF;"
       d="M27.4243164,5.0200195c0.0180664,0.2998047-0.2236328,0.5532227-0.5400391,0.5649414   c-0.3149414,0.0112305-0.5869141-0.222168-0.6049805-0.5234375c-0.0166016-0.2993164,0.2255859-0.5517578,0.5410156-0.5639648   C27.1357422,4.4868164,27.4072266,4.7197266,27.4243164,5.0200195z"
       id="path99" /></g><path
     style="fill:#FFFFFF;"
     d="M32.3139648,46.5722656l1.3676758-0.1787109c0,0-3.7797852,7.4160156,0.3603516,10.6787109  c0,0-0.0019531,1.3876953-0.3603516,1.4755859C31.3730469,54.9414063,31.5996094,52.4707031,32.3139648,46.5722656z"
     id="path101" /><g
     id="g103"><path
       style="fill:#F29319;"
       d="M27.8217773,14.0131836c0.4179688-5.3706055-3.5976563-10.0634766-8.9682617-10.480957   C13.4829102,3.1142578,8.7900391,7.1298828,8.3720703,12.5L27.8217773,14.0131836z"
       id="path105" /><path
       style="fill:#FFAC39;"
       d="M29.3393555,14.1914063c0.4179688-5.3701172-3.597168-10.0629883-8.9682617-10.4804688   c-5.3706055-0.418457-10.0634766,3.597168-10.480957,8.9677734L29.3393555,14.1914063z"
       id="path107" /><path
       style="fill:#FFF1D2;"
       d="M28.3813477,14.1171875c0.3764648-4.8417969-3.2436523-9.0722656-8.0844727-9.4482422   c-4.8413086-0.3769531-9.0722656,3.2421875-9.4487305,8.0844727L28.3813477,14.1171875z"
       id="path109" /><linearGradient
       id="SVGID_3_"
       gradientUnits="userSpaceOnUse"
       x1="12.5239258"
       y1="10.9067383"
       x2="17.1211433"
       y2="14.3356218"
       gradientTransform="matrix(0.997 0.0775 -0.0775 0.997 1.2095993 -1.6600418)"><stop
         offset="0"
         style="stop-color:#FF9900"
         id="stop112" /><stop
         offset="0.3897758"
         style="stop-color:#FF9600"
         id="stop114" /><stop
         offset="0.6330804"
         style="stop-color:#FF8E00"
         id="stop116" /><stop
         offset="0.8355911"
         style="stop-color:#FF7F00"
         id="stop118" /><stop
         offset="1"
         style="stop-color:#FF6D00"
         id="stop120" /></linearGradient><path
       style="fill:url(#SVGID_3_);"
       d="M11.4370117,12.7988281l8.1782227,0.6362305L14.21875,7.5307617   C14.21875,7.5307617,12.0976563,9.0703125,11.4370117,12.7988281z"
       id="path122" /><linearGradient
       id="SVGID_4_"
       gradientUnits="userSpaceOnUse"
       x1="17.4985352"
       y1="6.6040039"
       x2="16.9111862"
       y2="12.6974926"
       gradientTransform="matrix(0.997 0.0775 -0.0775 0.997 1.2095993 -1.6600418)"><stop
         offset="0"
         style="stop-color:#FF9900"
         id="stop125" /><stop
         offset="0.3897758"
         style="stop-color:#FF9600"
         id="stop127" /><stop
         offset="0.6330804"
         style="stop-color:#FF8E00"
         id="stop129" /><stop
         offset="0.8355911"
         style="stop-color:#FF7F00"
         id="stop131" /><stop
         offset="1"
         style="stop-color:#FF6D00"
         id="stop133" /></linearGradient><path
       style="fill:url(#SVGID_4_);"
       d="M15.3041992,6.9174805l4.3110352,6.5175781l0.0698242-7.5756836   C19.6850586,5.859375,17.5786133,5.0019531,15.3041992,6.9174805z"
       id="path135" /><linearGradient
       id="SVGID_5_"
       gradientUnits="userSpaceOnUse"
       x1="22.0859375"
       y1="7.0517578"
       x2="21.4947662"
       y2="13.1849089"
       gradientTransform="matrix(0.997 0.0775 -0.0775 0.997 1.2095993 -1.6600418)"><stop
         offset="0"
         style="stop-color:#FF9900"
         id="stop138" /><stop
         offset="0.3897758"
         style="stop-color:#FF9600"
         id="stop140" /><stop
         offset="0.6330804"
         style="stop-color:#FF8E00"
         id="stop142" /><stop
         offset="0.8355911"
         style="stop-color:#FF7F00"
         id="stop144" /><stop
         offset="1"
         style="stop-color:#FF6D00"
         id="stop146" /></linearGradient><path
       style="fill:url(#SVGID_5_);"
       d="M20.3896484,5.8037109l-0.7744141,7.6313477l5.359375-5.0673828   C24.9746094,8.3676758,23.4956055,5.7714844,20.3896484,5.8037109z"
       id="path148" /><linearGradient
       id="SVGID_6_"
       gradientUnits="userSpaceOnUse"
       x1="26.3417969"
       y1="11.1806641"
       x2="18.0587044"
       y2="13.152523"
       gradientTransform="matrix(0.997 0.0775 -0.0775 0.997 1.2095993 -1.6600418)"><stop
         offset="0"
         style="stop-color:#FF9900"
         id="stop151" /><stop
         offset="0.3897758"
         style="stop-color:#FF9600"
         id="stop153" /><stop
         offset="0.6330804"
         style="stop-color:#FF8E00"
         id="stop155" /><stop
         offset="0.8355911"
         style="stop-color:#FF7F00"
         id="stop157" /><stop
         offset="1"
         style="stop-color:#FF6D00"
         id="stop159" /></linearGradient><path
       style="fill:url(#SVGID_6_);"
       d="M19.6152344,13.4350586l5.6743164-4.3422852c0,0,2.6865234,0.7070313,2.1342773,4.9501953   L19.6152344,13.4350586z"
       id="path161" /></g><path
     style="fill:#2CA4DE;"
     d="M31.5976563,46.8935547c-3.2241211,0-7.9067383-1.6699219-11.0986328-5.4003906  c-2.972168-3.4726563-4.1079102-8.0927734-3.2841797-13.359375c2.074707-13.2636719,5.15625-18.1728516,5.2866211-18.3754883  l0.8413086,0.5400391c-0.0307617,0.0483398-3.1044922,4.9775391-5.1396484,17.9897461  c-0.7773438,4.9697266,0.2792969,9.3115234,3.0556641,12.5556641c2.9853516,3.4882813,7.34375,5.0498047,10.3388672,5.0498047  c3.3818359,0,8.2060547-1.6884766,11.3564453-5.4589844c2.6787109-3.2060547,3.6425781-7.4013672,2.7871094-12.1347656  l0.984375-0.1777344c0.9091797,5.0341797-0.1298828,9.5136719-3.0039063,12.953125  C40.3632813,45.0947266,35.2128906,46.8935547,31.5976563,46.8935547z"
     id="path163" /><g
     id="g165"><path
       style="fill:#C6C7C8;"
       d="M30.9970703,39.1542969H27.734375l10.03125-33.1547852   c0.0839844-0.1855469,0.609375-1.1489258,2.4511719-1.4360352c1.6308594-0.2539063,10.7802734-1.2802734,11.1689453-1.3242188   l0.4472656-0.0498047l0.6289063,2.8666992l-0.5732422,0.043457C48.0205078,6.394043,41.6582031,6.9438477,41.0507813,7.1660156   c-0.6054688,0.2705078-0.9853516,0.4511719-1.0380859,0.6938477c-0.1074219,0.4936523-8.0107422,27.8188477-8.9111328,30.9331055   L30.9970703,39.1542969z M29.081543,38.1542969h1.1635742c3.0478516-10.5361328,8.6660156-29.9863281,8.7919922-30.5117188   c0.1621094-0.7451172,0.8681641-1.0600586,1.6142578-1.3930664c0.6962891-0.3105469,7.6708984-0.8774414,10.5878906-1.1030273   l-0.1894531-0.862793c-1.9023438,0.2143555-9.2724609,1.0488281-10.6787109,1.2680664   c-1.3203125,0.2055664-1.6708984,0.8007813-1.6845703,0.8261719L29.081543,38.1542969z"
       id="path167" /><linearGradient
       id="SVGID_7_"
       gradientUnits="userSpaceOnUse"
       x1="30.1074219"
       y1="9.0727539"
       x2="61.1753731"
       y2="47.4354668"><stop
         offset="0"
         style="stop-color:#FFFFFF"
         id="stop170" /><stop
         offset="0.1358306"
         style="stop-color:#FBFCFC"
         id="stop172" /><stop
         offset="0.2582493"
         style="stop-color:#F0F1F4"
         id="stop174" /><stop
         offset="0.3755133"
         style="stop-color:#DEDFE5"
         id="stop176" /><stop
         offset="0.4895882"
         style="stop-color:#C4C7D1"
         id="stop178" /><stop
         offset="0.6003014"
         style="stop-color:#A3A7B8"
         id="stop180" /><stop
         offset="0.69697"
         style="stop-color:#80859C"
         id="stop182" /><stop
         offset="0.7013986"
         style="stop-color:#898EA3"
         id="stop184" /><stop
         offset="0.7194595"
         style="stop-color:#A8ACBC"
         id="stop186" /><stop
         offset="0.7399051"
         style="stop-color:#C4C6D1"
         id="stop188" /><stop
         offset="0.7629902"
         style="stop-color:#DADBE2"
         id="stop190" /><stop
         offset="0.7899505"
         style="stop-color:#EBEBEF"
         id="stop192" /><stop
         offset="0.8233091"
         style="stop-color:#F6F7F8"
         id="stop194" /><stop
         offset="0.8701028"
         style="stop-color:#FDFDFE"
         id="stop196" /><stop
         offset="1"
         style="stop-color:#FFFFFF"
         id="stop198" /></linearGradient><path
       style="fill:url(#SVGID_7_);"
       d="M28.4082031,38.6542969l9.8359375-32.5097656c0,0,0.4111328-0.831543,2.0498047-1.0869141   s11.1474609-1.3212891,11.1474609-1.3212891l0.4091797,1.8647461c0,0-10.2695313,0.78125-10.9951172,1.1049805   s-1.2236328,0.5551758-1.3310547,1.046875s-8.9033203,30.9013672-8.9033203,30.9013672H28.4082031z"
       id="path200" /></g><linearGradient
     id="SVGID_8_"
     gradientUnits="userSpaceOnUse"
     x1="31.987793"
     y1="17.4589844"
     x2="31.9877911"
     y2="44.1393738"><stop
       offset="0"
       style="stop-color:#FFEC00"
       id="stop203" /><stop
       offset="0.339394"
       style="stop-color:#FFC73F"
       id="stop205" /><stop
       offset="0.4309295"
       style="stop-color:#FDC13B"
       id="stop207" /><stop
       offset="0.5548466"
       style="stop-color:#F7B02F"
       id="stop209" /><stop
       offset="0.6972885"
       style="stop-color:#EC931D"
       id="stop211" /><stop
       offset="0.8525014"
       style="stop-color:#DE6C03"
       id="stop213" /><stop
       offset="0.866667"
       style="stop-color:#DD6800"
       id="stop215" /><stop
       offset="0.8884667"
       style="stop-color:#DF6201"
       id="stop217" /><stop
       offset="0.9181683"
       style="stop-color:#E55004"
       id="stop219" /><stop
       offset="0.9524229"
       style="stop-color:#EE3409"
       id="stop221" /><stop
       offset="0.9898081"
       style="stop-color:#FB0C10"
       id="stop223" /><stop
       offset="1"
       style="stop-color:#FF0012"
       id="stop225" /></linearGradient><path
     style="fill:url(#SVGID_8_);"
     d="M21.0576172,19.1801758c0,0-2.1396484,8.7543945-1.9755859,12.8198242  S22.2949219,44.7275391,32,44.7275391s12.9033203-9.1533203,12.9033203-12.7294922  c0-5.3408203-1.9609375-12.8178711-1.9609375-12.8178711H21.0576172z"
     id="path227" /><linearGradient
     id="SVGID_9_"
     gradientUnits="userSpaceOnUse"
     x1="31.9995117"
     y1="17.2949219"
     x2="31.9995117"
     y2="37.8823318"><stop
       offset="0"
       style="stop-color:#FFEC00"
       id="stop230" /><stop
       offset="0.0108414"
       style="stop-color:#FFE904"
       id="stop232" /><stop
       offset="0.0872673"
       style="stop-color:#FFDA1E"
       id="stop234" /><stop
       offset="0.1661896"
       style="stop-color:#FFD030"
       id="stop236" /><stop
       offset="0.248458"
       style="stop-color:#FFC93B"
       id="stop238" /><stop
       offset="0.339394"
       style="stop-color:#FFC73F"
       id="stop240" /><stop
       offset="0.3562556"
       style="stop-color:#FDC23C"
       id="stop242" /><stop
       offset="0.5101254"
       style="stop-color:#EF9B22"
       id="stop244" /><stop
       offset="0.6515811"
       style="stop-color:#E57F0F"
       id="stop246" /><stop
       offset="0.7749914"
       style="stop-color:#DF6E04"
       id="stop248" /><stop
       offset="0.866667"
       style="stop-color:#DD6800"
       id="stop250" /><stop
       offset="0.8884667"
       style="stop-color:#DF6201"
       id="stop252" /><stop
       offset="0.9181683"
       style="stop-color:#E55004"
       id="stop254" /><stop
       offset="0.9524229"
       style="stop-color:#EE3409"
       id="stop256" /><stop
       offset="0.9898081"
       style="stop-color:#FB0C10"
       id="stop258" /><stop
       offset="1"
       style="stop-color:#FF0012"
       id="stop260" /></linearGradient><ellipse
     style="fill:url(#SVGID_9_);"
     cx="32"
     cy="19.1801758"
     rx="10.9423828"
     ry="2.7871094"
     id="ellipse262" /><linearGradient
     id="SVGID_10_"
     gradientUnits="userSpaceOnUse"
     x1="21.640625"
     y1="15.8916016"
     x2="24.5093575"
     y2="40.5170593"><stop
       offset="0"
       style="stop-color:#FFFFFF"
       id="stop265" /><stop
       offset="0.8658996"
       style="stop-color:#FFFFFF;stop-opacity:0.1341004"
       id="stop267" /><stop
       offset="1"
       style="stop-color:#FFFFFF;stop-opacity:0"
       id="stop269" /></linearGradient><path
     style="fill:url(#SVGID_10_);"
     d="M22.6801758,15.855957l2.4125977,0.6557617c0,0-2.5698242,11.5810547-2.4321289,15.4882813  c0.128418,3.6367188,1.7412109,7.9912109,2.1660156,8.5654297l-2.4667969-1.1230469c0,0-2.0805664-2.5322266-2.1303711-7.4882813  C20.1860352,27.5869141,22.6801758,15.855957,22.6801758,15.855957z"
     id="path271" /><linearGradient
     id="SVGID_11_"
     gradientUnits="userSpaceOnUse"
     x1="31.4189453"
     y1="25.4365234"
     x2="47.3207855"
     y2="36.5014381"><stop
       offset="0"
       style="stop-color:#FFEC00"
       id="stop274" /><stop
       offset="0.339394"
       style="stop-color:#FFC73F"
       id="stop276" /><stop
       offset="0.4309295"
       style="stop-color:#FDC13B"
       id="stop278" /><stop
       offset="0.5548466"
       style="stop-color:#F7B02F"
       id="stop280" /><stop
       offset="0.6972885"
       style="stop-color:#EC931D"
       id="stop282" /><stop
       offset="0.8525014"
       style="stop-color:#DE6C03"
       id="stop284" /><stop
       offset="0.866667"
       style="stop-color:#DD6800"
       id="stop286" /><stop
       offset="0.8884667"
       style="stop-color:#DF6201"
       id="stop288" /><stop
       offset="0.9181683"
       style="stop-color:#E55004"
       id="stop290" /><stop
       offset="0.9524229"
       style="stop-color:#EE3409"
       id="stop292" /><stop
       offset="0.9898081"
       style="stop-color:#FB0C10"
       id="stop294" /><stop
       offset="1"
       style="stop-color:#FF0012"
       id="stop296" /></linearGradient><path
     style="fill:url(#SVGID_11_);"
     d="M44.0654297,24.347168c0,0,1.4863281,6.9331055,0.5888672,9.6879883  s-2.0107422,5.3603516-4.2421875,7.5478516C40.4121094,41.5830078,45.0322266,36.9726563,44.0654297,24.347168z"
     id="path298" /><linearGradient
     id="SVGID_12_"
     gradientUnits="userSpaceOnUse"
     x1="6.9663086"
     y1="23.2724609"
     x2="26.7010784"
     y2="37.0044289"><stop
       offset="0"
       style="stop-color:#FFEC00"
       id="stop301" /><stop
       offset="0.339394"
       style="stop-color:#FFC73F"
       id="stop303" /><stop
       offset="0.4309295"
       style="stop-color:#FDC13B"
       id="stop305" /><stop
       offset="0.5548466"
       style="stop-color:#F7B02F"
       id="stop307" /><stop
       offset="0.6972885"
       style="stop-color:#EC931D"
       id="stop309" /><stop
       offset="0.8525014"
       style="stop-color:#DE6C03"
       id="stop311" /><stop
       offset="0.866667"
       style="stop-color:#DD6800"
       id="stop313" /><stop
       offset="0.8884667"
       style="stop-color:#DF6201"
       id="stop315" /><stop
       offset="0.9181683"
       style="stop-color:#E55004"
       id="stop317" /><stop
       offset="0.9524229"
       style="stop-color:#EE3409"
       id="stop319" /><stop
       offset="0.9898081"
       style="stop-color:#FB0C10"
       id="stop321" /><stop
       offset="1"
       style="stop-color:#FF0012"
       id="stop323" /></linearGradient><path
     style="fill:url(#SVGID_12_);"
     d="M19.1669922,32.9648438c-0.1186523-3.5708008,0.4448242-6.6606445,0.4448242-6.6606445  s-0.1201172,9.4282227,1.8061523,12.7915039C21.4179688,39.0957031,19.2519531,35.5195313,19.1669922,32.9648438z"
     id="path325" /><ellipse
     transform="matrix(0.8739198 -0.4860701 0.4860701 0.8739198 -5.2074203 22.3152218)"
     style="fill:#FFFFFF;"
     cx="40.4116211"
     cy="21.1955566"
     rx="1.2129929"
     ry="1.6353694"
     id="ellipse327" /><ellipse
     transform="matrix(0.9210778 -0.3893787 0.3893787 0.9210778 -5.891819 17.5760689)"
     style="fill:#FFFFFF;"
     cx="40.4116211"
     cy="23.3222656"
     rx="0.7925286"
     ry="0.9923126"
     id="ellipse329" /><path
     style="fill:#2CA4DE;"
     d="M32,11.8554688c-4.7685547,0-9.0932617-0.9526367-9.7744141-1.8041992l0.8701172-0.6953125  C23.449707,9.6777344,26.8344727,10.7421875,32,10.7421875c5.3701172,0,8.2626953-0.6064453,8.6181641-0.9311523  c-0.0195313,0.0180664-0.0761719,0.097168-0.0761719,0.2177734h1.1132813  C41.6552734,11.6181641,35.6064453,11.8554688,32,11.8554688z"
     id="path331" /><path
     style="fill:#FFFFFF;"
     d="M38.0166016,56.8847656c0,0,3.4716797,0.6601563,3.7197266,2.1328125  s-7.1621094,2.3759766-7.1621094,2.3759766S45.5800781,59.7792969,38.0166016,56.8847656z"
     id="path333" /><g
     id="g335"><line
       style="fill:#FFFFFF;"
       x1="33.9199219"
       y1="20.5595703"
       x2="35.3466797"
       y2="15.7226563"
       id="line337" /><rect
       x="34.1333389"
       y="15.6196365"
       transform="matrix(0.9590539 0.2832236 -0.2832236 0.9590539 6.5560913 -9.0661602)"
       style="fill:#C6C7C8;"
       width="0.9999275"
       height="5.042953"
       id="rect339" /></g><g
     id="g341"><line
       style="fill:#FFFFFF;"
       x1="35.9697266"
       y1="20.1645508"
       x2="37.0498047"
       y2="16.3935547"
       id="line343" /><rect
       x="36.0099564"
       y="16.3177414"
       transform="matrix(0.9613025 0.2754952 -0.2754952 0.9613025 6.4486294 -9.3509102)"
       style="fill:#C6C7C8;"
       width="0.9996204"
       height="3.9226241"
       id="rect345" /></g><path
     style="fill:#FFFFFF;"
     d="M33.9199219,20.5595703c0,0,0.6611328,0.8530273,1.9345703,0l1.1953125-4.1660156  l-1.5654297-1.1289063L33.9199219,20.5595703z"
     id="path347" /><linearGradient
     id="SVGID_13_"
     gradientUnits="userSpaceOnUse"
     x1="33.3378906"
     y1="24.796875"
     x2="28.9583092"
     y2="44.8763771"><stop
       offset="0"
       style="stop-color:#FFEC00"
       id="stop350" /><stop
       offset="0.339394"
       style="stop-color:#FFC73F"
       id="stop352" /><stop
       offset="0.4309295"
       style="stop-color:#FDC13B"
       id="stop354" /><stop
       offset="0.5548466"
       style="stop-color:#F7B02F"
       id="stop356" /><stop
       offset="0.6972885"
       style="stop-color:#EC931D"
       id="stop358" /><stop
       offset="0.8525014"
       style="stop-color:#DE6C03"
       id="stop360" /><stop
       offset="0.866667"
       style="stop-color:#DD6800"
       id="stop362" /><stop
       offset="0.8884667"
       style="stop-color:#DF6201"
       id="stop364" /><stop
       offset="0.9181683"
       style="stop-color:#E55004"
       id="stop366" /><stop
       offset="0.9524229"
       style="stop-color:#EE3409"
       id="stop368" /><stop
       offset="0.9898081"
       style="stop-color:#FB0C10"
       id="stop370" /><stop
       offset="1"
       style="stop-color:#FF0012"
       id="stop372" /></linearGradient><path
     style="fill:url(#SVGID_13_);"
     d="M28.3837891,39.6191406c2.9931641-5.1933594,4.9306641-16.2958984,4.9306641-16.2958984  s0.8320313,0.8203125,1.9462891,0c0,0-2.3286133,13.7255859-4.706543,16.2958984  C30.1855469,40.0175781,29.1186523,41.5810547,28.3837891,39.6191406z"
     id="path374" /><path
     style="fill:#FFFFFF;"
     d="M35.1210938,57.4501953c0,0,2.0585938,0.1191406,3.0761719,0.4726563  s0.1054688,1.0029297-1.1347656,1.1503906c-1.2392578,0.1474609-2.6787109,0-2.6787109,0L35.1210938,57.4501953z"
     id="path376" /></svg>