<?xml version="1.0" encoding="utf-8"?>
<!-- Generator: Adobe Illustrator 15.0.2, SVG Export Plug-In . SVG Version: 6.00 Build 0)  -->
<!DOCTYPE svg PUBLIC "-//W3C//DTD SVG 1.1//EN" "http://www.w3.org/Graphics/SVG/1.1/DTD/svg11.dtd">
<svg version="1.1" id="レイヤー_1" xmlns="http://www.w3.org/2000/svg" xmlns:xlink="http://www.w3.org/1999/xlink" x="0px"
	 y="0px" width="64px" height="64px" viewBox="0 0 64 64" enable-background="new 0 0 64 64" xml:space="preserve">
<g>
	
		<linearGradient id="SVGID_1_" gradientUnits="userSpaceOnUse" x1="13.8584" y1="35.7686" x2="15.6598" y2="31.028" gradientTransform="matrix(0 1 -1 0 50.1051 10.2147)">
		<stop  offset="0" style="stop-color:#F9F9F9"/>
		<stop  offset="0.401" style="stop-color:#AEAEAE"/>
		<stop  offset="0.8094" style="stop-color:#676767"/>
		<stop  offset="1" style="stop-color:#4B4B4B"/>
	</linearGradient>
	
		<rect x="14.27" y="24.025" fill="url(#SVGID_1_)" stroke="#231815" stroke-width="0.4438" stroke-miterlimit="10" width="3.318" height="1.306"/>
	
		<linearGradient id="SVGID_2_" gradientUnits="userSpaceOnUse" x1="14.1719" y1="36.1777" x2="15.9725" y2="31.4391" gradientTransform="matrix(0.1936 0.981 -0.981 0.1936 46.1817 5.8813)">
		<stop  offset="0" style="stop-color:#F9F9F9"/>
		<stop  offset="0.401" style="stop-color:#AEAEAE"/>
		<stop  offset="0.8094" style="stop-color:#676767"/>
		<stop  offset="1" style="stop-color:#4B4B4B"/>
	</linearGradient>
	<polygon fill="url(#SVGID_2_)" stroke="#231815" stroke-width="0.4438" stroke-miterlimit="10" points="14.237,28.141 
		13.985,26.861 17.241,26.219 17.492,27.499 	"/>
	
		<linearGradient id="SVGID_3_" gradientUnits="userSpaceOnUse" x1="24.5845" y1="36.5518" x2="15.8035" y2="36.5518" gradientTransform="matrix(0.7071 0.7071 -0.7071 0.7071 32 -13.255)">
		<stop  offset="0" style="stop-color:#FFE01F"/>
		<stop  offset="0.5009" style="stop-color:#FFC00E"/>
		<stop  offset="1" style="stop-color:#FFA400"/>
	</linearGradient>
	<path fill="url(#SVGID_3_)" stroke="#231815" stroke-width="0.4438" stroke-miterlimit="10" d="M21.25,21.829
		c0,0-4.83,2.061-2.615,5.297l0.403,4.158c0,0-7.042-5.565,0.537-11.13L21.25,21.829z"/>
	<g>
		
			<linearGradient id="SVGID_4_" gradientUnits="userSpaceOnUse" x1="34.6641" y1="29.1694" x2="37.8145" y2="27.754" gradientTransform="matrix(0.7071 0.7071 -0.7071 0.7071 32 -13.255)">
			<stop  offset="0" style="stop-color:#F9F9F9"/>
			<stop  offset="0.401" style="stop-color:#AEAEAE"/>
			<stop  offset="0.8094" style="stop-color:#676767"/>
			<stop  offset="1" style="stop-color:#4B4B4B"/>
		</linearGradient>
		<polygon fill="url(#SVGID_4_)" stroke="#231815" stroke-width="0.4209" stroke-miterlimit="10" points="35.956,33.979 
			35.285,33.308 37.982,30.611 38.652,31.282 		"/>
		<g>
			
				<linearGradient id="SVGID_5_" gradientUnits="userSpaceOnUse" x1="34.4277" y1="27.3696" x2="38.2814" y2="25.6383" gradientTransform="matrix(0.7071 0.7071 -0.7071 0.7071 32 -13.255)">
				<stop  offset="0" style="stop-color:#F9F9F9"/>
				<stop  offset="0.401" style="stop-color:#AEAEAE"/>
				<stop  offset="0.8094" style="stop-color:#676767"/>
				<stop  offset="1" style="stop-color:#4B4B4B"/>
			</linearGradient>
			<path fill="url(#SVGID_5_)" d="M39.424,32.052c-0.269,0.268-0.716,0.258-0.996-0.022l-1.195-1.195
				c-0.28-0.28-0.29-0.728-0.021-0.996c0.268-0.268,0.715-0.258,0.995,0.022l1.195,1.195C39.682,31.336,39.691,31.785,39.424,32.052
				z"/>
			<path fill="none" stroke="#231815" stroke-width="0.4209" stroke-miterlimit="10" d="M39.424,32.052
				c-0.269,0.268-0.716,0.258-0.996-0.022l-1.195-1.195c-0.28-0.28-0.29-0.728-0.021-0.996c0.268-0.268,0.715-0.258,0.995,0.022
				l1.195,1.195C39.682,31.336,39.691,31.785,39.424,32.052z"/>
		</g>
	</g>
	<g>
		
			<linearGradient id="SVGID_6_" gradientUnits="userSpaceOnUse" x1="38.0068" y1="29.1694" x2="41.1566" y2="27.7543" gradientTransform="matrix(0.7071 0.7071 -0.7071 0.7071 32 -13.255)">
			<stop  offset="0" style="stop-color:#F9F9F9"/>
			<stop  offset="0.401" style="stop-color:#AEAEAE"/>
			<stop  offset="0.8094" style="stop-color:#676767"/>
			<stop  offset="1" style="stop-color:#4B4B4B"/>
		</linearGradient>
		<polygon fill="url(#SVGID_6_)" stroke="#231815" stroke-width="0.4209" stroke-miterlimit="10" points="38.319,36.342 
			37.648,35.671 40.345,32.974 41.016,33.645 		"/>
		<g>
			
				<linearGradient id="SVGID_7_" gradientUnits="userSpaceOnUse" x1="37.7695" y1="27.3691" x2="41.6238" y2="25.6375" gradientTransform="matrix(0.7071 0.7071 -0.7071 0.7071 32 -13.255)">
				<stop  offset="0" style="stop-color:#F9F9F9"/>
				<stop  offset="0.401" style="stop-color:#AEAEAE"/>
				<stop  offset="0.8094" style="stop-color:#676767"/>
				<stop  offset="1" style="stop-color:#4B4B4B"/>
			</linearGradient>
			<path fill="url(#SVGID_7_)" d="M41.787,34.416c-0.269,0.268-0.716,0.258-0.996-0.022l-1.195-1.195
				c-0.28-0.279-0.29-0.728-0.021-0.995c0.268-0.268,0.715-0.258,0.995,0.022l1.195,1.195C42.045,33.7,42.055,34.147,41.787,34.416z
				"/>
			<path fill="none" stroke="#231815" stroke-width="0.4209" stroke-miterlimit="10" d="M41.787,34.416
				c-0.269,0.268-0.716,0.258-0.996-0.022l-1.195-1.195c-0.28-0.279-0.29-0.728-0.021-0.995c0.268-0.268,0.715-0.258,0.995,0.022
				l1.195,1.195C42.045,33.7,42.055,34.147,41.787,34.416z"/>
		</g>
	</g>
	<g>
		
			<linearGradient id="SVGID_8_" gradientUnits="userSpaceOnUse" x1="52.9375" y1="32.8237" x2="63.5817" y2="28.0416" gradientTransform="matrix(0.7071 0.7071 -0.7071 0.7071 32 -13.255)">
			<stop  offset="0" style="stop-color:#F9F9F9"/>
			<stop  offset="0.401" style="stop-color:#AEAEAE"/>
			<stop  offset="0.8094" style="stop-color:#676767"/>
			<stop  offset="1" style="stop-color:#4B4B4B"/>
		</linearGradient>
		<polygon fill="url(#SVGID_8_)" stroke="#231815" stroke-width="0.4209" stroke-miterlimit="10" points="52.434,52.199 
			46.465,46.23 47.337,45.359 53.305,51.327 		"/>
		
			<linearGradient id="SVGID_9_" gradientUnits="userSpaceOnUse" x1="57.4307" y1="31.5039" x2="59.9153" y2="30.3876" gradientTransform="matrix(0.7071 0.7071 -0.7071 0.7071 32 -13.255)">
			<stop  offset="0" style="stop-color:#F9F9F9"/>
			<stop  offset="0.401" style="stop-color:#AEAEAE"/>
			<stop  offset="0.8094" style="stop-color:#676767"/>
			<stop  offset="1" style="stop-color:#4B4B4B"/>
		</linearGradient>
		<polygon fill="url(#SVGID_9_)" stroke="#231815" stroke-width="0.4209" stroke-miterlimit="10" points="50.619,51.197 
			49.947,50.526 51.758,48.717 52.429,49.388 		"/>
		
			<linearGradient id="SVGID_10_" gradientUnits="userSpaceOnUse" x1="60.7559" y1="31.9736" x2="64.7527" y2="30.178" gradientTransform="matrix(0.7071 0.7071 -0.7071 0.7071 32 -13.255)">
			<stop  offset="0" style="stop-color:#F9F9F9"/>
			<stop  offset="0.401" style="stop-color:#AEAEAE"/>
			<stop  offset="0.8094" style="stop-color:#676767"/>
			<stop  offset="1" style="stop-color:#4B4B4B"/>
		</linearGradient>
		<path fill="url(#SVGID_10_)" stroke="#231815" stroke-width="0.4209" stroke-miterlimit="10" d="M53.703,54.282
			c0,0-1.271-1.16-1.27-2.083c0.001-0.641,0.231-0.871,0.871-0.872c0.924,0,2.209,1.146,2.209,1.146L53.703,54.282z"/>
	</g>
	<g>
		
			<linearGradient id="SVGID_11_" gradientUnits="userSpaceOnUse" x1="41.2783" y1="29.1694" x2="44.4294" y2="27.7537" gradientTransform="matrix(0.7071 0.7071 -0.7071 0.7071 32 -13.255)">
			<stop  offset="0" style="stop-color:#F9F9F9"/>
			<stop  offset="0.401" style="stop-color:#AEAEAE"/>
			<stop  offset="0.8094" style="stop-color:#676767"/>
			<stop  offset="1" style="stop-color:#4B4B4B"/>
		</linearGradient>
		<polygon fill="url(#SVGID_11_)" stroke="#231815" stroke-width="0.4209" stroke-miterlimit="10" points="40.633,38.655 
			39.962,37.984 42.658,35.288 43.33,35.959 		"/>
		<g>
			
				<linearGradient id="SVGID_12_" gradientUnits="userSpaceOnUse" x1="41.043" y1="27.3687" x2="44.8947" y2="25.6382" gradientTransform="matrix(0.7071 0.7071 -0.7071 0.7071 32 -13.255)">
				<stop  offset="0" style="stop-color:#F9F9F9"/>
				<stop  offset="0.401" style="stop-color:#AEAEAE"/>
				<stop  offset="0.8094" style="stop-color:#676767"/>
				<stop  offset="1" style="stop-color:#4B4B4B"/>
			</linearGradient>
			<path fill="url(#SVGID_12_)" d="M44.1,36.729c-0.268,0.269-0.715,0.259-0.995-0.021l-1.194-1.193
				c-0.28-0.28-0.29-0.728-0.021-0.996c0.268-0.268,0.715-0.258,0.995,0.022l1.194,1.193C44.358,36.014,44.368,36.461,44.1,36.729z"
				/>
			<path fill="none" stroke="#231815" stroke-width="0.4209" stroke-miterlimit="10" d="M44.1,36.729
				c-0.268,0.269-0.715,0.259-0.995-0.021l-1.194-1.193c-0.28-0.28-0.29-0.728-0.021-0.996c0.268-0.268,0.715-0.258,0.995,0.022
				l1.194,1.193C44.358,36.014,44.368,36.461,44.1,36.729z"/>
		</g>
	</g>
	
		<linearGradient id="SVGID_13_" gradientUnits="userSpaceOnUse" x1="72.6182" y1="31.8345" x2="12.9891" y2="31.8345" gradientTransform="matrix(0.7071 0.7071 -0.7071 0.7071 32 -13.255)">
		<stop  offset="0" style="stop-color:#FFE01F"/>
		<stop  offset="0.5009" style="stop-color:#FFC00E"/>
		<stop  offset="1" style="stop-color:#FFA400"/>
	</linearGradient>
	<path fill="url(#SVGID_13_)" stroke="#231815" stroke-width="0.4438" stroke-miterlimit="10" d="M47.679,44.481
		c-4.022-4.022-5.698-5.698-5.698-5.698S27.419,24.879,23.635,19.385c-2.846-4.128-3.731-12.198-3.731-12.198L8.454,17.904
		c4.967,1.028,9.403,2.646,12.164,4.499c5.54,3.719,19.402,18.341,19.402,18.341s2.914,2.915,6.2,6.2
		c1.811,1.811-1.809,5.957-4.021,3.746c-0.491-0.491-1.298-1.299-2.31-2.31c1.476-1.475,0.672-4.155-0.737-5.564
		c-1.408-1.408-11.332-11.332-15.823-15.823c-4.761-4.761-7.644,0.938-4.291,4.291c2.547,2.547,17.097,17.097,21.389,21.389
		C44.986,57.232,52.641,49.443,47.679,44.481z M20.916,29.406c-1.14-1.14-0.402-2.951,1.274-1.274
		c1.676,1.676,14.081,14.081,15.823,15.824c1.743,1.743,0.403,2.95,0.403,2.95C32.055,40.546,20.916,29.406,20.916,29.406z"/>
	<path fill="#3D2407" d="M19.242,10.897c0,0-0.271,4.361,4.221,9.524c4.493,5.163,24.143,25.206,24.143,25.206
		s-22.688-22.37-25.913-26.714c-3.162-4.261-4.867-4.995-4.867-4.995S18.082,12.852,19.242,10.897z"/>
	<path fill="#FFF4B3" d="M14.881,15.863l1.644-1.644c0,0,2.639,2.117,3.676,3.382c7.313,8.914,27.283,28.147,27.283,28.147
		S23.151,22.343,19.445,18.338C17.625,16.373,14.881,15.863,14.881,15.863z"/>
	
		<linearGradient id="SVGID_14_" gradientUnits="userSpaceOnUse" x1="37.4531" y1="35.3457" x2="35.055" y2="35.3457" gradientTransform="matrix(0.7071 0.7071 -0.7071 0.7071 32 -13.255)">
		<stop  offset="0" style="stop-color:#FFE01F"/>
		<stop  offset="0.5009" style="stop-color:#FFC00E"/>
		<stop  offset="1" style="stop-color:#FFA400"/>
	</linearGradient>
	<polygon fill="url(#SVGID_14_)" stroke="#231815" stroke-width="0.4506" stroke-miterlimit="10" points="28.559,42.28 
		27.083,40.805 36.073,31.815 37.549,33.291 	"/>
	
		<linearGradient id="SVGID_15_" gradientUnits="userSpaceOnUse" x1="40.7236" y1="35.3467" x2="38.3289" y2="35.3467" gradientTransform="matrix(0.7071 0.7071 -0.7071 0.7071 32 -13.255)">
		<stop  offset="0" style="stop-color:#FFE01F"/>
		<stop  offset="0.5009" style="stop-color:#FFC00E"/>
		<stop  offset="1" style="stop-color:#FFA400"/>
	</linearGradient>
	<polygon fill="url(#SVGID_15_)" stroke="#231815" stroke-width="0.4506" stroke-miterlimit="10" points="30.872,44.594 
		29.397,43.12 38.388,34.13 39.861,35.604 	"/>
	
		<linearGradient id="SVGID_16_" gradientUnits="userSpaceOnUse" x1="43.9941" y1="35.3457" x2="41.5983" y2="35.3457" gradientTransform="matrix(0.7071 0.7071 -0.7071 0.7071 32 -13.255)">
		<stop  offset="0" style="stop-color:#FFE01F"/>
		<stop  offset="0.5009" style="stop-color:#FFC00E"/>
		<stop  offset="1" style="stop-color:#FFA400"/>
	</linearGradient>
	<polygon fill="url(#SVGID_16_)" stroke="#231815" stroke-width="0.4506" stroke-miterlimit="10" points="33.185,46.906 
		31.709,45.432 40.699,36.441 42.175,37.916 	"/>
	
		<linearGradient id="SVGID_17_" gradientUnits="userSpaceOnUse" x1="7.915" y1="30.6025" x2="1.846" y2="30.6025" gradientTransform="matrix(0.7071 0.7071 -0.7071 0.7071 32 -13.255)">
		<stop  offset="0" style="stop-color:#FFE01F"/>
		<stop  offset="0.5009" style="stop-color:#FFC00E"/>
		<stop  offset="1" style="stop-color:#FFA400"/>
	</linearGradient>
	<path fill="url(#SVGID_17_)" stroke="#231815" stroke-width="0.4438" stroke-miterlimit="10" d="M15.925,13.949
		c-3.293,3.293-7.067,4.86-8.428,3.499c-1.361-1.361,0.205-5.136,3.498-8.429c3.294-3.294,7.068-4.86,8.43-3.499
		C20.786,6.881,19.219,10.655,15.925,13.949z"/>
	<path fill="#FFF4B3" d="M7.993,16.971c-0.892-0.54-0.319-3.355,2.127-5.87c0,0-1.043,1.639,0.18,3.197
		c1.223,1.559,3.569,0.552,2.162,1.491C11.053,16.728,9.126,17.657,7.993,16.971z"/>
	<path fill="none" stroke="#231815" stroke-width="0.4438" stroke-miterlimit="10" d="M18.54,6.244c0,0,1.814,2.335-3.084,7.234
		c-4.899,4.899-7.194,3.762-7.463,3.493"/>
</g>
</svg>
