<?xml version="1.0" encoding="utf-8"?>
<!-- Generator: Adobe Illustrator 15.0.2, SVG Export Plug-In . SVG Version: 6.00 Build 0)  -->
<!DOCTYPE svg PUBLIC "-//W3C//DTD SVG 1.1//EN" "http://www.w3.org/Graphics/SVG/1.1/DTD/svg11.dtd">
<svg version="1.1" id="レイヤー_1" xmlns="http://www.w3.org/2000/svg" xmlns:xlink="http://www.w3.org/1999/xlink" x="0px"
	 y="0px" width="64px" height="64px" viewBox="0 0 64 64" style="enable-background:new 0 0 64 64;" xml:space="preserve">
<g>
	
		<radialGradient id="SVGID_1_" cx="15.4384766" cy="47.5800781" r="15.0208225" gradientTransform="matrix(1.2630692 0.0320097 -0.007206 0.2842778 8.5431929 42.6443939)" gradientUnits="userSpaceOnUse">
		<stop  offset="0" style="stop-color:#1F1F1F"/>
		<stop  offset="1" style="stop-color:#0E0E0E;stop-opacity:0"/>
	</radialGradient>
	<path style="fill:url(#SVGID_1_);" d="M46.8847656,57.1513672c-0.0605469,2.5507813-8.7060547,4.4033203-19.3022461,4.1357422
		C16.9863281,61.0166016,8.449707,58.7304688,8.5151367,56.1806641c0.0649414-2.5546875,8.7050781-4.40625,19.3037109-4.1386719
		C38.4140625,52.3125,46.9482422,54.5986328,46.8847656,57.1513672z"/>
	<g>
		<g>
			<path style="fill:#E5B120;" d="M16.6118164,55.5634766l3.6879883-3.5136719l6.2451172,1.0292969l2.1416016-3.8691406
				l-2.9418945-8.3632813l1.2651367-0.8515625l4.4643555,11.3886719l-3.1972656,1.6992188l-0.5444336,3.2519531
				l-1.8334961-1.4589844C25.8989258,54.8759766,22.8881836,55.0986328,16.6118164,55.5634766z"/>
			<path style="fill:#190901;" d="M27.7324219,56.890625c-0.1240234,0-0.2460938-0.0410156-0.3461914-0.1210938
				l-1.6630859-1.3232422l-9.0703125,0.671875c-0.2333984,0.0146484-0.4541016-0.1142578-0.5493164-0.3291016
				s-0.0449219-0.4658203,0.125-0.6279297l3.6879883-3.5136719c0.1264648-0.1210938,0.3037109-0.1748047,0.4736328-0.1464844
				l5.8583984,0.9658203l1.8310547-3.3076172l-2.859375-8.1279297c-0.0839844-0.2392578,0.0039063-0.5039063,0.2138672-0.6455078
				l1.2651367-0.8515625c0.140625-0.09375,0.3168945-0.1201172,0.4760742-0.0693359
				c0.1611328,0.0498047,0.2905273,0.1699219,0.3520508,0.3271484l4.4643555,11.3886719
				c0.1030273,0.2626953-0.0073242,0.5615234-0.2568359,0.6943359l-2.9550781,1.5703125l-0.4990234,2.9814453
				c-0.0327148,0.1943359-0.1655273,0.3564453-0.3491211,0.4267578
				C27.8671875,56.8789063,27.7993164,56.890625,27.7324219,56.890625z M25.8989258,54.3203125
				c0.1254883,0,0.2475586,0.0419922,0.3461914,0.1210938L27.3398438,55.3125l0.3886719-2.3212891
				c0.0288086-0.1708984,0.1347656-0.3183594,0.2875977-0.3994141L30.7758789,51.125l-4.0307617-10.28125l-0.3334961,0.2236328
				l2.7993164,7.9580078c0.0527344,0.1494141,0.0385742,0.3144531-0.0380859,0.4541016L27.03125,53.3486328
				c-0.1142578,0.2050781-0.3447266,0.3134766-0.5766602,0.2792969l-5.9716797-0.984375l-2.362793,2.2509766l7.737793-0.5732422
				C25.871582,54.3203125,25.8852539,54.3203125,25.8989258,54.3203125z"/>
		</g>
		<g>
			<path style="fill:#E5B120;" d="M21.0454102,58.4619141l3.6879883-3.5136719l6.2451172,1.0292969l2.140625-3.8691406
				l-2.940918-8.3632813l1.2651367-0.8515625L35.90625,54.2822266l-3.1958008,1.6992188l-0.5444336,3.2519531l-1.8330078-1.4589844
				C30.3330078,57.7744141,27.3217773,57.9970703,21.0454102,58.4619141z"/>
			<path style="fill:#190901;" d="M32.1660156,59.7890625c-0.1240234,0-0.2460938-0.0410156-0.3461914-0.1210938
				l-1.6625977-1.3232422l-9.0708008,0.671875c-0.234375,0.0126953-0.4536133-0.1142578-0.5493164-0.3291016
				c-0.0952148-0.2148438-0.0449219-0.4658203,0.125-0.6279297l3.6879883-3.5136719
				c0.1264648-0.1201172,0.2998047-0.1738281,0.4736328-0.1464844l5.8583984,0.9658203l1.8305664-3.3076172l-2.8588867-8.1279297
				c-0.0839844-0.2392578,0.0039063-0.5039063,0.2138672-0.6455078l1.2651367-0.8515625
				c0.1411133-0.09375,0.315918-0.1201172,0.4760742-0.0693359c0.1611328,0.0498047,0.2905273,0.1708984,0.3520508,0.3271484
				l4.4628906,11.3886719c0.1025391,0.2626953-0.0078125,0.5615234-0.2568359,0.6943359L33.2128906,56.34375l-0.4985352,2.9814453
				c-0.0327148,0.1943359-0.1655273,0.3564453-0.3491211,0.4267578
				C32.3007813,59.7773438,32.2329102,59.7890625,32.1660156,59.7890625z M30.3330078,57.21875
				c0.1254883,0,0.2475586,0.0419922,0.3461914,0.1210938l1.0942383,0.8710938l0.3886719-2.3212891
				c0.0288086-0.1708984,0.1347656-0.3183594,0.2875977-0.3994141l2.7583008-1.4667969l-4.0292969-10.28125l-0.3334961,0.2236328
				l2.7983398,7.9580078c0.0527344,0.1494141,0.0390625,0.3144531-0.0380859,0.4541016l-2.140625,3.8691406
				c-0.1142578,0.2050781-0.3466797,0.3154297-0.5766602,0.2792969l-5.9716797-0.984375l-2.362793,2.2509766l7.7382813-0.5732422
				C30.3056641,57.21875,30.3193359,57.21875,30.3330078,57.21875z"/>
		</g>
		<g>
			<path style="fill:#DBC2A1;" d="M60.6220703,26.6923828c-0.3623047-0.7539063-1.0224609-1.2597656-1.7685547-1.4677734
				l0.2998047-0.25c1.1826172-0.9863281,1.3417969-2.7441406,0.3554688-3.9262695
				c-0.546875-0.6567383-1.3320313-0.9980469-2.125-1.0024414l0.2666016-0.3574219
				c0.9208984-1.234375,0.6660156-2.980957-0.5683594-3.9008789c-0.7441406-0.5556641-1.6748047-0.6762695-2.4980469-0.418457
				l0.2080078-0.402832c0.7089844-1.3662109,0.1767578-3.0488281-1.1904297-3.7583008
				c-0.7890625-0.409668-1.6787109-0.3935547-2.4296875-0.0537109l0.1806641-0.512207
				c0.5107422-1.4526367-0.2519531-3.0439453-1.7050781-3.5551758c-1.0068359-0.3525391-2.0722656-0.0849609-2.8066406,0.5898438
				l0.0361328-0.1860352c0.2929688-1.5117188-0.6953125-2.9736328-2.2070313-3.2670898
				c-1.1865234-0.2285156-2.3320313,0.3359375-2.9160156,1.315918c-0.1826172-1.2661133-1.2216797-2.2827148-2.5498047-2.3803711
				c-1.0996094-0.0854492-2.0869141,0.4887695-2.6074219,1.3813477c-0.5205078-0.8925781-1.5097656-1.4667969-2.6054688-1.3813477
				c-1.4628906,0.1079102-2.5649414,1.3305664-2.5678711,2.7744141c-0.5932617-1.0146484-1.7832031-1.5874023-2.9902344-1.324707
				C26.9291992,4.9375,25.9755859,6.4228516,26.3037109,7.9267578l0.0107422,0.0507813
				c-0.7036133-0.4785156-1.6118164-0.6381836-2.4780273-0.3359375c-1.284668,0.4462891-2.03125,1.737793-1.8408203,3.0351563
				c-0.7470703-0.3276367-1.6259766-0.3369141-2.4052734,0.0693359c-1.3496094,0.7036133-1.8774414,2.3574219-1.2006836,3.7133789
				c-0.5395508-0.0224609-1.0913086,0.1103516-1.5844727,0.4165039c-1.3071289,0.8125-1.7094727,2.53125-0.8969727,3.8388672
				l8.168457,13.1489258c2.1835938-1.8496094,5.0053711-2.972168,8.0913086-2.972168
				c6.9179688,0,12.5263672,5.609375,12.5263672,12.5292969c0,0.4960938-0.0361328,0.9824219-0.0917969,1.4628906
				l6.7841797,1.546875c0.2089844,0.0488281,0.4179688,0.0703125,0.6230469,0.0703125
				c1.2705078,0,2.4199219-0.875,2.7148438-2.1679688c0.1289063-0.5644531,0.0761719-1.1289063-0.1201172-1.6308594
				l1.5185547-0.3242188c1.4130859-0.3027344,2.359375-1.6367188,2.1806641-3.0703125
				c-0.0644531-0.5234375-0.2695313-0.9941406-0.5751953-1.3808594l0.5439453-0.1855469
				c1.3837891-0.4746094,2.1660156-1.9375,1.7900391-3.3520508c-0.1972656-0.7480469-0.6835938-1.3476563-1.3105469-1.7070313
				l0.5634766-0.2695313C60.703125,29.7446289,61.2890625,28.0800781,60.6220703,26.6923828z"/>
			<path style="fill:#190901;" d="M52.0097656,44.9658203c-0.2490234,0-0.4941406-0.0283203-0.7285156-0.0830078
				l-6.7822266-1.5458984c-0.2304688-0.0527344-0.3857422-0.2714844-0.3583984-0.5068359
				c0.0605469-0.5146484,0.0888672-0.9755859,0.0888672-1.4091797c0-6.6523438-5.4111328-12.0649414-12.0615234-12.0649414
				c-2.8452148,0-5.6123047,1.0166016-7.7910156,2.8623047c-0.1020508,0.0878906-0.2382813,0.128418-0.3725586,0.1044922
				c-0.1333008-0.0209961-0.2509766-0.0991211-0.3222656-0.2138672l-8.168457-13.1489258
				c-0.9462891-1.5224609-0.4770508-3.5317383,1.0463867-4.4785156c0.3618164-0.2246094,0.7617188-0.375,1.1777344-0.4448242
				c-0.3710938-1.4321289,0.28125-2.9951172,1.6376953-3.7026367c0.6591797-0.3427734,1.4145508-0.4438477,2.1342773-0.296875
				c0.0927734-1.2709961,0.9306641-2.4023438,2.1743164-2.8344727c0.6796875-0.2373047,1.4277344-0.2358398,2.1005859-0.0053711
				c0.0664063-1.4575195,1.0854492-2.722168,2.5493164-3.0424805c0.996582-0.2192383,2.0507813,0.0683594,2.8046875,0.7202148
				c0.4155273-1.1923828,1.5068359-2.0825195,2.8183594-2.1791992c0.9794922-0.0751953,1.9755859,0.3276367,2.6396484,1.0620117
				c0.6650391-0.7338867,1.6220703-1.1357422,2.6435547-1.0620117c1.1875,0.0874023,2.2167969,0.8325195,2.7050781,1.878418
				c0.7412109-0.6821289,1.7685547-1.0083008,2.8125-0.8066406c1.4853516,0.2880859,2.5400391,1.550293,2.6289063,2.9941406
				c0.7451172-0.3413086,1.6240234-0.3901367,2.4140625-0.1132813c1.5839844,0.5571289,2.4667969,2.2216797,2.0869141,3.8193359
				c0.6679688-0.0952148,1.3339844,0.0195313,1.9277344,0.328125c0.7714844,0.3999023,1.3408203,1.0766602,1.6025391,1.9047852
				c0.2177734,0.6860352,0.2021484,1.4086914-0.0361328,2.074707c0.6806641-0.0244141,1.4033203,0.2114258,1.9785156,0.6401367
				c0.6962891,0.5185547,1.1484375,1.277832,1.2734375,2.1376953c0.109375,0.7495117-0.0410156,1.4970703-0.4257813,2.1376953
				c0.6425781,0.1713867,1.2226563,0.5375977,1.6582031,1.0600586c0.5556641,0.6669922,0.8193359,1.5107422,0.7412109,2.3759766
				c-0.0673828,0.7431641-0.3798828,1.4257813-0.8896484,1.9560547c0.5722656,0.3232422,1.0361328,0.8120117,1.3232422,1.4082031
				c0.7568359,1.5742188,0.1259766,3.4643555-1.4042969,4.2792969c0.4199219,0.4067383,0.7226563,0.9208984,0.875,1.5
				c0.4345703,1.6357422-0.4755859,3.3486328-2.0751953,3.9052734c0.1708984,0.3349609,0.2822266,0.6982422,0.328125,1.0751953
				c0.2099609,1.6855469-0.8837891,3.2255859-2.5439453,3.5810547l-1.0292969,0.2197266
				c0.0957031,0.4541016,0.0908203,0.9248047-0.0136719,1.3847656
				C54.8378906,43.9257813,53.5351563,44.9658203,52.0097656,44.9658203z M45.1064453,42.5224609l6.3837891,1.4550781
				c0.1669922,0.0390625,0.3417969,0.0585938,0.5195313,0.0585938c1.0888672,0,2.0195313-0.7431641,2.2617188-1.8066406
				c0.1044922-0.4550781,0.0693359-0.9248047-0.0996094-1.3583984c-0.0498047-0.1269531-0.0410156-0.2695313,0.0234375-0.3896484
				c0.0644531-0.1191406,0.1787109-0.2050781,0.3125-0.2333984l1.5185547-0.3242188
				c1.1855469-0.2539063,1.9667969-1.3544922,1.8164063-2.5585938c-0.0517578-0.4228516-0.2177734-0.8203125-0.4785156-1.1503906
				c-0.09375-0.1181641-0.1240234-0.2744141-0.0810547-0.4189453c0.0419922-0.1455078,0.1523438-0.2597656,0.2949219-0.3085938
				l0.5439453-0.1855469c1.1474609-0.3935547,1.8027344-1.6210938,1.4912109-2.793457
				c-0.1591797-0.6054688-0.5478516-1.1108398-1.0927734-1.4233398c-0.1494141-0.0854492-0.2392578-0.2475586-0.2324219-0.4199219
				c0.0058594-0.1728516,0.1074219-0.3276367,0.2636719-0.4018555l0.5634766-0.2695313
				c1.1542969-0.5556641,1.6425781-1.9462891,1.0878906-3.1000977c-0.2851563-0.5947266-0.8232422-1.0400391-1.4746094-1.2211914
				c-0.1660156-0.0463867-0.2929688-0.1811523-0.3291016-0.3500977s0.0244141-0.34375,0.15625-0.4545898l0.2998047-0.25
				c0.4765625-0.3974609,0.7705078-0.956543,0.8261719-1.574707c0.0556641-0.6176758-0.1318359-1.2207031-0.5292969-1.6967773
				c-0.4394531-0.5273438-1.0849609-0.8320313-1.7714844-0.8359375c-0.1748047-0.0009766-0.3349609-0.1000977-0.4130859-0.2573242
				c-0.078125-0.1567383-0.0615234-0.3442383,0.0439453-0.4848633l0.2666016-0.3574219
				c0.3710938-0.4975586,0.5263672-1.109375,0.4365234-1.7236328c-0.0898438-0.6137695-0.4130859-1.15625-0.9101563-1.5268555
				c-0.5908203-0.4414063-1.3740234-0.5703125-2.0820313-0.3476563c-0.1806641,0.0576172-0.3730469-0.0009766-0.4941406-0.1445313
				s-0.1435547-0.3452148-0.0576172-0.512207l0.2080078-0.402832c0.2861328-0.5512695,0.3408203-1.1801758,0.1533203-1.7719727
				c-0.1875-0.5913086-0.59375-1.074707-1.1445313-1.3603516c-0.6220703-0.3227539-1.3740234-0.3378906-2.0244141-0.0429688
				c-0.1699219,0.0776367-0.3681641,0.0439453-0.5058594-0.0810547C50.7207031,11.3706055,50.671875,11.175293,50.7333984,11
				l0.1806641-0.5126953c0.4248047-1.2080078-0.2119141-2.5371094-1.4208984-2.9619141
				c-0.8017578-0.2807617-1.7080078-0.0854492-2.3378906,0.4936523c-0.1494141,0.1362305-0.3671875,0.159668-0.5410156,0.0634766
				c-0.1748047-0.0981445-0.2675781-0.2973633-0.2294922-0.4941406l0.0361328-0.1860352
				c0.2431641-1.2573242-0.5820313-2.4785156-1.8398438-2.7226563c-0.9667969-0.1865234-1.9335938,0.2685547-2.4277344,1.0976563
				c-0.1005859,0.1694336-0.3007813,0.2553711-0.4902344,0.2177734c-0.1933594-0.0385742-0.3408203-0.1943359-0.3691406-0.3891602
				c-0.1542969-1.0703125-1.0478516-1.9042969-2.1240234-1.9833984c-0.9072266-0.0708008-1.7246094,0.3842773-2.171875,1.1518555
				c-0.1660156,0.2861328-0.6367188,0.2861328-0.8027344,0c-0.4472656-0.7666016-1.2685547-1.2255859-2.1679688-1.1518555
				c-1.1977539,0.0883789-2.1367188,1.1035156-2.1391602,2.3120117c-0.0004883,0.2094727-0.1416016,0.3930664-0.34375,0.4477539
				c-0.2026367,0.0537109-0.4165039-0.0336914-0.5219727-0.2143555C30.5200195,5.3105469,29.5,4.8525391,28.5317383,5.0629883
				c-1.2509766,0.2734375-2.046875,1.5136719-1.7739258,2.7646484c0.0405273,0.1860352-0.03125,0.402832-0.1884766,0.5092773
				c-0.1572266,0.1069336-0.359375,0.1313477-0.5161133,0.0249023c-0.609375-0.4150391-1.3769531-0.5214844-2.0639648-0.2817383
				c-1.050293,0.3652344-1.6953125,1.4287109-1.5341797,2.5292969c0.0249023,0.1669922-0.043457,0.3344727-0.1777344,0.4370117
				c-0.1352539,0.1015625-0.3154297,0.1225586-0.4682617,0.0556641c-0.6464844-0.2827148-1.3886719-0.2641602-2.0039063,0.0561523
				c-1.1132813,0.5800781-1.5615234,1.9682617-1,3.09375c0.0737305,0.1469727,0.0639648,0.3222656-0.0253906,0.4599609
				c-0.0893555,0.1381836-0.2299805,0.2109375-0.409668,0.2119141c-0.0043945,0-0.0087891,0-0.0126953,0
				c-0.5234375,0-0.9423828,0.1206055-1.3071289,0.3466797c-1.0878906,0.6762695-1.4233398,2.1113281-0.7475586,3.1992188
				l7.8901367,12.7011719c2.277832-1.7734375,5.0888672-2.7441406,7.9750977-2.7441406
				c7.1630859,0,12.9912109,5.8291016,12.9912109,12.9941406C45.1591797,41.7695313,45.1416016,42.1328125,45.1064453,42.5224609z"
				/>
		</g>
		<g>
			<path style="fill:#E5B120;" d="M8.4594727,16.5820313c0,0-3.2514648-2.8852539-5.2651367,2.878418
				c0,0,3.7856445-1.9951172,5.996582,0L8.4594727,16.5820313z"/>
			<path style="fill:#190901;" d="M9.190918,20.0161133c-0.1342773,0-0.2675781-0.0483398-0.3725586-0.1430664
				c-0.5463867-0.4931641-1.2749023-0.7436523-2.1645508-0.7436523c-1.6118164,0-3.1850586,0.8149414-3.2006836,0.8232422
				c-0.2021484,0.1064453-0.4487305,0.0776367-0.621582-0.0717773c-0.1728516-0.1489258-0.2373047-0.3881836-0.1621094-0.6035156
				c1.1474609-3.2841797,2.7597656-3.9731445,3.9106445-3.9731445c1.2617188,0,2.2084961,0.8266602,2.2485352,0.8618164
				c0.0830078,0.0742188,0.1420898,0.1713867,0.1694336,0.2792969l0.7314453,2.878418
				c0.0605469,0.2373047-0.0415039,0.4863281-0.2514648,0.612793C9.3891602,19.9902344,9.2900391,20.0161133,9.190918,20.0161133z
				 M6.5800781,16.4155273c-1.050293,0-1.8217773,0.9438477-2.3613281,2.027832
				c1.1254883-0.3696289,2.8647461-0.6054688,4.1030273-0.1459961l-0.3540039-1.3935547
				C7.7363281,16.7392578,7.2021484,16.4155273,6.5800781,16.4155273z"/>
		</g>
		<g>
			<path style="fill:#331D14;" d="M56.4296875,27.4560547c-0.3183594-0.6132813-0.8994141-1.0244141-1.5576172-1.1933594
				l0.2646484-0.203125c1.0410156-0.8027344,1.1816406-2.2329102,0.3134766-3.1953125
				c-0.4824219-0.5341797-1.1738281-0.8115234-1.8720703-0.8149414l0.234375-0.2915039
				c0.8115234-1.0039063,0.5869141-2.4243164-0.5009766-3.1733398c-0.65625-0.4516602-1.4765625-0.5498047-2.2011719-0.3408203
				l0.1826172-0.3271484c0.6259766-1.1113281,0.1552734-2.4799805-1.0488281-3.0581055
				c-0.6943359-0.3325195-1.4785156-0.3198242-2.1396484-0.0429688l0.1591797-0.4169922
				c0.4492188-1.1816406-0.2226563-2.4760742-1.5039063-2.8925781c-0.8876953-0.2871094-1.8242188-0.0683594-2.4726563,0.4799805
				l0.0322266-0.1513672c0.2578125-1.2294922-0.6123047-2.4194336-1.9453125-2.6586914
				c-1.0458984-0.1850586-2.0546875,0.2744141-2.5693359,1.0712891c-0.1601563-1.0302734-1.0751953-1.8569336-2.2470703-1.9365234
				c-0.9677734-0.0698242-1.8378906,0.3974609-2.2958984,1.1235352c-0.4609375-0.7260742-1.3310547-1.1933594-2.2958984-1.1235352
				c-1.2890625,0.0878906-2.2607422,1.0830078-2.2626953,2.2573242c-0.5234375-0.8251953-1.5717773-1.2915039-2.6352539-1.078125
				c-1.3251953,0.2675781-2.1650391,1.4760742-1.8759766,2.699707l0.0087891,0.0415039
				c-0.6196289-0.3896484-1.4199219-0.5195313-2.1826172-0.2734375c-1.1323242,0.3632813-1.7905273,1.4135742-1.6225586,2.4692383
				c-0.6582031-0.2661133-1.4331055-0.2739258-2.1196289,0.0566406c-1.1889648,0.5717773-1.6547852,1.9174805-1.0576172,3.0214844
				c-0.4750977-0.019043-0.9614258,0.0893555-1.3964844,0.3378906c-1.1518555,0.6611328-1.5063477,2.0595703-0.7895508,3.1235352
				l7.1962891,10.7001953c1.9243164-1.5078125,4.4111328-2.4204102,7.1303711-2.4204102
				c6.0952148,0,11.0385742,4.5634766,11.0385742,10.1923828c0,0.4042969-0.0322266,0.8007813-0.0820313,1.1914063
				l5.9785156,1.2597656c0.1835938,0.0371094,0.3671875,0.0566406,0.5478516,0.0566406
				c1.1191406,0,2.1318359-0.7128906,2.3925781-1.7636719c0.1123047-0.4609375,0.0673828-0.9199219-0.1064453-1.328125
				l1.3388672-0.2636719c1.2451172-0.2460938,2.0800781-1.3320313,1.921875-2.4980469
				c-0.0576172-0.4238281-0.2392578-0.8085938-0.5068359-1.1230469l0.4785156-0.1523438
				c1.2197266-0.3847656,1.9082031-1.5771484,1.5771484-2.7270508c-0.1738281-0.6074219-0.6025391-1.0957031-1.1542969-1.3867188
				l0.4960938-0.2207031C56.5029297,29.9399414,57.0185547,28.5849609,56.4296875,27.4560547z"/>
			<path style="fill:#190901;" d="M48.8417969,42.4111328c-0.2109375,0-0.4257813-0.0224609-0.6396484-0.0664063
				l-6.4013672-1.3486328l0.0537109-0.4248047c0.0527344-0.4130859,0.078125-0.7841797,0.078125-1.1328125
				c0-5.3642578-4.7431641-9.7280273-10.5737305-9.7280273c-2.5029297,0-4.9331055,0.824707-6.84375,2.3217773L24.121582,32.340332
				l-7.4750977-11.1147461c-0.4101563-0.609375-0.5463867-1.3330078-0.3823242-2.0371094
				c0.1704102-0.7348633,0.6416016-1.3554688,1.3261719-1.7485352c0.3017578-0.1723633,0.6313477-0.2915039,0.9736328-0.3530273
				c-0.109375-0.4560547-0.0922852-0.9331055,0.0561523-1.3901367c0.230957-0.7124023,0.7470703-1.2919922,1.4545898-1.6318359
				c0.5703125-0.2753906,1.2207031-0.3608398,1.8457031-0.2539063c0.1166992-1.0356445,0.8623047-1.9453125,1.9555664-2.2958984
				c0.5844727-0.1879883,1.2241211-0.1928711,1.8051758-0.0229492c0.0341797-0.421875,0.1713867-0.8261719,0.4052734-1.1914063
				C26.5,9.6547852,27.1889648,9.1933594,27.9760742,9.0341797c0.8964844-0.1801758,1.7875977,0.0498047,2.4555664,0.5625
				c0.3950195-0.9614258,1.3544922-1.6713867,2.5024414-1.7495117c0.8569336-0.0664063,1.730957,0.2607422,2.3266602,0.8510742
				c0.5947266-0.590332,1.4394531-0.9194336,2.3300781-0.8510742c1.0400391,0.0708008,1.9443359,0.6655273,2.3964844,1.5078125
				c0.6601563-0.5419922,1.5585938-0.7973633,2.4677734-0.6367188c0.7929688,0.1425781,1.4931641,0.5893555,1.9238281,1.2270508
				c0.2451172,0.3637695,0.3925781,0.7700195,0.4365234,1.1889648c0.6523438-0.2612305,1.4052734-0.2905273,2.0869141-0.0703125
				c0.7587891,0.246582,1.3818359,0.7802734,1.7089844,1.4648438c0.2480469,0.5170898,0.3173828,1.0839844,0.2041016,1.6313477
				c0.5664063-0.0546875,1.125,0.0375977,1.6289063,0.2792969c0.7207031,0.3457031,1.2421875,0.9350586,1.4707031,1.6606445
				c0.1640625,0.5214844,0.1591797,1.0654297-0.0087891,1.574707c0.6054688,0.0097656,1.1806641,0.1914063,1.6689453,0.5268555
				c0.6425781,0.4428711,1.0556641,1.09375,1.1630859,1.8334961c0.0839844,0.5820313-0.0302734,1.1606445-0.3242188,1.6669922
				c0.5322266,0.1513672,1.0136719,0.4438477,1.3808594,0.8505859c0.5039063,0.5581055,0.7441406,1.2661133,0.6787109,1.9941406
				c-0.0537109,0.59375-0.3046875,1.140625-0.7177734,1.5776367c0.4667969,0.2680664,0.8457031,0.6533203,1.0859375,1.1176758
				c0.3339844,0.6401367,0.3876953,1.3671875,0.1513672,2.0454102c-0.2255859,0.6445313-0.6835938,1.1728516-1.3017578,1.5097656
				c0.3271484,0.3242188,0.5654297,0.7211914,0.6923828,1.1650391c0.390625,1.3569336-0.3886719,2.7700195-1.78125,3.2641602
				c0.125,0.2529297,0.2080078,0.5234375,0.2460938,0.8037109c0.1904297,1.3994141-0.8164063,2.7246094-2.2919922,3.0166016
				L51.71875,39.2119141c0.0654297,0.3544922,0.0546875,0.7207031-0.0332031,1.0810547
				C51.3759766,41.5410156,50.2070313,42.4111328,48.8417969,42.4111328z M42.8232422,40.2617188l5.5664063,1.1728516
				c1.0654297,0.2167969,2.1582031-0.4121094,2.3935547-1.3642578c0.0849609-0.3486328,0.0566406-0.7060547-0.0830078-1.0341797
				l-0.2246094-0.5263672l1.9013672-0.375c1.0107422-0.1992188,1.6777344-1.0507813,1.5517578-1.9794922
				c-0.0439453-0.3222656-0.1826172-0.6279297-0.4003906-0.8847656l-0.453125-0.53125L54.2197266,34.375
				c0.9726563-0.3076172,1.53125-1.2539063,1.2714844-2.15625c-0.1347656-0.4682617-0.4628906-0.8603516-0.9248047-1.1040039
				l-0.8466797-0.4467773l1.3710938-0.609375c0.4951172-0.2197266,0.8583984-0.6025391,1.0244141-1.0776367
				c0.1523438-0.4335938,0.1171875-0.8984375-0.0976563-1.3100586c-0.2412109-0.465332-0.7011719-0.8144531-1.2607422-0.9580078
				l-0.9248047-0.2373047l1.0214844-0.784668c0.4042969-0.3115234,0.6513672-0.7475586,0.6943359-1.2275391
				c0.0429688-0.4672852-0.1152344-0.9243164-0.4423828-1.2880859c-0.3769531-0.4174805-0.9345703-0.6586914-1.5292969-0.6616211
				l-0.9638672-0.0043945l0.8378906-1.0424805c0.3046875-0.3769531,0.4355469-0.8374023,0.3681641-1.2978516
				c-0.0693359-0.480957-0.3427734-0.9077148-0.7705078-1.2016602c-0.5117188-0.3525391-1.1933594-0.4560547-1.8085938-0.2773438
				l-1.0849609,0.3129883l0.7333984-1.3129883c0.2294922-0.4077148,0.2792969-0.8725586,0.1416016-1.3105469
				c-0.1503906-0.4775391-0.5009766-0.8691406-0.9863281-1.1020508c-0.5400391-0.2592773-1.1953125-0.2700195-1.7587891-0.0332031
				l-1,0.418457l0.5458984-1.4296875c0.1611328-0.4262695,0.1416016-0.8891602-0.0566406-1.3027344
				c-0.2216797-0.4628906-0.6328125-0.8120117-1.1572266-0.9824219c-0.6933594-0.2236328-1.4824219-0.0688477-2.0292969,0.3930664
				l-1.0371094,0.8769531l0.3154297-1.4799805c0.0917969-0.4384766,0-0.8911133-0.2568359-1.2729492
				c-0.2910156-0.4306641-0.7705078-0.7338867-1.3164063-0.831543c-0.8339844-0.1489258-1.6738281,0.2109375-2.0966797,0.8657227
				l-0.6621094,1.0249023l-0.1875-1.2055664c-0.1298828-0.8320313-0.8945313-1.4814453-1.8193359-1.5444336
				c-0.7910156-0.0522461-1.4902344,0.3027344-1.8720703,0.9082031l-0.3916016,0.6206055l-0.3935547-0.6196289
				c-0.3837891-0.605957-1.1083984-0.9648438-1.8696289-0.9091797c-1.0263672,0.0698242-1.8300781,0.8583984-1.8320313,1.7949219
				l-0.0024414,1.5947266l-0.8544922-1.3466797c-0.4287109-0.6762695-1.2890625-1.0444336-2.1513672-0.871582
				c-0.5410156,0.109375-1.0117188,0.4213867-1.2905273,0.8569336c-0.2485352,0.3876953-0.328125,0.8422852-0.2246094,1.2802734
				l0.2607422,1.1040039l-0.9516602-0.5625c-0.5258789-0.3310547-1.1938477-0.4169922-1.7924805-0.2241211
				c-0.8916016,0.2861328-1.440918,1.1074219-1.3061523,1.9541016l0.1289063,0.8115234l-0.762207-0.3081055
				c-0.5600586-0.2265625-1.2094727-0.2119141-1.7436523,0.0444336c-0.4760742,0.2290039-0.8217773,0.6132813-0.9736328,1.081543
				c-0.1401367,0.4326172-0.0966797,0.8945313,0.1230469,1.300293l0.3881836,0.7182617l-0.8154297-0.0327148
				c-0.0043945,0-0.0083008,0-0.012207,0c-0.4560547,0-0.8188477,0.0961914-1.1352539,0.2768555
				c-0.4575195,0.2626953-0.7714844,0.6723633-0.8833008,1.152832c-0.1044922,0.4501953-0.0161133,0.9145508,0.2485352,1.3076172
				l6.9238281,10.2954102c2.0068359-1.4350586,4.4790039-2.2207031,7.0175781-2.2207031
				c6.3422852,0,11.503418,4.7802734,11.503418,10.6572266C42.8623047,39.7011719,42.8496094,39.9736328,42.8232422,40.2617188z"/>
		</g>
		<g>
			<path style="fill:#331D14;" d="M51.0820313,28.6293945c-0.25-0.4829102-0.7070313-0.8061523-1.2255859-0.9394531
				l0.2089844-0.159668c0.8193359-0.6318359,0.9296875-1.7573242,0.2460938-2.5151367
				c-0.3798828-0.4204102-0.9228516-0.6381836-1.4736328-0.6411133l0.1855469-0.2294922
				c0.6376953-0.7900391,0.4609375-1.9082031-0.3945313-2.4970703c-0.5166016-0.355957-1.1621094-0.4326172-1.7324219-0.2685547
				l0.1435547-0.2573242c0.4931641-0.8745117,0.1220703-1.9521484-0.8261719-2.4067383
				c-0.5458984-0.2617188-1.1630859-0.2514648-1.6835938-0.0336914l0.1259766-0.3286133
				c0.3535156-0.9296875-0.1748047-1.9482422-1.1845703-2.2763672c-0.6982422-0.2255859-1.4345703-0.0537109-1.9453125,0.3779297
				l0.0253906-0.1191406c0.2021484-0.9677734-0.4824219-1.9038086-1.5302734-2.0927734
				c-0.8232422-0.1455078-1.6181641,0.2163086-2.0234375,0.84375c-0.125-0.8110352-0.8457031-1.4614258-1.7675781-1.5244141
				c-0.7617188-0.0551758-1.4472656,0.3129883-1.8066406,0.8842773c-0.3632813-0.5712891-1.0488281-0.9394531-1.8071289-0.8842773
				c-1.0146484,0.0693359-1.7792969,0.8525391-1.7807617,1.7763672c-0.4116211-0.6494141-1.2368164-1.0161133-2.0737305-0.8481445
				c-1.0429688,0.2104492-1.7041016,1.1616211-1.4765625,2.1245117l0.0068359,0.0327148
				c-0.487793-0.3066406-1.1176758-0.4086914-1.7177734-0.215332c-0.8911133,0.2861328-1.4091797,1.112793-1.2768555,1.9433594
				c-0.5180664-0.2094727-1.1279297-0.215332-1.668457,0.0444336c-0.9350586,0.4501953-1.3017578,1.5092773-0.8320313,2.3779297
				c-0.3740234-0.0146484-0.7568359,0.0703125-1.0991211,0.2661133c-0.9067383,0.5205078-1.1855469,1.6206055-0.6210938,2.4580078
				l5.6635742,8.4213867c1.5141602-1.1875,3.4711914-1.9042969,5.6113281-1.9042969
				c4.7963867,0,8.6870117,3.5913086,8.6870117,8.0209961c0,0.3183594-0.0253906,0.6289063-0.0644531,0.9375l4.7050781,0.9902344
				c0.1445313,0.0292969,0.2890625,0.0449219,0.4316406,0.0449219c0.8808594,0,1.6777344-0.5605469,1.8828125-1.3867188
				c0.0878906-0.3632813,0.0527344-0.7246094-0.0839844-1.046875l1.0537109-0.2070313
				c0.9794922-0.1933594,1.6367188-1.0488281,1.5126953-1.9648438c-0.0458984-0.3339844-0.1884766-0.6367188-0.3984375-0.8847656
				l0.3759766-0.1191406c0.9599609-0.3027344,1.5019531-1.2412109,1.2412109-2.1459961
				c-0.1367188-0.4785156-0.4746094-0.8623047-0.9082031-1.0917969l0.3896484-0.1738281
				C51.140625,30.5834961,51.5458984,29.5180664,51.0820313,28.6293945z"/>
			<path style="fill:#664434;" d="M45.1113281,40.3974609c-0.1669922,0-0.3349609-0.0175781-0.5039063-0.0517578
				l-5.0380859-1.0605469l0.0429688-0.3339844c0.0371094-0.2939453,0.0615234-0.5888672,0.0615234-0.8916016
				c0-4.2216797-3.7333984-7.6552734-8.3217773-7.6552734c-1.9711914,0-3.8837891,0.6484375-5.3857422,1.8261719
				l-0.3095703,0.2426758l-5.8828125-8.7475586c-0.3232422-0.4794922-0.4306641-1.0488281-0.3017578-1.6030273
				c0.1342773-0.578125,0.5048828-1.0668945,1.0439453-1.3759766c0.2373047-0.1357422,0.496582-0.2294922,0.7666016-0.277832
				c-0.0864258-0.3588867-0.0727539-0.734375,0.0439453-1.09375c0.1816406-0.5610352,0.5878906-1.0170898,1.144043-1.2851563
				c0.4492188-0.2167969,0.9614258-0.284668,1.453125-0.1992188c0.0917969-0.8149414,0.6787109-1.5307617,1.5390625-1.8071289
				c0.4609375-0.1474609,0.9638672-0.1513672,1.4204102-0.0180664c0.0273438-0.331543,0.1352539-0.6499023,0.3193359-0.9375
				c0.3256836-0.5083008,0.8676758-0.871582,1.4873047-0.996582c0.7050781-0.1430664,1.4067383,0.0385742,1.9321289,0.4418945
				c0.3110352-0.7563477,1.0664063-1.3149414,1.9697266-1.3764648c0.6689453-0.0571289,1.3613281,0.2045898,1.8310547,0.6699219
				c0.4677734-0.4648438,1.1357422-0.7216797,1.8339844-0.6699219c0.8183594,0.0561523,1.5302734,0.5239258,1.8857422,1.1865234
				c0.5195313-0.4267578,1.2265625-0.6279297,1.9423828-0.5009766c0.6240234,0.1123047,1.1748047,0.4643555,1.5126953,0.9658203
				c0.1933594,0.2861328,0.3095703,0.605957,0.34375,0.9360352c0.5126953-0.2045898,1.1054688-0.2294922,1.6425781-0.0561523
				c0.5976563,0.1943359,1.0878906,0.6147461,1.3466797,1.1538086c0.1943359,0.4067383,0.2490234,0.8525391,0.1601563,1.2836914
				c0.4394531-0.0458984,0.8837891,0.0292969,1.28125,0.2197266c0.5664063,0.2714844,0.9775391,0.7358398,1.1582031,1.3071289
				c0.1289063,0.4101563,0.125,0.8383789-0.0078125,1.2387695c0.4765625,0.0078125,0.9306641,0.1508789,1.3134766,0.4150391
				c0.5058594,0.3476563,0.8300781,0.8598633,0.9150391,1.4418945c0.0664063,0.4584961-0.0234375,0.9140625-0.2548828,1.3129883
				c0.4189453,0.1191406,0.7978516,0.3491211,1.0869141,0.6689453c0.3964844,0.4394531,0.5859375,0.9970703,0.5341797,1.5703125
				c-0.0419922,0.4667969-0.2392578,0.8974609-0.5644531,1.2412109c0.3671875,0.2109375,0.6650391,0.5146484,0.8535156,0.8798828
				c0.2636719,0.503418,0.3056641,1.0751953,0.1191406,1.6088867c-0.1767578,0.5073242-0.5371094,0.9233398-1.0244141,1.1884766
				c0.2587891,0.2553711,0.4462891,0.5683594,0.5458984,0.9174805c0.3076172,1.0668945-0.3056641,2.1791992-1.4023438,2.5678711
				c0.0986328,0.1992188,0.1640625,0.4130859,0.1943359,0.6328125c0.1494141,1.1015625-0.6435547,2.1445313-1.8037109,2.3730469
				L47.375,37.8798828c0.0507813,0.2792969,0.0429688,0.5673828-0.0253906,0.8515625
				C47.1054688,39.7138672,46.1855469,40.3974609,45.1113281,40.3974609z M40.3740234,38.7070313l4.3808594,0.9228516
				c0.8359375,0.1669922,1.6982422-0.3251953,1.8847656-1.0722656C46.7060547,38.2822266,46.6835938,38,46.5732422,37.7412109
				l-0.1757813-0.4140625l1.4960938-0.2939453c0.78125-0.1542969,1.3183594-0.8388672,1.2207031-1.5576172
				c-0.0351563-0.2539063-0.1435547-0.4951172-0.3154297-0.6972656l-0.3544922-0.4189453l0.8994141-0.2851563
				c0.765625-0.2412109,1.2050781-0.9863281,1-1.6962891c-0.1054688-0.3681641-0.3632813-0.6767578-0.7275391-0.8696289
				l-0.6640625-0.3510742l1.0751953-0.4799805c0.390625-0.1733398,0.6777344-0.4741211,0.8085938-0.8481445
				c0.1181641-0.3408203,0.0908203-0.706543-0.078125-1.0307617c-0.1894531-0.3662109-0.5507813-0.640625-0.9921875-0.7543945
				l-0.7294922-0.1875l0.8076172-0.6166992c0.3173828-0.2446289,0.5117188-0.5878906,0.5449219-0.965332
				c0.0332031-0.3676758-0.0908203-0.7280273-0.3486328-1.0141602c-0.296875-0.328125-0.7353516-0.5180664-1.2041016-0.5205078
				l-0.7607422-0.0039063l0.6640625-0.8212891c0.2382813-0.2954102,0.3408203-0.6582031,0.2880859-1.0209961
				c-0.0546875-0.378418-0.2705078-0.7138672-0.6054688-0.9448242c-0.4023438-0.2773438-0.9414063-0.3588867-1.4238281-0.2182617
				l-0.8535156,0.2451172l0.5761719-1.0322266c0.1806641-0.3208008,0.2207031-0.6865234,0.1113281-1.03125
				c-0.1181641-0.3759766-0.3935547-0.684082-0.7763672-0.8676758c-0.4248047-0.203125-0.9423828-0.2124023-1.3837891-0.0258789
				l-0.7890625,0.3295898l0.4316406-1.1264648c0.1279297-0.3349609,0.1123047-0.6987305-0.0439453-1.0239258
				c-0.1738281-0.3647461-0.4980469-0.6396484-0.9121094-0.7739258c-0.5449219-0.1772461-1.1660156-0.0537109-1.5957031,0.3095703
				l-0.8164063,0.6899414l0.2480469-1.1645508c0.0722656-0.3447266,0-0.7011719-0.203125-1.0019531
				c-0.2285156-0.3388672-0.6054688-0.5776367-1.0341797-0.6547852c-0.6630859-0.1137695-1.3183594,0.1674805-1.6513672,0.6821289
				l-0.5224609,0.8081055l-0.1464844-0.9506836c-0.1005859-0.6542969-0.703125-1.1655273-1.4316406-1.215332l-0.125-0.0043945
				c-0.5517578,0-1.0673828,0.2753906-1.3466797,0.71875l-0.3076172,0.4892578l-0.3105469-0.487793
				c-0.2822266-0.4443359-0.7998047-0.7202148-1.3486328-0.7202148l-0.1235352,0.0043945
				c-0.8076172,0.0551758-1.4404297,0.675293-1.4414063,1.4121094l-0.0019531,1.2563477l-0.6723633-1.0610352
				c-0.3369141-0.53125-1.0097656-0.8203125-1.6933594-0.6855469c-0.4257813,0.0859375-0.7963867,0.3320313-1.015625,0.6743164
				c-0.1953125,0.3051758-0.2583008,0.6630859-0.1767578,1.0078125l0.2050781,0.8686523l-0.7490234-0.4423828
				c-0.4160156-0.2617188-0.9423828-0.3286133-1.4106445-0.1767578c-0.7021484,0.2250977-1.1342773,0.8720703-1.027832,1.5375977
				l0.1015625,0.6391602l-0.6000977-0.2426758c-0.4418945-0.1782227-0.953125-0.1674805-1.3730469,0.0351563
				c-0.3740234,0.1801758-0.6459961,0.4824219-0.7651367,0.8510742c-0.1103516,0.3408203-0.0761719,0.7041016,0.0966797,1.0234375
				l0.3051758,0.5644531l-0.6411133-0.0253906c-0.362793,0.0292969-0.6523438,0.0742188-0.9033203,0.2182617
				c-0.3603516,0.2070313-0.6074219,0.5292969-0.6953125,0.9072266c-0.0825195,0.3540039-0.0126953,0.7197266,0.1958008,1.0288086
				l5.4492188,8.1025391c1.5776367-1.1289063,3.5234375-1.746582,5.5224609-1.746582
				c4.9916992,0,9.0522461,3.7617188,9.0522461,8.3867188C40.4042969,38.265625,40.3945313,38.4794922,40.3740234,38.7070313z"/>
		</g>
		<g>
			<path style="fill:#331D14;" d="M46.1425781,31.9282227c-0.1943359-0.375-0.5498047-0.6269531-0.9541016-0.7304688
				l0.1630859-0.125c0.6376953-0.4921875,0.7236328-1.3681641,0.1914063-1.9580078
				c-0.2958984-0.3271484-0.71875-0.496582-1.1474609-0.4990234l0.1445313-0.1787109
				c0.4970703-0.6147461,0.359375-1.4853516-0.3066406-1.9438477c-0.4023438-0.2768555-0.9052734-0.3369141-1.3486328-0.2089844
				l0.1113281-0.2001953c0.3837891-0.6811523,0.0957031-1.5200195-0.6425781-1.8735352
				c-0.4257813-0.2041016-0.90625-0.1958008-1.3105469-0.0263672l0.0976563-0.2558594
				c0.2753906-0.7236328-0.1357422-1.5166016-0.921875-1.7719727c-0.5439453-0.1757813-1.1171875-0.0419922-1.5146484,0.2939453
				l0.0195313-0.0927734c0.1572266-0.753418-0.375-1.4819336-1.1914063-1.6289063
				c-0.640625-0.1132813-1.2597656,0.168457-1.5751953,0.6567383c-0.0966797-0.6313477-0.6582031-1.1376953-1.3759766-1.1865234
				c-0.5927734-0.0429688-1.1269531,0.2436523-1.40625,0.6879883c-0.2817383-0.4443359-0.8154297-0.730957-1.40625-0.6879883
				c-0.7900391,0.0537109-1.3852539,0.6635742-1.3867188,1.3828125c-0.3203125-0.5058594-0.9624023-0.7910156-1.6142578-0.6606445
				c-0.8120117,0.1640625-1.3266602,0.9042969-1.1494141,1.6542969l0.0053711,0.0253906
				c-0.3798828-0.2387695-0.8701172-0.3183594-1.3374023-0.1679688c-0.6933594,0.2231445-1.0966797,0.8666992-0.9936523,1.5131836
				c-0.4033203-0.1630859-0.878418-0.1679688-1.2988281,0.034668c-0.7280273,0.3500977-1.0136719,1.1748047-0.6479492,1.8510742
				c-0.2910156-0.0117188-0.5893555,0.0546875-0.8554688,0.2070313c-0.7060547,0.4052734-0.9228516,1.2617188-0.4833984,1.9135742
				l4.4086914,6.5566406c1.1787109-0.9257813,2.7021484-1.4833984,4.3681641-1.4833984
				c3.7338867,0,6.762207,2.7958984,6.762207,6.2451172c0,0.2460938-0.0195313,0.4902344-0.0498047,0.7285156l3.6630859,0.7714844
				c0.1123047,0.0234375,0.2246094,0.0351563,0.3359375,0.0351563c0.6855469,0,1.3056641-0.4355469,1.4658203-1.0800781
				c0.0683594-0.28125,0.0410156-0.5644531-0.0654297-0.8144531l0.8203125-0.1621094
				c0.7617188-0.1484375,1.2734375-0.8144531,1.1777344-1.5292969c-0.0361328-0.2597656-0.1474609-0.4960938-0.3105469-0.6875
				l0.2929688-0.09375c0.7470703-0.2363281,1.1689453-0.9648438,0.9658203-1.6699219
				c-0.1064453-0.3730469-0.3691406-0.671875-0.7070313-0.8496094l0.3037109-0.1367188
				C46.1884766,33.4501953,46.5039063,32.6196289,46.1425781,31.9282227z"/>
			<path style="fill:#664434;" d="M41.4951172,41.0898438c-0.1308594,0-0.2636719-0.0136719-0.3945313-0.0410156
				l-3.9199219-0.8251953l0.0332031-0.2607422c0.0283203-0.2265625,0.0478516-0.4580078,0.0478516-0.6923828
				c0-3.2861328-2.90625-5.9609375-6.4780273-5.9609375c-1.5356445,0-3.0244141,0.5058594-4.1923828,1.4228516l-0.2412109,0.1894531
				l-4.5795898-6.8110352c-0.2514648-0.3730469-0.3349609-0.8164063-0.2348633-1.2480469
				c0.1044922-0.449707,0.3930664-0.8300781,0.8129883-1.0712891c0.1845703-0.1054688,0.3862305-0.1782227,0.5961914-0.2158203
				c-0.0668945-0.2797852-0.0561523-0.5717773,0.034668-0.8520508c0.1411133-0.4365234,0.4575195-0.7915039,0.890625-0.9995117
				c0.3496094-0.1679688,0.7470703-0.2216797,1.1313477-0.1552734c0.0712891-0.6342773,0.527832-1.1918945,1.1972656-1.4072266
				c0.3583984-0.1147461,0.7495117-0.1176758,1.1064453-0.0136719c0.0209961-0.2583008,0.1049805-0.5063477,0.2480469-0.7299805
				c0.253418-0.3955078,0.6757813-0.6787109,1.1582031-0.7758789c0.5488281-0.1103516,1.0947266,0.0307617,1.5043945,0.3442383
				c0.2421875-0.5888672,0.8300781-1.0239258,1.5332031-1.0717773c0.5307617-0.0341797,1.0605469,0.159668,1.4248047,0.5209961
				c0.3642578-0.3613281,0.8935547-0.5605469,1.4277344-0.5205078c0.6376953,0.0429688,1.1914063,0.4072266,1.4677734,0.9233398
				c0.4042969-0.3320313,0.9521484-0.4907227,1.5126953-0.3901367c0.4853516,0.0874023,0.9140625,0.3613281,1.1777344,0.7514648
				C38.9101563,21.4223633,39,21.671875,39.0273438,21.9287109c0.3994141-0.1601563,0.8603516-0.1791992,1.2792969-0.043457
				c0.4648438,0.1513672,0.8466797,0.4785156,1.0478516,0.8979492c0.1513672,0.3168945,0.1933594,0.6640625,0.1240234,0.9995117
				c0.3525391-0.0351563,0.6904297,0.0234375,0.9980469,0.1708984c0.4404297,0.2114258,0.7607422,0.5722656,0.9003906,1.0166016
				c0.1015625,0.3193359,0.0976563,0.6533203-0.0048828,0.965332c0.3710938,0.0058594,0.7236328,0.1176758,1.0224609,0.3232422
				c0.3935547,0.2709961,0.6464844,0.6699219,0.7128906,1.1230469c0.0517578,0.3564453-0.0185547,0.7114258-0.1992188,1.0214844
				c0.3261719,0.0927734,0.6210938,0.2714844,0.8457031,0.5205078c0.3085938,0.3422852,0.4570313,0.7758789,0.4169922,1.2216797
				c-0.0332031,0.3642578-0.1875,0.699707-0.4404297,0.9672852c0.2851563,0.1640625,0.5175781,0.4003906,0.6650391,0.6845703
				c0.2050781,0.3920898,0.2382813,0.8378906,0.0927734,1.253418c-0.1386719,0.3945313-0.4189453,0.71875-0.7978516,0.9248047
				c0.2011719,0.1982422,0.3476563,0.4423828,0.4248047,0.7148438c0.2392578,0.8300781-0.2382813,1.6953125-1.0908203,1.9980469
				c0.0761719,0.1552734,0.1269531,0.3203125,0.1513672,0.4921875c0.1152344,0.8603516-0.5019531,1.671875-1.4052734,1.8476563
				l-0.5136719,0.1015625c0.0410156,0.2177734,0.0341797,0.4423828-0.0195313,0.6630859
				C43.0478516,40.5576172,42.3310547,41.0898438,41.4951172,41.0898438z M37.8066406,39.7734375l3.4111328,0.71875
				c0.65625,0.1328125,1.3222656-0.2539063,1.4667969-0.8349609c0.0517578-0.2138672,0.0341797-0.4335938-0.0507813-0.6347656
				l-0.1376953-0.3222656l1.1640625-0.2304688c0.609375-0.1181641,1.0263672-0.6513672,0.9511719-1.2119141
				c-0.0273438-0.1972656-0.1123047-0.3847656-0.2451172-0.5410156l-0.2773438-0.3251953l0.7001953-0.2246094
				c0.5966797-0.1884766,0.9384766-0.7675781,0.7792969-1.3193359c-0.0820313-0.2880859-0.2832031-0.5283203-0.5664063-0.6767578
				l-0.5166016-0.2714844l0.8359375-0.3769531c0.3046875-0.1347656,0.5273438-0.3681641,0.6289063-0.6591797
				c0.09375-0.265625,0.0722656-0.5512695-0.0595703-0.8032227c-0.1484375-0.2851563-0.4296875-0.4985352-0.7724609-0.5864258
				l-0.5673828-0.1455078l0.6279297-0.4814453c0.2470703-0.190918,0.3984375-0.4580078,0.4248047-0.7519531
				c0.0253906-0.2861328-0.0712891-0.5664063-0.2714844-0.7890625c-0.2314453-0.2553711-0.5732422-0.4033203-0.9384766-0.4052734
				l-0.5917969-0.003418l0.5166016-0.6391602c0.1865234-0.2299805,0.2666016-0.5117188,0.2255859-0.7944336
				c-0.0429688-0.2944336-0.2109375-0.5556641-0.4716797-0.7358398c-0.3144531-0.2163086-0.7324219-0.277832-1.1083984-0.1699219
				l-0.6630859,0.1914063l0.4462891-0.8032227c0.1416016-0.2504883,0.171875-0.5361328,0.0869141-0.8046875
				c-0.0917969-0.2924805-0.3066406-0.5317383-0.6035156-0.6738281c-0.3300781-0.1586914-0.7333984-0.1660156-1.0771484-0.0205078
				l-0.6132813,0.2568359L40.875,23.8266602c0.0986328-0.2607422,0.0869141-0.5444336-0.0341797-0.7973633
				c-0.1357422-0.2836914-0.3876953-0.4975586-0.7099609-0.6025391c-0.4267578-0.1362305-0.9082031-0.0415039-1.2431641,0.2407227
				l-0.6328125,0.5351563l0.1904297-0.9038086c0.0556641-0.2695313,0-0.546875-0.1582031-0.7807617
				c-0.1777344-0.2636719-0.4707031-0.4492188-0.8056641-0.5092773c-0.5068359-0.0893555-1.0263672,0.1298828-1.2851563,0.5307617
				l-0.4072266,0.6298828l-0.1132813-0.7412109c-0.078125-0.5092773-0.546875-0.9067383-1.1142578-0.9453125l-0.0976563-0.0039063
				c-0.4296875,0-0.8310547,0.2143555-1.0478516,0.559082l-0.2402344,0.3813477l-0.2407227-0.3798828
				c-0.2197266-0.3457031-0.621582-0.5605469-1.0498047-0.5605469l-0.0961914,0.003418
				c-0.6289063,0.0429688-1.121582,0.5258789-1.1225586,1.0996094l-0.0019531,0.9780273l-0.5234375-0.8261719
				c-0.2617188-0.4140625-0.7875977-0.6411133-1.3178711-0.5336914c-0.331543,0.0668945-0.6196289,0.2583008-0.7905273,0.5249023
				c-0.1523438,0.237793-0.2011719,0.5161133-0.1376953,0.784668l0.1601563,0.6762695l-0.5830078-0.3442383
				c-0.3237305-0.2036133-0.7324219-0.2568359-1.0986328-0.1381836c-0.5463867,0.1757813-0.8823242,0.6791992-0.7998047,1.1972656
				l0.0791016,0.4975586l-0.4672852-0.1889648c-0.34375-0.1401367-0.7421875-0.1303711-1.0683594,0.0273438
				c-0.2915039,0.1401367-0.503418,0.3754883-0.5961914,0.6625977c-0.0859375,0.2651367-0.0595703,0.5483398,0.0751953,0.796875
				l0.237793,0.4399414l-0.4995117-0.0205078c-0.0029297,0-0.0053711,0-0.0078125,0
				c-0.2797852,0-0.5014648,0.059082-0.6948242,0.1699219c-0.2807617,0.1611328-0.4731445,0.4121094-0.5415039,0.7060547
				c-0.0639648,0.2758789-0.0097656,0.5605469,0.1523438,0.8012695l4.2416992,6.3085938
				c1.2275391-0.8789063,2.7421875-1.3603516,4.2993164-1.3603516c3.8852539,0,7.0463867,2.9287109,7.0463867,6.5292969
				C37.8300781,39.4316406,37.8232422,39.5976563,37.8066406,39.7734375z"/>
		</g>
		<path style="fill:#190901;" d="M52.0097656,44.9658203c-0.2490234,0-0.4941406-0.0283203-0.7285156-0.0830078
			l-6.7822266-1.5458984c-0.2304688-0.0527344-0.3857422-0.2714844-0.3583984-0.5068359
			c0.0605469-0.5146484,0.0888672-0.9755859,0.0888672-1.4091797c0-6.6523438-5.4111328-12.0649414-12.0615234-12.0649414
			c-2.8452148,0-5.6123047,1.0166016-7.7910156,2.8623047c-0.1020508,0.0878906-0.2382813,0.128418-0.3725586,0.1044922
			c-0.1333008-0.0209961-0.2509766-0.0991211-0.3222656-0.2138672l-8.168457-13.1489258
			c-0.9462891-1.5224609-0.4770508-3.5317383,1.0463867-4.4785156c0.3618164-0.2246094,0.7617188-0.375,1.1777344-0.4448242
			c-0.3710938-1.4321289,0.28125-2.9951172,1.6376953-3.7026367c0.6591797-0.3427734,1.4145508-0.4438477,2.1342773-0.296875
			c0.0927734-1.2709961,0.9306641-2.4023438,2.1743164-2.8344727c0.6796875-0.2373047,1.4277344-0.2358398,2.1005859-0.0053711
			c0.0664063-1.4575195,1.0854492-2.722168,2.5493164-3.0424805c0.996582-0.2192383,2.0507813,0.0683594,2.8046875,0.7202148
			c0.4155273-1.1923828,1.5068359-2.0825195,2.8183594-2.1791992c0.9794922-0.0751953,1.9755859,0.3276367,2.6396484,1.0620117
			c0.6650391-0.7338867,1.6220703-1.1357422,2.6435547-1.0620117c1.1875,0.0874023,2.2167969,0.8325195,2.7050781,1.878418
			c0.7412109-0.6821289,1.7685547-1.0083008,2.8125-0.8066406c1.4853516,0.2880859,2.5400391,1.550293,2.6289063,2.9941406
			c0.7451172-0.3413086,1.6240234-0.3901367,2.4140625-0.1132813c1.5839844,0.5571289,2.4667969,2.2216797,2.0869141,3.8193359
			c0.6679688-0.0952148,1.3339844,0.0195313,1.9277344,0.328125c0.7714844,0.3999023,1.3408203,1.0766602,1.6025391,1.9047852
			c0.2177734,0.6860352,0.2021484,1.4086914-0.0361328,2.074707c0.6806641-0.0244141,1.4033203,0.2114258,1.9785156,0.6401367
			c0.6962891,0.5185547,1.1484375,1.277832,1.2734375,2.1376953c0.109375,0.7495117-0.0410156,1.4970703-0.4257813,2.1376953
			c0.6425781,0.1713867,1.2226563,0.5375977,1.6582031,1.0600586c0.5556641,0.6669922,0.8193359,1.5107422,0.7412109,2.3759766
			c-0.0673828,0.7431641-0.3798828,1.4257813-0.8896484,1.9560547c0.5722656,0.3232422,1.0361328,0.8120117,1.3232422,1.4082031
			c0.7568359,1.5742188,0.1259766,3.4643555-1.4042969,4.2792969c0.4199219,0.4067383,0.7226563,0.9208984,0.875,1.5
			c0.4345703,1.6357422-0.4755859,3.3486328-2.0751953,3.9052734c0.1708984,0.3349609,0.2822266,0.6982422,0.328125,1.0751953
			c0.2099609,1.6855469-0.8837891,3.2255859-2.5439453,3.5810547l-1.0292969,0.2197266
			c0.0957031,0.4541016,0.0908203,0.9248047-0.0136719,1.3847656
			C54.8378906,43.9257813,53.5351563,44.9658203,52.0097656,44.9658203z M45.1064453,42.5224609l6.3837891,1.4550781
			c0.1669922,0.0390625,0.3417969,0.0585938,0.5195313,0.0585938c1.0888672,0,2.0195313-0.7431641,2.2617188-1.8066406
			c0.1044922-0.4550781,0.0693359-0.9248047-0.0996094-1.3583984c-0.0498047-0.1269531-0.0410156-0.2695313,0.0234375-0.3896484
			c0.0644531-0.1191406,0.1787109-0.2050781,0.3125-0.2333984l1.5185547-0.3242188
			c1.1855469-0.2539063,1.9667969-1.3544922,1.8164063-2.5585938c-0.0517578-0.4228516-0.2177734-0.8203125-0.4785156-1.1503906
			c-0.09375-0.1181641-0.1240234-0.2744141-0.0810547-0.4189453c0.0419922-0.1455078,0.1523438-0.2597656,0.2949219-0.3085938
			l0.5439453-0.1855469c1.1474609-0.3935547,1.8027344-1.6210938,1.4912109-2.793457
			c-0.1591797-0.6054688-0.5478516-1.1108398-1.0927734-1.4233398c-0.1494141-0.0854492-0.2392578-0.2475586-0.2324219-0.4199219
			c0.0058594-0.1728516,0.1074219-0.3276367,0.2636719-0.4018555l0.5634766-0.2695313
			c1.1542969-0.5556641,1.6425781-1.9462891,1.0878906-3.1000977c-0.2851563-0.5947266-0.8232422-1.0400391-1.4746094-1.2211914
			c-0.1660156-0.0463867-0.2929688-0.1811523-0.3291016-0.3500977s0.0244141-0.34375,0.15625-0.4545898l0.2998047-0.25
			c0.4765625-0.3974609,0.7705078-0.956543,0.8261719-1.574707c0.0556641-0.6176758-0.1318359-1.2207031-0.5292969-1.6967773
			c-0.4394531-0.5273438-1.0849609-0.8320313-1.7714844-0.8359375c-0.1748047-0.0009766-0.3349609-0.1000977-0.4130859-0.2573242
			c-0.078125-0.1567383-0.0615234-0.3442383,0.0439453-0.4848633l0.2666016-0.3574219
			c0.3710938-0.4975586,0.5263672-1.109375,0.4365234-1.7236328c-0.0898438-0.6137695-0.4130859-1.15625-0.9101563-1.5268555
			c-0.5908203-0.4414063-1.3740234-0.5703125-2.0820313-0.3476563c-0.1806641,0.0576172-0.3730469-0.0009766-0.4941406-0.1445313
			s-0.1435547-0.3452148-0.0576172-0.512207l0.2080078-0.402832c0.2861328-0.5512695,0.3408203-1.1801758,0.1533203-1.7719727
			c-0.1875-0.5913086-0.59375-1.074707-1.1445313-1.3603516c-0.6220703-0.3227539-1.3740234-0.3378906-2.0244141-0.0429688
			c-0.1699219,0.0776367-0.3681641,0.0439453-0.5058594-0.0810547C50.7207031,11.3706055,50.671875,11.175293,50.7333984,11
			l0.1806641-0.5126953c0.4248047-1.2080078-0.2119141-2.5371094-1.4208984-2.9619141
			c-0.8017578-0.2807617-1.7080078-0.0854492-2.3378906,0.4936523c-0.1494141,0.1362305-0.3671875,0.159668-0.5410156,0.0634766
			c-0.1748047-0.0981445-0.2675781-0.2973633-0.2294922-0.4941406l0.0361328-0.1860352
			c0.2431641-1.2573242-0.5820313-2.4785156-1.8398438-2.7226563c-0.9667969-0.1865234-1.9335938,0.2685547-2.4277344,1.0976563
			c-0.1005859,0.1694336-0.3007813,0.2553711-0.4902344,0.2177734c-0.1933594-0.0385742-0.3408203-0.1943359-0.3691406-0.3891602
			c-0.1542969-1.0703125-1.0478516-1.9042969-2.1240234-1.9833984c-0.9072266-0.0708008-1.7246094,0.3842773-2.171875,1.1518555
			c-0.1660156,0.2861328-0.6367188,0.2861328-0.8027344,0c-0.4472656-0.7666016-1.2685547-1.2255859-2.1679688-1.1518555
			c-1.1977539,0.0883789-2.1367188,1.1035156-2.1391602,2.3120117c-0.0004883,0.2094727-0.1416016,0.3930664-0.34375,0.4477539
			c-0.2026367,0.0537109-0.4165039-0.0336914-0.5219727-0.2143555C30.5200195,5.3105469,29.5,4.8525391,28.5317383,5.0629883
			c-1.2509766,0.2734375-2.046875,1.5136719-1.7739258,2.7646484c0.0405273,0.1860352-0.03125,0.402832-0.1884766,0.5092773
			c-0.1572266,0.1069336-0.359375,0.1313477-0.5161133,0.0249023c-0.609375-0.4150391-1.3769531-0.5214844-2.0639648-0.2817383
			c-1.050293,0.3652344-1.6953125,1.4287109-1.5341797,2.5292969c0.0249023,0.1669922-0.043457,0.3344727-0.1777344,0.4370117
			c-0.1352539,0.1015625-0.3154297,0.1225586-0.4682617,0.0556641c-0.6464844-0.2827148-1.3886719-0.2641602-2.0039063,0.0561523
			c-1.1132813,0.5800781-1.5615234,1.9682617-1,3.09375c0.0737305,0.1469727,0.0639648,0.3222656-0.0253906,0.4599609
			c-0.0893555,0.1381836-0.2299805,0.2109375-0.409668,0.2119141c-0.0043945,0-0.0087891,0-0.0126953,0
			c-0.5234375,0-0.9423828,0.1206055-1.3071289,0.3466797c-1.0878906,0.6762695-1.4233398,2.1113281-0.7475586,3.1992188
			l7.8901367,12.7011719c2.277832-1.7734375,5.0888672-2.7441406,7.9750977-2.7441406
			c7.1630859,0,12.9912109,5.8291016,12.9912109,12.9941406C45.1591797,41.7695313,45.1416016,42.1328125,45.1064453,42.5224609z"/>
		<g>
			<path style="fill:#331D14;" d="M8.9243164,32.9321289c0,0-4.2094727,6.9672852,1.0703125,11.9243164
				c0,0,7.1367188,7.7421875,22.3139648,6.96875c15.1767578-0.7734375,16.1054688-17.6542969,7.1230469-23.5390625
				c-8.9814453-5.8847656-17.6533203-5.5756836-23.5385742-1.2387695
				C15.8930664,27.0473633,9.8535156,27.0478516,8.9243164,32.9321289z"/>
			<path style="fill:#190901;" d="M30.1987305,52.34375c-0.0004883,0-0.0009766,0-0.0019531,0
				c-13.7724609,0-20.2739258-6.8798828-20.5439453-7.1728516C4.5019531,40.3369141,8.019043,33.5976563,8.4790039,32.7749023
				c0.9326172-5.5717773,6.2583008-6.1308594,7.2543945-6.1860352c2.918457-2.1123047,6.4482422-3.2280273,10.2182617-3.2280273
				c4.4560547,0,9.2045898,1.5688477,13.7348633,4.5366211c4.7080078,3.0849609,7.0185547,9.4091797,5.4941406,15.0390625
				c-1.5185547,5.6044922-6.2021484,9.0136719-12.8486328,9.3525391C31.6020508,52.3261719,30.8920898,52.34375,30.1987305,52.34375
				z M25.9516602,24.2900391c-3.6201172,0-7.003418,1.0830078-9.7832031,3.1313477l-0.1220703,0.090332L15.894043,27.512207
				c-0.230957,0.0004883-5.65625,0.0800781-6.5107422,5.4916992L9.3222656,33.171875
				C9.1586914,33.4433594,5.3740234,39.8808594,10.3125,44.5175781c0.0869141,0.0917969,6.5439453,6.8964844,19.8847656,6.8974609
				c0,0,0.0004883,0,0.0009766,0c0.6782227,0,1.3725586-0.0175781,2.0869141-0.0537109
				c6.21875-0.3173828,10.5917969-3.4765625,11.9990234-8.6679688c1.421875-5.2519531-0.7255859-11.1474609-5.1074219-14.0185547
				C34.7988281,25.8061523,30.2260742,24.2900391,25.9516602,24.2900391z"/>
		</g>
		<g>
			<path style="fill:#190901;" d="M13.3647461,46.8505859c-1.2739258,0-2.4941406-0.6181641-2.5664063-0.6552734l0.425293-0.8261719
				c0.5683594,0.2910156,2.25,0.9072266,3.199707,0.2783203c0.6533203-0.4335938,0.9272461-1.4179688,0.8149414-2.9248047
				l-0.0205078-0.2773438l0.2358398-0.1494141c0.1137695-0.0742188,2.8232422-1.9199219-0.125-6.8271484l-0.2587891-0.4306641
				l0.4506836-0.2246094c0.0234375-0.0117188,2.3583984-1.1943359,3.0249023-3.2783203
				c0.3364258-1.0517578,0.1918945-2.175293-0.4296875-3.3398438l0.8203125-0.4375
				c0.7446289,1.3964844,0.9106445,2.7646484,0.4926758,4.0664063c-0.6054688,1.8837891-2.2685547,3.0917969-3.0644531,3.578125
				c2.5454102,4.5625,0.5361328,6.8701172-0.184082,7.4980469c0.0864258,1.734375-0.3325195,2.9179688-1.2451172,3.5224609
				C14.4580078,46.7382813,13.9067383,46.8505859,13.3647461,46.8505859z"/>
			<path style="fill:#190901;" d="M17.6235352,49.8203125l-0.6147461-0.6972656
				c0.0229492-0.0195313,2.2856445-2.0576172,1.1264648-3.8613281l-0.5615234-0.8720703l1.0253906,0.1621094
				c0.0288086,0.0058594,2.7851563,0.4238281,3.809082-0.9453125c0.6484375-0.8671875,0.484375-2.3935547-0.4755859-4.4140625
				l0.8388672-0.3984375c1.1342773,2.3867188,1.2617188,4.1943359,0.3789063,5.3710938
				c-0.9511719,1.2685547-2.8007813,1.40625-3.8730469,1.3759766
				C19.7924805,47.2900391,18.4970703,49.0507813,17.6235352,49.8203125z"/>
			<path style="fill:#190901;" d="M21.8095703,51.3466797l-0.2104492-0.9052734
				c0.2543945-0.0605469,0.9482422-0.3251953,1.1064453-0.8173828c0.1674805-0.5214844-0.2905273-1.1992188-0.7041016-1.6757813
				L21.0146484,46.8125l1.4555664,0.3818359c0.027832,0.0068359,2.7626953,0.7070313,4.0893555-0.4609375
				c0.6123047-0.5400391,0.8408203-1.4384766,0.6796875-2.6699219l0.9208984-0.1210938
				c0.2045898,1.5595703-0.128418,2.7333984-0.9882813,3.4892578c-1.0751953,0.9443359-2.7109375,0.9736328-3.8027344,0.8574219
				c0.3061523,0.5869141,0.3798828,1.1308594,0.2192383,1.625C23.2329102,51.0068359,21.8671875,51.3330078,21.8095703,51.3466797z"
				/>
			<path style="fill:#190901;" d="M26.3745117,52.125l-0.230957-0.9003906
				c0.2666016-0.0693359,0.6572266-0.2724609,0.6870117-0.4443359c0.0053711-0.0322266,0.0297852-0.3310547-0.8344727-0.9257813
				l-3.6166992-2.4912109L26.4375,49.0419922c1.159668,0.4814453,3.0297852,0.9140625,3.5605469,0.3837891
				c0.2695313-0.2695313,0.215332-0.9082031-0.152832-1.7998047l0.8588867-0.3554688
				c0.5361328,1.2988281,0.5195313,2.2451172-0.0498047,2.8134766c-0.6679688,0.6650391-1.9077148,0.5771484-2.940918,0.3398438
				c0.0522461,0.1738281,0.0625,0.3476563,0.0317383,0.5205078C27.5942383,51.7900391,26.4990234,52.0927734,26.3745117,52.125z"/>
		</g>
		<g>
			<path style="fill:#331D14;" d="M18.5258789,36.4931641c-3.4072266-6.3481445,0.6191406-14.4013672,9.1367188-15.3305664
				c8.5170898-0.9291992,15.315918,10.7070313,15.315918,10.7070313s8.2236328,16.3950195-11.4438477,17.4790039
				C31.534668,49.3486328,21.9902344,45.8662109,18.5258789,36.4931641z"/>
			<path style="fill:#190901;" d="M31.4648438,49.8173828l-0.0893555-0.0322266
				c-0.3979492-0.1455078-9.7866211-3.6650391-13.2851563-13.1308594c-1.6567383-3.0771484-1.6723633-6.6782227-0.0170898-9.8217773
				c1.8081055-3.4326172,5.2851563-5.6674805,9.5390625-6.1318359c8.6972656-0.956543,15.4941406,10.4672852,15.7675781,10.9345703
				c0.1611328,0.3188477,3.5722656,7.2514648,0.4970703,12.5561523c-1.9638672,3.3876953-6.1083984,5.2792969-12.3168945,5.6210938
				L31.4648438,49.8173828z M28.6357422,21.5742188c-0.3051758,0-0.612793,0.0166016-0.9228516,0.050293
				c-3.9418945,0.4301758-7.1557617,2.4858398-8.8173828,5.6411133c-1.5092773,2.8657227-1.4946289,6.1484375,0.0395508,9.0078125
				c3.2036133,8.6542969,11.7231445,12.2304688,12.6733398,12.6054688
				c5.8183594-0.3378906,9.6748047-2.0703125,11.4628906-5.1503906c2.8251953-4.8671875-0.4746094-11.5834961-0.5078125-11.6508789
				C42.515625,31.9990234,36.3291016,21.5742188,28.6357422,21.5742188z"/>
		</g>
		<path style="fill:#C12B2B;" d="M14.1894531,18.0649414c-2.3232422-6.6586914-9.4477539-2.3227539-6.5043945,1.2392578
			c2.0805664,2.5185547,2.3095703,3.871582,2.3095703,3.871582l-0.9160156,4.9555664
			C4.4594727,35.0009766,2.574707,40.7021484,8.2714844,43.7333984c3.449707,1.8359375,3.3574219-6.1542969,1.6977539-9.8710938
			C11.1303711,24.5693359,16.4038086,24.4135742,14.1894531,18.0649414z"/>
		<path style="fill:#99B9DD;" d="M7.6850586,19.3041992c0,0,0.4262695-3.0976563,3.2329102-4.0268555
			s4.2207031,5.578125-0.8999023,4.1831055L9.190918,21.3999023L7.6850586,19.3041992z"/>
		<path style="fill:#190901;" d="M9.2080078,44.4677734c0,0,0,0-0.0004883,0c-0.3613281,0-0.75-0.109375-1.1542969-0.3242188
			c-1.9448242-1.0351563-3.1518555-2.4423828-3.5869141-4.1845703c-0.7177734-2.8701172,0.6088867-6.6875,4.1728516-12.0068359
			L9.5200195,23.1875c-0.0800781-0.2910156-0.4970703-1.5341797-2.1933594-3.5874023
			c-0.8496094-1.0283203-1.0385742-2.2519531-0.5185547-3.3564453c0.5961914-1.2661133,1.9897461-2.1171875,3.4667969-2.1171875
			c0.9121094,0,3.1611328,0.3691406,4.3530273,3.7856445c1.2641602,3.6240234,0.1923828,5.4023438-1.1650391,7.6542969
			c-1.1064453,1.8354492-2.480957,4.1157227-3.0166016,8.2275391c1.2006836,2.8066406,1.581543,7.7939453,0.3085938,9.7558594
			C10.2626953,44.3085938,9.6420898,44.4677734,9.2080078,44.4677734z M10.2749023,15.0556641
			c-1.1069336,0-2.1870117,0.6513672-2.6264648,1.5839844c-0.3657227,0.7768555-0.2255859,1.6181641,0.3945313,2.3686523
			c2.1352539,2.5844727,2.3994141,4.0297852,2.409668,4.0898438c0.0092773,0.0537109,0.0087891,0.1083984-0.0009766,0.1621094
			l-0.9160156,4.9555664c-0.0117188,0.0625-0.0361328,0.1220703-0.0712891,0.1748047
			c-3.4477539,5.1269531-4.7495117,8.7314453-4.0966797,11.3427734c0.3740234,1.4970703,1.3955078,2.6708984,3.1220703,3.5898438
			C8.7583008,43.4658203,9,43.5390625,9.2080078,43.5390625c0,0,0,0,0.0004883,0
			c0.1914063,0,0.4790039-0.0517578,0.7670898-0.4951172c1.012207-1.5595703,0.7866211-6.265625-0.4306641-8.9921875
			c-0.034668-0.0771484-0.0473633-0.1630859-0.0366211-0.2470703c0.5483398-4.387207,1.9956055-6.7885742,3.1586914-8.7182617
			c1.3271484-2.2016602,2.2041016-3.65625,1.0839844-6.8686523C13.0498047,16.2084961,11.7827148,15.0556641,10.2749023,15.0556641z
			"/>
		<g>
			<path style="fill:#DBC2A1;" d="M26.2597656,46.3837891c0,0,7.1318359,8.5390625,14.1015625,9.0039063
				c0,0,2.1669922,0.1542969,2.7871094-1.2382813c0,0,2.7890625,0.8828125,3.4072266-2.2695313
				c0,0,3.0986328-0.3632813,2.7880859-3.4609375c0,0,1.7470703-1.0839844,0.0214844-3.8710938
				c0,0,0.5966797-2.0136719-1.2617188-3.5625c0,0,1.59375-1.3945313-2.9199219-4.4921875
				c0,0,1.8359375-1.859375-1.2607422-4.1811523l-3.1347656-3.5664063c0,0,2.0507813,2.7841797,2.0507813,9.1069336
				C42.8388672,46.4052734,30.2861328,48.7060547,26.2597656,46.3837891z"/>
			<path style="fill:#190901;" d="M40.5527344,55.8574219c-0.140625,0-0.2246094-0.0058594-0.2246094-0.0058594
				c-7.0839844-0.4726563-14.128418-8.8154297-14.4248047-9.1699219c-0.1445313-0.1728516-0.144043-0.4248047,0.0009766-0.5966797
				c0.1455078-0.1738281,0.3935547-0.2158203,0.5874023-0.1035156c0.8818359,0.5087891,2.2553711,0.7880859,3.8686523,0.7880859
				c4.9882813,0,12.0136719-2.7666016,12.0136719-8.9169922c0-6.0996094-1.9404297-8.8046875-1.9599609-8.831543
				c-0.1474609-0.2001953-0.1113281-0.480957,0.0830078-0.637207c0.1923828-0.1552734,0.4765625-0.1323242,0.6396484,0.0551758
				l3.1347656,3.5664063c1.1679688,0.862793,1.8339844,1.8530273,1.9101563,2.8774414
				c0.0478516,0.6445313-0.1542969,1.1611328-0.3486328,1.4990234c1.9296875,1.3896484,2.9404297,2.6513672,3.0048828,3.7548828
				c0.0185547,0.3212891-0.0458984,0.5771484-0.1308594,0.7695313c1.4003906,1.3828125,1.2597656,2.9902344,1.1523438,3.5615234
				c1.3916016,2.3730469,0.4482422,3.6884766-0.0351563,4.1523438c0.1181641,2.3945313-1.6660156,3.4023438-2.8837891,3.6660156
				c-0.5458984,2.1152344-2.0615234,2.4414063-2.9433594,2.4414063c-0.2373047,0-0.4472656-0.0224609-0.6123047-0.0498047
				C42.6660156,55.734375,41.1943359,55.8574219,40.5527344,55.8574219z M27.8730469,47.4550781
				c2.3242188,2.3984375,7.5136719,7.1347656,12.5195313,7.46875c0.0078125,0.0009766,0.0664063,0.0039063,0.1601563,0.0039063
				c0.4082031,0,1.7714844-0.0693359,2.1708984-0.9677734c0.0957031-0.2148438,0.3369141-0.3203125,0.5634766-0.2539063
				c0.0029297,0.0009766,0.3056641,0.0927734,0.7099609,0.0927734c1.1337891,0,1.8417969-0.6757813,2.1025391-2.0087891
				C46.1386719,51.59375,46.3007813,51.4433594,46.5,51.4189453c0.2705078-0.0341797,2.6376953-0.4013672,2.3818359-2.9541016
				c-0.0175781-0.1757813,0.0664063-0.3476563,0.2167969-0.4404297c0.0498047-0.0332031,1.3134766-0.9033203-0.1289063-3.2324219
				c-0.0693359-0.1123047-0.0878906-0.2490234-0.0498047-0.3759766c0.0195313-0.0683594,0.4746094-1.75-1.1142578-3.0742188
				c-0.1044922-0.0869141-0.1650391-0.2148438-0.1669922-0.3505859c-0.0009766-0.1357422,0.0566406-0.265625,0.1591797-0.3554688
				l0,0c-0.0019531,0,0.1416016-0.1552734,0.109375-0.484375c-0.0478516-0.4912109-0.5-1.5683594-2.9863281-3.2753906
				c-0.1132813-0.0771484-0.1865234-0.2021484-0.2001953-0.3388672c-0.0126953-0.1367188,0.0351563-0.2724609,0.1318359-0.3701172
				c0.0166016-0.0175781,0.4619141-0.4941406,0.4013672-1.2304688c-0.0615234-0.7304688-0.6171875-1.5087891-1.609375-2.2529297
				l-1.2167969-1.378418c0.4628906,1.5185547,0.8759766,3.6772461,0.8759766,6.5473633
				c0,6.7919922-7.5693359,9.8466797-12.9433594,9.8466797C29.4580078,47.6992188,28.6162109,47.6152344,27.8730469,47.4550781z"/>
		</g>
		<circle style="fill:#211005;" cx="11.0109863" cy="17.3178711" r="0.9001465"/>
		<path style="fill:#331D14;" d="M23.7910156,42.0693359c0,0,3.4467773,6.3085938,4.2788086,6.2519531
			s11.7260742,6.9941406,12.1137695,1.0273438c0,0,4.9511719,0.6191406,4.5-4.0273438c0,0,1.9492188-0.6347656,0.5-3.7167969
			l-1.4667969-3.7519531c0,0,0.7089844-1.390625-0.4130859-4.4550781c-1.1210938-3.065918-4.3378906-6.8144531-6.8144531-7.1245117
			C34.0117188,25.9633789,17.4414063,27.5112305,23.7910156,42.0693359z"/>
		<g>
			<path style="fill:#331D14;" d="M30.3652344,49.3486328c0,0,5.6835938,1.8847656,6.5078125-1.1835938
				c0,0,5.703125-1.375,4.4023438-5.2714844c0,0,2.1767578-1.7421875,0.9755859-5.0410156
				c0,0,1.2763672-5.2797852,0.3613281-7.3520508"/>
			<path style="fill:#664434;" d="M33.7714844,50.2861328c-1.7109375,0-3.4179688-0.5556641-3.5214844-0.5908203
				l0.2299805-0.6933594c0.0341797,0.0107422,3.4223633,1.1142578,5.1586914,0.1806641
				c0.4580078-0.2470703,0.7470703-0.6113281,0.8808594-1.1123047l0.0566406-0.2099609l0.2109375-0.0507813
				c0.0292969-0.0068359,2.9882813-0.7431641,3.9902344-2.5517578c0.3779297-0.6845703,0.4277344-1.4199219,0.1513672-2.2480469
				l-0.0800781-0.2402344l0.1972656-0.1601563c0.0800781-0.0654297,1.953125-1.6347656,0.8613281-4.6318359l-0.0371094-0.1035156
				l0.0253906-0.1074219c0.0126953-0.0517578,1.2373047-5.1831055,0.3818359-7.1186523l0.6699219-0.2949219
				c0.890625,2.0175781-0.1328125,6.6899414-0.3154297,7.4790039c0.9863281,2.8427734-0.4130859,4.6269531-0.9414063,5.1699219
				c0.2597656,0.9355469,0.1679688,1.8134766-0.2744141,2.6113281c-1.0039063,1.8125-3.5146484,2.6425781-4.2539063,2.8525391
				c-0.2099609,0.5957031-0.6054688,1.0527344-1.1777344,1.3613281
				C35.3496094,50.1679688,34.5605469,50.2861328,33.7714844,50.2861328z"/>
		</g>
		<g>
			<path style="fill:#331D14;" d="M20.1811523,40.1884766c0,0,8.0957031,7.4609375,8.6459961,2.5175781
				c0,0,5.4072266,1.3457031,4.4550781-3.4492188c0,0,4.4638672,0,2.8652344-4.7949219c0,0,4.4736328-0.6015625,2.3964844-4.1977539
				c0,0,2.2783203-0.7890625-0.9375-4.9643555"/>
			<path style="fill:#664434;" d="M27.2685547,44.7607422c-2.5844727,0-6.8178711-3.8271484-7.3349609-4.3037109
				l0.4951172-0.5371094c1.4526367,1.3378906,5.59375,4.6767578,7.2954102,4.0371094
				c0.418457-0.15625,0.6601563-0.5791016,0.7397461-1.2910156l0.0458984-0.4150391l0.4052734,0.1005859
				c0.0249023,0.0068359,2.4370117,0.5859375,3.5473633-0.4746094c0.5395508-0.515625,0.6948242-1.3730469,0.4619141-2.5488281
				l-0.0864258-0.4355469l0.4433594-0.0009766c0.0166016,0,1.6503906-0.0195313,2.4267578-1.1005859
				c0.5273438-0.734375,0.5585938-1.8164063,0.0927734-3.2138672l-0.1396484-0.4179688l0.4375-0.0595703
				c0.0185547-0.0029297,1.9160156-0.2753906,2.4755859-1.4155273c0.2871094-0.5878906,0.1708984-1.340332-0.3466797-2.2373047
				l-0.2216797-0.3833008l0.4179688-0.1450195c0.0097656-0.003418,0.3583984-0.1416016,0.4873047-0.6005859
				c0.1328125-0.4716797,0.1025391-1.5917969-1.5947266-3.7949219l0.5800781-0.4462891
				c1.4560547,1.8911133,2.03125,3.3945313,1.7099609,4.46875c-0.1201172,0.4013672-0.3525391,0.6791992-0.5742188,0.8535156
				c0.4951172,0.9907227,0.5615234,1.8671875,0.1972656,2.6088867c-0.546875,1.1132813-1.9160156,1.5693359-2.6132813,1.734375
				c0.4082031,1.4511719,0.3017578,2.6201172-0.3173828,3.4804688c-0.7246094,1.0048828-1.9443359,1.2890625-2.5898438,1.3681641
				c0.1689453,1.2382813-0.0800781,2.1835938-0.7431641,2.8164063c-1.1044922,1.0507813-3.019043,0.8701172-3.8378906,0.7314453
				c-0.1665039,0.7753906-0.5512695,1.2802734-1.1479492,1.5029297
				C27.7626953,44.7236328,27.5234375,44.7607422,27.2685547,44.7607422z"/>
		</g>
		<g>
			<path style="fill:#331D14;" d="M17.6757813,32.1293945c0,0,3.3696289,5.7231445,4.4384766,1.980957
				c0,0,3.1704102,0.8984375,3.5507813-1.980957c0,0,3.6777344-0.4785156,3.2963867-2.6396484
				c0,0,3.4111328-0.8486328,2.7836914-3.3632813c0,0,2.1474609-1.2084961,0-4.1123047"/>
			<path style="fill:#664434;" d="M20.9941406,35.7451172c-1.5336914,0-3.2880859-2.8432617-3.6333008-3.4301758
				l0.6298828-0.3710938c0.7871094,1.3344727,2.2573242,3.168457,3.0625,3.065918
				c0.3632813-0.0458984,0.5864258-0.5693359,0.7094727-1l0.0996094-0.3496094l0.3510742,0.0986328
				c0.0141602,0.0039063,1.3862305,0.3759766,2.2915039-0.2207031c0.4399414-0.2910156,0.7084961-0.7802734,0.7978516-1.456543
				l0.0366211-0.277832l0.2783203-0.0371094c0.0205078-0.0024414,2.0473633-0.2792969,2.7680664-1.2626953
				c0.2080078-0.2836914,0.2783203-0.5942383,0.2158203-0.9506836l-0.0595703-0.3349609l0.3305664-0.0830078
				c0.125-0.0317383,3.0488281-0.7924805,2.5175781-2.9204102l-0.0673828-0.2705078l0.2431641-0.1367188
				c0.0214844-0.012207,0.5820313-0.3457031,0.7319336-1.0703125c0.1455078-0.706543-0.1391602-1.5493164-0.8466797-2.5058594
				l0.5878906-0.4345703c0.8417969,1.1376953,1.1679688,2.1826172,0.9707031,3.1049805
				c-0.152832,0.7163086-0.5874023,1.1650391-0.8583984,1.3837891c0.1787109,1.0874023-0.2866211,2.0400391-1.3574219,2.7675781
				c-0.5361328,0.3647461-1.1020508,0.5874023-1.4394531,0.699707c0.0102539,0.4296875-0.1171875,0.8266602-0.3798828,1.1845703
				c-0.7324219,0.9975586-2.3476563,1.3896484-2.9921875,1.5102539c-0.1542969,0.7612305-0.5161133,1.3334961-1.078125,1.7026367
				c-0.8740234,0.5761719-1.9897461,0.4833984-2.5454102,0.3867188c-0.2719727,0.7275391-0.6791992,1.1298828-1.2133789,1.1982422
				C21.0952148,35.7421875,21.0449219,35.7451172,20.9941406,35.7451172z"/>
		</g>
		<path style="fill:#190901;" d="M40.5527344,55.8574219c-0.140625,0-0.2246094-0.0058594-0.2246094-0.0058594
			c-6.8867188-0.4599609-13.7915039-8.4228516-14.387207-9.1259766c-2.59375-1.8994141-6.0429688-5.1796875-7.8505859-10.0712891
			c-1.6567383-3.0771484-1.6723633-6.6782227-0.0170898-9.8217773c1.8081055-3.4326172,5.2851563-5.6674805,9.5390625-6.1318359
			c5.6611328-0.6171875,10.5390625,3.9638672,13.5429688,7.7597656l3.1162109,3.5449219
			c1.1679688,0.862793,1.8339844,1.8530273,1.9101563,2.8774414c0.0478516,0.6445313-0.1542969,1.1611328-0.3486328,1.4990234
			c1.9296875,1.3896484,2.9404297,2.6513672,3.0048828,3.7548828c0.0185547,0.3212891-0.0458984,0.5771484-0.1308594,0.7695313
			c1.4003906,1.3828125,1.2597656,2.9902344,1.1523438,3.5615234c1.3916016,2.3730469,0.4482422,3.6884766-0.0351563,4.1523438
			c0.1181641,2.3945313-1.6660156,3.4023438-2.8837891,3.6660156c-0.5458984,2.1152344-2.0615234,2.4414063-2.9433594,2.4414063l0,0
			c-0.2373047,0-0.4472656-0.0224609-0.6123047-0.0498047C42.6660156,55.734375,41.1943359,55.8574219,40.5527344,55.8574219z
			 M28.6362305,21.5742188c-0.3051758,0-0.612793,0.0166016-0.9233398,0.050293
			c-3.9418945,0.4301758-7.1557617,2.4858398-8.8173828,5.6411133c-1.5092773,2.8657227-1.4946289,6.1484375,0.0395508,9.0078125
			c1.7646484,4.7617188,5.1040039,7.9160156,7.5986328,9.7353516c0.0307617,0.0224609,0.059082,0.0488281,0.0834961,0.078125
			c0.0703125,0.0839844,7.0732422,8.3896484,13.7753906,8.8369141c0.0078125,0.0009766,0.0664063,0.0039063,0.1601563,0.0039063
			c0.4082031,0,1.7714844-0.0693359,2.1708984-0.9677734c0.0957031-0.2148438,0.3369141-0.3203125,0.5634766-0.2539063
			c0.0029297,0.0009766,0.3056641,0.0927734,0.7099609,0.0927734c1.1337891,0,1.8417969-0.6757813,2.1025391-2.0087891
			C46.1386719,51.59375,46.3007813,51.4433594,46.5,51.4189453c0.2705078-0.0341797,2.6376953-0.4013672,2.3818359-2.9541016
			c-0.0175781-0.1757813,0.0664063-0.3466797,0.2167969-0.4404297c0.0498047-0.0332031,1.3134766-0.9033203-0.1289063-3.2324219
			c-0.0693359-0.1123047-0.0878906-0.2490234-0.0498047-0.3759766c0.0195313-0.0683594,0.4746094-1.75-1.1142578-3.0742188
			c-0.1044922-0.0869141-0.1650391-0.2148438-0.1669922-0.3505859c-0.0009766-0.1357422,0.0566406-0.265625,0.1591797-0.3554688l0,0
			c-0.0019531,0,0.1416016-0.1552734,0.109375-0.484375c-0.0478516-0.4912109-0.5-1.5683594-2.9863281-3.2753906
			c-0.1132813-0.0771484-0.1865234-0.2021484-0.2001953-0.3388672c-0.0126953-0.1367188,0.0351563-0.2724609,0.1318359-0.3701172
			c0.0166016-0.0175781,0.4619141-0.4941406,0.4013672-1.2304688c-0.0615234-0.7304688-0.6171875-1.5087891-1.609375-2.2529297
			l-3.2021484-3.628418C38.2216797,26.25,33.7568359,21.5742188,28.6362305,21.5742188z"/>
		<path style="fill:#190901;" d="M23.2636719,40.2851563c-1.5756836,0-4.2402344-2.6123047-5.0712891-3.46875l0.6669922-0.6464844
			c1.6567383,1.7070313,3.8554688,3.3974609,4.4755859,3.1777344c0.0986328-0.0332031,0.1357422-0.234375,0.1494141-0.3505859
			l0.0625-0.5498047l0.53125,0.1572266c0.0170898,0.0058594,1.628418,0.4677734,2.7192383-0.2470703
			c0.5664063-0.3710938,0.9111328-1.0175781,1.0239258-1.921875l0.0439453-0.3535156l0.3535156-0.0488281
			c0.0239258-0.0039063,2.4311523-0.3515625,3.3349609-1.5810547c0.2802734-0.3818359,0.3774414-0.8037109,0.2963867-1.2890625
			l-0.0693359-0.4160156l0.4091797-0.1088867c0.1518555-0.0405273,3.7163086-1.0229492,3.0649414-3.7861328l-0.0878906-0.3740234
			l0.3505859-0.1567383c0.0214844-0.0102539,0.6289063-0.3022461,0.8271484-1.0478516
			c0.21875-0.8178711-0.1337891-1.9179688-1.0185547-3.1811523l0.7617188-0.5332031
			c1.0693359,1.527832,1.4560547,2.8662109,1.1484375,3.9775391c-0.2080078,0.7519531-0.6865234,1.2050781-1.0126953,1.4375
			c0.3730469,2.4892578-1.8662109,3.9233398-3.4169922,4.4477539c0.0136719,0.5761719-0.1557617,1.1064453-0.5058594,1.5820313
			c-0.9111328,1.2382813-2.8256836,1.7333984-3.6113281,1.8896484c-0.1938477,1.015625-0.659668,1.7695313-1.3881836,2.2441406
			c-1.0419922,0.6796875-2.3344727,0.5810547-3.0175781,0.4628906c-0.1586914,0.3789063-0.4248047,0.5498047-0.6494141,0.6269531
			C23.5195313,40.2666016,23.3950195,40.2851563,23.2636719,40.2851563z"/>
		<path style="fill:#190901;" d="M29.559082,48.1035156c-2.5869141,0-6.8510742-4.2236328-7.3671875-4.7441406l0.6601563-0.6542969
			c1.9594727,1.9765625,5.6015625,4.9150391,7.0307617,4.4208984c0.1352539-0.0478516,0.546875-0.1923828,0.6557617-1.2333984
			l0.0522461-0.5029297l0.4970703,0.0947266c0.0244141,0.0039063,2.4960938,0.4580078,3.6513672-0.6933594
			c0.5605469-0.5576172,0.7324219-1.4453125,0.5107422-2.6367188l-0.1005859-0.5449219l0.5556641-0.0048828
			c0.0126953,0,1.28125-0.0205078,1.9472656-0.9326172c0.5419922-0.7431641,0.5742188-1.8935547,0.0976563-3.4189453
			l-0.1621094-0.5195313l0.5390625-0.0791016c0.0166016-0.0019531,1.7460938-0.2685547,2.2919922-1.3583984
			c0.2978516-0.5947266,0.1933594-1.3681641-0.3105469-2.2978516l-0.2275391-0.4189453l0.4248047-0.2163086
			c0.0058594-0.003418,0.3427734-0.1992188,0.4619141-0.7446289c0.1445313-0.6586914-0.0048828-1.8891602-1.5380859-4.0102539
			l0.7539063-0.5439453c1.4121094,1.9550781,1.9775391,3.5717773,1.6806641,4.8051758
			c-0.1201172,0.4970703-0.3564453,0.8291016-0.5625,1.0361328c0.4970703,1.0693359,0.546875,2.0136719,0.1464844,2.8105469
			c-0.5429688,1.0791016-1.7695313,1.5546875-2.4726563,1.7460938c0.4130859,1.5966797,0.2861328,2.8623047-0.3789063,3.765625
			c-0.6279297,0.8544922-1.5712891,1.1503906-2.1582031,1.2519531c0.1416016,1.2744141-0.1416016,2.2724609-0.8457031,2.9726563
			c-1.1572266,1.1494141-3.1088867,1.1064453-4.0053711,1.0107422c-0.1777344,0.8056641-0.5786133,1.3222656-1.1958008,1.5390625
			C29.9956055,48.0712891,29.7836914,48.1035156,29.559082,48.1035156z"/>
		<path style="fill:#190901;" d="M37.3876953,52.4726563c-3.6054688,0.0009766-8.9438477-3.4921875-9.206543-3.6660156
			l0.5117188-0.7753906c1.9692383,1.2988281,7.5932617,4.4257813,9.9399414,3.2714844
			c0.6552734-0.3222656,1.0117188-0.9726563,1.0878906-1.9892578l0.0341797-0.4658203l0.4667969,0.0380859
			c0.0244141,0.0009766,2.5742188,0.1923828,3.6533203-1.0664063c0.4814453-0.5615234,0.6015625-1.3652344,0.3564453-2.390625
			l-0.1005859-0.421875l0.4140625-0.1289063c0.0009766-0.0009766,0.3076172-0.1210938,0.4912109-0.6103516
			c0.2441406-0.6484375,0.3720703-2.2626953-1.5117188-5.7958984l-0.2851563-0.5234375l0.015625-0.1455078
			c0.0302734-0.2822266,0.0712891-0.5615234,0.1123047-0.8417969c0.2246094-1.5341797,0.4375-2.9833984-1.0029297-5.4594727
			l0.8027344-0.4667969c1.6035156,2.7563477,1.3466797,4.512207,1.1191406,6.0610352
			c-0.0322266,0.2216797-0.0644531,0.4414063-0.0908203,0.6640625l0.1484375,0.2734375
			c1.5957031,2.9931641,2.1113281,5.2236328,1.5351563,6.6318359c-0.1865234,0.4550781-0.4521484,0.7304688-0.671875,0.8916016
			c0.2099609,1.1757813-0.0009766,2.1396484-0.6289063,2.8701172c-1.0712891,1.2480469-3.0537109,1.4003906-3.9609375,1.4003906
			c-0.0068359,0-0.0146484,0-0.0214844,0c-0.1777344,1.1152344-0.6992188,1.890625-1.5537109,2.3095703
			C38.5625,52.3720703,38,52.4726563,37.3876953,52.4726563z"/>
	</g>
</g>
</svg>
