<?xml version="1.0" encoding="utf-8"?>
<!-- Generator: Adobe Illustrator 15.0.2, SVG Export Plug-In . SVG Version: 6.00 Build 0)  -->
<!DOCTYPE svg PUBLIC "-//W3C//DTD SVG 1.1//EN" "http://www.w3.org/Graphics/SVG/1.1/DTD/svg11.dtd">
<svg version="1.1" id="レイヤー_1" xmlns="http://www.w3.org/2000/svg" xmlns:xlink="http://www.w3.org/1999/xlink" x="0px"
	 y="0px" width="64px" height="64px" viewBox="0 0 64 64" enable-background="new 0 0 64 64" xml:space="preserve">
<g>
	<g>
		<path fill="none" stroke="#C10021" stroke-width="3" stroke-miterlimit="10" d="M21.587,60.117c0,0-13.23-9.087-16.905-19.233
			C1.006,30.739,6.38,21.64,14.777,22.381c8.396,0.741,9.203,10.634,9.203,10.634s2.526-9.598,10.923-8.857
			c8.396,0.741,12.094,10.64,6.697,19.984C36.205,53.488,21.587,60.117,21.587,60.117z"/>
		
			<linearGradient id="SVGID_1_" gradientUnits="userSpaceOnUse" x1="24.186" y1="18.481" x2="24.186" y2="55.9983" gradientTransform="matrix(0.9961 0.0879 -0.0879 0.9961 2.8654 -2.8475)">
			<stop  offset="0" style="stop-color:#FFFFFF"/>
			<stop  offset="0.5091" style="stop-color:#FF1F3F"/>
			<stop  offset="0.6615" style="stop-color:#FF2243"/>
			<stop  offset="0.8165" style="stop-color:#FF2C4F"/>
			<stop  offset="0.9723" style="stop-color:#FF3C64"/>
			<stop  offset="1" style="stop-color:#FF3F68"/>
		</linearGradient>
		<path fill="url(#SVGID_1_)" d="M21.587,60.117c0,0-13.23-9.087-16.905-19.233C1.006,30.739,6.38,21.64,14.777,22.381
			c8.396,0.741,9.203,10.634,9.203,10.634s2.526-9.598,10.923-8.857c8.396,0.741,12.094,10.64,6.697,19.984
			C36.205,53.488,21.587,60.117,21.587,60.117z"/>
	</g>
	<g>
		<path fill="none" stroke="#C10021" stroke-width="3" stroke-miterlimit="10" d="M47.379,24.438c0,0-6.704-5.411-8.251-10.993
			c-1.546-5.581,1.706-10.228,6.168-9.483s4.485,6.071,4.485,6.071s1.749-5.031,6.211-4.287c4.463,0.744,6.032,6.195,2.757,10.972
			C55.477,21.495,47.379,24.438,47.379,24.438z"/>
		
			<linearGradient id="SVGID_2_" gradientUnits="userSpaceOnUse" x1="47.5957" y1="0.5195" x2="47.5957" y2="20.6572" gradientTransform="matrix(0.9864 0.1645 -0.1645 0.9864 4.2779 -6.4546)">
			<stop  offset="0" style="stop-color:#FFFFFF"/>
			<stop  offset="0.5091" style="stop-color:#FF1F3F"/>
			<stop  offset="0.6615" style="stop-color:#FF2243"/>
			<stop  offset="0.8165" style="stop-color:#FF2C4F"/>
			<stop  offset="0.9723" style="stop-color:#FF3C64"/>
			<stop  offset="1" style="stop-color:#FF3F68"/>
		</linearGradient>
		<path fill="url(#SVGID_2_)" d="M47.379,24.438c0,0-6.704-5.411-8.251-10.993c-1.546-5.581,1.706-10.228,6.168-9.483
			s4.485,6.071,4.485,6.071s1.749-5.031,6.211-4.287c4.463,0.744,6.032,6.195,2.757,10.972
			C55.477,21.495,47.379,24.438,47.379,24.438z"/>
	</g>
</g>
</svg>
