<?xml version="1.0" encoding="utf-8"?>
<!-- Generator: Adobe Illustrator 15.0.2, SVG Export Plug-In . SVG Version: 6.00 Build 0)  -->
<!DOCTYPE svg PUBLIC "-//W3C//DTD SVG 1.1//EN" "http://www.w3.org/Graphics/SVG/1.1/DTD/svg11.dtd">
<svg version="1.1" id="レイヤー_1" xmlns="http://www.w3.org/2000/svg" xmlns:xlink="http://www.w3.org/1999/xlink" x="0px"
	 y="0px" width="64px" height="64px" viewBox="0 0 64 64" enable-background="new 0 0 64 64" xml:space="preserve">
<g>
	<g>
		<linearGradient id="SVGID_1_" gradientUnits="userSpaceOnUse" x1="31.9995" y1="2.9956" x2="31.9995" y2="60.9864">
			<stop  offset="0" style="stop-color:#1FB8FF"/>
			<stop  offset="1" style="stop-color:#0070FF"/>
		</linearGradient>
		<path fill="url(#SVGID_1_)" stroke="#0F50F2" stroke-width="2" stroke-miterlimit="10" d="M62.205,50.205c0,6.627-5.373,12-12,12
			h-36.41c-6.627,0-12-5.373-12-12v-36.41c0-6.627,5.373-12,12-12h36.41c6.627,0,12,5.373,12,12V50.205z"/>
		<g>
			<path opacity="0.28" fill="#FFFFFF" d="M2.672,13.368c-0.032,0.354-0.054,0.71-0.054,1.071v12.594
				c0.006,0.006,0.012,0.012,0.017,0.018L2.672,13.368z"/>
			<path opacity="0.28" fill="#FFFFFF" d="M60.106,23.57c1.188-5.803,1.222-9.418,1.222-10.194
				C60.79,7.428,55.797,2.767,49.71,2.767H14.291c-6.076,0-11.063,4.642-11.617,10.572c0.02,0.349,0.497,4.034,1.293,10.308
				C11.206,30.701,21.092,35.055,32,35.055C42.945,35.055,52.859,30.67,60.106,23.57z"/>
			<path opacity="0.28" fill="#FFFFFF" d="M61.328,13.379l0.039,13.668c0.005-0.006,0.01-0.01,0.015-0.016V14.439
				C61.382,14.081,61.359,13.729,61.328,13.379z"/>
		</g>
		<path fill="#FFFFFF" d="M2.674,27.586c0,0-0.006-10.92-0.028-13.859c-0.027-3.6,3.243-10.89,10.375-10.89
			c6.639,0,16.803,0,16.803,0S17.118,3.651,13.02,4.471c-4.098,0.82-7.493,6.044-8.442,9.263
			C3.198,18.415,2.674,27.586,2.674,27.586z"/>
		<path fill="#0D62B5" d="M61.001,37.832c0,0,0.006,10.233,0.027,12.989c0.026,3.373-3.141,10.207-10.048,10.207
			c-6.428,0-16.27,0-16.27,0s12.304-0.764,16.272-1.532c3.967-0.769,7.254-5.663,8.174-8.681
			C60.493,46.427,61.001,37.832,61.001,37.832z"/>
	</g>
	<g>
		<path fill="#FFFFFF" d="M25.311,22.773h-4.921v4.151h-5.382v-9.227h14.148v-3.076h5.537v3.076h14.303v9.227h-4.307l3.076,1.385
			c-0.719,1.948-1.385,3.229-2,3.845s-1.486,0.923-2.613,0.923h-7.074c-1.131,0-2.053-0.358-2.77-1.077
			c-0.718-0.716-1.076-1.537-1.076-2.461v-6.766H26.08l4.306,1.537c-1.026,4.614-4.102,8.101-9.227,10.458h25.066v5.075H34.846
			v4.459h14.609v5.075h-34.91v-5.075h14.609v-4.459H17.621v-5.075h0.461l-2.614-4.46C21.209,29.285,24.489,26.771,25.311,22.773z
			 M38.998,28.463h2.307c0.408-0.101,0.768-0.973,1.076-2.614l1.23,0.615v-3.69H37.92v4.306
			C37.715,28.002,38.074,28.463,38.998,28.463z"/>
	</g>
</g>
</svg>
