<?xml version="1.0" encoding="UTF-8" standalone="no"?>
<!-- Generator: Adobe Illustrator 15.0.2, SVG Export Plug-In . SVG Version: 6.00 Build 0)  -->

<svg
   xmlns:dc="http://purl.org/dc/elements/1.1/"
   xmlns:cc="http://creativecommons.org/ns#"
   xmlns:rdf="http://www.w3.org/1999/02/22-rdf-syntax-ns#"
   xmlns:svg="http://www.w3.org/2000/svg"
   xmlns="http://www.w3.org/2000/svg"
   xmlns:sodipodi="http://sodipodi.sourceforge.net/DTD/sodipodi-0.dtd"
   xmlns:inkscape="http://www.inkscape.org/namespaces/inkscape"
   version="1.1"
   id="レイヤー_1"
   x="0px"
   y="0px"
   width="64px"
   height="64px"
   viewBox="0 0 64 64"
   enable-background="new 0 0 64 64"
   xml:space="preserve"
   inkscape:version="0.48.5 r10040"
   sodipodi:docname="up.svg"><metadata
     id="metadata36"><rdf:RDF><cc:Work
         rdf:about=""><dc:format>image/svg+xml</dc:format><dc:type
           rdf:resource="http://purl.org/dc/dcmitype/StillImage" /></cc:Work></rdf:RDF></metadata><defs
     id="defs34" /><sodipodi:namedview
     pagecolor="#ffffff"
     bordercolor="#666666"
     borderopacity="1"
     objecttolerance="10"
     gridtolerance="10"
     guidetolerance="10"
     inkscape:pageopacity="0"
     inkscape:pageshadow="2"
     inkscape:window-width="640"
     inkscape:window-height="480"
     id="namedview32" /><g
     id="g3"><linearGradient
       id="SVGID_1_"
       gradientUnits="userSpaceOnUse"
       x1="32"
       y1="2.9961"
       x2="32"
       y2="60.9865"><stop
         offset="0"
         style="stop-color:#FF1200"
         id="stop6" /><stop
         offset="1"
         style="stop-color:#FF0000"
         id="stop8" /></linearGradient><path
       fill="url(#SVGID_1_)"
       stroke="#BF0000"
       stroke-width="2"
       stroke-miterlimit="10"
       d="M62.205,50.205c0,6.627-5.373,12-12,12   h-36.41c-6.627,0-12-5.373-12-12v-36.41c0-6.627,5.373-12,12-12h36.41c6.627,0,12,5.373,12,12V50.205z"
       id="path10" /><g
       id="g12"><path
         opacity="0.28"
         fill="#FFFFFF"
         d="M2.672,13.369c-0.032,0.353-0.054,0.709-0.054,1.071v12.594    c0.006,0.006,0.012,0.012,0.017,0.018L2.672,13.369z"
         id="path14" /><path
         opacity="0.28"
         fill="#FFFFFF"
         d="M60.106,23.57c1.188-5.802,1.222-9.417,1.222-10.194C60.79,7.428,55.797,2.767,49.71,2.767    H14.291c-6.076,0-11.062,4.642-11.617,10.572c0.02,0.349,0.497,4.034,1.293,10.307C11.207,30.701,21.092,35.055,32,35.055    C42.945,35.055,52.859,30.669,60.106,23.57z"
         id="path16" /><path
         opacity="0.28"
         fill="#FFFFFF"
         d="M61.328,13.379l0.039,13.667c0.005-0.005,0.01-0.01,0.015-0.015V14.439    C61.382,14.082,61.359,13.729,61.328,13.379z"
         id="path18" /></g><path
       fill="#FFFFFF"
       d="M2.674,27.586c0,0-0.006-10.919-0.028-13.859c-0.027-3.6,3.244-10.89,10.375-10.89   c6.639,0,16.803,0,16.803,0S17.118,3.651,13.02,4.471s-7.494,6.043-8.442,9.263C3.198,18.415,2.674,27.586,2.674,27.586z"
       id="path20" /><path
       fill="#BC0000"
       d="M61.001,37.832c0,0,0.006,10.233,0.027,12.989c0.026,3.373-3.141,10.207-10.048,10.207   c-6.428,0-16.27,0-16.27,0s12.304-0.764,16.272-1.532c3.967-0.769,7.254-5.663,8.174-8.681   C60.493,46.427,61.001,37.832,61.001,37.832z"
       id="path22" /><g
       id="g24"><path
         fill="#FFFFFF"
         d="M25.501,19.541c-0.092,0.346-0.138,0.853-0.138,1.521v17.211c0,2.166-0.681,3.884-2.039,5.15    c-1.359,1.244-3.122,1.866-5.287,1.866c-2.167,0-3.918-0.622-5.254-1.866c-1.382-1.267-2.074-2.984-2.074-5.15V21.061    c0-0.691-0.046-1.198-0.138-1.521h5.91c-0.093,0.369-0.139,0.876-0.139,1.521v16.728c0,1.612,0.564,2.419,1.694,2.419    c1.128,0,1.692-0.807,1.692-2.419V21.027c0-0.53-0.046-1.025-0.138-1.486H25.501z"
         id="path26" /><path
         fill="#FFFFFF"
         d="M42.99,27.524c0,2.35-0.645,4.216-1.935,5.599c-1.292,1.337-3.1,2.005-5.427,2.005h-1.244v8.122    c0,0.599,0.046,1.071,0.138,1.417h-6.049c0.093-0.3,0.14-0.772,0.14-1.417V20.992c0-0.507-0.047-0.99-0.14-1.452h6.844    c2.442,0,4.344,0.714,5.703,2.143C42.333,23.112,42.99,25.059,42.99,27.524z M36.908,27.42c0-1.106-0.161-1.854-0.484-2.246    c-0.299-0.346-0.979-0.53-2.039-0.553v5.703c1.014-0.046,1.682-0.288,2.004-0.726C36.734,29.183,36.908,28.457,36.908,27.42z"
         id="path28" /><path
         fill="#FFFFFF"
         d="M53.429,43.215l-1.521,1.521h-3.767l-1.485-1.485v-3.768l1.417-1.451h3.939l1.417,1.416V43.215z     M53.049,27.628l-1.832,9.504h-2.558l-1.97-9.504v-7.465l1.175-1.452h3.94l1.244,1.417V27.628z"
         id="path30" /></g></g></svg>