<?xml version="1.0" encoding="utf-8"?>
<!-- Generator: Adobe Illustrator 15.0.2, SVG Export Plug-In . SVG Version: 6.00 Build 0)  -->
<!DOCTYPE svg PUBLIC "-//W3C//DTD SVG 1.1//EN" "http://www.w3.org/Graphics/SVG/1.1/DTD/svg11.dtd">
<svg version="1.1" id="レイヤー_1" xmlns="http://www.w3.org/2000/svg" xmlns:xlink="http://www.w3.org/1999/xlink" x="0px"
	 y="0px" width="64px" height="64px" viewBox="0 0 64 64" style="enable-background:new 0 0 64 64;" xml:space="preserve">
<g>
	<g>
		<circle style="fill:#231815;" cx="35.0332031" cy="30.109375" r="25.7998047"/>
		<path style="fill:#231815;" d="M35.0332031,56.6582031c-14.6396484,0-26.5498047-11.9101563-26.5498047-26.5488281
			c0-14.640625,11.9101563-26.5507813,26.5498047-26.5507813S61.5830078,15.46875,61.5830078,30.109375
			C61.5830078,44.7480469,49.6728516,56.6582031,35.0332031,56.6582031z M35.0332031,5.0585938
			c-13.8125,0-25.0498047,11.2373047-25.0498047,25.0507813c0,13.8115234,11.2373047,25.0488281,25.0498047,25.0488281
			S60.0830078,43.9208984,60.0830078,30.109375C60.0830078,16.2958984,48.8457031,5.0585938,35.0332031,5.0585938z"/>
	</g>
	<g>
		<circle style="fill:#FFFFFF;" cx="28.9672852" cy="33.8925781" r="25.800293"/>
		<path style="fill:#231815;" d="M28.9677734,60.4414063c-14.6401367,0-26.5507813-11.9101563-26.5507813-26.5488281
			c0-14.640625,11.9106445-26.5517578,26.5507813-26.5517578c14.6396484,0,26.5498047,11.9111328,26.5498047,26.5517578
			C55.5175781,48.53125,43.6074219,60.4414063,28.9677734,60.4414063z M28.9677734,8.8408203
			c-13.8129883,0-25.0507813,11.2382813-25.0507813,25.0517578c0,13.8115234,11.237793,25.0488281,25.0507813,25.0488281
			c13.8125,0,25.0498047-11.2373047,25.0498047-25.0488281C54.0175781,20.0791016,42.7802734,8.8408203,28.9677734,8.8408203z"/>
	</g>
</g>
</svg>
