<?xml version="1.0" encoding="utf-8"?>
<!-- Generator: Adobe Illustrator 15.0.2, SVG Export Plug-In . SVG Version: 6.00 Build 0)  -->
<!DOCTYPE svg PUBLIC "-//W3C//DTD SVG 1.1//EN" "http://www.w3.org/Graphics/SVG/1.1/DTD/svg11.dtd">
<svg version="1.1" id="レイヤー_1" xmlns="http://www.w3.org/2000/svg" xmlns:xlink="http://www.w3.org/1999/xlink" x="0px"
	 y="0px" width="64px" height="64px" viewBox="0 0 64 64" enable-background="new 0 0 64 64" xml:space="preserve">
<g>
	<g>
		<path fill="#009DE6" d="M46.931,53.75c0,1.65-1.35,3-3,3h-23.75c-1.65,0-3-1.35-3-3v-43.5c0-1.65,1.35-3,3-3h23.75
			c1.65,0,3,1.35,3,3V53.75z"/>
	</g>
	<g>
		<rect x="21.813" y="35.5" fill="#FFFFFF" width="5.323" height="5"/>
		<rect x="29.395" y="35.5" fill="#FFFFFF" width="5.323" height="5"/>
		<rect x="36.976" y="35.5" fill="#FFFFFF" width="5.324" height="5"/>
	</g>
	<g>
		<rect x="21.813" y="42" fill="#FFFFFF" width="5.323" height="5"/>
		<rect x="29.395" y="42" fill="#FFFFFF" width="5.323" height="5"/>
		<rect x="36.976" y="42" fill="#FFFFFF" width="5.324" height="5"/>
	</g>
	<rect x="20.744" y="12.375" fill="#FFFFFF" width="22.625" height="21.25"/>
	<g>
		<rect x="21.813" y="48.625" fill="#FFFFFF" width="5.323" height="5"/>
		<rect x="29.395" y="48.625" fill="#FFFFFF" width="5.323" height="5"/>
		<rect x="36.976" y="48.625" fill="#FFFFFF" width="5.324" height="5"/>
	</g>
	<path fill="none" stroke="#FF9FBF" stroke-width="5" stroke-miterlimit="10" d="M52.516,24.208
		c-2.443-13.938-20.464-0.698-20.464-0.698s-17.345-13.14-20.463,0.698C8.467,38.06,32.052,48.125,32.052,48.125
		S54.942,38.06,52.516,24.208z"/>
</g>
</svg>
