<?xml version="1.0" encoding="utf-8"?>
<!-- Generator: Adobe Illustrator 18.0.0, SVG Export Plug-In . SVG Version: 6.00 Build 0)  -->
<!DOCTYPE svg PUBLIC "-//W3C//DTD SVG 1.1//EN" "http://www.w3.org/Graphics/SVG/1.1/DTD/svg11.dtd">
<svg version="1.1" id="レイヤー_1" xmlns="http://www.w3.org/2000/svg" xmlns:xlink="http://www.w3.org/1999/xlink" x="0px"
	 y="0px" width="64px" height="64px" viewBox="0 0 64 64" style="enable-background:new 0 0 64 64;" xml:space="preserve">
<g>
	<linearGradient id="SVGID_1_" gradientUnits="userSpaceOnUse" x1="42.943119" y1="11.2462568" x2="32.555233" y2="45.7882996">
		<stop  offset="0" style="stop-color:#B8B8B8"/>
		<stop  offset="0.0134593" style="stop-color:#B4B4B4"/>
		<stop  offset="0.1404986" style="stop-color:#919191"/>
		<stop  offset="0.2756242" style="stop-color:#747474"/>
		<stop  offset="0.4192992" style="stop-color:#5E5E5E"/>
		<stop  offset="0.5754429" style="stop-color:#4E4E4E"/>
		<stop  offset="0.7532194" style="stop-color:#454545"/>
		<stop  offset="1" style="stop-color:#424242"/>
	</linearGradient>
	<path style="fill:url(#SVGID_1_);" d="M41.7354012,31.2029991c0,0-2.3819008-3.2777996-1.152401-6.7328987
		c1.2294998-3.4550705,2.9511986-2.6581898,4.0985985-3.2782803c1.1475029-0.6200905,2.1319008-2.4803696,1.5577011-3.1891193
		c0,0,3.7714005,0,3.8525009-4.1638412c0,0,3.1953011-1.3288469,1.3105011-4.5179691
		c1.5517998-0.1298103,2.6973-1.7008905,2.8691978-2.6576805c1.3935013-0.35464,3.8525009-0.7968898,3.6063995-3.2777798
		c0,0,4.0219994-0.1077001,1.5629997-3.3854301H31.8080997c0,0,1.5619984,8.87813,5.4145985,9.4095497
		c0,0,3.6513023,2.6561079,0.743103,4.3227005C35.0575981,15.3988504,35.0098,20.7490406,35.0098,20.7490406
		s0.8925018,4.3232594-3.6474991,7.1318588C26.5893993,30.8335991,41.7354012,31.2029991,41.7354012,31.2029991z"/>
	<linearGradient id="SVGID_2_" gradientUnits="userSpaceOnUse" x1="25.8552532" y1="-3.1378148" x2="25.8552532" y2="26.7949123">
		<stop  offset="0" style="stop-color:#B8B8B8"/>
		<stop  offset="0.0134593" style="stop-color:#B4B4B4"/>
		<stop  offset="0.1404986" style="stop-color:#919191"/>
		<stop  offset="0.2756242" style="stop-color:#747474"/>
		<stop  offset="0.4192992" style="stop-color:#5E5E5E"/>
		<stop  offset="0.5754429" style="stop-color:#4E4E4E"/>
		<stop  offset="0.7532194" style="stop-color:#454545"/>
		<stop  offset="1" style="stop-color:#424242"/>
	</linearGradient>
	<path style="fill:url(#SVGID_2_);" d="M7.875,0c0,0-2.46387,3.0133801,0.9785204,5.6710601
		c0,0-1.5576205,1.5942998,3.5244093,4.5179696c5.0820313,2.9236603,5,6.5560703,5,6.5560703
		s-1.5571299,1.3283195,0.9018612,2.9231396c2.4589787,1.59482,4.3437099,3.5432606,4.6719093,4.075161
		c0.3281002,0.5318985,6.0653992,13.3111992,6.2294998,14.0974998c0.1639996,0.7863998,3.5506992-6.9889011,3.5506992-6.9889011
		s-0.6810989-9.8554401,0.6299019-12.6012592c0,0,7.7865982-4.7834101,5.5737-8.4158297
		c0,0,1.5664978,0.1773195,1.5664978-1.8602705c0,0,4.2635994-5.0499201-2.3857994-5.9360199
		c0,0,6.8890991,1.0618899,6.5620003-2.03862H7.875z"/>
	<path style="fill:#3E3A39;" d="M16.3945293,9.1261597c0,0-0.8915997,1.2401905,1.3164101,4.6066208
		c2.2080097,3.3664398,0.1596699,3.4550896,0.1596699,3.4550896s0.4912109,3.5437603,2.8681602,3.6324196
		c0,0,1.6391296,2.3917103,3.6884308,2.4804096c0,0,0.4102001,2.0370998,2.787199,1.7716007
		c0,0-3.1879997,0.5324001-1.3071995,2.6138c0,0,7.536602,1.3726997,4.4218998-5.0942001c0,0-1.8852997,4.1632996-3.7705002,1.2402
		c0,0-1.3090992-0.0881004-2.908699-2.4803791c0,0-1.8623009-1.0633907-1.2803001-4.3411617
		c0,0-7.4506502-3.9865294-3.1064205-7.7070789c0,0,4.8364201,2.4798346,4.8364201-0.5319605
		c0,0-6.1376896,2.12467-6.3886604-2.8798594c0,0-2.6284199,1.3742299-4.1855497-0.8406901
		C13.5253897,5.0509701,12.8701172,7.2658901,16.3945293,9.1261597z"/>
	<path style="fill:#595757;" d="M37.6240005,26.8285999c0,0-0.1631012-2.7299995,1.8036995-3.9706993
		c1.9668007-1.2407207,5.0820999-2.6798706,4.9179993-4.2192707c0,0,2.2938995,0.2179508,2.8682022-1.2364998
		c0,0-1.1475029,0.9377995-3.4424019,0.6718197c0,0-0.6348,4.5153503-5.6923981,2.1262493l-1.7549019-0.7087498
		c0,0,1.7812996,1.6607914,2.9394989,2.2143898c0,0-2.1093979,4.9622612-3.7705002,4.42976
		c-1.6616974-0.5323982-2.3774986,1.7416-2.3774986,1.7416l4.5152016,0.8881016L37.6240005,26.8285999z"/>
	<path style="fill:#3E3A39;" d="M7.9166698,0c0,0-2.0138397,3.1907001,0.9368505,5.6710601
		c0,0,0.9013596,2.03759,3.6884718,2.5690303c0,0,1.6406279,3.4550953,5.3286171,3.5437536
		c0,0-3.4428797-1.6834841-3.8530293-4.0751939c0,0-3.4433603,0.08814-3.6069403-2.2149
		C10.4106398,5.4937501,7.7325902,4.1622601,7.9166698,0z"/>
	<path style="fill:#3E3A39;" d="M28.4438,22.8579006c0,0,3.8935986,2.4533997,4.323801-2.007
		c0,0,0.6767006,0.3235092,1.3320007-5.0805206c0,0,1.6464996,0.9256401,3.2782974-3.986536
		c0,0,1.8027992-0.0886583,0.9014015-2.5690241c0,0-3.4414024,4.2525101-6.3516006-0.79741
		c0,0,0.9003983,3.9200335,3.6474991,3.3664341c0,0,1.3486023,2.7468758-1.7851982,2.923666
		c0,0-1.4941025,1.9484005-3.1333008-0.3546305c0,0,0.7271004,1.8497114,2.2490997,2.0766401
		c0,0,0.8172989,5.0108604-1.8223,3.5046997c0,0-1.7383003,2.6576805-4.6889992,0.797411
		C26.3945007,20.7316303,25.9848995,22.5923996,28.4438,22.8579006z"/>
	<path style="fill:#3E3A39;" d="M20.2431602,16.9218998v-1.50564c0,0,4.2754402,2.8350105,5.6640396,0
		c0,0,1.3892002,0.974741,1.8808994,0c0,0-0.7118988,1.1045494-1.4189987,0.7525501
		C26.3691006,16.1688099,24.5014992,18.3388691,20.2431602,16.9218998z"/>
	<path style="fill:#717071;" d="M40.5019989,14.1755505c0,0,2.2031021,3.0123196,5.4824028,0.35464
		c0,0,1.8856964,0.4427795,3.2792969-1.4175005c0,0-2.0546989,0.88554-3.8964996,0.5314302
		C45.3671989,13.6441202,45.1982002,15.85534,40.5019989,14.1755505z"/>
	<path style="fill:#868686;" d="M57.4706993,3.1912301C54.6836014,3.8566999,53.9463005,6.07162,51.2411995,4.65411
		c0,0-0.3290977,1.5943003-1.8036995,2.92314S44.7655983,5.3845,44.7655983,5.3845s3.1143036,3.96489,4.8360023,3.0788302
		c0,0,2.0760994-1.5816302,2.1307983-2.5716701C51.732399,5.8916602,53.5283012,5.6974502,57.4706993,3.1912301z"/>
</g>
<g>
	
		<linearGradient id="SVGID_3_" gradientUnits="userSpaceOnUse" x1="33.0527954" y1="10.5484953" x2="33.0527954" y2="31.9613285" gradientTransform="matrix(0.9636 0.2674 -0.2674 0.9636 7.4011998 -7.1423998)">
		<stop  offset="0" style="stop-color:#FFC900"/>
		<stop  offset="1" style="stop-color:#FF840E"/>
	</linearGradient>
	<path style="fill:url(#SVGID_3_);" d="M33.0432014,23.7754993c0,0-0.0878029-5.4865284,0.6208992-9.2021894
		C34.3728981,10.8576698,34.625,11.375,34.625,11.375s-0.0513,3.4037104,0.036499,6.5685902
		c0.0879021,3.1649094-0.9662971,15.380209-0.9662971,15.380209l-3.3397026-11.1800995l2.039402,1.9349003l-0.4961014-3.1438103
		L33.0432014,23.7754993z"/>
	
		<radialGradient id="SVGID_4_" cx="33.625" cy="33.9887733" r="7.3338261" gradientTransform="matrix(1 0 0 3.6760693 0 -92.7784119)" gradientUnits="userSpaceOnUse">
		<stop  offset="0.458716" style="stop-color:#FFC900"/>
		<stop  offset="1" style="stop-color:#FF2F1F;stop-opacity:0"/>
	</radialGradient>
	<ellipse style="fill:url(#SVGID_4_);" cx="33.625" cy="32.1667023" rx="7.6666999" ry="28.3332996"/>
	
		<linearGradient id="SVGID_5_" gradientUnits="userSpaceOnUse" x1="38.8138237" y1="16.882185" x2="38.8138237" y2="32.670166" gradientTransform="matrix(0.9998 0.0202 -0.0202 0.9998 0.1906958 -0.3013)">
		<stop  offset="0" style="stop-color:#FFC900"/>
		<stop  offset="1" style="stop-color:#FF840E"/>
	</linearGradient>
	<path style="fill:url(#SVGID_5_);" d="M32.4019012,30.0352993c0,0,1.9165993-5.4764996,2.2491989-7.2852993
		c0.9219017-5.0124302,1.7722015-5.4333801,1.7722015-5.4333801l-1.0651016,7.4792805c0,0,1.9747009-3.6844006,2.0830994-3.9823895
		c0.1085014-0.2979813-0.9590988,2.9246883-1.1541977,3.2552891c-0.1950035,0.3306999-0.6838036,3.4001999-0.2764015,1.9606991
		c1.1164017-3.9435997,3.2313004-7.2400799,3.2313004-7.2400799s-2.743,6.1180801-1.860302,7.0164814
		c0.8828011,0.8984985,3.6831017-8.3956814,3.6831017-8.3956814s-0.4998016,2.5396309-1.0284996,4.33148
		c-0.5289001,1.7918015-0.4788017,4.9809017,0.0284004,3.7419014c0.8806992-2.1499004,2.167099-3.6977005,2.167099-3.6977005
		l-1.9146004,4.7068005c0,0,4.9030991-5.6494198,4.1743011-4.6541004c-0.9193993,1.2553997-2.8726997,5.4331989-2.8726997,5.4331989
		s-1.6034012,4.8480015-1.8101997,5.7600994C39.6016998,33.9457016,32.4019012,30.0352993,32.4019012,30.0352993z"/>
	
		<linearGradient id="SVGID_6_" gradientUnits="userSpaceOnUse" x1="32.2486382" y1="18.6107788" x2="32.2486382" y2="35.0218964" gradientTransform="matrix(-0.9998 -0.0202 -0.0202 0.9998 61.3139992 0.3136958)">
		<stop  offset="0" style="stop-color:#FFC900"/>
		<stop  offset="1" style="stop-color:#FF840E"/>
	</linearGradient>
	<path style="fill:url(#SVGID_6_);" d="M34.6594009,31.6945992c0,0-1.7611008-5.7682991-2.0307999-7.6608982
		c-0.7474003-5.2446613-1.6129017-5.7175007-1.6129017-5.7175007l0.7928009,7.8127003c0,0-1.8964996-3.9094009-1.9967003-4.2234001
		c-0.1000996-0.3141003,0.8736,3.0777988,1.0624008,3.4293995c0.1886997,0.3516006,0.5676994,3.5601006,0.2049999,2.0478992
		c-0.9944-4.1425991-3.0527-7.6550388-3.0527-7.6550388s2.5923996,6.4692402,1.6379986,7.3654404
		c-0.9545002,0.8962002-3.4734993-8.8743-3.4734993-8.8743s0.4127007,2.6586494,0.8868008,4.5417995
		c0.4741993,1.8831997,0.2884998,5.1933994-0.1863003,3.8852997c-0.8247013-2.2698994-2.0958996-3.9312992-2.0958996-3.9312992
		l1.7911987,4.9687996c0,0-4.8555889-6.073101-4.1402988-5.0088005c0.9022999,1.3423996,2.7558994,5.763401,2.7558994,5.763401
		s1.4622002,5.102499,1.6387005,6.0583973C27.0175991,35.4542999,34.6594009,31.6945992,34.6594009,31.6945992z"/>
</g>
<linearGradient id="SVGID_7_" gradientUnits="userSpaceOnUse" x1="32" y1="27.875" x2="32" y2="64">
	<stop  offset="0" style="stop-color:#EF8224"/>
	<stop  offset="0.0825688" style="stop-color:#D92A00"/>
	<stop  offset="0.233945" style="stop-color:#55261B"/>
	<stop  offset="0.385321" style="stop-color:#262424"/>
</linearGradient>
<path style="fill:url(#SVGID_7_);" d="M0,64h64v-3.6666985L57.5,54.125l-4.5-7.25l-5.25-7.25l-4.9729996-9.3682003
	c0,0,0-1.0751991-2.8894997-1.7807999c-0.3803024-0.0928001-0.6725006,0.269701-1.1595001,0.1928997
	c-0.3687019-0.0580997-0.9079018-0.5595989-1.3445015-0.6051998C36.2573013,27.9461002,34.8958015,27.875,33.25,27.875
	c-0.7751007,0-1.4101009,0.6061993-2.0641994,0.6350994c-0.8327007,0.0369015-1.6487007-0.4951992-2.3042011-0.4209003
	c-5.1585999,0.5853004-5.1585999,2.1676006-5.1585999,2.1676006L17.75,40.625L12,47.6666985l-5.3333302,6.6666031l-6.6666698,6V64z"
	/>
<g>
	<linearGradient id="SVGID_8_" gradientUnits="userSpaceOnUse" x1="12.110425" y1="16.1479702" x2="12.110425" y2="20.09231">
		<stop  offset="0" style="stop-color:#FFC900"/>
		<stop  offset="1" style="stop-color:#FF2F1F"/>
	</linearGradient>
	<path style="fill:url(#SVGID_8_);" d="M9.9534197,16.1479702l2.3821316,2.6564102l1.931879,1.2879295
		C14.2674303,20.09231,11.1933918,16.71138,9.9534197,16.1479702z"/>
	<linearGradient id="SVGID_9_" gradientUnits="userSpaceOnUse" x1="14.639637" y1="21.46702" x2="14.639637" y2="23.6664505">
		<stop  offset="0" style="stop-color:#FFC900"/>
		<stop  offset="1" style="stop-color:#FF2F1F"/>
	</linearGradient>
	<path style="fill:url(#SVGID_9_);" d="M12.835186,21.46702c0,0,2.897584,0.3303699,3.541544,1.8153801
		C17.0207005,24.7674007,12.835186,21.46702,12.835186,21.46702z"/>
	<linearGradient id="SVGID_10_" gradientUnits="userSpaceOnUse" x1="50.5057983" y1="18.0543671" x2="50.5057983" y2="21.46702">
		<stop  offset="0" style="stop-color:#FFC900"/>
		<stop  offset="1" style="stop-color:#FF2F1F"/>
	</linearGradient>
	<path style="fill:url(#SVGID_10_);" d="M50.9085007,18.5694199c1.9208984-0.7686195,4.2656975-0.4492798,4.2656975-0.4492798
		l-9.3367996,3.34688C45.8373985,21.46702,47.6892014,19.8573494,50.9085007,18.5694199z"/>
	<linearGradient id="SVGID_11_" gradientUnits="userSpaceOnUse" x1="21.3136158" y1="7.66187" x2="21.3136158" y2="18.7314892">
		<stop  offset="0" style="stop-color:#FFC900"/>
		<stop  offset="1" style="stop-color:#FF2F1F"/>
	</linearGradient>
	<path style="fill:url(#SVGID_11_);" d="M24.2649002,18.7314892l-3.6153393-5.3928795L18.3623295,7.66187
		C18.3623295,7.66187,23.1375999,14.3858299,24.2649002,18.7314892z"/>
	<linearGradient id="SVGID_12_" gradientUnits="userSpaceOnUse" x1="12.0169201" y1="24.8466053" x2="12.0169201" y2="30.6594009">
		<stop  offset="0" style="stop-color:#FFC900"/>
		<stop  offset="1" style="stop-color:#FF2F1F"/>
	</linearGradient>
	<path style="fill:url(#SVGID_12_);" d="M4.3821602,30.6594009c0,0,4.9407196-5.3277016,8.9507399-5.1665001
		c4.0100203,0.1609993,6.3187799,1.3448982,6.3187799,1.3448982s-5.6896801-2.0695-6.816494-1.9888992
		S6.5542698,27.8572006,4.3821602,30.6594009z"/>
	<linearGradient id="SVGID_13_" gradientUnits="userSpaceOnUse" x1="54.7315483" y1="22.5104942" x2="54.7315483" y2="26.2735004">
		<stop  offset="0" style="stop-color:#FFC900"/>
		<stop  offset="1" style="stop-color:#FF2F1F"/>
	</linearGradient>
	<path style="fill:url(#SVGID_13_);" d="M50.5057983,22.5664997c0,0,6.1183014,0.704401,8.4514999,3.7070007
		C58.9572983,26.2735004,56.9454002,21.9743195,50.5057983,22.5664997z"/>
	
		<linearGradient id="SVGID_14_" gradientUnits="userSpaceOnUse" x1="38.1740913" y1="4.5634117" x2="38.1740913" y2="15.6326208" gradientTransform="matrix(0.6103 0.7922 -0.7922 0.6103 27.1823006 -28.8743)">
		<stop  offset="0" style="stop-color:#FFC900"/>
		<stop  offset="1" style="stop-color:#FF2F1F"/>
	</linearGradient>
	<path style="fill:url(#SVGID_14_);" d="M39.8969994,13.2458696L41.9626007,7.09059L45.0635986,1.8142
		C45.0635986,1.8142,42.6515007,9.7006302,39.8969994,13.2458696z"/>
</g>
<g>
	<linearGradient id="SVGID_15_" gradientUnits="userSpaceOnUse" x1="21.3599434" y1="28.8145237" x2="21.3599434" y2="41.9791985">
		<stop  offset="0" style="stop-color:#FFC900"/>
		<stop  offset="1" style="stop-color:#FF2F1F"/>
	</linearGradient>
	<path style="fill:url(#SVGID_15_);" d="M24.4531002,29.2968998C24.3125,29.4687996,22.3780003,34.2104988,21.375,35.8958015
		c-0.3592701,0.6036987-3.9583302,6.0833969-3.9583302,6.0833969s5.4166298-6.5833969,6.0000305-8.3125
		c0.5081997-1.5065994,1.6119003-4.1934986,1.847599-4.6722984C25.5,28.5156002,24.5937996,29.125,24.4531002,29.2968998z"/>
	<linearGradient id="SVGID_16_" gradientUnits="userSpaceOnUse" x1="19.1970863" y1="28.1046124" x2="19.1970863" y2="59.5514984">
		<stop  offset="0" style="stop-color:#FFC900"/>
		<stop  offset="1" style="stop-color:#FF2F1F"/>
	</linearGradient>
	<path style="fill:url(#SVGID_16_);" d="M27.9531002,29.9687996C27.7812996,29.75,27.6858997,29.3185005,27.8125,28.8906002
		c0.1266003-0.4278011,0.2812996-0.4687004,0.375-0.6562004C28.3742008,27.8609009,25.9843998,28.375,25.7187996,28.75
		c-0.2656994,0.375-1.3972988,5.2276001-2.2891998,6.9370995c-0.8918991,1.7094002-3.3453693,6.6907997-3.3453693,6.6907997
		l-3.5686703,4.2028008c0,0,1.2541504-1.0876007,2.5330906-2.3261986l1.5735989-0.8426018
		c-0.8487492,2.8888016-3.020689,10.205101-3.4375,10.8605995c-0.52038,0.8184013-3.9401798,2.5279007-3.9401798,2.5279007
		L10.19629,59.5514984c0,0,4.3865995-2.4534988,6.6168795-3.5686989c2.2302914-1.1151009,3.1222496-4.3861008,3.1222496-4.3861008
		s1.8591404-8.1779976,3.7917805-9.4419975c1.9327011-1.2639008,4.5167007-6.0431023,4.4395008-7.5297012
		C28.1039009,33.4160995,27.8957996,33,27.875,31.6875C27.8680992,31.2521,28.125,30.1875,27.9531002,29.9687996z
		 M24.0988007,39.5525017c-0.0806999,0.3232002-0.9974003,1.0880966-1.8191013,1.7208977l0.9932003-2.7508011
		c0.6149006-1.0284996,0.9979-1.6058998,1.3521004-2.8558998s0.5359001-3.7540989,1.25-4.3749981
		C26.3542004,30.875,26.5489006,29.8854008,26.7082996,29.6875c0,0,0.5834007,2.2292004-0.1665993,5.0416985
		S24.2476006,38.9571991,24.0988007,39.5525017z"/>
	<linearGradient id="SVGID_17_" gradientUnits="userSpaceOnUse" x1="37.4244537" y1="27.6890526" x2="37.4244537" y2="60.7148018">
		<stop  offset="0" style="stop-color:#FFC900"/>
		<stop  offset="1" style="stop-color:#FF2F1F"/>
	</linearGradient>
	<path style="fill:url(#SVGID_17_);" d="M42.5712013,56.7006989c-0.8167-0.8928986-2.0712013-5.3211975-3.0399017-6.2453003
		c-0.9687996-0.924099-2.3880005-1.4126968-3.2046013-3.3454971c-0.6573982-1.5522003-2.3083992-8.9589005-2.2081985-10.7375031
		c0.1002998-1.7785988-0.043499-3.9097977-0.2378006-4.9458981c-0.2231979-1.1895008,0.7504005-3.3105011,0.5208015-3.5873013
		c-0.229599-0.2766991-1.5182991,0.0727005-1.5182991,0.0727005c-0.6992035-0.3179989-3.0104008-0.2754993-3.1655025,0
		C29.5625,28.1875,29.9409008,33.1365013,30.4612007,34.7224007C30.9815998,36.3087006,29.4062996,40.9375,29.25,42.6562996
		c-0.1562004,1.7187004,0.6095009,3.6622009,0.7647991,3.9366989C31.0937996,48.5,32.0600014,53.581501,32.0600014,53.581501
		l-0.3353004-3.0488014l2.6767998,6.3198013l-1.603199-5.8734016c0,0-1.9065018-4.3596992-2.0399017-5.5756989
		c-0.1334-1.2159004-0.4678001-4.8283005,0.0743999-6.0220985C31.375,38.1875,32.4389992,32.8670998,32.8832016,29.6555004v0.1355
		c0,0-0.1912003,2.7506981,0,3.1970978c0.1931992,0.4464035,0,6.9140015,0,6.9140015l0.9566002,7.5828018l0.1772995-6.9201012
		c0.3580971,1.3111992,0.8083,3.1631012,1.1208992,5.1721992c0.593399,3.8264008,1.9818993,5.7089996,3.0468979,5.9079018
		C39.25,51.8437996,41.3064995,56.4888,41.9033012,57.3694C42.5,58.25,44.4062996,59.375,45.6198006,60.7148018
		C45.6198006,60.7148018,43.3894997,57.5934982,42.5712013,56.7006989z"/>
	<linearGradient id="SVGID_18_" gradientUnits="userSpaceOnUse" x1="43.4478569" y1="27.6778622" x2="43.4478569" y2="57.3026009">
		<stop  offset="0" style="stop-color:#FFC900"/>
		<stop  offset="1" style="stop-color:#FF2F1F"/>
	</linearGradient>
	<path style="fill:url(#SVGID_18_);" d="M51.625,46.0416985c0,0-3.7484016-5.1108971-4.7083015-6.7083969
		c-0.9599991-1.5974998-3.6822968-8.302002-4.1353989-9.302002c-0.2943993-0.6497993-0.8907013-0.8593998-1.5625-1.2343998
		c-0.6718979-0.375-1.2343979-0.3593998-1.5782013-0.3906002c-0.3436966-0.0312996-0.5,0.2343006-0.9375,0.1718006
		c-0.6770973-0.2082996-0.8125-0.3593006-1.0467987-0.5468006c-0.4779015-0.3822994-2.3646011-0.5312996-2.385498-0.0520992
		c-0.0208015,0.4790993,3.7650986,4.3537998,3.5646973,5.8466015c-0.2005005,1.4926987,3.6436996,4.3199997,4.0395012,4.9658966
		c0.3958015,0.6458015,0.9269981,1.1789017,1.3541985,2.3958015c0.4271011,1.2168999-0.0123978,6.2751007,1.0208015,7.625
		c0.9210014,1.2033005,0.0379982,1.9830017,0.9687996,3.5625c1.0312004,1.75,2.4459,4.9276009,2.4459,4.9276009
		S47.4389992,54.3373985,46.75,51.9687996c-0.4221001-1.4510994-0.2169991-2.264698-0.6562004-3.25
		C44.9375,46.125,45.7331009,45.5749016,45.5503998,43.2956009c0.8209,1.6478004,5.6579018,8.4127007,5.6579018,8.4127007
		S48.0416985,46.75,47.625,45.75c-0.3303986-0.7929001-1.3554001-2.6333008-2.2083015-4.2355995
		c-0.0199966-0.299099-0.25-0.472702-0.125-1.4310989c0.125-0.9583015-2.5229988-6.4948997-2.5229988-6.4948997L41.5,29.4582996
		c1.875,2.2292004,4.4062996,9.323,5.4166985,10.9583988C48.2265015,42.5368004,51.625,46.0416985,51.625,46.0416985z
		 M40.1094017,34.4219017c-0.5263023-2.2535019-1.3810005-3.0384026-1.8373032-4.6578026
		c0,0,2.4623032,2.7047005,3.2123032,4.0797005s1.4428978,3.7541008,1.4428978,3.7541008
		C41.723999,36.292099,40.6357002,36.6753998,40.1094017,34.4219017z"/>
</g>
<g>
</g>
<g>
</g>
<g>
</g>
<g>
</g>
<g>
</g>
<g>
</g>
</svg>
