<?xml version="1.0" encoding="UTF-8" standalone="no"?>
<!-- Generator: Adobe Illustrator 15.0.2, SVG Export Plug-In . SVG Version: 6.00 Build 0)  -->

<svg
   xmlns:dc="http://purl.org/dc/elements/1.1/"
   xmlns:cc="http://creativecommons.org/ns#"
   xmlns:rdf="http://www.w3.org/1999/02/22-rdf-syntax-ns#"
   xmlns:svg="http://www.w3.org/2000/svg"
   xmlns="http://www.w3.org/2000/svg"
   xmlns:sodipodi="http://sodipodi.sourceforge.net/DTD/sodipodi-0.dtd"
   xmlns:inkscape="http://www.inkscape.org/namespaces/inkscape"
   version="1.1"
   id="レイヤー_1"
   x="0px"
   y="0px"
   width="64px"
   height="64px"
   viewBox="0 0 64 64"
   style="enable-background:new 0 0 64 64;"
   xml:space="preserve"
   inkscape:version="0.48.5 r10040"
   sodipodi:docname="vs.svg"><metadata
     id="metadata38"><rdf:RDF><cc:Work
         rdf:about=""><dc:format>image/svg+xml</dc:format><dc:type
           rdf:resource="http://purl.org/dc/dcmitype/StillImage" /></cc:Work></rdf:RDF></metadata><defs
     id="defs36" /><sodipodi:namedview
     pagecolor="#ffffff"
     bordercolor="#666666"
     borderopacity="1"
     objecttolerance="10"
     gridtolerance="10"
     guidetolerance="10"
     inkscape:pageopacity="0"
     inkscape:pageshadow="2"
     inkscape:window-width="640"
     inkscape:window-height="480"
     id="namedview34" /><g
     id="g3"><g
       id="g5"><linearGradient
         id="SVGID_1_"
         gradientUnits="userSpaceOnUse"
         x1="31.9995117"
         y1="2.9956055"
         x2="31.9995098"
         y2="60.9864426"><stop
           offset="0"
           style="stop-color:#FF0000"
           id="stop8" /><stop
           offset="1"
           style="stop-color:#9F0000"
           id="stop10" /></linearGradient><path
         style="fill:url(#SVGID_1_);"
         d="M62.2050781,50.2050781c0,6.6269531-5.3730469,12-12,12H13.7949219    c-6.6269531,0-12-5.3730469-12-12V13.7949219c0-6.6269531,5.3730469-12,12-12h36.4101563c6.6269531,0,12,5.3730469,12,12    V50.2050781z"
         id="path12" /><g
         id="g14"><path
           style="opacity:0.28;fill:#FFFFFF;"
           d="M2.671875,13.3681641c-0.0322266,0.3535156-0.0537109,0.7099609-0.0537109,1.0712891     v12.59375c0.0058594,0.0058594,0.0117188,0.0117188,0.0166016,0.0175781L2.671875,13.3681641z"
           id="path16" /><path
           style="opacity:0.28;fill:#FFFFFF;"
           d="M60.1064453,23.5693359     c1.1884766-5.8017578,1.2216797-9.4169922,1.2216797-10.1933594c-0.5380859-5.9482422-5.53125-10.609375-11.6181641-10.609375     H14.2910156c-6.0761719,0-11.0625,4.6416016-11.6171875,10.5722656C2.6933594,13.6875,3.1708984,17.3730469,3.9667969,23.6455078     C11.2060547,30.7001953,21.0917969,35.0546875,32,35.0546875C42.9453125,35.0546875,52.859375,30.6689453,60.1064453,23.5693359z     "
           id="path18" /><path
           style="opacity:0.28;fill:#FFFFFF;"
           d="M61.328125,13.3789063l0.0390625,13.6669922     c0.0048828-0.0048828,0.0097656-0.0097656,0.0146484-0.0146484V14.4394531     C61.3818359,14.0810547,61.359375,13.7285156,61.328125,13.3789063z"
           id="path20" /></g><path
         style="fill:#FFFFFF;"
         d="M2.6738281,27.5859375c0,0-0.0058594-10.9199219-0.0283203-13.859375    c-0.0273438-3.5996094,3.2431641-10.8896484,10.375-10.8896484c6.6386719,0,16.8027344,0,16.8027344,0    S17.1181641,3.6513672,13.0195313,4.4707031c-4.0976563,0.8203125-7.4931641,6.0439453-8.4423828,9.2626953    C3.1982422,18.4150391,2.6738281,27.5859375,2.6738281,27.5859375z"
         id="path22" /><path
         style="fill:#9B1515;"
         d="M61.7929688,36.8320313c0,0,0.0058594,10.7851563,0.0283203,13.6894531    c0.0283203,3.5546875-3.3095703,10.7568359-10.5888672,10.7568359c-6.7744141,0-17.1464844,0-17.1464844,0    s12.9667969-0.8046875,17.1494141-1.6152344c4.1806641-0.8095703,7.6445313-5.9677734,8.6142578-9.1484375    C61.2578125,45.8896484,61.7929688,36.8320313,61.7929688,36.8320313z"
         id="path24" /><path
         style="fill:#D10000;"
         d="M50.2050781,63.2050781H13.7949219c-7.1679688,0-13-5.8320313-13-13V13.7949219    c0-7.1679688,5.8320313-13,13-13h36.4101563c7.1679688,0,13,5.8320313,13,13v36.4101563    C63.2050781,57.3730469,57.3730469,63.2050781,50.2050781,63.2050781z M13.7949219,2.7949219c-6.0654297,0-11,4.9345703-11,11    v36.4101563c0,6.0654297,4.9345703,11,11,11h36.4101563c6.0654297,0,11-4.9345703,11-11V13.7949219    c0-6.0654297-4.9345703-11-11-11H13.7949219z"
         id="path26" /></g><g
       id="g28"><path
         style="fill:#FFFFFF;"
         d="M32.4912109,16.5283203l-7.4697266,31.0283203h-6.3164063l-7.46875-31.0283203h7.5966797    c-0.0283203,0.3417969,0.0429688,0.953125,0.2138672,1.8349609l2.8164063,13.9990234l2.8173828-13.9990234    c0.1992188-0.9101563,0.2705078-1.5224609,0.2128906-1.8349609H32.4912109z"
         id="path30" /><path
         style="fill:#FFFFFF;"
         d="M52.7636719,39.2773438c0,2.6738281-0.8681641,4.8515625-2.6035156,6.5292969    c-1.7070313,1.6210938-3.8984375,2.4335938-6.5722656,2.4335938c-5.7763672,0-8.6640625-3.671875-8.6640625-11.0117188h7.5966797    c-0.1142578,0.5410156-0.1708984,1.1386719-0.1708984,1.7929688c-0.0283203,1.9628906,0.4414063,2.9433594,1.4082031,2.9433594    c1.1386719,0,1.7080078-0.8535156,1.7080078-2.5605469c0-1.5644531-0.8681641-3.1445313-2.6035156-4.7363281    c-1.0810547-0.9394531-2.6894531-2.4052734-4.8232422-4.3974609c-1.7636719-1.7070313-2.6464844-3.6269531-2.6464844-5.7607422    c0-2.5332031,0.7685547-4.6240234,2.3046875-6.2744141c1.4804688-1.6503906,3.4716797-2.4755859,5.9755859-2.4755859    c2.7880859,0,4.9365234,0.9111328,6.4443359,2.7314453c1.3945313,1.6220703,2.1484375,3.8554688,2.2626953,6.7011719h-7.3837891    c0.0849609-0.3134766,0.1279297-0.6123047,0.1279297-0.8964844c0-1.5644531-0.3984375-2.3476563-1.1953125-2.3476563    c-0.8535156,0-1.2802734,0.5263672-1.2802734,1.5791016c0,1.2802734,0.8818359,2.6611328,2.6464844,4.1396484    c2.7314453,2.3339844,4.3388672,3.7988281,4.8222656,4.3964844    C51.8818359,34.1699219,52.7636719,36.5742188,52.7636719,39.2773438z"
         id="path32" /></g></g></svg>