<?xml version="1.0" encoding="UTF-8" standalone="no"?>
<!-- Generator: Adobe Illustrator 15.0.2, SVG Export Plug-In . SVG Version: 6.00 Build 0)  -->

<svg
   xmlns:dc="http://purl.org/dc/elements/1.1/"
   xmlns:cc="http://creativecommons.org/ns#"
   xmlns:rdf="http://www.w3.org/1999/02/22-rdf-syntax-ns#"
   xmlns:svg="http://www.w3.org/2000/svg"
   xmlns="http://www.w3.org/2000/svg"
   xmlns:sodipodi="http://sodipodi.sourceforge.net/DTD/sodipodi-0.dtd"
   xmlns:inkscape="http://www.inkscape.org/namespaces/inkscape"
   version="1.1"
   id="レイヤー_1"
   x="0px"
   y="0px"
   width="64px"
   height="64px"
   viewBox="0 0 64 64"
   enable-background="new 0 0 64 64"
   xml:space="preserve"
   inkscape:version="0.48.4 r9939"
   sodipodi:docname="watch.svg"><metadata
     id="metadata539"><rdf:RDF><cc:Work
         rdf:about=""><dc:format>image/svg+xml</dc:format><dc:type
           rdf:resource="http://purl.org/dc/dcmitype/StillImage" /></cc:Work></rdf:RDF></metadata><defs
     id="defs537" /><sodipodi:namedview
     pagecolor="#ffffff"
     bordercolor="#666666"
     borderopacity="1"
     objecttolerance="10"
     gridtolerance="10"
     guidetolerance="10"
     inkscape:pageopacity="0"
     inkscape:pageshadow="2"
     inkscape:window-width="640"
     inkscape:window-height="480"
     id="namedview535" /><g
     id="g3"><linearGradient
       id="SVGID_1_"
       gradientUnits="userSpaceOnUse"
       x1="47.8584"
       y1="22.9248"
       x2="62.7959"
       y2="42.7373"><stop
         offset="0"
         style="stop-color:#FFFFFF"
         id="stop6" /><stop
         offset="0.1455"
         style="stop-color:#212430"
         id="stop8" /><stop
         offset="1"
         style="stop-color:#000000"
         id="stop10" /></linearGradient><path
       fill="url(#SVGID_1_)"
       d="M51.828,33.838c0,0.615,0.508,1.117,1.125,1.117h3.182c0.617,0,1.125-0.502,1.125-1.117v-4.093   c0-0.613-0.508-1.116-1.125-1.116h-3.182c-0.617,0-1.125,0.503-1.125,1.116V33.838z"
       id="path12" /><g
       id="g14"><linearGradient
         id="SVGID_2_"
         gradientUnits="userSpaceOnUse"
         x1="31.6445"
         y1="49.959"
         x2="31.6445"
         y2="55.375"><stop
           offset="0"
           style="stop-color:#212430"
           id="stop17" /><stop
           offset="0.8727"
           style="stop-color:#000000"
           id="stop19" /><stop
           offset="1"
           style="stop-color:#FFFFFF"
           id="stop21" /></linearGradient><rect
         x="19.686"
         y="49.475"
         fill="url(#SVGID_2_)"
         width="23.917"
         height="5.666"
         id="rect23" /><g
         id="g25"><linearGradient
           id="SVGID_3_"
           gradientUnits="userSpaceOnUse"
           x1="21.9233"
           y1="52.9189"
           x2="12.7563"
           y2="43.335"><stop
             offset="0"
             style="stop-color:#212430"
             id="stop28" /><stop
             offset="0.8727"
             style="stop-color:#000000"
             id="stop30" /><stop
             offset="1"
             style="stop-color:#FFFFFF"
             id="stop32" /></linearGradient><polygon
           fill="url(#SVGID_3_)"
           points="20.145,56.516 16.062,54.475 12.145,42.307 20.145,43.375    "
           id="polygon34" /><linearGradient
           id="SVGID_4_"
           gradientUnits="userSpaceOnUse"
           x1="50.6318"
           y1="55.5439"
           x2="45.4654"
           y2="46.4592"><stop
             offset="0"
             style="stop-color:#212430"
             id="stop37" /><stop
             offset="0.8727"
             style="stop-color:#000000"
             id="stop39" /><stop
             offset="1"
             style="stop-color:#FFFFFF"
             id="stop41" /></linearGradient><polygon
           fill="url(#SVGID_4_)"
           points="43.145,56.516 47.229,54.475 51.145,42.307 43.145,43.375    "
           id="polygon43" /></g></g><linearGradient
       id="SVGID_5_"
       gradientUnits="userSpaceOnUse"
       x1="31.645"
       y1="16.125"
       x2="31.645"
       y2="5.9009"><stop
         offset="0"
         style="stop-color:#FFFFFF"
         id="stop46" /><stop
         offset="0.3455"
         style="stop-color:#212430"
         id="stop48" /><stop
         offset="1"
         style="stop-color:#000000"
         id="stop50" /></linearGradient><rect
       x="19.686"
       y="8.369"
       fill="url(#SVGID_5_)"
       width="23.917"
       height="5.667"
       id="rect52" /><g
       id="g54"><linearGradient
         id="SVGID_6_"
         gradientUnits="userSpaceOnUse"
         x1="14.9653"
         y1="13.6909"
         x2="17.1323"
         y2="14.4409"><stop
           offset="0"
           style="stop-color:#FFFFFF"
           id="stop57" /><stop
           offset="0.0909"
           style="stop-color:#212430"
           id="stop59" /><stop
           offset="1"
           style="stop-color:#000000"
           id="stop61" /></linearGradient><polygon
         fill="url(#SVGID_6_)"
         points="20.145,6.995 16.062,9.036 12.145,21.204 20.145,20.135   "
         id="polygon63" /><linearGradient
         id="SVGID_7_"
         gradientUnits="userSpaceOnUse"
         x1="43.1338"
         y1="13.5635"
         x2="46.7174"
         y2="14.1469"><stop
           offset="0"
           style="stop-color:#FFFFFF"
           id="stop66" /><stop
           offset="0.0727"
           style="stop-color:#212430"
           id="stop68" /><stop
           offset="1"
           style="stop-color:#000000"
           id="stop70" /></linearGradient><polygon
         fill="url(#SVGID_7_)"
         points="43.145,6.995 47.229,9.036 51.145,21.204 43.145,20.135   "
         id="polygon72" /></g><linearGradient
       id="SVGID_8_"
       gradientUnits="userSpaceOnUse"
       x1="31.6934"
       y1="14.397"
       x2="31.6094"
       y2="0.1494"><stop
         offset="0"
         style="stop-color:#FFFFFF"
         id="stop75" /><stop
         offset="0.4667"
         style="stop-color:#212430"
         id="stop77" /><stop
         offset="1"
         style="stop-color:#000000"
         id="stop79" /></linearGradient><polygon
       fill="url(#SVGID_8_)"
       points="43.145,3.792 20.145,3.792 20.145,8.542 26.69,8.542 27.287,9.375 36.004,9.375    36.602,8.542 43.145,8.542  "
       id="polygon81" /><linearGradient
       id="SVGID_9_"
       gradientUnits="userSpaceOnUse"
       x1="31.7036"
       y1="11.498"
       x2="31.6011"
       y2="-5.8897"><stop
         offset="0"
         style="stop-color:#FFFFFF"
         id="stop84" /><stop
         offset="0.4667"
         style="stop-color:#212430"
         id="stop86" /><stop
         offset="1"
         style="stop-color:#000000"
         id="stop88" /></linearGradient><polygon
       fill="url(#SVGID_9_)"
       points="43.145,-1.458 20.145,-1.458 20.145,4.542 26.69,4.542 27.287,5.375 36.004,5.375    36.602,4.542 43.145,4.542  "
       id="polygon90" /><g
       id="g92"><linearGradient
         id="SVGID_10_"
         gradientUnits="userSpaceOnUse"
         x1="30.189"
         y1="51.1748"
         x2="31.9388"
         y2="58.6741"><stop
           offset="0"
           style="stop-color:#FFFFFF"
           id="stop95" /><stop
           offset="0.4667"
           style="stop-color:#212430"
           id="stop97" /><stop
           offset="1"
           style="stop-color:#000000"
           id="stop99" /></linearGradient><polygon
         fill="url(#SVGID_10_)"
         points="43.145,59.791 20.145,59.791 20.145,55.041 26.69,55.041 27.287,54.209 36.004,54.209     36.602,55.041 43.145,55.041   "
         id="polygon101" /><linearGradient
         id="SVGID_11_"
         gradientUnits="userSpaceOnUse"
         x1="30.2886"
         y1="55.9414"
         x2="32.5349"
         y2="66.393"><stop
           offset="0"
           style="stop-color:#FFFFFF"
           id="stop104" /><stop
           offset="0.4667"
           style="stop-color:#212430"
           id="stop106" /><stop
           offset="1"
           style="stop-color:#000000"
           id="stop108" /></linearGradient><polygon
         fill="url(#SVGID_11_)"
         points="43.145,65.459 20.145,65.459 20.145,59.041 26.69,59.041 27.287,58.209 36.004,58.209     36.602,59.041 43.145,59.041   "
         id="polygon110" /></g><g
       id="g112"><linearGradient
         id="SVGID_12_"
         gradientUnits="userSpaceOnUse"
         x1="-73.6411"
         y1="-1.1113"
         x2="-70.8248"
         y2="-1.1113"
         gradientTransform="matrix(-0.4204 0.9073 -0.6289 -0.2914 20.2169 105.4657)"><stop
           offset="0"
           style="stop-color:#212430"
           id="stop115" /><stop
           offset="0.5273"
           style="stop-color:#004C9F"
           id="stop117" /><stop
           offset="1"
           style="stop-color:#000000"
           id="stop119" /></linearGradient><polygon
         fill="url(#SVGID_12_)"
         points="48.887,40.533 50.023,38.086 53.746,39.811 52.611,42.262   "
         id="polygon121" /><linearGradient
         id="SVGID_13_"
         gradientUnits="userSpaceOnUse"
         x1="-73.0669"
         y1="-4.6055"
         x2="-72.0672"
         y2="-2.6066"
         gradientTransform="matrix(-0.4204 0.9073 -0.5548 -0.257 20.9522 105.806)"><stop
           offset="0"
           style="stop-color:#FFFFFF"
           id="stop124" /><stop
           offset="0.1455"
           style="stop-color:#212430"
           id="stop126" /><stop
           offset="1"
           style="stop-color:#000000"
           id="stop128" /></linearGradient><path
         fill="url(#SVGID_13_)"
         d="M51.568,42.559l1.039,0.479c0.281,0.133,0.688-0.137,0.902-0.598l0.904-1.955    c0.215-0.463,0.158-0.945-0.123-1.076l-1.041-0.482L51.568,42.559z"
         id="path130" /><linearGradient
         id="SVGID_14_"
         gradientUnits="userSpaceOnUse"
         x1="-77.2681"
         y1="-4.7427"
         x2="-75.931"
         y2="-2.0694"
         gradientTransform="matrix(-0.4204 0.9073 -0.7497 -0.3473 16.0227 107.703)"><stop
           offset="0"
           style="stop-color:#FFFFFF"
           id="stop133" /><stop
           offset="0.1455"
           style="stop-color:#212430"
           id="stop135" /><stop
           offset="1"
           style="stop-color:#000000"
           id="stop137" /></linearGradient><polygon
         fill="url(#SVGID_14_)"
         points="47.82,41.385 49.98,36.723 52.482,38.598 50.848,42.125   "
         id="polygon139" /></g><g
       id="g141"><linearGradient
         id="SVGID_15_"
         gradientUnits="userSpaceOnUse"
         x1="23.3145"
         y1="-20.3105"
         x2="26.0315"
         y2="-20.3105"
         gradientTransform="matrix(0.5009 0.8655 -0.8655 0.5009 20.6845 8.6708)"><stop
           offset="0"
           style="stop-color:#212430"
           id="stop144" /><stop
           offset="0.5273"
           style="stop-color:#004C9F"
           id="stop146" /><stop
           offset="1"
           style="stop-color:#000000"
           id="stop148" /></linearGradient><polygon
         fill="url(#SVGID_15_)"
         points="48.764,22.339 47.459,20.084 52.4,17.225 53.705,19.479   "
         id="polygon150" /><linearGradient
         id="SVGID_16_"
         gradientUnits="userSpaceOnUse"
         x1="23.689"
         y1="-24.248"
         x2="24.8264"
         y2="-21.9738"
         gradientTransform="matrix(0.5009 0.8655 -0.8655 0.5009 20.6845 8.6708)"><stop
           offset="0"
           style="stop-color:#FFFFFF"
           id="stop153" /><stop
           offset="0.1455"
           style="stop-color:#212430"
           id="stop155" /><stop
           offset="1"
           style="stop-color:#000000"
           id="stop157" /></linearGradient><path
         fill="url(#SVGID_16_)"
         d="M52.184,21.084l2.234-1.293c0.422-0.245,0.57-0.792,0.324-1.217l-1.041-1.797    c-0.246-0.423-0.793-0.57-1.217-0.324l-2.232,1.292L52.184,21.084z"
         id="path159" /></g><g
       id="g161"><linearGradient
         id="SVGID_17_"
         gradientUnits="userSpaceOnUse"
         x1="55.0508"
         y1="28.854"
         x2="55.0508"
         y2="29.6143"><stop
           offset="0"
           style="stop-color:#FFFFFF"
           id="stop164" /><stop
           offset="1"
           style="stop-color:#FFFFFF;stop-opacity:0"
           id="stop166" /></linearGradient><rect
         x="53.77"
         y="29.167"
         fill="url(#SVGID_17_)"
         width="2.563"
         height="0.625"
         id="rect168" /><linearGradient
         id="SVGID_18_"
         gradientUnits="userSpaceOnUse"
         x1="55.2383"
         y1="29.9946"
         x2="55.2383"
         y2="30.755"><stop
           offset="0"
           style="stop-color:#FFFFFF"
           id="stop171" /><stop
           offset="1"
           style="stop-color:#FFFFFF;stop-opacity:0"
           id="stop173" /></linearGradient><rect
         x="53.957"
         y="30.307"
         fill="url(#SVGID_18_)"
         width="2.563"
         height="0.625"
         id="rect175" /><linearGradient
         id="SVGID_19_"
         gradientUnits="userSpaceOnUse"
         x1="55.4258"
         y1="31.1353"
         x2="55.4258"
         y2="31.8956"><stop
           offset="0"
           style="stop-color:#FFFFFF"
           id="stop178" /><stop
           offset="1"
           style="stop-color:#FFFFFF;stop-opacity:0"
           id="stop180" /></linearGradient><rect
         x="54.145"
         y="31.448"
         fill="url(#SVGID_19_)"
         width="2.563"
         height="0.625"
         id="rect182" /><linearGradient
         id="SVGID_20_"
         gradientUnits="userSpaceOnUse"
         x1="55.2383"
         y1="32.2759"
         x2="55.2383"
         y2="33.0362"><stop
           offset="0"
           style="stop-color:#FFFFFF"
           id="stop185" /><stop
           offset="1"
           style="stop-color:#FFFFFF;stop-opacity:0"
           id="stop187" /></linearGradient><rect
         x="53.957"
         y="32.588"
         fill="url(#SVGID_20_)"
         width="2.563"
         height="0.625"
         id="rect189" /><linearGradient
         id="SVGID_21_"
         gradientUnits="userSpaceOnUse"
         x1="55.0508"
         y1="33.416"
         x2="55.0508"
         y2="34.1764"><stop
           offset="0"
           style="stop-color:#FFFFFF"
           id="stop192" /><stop
           offset="1"
           style="stop-color:#FFFFFF;stop-opacity:0"
           id="stop194" /></linearGradient><rect
         x="53.77"
         y="33.729"
         fill="url(#SVGID_21_)"
         width="2.563"
         height="0.625"
         id="rect196" /></g><linearGradient
       id="SVGID_22_"
       gradientUnits="userSpaceOnUse"
       x1="21.3916"
       y1="11.6997"
       x2="33.7249"
       y2="35.8667"><stop
         offset="0"
         style="stop-color:#212430"
         id="stop199" /><stop
         offset="1"
         style="stop-color:#000000"
         id="stop201" /></linearGradient><circle
       fill="url(#SVGID_22_)"
       cx="31.645"
       cy="31.792"
       r="21.792"
       id="circle203" /><linearGradient
       id="SVGID_23_"
       gradientUnits="userSpaceOnUse"
       x1="15.5703"
       y1="20.2402"
       x2="51.4038"
       y2="45.9902"><stop
         offset="0"
         style="stop-color:#212430"
         id="stop206" /><stop
         offset="0.8364"
         style="stop-color:#000000"
         id="stop208" /><stop
         offset="1"
         style="stop-color:#FFFFFF"
         id="stop210" /></linearGradient><path
       fill="url(#SVGID_23_)"
       d="M48.473,43.02c-0.582-0.582-0.582-1.525,0-2.107s1.525-0.582,2.107,0l0.58,0.578   c1.455-2.922,2.277-6.213,2.277-9.699c0-3.485-0.822-6.777-2.277-9.699l-0.58,0.579c-0.582,0.581-1.525,0.582-2.107,0   c-0.582-0.582-0.582-1.525,0-2.107l1.125-1.124C45.666,13.739,39.094,10,31.645,10s-14.021,3.74-17.952,9.441l1.124,1.124   c0.582,0.582,0.582,1.525,0,2.107c-0.582,0.583-1.525,0.582-2.107,0l-0.579-0.579c-1.455,2.922-2.277,6.213-2.277,9.699   c0,3.486,0.823,6.779,2.278,9.699l0.579-0.578c0.582-0.582,1.525-0.582,2.107,0s0.582,1.525,0,2.107l-1.123,1.123   c3.93,5.701,10.503,9.441,17.951,9.441c7.449,0,14.021-3.74,17.951-9.441L48.473,43.02z"
       id="path212" /><linearGradient
       id="SVGID_24_"
       gradientUnits="userSpaceOnUse"
       x1="24.5112"
       y1="18.2446"
       x2="41.8437"
       y2="51.1602"><stop
         offset="0"
         style="stop-color:#212430"
         id="stop215" /><stop
         offset="0.4848"
         style="stop-color:#6E87AB"
         id="stop217" /><stop
         offset="1"
         style="stop-color:#000000"
         id="stop219" /></linearGradient><circle
       fill="url(#SVGID_24_)"
       cx="31.645"
       cy="31.792"
       r="17.15"
       id="circle221" /><g
       id="g223"><polygon
         fill="#1E1E1E"
         points="34.063,35.293 24.992,28.475 25.493,27.688 35.512,33.02   "
         id="polygon225" /><rect
         x="31.585"
         y="29.23"
         transform="matrix(0.5377 -0.8432 0.8432 0.5377 -12.4978 41.7803)"
         fill="#FFFFFF"
         width="0.526"
         height="6.113"
         id="rect227" /></g><g
       id="g229"><circle
         fill="#C6C4B3"
         cx="13.686"
         cy="21.543"
         r="1.069"
         id="circle231" /><circle
         fill="#C6C4B3"
         cx="13.686"
         cy="42.039"
         r="1.069"
         id="circle233" /><circle
         fill="#C6C4B3"
         cx="49.604"
         cy="21.543"
         r="1.069"
         id="circle235" /><circle
         fill="#C6C4B3"
         cx="49.604"
         cy="42.039"
         r="1.069"
         id="circle237" /></g><linearGradient
       id="SVGID_25_"
       gradientUnits="userSpaceOnUse"
       x1="31.645"
       y1="20.6255"
       x2="31.645"
       y2="37.1335"><stop
         offset="0"
         style="stop-color:#DFEDFF"
         id="stop240" /><stop
         offset="1"
         style="stop-color:#000000"
         id="stop242" /></linearGradient><rect
       x="31.395"
       y="20.125"
       fill="url(#SVGID_25_)"
       width="0.5"
       height="18.334"
       id="rect244" /><g
       id="g246"><linearGradient
         id="SVGID_26_"
         gradientUnits="userSpaceOnUse"
         x1="8.061"
         y1="31.7915"
         x2="8.062"
         y2="31.7915"><stop
           offset="0"
           style="stop-color:#212430"
           id="stop249" /><stop
           offset="1"
           style="stop-color:#000000"
           id="stop251" /></linearGradient><path
         opacity="0.66"
         fill="url(#SVGID_26_)"
         d="M8.061,31.792c0,0.012,0.001,0.023,0.001,0.036v-0.072    C8.062,31.768,8.061,31.78,8.061,31.792z"
         id="path253" /><linearGradient
         id="SVGID_27_"
         gradientUnits="userSpaceOnUse"
         x1="8.4995"
         y1="24.7866"
         x2="11.5823"
         y2="34.5361"><stop
           offset="0"
           style="stop-color:#212430"
           id="stop256" /><stop
           offset="1"
           style="stop-color:#000000"
           id="stop258" /></linearGradient><path
         fill="url(#SVGID_27_)"
         d="M9.984,23.167c-1.231,2.635-1.917,5.538-1.922,8.589v0.072c0.005,3.051,0.691,5.954,1.922,8.588    h1.646c-1.142-2.645-1.777-5.561-1.777-8.625c0-3.064,0.636-5.979,1.777-8.625H9.984z"
         id="path260" /><linearGradient
         id="SVGID_28_"
         gradientUnits="userSpaceOnUse"
         x1="50.8369"
         y1="24.6646"
         x2="55.0037"
         y2="40.9141"><stop
           offset="0"
           style="stop-color:#212430"
           id="stop263" /><stop
           offset="1"
           style="stop-color:#000000"
           id="stop265" /></linearGradient><path
         fill="url(#SVGID_28_)"
         d="M54.543,28.203l0.328-0.164c-0.318-1.699-0.846-3.333-1.566-4.872H51.66    c1.141,2.646,1.777,5.561,1.777,8.625c0,3.064-0.637,5.98-1.777,8.625h1.646c0.65-1.393,1.145-2.863,1.471-4.391l-0.234-0.072    V28.203z"
         id="path267" /><linearGradient
         id="SVGID_29_"
         gradientUnits="userSpaceOnUse"
         x1="55.2285"
         y1="31.7915"
         x2="55.2285"
         y2="31.7915"><stop
           offset="0"
           style="stop-color:#212430"
           id="stop270" /><stop
           offset="1"
           style="stop-color:#000000"
           id="stop272" /></linearGradient><path
         opacity="0.66"
         fill="url(#SVGID_29_)"
         d="M55.229,31.792c0-0.012,0-0.023,0-0.036v0.072    C55.229,31.815,55.229,31.803,55.229,31.792z"
         id="path274" /><linearGradient
         id="SVGID_30_"
         gradientUnits="userSpaceOnUse"
         x1="55.2285"
         y1="27.3877"
         x2="55.2285"
         y2="35.8126"><stop
           offset="0"
           style="stop-color:#212430"
           id="stop277" /><stop
           offset="1"
           style="stop-color:#000000"
           id="stop279" /></linearGradient><path
         fill="url(#SVGID_30_)"
         d="M55.229,31.792c0-0.012,0-0.023,0-0.036v0.072C55.229,31.815,55.229,31.803,55.229,31.792z"
         id="path281" /></g><g
       opacity="0.39"
       id="g283"><g
         id="g285"><g
           id="g287"><rect
             x="31.228"
             y="15.892"
             fill="#1E1E1E"
             width="1.416"
             height="3.461"
             id="rect289" /><rect
             x="31.228"
             y="44.643"
             fill="#1E1E1E"
             width="1.416"
             height="3.461"
             id="rect291" /></g><g
           id="g293"><rect
             x="44.58"
             y="31.29"
             fill="#1E1E1E"
             width="3.461"
             height="1.416"
             id="rect295" /><rect
             x="15.831"
             y="31.29"
             fill="#1E1E1E"
             width="3.461"
             height="1.416"
             id="rect297" /></g></g><g
         id="g299"><g
           id="g301"><rect
             x="24.04"
             y="17.818"
             transform="matrix(0.8661 -0.4999 0.4999 0.8661 -6.4582 14.9904)"
             fill="#1E1E1E"
             width="1.416"
             height="3.461"
             id="rect303" /><rect
             x="38.415"
             y="42.717"
             transform="matrix(0.8664 -0.4994 0.4994 0.8664 -16.9691 25.4777)"
             fill="#1E1E1E"
             width="1.416"
             height="3.46"
             id="rect305" /></g><g
           id="g307"><rect
             x="43.677"
             y="23.08"
             transform="matrix(0.4996 0.8663 -0.8663 0.4996 43.705 -26.0335)"
             fill="#1E1E1E"
             width="1.415"
             height="3.46"
             id="rect309" /><rect
             x="18.779"
             y="37.455"
             transform="matrix(0.4999 0.8661 -0.8661 0.4999 43.6824 2.7189)"
             fill="#1E1E1E"
             width="1.416"
             height="3.461"
             id="rect311" /></g></g><g
         id="g313"><g
           id="g315"><rect
             x="18.779"
             y="23.08"
             transform="matrix(0.5002 -0.8659 0.8659 0.5002 -11.7437 29.2749)"
             fill="#1E1E1E"
             width="1.416"
             height="3.461"
             id="rect317" /><rect
             x="43.677"
             y="37.456"
             transform="matrix(0.5004 -0.8658 0.8658 0.5004 -11.7523 58.0035)"
             fill="#1E1E1E"
             width="1.417"
             height="3.46"
             id="rect319" /></g><g
           id="g321"><rect
             x="38.415"
             y="17.818"
             transform="matrix(0.8661 0.4999 -0.4999 0.8661 15.0126 -16.9403)"
             fill="#1E1E1E"
             width="1.416"
             height="3.461"
             id="rect323" /><rect
             x="24.041"
             y="42.715"
             transform="matrix(0.8664 0.4994 -0.4994 0.8664 25.5038 -6.4201)"
             fill="#1E1E1E"
             width="1.416"
             height="3.462"
             id="rect325" /></g></g></g><g
       id="g327"><g
         id="g329"><g
           id="g331"><linearGradient
             id="SVGID_31_"
             gradientUnits="userSpaceOnUse"
             x1="30.8091"
             y1="15.4111"
             x2="32.7906"
             y2="20.1665"><stop
               offset="0"
               style="stop-color:#FFFFFF"
               id="stop334" /><stop
               offset="0.0788"
               style="stop-color:#D8DFE9"
               id="stop336" /><stop
               offset="0.9515"
               style="stop-color:#29333B"
               id="stop338" /></linearGradient><rect
             x="30.937"
             y="15.686"
             fill="url(#SVGID_31_)"
             width="1.416"
             height="3.461"
             id="rect340" /><linearGradient
             id="SVGID_32_"
             gradientUnits="userSpaceOnUse"
             x1="30.8096"
             y1="44.1611"
             x2="32.7911"
             y2="48.9165"><stop
               offset="0"
               style="stop-color:#FFFFFF"
               id="stop343" /><stop
               offset="0.0788"
               style="stop-color:#D8DFE9"
               id="stop345" /><stop
               offset="0.9515"
               style="stop-color:#29333B"
               id="stop347" /></linearGradient><rect
             x="30.937"
             y="44.436"
             fill="url(#SVGID_32_)"
             width="1.416"
             height="3.461"
             id="rect349" /></g><g
           id="g351"><linearGradient
             id="SVGID_33_"
             gradientUnits="userSpaceOnUse"
             x1="30.9565"
             y1="15.9751"
             x2="32.9381"
             y2="20.7304"
             gradientTransform="matrix(-4.371139e-008 1 -1 -4.371139e-008 63.9996 1.316400e-004)"><stop
               offset="0"
               style="stop-color:#FFFFFF"
               id="stop354" /><stop
               offset="0.0788"
               style="stop-color:#D8DFE9"
               id="stop356" /><stop
               offset="0.9515"
               style="stop-color:#29333B"
               id="stop358" /></linearGradient><rect
             x="44.289"
             y="31.083"
             fill="url(#SVGID_33_)"
             width="3.461"
             height="1.416"
             id="rect360" /><linearGradient
             id="SVGID_34_"
             gradientUnits="userSpaceOnUse"
             x1="30.9561"
             y1="44.7246"
             x2="32.9376"
             y2="49.4799"
             gradientTransform="matrix(-4.371139e-008 1 -1 -4.371139e-008 63.9996 1.316400e-004)"><stop
               offset="0"
               style="stop-color:#FFFFFF"
               id="stop363" /><stop
               offset="0.0788"
               style="stop-color:#D8DFE9"
               id="stop365" /><stop
               offset="0.9515"
               style="stop-color:#29333B"
               id="stop367" /></linearGradient><rect
             x="15.54"
             y="31.083"
             fill="url(#SVGID_34_)"
             width="3.461"
             height="1.416"
             id="rect369" /></g></g><g
         id="g371"><g
           id="g373"><linearGradient
             id="SVGID_35_"
             gradientUnits="userSpaceOnUse"
             x1="30.9609"
             y1="15.2612"
             x2="32.943"
             y2="20.0178"
             gradientTransform="matrix(0.866 -0.5 0.5 0.866 -11.7131 20.2874)"><stop
               offset="0"
               style="stop-color:#FFFFFF"
               id="stop376" /><stop
               offset="0.0788"
               style="stop-color:#D8DFE9"
               id="stop378" /><stop
               offset="0.9515"
               style="stop-color:#29333B"
               id="stop380" /></linearGradient><polygon
             fill="url(#SVGID_35_)"
             points="25.936,20.487 24.709,21.195 22.979,18.198 24.206,17.49     "
             id="polygon382" /><linearGradient
             id="SVGID_36_"
             gradientUnits="userSpaceOnUse"
             x1="30.9604"
             y1="44.0117"
             x2="32.942"
             y2="48.7671"
             gradientTransform="matrix(0.866 -0.5 0.5 0.866 -11.7131 20.2874)"><stop
               offset="0"
               style="stop-color:#FFFFFF"
               id="stop385" /><stop
               offset="0.0788"
               style="stop-color:#D8DFE9"
               id="stop387" /><stop
               offset="0.9515"
               style="stop-color:#29333B"
               id="stop389" /></linearGradient><polygon
             fill="url(#SVGID_36_)"
             points="40.311,45.385 39.084,46.094 37.354,43.096 38.58,42.389     "
             id="polygon391" /></g><g
           id="g393"><linearGradient
             id="SVGID_37_"
             gradientUnits="userSpaceOnUse"
             x1="30.8066"
             y1="15.8237"
             x2="32.7882"
             y2="20.5791"
             gradientTransform="matrix(0.5 0.866 -0.866 0.5 43.7129 -11.7124)"><stop
               offset="0"
               style="stop-color:#FFFFFF"
               id="stop396" /><stop
               offset="0.0788"
               style="stop-color:#D8DFE9"
               id="stop398" /><stop
               offset="0.9515"
               style="stop-color:#29333B"
               id="stop400" /></linearGradient><polygon
             fill="url(#SVGID_37_)"
             points="42.949,26.083 42.242,24.856 45.238,23.126 45.947,24.352     "
             id="polygon402" /><linearGradient
             id="SVGID_38_"
             gradientUnits="userSpaceOnUse"
             x1="30.8057"
             y1="44.5742"
             x2="32.7872"
             y2="49.3296"
             gradientTransform="matrix(0.5 0.866 -0.866 0.5 43.7129 -11.7124)"><stop
               offset="0"
               style="stop-color:#FFFFFF"
               id="stop405" /><stop
               offset="0.0788"
               style="stop-color:#D8DFE9"
               id="stop407" /><stop
               offset="0.9515"
               style="stop-color:#29333B"
               id="stop409" /></linearGradient><polygon
             fill="url(#SVGID_38_)"
             points="18.051,40.457 17.343,39.23 20.34,37.5 21.048,38.727     "
             id="polygon411" /></g></g><g
         id="g413"><g
           id="g415"><linearGradient
             id="SVGID_39_"
             gradientUnits="userSpaceOnUse"
             x1="31.167"
             y1="15.2085"
             x2="33.1485"
             y2="19.9638"
             gradientTransform="matrix(0.5 -0.866 0.866 0.5 -11.7124 43.7129)"><stop
               offset="0"
               style="stop-color:#FFFFFF"
               id="stop418" /><stop
               offset="0.0788"
               style="stop-color:#D8DFE9"
               id="stop420" /><stop
               offset="0.9515"
               style="stop-color:#29333B"
               id="stop422" /></linearGradient><polygon
             fill="url(#SVGID_39_)"
             points="21.049,24.856 20.34,26.083 17.343,24.352 18.051,23.125     "
             id="polygon424" /><linearGradient
             id="SVGID_40_"
             gradientUnits="userSpaceOnUse"
             x1="31.168"
             y1="43.959"
             x2="33.1495"
             y2="48.7143"
             gradientTransform="matrix(0.5 -0.866 0.866 0.5 -11.7124 43.7129)"><stop
               offset="0"
               style="stop-color:#FFFFFF"
               id="stop427" /><stop
               offset="0.0788"
               style="stop-color:#D8DFE9"
               id="stop429" /><stop
               offset="0.9515"
               style="stop-color:#29333B"
               id="stop431" /></linearGradient><polygon
             fill="url(#SVGID_40_)"
             points="45.947,39.23 45.238,40.457 42.242,38.727 42.949,37.5     "
             id="polygon433" /></g><g
           id="g435"><linearGradient
             id="SVGID_41_"
             gradientUnits="userSpaceOnUse"
             x1="30.7524"
             y1="15.6167"
             x2="32.734"
             y2="20.372"
             gradientTransform="matrix(0.866 0.5 -0.5 0.866 20.2874 -11.7121)"><stop
               offset="0"
               style="stop-color:#FFFFFF"
               id="stop438" /><stop
               offset="0.0788"
               style="stop-color:#D8DFE9"
               id="stop440" /><stop
               offset="0.9515"
               style="stop-color:#29333B"
               id="stop442" /></linearGradient><polygon
             fill="url(#SVGID_41_)"
             points="38.58,21.195 37.354,20.487 39.084,17.49 40.311,18.198     "
             id="polygon444" /><linearGradient
             id="SVGID_42_"
             gradientUnits="userSpaceOnUse"
             x1="30.7529"
             y1="44.3662"
             x2="32.7345"
             y2="49.1216"
             gradientTransform="matrix(0.866 0.5 -0.5 0.866 20.2874 -11.7121)"><stop
               offset="0"
               style="stop-color:#FFFFFF"
               id="stop447" /><stop
               offset="0.0788"
               style="stop-color:#D8DFE9"
               id="stop449" /><stop
               offset="0.9515"
               style="stop-color:#29333B"
               id="stop451" /></linearGradient><polygon
             fill="url(#SVGID_42_)"
             points="24.206,46.094 22.979,45.385 24.709,42.389 25.936,43.096     "
             id="polygon453" /></g></g></g><g
       id="g455"><polygon
         fill="#1E1E1E"
         points="26.419,33.984 42.781,24.987 43.164,25.621 27.517,35.82   "
         id="polygon457" /><rect
         x="31.686"
         y="26.904"
         transform="matrix(0.5136 0.858 -0.858 0.5136 42.9251 -11.8276)"
         fill="#FFFFFF"
         width="0.418"
         height="10.089"
         id="rect459" /></g><linearGradient
       id="SVGID_43_"
       gradientUnits="userSpaceOnUse"
       x1="31.1123"
       y1="30.6294"
       x2="32.0299"
       y2="32.6306"><stop
         offset="0"
         style="stop-color:#FFD81F"
         id="stop462" /><stop
         offset="0.0949"
         style="stop-color:#FDD61F"
         id="stop464" /><stop
         offset="0.129"
         style="stop-color:#F6D11E"
         id="stop466" /><stop
         offset="0.1534"
         style="stop-color:#EBC71D"
         id="stop468" /><stop
         offset="0.1731"
         style="stop-color:#DAB81A"
         id="stop470" /><stop
         offset="0.19"
         style="stop-color:#C4A618"
         id="stop472" /><stop
         offset="0.2049"
         style="stop-color:#A88F14"
         id="stop474" /><stop
         offset="0.2184"
         style="stop-color:#887311"
         id="stop476" /><stop
         offset="0.2308"
         style="stop-color:#62530C"
         id="stop478" /><stop
         offset="0.2424"
         style="stop-color:#372F07"
         id="stop480" /><stop
         offset="0.2527"
         style="stop-color:#090801"
         id="stop482" /><stop
         offset="0.2545"
         style="stop-color:#000000"
         id="stop484" /><stop
         offset="1"
         style="stop-color:#FF881F"
         id="stop486" /></linearGradient><circle
       fill="url(#SVGID_43_)"
       cx="31.645"
       cy="31.792"
       r="0.802"
       id="circle488" /><path
       opacity="0.21"
       fill="#FFFFFF"
       d="M42.578,18.578c-2.969-2.458-6.777-3.937-10.933-3.937c-9.472,0-17.151,7.679-17.151,17.151   c0,4.259,1.561,8.146,4.13,11.144C24.326,37.107,35.445,25.826,42.578,18.578z"
       id="path490" /><linearGradient
       id="SVGID_44_"
       gradientUnits="userSpaceOnUse"
       x1="22.6152"
       y1="14.9185"
       x2="45.4481"
       y2="57.5843"><stop
         offset="0"
         style="stop-color:#FFD81F"
         id="stop493" /><stop
         offset="0.0949"
         style="stop-color:#FDD61F"
         id="stop495" /><stop
         offset="0.129"
         style="stop-color:#F6D11E"
         id="stop497" /><stop
         offset="0.1534"
         style="stop-color:#EBC71D"
         id="stop499" /><stop
         offset="0.1731"
         style="stop-color:#DAB81A"
         id="stop501" /><stop
         offset="0.19"
         style="stop-color:#C4A618"
         id="stop503" /><stop
         offset="0.2049"
         style="stop-color:#A88F14"
         id="stop505" /><stop
         offset="0.2184"
         style="stop-color:#887311"
         id="stop507" /><stop
         offset="0.2308"
         style="stop-color:#62530C"
         id="stop509" /><stop
         offset="0.2424"
         style="stop-color:#372F07"
         id="stop511" /><stop
         offset="0.2527"
         style="stop-color:#090801"
         id="stop513" /><stop
         offset="0.2545"
         style="stop-color:#000000"
         id="stop515" /><stop
         offset="1"
         style="stop-color:#FF881F"
         id="stop517" /></linearGradient><path
       fill="url(#SVGID_44_)"
       d="M31.645,13.833c-9.919,0-17.959,8.04-17.959,17.959c0,9.917,8.04,17.958,17.959,17.958   c9.917,0,17.958-8.041,17.958-17.958C49.604,21.873,41.563,13.833,31.645,13.833z M31.645,48.541c-9.251,0-16.75-7.5-16.75-16.75   c0-9.251,7.499-16.75,16.75-16.75c9.251,0,16.75,7.499,16.75,16.75C48.395,41.041,40.896,48.541,31.645,48.541z"
       id="path519" /><linearGradient
       id="SVGID_45_"
       gradientUnits="userSpaceOnUse"
       x1="14.8467"
       y1="20.1636"
       x2="30.6797"
       y2="27.0801"><stop
         offset="0"
         style="stop-color:#FFFFFF"
         id="stop522" /><stop
         offset="1"
         style="stop-color:#FFFFFF;stop-opacity:0"
         id="stop524" /></linearGradient><path
       fill="url(#SVGID_45_)"
       d="M31.729,10.5c-7.35,0-13.846,3.643-17.792,9.218l0.406,0.413c0.1,0.052,1.52,0.823,0.615,2.412   c-0.729,1.125-2.25,0.167-2.25,0.167l-0.003,0.002c0-0.001,0.001-0.002,0.002-0.003c-0.003-0.001-0.2-0.076-0.461-0.175   c-1.474,2.937-2.309,6.249-2.309,9.759c0,1.726,0.207,3.404,0.586,5.015c-0.273-1.379-0.42-2.805-0.42-4.266   c0-3.557,0.858-6.911,2.369-9.877l0.006,0.044c0,0,2.011,0.814,2.75-0.417c0.794-1.324,0.39-2.268-0.621-3.01   c3.983-5.186,10.244-8.532,17.288-8.532c10.312,0,18.943,7.165,21.207,16.786C51.121,18.038,42.307,10.5,31.729,10.5z"
       id="path526" /><linearGradient
       id="SVGID_46_"
       gradientUnits="userSpaceOnUse"
       x1="16.4375"
       y1="45.9443"
       x2="25.3951"
       y2="49.8574"><stop
         offset="0"
         style="stop-color:#FFFFFF"
         id="stop529" /><stop
         offset="1"
         style="stop-color:#FFFFFF;stop-opacity:0"
         id="stop531" /></linearGradient><path
       fill="url(#SVGID_46_)"
       d="M15.562,45.875c0,0,6.917,9.332,21.583,6.666C37.145,52.541,23.228,53.459,15.562,45.875z"
       id="path533" /></g></svg>