<?xml version="1.0" encoding="utf-8"?>
<!-- Generator: Adobe Illustrator 15.0.2, SVG Export Plug-In . SVG Version: 6.00 Build 0)  -->
<!DOCTYPE svg PUBLIC "-//W3C//DTD SVG 1.1//EN" "http://www.w3.org/Graphics/SVG/1.1/DTD/svg11.dtd">
<svg version="1.1" id="レイヤー_1" xmlns="http://www.w3.org/2000/svg" xmlns:xlink="http://www.w3.org/1999/xlink" x="0px"
	 y="0px" width="64px" height="64px" viewBox="0 0 64 64" style="enable-background:new 0 0 64 64;" xml:space="preserve">
<g>
	<path style="fill:#0534DB;" d="M2.2998047,47.7089844c0,0,6.8935547-4.4863281,12.3120117-6.3515625
		S47.4248047,36.6894531,49.5625,34.3359375c2.1367188-2.3535156,3.4052734,1.2910156-1.6064453,3.9746094
		c0,0,6.4453125-3.5478516,5.3085938-7.0585938c0,0,1.9677734,1.171875,0.1582031,3.7333984
		c0,0,3.2832031-3.5976563,1.7666016-5.7744141c0,0,2.7763672,1.7451172,1.5742188,4.6884766
		c0,0,3.3271484-3.2988281,0.8056641-6.1425781c0,0,4.6865234,1.4794922,1.5107422,7.8886719
		c0,0-0.0224609-1.4453125,2.0478516-0.2128906c2.0712891,1.2324219-1.9042969,6.1240234-5.1083984,6.6376953
		c-3.2050781,0.5136719-2.1943359,2.8994141-8.0634766,4.5791016c-5.8691406,1.6787109-11.1513672-0.0019531-19.4956055,3.1796875
		s-2.7910156-4.0634766-10.7172852-2.1201172S2.2998047,47.7089844,2.2998047,47.7089844z"/>
	<path style="fill:#039ADD;" d="M5.9282227,45.953125c0,0,6.4726563-4.0917969,11.5600586-5.7929688
		s30.8085938-4.2568359,32.8154297-6.4033203s3.1972656,1.1777344-1.5078125,3.625c0,0,6.0517578-3.2353516,4.984375-6.4375
		c0,0,1.8476563,1.0683594,0.1484375,3.4052734c0,0,3.0820313-3.28125,1.6582031-5.2666016
		c0,0,2.6074219,1.5917969,1.4785156,4.2753906c0,0,3.1240234-3.0078125,0.7558594-5.6015625
		c0,0,4.4003906,1.3496094,1.4189453,7.1943359c0,0-0.0214844-1.3183594,1.9228516-0.1943359
		s-1.7880859,5.5849609-4.796875,6.0537109s-2.0595703,2.6445313-7.5703125,4.1757813s-10.4707031-0.0009766-18.3051758,2.9003906
		s-2.6206055-3.7060547-10.0625-1.9335938S5.9282227,45.953125,5.9282227,45.953125z"/>
	<path style="fill:#FFE3D6;" d="M21.9907227,17.9443359l-0.625,1.875l0.3125,1.375c0,0,0.5625,2.8125,0.875,4
		c0,0,0.625,0.875,0.875,1.125l-2.375,0.375c0,0-3.125-2.0625-6.9375,1.0625l-4.625,1.8125c0,0-3.125,1.5625-5.0625,6.75
		c0,0-1.375,1.5625-1,3.625s0.625,2.875,0.625,2.875s0.75,0.0625,0.9375-0.75s0.5-2.625,0.8125-2.0625c0,0,1.4375,2,1.6875,2
		s1.75-2.1875,0.25-3.875l-0.875-1.75c0,0,3.125-1.8125,4-2.8125c0,0,3.75,0.125,5.125,0c0,0,0.4375,4.3125,1.3125,6.0625
		l0.4375,3.1884766h13.9375l0.75-5.8134766c0,0,1.1254883-1.25,1.7504883-3.25c0,0,3.8125,1.9375,9.5625-0.1875
		c0,0,3.125-4.6875,3.4375-8.4375l0.75-2l2.375-0.9375l-0.5810547-4.25l-1.6064453,0.625l0.9375-2.375c0,0-0.375-1.375-1.25-0.625
		l-1.3125,2.75l-0.625,2.3125c0,0-1.4375,2.6875-1.875,3.25s-3,2.4023438-2.9375,5.2011719c0,0-2.4375-1.5136719-4.875-0.3261719
		c0,0-2.4375-3.1875-5.6879883-1l-1.5-0.6875l0.625-3.875c0,0-1.3125-6.3125-4.0625-6.625
		S21.9907227,17.9443359,21.9907227,17.9443359z"/>
	<g>
		<g>
			<path style="fill:#EAB8A8;" d="M13.9282227,33.625l4.4375-1.6113281c0,0,2.0341797,4.3574219,4.6933594,4.5556641
				l-1.6933594,1.5683594l-3,3.1425781l-2.3544922-7.5234375L13.9282227,33.625z"/>
			<path style="fill:#EAB8A8;" d="M40.3505859,34.4316406l-5.734375-2.4179688l-0.8398438,1.7431641
				C33.7763672,33.7568359,38.3828125,35.3183594,40.3505859,34.4316406z"/>
			<path style="fill:#EAB8A8;" d="M26.9716797,19.6728516c0,0-2.3828125,1.15625-2.543457,0.9951172l-0.6875-1.4506836
				C23.7407227,19.2172852,27.2583008,17.6303711,26.9716797,19.6728516z"/>
			<path style="fill:#EAB8A8;" d="M24.4282227,29.0830078c0,0,3.7285156-1.8295898,4-4.8886719
				c0,0-4.2607422,3.1777344-5.5,1.5097656C22.9282227,25.7041016,23.8012695,28.6123047,24.4282227,29.0830078z"/>
		</g>
	</g>
	<path style="fill:#330600;" d="M4.090332,43.3203125c-0.0141602,0-0.0649414-0.0019531-0.0786133-0.0029297
		c-0.2036133-0.0166016-0.3764648-0.15625-0.4365234-0.3505859C3.5649414,42.9316406,3.3125,42.1015625,2.9365234,40.0341797
		C2.5664063,38,3.7006836,36.4267578,3.9897461,36.0654297c1.9853516-5.2480469,5.1430664-6.8759766,5.2773438-6.9433594
		l4.59375-1.8022461c1.4736328-1.1899414,3.0229492-1.7929688,4.6064453-1.7929688
		c1.3320313,0,2.3007813,0.4389648,2.6831055,0.6459961l1.3442383-0.2124023
		c-0.1728516-0.2304688-0.3173828-0.4321289-0.3481445-0.4755859c-0.0351563-0.0493164-0.0615234-0.1044922-0.0766602-0.1630859
		c-0.3129883-1.1884766-0.8588867-3.9140625-0.8818359-4.0292969l-0.3100586-1.3623047
		c-0.0200195-0.0893555-0.015625-0.1821289,0.0136719-0.269043l0.625-1.875
		c0.0620117-0.1396484,1.0029297-2.0678711,4.0932617-1.7133789c3.0219727,0.3432617,4.3535156,6.3374023,4.4956055,7.0200195
		c0.012207,0.0595703,0.0136719,0.1210938,0.0039063,0.1811523l-0.5644531,3.4995117l0.90625,0.4155273
		c0.7651367-0.4638672,1.5527344-0.6992188,2.3442383-0.6992188c1.7299805,0,2.9956055,1.1098633,3.5180664,1.6621094
		c0.5888672-0.2324219,1.2158203-0.3496094,1.8710938-0.3496094c0.9863281,0,1.8457031,0.265625,2.4140625,0.5009766
		c0.2871094-2.0942383,1.8369141-3.5893555,2.6259766-4.3510742c0.1679688-0.1621094,0.3017578-0.2871094,0.3720703-0.3774414
		c0.3300781-0.4243164,1.3867188-2.3544922,1.8017578-3.128418l0.6103516-2.2573242l1.34375-2.8349609
		c0.0302734-0.0629883,0.0732422-0.1191406,0.1259766-0.1640625c0.2666016-0.2285156,0.5419922-0.3442383,0.8203125-0.3442383
		c0.8798828,0,1.203125,1.0922852,1.2373047,1.2172852c0.0283203,0.1040039,0.0224609,0.2143555-0.0175781,0.3149414
		l-0.5166016,1.3105469l0.5390625-0.2099609c0.1416016-0.0561523,0.3027344-0.0429688,0.4355469,0.034668
		c0.1318359,0.078125,0.2207031,0.2119141,0.2412109,0.3632813l0.5810547,4.25
		c0.03125,0.2285156-0.0976563,0.4482422-0.3115234,0.5327148l-2.1679688,0.855957l-0.6484375,1.7285156
		c-0.3505859,3.8208008-3.3837891,8.4086914-3.5136719,8.6030273c-0.0585938,0.0878906-0.1435547,0.1552734-0.2431641,0.1914063
		c-1.8427734,0.6816406-3.6835938,1.0273438-5.4697266,1.0273438c-1.8896484,0-3.2636719-0.3876953-3.9648438-0.6435547
		c-0.5449219,1.4609375-1.2978516,2.4580078-1.5742188,2.7949219l-0.730957,5.6679688
		c-0.0322266,0.2490234-0.2446289,0.4355469-0.4960938,0.4355469h-13.9375c-0.25,0-0.4614258-0.1845703-0.4951172-0.4316406
		l-0.4267578-3.109375c-0.7148438-1.5029297-1.1308594-4.5078125-1.2714844-5.6806641
		c-1.1606445,0.0517578-3.7089844,0-4.4736328-0.0224609c-0.84375,0.8330078-2.7216797,1.9990234-3.5527344,2.4980469
		l0.6386719,1.2773438c1.1699219,1.3691406,0.6674805,2.9208984,0.394043,3.5302734
		c-0.1884766,0.4199219-0.5776367,1.125-1.0629883,1.125c-0.2270508,0-0.4614258,0-1.706543-1.6777344
		c-0.0825195,0.3183594-0.1625977,0.6914063-0.2124023,0.9257813l-0.09375,0.4267578
		C5.2841797,43.0224609,4.6088867,43.3203125,4.090332,43.3203125z M18.1767578,42.3203125h13.0620117l0.6933594-5.3779297
		c0.0131836-0.0996094,0.0566406-0.1943359,0.1240234-0.2695313c0.0102539-0.0117188,1.0629883-1.203125,1.6450195-3.0654297
		c0.0439453-0.1396484,0.1474609-0.2529297,0.2822266-0.3105469c0.1347656-0.0566406,0.2880859-0.0517578,0.4208984,0.0136719
		c0.0146484,0.0078125,1.5341797,0.7548828,4.0400391,0.7548828c1.6181641,0,3.2890625-0.3056641,4.96875-0.9082031
		c0.5019531-0.7871094,2.9980469-4.8369141,3.2675781-8.0668945c0.0039063-0.0458984,0.0136719-0.0908203,0.0302734-0.1342773
		l0.75-2c0.0488281-0.1323242,0.1523438-0.2373047,0.2841797-0.2890625l2.0097656-0.793457l-0.4414063-3.2333984
		l-1.015625,0.3950195c-0.1875,0.0732422-0.3955078,0.027832-0.5361328-0.1132813
		c-0.1396484-0.140625-0.1835938-0.3510742-0.1103516-0.5361328l0.8691406-2.203125
		c-0.0712891-0.1694336-0.1728516-0.3168945-0.2285156-0.3378906c0,0.0009766-0.0292969,0.0073242-0.0878906,0.0463867
		l-1.2617188,2.6435547l-0.59375,2.2275391c-0.0097656,0.0366211-0.0234375,0.0722656-0.0419922,0.1054688
		c-0.1484375,0.2788086-1.4697266,2.7416992-1.9208984,3.3212891c-0.0888672,0.1137695-0.2529297,0.2768555-0.4667969,0.4829102
		c-0.8427734,0.8134766-2.4121094,2.3276367-2.3652344,4.4003906c0.0039063,0.1826172-0.0927734,0.3525391-0.2519531,0.4443359
		c-0.1582031,0.0898438-0.3564453,0.0859375-0.5107422-0.0078125c-0.0117188-0.0078125-1.1669922-0.7070313-2.6064453-0.7070313
		c-0.6347656,0-1.2363281,0.1367188-1.7871094,0.4042969c-0.2109375,0.1054688-0.46875,0.0429688-0.6152344-0.1445313
		c-0.0117188-0.015625-1.2353516-1.5717773-2.9868164-1.5717773c-0.671875,0-1.3535156,0.2294922-2.0253906,0.6816406
		c-0.144043,0.0981445-0.3291016,0.1123047-0.487793,0.0400391l-1.5-0.6875
		c-0.2041016-0.09375-0.3208008-0.3125-0.2851563-0.5341797l0.6103516-3.7827148
		c-0.3730469-1.71875-1.6865234-5.9223633-3.6108398-6.1411133c-2.3115234-0.2617188-3.0317383,1.0493164-3.0581055,1.1005859
		l-0.5541992,1.6777344l0.2817383,1.2392578c0.0078125,0.0395508,0.5385742,2.6884766,0.8476563,3.8950195
		c0.2397461,0.3320313,0.6191406,0.8383789,0.7680664,0.9873047c0.1328125,0.1328125,0.1801758,0.3291016,0.1220703,0.5083008
		c-0.0581055,0.1787109-0.2119141,0.3095703-0.3974609,0.3388672l-2.375,0.375
		c-0.125,0.019043-0.2495117-0.0078125-0.3535156-0.0761719c-0.0073242-0.0048828-0.9208984-0.5849609-2.3105469-0.5849609
		c-1.3681641,0-2.7255859,0.5439453-4.034668,1.6166992c-0.0405273,0.0332031-0.0859375,0.0595703-0.1342773,0.0786133
		l-4.625,1.8129883l0,0c0.0053711,0-2.9438477,1.5517578-4.7768555,6.4589844
		c-0.0209961,0.0556641-0.0527344,0.109375-0.0917969,0.1542969c-0.012207,0.0136719-1.2099609,1.4179688-0.8847656,3.2060547
		c0.206543,1.1357422,0.375,1.8876953,0.4824219,2.328125C4.4482422,42.125,4.4819336,42.0498047,4.503418,41.9570313
		l0.090332-0.4121094c0.3105469-1.4482422,0.4863281-2.1445313,1.0874023-2.1445313
		c0.1333008,0,0.3833008,0.046875,0.559082,0.3632813c0.3964844,0.546875,0.9038086,1.203125,1.2158203,1.5566406
		c0.1728516-0.2773438,0.3925781-0.7480469,0.4350586-1.296875c0.0463867-0.5917969-0.1303711-1.1162109-0.5239258-1.5595703
		c-0.0292969-0.0322266-0.0541992-0.0693359-0.0737305-0.1083984l-0.875-1.75
		c-0.1181641-0.2363281-0.0322266-0.5234375,0.1962891-0.65625c0.8496094-0.4931641,3.2016602-1.9404297,3.8745117-2.7089844
		c0.0986328-0.1123047,0.2475586-0.171875,0.3930664-0.1708984c0.0024414,0,1.6591797,0.0556641,3.168457,0.0556641
		c0.8666992,0,1.5043945-0.0185547,1.8945313-0.0537109c0.2841797-0.015625,0.5151367,0.1757813,0.5429688,0.4472656
		c0.0043945,0.0429688,0.4384766,4.2421875,1.262207,5.8896484c0.0244141,0.0488281,0.0405273,0.1015625,0.0478516,0.1552734
		L18.1767578,42.3203125z"/>
	<path style="fill:#330600;" d="M23.9345703,26.8466797c-0.3227539,0-0.5449219-0.027832-0.5722656-0.0317383
		c-0.2734375-0.0366211-0.465332-0.2871094-0.4291992-0.5605469c0.0351563-0.2739258,0.2822266-0.472168,0.5600586-0.4306641
		c0.4453125,0.0566406,1.7167969,0.0673828,2.234375-0.5698242c0.0297852-0.0361328,0.0644531-0.0688477,0.1035156-0.0957031
		c0.4174805-0.2895508,1.5688477-1.2172852,1.8813477-2.0200195c0.0996094-0.2578125,0.3896484-0.3847656,0.6469727-0.284668
		s0.3847656,0.3896484,0.284668,0.6469727c-0.4433594,1.140625-1.8789063,2.2182617-2.1875,2.4399414
		C25.777832,26.7172852,24.6259766,26.8466797,23.9345703,26.8466797z"/>
	<path style="fill:#330600;" d="M20.7402344,37.0693359c-0.0678711,0-0.1367188-0.0136719-0.2026367-0.0429688
		c-1.8349609-0.8154297-2.746582-2.5751953-3.0986328-3.4433594l-1.2802734,0.4570313
		c-0.2587891,0.0917969-0.5463867-0.0419922-0.6386719-0.3027344c-0.0932617-0.2597656,0.0424805-0.5458984,0.3027344-0.6386719
		l1.75-0.625C17.7036133,32.4267578,17.8457031,32.4375,17.96875,32.5c0.1225586,0.0625,0.2138672,0.1738281,0.2524414,0.3056641
		c0.0068359,0.0244141,0.7207031,2.4169922,2.7226563,3.3066406c0.2524414,0.1123047,0.3657227,0.4082031,0.2539063,0.6601563
		C21.1147461,36.9589844,20.9321289,37.0693359,20.7402344,37.0693359z"/>
	<path style="fill:#330600;" d="M34.1787109,34.2568359c-0.0488281,0-0.0986328-0.0068359-0.1484375-0.0224609
		c-0.2636719-0.0820313-0.4111328-0.3623047-0.3291016-0.6259766l0.875-2.8125
		c0.0820313-0.2626953,0.3613281-0.4121094,0.6259766-0.3291016c0.2636719,0.0820313,0.4111328,0.3623047,0.3291016,0.6259766
		l-0.875,2.8125C34.5898438,34.1191406,34.3916016,34.2568359,34.1787109,34.2568359z"/>
	<path style="fill:#330600;" d="M26.0532227,30.3867188c-1.203125,0-3.8769531-2.1162109-5.0078125-3.0581055
		c-0.2119141-0.1767578-0.2407227-0.4921875-0.0639648-0.7041016c0.1767578-0.2124023,0.4916992-0.2412109,0.7045898-0.0644531
		c1.8955078,1.5791016,3.9033203,2.8901367,4.3417969,2.8295898c0.2626953-0.015625,0.5258789,0.1601563,0.5629883,0.4248047
		s-0.1201172,0.5097656-0.3828125,0.5585938C26.159668,30.3828125,26.1079102,30.3867188,26.0532227,30.3867188z"/>
	<path style="fill:#330600;" d="M28.4287109,29.5830078c-0.0449219,0-0.0898438-0.0058594-0.1347656-0.0185547
		c-0.2661133-0.0742188-0.4213867-0.3496094-0.347168-0.6162109l0.5625-2.0136719
		c0.074707-0.265625,0.3544922-0.4189453,0.6157227-0.3466797c0.2661133,0.0742188,0.4213867,0.3500977,0.347168,0.6157227
		l-0.5625,2.0141602C28.8481445,29.4384766,28.6469727,29.5830078,28.4287109,29.5830078z"/>
	<path style="fill:#330600;" d="M30.9912109,38.2568359c-0.1806641,0-0.3544922-0.0976563-0.4438477-0.2685547
		c-0.1274414-0.2451172-0.0327148-0.546875,0.2119141-0.6748047l1.4375-0.75
		c0.2460938-0.1279297,0.5463867-0.0332031,0.6748047,0.2119141c0.1274414,0.2451172,0.0327148,0.546875-0.2119141,0.6748047
		l-1.4375,0.75C31.1479492,38.2382813,31.0688477,38.2568359,30.9912109,38.2568359z"/>
	<path style="fill:#0C7BC6;" d="M21.9907227,17.9443359c0,0,2.5-1.1875,3.5-0.5625s2.8125,5.0625,2.9375,6.8125l1.6875-0.875
		c0,0,2.5625-2.0625,0.375-4.625c0,0-0.1875-2.6972656-3.0625-3.3486328S22.4672852,15.4155273,21.9907227,17.9443359z"/>
	<path style="fill:#005C84;" d="M27.4101563,21.1674805c-0.2680664,0-0.4902344-0.2128906-0.4990234-0.4829102
		c-0.0068359-0.1962891-0.0327148-1.9355469,1.0981445-2.6484375c0.690918-0.4350586,1.6035156-0.362793,2.7124023,0.2148438
		c0.2451172,0.1274414,0.3398438,0.4291992,0.2124023,0.6743164c-0.1274414,0.2446289-0.4291992,0.340332-0.6743164,0.2124023
		c-0.5302734-0.2758789-1.2583008-0.5444336-1.7172852-0.2553711c-0.5532227,0.3486328-0.644043,1.4204102-0.6323242,1.7680664
		c0.0097656,0.2758789-0.206543,0.5073242-0.4824219,0.5166016C27.421875,21.1674805,27.4160156,21.1674805,27.4101563,21.1674805z"
		/>
	<path style="fill:#330600;" d="M28.4282227,24.6943359c-0.0844727,0-0.168457-0.0214844-0.2441406-0.0639648
		c-0.1469727-0.0820313-0.2426758-0.2324219-0.2543945-0.4003906c-0.1191406-1.6674805-1.9135742-5.9301758-2.7041016-6.4243164
		c-0.1103516-0.0688477-0.2900391-0.1054688-0.519043-0.1054688c-1.0205078,0-2.4868164,0.6889648-2.5014648,0.6958008
		c-0.1704102,0.0795898-0.371582,0.0581055-0.5195313-0.0556641c-0.1489258-0.1152344-0.2211914-0.3037109-0.1860352-0.4887695
		c0.4970703-2.6376953,2.7089844-3.746582,6.0390625-2.9936523c2.4326172,0.5512695,3.2910156,2.5283203,3.434082,3.6342773
		c0.6738281,0.8369141,0.972168,1.7172852,0.8881836,2.6196289c-0.1445313,1.5449219-1.3789063,2.5546875-1.4316406,2.597168
		l-1.7709961,0.9291992C28.5859375,24.6757813,28.5073242,24.6943359,28.4282227,24.6943359z M24.706543,16.7001953
		c0.4223633,0,0.7753906,0.0864258,1.0493164,0.2578125c1.0795898,0.6743164,2.6259766,4.3974609,3.0605469,6.4716797
		l1.0175781-0.5273438c0.1708984-0.1518555,0.9418945-0.8901367,1.0317383-1.8911133
		c0.0595703-0.6650391-0.1943359-1.3349609-0.7553711-1.9921875c-0.0693359-0.081543-0.1108398-0.1831055-0.1186523-0.2900391
		c-0.0073242-0.0932617-0.2109375-2.3378906-2.6738281-2.8955078c-2.3017578-0.5205078-3.8671875-0.1005859-4.5322266,1.2553711
		C23.355957,16.8930664,24.078125,16.7001953,24.706543,16.7001953z"/>
	<path style="fill:#330600;" d="M23.0585938,23.0854492c-0.0776367,0-0.15625-0.0180664-0.2294922-0.0561523l-1.0883789-0.5639648
		c-0.2094727-0.1083984-0.3144531-0.3486328-0.2519531-0.5761719l0.4970703-1.8110352
		c-0.1069336,0.0317383-0.2441406,0.0917969-0.3432617,0.1577148c-0.2294922,0.152832-0.5400391,0.090332-0.6933594-0.1396484
		c-0.152832-0.2299805-0.090332-0.5405273,0.1396484-0.6933594c0.1162109-0.0771484,0.7246094-0.4570313,1.2973633-0.3144531
		c0.2724609,0.0673828,0.4897461,0.2373047,0.628418,0.4912109c0.0620117,0.1137695,0.0776367,0.2470703,0.0429688,0.3720703
		l-0.4975586,1.8120117l0.7290039,0.3779297c0.2451172,0.1269531,0.3408203,0.4287109,0.2138672,0.6738281
		C23.4140625,22.9873047,23.2392578,23.0854492,23.0585938,23.0854492z"/>
	<path style="fill:#330600;" d="M22.3134766,24.6943359c-0.1621094,0-0.3217773-0.0791016-0.4174805-0.2246094
		c-0.1523438-0.2304688-0.0888672-0.5405273,0.1411133-0.6923828c0.2592773-0.1713867,2.5737305-1.6523438,3.9995117-0.9003906
		c0.0546875,0.0288086,0.1035156,0.0678711,0.144043,0.1142578l0.3125,0.359375
		c0.1811523,0.2084961,0.1591797,0.5244141-0.0493164,0.7055664c-0.2084961,0.1796875-0.5234375,0.1601563-0.7055664-0.0493164
		l-0.2426758-0.2792969c-0.7138672-0.2807617-2.1450195,0.3818359-2.9072266,0.8842773
		C22.503418,24.6674805,22.4082031,24.6943359,22.3134766,24.6943359z"/>
	<path style="fill:#330600;" d="M23.7407227,19.7011719c-0.2060547,0-0.3994141-0.128418-0.4716797-0.3339844
		c-0.0917969-0.2607422,0.0454102-0.5458984,0.3056641-0.6376953l2.0625-0.7255859
		c0.2617188-0.0917969,0.5458984,0.0449219,0.6376953,0.3056641s-0.0454102,0.5458984-0.3056641,0.6376953l-2.0625,0.7255859
		C23.8515625,19.6923828,23.7958984,19.7011719,23.7407227,19.7011719z"/>
	<circle style="fill:#FFD41F;" cx="53.5595703" cy="19.2094727" r="5.3583984"/>
	<path style="fill:#330600;" d="M53.5595703,25.0678711c-3.2304688,0-5.8583984-2.6279297-5.8583984-5.8583984
		s2.6279297-5.8583984,5.8583984-5.8583984s5.8583984,2.6279297,5.8583984,5.8583984S56.7900391,25.0678711,53.5595703,25.0678711z
		 M53.5595703,14.3510742c-2.6787109,0-4.8583984,2.1796875-4.8583984,4.8583984s2.1796875,4.8583984,4.8583984,4.8583984
		s4.8583984-2.1796875,4.8583984-4.8583984S56.2382813,14.3510742,53.5595703,14.3510742z"/>
	<path style="fill:#330600;" d="M53.5595703,24.8178711c-0.1181641,0-0.2236328-0.0839844-0.2460938-0.2041016
		c-0.0253906-0.1357422,0.0644531-0.2661133,0.2001953-0.2915039c1.5292969-0.2866211,2.8066406-2.2543945,3.1220703-2.7773438
		l-2.3095703-3.5727539c-2.4042969,0.8212891-5.8203125,0.7568359-5.9746094,0.753418
		c-0.1376953-0.0029297-0.2470703-0.1176758-0.2441406-0.2553711c0.0029297-0.1381836,0.1347656-0.2363281,0.2558594-0.2446289
		c0.0351563,0.0024414,3.6572266,0.0698242,5.9785156-0.7895508c0.1083984-0.0405273,0.2333984,0,0.296875,0.0986328l2.5,3.8676758
		c0.0498047,0.0771484,0.0537109,0.1757813,0.0087891,0.2563477c-0.0625,0.1137695-1.5546875,2.7827148-3.5419922,3.1547852
		C53.5898438,24.8164063,53.5742188,24.8178711,53.5595703,24.8178711z"/>
	<path style="fill:#330600;" d="M48.7958984,21.3691406c-0.1376953,0-0.2490234-0.1108398-0.25-0.2485352
		s0.1103516-0.2504883,0.2480469-0.2514648c0.0361328,0,3.6210938-0.043457,6.6777344-1.6289063
		c0.1220703-0.0644531,0.2744141-0.0161133,0.3369141,0.1064453c0.0634766,0.1225586,0.015625,0.2734375-0.1064453,0.3369141
		c-3.1660156,1.6430664-6.7539063,1.6845703-6.9042969,1.6855469C48.796875,21.3691406,48.796875,21.3691406,48.7958984,21.3691406z
		"/>
	<path style="fill:#330600;" d="M51.1933594,24.2617188c-0.0917969,0-0.1806641-0.0512695-0.2246094-0.1396484
		c-0.0605469-0.1240234-0.0097656-0.2739258,0.1142578-0.3349609c0.0410156-0.0200195,4.1123047-2.0288086,5.0859375-3.2734375
		c0.0859375-0.1103516,0.2412109-0.1298828,0.3515625-0.0429688c0.1083984,0.0849609,0.1279297,0.2421875,0.0429688,0.3505859
		c-1.0439453,1.3344727-5.0878906,3.3305664-5.2597656,3.4150391C51.2685547,24.253418,51.2304688,24.2617188,51.1933594,24.2617188
		z"/>
	<path style="fill:#330600;" d="M54.4287109,17.9204102c-0.0039063,0-0.0087891,0-0.0126953-0.0004883
		c-0.1376953-0.0068359-0.2441406-0.1245117-0.2373047-0.262207c0.0029297-0.0561523,0.0820313-1.3823242,1.0185547-2.1293945
		c0.5439453-0.434082,1.2548828-0.5791016,2.1142578-0.4287109c0.1357422,0.0234375,0.2275391,0.1533203,0.203125,0.2890625
		c-0.0244141,0.1352539-0.1484375,0.2324219-0.2890625,0.203125c-0.7089844-0.1225586-1.2880859-0.0136719-1.7167969,0.3271484
		c-0.7626953,0.6083984-0.8300781,1.7529297-0.8300781,1.7641602C54.671875,17.8168945,54.5615234,17.9204102,54.4287109,17.9204102
		z"/>
	<path style="fill:#330600;" d="M51.8974609,18.5068359c-0.1289063,0-0.2382813-0.0986328-0.2490234-0.2285156
		c-0.1269531-1.4858398,0.2861328-4.359375,2.7558594-4.6025391c0.1298828-0.0063477,0.2597656,0.0874023,0.2734375,0.2246094
		s-0.0869141,0.2597656-0.2246094,0.2734375c-2.6015625,0.2558594-2.3095703,4.0239258-2.3066406,4.0615234
		c0.0117188,0.1376953-0.0898438,0.2587891-0.2275391,0.2705078C51.9111328,18.5063477,51.9042969,18.5068359,51.8974609,18.5068359
		z"/>
	<path style="fill:#330600;" d="M49.765625,18.5068359c-0.1015625,0-0.1962891-0.0620117-0.234375-0.1621094
		c-0.0371094-0.0986328-0.890625-2.421875,0.2314453-3.253418c0.109375-0.081543,0.2666016-0.0581055,0.3496094,0.0517578
		c0.0820313,0.1108398,0.0585938,0.2675781-0.0527344,0.3496094C49.3769531,15.9990234,49.7851563,17.5961914,50,18.1689453
		c0.0478516,0.1293945-0.0175781,0.2734375-0.1464844,0.3217773C49.8242188,18.5019531,49.7949219,18.5068359,49.765625,18.5068359z
		"/>
	<path style="fill:#330600;" d="M57.609375,21.9042969c-0.40625,0-0.7451172-0.1235352-0.7675781-0.1318359
		c-0.1298828-0.0483398-0.1953125-0.1914063-0.1474609-0.3208008c0.0478516-0.1303711,0.1943359-0.1958008,0.3212891-0.1479492
		c0.0058594,0.0024414,0.6650391,0.237793,1.0849609-0.0151367c0.2001953-0.1196289,0.3193359-0.3344727,0.3642578-0.6557617
		c0.0185547-0.137207,0.1464844-0.2333984,0.2832031-0.2128906c0.1367188,0.019043,0.2314453,0.1455078,0.2119141,0.2822266
		c-0.0664063,0.4755859-0.2695313,0.8173828-0.6044922,1.0166016C58.1191406,21.8598633,57.8525391,21.9042969,57.609375,21.9042969
		z"/>
	<path style="fill:#330600;" d="M58.3232422,21.9052734c-0.0322266,0-0.0654297-0.0063477-0.0976563-0.0200195
		c-0.1269531-0.0537109-0.1865234-0.2001953-0.1328125-0.3276367c1.0947266-2.5839844-2.6289063-5.7631836-2.6669922-5.7954102
		c-0.1054688-0.0888672-0.1191406-0.246582-0.0302734-0.3520508c0.0888672-0.1049805,0.2460938-0.1196289,0.3525391-0.0297852
		c0.1660156,0.1391602,4.0419922,3.4526367,2.8056641,6.3725586C58.5126953,21.8481445,58.4208984,21.9052734,58.3232422,21.9052734
		z"/>
	<path style="fill:#15CEF9;" d="M14.6679688,44.7490234c-1.996582-0.2714844-3.456543-1.7724609-1.8671875-3.3037109
		s1.2587891,2.2568359,1.8671875,0.4833984s-1.5864258-2.5341797-1.2543945-4.0068359s3.9990234,0.3183594,4.824707,5.0634766
		c0,0-1.0043945-2.2646484,1.5625-0.8955078s1.840332,1.6923828,4.5,1.6923828
		C24.3007813,43.7822266,17.0410156,45.0712891,14.6679688,44.7490234z"/>
	<path style="fill:#15CEF9;" d="M12.253418,39.2646484l-2.4902344-2.2578125c0,0,1.6118164-0.8886719,2.0952148,0
		S12.253418,39.2646484,12.253418,39.2646484z"/>
	<path style="fill:#15CEF9;" d="M11.5361328,40.4736328l-7.4941406-4.9150391c0,0-0.0151367-1.0488281,1.8862305,0.4023438
		c0,0-0.2749023-1.5302734,0.934082-0.4023438S11.5361328,40.4736328,11.5361328,40.4736328z"/>
	<path style="fill:#15CEF9;" d="M24.3745117,42.5039063c0,0,6.71875-0.8740234,8.0546875-2.5146484
		c1.3364258-1.640625,3.1098633-4.4833984,3.5932617-2.7167969c0,0,0.6962891-2.5722656,2.0400391-1.2666016
		c0,0,1.7324219,2.0839844-1,3.9833984c0,0-1.5253906-1.7255859-2.25,0.8642578
		c-0.7246094,2.5908203-2.4980469,3.0478516-6.7685547,3.5957031c0,0-4.0288086-1.6972656-9.8305664,0.4619141
		C18.2133789,44.9111328,21.1484375,40.7099609,24.3745117,42.5039063z"/>
	<path style="fill:#15CEF9;" d="M37.9707031,41.2802734c0,0,1.2050781-5.2363281,2.8164063-4.6328125
		s0.6416016,3.1015625,0.6416016,3.1015625S39.6669922,38.7021484,37.9707031,41.2802734z"/>
	<path style="fill:#15CEF9;" d="M45.8632813,26.6386719v10.6162109l1.6923828-6.7734375
		C47.5556641,30.4814453,46.8300781,24.7294922,45.8632813,26.6386719z"/>
	<path style="fill:#15CEF9;" d="M47.9287109,27.7568359l0.8671875,4.2568359l1.1152344-3.5966797
		C49.9111328,28.4169922,49.0263672,24.1455078,47.9287109,27.7568359z"/>
	<path style="fill:#FFFFFF;" d="M33.0507813,44.8007813c0,0,14.0566406-0.859375,13.8779297-4.5273438
		s-3.0791016-0.4433594-4.4492188,1.0068359S33.0507813,44.8007813,33.0507813,44.8007813z"/>
	<path style="fill:#FFFFFF;" d="M42.4150391,39.2646484c0,0,0.5478516-4.9316406,2.4013672-4.5605469
		S42.4150391,39.2646484,42.4150391,39.2646484z"/>
</g>
</svg>
