<?xml version="1.0" encoding="UTF-8" standalone="no"?>
<!-- Generator: Adobe Illustrator 15.0.2, SVG Export Plug-In . SVG Version: 6.00 Build 0)  -->

<svg
   xmlns:dc="http://purl.org/dc/elements/1.1/"
   xmlns:cc="http://creativecommons.org/ns#"
   xmlns:rdf="http://www.w3.org/1999/02/22-rdf-syntax-ns#"
   xmlns:svg="http://www.w3.org/2000/svg"
   xmlns="http://www.w3.org/2000/svg"
   xmlns:sodipodi="http://sodipodi.sourceforge.net/DTD/sodipodi-0.dtd"
   xmlns:inkscape="http://www.inkscape.org/namespaces/inkscape"
   version="1.1"
   id="レイヤー_1"
   x="0px"
   y="0px"
   width="64px"
   height="64px"
   viewBox="0 0 64 64"
   style="enable-background:new 0 0 64 64;"
   xml:space="preserve"
   inkscape:version="0.48.5 r10040"
   sodipodi:docname="water_buffalo.svg"><metadata
     id="metadata63"><rdf:RDF><cc:Work
         rdf:about=""><dc:format>image/svg+xml</dc:format><dc:type
           rdf:resource="http://purl.org/dc/dcmitype/StillImage" /></cc:Work></rdf:RDF></metadata><defs
     id="defs61" /><sodipodi:namedview
     pagecolor="#ffffff"
     bordercolor="#666666"
     borderopacity="1"
     objecttolerance="10"
     gridtolerance="10"
     guidetolerance="10"
     inkscape:pageopacity="0"
     inkscape:pageshadow="2"
     inkscape:window-width="640"
     inkscape:window-height="480"
     id="namedview59" /><g
     id="g3"><g
       id="g5"><g
         id="g7"><path
           style="fill:#131213;"
           d="M58.3916016,22.0039063c0,0,4.1494141,0.7832031,3.6015625,3.5234375     c-0.5478516,2.7412109-0.7041016,6.1875-0.8603516,9.0849609c-0.1572266,2.8984375,0.15625,6.578125,0.15625,6.578125     s0.9394531,2.1152344,0,2.8984375c0,0-2.4521484-0.9394531-1.3261719-4.3867188c0,0,0.3076172-9.9970703,0.7773438-11.2636719     s-0.078125-5.1826172-1.9580078-4.3994141L58.3916016,22.0039063z"
           id="path9" /><path
           style="fill:#110306;"
           d="M61.3808594,44.6445313l-0.265625-0.1015625     c-0.0283203-0.0117188-2.8359375-1.1357422-1.6357422-4.9248047c0.0410156-1.3095703,0.3310547-10.0703125,0.8046875-11.3486328     c0.2548828-0.6855469,0.1376953-2.59375-0.4755859-3.4746094c-0.2587891-0.3720703-0.4804688-0.3720703-0.5527344-0.3720703     c-0.0859375,0-0.1826172,0.0214844-0.2871094,0.0654297l-0.5507813,0.2294922l-0.6386719-3.3242188l0.7021484,0.1328125     c0.1044922,0.0195313,2.5537109,0.4970703,3.5878906,2.0302734c0.4160156,0.6171875,0.5507813,1.3125,0.4003906,2.0664063     c-0.5058594,2.5322266-0.6738281,5.6787109-0.8212891,8.4550781l-0.0302734,0.5605469     c-0.1416016,2.6015625,0.1054688,5.8896484,0.1484375,6.4335938c0.1972656,0.4726563,0.9394531,2.4677734-0.1660156,3.3896484     L61.3808594,44.6445313z M60.6123047,35.5214844c-0.0693359,1.4638672-0.125,2.9414063-0.1640625,4.1953125l-0.0234375,0.1357422     c-0.7285156,2.2304688,0.1992188,3.2353516,0.7265625,3.6044922c0.2060547-0.5566406-0.0908203-1.5800781-0.3066406-2.0703125     l-0.0400391-0.1552734C60.7929688,41.0957031,60.5507813,38.2050781,60.6123047,35.5214844z M59.2558594,23.4501953     c0.3652344,0,0.8964844,0.1376953,1.3505859,0.7900391c0.3867188,0.5566406,0.6298828,1.3867188,0.7285156,2.2080078     c0.0556641-0.3466797,0.1162109-0.6855469,0.1816406-1.015625c0.0996094-0.4970703,0.0166016-0.9335938-0.2529297-1.3330078     c-0.4833984-0.7167969-1.4970703-1.1816406-2.2490234-1.4287109l0.1503906,0.7822266     C59.1953125,23.4511719,59.2255859,23.4501953,59.2558594,23.4501953z"
           id="path11" /></g><g
         id="g13"><path
           style="fill:#131213;"
           d="M31.4506836,33.7509766c0,0-0.7050781,6.5800781,0,7.4394531     c0.7045898,0.8613281,0.4023438,4.0742188,0.4023438,4.0742188s1.6342773,4.4628906,1.3208008,5.2460938     c-0.3139648,0.7832031-1.3208008,2.7402344-1.3208008,2.7402344h-2.8305664c0,0,1.9575195-3.2890625,1.5664063-4.6191406     c-0.3916016-1.3320313-0.7050781-4.4648438-1.5664063-5.1308594c-0.8608398-0.6640625-0.9394531-6.3027344-0.9394531-6.3027344     L31.4506836,33.7509766z"
           id="path15" /><path
           style="fill:#110306;"
           d="M32.1494141,53.7373047h-3.9814453l0.4370117-0.734375     c0.7675781-1.2910156,1.7456055-3.4580078,1.5175781-4.234375c-0.121582-0.4140625-0.234375-0.9824219-0.3530273-1.5839844     c-0.2314453-1.171875-0.581543-2.9414063-1.0444336-3.2988281c-0.9443359-0.7285156-1.1035156-4.9150391-1.1279297-6.6806641     l-0.0029297-0.2021484l4.4887695-4.5947266l-0.1489258,1.3945313c-0.3232422,3.0146484-0.4550781,6.5800781-0.1054688,7.0830078     c0.7470703,0.9121094,0.5830078,3.5517578,0.5180664,4.3144531c0.5268555,1.4482422,1.6152344,4.6484375,1.2783203,5.4912109     c-0.3183594,0.7949219-1.2983398,2.7011719-1.3398438,2.7822266L32.1494141,53.7373047z M29.8525391,52.7646484h1.703125     c0.2827148-0.5566406,0.9326172-1.8496094,1.1665039-2.4345703c0.1210938-0.4511719-0.5927734-2.8964844-1.3256836-4.8984375     l-0.0375977-0.1035156l0.0102539-0.109375c0.1171875-1.2519531,0.1035156-3.234375-0.2944336-3.7207031     c-0.6132813-0.7470703-0.4433594-4.1005859-0.2412109-6.4199219l-2.2612305,2.3144531     c0.0488281,2.5117188,0.3544922,5.3583984,0.75,5.7265625c0.6948242,0.5361328,1.0185547,1.9453125,1.4003906,3.8769531     c0.1147461,0.5791016,0.2231445,1.1259766,0.3325195,1.4990234     C31.3852539,49.6171875,30.4560547,51.6318359,29.8525391,52.7646484z"
           id="path17" /></g><g
         id="g19"><path
           style="fill:#131213;"
           d="M57.2949219,27.4853516c0,0,0.234375,9.5546875,1.0175781,10.4160156     s1.5,5.3261719,1.6503906,7.1269531c0.1513672,1.8007813,0.1630859,5.640625,0,6.1875     c-0.1621094,0.546875-0.9453125,2.0351563-0.9453125,2.0351563h-3.2890625c0,0,2.2382813-2.3476563,2.1757813-3.9941406     C57.8427734,47.6123047,58,44.1669922,57.3730469,43.5009766c-0.6259766-0.6640625-3.2119141-4.3457031-4.3857422-4.8945313     S57.2949219,27.4853516,57.2949219,27.4853516z"
           id="path21" /><path
           style="fill:#110306;"
           d="M59.3105469,53.7373047h-4.7158203l0.7822266-0.8212891     c0.5830078-0.6132813,2.0869141-2.4609375,2.0419922-3.640625c-0.0136719-0.3710938-0.0175781-0.8330078-0.0205078-1.3330078     c-0.0068359-1.2109375-0.0234375-3.7294922-0.3789063-4.1083984c-0.1884766-0.1992188-0.5136719-0.6162109-0.9248047-1.1435547     c-0.8974609-1.1523438-2.5693359-3.2958984-3.3134766-3.6435547c-0.1259766-0.0595703-0.2949219-0.1845703-0.3837891-0.4462891     c-0.5195313-1.5273438,3.2871094-9.0644531,4.4658203-11.3388672l0.8710938-1.6787109l0.0458984,1.890625     c0.1113281,4.5078125,0.4775391,9.5214844,0.8984375,10.1083984c1.03125,1.1337891,1.6904297,6.4716797,1.7685547,7.40625     c0.1435547,1.7089844,0.1845703,5.6855469-0.0185547,6.3662109c-0.1708984,0.5751953-0.8984375,1.9658203-0.9814453,2.1230469     L59.3105469,53.7373047z M56.7871094,52.7646484h1.9345703c0.2587891-0.5048828,0.6738281-1.3457031,0.7753906-1.6865234     c0.1298828-0.453125,0.140625-4.1210938-0.0185547-6.0087891c-0.1875-2.2451172-0.9453125-6.203125-1.5253906-6.8408203     c-0.6699219-0.7373047-0.9628906-5.5175781-1.0849609-8.8271484c-1.9433594,3.9121094-3.671875,7.9580078-3.5644531,8.8222656     c0.8828125,0.4931641,2.1865234,2.1103516,3.5576172,3.8691406c0.3798828,0.4873047,0.7080078,0.9082031,0.8652344,1.0751953     c0.5742188,0.609375,0.6289063,2.3603516,0.6435547,4.7685547c0.0039063,0.4892578,0.0058594,0.9394531,0.0195313,1.3017578     C58.4355469,50.4472656,57.4882813,51.8779297,56.7871094,52.7646484z"
           id="path23" /></g><g
         id="g25"><path
           style="fill:#2B292A;"
           d="M2.1611328,20.515625c0,0-1.7260742-0.1279297,5.6435547-4.5234375     c2.7255859-5.4033203,6.8085938-3.1513672,7.7480469-2.2900391s1.8007813,3.8378906,3.2890625,3.7587891     c1.4882813-0.078125,3.9692383-1.9375,9.2412109-2.1923828C32.75,15.0429688,38.1083984,16.6132813,40.1445313,16.6455078     c2.0351563,0.0332031,8.6132813-0.890625,10.1806641-0.8291016c4.4550781,0.1757813,9.4755859,4.6992188,9.6328125,7.4404297     c0.15625,2.7402344-3.1337891,9.8681641-4.0732422,11.5136719c-0.9394531,1.6425781-2.4277344,3.0527344-1.8789063,4.2265625     c0.5488281,1.1757813,0.5488281,4.7773438-0.6269531,6.109375c-1.1748047,1.3320313-5.2470703,7.0488281-5.2470703,8.1445313     h-3.6806641c0,0,1.8027344-3.1328125,2.6630859-3.7597656c0.8613281-0.625,4.2294922-7.0488281,3.9941406-8.3789063     s-0.8613281-3.8378906-1.5664063-3.8378906c0,0-5.7958984,0.9414063-9.1630859,0.3144531s-6.03125-2.4277344-7.3613281-1.5664063     c-1.3320313,0.8613281-5.0126953,5.8730469-4.855957,6.8144531c0.15625,0.9394531-1.4101563,3.4453125-1.175293,4.4628906     s-1.565918,5.9511719-1.565918,5.9511719h-3.8378906c0,0,3.1328125-4.6210938,3.2109375-6.1875     c0.0786133-1.5644531-0.3134766-5.9511719,0.3134766-7.3613281c0.6264648-1.4082031-0.6264648-3.8359375-0.6264648-3.8359375     s-6.8920898-6.7089844-8.3798828-7.4277344c-1.4873047-0.71875-2.2705078-3.8505859-3.6020508-4.7900391     c0,0-1.6445313-0.9931641-3.1323242,0.3134766c-1.0966797,0.4697266-4.855957-0.7050781-5.4824219-1.1748047     C3.2578125,22.3164063,2.1611328,22.5517578,2.1611328,20.515625z"
           id="path27" /><path
           style="fill:#110306;"
           d="M48.1318359,53.7373047h-4.5205078l0.4189453-0.7285156     c0.1894531-0.3300781,1.8808594-3.2421875,2.7978516-3.9101563c0.8125-0.5898438,3.9902344-6.8388672,3.8017578-7.9013672     c-0.3105469-1.7578125-0.8261719-3.1738281-1.1201172-3.4257813c-0.6035156,0.09375-3.5029297,0.5185547-6.28125,0.5185547     c-1.1533203,0-2.1416016-0.0751953-2.9384766-0.2236328c-1.3613281-0.2529297-2.59375-0.6875-3.6816406-1.0703125     c-1.5087891-0.5322266-2.7607422-0.9326172-3.3271484-0.5654297c-1.331543,0.8613281-4.6430664,5.5556641-4.6386719,6.3427734     c0.0947266,0.5644531-0.2260742,1.3779297-0.5976563,2.3203125c-0.300293,0.7626953-0.6743164,1.7109375-0.5849609,2.0966797     c0.2480469,1.0742188-1.1489258,5.0380859-1.5830078,6.2275391l-0.1166992,0.3193359h-5.0942383l0.5141602-0.7587891     c1.1816406-1.7431641,3.0761719-4.8974609,3.1279297-5.9394531c0.0224609-0.4462891,0.0048828-1.1445313-0.0161133-1.953125     c-0.0507813-2.0009766-0.1142578-4.4902344,0.3710938-5.5810547c0.4194336-0.9433594-0.2470703-2.671875-0.5800781-3.3476563     c-1.9467773-1.8925781-7.043457-6.7255859-8.1938477-7.28125c-0.9375-0.453125-1.5761719-1.6113281-2.1938477-2.7324219     c-0.4672852-0.8486328-0.9506836-1.7255859-1.4760742-2.0976563c0,0.0009766,0,0.0009766,0,0.0009766     c-0.0039063,0-0.4931641-0.2734375-1.1206055-0.2734375c-0.5185547,0-0.9931641,0.1855469-1.4116211,0.5537109     l-0.1293945,0.0810547c-0.2329102,0.0996094-0.5292969,0.1484375-0.90625,0.1484375     c-1.5634766,0-4.4150391-0.8984375-5.059082-1.3808594c-0.1035156-0.078125-0.2485352-0.1357422-0.4165039-0.2021484     c-0.565918-0.2255859-1.40625-0.5595703-1.4931641-2.1757813c-0.0766602-0.0771484-0.1362305-0.1777344-0.1650391-0.3007813     c-0.1020508-0.4296875-0.2709961-1.1484375,5.9179688-4.8505859c1.5585938-3,3.5341797-3.6347656,4.9262695-3.6347656     c1.6308594,0,2.9794922,0.8378906,3.5195313,1.3320313c0.3862305,0.3544922,0.7260742,0.9521484,1.0859375,1.5849609     c0.5185547,0.9130859,1.1640625,2.0478516,1.8168945,2.0478516c0.4707031-0.0234375,1.0830078-0.2558594,1.8583984-0.5488281     c1.5488281-0.5869141,3.8901367-1.4736328,7.4169922-1.6445313c3.0400391-0.1474609,6.3164063,0.4443359,8.8789063,0.9091797     c1.3535156,0.2451172,2.5224609,0.4560547,3.2138672,0.4677734l0.1025391,0.0009766     c1.0546875,0,3.1796875-0.2226563,5.2353516-0.4375c1.9443359-0.2041016,3.7802734-0.3955078,4.6669922-0.3955078     l0.1875,0.0029297c4.5751953,0.1796875,9.9238281,4.8613281,10.0986328,7.8974609     c0.1708984,3.0039063-3.3945313,10.484375-4.1367188,11.7832031c-0.2685547,0.46875-0.5722656,0.9091797-0.8662109,1.3349609     c-0.6835938,0.9902344-1.2744141,1.8457031-0.9941406,2.4443359c0.6025391,1.2910156,0.6572266,5.0957031-0.703125,6.6367188     c-1.3222656,1.5-5.1035156,6.9501953-5.125,7.8242188l-0.0126953,0.4736328L48.1318359,53.7373047z M45.3046875,52.7646484H47.75     c0.6767578-1.9628906,4.453125-7.0595703,5.2646484-7.9794922c1.0283203-1.1650391,1.0263672-4.5634766,0.5507813-5.5830078     c-0.515625-1.1035156,0.2568359-2.2226563,1.0751953-3.4072266c0.2792969-0.4052734,0.5712891-0.8261719,0.8222656-1.265625     c1.0869141-1.9033203,4.1533203-8.7255859,4.0097656-11.2451172c-0.1367188-2.3789063-4.8085938-6.8105469-9.1669922-6.9824219     l-0.1484375-0.0019531c-0.8359375,0-2.6474609,0.1894531-4.5664063,0.3896484     c-2.0800781,0.2177734-4.2304688,0.4433594-5.3359375,0.4433594l-0.1181641-0.0009766     c-0.7705078-0.0126953-1.9179688-0.2207031-3.3710938-0.4833984c-2.5146484-0.4560547-5.7202148-1.0351563-8.6591797-0.8945313     c-3.3735352,0.1630859-5.5385742,0.9833984-7.1196289,1.5820313c-0.8544922,0.3242188-1.5292969,0.5791016-2.1196289,0.6103516     c-0.0009766,0-0.0019531,0-0.0029297,0c-1.2998047,0-2.065918-1.3476563-2.7421875-2.5371094     c-0.3066406-0.5390625-0.6240234-1.0976563-0.8979492-1.3486328c-0.4716797-0.4326172-1.6240234-1.0771484-2.8623047-1.0771484     c-1.6557617,0-3.0429688,1.0859375-4.1230469,3.2275391l-0.0639648,0.1259766l-0.1210938,0.0722656     c-3.7875977,2.2597656-5.0117188,3.2978516-5.4067383,3.7333984v0.3730469c0,1.2021484,0.3725586,1.3496094,0.8876953,1.5546875     c0.2036133,0.0810547,0.4335938,0.1728516,0.6411133,0.328125c0.418457,0.3134766,3.0209961,1.1865234,4.4755859,1.1865234     c0.2412109,0,0.3847656-0.0263672,0.4658203-0.0498047c0.5839844-0.4873047,1.25-0.734375,1.9814453-0.734375     c0.9257813,0,1.6220703,0.4140625,1.6508789,0.4316406c0.737793,0.5195313,1.2524414,1.453125,1.7973633,2.4423828     c0.5439453,0.9873047,1.1064453,2.0078125,1.7651367,2.3261719c1.5151367,0.7314453,7.7963867,6.8242188,8.5073242,7.5166016     l0.0927734,0.1259766c0.1391602,0.2695313,1.3398438,2.6806641,0.6386719,4.2558594     c-0.3959961,0.890625-0.3330078,3.359375-0.2871094,5.1611328c0.0209961,0.8291016,0.0395508,1.5439453,0.0151367,2.0273438     c-0.0649414,1.3046875-1.8706055,4.2509766-2.7929688,5.6767578h2.5932617     c0.8012695-2.2412109,1.5532227-4.8388672,1.4335938-5.3554688c-0.1567383-0.6796875,0.2246094-1.6474609,0.628418-2.671875     c0.2641602-0.6708984,0.59375-1.5058594,0.5410156-1.8203125c-0.2119141-1.2734375,3.6933594-6.4111328,5.0708008-7.3027344     c0.9121094-0.5908203,2.3720703-0.171875,4.1787109,0.4648438c1.0537109,0.3710938,2.2490234,0.7919922,3.5361328,1.0322266     c0.7382813,0.1376953,1.6669922,0.2070313,2.7607422,0.2070313c2.9775391,0,6.203125-0.5185547,6.2353516-0.5234375     c0.0019531,0,0.0029297,0,0.0048828,0c1.1455078,0,1.7763672,2.3017578,2.1181641,4.2324219     c0.2763672,1.5634766-3.1884766,8.1318359-4.1875,8.8574219C46.9394531,50.2197266,46.0029297,51.6210938,45.3046875,52.7646484z     "
           id="path29" /></g><path
         style="fill:#191919;"
         d="M31.8530273,37.1201172c0,0,2.574707-6.8154297,2.4956055-7.9121094    c-0.078125-1.0957031,0.8613281-0.7041016,1.4101563,1.1748047c0.5478516,1.8798828,2.3173828,6.6005859,2.3173828,6.6005859    S33.5878906,33.9111328,31.8530273,37.1201172z"
         id="path31" /><path
         style="fill:#191919;"
         d="M49.3632813,37.4345703c0,0-2.6855469-4.3037109-3.0761719-5.8701172    c-0.3916016-1.5673828,2.4560547-6.1152344,1.7509766-7.4472656c-0.7050781-1.3300781-3.1650391,6.2128906-3.9482422,8.0146484    c-0.7832031,1.8007813-0.1621094,5.5410156-2.9238281,5.6152344    C41.1660156,37.7470703,48.1054688,37.7509766,49.3632813,37.4345703z"
         id="path33" /><path
         style="fill:#191919;"
         d="M10.8540039,23.6542969c0,0,3.4458008-1.0234375,3.8374023-1.6503906    s4.6982422-1.2529297,3.9155273,0c-0.7832031,1.2529297-3.9765625,1.3544922-3.9853516,4.7880859    C14.621582,26.7919922,12.5771484,22.8779297,10.8540039,23.6542969z"
         id="path35" /><path
         style="fill:#191919;"
         d="M24.8720703,35.7099609c0,0-1.0175781-5.0917969-1.8012695-5.796875    c-0.7832031-0.7050781,0.5327148,5.1074219,0.5327148,5.1074219L24.8720703,35.7099609z"
         id="path37" /><path
         style="fill:#191919;"
         d="M35.5644531,15.9707031c0,0,3.4042969,2.7431641,4.5009766,2.3515625    c1.0976563-0.3916016,7.6943359-2.3496094,7.6943359-2.3496094S39.2080078,17.2207031,35.5644531,15.9707031z"
         id="path39" /><g
         id="g41"><path
           style="fill:#2B292A;"
           d="M15.4067383,16.6103516c0,0,2.0366211,0.6269531,2.0366211,1.8017578     c0,1.1738281-0.9423828,3.9248047-2.0366211,1.2529297c-0.6040039-1.4765625-1.331543-0.9296875-1.331543-0.9296875"
           id="path43" /><path
           style="fill:#110306;"
           d="M16.3388672,21.2822266c-0.7949219,0-1.2314453-1.0664063-1.3818359-1.4335938     c-0.2539063-0.6201172-0.4775391-0.7099609-0.5195313-0.7216797l-0.6542969-0.7802734     c0.1831055-0.1376953,0.5307617-0.2617188,0.9121094-0.15625c0.4736328,0.1298828,0.8642578,0.5644531,1.1611328,1.2900391     c0.3051758,0.7451172,0.5131836,0.8310547,0.5151367,0.8310547c0.1967773-0.1025391,0.5859375-1.1591797,0.5859375-1.8994141     c0-0.6123047-1.1416016-1.1650391-1.6943359-1.3369141l0.2866211-0.9287109     c0.2436523,0.0742188,2.3793945,0.7753906,2.3793945,2.265625c0,0.7578125-0.4052734,2.6542969-1.4086914,2.8525391     C16.4580078,21.2763672,16.3974609,21.2822266,16.3388672,21.2822266z"
           id="path45" /></g><path
         style="fill:#040000;"
         d="M8.9614258,17.4951172l0.9853516-0.9482422c0,0,0.3291016,0.4306641,1.5341797,0.4746094    C11.480957,17.0214844,9.7280273,18.3554688,8.9614258,17.4951172z"
         id="path47" /><path
         style="fill:#110306;"
         d="M48.1318359,53.7373047h-4.5205078l0.4189453-0.7285156    c0.1894531-0.3300781,1.8808594-3.2421875,2.7978516-3.9101563c0.8125-0.5898438,3.9902344-6.8388672,3.8017578-7.9013672    c-0.3105469-1.7578125-0.8261719-3.1738281-1.1201172-3.4257813c-0.6035156,0.09375-3.5029297,0.5185547-6.28125,0.5185547    c-1.1533203,0-2.1416016-0.0751953-2.9384766-0.2236328c-1.3613281-0.2529297-2.59375-0.6875-3.6816406-1.0703125    c-1.5087891-0.5322266-2.7607422-0.9326172-3.3271484-0.5654297c-1.331543,0.8613281-4.6430664,5.5556641-4.6386719,6.3427734    c0.0947266,0.5644531-0.2260742,1.3779297-0.5976563,2.3203125c-0.300293,0.7626953-0.6743164,1.7109375-0.5849609,2.0966797    c0.2480469,1.0742188-1.1489258,5.0380859-1.5830078,6.2275391l-0.1166992,0.3193359h-5.0942383l0.5141602-0.7587891    c1.1816406-1.7431641,3.0761719-4.8974609,3.1279297-5.9394531c0.0224609-0.4462891,0.0048828-1.1445313-0.0161133-1.953125    c-0.0507813-2-0.1142578-4.4902344,0.3710938-5.5810547c0.4194336-0.9433594-0.2470703-2.671875-0.5800781-3.3476563    c-1.9467773-1.8925781-7.043457-6.7255859-8.1938477-7.28125c-0.9375-0.453125-1.5761719-1.6113281-2.1938477-2.7324219    c-0.465332-0.8447266-0.9462891-1.71875-1.4692383-2.0917969c-0.0039063-0.0058594-0.4511719-0.1738281-1.0561523-0.1738281    c-0.5644531,0-1.0761719,0.1611328-1.5209961,0.4794922l-0.0913086,0.0507813    c-0.2329102,0.0996094-0.5292969,0.1484375-0.90625,0.1484375c-1.5634766,0-4.4150391-0.8984375-5.059082-1.3808594    c-0.1035156-0.078125-0.2485352-0.1357422-0.4165039-0.2021484c-0.5639648-0.2246094-1.3994141-0.5566406-1.4921875-2.1572266    c-0.0820313-0.0751953-0.1464844-0.1748047-0.1796875-0.3007813c-0.1103516-0.4179688-0.2949219-1.1171875,5.9316406-4.8681641    c1.5581055-3.0009766,3.5341797-3.6357422,4.9262695-3.6357422c1.6308594,0,2.9794922,0.8378906,3.5195313,1.3320313    c0.3862305,0.3544922,0.7260742,0.9521484,1.0859375,1.5849609c0.5185547,0.9130859,1.1640625,2.0478516,1.8168945,2.0478516    c0.4707031-0.0234375,1.0830078-0.2558594,1.8583984-0.5488281c1.5488281-0.5869141,3.8901367-1.4736328,7.4169922-1.6445313    c3.0400391-0.1474609,6.3164063,0.4443359,8.8789063,0.9091797c1.3535156,0.2451172,2.5224609,0.4560547,3.2138672,0.4677734    l0.1025391,0.0009766c1.0546875,0,3.1796875-0.2226563,5.2353516-0.4375    c1.9443359-0.2041016,3.7802734-0.3955078,4.6669922-0.3955078l0.1875,0.0029297    c4.5751953,0.1796875,9.9238281,4.8613281,10.0986328,7.8974609c0.1708984,3.0039063-3.3945313,10.484375-4.1367188,11.7832031    c-0.2685547,0.46875-0.5722656,0.9091797-0.8662109,1.3349609c-0.6835938,0.9902344-1.2744141,1.8457031-0.9941406,2.4443359    c0.6025391,1.2910156,0.6572266,5.0957031-0.703125,6.6367188c-1.3222656,1.5-5.1035156,6.9501953-5.125,7.8242188    l-0.0126953,0.4736328L48.1318359,53.7373047z M45.3046875,52.7646484H47.75    c0.6767578-1.9628906,4.453125-7.0595703,5.2646484-7.9794922c1.0283203-1.1650391,1.0263672-4.5634766,0.5507813-5.5830078    c-0.515625-1.1035156,0.2568359-2.2226563,1.0751953-3.4072266c0.2792969-0.4052734,0.5712891-0.8261719,0.8222656-1.265625    c1.0869141-1.9033203,4.1533203-8.7255859,4.0097656-11.2451172c-0.1367188-2.3789063-4.8085938-6.8105469-9.1669922-6.9824219    l-0.1484375-0.0019531c-0.8359375,0-2.6474609,0.1894531-4.5664063,0.3896484    c-2.0800781,0.2177734-4.2304688,0.4433594-5.3359375,0.4433594l-0.1181641-0.0009766    c-0.7705078-0.0126953-1.9179688-0.2207031-3.3710938-0.4833984c-2.5146484-0.4560547-5.7202148-1.0351563-8.6591797-0.8945313    c-3.3735352,0.1630859-5.5385742,0.9833984-7.1196289,1.5820313c-0.8544922,0.3242188-1.5292969,0.5791016-2.1196289,0.6103516    c-0.0009766,0-0.0019531,0-0.0029297,0c-1.2998047,0-2.065918-1.3476563-2.7421875-2.5371094    c-0.3066406-0.5390625-0.6240234-1.0976563-0.8979492-1.3486328c-0.4716797-0.4326172-1.6240234-1.0771484-2.8623047-1.0771484    c-1.6557617,0-3.0429688,1.0859375-4.1230469,3.2275391l-0.0634766,0.125l-0.1201172,0.0722656    C4.3095703,18.6591797,3.0625,19.6982422,2.6469727,20.140625v0.375c0,1.2021484,0.3725586,1.3496094,0.8876953,1.5546875    c0.2036133,0.0810547,0.434082,0.1728516,0.6411133,0.328125c0.418457,0.3134766,3.0209961,1.1865234,4.4755859,1.1865234    c0.2612305,0,0.4082031-0.0302734,0.4848633-0.0556641c0.6010742-0.4140625,1.284668-0.6230469,2.0336914-0.6230469    c0.8608398,0,1.503418,0.2880859,1.5302734,0.2998047c0.7871094,0.5458984,1.3017578,1.4794922,1.8466797,2.46875    c0.5439453,0.9873047,1.1064453,2.0078125,1.7651367,2.3261719c1.5151367,0.7314453,7.7963867,6.8242188,8.5073242,7.5166016    l0.0927734,0.1259766c0.1391602,0.2695313,1.3398438,2.6806641,0.6386719,4.2558594    c-0.3959961,0.890625-0.3330078,3.359375-0.2871094,5.1611328c0.0209961,0.8291016,0.0395508,1.5439453,0.0151367,2.0273438    c-0.0649414,1.3046875-1.8706055,4.2509766-2.7929688,5.6767578h2.5932617    c0.8012695-2.2412109,1.5532227-4.8388672,1.4335938-5.3554688c-0.1567383-0.6796875,0.2246094-1.6474609,0.628418-2.671875    c0.2641602-0.6708984,0.59375-1.5058594,0.5410156-1.8203125c-0.2119141-1.2734375,3.6933594-6.4111328,5.0708008-7.3027344    c0.9121094-0.5908203,2.3720703-0.171875,4.1787109,0.4648438c1.0537109,0.3710938,2.2490234,0.7919922,3.5361328,1.0322266    c0.7382813,0.1376953,1.6669922,0.2070313,2.7607422,0.2070313c2.9775391,0,6.203125-0.5185547,6.2353516-0.5234375    c0.0019531,0,0.0029297,0,0.0048828,0c1.1455078,0,1.7763672,2.3017578,2.1181641,4.2324219    c0.2763672,1.5634766-3.1884766,8.1318359-4.1875,8.8574219C46.9394531,50.2197266,46.0029297,51.6210938,45.3046875,52.7646484z"
         id="path49" /><g
         id="g51"><path
           style="fill:#6F5F4D;"
           d="M12.5834961,15.9707031c-0.6303711-0.6650391-2.5043945-3.4462891,1.1679688-3.4726563     c2.2280273-0.015625,2.6791992,2.2890625,4.4560547,2.2890625c3.5273438,0,6.6645508-2.8222656,6.6645508-2.8222656     s-1.8681641,4.890625-5.668457,5.4453125C15.6489258,17.9296875,13.9555664,17.4189453,12.5834961,15.9707031z"
           id="path53" /><path
           style="fill:#110306;"
           d="M16.8212891,18.0947266c-2.0292969,0-3.4023438-0.5351563-4.590332-1.7900391     c-0.4575195-0.4824219-1.5371094-1.9882813-1.0463867-3.1416016c0.3212891-0.7539063,1.1835938-1.1416016,2.5634766-1.1513672     c1.3837891,0,2.1918945,0.7607422,2.8408203,1.3710938c0.5444336,0.5126953,0.9746094,0.9179688,1.6186523,0.9179688     c3.293457,0,6.3095703-2.6699219,6.3398438-2.6972656l1.4951172-1.3408203l-0.7163086,1.8759766     c-0.0805664,0.2099609-2.0166016,5.1630859-6.0522461,5.7529297     C18.3388672,18.0283203,17.5366211,18.0947266,16.8212891,18.0947266z M13.7739258,12.9833984     c-0.9487305,0.0068359-1.5439453,0.2060547-1.6953125,0.5605469c-0.2431641,0.5722656,0.4501953,1.6630859,0.8579102,2.0927734     c1.378418,1.4550781,2.9663086,1.765625,6.1967773,1.2929688c2.0322266-0.296875,3.4907227-1.9931641,4.3540039-3.3564453     c-1.3007813,0.8037109-3.2128906,1.6992188-5.2797852,1.6992188c-1.0292969,0-1.6962891-0.6279297-2.2851563-1.1816406     C15.3178711,13.5214844,14.746582,12.9833984,13.7739258,12.9833984z"
           id="path55" /></g></g><path
       style="fill:#110306;"
       d="M31.8525391,37.6064453c-0.065918,0-0.1333008-0.0136719-0.1972656-0.0429688   c-0.2451172-0.1083984-0.3554688-0.3964844-0.2460938-0.6416016C35.609375,27.5029297,34.7626953,26.3759766,32.5,23.3632813   c-0.2504883-0.3339844-0.5166016-0.6894531-0.7939453-1.0771484c-0.1557617-0.21875-0.1054688-0.5224609,0.1132813-0.6777344   c0.2177734-0.15625,0.5224609-0.1054688,0.6777344,0.1132813c0.2724609,0.3808594,0.5341797,0.7294922,0.78125,1.0576172   c2.3701172,3.15625,3.4511719,4.5976563-0.9814453,14.5390625C32.2163086,37.4990234,32.0385742,37.6064453,31.8525391,37.6064453z   "
       id="path57" /></g></svg>