<?xml version="1.0" encoding="UTF-8" standalone="no"?>
<!-- Generator: Adobe Illustrator 15.0.0, SVG Export Plug-In . SVG Version: 6.00 Build 0)  -->

<svg
   xmlns:dc="http://purl.org/dc/elements/1.1/"
   xmlns:cc="http://creativecommons.org/ns#"
   xmlns:rdf="http://www.w3.org/1999/02/22-rdf-syntax-ns#"
   xmlns:svg="http://www.w3.org/2000/svg"
   xmlns="http://www.w3.org/2000/svg"
   xmlns:sodipodi="http://sodipodi.sourceforge.net/DTD/sodipodi-0.dtd"
   xmlns:inkscape="http://www.inkscape.org/namespaces/inkscape"
   version="1.1"
   id="レイヤー_1"
   x="0px"
   y="0px"
   width="64px"
   height="64px"
   viewBox="0 0 64 64"
   style="enable-background:new 0 0 64 64;"
   xml:space="preserve"
   inkscape:version="0.48.5 r10040"
   sodipodi:docname="wave.svg"><metadata
     id="metadata27"><rdf:RDF><cc:Work
         rdf:about=""><dc:format>image/svg+xml</dc:format><dc:type
           rdf:resource="http://purl.org/dc/dcmitype/StillImage" /></cc:Work></rdf:RDF></metadata><defs
     id="defs25" /><sodipodi:namedview
     pagecolor="#ffffff"
     bordercolor="#666666"
     borderopacity="1"
     objecttolerance="10"
     gridtolerance="10"
     guidetolerance="10"
     inkscape:pageopacity="0"
     inkscape:pageshadow="2"
     inkscape:window-width="640"
     inkscape:window-height="480"
     id="namedview23" /><g
     id="g3"><g
       id="g5"><g
         id="g7"><path
           style="fill:#FFB997;"
           d="M42.2490234,58.7724609c-8.6494141,4.7539063-14.5205078,0.4570313-16.4926758-1.5185547     c-3.9516602-3.9589844-7.0932617-7.1630859-13.8105469-16.1787109     c-7.0351563-8.3193359-0.3256836-10.1787109,4.7631836-4.4052734c0,0-6.8500977-7.0942383-9.2089844-10.8178711     c-2.6665039-4.2070313,1.1474609-7.8198242,3.9375-4.6547852l5.5053711,6.2446289c0,0-5.1376953-6.3271484-7.4428711-8.9423828     c-2.3046875-2.6137695-0.5576172-8.7509766,4.3330078-5.1669922c2.7407227,2.0083008,9.1933594,9.9282227,3.3696289,3.3237305     c-2.0620117-2.340332,0.5625-9.1904297,3.7167969-5.6132813c3.1552734,3.578125,17.237793,18.6318359,17.237793,18.6318359     s0.3359375,3.0957031,0.9228516,2.3056641c-0.65625-5.5947266,0.4082031-9.2910156,0.4082031-9.2910156     s0.7724609-7.2866211,7.2089844-6.1113281c-0.2734375,6.1074219,1.1884766,9.2250977,1.1884766,9.2250977     s2.1582031,8.2768555,2.75,12.7397461C52.6494141,45.4248047,53.0556641,50.2363281,42.2490234,58.7724609z"
           id="path9" /><path
           style="fill:#DE9170;"
           d="M36.8574219,43.6611328c0,0-0.0712891-8.7783203,3.0830078-11.3588867L36.875,28.625     C36.875,28.625,32.1157227,39.6992188,36.8574219,43.6611328z"
           id="path11" /><path
           style="fill:#DE9170;"
           d="M23.125,45.5c0,0,8.125,0.25,11.5,1.125C37.96875,47.4921875,29.90625,41.7080078,23.125,45.5z"
           id="path13" /><path
           style="fill:#DE9170;"
           d="M49.625,34.5c0,0,4.7050781,10.6845703-0.75,17.875c-4.359375,4.3935547-6.5,5.875-6.5,5.875     S46.0019531,52.15625,46,46C46,39.8427734,49.625,34.5,49.625,34.5z"
           id="path15" /><path
           style="fill:#420707;"
           d="M51.4541016,38.3701172c-0.6025391-4.4755859-2.6728516-12.4389648-2.7617188-12.7773438     l-0.0498047-0.1411133c-0.0136719-0.0297852-1.3710938-3.050293-1.1123047-8.8364258l-0.6835938-0.8574219     c-0.5146484-0.0942383-1.0195313-0.1420898-1.4980469-0.1420898c-4.6611328,0-6.4003906,4.4829102-6.6816406,6.9160156     c-0.1132813,0.4238281-0.6328125,2.5410156-0.6357422,5.7866211     c-2.9384766-3.144043-13.7900391-14.7695313-16.4863281-17.8271484     c-1.6137695-1.8300781-3.6870117-1.6455078-4.9291992,0.3139648c-0.53125,0.8378906-0.8540039,1.8720703-0.9477539,2.8901367     c-0.3647461-0.3071289-0.7871094-0.6289063-1.3417969-1.0356445c-2.6479492-1.9404297-5.1879883-1.4916992-6.2241211,0.8041992     c-0.8154297,1.8056641-0.4902344,4.1552734,0.7719727,5.5874023c0.0327148,0.0366211,0.065918,0.0742188,0.0996094,0.112793     c-1.1152344,0.0581055-2.1142578,0.7099609-2.6967773,1.7680664c-0.8383789,1.5249023-0.6445313,3.5307617,0.5185547,5.3662109     c1.0952148,1.7290039,3.112793,4.1425781,5.0058594,6.2792969c-1.5864258-0.2924805-2.9296875,0.2363281-3.4658203,1.3920898     c-0.7973633,1.71875,0.2583008,4.4335938,2.9414063,7.6035156c6.9199219,9.2880859,10.1494141,12.5234375,13.8891602,16.2695313     c1.1772461,1.1796875,4.4526367,3.921875,9.4326172,3.921875c2.6132813,0,5.3222656-0.7607422,8.0517578-2.2607422     l0.1152344-0.0771484C53.9550781,50.5888672,53.4873047,45.3408203,51.4541016,38.3701172z M41.7871094,58.0742188     c-2.4609375,1.3417969-4.8789063,2.0224609-7.1884766,2.0224609c-4.355957,0-7.2216797-2.4003906-8.2519531-3.4316406     c-3.6938477-3.7011719-6.8842773-6.8974609-13.7641602-16.1289063c-2.5996094-3.0742188-3.0976563-5.0800781-2.7338867-5.8642578     c0.1567383-0.3378906,0.5200195-0.5097656,1.0795898-0.5097656c0.9941406,0,2.6889648,0.6132813,4.4379883,2.3076172     c0.4521484,0.4785156,4.9277344,5.5273438,4.9277344,5.5273438l1.2509766-1.1035156     c0,0-11.5419922-12.6494141-13.340332-15.4882813c-0.8330078-1.3134766-1.0068359-2.6855469-0.4658203-3.6689453     c0.6308594-1.1459961,2.003418-1.2011719,3.0732422,0.0126953l12.8481445,14.5722656l1.2509766-1.1035156     c0,0-12.5180664-14.6972656-14.7856445-17.2700195c-0.8222656-0.9326172-1.043457-2.6005859-0.5029297-3.7973633     c0.222168-0.4921875,0.6606445-1.0791016,1.4887695-1.0791016c0.6240234,0,1.3950195,0.3232422,2.2285156,0.934082     c1.3876953,1.0166016,1.8251953,1.4111328,2.7749023,2.5185547c0.1293945,0.2529297,0.284668,0.4824219,0.4624023,0.684082     l11.8618164,13.3105469l1.2509766-1.1035156c0,0-10.6699219-12.027832-11.4804688-12.9951172     c-0.2553711-0.3046875-0.4785156-0.5708008-0.6796875-0.8081055c-0.4375-1.0512695-0.2246094-2.7783203,0.4946289-3.9135742     c0.1977539-0.3120117,0.6035156-0.8354492,1.097168-0.8354492c0.3447266,0,0.75,0.2529297,1.1723633,0.7319336     c2.9287109,3.3212891,15.3818359,16.6469727,17.0664063,18.4492188c0.3134766,2.5405273,0.9199219,2.8999023,1.5302734,2.8999023     c0.1914063,0,0.5576172-0.0605469,0.859375-0.4658203l0.1582031-0.5947266     c-0.6259766-5.3383789,0.3720703-8.9287109,0.3818359-8.9643555l0.0273438-0.1416016     c0.0244141-0.2241211,0.6337891-5.4931641,5.03125-5.4931641c0.1591797,0,0.3222656,0.0063477,0.4892578,0.0200195     c-0.1220703,5.3066406,1.0341797,8.2558594,1.2578125,8.7749023c0.203125,0.7856445,2.1621094,8.4199219,2.7128906,12.5732422     l0.0263672,0.125C51.7382813,45.2832031,52.3691406,49.6992188,41.7871094,58.0742188z"
           id="path17" /></g></g><path
       style="fill:#2CA4DE;"
       d="M51.3945313,15.1425781C45.7685547,5.8422852,36.6875,8.5820313,36.3037109,8.7026367   l-0.609375-1.9047852c0.109375-0.0356445,10.9521484-3.3676758,17.4111328,7.3095703L51.3945313,15.1425781z"
       id="path19" /><path
       style="fill:#2CA4DE;"
       d="M56.1474609,15.934082c-0.6259766-10.4472656-9.625-11.4023438-10.0078125-11.4375   l0.1767578-1.9921875c0.1113281,0.0097656,11.0966797,1.112793,11.8271484,13.3105469L56.1474609,15.934082z"
       id="path21" /></g></svg>