<?xml version="1.0" encoding="utf-8"?>
<!-- Generator: Adobe Illustrator 15.0.2, SVG Export Plug-In . SVG Version: 6.00 Build 0)  -->
<!DOCTYPE svg PUBLIC "-//W3C//DTD SVG 1.1//EN" "http://www.w3.org/Graphics/SVG/1.1/DTD/svg11.dtd">
<svg version="1.1" id="レイヤー_1" xmlns="http://www.w3.org/2000/svg" xmlns:xlink="http://www.w3.org/1999/xlink" x="0px"
	 y="0px" width="64px" height="64px" viewBox="0 0 64 64" enable-background="new 0 0 64 64" xml:space="preserve">
<g>
	<g>
		<path fill="#FFB997" stroke="#420707" stroke-width="1.6682" stroke-linejoin="bevel" stroke-miterlimit="11" d="M45.07,55.293
			c-8.649,4.754-14.52,0.457-16.492-1.519c-3.952-3.959-7.093-7.163-13.811-16.179c-7.035-8.319-0.326-10.179,4.763-4.405
			c0,0-6.85-7.094-9.209-10.818c-2.667-4.207,1.147-7.82,3.938-4.655l5.505,6.245c0,0-5.138-6.327-7.443-8.942
			c-2.305-2.614-0.558-8.751,4.333-5.167c2.741,2.008,2.035,1.809,7.614,8.138c0,0,1.579,1.791-4.245-4.814
			c-2.062-2.34,0.563-9.19,3.717-5.613c3.155,3.578,17.237,18.632,17.237,18.632s0.336,3.096,0.923,2.306
			c-0.656-5.595,0.408-9.291,0.408-9.291s0.772-7.287,7.209-6.111c-0.273,6.107,1.188,9.225,1.188,9.225s2.158,8.277,2.75,12.74
			C55.471,41.945,55.877,46.757,45.07,55.293z"/>
		<path fill="#DE9170" d="M39.679,40.182c0,0-0.071-8.778,3.083-11.359l-3.139-2.017C39.623,26.806,34.938,36.22,39.679,40.182z"/>
		
			<line fill="#FFB997" stroke="#420707" stroke-width="1.6682" stroke-miterlimit="16" x1="18.692" y1="32.237" x2="23.741" y2="37.966"/>
		
			<line fill="#FFB997" stroke="#420707" stroke-width="1.6682" stroke-miterlimit="16" x1="19.063" y1="23.166" x2="27.107" y2="32.29"/>
		
			<line fill="#FFB997" stroke="#420707" stroke-width="1.6682" stroke-miterlimit="16" x1="24.63" y1="18.258" x2="31.886" y2="26.487"/>
		<path fill="#DE9170" d="M26.001,41.713c0,0,8.222-1.091,11.212,0.643C40.202,44.089,32.783,37.921,26.001,41.713z"/>
		<path fill="#DE9170" d="M51.654,32c0,0,5.051,9.26-0.404,16.45c-4.359,4.394-5.665,4.799-5.665,4.799s4.154-5.449,4.152-11.605
			C49.737,35.486,51.654,32,51.654,32z"/>
	</g>
</g>
</svg>
