<?xml version="1.0" encoding="utf-8"?>
<!-- Generator: Adobe Illustrator 15.0.2, SVG Export Plug-In . SVG Version: 6.00 Build 0)  -->
<!DOCTYPE svg PUBLIC "-//W3C//DTD SVG 1.1//EN" "http://www.w3.org/Graphics/SVG/1.1/DTD/svg11.dtd">
<svg version="1.1" id="レイヤー_1" xmlns="http://www.w3.org/2000/svg" xmlns:xlink="http://www.w3.org/1999/xlink" x="0px"
	 y="0px" width="64px" height="64px" viewBox="0 0 64 64" style="enable-background:new 0 0 64 64;" xml:space="preserve">
<g>
	<g>
		<linearGradient id="SVGID_1_" gradientUnits="userSpaceOnUse" x1="24.7114258" y1="15.5771484" x2="34.924633" y2="67.6997986">
			<stop  offset="0" style="stop-color:#FFFFFF"/>
			<stop  offset="1" style="stop-color:#DBDED9"/>
		</linearGradient>
		<path style="fill:url(#SVGID_1_);" d="M13.2626953,6.9165039c0,0,20.25-0.4995117,25.25,4.6669922v22.4995117
			c0,0-11.9169922-2.4995117-25.25-2.4995117V6.9165039z"/>
		<path style="fill:#231815;" d="M39.0126953,34.6982422l-0.6025391-0.1259766
			c-0.1191406-0.0244141-12.0234375-2.4887695-25.1474609-2.4887695h-0.5V6.4287109L13.25,6.4165039
			c0,0,0.5371094-0.0131836,1.4560547-0.0131836c5.8603516,0,19.9453125,0.4707031,24.1660156,4.8325195l0.140625,0.1455078
			V34.6982422z M13.7626953,31.0844727c11.3505859,0.0537109,21.6914063,1.8984375,24.25,2.3901367V11.7915039
			c-4.2587891-4.0683594-18.8837891-4.3881836-23.3066406-4.3881836c-0.3876953,0-0.7060547,0.0024414-0.9433594,0.0053711
			V31.0844727z"/>
	</g>
	<g>
		<path style="fill:#B2B2B3;" d="M38.5126953,11.5004883c0,0-2.2978516-0.0698242-2.2978516,1.2583008s0,10.7255859,0,10.7255859
			h2.2978516V11.5004883z"/>
		<path style="fill:#231815;" d="M38.5126953,23.984375h-2.2978516l-0.5-0.5V12.7587891
			C35.7148438,11.4619141,37.1298828,11,38.4541016,11l0.5585938,0.5004883V23.484375L38.5126953,23.984375z M36.7148438,22.984375
			h1.2978516V12.0297852c-0.5283203,0.0576172-1.2978516,0.2275391-1.2978516,0.7290039V22.984375z"/>
	</g>
	<g>
		<linearGradient id="SVGID_2_" gradientUnits="userSpaceOnUse" x1="43.296875" y1="22.0966797" x2="53.4740028" y2="74.035202">
			<stop  offset="0" style="stop-color:#FFFFFF"/>
			<stop  offset="1" style="stop-color:#DBDED9"/>
		</linearGradient>
		<path style="fill:url(#SVGID_2_);" d="M36.2207031,12.6181641c0,0-0.8066406,5.0004883,16.3505859,4.7416992v24.0551758
			c0,0-13.4501953,0.7763672-16.3505859-3.3623047V12.6181641z"/>
		<path style="fill:#231815;" d="M50.0556641,41.9726563c-4.3691406,0-12.0292969-0.4716797-14.2441406-3.6328125
			l-0.0908203-0.1289063V12.8657227c-0.0136719-0.1777344,0.0009766-0.2939453,0.0058594-0.3266602l0.9941406,0.0791016v0.2001953
			c0.0595703,0.5004883,0.9697266,4.0512695,14.5859375,4.0512695c0.4091797,0,0.8261719-0.003418,1.2568359-0.0097656
			l0.5078125-0.0078125v25.034668l-0.4716797,0.0273438C52.5585938,41.9169922,51.5664063,41.9726563,50.0556641,41.9726563z
			 M36.7207031,37.8876953c1.5361328,1.9628906,6.3740234,3.0849609,13.3349609,3.0849609
			c0.8759766,0,1.5820313-0.0195313,2.015625-0.0361328V17.8662109c-9.7871094,0.0678711-13.7695313-1.5507813-15.3505859-3.0864258
			V37.8876953z"/>
	</g>
	<g>
		<linearGradient id="SVGID_3_" gradientUnits="userSpaceOnUse" x1="10.4858398" y1="32" x2="14.4419966" y2="32">
			<stop  offset="0" style="stop-color:#FFFFFF"/>
			<stop  offset="0.436364" style="stop-color:#918F8C"/>
			<stop  offset="1" style="stop-color:#DBDED9"/>
		</linearGradient>
		<rect x="11.4287109" y="4.125" style="fill:url(#SVGID_3_);" width="2.4169922" height="55.75"/>
		<path style="fill:#231815;" d="M14.3457031,60.375h-3.4169922V3.625h3.4169922V60.375z M11.9287109,59.375h1.4169922V4.625
			h-1.4169922V59.375z"/>
	</g>
</g>
</svg>
