<?xml version="1.0" encoding="utf-8"?>
<!-- Generator: Adobe Illustrator 15.0.0, SVG Export Plug-In . SVG Version: 6.00 Build 0)  -->
<!DOCTYPE svg PUBLIC "-//W3C//DTD SVG 1.1//EN" "http://www.w3.org/Graphics/SVG/1.1/DTD/svg11.dtd">
<svg version="1.1" id="レイヤー_1" xmlns="http://www.w3.org/2000/svg" xmlns:xlink="http://www.w3.org/1999/xlink" x="0px"
	 y="0px" width="64px" height="64px" viewBox="0 0 64 64" style="enable-background:new 0 0 64 64;" xml:space="preserve">
<g>
	<linearGradient id="SVGID_1_" gradientUnits="userSpaceOnUse" x1="18.0126953" y1="-4.8999023" x2="45.1785965" y2="66.7651443">
		<stop  offset="0" style="stop-color:#FFF0ED"/>
		<stop  offset="0.4120165" style="stop-color:#FFE2D9"/>
		<stop  offset="1" style="stop-color:#FFC9B5"/>
	</linearGradient>
	<circle style="fill:url(#SVGID_1_);" cx="32" cy="32" r="28.9443359"/>
	<circle style="fill:none;stroke:#FFB6B6;stroke-width:2.5;stroke-miterlimit:10;" cx="32" cy="32" r="28.0791016"/>
	<circle style="fill:none;stroke:#750000;stroke-width:2.5;stroke-miterlimit:10;" cx="32" cy="32" r="28.9443359"/>
	<path style="fill:none;stroke:#750000;stroke-width:2;stroke-miterlimit:10;" d="M13.0727539,20.4228516c0,0,8.25,0,10.875-8"/>
	<path style="fill:none;stroke:#750000;stroke-width:2;stroke-miterlimit:10;" d="M50.4013672,20.4228516
		c0,0-8.2480469,0-10.8730469-8"/>
	<path style="fill:none;stroke:#750000;stroke-width:2.8412099;stroke-miterlimit:10;" d="M11.6616211,25.0478516
		c0,0,7.7543945,1.5,12.2861328-4.625"/>
	<path style="fill:none;stroke:#750000;stroke-width:3;stroke-miterlimit:10;" d="M39.0136719,19.7329102
		c0,0,2.2207031,6.7578125,11.9023438,6.125"/>
	<path style="fill:#AA1132;" d="M20.5151367,51.4404297c-2.0043945-0.1640625-4.4321289-3.2490234-2.0722656-6.5078125
		c2.0102539-2.7763672,6.8769531-5.0673828,13.6640625-5.4306641c6.7866211-0.3613281,13.4819336,3.078125,15.0708008,7.2421875
		c0.8974609,2.3525391-2.1201172,5.4208984-4.7304688,5.0576172c-2.6103516-0.3623047-5.9375-4.5146484-10.4765625-4.7861328
		S25.2753906,51.8310547,20.5151367,51.4404297z"/>
	<path style="fill:none;stroke:#750000;stroke-width:2;stroke-miterlimit:10;" d="M20.5151367,51.4404297
		c-2.0043945-0.1640625-4.4321289-3.2490234-2.0722656-6.5078125c2.0102539-2.7763672,6.8769531-5.0673828,13.6640625-5.4306641
		c6.7866211-0.3613281,13.4819336,3.078125,15.0708008,7.2421875c0.8974609,2.3525391-2.1201172,5.4208984-4.7304688,5.0576172
		c-2.6103516-0.3623047-5.9375-4.5146484-10.4765625-4.7861328S25.2753906,51.8310547,20.5151367,51.4404297z"/>
</g>
</svg>
