<?xml version="1.0" encoding="utf-8"?>
<!-- Generator: Adobe Illustrator 15.0.2, SVG Export Plug-In . SVG Version: 6.00 Build 0)  -->
<!DOCTYPE svg PUBLIC "-//W3C//DTD SVG 1.1//EN" "http://www.w3.org/Graphics/SVG/1.1/DTD/svg11.dtd">
<svg version="1.1" id="レイヤー_1" xmlns="http://www.w3.org/2000/svg" xmlns:xlink="http://www.w3.org/1999/xlink" x="0px"
	 y="0px" width="64px" height="64px" viewBox="0 0 64 64" enable-background="new 0 0 64 64" xml:space="preserve">
<g>
	<g>
		<polygon fill="none" stroke="#231815" stroke-width="1.5" points="25.411,7.157 21.756,7.157 21.756,1.656 19.579,1.656 
			19.579,7.157 15.923,7.157 15.923,9.333 19.579,9.333 19.579,20.475 21.756,20.475 21.756,9.333 25.411,9.333 		"/>
		<polygon fill="#FFC82C" points="25.411,7.157 21.756,7.157 21.756,1.656 19.579,1.656 19.579,7.157 15.923,7.157 15.923,9.333 
			19.579,9.333 19.579,20.475 21.756,20.475 21.756,9.333 25.411,9.333 		"/>
	</g>
	<rect x="3.219" y="44.503" fill="#FCECD9" stroke="#231815" stroke-width="0.8331" width="51.087" height="17.364"/>
	<polygon fill="#AA221B" stroke="#231815" stroke-width="0.9453" points="54.307,44.503 3.219,44.503 5.068,37.936 52.456,37.936 	
		"/>
	<polygon fill="#AA221B" stroke="#231815" stroke-width="1.0492" points="31.921,35.045 31.928,31.437 20.668,18.055 9.406,31.437 
		9.413,35.045 	"/>
	<polygon fill="#FCECD9" stroke="#231815" stroke-width="0.9246" points="20.668,23.256 10.743,35.05 10.793,61.867 30.542,61.867 
		30.59,35.05 	"/>
	<path fill="#F3FDFF" stroke="#231815" stroke-width="0.9246" d="M20.667,30.897c-2.011,0-3.641,1.629-3.641,3.642v8.947h7.282
		v-8.947C24.308,32.527,22.678,30.897,20.667,30.897z"/>
	<path fill="#6B5B4E" stroke="#231815" stroke-width="0.5242" d="M20.667,49.279c-2.011,0-3.641,1.63-3.641,3.641v8.947h7.282V52.92
		C24.308,50.909,22.678,49.279,20.667,49.279z"/>
	<path fill="#F71C55" d="M59.654,10.6c-0.994-4.955-7.77-4.311-8.304-0.136c0.534-4.174-5.856-6.504-8.07-1.961
		c-2.157,4.426,2.476,10.996,6.608,13.378C54.486,20.617,60.625,15.426,59.654,10.6z"/>
	<path fill="#F71C55" d="M44.822,26.121c-0.622-3.102-4.865-2.699-5.201-0.085c0.336-2.614-3.666-4.072-5.053-1.228
		c-1.35,2.771,1.552,6.886,4.139,8.376C41.587,32.393,45.431,29.143,44.822,26.121z"/>
	<path fill="#6B5B4E" stroke="#231815" stroke-width="0.5242" d="M35.529,53.887c-1.02,0-1.845,1.032-1.845,2.309v5.672h3.691
		v-5.672C37.376,54.919,36.55,53.887,35.529,53.887z"/>
	<path fill="#6B5B4E" stroke="#231815" stroke-width="0.5242" d="M42.429,53.887c-1.019,0-1.844,1.032-1.844,2.309v5.672h3.692
		v-5.672C44.277,54.919,43.449,53.887,42.429,53.887z"/>
	<path fill="#6B5B4E" stroke="#231815" stroke-width="0.5242" d="M49.399,53.887c-1.021,0-1.847,1.032-1.847,2.309v5.672h3.692
		v-5.672C51.245,54.919,50.42,53.887,49.399,53.887z"/>
	<g>
		
			<ellipse transform="matrix(0.881 -0.4731 0.4731 0.881 -15.5299 15.521)" fill="#FFC82C" stroke="#231815" stroke-width="0.6416" cx="23.087" cy="38.63" rx="1.484" ry="2.005"/>
		<path fill="#FFC82C" stroke="#231815" stroke-width="0.6416" d="M25.35,36.232c-2.201-4.1-4.173-4.042-5.374-3.396
			c-1.201,0.645-2.263,2.397-0.138,6.355l-0.144,1.766l3.604-1.934l3.603-1.937L25.35,36.232z"/>
	</g>
</g>
</svg>
