<?xml version="1.0" encoding="utf-8"?>
<!-- Generator: Adobe Illustrator 15.0.2, SVG Export Plug-In . SVG Version: 6.00 Build 0)  -->
<!DOCTYPE svg PUBLIC "-//W3C//DTD SVG 1.1//EN" "http://www.w3.org/Graphics/SVG/1.1/DTD/svg11.dtd">
<svg version="1.1" id="レイヤー_1" xmlns="http://www.w3.org/2000/svg" xmlns:xlink="http://www.w3.org/1999/xlink" x="0px"
	 y="0px" width="64px" height="64px" viewBox="0 0 64 64" enable-background="new 0 0 64 64" xml:space="preserve">
<g>
	<g>
		<path display="none" d="M43.365,20.663l2.603-2.168l2.776-4.512c1.129-1.475,0-2.689-0.954-2.863
			c-0.955-0.173-2.776-0.868-2.776,1.041s1.128,1.388,1.128,1.388l-0.607,1.214c-4.926,1.996-4.251,3.817-4.251,3.817
			c-2.776-0.26-3.984,1.426-3.984,1.426c-3.123,0.694-3.217,1.784-3.217,1.784h-0.521v-0.607c0,0,1.129-1.214,0.694-3.47
			C33.822,15.458,32,15.718,32,15.718s-1.821-0.26-2.255,1.996c-0.434,2.255,0.694,3.47,0.694,3.47v0.607h-0.521
			c0,0-0.094-1.09-3.217-1.784c0,0-1.208-1.687-3.984-1.426c0,0,0.675-1.822-4.251-3.817l-0.607-1.214c0,0,1.128,0.521,1.128-1.388
			s-1.822-1.214-2.776-1.041s-2.083,1.388-0.955,2.863l2.776,4.512l2.603,2.168c0,0,1.388,3.297,5.118,5.032
			c0,0-0.26,1.822,1.562,4.511l-0.26,2.516c0,0-3.124,2.95-3.991,8.936l-1.041,1.562l-0.694,11.105l-1.128,1.041v0.521
			c0,0-2.517,2.343-3.904,2.689s-0.347,1.647,0.781,1.908c1.128,0.26,5.534-1.214,5.534-1.214l1.581-1.649l-0.173-2.775
			c0,0,0.347-0.956,1.127-2.17s2.255-4.597,1.562-6.68c0,0,3.818-1.648,4.772-6.333L32,39.75l0.521-0.087
			c0.955,4.685,4.772,6.333,4.772,6.333c-0.693,2.083,0.78,5.466,1.562,6.68c0.78,1.214,1.127,2.17,1.127,2.17l-0.174,2.775
			l1.581,1.649c0,0,4.405,1.474,5.534,1.214c1.128-0.261,2.168-1.562,0.78-1.908S43.8,55.887,43.8,55.887v-0.521l-1.129-1.041
			L41.978,43.22l-1.041-1.562c-0.867-5.986-3.991-8.936-3.991-8.936l-0.261-2.516c1.822-2.689,1.562-4.511,1.562-4.511
			C41.978,23.96,43.365,20.663,43.365,20.663z"/>
		<path d="M43.365,20.663l2.603-2.168l2.776-4.512c1.129-1.475,0-2.689-0.954-2.863c-0.955-0.173-2.776-0.868-2.776,1.041
			s1.128,1.388,1.128,1.388l-0.607,1.214c-4.926,1.996-4.251,3.817-4.251,3.817c-2.776-0.26-3.984,1.426-3.984,1.426
			c-3.123,0.694-3.217,1.784-3.217,1.784h-0.521h-3.123h-0.521c0,0-0.094-1.09-3.217-1.784c0,0-1.208-1.687-3.984-1.426
			c0,0,0.675-1.822-4.251-3.817l-0.607-1.214c0,0,1.128,0.521,1.128-1.388s-1.822-1.214-2.776-1.041s-2.083,1.388-0.955,2.863
			l2.776,4.512l2.603,2.168c0,0,1.388,3.297,5.118,5.032c0,0-0.26,1.822,1.562,4.511l-0.26,2.516c0,0-3.124,2.95-3.991,8.936
			l-1.041,1.562l-0.694,11.105l-1.128,1.041v0.521c0,0-2.517,2.343-3.904,2.689s-0.347,1.647,0.781,1.908
			c1.128,0.26,5.534-1.214,5.534-1.214l1.581-1.649l-0.173-2.775c0,0,0.347-0.956,1.127-2.17s2.255-4.597,1.562-6.68
			c0,0,3.818-1.648,4.772-6.333L32,39.75l0.521-0.087c0.955,4.685,4.772,6.333,4.772,6.333c-0.693,2.083,0.78,5.466,1.562,6.68
			c0.78,1.214,1.127,2.17,1.127,2.17l-0.174,2.775l1.581,1.649c0,0,4.405,1.474,5.534,1.214c1.128-0.261,2.168-1.562,0.78-1.908
			S43.8,55.887,43.8,55.887v-0.521l-1.129-1.041L41.978,43.22l-1.041-1.562c-0.867-5.986-3.991-8.936-3.991-8.936l-0.261-2.516
			c1.822-2.689,1.562-4.511,1.562-4.511C41.978,23.96,43.365,20.663,43.365,20.663z"/>
		<rect x="1.114" y="11.684" width="61.771" height="1.128"/>
		<g>
			<rect x="4.975" y="3.485" width="7.548" height="17.525"/>
			<rect x="51.478" y="3.485" width="7.548" height="17.525"/>
		</g>
		<g>
			<g>
				<rect x="2.134" y="6.782" width="2.126" height="10.932"/>
			</g>
			<g>
				<rect x="59.739" y="6.782" width="2.127" height="10.932"/>
			</g>
		</g>
	</g>
	<circle cx="32" cy="17.714" r="3.419"/>
</g>
</svg>
