<?xml version="1.0" encoding="UTF-8" standalone="no"?>
<!-- Generator: Adobe Illustrator 15.0.2, SVG Export Plug-In . SVG Version: 6.00 Build 0)  -->

<svg
   xmlns:dc="http://purl.org/dc/elements/1.1/"
   xmlns:cc="http://creativecommons.org/ns#"
   xmlns:rdf="http://www.w3.org/1999/02/22-rdf-syntax-ns#"
   xmlns:svg="http://www.w3.org/2000/svg"
   xmlns="http://www.w3.org/2000/svg"
   xmlns:sodipodi="http://sodipodi.sourceforge.net/DTD/sodipodi-0.dtd"
   xmlns:inkscape="http://www.inkscape.org/namespaces/inkscape"
   version="1.1"
   id="レイヤー_1"
   x="0px"
   y="0px"
   width="64px"
   height="64px"
   viewBox="0 0 64 64"
   enable-background="new 0 0 64 64"
   xml:space="preserve"
   inkscape:version="0.48.5 r10040"
   sodipodi:docname="weight_lifter.svg"><metadata
     id="metadata35"><rdf:RDF><cc:Work
         rdf:about=""><dc:format>image/svg+xml</dc:format><dc:type
           rdf:resource="http://purl.org/dc/dcmitype/StillImage" /></cc:Work></rdf:RDF></metadata><defs
     id="defs33" /><sodipodi:namedview
     pagecolor="#ffffff"
     bordercolor="#666666"
     borderopacity="1"
     objecttolerance="10"
     gridtolerance="10"
     guidetolerance="10"
     inkscape:pageopacity="0"
     inkscape:pageshadow="2"
     inkscape:window-width="640"
     inkscape:window-height="480"
     id="namedview31" /><g
     id="g3"><g
       id="g5"><path
         display="none"
         d="M43.365,20.663l2.603-2.168l2.776-4.512c1.129-1.475,0-2.689-0.954-2.863    c-0.955-0.173-2.776-0.868-2.776,1.041s1.128,1.388,1.128,1.388l-0.607,1.214c-4.926,1.996-4.251,3.817-4.251,3.817    c-2.776-0.26-3.984,1.426-3.984,1.426c-3.123,0.694-3.217,1.784-3.217,1.784h-0.521v-0.607c0,0,1.129-1.214,0.694-3.47    C33.822,15.458,32,15.718,32,15.718s-1.821-0.26-2.255,1.996c-0.434,2.255,0.694,3.47,0.694,3.47v0.607h-0.521    c0,0-0.094-1.09-3.217-1.784c0,0-1.208-1.687-3.984-1.426c0,0,0.675-1.822-4.251-3.817l-0.607-1.214c0,0,1.128,0.521,1.128-1.388    s-1.822-1.214-2.776-1.041s-2.083,1.388-0.955,2.863l2.776,4.512l2.603,2.168c0,0,1.388,3.297,5.118,5.032    c0,0-0.26,1.822,1.562,4.511l-0.26,2.516c0,0-3.124,2.95-3.991,8.936l-1.041,1.562l-0.694,11.105l-1.128,1.041v0.521    c0,0-2.517,2.343-3.904,2.689s-0.347,1.647,0.781,1.908c1.128,0.26,5.534-1.214,5.534-1.214l1.581-1.649l-0.173-2.775    c0,0,0.347-0.956,1.127-2.17s2.255-4.597,1.562-6.68c0,0,3.818-1.648,4.772-6.333L32,39.75l0.521-0.087    c0.955,4.685,4.772,6.333,4.772,6.333c-0.693,2.083,0.78,5.466,1.562,6.68c0.78,1.214,1.127,2.17,1.127,2.17l-0.174,2.775    l1.581,1.649c0,0,4.405,1.474,5.534,1.214c1.128-0.261,2.168-1.562,0.78-1.908S43.8,55.887,43.8,55.887v-0.521l-1.129-1.041    L41.978,43.22l-1.041-1.562c-0.867-5.986-3.991-8.936-3.991-8.936l-0.261-2.516c1.822-2.689,1.562-4.511,1.562-4.511    C41.978,23.96,43.365,20.663,43.365,20.663z"
         id="path7" /><path
         d="M43.365,20.663l2.603-2.168l2.776-4.512c1.129-1.475,0-2.689-0.954-2.863c-0.955-0.173-2.776-0.868-2.776,1.041    s1.128,1.388,1.128,1.388l-0.607,1.214c-4.926,1.996-4.251,3.817-4.251,3.817c-2.776-0.26-3.984,1.426-3.984,1.426    c-3.123,0.694-3.217,1.784-3.217,1.784h-0.521h-3.123h-0.521c0,0-0.094-1.09-3.217-1.784c0,0-1.208-1.687-3.984-1.426    c0,0,0.675-1.822-4.251-3.817l-0.607-1.214c0,0,1.128,0.521,1.128-1.388s-1.822-1.214-2.776-1.041s-2.083,1.388-0.955,2.863    l2.776,4.512l2.603,2.168c0,0,1.388,3.297,5.118,5.032c0,0-0.26,1.822,1.562,4.511l-0.26,2.516c0,0-3.124,2.95-3.991,8.936    l-1.041,1.562l-0.694,11.105l-1.128,1.041v0.521c0,0-2.517,2.343-3.904,2.689s-0.347,1.647,0.781,1.908    c1.128,0.26,5.534-1.214,5.534-1.214l1.581-1.649l-0.173-2.775c0,0,0.347-0.956,1.127-2.17s2.255-4.597,1.562-6.68    c0,0,3.818-1.648,4.772-6.333L32,39.75l0.521-0.087c0.955,4.685,4.772,6.333,4.772,6.333c-0.693,2.083,0.78,5.466,1.562,6.68    c0.78,1.214,1.127,2.17,1.127,2.17l-0.174,2.775l1.581,1.649c0,0,4.405,1.474,5.534,1.214c1.128-0.261,2.168-1.562,0.78-1.908    S43.8,55.887,43.8,55.887v-0.521l-1.129-1.041L41.978,43.22l-1.041-1.562c-0.867-5.986-3.991-8.936-3.991-8.936l-0.261-2.516    c1.822-2.689,1.562-4.511,1.562-4.511C41.978,23.96,43.365,20.663,43.365,20.663z"
         id="path9" /><rect
         x="1.114"
         y="11.684"
         width="61.771"
         height="1.128"
         id="rect11" /><g
         id="g13"><rect
           x="4.975"
           y="3.485"
           width="7.548"
           height="17.525"
           id="rect15" /><rect
           x="51.478"
           y="3.485"
           width="7.548"
           height="17.525"
           id="rect17" /></g><g
         id="g19"><g
           id="g21"><rect
             x="2.134"
             y="6.782"
             width="2.126"
             height="10.932"
             id="rect23" /></g><g
           id="g25"><rect
             x="59.739"
             y="6.782"
             width="2.127"
             height="10.932"
             id="rect27" /></g></g></g><circle
       cx="32"
       cy="17.714"
       r="3.419"
       id="circle29" /></g></svg>