<?xml version="1.0" encoding="utf-8"?>
<!-- Generator: Adobe Illustrator 15.0.2, SVG Export Plug-In . SVG Version: 6.00 Build 0)  -->
<!DOCTYPE svg PUBLIC "-//W3C//DTD SVG 1.1//EN" "http://www.w3.org/Graphics/SVG/1.1/DTD/svg11.dtd">
<svg version="1.1" id="レイヤー_1" xmlns="http://www.w3.org/2000/svg" xmlns:xlink="http://www.w3.org/1999/xlink" x="0px"
	 y="0px" width="64px" height="64px" viewBox="0 0 64 64" enable-background="new 0 0 64 64" xml:space="preserve">
<g>
	<g>
		<circle fill="#FFFFFF" stroke="#FFC76E" stroke-width="0.7199" stroke-miterlimit="10" cx="23.896" cy="28.428" r="12.12"/>
		<polygon fill="#FFC76E" points="21.76,16.309 23.896,12.609 26.031,16.309 		"/>
		<polygon fill="#FFC76E" points="17.744,17.77 18.485,13.563 21.757,16.309 		"/>
		<polygon fill="#FFC76E" points="14.47,20.517 13.728,16.31 17.742,17.771 		"/>
		<polygon fill="#FFC76E" points="12.333,24.217 10.197,20.519 14.468,20.519 		"/>
		<polygon fill="#FFC76E" points="11.59,28.426 8.318,25.68 12.332,24.219 		"/>
		<polygon fill="#FFC76E" points="12.332,32.635 8.318,31.173 11.59,28.429 		"/>
		<polygon fill="#FFC76E" points="14.468,36.336 10.197,36.336 12.333,32.636 		"/>
		<polygon fill="#FFC76E" points="17.742,39.084 13.729,40.545 14.47,36.338 		"/>
		<polygon fill="#FFC76E" points="21.757,40.545 18.485,43.291 17.744,39.084 		"/>
		<polygon fill="#FFC76E" points="26.031,40.545 23.896,44.246 21.76,40.545 		"/>
		<polygon fill="#FFC76E" points="30.049,39.084 29.306,43.291 26.034,40.545 		"/>
		<polygon fill="#FFC76E" points="33.322,36.338 34.064,40.545 30.049,39.084 		"/>
		<polygon fill="#FFC76E" points="35.461,32.636 37.596,36.336 33.324,36.336 		"/>
		<polygon fill="#FFC76E" points="36.203,28.429 39.475,31.173 35.461,32.635 		"/>
		<polygon fill="#FFC76E" points="35.463,24.219 39.475,25.68 36.203,28.426 		"/>
		<polygon fill="#FFC76E" points="33.324,20.518 37.596,20.518 35.459,24.217 		"/>
		<polygon fill="#FFC76E" points="30.049,17.771 34.064,16.309 33.322,20.516 		"/>
		<polygon fill="#FFC76E" points="26.034,16.309 29.306,13.563 30.047,17.769 		"/>
	</g>
	<path fill="#FFFFFF" stroke="#D9DADA" stroke-width="1.6116" stroke-miterlimit="10" d="M45.896,32.54
		c-0.61,0-1.205,0.045-1.787,0.114c-2.274-4.291-6.994-7.247-12.464-7.247c-4.758,0-8.957,2.233-11.464,5.638
		c-0.786-0.182-1.603-0.288-2.448-0.288c-5.753,0-10.416,4.466-10.416,9.978c0,5.51,4.663,9.977,10.416,9.977
		c2.173,0,4.19-0.641,5.862-1.73c2.272,1.514,5.046,2.41,8.05,2.41c4.015,0,7.622-1.598,10.162-4.139
		c1.26,0.367,2.641,0.572,4.089,0.572c5.955,0,10.785-3.42,10.785-7.643C56.682,35.961,51.852,32.54,45.896,32.54z"/>
</g>
</svg>
