<?xml version="1.0" encoding="utf-8"?>
<!-- Generator: Adobe Illustrator 15.0.2, SVG Export Plug-In . SVG Version: 6.00 Build 0)  -->
<!DOCTYPE svg PUBLIC "-//W3C//DTD SVG 1.1//EN" "http://www.w3.org/Graphics/SVG/1.1/DTD/svg11.dtd">
<svg version="1.1" id="レイヤー_1" xmlns="http://www.w3.org/2000/svg" xmlns:xlink="http://www.w3.org/1999/xlink" x="0px"
	 y="0px" width="64px" height="64px" viewBox="0 0 64 64" enable-background="new 0 0 64 64" xml:space="preserve">
<g>
	<path fill="#FFB997" stroke="#420707" stroke-width="1.6241" stroke-linejoin="bevel" stroke-miterlimit="11" d="M60.137,23.975
		c0,0-3.3-3.562-5.296-4.521c-1.016-0.488-7.185-5.846-11.92-7.1c-4.734-1.255-8.214,4.201-9.453,8.059c0,0-3.14,0.356-5.017,1.096
		c0,0-14.223,0.215-17.232,0.411c-4.193,0.273-5.646,0.644-7.058,3.761c-1.41,3.117,2.195,7.044,10.664,6.741l13.626,0.249
		c0,0-2.145,3.35-1.728,4.182c1.401,2.803,2.429,3.74,2.777,5.275c0.35,1.535,1.777,3.67,3.83,7.068s5.33,2.533,8.618,2.533
		c8.614,0,15.836-3.221,18.188-9.602V23.975z"/>
	<path fill="none" stroke="#420707" stroke-width="1.6241" stroke-linejoin="bevel" stroke-miterlimit="11" d="M33.468,20.414
		c0,0,4.006-0.727,6.166-1.336c2.159-0.608,5.411,1.199,5.411,1.199"/>
	<path fill="#E79774" d="M42.921,19.683c0,0,7.495,4.587,8.75,3.176C52.925,21.448,47.813,18.231,42.921,19.683z"/>
	<path fill="#E79774" d="M28.124,39.899c0,0,4.825-0.596,5.37,1.098c0.546,1.697-3.825,2.227-3.825,2.227L28.124,39.899z"/>
	<path fill="#E79774" d="M31.727,46.718c0,0,4.284-0.813,5.437-0.535c1.152,0.279-4.278,4.096-4.278,4.096L31.727,46.718z"/>
	<path fill="#E79774" d="M28.936,32.427c-3.988,0.47-8.973,0.766-10.913,0.668c-3.639-0.181-5.271-3.465-1.93-3.729
		c4.551-0.359,12.816,0.162,16.565,0.984c0.514-0.05,0.963-0.049,1.29,0.03c1.73,0.418,8.346,1.718,6.37,2.603
		c-1.975,0.885-12.729,1.813-12.729,1.813S29.522,33.349,28.936,32.427z"/>
	<path fill="#E79774" d="M49.324,50.278c0,0,6.295-12.338,6.75-17.057c0.456-4.718,4.063-9.247,4.063-9.247v18.153
		C60.137,42.128,57.013,49.636,49.324,50.278z"/>
	<path fill="none" stroke="#420707" stroke-width="1.6241" stroke-linejoin="bevel" stroke-miterlimit="11" d="M60.137,23.975
		c0,0-3.3-3.562-5.296-4.521c-1.016-0.488-7.185-5.846-11.92-7.1c-4.734-1.255-8.214,4.201-9.453,8.059c0,0-3.14,0.356-5.017,1.096
		c0,0-14.223,0.215-17.232,0.411c-4.193,0.273-5.646,0.644-7.058,3.761c-1.41,3.117,2.195,7.044,10.664,6.741l13.626,0.249
		c0,0-2.145,3.35-1.728,4.182c1.401,2.803,2.429,3.74,2.777,5.275c0.35,1.535,1.777,3.67,3.83,7.068s5.33,2.533,8.618,2.533
		c8.614,0,15.836-3.221,18.188-9.602V23.975z"/>
	<path fill="#E79774" d="M35.797,19.455c0,0,3.801-3.181,5.839-2.71c2.039,0.471,9.263,3.415,9.648,4.765
		C51.284,21.509,38.425,16.676,35.797,19.455z"/>
	<path fill="none" stroke="#420707" stroke-width="1.6241" stroke-linejoin="bevel" stroke-miterlimit="11" d="M33.468,20.414
		c0,0,4.006-0.727,6.166-1.336c2.159-0.608,5.411,1.199,5.411,1.199"/>
</g>
</svg>
