<?xml version="1.0" encoding="utf-8"?>
<!-- Generator: Adobe Illustrator 15.0.0, SVG Export Plug-In . SVG Version: 6.00 Build 0)  -->
<!DOCTYPE svg PUBLIC "-//W3C//DTD SVG 1.1//EN" "http://www.w3.org/Graphics/SVG/1.1/DTD/svg11.dtd">
<svg version="1.1" id="レイヤー_1" xmlns="http://www.w3.org/2000/svg" xmlns:xlink="http://www.w3.org/1999/xlink" x="0px"
	 y="0px" width="64px" height="64px" viewBox="0 0 64 64" style="enable-background:new 0 0 64 64;" xml:space="preserve">
<g>
	<g>
		<circle style="fill:#FFFFFF;" cx="32" cy="32" r="27.3125"/>
		<path d="M32,60.8125C16.112793,60.8125,3.1875,47.8876953,3.1875,32C3.1875,16.112793,16.112793,3.1875,32,3.1875
			c15.8876953,0,28.8125,12.925293,28.8125,28.8125C60.8125,47.8876953,47.8876953,60.8125,32,60.8125z M32,6.1875
			C17.7670898,6.1875,6.1875,17.7670898,6.1875,32c0,14.2333984,11.5795898,25.8125,25.8125,25.8125
			c14.2333984,0,25.8125-11.5791016,25.8125-25.8125C57.8125,17.7670898,46.2333984,6.1875,32,6.1875z"/>
	</g>
	<g>
		<ellipse cx="19.9851074" cy="22.4169922" rx="3.6931152" ry="4.6669922"/>
		<ellipse cx="44.0151367" cy="22.4169922" rx="3.6928711" ry="4.6669922"/>
	</g>
	<path d="M17.7177734,49.0576172c-0.3837891,0-0.7675781-0.1464844-1.0605469-0.4394531
		c-0.5859375-0.5859375-0.5859375-1.5351563-0.0004883-2.1210938C20.7543945,42.3984375,26.203125,40.1416016,32,40.1416016
		c5.7978516,0,11.2470703,2.2568359,15.3427734,6.3554688c0.5859375,0.5859375,0.5859375,1.5361328,0,2.1210938
		c-0.5859375,0.5859375-1.5351563,0.5859375-2.1210938,0C41.6914063,45.0869141,36.9960938,43.1416016,32,43.1416016
		c-4.9951172,0-9.690918,1.9453125-13.2211914,5.4765625C18.4858398,48.9111328,18.1015625,49.0576172,17.7177734,49.0576172z"/>
</g>
</svg>
