<?xml version="1.0" encoding="UTF-8" standalone="no"?>
<!-- Generator: Adobe Illustrator 15.0.2, SVG Export Plug-In . SVG Version: 6.00 Build 0)  -->

<svg
   xmlns:dc="http://purl.org/dc/elements/1.1/"
   xmlns:cc="http://creativecommons.org/ns#"
   xmlns:rdf="http://www.w3.org/1999/02/22-rdf-syntax-ns#"
   xmlns:svg="http://www.w3.org/2000/svg"
   xmlns="http://www.w3.org/2000/svg"
   xmlns:sodipodi="http://sodipodi.sourceforge.net/DTD/sodipodi-0.dtd"
   xmlns:inkscape="http://www.inkscape.org/namespaces/inkscape"
   version="1.1"
   id="レイヤー_1"
   x="0px"
   y="0px"
   width="64px"
   height="64px"
   viewBox="0 0 64 64"
   style="enable-background:new 0 0 64 64;"
   xml:space="preserve"
   inkscape:version="0.48.5 r10040"
   sodipodi:docname="white_square_button.svg"><metadata
     id="metadata13"><rdf:RDF><cc:Work
         rdf:about=""><dc:format>image/svg+xml</dc:format><dc:type
           rdf:resource="http://purl.org/dc/dcmitype/StillImage" /></cc:Work></rdf:RDF></metadata><defs
     id="defs11" /><sodipodi:namedview
     pagecolor="#ffffff"
     bordercolor="#666666"
     borderopacity="1"
     objecttolerance="10"
     gridtolerance="10"
     guidetolerance="10"
     inkscape:pageopacity="0"
     inkscape:pageshadow="2"
     inkscape:window-width="640"
     inkscape:window-height="480"
     id="namedview9" /><g
     id="g3"><path
       style="fill:#F7F7F7;"
       d="M56.25,54.25c0,1.0996094-0.9003906,2-2,2H9.75c-1.1000977,0-2-0.9003906-2-2V9.75   c0-1.1000977,0.8999023-2,2-2h44.5c1.0996094,0,2,0.8999023,2,2V54.25z"
       id="path5" /><path
       style="fill:#A8A8A8;"
       d="M54,10.2543945c0,0,0,38.6577148,0,40.6577148s-0.8330078,2.8339844-2.6660156,2.8339844   c-1.8339844,0-41.3339844,0-41.3339844,0l3.3330078-4c0,0,34.1669922,0,35.6669922,0s1.1669922-0.6660156,1.1669922-1.5   c0-0.5039063,0-32.6665039,0-32.6665039L54,10.2543945z"
       id="path7" /></g></svg>