<?xml version="1.0" encoding="UTF-8" standalone="no"?>
<!-- Generator: Adobe Illustrator 15.0.2, SVG Export Plug-In . SVG Version: 6.00 Build 0)  -->

<svg
   xmlns:dc="http://purl.org/dc/elements/1.1/"
   xmlns:cc="http://creativecommons.org/ns#"
   xmlns:rdf="http://www.w3.org/1999/02/22-rdf-syntax-ns#"
   xmlns:svg="http://www.w3.org/2000/svg"
   xmlns="http://www.w3.org/2000/svg"
   xmlns:sodipodi="http://sodipodi.sourceforge.net/DTD/sodipodi-0.dtd"
   xmlns:inkscape="http://www.inkscape.org/namespaces/inkscape"
   version="1.1"
   id="レイヤー_1"
   x="0px"
   y="0px"
   width="64px"
   height="64px"
   viewBox="0 0 64 64"
   enable-background="new 0 0 64 64"
   xml:space="preserve"
   inkscape:version="0.48.5 r10040"
   sodipodi:docname="white_sun_with_small_cloud.svg"><metadata
     id="metadata51"><rdf:RDF><cc:Work
         rdf:about=""><dc:format>image/svg+xml</dc:format><dc:type
           rdf:resource="http://purl.org/dc/dcmitype/StillImage" /></cc:Work></rdf:RDF></metadata><defs
     id="defs49" /><sodipodi:namedview
     pagecolor="#ffffff"
     bordercolor="#666666"
     borderopacity="1"
     objecttolerance="10"
     gridtolerance="10"
     guidetolerance="10"
     inkscape:pageopacity="0"
     inkscape:pageshadow="2"
     inkscape:window-width="640"
     inkscape:window-height="480"
     id="namedview47" /><g
     id="g3"><g
       id="g5"><circle
         fill="#FFFFFF"
         stroke="#FFC76E"
         stroke-width="0.8713"
         stroke-miterlimit="10"
         cx="24.351"
         cy="32"
         r="14.668"
         id="circle7" /><polygon
         fill="#FFC76E"
         points="21.766,17.333 24.351,12.855 26.936,17.333   "
         id="polygon9" /><polygon
         fill="#FFC76E"
         points="16.905,19.102 17.803,14.01 21.763,17.333   "
         id="polygon11" /><polygon
         fill="#FFC76E"
         points="12.942,22.426 12.045,17.334 16.903,19.103   "
         id="polygon13" /><polygon
         fill="#FFC76E"
         points="10.356,26.905 7.771,22.428 12.941,22.428   "
         id="polygon15" /><polygon
         fill="#FFC76E"
         points="9.457,31.999 5.497,28.675 10.355,26.907   "
         id="polygon17" /><polygon
         fill="#FFC76E"
         points="10.355,37.092 5.497,35.324 9.457,32.002   "
         id="polygon19" /><polygon
         fill="#FFC76E"
         points="12.941,41.572 7.771,41.572 10.356,37.094   "
         id="polygon21" /><polygon
         fill="#FFC76E"
         points="16.903,44.898 12.045,46.666 12.942,41.574   "
         id="polygon23" /><polygon
         fill="#FFC76E"
         points="21.763,46.668 17.803,49.99 16.905,44.898   "
         id="polygon25" /><polygon
         fill="#FFC76E"
         points="26.936,46.668 24.352,51.145 21.766,46.668   "
         id="polygon27" /><polygon
         fill="#FFC76E"
         points="31.797,44.898 30.899,49.99 26.939,46.668   "
         id="polygon29" /><polygon
         fill="#FFC76E"
         points="35.759,41.574 36.657,46.666 31.799,44.896   "
         id="polygon31" /><polygon
         fill="#FFC76E"
         points="38.347,37.094 40.931,41.572 35.761,41.572   "
         id="polygon33" /><polygon
         fill="#FFC76E"
         points="39.245,32.002 43.206,35.324 38.347,37.092   "
         id="polygon35" /><polygon
         fill="#FFC76E"
         points="38.349,26.907 43.206,28.675 39.245,31.999   "
         id="polygon37" /><polygon
         fill="#FFC76E"
         points="35.761,22.427 40.931,22.427 38.345,26.904   "
         id="polygon39" /><polygon
         fill="#FFC76E"
         points="31.799,19.102 36.657,17.333 35.759,22.425   "
         id="polygon41" /><polygon
         fill="#FFC76E"
         points="26.939,17.333 30.899,14.01 31.796,19.101   "
         id="polygon43" /></g><path
       fill="#FFFFFF"
       stroke="#D9DADA"
       stroke-width="1.5"
       stroke-miterlimit="10"
       d="M50.824,37.402   c-0.435,0-0.858,0.032-1.272,0.081c-1.619-3.055-4.979-5.159-8.874-5.159c-3.388,0-6.377,1.59-8.162,4.014   c-0.56-0.129-1.141-0.205-1.743-0.205c-4.096,0-7.416,3.181-7.416,7.104c0,3.924,3.32,7.104,7.416,7.104   c1.547,0,2.983-0.455,4.173-1.232c1.618,1.078,3.593,1.717,5.731,1.717c2.858,0,5.427-1.139,7.235-2.947   c0.897,0.262,1.88,0.408,2.911,0.408c4.24,0,7.679-2.436,7.679-5.441S55.064,37.402,50.824,37.402z"
       id="path45" /></g></svg>