<?xml version="1.0" encoding="UTF-8" standalone="no"?>
<!-- Generator: Adobe Illustrator 15.0.2, SVG Export Plug-In . SVG Version: 6.00 Build 0)  -->

<svg
   xmlns:dc="http://purl.org/dc/elements/1.1/"
   xmlns:cc="http://creativecommons.org/ns#"
   xmlns:rdf="http://www.w3.org/1999/02/22-rdf-syntax-ns#"
   xmlns:svg="http://www.w3.org/2000/svg"
   xmlns="http://www.w3.org/2000/svg"
   xmlns:sodipodi="http://sodipodi.sourceforge.net/DTD/sodipodi-0.dtd"
   xmlns:inkscape="http://www.inkscape.org/namespaces/inkscape"
   version="1.1"
   id="レイヤー_1"
   x="0px"
   y="0px"
   width="64px"
   height="64px"
   viewBox="0 0 64 64"
   enable-background="new 0 0 64 64"
   xml:space="preserve"
   inkscape:version="0.48.4 r9939"
   sodipodi:docname="white_sun.svg"><metadata
     id="metadata47"><rdf:RDF><cc:Work
         rdf:about=""><dc:format>image/svg+xml</dc:format><dc:type
           rdf:resource="http://purl.org/dc/dcmitype/StillImage" /></cc:Work></rdf:RDF></metadata><defs
     id="defs45" /><sodipodi:namedview
     pagecolor="#ffffff"
     bordercolor="#666666"
     borderopacity="1"
     objecttolerance="10"
     gridtolerance="10"
     guidetolerance="10"
     inkscape:pageopacity="0"
     inkscape:pageshadow="2"
     inkscape:window-width="640"
     inkscape:window-height="480"
     id="namedview43" /><g
     id="g3"><circle
       fill="#FFFFFF"
       stroke="#FFC76E"
       stroke-miterlimit="10"
       cx="31.999"
       cy="32"
       r="16.834"
       id="circle5" /><polygon
       fill="#FFC76E"
       points="29.032,15.166 31.999,10.027 34.966,15.166  "
       id="polygon7" /><polygon
       fill="#FFC76E"
       points="23.454,17.196 24.484,11.353 29.029,15.167  "
       id="polygon9" /><polygon
       fill="#FFC76E"
       points="18.906,21.012 17.876,15.168 23.451,17.197  "
       id="polygon11" /><polygon
       fill="#FFC76E"
       points="15.938,26.152 12.971,21.014 18.904,21.014  "
       id="polygon13" /><polygon
       fill="#FFC76E"
       points="14.906,31.998 10.361,28.185 15.937,26.155  "
       id="polygon15" /><polygon
       fill="#FFC76E"
       points="15.937,37.845 10.361,35.815 14.906,32.001  "
       id="polygon17" /><polygon
       fill="#FFC76E"
       points="18.904,42.986 12.971,42.986 15.938,37.848  "
       id="polygon19" /><polygon
       fill="#FFC76E"
       points="23.451,46.803 17.876,48.832 18.906,42.988  "
       id="polygon21" /><polygon
       fill="#FFC76E"
       points="29.029,48.834 24.485,52.647 23.454,46.804  "
       id="polygon23" /><polygon
       fill="#FFC76E"
       points="34.966,48.834 32,53.973 29.032,48.834  "
       id="polygon25" /><polygon
       fill="#FFC76E"
       points="40.545,46.804 39.515,52.647 34.969,48.833  "
       id="polygon27" /><polygon
       fill="#FFC76E"
       points="45.093,42.988 46.123,48.832 40.547,46.802  "
       id="polygon29" /><polygon
       fill="#FFC76E"
       points="48.062,37.848 51.028,42.986 45.094,42.985  "
       id="polygon31" /><polygon
       fill="#FFC76E"
       points="49.093,32.001 53.639,35.815 48.062,37.844  "
       id="polygon33" /><polygon
       fill="#FFC76E"
       points="48.063,26.154 53.639,28.184 49.092,31.997  "
       id="polygon35" /><polygon
       fill="#FFC76E"
       points="45.095,21.013 51.028,21.013 48.061,26.151  "
       id="polygon37" /><polygon
       fill="#FFC76E"
       points="40.547,17.196 46.123,15.167 45.092,21.011  "
       id="polygon39" /><polygon
       fill="#FFC76E"
       points="34.969,15.166 39.515,11.352 40.544,17.195  "
       id="polygon41" /></g></svg>