<?xml version="1.0" encoding="utf-8"?>
<!-- Generator: Adobe Illustrator 15.0.2, SVG Export Plug-In . SVG Version: 6.00 Build 0)  -->
<!DOCTYPE svg PUBLIC "-//W3C//DTD SVG 1.1//EN" "http://www.w3.org/Graphics/SVG/1.1/DTD/svg11.dtd">
<svg version="1.1" id="レイヤー_1" xmlns="http://www.w3.org/2000/svg" xmlns:xlink="http://www.w3.org/1999/xlink" x="0px"
	 y="0px" width="64px" height="64px" viewBox="0 0 64 64" enable-background="new 0 0 64 64" xml:space="preserve">
<g>
	<path fill="#FFFFFF" stroke="#000000" stroke-width="2" stroke-miterlimit="10" d="M47.892,13.765
		c4.279,8.331-0.47,15.032-5.542,19.172c-3.286,2.684-9.938,5.442-9.938,5.442l1.669,5.543l-9.394,3.006l-1.295-11.093
		c0,0,8.689-3.679,11.347-6.287c1.534-1.505,4.886-5.261,3.571-9.677c-1.054-3.536-6.213-4.124-9.641-2.758
		c-3.621,1.443-8.852,7.985-8.852,7.985l-5.372-9.078c0,0,5.966-7.526,12.828-9.785C35.205,3.623,44.321,6.813,47.892,13.765z
		 M35.491,58.672l-11.731-1.12l0.926-7.711l9.208-3.101L35.491,58.672z"/>
</g>
</svg>
