<?xml version="1.0" encoding="UTF-8"?>
<!-- Generated by phantom_svg. -->
<svg width="64px" height="64px" viewBox="0 0 64 64" preserveAspectRatio="none" xmlns="http://www.w3.org/2000/svg" xmlns:xlink="http://www.w3.org/1999/xlink" version="1.1">
  <g>
    <path style='fill:#FCCB51;' d='M27.0014648,40.9169922c0,0,13.3823242-0.2509766,18.6079102,2.8330078
		s14.3085938-1.6103516,14.3085938-1.6103516s-8.5839844,1.2783203-13.5-2.5556641S34.5019531,33.5,29.0014648,34.1669922
		C23.5014648,34.8339844,27.0014648,40.9169922,27.0014648,40.9169922z'/>
    <path style='fill:#490C02;' d='M49.9970703,45.2646484c-1.8154297,0-3.3710938-0.375-4.6240234-1.1142578
		c-4.3603516-2.5732422-14.6074219-2.7734375-17.644043-2.7734375c-0.4575195,0-0.7163086,0.0048828-0.71875,0.0048828
		l-0.2749023,0.0048828l-0.137207-0.2373047c-0.0786133-0.1367188-1.9111328-3.3701172-0.8032227-5.5839844
		c0.5229492-1.0439453,1.5830078-1.6699219,3.1503906-1.8603516c0.6557617-0.0791016,1.3461914-0.1201172,2.0512695-0.1201172
		c5.2348633,0,11.253418,2.1582031,15.7075195,5.6318359c2.8212891,2.2001953,6.9277344,2.6621094,9.8769531,2.6621094
		c1.9003906,0,3.2548828-0.1972656,3.2685547-0.1992188l2.7646484-0.4101563l-2.4824219,1.2832031
		C59.9169922,42.6630859,54.8291016,45.2646484,49.9970703,45.2646484z M27.7290039,40.4472656
		c3.0961914,0,13.5532227,0.2089844,18.1166992,2.9023438c1.1074219,0.6533203,2.5039063,0.984375,4.1513672,0.984375
		c2.5869141,0,5.3125-0.8134766,7.2148438-1.53125c-3.0761719,0.0585938-7.8378906-0.3232422-11.0800781-2.8515625
		c-4.2988281-3.3525391-10.0986328-5.4355469-15.1352539-5.4355469c-0.6679688,0-1.3203125,0.0380859-1.9389648,0.1132813
		c-1.2387695,0.1503906-2.0566406,0.6054688-2.4306641,1.3535156c-0.6743164,1.3466797,0.1484375,3.4931641,0.6494141,4.4658203
		C27.394043,40.4472656,27.5458984,40.4472656,27.7290039,40.4472656z'/>
  </g>
  <path style="fill:#471E02;" d="M32.1074219,41.7099609c0.7128906-1.3730469,1.1513672-2.7832031,1.4091797-4.1845703
	c1.5986328-8.7045898,0.9990234-20.7724609-12.7910156-21.2407227c-9.1459961-0.3100586-13.3325195,3.8725586-13.3325195,11.0854492
	c0,2.3256836,1.2397461,4.1547852-0.0786133,6.3251953c-1.3178711,2.1699219-2.7900391,2.2021484-3.1777344,2.7441406
	s1.3959961,3.9541016,2.6357422,5.6582031c1.2402344,1.7060547,3.4267578,10.9902344,11.0068359,8.9921875
	c1.2373047-0.3261719,2.3623047-0.6835938,3.4169922-1.0605469c0.8769531,1.2216797,1.9233398,2.7763672,1.9716797,3.3046875
	C23.2514648,54.25,20.3349609,60,20.3349609,60s15.0830078-5.5,17.25-8.25
	C37.5849609,51.75,32.9941406,49.2402344,32.1074219,41.7099609z"/>
  <path style="fill:#0F0200;" d="M19.387207,60.8408203l0.5327148-1.0507813
	c1.355957-2.6728516,2.8061523-5.8867188,2.784668-6.4160156c-0.0043945-0.0478516-0.0913086-0.5419922-1.6835938-2.7900391
	c-1.043457,0.3642578-2.0688477,0.6777344-3.1230469,0.9560547c-0.7441406,0.1953125-1.4716797,0.2949219-2.1625977,0.2949219
	c-4.9931641,0-7.3027344-5.1220703-8.5429688-7.8740234c-0.3154297-0.6992188-0.5878906-1.3027344-0.7958984-1.5898438
	c-0.4677734-0.6425781-3.394043-5.1455078-2.6381836-6.2021484c0.1918945-0.2675781,0.4936523-0.421875,0.84375-0.6005859
	c0.6298828-0.3212891,1.4926758-0.7607422,2.3149414-2.1142578c0.7802734-1.2851563,0.5561523-2.440918,0.296875-3.7792969
	c-0.140625-0.7250977-0.2861328-1.4755859-0.2861328-2.3046875c0.0004883-7.8457031,4.7504883-11.8442383,13.8134766-11.550293
	c4.7836914,0.1625977,8.3945313,1.7177734,10.7324219,4.6230469c3.8046875,4.7270508,3.4599609,11.9443359,2.5,17.1665039
	c-0.2802734,1.5273438-0.7353516,2.8984375-1.387207,4.1855469c0.8842773,7.0693359,5.1791992,9.5234375,5.2231445,9.5478516
	l0.4785156,0.2646484l-0.3378906,0.4306641c-2.2236328,2.8212891-16.8349609,8.1728516-17.4560547,8.3984375L19.387207,60.8408203z
	 M21.3696289,49.4736328l0.2045898,0.2841797c1.9868164,2.7685547,2.0375977,3.3242188,2.0571289,3.5341797
	c0.0722656,0.7919922-1.4199219,3.9667969-2.3540039,5.8623047c4.4755859-1.6826172,13.2539063-5.2402344,15.5839844-7.3212891
	c-1.2578125-0.9033203-4.4765625-3.7910156-5.2158203-10.0683594l-0.0166016-0.1425781l0.065918-0.1259766
	c0.6445313-1.2421875,1.0908203-2.5683594,1.3647461-4.0546875c0.9238281-5.0307617,1.2724609-11.9624023-2.3105469-16.4155273
	c-2.1606445-2.6845703-5.5380859-4.1235352-10.0390625-4.2763672c-8.5493164-0.2924805-12.8515625,3.2958984-12.8515625,10.6206055
	c0,0.7397461,0.1367188,1.4453125,0.2685547,2.1279297c0.2714844,1.3994141,0.5517578,2.847168-0.4150391,4.4384766
	c-0.9594727,1.5800781-1.9995117,2.1103516-2.6875,2.4609375c-0.2211914,0.1123047-0.449707,0.2294922-0.5092773,0.3125
	c-0.0546875,0.4433594,1.3237305,3.3134766,2.6333008,5.1142578c0.2651367,0.3642578,0.5415039,0.9775391,0.8920898,1.7548828
	c1.2348633,2.7402344,3.3027344,7.3261719,7.6948242,7.3261719c0.6108398,0,1.2587891-0.0898438,1.925293-0.265625
	c1.1401367-0.2998047,2.2456055-0.6435547,3.3789063-1.0478516L21.3696289,49.4736328z"/>
  <path style="fill:#0F0200;" d="M9.8632813,26.3085938c0,0,3.9121094-2.015625,8.0024414,0.9301758
	C17.8657227,27.2387695,14.3608398,21.8896484,9.8632813,26.3085938z"/>
  <path style="fill:#281000;" d="M10.3383789,29.4321289c0,0-1.2099609-2.0380859,2.4765625-2.1933594
	S12.175293,31.4472656,10.3383789,29.4321289z"/>
  <path style="fill:#0F0200;" d="M15.0976563,31.5244141L14.8662109,31.25
	c-1.8076172-2.1425781-3.6831055-1.1738281-3.762207-1.1308594l-0.4467773-0.815918
	c0.0253906-0.0131836,2.4326172-1.2988281,4.6791992,1.0771484l1.3129883-0.625l0.3999023,0.8398438L15.0976563,31.5244141z"/>
  <path style="fill:#0F0200;" d="M11.9658203,29.4003906c0.8232422-0.0454102,1.0844727,5.4267578,0,5.5820313
	C10.8818359,35.1376953,10.5712891,29.4780273,11.9658203,29.4003906z"/>
  <path style="fill:#0F0200;" d="M14.9199219,29.6123047c-1.9599609-1.5966797-4.4741211-0.6699219-4.4985352-0.6606445
	l-0.1660156-0.4345703c0.1123047-0.0429688,2.7851563-1.0371094,4.9584961,0.7348633L14.9199219,29.6123047z"/>
  <g>
    <path style='fill:#FCCB51;' d='M42.8554688,33.2197266c5.6337891,0.7089844,12.4423828-1.0263672,12.4423828-1.0263672
		l-13.0244141-2.7612305c9.5371094,0.2788086,20.3125-6.5581055,20.3125-6.5581055
		c-8.8378906,4.8837891-21.3183594-0.3876953-21.3183594-0.3876953c5.5800781-1.2407227,10.6972656,0,10.6972656,0
		C48.9296875,17.8051758,44.25,16.9301758,40.7109375,17.0673828c5.8242188-1.7294922,12.4941406-5.5112305,12.4941406-5.5112305
		l-14.4951172,2.2485352l8.6035156-3.7211914l-5.6582031,0.3095703c-5.1933594,1.9379883-17.9067383,0.465332-17.9067383,0.465332
		l14.0297852-1.3950195c0,0-0.3095703-1.7832031-14.9594727-1.2402344
		C11.6948242,8.6357422,9.3754883,15.65625,8.9042969,19.0151367c-0.4487305,0.5698242-0.8076172,1.1835938-1.046875,1.8432617
		v2.7216797l4.8266602-4.5039063l0.6000977,2.0146484l8.1386719-0.8525391l-2.7119141,2.5581055l6.4902344-0.2138672
		c-1.8095703,0.9736328-2.8481445,1.9770508-2.8481445,1.9770508c0.7514648-0.2080078,1.4804688-0.3481445,2.1835938-0.4384766
		l-1.9506836,2.4741211l4.4194336-0.6962891l-2.2104492,3.5009766l2.2104492,0.7753906v2.8540039l3.5654297-2.8540039
		c2.9116211,1.0820313,4.418457,5.3334961,4.418457,5.3334961c16.5888672,6.7451172,24.6494141-2.1171875,24.6494141-2.1171875
		C54.4599609,34.7441406,45.9746094,33.6865234,42.8554688,33.2197266z M42.3476563,33.1425781
		c-0.4404297-0.0693359-0.6923828-0.1132813-0.6923828-0.1132813
		C41.8818359,33.0732422,42.1152344,33.1054688,42.3476563,33.1425781z'/>
    <path style='fill:#0F0200;' d='M46.7734375,38.5068359c-3.7470703,0-7.7705078-0.8642578-11.9589844-2.5673828l-0.1933594-0.078125
		l-0.0703125-0.1972656c-0.0136719-0.0390625-1.3847656-3.8208008-3.902832-4.9545898l-4.1079102,3.2875977v-3.4921875
		l-2.4501953-0.859375l1.9746094-3.1274414l-4.5786133,0.7211914l1.9399414-2.4609375
		c-0.3203125,0.0668945-0.637207,0.1435547-0.9487305,0.2294922l-1.762207,0.487793l1.3149414-1.2705078
		c0.0302734-0.0288086,0.527832-0.5058594,1.4208984-1.1196289l-5.953125,0.1962891l2.6049805-2.4575195L12.9487305,21.59375
		l-0.4960938-1.6655273l-5.0605469,4.722168l0.0283203-3.9506836c0.2329102-0.6430664,0.5830078-1.2724609,1.0410156-1.8725586
		c0.4936523-3.2866211,2.8837891-10.644043,14.340332-11.0688477c9.6020508-0.3564453,15.1953125,0.2451172,15.4345703,1.6254883
		l0.0859375,0.4926758l-9.3681641,0.9316406c1.3100586,0.0703125,2.7641602,0.1210938,4.2294922,0.1210938
		c3.7861328,0,6.5810547-0.3271484,8.3085938-0.9716797l0.1376953-0.0288086l8.2578125-0.4516602l-7.6542969,3.3105469
		l13.4130859-2.0805664l-2.2119141,1.2539063c-0.0576172,0.0327148-5.0585938,2.8544922-10.1582031,4.7368164
		c3.0380859,0.3579102,6.59375,1.7026367,9.0791016,5.5356445l0.6347656,0.9790039l-1.1347656-0.2739258
		c-0.0224609-0.0053711-2.2636719-0.5385742-5.3349609-0.5385742c-1.1972656,0-2.3623047,0.0800781-3.4814453,0.2382813
		c2.1533203,0.7177734,6.2275391,1.8452148,10.5693359,1.8452148c3.3867188,0,6.3320313-0.6787109,8.7529297-2.0166016
		l0.4736328,0.7998047c-0.3818359,0.2426758-8.5488281,5.3691406-17.0107422,6.4428711L57.34375,32.1518555l-1.9306641,0.4921875
		c-0.03125,0.0078125-2.0898438,0.5268555-4.8632813,0.8823242c0.8457031,0.0400391,1.7089844,0.0634766,2.5703125,0.0634766
		c2.5996094,0,4.7529297-0.2177734,6.4013672-0.6484375l1.5146484-0.3955078l-1.0537109,1.1582031
		C59.8046875,33.9003906,55.5146484,38.5068359,46.7734375,38.5068359z M35.3525391,35.1533203
		c4.0087891,1.6083984,7.8505859,2.4228516,11.4208984,2.4228516c5.6435547,0,9.3671875-2.0419922,11.1953125-3.3740234
		c-1.3945313,0.2119141-3.0175781,0.3183594-4.8486328,0.3183594c-4.1035156,0-8.2353516-0.5263672-10.3330078-0.8408203
		l0.1259766-0.9213867c0.8789063,0.1103516,1.8447266,0.1665039,2.8720703,0.1665039
		c2.7431641,0,5.4658203-0.3974609,7.2685547-0.7319336L42.1767578,29.887207l0.1103516-0.9199219
		c5.3300781,0.152832,11.1318359-1.9897461,15.1123047-3.8549805c-1.1972656,0.2006836-2.4619141,0.3012695-3.7910156,0.3012695
		h-0.0009766c-6.53125,0-12.2792969-2.3969727-12.5205078-2.4990234l-1.3408203-0.5664063l1.4208984-0.315918
		c1.6787109-0.3730469,3.4794922-0.5625,5.3535156-0.5625c1.8583984,0,3.4042969,0.184082,4.3896484,0.3417969
		c-2.7792969-3.5195313-6.65625-4.2919922-9.5244141-4.2919922c-0.2226563,0-0.4414063,0.0043945-0.6572266,0.0126953
		l-3.6992188,0.1435547l3.5488281-1.0541992c3.5810547-1.0634766,7.5224609-2.9306641,9.9785156-4.184082l-15.3701172,2.3842773
		l9.5527344-4.1318359L41.75,10.8535156c-1.8349609,0.6674805-4.7167969,1.0058594-8.5664063,1.0058594
		c-4.7817383,0-9.4418945-0.5336914-9.4887695-0.5390625l-4.2924805-0.4970703l16.6474609-1.6552734
		c-1.2431641-0.284668-3.6245117-0.5825195-8.1425781-0.5825195c-1.5288086,0-3.2348633,0.034668-5.0712891,0.1025391
		C12.3286133,9.0776367,9.8857422,15.3662109,9.3647461,19.0795898l-0.0170898,0.1245117l-0.078125,0.0986328
		c-0.4160156,0.5283203-0.734375,1.0795898-0.9467773,1.6391602v1.5678711l4.5927734-4.2856445l0.7041016,2.3637695
		l9.1235352-0.9555664l-2.8188477,2.6586914l7.2436523-0.2387695l-1.746582,0.9399414
		c-0.4384766,0.2358398-0.8305664,0.4741211-1.1723633,0.6987305c0.0761719-0.0112305,0.1523438-0.0214844,0.2285156-0.03125
		l1.1293945-0.1450195l-1.9208984,2.4365234l4.2602539-0.6713867L25.5,29.1542969l1.9707031,0.6914063v2.215332l3.0151367-2.4135742
		l0.2470703,0.0917969C33.4736328,30.7578125,35.0029297,34.265625,35.3525391,35.1533203z M42.2753906,33.6015625
		l-0.1953125-0.0302734c-0.1728516-0.0263672-0.3447266-0.0527344-0.5136719-0.0849609l0.1689453-0.9150391l0.6210938,0.1020508
		L42.2753906,33.6015625z'/>
  </g>
  <path style="fill:#E2AB30;" d="M28.5541992,26.8276367c0,0,4.5737305-1.0073242,7.4819336,0
	c2.9052734,1.0073242,6.78125,0.9301758,6.78125,0.9301758l-5.8134766,1.1772461l2.7128906,2.0151367l-12.3251953-2.0151367
	l6.2021484-1.1772461L28.5541992,26.8276367z"/>
  <path style="fill:#471E02;" d="M28.4072266,32.2915039c0,0-0.9287109-2.2045898,1.0078125-3.1176758
	c1.9384766-0.9130859,5.8125,0.7143555,5.1162109,6.2177734c-0.6982422,5.5039063-4.6503906,6.8232422-5.0380859,6.7451172"/>
  <path style="fill:#0F0200;" d="M29.5249023,42.6035156c-0.0454102,0-0.0864258-0.0029297-0.1235352-0.0107422l0.1835938-0.9121094
	c0.4370117-0.0292969,3.8486328-1.3320313,4.4853516-6.3476563c0.4121094-3.2641602-0.8642578-4.7241211-1.6625977-5.3037109
	c-1.0107422-0.7338867-2.1323242-0.7485352-2.7944336-0.4345703c-1.515625,0.7143555-0.8081055,2.4428711-0.7773438,2.5161133
	l-0.8574219,0.3613281c-0.3808594-0.9047852-0.612793-2.8461914,1.2382813-3.7192383
	c1.1123047-0.5224609,2.5795898-0.3173828,3.7373047,0.5239258c0.9648438,0.7001953,2.5117188,2.434082,2.0390625,6.1733398
	c-0.4394531,3.4599609-2.0883789,5.3046875-3.3945313,6.2421875C30.8530273,42.2275391,29.9863281,42.6035156,29.5249023,42.6035156
	z"/>
  <path style="fill:#281000;" d="M28.1845703,35.8339844c0,0-0.2109375-4.6533203,1.7626953-4.3696289S32.6005859,34.9589844,32,36.5
	S28.1704102,40.2802734,28.1845703,35.8339844z"/>
  <path style="fill:#FFEFCC;" d="M11.8583984,15.1220703c0,0,1.1918945-2.9453125,9.0219727-2.7133789l-3.6420898,1.7055664
	l10.6186523-1.0073242l-5.8911133,2.3251953h9.434082l-5.1713867,1.6279297l-0.0771484-0.7915039l-8.2856445,0.7915039
	l3.1699219-2.331543l-7.5976563,1.5400391l2.559082-2.5419922L11.8583984,15.1220703z"/>
  <path style="fill:#E2AB30;" d="M26.4614258,24.5595703c0,0,4.7260742-2.1123047,10.5424805,0
	c5.8134766,2.1132813,8.6054688,2.6791992,8.6054688,2.6791992S32.9736328,23.4545898,26.4614258,24.5595703z"/>
  <path style="fill:#0F0200;" d="M31.8647461,38.0410156H30.934082c0.0004883-1.0488281-0.2104492-1.4248047-0.3354492-1.4824219
	c-0.1323242-0.0595703-0.4223633,0.1054688-0.5419922,0.2099609l-0.6611328,0.5732422l-0.105957-0.8681641
	c-0.0600586-0.4960938-0.5268555-4.8564453,1.6318359-5.4233398c0.4101563-0.1088867,0.7998047-0.043457,1.1259766,0.1889648
	c0.8208008,0.5830078,0.9584961,2.0585938,0.9711914,2.2246094l-0.9272461,0.0732422
	c-0.03125-0.3896484-0.215332-1.2797852-0.5830078-1.5400391c-0.0712891-0.0498047-0.1674805-0.0952148-0.3505859-0.0473633
	c-0.9208984,0.2421875-1.074707,2.3022461-1.0019531,3.7241211c0.25-0.0732422,0.5400391-0.09375,0.8291016,0.0390625
	C31.5771484,35.9824219,31.8647461,36.7441406,31.8647461,38.0410156z"/>
  <path style="fill:#0F0200;" d="M10.1640625,46.984375c-0.6254883,0-1.2807617-0.2314453-1.890625-0.8222656l0.6474609-0.6679688
	c1.1010742,1.0673828,2.2548828,0.2998047,2.5834961,0.0410156c0.6586914-0.5234375,0.9707031-1.2607422,0.7998047-1.5458984
	l0.796875-0.4785156c0.5141602,0.8535156-0.1411133,2.0556641-1.0180664,2.7519531
	C11.5576172,46.6806641,10.8803711,46.984375,10.1640625,46.984375z"/>
  <path style="fill:#281000;" d="M16.2636719,50.4169922c-1.5893555,0.2529297,9.4345703-4.4169922,11.1279297-7.75
	c0,0,3.5439453-0.5839844,2.2851563,1.0830078s-6.1787109,7.9199219-6.1787109,7.9199219l-1.8691406-2.5478516
	C21.6289063,49.1220703,19,49.9814453,16.2636719,50.4169922z"/>
  <path style="fill:#281000;" d="M7.5014648,34.3339844c0,0,1.2504883-2.3339844,1.8334961-1.7504883
	S10.1679688,36.1679688,7.5014648,34.3339844z"/>
  <path style="fill:#55DFFF;" d="M23.5639648,62.8779297c-0.2451172,0-0.4838867-0.1259766-0.6176758-0.3525391
	c-0.2011719-0.3408203-0.0883789-0.7802734,0.2524414-0.9814453c8.8125-5.2080078,21.0288086-5.9287109,25.871582-5.9970703
	c1.1894531-0.0166016,3.1894531-0.2509766,3.2138672-1.6298828c0.0361328-1.9941406-3.2353516-4.9960938-6.3369141-5.1523438
	c-1.1484375-0.0615234-1.9267578,0.1962891-2.1884766,0.7158203c-0.2402344,0.4765625-0.0576172,1.2373047,0.4453125,1.8496094
	c0.2275391,0.2763672,1.0546875,1.1533203,2.2265625,0.8291016c0.3369141-0.09375,0.5878906-0.1787109,0.7734375-0.2519531
	c-0.3398438-0.1318359-0.5292969-0.5039063-0.4277344-0.8623047c0.1074219-0.3798828,0.5029297-0.6025391,0.8847656-0.4941406
	c0.421875,0.1191406,1.4023438,0.4882813,1.4003906,1.3359375c-0.0019531,0.9082031-1.1376953,1.3457031-2.2480469,1.6533203
	c-1.3300781,0.3710938-2.7548828-0.1279297-3.7167969-1.3007813c-0.8789063-1.0693359-1.1210938-2.40625-0.6181641-3.4042969
	c0.3095703-0.6123047,1.1865234-1.6210938,3.5410156-1.5019531c3.6494141,0.1835938,7.7509766,3.7050781,7.6982422,6.6103516
	c-0.015625,0.8935547-0.4990234,2.9785156-4.6279297,3.0371094c-4.7285156,0.0664063-16.6450195,0.7646484-25.1616211,5.7978516
	C23.8134766,62.8457031,23.6879883,62.8779297,23.5639648,62.8779297z"/>
</svg>