<?xml version="1.0" encoding="utf-8"?>
<!-- Generator: Adobe Illustrator 15.0.2, SVG Export Plug-In . SVG Version: 6.00 Build 0)  -->
<!DOCTYPE svg PUBLIC "-//W3C//DTD SVG 1.1//EN" "http://www.w3.org/Graphics/SVG/1.1/DTD/svg11.dtd">
<svg version="1.1" id="レイヤー_1" xmlns="http://www.w3.org/2000/svg" xmlns:xlink="http://www.w3.org/1999/xlink" x="0px"
	 y="0px" width="64px" height="64px" viewBox="0 0 64 64" enable-background="new 0 0 64 64" xml:space="preserve">
<g>
	<line fill="none" stroke="#004E9B" stroke-width="0.78" stroke-miterlimit="10" x1="32" y1="0" x2="32" y2="29.333"/>
	<g>
		<linearGradient id="SVGID_1_" gradientUnits="userSpaceOnUse" x1="26.4751" y1="7.4595" x2="37.7908" y2="26.3193">
			<stop  offset="0" style="stop-color:#FFFFFF"/>
			<stop  offset="0.1184" style="stop-color:#4AC3E8"/>
			<stop  offset="0.1697" style="stop-color:#00ABDF"/>
			<stop  offset="0.3323" style="stop-color:#7AD4EF"/>
			<stop  offset="0.5091" style="stop-color:#FAFFFF"/>
			<stop  offset="0.5313" style="stop-color:#F3FEFF"/>
			<stop  offset="0.6685" style="stop-color:#CFFBFF"/>
			<stop  offset="0.7965" style="stop-color:#B5F8FF"/>
			<stop  offset="0.9109" style="stop-color:#A5F7FF"/>
			<stop  offset="1" style="stop-color:#9FF6FF"/>
		</linearGradient>
		<path opacity="0.6" fill="url(#SVGID_1_)" stroke="#004E9B" stroke-width="0.3482" stroke-miterlimit="1" d="M39.287,23.78
			c1.791-1.835,2.896-4.341,2.896-7.108c0-5.625-4.559-10.185-10.184-10.185c-5.625,0-10.184,4.56-10.184,10.185
			c0,2.767,1.107,5.273,2.898,7.108H39.287z"/>
		<linearGradient id="SVGID_2_" gradientUnits="userSpaceOnUse" x1="31.9878" y1="12.1743" x2="31.9878" y2="22.9361">
			<stop  offset="0" style="stop-color:#FFFFFF"/>
			<stop  offset="1" style="stop-color:#FFFFFF;stop-opacity:0"/>
		</linearGradient>
		<path opacity="0.27" fill="url(#SVGID_2_)" d="M24.714,23.78c0,0-3.567-3.366-2.783-8.646c0,0,0.958,6.383,5.949,3.308
			c4.99-3.076,3.83-4.932,7.022-6.905c3.191-1.973,7.139,0.871,7.254,4.41c0,0,0.18,4.932-2.869,7.834H24.714z"/>
		<path fill="none" stroke="#004E9B" stroke-width="0.3482" stroke-miterlimit="1" d="M39.287,23.78
			c1.791-1.835,2.896-4.341,2.896-7.108c0-5.625-4.559-10.185-10.184-10.185c-5.625,0-10.184,4.56-10.184,10.185
			c0,2.767,1.107,5.273,2.898,7.108H39.287z"/>
		<path opacity="0.9" fill="#FFFFFF" d="M24.224,15.598c1.509-0.754,2.523-5.1,4.294-6.035c2.089-1.103,5.468-1.219,7.325-0.987
			c1.914,0.24-2.916-2.321-7.325-0.638C23.182,9.975,21.437,16.992,24.224,15.598z"/>
		<path opacity="0.75" fill="#FFFFFF" d="M30.666,23.026h8.356c0,0,2.67-2.959,2.553-6.036c-0.115-3.076-1.393,2.611-3.424,4.121
			c-1.746,1.297-8.645,1.393-10.096,1.45C28.054,22.562,26.894,23.026,30.666,23.026z"/>
		<ellipse fill="#FFFFFF" cx="34.733" cy="12.645" rx="1.013" ry="1.073"/>
		<g>
			<g>
				<path fill="#E30012" d="M22.987,18.183c-0.005,0.004,0.625-0.331,1.632-0.654c0.996-0.396,3.677,1.469,4.39,1.168
					c0.747-0.221,3.511-2.011,3.253-3.197c-0.086-0.14,1.31,2.802-1.005,5.109c0.018,0-0.076,0.625-2.055-0.363
					c0.001,0.174-3.349,0.212-4.285-0.782C23.957,18.667,23.681,18.466,22.987,18.183z"/>
				<path fill="#231815" d="M25.666,18.378c0.006,0.158-0.202,0.262-0.463,0.22c-0.263-0.042-0.48-0.199-0.487-0.338
					s0.2-0.223,0.464-0.201C25.441,18.082,25.659,18.219,25.666,18.378z"/>
				<path fill="#E30012" d="M26.75,17.433c0.055,0.189,2.569-2.028,2.483-1.327C29.218,16.984,27.487,17.136,26.75,17.433z"/>
				<path fill="#E30012" d="M25.736,20.156c-0.018-0.079,1.702,2.134,2.818,1.39C28.568,21.552,27.75,21.479,25.736,20.156z"/>
			</g>
		</g>
		<g>
			<path fill="#1EA839" d="M34.713,20.271c0,0,1.938,0.667,2.967-2.036C37.68,18.235,35.059,19.168,34.713,20.271z"/>
			<path fill="#1EA839" d="M35.752,17.71c0,0,1.543,0.532,2.365-1.623C38.117,16.088,36.025,16.832,35.752,17.71z"/>
			<path fill="#1EA839" d="M36.459,15.716c0,0,1.012,0.349,1.551-1.065C38.01,14.65,36.64,15.14,36.459,15.716z"/>
			<path fill="#1EA839" d="M35.352,18.988c0,0-1.973-0.555-1.277-3.364C34.074,15.625,35.696,17.886,35.352,18.988z"/>
			<path fill="#1EA839" d="M36.138,16.797c0,0-1.571-0.443-1.018-2.682C35.12,14.115,36.414,15.918,36.138,16.797z"/>
			<path fill="#1EA839" d="M37.018,14.915c0,0-1.032-0.29-0.668-1.759C36.35,13.156,37.197,14.339,37.018,14.915z"/>
			<path fill="#1EA839" d="M37.264,13.843c0,0-2.556,10.151-6.44,9.473c0,0,2.386-1.003,3.713-3.662
				C35.947,16.827,37.264,13.843,37.264,13.843z"/>
		</g>
		<g>
			<path fill="#1EA839" d="M37.924,20.271c0,0,1.938,0.667,2.967-2.036C40.891,18.236,38.268,19.169,37.924,20.271z"/>
			<path fill="#1EA839" d="M38.961,17.711c0,0,1.543,0.532,2.365-1.623C41.326,16.088,39.236,16.833,38.961,17.711z"/>
			<path fill="#1EA839" d="M39.67,15.716c0,0,1.012,0.349,1.551-1.065C41.221,14.651,39.85,15.14,39.67,15.716z"/>
			<path fill="#1EA839" d="M38.561,18.988c0,0-1.972-0.555-1.277-3.364C37.283,15.625,38.906,17.886,38.561,18.988z"/>
			<path fill="#1EA839" d="M39.348,16.797c0,0-1.572-0.443-1.018-2.682C38.33,14.115,39.623,15.919,39.348,16.797z"/>
			<path fill="#1EA839" d="M40.229,14.915c0,0-1.033-0.291-0.67-1.759C39.559,13.156,40.408,14.339,40.229,14.915z"/>
			<path fill="#1EA839" d="M40.473,13.844c0,0-2.555,10.151-6.439,9.474c0,0,2.386-1.004,3.713-3.663
				C39.156,16.828,40.473,13.844,40.473,13.844z"/>
		</g>
	</g>
	<g>
		
			<rect x="26.036" y="26.453" transform="matrix(0.9989 0.0464 -0.0464 0.9989 2.0679 -1.3832)" fill="none" stroke="#8686B2" stroke-width="1.159" stroke-miterlimit="10" width="9.575" height="34.784"/>
		
			<linearGradient id="SVGID_3_" gradientUnits="userSpaceOnUse" x1="31.1567" y1="59.709" x2="31.1567" y2="30.7633" gradientTransform="matrix(1.0711 0.0497 -0.05 1.0774 -0.2918 -6.3414)">
			<stop  offset="0" style="stop-color:#FFFFFF"/>
			<stop  offset="1" style="stop-color:#BFEDFF"/>
		</linearGradient>
		<polygon fill="url(#SVGID_3_)" points="34.799,61.44 25.234,60.996 26.848,26.25 36.412,26.693 		"/>
	</g>
</g>
</svg>
