<?xml version="1.0" encoding="utf-8"?>
<!-- Generator: Adobe Illustrator 17.0.0, SVG Export Plug-In . SVG Version: 6.00 Build 0)  -->
<!DOCTYPE svg PUBLIC "-//W3C//DTD SVG 1.1//EN" "http://www.w3.org/Graphics/SVG/1.1/DTD/svg11.dtd">
<svg version="1.1" id="レイヤー_1" xmlns="http://www.w3.org/2000/svg" xmlns:xlink="http://www.w3.org/1999/xlink" x="0px"
	 y="0px" width="64px" height="64px" viewBox="0 0 64 64" style="enable-background:new 0 0 64 64;" xml:space="preserve">
<g>
	<linearGradient id="SVGID_1_" gradientUnits="userSpaceOnUse" x1="32" y1="60.75" x2="32" y2="3.25">
		<stop  offset="0" style="stop-color:#F5F5F5;stop-opacity:0.8"/>
		<stop  offset="0.1055046" style="stop-color:#F5F5F5;stop-opacity:0.7"/>
		<stop  offset="0.5" style="stop-color:#F5F5F5;stop-opacity:0.7"/>
		<stop  offset="0.6" style="stop-color:#F5F5F5;stop-opacity:0.6"/>
	</linearGradient>
	<path style="fill:url(#SVGID_1_);" d="M35.75,34.5c2.5-2.5,10-3.75,10-13.75S42,3.25,42,3.25H22c0,0-3.75,7.5-3.75,17.5
		s7.5,11.25,10,13.75s2.5,3.75,2.5,7.5s0,11.25,0,13.75c0,5-8.75,3-8.75,5h20c0-2-8.75,0-8.75-5c0-2.5,0-10,0-13.75
		S33.25,37,35.75,34.5z"/>
	<path style="fill:#717071;" d="M42.25,61h-20.5v-0.25c0-0.9941406,1.3852539-1.1777344,3.1396484-1.4111328
		C27.3891602,59.0068359,30.5,58.59375,30.5,55.75V42c0-3.7617188,0-4.8964844-2.4267578-7.3232422
		c-0.5825195-0.5830078-1.4560547-1.0996094-2.4667969-1.6987305C22.3964844,31.0766602,18,28.4726563,18,20.75
		c0-9.9438477,3.7387695-17.5361328,3.7763672-17.6118164L21.8457031,3h20.3085938l0.0693359,0.1381836
		C42.2617188,3.2138672,46,10.8061523,46,20.75c0,7.7226563-4.3964844,10.3266602-7.6064453,12.2280273
		c-1.0107422,0.5991211-1.8837891,1.1157227-2.4667969,1.6987305C33.5,37.1035156,33.5,38.2382813,33.5,42v13.75
		c0,2.84375,3.1113281,3.2568359,5.6103516,3.5888672C40.8642578,59.5722656,42.25,59.7558594,42.25,60.75V61z M22.3554688,60.5
		h19.2890625c-0.3388672-0.3652344-1.4423828-0.5117188-2.5996094-0.6650391C36.4941406,59.4960938,33,59.0322266,33,55.75V42
		c0-3.8173828,0-5.1035156,2.5732422-7.6767578c0.6269531-0.6269531,1.5253906-1.1591797,2.5654297-1.7753906
		C41.2451172,30.7075195,45.5,28.1875,45.5,20.75c0-9.0942383-3.1572266-16.184082-3.6572266-17.25H22.1577148
		C21.6572266,4.565918,18.5,11.6611328,18.5,20.75c0,7.4375,4.2543945,9.9575195,7.3613281,11.7978516
		c1.0400391,0.6162109,1.9379883,1.1484375,2.5654297,1.7753906C31,36.8964844,31,38.1826172,31,42v13.75
		c0,3.2822266-3.4936523,3.7460938-6.0444336,4.0849609C23.7983398,59.9882813,22.6943359,60.1347656,22.3554688,60.5z"/>
	<linearGradient id="SVGID_2_" gradientUnits="userSpaceOnUse" x1="32" y1="33.375" x2="32" y2="12.5">
		<stop  offset="0" style="stop-color:#590000;stop-opacity:0.9"/>
		<stop  offset="1" style="stop-color:#FF0020;stop-opacity:0.9"/>
	</linearGradient>
	<path style="fill:url(#SVGID_2_);" d="M19.8452759,12.5C19.3566284,14.9262085,19,17.7234497,19,20.75
		c0,7.152832,3.9458008,9.4897461,7.1162109,11.3676758C26.6505737,32.4342651,28.8424072,33.375,31.9993286,33.375
		s5.3497314-0.9406738,5.8844604-1.2573242C41.0546875,30.2397461,45,27.902832,45,20.75
		c0-3.0291138-0.355896-5.8254395-0.8436279-8.25H19.8452759z"/>
	<path style="fill:#C10D23;" d="M38.1625977,31.0061646C37.6025391,31.2564697,35.3057861,32,31.9992676,32
		c-3.3064575,0-5.6021729-0.7435913-6.1618652-0.9938354c-1.3798218-0.6168213-2.8966064-1.3010254-4.2021484-2.2901611
		c1.3409424,1.5319824,2.9941406,2.5209961,4.480957,3.4016724C26.6505737,32.4342651,28.8424072,33.375,31.9993286,33.375
		s5.3497314-0.9406738,5.8844604-1.2573242c1.4870605-0.8806763,3.1401367-1.8696289,4.4810181-3.4015503
		C41.0593872,29.7052002,39.5426025,30.3894043,38.1625977,31.0061646z"/>
	<g>
		<linearGradient id="SVGID_3_" gradientUnits="userSpaceOnUse" x1="23.7209377" y1="32.59375" x2="23.7209377" y2="3.9501953">
			<stop  offset="0" style="stop-color:#FFFFFF;stop-opacity:0.3"/>
			<stop  offset="0.2" style="stop-color:#FFFFFF;stop-opacity:0.9"/>
			<stop  offset="0.8" style="stop-color:#FFFFFF;stop-opacity:0.9"/>
			<stop  offset="1" style="stop-color:#FFFFFF;stop-opacity:0.3"/>
		</linearGradient>
		<path style="fill:url(#SVGID_3_);" d="M23.6585293,20.75c0-8.4467773,2.598877-15.1547852,3.295166-16.7998047H22.654623
			C21.9158535,5.5952148,19.583334,12.3032227,19.583334,20.75c0,9.1875,8.2752075,11.84375,8.2752075,11.84375
			S23.6585293,29.8106766,23.6585293,20.75z"/>
		<linearGradient id="SVGID_4_" gradientUnits="userSpaceOnUse" x1="38.5003052" y1="60.0498047" x2="38.5003052" y2="3.9501953">
			<stop  offset="0" style="stop-color:#231815;stop-opacity:0"/>
			<stop  offset="0.1055046" style="stop-color:#231815;stop-opacity:0.3"/>
			<stop  offset="0.5" style="stop-color:#231815;stop-opacity:0.3"/>
			<stop  offset="1" style="stop-color:#231815;stop-opacity:0"/>
		</linearGradient>
		<path style="fill:url(#SVGID_4_);" d="M41.2363281,3.9501953h-1.4816895
			c0.6967773,1.6425781,3.295166,8.3383789,3.295166,16.7998047c0,7.1811523-3.7314453,9.5263672-6.7302246,11.4106445
			c-1.005127,0.6318359-1.6089706,1.1961288-2.2570801,1.8442383C32.5493164,35.5180664,32.2681885,38.1503906,32.2681885,42v13.75
			c0,4.0416679,5.1644287,4.2998047,5.1644287,4.2998047S32.5498047,59.2916679,32.5498047,55.75V42
			c0-3.8496094,0.0991096-5.7065315,2.3876953-7.9951172c0.6669922-0.6669922,1.5878906-1.2124023,2.6542969-1.8442383
			c3.1816406-1.8842773,7.140625-4.2294922,7.140625-11.4106445C44.7324219,12.2885742,41.9755859,5.5927734,41.2363281,3.9501953z"
			/>
	</g>
</g>
<g>
</g>
<g>
</g>
<g>
</g>
<g>
</g>
<g>
</g>
<g>
</g>
</svg>
