<?xml version="1.0" encoding="iso-8859-1"?>
<!-- Generator: Adobe Illustrator 16.0.0, SVG Export Plug-In . SVG Version: 6.00 Build 0)  -->
<!DOCTYPE svg PUBLIC "-//W3C//DTD SVG 1.1//EN" "http://www.w3.org/Graphics/SVG/1.1/DTD/svg11.dtd">
<svg version="1.1" xmlns="http://www.w3.org/2000/svg" xmlns:xlink="http://www.w3.org/1999/xlink" x="0px" y="0px" width="64px"
	 height="64px" viewBox="0 0 64 64" style="enable-background:new 0 0 64 64;" xml:space="preserve">
<g id="woman_x5F_bouncing_x5F_ball_x28_p_x29_">
	
		<radialGradient id="path41_1_" cx="308.0586" cy="-319.4297" r="14.9338" gradientTransform="matrix(1 0 0 -1 -274 -298)" gradientUnits="userSpaceOnUse">
		<stop  offset="0" style="stop-color:#C97229"/>
		<stop  offset="0.3871" style="stop-color:#BC6330"/>
		<stop  offset="0.6026" style="stop-color:#B0522C"/>
		<stop  offset="0.7151" style="stop-color:#A84729"/>
		<stop  offset="0.8698" style="stop-color:#993F18"/>
		<stop  offset="1" style="stop-color:#8A3606"/>
	</radialGradient>
	
		<path id="path41_123_" style="fill:url(#path41_1_);stroke:#231815;stroke-width:3;stroke-linecap:round;stroke-linejoin:round;stroke-miterlimit:10;" d="
		M49.223,21.39c-0.147-8.092-7.18-14.656-15.416-14.656c-3.706,0-7.091,1.337-9.7,3.537c-0.044,0.037-0.084,0.076-0.127,0.113
		c-0.345,0.298-0.676,0.609-0.992,0.937c-0.07,0.073-0.138,0.149-0.207,0.224c-0.281,0.303-0.549,0.617-0.803,0.943
		c-0.072,0.092-0.143,0.186-0.213,0.28c-0.242,0.326-0.469,0.662-0.684,1.007c-0.061,0.097-0.122,0.192-0.18,0.291
		c-0.218,0.37-0.417,0.75-0.602,1.138c-0.038,0.079-0.079,0.155-0.115,0.235c-0.825,1.82-1.293,3.831-1.293,5.952
		c0,0,0.379-0.755,1.055-1.815c0.652,1.563,1.755,3.663,3.208,4.436l0.485-5.372c0,0,1.942,4.635,6.312,5.005V22.72
		c0,0,2.265,0.739,2.912,0.739c0,0,1.211,2.641,1.494,3.73c0,0,0.164-0.415,0.375-1.173c0.211,0.169,4.254,3.447,5.105,6.734
		l1.145-1.042l0.48,4.417C41.463,36.125,49.422,32.197,49.223,21.39z"/>
	
		<radialGradient id="path48_1_" cx="21.3325" cy="37.0234" r="27.0675" gradientTransform="matrix(0.9308 -0.3654 0.3654 0.9308 -1.6892 12.305)" gradientUnits="userSpaceOnUse">
		<stop  offset="0" style="stop-color:#FFF89F"/>
		<stop  offset="1" style="stop-color:#F15F57"/>
	</radialGradient>
	<path id="path48_144_" style="fill:url(#path48_1_);stroke:#231815;stroke-width:2;stroke-miterlimit:10;" d="M18.039,44.683
		c-0.056-0.28,0.583-0.954,1.977-1.642c0.243-0.119,0.456-0.211,0.661-0.292c1.143-0.711,3.601-1.55,6.308-2.31
		c5.903-1.66,3.608,0.791,3.608,0.791c-0.455,0.594-1.552,0.467-2.585,0.732c-1.702,0.445-4.613,1.303-5.809,2.709
		c-0.37,0.547-1.015,1.065-1.015,1.065c-1.11,0.259,0.28-1.675-1.165-1.371C18.789,44.932,18.096,44.945,18.039,44.683z"/>
	<g id="person_x5F_running_x28_p_x29__copy_17_">
		<g id="g107_16_">
			<path id="path2_85_" style="fill:none;stroke:#231815;stroke-width:2;stroke-miterlimit:10;" d="M32.697,52.055
				c1.58,2.181,6.26,3.328,9.552,2.585c3.293-0.744,3.478-2.192,1.701-2.691c-1.779-0.493-3.541-0.352-6.02-3.379
				C35.452,45.54,31.583,50.516,32.697,52.055z"/>
			<path id="path4_98_" style="fill:none;stroke:#231815;stroke-width:2;stroke-miterlimit:10;" d="M45.69,56.242
				c-1.154,0.148-2.21-0.67-2.359-1.82c-0.147-1.153,0.669-2.211,1.818-2.357L45.69,56.242z"/>
			<path id="path6_43_" style="fill:#004482;" d="M32.697,52.055c1.58,2.181,6.26,3.328,9.552,2.585
				c3.293-0.744,3.478-2.192,1.701-2.691c-1.779-0.493-3.541-0.352-6.02-3.379C35.452,45.54,31.583,50.516,32.697,52.055z"/>
			<path id="path8_85_" style="fill:#9C9C9D;" d="M45.69,56.242c-1.154,0.148-2.21-0.67-2.359-1.82
				c-0.147-1.153,0.669-2.211,1.818-2.357L45.69,56.242z"/>
			<path id="path34-7-5_710_" style="fill:none;stroke:#231815;stroke-width:2;stroke-miterlimit:10;" d="M34.488,41.123
				c-0.167-0.467-0.646-1.757-1.026-1.936c-0.38-0.178-0.735-0.265-0.735-0.265c-0.81-0.177-1.538,0.015-2.155,0.567
				c0,0-0.132,0.162-0.361,0.695c-0.166,0.387-0.055,1.502-0.092,2.087c0,0,0.394,3.892,0.539,7.958c0,0,1.732,1.226,4.055,0.614
				c2.317-0.609,3.224-2.528,3.224-2.528C36.061,44.704,34.488,41.123,34.488,41.123z"/>
			
				<ellipse id="ellipse18_36_" transform="matrix(-0.2545 -0.9671 0.9671 -0.2545 -5.2723 97.7178)" style="fill:none;stroke:#231815;stroke-width:2;stroke-miterlimit:10;" cx="35.03" cy="50.891" rx="3.375" ry="3.618"/>
			<path id="path20_51_" style="fill:none;stroke:#231815;stroke-width:2;stroke-miterlimit:10;" d="M34.178,48.063
				c-2.579,0.772-5.209,4.813-5.591,8.166c-0.387,3.353,0.922,4.008,1.977,2.492c1.056-1.514,1.502-3.225,5.179-4.564
				C39.417,52.818,35.999,47.517,34.178,48.063z"/>
			<path id="path22_51_" style="fill:none;stroke:#231815;stroke-width:2;stroke-miterlimit:10;" d="M26.085,58.346
				c0.386-1.094,1.589-1.676,2.686-1.29c1.1,0.384,1.678,1.587,1.292,2.685L26.085,58.346z"/>
			<path id="path34-7-5_709_" style="fill:none;stroke:#231815;stroke-width:2;stroke-miterlimit:10;" d="M34.488,41.123
				c-0.22-0.496-0.725-1.85-1.105-2.028c-0.377-0.177-0.656-0.172-0.656-0.172c-0.81-0.177-1.249,0.626-1.867,1.179
				c0,0-0.132,0.164-0.361,0.697c-0.166,0.386-0.373,0.768-0.38,1.474c0,0,0.394,3.892,0.539,7.958c0,0,1.606,0.744,3.928,0.133
				c2.317-0.609,3.351-2.047,3.351-2.047C36.061,44.704,34.488,41.123,34.488,41.123z"/>
			<path id="path30-2_652_" style="fill:#231815;stroke:#231815;stroke-width:2.1649;stroke-miterlimit:10;" d="M37.669,40.573
				c1.616,0.327,2.761,0.761,3.577,2.669c0.305,1.119,1.453,0.441,1.453,0.441c2.364,0.271,1.504-1.07,1.655-1.857
				c0.154-0.791-2.447-2.895-6.348-3.104c-4.358-0.055-5.954,0.871-5.405,1.782C33.153,41.416,35.078,40.049,37.669,40.573z"/>
			<g id="g74_23_">
				<g id="g72_23_">
					<g id="g70_23_">
						<path id="path26_158_" style="fill:#F09400;stroke:#231815;stroke-width:1.5423;stroke-miterlimit:10;" d="M49.949,20.99
							c0,8.486-7.504,15.363-16.143,15.363c-8.64,0-15.643-6.877-15.643-15.363c0-8.487,7.003-15.369,15.643-15.369
							C42.445,5.621,49.949,12.502,49.949,20.99z"/>
						<path id="path37_33_" style="fill:#231815;" d="M49.223,20.99c0,8.093-7.18,14.649-15.416,14.649
							c-8.238,0-14.917-6.556-14.917-14.649c0-8.094,6.679-14.656,14.917-14.656C42.043,6.333,49.223,12.896,49.223,20.99z"/>
						<path id="path39_56_" style="fill:#231815;stroke:#231815;stroke-width:2.7816;stroke-miterlimit:10;" d="M43.723,26.789
							c0,6.87-5.396,10.59-12.031,10.913c-9.125,0.442-12.03-4.043-12.03-10.913c0-6.871,5.387-12.443,12.03-12.443
							C38.333,14.346,43.723,19.917,43.723,26.789z"/>
						
							<radialGradient id="path48_2_" cx="21.3325" cy="37.0234" r="27.0675" gradientTransform="matrix(0.9308 -0.3654 0.3654 0.9308 -1.6892 12.305)" gradientUnits="userSpaceOnUse">
							<stop  offset="0" style="stop-color:#FCDBD7"/>
							<stop  offset="0.1284" style="stop-color:#FBD4CF"/>
							<stop  offset="0.3271" style="stop-color:#F8C3B9"/>
							<stop  offset="0.5713" style="stop-color:#F3A596"/>
							<stop  offset="0.849" style="stop-color:#ED7D65"/>
							<stop  offset="1" style="stop-color:#E96547"/>
						</radialGradient>
						<path id="path48_143_" style="fill:url(#path48_2_);" d="M18.039,44.683c-0.056-0.28,0.583-0.954,1.977-1.642
							c0.243-0.119,0.456-0.211,0.661-0.292c1.143-0.711,3.601-1.55,6.308-2.31c5.903-1.66,3.608,0.791,3.608,0.791
							c-0.455,0.594-1.552,0.467-2.585,0.732c-1.702,0.445-4.613,1.303-5.809,2.709c-0.37,0.547-1.015,1.065-1.015,1.065
							c-1.11,0.259,0.28-1.675-1.165-1.371C18.789,44.932,18.096,44.945,18.039,44.683z"/>
						
							<radialGradient id="path34-7-5_1_" cx="526.5156" cy="-331.8379" r="33.8481" gradientTransform="matrix(0.5819 -0.1531 -0.2545 -0.9671 -360.6192 -206.415)" gradientUnits="userSpaceOnUse">
							<stop  offset="0" style="stop-color:#FCDBD7"/>
							<stop  offset="0.1284" style="stop-color:#FBD4CF"/>
							<stop  offset="0.3271" style="stop-color:#F8C3B9"/>
							<stop  offset="0.5713" style="stop-color:#F3A596"/>
							<stop  offset="0.849" style="stop-color:#ED7D65"/>
							<stop  offset="1" style="stop-color:#E96547"/>
						</radialGradient>
						<path id="path34-7-5_708_" style="fill:url(#path34-7-5_1_);" d="M34.488,41.123c-0.167-0.467-0.646-1.757-1.026-1.936
							c-0.38-0.178-0.735-0.265-0.735-0.265c-0.81-0.177-1.538,0.015-2.155,0.567c0,0-0.132,0.162-0.361,0.695
							c-0.166,0.387-0.055,1.502-0.092,2.087c0,0,0.394,3.892,0.539,7.958c0,0,1.732,1.226,4.055,0.614
							c2.317-0.609,3.224-2.528,3.224-2.528C36.061,44.704,34.488,41.123,34.488,41.123z"/>
						<linearGradient id="rect52_1_" gradientUnits="userSpaceOnUse" x1="31.6743" y1="40" x2="31.6743" y2="38.125">
							<stop  offset="0" style="stop-color:#FCDBD7"/>
							<stop  offset="0.1284" style="stop-color:#FBD4CF"/>
							<stop  offset="0.3271" style="stop-color:#F8C3B9"/>
							<stop  offset="0.5713" style="stop-color:#F3A596"/>
							<stop  offset="0.849" style="stop-color:#ED7D65"/>
							<stop  offset="1" style="stop-color:#E96547"/>
						</linearGradient>
						<rect id="rect52_29_" x="30.611" y="36.972" style="fill:url(#rect52_1_);" width="2.127" height="3.104"/>
						
							<ellipse id="ellipse54_146_" transform="matrix(-0.2545 -0.9671 0.9671 -0.2545 -5.2723 97.7178)" style="fill:#0066CF;" cx="35.03" cy="50.891" rx="3.375" ry="3.618"/>
						<path id="path56_64_" style="fill:#0066CF;" d="M34.178,48.063c-2.579,0.772-5.209,4.813-5.591,8.166
							c-0.387,3.353,0.922,4.008,1.977,2.492c1.056-1.514,1.502-3.225,5.179-4.564C39.417,52.818,35.999,47.517,34.178,48.063z"/>
						<path id="path58_63_" style="fill:#9C9C9D;" d="M26.085,58.346c0.386-1.094,1.589-1.676,2.686-1.29
							c1.1,0.384,1.678,1.587,1.292,2.685L26.085,58.346z"/>
						<path id="path34-7-5_707_" style="fill:#B2B2B3;" d="M34.488,41.123c-0.22-0.496-0.725-1.85-1.105-2.028
							c-0.377-0.177-0.656-0.172-0.656-0.172c-0.728,0.211-1.249,0.626-1.867,1.179c0,0-0.132,0.164-0.361,0.697
							c-0.166,0.386-0.373,0.768-0.38,1.474c0,0,0.394,3.892,0.539,7.958c0,0,1.606,0.744,3.928,0.133
							c2.317-0.609,3.351-2.047,3.351-2.047C36.061,44.704,34.488,41.123,34.488,41.123z"/>
						
							<radialGradient id="path66_1_" cx="305.6924" cy="-324.0234" r="22.0403" gradientTransform="matrix(1 0 0 -1 -274 -298)" gradientUnits="userSpaceOnUse">
							<stop  offset="0" style="stop-color:#FCDBD7"/>
							<stop  offset="0.1284" style="stop-color:#FBD4CF"/>
							<stop  offset="0.3271" style="stop-color:#F8C3B9"/>
							<stop  offset="0.5713" style="stop-color:#F3A596"/>
							<stop  offset="0.849" style="stop-color:#ED7D65"/>
							<stop  offset="1" style="stop-color:#E96547"/>
						</radialGradient>
						<path id="path66_58_" style="fill:url(#path66_1_);" d="M43.723,26.789c0,6.87-5.39,10.913-12.031,10.913
							c-6.644,0-12.03-1.475-12.03-10.913c0-6.871,5.387-12.443,12.03-12.443C38.333,14.346,43.723,19.917,43.723,26.789z"/>
						
							<path id="path68_52_" style="fill:none;stroke:#A4414A;stroke-width:0.8345;stroke-linecap:round;stroke-linejoin:round;stroke-miterlimit:10;" d="
							M26.646,20.399c0,0-1.557-2.108-3.656,0"/>
					</g>
				</g>
			</g>
			<g id="g213_452_">
				
					<linearGradient id="ellipse89_1_" gradientUnits="userSpaceOnUse" x1="423.5107" y1="396.5078" x2="427.3428" y2="396.5078" gradientTransform="matrix(1 0 0 1 -397.2197 -366.5684)">
					<stop  offset="0" style="stop-color:#FFA67F"/>
					<stop  offset="0.0969" style="stop-color:#FF967B"/>
					<stop  offset="0.3655" style="stop-color:#FF7170"/>
					<stop  offset="0.6143" style="stop-color:#FF5568"/>
					<stop  offset="0.8336" style="stop-color:#FF4564"/>
					<stop  offset="1" style="stop-color:#FF3F62"/>
				</linearGradient>
				<ellipse id="ellipse89_18_" style="fill:url(#ellipse89_1_);" cx="28.207" cy="29.94" rx="1.916" ry="1.112"/>
			</g>
			<g id="g213_451_">
				<path id="path209_278_" style="fill:#160201;" d="M26.732,27.148c0,1.703-0.873,3.086-1.947,3.086
					c-1.078,0-1.949-1.383-1.949-3.086c0-1.713,0.871-3.099,1.949-3.099C25.859,24.051,26.732,25.436,26.732,27.148z"/>
				<path id="path211_229_" style="fill:#FFFFFF;" d="M26.121,25.551c0,0.462-0.373,0.834-0.838,0.834
					c-0.461,0-0.834-0.372-0.834-0.834c0-0.461,0.373-0.836,0.834-0.836C25.748,24.715,26.121,25.09,26.121,25.551z"/>
			</g>
			<path id="path95_24_" style="fill:#C30D23;" d="M24.065,32.76c-0.183,0.25-1.135,0.75-2.271,0.886
				c0.207,0.247,0.425,0.482,0.655,0.709c1.282-0.191,2.262-0.641,2.435-1.045c0.104-0.242,0.104-0.513-0.121-0.666
				C24.536,32.494,24.225,32.545,24.065,32.76z"/>
			
				<radialGradient id="path30-2_1_" cx="393.5352" cy="-222.3809" r="27.9875" gradientTransform="matrix(0.5233 0.8947 -1.0483 0.4466 -413.1927 -212.7772)" gradientUnits="userSpaceOnUse">
				<stop  offset="0" style="stop-color:#FCDBD7"/>
				<stop  offset="0.1284" style="stop-color:#FBD4CF"/>
				<stop  offset="0.3271" style="stop-color:#F8C3B9"/>
				<stop  offset="0.5713" style="stop-color:#F3A596"/>
				<stop  offset="0.849" style="stop-color:#ED7D65"/>
				<stop  offset="1" style="stop-color:#E96547"/>
			</radialGradient>
			<path id="path30-2_651_" style="fill:url(#path30-2_1_);" d="M37.669,40.573c1.616,0.327,2.761,0.761,3.577,2.669
				c0.305,1.119,1.453,0.441,1.453,0.441c2.364,0.271,1.504-1.07,1.655-1.857c0.154-0.791-2.447-2.895-6.348-3.104
				c-4.358-0.055-5.954,0.871-5.405,1.782C33.153,41.416,35.078,40.049,37.669,40.573z"/>
		</g>
	</g>
	<g id="Layer_1_153_">
	</g>
	<circle style="fill:#E75513;stroke:#C10D23;stroke-width:2;stroke-miterlimit:10;" cx="18.167" cy="54" r="5.5"/>
	<circle style="fill:#E75513;" cx="18.167" cy="54" r="5.5"/>
	
		<radialGradient id="path102_1_" cx="308.0586" cy="-319.0293" r="14.9338" gradientTransform="matrix(1 0 0 -1 -274 -298)" gradientUnits="userSpaceOnUse">
		<stop  offset="0" style="stop-color:#C97229"/>
		<stop  offset="0.3871" style="stop-color:#BC6330"/>
		<stop  offset="0.6026" style="stop-color:#B0522C"/>
		<stop  offset="0.7151" style="stop-color:#A84729"/>
		<stop  offset="0.8698" style="stop-color:#993F18"/>
		<stop  offset="1" style="stop-color:#8A3606"/>
	</radialGradient>
	<path id="path102_41_" style="fill:url(#path102_1_);stroke:#231815;stroke-width:1.5;stroke-miterlimit:10;" d="M49.223,20.99
		c-0.147-8.092-7.18-14.656-15.416-14.656c-3.705,0-7.091,1.337-9.7,3.537c-0.044,0.037-0.084,0.076-0.127,0.113
		c-0.345,0.298-0.676,0.609-0.992,0.937c-0.07,0.073-0.138,0.149-0.207,0.224c-0.281,0.303-0.549,0.617-0.803,0.943
		c-0.072,0.092-0.143,0.186-0.213,0.28c-0.242,0.326-0.469,0.662-0.684,1.007c-0.061,0.097-0.122,0.192-0.18,0.291
		c-0.218,0.37-0.417,0.75-0.602,1.138c-0.038,0.079-0.079,0.155-0.115,0.235c-0.825,1.82-1.293,3.831-1.293,5.952
		c0,0,0.379-0.755,1.055-1.815c0.652,1.563,1.755,3.663,3.208,4.436l0.485-5.372c0,0,1.942,4.635,6.312,5.005V22.32
		c0,0,2.265,0.739,2.912,0.739c0,0,1.211,2.641,1.494,3.73c0,0,0.164-0.415,0.375-1.173c0.211,0.169,4.254,3.447,5.105,6.734
		l1.145-1.042l0.48,4.417C41.463,35.725,49.422,31.796,49.223,20.99z"/>
	
		<radialGradient id="path111_1_" cx="308.0586" cy="-319.0293" r="14.9338" gradientTransform="matrix(1 0 0 -1 -274 -298)" gradientUnits="userSpaceOnUse">
		<stop  offset="0" style="stop-color:#E0CAAB"/>
		<stop  offset="0.6633" style="stop-color:#9E6C2A"/>
		<stop  offset="0.8265" style="stop-color:#8A581E"/>
		<stop  offset="1" style="stop-color:#653D14"/>
	</radialGradient>
	<path id="path111_17_" style="fill:url(#path111_1_);" d="M49.223,20.99c-0.147-8.092-7.18-14.656-15.416-14.656
		c-3.705,0-7.091,1.337-9.7,3.537c-0.044,0.037-0.084,0.076-0.127,0.113c-0.345,0.298-0.676,0.609-0.992,0.937
		c-0.07,0.073-0.138,0.149-0.207,0.224c-0.281,0.303-0.549,0.617-0.803,0.943c-0.072,0.092-0.143,0.186-0.213,0.28
		c-0.242,0.326-0.469,0.662-0.684,1.007c-0.061,0.097-0.122,0.192-0.18,0.291c-0.218,0.37-0.417,0.75-0.602,1.138
		c-0.038,0.079-0.079,0.155-0.115,0.235c-0.825,1.82-1.293,3.831-1.293,5.952c0,0,0.379-0.755,1.055-1.815
		c0.652,1.563,1.755,3.663,3.208,4.436l0.485-5.372c0,0,1.942,4.635,6.312,5.005V22.32c0,0,2.265,0.739,2.912,0.739
		c0,0,1.211,2.641,1.494,3.73c0,0,0.164-0.415,0.375-1.173c0.211,0.169,4.254,3.447,5.105,6.734l1.145-1.042l0.48,4.417
		C41.463,35.725,49.422,31.796,49.223,20.99z"/>
	
		<ellipse id="ellipse126_16_" transform="matrix(0.1631 -0.9866 0.9866 0.1631 3.8269 58.8156)" style="fill:#231815;" cx="36.581" cy="27.152" rx="3.084" ry="2.645"/>
	
		<radialGradient id="path133_1_" cx="362.2441" cy="-280.1782" r="5.2787" gradientTransform="matrix(0.9866 0.1633 0.1633 -0.9866 -277.4218 -307.826)" gradientUnits="userSpaceOnUse">
		<stop  offset="0" style="stop-color:#FCDBD7"/>
		<stop  offset="0.1284" style="stop-color:#FBD4CF"/>
		<stop  offset="0.3271" style="stop-color:#F8C3B9"/>
		<stop  offset="0.5713" style="stop-color:#F3A596"/>
		<stop  offset="0.849" style="stop-color:#ED7D65"/>
		<stop  offset="1" style="stop-color:#E96547"/>
	</radialGradient>
	<path id="path133_20_" style="fill:url(#path133_1_);" d="M38.08,27.866c-0.234,1.415-1.408,2.399-2.621,2.198
		c-1.213-0.201-2.006-1.509-1.771-2.924c0.234-1.413,1.408-2.394,2.619-2.195C37.521,25.146,38.314,26.455,38.08,27.866z"/>
	<ellipse id="ellipse113_5_" style="fill:#C10D23;" cx="43.866" cy="17.332" rx="3" ry="3.833"/>
	<path id="path145_27_" style="fill:#48140F;stroke:#231815;stroke-width:3;stroke-miterlimit:10;" d="M44.639,24.924
		c0.506,1.31,2.236,7.44,10.364,6.935c0,0-2.192-1.655-2.619-3.133c0,0,2.56,0.528,4.923-0.454c0,0-4.496-2.61-5.664-6.345
		c-1.094-3.495-3.117-8.182-5.725-7.979C43.833,14.11,42.998,20.669,44.639,24.924z"/>
	
		<radialGradient id="path154_1_" cx="192.792" cy="-498.999" r="9.9112" gradientTransform="matrix(0.9698 -0.1811 -0.2439 -0.7201 -259.9149 -303.6075)" gradientUnits="userSpaceOnUse">
		<stop  offset="0" style="stop-color:#E0CAAB"/>
		<stop  offset="0.6633" style="stop-color:#9E6C2A"/>
		<stop  offset="0.8265" style="stop-color:#8A581E"/>
		<stop  offset="1" style="stop-color:#653D14"/>
	</radialGradient>
	<path id="path154_18_" style="fill:url(#path154_1_);" d="M44.141,24.924c0.484,1.314,2.734,7.44,10.862,6.935
		c0,0-2.192-1.655-2.619-3.133c0,0,2.56,0.528,4.923-0.454c0,0-4.496-2.61-5.664-6.345c-1.094-3.495-2.812-8.661-6.223-7.979
		C41.725,14.687,43.225,22.438,44.141,24.924z"/>
</g>
<g id="Layer_1">
</g>
</svg>
