<?xml version="1.0" encoding="iso-8859-1"?>
<!-- Generator: Adobe Illustrator 16.0.0, SVG Export Plug-In . SVG Version: 6.00 Build 0)  -->
<!DOCTYPE svg PUBLIC "-//W3C//DTD SVG 1.1//EN" "http://www.w3.org/Graphics/SVG/1.1/DTD/svg11.dtd">
<svg version="1.1" xmlns="http://www.w3.org/2000/svg" xmlns:xlink="http://www.w3.org/1999/xlink" x="0px" y="0px" width="64px"
	 height="64px" viewBox="0 0 64 64" style="enable-background:new 0 0 64 64;" xml:space="preserve">
<g id="woman_x5F_biking_x28_wh_x29_">
	<circle style="fill:none;stroke:#595757;stroke-width:1.2436;stroke-miterlimit:10;" cx="26.164" cy="56.922" r="5.597"/>
	<g id="man_x5F_climbing_x28_ye_x29__13_">
		<g id="g235_13_">
			<g>
				<path id="path8_95_" style="fill:#231815;stroke:#231815;stroke-width:2;stroke-miterlimit:10;" d="M44.513,43.31
					c-2.694,0.094-6.258,3.338-7.477,6.484c-1.224,3.146-0.121,4.105,1.282,2.912c1.401-1.203,2.269-2.742,6.166-3.109
					C48.381,49.231,46.409,43.243,44.513,43.31z"/>
			</g>
			<g>
				<path id="path10_51_" style="fill:#231815;stroke:#231815;stroke-width:2;stroke-miterlimit:10;" d="M33.784,51.753
					c0.522-1.039,1.789-1.461,2.829-0.941c1.038,0.52,1.461,1.787,0.941,2.826L33.784,51.753z"/>
			</g>
			<g>
				<path id="path12_36_" style="fill:#3E3A39;" d="M44.513,43.31c-2.694,0.094-6.258,3.338-7.477,6.484
					c-1.224,3.146-0.121,4.105,1.282,2.912c1.401-1.203,2.269-2.742,6.166-3.109C48.381,49.231,46.409,43.243,44.513,43.31z"/>
			</g>
			<g>
				<path id="path14_37_" style="fill:#9C9C9D;" d="M33.784,51.753c0.522-1.039,1.789-1.461,2.829-0.941
					c1.038,0.52,1.461,1.787,0.941,2.826L33.784,51.753z"/>
			</g>
			
				<polygon style="fill:none;stroke:#E30012;stroke-width:1.3958;stroke-linecap:round;stroke-linejoin:round;stroke-miterlimit:10;" points="
				45.879,56.922 36.785,56.922 29.899,50.477 41.369,50.477 			"/>
			<circle style="fill:none;stroke:#595757;stroke-width:1.2436;stroke-miterlimit:10;" cx="45.88" cy="56.922" r="5.597"/>
			<circle style="fill:none;stroke:#231815;stroke-width:1.3958;stroke-miterlimit:10;" cx="26.165" cy="56.921" r="6.281"/>
			<circle style="fill:none;stroke:#231815;stroke-width:1.3958;stroke-miterlimit:10;" cx="45.952" cy="56.921" r="6.281"/>
			<g>
				<path id="path83_27_" style="fill:#231815;stroke:#231815;stroke-width:2;stroke-miterlimit:10;" d="M35.085,39.765
					c-0.273,0.879-1.15,2.993-3.063,4.759c-1.91,1.762-3.726,1.888-4.177,2.814c-0.453,0.93,0.82,1.145,1.92,0.58
					c1.055-0.541,1.035,0.124,2.052,0.18c0.548,0.032,1.365-0.645,2.046-1.607c0.73-1.037,3.641-4.258,3.386-7.289
					C37.164,38.205,35.627,38.006,35.085,39.765z"/>
			</g>
			<g>
				<g id="g226_13_">
					<path id="path34-7-5_752_" style="fill:none;stroke:#231815;stroke-width:2;stroke-miterlimit:10;" d="M39.401,37.978
						c-0.395-0.303-1.498-1.121-1.915-1.065c-0.414,0.058-0.761,0.181-0.761,0.181c-0.775,0.291-1.28,0.85-1.499,1.648
						c0,0-0.021,0.209,0.077,0.781c0.072,0.416,0.772,1.289,1.061,1.801c0,0,2.448,3.047,4.789,6.38c0,0,2.119,0.081,3.731-1.696
						c1.612-1.775,1.325-3.878,1.325-3.878C42.671,40.123,39.401,37.978,39.401,37.978z"/>
					
						<ellipse id="ellipse86_21_" transform="matrix(-0.7404 -0.6722 0.6722 -0.7404 47.7929 110.2022)" style="fill:none;stroke:#231815;stroke-width:2;stroke-miterlimit:10;" cx="45.179" cy="45.871" rx="3.375" ry="3.619"/>
					<path id="path88_23_" style="fill:none;stroke:#231815;stroke-width:2;stroke-miterlimit:10;" d="M43.906,43.352
						c-2.354,1.305-4.057,5.814-3.717,9.173c0.337,3.356,1.757,3.717,2.463,2.011c0.706-1.705,0.778-3.474,4.086-5.564
						C50.041,46.877,45.57,42.43,43.906,43.352z"/>
					<path id="path90_22_" style="fill:none;stroke:#231815;stroke-width:2;stroke-miterlimit:10;" d="M38.196,55.126
						c0.142-1.149,1.196-1.976,2.347-1.834c1.157,0.14,1.979,1.192,1.838,2.347L38.196,55.126z"/>
					<path id="path34-7-5_751_" style="fill:none;stroke:#231815;stroke-width:2;stroke-miterlimit:10;" d="M39.401,37.978
						c-0.452-0.299-1.613-1.158-2.032-1.098c-0.413,0.057-0.644,0.215-0.644,0.215c-0.773,0.291-0.706,1.205-0.924,2.004
						c0,0-0.022,0.209,0.078,0.781c0.07,0.415,0.104,0.848,0.485,1.443c0,0,2.448,3.051,4.788,6.38c0,0,1.752-0.252,3.365-2.029
						c1.608-1.774,1.694-3.542,1.694-3.542C42.671,40.123,39.401,37.978,39.401,37.978z"/>
					<g id="g192_13_">
						<g id="g190_13_">
							<g id="g188_13_">
								<path id="path93_29_" style="fill:#F09400;stroke:#231815;stroke-width:1.5423;stroke-miterlimit:10;" d="M49.482,16.882
									c1.7,8.314-4.276,16.554-12.74,18.284c-8.464,1.729-16.701-3.604-18.401-11.917C16.64,14.933,22.122,6.787,30.588,5.056
									C39.053,3.327,47.781,8.567,49.482,16.882z"/>
								
									<radialGradient id="path108_1_" cx="438.1934" cy="-154.8115" r="14.934" gradientTransform="matrix(0.9797 -0.2004 -0.2004 -0.9797 -426.4009 -43.7519)" gradientUnits="userSpaceOnUse">
									<stop  offset="0" style="stop-color:#C97229"/>
									<stop  offset="0.3871" style="stop-color:#BC6330"/>
									<stop  offset="0.6026" style="stop-color:#B0522C"/>
									<stop  offset="0.7151" style="stop-color:#A84729"/>
									<stop  offset="0.8698" style="stop-color:#993F18"/>
									<stop  offset="1" style="stop-color:#8A3606"/>
								</radialGradient>
								
									<path id="path108_13_" style="fill:url(#path108_1_);stroke:#231815;stroke-width:3;stroke-linecap:round;stroke-linejoin:round;stroke-miterlimit:10;" d="
									M48.771,17.025c-1.767-7.899-9.972-12.919-18.039-11.27c-3.631,0.744-6.679,2.73-8.794,5.41
									c-0.037,0.046-0.069,0.089-0.105,0.137c-0.276,0.36-0.538,0.73-0.782,1.115c-0.056,0.085-0.104,0.173-0.156,0.262
									c-0.215,0.351-0.416,0.711-0.6,1.083c-0.052,0.104-0.103,0.21-0.154,0.317c-0.17,0.369-0.327,0.743-0.468,1.124
									c-0.039,0.109-0.08,0.212-0.119,0.321c-0.139,0.406-0.258,0.82-0.359,1.237c-0.021,0.084-0.045,0.167-0.065,0.252
									c-0.444,1.951-0.5,4.012-0.075,6.092c0,0,0.22-0.818,0.668-1.989c0.953,1.399,2.454,3.238,4.032,3.703l-0.602-5.36
									c0,0,2.833,4.153,7.188,3.638l-0.185-0.904c0,0,2.366,0.269,2.999,0.14c0,0,1.717,2.344,2.214,3.355
									c0,0,0.075-0.438,0.131-1.224c0.242,0.124,4.858,2.524,6.351,5.575l0.915-1.253l1.356,4.231
									C44.122,33.016,51.131,27.574,48.771,17.025z"/>
								
									<radialGradient id="path123_1_" cx="438.1924" cy="-154.769" r="14.9116" gradientTransform="matrix(0.9797 -0.2004 -0.2004 -0.9797 -426.4009 -43.7519)" gradientUnits="userSpaceOnUse">
									<stop  offset="0" style="stop-color:#C97229"/>
									<stop  offset="0.3871" style="stop-color:#BC6330"/>
									<stop  offset="0.6026" style="stop-color:#B0522C"/>
									<stop  offset="0.7151" style="stop-color:#A84729"/>
									<stop  offset="0.8698" style="stop-color:#993F18"/>
									<stop  offset="1" style="stop-color:#8A3606"/>
								</radialGradient>
								<path id="path123_247_" style="fill:url(#path123_1_);" d="M48.771,17.025c1.621,7.93-4.1,15.791-12.171,17.441
									c-8.068,1.65-15.927-3.437-17.546-11.364c-1.623-7.929,3.607-15.697,11.678-17.347C38.799,4.106,47.149,9.096,48.771,17.025
									z"/>
								<path id="path125_125_" style="fill:#231815;stroke:#231815;stroke-width:2.7816;stroke-miterlimit:10;" d="M44.543,23.81
									c1.373,6.726-3.165,11.456-9.603,13.102c-8.848,2.26-12.597-1.556-13.972-8.283c-1.377-6.728,2.787-13.269,9.295-14.6
									C36.771,12.697,43.165,17.077,44.543,23.81z"/>
								
									<radialGradient id="path34-7-5_1_" cx="588.0488" cy="-294.5703" r="33.8462" gradientTransform="matrix(0.4045 -0.4455 -0.7404 -0.6723 -424.0844 98.1861)" gradientUnits="userSpaceOnUse">
									<stop  offset="0" style="stop-color:#FFF89F"/>
									<stop  offset="1" style="stop-color:#F15F57"/>
								</radialGradient>
								<path id="path34-7-5_750_" style="fill:url(#path34-7-5_1_);" d="M39.401,37.978c-0.395-0.303-1.498-1.121-1.915-1.065
									c-0.414,0.058-0.761,0.181-0.761,0.181c-0.775,0.291-1.28,0.85-1.499,1.648c0,0-0.021,0.209,0.077,0.781
									c0.072,0.416,0.772,1.289,1.061,1.801c0,0,2.448,3.047,4.789,6.38c0,0,2.119,0.081,3.731-1.696
									c1.612-1.775,1.325-3.878,1.325-3.878C42.671,40.123,39.401,37.978,39.401,37.978z"/>
								<linearGradient id="polygon138_1_" gradientUnits="userSpaceOnUse" x1="37.1445" y1="38.8701" x2="34.9272" y2="36.942">
									<stop  offset="0" style="stop-color:#F8D8CB"/>
									<stop  offset="0.1365" style="stop-color:#F7D1C3"/>
									<stop  offset="0.3479" style="stop-color:#F5BEAD"/>
									<stop  offset="0.6075" style="stop-color:#F19F8A"/>
									<stop  offset="0.903" style="stop-color:#EB7459"/>
									<stop  offset="1" style="stop-color:#E96547"/>
								</linearGradient>
								<polygon id="polygon138_14_" style="fill:url(#polygon138_1_);" points="37.402,37.733 35.975,39.308 33.675,37.22 
									35.107,35.644 								"/>
								
									<ellipse id="ellipse140_14_" transform="matrix(-0.7404 -0.6722 0.6722 -0.7404 47.7929 110.2022)" style="fill:#3E3A39;" cx="45.179" cy="45.871" rx="3.375" ry="3.619"/>
								<path id="path142_31_" style="fill:#3E3A39;" d="M43.906,43.352c-2.354,1.305-4.057,5.814-3.717,9.173
									c0.337,3.356,1.757,3.717,2.463,2.011c0.706-1.705,0.778-3.474,4.086-5.564C50.041,46.877,45.57,42.43,43.906,43.352z"/>
								<path id="path144_29_" style="fill:#9C9C9D;" d="M38.196,55.126c0.142-1.149,1.196-1.976,2.347-1.834
									c1.157,0.14,1.979,1.192,1.838,2.347L38.196,55.126z"/>
								<path id="path146_21_" style="fill:none;stroke:#1EA839;stroke-miterlimit:10;" d="M44.462,44.76"/>
								<path id="path34-7-5_749_" style="fill:#E1007F;" d="M39.401,37.978c-0.589-0.457-1.613-1.158-2.032-1.098
									c-0.413,0.057-0.644,0.215-0.644,0.215c-0.492,0.572-0.706,1.205-0.924,2.004c0,0-0.022,0.209,0.078,0.781
									c0.07,0.415,0.104,0.848,0.485,1.443c0,0,2.448,3.051,4.788,6.38c0,0,1.752-0.252,3.365-2.029
									c1.961-2.132,1.694-3.542,1.694-3.542C42.671,40.123,39.401,37.978,39.401,37.978z"/>
								
									<radialGradient id="path154_1_" cx="435.8262" cy="-159.8062" r="22.0399" gradientTransform="matrix(0.9797 -0.2004 -0.2004 -0.9797 -426.4009 -43.7519)" gradientUnits="userSpaceOnUse">
									<stop  offset="0" style="stop-color:#FEF1F6"/>
									<stop  offset="0.1271" style="stop-color:#FDE9EE"/>
									<stop  offset="0.3239" style="stop-color:#FAD5D8"/>
									<stop  offset="0.5658" style="stop-color:#F4B2B5"/>
									<stop  offset="0.8408" style="stop-color:#ED8384"/>
									<stop  offset="1" style="stop-color:#E86564"/>
								</radialGradient>
								<path id="path154_29_" style="fill:url(#path154_1_);" d="M44.543,23.81c1.373,6.726-3.095,11.769-9.603,13.102
									c-6.507,1.33-12.081,0.964-13.972-8.283c-1.377-6.728,2.787-13.269,9.295-14.6C36.771,12.697,43.165,17.077,44.543,23.81z"
									/>
								
									<path id="path156_26_" style="fill:none;stroke:#A4414A;stroke-width:0.8345;stroke-linecap:round;stroke-linejoin:round;stroke-miterlimit:10;" d="
									M26.534,20.971c0,0-1.949-1.754-3.582,0.732"/>
								
									<radialGradient id="path171_1_" cx="438.1934" cy="-154.8115" r="14.934" gradientTransform="matrix(0.9797 -0.2004 -0.2004 -0.9797 -426.4009 -43.7519)" gradientUnits="userSpaceOnUse">
									<stop  offset="0" style="stop-color:#C97229"/>
									<stop  offset="0.3871" style="stop-color:#BC6330"/>
									<stop  offset="0.6026" style="stop-color:#B0522C"/>
									<stop  offset="0.7151" style="stop-color:#A84729"/>
									<stop  offset="0.8698" style="stop-color:#993F18"/>
									<stop  offset="1" style="stop-color:#8A3606"/>
								</radialGradient>
								<path id="path171_21_" style="fill:url(#path171_1_);stroke:#231815;stroke-width:1.5;stroke-miterlimit:10;" d="
									M48.771,17.025c-1.767-7.899-9.972-12.919-18.039-11.27c-3.631,0.744-6.679,2.73-8.794,5.41
									c-0.037,0.046-0.069,0.089-0.105,0.137c-0.276,0.36-0.538,0.73-0.782,1.115c-0.056,0.085-0.104,0.173-0.156,0.262
									c-0.215,0.351-0.416,0.711-0.6,1.083c-0.052,0.104-0.103,0.21-0.154,0.317c-0.17,0.369-0.327,0.743-0.468,1.124
									c-0.039,0.109-0.08,0.212-0.119,0.321c-0.139,0.406-0.258,0.82-0.359,1.237c-0.021,0.084-0.045,0.167-0.065,0.252
									c-0.444,1.951-0.5,4.012-0.075,6.092c0,0,0.22-0.818,0.668-1.989c0.953,1.399,2.454,3.238,4.032,3.703l-0.602-5.36
									c0,0,2.833,4.153,7.188,3.638l-0.185-0.904c0,0,2.366,0.269,2.999,0.14c0,0,1.717,2.344,2.214,3.355
									c0,0,0.075-0.438,0.131-1.224c0.242,0.124,4.858,2.524,6.351,5.575l0.915-1.253l1.356,4.231
									C44.122,33.016,51.131,27.574,48.771,17.025z"/>
								
									<radialGradient id="path186_1_" cx="438.1934" cy="-154.8115" r="14.934" gradientTransform="matrix(0.9797 -0.2004 -0.2004 -0.9797 -426.4009 -43.7519)" gradientUnits="userSpaceOnUse">
									<stop  offset="0" style="stop-color:#F1E1B2"/>
									<stop  offset="0.3798" style="stop-color:#DBB242"/>
									<stop  offset="0.6854" style="stop-color:#B88700"/>
									<stop  offset="0.8418" style="stop-color:#9E6C2A"/>
									<stop  offset="1" style="stop-color:#754312"/>
								</radialGradient>
								<path id="path186_18_" style="fill:url(#path186_1_);" d="M48.771,17.025c-1.767-7.899-9.972-12.919-18.039-11.27
									c-3.631,0.744-6.679,2.73-8.794,5.41c-0.037,0.046-0.069,0.089-0.105,0.137c-0.276,0.36-0.538,0.73-0.782,1.115
									c-0.056,0.085-0.104,0.173-0.156,0.262c-0.215,0.351-0.416,0.711-0.6,1.083c-0.052,0.104-0.103,0.21-0.154,0.317
									c-0.17,0.369-0.327,0.743-0.468,1.124c-0.039,0.109-0.08,0.212-0.119,0.321c-0.139,0.406-0.258,0.82-0.359,1.237
									c-0.021,0.084-0.045,0.167-0.065,0.252c-0.444,1.951-0.5,4.012-0.075,6.092c0,0,0.22-0.818,0.668-1.989
									c0.953,1.399,2.454,3.238,4.032,3.703l-0.602-5.36c0,0,2.833,4.153,7.188,3.638l-0.185-0.904c0,0,2.366,0.269,2.999,0.14
									c0,0,1.717,2.344,2.214,3.355c0,0,0.075-0.438,0.131-1.224c0.242,0.124,4.858,2.524,6.351,5.575l0.915-1.253l1.356,4.231
									C44.122,33.016,51.131,27.574,48.771,17.025z"/>
							</g>
						</g>
					</g>
					<g id="g213_473_">
						
							<linearGradient id="path207_1_" gradientUnits="userSpaceOnUse" x1="554.4102" y1="233.0859" x2="558.2422" y2="233.0859" gradientTransform="matrix(0.9797 -0.2004 0.2004 0.9797 -561.7686 -86.8614)">
							<stop  offset="0" style="stop-color:#FFA67F"/>
							<stop  offset="0.0969" style="stop-color:#FF967B"/>
							<stop  offset="0.3655" style="stop-color:#FF7170"/>
							<stop  offset="0.6143" style="stop-color:#FF5568"/>
							<stop  offset="0.8336" style="stop-color:#FF4564"/>
							<stop  offset="1" style="stop-color:#FF3F62"/>
						</linearGradient>
						<path id="path207_20_" style="fill:url(#path207_1_);" d="M31.851,29.62c-0.122-0.601-1.064-0.917-2.102-0.704
							c-1.035,0.211-1.775,0.871-1.651,1.474c0.12,0.6,1.062,0.917,2.1,0.705C31.233,30.885,31.975,30.224,31.851,29.62z"/>
					</g>
					<g id="g213_472_">
						<path id="path209_289_" style="fill:#160201;" d="M27.969,27.567c0.342,1.667-0.237,3.198-1.29,3.414
							c-1.057,0.213-2.186-0.966-2.528-2.636c-0.343-1.675,0.234-3.207,1.289-3.425C26.494,24.705,27.626,25.888,27.969,27.567z"/>
						<path id="path191_45_" style="fill:#160201;" d="M27.323,25.946c0.428-0.091,0.922-0.412,1.045-0.718
							c0,0,0.41,1.054-0.627,1.772C26.91,27.572,27.323,25.946,27.323,25.946z"/>
						<path id="path207_29_" style="fill:#48140F;stroke:#231815;stroke-width:3;stroke-miterlimit:10;" d="M42.895,32.631
							c0.75,1.183,3.648,6.857,11.519,4.771c0,0-2.473-1.193-3.182-2.56c0,0,2.613,0.019,4.739-1.408c0,0-4.918-1.68-6.796-5.113
							c-1.753-3.213-4.658-7.416-7.174-6.705C39.989,22.182,40.452,28.777,42.895,32.631z"/>
						
							<radialGradient id="path216_1_" cx="316.8457" cy="-340.9336" r="8.0906" gradientTransform="matrix(0.7912 -0.6116 -0.6116 -0.7912 -412.2392 -45.6869)" gradientUnits="userSpaceOnUse">
							<stop  offset="0" style="stop-color:#F1E1B2"/>
							<stop  offset="0.3798" style="stop-color:#DBB242"/>
							<stop  offset="0.6854" style="stop-color:#B88700"/>
							<stop  offset="0.8418" style="stop-color:#9E6C2A"/>
							<stop  offset="1" style="stop-color:#754312"/>
						</radialGradient>
						<path id="path216_10_" style="fill:url(#path216_1_);" d="M42.406,32.728c0.731,1.194,4.137,6.761,12.011,4.675
							c0,0-2.475-1.191-3.183-2.56c0,0,2.611,0.017,4.737-1.406c0,0-4.918-1.681-6.795-5.116c-1.755-3.212-4.449-7.941-7.663-6.607
							C38.031,23.161,41.021,30.469,42.406,32.728z"/>
						<path id="path211_240_" style="fill:#FFFFFF;" d="M27.051,26.126c0.093,0.452-0.199,0.887-0.655,0.981
							c-0.452,0.093-0.891-0.197-0.983-0.648c-0.093-0.453,0.198-0.896,0.649-0.987C26.519,25.378,26.957,25.671,27.051,26.126z"/>
					</g>
					<path id="path213_14_" style="fill:#C30D23;" d="M26.48,33.6c-0.129,0.279-0.964,0.959-2.046,1.322
						c0.249,0.199,0.51,0.389,0.783,0.561c1.215-0.445,2.087-1.076,2.175-1.513c0.053-0.255-0.001-0.521-0.252-0.622
						C26.887,33.243,26.593,33.357,26.48,33.6z"/>
					<path id="ellipse215_12_" style="fill:#231815;" d="M37.507,22.515c1.456-0.056,2.691,1.277,2.759,2.982
						c0.063,1.7-1.065,3.125-2.527,3.18c-1.459,0.056-2.695-1.28-2.762-2.981C34.914,23.995,36.047,22.568,37.507,22.515z"/>
					
						<radialGradient id="path222_1_" cx="464.0752" cy="-96.5591" r="5.2779" gradientTransform="matrix(0.9993 -0.0377 -0.0377 -0.9993 -431.964 -52.3363)" gradientUnits="userSpaceOnUse">
						<stop  offset="0" style="stop-color:#FEF1F6"/>
						<stop  offset="0.1271" style="stop-color:#FDE9EE"/>
						<stop  offset="0.3239" style="stop-color:#FAD5D8"/>
						<stop  offset="0.5658" style="stop-color:#F4B2B5"/>
						<stop  offset="0.8408" style="stop-color:#ED8384"/>
						<stop  offset="1" style="stop-color:#E86564"/>
					</radialGradient>
					<path id="path222_18_" style="fill:url(#path222_1_);" d="M39.232,25.995c0.051,1.433-0.899,2.632-2.128,2.68
						c-1.231,0.046-2.269-1.078-2.321-2.511c-0.054-1.432,0.898-2.627,2.126-2.676C38.14,23.443,39.179,24.568,39.232,25.995z"/>
					<path id="path224_16_" style="fill:#48140F;" d="M33.327,20.554c-0.076,4.902-1.367,14.634-3.618,17.977l3.352-0.149
						c2.976-4.029,3.245-16.387,3.266-17.785L33.327,20.554z"/>
				</g>
			</g>
			<g>
				
					<radialGradient id="path233_1_" cx="280.5938" cy="-333.5518" r="18.2183" gradientTransform="matrix(0.2084 -0.978 -0.978 -0.2084 -359.7965 254.0259)" gradientUnits="userSpaceOnUse">
					<stop  offset="0" style="stop-color:#FEF1F6"/>
					<stop  offset="0.1271" style="stop-color:#FDE9EE"/>
					<stop  offset="0.3239" style="stop-color:#FAD5D8"/>
					<stop  offset="0.5658" style="stop-color:#F4B2B5"/>
					<stop  offset="0.8408" style="stop-color:#ED8384"/>
					<stop  offset="1" style="stop-color:#E86564"/>
				</radialGradient>
				<path id="path233_12_" style="fill:url(#path233_1_);" d="M35.085,39.765c-0.273,0.879-1.15,2.993-3.063,4.759
					c-1.91,1.762-3.726,1.888-4.177,2.814c-0.453,0.93,0.82,1.145,1.92,0.58c1.055-0.541,1.035,0.124,2.052,0.18
					c0.548,0.032,1.365-0.645,2.046-1.607c0.73-1.037,3.641-4.258,3.386-7.289C37.164,38.205,35.627,38.006,35.085,39.765z"/>
			</g>
		</g>
		<path id="path237_13_" style="fill:#231815;stroke:#231815;stroke-width:3;stroke-miterlimit:10;" d="M50.514,23.431
			c-2.717,8.554-8.532-1.15-17.236-3.911c-7.553-2.402-18.449,0.419-15.605-3.226c0.58-0.746,0.426-1.906,0.785-3.038
			C21.17,4.7,30.431,0.008,39.139,2.771C47.844,5.534,53.229,14.879,50.514,23.431z"/>
		<radialGradient id="path244_1_" cx="34.2148" cy="14.4297" r="14.9037" gradientUnits="userSpaceOnUse">
			<stop  offset="0" style="stop-color:#2BC4F3"/>
			<stop  offset="0.5" style="stop-color:#00AEEE"/>
			<stop  offset="1" style="stop-color:#0095DA"/>
		</radialGradient>
		<path id="path244_16_" style="fill:url(#path244_1_);" d="M50.514,23.431c-2.717,8.554-8.532-1.15-17.236-3.911
			c-7.553-2.402-18.449,0.419-15.605-3.226c0.58-0.746,0.426-1.906,0.785-3.038C21.17,4.7,30.431,0.008,39.139,2.771
			C47.844,5.534,53.229,14.879,50.514,23.431z"/>
	</g>
	<g id="Layer_1_163_">
	</g>
	
		<line style="fill:none;stroke:#231815;stroke-width:1.3958;stroke-linecap:round;stroke-linejoin:round;stroke-miterlimit:10;" x1="26.164" y1="56.921" x2="30.412" y2="49.012"/>
</g>
<g id="Layer_1">
</g>
</svg>
