<?xml version="1.0" encoding="iso-8859-1"?>
<!-- Generator: Adobe Illustrator 16.0.0, SVG Export Plug-In . SVG Version: 6.00 Build 0)  -->
<!DOCTYPE svg PUBLIC "-//W3C//DTD SVG 1.1//EN" "http://www.w3.org/Graphics/SVG/1.1/DTD/svg11.dtd">
<svg version="1.1" xmlns="http://www.w3.org/2000/svg" xmlns:xlink="http://www.w3.org/1999/xlink" x="0px" y="0px" width="64px"
	 height="64px" viewBox="0 0 64 64" style="enable-background:new 0 0 64 64;" xml:space="preserve">
<g id="woman_x5F_walking_x28_bk_x29_">
	<g id="woman_x5F_walking_x28_blk_x29__1_">
		<g id="g59">
			<path id="path2_34_" style="fill:#48140F;stroke:#231815;stroke-width:2;stroke-miterlimit:10;" d="M28.992,50.697
				c0.189,2.688,3.556,6.135,6.742,7.242c3.189,1.108,4.111-0.024,2.867-1.385c-1.25-1.357-2.819-2.172-3.326-6.052
				C34.773,46.623,28.858,48.802,28.992,50.697z"/>
			<path id="path4_35_" style="fill:none;stroke:#231815;stroke-width:2;stroke-miterlimit:10;" d="M37.809,61.119
				c-1.058-0.484-1.521-1.736-1.039-2.793c0.483-1.057,1.734-1.523,2.789-1.039L37.809,61.119z"/>
			<path id="path6_16_" style="fill:#004482;" d="M28.992,50.697c0.189,2.688,3.556,6.135,6.742,7.242
				c3.189,1.108,4.111-0.024,2.867-1.385c-1.25-1.357-2.819-2.172-3.326-6.052C34.773,46.623,28.858,48.802,28.992,50.697z"/>
			<path id="path8_56_" style="fill:#9C9C9D;" d="M37.809,61.119c-1.058-0.484-1.521-1.736-1.039-2.793
				c0.483-1.057,1.734-1.523,2.789-1.039L37.809,61.119z"/>
			<path id="path30-2_164_" style="fill:#48140F;stroke:#231815;stroke-width:2;stroke-miterlimit:10;" d="M29.3,43.514
				c-0.843,1.144-1.619,1.873-3.65,1.771c-1.131-0.196-0.891,0.973-0.891,0.973c-1.039,1.745,0.485,1.593,1.159,2.022
				c0.675,0.431,3.479-0.795,4.968-3.778c1.509-3.401,1.186-5.019,0.162-4.942C30.028,39.635,30.644,41.68,29.3,43.514z"/>
			
				<radialGradient id="path30-2_1_" cx="-5.6982" cy="-428.4067" r="6.761" gradientTransform="matrix(0.7636 -0.6457 -0.6457 -0.7636 -250.4939 -283.479)" gradientUnits="userSpaceOnUse">
				<stop  offset="0" style="stop-color:#C35B22"/>
				<stop  offset="1" style="stop-color:#45220E"/>
			</radialGradient>
			<path id="path30-2_163_" style="fill:url(#path30-2_1_);" d="M29.3,43.514c-0.843,1.144-1.619,1.873-3.65,1.771
				c-1.131-0.196-0.891,0.973-0.891,0.973c-1.039,1.745,0.485,1.593,1.159,2.022c0.675,0.431,3.479-0.795,4.968-3.778
				c1.509-3.401,1.186-5.019,0.162-4.942C30.028,39.635,30.644,41.68,29.3,43.514z"/>
			<path id="path34-7-5_123_" style="fill:#48140F;stroke:#231815;stroke-width:2;stroke-miterlimit:10;" d="M33.9,42.119
				c-0.043-0.494-0.178-1.863-0.5-2.133c-0.321-0.269-0.645-0.443-0.645-0.443c-0.738-0.377-1.49-0.377-2.228,0
				c0,0-0.169,0.124-0.527,0.582c-0.259,0.331-1.084,1.126-1.251,1.959s0.333,2.166-0.872,7.869c0,0,1.363,1.625,3.765,1.625
				c2.396,0,3.761-1.625,3.761-1.625C34.51,45.982,33.9,42.119,33.9,42.119z"/>
			
				<radialGradient id="path34-7-5_1_" cx="526.0771" cy="-332.043" r="33.8481" gradientTransform="matrix(0.6017 0 0 -1 -284.9348 -298)" gradientUnits="userSpaceOnUse">
				<stop  offset="0" style="stop-color:#C35B22"/>
				<stop  offset="1" style="stop-color:#45220E"/>
			</radialGradient>
			<path id="path34-7-5_122_" style="fill:url(#path34-7-5_1_);" d="M33.9,42.119c-0.043-0.494-0.178-1.863-0.5-2.133
				c-0.321-0.269-0.645-0.443-0.645-0.443c-0.738-0.377-1.49-0.377-2.228,0c0,0-0.169,0.124-0.527,0.582
				c-0.259,0.331-1.084,1.126-1.251,1.959s0.333,2.166-0.872,7.869c0,0,1.363,1.625,3.765,1.625c2.396,0,3.761-1.625,3.761-1.625
				C34.51,45.982,33.9,42.119,33.9,42.119z"/>
			
				<ellipse id="ellipse24" style="fill:none;stroke:#231815;stroke-width:2;stroke-miterlimit:10;" cx="31.938" cy="51.703" rx="3.619" ry="3.375"/>
			<path id="path26_32_" style="fill:#48140F;stroke:#231815;stroke-width:2;stroke-miterlimit:10;" d="M30.773,48.864
				c-2.398,1.222-4.258,5.67-4.033,9.036c0.222,3.367,1.627,3.776,2.393,2.097c0.766-1.679,0.899-3.442,4.275-5.419
				C36.781,52.6,32.467,48,30.773,48.864z"/>
			<path id="path28_19_" style="fill:#48140F;stroke:#231815;stroke-width:2;stroke-miterlimit:10;" d="M24.659,60.434
				c0.183-1.146,1.262-1.934,2.409-1.752c1.15,0.18,1.936,1.26,1.754,2.409L24.659,60.434z"/>
			<path id="path30-2_162_" style="fill:#48140F;stroke:#231815;stroke-width:2;stroke-miterlimit:10;" d="M35.509,43.313
				c0.835,1.147,1.292,2.112,0.578,4.018c-0.53,1.018,0.655,1.146,0.655,1.146c1.351,1.517,1.666,0.021,2.281-0.492
				c0.615-0.514,0.301-3.555-2.09-5.883c-2.785-2.465-4.422-2.649-4.659-1.653C32.036,41.441,34.173,41.477,35.509,43.313z"/>
			<g id="g41">
				<g id="g39">
					<g id="g37">
						<ellipse id="ellipse31_1_" style="fill:#0066CF;" cx="31.938" cy="51.703" rx="3.619" ry="3.375"/>
						<path id="path33_4_" style="fill:#0066CF;" d="M30.773,48.864c-2.398,1.222-4.258,5.67-4.033,9.036
							c0.222,3.367,1.627,3.776,2.393,2.097c0.766-1.679,0.899-3.442,4.275-5.419C36.781,52.6,32.467,48,30.773,48.864z"/>
						<path id="path35_17_" style="fill:#9C9C9D;" d="M24.659,60.434c0.183-1.146,1.262-1.934,2.409-1.752
							c1.15,0.18,1.936,1.26,1.754,2.409L24.659,60.434z"/>
					</g>
				</g>
			</g>
			<path id="path43_20_" style="fill:#48140F;stroke:#231815;stroke-width:2.7816;stroke-miterlimit:10;" d="M43.723,27.189
				c0,6.868-5.396,10.588-12.031,10.911c-9.125,0.442-12.03-4.043-12.03-10.911c0-6.871,5.387-12.443,12.03-12.443
				C38.333,14.746,43.723,20.318,43.723,27.189z"/>
			
				<radialGradient id="rect50_1_" cx="305.7129" cy="-339.749" r="4.0006" gradientTransform="matrix(1 0 0 -1 -274 -298)" gradientUnits="userSpaceOnUse">
				<stop  offset="0" style="stop-color:#C35B22"/>
				<stop  offset="1" style="stop-color:#45220E"/>
			</radialGradient>
			<rect id="rect50" x="30.611" y="37.37" style="fill:url(#rect50_1_);" width="2.127" height="3.104"/>
			<path id="path34-7-5_121_" style="fill:#E1007F;" d="M33.9,42.119c-0.086-0.535-0.229-1.973-0.553-2.242
				c-0.32-0.268-0.592-0.334-0.592-0.334c-0.756,0.041-1.367,0.288-2.105,0.665c0,0-0.609,0.365-1.026,0.698
				c-0.328,0.262-0.721,0.6-0.906,1.281c0,0,0.053,3.795-0.841,7.766c0,0,1.363,1.127,3.765,1.127c2.396,0,3.761-1.127,3.761-1.127
				C34.51,45.982,33.9,42.119,33.9,42.119z"/>
			
				<radialGradient id="path30-2_2_" cx="268.9697" cy="-382.8174" r="27.9916" gradientTransform="matrix(-0.2441 0.9697 -0.9697 -0.2441 -277.3192 -317.946)" gradientUnits="userSpaceOnUse">
				<stop  offset="0" style="stop-color:#C35B22"/>
				<stop  offset="1" style="stop-color:#45220E"/>
			</radialGradient>
			<path id="path30-2_161_" style="fill:url(#path30-2_2_);" d="M35.509,43.313c0.835,1.147,1.292,2.112,0.578,4.018
				c-0.53,1.018,0.655,1.146,0.655,1.146c1.351,1.517,1.666,0.021,2.281-0.492c0.615-0.514,0.301-3.555-2.09-5.883
				c-2.785-2.465-4.422-2.649-4.659-1.653C32.036,41.441,34.173,41.477,35.509,43.313z"/>
		</g>
		<path id="path61_13_" style="fill:#F09400;stroke:#231815;stroke-width:1.5423;stroke-miterlimit:10;" d="M49.949,21.39
			c0,8.486-7.504,15.361-16.143,15.361c-8.64,0-15.643-6.875-15.643-15.361c0-8.487,7.003-15.369,15.643-15.369
			C42.445,6.021,49.949,12.903,49.949,21.39z"/>
		
			<radialGradient id="path76_1_" cx="308.0586" cy="-319.4297" r="14.9338" gradientTransform="matrix(1 0 0 -1 -274 -298)" gradientUnits="userSpaceOnUse">
			<stop  offset="0" style="stop-color:#C97229"/>
			<stop  offset="0.3871" style="stop-color:#BC6330"/>
			<stop  offset="0.6026" style="stop-color:#B0522C"/>
			<stop  offset="0.7151" style="stop-color:#A84729"/>
			<stop  offset="0.8698" style="stop-color:#993F18"/>
			<stop  offset="1" style="stop-color:#8A3606"/>
		</radialGradient>
		
			<path id="path76_5_" style="fill:url(#path76_1_);stroke:#231815;stroke-width:3;stroke-linecap:round;stroke-linejoin:round;stroke-miterlimit:10;" d="
			M49.223,21.39c-0.147-8.092-7.18-14.656-15.416-14.656c-3.706,0-7.091,1.337-9.7,3.537c-0.044,0.037-0.084,0.076-0.127,0.113
			c-0.345,0.298-0.676,0.609-0.992,0.937c-0.07,0.073-0.138,0.149-0.207,0.224c-0.281,0.303-0.549,0.617-0.803,0.943
			c-0.072,0.092-0.143,0.186-0.213,0.28c-0.242,0.326-0.469,0.662-0.684,1.007c-0.061,0.097-0.122,0.192-0.18,0.291
			c-0.218,0.37-0.417,0.75-0.602,1.138c-0.038,0.079-0.079,0.155-0.115,0.235c-0.825,1.82-1.293,3.831-1.293,5.952
			c0,0,0.379-0.755,1.055-1.815c0.652,1.563,1.755,3.663,3.208,4.436l0.485-5.372c0,0,1.942,4.635,6.312,5.005V22.72
			c0,0,2.265,0.739,2.912,0.739c0,0,1.211,2.641,1.494,3.73c0,0,0.164-0.415,0.375-1.173c0.211,0.169,4.254,3.447,5.105,6.734
			l1.145-1.042l0.48,4.417C41.463,36.125,49.422,32.197,49.223,21.39z"/>
		<path id="path78_2_" style="fill:#231815;" d="M49.223,21.39c0,8.093-7.18,14.647-15.416,14.647
			c-8.238,0-14.917-6.554-14.917-14.647c0-8.094,6.679-14.656,14.917-14.656C42.043,6.734,49.223,13.296,49.223,21.39z"/>
		
			<radialGradient id="path85_1_" cx="305.6924" cy="-324.4229" r="22.0394" gradientTransform="matrix(1 0 0 -1 -274 -298)" gradientUnits="userSpaceOnUse">
			<stop  offset="0" style="stop-color:#C35B22"/>
			<stop  offset="1" style="stop-color:#45220E"/>
		</radialGradient>
		<path id="path85_9_" style="fill:url(#path85_1_);" d="M43.723,27.189c0,6.868-5.39,10.911-12.031,10.911
			c-6.644,0-12.03-1.475-12.03-10.911c0-6.871,5.387-12.443,12.03-12.443C38.333,14.746,43.723,20.318,43.723,27.189z"/>
		
			<path id="path87_6_" style="fill:none;stroke:#A4414A;stroke-width:0.8345;stroke-linecap:round;stroke-linejoin:round;stroke-miterlimit:10;" d="
			M26.646,20.8c0,0-1.557-2.108-3.656,0"/>
		
			<radialGradient id="path102_1_" cx="308.0586" cy="-319.4297" r="14.9338" gradientTransform="matrix(1 0 0 -1 -274 -298)" gradientUnits="userSpaceOnUse">
			<stop  offset="0" style="stop-color:#C97229"/>
			<stop  offset="0.3871" style="stop-color:#BC6330"/>
			<stop  offset="0.6026" style="stop-color:#B0522C"/>
			<stop  offset="0.7151" style="stop-color:#A84729"/>
			<stop  offset="0.8698" style="stop-color:#993F18"/>
			<stop  offset="1" style="stop-color:#8A3606"/>
		</radialGradient>
		<path id="path102_8_" style="fill:url(#path102_1_);stroke:#231815;stroke-width:1.5;stroke-miterlimit:10;" d="M49.223,21.39
			c-0.147-8.092-7.18-14.656-15.416-14.656c-3.706,0-7.091,1.337-9.7,3.537c-0.044,0.037-0.084,0.076-0.127,0.113
			c-0.345,0.298-0.676,0.609-0.992,0.937c-0.07,0.073-0.138,0.149-0.207,0.224c-0.281,0.303-0.549,0.617-0.803,0.943
			c-0.072,0.092-0.143,0.186-0.213,0.28c-0.242,0.326-0.469,0.662-0.684,1.007c-0.061,0.097-0.122,0.192-0.18,0.291
			c-0.218,0.37-0.417,0.75-0.602,1.138c-0.038,0.079-0.079,0.155-0.115,0.235c-0.825,1.82-1.293,3.831-1.293,5.952
			c0,0,0.379-0.755,1.055-1.815c0.652,1.563,1.755,3.663,3.208,4.436l0.485-5.372c0,0,1.942,4.635,6.312,5.005V22.72
			c0,0,2.265,0.739,2.912,0.739c0,0,1.211,2.641,1.494,3.73c0,0,0.164-0.415,0.375-1.173c0.211,0.169,4.254,3.447,5.105,6.734
			l1.145-1.042l0.48,4.417C41.463,36.125,49.422,32.197,49.223,21.39z"/>
		
			<radialGradient id="path111_1_" cx="308.0586" cy="-319.4297" r="14.9338" gradientTransform="matrix(1 0 0 -1 -274 -298)" gradientUnits="userSpaceOnUse">
			<stop  offset="0" style="stop-color:#6B6462"/>
			<stop  offset="0.3871" style="stop-color:#5E4B45"/>
			<stop  offset="0.6026" style="stop-color:#463934"/>
			<stop  offset="0.7151" style="stop-color:#3B2D27"/>
			<stop  offset="0.8698" style="stop-color:#2C221D"/>
			<stop  offset="1" style="stop-color:#1C110C"/>
		</radialGradient>
		<path id="path111_6_" style="fill:url(#path111_1_);" d="M49.223,21.39c-0.147-8.092-7.18-14.656-15.416-14.656
			c-3.706,0-7.091,1.337-9.7,3.537c-0.044,0.037-0.084,0.076-0.127,0.113c-0.345,0.298-0.676,0.609-0.992,0.937
			c-0.07,0.073-0.138,0.149-0.207,0.224c-0.281,0.303-0.549,0.617-0.803,0.943c-0.072,0.092-0.143,0.186-0.213,0.28
			c-0.242,0.326-0.469,0.662-0.684,1.007c-0.061,0.097-0.122,0.192-0.18,0.291c-0.218,0.37-0.417,0.75-0.602,1.138
			c-0.038,0.079-0.079,0.155-0.115,0.235c-0.825,1.82-1.293,3.831-1.293,5.952c0,0,0.379-0.755,1.055-1.815
			c0.652,1.563,1.755,3.663,3.208,4.436l0.485-5.372c0,0,1.942,4.635,6.312,5.005V22.72c0,0,2.265,0.739,2.912,0.739
			c0,0,1.211,2.641,1.494,3.73c0,0,0.164-0.415,0.375-1.173c0.211,0.169,4.254,3.447,5.105,6.734l1.145-1.042l0.48,4.417
			C41.463,36.125,49.422,32.197,49.223,21.39z"/>
		<ellipse id="ellipse113" style="fill:#C10D23;" cx="43.866" cy="17.332" rx="3" ry="3.833"/>
		<g id="g213_83_">
			
				<linearGradient id="ellipse126_2_" gradientUnits="userSpaceOnUse" x1="423.5107" y1="396.9082" x2="427.3428" y2="396.9082" gradientTransform="matrix(1 0 0 1 -397.2197 -366.5684)">
				<stop  offset="0" style="stop-color:#F26D6D"/>
				<stop  offset="0.1557" style="stop-color:#F35E70"/>
				<stop  offset="0.4859" style="stop-color:#F44275"/>
				<stop  offset="0.7781" style="stop-color:#F53278"/>
				<stop  offset="1" style="stop-color:#F52C79"/>
			</linearGradient>
			<ellipse id="ellipse126_1_" style="fill:url(#ellipse126_2_);" cx="28.207" cy="30.34" rx="1.916" ry="1.112"/>
		</g>
		<g id="g213_82_">
			<path id="path129_4_" style="fill:#160201;" d="M26.4,25.823c0.438-0.005,0.984-0.224,1.166-0.5c0,0,0.193,1.114-0.963,1.614
				C25.679,27.337,26.4,25.823,26.4,25.823z"/>
			<path id="path209_64_" style="fill:#160201;" d="M26.732,27.549c0,1.703-0.873,3.086-1.947,3.086
				c-1.078,0-1.949-1.383-1.949-3.086c0-1.713,0.871-3.099,1.949-3.099C25.859,24.451,26.732,25.836,26.732,27.549z"/>
			<path id="path211_58_" style="fill:#FFFFFF;" d="M26.121,25.951c0,0.462-0.373,0.834-0.838,0.834
				c-0.461,0-0.834-0.372-0.834-0.834c0-0.461,0.373-0.836,0.834-0.836C25.748,25.115,26.121,25.49,26.121,25.951z"/>
		</g>
		<path id="path134_8_" style="fill:#C30D23;" d="M24.065,33.16c-0.183,0.248-1.135,0.748-2.271,0.885
			c0.207,0.247,0.425,0.482,0.655,0.709c1.282-0.191,2.262-0.641,2.435-1.045c0.104-0.242,0.104-0.512-0.121-0.664
			C24.536,32.895,24.225,32.945,24.065,33.16z"/>
		
			<ellipse id="ellipse136" transform="matrix(0.1631 -0.9866 0.9866 0.1631 3.4319 59.1507)" style="fill:#231815;" cx="36.581" cy="27.552" rx="3.084" ry="2.645"/>
		
			<radialGradient id="path143_1_" cx="362.3105" cy="-280.5732" r="5.2779" gradientTransform="matrix(0.9866 0.1633 0.1633 -0.9866 -277.4218 -307.826)" gradientUnits="userSpaceOnUse">
			<stop  offset="0" style="stop-color:#C35B22"/>
			<stop  offset="1" style="stop-color:#45220E"/>
		</radialGradient>
		<path id="path143_11_" style="fill:url(#path143_1_);" d="M38.08,28.266c-0.234,1.415-1.408,2.399-2.621,2.198
			c-1.213-0.201-2.006-1.509-1.771-2.924c0.234-1.413,1.408-2.394,2.619-2.195C37.521,25.546,38.314,26.855,38.08,28.266z"/>
		<path id="path145_15_" style="fill:#48140F;stroke:#231815;stroke-width:3;stroke-miterlimit:10;" d="M44.639,24.924
			c0.506,1.31,2.236,7.44,10.364,6.935c0,0-2.192-1.655-2.619-3.133c0,0,2.56,0.528,4.923-0.454c0,0-4.496-2.61-5.664-6.345
			c-1.094-3.495-3.117-8.182-5.725-7.979C43.833,14.11,42.998,20.669,44.639,24.924z"/>
		
			<radialGradient id="path154_1_" cx="192.792" cy="-498.999" r="9.9112" gradientTransform="matrix(0.9698 -0.1811 -0.2439 -0.7201 -259.9149 -303.6075)" gradientUnits="userSpaceOnUse">
			<stop  offset="0" style="stop-color:#6B6462"/>
			<stop  offset="0.3871" style="stop-color:#5E4B45"/>
			<stop  offset="0.6026" style="stop-color:#463934"/>
			<stop  offset="0.7151" style="stop-color:#3B2D27"/>
			<stop  offset="0.8698" style="stop-color:#2C221D"/>
			<stop  offset="1" style="stop-color:#1C110C"/>
		</radialGradient>
		<path id="path154_11_" style="fill:url(#path154_1_);" d="M44.141,24.924c0.484,1.314,2.734,7.44,10.862,6.935
			c0,0-2.192-1.655-2.619-3.133c0,0,2.56,0.528,4.923-0.454c0,0-4.496-2.61-5.664-6.345c-1.094-3.495-2.812-8.661-6.223-7.979
			C41.725,14.687,43.225,22.438,44.141,24.924z"/>
	</g>
	<g id="Layer_1_73_">
	</g>
</g>
<g id="Layer_1">
</g>
</svg>
