<?xml version="1.0" encoding="utf-8"?>
<!-- Generator: Adobe Illustrator 18.0.0, SVG Export Plug-In . SVG Version: 6.00 Build 0)  -->
<!DOCTYPE svg PUBLIC "-//W3C//DTD SVG 1.1//EN" "http://www.w3.org/Graphics/SVG/1.1/DTD/svg11.dtd">
<svg version="1.1" id="レイヤー_1" xmlns="http://www.w3.org/2000/svg" xmlns:xlink="http://www.w3.org/1999/xlink" x="0px"
	 y="0px" width="64px" height="64px" viewBox="0 0 64 64" style="enable-background:new 0 0 64 64;" xml:space="preserve">
<g>
	<g>
		<linearGradient id="SVGID_1_" gradientUnits="userSpaceOnUse" x1="41.3003616" y1="10.7292004" x2="41.3003616" y2="43.7070007">
			<stop  offset="0" style="stop-color:#000000"/>
			<stop  offset="0.131687" style="stop-color:#3E3A39"/>
			<stop  offset="0.251029" style="stop-color:#3E3A39"/>
			<stop  offset="0.740741" style="stop-color:#000000"/>
		</linearGradient>
		<path style="fill:url(#SVGID_1_);" d="M40.9328003,43.7070007c0,0-0.1907997-1.7057991-0.7593994-2.6296997
			c0,0-1.105999,1.9587975-2.6141014,2.6140976c0,0-1.6883011-0.9083977-1.7047997-1.6190987l1.0555992-31.3430996
			C36.910099,10.7292004,56.0489006,21.9230995,40.9328003,43.7070007z"/>
		<path style="fill:#050505;" d="M40.7587891,44.3964844l-0.0742188-0.6621094
			c-0.0019531-0.0136719-0.1455078-1.2578125-0.5322266-2.1513672c-0.4130859,0.6230469-1.3300781,1.8320313-2.4931641,2.3378906
			L37.5478516,43.96875l-0.1064453-0.0576172c-0.3037109-0.1630859-1.8173828-1.0175781-1.8369141-1.8330078l1.0703125-31.7768555
			l0.3613281,0.2119141c0.0761719,0.0444336,7.6123047,4.5390625,9.5185547,13.1660156
			c1.375,6.2231445-0.4472656,13.0092773-5.4169922,20.1704102L40.7587891,44.3964844z M37.1455078,11.1757813
			l-1.0410156,30.9052734c0.0087891,0.3544922,0.828125,0.9697266,1.4658203,1.3300781
			c1.3564453-0.6591797,2.3759766-2.4384766,2.3857422-2.4570313l0.2089844-0.3681641l0.2216797,0.3603516
			c0.3710938,0.6025391,0.5859375,1.4970703,0.6962891,2.0976563c4.6152344-6.8466797,6.2919922-13.3212891,4.984375-19.2509766
			C44.4501953,16.4604492,38.6552734,12.1821289,37.1455078,11.1757813z"/>
	</g>
	<g>
		<linearGradient id="SVGID_2_" gradientUnits="userSpaceOnUse" x1="22.7805443" y1="10.7292004" x2="22.7805443" y2="43.7070007">
			<stop  offset="0" style="stop-color:#000000"/>
			<stop  offset="0.131687" style="stop-color:#3E3A39"/>
			<stop  offset="0.251029" style="stop-color:#3E3A39"/>
			<stop  offset="0.740741" style="stop-color:#000000"/>
		</linearGradient>
		<path style="fill:url(#SVGID_2_);" d="M23.0671997,43.7070007c0,0,0.1907997-1.7057991,0.7593994-2.6296997
			c0,0,1.1060009,1.9587975,2.6141014,2.6140976c0,0,1.6882992-0.9083977,1.7047997-1.6190987l-0.2026997-31.3430996
			C27.9428005,10.7292004,7.9511299,21.9230995,23.0671997,43.7070007z"/>
		<path style="fill:#050505;" d="M23.2416992,44.3974609l-0.3798828-0.5478516
			c-4.8828125-7.0361328-6.6401367-13.7163086-5.2231445-19.8544922
			c2.0395508-8.8359375,10.1010742-13.4389648,10.1821289-13.484375l0.3691406-0.206543l0.2055664,31.7661133
			c-0.019043,0.8232422-1.5327148,1.6777344-1.8359375,1.8408203L26.4526367,43.96875l-0.1113281-0.0478516
			c-1.1635742-0.5058594-2.0800781-1.7148438-2.4936523-2.3378906c-0.3876953,0.8935547-0.5302734,2.1376953-0.5317383,2.1513672
			L23.2416992,44.3974609z M23.8359375,40.5859375l0.2084961,0.3681641
			c0.0102539,0.0185547,1.0288086,1.7978516,2.3862305,2.4570313c0.6367188-0.3603516,1.456543-0.9765625,1.4648438-1.3447266
			l-0.199707-30.8935547c-1.5893555,1.0102539-7.8330078,5.3999023-9.5712891,12.9399414
			c-1.3466797,5.8427734,0.265625,12.2094727,4.7919922,18.9311523c0.1108398-0.6005859,0.3261719-1.4951172,0.6972656-2.0976563
			L23.8359375,40.5859375z"/>
	</g>
</g>
<g>
	<g>
		<path style="fill:#FFB743;" d="M39.8610992,47.5803986c-5.2738991-1.5990982-2.6574974-9.3815994-2.6574974-9.3815994
			L32,39.0224991l-5.2035999-0.8237c0,0,2.6163998,7.7825012-2.6574993,9.3815994
			c-5.273901,1.5992012-11.7419004,2.2388-11.7419004,8.9552002l-0.1218004,8.8294983h39.4496002l-0.1217995-8.8294983
			C51.6030006,49.8191986,45.1349983,49.1795998,39.8610992,47.5803986z"/>
		<path style="fill:#E08E0B;" d="M32,41.7122002l-4.6313-0.7331009c0.1061001,0.9799995,0.1135006,2.0903015-0.1252995,3.1374016
			c0.1329002,0.6690979,0.292099,1.2571983,0.4736996,1.5393982C28.2866993,46.5405998,31.2036991,48.4981003,32,48.4981003
			c0.796299,0,3.7132988-1.9575005,4.2829018-2.8422012c0.1815987-0.2821999,0.3407974-0.8703003,0.4736977-1.5393982
			c-0.2388-1.0471001-0.2313995-2.157402-0.1252975-3.1374016L32,41.7122002z"/>
		<path style="fill:#330600;" d="M51.9785156,65.6152344h-39.956543l0.125-9.0839844
			c0-5.9580078,4.9052734-7.2773438,9.6489258-8.5537109c0.7661133-0.2070313,1.5297852-0.4121094,2.2700195-0.6367188
			c1.1411133-0.3457031,1.9814453-1.0283203,2.4975586-2.0292969c1.4111328-2.734375,0.0102539-6.9902344-0.0039063-7.0322266
			l-0.1313477-0.3916016L32,38.7695313l5.5712891-0.8818359l-0.1308594,0.3916016
			c-0.0146484,0.0419922-1.4160156,4.2978516-0.0048828,7.0322266c0.5166016,1.0009766,1.3574219,1.6835938,2.4980469,2.0292969
			c0.7402344,0.2246094,1.5039063,0.4296875,2.2705078,0.6367188c4.7431641,1.2763672,9.6484375,2.5957031,9.6484375,8.5576172
			L51.9785156,65.6152344z M12.5288086,65.1152344h38.9418945l-0.1181641-8.5761719
			c0-5.5820313-4.5068359-6.7949219-9.2783203-8.0791016c-0.7714844-0.2080078-1.5400391-0.4150391-2.2851563-0.640625
			c-1.2763672-0.3867188-2.2177734-1.1533203-2.7978516-2.2792969c-1.2646484-2.4511719-0.4697266-5.8798828-0.1435547-7.03125
			L32,39.2753906l-0.0390625-0.0058594l-4.8095703-0.7607422c0.3261719,1.1513672,1.1210938,4.5800781-0.1425781,7.03125
			c-0.5805664,1.1259766-1.5219727,1.8925781-2.7973633,2.2792969c-0.7456055,0.2255859-1.5146484,0.4326172-2.2856445,0.640625
			c-4.7719727,1.2841797-9.2788086,2.4970703-9.2788086,8.0751953L12.5288086,65.1152344z"/>
	</g>
	<g>
		<g>
			<path style="fill:#E08E0B;" d="M43.4542999,26.8591003c0,0,0.7397995-2.2663002,2.2608986-2.4134007
				c1.5211029-0.1471996,2.4628029,5.3521996-0.4023972,7.7822018c-1.8137016,1.5380974-2.4835014,0.0183983-2.4835014,0.0183983
				L43.4542999,26.8591003z"/>
			<path style="fill:#330600;" d="M43.8535156,33.1660156c-0.8818359,0-1.2382813-0.7856445-1.2529297-0.8188477l-0.0273438-0.0625
				l0.6328125-5.4545898c0.0429688-0.1474609,0.8203125-2.472168,2.484375-2.6333008l0.0839844-0.0039063
				c0.5253906,0,0.984375,0.4609375,1.2919922,1.2983398c0.6289063,1.715332,0.5585938,5.1035156-1.5917969,6.9272461
				C44.8896484,32.9145508,44.34375,33.1660156,43.8535156,33.1660156z M43.0859375,32.1987305
				c0.078125,0.1333008,0.3173828,0.4672852,0.7675781,0.4672852c0.3691406,0,0.8056641-0.2114258,1.296875-0.6289063
				c1.9697266-1.6699219,2.0273438-4.7905273,1.4462891-6.3740234c-0.2226563-0.6074219-0.5302734-0.9702148-0.8222656-0.9702148
				c-1.3779297,0.1313477-2.0761719,2.2226563-2.0830078,2.2436523L43.0859375,32.1987305z"/>
		</g>
		<g>
			<path style="fill:#E08E0B;" d="M20.6714001,26.8591003c0,0-0.7397003-2.2663002-2.2607994-2.4134007
				c-1.5212002-0.1471996-2.462801,5.3521996,0.4023991,7.7822018c1.8136005,1.5380974,2.4834995,0.0183983,2.4834995,0.0183983
				L20.6714001,26.8591003z"/>
			<path style="fill:#330600;" d="M20.2714844,33.1660156L20.2714844,33.1660156
				c-0.4902344,0-1.0351563-0.2514648-1.6201172-0.7470703c-2.1508789-1.8242188-2.2211914-5.2124023-1.5917969-6.9277344
				c0.3071289-0.8374023,0.765625-1.2983398,1.2910156-1.2983398l0.0839844,0.0039063
				c1.6650391,0.1611328,2.4423828,2.4858398,2.4746094,2.5844727l0.6435547,5.503418l-0.0273438,0.0625
				C21.5102539,32.3803711,21.1538086,33.1660156,20.2714844,33.1660156z M18.3842773,24.6948242
				c-0.3266602,0-0.6328125,0.3623047-0.8554688,0.9682617c-0.5810547,1.5834961-0.5234375,4.7041016,1.4458008,6.3745117
				c0.4921875,0.4169922,0.9282227,0.628418,1.296875,0.628418c0.4511719,0,0.6904297-0.3339844,0.7675781-0.4672852
				l-0.6162109-5.3110352v0.0004883c-0.0053711,0-0.7060547-2.0649414-2.0361328-2.1933594
				C18.3857422,24.6948242,18.3852539,24.6948242,18.3842773,24.6948242z"/>
		</g>
		<g>
			<path style="fill:#E08E0B;" d="M43.2196007,9.0474901C40.1725006,7.0346198,37.580101,6.3043299,32,6.3043299
				s-8.1725006,0.7302899-11.2196007,2.7431602c-3.730999,2.4648094-2.6666985,13.3244104-0.655899,22.0618095
				C22.1355,39.8466988,30.0956993,42.4339981,32,42.4339981s9.8644981-2.5872993,11.8754997-11.3246975
				C45.8862991,22.3719006,46.9505997,11.5122995,43.2196007,9.0474901z"/>
			<path style="fill:#330600;" d="M32,42.6835938c-2.0878906,0-10.1025391-2.7587891-12.1191406-11.5180664
				c-2.1074219-9.1577148-3.0141602-19.8325195,0.7617188-22.3266602C23.8339844,6.730957,26.59375,6.0541992,32,6.0541992
				s8.1660156,0.6767578,11.3574219,2.784668c3.7763672,2.4946289,2.8701172,13.1689453,0.7617188,22.3266602
				C42.1025391,39.9248047,34.0878906,42.6835938,32,42.6835938z M32,6.5541992
				c-5.3579102,0-7.9472656,0.6313477-11.0820313,2.7016602c-3.565918,2.355957-2.5249023,13.2148438-0.5498047,21.7973633
				C22.3164063,39.5175781,30,42.1835938,32,42.1835938s9.6835938-2.6660156,11.6328125-11.1303711
				c1.9746094-8.5825195,3.015625-19.440918-0.5507813-21.7973633C39.9472656,7.1855469,37.3583984,6.5541992,32,6.5541992z"/>
		</g>
		<g>
			<path style="fill:#FFB743;" d="M40.9614983,17.2679005c-1.5339966,3.1450005-4.9312973,7.7601986-7.7820969,9.3431988
				L29.2350006,28.8013l3.1344986-3.2457008c0.0188026-0.0196991,1.1679993-1.2196999,2.5330009-3.1595001
				c-2.8302994,2.3706017-5.5345001,3.7680016-5.6998997,3.8529015l-1.4083996,0.719799l0.4587994-1.5138988
				c0.9167004-3.0234013,2.0601997-5.9078999,3.4064007-8.5981007c-0.6138,0.2280998-1.2197018,0.4465008-1.8151016,0.6606007
				c-4.2129993,1.5177994-9.0382996,4.9517994-9.1079998,6.7402c0.276701,2.2721996,0.6513996,4.5734997,1.080101,6.7454987
				C23.5408001,39.7405014,30.6177006,41.5495987,32,41.5495987c1.3823013,0,8.4592018-1.8090973,10.1836014-10.5464993
				c0.4451981-2.2552986,0.8339005-4.6509991,1.1139984-7.0081997C42.9071999,22.0076008,42.1278,19.7555008,40.9614983,17.2679005z
				 M32,34.4793015c-0.4780998,0-1.2238007-0.2042999-1.2238007-0.4659004c0-0.3432999,1.0111008-0.8702011,1.2238007-0.8702011
				s1.2238007,0.5269012,1.2238007,0.8702011C33.2238007,34.2750015,32.4780998,34.4793015,32,34.4793015z"/>
			<linearGradient id="SVGID_3_" gradientUnits="userSpaceOnUse" x1="31.4257813" y1="33.5178986" x2="31.4257813" y2="28.5382004">
				<stop  offset="0" style="stop-color:#FFFFFF;stop-opacity:0"/>
				<stop  offset="0.4" style="stop-color:#FFFFFF;stop-opacity:0.2"/>
				<stop  offset="0.6" style="stop-color:#FFFFFF;stop-opacity:0.2"/>
				<stop  offset="1" style="stop-color:#FFFFFF;stop-opacity:0"/>
			</linearGradient>
			<path style="fill:url(#SVGID_3_);" d="M32.1651993,31.0280991c0,1.3750992-0.8836994,2.4897995-1.2793999,2.4897995
				c-0.3956985,0-0.1169987-1.5447979,0.1023006-2.8787994c0.2047997-1.2449989,0.3719997-2.1008987,0.7677002-2.1008987
				S32.1651993,29.6529999,32.1651993,31.0280991z"/>
		</g>
	</g>
</g>
<g>
	<g>
		<linearGradient id="SVGID_4_" gradientUnits="userSpaceOnUse" x1="32" y1="2.3388829" x2="32" y2="45.1283989">
			<stop  offset="0" style="stop-color:#000000"/>
			<stop  offset="0.131687" style="stop-color:#3E3A39"/>
			<stop  offset="0.251029" style="stop-color:#3E3A39"/>
			<stop  offset="0.740741" style="stop-color:#000000"/>
		</linearGradient>
		<path style="fill:url(#SVGID_4_);" d="M50.7631989,31.4824009c-0.4768982-5.2465-1.1385994-10.7817001-2.1938972-15.2196007
			C47.0069008,7.57125,42.0163002,5.0633302,38.6495018,4.3833899c-1.1285019-1.33303-2.769001-2.4549799-4.9438019-1.89867
			c-1.5446014,0.3951499-4.0538006,0.6488199-6.7012005,1.6812799c-3.0725994,0.1866202-9.7073994,1.81007-11.5653992,12.0606003
			c-1.0602999,4.4440002-1.7241001,9.9953003-2.2023001,15.2558002c-0.9595003,10.5543995,3.4115,13.645998,3.4115,13.645998
			c-0.4503002-2.0433006-0.9062004-4.2644005-0.582901-6.7098999c0.9943008,5.5377007,2.2886009,6.7098999,2.2886009,6.7098999
			s-0.646801-2.4783974-1.0323009-6.3488998c1.743,4.7853012,3.6277008,4.6965027,3.6277008,4.6965027
			s-0.2859993-0.3507004-0.665699-1.2870026c1.2123985,1.4669991,2.8002987,2.5497017,4.8932991,2.9393997
			c0,0-6.0484009-6.3102989-6.7518005-18.2085991c0.0450001-1.0909004,0.1722012-2.1292,0.3707008-3.1177998
			c0.2421989,0.6014004,0.4109993,0.9517994,0.4109993,0.9517994c0.7462997-6.3022003,7.0361996-7.3437996,13.7445011-10.0089998
			c0.0478973-0.0190001,0.0876007-0.0422993,0.1348-0.0615997c-1.4782009,2.7034998-2.9689999,6.0453005-4.1896,10.0705996
			c0,0,5.8631001-2.9963989,9.3558979-7.6971989C36.1010017,21.7686996,32.8529015,25.1264,32.8529015,25.1264
			c3.1448975-1.7462997,6.9861984-7.3887005,8.0143967-10.2316999c0.1097031,0.1271,0.2127037,0.2630997,0.3199005,0.3935003
			c1.4029007,2.8544998,2.6055031,5.9895,2.966301,8.8624992c0,0,0.1379013-1.5548992,0.080101-3.7544994
			c0.7865982,1.9769001,1.2600975,4.2168999,1.3330994,6.723299c-0.7575989,11.7717018-6.7436981,18.0088997-6.7436981,18.0088997
			c2.0929985-0.389698,3.6808968-1.4724007,4.8932991-2.9393997c-0.3796997,0.9363022-0.6657028,1.2870026-0.6657028,1.2870026
			s2.0268021,0.1598969,3.6278-4.6968002c-0.385498,3.8708-1.0323982,6.3491974-1.0323982,6.3491974
			s1.2943001-1.1721992,2.2886009-6.7098999c0.3765984,2.3389015-0.1326027,4.6665993-0.582901,6.7098999
			C47.3516998,45.1283989,51.7226982,42.0368004,50.7631989,31.4824009z"/>
		<path style="fill:#050505;" d="M45.1933594,45.8759766l0.2109375-0.8115234
			c0.0058594-0.0195313,0.4384766-1.6972656,0.8027344-4.4033203c-1.3662109,2.8955078-2.8164063,3.0654297-3.1337891,3.0654297
			h-0.5195313l0.0644531-0.0878906c-1.0917969,0.8925781-2.3466797,1.4736328-3.7490234,1.7353516l-0.7636719,0.1416016
			l0.5371094-0.5605469c0.0595703-0.0625,5.9326172-6.3164063,6.6748047-17.8515625
			c-0.0537109-1.8227539-0.3300781-3.5693359-0.8222656-5.199707c-0.0146484,1.3671875-0.0917969,2.2573242-0.0927734,2.269043
			l-0.2060547,2.3286133l-0.2910156-2.3193359c-0.3125-2.4902344-1.3017578-5.4458008-2.9423828-8.7836914l-0.015625-0.0185547
			c-1.2480469,3.0336914-4.9326172,8.2768555-7.9726563,9.965332l-1.46875,0.8154297l1.1674805-1.2080078
			c0.0273438-0.0283203,2.3706055-2.4726563,4.3666992-6.0576172c-3.4638672,3.722168-7.9780273,6.0551758-8.0297852,6.081543
			l-0.5239258,0.2675781l0.1708984-0.5629883c1.0214844-3.3686523,2.3256836-6.5629883,3.8803711-9.5058594
			c-0.9624023,0.3730469-1.9130859,0.715332-2.8374023,1.0483398c-5.387207,1.940918-9.6430664,3.4741211-10.2451172,8.5595703
			l-0.1005859,0.8520508l-0.3725586-0.7729492c0,0-0.0317383-0.0654297-0.0874023-0.1884766
			c-0.1142578,0.7373047-0.1879883,1.4931641-0.2192383,2.2563477c0.6884766,11.6342773,6.6220703,17.9624023,6.6821289,18.0249023
			l0.5361328,0.5605469l-0.7626953-0.1416016c-1.3798828-0.2568359-2.6181641-0.8251953-3.6982422-1.6933594l0.0166016,0.0205078
			l-0.4882813,0.0244141c0,0-0.0004883,0-0.0009766,0c-0.2050781,0-1.6782227-0.1074219-3.1875-3.2236328
			c0.3681641,2.7988281,0.8178711,4.5419922,0.8232422,4.5625l0.2119141,0.8115234l-0.621582-0.5625
			c-0.0483398-0.0439453-1.0585938-1-1.9785156-4.9541016c0.0283203,1.5800781,0.328125,3.0957031,0.6850586,4.7148438
			l0.1391602,0.6308594l-0.527832-0.3730469c-0.1831055-0.1298828-4.4775391-3.2958984-3.5161133-13.8720703
			c0.6044922-6.6513672,1.3061523-11.5102539,2.2080078-15.2915039C17.0947266,5.6889648,24.0166016,4.1069336,26.9501953,3.9189453
			c1.8544922-0.71875,3.6333008-1.0600586,5.0649414-1.3344727c0.6269531-0.1201172,1.1694336-0.2241211,1.6293945-0.3417969
			c1.8837891-0.4814453,3.6386719,0.1738281,5.1396484,1.9130859c3.0917969,0.6489258,8.4169922,3.0839844,10.03125,12.0625
			c0.8935547,3.7573242,1.5927734,8.6044922,2.1972656,15.2416992c0.9609375,10.5761719-3.3339844,13.7421875-3.5166016,13.8720703
			L46.96875,45.7050781l0.1386719-0.6308594c0.3291016-1.4931641,0.6904297-3.1318359,0.7080078-4.8134766
			c-0.9257813,4.0371094-1.9521484,5.0078125-2.0009766,5.0527344L45.1933594,45.8759766z M19.4399414,40.7763672
			l1.0366211,1.2539063c1.1074219,1.3398438,2.456543,2.2392578,4.0180664,2.6816406
			c-1.4765625-1.8408203-5.7382813-7.953125-6.3188477-17.7773438c0.0439453-1.1015625,0.1704102-2.1635742,0.375-3.1821289
			l0.1645508-0.8198242l0.3125,0.7758789c0.0239258,0.059082,0.046875,0.1162109,0.0693359,0.1704102
			c1.0019531-4.7275391,5.3925781-6.3095703,10.4335938-8.1259766c1.081543-0.3896484,2.199707-0.7924805,3.328125-1.2407227
			l0.7875977-0.3334961l-0.3408203,0.6245117c-1.5917969,2.9106445-2.9316406,6.0820313-3.9882813,9.4355469
			c1.519043-0.8598633,5.9287109-3.5556641,8.7353516-7.3310547l1.4101563-1.8989258l-0.9824219,2.1518555
			c-1.2421875,2.7197266-2.8623047,5.0078125-4.0117188,6.4584961c2.6191406-2.3662109,5.3339844-6.5166016,6.1630859-8.8095703
			l0.1455078-0.402832l0.2792969,0.3251953c0.0683594,0.0791016,0.1337891,0.1611328,0.2001953,0.2436523l0.1240234,0.1533203
			c1.2392578,2.512207,2.1103516,4.7949219,2.6132813,6.8359375c0.0058594-0.4677734,0.0039063-0.9941406-0.0107422-1.5625
			L43.9462891,19l0.5195313,1.3037109c0.8251953,2.0737305,1.2802734,4.3647461,1.3505859,6.8085938
			c-0.625,9.7275391-4.8427734,15.7714844-6.3105469,17.5996094c1.5615234-0.4423828,2.9101563-1.3417969,4.0175781-2.6816406
			l1.0332031-1.2509766l-0.609375,1.5039063C43.8125,42.6171875,43.6875,42.8798828,43.5820313,43.0820313
			c0.6601563-0.3115234,1.8408203-1.2929688,2.859375-4.3808594l0.7109375-2.1572266l-0.2246094,2.2597656
			c-0.2060547,2.0673828-0.4892578,3.7509766-0.7080078,4.8691406c0.4326172-0.9716797,0.9873047-2.6152344,1.46875-5.2978516
			l0.2597656-1.4443359l0.2333984,1.4482422c0.3359375,2.0878906-0.0126953,4.1357422-0.4101563,5.9951172
			c1.1220703-1.2744141,3.4628906-4.9453125,2.7431641-12.8691406c-0.6015625-6.6123047-1.296875-11.4375-2.1884766-15.1845703
			C46.8251953,7.9750977,42.2089844,5.3574219,38.5996094,4.628418l-0.0849609-0.0170898l-0.0556641-0.0664063
			c-1.3876953-1.6396484-2.9716797-2.2592773-4.6914063-1.8178711c-0.4746094,0.121582-1.0229492,0.2265625-1.6586914,0.3486328
			c-1.4204102,0.2724609-3.1884766,0.6113281-5.0136719,1.3232422l-0.0756836,0.0166016
			c-2.7924805,0.1694336-9.4873047,1.6640625-11.3344727,11.8554688c-0.8994141,3.7709961-1.597168,8.6074219-2.1992188,15.2338867
			c-0.7207031,7.9296875,1.6240234,11.6005859,2.7451172,12.8730469c-0.4174805-1.9980469-0.6918945-3.8828125-0.4135742-5.9921875
			l0.2104492-1.5908203L16.3115234,38.375c0.4814453,2.6816406,1.0356445,4.3251953,1.46875,5.2978516
			c-0.21875-1.1181641-0.5014648-2.8017578-0.7070313-4.8691406l-0.1972656-1.9785156l0.6806641,1.8681641
			c1.0727539,2.9443359,2.1899414,3.9765625,2.8349609,4.3378906c-0.0996094-0.1943359-0.215332-0.4414063-0.3393555-0.7480469
			L19.4399414,40.7763672z"/>
	</g>
	<linearGradient id="SVGID_5_" gradientUnits="userSpaceOnUse" x1="44.7966805" y1="6.7490902" x2="44.7966805" y2="16.4860992">
		<stop  offset="0" style="stop-color:#FFFFFF;stop-opacity:0.6"/>
		<stop  offset="1" style="stop-color:#FFFFFF;stop-opacity:0"/>
	</linearGradient>
	<path style="fill:url(#SVGID_5_);" d="M41.9595985,6.7490902c0,0,4.2550011,2.0611095,5.676403,9.737009
		C47.6360016,16.4860992,41.8269005,9.7341499,41.9595985,6.7490902z"/>
	
		<linearGradient id="SVGID_6_" gradientUnits="userSpaceOnUse" x1="38.5007057" y1="6.2467818" x2="38.5007057" y2="15.7983179" gradientTransform="matrix(0.9994 0.0332 -0.0332 0.9994 -1.1817069 -0.8298)">
		<stop  offset="0" style="stop-color:#FFFFFF;stop-opacity:0.6"/>
		<stop  offset="1" style="stop-color:#FFFFFF;stop-opacity:0"/>
	</linearGradient>
	<path style="fill:url(#SVGID_6_);" d="M40.296299,6.7980199c0,0-2.1515007,6.2846799-6.7327003,9.3326797
		C33.5635986,16.1306992,36.229599,7.8719602,40.296299,6.7980199z"/>
	<linearGradient id="SVGID_7_" gradientUnits="userSpaceOnUse" x1="29.0872993" y1="5.9011202" x2="29.0872993" y2="14.5778999">
		<stop  offset="0" style="stop-color:#FFFFFF;stop-opacity:0.6"/>
		<stop  offset="1" style="stop-color:#FFFFFF;stop-opacity:0"/>
	</linearGradient>
	<path style="fill:url(#SVGID_7_);" d="M34.9892998,5.9011202c0,0-5.036499,1.0619698-6.2516003,2.48561
		c-1.2150993,1.4236403-5.5523987,6.1911697-5.5523987,6.1911697S33.5428009,9.8103704,34.9892998,5.9011202z"/>
	<linearGradient id="SVGID_8_" gradientUnits="userSpaceOnUse" x1="19.3210506" y1="6.8628201" x2="19.3210506" y2="16.8749008">
		<stop  offset="0" style="stop-color:#FFFFFF;stop-opacity:0.6"/>
		<stop  offset="1" style="stop-color:#FFFFFF;stop-opacity:0"/>
	</linearGradient>
	<path style="fill:url(#SVGID_8_);" d="M22.3323002,6.8628201c0,0-4.9932995,2.5106902-6.022501,10.0120811
		C16.3097992,16.8749008,22.1541996,10.4720001,22.3323002,6.8628201z"/>
	<linearGradient id="SVGID_9_" gradientUnits="userSpaceOnUse" x1="49.0488205" y1="19.5352993" x2="49.0488205" y2="38.1987991">
		<stop  offset="0" style="stop-color:#FFFFFF;stop-opacity:0.2"/>
		<stop  offset="1" style="stop-color:#FFFFFF;stop-opacity:0"/>
	</linearGradient>
	<path style="fill:url(#SVGID_9_);" d="M49.3339005,38.1987991c0,0,2.0173988-5.3348007-1.1954002-18.6634998
		C48.1385002,19.5352993,48.9603996,37.1082001,49.3339005,38.1987991z"/>
	<linearGradient id="SVGID_10_" gradientUnits="userSpaceOnUse" x1="44.3416939" y1="30.3236008" x2="44.3416939" y2="41.7551003">
		<stop  offset="0" style="stop-color:#FFFFFF;stop-opacity:0.2"/>
		<stop  offset="1" style="stop-color:#FFFFFF;stop-opacity:0"/>
	</linearGradient>
	<path style="fill:url(#SVGID_10_);" d="M46.1949997,30.3236008c0,0,1.4410019,8.2933998-3.8843002,11.4314995
		C42.3106995,41.7551003,45.7033997,37.0480003,46.1949997,30.3236008z"/>
	
		<linearGradient id="SVGID_11_" gradientUnits="userSpaceOnUse" x1="49.0488205" y1="19.5352993" x2="49.0488205" y2="38.1987991" gradientTransform="matrix(-1 0 0 1 64 0)">
		<stop  offset="0" style="stop-color:#FFFFFF;stop-opacity:0.2"/>
		<stop  offset="1" style="stop-color:#FFFFFF;stop-opacity:0"/>
	</linearGradient>
	<path style="fill:url(#SVGID_11_);" d="M14.6660995,38.1987991c0,0-2.0173998-5.3348007,1.1954002-18.6634998
		C15.8614998,19.5352993,15.0396004,37.1082001,14.6660995,38.1987991z"/>
	
		<linearGradient id="SVGID_12_" gradientUnits="userSpaceOnUse" x1="44.3416939" y1="30.3236008" x2="44.3416939" y2="41.7551003" gradientTransform="matrix(-1 0 0 1 64 0)">
		<stop  offset="0" style="stop-color:#FFFFFF;stop-opacity:0.2"/>
		<stop  offset="1" style="stop-color:#FFFFFF;stop-opacity:0"/>
	</linearGradient>
	<path style="fill:url(#SVGID_12_);" d="M17.8050003,30.3236008c0,0-1.441,8.2933998,3.8843002,11.4314995
		C21.6893005,41.7551003,18.2966003,37.0480003,17.8050003,30.3236008z"/>
</g>
<g>
	<path style="fill:#050505;" d="M29.3859997,20.9864998c0,0-0.4709988-0.3094997-1.1973-0.6334991
		c-0.3589993-0.1689014-0.7947998-0.3140011-1.2551003-0.4379005c-0.2350998-0.0510006-0.4745998-0.1012001-0.7227001-0.1245995
		c-0.2447987-0.0498009-0.4995003-0.021101-0.7509003-0.0370007c-0.5056,0.0130005-1.0087986,0.1026001-1.4817982,0.2234993
		c-0.2279015,0.081501-0.460701,0.1407013-0.6797009,0.2075005c-0.2049999,0.092701-0.4092007,0.1693001-0.5976009,0.2445011
		C22.3120003,20.5632,22.0291004,20.7458,21.7966995,20.8341999c-0.2297001,0.0969009-0.360899,0.1522999-0.360899,0.1522999
		s0.0823994-0.1014004,0.2402-0.2735004c0.1690998-0.1602001,0.3711987-0.4365997,0.7229996-0.6672993
		c0.1700001-0.1212006,0.3533993-0.2584,0.5597-0.3899002c0.2234001-0.1086998,0.4570999-0.2346001,0.7119007-0.3446999
		c0.2572994-0.1047001,0.5472984-0.1779995,0.8352985-0.2630997c0.2991009-0.0503006,0.6112003-0.0953999,0.9232998-0.1137009
		c0.3150005,0.0048008,0.6323013,0.0037003,0.9343014,0.0673008c0.3092003,0.033699,0.5921993,0.1317005,0.8627987,0.2231007
		c0.5311012,0.2013988,0.9791012,0.4621983,1.2952003,0.7381992C29.1809998,20.4946995,29.3859997,20.9864998,29.3859997,20.9864998
		z"/>
	<path style="fill:#050505;" d="M34.6139984,20.9864998c0,0,0.4710007-0.3094997,1.1973-0.6334991
		c0.3590012-0.1689014,0.7947998-0.3140011,1.2551003-0.4379005c0.2350998-0.0510006,0.4746017-0.1012001,0.722702-0.1245995
		c0.2448006-0.0498009,0.4995003-0.021101,0.7509003-0.0370007c0.5056,0.0130005,1.0088005,0.1026001,1.4818001,0.2234993
		c0.2278976,0.081501,0.4606972,0.1407013,0.6796989,0.2075005c0.2050018,0.092701,0.4091988,0.1693001,0.597599,0.2445011
		c0.3889008,0.1341991,0.6718025,0.3167992,0.9042015,0.4051991c0.2296982,0.0969009,0.3609009,0.1522999,0.3609009,0.1522999
		s-0.0824013-0.1014004-0.2402-0.2735004c-0.1691017-0.1602001-0.3712006-0.4365997-0.7229996-0.6672993
		c-0.170002-0.1212006-0.3534012-0.2584-0.5597-0.3899002c-0.2234001-0.1086998-0.4570999-0.2346001-0.7119026-0.3446999
		c-0.2572975-0.1047001-0.5472984-0.1779995-0.8353004-0.2630997c-0.299099-0.0503006-0.6111984-0.0953999-0.9232979-0.1137009
		c-0.3150024,0.0048008-0.6323013,0.0037003-0.9342995,0.0673008c-0.3092003,0.033699-0.5922012,0.1317005-0.8628006,0.2231007
		c-0.5311012,0.2013988-0.9790993,0.4621983-1.2952003,0.7381992
		C34.8190002,20.4946995,34.6139984,20.9864998,34.6139984,20.9864998z"/>
</g>
<path style="fill:#330600;" d="M32,36.9600983c-2.3428993,0-3.6023006,0.703701-3.6023006,0.703701
	S28.6464005,36.2563019,32,36.2563019s3.6022987,1.4074974,3.6022987,1.4074974S34.3428993,36.9600983,32,36.9600983z"/>
<g>
	<g>
		<path style="fill:#FFFFFF;" d="M40.2489014,24.8001995c-0.2168007-0.0748997-2.8776016,0.0114002-3.1063004,0.092001
			c-1.3473015,0.4744987-1.9277992,0.9223003-1.9277992,1.6973c0,0.7021999,0.3798981,1.0662994,1.1928978,1.348299
			c0.5539017,0.1921997,0.6845016,0.2338009,1.1064987,0.2496014c0.177803,0.0066986,0.4021034,0.0093994,0.7399025,0.0158997
			c0.2367973,0.0045986,0.5014,0.0074997,0.7817993-0.0095005c1.1589012-0.0706005,2.8235016-0.3031998,3.5340996-1.7665005
			C42.5699997,26.4272995,41.8970985,25.3691006,40.2489014,24.8001995z"/>
		<g>
			<g>
				
					<linearGradient id="SVGID_13_" gradientUnits="userSpaceOnUse" x1="38.4220085" y1="28.2067795" x2="38.4220085" y2="24.7717609">
					<stop  offset="0" style="stop-color:#1E1E57"/>
					<stop  offset="0.452675" style="stop-color:#070714"/>
				</linearGradient>
				<path style="fill:url(#SVGID_13_);" d="M37.142601,24.8922005c-0.0592995,0.0207996-0.1091003,0.0415993-0.1655006,0.0625
					c-0.267601,0.3711987-0.4634018,0.8237-0.5429993,1.3202c-0.1026993,0.6392994-0.0023003,1.2574997,0.2697983,1.7633991
					c0.3193016,0.1051006,0.478302,0.1366005,0.8102989,0.1491013c0.177803,0.0067997,0.4021034,0.0092983,0.7400017,0.0157986
					c0.2366982,0.0046005,0.5013008,0.0076008,0.7817001-0.0094986c0.2400017-0.0146008,0.5040016-0.0401001,0.7743988-0.078001
					c0.2952995-0.3836994,0.5144997-0.8596992,0.5993996-1.3885002c0.1200027-0.7474995-0.0394974-1.4422989-0.3787003-1.9489002
					C39.3445015,24.7492008,37.3400002,24.8225994,37.142601,24.8922005z"/>
				<g>
					<path style="fill:#050505;" d="M39.7468987,24.7721996c0.0446014,0.0576,0.0918007,0.1112003,0.1314011,0.1765995
						c0.2944984,0.4869003,0.3997993,1.1090012,0.2966003,1.7517014c-0.0915985,0.5709991-0.3423004,1.0789986-0.6773987,1.4562988
						c0.1969986-0.0200996,0.402298-0.0514984,0.6092987-0.0900993c0.2579002-0.3763008,0.4576988-0.8148994,0.5377007-1.3127995
						c0.1163979-0.7252998-0.0228996-1.400301-0.3291016-1.9266014c-0.0234985-0.0084991-0.0425987-0.0188999-0.0666008-0.0270996
						C40.1976013,24.7824993,40.007,24.7740002,39.7468987,24.7721996z"/>
					<path style="fill:#050505;" d="M36.9653015,28.0531998c-0.2945023-0.4869003-0.3999023-1.1089993-0.2966003-1.7516994
						c0.0904007-0.5629997,0.3360977-1.0639,0.6641006-1.4395008c-0.0951004,0.009901-0.161602,0.0200996-0.1902008,0.030201
						c-0.1874008,0.0658989-0.3565025,0.1315994-0.514801,0.1975002c-0.2052994,0.3414993-0.3596992,0.7294998-0.4286003,1.1583996
						c-0.0988998,0.6152-0.016201,1.1977997,0.1955986,1.684c0.0049019,0.0016994,0.0080032,0.0039005,0.0129013,0.0056
						c0.2845993,0.0988007,0.4574013,0.1569996,0.6154022,0.1931992
						C37.0047989,28.1035995,36.9827003,28.0820007,36.9653015,28.0531998z"/>
				</g>
			</g>
			<path style="fill:#050505;" d="M37.5792007,26.3824997c-0.0909004,0.6998997,0.2126007,1.3204002,0.6779976,1.3857994
				c0.4653015,0.0655003,0.9163017-0.4487991,1.0072021-1.1486988s-0.2126007-1.3204002-0.6780014-1.3859005
				C38.1211014,25.1683006,37.6702003,25.6826,37.5792007,26.3824997z"/>
		</g>
		<linearGradient id="SVGID_14_" gradientUnits="userSpaceOnUse" x1="36.5881004" y1="26.2791996" x2="36.5881004" y2="24.8922005">
			<stop  offset="0" style="stop-color:#FFFFFF;stop-opacity:0.5"/>
			<stop  offset="0.7" style="stop-color:#FFFFFF"/>
		</linearGradient>
		<ellipse style="fill:url(#SVGID_14_);" cx="36.5881004" cy="25.5856991" rx="0.6383" ry="0.6935"/>
		<g>
			<g>
				<path style="fill:#050505;" d="M41.9595985,27.2180996c0.1920013-0.2369995,0.5040016-0.6086998,0.5040016-0.7908001
					c0,0-0.1980019-0.5834999-1.6198006-1.1991997c-0.4664993-0.2019997-1.2040977-0.3358994-1.8214989-0.3358994
					c-0.3246002,0-0.6956024,0.0417995-1.1668015,0.1315002c-1.4006996,0.2665997-2.5545998,0.8351002-2.9388008,1.2701988
					c0.0946007-0.3001003,0.7627029-2.0301991,4.1865005-2.0301991c2.7532005,0,4.3481026,1.7251987,4.4673004,1.8486996
					C43.5704994,26.1124001,42.3106995,27.0625,41.9595985,27.2180996z"/>
			</g>
			<path style="fill:#050505;" d="M34.9166985,25.4169006c0,0,2.9794006-3.135601,8.2773018-0.3828011
				C43.1940002,25.0340996,38.4217987,23.5625,34.9166985,25.4169006z"/>
			<polygon style="fill:#050505;" points="43.1940002,26.6826 42.8292999,26.3215008 41.9595985,27.2180996 			"/>
		</g>
	</g>
	<g>
		<path style="fill:#FFFFFF;" d="M23.7511005,24.8001995c0.2167988-0.0748997,2.8775997,0.0114002,3.1063004,0.092001
			c1.3472996,0.4744987,1.9277992,0.9223003,1.9277992,1.6973c0,0.7021999-0.3799,1.0662994-1.1928997,1.348299
			c-0.5538998,0.1921997-0.6844997,0.2338009-1.1065006,0.2496014c-0.1777992,0.0066986-0.4020996,0.0093994-0.7399006,0.0158997
			c-0.2367992,0.0045986-0.5014,0.0074997-0.7817993-0.0095005c-1.1588993-0.0706005-2.8234997-0.3031998-3.5340996-1.7665005
			C21.4300003,26.4272995,22.1028996,25.3691006,23.7511005,24.8001995z"/>
		<g>
			<g>
				
					<linearGradient id="SVGID_15_" gradientUnits="userSpaceOnUse" x1="38.4220085" y1="28.2067795" x2="38.4220085" y2="24.7717609" gradientTransform="matrix(-1 0 0 1 64 0)">
					<stop  offset="0" style="stop-color:#1E1E57"/>
					<stop  offset="0.452675" style="stop-color:#070714"/>
				</linearGradient>
				<path style="fill:url(#SVGID_15_);" d="M26.8574009,24.8922005c0.0592995,0.0207996,0.1090984,0.0415993,0.1654987,0.0625
					c0.267601,0.3711987,0.4633999,0.8237,0.5430012,1.3202c0.1026993,0.6392994,0.0022984,1.2574997-0.2698002,1.7633991
					c-0.3192997,0.1051006-0.4783001,0.1366005-0.8103008,0.1491013c-0.1777992,0.0067997-0.4020996,0.0092983-0.7399998,0.0157986
					c-0.2367001,0.0046005-0.5013008,0.0076008-0.7817001-0.0094986c-0.2399998-0.0146008-0.5039997-0.0401001-0.7744007-0.078001
					c-0.2952995-0.3836994-0.5144997-0.8596992-0.5993996-1.3885002c-0.1199989-0.7474995,0.0395012-1.4422989,0.3787003-1.9489002
					C24.6555004,24.7492008,26.6599998,24.8225994,26.8574009,24.8922005z"/>
				<g>
					<path style="fill:#050505;" d="M24.2530994,24.7721996c-0.0445995,0.0576-0.0917988,0.1112003-0.1313992,0.1765995
						c-0.2945004,0.4869003-0.3997993,1.1090012-0.2966003,1.7517014c0.0916004,0.5709991,0.3423004,1.0789986,0.6774006,1.4562988
						C24.3055,28.1366997,24.1002007,28.1053009,23.8931999,28.0667c-0.2579002-0.3763008-0.4577007-0.8148994-0.5377007-1.3127995
						c-0.1163998-0.7252998,0.0229015-1.400301,0.3291016-1.9266014c0.0234985-0.0084991,0.0425987-0.0188999,0.0665989-0.0270996
						C23.8024006,24.7824993,23.993,24.7740002,24.2530994,24.7721996z"/>
					<path style="fill:#050505;" d="M27.0347004,28.0531998c0.2945004-0.4869003,0.3999004-1.1089993,0.2966003-1.7516994
						c-0.0904007-0.5629997-0.3361015-1.0639-0.6641006-1.4395008c0.0951004,0.009901,0.1616001,0.0200996,0.1902008,0.030201
						c0.1873989,0.0658989,0.3564987,0.1315994,0.5147991,0.1975002c0.2052994,0.3414993,0.3596992,0.7294998,0.4286003,1.1583996
						c0.0988998,0.6152,0.0161991,1.1977997-0.1956005,1.684c-0.0049,0.0016994-0.0079994,0.0039005-0.0128994,0.0056
						c-0.2846012,0.0988007-0.4574013,0.1569996-0.6154003,0.1931992
						C26.9951992,28.1035995,27.0172997,28.0820007,27.0347004,28.0531998z"/>
				</g>
			</g>
			<path style="fill:#050505;" d="M26.4207993,26.3824997c0.0909004,0.6998997-0.2125988,1.3204002-0.6779995,1.3857994
				c-0.4652996,0.0655003-0.9162998-0.4487991-1.0072002-1.1486988s0.2126007-1.3204002,0.6780014-1.3859005
				C25.8789005,25.1683006,26.3297997,25.6826,26.4207993,26.3824997z"/>
		</g>
		
			<linearGradient id="SVGID_16_" gradientUnits="userSpaceOnUse" x1="38.0486488" y1="26.2791996" x2="38.0486488" y2="24.8922005" gradientTransform="matrix(1 0 0 1 -14.1226997 0)">
			<stop  offset="0" style="stop-color:#FFFFFF;stop-opacity:0.5"/>
			<stop  offset="0.7" style="stop-color:#FFFFFF"/>
		</linearGradient>
		<ellipse style="fill:url(#SVGID_16_);" cx="23.9259491" cy="25.5856991" rx="0.63825" ry="0.6935"/>
		<g>
			<g>
				<path style="fill:#050505;" d="M22.0403996,27.2180996c-0.1919994-0.2369995-0.5039997-0.6086998-0.5039997-0.7908001
					c0,0,0.198-0.5835991,1.6198997-1.1991997c0.4664001-0.2019997,1.2040005-0.3358994,1.8213997-0.3358994
					c0.3246002,0,0.6956005,0.0417995,1.1668015,0.1315002c1.4006996,0.2665997,2.5545998,0.8351002,2.9387989,1.2701988
					c-0.0945988-0.3001003-0.7626991-2.0301991-4.1865005-2.0301991c-2.7531986,0-4.3480988,1.7251987-4.4672985,1.8486996
					C20.4295006,26.1124001,21.6893005,27.0625,22.0403996,27.2180996z"/>
			</g>
			<path style="fill:#050505;" d="M29.0832996,25.4169006c0,0-2.9793987-3.1357002-8.2772999-0.3828011
				C20.8059998,25.0340996,25.5781994,23.5625,29.0832996,25.4169006z"/>
			<polygon style="fill:#050505;" points="20.8059998,26.6826 21.1707001,26.3215008 22.0403996,27.2180996 			"/>
		</g>
	</g>
</g>
<g>
	<g>
		<g>
			<path style="fill:#FFB743;" d="M50.0180016,41.6319008c0,0,4.1852989-4.844902,5.0291977-3.7252998
				C55.891201,39.0262985,53.8736,41.6230011,53.8736,41.6230011L50.0180016,41.6319008z"/>
			<path style="fill:#330600;" d="M49.4697266,41.8828125L49.828125,41.46875
				c0.3525391-0.4082031,3.4785156-3.9804688,4.8574219-3.9804688c0.2353516,0,0.4287109,0.0927734,0.5605469,0.2675781
				c0.9335938,1.2373047-0.9560547,3.7392578-1.1748047,4.0205078l-0.0742188,0.0966797L49.4697266,41.8828125z
				 M54.6855469,37.9882813c-0.7890625,0-2.7988281,1.9345703-4.1123047,3.3925781L53.75,41.3730469
				c0.5595703-0.7519531,1.6689453-2.5585938,1.0976563-3.3164063
				C54.8203125,38.0214844,54.7822266,37.9882813,54.6855469,37.9882813z"/>
		</g>
		<g>
			<path style="fill:#FFB743;" d="M62.7913017,38.9421005c0.8380966,0.9150009-0.1072006,1.6477013-0.863102,2.8839989
				c-1.044899,1.7089996-4.7338982,2.0818024-4.7338982,2.0818024l-3.9326019,0.4546967l-2.5508003,3.4364014L46.7556,44.8479996
				c0,0-0.6507988-3.5974998,2.4794006-4.7262993s7.7609978,0.9934006,7.7609978,0.9934006s1.9262009-0.3036995,2.8492012-0.6985016
				C60.7960014,40.0098991,62.2042007,38.3011017,62.7913017,38.9421005z"/>
			<path style="fill:#330600;" d="M50.7626953,48.1494141l-4.2353516-3.1601563l-0.0175781-0.0966797
				c-0.0068359-0.0380859-0.6503906-3.8183594,2.640625-5.0058594c0.6357422-0.2294922,1.3759766-0.3457031,2.1992188-0.3457031
				c2.5742188,0,5.2089844,1.1074219,5.6796875,1.3154297c0.3564453-0.0595703,1.9326172-0.3339844,2.7167969-0.6689453
				c0.3085938-0.1328125,0.6992188-0.4375,1.0761719-0.7324219c0.5957031-0.4658203,1.1582031-0.9052734,1.640625-0.9052734
				c0.2011719,0,0.3789063,0.0771484,0.5126953,0.2236328c0.7890625,0.8603516,0.2441406,1.6279297-0.3330078,2.4404297
				c-0.1621094,0.2285156-0.3369141,0.4736328-0.5019531,0.7431641c-1.0966797,1.7939453-4.765625,2.1845703-4.9208984,2.2001953
				l-3.8222656,0.4414063L50.7626953,48.1494141z M46.9873047,44.7080078l3.671875,2.7402344l2.4667969-3.3222656
				l4.0400391-0.4658203c0.0390625-0.0039063,3.5810547-0.3818359,4.5488281-1.9648438
				c0.1708984-0.2792969,0.3515625-0.5341797,0.5195313-0.7705078c0.6162109-0.8671875,0.8671875-1.2734375,0.3720703-1.8134766
				c-0.2392578-0.2626953-0.9003906,0.2880859-1.4755859,0.7373047c-0.4033203,0.3154297-0.8193359,0.640625-1.1875,0.7978516
				c-0.9414063,0.4023438-2.828125,0.703125-2.9082031,0.7158203l-0.0742188,0.0117188l-0.0693359-0.03125
				c-0.0283203-0.0136719-2.8730469-1.3017578-5.5419922-1.3017578c-0.7646484,0-1.4482422,0.1064453-2.0292969,0.3164063
				C46.6669922,41.3134766,46.9101563,44.1416016,46.9873047,44.7080078z"/>
		</g>
	</g>
	<g>
		<g>
			<path style="fill:#FFB743;" d="M13.9820004,41.6319008c0,0-4.1853199-4.844902-5.0292501-3.7252998
				C8.1088305,39.0262985,10.1264,41.6230011,10.1264,41.6230011L13.9820004,41.6319008z"/>
			<path style="fill:#330600;" d="M14.5292969,41.8828125l-4.5253906-0.0097656l-0.074707-0.0966797
				c-0.21875-0.28125-2.1083984-2.7832031-1.1762695-4.0205078c0.1318359-0.1748047,0.3261719-0.2675781,0.5610352-0.2675781
				c1.3793945,0,4.5053711,3.5732422,4.8569336,3.9804688L14.5292969,41.8828125z M10.2504883,41.3730469l3.1762695,0.0078125
				c-1.3134766-1.4580078-3.3237305-3.3925781-4.112793-3.3925781c-0.0966797,0-0.1347656,0.0332031-0.1616211,0.0683594
				C8.5805664,38.8154297,9.6904297,40.6220703,10.2504883,41.3730469z"/>
		</g>
		<g>
			<path style="fill:#FFB743;" d="M1.20872,38.9421005c-0.838128,0.9150009,0.10717,1.6477013,0.8631101,2.8839989
				c1.04491,1.7089996,4.7339096,2.0818024,4.7339096,2.0818024l3.9325604,0.4546967l2.5507994,3.4364014L17.2444,44.8479996
				c0,0,0.6508007-3.5974998-2.4793997-4.7262993s-7.7610102,0.9934006-7.7610102,0.9934006
				S5.0777798,40.8114014,4.15485,40.4165993C3.204,40.0098991,1.79581,38.3011017,1.20872,38.9421005z"/>
			<path style="fill:#330600;" d="M13.237793,48.1494141l-2.6357422-3.5507813L6.7768555,44.15625
				C6.625,44.1416016,2.9555664,43.7509766,1.8583984,41.9570313c-0.1650391-0.2705078-0.3393555-0.515625-0.5014648-0.7441406
				c-0.5761719-0.8115234-1.1206055-1.5791016-0.3330078-2.4394531c0.1342773-0.1464844,0.3115234-0.2236328,0.5126953-0.2236328
				c0.4829102,0,1.0454102,0.4394531,1.6411133,0.9052734C3.5546875,39.75,3.9448242,40.0546875,4.253418,40.1875
				c0.7841797,0.3349609,2.3603516,0.609375,2.7167969,0.6689453c0.4716797-0.2080078,3.1064453-1.3154297,5.6801758-1.3154297
				c0.8232422,0,1.5634766,0.1162109,2.199707,0.3457031c3.2905273,1.1875,2.6474609,4.9677734,2.640625,5.0058594
				l-0.0175781,0.0966797L13.237793,48.1494141z M1.5366211,39.0498047c-0.0620117,0-0.1040039,0.0175781-0.1435547,0.0615234
				c-0.4946289,0.5400391-0.2431641,0.9453125,0.371582,1.8125c0.168457,0.2373047,0.3491211,0.4921875,0.5205078,0.7714844
				c0.9677734,1.5830078,4.5102539,1.9609375,4.5458984,1.9638672l4.043457,0.4667969l2.4658203,3.3222656l3.6728516-2.7402344
				c0.0771484-0.5664063,0.3188477-3.3945313-2.3330078-4.3505859c-0.581543-0.2099609-1.2646484-0.3164063-2.0297852-0.3164063
				c-2.671875,0-5.5141602,1.2880859-5.5424805,1.3017578l-0.0683594,0.03125l-0.074707-0.0117188
				c-0.0795898-0.0126953-1.9677734-0.3134766-2.9082031-0.7158203c-0.3686523-0.1572266-0.784668-0.4824219-1.1870117-0.796875
				C2.390625,39.4746094,1.847168,39.0498047,1.5366211,39.0498047z"/>
		</g>
	</g>
</g>
<g>
	<g>
		<g>
			<linearGradient id="SVGID_17_" gradientUnits="userSpaceOnUse" x1="32" y1="47.5213509" x2="32" y2="65.365097">
				<stop  offset="0" style="stop-color:#FF80B9"/>
				<stop  offset="1" style="stop-color:#FF2687"/>
			</linearGradient>
			<path style="fill:url(#SVGID_17_);" d="M52.0998993,56.4868011c0-6.686203-6.5005989-7.3832016-11.8777008-8.9569016
				c-0.0924988-0.0270004-0.1867981,0.0111008-0.2285995,0.0979996C39.5891991,48.4690018,37.3054008,52.6666985,32,52.6666985
				s-7.5891991-4.1976967-7.9936008-5.0387993c-0.0417995-0.0868988-0.1360989-0.125-0.2285995-0.0979996
				c-5.3771,1.5737-11.8776999,2.2706985-11.8776999,8.9569016l-0.125,8.8782959h40.4497986L52.0998993,56.4868011z"/>
			<path style="fill:#A40B5D;" d="M52.4785156,65.6152344H11.5214844l0.128418-9.1328125
				c0-5.9912109,5.0288086-7.3173828,9.8920898-8.6005859c0.7294922-0.1923828,1.4575195-0.3847656,2.1655273-0.5917969
				l0.1293945-0.0185547c0.1704102,0,0.3217773,0.0957031,0.3950195,0.2490234
				C24.625,48.3378906,26.8476563,52.4169922,32,52.4169922s7.375-4.0791016,7.7675781-4.8974609
				c0.0742188-0.1533203,0.2255859-0.2480469,0.3955078-0.2480469l0.1298828,0.0185547
				c0.7080078,0.2070313,1.4355469,0.3994141,2.1650391,0.5917969c4.8632813,1.2832031,9.8916016,2.609375,9.8916016,8.6044922
				L52.4785156,65.6152344z M12.0283203,65.1152344h39.9423828l-0.1210938-8.625c0-5.6142578-4.6240234-6.8339844-9.5185547-8.125
				c-0.7197266-0.1894531-1.4365234-0.3789063-2.1347656-0.5820313C39.7226563,48.7441406,37.3603516,52.9169922,32,52.9169922
				c-5.3623047,0-7.7250977-4.1748047-8.1967773-5.1357422c-0.6914063,0.2041016-1.4116211,0.3935547-2.1337891,0.5839844
				c-4.8955078,1.2919922-9.5195313,2.5117188-9.5195313,8.1210938L12.0283203,65.1152344z"/>
		</g>
		<path style="fill:#A40B5D;" d="M32,54.6669922c-7.5927734,0-9.8598633-6.5566406-9.8818359-6.6230469l0.4746094-0.1582031
			c0.0854492,0.2568359,2.1826172,6.28125,9.4072266,6.28125s9.3212891-6.0244141,9.4072266-6.28125l0.4746094,0.1582031
			C41.859375,48.1103516,39.5927734,54.6669922,32,54.6669922z"/>
	</g>
	<g>
		<g>
			
				<linearGradient id="SVGID_18_" gradientUnits="userSpaceOnUse" x1="56.083271" y1="53.8131332" x2="52.6543274" y2="56.898201" gradientTransform="matrix(0.7456 -0.7049 0.7432 0.7093 -31.8675003 45.4087982)">
				<stop  offset="0" style="stop-color:#FF80B9"/>
				<stop  offset="1" style="stop-color:#FF2687"/>
			</linearGradient>
			<path style="fill:url(#SVGID_18_);" d="M45.6060982,48.4343987c0.1840019-1.0318985,0.5022011-3.2409973,0.8169022-3.560997
				c1.3817978-1.405201,7.031498-0.8061028,7.3191986,0.251297c0.0599022,0.2208023,0.0123024,2.3866005,0.0273018,3.4108009
				L45.6060982,48.4343987z"/>
			<path style="fill:#A40B5D;" d="M54.0234375,48.7880859l-8.7148438-0.1074219l0.1533203-0.8876953
				c0.3154297-1.8779297,0.5126953-2.8203125,0.7822266-3.0947266c0.7695313-0.7822266,2.4873047-0.8994141,3.4433594-0.8994141
				c1.5283203,0,4.0458984,0.3417969,4.2958984,1.2607422c0.0419922,0.15625,0.0439453,0.7441406,0.0361328,2.0458984
				c-0.0029297,0.5273438-0.0048828,1.0527344,0,1.4257813L54.0234375,48.7880859z M45.9023438,48.1884766l7.6152344,0.09375
				c-0.0019531-0.3427734,0-0.7607422,0.0019531-1.1796875c0.0048828-0.7470703,0.0097656-1.7705078-0.0195313-1.9169922
				c-0.0957031-0.3496094-1.6660156-0.8867188-3.8125-0.8867188c-1.4707031,0-2.625,0.2802734-3.0859375,0.7490234
				c-0.2089844,0.2246094-0.5039063,1.9824219-0.6464844,2.8271484L45.9023438,48.1884766z"/>
		</g>
		<g>
			
				<linearGradient id="SVGID_19_" gradientUnits="userSpaceOnUse" x1="55.0966263" y1="55.8490868" x2="31.0856628" y2="77.4520416" gradientTransform="matrix(0.7087 -0.7054 0.7054 0.7087 -29.0261993 45.2333984)">
				<stop  offset="0" style="stop-color:#FF80B9"/>
				<stop  offset="1" style="stop-color:#FF2687"/>
			</linearGradient>
			<path style="fill:url(#SVGID_19_);" d="M42.6097984,69.2724991c0.7980003-4.4508972,1.7680016-20.6952972,3.2993011-22.3344002
				c1.5312004-1.6390991,7.786499-0.9454994,8.1040001,0.2868004c0.3176003,1.232399-0.0704994,20.8879013-0.4439011,23.9836044
				c-0.235199,1.9496994-0.9707985,5.053894-4.676899,6.6875C45.1861992,79.5296021,41.7700996,73.9561005,42.6097984,69.2724991z"
				/>
			<path style="fill:#A40B5D;" d="M47.5605469,78.4375c-1.1650391,0-2.3330078-0.6298828-3.2890625-1.7724609
				c-1.5966797-1.9072266-2.3632813-4.8964844-1.9082031-7.4365234c0.265625-1.4804688,0.5458984-4.234375,0.8710938-7.4228516
				c0.8027344-7.8681641,1.4951172-13.9707031,2.4921875-15.0380859c0.8476563-0.9082031,2.7509766-1.0429688,3.8095703-1.0429688
				c1.8056641,0,4.4628906,0.4453125,4.71875,1.4375c0.3554688,1.375-0.0966797,21.2529297-0.4375,24.0771484
				c-0.1503906,1.2431641-0.6064453,5.0273438-4.8242188,6.8857422C48.5234375,78.3320313,48.0419922,78.4375,47.5605469,78.4375z
				 M49.5361328,46.2246094c-1.6396484,0-2.9267578,0.3300781-3.4443359,0.8847656
				c-0.9609375,1.0283203-1.7695313,8.9580078-2.359375,14.7470703c-0.3261719,3.1992188-0.6083984,5.9609375-0.8769531,7.4599609
				c-0.4306641,2.4033203,0.2929688,5.2275391,1.7998047,7.0283203c1.2080078,1.4423828,2.7285156,1.9443359,4.1367188,1.3232422
				c3.5458984-1.5634766,4.2832031-4.4521484,4.5292969-6.4892578c0.3740234-3.1035156,0.7431641-22.7529297,0.4492188-23.8916016
				C53.6464844,46.8056641,51.7304688,46.2246094,49.5361328,46.2246094z"/>
		</g>
	</g>
	<g>
		<g>
			
				<linearGradient id="SVGID_20_" gradientUnits="userSpaceOnUse" x1="56.083271" y1="53.8131332" x2="52.6543274" y2="56.898201" gradientTransform="matrix(-0.7456 -0.7049 -0.7432 0.7093 95.8675003 45.4087982)">
				<stop  offset="0" style="stop-color:#FF80B9"/>
				<stop  offset="1" style="stop-color:#FF2687"/>
			</linearGradient>
			<path style="fill:url(#SVGID_20_);" d="M18.3938999,48.4343987c-0.184-1.0318985-0.5021992-3.2409973-0.8169003-3.560997
				c-1.3817997-1.405201-7.0314999-0.8061028-7.3191996,0.251297c-0.0599003,0.2208023-0.0123005,2.3866005-0.0272999,3.4108009
				L18.3938999,48.4343987z"/>
			<path style="fill:#A40B5D;" d="M9.9765625,48.7880859L9.9804688,48.53125
				c0.0053711-0.3759766,0.0024414-0.90625-0.0004883-1.4365234c-0.0073242-1.2958984-0.0058594-1.8789063,0.0366211-2.0351563
				c0.2495117-0.9189453,2.7675781-1.2607422,4.2958984-1.2607422c0.9555664,0,2.6738281,0.1171875,3.4428711,0.8994141
				c0.2695313,0.2744141,0.4667969,1.2138672,0.7817383,3.0888672l0.1547852,0.8935547L9.9765625,48.7880859z M14.3125,44.2988281
				c-2.1469727,0-3.7167969,0.5371094-3.8134766,0.8916016c-0.0288086,0.1416016-0.0229492,1.1591797-0.019043,1.9013672
				c0.0024414,0.4228516,0.0048828,0.8447266,0.0029297,1.1904297l7.6152344-0.09375l-0.0541992-0.3193359
				c-0.1416016-0.8427734-0.4365234-2.5966797-0.6455078-2.8212891C16.9375,44.5791016,15.7836914,44.2988281,14.3125,44.2988281z"
				/>
		</g>
		<g>
			
				<linearGradient id="SVGID_21_" gradientUnits="userSpaceOnUse" x1="55.0966263" y1="55.8490868" x2="31.0856628" y2="77.4520416" gradientTransform="matrix(-0.7087 -0.7054 -0.7054 0.7087 93.0261993 45.2333984)">
				<stop  offset="0" style="stop-color:#FF80B9"/>
				<stop  offset="1" style="stop-color:#FF2687"/>
			</linearGradient>
			<path style="fill:url(#SVGID_21_);" d="M21.3901997,69.2724991c-0.7980003-4.4508972-1.7679996-20.6952972-3.2992992-22.3344002
				c-1.5312004-1.6390991-7.7865-0.9454994-8.1039906,0.2868004c-0.3176203,1.232399,0.0704899,20.8879013,0.4438906,23.9836044
				c0.2351999,1.9496994,0.9707994,5.053894,4.6768999,6.6875C18.8138008,79.5296021,22.2299004,73.9561005,21.3901997,69.2724991z"
				/>
			<path style="fill:#A40B5D;" d="M16.4399414,78.4375L16.4399414,78.4375
				c-0.4814453-0.0009766-0.9633789-0.1054688-1.4326172-0.3125c-4.2177734-1.8583984-4.6748047-5.6425781-4.824707-6.8857422
				c-0.340332-2.8222656-0.7929688-22.6992188-0.4379883-24.0771484c0.2553711-0.9921875,2.9135742-1.4375,4.7192383-1.4375
				c1.0585938,0,2.9614258,0.1347656,3.8095703,1.0429688c0.9975586,1.0673828,1.6904297,7.1738281,2.4926758,15.0458984
				c0.324707,3.1855469,0.6049805,5.9355469,0.8701172,7.4150391c0.4555664,2.5400391-0.3110352,5.5292969-1.9077148,7.4365234
				C18.7729492,77.8076172,17.6049805,78.4375,16.4399414,78.4375z M14.4638672,46.2246094
				c-2.1943359,0-4.1108398,0.5810547-4.2348633,1.0625c-0.2939453,1.140625,0.0761719,20.7900391,0.449707,23.8916016
				c0.2460938,2.0371094,0.9833984,4.9257813,4.5302734,6.4892578c1.4047852,0.6191406,2.9282227,0.1191406,4.1362305-1.3232422
				c1.5068359-1.8007813,2.2294922-4.625,1.7988281-7.0283203c-0.2685547-1.4970703-0.5498047-4.2568359-0.8754883-7.4521484
				c-0.590332-5.7919922-1.3984375-13.7255859-2.3603516-14.7548828
				C17.390625,46.5546875,16.1030273,46.2246094,14.4638672,46.2246094z"/>
		</g>
	</g>
</g>
</svg>
