<?xml version="1.0" encoding="utf-8"?>
<!-- Generator: Adobe Illustrator 16.0.0, SVG Export Plug-In . SVG Version: 6.00 Build 0)  -->
<!DOCTYPE svg PUBLIC "-//W3C//DTD SVG 1.1//EN" "http://www.w3.org/Graphics/SVG/1.1/DTD/svg11.dtd">
<svg version="1.1" id="Layer_70_copy" xmlns="http://www.w3.org/2000/svg" xmlns:xlink="http://www.w3.org/1999/xlink" x="0px"
	 y="0px" width="64px" height="64px" viewBox="0 0 64 64" enable-background="new 0 0 64 64" xml:space="preserve">
<path fill="#F09400" stroke="#4C0A02" stroke-width="3" stroke-linecap="round" stroke-linejoin="round" stroke-miterlimit="10" d="
	M46.375,27.875c0,0-2.5,9.125,3.375,10c0,0-6.625,6.25-12.875-2C30.36,27.275,44.25,21.625,46.375,27.875z"/>
<radialGradient id="SVGID_1_" cx="33.125" cy="5.875" r="12.6306" gradientUnits="userSpaceOnUse">
	<stop  offset="0" style="stop-color:#B16E2F"/>
	<stop  offset="0.2909" style="stop-color:#A05D27"/>
	<stop  offset="0.8663" style="stop-color:#733111"/>
	<stop  offset="1" style="stop-color:#68260B"/>
</radialGradient>
<path fill="url(#SVGID_1_)" d="M46.375,27.875c0,0-2.5,9.125,3.375,10c0,0-6.625,6.25-12.875-2
	C30.36,27.275,44.25,21.625,46.375,27.875z"/>
<path fill="#F09400" stroke="#4C0A02" stroke-width="3" stroke-linecap="round" stroke-linejoin="round" stroke-miterlimit="10" d="
	M17.875,27.875c0,0,2.5,9.125-3.375,10c0,0,6.625,6.25,12.875-2C33.891,27.275,20,21.625,17.875,27.875z"/>
<radialGradient id="SVGID_2_" cx="33.125" cy="5.875" r="12.6306" gradientTransform="matrix(-1 0 0 1 64.25 0)" gradientUnits="userSpaceOnUse">
	<stop  offset="0" style="stop-color:#B16E2F"/>
	<stop  offset="0.2909" style="stop-color:#A05D27"/>
	<stop  offset="0.8663" style="stop-color:#733111"/>
	<stop  offset="1" style="stop-color:#68260B"/>
</radialGradient>
<path fill="url(#SVGID_2_)" d="M17.875,27.875c0,0,2.5,9.125-3.375,10c0,0,6.625,6.25,12.875-2
	C33.891,27.275,20,21.625,17.875,27.875z"/>
<path id="path30-2_20_" inkscape:connector-curvature="0" fill="#004A22" stroke="#004A22" stroke-width="1.7375" stroke-miterlimit="10" d="
	M29.079,41.546c0,0,0.927,0.931-1.541,4.158c-2.467,3.23-4.451,4.892-5.101,4.422c-0.648-0.469-2.177-0.41-1.033-2.093
	c0,0-0.169-1.181,0.949-0.913c1.5,0.969,4.405-2.433,5.074-3.473C28.003,42.752,28.01,41.131,29.079,41.546z"/>
<path id="path30-2_19_" inkscape:connector-curvature="0" fill="#004A22" stroke="#004A22" stroke-width="1.7375" stroke-miterlimit="10" d="
	M36.769,43.697c0.669,1.04,3.573,4.441,5.073,3.473c1.118-0.268,0.949,0.913,0.949,0.913c1.145,1.683-0.385,1.624-1.032,2.093
	c-0.649,0.47-2.634-1.191-5.101-4.422c-2.469-3.228-1.541-4.158-1.541-4.158C36.187,41.181,36.192,42.802,36.769,43.697z"/>
<g>
	<g>
		<g>
			<path fill="#F09400" stroke="#4C0A02" stroke-width="1.5423" stroke-miterlimit="10" d="M47.643,21.765
				c0,8.486-7.004,15.361-15.642,15.361c-8.642,0-15.645-6.875-15.645-15.361c0-8.487,7.003-15.369,15.645-15.369
				C40.639,6.396,47.643,13.278,47.643,21.765z"/>
			<radialGradient id="SVGID_3_" cx="75.5977" cy="-32.9263" r="41.8067" gradientUnits="userSpaceOnUse">
				<stop  offset="0" style="stop-color:#B16E2F"/>
				<stop  offset="0.2909" style="stop-color:#A05D27"/>
				<stop  offset="0.8663" style="stop-color:#733111"/>
				<stop  offset="1" style="stop-color:#68260B"/>
			</radialGradient>
			<path fill="url(#SVGID_3_)" stroke="#48140F" stroke-linecap="round" stroke-linejoin="round" stroke-miterlimit="10" d="
				M49.415,16.229c-1.522,1.133-1.975,1.246-3.121,1.363c-1.436-4.75-5.251-8.487-10.091-9.883c0.092-1.341,0.111-1.715,1.25-3.346
				c0.147-0.212-3.793,0.262-5.137,2.347c-0.099,0.153-0.153,0.284-0.186,0.405c-0.044,0-0.086-0.006-0.13-0.006
				c-4.085,0-7.784,1.616-10.478,4.229c-0.007-0.003-0.011-0.006-0.019-0.009c-2.23-0.765-5.453,1.2-5.218,1.271
				c1.789,0.541,2.041,0.811,2.873,1.73c-1.312,2.182-2.078,4.717-2.078,7.435c0,8.093,6.679,14.647,14.919,14.647
				c8.236,0,14.916-6.554,14.916-14.647c0-0.012-0.002-0.023-0.002-0.036c0.077-0.038,0.151-0.069,0.238-0.129
				C49.26,20.149,49.631,16.069,49.415,16.229z"/>
			<radialGradient id="SVGID_4_" cx="75.5977" cy="-32.9263" r="41.8067" gradientUnits="userSpaceOnUse">
				<stop  offset="0" style="stop-color:#B16E2F"/>
				<stop  offset="0.2909" style="stop-color:#A05D27"/>
				<stop  offset="0.8663" style="stop-color:#733111"/>
				<stop  offset="1" style="stop-color:#68260B"/>
			</radialGradient>
			<path fill="url(#SVGID_4_)" d="M49.415,16.229c-1.522,1.133-1.975,1.246-3.121,1.363c-1.436-4.75-5.251-8.487-10.091-9.883
				c0.092-1.341,0.111-1.715,1.25-3.346c0.147-0.212-3.793,0.262-5.137,2.347c-0.099,0.153-0.153,0.284-0.186,0.405
				c-0.044,0-0.086-0.006-0.13-0.006c-4.085,0-7.784,1.616-10.478,4.229c-0.007-0.003-0.011-0.006-0.019-0.009
				c-2.23-0.765-5.453,1.2-5.218,1.271c1.789,0.541,2.041,0.811,2.873,1.73c-1.312,2.182-2.078,4.717-2.078,7.435
				c0,8.093,6.679,14.647,14.919,14.647c8.236,0,14.916-6.554,14.916-14.647c0-0.012-0.002-0.023-0.002-0.036
				c0.077-0.038,0.151-0.069,0.238-0.129C49.26,20.149,49.631,16.069,49.415,16.229z"/>
			<path fill="#004A22" stroke="#004A22" stroke-width="2.782" stroke-miterlimit="10" d="M44.156,27.564
				c0,6.867-5.389,10.911-12.032,10.911c-6.644,0-12.03-4.044-12.03-10.911c0-6.871,5.387-12.443,12.03-12.443
				C38.768,15.121,44.156,20.693,44.156,27.564z"/>
			
				<ellipse transform="matrix(0.9866 0.163 -0.163 0.9866 5.2079 -6.9264)" fill="#004A22" stroke="#004A22" stroke-width="2.782" stroke-miterlimit="10" cx="44.819" cy="28.278" rx="2.226" ry="2.596"/>
			
				<radialGradient id="SVGID_5_" cx="43.1855" cy="30.4253" r="4.378" gradientTransform="matrix(0.9866 0.1633 -0.1633 0.9866 7.1795 -8.792)" gradientUnits="userSpaceOnUse">
				<stop  offset="0" style="stop-color:#C4DA5D"/>
				<stop  offset="0.1133" style="stop-color:#BCD45D"/>
				<stop  offset="0.2886" style="stop-color:#A6C35C"/>
				<stop  offset="0.5041" style="stop-color:#83A85C"/>
				<stop  offset="0.7513" style="stop-color:#51835B"/>
				<stop  offset="1" style="stop-color:#18575A"/>
			</radialGradient>
			<path fill="url(#SVGID_5_)" d="M47.016,28.641c-0.234,1.415-1.408,2.399-2.621,2.198s-2.006-1.509-1.771-2.924
				c0.234-1.413,1.408-2.394,2.619-2.195C46.457,25.921,47.25,27.23,47.016,28.641z"/>
			
				<ellipse transform="matrix(-0.9866 0.163 -0.163 -0.9866 42.9337 53.0337)" fill="#004A22" stroke="#004A22" stroke-width="2.782" stroke-miterlimit="10" cx="19.291" cy="28.278" rx="2.226" ry="2.596"/>
			
				<radialGradient id="SVGID_6_" cx="43.0791" cy="30.4429" r="4.3772" gradientTransform="matrix(-0.9866 0.1633 0.1633 0.9866 56.8234 -8.792)" gradientUnits="userSpaceOnUse">
				<stop  offset="0" style="stop-color:#C4DA5D"/>
				<stop  offset="0.1133" style="stop-color:#BCD45D"/>
				<stop  offset="0.2886" style="stop-color:#A6C35C"/>
				<stop  offset="0.5041" style="stop-color:#83A85C"/>
				<stop  offset="0.7513" style="stop-color:#51835B"/>
				<stop  offset="1" style="stop-color:#18575A"/>
			</radialGradient>
			<path fill="url(#SVGID_6_)" d="M17.095,28.641c0.235,1.415,1.408,2.399,2.62,2.198c1.213-0.201,2.006-1.509,1.771-2.924
				c-0.233-1.413-1.406-2.394-2.62-2.195C17.655,25.921,16.862,27.23,17.095,28.641z"/>
			
				<path id="path34-7-5_11_" inkscape:connector-curvature="0" fill="#004A22" stroke="#004A22" stroke-width="2" stroke-linecap="round" stroke-linejoin="round" stroke-miterlimit="10" d="
				M35.831,43.321c0.269-0.294,0.537-1.52,0-1.767c-0.536-0.245-1.904-0.589-1.904-0.589c-1.228-0.344-2.477-0.344-3.703,0
				c0,0-1.369,0.344-1.905,0.589c-0.536,0.247-0.269,1.473,0,1.767c0,0,0.483,3.533-0.536,7.163c0,0,1.556,1.668,4.293,1.668
				c2.736,0,4.293-1.668,4.293-1.668C35.349,46.854,35.831,43.321,35.831,43.321z"/>
			
				<radialGradient id="path34-7-5_1_" cx="32.1382" cy="28.3125" r="32.8077" gradientTransform="matrix(1 0 0 0.9079 0 4.9743)" gradientUnits="userSpaceOnUse">
				<stop  offset="0" style="stop-color:#C4DA5D"/>
				<stop  offset="0.1133" style="stop-color:#BCD45D"/>
				<stop  offset="0.2886" style="stop-color:#A6C35C"/>
				<stop  offset="0.5041" style="stop-color:#83A85C"/>
				<stop  offset="0.7513" style="stop-color:#51835B"/>
				<stop  offset="1" style="stop-color:#18575A"/>
			</radialGradient>
			<path id="path34-7-5_7_" inkscape:connector-curvature="0" fill="url(#path34-7-5_1_)" d="M35.831,43.365
				c0.269-0.293,0.537-1.51,0-1.756c-0.536-0.242-1.904-0.583-1.904-0.583c-1.228-0.343-2.477-0.343-3.703,0
				c0,0-1.369,0.341-1.905,0.583c-0.536,0.246-0.269,1.463,0,1.756c0,0,0.483,3.508-0.536,7.113c0,0,1.556,1.475,4.293,1.475
				c2.736,0,4.293-1.475,4.293-1.475C35.349,46.873,35.831,43.365,35.831,43.365z"/>
			<radialGradient id="path30-2_1_" cx="32.623" cy="36.4736" r="28.9359" gradientUnits="userSpaceOnUse">
				<stop  offset="0" style="stop-color:#C4DA5D"/>
				<stop  offset="0.1133" style="stop-color:#BCD45D"/>
				<stop  offset="0.2886" style="stop-color:#A6C35C"/>
				<stop  offset="0.5041" style="stop-color:#83A85C"/>
				<stop  offset="0.7513" style="stop-color:#51835B"/>
				<stop  offset="1" style="stop-color:#18575A"/>
			</radialGradient>
			<path id="path30-2_18_" inkscape:connector-curvature="0" fill="url(#path30-2_1_)" d="M36.769,43.697
				c0.669,1.04,3.573,4.441,5.073,3.473c1.118-0.268,0.949,0.913,0.949,0.913c1.145,1.683-0.385,1.624-1.032,2.093
				c-0.649,0.47-2.634-1.191-5.101-4.422c-2.469-3.228-1.541-4.158-1.541-4.158C36.187,41.181,36.192,42.802,36.769,43.697z"/>
			
				<radialGradient id="path30-2_2_" cx="47.4473" cy="36.4238" r="28.9359" gradientTransform="matrix(-1 0 0 1 79.0195 0)" gradientUnits="userSpaceOnUse">
				<stop  offset="0" style="stop-color:#C4DA5D"/>
				<stop  offset="0.1133" style="stop-color:#BCD45D"/>
				<stop  offset="0.2886" style="stop-color:#A6C35C"/>
				<stop  offset="0.5041" style="stop-color:#83A85C"/>
				<stop  offset="0.7513" style="stop-color:#51835B"/>
				<stop  offset="1" style="stop-color:#18575A"/>
			</radialGradient>
			<path id="path30-2_17_" inkscape:connector-curvature="0" fill="url(#path30-2_2_)" d="M29.079,41.546
				c0,0,0.927,0.931-1.541,4.158c-2.467,3.23-4.451,4.892-5.101,4.422c-0.648-0.469-2.177-0.41-1.033-2.093
				c0,0-0.169-1.181,0.949-0.913c1.5,0.969,4.405-2.433,5.074-3.473C28.003,42.752,28.01,41.131,29.079,41.546z"/>
			<radialGradient id="SVGID_7_" cx="32.1455" cy="42.125" r="4.0014" gradientUnits="userSpaceOnUse">
				<stop  offset="0" style="stop-color:#C4DA5D"/>
				<stop  offset="0.1133" style="stop-color:#BCD45D"/>
				<stop  offset="0.2886" style="stop-color:#A6C35C"/>
				<stop  offset="0.5041" style="stop-color:#83A85C"/>
				<stop  offset="0.7513" style="stop-color:#51835B"/>
				<stop  offset="1" style="stop-color:#18575A"/>
			</radialGradient>
			<rect x="31.043" y="37.745" fill="url(#SVGID_7_)" width="2.128" height="3.105"/>
			<g>
				
					<path fill="#004A22" stroke="#004A22" stroke-width="1.8499" stroke-linecap="round" stroke-linejoin="round" stroke-miterlimit="10" d="
					M31.568,51.068c0.001,5.781-1.493,10.472-2.37,10.472c-0.876,0-1.588-4.688-1.59-10.472H31.568z"/>
				
					<path fill="#004A22" stroke="#004A22" stroke-width="1.8499" stroke-linecap="round" stroke-linejoin="round" stroke-miterlimit="10" d="
					M32.597,51.068c0,5.781,1.494,10.472,2.372,10.472c0.877,0,1.589-4.688,1.591-10.472H32.597z"/>
			</g>
			<ellipse fill="#0083C5" cx="32.071" cy="51.281" rx="4.469" ry="3.375"/>
			<radialGradient id="SVGID_8_" cx="32.125" cy="26.7979" r="22.0413" gradientUnits="userSpaceOnUse">
				<stop  offset="0" style="stop-color:#C4DA5D"/>
				<stop  offset="0.1133" style="stop-color:#BCD45D"/>
				<stop  offset="0.2886" style="stop-color:#A6C35C"/>
				<stop  offset="0.5041" style="stop-color:#83A85C"/>
				<stop  offset="0.7513" style="stop-color:#51835B"/>
				<stop  offset="1" style="stop-color:#18575A"/>
			</radialGradient>
			<path fill="url(#SVGID_8_)" d="M44.156,27.564c0,6.867-5.389,10.911-12.032,10.911c-6.644,0-12.03-4.044-12.03-10.911
				c0-6.871,5.387-12.443,12.03-12.443C38.768,15.121,44.156,20.693,44.156,27.564z"/>
			
				<path fill="none" stroke="#A4414A" stroke-width="0.8345" stroke-linecap="round" stroke-linejoin="round" stroke-miterlimit="10" d="
				M39.541,21.175c0,0-1.555-2.108-3.654,0"/>
			<path fill="none" stroke="#40210F" stroke-linecap="round" stroke-linejoin="round" stroke-miterlimit="10" d="M28.329,21.175
				c0,0-1.557-2.108-3.656,0"/>
			
				<radialGradient id="SVGID_9_" cx="30.5332" cy="49.5" r="29.5011" gradientTransform="matrix(0.9795 0 0 1 0.8695 0)" gradientUnits="userSpaceOnUse">
				<stop  offset="0" style="stop-color:#99CC63"/>
				<stop  offset="0.1478" style="stop-color:#91C460"/>
				<stop  offset="0.3765" style="stop-color:#7BAF56"/>
				<stop  offset="0.6575" style="stop-color:#588B47"/>
				<stop  offset="0.9774" style="stop-color:#275B32"/>
				<stop  offset="1" style="stop-color:#235730"/>
			</radialGradient>
			<path fill="url(#SVGID_9_)" d="M20.339,28.265c0,0-1.491-2.809-1.718-7.251c-0.16-3.124-0.38-4.605,1.8-7.109
				c2.23-2.563,5.585-5.969,11.58-5.969c5.992,0,9.349,3.407,11.58,5.969c2.18,2.504,1.959,3.985,1.8,7.109
				c-0.228,4.442-1.474,7.251-1.474,7.251c-0.318-1.09-1.68-3.73-1.68-3.73c-0.727,0-3.27-0.739-3.27-0.739v0.925
				c-4.904-0.37-7.084-5.005-7.084-5.005l-0.545,5.372c-2.725-1.292-4.359-6.299-4.359-6.299
				C21.102,22.479,20.783,27.991,20.339,28.265z"/>
			<radialGradient id="SVGID_10_" cx="32" cy="17.3994" r="12.0942" gradientUnits="userSpaceOnUse">
				<stop  offset="0" style="stop-color:#B16E2F"/>
				<stop  offset="0.2909" style="stop-color:#A05D27"/>
				<stop  offset="0.8663" style="stop-color:#733111"/>
				<stop  offset="1" style="stop-color:#68260B"/>
			</radialGradient>
			<path fill="url(#SVGID_10_)" d="M20.094,27.564c0,0-1.521-2.809-1.754-7.251c-0.163-3.124-0.389-4.605,1.838-7.109
				C22.456,10.641,25.88,7.234,32,7.234c6.117,0,9.544,3.407,11.822,5.969c2.227,2.504,2,3.985,1.838,7.109
				c-0.232,4.442-1.504,7.251-1.504,7.251c-0.326-1.09-1.715-3.73-1.715-3.73c-0.742,0-3.338-0.739-3.338-0.739v0.925
				c-5.008-0.37-7.233-5.005-7.233-5.005l-0.557,5.372c-2.782-1.292-4.45-6.299-4.45-6.299
				C20.874,21.779,20.548,27.291,20.094,27.564z"/>
		</g>
		<g>
			<path fill="#004A22" d="M39.218,25.823c0.438-0.005,0.984-0.224,1.166-0.5c0,0,0.193,1.114-0.963,1.614
				C38.497,27.337,39.218,25.823,39.218,25.823z"/>
			<g>
				<g>
					<path fill="#004A22" d="M25.003,25.823c-0.438-0.005-0.984-0.224-1.167-0.5c0,0-0.193,1.114,0.963,1.614
						C25.724,27.337,25.003,25.823,25.003,25.823z"/>
				</g>
			</g>
			<path fill="#003614" d="M37.729,25.126c-1.373,0-2.449,1.581-2.449,3.599c0,2.011,1.076,3.586,2.449,3.586
				c1.372,0,2.447-1.575,2.447-3.586C40.176,26.707,39.101,25.126,37.729,25.126z"/>
			<path fill="#003614" d="M26.55,25.126c-1.374,0-2.449,1.581-2.449,3.599c0,2.011,1.076,3.586,2.449,3.586
				c1.372,0,2.447-1.575,2.447-3.586C28.998,26.707,27.922,25.126,26.55,25.126z"/>
		</g>
		<g>
			<radialGradient id="SVGID_11_" cx="31.9375" cy="19" r="14.4462" gradientUnits="userSpaceOnUse">
				<stop  offset="0" style="stop-color:#99CC63"/>
				<stop  offset="0.1388" style="stop-color:#91C562"/>
				<stop  offset="0.3536" style="stop-color:#7BB161"/>
				<stop  offset="0.6175" style="stop-color:#58915E"/>
				<stop  offset="0.9177" style="stop-color:#27645B"/>
				<stop  offset="1" style="stop-color:#18575A"/>
			</radialGradient>
			<path fill="url(#SVGID_11_)" d="M37.729,24.326c-1.373,0-2.449,1.581-2.449,3.599c0,2.011,1.076,3.586,2.449,3.586
				c1.372,0,2.447-1.575,2.447-3.586C40.176,25.906,39.101,24.326,37.729,24.326z"/>
			<radialGradient id="SVGID_12_" cx="31.9375" cy="19" r="14.4462" gradientUnits="userSpaceOnUse">
				<stop  offset="0" style="stop-color:#99CC63"/>
				<stop  offset="0.1388" style="stop-color:#91C562"/>
				<stop  offset="0.3536" style="stop-color:#7BB161"/>
				<stop  offset="0.6175" style="stop-color:#58915E"/>
				<stop  offset="0.9177" style="stop-color:#27645B"/>
				<stop  offset="1" style="stop-color:#18575A"/>
			</radialGradient>
			<path fill="url(#SVGID_12_)" d="M26.55,24.326c-1.374,0-2.449,1.581-2.449,3.599c0,2.011,1.076,3.586,2.449,3.586
				c1.372,0,2.447-1.575,2.447-3.586C28.998,25.906,27.922,24.326,26.55,24.326z"/>
		</g>
		<path id="path209_10_" inkscape:connector-curvature="0" fill="#FFFFFF" d="M39.676,27.924c0,1.703-0.873,3.086-1.947,3.086
			c-1.078,0-1.949-1.383-1.949-3.086c0-1.713,0.871-3.099,1.949-3.099C38.803,24.826,39.676,26.211,39.676,27.924z"/>
	</g>
</g>
<g id="g213_7_">
	<path id="path209_9_" inkscape:connector-curvature="0" fill="#FFFFFF" d="M28.498,27.924c0,1.703-0.873,3.086-1.947,3.086
		c-1.078,0-1.949-1.383-1.949-3.086c0-1.713,0.871-3.099,1.949-3.099C27.625,24.826,28.498,26.211,28.498,27.924z"/>
</g>
<radialGradient id="SVGID_13_" cx="32.125" cy="48.875" r="15.5046" gradientUnits="userSpaceOnUse">
	<stop  offset="0" style="stop-color:#C4DA5D"/>
	<stop  offset="0.1133" style="stop-color:#BCD45D"/>
	<stop  offset="0.2886" style="stop-color:#A6C35C"/>
	<stop  offset="0.5041" style="stop-color:#83A85C"/>
	<stop  offset="0.7513" style="stop-color:#51835B"/>
	<stop  offset="1" style="stop-color:#18575A"/>
</radialGradient>
<path fill="url(#SVGID_13_)" d="M31.568,51.068c0.001,5.781-1.493,10.472-2.37,10.472c-0.876,0-1.588-4.688-1.59-10.472H31.568z"/>
<radialGradient id="SVGID_14_" cx="32.125" cy="48.875" r="15.5045" gradientUnits="userSpaceOnUse">
	<stop  offset="0" style="stop-color:#C4DA5D"/>
	<stop  offset="0.1133" style="stop-color:#BCD45D"/>
	<stop  offset="0.2886" style="stop-color:#A6C35C"/>
	<stop  offset="0.5041" style="stop-color:#83A85C"/>
	<stop  offset="0.7513" style="stop-color:#51835B"/>
	<stop  offset="1" style="stop-color:#18575A"/>
</radialGradient>
<path fill="url(#SVGID_14_)" d="M32.597,51.068c0,5.781,1.494,10.472,2.372,10.472c0.877,0,1.589-4.688,1.591-10.472H32.597z"/>
<path fill="#D9DADA" stroke="#035791" stroke-width="2" stroke-miterlimit="10" d="M27.719,51.805
	c-0.001,0.004-0.001,0.006-0.002,0.006c-0.092,0.441-1.105,3.353-1.271,3.801c0,0,2.041,1.487,5.629,1.487
	c3.587,0,5.626-1.487,5.626-1.487c-0.165-0.448-1.176-3.359-1.268-3.801c-0.001,0-0.001-0.002-0.002-0.006H27.719z"/>
<path fill="#2CA4DE" d="M27.719,51.793c-0.001,0.004-0.001,0.006-0.002,0.008c-0.092,0.441-1.105,3.354-1.271,3.805
	c0,0,2.041,1.493,5.629,1.493c3.587,0,5.626-1.493,5.626-1.493c-0.165-0.45-1.176-3.363-1.268-3.805
	c-0.001-0.002-0.001-0.004-0.002-0.008H27.719z"/>
<path fill="#231815" d="M33.393,62.501c0-1.163,0.944-2.107,2.107-2.107c1.164,0,2.107,0.944,2.107,2.107H33.393z"/>
<path fill="#231815" d="M26.642,62.501c0-1.163,0.944-2.107,2.107-2.107c1.164,0,2.107,0.944,2.107,2.107H26.642z"/>
<path fill="#40210F" d="M36.167,35.765c0,1.357-1.847,1.86-4.125,1.86s-4.125-0.503-4.125-1.86s1.847-3.056,4.125-3.056
	S36.167,34.407,36.167,35.765z"/>
<path fill="#E30012" d="M35.613,36.822c-0.709-0.92-2.034-1.696-3.571-1.696s-2.862,0.776-3.572,1.696
	c0.709,0.565,2.035,0.803,3.572,0.803S34.904,37.388,35.613,36.822z"/>
<path fill="#006934" d="M23.583,33.167c0.042-0.604,0.917-0.75,1.75,0.083s1.416,2.417,0.333,2.167S23.539,33.817,23.583,33.167z"/>
<path fill="#006934" d="M41.293,32.584c0.047-0.479-0.522-0.685-1.184-0.119c-0.661,0.564-1.246,1.744-0.49,1.661
	C40.377,34.045,41.242,33.098,41.293,32.584z"/>
<radialGradient id="SVGID_15_" cx="32.0752" cy="47.6641" r="6.4392" gradientUnits="userSpaceOnUse">
	<stop  offset="0" style="stop-color:#F7B5D2"/>
	<stop  offset="1" style="stop-color:#F067A5"/>
</radialGradient>
<path fill="url(#SVGID_15_)" stroke="#CF128C" stroke-width="2" stroke-miterlimit="10" d="M36.887,47.193l1.298-2.859
	c0,0-1.46-2.437-2.353-2.811c-0.957-0.398-1.905-0.59-1.905-0.59c-0.041-0.008-0.082-0.013-0.122-0.021l-1.729,2.539l-1.729-2.539
	c-0.04,0.009-0.081,0.014-0.122,0.021c0,0-0.948,0.191-1.905,0.59c-0.893,0.374-2.353,2.811-2.353,2.811l1.299,2.859l1.168-1.646
	c0,0.002,0,0.006,0,0.008c-0.002,0.33-0.013,0.688-0.034,1.065c0,0.005,0,0.015-0.001,0.017c-0.021,0.376-0.055,0.777-0.104,1.189
	c0,0.006-0.001,0.011-0.002,0.015c-0.049,0.415-0.112,0.845-0.195,1.282c-0.001,0.004-0.001,0.006-0.002,0.006
	c-0.084,0.441-1.009,3.353-1.161,3.801c0,0,1.864,1.487,5.141,1.487c3.275,0,5.138-1.487,5.138-1.487
	c-0.15-0.448-1.073-3.359-1.157-3.801c-0.001,0-0.001-0.002-0.002-0.006c-0.083-0.438-0.146-0.867-0.195-1.282
	c-0.001-0.004-0.002-0.009-0.002-0.015c-0.049-0.412-0.082-0.813-0.104-1.189c-0.001-0.002-0.001-0.012-0.001-0.017
	c-0.021-0.378-0.032-0.735-0.034-1.065c0-0.002,0-0.006,0-0.008L36.887,47.193z"/>
<radialGradient id="SVGID_16_" cx="32.125" cy="37.75" r="16.2504" gradientUnits="userSpaceOnUse">
	<stop  offset="0" style="stop-color:#F7B5D2"/>
	<stop  offset="1" style="stop-color:#F067A5"/>
</radialGradient>
<path fill="url(#SVGID_16_)" d="M36.887,47.173l1.298-2.87c0,0-1.46-2.443-2.353-2.816c-0.957-0.4-1.905-0.592-1.905-0.592
	c-0.041-0.01-0.082-0.014-0.122-0.025l-1.729,2.551l-1.729-2.551c-0.04,0.012-0.081,0.016-0.122,0.025c0,0-0.948,0.191-1.905,0.592
	c-0.893,0.373-2.353,2.816-2.353,2.816l1.299,2.87l1.168-1.647c0,0,0,0.004,0,0.005c-0.002,0.332-0.013,0.692-0.034,1.071
	c0,0.004,0,0.012-0.001,0.014c-0.021,0.381-0.055,0.782-0.104,1.197c0,0.004-0.001,0.008-0.002,0.012
	c-0.049,0.418-0.112,0.848-0.195,1.287c-0.001,0.004-0.001,0.006-0.002,0.008c-0.084,0.441-1.009,3.354-1.161,3.805
	c0,0,1.864,1.493,5.141,1.493c3.275,0,5.138-1.493,5.138-1.493c-0.15-0.45-1.073-3.363-1.157-3.805
	c-0.001-0.002-0.001-0.004-0.002-0.008c-0.083-0.439-0.146-0.869-0.195-1.287c-0.001-0.004-0.002-0.008-0.002-0.012
	c-0.049-0.415-0.082-0.816-0.104-1.197c-0.001-0.002-0.001-0.01-0.001-0.014c-0.021-0.379-0.032-0.739-0.034-1.071
	c0-0.001,0-0.005,0-0.005L36.887,47.173z"/>
</svg>
