<?xml version="1.0" encoding="utf-8"?>
<!-- Generator: Adobe Illustrator 16.0.0, SVG Export Plug-In . SVG Version: 6.00 Build 0)  -->
<!DOCTYPE svg PUBLIC "-//W3C//DTD SVG 1.1//EN" "http://www.w3.org/Graphics/SVG/1.1/DTD/svg11.dtd">
<svg version="1.1" id="Layer_1" xmlns="http://www.w3.org/2000/svg" xmlns:xlink="http://www.w3.org/1999/xlink" x="0px" y="0px"
	 width="64px" height="64px" viewBox="0 0 64 64" style="enable-background:new 0 0 64 64;" xml:space="preserve">
<style type="text/css">
<![CDATA[
	.st0{fill:#471813;}
	.st1{fill:#E10A7F;}
	.st2{fill:#471813;stroke:#471813;stroke-width:3;stroke-miterlimit:10;}
	.st3{fill:#194680;}
	.st4{fill:#1A0D0C;}
	.st5{fill:#471813;stroke:#471813;stroke-width:2;stroke-miterlimit:10;}
	.st6{fill:#C12126;}
	.st7{fill:url(#SVGID_2_);}
	.st8{fill:url(#SVGID_3_);}
	.st9{fill:url(#SVGID_4_);}
	.st10{fill:url(#SVGID_6_);}
	.st11{fill:url(#SVGID_7_);}
	.st12{fill:url(#SVGID_8_);}
	.st13{fill:url(#SVGID_9_);}
	.st14{fill:#C32127;}
	.st15{fill:#2C9AD6;}
	.st16{fill:url(#path30-2_1_);}
	.st17{fill:url(#path30-2_2_);}
	.st18{fill:#FFFFFF;}
	.st19{fill:#EF9521;stroke:#49150F;stroke-width:1.5423;stroke-miterlimit:10;}
	.st20{fill:url(#SVGID_5_);stroke:#471813;stroke-width:1.5;stroke-miterlimit:10;}
	.st21{fill:#9B9C9D;}
	.st22{fill:#471813;stroke:#471813;stroke-width:2.7816;stroke-miterlimit:10;}
	.st23{fill:url(#path34-7-5_1_);}
	.st24{fill:#3167B2;}
	.st25{fill:url(#SVGID_1_);stroke:#471813;stroke-width:3;stroke-linecap:round;stroke-linejoin:round;stroke-miterlimit:10;}
	.st26{fill:none;stroke:#471813;stroke-width:2;stroke-miterlimit:10;}
	.st27{fill:none;stroke:#A4424B;stroke-width:0.8345;stroke-linecap:round;stroke-linejoin:round;stroke-miterlimit:10;}
]]>
</style>
<path id="path30-2_12_" inkscape:connector-curvature="0" class="st5" d="M26.9,42.4c-1.4,0.3-2.4,0.4-3.9-1
	c-0.7-0.9-1.3,0.2-1.3,0.2c-1.9,0.7-0.7,1.5-0.4,2.3c0.2,0.8,3.2,1.6,6.2,0.3c3.3-1.6,4.1-3.1,3.3-3.7C30,39.9,29.1,41.8,26.9,42.4z
	"/>
<radialGradient id="path30-2_1_" cx="18.7065" cy="40.4248" r="6.761" gradientUnits="userSpaceOnUse">
	<stop  offset="0" style="stop-color:#F7D8CB"/>
	<stop  offset="0.1222" style="stop-color:#F6D2C3"/>
	<stop  offset="0.3114" style="stop-color:#F5C1AD"/>
	<stop  offset="0.544" style="stop-color:#F1A68C"/>
	<stop  offset="0.8083" style="stop-color:#ED8365"/>
	<stop  offset="1" style="stop-color:#E96648"/>
</radialGradient>
<path id="path30-2_11_" inkscape:connector-curvature="0" class="st16" d="M26.9,42.4c-1.4,0.3-2.4,0.4-3.9-1
	c-0.7-0.9-1.3,0.2-1.3,0.2c-1.9,0.7-0.7,1.5-0.4,2.3c0.2,0.8,3.2,1.6,6.2,0.3c3.3-1.6,4.1-3.1,3.3-3.7C30,39.9,29.1,41.8,26.9,42.4z
	"/>
<g>
	<path class="st26" d="M29.4,52.2c1,2.5,5.2,4.8,8.6,4.9c3.4,0.1,3.9-1.2,2.3-2.2c-1.6-0.9-3.3-1.2-5-4.8
		C33.7,46.6,28.7,50.5,29.4,52.2z"/>
	<path class="st26" d="M40.9,59.6c-1.2-0.2-2-1.2-1.8-2.4c0.2-1.2,1.2-2,2.4-1.8L40.9,59.6z"/>
	<path class="st3" d="M29.4,52.2c1,2.5,5.2,4.8,8.6,4.9c3.4,0.1,3.9-1.2,2.3-2.2c-1.6-0.9-3.3-1.2-5-4.8
		C33.7,46.6,28.7,50.5,29.4,52.2z"/>
	<path class="st21" d="M40.9,59.6c-1.2-0.2-2-1.2-1.8-2.4c0.2-1.2,1.2-2,2.4-1.8L40.9,59.6z"/>
	<ellipse class="st26" cx="31.9" cy="51.7" rx="3.6" ry="3.4"/>
	<path class="st26" d="M31.8,48.8c-2.7,0.1-6.3,3.3-7.5,6.5c-1.2,3.1-0.1,4.1,1.3,2.9c1.4-1.2,2.3-2.7,6.2-3.1
		C35.7,54.7,33.7,48.7,31.8,48.8z"/>
	<path class="st26" d="M21.4,56.6c0.7-1,2-1.2,2.9-0.6c1,0.7,1.2,2,0.6,2.9L21.4,56.6z"/>
	<path id="path30-2_10_" inkscape:connector-curvature="0" class="st26" d="M36.4,42.2c1.3,0.7,2.1,1.3,2.3,3.4
		c0,1.1,1.1,0.7,1.1,0.7c1.9,0.8,1.5-0.7,1.8-1.4c0.3-0.7-1.3-3.3-4.5-4.4c-3.6-1-5.1-0.5-4.9,0.5S34.4,41.1,36.4,42.2z"/>
	<g>
		<g>
			<g>
				<path class="st19" d="M49.9,21.4c0,8.5-7.5,15.4-16.1,15.4c-8.6,0-15.6-6.9-15.6-15.4c0-8.5,7-15.4,15.6-15.4
					C42.4,6,49.9,12.9,49.9,21.4z"/>
				<radialGradient id="SVGID_1_" cx="34.0586" cy="21.4297" r="14.9335" gradientUnits="userSpaceOnUse">
					<stop  offset="0" style="stop-color:#C97329"/>
					<stop  offset="0.3871" style="stop-color:#BC642E"/>
					<stop  offset="0.58" style="stop-color:#B2552B"/>
					<stop  offset="0.7151" style="stop-color:#A94829"/>
					<stop  offset="0.8598" style="stop-color:#9B4123"/>
					<stop  offset="1" style="stop-color:#8A391D"/>
				</radialGradient>
				<path class="st25" d="M49.2,21.4C49.1,13.3,42,6.7,33.8,6.7c-3.7,0-7.1,1.3-9.7,3.5c0,0-0.1,0.1-0.1,0.1c-0.3,0.3-0.7,0.6-1,0.9
					c-0.1,0.1-0.1,0.1-0.2,0.2c-0.3,0.3-0.5,0.6-0.8,0.9c-0.1,0.1-0.1,0.2-0.2,0.3c-0.2,0.3-0.5,0.7-0.7,1C21,13.9,21,14,20.9,14.1
					c-0.2,0.4-0.4,0.7-0.6,1.1c0,0.1-0.1,0.2-0.1,0.2c-0.8,1.8-1.3,3.8-1.3,6c0,0,0.4-0.8,1.1-1.8c0.7,1.6,1.8,3.7,3.2,4.4l0.5-5.4
					c0,0,1.9,4.6,6.3,5v-0.9c0,0,2.3,0.7,2.9,0.7c0,0,1.2,2.6,1.5,3.7c0,0,0.2-0.4,0.4-1.2c0.2,0.2,4.3,3.4,5.1,6.7l1.1-1l0.5,4.4
					C41.5,36.1,49.4,32.2,49.2,21.4z"/>
				<radialGradient id="SVGID_2_" cx="34.0566" cy="21.3857" r="14.9109" gradientUnits="userSpaceOnUse">
					<stop  offset="0" style="stop-color:#C97329"/>
					<stop  offset="0.3871" style="stop-color:#BC642E"/>
					<stop  offset="0.58" style="stop-color:#B2552B"/>
					<stop  offset="0.7151" style="stop-color:#A94829"/>
					<stop  offset="0.8598" style="stop-color:#9B4123"/>
					<stop  offset="1" style="stop-color:#8A391D"/>
				</radialGradient>
				<path class="st7" d="M49.2,21.4C49.2,29.5,42,36,33.8,36c-8.2,0-14.9-6.6-14.9-14.6c0-8.1,6.7-14.7,14.9-14.7
					C42,6.7,49.2,13.3,49.2,21.4z"/>
				<path class="st22" d="M43.7,27.2c0,6.9-5.4,10.6-12,10.9c-9.1,0.4-12-4-12-10.9c0-6.9,5.4-12.4,12-12.4
					C38.3,14.7,43.7,20.3,43.7,27.2z"/>
				<path id="path34-7-5_34_" inkscape:connector-curvature="0" class="st5" d="M33.9,42.1c0-0.5-0.2-1.9-0.5-2.1
					c-0.3-0.3-0.6-0.4-0.6-0.4c-0.7-0.4-1.5-0.4-2.2,0c0,0-0.2,0.1-0.5,0.6c-0.3,0.3-1.1,1.1-1.3,2s0.3,2.2-0.9,7.9
					c0,0,1.4,1.6,3.8,1.6c2.4,0,3.8-1.6,3.8-1.6C34.5,46,33.9,42.1,33.9,42.1z"/>
				
					<radialGradient id="path34-7-5_1_" cx="71.3613" cy="34.043" r="33.8512" gradientTransform="matrix(0.6017 0 0 1 -11.333 0)" gradientUnits="userSpaceOnUse">
					<stop  offset="0" style="stop-color:#F7D8CB"/>
					<stop  offset="0.1222" style="stop-color:#F6D2C3"/>
					<stop  offset="0.3114" style="stop-color:#F5C1AD"/>
					<stop  offset="0.544" style="stop-color:#F1A68C"/>
					<stop  offset="0.8083" style="stop-color:#ED8365"/>
					<stop  offset="1" style="stop-color:#E96648"/>
				</radialGradient>
				<path id="path34-7-5_4_" inkscape:connector-curvature="0" class="st23" d="M33.9,42.1c0-0.5-0.2-1.9-0.5-2.1
					c-0.3-0.3-0.6-0.4-0.6-0.4c-0.7-0.4-1.5-0.4-2.2,0c0,0-0.2,0.1-0.5,0.6c-0.3,0.3-1.1,1.1-1.3,2s0.3,2.2-0.9,7.9
					c0,0,1.4,1.6,3.8,1.6c2.4,0,3.8-1.6,3.8-1.6C34.5,46,33.9,42.1,33.9,42.1z"/>
				<radialGradient id="SVGID_3_" cx="31.7129" cy="41.75" r="4.0014" gradientUnits="userSpaceOnUse">
					<stop  offset="0" style="stop-color:#F7D8CB"/>
					<stop  offset="0.1222" style="stop-color:#F6D2C3"/>
					<stop  offset="0.3114" style="stop-color:#F5C1AD"/>
					<stop  offset="0.544" style="stop-color:#F1A68C"/>
					<stop  offset="0.8083" style="stop-color:#ED8365"/>
					<stop  offset="1" style="stop-color:#E96648"/>
				</radialGradient>
				<rect x="30.6" y="37.4" class="st8" width="2.1" height="3.1"/>
				<ellipse class="st24" cx="31.9" cy="51.7" rx="3.6" ry="3.4"/>
				<path class="st24" d="M31.8,48.8c-2.7,0.1-6.3,3.3-7.5,6.5c-1.2,3.1-0.1,4.1,1.3,2.9c1.4-1.2,2.3-2.7,6.2-3.1
					C35.7,54.7,33.7,48.7,31.8,48.8z"/>
				<path class="st21" d="M21.4,56.6c0.7-1,2-1.2,2.9-0.6c1,0.7,1.2,2,0.6,2.9L21.4,56.6z"/>
				<path id="path34-7-5_3_" inkscape:connector-curvature="0" class="st1" d="M33.9,42.1c-0.1-0.5-0.2-2-0.6-2.2
					c-0.3-0.3-0.6-0.3-0.6-0.3c-0.8,0-1.4,0.3-2.1,0.7c0,0-0.6,0.4-1,0.7c-0.3,0.3-0.7,0.6-0.9,1.3c0,0,0.1,3.8-0.8,7.8
					c0,0,1.4,1.1,3.8,1.1c2.4,0,3.8-1.1,3.8-1.1C34.5,46,33.9,42.1,33.9,42.1z"/>
				<radialGradient id="SVGID_4_" cx="31.6914" cy="26.4229" r="22.0404" gradientUnits="userSpaceOnUse">
					<stop  offset="0" style="stop-color:#F7D8CB"/>
					<stop  offset="0.1222" style="stop-color:#F6D2C3"/>
					<stop  offset="0.3114" style="stop-color:#F5C1AD"/>
					<stop  offset="0.544" style="stop-color:#F1A68C"/>
					<stop  offset="0.8083" style="stop-color:#ED8365"/>
					<stop  offset="1" style="stop-color:#E96648"/>
				</radialGradient>
				<path class="st9" d="M43.7,27.2c0,6.9-5.4,10.9-12,10.9c-6.6,0-12-1.5-12-10.9c0-6.9,5.4-12.4,12-12.4
					C38.3,14.7,43.7,20.3,43.7,27.2z"/>
				<path class="st27" d="M26.6,20.8c0,0-1.6-2.1-3.7,0"/>
				<radialGradient id="SVGID_5_" cx="34.0586" cy="21.4297" r="14.9335" gradientUnits="userSpaceOnUse">
					<stop  offset="0" style="stop-color:#C97329"/>
					<stop  offset="0.3871" style="stop-color:#BC642E"/>
					<stop  offset="0.58" style="stop-color:#B2552B"/>
					<stop  offset="0.7151" style="stop-color:#A94829"/>
					<stop  offset="0.8598" style="stop-color:#9B4123"/>
					<stop  offset="1" style="stop-color:#8A391D"/>
				</radialGradient>
				<path class="st20" d="M49.2,21.4C49.1,13.3,42,6.7,33.8,6.7c-3.7,0-7.1,1.3-9.7,3.5c0,0-0.1,0.1-0.1,0.1c-0.3,0.3-0.7,0.6-1,0.9
					c-0.1,0.1-0.1,0.1-0.2,0.2c-0.3,0.3-0.5,0.6-0.8,0.9c-0.1,0.1-0.1,0.2-0.2,0.3c-0.2,0.3-0.5,0.7-0.7,1C21,13.9,21,14,20.9,14.1
					c-0.2,0.4-0.4,0.7-0.6,1.1c0,0.1-0.1,0.2-0.1,0.2c-0.8,1.8-1.3,3.8-1.3,6c0,0,0.4-0.8,1.1-1.8c0.7,1.6,1.8,3.7,3.2,4.4l0.5-5.4
					c0,0,1.9,4.6,6.3,5v-0.9c0,0,2.3,0.7,2.9,0.7c0,0,1.2,2.6,1.5,3.7c0,0,0.2-0.4,0.4-1.2c0.2,0.2,4.3,3.4,5.1,6.7l1.1-1l0.5,4.4
					C41.5,36.1,49.4,32.2,49.2,21.4z"/>
				<radialGradient id="SVGID_6_" cx="34.0586" cy="21.4297" r="14.9335" gradientUnits="userSpaceOnUse">
					<stop  offset="0" style="stop-color:#F79554"/>
					<stop  offset="0.5" style="stop-color:#F27623"/>
					<stop  offset="1" style="stop-color:#D4632A"/>
				</radialGradient>
				<path class="st10" d="M49.2,21.4C49.1,13.3,42,6.7,33.8,6.7c-3.7,0-7.1,1.3-9.7,3.5c0,0-0.1,0.1-0.1,0.1c-0.3,0.3-0.7,0.6-1,0.9
					c-0.1,0.1-0.1,0.1-0.2,0.2c-0.3,0.3-0.5,0.6-0.8,0.9c-0.1,0.1-0.1,0.2-0.2,0.3c-0.2,0.3-0.5,0.7-0.7,1C21,13.9,21,14,20.9,14.1
					c-0.2,0.4-0.4,0.7-0.6,1.1c0,0.1-0.1,0.2-0.1,0.2c-0.8,1.8-1.3,3.8-1.3,6c0,0,0.4-0.8,1.1-1.8c0.7,1.6,1.8,3.7,3.2,4.4l0.5-5.4
					c0,0,1.9,4.6,6.3,5v-0.9c0,0,2.3,0.7,2.9,0.7c0,0,1.2,2.6,1.5,3.7c0,0,0.2-0.4,0.4-1.2c0.2,0.2,4.3,3.4,5.1,6.7l1.1-1l0.5,4.4
					C41.5,36.1,49.4,32.2,49.2,21.4z"/>
				<ellipse class="st6" cx="43.9" cy="17.3" rx="3" ry="3.8"/>
			</g>
		</g>
	</g>
	<g id="g213_4_">
		
			<linearGradient id="SVGID_7_" gradientUnits="userSpaceOnUse" x1="149.5098" y1="31.0908" x2="153.3418" y2="31.0908" gradientTransform="matrix(1 0 0 -1 -123.2197 61.4316)">
			<stop  offset="0" style="stop-color:#F8A581"/>
			<stop  offset="0.1727" style="stop-color:#F68F79"/>
			<stop  offset="0.4187" style="stop-color:#F37370"/>
			<stop  offset="0.6466" style="stop-color:#F15B69"/>
			<stop  offset="0.8475" style="stop-color:#EF4A65"/>
			<stop  offset="1" style="stop-color:#EF4464"/>
		</linearGradient>
		<ellipse class="st11" cx="28.2" cy="30.3" rx="1.9" ry="1.1"/>
	</g>
	<g id="g213_2_">
		<path class="st4" d="M26.4,25.8c0.4,0,1-0.2,1.2-0.5c0,0,0.2,1.1-1,1.6C25.7,27.3,26.4,25.8,26.4,25.8z"/>
		<path id="path209_2_" inkscape:connector-curvature="0" class="st4" d="M26.7,27.5c0,1.7-0.9,3.1-1.9,3.1c-1.1,0-1.9-1.4-1.9-3.1
			c0-1.7,0.9-3.1,1.9-3.1C25.9,24.5,26.7,25.8,26.7,27.5z"/>
		<path id="path211_4_" class="st18" d="M26.1,26c0,0.5-0.4,0.8-0.8,0.8c-0.5,0-0.8-0.4-0.8-0.8c0-0.5,0.4-0.8,0.8-0.8
			C25.7,25.1,26.1,25.5,26.1,26z"/>
	</g>
	<path class="st14" d="M24.1,33.2c-0.2,0.2-1.1,0.7-2.3,0.9c0.2,0.2,0.4,0.5,0.7,0.7c1.3-0.2,2.3-0.6,2.4-1c0.1-0.2,0.1-0.5-0.1-0.7
		C24.5,32.9,24.2,32.9,24.1,33.2z"/>
	<ellipse transform="matrix(0.9866 0.163 -0.163 0.9866 4.9813 -5.5949)" class="st0" cx="36.6" cy="27.6" rx="2.6" ry="3.1"/>
	
		<radialGradient id="SVGID_8_" cx="32.7056" cy="32.0332" r="5.2782" gradientTransform="matrix(0.9866 0.1633 -0.1633 0.9866 7.1797 -8.791)" gradientUnits="userSpaceOnUse">
		<stop  offset="0" style="stop-color:#F7D8CB"/>
		<stop  offset="0.1222" style="stop-color:#F6D2C3"/>
		<stop  offset="0.3114" style="stop-color:#F5C1AD"/>
		<stop  offset="0.544" style="stop-color:#F1A68C"/>
		<stop  offset="0.8083" style="stop-color:#ED8365"/>
		<stop  offset="1" style="stop-color:#E96648"/>
	</radialGradient>
	<path class="st12" d="M38.1,28.3c-0.2,1.4-1.4,2.4-2.6,2.2s-2-1.5-1.8-2.9c0.2-1.4,1.4-2.4,2.6-2.2C37.5,25.5,38.3,26.9,38.1,28.3z
		"/>
	
		<radialGradient id="path30-2_2_" cx="-17.9595" cy="94.6504" r="27.9886" gradientTransform="matrix(0.2042 0.9789 0.9789 -0.2042 -62.1846 76.002)" gradientUnits="userSpaceOnUse">
		<stop  offset="0" style="stop-color:#F7D8CB"/>
		<stop  offset="0.1222" style="stop-color:#F6D2C3"/>
		<stop  offset="0.3114" style="stop-color:#F5C1AD"/>
		<stop  offset="0.544" style="stop-color:#F1A68C"/>
		<stop  offset="0.8083" style="stop-color:#ED8365"/>
		<stop  offset="1" style="stop-color:#E96648"/>
	</radialGradient>
	<path id="path30-2_9_" inkscape:connector-curvature="0" class="st17" d="M36.4,42.2c1.3,0.7,2.1,1.3,2.3,3.4
		c0,1.1,1.1,0.7,1.1,0.7c1.9,0.8,1.5-0.7,1.8-1.4c0.3-0.7-1.3-3.3-4.5-4.4c-3.6-1-5.1-0.5-4.9,0.5S34.4,41.1,36.4,42.2z"/>
	<path class="st15" d="M46.9,8.6c0,0,3.1-4.3,4.5-1.6C52.4,8.8,49.4,9,46.9,8.6z"/>
	<path class="st15" d="M49.8,12c0,0,5.2-1.2,4.4,1.7C53.8,15.8,51.4,14,49.8,12z"/>
</g>
<path class="st2" d="M44.6,24.9c0.5,1.3,2.2,7.4,10.4,6.9c0,0-2.2-1.7-2.6-3.1c0,0,2.6,0.5,4.9-0.5c0,0-4.5-2.6-5.7-6.3
	c-1.1-3.5-3.1-8.2-5.7-8C43.8,14.1,43,20.7,44.6,24.9z"/>
<radialGradient id="SVGID_9_" cx="46.2715" cy="23.3047" r="9.9117" gradientTransform="matrix(0.9698 -0.1811 0.2439 0.7201 -1.7988 12.4053)" gradientUnits="userSpaceOnUse">
	<stop  offset="0" style="stop-color:#F79554"/>
	<stop  offset="0.5" style="stop-color:#F27623"/>
	<stop  offset="1" style="stop-color:#D4632A"/>
</radialGradient>
<path class="st13" d="M44.1,24.9c0.5,1.3,2.7,7.4,10.9,6.9c0,0-2.2-1.7-2.6-3.1c0,0,2.6,0.5,4.9-0.5c0,0-4.5-2.6-5.7-6.3
	c-1.1-3.5-2.8-8.7-6.2-8C41.7,14.7,43.2,22.4,44.1,24.9z"/>
</svg>
