<?xml version="1.0" encoding="iso-8859-1"?>
<!-- Generator: Adobe Illustrator 16.0.0, SVG Export Plug-In . SVG Version: 6.00 Build 0)  -->
<!DOCTYPE svg PUBLIC "-//W3C//DTD SVG 1.1//EN" "http://www.w3.org/Graphics/SVG/1.1/DTD/svg11.dtd">
<svg version="1.1" xmlns="http://www.w3.org/2000/svg" xmlns:xlink="http://www.w3.org/1999/xlink" x="0px" y="0px" width="64px"
	 height="64px" viewBox="0 0 64 64" style="enable-background:new 0 0 64 64;" xml:space="preserve">
<g id="woman_x5F_getting_x5F_haircut_x28_br_x29_">
	
		<path id="path23_74_" style="fill:#F09400;stroke:#231815;stroke-width:4.1905;stroke-linecap:round;stroke-linejoin:round;stroke-miterlimit:10;" d="
		M52.031,34.917c0,0-3.493,12.745,4.715,13.969c0,0-9.255,8.731-17.984-2.794C29.661,34.079,49.062,26.163,52.031,34.917z"/>
	
		<radialGradient id="path32_1_" cx="320.5488" cy="-339.627" r="10.3131" gradientTransform="matrix(1 0 0 -1 -274 -298)" gradientUnits="userSpaceOnUse">
		<stop  offset="0" style="stop-color:#A36C55"/>
		<stop  offset="0.3871" style="stop-color:#783E31"/>
		<stop  offset="0.6026" style="stop-color:#61331F"/>
		<stop  offset="0.8698" style="stop-color:#4D2412"/>
		<stop  offset="1" style="stop-color:#401400"/>
	</radialGradient>
	<path id="path32_53_" style="fill:url(#path32_1_);" d="M52.031,34.917c0,0-3.493,12.745,4.715,13.969
		c0,0-9.255,8.731-17.984-2.794C29.661,34.079,49.062,26.163,52.031,34.917z"/>
	
		<path id="path34_32_" style="fill:#F09400;stroke:#231815;stroke-width:4.1905;stroke-linecap:round;stroke-linejoin:round;stroke-miterlimit:10;" d="
		M12.221,34.917c0,0,3.491,12.745-4.714,13.969c0,0,9.253,8.731,17.984-2.794C34.592,34.079,15.188,26.163,12.221,34.917z"/>
	
		<radialGradient id="path43_1_" cx="-225.4536" cy="-339.627" r="10.3129" gradientTransform="matrix(-1 0 0 -1 -207.75 -298)" gradientUnits="userSpaceOnUse">
		<stop  offset="0" style="stop-color:#A36C55"/>
		<stop  offset="0.3871" style="stop-color:#783E31"/>
		<stop  offset="0.6026" style="stop-color:#61331F"/>
		<stop  offset="0.8698" style="stop-color:#4D2412"/>
		<stop  offset="1" style="stop-color:#401400"/>
	</radialGradient>
	<path id="path43_88_" style="fill:url(#path43_1_);" d="M12.221,34.917c0,0,3.491,12.745-4.714,13.969
		c0,0,9.253,8.731,17.984-2.794C34.592,34.079,15.188,26.163,12.221,34.917z"/>
	
		<radialGradient id="SVGID_1_" cx="53.0781" cy="48.1719" r="18.7446" gradientTransform="matrix(0.2193 0.9757 -0.9757 0.2193 80.0993 8.9217)" gradientUnits="userSpaceOnUse">
		<stop  offset="0" style="stop-color:#FFF89F"/>
		<stop  offset="1" style="stop-color:#F15F57"/>
	</radialGradient>
	<path style="fill:url(#SVGID_1_);stroke:#231714;stroke-width:2.9049;stroke-miterlimit:10;" d="M38.734,74.797
		c2.102-0.393,4.486-1.364,3.939-3.697c-0.535-2.279-3.215-1.995-4.008-1.796c-2.818,0.711-5.336,2.883-6.413,2.908
		c-0.924,0.023-2.117-0.892-2.588-0.519c-0.479,0.381,0.248,4.139,0.925,4.109c0.506-0.021,1.122-0.935,2.077-1.304
		C33.625,74.131,36.848,75.152,38.734,74.797z"/>
	
		<radialGradient id="SVGID_2_" cx="59.9346" cy="49.3242" r="18.747" gradientTransform="matrix(-0.2167 0.9762 0.9762 0.2167 -15.8259 2.1002)" gradientUnits="userSpaceOnUse">
		<stop  offset="0" style="stop-color:#FFF89F"/>
		<stop  offset="1" style="stop-color:#F15F57"/>
	</radialGradient>
	<path style="fill:url(#SVGID_2_);stroke:#231714;stroke-width:2.9049;stroke-miterlimit:10;" d="M25.346,74.803
		c-2.1-0.386-4.488-1.352-3.946-3.688c0.53-2.28,3.211-2.001,4.004-1.803c2.82,0.703,5.341,2.868,6.418,2.891
		c0.926,0.017,2.116-0.899,2.588-0.529c0.48,0.382-0.236,4.143-0.912,4.114c-0.507-0.021-1.127-0.931-2.083-1.298
		C30.455,74.122,27.236,75.154,25.346,74.803z"/>
	<g id="man_x5F_fairy_x28_ye_x29__54_">
		<g id="g155_54_">
			<g id="g153_91_">
				<g id="g142_60_">
					<path id="path26_93_" style="fill:#F09400;stroke:#231815;stroke-width:2.2401;stroke-miterlimit:10;" d="M54.721,27.614
						c0,12.326-10.174,22.313-22.719,22.313c-12.553,0-22.724-9.986-22.724-22.313c0-12.328,10.171-22.323,22.724-22.323
						C44.547,5.291,54.721,15.286,54.721,27.614z"/>
					
						<radialGradient id="path41_1_" cx="318.998" cy="-319.3682" r="0.7324" gradientTransform="matrix(1 0 0 -1 -274 -298)" gradientUnits="userSpaceOnUse">
						<stop  offset="0" style="stop-color:#A36C55"/>
						<stop  offset="0.3871" style="stop-color:#783E31"/>
						<stop  offset="0.6026" style="stop-color:#61331F"/>
						<stop  offset="0.8698" style="stop-color:#4D2412"/>
						<stop  offset="1" style="stop-color:#401400"/>
					</radialGradient>
					<path id="path41_73_" style="fill:url(#path41_1_);" d="M53.664,27.614C53.664,39.37,43.963,48.89,32,48.89
						c-11.969,0-21.669-9.52-21.669-21.275c0-11.757,9.7-21.288,21.669-21.288C43.963,6.326,53.664,15.857,53.664,27.614z"/>
					<path id="path43_87_" style="fill:#48140F;stroke:#231815;stroke-width:4.0401;stroke-miterlimit:10;" d="M49.654,36.038
						c0,9.976-7.826,15.848-17.475,15.848c-9.649,0-17.472-5.872-17.472-15.848c0-9.981,7.824-18.074,17.472-18.074
						C41.828,17.964,49.654,26.057,49.654,36.038z"/>
					
						<ellipse id="ellipse45_56_" transform="matrix(0.1629 -0.9866 0.9866 0.1629 5.79 80.9758)" style="fill:none;stroke:#231815;stroke-width:4.0401;stroke-miterlimit:10;" cx="50.616" cy="37.076" rx="3.771" ry="3.234"/>
					
						<radialGradient id="path52_1_" cx="379.9492" cy="-286.7017" r="6.3611" gradientTransform="matrix(0.9866 0.1633 0.1633 -0.9866 -277.4218 -307.826)" gradientUnits="userSpaceOnUse">
						<stop  offset="0" style="stop-color:#FDB913"/>
						<stop  offset="1" style="stop-color:#D63929"/>
					</radialGradient>
					<path id="path52_62_" style="fill:url(#path52_1_);" d="M53.809,37.604c-0.338,2.055-2.045,3.482-3.807,3.192
						c-1.762-0.292-2.914-2.191-2.57-4.247c0.338-2.054,2.043-3.477,3.805-3.188C52.998,33.651,54.15,35.555,53.809,37.604z"/>
					
						<ellipse id="ellipse54_77_" transform="matrix(0.163 0.9866 -0.9866 0.163 47.9148 17.6711)" style="fill:none;stroke:#231815;stroke-width:4.0401;stroke-miterlimit:10;" cx="13.542" cy="37.077" rx="3.771" ry="3.234"/>
					
						<radialGradient id="path61_1_" cx="-158.8662" cy="-375.8848" r="6.3616" gradientTransform="matrix(-0.9866 0.1633 -0.1633 -0.9866 -204.5762 -307.826)" gradientUnits="userSpaceOnUse">
						<stop  offset="0" style="stop-color:#FDB913"/>
						<stop  offset="1" style="stop-color:#D63929"/>
					</radialGradient>
					<path id="path61_59_" style="fill:url(#path61_1_);" d="M10.351,37.604c0.342,2.055,2.045,3.482,3.806,3.192
						c1.762-0.292,2.913-2.191,2.572-4.247c-0.339-2.054-2.042-3.477-3.806-3.188C11.164,33.651,10.012,35.555,10.351,37.604z"/>
					
						<path id="path34-7-5_528_" style="fill:#4C0A02;stroke:#231815;stroke-width:2.9049;stroke-linecap:round;stroke-linejoin:round;stroke-miterlimit:10;" d="
						M37.42,57.723c0.389-0.466,0.781-2.416,0-2.808c-0.779-0.39-2.766-0.935-2.766-0.935c-1.784-0.547-3.596-0.547-5.378,0
						c0,0-1.988,0.545-2.769,0.935c-0.777,0.392-0.39,2.34,0,2.808c0,0,0.702,5.612-0.777,11.38c0,0,2.258,2.648,6.235,2.648
						c3.974,0,6.236-2.648,6.236-2.648C36.721,63.335,37.42,57.723,37.42,57.723z"/>
					
						<radialGradient id="path34-7-5_1_" cx="305.9063" cy="-343.9927" r="47.6535" gradientTransform="matrix(1 0 0 -1 -274 -298)" gradientUnits="userSpaceOnUse">
						<stop  offset="0" style="stop-color:#FDB913"/>
						<stop  offset="1" style="stop-color:#D63929"/>
					</radialGradient>
					<path id="path34-7-5_527_" style="fill:url(#path34-7-5_1_);" d="M37.42,57.723c0.389-0.466,0.781-2.416,0-2.808
						c-0.779-0.39-2.766-0.935-2.766-0.935c-1.784-0.547-3.596-0.547-5.378,0c0,0-1.988,0.545-2.769,0.935
						c-0.777,0.392-0.39,2.34,0,2.808c0,0,0.702,5.612-0.777,11.38c0,0,2.258,2.36,6.235,2.36c3.974,0,6.236-2.36,6.236-2.36
						C36.721,63.335,37.42,57.723,37.42,57.723z"/>
					<linearGradient id="rect97_1_" gradientUnits="userSpaceOnUse" x1="32.0107" y1="56" x2="32.0107" y2="51.7471">
						<stop  offset="0" style="stop-color:#FDB913"/>
						<stop  offset="1" style="stop-color:#D63929"/>
					</linearGradient>
					<rect id="rect97_45_" x="30.464" y="50.825" style="fill:url(#rect97_1_);" width="3.092" height="4.509"/>
					
						<radialGradient id="path119_1_" cx="306.1807" cy="-332.9248" r="32.0138" gradientTransform="matrix(1 0 0 -1 -274 -298)" gradientUnits="userSpaceOnUse">
						<stop  offset="0" style="stop-color:#FDB913"/>
						<stop  offset="1" style="stop-color:#D63929"/>
					</radialGradient>
					<path id="path119_69_" style="fill:url(#path119_1_);" d="M49.654,36.038c0,9.976-7.826,15.848-17.475,15.848
						c-9.649,0-17.472-5.872-17.472-15.848c0-9.981,7.824-18.074,17.472-18.074C41.828,17.964,49.654,26.057,49.654,36.038z"/>
					
						<path id="path121_65_" style="fill:none;stroke:#A4414A;stroke-width:1.2121;stroke-linecap:round;stroke-linejoin:round;stroke-miterlimit:10;" d="
						M42.953,26.756c0,0-2.258-3.061-5.309,0"/>
					
						<path id="path123_178_" style="fill:none;stroke:#6A3906;stroke-width:1.2121;stroke-linecap:round;stroke-linejoin:round;stroke-miterlimit:10;" d="
						M26.667,26.756c0,0-2.262-3.061-5.31,0"/>
					
						<path id="path123_177_" style="fill:none;stroke:#231815;stroke-width:2.1787;stroke-linecap:round;stroke-linejoin:round;stroke-miterlimit:10;" d="
						M37.654,35.604c0,0,2.264,3.061,5.313,0"/>
					
						<path id="path123_176_" style="fill:none;stroke:#231815;stroke-width:2.1787;stroke-linecap:round;stroke-linejoin:round;stroke-miterlimit:10;" d="
						M21.501,35.604c0,0,2.263,3.061,5.312,0"/>
					<path id="path125_74_" style="fill:#231815;" d="M14.708,37.783c0,0-2.046-5.323-2.383-11.115
						c-0.231-4.071-0.73-6.689,2.505-10.326c3.308-3.723,8.281-8.671,17.17-8.671c8.885,0,13.862,4.948,17.172,8.671
						c3.232,3.637,2.732,6.253,2.502,10.324c-0.336,5.794-2.02,11.116-2.02,11.116c-0.473-1.584-2.779-6.002-2.779-6.002
						c-1.078,0-4.559-1.072-4.559-1.072v1.343c-7.199-0.828-10.014-6.548-10.014-6.548l-0.719,7.374
						c-4.729-2.288-7.479-9.007-7.479-9.007C16.325,29.226,15.366,37.388,14.708,37.783z"/>
					
						<radialGradient id="path140_1_" cx="305.999" cy="-319.2729" r="17.5674" gradientTransform="matrix(1 0 0 -1 -274 -298)" gradientUnits="userSpaceOnUse">
						<stop  offset="0" style="stop-color:#A36C55"/>
						<stop  offset="0.3871" style="stop-color:#783E31"/>
						<stop  offset="0.6026" style="stop-color:#61331F"/>
						<stop  offset="0.8698" style="stop-color:#4D2412"/>
						<stop  offset="1" style="stop-color:#401400"/>
					</radialGradient>
					<path id="path140_55_" style="fill:url(#path140_1_);" d="M14.708,36.038c0,0-2.209-4.08-2.549-10.534
						c-0.236-4.537-0.564-6.688,2.671-10.325c3.308-3.722,8.281-8.671,17.17-8.671c8.885,0,13.862,4.949,17.172,8.67
						c3.232,3.638,2.904,5.788,2.668,10.325c-0.338,6.455-2.186,10.534-2.186,10.534c-0.473-1.583-2.488-5.418-2.488-5.418
						c-1.078,0-4.85-1.075-4.85-1.075v1.346c-7.273-0.539-10.505-7.271-10.505-7.271l-0.809,7.805
						c-4.041-1.879-6.464-9.151-6.464-9.151C15.839,27.634,15.366,35.643,14.708,36.038z"/>
				</g>
			</g>
		</g>
		<g id="g213_295_">
			
				<linearGradient id="ellipse170_1_" gradientUnits="userSpaceOnUse" x1="316.1816" y1="-338.6167" x2="322.8457" y2="-338.6167" gradientTransform="matrix(1 0 0 -1 -274 -298)">
				<stop  offset="0" style="stop-color:#F26D6D"/>
				<stop  offset="0.1557" style="stop-color:#F35E70"/>
				<stop  offset="0.4859" style="stop-color:#F44275"/>
				<stop  offset="0.7781" style="stop-color:#F53278"/>
				<stop  offset="1" style="stop-color:#F52C79"/>
			</linearGradient>
			<ellipse id="ellipse170_53_" style="fill:url(#ellipse170_1_);" cx="45.514" cy="40.617" rx="3.332" ry="1.615"/>
			
				<linearGradient id="ellipse185_1_" gradientUnits="userSpaceOnUse" x1="-229.981" y1="-338.6167" x2="-223.314" y2="-338.6167" gradientTransform="matrix(-1 0 0 -1 -208 -298)">
				<stop  offset="0" style="stop-color:#F26D6D"/>
				<stop  offset="0.1557" style="stop-color:#F35E70"/>
				<stop  offset="0.4859" style="stop-color:#F44275"/>
				<stop  offset="0.7781" style="stop-color:#F53278"/>
				<stop  offset="1" style="stop-color:#F52C79"/>
			</linearGradient>
			<ellipse id="ellipse185_106_" style="fill:url(#ellipse185_1_);" cx="18.647" cy="40.617" rx="3.334" ry="1.615"/>
			<path id="ellipse185_105_" style="fill:#C30D23;" d="M32.01,43.704c3.103,0,5.619,0.724,5.619,1.616
				c0,0.892-2.516,2.863-5.619,2.863c-3.104,0-5.619-1.972-5.619-2.863C26.391,44.428,28.907,43.704,32.01,43.704z"/>
		</g>
		
			<path id="line200_53_" style="fill:none;stroke:#026091;stroke-width:1.2073;stroke-linecap:round;stroke-linejoin:round;stroke-miterlimit:10;" d="
			M30.927,76.005"/>
	</g>
	<g>
		<path style="fill:#E1007F;" d="M37.42,57.723c0.389-0.466,0.781-2.416,0-2.808c-0.779-0.39-2.766-0.935-2.766-0.935
			c-0.17-0.052-0.342-0.075-0.512-0.118c0.018,0.118,0.035,0.237,0.035,0.362c0,1.202-0.975,2.178-2.178,2.178
			c-1.203,0-2.179-0.976-2.179-2.178c0-0.13,0.016-0.256,0.039-0.378c-0.195,0.046-0.391,0.073-0.584,0.134
			c0,0-1.988,0.545-2.769,0.935c-0.777,0.392-0.39,2.34,0,2.808c0,0,0.702,5.612-0.777,11.38c0,0,2.258,2.36,6.235,2.36
			c3.974,0,6.236-2.36,6.236-2.36C36.721,63.335,37.42,57.723,37.42,57.723z"/>
	</g>
	
		<radialGradient id="SVGID_3_" cx="53.0781" cy="48.1719" r="18.7446" gradientTransform="matrix(0.2193 0.9757 -0.9757 0.2193 80.0993 8.9217)" gradientUnits="userSpaceOnUse">
		<stop  offset="0" style="stop-color:#FFF89F"/>
		<stop  offset="1" style="stop-color:#F15F57"/>
	</radialGradient>
	<path style="fill:url(#SVGID_3_);stroke:#231815;stroke-width:1.4524;stroke-miterlimit:10;" d="M38.734,74.797
		c2.102-0.393,4.486-1.364,3.939-3.697c-0.535-2.279-3.215-1.995-4.008-1.796c-2.818,0.711-5.336,2.883-6.413,2.908
		c-0.924,0.023-2.117-0.892-2.588-0.519c-0.479,0.381,0.248,4.139,0.925,4.109c0.506-0.021,1.122-0.935,2.077-1.304
		C33.625,74.131,36.848,75.152,38.734,74.797z"/>
	
		<radialGradient id="SVGID_4_" cx="53.0781" cy="48.1719" r="18.7446" gradientTransform="matrix(0.2193 0.9757 -0.9757 0.2193 80.0993 8.9217)" gradientUnits="userSpaceOnUse">
		<stop  offset="0" style="stop-color:#FDB913"/>
		<stop  offset="1" style="stop-color:#D63929"/>
	</radialGradient>
	<path style="fill:url(#SVGID_4_);" d="M38.734,74.797c2.102-0.393,4.486-1.364,3.939-3.697c-0.535-2.279-3.215-1.995-4.008-1.796
		c-2.818,0.711-5.336,2.883-6.413,2.908c-0.924,0.023-2.117-0.892-2.588-0.519c-0.479,0.381,0.248,4.139,0.925,4.109
		c0.506-0.021,1.122-0.935,2.077-1.304C33.625,74.131,36.848,75.152,38.734,74.797z"/>
	<path style="fill:#595757;" d="M34.436,71.212c1.189-0.678,2.656-1.517,4.23-1.908c0.791-0.196,3.471-0.477,4.002,1.804
		c0.541,2.336-1.846,3.303-3.945,3.688c-1.043,0.194-2.477-0.03-3.723-0.212L34.436,71.212z"/>
	
		<radialGradient id="path196_1_" cx="46.9863" cy="55.167" r="9.4548" gradientTransform="matrix(0.3307 1.4711 -0.839 0.1886 68.4297 -6.7953)" gradientUnits="userSpaceOnUse">
		<stop  offset="0" style="stop-color:#FDB913"/>
		<stop  offset="1" style="stop-color:#D63929"/>
	</radialGradient>
	<path id="path196_222_" style="fill:url(#path196_1_);" d="M29.833,73.323c0.229-0.304,0.998,0.306,1.117,1.613
		c0.07,0.784-0.252,1.224-0.508,1.096C30.175,75.9,29.669,73.536,29.833,73.323z"/>
	
		<radialGradient id="path196_2_" cx="51.0732" cy="57.7393" r="9.4471" gradientTransform="matrix(0.2193 0.9757 -0.9757 0.2193 80.0993 8.9217)" gradientUnits="userSpaceOnUse">
		<stop  offset="0" style="stop-color:#FDB913"/>
		<stop  offset="1" style="stop-color:#D63929"/>
	</radialGradient>
	<path id="path196_221_" style="fill:url(#path196_2_);" d="M29.379,71.522c0.293-0.233,1.104,0.104,1.099,0.991
		c-0.003,0.529-0.418,0.867-0.694,0.807C29.495,73.259,29.168,71.688,29.379,71.522z"/>
	<g>
		
			<radialGradient id="SVGID_5_" cx="59.9346" cy="49.3242" r="18.747" gradientTransform="matrix(-0.2167 0.9762 0.9762 0.2167 -15.8259 2.1002)" gradientUnits="userSpaceOnUse">
			<stop  offset="0" style="stop-color:#FFF89F"/>
			<stop  offset="1" style="stop-color:#F15F57"/>
		</radialGradient>
		<path style="fill:url(#SVGID_5_);stroke:#231815;stroke-width:1.4524;stroke-miterlimit:10;" d="M25.346,74.803
			c-2.1-0.386-4.488-1.352-3.946-3.688c0.53-2.28,3.211-2.001,4.004-1.803c2.82,0.703,5.341,2.868,6.418,2.891
			c0.926,0.017,2.116-0.899,2.588-0.529c0.48,0.382-0.236,4.143-0.912,4.114c-0.507-0.021-1.127-0.931-2.083-1.298
			C30.455,74.122,27.236,75.154,25.346,74.803z"/>
	</g>
	<g>
		
			<radialGradient id="SVGID_6_" cx="59.9346" cy="49.3242" r="18.747" gradientTransform="matrix(-0.2167 0.9762 0.9762 0.2167 -15.8259 2.1002)" gradientUnits="userSpaceOnUse">
			<stop  offset="0" style="stop-color:#FDB913"/>
			<stop  offset="1" style="stop-color:#D63929"/>
		</radialGradient>
		<path style="fill:url(#SVGID_6_);" d="M25.346,74.803c-2.1-0.386-4.488-1.352-3.946-3.688c0.53-2.28,3.211-2.001,4.004-1.803
			c2.82,0.703,5.341,2.868,6.418,2.891c0.926,0.017,2.116-0.899,2.588-0.529c0.48,0.382-0.236,4.143-0.912,4.114
			c-0.507-0.021-1.127-0.931-2.083-1.298C30.455,74.122,27.236,75.154,25.346,74.803z"/>
		
			<radialGradient id="path196_3_" cx="51.541" cy="55.1455" r="9.4559" gradientTransform="matrix(-0.3267 1.472 0.8395 0.1863 -3.0623 -13.4094)" gradientUnits="userSpaceOnUse">
			<stop  offset="0" style="stop-color:#FDB913"/>
			<stop  offset="1" style="stop-color:#D63929"/>
		</radialGradient>
		<path id="path196_220_" style="fill:url(#path196_3_);" d="M34.246,73.303c-0.232-0.3-0.998,0.313-1.113,1.621
			c-0.066,0.783,0.256,1.219,0.51,1.094C33.912,75.884,34.41,73.52,34.246,73.303z"/>
		
			<radialGradient id="path196_4_" cx="57.9287" cy="58.8984" r="9.4377" gradientTransform="matrix(-0.2167 0.9762 0.9762 0.2167 -15.8259 2.1002)" gradientUnits="userSpaceOnUse">
			<stop  offset="0" style="stop-color:#FDB913"/>
			<stop  offset="1" style="stop-color:#D63929"/>
		</radialGradient>
		<path id="path196_219_" style="fill:url(#path196_4_);" d="M34.695,71.502c-0.293-0.23-1.104,0.107-1.096,0.995
			c0.006,0.53,0.418,0.868,0.697,0.806C34.584,73.238,34.906,71.668,34.695,71.502z"/>
	</g>
	<path style="fill:#595757;" d="M29.631,71.218c-1.188-0.676-2.656-1.516-4.228-1.906c-0.793-0.198-3.474-0.478-4.004,1.803
		c-0.542,2.337,1.847,3.303,3.946,3.688c1.041,0.194,2.476-0.03,3.723-0.212L29.631,71.218z"/>
	
		<path id="path30-2_538_" style="fill:none;stroke:#231815;stroke-width:1.4524;stroke-linecap:round;stroke-linejoin:round;stroke-miterlimit:10;" d="
		M37.393,61.091c-0.244,2.173-0.416,5.063-1.914,6.037c-1.816,1.18-1.906,1.634-1.771,2.044c0.387,1.157,1.633-0.093,3.723-0.183
		c0.861-0.091,1.914-1.012,2.359-6.899c0.297-5.024-0.938-6.718-1.482-7.383C38.307,54.707,37.756,57.884,37.393,61.091z"/>
	
		<radialGradient id="path30-2_1_" cx="313.6504" cy="-344.1289" r="40.528" gradientTransform="matrix(-0.8385 0.5448 -0.5448 -0.8385 112.3008 -412.3882)" gradientUnits="userSpaceOnUse">
		<stop  offset="0" style="stop-color:#FDB913"/>
		<stop  offset="1" style="stop-color:#D63929"/>
	</radialGradient>
	<path id="path30-2_537_" style="fill:url(#path30-2_1_);" d="M36.957,61c-0.244,2.173-0.27,5.153-1.768,6.128
		c-1.816,1.18-1.908,1.634-1.771,2.044c0.387,1.157,1.635-0.093,3.723-0.183c0.861-0.091,1.912-1.012,2.359-6.899
		c0.408-5.492-1.225-7.035-2.02-7.135C36.051,54.776,37.23,58.596,36.957,61z"/>
	
		<path id="path30-2_536_" style="fill:none;stroke:#231815;stroke-width:1.4524;stroke-linecap:round;stroke-linejoin:round;stroke-miterlimit:10;" d="
		M26.595,61.091c0.245,2.173,0.415,5.063,1.915,6.037c1.814,1.18,1.905,1.634,1.77,2.044c-0.386,1.157-1.634-0.093-3.722-0.183
		c-0.862-0.091-1.913-1.012-2.36-6.899c-0.296-5.024,0.938-6.718,1.482-7.383C25.68,54.707,26.232,57.884,26.595,61.091z"/>
	
		<radialGradient id="path30-2_2_" cx="308.1543" cy="-347.7012" r="40.528" gradientTransform="matrix(0.8385 0.5448 0.5448 -0.8385 -41.7598 -412.3882)" gradientUnits="userSpaceOnUse">
		<stop  offset="0" style="stop-color:#FDB913"/>
		<stop  offset="1" style="stop-color:#D63929"/>
	</radialGradient>
	<path id="path30-2_535_" style="fill:url(#path30-2_2_);" d="M27.029,61c0.246,2.173,0.271,5.153,1.771,6.128
		c1.815,1.18,1.906,1.634,1.771,2.044c-0.386,1.157-1.635-0.093-3.723-0.183c-0.862-0.091-1.913-1.012-2.36-6.899
		c-0.407-5.492,1.226-7.035,2.021-7.135C27.936,54.776,26.756,58.596,27.029,61z"/>
	<g id="g153_90_">
		<g id="g151_36_">
			<path id="path149_47_" style="fill:#231815;" d="M20.46,35.293c-0.481,0.425-1.294,0.724-1.765,0.603
				c0,0,0.888,1.407,2.642,0.813C22.744,36.233,20.46,35.293,20.46,35.293z"/>
		</g>
	</g>
	<g id="g153_89_">
		<g id="g151_35_">
			<path id="path149_46_" style="fill:#231815;" d="M43.861,35.293c0.486,0.425,1.295,0.724,1.768,0.603
				c0,0-0.887,1.407-2.645,0.813C41.58,36.233,43.861,35.293,43.861,35.293z"/>
		</g>
	</g>
	<g>
		
			<radialGradient id="SVGID_7_" cx="-11.9541" cy="32.3271" r="8.4364" gradientTransform="matrix(0.0011 1 -1 0.0011 71.0845 28.6235)" gradientUnits="userSpaceOnUse">
			<stop  offset="0" style="stop-color:#E5E2DF"/>
			<stop  offset="0" style="stop-color:#F1EFEE"/>
			<stop  offset="0" style="stop-color:#FFFFFF"/>
			<stop  offset="0.1259" style="stop-color:#F0F0F1"/>
			<stop  offset="0.3664" style="stop-color:#C9CACB"/>
			<stop  offset="0.5225" style="stop-color:#ADAEB0"/>
			<stop  offset="0.6029" style="stop-color:#A3A5A7"/>
			<stop  offset="0.7382" style="stop-color:#898D90"/>
			<stop  offset="0.9108" style="stop-color:#5F6769"/>
			<stop  offset="1" style="stop-color:#465053"/>
		</radialGradient>
		
			<polygon style="fill:url(#SVGID_7_);stroke:#231815;stroke-width:3;stroke-linecap:round;stroke-linejoin:round;stroke-miterlimit:10;" points="
			26.937,18.414 31.89,15.016 50.552,14.996 50.556,18.389 		"/>
		
			<radialGradient id="SVGID_8_" cx="105.2188" cy="-16.5869" r="8.4364" gradientTransform="matrix(-0.7052 -0.7091 -0.7091 0.7052 102.6327 106.5253)" gradientUnits="userSpaceOnUse">
			<stop  offset="0" style="stop-color:#E5E2DF"/>
			<stop  offset="0" style="stop-color:#F1EFEE"/>
			<stop  offset="0" style="stop-color:#FFFFFF"/>
			<stop  offset="0.1259" style="stop-color:#F0F0F1"/>
			<stop  offset="0.3664" style="stop-color:#C9CACB"/>
			<stop  offset="0.5225" style="stop-color:#ADAEB0"/>
			<stop  offset="0.6029" style="stop-color:#A3A5A7"/>
			<stop  offset="0.7382" style="stop-color:#898D90"/>
			<stop  offset="0.9108" style="stop-color:#5F6769"/>
			<stop  offset="1" style="stop-color:#465053"/>
		</radialGradient>
		
			<polygon style="fill:url(#SVGID_8_);stroke:#231815;stroke-width:3;stroke-linecap:round;stroke-linejoin:round;stroke-miterlimit:10;" points="
			30.624,27.342 36.533,26.25 49.766,13.092 47.373,10.686 		"/>
		<path style="fill:#3E3A39;stroke:#231815;stroke-width:3;stroke-linecap:round;stroke-linejoin:round;stroke-miterlimit:10;" d="
			M56,4.989c-1.754-1.969-5.326-1.649-7.979,0.716c-2.653,2.364-3.382,5.875-1.628,7.845c1.753,1.968,5.326,1.647,7.979-0.717
			C57.025,10.47,57.754,6.957,56,4.989z M48.817,11.39c-0.868-0.975-0.507-2.714,0.808-3.885c1.314-1.171,3.082-1.332,3.951-0.354
			c0.868,0.974,0.508,2.714-0.807,3.884C51.456,12.205,49.686,12.363,48.817,11.39z"/>
		<path style="fill:#3E3A39;stroke:#231815;stroke-width:3;stroke-linecap:round;stroke-linejoin:round;stroke-miterlimit:10;" d="
			M61.019,16.171c-0.244-2.625-3.309-4.487-6.849-4.158c-3.538,0.329-6.209,2.724-5.965,5.348c0.244,2.625,3.309,4.488,6.849,4.159
			C58.593,21.19,61.263,18.796,61.019,16.171z M51.439,17.062c-0.121-1.301,1.201-2.488,2.953-2.65
			c1.753-0.164,3.271,0.759,3.392,2.06c0.121,1.3-1.201,2.486-2.954,2.648C53.078,19.282,51.56,18.36,51.439,17.062z"/>
		<path style="fill:#3E3A39;stroke:#231815;stroke-width:3;stroke-linecap:round;stroke-linejoin:round;stroke-miterlimit:10;" d="
			M56,4.989c-1.754-1.969-5.326-1.649-7.979,0.716c-2.653,2.364-3.382,5.875-1.628,7.845c1.753,1.968,5.326,1.647,7.979-0.717
			C57.025,10.47,57.754,6.957,56,4.989z M48.817,11.39c-0.868-0.975-0.507-2.714,0.808-3.885c1.314-1.171,3.082-1.332,3.951-0.354
			c0.868,0.974,0.508,2.714-0.807,3.884C51.456,12.205,49.686,12.363,48.817,11.39z"/>
		<path style="fill:#3E3A39;stroke:#231815;stroke-width:3;stroke-linecap:round;stroke-linejoin:round;stroke-miterlimit:10;" d="
			M61.019,16.171c-0.244-2.625-3.309-4.487-6.849-4.158c-3.538,0.329-6.209,2.724-5.965,5.348c0.244,2.625,3.309,4.488,6.849,4.159
			C58.593,21.19,61.263,18.796,61.019,16.171z M51.439,17.062c-0.121-1.301,1.201-2.488,2.953-2.65
			c1.753-0.164,3.271,0.759,3.392,2.06c0.121,1.3-1.201,2.486-2.954,2.648C53.078,19.282,51.56,18.36,51.439,17.062z"/>
		
			<radialGradient id="SVGID_9_" cx="-11.9541" cy="32.3271" r="8.4364" gradientTransform="matrix(0.0011 1 -1 0.0011 71.0845 28.6235)" gradientUnits="userSpaceOnUse">
			<stop  offset="0" style="stop-color:#E5E2DF"/>
			<stop  offset="0" style="stop-color:#F1EFEE"/>
			<stop  offset="0" style="stop-color:#FFFFFF"/>
			<stop  offset="0.1259" style="stop-color:#F0F0F1"/>
			<stop  offset="0.3664" style="stop-color:#C9CACB"/>
			<stop  offset="0.5225" style="stop-color:#ADAEB0"/>
			<stop  offset="0.6029" style="stop-color:#A3A5A7"/>
			<stop  offset="0.7382" style="stop-color:#898D90"/>
			<stop  offset="0.9108" style="stop-color:#5F6769"/>
			<stop  offset="1" style="stop-color:#465053"/>
		</radialGradient>
		<polygon style="fill:url(#SVGID_9_);" points="26.937,18.414 31.89,15.016 50.552,14.996 50.556,18.389 		"/>
		<path style="fill:#3E3A39;" d="M50.552,14.996L47.111,15c-0.336,0.803-0.479,1.653-0.399,2.5c0.028,0.306,0.093,0.603,0.174,0.893
			l3.67-0.004L50.552,14.996z"/>
		<polygon style="fill:#595757;" points="42,15.005 38.586,18.402 43.4,18.396 46.819,15 		"/>
		
			<radialGradient id="SVGID_10_" cx="105.2188" cy="-16.5869" r="8.4364" gradientTransform="matrix(-0.7052 -0.7091 -0.7091 0.7052 102.6327 106.5253)" gradientUnits="userSpaceOnUse">
			<stop  offset="0" style="stop-color:#E5E2DF"/>
			<stop  offset="0" style="stop-color:#F1EFEE"/>
			<stop  offset="0" style="stop-color:#FFFFFF"/>
			<stop  offset="0.1259" style="stop-color:#F0F0F1"/>
			<stop  offset="0.3664" style="stop-color:#C9CACB"/>
			<stop  offset="0.5225" style="stop-color:#ADAEB0"/>
			<stop  offset="0.6029" style="stop-color:#A3A5A7"/>
			<stop  offset="0.7382" style="stop-color:#898D90"/>
			<stop  offset="0.9108" style="stop-color:#5F6769"/>
			<stop  offset="1" style="stop-color:#465053"/>
		</radialGradient>
		<polygon style="fill:url(#SVGID_10_);" points="30.624,27.342 36.533,26.25 49.766,13.092 47.373,10.686 		"/>
		<path style="fill:#3E3A39;" d="M49.766,13.092l-2.393-2.406l-2.822,2.806c0.193,0.377,0.433,0.731,0.722,1.056
			c0.446,0.501,0.987,0.898,1.593,1.194c-0.024,0.094-0.03,0.19-0.05,0.284L49.766,13.092z"/>
		<path style="fill:#595757;" d="M56,4.989c-1.754-1.969-5.326-1.649-7.979,0.716c-2.653,2.364-3.382,5.875-1.628,7.845
			c1.753,1.968,5.326,1.647,7.979-0.717C57.025,10.47,57.754,6.957,56,4.989z M48.817,11.39c-0.868-0.975-0.507-2.714,0.808-3.885
			c1.314-1.171,3.082-1.332,3.951-0.354c0.868,0.974,0.508,2.714-0.807,3.884C51.456,12.205,49.686,12.363,48.817,11.39z"/>
		<path style="fill:#595757;" d="M61.019,16.171c-0.244-2.625-3.309-4.487-6.849-4.158c-3.538,0.329-6.209,2.724-5.965,5.348
			c0.244,2.625,3.309,4.488,6.849,4.159C58.593,21.19,61.263,18.796,61.019,16.171z M51.439,17.062
			c-0.121-1.301,1.201-2.488,2.953-2.65c1.753-0.164,3.271,0.759,3.392,2.06c0.121,1.3-1.201,2.486-2.954,2.648
			C53.078,19.282,51.56,18.36,51.439,17.062z"/>
		
			<radialGradient id="SVGID_11_" cx="26.0239" cy="-4.022" r="1.4575" gradientTransform="matrix(0.3819 0.9242 -0.9242 0.3819 30.0144 -5.8255)" gradientUnits="userSpaceOnUse">
			<stop  offset="0" style="stop-color:#E5E2DF"/>
			<stop  offset="0" style="stop-color:#F1EFEE"/>
			<stop  offset="0" style="stop-color:#FFFFFF"/>
			<stop  offset="0.1259" style="stop-color:#F0F0F1"/>
			<stop  offset="0.3664" style="stop-color:#C9CACB"/>
			<stop  offset="0.5225" style="stop-color:#ADAEB0"/>
			<stop  offset="0.6029" style="stop-color:#A3A5A7"/>
			<stop  offset="0.7382" style="stop-color:#898D90"/>
			<stop  offset="0.9108" style="stop-color:#5F6769"/>
			<stop  offset="1" style="stop-color:#465053"/>
		</radialGradient>
		<circle style="fill:url(#SVGID_11_);" cx="43.67" cy="16.691" r="1.457"/>
	</g>
</g>
<g id="Layer_1">
</g>
</svg>
