<?xml version="1.0" encoding="iso-8859-1"?>
<!-- Generator: Adobe Illustrator 16.0.0, SVG Export Plug-In . SVG Version: 6.00 Build 0)  -->
<!DOCTYPE svg PUBLIC "-//W3C//DTD SVG 1.1//EN" "http://www.w3.org/Graphics/SVG/1.1/DTD/svg11.dtd">
<svg version="1.1" xmlns="http://www.w3.org/2000/svg" xmlns:xlink="http://www.w3.org/1999/xlink" x="0px" y="0px" width="64px"
	 height="64px" viewBox="0 0 64 64" style="enable-background:new 0 0 64 64;" xml:space="preserve">
<g id="woman_x5F_weight_x5F_lifting_x28_br_x29_">
	
		<path id="path23_103_" style="fill:#F09400;stroke:#231815;stroke-width:3;stroke-linecap:round;stroke-linejoin:round;stroke-miterlimit:10;" d="
		M46.375,27.875c0,0-2.5,9.125,3.375,10c0,0-6.625,6.25-12.875-2C30.36,27.275,44.25,21.625,46.375,27.875z"/>
	
		<radialGradient id="path32_1_" cx="316.4502" cy="-330.6816" r="7.3808" gradientTransform="matrix(1 0 0 -1 -274 -298)" gradientUnits="userSpaceOnUse">
		<stop  offset="0" style="stop-color:#A36C55"/>
		<stop  offset="0.3871" style="stop-color:#783E31"/>
		<stop  offset="0.6026" style="stop-color:#61331F"/>
		<stop  offset="0.8698" style="stop-color:#4D2412"/>
		<stop  offset="1" style="stop-color:#401400"/>
	</radialGradient>
	<path id="path32_63_" style="fill:url(#path32_1_);" d="M46.375,27.875c0,0-2.5,9.125,3.375,10c0,0-6.625,6.25-12.875-2
		C30.36,27.275,44.25,21.625,46.375,27.875z"/>
	
		<path id="path34_15_" style="fill:#F09400;stroke:#231815;stroke-width:3;stroke-linecap:round;stroke-linejoin:round;stroke-miterlimit:10;" d="
		M17.875,27.875c0,0,2.5,9.125-3.375,10c0,0,6.625,6.25,12.875-2C33.891,27.275,20,21.625,17.875,27.875z"/>
	
		<radialGradient id="path43_1_" cx="-229.5498" cy="-330.6816" r="7.3808" gradientTransform="matrix(-1 0 0 -1 -207.75 -298)" gradientUnits="userSpaceOnUse">
		<stop  offset="0" style="stop-color:#A36C55"/>
		<stop  offset="0.3871" style="stop-color:#783E31"/>
		<stop  offset="0.6026" style="stop-color:#61331F"/>
		<stop  offset="0.8698" style="stop-color:#4D2412"/>
		<stop  offset="1" style="stop-color:#401400"/>
	</radialGradient>
	<path id="path43_114_" style="fill:url(#path43_1_);" d="M17.875,27.875c0,0,2.5,9.125-3.375,10c0,0,6.625,6.25,12.875-2
		C33.891,27.275,20,21.625,17.875,27.875z"/>
	<g id="g105_20_">
		
			<ellipse id="ellipse99_19_" style="fill:#231815;stroke:#231815;stroke-width:1.8499;stroke-linecap:round;stroke-linejoin:round;stroke-miterlimit:10;" cx="32.071" cy="51.381" rx="4.469" ry="3.375"/>
		
			<path id="path101_32_" style="fill:#231815;stroke:#231815;stroke-width:1.8499;stroke-linecap:round;stroke-linejoin:round;stroke-miterlimit:10;" d="
			M31.568,51.068c0.001,5.781-1.492,10.472-2.37,10.472c-0.876,0-1.589-4.688-1.59-10.472H31.568z"/>
		
			<path id="path103_31_" style="fill:#231815;stroke:#231815;stroke-width:1.8499;stroke-linecap:round;stroke-linejoin:round;stroke-miterlimit:10;" d="
			M32.598,51.068c0,5.781,1.494,10.472,2.371,10.472s1.59-4.688,1.592-10.472H32.598z"/>
	</g>
	<g id="man_x5F_fairy_x28_ye_x29__75_">
		<g id="g155_75_">
			<g id="g153_118_">
				<g id="g142_84_">
					<path id="path26_127_" style="fill:#F09400;stroke:#231815;stroke-width:1.5423;stroke-miterlimit:10;" d="M47.643,22.566
						c0,8.486-7.004,15.357-15.642,15.357c-8.642,0-15.645-6.871-15.645-15.357c0-8.487,7.003-15.369,15.645-15.369
						C40.639,7.197,47.643,14.079,47.643,22.566z"/>
					
						<radialGradient id="path41_1_" cx="314.9492" cy="-316.2642" r="0.5042" gradientTransform="matrix(1 0 0 -1 -274 -298)" gradientUnits="userSpaceOnUse">
						<stop  offset="0" style="stop-color:#A36C55"/>
						<stop  offset="0.3871" style="stop-color:#783E31"/>
						<stop  offset="0.6026" style="stop-color:#61331F"/>
						<stop  offset="0.8698" style="stop-color:#4D2412"/>
						<stop  offset="1" style="stop-color:#401400"/>
					</radialGradient>
					<path id="path41_96_" style="fill:url(#path41_1_);" d="M46.916,22.566c0,8.093-6.68,14.643-14.916,14.643
						c-8.24,0-14.919-6.55-14.919-14.643C17.081,14.472,23.76,7.91,32,7.91C40.236,7.91,46.916,14.472,46.916,22.566z"/>
					<path id="path43_110_" style="fill:#48140F;stroke:#231815;stroke-width:2.7816;stroke-miterlimit:10;" d="M44.156,28.365
						c0,6.864-5.389,10.907-12.032,10.907c-6.644,0-12.03-4.043-12.03-10.907c0-6.871,5.387-12.443,12.03-12.443
						C38.768,15.922,44.156,21.494,44.156,28.365z"/>
					
						<ellipse id="ellipse45_76_" transform="matrix(0.1629 -0.9866 0.9866 0.1629 8.8266 68.5611)" style="fill:none;stroke:#231815;stroke-width:2.7816;stroke-miterlimit:10;" cx="44.817" cy="29.079" rx="2.596" ry="2.226"/>
					
						<radialGradient id="path52_1_" cx="372.9219" cy="-279.7583" r="4.3796" gradientTransform="matrix(0.9866 0.1633 0.1633 -0.9866 -277.4218 -307.826)" gradientUnits="userSpaceOnUse">
						<stop  offset="0" style="stop-color:#FDB913"/>
						<stop  offset="1" style="stop-color:#D63929"/>
					</radialGradient>
					<path id="path52_86_" style="fill:url(#path52_1_);" d="M47.016,29.442c-0.233,1.415-1.408,2.399-2.621,2.198
						c-1.213-0.201-2.006-1.509-1.771-2.924c0.233-1.413,1.408-2.394,2.619-2.195C46.457,26.722,47.25,28.031,47.016,29.442z"/>
					
						<ellipse id="ellipse54_115_" transform="matrix(0.163 0.9866 -0.9866 0.163 44.8386 5.3066)" style="fill:none;stroke:#231815;stroke-width:2.7816;stroke-miterlimit:10;" cx="19.292" cy="29.08" rx="2.596" ry="2.226"/>
					
						<radialGradient id="path61_1_" cx="-165.8452" cy="-368.9331" r="4.3799" gradientTransform="matrix(-0.9866 0.1633 -0.1633 -0.9866 -204.5762 -307.826)" gradientUnits="userSpaceOnUse">
						<stop  offset="0" style="stop-color:#FDB913"/>
						<stop  offset="1" style="stop-color:#D63929"/>
					</radialGradient>
					<path id="path61_80_" style="fill:url(#path61_1_);" d="M17.095,29.442c0.235,1.415,1.408,2.399,2.62,2.198
						c1.213-0.201,2.006-1.509,1.771-2.924c-0.233-1.413-1.406-2.394-2.62-2.195C17.655,26.722,16.862,28.031,17.095,29.442z"/>
					
						<path id="path34-7-5_311_" style="fill:#4C0A02;stroke:#231815;stroke-width:2;stroke-linecap:round;stroke-linejoin:round;stroke-miterlimit:10;" d="
						M35.732,42.494c0.268-0.322,0.537-1.664,0-1.934c-0.537-0.269-1.904-0.644-1.904-0.644c-1.229-0.377-2.477-0.377-3.704,0
						c0,0-1.369,0.375-1.906,0.644c-0.535,0.27-0.268,1.61,0,1.934c0,0,0.484,3.863-0.535,7.834c0,0,1.555,1.824,4.293,1.824
						c2.736,0,4.293-1.824,4.293-1.824C35.25,46.357,35.732,42.494,35.732,42.494z"/>
					
						<radialGradient id="path34-7-5_1_" cx="305.9355" cy="-332.418" r="32.8077" gradientTransform="matrix(1 0 0 -1 -274 -298)" gradientUnits="userSpaceOnUse">
						<stop  offset="0" style="stop-color:#FDB913"/>
						<stop  offset="1" style="stop-color:#D63929"/>
					</radialGradient>
					<path id="path34-7-5_310_" style="fill:url(#path34-7-5_1_);" d="M35.732,42.494c0.268-0.322,0.537-1.664,0-1.934
						c-0.537-0.269-1.904-0.644-1.904-0.644c-1.229-0.377-2.477-0.377-3.704,0c0,0-1.369,0.375-1.906,0.644
						c-0.535,0.27-0.268,1.61,0,1.934c0,0,0.484,3.863-0.535,7.834c0,0,1.555,1.625,4.293,1.625c2.736,0,4.293-1.625,4.293-1.625
						C35.25,46.357,35.732,42.494,35.732,42.494z"/>
					<linearGradient id="rect97_1_" gradientUnits="userSpaceOnUse" x1="32.0073" y1="41.3955" x2="32.0073" y2="39.2468">
						<stop  offset="0" style="stop-color:#FDB913"/>
						<stop  offset="1" style="stop-color:#D63929"/>
					</linearGradient>
					<rect id="rect97_66_" x="30.943" y="37.745" style="fill:url(#rect97_1_);" width="2.128" height="3.104"/>
					
						<radialGradient id="path119_1_" cx="306.125" cy="-325.5967" r="22.0395" gradientTransform="matrix(1 0 0 -1 -274 -298)" gradientUnits="userSpaceOnUse">
						<stop  offset="0" style="stop-color:#FDB913"/>
						<stop  offset="1" style="stop-color:#D63929"/>
					</radialGradient>
					<path id="path119_104_" style="fill:url(#path119_1_);" d="M44.156,28.365c0,6.864-5.389,10.907-12.032,10.907
						c-6.644,0-12.03-4.043-12.03-10.907c0-6.871,5.387-12.443,12.03-12.443C38.768,15.922,44.156,21.494,44.156,28.365z"/>
					
						<path id="path121_86_" style="fill:none;stroke:#A4414A;stroke-width:0.8345;stroke-linecap:round;stroke-linejoin:round;stroke-miterlimit:10;" d="
						M39.541,21.976c0,0-1.555-2.108-3.654,0"/>
					
						<path id="path123_220_" style="fill:none;stroke:#A4414A;stroke-width:0.8345;stroke-linecap:round;stroke-linejoin:round;stroke-miterlimit:10;" d="
						M28.329,21.976c0,0-1.557-2.108-3.656,0"/>
					<path id="path125_98_" style="fill:#231815;" d="M20.094,29.566c0,0-1.408-3.665-1.64-7.651
						c-0.16-2.803-0.503-4.605,1.724-7.109c2.278-2.563,5.702-5.97,11.822-5.97c6.117,0,9.544,3.407,11.822,5.969
						c2.227,2.504,1.883,4.306,1.723,7.109c-0.23,3.987-1.389,7.651-1.389,7.651c-0.326-1.09-1.914-4.131-1.914-4.131
						c-0.742,0-3.139-0.739-3.139-0.739v0.925c-4.957-0.57-6.896-4.507-6.896-4.507l-0.494,5.075
						c-3.256-1.575-5.15-6.199-5.15-6.199C21.208,23.676,20.548,29.293,20.094,29.566z"/>
					
						<radialGradient id="path140_1_" cx="306" cy="-316.1997" r="12.0945" gradientTransform="matrix(1 0 0 -1 -274 -298)" gradientUnits="userSpaceOnUse">
						<stop  offset="0" style="stop-color:#A36C55"/>
						<stop  offset="0.3871" style="stop-color:#783E31"/>
						<stop  offset="0.6026" style="stop-color:#61331F"/>
						<stop  offset="0.8698" style="stop-color:#4D2412"/>
						<stop  offset="1" style="stop-color:#401400"/>
					</radialGradient>
					<path id="path140_76_" style="fill:url(#path140_1_);" d="M20.094,28.365c0,0-1.521-2.809-1.754-7.251
						c-0.163-3.124-0.389-4.605,1.838-7.109c2.278-2.563,5.702-5.97,11.822-5.97c6.117,0,9.544,3.407,11.822,5.969
						c2.227,2.504,2,3.985,1.838,7.109c-0.232,4.442-1.504,7.251-1.504,7.251c-0.326-1.09-1.715-3.73-1.715-3.73
						c-0.742,0-3.338-0.739-3.338-0.739v0.925c-5.008-0.37-7.233-5.005-7.233-5.005l-0.557,5.372
						c-2.782-1.292-4.45-6.299-4.45-6.299C20.874,22.58,20.548,28.092,20.094,28.365z"/>
				</g>
			</g>
		</g>
		<g id="g213_373_">
			
				<linearGradient id="ellipse170_1_" gradientUnits="userSpaceOnUse" x1="313.0098" y1="-329.5166" x2="317.5977" y2="-329.5166" gradientTransform="matrix(1 0 0 -1 -274 -298)">
				<stop  offset="0" style="stop-color:#F26D6D"/>
				<stop  offset="0.1557" style="stop-color:#F35E70"/>
				<stop  offset="0.4859" style="stop-color:#F44275"/>
				<stop  offset="0.7781" style="stop-color:#F53278"/>
				<stop  offset="1" style="stop-color:#F52C79"/>
			</linearGradient>
			<ellipse id="ellipse170_74_" style="fill:url(#ellipse170_1_);" cx="41.305" cy="31.517" rx="2.293" ry="1.112"/>
			
				<linearGradient id="ellipse185_1_" gradientUnits="userSpaceOnUse" x1="-233.1021" y1="-329.5166" x2="-228.5122" y2="-329.5166" gradientTransform="matrix(-1 0 0 -1 -208 -298)">
				<stop  offset="0" style="stop-color:#F26D6D"/>
				<stop  offset="0.1557" style="stop-color:#F35E70"/>
				<stop  offset="0.4859" style="stop-color:#F44275"/>
				<stop  offset="0.7781" style="stop-color:#F53278"/>
				<stop  offset="1" style="stop-color:#F52C79"/>
			</linearGradient>
			<ellipse id="ellipse185_148_" style="fill:url(#ellipse185_1_);" cx="22.807" cy="31.517" rx="2.295" ry="1.112"/>
			<path id="ellipse185_147_" style="fill:#C30D23;" d="M32.008,33.639c2.136,0,3.868,0.498,3.868,1.112s-1.732,1.972-3.868,1.972
				c-2.137,0-3.869-1.357-3.869-1.972S29.871,33.639,32.008,33.639z"/>
		</g>
		
			<path id="line200_88_" style="fill:none;stroke:#026091;stroke-width:0.8312;stroke-linecap:round;stroke-linejoin:round;stroke-miterlimit:10;" d="
			M31.261,55.081"/>
	</g>
	<ellipse id="ellipse107_17_" style="fill:#A20B5E;" cx="32.071" cy="51.281" rx="4.469" ry="3.375"/>
	<path id="path191_23_" style="fill:#A20B5E;" d="M31.568,51.068c0.001,5.781-1.492,10.472-2.37,10.472
		c-0.876,0-1.589-4.688-1.59-10.472H31.568z"/>
	<path id="path193_24_" style="fill:#A20B5E;" d="M32.598,51.068c0,5.781,1.494,10.472,2.371,10.472s1.59-4.688,1.592-10.472H32.598
		z"/>
	<path id="path196_264_" style="fill:#40120D;" d="M33.393,62.501c0-1.163,0.945-2.106,2.107-2.106c1.164,0,2.107,0.943,2.107,2.106
		H33.393z"/>
	<path id="path198_20_" style="fill:#40120D;" d="M26.642,62.501c0-1.163,0.943-2.106,2.107-2.106s2.107,0.943,2.107,2.106H26.642z"
		/>
	
		<line id="line200_87_" style="fill:none;stroke:#40120D;stroke-width:0.8312;stroke-linecap:round;stroke-linejoin:round;stroke-miterlimit:10;" x1="31.261" y1="55.081" x2="32.971" y2="55.081"/>
	<g>
		<path style="fill:#E1007F;" d="M35.732,42.494c0.268-0.322,0.537-1.664,0-1.934c-0.537-0.269-1.904-0.644-1.904-0.644
			c-0.117-0.036-0.235-0.052-0.354-0.081c0.014,0.081,0.025,0.163,0.025,0.248c0,0.828-0.671,1.5-1.5,1.5s-1.5-0.672-1.5-1.5
			c0-0.089,0.011-0.175,0.026-0.259c-0.134,0.031-0.269,0.051-0.402,0.092c0,0-1.369,0.375-1.906,0.644
			c-0.535,0.27-0.268,1.61,0,1.934c0,0,0.484,3.863-0.535,7.834c0,0,1.555,1.625,4.293,1.625c2.736,0,4.293-1.625,4.293-1.625
			C35.25,46.357,35.732,42.494,35.732,42.494z"/>
	</g>
	<g id="g116_20_">
		<g id="g114_21_">
			<g id="g213_372_">
				<path id="path138_7_" style="fill:#160201;" d="M39.218,26.824c0.438-0.005,0.984-0.224,1.166-0.5c0,0,0.193,1.114-0.963,1.614
					C38.497,28.338,39.218,26.824,39.218,26.824z"/>
				<g id="g153_122_">
					<g id="g151_44_">
						<path id="path149_12_" style="fill:#160201;" d="M25.003,26.824c-0.438-0.005-0.984-0.224-1.167-0.5
							c0,0-0.193,1.114,0.963,1.614C25.724,28.338,25.003,26.824,25.003,26.824z"/>
					</g>
				</g>
				<path id="path209_230_" style="fill:#160201;" d="M39.676,28.725c0,1.703-0.873,3.086-1.947,3.086
					c-1.078,0-1.949-1.383-1.949-3.086c0-1.713,0.871-3.099,1.949-3.099C38.803,25.627,39.676,27.012,39.676,28.725z"/>
				<path id="path211_181_" style="fill:#FFFFFF;" d="M39.064,27.127c0,0.462-0.373,0.834-0.838,0.834
					c-0.461,0-0.834-0.372-0.834-0.834c0-0.461,0.373-0.836,0.834-0.836C38.691,26.291,39.064,26.666,39.064,27.127z"/>
			</g>
			<g id="g213_371_">
				<path id="path209_148_" style="fill:#160201;" d="M28.495,28.725c0,1.703-0.873,3.086-1.947,3.086
					c-1.078,0-1.949-1.383-1.949-3.086c0-1.713,0.871-3.099,1.949-3.099C27.622,25.627,28.495,27.012,28.495,28.725z"/>
				<path id="path211_180_" style="fill:#FFFFFF;" d="M27.884,27.127c0,0.462-0.373,0.834-0.838,0.834
					c-0.461,0-0.834-0.372-0.834-0.834c0-0.461,0.373-0.836,0.834-0.836C27.511,26.291,27.884,26.666,27.884,27.127z"/>
			</g>
			<circle id="circle223_31_" style="fill:#FFFFFF;" cx="27.048" cy="27.127" r="0.836"/>
		</g>
	</g>
	<g>
		
			<radialGradient id="SVGID_1_" cx="32.4268" cy="66.1377" r="20.8784" gradientTransform="matrix(0.8664 0 0 0.6529 4.0553 5.9352)" gradientUnits="userSpaceOnUse">
			<stop  offset="0.0056" style="stop-color:#AEB0B7"/>
			<stop  offset="0.1866" style="stop-color:#9FA2A9"/>
			<stop  offset="0.5339" style="stop-color:#787E84"/>
			<stop  offset="1" style="stop-color:#3B4449"/>
		</radialGradient>
		
			<rect x="6.59" y="48.3" style="fill:url(#SVGID_1_);stroke:#231815;stroke-width:1.1282;stroke-miterlimit:10;" width="51.118" height="1.633"/>
		
			<radialGradient id="SVGID_2_" cx="32.4268" cy="66.1377" r="20.8784" gradientTransform="matrix(0.8664 0 0 0.6529 4.0553 5.9352)" gradientUnits="userSpaceOnUse">
			<stop  offset="0.0056" style="stop-color:#AEB0B7"/>
			<stop  offset="0.1866" style="stop-color:#9FA2A9"/>
			<stop  offset="0.5339" style="stop-color:#787E84"/>
			<stop  offset="1" style="stop-color:#3B4449"/>
		</radialGradient>
		<rect x="6.59" y="48.3" style="fill:url(#SVGID_2_);" width="51.118" height="1.633"/>
		<g>
			<path style="fill:#595757;stroke:#231815;stroke-width:1.578;stroke-miterlimit:10;" d="M15.064,56.436
				c0,1.397-1.075,1.436-2.402,1.436l0,0c-1.328,0-2.402-0.038-2.402-1.436V41.951c0-1.396,1.074-1.49,2.402-1.49l0,0
				c1.327,0,2.402,0.095,2.402,1.49V56.436z"/>
			
				<radialGradient id="SVGID_3_" cx="0.4385" cy="49.1572" r="7.9167" gradientTransform="matrix(0.7688 0 0 0.8097 12.3247 9.3627)" gradientUnits="userSpaceOnUse">
				<stop  offset="0.0056" style="stop-color:#AEB0B7"/>
				<stop  offset="0.1866" style="stop-color:#9FA2A9"/>
				<stop  offset="0.5339" style="stop-color:#787E84"/>
				<stop  offset="1" style="stop-color:#3B4449"/>
			</radialGradient>
			<path style="fill:url(#SVGID_3_);" d="M15.064,56.436c0,1.397-1.075,1.436-2.402,1.436l0,0c-1.328,0-2.402-0.038-2.402-1.436
				V41.951c0-1.396,1.074-1.49,2.402-1.49l0,0c1.327,0,2.402,0.095,2.402,1.49V56.436z"/>
		</g>
		<g>
			<path style="fill:#595757;stroke:#231815;stroke-width:1.578;stroke-miterlimit:10;" d="M54.014,56.436
				c0,1.397-1.075,1.436-2.402,1.436l0,0c-1.328,0-2.402-0.038-2.402-1.436V41.951c0-1.396,1.074-1.49,2.402-1.49l0,0
				c1.327,0,2.402,0.095,2.402,1.49V56.436z"/>
			
				<radialGradient id="SVGID_4_" cx="51.1006" cy="49.1572" r="7.9167" gradientTransform="matrix(0.7688 0 0 0.8097 12.3247 9.3627)" gradientUnits="userSpaceOnUse">
				<stop  offset="0.0056" style="stop-color:#AEB0B7"/>
				<stop  offset="0.1866" style="stop-color:#9FA2A9"/>
				<stop  offset="0.5339" style="stop-color:#787E84"/>
				<stop  offset="1" style="stop-color:#3B4449"/>
			</radialGradient>
			<path style="fill:url(#SVGID_4_);" d="M54.014,56.436c0,1.397-1.075,1.436-2.402,1.436l0,0c-1.328,0-2.402-0.038-2.402-1.436
				V41.951c0-1.396,1.074-1.49,2.402-1.49l0,0c1.327,0,2.402,0.095,2.402,1.49V56.436z"/>
		</g>
		<radialGradient id="SVGID_5_" cx="55.9326" cy="49.0908" r="2.3799" gradientUnits="userSpaceOnUse">
			<stop  offset="0.0056" style="stop-color:#AEB0B7"/>
			<stop  offset="0.1866" style="stop-color:#9FA2A9"/>
			<stop  offset="0.5339" style="stop-color:#787E84"/>
			<stop  offset="1" style="stop-color:#3B4449"/>
		</radialGradient>
		<rect x="54.683" y="45.966" style="fill:url(#SVGID_5_);" width="2.5" height="6.25"/>
		<radialGradient id="SVGID_6_" cx="8.3662" cy="49.0908" r="2.3799" gradientUnits="userSpaceOnUse">
			<stop  offset="0.0056" style="stop-color:#AEB0B7"/>
			<stop  offset="0.1866" style="stop-color:#9FA2A9"/>
			<stop  offset="0.5339" style="stop-color:#787E84"/>
			<stop  offset="1" style="stop-color:#3B4449"/>
		</radialGradient>
		<rect x="7.116" y="45.966" style="fill:url(#SVGID_6_);" width="2.5" height="6.25"/>
	</g>
	<path id="path30-2_290_" style="fill:#231815;stroke:#231815;stroke-width:2.1649;stroke-miterlimit:10;" d="M39.074,44.824
		c0.936,1.357,1.457,2.465,0.719,4.404c-0.558,1.018,0.739,1.327,0.739,1.327c1.513,1.837,1.825,0.274,2.481-0.187
		c0.66-0.461,0.25-3.781-2.41-6.642c-3.098-3.066-3.893-3.509-4.131-2.473C36.236,42.293,37.574,42.646,39.074,44.824z"/>
	
		<radialGradient id="path30-2_1_" cx="395.8584" cy="-222.7266" r="27.9831" gradientTransform="matrix(-0.2451 1.0071 -1.0643 -0.407 -109.044 -453.1031)" gradientUnits="userSpaceOnUse">
		<stop  offset="0" style="stop-color:#FDB913"/>
		<stop  offset="1" style="stop-color:#D63929"/>
	</radialGradient>
	<path id="path30-2_289_" style="fill:url(#path30-2_1_);" d="M39.074,44.824c0.936,1.357,1.457,2.465,0.719,4.404
		c-0.558,1.018,0.739,1.327,0.739,1.327c1.513,1.837,1.825,0.274,2.481-0.187c0.66-0.461,0.25-3.781-2.41-6.642
		c-3.098-3.066-4.889-3.509-5.127-2.473C35.24,42.293,37.574,42.646,39.074,44.824z"/>
	<path id="path30-2_288_" style="fill:#231815;stroke:#231815;stroke-width:2.1649;stroke-miterlimit:10;" d="M24.8,44.824
		c-0.936,1.357-1.457,2.465-0.719,4.404c0.558,1.018-0.739,1.327-0.739,1.327c-1.513,1.837-1.825,0.274-2.481-0.187
		c-0.66-0.461-0.25-3.781,2.41-6.642c3.098-3.066,3.893-3.509,4.131-2.473C27.638,42.293,26.3,42.646,24.8,44.824z"/>
	
		<radialGradient id="path30-2_2_" cx="390.6904" cy="-235.5132" r="27.9837" gradientTransform="matrix(0.2451 1.0071 1.0643 -0.407 187.794 -453.1031)" gradientUnits="userSpaceOnUse">
		<stop  offset="0" style="stop-color:#FDB913"/>
		<stop  offset="1" style="stop-color:#D63929"/>
	</radialGradient>
	<path id="path30-2_287_" style="fill:url(#path30-2_2_);" d="M24.8,44.824c-0.936,1.357-1.457,2.465-0.719,4.404
		c0.558,1.018-0.739,1.327-0.739,1.327c-1.513,1.837-1.825,0.274-2.481-0.187c-0.66-0.461-0.25-3.781,2.41-6.642
		c3.098-3.066,4.889-3.509,5.127-2.473C28.634,42.293,26.3,42.646,24.8,44.824z"/>
</g>
<g id="Layer_1">
</g>
</svg>
