<?xml version="1.0" encoding="iso-8859-1"?>
<!-- Generator: Adobe Illustrator 16.0.0, SVG Export Plug-In . SVG Version: 6.00 Build 0)  -->
<!DOCTYPE svg PUBLIC "-//W3C//DTD SVG 1.1//EN" "http://www.w3.org/Graphics/SVG/1.1/DTD/svg11.dtd">
<svg version="1.1" xmlns="http://www.w3.org/2000/svg" xmlns:xlink="http://www.w3.org/1999/xlink" x="0px" y="0px" width="64px"
	 height="64px" viewBox="0 0 64 64" style="enable-background:new 0 0 64 64;" xml:space="preserve">
<g id="woman_x5F_in_x5F_lotus_x5F_position_x28_wh_x29_">
	
		<path id="path23_43_" style="fill:#F09400;stroke:#231815;stroke-width:3;stroke-linecap:round;stroke-linejoin:round;stroke-miterlimit:10;" d="
		M46.375,27.875c0,0-2.5,9.125,3.375,10c0,0-6.625,6.25-12.875-2C30.36,27.275,44.25,21.625,46.375,27.875z"/>
	
		<radialGradient id="path32_1_" cx="316.4502" cy="-330.6816" r="7.3808" gradientTransform="matrix(1 0 0 -1 -274 -298)" gradientUnits="userSpaceOnUse">
		<stop  offset="0" style="stop-color:#F1E1B2"/>
		<stop  offset="0.3798" style="stop-color:#DBB242"/>
		<stop  offset="0.6854" style="stop-color:#B88700"/>
		<stop  offset="0.8418" style="stop-color:#9E6C2A"/>
		<stop  offset="1" style="stop-color:#754312"/>
	</radialGradient>
	<path id="path32_22_" style="fill:url(#path32_1_);" d="M46.375,27.875c0,0-2.5,9.125,3.375,10c0,0-6.625,6.25-12.875-2
		C30.36,27.275,44.25,21.625,46.375,27.875z"/>
	
		<path id="path34_17_" style="fill:#F09400;stroke:#231815;stroke-width:3;stroke-linecap:round;stroke-linejoin:round;stroke-miterlimit:10;" d="
		M17.875,27.875c0,0,2.5,9.125-3.375,10c0,0,6.625,6.25,12.875-2C33.891,27.275,20,21.625,17.875,27.875z"/>
	
		<radialGradient id="path43_1_" cx="-229.5498" cy="-330.6816" r="7.3808" gradientTransform="matrix(-1 0 0 -1 -207.75 -298)" gradientUnits="userSpaceOnUse">
		<stop  offset="0" style="stop-color:#F1E1B2"/>
		<stop  offset="0.3798" style="stop-color:#DBB242"/>
		<stop  offset="0.6854" style="stop-color:#B88700"/>
		<stop  offset="0.8418" style="stop-color:#9E6C2A"/>
		<stop  offset="1" style="stop-color:#754312"/>
	</radialGradient>
	<path id="path43_15_" style="fill:url(#path43_1_);" d="M17.875,27.875c0,0,2.5,9.125-3.375,10c0,0,6.625,6.25,12.875-2
		C33.891,27.275,20,21.625,17.875,27.875z"/>
	
		<radialGradient id="SVGID_1_" cx="33.2314" cy="47.7783" r="12.9041" gradientTransform="matrix(0.2193 0.9757 -0.9757 0.2193 80.0993 8.9217)" gradientUnits="userSpaceOnUse">
		<stop  offset="0" style="stop-color:#FFF89F"/>
		<stop  offset="1" style="stop-color:#F15F57"/>
	</radialGradient>
	<path style="fill:url(#SVGID_1_);stroke:#231714;stroke-width:2;stroke-miterlimit:10;" d="M36.638,54.249
		c1.445-0.271,3.089-0.939,2.711-2.546c-0.368-1.569-2.214-1.373-2.76-1.236c-1.939,0.49-3.673,1.984-4.414,2.002
		c-0.637,0.016-1.458-0.613-1.782-0.356c-0.33,0.262,0.171,2.85,0.637,2.829c0.349-0.014,0.772-0.644,1.431-0.897
		C33.119,53.79,35.338,54.493,36.638,54.249z"/>
	
		<radialGradient id="SVGID_2_" cx="40.083" cy="48.959" r="12.9064" gradientTransform="matrix(-0.2167 0.9762 0.9762 0.2167 -15.8259 2.1002)" gradientUnits="userSpaceOnUse">
		<stop  offset="0" style="stop-color:#FFF89F"/>
		<stop  offset="1" style="stop-color:#F15F57"/>
	</radialGradient>
	<path style="fill:url(#SVGID_2_);stroke:#231714;stroke-width:2;stroke-miterlimit:10;" d="M27.419,54.253
		c-1.445-0.266-3.09-0.931-2.717-2.539c0.365-1.57,2.21-1.378,2.756-1.242c1.942,0.484,3.678,1.976,4.419,1.99
		c0.637,0.012,1.457-0.619,1.782-0.363c0.331,0.263-0.163,2.853-0.628,2.832c-0.349-0.014-0.775-0.641-1.434-0.894
		C30.937,53.784,28.72,54.495,27.419,54.253z"/>
	
		<radialGradient id="SVGID_3_" cx="58.4951" cy="45.167" r="4.0732" gradientTransform="matrix(-1 0 0 1 78.584 0)" gradientUnits="userSpaceOnUse">
		<stop  offset="0" style="stop-color:#FFF89F"/>
		<stop  offset="1" style="stop-color:#F15F57"/>
	</radialGradient>
	<path style="fill:url(#SVGID_3_);stroke:#231714;stroke-width:2;stroke-miterlimit:10;" d="M21.464,48.383
		c-0.601-0.45-1.041-1.125-0.958-1.5s0.375-0.499,0.708-0.041S21.964,48.758,21.464,48.383z"/>
	
		<radialGradient id="SVGID_4_" cx="47.5361" cy="53.7041" r="27.4966" gradientTransform="matrix(-1 0 0 1 78.584 0)" gradientUnits="userSpaceOnUse">
		<stop  offset="0" style="stop-color:#FFF89F"/>
		<stop  offset="1" style="stop-color:#F15F57"/>
	</radialGradient>
	<path style="fill:url(#SVGID_4_);stroke:#231714;stroke-width:2;stroke-miterlimit:10;" d="M21.756,45.917
		c0.618,0.029-0.25,1.083,0.521,1.021c0.25-0.188,0.11-0.613-0.188-0.813c-0.25-0.167-0.234-0.477,0.083-0.583
		c0.625-0.209,1.34,0.216,1.542,1.146c1.011-0.364,1.842-1.205,2.813-2.75c1.079-1.717,1.251-3.872,2.321-3.456
		c0,0-0.071,2.706-1.946,5.456c-1.748,2.563-3.532,3.236-4.875,2.75C20.589,48.167,20.881,45.875,21.756,45.917z"/>
	<radialGradient id="SVGID_5_" cx="43.875" cy="45.167" r="4.0732" gradientUnits="userSpaceOnUse">
		<stop  offset="0" style="stop-color:#FFF89F"/>
		<stop  offset="1" style="stop-color:#F15F57"/>
	</radialGradient>
	<path style="fill:url(#SVGID_5_);stroke:#231714;stroke-width:2;stroke-miterlimit:10;" d="M42.5,48.383
		c0.601-0.45,1.041-1.125,0.958-1.5s-0.375-0.499-0.708-0.041S42,48.758,42.5,48.383z"/>
	<radialGradient id="SVGID_6_" cx="32.9155" cy="53.7041" r="27.4999" gradientUnits="userSpaceOnUse">
		<stop  offset="0" style="stop-color:#FFF89F"/>
		<stop  offset="1" style="stop-color:#F15F57"/>
	</radialGradient>
	<path style="fill:url(#SVGID_6_);stroke:#231714;stroke-width:2;stroke-miterlimit:10;" d="M42.208,45.917
		c-0.618,0.029,0.25,1.083-0.521,1.021c-0.25-0.188-0.11-0.613,0.188-0.813c0.25-0.167,0.234-0.477-0.083-0.583
		c-0.625-0.209-1.34,0.216-1.542,1.146c-1.011-0.364-1.842-1.205-2.813-2.75c-1.079-1.717-1.251-3.872-2.321-3.456
		c0,0,0.071,2.706,1.946,5.456c1.748,2.563,3.532,3.236,4.875,2.75C43.375,48.167,43.083,45.875,42.208,45.917z"/>
	<g id="man_x5F_fairy_x28_ye_x29__4_">
		<g id="g155_4_">
			<g id="g153_7_">
				<g id="g142_10_">
					<path id="path26_38_" style="fill:#F09400;stroke:#231815;stroke-width:1.5423;stroke-miterlimit:10;" d="M47.643,21.765
						c0,8.486-7.004,15.361-15.642,15.361c-8.642,0-15.645-6.875-15.645-15.361c0-8.487,7.003-15.369,15.645-15.369
						C40.639,6.396,47.643,13.278,47.643,21.765z"/>
					
						<radialGradient id="path41_1_" cx="314.9492" cy="-315.4648" r="0.5042" gradientTransform="matrix(1 0 0 -1 -274 -298)" gradientUnits="userSpaceOnUse">
						<stop  offset="0" style="stop-color:#F1E1B2"/>
						<stop  offset="0.3798" style="stop-color:#DBB242"/>
						<stop  offset="0.6854" style="stop-color:#B88700"/>
						<stop  offset="0.8418" style="stop-color:#9E6C2A"/>
						<stop  offset="1" style="stop-color:#754312"/>
					</radialGradient>
					<path id="path41_23_" style="fill:url(#path41_1_);" d="M46.916,21.765c0,8.093-6.68,14.647-14.916,14.647
						c-8.24,0-14.919-6.554-14.919-14.647c0-8.094,6.679-14.656,14.919-14.656C40.236,7.109,46.916,13.671,46.916,21.765z"/>
					<path id="path43_2_" style="fill:#48140F;stroke:#231815;stroke-width:2.7816;stroke-miterlimit:10;" d="M44.156,27.564
						c0,6.868-5.389,10.911-12.032,10.911c-6.644,0-12.03-4.043-12.03-10.911c0-6.871,5.387-12.443,12.03-12.443
						C38.768,15.121,44.156,20.693,44.156,27.564z"/>
					
						<ellipse id="ellipse45_6_" transform="matrix(0.1629 -0.9866 0.9866 0.1629 9.6167 67.8907)" style="fill:none;stroke:#231815;stroke-width:2.7816;stroke-miterlimit:10;" cx="44.817" cy="28.278" rx="2.596" ry="2.226"/>
					
						<radialGradient id="path52_1_" cx="372.791" cy="-278.9683" r="4.3796" gradientTransform="matrix(0.9866 0.1633 0.1633 -0.9866 -277.4218 -307.826)" gradientUnits="userSpaceOnUse">
						<stop  offset="0" style="stop-color:#FEF1F6"/>
						<stop  offset="0.1271" style="stop-color:#FDE9EE"/>
						<stop  offset="0.3239" style="stop-color:#FAD5D8"/>
						<stop  offset="0.5658" style="stop-color:#F4B2B5"/>
						<stop  offset="0.8408" style="stop-color:#ED8384"/>
						<stop  offset="1" style="stop-color:#E86564"/>
					</radialGradient>
					<path id="path52_12_" style="fill:url(#path52_1_);" d="M47.016,28.641c-0.233,1.415-1.408,2.399-2.621,2.198
						c-1.213-0.201-2.006-1.509-1.771-2.924c0.233-1.413,1.408-2.394,2.619-2.195C46.457,25.921,47.25,27.23,47.016,28.641z"/>
					
						<ellipse id="ellipse54_27_" transform="matrix(0.163 0.9866 -0.9866 0.163 44.0485 4.6363)" style="fill:none;stroke:#231815;stroke-width:2.7816;stroke-miterlimit:10;" cx="19.292" cy="28.279" rx="2.596" ry="2.226"/>
					
						<radialGradient id="path61_1_" cx="-165.9761" cy="-368.1431" r="4.3799" gradientTransform="matrix(-0.9866 0.1633 -0.1633 -0.9866 -204.5762 -307.826)" gradientUnits="userSpaceOnUse">
						<stop  offset="0" style="stop-color:#FEF1F6"/>
						<stop  offset="0.1271" style="stop-color:#FDE9EE"/>
						<stop  offset="0.3239" style="stop-color:#FAD5D8"/>
						<stop  offset="0.5658" style="stop-color:#F4B2B5"/>
						<stop  offset="0.8408" style="stop-color:#ED8384"/>
						<stop  offset="1" style="stop-color:#E86564"/>
					</radialGradient>
					<path id="path61_2_" style="fill:url(#path61_1_);" d="M17.095,28.641c0.235,1.415,1.408,2.399,2.62,2.198
						c1.213-0.201,2.006-1.509,1.771-2.924c-0.233-1.413-1.406-2.394-2.62-2.195C17.655,25.921,16.862,27.23,17.095,28.641z"/>
					
						<path id="path34-7-5_428_" style="fill:#4C0A02;stroke:#231815;stroke-width:2;stroke-linecap:round;stroke-linejoin:round;stroke-miterlimit:10;" d="
						M35.732,42.494c0.268-0.322,0.537-1.664,0-1.934c-0.537-0.269-1.904-0.644-1.904-0.644c-1.229-0.377-2.477-0.377-3.704,0
						c0,0-1.369,0.375-1.906,0.644c-0.535,0.27-0.268,1.61,0,1.934c0,0,0.484,3.863-0.535,7.834c0,0,1.555,1.824,4.293,1.824
						c2.736,0,4.293-1.824,4.293-1.824C35.25,46.357,35.732,42.494,35.732,42.494z"/>
					
						<radialGradient id="path34-7-5_1_" cx="305.9355" cy="-332.418" r="32.8077" gradientTransform="matrix(1 0 0 -1 -274 -298)" gradientUnits="userSpaceOnUse">
						<stop  offset="0" style="stop-color:#FEF1F6"/>
						<stop  offset="0.1271" style="stop-color:#FDE9EE"/>
						<stop  offset="0.3239" style="stop-color:#FAD5D8"/>
						<stop  offset="0.5658" style="stop-color:#F4B2B5"/>
						<stop  offset="0.8408" style="stop-color:#ED8384"/>
						<stop  offset="1" style="stop-color:#E86564"/>
					</radialGradient>
					<path id="path34-7-5_427_" style="fill:url(#path34-7-5_1_);" d="M35.732,42.494c0.268-0.322,0.537-1.664,0-1.934
						c-0.537-0.269-1.904-0.644-1.904-0.644c-1.229-0.377-2.477-0.377-3.704,0c0,0-1.369,0.375-1.906,0.644
						c-0.535,0.27-0.268,1.61,0,1.934c0,0,0.484,3.863-0.535,7.834c0,0,1.555,1.625,4.293,1.625c2.736,0,4.293-1.625,4.293-1.625
						C35.25,46.357,35.732,42.494,35.732,42.494z"/>
					<linearGradient id="rect97_1_" gradientUnits="userSpaceOnUse" x1="32.0073" y1="40.4844" x2="32.0073" y2="38.5">
						<stop  offset="0" style="stop-color:#FEF1F6"/>
						<stop  offset="0.1271" style="stop-color:#FDE9EE"/>
						<stop  offset="0.3239" style="stop-color:#FAD5D8"/>
						<stop  offset="0.5658" style="stop-color:#F4B2B5"/>
						<stop  offset="0.8408" style="stop-color:#ED8384"/>
						<stop  offset="1" style="stop-color:#E86564"/>
					</linearGradient>
					<rect id="rect97_4_" x="30.943" y="37.745" style="fill:url(#rect97_1_);" width="2.128" height="3.104"/>
					
						<radialGradient id="path119_1_" cx="306.125" cy="-324.7979" r="22.0413" gradientTransform="matrix(1 0 0 -1 -274 -298)" gradientUnits="userSpaceOnUse">
						<stop  offset="0" style="stop-color:#FEF1F6"/>
						<stop  offset="0.1271" style="stop-color:#FDE9EE"/>
						<stop  offset="0.3239" style="stop-color:#FAD5D8"/>
						<stop  offset="0.5658" style="stop-color:#F4B2B5"/>
						<stop  offset="0.8408" style="stop-color:#ED8384"/>
						<stop  offset="1" style="stop-color:#E86564"/>
					</radialGradient>
					<path id="path119_19_" style="fill:url(#path119_1_);" d="M44.156,27.564c0,6.868-5.389,10.911-12.032,10.911
						c-6.644,0-12.03-4.043-12.03-10.911c0-6.871,5.387-12.443,12.03-12.443C38.768,15.121,44.156,20.693,44.156,27.564z"/>
					
						<path id="path121_15_" style="fill:none;stroke:#A4414A;stroke-width:0.8345;stroke-linecap:round;stroke-linejoin:round;stroke-miterlimit:10;" d="
						M39.541,21.175c0,0-1.555-2.108-3.654,0"/>
					
						<path id="path123_28_" style="fill:none;stroke:#6A3906;stroke-width:0.8345;stroke-linecap:round;stroke-linejoin:round;stroke-miterlimit:10;" d="
						M28.329,21.175c0,0-1.557-2.108-3.656,0"/>
					
						<path id="path123_27_" style="fill:none;stroke:#231815;stroke-width:1.5;stroke-linecap:round;stroke-linejoin:round;stroke-miterlimit:10;" d="
						M35.894,27.264c0,0,1.558,2.108,3.656,0"/>
					
						<path id="path123_26_" style="fill:none;stroke:#231815;stroke-width:1.5;stroke-linecap:round;stroke-linejoin:round;stroke-miterlimit:10;" d="
						M24.772,27.264c0,0,1.558,2.108,3.656,0"/>
					<path id="path125_29_" style="fill:#231815;" d="M20.094,28.765c0,0-1.408-3.665-1.64-7.651
						c-0.16-2.803-0.503-4.605,1.724-7.109c2.278-2.563,5.702-5.97,11.822-5.97c6.117,0,9.544,3.407,11.822,5.969
						c2.227,2.504,1.883,4.306,1.723,7.109c-0.23,3.987-1.389,7.651-1.389,7.651c-0.326-1.09-1.914-4.131-1.914-4.131
						c-0.742,0-3.139-0.739-3.139-0.739v0.925c-4.957-0.57-6.896-4.507-6.896-4.507l-0.494,5.075
						c-3.256-1.575-5.15-6.199-5.15-6.199C21.208,22.875,20.548,28.492,20.094,28.765z"/>
					
						<radialGradient id="path140_1_" cx="306" cy="-315.3989" r="12.0945" gradientTransform="matrix(1 0 0 -1 -274 -298)" gradientUnits="userSpaceOnUse">
						<stop  offset="0" style="stop-color:#F1E1B2"/>
						<stop  offset="0.3798" style="stop-color:#DBB242"/>
						<stop  offset="0.6854" style="stop-color:#B88700"/>
						<stop  offset="0.8418" style="stop-color:#9E6C2A"/>
						<stop  offset="1" style="stop-color:#754312"/>
					</radialGradient>
					<path id="path140_10_" style="fill:url(#path140_1_);" d="M20.094,27.564c0,0-1.521-2.809-1.754-7.251
						c-0.163-3.124-0.389-4.605,1.838-7.109c2.278-2.563,5.702-5.97,11.822-5.97c6.117,0,9.544,3.407,11.822,5.969
						c2.227,2.504,2,3.985,1.838,7.109c-0.232,4.442-1.504,7.251-1.504,7.251c-0.326-1.09-1.715-3.73-1.715-3.73
						c-0.742,0-3.338-0.739-3.338-0.739v0.925c-5.008-0.37-7.233-5.005-7.233-5.005l-0.557,5.372
						c-2.782-1.292-4.45-6.299-4.45-6.299C20.874,21.779,20.548,27.291,20.094,27.564z"/>
				</g>
			</g>
		</g>
		<g id="g213_245_">
			
				<linearGradient id="ellipse170_1_" gradientUnits="userSpaceOnUse" x1="313.0098" y1="-328.7158" x2="317.5977" y2="-328.7158" gradientTransform="matrix(1 0 0 -1 -274 -298)">
				<stop  offset="0" style="stop-color:#FFA67F"/>
				<stop  offset="0.0969" style="stop-color:#FF967B"/>
				<stop  offset="0.3655" style="stop-color:#FF7170"/>
				<stop  offset="0.6143" style="stop-color:#FF5568"/>
				<stop  offset="0.8336" style="stop-color:#FF4564"/>
				<stop  offset="1" style="stop-color:#FF3F62"/>
			</linearGradient>
			<ellipse id="ellipse170_3_" style="fill:url(#ellipse170_1_);" cx="41.305" cy="30.716" rx="2.293" ry="1.112"/>
			
				<linearGradient id="ellipse185_1_" gradientUnits="userSpaceOnUse" x1="-233.1021" y1="-328.7158" x2="-228.5122" y2="-328.7158" gradientTransform="matrix(-1 0 0 -1 -208 -298)">
				<stop  offset="0" style="stop-color:#FFA67F"/>
				<stop  offset="0.0969" style="stop-color:#FF967B"/>
				<stop  offset="0.3655" style="stop-color:#FF7170"/>
				<stop  offset="0.6143" style="stop-color:#FF5568"/>
				<stop  offset="0.8336" style="stop-color:#FF4564"/>
				<stop  offset="1" style="stop-color:#FF3F62"/>
			</linearGradient>
			<ellipse id="ellipse185_6_" style="fill:url(#ellipse185_1_);" cx="22.807" cy="30.716" rx="2.295" ry="1.112"/>
			<path id="ellipse185_5_" style="fill:#C30D23;" d="M32.008,32.841c2.136,0,3.868,0.499,3.868,1.113s-1.732,1.972-3.868,1.972
				c-2.137,0-3.869-1.357-3.869-1.972S29.871,32.841,32.008,32.841z"/>
		</g>
		
			<path id="line200_3_" style="fill:none;stroke:#026091;stroke-width:0.8312;stroke-linecap:round;stroke-linejoin:round;stroke-miterlimit:10;" d="
			M31.261,55.081"/>
	</g>
	<radialGradient id="SVGID_7_" cx="43.875" cy="45.167" r="4.0732" gradientUnits="userSpaceOnUse">
		<stop  offset="0" style="stop-color:#FEF1F6"/>
		<stop  offset="0.1271" style="stop-color:#FDE9EE"/>
		<stop  offset="0.3239" style="stop-color:#FAD5D8"/>
		<stop  offset="0.5658" style="stop-color:#F4B2B5"/>
		<stop  offset="0.8408" style="stop-color:#ED8384"/>
		<stop  offset="1" style="stop-color:#E86564"/>
	</radialGradient>
	<path style="fill:url(#SVGID_7_);" d="M42.5,48.383c0.601-0.45,1.041-1.125,0.958-1.5s-0.375-0.499-0.708-0.041
		S42,48.758,42.5,48.383z"/>
	<radialGradient id="SVGID_8_" cx="36.9375" cy="38.4375" r="19.0066" gradientUnits="userSpaceOnUse">
		<stop  offset="0" style="stop-color:#FEF1F6"/>
		<stop  offset="0.1271" style="stop-color:#FDE9EE"/>
		<stop  offset="0.3239" style="stop-color:#FAD5D8"/>
		<stop  offset="0.5658" style="stop-color:#F4B2B5"/>
		<stop  offset="0.8408" style="stop-color:#ED8384"/>
		<stop  offset="1" style="stop-color:#E86564"/>
	</radialGradient>
	<path style="fill:url(#SVGID_8_);" d="M42.208,45.917c-0.618,0.029,0.25,1.083-0.521,1.021c-0.25-0.188-0.11-0.613,0.188-0.813
		c0.25-0.167,0.234-0.477-0.083-0.583c-0.625-0.209-1.34,0.216-1.542,1.146c-1.011-0.364-1.842-1.205-2.813-2.75
		c-1.079-1.717-1.251-3.872-2.321-3.456c0,0,0.071,2.706,1.946,5.456c1.748,2.563,3.532,3.236,4.875,2.75
		C43.375,48.167,43.083,45.875,42.208,45.917z"/>
	
		<radialGradient id="SVGID_9_" cx="58.4951" cy="45.167" r="4.0732" gradientTransform="matrix(-1 0 0 1 78.584 0)" gradientUnits="userSpaceOnUse">
		<stop  offset="0" style="stop-color:#FEF1F6"/>
		<stop  offset="0.1271" style="stop-color:#FDE9EE"/>
		<stop  offset="0.3239" style="stop-color:#FAD5D8"/>
		<stop  offset="0.5658" style="stop-color:#F4B2B5"/>
		<stop  offset="0.8408" style="stop-color:#ED8384"/>
		<stop  offset="1" style="stop-color:#E86564"/>
	</radialGradient>
	<path style="fill:url(#SVGID_9_);" d="M21.464,48.383c-0.601-0.45-1.041-1.125-0.958-1.5s0.375-0.499,0.708-0.041
		S21.964,48.758,21.464,48.383z"/>
	
		<radialGradient id="SVGID_10_" cx="51.5576" cy="38.4375" r="19.0058" gradientTransform="matrix(-1 0 0 1 78.584 0)" gradientUnits="userSpaceOnUse">
		<stop  offset="0" style="stop-color:#FEF1F6"/>
		<stop  offset="0.1271" style="stop-color:#FDE9EE"/>
		<stop  offset="0.3239" style="stop-color:#FAD5D8"/>
		<stop  offset="0.5658" style="stop-color:#F4B2B5"/>
		<stop  offset="0.8408" style="stop-color:#ED8384"/>
		<stop  offset="1" style="stop-color:#E86564"/>
	</radialGradient>
	<path style="fill:url(#SVGID_10_);" d="M21.756,45.917c0.618,0.029-0.25,1.083,0.521,1.021c0.25-0.188,0.11-0.613-0.188-0.813
		c-0.25-0.167-0.234-0.477,0.083-0.583c0.625-0.209,1.34,0.216,1.542,1.146c1.011-0.364,1.842-1.205,2.813-2.75
		c1.079-1.717,1.251-3.872,2.321-3.456c0,0-0.071,2.706-1.946,5.456c-1.748,2.563-3.532,3.236-4.875,2.75
		C20.589,48.167,20.881,45.875,21.756,45.917z"/>
	<g>
		<path style="fill:#E1007F;" d="M35.732,42.494c0.268-0.322,0.537-1.664,0-1.934c-0.537-0.269-1.904-0.644-1.904-0.644
			c-0.117-0.036-0.235-0.052-0.354-0.081c0.014,0.081,0.025,0.163,0.025,0.248c0,0.828-0.671,1.5-1.5,1.5s-1.5-0.672-1.5-1.5
			c0-0.089,0.011-0.175,0.026-0.259c-0.134,0.031-0.269,0.051-0.402,0.092c0,0-1.369,0.375-1.906,0.644
			c-0.535,0.27-0.268,1.61,0,1.934c0,0,0.484,3.863-0.535,7.834c0,0,1.555,1.625,4.293,1.625c2.736,0,4.293-1.625,4.293-1.625
			C35.25,46.357,35.732,42.494,35.732,42.494z"/>
	</g>
	
		<radialGradient id="SVGID_11_" cx="33.2314" cy="47.7783" r="12.9041" gradientTransform="matrix(0.2193 0.9757 -0.9757 0.2193 80.0993 8.9217)" gradientUnits="userSpaceOnUse">
		<stop  offset="0" style="stop-color:#FFF89F"/>
		<stop  offset="1" style="stop-color:#F15F57"/>
	</radialGradient>
	<path style="fill:url(#SVGID_11_);stroke:#231815;stroke-miterlimit:10;" d="M36.638,54.249c1.445-0.271,3.089-0.939,2.711-2.546
		c-0.368-1.569-2.214-1.373-2.76-1.236c-1.939,0.49-3.673,1.984-4.414,2.002c-0.637,0.016-1.458-0.613-1.782-0.356
		c-0.33,0.262,0.171,2.85,0.637,2.829c0.349-0.014,0.772-0.644,1.431-0.897C33.119,53.79,35.338,54.493,36.638,54.249z"/>
	
		<radialGradient id="SVGID_12_" cx="33.2314" cy="47.7783" r="12.9041" gradientTransform="matrix(0.2193 0.9757 -0.9757 0.2193 80.0993 8.9217)" gradientUnits="userSpaceOnUse">
		<stop  offset="0" style="stop-color:#FEF1F6"/>
		<stop  offset="0.1271" style="stop-color:#FDE9EE"/>
		<stop  offset="0.3239" style="stop-color:#FAD5D8"/>
		<stop  offset="0.5658" style="stop-color:#F4B2B5"/>
		<stop  offset="0.8408" style="stop-color:#ED8384"/>
		<stop  offset="1" style="stop-color:#E86564"/>
	</radialGradient>
	<path style="fill:url(#SVGID_12_);" d="M36.638,54.249c1.445-0.271,3.089-0.939,2.711-2.546c-0.368-1.569-2.214-1.373-2.76-1.236
		c-1.939,0.49-3.673,1.984-4.414,2.002c-0.637,0.016-1.458-0.613-1.782-0.356c-0.33,0.262,0.171,2.85,0.637,2.829
		c0.349-0.014,0.772-0.644,1.431-0.897C33.119,53.79,35.338,54.493,36.638,54.249z"/>
	<path style="fill:#595757;" d="M33.678,51.78c0.817-0.466,1.829-1.044,2.911-1.313c0.545-0.136,2.391-0.328,2.756,1.242
		c0.373,1.608-1.271,2.273-2.717,2.539c-0.717,0.134-1.705-0.021-2.563-0.146L33.678,51.78z"/>
	
		<radialGradient id="path196_1_" cx="33.8496" cy="52.0986" r="6.5086" gradientTransform="matrix(0.3307 1.4711 -0.839 0.1886 68.4297 -6.7953)" gradientUnits="userSpaceOnUse">
		<stop  offset="0" style="stop-color:#FEF1F6"/>
		<stop  offset="0.1271" style="stop-color:#FDE9EE"/>
		<stop  offset="0.3239" style="stop-color:#FAD5D8"/>
		<stop  offset="0.5658" style="stop-color:#F4B2B5"/>
		<stop  offset="0.8408" style="stop-color:#ED8384"/>
		<stop  offset="1" style="stop-color:#E86564"/>
	</radialGradient>
	<path id="path196_22_" style="fill:url(#path196_1_);" d="M30.508,53.233c0.158-0.208,0.688,0.212,0.77,1.112
		c0.048,0.539-0.174,0.842-0.35,0.754C30.744,55.008,30.396,53.381,30.508,53.233z"/>
	
		<radialGradient id="path196_2_" cx="31.8511" cy="54.3662" r="6.5012" gradientTransform="matrix(0.2193 0.9757 -0.9757 0.2193 80.0993 8.9217)" gradientUnits="userSpaceOnUse">
		<stop  offset="0" style="stop-color:#FEF1F6"/>
		<stop  offset="0.1271" style="stop-color:#FDE9EE"/>
		<stop  offset="0.3239" style="stop-color:#FAD5D8"/>
		<stop  offset="0.5658" style="stop-color:#F4B2B5"/>
		<stop  offset="0.8408" style="stop-color:#ED8384"/>
		<stop  offset="1" style="stop-color:#E86564"/>
	</radialGradient>
	<path id="path196_21_" style="fill:url(#path196_2_);" d="M30.196,51.994c0.201-0.16,0.76,0.072,0.756,0.683
		c-0.002,0.364-0.287,0.597-0.478,0.556C30.275,53.189,30.051,52.108,30.196,51.994z"/>
	<g>
		
			<radialGradient id="SVGID_13_" cx="40.083" cy="48.959" r="12.9064" gradientTransform="matrix(-0.2167 0.9762 0.9762 0.2167 -15.8259 2.1002)" gradientUnits="userSpaceOnUse">
			<stop  offset="0" style="stop-color:#FFF89F"/>
			<stop  offset="1" style="stop-color:#F15F57"/>
		</radialGradient>
		<path style="fill:url(#SVGID_13_);stroke:#231815;stroke-miterlimit:10;" d="M27.419,54.253c-1.445-0.266-3.09-0.931-2.717-2.539
			c0.365-1.57,2.21-1.378,2.756-1.242c1.942,0.484,3.678,1.976,4.419,1.99c0.637,0.012,1.457-0.619,1.782-0.363
			c0.331,0.263-0.163,2.853-0.628,2.832c-0.349-0.014-0.775-0.641-1.434-0.894C30.937,53.784,28.72,54.495,27.419,54.253z"/>
	</g>
	<g>
		
			<radialGradient id="SVGID_14_" cx="40.083" cy="48.959" r="12.9064" gradientTransform="matrix(-0.2167 0.9762 0.9762 0.2167 -15.8259 2.1002)" gradientUnits="userSpaceOnUse">
			<stop  offset="0" style="stop-color:#FEF1F6"/>
			<stop  offset="0.1271" style="stop-color:#FDE9EE"/>
			<stop  offset="0.3239" style="stop-color:#FAD5D8"/>
			<stop  offset="0.5658" style="stop-color:#F4B2B5"/>
			<stop  offset="0.8408" style="stop-color:#ED8384"/>
			<stop  offset="1" style="stop-color:#E86564"/>
		</radialGradient>
		<path style="fill:url(#SVGID_14_);" d="M27.419,54.253c-1.445-0.266-3.09-0.931-2.717-2.539c0.365-1.57,2.21-1.378,2.756-1.242
			c1.942,0.484,3.678,1.976,4.419,1.99c0.637,0.012,1.457-0.619,1.782-0.363c0.331,0.263-0.163,2.853-0.628,2.832
			c-0.349-0.014-0.775-0.641-1.434-0.894C30.937,53.784,28.72,54.495,27.419,54.253z"/>
		
			<radialGradient id="path196_3_" cx="38.4023" cy="52.1143" r="6.5087" gradientTransform="matrix(-0.3267 1.472 0.8395 0.1863 -3.0623 -13.4094)" gradientUnits="userSpaceOnUse">
			<stop  offset="0" style="stop-color:#FEF1F6"/>
			<stop  offset="0.1271" style="stop-color:#FDE9EE"/>
			<stop  offset="0.3239" style="stop-color:#FAD5D8"/>
			<stop  offset="0.5658" style="stop-color:#F4B2B5"/>
			<stop  offset="0.8408" style="stop-color:#ED8384"/>
			<stop  offset="1" style="stop-color:#E86564"/>
		</radialGradient>
		<path id="path196_20_" style="fill:url(#path196_3_);" d="M33.547,53.221c-0.16-0.207-0.688,0.215-0.766,1.115
			c-0.047,0.539,0.175,0.84,0.351,0.754C33.316,54.997,33.659,53.369,33.547,53.221z"/>
		
			<radialGradient id="path196_4_" cx="38.7021" cy="55.543" r="6.5094" gradientTransform="matrix(-0.2167 0.9762 0.9762 0.2167 -15.8259 2.1002)" gradientUnits="userSpaceOnUse">
			<stop  offset="0" style="stop-color:#FEF1F6"/>
			<stop  offset="0.1271" style="stop-color:#FDE9EE"/>
			<stop  offset="0.3239" style="stop-color:#FAD5D8"/>
			<stop  offset="0.5658" style="stop-color:#F4B2B5"/>
			<stop  offset="0.8408" style="stop-color:#ED8384"/>
			<stop  offset="1" style="stop-color:#E86564"/>
		</radialGradient>
		<path id="path196_19_" style="fill:url(#path196_4_);" d="M33.855,51.98c-0.201-0.159-0.76,0.073-0.754,0.686
			c0.003,0.364,0.287,0.597,0.48,0.555C33.779,53.176,34,52.095,33.855,51.98z"/>
	</g>
	<path style="fill:#595757;" d="M30.369,51.785c-0.818-0.466-1.829-1.044-2.911-1.313c-0.546-0.136-2.392-0.328-2.756,1.242
		c-0.374,1.608,1.271,2.273,2.717,2.539c0.716,0.134,1.705-0.021,2.563-0.146L30.369,51.785z"/>
	<g id="g153_11_">
		<g id="g151_3_">
			<path id="path149_14_" style="fill:#231815;" d="M24.208,26.801c-0.328,0.289-0.88,0.492-1.2,0.41c0,0,0.603,0.956,1.796,0.553
				C25.759,27.442,24.208,26.801,24.208,26.801z"/>
		</g>
	</g>
	<g id="g153_12_">
		<g id="g151_4_">
			<path id="path149_15_" style="fill:#231815;" d="M40.115,26.801c0.328,0.289,0.88,0.492,1.2,0.41c0,0-0.603,0.956-1.796,0.553
				C38.564,27.442,40.115,26.801,40.115,26.801z"/>
		</g>
	</g>
</g>
<g id="Layer_1">
</g>
</svg>
