<?xml version="1.0" encoding="iso-8859-1"?>
<!-- Generator: Adobe Illustrator 16.0.0, SVG Export Plug-In . SVG Version: 6.00 Build 0)  -->
<!DOCTYPE svg PUBLIC "-//W3C//DTD SVG 1.1//EN" "http://www.w3.org/Graphics/SVG/1.1/DTD/svg11.dtd">
<svg version="1.1" xmlns="http://www.w3.org/2000/svg" xmlns:xlink="http://www.w3.org/1999/xlink" x="0px" y="0px" width="64px"
	 height="64px" viewBox="0 0 64 64" style="enable-background:new 0 0 64 64;" xml:space="preserve">
<g id="woman_x5F_golfing_x28_wh_x29_">
	<g id="woman_x5F_golfing_x28_ye_x29__2_">
		<g id="g6_23_">
			<path id="path2_63_" style="fill:#3E3A39;" d="M39.107,44.335c-0.438-0.337-1.066-0.253-1.401,0.187l-9.925,12.996
				c-0.067-0.045-0.117-0.096-0.188-0.139c-1.217-0.727-5.699-2.639-4.98,0.451c0.594,2.57,2.851,2.611,4.882,2.387
				c0.481-0.055,0.817-0.244,1.03-0.498c0.102-0.062,0.197-0.137,0.274-0.238l10.498-13.744
				C39.631,45.297,39.547,44.668,39.107,44.335z"/>
			<path id="path4_67_" style="fill:#231815;" d="M37.706,44.521l-3.567,4.674l1.633,1.156l3.524-4.615
				c0.335-0.439,0.251-1.068-0.188-1.401C38.67,43.998,38.041,44.082,37.706,44.521z"/>
		</g>
		<g id="g163_5_">
			<path id="path34-7-5_416_" style="fill:none;stroke:#231815;stroke-width:2;stroke-miterlimit:10;" d="M42.141,41.063
				c-0.256-0.431-0.971-1.604-1.377-1.705c-0.406-0.103-0.775-0.117-0.775-0.117c-0.825-0.021-1.504,0.309-2.004,0.967
				c0,0-0.098,0.188-0.221,0.756c-0.092,0.411,0.232,1.482,0.312,2.063c0,0,1.131,3.744,2.057,7.711c0,0,1.935,0.865,4.097-0.176
				c2.16-1.047,2.678-3.105,2.678-3.105C44.372,44.271,42.141,41.063,42.141,41.063z"/>
			
				<ellipse id="ellipse9_7_" style="fill:none;stroke:#231815;stroke-width:2;stroke-miterlimit:10;" cx="43.438" cy="49.203" rx="3.619" ry="3.375"/>
			<path id="path11_21_" style="fill:#48140F;stroke:#231815;stroke-width:2;stroke-miterlimit:10;" d="M40.5,47.381
				c-1.52,2.309,0.068,7.064,2.044,9.803c1.972,2.736,3.38,2.34,3.138,0.508c-0.24-1.827-1.396-3.395,0.596-6.86
				C48.268,47.365,41.576,45.751,40.5,47.381z"/>
			<path id="path13_27_" style="fill:#48140F;stroke:#231815;stroke-width:2;stroke-miterlimit:10;" d="M41.688,59.434
				c-0.014-1.162,0.918-2.119,2.08-2.134c1.164-0.016,2.117,0.918,2.133,2.081L41.688,59.434z"/>
			<path id="path34-7-5_415_" style="fill:none;stroke:#231815;stroke-width:2;stroke-miterlimit:10;" d="M42.141,41.063
				c-0.311-0.448-1.063-1.678-1.472-1.781c-0.405-0.1-0.681-0.041-0.681-0.041c-0.826-0.021-1.104,0.854-1.606,1.511
				c0,0-0.097,0.188-0.22,0.758c-0.09,0.411-0.221,0.823-0.088,1.517c0,0,1.131,3.744,2.057,7.711c0,0,1.717,0.418,3.881-0.625
				c2.155-1.045,2.893-2.656,2.893-2.656C44.372,44.271,42.141,41.063,42.141,41.063z"/>
			<path id="path30-2_386_" style="fill:#48140F;stroke:#231815;stroke-width:2;stroke-miterlimit:10;" d="M38.063,44.277
				c-0.595,1.283-1.207,2.154-3.22,2.465c-1.147,0.033-0.677,1.129-0.677,1.129c-0.665,1.922,0.797,1.468,1.545,1.75
				c0.75,0.286,3.247-1.477,4.105-4.699c0.787-3.636,0.146-5.158-0.838-4.873C37.993,40.326,39.014,42.209,38.063,44.277z"/>
			<g id="g121_13_">
				<g id="g119_10_">
					<g id="g117_11_">
						<path id="path17_18_" style="fill:#F09400;stroke:#231815;stroke-width:1.5423;stroke-miterlimit:10;" d="M47.564,15.409
							c3.694,7.64-0.066,17.097-7.846,20.858c-7.779,3.76-17.076,0.621-20.771-7.019c-3.695-7.642-0.387-16.886,7.391-20.647
							C34.115,4.841,43.867,7.77,47.564,15.409z"/>
						
							<radialGradient id="path32_1_" cx="134.6621" cy="-404.5459" r="14.9345" gradientTransform="matrix(0.9002 -0.4354 -0.4354 -0.9002 -264.0879 -283.1779)" gradientUnits="userSpaceOnUse">
							<stop  offset="0" style="stop-color:#C97229"/>
							<stop  offset="0.3871" style="stop-color:#BC6330"/>
							<stop  offset="0.6026" style="stop-color:#B0522C"/>
							<stop  offset="0.7151" style="stop-color:#A84729"/>
							<stop  offset="0.8698" style="stop-color:#993F18"/>
							<stop  offset="1" style="stop-color:#8A3606"/>
						</radialGradient>
						
							<path id="path32_19_" style="fill:url(#path32_1_);stroke:#231815;stroke-width:3;stroke-linecap:round;stroke-linejoin:round;stroke-miterlimit:10;" d="
							M46.91,15.726c-3.66-7.22-12.848-10.067-20.261-6.482c-3.336,1.616-5.802,4.293-7.192,7.408
							c-0.023,0.053-0.043,0.105-0.064,0.158c-0.182,0.42-0.344,0.843-0.485,1.275c-0.034,0.097-0.06,0.192-0.09,0.29
							c-0.121,0.396-0.225,0.795-0.311,1.199c-0.025,0.113-0.048,0.229-0.071,0.345c-0.076,0.399-0.136,0.799-0.177,1.204
							c-0.012,0.114-0.025,0.226-0.037,0.343c-0.034,0.424-0.048,0.854-0.045,1.284c0,0.088-0.005,0.176-0.002,0.263
							c0.051,1.996,0.504,4.011,1.427,5.921c0,0,0.013-0.846,0.162-2.093c1.267,1.122,3.174,2.531,4.818,2.595l-1.901-5.047
							c0,0,3.766,3.329,7.86,1.757l-0.403-0.833c0,0,2.361-0.318,2.945-0.602c0,0,2.239,1.851,2.969,2.708
							c0,0-0.034-0.444-0.172-1.219c0.263,0.061,5.33,1.251,7.527,3.839l0.573-1.436l2.358,3.766
							C46.339,32.369,51.793,25.369,46.91,15.726z"/>
						
							<radialGradient id="path47_1_" cx="134.6582" cy="-404.502" r="14.9129" gradientTransform="matrix(0.9002 -0.4354 -0.4354 -0.9002 -264.0879 -283.1779)" gradientUnits="userSpaceOnUse">
							<stop  offset="0" style="stop-color:#C97229"/>
							<stop  offset="0.3871" style="stop-color:#BC6330"/>
							<stop  offset="0.6026" style="stop-color:#B0522C"/>
							<stop  offset="0.7151" style="stop-color:#A84729"/>
							<stop  offset="0.8698" style="stop-color:#993F18"/>
							<stop  offset="1" style="stop-color:#8A3606"/>
						</radialGradient>
						<path id="path47_13_" style="fill:url(#path47_1_);" d="M46.91,15.726c3.521,7.288-0.085,16.314-7.502,19.898
							c-7.417,3.587-16.283,0.597-19.807-6.69c-3.523-7.286-0.369-16.102,7.048-19.69C34.063,5.658,43.385,8.439,46.91,15.726z"/>
						<path id="path49_17_" style="fill:#48140F;stroke:#231815;stroke-width:2.7816;stroke-miterlimit:10;" d="M44.48,23.341
							c2.99,6.184-0.248,11.886-6.08,15.062C30.38,42.775,25.811,40,22.82,33.818c-2.99-6.186-0.567-13.548,5.413-16.438
							C34.211,14.484,41.488,17.157,44.48,23.341z"/>
						<path id="path34-7-5_414_" style="fill:#D9DADA;" d="M42.141,41.063c-0.256-0.431-0.971-1.604-1.377-1.705
							c-0.406-0.103-0.775-0.117-0.775-0.117c-0.825-0.021-1.504,0.309-2.004,0.967c0,0-0.098,0.188-0.221,0.756
							c-0.092,0.411,0.232,1.482,0.312,2.063c0,0,1.131,3.744,2.057,7.711c0,0,1.935,0.865,4.097-0.176
							c2.16-1.047,2.678-3.105,2.678-3.105C44.372,44.271,42.141,41.063,42.141,41.063z"/>
						
							<radialGradient id="polygon65_1_" cx="132.3164" cy="-424.8662" r="4.0045" gradientTransform="matrix(0.9002 -0.4354 -0.4354 -0.9002 -264.0879 -283.1779)" gradientUnits="userSpaceOnUse">
							<stop  offset="0" style="stop-color:#FCDBD7"/>
							<stop  offset="0.1284" style="stop-color:#FBD4CF"/>
							<stop  offset="0.3271" style="stop-color:#F8C3B9"/>
							<stop  offset="0.5713" style="stop-color:#F3A596"/>
							<stop  offset="0.849" style="stop-color:#ED7D65"/>
							<stop  offset="1" style="stop-color:#E96547"/>
						</radialGradient>
						<polygon id="polygon65_7_" style="fill:url(#polygon65_1_);" points="40.38,40.084 38.464,41.012 37.109,38.214 39.027,37.29 
													"/>
						<ellipse id="ellipse67_7_" style="fill:#0066CF;" cx="43.438" cy="49.203" rx="3.619" ry="3.375"/>
						<path id="path69_8_" style="fill:#0066CF;" d="M40.5,47.381c-1.52,2.309,0.068,7.064,2.044,9.803
							c1.972,2.736,3.38,2.34,3.138,0.508c-0.24-1.827-1.396-3.395,0.596-6.86C48.268,47.365,41.576,45.751,40.5,47.381z"/>
						<path id="path71_10_" style="fill:#9C9C9D;" d="M41.688,59.434c-0.014-1.162,0.918-2.119,2.08-2.134
							c1.164-0.016,2.133,0.117,2.133,2.081L41.688,59.434z"/>
						
							<radialGradient id="path34-7-5_1_" cx="316.4609" cy="-343.021" r="8.0391" gradientTransform="matrix(1 0 0 -1 -274 -298)" gradientUnits="userSpaceOnUse">
							<stop  offset="0" style="stop-color:#E5E2DF"/>
							<stop  offset="0" style="stop-color:#F1EFEE"/>
							<stop  offset="0" style="stop-color:#FFFFFF"/>
							<stop  offset="0.2292" style="stop-color:#FBFBFB"/>
							<stop  offset="0.4468" style="stop-color:#F0F0F0"/>
							<stop  offset="0.6598" style="stop-color:#DDDDDE"/>
							<stop  offset="0.8686" style="stop-color:#C2C3C4"/>
							<stop  offset="1" style="stop-color:#ADAEB0"/>
						</radialGradient>
						<path id="path34-7-5_413_" style="fill:url(#path34-7-5_1_);" d="M42.141,41.063c-0.311-0.448-1.063-1.678-1.472-1.781
							c-0.405-0.1-0.681-0.041-0.681-0.041c-0.67,0.347-1.104,0.854-1.606,1.511c0,0-0.097,0.188-0.22,0.758
							c-0.09,0.411-0.221,0.823-0.088,1.517c0,0,1.131,3.744,2.057,7.711c0,0,1.717,0.418,3.881-0.625
							c2.155-1.045,2.893-2.656,2.893-2.656C44.372,44.271,42.141,41.063,42.141,41.063z"/>
						
							<radialGradient id="path96_1_" cx="132.293" cy="-409.54" r="22.0431" gradientTransform="matrix(0.9002 -0.4354 -0.4354 -0.9002 -264.0879 -283.1779)" gradientUnits="userSpaceOnUse">
							<stop  offset="0" style="stop-color:#FCDBD7"/>
							<stop  offset="0.1284" style="stop-color:#FBD4CF"/>
							<stop  offset="0.3271" style="stop-color:#F8C3B9"/>
							<stop  offset="0.5713" style="stop-color:#F3A596"/>
							<stop  offset="0.849" style="stop-color:#ED7D65"/>
							<stop  offset="1" style="stop-color:#E96547"/>
						</radialGradient>
						<path id="path96_12_" style="fill:url(#path96_1_);" d="M44.48,23.341c2.99,6.184-0.101,12.173-6.08,15.062
							c-5.98,2.892-11.47,3.91-15.581-4.584c-2.99-6.186-0.567-13.548,5.413-16.438C34.211,14.484,41.488,17.157,44.48,23.341z"/>
						
							<path id="path98_22_" style="fill:none;stroke:#A4414A;stroke-width:0.8345;stroke-linecap:round;stroke-linejoin:round;stroke-miterlimit:10;" d="
							M26.327,25.026c0,0-2.32-1.222-3.291,1.592"/>
						<path id="path100_19_" style="fill:#48140F;stroke:#231815;stroke-width:1.5;stroke-miterlimit:10;" d="M46.91,15.726
							c-3.66-7.22-12.848-10.067-20.261-6.482c-3.336,1.616-5.802,4.293-7.192,7.408c-0.023,0.053-0.043,0.105-0.064,0.158
							c-0.182,0.42-0.344,0.843-0.485,1.275c-0.034,0.097-0.06,0.192-0.09,0.29c-0.121,0.396-0.225,0.795-0.311,1.199
							c-0.025,0.113-0.048,0.229-0.071,0.345c-0.076,0.399-0.136,0.799-0.177,1.204c-0.012,0.114-0.025,0.226-0.037,0.343
							c-0.034,0.424-0.048,0.854-0.045,1.284c0,0.088-0.005,0.176-0.002,0.263c0.051,1.996,0.504,4.011,1.427,5.921
							c0,0,0.013-0.846,0.162-2.093c1.267,1.122,3.174,2.531,4.818,2.595l-1.901-5.047c0,0,3.766,3.329,7.86,1.757l-0.403-0.833
							c0,0,2.361-0.318,2.945-0.602c0,0,2.239,1.851,2.969,2.708c0,0-0.034-0.444-0.172-1.219c0.263,0.061,5.33,1.251,7.527,3.839
							l0.573-1.436l2.358,3.766C46.339,32.369,51.793,25.369,46.91,15.726z"/>
						
							<radialGradient id="path115_1_" cx="134.6621" cy="-404.5444" r="14.9342" gradientTransform="matrix(0.9002 -0.4354 -0.4354 -0.9002 -264.0879 -283.1779)" gradientUnits="userSpaceOnUse">
							<stop  offset="0" style="stop-color:#E0CAAB"/>
							<stop  offset="0.6633" style="stop-color:#9E6C2A"/>
							<stop  offset="0.8265" style="stop-color:#8A581E"/>
							<stop  offset="1" style="stop-color:#653D14"/>
						</radialGradient>
						<path id="path115_20_" style="fill:url(#path115_1_);" d="M46.91,15.726c-0.458-0.902-1.002-1.736-1.618-2.498
							C40.98,7.895,33.137,6.106,26.649,9.243c-3.336,1.616-5.802,4.293-7.192,7.408c-0.023,0.053-0.043,0.105-0.064,0.158
							c-0.182,0.42-0.344,0.843-0.485,1.275c-0.034,0.097-0.06,0.192-0.09,0.29c-0.121,0.396-0.225,0.795-0.311,1.199
							c-0.025,0.113-0.048,0.229-0.071,0.345c-0.076,0.399-0.136,0.799-0.177,1.204c-0.012,0.114-0.025,0.226-0.037,0.343
							c-0.034,0.424-0.048,0.854-0.045,1.284c0,0.088-0.005,0.176-0.002,0.263c0.051,1.996,0.504,4.011,1.427,5.921
							c0,0,0.013-0.846,0.162-2.093c1.267,1.122,3.174,2.531,4.818,2.595l-1.901-5.047c0,0,3.766,3.329,7.86,1.757l-0.403-0.833
							c0,0,2.361-0.318,2.945-0.602c0,0,2.239,1.851,2.969,2.708c0,0-0.034-0.444-0.172-1.219c0.263,0.061,5.33,1.251,7.527,3.839
							l0.573-1.436l2.358,3.766C46.339,32.369,51.793,25.369,46.91,15.726z"/>
					</g>
				</g>
			</g>
			<g id="g213_239_">
				
					<linearGradient id="path136_1_" gradientUnits="userSpaceOnUse" x1="250.3584" y1="481.4844" x2="254.1914" y2="481.4844" gradientTransform="matrix(0.9002 -0.4354 0.4354 0.9002 -404.8495 -290.6565)">
					<stop  offset="0" style="stop-color:#FFA67F"/>
					<stop  offset="0.0969" style="stop-color:#FF967B"/>
					<stop  offset="0.3655" style="stop-color:#FF7170"/>
					<stop  offset="0.6143" style="stop-color:#FF5568"/>
					<stop  offset="0.8336" style="stop-color:#FF4564"/>
					<stop  offset="1" style="stop-color:#FF3F62"/>
				</linearGradient>
				<path id="path136_11_" style="fill:url(#path136_1_);" d="M33.611,32.1c-0.269-0.552-1.256-0.629-2.211-0.166
					c-0.952,0.458-1.508,1.283-1.238,1.837c0.267,0.552,1.257,0.627,2.207,0.168C33.324,33.477,33.879,32.652,33.611,32.1z"/>
			</g>
			<g id="g213_238_">
				<path id="path139_20_" style="fill:#160201;" d="M28.24,29.662c0.389-0.2,0.781-0.639,0.821-0.967c0,0,0.67,0.912-0.144,1.875
					C28.268,31.339,28.24,29.662,28.24,29.662z"/>
				<path id="path209_176_" style="fill:#160201;" d="M29.344,31.063c0.741,1.535,0.557,3.16-0.411,3.628
					c-0.971,0.47-2.356-0.396-3.099-1.932c-0.745-1.543-0.565-3.166,0.404-3.638C27.208,28.654,28.598,29.52,29.344,31.063z"/>
				<path id="path211_144_" style="fill:#FFFFFF;" d="M28.096,29.891c0.201,0.415,0.028,0.913-0.392,1.115
					c-0.414,0.201-0.912,0.028-1.112-0.388c-0.202-0.416-0.031-0.915,0.386-1.115C27.396,29.3,27.895,29.477,28.096,29.891z"/>
			</g>
			<path id="path144_15_" style="fill:#C30D23;" d="M29.385,37.275c-0.056,0.303-0.696,1.166-1.661,1.785
				c0.296,0.133,0.594,0.25,0.898,0.354c1.072-0.73,1.759-1.561,1.738-1.998c-0.013-0.266-0.129-0.508-0.399-0.547
				C29.694,36.831,29.435,37.014,29.385,37.275z"/>
			<path id="path146_2_" style="fill:#231815;" d="M40.748,26.032c0.482,1.634-0.264,3.294-1.667,3.705
				c-1.399,0.413-2.923-0.575-3.405-2.21c-0.48-1.633,0.268-3.288,1.665-3.704C38.744,23.413,40.27,24.401,40.748,26.032z"/>
			
				<radialGradient id="path153_1_" cx="204.3428" cy="-392.4419" r="5.2765" gradientTransform="matrix(0.9593 -0.2826 -0.2826 -0.9593 -270.5847 -290.3726)" gradientUnits="userSpaceOnUse">
				<stop  offset="0" style="stop-color:#FCDBD7"/>
				<stop  offset="0.1284" style="stop-color:#FBD4CF"/>
				<stop  offset="0.3271" style="stop-color:#F8C3B9"/>
				<stop  offset="0.5713" style="stop-color:#F3A596"/>
				<stop  offset="0.849" style="stop-color:#ED7D65"/>
				<stop  offset="1" style="stop-color:#E96547"/>
			</radialGradient>
			<path id="path153_13_" style="fill:url(#path153_1_);" d="M39.871,26.769c0.404,1.374-0.223,2.771-1.402,3.118
				c-1.18,0.347-2.462-0.484-2.867-1.86c-0.403-1.374,0.227-2.768,1.402-3.116C38.186,24.563,39.467,25.396,39.871,26.769z"/>
			<path id="path155_4_" style="fill:#717071;" d="M40.088,40.811c-0.967,0.125-0.822,1.78-1.563,3.767
				c0.229,0.806,0.523,1.87,0.838,3.067c0.354-0.643,0.656-1.385,0.844-2.224C41.145,41.709,41.094,40.68,40.088,40.811z"/>
			
				<radialGradient id="path30-2_1_" cx="-197.6021" cy="-449.7959" r="27.7847" gradientTransform="matrix(-0.9651 0.2619 -0.2619 -0.9651 -266.9908 -347.3053)" gradientUnits="userSpaceOnUse">
				<stop  offset="0" style="stop-color:#FCDBD7"/>
				<stop  offset="0.1284" style="stop-color:#FBD4CF"/>
				<stop  offset="0.3271" style="stop-color:#F8C3B9"/>
				<stop  offset="0.5713" style="stop-color:#F3A596"/>
				<stop  offset="0.849" style="stop-color:#ED7D65"/>
				<stop  offset="1" style="stop-color:#E96547"/>
			</radialGradient>
			<path id="path30-2_385_" style="fill:url(#path30-2_1_);" d="M38.063,44.277c-0.595,1.283-1.207,2.154-3.22,2.465
				c-1.147,0.033-0.677,1.129-0.677,1.129c-0.665,1.922,0.797,1.468,1.545,1.75c0.75,0.286,3.247-1.477,4.105-4.699
				c1.088-3.67,1.078-4.701,0.068-4.611C38.87,40.4,39.014,42.209,38.063,44.277z"/>
		</g>
		
			<radialGradient id="path182_1_" cx="313.5176" cy="-340.104" r="3.6068" gradientTransform="matrix(1 0 0 -1 -274 -298)" gradientUnits="userSpaceOnUse">
			<stop  offset="0" style="stop-color:#E5E2DF"/>
			<stop  offset="0" style="stop-color:#F1EFEE"/>
			<stop  offset="0" style="stop-color:#FFFFFF"/>
			<stop  offset="0.2292" style="stop-color:#FBFBFB"/>
			<stop  offset="0.4468" style="stop-color:#F0F0F0"/>
			<stop  offset="0.6598" style="stop-color:#DDDDDE"/>
			<stop  offset="0.8686" style="stop-color:#C2C3C4"/>
			<stop  offset="1" style="stop-color:#ADAEB0"/>
		</radialGradient>
		<path id="path182_11_" style="fill:url(#path182_1_);" d="M40.105,43.902c0.777-2.828,0.688-3.672-0.219-3.592
			c-0.873,0.078-0.895,1.428-1.484,3.116L40.105,43.902z"/>
		
			<circle id="circle184_10_" style="fill:#ECECED;stroke:#231815;stroke-width:1.5;stroke-linecap:round;stroke-linejoin:round;stroke-miterlimit:10;" cx="18.875" cy="57.65" r="2"/>
		<circle id="circle186_5_" style="fill:#ECECED;" cx="18.875" cy="57.65" r="2"/>
		
			<path id="path188_9_" style="fill:#D9DADA;stroke:#231815;stroke-width:2;stroke-linecap:round;stroke-linejoin:round;stroke-miterlimit:10;" d="
			M26.331,8.848c6.646-3.154,14.591-1.467,19.136,3.832L12.75,29.167c-0.291-1.127,4.783-4.841,4.753-5.977
			C17.503,23.189,16.994,13.279,26.331,8.848z"/>
		
			<radialGradient id="path207_1_" cx="304.8525" cy="-316.2144" r="17.1954" gradientTransform="matrix(1 0 0 -1 -274 -298)" gradientUnits="userSpaceOnUse">
			<stop  offset="0" style="stop-color:#E5E2DF"/>
			<stop  offset="0" style="stop-color:#F1EFEE"/>
			<stop  offset="0" style="stop-color:#FFFFFF"/>
			<stop  offset="0.2292" style="stop-color:#FBFBFB"/>
			<stop  offset="0.4468" style="stop-color:#F0F0F0"/>
			<stop  offset="0.6598" style="stop-color:#DDDDDE"/>
			<stop  offset="0.8686" style="stop-color:#C2C3C4"/>
			<stop  offset="1" style="stop-color:#ADAEB0"/>
		</radialGradient>
		<path id="path207_6_" style="fill:url(#path207_1_);" d="M26.331,8.848c6.646-3.154,14.591-1.467,19.136,3.832L12.75,29.167
			c-0.291-1.127,4.783-4.841,4.753-5.977C17.503,23.189,16.994,13.279,26.331,8.848z"/>
		<polygon id="polygon209_2_" style="fill:#717071;" points="37.834,40.167 38,41.834 40.75,39.334 40.167,38.584 		"/>
		
			<radialGradient id="polygon228_1_" cx="313.042" cy="-337.959" r="3.0223" gradientTransform="matrix(1 0 0 -1 -274 -298)" gradientUnits="userSpaceOnUse">
			<stop  offset="0" style="stop-color:#E5E2DF"/>
			<stop  offset="0" style="stop-color:#F1EFEE"/>
			<stop  offset="0" style="stop-color:#FFFFFF"/>
			<stop  offset="0.2292" style="stop-color:#FBFBFB"/>
			<stop  offset="0.4468" style="stop-color:#F0F0F0"/>
			<stop  offset="0.6598" style="stop-color:#DDDDDE"/>
			<stop  offset="0.8686" style="stop-color:#C2C3C4"/>
			<stop  offset="1" style="stop-color:#ADAEB0"/>
		</radialGradient>
		<polygon id="polygon228_2_" style="fill:url(#polygon228_1_);" points="37.584,39.917 37.75,41.584 40.5,39.084 39.917,38.334 		
			"/>
		<path id="path230_9_" style="fill:#48140F;stroke:#231815;stroke-width:3;stroke-miterlimit:10;" d="M44.639,24.924
			c0.506,1.31,2.236,7.44,10.364,6.935c0,0-2.192-1.655-2.619-3.133c0,0,2.56,0.528,4.923-0.454c0,0-4.496-2.61-5.664-6.345
			c-1.094-3.495-3.117-8.182-5.725-7.979C43.833,14.11,42.998,20.669,44.639,24.924z"/>
		
			<radialGradient id="path245_1_" cx="192.792" cy="-498.999" r="9.9112" gradientTransform="matrix(0.9698 -0.1811 -0.2439 -0.7201 -259.9149 -303.6075)" gradientUnits="userSpaceOnUse">
			<stop  offset="0" style="stop-color:#E0CAAB"/>
			<stop  offset="0.6633" style="stop-color:#9E6C2A"/>
			<stop  offset="0.8265" style="stop-color:#8A581E"/>
			<stop  offset="1" style="stop-color:#653D14"/>
		</radialGradient>
		<path id="path245_17_" style="fill:url(#path245_1_);" d="M44.141,24.924c0.484,1.314,2.734,7.44,10.862,6.935
			c0,0-2.192-1.655-2.619-3.133c0,0,2.56,0.528,4.923-0.454c0,0-4.496-2.61-5.664-6.345c-1.094-3.495-2.812-8.661-6.223-7.979
			C41.725,14.687,43.225,22.438,44.141,24.924z"/>
	</g>
	<g id="Layer_1_123_">
	</g>
</g>
<g id="Layer_1">
</g>
</svg>
