<?xml version="1.0" encoding="iso-8859-1"?>
<!-- Generator: Adobe Illustrator 16.0.0, SVG Export Plug-In . SVG Version: 6.00 Build 0)  -->
<!DOCTYPE svg PUBLIC "-//W3C//DTD SVG 1.1//EN" "http://www.w3.org/Graphics/SVG/1.1/DTD/svg11.dtd">
<svg version="1.1" xmlns="http://www.w3.org/2000/svg" xmlns:xlink="http://www.w3.org/1999/xlink" x="0px" y="0px" width="64px"
	 height="64px" viewBox="0 0 64 64" style="enable-background:new 0 0 64 64;" xml:space="preserve">
<g id="woman_x5F_juggling_x28_blk_x29_">
	
		<path id="path23_112_" style="fill:#F09400;stroke:#231815;stroke-width:3;stroke-linecap:round;stroke-linejoin:round;stroke-miterlimit:10;" d="
		M46.375,26.874c0,0-2.5,9.13,3.375,10.005c0,0-6.625,6.25-12.875-2C30.36,26.274,44.25,20.624,46.375,26.874z"/>
	
		<radialGradient id="path32_1_" cx="316.4502" cy="-329.6836" r="7.3823" gradientTransform="matrix(1 0 0 -1 -274 -298)" gradientUnits="userSpaceOnUse">
		<stop  offset="0" style="stop-color:#6B6462"/>
		<stop  offset="0.3871" style="stop-color:#5E4B45"/>
		<stop  offset="0.6026" style="stop-color:#463934"/>
		<stop  offset="0.7151" style="stop-color:#3B2D27"/>
		<stop  offset="0.8698" style="stop-color:#2C221D"/>
		<stop  offset="1" style="stop-color:#1C110C"/>
	</radialGradient>
	<path id="path32_72_" style="fill:url(#path32_1_);" d="M46.375,26.874c0,0-2.5,9.13,3.375,10.005c0,0-6.625,6.25-12.875-2
		C30.36,26.274,44.25,20.624,46.375,26.874z"/>
	
		<path id="path34_40_" style="fill:#F09400;stroke:#231815;stroke-width:3;stroke-linecap:round;stroke-linejoin:round;stroke-miterlimit:10;" d="
		M17.875,26.874c0,0,2.5,9.13-3.375,10.005c0,0,6.625,6.25,12.875-2C33.891,26.274,20,20.624,17.875,26.874z"/>
	
		<radialGradient id="path43_1_" cx="-229.5498" cy="-329.6836" r="7.3823" gradientTransform="matrix(-1 0 0 -1 -207.75 -298)" gradientUnits="userSpaceOnUse">
		<stop  offset="0" style="stop-color:#6B6462"/>
		<stop  offset="0.3871" style="stop-color:#5E4B45"/>
		<stop  offset="0.6026" style="stop-color:#463934"/>
		<stop  offset="0.7151" style="stop-color:#3B2D27"/>
		<stop  offset="0.8698" style="stop-color:#2C221D"/>
		<stop  offset="1" style="stop-color:#1C110C"/>
	</radialGradient>
	<path id="path43_128_" style="fill:url(#path43_1_);" d="M17.875,26.874c0,0,2.5,9.13-3.375,10.005c0,0,6.625,6.25,12.875-2
		C33.891,26.274,20,20.624,17.875,26.874z"/>
	
		<radialGradient id="path48_1_" cx="6.0093" cy="22.4395" r="27.0635" gradientTransform="matrix(-0.9763 0.2167 -0.2167 -0.9763 45.1334 63.8261)" gradientUnits="userSpaceOnUse">
		<stop  offset="0" style="stop-color:#FFF89F"/>
		<stop  offset="1" style="stop-color:#F15F57"/>
	</radialGradient>
	<path id="path48_84_" style="fill:url(#path48_1_);stroke:#231815;stroke-width:2;stroke-miterlimit:10;" d="M48.771,39.699
		c0.017,0.281-0.725,0.852-2.206,1.315c-0.251,0.079-0.48,0.138-0.696,0.187c-1.238,0.522-3.792,0.969-6.581,1.305
		c-6.091,0.722-3.443-1.341-3.443-1.341c0.541-0.517,1.608-0.22,2.668-0.325c1.748-0.176,4.759-0.568,6.154-1.775
		c0.447-0.482,1.167-0.896,1.167-0.896c1.133-0.084-0.538,1.612,0.937,1.538C48.07,39.338,48.758,39.435,48.771,39.699z"/>
	
		<radialGradient id="path48_2_" cx="23.4741" cy="31.2822" r="27.0655" gradientTransform="matrix(0.901 0.4339 0.4339 -0.901 -5.4631 61.4953)" gradientUnits="userSpaceOnUse">
		<stop  offset="0" style="stop-color:#FFF89F"/>
		<stop  offset="1" style="stop-color:#F15F57"/>
	</radialGradient>
	<path id="path48_83_" style="fill:url(#path48_2_);stroke:#231815;stroke-width:2;stroke-miterlimit:10;" d="M16.076,36.787
		c-0.079,0.27,0.511,0.994,1.848,1.784c0.228,0.134,0.437,0.244,0.635,0.34c1.087,0.792,3.471,1.811,6.109,2.773
		c5.766,2.093,3.658-0.52,3.658-0.52c-0.408-0.626-1.515-0.581-2.523-0.925c-1.662-0.57-4.504-1.641-5.586-3.135
		c-0.326-0.571-0.932-1.139-0.932-1.139c-1.084-0.34,0.157,1.692-1.263,1.283C16.839,36.596,16.149,36.531,16.076,36.787z"/>
	<g id="g105_29_">
		
			<ellipse id="ellipse99_28_" style="fill:#231815;stroke:#231815;stroke-width:1.8499;stroke-linecap:round;stroke-linejoin:round;stroke-miterlimit:10;" cx="32.071" cy="51.381" rx="4.469" ry="3.375"/>
		
			<path id="path101_41_" style="fill:#231815;stroke:#231815;stroke-width:1.8499;stroke-linecap:round;stroke-linejoin:round;stroke-miterlimit:10;" d="
			M31.568,51.068c0.001,5.781-1.492,10.472-2.37,10.472c-0.876,0-1.589-4.688-1.59-10.472H31.568z"/>
		
			<path id="path103_40_" style="fill:#231815;stroke:#231815;stroke-width:1.8499;stroke-linecap:round;stroke-linejoin:round;stroke-miterlimit:10;" d="
			M32.598,51.068c0,5.781,1.494,10.472,2.371,10.472s1.59-4.688,1.592-10.472H32.598z"/>
	</g>
	<g id="man_x5F_fairy_x28_ye_x29__84_">
		<g id="g155_84_">
			<g id="g153_132_">
				<g id="g142_93_">
					<path id="path26_136_" style="fill:#F09400;stroke:#231815;stroke-width:1.5423;stroke-miterlimit:10;" d="M47.643,22.266
						c0,8.486-7.004,15.358-15.642,15.358c-8.642,0-15.645-6.873-15.645-15.358c0-8.487,7.003-15.369,15.645-15.369
						C40.639,6.896,47.643,13.778,47.643,22.266z"/>
					
						<radialGradient id="path41_1_" cx="314.9492" cy="-315.9644" r="0.5042" gradientTransform="matrix(1 0 0 -1 -274 -298)" gradientUnits="userSpaceOnUse">
						<stop  offset="0" style="stop-color:#6B6462"/>
						<stop  offset="0.3871" style="stop-color:#5E4B45"/>
						<stop  offset="0.6026" style="stop-color:#463934"/>
						<stop  offset="0.7151" style="stop-color:#3B2D27"/>
						<stop  offset="0.8698" style="stop-color:#2C221D"/>
						<stop  offset="1" style="stop-color:#1C110C"/>
					</radialGradient>
					<path id="path41_105_" style="fill:url(#path41_1_);" d="M46.916,22.266c0,8.093-6.68,14.645-14.916,14.645
						c-8.24,0-14.919-6.552-14.919-14.645c0-8.094,6.679-14.656,14.919-14.656C40.236,7.609,46.916,14.171,46.916,22.266z"/>
					<path id="path43_124_" style="fill:#48140F;stroke:#231815;stroke-width:2.7816;stroke-miterlimit:10;" d="M44.156,28.064
						c0,6.865-5.389,10.908-12.032,10.908c-6.644,0-12.03-4.043-12.03-10.908c0-6.871,5.387-12.443,12.03-12.443
						C38.768,15.622,44.156,21.193,44.156,28.064z"/>
					
						<ellipse id="ellipse45_85_" transform="matrix(0.1629 -0.9866 0.9866 0.1629 8.0365 69.2314)" style="fill:none;stroke:#231815;stroke-width:2.7816;stroke-miterlimit:10;" cx="44.817" cy="29.88" rx="2.596" ry="2.226"/>
					
						<radialGradient id="path52_1_" cx="373.0527" cy="-280.5483" r="4.3796" gradientTransform="matrix(0.9866 0.1633 0.1633 -0.9866 -277.4218 -307.826)" gradientUnits="userSpaceOnUse">
						<stop  offset="0" style="stop-color:#C35B22"/>
						<stop  offset="1" style="stop-color:#45220E"/>
					</radialGradient>
					<path id="path52_95_" style="fill:url(#path52_1_);" d="M47.016,30.243c-0.233,1.415-1.408,2.399-2.621,2.198
						c-1.213-0.201-2.006-1.509-1.771-2.924c0.233-1.413,1.408-2.394,2.619-2.195C46.457,27.522,47.25,28.832,47.016,30.243z"/>
					
						<ellipse id="ellipse54_124_" transform="matrix(0.163 0.9866 -0.9866 0.163 45.6287 5.9769)" style="fill:none;stroke:#231815;stroke-width:2.7816;stroke-miterlimit:10;" cx="19.292" cy="29.881" rx="2.596" ry="2.226"/>
					
						<radialGradient id="path61_1_" cx="-165.7144" cy="-369.7231" r="4.3799" gradientTransform="matrix(-0.9866 0.1633 -0.1633 -0.9866 -204.5762 -307.826)" gradientUnits="userSpaceOnUse">
						<stop  offset="0" style="stop-color:#C35B22"/>
						<stop  offset="1" style="stop-color:#45220E"/>
					</radialGradient>
					<path id="path61_89_" style="fill:url(#path61_1_);" d="M17.095,30.243c0.235,1.415,1.408,2.399,2.62,2.198
						c1.213-0.201,2.006-1.509,1.771-2.924c-0.233-1.413-1.406-2.394-2.62-2.195C17.655,27.522,16.862,28.832,17.095,30.243z"/>
					
						<path id="path34-7-5_329_" style="fill:#4C0A02;stroke:#231815;stroke-width:2;stroke-linecap:round;stroke-linejoin:round;stroke-miterlimit:10;" d="
						M35.732,42.494c0.268-0.322,0.537-1.664,0-1.934c-0.537-0.269-1.904-0.644-1.904-0.644c-1.229-0.377-2.477-0.377-3.704,0
						c0,0-1.369,0.375-1.906,0.644c-0.535,0.27-0.268,1.61,0,1.934c0,0,0.484,3.863-0.535,7.834c0,0,1.555,1.824,4.293,1.824
						c2.736,0,4.293-1.824,4.293-1.824C35.25,46.357,35.732,42.494,35.732,42.494z"/>
					
						<radialGradient id="path34-7-5_1_" cx="305.9355" cy="-332.418" r="32.8077" gradientTransform="matrix(1 0 0 -1 -274 -298)" gradientUnits="userSpaceOnUse">
						<stop  offset="0" style="stop-color:#C35B22"/>
						<stop  offset="1" style="stop-color:#45220E"/>
					</radialGradient>
					<path id="path34-7-5_328_" style="fill:url(#path34-7-5_1_);" d="M35.732,42.494c0.268-0.322,0.537-1.664,0-1.934
						c-0.537-0.269-1.904-0.644-1.904-0.644c-1.229-0.377-2.477-0.377-3.704,0c0,0-1.369,0.375-1.906,0.644
						c-0.535,0.27-0.268,1.61,0,1.934c0,0,0.484,3.863-0.535,7.834c0,0,1.555,1.625,4.293,1.625c2.736,0,4.293-1.625,4.293-1.625
						C35.25,46.357,35.732,42.494,35.732,42.494z"/>
					<linearGradient id="rect97_1_" gradientUnits="userSpaceOnUse" x1="32.0073" y1="41.5" x2="32.0073" y2="38.9875">
						<stop  offset="0" style="stop-color:#C35B22"/>
						<stop  offset="1" style="stop-color:#45220E"/>
					</linearGradient>
					<rect id="rect97_75_" x="30.943" y="37.745" style="fill:url(#rect97_1_);" width="2.128" height="3.104"/>
					
						<radialGradient id="path119_1_" cx="306.125" cy="-325.2969" r="22.04" gradientTransform="matrix(1 0 0 -1 -274 -298)" gradientUnits="userSpaceOnUse">
						<stop  offset="0" style="stop-color:#C35B22"/>
						<stop  offset="1" style="stop-color:#45220E"/>
					</radialGradient>
					<path id="path119_113_" style="fill:url(#path119_1_);" d="M44.156,28.064c0,6.865-5.389,10.908-12.032,10.908
						c-6.644,0-12.03-4.043-12.03-10.908c0-6.871,5.387-12.443,12.03-12.443C38.768,15.622,44.156,21.193,44.156,28.064z"/>
					
						<path id="path121_95_" style="fill:none;stroke:#A4414A;stroke-width:0.8345;stroke-linecap:round;stroke-linejoin:round;stroke-miterlimit:10;" d="
						M39.541,21.675c0,0-1.555-2.108-3.654,0"/>
					
						<path id="path123_229_" style="fill:none;stroke:#231815;stroke-width:0.8345;stroke-linecap:round;stroke-linejoin:round;stroke-miterlimit:10;" d="
						M28.329,21.675c0,0-1.557-2.108-3.656,0"/>
				</g>
			</g>
		</g>
		<g id="g213_400_">
			
				<linearGradient id="ellipse170_1_" gradientUnits="userSpaceOnUse" x1="313.0098" y1="-328.1152" x2="317.5977" y2="-328.1152" gradientTransform="matrix(1 0 0 -1 -274 -298)">
				<stop  offset="0" style="stop-color:#F26D6D"/>
				<stop  offset="0.1557" style="stop-color:#F35E70"/>
				<stop  offset="0.4859" style="stop-color:#F44275"/>
				<stop  offset="0.7781" style="stop-color:#F53278"/>
				<stop  offset="1" style="stop-color:#F52C79"/>
			</linearGradient>
			<ellipse id="ellipse170_83_" style="fill:url(#ellipse170_1_);" cx="41.305" cy="30.115" rx="2.293" ry="1.112"/>
			
				<linearGradient id="ellipse185_1_" gradientUnits="userSpaceOnUse" x1="-233.1021" y1="-328.1152" x2="-228.5122" y2="-328.1152" gradientTransform="matrix(-1 0 0 -1 -208 -298)">
				<stop  offset="0" style="stop-color:#F26D6D"/>
				<stop  offset="0.1557" style="stop-color:#F35E70"/>
				<stop  offset="0.4859" style="stop-color:#F44275"/>
				<stop  offset="0.7781" style="stop-color:#F53278"/>
				<stop  offset="1" style="stop-color:#F52C79"/>
			</linearGradient>
			<ellipse id="ellipse185_166_" style="fill:url(#ellipse185_1_);" cx="22.807" cy="30.115" rx="2.295" ry="1.112"/>
			<path id="ellipse185_165_" style="fill:#3B0807;" d="M32.008,32.24c2.136,0,3.868,0.5,3.868,1.116
				c0,0.614-1.732,1.972-3.868,1.972c-2.137,0-3.869-1.357-3.869-1.972C28.139,32.741,29.871,32.24,32.008,32.24z"/>
		</g>
		
			<path id="line200_106_" style="fill:none;stroke:#40120D;stroke-width:0.8312;stroke-linecap:round;stroke-linejoin:round;stroke-miterlimit:10;" d="
			M31.261,55.081"/>
	</g>
	<ellipse id="ellipse107_26_" style="fill:#A20B5E;" cx="32.071" cy="51.281" rx="4.469" ry="3.375"/>
	<path id="path191_32_" style="fill:#A20B5E;" d="M31.568,51.068c0.001,5.781-1.492,10.472-2.37,10.472
		c-0.876,0-1.589-4.688-1.59-10.472H31.568z"/>
	<path id="path193_33_" style="fill:#A20B5E;" d="M32.598,51.068c0,5.781,1.494,10.472,2.371,10.472s1.59-4.688,1.592-10.472H32.598
		z"/>
	<path id="path196_273_" style="fill:#40120D;" d="M33.393,62.501c0-1.163,0.945-2.106,2.107-2.106c1.164,0,2.107,0.943,2.107,2.106
		H33.393z"/>
	<path id="path198_29_" style="fill:#40120D;" d="M26.642,62.501c0-1.163,0.943-2.106,2.107-2.106s2.107,0.943,2.107,2.106H26.642z"
		/>
	
		<line id="line200_105_" style="fill:none;stroke:#40120D;stroke-width:0.8312;stroke-linecap:round;stroke-linejoin:round;stroke-miterlimit:10;" x1="31.261" y1="55.081" x2="32.971" y2="55.081"/>
	<g>
		<path style="fill:#E1007F;" d="M35.732,42.494c0.268-0.322,0.537-1.664,0-1.934c-0.537-0.269-1.904-0.644-1.904-0.644
			c-0.117-0.036-0.235-0.052-0.354-0.081c0.014,0.081,0.025,0.163,0.025,0.248c0,0.828-0.671,1.5-1.5,1.5s-1.5-0.672-1.5-1.5
			c0-0.089,0.011-0.175,0.026-0.259c-0.134,0.031-0.269,0.051-0.402,0.092c0,0-1.369,0.375-1.906,0.644
			c-0.535,0.27-0.268,1.61,0,1.934c0,0,0.484,3.863-0.535,7.834c0,0,1.555,1.625,4.293,1.625c2.736,0,4.293-1.625,4.293-1.625
			C35.25,46.357,35.732,42.494,35.732,42.494z"/>
	</g>
	<g id="g116_29_">
		<g id="g114_30_">
			<g id="g213_399_">
				<path id="path138_11_" style="fill:#160201;" d="M39.218,25.022c0.438-0.005,0.984-0.224,1.166-0.5c0,0,0.193,1.114-0.963,1.614
					C38.497,26.536,39.218,25.022,39.218,25.022z"/>
				<g id="g153_141_">
					<g id="g151_48_">
						<path id="path149_57_" style="fill:#160201;" d="M25.003,25.022c-0.438-0.005-0.984-0.224-1.167-0.5
							c0,0-0.193,1.114,0.963,1.614C25.724,26.536,25.003,25.022,25.003,25.022z"/>
					</g>
				</g>
				<path id="path209_248_" style="fill:#160201;" d="M39.676,27.323c0,1.703-0.873,3.086-1.947,3.086
					c-1.078,0-1.949-1.383-1.949-3.086c0-1.713,0.871-3.099,1.949-3.099C38.803,24.226,39.676,25.61,39.676,27.323z"/>
				<path id="path211_199_" style="fill:#FFFFFF;" d="M39.064,25.726c0,0.462-0.373,0.834-0.838,0.834
					c-0.461,0-0.834-0.372-0.834-0.834c0-0.461,0.373-0.836,0.834-0.836C38.691,24.89,39.064,25.265,39.064,25.726z"/>
			</g>
			<g id="g213_398_">
				<path id="path209_247_" style="fill:#160201;" d="M28.495,27.323c0,1.703-0.873,3.086-1.947,3.086
					c-1.078,0-1.949-1.383-1.949-3.086c0-1.713,0.871-3.099,1.949-3.099C27.622,24.226,28.495,25.61,28.495,27.323z"/>
				<path id="path211_198_" style="fill:#FFFFFF;" d="M27.884,25.726c0,0.462-0.373,0.834-0.838,0.834
					c-0.461,0-0.834-0.372-0.834-0.834c0-0.461,0.373-0.836,0.834-0.836C27.511,24.89,27.884,25.265,27.884,25.726z"/>
			</g>
			<circle id="circle223_40_" style="fill:#FFFFFF;" cx="27.048" cy="25.726" r="0.836"/>
		</g>
	</g>
	<path id="path125_107_" style="fill:#231815;" d="M20.094,29.266c0,0-1.408-3.665-1.64-7.651c-0.16-2.803-0.503-4.605,1.724-7.109
		c2.278-2.563,5.702-5.97,11.822-5.97c6.117,0,9.544,3.407,11.822,5.969c2.227,2.504,1.883,4.306,1.723,7.109
		c-0.23,3.987-1.389,7.651-1.389,7.651c-0.326-1.09-1.914-4.131-1.914-4.131c-0.742,0-3.139-0.739-3.139-0.739v0.925
		c-4.957-0.57-6.896-4.507-6.896-4.507l-0.494,5.075c-3.256-1.575-5.15-6.199-5.15-6.199C21.208,23.375,20.548,28.993,20.094,29.266
		z"/>
	
		<radialGradient id="path140_1_" cx="306" cy="-315.8994" r="12.0945" gradientTransform="matrix(1 0 0 -1 -274 -298)" gradientUnits="userSpaceOnUse">
		<stop  offset="0" style="stop-color:#6B6462"/>
		<stop  offset="0.3871" style="stop-color:#5E4B45"/>
		<stop  offset="0.6026" style="stop-color:#463934"/>
		<stop  offset="0.7151" style="stop-color:#3B2D27"/>
		<stop  offset="0.8698" style="stop-color:#2C221D"/>
		<stop  offset="1" style="stop-color:#1C110C"/>
	</radialGradient>
	<path id="path140_85_" style="fill:url(#path140_1_);" d="M20.094,28.064c0,0-1.521-2.809-1.754-7.251
		c-0.163-3.124-0.389-4.605,1.838-7.109c2.278-2.563,5.702-5.97,11.822-5.97c6.117,0,9.544,3.407,11.822,5.969
		c2.227,2.504,2,3.985,1.838,7.109c-0.232,4.442-1.504,7.251-1.504,7.251c-0.326-1.09-1.715-3.73-1.715-3.73
		c-0.742,0-3.338-0.739-3.338-0.739v0.925c-5.008-0.37-7.233-5.005-7.233-5.005l-0.557,5.372c-2.782-1.292-4.45-6.299-4.45-6.299
		C20.874,22.279,20.548,27.792,20.094,28.064z"/>
	
		<radialGradient id="path48_3_" cx="23.3584" cy="31.2822" r="27.0295" gradientTransform="matrix(0.901 0.4339 0.4339 -0.901 -5.4631 61.4953)" gradientUnits="userSpaceOnUse">
		<stop  offset="0" style="stop-color:#C35B22"/>
		<stop  offset="1" style="stop-color:#45220E"/>
	</radialGradient>
	<path id="path48_82_" style="fill:url(#path48_3_);" d="M16.076,36.787c-0.079,0.27,0.511,0.994,1.848,1.784
		c0.228,0.134,0.437,0.244,0.635,0.34c1.087,0.792,3.471,1.811,6.109,2.773c5.458,2.065,3.658-0.52,3.658-0.52
		c-0.408-0.626-1.515-0.581-2.523-0.925c-1.662-0.57-4.504-1.641-5.586-3.135c-0.326-0.571-0.932-1.139-0.932-1.139
		c-1.084-0.34,0.157,1.692-1.263,1.283C16.839,36.596,16.149,36.531,16.076,36.787z"/>
	
		<radialGradient id="path48_4_" cx="5.8945" cy="22.4395" r="27.0295" gradientTransform="matrix(-0.9763 0.2167 -0.2167 -0.9763 45.1334 63.8261)" gradientUnits="userSpaceOnUse">
		<stop  offset="0" style="stop-color:#C35B22"/>
		<stop  offset="1" style="stop-color:#45220E"/>
	</radialGradient>
	<path id="path48_81_" style="fill:url(#path48_4_);" d="M48.771,39.699c0.017,0.281-0.725,0.852-2.206,1.315
		c-0.251,0.079-0.48,0.138-0.696,0.187c-1.238,0.522-3.792,0.969-6.581,1.305c-5.785,0.765-3.443-1.341-3.443-1.341
		c0.541-0.517,1.608-0.22,2.668-0.325c1.748-0.176,4.759-0.568,6.154-1.775c0.447-0.482,1.167-0.896,1.167-0.896
		c1.133-0.084-0.538,1.612,0.937,1.538C48.07,39.338,48.758,39.435,48.771,39.699z"/>
	<circle style="fill:#EA6A24;stroke:#EA6A24;stroke-width:1.5;stroke-miterlimit:10;" cx="10.188" cy="29.813" r="3.309"/>
	<circle style="fill:#F5B32C;" cx="10.188" cy="29.813" r="3.309"/>
	<circle style="fill:#036EB5;stroke:#036EB5;stroke-width:1.5;stroke-miterlimit:10;" cx="23.637" cy="7.938" r="3.309"/>
	<circle style="fill:#009DE6;" cx="23.637" cy="7.938" r="3.309"/>
	<g>
		<circle style="fill:#FFFFFF;" cx="22.536" cy="6.012" r="1.057"/>
	</g>
	<circle style="fill:#FFFFFF;" cx="9.012" cy="28.012" r="1.057"/>
	<circle style="fill:#C10D23;stroke:#C10D23;stroke-width:1.5;stroke-miterlimit:10;" cx="42.016" cy="6.362" r="3.309"/>
	<circle style="fill:#E30012;" cx="42.016" cy="6.362" r="3.309"/>
	<circle style="fill:#5F1983;stroke:#5F1983;stroke-width:1.5;stroke-miterlimit:10;" cx="53.813" cy="25.688" r="3.309"/>
	<circle style="fill:#8F0780;" cx="53.813" cy="25.688" r="3.309"/>
	<circle style="fill:#FFFFFF;" cx="40.866" cy="4.412" r="1.058"/>
	<circle style="fill:#FFFFFF;" cx="52.663" cy="23.762" r="1.058"/>
</g>
<g id="Layer_1">
</g>
</svg>
