<?xml version="1.0" encoding="utf-8"?>
<!-- Generator: Adobe Illustrator 16.0.0, SVG Export Plug-In . SVG Version: 6.00 Build 0)  -->
<!DOCTYPE svg PUBLIC "-//W3C//DTD SVG 1.1//EN" "http://www.w3.org/Graphics/SVG/1.1/DTD/svg11.dtd">
<svg version="1.1" id="Layer_72" xmlns="http://www.w3.org/2000/svg" xmlns:xlink="http://www.w3.org/1999/xlink" x="0px" y="0px"
	 width="64px" height="64px" viewBox="0 0 64 64" enable-background="new 0 0 64 64" xml:space="preserve">
<radialGradient id="SVGID_1_" cx="46.4297" cy="17.6738" r="11.9214" gradientUnits="userSpaceOnUse">
	<stop  offset="0" style="stop-color:#9A9395"/>
	<stop  offset="1" style="stop-color:#3D2620"/>
</radialGradient>
<path fill="url(#SVGID_1_)" stroke="#231815" stroke-width="3" stroke-linecap="round" stroke-linejoin="round" stroke-miterlimit="10" d="
	M35.137,8.121c1.466-2.361,7.334-4.725,12.41,1.199c5.077,5.923,2.07,13.824,5.641,15.23c2.326,0.917,4.795-1.058,5.007-2.327
	c0,0-0.263,5.494-4.936,7.051c-6.981,2.327-10.72-4.442-11.917-8.25c-1.199-3.808-5.782-7.897-5.782-7.897
	S33.867,10.166,35.137,8.121z"/>
<radialGradient id="SVGID_2_" cx="41.0967" cy="10.4233" r="12.2062" gradientUnits="userSpaceOnUse">
	<stop  offset="0" style="stop-color:#7B7170"/>
	<stop  offset="1" style="stop-color:#3D2620"/>
</radialGradient>
<path fill="url(#SVGID_2_)" d="M35.137,8.121c1.466-2.361,7.334-4.725,12.41,1.199c5.077,5.923,2.07,13.824,5.641,15.23
	c2.326,0.917,4.795-1.058,5.007-2.327c0,0-0.263,5.494-4.936,7.051c-6.981,2.327-10.72-4.442-11.917-8.25
	c-1.199-3.808-5.782-7.897-5.782-7.897S33.867,10.166,35.137,8.121z"/>
<path fill="#1F0000" stroke="#1F0000" stroke-width="2" stroke-miterlimit="10" d="M43.411,12.088c0,3.99-3.338,7.227-7.454,7.227
	c-4.121,0-7.464-3.236-7.464-7.227c0-3.991,3.343-7.226,7.464-7.226C40.073,4.863,43.411,8.097,43.411,12.088z"/>
<radialGradient id="SVGID_3_" cx="39.2236" cy="6.2285" r="5.3382" gradientUnits="userSpaceOnUse">
	<stop  offset="0" style="stop-color:#FFD96B"/>
	<stop  offset="0.1244" style="stop-color:#FCBB57"/>
	<stop  offset="1" style="stop-color:#F47B20"/>
</radialGradient>
<path fill="url(#SVGID_3_)" d="M43.411,12.088c0,3.99-3.338,7.227-7.454,7.227c-4.121,0-7.464-3.236-7.464-7.227
	c0-3.991,3.343-7.226,7.464-7.226C40.073,4.863,43.411,8.097,43.411,12.088z"/>
<path fill="#E1007F" stroke="#500000" stroke-width="2.5" stroke-linecap="round" stroke-linejoin="round" stroke-miterlimit="10" d="
	M38.865,59.313c-1.286,1.104-3.215,1.756-6.464,1.756c-9.75,0-4.3-10.729-4.3-10.729l0.02-0.084h7.974l0.02,0.084
	c0,0,1.459,2.827,2.776,2.827c0.877,0,0.054-0.313,0.556-0.938c0.434-0.542,1.158-0.573,2.09-0.063
	c1.207,0.661,2.027,2.5,2.752,2.25c0.723-0.25,0.762-3.051,2.107-2.229c1.125,0.688,1.222,3.688,1.222,3.688
	s-0.997-2.917-1.673-1.542c-0.376,0.767-0.541,2.135-1.15,3.021c-0.586,0.854-1.209,1.387-3.16,0.375
	C39.701,56.729,40.479,57.927,38.865,59.313z"/>
<path id="path30-2_24_" inkscape:connector-curvature="0" fill="#143A68" stroke="#143A68" stroke-width="2.7816" stroke-miterlimit="10" d="
	M29.079,40.431c0,0,0.927,0.931-1.541,4.158c-2.467,3.23-4.451,4.892-5.101,4.422c-0.648-0.469-2.177-0.41-1.033-2.093
	c0,0-0.169-1.181,0.949-0.913c1.5,0.969,4.405-2.433,5.074-3.473C28.003,41.637,28.01,40.016,29.079,40.431z"/>
<path id="path34-7-5_13_" inkscape:connector-curvature="0" fill="#143A68" stroke="#143A68" stroke-width="2.7816" stroke-miterlimit="10" d="
	M35.527,42.494c0.248-0.322,0.494-1.664,0-1.934c-0.492-0.268-1.75-0.643-1.75-0.643c-1.129-0.377-2.277-0.377-3.404,0
	c0,0-1.259,0.375-1.752,0.643c-0.493,0.27-0.247,1.611,0,1.934c0,0,0.444,3.863-0.493,7.834c0,0,1.43,1.824,3.947,1.824
	c2.516,0,3.946-1.824,3.946-1.824C35.085,46.357,35.527,42.494,35.527,42.494z"/>
<path id="path30-2_23_" inkscape:connector-curvature="0" fill="#143A68" stroke="#143A68" stroke-width="2.7816" stroke-miterlimit="10" d="
	M36.769,42.582c0.669,1.04,3.573,4.441,5.073,3.473c1.118-0.268,0.949,0.913,0.949,0.913c1.145,1.683-0.385,1.624-1.032,2.093
	c-0.649,0.47-2.634-1.191-5.101-4.422c-2.469-3.228-1.541-4.158-1.541-4.158C36.187,40.065,36.192,41.687,36.769,42.582z"/>
<g>
	<g>
		<g>
			<radialGradient id="SVGID_4_" cx="31.999" cy="21.7607" r="15.505" gradientUnits="userSpaceOnUse">
				<stop  offset="0" style="stop-color:#3D2620"/>
				<stop  offset="1" style="stop-color:#3D2620"/>
			</radialGradient>
			<path fill="url(#SVGID_4_)" stroke="#000000" stroke-width="1.542" stroke-miterlimit="10" d="M47.643,21.765
				c0,8.486-7.004,15.361-15.642,15.361c-8.642,0-15.645-6.875-15.645-15.361c0-8.487,7.003-15.369,15.645-15.369
				C40.639,6.396,47.643,13.278,47.643,21.765z"/>
			<radialGradient id="SVGID_5_" cx="31.9995" cy="21.7603" r="14.6612" gradientUnits="userSpaceOnUse">
				<stop  offset="0" style="stop-color:#3D2620"/>
				<stop  offset="1" style="stop-color:#3D2620"/>
			</radialGradient>
			<path fill="url(#SVGID_5_)" d="M46.792,21.765c0,8.025-6.624,14.524-14.791,14.524c-8.171,0-14.794-6.5-14.794-14.524
				c0-8.025,6.623-14.533,14.794-14.533C40.168,7.231,46.792,13.739,46.792,21.765z"/>
			<path fill="#143A68" stroke="#143A68" stroke-width="2.7816" stroke-miterlimit="10" d="M44.156,27.564
				c0,6.867-5.389,10.911-12.032,10.911c-6.644,0-12.03-4.044-12.03-10.911c0-6.871,5.387-12.443,12.03-12.443
				C38.768,15.121,44.156,20.693,44.156,27.564z"/>
			
				<ellipse transform="matrix(0.9866 0.163 -0.163 0.9866 5.2079 -6.9264)" fill="#143A68" stroke="#143A68" stroke-width="2.7816" stroke-miterlimit="10" cx="44.819" cy="28.278" rx="2.226" ry="2.596"/>
			
				<radialGradient id="SVGID_6_" cx="43.1855" cy="30.4253" r="4.378" gradientTransform="matrix(0.9866 0.1633 -0.1633 0.9866 7.1795 -8.792)" gradientUnits="userSpaceOnUse">
				<stop  offset="0" style="stop-color:#60C3AD"/>
				<stop  offset="1" style="stop-color:#009ADC"/>
				<stop  offset="1" style="stop-color:#00589B"/>
			</radialGradient>
			<path fill="url(#SVGID_6_)" d="M47.016,28.641c-0.234,1.415-1.408,2.399-2.621,2.198s-2.006-1.509-1.771-2.924
				c0.234-1.413,1.408-2.394,2.619-2.195C46.457,25.921,47.25,27.23,47.016,28.641z"/>
			
				<ellipse transform="matrix(-0.9866 0.163 -0.163 -0.9866 42.9337 53.0337)" fill="#143A68" stroke="#143A68" stroke-width="2.7816" stroke-miterlimit="10" cx="19.291" cy="28.278" rx="2.226" ry="2.596"/>
			
				<radialGradient id="SVGID_7_" cx="43.0791" cy="30.4429" r="4.3772" gradientTransform="matrix(-0.9866 0.1633 0.1633 0.9866 56.8234 -8.792)" gradientUnits="userSpaceOnUse">
				<stop  offset="0" style="stop-color:#60C3AD"/>
				<stop  offset="1" style="stop-color:#009ADC"/>
				<stop  offset="1" style="stop-color:#00589B"/>
			</radialGradient>
			<path fill="url(#SVGID_7_)" d="M17.095,28.641c0.235,1.415,1.408,2.399,2.62,2.198c1.213-0.201,2.006-1.509,1.771-2.924
				c-0.233-1.413-1.406-2.394-2.62-2.195C17.655,25.921,16.862,27.23,17.095,28.641z"/>
			<radialGradient id="SVGID_8_" cx="47.4746" cy="55.6621" r="20.5295" gradientUnits="userSpaceOnUse">
				<stop  offset="0" style="stop-color:#E36597"/>
				<stop  offset="1" style="stop-color:#E1007F"/>
			</radialGradient>
			<path fill="url(#SVGID_8_)" d="M38.865,59.313c-1.286,1.104-3.215,1.756-6.464,1.756c-9.75,0-4.3-10.729-4.3-10.729l0.02-0.084
				h7.974l0.02,0.084c0,0,1.459,2.827,2.776,2.827c0.877,0,0.054-0.313,0.556-0.938c0.434-0.542,1.158-0.573,2.09-0.063
				c1.207,0.661,2.027,2.5,2.752,2.25c0.723-0.25,0.762-3.051,2.107-2.229c1.125,0.688,1.222,3.688,1.222,3.688
				s-0.997-2.917-1.673-1.542c-0.376,0.767-0.541,2.135-1.15,3.021c-0.586,0.854-1.209,1.387-3.16,0.375
				C39.701,56.729,40.479,57.927,38.865,59.313z"/>
			<radialGradient id="SVGID_9_" cx="44.25" cy="39.417" r="14.0987" gradientUnits="userSpaceOnUse">
				<stop  offset="0" style="stop-color:#E36597"/>
				<stop  offset="1" style="stop-color:#BA006F"/>
			</radialGradient>
			<path fill="url(#SVGID_9_)" d="M45.943,53.666c-0.376,0.767-0.541,2.135-1.15,3.021c-0.586,0.854-1.209,1.387-3.16,0.375
				c-1.932-1-1.154,0.197-2.768,1.583c-1.286,1.104-3.215,1.756-6.464,1.756c-4.419,0-5.711-2.205-5.808-4.615
				c-0.118,2.654,0.983,5.282,5.808,5.282c3.25,0,5.178-0.651,6.464-1.756c1.613-1.386,0.836-2.583,2.768-1.583
				c1.951,1.012,2.574,0.479,3.16-0.375c0.609-0.887,0.774-2.255,1.15-3.021c0.676-1.375,1.673,1.542,1.673,1.542
				s-0.013-0.369-0.076-0.873C47.297,54.365,46.509,52.516,45.943,53.666z"/>
			<path id="path34-7-5_14_" inkscape:connector-curvature="0" fill="#036EB5" d="M35.527,42.893c0.248-0.322,0.494-1.664,0-1.934
				c-0.492-0.268-1.75-0.643-1.75-0.643c-1.129-0.377-2.277-0.377-3.404,0c0,0-1.259,0.375-1.752,0.643
				c-0.493,0.27-0.247,1.611,0,1.934c0,0,0.504,4.482-0.771,7.834c0,0,1.708,1.625,4.225,1.625c2.516,0,4.224-1.625,4.224-1.625
				C35.042,47.584,35.527,42.893,35.527,42.893z"/>
			
				<radialGradient id="path34-7-5_1_" cx="31.6025" cy="34.418" r="32.8075" gradientTransform="matrix(0.9194 0 0 1 2.9814 0)" gradientUnits="userSpaceOnUse">
				<stop  offset="0" style="stop-color:#60C3AD"/>
				<stop  offset="1" style="stop-color:#009ADC"/>
				<stop  offset="1" style="stop-color:#00589B"/>
			</radialGradient>
			<path id="path34-7-5_12_" inkscape:connector-curvature="0" fill="url(#path34-7-5_1_)" d="M35.527,42.494
				c0.248-0.322,0.494-1.664,0-1.934c-0.492-0.268-1.75-0.643-1.75-0.643c-1.129-0.377-2.277-0.377-3.404,0
				c0,0-1.259,0.375-1.752,0.643c-0.493,0.27-0.247,1.611,0,1.934c0,0,0.444,3.863-0.493,7.834c0,0,1.43,1.625,3.947,1.625
				c2.516,0,3.946-1.625,3.946-1.625C35.085,46.357,35.527,42.494,35.527,42.494z"/>
			<radialGradient id="path30-2_1_" cx="32.623" cy="35.3584" r="28.9359" gradientUnits="userSpaceOnUse">
				<stop  offset="0" style="stop-color:#60C3AD"/>
				<stop  offset="1" style="stop-color:#009ADC"/>
				<stop  offset="1" style="stop-color:#00589B"/>
			</radialGradient>
			<path id="path30-2_22_" inkscape:connector-curvature="0" fill="url(#path30-2_1_)" d="M36.769,42.582
				c0.669,1.04,3.573,4.441,5.073,3.473c1.118-0.268,0.949,0.913,0.949,0.913c1.145,1.683-0.385,1.624-1.032,2.093
				c-0.649,0.47-2.634-1.191-5.101-4.422c-2.469-3.228-1.541-4.158-1.541-4.158C36.187,40.065,36.192,41.687,36.769,42.582z"/>
			
				<radialGradient id="path30-2_2_" cx="47.4473" cy="35.3086" r="28.9359" gradientTransform="matrix(-1 0 0 1 79.0195 0)" gradientUnits="userSpaceOnUse">
				<stop  offset="0" style="stop-color:#60C3AD"/>
				<stop  offset="1" style="stop-color:#009ADC"/>
				<stop  offset="1" style="stop-color:#00589B"/>
			</radialGradient>
			<path id="path30-2_21_" inkscape:connector-curvature="0" fill="url(#path30-2_2_)" d="M29.079,40.431
				c0,0,0.927,0.931-1.541,4.158c-2.467,3.23-4.451,4.892-5.101,4.422c-0.648-0.469-2.177-0.41-1.033-2.093
				c0,0-0.169-1.181,0.949-0.913c1.5,0.969,4.405-2.433,5.074-3.473C28.003,41.637,28.01,40.016,29.079,40.431z"/>
			<linearGradient id="SVGID_10_" gradientUnits="userSpaceOnUse" x1="32.1079" y1="41" x2="32.1079" y2="38.1223">
				<stop  offset="0" style="stop-color:#3EBDAD"/>
				<stop  offset="0.2419" style="stop-color:#39B4B1"/>
				<stop  offset="0.6275" style="stop-color:#2D9DBE"/>
				<stop  offset="0.6882" style="stop-color:#2B99C0"/>
				<stop  offset="0.7583" style="stop-color:#2387AD"/>
				<stop  offset="0.9003" style="stop-color:#0F5A7B"/>
				<stop  offset="1" style="stop-color:#003754"/>
			</linearGradient>
			<rect x="31.043" y="37.745" fill="url(#SVGID_10_)" width="2.128" height="3.105"/>
			<radialGradient id="SVGID_11_" cx="32.125" cy="26.7979" r="22.0413" gradientUnits="userSpaceOnUse">
				<stop  offset="0" style="stop-color:#60C3AD"/>
				<stop  offset="1" style="stop-color:#009ADC"/>
			</radialGradient>
			<path fill="url(#SVGID_11_)" d="M44.156,27.564c0,6.867-5.389,10.911-12.032,10.911c-6.644,0-12.03-4.044-12.03-10.911
				c0-6.871,5.387-12.443,12.03-12.443C38.768,15.121,44.156,20.693,44.156,27.564z"/>
			<linearGradient id="SVGID_12_" gradientUnits="userSpaceOnUse" x1="39.0098" y1="30.7158" x2="43.5977" y2="30.7158">
				<stop  offset="0" style="stop-color:#AD9282"/>
				<stop  offset="0.2466" style="stop-color:#B27678"/>
				<stop  offset="0.5412" style="stop-color:#B85A6F"/>
				<stop  offset="0.802" style="stop-color:#BB4A69"/>
				<stop  offset="1" style="stop-color:#BC4467"/>
			</linearGradient>
			<ellipse fill="url(#SVGID_12_)" cx="41.304" cy="30.716" rx="2.294" ry="1.112"/>
			
				<linearGradient id="SVGID_13_" gradientUnits="userSpaceOnUse" x1="38.8984" y1="30.7158" x2="43.4883" y2="30.7158" gradientTransform="matrix(-1 0 0 1 64 0)">
				<stop  offset="0" style="stop-color:#AD9282"/>
				<stop  offset="0.2466" style="stop-color:#B27678"/>
				<stop  offset="0.5412" style="stop-color:#B85A6F"/>
				<stop  offset="0.802" style="stop-color:#BB4A69"/>
				<stop  offset="1" style="stop-color:#BC4467"/>
			</linearGradient>
			<ellipse fill="url(#SVGID_13_)" cx="22.807" cy="30.716" rx="2.295" ry="1.112"/>
			
				<path fill="none" stroke="#A4414A" stroke-width="0.8345" stroke-linecap="round" stroke-linejoin="round" stroke-miterlimit="10" d="
				M39.541,21.175c0,0-1.555-2.108-3.654,0"/>
			
				<path fill="none" stroke="#231815" stroke-width="0.8345" stroke-linecap="round" stroke-linejoin="round" stroke-miterlimit="10" d="
				M28.329,21.175c0,0-1.557-2.108-3.656,0"/>
			<path fill="#231815" d="M20.258,28.064c0,0-1.5-2.809-1.729-7.251c-0.161-3.124-0.383-4.605,1.813-7.109
				c2.246-2.563,5.624-4.88,11.659-4.88c6.033,0,9.414,2.317,11.66,4.88c2.195,2.504,1.972,3.985,1.813,7.109
				c-0.23,4.442-1.484,7.251-1.484,7.251c-0.321-1.09-1.69-3.73-1.69-3.73c-0.731,0-3.292-0.739-3.292-0.739v0.925
				c-4.939-0.37-7.133-5.005-7.133-5.005l-0.549,5.372c-2.744-1.292-4.389-6.299-4.389-6.299
				C21.027,22.279,20.706,27.791,20.258,28.064z"/>
			<radialGradient id="SVGID_14_" cx="32" cy="17.3994" r="12.0942" gradientUnits="userSpaceOnUse">
				<stop  offset="0" style="stop-color:#9A9395"/>
				<stop  offset="1" style="stop-color:#3D2620"/>
			</radialGradient>
			<path fill="url(#SVGID_14_)" d="M20.094,27.564c0,0-1.521-2.809-1.754-7.251c-0.163-3.124-0.389-4.605,1.838-7.109
				C22.456,10.641,25.88,7.234,32,7.234c6.117,0,9.544,3.407,11.822,5.969c2.227,2.504,2,3.985,1.838,7.109
				c-0.232,4.442-1.504,7.251-1.504,7.251c-0.326-1.09-1.715-3.73-1.715-3.73c-0.742,0-3.338-0.739-3.338-0.739v0.925
				c-5.008-0.37-7.233-5.005-7.233-5.005l-0.557,5.372c-2.782-1.292-4.45-6.299-4.45-6.299
				C20.874,21.779,20.548,27.291,20.094,27.564z"/>
		</g>
		<g>
			<g>
				<path fill="#160201" d="M39.218,25.823c0.438-0.005,0.984-0.224,1.166-0.5c0,0,0.193,1.114-0.963,1.614
					C38.497,27.337,39.218,25.823,39.218,25.823z"/>
				<g id="g213_9_">
					<path id="path209_12_" inkscape:connector-curvature="0" fill="#160201" d="M39.676,27.924c0,1.703-0.873,3.086-1.947,3.086
						c-1.078,0-1.949-1.383-1.949-3.086c0-1.713,0.871-3.099,1.949-3.099C38.803,24.826,39.676,26.211,39.676,27.924z"/>
					<path id="path211_6_" fill="#FFFFFF" d="M39.064,26.326c0,0.462-0.373,0.834-0.838,0.834c-0.461,0-0.834-0.372-0.834-0.834
						c0-0.461,0.373-0.836,0.834-0.836C38.691,25.49,39.064,25.865,39.064,26.326z"/>
				</g>
				<g id="g213_8_">
					<path id="path209_11_" inkscape:connector-curvature="0" fill="#160201" d="M28.495,27.924c0,1.703-0.873,3.086-1.947,3.086
						c-1.078,0-1.949-1.383-1.949-3.086c0-1.713,0.871-3.099,1.949-3.099C27.622,24.826,28.495,26.211,28.495,27.924z"/>
					<path id="path211_5_" fill="#FFFFFF" d="M27.884,26.326c0,0.462-0.373,0.834-0.838,0.834c-0.461,0-0.834-0.372-0.834-0.834
						c0-0.461,0.373-0.836,0.834-0.836C27.511,25.49,27.884,25.865,27.884,26.326z"/>
				</g>
				<circle id="circle223_2_" fill="#FFFFFF" cx="27.048" cy="26.326" r="0.836"/>
			</g>
			<g>
				<g>
					<path fill="#160201" d="M25.003,25.823c-0.438-0.005-0.984-0.224-1.167-0.5c0,0-0.193,1.114,0.963,1.614
						C25.724,27.337,25.003,25.823,25.003,25.823z"/>
				</g>
			</g>
		</g>
	</g>
</g>
<path fill="none" stroke="#00833F" stroke-linecap="round" stroke-linejoin="round" stroke-miterlimit="10" d="M45.938,53.688"/>
<g id="g40_2_" transform="translate(-74.276687,-37.165726)">
	<path id="path36-5-6_4_" inkscape:connector-curvature="0" fill="#036EB5" d="M108.292,79.937c-0.879,0-1.317,1.166-1.946,1.385
		c-0.627-0.219-1.064-1.385-1.944-1.385c-0.879,0-1.581,1.729-1.581,1.729l0.025,0.482c0,0,0.694,1.068,1.573,1.068
		s1.351-0.607,1.926-0.813c0.577,0.205,1.049,0.813,1.929,0.813c0.878,0,1.573-1.068,1.573-1.068l0.025-0.482
		C109.874,81.666,109.171,79.937,108.292,79.937L108.292,79.937z"/>
</g>
<g id="g40_1_" transform="translate(-74.276687,-37.165726)">
	<path id="path36-5-6_3_" inkscape:connector-curvature="0" fill="#E1007F" d="M108.292,79.638c-0.879,0-1.317,1.166-1.946,1.385
		c-0.627-0.219-1.064-1.385-1.944-1.385c-0.879,0-1.581,1.729-1.581,1.729l0.025,0.482c0,0,0.694,1.068,1.573,1.068
		s1.351-0.607,1.926-0.813c0.577,0.205,1.049,0.813,1.929,0.813c0.878,0,1.573-1.068,1.573-1.068l0.025-0.482
		C109.874,81.367,109.171,79.638,108.292,79.638L108.292,79.638z"/>
</g>
<path id="path58-3-7_4_" inkscape:connector-curvature="0" fill="#C30D23" d="M32.035,35.217c1.684-0.082,3.07-0.643,3.279-1.133
	c0.104-0.242,0.104-0.512-0.121-0.664c-0.227-0.15-0.537-0.1-0.697,0.115c-0.313,0.424-2.848,1.611-4.754,0.404
	c-0.229-0.145-0.457-0.176-0.611,0.045c-0.152,0.219,0.035,0.453,0.265,0.6C30.25,35.123,31.107,35.217,32.035,35.217z"/>
<g>
	<g>
		<g>
			<path fill="#E53828" stroke="#5B112F" stroke-linecap="round" stroke-linejoin="round" stroke-miterlimit="10" d="M59.925,59.781
				c-0.592,0-1.118-0.176-1.33-0.338c-0.055-0.042-0.065-0.121-0.023-0.176c0.042-0.056,0.121-0.064,0.176-0.023
				c0.261,0.199,1.192,0.435,1.965,0.158c0.568-0.204,0.932-0.63,1.081-1.267c0.115-0.491,0.05-0.825-0.195-0.991
				c-0.447-0.307-1.429-0.028-1.882,0.286c-0.163,0.114-0.414,0.563-0.3,0.774c0.042,0.078,0.263,0.297,1.364-0.148
				c0.065-0.024,0.137,0.005,0.163,0.069c0.025,0.064-0.006,0.137-0.069,0.163c-0.926,0.373-1.487,0.385-1.678,0.035
				c-0.189-0.35,0.136-0.93,0.377-1.099c0.458-0.318,1.574-0.689,2.164-0.288c0.234,0.158,0.476,0.505,0.3,1.255
				c-0.168,0.715-0.597,1.214-1.241,1.445C60.509,59.74,60.209,59.781,59.925,59.781z"/>
		</g>
		<g>
			<path fill="#F09400" stroke="#5B112F" stroke-linecap="round" stroke-linejoin="round" stroke-miterlimit="10" d="M59.925,59.66
				c-0.592,0-1.118-0.176-1.33-0.338c-0.055-0.042-0.065-0.121-0.023-0.176s0.121-0.064,0.176-0.023
				c0.261,0.199,1.192,0.436,1.965,0.158c0.568-0.204,0.932-0.63,1.081-1.267c0.115-0.491,0.05-0.825-0.195-0.991
				c-0.447-0.307-1.429-0.028-1.882,0.286c-0.163,0.114-0.414,0.563-0.3,0.774c0.042,0.077,0.263,0.297,1.364-0.148
				c0.065-0.025,0.137,0.005,0.163,0.069c0.025,0.064-0.006,0.137-0.069,0.163c-0.926,0.373-1.487,0.385-1.678,0.035
				c-0.189-0.35,0.136-0.93,0.377-1.099c0.458-0.319,1.574-0.688,2.164-0.288c0.234,0.158,0.476,0.505,0.3,1.255
				c-0.168,0.715-0.597,1.214-1.241,1.445C60.509,59.619,60.209,59.66,59.925,59.66z"/>
		</g>
		
			<ellipse fill="#E55825" stroke="#5B112F" stroke-linecap="round" stroke-linejoin="round" stroke-miterlimit="10" cx="55.337" cy="60.733" rx="2.493" ry="0.893"/>
		
			<radialGradient id="SVGID_15_" cx="55.3398" cy="60.6113" r="1.2932" gradientTransform="matrix(1.5617 0 0 1 -31.0871 0)" gradientUnits="userSpaceOnUse">
			<stop  offset="0" style="stop-color:#FFD96B"/>
			<stop  offset="1" style="stop-color:#F89C42"/>
		</radialGradient>
		
			<ellipse fill="url(#SVGID_15_)" stroke="#5B112F" stroke-linecap="round" stroke-linejoin="round" stroke-miterlimit="10" cx="55.337" cy="60.612" rx="2.493" ry="0.893"/>
		
			<ellipse fill="#E55825" stroke="#5B112F" stroke-linecap="round" stroke-linejoin="round" stroke-miterlimit="10" cx="55.337" cy="60.37" rx="1.597" ry="0.521"/>
		
			<radialGradient id="SVGID_16_" cx="55.3369" cy="60.3789" r="1.2935" gradientTransform="matrix(1 0 0 0.5837 0 25.0041)" gradientUnits="userSpaceOnUse">
			<stop  offset="0" style="stop-color:#FFD96B"/>
			<stop  offset="1" style="stop-color:#F89C42"/>
		</radialGradient>
		
			<ellipse fill="url(#SVGID_16_)" stroke="#5B112F" stroke-linecap="round" stroke-linejoin="round" stroke-miterlimit="10" cx="55.337" cy="60.248" rx="1.597" ry="0.521"/>
		<path fill="#E75513" stroke="#5B112F" stroke-linecap="round" stroke-linejoin="round" stroke-miterlimit="10" d="M50.765,56.652
			c-1.761-0.16-1.3-0.092-1.908-0.194l-0.784,0.734c0,0,1.716,0.118,3.236,1.714c1.572,1.651,5.035,2.356,7.297,0.532
			c1.373-1.106,0.608-1.977,0-2.28c-0.366-0.183-1.216-0.57-3.383-0.57C53.602,56.588,52.145,56.778,50.765,56.652z"/>
		<radialGradient id="SVGID_17_" cx="55.8281" cy="58.7158" r="2.3195" gradientUnits="userSpaceOnUse">
			<stop  offset="0" style="stop-color:#FFD96B"/>
			<stop  offset="1" style="stop-color:#F89C42"/>
		</radialGradient>
		<path fill="url(#SVGID_17_)" stroke="#5B112F" stroke-linecap="round" stroke-linejoin="round" stroke-miterlimit="10" d="
			M50.765,56.652c-1.761-0.16-1.3-0.092-1.908-0.194l-0.784,0.734c0,0,1.716,0.118,3.236,1.714c1.572,1.651,5.193,2.124,7.297,0.532
			c1.406-1.064,0.608-1.977,0-2.28c-0.366-0.183-1.216-0.57-3.383-0.57C53.602,56.588,52.145,56.778,50.765,56.652z"/>
		
			<ellipse fill="#E65725" stroke="#5B112F" stroke-linecap="round" stroke-linejoin="round" stroke-miterlimit="10" cx="55.337" cy="57.185" rx="2.493" ry="0.81"/>
		
			<radialGradient id="SVGID_18_" cx="55.3398" cy="57.0332" r="1.2932" gradientTransform="matrix(1.5616 0 0 0.907 -31.0835 5.3308)" gradientUnits="userSpaceOnUse">
			<stop  offset="0" style="stop-color:#FFD96B"/>
			<stop  offset="1" style="stop-color:#F89C42"/>
		</radialGradient>
		
			<ellipse fill="url(#SVGID_18_)" stroke="#5B112F" stroke-linecap="round" stroke-linejoin="round" stroke-miterlimit="10" cx="55.337" cy="57.063" rx="2.493" ry="0.81"/>
		
			<radialGradient id="SVGID_19_" cx="55.3271" cy="54.8604" r="1.2926" gradientTransform="matrix(0.4242 0 0 0.4433 31.8656 31.7747)" gradientUnits="userSpaceOnUse">
			<stop  offset="0" style="stop-color:#FFD96B"/>
			<stop  offset="1" style="stop-color:#F89C42"/>
		</radialGradient>
		
			<ellipse fill="url(#SVGID_19_)" stroke="#5B112F" stroke-linecap="round" stroke-linejoin="round" stroke-miterlimit="10" cx="55.338" cy="56.092" rx="0.677" ry="0.396"/>
	</g>
	<g>
		<g>
			<path fill="#E53828" d="M59.925,59.781c-0.592,0-1.118-0.176-1.33-0.338c-0.055-0.042-0.065-0.121-0.023-0.176
				c0.042-0.056,0.121-0.064,0.176-0.023c0.261,0.199,1.192,0.435,1.965,0.158c0.568-0.204,0.932-0.63,1.081-1.267
				c0.115-0.491,0.05-0.825-0.195-0.991c-0.447-0.307-1.429-0.028-1.882,0.286c-0.163,0.114-0.414,0.563-0.3,0.774
				c0.042,0.078,0.263,0.297,1.364-0.148c0.065-0.024,0.137,0.005,0.163,0.069c0.025,0.064-0.006,0.137-0.069,0.163
				c-0.926,0.373-1.487,0.385-1.678,0.035c-0.189-0.35,0.136-0.93,0.377-1.099c0.458-0.318,1.574-0.689,2.164-0.288
				c0.234,0.158,0.476,0.505,0.3,1.255c-0.168,0.715-0.597,1.214-1.241,1.445C60.509,59.74,60.209,59.781,59.925,59.781z"/>
		</g>
		<g>
			<path fill="#F09400" d="M59.925,59.66c-0.592,0-1.118-0.176-1.33-0.338c-0.055-0.042-0.065-0.121-0.023-0.176
				s0.121-0.064,0.176-0.023c0.261,0.199,1.192,0.436,1.965,0.158c0.568-0.204,0.932-0.63,1.081-1.267
				c0.115-0.491,0.05-0.825-0.195-0.991c-0.447-0.307-1.429-0.028-1.882,0.286c-0.163,0.114-0.414,0.563-0.3,0.774
				c0.042,0.077,0.263,0.297,1.364-0.148c0.065-0.025,0.137,0.005,0.163,0.069c0.025,0.064-0.006,0.137-0.069,0.163
				c-0.926,0.373-1.487,0.385-1.678,0.035c-0.189-0.35,0.136-0.93,0.377-1.099c0.458-0.319,1.574-0.688,2.164-0.288
				c0.234,0.158,0.476,0.505,0.3,1.255c-0.168,0.715-0.597,1.214-1.241,1.445C60.509,59.619,60.209,59.66,59.925,59.66z"/>
		</g>
		<ellipse fill="#E55825" cx="55.337" cy="60.733" rx="2.493" ry="0.893"/>
		
			<radialGradient id="SVGID_20_" cx="55.3398" cy="60.6113" r="1.2932" gradientTransform="matrix(1.5617 0 0 1 -31.0871 0)" gradientUnits="userSpaceOnUse">
			<stop  offset="0" style="stop-color:#FFD96B"/>
			<stop  offset="1" style="stop-color:#F89C42"/>
		</radialGradient>
		<ellipse fill="url(#SVGID_20_)" cx="55.337" cy="60.612" rx="2.493" ry="0.893"/>
		<ellipse fill="#E55825" cx="55.337" cy="60.37" rx="1.597" ry="0.521"/>
		
			<radialGradient id="SVGID_21_" cx="55.3369" cy="60.3789" r="1.2935" gradientTransform="matrix(1 0 0 0.5837 0 25.0041)" gradientUnits="userSpaceOnUse">
			<stop  offset="0" style="stop-color:#FFD96B"/>
			<stop  offset="1" style="stop-color:#F89C42"/>
		</radialGradient>
		<ellipse fill="url(#SVGID_21_)" cx="55.337" cy="60.248" rx="1.597" ry="0.521"/>
		<path fill="#E75513" d="M50.765,56.652c-1.761-0.16-1.3-0.092-1.908-0.194l-0.784,0.734c0,0,1.716,0.118,3.236,1.714
			c1.572,1.651,5.035,2.356,7.297,0.532c1.373-1.106,0.608-1.977,0-2.28c-0.366-0.183-1.216-0.57-3.383-0.57
			C53.602,56.588,52.145,56.778,50.765,56.652z"/>
		<radialGradient id="SVGID_22_" cx="55.8281" cy="58.7158" r="2.3195" gradientUnits="userSpaceOnUse">
			<stop  offset="0" style="stop-color:#FFD96B"/>
			<stop  offset="1" style="stop-color:#F89C42"/>
		</radialGradient>
		<path fill="url(#SVGID_22_)" d="M50.765,56.652c-1.761-0.16-1.3-0.092-1.908-0.194l-0.784,0.734c0,0,1.716,0.118,3.236,1.714
			c1.572,1.651,5.193,2.124,7.297,0.532c1.406-1.064,0.608-1.977,0-2.28c-0.366-0.183-1.216-0.57-3.383-0.57
			C53.602,56.588,52.145,56.778,50.765,56.652z"/>
		<ellipse fill="#E65725" cx="55.337" cy="57.185" rx="2.493" ry="0.81"/>
		
			<radialGradient id="SVGID_23_" cx="55.3398" cy="57.0332" r="1.2932" gradientTransform="matrix(1.5616 0 0 0.907 -31.0835 5.3308)" gradientUnits="userSpaceOnUse">
			<stop  offset="0" style="stop-color:#FFD96B"/>
			<stop  offset="1" style="stop-color:#F89C42"/>
		</radialGradient>
		<ellipse fill="url(#SVGID_23_)" cx="55.337" cy="57.063" rx="2.493" ry="0.81"/>
		
			<radialGradient id="SVGID_24_" cx="55.3271" cy="54.8604" r="1.2926" gradientTransform="matrix(0.4242 0 0 0.4433 31.8656 31.7747)" gradientUnits="userSpaceOnUse">
			<stop  offset="0" style="stop-color:#FFD96B"/>
			<stop  offset="1" style="stop-color:#F89C42"/>
		</radialGradient>
		<ellipse fill="url(#SVGID_24_)" cx="55.338" cy="56.092" rx="0.677" ry="0.396"/>
	</g>
</g>
<radialGradient id="SVGID_25_" cx="38.9443" cy="41.4619" r="9.6924" gradientUnits="userSpaceOnUse">
	<stop  offset="0" style="stop-color:#E36597"/>
	<stop  offset="1" style="stop-color:#BA006F"/>
</radialGradient>
<path fill="url(#SVGID_25_)" d="M39.3,53.084c-0.002-0.001-0.005-0.003-0.008-0.003c-0.04,0.055-0.142,0.086-0.402,0.086
	c-0.864,0-1.787-1.215-2.321-2.053c2.524,3.904,1.717,6.579,2.432,4.887C39.334,55.21,39.526,53.938,39.3,53.084z"/>
</svg>
