<?xml version="1.0" encoding="UTF-8" standalone="no"?>
<!-- Generator: Adobe Illustrator 15.0.2, SVG Export Plug-In . SVG Version: 6.00 Build 0)  -->

<svg
   xmlns:dc="http://purl.org/dc/elements/1.1/"
   xmlns:cc="http://creativecommons.org/ns#"
   xmlns:rdf="http://www.w3.org/1999/02/22-rdf-syntax-ns#"
   xmlns:svg="http://www.w3.org/2000/svg"
   xmlns="http://www.w3.org/2000/svg"
   xmlns:sodipodi="http://sodipodi.sourceforge.net/DTD/sodipodi-0.dtd"
   xmlns:inkscape="http://www.inkscape.org/namespaces/inkscape"
   version="1.1"
   id="レイヤー_1"
   x="0px"
   y="0px"
   width="64px"
   height="64px"
   viewBox="0 0 64 64"
   enable-background="new 0 0 64 64"
   xml:space="preserve"
   inkscape:version="0.48.5 r10040"
   sodipodi:docname="womens.svg"><metadata
     id="metadata34"><rdf:RDF><cc:Work
         rdf:about=""><dc:format>image/svg+xml</dc:format><dc:type
           rdf:resource="http://purl.org/dc/dcmitype/StillImage" /></cc:Work></rdf:RDF></metadata><defs
     id="defs32" /><sodipodi:namedview
     pagecolor="#ffffff"
     bordercolor="#666666"
     borderopacity="1"
     objecttolerance="10"
     gridtolerance="10"
     guidetolerance="10"
     inkscape:pageopacity="0"
     inkscape:pageshadow="2"
     inkscape:window-width="640"
     inkscape:window-height="480"
     id="namedview30" /><g
     id="g3"><linearGradient
       id="SVGID_1_"
       gradientUnits="userSpaceOnUse"
       x1="31.9995"
       y1="2.9956"
       x2="31.9995"
       y2="60.9864"><stop
         offset="0"
         style="stop-color:#FF71B2"
         id="stop6" /><stop
         offset="1"
         style="stop-color:#FC4C94"
         id="stop8" /></linearGradient><path
       fill="url(#SVGID_1_)"
       stroke="#CC1142"
       stroke-width="2"
       stroke-miterlimit="10"
       d="M62.205,50.205c0,6.627-5.373,12-12,12   h-36.41c-6.627,0-12-5.373-12-12v-36.41c0-6.627,5.373-12,12-12h36.41c6.627,0,12,5.373,12,12V50.205z"
       id="path10" /><g
       id="g12"><path
         opacity="0.28"
         fill="#FFFFFF"
         d="M2.672,13.368c-0.032,0.354-0.054,0.71-0.054,1.071v12.594    c0.006,0.006,0.012,0.012,0.017,0.018L2.672,13.368z"
         id="path14" /><path
         opacity="0.28"
         fill="#FFFFFF"
         d="M60.106,23.569c1.188-5.802,1.222-9.417,1.222-10.193    C60.79,7.428,55.797,2.767,49.71,2.767H14.291c-6.076,0-11.063,4.642-11.617,10.572c0.02,0.349,0.497,4.034,1.293,10.307    C11.206,30.7,21.092,35.055,32,35.055C42.945,35.055,52.859,30.669,60.106,23.569z"
         id="path16" /><path
         opacity="0.28"
         fill="#FFFFFF"
         d="M61.328,13.379l0.039,13.667c0.005-0.005,0.01-0.01,0.015-0.015V14.439    C61.382,14.081,61.359,13.729,61.328,13.379z"
         id="path18" /></g><path
       fill="#FFFFFF"
       d="M2.674,27.586c0,0-0.006-10.92-0.028-13.859c-0.027-3.6,3.243-10.89,10.375-10.89   c6.639,0,16.803,0,16.803,0S17.118,3.651,13.02,4.471c-4.098,0.82-7.493,6.044-8.442,9.263C3.198,18.415,2.674,27.586,2.674,27.586   z"
       id="path20" /><path
       fill="#BC2F65"
       d="M61.314,37.832c0,0,0.006,10.233,0.027,12.989c0.026,3.373-3.538,10.57-11.121,10.57   c-6.428,0-16.27,0-16.27,0s13.063-1.127,17.032-1.896c3.967-0.769,7.254-5.663,8.174-8.681   C60.493,46.427,61.314,37.832,61.314,37.832z"
       id="path22" /><g
       id="g24"><circle
         fill="#FFFFFF"
         cx="32"
         cy="11.175"
         r="4.191"
         id="circle26" /><path
         fill="#FFFFFF"
         d="M45.663,33.222l0.004-0.004l-3.37-10.514c-0.137-0.739-1.309-6.422-5.021-6.422c-0.96,0-8.826,0-10.703,0    c-3.346,0-4.752,5.179-5.026,6.345L18.15,33.218l0.004,0.004c-0.089,0.256-0.119,0.523-0.063,0.799    c0.196,0.949,1.31,1.525,2.488,1.281c0.88-0.182,1.544-0.771,1.743-1.455l0.035,0.008l3.647-11.148l0.086-0.003h0.574    c0,0,0,0.5,0,1.352L22.051,41.47h4.615c0,6.783,0,12.943,0,13.495c0,1.266,1.179,2.051,2.052,2.051    c0.874,0,2.654-0.873,2.654-1.744c0-0.566,0-8.363,0-13.802h1.013c0,5.411,0,13.148,0,13.712c0,0.873,1.505,1.834,2.465,1.834    c0.961,0,2.251-0.697,2.251-1.658c0-0.427,0-6.864,0-13.888h4.849l-4.849-18.291c0-0.299,0-0.476,0-0.476h0.668l0.042,0.001    l3.649,11.15l0.035-0.008c0.198,0.684,0.863,1.273,1.742,1.455c1.18,0.244,2.292-0.332,2.488-1.281    C45.782,33.745,45.753,33.478,45.663,33.222z"
         id="path28" /></g></g></svg>