<?xml version="1.0" encoding="utf-8"?>
<!-- Generator: Adobe Illustrator 18.0.0, SVG Export Plug-In . SVG Version: 6.00 Build 0)  -->
<!DOCTYPE svg PUBLIC "-//W3C//DTD SVG 1.1//EN" "http://www.w3.org/Graphics/SVG/1.1/DTD/svg11.dtd">
<svg version="1.1" id="レイヤー_1" xmlns="http://www.w3.org/2000/svg" xmlns:xlink="http://www.w3.org/1999/xlink" x="0px"
	 y="0px" width="64px" height="64px" viewBox="0 0 64 64" style="enable-background:new 0 0 64 64;" xml:space="preserve">
<g>
	<linearGradient id="SVGID_1_" gradientUnits="userSpaceOnUse" x1="15.3681641" y1="30.4321289" x2="50.4003906" y2="30.4321289">
		<stop  offset="0.142202" style="stop-color:#FDFAC5"/>
		<stop  offset="0.5" style="stop-color:#F8EB00"/>
		<stop  offset="0.87156" style="stop-color:#F5B32C"/>
	</linearGradient>
	<polygon style="fill:url(#SVGID_1_);" points="30.4624023,33.8525391 15.3681641,33.8525391 28.8364258,2.875 50.4003906,2.875 
		35.0761719,27.4204102 50.0292969,27.4204102 19.6992188,57.9892578 	"/>
	<path style="fill:#FCF799;" d="M48.8226433,3.75L35.1699448,25.6187515l-1.6711044,2.676754h3.1555634h11.274231
		L22.4451694,53.9794312l8.2673168-18.5393982l1.0982113-2.4627266h-2.6964951H16.7027264L29.410183,3.75H48.8226433 M51.9782028,2
		H28.262804L14.0336151,34.7273064h15.0805874L16.9524269,62l35.1777763-35.4544945H36.6544037L51.9782028,2L51.9782028,2z"/>
	<path style="fill:#F5B32C;" d="M50.1750259,3l-14.368885,23.0159302l-0.9549217,1.5295715h1.8031807h13.0749016
		l-29.638155,29.8713074l9.9363632-22.2822418l0.6275387-1.4072647h-1.5408497H15.5588245L28.9184437,3H50.1750259 M51.978199,2
		H28.2627983L14.0336189,34.7273026h15.0805798L16.9524288,62l35.1777725-35.4544983H36.6543999L51.978199,2L51.978199,2z"/>
</g>
<g>
</g>
<g>
</g>
<g>
</g>
<g>
</g>
<g>
</g>
<g>
</g>
</svg>
