<?xml version="1.0" encoding="UTF-8" standalone="no"?>
<!-- Generator: Adobe Illustrator 18.0.0, SVG Export Plug-In . SVG Version: 6.00 Build 0)  -->

<svg
   xmlns:dc="http://purl.org/dc/elements/1.1/"
   xmlns:cc="http://creativecommons.org/ns#"
   xmlns:rdf="http://www.w3.org/1999/02/22-rdf-syntax-ns#"
   xmlns:svg="http://www.w3.org/2000/svg"
   xmlns="http://www.w3.org/2000/svg"
   xmlns:sodipodi="http://sodipodi.sourceforge.net/DTD/sodipodi-0.dtd"
   xmlns:inkscape="http://www.inkscape.org/namespaces/inkscape"
   version="1.1"
   id="レイヤー_1"
   x="0px"
   y="0px"
   width="64px"
   height="64px"
   viewBox="0 0 64 64"
   style="enable-background:new 0 0 64 64;"
   xml:space="preserve"
   inkscape:version="0.48.5 r10040"
   sodipodi:docname="zap.svg"><metadata
     id="metadata34"><rdf:RDF><cc:Work
         rdf:about=""><dc:format>image/svg+xml</dc:format><dc:type
           rdf:resource="http://purl.org/dc/dcmitype/StillImage" /></cc:Work></rdf:RDF></metadata><defs
     id="defs32" /><sodipodi:namedview
     pagecolor="#ffffff"
     bordercolor="#666666"
     borderopacity="1"
     objecttolerance="10"
     gridtolerance="10"
     guidetolerance="10"
     inkscape:pageopacity="0"
     inkscape:pageshadow="2"
     inkscape:window-width="640"
     inkscape:window-height="480"
     id="namedview30" /><g
     id="g3"><linearGradient
       id="SVGID_1_"
       gradientUnits="userSpaceOnUse"
       x1="15.3681641"
       y1="30.4321289"
       x2="50.4003906"
       y2="30.4321289"><stop
         offset="0.142202"
         style="stop-color:#FDFAC5"
         id="stop6" /><stop
         offset="0.5"
         style="stop-color:#F8EB00"
         id="stop8" /><stop
         offset="0.87156"
         style="stop-color:#F5B32C"
         id="stop10" /></linearGradient><polygon
       style="fill:url(#SVGID_1_);"
       points="30.4624023,33.8525391 15.3681641,33.8525391 28.8364258,2.875 50.4003906,2.875    35.0761719,27.4204102 50.0292969,27.4204102 19.6992188,57.9892578  "
       id="polygon12" /><path
       style="fill:#FCF799;"
       d="M48.8226433,3.75L35.1699448,25.6187515l-1.6711044,2.676754h3.1555634h11.274231   L22.4451694,53.9794312l8.2673168-18.5393982l1.0982113-2.4627266h-2.6964951H16.7027264L29.410183,3.75H48.8226433 M51.9782028,2   H28.262804L14.0336151,34.7273064h15.0805874L16.9524269,62l35.1777763-35.4544945H36.6544037L51.9782028,2L51.9782028,2z"
       id="path14" /><path
       style="fill:#F5B32C;"
       d="M50.1750259,3l-14.368885,23.0159302l-0.9549217,1.5295715h1.8031807h13.0749016   l-29.638155,29.8713074l9.9363632-22.2822418l0.6275387-1.4072647h-1.5408497H15.5588245L28.9184437,3H50.1750259 M51.978199,2   H28.2627983L14.0336189,34.7273026h15.0805798L16.9524288,62l35.1777725-35.4544983H36.6543999L51.978199,2L51.978199,2z"
       id="path16" /></g><g
     id="g18" /><g
     id="g20" /><g
     id="g22" /><g
     id="g24" /><g
     id="g26" /><g
     id="g28" /></svg>