<?xml version="1.0" encoding="UTF-8" standalone="no"?>
<!-- Created with Inkscape (http://www.inkscape.org/) -->

<svg
   xmlns:dc="http://purl.org/dc/elements/1.1/"
   xmlns:cc="http://creativecommons.org/ns#"
   xmlns:rdf="http://www.w3.org/1999/02/22-rdf-syntax-ns#"
   xmlns:svg="http://www.w3.org/2000/svg"
   xmlns="http://www.w3.org/2000/svg"
   version="1.1"
   width="64"
   height="64"
   viewBox="0 0 64 64"
   id="レイヤー_1"
   xml:space="preserve"><metadata
     id="metadata103"><rdf:RDF><cc:Work
         rdf:about=""><dc:format>image/svg+xml</dc:format><dc:type
           rdf:resource="http://purl.org/dc/dcmitype/StillImage" /><dc:title></dc:title></cc:Work></rdf:RDF></metadata><defs
     id="defs101" /><g
     id="_x30_1_2_"><linearGradient
       x1="26.273899"
       y1="15.9204"
       x2="29.345699"
       y2="27.709101"
       id="SVGID_1_"
       gradientUnits="userSpaceOnUse"><stop
         id="stop5"
         style="stop-color:#ffe3bf;stop-opacity:1"
         offset="0" /><stop
         id="stop7"
         style="stop-color:#ffb67f;stop-opacity:1"
         offset="1" /></linearGradient><path
       d="m 32,26.474 c 0,0 -6.134,2.652 -8.004,2.119 -1.871,-0.529 -1.343,-10.309 -1.343,-10.309 0,0 -1.416,-3.297 1.407,-3.551 2.822,-0.256 3.785,1.4 2.641,3.118 0,0 1.056,1.365 -1.11,1.448 0,0 0.775,3.357 0.605,4.93 L 34,22.125 32,26.474 z"
       id="path9"
       style="fill:url(#SVGID_1_);stroke:#050505;stroke-miterlimit:3" /><linearGradient
       x1="44.519501"
       y1="39.459"
       x2="44.852501"
       y2="45.375999"
       id="SVGID_2_"
       gradientUnits="userSpaceOnUse"><stop
         id="stop12"
         style="stop-color:#ffe3bf;stop-opacity:1"
         offset="0" /><stop
         id="stop14"
         style="stop-color:#ffb67f;stop-opacity:1"
         offset="1" /></linearGradient><path
       d="m 37.156,41.492 c 0,0 7.107,3.678 8.125,4.112 1.02,0.434 3.34,-1.218 6.32,-3.644 l 0.322,-3.806 c 0,0 -3.459,2.512 -6.691,3.153 l -6.766,-5.647 -1.31,5.832 z"
       id="path16"
       style="fill:url(#SVGID_2_);stroke:#050505;stroke-miterlimit:3" /><path
       d="m 48.465,39.808 2.256,0.126 0.135,2.833 c 0,0 1.795,1.734 2.412,2.907 0.691,1.313 1.666,2.337 2.113,-0.841 L 53.285,38.721 52.6,37.519 c 0,0 -2.764,-0.149 -4.135,2.289 z"
       id="path18"
       style="stroke:#050505;stroke-miterlimit:3" /><linearGradient
       x1="23.3936"
       y1="38.484402"
       x2="23.133301"
       y2="40.913399"
       id="SVGID_3_"
       gradientUnits="userSpaceOnUse"><stop
         id="stop21"
         style="stop-color:#ffe3bf;stop-opacity:1"
         offset="0" /><stop
         id="stop23"
         style="stop-color:#ffb67f;stop-opacity:1"
         offset="1" /></linearGradient><path
       d="m 28.939,35.661 c 0,0 -5.885,1.448 -6.871,1.951 -0.986,0.504 -5.915,4.169 -8.424,4.271 v 3.389 c 0,0 5.841,-1.636 10.256,-3.3 l 8.671,-1.565 -3.632,-4.746 z"
       id="path25"
       style="fill:url(#SVGID_3_);stroke:#050505;stroke-miterlimit:3" /><linearGradient
       x1="26.235399"
       y1="41.7383"
       x2="27.275999"
       y2="49.989498"
       id="SVGID_4_"
       gradientUnits="userSpaceOnUse"><stop
         id="stop28"
         style="stop-color:#ffe3bf;stop-opacity:1"
         offset="0" /><stop
         id="stop30"
         style="stop-color:#ffb67f;stop-opacity:1"
         offset="1" /></linearGradient><path
       d="m 22.25,40.604 c 0,0 3.333,5.75 9.25,8.583 0,0 -7.333,-0.999 -9.333,-5.416 l 0.083,-3.167 z"
       id="path32"
       style="fill:url(#SVGID_4_);display:none" /><linearGradient
       x1="24.667"
       y1="43.745098"
       x2="26.019501"
       y2="54.4688"
       id="SVGID_5_"
       gradientUnits="userSpaceOnUse"><stop
         id="stop35"
         style="stop-color:#ffe3bf;stop-opacity:1"
         offset="0" /><stop
         id="stop37"
         style="stop-color:#ffb67f;stop-opacity:1"
         offset="1" /></linearGradient><path
       d="m 18.833,42.354 -0.083,3.667 c 0,0 3.167,6.416 13.333,7.333 0,0 -10.416,-3.917 -13.25,-11 z"
       id="path39"
       style="fill:url(#SVGID_5_);display:none" /><path
       d="m 16.425,44.605 -2.78,0.327 v -3.049 c 0,0 -1.637,-2.399 -2.545,-3.611 -0.522,-0.697 -2.212,-2.039 -2.48,1.618 l 2.671,6.799 0.822,1.314 c -10e-4,10e-4 2.993,-0.512 4.312,-3.398 z"
       id="path41"
       style="stroke:#050505;stroke-miterlimit:3" /><linearGradient
       x1="11.5313"
       y1="42.541"
       x2="12.0572"
       y2="46.711201"
       id="SVGID_6_"
       gradientUnits="userSpaceOnUse"
       gradientTransform="matrix(0.9454,0.3258,-0.3258,0.9454,15.1035,-1.9608)"><stop
         id="stop44"
         style="stop-color:#ffb01f;stop-opacity:1"
         offset="0" /><stop
         id="stop46"
         style="stop-color:#ff3f1f;stop-opacity:1"
         offset="1" /></linearGradient><path
       d="m 9.964,40.719 c 0,0 -0.732,4.045 3.697,5.77 0,-10e-4 -2.217,-1.624 -3.697,-5.77 z"
       id="path48"
       style="fill:url(#SVGID_6_)" /><linearGradient
       x1="52.686501"
       y1="38.901402"
       x2="53.4231"
       y2="44.741798"
       id="SVGID_7_"
       gradientUnits="userSpaceOnUse"
       gradientTransform="matrix(0.9663,-0.2575,0.2575,0.9663,-8.9206,14.9094)"><stop
         id="stop51"
         style="stop-color:#ffb01f;stop-opacity:1"
         offset="0" /><stop
         id="stop53"
         style="stop-color:#ff3f1f;stop-opacity:1"
         offset="1" /></linearGradient><path
       d="m 54.094,44.234 c 0,0 1.511,-3.313 -3.353,-6.028 0,0 2.95,3.549 3.353,6.028 z"
       id="path55"
       style="fill:url(#SVGID_7_)" /><path
       d="m 31.267,36.896 6.333,7.709 7.584,-4.345 c 0,0 -5.77,-5.2 -6.17,-6.429 0,10e-4 -6.413,0.523 -7.747,3.065 z"
       id="path57"
       style="fill:#161616;stroke:#050505;stroke-miterlimit:10" /><path
       d="m 29.517,34.689 -6.828,2.393 c 0,0 5.679,6.756 6.503,8.182 0,0 12.735,-3.289 9.821,-11.432 l -9.496,0.857 z"
       id="path59"
       style="fill:#161616;stroke:#050505;stroke-miterlimit:10" /><linearGradient
       x1="33.701199"
       y1="17.9487"
       x2="39.466301"
       y2="18.9333"
       id="SVGID_8_"
       gradientUnits="userSpaceOnUse"><stop
         id="stop62"
         style="stop-color:#ffe3bf;stop-opacity:1"
         offset="0" /><stop
         id="stop64"
         style="stop-color:#ffb67f;stop-opacity:1"
         offset="1" /></linearGradient><polygon
       points="35.465,21.674 34,16.199 37.703,15.208 39.168,20.683 "
       id="polygon66"
       style="fill:url(#SVGID_8_);stroke:#050505;stroke-miterlimit:10" /><linearGradient
       x1="34.4375"
       y1="23.562"
       x2="36.188"
       y2="37.4412"
       id="SVGID_9_"
       gradientUnits="userSpaceOnUse"><stop
         id="stop69"
         style="stop-color:#ffb01f;stop-opacity:1"
         offset="0" /><stop
         id="stop71"
         style="stop-color:#ff3f1f;stop-opacity:1"
         offset="1" /></linearGradient><path
       d="m 27.949,35.649 c 0,0 1.665,-12.28 6.26,-14.127 4.594,-1.847 6.813,-1.698 8,0.827 1.189,2.525 -3.594,10.253 -3.594,10.253 l 0.822,2.528 c 0.001,0 -6.893,4.68 -11.488,0.519 z"
       id="path73"
       style="fill:url(#SVGID_9_);stroke:#050505;stroke-miterlimit:10" /><linearGradient
       x1="37.3232"
       y1="29.294901"
       x2="45.6366"
       y2="30.714701"
       id="SVGID_10_"
       gradientUnits="userSpaceOnUse"
       gradientTransform="matrix(0.9263,-0.3767,0.3767,0.9263,-6.1982,15.8329)"><stop
         id="stop76"
         style="stop-color:#ffe3bf;stop-opacity:1"
         offset="0" /><stop
         id="stop78"
         style="stop-color:#ffb67f;stop-opacity:1"
         offset="1" /></linearGradient><path
       d="m 39.146,20.667 c 2.909,0.27 8.276,1.586 9.892,2.667 1.618,1.08 -1.432,9.401 -1.432,9.401 0,0 0.335,3.571 -2.431,2.946 -2.765,-0.624 -3.171,-2.495 -1.555,-3.779 0,0 0.187,-2.527 1.861,-1.202 0,0 -0.355,-2.799 0.184,-4.823 l -5.512,-0.52 c 0.001,0.001 -4.914,-1.83 -1.007,-4.69 z"
       id="path80"
       style="fill:url(#SVGID_10_);stroke:#050505;stroke-miterlimit:3" /><g
       id="g82"><linearGradient
         x1="32.299801"
         y1="4.9394999"
         x2="39.5126"
         y2="17.824699"
         id="SVGID_11_"
         gradientUnits="userSpaceOnUse"><stop
           id="stop85"
           style="stop-color:#ffe3bf;stop-opacity:1"
           offset="0" /><stop
           id="stop87"
           style="stop-color:#ffb67f;stop-opacity:1"
           offset="1" /></linearGradient><path
         d="m 43.383,11.102 c 0,4.616 -3.445,6.31 -7.359,7.358 -4.459,1.194 -7.771,-1.554 -7.771,-6.169 0,-7.005 3.154,-10.548 7.771,-10.548 4.617,0 7.359,4.742 7.359,9.359 z"
         id="path89"
         style="fill:url(#SVGID_11_);stroke:#050505;stroke-miterlimit:10" /><polyline
         fill="none"
         stroke="#19120F"
         stroke-miterlimit="10"
         points="28.688,9.162 32.25,8.037 33.375,8.912   "
         id="polyline91"
         style="fill:none;stroke:#19120f;stroke-miterlimit:10" /><polygon
         points="38.625,8.724 38.563,9.224 31,9.537 31.313,8.662 "
         id="polygon93"
         style="fill:#1065fc" /><path
         d="m 29.875,5.349 c 0,0 4.313,-0.625 7.438,-0.188 C 39.139,8.002 38,9.537 38,9.537 l 0.938,0.375 c 0,0 2.688,-0.875 1.063,4.25 l 1.625,1.563 C 42.689,15.225 45.189,10.85 43.439,6.1 40.818,-1.009 30.688,1.162 29.875,5.349 z"
         id="path95"
         style="fill:#4f3f34;stroke:#19120f;stroke-miterlimit:10" /><path
         d="m 28,9.912 c 0,0 1,2.375 1.875,2.25 0.548,-0.078 3.25,-2.25 3.25,-2.25 0,0 -0.297,-0.719 -0.438,-0.875 C 32.125,8.412 30.25,8.224 28,8.974 v 0.938 z"
         id="path97"
         style="fill:#000091" /></g></g></svg>