<?xml version="1.0" encoding="UTF-8" standalone="no"?>
<!-- Created with Inkscape (http://www.inkscape.org/) -->

<svg
   xmlns:dc="http://purl.org/dc/elements/1.1/"
   xmlns:cc="http://creativecommons.org/ns#"
   xmlns:rdf="http://www.w3.org/1999/02/22-rdf-syntax-ns#"
   xmlns:svg="http://www.w3.org/2000/svg"
   xmlns="http://www.w3.org/2000/svg"
   version="1.1"
   width="64"
   height="64"
   viewBox="0 0 64 64"
   id="レイヤー_1"
   xml:space="preserve"><metadata
     id="metadata3430"><rdf:RDF><cc:Work
         rdf:about=""><dc:format>image/svg+xml</dc:format><dc:type
           rdf:resource="http://purl.org/dc/dcmitype/StillImage" /><dc:title></dc:title></cc:Work></rdf:RDF></metadata><defs
     id="defs3428" /><g
     id="_x30_4_1_"><linearGradient
       x1="30.835899"
       y1="23.191401"
       x2="33.906898"
       y2="34.9767"
       id="SVGID_1_"
       gradientUnits="userSpaceOnUse"
       gradientTransform="matrix(-0.7597,-0.6503,0.6503,-0.7597,47.2342,72.4861)"><stop
         id="stop3309"
         style="stop-color:#ffe3bf;stop-opacity:1"
         offset="0" /><stop
         id="stop3311"
         style="stop-color:#ffb67f;stop-opacity:1"
         offset="1" /></linearGradient><path
       d="m 41.399,23.077 c 0,0 6.385,1.974 7.46,3.595 1.077,1.619 -5.684,8.7 -5.684,8.7 0,0 -1.068,3.425 -3.378,1.782 -2.311,-1.642 -1.967,-3.523 0.021,-4.081 0,0 0.084,-1.724 1.783,-0.379 0,0 1.595,-3.054 2.746,-4.139 l -7.296,-3.476 4.348,-2.002 z"
       id="path3313"
       style="fill:url(#SVGID_1_);stroke:#050505;stroke-miterlimit:3" /><linearGradient
       x1="33.701199"
       y1="19.8501"
       x2="39.466301"
       y2="20.8347"
       id="SVGID_2_"
       gradientUnits="userSpaceOnUse"><stop
         id="stop3316"
         style="stop-color:#ffe3bf;stop-opacity:1"
         offset="0" /><stop
         id="stop3318"
         style="stop-color:#ffb67f;stop-opacity:1"
         offset="1" /></linearGradient><polygon
       points="35.465,23.576 34,18.101 37.703,17.11 39.168,22.584 "
       id="polygon3320"
       style="fill:url(#SVGID_2_);stroke:#050505;stroke-miterlimit:10" /><linearGradient
       x1="26.111799"
       y1="42.658199"
       x2="25.8137"
       y2="45.439999"
       id="SVGID_3_"
       gradientUnits="userSpaceOnUse"
       gradientTransform="matrix(0.9828,-0.1845,0.1845,0.9828,-7.7771,5.1906)"><stop
         id="stop3323"
         style="stop-color:#ffe3bf;stop-opacity:1"
         offset="0" /><stop
         id="stop3325"
         style="stop-color:#ffb67f;stop-opacity:1"
         offset="1" /></linearGradient><path
       d="m 28.022,38.215 c 0,0 -7.18,2.69 -7.966,3.471 -2.684,2.664 1.331,6.436 3.333,9.745 l 3.275,-0.871 c 0,0 -0.392,-2.954 -2.431,-5.212 l 8.233,-3.139 -4.444,-3.994 z"
       id="path3327"
       style="fill:url(#SVGID_3_);stroke:#050505;stroke-miterlimit:3" /><path
       d="m 25.954,48.121 0.383,2.526 -2.946,0.783 c 0,0 -1.898,2.198 -2.837,3.387 -0.54,0.684 -1.402,2.661 2.201,1.982 l 5.884,-4.328 1.06,-1.132 c -0.001,0.001 -0.618,-2.685 -3.745,-3.218 z"
       id="path3329"
       style="stroke:#050505;stroke-miterlimit:3" /><path
       d="m 28.41,37.152 -6.269,3.612 c 0,0 6.828,5.592 7.901,6.841 0,0 11.91,-5.583 7.543,-13.048 l -9.175,2.595 z"
       id="path3331"
       style="fill:#161616;stroke:#050505;stroke-miterlimit:10" /><g
       id="g3333"><linearGradient
         x1="43.472698"
         y1="46.5518"
         x2="43.892799"
         y2="54.016899"
         id="SVGID_4_"
         gradientUnits="userSpaceOnUse"
         gradientTransform="matrix(0.8742,0.4854,-0.4854,0.8742,25.8061,-15.8031)"><stop
           id="stop3336"
           style="stop-color:#ffe3bf;stop-opacity:1"
           offset="0" /><stop
           id="stop3338"
           style="stop-color:#ffb67f;stop-opacity:1"
           offset="1" /></linearGradient><path
         d="m 33.517,42.864 c 0,0 2.801,6.126 3.479,7.001 0.681,0.873 3.404,3.051 6.93,6.229 l 2.186,-1.188 c 0,0 -3.712,-5.785 -5.444,-8.281 l -3.173,-8.222 -3.978,4.461 z"
         id="path3340"
         style="fill:url(#SVGID_4_);stroke:#050505;stroke-miterlimit:3" /><path
         d="m 44.002,51.431 1.134,2.813 -2.292,1.669 c 0,0 -0.464,2.453 -1.104,3.612 -0.718,1.3 -1.036,2.676 1.863,1.304 l 3.956,-5.109 0.628,-1.233 c 0,-0.002 -1.396,-3.251 -4.185,-3.056 z"
         id="path3342"
         style="stroke:#050505;stroke-miterlimit:3" /><path
         d="m 29.537,33.493 2.856,12.309 8.74,-0.117 c 0,0 -2.52,-7.347 -2.273,-8.615 0,-10e-4 -5.862,-3.373 -9.323,-3.577 z"
         id="path3344"
         style="fill:#161616;stroke:#050505;stroke-miterlimit:10" /></g><linearGradient
       x1="34.438499"
       y1="25.461901"
       x2="36.188"
       y2="39.333599"
       id="SVGID_5_"
       gradientUnits="userSpaceOnUse"><stop
         id="stop3347"
         style="stop-color:#ffb01f;stop-opacity:1"
         offset="0" /><stop
         id="stop3349"
         style="stop-color:#ff3f1f;stop-opacity:1"
         offset="1" /></linearGradient><path
       d="m 27.949,37.542 c 0,0 1.665,-12.271 6.26,-14.118 4.594,-1.847 6.813,-1.698 8,0.827 1.189,2.525 -3.594,10.246 -3.594,10.246 l 0.822,2.526 c 0.001,-0.001 -6.893,4.679 -11.488,0.519 z"
       id="path3351"
       style="fill:url(#SVGID_5_);stroke:#050505;stroke-miterlimit:10" /><linearGradient
       x1="35.851601"
       y1="30.292"
       x2="44.015499"
       y2="31.6863"
       id="SVGID_6_"
       gradientUnits="userSpaceOnUse"
       gradientTransform="matrix(-0.0313,0.9995,-0.9995,-0.0313,63.1737,-12.2386)"><stop
         id="stop3354"
         style="stop-color:#ffe3bf;stop-opacity:1"
         offset="0" /><stop
         id="stop3356"
         style="stop-color:#ffb67f;stop-opacity:1"
         offset="1" /></linearGradient><path
       d="m 39.452,25.558 c -1.408,4.439 -4.806,6.922 -6.449,7.96 -1.642,1.042 -8.008,-5.12 -8.008,-5.12 0,0 -3.4,-1.142 -1.708,-3.417 1.691,-2.273 3.567,-1.888 4.084,0.11 0,0 2.23,1.195 0.342,2.189 0,0 2.701,0.81 4.333,2.123 l 1.846,-4.126 c 0,10e-4 4.53,-4.45 5.56,0.281 z"
       id="path3358"
       style="fill:url(#SVGID_6_);stroke:#050505;stroke-miterlimit:3" /><g
       id="g3360"
       style="display:none"><path
         d="M 28.253,7.951"
         id="path3362"
         style="fill:none;stroke:#c10d23;stroke-miterlimit:10;display:inline" /><linearGradient
         x1="32.7729"
         y1="6.6395998"
         x2="40.190399"
         y2="19.8904"
         id="SVGID_7_"
         gradientUnits="userSpaceOnUse"><stop
           id="stop3365"
           style="stop-color:#ffe3bf;stop-opacity:1"
           offset="0" /><stop
           id="stop3367"
           style="stop-color:#ffb67f;stop-opacity:1"
           offset="1" /></linearGradient><path
         d="m 44.383,12.003 c 0,4.616 -3.742,8.358 -8.359,8.358 -4.616,0 -7.771,-1.554 -7.771,-6.169 0,-7.005 3.154,-10.548 7.771,-10.548 4.617,10e-4 8.359,3.743 8.359,8.359 z"
         id="path3369"
         style="fill:url(#SVGID_7_);stroke:#050505;stroke-miterlimit:10;display:inline" /><path
         d="m 31.518,10.423 c -0.367,0 -0.682,0.375 -0.828,0.912 l 0.577,0.558 -0.659,0.219 c 0.032,0.821 0.425,1.472 0.91,1.472 0.506,0 0.915,-0.708 0.915,-1.581 0,-0.873 -0.41,-1.58 -0.915,-1.58 z"
         id="path3371"
         style="fill:#002a49;display:inline" /><path
         d="m 28.322,15.273 c 0,0 3.11,0.34 3.747,1.378 0.636,1.038 -0.95,2.85 -0.95,2.85 l 1.627,0.608 c 0,0 1.823,-4.19 0,-4.835 -1.823,-0.645 -4.69,-1.271 -4.424,-10e-4 z"
         id="path3373"
         style="fill:#302721;display:inline" /><polyline
         display="inline"
         fill="none"
         stroke="#302721"
         stroke-miterlimit="10"
         points="30.125,9.313 32.688,9.126 33.25,9.813       "
         id="polyline3375"
         style="fill:none;stroke:#302721;stroke-miterlimit:10;display:inline" /><path
         d="m 31.688,4.813 c 0,0 4.563,-0.938 5.688,0.813 1.826,2.841 -0.125,5.875 -0.125,5.875 l 1.688,0.313 c 0,0 2.688,-0.875 1.063,4.25 l 1.438,2.125 c 0,0 5.438,-3.438 2,-10.188 -3.438,-6.75 -11.315,-4 -11.752,-3.188 z"
         id="path3377"
         style="fill:#a08878;stroke:#514139;stroke-miterlimit:10;display:inline" /><path
         d="M 30.418,14.631"
         id="path3379"
         style="fill:none;stroke:#442116;stroke-width:0.3876;stroke-miterlimit:10;display:inline" /><path
         d="M 29.169,10.23"
         id="path3381"
         style="fill:none;stroke:#442116;stroke-width:0.3876;stroke-miterlimit:10;display:inline" /></g><linearGradient
       x1="32.299301"
       y1="6.8407998"
       x2="39.5121"
       y2="19.726"
       id="SVGID_8_"
       gradientUnits="userSpaceOnUse"><stop
         id="stop3384"
         style="stop-color:#ffe3bf;stop-opacity:1"
         offset="0" /><stop
         id="stop3386"
         style="stop-color:#ffb67f;stop-opacity:1"
         offset="1" /></linearGradient><path
       d="m 43.383,13.003 c 0,4.616 -3.445,6.31 -7.359,7.358 -4.459,1.194 -7.771,-1.554 -7.771,-6.169 0,-7.005 3.154,-10.548 7.771,-10.548 4.617,10e-4 7.359,4.743 7.359,9.359 z"
       id="path3388"
       style="fill:url(#SVGID_8_);stroke:#050505;stroke-miterlimit:10" /><polyline
       fill="none"
       stroke="#19120F"
       stroke-miterlimit="10"
       points="28.688,11.063 32.25,9.938 33.375,10.813  "
       id="polyline3390"
       style="fill:none;stroke:#19120f;stroke-miterlimit:10" /><polygon
       points="38.625,10.626 38.563,11.126 31,11.438 31.313,10.563 "
       id="polygon3392"
       style="fill:#1065fc" /><path
       d="m 29.875,7.251 c 0,0 4.313,-0.625 7.438,-0.188 C 39.139,9.904 38,11.438 38,11.438 l 0.938,0.375 c 0,0 2.688,-0.875 1.063,4.25 l 1.625,1.563 c 1.063,-0.5 3.563,-4.875 1.813,-9.625 C 40.818,0.893 30.688,3.063 29.875,7.251 z"
       id="path3394"
       style="fill:#4f3f34;stroke:#19120f;stroke-miterlimit:10" /><path
       d="m 28,11.813 c 0,0 1,2.375 1.875,2.25 0.548,-0.078 3.25,-2.25 3.25,-2.25 0,0 -0.297,-0.719 -0.438,-0.875 -0.563,-0.625 -2.438,-0.813 -4.688,-0.063 v 0.938 z"
       id="path3396"
       style="fill:#000091" /><linearGradient
       x1="11.1191"
       y1="46.321301"
       x2="11.6451"
       y2="50.491501"
       id="SVGID_9_"
       gradientUnits="userSpaceOnUse"
       gradientTransform="matrix(-0.0741,-0.9973,0.9973,-0.0741,-21.5265,67.2621)"><stop
         id="stop3399"
         style="stop-color:#ffb01f;stop-opacity:1"
         offset="0" /><stop
         id="stop3401"
         style="stop-color:#ff3f1f;stop-opacity:1"
         offset="1" /></linearGradient><path
       d="m 23.518,55.257 c 0,0 4.005,-0.924 3.84,-5.675 0,0 -0.616,2.678 -3.84,5.675 z"
       id="path3403"
       style="fill:url(#SVGID_9_)" /><linearGradient
       x1="48.450199"
       y1="51.500999"
       x2="49.186798"
       y2="57.3414"
       id="SVGID_10_"
       gradientUnits="userSpaceOnUse"
       gradientTransform="matrix(0.886,0.4637,-0.4637,0.886,27.0031,-13.7896)"><stop
         id="stop3406"
         style="stop-color:#ffb01f;stop-opacity:1"
         offset="0" /><stop
         id="stop3408"
         style="stop-color:#ff3f1f;stop-opacity:1"
         offset="1" /></linearGradient><path
       d="m 44.002,59.624 c 0,0 3.353,-1.42 1.605,-6.708 0,0 -0.224,4.608 -1.605,6.708 z"
       id="path3410"
       style="fill:url(#SVGID_10_)" /><linearGradient
       x1="22.1665"
       y1="46.787102"
       x2="31.5"
       y2="46.787102"
       id="SVGID_11_"
       gradientUnits="userSpaceOnUse"><stop
         id="stop3413"
         style="stop-color:#ffe3bf;stop-opacity:1"
         offset="0" /><stop
         id="stop3415"
         style="stop-color:#ffb67f;stop-opacity:1"
         offset="1" /></linearGradient><path
       d="m 22.25,42.496 c 0,0 3.333,5.75 9.25,8.583 0,0 -7.333,-0.999 -9.333,-5.416 l 0.083,-3.167 z"
       id="path3417"
       style="fill:url(#SVGID_11_);display:none" /><linearGradient
       x1="18.75"
       y1="49.746101"
       x2="32.0835"
       y2="49.746101"
       id="SVGID_12_"
       gradientUnits="userSpaceOnUse"><stop
         id="stop3420"
         style="stop-color:#ffe3bf;stop-opacity:1"
         offset="0" /><stop
         id="stop3422"
         style="stop-color:#ffb67f;stop-opacity:1"
         offset="1" /></linearGradient><path
       d="m 18.833,44.246 -0.083,3.667 c 0,0 3.167,6.416 13.333,7.333 0,0 -10.416,-3.917 -13.25,-11 z"
       id="path3424"
       style="fill:url(#SVGID_12_);display:none" /></g></svg>