<?xml version="1.0" encoding="UTF-8" standalone="no"?>
<!-- Created with Inkscape (http://www.inkscape.org/) -->

<svg
   xmlns:dc="http://purl.org/dc/elements/1.1/"
   xmlns:cc="http://creativecommons.org/ns#"
   xmlns:rdf="http://www.w3.org/1999/02/22-rdf-syntax-ns#"
   xmlns:svg="http://www.w3.org/2000/svg"
   xmlns="http://www.w3.org/2000/svg"
   version="1.1"
   width="64"
   height="64"
   viewBox="0 0 64 64"
   id="レイヤー_1"
   xml:space="preserve"><metadata
     id="metadata3556"><rdf:RDF><cc:Work
         rdf:about=""><dc:format>image/svg+xml</dc:format><dc:type
           rdf:resource="http://purl.org/dc/dcmitype/StillImage" /><dc:title></dc:title></cc:Work></rdf:RDF></metadata><defs
     id="defs3554" /><g
     id="_x30_5_1_"><linearGradient
       x1="31.403299"
       y1="25.869101"
       x2="34.475601"
       y2="37.6595"
       id="SVGID_1_"
       gradientUnits="userSpaceOnUse"
       gradientTransform="matrix(-0.8987,-0.4386,0.4386,-0.8987,58.4045,69.2173)"><stop
         id="stop3435"
         style="stop-color:#ffe3bf;stop-opacity:1"
         offset="0" /><stop
         id="stop3437"
         style="stop-color:#ffb67f;stop-opacity:1"
         offset="1" /></linearGradient><path
       d="m 41.011,20.197 c 0,0 6.676,0.307 8.124,1.606 1.448,1.296 -3.316,9.854 -3.316,9.854 0,0 -0.174,3.584 -2.822,2.574 -2.648,-1.005 -2.789,-2.919 -1.004,-3.962 0,0 -0.352,-1.69 1.631,-0.814 0,0 0.776,-3.356 1.618,-4.696 l -7.935,-1.532 3.704,-3.03 z"
       id="path3439"
       style="fill:url(#SVGID_1_);stroke:#050505;stroke-miterlimit:3" /><linearGradient
       x1="33.701199"
       y1="17.478001"
       x2="39.466301"
       y2="18.462601"
       id="SVGID_2_"
       gradientUnits="userSpaceOnUse"><stop
         id="stop3442"
         style="stop-color:#ffe3bf;stop-opacity:1"
         offset="0" /><stop
         id="stop3444"
         style="stop-color:#ffb67f;stop-opacity:1"
         offset="1" /></linearGradient><polygon
       points="35.465,21.203 34,15.729 37.703,14.737 39.168,20.212 "
       id="polygon3446"
       style="fill:url(#SVGID_2_);stroke:#050505;stroke-miterlimit:10" /><linearGradient
       x1="23.982401"
       y1="39.561501"
       x2="23.722099"
       y2="41.990799"
       id="SVGID_3_"
       gradientUnits="userSpaceOnUse"
       gradientTransform="matrix(0.9828,-0.1845,0.1845,0.9828,-7.7771,5.1906)"><stop
         id="stop3449"
         style="stop-color:#ffe3bf;stop-opacity:1"
         offset="0" /><stop
         id="stop3451"
         style="stop-color:#ffb67f;stop-opacity:1"
         offset="1" /></linearGradient><path
       d="m 28.022,35.849 c 0,0 -5.517,2.509 -6.394,3.186 -0.876,0.677 -5.044,5.188 -7.491,5.752 l 0.625,3.331 c 0,0 5.438,-2.686 9.471,-5.136 l 8.233,-3.139 -4.444,-3.994 z"
       id="path3453"
       style="fill:url(#SVGID_3_);stroke:#050505;stroke-miterlimit:3" /><path
       d="m 17.373,46.948 -2.672,0.834 -0.563,-2.996 c 0,0 -2.052,-2.056 -3.168,-3.08 -0.642,-0.589 -2.55,-1.595 -2.139,2.049 l 3.88,6.188 1.051,1.141 c 0,0 2.848,-1.057 3.611,-4.136 z"
       id="path3455"
       style="stroke:#050505;stroke-miterlimit:3" /><path
       d="m 28.41,34.786 -6.269,3.612 c 0,0 6.828,5.592 7.901,6.841 0,0 11.91,-5.583 7.543,-13.047 l -9.175,2.594 z"
       id="path3457"
       style="fill:#161616;stroke:#050505;stroke-miterlimit:10" /><g
       id="g3459"><linearGradient
         x1="43.013699"
         y1="40.058601"
         x2="43.346699"
         y2="45.976101"
         id="SVGID_4_"
         gradientUnits="userSpaceOnUse"
         gradientTransform="matrix(0.9914,0.1307,-0.1307,0.9914,5.8376,-5.5459)"><stop
           id="stop3462"
           style="stop-color:#ffe3bf;stop-opacity:1"
           offset="0" /><stop
           id="stop3464"
           style="stop-color:#ffb67f;stop-opacity:1"
           offset="1" /></linearGradient><path
         d="m 35.68,40.843 c 0,0 6.566,4.575 7.519,5.14 0.954,0.563 3.47,-0.771 6.742,-2.786 l 0.816,-3.731 c 0,0 -3.757,2.038 -7.046,2.252 l -5.969,-6.483 -2.062,5.608 z"
         id="path3466"
         style="fill:url(#SVGID_4_);stroke:#050505;stroke-miterlimit:3" /><path
         d="m 47.112,40.651 2.22,0.42 -0.236,2.826 c 0,0 1.553,1.954 2.011,3.197 0.514,1.393 1.347,2.534 2.205,-0.558 l -1.278,-6.334 -0.522,-1.281 c -10e-4,10e-4 -2.722,-0.507 -4.4,1.73 z"
         id="path3468"
         style="stroke:#050505;stroke-miterlimit:3" /><path
         d="m 28.537,33.585 7.176,10.402 8.087,-3.316 c 0,0 -5.04,-5.909 -5.276,-7.177 -10e-4,0 -6.693,-0.988 -9.987,0.091 z"
         id="path3470"
         style="fill:#161616;stroke:#050505;stroke-miterlimit:10" /></g><linearGradient
       x1="34.438499"
       y1="23.090799"
       x2="36.188702"
       y2="36.967499"
       id="SVGID_5_"
       gradientUnits="userSpaceOnUse"><stop
         id="stop3473"
         style="stop-color:#ffb01f;stop-opacity:1"
         offset="0" /><stop
         id="stop3475"
         style="stop-color:#ff3f1f;stop-opacity:1"
         offset="1" /></linearGradient><path
       d="m 27.949,35.176 c 0,0 1.665,-12.277 6.26,-14.125 4.594,-1.847 6.813,-1.698 8,0.827 1.189,2.525 -3.594,10.253 -3.594,10.253 l 0.822,2.525 c 0.001,0 -6.893,4.68 -11.488,0.52 z"
       id="path3477"
       style="fill:url(#SVGID_5_);stroke:#050505;stroke-miterlimit:10" /><linearGradient
       x1="33.903301"
       y1="31.4536"
       x2="42.068001"
       y2="32.848"
       id="SVGID_6_"
       gradientUnits="userSpaceOnUse"
       gradientTransform="matrix(-0.4777,0.8785,-0.8785,-0.4777,77.2058,3.235)"><stop
         id="stop3480"
         style="stop-color:#ffe3bf;stop-opacity:1"
         offset="0" /><stop
         id="stop3482"
         style="stop-color:#ffb67f;stop-opacity:1"
         offset="1" /></linearGradient><path
       d="m 38.923,24.047 c -3.256,3.331 -7.407,4.019 -9.342,4.208 -1.935,0.191 -4.848,-8.176 -4.848,-8.176 0,0 -2.523,-2.55 0.013,-3.819 2.533,-1.27 4.035,-0.081 3.598,1.937 0,0 1.454,2.071 -0.68,2.108 0,0 2.047,1.939 2.914,3.845 l 3.505,-2.854 c 0,-10e-4 6.049,-1.938 4.84,2.751 z"
       id="path3484"
       style="fill:url(#SVGID_6_);stroke:#050505;stroke-miterlimit:3" /><g
       id="g3486"
       style="display:none"><path
         d="M 28.253,5.578"
         id="path3488"
         style="fill:none;stroke:#c10d23;stroke-miterlimit:10;display:inline" /><linearGradient
         x1="32.7729"
         y1="4.2670999"
         x2="40.190399"
         y2="17.5179"
         id="SVGID_7_"
         gradientUnits="userSpaceOnUse"><stop
           id="stop3491"
           style="stop-color:#ffe3bf;stop-opacity:1"
           offset="0" /><stop
           id="stop3493"
           style="stop-color:#ffb67f;stop-opacity:1"
           offset="1" /></linearGradient><path
         d="m 44.383,9.631 c 0,4.616 -3.742,8.358 -8.359,8.358 -4.616,0 -7.771,-1.554 -7.771,-6.169 0,-7.005 3.154,-10.548 7.771,-10.548 4.617,0 8.359,3.743 8.359,8.359 z"
         id="path3495"
         style="fill:url(#SVGID_7_);stroke:#050505;stroke-miterlimit:10;display:inline" /><path
         d="m 31.518,8.05 c -0.367,0 -0.682,0.375 -0.828,0.912 l 0.577,0.558 -0.659,0.219 c 0.032,0.821 0.425,1.472 0.91,1.472 0.506,0 0.915,-0.708 0.915,-1.581 0,-0.873 -0.41,-1.58 -0.915,-1.58 z"
         id="path3497"
         style="fill:#002a49;display:inline" /><path
         d="m 28.322,12.9 c 0,0 3.11,0.34 3.747,1.378 0.636,1.038 -0.95,2.85 -0.95,2.85 l 1.627,0.608 c 0,0 1.823,-4.19 0,-4.835 -1.823,-0.645 -4.69,-1.271 -4.424,-10e-4 z"
         id="path3499"
         style="fill:#302721;display:inline" /><polyline
         display="inline"
         fill="none"
         stroke="#302721"
         stroke-miterlimit="10"
         points="30.125,6.941 32.688,6.753 33.25,7.441       "
         id="polyline3501"
         style="fill:none;stroke:#302721;stroke-miterlimit:10;display:inline" /><path
         d="m 31.688,2.441 c 0,0 4.563,-0.938 5.688,0.813 1.826,2.841 -0.125,5.875 -0.125,5.875 l 1.688,0.313 c 0,0 2.688,-0.875 1.063,4.25 l 1.438,2.125 c 0,0 5.438,-3.438 2,-10.188 C 40.002,-1.121 32.125,1.628 31.688,2.441 z"
         id="path3503"
         style="fill:#a08878;stroke:#514139;stroke-miterlimit:10;display:inline" /><path
         d="M 30.418,12.258"
         id="path3505"
         style="fill:none;stroke:#442116;stroke-width:0.3876;stroke-miterlimit:10;display:inline" /><path
         d="M 29.169,7.858"
         id="path3507"
         style="fill:none;stroke:#442116;stroke-width:0.3876;stroke-miterlimit:10;display:inline" /></g><linearGradient
       x1="32.299301"
       y1="4.4682999"
       x2="39.5121"
       y2="17.3535"
       id="SVGID_8_"
       gradientUnits="userSpaceOnUse"><stop
         id="stop3510"
         style="stop-color:#ffe3bf;stop-opacity:1"
         offset="0" /><stop
         id="stop3512"
         style="stop-color:#ffb67f;stop-opacity:1"
         offset="1" /></linearGradient><path
       d="m 43.383,10.631 c 0,4.616 -3.445,6.31 -7.359,7.358 -4.459,1.194 -7.771,-1.554 -7.771,-6.169 0,-7.005 3.154,-10.548 7.771,-10.548 4.617,0 7.359,4.743 7.359,9.359 z"
       id="path3514"
       style="fill:url(#SVGID_8_);stroke:#050505;stroke-miterlimit:10" /><polyline
       fill="none"
       stroke="#19120F"
       stroke-miterlimit="10"
       points="28.688,8.691 32.25,7.566 33.375,8.441  "
       id="polyline3516"
       style="fill:none;stroke:#19120f;stroke-miterlimit:10" /><polygon
       points="38.625,8.253 38.563,8.753 31,9.066 31.313,8.191 "
       id="polygon3518"
       style="fill:#1065fc" /><path
       d="m 29.875,4.878 c 0,0 4.313,-0.625 7.438,-0.188 C 39.139,7.532 38,9.066 38,9.066 l 0.938,0.375 c 0,0 2.688,-0.875 1.063,4.25 l 1.625,1.563 c 1.063,-0.5 3.563,-4.875 1.813,-9.625 C 40.818,-1.479 30.688,0.691 29.875,4.878 z"
       id="path3520"
       style="fill:#4f3f34;stroke:#19120f;stroke-miterlimit:10" /><path
       d="m 28,9.441 c 0,0 1,2.375 1.875,2.25 0.548,-0.078 3.25,-2.25 3.25,-2.25 0,0 -0.297,-0.719 -0.438,-0.875 C 32.125,7.941 30.25,7.753 28,8.503 v 0.938 z"
       id="path3522"
       style="fill:#000091" /><linearGradient
       x1="12.7964"
       y1="45.1436"
       x2="13.3224"
       y2="49.313702"
       id="SVGID_9_"
       gradientUnits="userSpaceOnUse"><stop
         id="stop3525"
         style="stop-color:#ffb01f;stop-opacity:1"
         offset="0" /><stop
         id="stop3527"
         style="stop-color:#ff3f1f;stop-opacity:1"
         offset="1" /></linearGradient><path
       d="m 10.313,44.63 c 0,0 0.625,4.063 5.375,4.25 0,0 -2.625,-0.813 -5.375,-4.25 z"
       id="path3529"
       style="fill:url(#SVGID_9_)" /><linearGradient
       x1="51.474602"
       y1="40.095699"
       x2="52.211102"
       y2="45.935299"
       id="SVGID_10_"
       gradientUnits="userSpaceOnUse"><stop
         id="stop3532"
         style="stop-color:#ffb01f;stop-opacity:1"
         offset="0" /><stop
         id="stop3534"
         style="stop-color:#ff3f1f;stop-opacity:1"
         offset="1" /></linearGradient><path
       d="m 52.125,45.755 c 0,0 2.313,-2.813 -1.688,-6.688 0.001,0 1.938,4.188 1.688,6.688 z"
       id="path3536"
       style="fill:url(#SVGID_10_)" /><linearGradient
       x1="22.1665"
       y1="44.421902"
       x2="31.5"
       y2="44.421902"
       id="SVGID_11_"
       gradientUnits="userSpaceOnUse"><stop
         id="stop3539"
         style="stop-color:#ffe3bf;stop-opacity:1"
         offset="0" /><stop
         id="stop3541"
         style="stop-color:#ffb67f;stop-opacity:1"
         offset="1" /></linearGradient><path
       d="m 22.25,40.13 c 0,0 3.333,5.75 9.25,8.583 0,0 -7.333,-0.999 -9.333,-5.416 L 22.25,40.13 z"
       id="path3543"
       style="fill:url(#SVGID_11_);display:none" /><linearGradient
       x1="18.75"
       y1="47.379902"
       x2="32.0835"
       y2="47.379902"
       id="SVGID_12_"
       gradientUnits="userSpaceOnUse"><stop
         id="stop3546"
         style="stop-color:#ffe3bf;stop-opacity:1"
         offset="0" /><stop
         id="stop3548"
         style="stop-color:#ffb67f;stop-opacity:1"
         offset="1" /></linearGradient><path
       d="m 18.833,41.88 -0.083,3.667 c 0,0 3.167,6.416 13.333,7.333 0,0 -10.416,-3.917 -13.25,-11 z"
       id="path3550"
       style="fill:url(#SVGID_12_);display:none" /></g></svg>