<?xml version="1.0" encoding="UTF-8" standalone="no"?>
<!-- Created with Inkscape (http://www.inkscape.org/) -->

<svg
   xmlns:dc="http://purl.org/dc/elements/1.1/"
   xmlns:cc="http://creativecommons.org/ns#"
   xmlns:rdf="http://www.w3.org/1999/02/22-rdf-syntax-ns#"
   xmlns:svg="http://www.w3.org/2000/svg"
   xmlns="http://www.w3.org/2000/svg"
   version="1.1"
   width="64"
   height="64"
   viewBox="0 0 64 64"
   id="レイヤー_1"
   xml:space="preserve"><metadata
     id="metadata3784"><rdf:RDF><cc:Work
         rdf:about=""><dc:format>image/svg+xml</dc:format><dc:type
           rdf:resource="http://purl.org/dc/dcmitype/StillImage" /><dc:title></dc:title></cc:Work></rdf:RDF></metadata><defs
     id="defs3782" /><g
     id="_x30_7_1_"><linearGradient
       x1="25.9282"
       y1="20.9585"
       x2="29"
       y2="32.7472"
       id="SVGID_1_"
       gradientUnits="userSpaceOnUse"
       gradientTransform="matrix(0.2205,-0.9754,0.9754,0.2205,-0.0868,54.5982)"><stop
         id="stop3675"
         style="stop-color:#ffe3bf;stop-opacity:1"
         offset="0" /><stop
         id="stop3677"
         style="stop-color:#ffb67f;stop-opacity:1"
         offset="1" /></linearGradient><path
       d="m 37.631,30.671 c 0,0 1.234,6.568 0.302,8.274 -0.929,1.709 -10.351,-0.964 -10.351,-0.964 0,0 -3.528,0.654 -3.153,-2.155 0.373,-2.81 2.2,-3.383 3.624,-1.888 0,0 1.564,-0.729 1.167,1.402 0,0 3.446,-0.016 4.942,0.496 l -0.332,-8.075 3.801,2.91 z"
       id="path3679"
       style="fill:url(#SVGID_1_);stroke:#050505;stroke-miterlimit:3" /><linearGradient
       x1="21.1479"
       y1="58.434601"
       x2="20.8515"
       y2="61.200699"
       id="SVGID_2_"
       gradientUnits="userSpaceOnUse"
       gradientTransform="matrix(0.3127,-0.9499,0.9499,0.3127,-29.9077,51.19)"><stop
         id="stop3682"
         style="stop-color:#ffe3bf;stop-opacity:1"
         offset="0" /><stop
         id="stop3684"
         style="stop-color:#ffb67f;stop-opacity:1"
         offset="1" /></linearGradient><path
       d="m 29.886,45.127 c 0,0 -0.464,6.043 -0.295,7.137 0.17,1.095 1.785,2.736 3.826,5.367 l 4.459,0.744 c 0,0 -1.5,-2.75 -3.57,-6.488 l 1.225,-8.726 -5.645,1.966 z"
       id="path3686"
       style="fill:url(#SVGID_2_);stroke:#050505;stroke-linejoin:bevel;stroke-miterlimit:3" /><path
       d="m 36.871,55.842 -0.559,2.743 -2.896,-0.954 c 0,0 -2.791,0.805 -4.226,1.288 -0.826,0.278 -2.628,1.464 0.761,2.862 L 37.244,61.37 38.75,61 c 0,0 0.449,-3.004 -1.879,-5.158 z"
       id="path3688"
       style="stroke:#050505;stroke-miterlimit:3" /><path
       d="m 28.25,40.75 -1.977,10.099 c 0,0 10.036,-0.775 11.967,-0.615 0,0 2.847,-13.056 -7.287,-15.527 L 28.25,40.75 z"
       id="path3690"
       style="fill:#161616;stroke:#050505;stroke-width:1.10909998;stroke-miterlimit:10" /><linearGradient
       x1="33.701199"
       y1="22.8496"
       x2="39.466301"
       y2="23.8342"
       id="SVGID_3_"
       gradientUnits="userSpaceOnUse"><stop
         id="stop3693"
         style="stop-color:#ffe3bf;stop-opacity:1"
         offset="0" /><stop
         id="stop3695"
         style="stop-color:#ffb67f;stop-opacity:1"
         offset="1" /></linearGradient><polygon
       points="35.465,26.575 34,21.1 37.703,20.109 39.168,25.583 "
       id="polygon3697"
       style="fill:url(#SVGID_3_);stroke:#050505;stroke-miterlimit:10" /><g
       id="g3699"><g
         id="g3701"><linearGradient
           x1="39.100601"
           y1="46.505901"
           x2="39.536201"
           y2="54.245899"
           id="SVGID_4_"
           gradientUnits="userSpaceOnUse"
           gradientTransform="matrix(0.6383,0.7698,-0.7698,0.6383,43.8795,-12.3159)"><stop
             id="stop3704"
             style="stop-color:#ffe3bf;stop-opacity:1"
             offset="0" /><stop
             id="stop3706"
             style="stop-color:#ffb67f;stop-opacity:1"
             offset="1" /></linearGradient><path
           d="m 28,44.5 c 0,0 -1.972,7.411 -1.25,8.25 0.724,0.839 3.921,1.945 7.667,1.083 L 35.25,51.5 c 0,0 -0.816,-0.316 -4,-1.167 L 35.743,42.439 28,44.5 z"
           id="path3708"
           style="fill:url(#SVGID_4_);stroke:#050505;stroke-miterlimit:3" /><path
           d="m 33.664,50.827 1.969,1.107 -1.129,2.603 c 0,0 0.846,2.349 0.883,3.673 0.041,1.483 0.465,2.833 2.268,0.178 l 0.814,-6.41 -0.084,-1.381 c 0,0 -2.416,-1.352 -4.721,0.23 z"
           id="path3710"
           style="stroke:#050505;stroke-miterlimit:3" /><path
           d="m 30.196,37.685 -3.863,9.065 10.156,3.796 c 0,0 0.32,-7.761 1.011,-8.854 0,0 -4.495,-4.603 -7.304,-4.007 z"
           id="path3712"
           style="fill:#161616;stroke:#050505;stroke-miterlimit:10" /></g><linearGradient
         x1="36.579102"
         y1="52.394501"
         x2="37.315601"
         y2="58.2341"
         id="SVGID_5_"
         gradientUnits="userSpaceOnUse"
         gradientTransform="matrix(0.9967,0.081,-0.081,0.9967,4.4477,-3.035)"><stop
           id="stop3715"
           style="stop-color:#ffb01f;stop-opacity:1"
           offset="0" /><stop
           id="stop3717"
           style="stop-color:#ff3f1f;stop-opacity:1"
           offset="1" /></linearGradient><path
         d="m 36.853,57.844 c 0,0 2.532,-2.615 -1.141,-6.802 0,0 1.592,4.33 1.141,6.802 z"
         id="path3719"
         style="fill:url(#SVGID_5_)" /></g><linearGradient
       x1="33.950199"
       y1="28.4932"
       x2="35.7043"
       y2="42.4007"
       id="SVGID_6_"
       gradientUnits="userSpaceOnUse"><stop
         id="stop3722"
         style="stop-color:#ffb01f;stop-opacity:1"
         offset="0" /><stop
         id="stop3724"
         style="stop-color:#ff3f1f;stop-opacity:1"
         offset="1" /></linearGradient><path
       d="m 27.949,40.546 c 0,0 1.665,-12.276 6.26,-14.123 4.594,-1.847 5.813,-1.698 7,0.827 1.189,2.525 -2.594,10.25 -2.594,10.25 l 0.822,2.526 c 0.001,0 -6.893,4.68 -11.488,0.52 z"
       id="path3726"
       style="fill:url(#SVGID_6_);stroke:#050505;stroke-miterlimit:10" /><linearGradient
       x1="36.830101"
       y1="33.798801"
       x2="45.469601"
       y2="35.2743"
       id="SVGID_7_"
       gradientUnits="userSpaceOnUse"
       gradientTransform="matrix(0.6312,0.7756,-0.7756,0.6312,34.7799,-20.1871)"><stop
         id="stop3729"
         style="stop-color:#ffe3bf;stop-opacity:1"
         offset="0" /><stop
         id="stop3731"
         style="stop-color:#ffb67f;stop-opacity:1"
         offset="1" /></linearGradient><path
       d="m 39.75,27 c 0.592,2.861 0.854,8.871 0.294,10.732 -0.559,1.862 -9.405,1.378 -9.405,1.378 0,0 -3.317,1.365 -3.528,-1.463 -0.212,-2.825 1.458,-3.763 3.158,-2.592 0,0 2.468,-0.559 1.692,1.43 0,0 2.571,-1.157 4.664,-1.234 l -1.958,-5.584 c 0,0 1.205,-5.566 5.083,-2.667 z"
       id="path3733"
       style="fill:url(#SVGID_7_);stroke:#050505;stroke-miterlimit:3" /><g
       id="g3735"
       style="display:none"><path
         d="M 28.253,10.95"
         id="path3737"
         style="fill:none;stroke:#c10d23;stroke-miterlimit:10;display:inline" /><linearGradient
         x1="32.7729"
         y1="9.6386995"
         x2="40.189899"
         y2="22.8887"
         id="SVGID_8_"
         gradientUnits="userSpaceOnUse"><stop
           id="stop3740"
           style="stop-color:#ffe3bf;stop-opacity:1"
           offset="0" /><stop
           id="stop3742"
           style="stop-color:#ffb67f;stop-opacity:1"
           offset="1" /></linearGradient><path
         d="m 44.383,15.002 c 0,4.616 -3.742,8.358 -8.359,8.358 -4.616,0 -7.771,-1.554 -7.771,-6.169 0,-7.005 3.154,-10.548 7.771,-10.548 4.617,0.001 8.359,3.743 8.359,8.359 z"
         id="path3744"
         style="fill:url(#SVGID_8_);stroke:#050505;stroke-miterlimit:10;display:inline" /><path
         d="m 31.518,13.422 c -0.367,0 -0.682,0.375 -0.828,0.912 l 0.577,0.558 -0.659,0.219 c 0.032,0.821 0.425,1.472 0.91,1.472 0.506,0 0.915,-0.708 0.915,-1.581 0,-0.873 -0.41,-1.58 -0.915,-1.58 z"
         id="path3746"
         style="fill:#002a49;display:inline" /><path
         d="m 28.322,18.272 c 0,0 3.11,0.34 3.747,1.378 0.636,1.038 -0.95,2.85 -0.95,2.85 l 1.627,0.608 c 0,0 1.823,-4.19 0,-4.835 -1.823,-0.645 -4.69,-1.271 -4.424,-0.001 z"
         id="path3748"
         style="fill:#302721;display:inline" /><polyline
         display="inline"
         fill="none"
         stroke="#302721"
         stroke-miterlimit="10"
         points="30.125,12.313 32.688,12.125     33.25,12.813   "
         id="polyline3750"
         style="fill:none;stroke:#302721;stroke-miterlimit:10;display:inline" /><path
         d="m 31.688,7.813 c 0,0 4.563,-0.938 5.688,0.813 1.826,2.841 -0.125,5.875 -0.125,5.875 l 1.688,0.313 c 0,0 2.688,-0.875 1.063,4.25 l 1.438,2.125 c 0,0 5.438,-3.438 2,-10.188 C 40.002,4.251 32.125,7 31.688,7.813 z"
         id="path3752"
         style="fill:#a08878;stroke:#514139;stroke-miterlimit:10;display:inline" /><path
         d="m 29.169,13.229 c 0,0 -0.442,4.476 1.249,4.4 1.691,-0.075 1.329,-5.973 -1.249,-4.4 z"
         id="path3754"
         style="fill:none;stroke:#442116;stroke-width:0.3876;stroke-miterlimit:10;display:inline" /><path
         d="M 31.267,14.892 38.5,14.625 c 0,0 0.688,0.063 0.75,1.125"
         id="path3756"
         style="fill:none;stroke:#442116;stroke-width:0.3876;stroke-miterlimit:10;display:inline" /></g><linearGradient
       x1="32.299801"
       y1="9.8402996"
       x2="39.5126"
       y2="22.725599"
       id="SVGID_9_"
       gradientUnits="userSpaceOnUse"><stop
         id="stop3759"
         style="stop-color:#ffe3bf;stop-opacity:1"
         offset="0" /><stop
         id="stop3761"
         style="stop-color:#ffb67f;stop-opacity:1"
         offset="1" /></linearGradient><path
       d="m 43.383,16.002 c 0,4.616 -3.445,6.31 -7.359,7.358 -4.459,1.194 -7.771,-1.554 -7.771,-6.169 0,-7.005 3.154,-10.548 7.771,-10.548 4.617,0.001 7.359,4.743 7.359,9.359 z"
       id="path3763"
       style="fill:url(#SVGID_9_);stroke:#050505;stroke-miterlimit:10" /><polyline
       fill="none"
       stroke="#19120F"
       stroke-miterlimit="10"
       points="28.688,14.063 32.25,12.938 33.375,13.813  "
       id="polyline3765"
       style="fill:none;stroke:#19120f;stroke-miterlimit:10" /><polygon
       points="38.625,13.625 38.563,14.125 31,14.438 31.313,13.563 "
       id="polygon3767"
       style="fill:#1065fc" /><path
       d="m 29.875,10.25 c 0,0 4.313,-0.625 7.438,-0.188 1.826,2.841 0.687,4.376 0.687,4.376 l 0.938,0.375 c 0,0 2.688,-0.875 1.063,4.25 l 1.625,1.563 c 1.063,-0.5 3.563,-4.875 1.813,-9.625 C 40.818,3.892 30.688,6.063 29.875,10.25 z"
       id="path3769"
       style="fill:#4f3f34;stroke:#19120f;stroke-miterlimit:10" /><path
       d="m 28,14.813 c 0,0 1,2.375 1.875,2.25 0.548,-0.078 3.25,-2.25 3.25,-2.25 0,0 -0.297,-0.719 -0.438,-0.875 -0.563,-0.625 -2.438,-0.813 -4.688,-0.063 v 0.938 z"
       id="path3771"
       style="fill:#000091" /><linearGradient
       x1="35.2285"
       y1="57.851601"
       x2="35.754501"
       y2="62.021702"
       id="SVGID_10_"
       gradientUnits="userSpaceOnUse"
       gradientTransform="matrix(0.6207,-0.784,0.784,0.6207,-34.0485,50.6194)"><stop
         id="stop3774"
         style="stop-color:#ffb01f;stop-opacity:1"
         offset="0" /><stop
         id="stop3776"
         style="stop-color:#ff3f1f;stop-opacity:1"
         offset="1" /></linearGradient><path
       d="m 31.228,60.538 c 0,0 3.574,2.031 6.668,-1.576 0,0 -2.266,1.554 -6.668,1.576 z"
       id="path3778"
       style="fill:url(#SVGID_10_)" /></g></svg>