<?xml version="1.0" encoding="UTF-8" standalone="no"?>
<!-- Generated by phantom_svg. -->

<svg
   xmlns:dc="http://purl.org/dc/elements/1.1/"
   xmlns:cc="http://creativecommons.org/ns#"
   xmlns:rdf="http://www.w3.org/1999/02/22-rdf-syntax-ns#"
   xmlns:svg="http://www.w3.org/2000/svg"
   xmlns="http://www.w3.org/2000/svg"
   xmlns:sodipodi="http://sodipodi.sourceforge.net/DTD/sodipodi-0.dtd"
   xmlns:inkscape="http://www.inkscape.org/namespaces/inkscape"
   width="64px"
   height="64px"
   viewBox="0 0 64 64"
   preserveAspectRatio="none"
   version="1.1"
   id="svg101"
   inkscape:version="0.91 r13725"
   sodipodi:docname="broken_heart.svg">
  <metadata
     id="frame0_metadata47">
    <rdf:RDF>
      <cc:Work
         rdf:about="">
        <dc:format>
           image/svg+xml 
        </dc:format>
        <dc:type
           rdf:resource="http://purl.org/dc/dcmitype/StillImage" />
      </cc:Work>
    </rdf:RDF>
  </metadata>
  <defs
     id="frame0_defs45" />
  <sodipodi:namedview
     pagecolor="#ffffff"
     bordercolor="#666666"
     borderopacity="1"
     objecttolerance="10"
     gridtolerance="10"
     guidetolerance="10"
     inkscape:pageopacity="0"
     inkscape:pageshadow="2"
     inkscape:window-width="862"
     inkscape:window-height="480"
     id="frame0_namedview43"
     showgrid="false"
     inkscape:zoom="3.6875"
     inkscape:cx="32"
     inkscape:cy="32"
     inkscape:window-x="0"
     inkscape:window-y="26"
     inkscape:window-maximized="0"
     inkscape:current-layer="svg101" />
  <g
     id="frame0_g3"
     transform="matrix(0.40983882,0,0,0.40983616,18.885121,-1.6347598)">
    <g
       id="frame0_g5">
      <path
         style="fill:#c10021"
         d="m 30.870605,56.506836 -5.665527,-3.84668 C 16.529297,46.767578 10.591309,40.473633 7.5556641,33.952148 4.2607422,26.871094 4.3706055,19.385254 7.850586,13.927246 10.500977,9.7709961 14.854492,7.387207 19.794922,7.387207 c 4.238281,0 7.896973,1.7827148 10.580566,5.155273 l 1.250977,1.571778 -8.736817,8.867187 9.23877,9.548828 -5.149902,12.789063 3.892089,11.1875 z M 19.794922,11.921387 c -3.409668,0 -6.293945,1.578125 -8.121094,4.443847 -2.642578,4.14502 -2.6455077,10.003907 -0.0068,15.67334 2.019043,4.338379 5.580078,8.624512 10.620606,12.790527 L 26.82279,33.567383 16.55277,22.952148 25.446813,13.925781 c -1.57959,-1.345703 -3.443847,-2.004394 -5.651855,-2.004394 z"
         id="frame0_path7"
         inkscape:connector-curvature="0" />
      <linearGradient
         id="frame0_SVGID_1_"
         gradientUnits="userSpaceOnUse"
         x1="18.456543"
         y1="3.4243164"
         x2="18.456541"
         y2="45.140385">
        <stop
           offset="0"
           style="stop-color:#FFFFFF"
           id="frame0_stop10" />
        <stop
           offset="0.509091"
           style="stop-color:#FF1F3F"
           id="frame0_stop12" />
        <stop
           offset="0.6614935"
           style="stop-color:#FF2243"
           id="frame0_stop14" />
        <stop
           offset="0.8165283"
           style="stop-color:#FF2C4F"
           id="frame0_stop16" />
        <stop
           offset="0.9723371"
           style="stop-color:#FF3C64"
           id="frame0_stop18" />
        <stop
           offset="1"
           style="stop-color:#FF3F68"
           id="frame0_stop20" />
      </linearGradient>
      <path
         style="fill:url(#frame0_SVGID_1_)"
         d="M 24.557617,45.261719 29.475586,33.048828 19.721191,22.966797 28.601563,13.954102 C 26.74707,11.623535 23.951172,9.6542969 19.794922,9.6542969 9.6113282,9.6542969 4.11084,21.175781 9.6113282,32.995117 13.32959,40.984375 21.087891,47.123047 26.479004,50.78418 l -1.921387,-5.522461 z"
         id="frame0_path22"
         inkscape:connector-curvature="0" />
    </g>
    <g
       id="frame0_g24">
      <path
         style="fill:#c10021"
         d="m 34.879883,56.067383 -5.512207,-10.998047 8.919433,-12.748535 -9.606445,-8.890625 8.029297,-12.671387 0.317383,-0.244141 c 0.204101,-0.157226 0.402344,-0.315429 0.597656,-0.471191 1.560547,-1.2446289 3.329102,-2.6552734 6.580078,-2.6552734 4.94043,0 9.294922,2.3837891 11.944336,6.5405274 3.480469,5.457519 3.589844,12.942871 0.294922,20.023437 -5.107422,10.97461 -17.979492,19.736328 -19.430664,20.699219 l -2.133789,1.416016 z m -0.247071,-10.613281 1.976563,3.943359 C 41.6875,45.654297 49.095703,38.996094 52.333008,32.038574 54.97168,26.369629 54.96875,20.510742 52.326208,16.366211 50.49906,13.500488 47.61527,11.922363 44.205114,11.922363 c -1.664062,0 -2.450195,0.626953 -3.75293,1.666016 -0.111328,0.08887 -0.223632,0.178223 -0.336914,0.268066 l -5.583007,8.811035 9.737304,9.011719 -9.636719,13.774903 z"
         id="frame0_path26"
         inkscape:connector-curvature="0" />
      <linearGradient
         id="frame0_SVGID_2_"
         gradientUnits="userSpaceOnUse"
         x1="44.084961"
         y1="3.1254883"
         x2="44.084957"
         y2="46.847256">
        <stop
           offset="0"
           style="stop-color:#FFFFFF"
           id="frame0_stop29" />
        <stop
           offset="0.509091"
           style="stop-color:#FF1F3F"
           id="frame0_stop31" />
        <stop
           offset="0.6614935"
           style="stop-color:#FF2243"
           id="frame0_stop33" />
        <stop
           offset="0.8165283"
           style="stop-color:#FF2C4F"
           id="frame0_stop35" />
        <stop
           offset="0.9723371"
           style="stop-color:#FF3C64"
           id="frame0_stop37" />
        <stop
           offset="1"
           style="stop-color:#FF3F68"
           id="frame0_stop39" />
      </linearGradient>
      <path
         style="fill:url(#frame0_SVGID_2_)"
         d="m 44.205078,9.6552734 c -2.813477,0 -4.098633,1.3500976 -5.794922,2.6557616 L 31.606445,23.048828 41.27832,32 32,45.261719 l 3.759766,7.500976 c 5.269531,-3.49707 14.728515,-11.385742 18.628906,-19.767578 5.500976,-11.819336 0,-23.3398436 -10.183594,-23.3398436 z"
         id="frame0_path41"
         inkscape:connector-curvature="0" />
    </g>
  </g>
</svg>
