<?xml version="1.0" encoding="UTF-8" standalone="no"?>
<!-- Generated by phantom_svg. -->

<svg
   xmlns:dc="http://purl.org/dc/elements/1.1/"
   xmlns:cc="http://creativecommons.org/ns#"
   xmlns:rdf="http://www.w3.org/1999/02/22-rdf-syntax-ns#"
   xmlns:svg="http://www.w3.org/2000/svg"
   xmlns="http://www.w3.org/2000/svg"
   xmlns:sodipodi="http://sodipodi.sourceforge.net/DTD/sodipodi-0.dtd"
   xmlns:inkscape="http://www.inkscape.org/namespaces/inkscape"
   width="64px"
   height="64px"
   viewBox="0 0 64 64"
   preserveAspectRatio="none"
   version="1.1"
   id="svg4994"
   inkscape:version="0.91 r13725"
   sodipodi:docname="heart_decoration.svg">
  <metadata
     id="frame0_metadata38">
    <rdf:RDF>
      <cc:Work
         rdf:about="">
        <dc:format>
           image/svg+xml 
        </dc:format>
        <dc:type
           rdf:resource="http://purl.org/dc/dcmitype/StillImage" />
      </cc:Work>
    </rdf:RDF>
  </metadata>
  <defs
     id="frame0_defs36" />
  <sodipodi:namedview
     pagecolor="#ffffff"
     bordercolor="#666666"
     borderopacity="1"
     objecttolerance="10"
     gridtolerance="10"
     guidetolerance="10"
     inkscape:pageopacity="0"
     inkscape:pageshadow="2"
     inkscape:window-width="1920"
     inkscape:window-height="1017"
     id="frame0_namedview34"
     showgrid="false"
     inkscape:zoom="7.375"
     inkscape:cx="19.828013"
     inkscape:cy="38.367901"
     inkscape:window-x="0"
     inkscape:window-y="26"
     inkscape:window-maximized="1"
     inkscape:current-layer="frame0_g3" />
  <g
     id="frame0_g3">
    <g
       id="frame0_g5"
       transform="matrix(1.0241949,0,0,1.0241957,-0.66896641,-0.62760201)">
      <g
         id="frame0_g7"
         transform="matrix(1.1057071,0,0,1.1057071,-3.3717618,-3.9715304)"
         style="opacity:0.54100001">
        <linearGradient
           id="frame0_SVGID_1_"
           gradientUnits="userSpaceOnUse"
           x1="305.89648"
           y1="-304.06006"
           x2="305.89648"
           y2="-356.82031"
           gradientTransform="matrix(1,0,0,-1,-274,-298)">
          <stop
             offset="0"
             style="stop-color:#FFFFFF"
             id="frame0_stop10" />
          <stop
             offset="0.509091"
             style="stop-color:#FF1F3F"
             id="frame0_stop12" />
          <stop
             offset="0.6614935"
             style="stop-color:#FF2243"
             id="frame0_stop14" />
          <stop
             offset="0.8165283"
             style="stop-color:#FF2C4F"
             id="frame0_stop16" />
          <stop
             offset="0.9723371"
             style="stop-color:#FF3C64"
             id="frame0_stop18" />
          <stop
             offset="1"
             style="stop-color:#FF3F68"
             id="frame0_stop20" />
        </linearGradient>
        <path
           style="fill:url(#frame0_SVGID_1_)"
           d="m 13.480469,6.0605469 c -4.3999026,0 -8.0000002,3.6000977 -8.0000002,8.0000001 l 0,36.759765 c 0,4.400391 3.6000976,8 8.0000002,8 l 36.833984,0 c 4.399414,0 8,-3.599609 8,-8 l 0,-36.759765 c 0,-4.3999024 -3.600586,-8.0000001 -8,-8.0000001 l -36.833984,0 z m 9.242187,9.8945311 c 7.740235,0 9.277344,8.984375 9.277344,8.984375 0,0 1.537109,-8.984375 9.277344,-8.984375 7.741211,0 11.922851,8.757813 7.742187,17.742188 C 44.837891,42.680664 32,49.925781 32,49.925781 c 0,0 -12.836426,-7.245117 -17.017578,-16.228515 -4.180664,-8.984375 -4.88e-4,-17.742188 7.740234,-17.742188 z"
           id="frame0_path22"
           inkscape:connector-curvature="0" />
      </g>
      <g
         style="opacity:0.54100001"
         id="frame0_g24"
         transform="matrix(1.1057071,0,0,1.1057071,-3.3717618,-3.9715304)">
        <path
           style="fill:#ffffff"
           d="M 5.4799805,26.812988 C 12.86084,29.195801 22,32.939453 31.896973,32.939453 c 9.897949,0 19.036621,-3.743652 26.41748,-6.126465 0,0 2.103516,-13.835937 -1.917969,-18.2700192 C 45.591797,3.1831055 18.984863,5.1889648 8.1469727,7.9648438 3.7231445,12.057129 5.4799805,26.812988 5.4799805,26.812988 Z"
           id="frame0_path26"
           inkscape:connector-curvature="0" />
      </g>
      <g
         id="frame0_g28"
         transform="matrix(1.1057071,0,0,1.1057071,-3.3717618,-3.9715304)"
         style="opacity:0.54100001">
        <path
           style="fill:#c10021"
           d="m 50.314453,60.660156 -36.834472,0 c -5.4257818,0 -9.8398443,-4.414062 -9.8398443,-9.839844 l 0,-36.760253 c 0,-5.4257817 4.4140625,-9.8398442 9.8398443,-9.8398442 l 36.834472,0 c 5.425781,0 9.839844,4.4140625 9.839844,9.8398442 l 0,36.760253 c 0,5.425782 -4.414063,9.839844 -9.839844,9.839844 z M 13.479981,7.8999023 c -3.396973,0 -6.1601568,2.7631837 -6.1601568,6.1601567 l 0,36.760253 c 0,3.396485 2.7631838,6.160157 6.1601568,6.160157 l 36.834472,0 c 3.396485,0 6.160156,-2.763672 6.160156,-6.160157 l 0,-36.760253 c 0,-3.396973 -2.763671,-6.1601567 -6.160156,-6.1601567 l -36.834472,0 z"
           id="frame0_path30"
           inkscape:connector-curvature="0" />
      </g>
    </g>
  </g>
</svg>
