<?xml version="1.0" encoding="UTF-8" standalone="no"?>
<!-- Generated by phantom_svg. -->

<svg
   xmlns:dc="http://purl.org/dc/elements/1.1/"
   xmlns:cc="http://creativecommons.org/ns#"
   xmlns:rdf="http://www.w3.org/1999/02/22-rdf-syntax-ns#"
   xmlns:svg="http://www.w3.org/2000/svg"
   xmlns="http://www.w3.org/2000/svg"
   xmlns:sodipodi="http://sodipodi.sourceforge.net/DTD/sodipodi-0.dtd"
   xmlns:inkscape="http://www.inkscape.org/namespaces/inkscape"
   width="64px"
   height="64px"
   viewBox="0 0 64 64"
   preserveAspectRatio="none"
   version="1.1"
   id="svg7138"
   inkscape:version="0.91 r13725"
   sodipodi:docname="secret.svg">
  <metadata
     id="frame0_metadata31">
    <rdf:RDF>
      <cc:Work
         rdf:about="">
        <dc:format>
           image/svg+xml 
        </dc:format>
        <dc:type
           rdf:resource="http://purl.org/dc/dcmitype/StillImage" />
      </cc:Work>
    </rdf:RDF>
  </metadata>
  <defs
     id="frame0_defs29" />
  <sodipodi:namedview
     pagecolor="#ffffff"
     bordercolor="#666666"
     borderopacity="1"
     objecttolerance="10"
     gridtolerance="10"
     guidetolerance="10"
     inkscape:pageopacity="0"
     inkscape:pageshadow="2"
     inkscape:window-width="862"
     inkscape:window-height="480"
     id="frame0_namedview27"
     showgrid="false"
     inkscape:zoom="3.6875"
     inkscape:cx="32"
     inkscape:cy="32"
     inkscape:window-x="0"
     inkscape:window-y="26"
     inkscape:window-maximized="0"
     inkscape:current-layer="svg7138" />
  <g
     id="frame0_g3"
     transform="matrix(0.36496776,0,0,0.36496776,20.321032,0.68039898)">
    <g
       id="frame0_g5">
      <linearGradient
         id="frame0_SVGID_1_"
         gradientUnits="userSpaceOnUse"
         x1="31.999512"
         y1="3.9321289"
         x2="31.99951"
         y2="59.669044">
        <stop
           offset="0"
           style="stop-color:#FF2B30"
           id="frame0_stop8" />
        <stop
           offset="1"
           style="stop-color:#BC0000"
           id="frame0_stop10" />
      </linearGradient>
      <circle
         style="clip-rule:evenodd;fill:url(#frame0_SVGID_1_);fill-rule:evenodd"
         cx="32"
         cy="32"
         r="29.139648"
         id="frame0_circle12" />
      <path
         style="fill:#920303"
         d="M 31.999023,62.138672 C 15.380371,62.138672 1.8603516,48.618164 1.8603516,32 c 0,-16.618652 13.5200194,-30.1386719 30.1386714,-30.1386719 16.619141,0 30.140625,13.5200199 30.140625,30.1386719 0,16.618164 -13.521484,30.138672 -30.140625,30.138672 z m 0,-58.2773439 C 16.483398,3.8613281 3.8603516,16.484375 3.8603516,32 c 0,15.515625 12.6230464,28.138672 28.1386714,28.138672 15.516602,0 28.140625,-12.623047 28.140625,-28.138672 0,-15.515625 -12.624023,-28.1386719 -28.140625,-28.1386719 z"
         id="frame0_path14"
         inkscape:connector-curvature="0" />
    </g>
    <linearGradient
       id="frame0_SVGID_2_"
       gradientUnits="userSpaceOnUse"
       x1="32.348145"
       y1="32.882324"
       x2="23.220427"
       y2="9.754076">
      <stop
         offset="0"
         style="stop-color:#FF3F3F"
         id="frame0_stop17" />
      <stop
         offset="1"
         style="stop-color:#9B0000"
         id="frame0_stop19" />
    </linearGradient>
    <circle
       style="clip-rule:evenodd;fill:url(#frame0_SVGID_2_);fill-rule:evenodd"
       cx="31.999756"
       cy="31.999023"
       r="25.4104"
       id="frame0_circle21" />
    <g
       id="frame0_g23">
      <path
         style="fill:#ffffff"
         d="m 27.999023,21.121094 c -1.114257,0.321289 -2.174804,0.621094 -3.182617,0.899414 l 0,4.532227 2.154297,-2.603516 2.634766,2.121094 c 0.407226,0.299804 0.611328,0.536133 0.611328,0.707031 0,0.450195 -0.225586,0.674805 -0.674805,0.674805 l -4.725586,0 0,0.996094 c 1.22168,0.408203 2.06836,0.814453 2.540039,1.221679 0.59961,0.578125 0.899414,1.210938 0.899414,1.896485 0,0.55664 -0.161132,1.082031 -0.481445,1.575195 -0.47168,0.47168 -0.943359,0.706055 -1.415039,0.706055 -0.642578,0 -1.082031,-0.652344 -1.317383,-1.959961 -0.06445,-0.300782 -0.139648,-0.588867 -0.225586,-0.868164 l 0,15.458984 c 0,0.257812 -0.246093,0.427734 -0.738281,0.514648 -2.121094,0.235352 -3.204102,0.353516 -3.246094,0.353516 -0.536133,0 -0.803711,-0.342773 -0.803711,-1.02832 l 0,-9.160157 c -1.178711,1.34961 -2.282226,2.400391 -3.310547,3.149415 l -0.256835,-0.256836 c 0.791992,-1.907227 1.489257,-4.082032 2.088867,-6.524414 0.428711,-1.670899 0.78125,-3.684571 1.060547,-6.041993 -0.792969,0.02148 -1.59668,0.0957 -2.411133,0.225586 l -0.481445,-1.415039 c 1.092773,0.150391 2.195312,0.22461 3.310546,0.22461 l 0,-3.598633 c -1.157226,0.192383 -2.185546,0.289062 -3.085937,0.289062 l -0.12793,-0.289062 c 2.570313,-1.329102 4.981446,-2.967774 7.231446,-4.917969 0.535156,-0.535156 0.910156,-0.985352 1.125,-1.349609 l 3.759765,3.664062 c 0.235352,0.236328 0.353516,0.428711 0.353516,0.578125 -0.02148,0.236328 -0.182617,0.353516 -0.482422,0.353516 -0.107422,-10e-7 -0.374024,-0.04199 -0.802735,-0.12793 z m 1.670899,7.745117 c 0.707031,1.779297 1.177734,3.225586 1.414062,4.338867 0.128907,0.450195 0.22461,0.943359 0.289063,1.478516 l 0,-8.035157 c 0,-0.899414 -0.04297,-1.799804 -0.12793,-2.699218 l 4.756836,0.482421 c 0.598633,0.06348 0.899414,0.256836 0.899414,0.578125 0,0.235352 -0.139648,0.428711 -0.417969,0.578125 -0.193359,0.08594 -0.310546,0.236329 -0.352539,0.450196 l 0,6.428711 c 1.5625,-3.128907 2.858399,-6.256836 3.887696,-9.385742 0.642578,-2.035157 1.060546,-3.631836 1.253906,-4.789063 l 5.270508,2.957031 c 0.342773,0.214844 0.513672,0.439453 0.513672,0.674805 0,0.322266 -0.138672,0.536133 -0.417969,0.642578 -0.149414,0.08594 -0.395508,0.161133 -0.738282,0.225586 -3.15039,6.791992 -5.860351,11.634766 -8.130859,14.527344 -0.514648,0.641601 -1.061523,1.25293 -1.638672,1.832031 l 0,1.638672 c 0.06348,0.428711 0.212891,0.674805 0.449219,0.739258 0.643555,0.04297 1.31836,0.06445 2.024414,0.06445 l 1.638672,-0.161133 c 0.621094,0 0.99707,-0.342773 1.125977,-1.029297 0.192383,-1.15625 0.321289,-2.216797 0.384765,-3.180664 l 0.803711,0 c 0,1.928711 0.12793,3.149414 0.386719,3.663086 0.192383,0.494141 0.577148,0.847656 1.15625,1.061523 -0.47168,2.098633 -0.986328,3.384766 -1.542969,3.856446 -0.685547,0.407226 -1.521484,0.610351 -2.506836,0.610351 l -1.446289,0.06445 c -2.80664,0 -4.584961,-0.128906 -5.333984,-0.385742 -1.136719,-0.449219 -1.758789,-1.338867 -1.865235,-2.667969 -1.392578,1.092774 -2.871093,2.111329 -4.43457,3.053711 l -0.386719,-0.513672 c 1.779297,-1.84375 3.375977,-3.707031 4.789063,-5.592773 l 0,-2.667969 c -0.171875,0.450196 -0.482422,0.835938 -0.932617,1.157227 -0.641602,0.449219 -1.413086,0.674805 -2.313477,0.674805 -0.385742,0 -0.791992,-0.203125 -1.220703,-0.610352 -0.279297,-0.364258 -0.417969,-0.803711 -0.417969,-1.318359 0,-1.048829 0.470703,-2.366211 1.414063,-3.952149 0.920898,-1.499023 1.381836,-2.80664 1.381836,-3.920898 0,-0.235352 -0.03223,-0.525391 -0.09668,-0.868164 l 0.482422,0 z M 31.887695,16.65332 c 3.042969,0.642578 5.045899,1.329102 6.010742,2.056641 0.941407,0.729492 1.413086,1.532227 1.413086,2.411133 0,0.770508 -0.214843,1.489258 -0.642578,2.15332 -0.621094,0.621094 -1.252929,0.931641 -1.896484,0.931641 -1.092774,0 -1.841797,-0.856446 -2.249024,-2.571289 -0.536132,-1.842774 -1.542968,-3.385743 -3.021484,-4.62793 l 0.385742,-0.353516 z m 10.541016,14.109375 c 2.185547,1.092774 3.599609,2.142578 4.243164,3.149414 0.579102,0.814453 0.867187,1.735352 0.867187,2.763672 0,0.728516 -0.235351,1.392578 -0.706054,1.993164 -0.558594,0.578125 -1.22168,0.867188 -1.993164,0.867188 -0.342774,0 -0.674805,-0.267578 -0.997071,-0.802735 C 43.542969,38.282227 43.360351,37.276367 43.296875,35.711914 43.167969,34.0625 42.739258,32.637695 42.010742,31.4375 l 0.417969,-0.674805 z"
         id="frame0_path25"
         inkscape:connector-curvature="0" />
    </g>
  </g>
</svg>
