<?xml version="1.0" encoding="UTF-8" standalone="no"?>
<!-- Generated by phantom_svg. -->

<svg
   xmlns:dc="http://purl.org/dc/elements/1.1/"
   xmlns:cc="http://creativecommons.org/ns#"
   xmlns:rdf="http://www.w3.org/1999/02/22-rdf-syntax-ns#"
   xmlns:svg="http://www.w3.org/2000/svg"
   xmlns="http://www.w3.org/2000/svg"
   xmlns:sodipodi="http://sodipodi.sourceforge.net/DTD/sodipodi-0.dtd"
   xmlns:inkscape="http://www.inkscape.org/namespaces/inkscape"
   width="64px"
   height="64px"
   viewBox="0 0 64 64"
   preserveAspectRatio="none"
   version="1.1"
   id="svg7156"
   inkscape:version="0.91 r13725"
   sodipodi:docname="skull.svg">
  <metadata
     id="frame0_metadata93">
    <rdf:RDF>
      <cc:Work
         rdf:about="">
        <dc:format>
           image/svg+xml 
        </dc:format>
        <dc:type
           rdf:resource="http://purl.org/dc/dcmitype/StillImage" />
      </cc:Work>
    </rdf:RDF>
  </metadata>
  <defs
     id="frame0_defs91" />
  <sodipodi:namedview
     pagecolor="#ffffff"
     bordercolor="#666666"
     borderopacity="1"
     objecttolerance="10"
     gridtolerance="10"
     guidetolerance="10"
     inkscape:pageopacity="0"
     inkscape:pageshadow="2"
     inkscape:window-width="1920"
     inkscape:window-height="1017"
     id="frame0_namedview89"
     showgrid="false"
     inkscape:zoom="3.6875"
     inkscape:cx="-28.20339"
     inkscape:cy="32"
     inkscape:window-x="0"
     inkscape:window-y="26"
     inkscape:window-maximized="1"
     inkscape:current-layer="svg7156" />
  <g
     id="frame0_g3"
     transform="matrix(0.51038309,0,0,0.51038809,15.664549,-0.47432036)">
    <path
       style="fill:#fff8f4"
       d="M 50.964844,32.666016 C 55.181641,10.755859 43.709961,5.4384765 31.873047,5.4384765 c -11.837402,0 -22.9882814,6.0498045 -19.229004,27.2275395 -5.4379883,9.152343 3.561523,15.049804 7.683105,13.567382 0,0 -0.759277,3.511719 0.04785,5.211914 7.530762,6.185547 19.871094,5.34375 23.077148,0 0.464844,-2.77832 -0.03516,-5.214843 -0.03516,-5.214843 5.483399,1.209961 13.469727,-6.082032 7.547852,-13.564453 z"
       id="frame0_path5"
       inkscape:connector-curvature="0" />
    <path
       style="fill:#d9dada"
       d="m 20.5,46.416992 4.307129,-2.426758 0.993164,2.240235 c 0,0 -4.13623,0.183594 -1.667969,5.686523 0,0 -3.91748,0.256836 -4.048828,-0.666992 C 19.717285,48.673828 20.5,46.416992 20.5,46.416992 Z"
       id="frame0_path7"
       inkscape:connector-curvature="0" />
    <polygon
       style="fill:#d9dada"
       points="35.291016,51.958984 35.732422,48.666992 36.75,53.5 34.833984,54.224609 "
       id="frame0_polygon9" />
    <path
       style="fill:#d9dada"
       d="m 30.036133,53.106445 1.43164,-5.15332 c 0,0 1.866211,5.148437 1.866211,5.139648 0,-0.0088 -3.297851,0.01367 -3.297851,0.01367 z"
       id="frame0_path11"
       inkscape:connector-curvature="0" />
    <polygon
       style="fill:#d9dada"
       points="28.894043,47.953125 29.333496,53.833984 26.078125,53.106445 "
       id="frame0_polygon13" />
    <path
       style="fill:#d9dada"
       d="m 13,31.197754 c 0,0 -3.1665039,-11.364258 1.75,-16.864258 0,0 2.166504,7.64502 -1.75,16.864258 z"
       id="frame0_path15"
       inkscape:connector-curvature="0" />
    <path
       style="fill:#d9dada"
       d="m 47.816406,12.173828 c 0,0 7.016602,5.159668 2.748047,20.725586 0,0 -1.241211,-6.808594 -4.254883,-8.669922 0,0 2.65918,-3.90039 1.506836,-12.055664 z"
       id="frame0_path17"
       inkscape:connector-curvature="0" />
    <path
       style="fill:#d9dada"
       d="m 38.107422,46.230469 1.023437,-2.487305 4.286133,2.487305 0.03516,5.214844 c 0,0 -3.924804,3.471679 -3.711914,2.388671 1.558594,-7.944336 -1.632812,-7.603515 -1.632812,-7.603515 z"
       id="frame0_path19"
       inkscape:connector-curvature="0" />
    <path
       style="fill:#231815"
       d="m 33.050781,56.274414 c -4.819824,0 -9.555664,-1.619141 -12.993164,-4.442383 L 19.92334,51.660156 c -0.633301,-1.333984 -0.407227,-3.576172 -0.22461,-4.756836 -0.250976,0.03809 -0.513671,0.05762 -0.785644,0.05762 -2.365723,0 -5.656738,-1.575196 -7.369629,-4.584961 -1.6308593,-2.866211 -1.424805,-6.341797 0.576172,-9.804199 -1.640137,-9.416993 -0.464844,-16.586915 3.494629,-21.311036 3.466797,-4.1362302 9.088867,-6.3222653 16.258789,-6.3222653 7.551758,0 13.117187,2.1020508 16.541016,6.2485353 3.841796,4.650879 4.878906,11.833984 3.083984,21.350586 2.217773,2.907715 2.663086,6.10498 1.25,9.025879 -1.486328,3.070312 -4.884766,5.298828 -8.082031,5.298828 l 0,0 c -0.21875,0 -0.435547,-0.0098 -0.648438,-0.03125 0.121094,0.943359 0.256836,2.728515 -0.07227,4.696289 l -0.06445,0.174805 c -1.692382,2.820312 -5.841797,4.572265 -10.830078,4.572265 z M 20.783203,51.132812 c 3.254395,2.63379 7.717773,4.141602 12.267578,4.141602 4.589844,0 8.378906,-1.533203 9.923828,-4.006836 0.416016,-2.607422 -0.04297,-4.914062 -0.04785,-4.936523 l -0.153321,-0.753906 0.750977,0.165039 c 0.362305,0.08008 0.74707,0.120117 1.141602,0.120117 2.833007,9.76e-4 5.853515,-1.990235 7.18164,-4.734375 1.266602,-2.617188 0.813477,-5.512695 -1.274414,-8.151856 l -0.142578,-0.179687 0.04297,-0.225098 C 52.267578,23.250488 51.31543,16.27002 47.643555,11.823731 44.417969,7.9184571 39.112305,5.9384766 31.873047,5.9384766 c -4.78711,0 -11.360352,1.034668 -15.492188,5.9643554 -3.786132,4.517578 -4.877929,11.474121 -3.244628,20.675781 l 0.03271,0.183106 -0.09521,0.159668 c -2.431641,4.092285 -1.701661,7.131348 -0.661133,8.960449 1.861816,3.270508 5.73291,4.607422 7.745117,3.88086 l 0.848144,-0.304688 -0.189941,0.880859 c -0.195801,0.908203 -0.570801,3.492188 -0.03271,4.793945 z"
       id="frame0_path21"
       inkscape:connector-curvature="0" />
    <g
       id="frame0_g23">
      <g
         id="frame0_g25">
        <path
           style="fill:#fff8f4"
           d="m 23.896484,52.769531 c 0.323731,1.833985 0.587403,3.321289 -1.162597,3.63086 -1.748047,0.307617 -2.011231,-1.179688 -2.33545,-3.010743 -0.324707,-1.835937 0.195801,-3.460937 1.161133,-3.630859 0.965332,-0.169922 2.011719,1.176758 2.336914,3.010742 z"
           id="frame0_path27"
           inkscape:connector-curvature="0" />
        <path
           style="fill:#231815"
           d="m 22.301758,56.791016 c -1.656739,0 -1.943848,-1.622071 -2.248047,-3.339844 -0.166504,-0.94336 -0.128418,-1.869141 0.108398,-2.608399 0.260742,-0.815429 0.735352,-1.323242 1.336914,-1.42871 1.188477,-0.213868 2.378418,1.24414 2.742188,3.293945 0.318359,1.804687 0.646973,3.666992 -1.446289,4.037109 -0.177735,0.03125 -0.341309,0.0459 -0.493164,0.0459 z m -0.576172,-6.696289 c -0.03516,0 -0.07031,0.0029 -0.105469,0.0088 -0.327637,0.05762 -0.616211,0.405273 -0.791504,0.952148 -0.202637,0.632813 -0.23291,1.44043 -0.08545,2.273438 0.347168,1.960937 0.602051,2.956054 1.930176,2.726562 1.344238,-0.238281 1.233398,-1.213867 0.878906,-3.22168 -0.300293,-1.693359 -1.181641,-2.739257 -1.82666,-2.739257 z"
           id="frame0_path29"
           inkscape:connector-curvature="0" />
      </g>
      <g
         id="frame0_g31">
        <path
           style="fill:#fff8f4"
           d="m 43.405273,53.314453 c -0.223632,1.84668 -0.405273,3.34668 -2.168945,3.133789 -1.760742,-0.21582 -1.580078,-1.713867 -1.356445,-3.5625 0.223633,-1.848633 1.194336,-3.251953 2.167969,-3.133789 0.973632,0.118164 1.583007,1.710938 1.357421,3.5625 z"
           id="frame0_path33"
           inkscape:connector-curvature="0" />
        <path
           style="fill:#231815"
           d="m 41.554687,56.818359 c -0.113281,0 -0.233398,-0.0068 -0.360351,-0.02246 -2.108399,-0.258789 -1.881836,-2.136718 -1.66211,-3.952148 0.249024,-2.057617 1.372071,-3.566406 2.557618,-3.439453 0.606445,0.07422 1.108398,0.554687 1.413086,1.354492 0.277343,0.72461 0.365234,1.647461 0.25,2.597656 -0.215821,1.780274 -0.418946,3.461914 -2.198243,3.461914 z m 0.44629,-6.71875 c -0.729493,0 -1.569336,1.136719 -1.773438,2.828125 -0.263672,2.176758 -0.241211,3.014649 1.051758,3.172852 1.331055,0.166992 1.53418,-0.810547 1.77832,-2.828125 0.102539,-0.839844 0.02832,-1.643555 -0.208008,-2.264648 -0.205078,-0.53711 -0.512695,-0.868165 -0.84375,-0.908204 -0.002,0 -0.0029,0 -0.0049,0 z"
           id="frame0_path35"
           inkscape:connector-curvature="0" />
      </g>
      <g
         id="frame0_g37">
        <path
           style="fill:#fff8f4"
           d="m 28.023926,54.224609 c 0,2.040039 0,3.695313 -1.946289,3.695313 -1.945313,0 -1.945313,-1.655274 -1.945313,-3.695313 0,-2.040039 0.871582,-3.695312 1.945313,-3.695312 1.075195,0 1.946289,1.655273 1.946289,3.695312 z"
           id="frame0_path39"
           inkscape:connector-curvature="0" />
        <path
           style="fill:#231815"
           d="m 26.077637,58.269531 c -2.295411,0 -2.295411,-2.055664 -2.295411,-4.044922 0,-2.268554 1.008301,-4.044922 2.295411,-4.044922 1.287597,0 2.296386,1.776368 2.296386,4.044922 0,1.989258 0,4.044922 -2.296386,4.044922 z m 0,-7.390625 c -0.754395,0 -1.595215,1.374024 -1.595215,3.345703 0,2.198243 0.0708,3.345703 1.595215,3.345703 1.52539,0 1.596191,-1.14746 1.596191,-3.345703 0,-1.971679 -0.841309,-3.345703 -1.596191,-3.345703 z"
           id="frame0_path41"
           inkscape:connector-curvature="0" />
      </g>
      <g
         id="frame0_g43">
        <path
           style="fill:#fff8f4"
           d="m 31.982422,54.868164 c 0,2.038086 0,3.693359 -1.947266,3.693359 -1.944824,0 -1.944824,-1.655273 -1.944824,-3.693359 0,-2.042969 0.870606,-3.695312 1.944824,-3.695312 1.076172,0 1.947266,1.652343 1.947266,3.695312 z"
           id="frame0_path45"
           inkscape:connector-curvature="0" />
        <path
           style="fill:#231815"
           d="m 30.035156,58.911133 c -2.294922,0 -2.294922,-2.054688 -2.294922,-4.042969 0,-2.268555 1.008301,-4.044922 2.294922,-4.044922 1.288086,0 2.297364,1.776367 2.297364,4.044922 -1e-6,1.988281 -1e-6,4.042969 -2.297364,4.042969 z m 0,-7.388672 c -0.754394,0 -1.594726,1.374023 -1.594726,3.345703 0,2.197266 0.0708,3.34375 1.594726,3.34375 1.526367,0 1.597168,-1.146484 1.597168,-3.34375 0,-1.97168 -0.841797,-3.345703 -1.597168,-3.345703 z"
           id="frame0_path47"
           inkscape:connector-curvature="0" />
      </g>
      <g
         id="frame0_g49">
        <path
           style="fill:#fff8f4"
           d="m 36.039062,54.868164 c 0,2.038086 0,3.693359 -1.946289,3.693359 -1.945312,0 -1.945312,-1.655273 -1.945312,-3.693359 0,-2.042969 0.871094,-3.695312 1.945312,-3.695312 1.076172,0 1.946289,1.652343 1.946289,3.695312 z"
           id="frame0_path51"
           inkscape:connector-curvature="0" />
        <path
           style="fill:#231815"
           d="m 34.092773,58.911133 c -2.29541,0 -2.29541,-2.054688 -2.29541,-4.042969 0,-2.268555 1.008301,-4.044922 2.29541,-4.044922 1.288086,0 2.295899,1.776367 2.295899,4.044922 0,1.988281 0,4.042969 -2.295899,4.042969 z m 0,-7.388672 c -0.754882,0 -1.595214,1.374023 -1.595214,3.345703 0,2.197266 0.0708,3.34375 1.595214,3.34375 1.525391,0 1.59668,-1.146484 1.59668,-3.34375 0,-1.97168 -0.841797,-3.345703 -1.59668,-3.345703 z"
           id="frame0_path53"
           inkscape:connector-curvature="0" />
      </g>
      <g
         id="frame0_g55">
        <path
           style="fill:#fff8f4"
           d="m 40.051758,54.224609 c 0,2.040039 0,3.695313 -1.944336,3.695313 -1.946289,0 -1.946289,-1.655274 -1.946289,-3.695313 0,-2.040039 0.871094,-3.695312 1.946289,-3.695312 1.075195,0 1.944336,1.655273 1.944336,3.695312 z"
           id="frame0_path57"
           inkscape:connector-curvature="0" />
        <path
           style="fill:#231815"
           d="m 38.107422,58.269531 c -2.295899,0 -2.295899,-2.055664 -2.295899,-4.044922 0,-2.268554 1.007813,-4.044922 2.295899,-4.044922 1.286133,0 2.293945,1.776368 2.293945,4.044922 0,1.989258 0,4.044922 -2.293945,4.044922 z m 0,-7.390625 c -0.754883,0 -1.59668,1.374024 -1.59668,3.345703 0,2.198243 0.07129,3.345703 1.59668,3.345703 1.523437,0 1.594726,-1.14746 1.594726,-3.345703 0,-1.971679 -0.84082,-3.345703 -1.594726,-3.345703 z"
           id="frame0_path59"
           inkscape:connector-curvature="0" />
      </g>
    </g>
    <path
       style="fill:#d9dada"
       d="m 37.583008,41.166992 c 0,0 4,5.25 12.981445,0.651367 0,0 -7.481445,9.514649 -12.981445,-0.651367 z"
       id="frame0_path61"
       inkscape:connector-curvature="0" />
    <g
       id="frame0_g63">
      <path
         style="fill:#595757"
         d="m 27.205566,34.980469 c -1.60791,3.65625 -3.6875,6.237304 -7.319824,4.638672 -3.632324,-1.59668 -6.258301,-6.47461 -3.665527,-9.510743 3.49707,-4.097168 5.07959,-1.916503 8.712402,-0.317871 3.632813,1.597168 3.881836,1.533692 2.272949,5.189942 z"
         id="frame0_path65"
         inkscape:connector-curvature="0" />
      <path
         d="m 26.966797,35.162109 c -1.390625,3.164063 -3.15918,5.410157 -6.160156,4.090821 -3.001465,-1.31836 -5.116211,-5.470703 -2.914063,-8.115723 2.970215,-3.569824 4.175781,-1.25 7.176758,0.06982 3.001465,1.319336 3.290039,0.792481 1.897461,3.955078 z"
         id="frame0_path67"
         inkscape:connector-curvature="0" />
      <path
         style="fill:#595757"
         d="m 36.376953,34.958008 c 1.591797,3.648437 3.658203,6.219726 7.296875,4.603515 3.640625,-1.613281 6.289063,-6.504882 3.712891,-9.527832 -3.477539,-4.080566 -5.276368,-1.958496 -8.916992,-0.342773 -3.639649,1.614746 -3.683594,1.619141 -2.092774,5.26709 z"
         id="frame0_path69"
         inkscape:connector-curvature="0" />
      <path
         d="m 36.560547,35.203125 c 1.361328,3.123047 3.132812,5.322266 6.24707,3.941406 3.115235,-1.381836 5.382813,-5.569336 3.177735,-8.157226 -2.976563,-3.492676 -4.436524,-1.195313 -7.552735,0.1875 -3.116211,1.382324 -3.234375,0.90625 -1.87207,4.02832 z"
         id="frame0_path71"
         inkscape:connector-curvature="0" />
    </g>
    <path
       style="fill:#595757"
       d="m 35.862305,41.952148 c 0.648437,2.709961 -1.109375,5.927735 -3.749024,2.018555 -2.584961,4.158203 -4.536621,0.65625 -3.748047,-2.018555 1.005372,-3.421875 1.677735,-5.044922 3.748047,-5.044922 2.069336,10e-7 3.047852,2.114258 3.749024,5.044922 z"
       id="frame0_path73"
       inkscape:connector-curvature="0" />
    <path
       d="m 35.291016,42.290039 c 0,2.380859 -0.923829,5.064453 -3.125,1.726563 -2.154297,3.552734 -3.781739,0.561523 -3.124512,-1.726563 0.838867,-2.922852 1.398926,-4.311523 3.124512,-4.311523 1.726562,0 3.125,1.930664 3.125,4.311523 z"
       id="frame0_path75"
       inkscape:connector-curvature="0" />
    <path
       style="fill:#d9dada"
       d="m 17.946289,44.791016 7.267578,-1.328125 -4.608886,2.257812 c -10e-7,0 -2.02002,-0.217773 -2.658692,-0.929687 z"
       id="frame0_path77"
       inkscape:connector-curvature="0" />
    <path
       style="fill:#d9dada"
       d="m 33.96875,24.416016 c -0.65918,0.961914 -3.142578,-2.401368 -2.344727,-3.869141 0.796875,-1.46875 4.121094,-3.46875 6.291993,-3.158203 2.171875,0.3125 3.61914,3.700195 1.75,4.00293 -2.197266,0.355468 -4.816407,1.736328 -5.697266,3.024414 z"
       id="frame0_path79"
       inkscape:connector-curvature="0" />
    <path
       style="fill:#231815"
       d="m 13.049805,32.958008 -0.811524,-0.583985 c 1.945313,-2.705566 3.092774,-10.996582 3.104004,-11.080078 l 0.991211,0.134766 c -0.04785,0.351074 -1.194336,8.623535 -3.283691,11.529297 z"
       id="frame0_path81"
       inkscape:connector-curvature="0" />
    <path
       style="fill:#231815"
       d="M 50.578125,32.98291 C 48.239258,30.12793 48.350586,21.709961 48.356445,21.353027 l 1,0.0166 c -9.76e-4,0.0835 -0.113281,8.406738 1.995117,10.979492 l -0.773437,0.633789 z"
       id="frame0_path83"
       inkscape:connector-curvature="0" />
    <polygon
       style="fill:#231815"
       points="25.662598,46.168945 24.476562,44.395508 19.800781,46.856445 19.334961,45.97168 24.807617,43.09082 26.493652,45.612305 "
       id="frame0_polygon85" />
    <polygon
       style="fill:#231815"
       points="38.976562,43.075195 43.667969,45.797852 43.166016,46.663086 39.285156,44.411133 38.110352,46.168945 37.27832,45.612305 "
       id="frame0_polygon87" />
  </g>
</svg>
