<?xml version="1.0" encoding="UTF-8" standalone="no"?>
<!-- Generated by phantom_svg. -->

<svg
   xmlns:dc="http://purl.org/dc/elements/1.1/"
   xmlns:cc="http://creativecommons.org/ns#"
   xmlns:rdf="http://www.w3.org/1999/02/22-rdf-syntax-ns#"
   xmlns:svg="http://www.w3.org/2000/svg"
   xmlns="http://www.w3.org/2000/svg"
   xmlns:sodipodi="http://sodipodi.sourceforge.net/DTD/sodipodi-0.dtd"
   xmlns:inkscape="http://www.inkscape.org/namespaces/inkscape"
   width="64px"
   height="64px"
   viewBox="0 0 64 64"
   preserveAspectRatio="none"
   version="1.1"
   id="svg71"
   sodipodi:docname="4.svg"
   inkscape:version="0.92.1 r15371">
  <metadata
     id="frame0_metadata134">
    <rdf:RDF>
      <cc:Work
         rdf:about="">
        <dc:format>
           image/svg+xml 
        </dc:format>
        <dc:type
           rdf:resource="http://purl.org/dc/dcmitype/StillImage" />
        <dc:title></dc:title>
      </cc:Work>
    </rdf:RDF>
  </metadata>
  <defs
     id="frame0_defs132">
    <linearGradient
       id="frame0_SVGID_1_-3"
       gradientUnits="userSpaceOnUse"
       x1="15.183594"
       y1="11.086914"
       x2="15.183593"
       y2="27.385078">
      <stop
         offset="0"
         style="stop-color:#FFFFFF"
         id="frame0_stop12-6" />
      <stop
         offset="0.509091"
         style="stop-color:#FF1F3F"
         id="frame0_stop14-7" />
      <stop
         offset="0.6614935"
         style="stop-color:#FF2243"
         id="frame0_stop16-5" />
      <stop
         offset="0.8165283"
         style="stop-color:#FF2C4F"
         id="frame0_stop18-3" />
      <stop
         offset="0.9723371"
         style="stop-color:#FF3C64"
         id="frame0_stop20-5" />
      <stop
         offset="1"
         style="stop-color:#FF3F68"
         id="frame0_stop22-6" />
    </linearGradient>
    <linearGradient
       id="frame0_SVGID_1_-3-9"
       gradientUnits="userSpaceOnUse"
       x1="15.183594"
       y1="11.086914"
       x2="15.183593"
       y2="27.385078">
      <stop
         offset="0"
         style="stop-color:#FFFFFF"
         id="frame0_stop12-6-3" />
      <stop
         offset="0.509091"
         style="stop-color:#FF1F3F"
         id="frame0_stop14-7-6" />
      <stop
         offset="0.6614935"
         style="stop-color:#FF2243"
         id="frame0_stop16-5-0" />
      <stop
         offset="0.8165283"
         style="stop-color:#FF2C4F"
         id="frame0_stop18-3-6" />
      <stop
         offset="0.9723371"
         style="stop-color:#FF3C64"
         id="frame0_stop20-5-2" />
      <stop
         offset="1"
         style="stop-color:#FF3F68"
         id="frame0_stop22-6-6" />
    </linearGradient>
    <linearGradient
       id="frame0_SVGID_1_-3-9-2"
       gradientUnits="userSpaceOnUse"
       x1="15.183594"
       y1="11.086914"
       x2="15.183593"
       y2="27.385078">
      <stop
         offset="0"
         style="stop-color:#FFFFFF"
         id="frame0_stop12-6-3-8" />
      <stop
         offset="0.509091"
         style="stop-color:#FF1F3F"
         id="frame0_stop14-7-6-9" />
      <stop
         offset="0.6614935"
         style="stop-color:#FF2243"
         id="frame0_stop16-5-0-7" />
      <stop
         offset="0.8165283"
         style="stop-color:#FF2C4F"
         id="frame0_stop18-3-6-3" />
      <stop
         offset="0.9723371"
         style="stop-color:#FF3C64"
         id="frame0_stop20-5-2-6" />
      <stop
         offset="1"
         style="stop-color:#FF3F68"
         id="frame0_stop22-6-6-1" />
    </linearGradient>
    <linearGradient
       id="frame0_SVGID_1_-3-9-6"
       gradientUnits="userSpaceOnUse"
       x1="15.183594"
       y1="11.086914"
       x2="15.183593"
       y2="27.385078">
      <stop
         offset="0"
         style="stop-color:#FFFFFF"
         id="frame0_stop12-6-3-1" />
      <stop
         offset="0.509091"
         style="stop-color:#FF1F3F"
         id="frame0_stop14-7-6-0" />
      <stop
         offset="0.6614935"
         style="stop-color:#FF2243"
         id="frame0_stop16-5-0-6" />
      <stop
         offset="0.8165283"
         style="stop-color:#FF2C4F"
         id="frame0_stop18-3-6-32" />
      <stop
         offset="0.9723371"
         style="stop-color:#FF3C64"
         id="frame0_stop20-5-2-0" />
      <stop
         offset="1"
         style="stop-color:#FF3F68"
         id="frame0_stop22-6-6-6" />
    </linearGradient>
  </defs>
  <sodipodi:namedview
     pagecolor="#ffffff"
     bordercolor="#666666"
     borderopacity="1"
     objecttolerance="10"
     gridtolerance="10"
     guidetolerance="10"
     inkscape:pageopacity="0"
     inkscape:pageshadow="2"
     inkscape:window-width="960"
     inkscape:window-height="1030"
     id="frame0_namedview130"
     showgrid="false"
     inkscape:zoom="7.375"
     inkscape:cx="14.974563"
     inkscape:cy="35.305668"
     inkscape:window-x="960"
     inkscape:window-y="27"
     inkscape:window-maximized="0"
     inkscape:current-layer="frame0_g3" />
  <g
     id="frame0_g3">
    <g
       id="frame0_g5"
       transform="matrix(0.93256084,0,0,1.0100556,34.932587,-5.2233319)">
      <g
         id="frame0_g7">
        <path
           style="fill:#c10021"
           d="M 15.183594,30.526367 14.783203,30.300293 C 14.525879,30.155273 8.4584962,26.694824 6.394043,22.257324 5.2094727,19.711426 5.2490234,17.020019 6.5,15.057617 c 0.953125,-1.494629 2.5185547,-2.352051 4.29541,-2.352051 2.205078,0 3.59668,1.324707 4.388672,2.72461 0.791504,-1.399414 2.183594,-2.723633 4.388672,-2.723633 1.776367,0 3.341309,0.856934 4.294434,2.351074 1.250976,1.961914 1.291015,4.65332 0.106445,7.199707 -2.06543,4.4375 -8.132324,7.897949 -8.389648,8.042969 z M 10.79541,14.336426 c -1.2265623,0 -2.2636717,0.567383 -2.92041,1.597656 -0.9501953,1.490234 -0.9511719,3.597168 -0.00244,5.635742 1.5581055,3.350098 5.957519,6.240723 7.311035,7.071289 1.353515,-0.830566 5.752441,-3.721191 7.311523,-7.071289 0.948731,-2.038574 0.947266,-4.145508 -0.0029,-5.635254 -0.656738,-1.030273 -1.693359,-1.597168 -2.919433,-1.597168 -2.919434,0 -3.560059,3.427246 -3.585938,3.573243 l -0.816894,4.612793 -0.790039,-4.615235 c -0.02539,-0.143555 -0.665527,-3.571777 -3.584473,-3.571777 z"
           id="frame0_path9"
           inkscape:connector-curvature="0" />
        <linearGradient
           id="frame0_SVGID_1_"
           gradientUnits="userSpaceOnUse"
           x1="15.183594"
           y1="11.086914"
           x2="15.183593"
           y2="27.385078">
          <stop
             offset="0"
             style="stop-color:#FFFFFF"
             id="frame0_stop12" />
          <stop
             offset="0.509091"
             style="stop-color:#FF1F3F"
             id="frame0_stop14" />
          <stop
             offset="0.6614935"
             style="stop-color:#FF2243"
             id="frame0_stop16" />
          <stop
             offset="0.8165283"
             style="stop-color:#FF2C4F"
             id="frame0_stop18" />
          <stop
             offset="0.9723371"
             style="stop-color:#FF3C64"
             id="frame0_stop20" />
          <stop
             offset="1"
             style="stop-color:#FF3F68"
             id="frame0_stop22" />
        </linearGradient>
        <path
           style="fill:url(#frame0_SVGID_1_)"
           d="m 15.183594,29.590332 c 0,0 -6.0727541,-3.425781 -8.0502932,-7.676758 -1.9780273,-4.25 0,-8.392578 3.6621092,-8.392578 3.661621,0 4.388184,4.25 4.388184,4.25 0,0 0.727051,-4.249023 4.38916,-4.249023 3.661621,0 5.638672,4.141601 3.661621,8.391601 -1.978516,4.250977 -8.050781,7.676758 -8.050781,7.676758 z"
           id="frame0_path24"
           inkscape:connector-curvature="0" />
      </g>
      <path
         style="fill:#ffffff"
         d="M 8.3032227,17.120117 C 8.432129,15.48291 10.354004,15.350586 11.02832,16.445801 c 0.673828,1.095703 -2.9213864,3.174316 -2.7250973,0.674316 z"
         id="frame0_path26"
         inkscape:connector-curvature="0" />
      <path
         style="opacity:0.25;fill:#ffffff"
         d="m 15.035645,27.585937 c 1.108398,0 6.741699,-3.286621 6.741699,-5.787109 0,-2.5 -1.882325,-2.191406 -3.539551,0.645996 -1.657227,2.837403 -2.72461,3.820801 -3.48291,4.101563 -0.758789,0.28125 -0.477539,1.03955 0.280762,1.03955 z"
         id="frame0_path28"
         inkscape:connector-curvature="0" />
    </g>
    <g
       id="frame0_g5-2"
       transform="matrix(0.93256084,0,0,1.0100556,8.4853133,-10.844873)">
      <g
         id="frame0_g7-9">
        <path
           style="fill:#c10021"
           d="M 15.183594,30.526367 14.783203,30.300293 C 14.525879,30.155273 8.4584962,26.694824 6.394043,22.257324 5.2094727,19.711426 5.2490234,17.020019 6.5,15.057617 c 0.953125,-1.494629 2.5185547,-2.352051 4.29541,-2.352051 2.205078,0 3.59668,1.324707 4.388672,2.72461 0.791504,-1.399414 2.183594,-2.723633 4.388672,-2.723633 1.776367,0 3.341309,0.856934 4.294434,2.351074 1.250976,1.961914 1.291015,4.65332 0.106445,7.199707 -2.06543,4.4375 -8.132324,7.897949 -8.389648,8.042969 z M 10.79541,14.336426 c -1.2265623,0 -2.2636717,0.567383 -2.92041,1.597656 -0.9501953,1.490234 -0.9511719,3.597168 -0.00244,5.635742 1.5581055,3.350098 5.957519,6.240723 7.311035,7.071289 1.353515,-0.830566 5.752441,-3.721191 7.311523,-7.071289 0.948731,-2.038574 0.947266,-4.145508 -0.0029,-5.635254 -0.656738,-1.030273 -1.693359,-1.597168 -2.919433,-1.597168 -2.919434,0 -3.560059,3.427246 -3.585938,3.573243 l -0.816894,4.612793 -0.790039,-4.615235 c -0.02539,-0.143555 -0.665527,-3.571777 -3.584473,-3.571777 z"
           id="frame0_path9-1"
           inkscape:connector-curvature="0" />
        <linearGradient
           id="linearGradient8510"
           gradientUnits="userSpaceOnUse"
           x1="15.183594"
           y1="11.086914"
           x2="15.183593"
           y2="27.385078">
          <stop
             offset="0"
             style="stop-color:#FFFFFF"
             id="stop8498" />
          <stop
             offset="0.509091"
             style="stop-color:#FF1F3F"
             id="stop8500" />
          <stop
             offset="0.6614935"
             style="stop-color:#FF2243"
             id="stop8502" />
          <stop
             offset="0.8165283"
             style="stop-color:#FF2C4F"
             id="stop8504" />
          <stop
             offset="0.9723371"
             style="stop-color:#FF3C64"
             id="stop8506" />
          <stop
             offset="1"
             style="stop-color:#FF3F68"
             id="stop8508" />
        </linearGradient>
        <path
           style="fill:url(#frame0_SVGID_1_-3)"
           d="m 15.183594,29.590332 c 0,0 -6.0727541,-3.425781 -8.0502932,-7.676758 -1.9780273,-4.25 0,-8.392578 3.6621092,-8.392578 3.661621,0 4.388184,4.25 4.388184,4.25 0,0 0.727051,-4.249023 4.38916,-4.249023 3.661621,0 5.638672,4.141601 3.661621,8.391601 -1.978516,4.250977 -8.050781,7.676758 -8.050781,7.676758 z"
           id="frame0_path24-2"
           inkscape:connector-curvature="0" />
      </g>
      <path
         style="fill:#ffffff"
         d="M 8.3032227,17.120117 C 8.432129,15.48291 10.354004,15.350586 11.02832,16.445801 c 0.673828,1.095703 -2.9213864,3.174316 -2.7250973,0.674316 z"
         id="frame0_path26-7"
         inkscape:connector-curvature="0" />
      <path
         style="opacity:0.25;fill:#ffffff"
         d="m 15.035645,27.585937 c 1.108398,0 6.741699,-3.286621 6.741699,-5.787109 0,-2.5 -1.882325,-2.191406 -3.539551,0.645996 -1.657227,2.837403 -2.72461,3.820801 -3.48291,4.101563 -0.758789,0.28125 -0.477539,1.03955 0.280762,1.03955 z"
         id="frame0_path28-0"
         inkscape:connector-curvature="0" />
    </g>
    <g
       id="frame0_g5-2-1"
       transform="matrix(0.93256084,0,0,1.0100556,-5.0337475,12.570827)">
      <g
         id="frame0_g7-9-8">
        <path
           style="fill:#c10021"
           d="M 15.183594,30.526367 14.783203,30.300293 C 14.525879,30.155273 8.4584962,26.694824 6.394043,22.257324 5.2094727,19.711426 5.2490234,17.020019 6.5,15.057617 c 0.953125,-1.494629 2.5185547,-2.352051 4.29541,-2.352051 2.205078,0 3.59668,1.324707 4.388672,2.72461 0.791504,-1.399414 2.183594,-2.723633 4.388672,-2.723633 1.776367,0 3.341309,0.856934 4.294434,2.351074 1.250976,1.961914 1.291015,4.65332 0.106445,7.199707 -2.06543,4.4375 -8.132324,7.897949 -8.389648,8.042969 z M 10.79541,14.336426 c -1.2265623,0 -2.2636717,0.567383 -2.92041,1.597656 -0.9501953,1.490234 -0.9511719,3.597168 -0.00244,5.635742 1.5581055,3.350098 5.957519,6.240723 7.311035,7.071289 1.353515,-0.830566 5.752441,-3.721191 7.311523,-7.071289 0.948731,-2.038574 0.947266,-4.145508 -0.0029,-5.635254 -0.656738,-1.030273 -1.693359,-1.597168 -2.919433,-1.597168 -2.919434,0 -3.560059,3.427246 -3.585938,3.573243 l -0.816894,4.612793 -0.790039,-4.615235 c -0.02539,-0.143555 -0.665527,-3.571777 -3.584473,-3.571777 z"
           id="frame0_path9-1-7"
           inkscape:connector-curvature="0" />
        <linearGradient
           id="linearGradient8627"
           gradientUnits="userSpaceOnUse"
           x1="15.183594"
           y1="11.086914"
           x2="15.183593"
           y2="27.385078">
          <stop
             offset="0"
             style="stop-color:#FFFFFF"
             id="stop8498-9" />
          <stop
             offset="0.509091"
             style="stop-color:#FF1F3F"
             id="stop8500-2" />
          <stop
             offset="0.6614935"
             style="stop-color:#FF2243"
             id="stop8502-0" />
          <stop
             offset="0.8165283"
             style="stop-color:#FF2C4F"
             id="stop8504-2" />
          <stop
             offset="0.9723371"
             style="stop-color:#FF3C64"
             id="stop8506-3" />
          <stop
             offset="1"
             style="stop-color:#FF3F68"
             id="stop8508-7" />
        </linearGradient>
        <path
           style="fill:url(#frame0_SVGID_1_-3-9)"
           d="m 15.183594,29.590332 c 0,0 -6.0727541,-3.425781 -8.0502932,-7.676758 -1.9780273,-4.25 0,-8.392578 3.6621092,-8.392578 3.661621,0 4.388184,4.25 4.388184,4.25 0,0 0.727051,-4.249023 4.38916,-4.249023 3.661621,0 5.638672,4.141601 3.661621,8.391601 -1.978516,4.250977 -8.050781,7.676758 -8.050781,7.676758 z"
           id="frame0_path24-2-5"
           inkscape:connector-curvature="0" />
      </g>
      <path
         style="fill:#ffffff"
         d="M 8.3032227,17.120117 C 8.432129,15.48291 10.354004,15.350586 11.02832,16.445801 c 0.673828,1.095703 -2.9213864,3.174316 -2.7250973,0.674316 z"
         id="frame0_path26-7-9"
         inkscape:connector-curvature="0" />
      <path
         style="opacity:0.25;fill:#ffffff"
         d="m 15.035645,27.585937 c 1.108398,0 6.741699,-3.286621 6.741699,-5.787109 0,-2.5 -1.882325,-2.191406 -3.539551,0.645996 -1.657227,2.837403 -2.72461,3.820801 -3.48291,4.101563 -0.758789,0.28125 -0.477539,1.03955 0.280762,1.03955 z"
         id="frame0_path28-0-2"
         inkscape:connector-curvature="0" />
    </g>
    <g
       id="frame0_g5-2-1-2"
       transform="matrix(0.93256084,0,0,1.0100556,37.75884,21.666672)">
      <g
         id="frame0_g7-9-8-9">
        <path
           style="fill:#c10021"
           d="M 15.183594,30.526367 14.783203,30.300293 C 14.525879,30.155273 8.4584962,26.694824 6.394043,22.257324 5.2094727,19.711426 5.2490234,17.020019 6.5,15.057617 c 0.953125,-1.494629 2.5185547,-2.352051 4.29541,-2.352051 2.205078,0 3.59668,1.324707 4.388672,2.72461 0.791504,-1.399414 2.183594,-2.723633 4.388672,-2.723633 1.776367,0 3.341309,0.856934 4.294434,2.351074 1.250976,1.961914 1.291015,4.65332 0.106445,7.199707 -2.06543,4.4375 -8.132324,7.897949 -8.389648,8.042969 z M 10.79541,14.336426 c -1.2265623,0 -2.2636717,0.567383 -2.92041,1.597656 -0.9501953,1.490234 -0.9511719,3.597168 -0.00244,5.635742 1.5581055,3.350098 5.957519,6.240723 7.311035,7.071289 1.353515,-0.830566 5.752441,-3.721191 7.311523,-7.071289 0.948731,-2.038574 0.947266,-4.145508 -0.0029,-5.635254 -0.656738,-1.030273 -1.693359,-1.597168 -2.919433,-1.597168 -2.919434,0 -3.560059,3.427246 -3.585938,3.573243 l -0.816894,4.612793 -0.790039,-4.615235 c -0.02539,-0.143555 -0.665527,-3.571777 -3.584473,-3.571777 z"
           id="frame0_path9-1-7-3"
           inkscape:connector-curvature="0" />
        <linearGradient
           id="linearGradient8700"
           gradientUnits="userSpaceOnUse"
           x1="15.183594"
           y1="11.086914"
           x2="15.183593"
           y2="27.385078">
          <stop
             offset="0"
             style="stop-color:#FFFFFF"
             id="stop8498-9-1" />
          <stop
             offset="0.509091"
             style="stop-color:#FF1F3F"
             id="stop8500-2-9" />
          <stop
             offset="0.6614935"
             style="stop-color:#FF2243"
             id="stop8502-0-4" />
          <stop
             offset="0.8165283"
             style="stop-color:#FF2C4F"
             id="stop8504-2-7" />
          <stop
             offset="0.9723371"
             style="stop-color:#FF3C64"
             id="stop8506-3-8" />
          <stop
             offset="1"
             style="stop-color:#FF3F68"
             id="stop8508-7-4" />
        </linearGradient>
        <path
           style="fill:url(#frame0_SVGID_1_-3-9-2)"
           d="m 15.183594,29.590332 c 0,0 -6.0727541,-3.425781 -8.0502932,-7.676758 -1.9780273,-4.25 0,-8.392578 3.6621092,-8.392578 3.661621,0 4.388184,4.25 4.388184,4.25 0,0 0.727051,-4.249023 4.38916,-4.249023 3.661621,0 5.638672,4.141601 3.661621,8.391601 -1.978516,4.250977 -8.050781,7.676758 -8.050781,7.676758 z"
           id="frame0_path24-2-5-5"
           inkscape:connector-curvature="0" />
      </g>
      <path
         style="fill:#ffffff"
         d="M 8.3032227,17.120117 C 8.432129,15.48291 10.354004,15.350586 11.02832,16.445801 c 0.673828,1.095703 -2.9213864,3.174316 -2.7250973,0.674316 z"
         id="frame0_path26-7-9-0"
         inkscape:connector-curvature="0" />
      <path
         style="opacity:0.25;fill:#ffffff"
         d="m 15.035645,27.585937 c 1.108398,0 6.741699,-3.286621 6.741699,-5.787109 0,-2.5 -1.882325,-2.191406 -3.539551,0.645996 -1.657227,2.837403 -2.72461,3.820801 -3.48291,4.101563 -0.758789,0.28125 -0.477539,1.03955 0.280762,1.03955 z"
         id="frame0_path28-0-2-3"
         inkscape:connector-curvature="0" />
    </g>
    <g
       id="frame0_g5-2-1-1"
       transform="matrix(0.93256084,0,0,1.0100556,13.058287,32.664067)">
      <g
         id="frame0_g7-9-8-5">
        <path
           style="fill:#c10021"
           d="M 15.183594,30.526367 14.783203,30.300293 C 14.525879,30.155273 8.4584962,26.694824 6.394043,22.257324 5.2094727,19.711426 5.2490234,17.020019 6.5,15.057617 c 0.953125,-1.494629 2.5185547,-2.352051 4.29541,-2.352051 2.205078,0 3.59668,1.324707 4.388672,2.72461 0.791504,-1.399414 2.183594,-2.723633 4.388672,-2.723633 1.776367,0 3.341309,0.856934 4.294434,2.351074 1.250976,1.961914 1.291015,4.65332 0.106445,7.199707 -2.06543,4.4375 -8.132324,7.897949 -8.389648,8.042969 z M 10.79541,14.336426 c -1.2265623,0 -2.2636717,0.567383 -2.92041,1.597656 -0.9501953,1.490234 -0.9511719,3.597168 -0.00244,5.635742 1.5581055,3.350098 5.957519,6.240723 7.311035,7.071289 1.353515,-0.830566 5.752441,-3.721191 7.311523,-7.071289 0.948731,-2.038574 0.947266,-4.145508 -0.0029,-5.635254 -0.656738,-1.030273 -1.693359,-1.597168 -2.919433,-1.597168 -2.919434,0 -3.560059,3.427246 -3.585938,3.573243 l -0.816894,4.612793 -0.790039,-4.615235 c -0.02539,-0.143555 -0.665527,-3.571777 -3.584473,-3.571777 z"
           id="frame0_path9-1-7-5"
           inkscape:connector-curvature="0" />
        <linearGradient
           id="linearGradient8849"
           gradientUnits="userSpaceOnUse"
           x1="15.183594"
           y1="11.086914"
           x2="15.183593"
           y2="27.385078">
          <stop
             offset="0"
             style="stop-color:#FFFFFF"
             id="stop8498-9-4" />
          <stop
             offset="0.509091"
             style="stop-color:#FF1F3F"
             id="stop8500-2-7" />
          <stop
             offset="0.6614935"
             style="stop-color:#FF2243"
             id="stop8502-0-6" />
          <stop
             offset="0.8165283"
             style="stop-color:#FF2C4F"
             id="stop8504-2-5" />
          <stop
             offset="0.9723371"
             style="stop-color:#FF3C64"
             id="stop8506-3-6" />
          <stop
             offset="1"
             style="stop-color:#FF3F68"
             id="stop8508-7-9" />
        </linearGradient>
        <path
           style="fill:url(#frame0_SVGID_1_-3-9-6)"
           d="m 15.183594,29.590332 c 0,0 -6.0727541,-3.425781 -8.0502932,-7.676758 -1.9780273,-4.25 0,-8.392578 3.6621092,-8.392578 3.661621,0 4.388184,4.25 4.388184,4.25 0,0 0.727051,-4.249023 4.38916,-4.249023 3.661621,0 5.638672,4.141601 3.661621,8.391601 -1.978516,4.250977 -8.050781,7.676758 -8.050781,7.676758 z"
           id="frame0_path24-2-5-3"
           inkscape:connector-curvature="0" />
      </g>
      <path
         style="fill:#ffffff"
         d="M 8.3032227,17.120117 C 8.432129,15.48291 10.354004,15.350586 11.02832,16.445801 c 0.673828,1.095703 -2.9213864,3.174316 -2.7250973,0.674316 z"
         id="frame0_path26-7-9-7"
         inkscape:connector-curvature="0" />
      <path
         style="opacity:0.25;fill:#ffffff"
         d="m 15.035645,27.585937 c 1.108398,0 6.741699,-3.286621 6.741699,-5.787109 0,-2.5 -1.882325,-2.191406 -3.539551,0.645996 -1.657227,2.837403 -2.72461,3.820801 -3.48291,4.101563 -0.758789,0.28125 -0.477539,1.03955 0.280762,1.03955 z"
         id="frame0_path28-0-2-4"
         inkscape:connector-curvature="0" />
    </g>
  </g>
</svg>
