<?xml version="1.0" encoding="UTF-8" standalone="no"?>
<!-- Generator: Adobe Illustrator 16.0.0, SVG Export Plug-In . SVG Version: 6.00 Build 0)  -->

<svg
   xmlns:dc="http://purl.org/dc/elements/1.1/"
   xmlns:cc="http://creativecommons.org/ns#"
   xmlns:rdf="http://www.w3.org/1999/02/22-rdf-syntax-ns#"
   xmlns:svg="http://www.w3.org/2000/svg"
   xmlns="http://www.w3.org/2000/svg"
   xmlns:sodipodi="http://sodipodi.sourceforge.net/DTD/sodipodi-0.dtd"
   xmlns:inkscape="http://www.inkscape.org/namespaces/inkscape"
   version="1.1"
   id="Layer_31_copy_7"
   x="0px"
   y="0px"
   width="64px"
   height="64px"
   viewBox="0 0 64 64"
   enable-background="new 0 0 64 64"
   xml:space="preserve"
   inkscape:version="0.91 r13725"
   sodipodi:docname="record_button_active.svg"><metadata
     id="metadata46"><rdf:RDF><cc:Work
         rdf:about=""><dc:format>image/svg+xml</dc:format><dc:type
           rdf:resource="http://purl.org/dc/dcmitype/StillImage" /><dc:title /></cc:Work></rdf:RDF></metadata><defs
     id="defs44" /><sodipodi:namedview
     pagecolor="#ffffff"
     bordercolor="#666666"
     borderopacity="1"
     objecttolerance="10"
     gridtolerance="10"
     guidetolerance="10"
     inkscape:pageopacity="0"
     inkscape:pageshadow="2"
     inkscape:window-width="1920"
     inkscape:window-height="1017"
     id="namedview42"
     showgrid="false"
     inkscape:zoom="7.375"
     inkscape:cx="42.818459"
     inkscape:cy="45.931691"
     inkscape:window-x="0"
     inkscape:window-y="26"
     inkscape:window-maximized="1"
     inkscape:current-layer="g3" /><g
     id="g3"><path
       fill="#182985"
       stroke="#2C5DA9"
       stroke-width="5"
       stroke-miterlimit="10"
       d="M54.396,6.526H10.052   c-1.933,0-3.5,1.567-3.5,3.5v44.348c0,1.934,1.567,3.501,3.5,3.501h44.344c1.934,0,3.5-1.567,3.5-3.501V10.027   C57.896,8.094,56.33,6.526,54.396,6.526z"
       id="path5"
       style="fill:#2b2b2b;fill-opacity:1;stroke:#2b2b2b;stroke-opacity:1" /><radialGradient
       id="SVGID_1_"
       cx="32.2241"
       cy="32.2012"
       r="29.6558"
       gradientUnits="userSpaceOnUse"><stop
         offset="0"
         style="stop-color:#e6e6e6;stop-opacity:1"
         id="stop8" /><stop
         offset="1"
         style="stop-color:#808080;stop-opacity:1"
         id="stop10" /></radialGradient><path
       fill="url(#SVGID_1_)"
       d="M54.396,6.526H10.052c-1.933,0-3.5,1.567-3.5,3.5v44.348c0,1.934,1.567,3.501,3.5,3.501h44.344   c1.934,0,3.5-1.567,3.5-3.501V10.027C57.896,8.094,56.33,6.526,54.396,6.526z"
       id="path12" /><radialGradient
       id="SVGID_2_"
       cx="32.2241"
       cy="9.0293"
       r="21.0683"
       gradientUnits="userSpaceOnUse"><stop
         offset="0"
         style="stop-color:#ffffff;stop-opacity:1"
         id="stop19" /><stop
         offset="1"
         style="stop-color:#999999;stop-opacity:1"
         id="stop21" /></radialGradient><path
       d="M54.396,6.526H10.052c-1.933,0-3.5,1.567-3.5,3.5v1.506c0-1.933,1.567-3.5,3.5-3.5h44.344   c1.934,0,3.5,1.567,3.5,3.5v-1.506C57.896,8.094,56.33,6.526,54.396,6.526z"
       id="path23"
       fill="url(#SVGID_2_)" /><radialGradient
       id="SVGID_3_"
       cx="32.2241"
       cy="54.5977"
       r="18.3005"
       gradientUnits="userSpaceOnUse"><stop
         offset="0"
         style="stop-color:#f0f0f0;stop-opacity:1"
         id="stop26" /><stop
         offset="1"
         style="stop-color:#999999;stop-opacity:1"
         id="stop28" /></radialGradient><path
       fill="url(#SVGID_3_)"
       d="M10.052,57.876h44.345c1.934,0,3.5-1.567,3.5-3.501v-3.056c0,1.935-1.566,3.501-3.5,3.501H10.052   c-1.933,0-3.5-1.566-3.5-3.501v3.056C6.552,56.309,8.119,57.876,10.052,57.876z"
       id="path30" /><path
       fill="#00B0E7"
       d="M54.396,6.526h-0.697c1.934,0,3.5,1.567,3.5,3.5v44.348c0,1.934-1.566,3.501-3.5,3.501h0.697   c1.934,0,3.5-1.567,3.5-3.501V10.027C57.896,8.094,56.33,6.526,54.396,6.526z"
       id="path14"
       style="fill:#333333" /><path
       d="m 7.252,54.375 0,-44.348 c 0,-1.933 1.567,-3.5 3.5,-3.5 l -0.701,0 c -1.933,0 -3.5,1.567 -3.5,3.5 l 0,36.617068 0,7.730932 c 0,1.934 1.567,3.501 3.5,3.501 l 0.701,0 c -1.932,0 -3.5,-1.567 -3.5,-3.501 z"
       id="path16"
       inkscape:connector-curvature="0"
       style="fill:#333333;stroke:none"
       sodipodi:nodetypes="sscsscsscs" /></g><circle
     fill="none"
     cx="32.401"
     cy="32.252"
     r="10.933"
     id="circle32" /><circle
     fill="none"
     cx="32.401"
     cy="32.252"
     r="10.933"
     id="circle34" /><circle
     fill="#FFFFFF"
     stroke="#036EB5"
     stroke-width="9"
     stroke-miterlimit="10"
     cx="32.401"
     cy="32.252"
     r="10.933"
     id="circle36"
     style="stroke:#e60033;stroke-opacity:1" /><circle
     stroke-miterlimit="10"
     cx="32.401"
     cy="32.252"
     r="10.933"
     id="circle38"
     stroke-width="4"
     stroke="#F2B321"
     fill="#FFFFFF"
     style="fill:#f9f9f9;stroke:#eaf4fc;stroke-opacity:1" /><circle
     fill="#FFFFFF"
     cx="32.401"
     cy="32.252"
     r="10.933"
     id="circle40" /><circle
     style="fill:#e2041b;stroke:none;fill-opacity:1"
     cx="32.401001"
     cy="32.251999"
     r="9.40238"
     id="circle40-3" /></svg>