<?xml version="1.0" encoding="utf-8"?>
<!-- Generator: Adobe Illustrator 17.0.0, SVG Export Plug-In . SVG Version: 6.00 Build 0)  -->
<!DOCTYPE svg PUBLIC "-//W3C//DTD SVG 1.1//EN" "http://www.w3.org/Graphics/SVG/1.1/DTD/svg11.dtd">
<svg version="1.1" id="レイヤー_1" xmlns="http://www.w3.org/2000/svg" xmlns:xlink="http://www.w3.org/1999/xlink" x="0px"
	 y="0px" width="64px" height="64px" viewBox="0 0 64 64" style="enable-background:new 0 0 64 64;" xml:space="preserve">
<g>
	<g>
		<linearGradient id="SVGID_1_" gradientUnits="userSpaceOnUse" x1="48" y1="33.0236282" x2="48" y2="64">
			<stop  offset="0" style="stop-color:#182985"/>
			<stop  offset="1" style="stop-color:#171C61"/>
		</linearGradient>
		<path style="fill:url(#SVGID_1_);" d="M54,33.0236282c0,0,10,0,10,12S64,64,64,64H32c0,0,0-6.9763718,0-18.9763718s10-12,10-12H54
			z"/>
		<path style="fill:#231815;" d="M64.25,64.25h-32.5V45.0234375c0-12.1098633,10.1474609-12.25,10.25-12.25h12
			c0.1025391,0,10.25,0.1401367,10.25,12.25V64.25z M32.25,63.75h31.5V45.0234375c0-11.6015625-9.3525391-11.7490234-9.75-11.75H42
			c-0.3974609,0.0009766-9.75,0.1484375-9.75,11.75V63.75z"/>
	</g>
	<g>
		<g>
			<path style="fill:#FFB743;" d="M52.9242554,25.0236301H48h-4.9241943c0,0-0.2424927,6.75-1.0758057,7.9999981
				c0,0,2.125,1.916626,6,1.916626s6-1.916626,6-1.916626C53.166687,31.7736301,52.9242554,25.0236301,52.9242554,25.0236301z"/>
			<path style="fill:#231815;" d="M48,35.1904297c-3.9257813,0-6.078125-1.9003906-6.1669922-1.9814453l-0.1611328-0.1445313
				l0.1201172-0.1796875c0.6513672-0.9770508,0.9677734-6.0126953,1.0341797-7.8701172l0.0087891-0.2412109h10.3300781
				l0.0087891,0.2412109c0.0664063,1.8574219,0.3828125,6.8930664,1.0341797,7.8701172l0.1201172,0.1796875l-0.1611328,0.1445313
				C54.078125,33.2900391,51.9257813,35.1904297,48,35.1904297z M42.3193359,32.9599609
				C42.8632813,33.3730469,44.8447266,34.6904297,48,34.6904297c3.1650391,0,5.1386719-1.3164063,5.6806641-1.7299805
				c-0.6992188-1.4912109-0.9443359-6.409668-0.9970703-7.6870117h-9.3671875
				C43.2636719,26.5507813,43.0185547,31.4682617,42.3193359,32.9599609z"/>
		</g>
		<g>
			<path style="fill:#FFB743;" d="M58,15.9379845c0,0,2-1.6124029,2,3.2248058S54,24,54,24L58,15.9379845z"/>
			<path style="fill:#231815;" d="M54,24.25h-0.4033203l4.2460938-8.5068359
				c0.0400391-0.0317383,0.4023438-0.3129883,0.8613281-0.3129883c1.0253906,0,1.5458984,1.2558594,1.5458984,3.7324219
				C60.25,24.1918945,54.0625,24.25,54,24.25z M58.1962891,16.1044922l-3.7841797,7.6274414
				C55.7382813,23.6357422,59.75,23.0249023,59.75,19.1625977c0-2.0541992-0.3808594-3.2324219-1.0458984-3.2324219
				C58.4824219,15.9301758,58.2792969,16.0488281,58.1962891,16.1044922z"/>
		</g>
		<g>
			<path style="fill:#FFB743;" d="M38,15.9379845c0,0-2-1.6124029-2,3.2248058S42,24,42,24L38,15.9379845z"/>
			<path style="fill:#231815;" d="M42.4033203,24.25H42c-0.0625,0-6.25-0.0581055-6.25-5.0874023
				c0-2.4765625,0.5205078-3.7324219,1.5458984-3.7324219c0.4589844,0,0.8212891,0.28125,0.8613281,0.3129883l0.0664063,0.0834961
				L42.4033203,24.25z M37.2958984,15.9301758c-0.6650391,0-1.0458984,1.1782227-1.0458984,3.2324219
				c0,3.8623047,4.0117188,4.4731445,5.3378906,4.5693359l-3.7841797-7.6274414
				C37.7197266,16.0483398,37.5166016,15.9301758,37.2958984,15.9301758z"/>
		</g>
		<g>
			<path style="fill:#FFB743;" d="M48,4c-5.6623154,0-10.6317596,1.7474365-9.437191,14.666626
				c0.3604622,3.8980103,1.7080154,6.9669189,3.20504,8.5532227C43.2991447,28.8424683,46.1005249,30.8125,48,30.8125
				s4.7009125-1.9700317,6.232151-3.5926514c1.4970856-1.5863037,2.844635-4.6552124,3.20504-8.5532227
				C58.6317596,5.7474365,53.6623154,4,48,4z"/>
			<path style="fill:#231815;" d="M48,31.0625c-1.9160156,0-4.734375-1.8916016-6.4140625-3.6713867
				c-1.7128906-1.8144531-2.9365234-5.0673828-3.2724609-8.7016602c-0.5615234-6.0761719,0.1884766-10.1523438,2.2939453-12.4609375
				C42.6103516,4.0317383,45.6103516,3.75,48,3.75s5.3896484,0.2817383,7.3925781,2.4785156
				c2.1054688,2.3085938,2.8554688,6.3847656,2.2939453,12.4609375c-0.3359375,3.6342773-1.5595703,6.887207-3.2724609,8.7016602
				C52.734375,29.1708984,49.9160156,31.0625,48,31.0625z M48,4.25c-2.4287109,0-5.1630859,0.2749023-7.0234375,2.3154297
				c-2.0048828,2.1992188-2.7128906,6.1499023-2.1650391,12.078125c0.3212891,3.4736328,1.5234375,6.6943359,3.1376953,8.4047852
				C43.5800781,28.7758789,46.2890625,30.5625,48,30.5625s4.4199219-1.7866211,6.0507813-3.5141602
				c1.6142578-1.7104492,2.8164063-4.9311523,3.1376953-8.4047852c0.5478516-5.9282227-0.1601563-9.8789063-2.1650391-12.078125
				C53.1630859,4.5249023,50.4287109,4.25,48,4.25z"/>
		</g>
	</g>
	<g>
		<path style="fill:#231815;" d="M44,25.4375c0,0,2,0.625,4,0.625s4-0.625,4-0.625s0.15625,1.21875-4,1.21875S44,25.4375,44,25.4375
			z"/>
		<g>
			<g>
				<path style="fill:#F5F5F5;" d="M50.012764,17.6929607c0-0.3434982,0.5725288-1.7650261,2.4651222-1.7650261
					c1.8925972,0,2.7487221,1.390625,2.7487221,1.390625s-1.034214,1.3278732-2.7488861,1.3014927
					C51.7651291,18.6090889,50.012764,18.036459,50.012764,17.6929607z"/>
				<ellipse style="fill:#231815;" cx="52.3797188" cy="17.147644" rx="1.3197482" ry="1.4186682"/>
				<ellipse style="fill:#3E3A39;" cx="52.3797188" cy="17.147644" rx="1.0280999" ry="1.1888798"/>
				<ellipse style="fill:#231815;" cx="52.3797188" cy="17.147644" rx="0.4987249" ry="0.5767183"/>
				<path style="fill:#231815;" d="M52.4778862,15.6808434c-2.0408974,0.1754913-2.6818047,1.731842-2.7487183,2.0121155
					c0.2033005-0.2063866,1.2585487-1.558157,2.6505508-1.5404987c1.7561264,0.0222797,2.5414772,1.2253494,2.5414772,1.2253494
					c-0.0242882,0.0357037-0.5733871,0.7718468-0.5733871,0.7718468s0.7598648-0.4199562,1.3984909-0.984705
					C55.7462997,17.1649513,54.5187836,15.505352,52.4778862,15.6808434z"/>
				<ellipse style="fill:#FFFFFF;" cx="51.6230812" cy="16.6355705" rx="0.356352" ry="0.3007674"/>
			</g>
			<g>
				<path style="fill:#F5F5F5;" d="M45.987236,17.6929607c0-0.3434982-0.5725288-1.7650261-2.4651222-1.7650261
					c-1.8925972,0-2.7487221,1.390625-2.7487221,1.390625s1.034214,1.3278732,2.7488861,1.3014927
					C44.2348709,18.6090889,45.987236,18.036459,45.987236,17.6929607z"/>
				<ellipse style="fill:#231815;" cx="43.6202812" cy="17.147644" rx="1.3197482" ry="1.4186682"/>
				<ellipse style="fill:#3E3A39;" cx="43.6202812" cy="17.147644" rx="1.0280999" ry="1.1888798"/>
				<ellipse style="fill:#231815;" cx="43.6202812" cy="17.147644" rx="0.4987249" ry="0.5767183"/>
				<path style="fill:#231815;" d="M43.5221138,15.6808434c2.0408974,0.1754913,2.6818047,1.731842,2.7487183,2.0121155
					c-0.2033005-0.2063866-1.2585487-1.558157-2.6505508-1.5404987c-1.7561264,0.0222797-2.5414772,1.2253494-2.5414772,1.2253494
					c0.0242882,0.0357037,0.5733871,0.7718468,0.5733871,0.7718468s-0.7598648-0.4199562-1.3984909-0.984705
					C40.2537003,17.1649513,41.4812164,15.505352,43.5221138,15.6808434z"/>
				<ellipse style="fill:#FFFFFF;" cx="42.8636436" cy="16.6355705" rx="0.356352" ry="0.3007674"/>
			</g>
		</g>
		<g>
			<path style="fill:#231815;" d="M46.84375,14.6482391c0,0-2.84375-2.6236181-6.46875-0.2681446
				c0,0,2.46875-0.8925714,5.40625,0.5679998C45.78125,14.9480944,46.515625,15.0404291,46.84375,14.6482391z"/>
			<path style="fill:#231815;" d="M49.15625,14.6482391c0,0,2.84375-2.6236181,6.46875-0.2681446
				c0,0-2.46875-0.8925714-5.40625,0.5679998C50.21875,14.9480944,49.484375,15.0404291,49.15625,14.6482391z"/>
		</g>
		<linearGradient id="SVGID_2_" gradientUnits="userSpaceOnUse" x1="47.4719238" y1="22.833334" x2="47.4719238" y2="18">
			<stop  offset="0" style="stop-color:#FFFFFF;stop-opacity:0.05"/>
			<stop  offset="0.5" style="stop-color:#FFFFFF;stop-opacity:0.4"/>
			<stop  offset="1" style="stop-color:#FFFFFF;stop-opacity:0.05"/>
		</linearGradient>
		<path style="fill:url(#SVGID_2_);" d="M48.0000076,20.416666c0,1.3346882-0.631134,2.4166679-0.9137344,2.4166679
			c-0.2825966,0-0.0835648-1.4994335,0.073101-2.7942715C47.3055687,18.8307285,47.4250145,18,47.7076111,18
			C47.9902115,18,48.0000076,19.0819778,48.0000076,20.416666z"/>
	</g>
	<g>
		<g>
			<linearGradient id="SVGID_3_" gradientUnits="userSpaceOnUse" x1="48.0466537" y1="1.5971801" x2="48.0466537" y2="21.678812">
				<stop  offset="0.1504425" style="stop-color:#6E4E30"/>
				<stop  offset="0.9955752" style="stop-color:#2E2114"/>
			</linearGradient>
			<path style="fill:url(#SVGID_3_);" d="M55.2248726,2.8854733c-1.7434807-0.9402685-4.9831352-1.7188066-8.3749504-1.0186023
				c-3.0478058-0.4502044-4.6077156,0.3414623-6.444664,1.9589368c-5.2633286,4.6344824-3.3624306,12.772356-3.3624306,12.772356
				l1.6812134,5.0806484l0.9416466-2.6796532c0,0,1.3878403-10.6993341,1.3765907-11.3116589
				c2.1942482,3.85007,12.7312851,4.809042,13.2198753,5.5625c0,0,0.6993065-0.625,1.2737846-3.84375
				c0.2708969,2.0842705,0.8654366,9.34375,0.8654366,9.34375l0.8783188,2.928812l1.6812172-5.0806484
				C58.9609108,16.5981636,61.2410889,5.5833335,55.2248726,2.8854733z"/>
			<path style="fill:#2B1D15;" d="M57.2675781,22.5097656l-1.1054688-3.6879883
				c-0.0126953-0.1015625-0.4130859-4.965332-0.7041016-7.8457031c-0.4853516,1.9228516-0.9658203,2.4033203-1.0302734,2.4604492
				l-0.2167969,0.1943359l-0.1591797-0.2451172c-0.1591797-0.1591797-1.3837891-0.440918-2.5673828-0.7133789
				c-3.1494141-0.7241211-8.2646484-1.9008789-10.2519531-4.2792969
				c-0.2587891,2.4643555-1.2695313,10.2583008-1.3183594,10.6381836l-1.1972656,3.4213867l-1.9111328-5.7758789
				c-0.0253906-0.1044922-1.8798828-8.359375,3.4345703-13.0385742C42.0810547,2.0170898,43.75,1.1660156,46.8427734,1.612793
				c0.8701172-0.1762695,1.7724609-0.265625,2.6845703-0.265625c2.1113281,0,4.2851563,0.4926758,5.8154297,1.3178711
				c6.1132813,2.7407227,3.9580078,13.5258789,3.8632813,13.9838867L57.2675781,22.5097656z M45.2832031,1.9916992
				c-2.0205078,0-3.2587891,0.7412109-4.7128906,2.0214844c-5.0927734,4.484375-3.3027344,12.4482422-3.2841797,12.5283203
				l1.4443359,4.3632813l0.7001953-1.9887695c0.3730469-2.9199219,1.3710938-10.7368164,1.3613281-11.2236328l-0.0185547-0.9814453
				l0.4853516,0.8525391c1.4726563,2.5830078,7.0214844,3.8588867,10.3369141,4.621582
				c1.4931641,0.3432617,2.2470703,0.5283203,2.6152344,0.7182617c0.2119141-0.3369141,0.6767578-1.2841797,1.0791016-3.5410156
				l0.2851563-1.5981445l0.2089844,1.6098633c0.2675781,2.0664063,0.8603516,9.2827148,0.8662109,9.3554688l0.6396484,2.1201172
				l1.4335938-4.3300781c0.0146484-0.0800781,2.1621094-10.8212891-3.6015625-13.40625
				c-1.4775391-0.7958984-3.5625-1.2661133-5.5947266-1.2661133c-0.8925781,0-1.7773438,0.0888672-2.6269531,0.2641602
				l-0.0439453,0.0092773l-0.0429688-0.0063477C46.2558594,2.0317383,45.7558594,1.9916992,45.2832031,1.9916992z"/>
		</g>
		<linearGradient id="SVGID_4_" gradientUnits="userSpaceOnUse" x1="47.7372551" y1="2.5625" x2="47.7372551" y2="12.2829084">
			<stop  offset="0" style="stop-color:#8C6B42"/>
			<stop  offset="0.9955752" style="stop-color:#6E4E30"/>
		</linearGradient>
		<path style="fill:url(#SVGID_4_);" d="M43.6753006,2.5625c-1.3736954,4.9023414,3.1866341,6.5,10.1044922,9.7204084
			C53.7797928,12.2829084,35.840313,9.2260189,43.6753006,2.5625z"/>
		<linearGradient id="SVGID_5_" gradientUnits="userSpaceOnUse" x1="38.0757866" y1="7.6875" x2="38.0757866" y2="18.8125">
			<stop  offset="0" style="stop-color:#8C6B42"/>
			<stop  offset="0.9955752" style="stop-color:#6E4E30"/>
		</linearGradient>
		<path style="fill:url(#SVGID_5_);" d="M38.9424019,7.6875c0,0-3.8997688,3.875,0,11.125
			C38.9424019,18.8125,36.7225342,12.5625,38.9424019,7.6875z"/>
		<linearGradient id="SVGID_6_" gradientUnits="userSpaceOnUse" x1="58.1724243" y1="8" x2="58.1724243" y2="18.3125">
			<stop  offset="0" style="stop-color:#8C6B42"/>
			<stop  offset="0.9955752" style="stop-color:#6E4E30"/>
		</linearGradient>
		<path style="fill:url(#SVGID_6_);" d="M57.4213142,8c0,0,3.1239052,2.8125,0.3620224,10.3125
			C57.7833366,18.3125,59.1612129,11.25,57.4213142,8z"/>
	</g>
</g>
<g>
</g>
<g>
</g>
<g>
</g>
<g>
</g>
<g>
</g>
<g>
</g>
</svg>
