<?xml version="1.0" encoding="utf-8"?>
<!-- Generator: Adobe Illustrator 18.0.0, SVG Export Plug-In . SVG Version: 6.00 Build 0)  -->
<!DOCTYPE svg PUBLIC "-//W3C//DTD SVG 1.1//EN" "http://www.w3.org/Graphics/SVG/1.1/DTD/svg11.dtd">
<svg version="1.1" id="レイヤー_1" xmlns="http://www.w3.org/2000/svg" xmlns:xlink="http://www.w3.org/1999/xlink" x="0px"
	 y="0px" width="64px" height="64px" viewBox="0 0 64 64" style="enable-background:new 0 0 64 64;" xml:space="preserve">
<g>
	<g>
		<radialGradient id="SVGID_1_" cx="31.8791981" cy="12.0018177" r="17.4125137" gradientUnits="userSpaceOnUse">
			<stop  offset="0.526749" style="stop-color:#271E14"/>
			<stop  offset="1" style="stop-color:#100D0B"/>
		</radialGradient>
		<path style="fill:url(#SVGID_1_);" d="M15.9137115,14.7223301c3.2273064-0.1730146,21.9590187-1.1063509,31.8963776-0.0324469
			c0.2872276,0.0310402,0.5410385-0.1338806,0.5683937-0.3653927l0.4642143-3.9285784
			c0.0258293-0.2185879-0.1657867-0.4148941-0.4369736-0.4442453c-2.8744965-0.3111143-18.1123486-1.7493792-33.0882263,0.8852329
			c-0.2579775,0.0453844-0.4319296,0.2426691-0.4004574,0.4530745l0.4595499,3.0723362
			C15.4089241,14.5784903,15.6429615,14.736845,15.9137115,14.7223301z"/>
		<path style="fill:#030202;" d="M15.8789063,14.9731445c-0.3847656,0-0.7001953-0.2412109-0.7495117-0.5742188
			l-0.4594727-3.0717773c-0.0512695-0.3442383,0.2143555-0.6679688,0.6040039-0.7363281
			c5.8852539-1.0356445,12.4501953-1.5605469,19.512207-1.5605469c6.8935547,0,12.1875,0.5151367,13.6464844,0.6728516
			c0.2128906,0.0229492,0.4052734,0.1235352,0.5273438,0.2763672c0.1025391,0.1289063,0.1494141,0.2871094,0.1308594,0.4453125
			l-0.4638672,3.9291992c-0.0429688,0.3637695-0.4248047,0.6259766-0.8427734,0.5844727
			c-3.1152344-0.3364258-7.4042969-0.5073242-12.7490234-0.5073242c-8.3662109,0-16.7407227,0.4140625-19.1083984,0.5405273
			L15.8789063,14.9731445z M34.7861328,9.5302734c-7.0332031,0-13.5688477,0.5224609-19.425293,1.5527344
			c-0.1293945,0.0229492-0.2060547,0.1064453-0.1967773,0.1704102l0.4594727,3.0717773
			c0.0107422,0.0717773,0.1157227,0.1479492,0.2553711,0.1479492v0.25l0.0209961-0.2504883
			c2.3710938-0.1269531,10.7563477-0.5415039,19.1352539-0.5415039c5.3623047,0,9.6699219,0.171875,12.8027344,0.5102539
			c0.0019531,0,0.0048828,0,0.0078125,0c0.1806641,0,0.2763672-0.0756836,0.2851563-0.1459961l0.4638672-3.9287109
			c0.0029297-0.0249023-0.0058594-0.050293-0.0263672-0.0751953c-0.0380859-0.0483398-0.109375-0.0825195-0.1894531-0.0913086
			C46.9267578,10.0429688,41.6552734,9.5302734,34.7861328,9.5302734z"/>
	</g>
	<g>
		<linearGradient id="SVGID_2_" gradientUnits="userSpaceOnUse" x1="30.0906849" y1="2.3930876" x2="30.6734791" y2="9.0544682">
			<stop  offset="0" style="stop-color:#694E33"/>
			<stop  offset="1" style="stop-color:#3A2D1F"/>
		</linearGradient>
		<path style="fill:url(#SVGID_2_);" d="M31.8792114,8.875c15.385437-1.0992432,18.1308594-1.7251587,19.0332031-2.5986938
			c0.5018921-3.0319214-6.4891357-4.8011475-19.0913696-3.9956055C14.7929077,3.3692017,9.0625,6.6348267,10.25,9.2803955
			c0.0516357,0.1149902,0.1148682,0.2213135,0.1795044,0.3264771C11.4243774,9.9659424,14.9526367,10.0843506,31.8792114,8.875z"/>
		<linearGradient id="SVGID_3_" gradientUnits="userSpaceOnUse" x1="30.6617889" y1="7.8367767" x2="31.0141411" y2="11.8641806">
			<stop  offset="0" style="stop-color:#3A2D1F"/>
			<stop  offset="1" style="stop-color:#100D0B"/>
		</linearGradient>
		<path style="fill:url(#SVGID_3_);" d="M31.8792114,8.875c-16.9265747,1.2093506-20.454834,1.0909424-21.449707,0.7318726
			c1.2286377,1.9989014,4.6555786,2.262085,4.6555786,2.262085S19,11.9356079,31.4257813,11.4760742
			s17.3309937-1.2913818,17.3309937-1.2913818s1.2992554-0.5652466,2.1345215-3.7202759
			c0.0170288-0.0643921,0.0106201-0.1248169,0.0211182-0.1881104C50.0100708,7.1498413,47.2646484,7.7757568,31.8792114,8.875z"/>
	</g>
	<path style="fill:#030202;" d="M15.7270508,12.1225586c-0.4482422,0-0.6464844-0.003418-0.6464844-0.003418
		c-0.1757813-0.0126953-3.9775391-0.3271484-5.0585938-2.7363281c-0.2685547-0.5986328-0.2197266-1.230957,0.140625-1.8291016
		c1.6494141-2.7358398,9.5380859-4.7485352,21.6425781-5.5224609c2.0258789-0.1293945,3.9555664-0.1948242,5.737793-0.1948242
		c7.0966797,0,11.7880859,1.0170898,13.2099609,2.8647461c0.4267578,0.5537109,0.5546875,1.168457,0.3798828,1.8271484
		c-0.8564453,3.2348633-2.21875,3.8603516-2.2763672,3.8852539c-0.1074219,0.0258789-5.1210938,0.8574219-17.4213867,1.3125
		C21.7548828,12.0839844,17.2255859,12.1225586,15.7270508,12.1225586z M15.1054688,11.6196289
		c0.1049805-0.0014648,4.046875,0.0600586,16.3110352-0.3935547c11.699707-0.4326172,16.7788086-1.2050781,17.2612305-1.2817383
		c0.1699219-0.097168,1.2470703-0.8076172,1.9726563-3.5439453c0.1337891-0.5078125,0.0380859-0.9638672-0.2929688-1.3945313
		c-1.3066406-1.6967773-5.9775391-2.6694336-12.8144531-2.6694336c-1.7714844,0-3.6914063,0.0649414-5.7055664,0.1938477
		c-17.4316406,1.1142578-20.6694336,4.3242188-21.246582,5.2817383c-0.2797852,0.4643555-0.3168945,0.9111328-0.112793,1.3657227
		c0.9570313,2.1323242,4.5605469,2.4370117,4.625,2.4418945C15.1030273,11.6196289,15.1040039,11.6196289,15.1054688,11.6196289z"/>
	<g>
		<linearGradient id="SVGID_4_" gradientUnits="userSpaceOnUse" x1="31.9410019" y1="1.3453218" x2="31.9410019" y2="2.8290579">
			<stop  offset="0" style="stop-color:#694E33"/>
			<stop  offset="1" style="stop-color:#3A2D1F"/>
		</linearGradient>
		<path style="fill:url(#SVGID_4_);" d="M33.9383659,2.0507891c0.0227585,0.4426723-0.8600426,0.7112648-1.9631538,0.7679861
			c-1.1031132,0.0567214-2.0088081-0.1199076-2.0315704-0.5625801s0.853035-0.8475107,1.9561462-0.904232
			S33.9156036,1.6081169,33.9383659,2.0507891z"/>
		<path style="fill:#030202;" d="M31.5864258,3.0791016c-1.1938477,0-1.8657227-0.2875977-1.8920898-0.8100586
			c-0.0097656-0.1870117,0.0683594-0.5444336,0.7001953-0.8364258c0.3979492-0.184082,0.9277344-0.3012695,1.4926758-0.3300781
			c0.0908203-0.0048828,0.1811523-0.0073242,0.2695313-0.0073242c0.9868164,0,1.9985352,0.2915039,2.0317383,0.9428711
			c0.0419922,0.8256836-1.5249023,0.9956055-2.2006836,1.0302734C31.8510742,3.0756836,31.7167969,3.0791016,31.5864258,3.0791016z
			 M32.1567383,1.5952148c-0.0800781,0-0.1616211,0.0024414-0.2441406,0.0063477
			c-0.5024414,0.0258789-0.9667969,0.1269531-1.3081055,0.284668c-0.2880859,0.1333008-0.4150391,0.2788086-0.4111328,0.3574219
			c0.0053711,0.1049805,0.3637695,0.3354492,1.3930664,0.3354492c0.1220703,0,0.2475586-0.003418,0.3759766-0.0097656
			c1.2348633-0.0634766,1.7338867-0.3608398,1.7260742-0.5058594C33.6806641,1.8999023,33.1464844,1.5952148,32.1567383,1.5952148z"
			/>
	</g>
	<path style="fill:#030202;" d="M13.6201172,10.1054688c-2.9370117,0-3.1962891-0.2763672-3.4868164-0.5859375l-0.0576172-0.0600586
		l0.3486328-0.3583984l0.0737305,0.0761719c0.3813477,0.4072266,0.8549805,0.9140625,21.3637695-0.5517578
		C48.8974609,7.4086914,50.0859375,6.777832,50.7197266,5.7680664l0.4238281,0.265625
		c-0.7617188,1.2128906-1.8974609,1.8510742-19.246582,3.0908203C21.7338867,9.8505859,16.4414063,10.1054688,13.6201172,10.1054688
		z"/>
</g>
<g>
	<g>
		<linearGradient id="SVGID_5_" gradientUnits="userSpaceOnUse" x1="32" y1="47.4821777" x2="32" y2="65.3651123">
			<stop  offset="0" style="stop-color:#3E3A39"/>
			<stop  offset="1" style="stop-color:#000000"/>
		</linearGradient>
		<path style="fill:url(#SVGID_5_);" d="M52.0999146,56.4868164c0-6.753479-6.631958-7.3966675-12.0395508-9.0046387
			L38.3773193,48.125H25.6226807l-1.6830444-0.6428223c-5.4075928,1.6079712-12.0395508,2.2511597-12.0395508,9.0046387
			l-0.124939,8.8782959h40.449707L52.0999146,56.4868164z"/>
		<path d="M52.4785156,65.6152344h-40.956543l0.1279297-9.1328125c0-5.9912109,5.0288086-7.3173828,9.8920898-8.6005859
			c0.7851563-0.2070313,1.5678711-0.4140625,2.3261719-0.6386719l0.0810547-0.0244141L25.668457,47.875h12.6625977
			l1.7197266-0.65625l0.0810547,0.0244141c0.7587891,0.2246094,1.5410156,0.4316406,2.3261719,0.6386719
			c4.8632813,1.2822266,9.8916016,2.609375,9.8916016,8.6044922L52.4785156,65.6152344z M12.0288086,65.1152344h39.9418945
			l-0.1210938-8.625c0-5.6142578-4.6240234-6.8339844-9.5195313-8.125
			c-0.7617188-0.2011719-1.5214844-0.4013672-2.2597656-0.6191406L38.3769531,48.375l-12.84375-0.0166016l-1.6040039-0.6123047
			c-0.737793,0.2177734-1.4975586,0.4179688-2.2597656,0.6191406c-4.8955078,1.2910156-9.5195313,2.5107422-9.5195313,8.1210938
			L12.0288086,65.1152344z"/>
	</g>
	<g>
		<linearGradient id="SVGID_6_" gradientUnits="userSpaceOnUse" x1="32.0000038" y1="45.6586571" x2="32.0000038" y2="52.2126236">
			<stop  offset="0" style="stop-color:#3E3A39"/>
			<stop  offset="1" style="stop-color:#0D0D0D"/>
		</linearGradient>
		<path style="fill:url(#SVGID_6_);" d="M40.7500992,45.8920708c-0.308197-0.2458649-0.8327408-0.3074188-1.2375145-0.1370316
			c-1.2342339,0.5195351-4.0438652,1.5109253-7.5125866,1.5109253c-3.468729,0-6.2783642-0.9913712-7.5125904-1.5108948
			c-0.4047756-0.1703835-0.9293079-0.1088257-1.2375069,0.1370316l-2.4413128,1.947525
			c-0.2853718,0.2276497-0.3030987,0.5524635-0.0537148,0.7986488c1.0548668,1.0413246,4.3313866,3.5743484,11.2451248,3.5743484
			c6.9138279,0,10.1902981-2.5330276,11.2451382-3.5743523c0.2493782-0.2461815,0.2316513-0.5709915-0.0537148-0.7986412
			L40.7500992,45.8920708z"/>
		<path d="M32,52.4628906c-6.9736328,0-10.3100586-2.5498047-11.4208984-3.6464844
			c-0.1708984-0.1689453-0.2587891-0.3789063-0.2480469-0.5917969c0.0117188-0.2177734,0.1259766-0.4238281,0.3217773-0.5800781
			l2.4414063-1.9472656c0.3701172-0.2978516,1.0175781-0.3710938,1.4897461-0.1728516
			C25.9072266,46.0810547,28.6303711,47.015625,32,47.015625c3.3701172,0,6.0927734-0.9345703,7.4160156-1.4912109
			c0.4716797-0.1972656,1.1201172-0.1230469,1.4902344,0.171875l2.4414063,1.9482422
			c0.1953125,0.15625,0.3095703,0.3613281,0.3212891,0.578125c0.0107422,0.2128906-0.0771484,0.4238281-0.2480469,0.59375
			C42.3095703,49.9130859,38.9736328,52.4628906,32,52.4628906z M23.9897461,45.9091797
			c-0.2250977,0-0.4433594,0.0664063-0.5834961,0.1787109l-2.4418945,1.9472656
			C20.90625,48.0820313,20.8354492,48.1572266,20.8305664,48.25c-0.0043945,0.0878906,0.0517578,0.1630859,0.1000977,0.2109375
			C21.9975586,49.5136719,25.2114258,51.9628906,32,51.9628906c6.7880859,0,10.0029297-2.4492188,11.0693359-3.5019531
			c0.0478516-0.0478516,0.1044922-0.1230469,0.0996094-0.2109375c-0.0048828-0.09375-0.0751953-0.1679688-0.1337891-0.2148438
			L40.59375,46.0869141c-0.2285156-0.1826172-0.6787109-0.2285156-0.984375-0.1015625
			C38.2519531,46.5566406,35.4570313,47.515625,32,47.515625c-3.4575195,0-6.2519531-0.9589844-7.6098633-1.5302734
			C24.2714844,45.9355469,24.1328125,45.9091797,23.9897461,45.9091797z"/>
	</g>
</g>
<g>
	<path style="fill:#40220F;" d="M23.1123142,55.7816734c-6.0332546-4.832695-13.2285128-5.9092369-16.0399361-2.3993835
		l-0.4991546,0.6231575c-2.811424,3.5098495-0.1900363,10.2965317,5.8432174,15.1292191
		c3.1777592,2.5454178,6.8228731,4.1657562,10.0015974,4.4456635c2.6503048,0.2327118,4.7949047-0.4939423,6.0383396-2.0462799
		l0.499155-0.6231537C31.7669563,67.4010391,29.1455688,60.6143646,23.1123142,55.7816734z"/>
	
		<linearGradient id="SVGID_7_" gradientUnits="userSpaceOnUse" x1="17.8460407" y1="63.070797" x2="44.7624359" y2="63.070797" gradientTransform="matrix(0.7804844 0.6251752 -0.6251752 0.7804844 30.3885021 -3.3748512)">
		<stop  offset="0" style="stop-color:#956134"/>
		<stop  offset="1" style="stop-color:#593817"/>
	</linearGradient>
	<path style="fill:url(#SVGID_7_);" d="M7.5102973,53.7325401l-0.499711,0.6238518
		c-2.6218877,3.2732315-0.0446181,9.6936646,5.7565551,14.3404541c3.2148361,2.5751114,6.7450333,4.0650787,9.7000523,4.3247986
		c2.3773079,0.2089233,4.3822899-0.3784714,5.5512218-1.8377914l0.4997101-0.623848L7.5102973,53.7325401z"/>
	
		<linearGradient id="SVGID_8_" gradientUnits="userSpaceOnUse" x1="17.8460407" y1="58.8743629" x2="44.7624359" y2="58.8743629" gradientTransform="matrix(0.7804844 0.6251752 -0.6251752 0.7804844 30.3885021 -3.3748512)">
		<stop  offset="0" style="stop-color:#C9A063"/>
		<stop  offset="1" style="stop-color:#B28247"/>
	</linearGradient>
	<path style="fill:url(#SVGID_8_);" d="M28.5180969,70.5600357c-1.1689148,1.4593048-3.1739063,2.0466843-5.5512085,1.8377609
		c-2.9549885-0.2596893-6.48522-1.7497025-9.700037-4.3247986c-5.8011513-4.6467781-8.3784618-11.0672035-5.7565827-14.3404236
		c2.6218781-3.2732162,9.4500923-2.159729,15.2512436,2.4870453S31.1399746,67.2868195,28.5180969,70.5600357z"/>
	<g>
		
			<linearGradient id="SVGID_9_" gradientUnits="userSpaceOnUse" x1="29.0612049" y1="53.7310257" x2="33.7575569" y2="53.7310257" gradientTransform="matrix(0.7804844 0.6251752 -0.6251752 0.7804844 30.3885021 -3.3748512)">
			<stop  offset="0" style="stop-color:#2EA7E0"/>
			<stop  offset="1" style="stop-color:#172A88"/>
		</linearGradient>
		<path style="fill:url(#SVGID_9_);" d="M23.0256786,59.8140373c-0.4369793,0.545536-1.6203728,0.0802193-2.5872307-0.6942444
			c-0.9668579-0.7744598-1.5151768-1.6962624-1.0781975-2.2417984s1.4205952-0.7270508,2.6606407,0.2662354
			C23.2609367,58.1375198,23.3433857,59.4174042,23.0256786,59.8140373z"/>
		<path style="fill:#172A88;" d="M22.4541016,60.3007813c-0.5893555,0-1.4013672-0.3681641-2.171875-0.9853516
			c-1.1821289-0.9472656-1.6206055-1.9648438-1.1171875-2.59375c0.6035156-0.7519531,1.8520508-0.7021484,3.012207,0.2275391
			c1.3061523,1.046875,1.4882813,2.4648438,1.0439453,3.0214844C23.1000977,60.1210938,22.8691406,60.3007813,22.4541016,60.3007813
			z M20.3510742,56.6835938c-0.3320313,0-0.6147461,0.125-0.7954102,0.3505859
			c-0.2993164,0.3740234,0.1376953,1.1689453,1.0390625,1.890625c0.9169922,0.734375,1.9541016,1.0820313,2.2363281,0.7333984
			c0.2246094-0.28125,0.1674805-1.4101563-0.9663086-2.3183594C21.3286133,56.9101563,20.8056641,56.6835938,20.3510742,56.6835938z
			"/>
	</g>
	
		<linearGradient id="SVGID_10_" gradientUnits="userSpaceOnUse" x1="29.9524593" y1="52.8536377" x2="31.2404118" y2="54.1415863" gradientTransform="matrix(0.7804844 0.6251752 -0.6251752 0.7804844 30.3885021 -3.3748512)">
		<stop  offset="0" style="stop-color:#FFFFFF"/>
		<stop  offset="1" style="stop-color:#FFFFFF;stop-opacity:0"/>
	</linearGradient>
	<path style="fill:url(#SVGID_10_);" d="M21.6984901,58.2084808c-0.2184887,0.2727661-0.787508,0.1799774-1.270937-0.2072563
		c-0.483429-0.3872299-0.6982059-0.9222641-0.4797153-1.195034c0.2184906-0.2727661,0.787508-0.1799774,1.270937,0.2072563
		C21.7022038,57.4006767,21.9169807,57.9357109,21.6984901,58.2084808z"/>
	<g>
		
			<linearGradient id="SVGID_11_" gradientUnits="userSpaceOnUse" x1="23.2513199" y1="54.9676552" x2="27.94767" y2="54.9676552" gradientTransform="matrix(0.7804844 0.6251752 -0.6251752 0.7804844 30.3885021 -3.3748512)">
			<stop  offset="0" style="stop-color:#36D600"/>
			<stop  offset="1" style="stop-color:#007E1D"/>
		</linearGradient>
		<path style="fill:url(#SVGID_11_);" d="M17.7180424,57.1470108c-0.4369793,0.545536-1.6203728,0.0802193-2.5872307-0.6942444
			c-0.9668589-0.7744598-1.5151768-1.6962624-1.0781965-2.2417984c0.4369793-0.545536,1.4205952-0.7270508,2.6606398,0.2662354
			C17.9533005,55.4704933,18.0357494,56.7503777,17.7180424,57.1470108z"/>
		<path style="fill:#006618;" d="M17.1464844,57.6337891c-0.5893555,0-1.4013672-0.3681641-2.171875-0.9853516
			c-1.1821289-0.9472656-1.6206055-1.9648438-1.1171875-2.59375c0.6040039-0.7519531,1.8530273-0.7011719,3.012207,0.2275391
			c1.3061523,1.046875,1.4882813,2.4648438,1.0439453,3.0214844C17.7924805,57.4541016,17.5615234,57.6337891,17.1464844,57.6337891
			z M15.043457,54.0166016c-0.3320313,0-0.6147461,0.125-0.7954102,0.3505859
			c-0.2993164,0.3740234,0.1376953,1.1689453,1.0390625,1.890625c0.9169922,0.734375,1.9545898,1.0830078,2.2363281,0.7333984
			c0.2246094-0.28125,0.1674805-1.4101563-0.9663086-2.3183594C16.0209961,54.2431641,15.4980469,54.0166016,15.043457,54.0166016z"
			/>
	</g>
	
		<linearGradient id="SVGID_12_" gradientUnits="userSpaceOnUse" x1="24.1425724" y1="54.0902672" x2="25.4305248" y2="55.3782196" gradientTransform="matrix(0.7804844 0.6251752 -0.6251752 0.7804844 30.3885021 -3.3748512)">
		<stop  offset="0" style="stop-color:#FFFFFF"/>
		<stop  offset="1" style="stop-color:#FFFFFF;stop-opacity:0"/>
	</linearGradient>
	<path style="fill:url(#SVGID_12_);" d="M16.3908539,55.5414543c-0.2184887,0.2727661-0.7875071,0.1799774-1.270937-0.2072525
		c-0.483429-0.3872337-0.698205-0.9222679-0.4797153-1.1950378c0.2184906-0.2727661,0.787508-0.1799774,1.2709379,0.2072563
		C16.3945675,54.7336502,16.6093445,55.2686844,16.3908539,55.5414543z"/>
	<g>
		
			<linearGradient id="SVGID_13_" gradientUnits="userSpaceOnUse" x1="19.2772522" y1="58.0331841" x2="23.9736023" y2="58.0331841" gradientTransform="matrix(0.7804844 0.6251752 -0.6251752 0.7804844 30.3885021 -3.3748512)">
			<stop  offset="0" style="stop-color:#FAEE00"/>
			<stop  offset="1" style="stop-color:#F8B62D"/>
		</linearGradient>
		<path style="fill:url(#SVGID_13_);" d="M12.6998529,57.0551186c-0.4369793,0.545536-1.6203728,0.0802231-2.5872307-0.6942406
			s-1.5151768-1.6962624-1.0781975-2.2417984c0.4369802-0.545536,1.4205952-0.7270508,2.6606407,0.2662354
			S13.0175591,56.6584892,12.6998529,57.0551186z"/>
		<path style="fill:#807900;" d="M12.1269531,57.5419922c-0.5883789,0-1.3999023-0.3681641-2.1704102-0.9853516
			c-1.1816406-0.9472656-1.6196289-1.9658203-1.1171875-2.59375c0.6025391-0.7509766,1.8515625-0.703125,3.0117188,0.2275391
			c0.7495117,0.6005859,1.0507813,1.2490234,1.1713867,1.6875c0.1484375,0.5390625,0.0996094,1.0498047-0.1279297,1.3330078
			C12.7739258,57.3623047,12.5424805,57.5419922,12.1269531,57.5419922z M10.0258789,53.9248047
			c-0.3325195,0-0.6152344,0.1240234-0.7958984,0.3505859c-0.3037109,0.3789063,0.1235352,1.15625,1.0390625,1.890625
			c0.9169922,0.7353516,1.9550781,1.0830078,2.2353516,0.7324219c0.0839844-0.1044922,0.1630859-0.4277344,0.0361328-0.8876953
			c-0.1010742-0.3671875-0.3569336-0.9130859-1.0019531-1.4296875
			C11.0029297,54.1513672,10.4799805,53.9248047,10.0258789,53.9248047z"/>
	</g>
	
		<linearGradient id="SVGID_14_" gradientUnits="userSpaceOnUse" x1="20.1685066" y1="57.1557961" x2="21.456459" y2="58.4437485" gradientTransform="matrix(0.7804844 0.6251752 -0.6251752 0.7804844 30.3885021 -3.3748512)">
		<stop  offset="0" style="stop-color:#FFFFFF"/>
		<stop  offset="1" style="stop-color:#FFFFFF;stop-opacity:0"/>
	</linearGradient>
	<path style="fill:url(#SVGID_14_);" d="M11.3726645,55.4495621c-0.2184896,0.2727699-0.787508,0.1799774-1.270937-0.2072525
		s-0.698205-0.9222679-0.4797153-1.195034c0.2184896-0.2727699,0.787508-0.1799774,1.270937,0.2072525
		C11.376379,54.641758,11.5911541,55.176796,11.3726645,55.4495621z"/>
	<g>
		
			<linearGradient id="SVGID_15_" gradientUnits="userSpaceOnUse" x1="21.6254272" y1="61.9584923" x2="26.3217773" y2="61.9584923" gradientTransform="matrix(0.7804844 0.6251752 -0.6251752 0.7804844 30.3885021 -3.3748512)">
			<stop  offset="0" style="stop-color:#E83828"/>
			<stop  offset="1" style="stop-color:#C30D23"/>
		</linearGradient>
		<path style="fill:url(#SVGID_15_);" d="M12.0785627,61.5867805c-0.4369802,0.5455399-1.6203728,0.0802231-2.5872316-0.6942406
			s-1.5151768-1.6962624-1.0781975-2.2417984c0.4369802-0.545536,1.4205952-0.7270508,2.6606407,0.2662354
			S12.3962688,61.1901512,12.0785627,61.5867805z"/>
		<path style="fill:#800817;" d="M11.5068359,62.0732422c-0.5893555,0-1.4013672-0.3681641-2.171875-0.9853516
			c-1.1821289-0.9472656-1.6206055-1.9648438-1.1171875-2.59375c0.6044922-0.7519531,1.8520508-0.7011719,3.012207,0.2275391
			c0.7495117,0.6005859,1.0507813,1.2490234,1.1713867,1.6875c0.1484375,0.5390625,0.0996094,1.0507813-0.1279297,1.3339844
			C12.152832,61.8935547,11.921875,62.0732422,11.5068359,62.0732422z M9.4042969,58.4560547
			c-0.3320313,0-0.6152344,0.125-0.7963867,0.3505859c-0.2988281,0.3740234,0.1381836,1.1689453,1.0395508,1.890625
			c0.9165039,0.7333984,1.9550781,1.0830078,2.2363281,0.7333984c0.0834961-0.1044922,0.1625977-0.4277344,0.0356445-0.8886719
			c-0.1010742-0.3671875-0.3569336-0.9130859-1.0019531-1.4296875C10.3818359,58.6835938,9.8583984,58.4560547,9.4042969,58.4560547
			z"/>
	</g>
	
		<linearGradient id="SVGID_16_" gradientUnits="userSpaceOnUse" x1="22.5166817" y1="61.0811043" x2="23.8046322" y2="62.3690529" gradientTransform="matrix(0.7804844 0.6251752 -0.6251752 0.7804844 30.3885021 -3.3748512)">
		<stop  offset="0" style="stop-color:#FFFFFF"/>
		<stop  offset="1" style="stop-color:#FFFFFF;stop-opacity:0"/>
	</linearGradient>
	<path style="fill:url(#SVGID_16_);" d="M10.7513733,59.9812241c-0.2184896,0.2727699-0.7875071,0.1799774-1.270937-0.2072525
		c-0.483429-0.3872299-0.698205-0.9222679-0.4797153-1.195034c0.2184906-0.2727699,0.787508-0.1799774,1.270937,0.2072525
		C10.7550879,59.1734238,10.9698639,59.7084579,10.7513733,59.9812241z"/>
</g>
<g>
	<g>
		
			<linearGradient id="SVGID_17_" gradientUnits="userSpaceOnUse" x1="50.4421692" y1="60.7944794" x2="52.686409" y2="60.7944794" gradientTransform="matrix(0.9751515 0.2215393 -0.2215393 0.9751515 10.606163 -10.7822428)">
			<stop  offset="0" style="stop-color:#231815"/>
			<stop  offset="0.3" style="stop-color:#3E3A39"/>
			<stop  offset="1" style="stop-color:#231815"/>
		</linearGradient>
		<polygon style="fill:url(#SVGID_17_);" points="45.617672,72.927002 43.4291992,72.4298172 49.2239075,46.9231873 
			51.4123802,47.420372 		"/>
		<path style="fill:#231815;" d="M45.8056641,73.2255859l-2.6757813-0.6074219l0.0546875-0.2441406l5.8505859-25.75
			l2.6757813,0.6074219L51.65625,47.4755859L45.8056641,73.2255859z M43.7275391,72.2412109l1.7011719,0.3867188
			l5.6845703-25.0195313l-1.7011719-0.3867188L43.7275391,72.2412109z"/>
	</g>
	<g>
		
			<linearGradient id="SVGID_18_" gradientUnits="userSpaceOnUse" x1="51.5427322" y1="35.6151733" x2="51.5427322" y2="44.4217148" gradientTransform="matrix(0.9751515 0.2215393 -0.2215393 0.9751515 10.606163 -10.7822428)">
			<stop  offset="0.3" style="stop-color:#F7F8F8"/>
			<stop  offset="1" style="stop-color:#9FA0A0"/>
		</linearGradient>
		<path style="fill:url(#SVGID_18_);" d="M54.033123,35.6063957l-2.0758095-0.4715881
			c-0.1454277-0.0330391-0.2901039,0.0580673-0.323143,0.2034988c0,0-0.4250755,1.4245491-0.663868,2.475647
			c-0.2387924,1.0510941-0.7421112,3.7130508-0.7421112,3.7130508l-0.4253731,1.8723679
			c-0.0330391,0.1454277,0.0580711,0.2901039,0.2035027,0.323143l2.0758057,0.4715919
			c0.1454277,0.0330391,0.2901039-0.0580711,0.323143-0.2034988l0.4253731-1.8723679c0,0,0.6798134-2.7054825,0.9079819-3.7098122
			s0.4979973-2.4788857,0.4979973-2.4788857C54.2696609,35.7841148,54.1785507,35.6394348,54.033123,35.6063957z"/>
		<path style="fill:#9FA0A0;" d="M52.1416016,44.4511719L52.1416016,44.4511719l-0.1152344-0.0126953l-2.0761719-0.4716797
			c-0.2792969-0.0644531-0.4550781-0.34375-0.3916016-0.6230469l0.4257813-1.8720703
			c0.0039063-0.0175781,0.5048828-2.6699219,0.7421875-3.7138672c0.2373047-1.046875,0.6630859-2.4765625,0.6679688-2.4912109
			c0.0498047-0.2226563,0.2587891-0.3886719,0.5029297-0.3886719l0.1152344,0.0126953l2.0761719,0.4716797
			c0.2792969,0.0644531,0.4550781,0.34375,0.3916016,0.6230469c-0.0009766,0.0039063-0.2714844,1.4804688-0.4980469,2.4785156
			c-0.2255859,0.9960938-0.9023438,3.6884766-0.9091797,3.7148438l-0.4238281,1.8671875
			C52.5947266,44.2841797,52.3857422,44.4511719,52.1416016,44.4511719z M51.9013672,35.3789063
			c-0.0322266,0.0449219-0.453125,1.4599609-0.6865234,2.4902344c-0.2363281,1.0351563-0.7353516,3.6777344-0.7402344,3.7050781
			l-0.4277344,1.8808594l2.0947266,0.4960938c0.0068359,0,0.0175781-0.0048828,0.0195313-0.0166016L52.5869141,42.0625
			c0.0087891-0.0322266,0.6835938-2.71875,0.9072266-3.7099609c0.2255859-0.9873047,0.4931641-2.453125,0.4960938-2.4677734
			L51.9013672,35.3789063z"/>
	</g>
	<g>
		
			<linearGradient id="SVGID_19_" gradientUnits="userSpaceOnUse" x1="49.9690247" y1="47.2270126" x2="53.1595535" y2="47.2270126" gradientTransform="matrix(0.9751515 0.2215393 -0.2215393 0.9751515 10.606163 -10.7822428)">
			<stop  offset="0" style="stop-color:#956134"/>
			<stop  offset="0.3" style="stop-color:#C9A063"/>
			<stop  offset="1" style="stop-color:#6A3906"/>
		</linearGradient>
		<path style="fill:url(#SVGID_19_);" d="M52.8335915,42.1189461c0,0-0.2906647,0.2105637-1.360157-0.0324097
			s-1.2406502-0.5584526-1.2406502-0.5584526c-0.1409531-0.0320244-0.2776718,0.0408401-0.3053665,0.1627464l-0.8592415,3.7821312
			c-0.1688042,0.7430344-0.9432373,4.9578438-0.7639923,5.4719543c0,0,0.2378502,0.4443855,1.0156593,0.6210938
			c0.777813,0.1767082,1.177002-0.1139641,1.177002-0.1139641c0.3870468-0.3859634,1.5127029-4.5245056,1.682579-5.2722549
			l0.8592415-3.7821312C53.0663605,42.275753,52.9745483,42.1509666,52.8335915,42.1189461z"/>
		<path style="fill:#40220F;" d="M49.8017578,51.8730469L49.8017578,51.8730469c-0.171875,0-0.3525391-0.0205078-0.5371094-0.0625
			c-0.8789063-0.2001953-1.1689453-0.7246094-1.1816406-0.7470703c-0.2412109-0.6875,0.6689453-5.3242188,0.7412109-5.6464844
			l0.859375-3.7822266c0.0576172-0.2509766,0.3369141-0.4091797,0.6044922-0.3505859l0.1103516,0.0253906l0.0537109,0.0986328l0,0
			c0.0029297,0,0.2080078,0.2373047,1.0771484,0.4345703c0.3232422,0.0732422,0.6025391,0.1103516,0.8291016,0.1103516
			c0.2509766,0,0.34375-0.046875,0.3447266-0.046875l0.0917969-0.0664063L52.8896484,41.875
			c0.2744141,0.0634766,0.4501953,0.3222656,0.3935547,0.5771484l-0.859375,3.7832031
			c-0.0732422,0.3222656-1.2607422,4.9052734-1.75,5.3935547C50.6132813,51.6767578,50.328125,51.8730469,49.8017578,51.8730469z
			 M48.5400391,50.8623047c0.0058594,0,0.2167969,0.3193359,0.8359375,0.4599609
			c0.1474609,0.0341797,0.2910156,0.0507813,0.4257813,0.0507813c0.3613281,0,0.5439453-0.1201172,0.5517578-0.125
			c0.2773438-0.3056641,1.3457031-4.0810547,1.5820313-5.1240234l0.8447266-3.7167969
			c-0.2363281,0.0605469-0.7470703,0.0615234-1.3623047-0.0761719c-0.7177734-0.1640625-1.0761719-0.3652344-1.2519531-0.5117188
			L49.3125,45.5283203c-0.2373047,1.0400391-0.9052734,4.8955078-0.7724609,5.3349609
			C48.5400391,50.8623047,48.5400391,50.8623047,48.5400391,50.8623047z"/>
	</g>
	<g>
		
			<linearGradient id="SVGID_20_" gradientUnits="userSpaceOnUse" x1="51.5611305" y1="32.9399605" x2="51.5611305" y2="36.8516655" gradientTransform="matrix(0.9751515 0.2215393 -0.2215393 0.9751515 10.606163 -10.7822428)">
			<stop  offset="0.3" style="stop-color:#036EB8"/>
			<stop  offset="1" style="stop-color:#172A88"/>
		</linearGradient>
		<path style="fill:url(#SVGID_20_);" d="M53.3996277,32.7190971c0,0,1.5,1.5917091,1.1868324,2.8656311
			c-0.1801224,0.7327003-0.7729149,1.2613564-0.9783592,1.1925774c-0.2054443-0.0687828-0.3153687-0.5580025-0.5045662-0.6009827
			c-0.1891975-0.042984-0.2981033,0.2417717-0.4873009,0.1987877c-0.1891975-0.0429802-0.3277817-0.4060707-0.4749336-0.4394989
			c-0.1471558-0.033432-0.2325516,0.3686829-0.4912529,0.3084259c-0.2587051-0.060257-0.2225037-1.0029831-0.184391-1.3240929
			C51.5871277,33.8965988,53.1088066,32.9288139,53.3996277,32.7190971z"/>
		<path style="fill:#172A88;" d="M53.6484375,37.0332031l-0.1191406-0.0185547
			c-0.1943359-0.0644531-0.3027344-0.2568359-0.3984375-0.4257813c-0.0224609-0.0410156-0.0566406-0.1005859-0.0849609-0.1416016
			c-0.0097656,0.0078125-0.0205078,0.015625-0.0283203,0.0224609c-0.0791016,0.0634766-0.1972656,0.1601563-0.3623047,0.1601563
			l-0.0947266-0.0107422c-0.1894531-0.0429688-0.3125-0.2050781-0.4111328-0.3349609
			c-0.0058594-0.0078125-0.0126953-0.0166016-0.0185547-0.0253906C52.0449219,36.3642578,51.9121094,36.5,51.7021484,36.5
			L51.59375,36.4873047c-0.5107422-0.1191406-0.4169922-1.2519531-0.3759766-1.5966797
			c0.1113281-0.9404297,1.1611328-1.7685547,1.9414063-2.3085938l0.2714844-0.1938477l0.1503906,0.159668
			c0.0654297,0.0688477,1.5898438,1.7060547,1.2490234,3.0966797
			C54.6396484,36.4140625,54.0283203,37.0332031,53.6484375,37.0332031z M53.0644531,35.921875l0.0947266,0.0107422
			c0.2021484,0.0458984,0.3115234,0.2402344,0.4072266,0.4111328c0.0302734,0.0517578,0.0751953,0.1328125,0.109375,0.1767578
			c0.1572266-0.0771484,0.5332031-0.4462891,0.6679688-0.9951172c0.2060547-0.8369141-0.5429688-1.9501953-0.9833984-2.4736328
			c-0.4677734,0.3261719-1.5546875,1.1230469-1.6464844,1.8974609c-0.0419922,0.3564453-0.0292969,0.8085938,0.0214844,1.0048828
			c0.0117188-0.015625,0.0253906-0.0322266,0.0351563-0.0458984c0.0703125-0.0898438,0.1767578-0.2246094,0.3535156-0.2246094
			l0.0722656,0.0078125c0.1582031,0.0361328,0.2558594,0.1650391,0.3505859,0.2890625
			c0.0332031,0.0439453,0.0859375,0.1123047,0.1201172,0.1425781c-0.0009766-0.0117188,0.0195313-0.0292969,0.0351563-0.0410156
			C52.78125,36.0185547,52.8994141,35.921875,53.0644531,35.921875z"/>
	</g>
	<linearGradient id="SVGID_21_" gradientUnits="userSpaceOnUse" x1="52.535862" y1="33.6998177" x2="52.7267761" y2="35.4277191">
		<stop  offset="0" style="stop-color:#FFFFFF"/>
		<stop  offset="1" style="stop-color:#FFFFFF;stop-opacity:0"/>
	</linearGradient>
	<path style="fill:url(#SVGID_21_);" d="M53.025692,34.6336288c0,0.3400536-0.2637367,0.8183708-0.53125,0.8183708
		s-0.40625-0.5084267-0.40625-0.8484802s0.6767731-1.0085487,0.9375648-0.9489632
		C53.2027779,33.6949997,53.025692,34.2935791,53.025692,34.6336288z"/>
</g>
<g>
	<g>
		
			<linearGradient id="SVGID_22_" gradientUnits="userSpaceOnUse" x1="54.2356377" y1="63.1785202" x2="56.4798737" y2="63.1785202" gradientTransform="matrix(0.9344508 0.3560923 -0.3560923 0.9344508 19.7660599 -16.3079491)">
			<stop  offset="0" style="stop-color:#231815"/>
			<stop  offset="0.3" style="stop-color:#3E3A39"/>
			<stop  offset="1" style="stop-color:#231815"/>
		</linearGradient>
		<polygon style="fill:url(#SVGID_22_);" points="45.3892593,75.0623322 43.2921295,74.263176 52.6062889,49.8211403 
			54.7034187,50.6202965 		"/>
		<path style="fill:#231815;" d="M45.5341797,75.3847656l-2.5644531-0.9775391l9.4921875-24.9082031l2.5634766,0.9765625
			L45.5341797,75.3847656z M43.6142578,74.1181641l1.6308594,0.6220703l9.1357422-23.9755859l-1.6298828-0.6210938
			L43.6142578,74.1181641z"/>
	</g>
	<g>
		
			<linearGradient id="SVGID_23_" gradientUnits="userSpaceOnUse" x1="55.3361969" y1="37.9992142" x2="55.3361969" y2="46.8057556" gradientTransform="matrix(0.9344508 0.3560923 -0.3560923 0.9344508 19.7660599 -16.3079491)">
			<stop  offset="0.3" style="stop-color:#F7F8F8"/>
			<stop  offset="1" style="stop-color:#9FA0A0"/>
		</linearGradient>
		<path style="fill:url(#SVGID_23_);" d="M58.954895,39.2905426l-1.9891663-0.7580147
			c-0.1393585-0.0531044-0.2953835,0.0168152-0.3484879,0.1561775c0,0-0.620636,1.3508644-1.0044594,2.3580933
			c-0.3838272,1.007225-1.2554474,3.5723038-1.2554474,3.5723038l-0.6837234,1.7942162
			c-0.0531044,0.1393585,0.0168152,0.2953835,0.1561737,0.3484879l1.9891701,0.7580147
			c0.1393585,0.0531044,0.2953835-0.0168152,0.3484879-0.1561737l0.6837234-1.79422c0,0,1.0524788-2.5834236,1.4192238-3.5458336
			c0.3667488-0.9624138,0.840683-2.3845634,0.840683-2.3845634C59.1641769,39.4996719,59.0942535,39.3436508,58.954895,39.2905426z"
			/>
		<path style="fill:#9FA0A0;" d="M55.9150391,47.7871094L55.9150391,47.7871094
			c-0.0634766,0-0.1259766-0.0117188-0.1855469-0.0341797l-1.9882813-0.7578125
			c-0.1298828-0.0488281-0.2333984-0.1455078-0.2900391-0.2734375c-0.0566406-0.1269531-0.0605469-0.2685547-0.0107422-0.3984375
			l0.6835938-1.7929688c0.0058594-0.0175781,0.8740234-2.5732422,1.2548828-3.5722656
			c0.3828125-1.0029297,1.0048828-2.3603516,1.0107422-2.3740234c0.0908203-0.2382813,0.4033203-0.3837891,0.6640625-0.2851563
			l1.9902344,0.7587891c0.1289063,0.0488281,0.2324219,0.1455078,0.2890625,0.2714844
			c0.0576172,0.1269531,0.0615234,0.2685547,0.0117188,0.3984375c-0.0009766,0.0048828-0.4765625,1.4287109-0.8408203,2.3847656
			c-0.3642578,0.9550781-1.4101563,3.5253906-1.4208984,3.5517578l-0.6826172,1.7880859
			C56.3251953,47.6523438,56.1298828,47.7871094,55.9150391,47.7871094z M56.8769531,38.765625
			c-0.0390625,0.0410156-0.6533203,1.3828125-1.03125,2.3701172c-0.3779297,0.9912109-1.2431641,3.5380859-1.2519531,3.5634766
			l-0.6865234,1.8027344l2.0078125,0.7851563c0.0009766,0,0.0136719,0,0.0185547-0.0117188l0.6845703-1.7949219
			c0.0126953-0.03125,1.0566406-2.5966797,1.4189453-3.5458984c0.3603516-0.9462891,0.8320313-2.3603516,0.8369141-2.375
			L56.8769531,38.765625z"/>
	</g>
	<g>
		
			<linearGradient id="SVGID_24_" gradientUnits="userSpaceOnUse" x1="53.7624893" y1="49.6110535" x2="56.9530182" y2="49.6110535" gradientTransform="matrix(0.9344508 0.3560923 -0.3560923 0.9344508 19.7660599 -16.3079491)">
			<stop  offset="0" style="stop-color:#956134"/>
			<stop  offset="0.3" style="stop-color:#C9A063"/>
			<stop  offset="1" style="stop-color:#6A3906"/>
		</linearGradient>
		<path style="fill:url(#SVGID_24_);" d="M56.8539886,45.5705376c0,0-0.3173218,0.1677246-1.3421745-0.2228165
			c-1.0248566-0.3905449-1.1500816-0.7269096-1.1500816-0.7269096c-0.1350708-0.0514717-0.2806549,0.001503-0.3251724,0.1183205
			l-1.3811073,3.6242714c-0.271328,0.7120247-1.6291351,4.7765923-1.5237541,5.3107567c0,0,0.1731834,0.4733505,0.9185295,0.7573814
			c0.7453499,0.2840309,1.1813545,0.0522079,1.1813545,0.0522079c0.4373436-0.3278732,2.1322098-4.2676811,2.405262-4.9842224
			l1.3811073-3.6242714C57.0624695,45.7584343,56.9890594,45.6220093,56.8539886,45.5705376z"/>
		<path style="fill:#40220F;" d="M52.7578125,54.8232422L52.7578125,54.8232422
			c-0.2539063,0-0.5224609-0.0537109-0.796875-0.1582031c-0.8427734-0.3212891-1.0556641-0.8818359-1.0634766-0.9052734
			c-0.1445313-0.7138672,1.40625-5.1777344,1.5244141-5.4853516l1.3808594-3.6240234
			c0.0917969-0.2402344,0.3876953-0.3632813,0.6484375-0.2626953l0.1044922,0.0400391l0.0400391,0.1054688l0,0
			c0.0019531,0,0.171875,0.2636719,1.0048828,0.5810547c0.8320313,0.3164063,1.1523438,0.2265625,1.1523438,0.2275391
			l0.1005859-0.0537109l0.0888672,0.0488281c0.1337891,0.0507813,0.2421875,0.1513672,0.296875,0.2763672
			c0.0507813,0.1142578,0.0546875,0.2392578,0.0117188,0.3515625l-1.3808594,3.6240234
			c-0.1171875,0.3085938-1.9345703,4.6796875-2.4892578,5.0947266
			C53.3261719,54.7158203,53.1162109,54.8232422,52.7578125,54.8232422z M51.3769531,53.625
			c0.0058594,0,0.1679688,0.3466797,0.7617188,0.5732422c0.2177734,0.0830078,0.4257813,0.125,0.6191406,0.125l0,0
			c0.2304688,0,0.3583984-0.0615234,0.359375-0.0625c0.3193359-0.2636719,1.90625-3.8505859,2.2861328-4.8496094
			l1.3574219-3.5634766c-0.2734375,0.0322266-0.7705078-0.0498047-1.3378906-0.2666016
			c-0.6884766-0.2626953-1.0146484-0.5117188-1.1689453-0.6816406l-1.3652344,3.5527344
			C52.5087891,49.4492188,51.3066406,53.171875,51.3769531,53.625L51.3769531,53.625z"/>
	</g>
	<g>
		
			<linearGradient id="SVGID_25_" gradientUnits="userSpaceOnUse" x1="55.3577538" y1="36.593132" x2="55.3577538" y2="39.8421059" gradientTransform="matrix(0.9344508 0.3560923 -0.3560923 0.9344508 19.7660599 -16.3079491)">
			<stop  offset="0.3" style="stop-color:#E83828"/>
			<stop  offset="1" style="stop-color:#C30D23"/>
		</linearGradient>
		<path style="fill:url(#SVGID_25_);" d="M58.1183777,37.4670563c0,0,1.656105,1.1745644,1.3874245,1.8796234
			c-0.2686768,0.7050591-0.8186531,1.7172852-1.0124245,1.6203766c-0.1937675-0.0969124-0.357502-1.1734848-0.5388031-1.2425728
			s-0.7423134,0.8741608-0.9236145,0.8050728c-0.1812973-0.069088,0.1456528-1.1245995,0.0046425-1.1783371
			c-0.1410141-0.0537338-0.2819519,0.3324318-0.5296516,0.2364922c-0.2476959-0.0959358-0.1120377-1.0346985,0.003109-1.3368645
			C56.7086487,37.7270889,57.8010254,37.6339188,58.1183777,37.4670563z"/>
		<path style="fill:#800817;" d="M58.4628906,41.2236328l-0.0810547-0.0332031
			c-0.1855469-0.0927734-0.265625-0.3330078-0.4033203-0.7871094c-0.0283203-0.0947266-0.0683594-0.2265625-0.1064453-0.3310547
			c-0.0634766,0.0693359-0.1357422,0.1542969-0.1884766,0.2167969c-0.2685547,0.3154297-0.4296875,0.4941406-0.6318359,0.4941406
			l-0.1103516-0.0205078c-0.2841797-0.1064453-0.2304688-0.4638672-0.1630859-0.9169922
			c0.0019531-0.0117188,0.0039063-0.0244141,0.0058594-0.0371094c-0.1005859,0.0458984-0.2412109,0.0625-0.3681641,0.0126953
			c-0.5322266-0.2050781-0.2041016-1.4931641-0.140625-1.6591797c0.1865234-0.4882813,0.8515625-0.6660156,1.3378906-0.7949219
			c0.1572266-0.0419922,0.3193359-0.0849609,0.3886719-0.1220703l0.1357422-0.0712891l0.125,0.0888672
			c0.3027344,0.2148438,1.7978516,1.3300781,1.4765625,2.1728516c-0.0273438,0.0732422-0.6865234,1.7871094-1.2177734,1.7880859
			H58.4628906z M57.9335938,39.4707031l0.1103516,0.0205078c0.1953125,0.0742188,0.2753906,0.3144531,0.4130859,0.7675781
			c0.03125,0.1015625,0.0742188,0.2441406,0.1152344,0.3554688c0.1884766-0.2509766,0.4941406-0.8164063,0.7001953-1.3564453
			c0.1220703-0.3212891-0.5820313-1.0507813-1.1884766-1.5068359c-0.0986328,0.0341797-0.2148438,0.0654297-0.3417969,0.0986328
			c-0.3603516,0.0966797-0.9042969,0.2412109-1,0.4902344c-0.0947266,0.2490234-0.1503906,0.7626953-0.1162109,0.9775391
			c0.0146484-0.0146484,0.0332031-0.0322266,0.046875-0.0449219c0.0810547-0.0791016,0.1826172-0.1757813,0.3349609-0.1757813
			l0.1162109,0.0214844c0.2548828,0.0966797,0.2128906,0.3769531,0.1494141,0.8017578
			c-0.0048828,0.0292969-0.0097656,0.0615234-0.0146484,0.0957031c0.015625-0.0175781,0.0302734-0.0351563,0.0429688-0.0507813
			C57.5703125,39.6494141,57.7314453,39.4707031,57.9335938,39.4707031z"/>
	</g>
	<linearGradient id="SVGID_26_" gradientUnits="userSpaceOnUse" x1="57.353878" y1="38.0892105" x2="57.4509048" y2="38.9673805">
		<stop  offset="0" style="stop-color:#FFFFFF"/>
		<stop  offset="1" style="stop-color:#FFFFFF;stop-opacity:0"/>
	</linearGradient>
	<path style="fill:url(#SVGID_26_);" d="M57.8609161,38.6308403c0,0.2561073-0.3467026,0.3476372-0.5538101,0.3476372
		s-0.4011383-0.2076149-0.4011383-0.4637222s0.6082458-0.4637222,0.8153496-0.4637222
		C57.9284248,38.051033,57.8609161,38.374733,57.8609161,38.6308403z"/>
</g>
</svg>
