<?xml version="1.0" encoding="utf-8"?>
<!-- Generator: Adobe Illustrator 18.0.0, SVG Export Plug-In . SVG Version: 6.00 Build 0)  -->
<!DOCTYPE svg PUBLIC "-//W3C//DTD SVG 1.1//EN" "http://www.w3.org/Graphics/SVG/1.1/DTD/svg11.dtd">
<svg version="1.1" id="レイヤー_1" xmlns="http://www.w3.org/2000/svg" xmlns:xlink="http://www.w3.org/1999/xlink" x="0px"
	 y="0px" width="64px" height="64px" viewBox="0 0 64 64" style="enable-background:new 0 0 64 64;" xml:space="preserve">
<g>
	<g>
		<g>
			<path style="fill:#BA713A;" d="M46.2056999,32.3353996c0,0-2.2840004,2.6903-4.7097015,4.2406006
				c-8.0507965,5.1456985-8.7559967,9.4956017-10.8561993,7.3270988c-2.1606998-0.3381996-1.9080982-3.8857994,0.1049004-4.6791992
				c0,0,0.9780998-0.6963005,1.9824009-1.0578003c3.6500015-1.0619011,7.261898-2.7082977,10.1032982-4.9273987
				C42.8303986,33.2387009,44.5306015,31.2290001,46.2056999,32.3353996z"/>
			<path style="fill:#604C3F;" d="M31.6928711,44.5986328c-0.3686523,0-0.7231445-0.1835938-1.1142578-0.5791016
				c-0.8691406-0.1542969-1.4516602-0.8330078-1.5615234-1.8251953c-0.1245117-1.1259766,0.4228516-2.5908203,1.6816406-3.0869141
				c0.0136719-0.0146484,0.9770508-0.6962891,1.9858398-1.0585938c3.9482422-1.1494141,7.4277344-2.8457031,10.0683594-4.9091797
				c0.0263672-0.0341797,1.0791016-1.2617188,2.3818359-1.2617188c0.4013672,0,0.7851563,0.1186523,1.140625,0.3530273
				l0.1171875,0.078125l-0.0908203,0.1074219c-0.0234375,0.0268555-2.3242188,2.722168-4.7382813,4.2651367
				c-3.6699219,2.3457031-5.8242188,4.5410156-7.2509766,5.9951172C33.1367188,43.875,32.4267578,44.5986328,31.6928711,44.5986328z
				 M45.1347656,32.1279297c-1.1875,0-2.1992188,1.1787109-2.2089844,1.1914063
				c-2.6845703,2.1005859-6.1923828,3.8115234-10.1635742,4.9667969c-0.9697266,0.3486328-1.9355469,1.0322266-1.9453125,1.0390625
				c-1.1699219,0.4658203-1.6655273,1.8076172-1.5512695,2.8417969c0.0996094,0.9013672,0.6074219,1.4892578,1.3935547,1.6132813
				l0.0410156,0.0058594l0.0292969,0.0302734c0.3520508,0.3632813,0.6582031,0.5322266,0.9633789,0.5322266
				c0.6289063,0,1.3110352-0.6953125,2.4418945-1.8476563c1.4335938-1.4609375,3.6005859-3.6699219,7.2939453-6.0302734
				c2.1054688-1.3457031,4.1289063-3.5849609,4.5859375-4.105957
				C45.7363281,32.2075195,45.4414063,32.1279297,45.1347656,32.1279297z"/>
		</g>
		<g>
			<path style="fill:#050C33;" d="M44.8993988,60.5653992l-1.1434975-13.0467987l0.2821999-2.9277992
				c3.7899971,0.9120979,8.0653992,0.7040977,11.3886986,0.2665977l0.1347008,2.6612015l-0.3828011,13.1268997
				c1.7432022,0.5849991,1.1767998,3.0400009,1.1767998,3.0400009h-1.2656975h-3.8339005l-1-15.6669006l-0.892601-0.1669998
				l-1,15.8339005h-3.1903992h-3.9169998C39.7538986,59.1240005,42.7440987,59.6875,44.8993988,60.5653992z"/>
			<path style="fill:#604C3F;" d="M56.4550781,63.8105469h-5.3164063l-0.0078125-0.1171875l-0.9931641-15.5693359L49.4794922,48
				l-0.9990234,15.8105469h-7.3154297l-0.0283203-0.0859375c-0.5126953-1.5585938-0.5449219-2.6650391-0.09375-3.2880859
				c0.5605469-0.7744141,1.84375-0.7910156,3.7138672-0.0625l-1.1259766-12.8447266l0.296875-3.09375l0.1396484,0.0341797
				c3.0976563,0.7460938,7.0214844,0.8330078,11.3427734,0.2636719l0.1347656-0.0175781l0.1416016,2.796875l-0.3798828,13.0458984
				c1.7226563,0.6650391,1.1767578,3.1298828,1.1708984,3.1552734L56.4550781,63.8105469z M51.3730469,63.5605469h4.8789063
				c0.078125-0.4482422,0.3115234-2.3183594-1.1132813-2.796875l-0.0878906-0.0292969l0.0029297-0.0927734l0.3828125-13.1269531
				l-0.1279297-2.515625c-4.2363281,0.5458984-8.0869141,0.4619141-11.1601563-0.2539063l-0.2685547,2.7851563l1.1621094,13.2285156
				l-0.1894531-0.0771484c-1.8339844-0.7470703-3.1054688-0.7910156-3.6074219-0.0986328
				c-0.3925781,0.5439453-0.3583984,1.5449219,0.1015625,2.9775391h6.8994141l1.0009766-15.8574219l1.1269531,0.2099609
				l0.0068359,0.0976563L51.3730469,63.5605469z"/>
		</g>
		<g>
			<path style="fill:#BA713A;" d="M54.857399,30.8901005c0,0,2.2001991-0.405201,3.8506012,6.2525005
				c1.6514015,6.6562004,1.7461014,11.0937004,0.4453011,11.5555992c-1.2998009,0.461998-2.8339996,2.6875-3.8408012-0.5810013
				c0,0-1.732399-0.9169998-0.2011986-2.2383003c2.8526001-1.1815987,2.1513977-10.0673981,0.5292969-11.5995979
				C55.6405983,34.2793007,53.1846008,32.0014992,54.857399,30.8901005z"/>
			<path style="fill:#604C3F;" d="M56.7509766,49.9921875c-0.6679688,0-1.1591797-0.5693359-1.5429688-1.7910156
				c-0.1748047-0.1035156-0.7773438-0.5019531-0.8476563-1.1201172c-0.0488281-0.4345703,0.1767578-0.8710938,0.6689453-1.296875
				l0.0341797-0.0205078c1.0029297-0.4160156,1.4570313-1.8222656,1.6601563-2.9277344
				c0.5947266-3.2304688-0.1542969-7.5078125-1.1689453-8.4658203c-0.0605469-0.0556641-1.4960938-1.4023438-1.4013672-2.5771484
				c0.0332031-0.4106445,0.2470703-0.7490234,0.6347656-1.0068359l0.046875-0.019043c0,0,0.0332031-0.0068359,0.0966797-0.0068359
				c0.5449219,0,2.4365234,0.4580078,3.8974609,6.3520508C60.46875,43.71875,60.6123047,48.3125,59.1953125,48.8164063
				c-0.2958984,0.1044922-0.6054688,0.3056641-0.9326172,0.5185547
				C57.7666016,49.6582031,57.2539063,49.9921875,56.7509766,49.9921875z M55.1787109,45.9863281
				c-0.4169922,0.3642578-0.6083984,0.7226563-0.5693359,1.0664063c0.0654297,0.5791016,0.7548828,0.9501953,0.7617188,0.9541016
				l0.0458984,0.0244141l0.0146484,0.0488281c0.3447266,1.1181641,0.7763672,1.6621094,1.3193359,1.6621094
				c0.4287109,0,0.9101563-0.3134766,1.375-0.6162109c0.3251953-0.2119141,0.6621094-0.4306641,0.9853516-0.5458984
				c1.0205078-0.3623047,1.2919922-4.0859375-0.5244141-11.4072266c-1.5019531-6.0585938-3.4072266-6.1816406-3.6855469-6.1616211
				c-0.3085938,0.2128906-0.4726563,0.4755859-0.4990234,0.8017578c-0.0849609,1.0537109,1.3095703,2.3618164,1.3232422,2.3745117
				c1.1552734,1.0917969,1.8066406,5.640625,1.2441406,8.6933594
				C56.6640625,44.5429688,56.0449219,45.6162109,55.1787109,45.9863281z"/>
		</g>
		<g>
			<path style="fill:#050505;" d="M42.6875,33.1123009c1.3594017-2.6958008,2.7187996-2.6958008,2.7187996-2.6958008
				l2.7578011-0.7763996h3.7597008L54.6973,30.4179993c0.2714996,0.0341015,1.4580002,0.3154011,2.9902,2.5068016
				l-2.5937004,2.0937996l-0.4112015-0.4522018l0.7442017,10.2910004c-3.3232994,0.4375-7.5987015,0.6455002-11.3886986-0.2665977
				l1.2431984-10.8222008l-0.4687996,1.125C43.3437996,34.3311005,42.6875,33.1123009,42.6875,33.1123009z"/>
			<path style="fill:#604C3F;" d="M50.0361328,45.3554688c-2.2265625,0-4.2539063-0.2167969-6.0273438-0.6435547
				l-0.1074219-0.0253906l1.1542969-10.0527344l-0.1748047,0.4199219l-0.1132813-0.0429688
				c-1.4951172-0.5732422-2.1621094-1.7880859-2.1904297-1.8388672l-0.0302734-0.0576172l0.0292969-0.0585938
				c1.3076172-2.5922852,2.6279297-2.7539063,2.8105469-2.7636719l2.7773438-0.7768555l3.7939453,0.0048828l2.7734375,0.777832
				c0.3125,0.0375977,1.5136719,0.3457031,3.0585938,2.5551758l0.0664063,0.0957031l-2.7763672,2.2407227l-0.2470703-0.2714844
				l0.7265625,10.0478516l-0.1162109,0.015625C53.5576172,45.2294922,51.7382813,45.3554688,50.0361328,45.3554688z
				 M44.1748047,44.4951172c3.0527344,0.7158203,6.8945313,0.7988281,11.1191406,0.2539063l-0.7617188-10.5341797
				l0.5751953,0.6328125l2.4101563-1.9462891c-1.4912109-2.0922852-2.6220703-2.3325195-2.8359375-2.359375L51.90625,29.7651367
				h-3.7246094L45.40625,30.5415039c-0.0117188,0-1.2871094,0.0493164-2.5761719,2.565918
				c0.1425781,0.2324219,0.7568359,1.1396484,1.9140625,1.6240234l0.7626953-1.8286133L44.1748047,44.4951172z"/>
		</g>
	</g>
	<g>
		<g>
			<path style="fill:#231815;" d="M54.0107002,4.10742c0,0,5.2392998-0.9990199,8.3642998,5.3935604
				c3.125,6.3926201-0.4453011,13.8769188-3.9101982,15.5097198L54.0107002,4.10742z"/>
			<path style="fill:#604C3F;" d="M58.375,25.190918l-0.0322266-0.1542969l-4.4804688-21.027832l0.125-0.0239258
				C54,3.9824219,54.3017578,3.9257813,54.8027344,3.9257813c1.4990234,0,5.2490234,0.5380859,7.6845703,5.5205078
				c1.9804688,4.050293,1.1103516,7.9716797,0.4160156,9.9487305c-0.9511719,2.7070313-2.6318359,4.9023438-4.3847656,5.7290039
				L58.375,25.190918z M54.1611328,4.2119141l4.3925781,20.6152344c1.6210938-0.8408203,3.2236328-2.9829102,4.1132813-5.5151367
				c0.6816406-1.9399414,1.5361328-5.7875977-0.4042969-9.7563477c-2.3740234-4.8554688-6.0078125-5.3798828-7.4599609-5.3798828
				C54.5117188,4.1757813,54.2900391,4.1958008,54.1611328,4.2119141z"/>
		</g>
		<g>
			<path style="fill:#BA713A;" d="M40.9794998,19.0337009c0,0-2.0673981-3.086401-2.607399,0.9013996
				c-0.5401001,3.9877987,2.2782974,5.0361004,2.8163986,3.533699"/>
			<path style="fill:#604C3F;" d="M40.2939453,24.2485352c-0.1015625,0-0.2060547-0.0126953-0.3144531-0.0390625
				c-0.8994141-0.2197266-2.1035156-1.543457-1.7314453-4.2910156c0.1767578-1.3061523,0.5283203-2.0029297,1.0751953-2.1293945
				c0.8330078-0.1962891,1.7226563,1.1196289,1.7597656,1.175293l-0.2070313,0.1391602
				c-0.2294922-0.3413086-0.9423828-1.2006836-1.4970703-1.0708008c-0.4208984,0.0976563-0.7265625,0.7612305-0.8828125,1.9189453
				c-0.3496094,2.5839844,0.7314453,3.8168945,1.5429688,4.0151367c0.4785156,0.1147461,0.8710938-0.0917969,1.03125-0.5400391
				l0.2363281,0.0839844C41.1386719,23.9794922,40.7568359,24.2485352,40.2939453,24.2485352z"/>
		</g>
		<g>
			<path style="fill:#BA713A;" d="M51.4990005,27.8817997c-0.0361023,0.5151997,0.0761986,1.1021004,0.4248009,1.7583008
				c-3.1211014,3.3785-3.7597008,0.3218002-3.7597008,0.3218002s0.0487976-0.875,0-2.0644016
				C48.1299019,27.0435009,51.6240005,26.1103992,51.4990005,27.8817997z"/>
			<path style="fill:#604C3F;" d="M49.4511719,31.3549805c-1.1113281,0-1.40625-1.3540039-1.4091797-1.3676758l-0.0039063-0.0161133
				l0.0009766-0.0161133c0.0009766-0.0087891,0.0478516-0.8833008,0-2.0522461
				c-0.0058594-0.1474609,0.0605469-0.2944336,0.1982422-0.4370117c0.3857422-0.4013672,1.2851563-0.7163086,2.0488281-0.7163086
				c0.4902344,0,0.8701172,0.1293945,1.0986328,0.3740234c0.1806641,0.1938477,0.2607422,0.4521484,0.2392578,0.7670898
				c-0.0380859,0.5380859,0.0996094,1.1069336,0.4101563,1.690918l0.0419922,0.078125l-0.0605469,0.0654297
				C51.0166016,30.8066406,50.1533203,31.3549805,49.4511719,31.3549805z M48.2900391,29.9511719
				c0.0332031,0.1425781,0.2998047,1.1538086,1.1611328,1.1538086c0.6171875,0,1.3974609-0.5,2.3212891-1.4853516
				c-0.3037109-0.5986328-0.4375-1.1855469-0.3984375-1.746582c0.0175781-0.2431641-0.0410156-0.4379883-0.1728516-0.5791016
				c-0.2255859-0.2431641-0.6230469-0.2944336-0.9150391-0.2944336c-0.6923828,0-1.5302734,0.2871094-1.8691406,0.6396484
				c-0.0605469,0.0629883-0.1318359,0.1582031-0.1279297,0.253418
				C48.3339844,28.9824219,48.2958984,29.8212891,48.2900391,29.9511719z"/>
		</g>
		<g>
			<path style="fill:#BA713A;" d="M38.5,14.8319998c0,0,0.5596008,2.0971994,0.75,4.4243002
				c0.1943016,2.3775005-0.5419998,4.4981003,0.8213005,5.8614006c1.6445007,1.6444988,4.6307983,3.4281998,9.3446999,3.4281998
				s7.7089996-2.1152,9.8759995-4.3330002c1.625-1.6625996,1.4141006-9.3809004,1.4141006-9.3809004
				S61.9580002,4.5463901,48.5,4.5463901C37.5,4.5463901,38.5,14.8319998,38.5,14.8319998z"/>
			<path style="fill:#604C3F;" d="M49.4160156,28.6708984c-5.1933594,0-8.1386719-2.1708984-9.4335938-3.4648438
				c-0.9746094-0.9755859-0.9199219-2.2910156-0.8554688-3.8139648c0.0292969-0.6831055,0.0585938-1.3896484-0.0019531-2.1254883
				c-0.1865234-2.2895508-0.7402344-4.3813477-0.7460938-4.4023438c-0.0078125-0.0644531-0.4023438-4.4916992,2.3642578-7.5410156
				C42.4912109,5.3979492,45.1005859,4.4213867,48.5,4.4213867c4.6191406,0,8.0253906,1.2011719,10.1230469,3.5698242
				c2.6435547,2.9848633,2.2119141,6.8173828,2.2070313,6.855957c0.0097656,0.2988281,0.1943359,7.7719727-1.4482422,9.453125
				C57.5478516,26.1762695,54.5205078,28.6708984,49.4160156,28.6708984z M48.5,4.6713867
				c-3.3251953,0-5.8720703,0.9482422-7.5703125,2.8183594c-2.6923828,2.9658203-2.3095703,7.2871094-2.3056641,7.3300781
				c0.0019531,0.0009766,0.5615234,2.1147461,0.7509766,4.4262695c0.0605469,0.7514648,0.03125,1.4658203,0.0019531,2.15625
				c-0.0615234,1.4643555-0.1152344,2.7290039,0.7832031,3.6269531c1.2666016,1.2666016,4.1533203,3.3916016,9.2558594,3.3916016
				c5.0097656,0,7.984375-2.4516602,9.7861328-4.2954102c1.5703125-1.605957,1.3808594-9.2133789,1.3789063-9.2900391
				c0.0058594-0.0556641,0.421875-3.7822266-2.1474609-6.6806641C56.3847656,5.8432617,53.0429688,4.6713867,48.5,4.6713867z"/>
		</g>
		<g>
			<g>
				<ellipse style="fill:#231815;" cx="52.5" cy="18.5463982" rx="1" ry="3"/>
				<circle style="fill:#F7F8F8;" cx="52.9794998" cy="17.0668983" r="0.4795"/>
			</g>
			<g>
				<ellipse style="fill:#231815;" cx="42.5" cy="18.5463982" rx="1" ry="3"/>
				<circle style="fill:#F7F8F8;" cx="42.9794998" cy="17.0668983" r="0.4795"/>
			</g>
		</g>
		<g>
			<path style="fill:#BA713A;" d="M59,19.0337009c0,0,2.6825981-3.086401,3.3838005,0.9013996
				c0.7011986,3.9877987-2.9570007,5.0361004-3.6553001,3.533699"/>
			<path style="fill:#604C3F;" d="M59.8984375,24.2475586c-0.5800781,0-1.0673828-0.2612305-1.2832031-0.7260742
				l0.2265625-0.1054688c0.2392578,0.5146484,0.9111328,0.7138672,1.6347656,0.4887695
				c1.1689453-0.3676758,2.1738281-1.730957,1.7841797-3.9482422c-0.1962891-1.1171875-0.5625-1.7578125-1.0888672-1.9042969
				c-0.9238281-0.25-2.0664063,1.050293-2.0771484,1.0634766l-0.1894531-0.1640625
				c0.0517578-0.059082,1.2705078-1.4306641,2.3330078-1.140625c0.6269531,0.1743164,1.0537109,0.8813477,1.2685547,2.1025391
				c0.4160156,2.3662109-0.6826172,3.8295898-1.9550781,4.2294922
				C60.3271484,24.2138672,60.1064453,24.2475586,59.8984375,24.2475586z"/>
		</g>
		<g>
			<path style="fill:#231815;" d="M37.4873009,10.4580002C40.5049019,2.68945,51.5,0.625,54.8232002,4.1308599
				c2.2139015,0.2221704,4.9423981,1.7255902,6.6503983,6.3505397c2.7373009,7.4131012-3.3378983,12.9874001-3.3378983,12.9874001
				s-0.9735985-5.7115002-1.6190987-7.5864992C56,18.125,54.5684013,18.3379002,54.5684013,18.3379002
				s-0.6895027-2.5180998-1.7745018-5.1133003C51.7450981,16.5879002,49.0625,17.8945007,49.0625,17.8945007
				S46.9375,16,46.4286995,13.5625c-0.6758003,2.0352001-0.0517006,3.9839001-0.0517006,3.9839001
				S42.5,17.0669003,41.5028992,13.5180998c-1.1317978,3.5215006-3.2411995,7.8270998-3.2411995,7.8270998
				S35.3955002,15.8432999,37.4873009,10.4580002z"/>
			<path style="fill:#604C3F;" d="M58.0507813,23.7163086l-0.0380859-0.2265625
				c-0.0087891-0.0532227-0.8574219-5.0112305-1.4873047-7.1621094c-0.5976563,1.9121094-1.8808594,2.1254883-1.9384766,2.1337891
				l-0.109375,0.0166016l-0.0292969-0.1069336c-0.0068359-0.0244141-0.6455078-2.3417969-1.6416016-4.7885742
				c-1.1181641,3.1411133-3.6630859,4.4116211-3.6894531,4.4243164l-0.0751953,0.0366211l-0.0625-0.0556641
				c-0.0830078-0.0737305-1.9091797-1.7216797-2.5585938-3.9443359c-0.4414063,1.8056641,0.0693359,3.4472656,0.0751953,3.4648438
				l0.0595703,0.1860352l-0.1943359-0.0239258c-0.0380859-0.0048828-3.6953125-0.4941406-4.8603516-3.746582
				c-1.1445313,3.4174805-3.1064453,7.4345703-3.1269531,7.4765625l-0.1083984,0.222168l-0.1152344-0.2197266
				c-0.0283203-0.0551758-2.8681641-5.6142578-0.7792969-10.9902344c2.0546875-5.2895508,7.8671875-8.0576172,12.546875-8.0576172
				c2.1660156,0,3.9267578,0.5878906,4.9638672,1.65625c1.7089844,0.1850586,4.8066406,1.2744141,6.7089844,6.4267578
				c2.734375,7.40625-3.3095703,13.0664063-3.3701172,13.1230469L58.0507813,23.7163086z M56.4931641,15.4291992
				l0.1416016,0.4125977c0.5742188,1.668457,1.390625,6.2602539,1.5830078,7.3701172
				c0.9521484-0.9731445,5.5576172-6.137207,3.1386719-12.6870117c-1.8730469-5.0717773-4.9052734-6.1049805-6.5458984-6.2695313
				l-0.0458984-0.0048828l-0.0322266-0.0336914c-0.9853516-1.0390625-2.6953125-1.6118164-4.8144531-1.6118164
				c-4.5947266,0-10.2998047,2.7128906-12.3144531,7.8984375c-1.8085938,4.65625,0.15625,9.4589844,0.6582031,10.5532227
				c0.4521484-0.9438477,2.1552734-4.5693359,3.1220703-7.5766602l0.1269531-0.3955078l0.1123047,0.3999023
				c0.8388672,2.9838867,3.8007813,3.7529297,4.5800781,3.9057617c-0.1396484-0.5488281-0.4580078-2.1665039,0.1074219-3.8671875
				l0.1455078-0.4399414l0.0947266,0.4541016c0.4462891,2.1347656,2.1777344,3.8691406,2.53125,4.2050781
				c0.4375-0.2412109,2.6708984-1.5976563,3.5927734-4.5546875l0.1015625-0.328125l0.1328125,0.3168945
				c0.9443359,2.2597656,1.5976563,4.4863281,1.7470703,5.012207c0.3300781-0.0981445,1.3251953-0.5380859,1.7382813-2.3339844
				L56.4931641,15.4291992z"/>
		</g>
		<path style="fill:#231815;" d="M49.4160004,26.4501991c1.4931984,0,2.8418007-0.5707989,3.2783012-1.1894989
			c0.1581993-0.2259998,0.1044998-0.5375996-0.1211014-0.696701c-0.225502-0.1581993-0.5371017-0.1054993-0.6972008,0.1206017
			c-0.3115005,0.4432983-2.8466988,1.6903992-4.7538986,0.4242992c-0.2285004-0.1518993-0.4561005-0.1851006-0.6104012,0.0464001
			c-0.152298,0.2299995-0.089798,0.3549995,0.1406021,0.5077991C47.5059013,26.2299995,48.4883003,26.4501991,49.4160004,26.4501991
			z"/>
		<ellipse style="fill:#7C3F16;" cx="54.9472504" cy="23.0551987" rx="2.3740499" ry="1.5088"/>
		<ellipse style="fill:#7C3F16;" cx="41.2397499" cy="23.0551987" rx="1.73975" ry="1.5088"/>
		
			<ellipse transform="matrix(-0.9830607 0.1832803 -0.1832803 -0.9830607 101.893631 8.9288883)" style="fill:#FFFFFF;" cx="50.5341988" cy="9.1730995" rx="1.4026601" ry="2.7913303"/>
		
			<ellipse transform="matrix(-0.983069 0.1832358 -0.1832358 -0.983069 98.3235245 9.9168568)" style="fill:#FFFFFF;" cx="48.7036018" cy="9.5009804" rx="0.7594584" ry="1.5112187"/>
		
			<ellipse transform="matrix(-0.9830667 0.1832477 -0.1832477 -0.9830667 108.6598587 7.8907914)" style="fill:#FFFFFF;" cx="53.9653511" cy="8.9658203" rx="0.7594092" ry="1.5112685"/>
	</g>
</g>
<g>
</g>
<g>
</g>
<g>
</g>
<g>
</g>
<g>
</g>
<g>
</g>
</svg>
