<?xml version="1.0" encoding="utf-8"?>
<!-- Generator: Adobe Illustrator 16.0.0, SVG Export Plug-In . SVG Version: 6.00 Build 0)  -->
<!DOCTYPE svg PUBLIC "-//W3C//DTD SVG 1.1//EN" "http://www.w3.org/Graphics/SVG/1.1/DTD/svg11.dtd">
<svg version="1.1" id="Layer_51" xmlns="http://www.w3.org/2000/svg" xmlns:xlink="http://www.w3.org/1999/xlink" x="0px" y="0px"
	 width="64px" height="64px" viewBox="0 0 64 64" enable-background="new 0 0 64 64" xml:space="preserve">
<path fill-rule="evenodd" clip-rule="evenodd" fill="#330100" d="M16.55,26.774c0.051-1.382,0.408-2.642,1.385-3.652
	c1.311-1.355,3.212-1.327,4.507,0.042c1.716,1.814,1.745,5.194,0.062,7.053c-1.319,1.455-3.321,1.47-4.649,0.021
	C16.957,29.259,16.622,28.061,16.55,26.774z"/>
<path fill-rule="evenodd" clip-rule="evenodd" fill="#330100" d="M47.859,26.718c-0.062,1.321-0.399,2.554-1.336,3.553
	c-1.318,1.405-3.275,1.396-4.586-0.005c-1.709-1.83-1.719-5.216-0.02-7.058c1.339-1.452,3.321-1.455,4.65,0.013
	C47.46,24.204,47.797,25.406,47.859,26.718z"/>
<path fill-rule="evenodd" clip-rule="evenodd" fill="none" stroke="#330100" stroke-width="3" stroke-linecap="round" stroke-linejoin="round" stroke-miterlimit="10" d="
	M27.795,49.25c0,0,3.96-5.352,8.507,0"/>
<path fill-rule="evenodd" clip-rule="evenodd" fill="none" stroke="#330100" stroke-width="3" stroke-linecap="round" stroke-linejoin="round" stroke-miterlimit="10" d="
	M38.795,14.95c0,0,3.299-5.784,8.448-1.009"/>
<path fill-rule="evenodd" clip-rule="evenodd" fill="none" stroke="#330100" stroke-width="3" stroke-linecap="round" stroke-linejoin="round" stroke-miterlimit="10" d="
	M15.795,18.851c0,0,3.961-5.352,8.508,0"/>
<circle opacity="0.5" fill-rule="evenodd" clip-rule="evenodd" fill="#F5F5F5" cx="44.25" cy="26.7" r="9.25"/>
<circle fill-rule="evenodd" clip-rule="evenodd" fill="none" stroke="#3E3A39" stroke-width="2" stroke-linecap="round" stroke-linejoin="round" stroke-miterlimit="10" cx="44.25" cy="26.7" r="9.25"/>
<path fill-rule="evenodd" clip-rule="evenodd" fill="none" stroke="#717071" stroke-linecap="round" stroke-linejoin="round" stroke-miterlimit="10" d="
	M35,26.7c0-5.108,4.142-9.25,9.25-9.25s9.25,4.142,9.25,9.25"/>
<path fill-rule="evenodd" clip-rule="evenodd" fill="none" stroke="#F5F5F5" stroke-linecap="round" stroke-linejoin="round" stroke-miterlimit="10" d="
	M37.842,25.962c0-3.188,2.869-5.771,6.408-5.771s6.407,2.584,6.407,5.771"/>
<path fill="#3E3A39" d="M56.511,56.117c-0.006-0.22-0.011-0.433-0.011-0.634v-28.5c0-0.552-0.447-1-1-1s-1,0.448-1,1v28.5
	c0,0.217,0.006,0.445,0.011,0.683c0.027,1.125,0.059,2.399-0.535,3.008c-0.319,0.327-0.872,0.493-1.643,0.493
	c-0.796,0-1.367-0.207-1.747-0.632c-0.622-0.697-0.639-1.907-0.594-2.31c0.02-0.163-0.011-0.316-0.063-0.461
	c-0.625,0.464-1.266,0.906-1.926,1.321c0.064,0.806,0.305,1.893,1.079,2.768c0.771,0.872,1.865,1.313,3.251,1.313
	c1.329,0,2.364-0.369,3.074-1.097C56.589,59.359,56.546,57.562,56.511,56.117z"/>
<g>
	<path fill="#717071" d="M56,57.25V26.983c0-0.276-0.225-0.5-0.5-0.5s-0.5,0.224-0.5,0.5V57.25H56z"/>
</g>
</svg>
