<?xml version="1.0" encoding="utf-8"?>
<!-- Generator: Adobe Illustrator 18.0.0, SVG Export Plug-In . SVG Version: 6.00 Build 0)  -->
<!DOCTYPE svg PUBLIC "-//W3C//DTD SVG 1.1//EN" "http://www.w3.org/Graphics/SVG/1.1/DTD/svg11.dtd">
<svg version="1.1" id="レイヤー_1" xmlns="http://www.w3.org/2000/svg" xmlns:xlink="http://www.w3.org/1999/xlink" x="0px"
	 y="0px" width="64px" height="64px" viewBox="0 0 64 64" style="enable-background:new 0 0 64 64;" xml:space="preserve">
<g>
	<g>
		<g>
			<linearGradient id="SVGID_1_" gradientUnits="userSpaceOnUse" x1="32" y1="47.4821777" x2="32" y2="65.3651123">
				<stop  offset="0" style="stop-color:#C9BC9C"/>
				<stop  offset="1" style="stop-color:#A48B78"/>
			</linearGradient>
			<path style="fill:url(#SVGID_1_);" d="M23.9396362,47.4821777c-5.4075928,1.6079712-12.0395508,2.2511597-12.0395508,9.0046387
				l-0.124939,8.8782959h40.449707l-0.124939-8.8782959c0-6.753479-6.631958-7.3966675-12.0395508-9.0046387
				C40.0603638,47.4821777,37.6666679,52,32,52S23.9396362,47.4821777,23.9396362,47.4821777z"/>
			<path style="fill:#604C3F;" d="M52.4785156,65.6152344h-40.956543l0.1279297-9.1328125
				c0-5.9912109,5.0288086-7.3173828,9.8920898-8.6005859c0.7851563-0.2070313,1.5678711-0.4140625,2.3261719-0.6386719
				l0.1958008-0.0585938l0.0961914,0.1806641C24.1835938,47.4091797,26.5581055,51.75,32,51.75
				c5.453125,0,7.8164063-4.3408203,7.8398438-4.3847656l0.0957031-0.1806641l0.1962891,0.0585938
				c0.7587891,0.2246094,1.5410156,0.4316406,2.3261719,0.6386719c4.8632813,1.2822266,9.8916016,2.609375,9.8916016,8.6044922
				L52.4785156,65.6152344z M12.0288086,65.1152344h39.9418945l-0.1210938-8.625c0-5.6142578-4.6240234-6.8339844-9.5195313-8.125
				c-0.7255859-0.1914063-1.4492188-0.3828125-2.1533203-0.5878906C39.6474609,48.6298828,37.0996094,52.25,32,52.25
				c-5.0991211,0-7.6474609-3.6201172-8.1767578-4.4726563c-0.7045898,0.2050781-1.4282227,0.3964844-2.1538086,0.5878906
				c-4.8955078,1.2910156-9.5195313,2.5107422-9.5195313,8.1210938L12.0288086,65.1152344z"/>
		</g>
	</g>
</g>
<g>
	<g>
		<path style="fill:#C30D23;" d="M19.6719761,20.375c0,0-0.2030239,7.5358753,0,13.1429367S20.5069141,52.5625,31.9097061,52.5625
			c4.0603828,0,4.9878731-2.8439255,6.3591995-4.0643578c2.4797783-2.2069168,3.7884903-3.0643921,9.1028595-0.2720947
			c0,0,2.959877,0.9003906,3.2003059,3.5559196c0,0-2.809845-1.0944672-4.9409599,2.5930328C43.5,58.0625,43.625,65,30.0625,65
			c-15.2044563,0-15.9925585-13.9148636-15.5550585-26.8011818s-0.0823479-18.880209-0.0823479-18.880209L19.6719761,20.375z"/>
		<path style="fill:#590610;" d="M30.0625,65.25c-4.6772461,0-8.3427734-1.3388672-10.8945313-3.9785156
			c-4.8344727-5.0009766-5.2172852-14.0488281-4.9106445-23.0810547
			c0.4321289-12.7182617-0.0756836-18.7900391-0.0810547-18.8500977l-0.0288086-0.3325195l5.7797852,1.1635742l-0.0053711,0.2104492
			c-0.0019531,0.0751953-0.2006836,7.5917969,0,13.1269531C20.1079102,38.6513672,20.6030273,52.3125,31.909668,52.3125
			c2.9545898,0,4.1430664-1.5185547,5.1928711-2.8583984c0.3339844-0.4277344,0.6503906-0.8320313,1-1.1425781
			c1.4238281-1.2675781,2.4785156-2.0976563,4.0996094-2.0976563c1.2988281,0,2.9287109,0.5517578,5.2861328,1.7900391
			c0.0839844,0.0214844,3.0800781,0.9638672,3.3330078,3.7558594l0.0361328,0.3984375l-0.375-0.1425781
			c-0.0039063-0.0019531-0.3603516-0.1357422-0.8994141-0.1357422c-1.0136719,0-2.484375,0.4550781-3.7353516,2.6201172
			c-0.3710938,0.6416016-0.6757813,1.3935547-0.9990234,2.1894531C43.3027344,60.5039063,41.3789063,65.25,30.0625,65.25z
			 M14.6987305,19.6289063c0.0976563,1.4287109,0.4350586,7.4848633,0.0585938,18.5791016
			c-0.3032227,8.921875,0.0649414,17.8486328,4.7700195,22.7158203C22.0161133,63.4980469,25.4619141,64.75,30.0625,64.75
			c10.9794922,0,12.8339844-4.5732422,14.3232422-8.2480469c0.3291016-0.8125,0.640625-1.5800781,1.0283203-2.2519531
			c1.3710938-2.3720703,3.0244141-2.8701172,4.1689453-2.8701172c0.2734375,0,0.5078125,0.0302734,0.6875,0.0644531
			c-0.4423828-2.1796875-2.9453125-2.9716797-2.9716797-2.9794922c-2.3251953-1.2167969-3.8837891-1.7509766-5.0966797-1.7509766
			c-1.4472656,0-2.3886719,0.7441406-3.7675781,1.9707031c-0.3154297,0.28125-0.6181641,0.6679688-0.9384766,1.0771484
			C36.4316406,51.1210938,35.1074219,52.8125,31.909668,52.8125c-11.7890625,0-12.2963867-14.0107422-12.487793-19.2861328
			c-0.1821289-5.0297852-0.0356445-11.6870117-0.0053711-12.9477539L14.6987305,19.6289063z"/>
	</g>
	<path style="fill:#910A1B;" d="M18.634882,20.6759892c0,0-0.0887489,12.7673092,0.802618,19.5740108
		c1.0837135,8.2755051,5.5739326,12.0302315,5.5739326,12.0302315S19.5501251,49.9166679,18.3688869,40.5
		s-1.2831154-19.2910748-1.4081154-20.7494087L18.634882,20.6759892z"/>
	<path style="fill:#910A1B;" d="M15.9303999,22.75c0,0-0.7780704,28.72229,6.4719305,33.986145S36.289669,59.0625,36.289669,59.0625
		s-6.2623386,4.5-13.8248386-0.75C13.416647,52.0311165,15.9303999,22.75,15.9303999,22.75z"/>
	<path style="fill:#910A1B;" d="M46.8712959,48.614006c0,0-1.6985512-0.8978233-3.2083321,2.8209534
		C40.5408859,59.125,36.9080963,61.9375,31.8814163,62.875c0,0,4.6380348,0.635994,8.9536896-4.625
		C44.0480614,54.3332443,44,49.801506,46.8712959,48.614006z"/>
	<path style="fill:#910A1B;" d="M41.1885643,49.9583321c0,0-3.0437431,6.0845833-9.1786537,6.1256256
		s-10.9930592-3.9269905-10.9930592-3.9269905S25.1875,57.3125,32,57.1875S41.1885643,49.9583321,41.1885643,49.9583321z"/>
</g>
<g>
	<g>
		<path style="fill:#C30D23;" d="M50,12.8648653c-0.75-2.8932581-0.375-4.2250004-2.375-7.030107S37.625,0.875,32,0.875
			S18.375,3.0296519,16.375,5.8347583S14.75,9.9716072,14,12.8648653s-1,6.3991098,0.75,7.3081083
			C16.2147827,20.9338245,21.2755127,22,32,22s15.7852173-1.0661755,17.25-1.8270264C51,19.2639751,50.75,15.7581224,50,12.8648653z
			"/>
		<path style="fill:#590610;" d="M32,22.25c-10.1694336,0-15.6381836-0.9584961-17.3652344-1.8554688
			c-2.3266602-1.2080078-1.2592773-6.1166992-0.8769531-7.5922852c0.2128906-0.8208008,0.331543-1.5,0.4462891-2.1572266
			c0.2841797-1.6254883,0.5083008-2.9091797,1.9672852-4.9550781C18.2382813,2.7910156,26.2329102,0.625,32,0.625
			c5.7675781,0,13.7617188,2.1660156,15.828125,5.0649414c1.4589844,2.0458984,1.6835938,3.3295898,1.9677734,4.9550781
			c0.1142578,0.6572266,0.2333984,1.3364258,0.4462891,2.1572266c0.3818359,1.4755859,1.4492188,6.3842773-0.8769531,7.5922852
			C47.6386719,21.2915039,42.1689453,22.25,32,22.25z M32,1.125c-5.5307617,0-13.472168,2.1206055-15.4213867,4.8549805
			c-1.3930664,1.9536133-1.6088867,3.1884766-1.8818359,4.7509766c-0.1113281,0.6357422-0.2368164,1.3564453-0.4545898,2.1962891
			c-0.7402344,2.8549805-0.9648438,6.1992188,0.6230469,7.0239258C16.4633789,20.7807617,21.909668,21.75,32,21.75
			c10.0908203,0,15.5371094-0.9692383,17.1347656-1.7988281c1.5878906-0.824707,1.3632813-4.1689453,0.6230469-7.0239258
			c-0.2177734-0.8398438-0.34375-1.5605469-0.4541016-2.1962891c-0.2734375-1.5625-0.4892578-2.7973633-1.8818359-4.7509766
			C45.4716797,3.2456055,37.5302734,1.125,32,1.125z"/>
	</g>
	<path style="fill:#590610;" d="M23.4120293,2.1376481c0,0,0.5901756,2.7373519,10.1515732,2.7373519
		c0,0-7.2300758,1.4945025-11.3551712-2.3777487L23.4120293,2.1376481z"/>
	<path style="fill:#590610;" d="M45.8105469,3.9931641l-0.3613281,0.3457031
		c0.0146484,0.015625,0.3574219,0.3901367,0.1875,0.9116211c-0.2041016,0.6259766-1.2783203,1.8164063-6.1835938,2.7539063
		c-7.491272,1.4328613-16.4108887,0.6685181-22.4370117-0.5258789c-0.9334717-0.6135864-0.8178711-1.3887329-0.8178711-1.3887329
		L15.4746094,7.152832l-0.1113281,0.4873047c3.8769531,0.8891602,9.3886719,1.6420898,15.0234375,1.6420898
		c3.0996094,0,6.2382813-0.2280273,9.1601563-0.7866211c3.9453125-0.7543945,6.1552734-1.7973633,6.5693359-3.1010742
		C46.3720703,4.5878906,45.8339844,4.0170898,45.8105469,3.9931641z"/>
	<path style="fill:#910A1B;" d="M42.8292694,3.6481359c0,0,2.6075821,2.2248728-3.6425743,3.4458153
		C30.5415421,8.7827463,22.6032143,8.083333,18.5932732,6.125c0,0,11.8844471,1.6080127,18.3366547,0.3458328
		C43.3839874,5.2082906,42.8292694,3.6481359,42.8292694,3.6481359z"/>
	<path style="fill:#910A1B;" d="M37.2263718,1.9293147c0,0,2.1902962,0.4095682,1.2348213,1.161117
		c-0.6867447,0.5401769-4.0217819,1.166667-6.1036758,1.0833335s-4.9314117-0.4583335-6.6941528-1.6666667
		c0,0,3.945591,1.171272,7.4872589,0.7314694C36.6922874,2.7987652,37.1847038,2.4348645,37.2263718,1.9293147z"/>
	<path style="fill:#910A1B;" d="M46.75,5.8476143c0,0,0.9201202,1.2890768-4.1857758,2.7832317
		s-10.8140297,1.910821-20.355793,1.035821c0,0,12.5415688,2.291666,19.2499008,0.833333S47.8736649,7.0539117,46.75,5.8476143z"/>
	<path style="fill:#910A1B;" d="M15.3632813,9.458333c0,0,4.4283848,1.9662714,12.9700527,2.5527039
		c8.541666,0.5864315,14.4959354-0.1724806,14.4959354-0.1724806s-3.1559448,1.6213121-12.0551071,1.5178242
		S14.2128477,12.6083632,15.3632813,9.458333z"/>
	<path style="fill:#910A1B;" d="M48.9119453,11.8688555c0,0-2.1717606,4.0890636-22.9952793,3.4163923
		C25.916666,15.2852478,51.9241219,19.1270676,48.9119453,11.8688555z"/>
	<path style="fill:#910A1B;" d="M14.6649513,15.7396603c0,0,1.5739117,1.1343708,7.5834312,1.6534271
		c6.3999653,0.5527802,17.3579941,0.4931335,20.7747192,0.5198193c0,0-15.3162899,1.500576-20.7747192,0.9831371
		C16.7899513,18.378603,13.9149513,18.378603,14.6649513,15.7396603z"/>
	<path style="fill:#910A1B;" d="M49.625,17.3721237c0,0-2.1048584,1.553875-7.1461792,1.9971256
		S32.1829338,20.5625,32.1829338,20.5625S50.6666679,22.2450542,49.625,17.3721237z"/>
</g>
</svg>
