<?xml version="1.0" encoding="utf-8"?>
<!-- Generator: Adobe Illustrator 18.0.0, SVG Export Plug-In . SVG Version: 6.00 Build 0)  -->
<!DOCTYPE svg PUBLIC "-//W3C//DTD SVG 1.1//EN" "http://www.w3.org/Graphics/SVG/1.1/DTD/svg11.dtd">
<svg version="1.1" id="レイヤー_1" xmlns="http://www.w3.org/2000/svg" xmlns:xlink="http://www.w3.org/1999/xlink" x="0px"
	 y="0px" width="64px" height="64px" viewBox="0 0 64 64" style="enable-background:new 0 0 64 64;" xml:space="preserve">
<g>
	<path style="fill:#050505;" d="M39.7743149,27.0160751c-1.2453918,0.0934544-2.5975571,0.0190315-2.9824524-0.066103
		C36.4069672,26.8648396,35.9498405,26.75,34.83918,26.0461941c0.971756,0.2074471,1.470356,0.3845825,1.928772,0.45578
		c0.4584198,0.0711975,2.0250435,0.0815144,3.0250435,0.0190144s3.190155-0.9277554,3.190155-0.9277554
		S41.3081856,26.9009724,39.7743149,27.0160751z"/>
</g>
<g>
	<path style="fill:#050505;" d="M24.2256851,27.0160751c1.2453899,0.0934544,2.597559,0.0190315,2.9824543-0.066103
		c0.3848934-0.0851326,0.84202-0.1999722,1.9526787-0.9037781c-0.9717522,0.2074471-1.470356,0.3845825-1.928772,0.45578
		s-2.0250397,0.0815144-3.0250397,0.0190144s-3.190155-0.9277554-3.190155-0.9277554S22.6918125,26.9009724,24.2256851,27.0160751z"
		/>
</g>
</svg>
