<?xml version="1.0" encoding="utf-8"?>
<!-- Generator: Adobe Illustrator 17.0.0, SVG Export Plug-In . SVG Version: 6.00 Build 0)  -->
<!DOCTYPE svg PUBLIC "-//W3C//DTD SVG 1.1//EN" "http://www.w3.org/Graphics/SVG/1.1/DTD/svg11.dtd">
<svg version="1.1" id="レイヤー_1" xmlns="http://www.w3.org/2000/svg" xmlns:xlink="http://www.w3.org/1999/xlink" x="0px"
	 y="0px" width="64px" height="64px" viewBox="0 0 64 64" style="enable-background:new 0 0 64 64;" xml:space="preserve">
<path style="fill:#231815;" d="M31.2436523,61.9785156c-1.277832,0-2.2861328-0.9628906-2.5693359-2.4511719
	c-0.0791016-0.4121094-0.0581055-0.8144531,0.0610352-1.1992188c-0.2744141-0.2470703-0.3852539-0.5546875-0.3129883-0.8818359
	c0.03125-0.1777344-0.1547852-1.1669922-0.3193359-2.0400391c-0.1914063-1.0175781-0.4086914-2.171875-0.5180664-3.1279297
	c-0.0932617-0.8173828-0.0571289-1.4003906-0.027832-1.8701172c0.0283203-0.4580078,0.0507813-0.8203125-0.0556641-1.2275391
	c-0.3354492-1.2851563-0.1938477-2.4003906-0.0800781-3.296875c0.065918-0.5224609,0.1235352-0.9736328,0.0776367-1.3505859
	c-0.0458984-0.3779297-0.1640625-0.8828125-0.2885742-1.4169922c-0.2836914-1.2138672-0.6049805-2.5888672-0.3417969-3.4570313
	c0.1494141-0.4941406-0.003418-1.6621094-0.1508789-2.7910156c-0.1630859-1.2451172-0.3310547-2.5292969-0.2158203-3.4550781
	l-0.1669922-0.0058594l0.0429688-0.2783203c0-0.0009766,0.1665039-1.0834961,0.4995117-3.4794922
	c0.1142578-0.8237305,0.0820313-2.2216797-0.0986328-4.2709961c-0.0634766-0.003418-0.1259766-0.0078125-0.1875-0.0131836
	l-0.4287109,2.4282227c-0.2607422,1.0922852-0.6728516,2.4160156-1.0361328,3.5839844
	c-0.2758789,0.8867188-0.5141602,1.6518555-0.6010742,2.0483398c-0.0078125,0.0361328-0.0112305,0.0751953-0.0146484,0.1142578
	l0.4887695,1.078125l-0.0097656,0.0712891c-0.019043,0.1425781-0.1274414,0.8671875-0.3569336,1.1494141
	c-0.0366211,0.0449219-0.0820313,0.0820313-0.1362305,0.1113281c0.0107422,0.2490234,0.0019531,0.4697266-0.027832,0.6816406
	c-0.0366211,0.2646484-0.1484375,1.0673828-0.7402344,1.0673828c-0.3198242,0-0.675293-0.2460938-1.1889648-0.8232422
	c-0.7675781-0.8603516-0.4506836-2.4775391-0.2612305-3.4443359c0.0351563-0.1787109,0.0654297-0.3320313,0.081543-0.4487305
	c0.1005859-0.7172852,1.1733398-6.1640625,1.2192383-6.3955078c0.0043945-0.0195313,0.2192383-0.8974609,0.53125-1.8530273
	c-0.4570313-0.1967773-0.7509766-0.3891602-0.8955078-0.5864258l-0.0742188-0.1015625l0.3647461-1.1416016
	c2.1210938-6.4853516,3.5795898-6.9892578,3.9760742-6.9892578l1.8413086-0.5996094l0.2460938-1.2695313l0.1772461-0.0244141
	c0,0,0.0952148-0.0131836,0.2729492-0.0341797l0.0151367-0.4716797c-0.4189453-0.3666992-0.765625-0.7416992-0.9379883-1.0161133
	c-0.0869141-0.1381836-0.1625977-0.3769531-0.2407227-0.762207c-0.3310547-0.1298828-0.6015625-0.5786133-0.7373047-0.9433594
	c-0.2036133-0.5488281-0.1943359-1.0668945,0.0229492-1.4418945c-0.0068359-0.0400391-0.012207-0.0776367-0.0166016-0.1137695
	c-0.1855469-0.0693359-0.4555664-0.2026367-0.5708008-0.4155273c-0.0649414-0.1196289-0.0766602-0.2509766-0.0341797-0.3789063
	c0.0429688-0.1279297,0.1142578-0.2695313,0.190918-0.4179688c0.0600586-0.1171875,0.1015625-0.2119141,0.140625-0.3066406
	c0.0195313-0.0458984,0.0332031-0.0776367,0.0444336-0.1113281c0.0454102-0.1328125,0.0654297-0.2348633,0.0654297-0.3339844
	c0-0.0356445-0.0126953-0.0932617-0.0371094-0.171875C27.8911133,7,27.8442383,6.887207,27.7958984,6.7695313
	c-0.2006836-0.484375-0.503418-1.2167969,0.1171875-1.6655273l0.2490234-0.1845703
	C28.9790039,4.3066406,30.5,3.1665039,31.7250977,3.1665039c0.1948242,0,0.3774414,0.0297852,0.5424805,0.0878906
	c0.2661133,0.09375,0.6020508,0.1972656,0.9638672,0.309082c1.6298828,0.5024414,2.8027344,0.9008789,3.0439453,1.4462891
	c0.0644531,0.1464844,0.0625,0.2993164-0.0048828,0.4418945c-0.2138672,0.4521484-0.3486328,0.9125977-0.3779297,1.2963867
	c-0.0107422,0.1445313-0.0058594,0.2861328,0.0146484,0.421875c0.0332031,0.1728516,0.0722656,0.2836914,0.1259766,0.3754883
	C36.0507813,7.5751953,36.0625,7.5981445,36.0732422,7.621582c0.3691406,0.6533203,0.3417969,0.9624023-0.1386719,1.3916016
	c-0.0146484,0.0791016-0.0390625,0.2041016-0.0761719,0.355957c0.2109375,0.3779297,0.2148438,0.8950195,0.0087891,1.4404297
	c-0.1357422,0.3579102-0.4033203,0.7978516-0.7314453,0.9277344c-0.078125,0.3857422-0.1533203,0.6245117-0.2402344,0.7626953
	c-0.1367188,0.2158203-0.3896484,0.5048828-0.703125,0.8027344l0.0410156,0.4921875
	c0.1425781,0.0078125,0.2236328,0.0146484,0.2236328,0.0146484l0.1552734,0.012207l0.4423828,1.1147461
	C35.4726563,15,36.6757813,15.1992188,37.2490234,15.4536133l0.0283203-0.0009766
	c2.2685547,0,3.7246094,4.6831055,4.390625,7.4746094c0.0458984,0.1948242,0.0859375,0.3652344,0.1191406,0.5146484
	c0.0800781,0.3613281,0.125,0.59375,0.125,0.59375l0.046875,0.2387695l-0.2373047,0.0532227
	c0,0-0.6337891,0.1411133-1.5654297,0.3168945l0.1132813,1.5195313c0.0371094,0.0874023,0.0634766,0.2387695,0.0693359,0.390625
	c0.0175781,0.4814453-0.1796875,0.9814453-0.5703125,1.4458008c-0.3232422,0.3837891-1.453125,1.2099609-2.5712891,2.0239258
	c0.046875,1.7358398,0.2412109,2.9516602,0.2431641,2.9638672l0.0078125,0.0507813l-0.0126953,0.0498047
	c-0.0644531,0.2597656-0.1845703,0.4570313-0.3730469,0.6103516c0.3876953,1.1699219,0.9169922,3.0458984,0.6044922,3.7744141
	c-0.1611328,0.3759766,0.0078125,1.8476563,0.1435547,3.0292969c0.1992188,1.7324219,0.3056641,2.8183594,0.1064453,3.2832031
	c-0.0791016,0.1875-0.2470703,0.3662109-0.5117188,0.5458984c-0.1894531,0.3632813-0.5283203,0.8339844-1.1005859,1.1386719
	c-0.46875,0.25-0.8359375,0.8759766-1.1318359,1.3779297C34.8759766,47.3535156,34.6806641,47.6875,34.375,47.6875
	c-0.0253906,0-0.0615234,0.0058594-0.1044922,0.0136719c-0.09375,1.4628906-0.0488281,2.1650391,0.0205078,2.3222656
	c0.0810547,0.1835938,0.0439453,0.4091797-0.1035156,0.6376953c-0.2275391,0.3486328-0.7373047,0.71875-1.2348633,0.71875l0,0
	c-0.1035156,0-0.2016602-0.015625-0.2929688-0.0458984c0.2177734,2.3564453,0.3891602,3.75,0.5053711,4.6962891
	c0.0878906,0.7138672,0.1455078,1.1855469,0.1679688,1.6240234c0.0136719,0.265625-0.0869141,0.7304688-0.8530273,1.03125
	c0.2724609,0.9121094,0.3344727,2.0488281-0.1176758,2.7314453c-0.2246094,0.3398438-0.5556641,0.5322266-0.9570313,0.5566406
	C31.3505859,61.9765625,31.296875,61.9785156,31.2436523,61.9785156z M26.9140625,32.9277344l0.1879883,0.0063477l-0.0625,0.2924805
	c-0.1831055,0.8505859,0.0068359,2.2988281,0.1738281,3.5771484c0.1689453,1.2890625,0.3144531,2.4033203,0.1337891,3
	c-0.2246094,0.7402344,0.0942383,2.1035156,0.3500977,3.1992188c0.1279297,0.5478516,0.2490234,1.0654297,0.2978516,1.4697266
	c0.0532227,0.4394531-0.0073242,0.9189453-0.0776367,1.4736328c-0.1142578,0.8984375-0.2431641,1.9160156,0.0673828,3.1074219
	c0.1269531,0.4853516,0.1010742,0.9023438,0.0712891,1.3857422c-0.0292969,0.4726563-0.0625,1.0087891,0.0258789,1.7822266
	c0.1069336,0.9384766,0.3222656,2.0830078,0.512207,3.0927734c0.2524414,1.3388672,0.3710938,1.9931641,0.3164063,2.2402344
	c-0.0249023,0.1123047-0.0253906,0.2851563,0.2612305,0.4814453l0.1650391,0.1123047l-0.0737305,0.1855469
	c-0.1376953,0.3476563-0.1708984,0.7177734-0.0976563,1.0996094c0.1943359,1.0224609,0.8730469,2.1308594,2.2094727,2.0400391
	c0.2456055-0.0146484,0.4321289-0.1230469,0.5703125-0.3320313c0.3388672-0.5117188,0.3325195-1.5517578-0.0146484-2.5283203
	l-0.0888672-0.2490234l0.253418-0.0751953c0.2832031-0.0830078,0.7553711-0.2734375,0.7382813-0.609375
	c-0.0214844-0.4208984-0.0786133-0.8857422-0.1650391-1.5888672c-0.1264648-1.0302734-0.3178711-2.5869141-0.5629883-5.3339844
	l-0.1176758-1.3183594l0.590332,1.1845703c0.0878906,0.1757813,0.206543,0.2568359,0.3745117,0.2568359l0,0
	c0.2768555,0,0.6010742-0.21875,0.7661133-0.4248047c0.1083984-0.1337891,0.1171875-0.2167969,0.1142578-0.2314453
	c-0.1367188-0.3076172-0.1533203-1.2333984-0.0478516-2.7480469l0.0126953-0.1914063l0.2626953-0.0507813
	C34.1982422,47.2060547,34.3085938,47.1875,34.375,47.1875c0.0419922-0.0390625,0.2294922-0.3583984,0.3671875-0.5917969
	c0.3271484-0.5566406,0.7333984-1.25,1.328125-1.5664063c0.4873047-0.2597656,0.7675781-0.6757813,0.9169922-0.9794922
	l0.03125-0.0625l0.0576172-0.0371094c0.2597656-0.1679688,0.3505859-0.2890625,0.3808594-0.3603516
	c0.1621094-0.3769531-0.0068359-1.8486328-0.1425781-3.0302734c-0.1992188-1.7324219-0.3056641-2.8183594-0.1064453-3.2832031
	c0.1835938-0.4287109-0.0830078-1.8408203-0.6787109-3.5966797l-0.0664063-0.1953125l0.1796875-0.1025391
	c0.15625-0.0888672,0.2441406-0.1972656,0.2958984-0.3681641c-0.0400391-0.265625-0.2070313-1.4560547-0.2441406-3.1088867
	l-0.0029297-0.1303711l0.1054688-0.0771484c1.0761719-0.7827148,2.2949219-1.6694336,2.5888672-2.019043
	c0.3144531-0.3730469,0.4667969-0.7446289,0.453125-1.1054688c-0.0039063-0.1049805-0.0224609-0.2099609-0.0556641-0.3125
	L39.625,24.2348633l0.2197266-0.0405273c0.6835938-0.1264648,1.2314453-0.2402344,1.5273438-0.3027344
	c-0.0185547-0.0922852-0.0439453-0.2075195-0.0732422-0.3408203c-0.0332031-0.1469727-0.0712891-0.3154297-0.1171875-0.5078125
	c-1.0595703-4.4394531-2.5195313-7.090332-3.9042969-7.090332l-0.1308594,0.0058594l-0.0595703-0.0288086
	c-0.4785156-0.2348633-1.7841797-0.4545898-2.2470703-0.5195313l-0.1435547-0.0200195l-0.4326172-1.0927734
	c-0.0703125-0.0039063-0.1621094-0.0087891-0.2724609-0.0131836l-0.2207031-0.0092773l-0.0957031-1.1728516l0.0888672-0.0825195
	c0.3193359-0.2944336,0.5839844-0.5883789,0.7080078-0.7861328c0.0283203-0.0449219,0.1054688-0.2104492,0.2089844-0.777832
	l0.0478516-0.2597656l0.2744141,0.065918c0.0585938-0.0449219,0.2558594-0.2558594,0.3964844-0.6293945
	c0.1630859-0.4316406,0.1591797-0.8334961-0.0126953-1.0756836l-0.0664063-0.0942383l0.0283203-0.1118164
	c0.0742188-0.2905273,0.1074219-0.5019531,0.1083984-0.5068359l0.0146484-0.0917969l0.0712891-0.0600586
	c0.3525391-0.2983398,0.3730469-0.3320313,0.1083984-0.7973633l0.1660156-0.2226563l-0.2158203,0.1264648
	c-0.0839844-0.1425781-0.1416016-0.3066406-0.1777344-0.5009766c-0.0371094-0.2250977-0.0439453-0.4052734-0.0292969-0.5874023
	c0.0429688-0.5683594,0.2548828-1.1142578,0.4248047-1.472168c-0.1689453-0.4052734-1.7753906-0.9008789-2.7353516-1.1967773
	c-0.3691406-0.1137695-0.7114258-0.2192383-0.9824219-0.3149414c-0.1118164-0.0395508-0.2382813-0.0595703-0.3764648-0.0595703
	c-1.0581055,0-2.5473633,1.1162109-3.2631836,1.652832l-0.2558594,0.1899414
	c-0.2797852,0.2021484-0.1611328,0.5546875,0.0517578,1.0693359c0.0546875,0.1318359,0.1064453,0.2587891,0.1425781,0.3735352
	c0.0419922,0.1323242,0.0605469,0.2319336,0.0605469,0.3222656c0,0.1542969-0.0292969,0.3115234-0.0917969,0.4941406
	c-0.0146484,0.0444336-0.0332031,0.0888672-0.0522461,0.1337891c-0.0488281,0.1166992-0.0957031,0.2241211-0.1469727,0.3237305
	c-0.0810547,0.1572266-0.1411133,0.2714844-0.1757813,0.3764648c0.0253906,0.0449219,0.2402344,0.1577148,0.4321289,0.2089844
	l0.1855469,0.0498047l0.0004883,0.1918945c0,0.0791016,0.012207,0.1748047,0.0375977,0.300293l0.0224609,0.1079102
	L28.6079102,9.550293c-0.1733398,0.2392578-0.1811523,0.6391602-0.0209961,1.0698242
	c0.1347656,0.3618164,0.3217773,0.5742188,0.4213867,0.6367188l0.2543945-0.0610352l0.0478516,0.2597656
	c0.1035156,0.5673828,0.1801758,0.7329102,0.2084961,0.777832c0.1552734,0.246582,0.5205078,0.6313477,0.9311523,0.980957
	l0.0917969,0.078125l-0.0375977,1.144043l-0.215332,0.0239258c-0.121582,0.0131836-0.2216797,0.0249023-0.2978516,0.0341797
	l-0.2338867,1.2060547l-2.2387695,0.7226563l-0.0605469-0.0102539c0.0107422,0.0029297-1.3432617,0.121582-3.4770508,6.6464844
	l-0.28125,0.8759766c0.109375,0.0917969,0.3383789,0.237793,0.8125,0.4228516l0.2226563,0.0869141l-0.0766602,0.2260742
	c-0.3447266,1.0166016-0.5888672,2.0136719-0.5913086,2.0234375c-0.0087891,0.0458984-1.1132813,5.6538086-1.2119141,6.3569336
	c-0.0170898,0.1240234-0.0488281,0.2871094-0.0859375,0.4765625c-0.1713867,0.875-0.4584961,2.3398438,0.1435547,3.015625
	c0.5273438,0.5917969,0.7460938,0.6552734,0.815918,0.6552734c0.0581055,0,0.175293-0.1337891,0.2451172-0.6357422
	c0.0317383-0.2304688,0.0361328-0.4755859,0.0126953-0.7724609l-0.0185547-0.2324219l0.230957-0.0341797
	c0.046875-0.0068359,0.0620117-0.015625,0.0629883-0.015625c0.0717773-0.09375,0.1713867-0.4853516,0.2226563-0.8164063
	L24.0004883,33.625l0.0068359-0.0673828c0.0102539-0.1142578,0.0166016-0.1767578,0.0292969-0.2382813
	c0.0917969-0.4179688,0.3330078-1.1928711,0.6123047-2.090332c0.3613281-1.1606445,0.7705078-2.4755859,1.0244141-3.5371094
	l0.5073242-2.8774414l0.2358398,0.0292969c0.1933594,0.0239258,0.378418,0.0405273,0.5405273,0.0405273h0.2280273
	l0.0717773,0.2265625c0.2045898,2.2397461,0.2412109,3.7036133,0.1157227,4.6074219
	C27.1352539,31.4262695,26.9824219,32.4682617,26.9140625,32.9277344z M31.9897461,44.7275391l0.0273438-1.3046875
	c0.0253906-1.1953125,0.0512695-2.4316406-0.0976563-3.3837891c-0.2246094-1.4384766-0.3964844-2.6464844-0.5253906-3.6923828
	l-0.0766602-0.6201172l0.4833984,0.3964844c0.6298828,0.5175781,1.0693359,2.6601563,1.5361328,5.7177734l0.0097656,0.0615234
	l-0.0205078,0.0576172c-0.0878906,0.2558594-0.2363281,0.5253906-0.4082031,0.8378906
	c-0.1367188,0.2480469-0.2875977,0.5214844-0.425293,0.8242188L31.9897461,44.7275391z M32.1367188,38.1230469
	c0.0820313,0.5683594,0.1738281,1.1787109,0.2768555,1.8378906c0.1142578,0.7314453,0.1303711,1.6035156,0.1206055,2.4970703
	c0.1245117-0.2265625,0.2314453-0.4267578,0.2988281-0.6044922C32.703125,41.0029297,32.4511719,39.3710938,32.1367188,38.1230469z
	 M36.7548828,27.059082l0.1855469-4.0161133l0.4990234-0.0126953l0.1289063,1.3442383l0.1552734,0.0097656l0.2216797,1.6069336
	l-0.1064453,0.0888672c-0.125,0.1035156-0.2539063,0.2158203-0.3935547,0.3378906l-0.1074219,0.0932617
	c-0.0205078,0.0180664-0.0419922,0.0400391-0.0634766,0.0620117L36.7548828,27.059082z"/>
<g>
	<path style="fill:#D9DADA;" d="M34.0625,47.125c0,0-0.2153893,2.515377,0,3c0.25,0.5625-1.8125,2.0625-1.875-0.1875
		S29.6875,44.9375,34.0625,47.125z"/>
	<path style="fill:#231815;" d="M37.375,43.75c0,0-0.25,1-1.1875,1.5s-1.4375,2.1875-1.8125,2.1875s-2.375,0.8125-2.5625-1.5
		s1.34375-3.53125,1.34375-4.40625S37.6875,39.5625,37.375,43.75z"/>
	<path style="fill:#3E3A39;" d="M36.6875,33.375c0,0,1.125,3.125,0.75,4s0.625,5.4375,0.25,6.3125s-3.125,1.59375-3.59375-0.09375
		c-0.1298866-0.4675941-0.886631-0.9430885-0.9897156-1.6218529C32.7094917,39.3740273,32.1261787,35.9196472,31.333334,36.25
		C30.3474865,36.6607704,30.875,28.6875,36.6875,33.375z"/>
	<path style="fill:#231815;" d="M31.375,36.0833321c0,0,3.2028656-2.0852509,4.4166679-1.9166641
		c1.5,0.2083321,0.3333321-1.4583359,0.3333321-1.4583359l-5.375-0.0416641L31.375,36.0833321z"/>
	<path style="fill:#3E3A39;" d="M26.833334,33c-0.481842,1.6217575,0.6323299,5.550518,0.2746162,6.7310104
		c-0.3577137,1.1804962,0.4901257,3.5433502,0.6392918,4.7715874c0.1328926,1.0942497-0.519371,2.6390839-0.0038223,4.6148529
		C27.9752636,50.00597,27.6510124,50.6510773,27.833334,52.25c0.2230988,1.9565544,0.922657,4.8480377,0.8333321,5.25
		c-0.3333321,1.5,4.4903278,1.6173134,4.416666,0.1666679c-0.0540466-1.0643806-0.3223305-2.3141899-0.75-7.1666679
		C32.257431,49.6387978,32.0603714,48.45298,32,47.3333321c-0.0509472-0.9448624,0.2568016-1.5366249,0.25-2.5
		C32.2396164,43.362278,32.3822403,41.3796768,32.1666679,40c-0.833334-5.3333321-0.6250019-5.5-0.833334-5.9166679
		C31.125,33.6666679,27.867836,29.5181274,26.833334,33z"/>
	<path style="fill:#D9DADA;" d="M29.25,57.8333321c0,0-0.5205326,0.6491776-0.3303471,1.6470299
		c0.2460556,1.2909775,1.1282005,2.3241882,2.4705086,2.2432442c1.4116802-0.0851288,1.2765064-2.640274,0.3598385-4.0569382
		C31.083334,57.5,30.333334,57.4166679,29.25,57.8333321z"/>
</g>
<path style="fill:#231815;" d="M41.6666679,24.083334c0,0-0.8854179,0.197916-2.1041679,0.416666
	s-2.2227249,0.1084404-2.2227249,0.1084404L39,22.0625L41.6666679,24.083334z"/>
<path style="fill:#BA713A;" d="M26.666666,23.5c0,0,0.081295-0.9454098-0.8333321-1.166666
	c-0.914629-0.2212563-2.0092354,4.3026924-2.0092354,4.3026924s-1.1159096,5.6630001-1.2164078,6.3814564
	c-0.1005001,0.7184525-0.7041798,2.7697067,0.1181927,3.6928139c0.8223476,0.9231529,1.3286819,1.0853119,1.4954109-0.1124916
	c0.0386391-0.2775154,0.035305-0.5536041,0.0137959-0.8260803c0.0863762-0.0127792,0.161293-0.0381203,0.2037468-0.0903931
	c0.1968174-0.2423325,0.3032722-1.0247803,0.3032722-1.0247803l-0.4860744-1.0738182
	c0.0071335-0.0705566,0.0103054-0.1425743,0.0251846-0.2104721c0.2024937-0.9239426,1.1783638-3.7121983,1.6354465-5.622261
	L26.666666,23.5z"/>
<polygon style="fill:#BA713A;" points="39.7167206,22.1056232 40.0425606,26.4770432 37.8057556,26.8049793 37.1669617,22.1907501 
	"/>
<g>
	<g>
		<path style="fill:#3E3A39;" d="M23.416687,24c0.458313,0.625,3.125,1.333313,4,1.083313l-0.0180664-0.3566895
			c-2.0906982-0.1936035-3.2490234-0.805542-3.8189697-1.234436C23.5249634,23.6646729,23.47229,23.8192749,23.416687,24z"/>
		<path style="fill:#3E3A39;" d="M27.25,21.791626c0,0,1.282959-3.2128296,0.25-5.625c0,0-1.4475098-0.2467651-3.7566528,6.8153076
			c0.4234619,0.3554077,1.4924316,1.026062,3.6296387,1.2385864L27.25,21.791626z"/>
		<path style="fill:#F5B32C;" d="M23.7433472,22.9819336c-0.0540161,0.1651611-0.1087646,0.3369141-0.1636963,0.5102539
			c0.5699463,0.428894,1.7282715,1.0408325,3.8189697,1.234436L27.3729858,24.22052
			C25.2357788,24.0079956,24.1668091,23.3373413,23.7433472,22.9819336z"/>
	</g>
	<polygon style="fill:#7C3F16;" points="34.3125,17.8086052 30.1450062,17.8086052 30.307291,12.8086061 33.9010429,12.8086061 	"/>
	<g>
		<path style="fill:#F5F5F5;" d="M31.625,25.3823242c-0.0698242-3.6664429,0.0073242-8.3938599,0.0333862-9.8002319
			c-0.029541,0.0021973-0.0577393,0.0060425-0.0874634,0.0079346c-0.9516602,0.0611572-2.0309448-0.081604-2.0309448-0.081604
			L27.5,16.166626c-0.791687,3.125-0.7875366,6.1542969-0.7875366,6.1542969
			c0.4247437,3.645874,0.5906372,6.0803833,0.4125366,7.3626709c-0.333313,2.3997192-0.5,3.4830322-0.5,3.4830322
			c2.1046753,0.0682373,3.262207,0.3258057,4.7734375,0.4527588C31.4709473,32.5836792,31.694458,29.026062,31.625,25.3823242z"/>
		<path style="fill:#F5F5F5;" d="M37.25,21.791626c-1.333374-2.916626,0.083313-6.0169067,0.083313-6.0169067
			C36.8619995,15.4380493,34.875,15.1627197,34.875,15.1627197l-2.4648438,0.329834
			c-0.024231,1.2678833-0.1066895,6.1325684-0.0351563,9.8751221c0.0702515,3.6767578-0.1555786,7.2651978-0.2285156,8.3085327
			c1.4832153,0.0995483,2.5102539,0.0858154,4.5202026-0.0062866c0.2911987-0.1211548,0.446167-0.3150635,0.5262451-0.6419678
			c0,0-0.3497925-2.1264038-0.2346191-4.8613281C37.0328979,26.394104,37.25,21.791626,37.25,21.791626z"/>
		<path style="fill:#F5B32C;" d="M32.375,25.3676758c-0.0715332-3.7425537,0.0109253-8.6072388,0.0351563-9.8751221
			l-0.0878906,0.0117798l-0.4055786,0.0542603c-0.083252,0.0108643-0.1709595,0.0169678-0.2583008,0.0234985
			c-0.026062,1.4063721-0.1032104,6.1337891-0.0333862,9.8002319c0.069458,3.6437378-0.1540527,7.201355-0.2265625,8.2370605
			c0.0203857,0.001709,0.0393677,0.0039673,0.0598755,0.0056152c0.2425537,0.0196533,0.4699707,0.0365601,0.6881714,0.0512085
			C32.2194214,32.6328735,32.4452515,29.0444336,32.375,25.3676758z"/>
	</g>
	<g>
		<path style="fill:#ECECED;" d="M34.875,15.1627197l-0.4375-1.104126c0,0-0.874939-0.074646-2.059021-0.0197144
			l0.0334473,1.8381348C33.4603882,15.6936646,34.875,15.1627197,34.875,15.1627197z"/>
		<path style="fill:#ECECED;" d="M31.5852051,14.0889893c-1.1260986,0.0869141-1.8048706,0.180481-1.8048706,0.180481
			l-0.2403564,1.2389526c0,0,1.0892944,0.387085,2.0593262,0.4310913c0.0217285,0.0009766,0.0418091-0.0015259,0.0634155-0.0008545
			l-0.0336914-1.8529053C31.6148682,14.086853,31.5993042,14.0878906,31.5852051,14.0889893z"/>
		<path style="fill:#F09400;" d="M32.3459473,15.8899536c0.0211182-0.003479,0.0444946-0.0092163,0.065979-0.0129395
			l-0.0334473-1.8381348c-0.0137939,0.0006104-0.0262451,0.0007935-0.0401001,0.0014648
			C32.2268677,14.0457764,32.1164551,14.0506592,32,14.0585938c-0.1300659,0.0088501-0.2512817,0.0180054-0.3709717,0.0271606
			l0.0336914,1.8529053c0.1286011,0.0040283,0.2564087,0.0057373,0.3768921-0.0050659
			C32.1344604,15.9251099,32.2407227,15.9071655,32.3459473,15.8899536z"/>
	</g>
	<g>
		<path style="fill:#3E3A39;" d="M41.4243774,22.9855957c-0.5575562-2.3370972-2.0846672-7.6662083-4.3826904-7.2772827
			c-1.354187,0.229187,0,5.791687,0,5.791687l0.1855469,1.9349365
			C37.8688354,23.1421509,39.1193848,22.8308716,41.4243774,22.9855957z"/>
		<path style="fill:#3E3A39;" d="M37.2790527,23.9750977l0.06073,0.6333008C38,24.291626,38.5349121,24.1410522,39.416687,24
			c1.041626-0.166687,1.583313-0.041687,2.25,0.083313c0,0-0.0449829-0.2298584-0.1240845-0.5869141
			C38.9592896,23.3049927,37.7583618,23.7156372,37.2790527,23.9750977z"/>
		<path style="fill:#F5B32C;" d="M37.2272339,23.4349365l0.0518188,0.5401611
			c0.4793091-0.2594604,1.6802368-0.670105,4.2635498-0.4786987c-0.0327759-0.1480713-0.0722046-0.317688-0.1182251-0.5108032
			C39.1193848,22.8308716,37.8688354,23.1421509,37.2272339,23.4349365z"/>
	</g>
</g>
<path style="fill:#BA713A;" d="M37.1738319,26.3228798c-1.2785225,1.1110497-2.7979851,3.7416477-3.7491341,4.0643768
	c-0.9511452,0.3227291-1.0604706,0.1567802-1.5812321,0.389782s-1.315752,0.711647-1.3309364,0.9985943
	c0,0-1.1964035,0.5115757-0.957962,0.9098911c0.2384415,0.3983192,0.4495621,0.601963,1.0262928,0.5174446
	c0.5767288-0.0845184,1.2913284,0.1826515,1.8651581-0.09478c0.5738335-0.2774315,1.8543777-0.9093246,2.2728195-1.4758644
	c0.3782425-0.5121155,4.2535515-3.0746326,4.8587227-3.7930622c0.3956032-0.4696407,0.5246468-0.9081497,0.5117531-1.2756557
	c-0.0188828-0.5382137-0.342186-0.9241467-0.5784798-1.0325642C38.5054169,25.0697269,38.0342216,25.5751915,37.1738319,26.3228798z
	"/>
<g id="head_22_">
	<path style="fill:#BA713A;" d="M35.543705,9.3321667c-0.1130447-0.1267529-0.2199554-0.1701422-0.322525-0.1821756
		c0.0837708-0.9008093,0.1314392-1.636395,0.1314392-1.636395l-3.356966-1.1960859l-3.356966,1.1960859
		c0,0,0.0476704,0.7355857,0.1314411,1.636395c-0.1025715,0.0120335-0.2094822,0.0554228-0.322525,0.1821756
		c-0.5987663,0.6714277,0.0854473,2.0783834,0.5431137,2.1866236c0.0273056,0.0064802,0.0491161-0.0125532,0.0738182-0.0184546
		c0.0739918,0.4062357,0.1552162,0.7268505,0.2430935,0.8665619c0.3973827,0.6319151,1.8981743,1.9666719,2.6880245,1.9666719
		s2.2906437-1.3347569,2.6880245-1.9666719c0.0878792-0.1397114,0.1691017-0.4603262,0.2430954-0.8665619
		c0.0247002,0.0059013,0.0465126,0.0249348,0.0738182,0.0184546C35.4582558,11.4105501,36.1424713,10.0035944,35.543705,9.3321667z"
		/>
	<path style="fill:#210601;" d="M31.0261421,12.8130703c0,0,1.4020195,0.2369604,2.0536613-0.2172146l-0.098732-0.1382265
		l0.3554382,0.0789862v0.3382425l-0.1629105-0.1407747C33.1735992,12.7340832,31.855505,13.2474985,31.0261421,12.8130703z"/>
	<polygon style="fill:#210601;" points="31.9956532,10.5572529 31.9956532,11.9084845 32.2128677,12.1980343 31.9956532,12.3588953 
		31.6994534,12.0693455 	"/>
	<path style="fill:#231815;" d="M35.7039986,8.8828201c0,0-0.1716232,1.1386433-0.6635818,1.8955059
		c0,0-0.1642303-1.2521734-0.5828743-1.8955059c0,0-0.0780563,0.567647-0.4943314,0.8893127
		c0,0-0.3087769-1.3434305-2.046545-2.2138228c0,0,0.0305042,1.0974507-2.1643963,2.3841176
		c0,0-0.3198757-0.3784313-0.5194492-0.8325491c0,0-0.2176228,0.755125-0.2819347,1.6684475
		c0,0-0.5884571-1.0251141-0.5884571-1.7252121s3.5194111-2.2138233,3.5194111-2.2138233L35.7039986,8.8828201z"/>
	<path style="fill:#E53828;" d="M28.3624287,9.0531139c0,0-0.7190189-0.1892157-0.6054897-0.5298042
		c0.1135292-0.3405876,0.4541187-0.7568622,0.4541187-1.2488232s-0.83255-1.4758821-0.1513729-1.9678426
		c0.6811752-0.491961,2.8382339-2.2705882,4.1249008-1.8164704s4.2005882,1.1352937,3.8600006,1.8543131
		s-0.6054916,1.6840196-0.2270584,2.327353c0.3784294,0.6433334,0.3784294,0.7947054-0.1135292,1.2109804
		C35.7039986,8.8828201,32.2981148,7.9556627,28.3624287,9.0531139z"/>
	<path style="fill:#F5B32C;" d="M35.6437225,6.7287917c-1.1360703-0.3446903-2.1025124-0.336874-2.1520691-0.3341579
		c-0.2510071,0.0044346-0.4496841,0.2110939-0.4461365,0.4616566c0.0044365,0.2483459,0.2075462,0.4465785,0.4550056,0.4465785
		c0.0017738,0,0.0044327,0,0.0070953,0c-0.0023842-0.001164,1.1728783-0.0063195,2.3619995,0.4681978
		c-0.0204582-0.0361428-0.0287704-0.059536-0.0521088-0.099227C35.6580238,7.4007659,35.6171684,7.0716524,35.6437225,6.7287917z"/>
	<path style="fill:#F5B32C;" d="M30.0019531,7.0274715C29.9593792,6.7809,29.7318783,6.6172581,29.4777679,6.6567273
		C29.430315,6.664876,28.8462601,6.7684274,28.161869,7.0272498c0.0284367,0.0901914,0.0491695,0.1750612,0.0491695,0.2472367
		c0,0.3101549-0.134594,0.5866055-0.263092,0.8365583c0.6311207-0.317749,1.3460007-0.5010147,1.6837063-0.5593867
		C29.8782234,7.5090847,30.0445271,7.2744865,30.0019531,7.0274715z"/>
	<g>
		
			<ellipse transform="matrix(0.9712284 -0.2381502 0.2381502 0.9712284 -1.4775681 8.3210249)" style="fill:#524634;" cx="33.6988106" cy="10.2756119" rx="1.3180951" ry="0.8145531"/>
		<path style="fill:#FFFFFF;" d="M33.4072266,11.2519531c-0.5800781,0-1.015625-0.2485352-1.1103516-0.6328125
			c-0.125-0.5117188,0.3920898-1.0634766,1.1787109-1.2563477c0.171875-0.0419922,0.3457031-0.0634766,0.5146484-0.0634766
			c0.5800781,0,1.015625,0.2485352,1.109375,0.6328125c0.0634766,0.2548828-0.0332031,0.527832-0.2695313,0.7685547
			c-0.2207031,0.2250977-0.5439453,0.3984375-0.9082031,0.487793C33.75,11.2304688,33.5761719,11.2519531,33.4072266,11.2519531z
			 M33.9902344,9.5493164c-0.1494141,0-0.3027344,0.019043-0.4560547,0.0566406
			c-0.6279297,0.1538086-1.0830078,0.5908203-0.9941406,0.9536133c0.0649414,0.2646484,0.4135742,0.4423828,0.8671875,0.4423828
			c0.1494141,0,0.3027344-0.019043,0.4560547-0.0566406c0.3193359-0.078125,0.5996094-0.2275391,0.7880859-0.4199219
			c0.1738281-0.1767578,0.2470703-0.3662109,0.2060547-0.5336914C34.7929688,9.7270508,34.4443359,9.5493164,33.9902344,9.5493164z"
			/>
	</g>
	<g>
		
			<ellipse transform="matrix(-0.9712284 -0.2381502 0.2381502 -0.9712284 57.2662926 27.4697418)" style="fill:#524634;" cx="30.2924976" cy="10.2756119" rx="1.3180951" ry="0.8145531"/>
		<path style="fill:#FFFFFF;" d="M30.5839844,11.2519531L30.5839844,11.2519531
			c-0.1694336,0-0.3427734-0.0214844-0.5151367-0.0634766c-0.7861328-0.1928711-1.3032227-0.7446289-1.1782227-1.2563477
			c0.0947266-0.3842773,0.5302734-0.6328125,1.1103516-0.6328125c0.1694336,0,0.3422852,0.0214844,0.5151367,0.0634766
			c0.7861328,0.1928711,1.3032227,0.7446289,1.1782227,1.2563477C31.5996094,11.003418,31.1640625,11.2519531,30.5839844,11.2519531
			z M30.0009766,9.5493164c-0.4536133,0-0.8022461,0.1777344-0.8671875,0.4423828
			C29.0449219,10.3544922,29.5,10.7915039,30.128418,10.9453125c0.1533203,0.0375977,0.3061523,0.0566406,0.4555664,0.0566406l0,0
			c0.4536133,0,0.8022461-0.1777344,0.8671875-0.4423828c0.0888672-0.362793-0.3662109-0.7998047-0.9946289-0.9536133
			C30.3032227,9.5683594,30.1503906,9.5493164,30.0009766,9.5493164z"/>
	</g>
	<path style="fill:#FFFFFF;" d="M32.4379768,10.085063c0,0-0.1548157,0.1954794-0.4423237,0.1954794
		s-0.4423218-0.1954794-0.4423218-0.1954794v0.7197533c0,0,0.1714001-0.2564125,0.4423218-0.2564125
		s0.4423237,0.2564125,0.4423237,0.2564125V10.085063z"/>
</g>
<g>
</g>
<g>
</g>
<g>
</g>
<g>
</g>
<g>
</g>
<g>
</g>
</svg>
