<?xml version="1.0" encoding="utf-8"?>
<!-- Generator: Adobe Illustrator 17.0.0, SVG Export Plug-In . SVG Version: 6.00 Build 0)  -->
<!DOCTYPE svg PUBLIC "-//W3C//DTD SVG 1.1//EN" "http://www.w3.org/Graphics/SVG/1.1/DTD/svg11.dtd">
<svg version="1.1" id="レイヤー_1" xmlns="http://www.w3.org/2000/svg" xmlns:xlink="http://www.w3.org/1999/xlink" x="0px"
	 y="0px" width="64px" height="64px" viewBox="0 0 64 64" style="enable-background:new 0 0 64 64;" xml:space="preserve">
<g>
	<g>
		<linearGradient id="SVGID_1_" gradientUnits="userSpaceOnUse" x1="16" y1="58.8956757" x2="16" y2="86">
			<stop  offset="0" style="stop-color:#1EA839"/>
			<stop  offset="1" style="stop-color:#006934"/>
		</linearGradient>
		<path style="fill:url(#SVGID_1_);" d="M21.25,58.8956757c0,0,8.75,0,8.75,10.5S30,86,30,86H2c0,0,0-6.1043243,0-16.6043243
			s8.75-10.5,8.75-10.5H21.25z"/>
		<path style="fill:#231815;" d="M30.25,86.25H1.75V69.3955078c0-10.6269531,8.9101563-10.75,9-10.75h10.5
			c0.0898438,0,9,0.1230469,9,10.75V86.25z M2.25,85.75h27.5V69.3955078c0-10.1337891-8.152832-10.25-8.5-10.25h-10.5
			c-0.3466797,0.0009766-8.5,0.1308594-8.5,10.25V85.75z"/>
	</g>
	<g>
		<g>
			<path style="fill:#BA713A;" d="M20.3087234,52.5150337H16h-4.30867c0,0-0.2121811,5.3482018-0.94133,6.3386116
				c0,0,1.859375,1.5185928,5.25,1.5185928s5.25-1.5185928,5.25-1.5185928
				C20.5208511,57.8632355,20.3087234,52.5150337,20.3087234,52.5150337z"/>
			<path style="fill:#231815;" d="M16,60.6220703c-3.4399414,0-5.3295898-1.5107422-5.4082031-1.5751953l-0.184082-0.1503906
				l0.1411133-0.1914063c0.5605469-0.7617188,0.8344727-4.734375,0.8925781-6.2001953l0.0097656-0.2402344h9.0976563
				l0.0097656,0.2402344c0.0581055,1.4658203,0.3320313,5.4384766,0.8925781,6.2001953l0.1411133,0.1914063l-0.184082,0.1503906
				C21.3295898,59.1113281,19.4404297,60.6220703,16,60.6220703z M11.0791016,58.7822266
				C11.6030273,59.1337891,13.3144531,60.1220703,16,60.1220703s4.3969727-0.9882813,4.9208984-1.3398438
				c-0.5893555-1.2382813-0.8017578-4.9482422-0.8515625-6.0175781h-8.1386719
				C11.8808594,53.8339844,11.668457,57.5439453,11.0791016,58.7822266z"/>
		</g>
		<g>
			<path style="fill:#BA713A;" d="M24.75,45.9985352c0,0,1.75-1.3697052,1.75,2.7394066s-5.25,4.1091118-5.25,4.1091118
				L24.75,45.9985352z"/>
			<path style="fill:#231815;" d="M21.25,53.0966797h-0.4086914l3.7548828-7.2958984
				c0.0351563-0.0273438,0.359375-0.2714844,0.7695313-0.2714844c0.918457,0,1.3842773,1.0791016,1.3842773,3.2089844
				C26.75,53.046875,21.3051758,53.0966797,21.25,53.0966797z M24.9438477,46.1679688l-3.2753906,6.4091797
				C22.8779297,52.4824219,26.25,51.9316406,26.25,48.7382813c0-1.7216797-0.3222656-2.7089844-0.8842773-2.7089844
				C25.1855469,46.0292969,25.0185547,46.1201172,24.9438477,46.1679688z"/>
		</g>
		<g>
			<path style="fill:#BA713A;" d="M7.25,45.9985352c0,0-1.75-1.3697052-1.75,2.7394066s5.25,4.1091118,5.25,4.1091118
				L7.25,45.9985352z"/>
			<path style="fill:#231815;" d="M11.1586914,53.0966797H10.75c-0.0551758,0-5.5-0.0498047-5.5-4.3583984
				c0-2.1298828,0.4658203-3.2089844,1.3842773-3.2089844c0.4101563,0,0.734375,0.2441406,0.7695313,0.2714844l0.0688477,0.0839844
				L11.1586914,53.0966797z M6.6342773,46.0292969c-0.5620117,0-0.8842773,0.9873047-0.8842773,2.7089844
				c0,3.1982422,3.3725586,3.7460938,4.581543,3.8388672l-3.2753906-6.4091797
				C6.9819336,46.1210938,6.8144531,46.0292969,6.6342773,46.0292969z"/>
		</g>
		<g>
			<path style="fill:#BA713A;" d="M16,35.85746c-5.0031185,0-9.3939781,1.3880348-8.3385315,11.6502342
				C8.5300827,55.9528351,14.1274948,57.7016563,16,57.7016563s7.4699173-1.7488213,8.3385315-10.1939621
				C25.3940296,37.2454948,21.0031185,35.85746,16,35.85746z"/>
			<path style="fill:#231815;" d="M16,57.9511719c-2.090332,0-7.7080078-1.8710938-8.5869141-10.4179688
				c-0.4785156-4.6513672,0.1147461-7.828125,1.8139648-9.7109375C10.9985352,35.859375,13.7773438,35.6074219,16,35.6074219
				s5.0014648,0.2519531,6.7729492,2.2148438c1.6992188,1.8828125,2.2924805,5.0595703,1.8139648,9.7109375
				C23.7080078,56.0800781,18.090332,57.9511719,16,57.9511719z M16,36.1074219
				c-2.2509766,0-4.7714844,0.2431641-6.4018555,2.0498047c-1.5991211,1.7724609-2.1508789,4.8222656-1.6879883,9.3251953
				c0.8413086,8.1777344,6.125,9.96875,8.0898438,9.96875s7.2485352-1.7910156,8.0898438-9.96875
				c0.4628906-4.5029297-0.0888672-7.5527344-1.6879883-9.3251953C20.7714844,36.3505859,18.2509766,36.1074219,16,36.1074219z"/>
		</g>
	</g>
	<g>
		<path style="fill:#231815;" d="M13.2358208,53.3966942c0,0,1.3820896,0.5656815,2.7641792,0.5656815
			s2.7641792-0.5656815,2.7641792-0.5656815S18.520834,54.4997673,16,54.4997673S13.2358208,53.3966942,13.2358208,53.3966942z"/>
		<g>
			<g>
				<path style="fill:#F5F5F5;" d="M17.8217258,47.6355438c0-0.32967,0.5181885-1.6939697,2.2311516-1.6939697
					c1.7129612,0,2.4878292,1.3346405,2.4878292,1.3346405s-0.9360542,1.2744179-2.487978,1.2490997
					C19.4077682,48.5147934,17.8217258,47.9652138,17.8217258,47.6355438z"/>
				<ellipse style="fill:#231815;" cx="19.9640255" cy="47.1121788" rx="1.1944865" ry="1.3615568"/>
				<ellipse style="fill:#3E3A39;" cx="19.9640255" cy="47.1121788" rx="0.9305195" ry="1.141019"/>
				<ellipse style="fill:#231815;" cx="19.9640255" cy="47.1121788" rx="0.4513893" ry="0.5535012"/>
				<path style="fill:#231815;" d="M20.0528774,45.7044296c-1.8471889,0.1684265-2.4272671,1.6621246-2.4878311,1.9311104
					c0.1840076-0.1980743,1.1390972-1.4954262,2.3989792-1.4784775c1.589447,0.0213814,2.3002567,1.1760178,2.3002567,1.1760178
					c-0.0219822,0.0342674-0.5189648,0.7407761-0.5189648,0.7407761s0.6877422-0.4030495,1.2657566-0.9450645
					C23.0110741,47.1287918,21.9000645,45.5360031,20.0528774,45.7044296z"/>
				<ellipse style="fill:#FFFFFF;" cx="19.2792015" cy="46.6207237" rx="0.3225295" ry="0.2886593"/>
			</g>
			<g>
				<path style="fill:#F5F5F5;" d="M14.1782732,47.6355438c0-0.32967-0.5181866-1.6939697-2.2311497-1.6939697
					s-2.4878311,1.3346405-2.4878311,1.3346405s0.9360542,1.2744179,2.4879799,1.2490997
					C12.5922308,48.5147934,14.1782732,47.9652138,14.1782732,47.6355438z"/>
				<ellipse style="fill:#231815;" cx="12.0359745" cy="47.1121788" rx="1.1944865" ry="1.3615568"/>
				<ellipse style="fill:#3E3A39;" cx="12.0359745" cy="47.1121788" rx="0.9305195" ry="1.141019"/>
				<ellipse style="fill:#231815;" cx="12.0359745" cy="47.1121788" rx="0.4513893" ry="0.5535012"/>
				<path style="fill:#231815;" d="M11.9471235,45.7044296c1.8471889,0.1684265,2.4272661,1.6621246,2.4878311,1.9311104
					c-0.1840076-0.1980743-1.1390991-1.4954262-2.3989801-1.4784775c-1.589447,0.0213814-2.3002558,1.1760178-2.3002558,1.1760178
					c0.0219812,0.0342674,0.5189638,0.7407761,0.5189638,0.7407761s-0.6877422-0.4030495-1.2657566-0.9450645
					C8.9889259,47.1287918,10.0999346,45.5360031,11.9471235,45.7044296z"/>
				<ellipse style="fill:#FFFFFF;" cx="11.3511515" cy="46.6207237" rx="0.3225295" ry="0.2886593"/>
			</g>
		</g>
		<g>
			<path style="fill:#231815;" d="M14.9534931,44.7603073c0,0-2.5738401-2.3746033-5.8547792-0.2426949
				c0,0,2.2344332-0.8078537,4.8931246,0.5140877C13.9918385,45.0317001,14.6565123,45.1152725,14.9534931,44.7603073z"/>
			<path style="fill:#231815;" d="M17.0465069,44.7603073c0,0,2.5738392-2.3746033,5.8547783-0.2426949
				c0,0-2.2344322-0.8078537-4.8931236,0.5140877C18.0081615,45.0317001,17.3434887,45.1152725,17.0465069,44.7603073z"/>
		</g>
		<linearGradient id="SVGID_2_" gradientUnits="userSpaceOnUse" x1="15.5220461" y1="51.5990181" x2="15.5220461" y2="48.4343414">
			<stop  offset="0" style="stop-color:#FFFFFF;stop-opacity:0.05"/>
			<stop  offset="0.5" style="stop-color:#FFFFFF;stop-opacity:0.4"/>
			<stop  offset="1" style="stop-color:#FFFFFF;stop-opacity:0.05"/>
		</linearGradient>
		<path style="fill:url(#SVGID_2_);" d="M16.0000057,50.0166817c0,0.8739014-0.5712309,1.5823364-0.8270073,1.5823364
			s-0.075633-0.9817696,0.0661602-1.8295784c0.1323214-0.7911682,0.240428-1.3350983,0.4962044-1.3350983
			S16.0000057,49.1427803,16.0000057,50.0166817z"/>
	</g>
	<g>
		<g>
			<linearGradient id="SVGID_3_" gradientUnits="userSpaceOnUse" x1="15.970439" y1="32.9825096" x2="15.970439" y2="51.3264198">
				<stop  offset="0.1504425" style="stop-color:#714E2D"/>
				<stop  offset="0.9955752" style="stop-color:#312214"/>
			</linearGradient>
			<path style="fill:url(#SVGID_3_);" d="M22.5838566,34.8822479c-1.5881805-0.8247185-5.9077015-3.2587223-7.6338682-0.8912773
				c-1.6175852-1.7141266-5.1308079,0.6007767-7.4466305,2.7653732c-3.0424204,2.84375-1.4926567,10.1245079-1.4926567,10.1245079
				l2.4869976,4.4455681L8.4014721,48.98172L8.125,46.8923111L8.3984375,45.26371
				c0.0652933-0.3944206-0.0182295-2.6922607,0.3098955-4.0776787c0.4242735,3.71875,1.75,4.3511124,1.75,4.3511124
				S10.057292,42.1546631,10.75,39.9464493c0.182292,3.7552071,2.3234758,5.5906944,2.3234758,5.5906944
				s-0.4746981-2.3256645-0.3911839-5.4813194c1.130208,3.71875,4.3294268,6.2680969,4.3294268,6.2680969
				C17.75,44.2428741,17.75,41.0037384,17.75,41.0037384l1.4462223,4.8333473c0,0,0.776165-1.9675407,0.4921875-6.753067
				c0.5772152,1.2270126,1.6086922,5.0223045,1.9494705,6.2279091c0,0,0.8881607-1.1798363,1.1261692-3.2520943
				c0.2469273,1.8237381,1.2203255,4.4326363,1.2203255,4.4326363L23.65625,48.76371l-0.1535168,2.5627098l2.4865646-4.4455681
				C25.9892979,46.8808517,27.9045124,37.6451836,22.5838566,34.8822479z"/>
			<path style="fill:#2E1E15;" d="M23.1879883,52.4013672l0.21875-3.6523438l0.3212891-2.2294922
				c-0.1152344-0.3134766-0.6245117-1.7314453-0.9624023-3.140625c-0.3564453,1.3105469-0.8989258,2.0439453-0.9282227,2.0830078
				l-0.3032227,0.4023438l-0.2788086-0.9902344c-0.2919922-1.0449219-0.8041992-2.8769531-1.2578125-4.2519531
				c0.0576172,3.6689453-0.5400391,5.2333984-0.5688477,5.3066406l-0.2646484,0.671875l-1.2246094-4.0917969
				c-0.0800781,1.1347656-0.2646484,2.6943359-0.6918945,3.8994141l-0.1176758,0.3300781l-0.2739258-0.21875
				c-0.1171875-0.0927734-2.5649414-2.0693359-3.9267578-5.0996094c0.0522461,2.3847656,0.3852539,4.0478516,0.3891602,4.0673828
				l0.1455078,0.7138672l-0.5532227-0.4746094c-0.0776367-0.0664063-1.6499023-1.4453125-2.2192383-4.2314453
				c-0.2265625,1.9189453,0.012207,3.9863281,0.0151367,4.0126953l0.0537109,0.4501953l-0.409668-0.1953125
				c-0.0493164-0.0234375-1.0332031-0.5224609-1.6088867-2.9121094c-0.0380859,0.5771484-0.0498047,1.1523438-0.059082,1.6083984
				c-0.0087891,0.4267578-0.0146484,0.7080078-0.0375977,0.8457031l-0.2670898,1.5927734l0.2714844,2.0507813l0.140625,3.4130859
				l-3.0239258-5.4287109c-0.0644531-0.3027344-1.543457-7.4521484,1.5664063-10.359375
				c0.8608398-0.8046875,3.847168-3.4277344,6.1435547-3.4277344c0.5708008,0,1.0566406,0.1611328,1.4482422,0.4804688
				c0.5322266-0.5927734,1.28125-0.8935547,2.2304688-0.8935547c1.8681641,0,4.0957031,1.1679688,5.2919922,1.7958984
				l0.2524414,0.1318359c5.4257813,2.8183594,3.6147461,11.8867188,3.534668,12.2714844l-0.0263672,0.0712891L23.1879883,52.4013672
				z M6.2480469,46.7929688l1.9570313,3.4980469l-0.0537109-1.2988281l-0.2792969-2.1044922l0.2797852-1.6650391
				c0.0170898-0.1025391,0.0234375-0.4130859,0.0307617-0.7734375c0.019043-0.9287109,0.0483398-2.3310547,0.2827148-3.3212891
				l0.3295898-1.3916016l0.1621094,1.4208984c0.246582,2.1611328,0.8027344,3.2373047,1.1923828,3.7451172
				c-0.0810547-1.109375-0.1591797-3.3701172,0.3618164-5.03125l0.4204102-1.3388672l0.0678711,1.4023438
				c0.1166992,2.4003906,1.0673828,4.0029297,1.6914063,4.8066406c-0.1347656-0.9628906-0.3125-2.6650391-0.2587891-4.6923828
				l0.0410156-1.5410156l0.4482422,1.4755859c0.9003906,2.9619141,3.1762695,5.1962891,3.96875,5.90625
				C17.4926758,43.875,17.5,41.0341797,17.5,41.0039063V39.296875l1.6801758,5.6142578
				c0.1977539-0.9794922,0.434082-2.8544922,0.2587891-5.8125l-0.0766602-1.2958984l0.5522461,1.1748047
				c0.5146484,1.0927734,1.3798828,4.1796875,1.8076172,5.7089844c0.269043-0.5117188,0.6518555-1.421875,0.793457-2.6552734
				l0.2285156-1.9863281l0.2675781,1.9814453c0.2402344,1.7753906,1.1972656,4.3525391,1.2070313,4.3779297l0.0219727,0.0605469
				l-0.3369141,2.3349609l-0.0864258,1.4521484l1.934082-3.4580078c0.1210938-0.6328125,1.6416016-9.1318359-3.2827148-11.6904297
				l-0.2539063-0.1328125c-1.1586914-0.6074219-3.3149414-1.7382813-5.0600586-1.7382813
				c-0.9033203,0-1.5581055,0.296875-2.0024414,0.90625l-0.1772461,0.2431641l-0.206543-0.21875
				c-0.3286133-0.3486328-0.7514648-0.5175781-1.2924805-0.5175781c-2.1132813,0-4.9750977,2.5205078-5.8017578,3.2929688
				C4.8754883,39.5546875,6.1376953,46.2392578,6.2480469,46.7929688z"/>
		</g>
		<linearGradient id="SVGID_4_" gradientUnits="userSpaceOnUse" x1="15.6050825" y1="35.9931297" x2="15.6050825" y2="45.5371437">
			<stop  offset="0" style="stop-color:#8F6B3F"/>
			<stop  offset="0.9955752" style="stop-color:#714E2D"/>
		</linearGradient>
		<path style="fill:url(#SVGID_4_);" d="M15.1796875,35.9931297c0,0-2.1328125,5.5939445,1.4765625,9.544014
			C16.65625,45.5371437,14.771554,41.7592049,15.1796875,35.9931297z"/>
		<linearGradient id="SVGID_5_" gradientUnits="userSpaceOnUse" x1="21.297102" y1="36.4561195" x2="21.297102" y2="44.498085">
			<stop  offset="0" style="stop-color:#8F6B3F"/>
			<stop  offset="0.9955752" style="stop-color:#714E2D"/>
		</linearGradient>
		<path style="fill:url(#SVGID_5_);" d="M20.3086967,36.4561195c0,0,3.2928658,3.2294655,1.3788033,8.0419655
			C21.6875,44.498085,21.9923935,40.2266541,20.3086967,36.4561195z"/>
		<linearGradient id="SVGID_6_" gradientUnits="userSpaceOnUse" x1="6.9522572" y1="37.5219688" x2="6.9522572" y2="48.8183975">
			<stop  offset="0" style="stop-color:#8F6B3F"/>
			<stop  offset="0.9955752" style="stop-color:#714E2D"/>
		</linearGradient>
		<path style="fill:url(#SVGID_6_);" d="M7.7421875,37.5219688c0,0-3.5546875,4.9526787,0,11.2964287
			C7.7421875,48.8183975,5.71875,41.7875938,7.7421875,37.5219688z"/>
		<linearGradient id="SVGID_7_" gradientUnits="userSpaceOnUse" x1="24.5428448" y1="37.0844688" x2="24.5428448" y2="48.4826927">
			<stop  offset="0" style="stop-color:#8F6B3F"/>
			<stop  offset="0.9955752" style="stop-color:#714E2D"/>
		</linearGradient>
		<path style="fill:url(#SVGID_7_);" d="M23.875,37.0844688c0,0,2.5338535,4.5314865,0.6216545,11.3982239
			C24.4966545,48.4826927,25.4609375,39.9282188,23.875,37.0844688z"/>
		<linearGradient id="SVGID_8_" gradientUnits="userSpaceOnUse" x1="9.8418369" y1="36.4561195" x2="9.8418369" y2="43.3735313">
			<stop  offset="0" style="stop-color:#8F6B3F"/>
			<stop  offset="0.9955752" style="stop-color:#714E2D"/>
		</linearGradient>
		<path style="fill:url(#SVGID_8_);" d="M10.421875,36.4561195c0,0-1.9809504,2.0603142-0.765625,6.9174118
			C9.65625,43.3735313,9.6015625,37.6324539,10.421875,36.4561195z"/>
	</g>
</g>
<g>
</g>
<g>
</g>
<g>
</g>
<g>
</g>
<g>
</g>
<g>
</g>
</svg>
