<?xml version="1.0" encoding="utf-8"?>
<!-- Generator: Adobe Illustrator 17.0.0, SVG Export Plug-In . SVG Version: 6.00 Build 0)  -->
<!DOCTYPE svg PUBLIC "-//W3C//DTD SVG 1.1//EN" "http://www.w3.org/Graphics/SVG/1.1/DTD/svg11.dtd">
<svg version="1.1" id="レイヤー_1" xmlns="http://www.w3.org/2000/svg" xmlns:xlink="http://www.w3.org/1999/xlink" x="0px"
	 y="0px" width="64px" height="64px" viewBox="0 0 64 64" style="enable-background:new 0 0 64 64;" xml:space="preserve">
<g>
	<g>
		<linearGradient id="SVGID_1_" gradientUnits="userSpaceOnUse" x1="16" y1="58.8956757" x2="16" y2="86">
			<stop  offset="0" style="stop-color:#E1007F"/>
			<stop  offset="1" style="stop-color:#C10D23"/>
		</linearGradient>
		<path style="fill:url(#SVGID_1_);" d="M21.25,58.8956757c0,0,8.75,0,8.75,10.5S30,86,30,86H2c0,0,0-6.1043243,0-16.6043243
			s8.75-10.5,8.75-10.5H21.25z"/>
		<path style="fill:#231815;" d="M30.25,86.25H1.75V69.3955078c0-10.6269531,8.9101563-10.75,9-10.75h10.5
			c0.0898438,0,9,0.1230469,9,10.75V86.25z M2.25,85.75h27.5V69.3955078c0-10.1337891-8.152832-10.25-8.5-10.25h-10.5
			c-0.3466797,0.0009766-8.5,0.1308594-8.5,10.25V85.75z"/>
	</g>
	<g>
		<g>
			<path style="fill:#BA713A;" d="M20.3087234,52.5150337H16h-4.30867c0,0-0.2121811,5.3482018-0.94133,6.3386116
				c0,0,1.859375,1.5185928,5.25,1.5185928s5.25-1.5185928,5.25-1.5185928
				C20.5208511,57.8632355,20.3087234,52.5150337,20.3087234,52.5150337z"/>
			<path style="fill:#231815;" d="M16,60.6220703c-3.4399414,0-5.3295898-1.5107422-5.4082031-1.5751953l-0.184082-0.1503906
				l0.1411133-0.1914063c0.5605469-0.7617188,0.8344727-4.734375,0.8925781-6.2001953l0.0097656-0.2402344h9.0976563
				l0.0097656,0.2402344c0.0581055,1.4658203,0.3320313,5.4384766,0.8925781,6.2001953l0.1411133,0.1914063l-0.184082,0.1503906
				C21.3295898,59.1113281,19.4404297,60.6220703,16,60.6220703z M11.0791016,58.7822266
				C11.6030273,59.1337891,13.3144531,60.1220703,16,60.1220703s4.3969727-0.9882813,4.9208984-1.3398438
				c-0.5893555-1.2382813-0.8017578-4.9482422-0.8515625-6.0175781h-8.1386719
				C11.8808594,53.8339844,11.668457,57.5439453,11.0791016,58.7822266z"/>
		</g>
		<g>
			<path style="fill:#BA713A;" d="M24.5396786,45.9985352c0,0,1.7079353-1.3697052,1.7079353,2.7394066
				s-5.123806,4.1091118-5.123806,4.1091118L24.5396786,45.9985352z"/>
			<path style="fill:#231815;" d="M21.1240234,53.0966797h-0.4038086l3.6630859-7.2939453
				c0.034668-0.0273438,0.3530273-0.2734375,0.7573242-0.2734375c0.9003906,0,1.3569336,1.0791016,1.3569336,3.2089844
				C26.4975586,53.046875,21.1777344,53.0966797,21.1240234,53.0966797z M24.7353516,46.1660156l-3.1972656,6.4101563
				c1.184082-0.0957031,4.4594727-0.6503906,4.4594727-3.8378906c0-1.7216797-0.3125-2.7089844-0.8569336-2.7089844
				C24.9692383,46.0292969,24.8071289,46.1191406,24.7353516,46.1660156z"/>
		</g>
		<g>
			<path style="fill:#BA713A;" d="M7.4603214,45.9985352c0,0-1.7079358-1.3697052-1.7079358,2.7394066
				s5.1238074,4.1091118,5.1238074,4.1091118L7.4603214,45.9985352z"/>
			<path style="fill:#231815;" d="M11.2797852,53.0966797h-0.4038086c-0.0537109,0-5.3735352-0.0498047-5.3735352-4.3583984
				c0-2.1298828,0.456543-3.2089844,1.3569336-3.2089844c0.4042969,0,0.7226563,0.2460938,0.7573242,0.2734375l0.0673828,0.0839844
				L11.2797852,53.0966797z M6.859375,46.0292969c-0.5444336,0-0.8569336,0.9873047-0.8569336,2.7089844
				c0,3.1875,3.2753906,3.7421875,4.4594727,3.8378906l-3.1972656-6.4101563
				C7.1928711,46.1191406,7.0322266,46.0292969,6.859375,46.0292969z"/>
		</g>
		<g>
			<path style="fill:#BA713A;" d="M16,35.85746c-4.8828602,0-9.1681786,1.3880348-8.1380997,11.6502342
				C8.7096348,55.9528351,14.1725044,57.7016563,16,57.7016563c1.8274975,0,7.2903652-1.7488213,8.1381016-10.1939621
				C25.1682281,37.2454948,20.8828602,35.85746,16,35.85746z"/>
			<path style="fill:#231815;" d="M16,57.9511719c-2.0419922,0-7.5292969-1.8720703-8.3867188-10.4179688
				c-0.4711914-4.6962891,0.1240234-7.8896484,1.8203125-9.7646484C11.1665039,35.8535156,13.8530273,35.6074219,16,35.6074219
				s4.8339844,0.2460938,6.5664063,2.1611328c1.6962891,1.875,2.2919922,5.0693359,1.8203125,9.7646484
				C23.5292969,56.0791016,18.0419922,57.9511719,16,57.9511719z M16,36.1074219
				c-2.1704102,0-4.6040039,0.2373047-6.1953125,1.9960938c-1.5961914,1.7646484-2.1503906,4.8320313-1.6943359,9.3789063
				c0.8208008,8.1777344,5.9736328,9.96875,7.8896484,9.96875s7.0688477-1.7910156,7.8896484-9.96875
				c0.4560547-4.5458984-0.0976563-7.6142578-1.6938477-9.3789063C20.6044922,36.3447266,18.1708984,36.1074219,16,36.1074219z"/>
		</g>
	</g>
	<g>
		<path style="fill:#C10D23;" d="M13.2358208,53.3966942c0,0,1.3820896,0.5656815,2.7641792,0.5656815
			s2.7641792-0.5656815,2.7641792-0.5656815S18.520834,54.4997673,16,54.4997673S13.2358208,53.3966942,13.2358208,53.3966942z"/>
		<g>
			<g>
				<path style="fill:#F5F5F5;" d="M17.8217258,47.6355438c0-0.32967,0.5181885-1.6939697,2.2311516-1.6939697
					c1.7129612,0,2.4878292,1.3346405,2.4878292,1.3346405s-0.9360542,1.2744179-2.487978,1.2490997
					C19.4077682,48.5147934,17.8217258,47.9652138,17.8217258,47.6355438z"/>
				<ellipse style="fill:#231815;" cx="19.9640255" cy="47.1121788" rx="1.1944865" ry="1.3615568"/>
				<ellipse style="fill:#3E3A39;" cx="19.9640255" cy="47.1121788" rx="0.9305195" ry="1.141019"/>
				<ellipse style="fill:#231815;" cx="19.9640255" cy="47.1121788" rx="0.4513893" ry="0.5535012"/>
				<path style="fill:#231815;" d="M23.0110474,47.128788c0,0-0.5829468-0.5222969-1.2454224-0.9378052
					c0.4337158,0.1662025,0.90625,0.3297539,0.90625,0.3297539C19.6005859,44.1824341,17.75,46.7473221,17.75,46.7473221
					c0.3242798-0.2760315,0.6589966-0.4689674,0.9940186-0.609539c-0.8234863,0.5134964-1.1362305,1.3078804-1.1789551,1.4977722
					c0.18396-0.1981125,1.1390991-1.4954414,2.3989868-1.4784851c1.5894165,0.0213585,2.3002319,1.1759796,2.3002319,1.1759796
					c-0.0219727,0.0343018-0.5189819,0.7407951-0.5189819,0.7407951s0.5359497-0.1621933,0.9265747-0.4081955l-0.2311401-0.0632973
					C22.6246948,47.4644966,22.822876,47.3052826,23.0110474,47.128788z"/>
				<ellipse style="fill:#FFFFFF;" cx="19.2792015" cy="46.6207237" rx="0.3225295" ry="0.2886593"/>
			</g>
			<g>
				<path style="fill:#F5F5F5;" d="M14.1782732,47.6355438c0-0.32967-0.5181866-1.6939697-2.2311497-1.6939697
					s-2.4878311,1.3346405-2.4878311,1.3346405s0.9360542,1.2744179,2.4879799,1.2490997
					C12.5922308,48.5147934,14.1782732,47.9652138,14.1782732,47.6355438z"/>
				<ellipse style="fill:#231815;" cx="12.0359745" cy="47.1121788" rx="1.1944865" ry="1.3615568"/>
				<ellipse style="fill:#3E3A39;" cx="12.0359745" cy="47.1121788" rx="0.9305195" ry="1.141019"/>
				<ellipse style="fill:#231815;" cx="12.0359745" cy="47.1121788" rx="0.4513893" ry="0.5535012"/>
				<path style="fill:#231815;" d="M8.9889526,47.128788c0,0,0.5829468-0.5222969,1.2454224-0.9378052
					c-0.4337158,0.1662025-0.90625,0.3297539-0.90625,0.3297539C12.3994141,44.1824341,14.25,46.7473221,14.25,46.7473221
					c-0.3242798-0.2760315-0.6589966-0.4689674-0.9940186-0.609539c0.8234863,0.5134964,1.1362305,1.3078804,1.1789551,1.4977722
					c-0.18396-0.1981125-1.1390991-1.4954414-2.3989868-1.4784851c-1.5894165,0.0213585-2.3002319,1.1759796-2.3002319,1.1759796
					c0.0219727,0.0343018,0.5189819,0.7407951,0.5189819,0.7407951S9.71875,47.9116516,9.328125,47.6656494l0.2311401-0.0632973
					C9.3753052,47.4644966,9.177124,47.3052826,8.9889526,47.128788z"/>
				<ellipse style="fill:#FFFFFF;" cx="11.3511515" cy="46.6207237" rx="0.3225295" ry="0.2886593"/>
			</g>
		</g>
		<g>
			<path style="fill:#231815;" d="M22.671875,44.8615341c0,0-2.7396278-1.3087616-5.3099403,0.1678009
				C17.3619347,45.029335,18.7641792,42.3333321,22.671875,44.8615341z"/>
			<path style="fill:#231815;" d="M9.328125,44.8615341c0,0,2.7396278-1.3087616,5.3099403,0.1678009
				C14.6380653,45.029335,13.2358208,42.3333321,9.328125,44.8615341z"/>
		</g>
		<linearGradient id="SVGID_2_" gradientUnits="userSpaceOnUse" x1="15.5220461" y1="51.5990181" x2="15.5220461" y2="48.4343414">
			<stop  offset="0" style="stop-color:#FFFFFF;stop-opacity:0.05"/>
			<stop  offset="0.5" style="stop-color:#FFFFFF;stop-opacity:0.4"/>
			<stop  offset="1" style="stop-color:#FFFFFF;stop-opacity:0.05"/>
		</linearGradient>
		<path style="fill:url(#SVGID_2_);" d="M16.0000057,50.0166817c0,0.8739014-0.5712309,1.5823364-0.8270073,1.5823364
			s-0.075633-0.9817696,0.0661602-1.8295784c0.1323214-0.7911682,0.240428-1.3350983,0.4962044-1.3350983
			S16.0000057,49.1427803,16.0000057,50.0166817z"/>
	</g>
	<g>
		<g>
			<linearGradient id="SVGID_3_" gradientUnits="userSpaceOnUse" x1="15.7227507" y1="32.9719353" x2="15.7227507" y2="57.0617294">
				<stop  offset="0.1504425" style="stop-color:#714E2D"/>
				<stop  offset="0.9955752" style="stop-color:#312214"/>
			</linearGradient>
			<path style="fill:url(#SVGID_3_);" d="M22.5838566,34.8822479c-1.5598278-0.8771591-5.9077015-3.2587223-7.6338682-0.8912773
				c-1.6175852-1.7141266-5.6385546,0.1616478-7.4466305,2.7653732c-2.7837825,4.0087929-2.2325363,7.1207886-1.7854452,10.6248207
				C6.1650038,50.8851929,8.90625,57.0617294,8.90625,57.0617294S6.9522572,45.7793808,8.708333,41.1860313
				C8.125,45.2584991,8.5625,46.8586349,8.5625,46.8586349c6.42729-0.7867775,9.1875-9.3366661,9.1875-9.3366661
				s1,5.3927803,5.34375,8.7576637c0.28125-2.9061012,0.21875-4.5523834,0.21875-4.5523834s0.534893,2.1443214,0.671875,4.7652206
				C24,48.5397491,23.5,57.0617294,23.5,57.0617294s2.046524-5.6763992,2.4088783-9.9570007S26.5,37.0844688,22.5838566,34.8822479z
				"/>
			<path style="fill:#2E1E15;" d="M9.4970703,59.0097656l-0.8193359-1.8466797
				c-0.1123047-0.2539063-2.7612305-6.2509766-3.2080078-9.7509766l-0.0581055-0.4501953
				c-0.4277344-3.3076172-0.8325195-6.4326172,1.8862305-10.3486328c1.3754883-1.9804688,3.9794922-3.5322266,5.9287109-3.5322266
				c0.6777344,0,1.2583008,0.1875,1.6972656,0.5449219c0.5380859-0.5996094,1.2978516-0.9038086,2.2631836-0.9038086
				c2.0649414,0,4.574707,1.4106445,5.5195313,1.9418945c3.7802734,2.1259766,3.8925781,7.2451172,3.4511719,12.4619141
				c-0.3608398,4.2646484-2.4018555,9.9628906-2.4223633,10.0205078l-0.5859375,1.625l0.1010742-1.7246094
				C23.2553711,56.9619141,23.75,48.5107422,23.734375,46.4941406c-0.0439453-0.8408203-0.1303711-1.6357422-0.2270508-2.3242188
				c-0.0341797,0.6064453-0.0859375,1.3203125-0.1645508,2.1337891l-0.0439453,0.4511719l-0.3583984-0.2783203
				c-3.4057617-2.6376953-4.7797852-6.4414063-5.2402344-8.0957031c-0.8623047,2.1660156-3.6894531,8.0634766-9.1074219,8.7255859
				L8.378418,47.1328125l-0.0571289-0.2080078c-0.0053711-0.0214844-0.0493164-0.1865234-0.090332-0.5234375
				c-0.0581055,4.875,0.9077148,10.5380859,0.9213867,10.6171875L9.4970703,59.0097656z M22.972168,39.3300781l0.5830078,2.3369141
				c0.0053711,0.0214844,0.5419922,2.1972656,0.6787109,4.8125c0.0117188,1.4609375-0.2304688,6.0722656-0.3769531,8.7099609
				c0.6308594-2.015625,1.5708008-5.3671875,1.8027344-8.1064453c0.4272461-5.0488281,0.3359375-9.9960938-3.1982422-11.9833984
				c-0.9135742-0.5136719-3.340332-1.8779297-5.2744141-1.8779297c-0.9194336,0-1.5849609,0.2998047-2.034668,0.9169922
				l-0.1772461,0.2431641l-0.206543-0.21875c-0.3642578-0.3857422-0.8833008-0.5820313-1.5419922-0.5820313
				c-1.8022461,0-4.2260742,1.4570313-5.5175781,3.3173828c-2.6088867,3.7578125-2.2348633,6.6503906-1.8012695,10
				l0.0581055,0.4511719c0.2866211,2.2460938,1.546875,5.6494141,2.3891602,7.7460938
				c-0.4755859-3.4736328-1.2055664-10.5322266,0.1201172-13.9990234l0.7978516-2.0869141l-0.3168945,2.2109375
				c-0.4506836,3.1455078-0.2832031,4.8037109-0.1938477,5.3574219c6.0356445-0.9316406,8.7231445-9.0507813,8.75-9.1337891
				l0.3027344-0.9384766l0.1806641,0.9697266c0.0097656,0.0517578,0.9785156,5.0390625,4.8920898,8.3164063
				c0.2270508-2.5664063,0.1757813-4.0400391,0.1748047-4.0546875L22.972168,39.3300781z"/>
		</g>
		<linearGradient id="SVGID_4_" gradientUnits="userSpaceOnUse" x1="13.5836506" y1="35.85746" x2="13.5836506" y2="45.029335">
			<stop  offset="0" style="stop-color:#8F6B3F"/>
			<stop  offset="0.9955752" style="stop-color:#714E2D"/>
		</linearGradient>
		<path style="fill:url(#SVGID_4_);" d="M16.7454262,35.85746c0,0-1.9329262,2.8385391-6.3235512,9.171875
			C10.421875,45.029335,16,42.0709991,16.7454262,35.85746z"/>
		<linearGradient id="SVGID_5_" gradientUnits="userSpaceOnUse" x1="21.0626945" y1="35.85746" x2="21.0626945" y2="44.3045807">
			<stop  offset="0" style="stop-color:#8F6B3F"/>
			<stop  offset="0.9955752" style="stop-color:#714E2D"/>
		</linearGradient>
		<path style="fill:url(#SVGID_5_);" d="M19.6884098,35.85746c0,0,3.1668015,2.4598465,2.7019882,8.4471207
			C22.390398,44.3045807,21.3721066,39.6279945,19.6884098,35.85746z"/>
		<linearGradient id="SVGID_6_" gradientUnits="userSpaceOnUse" x1="6.8748183" y1="37.5219688" x2="6.8748183" y2="50.8834991">
			<stop  offset="0" style="stop-color:#8F6B3F"/>
			<stop  offset="0.9955752" style="stop-color:#714E2D"/>
		</linearGradient>
		<path style="fill:url(#SVGID_6_);" d="M7.7421875,37.5219688c0,0-3.738708,4.6115303-0.2388296,13.3615303
			C7.5033579,50.8834991,5.71875,41.7875938,7.7421875,37.5219688z"/>
		<linearGradient id="SVGID_7_" gradientUnits="userSpaceOnUse" x1="24.6579208" y1="37.0844688" x2="24.6579208" y2="50.0709991">
			<stop  offset="0" style="stop-color:#8F6B3F"/>
			<stop  offset="0.9955752" style="stop-color:#714E2D"/>
		</linearGradient>
		<path style="fill:url(#SVGID_7_);" d="M23.875,37.0844688c0,0,3.0625,3.9240303,0.6216545,12.9865303
			C24.4966545,50.0709991,25.4371853,43.258503,23.875,37.0844688z"/>
		<linearGradient id="SVGID_8_" gradientUnits="userSpaceOnUse" x1="10.9501095" y1="36.2023277" x2="10.9501095" y2="44.3648682">
			<stop  offset="0" style="stop-color:#8F6B3F"/>
			<stop  offset="0.9955752" style="stop-color:#714E2D"/>
		</linearGradient>
		<path style="fill:url(#SVGID_8_);" d="M12.572094,36.2023277c0,0-2.572094,0.8821411-3.243969,8.1625404
			C9.328125,44.3648682,10.421875,39.1353226,12.572094,36.2023277z"/>
	</g>
</g>
<g>
</g>
<g>
</g>
<g>
</g>
<g>
</g>
<g>
</g>
<g>
</g>
</svg>
