<?xml version="1.0" encoding="utf-8"?>
<!-- Generator: Adobe Illustrator 17.0.0, SVG Export Plug-In . SVG Version: 6.00 Build 0)  -->
<!DOCTYPE svg PUBLIC "-//W3C//DTD SVG 1.1//EN" "http://www.w3.org/Graphics/SVG/1.1/DTD/svg11.dtd">
<svg version="1.1" id="レイヤー_1" xmlns="http://www.w3.org/2000/svg" xmlns:xlink="http://www.w3.org/1999/xlink" x="0px"
	 y="0px" width="64px" height="64px" viewBox="0 0 64 64" style="enable-background:new 0 0 64 64;" xml:space="preserve">
<g>
	<g>
		<g>
			
				<linearGradient id="SVGID_1_" gradientUnits="userSpaceOnUse" x1="20.4424152" y1="13.6743917" x2="20.4424152" y2="34.173851" gradientTransform="matrix(0.5411658 -0.3769579 0.3417197 0.4905775 5.0668054 23.4878254)">
				<stop  offset="0.1504425" style="stop-color:#6E4E30"/>
				<stop  offset="0.9955752" style="stop-color:#2E2114"/>
			</linearGradient>
			<path style="fill:url(#SVGID_1_);" d="M26.2895679,25.6069622c-2.6828289-2.2322769-4.6041679-3.5-4.6041679-3.5
				l-2.0076885,1.1666679c0,0,0.919508,0.8895512,1.8618565,4.25c1.104166,3.9375,3.1811771,5.1011028,3.1811771,5.1011028
				c-0.2462673-0.8167305-0.2436771-1.7469368-0.2436771-1.7469368c0.6005611,1.9166679,2.6458321,2.1458321,2.6458321,2.1458321
				s0.7493515-1.4583054,0.25-2.7499981c0,0,0.3541679,0.5,1.2291679,0.75
				C28.6020679,31.0236301,29.018734,27.8777962,26.2895679,25.6069622z"/>
			<path style="fill:#2B1D15;" d="M27.2666016,33.2910156l-0.1713867-0.0195313
				c-0.0703125-0.0078125-1.375-0.1669922-2.2519531-1.2060547c0.0302734,0.1616211,0.0683594,0.3271484,0.1166992,0.4868164
				l0.1787109,0.5932617l-0.5400391-0.3027344c-0.0883789-0.0498047-2.1806641-1.2602539-3.2998047-5.2519531
				c-0.9033203-3.2216797-1.7875977-4.1303711-1.7963867-4.1391602l-0.2304688-0.2294922l2.421875-1.4091797l0.1293945,0.0854492
				c0.0195313,0.0126953,1.9638672,1.3007813,4.6264648,3.5161133c2.8027344,2.3325195,2.4179688,5.5078125,2.4003906,5.6416016
				l-0.0380859,0.2871094l-0.2788086-0.0795898c-0.3061523-0.0874023-0.5546875-0.2041016-0.7524414-0.3227539
				c0.1054688,1.125-0.4086914,2.1450195-0.4355469,2.1967773L27.2666016,33.2910156z M24.2314453,29.2578125l0.484375,1.5454102
				c0.4458008,1.4233398,1.777832,1.8359375,2.2592773,1.9399414c0.1655273-0.3994141,0.5234375-1.4511719,0.1645508-2.3798828
				l-0.7241211-1.8745117l1.1616211,1.6401367c0.0014648,0.0024414,0.2402344,0.3212891,0.7949219,0.550293
				c0.015625-0.8276367-0.1469727-3.1362305-2.2421875-4.8798828c-2.2519531-1.8740234-3.9824219-3.0766602-4.4541016-3.3974609
				l-1.6196289,0.940918c0.3339844,0.4584961,1.0263672,1.6245117,1.7241211,4.1132813
				c0.7226563,2.5771484,1.8779297,3.9379883,2.5439453,4.5454102c-0.097168-0.5942383-0.097168-1.0957031-0.097168-1.1240234
				L24.2314453,29.2578125z"/>
		</g>
		<g>
			
				<linearGradient id="SVGID_2_" gradientUnits="userSpaceOnUse" x1="20.4424152" y1="13.6743917" x2="20.4424152" y2="34.173851" gradientTransform="matrix(-0.5411658 -0.3769579 -0.3417197 0.4905775 26.9331951 23.4878254)">
				<stop  offset="0.1504425" style="stop-color:#6E4E30"/>
				<stop  offset="0.9955752" style="stop-color:#2E2114"/>
			</linearGradient>
			<path style="fill:url(#SVGID_2_);" d="M5.710433,25.6069622c2.6828279-2.2322769,4.604167-3.5,4.604167-3.5l2.0076885,1.1666679
				c0,0-0.919508,0.8895512-1.8618555,4.25c-1.104167,3.9375-3.1811786,5.1011028-3.1811786,5.1011028
				c0.2462683-0.8167305,0.2436786-1.7469368,0.2436786-1.7469368c-0.6005621,1.9166679-2.6458335,2.1458321-2.6458335,2.1458321
				s-0.749351-1.4583054-0.25-2.7499981c0,0-0.3541665,0.5-1.2291667,0.75
				C3.3979328,31.0236301,2.9812663,27.8777962,5.710433,25.6069622z"/>
			<path style="fill:#2B1D15;" d="M4.7333984,33.2910156l-0.0786133-0.1533203
				c-0.0268555-0.0517578-0.5410156-1.0717773-0.4355469-2.1967773c-0.1977539,0.1186523-0.4462891,0.2353516-0.7524414,0.3227539
				l-0.2788086,0.0795898l-0.0380859-0.2871094c-0.0175781-0.1337891-0.4023438-3.309082,2.4003906-5.6416016
				c2.6625977-2.215332,4.6069336-3.503418,4.6264648-3.5161133l0.1293945-0.0854492l2.4272461,1.4101563l-0.2373047,0.2299805
				c-0.0073242,0.0073242-0.8916016,0.9160156-1.7949219,4.1376953c-1.1191406,3.9916992-3.2114258,5.2021484-3.2998047,5.2519531
				l-0.5400391,0.3027344l0.1787109-0.5932617c0.0483398-0.159668,0.0864258-0.3251953,0.1166992-0.4868164
				c-0.8769531,1.0390625-2.1816406,1.1982422-2.2519531,1.2060547L4.7333984,33.2910156z M5.5400391,28.6020508
				l-0.6796875,1.7612305c-0.359375,0.9296875-0.0004883,1.9824219,0.1655273,2.3813477
				c0.4833984-0.1010742,1.8085938-0.5048828,2.2583008-1.9414063l0.484375-1.5454102l0.0043945,1.6196289
				c0,0.0283203,0,0.5297852-0.097168,1.1240234c0.6660156-0.6074219,1.8212891-1.9682617,2.5439453-4.5454102
				c0.6977539-2.4887695,1.3901367-3.6547852,1.7241211-4.1132813l-1.6196289-0.940918
				c-0.4716797,0.3208008-2.2021484,1.5234375-4.4536133,3.3974609c-2.0957031,1.7436523-2.2583008,4.0522461-2.2426758,4.8798828
				c0.5546875-0.2290039,0.793457-0.5478516,0.7958984-0.5517578L5.5400391,28.6020508z"/>
		</g>
	</g>
	<g>
		<linearGradient id="SVGID_3_" gradientUnits="userSpaceOnUse" x1="16" y1="33.0236282" x2="16" y2="64">
			<stop  offset="0" style="stop-color:#F09400"/>
			<stop  offset="1" style="stop-color:#E75513"/>
		</linearGradient>
		<path style="fill:url(#SVGID_3_);" d="M22,33.0236282c0,0,10,0,10,12S32,64,32,64H0c0,0,0-6.9763718,0-18.9763718s10-12,10-12H22z
			"/>
		<path style="fill:#231815;" d="M32.25,64.25h-32.5V45.0234375c0-12.1098633,10.1474609-12.25,10.25-12.25h12
			c0.1025391,0,10.25,0.1401367,10.25,12.25V64.25z M0.25,63.75h31.5V45.0234375c0-11.6015625-9.3520508-11.7490234-9.75-11.75H10
			c-0.3979492,0.0009766-9.75,0.1484375-9.75,11.75V63.75z"/>
	</g>
	<g>
		<g>
			<path style="fill:#FFB743;" d="M20.9242554,25.0236301H16h-4.9241943c0,0-0.2424927,6.75-1.0758057,7.9999981
				c0,0,2.125,1.916626,6,1.916626s6-1.916626,6-1.916626C21.166687,31.7736301,20.9242554,25.0236301,20.9242554,25.0236301z"/>
			<path style="fill:#231815;" d="M16,35.1904297c-3.9257813,0-6.0776367-1.9003906-6.1674805-1.9814453l-0.1601563-0.1445313
				l0.1196289-0.1796875c0.6513672-0.9770508,0.9672852-6.0126953,1.0336914-7.8701172l0.0087891-0.2412109h10.3310547
				l0.0087891,0.2412109c0.0664063,1.8574219,0.3823242,6.8930664,1.0336914,7.8701172l0.1196289,0.1796875l-0.1601563,0.1445313
				C22.0776367,33.2900391,19.9257813,35.1904297,16,35.1904297z M10.3198242,32.9599609
				C10.8637695,33.3730469,12.8452148,34.6904297,16,34.6904297c3.1650391,0,5.1386719-1.3164063,5.6806641-1.7299805
				c-0.699707-1.4912109-0.9443359-6.409668-0.9970703-7.6870117h-9.3671875
				C11.2636719,26.5507813,11.019043,31.4682617,10.3198242,32.9599609z"/>
		</g>
		<g>
			<path style="fill:#FFB743;" d="M26,15.9379845c0,0,2-1.6124029,2,3.2248058S22,24,22,24L26,15.9379845z"/>
			<path style="fill:#231815;" d="M22,24.25h-0.4033203l4.246582-8.5068359
				c0.0395508-0.0317383,0.4018555-0.3129883,0.8608398-0.3129883c1.0258789,0,1.5458984,1.2558594,1.5458984,3.7324219
				C28.25,24.1918945,22.0625,24.25,22,24.25z M26.1962891,16.1044922l-3.7841797,7.6274414
				C23.7382813,23.6357422,27.75,23.0249023,27.75,19.1625977c0-2.0541992-0.3813477-3.2324219-1.0458984-3.2324219
				C26.4829102,15.9301758,26.2797852,16.0488281,26.1962891,16.1044922z"/>
		</g>
		<g>
			<path style="fill:#FFB743;" d="M6,15.9379845c0,0-2-1.6124029-2,3.2248058S10,24,10,24L6,15.9379845z"/>
			<path style="fill:#231815;" d="M10.4033203,24.25H10c-0.0625,0-6.25-0.0581055-6.25-5.0874023
				c0-2.4765625,0.5200195-3.7324219,1.5458984-3.7324219c0.4589844,0,0.8212891,0.28125,0.8608398,0.3129883l0.0673828,0.0834961
				L10.4033203,24.25z M5.2958984,15.9301758c-0.6645508,0-1.0458984,1.1782227-1.0458984,3.2324219
				c0,3.8623047,4.0117188,4.4731445,5.3378906,4.5693359l-3.7841797-7.6274414
				C5.7197266,16.0483398,5.5166016,15.9301758,5.2958984,15.9301758z"/>
		</g>
		<g>
			<path style="fill:#FFB743;" d="M16,4c-5.6623144,0-10.6317587,1.7474365-9.437191,14.666626
				c0.3604612,3.8980103,1.708014,6.4033203,3.2050395,7.989624C11.2991447,28.2788696,14.100523,30.3125,16,30.3125
				s4.7009125-2.0336304,6.2321529-3.65625c1.4970818-1.5863037,2.844635-4.0916138,3.2050381-7.989624
				C26.6317596,5.7474365,21.6623154,4,16,4z"/>
			<path style="fill:#231815;" d="M16,30.5625c-2.1049805,0-5.0512695-2.2905273-6.4135742-3.7348633
				c-1.8540039-1.9638672-2.9545898-4.7021484-3.2724609-8.1381836C5.7519531,12.6132813,6.5024414,8.5371094,8.6074219,6.2285156
				C10.6103516,4.0317383,13.6103516,3.75,16,3.75s5.3896484,0.2817383,7.3925781,2.4785156
				c2.1049805,2.3085938,2.8554688,6.3847656,2.293457,12.4609375c-0.3178711,3.4360352-1.418457,6.1743164-3.2724609,8.1381836
				C21.0512695,28.2719727,18.1049805,30.5625,16,30.5625z M16,4.25c-2.4287109,0-5.1625977,0.2749023-7.0229492,2.3154297
				c-2.0053711,2.1992188-2.7133789,6.1499023-2.1650391,12.078125c0.3071289,3.3217773,1.362793,5.9599609,3.1376953,7.8413086
				C11.6098633,28.2431641,14.3266602,30.0625,16,30.0625s4.3901367-1.8193359,6.050293-3.5776367
				c1.7749023-1.8813477,2.8305664-4.5195313,3.1376953-7.8413086c0.5483398-5.9282227-0.159668-9.8789063-2.1650391-12.078125
				C21.1625977,4.5249023,18.4287109,4.25,16,4.25z"/>
		</g>
	</g>
	<g>
		<path style="fill:#C10D23;" d="M12.5727491,24.7319622c0,0,1.713625,0.625,3.4272509,0.625s3.4272518-0.625,3.4272518-0.625
			s0.1338768,1.21875-3.4272518,1.21875S12.5727491,24.7319622,12.5727491,24.7319622z"/>
		<g>
			<g>
				<path style="fill:#F5F5F5;" d="M18.012764,17.6929607c0-0.3434982,0.5725288-1.7650261,2.4651241-1.7650261
					s2.7487202,1.390625,2.7487202,1.390625s-1.034214,1.3278732-2.7488842,1.3014927
					C19.7651291,18.6090889,18.012764,18.036459,18.012764,17.6929607z"/>
				<ellipse style="fill:#231815;" cx="20.3797188" cy="17.147644" rx="1.3197482" ry="1.4186682"/>
				<ellipse style="fill:#3E3A39;" cx="20.3797188" cy="17.147644" rx="1.0280999" ry="1.1888798"/>
				<ellipse style="fill:#231815;" cx="20.3797188" cy="17.147644" rx="0.4987249" ry="0.5767183"/>
				<path style="fill:#231815;" d="M23.916687,17.164917c0,0-0.826355-0.9133911-2.1317139-1.3063965
					c0.9214478,0.0986328,1.5887451,0.3262939,1.5887451,0.3262939c-3.8999023-2.208374-5.5612183,0.7227173-5.5612183,0.7227173
					c0.2763672-0.2606201,0.5808716-0.460022,0.8989868-0.6167603c-0.6791992,0.5268555-0.9408569,1.2283936-0.9822998,1.4021606
					c0.2033081-0.2063599,1.2585449-1.5581665,2.6505127-1.5404663c1.7561646,0.0222778,2.5415039,1.2253418,2.5415039,1.2253418
					c-0.024292,0.0357056-0.5733643,0.7718506-0.5733643,0.7718506l1.1689453-0.5038452l-0.2330933-0.0792236
					C23.4769897,17.4448242,23.6902466,17.3096924,23.916687,17.164917z"/>
				<ellipse style="fill:#FFFFFF;" cx="19.6230812" cy="16.6355705" rx="0.356352" ry="0.3007674"/>
			</g>
			<g>
				<path style="fill:#F5F5F5;" d="M13.9872351,17.6929607c0-0.3434982-0.5725269-1.7650261-2.4651222-1.7650261
					s-2.7487211,1.390625-2.7487211,1.390625s1.034215,1.3278732,2.7488842,1.3014927
					C12.23487,18.6090889,13.9872351,18.036459,13.9872351,17.6929607z"/>
				<ellipse style="fill:#231815;" cx="11.6202812" cy="17.147644" rx="1.3197482" ry="1.4186682"/>
				<ellipse style="fill:#3E3A39;" cx="11.6202812" cy="17.147644" rx="1.0280999" ry="1.1888798"/>
				<ellipse style="fill:#231815;" cx="11.6202812" cy="17.147644" rx="0.4987249" ry="0.5767183"/>
				<path style="fill:#231815;" d="M8.083313,17.164917c0,0,0.826355-0.9133911,2.1317139-1.3063965
					c-0.9214478,0.0986328-1.5887451,0.3262939-1.5887451,0.3262939c3.8999023-2.208374,5.5612183,0.7227173,5.5612183,0.7227173
					c-0.2763672-0.2606201-0.5808716-0.460022-0.8989868-0.6167603c0.6791992,0.5268555,0.9408569,1.2283936,0.9822998,1.4021606
					c-0.2033081-0.2063599-1.2585449-1.5581665-2.6505127-1.5404663c-1.7561646,0.0222778-2.5415039,1.2253418-2.5415039,1.2253418
					c0.024292,0.0357056,0.5733643,0.7718506,0.5733643,0.7718506L8.4832153,17.645813l0.2330933-0.0792236
					C8.5230103,17.4448242,8.3097534,17.3096924,8.083313,17.164917z"/>
				<ellipse style="fill:#FFFFFF;" cx="10.8636427" cy="16.6355705" rx="0.356352" ry="0.3007674"/>
			</g>
		</g>
		<g>
			<path style="fill:#231815;" d="M17.6971607,14.0367432c0,0,2.5632648-2.5064297,6.4541283-0.0431776
				C24.151289,13.9935656,20.9242249,13.1240635,17.6971607,14.0367432z"/>
			<path style="fill:#231815;" d="M14.3028393,14.0367432c0,0-2.5632639-2.5064297-6.4541283-0.0431776
				C7.848711,13.9935656,11.0757751,13.1240635,14.3028393,14.0367432z"/>
		</g>
		<linearGradient id="SVGID_4_" gradientUnits="userSpaceOnUse" x1="15.4719238" y1="22.833334" x2="15.4719238" y2="18">
			<stop  offset="0" style="stop-color:#FFFFFF;stop-opacity:0.05"/>
			<stop  offset="0.5" style="stop-color:#FFFFFF;stop-opacity:0.4"/>
			<stop  offset="1" style="stop-color:#FFFFFF;stop-opacity:0.05"/>
		</linearGradient>
		<path style="fill:url(#SVGID_4_);" d="M16.0000057,20.416666c0,1.3346882-0.6311331,2.4166679-0.9137316,2.4166679
			c-0.2825994,0-0.0835657-1.4994335,0.0730982-2.7942715C15.3055696,18.8307285,15.4250135,18,15.707612,18
			S16.0000057,19.0819778,16.0000057,20.416666z"/>
	</g>
	<g>
		<g>
			<linearGradient id="SVGID_5_" gradientUnits="userSpaceOnUse" x1="16.1074638" y1="1.0641165" x2="16.1074638" y2="32.6666679">
				<stop  offset="0.1504425" style="stop-color:#6E4E30"/>
				<stop  offset="0.9955752" style="stop-color:#2E2114"/>
			</linearGradient>
			<path style="fill:url(#SVGID_5_);" d="M24.151289,3.4375c-1.7272263-1.6810995-5.6191216-2.4287481-8.1512814-1.5
				C14.1513386-0.0215029,10.8125,1.625,8.0863991,3.8258078c-5.7805886,4.6667271-3.5027404,12.772356-3.5027404,12.772356
				l2.7513704,16.0685043c0,0,0.9678435-1.7092762,0.7483039-3.5416679C7.207015,21.81077,7,14.791667,7.2666483,12.5856943
				C8.3165159,14.4375,9.041667,15.0625,10,15.9110575c0,0,2.3250141-1.8743143,6.375-7.9110575
				c0.8162041,0.9062252,3.052906,6.0367432,6.8084373,8.0982857c0,0,0.6958427-0.8201227,0.9678516-3.1884155
				C24.4334927,14.9941406,23.7574501,28.1242809,23.75,29.34375s0.9149704,3.3229179,0.9149704,3.3229179l2.7513714-16.0685043
				C27.4163418,16.5981636,30.25,9.3733416,24.151289,3.4375z"/>
			<path style="fill:#2B1D15;" d="M24.7709961,33.5302734l-0.3349609-0.7631836
				C24.3974609,32.6791992,23.4926758,30.6000977,23.5,29.3422852c0.0019531-0.3164063,0.0473633-1.3999023,0.1098633-2.8999023
				c0.1328125-3.1699219,0.3520508-8.409668,0.3603516-11.4272461c-0.2836914,0.8671875-0.5766602,1.222168-0.5961914,1.2446289
				l-0.1318359,0.1557617l-0.1787109-0.0981445c-2.8842773-1.5830078-4.8544922-4.8779297-6.0322266-6.8466797
				c-0.2548828-0.4262695-0.472168-0.7900391-0.644043-1.0415039c-3.9038086,5.7700195-6.1357422,7.6000977-6.2304688,7.6767578
				l-0.1640625,0.1323242l-0.2094727-0.1850586c-0.8154297-0.7216797-1.4819336-1.3120117-2.3305664-2.6660156
				c-0.1430664,2.6621094,0.0605469,8.8769531,0.8789063,15.7080078c0.2265625,1.8920898-0.737793,3.621582-0.7788086,3.6943359
				l-0.3457031,0.6108398L4.3369141,16.6401367C4.3198242,16.5830078,2.0878906,8.347168,7.9291992,3.6313477
				c1.5922852-1.2851563,3.918457-2.8173828,5.9599609-2.8173828c0.8666992,0,1.5981445,0.28125,2.1772461,0.8354492
				c0.715332-0.2392578,1.559082-0.3652344,2.4526367-0.3652344c2.2597656,0,4.5932617,0.793457,5.8066406,1.9741211
				c6.1464844,5.9829102,3.3525391,13.3574219,3.3237305,13.4311523L24.7709961,33.5302734z M13.8891602,1.3139648
				c-1.4790039,0-3.4838867,0.9614258-5.6455078,2.7060547C2.6557617,8.5317383,4.8017578,16.4511719,4.8242188,16.5302734
				L7.4428711,31.815918c0.2436523-0.6445313,0.5146484-1.6386719,0.3925781-2.6611328
				C6.9946289,22.1386719,6.734375,14.9077148,7.0185547,12.5561523l0.0908203-0.7539063l0.3745117,0.6601563
				c0.9697266,1.7099609,1.6342773,2.3330078,2.5170898,3.1157227c0.5869141-0.53125,2.7788086-2.6679688,6.1665039-7.7172852
				l0.1787109-0.2666016l0.2143555,0.2382813c0.21875,0.2431641,0.5043945,0.7207031,0.8999023,1.3813477
				c1.1235352,1.8789063,2.9858398,4.9921875,5.644043,6.5517578c0.1977539-0.3388672,0.6064453-1.2133789,0.7983398-2.8842773
				l0.2280273-1.9858398l0.2680664,1.9804688c0.2133789,1.5732422-0.1015625,9.09375-0.2895508,13.5874023
				c-0.0625,1.4946289-0.1074219,2.5742188-0.109375,2.8818359c-0.0039063,0.6875,0.3120117,1.6943359,0.5693359,2.3989258
				l2.6005859-15.1879883c0.0415039-0.1201172,2.7104492-7.1938477-3.1928711-12.9394531
				c-1.1264648-1.0961914-3.3198242-1.8325195-5.4580078-1.8325195c-0.8994141,0-1.7407227,0.1342773-2.4331055,0.3881836
				l-0.1547852,0.0566406l-0.112793-0.1201172C15.3203125,1.581543,14.6713867,1.3139648,13.8891602,1.3139648z"/>
		</g>
		<linearGradient id="SVGID_6_" gradientUnits="userSpaceOnUse" x1="13.2656288" y1="4.9375" x2="13.2656288" y2="14.4375">
			<stop  offset="0" style="stop-color:#8C6B42"/>
			<stop  offset="0.9955752" style="stop-color:#6E4E30"/>
		</linearGradient>
		<path style="fill:url(#SVGID_6_);" d="M16.0000076,4.9375c0,0-2.0000076,1.4220743-5.4687576,9.5
			C10.53125,14.4375,15.2545748,9.25,16.0000076,4.9375z"/>
		<linearGradient id="SVGID_7_" gradientUnits="userSpaceOnUse" x1="21.579628" y1="4.6841831" x2="21.579628" y2="15.1875">
			<stop  offset="0" style="stop-color:#8C6B42"/>
			<stop  offset="0.9955752" style="stop-color:#6E4E30"/>
		</linearGradient>
		<path style="fill:url(#SVGID_7_);" d="M19.9340744,4.6841831c0,0,4.4449883,3.0241504,3.0034256,10.5033169
			C22.9375,15.1875,21.8582993,8.9933662,19.9340744,4.6841831z"/>
		<linearGradient id="SVGID_8_" gradientUnits="userSpaceOnUse" x1="6.197392" y1="5.5625" x2="6.197392" y2="23.5900002">
			<stop  offset="0" style="stop-color:#8C6B42"/>
			<stop  offset="0.9955752" style="stop-color:#6E4E30"/>
		</linearGradient>
		<path style="fill:url(#SVGID_8_);" d="M7.5,5.5625c0,0-5.1537499,2.2075-0.9637499,18.0275002
			C6.5362501,23.5900002,4,10.375,7.5,5.5625z"/>
		<linearGradient id="SVGID_9_" gradientUnits="userSpaceOnUse" x1="26.0750923" y1="5.5625" x2="26.0750923" y2="24">
			<stop  offset="0" style="stop-color:#8C6B42"/>
			<stop  offset="0.9955752" style="stop-color:#6E4E30"/>
		</linearGradient>
		<path style="fill:url(#SVGID_9_);" d="M25,5.5625c0,0,2.34445,5.5,0.25,18.4375C25.25,24,29.6875,9.6875,25,5.5625z"/>
	</g>
</g>
<g>
</g>
<g>
</g>
<g>
</g>
<g>
</g>
<g>
</g>
<g>
</g>
</svg>
