<?xml version="1.0" encoding="UTF-8" standalone="no"?>
<!-- Generated by phantom_svg. -->

<svg
   xmlns:dc="http://purl.org/dc/elements/1.1/"
   xmlns:cc="http://creativecommons.org/ns#"
   xmlns:rdf="http://www.w3.org/1999/02/22-rdf-syntax-ns#"
   xmlns:svg="http://www.w3.org/2000/svg"
   xmlns="http://www.w3.org/2000/svg"
   xmlns:sodipodi="http://sodipodi.sourceforge.net/DTD/sodipodi-0.dtd"
   xmlns:inkscape="http://www.inkscape.org/namespaces/inkscape"
   width="64px"
   height="64px"
   viewBox="0 0 64 64"
   preserveAspectRatio="none"
   version="1.1"
   id="svg2"
   inkscape:version="0.91 r13725"
   sodipodi:docname="frowning.svg">
  <metadata
     id="metadata53">
    <rdf:RDF>
      <cc:Work
         rdf:about="">
        <dc:format>image/svg+xml</dc:format>
        <dc:type
           rdf:resource="http://purl.org/dc/dcmitype/StillImage" />
      </cc:Work>
    </rdf:RDF>
  </metadata>
  <defs
     id="defs51" />
  <sodipodi:namedview
     pagecolor="#ffffff"
     bordercolor="#666666"
     borderopacity="1"
     objecttolerance="10"
     gridtolerance="10"
     guidetolerance="10"
     inkscape:pageopacity="0"
     inkscape:pageshadow="2"
     inkscape:window-width="1920"
     inkscape:window-height="1017"
     id="namedview49"
     showgrid="false"
     inkscape:zoom="14.75"
     inkscape:cx="42.385589"
     inkscape:cy="23.654511"
     inkscape:window-x="0"
     inkscape:window-y="26"
     inkscape:window-maximized="1"
     inkscape:current-layer="svg2" />
  <path
     style="fill:#330100;"
     d="M47.1113281,51.5810547c-4.0117188-4.2822266-12.6376953-3.9511719-18.9355469-3.7099609  c-5.3110352,0.2041016-8.8208008,0.3378906-10.1513672-1.7304688l2.5224609-1.6230469  C20.5361328,44.5,20.527832,44.4921875,20.527832,44.4921875c0.6572266,0.6455078,4.6323242,0.4921875,7.5332031,0.3808594  c6.8735352-0.2626953,16.2924805-0.6240234,21.2397461,4.6572266L47.1113281,51.5810547z"
     id="path35" />
  <polygon
     style="fill:#330100;"
     points="27.2851563,18.8544922 12.5888672,18.8544922 12.5888672,15.8544922 24.8828125,15.8544922   25.3349609,13.8330078 28.2626953,14.4882813 "
     id="polygon37" />
  <rect
     x="12.5888672"
     y="21.8012695"
     style="fill:#330100;"
     width="14.2099609"
     height="3"
     id="rect39" />
  <path
     style="fill:#330100;"
     d="M24.6650391,23.7011719c0,2.5751953-1.9077148,4.6625977-4.2612305,4.6625977  c-2.3544922,0-4.2626953-2.0874023-4.2626953-4.6625977"
     id="path41" />
  <rect
     x="35.9782372"
     y="15.8095055"
     transform="matrix(0.9916734 0.1287781 -0.1287781 0.9916734 2.5904388 -5.444891)"
     style="fill:#330100;"
     width="14.844305"
     height="2.9996421"
     id="rect43" />
  <rect
     x="35.9775391"
     y="21.7558594"
     style="fill:#330100;"
     width="14.8457031"
     height="3"
     id="rect45" />
  <path
     style="fill:#330100;"
     d="M38.2080078,23.6557617c0,2.6005859,1.9921875,4.7080078,4.4501953,4.7080078  c2.4609375,0,4.453125-2.1074219,4.453125-4.7080078"
     id="path47" />
</svg>
