<?xml version="1.0" encoding="utf-8"?>
<!-- Generator: Adobe Illustrator 17.0.0, SVG Export Plug-In . SVG Version: 6.00 Build 0)  -->
<!DOCTYPE svg PUBLIC "-//W3C//DTD SVG 1.1//EN" "http://www.w3.org/Graphics/SVG/1.1/DTD/svg11.dtd">
<svg version="1.1" id="レイヤー_1" xmlns="http://www.w3.org/2000/svg" xmlns:xlink="http://www.w3.org/1999/xlink" x="0px"
	 y="0px" width="64px" height="64px" viewBox="0 0 64 64" style="enable-background:new 0 0 64 64;" xml:space="preserve">
<g>
	<g>
		<linearGradient id="SVGID_1_" gradientUnits="userSpaceOnUse" x1="48" y1="15.5625" x2="48" y2="36.333313">
			<stop  offset="0.1504425" style="stop-color:#6E4E30"/>
			<stop  offset="0.9955752" style="stop-color:#2E2114"/>
		</linearGradient>
		<path style="fill:url(#SVGID_1_);" d="M60,26.25c-0.5949707-5.833374-2-10.6875-2-10.6875H48h-9.6066284
			c0,0-1.7984009,4.854126-2.3933716,10.6875c-0.5949097,5.833313,2,9.083313,2,9.083313C37.75,33.375,38,32,38,32
			c0.75,4.114563,10,4.333313,10,4.333313S57.25,36.114563,58,32c0,0,0.25,1.3333321,0,3.333313
			C58,35.333313,60.5949097,32.083313,60,26.25z"/>
		<path style="fill:#2B1D15;" d="M48,36.5830078h-0.0058594c-0.3515625-0.0087891-7.9082031-0.2275391-9.8447266-3.4873047
			c-0.0224609,0.5654297-0.0136719,1.3271484,0.0986328,2.2060547l0.1132813,0.8837891l-0.5566406-0.6962891
			c-0.1083984-0.1357422-2.6513672-3.3969727-2.0537109-9.2646484c0.5917969-5.7978516,2.3896484-10.7001953,2.4082031-10.7490234
			L38.2197266,15.3125H58.1875l0.0527344,0.1806641c0.0136719,0.0483398,1.4179688,4.9423828,2.0087891,10.7314453
			c0.5976563,5.8676758-1.9453125,9.1289063-2.0537109,9.2646484l-0.5537109,0.6923828l0.1103516-0.8798828
			c0.1113281-0.8886719,0.1210938-1.6464844,0.0986328-2.2070313c-1.9345703,3.2607422-9.4931641,3.4794922-9.8447266,3.4882813H48z
			 M38,30.6040039l0.2460938,1.3510742C38.9433594,35.78125,47.7246094,36.0751953,48,36.0830078
			c0.2753906-0.0078125,9.0566406-0.3017578,9.7539063-4.1279297L57.9960938,30.625l0.25,1.3291016
			c0.0078125,0.0454102,0.1708984,0.9414063,0.0957031,2.3603516c0.7070313-1.3105469,1.8134766-4.0766602,1.4091797-8.0390625
			c-0.5214844-5.1191406-1.6845703-9.53125-1.9404297-10.4628906H38.5693359
			c-0.3125,0.8920898-1.796875,5.3208008-2.3203125,10.4628906c-0.4042969,3.9609375,0.7011719,6.7265625,1.4082031,8.0371094
			c-0.0732422-1.3959961,0.0878906-2.3105469,0.0966797-2.3574219L38,30.6040039z"/>
	</g>
	<g>
		<linearGradient id="SVGID_2_" gradientUnits="userSpaceOnUse" x1="48" y1="33.0236282" x2="48" y2="64">
			<stop  offset="0" style="stop-color:#E53828"/>
			<stop  offset="1" style="stop-color:#C10D23"/>
		</linearGradient>
		<path style="fill:url(#SVGID_2_);" d="M54,33.0236282c0,0,10,0,10,12S64,64,64,64H32c0,0,0-6.9763718,0-18.9763718s10-12,10-12H54
			z"/>
		<path style="fill:#231815;" d="M64.25,64.25h-32.5V45.0234375c0-12.1098633,10.1474609-12.25,10.25-12.25h12
			c0.1025391,0,10.25,0.1401367,10.25,12.25V64.25z M32.25,63.75h31.5V45.0234375c0-11.6015625-9.3525391-11.7490234-9.75-11.75H42
			c-0.3974609,0.0009766-9.75,0.1484375-9.75,11.75V63.75z"/>
	</g>
	<g>
		<g>
			<path style="fill:#573013;" d="M52.9242554,25.0236301H48h-4.9241943c0,0-0.2424927,6.75-1.0758057,7.9999981
				c0,0,2.125,1.916626,6,1.916626s6-1.916626,6-1.916626C53.166687,31.7736301,52.9242554,25.0236301,52.9242554,25.0236301z"/>
			<path style="fill:#231815;" d="M48,35.1904297c-3.9257813,0-6.078125-1.9003906-6.1669922-1.9814453l-0.1611328-0.1445313
				l0.1201172-0.1796875c0.6513672-0.9770508,0.9677734-6.0126953,1.0341797-7.8701172l0.0087891-0.2412109h10.3300781
				l0.0087891,0.2412109c0.0664063,1.8574219,0.3828125,6.8930664,1.0341797,7.8701172l0.1201172,0.1796875l-0.1611328,0.1445313
				C54.078125,33.2900391,51.9257813,35.1904297,48,35.1904297z M42.3193359,32.9599609
				C42.8632813,33.3730469,44.8447266,34.6904297,48,34.6904297c3.1650391,0,5.1386719-1.3164063,5.6806641-1.7299805
				c-0.6992188-1.4912109-0.9443359-6.409668-0.9970703-7.6870117h-9.3671875
				C43.2636719,26.5507813,43.0185547,31.4682617,42.3193359,32.9599609z"/>
		</g>
		<g>
			<path style="fill:#573013;" d="M58,15.9379845c0,0,2-1.6124029,2,3.2248058S54,24,54,24L58,15.9379845z"/>
			<path style="fill:#231815;" d="M54,24.25h-0.4033203l4.2460938-8.5068359
				c0.0400391-0.0317383,0.4023438-0.3129883,0.8613281-0.3129883c1.0253906,0,1.5458984,1.2558594,1.5458984,3.7324219
				C60.25,24.1918945,54.0625,24.25,54,24.25z M58.1962891,16.1044922l-3.7841797,7.6274414
				C55.7382813,23.6357422,59.75,23.0249023,59.75,19.1625977c0-2.0541992-0.3808594-3.2324219-1.0458984-3.2324219
				C58.4824219,15.9301758,58.2792969,16.0488281,58.1962891,16.1044922z"/>
		</g>
		<g>
			<path style="fill:#573013;" d="M38,15.9379845c0,0-2-1.6124029-2,3.2248058S42,24,42,24L38,15.9379845z"/>
			<path style="fill:#231815;" d="M42.4033203,24.25H42c-0.0625,0-6.25-0.0581055-6.25-5.0874023
				c0-2.4765625,0.5205078-3.7324219,1.5458984-3.7324219c0.4589844,0,0.8212891,0.28125,0.8613281,0.3129883l0.0664063,0.0834961
				L42.4033203,24.25z M37.2958984,15.9301758c-0.6650391,0-1.0458984,1.1782227-1.0458984,3.2324219
				c0,3.8623047,4.0117188,4.4731445,5.3378906,4.5693359l-3.7841797-7.6274414
				C37.7197266,16.0483398,37.5166016,15.9301758,37.2958984,15.9301758z"/>
		</g>
		<g>
			<path style="fill:#573013;" d="M48,4c-5.6623154,0-10.6317596,1.7474365-9.437191,14.666626
				c0.3604622,3.8980103,1.7080154,6.4033203,3.20504,7.989624C43.2991447,28.2788696,46.1005249,30.3125,48,30.3125
				s4.7009125-2.0336304,6.232151-3.65625c1.4970856-1.5863037,2.844635-4.0916138,3.20504-7.989624
				C58.6317596,5.7474365,53.6623154,4,48,4z"/>
			<path style="fill:#231815;" d="M48,30.5625c-2.1054688,0-5.0517578-2.2905273-6.4140625-3.7348633
				c-1.8535156-1.9638672-2.9550781-4.7021484-3.2724609-8.1381836c-0.5615234-6.0761719,0.1884766-10.1523438,2.2939453-12.4609375
				C42.6103516,4.0317383,45.6103516,3.75,48,3.75s5.3896484,0.2817383,7.3925781,2.4785156
				c2.1054688,2.3085938,2.8554688,6.3847656,2.2939453,12.4609375c-0.3173828,3.4360352-1.4189453,6.1743164-3.2724609,8.1381836
				C53.0517578,28.2719727,50.1054688,30.5625,48,30.5625z M48,4.25c-2.4287109,0-5.1630859,0.2749023-7.0234375,2.3154297
				c-2.0048828,2.1992188-2.7128906,6.1499023-2.1650391,12.078125c0.3066406,3.3217773,1.3623047,5.9599609,3.1376953,7.8413086
				C43.609375,28.2431641,46.3261719,30.0625,48,30.0625s4.390625-1.8193359,6.0507813-3.5776367
				c1.7753906-1.8813477,2.8310547-4.5195313,3.1376953-7.8413086c0.5478516-5.9282227-0.1601563-9.8789063-2.1650391-12.078125
				C53.1630859,4.5249023,50.4287109,4.25,48,4.25z"/>
		</g>
	</g>
	<g>
		<path style="fill:#C10D23;" d="M44.5727501,24.7319622c0,0,1.713623,0.625,3.4272499,0.625s3.4272499-0.625,3.4272499-0.625
			s0.1338768,1.21875-3.4272499,1.21875S44.5727501,24.7319622,44.5727501,24.7319622z"/>
		<g>
			<g>
				<path style="fill:#F5F5F5;" d="M50.012764,17.6929607c0-0.3434982,0.5725288-1.7650261,2.4651222-1.7650261
					c1.8925972,0,2.7487221,1.390625,2.7487221,1.390625s-1.034214,1.3278732-2.7488861,1.3014927
					C51.7651291,18.6090889,50.012764,18.036459,50.012764,17.6929607z"/>
				<ellipse style="fill:#231815;" cx="52.3797188" cy="17.147644" rx="1.3197482" ry="1.4186682"/>
				<ellipse style="fill:#3E3A39;" cx="52.3797188" cy="17.147644" rx="1.0280999" ry="1.1888798"/>
				<ellipse style="fill:#231815;" cx="52.3797188" cy="17.147644" rx="0.4987249" ry="0.5767183"/>
				<path style="fill:#231815;" d="M55.916687,17.164917c0,0-0.826355-0.9133911-2.1317139-1.3063965
					c0.9214478,0.0986328,1.5887451,0.3262939,1.5887451,0.3262939c-3.8999023-2.208374-5.5612183,0.7227173-5.5612183,0.7227173
					c0.2763672-0.2606201,0.5808716-0.460022,0.8989868-0.6167603c-0.6791992,0.5268555-0.9408569,1.2283936-0.9822998,1.4021606
					c0.2033081-0.2063599,1.2585449-1.5581665,2.6505127-1.5404663c1.7561646,0.0222778,2.5415039,1.2253418,2.5415039,1.2253418
					c-0.024292,0.0357056-0.5733643,0.7718506-0.5733643,0.7718506l1.1689453-0.5038452l-0.2330933-0.0792236
					C55.4769897,17.4448242,55.6902466,17.3096924,55.916687,17.164917z"/>
				<ellipse style="fill:#FFFFFF;" cx="51.6230812" cy="16.6355705" rx="0.356352" ry="0.3007674"/>
			</g>
			<g>
				<path style="fill:#F5F5F5;" d="M45.987236,17.6929607c0-0.3434982-0.5725288-1.7650261-2.4651222-1.7650261
					c-1.8925972,0-2.7487221,1.390625-2.7487221,1.390625s1.034214,1.3278732,2.7488861,1.3014927
					C44.2348709,18.6090889,45.987236,18.036459,45.987236,17.6929607z"/>
				<ellipse style="fill:#231815;" cx="43.6202812" cy="17.147644" rx="1.3197482" ry="1.4186682"/>
				<ellipse style="fill:#3E3A39;" cx="43.6202812" cy="17.147644" rx="1.0280999" ry="1.1888798"/>
				<ellipse style="fill:#231815;" cx="43.6202812" cy="17.147644" rx="0.4987249" ry="0.5767183"/>
				<path style="fill:#231815;" d="M40.083313,17.164917c0,0,0.826355-0.9133911,2.1317139-1.3063965
					c-0.9214478,0.0986328-1.5887451,0.3262939-1.5887451,0.3262939c3.8999023-2.208374,5.5612183,0.7227173,5.5612183,0.7227173
					c-0.2763672-0.2606201-0.5808716-0.460022-0.8989868-0.6167603c0.6791992,0.5268555,0.9408569,1.2283936,0.9822998,1.4021606
					c-0.2033081-0.2063599-1.2585449-1.5581665-2.6505127-1.5404663c-1.7561646,0.0222778-2.5415039,1.2253418-2.5415039,1.2253418
					c0.024292,0.0357056,0.5733643,0.7718506,0.5733643,0.7718506l-1.1689453-0.5038452l0.2330933-0.0792236
					C40.5230103,17.4448242,40.3097534,17.3096924,40.083313,17.164917z"/>
				<ellipse style="fill:#FFFFFF;" cx="42.8636436" cy="16.6355705" rx="0.356352" ry="0.3007674"/>
			</g>
		</g>
		<g>
			<path style="fill:#231815;" d="M49.6971626,14.0367432c0,0,2.5632629-2.5064297,6.4541245-0.0431776
				C56.1512871,13.9935656,52.9242249,13.1240635,49.6971626,14.0367432z"/>
			<path style="fill:#231815;" d="M46.3028374,14.0367432c0,0-2.5632629-2.5064297-6.4541245-0.0431776
				C39.8487129,13.9935656,43.0757751,13.1240635,46.3028374,14.0367432z"/>
		</g>
		<linearGradient id="SVGID_3_" gradientUnits="userSpaceOnUse" x1="47.4719238" y1="22.833334" x2="47.4719238" y2="18">
			<stop  offset="0" style="stop-color:#FFFFFF;stop-opacity:0.05"/>
			<stop  offset="0.5" style="stop-color:#FFFFFF;stop-opacity:0.4"/>
			<stop  offset="1" style="stop-color:#FFFFFF;stop-opacity:0.05"/>
		</linearGradient>
		<path style="fill:url(#SVGID_3_);" d="M48.0000076,20.416666c0,1.3346882-0.631134,2.4166679-0.9137344,2.4166679
			c-0.2825966,0-0.0835648-1.4994335,0.073101-2.7942715C47.3055687,18.8307285,47.4250145,18,47.7076111,18
			C47.9902115,18,48.0000076,19.0819778,48.0000076,20.416666z"/>
	</g>
	<g>
		<g>
			<linearGradient id="SVGID_4_" gradientUnits="userSpaceOnUse" x1="47.8840904" y1="1.1484413" x2="47.8840904" y2="32.6666679">
				<stop  offset="0.1504425" style="stop-color:#6E4E30"/>
				<stop  offset="0.9955752" style="stop-color:#2E2114"/>
			</linearGradient>
			<path style="fill:url(#SVGID_4_);" d="M59.0416679,8c-1.4054222-2.1595478-1.0741425-3.0596652-2.8903809-4
				c-1.8162346-0.9402685-4.4628792-3.1370814-6.9950371-2.2083335c-1.8486671-1.9590029-7.2536125,1.0938066-9.0698509,2.0341411
				C38.2701645,4.7660761,39.2465553,4.7276626,36.9583321,7c-2.2882843,2.2724037-0.3746719,9.5981636-0.3746719,9.5981636
				l2.7513695,16.0685043c0,0,0.9678421-1.7092762,0.7483025-3.5416679C39.207016,21.81077,38.5625,20.375,38.75,18.3782234
				c0.137085-1.4598885,0.3547287-2.0866985,0.5429077-3.3157234c0.1057549-0.6906958-0.1133881-1.5891933-0.0262604-2.4768057
				C39.5,14.0367432,39.6875,15.416667,41.375,15.9616747c0,0,0.0833321-0.3991747,0.375-0.8991747
				c1.1743546,0.8991747,2.1064339,0.6175003,2.1064339,0.6175003c-0.1152344-0.4031029-0.1897659-1.0758333,0-1.4716673
				c3.0185661,2.3644419,5.7150345,1.8884344,5.7150345,1.8884344C51.427906,12.9098701,51.9913406,8.501997,51.9340744,8
				C52.7502785,8.9062252,54,14.8125,55.1834373,16.0982857c0,0,0.6958427-0.8201227,0.9678497-3.1884155
				c0.2822037,2.0842705-0.1200371,3.3816547-0.1200371,3.3816547c0.4630547-0.2404213,0.8326683-1.3534889,1.1139183-2.0722389
				c0,0-0.0853348,3.6784248-0.1451683,4.593214c-0.40625,6.2111206-1.2425499,9.3117809-1.25,10.53125
				s0.9149704,3.3229179,0.9149704,3.3229179l2.7513695-16.0685043C59.4163399,16.5981636,60.8006935,10.7028885,59.0416679,8z"/>
			<path style="fill:#2B1D15;" d="M56.7705078,33.5302734l-0.3339844-0.7631836
				C56.3974609,32.6791992,55.4921875,30.6000977,55.5,29.3422852c0.0029297-0.4584961,0.1113281-1.1298828,0.2753906-2.1459961
				c0.2851563-1.7675781,0.7158203-4.4384766,0.9755859-8.3999023c0.0341797-0.5385742,0.0791016-2.0634766,0.1103516-3.2075195
				c-0.2021484,0.4233398-0.4335938,0.7783203-0.7148438,0.9243164l-0.5292969,0.2744141l0.1748047-0.5698242
				c0.0029297-0.0073242,0.1367188-0.4555664,0.1884766-1.2358398c-0.2861328,0.8911133-0.5869141,1.2548828-0.6064453,1.277832
				l-0.1826172,0.2158203L55,16.2675781c-0.6865234-0.7451172-1.3427734-2.7983398-1.9775391-4.7836914
				c-0.3085938-0.9672852-0.625-1.956543-0.9003906-2.6171875c-0.2001953,1.597168-0.8876953,4.8720703-2.3349609,7.355957
				l-0.0585938,0.1000977l-0.1132813,0.0200195c-0.0361328,0.0083008-2.6611328,0.4414063-5.6132813-1.7109375
				c-0.0341797,0.3061523,0.0126953,0.690918,0.0947266,0.9794922l0.0673828,0.2368164l-0.2353516,0.0712891
				c-0.0439453,0.0126953-0.9677734,0.2543945-2.0917969-0.4882813c-0.1630859,0.3354492-0.2167969,0.5791016-0.2167969,0.5825195
				l-0.0585938,0.2705078l-0.2636719-0.0844727c-0.90625-0.2929688-1.4160156-0.8129883-1.7275391-1.4399414
				c-0.0039063,0.1166992-0.0136719,0.2304688-0.0302734,0.340332c-0.0712891,0.4672852-0.1474609,0.8481445-0.2216797,1.2202148
				c-0.1210938,0.6088867-0.2353516,1.184082-0.3193359,2.081543c-0.1015625,1.0810547,0.0507813,2.0126953,0.3554688,3.8681641
				c0.2490234,1.512207,0.5888672,3.5834961,0.9765625,6.8251953c0.2275391,1.8920898-0.7373047,3.621582-0.7783203,3.6943359
				l-0.3457031,0.6108398l-2.8691406-16.7602539c-0.0751953-0.2836914-1.9189453-7.4707031,0.4443359-9.8173828
				c1.0009766-0.9941406,1.3574219-1.5253906,1.6181641-1.9130859c0.3603516-0.5371094,0.546875-0.7758789,1.5703125-1.3061523
				l0.4082031-0.2133789c1.6552734-0.8710938,4.7373047-2.4916992,6.9814453-2.4916992
				c0.7890625,0,1.4140625,0.2041016,1.8603516,0.6064453c0.3886719-0.1245117,0.7988281-0.1875,1.2207031-0.1875
				c1.6787109,0,3.3349609,0.9946289,4.6650391,1.793457c0.4150391,0.2490234,0.8056641,0.4838867,1.1601563,0.6669922
				c1.2539063,0.6494141,1.5654297,1.3212891,1.9960938,2.2509766c0.2363281,0.5112305,0.5048828,1.0913086,0.9892578,1.8349609
				c1.7958984,2.7607422,0.4648438,8.5463867,0.4072266,8.7915039L56.7705078,33.5302734z M47.3603516,1.3984375
				c-2.1201172,0-5.2460938,1.644043-6.7490234,2.434082l-0.4101563,0.215332
				C39.25,4.5400391,39.1230469,4.7299805,38.8154297,5.1884766c-0.2568359,0.3823242-0.6455078,0.9599609-1.6816406,1.9887695
				c-2.1591797,2.1455078-0.3271484,9.2856445-0.3076172,9.3579102l2.6171875,15.2807617
				c0.2431641-0.6445313,0.5136719-1.6386719,0.3916016-2.6611328c-0.3867188-3.2314453-0.7255859-5.2958984-0.9736328-6.8037109
				C38.5498047,20.453125,38.3935547,19.5,38.5009766,18.3549805c0.0869141-0.9228516,0.203125-1.5102539,0.3271484-2.1323242
				c0.0732422-0.3652344,0.1474609-0.7392578,0.2177734-1.1982422c0.0488281-0.3198242,0.0205078-0.7070313-0.0087891-1.1171875
				c-0.0322266-0.4345703-0.0644531-0.8837891-0.0195313-1.3457031l0.1884766-1.9243164l0.3222656,1.9990234
				c0.2109375,1.3173828,0.3945313,2.465332,1.6826172,2.9990234c0.0605469-0.1767578,0.1630859-0.4238281,0.3232422-0.6987305
				l0.1425781-0.2446289l0.2255859,0.171875c0.7011719,0.5371094,1.2988281,0.621582,1.6494141,0.6069336
				c-0.0761719-0.4052734-0.1113281-0.9726563,0.0791016-1.3701172l0.1347656-0.2807617l0.2451172,0.1918945
				c2.0820313,1.6308594,3.9951172,1.8740234,4.9501953,1.8740234c0.2041016,0,0.359375-0.0112305,0.4550781-0.0209961
				c1.7910156-3.1508789,2.3125-7.4589844,2.2695313-7.8364258l-0.0898438-0.7763672l0.5234375,0.5805664
				c0.4052734,0.4501953,0.8574219,1.862793,1.3798828,3.4990234c0.5244141,1.6401367,1.1113281,3.4755859,1.6640625,4.3276367
				c0.2119141-0.3989258,0.5654297-1.2597656,0.7402344-2.7783203l0.2275391-1.9833984l0.2685547,1.9785156
				c0.1328125,0.9804688,0.1181641,1.7900391,0.0625,2.3818359c0.1269531-0.2817383,0.2441406-0.5878906,0.3398438-0.8393555
				l0.6269531-1.6083984l-0.0332031,1.4150391c-0.0039063,0.1503906-0.0869141,3.6943359-0.1464844,4.6035156
				c-0.2597656,3.9858398-0.6933594,6.6708984-0.9804688,8.4472656C56.1142578,28.2333984,56.0029297,28.925293,56,29.3452148
				c-0.0048828,0.6879883,0.3115234,1.6948242,0.5693359,2.3994141l2.6005859-15.1884766
				c0.0166016-0.0732422,1.3427734-5.8378906-0.3378906-8.4199219c-0.5029297-0.7734375-0.7919922-1.3964844-1.0234375-1.8974609
				c-0.4179688-0.9018555-0.6699219-1.4462891-1.7724609-2.0166016c-0.3671875-0.1904297-0.765625-0.4296875-1.1865234-0.6826172
				c-1.3447266-0.8071289-2.8681641-1.722168-4.4082031-1.722168c-0.4179688,0-0.8212891,0.0703125-1.1992188,0.2089844
				l-0.1542969,0.0566406l-0.1132813-0.1201172C48.6210938,1.5883789,48.078125,1.3984375,47.3603516,1.3984375z"/>
		</g>
		<linearGradient id="SVGID_5_" gradientUnits="userSpaceOnUse" x1="44.8803482" y1="3.75" x2="44.8803482" y2="15.0625">
			<stop  offset="0" style="stop-color:#8C6B42"/>
			<stop  offset="0.9955752" style="stop-color:#6E4E30"/>
		</linearGradient>
		<path style="fill:url(#SVGID_5_);" d="M46,3.75c0,0-5.9166679,5.416667,0.3028374,11.3125
			C46.3028374,15.0625,42.4271431,9.625,46,3.75z"/>
		<linearGradient id="SVGID_6_" gradientUnits="userSpaceOnUse" x1="54.2205009" y1="4.6841831" x2="54.2205009" y2="14.4375">
			<stop  offset="0" style="stop-color:#8C6B42"/>
			<stop  offset="0.9955752" style="stop-color:#6E4E30"/>
		</linearGradient>
		<path style="fill:url(#SVGID_6_);" d="M52.9242249,4.6841831c0,0,3.7007751,2.2741504,2.2592125,9.7533169
			C55.1834373,14.4375,54.8484497,8.9933662,52.9242249,4.6841831z"/>
		<linearGradient id="SVGID_7_" gradientUnits="userSpaceOnUse" x1="37.5238304" y1="7.375" x2="37.5238304" y2="23.5900002">
			<stop  offset="0" style="stop-color:#8C6B42"/>
			<stop  offset="0.9955752" style="stop-color:#6E4E30"/>
		</linearGradient>
		<path style="fill:url(#SVGID_7_);" d="M37.9583321,7.375c0,0-3.6120834,0.395,0.577919,16.2150002
			C38.5362511,23.5900002,36,10.3985367,37.9583321,7.375z"/>
		<linearGradient id="SVGID_8_" gradientUnits="userSpaceOnUse" x1="58.274437" y1="8" x2="58.274437" y2="24">
			<stop  offset="0" style="stop-color:#8C6B42"/>
			<stop  offset="0.9955752" style="stop-color:#6E4E30"/>
		</linearGradient>
		<path style="fill:url(#SVGID_8_);" d="M57.8125,8c0,0,2.2761269,2.833333-0.5625,16C57.25,24,61.4583321,9.666667,57.8125,8z"/>
		<linearGradient id="SVGID_9_" gradientUnits="userSpaceOnUse" x1="40.3165169" y1="6.3595743" x2="40.3165169" y2="14.791667">
			<stop  offset="0" style="stop-color:#8C6B42"/>
			<stop  offset="0.9955752" style="stop-color:#6E4E30"/>
		</linearGradient>
		<path style="fill:url(#SVGID_9_);" d="M40.75,6.3595743c0,0-2.7916679,3.3904257,0.2916679,8.4320927
			C41.0416679,14.791667,40,9.1566486,40.75,6.3595743z"/>
	</g>
</g>
<g>
</g>
<g>
</g>
<g>
</g>
<g>
</g>
<g>
</g>
<g>
</g>
</svg>
