<?xml version="1.0" encoding="utf-8"?>
<!-- Generator: Adobe Illustrator 18.0.0, SVG Export Plug-In . SVG Version: 6.00 Build 0)  -->
<!DOCTYPE svg PUBLIC "-//W3C//DTD SVG 1.1//EN" "http://www.w3.org/Graphics/SVG/1.1/DTD/svg11.dtd">
<svg version="1.1" id="レイヤー_1" xmlns="http://www.w3.org/2000/svg" xmlns:xlink="http://www.w3.org/1999/xlink" x="0px"
	 y="0px" width="64px" height="64px" viewBox="0 0 64 64" style="enable-background:new 0 0 64 64;" xml:space="preserve">
<g>
	<g>
		<linearGradient id="SVGID_1_" gradientUnits="userSpaceOnUse" x1="41.3003235" y1="10.7291708" x2="41.3003235" y2="42.7947731">
			<stop  offset="0" style="stop-color:#807540"/>
			<stop  offset="0.1316872" style="stop-color:#C9B965"/>
			<stop  offset="0.2510288" style="stop-color:#C9B965"/>
			<stop  offset="0.7407408" style="stop-color:#807640"/>
		</linearGradient>
		<path style="fill:url(#SVGID_1_);" d="M40.932766,40.1206284c0,0-0.1908073-0.809166-0.7593918-1.7331123
			c0,0-1.6171074,2.4336281-2.61409,4.4072571c0,0-1.6883163-0.9083405-1.704834-1.6190681l1.0556488-30.4465332
			C36.910099,10.7291708,56.0488663,18.3368073,40.932766,40.1206284z"/>
		<path style="fill:#72402D;" d="M37.6669922,43.1367188l-0.2255859-0.1220703
			c-0.3037109-0.1630859-1.8173828-1.0175781-1.8369141-1.8330078l1.0683594-30.815918l0.3300781,0.1308594
			c0.0712891,0.0288086,7.2207031,2.9433594,9.375,10.0869141c1.6914063,5.6103516-0.0712891,12.2314453-5.2402344,19.6801758
			l-0.3193359,0.4599609l-0.1289063-0.5449219c-0.0019531-0.0068359-0.1425781-0.5898438-0.5292969-1.3125
			c-0.4765625,0.7363281-1.6162109,2.5351563-2.3779297,4.0410156L37.6669922,43.1367188z M37.1474609,11.1079102
			l-1.0429688,30.0766602c0.0078125,0.3330078,0.7353516,0.8984375,1.3515625,1.2646484
			c0.9970703-1.9189453,2.4941406-4.1767578,2.5097656-4.2001953l0.2158203-0.3251953l0.2050781,0.3330078
			c0.3076172,0.5,0.5078125,0.9658203,0.6298828,1.2998047c4.8515625-7.1416016,6.4951172-13.4731445,4.8837891-18.8237305
			C44.0810547,14.6914063,38.5566406,11.7670898,37.1474609,11.1079102z"/>
	</g>
	<g>
		<linearGradient id="SVGID_2_" gradientUnits="userSpaceOnUse" x1="22.7805748" y1="10.7291708" x2="22.7805748" y2="42.7947731">
			<stop  offset="0" style="stop-color:#807540"/>
			<stop  offset="0.1316872" style="stop-color:#C9B965"/>
			<stop  offset="0.2510288" style="stop-color:#C9B965"/>
			<stop  offset="0.7407408" style="stop-color:#807640"/>
		</linearGradient>
		<path style="fill:url(#SVGID_2_);" d="M23.0672359,40.1206284c0,0,0.1908054-0.809166,0.759388-1.7331123
			c0,0,1.5610714,2.3775902,2.61409,4.4072571c0,0,1.6883183-0.9083405,1.7048359-1.6190681l-0.202776-30.4465332
			C27.9427738,10.7291708,7.9511347,18.3368073,23.0672359,40.1206284z"/>
		<path style="fill:#72402D;" d="M26.3359375,43.1357422l-0.1166992-0.2255859
			c-0.8017578-1.5458984-1.9121094-3.3125-2.3798828-4.0419922c-0.3862305,0.7216797-0.5268555,1.3037109-0.5288086,1.3105469
			l-0.1293945,0.5449219l-0.3193359-0.4599609c-5.0688477-7.3046875-6.7680664-13.8198242-5.0517578-19.3642578
			c2.2841797-7.3759766,9.9667969-10.3745117,10.0439453-10.4042969l0.3364258-0.1279297l0.2050781,30.8066406
			c-0.019043,0.8232422-1.5327148,1.6777344-1.8359375,1.8408203L26.3359375,43.1357422z M23.8198242,37.921875L24.0356445,38.25
			c0.0151367,0.0234375,1.4643555,2.2353516,2.5068359,4.2001953c0.6166992-0.3662109,1.3452148-0.9335938,1.3530273-1.2802734
			l-0.2001953-30.0644531c-1.4868164,0.6635742-7.4707031,3.6787109-9.4086914,9.9467773
			c-1.6337891,5.2827148-0.0537109,11.5063477,4.6962891,18.5043945c0.1220703-0.3339844,0.3227539-0.7998047,0.6308594-1.2998047
			L23.8198242,37.921875z"/>
	</g>
</g>
<g>
	<g>
		<path style="fill:#FFB743;" d="M39.8611069,47.5804329c-5.2739067-1.5991402-2.6575546-9.3816147-2.6575546-9.3816147
			L32,39.0224876l-5.2035522-0.8236694c0,0,2.6163521,7.7824745-2.6575565,9.3816147
			c-5.2739067,1.5991364-11.7419071,2.2387924-11.7419071,8.9551735l-0.1218224,8.8295135h39.4496765l-0.1218224-8.8295135
			C51.6030159,49.8192253,45.1350174,49.1795692,39.8611069,47.5804329z"/>
		<path style="fill:#E08E0B;" d="M32,41.7122002l-4.6312714-0.7330704c0.1061077,0.9799271,0.1134396,2.090313-0.1253719,3.1373329
			c0.1329231,0.6690979,0.2921124,1.2572632,0.473793,1.5394707C28.2867088,46.5405846,30.3749428,48.4981422,32,48.4981422
			s3.7132912-1.9575577,4.2828484-2.8422089c0.1816826-0.2822075,0.3408737-0.8703728,0.473793-1.5394707
			c-0.2388115-1.04702-0.2314758-2.1574059-0.12537-3.1373329L32,41.7122002z"/>
		<path style="fill:#330600;" d="M51.9785156,65.6152344h-39.956543l0.125-9.0839844
			c0-5.9580078,4.9052734-7.2773438,9.6489258-8.5546875c0.7661133-0.2060547,1.5297852-0.4111328,2.2700195-0.6357422
			c1.1411133-0.3457031,1.9814453-1.0283203,2.4975586-2.0292969c1.4111328-2.734375,0.0102539-6.9902344-0.0039063-7.0322266
			l-0.1313477-0.3916016L32,38.7695313l5.5712891-0.8818359l-0.1308594,0.3916016
			c-0.0146484,0.0419922-1.4160156,4.2978516-0.0048828,7.0322266c0.5166016,1.0009766,1.3574219,1.6835938,2.4980469,2.0292969
			c0.7402344,0.2246094,1.5039063,0.4296875,2.2705078,0.6367188c4.7431641,1.2763672,9.6484375,2.5957031,9.6484375,8.5576172
			L51.9785156,65.6152344z M12.5288086,65.1152344h38.9418945l-0.1181641-8.5761719
			c0-5.5820313-4.5068359-6.7949219-9.2783203-8.0791016c-0.7714844-0.2080078-1.5400391-0.4150391-2.2851563-0.640625
			c-1.2763672-0.3867188-2.2177734-1.1533203-2.7978516-2.2792969c-1.2646484-2.4511719-0.4697266-5.8798828-0.1435547-7.03125
			L32,39.2753906l-0.0390625-0.0058594l-4.8095703-0.7607422c0.3261719,1.1513672,1.1210938,4.5800781-0.1425781,7.03125
			c-0.5805664,1.1259766-1.5219727,1.8925781-2.7973633,2.2792969c-0.7456055,0.2255859-1.5141602,0.4326172-2.2856445,0.640625
			c-4.7714844,1.2841797-9.2788086,2.4970703-9.2788086,8.0751953L12.5288086,65.1152344z"/>
	</g>
	<g>
		<g>
			<path style="fill:#E08E0B;" d="M43.4543228,26.8590794c0,0,0.7397308-2.2662773,2.2608566-2.4134064
				c1.521122-0.1471291,2.4627991,5.3522472-0.4024124,7.7822285c-1.8136177,1.5381279-2.4834976,0.0183716-2.4834976,0.0183716
				L43.4543228,26.8590794z"/>
			<path style="fill:#330600;" d="M43.8535156,33.1660156c-0.8818359,0-1.2382813-0.7856445-1.2529297-0.8188477l-0.0273438-0.0625
				l0.6328125-5.4545898c0.0429688-0.1474609,0.8203125-2.472168,2.484375-2.6333008l0.0839844-0.0039063
				c0.5253906,0,0.984375,0.4609375,1.2919922,1.2983398c0.6289063,1.715332,0.5585938,5.1035156-1.5917969,6.9272461
				C44.8896484,32.9145508,44.34375,33.1660156,43.8535156,33.1660156z M43.0859375,32.1987305
				c0.078125,0.1333008,0.3173828,0.4672852,0.7675781,0.4672852c0.3691406,0,0.8056641-0.2114258,1.296875-0.6289063
				c1.9697266-1.6699219,2.0273438-4.7905273,1.4462891-6.3740234c-0.2226563-0.6074219-0.5302734-0.9702148-0.8222656-0.9702148
				c-1.3779297,0.1313477-2.0761719,2.2226563-2.0830078,2.2436523L43.0859375,32.1987305z"/>
		</g>
		<g>
			<path style="fill:#E08E0B;" d="M20.6714211,26.8590794c0,0-0.7397289-2.2662773-2.2608547-2.4134064
				c-1.5211239-0.1471291-2.4627981,5.3522472,0.4024105,7.7822285c1.8136215,1.5381279,2.4834995,0.0183716,2.4834995,0.0183716
				L20.6714211,26.8590794z"/>
			<path style="fill:#330600;" d="M20.2714844,33.1660156L20.2714844,33.1660156
				c-0.4902344,0-1.0351563-0.2514648-1.6201172-0.7470703c-2.1508789-1.8242188-2.2211914-5.2124023-1.5917969-6.9277344
				c0.3071289-0.8374023,0.765625-1.2983398,1.2910156-1.2983398l0.0839844,0.0039063
				c1.6650391,0.1611328,2.4423828,2.4858398,2.4746094,2.5844727l0.6435547,5.503418l-0.0273438,0.0625
				C21.5102539,32.3803711,21.1538086,33.1660156,20.2714844,33.1660156z M18.3842773,24.6948242
				c-0.3266602,0-0.6328125,0.3623047-0.8549805,0.9682617c-0.5810547,1.5834961-0.5234375,4.7041016,1.4453125,6.3745117
				c0.4921875,0.4169922,0.9282227,0.628418,1.296875,0.628418c0.4511719,0,0.6904297-0.3339844,0.7675781-0.4672852
				l-0.6162109-5.3110352v0.0004883c-0.0053711,0-0.7060547-2.0649414-2.0361328-2.1933594
				C18.3857422,24.6948242,18.3852539,24.6948242,18.3842773,24.6948242z"/>
		</g>
		<g>
			<path style="fill:#E08E0B;" d="M43.2196083,9.0474787C40.1725159,7.0345988,37.5801163,6.3043184,32,6.3043184
				s-8.172514,0.7302804-11.2196064,2.7431602c-3.7309685,2.4647846-2.6289539,13.3157759-0.6558571,22.0617905
				c1.1164608,4.9487762,2.5318737,5.9646568,4.4527645,7.7175484C27.498312,41.4923248,30.1507969,42.4339981,32,42.4339981
				c1.849205,0,4.5016861-0.9416733,7.422699-3.6071815c1.9208908-1.7528915,3.3363037-2.7687721,4.4527664-7.7175484
				C45.8485603,22.3632545,46.950573,11.5122633,43.2196083,9.0474787z"/>
			<path style="fill:#330600;" d="M32,42.6835938c-1.3320313,0-4.0893555-0.4765625-7.5913086-3.671875l-0.3525391-0.3193359
				c-1.7382813-1.5703125-3.1108398-2.8105469-4.175293-7.527832c-1.0053711-4.4555664-3.9208984-19.2324219,0.7617188-22.3256836
				C23.8339844,6.730957,26.59375,6.0541992,32,6.0541992s8.1660156,0.6767578,11.3574219,2.784668
				c4.6826172,3.0942383,1.7666016,17.8706055,0.7617188,22.3256836c-1.0644531,4.7172852-2.4375,5.9575195-4.1757813,7.527832
				l-0.3515625,0.3193359C36.0898438,42.2070313,33.3320313,42.6835938,32,42.6835938z M32,6.5541992
				c-5.3579102,0-7.9472656,0.6313477-11.0820313,2.7016602c-3.5083008,2.3178711-2.5839844,12.7802734-0.5498047,21.7983398
				c1.0297852,4.5629883,2.2856445,5.6967773,4.0234375,7.2670898l0.3540039,0.3212891
				c2.4667969,2.25,5.1108398,3.5410156,7.2543945,3.5410156s4.7880859-1.2910156,7.2539063-3.5410156l0.3544922-0.3212891
				c1.7382813-1.5703125,2.9931641-2.7041016,4.0224609-7.2670898c2.0351563-9.0180664,2.9599609-19.4799805-0.5488281-21.7983398
				C39.9472656,7.1855469,37.3583984,6.5541992,32,6.5541992z"/>
		</g>
		<path style="fill:#FFB743;" d="M43.4866028,25.1309319c-0.2819366-2.2480259-1.131237-4.8900585-2.5251465-7.8630562
			c-1.5339966,3.1450481-4.9312096,7.7601757-7.7820625,9.3432064l-3.9444427,2.190239l3.1345406-3.2457371
			c0.0188255-0.019701,1.1680107-1.2196693,2.5330238-3.1594944c-2.8302803,2.3706055-5.5344791,3.7680149-5.6999607,3.8529453
			l-1.4083538,0.7197189l0.4587975-1.5138607c0.9167213-3.023344,2.0602169-5.9079075,3.4064045-8.5980968
			c-0.6137733,0.2280865-1.2196674,0.4465408-1.8150558,0.6606178c-4.5929108,1.6546631-8.34161,3.0053387-9.5912113,6.5476761
			c0.2885551,2.257328,0.6814671,4.5468884,1.1233006,6.7063179c0.9988079,4.8813553,2.2649899,5.8833923,3.9833508,7.6124229
			C27.9728718,41.0130043,30.3457203,41.9418755,32,41.9418755c1.6542816,0,4.0271301-0.9288712,6.640213-3.5580444
			c1.7183609-1.7290306,2.9845428-2.7310677,3.9833488-7.6124229c0.3447037-1.6846523,0.6577187-3.4483223,0.9165573-5.2142372
			L43.4866028,25.1309319z M32,34.4793358c-0.4780617,0-1.2238274-0.2043343-1.2238274-0.4659119
			c0-0.343277,1.0111732-0.8702049,1.2238274-0.8702049s1.2238274,0.5269279,1.2238274,0.8702049
			C33.2238274,34.2750015,32.4780617,34.4793358,32,34.4793358z"/>
		<g>
			<linearGradient id="SVGID_3_" gradientUnits="userSpaceOnUse" x1="31.425787" y1="33.5179367" x2="31.425787" y2="28.5382481">
				<stop  offset="0" style="stop-color:#FFFFFF;stop-opacity:0"/>
				<stop  offset="0.4" style="stop-color:#FFFFFF;stop-opacity:0.2"/>
				<stop  offset="0.6" style="stop-color:#FFFFFF;stop-opacity:0.2"/>
				<stop  offset="1" style="stop-color:#FFFFFF;stop-opacity:0"/>
			</linearGradient>
			<path style="fill:url(#SVGID_3_);" d="M32.1652298,31.0280933c0,1.3751049-0.8837395,2.4898434-1.2794456,2.4898434
				s-0.1170101-1.544836,0.102356-2.8788815c0.20471-1.2449226,0.3719597-2.1008072,0.7676659-2.1008072
				S32.1652298,29.6529884,32.1652298,31.0280933z"/>
			<path style="fill:#330600;" d="M32,36.9600601c-2.5980244,0-3.9945412-0.7037544-3.9945412-0.7037544
				S28.2812595,37.6638184,32,37.6638184s3.9945412-1.4075127,3.9945412-1.4075127S34.5980225,36.9600601,32,36.9600601z"/>
		</g>
	</g>
</g>
<g>
	<path style="fill:#C9B965;" d="M29.3859634,20.9864883c0,0-0.4709816-0.309494-1.197298-0.6335201
		c-0.3590012-0.1688595-0.7948093-0.3139477-1.2550507-0.4378834c-0.2351532-0.0509872-0.474577-0.1011715-0.7227192-0.1246052
		c-0.2447739-0.0498142-0.4994926-0.0210609-0.7508602-0.0369453c-0.5056324,0.0129242-1.008831,0.1026134-1.4818363,0.223484
		c-0.2278938,0.0814571-0.4607048,0.1406631-0.6797485,0.2075024c-0.2049599,0.0926952-0.4091492,0.1692677-0.5975628,0.2444439
		c-0.3888664,0.1342182-0.6718102,0.3168316-0.9041843,0.4052563c-0.2296829,0.0968952-0.3609295,0.1522675-0.3609295,0.1522675
		s0.0824013-0.1014347,0.2401848-0.2734528c0.1691132-0.1602745,0.3712387-0.4366131,0.7230816-0.6672916
		c0.1699867-0.1212158,0.353405-0.2584381,0.5596237-0.3899765c0.2233906-0.1087017,0.4571495-0.2346096,0.7119102-0.3446522
		c0.2572784-0.1046791,0.5473099-0.1779785,0.8353195-0.2630768c0.2991333-0.0503044,0.6111622-0.0954151,0.9233303-0.1137466
		c0.3149261,0.0047894,0.6322994,0.0037155,0.9342804,0.0673141c0.3092327,0.0337315,0.5921841,0.1316605,0.8628197,0.2230721
		c0.5310345,0.2014465,0.9791088,0.4621964,1.2952232,0.7382164C29.1810455,20.4947014,29.3859634,20.9864883,29.3859634,20.9864883
		z"/>
	<path style="fill:#C9B965;" d="M34.6140366,20.9864883c0,0,0.4709816-0.309494,1.1973-0.6335201
		c0.3589973-0.1688595,0.7948074-0.3139477,1.2550507-0.4378834c0.2351532-0.0509872,0.474575-0.1011715,0.7227173-0.1246052
		c0.2447739-0.0498142,0.4994926-0.0210609,0.7508583-0.0369453c0.5056343,0.0129242,1.008831,0.1026134,1.4818382,0.223484
		c0.2278938,0.0814571,0.4607048,0.1406631,0.6797485,0.2075024c0.2049599,0.0926952,0.4091492,0.1692677,0.5975647,0.2444439
		c0.3888664,0.1342182,0.6718063,0.3168316,0.9041824,0.4052563c0.2296829,0.0968952,0.3609276,0.1522675,0.3609276,0.1522675
		s-0.0823975-0.1014347-0.2401848-0.2734528c-0.1691132-0.1602745-0.3712349-0.4366131-0.7230797-0.6672916
		c-0.1699867-0.1212158-0.353405-0.2584381-0.5596237-0.3899765c-0.2233925-0.1087017-0.4571495-0.2346096-0.7119102-0.3446522
		c-0.2572784-0.1046791-0.5473099-0.1779785-0.8353195-0.2630768c-0.2991333-0.0503044-0.6111603-0.0954151-0.9233322-0.1137466
		c-0.3149261,0.0047894-0.6322975,0.0037155-0.9342804,0.0673141c-0.3092308,0.0337315-0.5921822,0.1316605-0.8628159,0.2230721
		c-0.5310364,0.2014465-0.9791107,0.4621964-1.2952232,0.7382164
		C34.8189545,20.4947014,34.6140366,20.9864883,34.6140366,20.9864883z"/>
</g>
<g>
	<g>
		<linearGradient id="SVGID_4_" gradientUnits="userSpaceOnUse" x1="32.0108032" y1="2.3388829" x2="32.0108032" y2="32.4990273">
			<stop  offset="0" style="stop-color:#807540"/>
			<stop  offset="0.1316872" style="stop-color:#C9B965"/>
			<stop  offset="0.2510288" style="stop-color:#C9B965"/>
			<stop  offset="0.9" style="stop-color:#807640"/>
		</linearGradient>
		<path style="fill:url(#SVGID_4_);" d="M48.569252,16.2627697c-1.562336-8.6915169-6.5529289-11.1994362-9.9197617-11.8793831
			c-1.1285057-1.3330317-2.7690277-2.4549794-4.9437408-1.8986645c-1.5446396,0.3951516-4.0538082,0.6488171-6.7012367,1.6812816
			c-3.0726147,0.1866183-9.7073746,1.8100667-11.5654364,12.0605869c-0.7827711,3.2808933,1.1929846,16.072752,1.1929846,16.072752
			s1.9653149-7.5087719,2.1638012-8.4973526c0.2422657,0.6014462,0.4110279,0.9517784,0.4110279,0.9517784
			c0.7462654-6.3021774,7.036211-7.3437519,13.7445259-10.0089836c0.0478363-0.0190001,0.0876083-0.0422688,0.1347694-0.0616331
			c-1.4781628,2.7035437-2.9690247,6.0453367-4.1896172,10.0706167c0,0,5.8630905-2.9964066,9.355896-7.697155
			c-2.1514969,4.7120972-5.3995895,8.069767-5.3995895,8.069767c3.1449699-1.7462463,6.9861832-7.3886757,8.0143814-10.2316761
			c0.1097298,0.1271191,0.2126961,0.2631397,0.319931,0.3935375c1.4028893,2.8545036,2.6055222,5.9894829,2.9662666,8.8624134
			c0,0,0.1379471-1.5548916,0.0801659-3.754488c0.7865562,1.9769573,3.1262512,12.1028595,3.1262512,12.1028595
			S49.3937187,19.7299461,48.569252,16.2627697z"/>
		<path style="fill:#72402D;" d="M47.4052734,33.8046875l-0.2880859-1.2495117
			c-0.0195313-0.0839844-1.6396484-7.0844727-2.6240234-10.5234375c-0.0175781,1.2944336-0.0898438,2.1298828-0.0908203,2.1411133
			l-0.2060547,2.3286133l-0.2910156-2.3193359c-0.3125-2.4902344-1.3017578-5.4458008-2.9423828-8.7836914l-0.015625-0.0185547
			c-1.2490234,3.0341797-4.9326172,8.2773438-7.9726563,9.965332l-1.4682617,0.8149414l1.1669922-1.2075195
			c0.0273438-0.0283203,2.3706055-2.4726563,4.3666992-6.0576172c-3.4638672,3.722168-7.9780273,6.0551758-8.0297852,6.081543
			l-0.5234375,0.2675781l0.1704102-0.5629883c1.0214844-3.3686523,2.3256836-6.5629883,3.8803711-9.5058594
			c-0.9628906,0.3730469-1.9135742,0.715332-2.8374023,1.0483398c-5.387207,1.940918-9.6430664,3.4741211-10.2451172,8.5595703
			l-0.1005859,0.8520508l-0.3725586-0.7729492c0,0-0.0429688-0.0888672-0.1166992-0.2548828
			c-0.5209961,2.1352539-1.9223633,7.4916992-1.9916992,7.7553711l-0.3046875,1.1655273l-0.184082-1.190918
			c-0.0810547-0.5244141-1.9741211-12.878418-1.1889648-16.1689453C17.0952148,5.6889648,24.0170898,4.1069336,26.9501953,3.9189453
			c1.8544922-0.71875,3.6333008-1.0600586,5.0649414-1.3344727c0.6269531-0.1201172,1.1694336-0.2241211,1.6293945-0.3417969
			c1.8808594-0.4824219,3.6367188,0.1733398,5.1396484,1.9130859c3.0917969,0.6484375,8.4169922,3.0834961,10.03125,12.0625
			c0.8232422,3.4619141-1.125,15.796875-1.2080078,16.3203125L47.4052734,33.8046875z M43.9462891,19l0.5195313,1.3037109
			c0.625,1.5703125,2.1845703,8.0766602,2.8417969,10.8696289c0.4853516-3.3222656,1.6689453-12.1176758,1.0185547-14.8530273
			C46.8251953,7.9750977,42.2089844,5.3574219,38.5996094,4.628418l-0.0849609-0.0170898l-0.0556641-0.0664063
			c-1.3896484-1.6391602-2.9707031-2.2597656-4.6914063-1.8178711c-0.4746094,0.121582-1.0229492,0.2265625-1.6586914,0.3486328
			c-1.4204102,0.2724609-3.1884766,0.6113281-5.0136719,1.3232422l-0.0756836,0.0166016
			c-2.7924805,0.1694336-9.4868164,1.6640625-11.3344727,11.8554688c-0.6240234,2.6162109,0.5498047,11.5083008,1.015625,14.7749023
			c0.5620117-2.1582031,1.703125-6.5620117,1.8500977-7.293457l0.1645508-0.8198242l0.3125,0.7758789
			c0.0239258,0.059082,0.046875,0.1162109,0.0693359,0.1704102c1.0014648-4.7275391,5.3925781-6.3095703,10.4335938-8.1259766
			c1.081543-0.3896484,2.199707-0.7924805,3.328125-1.2407227l0.7875977-0.3334961l-0.3408203,0.6245117
			c-1.5917969,2.9106445-2.9316406,6.0820313-3.9882813,9.4355469c1.519043-0.8598633,5.9287109-3.5556641,8.7353516-7.3310547
			l1.4101563-1.8989258l-0.9824219,2.1518555c-1.2421875,2.7202148-2.8623047,5.0083008-4.0117188,6.4589844
			c2.6191406-2.3657227,5.3339844-6.5166016,6.1630859-8.8100586l0.1464844-0.402832l0.2783203,0.3251953
			c0.0683594,0.0791016,0.1337891,0.1611328,0.1992188,0.2431641l0.125,0.1538086
			c1.2392578,2.5117188,2.109375,4.7949219,2.6132813,6.8359375c0.0058594-0.4677734,0.0039063-0.9941406-0.0107422-1.5625
			L43.9462891,19z"/>
	</g>
	<linearGradient id="SVGID_5_" gradientUnits="userSpaceOnUse" x1="44.7967072" y1="6.7490921" x2="44.7967072" y2="16.4860687">
		<stop  offset="0" style="stop-color:#FFFFFF;stop-opacity:0.6"/>
		<stop  offset="1" style="stop-color:#FFFFFF;stop-opacity:0"/>
	</linearGradient>
	<path style="fill:url(#SVGID_5_);" d="M41.9596291,6.7490921c0,0,4.2549362,2.0611124,5.6763916,9.7369766
		C47.6360207,16.4860687,41.8269157,9.7341509,41.9596291,6.7490921z"/>
	
		<linearGradient id="SVGID_6_" gradientUnits="userSpaceOnUse" x1="37.8305359" y1="6.1209536" x2="37.8305359" y2="15.6718159" gradientTransform="matrix(0.9994498 0.0331685 -0.0331685 0.9994498 -0.5183742 -0.6808076)">
		<stop  offset="0" style="stop-color:#FFFFFF;stop-opacity:0.6"/>
		<stop  offset="1" style="stop-color:#FFFFFF;stop-opacity:0"/>
	</linearGradient>
	<path style="fill:url(#SVGID_6_);" d="M40.2962532,6.7980204c0,0-2.1514435,6.2846823-6.7326508,9.3326845
		C33.5636024,16.1307049,36.229557,7.871963,40.2962532,6.7980204z"/>
	<linearGradient id="SVGID_7_" gradientUnits="userSpaceOnUse" x1="29.0873299" y1="5.9011192" x2="29.0873299" y2="14.5779428">
		<stop  offset="0" style="stop-color:#FFFFFF;stop-opacity:0.6"/>
		<stop  offset="1" style="stop-color:#FFFFFF;stop-opacity:0"/>
	</linearGradient>
	<path style="fill:url(#SVGID_7_);" d="M34.9893265,5.9011192c0,0-5.0364819,1.0619717-6.2515888,2.48561
		c-1.2151051,1.4236383-5.5524025,6.1912136-5.5524025,6.1912136S33.5428238,9.8103676,34.9893265,5.9011192z"/>
	<linearGradient id="SVGID_8_" gradientUnits="userSpaceOnUse" x1="19.3210354" y1="6.8628201" x2="19.3210354" y2="16.8748913">
		<stop  offset="0" style="stop-color:#FFFFFF;stop-opacity:0.6"/>
		<stop  offset="1" style="stop-color:#FFFFFF;stop-opacity:0"/>
	</linearGradient>
	<path style="fill:url(#SVGID_8_);" d="M22.332283,6.8628201c0,0-4.9932938,2.5106883-6.0224953,10.0120716
		C16.3097878,16.8748913,22.1541672,10.4719763,22.332283,6.8628201z"/>
</g>
</svg>
