<?xml version="1.0" encoding="utf-8"?>
<!-- Generator: Adobe Illustrator 18.0.0, SVG Export Plug-In . SVG Version: 6.00 Build 0)  -->
<!DOCTYPE svg PUBLIC "-//W3C//DTD SVG 1.1//EN" "http://www.w3.org/Graphics/SVG/1.1/DTD/svg11.dtd">
<svg version="1.1" id="レイヤー_1" xmlns="http://www.w3.org/2000/svg" xmlns:xlink="http://www.w3.org/1999/xlink" x="0px"
	 y="0px" width="64px" height="64px" viewBox="0 0 64 64" style="enable-background:new 0 0 64 64;" xml:space="preserve">
<g>
	<g>
		<linearGradient id="SVGID_1_" gradientUnits="userSpaceOnUse" x1="32" y1="47.521347" x2="32" y2="65.3651123">
			<stop  offset="0" style="stop-color:#FF80B9"/>
			<stop  offset="1" style="stop-color:#FF2687"/>
		</linearGradient>
		<path style="fill:url(#SVGID_1_);" d="M52.0999146,56.4868164c0-6.686245-6.5005646-7.383255-11.8776855-8.9568939
			c-0.092495-0.0270691-0.1868629,0.0111046-0.2286186,0.0979576C39.5892181,48.469017,37.3053589,52.6666679,32,52.6666679
			s-7.58922-4.1976509-7.9936104-5.0387878c-0.0417557-0.086853-0.1361256-0.1250267-0.2286167-0.0979576
			c-5.3771229,1.5736389-11.8776875,2.270649-11.8776875,8.9568939l-0.124939,8.8782959h40.449707L52.0999146,56.4868164z"/>
		<path style="fill:#A40B5D;" d="M52.4785156,65.6152344h-40.956543l0.1279297-9.1328125
			c0-5.9912109,5.0288086-7.3173828,9.8920898-8.6005859c0.7294922-0.1923828,1.4575195-0.3847656,2.1655273-0.5917969
			l0.1293945-0.0185547c0.1704102,0,0.3217773,0.0957031,0.3950195,0.2490234
			C24.625,48.3378906,26.8476563,52.4169922,32,52.4169922s7.375-4.0791016,7.7675781-4.8974609
			c0.0742188-0.1533203,0.2255859-0.2480469,0.3955078-0.2480469l0.1298828,0.0185547
			c0.7080078,0.2070313,1.4355469,0.3994141,2.1650391,0.5917969c4.8632813,1.2832031,9.8916016,2.609375,9.8916016,8.6044922
			L52.4785156,65.6152344z M12.0288086,65.1152344h39.9418945l-0.1210938-8.625c0-5.6142578-4.6240234-6.8339844-9.5185547-8.125
			c-0.7197266-0.1894531-1.4365234-0.3789063-2.1347656-0.5820313C39.7226563,48.7441406,37.3603516,52.9169922,32,52.9169922
			c-5.3623047,0-7.7250977-4.1748047-8.1967773-5.1357422c-0.6914063,0.2041016-1.4116211,0.3935547-2.1337891,0.5839844
			c-4.8955078,1.2919922-9.5195313,2.5117188-9.5195313,8.1210938L12.0288086,65.1152344z"/>
	</g>
	<path style="fill:#A40B5D;" d="M32,54.6669922c-7.5927734,0-9.8598633-6.5566406-9.8818359-6.6230469l0.4746094-0.1582031
		c0.0854492,0.2568359,2.1826172,6.28125,9.4072266,6.28125s9.3212891-6.0244141,9.4072266-6.28125l0.4746094,0.1582031
		C41.859375,48.1103516,39.5927734,54.6669922,32,54.6669922z"/>
</g>
</svg>
