<?xml version="1.0" encoding="utf-8"?>
<!-- Generator: Adobe Illustrator 15.0.2, SVG Export Plug-In . SVG Version: 6.00 Build 0)  -->
<!DOCTYPE svg PUBLIC "-//W3C//DTD SVG 1.1//EN" "http://www.w3.org/Graphics/SVG/1.1/DTD/svg11.dtd">
<svg version="1.1" id="レイヤー_1" xmlns="http://www.w3.org/2000/svg" xmlns:xlink="http://www.w3.org/1999/xlink" x="0px"
	 y="0px" width="64px" height="64px" viewBox="0 0 64 64" style="enable-background:new 0 0 64 64;" xml:space="preserve">
<g>
	<path style="fill:#541715;" d="M31.9916992,41.4169922c-8.7402344,0-19.7192383-2.8916016-19.7192383-2.8916016
		c-2.0429688-0.3085938-1.1518555,2.0585938-1.1518555,2.0585938c0,0.8212891,4.394043,11.2080078,20.8710938,11.2080078
		s20.871582-10.3867188,20.871582-11.2080078c0,0,0.890625-2.3671875-1.1523438-2.0585938
		C51.7109375,38.5253906,40.7324219,41.4169922,31.9916992,41.4169922"/>
	<path style="fill:none;stroke:#541715;stroke-width:3;stroke-miterlimit:10;" d="M31.9916992,41.4169922
		c-8.7402344,0-19.7192383-2.8916016-19.7192383-2.8916016c-2.0429688-0.3085938-1.1518555,2.0585938-1.1518555,2.0585938
		c0,0.8212891,4.394043,11.2080078,20.8710938,11.2080078s20.871582-10.3867188,20.871582-11.2080078
		c0,0,0.890625-2.3671875-1.1523438-2.0585938C51.7109375,38.5253906,40.7324219,41.4169922,31.9916992,41.4169922z"/>
</g>
<radialGradient id="SVGID_1_" cx="0.0092773" cy="63.9980469" r="0.9993637" gradientTransform="matrix(31.2095985 0 0 -26.0444984 31.9334717 1715.4395752)" gradientUnits="userSpaceOnUse">
	<stop  offset="0" style="stop-color:#E5E2DF"/>
	<stop  offset="0" style="stop-color:#F1EFEE"/>
	<stop  offset="0" style="stop-color:#FFFFFF"/>
	<stop  offset="0.2390494" style="stop-color:#F0F1F1"/>
	<stop  offset="0.694004" style="stop-color:#CACBCC"/>
	<stop  offset="1" style="stop-color:#ADAEB0"/>
</radialGradient>
<path style="fill:url(#SVGID_1_);" d="M52.8632813,40.5839844c0,0,0.7861328-2.0859375-0.8095703-2.0859375
	c-0.1035156,0-0.2177734,0.0087891-0.3427734,0.0273438c0,0-10.9785156,2.8916016-19.7197266,2.8916016
	c-8.7402344,0-19.7182617-2.8916016-19.7182617-2.8916016c-2.0429688-0.3085938-1.152832,2.0585938-1.152832,2.0585938
	c0,0.8222656,4.3950195,11.2080078,20.8710938,11.2080078C48.46875,51.7919922,52.8632813,41.40625,52.8632813,40.5839844z"/>
<g>
	<path style="fill:#B2B2B3;" d="M52.8828125,40.5507813c0,0,0.1328125-0.1894531,0.1777344-0.4111328
		c-0.0234375-0.1884766-0.078125-0.3662109-0.1894531-0.5107422c-0.1875-0.1318359-0.5332031-0.2099609-1.140625-0.1611328
		c0,0-0.4609375,0.0634766-1.2421875,0.1621094c-3.1015625,0.7421875-11.4960938,2.5839844-18.4765625,2.5839844
		c-6.9819336,0-15.3759766-1.8417969-18.4760742-2.5839844c-0.7807617-0.0986328-1.2416992-0.1621094-1.2416992-0.1621094
		c-0.6103516-0.0488281-0.953125,0.0292969-1.1430664,0.1611328c-0.1088867,0.1445313-0.1660156,0.3222656-0.1870117,0.5107422
		c0.0439453,0.2216797,0.1767578,0.4111328,0.1767578,0.4111328c0,0.4326172,4.394043,5.8994141,20.8710938,5.8994141
		C48.4882813,46.4501953,52.8828125,40.9833984,52.8828125,40.5507813"/>
</g>
<radialGradient id="SVGID_2_" cx="-0.0097656" cy="63.9912109" r="0.9999981" gradientTransform="matrix(35.7537994 0 0 -29.8370991 32.347168 1953.8027344)" gradientUnits="userSpaceOnUse">
	<stop  offset="0" style="stop-color:#E5E2DF"/>
	<stop  offset="0" style="stop-color:#F1EFEE"/>
	<stop  offset="0" style="stop-color:#FFFFFF"/>
	<stop  offset="0.2390494" style="stop-color:#F0F1F1"/>
	<stop  offset="0.694004" style="stop-color:#CACBCC"/>
	<stop  offset="1" style="stop-color:#ADAEB0"/>
</radialGradient>
<path style="fill:url(#SVGID_2_);" d="M52.0693359,38.5078125c-0.1044922,0-0.2226563,0.0068359-0.3583984,0.0175781
	c0,0-0.4189453,0.0996094-1.2431641,0.3076172c-3.1005859,0.7421875-11.4951172,2.5839844-18.4765625,2.5839844
	c-6.9824219,0-15.375-1.8417969-18.4760742-2.5839844c-0.7651367-0.1445313-1.2421875-0.3076172-1.2421875-0.3076172
	c-0.6079102-0.0488281-0.855957-0.0029297-1.1430664,0.3066406c-0.1088867,0.1435547-0.1640625,0.3232422-0.1870117,0.5107422
	c0.0439453,0.2216797,0.1772461,0.4111328,0.1772461,0.4111328c0,0.4326172,4.3950195,5.9003906,20.8710938,5.9003906
	c16.4775391,0,20.8720703-5.4677734,20.8720703-5.9003906c0,0,0.1337891-0.1894531,0.1777344-0.4111328
	c-0.0244141-0.1875-0.078125-0.3671875-0.1894531-0.5107422C52.6269531,38.5859375,52.4296875,38.5078125,52.0693359,38.5078125z"/>
<g>
	<path style="fill-rule:evenodd;clip-rule:evenodd;fill:#330100;" d="M49.0136719,26.7177734
		c-0.0810547,1.7441406-0.5273438,3.3720703-1.7636719,4.6899414c-1.7412109,1.855957-4.3242188,1.8442383-6.0546875-0.0058594
		c-2.2568359-2.4160156-2.2695313-6.8862305-0.0253906-9.3188477c1.7675781-1.9169922,4.3847656-1.9213867,6.1396484,0.0166016
		C48.4863281,23.3989258,48.9306641,24.9848633,49.0136719,26.7177734"/>
	<path style="fill-rule:evenodd;clip-rule:evenodd;fill:#330100;" d="M16.5498047,26.7744141
		c0.0507813-1.3818359,0.4082031-2.6420898,1.3847656-3.6518555c1.3110352-1.3549805,3.2124023-1.3271484,4.5083008,0.0429688
		c1.7148438,1.8139648,1.7451172,5.1938477,0.0610352,7.0517578c-1.3193359,1.4550781-3.3212891,1.4702148-4.6489258,0.0209961
		C16.9570313,29.2592773,16.621582,28.0615234,16.5498047,26.7744141"/>
	<path style="fill-rule:evenodd;clip-rule:evenodd;fill:#6A3906;" d="M23.0864258,32.0507813
		c-1.6459961,1.4550781-4.1420898,1.4697266-5.7988281,0.0214844c-0.2011719-0.1762695-0.3710938-0.3613281-0.5292969-0.550293
		c0.190918,0.7768555,0.519043,1.503418,1.097168,2.1333008c1.328125,1.4482422,3.3300781,1.4345703,4.6479492-0.0205078
		c0.5297852-0.5839844,0.8701172-1.3251953,1.0610352-2.1137695C23.4145508,31.7026367,23.2695313,31.8886719,23.0864258,32.0507813
		"/>
</g>
</svg>
