<?xml version="1.0" encoding="UTF-8" standalone="no"?>
<!-- Generator: Adobe Illustrator 16.0.0, SVG Export Plug-In . SVG Version: 6.00 Build 0)  -->

<svg
   xmlns:dc="http://purl.org/dc/elements/1.1/"
   xmlns:cc="http://creativecommons.org/ns#"
   xmlns:rdf="http://www.w3.org/1999/02/22-rdf-syntax-ns#"
   xmlns:svg="http://www.w3.org/2000/svg"
   xmlns="http://www.w3.org/2000/svg"
   xmlns:sodipodi="http://sodipodi.sourceforge.net/DTD/sodipodi-0.dtd"
   xmlns:inkscape="http://www.inkscape.org/namespaces/inkscape"
   version="1.1"
   id="Layer_44_copy"
   x="0px"
   y="0px"
   width="64px"
   height="64px"
   viewBox="0 0 64 64"
   style="enable-background:new 0 0 64 64;"
   xml:space="preserve"
   sodipodi:docname="overlay.svg"
   inkscape:version="0.92.2 (5c3e80d, 2017-08-06)"><metadata
     id="metadata59"><rdf:RDF><cc:Work
         rdf:about=""><dc:format>image/svg+xml</dc:format><dc:type
           rdf:resource="http://purl.org/dc/dcmitype/StillImage" /></cc:Work></rdf:RDF></metadata><defs
     id="defs57" /><sodipodi:namedview
     pagecolor="#ffffff"
     bordercolor="#666666"
     borderopacity="1"
     objecttolerance="10"
     gridtolerance="10"
     guidetolerance="10"
     inkscape:pageopacity="0"
     inkscape:pageshadow="2"
     inkscape:window-width="1920"
     inkscape:window-height="1043"
     id="namedview55"
     showgrid="false"
     inkscape:zoom="20.85965"
     inkscape:cx="51.386235"
     inkscape:cy="13.609536"
     inkscape:window-x="0"
     inkscape:window-y="0"
     inkscape:window-maximized="1"
     inkscape:current-layer="Layer_44_copy" /><style
     type="text/css"
     id="style2"><![CDATA[
	.st0{fill:#B2B2B3;}
	.st1{fill:none;stroke:#541715;stroke-width:3;stroke-miterlimit:10;}
	.st2{fill:#541715;}
	.st3{fill:url(#SVGID_1_);}
	.st4{fill:url(#SVGID_2_);}
	.st5{fill-rule:evenodd;clip-rule:evenodd;fill:#330100;}
	.st6{fill-rule:evenodd;clip-rule:evenodd;fill:#6A3906;}
]]></style><g
     id="g8"><path
       class="st2"
       d="M32,41.4c-8.7,0-19.7-2.9-19.7-2.9c-2-0.3-1.2,2.1-1.2,2.1c0,0.8,4.4,11.2,20.9,11.2   c16.5,0,20.9-10.4,20.9-11.2c0,0,0.9-2.4-1.2-2.1C51.7,38.5,40.7,41.4,32,41.4z"
       id="path4" /><path
       class="st1"
       d="m 32,41.4 c -8.7,0 -19.7,-2.9 -19.7,-2.9 -2,-0.3 -1.2,2.1 -1.2,2.1 0,0.8 4.4,11.2 20.9,11.2 0.362294,0 0.718754,-0.005 1.069461,-0.01483 C 48.691102,51.347919 52.9,41.382434 52.9,40.6 c 0,0 0.9,-2.4 -1.2,-2.1 0,0 -11,2.9 -19.7,2.9 z"
       id="path6"
       inkscape:connector-curvature="0"
       style="fill:none;stroke:#541715;stroke-width:3;stroke-miterlimit:10"
       sodipodi:nodetypes="sccssccs" /></g><g
     id="g25"><radialGradient
       id="SVGID_1_"
       cx="32.1367"
       cy="48.667"
       r="26.0445"
       gradientTransform="matrix(1.1983 0 0 1 -6.3183 0)"
       gradientUnits="userSpaceOnUse"><stop
         offset="0"
         style="stop-color:#E5E2DF"
         id="stop10" /><stop
         offset="0"
         style="stop-color:#F1EFEE"
         id="stop12" /><stop
         offset="0"
         style="stop-color:#FFFFFF"
         id="stop14" /><stop
         offset="0.241"
         style="stop-color:#F0F0F1"
         id="stop16" /><stop
         offset="0.7012"
         style="stop-color:#C9CACB"
         id="stop18" /><stop
         offset="1"
         style="stop-color:#ADAEB0"
         id="stop20" /></radialGradient><path
       class="st3"
       d="M32,41.4c-8.7,0-19.7-2.9-19.7-2.9c-2-0.3-1.2,2.1-1.2,2.1c0,0.8,4.4,11.2,20.9,11.2   c16.5,0,20.9-10.4,20.9-11.2c0,0,0.9-2.4-1.2-2.1C51.7,38.5,40.7,41.4,32,41.4z"
       id="path23"
       style="stroke:none" /></g><g
     id="g29"><path
       class="st0"
       d="M52.9,40.6c0,0,0.1-0.2,0.2-0.4c0-0.2-0.1-0.4-0.2-0.5c-0.2-0.1-0.5-0.2-1.1-0.2c0,0-0.5,0.1-1.2,0.2   C47.4,40.4,39,42.2,32,42.2c-7,0-15.4-1.8-18.5-2.6c-0.8-0.1-1.2-0.2-1.2-0.2c-0.6,0-1,0-1.1,0.2C11,39.8,11,40,11,40.1   c0,0.2,0.2,0.4,0.2,0.4c0,0.4,4.4,5.9,20.9,5.9C48.5,46.5,52.9,41,52.9,40.6z"
       id="path27"
       style="stroke:none" /></g><g
     id="g46"
     style="stroke:none"><radialGradient
       id="SVGID_2_"
       cx="32.106"
       cy="44.4756"
       r="29.8371"
       gradientTransform="matrix(1.1983 0 0 1 -6.4802 0)"
       gradientUnits="userSpaceOnUse"><stop
         offset="0"
         style="stop-color:#E5E2DF"
         id="stop31" /><stop
         offset="0"
         style="stop-color:#F1EFEE"
         id="stop33" /><stop
         offset="0"
         style="stop-color:#FFFFFF"
         id="stop35" /><stop
         offset="0.241"
         style="stop-color:#F0F0F1"
         id="stop37" /><stop
         offset="0.7012"
         style="stop-color:#C9CACB"
         id="stop39" /><stop
         offset="1"
         style="stop-color:#ADAEB0"
         id="stop41" /></radialGradient><path
       class="st4"
       d="M52.9,39.8c0,0,0.1-0.2,0.2-0.4c0-0.2-0.1-0.4-0.2-0.5c-0.3-0.3-0.5-0.4-1.1-0.3c0,0-0.4,0.1-1.2,0.3   C47.4,39.6,39,41.4,32,41.4c-7,0-15.4-1.8-18.5-2.6c-0.8-0.1-1.2-0.3-1.2-0.3c-0.6,0-0.9,0-1.1,0.3C11,39,11,39.2,10.9,39.3   c0,0.2,0.2,0.4,0.2,0.4c0,0.4,4.4,5.9,20.9,5.9C48.5,45.7,52.9,40.2,52.9,39.8z"
       id="path44"
       style="stroke:none" /></g><path
     class="st5"
     d="M49,26.7c-0.1,1.7-0.5,3.4-1.8,4.7c-1.7,1.9-4.3,1.8-6.1,0c-2.3-2.4-2.3-6.9,0-9.3c1.8-1.9,4.4-1.9,6.1,0  C48.5,23.4,48.9,25,49,26.7z"
     id="path48" /><path
     class="st5"
     d="M16.5,26.8c0.1-1.4,0.4-2.6,1.4-3.7c1.3-1.4,3.2-1.3,4.5,0c1.7,1.8,1.7,5.2,0.1,7.1c-1.3,1.5-3.3,1.5-4.6,0  C17,29.3,16.6,28.1,16.5,26.8z"
     id="path50" /><path
     class="st6"
     d="M23.1,32.1c-1.6,1.5-4.1,1.5-5.8,0c-0.2-0.2-0.4-0.4-0.5-0.5c0.2,0.8,0.5,1.5,1.1,2.1c1.3,1.4,3.3,1.4,4.6,0  c0.5-0.6,0.9-1.3,1.1-2.1C23.4,31.7,23.3,31.9,23.1,32.1z"
     id="path52" /></svg>