<?xml version="1.0" encoding="utf-8"?>
<!-- Generator: Adobe Illustrator 16.0.0, SVG Export Plug-In . SVG Version: 6.00 Build 0)  -->
<!DOCTYPE svg PUBLIC "-//W3C//DTD SVG 1.1//EN" "http://www.w3.org/Graphics/SVG/1.1/DTD/svg11.dtd">
<svg version="1.1" id="Layer_44_copy" xmlns="http://www.w3.org/2000/svg" xmlns:xlink="http://www.w3.org/1999/xlink" x="0px"
	 y="0px" width="64px" height="64px" viewBox="0 0 64 64" enable-background="new 0 0 64 64" xml:space="preserve">
<g>
	<path fill="#541715" d="M31.992,41.417c-8.74,0-19.719-2.892-19.719-2.892c-2.043-0.309-1.152,2.059-1.152,2.059
		c0,0.821,4.395,11.208,20.871,11.208c16.477,0,20.872-10.387,20.872-11.208c0,0,0.891-2.367-1.152-2.059
		C51.711,38.525,40.732,41.417,31.992,41.417z"/>
	<path fill="none" stroke="#541715" stroke-width="3" stroke-miterlimit="10" d="M31.992,41.417c-8.74,0-19.719-2.892-19.719-2.892
		c-2.043-0.309-1.152,2.059-1.152,2.059c0,0.821,4.395,11.208,20.871,11.208c16.477,0,20.872-10.387,20.872-11.208
		c0,0,0.891-2.367-1.152-2.059C51.711,38.525,40.732,41.417,31.992,41.417z"/>
</g>
<g>
	
		<radialGradient id="SVGID_1_" cx="32.1367" cy="48.667" r="26.0445" gradientTransform="matrix(1.1983 0 0 1 -6.3183 0)" gradientUnits="userSpaceOnUse">
		<stop  offset="0" style="stop-color:#E5E2DF"/>
		<stop  offset="0" style="stop-color:#F1EFEE"/>
		<stop  offset="0" style="stop-color:#FFFFFF"/>
		<stop  offset="0.241" style="stop-color:#F0F0F1"/>
		<stop  offset="0.7012" style="stop-color:#C9CACB"/>
		<stop  offset="1" style="stop-color:#ADAEB0"/>
	</radialGradient>
	<path fill="url(#SVGID_1_)" d="M31.992,41.417c-8.74,0-19.719-2.892-19.719-2.892c-2.043-0.309-1.152,2.059-1.152,2.059
		c0,0.821,4.395,11.208,20.871,11.208c16.477,0,20.872-10.387,20.872-11.208c0,0,0.891-2.367-1.152-2.059
		C51.711,38.525,40.732,41.417,31.992,41.417z"/>
</g>
<g>
	<path fill="#B2B2B3" d="M52.982,40.551c0,0,0.133-0.189,0.178-0.411c-0.023-0.188-0.078-0.366-0.189-0.511
		c-0.188-0.132-0.533-0.21-1.141-0.161c0,0-0.461,0.063-1.242,0.162c-3.102,0.742-11.496,2.584-18.476,2.584
		c-6.982,0-15.376-1.842-18.477-2.584c-0.781-0.099-1.242-0.162-1.242-0.162c-0.609-0.049-0.953,0.029-1.143,0.161
		c-0.109,0.145-0.166,0.322-0.188,0.511c0.044,0.222,0.178,0.411,0.178,0.411c0,0.433,4.394,5.899,20.871,5.899
		C48.588,46.45,52.982,40.983,52.982,40.551z"/>
</g>
<g>
	
		<radialGradient id="SVGID_2_" cx="31.9697" cy="44.5" r="29.8335" gradientTransform="matrix(1.1983 0 0 1 -6.3183 0)" gradientUnits="userSpaceOnUse">
		<stop  offset="0" style="stop-color:#E5E2DF"/>
		<stop  offset="0" style="stop-color:#F1EFEE"/>
		<stop  offset="0" style="stop-color:#FFFFFF"/>
		<stop  offset="0.241" style="stop-color:#F0F0F1"/>
		<stop  offset="0.7012" style="stop-color:#C9CACB"/>
		<stop  offset="1" style="stop-color:#ADAEB0"/>
	</radialGradient>
	<path fill="url(#SVGID_2_)" d="M52.863,39.754c0,0,0.133-0.189,0.178-0.411c-0.023-0.188-0.078-0.366-0.189-0.511
		c-0.188-0.132-0.533-0.21-1.141-0.161c0,0-0.463,0.063-1.242,0.162c-3.102,0.742-11.496,2.584-18.477,2.584
		c-6.982,0-15.376-1.842-18.477-2.584c-0.781-0.099-1.242-0.162-1.242-0.162c-0.608-0.049-0.953,0.029-1.143,0.161
		c-0.109,0.145-0.165,0.322-0.188,0.511c0.044,0.222,0.178,0.411,0.178,0.411c0,0.433,4.395,5.899,20.871,5.899
		C48.469,45.653,52.863,40.187,52.863,39.754z"/>
</g>
<path fill-rule="evenodd" clip-rule="evenodd" fill="#330100" d="M49.014,26.718c-0.081,1.744-0.527,3.372-1.764,4.69
	c-1.741,1.855-4.324,1.844-6.055-0.007c-2.257-2.416-2.27-6.886-0.025-9.318c1.768-1.917,4.385-1.921,6.14,0.017
	C48.486,23.398,48.931,24.984,49.014,26.718z"/>
<path fill-rule="evenodd" clip-rule="evenodd" fill="#330100" d="M16.55,26.774c0.051-1.382,0.408-2.642,1.385-3.652
	c1.311-1.355,3.212-1.327,4.507,0.042c1.716,1.814,1.745,5.194,0.062,7.053c-1.319,1.455-3.321,1.47-4.649,0.021
	C16.957,29.259,16.622,28.061,16.55,26.774z"/>
<path fill-rule="evenodd" clip-rule="evenodd" fill="#6A3906" d="M23.086,32.051c-1.646,1.455-4.142,1.47-5.799,0.021
	c-0.201-0.176-0.372-0.361-0.529-0.55c0.191,0.776,0.519,1.503,1.097,2.133c1.328,1.448,3.33,1.435,4.649-0.021
	c0.529-0.584,0.869-1.325,1.061-2.114C23.414,31.703,23.269,31.889,23.086,32.051z"/>
</svg>
