<?xml version="1.0" encoding="utf-8"?>
<!-- Generator: Adobe Illustrator 18.0.0, SVG Export Plug-In . SVG Version: 6.00 Build 0)  -->
<!DOCTYPE svg PUBLIC "-//W3C//DTD SVG 1.1//EN" "http://www.w3.org/Graphics/SVG/1.1/DTD/svg11.dtd">
<svg version="1.1" id="レイヤー_1" xmlns="http://www.w3.org/2000/svg" xmlns:xlink="http://www.w3.org/1999/xlink" x="0px"
	 y="0px" width="64px" height="64px" viewBox="0 0 64 64" style="enable-background:new 0 0 64 64;" xml:space="preserve">
<g>
	<g>
		<path style="fill:#FFFFFF;" d="M40.248867,24.2860794c-0.2168045-0.0748405-2.8775482,0.0114002-3.1063004,0.0919895
			c-1.3472633,0.4744911-1.9278145,1.4363976-1.9278145,2.2114258c0,1.0176792,0.3799362,1.9671535,1.1929817,2.2491665
			c0.5538597,0.1921844,0.6844559,0.2338047,1.106472,0.2496281c0.1777725,0.0067329,0.4020729,0.0093365,0.7399292,0.015873
			c0.2367973,0.00457,0.5013313,0.0075188,0.7817574-0.0095329c1.158947-0.0705166,2.5960236-0.4941978,3.5341148-2.6673431
			C42.5700073,26.4272861,41.8971024,24.8549671,40.248867,24.2860794z"/>
		<g>
			<g>
				
					<linearGradient id="SVGID_1_" gradientUnits="userSpaceOnUse" x1="38.4218445" y1="29.0175343" x2="38.4218445" y2="23.9845428">
					<stop  offset="0" style="stop-color:#1E1E57"/>
					<stop  offset="0.4526749" style="stop-color:#070714"/>
				</linearGradient>
				<path style="fill:url(#SVGID_1_);" d="M38.1990433,29.0175343c-0.0598412,0-0.1196785-0.0033741-0.1798286-0.0101242
					c-0.5141983-0.0586777-0.963623-0.3653049-1.2649841-0.8638c-0.3161697-0.5226421-0.4296799-1.1862659-0.320179-1.8687115
					c0.2060509-1.2844067,1.1770744-2.2903557,2.2104034-2.2903557c0.0598412,0,0.1196823,0.003376,0.1798325,0.0101261
					c1.0959473,0.124754,1.807251,1.3504829,1.5854721,2.7325115
					C40.2033997,28.0114555,39.2323761,29.0175343,38.1990433,29.0175343L38.1990433,29.0175343z"/>
				<g>
					<path style="fill:#050505;" d="M40.6444511,26.753933c0.1615982-1.0063076-0.1561546-1.9259624-0.7517204-2.4678612
						c-0.3143806-0.1255054-0.6684837-0.2038651-1.0679207-0.2038651c-0.6461754,0-1.1759224,0.1156826-1.6183205,0.2958679
						c-0.5032921,0.4441471-0.8837128,1.10042-1.0073204,1.8700485c-0.2082748,1.2968655,0.3694,2.4635315,1.3287048,2.8401985
						c0.1537323,0.0066929,0.347702,0.0093117,0.6398697,0.0158596c0.2047729,0.0045853,0.4335365,0.0075302,0.6760406-0.009531
						C39.7255554,28.7883053,40.4617615,27.8913879,40.6444511,26.753933z M38.1990318,28.8181362
						c-0.0493126,0-0.099102-0.0028019-0.1480255-0.0084038c-0.435009-0.0494747-0.8205719-0.3181686-1.0856819-0.7564964
						c-0.2944984-0.4869289-0.399868-1.1090412-0.2966156-1.751709c0.1906853-1.187439,1.0586243-2.1176071,1.9758759-2.1176071
						c0.0493164,0,0.099102,0.0028019,0.1480293,0.0083675c0.4350052,0.0495129,0.8205681,0.3181686,1.0856781,0.7565327
						c0.2945023,0.4869289,0.3998718,1.1090069,0.2966194,1.7516727
						C39.9842262,27.8879681,39.1162872,28.8181362,38.1990318,28.8181362z"/>
				</g>
			</g>
			<path style="fill:#050505;" d="M37.5792389,26.382494c-0.0909195,0.6999111,0.2126045,1.3203735,0.6779404,1.3858414
				c0.4653397,0.0654659,0.9162788-0.4488525,1.0072021-1.1487656s-0.2126045-1.3203754-0.6779404-1.3858414
				C38.1211014,25.1682606,37.6701622,25.6825809,37.5792389,26.382494z"/>
		</g>
		<linearGradient id="SVGID_2_" gradientUnits="userSpaceOnUse" x1="36.5881042" y1="26.27915" x2="36.5881042" y2="24.8921661">
			<stop  offset="0" style="stop-color:#FFFFFF;stop-opacity:0.5"/>
			<stop  offset="0.7" style="stop-color:#FFFFFF"/>
		</linearGradient>
		<ellipse style="fill:url(#SVGID_2_);" cx="36.5881042" cy="25.585659" rx="0.6382648" ry="0.6934917"/>
		<linearGradient id="SVGID_3_" gradientUnits="userSpaceOnUse" x1="38.3310776" y1="29.0175343" x2="38.3310776" y2="28.0723057">
			<stop  offset="0" style="stop-color:#FFFFFF;stop-opacity:0.2"/>
			<stop  offset="0.7" style="stop-color:#FFFFFF;stop-opacity:0.7"/>
		</linearGradient>
		<ellipse style="fill:url(#SVGID_3_);" cx="38.3310776" cy="28.54492" rx="0.4349775" ry="0.4726147"/>
		<g>
			<g>
				<path style="fill:#050505;" d="M41.9596291,27.6033115c0.1765633-0.2796249,0.5040054-0.8436775,0.5040054-1.1760082
					c0-0.314806-0.8400116-1.2235222-1.956459-1.7858887c-0.4647713-0.2058887-0.8674774-0.3627071-1.4849091-0.3627071
					c-0.3245926,0-0.6955528,0.0418015-1.1667442,0.1315041c-1.4007301,0.2666435-2.5546341,1.4486237-2.9387894,1.8836403
					c0.0945244-0.3000069,0.7627029-2.5677738,4.1865005-2.5677738c2.7531776,0,4.3480835,2.2628345,4.4672203,2.3862896
					C43.5704536,26.1123676,42.2542572,27.4059906,41.9596291,27.6033115z"/>
			</g>
			<path style="fill:#050505;" d="M34.9167328,25.4169483c0,0,3.1244583-4.361517,8.2772369-0.3828316
				C43.1939697,25.0341167,38.4571609,22.3771515,34.9167328,25.4169483z"/>
			<polygon style="fill:#050505;" points="43.1939697,27.0480576 42.8292694,26.5010319 41.9596291,27.6033115 			"/>
		</g>
	</g>
	<g>
		<path style="fill:#FFFFFF;" d="M23.751133,24.2860794c0.2168064-0.0748405,2.8775501,0.0114002,3.1063004,0.0919895
			c1.3472652,0.4744911,1.9278126,1.4363976,1.9278126,2.2114258c0,1.0176792-0.3799343,1.9671535-1.1929817,2.2491665
			c-0.5538597,0.1921844-0.6844521,0.2338047-1.1064701,0.2496281c-0.1777725,0.0067329-0.4020748,0.0093365-0.7399273,0.015873
			c-0.2367973,0.00457-0.5013332,0.0075188-0.7817612-0.0095329c-1.158947-0.0705166-2.5960217-0.4941978-3.5341148-2.6673431
			C21.4299908,26.4272861,22.1028996,24.8549671,23.751133,24.2860794z"/>
		<g>
			<g>
				
					<linearGradient id="SVGID_4_" gradientUnits="userSpaceOnUse" x1="38.4218445" y1="29.0175362" x2="38.4218445" y2="23.9845428" gradientTransform="matrix(-1 0 0 1 64 0)">
					<stop  offset="0" style="stop-color:#1E1E57"/>
					<stop  offset="0.4526749" style="stop-color:#070714"/>
				</linearGradient>
				<path style="fill:url(#SVGID_4_);" d="M25.8009548,29.0175343c0.0598412,0,0.1196823-0.0033741,0.1798306-0.0101242
					c0.5141983-0.0586777,0.9636211-0.3653049,1.2649841-0.8638c0.3161697-0.5226421,0.4296818-1.1862659,0.320179-1.8687115
					c-0.206049-1.2844067-1.1770725-2.2903557-2.2104053-2.2903557c-0.0598412,0-0.1196823,0.003376-0.1798306,0.0101261
					c-1.0959492,0.124754-1.807251,1.3504829-1.5854702,2.7325115
					C23.7966003,28.0114555,24.7676239,29.0175343,25.8009548,29.0175343L25.8009548,29.0175343z"/>
				<g>
					<path style="fill:#050505;" d="M25.1562138,29.0946503c0.242506,0.0170612,0.4712696,0.0141163,0.6760445,0.009531
						c0.2921658-0.0065479,0.4861355-0.0091667,0.6398678-0.0158596c0.9593067-0.376667,1.5369816-1.5433331,1.3287048-2.8401985
						c-0.1236076-0.7696285-0.5040283-1.4259014-1.0073223-1.8700485c-0.4423981-0.1801853-0.9721413-0.2958679-1.6183205-0.2958679
						c-0.399437,0-0.7535362,0.0783596-1.0679169,0.2038651c-0.5955677,0.5418987-0.9133205,1.4615536-0.7517204,2.4678612
						C23.5382404,27.8913879,24.2744446,28.7883053,25.1562138,29.0946503z M23.8250885,26.7004929
						c-0.1032505-0.6426659,0.0021191-1.2647438,0.2966175-1.7516727c0.26511-0.438364,0.6506748-0.7070198,1.08568-0.7565327
						c0.0489254-0.0055656,0.0987148-0.0083675,0.1480293-0.0083675c0.9172516,0,1.7851906,0.9301682,1.9758759,2.1176071
						c0.1032524,0.6426678-0.0021172,1.26478-0.2966156,1.751709c-0.26511,0.4383278-0.6506748,0.7070217-1.08568,0.7564964
						c-0.0489254,0.0056019-0.0987148,0.0084038-0.1480293,0.0084038
						C24.8837147,28.8181362,24.0157757,27.8879681,23.8250885,26.7004929z"/>
				</g>
			</g>
			<path style="fill:#050505;" d="M26.4207592,26.382494c0.0909233,0.6999111-0.2126007,1.3203735-0.6779404,1.3858414
				c-0.4653397,0.0654659-0.9162769-0.4488525-1.0072002-1.1487656c-0.0909214-0.699913,0.2126026-1.3203754,0.6779423-1.3858414
				C25.8788986,25.1682606,26.3298378,25.6825809,26.4207592,26.382494z"/>
		</g>
		
			<linearGradient id="SVGID_5_" gradientUnits="userSpaceOnUse" x1="38.0486221" y1="26.27915" x2="38.0486221" y2="24.8921661" gradientTransform="matrix(1 0 0 1 -14.1226711 0)">
			<stop  offset="0" style="stop-color:#FFFFFF;stop-opacity:0.5"/>
			<stop  offset="0.7" style="stop-color:#FFFFFF"/>
		</linearGradient>
		<ellipse style="fill:url(#SVGID_5_);" cx="23.925951" cy="25.585659" rx="0.6382648" ry="0.6934917"/>
		
			<linearGradient id="SVGID_6_" gradientUnits="userSpaceOnUse" x1="39.7915955" y1="29.0175343" x2="39.7915955" y2="28.0723057" gradientTransform="matrix(1 0 0 1 -14.1226711 0)">
			<stop  offset="0" style="stop-color:#FFFFFF;stop-opacity:0.2"/>
			<stop  offset="0.7" style="stop-color:#FFFFFF;stop-opacity:0.7"/>
		</linearGradient>
		<ellipse style="fill:url(#SVGID_6_);" cx="25.6689224" cy="28.54492" rx="0.4349775" ry="0.4726147"/>
		<g>
			<g>
				<path style="fill:#050505;" d="M22.0403709,27.6033115c-0.1765633-0.2796249-0.5040073-0.8436775-0.5040073-1.1760082
					c0-0.314806,0.8400116-1.2235222,1.956461-1.7858887c0.4647694-0.2058887,0.8674755-0.3627071,1.484911-0.3627071
					c0.3245907,0,0.6955509,0.0418015,1.1667423,0.1315041c1.400732,0.2666435,2.5546322,1.4486237,2.9387913,1.8836403
					c-0.0945244-0.3000069-0.7627048-2.5677738-4.1865025-2.5677738c-2.7531796,0-4.3480835,2.2628345-4.4672203,2.3862896
					C20.4295464,26.1123676,21.7457428,27.4059906,22.0403709,27.6033115z"/>
			</g>
			<path style="fill:#050505;" d="M29.0832691,25.4169483c0,0-3.1244602-4.361517-8.2772388-0.3828316
				C20.8060303,25.0341167,25.542841,22.3771515,29.0832691,25.4169483z"/>
			<polygon style="fill:#050505;" points="20.8060303,27.0480576 21.1707325,26.5010319 22.0403709,27.6033115 			"/>
		</g>
	</g>
</g>
</svg>
