<?xml version="1.0" encoding="utf-8"?>
<!-- Generator: Adobe Illustrator 18.0.0, SVG Export Plug-In . SVG Version: 6.00 Build 0)  -->
<!DOCTYPE svg PUBLIC "-//W3C//DTD SVG 1.1//EN" "http://www.w3.org/Graphics/SVG/1.1/DTD/svg11.dtd">
<svg version="1.1" id="レイヤー_1" xmlns="http://www.w3.org/2000/svg" xmlns:xlink="http://www.w3.org/1999/xlink" x="0px"
	 y="0px" width="64px" height="64px" viewBox="0 0 64 64" style="enable-background:new 0 0 64 64;" xml:space="preserve">
<g>
	<g>
		<path style="fill:#FFFFFF;" d="M40.248867,24.8001785c-0.2168045-0.0748405-2.8775482,0.0114002-3.1063004,0.0919876
			c-1.3472633,0.474493-1.9278145,0.9223003-1.9278145,1.6973286c0,0.7021713,0.3799362,1.0662804,1.1929817,1.3482914
			c0.5538597,0.1921844,0.6844559,0.2338066,1.106472,0.2496281c0.1777725,0.0067329,0.4020729,0.0093365,0.7399292,0.015873
			c0.2367973,0.00457,0.5013313,0.0075188,0.7817574-0.0095329c1.158947-0.0705147,2.8234825-0.3031292,3.5341148-1.766468
			C42.5700073,26.4272861,41.8971024,25.3690662,40.248867,24.8001785z"/>
		<g>
			<g>
				
					<linearGradient id="SVGID_1_" gradientUnits="userSpaceOnUse" x1="38.4220161" y1="28.2068043" x2="38.4220161" y2="24.7717762">
					<stop  offset="0" style="stop-color:#1E1E57"/>
					<stop  offset="0.4526749" style="stop-color:#070714"/>
				</linearGradient>
				<path style="fill:url(#SVGID_1_);" d="M37.1425781,24.8921509c-0.0593262,0.020874-0.1090698,0.041687-0.1654663,0.0625
					c-0.2676392,0.3712158-0.4633789,0.8237915-0.5430298,1.3202515c-0.1026611,0.6392822-0.0023193,1.2575073,0.2698364,1.7633667
					c0.3192749,0.1051025,0.4782715,0.1366577,0.8103027,0.1491089c0.1777344,0.0067749,0.4020386,0.0093384,0.7399292,0.0158691
					c0.2367554,0.0045776,0.5013428,0.0075684,0.7817383-0.0095215c0.2399902-0.0145874,0.5040283-0.0401001,0.7744141-0.078064
					c0.2952881-0.383667,0.5144653-0.8596191,0.5994263-1.3884888c0.1199951-0.7474976-0.0395508-1.4422607-0.3787231-1.9488525
					C39.3444824,24.7492065,37.3399658,24.8226318,37.1425781,24.8921509z"/>
				<g>
					<path style="fill:#050505;" d="M39.7468872,24.7721558c0.0446167,0.0576172,0.0918579,0.1112671,0.1314087,0.1766357
						c0.2944946,0.4869385,0.3998413,1.1090088,0.2966309,1.751709c-0.0916748,0.5709839-0.3423462,1.0790405-0.6774292,1.4562988
						c0.1969604-0.0200806,0.4022827-0.0515137,0.609314-0.0900879c0.2578735-0.3763428,0.4576416-0.8148804,0.5376587-1.3128052
						c0.1164551-0.7253418-0.0228882-1.4003296-0.3290405-1.9266357c-0.0235596-0.0084839-0.0426636-0.0188599-0.0665894-0.0270996
						C40.1975708,24.7824707,40.006958,24.7740479,39.7468872,24.7721558z"/>
					<path style="fill:#050505;" d="M36.965332,28.0532227c-0.2944946-0.4869385-0.3999023-1.1090698-0.2966309-1.751709
						c0.0903931-0.5630493,0.3361206-1.0639038,0.6641235-1.4395142c-0.0950928,0.0099487-0.1616211,0.0200806-0.1902466,0.0301514
						c-0.1873779,0.065979-0.3565063,0.1316528-0.5147705,0.1975708c-0.2052612,0.3414307-0.3597412,0.7294312-0.4286499,1.1583862
						c-0.0988159,0.6151733-0.0161133,1.1978149,0.1956177,1.684021c0.0049438,0.001709,0.0079956,0.0039063,0.0129395,0.0056152
						c0.2845459,0.0987549,0.4573975,0.1569824,0.6154175,0.1931763
						C37.0047607,28.1036377,36.9827271,28.0819702,36.965332,28.0532227z"/>
				</g>
			</g>
			<path style="fill:#050505;" d="M37.5792389,26.382494c-0.0909195,0.6999111,0.2126045,1.3203735,0.6779404,1.3858414
				c0.4653397,0.0654659,0.9162788-0.4488525,1.0072021-1.1487656s-0.2126045-1.3203754-0.6779404-1.3858414
				C38.1211014,25.1682606,37.6701622,25.6825809,37.5792389,26.382494z"/>
		</g>
		<linearGradient id="SVGID_2_" gradientUnits="userSpaceOnUse" x1="36.5881042" y1="26.27915" x2="36.5881042" y2="24.8921661">
			<stop  offset="0" style="stop-color:#FFFFFF;stop-opacity:0.5"/>
			<stop  offset="0.7" style="stop-color:#FFFFFF"/>
		</linearGradient>
		<ellipse style="fill:url(#SVGID_2_);" cx="36.5881042" cy="25.585659" rx="0.6382648" ry="0.6934917"/>
		<g>
			<g>
				<path style="fill:#050505;" d="M41.9596291,27.2180672c0.1919327-0.2369251,0.5040054-0.6086922,0.5040054-0.7907639
					c0,0-0.1980095-0.5835533-1.6198845-1.199192c-0.4664841-0.2019768-1.204052-0.3359451-1.8214836-0.3359451
					c-0.3245926,0-0.6955528,0.0418015-1.1667442,0.131506c-1.4007301,0.2666435-2.5546341,0.8351631-2.9387894,1.2701797
					c0.0945244-0.3000069,0.7627029-2.0301208,4.1865005-2.0301208c2.7531776,0,4.3480835,1.7251816,4.4672203,1.8486366
					C43.5704536,26.1123676,42.3107109,27.0625,41.9596291,27.2180672z"/>
			</g>
			<path style="fill:#050505;" d="M34.9167328,25.4169483c0,0,2.9793663-3.1356983,8.2772369-0.3828316
				C43.1939697,25.0341167,38.4218445,23.5625,34.9167328,25.4169483z"/>
			<polygon style="fill:#050505;" points="43.1939697,26.6825523 42.8292694,26.321455 41.9596291,27.2180672 			"/>
		</g>
	</g>
	<g>
		<path style="fill:#FFFFFF;" d="M23.751133,24.8001785c0.2168064-0.0748405,2.8775501,0.0114002,3.1063004,0.0919876
			c1.3472652,0.474493,1.9278126,0.9223003,1.9278126,1.6973286c0,0.7021713-0.3799343,1.0662804-1.1929817,1.3482914
			c-0.5538597,0.1921844-0.6844521,0.2338066-1.1064701,0.2496281c-0.1777725,0.0067329-0.4020748,0.0093365-0.7399273,0.015873
			c-0.2367973,0.00457-0.5013332,0.0075188-0.7817612-0.0095329c-1.158947-0.0705147-2.8234806-0.3031292-3.5341148-1.766468
			C21.4299908,26.4272861,22.1028996,25.3690662,23.751133,24.8001785z"/>
		<g>
			<g>
				
					<linearGradient id="SVGID_3_" gradientUnits="userSpaceOnUse" x1="38.4220161" y1="28.2068062" x2="38.4220161" y2="24.7717762" gradientTransform="matrix(-1 0 0 1 64 0)">
					<stop  offset="0" style="stop-color:#1E1E57"/>
					<stop  offset="0.4526749" style="stop-color:#070714"/>
				</linearGradient>
				<path style="fill:url(#SVGID_3_);" d="M26.8574219,24.8921509c0.0593262,0.020874,0.1090698,0.041687,0.1654663,0.0625
					c0.2676392,0.3712158,0.4633789,0.8237915,0.5430298,1.3202515c0.1026611,0.6392822,0.0023193,1.2575073-0.2698364,1.7633667
					c-0.3192749,0.1051025-0.4782715,0.1366577-0.8103027,0.1491089c-0.1777344,0.0067749-0.4020386,0.0093384-0.7399292,0.0158691
					c-0.2367554,0.0045776-0.5013428,0.0075684-0.7817383-0.0095215c-0.2399902-0.0145874-0.5040283-0.0401001-0.7744141-0.078064
					c-0.2952881-0.383667-0.5144653-0.8596191-0.5994263-1.3884888c-0.1199951-0.7474976,0.0395508-1.4422607,0.3787231-1.9488525
					C24.6555176,24.7492065,26.6600342,24.8226318,26.8574219,24.8921509z"/>
				<g>
					<path style="fill:#050505;" d="M24.2531128,24.7721558c-0.0446167,0.0576172-0.0918579,0.1112671-0.1314087,0.1766357
						c-0.2944946,0.4869385-0.3998413,1.1090088-0.2966309,1.751709c0.0916748,0.5709839,0.3423462,1.0790405,0.6774292,1.4562988
						c-0.1969604-0.0200806-0.4022827-0.0515137-0.609314-0.0900879c-0.2578735-0.3763428-0.4576416-0.8148804-0.5376587-1.3128052
						c-0.1164551-0.7253418,0.0228882-1.4003296,0.3290405-1.9266357c0.0235596-0.0084839,0.0426636-0.0188599,0.0665894-0.0270996
						C23.8024292,24.7824707,23.993042,24.7740479,24.2531128,24.7721558z"/>
					<path style="fill:#050505;" d="M27.034668,28.0532227c0.2944946-0.4869385,0.3999023-1.1090698,0.2966309-1.751709
						c-0.0903931-0.5630493-0.3361206-1.0639038-0.6641235-1.4395142c0.0950928,0.0099487,0.1616211,0.0200806,0.1902466,0.0301514
						c0.1873779,0.065979,0.3565063,0.1316528,0.5147705,0.1975708c0.2052612,0.3414307,0.3597412,0.7294312,0.4286499,1.1583862
						c0.0988159,0.6151733,0.0161133,1.1978149-0.1956177,1.684021c-0.0049438,0.001709-0.0079956,0.0039063-0.0129395,0.0056152
						c-0.2845459,0.0987549-0.4573975,0.1569824-0.6154175,0.1931763
						C26.9952393,28.1036377,27.0172729,28.0819702,27.034668,28.0532227z"/>
				</g>
			</g>
			<path style="fill:#050505;" d="M26.4207592,26.382494c0.0909233,0.6999111-0.2126007,1.3203735-0.6779404,1.3858414
				c-0.4653397,0.0654659-0.9162769-0.4488525-1.0072002-1.1487656c-0.0909214-0.699913,0.2126026-1.3203754,0.6779423-1.3858414
				C25.8788986,25.1682606,26.3298378,25.6825809,26.4207592,26.382494z"/>
		</g>
		
			<linearGradient id="SVGID_4_" gradientUnits="userSpaceOnUse" x1="38.0486221" y1="26.27915" x2="38.0486221" y2="24.8921661" gradientTransform="matrix(1 0 0 1 -14.1226711 0)">
			<stop  offset="0" style="stop-color:#FFFFFF;stop-opacity:0.5"/>
			<stop  offset="0.7" style="stop-color:#FFFFFF"/>
		</linearGradient>
		<ellipse style="fill:url(#SVGID_4_);" cx="23.925951" cy="25.585659" rx="0.6382648" ry="0.6934917"/>
		<g>
			<g>
				<path style="fill:#050505;" d="M22.0403709,27.2180672c-0.1919327-0.2369251-0.5040073-0.6086922-0.5040073-0.7907639
					c0,0,0.1980114-0.5835533,1.6198864-1.199192c0.4664841-0.2019768,1.2040501-0.3359451,1.8214855-0.3359451
					c0.3245907,0,0.6955509,0.0418015,1.1667423,0.131506c1.400732,0.2666435,2.5546322,0.8351631,2.9387913,1.2701797
					c-0.0945244-0.3000069-0.7627048-2.0301208-4.1865025-2.0301208c-2.7531796,0-4.3480835,1.7251816-4.4672203,1.8486366
					C20.4295464,26.1123676,21.6892891,27.0625,22.0403709,27.2180672z"/>
			</g>
			<path style="fill:#050505;" d="M29.0832691,25.4169483c0,0-2.9793682-3.1356983-8.2772388-0.3828316
				C20.8060303,25.0341167,25.5781574,23.5625,29.0832691,25.4169483z"/>
			<polygon style="fill:#050505;" points="20.8060303,26.6825523 21.1707325,26.321455 22.0403709,27.2180672 			"/>
		</g>
	</g>
</g>
</svg>
