<?xml version="1.0" encoding="utf-8"?>
<!-- Generator: Adobe Illustrator 18.0.0, SVG Export Plug-In . SVG Version: 6.00 Build 0)  -->
<!DOCTYPE svg PUBLIC "-//W3C//DTD SVG 1.1//EN" "http://www.w3.org/Graphics/SVG/1.1/DTD/svg11.dtd">
<svg version="1.1" id="レイヤー_1" xmlns="http://www.w3.org/2000/svg" xmlns:xlink="http://www.w3.org/1999/xlink" x="0px"
	 y="0px" width="64px" height="64px" viewBox="0 0 64 64" style="enable-background:new 0 0 64 64;" xml:space="preserve">
<g>
	<g>
		<linearGradient id="SVGID_1_" gradientUnits="userSpaceOnUse" x1="32" y1="49.2266159" x2="32" y2="65.3651199">
			<stop  offset="0" style="stop-color:#2EA7E0"/>
			<stop  offset="1" style="stop-color:#036EB8"/>
		</linearGradient>
		<path style="fill:url(#SVGID_1_);" d="M39.1726685,49.2266159c0,0-3.8104782,1.7931671-7.1726685,1.7931671
			s-7.1726685-1.7931671-7.1726685-1.7931671L24,65.3651199h16L39.1726685,49.2266159z"/>
		<path style="fill:#036EB8;" d="M40.2626953,65.6152344H23.7368164l0.8598633-16.7734375L24.9335938,49
			C24.9711914,49.0175781,28.734375,50.7695313,32,50.7695313c3.2685547,0,7.0292969-1.7519531,7.0664063-1.7695313
			l0.3369141-0.1582031L40.2626953,65.6152344z M24.2631836,65.1152344h15.4741211l-0.7958984-15.5117188
			C37.9277344,50.0419922,34.8359375,51.2695313,32,51.2695313c-2.8364258,0-5.9282227-1.2275391-6.9418945-1.6660156
			L24.2631836,65.1152344z"/>
	</g>
	<path style="fill:#036EB8;" d="M32,52.8632813c-3.3735352,0-7.1118164-1.546875-7.2695313-1.6132813l0.1928711-0.4609375
		C24.9614258,50.8046875,28.7285156,52.3632813,32,52.3632813c3.2744141,0,7.0390625-1.5585938,7.0761719-1.5742188
		L39.2695313,51.25C39.1123047,51.3164063,35.3740234,52.8632813,32,52.8632813z"/>
</g>
<g>
	<g>
		
			<linearGradient id="SVGID_2_" gradientUnits="userSpaceOnUse" x1="41.1145821" y1="47.4271011" x2="41.1145821" y2="65.3651199" gradientTransform="matrix(-1 0 0 1 64 0)">
			<stop  offset="0.4" style="stop-color:#FFFFFF"/>
			<stop  offset="1" style="stop-color:#DCDDDD"/>
		</linearGradient>
		<path style="fill:url(#SVGID_2_);" d="M11.8942337,56.2805901c0-6.3855324,5.5924835-7.4330978,10.6565609-8.8534889
			c-0.0337811,0.1611443,2.6127548,2.3038406,2.6127548,2.3038406L34,62.375v2.9901199H11.770833L11.8942337,56.2805901z"/>
		<path style="fill:#3E3A39;" d="M34.25,65.6152344H11.5175781l0.1264648-9.3378906c0-6.125,4.9667969-7.4833984,9.7700195-8.796875
			c0.3574219-0.0976563,0.7148438-0.1953125,1.0693359-0.2939453l0.3964844-0.1113281l-0.0639648,0.3056641
			c0.2509766,0.2832031,1.4272461,1.2822266,2.5048828,2.1552734l0.0478516,0.0507813L34.25,62.2958984V65.6152344z
			 M12.0244141,65.1152344H33.75v-2.6611328l-8.7709961-12.5517578c-1.6196289-1.3115234-2.2709961-1.8955078-2.5253906-2.1884766
			c-0.3012695,0.0839844-0.6044922,0.1660156-0.9077148,0.2490234c-4.8349609,1.3222656-9.4018555,2.5712891-9.4018555,8.3173828
			L12.0244141,65.1152344z"/>
	</g>
	<g>
		
			<linearGradient id="SVGID_3_" gradientUnits="userSpaceOnUse" x1="36.1052322" y1="45.8536797" x2="36.1052322" y2="62.3523636" gradientTransform="matrix(-1 0 0 1 64 0)">
			<stop  offset="0.4" style="stop-color:#FFFFFF"/>
			<stop  offset="1" style="stop-color:#DCDDDD"/>
		</linearGradient>
		<path style="fill:url(#SVGID_3_);" d="M25.1936226,46.047184l8.7867203,16.2913704
			c0.0047188,0.0087471-0.0057068,0.0178223-0.0137215,0.0119362L22.75,54.1143417l1.791666-2.297596l-2.7083302-0.5149078
			c-0.1901035-2.8311157,0.7525368-4.411499,0.7525368-4.411499L24.8273315,45.875
			C24.9763279,45.8125191,25.1466675,45.8925896,25.1936226,46.047184z"/>
		<path style="fill:#3E3A39;" d="M33.9726563,62.6025391h-0.0839844l-0.0722656-0.0517578l-11.421875-8.3876953l1.6982422-2.1777344
			l-2.4956055-0.4736328l-0.0131836-0.1933594c-0.1933594-2.8759766,0.7470703-4.4882813,0.7871094-4.5556641l0.0405273-0.0673828
			l2.3125-1.0478516c0.309082-0.1318359,0.6201172,0.0380859,0.7084961,0.3261719L34.2675781,62.34375l-0.1445313,0.2539063
			L33.9726563,62.6025391z M23.1054688,54.0654297l10.1474609,7.4501953l-8.3203125-15.4121094l-2.1669922,0.9804688
			c-0.1601563,0.3115234-0.8076172,1.7255859-0.6938477,4.0087891l2.918457,0.5546875L23.1054688,54.0654297z"/>
	</g>
	<g>
		<linearGradient id="SVGID_4_" gradientUnits="userSpaceOnUse" x1="41.1145821" y1="47.4271011" x2="41.1145821" y2="65.3651199">
			<stop  offset="0.4" style="stop-color:#FFFFFF"/>
			<stop  offset="1" style="stop-color:#DCDDDD"/>
		</linearGradient>
		<path style="fill:url(#SVGID_4_);" d="M52.1057663,56.2805901c0-6.3855324-5.5924835-7.4330978-10.6565628-8.8534889
			c0.033783,0.1611443-2.6127548,2.3038406-2.6127548,2.3038406L30,62.375v2.9901199h22.2291679L52.1057663,56.2805901z"/>
		<path style="fill:#3E3A39;" d="M52.4833984,65.6152344H29.75v-3.3193359l8.9296875-12.7597656
			c1.0771484-0.8720703,2.2529297-1.8710938,2.5039063-2.1542969l-0.0644531-0.3076172l0.3974609,0.1123047
			c0.3544922,0.0986328,0.7109375,0.1962891,1.0683594,0.2939453c4.8037109,1.3134766,9.7705078,2.671875,9.7705078,8.7998047
			L52.4833984,65.6152344z M30.25,65.1152344h21.7255859l-0.1201172-8.8320313c0-5.75-4.5673828-6.9980469-9.4023438-8.3203125
			c-0.3027344-0.0830078-0.6054688-0.1650391-0.90625-0.2490234c-0.2548828,0.2939453-0.90625,0.8769531-2.5253906,2.1884766
			L30.25,62.4541016V65.1152344z"/>
	</g>
	<g>
		<linearGradient id="SVGID_5_" gradientUnits="userSpaceOnUse" x1="36.1052322" y1="45.8536797" x2="36.1052322" y2="62.3523636">
			<stop  offset="0.4" style="stop-color:#FFFFFF"/>
			<stop  offset="1" style="stop-color:#DCDDDD"/>
		</linearGradient>
		<path style="fill:url(#SVGID_5_);" d="M38.8063774,46.047184l-8.7867203,16.2913704
			c-0.0047188,0.0087471,0.0057087,0.0178223,0.0137215,0.0119362L41.25,54.1143417l-1.7916679-2.297596l2.7083321-0.5149078
			c0.1901054-2.8311157-0.7525368-4.411499-0.7525368-4.411499L39.1726685,45.875
			C39.0236702,45.8125191,38.8533325,45.8925896,38.8063774,46.047184z"/>
		<path style="fill:#3E3A39;" d="M30.027832,62.6025391h-0.1396484l-0.1542969-0.2412109l0.0620117-0.1337891l8.7910156-16.2998047
			c0.0615234-0.2265625,0.4023438-0.4013672,0.6826172-0.2832031l2.3193359,1.0507813l0.0400391,0.0673828
			c0.0400391,0.0673828,0.9804688,1.6796875,0.7871094,4.5556641l-0.0126953,0.1933594l-2.4960938,0.4736328l1.6982422,2.1777344
			l-11.4902344,8.4375L30.027832,62.6025391z M39.0693359,46.1025391l-0.0429688,0.0634766L30.7475586,61.515625
			l10.1469727-7.4501953l-1.8857422-2.4179688l2.9199219-0.5546875c0.1142578-2.2939453-0.5332031-3.6992188-0.6943359-4.0087891
			L39.0693359,46.1025391z"/>
	</g>
</g>
<g>
	<g>
		<linearGradient id="SVGID_6_" gradientUnits="userSpaceOnUse" x1="18.3289356" y1="27.3125" x2="45.6711845" y2="27.3125">
			<stop  offset="0" style="stop-color:#C9CACA"/>
			<stop  offset="0.3" style="stop-color:#FFFFFF"/>
			<stop  offset="0.7" style="stop-color:#FFFFFF"/>
			<stop  offset="1" style="stop-color:#C9CACA"/>
		</linearGradient>
		<path style="fill:url(#SVGID_6_);" d="M36.1943359,32.5c-1.0566406,0-1.7832031-1.1220703-2.4863281-2.2070313
			C33.1630859,29.4526367,32.5463867,28.5,32,28.5s-1.1635742,0.9526367-1.7080078,1.7924805
			C29.5888672,31.3779297,28.8618164,32.5,27.8051758,32.5c-3.0615234,0-7.8959961-2.4291992-8.5234375-3.4609375
			c-0.1201172-0.1977539-0.2006836-0.4199219-0.2402344-0.659668l-0.6958008-4.2407227
			c-0.112793-0.6879883,0.3554688-1.3457031,1.0439453-1.4667969l0.2250977-0.0405273
			C20.8505859,22.4057617,22.3886719,22.125,32,22.125c9.6132813,0,11.1503906,0.2807617,12.3857422,0.5063477l0.2246094,0.0410156
			c0.6884766,0.1206055,1.1572266,0.7783203,1.0439453,1.4663086l-0.6962891,4.2412109
			c-0.0400391,0.2416992-0.1201172,0.4628906-0.2392578,0.6591797C44.0908203,30.0708008,39.2558594,32.5,36.1943359,32.5z M32,27.5
			c1.0898438,0,1.8310547,1.1435547,2.546875,2.2490234C35.0791016,30.5698242,35.6816406,31.5,36.1943359,31.5
			c2.9755859,0,7.3349609-2.4482422,7.6699219-2.9804688c0.0527344-0.0878906,0.0878906-0.1865234,0.1074219-0.3027344
			l0.6962891-4.2402344c0.0244141-0.1518555-0.0771484-0.2924805-0.2314453-0.3193359l-0.2304688-0.0419922
			C43.0732422,23.4082031,41.5224609,23.125,32,23.125c-9.5209961,0-11.0727539,0.2832031-12.2060547,0.4902344l-0.230957,0.0415039
			c-0.1542969,0.0273438-0.2558594,0.1679688-0.2304688,0.3198242l0.6958008,4.2412109
			c0.0185547,0.1132813,0.0551758,0.2143555,0.1079102,0.3022461C20.4711914,29.0517578,24.8295898,31.5,27.8051758,31.5
			c0.5131836,0,1.1157227-0.9301758,1.6474609-1.7509766C30.1694336,28.6430664,30.9101563,27.5,32,27.5z"/>
		<path style="fill:#727171;" d="M36.1943359,32.625c-1.1240234,0-1.8691406-1.1499023-2.5898438-2.262207
			C33.0996094,29.5849609,32.4775391,28.625,32,28.625c-0.4780273,0-1.1010742,0.9614258-1.6020508,1.7338867
			C29.6757813,31.4736328,28.9301758,32.625,27.8051758,32.625c-3.0947266,0-7.9921875-2.4716797-8.6303711-3.5209961
			c-0.1279297-0.2109375-0.2143555-0.4477539-0.2568359-0.7041016l-0.6958008-4.2412109
			c-0.1235352-0.7548828,0.3901367-1.4770508,1.1459961-1.6098633l0.2246094-0.0405273C20.8330078,22.2817383,22.3774414,22,32,22
			c9.6240234,0,11.1679688,0.2817383,12.4082031,0.5083008l0.2246094,0.0410156
			c0.7548828,0.1323242,1.2695313,0.8544922,1.1445313,1.6098633l-0.6962891,4.2407227
			c-0.0419922,0.2578125-0.1289063,0.4946289-0.2558594,0.7041016C44.1865234,30.1533203,39.2890625,32.625,36.1943359,32.625z
			 M32,28.375c0.6132813,0,1.2216797,0.9379883,1.8095703,1.8452148c0.6884766,1.0625,1.3964844,2.1547852,2.3847656,2.1547852
			c3.0273438,0,7.8007813-2.387207,8.4179688-3.4008789c0.1103516-0.1816406,0.1845703-0.3886719,0.2226563-0.6147461
			l0.6962891-4.2407227c0.1015625-0.6206055-0.3203125-1.2143555-0.9423828-1.3232422l-0.2255859-0.0410156
			C43.1328125,22.5297852,41.6015625,22.25,32,22.25c-9.6000977,0-11.1318359,0.2797852-12.362793,0.5043945l-0.2255859,0.0405273
			c-0.621582,0.109375-1.0444336,0.703125-0.9423828,1.3237305l0.6958008,4.2407227
			c0.0371094,0.2246094,0.1123047,0.4316406,0.2236328,0.6147461C20.0048828,29.987793,24.7773438,32.375,27.8051758,32.375
			c0.9887695,0,1.6972656-1.0932617,2.3818359-2.1503906C30.7773438,29.3144531,31.3862305,28.375,32,28.375z M36.1943359,31.625
			c-0.5800781,0-1.1748047-0.9174805-1.75-1.8051758C33.7441406,28.7392578,33.0224609,27.625,32,27.625
			c-1.0219727,0-1.7436523,1.1142578-2.4423828,2.1914063C28.9814453,30.7060547,28.3862305,31.625,27.8051758,31.625
			c-3.0097656,0-7.4326172-2.4956055-7.7749023-3.0385742c-0.0625-0.1044922-0.1044922-0.2211914-0.1254883-0.3486328
			l-0.6958008-4.2412109c-0.0366211-0.2197266,0.109375-0.4233398,0.3320313-0.4628906l0.230957-0.0415039
			C20.9086914,23.284668,22.4663086,23,32,23c9.5351563,0,11.0917969,0.284668,12.2285156,0.4921875l0.2304688,0.0419922
			c0.2216797,0.0385742,0.3681641,0.2416992,0.3320313,0.4624023l-0.6962891,4.2402344
			c-0.0214844,0.1318359-0.0625,0.2451172-0.1230469,0.347168C43.6279297,29.1293945,39.2050781,31.625,36.1943359,31.625z
			 M32,27.375c1.1582031,0,1.9179688,1.1723633,2.6513672,2.3061523C35.1425781,30.4375,35.75,31.375,36.1943359,31.375
			c2.9404297,0,7.2353516-2.3999023,7.5644531-2.921875c0.0429688-0.0722656,0.0732422-0.1572266,0.0898438-0.2568359
			l0.6962891-4.2397461c0.0126953-0.0834961-0.0439453-0.1611328-0.1298828-0.1762695l-0.2314453-0.0419922
			C43.0566406,23.5322266,41.5126953,23.25,32,23.25c-9.5112305,0-11.0556641,0.2822266-12.1835938,0.4882813l-0.2314453,0.0415039
			c-0.0864258,0.0151367-0.1430664,0.0927734-0.1293945,0.1762695l0.6962891,4.2416992
			c0.015625,0.0957031,0.0463867,0.1826172,0.0917969,0.2578125C20.5708008,28.9755859,24.8662109,31.375,27.8051758,31.375
			c0.4453125,0,1.0537109-0.9389648,1.5424805-1.6938477C30.0825195,28.5473633,30.8422852,27.375,32,27.375z"/>
	</g>
	<linearGradient id="SVGID_7_" gradientUnits="userSpaceOnUse" x1="32.0000229" y1="23.5" x2="32.0000229" y2="31.125">
		<stop  offset="0" style="stop-color:#FFFFFF;stop-opacity:0.3"/>
		<stop  offset="1" style="stop-color:#FFFFFF;stop-opacity:0"/>
	</linearGradient>
	<path style="fill:url(#SVGID_7_);" d="M44.1114922,24.1899662c0.0157127-0.118803-0.0652275-0.2227421-0.1832199-0.2436905
		C42.8045998,23.7467747,40.9109688,23.5,32,23.5c-8.9096584,0-10.8035965,0.2467785-11.9281235,0.4458752
		c-0.1180611,0.0209026-0.1990643,0.1249008-0.1833134,0.2437592c0.104372,0.7876434,0.4769249,3.5909767,0.5551071,4.0670071
		c0.0076904,0.0468273,0.0208225,0.0799713,0.0543766,0.1135292C21.0986195,28.9708214,25.0710163,31.125,27.8051758,31.125
		c0.309082,0,1.0004883-1.0673828,1.3330078-1.5800781C29.8730469,28.4106445,30.7060547,27.125,32,27.125
		s2.1269531,1.2856445,2.8623047,2.4204102C35.1943359,30.0581055,35.8857422,31.125,36.1943359,31.125
		c2.7326889,0,6.7032089-2.1518631,7.3228912-2.7772694c0.0339546-0.0342674,0.0469933-0.0678234,0.0538559-0.1155739
		C43.6387177,27.7615681,44.0076866,24.9747887,44.1114922,24.1899662z"/>
</g>
<g>
	<g>
		<linearGradient id="SVGID_8_" gradientUnits="userSpaceOnUse" x1="46.2585716" y1="39.2578545" x2="46.2585716" y2="63.2127838">
			<stop  offset="0" style="stop-color:#898989;stop-opacity:0.2"/>
			<stop  offset="0.4" style="stop-color:#898989;stop-opacity:0.2"/>
			<stop  offset="0.7" style="stop-color:#898989;stop-opacity:0.7"/>
			<stop  offset="0.8" style="stop-color:#898989;stop-opacity:0.7"/>
			<stop  offset="1" style="stop-color:#898989;stop-opacity:0"/>
		</linearGradient>
		<path style="fill:url(#SVGID_8_);" d="M46.7678452,58.7850647l1.6112518-9.2992439
			c0.0735855-0.424839,0.1119385-0.8932991,0.1119385-1.3682213v-8.859745h-0.8182869v8.859745
			c0,0.4749222-0.0760765,0.9433823-0.2222481,1.3682213l-3.1994324,9.2992439
			c-0.6998634,2.0342598,0.3180351,4.4277191,1.8830147,4.4277191h1.5820694
			C46.9279861,63.2127838,46.41539,60.8193245,46.7678452,58.7850647z"/>
		<g>
			
				<radialGradient id="SVGID_9_" cx="49.3209496" cy="58.7249184" r="6.615037" gradientTransform="matrix(1 0 0 1.4106154 0 -24.1133575)" gradientUnits="userSpaceOnUse">
				<stop  offset="0" style="stop-color:#172A88;stop-opacity:0.3"/>
				<stop  offset="1" style="stop-color:#172A88"/>
			</radialGradient>
			<path style="fill:url(#SVGID_9_);" d="M53.9146538,54.679184c0,0-1.9009781-0.4789238-4.4555168,0
				c-2.5545425,0.47892-4.7318268,0-4.7318268,0l-2.3998528,4.7992058
				c-0.3781509,0.7563019-0.3382416,1.6373215,0.1057587,2.3557053c0.4449997,0.7193832,1.215271,1.1494141,2.061367,1.1494141
				h9.6532936c0.8460999,0,1.6163673-0.4300308,2.061367-1.1494141c0.4440002-0.7183838,0.482914-1.5994034,0.104763-2.3547058
				L53.9146538,54.679184z"/>
			<g>
				<radialGradient id="SVGID_10_" cx="51.0228119" cy="56.0090218" r="1.1602869" gradientUnits="userSpaceOnUse">
					<stop  offset="0" style="stop-color:#FFFFFF;stop-opacity:0.3"/>
					<stop  offset="1" style="stop-color:#172A88"/>
				</radialGradient>
				<circle style="fill:url(#SVGID_10_);" cx="51.0228119" cy="56.0090218" r="1.1603043"/>
				
					<linearGradient id="SVGID_11_" gradientUnits="userSpaceOnUse" x1="50.7149467" y1="54.9706039" x2="50.7149467" y2="56.0090408">
					<stop  offset="0" style="stop-color:#FFFFFF;stop-opacity:0.7"/>
					<stop  offset="1" style="stop-color:#FFFFFF;stop-opacity:0"/>
				</linearGradient>
				<circle style="fill:url(#SVGID_11_);" cx="50.7149467" cy="55.4898224" r="0.5192188"/>
				<linearGradient id="SVGID_12_" gradientUnits="userSpaceOnUse" x1="51.655426" y1="56.4077606" x2="51.655426" y2="56.9020844">
					<stop  offset="0" style="stop-color:#FFFFFF;stop-opacity:0.7"/>
					<stop  offset="1" style="stop-color:#FFFFFF;stop-opacity:0"/>
				</linearGradient>
				<circle style="fill:url(#SVGID_12_);" cx="51.655426" cy="56.6549225" r="0.247161"/>
			</g>
			<g>
				<radialGradient id="SVGID_13_" cx="46.7961578" cy="58.0538292" r="0.924502" gradientUnits="userSpaceOnUse">
					<stop  offset="0" style="stop-color:#FFFFFF;stop-opacity:0.3"/>
					<stop  offset="1" style="stop-color:#172A88"/>
				</radialGradient>
				<circle style="fill:url(#SVGID_13_);" cx="46.7961578" cy="58.0538292" r="0.9245158"/>
				
					<linearGradient id="SVGID_14_" gradientUnits="userSpaceOnUse" x1="46.5508537" y1="57.226429" x2="46.5508537" y2="58.0538445">
					<stop  offset="0" style="stop-color:#FFFFFF;stop-opacity:0.7"/>
					<stop  offset="1" style="stop-color:#FFFFFF;stop-opacity:0"/>
				</linearGradient>
				<circle style="fill:url(#SVGID_14_);" cx="46.5508537" cy="57.6401367" r="0.413707"/>
				
					<linearGradient id="SVGID_15_" gradientUnits="userSpaceOnUse" x1="47.3002167" y1="58.3715401" x2="47.3002167" y2="58.7654076">
					<stop  offset="0" style="stop-color:#FFFFFF;stop-opacity:0.7"/>
					<stop  offset="1" style="stop-color:#FFFFFF;stop-opacity:0"/>
				</linearGradient>
				<circle style="fill:url(#SVGID_15_);" cx="47.3002167" cy="58.5684738" r="0.1969348"/>
			</g>
			<g>
				<radialGradient id="SVGID_16_" cx="52.2705688" cy="59.5597343" r="0.7685716" gradientUnits="userSpaceOnUse">
					<stop  offset="0" style="stop-color:#FFFFFF;stop-opacity:0.3"/>
					<stop  offset="1" style="stop-color:#172A88"/>
				</radialGradient>
				<circle style="fill:url(#SVGID_16_);" cx="52.2705688" cy="59.5597343" r="0.7685831"/>
				
					<linearGradient id="SVGID_17_" gradientUnits="userSpaceOnUse" x1="52.0666351" y1="58.871891" x2="52.0666351" y2="59.5597496">
					<stop  offset="0" style="stop-color:#FFFFFF;stop-opacity:0.7"/>
					<stop  offset="1" style="stop-color:#FFFFFF;stop-opacity:0"/>
				</linearGradient>
				<circle style="fill:url(#SVGID_17_);" cx="52.0666351" cy="59.2158203" r="0.3439294"/>
				
					<linearGradient id="SVGID_18_" gradientUnits="userSpaceOnUse" x1="52.6896057" y1="59.8238602" x2="52.6896057" y2="60.1512985">
					<stop  offset="0" style="stop-color:#FFFFFF;stop-opacity:0.7"/>
					<stop  offset="1" style="stop-color:#FFFFFF;stop-opacity:0"/>
				</linearGradient>
				<circle style="fill:url(#SVGID_18_);" cx="52.6896057" cy="59.9875793" r="0.1637189"/>
			</g>
			<g>
				<radialGradient id="SVGID_19_" cx="49.6505508" cy="62.2260323" r="0.4647857" gradientUnits="userSpaceOnUse">
					<stop  offset="0" style="stop-color:#FFFFFF;stop-opacity:0.3"/>
					<stop  offset="1" style="stop-color:#172A88"/>
				</radialGradient>
				<circle style="fill:url(#SVGID_19_);" cx="49.6505508" cy="62.2260323" r="0.4647927"/>
				
					<linearGradient id="SVGID_20_" gradientUnits="userSpaceOnUse" x1="49.5272255" y1="61.8100624" x2="49.5272255" y2="62.2260399">
					<stop  offset="0" style="stop-color:#FFFFFF;stop-opacity:0.7"/>
					<stop  offset="1" style="stop-color:#FFFFFF;stop-opacity:0"/>
				</linearGradient>
				<circle style="fill:url(#SVGID_20_);" cx="49.5272255" cy="62.0180511" r="0.2079878"/>
				
					<linearGradient id="SVGID_21_" gradientUnits="userSpaceOnUse" x1="49.9039612" y1="62.3857574" x2="49.9039612" y2="62.5837746">
					<stop  offset="0" style="stop-color:#FFFFFF;stop-opacity:0.7"/>
					<stop  offset="1" style="stop-color:#FFFFFF;stop-opacity:0"/>
				</linearGradient>
				<circle style="fill:url(#SVGID_21_);" cx="49.9039612" cy="62.4847641" r="0.0990073"/>
			</g>
			<g>
				<radialGradient id="SVGID_22_" cx="49.2393684" cy="60.3233681" r="0.5894145" gradientUnits="userSpaceOnUse">
					<stop  offset="0" style="stop-color:#FFFFFF;stop-opacity:0.3"/>
					<stop  offset="1" style="stop-color:#172A88"/>
				</radialGradient>
				<circle style="fill:url(#SVGID_22_);" cx="49.2393684" cy="60.3233681" r="0.5894234"/>
				
					<linearGradient id="SVGID_23_" gradientUnits="userSpaceOnUse" x1="49.0829773" y1="59.7958603" x2="49.0829773" y2="60.3233795">
					<stop  offset="0" style="stop-color:#FFFFFF;stop-opacity:0.7"/>
					<stop  offset="1" style="stop-color:#FFFFFF;stop-opacity:0"/>
				</linearGradient>
				<circle style="fill:url(#SVGID_23_);" cx="49.0829773" cy="60.0596199" r="0.2637581"/>
				<linearGradient id="SVGID_24_" gradientUnits="userSpaceOnUse" x1="49.56073" y1="60.5259247" x2="49.56073" y2="60.7770348">
					<stop  offset="0" style="stop-color:#FFFFFF;stop-opacity:0.7"/>
					<stop  offset="1" style="stop-color:#FFFFFF;stop-opacity:0"/>
				</linearGradient>
				<circle style="fill:url(#SVGID_24_);" cx="49.56073" cy="60.6514778" r="0.1255554"/>
			</g>
		</g>
		<g>
			
				<linearGradient id="SVGID_25_" gradientUnits="userSpaceOnUse" x1="49.3211365" y1="38.7850494" x2="49.3211365" y2="63.7501945">
				<stop  offset="0" style="stop-color:#9FA0A0;stop-opacity:0.2"/>
				<stop  offset="0.4156379" style="stop-color:#9FA0A0;stop-opacity:0.2"/>
				<stop  offset="0.7448559" style="stop-color:#9FA0A0;stop-opacity:0.1"/>
				<stop  offset="1" style="stop-color:#9FA0A0;stop-opacity:0.2"/>
			</linearGradient>
			<path style="fill:url(#SVGID_25_);" d="M51.8176498,48.0183983v-9.2333488h-2.4965134h-2.4965134v9.2333488
				c0,0.4950027-0.1152496,0.9832077-0.3366203,1.4259491l-4.8456955,9.6913834
				c-1.0600204,2.1200485,0.4816132,4.6144638,2.8518944,4.6144638h9.6538696c2.370285,0,3.9119186-2.4944153,2.8518944-4.6144638
				l-4.8456955-9.6913834C51.9328995,49.001606,51.8176498,48.513401,51.8176498,48.0183983z"/>
			<path style="fill:#3E3A39;" d="M54.1484375,64h-9.6542969c-1.2001953,0-2.2939453-0.609375-2.9248047-1.6308594
				s-0.6875-2.2714844-0.1503906-3.3457031l4.8457031-9.6904297c0.2021484-0.40625,0.3095703-0.8603516,0.3095703-1.3144531
				v-9.4833984h5.4931641v9.4833984c0,0.4541016,0.1074219,0.9082031,0.3105469,1.3134766l4.8457031,9.6923828
				c0.5371094,1.0732422,0.4804688,2.3242188-0.1513672,3.3457031C56.4414063,63.390625,55.3486328,64,54.1484375,64z
				 M47.0742188,39.0351563v8.9833984c0,0.53125-0.125,1.0625-0.3623047,1.5371094l-4.8457031,9.6914063
				c-0.4589844,0.9179688-0.4111328,1.9863281,0.1279297,2.859375c0.5390625,0.8720703,1.4736328,1.3935547,2.5,1.3935547h9.6542969
				c1.0253906,0,1.9599609-0.5205078,2.4990234-1.3935547c0.5390625-0.8720703,0.5878906-1.9414063,0.1289063-2.859375
				l-4.8457031-9.6914063c-0.2373047-0.4736328-0.3632813-1.0058594-0.3632813-1.5371094v-8.9833984H47.0742188z"/>
		</g>
		<linearGradient id="SVGID_26_" gradientUnits="userSpaceOnUse" x1="49.3209496" y1="39.2957726" x2="49.3209496" y2="63.2389374">
			<stop  offset="0" style="stop-color:#9FA0A0;stop-opacity:0.2"/>
			<stop  offset="0.4156379" style="stop-color:#9FA0A0;stop-opacity:0.2"/>
			<stop  offset="0.7448559" style="stop-color:#9FA0A0;stop-opacity:0.1"/>
			<stop  offset="1" style="stop-color:#9FA0A0;stop-opacity:0.2"/>
		</linearGradient>
		<path style="fill:url(#SVGID_26_);" d="M42.2167053,61.968792c0.4908943,0.7952118,1.3429794,1.2701454,2.2778778,1.2701454
			h9.6532936c0.9348984,0,1.7869835-0.4749336,2.2778778-1.2701454c0.4918938-0.7952118,0.5347977-1.7680244,0.1167374-2.6041451
			l-4.8451042-9.6922073c-0.2554245-0.5088539-0.3901215-1.0815697-0.3901215-1.6542816v-8.7223854h-3.9720688v8.7223854
			c0,0.5727119-0.134697,1.1454277-0.3901253,1.6542816l-4.8461037,9.6922073
			C41.6809082,60.2007675,41.7248116,61.1735802,42.2167053,61.968792z"/>
		<linearGradient id="SVGID_27_" gradientUnits="userSpaceOnUse" x1="52.3837013" y1="39.2578545" x2="52.3837013" y2="63.2127838">
			<stop  offset="0" style="stop-color:#F7F8F8;stop-opacity:0.3"/>
			<stop  offset="0.4" style="stop-color:#FFFFFF;stop-opacity:0.3"/>
			<stop  offset="0.7" style="stop-color:#F7F8F8;stop-opacity:0.7"/>
			<stop  offset="0.8" style="stop-color:#F7F8F8;stop-opacity:0.7"/>
			<stop  offset="1" style="stop-color:#F7F8F8;stop-opacity:0"/>
		</linearGradient>
		<path style="fill:url(#SVGID_27_);" d="M54.3912048,58.7850647l-3.1994286-9.2992439
			c-0.1461716-0.424839-0.2222519-0.8932991-0.2222519-1.3682213v-8.859745h-0.8182869v8.859745
			c0,0.4749222,0.038353,0.9433823,0.1119385,1.3682213l1.6112518,9.2992439
			c0.3524551,2.0342598-0.160141,4.4277191-0.948307,4.4277191h1.5820694
			C54.0731697,63.2127838,55.0910683,60.8193245,54.3912048,58.7850647z"/>
	</g>
	<g>
		<g>
			
				<linearGradient id="SVGID_28_" gradientUnits="userSpaceOnUse" x1="49.3211365" y1="36.2885323" x2="49.3211365" y2="38.7850494">
				<stop  offset="0" style="stop-color:#9FA0A0;stop-opacity:0.2"/>
				<stop  offset="0.4156379" style="stop-color:#9FA0A0;stop-opacity:0.2"/>
				<stop  offset="0.7448559" style="stop-color:#9FA0A0;stop-opacity:0.1"/>
				<stop  offset="1" style="stop-color:#9FA0A0;stop-opacity:0.2"/>
			</linearGradient>
			<path style="fill:url(#SVGID_28_);" d="M51.8441696,38.7850494h-5.0460625c-0.6719589,0-1.2217407-0.5497856-1.2217407-1.2217445
				V37.510273c0-0.6719551,0.5497818-1.2217407,1.2217407-1.2217407h5.0460625c0.6719551,0,1.2217407,0.5497856,1.2217407,1.2217407
				v0.0530319C53.0659103,38.2352638,52.5161247,38.7850494,51.8441696,38.7850494z"/>
			<path style="fill:#3E3A39;" d="M51.84375,39.0351563h-5.0458984c-0.8115234,0-1.4716797-0.6601563-1.4716797-1.4716797
				c0-0.8652344,0.6601563-1.5253906,1.4716797-1.5253906H51.84375c0.8115234,0,1.4716797,0.6601563,1.4716797,1.4726563
				C53.3154297,38.375,52.6552734,39.0351563,51.84375,39.0351563z M46.7978516,36.5380859
				c-0.5361328,0-0.9716797,0.4365234-0.9716797,0.9726563c0,0.5888672,0.4355469,1.0244141,0.9716797,1.0244141H51.84375
				c0.5361328,0,0.9716797-0.4355469,0.9716797-0.9716797c0-0.5888672-0.4355469-1.0253906-0.9716797-1.0253906H46.7978516z"/>
		</g>
		<linearGradient id="SVGID_29_" gradientUnits="userSpaceOnUse" x1="47.5658035" y1="36.7674561" x2="47.5658035" y2="38.3061218">
			<stop  offset="0" style="stop-color:#898989;stop-opacity:0.2"/>
			<stop  offset="0.4" style="stop-color:#898989;stop-opacity:0.2"/>
			<stop  offset="1" style="stop-color:#898989;stop-opacity:0"/>
		</linearGradient>
		<path style="fill:url(#SVGID_29_);" d="M47.9273033,37.5367889c0-0.423172,0.2090912-0.7693329,0.4646416-0.7693329h-0.7917824
			c-0.4732475,0-0.8605042,0.3461609-0.8605042,0.7693329c0,0.423111,0.3872566,0.7693329,0.8605042,0.7693329h0.7917824
			C48.1363945,38.3061218,47.9273033,37.9598999,47.9273033,37.5367889z"/>
		<linearGradient id="SVGID_30_" gradientUnits="userSpaceOnUse" x1="49.3212318" y1="36.7993851" x2="49.3212318" y2="38.2740669">
			<stop  offset="0" style="stop-color:#9FA0A0;stop-opacity:0.2"/>
			<stop  offset="0.4156379" style="stop-color:#9FA0A0;stop-opacity:0.2"/>
			<stop  offset="0.7448559" style="stop-color:#9FA0A0;stop-opacity:0.1"/>
			<stop  offset="1" style="stop-color:#9FA0A0;stop-opacity:0.2"/>
		</linearGradient>
		<path style="fill:url(#SVGID_30_);" d="M46.8243446,36.7993851c-0.406086,0-0.7373428,0.3312531-0.7373428,0.7373428
			c0,0.406086,0.3312569,0.737339,0.7373428,0.737339h4.9937706c0.406086,0,0.7373428-0.3312531,0.7373428-0.737339
			c0-0.4060898-0.3312569-0.7373428-0.7373428-0.7373428H46.8243446z"/>
		<linearGradient id="SVGID_31_" gradientUnits="userSpaceOnUse" x1="51.0764694" y1="36.7674561" x2="51.0764694" y2="38.3061218">
			<stop  offset="0" style="stop-color:#F7F8F8;stop-opacity:0"/>
			<stop  offset="0.4041152" style="stop-color:#FFFFFF;stop-opacity:0.6"/>
			<stop  offset="1" style="stop-color:#F7F8F8;stop-opacity:0"/>
		</linearGradient>
		<path style="fill:url(#SVGID_31_);" d="M51.0421104,36.7674561h-0.7917824c0.2555504,0,0.4646416,0.3461609,0.4646416,0.7693329
			c0,0.423111-0.2090912,0.7693329-0.4646416,0.7693329h0.7917824c0.4732475,0,0.8605042-0.3462219,0.8605042-0.7693329
			C51.9026146,37.1136169,51.515358,36.7674561,51.0421104,36.7674561z"/>
	</g>
</g>
</svg>
