<?xml version="1.0" encoding="utf-8"?>
<!-- Generator: Adobe Illustrator 18.0.0, SVG Export Plug-In . SVG Version: 6.00 Build 0)  -->
<!DOCTYPE svg PUBLIC "-//W3C//DTD SVG 1.1//EN" "http://www.w3.org/Graphics/SVG/1.1/DTD/svg11.dtd">
<svg version="1.1" id="レイヤー_1" xmlns="http://www.w3.org/2000/svg" xmlns:xlink="http://www.w3.org/1999/xlink" x="0px"
	 y="0px" width="64px" height="64px" viewBox="0 0 64 64" style="enable-background:new 0 0 64 64;" xml:space="preserve">
<g>
	<g>
		<path style="fill:#F2B375;" d="M31.4149055,42.3830452c0,0.8044548-0.9003391,1.4397736-0.9261417,2.0592537
			c-0.0269852,0.6465797,0.656702,1.4079628,0.6158104,1.9899826c-0.0642681,0.9154282-0.8632336,1.1356621-0.960228,1.6093864
			c-0.3802795,1.8566017,0.0606594,3.7251091-0.8551846,4.6198273c-1.9029942,1.8589516-5.7221317,1.673851-9.4283352,2.2434425
			c-0.5368576,0.0825043-1.0713444,0.1808472-1.5972958,0.3035316C17.022089,55.4980888,14.8424931,60.8376923,13.0116339,65
			l-20.953846,0.0050964c1.111783-2.4820023,1.1014218-4.1701775,1.428441-6.4319725
			c1.0849161-7.5039253-4.5259032-4.3396034-9.8843212-16.0810547
			c-9.2550144-20.2796955-1.0364494-30.9708481,12.0668716-35.2671356
			c10.3621817-3.3976045,23.1263504-2.209363,27.5400467,10.6900883c1.669302,4.8786602,1.5062065,7.5980816,2.2315559,10.3853207
			c1.4660244,5.6336555,4.7801609,5.7967262,5.682951,6.6995163c1.2505798,1.2505798-0.6216087,3.3628693-0.6095352,4.8886032
			C30.5254555,41.3624153,31.4149055,41.5234947,31.4149055,42.3830452z"/>
		<path style="fill:#72402D;" d="M-8.3286133,65.2548828l0.1582031-0.3525391
			c0.8657227-1.9316406,1.0371094-3.3603516,1.2353516-5.0136719c0.0522461-0.4335938,0.105957-0.8798828,0.1738281-1.3515625
			c0.5419922-3.7470703-0.5913086-4.6884766-2.6484375-6.3984375c-1.9448242-1.6162109-4.6083984-3.8291016-7.2158203-9.5429688
			c-4.3310547-9.4902344-5.1293945-17.4936523-2.3720703-23.7871094c2.3554688-5.3769531,7.4003906-9.4643555,14.5883789-11.8212891
			c3.2719727-1.0727539,6.6513672-1.6396484,9.7739258-1.6396484c8.9042969,0,15.3256836,4.4345703,18.0805664,12.4863281
			c1.0649414,3.112793,1.3857422,5.3291016,1.6689453,7.2841797c0.1572266,1.0854492,0.3056641,2.1113281,0.5678711,3.1191406
			c1.0957031,4.2099609,3.1938477,5.2568359,4.5825195,5.9492188c0.4448242,0.2216797,0.7963867,0.3974609,1.0356445,0.6367188
			c0.9008789,0.9003906,0.3999023,2.1660156-0.0415039,3.2822266c-0.2568359,0.6484375-0.4990234,1.2607422-0.4951172,1.78125
			c0.0058594,0.7558594,0.2558594,1.1162109,0.4980469,1.4638672c0.1982422,0.2851563,0.4033203,0.5800781,0.4033203,1.0322266
			c0,0.5117188-0.293457,0.9423828-0.5522461,1.3222656c-0.1879883,0.2744141-0.3652344,0.5351563-0.3740234,0.7480469
			c-0.0112305,0.265625,0.1445313,0.5957031,0.2954102,0.9150391c0.1694336,0.3583984,0.3447266,0.7294922,0.3198242,1.0820313
			c-0.0449219,0.6435547-0.4077148,1.0009766-0.6728516,1.2626953c-0.144043,0.1416016-0.2680664,0.2646484-0.2915039,0.3789063
			c-0.137207,0.6679688-0.1640625,1.3339844-0.1904297,1.9785156c-0.0473633,1.1464844-0.0878906,2.1367188-0.7353516,2.7695313
			c-1.4799805,1.4462891-4.0405273,1.7050781-6.7514648,1.9785156c-0.9213867,0.0927734-1.8740234,0.1894531-2.8134766,0.3339844
			c-0.5703125,0.0869141-1.0864258,0.1845703-1.5786133,0.2988281c-0.9765625,0.2285156-2.9765625,4.8222656-4.4365234,8.1767578
			L13.1748047,65.25L-8.3286133,65.2548828z M5.3647461,5.8476563c-3.0703125,0-6.3959961,0.5585938-9.6176758,1.6147461
			c-7.0493164,2.3115234-11.9897461,6.3041992-14.2866211,11.546875
			c-2.6977539,6.1577148-1.9008789,14.0239258,2.3691406,23.3793945c2.5600586,5.609375,5.1728516,7.7802734,7.0805664,9.3662109
			c2.0507813,1.7041016,3.4052734,2.8300781,2.8237305,6.8544922c-0.0678711,0.4667969-0.1206055,0.9091797-0.1723633,1.3388672
			c-0.1914063,1.5927734-0.3579102,2.9814453-1.1230469,4.8066406L12.8481445,64.75l0.5771484-1.3212891
			c2.1503906-4.9404297,3.6450195-8.1982422,4.7817383-8.4638672c0.5048828-0.1171875,1.0332031-0.2177734,1.6162109-0.3066406
			c0.9521484-0.1464844,1.9111328-0.2431641,2.8388672-0.3369141c2.621582-0.265625,5.0976563-0.515625,6.4521484-1.8388672
			c0.5058594-0.4941406,0.5424805-1.3925781,0.5849609-2.4326172c0.0258789-0.6328125,0.0556641-1.3505859,0.2001953-2.0576172
			c0.0541992-0.2636719,0.2456055-0.453125,0.4306641-0.6357422c0.2426758-0.2392578,0.4931641-0.4863281,0.5249023-0.9414063
			c0.015625-0.2216797-0.1308594-0.5332031-0.2729492-0.8339844c-0.1767578-0.3740234-0.359375-0.7607422-0.3432617-1.1494141
			c0.0151367-0.3554688,0.2314453-0.6728516,0.4609375-1.0087891c0.2285156-0.3349609,0.465332-0.6826172,0.465332-1.0400391
			c0-0.2949219-0.1318359-0.484375-0.3139648-0.7470703c-0.2583008-0.3720703-0.5800781-0.8339844-0.5874023-1.7451172
			c-0.0048828-0.6171875,0.2670898-1.3046875,0.5302734-1.9697266c0.4223633-1.0673828,0.8212891-2.0761719,0.152832-2.7441406
			c-0.1816406-0.1816406-0.5170898-0.3486328-0.9052734-0.5429688c-1.3803711-0.6884766-3.6904297-1.840332-4.8427734-6.2705078
			c-0.2695313-1.034668-0.4199219-2.0737305-0.5791016-3.1738281c-0.2802734-1.9331055-0.597168-4.125-1.6469727-7.1933594
			C20.2915039,10.1621094,14.0385742,5.8476563,5.3647461,5.8476563z"/>
	</g>
	<path style="fill:#BF8258;" d="M7.0292764,64C-0.125,64-2.1649771,49.4245033-2.1649771,49.4245033
		c-3-3.416687,8.6233311-0.9661903,8.6233311-0.9661903c6.2480474,6.5565796,17.2959595,5.2971535,18.9055786,5.074192
		c-1.7893677,0.3366699-3.887085,0.4286499-5.9614258,0.7474365c-0.5368652,0.0824585-1.0713501,0.1808472-1.59729,0.3035278
		c-1.2414551,0.2896118-3.4210806,5.6292114-5.2518911,9.7915001L7.0292764,64z"/>
	<g>
		<path style="fill:#330600;" d="M23.2494164,30.6795521c-0.4643974,0.0090256-1.0421066-0.0726147-1.5674553-0.1713753
			c0.356678-0.2378864,0.6706867-0.5238724,0.7946663-0.8611908c0,0-0.6062546,0.6088352-2.2047291,0.5374413
			c-2.0423031,1.9354839-5.639967,2.28232-5.639967,2.28232s1.8585186,1.7645721,8.2032585-0.2681923
			c0,0-0.9329967-0.0984497-1.6891747-0.2990417C22.6072807,31.245285,23.2494164,30.6795521,23.2494164,30.6795521z"/>
		<path style="fill:#BF8258;" d="M17.4710503,21.6771984c1.0166378,2.9729023,2.0169792,6.0368252,2.0085335,8.0447102
			C18.9203072,30.3605194,17.791666,30.791666,14.5663404,32c0,0,3.9840078-0.3964462,5.6240721-2.33358
			C20.121006,26.1523819,17.4710503,21.6771984,17.4710503,21.6771984z"/>
		<path style="fill:#330600;" d="M21.5892563,21.1360779c0,0-2.9430637-2.4622669-9.2371559,4.432478
			C12.3521004,25.5685558,18.1106262,21.3828411,21.5892563,21.1360779z"/>
	</g>
	<g>
		
			<linearGradient id="SVGID_1_" gradientUnits="userSpaceOnUse" x1="76.1394043" y1="4.0947614" x2="76.1394043" y2="63.3135529" gradientTransform="matrix(-1 0 0 1 64 0)">
			<stop  offset="0" style="stop-color:#000000"/>
			<stop  offset="0.1316872" style="stop-color:#3E3A39"/>
			<stop  offset="0.2510288" style="stop-color:#3E3A39"/>
			<stop  offset="0.7407407" style="stop-color:#000000"/>
		</linearGradient>
		<path style="fill:url(#SVGID_1_);" d="M-1.5342607,17.6797314l-1.8600144,23.8966198
			c2.2959921,11.0415001-1.0334573,18.2036896-3.9148088,21.7372017l-2.4372473-0.437458
			c0,0,0.9814081-1.4876213,0.8005915-5.1943626c0,0-1.3494177,3.7605362-2.3667603,4.8807678l-1.5408716-0.8195839
			c0,0,1.507431-7.0870323-4.5906076-15.8269653C-22.9098969,38.0819969-30.8338776,7.007041-1.9814588,4.0947614
			L-1.5342607,17.6797314z"/>
		<path style="fill:#050505;" d="M-7.2084961,63.5859375l-2.9516602-0.5302734l0.2045898-0.3164063
			c0.0083008-0.0126953,0.706543-1.1259766,0.7763672-3.75c-0.4902344,1.2167969-1.2783203,3.0039063-1.9482422,3.7412109
			l-0.1308594,0.1435547l-1.8789063-0.9980469l0.0390625-0.1845703c0.0146484-0.0703125,1.4072266-7.0927734-4.5507813-15.6328125
			c-3.7226563-5.3349609-7.9750977-20.0883789-3.1972656-30.4916992C-17.7084961,8.734375-11.3701172,4.7910156-2.0063477,3.8461914
			l0.2661133-0.0268555l0.4560547,13.8520508l-1.8579102,23.8891602
			c2.5385742,12.2636719-1.9316406,19.4072266-3.9731445,21.9111328L-7.2084961,63.5859375z M-9.3676758,62.6894531
			l1.9570313,0.3515625c2.0366211-2.5488281,6.2446289-9.5214844,3.7719727-21.4140625l-0.0073242-0.0351563l0.0029297-0.0351563
			l1.8598633-23.8964844L-2.2226563,4.3710938c-9.0283203,0.9731445-15.140625,4.809082-18.1694336,11.4042969
			c-4.6982422,10.2304688-0.5107422,24.7460938,3.1533203,29.9980469c5.543457,7.9443359,4.84375,14.6416016,4.6621094,15.8339844
			l1.203125,0.6396484c0.9575195-1.2255859,2.1796875-4.6142578,2.1923828-4.6494141l0.4238281-1.1816406l0.0610352,1.2539063
			C-8.5585938,60.4951172-9.0834961,62.0634766-9.3676758,62.6894531z"/>
	</g>
	<g>
		<g>
			<path style="fill:#F2B375;" d="M-2.2047548,36.5263481c0,0-4.9620867-0.4144707-4.8154497,4.3410149
				s1.8377318,6.2721634,3.8800085,7.1945457c2.0422769,0.9223862,5.8613839,1.4894218,7.2334957-1.7384949"/>
			<path style="fill:#72402D;" d="M0.0947266,49.0332031c-1.2114258,0-2.4238281-0.3310547-3.3378906-0.7441406
				C-5.2436523,47.3867188-7.1162109,45.8632813-7.2700195,40.875c-0.0444336-1.4394531,0.3583984-2.5722656,1.1967773-3.3681641
				c1.4873047-1.4111328,3.7895508-1.2392578,3.8896484-1.2294922l-0.0415039,0.4980469
				c-0.0205078,0.0019531-2.1835938-0.1621094-3.5058594,1.0957031c-0.7294922,0.6933594-1.0791016,1.6992188-1.0390625,2.9882813
				c0.137207,4.4521484,1.5913086,6.0078125,3.7329102,6.9746094c1.2607422,0.5693359,3.2993164,1.015625,4.8930664,0.3935547
				c0.9199219-0.3583984,1.5952148-1.0322266,2.0073242-2.0019531l0.4599609,0.1953125
				c-0.4667969,1.0986328-1.2353516,1.8632813-2.2856445,2.2724609C1.4233398,48.9335938,0.7592773,49.0332031,0.0947266,49.0332031
				z"/>
		</g>
	</g>
	<g>
		<linearGradient id="SVGID_2_" gradientUnits="userSpaceOnUse" x1="11.4372101" y1="2.1923368" x2="11.4372101" y2="55.6861267">
			<stop  offset="0" style="stop-color:#000000"/>
			<stop  offset="0.1316872" style="stop-color:#3E3A39"/>
			<stop  offset="0.2510288" style="stop-color:#3E3A39"/>
			<stop  offset="0.7407407" style="stop-color:#000000"/>
		</linearGradient>
		<path style="fill:url(#SVGID_2_);" d="M21.5892334,23.1385498c0,0,3.3482666,4.9864502,4.2431641,5.7158813L29.625,27.9524536
			C28.875-7.8125-1.9814453,4.0947266-1.9814453,4.0947266S-9.0286255,6.8948975-5.9899902,28.850647
			C-4.1805472,41.9247856-1.6589803,50.5352173,1.0625,55.25l1.5,0.4361267
			c-0.5616813-2.2321396-1.5504839-5.880825-1.5942383-8.5040588c0,0,1.0476766,4.3964539,3.2948809,8.2075806l4.8361273,0.0705719
			C8.1799068,49.2938995,6.962183,39.9560471,7.039978,34.203186C8.3118286,39.0197144,10.21875,40.9375,10.21875,40.9375
			l1.1333504-0.15625c1.4828701-8.4839592,0.4102287-25.0593262,0.4102287-25.0593262
			c1.2891989,2.5536041,1.4531946,11.2475681,1.4586878,15.2151909l0.5088243-0.1530533
			c1.3965979-6.873333,0.2481298-13.1980381-0.4678783-17.2795448c2.2653198,5.553833,4.7178955,13.5129395,7.9292603,16.2260742
			l1.5360718-0.3696289C22.4058838,25.3624268,21.5892334,23.1385498,21.5892334,23.1385498z"/>
		<path style="fill:#050505;" d="M2.9111328,56.0488281l-2.0151367-0.5869141L0.8461914,55.375
			c-2.940918-5.0947266-5.390625-14.2548828-7.0839844-26.4902344C-9.2685547,6.9868164-2.3691406,3.9794922-2.0737305,3.8623047
			c0.0522461-0.0200195,5.0439453-1.9199219,10.9887695-1.9199219c9.3129883,0,20.5092773,4.5117188,20.9599609,26.0048828
			l0.0043945,0.2021484l-4.109375,0.9770508l-0.0952148-0.078125c-0.6293945-0.5126953-2.3623047-2.9584961-3.4257813-4.4990234
			c0.253418,1.0639648,0.5576172,2.6777344,0.7275391,4.7915039l0.0170898,0.2128906l-1.8666992,0.4492188l-0.0966797-0.081543
			c-2.5898438-2.1875-4.6948242-7.7192383-6.5517578-12.6000977c-0.1914063-0.5024414-0.378418-0.9946289-0.5634766-1.4755859
			c0.6435547,3.9970703,1.2172852,9.2910156,0.0600586,14.9882813l-0.0297852,0.1464844l-0.9736328,0.2924805L12.9711914,30.9375
			c-0.0043945-3.0366211-0.1064453-9.5625-0.8491211-13.2006836c0.2285156,4.7016602,0.6396484,16.4331055-0.5239258,23.0874023
			l-0.03125,0.1796875l-1.4375,0.1982422l-0.0878906-0.0888672c-0.0698242-0.0693359-1.5239258-1.5634766-2.7397461-5.1660156
			c0.1357422,5.625,1.1601563,13.5449219,2.0444336,19.4755859l0.043457,0.2910156l-5.2705078-0.0761719l-0.0712891-0.1210938
			c-1.1660156-1.9785156-2.0161133-4.1279297-2.5639648-5.7402344c0.2998047,1.8310547,0.7929688,3.7705078,1.1606445,5.2167969
			L2.9111328,56.0488281z M1.2290039,55.0380859l0.9838867,0.2861328l-0.0527344-0.2080078
			c-0.5581055-2.1943359-1.4013672-5.5117188-1.4418945-7.9306641l-0.0385742-2.2900391l0.5317383,2.2285156
			c0.0102539,0.0429688,1.043457,4.3115234,3.1962891,8.0175781l4.4008789,0.0644531
			c-0.9731445-6.5644531-2.09375-15.4277344-2.0185547-21.0058594l0.0249023-1.8291016l0.4667969,1.7685547
			c1.0883789,4.1210938,2.6606445,6.1044922,3.0332031,6.5322266l0.8217773-0.1132813
			c1.4150391-8.4121094,0.3867188-24.65625,0.3759766-24.8208008l-0.0791016-1.2211914l0.5517578,1.0922852
			c1.246582,2.46875,1.46875,10.3051758,1.4848633,14.9921875l0.0439453-0.0131836
			c1.3222656-6.6723633,0.2460938-12.7998047-0.4677734-16.8647461l-0.434082-2.4726563l0.8808594,2.159668
			c0.4746094,1.1635742,0.949707,2.4121094,1.4526367,3.7333984c1.8120117,4.7626953,3.8632813,10.1523438,6.3120117,12.3139648
			l1.2026367-0.2895508c-0.3256836-3.7788086-1.0981445-5.921875-1.105957-5.9433594l-0.7114258-1.9438477l1.1538086,1.71875
			c1.1054688,1.6459961,3.3232422,4.8364258,4.1044922,5.581543l3.4692383-0.824707
			C28.8632813,6.8393555,17.9755859,2.4423828,8.9150391,2.4423828c-5.8525391,0-10.7578125,1.8666992-10.8066406,1.8857422
			C-1.956543,4.3544922-8.7080078,7.3881836-5.7426758,28.8164063C-4.0673828,40.9189453-1.6577148,49.9814453,1.2290039,55.0380859
			z"/>
	</g>
	<g>
		
			<linearGradient id="SVGID_3_" gradientUnits="userSpaceOnUse" x1="63.4797821" y1="6.3209844" x2="63.4797821" y2="27.9524536" gradientTransform="matrix(-1 0 0 1 64 0)">
			<stop  offset="0" style="stop-color:#FFFFFF;stop-opacity:0.6"/>
			<stop  offset="1" style="stop-color:#FFFFFF;stop-opacity:0"/>
		</linearGradient>
		<path style="fill:url(#SVGID_3_);" d="M-1.1708374,8.5941772c0,0,0.5285034,0.6518555,0.9907227,2.1381226
			C0.21521,8.9559937,0.9840088,7.4042969,2.30896,6.3209839c0,0,4.6766968,5.7202759,0.1566772,21.6314697
			c0,0-1.4367676-3.548584-2.3183594-7.8729248c-0.2415161,1.632019-0.6138916,3.4428711-1.1951294,5.4890137
			C-1.0478516,25.5685425-6.2443237,12.7424927-1.1708374,8.5941772z"/>
		
			<linearGradient id="SVGID_4_" gradientUnits="userSpaceOnUse" x1="43.0240402" y1="5.0272317" x2="43.0240402" y2="19.3508625" gradientTransform="matrix(-1 0 0 1 64 0)">
			<stop  offset="0" style="stop-color:#FFFFFF;stop-opacity:0.6"/>
			<stop  offset="1" style="stop-color:#FFFFFF;stop-opacity:0"/>
		</linearGradient>
		<path style="fill:url(#SVGID_4_);" d="M26.1748886,19.3508625c-1.2269592-11.3725471-9.109108-14.3236313-9.109108-14.3236313
			c0.3068542,0.9845009,0.6578903,1.9117732,1.0296059,2.8011007C16.8157635,6.7954412,15.77703,6.4227848,15.77703,6.4227848
			c2.1231089,7.2978792,7.0353174,11.2366982,7.0353174,11.2366982c-0.0699329-0.8411961-0.200716-1.6043682-0.3568192-2.3307467
			C24.481617,17.9563046,26.1748886,19.3508625,26.1748886,19.3508625z"/>
		
			<linearGradient id="SVGID_5_" gradientUnits="userSpaceOnUse" x1="81.4439774" y1="12.4434633" x2="81.4439774" y2="29.8920803" gradientTransform="matrix(-1 0 0 1 64 0)">
			<stop  offset="0" style="stop-color:#FFFFFF;stop-opacity:0.6"/>
			<stop  offset="1" style="stop-color:#FFFFFF;stop-opacity:0"/>
		</linearGradient>
		<path style="fill:url(#SVGID_5_);" d="M-14.5698624,12.4434633c-1.1650982,0.8651018-1.9453983,1.861352-2.4729996,2.8957138
			c-0.1197758-1.1130981-0.3044529-1.6911612-0.3044529-1.6911612c-5.65201,5.906889-2.4460964,16.2440643-2.4460964,16.2440643
			c1.128582-2.7161484,1.8275776-5.1132183,2.2545872-7.1850719c0.2106705,0.7844429,0.4163876,1.2686081,0.4163876,1.2686081
			C-12.7341175,16.5753536-14.5698624,12.4434633-14.5698624,12.4434633z"/>
	</g>
	
		<linearGradient id="SVGID_6_" gradientUnits="userSpaceOnUse" x1="20.2362022" y1="35.8743477" x2="20.2362022" y2="39.3065567" gradientTransform="matrix(1 0 0 1 0.2354881 0)">
		<stop  offset="0" style="stop-color:#C30D23;stop-opacity:0.3"/>
		<stop  offset="1" style="stop-color:#C30D23;stop-opacity:0"/>
	</linearGradient>
	<path style="fill:url(#SVGID_6_);" d="M16.7022552,38.9777565c-0.3206539-1.2115326,4.1092968-4.1841164,7.0096169-2.6951065
		S17.0229111,40.1892891,16.7022552,38.9777565z"/>
</g>
</svg>
