<?xml version="1.0" encoding="UTF-8" standalone="no"?>
<!-- Generated by phantom_svg. -->

<svg
   xmlns:dc="http://purl.org/dc/elements/1.1/"
   xmlns:cc="http://creativecommons.org/ns#"
   xmlns:rdf="http://www.w3.org/1999/02/22-rdf-syntax-ns#"
   xmlns:svg="http://www.w3.org/2000/svg"
   xmlns="http://www.w3.org/2000/svg"
   xmlns:sodipodi="http://sodipodi.sourceforge.net/DTD/sodipodi-0.dtd"
   xmlns:inkscape="http://www.inkscape.org/namespaces/inkscape"
   width="64px"
   height="64px"
   viewBox="0 0 64 64"
   preserveAspectRatio="none"
   version="1.1"
   id="svg2"
   inkscape:version="0.91 r13725"
   sodipodi:docname="feet_4.svg">
  <metadata
     id="frame0_metadata43">
    <rdf:RDF>
      <cc:Work
         rdf:about="">
        <dc:format>
           image/svg+xml 
        </dc:format>
        <dc:type
           rdf:resource="http://purl.org/dc/dcmitype/StillImage" />
        <dc:title></dc:title>
      </cc:Work>
    </rdf:RDF>
  </metadata>
  <defs
     id="frame0_defs41" />
  <sodipodi:namedview
     pagecolor="#ffffff"
     bordercolor="#666666"
     borderopacity="1"
     objecttolerance="10"
     gridtolerance="10"
     guidetolerance="10"
     inkscape:pageopacity="0"
     inkscape:pageshadow="2"
     inkscape:window-width="1920"
     inkscape:window-height="1017"
     id="frame0_namedview39"
     showgrid="false"
     inkscape:zoom="3.6875"
     inkscape:cx="-33.586527"
     inkscape:cy="58.99565"
     inkscape:window-x="0"
     inkscape:window-y="26"
     inkscape:window-maximized="1"
     inkscape:current-layer="svg2" />
  <g
     id="frame0_g3"
     style="fill:#24221c">
    <path
       style="fill:#24221c"
       d="M27.6010742,14.3828125c-8.543457-2.1748047-8.2470703-4.3588867-12.2265625-1.9897461   c-4.9897461,2.9711914-2.8525391,6.3105469-4.1635742,12.2070313c-1.0981445,4.9414063,6.4321289,5.4711914,8.1845703,1.2197266   c0.8881836-2.152832,2.7226563-3.0849609,4.3041992-3.1162109C32.5834961,22.5302734,30.3793945,15.090332,27.6010742,14.3828125z"
       id="frame0_path5" />
    <path
       style="fill:#24221c"
       d="M8.3129883,16.1850586c1.8603516,1.7070313,2.0864258,4.4887695,1.5322266,5.0922852   C9.1162109,22.0732422,6.5,21.8959961,4.6391602,20.1894531c-1.8603516-1.7075195-2.5454102-3.9873047-1.5322266-5.0927734   C4.1220703,13.9907227,6.4526367,14.4780273,8.3129883,16.1850586z"
       id="frame0_path7" />
    <path
       style="fill:#24221c"
       d="M11.4736328,7.4130859c1.2758789,2.1791992,0.6733398,4.9042969-0.0341797,5.3168945   c-0.9306641,0.5463867-3.378418-0.3911133-4.6547852-2.5708008C5.5073242,7.980957,5.5234375,5.5996094,6.8183594,4.8417969   C8.1123047,4.0834961,10.1972656,5.234375,11.4736328,7.4130859z"
       id="frame0_path9" />
    <path
       style="fill:#24221c"
       d="M18.2353516,4.3417969c1.0493164,2.296875,0.175293,4.9487305-0.5698242,5.2890625   c-0.9799805,0.4492188-3.3227539-0.7294922-4.3730469-3.0273438c-1.0512695-2.2954102-0.7963867-4.6630859,0.5678711-5.2871094   C15.2250977,0.6928711,17.1831055,2.046875,18.2353516,4.3417969z"
       id="frame0_path11" />
    <path
       style="fill:#24221c"
       d="M26.4599609,6.7329102c0.5336914,2.4677734-0.8891602,4.8701172-1.6889648,5.0419922   c-1.0537109,0.2294922-3.0883789-1.4233398-3.6235352-3.8920898c-0.5336914-2.4692383,0.2226563-4.7255859,1.6875-5.043457   C24.3027344,2.5219727,25.925293,4.2651367,26.4599609,6.7329102z"
       id="frame0_path13" />
  </g>
</svg>
