<?xml version="1.0" encoding="utf-8"?>
<!-- Generator: Adobe Illustrator 18.0.0, SVG Export Plug-In . SVG Version: 6.00 Build 0)  -->
<!DOCTYPE svg PUBLIC "-//W3C//DTD SVG 1.1//EN" "http://www.w3.org/Graphics/SVG/1.1/DTD/svg11.dtd">
<svg version="1.1" id="レイヤー_1" xmlns="http://www.w3.org/2000/svg" xmlns:xlink="http://www.w3.org/1999/xlink" x="0px"
	 y="0px" width="64px" height="64px" viewBox="0 0 64 64" style="enable-background:new 0 0 64 64;" xml:space="preserve">
<g>
	<g>
		<linearGradient id="SVGID_1_" gradientUnits="userSpaceOnUse" x1="43.65625" y1="47.125" x2="43.65625" y2="65.3651199">
			<stop  offset="0" style="stop-color:#EA5514"/>
			<stop  offset="1" style="stop-color:#C30D23"/>
		</linearGradient>
		<path style="fill:url(#SVGID_1_);" d="M42.7967072,47.125c0,0,8.4064674,2.125,10.086132,5.125
			C54.5625,55.25,55.3125,65.3651199,55.3125,65.3651199H32V49L42.7967072,47.125z"/>
		<path style="fill:#330409;" d="M55.5820313,65.6152344H31.75V48.7900391l11.0566406-1.9208984l0.0517578,0.0136719
			c0.3476563,0.0878906,8.5302734,2.1865234,10.2421875,5.2451172c1.6875,3.0136719,2.4306641,12.8037109,2.4609375,13.21875
			L55.5820313,65.6152344z M32.25,65.1152344h22.7919922c-0.1337891-1.6210938-0.8945313-10.0957031-2.3769531-12.7431641
			c-1.5429688-2.7539063-9.1777344-4.8085938-9.8789063-4.9912109L32.25,49.2099609V65.1152344z"/>
	</g>
	<g>
		
			<linearGradient id="SVGID_2_" gradientUnits="userSpaceOnUse" x1="43.65625" y1="47.125" x2="43.65625" y2="65.3651199" gradientTransform="matrix(-1 0 0 1 64 0)">
			<stop  offset="0" style="stop-color:#EA5514"/>
			<stop  offset="1" style="stop-color:#C30D23"/>
		</linearGradient>
		<path style="fill:url(#SVGID_2_);" d="M21.2032948,47.125c0,0-8.4064703,2.125-10.086132,5.125
			S8.6875,65.3651199,8.6875,65.3651199H32V49L21.2032948,47.125z"/>
		<path style="fill:#330409;" d="M32.25,65.6152344H8.418457l0.0195313-0.2685547
			c0.0307617-0.4150391,0.7739258-10.2050781,2.4609375-13.21875c1.7128906-3.0585938,9.8955078-5.1572266,10.2431641-5.2451172
			l0.0512695-0.0136719l0.0527344,0.0097656L32.25,48.7900391V65.6152344z M8.9580078,65.1152344H31.75V49.2099609
			l-10.5366211-1.8291016c-0.7006836,0.1826172-8.3364258,2.2382813-9.8779297,4.9912109
			C9.8530273,55.0195313,9.0917969,63.4941406,8.9580078,65.1152344z"/>
	</g>
	<g>
		<linearGradient id="SVGID_3_" gradientUnits="userSpaceOnUse" x1="32" y1="47.125" x2="32" y2="65.3651123">
			<stop  offset="0" style="stop-color:#FAEE00"/>
			<stop  offset="1" style="stop-color:#F39800"/>
		</linearGradient>
		<path style="fill:url(#SVGID_3_);" d="M42.7966919,47.125L32,49l-10.7966919-1.875c0,0-1.3525391,0.3897705-3.0298462,1.0668335
			C19.4291992,49.348999,22.4688721,50.9925537,29.8125,51.25v14.1151123H32h2.1875V51.25
			c7.3436279-0.2574463,10.3833008-1.901001,11.6390381-3.0581665C44.149231,47.5147705,42.7966919,47.125,42.7966919,47.125z"/>
		<path style="fill:#330409;" d="M34.4375,65.6152344h-4.875V51.4912109
			C22.5068359,51.2109375,19.3833008,49.6464844,18.0039063,48.375l-0.2905273-0.2675781l0.3662109-0.1474609
			c1.6699219-0.6738281,3.0405273-1.0712891,3.0541992-1.0751953l0.0556641-0.015625L32,48.7460938l10.8105469-1.8769531
			l0.0556641,0.015625c0.0136719,0.0039063,1.3837891,0.4013672,3.0537109,1.0751953l0.3662109,0.1474609L45.9951172,48.375
			c-1.3789063,1.2714844-4.5029297,2.8359375-11.5576172,3.1162109V65.6152344z M30.0625,65.1152344h3.875V51.0087891L34.1787109,51
			c6.5742188-0.2304688,9.6923828-1.5566406,11.1699219-2.7294922c-1.2841797-0.5-2.3222656-0.8164063-2.5664063-0.8896484
			L32,49.2539063l-0.0429688-0.0078125l-10.7392578-1.8652344c-0.2441406,0.0732422-1.2817383,0.3896484-2.5664063,0.8896484
			C20.128418,49.4433594,23.2470703,50.7695313,29.8212891,51L30.0625,51.0087891V65.1152344z"/>
	</g>
	<g>
		<linearGradient id="SVGID_4_" gradientUnits="userSpaceOnUse" x1="32" y1="48.4981422" x2="32" y2="65.3651123">
			<stop  offset="0" style="stop-color:#FAEE00"/>
			<stop  offset="1" style="stop-color:#F39800"/>
		</linearGradient>
		<rect x="31.1477547" y="48.4981384" style="fill:url(#SVGID_4_);" width="1.7044894" height="16.866972"/>
		<path style="fill:#4D4800;" d="M33.1015625,65.6152344h-2.2036133V48.2480469h2.2036133V65.6152344z M31.3979492,65.1152344
			h1.2041016V48.7480469h-1.2041016V65.1152344z"/>
	</g>
	<g>
		<linearGradient id="SVGID_5_" gradientUnits="userSpaceOnUse" x1="38.453846" y1="41.7569427" x2="38.453846" y2="49.9945793">
			<stop  offset="0" style="stop-color:#DB391A"/>
			<stop  offset="1" style="stop-color:#C30D23"/>
		</linearGradient>
		<path style="fill:url(#SVGID_5_);" d="M32.7155991,41.7569542c10.1236839,0.0534935,11.3884773,1.2385178,11.3884773,1.2385178
			l0.8036156,4.8156128c0,0-4.321846,2.0627708-12.1872787,2.1834106C32.3278427,50.000515,32,49.6789856,32,49.2863693v-6.8239555
			C32,42.0722427,32.3254318,41.7548904,32.7155991,41.7569542z"/>
		<path style="fill:#330409;" d="M32.7080078,50.2441406c-0.5283203,0-0.9580078-0.4296875-0.9580078-0.9580078v-6.8232422
			c0-0.5273438,0.4316406-0.9560547,0.9624023-0.9560547c9.9389648,0.0527344,11.4262695,1.1777344,11.5629883,1.3056641
			l0.0615234,0.0576172l0.0146484,0.0839844l0.8330078,5.0019531l-0.1699219,0.0810547
			c-0.0429688,0.0205078-4.4609375,2.0878906-12.2905273,2.2070313H32.7080078z M32.7143555,42.0068359
			c-0.2568359,0-0.4643555,0.2041016-0.4643555,0.4560547v6.8232422c0,0.2480469,0.2094727,0.4580078,0.4580078,0.4580078v0.25
			l0.0078125-0.25c6.8564453-0.1044922,11.0400391-1.7138672,11.9130859-2.0830078L43.875,43.1396484
			C43.53125,42.9423828,41.4980469,42.0537109,32.7143555,42.0068359z"/>
	</g>
	<g>
		<linearGradient id="SVGID_6_" gradientUnits="userSpaceOnUse" x1="25.546154" y1="41.7569427" x2="25.546154" y2="49.9945793">
			<stop  offset="0" style="stop-color:#DB391A"/>
			<stop  offset="1" style="stop-color:#C30D23"/>
		</linearGradient>
		<path style="fill:url(#SVGID_6_);" d="M31.2846584,41.7569504c-10.1239185,0.0534782-11.3887348,1.2385216-11.3887348,1.2385216
			l-0.8036156,4.8156128c0,0,4.3219395,2.0628166,12.1875401,2.1834145C31.6722736,50.000515,32,49.6791039,32,49.2866325
			l-0.0000019-6.8244781C31.9999981,42.0721245,31.6746826,41.7548904,31.2846584,41.7569504z"/>
		<path style="fill:#330409;" d="M31.2919922,50.2441406L31.2919922,50.2441406h-0.0166016
			C23.4462891,50.125,19.0283203,48.0576172,18.984375,48.0371094l-0.1694336-0.0810547l0.8486328-5.0859375L19.7250977,42.8125
			c0.1367188-0.1279297,1.6230469-1.2529297,11.5581055-1.3056641c0.5351563,0,0.9667969,0.4287109,0.9667969,0.9550781v6.8251953
			c0,0.2539063-0.1000977,0.4941406-0.2822266,0.6757813C31.7861328,50.1445313,31.5458984,50.2441406,31.2919922,50.2441406z
			 M19.3710938,47.6611328c0.8730469,0.3691406,5.0566406,1.9785156,11.9125977,2.0830078l0.0083008,0.25v-0.25l0,0
			c0.1206055,0,0.2353516-0.0478516,0.3227539-0.1347656C31.7021484,49.5214844,31.75,49.4072266,31.75,49.2871094v-6.8251953
			c0-0.2470703-0.2114258-0.4550781-0.4619141-0.4550781C22.5454102,42.0527344,20.4897461,42.9335938,20.125,43.1416016
			L19.3710938,47.6611328z"/>
	</g>
	<g>
		<linearGradient id="SVGID_7_" gradientUnits="userSpaceOnUse" x1="37.3319321" y1="61.3124886" x2="48.1313057" y2="61.3124886">
			<stop  offset="0.5" style="stop-color:#FAEE00"/>
			<stop  offset="1" style="stop-color:#F39800"/>
		</linearGradient>
		<path style="fill:url(#SVGID_7_);" d="M47.8951035,59.0416679c0,0-5.7369385,0.9583321-10.5631714,1.0416451v3.5
			c0,0,7.8267174-0.0658607,10.7993736-0.9153481L47.8951035,59.0416679z"/>
		<path style="fill:#330409;" d="M37.3320313,63.8330078c-0.0654297,0-0.1289063-0.0263672-0.1757813-0.0722656
			c-0.0478516-0.046875-0.0742188-0.1113281-0.0742188-0.1777344v-3.5c0-0.1367188,0.109375-0.2480469,0.2460938-0.25
			c4.7509766-0.0820313,10.46875-1.0283203,10.5263672-1.0380859c0.0683594-0.0107422,0.1396484,0.0068359,0.1962891,0.0507813
			c0.0556641,0.0439453,0.0898438,0.109375,0.09375,0.1796875l0.2353516,3.6259766
			c0.0078125,0.1181641-0.0673828,0.2246094-0.1806641,0.2568359c-2.9707031,0.8496094-10.5439453,0.921875-10.8652344,0.9248047
			C37.3330078,63.8330078,37.3330078,63.8330078,37.3320313,63.8330078z M37.5820313,60.328125v3.0019531
			c1.3300781-0.0205078,7.5634766-0.1503906,10.2861328-0.8496094l-0.2041016-3.1484375
			C46.4863281,59.5175781,41.7207031,60.2324219,37.5820313,60.328125z"/>
	</g>
	<path style="fill:#330409;" d="M48.2890625,65.6152344c-0.1308594,0-0.2412109-0.1015625-0.25-0.234375l-0.4707031-7.5527344
		c-0.0048828-0.0888672,0.0371094-0.1748047,0.1113281-0.2236328c0.0185547-0.0117188,1.8046875-1.2197266,3.0996094-3.6396484
		c0.0654297-0.1220703,0.2158203-0.1650391,0.3388672-0.1025391c0.1210938,0.0654297,0.1669922,0.2167969,0.1025391,0.3388672
		c-1.1757813,2.1972656-2.7050781,3.4150391-3.1445313,3.7353516l0.4628906,7.4130859
		c0.0078125,0.1376953-0.0966797,0.2568359-0.234375,0.265625C48.2998047,65.6152344,48.2939453,65.6152344,48.2890625,65.6152344z"
		/>
	<g>
		
			<linearGradient id="SVGID_8_" gradientUnits="userSpaceOnUse" x1="37.3319321" y1="61.3124886" x2="48.1313057" y2="61.3124886" gradientTransform="matrix(-1 0 0 1 64 0)">
			<stop  offset="0.5" style="stop-color:#FAEE00"/>
			<stop  offset="1" style="stop-color:#F39800"/>
		</linearGradient>
		<path style="fill:url(#SVGID_8_);" d="M16.1048985,59.0416679c0,0,5.7369347,0.9583321,10.5631676,1.0416451v3.5
			c0,0-7.8267155-0.0658607-10.7993717-0.9153481L16.1048985,59.0416679z"/>
		<path style="fill:#330409;" d="M26.6679688,63.8330078c-0.0004883,0-0.0014648,0-0.0019531,0
			c-0.3212891-0.0029297-7.8950195-0.0751953-10.8662109-0.9248047c-0.112793-0.0322266-0.1884766-0.1386719-0.1806641-0.2568359
			l0.2363281-3.6259766c0.0048828-0.0703125,0.0390625-0.1357422,0.0942383-0.1796875s0.125-0.0615234,0.1962891-0.0507813
			c0.0571289,0.0097656,5.7749023,0.9560547,10.5263672,1.0380859c0.1362305,0.0019531,0.2456055,0.1132813,0.2456055,0.25v3.5
			c0,0.0664063-0.0268555,0.1308594-0.0737305,0.1777344C26.7973633,63.8066406,26.7338867,63.8330078,26.6679688,63.8330078z
			 M16.1313477,62.4804688c2.7231445,0.6992188,8.9560547,0.8291016,10.2866211,0.8496094V60.328125
			c-4.1386719-0.0957031-8.9042969-0.8105469-10.081543-0.9960938L16.1313477,62.4804688z"/>
	</g>
	<path style="fill:#330409;" d="M15.7104492,65.6152344c-0.0048828,0-0.0102539,0-0.015625,0
		c-0.1376953-0.0087891-0.2426758-0.1279297-0.2338867-0.265625l0.4624023-7.4130859
		c-0.4389648-0.3203125-1.9677734-1.5380859-3.1435547-3.7353516c-0.0654297-0.1220703-0.0195313-0.2734375,0.1020508-0.3388672
		c0.1206055-0.0625,0.2729492-0.0195313,0.3383789,0.1025391c1.2954102,2.4199219,3.0820313,3.6279297,3.0996094,3.6396484
		c0.0742188,0.0488281,0.1166992,0.1347656,0.1113281,0.2236328l-0.4711914,7.5527344
		C15.9516602,65.5136719,15.8417969,65.6152344,15.7104492,65.6152344z"/>
</g>
<g>
	<g>
		<g>
			<linearGradient id="SVGID_9_" gradientUnits="userSpaceOnUse" x1="47.4380112" y1="18.9342918" x2="47.4380112" y2="48.125">
				<stop  offset="0" style="stop-color:#231815"/>
				<stop  offset="0.15" style="stop-color:#3E3A39"/>
				<stop  offset="0.4" style="stop-color:#3E3A39"/>
				<stop  offset="0.9" style="stop-color:#231815"/>
			</linearGradient>
			<path style="fill:url(#SVGID_9_);" d="M49.7995834,20.9864883c0,0,2.75,18.7635117,0.1875,24.8885117
				c0,0-0.1666641,1.0625-1.5208321,1.25s-3.2349243,1-4.6695442,1l1.2528763-29.1907082L49.7995834,20.9864883z"/>
			<path d="M43.796875,48.375h-0.2607422l0.0107422-0.2607422l1.2685547-29.5537109l5.2119141,2.2514648l0.0195313,0.1381836
				c0.1132813,0.769043,2.7304688,18.9023438,0.1708984,25.0214844C50.1669922,46.3447266,49.7167969,47.2041016,48.5,47.3730469
				c-0.5371094,0.0742188-1.1640625,0.2509766-1.8271484,0.4384766C45.6923828,48.0888672,44.6787109,48.375,43.796875,48.375z
				 M45.2841797,19.3076172l-1.2255859,28.5585938c0.7558594-0.0488281,1.6298828-0.2958984,2.4785156-0.5361328
				c0.6796875-0.1923828,1.3232422-0.3740234,1.8945313-0.453125c1.1572266-0.1601563,1.3076172-1.0322266,1.3085938-1.0410156
				c2.4082031-5.7724609,0.0742188-22.9560547-0.1679688-24.6757813L45.2841797,19.3076172z"/>
		</g>
		<linearGradient id="SVGID_10_" gradientUnits="userSpaceOnUse" x1="48.5299759" y1="24.6156864" x2="48.5299759" y2="46.3184357">
			<stop  offset="0" style="stop-color:#231815;stop-opacity:0"/>
			<stop  offset="1" style="stop-color:#231815"/>
		</linearGradient>
		<path style="fill:url(#SVGID_10_);" d="M48.1973305,24.6547279c0.649353,0.4365845,2.4098434,12.7887077,0.9736404,20.9137077
			l-1.8311996,0.75c0,0,0.8942337-5.125,0.885643-12S47.5479813,24.2181435,48.1973305,24.6547279z"/>
		<linearGradient id="SVGID_11_" gradientUnits="userSpaceOnUse" x1="45.9618645" y1="31.47509" x2="45.9618645" y2="47.5803757">
			<stop  offset="0" style="stop-color:#231815;stop-opacity:0"/>
			<stop  offset="1" style="stop-color:#231815"/>
		</linearGradient>
		<path style="fill:url(#SVGID_11_);" d="M46.7083321,31.5c0.6493492,0.3165112,1.1838226,9.3496399-0.2523804,15.2400322
			l-1.8999596,0.8403435c0,0,0.8942337-3.715477,0.885643-8.6996536S46.0589828,31.1834888,46.7083321,31.5z"/>
	</g>
	<g>
		<g>
			
				<linearGradient id="SVGID_12_" gradientUnits="userSpaceOnUse" x1="47.4380112" y1="18.9342918" x2="47.4380112" y2="48.125" gradientTransform="matrix(-1 0 0 1 64 0)">
				<stop  offset="0" style="stop-color:#231815"/>
				<stop  offset="0.15" style="stop-color:#3E3A39"/>
				<stop  offset="0.4" style="stop-color:#3E3A39"/>
				<stop  offset="0.9" style="stop-color:#231815"/>
			</linearGradient>
			<path style="fill:url(#SVGID_12_);" d="M14.2004156,20.9864883c0,0-2.75,18.7635117-0.1875,24.8885117
				c0,0,0.166666,1.0625,1.520833,1.25s3.2349243,1,4.6695461,1l-1.2528801-29.1907082L14.2004156,20.9864883z"/>
			<path d="M20.4638672,48.375H20.203125c-0.8818359,0-1.8950195-0.2861328-2.8754883-0.5634766
				c-0.6635742-0.1875-1.2905273-0.3642578-1.828125-0.4384766c-1.2167969-0.1689453-1.6660156-1.0283203-1.7338867-1.4589844
				c-2.543457-6.0615234,0.074707-24.1948242,0.1870117-24.9638672l0.0205078-0.1381836l5.2114258-2.2514648L20.4638672,48.375z
				 M14.4277344,21.1601563c-0.2416992,1.7197266-2.5766602,18.9003906-0.1845703,24.6181641
				c0.0224609,0.0917969,0.1821289,0.9404297,1.324707,1.0986328c0.5717773,0.0791016,1.2148438,0.2617188,1.8959961,0.4541016
				c0.8476563,0.2392578,1.7211914,0.4863281,2.4780273,0.5351563l-1.2260742-28.5585938L14.4277344,21.1601563z"/>
		</g>
		
			<linearGradient id="SVGID_13_" gradientUnits="userSpaceOnUse" x1="48.5299759" y1="24.6156864" x2="48.5299759" y2="46.3184357" gradientTransform="matrix(-1 0 0 1 64 0)">
			<stop  offset="0" style="stop-color:#231815;stop-opacity:0"/>
			<stop  offset="1" style="stop-color:#231815"/>
		</linearGradient>
		<path style="fill:url(#SVGID_13_);" d="M15.8026676,24.6547279c-0.6493492,0.4365845-2.4098425,12.7887077-0.9736376,20.9137077
			l1.8311987,0.75c0,0-0.8942327-5.125-0.885643-12S16.4520168,24.2181435,15.8026676,24.6547279z"/>
		
			<linearGradient id="SVGID_14_" gradientUnits="userSpaceOnUse" x1="45.9618645" y1="31.47509" x2="45.9618645" y2="47.5803757" gradientTransform="matrix(-1 0 0 1 64 0)">
			<stop  offset="0" style="stop-color:#231815;stop-opacity:0"/>
			<stop  offset="1" style="stop-color:#231815"/>
		</linearGradient>
		<path style="fill:url(#SVGID_14_);" d="M17.291666,31.5c-0.6493492,0.3165112-1.1838207,9.3496399,0.2523823,15.2400322
			l1.8999596,0.8403435c0,0-0.8942318-3.715477-0.885643-8.6996536C18.5669556,33.8965454,17.9410152,31.1834888,17.291666,31.5z"/>
	</g>
	<g>
		<g>
			<linearGradient id="SVGID_15_" gradientUnits="userSpaceOnUse" x1="32" y1="1.3125" x2="32" y2="20.9864883">
				<stop  offset="0.4" style="stop-color:#F7F8F8"/>
				<stop  offset="1" style="stop-color:#C9CACA"/>
			</linearGradient>
			<path style="fill:url(#SVGID_15_);" d="M32,1.3125c-6.833313,0-16.666687,2.1111774-18,19.6739883
				c0,0,4.916687-3.0628777,18-3.0628777s18,3.0628777,18,3.0628777C48.666687,3.4236774,38.833313,1.3125,32,1.3125z"/>
			<path style="fill:#3E3A39;" d="M50.2861328,21.4580078l-0.4179688-0.2592773
				C49.8193359,21.168457,44.8349609,18.1738281,32,18.1738281c-12.8354492,0-17.8193359,2.9946289-17.8681641,3.0249023
				l-0.4179688,0.2587891l0.0366211-0.4902344C14.7675781,7.5732422,20.7373047,1.0625,32,1.0625
				c11.2636719,0,17.2324219,6.5107422,18.2490234,19.9047852L50.2861328,21.4580078z M32,17.6738281
				c11.0615234,0,16.2773438,2.1513672,17.7138672,2.8720703C48.6201172,7.7739258,42.8222656,1.5625,32,1.5625
				S15.3803711,7.7739258,14.2861328,20.5458984C15.7226563,19.8251953,20.9375,17.6738281,32,17.6738281z"/>
		</g>
		<radialGradient id="SVGID_16_" cx="32" cy="11.0765772" r="21.2507076" gradientUnits="userSpaceOnUse">
			<stop  offset="0.4" style="stop-color:#EFEFEF"/>
			<stop  offset="1" style="stop-color:#B5B5B6"/>
		</radialGradient>
		<path style="fill:url(#SVGID_16_);" d="M32,1.8333334c-6.3271408,0-15.4321175,1.983749-16.6666679,18.4864864
			c0,0,4.5524874-2.8780041,16.6666679-2.8780041s16.6666679,2.8780041,16.6666679,2.8780041
			C47.4321175,3.8170824,38.3271408,1.8333334,32,1.8333334z"/>
		<g>
			<linearGradient id="SVGID_17_" gradientUnits="userSpaceOnUse" x1="32" y1="0.375" x2="32" y2="9.6659546">
				<stop  offset="0.4" style="stop-color:#F7F8F8"/>
				<stop  offset="1" style="stop-color:#B5B5B6"/>
			</linearGradient>
			<path style="fill:url(#SVGID_17_);" d="M32,0.375c-3.625,0-3.8544312,0.75-3.8544312,9.2909546h7.7088623
				C35.8544312,1.125,35.625,0.375,32,0.375z"/>
			<path style="fill:#3E3A39;" d="M36.1044922,9.9160156h-8.2089844v-0.25C27.8955078,1.2026367,28.1240234,0.125,32,0.125
				s4.1044922,1.0776367,4.1044922,9.5410156V9.9160156z M28.3955078,9.4160156h7.2089844
				C35.5986328,0.8720703,35.2675781,0.625,32,0.625S28.4018555,0.8720703,28.3955078,9.4160156z"/>
		</g>
		<linearGradient id="SVGID_18_" gradientUnits="userSpaceOnUse" x1="32" y1="2.8422515" x2="32" y2="9.6659546">
			<stop  offset="0.0041152" style="stop-color:#EFEFEF"/>
			<stop  offset="1" style="stop-color:#9FA0A0"/>
		</linearGradient>
		<path style="fill:url(#SVGID_18_);" d="M32,2.8422515c-1.4881706,0-3.3991413,0.5508344-3.3991413,6.8237028h6.7982807
			C35.3991394,3.393086,33.4881706,2.8422515,32,2.8422515z"/>
		<g>
			
				<linearGradient id="SVGID_19_" gradientUnits="userSpaceOnUse" x1="14.9281006" y1="13.0163879" x2="49.0718994" y2="13.0163879">
				<stop  offset="0" style="stop-color:#F39800"/>
				<stop  offset="0.3" style="stop-color:#FAEE00"/>
				<stop  offset="0.7" style="stop-color:#FAEE00"/>
				<stop  offset="1" style="stop-color:#F39800"/>
			</linearGradient>
			<path style="fill:url(#SVGID_19_);" d="M15.2937012,13.5438843c-0.1293945,0.4364014-0.2519531,0.8862305-0.3656006,1.3536987
				C17.0307617,13.5026855,22.5326538,12.1351929,32,12.1351929c9.4675903,0,14.9692993,1.3673706,17.0718994,2.7623291
				c-0.1136475-0.4674683-0.2362061-0.9172974-0.3656006-1.3536377C45.6520996,12.0304565,39.7532959,11.1351929,32,11.1351929
				S18.3479004,12.0304565,15.2937012,13.5438843z"/>
			<path style="fill:#3E3A39;" d="M49.4667969,15.4594727l-0.5332031-0.3535156
				C47.9716797,14.4677734,43.9082031,12.3852539,32,12.3852539c-11.90625,0-15.9711914,2.0825195-16.9335938,2.7207031
				l-0.5322266,0.3530273l0.1513672-0.6206055c0.1147461-0.4716797,0.237793-0.925293,0.3686523-1.3657227l0.03125-0.1044922
				l0.0976563-0.0483398C18.3505859,11.75,24.3227539,10.8852539,32,10.8852539
				c7.6767578,0,13.6494141,0.8647461,16.8173828,2.4345703l0.0976563,0.0483398l0.0302734,0.1044922
				c0.1318359,0.4404297,0.2548828,0.894043,0.3701172,1.3652344L49.4667969,15.4594727z M15.5024414,13.7202148
				c-0.0629883,0.2143555-0.1235352,0.4321289-0.1826172,0.6538086C18.2329102,12.8085938,24.3696289,11.8852539,32,11.8852539
				c7.6308594,0,13.7675781,0.9233398,16.6806641,2.4882813c-0.0595703-0.2211914-0.1201172-0.4389648-0.1835938-0.6533203
				C45.3730469,12.2138672,39.5224609,11.3852539,32,11.3852539C24.4770508,11.3852539,18.6274414,12.2138672,15.5024414,13.7202148
				z"/>
		</g>
		<g>
			
				<linearGradient id="SVGID_20_" gradientUnits="userSpaceOnUse" x1="14.4833374" y1="15.0182495" x2="49.5166626" y2="15.0182495">
				<stop  offset="0" style="stop-color:#F39800"/>
				<stop  offset="0.3" style="stop-color:#FAEE00"/>
				<stop  offset="0.7" style="stop-color:#FAEE00"/>
				<stop  offset="1" style="stop-color:#F39800"/>
			</linearGradient>
			<path style="fill:url(#SVGID_20_);" d="M49.2458496,15.6707764C46.3866577,13.9797363,40.2421265,12.9678955,32,12.9678955
				s-14.3866577,1.0118408-17.2458496,2.7028809c-0.0977173,0.4517212-0.1879272,0.9177246-0.270813,1.3978271
				c1.6802979-1.5031738,7.282959-3.100708,17.5166626-3.100708c10.2339478,0,15.8363647,1.5974731,17.5166626,3.100647
				C49.4337769,16.588501,49.3435669,16.1224976,49.2458496,15.6707764z"/>
			<path style="fill:#3E3A39;" d="M14.1147461,17.7338867l0.1220703-0.7080078
				c0.0839844-0.4833984,0.1743164-0.9526367,0.2729492-1.4077148l0.0229492-0.1069336l0.09375-0.0556641
				C17.5683594,13.7158203,23.9003906,12.7177734,32,12.7177734s14.4316406,0.9980469,17.3730469,2.737793l0.0947266,0.0556641
				l0.0224609,0.1069336c0.0986328,0.4550781,0.1894531,0.9243164,0.2724609,1.4077148l0.1230469,0.7075195l-0.5361328-0.4785156
				C47.7832031,15.8535156,42.2998047,14.2177734,32,14.2177734c-10.300293,0-15.7836914,1.6357422-17.3500977,3.0371094
				L14.1147461,17.7338867z M32,13.7177734c9.5332031,0,14.9833984,1.3657227,17.1572266,2.7685547
				c-0.0429688-0.2211914-0.0869141-0.4399414-0.1328125-0.6547852C46.1171875,14.1694336,39.9257813,13.2177734,32,13.2177734
				s-14.1171875,0.9516602-17.0249023,2.6137695c-0.0454102,0.2148438-0.0893555,0.4331055-0.1318359,0.6547852
				C17.015625,15.0834961,22.4667969,13.7177734,32,13.7177734z"/>
		</g>
		<g>
			<g>
				<linearGradient id="SVGID_21_" gradientUnits="userSpaceOnUse" x1="32" y1="6.3043318" x2="32" y2="16.9307766">
					<stop  offset="0.4" style="stop-color:#3E3A39"/>
					<stop  offset="1" style="stop-color:#231815"/>
				</linearGradient>
				<path style="fill:url(#SVGID_21_);" d="M32,6.3043318c0,0-5.678484,1.6577549-5.678484,6.2818232
					c0,3.5384617,3.5414143,4.3446217,5.678484,4.3446217s5.6784821-0.80616,5.6784821-4.3446217
					C37.6784821,7.9620867,32,6.3043318,32,6.3043318z"/>
				<path style="fill:#231815;" d="M32,17.1806641c-2.8662109,0-5.9287109-1.2070313-5.9287109-4.5947266
					c0-4.7563477,5.800293-6.5043945,5.8588867-6.5214844L32,6.0439453l0.0698242,0.0205078
					c0.0585938,0.0170898,5.8588867,1.7651367,5.8588867,6.5214844C37.9287109,15.9736328,34.8662109,17.1806641,32,17.1806641z
					 M32,6.5664063c-0.6401367,0.2089844-5.4287109,1.9116211-5.4287109,6.0195313
					c0,3.8974609,4.5219727,4.0947266,5.4287109,4.0947266s5.4287109-0.1972656,5.4287109-4.0947266
					C37.4287109,8.4726563,32.6411133,6.7749023,32,6.5664063z"/>
			</g>
			<g>
				<linearGradient id="SVGID_22_" gradientUnits="userSpaceOnUse" x1="32" y1="11.6207466" x2="32" y2="15.8997583">
					<stop  offset="0.4" style="stop-color:#FAEE00"/>
					<stop  offset="1" style="stop-color:#F8B62D"/>
				</linearGradient>
				<path style="fill:url(#SVGID_22_);" d="M32,11.6207466c0,0-2,0.9447632-2,2.4447632s2,1.8342485,2,1.8342485
					s2-0.3342485,2-1.8342485S32,11.6207466,32,11.6207466z"/>
				<path style="fill:#736B00;" d="M32,16.1533203l-0.0410156-0.0068359C31.8686523,16.1313477,29.75,15.7578125,29.75,14.0654297
					c0-1.6396484,2.0556641-2.6293945,2.1430664-2.6708984L32,11.3442383l0.1069336,0.050293
					C32.1943359,11.4360352,34.25,12.4257813,34.25,14.0654297c0,1.6923828-2.1186523,2.065918-2.2089844,2.0810547L32,16.1533203z
					 M32,11.9018555c-0.3955078,0.2138672-1.75,1.0288086-1.75,2.1635742c0,1.1591797,1.480957,1.5234375,1.75,1.5795898
					c0.269043-0.0561523,1.75-0.4204102,1.75-1.5795898C33.75,12.9306641,32.3955078,12.1157227,32,11.9018555z"/>
			</g>
			<g>
				
					<linearGradient id="SVGID_23_" gradientUnits="userSpaceOnUse" x1="34.0350266" y1="11.6144152" x2="34.0350266" y2="14.6772203">
					<stop  offset="0.4" style="stop-color:#FAEE00"/>
					<stop  offset="1" style="stop-color:#F8B62D"/>
				</linearGradient>
				<path style="fill:url(#SVGID_23_);" d="M32,11.6144152c-0.0603771,0.0103846,1.5085335,1.6935291,4.0717354,1.2873316
					c0,0-0.2610664,2.0385828-1.9892693,1.7469158C32.3542633,14.3569965,32,11.6144152,32,11.6144152z"/>
				<path style="fill:#736B00;" d="M34.4091797,14.9272461c-0.1162109,0-0.2382813-0.0102539-0.3691406-0.0322266
					c-1.7504883-0.2954102-2.2084961-2.7329102-2.2792969-3.1889648l-0.0400391-0.0737305l0.0219727-0.0522461l-0.1811523-1.2836914
					l0.5678711,1.0410156l0.0844727-0.0151367l0.0273438,0.2084961c0.2011719,0.2324219,1.328125,1.1845703,3.0380859,1.1845703
					c0.2480469,0,0.5009766-0.0205078,0.7529297-0.0605469l0.3291016-0.0522461l-0.0419922,0.3310547
					C36.2314453,13.6230469,35.71875,14.9272461,34.4091797,14.9272461z M32.4111328,12.3164063
					c0.2236328,0.7768555,0.7177734,1.9174805,1.7128906,2.0854492c1.0537109,0.1811523,1.4785156-0.7041016,1.6259766-1.2080078
					c-0.1582031,0.0141602-0.3154297,0.0214844-0.4707031,0.0214844C33.9804688,13.215332,33,12.7319336,32.4111328,12.3164063z"/>
			</g>
			<g>
				
					<linearGradient id="SVGID_24_" gradientUnits="userSpaceOnUse" x1="34.0824661" y1="10.5825806" x2="34.0824661" y2="13.2706127">
					<stop  offset="0.4" style="stop-color:#FAEE00"/>
					<stop  offset="1" style="stop-color:#F8B62D"/>
				</linearGradient>
				<path style="fill:url(#SVGID_24_);" d="M35.5053062,10.5825806c0,0-0.8429413,2.1568346-3.5053062,1.0318346
					c0,0,0.8875694,1.6561975,2.5884666,1.6561975S36.6440659,11.509078,35.5053062,10.5825806z"/>
				<path style="fill:#736B00;" d="M34.5888672,13.5205078c-1.8295898,0-2.7700195-1.715332-2.809082-1.7880859
					l-0.3344727-0.6240234l0.6518555,0.2753906c0.4794922,0.2026367,0.9272461,0.3056641,1.3295898,0.3056641
					c1.3515625-0.0004883,1.8261719-1.1499023,1.8457031-1.1987305l0.1259766-0.315918l0.2646484,0.2138672
					c0.6435547,0.5234375,0.9082031,1.3466797,0.6582031,2.0493164
					C36.0810547,13.1157227,35.4326172,13.5205078,34.5888672,13.5205078z M32.6713867,12.0981445
					c0.3950195,0.4262695,1.0424805,0.9223633,1.9174805,0.9223633c0.6328125,0,1.0927734-0.2734375,1.2617188-0.75
					c0.1484375-0.4165039,0.0351563-0.8999023-0.2802734-1.2753906c-0.2773438,0.4458008-0.9248047,1.1938477-2.1435547,1.1943359
					C33.1855469,12.1894531,32.9331055,12.1586914,32.6713867,12.0981445z"/>
			</g>
			<g>
				<linearGradient id="SVGID_25_" gradientUnits="userSpaceOnUse" x1="33.6172676" y1="9.1144152" x2="33.6172676" y2="12.050745">
					<stop  offset="0.4" style="stop-color:#FAEE00"/>
					<stop  offset="1" style="stop-color:#F8B62D"/>
				</linearGradient>
				<path style="fill:url(#SVGID_25_);" d="M32,11.6144152c0,0,2.1077042-1.041666,2.1446838-2.5
					c0,0,1.3278427,0.791667,1.0521812,1.833334C34.9212074,11.9894152,33.4458961,12.4600916,32,11.6144152z"/>
				<path style="fill:#736B00;" d="M33.5058594,12.3007813c-0.5415039,0-1.1054688-0.1630859-1.6318359-0.4707031
					l-0.4003906-0.2338867l0.4155273-0.2060547c0.0195313-0.0097656,1.972168-0.9931641,2.0053711-2.2822266l0.0107422-0.4272461
					l0.3671875,0.21875c0.0605469,0.0366211,1.4863281,0.9023438,1.1660156,2.1123047
					C35.2314453,11.7949219,34.4726563,12.3007813,33.5058594,12.3007813z M32.5317383,11.5991211
					c0.324707,0.1328125,0.6557617,0.2016602,0.9741211,0.2016602c0.7324219,0,1.3017578-0.3603516,1.4501953-0.9169922
					c0.1464844-0.5551758-0.2998047-1.0488281-0.6269531-1.3242188
					C34.0693359,10.5175781,33.1005859,11.2441406,32.5317383,11.5991211z"/>
			</g>
			<g>
				
					<linearGradient id="SVGID_26_" gradientUnits="userSpaceOnUse" x1="34.0350266" y1="11.6144152" x2="34.0350266" y2="14.6772203" gradientTransform="matrix(-1 0 0 1 64 0)">
					<stop  offset="0.4" style="stop-color:#FAEE00"/>
					<stop  offset="1" style="stop-color:#F8B62D"/>
				</linearGradient>
				<path style="fill:url(#SVGID_26_);" d="M32,11.6144152c0.0603752,0.0103846-1.5085354,1.6935291-4.0717373,1.2873316
					c0,0,0.2610683,2.0385828,1.9892712,1.7469158C31.6457386,14.3569965,32,11.6144152,32,11.6144152z"/>
				<path style="fill:#736B00;" d="M29.590332,14.9272461c-1.3085938,0-1.8217773-1.3041992-1.9101563-1.9936523
					l-0.0424805-0.3310547l0.3295898,0.0522461c0.2519531,0.0400391,0.5053711,0.0605469,0.753418,0.0605469
					c1.6933594-0.0004883,2.8149414-0.934082,3.0385742-1.1884766l0.0268555-0.2041016l0.0854492,0.0146484l0.5742188-1.0527344
					l-0.1870117,1.2885742l0.0234375,0.0493164l-0.0424805,0.0810547c-0.0698242,0.4506836-0.5268555,2.8955078-2.2807617,3.1914063
					C29.8291016,14.9169922,29.7060547,14.9272461,29.590332,14.9272461z M28.2475586,13.1933594
					c0.1450195,0.5043945,0.5581055,1.3862305,1.628418,1.2084961c0.9951172-0.1679688,1.4892578-1.309082,1.7128906-2.0859375
					C31,12.7319336,30.019043,13.2148438,28.7207031,13.215332C28.5644531,13.215332,28.40625,13.2080078,28.2475586,13.1933594z"/>
			</g>
			<g>
				
					<linearGradient id="SVGID_27_" gradientUnits="userSpaceOnUse" x1="34.0824661" y1="10.5825806" x2="34.0824661" y2="13.2706127" gradientTransform="matrix(-1 0 0 1 64 0)">
					<stop  offset="0.4" style="stop-color:#FAEE00"/>
					<stop  offset="1" style="stop-color:#F8B62D"/>
				</linearGradient>
				<path style="fill:url(#SVGID_27_);" d="M28.4946938,10.5825806c0,0,0.8429413,2.1568346,3.5053062,1.0318346
					c0,0-0.8875713,1.6561975-2.5884686,1.6561975S27.3559361,11.509078,28.4946938,10.5825806z"/>
				<path style="fill:#736B00;" d="M29.4116211,13.5205078c-0.8442383,0-1.4921875-0.4047852-1.7333984-1.0825195
					c-0.2495117-0.7021484,0.0151367-1.5258789,0.6586914-2.0493164l0.2636719-0.2148438l0.1264648,0.3168945
					c0.0195313,0.0488281,0.4941406,1.1987305,1.8457031,1.1987305c0.402832,0,0.8505859-0.1030273,1.3300781-0.3056641
					l0.6518555-0.2753906l-0.3344727,0.6240234C32.1811523,11.8051758,31.2407227,13.5205078,29.4116211,13.5205078z
					 M28.4296875,10.9951172c-0.3154297,0.3759766-0.4282227,0.8588867-0.2802734,1.2753906
					c0.1694336,0.4765625,0.6293945,0.75,1.262207,0.75c0.875,0,1.5224609-0.4960938,1.9169922-0.9223633
					c-0.2617188,0.0605469-0.5146484,0.0913086-0.7558594,0.0913086
					C29.3540039,12.1894531,28.7070313,11.440918,28.4296875,10.9951172z"/>
			</g>
			<g>
				
					<linearGradient id="SVGID_28_" gradientUnits="userSpaceOnUse" x1="33.6172676" y1="9.1144152" x2="33.6172676" y2="12.050745" gradientTransform="matrix(-1 0 0 1 64 0)">
					<stop  offset="0.4" style="stop-color:#FAEE00"/>
					<stop  offset="1" style="stop-color:#F8B62D"/>
				</linearGradient>
				<path style="fill:url(#SVGID_28_);" d="M32,11.6144152c0,0-2.1077061-1.041666-2.1446819-2.5
					c0,0-1.3278446,0.791667-1.0521851,1.833334C29.0787945,11.9894152,30.5541039,12.4600916,32,11.6144152z"/>
				<path style="fill:#736B00;" d="M30.4946289,12.3007813L30.4946289,12.3007813
					c-0.9672852,0-1.7260742-0.5063477-1.9331055-1.2890625c-0.3203125-1.2099609,1.1049805-2.0756836,1.1660156-2.1123047
					l0.3671875-0.21875l0.0107422,0.4272461c0.0322266,1.2924805,1.9853516,2.2724609,2.0053711,2.2822266l0.4160156,0.2055664
					l-0.4003906,0.234375C31.6000977,12.1376953,31.0356445,12.3007813,30.4946289,12.3007813z M29.6704102,9.5595703
					c-0.3266602,0.2753906-0.7724609,0.769043-0.6254883,1.3242188c0.1474609,0.5571289,0.7163086,0.9169922,1.449707,0.9169922l0,0
					c0.3183594,0,0.6489258-0.0688477,0.9736328-0.2016602C30.8994141,11.2441406,29.9301758,10.5175781,29.6704102,9.5595703z"/>
			</g>
			<g>
				<linearGradient id="SVGID_29_" gradientUnits="userSpaceOnUse" x1="32" y1="7.3354034" x2="32" y2="11.6207466">
					<stop  offset="0.4" style="stop-color:#FAEE00"/>
					<stop  offset="1" style="stop-color:#F8B62D"/>
				</linearGradient>
				<path style="fill:url(#SVGID_29_);" d="M32,7.3354034c0,0-2,0.9447632-2,2.4447632s2,1.84058,2,1.84058s2-0.34058,2-1.84058
					S32,7.3354034,32,7.3354034z"/>
				<path style="fill:#736B00;" d="M32,11.8740234l-0.0419922-0.0068359C31.8676758,11.8515625,29.75,11.4716797,29.75,9.7802734
					c0-1.6396484,2.0556641-2.6293945,2.1430664-2.6708984L32,7.059082l0.1069336,0.050293
					C32.1943359,7.1508789,34.25,8.140625,34.25,9.7802734c0,1.6914063-2.1176758,2.0712891-2.2080078,2.0869141L32,11.8740234z
					 M32,7.6166992c-0.3955078,0.2138672-1.75,1.0288086-1.75,2.1635742c0,1.1630859,1.4785156,1.5283203,1.7495117,1.5854492
					C32.2700195,11.3081055,33.75,10.9394531,33.75,9.7802734C33.75,8.6455078,32.3955078,7.8305664,32,7.6166992z"/>
			</g>
			<g>
				<linearGradient id="SVGID_30_" gradientUnits="userSpaceOnUse" x1="32" y1="10.1192179" x2="32" y2="14.6772203">
					<stop  offset="0.4" style="stop-color:#FAEE00"/>
					<stop  offset="1" style="stop-color:#F8B62D"/>
				</linearGradient>
				<circle style="fill:url(#SVGID_30_);" cx="32" cy="12.3982191" r="2.2790015"/>
				<path style="fill:#736B00;" d="M32,14.9272461c-1.3945313,0-2.5288086-1.1342773-2.5288086-2.5288086
					S30.6054688,9.8691406,32,9.8691406s2.5292969,1.1347656,2.5292969,2.5292969S33.3945313,14.9272461,32,14.9272461z
					 M32,10.3691406c-1.1186523,0-2.0288086,0.9101563-2.0288086,2.0292969c0,1.1186523,0.9101563,2.0288086,2.0288086,2.0288086
					c1.1191406,0,2.0292969-0.9101563,2.0292969-2.0288086C34.0292969,11.2792969,33.1191406,10.3691406,32,10.3691406z"/>
			</g>
		</g>
		<g>
			
				<radialGradient id="SVGID_31_" cx="32" cy="19.5352898" r="17.6257286" gradientTransform="matrix(1.0240346 0 0 1 -0.769108 0)" gradientUnits="userSpaceOnUse">
				<stop  offset="0.4" style="stop-color:#EFEFEF"/>
				<stop  offset="1" style="stop-color:#B5B5B6"/>
			</radialGradient>
			<path style="fill:url(#SVGID_31_);" d="M49.9398575,20.0537109C48.6940002,18.8401489,46.9310036,17.5647583,32,17.5647583
				s-16.6940022,1.2753906-17.9398575,2.4889526c-1.2457924,1.213562-0.6495848,1.6200562,0.3862629,1.3912964
				S16.1307125,18.9342918,32,18.9342918s16.517746,2.2819557,17.5535927,2.5107155S51.1856499,21.2672729,49.9398575,20.0537109z"
				/>
			<path style="fill:#3E3A39;" d="M50.0517578,21.7558594L50.0517578,21.7558594
				c-0.1660156,0-0.3515625-0.0224609-0.5517578-0.0668945c-0.2138672-0.046875-0.4013672-0.1577148-0.6376953-0.2983398
				C47.7451172,20.7304688,45.1298828,19.184082,32,19.184082c-13.1303711,0-15.7451172,1.5463867-16.8618164,2.206543
				C14.9008789,21.53125,14.7133789,21.6420898,14.5,21.6889648c-0.2001953,0.0444336-0.3857422,0.0668945-0.5517578,0.0668945
				c-0.5507813,0-0.7353516-0.2519531-0.7963867-0.4018555c-0.1499023-0.3686523,0.090332-0.8525391,0.7338867-1.4794922
				C15.0566406,18.734375,16.5141602,17.3149414,32,17.3149414c15.4873047,0,16.9433594,1.4194336,18.1142578,2.5595703
				c0.6435547,0.6274414,0.8837891,1.1113281,0.734375,1.4794922
				C50.7871094,21.5043945,50.6025391,21.7558594,50.0517578,21.7558594z M32,18.684082
				c13.2666016,0,15.9648438,1.5952148,17.1162109,2.2763672c0.2070313,0.1220703,0.3564453,0.2104492,0.4912109,0.2402344
				c0.1650391,0.0366211,0.3144531,0.0551758,0.4443359,0.0551758l0,0c0.2177734,0,0.3183594-0.0537109,0.3330078-0.0898438
				c0.0009766-0.0024414,0.0878906-0.2441406-0.6201172-0.9331055C48.6591797,19.1557617,47.2841797,17.8149414,32,17.8149414
				c-15.2822266,0-16.6591797,1.3408203-17.765625,2.4179688c-0.7070313,0.6889648-0.6206055,0.9306641-0.6196289,0.9326172
				c0.0239258,0.0581055,0.3334961,0.1323242,0.7773438,0.0351563c0.1357422-0.0297852,0.2851563-0.1181641,0.4916992-0.2402344
				C16.0356445,20.2792969,18.7329102,18.684082,32,18.684082z"/>
		</g>
	</g>
</g>
<g>
	<g>
		
			<linearGradient id="SVGID_32_" gradientUnits="userSpaceOnUse" x1="33.0483246" y1="29.7362881" x2="38.5066986" y2="29.7362881" gradientTransform="matrix(0.7085599 0.7056507 -0.7056507 0.7085599 39.953598 14.6437254)">
			<stop  offset="0" style="stop-color:#595757"/>
			<stop  offset="1" style="stop-color:#231815"/>
		</linearGradient>
		<polygon style="fill:url(#SVGID_32_);" points="48.6917648,52.7033653 36.0820084,65.3651123 43.7854805,65.3651123 
			52.5593491,56.555069 		"/>
		<path style="fill:#231815;" d="M43.8886719,65.6152344h-8.4082031l13.2099609-13.265625l4.2226563,4.2041016
			L43.8886719,65.6152344z M36.6835938,65.1152344h6.9980469l8.5244141-8.5595703l-3.5136719-3.4990234L36.6835938,65.1152344z"/>
	</g>
	<path style="fill:#231815;" d="M53.6030884,56.215332l2.5421371-2.5526123l-4.5758858-4.5570984l-2.5421371,2.5526161
		c-0.5825577-0.2135582-1.0237312-0.1746712-1.3131599,0.1159477l-0.6925545,0.6954117
		c-0.8069496,0.8102798,0.462925,2.6482887,1.7956276,3.9755173s3.1759224,2.5895348,3.982872,1.7792587l0.6925545-0.6954155
		C53.781971,57.2383385,53.8190422,56.7970085,53.6030884,56.215332z"/>
	
		<linearGradient id="SVGID_33_" gradientUnits="userSpaceOnUse" x1="32.1996651" y1="21.8484497" x2="39.3553581" y2="21.8484497" gradientTransform="matrix(0.7085599 0.7056507 -0.7056507 0.7085599 39.953598 14.6437254)">
		<stop  offset="0" style="stop-color:#C9CACA"/>
		<stop  offset="1" style="stop-color:#3E3A39"/>
	</linearGradient>
	<path style="fill:url(#SVGID_33_);" d="M48.0682182,52.1268196l-0.6928978,0.695755
		c-0.4088516,0.4105377,0.3946915,1.8736877,1.7948151,3.2680626c1.4001274,1.3943787,2.8665695,2.1918945,3.2754211,1.7813568
		l0.6928978-0.695755L48.0682182,52.1268196z"/>
	
		<linearGradient id="SVGID_34_" gradientUnits="userSpaceOnUse" x1="32.1996651" y1="20.8329315" x2="39.3553581" y2="20.8329315" gradientTransform="matrix(0.7085599 0.7056507 -0.7056507 0.7085599 39.953598 14.6437254)">
		<stop  offset="0" style="stop-color:#9FA0A0"/>
		<stop  offset="1" style="stop-color:#3E3A39"/>
	</linearGradient>
	<path style="fill:url(#SVGID_34_);" d="M53.1384544,57.176239c-0.4088554,0.4105415-1.8753128-0.3869972-3.2754211-1.7813568
		c-1.4001045-1.3943558-2.2036743-2.8575172-1.7948151-3.2680626c0.4088593-0.4105415,1.8753128,0.3869972,3.2754211,1.7813568
		C52.7437477,55.3025322,53.5473137,56.7656975,53.1384544,57.176239z"/>
	
		<linearGradient id="SVGID_35_" gradientUnits="userSpaceOnUse" x1="33.0483246" y1="18.9964466" x2="38.5066986" y2="18.9964466" gradientTransform="matrix(0.7085599 0.7056507 -0.7056507 0.7085599 39.953598 14.6437254)">
		<stop  offset="0" style="stop-color:#595757"/>
		<stop  offset="1" style="stop-color:#231815"/>
	</linearGradient>
	<path style="fill:url(#SVGID_35_);" d="M51.5705109,49.812748l-2.7121925,2.7233772
		c-0.2749825,0.2761154,0.367897,1.3622131,1.4358826,2.4258156c1.0679855,1.0635986,2.1567192,1.7020035,2.4317017,1.4258881
		l2.7121964-2.7233734L51.5705109,49.812748z"/>
	<path style="fill:#231815;" d="M59.0690346,46.1509285c-1.1842766-1.1794128-3.4372902-2.9256325-4.368969-1.9901123
		l-0.9592438,0.9631996c-0.2218933,0.2228088-0.2999611,0.5406151-0.233181,0.946167l-1.8493958,2.6167908
		c-0.4601364-0.1178246-0.8176994-0.0521812-1.0650902,0.1962318l-0.6932487,0.696106
		c-0.8069496,0.810276,0.4636192,2.6475945,1.7963181,3.974823c1.3327026,1.3272285,3.1752319,2.5902252,3.9821815,1.7799492
		l0.6932487-0.696106c0.2473907-0.2484093,0.3115654-0.6062393,0.1918488-1.0658875l2.6091576-1.8601456
		c0.4058228,0.0651093,0.7233086-0.0142632,0.9452019-0.237072l0.9592438-0.9631996
		C62.0087852,49.5761528,60.2533112,47.3303452,59.0690346,46.1509285z"/>
	
		<linearGradient id="SVGID_36_" gradientUnits="userSpaceOnUse" x1="32.1996651" y1="17.7688828" x2="39.3553581" y2="17.7688828" gradientTransform="matrix(0.7085599 0.7056507 -0.7056507 0.7085599 39.953598 14.6437254)">
		<stop  offset="0" style="stop-color:#C9CACA"/>
		<stop  offset="1" style="stop-color:#3E3A39"/>
	</linearGradient>
	<path style="fill:url(#SVGID_36_);" d="M50.9469681,49.2362022l-0.6928978,0.695755
		c-0.4088516,0.4105377,0.3946877,1.8736877,1.7948151,3.2680626c1.4001236,1.3943787,2.8665695,2.1918945,3.2754211,1.7813568
		l0.6928978-0.695755L50.9469681,49.2362022z"/>
	
		<linearGradient id="SVGID_37_" gradientUnits="userSpaceOnUse" x1="32.1996651" y1="16.7533665" x2="39.3553581" y2="16.7533665" gradientTransform="matrix(0.7085599 0.7056507 -0.7056507 0.7085599 39.953598 14.6437254)">
		<stop  offset="0" style="stop-color:#9FA0A0"/>
		<stop  offset="1" style="stop-color:#3E3A39"/>
	</linearGradient>
	<path style="fill:url(#SVGID_37_);" d="M56.0172043,54.2856216c-0.4088593,0.4105453-1.8753128-0.3869972-3.2754211-1.781353
		c-1.4001083-1.3943596-2.2036743-2.8575211-1.7948151-3.2680664c0.4088554-0.4105415,1.8753128,0.3869972,3.2754173,1.7813568
		C55.6224937,52.4119186,56.4260597,53.8750801,56.0172043,54.2856216z"/>
	
		<linearGradient id="SVGID_38_" gradientUnits="userSpaceOnUse" x1="32.1941986" y1="14.6506901" x2="39.3608246" y2="14.6506901" gradientTransform="matrix(0.7085599 0.7056507 -0.7056507 0.7085599 39.953598 14.6437254)">
		<stop  offset="0" style="stop-color:#898989"/>
		<stop  offset="1" style="stop-color:#231815"/>
	</linearGradient>
	<path style="fill:url(#SVGID_38_);" d="M54.1870766,45.974987l-2.6583443,3.7616501c0,0,0.1121559,0.7435913,1.6768799,2.3018913
		c1.5647202,1.5582962,2.3087692,1.6673927,2.3087692,1.6673927l3.750679-2.6737976L54.1870766,45.974987z"/>
	
		<linearGradient id="SVGID_39_" gradientUnits="userSpaceOnUse" x1="31.7775097" y1="11.7750072" x2="39.7775116" y2="11.7750072" gradientTransform="matrix(0.7085599 0.7056507 -0.7056507 0.7085599 39.953598 14.6437254)">
		<stop  offset="0" style="stop-color:#C9CACA"/>
		<stop  offset="1" style="stop-color:#3E3A39"/>
	</linearGradient>
	<path style="fill:url(#SVGID_39_);" d="M55.054203,44.5137863l-0.9590988,0.9630508
		c-0.4570923,0.4589767,0.4412613,2.0947685,2.006588,3.6536674s3.2047997,2.4505157,3.6618919,1.991539l0.959095-0.9630508
		L55.054203,44.5137863z"/>
	
		<linearGradient id="SVGID_40_" gradientUnits="userSpaceOnUse" x1="31.7775097" y1="10.5089788" x2="39.7775116" y2="10.5089788" gradientTransform="matrix(0.7085599 0.7056507 -0.7056507 0.7085599 39.953598 14.6437254)">
		<stop  offset="0" style="stop-color:#9FA0A0"/>
		<stop  offset="1" style="stop-color:#3E3A39"/>
	</linearGradient>
	<path style="fill:url(#SVGID_40_);" d="M60.7226791,50.1589928c-0.4570961,0.4589844-2.0965805-0.4326591-3.6618881-1.991539
		s-2.4636879-3.1946831-2.006588-3.6536674c0.4570961-0.4589844,2.0965805,0.4326591,3.6618881,1.991539
		S61.1797791,49.7000084,60.7226791,50.1589928z"/>
	
		<linearGradient id="SVGID_41_" gradientUnits="userSpaceOnUse" x1="32.9650116" y1="10.4316254" x2="38.5900116" y2="10.4316254" gradientTransform="matrix(0.7085599 0.7056507 -0.7056507 0.7085599 39.953598 14.6437254)">
		<stop  offset="0" style="stop-color:#231815"/>
		<stop  offset="1" style="stop-color:#3E3A39"/>
	</linearGradient>
	<path style="fill:url(#SVGID_41_);" d="M59.9358521,49.2662239c-0.2253075,0.2262344-1.3001747-0.47892-2.4007797-1.5750084
		c-1.1006088-1.0960884-1.8101768-2.1680412-1.5848694-2.3942795c0.2253036-0.2262344,1.3001709,0.47892,2.4007759,1.5750084
		C59.4515877,47.9680328,60.1611557,49.0399857,59.9358521,49.2662239z"/>
</g>
</svg>
