<?xml version="1.0" encoding="utf-8"?>
<!-- Generator: Adobe Illustrator 15.0.2, SVG Export Plug-In . SVG Version: 6.00 Build 0)  -->
<!DOCTYPE svg PUBLIC "-//W3C//DTD SVG 1.1//EN" "http://www.w3.org/Graphics/SVG/1.1/DTD/svg11.dtd">
<svg version="1.1" id="レイヤー_1" xmlns="http://www.w3.org/2000/svg" xmlns:xlink="http://www.w3.org/1999/xlink" x="0px"
	 y="0px" width="64px" height="64px" viewBox="0 0 64 64" enable-background="new 0 0 64 64" xml:space="preserve">
<g>
	<g>
		<g>
			<path fill="#FFB743" d="M41.877,30.485c0,0-1.294,3.283-3.09,5.533c-5.96,7.468-5.225,11.813-7.912,10.438
				c-2.154,0.377-3.06-3.063-1.41-4.463c0,0,0.701-0.975,1.535-1.641c3.112-2.183,6-4.906,7.974-7.923
				C38.974,32.429,39.935,29.979,41.877,30.485z"/>
			<path fill="#604C3F" d="M31.734,46.834c-0.256,0-0.544-0.081-0.879-0.248c-0.951,0.146-1.783-0.419-2.166-1.461
				c-0.355-0.968-0.29-2.391,0.695-3.228c0.009-0.018,0.7-0.974,1.538-1.643c3.366-2.361,6.112-5.089,7.947-7.894
				c0.021-0.063,0.828-2.069,2.487-2.069c0.181,0,0.366,0.024,0.552,0.073l0.137,0.036l-0.052,0.131
				c-0.013,0.033-1.321,3.326-3.108,5.565c-2.717,3.403-4.048,6.178-4.929,8.014C33.113,45.866,32.649,46.833,31.734,46.834
				C31.734,46.834,31.734,46.834,31.734,46.834z M30.895,46.326l0.038,0.019c0.314,0.161,0.577,0.239,0.802,0.239
				c0.758-0.001,1.198-0.918,1.997-2.582c0.886-1.846,2.225-4.636,4.959-8.062c1.559-1.952,2.751-4.725,3.016-5.366
				c-0.117-0.022-0.234-0.033-0.349-0.033c-1.488,0-2.259,1.914-2.267,1.934c-1.863,2.854-4.632,5.605-8.018,7.98
				c-0.805,0.643-1.499,1.602-1.505,1.611c-0.914,0.78-0.969,2.083-0.643,2.973c0.345,0.94,1.086,1.438,1.93,1.294L30.895,46.326z"
				/>
		</g>
		<g>
			<path fill="#050C33" d="M40.399,60.565l-1.144-13.047l0.282-2.928c3.79,0.912,8.065,0.704,11.389,0.267l0.135,2.661
				l-0.383,13.127c1.743,0.585,1.177,3.04,1.177,3.04H50.59h-3.834l-1-15.667l-0.893-0.167l-1,15.834h-3.19h-3.917
				C35.254,59.124,38.244,59.688,40.399,60.565z"/>
			<path fill="#604C3F" d="M51.955,63.811h-5.316l-0.008-0.117l-0.993-15.569L44.979,48L43.98,63.811h-7.315l-0.028-0.086
				c-0.513-1.559-0.545-2.665-0.094-3.288c0.561-0.774,1.844-0.791,3.714-0.063l-1.126-12.845l0.297-3.094l0.14,0.034
				c3.099,0.746,7.021,0.834,11.343,0.264l0.135-0.018l0.142,2.797l-0.38,13.046c1.723,0.665,1.177,3.13,1.171,3.155L51.955,63.811z
				 M46.873,63.561h4.879c0.078-0.448,0.312-2.318-1.113-2.797l-0.088-0.029l0.003-0.093l0.383-13.127l-0.128-2.516
				c-4.236,0.546-8.087,0.462-11.16-0.254L39.38,47.53l1.162,13.229l-0.189-0.077c-1.834-0.748-3.106-0.792-3.607-0.099
				c-0.393,0.544-0.358,1.545,0.102,2.978h6.899l1.001-15.857l1.127,0.21l0.007,0.098L46.873,63.561z"/>
		</g>
		<g>
			<path fill="#FFB743" d="M50.357,30.89c0,0,2.2-0.405,3.851,6.252c1.651,6.656,1.746,11.094,0.445,11.556
				c-1.3,0.462-2.834,2.688-3.841-0.581c0,0-1.732-0.917-0.201-2.238c2.853-1.182,2.151-10.067,0.529-11.6
				C51.141,34.279,48.685,32.001,50.357,30.89z"/>
			<path fill="#604C3F" d="M52.251,49.992c-0.668,0-1.159-0.569-1.543-1.791c-0.175-0.104-0.777-0.502-0.848-1.12
				c-0.049-0.435,0.177-0.871,0.669-1.297l0.034-0.021c1.003-0.416,1.457-1.822,1.66-2.928c0.595-3.23-0.154-7.508-1.169-8.466
				c-0.061-0.056-1.496-1.402-1.401-2.577c0.033-0.411,0.247-0.749,0.635-1.007l0.047-0.019c0,0,0.033-0.007,0.097-0.007
				c0.545,0,2.437,0.458,3.897,6.352c1.64,6.606,1.783,11.2,0.366,11.704c-0.296,0.104-0.605,0.306-0.933,0.519
				C53.267,49.658,52.754,49.992,52.251,49.992z M50.679,45.986c-0.417,0.364-0.608,0.723-0.569,1.066
				c0.065,0.579,0.755,0.95,0.762,0.954l0.046,0.024l0.015,0.049c0.345,1.118,0.776,1.662,1.319,1.662
				c0.429,0,0.91-0.313,1.375-0.616c0.325-0.212,0.662-0.431,0.985-0.546c1.021-0.362,1.292-4.086-0.524-11.407
				c-1.502-6.059-3.417-6.178-3.686-6.162c-0.309,0.213-0.473,0.476-0.499,0.802c-0.085,1.054,1.31,2.362,1.323,2.375
				c1.155,1.092,1.807,5.641,1.244,8.693C52.164,44.543,51.545,45.616,50.679,45.986z"/>
		</g>
		<g>
			<path fill="#050505" d="M38.188,33.112c1.359-2.696,2.719-2.696,2.719-2.696l2.758-0.776h3.76l2.773,0.778
				c0.271,0.034,1.458,0.315,2.99,2.507l-2.594,2.094l-0.411-0.452l0.744,10.291c-3.323,0.438-7.599,0.646-11.389-0.267
				l1.243-10.822l-0.469,1.125C38.844,34.331,38.188,33.112,38.188,33.112z"/>
			<path fill="#604C3F" d="M45.536,45.355c-2.227,0-4.254-0.217-6.027-0.644l-0.107-0.025l1.154-10.053l-0.175,0.42l-0.113-0.043
				c-1.495-0.573-2.162-1.788-2.19-1.839l-0.03-0.058l0.029-0.059c1.308-2.592,2.628-2.754,2.811-2.764l2.777-0.777l3.794,0.005
				l2.773,0.778c0.313,0.038,1.514,0.346,3.059,2.555l0.066,0.096l-2.776,2.241l-0.247-0.271l0.727,10.048l-0.116,0.016
				C49.058,45.229,47.238,45.355,45.536,45.355z M39.675,44.495c3.054,0.716,6.895,0.799,11.119,0.254l-0.762-10.534l0.575,0.633
				l2.41-1.946c-1.491-2.092-2.622-2.333-2.836-2.359l-2.775-0.777h-3.725l-2.775,0.776c-0.012,0-1.287,0.049-2.576,2.566
				c0.143,0.232,0.757,1.14,1.914,1.624l0.763-1.829L39.675,44.495z"/>
		</g>
	</g>
	<g>
		<g>
			<path fill="#231815" d="M49.511,4.107c0,0,5.239-0.999,8.364,5.394s-0.445,13.877-3.91,15.51L49.511,4.107z"/>
			<path fill="#604C3F" d="M53.875,25.191l-0.032-0.154l-4.48-21.028l0.125-0.024c0.013-0.002,0.314-0.059,0.815-0.059
				c1.499,0,5.249,0.538,7.685,5.521c1.98,4.05,1.11,7.972,0.416,9.949c-0.951,2.707-2.632,4.902-4.385,5.729L53.875,25.191z
				 M49.661,4.212l4.393,20.615c1.621-0.841,3.224-2.983,4.113-5.515c0.682-1.94,1.536-5.788-0.404-9.756
				c-2.374-4.855-6.008-5.38-7.46-5.38C50.012,4.176,49.79,4.196,49.661,4.212z"/>
		</g>
		<g>
			<path fill="#FFB743" d="M36.479,19.034c0,0-2.067-3.086-2.607,0.901s2.278,5.036,2.816,3.534"/>
			<path fill="#604C3F" d="M35.794,24.249c-0.102,0-0.206-0.013-0.314-0.039c-0.899-0.22-2.104-1.543-1.731-4.291
				c0.177-1.306,0.528-2.003,1.075-2.129c0.836-0.196,1.724,1.12,1.76,1.175l-0.207,0.139c-0.229-0.341-0.941-1.201-1.497-1.071
				c-0.421,0.098-0.727,0.761-0.883,1.919c-0.35,2.584,0.731,3.817,1.543,4.015c0.479,0.115,0.871-0.092,1.031-0.54l0.236,0.084
				C36.639,23.979,36.257,24.249,35.794,24.249z"/>
		</g>
		<g>
			<path fill="#FFB743" d="M46.999,27.882c-0.036,0.515,0.076,1.102,0.425,1.758c-3.121,3.378-3.76,0.322-3.76,0.322
				s0.049-0.875,0-2.064C43.63,27.043,47.124,26.11,46.999,27.882z"/>
			<path fill="#604C3F" d="M44.951,31.355c-1.111,0-1.406-1.354-1.409-1.368l-0.004-0.016l0.001-0.016
				c0.001-0.009,0.048-0.883,0-2.052c-0.006-0.147,0.061-0.294,0.198-0.437c0.386-0.401,1.285-0.716,2.049-0.716
				c0.49,0,0.87,0.129,1.099,0.374c0.181,0.194,0.261,0.452,0.239,0.767c-0.038,0.538,0.1,1.107,0.41,1.691l0.042,0.078
				l-0.061,0.065C46.517,30.807,45.653,31.355,44.951,31.355z M43.79,29.951c0.033,0.143,0.3,1.154,1.161,1.154
				c0.617,0,1.397-0.5,2.321-1.485c-0.304-0.599-0.438-1.186-0.398-1.747c0.018-0.243-0.041-0.438-0.173-0.579
				C46.476,27.051,46.078,27,45.786,27c-0.692,0-1.53,0.287-1.869,0.64c-0.061,0.063-0.132,0.158-0.128,0.253
				C43.834,28.982,43.796,29.821,43.79,29.951z"/>
		</g>
		<g>
			<path fill="#FFB743" d="M34,14.832c0,0,0.56,2.097,0.75,4.424c0.194,2.377-0.542,4.498,0.821,5.861
				c1.645,1.645,4.631,3.428,9.345,3.428s7.709-2.115,9.876-4.333c1.625-1.663,1.414-9.381,1.414-9.381S57.458,4.546,44,4.546
				C33,4.546,34,14.832,34,14.832z"/>
			<path fill="#604C3F" d="M44.916,28.671c-5.193,0-8.139-2.171-9.434-3.465c-0.975-0.976-0.92-2.291-0.855-3.814
				c0.029-0.683,0.059-1.39-0.002-2.125c-0.187-2.29-0.74-4.381-0.746-4.402c-0.008-0.064-0.402-4.492,2.364-7.541
				C37.991,5.398,40.601,4.421,44,4.421c4.619,0,8.025,1.201,10.123,3.57c2.644,2.985,2.212,6.817,2.207,6.856
				c0.01,0.299,0.194,7.772-1.448,9.453C53.048,26.176,50.021,28.671,44.916,28.671z M44,4.671c-3.325,0-5.872,0.948-7.57,2.818
				c-2.692,2.966-2.31,7.287-2.306,7.33c0.002,0.001,0.562,2.115,0.751,4.426c0.061,0.751,0.031,1.466,0.002,2.156
				c-0.062,1.464-0.115,2.729,0.783,3.627c1.267,1.267,4.153,3.392,9.256,3.392c5.01,0,7.984-2.452,9.786-4.295
				c1.57-1.606,1.381-9.213,1.379-9.29c0.006-0.056,0.422-3.782-2.147-6.681C51.885,5.843,48.543,4.671,44,4.671z"/>
		</g>
		<g>
			<g>
				<ellipse fill="#231815" cx="48" cy="18.546" rx="1" ry="3"/>
				<circle fill="#F7F8F8" cx="48.479" cy="17.067" r="0.479"/>
			</g>
			<g>
				<ellipse fill="#231815" cx="38" cy="18.546" rx="1" ry="3"/>
				<circle fill="#F7F8F8" cx="38.479" cy="17.067" r="0.479"/>
			</g>
		</g>
		<g>
			<path fill="#FFB743" d="M54.5,19.034c0,0,2.683-3.086,3.384,0.901s-2.957,5.036-3.655,3.534"/>
			<path fill="#604C3F" d="M55.398,24.248c-0.58,0-1.067-0.261-1.283-0.726l0.227-0.105c0.239,0.515,0.91,0.714,1.635,0.489
				c1.169-0.368,2.174-1.731,1.784-3.948c-0.196-1.117-0.563-1.758-1.089-1.904c-0.924-0.25-2.066,1.05-2.077,1.063l-0.189-0.164
				c0.052-0.06,1.266-1.435,2.333-1.141c0.627,0.174,1.054,0.881,1.269,2.103c0.416,2.366-0.683,3.83-1.955,4.229
				C55.827,24.214,55.606,24.248,55.398,24.248z"/>
		</g>
		<g>
			<path fill="#231815" d="M32.987,10.458C36.005,2.689,47,0.625,50.323,4.131c2.214,0.222,4.942,1.726,6.65,6.351
				c2.737,7.413-3.338,12.987-3.338,12.987s-0.974-5.711-1.619-7.586c-0.517,2.243-1.948,2.456-1.948,2.456
				s-0.689-2.518-1.774-5.113c-1.049,3.363-3.731,4.67-3.731,4.67S42.438,16,41.929,13.563c-0.676,2.035-0.052,3.984-0.052,3.984
				S38,17.067,37.003,13.518c-1.132,3.521-3.241,7.827-3.241,7.827S30.896,15.843,32.987,10.458z"/>
			<path fill="#604C3F" d="M53.551,23.716l-0.038-0.227c-0.009-0.053-0.857-5.011-1.487-7.162c-0.598,1.912-1.881,2.125-1.938,2.134
				l-0.109,0.017l-0.029-0.107c-0.007-0.024-0.646-2.342-1.642-4.789c-1.118,3.141-3.663,4.412-3.689,4.424l-0.075,0.037
				l-0.063-0.056c-0.083-0.074-1.909-1.722-2.559-3.944c-0.441,1.806,0.069,3.447,0.075,3.465l0.06,0.186l-0.194-0.024
				c-0.038-0.005-3.695-0.494-4.86-3.747c-1.145,3.417-3.106,7.435-3.127,7.477l-0.108,0.222l-0.115-0.22
				c-0.028-0.055-2.868-5.614-0.78-10.99c2.055-5.29,7.868-8.058,12.547-8.058c2.166,0,3.927,0.588,4.964,1.656
				c1.709,0.185,4.807,1.274,6.709,6.427c2.734,7.406-3.31,13.066-3.37,13.123L53.551,23.716z M51.993,15.429l0.142,0.413
				c0.574,1.668,1.391,6.26,1.583,7.37c0.952-0.973,5.558-6.137,3.139-12.687c-1.873-5.072-4.905-6.105-6.546-6.27L50.265,4.25
				l-0.032-0.034c-0.985-1.039-2.695-1.612-4.814-1.612c-4.595,0-10.3,2.713-12.314,7.898c-1.809,4.656,0.156,9.459,0.658,10.553
				c0.452-0.944,2.155-4.569,3.122-7.577l0.127-0.396l0.112,0.4c0.839,2.984,3.801,3.753,4.58,3.906
				c-0.14-0.549-0.458-2.167,0.107-3.867l0.146-0.44l0.095,0.454c0.446,2.135,2.178,3.869,2.531,4.205
				c0.438-0.241,2.671-1.598,3.593-4.555l0.102-0.328l0.133,0.317c0.944,2.26,1.598,4.486,1.747,5.012
				c0.33-0.098,1.325-0.538,1.738-2.334L51.993,15.429z"/>
		</g>
		<path fill="#231815" d="M44.916,26.45c1.493,0,2.842-0.571,3.278-1.189c0.158-0.226,0.104-0.538-0.121-0.697
			c-0.226-0.158-0.537-0.105-0.697,0.121c-0.312,0.443-2.847,1.69-4.754,0.424c-0.229-0.152-0.456-0.185-0.61,0.046
			c-0.152,0.23-0.09,0.355,0.141,0.508C43.006,26.23,43.988,26.45,44.916,26.45z"/>
		<ellipse fill="#E08E0B" cx="50.447" cy="23.055" rx="2.374" ry="1.509"/>
		<ellipse fill="#E08E0B" cx="36.74" cy="23.055" rx="1.74" ry="1.509"/>
		
			<ellipse transform="matrix(-0.9831 0.1833 -0.1833 -0.9831 92.9698 9.7537)" fill="#FFFFFF" cx="46.034" cy="9.173" rx="1.403" ry="2.791"/>
		
			<ellipse transform="matrix(-0.9831 0.1832 -0.1832 -0.9831 89.3997 10.7412)" fill="#FFFFFF" cx="44.204" cy="9.501" rx="0.759" ry="1.511"/>
		
			<ellipse transform="matrix(-0.9831 0.1832 -0.1832 -0.9831 99.736 8.7158)" fill="#FFFFFF" cx="49.465" cy="8.966" rx="0.759" ry="1.511"/>
	</g>
</g>
</svg>
