<?xml version="1.0" encoding="utf-8"?>
<!-- Generator: Adobe Illustrator 18.0.0, SVG Export Plug-In . SVG Version: 6.00 Build 0)  -->
<!DOCTYPE svg PUBLIC "-//W3C//DTD SVG 1.1//EN" "http://www.w3.org/Graphics/SVG/1.1/DTD/svg11.dtd">
<svg version="1.1" id="レイヤー_1" xmlns="http://www.w3.org/2000/svg" xmlns:xlink="http://www.w3.org/1999/xlink" x="0px"
	 y="0px" width="64px" height="64px" viewBox="0 0 64 64" style="enable-background:new 0 0 64 64;" xml:space="preserve">
<g>
	<g>
		<path style="fill:#050505;" d="M38.4794998,30.4165001c0,0-8.6016006-4.3330002-1.7910004-22.1665001l14.2383003,0.3334999
			c0,0,7.5732002,19.0303001-1.5937996,21.0566006l-2.3339996-1.7583008l-6.6063995,2.1161995l-1.5596008-2.1234989
			C38.8330002,27.8745003,38.375,28.4346008,38.4794998,30.4165001z"/>
		<path style="fill:#604C3F;" d="M38.6152344,30.625l-0.1923828-0.0966797
			c-0.0888672-0.0454102-2.2080078-1.1430664-3.5087891-4.4619141c-1.1933594-3.0429688-1.875-8.6113281,1.6572266-17.8608398
			l0.0322266-0.0825195L36.6914063,8.125l14.3212891,0.3354492l0.0302734,0.0766602
			c0.2050781,0.5166016,4.9980469,12.715332,1.9394531,18.4882813c-0.7705078,1.4550781-1.9892578,2.3759766-3.6220703,2.7368164
			l-0.0566406,0.012207l-2.328125-1.7539063l-6.6308594,2.1240234l-1.4960938-2.0375977
			c-0.1181641,0.2729492-0.3154297,0.9467773-0.2441406,2.3032227L38.6152344,30.625z M36.7734375,8.3769531
			c-3.4619141,9.1098633-2.8017578,14.5854492-1.6357422,17.5771484c1.0410156,2.6674805,2.65625,3.8842773,3.2070313,4.2373047
			c-0.0595703-1.8217773,0.3720703-2.3725586,0.3916016-2.3959961l0.1015625-0.125l1.6025391,2.1811523l6.5820313-2.1083984
			l2.3398438,1.762207c1.5292969-0.3530273,2.6728516-1.2265625,3.3994141-2.597168
			c2.8808594-5.4370117-1.5107422-17.1376953-1.9208984-18.2016602L36.7734375,8.3769531z"/>
	</g>
	<g>
		<g>
			<path style="fill:#471E02;" d="M50.2450981,59.1016006h-3.5057983l-0.6982994-10.9160995l-1.5761986-0.2919006
				l0.282299,11.2080002h-3.3232994l-1.8857002-11.4160995v-3.0946999
				c3.7899971,0.9120979,8.0653992,0.7040977,11.3886986,0.2665977l-0.2187996,2.6612015L50.2450981,59.1016006z"/>
			<path style="fill:#604C3F;" d="M50.3652344,59.2265625h-3.7431641l-0.0078125-0.1171875l-0.6914063-10.8183594
				L44.59375,48.0449219L44.875,59.2265625h-3.5576172l-0.0166016-0.1044922l-1.8857422-11.4160156l-0.0019531-3.2734375
				l0.1542969,0.0371094c3.0986328,0.7460938,7.0205078,0.8330078,11.3427734,0.2636719l0.1542969-0.0205078l-0.2314453,2.8154297
				L50.3652344,59.2265625z M46.8564453,58.9765625H50.125l0.4580078-11.4628906l0.2060547-2.5126953
				c-4.2197266,0.5419922-8.0605469,0.4580078-11.1259766-0.2519531v2.9365234l1.8671875,11.2910156h3.0888672l-0.2832031-11.234375
				l1.8232422,0.3378906l0.0068359,0.0976563L46.8564453,58.9765625z"/>
		</g>
		<g>
			<g>
				<path style="fill:#05050F;" d="M44.8633003,57.4561005v6.2294006h-3.1903992h-3.1934013
					C37,60.0186005,39.2440987,59.6875,41.3993988,60.5653992l-0.5107002-3.1092987H44.8633003z"/>
				<path style="fill:#604C3F;" d="M44.9882813,63.8105469h-6.5927734l-0.0322266-0.078125
					c-0.5654297-1.4023438-0.6376953-2.4316406-0.2148438-3.0595703c0.2822266-0.4179688,0.7841797-0.6396484,1.4501953-0.6396484
					c0.484375,0,1.0488281,0.1162109,1.6416016,0.3359375l-0.4990234-3.0380859h4.2470703V63.8105469z M38.5644531,63.5605469
					h6.1738281v-5.9794922h-3.7021484l0.5224609,3.1845703l-0.2060547-0.0839844
					c-0.6386719-0.2607422-1.2451172-0.3984375-1.7539063-0.3984375c-0.5878906,0-1.0058594,0.1787109-1.2431641,0.5302734
					C37.9941406,61.3486328,38.0664063,62.2978516,38.5644531,63.5605469z"/>
			</g>
			<g>
				<path style="fill:#05050F;" d="M50.4473,57.4561005L50.25,63.6855011h-3.875c0,0-1.5116997-1.9794006,0.1806984-3.1366997
					l-0.1973-3.092701H50.4473z"/>
				<path style="fill:#604C3F;" d="M50.3710938,63.8105469h-4.0576172l-0.0380859-0.0488281
					c-0.0322266-0.0429688-0.7890625-1.0478516-0.6230469-2.0800781c0.0761719-0.4755859,0.3369141-0.8779297,0.7744141-1.1943359
					l-0.2011719-3.15625h4.3505859L50.3710938,63.8105469z M46.4394531,63.5605469h3.6894531l0.1894531-5.9794922h-3.8271484
					l0.1933594,3.03125l-0.0585938,0.0400391c-0.4130859,0.2822266-0.6582031,0.6416016-0.7265625,1.0673828
					C45.7695313,62.5253906,46.2958984,63.3535156,46.4394531,63.5605469z"/>
			</g>
		</g>
		<g>
			<path style="fill:#471E02;" d="M41.8769989,30.4853992c0,0-1.2939987,3.2832012-3.0898972,5.5332012
				c-5.9604034,7.467701-5.2246017,11.8125-7.9121017,10.4375c-2.1543007,0.3768997-3.0596008-3.0625-1.4102001-4.4629021
				c0,0,0.7012005-0.9745979,1.5352001-1.6406975c3.1123009-2.1826019,6-4.9062004,7.9735985-7.9233017
				C38.9735985,32.4291992,39.9346008,29.9785004,41.8769989,30.4853992z"/>
			<path style="fill:#604C3F;" d="M31.7338867,46.8339844c-0.2563477,0-0.5444336-0.0810547-0.8789063-0.2480469
				c-0.9511719,0.1464844-1.7832031-0.4189453-2.1660156-1.4609375c-0.3554688-0.9677734-0.2895508-2.390625,0.6948242-3.2275391
				c0.0087891-0.0175781,0.7001953-0.9736328,1.5380859-1.6425781c3.3662109-2.3613281,6.1123047-5.0888672,7.9472656-7.894043
				c0.0214844-0.0625,0.828125-2.0693359,2.4873047-2.0693359c0.1806641,0,0.3662109,0.0244141,0.5517578,0.0727539
				l0.1367188,0.0356445L41.9931641,30.53125c-0.0126953,0.0327148-1.3212891,3.3261719-3.1083984,5.5654297
				C36.1679688,39.5,34.8369141,42.2744141,33.9560547,44.1103516c-0.8427734,1.7558594-1.3071289,2.7226563-2.2216797,2.7236328
				C31.7338867,46.8339844,31.7338867,46.8339844,31.7338867,46.8339844z M30.8945313,46.3261719l0.0375977,0.0185547
				c0.3139648,0.1611328,0.5766602,0.2392578,0.8017578,0.2392578c0.7578125-0.0009766,1.1977539-0.9179688,1.996582-2.5820313
				c0.8857422-1.8457031,2.2246094-4.6357422,4.9589844-8.0615234c1.5585938-1.9521484,2.7509766-4.7250977,3.015625-5.3657227
				c-0.1171875-0.0219727-0.234375-0.0332031-0.3486328-0.0332031c-1.4882813,0-2.2587891,1.9140625-2.2666016,1.9335938
				c-1.8632813,2.8540039-4.6318359,5.6049805-8.0180664,7.9799805c-0.8051758,0.6425781-1.4985352,1.6015625-1.5053711,1.6113281
				c-0.9140625,0.7802734-0.9692383,2.0830078-0.6425781,2.9726563c0.3452148,0.9404297,1.0859375,1.4375,1.9296875,1.2939453
				L30.8945313,46.3261719z"/>
		</g>
		<g>
			<path style="fill:#C30D23;" d="M39.5381012,44.5908012c0,0-0.8506012,3.6553001-0.5381012,7.3428001
				c0,0,5.8633003,0.9179993,12.6133003,0c0,0-0.1348-4.7998009-0.6865005-7.0762024
				C50.9267998,44.857399,44.9101982,45.7958984,39.5381012,44.5908012z"/>
			<path style="fill:#604C3F;" d="M45.3427734,52.4667969c-3.703125,0-6.3359375-0.4052734-6.3623047-0.4101563
				l-0.0966797-0.0146484L38.875,51.9443359c-0.3105469-3.6650391,0.5332031-7.3447266,0.5410156-7.3818359l0.0283203-0.1210938
				l0.1210938,0.0273438c1.8095703,0.40625,3.8857422,0.6113281,6.171875,0.6113281
				c2.9130859,0,5.1484375-0.3427734,5.1699219-0.3457031l0.1142578-0.0185547l0.0263672,0.1123047
				c0.5488281,2.2626953,0.6894531,7.0537109,0.6904297,7.1015625l0.0029297,0.1123047l-0.1113281,0.015625
				C49.6337891,52.3291016,47.5185547,52.4667969,45.3427734,52.4667969z M39.1162109,51.8242188
				c0.5068359,0.0722656,2.9414063,0.3925781,6.2265625,0.3925781c2.1240234,0,4.1894531-0.1318359,6.1416016-0.3916016
				c-0.0234375-0.7236328-0.1777344-4.7470703-0.6533203-6.8271484c-0.4941406,0.0693359-2.5351563,0.3320313-5.09375,0.3320313
				c-2.2529297,0-4.3056641-0.1982422-6.1035156-0.5898438C39.4941406,45.3945313,38.8623047,48.6044922,39.1162109,51.8242188z"/>
		</g>
		<g>
			<path style="fill:#471E02;" d="M50.357399,30.8901005c0,0,2.2001991-0.405201,3.8506012,6.2525005
				c1.6514015,6.6562004,1.7461014,11.0937004,0.4453011,11.5555992c-1.2998009,0.461998-2.8339996,2.6875-3.8408012-0.5810013
				c0,0-1.732399-0.9169998-0.2011986-2.2383003c2.8526001-1.1815987,2.1513977-10.0673981,0.5292969-11.5995979
				C51.1405983,34.2793007,48.6846008,32.0014992,50.357399,30.8901005z"/>
			<path style="fill:#604C3F;" d="M52.2509766,49.9921875c-0.6679688,0-1.1591797-0.5693359-1.5429688-1.7910156
				c-0.1748047-0.1035156-0.7773438-0.5019531-0.8476563-1.1201172c-0.0488281-0.4345703,0.1767578-0.8710938,0.6689453-1.296875
				l0.0341797-0.0205078c1.0029297-0.4160156,1.4570313-1.8222656,1.6601563-2.9277344
				c0.5947266-3.2304688-0.1542969-7.5078125-1.1689453-8.4658203c-0.0605469-0.0556641-1.4960938-1.4023438-1.4013672-2.5771484
				c0.0332031-0.4106445,0.2470703-0.7490234,0.6347656-1.0068359l0.046875-0.019043c0,0,0.0332031-0.0068359,0.0966797-0.0068359
				c0.5449219,0,2.4365234,0.4580078,3.8974609,6.3520508C55.96875,43.71875,56.1123047,48.3125,54.6953125,48.8164063
				c-0.2958984,0.1044922-0.6054688,0.3056641-0.9326172,0.5185547
				C53.2666016,49.6582031,52.7539063,49.9921875,52.2509766,49.9921875z M50.6787109,45.9863281
				c-0.4169922,0.3642578-0.6083984,0.7226563-0.5693359,1.0664063c0.0654297,0.5791016,0.7548828,0.9501953,0.7617188,0.9541016
				l0.0458984,0.0244141l0.0146484,0.0488281c0.3447266,1.1181641,0.7763672,1.6621094,1.3193359,1.6621094
				c0.4287109,0,0.9101563-0.3134766,1.375-0.6162109c0.3251953-0.2119141,0.6621094-0.4306641,0.9853516-0.5458984
				c1.0205078-0.3623047,1.2919922-4.0859375-0.5244141-11.4072266c-1.5019531-6.0585938-3.4208984-6.1816406-3.6855469-6.1616211
				c-0.3085938,0.2128906-0.4726563,0.4755859-0.4990234,0.8017578c-0.0849609,1.0537109,1.3095703,2.3618164,1.3232422,2.3745117
				c1.1552734,1.0917969,1.8066406,5.640625,1.2441406,8.6933594
				C52.1640625,44.5429688,51.5449219,45.6162109,50.6787109,45.9863281z"/>
		</g>
		<g>
			<g>
				<path style="fill:#C30D23;" d="M39.7373009,42.8554993l1.0439987-9.0868988l-0.4687996,1.125
					c-1.4687004-0.5625-2.125-1.7812996-2.125-1.7812996c1.3594017-2.6958008,2.7187996-2.6958008,2.7187996-2.6958008
					l2.7578011-0.7763996h3.7597008L50.1973,30.4179993c0.2714996,0.0341015,1.4580002,0.3154011,2.9902,2.5068016
					l-2.5937004,2.0937996l-0.4112015-0.4522018l0.5987015,8.2812996
					C45.7979012,43.6650009,41.4639015,43.1405983,39.7373009,42.8554993z"/>
				<path style="fill:#604C3F;" d="M45.265625,43.4111328c-2.5527344,0-4.5722656-0.2714844-5.5488281-0.4326172
					l-0.1171875-0.0195313l0.9560547-8.3251953l-0.1748047,0.4199219l-0.1132813-0.0429688
					c-1.4951172-0.5732422-2.1621094-1.7880859-2.1904297-1.8388672l-0.0302734-0.0576172l0.0292969-0.0585938
					c1.3076172-2.5922852,2.6279297-2.7539063,2.8105469-2.7636719l2.7773438-0.7768555l3.7939453,0.0043945l2.7734375,0.7783203
					c0.3125,0.0375977,1.5136719,0.3457031,3.0585938,2.5551758l0.0664063,0.0957031l-2.7763672,2.2407227l-0.2470703-0.2714844
					l0.5810547,8.0341797l-0.1123047,0.0185547C49.0224609,43.2626953,47.1601563,43.4111328,45.265625,43.4111328z
					 M39.875,42.7509766c1.0078125,0.1621094,2.9541016,0.4101563,5.390625,0.4101563
					c1.8408203,0,3.6513672-0.140625,5.3828125-0.4189453l-0.6162109-8.5273438l0.5751953,0.6328125l2.4101563-1.9462891
					c-1.4912109-2.0922852-2.6220703-2.3325195-2.8359375-2.359375L47.40625,29.7651367h-3.7246094L40.90625,30.5415039
					c-0.0117188,0-1.2871094,0.0493164-2.5761719,2.565918c0.1425781,0.2324219,0.7568359,1.1396484,1.9140625,1.6240234
					l0.7626953-1.8286133L39.875,42.7509766z"/>
			</g>
			<g>
				<path style="fill:#F39800;" d="M39.5381012,44.5908012l0.1991997-1.735302
					c1.7266006,0.285099,6.0606003,0.8095016,11.0439987-0.0078011l0.1455002,2.0097008
					C47.6035004,45.294899,43.3280983,45.5028992,39.5381012,44.5908012z"/>
				<path style="fill:#604C3F;" d="M45.5361328,45.3554688c-2.2265625,0-4.2539063-0.2167969-6.0273438-0.6435547
					l-0.1074219-0.0253906l0.2265625-1.9755859l0.1298828,0.0214844c0.96875,0.1601563,2.9726563,0.4287109,5.5078125,0.4287109
					c1.8808594,0,3.7304688-0.1474609,5.4951172-0.4365234l0.1357422-0.0224609l0.1630859,2.2636719l-0.1162109,0.015625
					C49.0576172,45.2294922,47.2382813,45.3554688,45.5361328,45.3554688z M39.6748047,44.4951172
					c3.0517578,0.7158203,6.8925781,0.7978516,11.1191406,0.2539063l-0.1279297-1.7558594
					c-1.7373047,0.2773438-3.5537109,0.4179688-5.4003906,0.4179688c-2.4443359,0-4.4003906-0.2490234-5.4189453-0.4111328
					L39.6748047,44.4951172z"/>
			</g>
		</g>
	</g>
	<g>
		<g>
			<path style="fill:#471E02;" d="M46.9990005,27.8817997c-0.0361023,0.5151997,0.0761986,1.1021004,0.4248009,1.7583008
				c-3.1211014,3.3785-3.7597008,0.3218002-3.7597008,0.3218002s0.0487976-0.875,0-2.0644016
				C43.6299019,27.0435009,47.1240005,26.1103992,46.9990005,27.8817997z"/>
			<path style="fill:#604C3F;" d="M44.9511719,31.3549805c-1.1113281,0-1.40625-1.3540039-1.4091797-1.3676758l-0.0039063-0.0161133
				l0.0009766-0.0161133c0.0009766-0.0087891,0.0478516-0.8833008,0-2.0522461
				c-0.0058594-0.1474609,0.0605469-0.2944336,0.1982422-0.4370117c0.3857422-0.4013672,1.2851563-0.7163086,2.0488281-0.7163086
				c0.4902344,0,0.8701172,0.1293945,1.0986328,0.3740234c0.1806641,0.1938477,0.2607422,0.4521484,0.2392578,0.7670898
				c-0.0380859,0.5380859,0.0996094,1.1069336,0.4101563,1.690918l0.0419922,0.078125l-0.0605469,0.0654297
				C46.5166016,30.8066406,45.6533203,31.3549805,44.9511719,31.3549805z M43.7900391,29.9511719
				c0.0332031,0.1425781,0.2998047,1.1538086,1.1611328,1.1538086c0.6171875,0,1.3974609-0.5,2.3212891-1.4853516
				c-0.3037109-0.5986328-0.4375-1.1855469-0.3984375-1.746582c0.0175781-0.2431641-0.0410156-0.4379883-0.1728516-0.5791016
				c-0.2255859-0.2431641-0.6230469-0.2944336-0.9150391-0.2944336c-0.6923828,0-1.5302734,0.2871094-1.8691406,0.6396484
				c-0.0605469,0.0629883-0.1318359,0.1582031-0.1279297,0.253418
				C43.8339844,28.9824219,43.7958984,29.8212891,43.7900391,29.9511719z"/>
		</g>
		<g>
			<path style="fill:#471E02;" d="M34,14.8319998c0,0,0.5596008,2.0971994,0.75,4.4243002
				c0.1943016,2.3775005-0.5419998,4.4981003,0.8213005,5.8614006c1.6445007,1.6444988,4.6307983,3.4281998,9.3446999,3.4281998
				s7.7089996-2.1152,9.8759995-4.3330002c1.625-1.6625996,1.4141006-9.3809004,1.4141006-9.3809004
				S57.4580002,4.5463901,44,4.5463901C33,4.5463901,34,14.8319998,34,14.8319998z"/>
			<path style="fill:#604C3F;" d="M44.9160156,28.6708984c-5.1933594,0-8.1386719-2.1708984-9.4335938-3.4648438
				c-0.9746094-0.9755859-0.9199219-2.2910156-0.8554688-3.8139648c0.0292969-0.6831055,0.0585938-1.3896484-0.0019531-2.1254883
				c-0.1865234-2.2895508-0.7402344-4.3813477-0.7460938-4.4023438c-0.0078125-0.0644531-0.4023438-4.4916992,2.3642578-7.5410156
				C37.9912109,5.3979492,40.6005859,4.4213867,44,4.4213867c4.6191406,0,8.0253906,1.2011719,10.1230469,3.5698242
				c2.6435547,2.9848633,2.2119141,6.8173828,2.2070313,6.855957c0.0097656,0.2988281,0.1943359,7.7719727-1.4482422,9.453125
				C53.0478516,26.1762695,50.0205078,28.6708984,44.9160156,28.6708984z M44,4.6713867
				c-3.3251953,0-5.8720703,0.9482422-7.5703125,2.8183594c-2.6923828,2.9658203-2.3095703,7.2871094-2.3056641,7.3300781
				c0.0019531,0.0009766,0.5615234,2.1147461,0.7509766,4.4262695c0.0605469,0.7514648,0.03125,1.4658203,0.0019531,2.15625
				c-0.0615234,1.4643555-0.1152344,2.7290039,0.7832031,3.6269531c1.2666016,1.2666016,4.1533203,3.3916016,9.2558594,3.3916016
				c5.0097656,0,7.984375-2.4516602,9.7861328-4.2954102c1.5703125-1.605957,1.3808594-9.2133789,1.3789063-9.2900391
				c0.0058594-0.0556641,0.421875-3.7822266-2.1474609-6.6806641C51.8847656,5.8432617,48.5429688,4.6713867,44,4.6713867z"/>
		</g>
		<g>
			<g>
				<ellipse style="fill:#05050F;" cx="48" cy="18.5463982" rx="1" ry="3"/>
				<circle style="fill:#F7F8F8;" cx="48.4794998" cy="17.0668983" r="0.4795"/>
			</g>
			<g>
				<ellipse style="fill:#05050F;" cx="38" cy="18.5463982" rx="1" ry="3"/>
				<circle style="fill:#F7F8F8;" cx="38.4794998" cy="17.0668983" r="0.4795"/>
			</g>
		</g>
		<path style="fill:#992E2E;" d="M44.9160004,26.4501991c1.4931984,0,2.8418007-0.5707989,3.2783012-1.1894989
			c0.1581993-0.2259998,0.1044998-0.5375996-0.1211014-0.696701c-0.225502-0.1581993-0.5371017-0.1054993-0.6972008,0.1206017
			c-0.3115005,0.4432983-2.8466988,1.6903992-4.7538986,0.4242992c-0.2285004-0.1518993-0.4561005-0.1851006-0.6104012,0.0464001
			c-0.152298,0.2299995-0.089798,0.3549995,0.1406021,0.5077991C43.0059013,26.2299995,43.9883003,26.4501991,44.9160004,26.4501991
			z"/>
		<ellipse style="fill:#281000;" cx="50.4472504" cy="23.0551987" rx="2.3740499" ry="1.5088"/>
		<ellipse style="fill:#281000;" cx="36.7397499" cy="23.0551987" rx="1.73975" ry="1.5088"/>
	</g>
	<g>
		<path style="fill:#050505;" d="M34.1836014,11.5171003C35.75,5.3334999,43.0839996,0.5,51.2773018,4.5322299
			C54.9169998,4.1669898,57.6533012,8.7407198,57.9160004,15c0.4169998,9.9165001-0.4403992,15.2099991-5.0946999,16.2299995
			l-0.1611023-2.6840992l-1.0468979,1.0942001c0,0,0.0477982-0.6655006,0.1171989-1.7563
			c-0.3974991,1.3661995-1.8036995,2.3515987-1.8036995,2.3515987c0.6982002-4.1103992,0.6953011-13.7783985-0.339901-17.375
			c0.0069008,2.8895998-2.8008003,4.6859999-4.5233994,4.7983007c0,0-0.2089996-0.5420017-0.4950981-1.3941002
			c-0.75,1.3037987-1.5996017,1.7778988-1.5996017,1.7778988s-1.4874001-0.6156998-2.6651001-2.2538996
			c-0.3143997,1.0526991-0.5625,1.7578001-0.5625,1.7578001S37.5625,15.2812996,37.3125,13
			c-3.3358994,10.0552006,1.4267998,17.9316006,1.4267998,17.9316006
			C34.4160004,28.5459003,31.9199009,20.4535999,34.1836014,11.5171003z"/>
		<path style="fill:#604C3F;" d="M52.7050781,31.3833008l-0.1523438-2.5439453l-1.0888672,1.1376953l0.0244141-0.3457031
			c0-0.0004883,0.0273438-0.3735352,0.0693359-1.0185547c-0.5595703,1.015625-1.5107422,1.690918-1.5595703,1.7250977
			l-0.2451172,0.1713867l0.0507813-0.2949219c0.6660156-3.9243164,0.6621094-12.6362305-0.15625-16.5756836
			c-0.4414063,2.5898438-3.0527344,4.0454102-4.5761719,4.1445313l-0.0917969,0.0063477l-0.0322266-0.0859375
			c-0.0019531-0.0048828-0.171875-0.4453125-0.4111328-1.1435547c-0.7197266,1.1435547-1.4726563,1.5727539-1.5068359,1.5917969
			l-0.0527344,0.0292969l-0.0556641-0.0229492c-0.0595703-0.0249023-1.4130859-0.5976563-2.5693359-2.0957031
			c-0.2773438,0.9121094-0.4902344,1.519043-0.4921875,1.5253906l-0.0673828,0.1914063l-0.140625-0.1464844
			c-0.0839844-0.0864258-1.9042969-2-2.3769531-4.1044922c-2.96875,9.6508789,1.5253906,17.2617188,1.5722656,17.3388672
			l0.2412109,0.3994141l-0.4091797-0.2255859c-4.1269531-2.2773438-6.9824219-10.2143555-4.6162109-19.5546875
			c1.2558594-4.9594727,5.9648438-8.559082,11.1972656-8.559082c2.0058594,0,4.0390625,0.4970703,6.0410156,1.4770508
			c0.1269531-0.0117188,0.2558594-0.0175781,0.3818359-0.0175781c3.4814453,0,6.0957031,4.3623047,6.3583984,10.6079102
			c0.4013672,9.5512695-0.3193359,15.2895508-5.1933594,16.3574219L52.7050781,31.3833008z M52.7675781,28.2524414
			L52.9375,31.074707c4.5732422-1.112793,5.2460938-6.7475586,4.8535156-16.0693359
			c-0.2519531-6.0078125-2.8212891-10.3686523-6.1083984-10.3686523c-0.1298828,0-0.2607422,0.0068359-0.3925781,0.0200195
			l-0.0361328,0.003418l-0.0322266-0.015625c-1.9775391-0.9736328-3.9833984-1.4672852-5.9619141-1.4672852
			c-5.1191406,0-9.7265625,3.5205078-10.9550781,8.3706055c-2.2602539,8.9233398,0.2753906,16.5332031,4.1054688,19.0395508
			c-0.9033203-1.7514648-4.1054688-8.9179688-1.2158203-17.6269531l0.1796875-0.5439453l0.0625,0.5698242
			c0.2060547,1.8779297,1.7734375,3.7763672,2.2548828,4.3198242c0.0947266-0.2802734,0.2792969-0.8388672,0.4921875-1.5532227
			l0.0732422-0.2436523l0.1484375,0.206543c1.0146484,1.4116211,2.2734375,2.0541992,2.5537109,2.1855469
			c0.1923828-0.125,0.8837891-0.6259766,1.5009766-1.6992188l0.1386719-0.2407227l0.0878906,0.2636719
			c0.2167969,0.6445313,0.390625,1.1152344,0.4599609,1.3012695c1.5615234-0.1591797,4.3222656-1.8427734,4.3154297-4.6655273
			l-0.0019531-0.894043l0.2470703,0.8588867c1.0058594,3.4951172,1.0664063,12.7036133,0.3935547,17.1142578
			c0.4130859-0.3461914,1.2294922-1.1264648,1.5097656-2.0913086l0.3164063-1.0883789l-0.0712891,1.1313477
			c-0.0400391,0.6254883-0.0722656,1.1113281-0.09375,1.4121094L52.7675781,28.2524414z"/>
	</g>
	
		<ellipse transform="matrix(-0.9902308 0.1394381 -0.1394381 -0.9902308 94.3615341 11.2648888)" style="fill:#FFFFFF;" cx="46.7861519" cy="8.9379883" rx="1.138068" ry="2.6869004"/>
	
		<ellipse transform="matrix(-0.9902021 0.1396416 -0.1396416 -0.9902021 97.7766342 11.6673813)" style="fill:#FFFFFF;" cx="48.4790001" cy="9.263916" rx="0.7115719" ry="1.6801457"/>
	
		<ellipse transform="matrix(-0.9566326 0.2912973 -0.2912973 -0.9566326 101.8836594 4.1380334)" style="fill:#FFFFFF;" cx="50.6338005" cy="9.6530762" rx="0.7115585" ry="1.6800264"/>
</g>
<g>
</g>
<g>
</g>
<g>
</g>
<g>
</g>
<g>
</g>
<g>
</g>
</svg>
