<?xml version="1.0" encoding="utf-8"?>
<!-- Generator: Adobe Illustrator 18.0.0, SVG Export Plug-In . SVG Version: 6.00 Build 0)  -->
<!DOCTYPE svg PUBLIC "-//W3C//DTD SVG 1.1//EN" "http://www.w3.org/Graphics/SVG/1.1/DTD/svg11.dtd">
<svg version="1.1" id="レイヤー_1" xmlns="http://www.w3.org/2000/svg" xmlns:xlink="http://www.w3.org/1999/xlink" x="0px"
	 y="0px" width="64px" height="64px" viewBox="0 0 64 64" style="enable-background:new 0 0 64 64;" xml:space="preserve">
<g>
	<path style="fill:#FFFFFF;" d="M40.248867,24.3194885c-0.2168045-0.0626755-2.8775482,0.0095463-3.1063004,0.0770378
		c-1.3472633,0.3973732-1.9278145,1.4162064-1.9278145,2.0652714c0,0.5074558,0.4136086,1.2862206,1.1929817,1.6005211
		c0.5325623,0.2147675,0.6844559,0.2656326,1.106472,0.278883c0.1777725,0.0056381,0.4020729,0.0078201,0.7399292,0.0132923
		c0.2367973,0.003828,0.5348244-0.0012989,0.8130302-0.0372143c1.3663254-0.1763859,2.23489-1.1454792,3.4116554-2.7431717
		C42.4788208,25.5741081,41.8971024,24.7959156,40.248867,24.3194885z"/>
	<g>
		<g>
			<linearGradient id="SVGID_1_" gradientUnits="userSpaceOnUse" x1="38.3596191" y1="28.2742386" x2="38.3596191" y2="23.8473339">
				<stop  offset="0" style="stop-color:#3D72A4"/>
				<stop  offset="0.4526749" style="stop-color:#2B5175"/>
			</linearGradient>
			<path style="fill:url(#SVGID_1_);" d="M38.1450081,28.2742386c-0.0576439,0-0.115284-0.0029678-0.1732216-0.0089054
				c-0.4953041-0.0516109-0.9282112-0.3213139-1.2184982-0.759779c-0.3045502-0.4597034-0.4138908-1.0434113-0.3084106-1.6436768
				c0.1984749-1.129734,1.1338158-2.0145435,2.1291733-2.0145435c0.0576401,0,0.115284,0.0029678,0.1732216,0.0089054
				c1.0556755,0.1097317,1.7408371,1.1878548,1.5272064,2.4034557
				C40.0757065,27.3893147,39.1403656,28.2742386,38.1450081,28.2742386L38.1450081,28.2742386z"/>
			<g>
				<path style="fill:#194066;" d="M40.5005455,26.283226c0.1556625-0.8851261-0.1504135-1.6940327-0.7240944-2.1706734
					c-0.3028297-0.1103935-0.6439133-0.1793175-1.0286713-0.1793175c-0.6224327,0-1.1327095,0.1017532-1.5588493,0.2602406
					c-0.4847984,0.3906612-0.8512383,0.9679031-0.9703064,1.6448517c-0.2006226,1.1406937,0.3558235,2.1668663,1.2798767,2.4981728
					c0.1480827,0.005888,0.3349266,0.0081921,0.6163559,0.0139523c0.1972466,0.0040302,0.4176025,0.0066223,0.6511993-0.0083847
					C39.6154213,28.0726147,40.3245697,27.2837048,40.5005455,26.283226z M38.1449966,28.0988522
					c-0.0475006,0-0.0954628-0.0024643-0.1425896-0.007391c-0.4190178-0.0435181-0.7904129-0.2798538-1.0457802-0.6653976
					c-0.28368-0.4282913-0.3851738-0.9754887-0.285717-1.5407639c0.1836777-1.0444431,1.019722-1.8625984,1.9032669-1.8625984
					c0.0475006,0,0.095459,0.0024643,0.1425858,0.0073605c0.4190216,0.0435486,0.7904167,0.2798538,1.045784,0.6654282
					c0.2836761,0.4282913,0.3851738,0.9754562,0.285717,1.5407314
					C39.8645859,27.2806969,39.0285416,28.0988522,38.1449966,28.0988522z"/>
			</g>
		</g>
		<path style="fill:#194066;" d="M37.5479813,25.9565163c-0.0875816,0.6156273,0.2047882,1.1613712,0.6530266,1.2189541
			s0.8826065-0.3948002,0.9701843-1.0104275c0.0875816-0.6156273-0.2047882-1.1613712-0.6530266-1.2189541
			S37.6355591,25.340889,37.5479813,25.9565163z"/>
	</g>
	<linearGradient id="SVGID_2_" gradientUnits="userSpaceOnUse" x1="36.5881042" y1="26.2187786" x2="36.5881042" y2="24.9762154">
		<stop  offset="0" style="stop-color:#FFFFFF;stop-opacity:0.5"/>
		<stop  offset="0.7" style="stop-color:#FFFFFF"/>
	</linearGradient>
	<ellipse style="fill:url(#SVGID_2_);" cx="36.5881042" cy="25.597496" rx="0.6382648" ry="0.6212819"/>
	<linearGradient id="SVGID_3_" gradientUnits="userSpaceOnUse" x1="38.2689056" y1="28.2397594" x2="38.2689056" y2="27.5020428">
		<stop  offset="0" style="stop-color:#FFFFFF;stop-opacity:0.2"/>
		<stop  offset="0.7" style="stop-color:#FFFFFF;stop-opacity:0.5"/>
	</linearGradient>
	<ellipse style="fill:url(#SVGID_3_);" cx="38.2689056" cy="27.8709011" rx="0.378941" ry="0.3688582"/>
	<g>
		<g>
			<path style="fill:#72402D;" d="M41.6522827,26.924099c0.2801819-0.6164017,0.5273552-1.1748066,0.5273552-1.1748066
				c0-0.2820263-1.7928467-1.4347343-2.2784958-1.4347343c-0.9835472,0-2.6124001,0.1491394-3.1894608,0.3624172
				c0,0-1.1066666,0.7714958-1.8725014,1.3692188c0.3362198-0.6350803,1.4943085-1.7931671,1.8616982-1.9239197
				c0.6115837-0.2176571,2.1979065-0.302803,3.2189445-0.302803c1.1020508,0,3.0633278,1.7737617,3.0633278,1.7737617
				S42.3667488,26.2656708,41.6522827,26.924099z"/>
		</g>
	</g>
</g>
<g>
	<path style="fill:#FFFFFF;" d="M23.751133,24.3194885c0.2168064-0.0626755,2.8775501,0.0095463,3.1063004,0.0770378
		c1.3472652,0.3973732,1.9278126,1.4162064,1.9278126,2.0652714c0,0.5074558-0.4136066,1.2862206-1.1929817,1.6005211
		c-0.5325603,0.2147675-0.6844521,0.2656326-1.1064701,0.278883c-0.1777725,0.0056381-0.4020748,0.0078201-0.7399273,0.0132923
		c-0.2367973,0.003828-0.5348263-0.0012989-0.8130302-0.0372143c-1.3663254-0.1763859-2.2348919-1.1454792-3.4116573-2.7431717
		C21.5211792,25.5741081,22.1028996,24.7959156,23.751133,24.3194885z"/>
	<g>
		<g>
			
				<linearGradient id="SVGID_4_" gradientUnits="userSpaceOnUse" x1="38.3596191" y1="28.2742386" x2="38.3596191" y2="23.8473339" gradientTransform="matrix(-1 0 0 1 64 0)">
				<stop  offset="0" style="stop-color:#3D72A4"/>
				<stop  offset="0.4526749" style="stop-color:#2B5175"/>
			</linearGradient>
			<path style="fill:url(#SVGID_4_);" d="M25.8549919,28.2742386c0.057642,0,0.115284-0.0029678,0.1732235-0.0089054
				c0.4953022-0.0516109,0.9282074-0.3213139,1.2184963-0.759779c0.3045502-0.4597034,0.4138908-1.0434113,0.3084126-1.6436768
				c-0.1984768-1.129734-1.1338177-2.0145435-2.1291752-2.0145435c-0.057642,0-0.115284,0.0029678-0.1732216,0.0089054
				c-1.0556755,0.1097317-1.7408371,1.1878548-1.5272064,2.4034557
				C23.9242954,27.3893147,24.8596344,28.2742386,25.8549919,28.2742386L25.8549919,28.2742386z"/>
			<g>
				<path style="fill:#194066;" d="M25.2339458,28.3420677c0.233593,0.015007,0.453949,0.0124149,0.6511993,0.0083847
					c0.2814293-0.0057602,0.4682713-0.0080643,0.616354-0.0139523c0.9240513-0.3313065,1.4804993-1.3574791,1.2798767-2.4981728
					c-0.1190662-0.6769485-0.4855061-1.2541904-0.9703045-1.6448517c-0.4261398-0.1584873-0.9364166-0.2602406-1.5588493-0.2602406
					c-0.384758,0-0.7258453,0.068924-1.0286732,0.1793175c-0.5736809,0.4766407-0.879755,1.2855473-0.7240963,2.1706734
					C23.6754303,27.2837048,24.3845806,28.0726147,25.2339458,28.3420677z M23.9517384,26.2362213
					c-0.0994587-0.5652752,0.002039-1.1124401,0.285717-1.5407314c0.2553673-0.3855743,0.6267605-0.6218796,1.0457821-0.6654282
					c0.0471268-0.0048962,0.0950851-0.0073605,0.1425877-0.0073605c0.8835449,0,1.7195873,0.8181553,1.9032669,1.8625984
					c0.0994568,0.5652752-0.0020409,1.1124725-0.285717,1.5407639c-0.2553673,0.3855438-0.6267624,0.6218796-1.045784,0.6653976
					c-0.0471268,0.0049267-0.0950851,0.007391-0.1425877,0.007391
					C24.9714584,28.0988522,24.135416,27.2806969,23.9517384,26.2362213z"/>
			</g>
		</g>
		<path style="fill:#194066;" d="M26.4520206,25.9565163c0.0875797,0.6156273-0.2047901,1.1613712-0.6530285,1.2189541
			s-0.8826046-0.3948002-0.9701862-1.0104275c-0.0875797-0.6156273,0.2047901-1.1613712,0.6530285-1.2189541
			S26.364439,25.340889,26.4520206,25.9565163z"/>
	</g>
	<linearGradient id="SVGID_5_" gradientUnits="userSpaceOnUse" x1="24.050293" y1="26.2199764" x2="24.050293" y2="24.9774113">
		<stop  offset="0" style="stop-color:#FFFFFF;stop-opacity:0.5"/>
		<stop  offset="0.7" style="stop-color:#FFFFFF"/>
	</linearGradient>
	<ellipse style="fill:url(#SVGID_5_);" cx="24.050293" cy="25.5986938" rx="0.6382648" ry="0.6212819"/>
	<linearGradient id="SVGID_6_" gradientUnits="userSpaceOnUse" x1="25.7310944" y1="28.2409554" x2="25.7310944" y2="27.5032387">
		<stop  offset="0" style="stop-color:#FFFFFF;stop-opacity:0.2"/>
		<stop  offset="0.7" style="stop-color:#FFFFFF;stop-opacity:0.5"/>
	</linearGradient>
	<ellipse style="fill:url(#SVGID_6_);" cx="25.7310944" cy="27.872097" rx="0.378941" ry="0.3688582"/>
	<g>
		<g>
			<path style="fill:#72402D;" d="M22.3477173,26.924099c-0.2801819-0.6164017-0.5273552-1.1748066-0.5273552-1.1748066
				c0-0.2820263,1.7928467-1.4347343,2.2784958-1.4347343c0.9835472,0,2.6124001,0.1491394,3.1894588,0.3624172
				c0,0,1.1066704,0.7714958,1.8725014,1.3692188c-0.3362179-0.6350803-1.4943047-1.7931671-1.8616962-1.9239197
				c-0.6115837-0.2176571-2.1979065-0.302803-3.2189426-0.302803c-1.1020508,0-3.0633278,1.7737617-3.0633278,1.7737617
				S21.6332531,26.2656708,22.3477173,26.924099z"/>
		</g>
	</g>
</g>
</svg>
