<?xml version="1.0" encoding="utf-8"?>
<!-- Generator: Adobe Illustrator 18.0.0, SVG Export Plug-In . SVG Version: 6.00 Build 0)  -->
<!DOCTYPE svg PUBLIC "-//W3C//DTD SVG 1.1//EN" "http://www.w3.org/Graphics/SVG/1.1/DTD/svg11.dtd">
<svg version="1.1" id="レイヤー_1" xmlns="http://www.w3.org/2000/svg" xmlns:xlink="http://www.w3.org/1999/xlink" x="0px"
	 y="0px" width="64px" height="64px" viewBox="0 0 64 64" style="enable-background:new 0 0 64 64;" xml:space="preserve">
<g>
	<g>
		<path style="fill:#FFFFFF;" d="M40.248867,24.75c-0.2168045-0.0626755-2.8775482,0.0095482-3.1063004,0.0770378
			c-1.3472633,0.3973732-1.9278145,0.9856949-1.9278145,1.6347599c0,0.3819523,0.4414978,0.6147137,1.1929817,0.7186146
			c0.5688248,0.0786457,0.6844559,0.0581226,1.106472,0.0713749c0.1777725,0.0056381,0.4020729,0.0078182,0.7399292,0.0132923
			c0.2367973,0.0038261,0.5348244-0.0013008,0.8130302-0.0372162c1.3663254-0.1763859,2.23489-0.0560627,3.4116554-1.6537552
			C42.4788208,25.5741081,41.8971024,25.2264271,40.248867,24.75z"/>
		<g>
			<linearGradient id="SVGID_1_" gradientUnits="userSpaceOnUse" x1="38.359745" y1="27.2661533" x2="38.359745" y2="24.7261982">
				<stop  offset="0" style="stop-color:#3D72A4"/>
				<stop  offset="0.4526749" style="stop-color:#2B5175"/>
			</linearGradient>
			<path style="fill:url(#SVGID_1_);" d="M37.1425781,24.8270264c-0.1207275,0.0356445-0.2281494,0.0745239-0.336731,0.1130981
				c-0.1716919,0.2759399-0.3018799,0.5855713-0.3609619,0.9217529c-0.0836792,0.4762573-0.0267944,0.93927,0.1502075,1.3410645
				c0.4008179,0.0473633,0.5529785,0.0373535,0.9191284,0.0488281c0.1777344,0.0056152,0.4020386,0.0078125,0.7399292,0.0133057
				c0.2367554,0.0038452,0.53479-0.0012817,0.8129883-0.0372314c0.3180542-0.0410767,0.6072388-0.0667114,0.8815308-0.1010132
				c0.1542969-0.262207,0.2706299-0.5534668,0.3258057-0.8671265c0.1000977-0.569519-0.0029297-1.1043091-0.243103-1.5280151
				C39.3452148,24.7072754,37.3399658,24.7687988,37.1425781,24.8270264z"/>
			<path style="fill:#194066;" d="M37.5479813,25.9565163c-0.0875816,0.6156273,0.2047882,1.1613712,0.6530266,1.2189541
				s0.8826065-0.3948002,0.9701843-1.0104275c0.0875816-0.6156273-0.2047882-1.1613712-0.6530266-1.2189541
				S37.6355591,25.340889,37.5479813,25.9565163z"/>
			<g>
				<path style="fill:#194066;" d="M39.7789307,24.7268066c0.2689819,0.423645,0.3665161,0.9570923,0.2693481,1.5093994
					c-0.0596924,0.3394775-0.1934814,0.6503906-0.3702393,0.9216919c0.1851807-0.0200806,0.3624268-0.0438843,0.5335693-0.0717773
					c0.1315308-0.2474365,0.237793-0.512207,0.2889404-0.8029175c0.0996094-0.5664673-0.0055542-1.0907593-0.2332764-1.5276489
					c-0.0066528-0.0019531-0.0117798-0.0036011-0.0184326-0.0055542
					C40.1997681,24.7358398,40.0218506,24.7288208,39.7789307,24.7268066z"/>
				<path style="fill:#194066;" d="M36.6708984,25.8853149c0.0692139-0.3934937,0.2312622-0.7545166,0.4532471-1.052063
					c-0.2368774,0.0706177-0.442749,0.1486816-0.6327515,0.2304688c-0.1241455,0.2390747-0.2236938,0.4955444-0.2727661,0.7745972
					c-0.0842285,0.4788208-0.0286255,0.9335327,0.1251221,1.3291016c0.0232544,0.00354,0.0401001,0.0097046,0.0639648,0.0130005
					c0.1940308,0.0267944,0.3276367,0.039917,0.4463501,0.0489502
					C36.6564331,26.8352051,36.5857544,26.3692627,36.6708984,25.8853149z"/>
			</g>
		</g>
		<g>
			<linearGradient id="SVGID_2_" gradientUnits="userSpaceOnUse" x1="36.5881042" y1="26.2187786" x2="36.5881042" y2="24.9762154">
				<stop  offset="0" style="stop-color:#FFFFFF;stop-opacity:0.5"/>
				<stop  offset="0.7" style="stop-color:#FFFFFF"/>
			</linearGradient>
			<ellipse style="fill:url(#SVGID_2_);" cx="36.5881042" cy="25.597496" rx="0.6382648" ry="0.6212819"/>
			<g>
				<path style="fill:#72402D;" d="M41.6522827,26.453125c0.3401222-0.3696308,0.5273552-0.7038326,0.5273552-0.7038326
					c0-0.1517963-1.6264534-0.5754185-2.1121025-0.5754185c-0.9835472,0-2.6544876,0.032465-3.1894608,0.1073761
					c-0.4696503,0.0657654-1.0890007,0.265625-2.0388947,0.7649441c0.3362198-0.6350803,1.6475945-1.0821896,2.0149879-1.2129421
					c0.6115837-0.217659,2.2110062-0.1544647,3.2320442-0.1544647c1.1020508,0,2.8969383,0.9144459,2.8969383,0.9144459
					S42.361393,26.0887203,41.6522827,26.453125z"/>
			</g>
		</g>
	</g>
</g>
<g>
	<g>
		<path style="fill:#FFFFFF;" d="M23.751133,24.75c0.2168064-0.0626755,2.8775501,0.0095482,3.1063004,0.0770378
			c1.3472652,0.3973732,1.9278126,0.9856949,1.9278126,1.6347599c0,0.3819523-0.4414959,0.6147137-1.1929817,0.7186146
			c-0.5688248,0.0786457-0.6844521,0.0581226-1.1064701,0.0713749c-0.1777725,0.0056381-0.4020748,0.0078182-0.7399273,0.0132923
			c-0.2367973,0.0038261-0.5348263-0.0013008-0.8130302-0.0372162c-1.3663254-0.1763859-2.2348919-0.0560627-3.4116573-1.6537552
			C21.5211792,25.5741081,22.1028996,25.2264271,23.751133,24.75z"/>
		<g>
			
				<linearGradient id="SVGID_3_" gradientUnits="userSpaceOnUse" x1="38.359745" y1="27.2661533" x2="38.359745" y2="24.7261982" gradientTransform="matrix(-1 0 0 1 64 0)">
				<stop  offset="0" style="stop-color:#3D72A4"/>
				<stop  offset="0.4526749" style="stop-color:#2B5175"/>
			</linearGradient>
			<path style="fill:url(#SVGID_3_);" d="M26.8574219,24.8270264c0.1207275,0.0356445,0.2281494,0.0745239,0.336731,0.1130981
				c0.1716919,0.2759399,0.3018799,0.5855713,0.3609619,0.9217529c0.0836792,0.4762573,0.0267944,0.93927-0.1502075,1.3410645
				c-0.4008179,0.0473633-0.5529785,0.0373535-0.9191284,0.0488281c-0.1777344,0.0056152-0.4020386,0.0078125-0.7399292,0.0133057
				c-0.2367554,0.0038452-0.53479-0.0012817-0.8129883-0.0372314c-0.3180542-0.0410767-0.6072388-0.0667114-0.8815308-0.1010132
				c-0.1542969-0.262207-0.2706299-0.5534668-0.3258057-0.8671265c-0.1000977-0.569519,0.0029297-1.1043091,0.243103-1.5280151
				C24.6547852,24.7072754,26.6600342,24.7687988,26.8574219,24.8270264z"/>
			<path style="fill:#194066;" d="M26.4520206,25.9565163c0.0875797,0.6156273-0.2047901,1.1613712-0.6530285,1.2189541
				s-0.8826046-0.3948002-0.9701862-1.0104275c-0.0875797-0.6156273,0.2047901-1.1613712,0.6530285-1.2189541
				S26.364439,25.340889,26.4520206,25.9565163z"/>
			<g>
				<path style="fill:#194066;" d="M24.2210693,24.7268066c-0.2689819,0.423645-0.3665161,0.9570923-0.2693481,1.5093994
					c0.0596924,0.3394775,0.1934814,0.6503906,0.3702393,0.9216919c-0.1851807-0.0200806-0.3624268-0.0438843-0.5335693-0.0717773
					c-0.1315308-0.2474365-0.237793-0.512207-0.2889404-0.8029175c-0.0996094-0.5664673,0.0055542-1.0907593,0.2332764-1.5276489
					c0.0066528-0.0019531,0.0117798-0.0036011,0.0184326-0.0055542
					C23.8002319,24.7358398,23.9781494,24.7288208,24.2210693,24.7268066z"/>
				<path style="fill:#194066;" d="M27.3291016,25.8853149c-0.0692139-0.3934937-0.2312622-0.7545166-0.4532471-1.052063
					c0.2368774,0.0706177,0.442749,0.1486816,0.6327515,0.2304688c0.1241455,0.2390747,0.2236938,0.4955444,0.2727661,0.7745972
					c0.0842285,0.4788208,0.0286255,0.9335327-0.1251221,1.3291016c-0.0232544,0.00354-0.0401001,0.0097046-0.0639648,0.0130005
					c-0.1940308,0.0267944-0.3276367,0.039917-0.4463501,0.0489502
					C27.3435669,26.8352051,27.4142456,26.3692627,27.3291016,25.8853149z"/>
			</g>
		</g>
		<linearGradient id="SVGID_4_" gradientUnits="userSpaceOnUse" x1="24.050293" y1="26.2199764" x2="24.050293" y2="24.9774113">
			<stop  offset="0" style="stop-color:#FFFFFF;stop-opacity:0.5"/>
			<stop  offset="0.7" style="stop-color:#FFFFFF"/>
		</linearGradient>
		<ellipse style="fill:url(#SVGID_4_);" cx="24.050293" cy="25.5986938" rx="0.6382648" ry="0.6212819"/>
		<g>
			<g>
				<path style="fill:#72402D;" d="M22.3477173,26.453125c-0.3401222-0.3696308-0.5273552-0.7038326-0.5273552-0.7038326
					c0-0.1517963,1.6264553-0.5754185,2.1121044-0.5754185c0.9835472,0,2.6544838,0.032465,3.1894588,0.1073761
					c0.4696503,0.0657654,1.0890007,0.265625,2.0388927,0.7649441c-0.3362179-0.6350803-1.6475945-1.0821896-2.0149841-1.2129421
					c-0.6115856-0.217659-2.21101-0.1544647-3.2320461-0.1544647c-1.1020508,0-2.8969364,0.9144459-2.8969364,0.9144459
					S21.638607,26.0887203,22.3477173,26.453125z"/>
			</g>
		</g>
	</g>
</g>
</svg>
