<?xml version="1.0" encoding="utf-8"?>
<!-- Generator: Adobe Illustrator 18.0.0, SVG Export Plug-In . SVG Version: 6.00 Build 0)  -->
<!DOCTYPE svg PUBLIC "-//W3C//DTD SVG 1.1//EN" "http://www.w3.org/Graphics/SVG/1.1/DTD/svg11.dtd">
<svg version="1.1" id="レイヤー_1" xmlns="http://www.w3.org/2000/svg" xmlns:xlink="http://www.w3.org/1999/xlink" x="0px"
	 y="0px" width="64px" height="64px" viewBox="0 0 64 64" style="enable-background:new 0 0 64 64;" xml:space="preserve">
<g>
	<g>
		<linearGradient id="SVGID_1_" gradientUnits="userSpaceOnUse" x1="32" y1="1.3125" x2="32" y2="20.4505291">
			<stop  offset="0.4" style="stop-color:#FAEE00"/>
			<stop  offset="1" style="stop-color:#F39800"/>
		</linearGradient>
		<path style="fill:url(#SVGID_1_);" d="M32,1.3125c-6.4602604,0-15.6764908,1.9933176-17.3833637,18.2190208
			c-0.0655031,0.6226807,0.5298824,1.0934219,1.0940533,0.8567066C17.8352604,19.4967976,22.877039,17.9236107,32,17.9236107
			s14.1647415,1.5731869,16.2893105,2.4646168c0.5641708,0.2367153,1.1595573-0.234026,1.0940514-0.8567066
			C47.6764908,3.3058176,38.4602585,1.3125,32,1.3125z"/>
		<path style="fill:#3E3A39;" d="M48.5927734,20.7006836L48.5927734,20.7006836
			c-0.1367188,0-0.2714844-0.027832-0.4003906-0.0820313C46.0175781,19.7055664,41.0214844,18.1738281,32,18.1738281
			c-9.019043,0-14.0166016,1.5317383-16.1928711,2.4448242c-0.4047852,0.1689453-0.8764648,0.0595703-1.1679688-0.2651367
			c-0.2080078-0.230957-0.3041992-0.5322266-0.2709961-0.8481445C15.6738281,7.0952148,21.440918,1.0625,32,1.0625
			c10.5595703,0,16.3271484,6.0327148,17.6328125,18.4428711c0.0332031,0.315918-0.0634766,0.6171875-0.2714844,0.8481445
			C49.1630859,20.5742188,48.8828125,20.7006836,48.5927734,20.7006836z M32,17.6738281
			c9.1083984,0,14.1757813,1.5561523,16.3857422,2.4838867c0.0673828,0.0283203,0.1376953,0.0429688,0.2070313,0.0429688l0,0
			c0.1484375,0,0.2929688-0.0664063,0.3974609-0.1821289c0.1113281-0.1240234,0.1630859-0.2875977,0.1445313-0.4604492
			C47.8613281,7.4487305,42.2558594,1.5625,32,1.5625S16.1391602,7.4487305,14.8652344,19.5581055
			c-0.0180664,0.1728516,0.0336914,0.3364258,0.1455078,0.4609375c0.1533203,0.1699219,0.390625,0.2265625,0.6030273,0.1386719
			C17.824707,19.2299805,22.8930664,17.6738281,32,17.6738281z"/>
	</g>
	
		<radialGradient id="SVGID_2_" cx="32" cy="11.0765772" r="21.2507076" gradientTransform="matrix(0.9729551 0 0 1 0.8654372 0)" gradientUnits="userSpaceOnUse">
		<stop  offset="0.4" style="stop-color:#FAEE00"/>
		<stop  offset="1" style="stop-color:#F39800"/>
	</radialGradient>
	<path style="fill:url(#SVGID_2_);" d="M32,1.8333334c-6.1560249,0-15.0147572,1.983749-16.2159195,18.4864864
		c0,0,4.4293661-2.8780041,16.2159195-2.8780041s16.2159195,2.8780041,16.2159195,2.8780041
		C47.0147591,3.8170824,38.1560249,1.8333334,32,1.8333334z"/>
	<g>
		<path style="fill:#FAEE00;" d="M32,0.375c-3.3482189,0-3.7190781,1.5005668-3.7480679,17.875h7.4961338
			C35.7190781,1.8755668,35.348217,0.375,32,0.375z"/>
		<path style="fill:#3E3A39;" d="M35.9980469,18.5h-7.996582l0.0004883-0.2504883C28.0307617,1.8188477,28.4042969,0.125,32,0.125
			c3.5947266,0,3.96875,1.6938477,3.9980469,18.1245117V18.5z M28.5024414,18h6.9956055
			C35.4638672,1.7026367,35.015625,0.625,32,0.625C28.9838867,0.625,28.5356445,1.7026367,28.5024414,18z"/>
	</g>
	<linearGradient id="SVGID_3_" gradientUnits="userSpaceOnUse" x1="32" y1="18.25" x2="32" y2="0.75">
		<stop  offset="0.5193415" style="stop-color:#FAEE00"/>
		<stop  offset="1" style="stop-color:#F8B62D"/>
	</linearGradient>
	<path style="fill:url(#SVGID_3_);" d="M32,0.75c-2.6777153,0-2.9743061,1.4690864-2.9974918,17.5h5.9949818
		C34.974308,2.2190864,34.6777153,0.75,32,0.75z"/>
	<g>
		
			<radialGradient id="SVGID_4_" cx="32" cy="20.1508217" r="17.268692" gradientTransform="matrix(1.0240346 0 0 1 -0.769108 0)" gradientUnits="userSpaceOnUse">
			<stop  offset="0.4" style="stop-color:#FAEE00"/>
			<stop  offset="1" style="stop-color:#F39800"/>
		</radialGradient>
		<path style="fill:url(#SVGID_4_);" d="M49.9398575,20.0537109C48.6940002,18.8401489,46.9310036,17.5647583,32,17.5647583
			s-16.6940022,1.2753906-17.9398575,2.4889526C12.8143511,21.2672729,16.1307125,22.7368851,32,22.7368851
			S51.1856499,21.2672729,49.9398575,20.0537109z"/>
		<path style="fill:#3E3A39;" d="M32,22.9868164c-7.972168,0-17.6313477-0.3842773-18.3754883-2.215332
			c-0.0854492-0.2099609-0.109375-0.5356445,0.2612305-0.8969727C15.0566406,18.734375,16.5141602,17.3149414,32,17.3149414
			c15.4873047,0,16.9433594,1.4194336,18.1142578,2.5595703c0.3701172,0.3613281,0.3466797,0.6870117,0.2607422,0.8969727
			C49.6308594,22.6025391,39.9716797,22.9868164,32,22.9868164z M32,17.8149414
			c-15.2822266,0-16.6591797,1.3408203-17.765625,2.4179688c-0.2070313,0.2016602-0.1635742,0.3095703-0.1469727,0.3505859
			C14.269043,21.0297852,16.097168,22.4868164,32,22.4868164c15.9023438,0,17.7304688-1.4570313,17.9121094-1.9033203
			c0.0166016-0.0405273,0.0605469-0.1484375-0.1474609-0.3505859C48.6591797,19.1557617,47.2841797,17.8149414,32,17.8149414z"/>
	</g>
	<g>
		<g>
			<linearGradient id="SVGID_5_" gradientUnits="userSpaceOnUse" x1="36.8255806" y1="13.0873718" x2="48.6101913" y2="13.0873718">
				<stop  offset="0.4" style="stop-color:#FAEE00"/>
				<stop  offset="1" style="stop-color:#F39800"/>
			</linearGradient>
			<path style="fill:url(#SVGID_5_);" d="M48.2544785,13.5438843c-2.212368-1.12677-5.9588737-1.9108887-10.8418808-2.2380371
				c-0.1883087-0.0126343-0.3953819-0.017395-0.5870171-0.0286255c0.0050507,0.3236084,0.0095024,0.6569824,0.0132446,0.9998779
				c0.1908607,0.0115967,0.3875999,0.0214844,0.5739517,0.0344238c5.9480057,0.4130249,9.5915985,1.4910278,11.1974144,2.5859985
				C48.4996185,14.4300537,48.3803749,13.9802246,48.2544785,13.5438843z"/>
			<path style="fill:#3E3A39;" d="M49.0019531,15.4667969l-0.5322266-0.362793
				c-0.8720703-0.59375-3.6953125-2.0307617-11.0742188-2.5429688l-0.8037109-0.0478516l-0.0029297-0.2329102
				c-0.0039063-0.3427734-0.0078125-0.6757813-0.0136719-0.9985352l-0.0048828-0.2695313l0.5302734,0.027832
				c0.1113281,0.0043945,0.2226563,0.0092773,0.328125,0.0161133c4.890625,0.3276367,8.6728516,1.1108398,10.9394531,2.2651367
				l0.0966797,0.0493164l0.0302734,0.1040039c0.1269531,0.4404297,0.2470703,0.894043,0.3583984,1.3652344L49.0019531,15.4667969z
				 M37.0859375,12.0415039l0.34375,0.0205078c4.8378906,0.3359375,8.7060547,1.1679688,10.7919922,2.3071289
				c-0.0566406-0.2202148-0.1162109-0.4375-0.1767578-0.6508789c-2.2177734-1.097168-5.8955078-1.8447266-10.6494141-2.1630859
				c-0.1015625-0.0068359-0.2080078-0.0112305-0.3154297-0.015625h-0.0009766
				C37.0820313,11.7041016,37.0839844,11.871582,37.0859375,12.0415039z"/>
		</g>
		<g>
			<linearGradient id="SVGID_6_" gradientUnits="userSpaceOnUse" x1="15.3898087" y1="13.0846558" x2="27.1745377" y2="13.0846558">
				<stop  offset="0" style="stop-color:#F39800"/>
				<stop  offset="0.6" style="stop-color:#FAEE00"/>
			</linearGradient>
			<path style="fill:url(#SVGID_6_);" d="M27.1745377,11.2717285c-5.1673985,0.3024292-9.129591,1.1010742-11.4290161,2.2721558
				c-0.1258955,0.4364014-0.2451391,0.8862305-0.3557129,1.3536987c1.6567078-1.1296387,5.4842148-2.2407837,11.7713661-2.6227417
				C27.1649761,11.9307861,27.1694889,11.5963745,27.1745377,11.2717285z"/>
			<path style="fill:#3E3A39;" d="M14.9975586,15.4672852l0.1489258-0.6274414
				c0.1118164-0.4711914,0.2319336-0.9248047,0.3588867-1.3652344l0.0302734-0.1040039l0.0966797-0.0493164
				c2.3569336-1.2006836,6.3432617-1.9956055,11.5273438-2.2993164l0.2685547-0.015625l-0.0195313,1.5039063l-0.2324219,0.0141602
				c-7.7895508,0.4731445-10.7392578,1.9614258-11.6459961,2.5795898L14.9975586,15.4672852z M15.9555664,13.7182617
				c-0.0605469,0.2133789-0.1196289,0.4301758-0.1767578,0.6503906c2.137207-1.1689453,6.1240234-2.0068359,11.1352539-2.3286133
				l0.0068359-0.5029297C22.0068359,11.84375,18.2236328,12.5961914,15.9555664,13.7182617z"/>
		</g>
	</g>
	<g>
		<g>
			<linearGradient id="SVGID_7_" gradientUnits="userSpaceOnUse" x1="36.8468399" y1="15.0873413" x2="49.0429268" y2="15.0873413">
				<stop  offset="0.4" style="stop-color:#FAEE00"/>
				<stop  offset="1" style="stop-color:#F39800"/>
			</linearGradient>
			<path style="fill:url(#SVGID_7_);" d="M36.85355,14.1104736c6.9037437,0.4213257,10.8434868,1.7205811,12.1893768,2.9580688
				c-0.0806465-0.4800415-0.1684151-0.9460449-0.2634888-1.3977661c-2.1869545-1.3294067-6.3559799-2.2363892-11.9325981-2.5646362
				C36.849453,13.4336548,36.8518295,13.7659912,36.85355,14.1104736z"/>
			<path style="fill:#3E3A39;" d="M49.4111328,17.746582l-0.5371094-0.4941406
				c-1.2158203-1.1171875-5.015625-2.4638672-12.0361328-2.8925781l-0.2333984-0.0141602l-0.0097656-1.5048828l0.2666016,0.015625
				c5.6289063,0.331543,9.7949219,1.230957,12.0478516,2.6010742l0.0927734,0.0561523l0.0224609,0.105957
				c0.0947266,0.4545898,0.1835938,0.9238281,0.2646484,1.4072266L49.4111328,17.746582z M37.1015625,13.8754883
				c5.4052734,0.3491211,9.625,1.3041992,11.5820313,2.6005859c-0.0410156-0.21875-0.0830078-0.4345703-0.1269531-0.6469727
				c-2.1425781-1.2573242-6.1962891-2.1269531-11.4580078-2.4575195L37.1015625,13.8754883z"/>
		</g>
		<g>
			<linearGradient id="SVGID_8_" gradientUnits="userSpaceOnUse" x1="14.9570742" y1="15.0873718" x2="27.1531582" y2="15.0873718">
				<stop  offset="0" style="stop-color:#F39800"/>
				<stop  offset="0.6" style="stop-color:#FAEE00"/>
			</linearGradient>
			<path style="fill:url(#SVGID_8_);" d="M27.1531582,13.1061401c-5.5766163,0.3282471-9.7456436,1.2352295-11.9325953,2.5646362
				c-0.0950747,0.4517212-0.1828451,0.9177246-0.2634888,1.3978271c1.3458891-1.2374878,5.2857523-2.5367432,12.189374-2.9581299
				C27.1481705,13.7659912,27.1505451,13.4336548,27.1531582,13.1061401z"/>
			<path style="fill:#3E3A39;" d="M14.5898438,17.7456055l0.1206055-0.71875
				c0.0810547-0.4833984,0.1699219-0.9526367,0.265625-1.4077148l0.0224609-0.1054688l0.0922852-0.0566406
				c2.253418-1.3696289,6.4194336-2.269043,12.0478516-2.6005859l0.2670898-0.015625l-0.0102539,1.5048828l-0.2338867,0.0141602
				c-7.0200195,0.4287109-10.8203125,1.7753906-12.0351563,2.8925781L14.5898438,17.7456055z M15.4428711,15.8291016
				c-0.0439453,0.2128906-0.0864258,0.4282227-0.1269531,0.6474609c1.9570313-1.296875,6.1767578-2.2519531,11.5820313-2.6010742
				l0.003418-0.5039063C21.6401367,13.7021484,17.5859375,14.5717773,15.4428711,15.8291016z"/>
		</g>
	</g>
</g>
<g>
	<g>
		<linearGradient id="SVGID_9_" gradientUnits="userSpaceOnUse" x1="32" y1="47.4821777" x2="32" y2="65.3651123">
			<stop  offset="0" style="stop-color:#2EA7E0"/>
			<stop  offset="1" style="stop-color:#036EB8"/>
		</linearGradient>
		<path style="fill:url(#SVGID_9_);" d="M52.0999146,56.4868164c0-6.753479-6.631958-7.3966675-12.0395508-9.0046387
			c0,0-2.1642647,5.1844902-8.0603638,5.1844902s-8.0603638-5.1844902-8.0603638-5.1844902
			c-5.4075928,1.6079712-12.0395508,2.2511597-12.0395508,9.0046387l-0.124939,8.8782959h40.449707L52.0999146,56.4868164z"/>
		<path style="fill:#172A88;" d="M52.4785156,65.6152344h-40.956543l0.1279297-9.1328125
			c0-5.9912109,5.0288086-7.3173828,9.8920898-8.6005859c0.7851563-0.2070313,1.5678711-0.4140625,2.3261719-0.6386719
			l0.2148438-0.0644531l0.0869141,0.2070313c0.0214844,0.0507813,2.1762695,5.03125,7.8300781,5.03125
			c5.6640625,0,7.8085938-4.9804688,7.8300781-5.03125l0.0859375-0.2070313l0.2158203,0.0644531
			c0.7587891,0.2246094,1.5410156,0.4316406,2.3261719,0.6386719c4.8632813,1.2822266,9.8916016,2.609375,9.8916016,8.6044922
			L52.4785156,65.6152344z M12.0288086,65.1152344h39.9418945l-0.1210938-8.625c0-5.6142578-4.6240234-6.8339844-9.5195313-8.125
			c-0.71875-0.1894531-1.4365234-0.3789063-2.1347656-0.5830078C39.7060547,48.7607422,37.3154297,52.9169922,32,52.9169922
			c-5.3149414,0-7.706543-4.15625-8.1948242-5.1347656c-0.6992188,0.2041016-1.4165039,0.3935547-2.1357422,0.5830078
			c-4.8955078,1.2910156-9.5195313,2.5107422-9.5195313,8.1210938L12.0288086,65.1152344z"/>
	</g>
	<path style="fill:#172A88;" d="M32,54.6669922c-7.5927734,0-9.8598633-6.5566406-9.8818359-6.6230469l0.4746094-0.1582031
		c0.0854492,0.2568359,2.1826172,6.28125,9.4072266,6.28125s9.3212891-6.0244141,9.4072266-6.28125l0.4746094,0.1582031
		C41.859375,48.1103516,39.5927734,54.6669922,32,54.6669922z"/>
</g>
<g>
	<g>
		<linearGradient id="SVGID_10_" gradientUnits="userSpaceOnUse" x1="42.4332924" y1="47.632267" x2="42.4332924" y2="65.3651199">
			<stop  offset="0" style="stop-color:#EA5514"/>
			<stop  offset="1" style="stop-color:#E83828"/>
		</linearGradient>
		<path style="fill:url(#SVGID_10_);" d="M41.833683,47.983017c-0.4305305,1.6533623-2.0385246,7.4081612-5.9375839,17.382103
			l12.7705688-0.0000076c0,0,0.4960327-7.5401993,0.2204857-15.04673c-0.007061-0.1923256-0.1305962-0.3615074-0.3114357-0.4273491
			l-6.1247978-2.2299805C42.1901245,47.5661011,41.9036217,47.7144318,41.833683,47.983017z"/>
		<path style="fill:#C30D23;" d="M48.9013672,65.6152344H35.5302734l0.1337891-0.3408203
			c3.9160156-10.0195313,5.5273438-15.8164063,5.9277344-17.3544922c0.1035156-0.3984375,0.5605469-0.6318359,0.9443359-0.4941406
			l6.1259766,2.2294922c0.2783203,0.1025391,0.4638672,0.359375,0.4746094,0.6542969
			c0.2734375,7.4335938-0.2148438,14.9960938-0.2207031,15.0722656L48.9013672,65.6152344z M36.2626953,65.1152344h12.1689453
			c0.0800781-1.3300781,0.4511719-8.1123047,0.2050781-14.7880859c-0.0029297-0.0908203-0.0605469-0.1699219-0.1464844-0.2021484
			l-6.125-2.2285156c-0.1162109-0.046875-0.2578125,0.0283203-0.2890625,0.1494141
			C41.6777344,49.5732422,40.0927734,55.2792969,36.2626953,65.1152344z"/>
	</g>
	<g>
		<linearGradient id="SVGID_11_" gradientUnits="userSpaceOnUse" x1="43.0774231" y1="48.3053589" x2="43.0774231" y2="65.3651123">
			<stop  offset="0" style="stop-color:#FAEE00"/>
			<stop  offset="1" style="stop-color:#F39800"/>
		</linearGradient>
		<path style="fill:url(#SVGID_11_);" d="M39.3431396,65.3651123h6.8295898
			c0.2591553-2.4957275,0.6328125-7.5870361,0.6389771-16.116333l-2.5911255-0.9434204
			C43.5679932,51.2635498,41.9232788,58.1622314,39.3431396,65.3651123z"/>
		<path style="fill:#C30D23;" d="M46.3984375,65.6152344h-7.4111328l0.1201172-0.3339844
			c2.6152344-7.3017578,4.2763672-14.3417969,4.8691406-17.0292969l0.0615234-0.2792969l3.0234375,1.1015625v0.1748047
			c-0.0058594,8.7314453-0.4033203,13.8613281-0.6396484,16.1416016L46.3984375,65.6152344z M39.6972656,65.1152344h6.25
			c0.2353516-2.3574219,0.6035156-7.3632813,0.6142578-15.6914063l-2.1582031-0.7861328
			C43.7705078,51.4736328,42.1689453,58.1464844,39.6972656,65.1152344z"/>
	</g>
</g>
<g>
	<g>
		
			<linearGradient id="SVGID_12_" gradientUnits="userSpaceOnUse" x1="42.4332924" y1="47.632267" x2="42.4332924" y2="65.3651199" gradientTransform="matrix(-1 0 0 1 64 0)">
			<stop  offset="0" style="stop-color:#EA5514"/>
			<stop  offset="1" style="stop-color:#E83828"/>
		</linearGradient>
		<path style="fill:url(#SVGID_12_);" d="M22.166317,47.983017c0.4305305,1.6533623,2.0385227,7.4081612,5.9375839,17.382103
			L15.333333,65.3651123c0,0-0.4960327-7.5401993-0.2204847-15.04673c0.0070591-0.1923256,0.1305943-0.3615074,0.3114347-0.4273491
			l6.1247969-2.2299805C21.8098736,47.5661011,22.0963764,47.7144318,22.166317,47.983017z"/>
		<path style="fill:#C30D23;" d="M28.4702148,65.6152344H15.0996094l-0.015625-0.2333984
			c-0.0048828-0.0761719-0.4936523-7.6386719-0.2211914-15.0722656c0.0112305-0.2949219,0.1977539-0.5517578,0.4750977-0.6533203
			l6.1259766-2.2304688c0.3930664-0.1396484,0.8408203,0.0966797,0.9443359,0.4941406
			c0.3999023,1.5361328,2.0078125,7.3242188,5.9287109,17.3544922L28.4702148,65.6152344z M15.5683594,65.1152344h12.1699219
			c-3.8344727-9.8457031-5.4169922-15.5439453-5.8134766-17.0693359c-0.0322266-0.1201172-0.1665039-0.1982422-0.2900391-0.1494141
			l-6.125,2.2294922c-0.0854492,0.03125-0.1435547,0.1103516-0.1469727,0.2021484
			C15.1176758,57.0029297,15.4892578,63.7851563,15.5683594,65.1152344z"/>
	</g>
	<g>
		
			<linearGradient id="SVGID_13_" gradientUnits="userSpaceOnUse" x1="43.0774231" y1="48.3053589" x2="43.0774231" y2="65.3651123" gradientTransform="matrix(-1 0 0 1 64 0)">
			<stop  offset="0" style="stop-color:#FAEE00"/>
			<stop  offset="1" style="stop-color:#F39800"/>
		</linearGradient>
		<path style="fill:url(#SVGID_13_);" d="M24.6568604,65.3651123h-6.8295898
			c-0.2591553-2.4957275-0.6328125-7.5870361-0.6389771-16.116333l2.5911255-0.9434204
			C20.4320068,51.2635498,22.0767212,58.1622314,24.6568604,65.3651123z"/>
		<path style="fill:#C30D23;" d="M25.0117188,65.6152344h-7.4101563l-0.0229492-0.2246094
			c-0.2363281-2.2753906-0.6342773-7.3994141-0.6401367-16.1416016v-0.1748047l3.0234375-1.1015625l0.0615234,0.2792969
			c0.5942383,2.6914063,2.2578125,9.7402344,4.8686523,17.0292969L25.0117188,65.6152344z M18.0527344,65.1152344h6.2495117
			c-2.4672852-6.9570313-4.0708008-13.6376953-4.7050781-16.4775391l-2.1586914,0.7861328
			C17.4492188,57.7617188,17.8173828,62.7617188,18.0527344,65.1152344z"/>
	</g>
</g>
</svg>
