<?xml version="1.0" encoding="UTF-8" standalone="no"?>
<!-- Generated by phantom_svg. -->

<svg
   xmlns:dc="http://purl.org/dc/elements/1.1/"
   xmlns:cc="http://creativecommons.org/ns#"
   xmlns:rdf="http://www.w3.org/1999/02/22-rdf-syntax-ns#"
   xmlns:svg="http://www.w3.org/2000/svg"
   xmlns="http://www.w3.org/2000/svg"
   xmlns:sodipodi="http://sodipodi.sourceforge.net/DTD/sodipodi-0.dtd"
   xmlns:inkscape="http://www.inkscape.org/namespaces/inkscape"
   width="64px"
   height="64px"
   viewBox="0 0 64 64"
   preserveAspectRatio="none"
   version="1.1"
   id="svg147"
   sodipodi:docname="poop_2.svg"
   inkscape:version="0.92.1 r15371">
  <metadata
     id="metadata153">
    <rdf:RDF>
      <cc:Work
         rdf:about="">
        <dc:format>image/svg+xml</dc:format>
        <dc:type
           rdf:resource="http://purl.org/dc/dcmitype/StillImage" />
        <dc:title></dc:title>
      </cc:Work>
    </rdf:RDF>
  </metadata>
  <defs
     id="defs151" />
  <sodipodi:namedview
     pagecolor="#ffffff"
     bordercolor="#666666"
     borderopacity="1"
     objecttolerance="10"
     gridtolerance="10"
     guidetolerance="10"
     inkscape:pageopacity="0"
     inkscape:pageshadow="2"
     inkscape:window-width="1920"
     inkscape:window-height="1029"
     id="namedview149"
     showgrid="false"
     inkscape:zoom="7.375"
     inkscape:cx="21.39841"
     inkscape:cy="42.538992"
     inkscape:window-x="0"
     inkscape:window-y="27"
     inkscape:window-maximized="1"
     inkscape:current-layer="svg147" />
  <g
     id="g6"
     transform="matrix(1,0,0,0.98463239,0,0.97584326)">
    <path
       style="fill:#331c03"
       d="m 56.09375,37.581055 c 0.574219,-1.314453 0.864258,-2.767578 0.864258,-4.331055 0,-4.161133 -2.580078,-7.743164 -7.47461,-10.397949 0.191407,-0.688477 0.28711,-1.418457 0.28711,-2.180176 C 49.770508,9.6240234 33.0625,3.2314453 32.351074,2.9643555 L 31,2.4580078 v 1.4428711 c 0,4.8769531 -4.121094,6.6655271 -8.483887,8.5590821 -4.074219,1.768555 -8.287109,3.59668 -8.287109,8.211914 0,1.270508 0.262207,2.434082 0.781738,3.475098 -5.2900389,1.827636 -7.9692381,4.885742 -7.9692381,9.103027 0,1.818359 0.3920898,3.480469 1.1669922,4.956055 C 4.253418,40.491211 2.25,43.655273 2.25,47.625 2.25,63 24.641602,63 32,63 c 7.358398,0 29.75,0 29.75,-15.375 0,-3.904297 -1.902344,-7.279297 -5.65625,-10.043945 z"
       id="path2"
       inkscape:connector-curvature="0" />
    <path
       style="fill:#3e3a39"
       d="m 32,63.5 c -7.481934,0 -30.25,0 -30.25,-15.875 0,-4.018555 1.9526367,-7.250977 5.8046875,-9.611328 C 6.8823242,36.574219 6.5415039,34.974609 6.5415039,33.25 c 0,-4.308594 2.6201172,-7.46582 7.7900391,-9.390625 -0.399902,-0.976074 -0.602539,-2.04541 -0.602539,-3.1875 0,-4.942871 4.561523,-6.922852 8.586426,-8.669922 C 26.708008,10.095703 30.5,8.449707 30.5,3.9008789 V 1.7368164 l 2.026367,0.7592773 c 0.72461,0.2719727 17.744141,6.7924805 17.744141,18.1757813 0,0.666016 -0.07031,1.312988 -0.208985,1.928711 4.840821,2.727051 7.396485,6.402832 7.396485,10.649414 0,1.487305 -0.253906,2.885742 -0.753906,4.164062 C 60.384766,40.234375 62.25,43.667969 62.25,47.625 62.25,63.5 39.481445,63.5 32,63.5 Z M 31.5,3.1791992 v 0.7216797 c 0,5.2050781 -4.46582,7.1430661 -8.784668,9.0175781 -4.10791,1.783203 -7.986328,3.466797 -7.986328,7.753418 0,1.188477 0.245117,2.282227 0.729004,3.251953 l 0.254394,0.509766 -0.538574,0.186035 c -5.064453,1.749512 -7.6323241,4.65332 -7.6323241,8.630371 0,1.732422 0.3735352,3.321289 1.1098633,4.723633 l 0.2231445,0.424804 -0.4160156,0.240235 C 4.6708984,40.827148 2.75,43.850586 2.75,47.625 2.75,62.5 24.765625,62.5 32,62.5 c 7.234375,0 29.25,0 29.25,-14.875 0,-3.732422 -1.834961,-6.976563 -5.453125,-9.641602 l -0.321289,-0.236328 0.160156,-0.366211 c 0.545899,-1.249023 0.822266,-2.638672 0.822266,-4.130859 0,-3.955566 -2.494141,-7.398926 -7.212891,-9.958496 l -0.349609,-0.189941 0.106445,-0.383301 c 0.177734,-0.641602 0.268555,-1.330078 0.268555,-2.046387 0,-10.6982422 -16.396973,-16.9775391 -17.095215,-17.2392578 z"
       id="path4"
       inkscape:connector-curvature="0" />
  </g>
  <g
     id="g50"
     transform="matrix(1,0,0,0.98463239,0,0.97584326)">
    <linearGradient
       id="SVGID_1_"
       gradientUnits="userSpaceOnUse"
       x1="32"
       y1="62"
       x2="32"
       y2="32.399082">
      <stop
         offset="0"
         style="stop-color:#926134"
         id="stop8" />
      <stop
         offset="1"
         style="stop-color:#C59D62"
         id="stop10" />
    </linearGradient>
    <path
       style="fill:url(#SVGID_1_)"
       d="m 32,33.25 c 0,-2.5 28.75,0 28.75,14.375 C 60.75,62 39.1875,62 32,62 24.8125,62 3.25,62 3.25,47.625 3.25,33.25 32,35.75 32,33.25 Z"
       id="path13"
       inkscape:connector-curvature="0" />
    <linearGradient
       id="SVGID_2_"
       gradientUnits="userSpaceOnUse"
       x1="32"
       y1="45.229168"
       x2="32"
       y2="20.179905">
      <stop
         offset="0"
         style="stop-color:#926134"
         id="stop15" />
      <stop
         offset="1"
         style="stop-color:#C59D62"
         id="stop17" />
    </linearGradient>
    <path
       style="fill:url(#SVGID_2_)"
       d="m 32,21.270832 c 0,-3.020832 23.958332,0 23.958332,11.979168 0,11.979168 -17.96875,11.979168 -23.958332,11.979168 -5.989582,0 -23.958333,0 -23.958333,-11.979168 C 8.041667,21.270832 32,24.291666 32,21.270832 Z"
       id="path20"
       inkscape:connector-curvature="0" />
    <linearGradient
       id="SVGID_3_"
       gradientUnits="userSpaceOnUse"
       x1="32"
       y1="29.057291"
       x2="32"
       y2="3.9010413">
      <stop
         offset="0"
         style="stop-color:#926134"
         id="stop22" />
      <stop
         offset="1"
         style="stop-color:#C59D62"
         id="stop24" />
    </linearGradient>
    <path
       style="fill:url(#SVGID_3_)"
       d="m 32,3.9010413 c 0,0 16.770832,6.2890627 16.770832,16.7708337 0,8.385416 -12.578125,8.385416 -16.770832,8.385416 -4.192707,0 -16.770832,0 -16.770832,-8.385416 C 15.229168,12.286459 32,14.382813 32,3.9010413 Z"
       id="path27"
       inkscape:connector-curvature="0" />
    <linearGradient
       id="SVGID_4_"
       gradientUnits="userSpaceOnUse"
       x1="27.069445"
       y1="20.4375"
       x2="27.069445"
       y2="4.5">
      <stop
         offset="0"
         style="stop-color:#FFFFFF;stop-opacity:0.2"
         id="stop29" />
      <stop
         offset="1"
         style="stop-color:#FFFFFF;stop-opacity:0.3"
         id="stop31" />
    </linearGradient>
    <path
       style="fill:url(#SVGID_4_)"
       d="m 32,4.5 c 0,0 8.75,7.5 0,12.5 -8.75,5 -13.75,3.75 -13.75,1.25 0,-2.5 3.75,-3.75 6.25,-5 5,-2.5 7.5,-5 7.5,-8.75 z"
       id="path34"
       inkscape:connector-curvature="0" />
    <linearGradient
       id="SVGID_5_"
       gradientUnits="userSpaceOnUse"
       x1="32"
       y1="35.75"
       x2="32"
       y2="25.75">
      <stop
         offset="0"
         style="stop-color:#FFFFFF;stop-opacity:0.1"
         id="stop36" />
      <stop
         offset="1"
         style="stop-color:#FFFFFF;stop-opacity:0.2"
         id="stop38" />
    </linearGradient>
    <path
       style="fill:url(#SVGID_5_)"
       d="m 48.25,25.75 c 0,0 -1.25,3.75 -16.25,3.75 -15,0 -16.25,-3.75 -16.25,-3.75 0,0 -2.5,0 -3.75,2.5 -1.581139,3.162277 2.5,7.5 20,7.5 17.5,0 21.581139,-4.337723 20,-7.5 -1.25,-2.5 -3.75,-2.5 -3.75,-2.5 z"
       id="path41"
       inkscape:connector-curvature="0" />
    <linearGradient
       id="SVGID_6_"
       gradientUnits="userSpaceOnUse"
       x1="32"
       y1="53.846146"
       x2="32"
       y2="40.75">
      <stop
         offset="0"
         style="stop-color:#FFFFFF;stop-opacity:0.1"
         id="stop43" />
      <stop
         offset="1"
         style="stop-color:#FFFFFF;stop-opacity:0.2"
         id="stop45" />
    </linearGradient>
    <path
       style="fill:url(#SVGID_6_)"
       d="m 54.5,40.75 c 0,0 -5.253792,5.910225 -22.5,5.910225 C 14.753792,46.660225 9.5,40.75 9.5,40.75 c 0,0 -2.8743682,0.274521 -4.3115525,3.148891 C 3.3705375,47.53471 11.879422,53.846146 32,53.846146 c 20.120578,0 28.629463,-6.311436 26.811554,-9.947255 C 57.374367,41.024521 54.5,40.75 54.5,40.75 Z"
       id="path48"
       inkscape:connector-curvature="0" />
  </g>
  <g
     id="g84">
    <g
       id="g61">
      <linearGradient
         id="SVGID_7_"
         gradientUnits="userSpaceOnUse"
         x1="42"
         y1="39.5"
         x2="42"
         y2="24.5">
        <stop
           offset="0"
           style="stop-color:#D9DADA"
           id="stop52" />
        <stop
           offset="1"
           style="stop-color:#FFFFFF"
           id="stop54" />
      </linearGradient>
      <path
         style="fill:url(#SVGID_7_);"
         d="M42,24.5c5.625,0,7.5,4.6875,7.5,7.5s-1.875,7.5-7.5,7.5s-7.5-4.6875-7.5-7.5    S36.375,24.5,42,24.5z"
         id="path57" />
      <path
         style="fill:#231815;"
         d="M42,40c-5.8691406,0-8-4.7841797-8-8s2.1308594-8,8-8s8,4.7841797,8,8S47.8691406,40,42,40z M42,25    c-5.1357422,0-7,4.1860352-7,7c0,2.8134766,1.8642578,7,7,7s7-4.1865234,7-7C49,29.1860352,47.1357422,25,42,25z"
         id="path59" />
    </g>
    <linearGradient
       id="SVGID_8_"
       gradientUnits="userSpaceOnUse"
       x1="42"
       y1="36.6875"
       x2="42"
       y2="27.3125">
      <stop
         offset="0"
         style="stop-color:#231815"
         id="stop63" />
      <stop
         offset="1"
         style="stop-color:#717071"
         id="stop65" />
    </linearGradient>
    <path
       style="fill:url(#SVGID_8_);"
       d="M42,27.3125c2.8125,0,3.75,2.9296875,3.75,4.6875s-0.9375,4.6875-3.75,4.6875   S38.25,33.7578125,38.25,32S39.1875,27.3125,42,27.3125z"
       id="path68" />
    <linearGradient
       id="SVGID_9_"
       gradientUnits="userSpaceOnUse"
       x1="40.125"
       y1="32"
       x2="40.125"
       y2="28.25"
       gradientTransform="matrix(0.76989067,0,0,0.76989067,8.8016817,6.5005884)">
      <stop
         offset="0"
         style="stop-color:#FFFFFF;stop-opacity:0.5"
         id="stop70" />
      <stop
         offset="1"
         style="stop-color:#FFFFFF"
         id="stop72" />
    </linearGradient>
    <circle
       style="fill:url(#SVGID_9_);stroke-width:0.76989067"
       cx="39.693546"
       cy="29.693544"
       r="1.443545"
       id="circle75" />
    <linearGradient
       id="SVGID_10_"
       gradientUnits="userSpaceOnUse"
       x1="44.5"
       y1="35.75"
       x2="44.5"
       y2="33.25"
       gradientTransform="matrix(0.80824223,0,0,0.80824223,8.2935236,6.3759459)">
      <stop
         offset="0"
         style="stop-color:#FFFFFF;stop-opacity:0.5"
         id="stop77" />
      <stop
         offset="1"
         style="stop-color:#FFFFFF"
         id="stop79" />
    </linearGradient>
    <circle
       style="fill:url(#SVGID_10_);stroke-width:0.8082422"
       cx="44.260303"
       cy="34.260303"
       r="1.0103028"
       id="circle82" />
  </g>
  <g
     id="g118">
    <g
       id="g95">
      <linearGradient
         id="SVGID_11_"
         gradientUnits="userSpaceOnUse"
         x1="22"
         y1="39.5"
         x2="22"
         y2="24.5">
        <stop
           offset="0"
           style="stop-color:#D9DADA"
           id="stop86" />
        <stop
           offset="1"
           style="stop-color:#FFFFFF"
           id="stop88" />
      </linearGradient>
      <path
         style="fill:url(#SVGID_11_);"
         d="M22,24.5c5.625,0,7.5,4.6875,7.5,7.5s-1.875,7.5-7.5,7.5s-7.5-4.6875-7.5-7.5    S16.375,24.5,22,24.5z"
         id="path91" />
      <path
         style="fill:#231815;"
         d="M22,40c-5.8696289,0-8-4.7841797-8-8s2.1303711-8,8-8s8,4.7841797,8,8S27.8696289,40,22,40z M22,25    c-5.1357422,0-7,4.1860352-7,7c0,2.8134766,1.8642578,7,7,7s7-4.1865234,7-7C29,29.1860352,27.1357422,25,22,25z"
         id="path93" />
    </g>
    <linearGradient
       id="SVGID_12_"
       gradientUnits="userSpaceOnUse"
       x1="22"
       y1="36.6875"
       x2="22"
       y2="27.3125">
      <stop
         offset="0"
         style="stop-color:#231815"
         id="stop97" />
      <stop
         offset="1"
         style="stop-color:#717071"
         id="stop99" />
    </linearGradient>
    <path
       style="fill:url(#SVGID_12_);"
       d="M22,27.3125c2.8125,0,3.75,2.9296875,3.75,4.6875s-0.9375,4.6875-3.75,4.6875   S18.25,33.7578125,18.25,32S19.1875,27.3125,22,27.3125z"
       id="path102" />
    <linearGradient
       id="SVGID_13_"
       gradientUnits="userSpaceOnUse"
       x1="20.125"
       y1="32"
       x2="20.125"
       y2="28.25"
       gradientTransform="matrix(0.89772919,0,0,0.89772919,1.8664423,2.8891504)">
      <stop
         offset="0"
         style="stop-color:#FFFFFF;stop-opacity:0.5"
         id="stop104" />
      <stop
         offset="1"
         style="stop-color:#FFFFFF"
         id="stop106" />
    </linearGradient>
    <circle
       style="fill:url(#SVGID_13_);stroke-width:0.89772922"
       cx="19.933243"
       cy="29.933243"
       r="1.6832422"
       id="circle109" />
    <linearGradient
       id="SVGID_14_"
       gradientUnits="userSpaceOnUse"
       x1="24.5"
       y1="35.75"
       x2="24.5"
       y2="33.25"
       gradientTransform="matrix(0.69318757,0,0,0.69318757,7.1333891,10.201513)">
      <stop
         offset="0"
         style="stop-color:#FFFFFF;stop-opacity:0.5"
         id="stop111" />
      <stop
         offset="1"
         style="stop-color:#FFFFFF"
         id="stop113" />
    </linearGradient>
    <circle
       style="fill:url(#SVGID_14_);stroke-width:0.69318759"
       cx="24.116484"
       cy="34.116486"
       r="0.86648446"
       id="circle116" />
  </g>
  <g
     id="g129">
    <linearGradient
       id="SVGID_15_"
       gradientUnits="userSpaceOnUse"
       x1="32.0000038"
       y1="53.7120323"
       x2="32.0000038"
       y2="43.4355049">
      <stop
         offset="0"
         style="stop-color:#D97783"
         id="stop120" />
      <stop
         offset="1"
         style="stop-color:#D94C5D"
         id="stop122" />
    </linearGradient>
    <path
       style="fill:url(#SVGID_15_);"
       d="M48.1766243,45.6237221c-2.696106-5.0925789-6.7402611,0.2996254-16.1766205,0.2996254   s-13.4805183-5.3922043-16.1766224-0.2996254c-2.5229235,4.7655754,5.3922081,8.0883102,16.1766224,8.0883102   S50.6995468,50.3892975,48.1766243,45.6237221z"
       id="path125" />
    <path
       style="fill:#231815;"
       d="M32.0000038,54.125c-8.2847271,0-14.8169861-1.958889-16.6415939-4.9898987   c-0.7214174-1.1974487-0.7251043-2.5423393-0.0115843-3.8903923c0.8941364-1.6882248,2.0447197-2.4749374,3.6207829-2.4749374   c1.1442642,0,2.464407,0.4065208,3.9936028,0.8762321c2.3317089,0.7182579,5.2337055,1.6113434,9.0387936,1.6113434   c3.8050842,0,6.7076073-0.8930855,9.0393181-1.6113434c1.528141-0.4697113,2.8488121-0.8762321,3.9936028-0.8762321   c1.5755348,0,2.7266464,0.7867126,3.6207809,2.4749374c0.7129936,1.348053,0.7087822,2.6929436-0.0115852,3.8903923   C46.8169861,52.166111,40.2852554,54.125,32.0000038,54.125z M18.9676075,43.8482132   c-1.1795464,0-1.9525681,0.5508041-2.6676674,1.9020157c-0.5418549,1.0236778-0.5476465,1.9483566-0.0179043,2.8288002   c1.6087093,2.6718826,7.9255962,4.4675293,15.717968,4.4675293s14.1092567-1.7956467,15.7184906-4.4675293   c0.5297432-0.8804436,0.5234261-1.8051224-0.0179024-2.8288002c-0.7150993-1.3512115-1.488121-1.9020157-2.6676674-1.9020157   c-0.982605,0-2.171627,0.365448-3.6766014,0.8288383c-2.4001617,0.7393227-5.3890457,1.6587372-9.3563194,1.6587372   s-6.9551048-0.9194145-9.3563232-1.6587372C21.1387081,44.2136612,19.9496841,43.8482132,18.9676075,43.8482132z"
       id="path127" />
  </g>
  <polygon
     style="fill:#FF195F;"
     points="8.75,38 10.5,39.75 12.25,38 15.75,41.5 14,43.25 12.25,41.5 10.5,43.25 7,39.75 "
     id="polygon131" />
  <polygon
     style="fill:#FF195F;"
     points="55.25,38 53.5,39.75 51.75,38 48.25,41.5 50,43.25 51.75,41.5 53.5,43.25 57,39.75 "
     id="polygon133" />
  <g
     id="g135" />
  <g
     id="g137" />
  <g
     id="g139" />
  <g
     id="g141" />
  <g
     id="g143" />
  <g
     id="g145" />
</svg>
