<?xml version="1.0" encoding="utf-8"?>
<!-- Generator: Adobe Illustrator 15.0.2, SVG Export Plug-In . SVG Version: 6.00 Build 0)  -->
<!DOCTYPE svg PUBLIC "-//W3C//DTD SVG 1.1//EN" "http://www.w3.org/Graphics/SVG/1.1/DTD/svg11.dtd">
<svg version="1.1" id="レイヤー_1" xmlns="http://www.w3.org/2000/svg" xmlns:xlink="http://www.w3.org/1999/xlink" x="0px"
	 y="0px" width="64px" height="64px" viewBox="0 0 64 64" style="enable-background:new 0 0 64 64;" xml:space="preserve">
<g>
	<g>
		<polygon style="fill:#FFFFFF;" points="57.8339844,32.4169922 58.8339844,37.1669922 67,43 65.75,66 43.75,66 
			45.4169922,44.5839844 		"/>
		<path style="fill:#662D91;" d="M44,34.9453125l9.6777344,3.3984375c0,0-2.3769531,5.40625-7.0605469,7.5732422L44.0566406,63
			l-5.9726563-18.75L44,39V34.9453125z"/>
		<path style="fill:none;stroke:#662D91;stroke-width:0.965892;stroke-miterlimit:10;" d="M54.3271484,35.5214844
			c0,0,0,5.6757813-7.5849609,10.3955078l-2.9316406,14.6669922"/>
		<g>
			<path style="fill:#E0C6E5;stroke:#662D91;stroke-width:0.965892;stroke-miterlimit:10;" d="M40.6933594,19.7983398
				l0.7119141,6.5234375c0,0-0.5917969,3.8349609-0.3300781,4.7680664c0.6503906,2.3095703,4.8701172,4.5537109,6.2001953,7.2998047
				c1.1777344,2.4296875,4.3476563,0.9658203,6.4394531-0.4833984c2.0927734-1.4482422,5.6416016-6.1289063,5.6416016-6.1289063
				s0.796875-7.4736328,1.2001953-9.0834961c0.4023438-1.6098633-8.6933594-7.3242188-8.6933594-7.3242188
				S46.4082031,16.2568359,40.6933594,19.7983398z"/>
			<path style="fill:#FFD72E;stroke:#662D91;stroke-width:0.965892;stroke-miterlimit:10;" d="M40.7285156,21.4819336
				c0,0,0.0302734-2.152832-0.9150391-4.6679688c-0.9453125-2.515625,0.3837891-3.784668,0.3837891-3.784668
				s0.6308594,2.1347656,1.0458984,2.1699219c0,0-0.6054688-4.4594727,2.171875-6.7602539
				c0,0,0.8447266,1.0532227,1.3857422,2.171875c0.5449219-3.4125977,2.8076172-4.6054688,2.6513672-6.7246094
				c0,0,2.0673828,0.7158203,3.1445313,3.0703125c0,0,0.8574219-1.8588867,3.375-4.769043
				c1.4785156,2.3544922,2.484375,3.6933594,2.90625,6.8413086c0,0,1.4052734-2.3613281,2.0048828-3.2089844
				c0,0,2.2949219,6.3505859,1.9121094,8.5336914l0.984375-2.0532227c0,0,0.7011719,6.5463867,0.3144531,6.9824219
				c-0.3867188,0.4355469-1.5244141,5.1416016-1.5244141,5.1416016L40.7285156,21.4819336z"/>
			<path style="fill:#662D91;" d="M47.9199219,28.6293945c0,0-1.9619141-0.8227539-4.0605469-2.2001953
				c-2.7080078-1.7773438-1.8896484,0.4423828-1.7783203,0.9311523c0.2226563,0.9775391,1.015625,2.7075195,2.7929688,2.8759766
				C47.3154297,30.4697266,47.9199219,28.6293945,47.9199219,28.6293945z"/>
			<path style="fill:#662D91;" d="M51.2158203,28.8041992c0,0,2.6181641-0.6767578,4.2353516-1.0297852
				c2.3574219-0.5146484,3.9052734-1.4526367,2.9023438,0.8232422
				C56.7607422,32.2084961,52.0449219,31.2744141,51.2158203,28.8041992z"/>
			<path style="fill:#FFFFFF;" d="M47.4091797,28.8168945l-4.125-2.0112305c0,0-0.1201172,2.1826172,1.390625,2.6464844
				C46.2148438,29.925293,47.4091797,28.8168945,47.4091797,28.8168945z"/>
			<path style="fill:#FFFFFF;" d="M51.8349609,29.0361328c0,0,3.7646484-0.8037109,4.9824219-1.1899414
				c0,0,0.0996094,1.8144531-1.2841797,2.2250977C54.2646484,30.4477539,52.7958984,30.4584961,51.8349609,29.0361328z"/>
			<path style="fill:#662D91;" d="M44.1220703,27.1416016l2.2832031,1.1450195c0,0-0.4873047,1.168457-1.5625,0.6860352
				C43.4208984,28.3339844,44.1220703,27.1416016,44.1220703,27.1416016z"/>
			<path style="fill:#662D91;" d="M52.7871094,28.559082l2.7207031-0.5551758c0,0,0.1923828,1.4213867-1.2216797,1.5629883
				C52.8710938,29.7084961,52.7871094,28.559082,52.7871094,28.559082z"/>
			<path style="fill:#FFFFFF;stroke:#662D91;stroke-width:0.482946;stroke-miterlimit:10;" d="M46.5791016,35.7714844
				c0,0,5.3544922,0.0839844,6.9697266-3.5395508c0,0,2.0244141,3.0620117-1.0478516,4.5463867
				C49.6914063,38.1357422,50.7880859,35.6435547,46.5791016,35.7714844z"/>
			<polygon style="fill:#662D91;" points="55.875,18.2397461 59.3564453,19.8901367 60.3095703,22.5205078 59.6728516,24.6767578 
				54.9394531,26.1049805 			"/>
			<path style="fill:none;stroke:#662D91;stroke-width:0.482946;stroke-miterlimit:10;" d="M49.6914063,35.2900391
				c0,0,1.2128906,0.7724609,1.3671875,1.8886719"/>
			<path style="fill:none;stroke:#662D91;stroke-width:0.482946;stroke-miterlimit:10;" d="M50.9589844,34.7900391
				c0,0,1.453125,0.9013672,1.5419922,1.9882813"/>
			<path style="fill:none;stroke:#662D91;stroke-width:0.482946;stroke-miterlimit:10;" d="M52.2392578,33.9619141
				c0,0,0.9208984,0.9375,1.3935547,1.9677734"/>
			
				<line style="fill:none;stroke:#662D91;stroke-width:0.482946;stroke-miterlimit:10;" x1="53.0507813" y1="33.0898438" x2="54.2148438" y2="34.328125"/>
			<path style="fill:#662D91;" d="M41.4052734,31.0898438c0,0,2.1367188,1.3676758,3.2392578,2.3818359
				c1.1025391,1.0126953,1.5703125,3.3066406,1.5703125,3.3066406S41.4501953,32.5244141,41.4052734,31.0898438z"/>
			<polygon style="fill:#662D91;" points="60,29.0361328 56.0859375,33.0283203 55.0888672,37.0205078 60,31.9584961 			"/>
			<polygon style="fill:#662D91;" points="47.2470703,27.6425781 47.9199219,28.7915039 47.8330078,30.2866211 
				48.6904297,28.6694336 			"/>
			<path style="fill:#662D91;" d="M49.9296875,27.3461914l0.75,1.7177734l1.2490234,1.1928711l-0.09375-1.465332
				C51.8349609,28.7915039,50.3691406,28.3769531,49.9296875,27.3461914z"/>
			<g>
				<polygon style="fill:#662D91;" points="39.7900391,21.2451172 38.5986328,21.9487305 39.0654297,24.9477539 
					41.0771484,25.2700195 				"/>
				<polygon style="fill:#662D91;" points="45.3847656,17.9038086 48.7871094,18.8125 49.5488281,20 50.9794922,20 
					51.3007813,24.125 49.2070313,24.0527344 46.0683594,25.8686523 				"/>
				<polygon style="fill:#662D91;" points="57.5390625,18.9946289 62.6044922,23.0966797 62.3564453,24.9912109 
					56.8193359,25.7583008 				"/>
			</g>
			
				<circle style="fill:#FFFFFF;stroke:#662D91;stroke-width:1.0156599;stroke-miterlimit:10;" cx="44.0561523" cy="22.1308594" r="4.1049805"/>
			
				<circle style="fill:#FFFFFF;stroke:#662D91;stroke-width:1.0156599;stroke-miterlimit:10;" cx="53.9272461" cy="22.1308594" r="4.1049805"/>
			<path style="fill:#662D91;" d="M42.0986328,24.2055664l3.8544922-4.402832
				c-0.5273438-0.4995117-1.234375-0.8110352-2.0175781-0.8110352c-1.6230469,0-2.9384766,1.3154297-2.9384766,2.9375
				C40.9970703,22.8530273,41.4316406,23.6669922,42.0986328,24.2055664z"/>
			<path style="fill:#662D91;" d="M52.1738281,24.4863281l3.9609375-4.0048828
				c-0.5048828-0.8857422-1.4472656-1.4897461-2.5400391-1.4897461c-1.6240234,0-2.9384766,1.3154297-2.9384766,2.9375
				C50.65625,23.0336914,51.2724609,23.984375,52.1738281,24.4863281z"/>
		</g>
		<polyline style="fill:none;stroke:#662D91;stroke-width:0.965892;stroke-miterlimit:10;" points="58.3896484,32.9375 
			58.6728516,37.4394531 68.5009766,43.75 		"/>
		<path style="fill:none;stroke:#662D91;stroke-width:0.965892;stroke-miterlimit:10;" d="M53.25,44.9541016
			c0,0,2.6787109-1.4921875,5.4228516-7.5146484"/>
	</g>
	<g>
		<path style="fill:#E0C6E5;stroke:#662D91;stroke-width:0.918306;stroke-miterlimit:10;" d="M29.9506836,25.9233398
			c0,0,2.8544922-0.9130859,2.8544922-2.5625c0,0,4.4399414-4.6108398,1.3286133-6.8139648
			C31.0229492,14.3432617,26.2646484,23.5390625,29.9506836,25.9233398z"/>
		<path style="fill:#FFFFFF;stroke:#662D91;stroke-width:0.950734;stroke-miterlimit:10;" d="M30.7255859,28.1015625
			c0,0-0.0131836-13.7583008-0.0478516-18.6899414c-0.0058594-0.8383789-1.6049805-1.4262695-3.2797852-1.4262695
			s-3.2583008,0.5878906-3.2797852,1.4262695c-0.1293945,5.0507813-0.0478516,18.890625-0.0478516,18.890625
			c-6.8383789,1.6923828-11.9150391,7.8520508-11.9150391,15.2143555c0,8.6650391,7.0244141,15.6894531,15.6899414,15.6894531
			s15.6889648-7.0244141,15.6889648-15.6894531C43.5341797,35.8359375,38.0136719,29.4560547,30.7255859,28.1015625z"/>
		<g>
			<path style="fill:#E0C6E5;stroke:#662D91;stroke-width:0.918306;stroke-miterlimit:10;" d="M19.8291016,16.1254883
				c0,0-0.4111328-1.8725586,0.2631836-2.1474609c0.6738281-0.2744141,3.7006836,1.0600586,4.9633789,1.375
				S29.6630859,16.1362305,28.5,17.2788086c-1.1625977,1.1430664-3.2617188,1.2431641-4.5888672,0.9423828
				C22.5839844,17.9199219,19.7900391,17.4243164,19.8291016,16.1254883z"/>
			<path style="fill:#E0C6E5;stroke:#662D91;stroke-width:0.918306;stroke-miterlimit:10;" d="M16.9741211,23.0234375
				c0,0,0.9819336-3.3847656,1.9125977-2.8583984c0.9301758,0.5268555,5.7358398,3.519043,5.5795898,4.6953125
				c-0.1552734,1.1762695-2.3706055,0.8188477-2.3706055,0.8188477s0.4282227,1.6552734-1.1699219,1.7021484
				C19.3271484,27.4277344,15.4453125,24.2324219,16.9741211,23.0234375z"/>
			<path style="fill:#E0C6E5;stroke:#662D91;stroke-width:0.918306;stroke-miterlimit:10;" d="M34.1943359,19.2836914
				c0.3583984-0.5366211,0.578125-2.5332031-0.5-3.1582031c-1.0776367-0.6245117-3.6625977-0.8930664-4.7573242-1.7138672
				c-1.0942383-0.8203125-2.9594727-0.4931641-2.2978516,2.3476563
				C27.3012695,19.6005859,32.9697266,21.112793,34.1943359,19.2836914z"/>
			<path style="fill:#E0C6E5;stroke:#662D91;stroke-width:0.918306;stroke-miterlimit:10;" d="M17.855957,19.5874023
				c0,0,0.2133789-2.7133789,1.2651367-2.6069336s5.8637695,2.6069336,5.8637695,2.6069336s2.5307617,0.8198242,1.6342773,2.3393555
				C25.722168,23.4453125,17.855957,21.2788086,17.855957,19.5874023z"/>
		</g>
		<path style="fill:#ADFF1F;" d="M24.4960938,40.7851563c-3.1367188-0.6191406-6.6206055-0.9296875-9.7280273-1.0791016
			c-0.3217773,1.15625-0.5078125,2.3681641-0.5078125,3.6269531c0,7.4541016,6.0419922,13.4960938,13.4956055,13.4960938
			c7.453125,0,13.4960938-6.0419922,13.4960938-13.4960938c0-1.375-0.2089844-2.7001953-0.5917969-3.9501953
			C36.5292969,40.4736328,29.777832,41.8251953,24.4960938,40.7851563z"/>
	</g>
</g>
</svg>
