<?xml version="1.0" encoding="utf-8"?>
<!-- Generator: Adobe Illustrator 15.0.2, SVG Export Plug-In . SVG Version: 6.00 Build 0)  -->
<!DOCTYPE svg PUBLIC "-//W3C//DTD SVG 1.1//EN" "http://www.w3.org/Graphics/SVG/1.1/DTD/svg11.dtd">
<svg version="1.1" id="レイヤー_1" xmlns="http://www.w3.org/2000/svg" xmlns:xlink="http://www.w3.org/1999/xlink" x="0px"
	 y="0px" width="64px" height="64px" viewBox="0 0 64 64" style="enable-background:new 0 0 64 64;" xml:space="preserve">
<g>
	<g>
		<polygon style="fill:#FFFFFF;" points="57.8339844,32.4169922 58.8339844,37.1669922 67,43 65.75,66 43.75,66 
			45.4169922,44.5839844 		"/>
		<path style="fill:#662D91;" d="M44,34.9453125l9.6777344,3.3984375c0,0-2.3769531,5.40625-7.0605469,7.5732422L44.0566406,63
			l-5.9726563-18.75L44,39V34.9453125z"/>
		<path style="fill:#662D91;" d="M44.2841797,60.6787109l-0.9472656-0.1894531l2.9726563-14.8720703l0.1777344-0.1103516
			c7.2382813-4.5039063,7.3564453-9.9326172,7.3564453-9.9873047l0.9667969,0.0019531
			c0,0.2412109-0.0888672,5.9111328-7.6357422,10.6943359L44.2841797,60.6787109z"/>
		<g>
			<g>
				<path style="fill:#E0C6E5;" d="M40.6933594,19.7983398l0.7119141,6.5234375c0,0-0.5917969,3.8349609-0.3300781,4.7680664
					c0.6503906,2.3095703,4.8701172,4.5537109,6.2001953,7.2998047c1.1777344,2.4296875,4.3476563,0.9658203,6.4394531-0.4833984
					c2.0927734-1.4482422,5.6416016-6.1289063,5.6416016-6.1289063s0.796875-7.4736328,1.2001953-9.0834961
					c0.4023438-1.6098633-8.6933594-7.3242188-8.6933594-7.3242188S46.4082031,16.2568359,40.6933594,19.7983398z"/>
				<path style="fill:#662D91;" d="M49.3623047,40.1708984L49.3623047,40.1708984
					c-1.1513672,0-2.0234375-0.5429688-2.5214844-1.5703125c-0.6054688-1.2509766-1.8916016-2.4277344-3.1347656-3.5654297
					c-1.4003906-1.2822266-2.7236328-2.4941406-3.0957031-3.8144531c-0.2685547-0.9560547,0.1884766-4.1259766,0.3076172-4.909668
					l-0.7373047-6.7626953l0.2578125-0.1606445c5.7314453-3.5512695,11.1210938-4.4580078,11.3476563-4.4946289l0.1796875-0.0292969
					l0.1542969,0.0966797c2.8242188,1.7744141,9.3447266,6.0908203,8.9052734,7.8505859
					c-0.390625,1.5595703-1.1806641,8.9428711-1.1884766,9.0175781l-0.0146484,0.1333008l-0.0810547,0.1074219
					c-0.1464844,0.1933594-3.6201172,4.7587891-5.7519531,6.234375
					C52.9833984,39.0009766,51.0429688,40.1708984,49.3623047,40.1708984z M41.2070313,20.050293l0.6855469,6.2822266
					l-0.0097656,0.0629883c-0.2226563,1.4428711-0.5126953,3.9580078-0.3427734,4.5639648
					c0.296875,1.0546875,1.5224609,2.1762695,2.8183594,3.362793c1.3105469,1.1992188,2.6650391,2.4394531,3.3515625,3.8564453
					c0.3388672,0.7001953,0.8642578,1.0263672,1.6523438,1.0263672c1.4179688,0,3.1630859-1.0625,4.0771484-1.6962891
					c1.8359375-1.2695313,4.9140625-5.2192383,5.4511719-5.9174805c0.1132813-1.050293,0.8164063-7.4921875,1.1972656-9.0146484
					c0.0439453-0.7553711-3.75-3.8105469-8.3232422-6.6982422C50.8085938,16.0625,46.1083984,17.0776367,41.2070313,20.050293z"/>
			</g>
			<g>
				<path style="fill:#FFD72E;" d="M40.7285156,21.4819336c0,0,0.0302734-2.152832-0.9150391-4.6679688
					c-0.9453125-2.515625,0.3837891-3.784668,0.3837891-3.784668s0.6308594,2.1347656,1.0458984,2.1699219
					c0,0-0.6054688-4.4594727,2.171875-6.7602539c0,0,0.8447266,1.0532227,1.3857422,2.171875
					c0.5449219-3.4125977,2.8076172-4.6054688,2.6513672-6.7246094c0,0,2.0673828,0.7158203,3.1445313,3.0703125
					c0,0,0.8574219-1.8588867,3.375-4.769043c1.4785156,2.3544922,2.484375,3.6933594,2.90625,6.8413086
					c0,0,1.4052734-2.3613281,2.0048828-3.2089844c0,0,2.2949219,6.3505859,1.9121094,8.5336914l0.984375-2.0532227
					c0,0,0.7011719,6.5463867,0.3144531,6.9824219c-0.3867188,0.4355469-1.5244141,5.1416016-1.5244141,5.1416016
					L40.7285156,21.4819336z"/>
				<path style="fill:#662D91;" d="M60.9345703,24.9667969l-20.6943359-3.0688477l0.0058594-0.4223633
					c0-0.0205078,0.0146484-2.1000977-0.8847656-4.4916992c-1.0458984-2.7822266,0.4384766-4.2431641,0.5019531-4.3037109
					l0.5722656-0.5463867l0.2246094,0.7587891c0.0263672,0.0893555,0.0546875,0.1787109,0.0830078,0.2680664
					c0.1367188-1.5732422,0.6630859-3.6850586,2.3642578-5.09375l0.3769531-0.3129883l0.3076172,0.3828125
					c0.0234375,0.0297852,0.4042969,0.5068359,0.8212891,1.1616211c0.3701172-1.1850586,0.9267578-2.0820313,1.3964844-2.8393555
					c0.5732422-0.9228516,1.0263672-1.6523438,0.9609375-2.5371094l-0.0537109-0.7319336l0.6933594,0.2397461
					c0.0810547,0.0283203,1.7958984,0.6411133,2.9873047,2.5170898c0.4882813-0.8261719,1.4257813-2.2451172,3.0087891-4.0751953
					l0.4267578-0.4936523l0.7353516,1.1655273c1.0722656,1.6899414,1.8935547,2.9848633,2.3632813,5.1293945
					c0.4501953-0.7387695,1.0214844-1.6577148,1.3564453-2.1318359l0.5341797-0.7553711l0.3144531,0.8701172
					c0.0742188,0.2045898,1.4335938,3.9907227,1.8574219,6.7485352l0.8837891-1.8452148l0.1816406,1.6899414
					c0.7236328,6.7583008,0.3398438,7.1914063,0.1953125,7.3540039c-0.2128906,0.3149414-0.890625,2.7607422-1.4160156,4.9345703
					L60.9345703,24.9667969z M41.2001953,21.0634766l19.0039063,2.8183594
					c0.4296875-1.7475586,1.0947266-4.2739258,1.4794922-4.8549805c0.1191406-0.4389648-0.0019531-2.6259766-0.2148438-4.9614258
					l-1.7558594,3.6621094l0.6064453-3.4575195c0.2529297-1.4448242-0.8564453-5.2246094-1.5722656-7.3676758
					c-0.640625,1.0078125-1.4433594,2.3554688-1.4541016,2.3735352l-0.7089844,1.1918945l-0.1845703-1.375
					c-0.3701172-2.7587891-1.1962891-4.0605469-2.4472656-6.0317383l-0.0380859-0.0605469
					c-2.1103516,2.527832-2.8710938,4.1420898-2.8789063,4.1586914L50.59375,8.109375l-0.4365234-0.9521484
					c-0.625-1.3662109-1.6230469-2.1367188-2.2607422-2.5146484c-0.1435547,0.840332-0.5947266,1.5668945-1.0664063,2.3261719
					c-0.6044922,0.9746094-1.2910156,2.0795898-1.5527344,3.7182617l-0.2421875,1.5180664l-0.6689453-1.3837891
					c-0.3105469-0.6416016-0.7324219-1.2695313-1.0166016-1.6645508c-2.1064453,2.1796875-1.6328125,5.9379883-1.6279297,5.9780273
					l0.0800781,0.5957031l-0.5996094-0.0498047c-0.2001953-0.0170898-0.5820313-0.0493164-1.1210938-1.4702148
					c-0.1640625,0.5415039-0.2226563,1.3500977,0.1845703,2.4335938
					C40.9931641,18.5800781,41.1621094,20.2954102,41.2001953,21.0634766z"/>
			</g>
			<path style="fill:#662D91;" d="M47.9199219,28.6293945c0,0-1.9619141-0.8227539-4.0605469-2.2001953
				c-2.7080078-1.7773438-1.8896484,0.4423828-1.7783203,0.9311523c0.2226563,0.9775391,1.015625,2.7075195,2.7929688,2.8759766
				C47.3154297,30.4697266,47.9199219,28.6293945,47.9199219,28.6293945z"/>
			<path style="fill:#662D91;" d="M51.2158203,28.8041992c0,0,2.6181641-0.6767578,4.2353516-1.0297852
				c2.3574219-0.5146484,3.9052734-1.4526367,2.9023438,0.8232422
				C56.7607422,32.2084961,52.0449219,31.2744141,51.2158203,28.8041992z"/>
			<path style="fill:#FFFFFF;" d="M47.4091797,28.8168945l-4.125-2.0112305c0,0-0.1201172,2.1826172,1.390625,2.6464844
				C46.2148438,29.925293,47.4091797,28.8168945,47.4091797,28.8168945z"/>
			<path style="fill:#FFFFFF;" d="M51.8349609,29.0361328c0,0,3.7646484-0.8037109,4.9824219-1.1899414
				c0,0,0.0996094,1.8144531-1.2841797,2.2250977C54.2646484,30.4477539,52.7958984,30.4584961,51.8349609,29.0361328z"/>
			<path style="fill:#662D91;" d="M44.1220703,27.1416016l2.2832031,1.1450195c0,0-0.4873047,1.168457-1.5625,0.6860352
				C43.4208984,28.3339844,44.1220703,27.1416016,44.1220703,27.1416016z"/>
			<path style="fill:#662D91;" d="M52.7871094,28.559082l2.7207031-0.5551758c0,0,0.1923828,1.4213867-1.2216797,1.5629883
				C52.8710938,29.7084961,52.7871094,28.559082,52.7871094,28.559082z"/>
			<g>
				<path style="fill:#FFFFFF;" d="M46.5791016,35.7714844c0,0,5.3544922,0.0839844,6.9697266-3.5395508
					c0,0,2.0244141,3.0620117-1.0478516,4.5463867C49.6914063,38.1357422,50.7880859,35.6435547,46.5791016,35.7714844z"/>
				<path style="fill:#662D91;" d="M51.1376953,37.4257813c-0.5332031,0-0.8789063-0.2509766-1.2441406-0.515625
					c-0.5537109-0.4023438-1.2421875-0.90625-3.0058594-0.90625L46.8867188,36c-0.0097656,0-0.0195313,0-0.0292969,0
					c-0.1201172,0-0.2050781,0-0.2480469,0h-0.0341797l-0.0039063-0.4765625
					c0.09375-0.0019531,0.1845703-0.0009766,0.2724609-0.0009766c1.1914063-0.0439453,5.1591797-0.4169922,6.484375-3.3901367
					l0.1796875-0.4018555L53.75,32.0981445c0.0410156,0.0620117,1,1.5356445,0.5966797,3.0024414
					c-0.2216797,0.8066406-0.8076172,1.4443359-1.7402344,1.8955078
					C51.9990234,37.2890625,51.5322266,37.4257813,51.1376953,37.4257813z M48.7744141,35.7763672
					c0.6621094,0.2050781,1.0683594,0.5,1.4023438,0.7431641c0.3388672,0.2451172,0.5839844,0.4228516,0.9609375,0.4228516
					c0.3144531,0,0.7265625-0.1240234,1.2578125-0.3818359c0.8027344-0.3867188,1.3017578-0.921875,1.4853516-1.5878906
					c0.2333984-0.8476563-0.0869141-1.7324219-0.3222656-2.222168
					C52.4892578,34.6474609,50.4033203,35.4443359,48.7744141,35.7763672z"/>
			</g>
			<polygon style="fill:#662D91;" points="55.875,18.2397461 59.3564453,19.8901367 60.3095703,22.5205078 59.6728516,24.6767578 
				54.9394531,26.1049805 			"/>
			<path style="fill:#662D91;" d="M50.8193359,37.2119141c-0.1367188-0.9902344-1.2470703-1.7109375-1.2578125-1.71875
				l0.2597656-0.4072266c0.0527344,0.0341797,1.3085938,0.8466797,1.4765625,2.0595703L50.8193359,37.2119141z"/>
			<path style="fill:#662D91;" d="M52.2607422,36.7978516c-0.078125-0.9511719-1.4160156-1.7939453-1.4296875-1.8027344
				l0.2548828-0.4101563c0.0634766,0.0390625,1.5576172,0.9794922,1.6552734,2.1738281L52.2607422,36.7978516z"/>
			<path style="fill:#662D91;" d="M53.4130859,36.0302734c-0.4482422-0.9785156-1.3369141-1.8896484-1.3457031-1.8994141
				l0.34375-0.3378906c0.0390625,0.0390625,0.9560547,0.9794922,1.4414063,2.0361328L53.4130859,36.0302734z"/>
			
				<rect x="52.7830505" y="33.4674568" transform="matrix(0.6849344 0.7286047 -0.7286047 0.6849344 41.4581985 -28.4566574)" style="fill:#662D91;" width="1.699524" height="0.4825664"/>
			<path style="fill:#662D91;" d="M41.4052734,31.0898438c0,0,2.1367188,1.3676758,3.2392578,2.3818359
				c1.1025391,1.0126953,1.5703125,3.3066406,1.5703125,3.3066406S41.4501953,32.5244141,41.4052734,31.0898438z"/>
			<polygon style="fill:#662D91;" points="60,29.0361328 56.0859375,33.0283203 55.0888672,37.0205078 60,31.9584961 			"/>
			<polygon style="fill:#662D91;" points="47.2470703,27.6425781 47.9199219,28.7915039 47.8330078,30.2866211 
				48.6904297,28.6694336 			"/>
			<path style="fill:#662D91;" d="M49.9296875,27.3461914l0.75,1.7177734l1.2490234,1.1928711l-0.09375-1.465332
				C51.8349609,28.7915039,50.3691406,28.3769531,49.9296875,27.3461914z"/>
			<g>
				<polygon style="fill:#662D91;" points="39.7900391,21.2451172 38.5986328,21.9487305 39.0654297,24.9477539 
					41.0771484,25.2700195 				"/>
				<polygon style="fill:#662D91;" points="45.3847656,17.9038086 48.7871094,18.8125 49.5488281,20 50.9794922,20 
					51.3007813,24.125 49.2070313,24.0527344 46.0683594,25.8686523 				"/>
				<polygon style="fill:#662D91;" points="57.5390625,18.9946289 62.6044922,23.0966797 62.3564453,24.9912109 
					56.8193359,25.7583008 				"/>
			</g>
			<g>
				<circle style="fill:#FFFFFF;" cx="44.0561523" cy="22.1308594" r="4.1049805"/>
				<path style="fill:#662D91;" d="M44.0556641,26.7431641c-2.5429688,0-4.6123047-2.0688477-4.6123047-4.6123047
					s2.0693359-4.612793,4.6123047-4.612793c2.5439453,0,4.6132813,2.0693359,4.6132813,4.612793
					S46.5996094,26.7431641,44.0556641,26.7431641z M44.0556641,18.5336914c-1.9833984,0-3.5966797,1.6137695-3.5966797,3.597168
					s1.6132813,3.5966797,3.5966797,3.5966797s3.5976563-1.6132813,3.5976563-3.5966797
					S46.0390625,18.5336914,44.0556641,18.5336914z"/>
			</g>
			<g>
				<circle style="fill:#FFFFFF;" cx="53.9272461" cy="22.1308594" r="4.1049805"/>
				<path style="fill:#662D91;" d="M53.9267578,26.7431641c-2.5429688,0-4.6123047-2.0688477-4.6123047-4.6123047
					s2.0693359-4.612793,4.6123047-4.612793c2.5439453,0,4.6132813,2.0693359,4.6132813,4.612793
					S56.4707031,26.7431641,53.9267578,26.7431641z M53.9267578,18.5336914c-1.9833984,0-3.5966797,1.6137695-3.5966797,3.597168
					s1.6132813,3.5966797,3.5966797,3.5966797s3.5976563-1.6132813,3.5976563-3.5966797
					S55.9101563,18.5336914,53.9267578,18.5336914z"/>
			</g>
			<path style="fill:#662D91;" d="M42.0986328,24.2055664l3.8544922-4.402832
				c-0.5273438-0.4995117-1.234375-0.8110352-2.0175781-0.8110352c-1.6230469,0-2.9384766,1.3154297-2.9384766,2.9375
				C40.9970703,22.8530273,41.4316406,23.6669922,42.0986328,24.2055664z"/>
			<path style="fill:#662D91;" d="M52.1738281,24.4863281l3.9609375-4.0048828
				c-0.5048828-0.8857422-1.4472656-1.4897461-2.5400391-1.4897461c-1.6240234,0-2.9384766,1.3154297-2.9384766,2.9375
				C50.65625,23.0336914,51.2724609,23.984375,52.1738281,24.4863281z"/>
		</g>
		<polygon style="fill:#662D91;" points="68.2402344,44.15625 58.2060547,37.7138672 57.9072266,32.9677734 58.8720703,32.9072266 
			59.1396484,37.1650391 68.7617188,43.34375 		"/>
		<path style="fill:#662D91;" d="M53.4853516,45.3759766l-0.4707031-0.84375L53.25,44.9541016l-0.2373047-0.4208984
			c0.0253906-0.0146484,2.5947266-1.5322266,5.2207031-7.2939453l0.8789063,0.4003906
			C56.3339844,43.7363281,53.5996094,45.3115234,53.4853516,45.3759766z"/>
	</g>
	<g>
		<g>
			<path style="fill:#E0C6E5;" d="M25.7490234,26.0366211c0,0,2.9916992-0.1782227,3.3994141-1.7768555
				c0,0,5.4423828-3.3691406,2.972168-6.2734375C29.6513672,15.081543,22.7666016,22.8144531,25.7490234,26.0366211z"/>
			<path style="fill:#662D91;" d="M25.5595703,26.5078125l-0.1474609-0.1591797
				c-1.0263672-1.1088867-1.1396484-2.7539063-0.3183594-4.6328125c1.019043-2.3320313,3.5253906-4.8291016,5.6318359-4.8291016
				c0.6953125,0,1.2988281,0.2773438,1.7446289,0.8022461c0.6118164,0.7192383,0.8530273,1.5249023,0.7163086,2.3950195
				c-0.340332,2.1650391-2.9838867,4.0327148-3.6494141,4.4716797c-0.6186523,1.7021484-3.4316406,1.9199219-3.7607422,1.9394531
				L25.5595703,26.5078125z M30.7255859,17.8051758c-1.5283203,0-3.8120117,2.0390625-4.7905273,4.2788086
				c-0.3666992,0.8393555-0.8310547,2.3701172,0.0112305,3.4746094c0.8530273-0.0927734,2.515625-0.4643555,2.7573242-1.4121094
				l0.0454102-0.1791992l0.1577148-0.0976563c0.0302734-0.019043,3.0576172-1.918457,3.3725586-3.9291992
				c0.0942383-0.6020508-0.0722656-1.1435547-0.5083008-1.6567383
				C31.4970703,17.9614258,31.1552734,17.8051758,30.7255859,17.8051758z"/>
		</g>
		<g>
			<path style="fill:#FFFFFF;" d="M25.9609375,28.3388672c0,0,3.3896484-13.3339844,4.5756836-18.1210938
				c0.2016602-0.8139648-1.2021484-1.7788086-2.824707-2.1928711c-1.6235352-0.4145508-3.3032227-0.2363281-3.5307617,0.5703125
				c-1.3745117,4.8623047-4.7182617,18.2919922-4.7182617,18.2919922
				C12.418457,26.8359375,5.9760742,31.5493164,4.1552734,38.6826172
				C2.0117188,47.0791016,7.0810547,55.6220703,15.4770508,57.765625
				c8.3969727,2.1425781,16.9399414-2.9267578,19.0834961-11.3232422
				C36.4599609,39.0009766,32.6875,31.4536133,25.9609375,28.3388672z"/>
			<path style="fill:#662D91;" d="M19.3696289,59c-0.0004883,0-0.0009766,0-0.0014648,0
				c-1.3452148,0-2.6938477-0.3046875-4.0087891-0.6396484C6.7226563,56.1552734,1.4897461,47.2675781,3.6948242,38.6328125
				C5.5,31.5595703,11.809082,26.5615234,19.0913086,26.4472656c0.5419922-2.171875,3.3974609-13.5957031,4.6323242-17.9648438
				c0.203125-0.7192383,1.0576172-1.140625,2.3452148-1.140625c0.5605469,0,1.1694336,0.0761719,1.7607422,0.2270508
				c1.7573242,0.4482422,3.4648438,1.5683594,3.168457,2.7651367c-1.0678711,4.309082-3.9204102,15.5419922-4.4804688,17.7451172
				c6.8271484,3.3642578,10.3955078,11.2041016,8.5039063,18.6152344C33.1914063,53.8613281,26.7553711,59,19.3696289,59z
				 M19.3491211,27.3623047c-6.9555664,0-13.0141602,4.703125-14.7333984,11.4375
				c-2.074707,8.1289063,2.8500977,16.4296875,10.9790039,18.5048828c1.237793,0.3164063,2.5073242,0.4765625,3.7734375,0.4765625
				c6.9516602,0.0009766,13.0097656-4.7109375,14.7314453-11.4560547
				c1.8115234-7.0957031-1.6953125-14.4790039-8.3383789-17.5551758l-0.3583984-0.1655273L25.5,28.2216797
				c0.0004883,0,3.3891602-13.3320313,4.5751953-18.1181641c0.0922852-0.3730469-0.9086914-1.2167969-2.480957-1.6181641
				c-0.5151367-0.1313477-1.0429688-0.2011719-1.5253906-0.2011719c-0.8574219,0-1.3686523,0.2216797-1.4301758,0.4399414
				c-1.3569336,4.7998047-4.6811523,18.1435547-4.7143555,18.277832l-0.0908203,0.3632813L19.3491211,27.3623047z"/>
		</g>
		<g>
			<g>
				<path style="fill:#E0C6E5;" d="M18.3647461,14.0405273c0,0,0.0644531-1.9165039,0.7856445-2.015625
					c0.7207031-0.0991211,3.3242188,1.9414063,4.4692383,2.5595703c1.1459961,0.6171875,4.2709961,1.8979492,2.8613281,2.7172852
					c-1.4091797,0.8198242-3.4672852,0.3979492-4.6791992-0.2211914
					C20.590332,16.4599609,18.0053711,15.2890625,18.3647461,14.0405273z"/>
				<path style="fill:#662D91;" d="M24.59375,18.215332c-0.9892578,0-2.1108398-0.2709961-3.0009766-0.7260742l-0.3232422-0.1630859
					c-1.4858398-0.7470703-3.722168-1.8710938-3.3618164-3.3535156c0.0253906-0.5942383,0.1865234-2.2661133,1.1801758-2.402832
					L19.2045898,11.5625c0.6123047,0,1.5976563,0.6308594,3.1479492,1.6699219
					c0.5756836,0.3857422,1.1196289,0.7504883,1.4853516,0.9482422c0.1689453,0.0908203,0.3828125,0.1967773,0.6191406,0.3144531
					c1.5927734,0.7905273,2.8134766,1.4624023,2.8413086,2.3027344c0.0078125,0.2504883-0.0869141,0.6103516-0.5864258,0.9008789
					C26.1220703,18.0415039,25.409668,18.215332,24.59375,18.215332z M19.2045898,12.4804688
					c-0.1401367,0.0791016-0.3540039,0.8022461-0.3808594,1.5756836l-0.0175781,0.1113281
					c-0.2246094,0.7792969,1.9482422,1.871582,2.8759766,2.3378906l0.3291016,0.1665039
					C23.3642578,17.3637695,25.21875,17.5053711,26.25,16.9047852c0.1118164-0.0649414,0.1362305-0.1069336,0.1362305-0.1074219
					c-0.0756836-0.3569336-1.71875-1.1728516-2.3374023-1.4799805c-0.246582-0.1225586-0.4697266-0.2333984-0.6469727-0.3286133
					c-0.4047852-0.21875-0.9663086-0.5952148-1.5610352-0.9936523
					C20.9960938,13.4287109,19.5820313,12.4804688,19.2045898,12.4804688z"/>
			</g>
			<g>
				<path style="fill:#E0C6E5;" d="M13.8925781,20.0180664c0,0,1.7885742-3.0371094,2.5600586-2.296875
					c0.7705078,0.7397461,4.6870117,4.828125,4.2451172,5.9296875c-0.4418945,1.1005859-2.4995117,0.2070313-2.4995117,0.2070313
					s0.0058594,1.7094727-1.5546875,1.359375S12.1118164,20.8110352,13.8925781,20.0180664z"/>
				<path style="fill:#662D91;" d="M17.0390625,25.7236328c-0.15625,0-0.3232422-0.0195313-0.4960938-0.0581055
					c-1.4072266-0.315918-3.487793-2.890625-3.6494141-4.5161133c-0.0668945-0.6743164,0.1708984-1.1938477,0.6723633-1.4799805
					c0.5078125-0.84375,1.640625-2.5234375,2.6030273-2.5234375c0.2270508,0,0.4350586,0.0839844,0.6015625,0.2436523
					c0.050293,0.0483398,4.9980469,4.824707,4.3535156,6.4321289c-0.1254883,0.3129883-0.4785156,0.8374023-1.4321289,0.8374023
					c-0.3964844,0-0.8071289-0.0913086-1.1230469-0.1845703c-0.0732422,0.2685547-0.2080078,0.5766602-0.4536133,0.8232422
					C17.8374023,25.5766602,17.465332,25.7236328,17.0390625,25.7236328z M16.1347656,18.0522461
					c-0.2773438,0.0146484-1.1733398,1.0571289-1.8466797,2.1987305l-0.074707,0.1264648L14.0795898,20.4375
					c-0.1040039,0.0463867-0.3198242,0.1420898-0.2719727,0.6210938c0.1308594,1.3168945,1.9853516,3.4975586,2.9365234,3.7104492
					c0.1069336,0.0244141,0.2060547,0.0361328,0.2949219,0.0361328c0.6601563,0,0.6987305-0.7895508,0.7001953-0.9477539
					l0.0043945-0.6933594l0.637207,0.2724609c0.0068359,0.0029297,0.7124023,0.3046875,1.3110352,0.3046875
					c0.4750977-0.0004883,0.5512695-0.1899414,0.5795898-0.2612305
					C20.4487305,22.8481445,17.8955078,19.7426758,16.1347656,18.0522461z"/>
			</g>
			<g>
				<path style="fill:#E0C6E5;" d="M31.5024414,20.652832c0.4804688-0.4306641,1.1875-2.3115234,0.296875-3.1831055
					c-0.8891602-0.8725586-3.3286133-1.7714844-4.1865234-2.8374023c-0.8569336-1.0654297-2.7446289-1.2104492-2.8066406,1.706543
					C24.7451172,19.2548828,29.8637695,22.1220703,31.5024414,20.652832z"/>
				<path style="fill:#662D91;" d="M30.277832,21.5092773L30.277832,21.5092773
					c-1.4082031,0-3.269043-0.8959961-4.5249023-2.1787109c-0.940918-0.9604492-1.4267578-1.9985352-1.4057617-3.0014648
					c0.0561523-2.6499023,1.4985352-2.8554688,1.9394531-2.8554688c0.6157227,0,1.2451172,0.3256836,1.684082,0.8710938
					c0.4208984,0.5229492,1.3789063,1.0595703,2.2241211,1.5332031c0.7646484,0.4287109,1.4873047,0.8334961,1.9262695,1.2641602
					c0.3823242,0.3740234,0.5771484,0.9160156,0.5629883,1.5664063c-0.0209961,0.9462891-0.4707031,1.9233398-0.875,2.2861328
					C31.4282227,21.3359375,30.9130859,21.5092773,30.277832,21.5092773z M26.2866211,14.3916016
					c-0.6137695,0-0.9956055,0.7314453-1.0214844,1.9570313c-0.015625,0.7397461,0.390625,1.5703125,1.144043,2.3393555
					c1.0795898,1.1025391,2.706543,1.902832,3.8686523,1.902832l0,0c0.4018555,0,0.7109375-0.0942383,0.9179688-0.2797852
					c0.1850586-0.1660156,0.5541992-0.8891602,0.5703125-1.6225586c0.0083008-0.3955078-0.0883789-0.6953125-0.2880859-0.890625
					c-0.3515625-0.3452148-1.0224609-0.7211914-1.7319336-1.1186523c-0.9628906-0.5395508-1.9584961-1.0976563-2.4912109-1.7587891
					C26.9926758,14.5942383,26.621582,14.3916016,26.2866211,14.3916016z"/>
			</g>
			<g>
				<path style="fill:#E0C6E5;" d="M15.5966797,16.90625c0,0,0.8779297-2.5756836,1.8706055-2.2133789
					c0.9926758,0.3642578,5.0375977,3.9765625,5.0375977,3.9765625s2.2485352,1.4204102,1.0039063,2.6708984
					C22.2646484,22.5898438,15.1782227,18.5458984,15.5966797,16.90625z"/>
				<path style="fill:#662D91;" d="M22.7539063,22.0351563c-2.0107422,0-5.9199219-2.2592773-7.1547852-3.8491211
					c-0.4013672-0.5161133-0.5517578-0.9848633-0.4472656-1.3935547c0.2148438-0.6347656,0.972168-2.59375,2.121582-2.59375
					c0.1191406,0,0.2373047,0.0209961,0.3510742,0.0629883c1.0458984,0.3833008,4.765625,3.6894531,5.1860352,4.0654297
					c0.0883789,0.0483398,1.3974609,0.9047852,1.5229492,2.0205078c0.0375977,0.3339844-0.0185547,0.8334961-0.4995117,1.3164063
					C23.5888672,21.9106445,23.2255859,22.0351563,22.7539063,22.0351563z M16.0317383,17.0532227
					c0.0029297,0-0.0131836,0.1757813,0.2924805,0.5693359c1.1669922,1.5024414,4.8325195,3.4946289,6.4296875,3.4946289
					c0.3056641,0,0.4057617-0.0771484,0.4296875-0.1005859c0.2421875-0.2436523,0.2514648-0.4394531,0.237793-0.5654297
					c-0.0639648-0.5751953-0.8813477-1.2148438-1.1621094-1.394043c-1.5991211-1.4194336-4.2871094-3.6899414-4.9501953-3.9331055
					c-0.3212891,0.0131836-0.9384766,0.9350586-1.277832,1.9301758
					C16.0317383,17.0537109,16.0317383,17.0532227,16.0317383,17.0532227z"/>
			</g>
		</g>
		<path style="fill:#ADFF1F;" d="M16.7880859,39.0878906c-2.3710938-3.2539063-5.9545898-4.9208984-9.1591797-3.4511719
			c-0.597168,1.0410156-1.0771484,2.1699219-1.3886719,3.3896484c-1.8432617,7.2216797,2.5170898,14.5703125,9.7387695,16.4140625
			c7.2216797,1.8427734,14.5708008-2.5175781,16.4135742-9.7392578c0.3408203-1.3320313,0.4658203-2.6689453,0.4042969-3.9746094
			C28.5249023,41.7626953,20.8701172,44.6894531,16.7880859,39.0878906z"/>
	</g>
</g>
</svg>
