<?xml version="1.0" encoding="utf-8"?>
<!-- Generator: Adobe Illustrator 15.0.2, SVG Export Plug-In . SVG Version: 6.00 Build 0)  -->
<!DOCTYPE svg PUBLIC "-//W3C//DTD SVG 1.1//EN" "http://www.w3.org/Graphics/SVG/1.1/DTD/svg11.dtd">
<svg version="1.1" id="レイヤー_1" xmlns="http://www.w3.org/2000/svg" xmlns:xlink="http://www.w3.org/1999/xlink" x="0px"
	 y="0px" width="64px" height="64px" viewBox="0 0 64 64" style="enable-background:new 0 0 64 64;" xml:space="preserve">
<g>
	<g>
		<polygon style="fill:#FFFFFF;" points="57.8339844,32.4169922 58.8339844,37.1669922 67,43 65.75,66 43.75,66 
			45.4169922,44.5839844 		"/>
		<path style="fill:#662D91;" d="M44,34.9453125l9.6777344,3.3984375c0,0-2.3769531,5.40625-7.0605469,7.5732422L44.0566406,63
			l-5.9726563-18.75L44,39V34.9453125z"/>
		<path style="fill:none;stroke:#662D91;stroke-width:0.965892;stroke-miterlimit:10;" d="M54.3271484,35.5214844
			c0,0,0,5.6757813-7.5849609,10.3955078l-2.9316406,14.6669922"/>
		<g>
			<path style="fill:#E0C6E5;stroke:#662D91;stroke-width:0.965892;stroke-miterlimit:10;" d="M40.6933594,19.7983398
				l0.7119141,6.5234375c0,0-0.5917969,3.8349609-0.3300781,4.7680664c0.6503906,2.3095703,4.8701172,4.5537109,6.2001953,7.2998047
				c1.1777344,2.4296875,4.3476563,0.9658203,6.4394531-0.4833984c2.0927734-1.4482422,5.6416016-6.1289063,5.6416016-6.1289063
				s0.796875-7.4736328,1.2001953-9.0834961c0.4023438-1.6098633-8.6933594-7.3242188-8.6933594-7.3242188
				S46.4082031,16.2568359,40.6933594,19.7983398z"/>
			<path style="fill:#FFD72E;stroke:#662D91;stroke-width:0.965892;stroke-miterlimit:10;" d="M40.7285156,21.4819336
				c0,0,0.0302734-2.152832-0.9150391-4.6679688c-0.9453125-2.515625,0.3837891-3.784668,0.3837891-3.784668
				s0.6308594,2.1347656,1.0458984,2.1699219c0,0-0.6054688-4.4594727,2.171875-6.7602539
				c0,0,0.8447266,1.0532227,1.3857422,2.171875c0.5449219-3.4125977,2.8076172-4.6054688,2.6513672-6.7246094
				c0,0,2.0673828,0.7158203,3.1445313,3.0703125c0,0,0.8574219-1.8588867,3.375-4.769043
				c1.4785156,2.3544922,2.484375,3.6933594,2.90625,6.8413086c0,0,1.4052734-2.3613281,2.0048828-3.2089844
				c0,0,2.2949219,6.3505859,1.9121094,8.5336914l0.984375-2.0532227c0,0,0.7011719,6.5463867,0.3144531,6.9824219
				c-0.3867188,0.4355469-1.5244141,5.1416016-1.5244141,5.1416016L40.7285156,21.4819336z"/>
			<path style="fill:#662D91;" d="M47.9199219,28.6293945c0,0-1.9619141-0.8227539-4.0605469-2.2001953
				c-2.7080078-1.7773438-1.8896484,0.4423828-1.7783203,0.9311523c0.2226563,0.9775391,1.015625,2.7075195,2.7929688,2.8759766
				C47.3154297,30.4697266,47.9199219,28.6293945,47.9199219,28.6293945z"/>
			<path style="fill:#662D91;" d="M51.2158203,28.8041992c0,0,2.6181641-0.6767578,4.2353516-1.0297852
				c2.3574219-0.5146484,3.9052734-1.4526367,2.9023438,0.8232422
				C56.7607422,32.2084961,52.0449219,31.2744141,51.2158203,28.8041992z"/>
			<path style="fill:#FFFFFF;" d="M47.4091797,28.8168945l-4.125-2.0112305c0,0-0.1201172,2.1826172,1.390625,2.6464844
				C46.2148438,29.925293,47.4091797,28.8168945,47.4091797,28.8168945z"/>
			<path style="fill:#FFFFFF;" d="M51.8349609,29.0361328c0,0,3.7646484-0.8037109,4.9824219-1.1899414
				c0,0,0.0996094,1.8144531-1.2841797,2.2250977C54.2646484,30.4477539,52.7958984,30.4584961,51.8349609,29.0361328z"/>
			<path style="fill:#662D91;" d="M44.1220703,27.1416016l2.2832031,1.1450195c0,0-0.4873047,1.168457-1.5625,0.6860352
				C43.4208984,28.3339844,44.1220703,27.1416016,44.1220703,27.1416016z"/>
			<path style="fill:#662D91;" d="M52.7871094,28.559082l2.7207031-0.5551758c0,0,0.1923828,1.4213867-1.2216797,1.5629883
				C52.8710938,29.7084961,52.7871094,28.559082,52.7871094,28.559082z"/>
			<path style="fill:#FFFFFF;stroke:#662D91;stroke-width:0.482946;stroke-miterlimit:10;" d="M46.5791016,35.7714844
				c0,0,5.3544922,0.0839844,6.9697266-3.5395508c0,0,2.0244141,3.0620117-1.0478516,4.5463867
				C49.6914063,38.1357422,50.7880859,35.6435547,46.5791016,35.7714844z"/>
			<polygon style="fill:#662D91;" points="55.875,18.2397461 59.3564453,19.8901367 60.3095703,22.5205078 59.6728516,24.6767578 
				54.9394531,26.1049805 			"/>
			<path style="fill:none;stroke:#662D91;stroke-width:0.482946;stroke-miterlimit:10;" d="M49.6914063,35.2900391
				c0,0,1.2128906,0.7724609,1.3671875,1.8886719"/>
			<path style="fill:none;stroke:#662D91;stroke-width:0.482946;stroke-miterlimit:10;" d="M50.9589844,34.7900391
				c0,0,1.453125,0.9013672,1.5419922,1.9882813"/>
			<path style="fill:none;stroke:#662D91;stroke-width:0.482946;stroke-miterlimit:10;" d="M52.2392578,33.9619141
				c0,0,0.9208984,0.9375,1.3935547,1.9677734"/>
			
				<line style="fill:none;stroke:#662D91;stroke-width:0.482946;stroke-miterlimit:10;" x1="53.0507813" y1="33.0898438" x2="54.2148438" y2="34.328125"/>
			<path style="fill:#662D91;" d="M41.4052734,31.0898438c0,0,2.1367188,1.3676758,3.2392578,2.3818359
				c1.1025391,1.0126953,1.5703125,3.3066406,1.5703125,3.3066406S41.4501953,32.5244141,41.4052734,31.0898438z"/>
			<polygon style="fill:#662D91;" points="60,29.0361328 56.0859375,33.0283203 55.0888672,37.0205078 60,31.9584961 			"/>
			<polygon style="fill:#662D91;" points="47.2470703,27.6425781 47.9199219,28.7915039 47.8330078,30.2866211 
				48.6904297,28.6694336 			"/>
			<path style="fill:#662D91;" d="M49.9296875,27.3461914l0.75,1.7177734l1.2490234,1.1928711l-0.09375-1.465332
				C51.8349609,28.7915039,50.3691406,28.3769531,49.9296875,27.3461914z"/>
			<g>
				<polygon style="fill:#662D91;" points="39.7900391,21.2451172 38.5986328,21.9487305 39.0654297,24.9477539 
					41.0771484,25.2700195 				"/>
				<polygon style="fill:#662D91;" points="45.3847656,17.9038086 48.7871094,18.8125 49.5488281,20 50.9794922,20 
					51.3007813,24.125 49.2070313,24.0527344 46.0683594,25.8686523 				"/>
				<polygon style="fill:#662D91;" points="57.5390625,18.9946289 62.6044922,23.0966797 62.3564453,24.9912109 
					56.8193359,25.7583008 				"/>
			</g>
			
				<circle style="fill:#FFFFFF;stroke:#662D91;stroke-width:1.0156599;stroke-miterlimit:10;" cx="44.0561523" cy="22.1308594" r="4.1049805"/>
			
				<circle style="fill:#FFFFFF;stroke:#662D91;stroke-width:1.0156599;stroke-miterlimit:10;" cx="53.9272461" cy="22.1308594" r="4.1049805"/>
			<path style="fill:#662D91;" d="M42.0986328,24.2055664l3.8544922-4.402832
				c-0.5273438-0.4995117-1.234375-0.8110352-2.0175781-0.8110352c-1.6230469,0-2.9384766,1.3154297-2.9384766,2.9375
				C40.9970703,22.8530273,41.4316406,23.6669922,42.0986328,24.2055664z"/>
			<path style="fill:#662D91;" d="M52.1738281,24.4863281l3.9609375-4.0048828
				c-0.5048828-0.8857422-1.4472656-1.4897461-2.5400391-1.4897461c-1.6240234,0-2.9384766,1.3154297-2.9384766,2.9375
				C50.65625,23.0336914,51.2724609,23.984375,52.1738281,24.4863281z"/>
		</g>
		<polyline style="fill:none;stroke:#662D91;stroke-width:0.965892;stroke-miterlimit:10;" points="58.3896484,32.9375 
			58.6728516,37.4394531 68.5009766,43.75 		"/>
		<path style="fill:none;stroke:#662D91;stroke-width:0.965892;stroke-miterlimit:10;" d="M53.25,44.9541016
			c0,0,2.6787109-1.4921875,5.4228516-7.5146484"/>
	</g>
	<g>
		<path style="fill:#E0C6E5;stroke:#662D91;stroke-width:0.918306;stroke-miterlimit:10;" d="M33.4941406,24.9848633
			c0,0,2.5830078-1.519043,2.21875-3.1279297c0,0,3.3154297-5.4755859-0.2041016-6.9389648
			C31.9882813,13.4536133,29.3725586,23.4716797,33.4941406,24.9848633z"/>
		<path style="fill:#FFFFFF;stroke:#662D91;stroke-width:0.950734;stroke-miterlimit:10;" d="M34.7294922,26.9399414
			c0,0-3.0439453-13.4179688-4.1640625-18.2211914C30.375,7.9023438,28.6865234,7.6816406,27.0527344,8.050293
			c-1.6347656,0.3686523-3.0493164,1.2910156-2.8857422,2.1132813C25.152832,15.1191406,28.28125,28.6005859,28.28125,28.6005859
			c-6.296875,3.1567383-9.8925781,10.2841797-8.2709961,17.4648438c1.9091797,8.453125,10.3081055,13.7587891,18.7612305,11.8505859
			c8.4521484-1.9101563,13.7568359-10.3095703,11.8466797-18.7617188
			C48.9277344,31.6621094,42.1367188,26.6552734,34.7294922,26.9399414z"/>
		<g>
			<path style="fill:#E0C6E5;stroke:#662D91;stroke-width:0.918306;stroke-miterlimit:10;" d="M21.4624023,17.6582031
				c0,0-0.8134766-1.7368164-0.2167969-2.152832c0.5976563-0.4160156,3.84375,0.2182617,5.1445313,0.2475586
				s4.6669922-0.2504883,3.7841797,1.1196289c-0.8823242,1.3710938-2.9077148,1.9311523-4.2680664,1.9301758
				C24.5449219,18.8007813,21.7099609,18.9331055,21.4624023,17.6582031z"/>
			<path style="fill:#E0C6E5;stroke:#662D91;stroke-width:0.918306;stroke-miterlimit:10;" d="M20.1967773,25.015625
				c0,0,0.2124023-3.5185547,1.2353516-3.2099609c1.0239258,0.309082,6.3706055,2.1689453,6.4775391,3.3510742
				c0.1074219,1.1816406-2.1323242,1.3212891-2.1323242,1.3212891s0.7827148,1.5195313-0.7661133,1.9174805
				C23.4619141,28.7924805,18.9716797,26.53125,20.1967773,25.015625z"/>
			<path style="fill:#E0C6E5;stroke:#662D91;stroke-width:0.918306;stroke-miterlimit:10;" d="M36.1699219,17.5742188
				c0.2324219-0.6025391,0.0068359-2.5986328-1.1826172-2.9702148c-1.1884766-0.3725586-3.7700195-0.0639648-5.0185547-0.6240234
				c-1.2475586-0.5595703-2.9956055,0.1704102-1.7241211,2.7954102
				C29.5161133,19.4018555,35.3789063,19.628418,36.1699219,17.5742188z"/>
			<path style="fill:#E0C6E5;stroke:#662D91;stroke-width:0.918306;stroke-miterlimit:10;" d="M20.300293,21.4692383
				c0,0-0.3891602-2.6938477,0.659668-2.8217773c1.0493164-0.1274414,6.2944336,1.2514648,6.2944336,1.2514648
				s2.6484375,0.2416992,2.1088867,1.921875C28.8232422,23.4995117,20.6728516,23.1196289,20.300293,21.4692383z"/>
		</g>
		<path style="fill:#ADFF1F;" d="M39.1669922,40.8339844c-2,5.5-14.3828125,0.4013672-17.4472656,0.9394531
			c-0.059082,1.1992188,0.0268555,2.4228516,0.3041992,3.6503906c1.6416016,7.2705078,8.8662109,11.8330078,16.137207,10.1923828
			c7.2695313-1.6416016,11.8330078-8.8671875,10.1904297-16.1376953c-0.3027344-1.3408203-0.7988281-2.5878906-1.4462891-3.7226563
			C45.3457031,34.328125,42.4814453,31.7182617,39.1669922,40.8339844z"/>
	</g>
</g>
</svg>
