<?xml version="1.0" encoding="utf-8"?>
<!-- Generator: Adobe Illustrator 15.0.2, SVG Export Plug-In . SVG Version: 6.00 Build 0)  -->
<!DOCTYPE svg PUBLIC "-//W3C//DTD SVG 1.1//EN" "http://www.w3.org/Graphics/SVG/1.1/DTD/svg11.dtd">
<svg version="1.1" id="レイヤー_1" xmlns="http://www.w3.org/2000/svg" xmlns:xlink="http://www.w3.org/1999/xlink" x="0px"
	 y="0px" width="64px" height="64px" viewBox="0 0 64 64" style="enable-background:new 0 0 64 64;" xml:space="preserve">
<g>
	<g>
		<polygon style="fill:#FFFFFF;" points="57.8339844,32.4169922 58.8339844,37.1669922 67,43 65.75,66 43.75,66 
			45.4169922,44.5839844 		"/>
		<path style="fill:#662D91;" d="M44,34.9453125l9.6777344,3.3984375c0,0-2.3769531,5.40625-7.0605469,7.5732422L44.0566406,63
			l-5.9726563-18.75L44,39V34.9453125z"/>
		<path style="fill:#662D91;" d="M44.2841797,60.6787109l-0.9472656-0.1894531l2.9726563-14.8720703l0.1777344-0.1103516
			c7.2382813-4.5039063,7.3564453-9.9326172,7.3564453-9.9873047l0.9667969,0.0019531
			c0,0.2412109-0.0888672,5.9111328-7.6357422,10.6943359L44.2841797,60.6787109z"/>
		<g>
			<g>
				<path style="fill:#E0C6E5;" d="M40.6933594,19.7983398l0.7119141,6.5234375c0,0-0.5917969,3.8349609-0.3300781,4.7680664
					c0.6503906,2.3095703,4.8701172,4.5537109,6.2001953,7.2998047c1.1777344,2.4296875,4.3476563,0.9658203,6.4394531-0.4833984
					c2.0927734-1.4482422,5.6416016-6.1289063,5.6416016-6.1289063s0.796875-7.4736328,1.2001953-9.0834961
					c0.4023438-1.6098633-8.6933594-7.3242188-8.6933594-7.3242188S46.4082031,16.2568359,40.6933594,19.7983398z"/>
				<path style="fill:#662D91;" d="M49.3623047,40.1708984L49.3623047,40.1708984
					c-1.1513672,0-2.0234375-0.5429688-2.5214844-1.5703125c-0.6054688-1.2509766-1.8916016-2.4277344-3.1347656-3.5654297
					c-1.4003906-1.2822266-2.7236328-2.4941406-3.0957031-3.8144531c-0.2685547-0.9560547,0.1884766-4.1259766,0.3076172-4.909668
					l-0.7373047-6.7626953l0.2578125-0.1606445c5.7314453-3.5512695,11.1210938-4.4580078,11.3476563-4.4946289l0.1796875-0.0292969
					l0.1542969,0.0966797c2.8242188,1.7744141,9.3447266,6.0908203,8.9052734,7.8505859
					c-0.390625,1.5595703-1.1806641,8.9428711-1.1884766,9.0175781l-0.0146484,0.1333008l-0.0810547,0.1074219
					c-0.1464844,0.1933594-3.6201172,4.7587891-5.7519531,6.234375
					C52.9833984,39.0009766,51.0429688,40.1708984,49.3623047,40.1708984z M41.2070313,20.050293l0.6855469,6.2822266
					l-0.0097656,0.0629883c-0.2226563,1.4428711-0.5126953,3.9580078-0.3427734,4.5639648
					c0.296875,1.0546875,1.5224609,2.1762695,2.8183594,3.362793c1.3105469,1.1992188,2.6650391,2.4394531,3.3515625,3.8564453
					c0.3388672,0.7001953,0.8642578,1.0263672,1.6523438,1.0263672c1.4179688,0,3.1630859-1.0625,4.0771484-1.6962891
					c1.8359375-1.2695313,4.9140625-5.2192383,5.4511719-5.9174805c0.1132813-1.050293,0.8164063-7.4921875,1.1972656-9.0146484
					c0.0439453-0.7553711-3.75-3.8105469-8.3232422-6.6982422C50.8085938,16.0625,46.1083984,17.0776367,41.2070313,20.050293z"/>
			</g>
			<g>
				<path style="fill:#FFD72E;" d="M40.7285156,21.4819336c0,0,0.0302734-2.152832-0.9150391-4.6679688
					c-0.9453125-2.515625,0.3837891-3.784668,0.3837891-3.784668s0.6308594,2.1347656,1.0458984,2.1699219
					c0,0-0.6054688-4.4594727,2.171875-6.7602539c0,0,0.8447266,1.0532227,1.3857422,2.171875
					c0.5449219-3.4125977,2.8076172-4.6054688,2.6513672-6.7246094c0,0,2.0673828,0.7158203,3.1445313,3.0703125
					c0,0,0.8574219-1.8588867,3.375-4.769043c1.4785156,2.3544922,2.484375,3.6933594,2.90625,6.8413086
					c0,0,1.4052734-2.3613281,2.0048828-3.2089844c0,0,2.2949219,6.3505859,1.9121094,8.5336914l0.984375-2.0532227
					c0,0,0.7011719,6.5463867,0.3144531,6.9824219c-0.3867188,0.4355469-1.5244141,5.1416016-1.5244141,5.1416016
					L40.7285156,21.4819336z"/>
				<path style="fill:#662D91;" d="M60.9345703,24.9667969l-20.6943359-3.0688477l0.0058594-0.4223633
					c0-0.0205078,0.0146484-2.1000977-0.8847656-4.4916992c-1.0458984-2.7822266,0.4384766-4.2431641,0.5019531-4.3037109
					l0.5722656-0.5463867l0.2246094,0.7587891c0.0263672,0.0893555,0.0546875,0.1787109,0.0830078,0.2680664
					c0.1367188-1.5732422,0.6630859-3.6850586,2.3642578-5.09375l0.3769531-0.3129883l0.3076172,0.3828125
					c0.0234375,0.0297852,0.4042969,0.5068359,0.8212891,1.1616211c0.3701172-1.1850586,0.9267578-2.0820313,1.3964844-2.8393555
					c0.5732422-0.9228516,1.0263672-1.6523438,0.9609375-2.5371094l-0.0537109-0.7319336l0.6933594,0.2397461
					c0.0810547,0.0283203,1.7958984,0.6411133,2.9873047,2.5170898c0.4882813-0.8261719,1.4257813-2.2451172,3.0087891-4.0751953
					l0.4267578-0.4936523l0.7353516,1.1655273c1.0722656,1.6899414,1.8935547,2.9848633,2.3632813,5.1293945
					c0.4501953-0.7387695,1.0214844-1.6577148,1.3564453-2.1318359l0.5341797-0.7553711l0.3144531,0.8701172
					c0.0742188,0.2045898,1.4335938,3.9907227,1.8574219,6.7485352l0.8837891-1.8452148l0.1816406,1.6899414
					c0.7236328,6.7583008,0.3398438,7.1914063,0.1953125,7.3540039c-0.2128906,0.3149414-0.890625,2.7607422-1.4160156,4.9345703
					L60.9345703,24.9667969z M41.2001953,21.0634766l19.0039063,2.8183594
					c0.4296875-1.7475586,1.0947266-4.2739258,1.4794922-4.8549805c0.1191406-0.4389648-0.0019531-2.6259766-0.2148438-4.9614258
					l-1.7558594,3.6621094l0.6064453-3.4575195c0.2529297-1.4448242-0.8564453-5.2246094-1.5722656-7.3676758
					c-0.640625,1.0078125-1.4433594,2.3554688-1.4541016,2.3735352l-0.7089844,1.1918945l-0.1845703-1.375
					c-0.3701172-2.7587891-1.1962891-4.0605469-2.4472656-6.0317383l-0.0380859-0.0605469
					c-2.1103516,2.527832-2.8710938,4.1420898-2.8789063,4.1586914L50.59375,8.109375l-0.4365234-0.9521484
					c-0.625-1.3662109-1.6230469-2.1367188-2.2607422-2.5146484c-0.1435547,0.840332-0.5947266,1.5668945-1.0664063,2.3261719
					c-0.6044922,0.9746094-1.2910156,2.0795898-1.5527344,3.7182617l-0.2421875,1.5180664l-0.6689453-1.3837891
					c-0.3105469-0.6416016-0.7324219-1.2695313-1.0166016-1.6645508c-2.1064453,2.1796875-1.6328125,5.9379883-1.6279297,5.9780273
					l0.0800781,0.5957031l-0.5996094-0.0498047c-0.2001953-0.0170898-0.5820313-0.0493164-1.1210938-1.4702148
					c-0.1640625,0.5415039-0.2226563,1.3500977,0.1845703,2.4335938
					C40.9931641,18.5800781,41.1621094,20.2954102,41.2001953,21.0634766z"/>
			</g>
			<path style="fill:#662D91;" d="M47.9199219,28.6293945c0,0-1.9619141-0.8227539-4.0605469-2.2001953
				c-2.7080078-1.7773438-1.8896484,0.4423828-1.7783203,0.9311523c0.2226563,0.9775391,1.015625,2.7075195,2.7929688,2.8759766
				C47.3154297,30.4697266,47.9199219,28.6293945,47.9199219,28.6293945z"/>
			<path style="fill:#662D91;" d="M51.2158203,28.8041992c0,0,2.6181641-0.6767578,4.2353516-1.0297852
				c2.3574219-0.5146484,3.9052734-1.4526367,2.9023438,0.8232422
				C56.7607422,32.2084961,52.0449219,31.2744141,51.2158203,28.8041992z"/>
			<path style="fill:#FFFFFF;" d="M47.4091797,28.8168945l-4.125-2.0112305c0,0-0.1201172,2.1826172,1.390625,2.6464844
				C46.2148438,29.925293,47.4091797,28.8168945,47.4091797,28.8168945z"/>
			<path style="fill:#FFFFFF;" d="M51.8349609,29.0361328c0,0,3.7646484-0.8037109,4.9824219-1.1899414
				c0,0,0.0996094,1.8144531-1.2841797,2.2250977C54.2646484,30.4477539,52.7958984,30.4584961,51.8349609,29.0361328z"/>
			<path style="fill:#662D91;" d="M44.1220703,27.1416016l2.2832031,1.1450195c0,0-0.4873047,1.168457-1.5625,0.6860352
				C43.4208984,28.3339844,44.1220703,27.1416016,44.1220703,27.1416016z"/>
			<path style="fill:#662D91;" d="M52.7871094,28.559082l2.7207031-0.5551758c0,0,0.1923828,1.4213867-1.2216797,1.5629883
				C52.8710938,29.7084961,52.7871094,28.559082,52.7871094,28.559082z"/>
			<g>
				<path style="fill:#FFFFFF;" d="M46.5791016,35.7714844c0,0,5.3544922,0.0839844,6.9697266-3.5395508
					c0,0,2.0244141,3.0620117-1.0478516,4.5463867C49.6914063,38.1357422,50.7880859,35.6435547,46.5791016,35.7714844z"/>
				<path style="fill:#662D91;" d="M51.1376953,37.4257813c-0.5332031,0-0.8789063-0.2509766-1.2441406-0.515625
					c-0.5537109-0.4023438-1.2421875-0.90625-3.0058594-0.90625L46.8867188,36c-0.0097656,0-0.0195313,0-0.0292969,0
					c-0.1201172,0-0.2050781,0-0.2480469,0h-0.0341797l-0.0039063-0.4765625
					c0.09375-0.0019531,0.1845703-0.0009766,0.2724609-0.0009766c1.1914063-0.0439453,5.1591797-0.4169922,6.484375-3.3901367
					l0.1796875-0.4018555L53.75,32.0981445c0.0410156,0.0620117,1,1.5356445,0.5966797,3.0024414
					c-0.2216797,0.8066406-0.8076172,1.4443359-1.7402344,1.8955078
					C51.9990234,37.2890625,51.5322266,37.4257813,51.1376953,37.4257813z M48.7744141,35.7763672
					c0.6621094,0.2050781,1.0683594,0.5,1.4023438,0.7431641c0.3388672,0.2451172,0.5839844,0.4228516,0.9609375,0.4228516
					c0.3144531,0,0.7265625-0.1240234,1.2578125-0.3818359c0.8027344-0.3867188,1.3017578-0.921875,1.4853516-1.5878906
					c0.2333984-0.8476563-0.0869141-1.7324219-0.3222656-2.222168
					C52.4892578,34.6474609,50.4033203,35.4443359,48.7744141,35.7763672z"/>
			</g>
			<polygon style="fill:#662D91;" points="55.875,18.2397461 59.3564453,19.8901367 60.3095703,22.5205078 59.6728516,24.6767578 
				54.9394531,26.1049805 			"/>
			<path style="fill:#662D91;" d="M50.8193359,37.2119141c-0.1367188-0.9902344-1.2470703-1.7109375-1.2578125-1.71875
				l0.2597656-0.4072266c0.0527344,0.0341797,1.3085938,0.8466797,1.4765625,2.0595703L50.8193359,37.2119141z"/>
			<path style="fill:#662D91;" d="M52.2607422,36.7978516c-0.078125-0.9511719-1.4160156-1.7939453-1.4296875-1.8027344
				l0.2548828-0.4101563c0.0634766,0.0390625,1.5576172,0.9794922,1.6552734,2.1738281L52.2607422,36.7978516z"/>
			<path style="fill:#662D91;" d="M53.4130859,36.0302734c-0.4482422-0.9785156-1.3369141-1.8896484-1.3457031-1.8994141
				l0.34375-0.3378906c0.0390625,0.0390625,0.9560547,0.9794922,1.4414063,2.0361328L53.4130859,36.0302734z"/>
			
				<rect x="52.7830505" y="33.4674568" transform="matrix(0.6849344 0.7286047 -0.7286047 0.6849344 41.4581985 -28.4566574)" style="fill:#662D91;" width="1.699524" height="0.4825664"/>
			<path style="fill:#662D91;" d="M41.4052734,31.0898438c0,0,2.1367188,1.3676758,3.2392578,2.3818359
				c1.1025391,1.0126953,1.5703125,3.3066406,1.5703125,3.3066406S41.4501953,32.5244141,41.4052734,31.0898438z"/>
			<polygon style="fill:#662D91;" points="60,29.0361328 56.0859375,33.0283203 55.0888672,37.0205078 60,31.9584961 			"/>
			<polygon style="fill:#662D91;" points="47.2470703,27.6425781 47.9199219,28.7915039 47.8330078,30.2866211 
				48.6904297,28.6694336 			"/>
			<path style="fill:#662D91;" d="M49.9296875,27.3461914l0.75,1.7177734l1.2490234,1.1928711l-0.09375-1.465332
				C51.8349609,28.7915039,50.3691406,28.3769531,49.9296875,27.3461914z"/>
			<g>
				<polygon style="fill:#662D91;" points="39.7900391,21.2451172 38.5986328,21.9487305 39.0654297,24.9477539 
					41.0771484,25.2700195 				"/>
				<polygon style="fill:#662D91;" points="45.3847656,17.9038086 48.7871094,18.8125 49.5488281,20 50.9794922,20 
					51.3007813,24.125 49.2070313,24.0527344 46.0683594,25.8686523 				"/>
				<polygon style="fill:#662D91;" points="57.5390625,18.9946289 62.6044922,23.0966797 62.3564453,24.9912109 
					56.8193359,25.7583008 				"/>
			</g>
			<g>
				<circle style="fill:#FFFFFF;" cx="44.0561523" cy="22.1308594" r="4.1049805"/>
				<path style="fill:#662D91;" d="M44.0556641,26.7431641c-2.5429688,0-4.6123047-2.0688477-4.6123047-4.6123047
					s2.0693359-4.612793,4.6123047-4.612793c2.5439453,0,4.6132813,2.0693359,4.6132813,4.612793
					S46.5996094,26.7431641,44.0556641,26.7431641z M44.0556641,18.5336914c-1.9833984,0-3.5966797,1.6137695-3.5966797,3.597168
					s1.6132813,3.5966797,3.5966797,3.5966797s3.5976563-1.6132813,3.5976563-3.5966797
					S46.0390625,18.5336914,44.0556641,18.5336914z"/>
			</g>
			<g>
				<circle style="fill:#FFFFFF;" cx="53.9272461" cy="22.1308594" r="4.1049805"/>
				<path style="fill:#662D91;" d="M53.9267578,26.7431641c-2.5429688,0-4.6123047-2.0688477-4.6123047-4.6123047
					s2.0693359-4.612793,4.6123047-4.612793c2.5439453,0,4.6132813,2.0693359,4.6132813,4.612793
					S56.4707031,26.7431641,53.9267578,26.7431641z M53.9267578,18.5336914c-1.9833984,0-3.5966797,1.6137695-3.5966797,3.597168
					s1.6132813,3.5966797,3.5966797,3.5966797s3.5976563-1.6132813,3.5976563-3.5966797
					S55.9101563,18.5336914,53.9267578,18.5336914z"/>
			</g>
			<path style="fill:#662D91;" d="M42.0986328,24.2055664l3.8544922-4.402832
				c-0.5273438-0.4995117-1.234375-0.8110352-2.0175781-0.8110352c-1.6230469,0-2.9384766,1.3154297-2.9384766,2.9375
				C40.9970703,22.8530273,41.4316406,23.6669922,42.0986328,24.2055664z"/>
			<path style="fill:#662D91;" d="M52.1738281,24.4863281l3.9609375-4.0048828
				c-0.5048828-0.8857422-1.4472656-1.4897461-2.5400391-1.4897461c-1.6240234,0-2.9384766,1.3154297-2.9384766,2.9375
				C50.65625,23.0336914,51.2724609,23.984375,52.1738281,24.4863281z"/>
		</g>
		<polygon style="fill:#662D91;" points="68.2402344,44.15625 58.2060547,37.7138672 57.9072266,32.9677734 58.8720703,32.9072266 
			59.1396484,37.1650391 68.7617188,43.34375 		"/>
		<path style="fill:#662D91;" d="M53.4853516,45.3759766l-0.4707031-0.84375L53.25,44.9541016l-0.2373047-0.4208984
			c0.0253906-0.0146484,2.5947266-1.5322266,5.2207031-7.2939453l0.8789063,0.4003906
			C56.3339844,43.7363281,53.5996094,45.3115234,53.4853516,45.3759766z"/>
	</g>
	<g>
		<g>
			<path style="fill:#E0C6E5;" d="M35.0576172,24.2832031c0,0,2.4130859-1.7773438,1.8847656-3.340332
				c0,0,2.734375-5.7875977-0.9169922-6.8813477C32.3720703,12.9677734,30.8022461,23.2016602,35.0576172,24.2832031z"/>
			<path style="fill:#662D91;" d="M35.1552734,24.7817383l-0.2109375-0.0537109
				c-2.4291992-0.6171875-3.168457-3.6787109-2.8232422-6.4384766c0.296875-2.3735352,1.453125-4.769043,3.3662109-4.769043
				c0.2207031,0,0.4462891,0.0341797,0.6699219,0.1010742c0.9042969,0.2709961,1.5439453,0.815918,1.9023438,1.6206055
				c0.8925781,2.0014648-0.3105469,5.0068359-0.6298828,5.7373047c0.4082031,1.7651367-1.8339844,3.4780273-2.0996094,3.6733398
				L35.1552734,24.7817383z M35.4873047,14.4389648c-1.2861328,0-2.2089844,1.9946289-2.4550781,3.9648438
				c-0.2749023,2.1962891,0.2216797,4.7553711,1.9306641,5.3710938c0.6660156-0.5424805,1.8574219-1.7583008,1.5449219-2.6850586
				l-0.0595703-0.175293l0.0791016-0.1674805c0.0146484-0.0327148,1.5224609-3.2739258,0.6933594-5.1323242
				c-0.2480469-0.5561523-0.6826172-0.9204102-1.3271484-1.1132813
				C35.7558594,14.4599609,35.6191406,14.4389648,35.4873047,14.4389648z"/>
		</g>
		<g>
			<path style="fill:#FFFFFF;" d="M36.4873047,26.1000977c0,0-4.4086914-13.0332031-6.0180664-17.6948242
				c-0.2734375-0.7929688-1.9755859-0.8378906-3.5629883-0.3032227s-2.8999023,1.5976563-2.6523438,2.3989258
				c1.4912109,4.8276367,5.9912109,17.9155273,5.9912109,17.9155273
				c-5.9389648,3.7880859-8.7807617,11.2485352-6.4287109,18.2241211
				c2.769043,8.2109375,11.6699219,12.6240234,19.8818359,9.8544922c8.2099609-2.7695313,12.6220703-11.671875,9.8525391-19.8818359
				C51.0966797,29.3349609,43.8261719,25.0546875,36.4873047,26.1000977z"/>
			<path style="fill:#662D91;" d="M38.6826172,57.7978516c-6.9414063,0-13.0966797-4.4228516-15.3164063-11.0048828
				c-2.3378906-6.9335938,0.2558594-14.5131836,6.309082-18.5717773
				c-0.7260742-2.1171875-4.5356445-13.2421875-5.8754883-17.5800781c-0.3666992-1.1860352,1.2089844-2.4013672,2.9545898-2.9897461
				c0.7270508-0.2446289,1.4931641-0.3793945,2.1567383-0.3793945c1.0771484,0,1.7900391,0.347168,2.0073242,0.9785156
				c1.4487305,4.1962891,5.1655273,15.1757813,5.894043,17.328125c0.6230469-0.0732422,1.2529297-0.1098633,1.8769531-0.1098633
				c6.9414063,0,13.0947266,4.4174805,15.3115234,10.9921875c1.3798828,4.0917969,1.0839844,8.4755859-0.8330078,12.3447266
				c-1.9179688,3.8691406-5.2265625,6.7597656-9.3173828,8.1396484
				C42.1738281,57.5107422,40.4355469,57.7978516,38.6826172,57.7978516z M28.9111328,8.2226563
				c-0.5629883,0-1.2211914,0.1171875-1.8530273,0.3300781c-1.5283203,0.5146484-2.4643555,1.4370117-2.3500977,1.8081055
				c1.472168,4.7651367,5.9418945,17.7705078,5.9868164,17.9008789l0.121582,0.3540039l-0.3154297,0.2016602
				c-5.9082031,3.7680664-8.4716797,11.0351563-6.2338867,17.6708984
				c2.0888672,6.1962891,7.8823242,10.3583984,14.4155273,10.3583984c1.6494141,0,3.2851563-0.2695313,4.8632813-0.8017578
				c3.8505859-1.2988281,6.9648438-4.0195313,8.7695313-7.6621094c1.8056641-3.6416016,2.0839844-7.7675781,0.7851563-11.6171875
				c-2.0869141-6.1884766-7.8779297-10.3461914-14.4111328-10.3461914c-0.7109375,0-1.4296875,0.0507813-2.1347656,0.1513672
				l-0.3916016,0.0556641l-0.1259766-0.3740234c0,0-4.4082031-13.03125-6.0170898-17.6918945
				C29.9638672,8.3974609,29.5927734,8.2226563,28.9111328,8.2226563z"/>
		</g>
		<g>
			<g>
				<path style="fill:#E0C6E5;" d="M22.3354492,18.234375c0,0-0.9882813-1.644043-0.4370117-2.1196289
					c0.5507813-0.4746094,3.8457031-0.1787109,5.1425781-0.2832031s4.6157227-0.7299805,3.8789063,0.7241211
					c-0.7358398,1.4541016-2.6933594,2.2202148-4.0463867,2.359375
					C25.5195313,19.0537109,22.7128906,19.4770508,22.3354492,18.234375z"/>
				<path style="fill:#662D91;" d="M24.5175781,19.5566406c-0.5498047,0-2.2045898,0-2.6025391-1.1308594
					c-0.3017578-0.512207-1.0761719-2.003418-0.3164063-2.6586914C21.9301758,15.4814453,22.6181641,15.375,24.137207,15.375
					c0.3632813,0,0.7387695,0.0058594,1.1025391,0.0117188c0.6884766,0.0097656,1.3388672,0.0219727,1.7641602-0.0126953
					c0.1928711-0.015625,0.4316406-0.0429688,0.6948242-0.0732422c0.5893555-0.0673828,1.3222656-0.1513672,1.9560547-0.1513672
					c0.6269531,0,1.3876953,0.065918,1.7036133,0.5800781c0.1235352,0.2016602,0.2192383,0.5444336-0.0288086,1.0336914
					c-0.7905273,1.5620117-2.8398438,2.4472656-4.4091797,2.6083984l-0.3569336,0.0385742
					C25.9707031,19.4755859,25.2324219,19.5566406,24.5175781,19.5566406z M24.137207,16.293457
					c-1.5195313,0-1.8666992,0.1220703-1.9458008,0.1743164c-0.0742188,0.1420898,0.1396484,0.8657227,0.5375977,1.5302734
					l0.0458984,0.1030273c0.1049805,0.3461914,0.7241211,0.5371094,1.7426758,0.5371094
					c0.6645508,0,1.375-0.078125,1.9458008-0.140625l0.3632813-0.0390625
					c1.3710938-0.1411133,3.0766602-0.9111328,3.6835938-2.1103516c0.0493164-0.0966797,0.0551758-0.1459961,0.0561523-0.1601563
					c-0.0361328,0.0083008-0.1899414-0.1206055-0.9116211-0.1201172c-0.581543,0-1.2856445,0.0805664-1.8515625,0.1450195
					c-0.2749023,0.0317383-0.5239258,0.0600586-0.7250977,0.0761719c-0.4482422,0.0371094-1.125,0.0268555-1.8525391,0.015625
					C24.8666992,16.2993164,24.4956055,16.293457,24.137207,16.293457z"/>
			</g>
			<g>
				<path style="fill:#E0C6E5;" d="M21.8344727,25.6826172c0,0-0.1513672-3.5214844,0.8979492-3.3203125
					c1.050293,0.2021484,6.5600586,1.5019531,6.7880859,2.6665039c0.2285156,1.1640625-1.984375,1.5341797-1.984375,1.5341797
					s0.9345703,1.4306641-0.5649414,1.9863281C25.4711914,29.1035156,20.7714844,27.3168945,21.8344727,25.6826172z"/>
				<path style="fill:#662D91;" d="M26.2636719,29.1113281c-1.6489258,0-4.1831055-0.9995117-4.8564453-2.2412109
					c-0.2353516-0.434082-0.2470703-0.8911133-0.0361328-1.3022461c-0.0200195-0.6655273-0.0234375-2.7006836,0.6342773-3.387207
					c0.1791992-0.1870117,0.4013672-0.2856445,0.6425781-0.2856445l0.1708984,0.0161133
					c0.0683594,0.0131836,6.8198242,1.331543,7.1523438,3.0292969c0.0678711,0.3466797-0.0039063,0.6855469-0.2075195,0.9794922
					c-0.3574219,0.5166016-1.0698242,0.809082-1.5800781,0.9604492c0.0966797,0.3051758,0.1542969,0.6967773,0.0249023,1.0893555
					c-0.1049805,0.3173828-0.3769531,0.7504883-1.0776367,1.0102539
					C26.894043,29.0673828,26.6025391,29.1113281,26.2636719,29.1113281z M22.6455078,22.8129883
					c-0.2197266,0.1606445-0.4082031,1.5498047-0.3525391,2.8500977l0.0063477,0.1464844l-0.0800781,0.1235352
					c-0.1054688,0.1621094-0.1069336,0.3110352-0.0048828,0.4990234c0.4829102,0.890625,2.7270508,1.7612305,4.0493164,1.7612305
					c0.2866211,0,0.456543-0.0405273,0.5483398-0.074707c0.4331055-0.1606445,0.5014648-0.3681641,0.5244141-0.4365234
					c0.1064453-0.3232422-0.1186523-0.7670898-0.1845703-0.8681641l-0.3833008-0.5864258l0.6914063-0.1171875
					c0.4624023-0.0786133,1.2924805-0.3417969,1.5493164-0.7133789c0.0629883-0.0917969,0.0810547-0.175293,0.0605469-0.2797852
					C28.875,24.4916992,25.0429688,23.2744141,22.6455078,22.8129883z"/>
			</g>
			<g>
				<path style="fill:#E0C6E5;" d="M36.9560547,16.6357422c0.1689453-0.6230469-0.2607422-2.5849609-1.4824219-2.8325195
					c-1.2207031-0.2480469-3.7563477,0.324707-5.0556641-0.1035156c-1.2988281-0.4282227-2.9624023,0.4775391-1.4272461,2.9580078
					C30.5258789,19.1391602,36.3808594,18.7607422,36.9560547,16.6357422z"/>
				<path style="fill:#662D91;" d="M33.109375,18.8364258c0,0,0,0-0.0009766,0
					c-2.0722656,0-3.7578125-0.7241211-4.5083008-1.9370117c-0.8994141-1.4541016-0.7495117-2.3671875-0.465332-2.8774414
					c0.4189453-0.7524414,1.4736328-1.0722656,2.4267578-0.7583008c0.5361328,0.1767578,1.6401367,0.1450195,2.7011719,0.0771484
					c0.9189453-0.0600586,1.7792969-0.0932617,2.3027344,0.012207c0.5244141,0.1064453,0.9833984,0.4555664,1.3251953,1.0092773
					c0.4970703,0.8051758,0.6503906,1.8691406,0.5087891,2.3935547
					C37.0097656,18.1933594,34.9638672,18.8364258,33.109375,18.8364258z M29.7880859,14.0566406
					c-0.3891602,0-0.7075195,0.1542969-0.8510742,0.4125977c-0.2290039,0.4106445-0.0673828,1.1206055,0.4443359,1.9467773
					c0.6850586,1.1074219,2.3745117,1.5019531,3.7270508,1.5024414h0.0009766c1.7236328,0,3.1875-0.6030273,3.4033203-1.402832
					c0.0654297-0.2397461-0.0185547-1.046875-0.4033203-1.6708984c-0.2080078-0.3369141-0.453125-0.5361328-0.7265625-0.5913086
					c-0.4248047-0.0864258-1.234375-0.0493164-2.0605469,0.003418c-0.5092773,0.0332031-1.0322266,0.0664063-1.519043,0.0664063
					c-0.6547852,0-1.140625-0.0595703-1.5288086-0.1875C30.1171875,14.0839844,29.9492188,14.0566406,29.7880859,14.0566406z"/>
			</g>
			<g>
				<path style="fill:#E0C6E5;" d="M21.5717773,22.1450195c0,0-0.6645508-2.6396484,0.3657227-2.875
					c1.0307617-0.234375,6.3896484,0.5961914,6.3896484,0.5961914s2.659668-0.0317383,2.2958984,1.6948242
					C30.2587891,23.2861328,22.1123047,23.7475586,21.5717773,22.1450195z"/>
				<path style="fill:#662D91;" d="M25.1743164,23.590332c-1.3442383,0-3.65625-0.168457-4.0375977-1.2983398
					c-0.0957031-0.3754883-0.496582-2.1171875,0.03125-2.9780273c0.1577148-0.2578125,0.3886719-0.4277344,0.6674805-0.4916992
					C21.9926758,18.7866211,22.2099609,18.769043,22.5,18.769043c1.7270508,0,5.7280273,0.6171875,5.8974609,0.6435547
					c0.2353516-0.0039063,1.7045898,0.0371094,2.3833008,0.8740234c0.2099609,0.2587891,0.4311523,0.706543,0.2915039,1.3691406
					C30.7490234,23.1860352,27.0732422,23.590332,25.1743164,23.590332z M22.5,19.6875
					c-0.2851563,0-0.4111328,0.019043-0.4609375,0.0302734c-0.0175781,0.0039063-0.0488281,0.0112305-0.0883789,0.0756836
					c-0.2431641,0.3969727-0.1074219,1.5483398,0.0664063,2.2392578c0.0639648,0.1855469,0.9355469,0.6396484,3.1572266,0.6396484
					c2.8525391,0,4.8979492-0.7260742,4.9995117-1.2060547c0.0703125-0.3349609-0.0268555-0.503418-0.1064453-0.6015625
					c-0.3208008-0.3955078-1.2109375-0.5395508-1.7304688-0.5395508C28.2158203,20.3134766,24.15625,19.6875,22.5,19.6875z"/>
			</g>
		</g>
		<path style="fill:#ADFF1F;" d="M44.9169922,38.0839844C49.6914063,42.25,31.5834961,44.1669922,25.074707,42.1953125
			c0.0649414,1.1972656,0.2763672,2.40625,0.6787109,3.5996094c2.3813477,7.0615234,10.0375977,10.8564453,17.1000977,8.4755859
			c7.0625-2.3818359,10.8574219-10.0380859,8.4755859-17.1005859c-0.4394531-1.3027344-1.0615234-2.4921875-1.8232422-3.5546875
			C46.2148438,31.3310547,39.9306641,33.7324219,44.9169922,38.0839844z"/>
	</g>
</g>
</svg>
