<?xml version="1.0" encoding="utf-8"?>
<!-- Generator: Adobe Illustrator 17.0.0, SVG Export Plug-In . SVG Version: 6.00 Build 0)  -->
<!DOCTYPE svg PUBLIC "-//W3C//DTD SVG 1.1//EN" "http://www.w3.org/Graphics/SVG/1.1/DTD/svg11.dtd">
<svg version="1.1" id="レイヤー_1" xmlns="http://www.w3.org/2000/svg" xmlns:xlink="http://www.w3.org/1999/xlink" x="0px"
	 y="0px" width="64px" height="64px" viewBox="0 0 64 64" style="enable-background:new 0 0 64 64;" xml:space="preserve">
<path style="fill:#231815;" d="M33.4785156,62.0849609c-1.2246094,0-2.2060547-1.2382813-2.5615234-3.2324219
	c-0.0927734-0.5195313-0.171875-1.1523438-0.2348633-1.8828125c-0.3227539-0.2666016-0.6220703-0.7373047-0.4384766-1.5302734
	c0.1381836-0.5966797-0.7211914-4.9082031-1.3720703-6.8847656c-0.4155273-1.2607422-0.3442383-2.3828125-0.2871094-3.2841797
	c0.0332031-0.5253906,0.0620117-0.9794922-0.0073242-1.3535156c-0.0698242-0.3740234-0.21875-0.8701172-0.3769531-1.3945313
	c-0.359375-1.1943359-0.7670898-2.546875-0.5585938-3.4316406c0.1191406-0.5058594-0.1147461-1.9296875-0.3413086-3.3066406
	c-0.2026367-1.2304688-0.4111328-2.5009766-0.4492188-3.4770508c-0.7246094-0.3969727-0.6079102-0.9848633,0.0473633-4.2866211
	c0.0878906-0.4414063,0.1225586-1.512207-0.1962891-4.1025391c-0.0839844,0.0043945-0.1728516,0-0.2753906-0.0141602
	c-0.2080078-0.027832-0.4331055-0.0043945-0.6630859,0.0175781c-0.4750977,0.0444336-0.9379883,0.0458984-1.2758789-0.1132813
	c-0.8178711-0.3842773-1.9545898-0.9604492-2.3818359-1.5258789c-0.1611328-0.2128906-1.2319336-0.9741211-2.1762695-1.6455078
	c-1.1679688-0.8300781-2.375-1.6879883-2.7138672-2.081543c-0.6103516-0.7084961-0.6367188-1.3359375-0.5517578-1.737793
	c0.1044922-0.4921875,0.4145508-0.8369141,0.675293-0.9604492c0.2866211-0.1347656,0.5522461-0.2001953,0.8125-0.2001953
	l0.0449219,0.0014648l1.8696289-0.3876953c0.2172852-0.340332,0.409668-0.5449219,0.418457-0.5541992l0.0541992-0.0576172
	l1.1791992-0.2387695l4.9799805-0.9238281c0.1865234-0.1083984,0.4697266-0.1591797,0.8818359-0.1591797
	c0.5097656,0,1.0874023,0.0805664,1.387207,0.128418l0.4199219-1.0595703l0.1542969-0.0126953
	c0,0,0.0820313-0.0068359,0.2255859-0.0151367l0.0395508-0.4838867c-0.3173828-0.3012695-0.5737305-0.5927734-0.7104492-0.8105469
	c-0.0869141-0.1381836-0.1625977-0.3769531-0.2407227-0.7626953c-0.3334961-0.1328125-0.6025391-0.5800781-0.737793-0.9443359
	c-0.203125-0.5483398-0.1933594-1.0654297,0.0234375-1.4404297c-0.0068359-0.0400391-0.012207-0.0776367-0.0166016-0.1137695
	c-0.1855469-0.0693359-0.4555664-0.2026367-0.5708008-0.4155273c-0.0649414-0.1201172-0.0766602-0.2509766-0.0341797-0.3789063
	c0.0424805-0.1274414,0.1132813-0.2675781,0.1889648-0.4145508c0.0625-0.121582,0.1035156-0.2167969,0.1435547-0.3115234
	c0.0214844-0.0512695,0.0336914-0.0805664,0.0439453-0.1108398c0.0444336-0.1298828,0.0649414-0.2353516,0.0649414-0.3330078
	c0-0.0356445-0.0126953-0.09375-0.0375977-0.1728516c-0.0317383-0.1015625-0.0786133-0.2143555-0.1274414-0.331543
	C27.5952148,4.8686523,27.2919922,4.1357422,27.9130859,3.6875l0.2495117-0.1850586
	c0.8168945-0.612793,2.3378906-1.7529297,3.5625-1.7529297c0.1953125,0,0.3779297,0.0297852,0.5424805,0.0878906
	c0.2666016,0.0942383,0.6035156,0.1977539,0.9658203,0.3100586c1.6298828,0.5024414,2.8017578,0.9003906,3.0419922,1.4458008
	c0.0644531,0.1464844,0.0625,0.2993164-0.0048828,0.4414063c-0.2138672,0.4521484-0.3486328,0.9125977-0.3779297,1.2963867
	c-0.0107422,0.1445313-0.0058594,0.2861328,0.0146484,0.421875c0.0332031,0.1733398,0.0722656,0.2841797,0.1259766,0.3759766
	c0.0175781,0.0297852,0.0292969,0.0527344,0.0400391,0.0761719c0.3691406,0.6533203,0.3417969,0.9624023-0.1386719,1.3916016
	c-0.0146484,0.0791016-0.0390625,0.2041016-0.0761719,0.355957c0.2109375,0.3774414,0.2148438,0.8935547,0.0097656,1.4384766
	C35.7324219,9.75,35.4648438,10.190918,35.1357422,10.3208008c-0.078125,0.3857422-0.1533203,0.6245117-0.2402344,0.7626953
	c-0.1708984,0.2719727-0.5146484,0.644043-0.9296875,1.0083008l0.015625,0.4790039
	c0.1777344,0.0209961,0.2724609,0.0341797,0.2724609,0.0341797l0.1767578,0.0244141l0.2353516,1.2124023l1.9091797,0.0083008
	c0.0332031,0.0087891,3.2949219,0.8691406,4.9287109,1.2270508c0.2333984,0.0507813,0.4414063,0.0917969,0.6123047,0.1186523
	c0.0898438,0.0146484,0.1699219,0.0249023,0.2353516,0.0297852c0.2753906,0.0214844,0.5068359,0.2128906,0.6884766,0.5693359
	c0.828125,0.1083984,1.8525391,0.2524414,2.3115234,0.3564453c1.0703125,0.2431641,1.2138672,2.3759766,1.2265625,2.6181641
	c-0.0283203,0.2763672-0.6689453,5.7880859-0.9033203,6.4931641c-0.0371094,0.1118164-0.078125,0.2617188-0.1259766,0.4365234
	c-0.2597656,0.9501953-0.6953125,2.5410156-1.765625,2.9716797c-0.4775391,0.1918945-0.8212891,0.28125-1.0820313,0.28125l0,0
	c-0.3115234,0-0.4726563-0.1337891-0.5537109-0.2456055c-0.1660156-0.2304688-0.1611328-0.5834961,0.015625-1.1123047
	c0.0673828-0.2011719,0.1572266-0.402832,0.2792969-0.6235352c-0.0361328-0.0507813-0.0605469-0.1040039-0.0732422-0.1611328
	c-0.0800781-0.3535156,0.1445313-1.0507813,0.1904297-1.1870117l0.0234375-0.0678711L43.5,24.8056641
	c0.0146484-0.0371094,0.0292969-0.0737305,0.0390625-0.1113281c0.0859375-0.3457031,0.0566406-1.0957031,0.0224609-1.9633789
	c-0.0458984-1.1464844-0.1015625-2.5512695,0.0976563-3.6630859L43.375,19.0361328
	c-0.1005859,0.6972656-0.3613281,1.6699219-1.0371094,1.9228516l-0.0546875,0.0205078l-4.7636719-0.4609375
	c-0.3935547,3.3925781-0.7089844,6.5009766-0.4023438,7.6860352c0.8632813,3.3378906,0.5419922,4.0844727,0.34375,4.2504883
	c0.2089844,0.9658203,0.1298828,2.0566406-0.2353516,3.0810547c-0.3974609,1.1132813-0.4589844,2.3867188-0.5029297,3.3164063
	c-0.0273438,0.578125-0.0498047,1.0361328-0.1386719,1.3300781c-0.4736328,1.5605469-0.4414063,2.0859375-0.2460938,2.9970703
	c0.2822266,1.3115234-1.4003906,7.5380859-2.4140625,9.0068359c0.1582031,1.4257813,0.2363281,2.1865234,0.2929688,2.7421875
	c0.0390625,0.3808594,0.0683594,0.6640625,0.1064453,1.0009766c0.0283203,0.2460938-0.0449219,0.4873047-0.2119141,0.7041016
	l0.0429688,0.1953125c0.4199219,1.8837891,0.8203125,3.9658203,0.2441406,4.8330078
	c-0.1455078,0.2167969-0.3417969,0.3496094-0.5849609,0.3925781C33.6992188,62.0751953,33.5878906,62.0849609,33.4785156,62.0849609
	z M27.1303711,23.3183594l0.0361328,0.2832031c0.2895508,2.28125,0.3647461,3.8007813,0.222168,4.5166016
	c-0.6743164,3.3979492-0.6831055,3.5756836-0.1870117,3.8051758l0.1416016,0.065918l0.003418,0.15625
	c0.0195313,0.9580078,0.2368164,2.2792969,0.4467773,3.5576172c0.2558594,1.5556641,0.4770508,2.8994141,0.3344727,3.5029297
	c-0.1772461,0.7539063,0.2265625,2.0947266,0.5507813,3.171875c0.1621094,0.5380859,0.3154297,1.046875,0.3896484,1.4472656
	c0.0810547,0.4355469,0.0507813,0.9179688,0.0151367,1.4765625c-0.0571289,0.9033203-0.1220703,1.9267578,0.2626953,3.0966797
	c0.6054688,1.8378906,1.5688477,6.3564453,1.3847656,7.1542969c-0.1132813,0.4882813-0.003418,0.8427734,0.3349609,1.0820313
	l0.0952148,0.0673828l0.0097656,0.1162109c0.0634766,0.7607422,0.1435547,1.4160156,0.2382813,1.9462891
	c0.3310547,1.8574219,1.2329102,2.9863281,2.3164063,2.7978516c0.1064453-0.0195313,0.1884766-0.0751953,0.2558594-0.1777344
	c0.5068359-0.7617188-0.0478516-3.25-0.3154297-4.4462891l-0.0986328-0.4482422l0.0908203-0.0957031
	c0.1298828-0.1357422,0.1845703-0.2695313,0.1689453-0.4082031c-0.0390625-0.3378906-0.0683594-0.6240234-0.1074219-1.0068359
	c-0.0576172-0.5673828-0.1376953-1.3476563-0.3027344-2.8339844l-0.0117188-0.1005859l0.0625-0.0800781
	c0.9013672-1.1621094,2.6376953-7.4902344,2.3818359-8.6796875c-0.2099609-0.9794922-0.25-1.5830078,0.2558594-3.2470703
	c0.0712891-0.2353516,0.0927734-0.6865234,0.1181641-1.2099609c0.0449219-0.9609375,0.1083984-2.2763672,0.53125-3.4599609
	C37.1621094,34.2255859,37.1826172,33,36.8105469,32.0068359l-0.6318359-1.6904297l1.0175781,1.387207
	c0.0146484-0.4511719-0.0576172-1.4169922-0.5634766-3.3740234c-0.3359375-1.2983398-0.0087891-4.4418945,0.4189453-8.1123047
	l0.0283203-0.2436523l5.1298828,0.496582c0.3378906-0.1743164,0.6035156-0.8295898,0.6982422-1.7358398l0.0263672-0.2504883
	l1.3300781,0.1489258l-0.0625,0.2734375c-0.2490234,1.0825195-0.1894531,2.5917969-0.1416016,3.8046875
	c0.0380859,0.9438477,0.0673828,1.6889648-0.0371094,2.1069336c-0.015625,0.0595703-0.0361328,0.1157227-0.0585938,0.171875
	l-0.0234375,0.0615234l-0.0732422,0.0996094l-0.8564453,0.6992188c-0.0996094,0.3129883-0.1826172,0.6992188-0.15625,0.8417969
	v-0.0004883c0.0039063,0,0.0166016,0.0126953,0.0429688,0.0307617l0.1904297,0.1333008l-0.1191406,0.199707
	c-0.1542969,0.2587891-0.2597656,0.4799805-0.3320313,0.6972656c-0.1689453,0.5063477-0.0996094,0.6401367-0.0839844,0.6621094
	c0.0244141,0.0336914,0.1113281,0.0375977,0.1474609,0.0375977l0,0c0.1894531,0,0.4902344-0.0825195,0.8955078-0.2451172
	c0.8398438-0.3378906,1.234375-1.7788086,1.4697266-2.6396484c0.0507813-0.1850586,0.0947266-0.3442383,0.1337891-0.4628906
	c0.1816406-0.5444336,0.6962891-4.769043,0.8798828-6.3505859c-0.0429688-0.7275391-0.3066406-1.9941406-0.8398438-2.1152344
	c-0.3681641-0.0834961-1.1982422-0.2099609-2.4003906-0.3652344l-0.140625-0.0185547l-0.0566406-0.1303711
	c-0.1044922-0.2426758-0.2275391-0.3920898-0.3291016-0.4003906c-0.0761719-0.0053711-0.1699219-0.0175781-0.2753906-0.0341797
	c-0.1787109-0.027832-0.3964844-0.0708008-0.6416016-0.1245117c-1.5576172-0.3413086-4.5751953-1.1337891-4.9169922-1.2236328
	h-2.2255859l-0.2451172-1.2641602c-0.0761719-0.0092773-0.1757813-0.0209961-0.2978516-0.0341797l-0.2158203-0.0234375
	l-0.0371094-1.1513672l0.0917969-0.0776367c0.4072266-0.3476563,0.7685547-0.7294922,0.921875-0.9736328
	c0.0283203-0.0454102,0.1054688-0.2109375,0.2089844-0.7788086l0.0488281-0.2646484l0.2734375,0.0708008
	c0.0585938-0.0444336,0.2558594-0.2558594,0.3974609-0.6298828c0.1621094-0.4316406,0.1572266-0.8334961-0.0136719-1.0751953
	l-0.0664063-0.0942383l0.0283203-0.1118164c0.0742188-0.2900391,0.1074219-0.5014648,0.1083984-0.5063477l0.0146484-0.0917969
	l0.0712891-0.0600586c0.3525391-0.2983398,0.3730469-0.3320313,0.1083984-0.7973633l0.1660156-0.2226563l-0.2158203,0.1264648
	c-0.0839844-0.1425781-0.1416016-0.3066406-0.1777344-0.5009766c-0.0371094-0.2255859-0.0439453-0.4057617-0.0292969-0.5878906
	c0.0429688-0.5688477,0.2548828-1.1147461,0.4248047-1.472168C35.6503906,3.4165039,34.0458984,2.9208984,33.0859375,2.625
	c-0.3696289-0.1142578-0.7128906-0.2202148-0.9848633-0.315918c-0.1113281-0.0395508-0.237793-0.0595703-0.3759766-0.0595703
	c-1.0581055,0-2.546875,1.1166992-3.2626953,1.652832l-0.2563477,0.1904297
	c-0.2797852,0.2021484-0.1611328,0.5546875,0.0517578,1.0693359c0.0546875,0.1318359,0.1064453,0.2583008,0.1425781,0.3730469
	c0.0419922,0.1333008,0.0605469,0.2329102,0.0605469,0.3227539c0,0.1542969-0.0292969,0.3115234-0.0917969,0.4941406
	c-0.0131836,0.0400391-0.0297852,0.0800781-0.046875,0.1206055c-0.0541992,0.1298828-0.1010742,0.237793-0.1523438,0.3369141
	c-0.0795898,0.1542969-0.140625,0.2705078-0.1757813,0.3759766c0.0253906,0.0449219,0.2436523,0.159668,0.4321289,0.2094727
	l0.1860352,0.0488281v0.1928711c0,0.0791016,0.012207,0.1748047,0.0380859,0.300293l0.0219727,0.1079102l-0.0644531,0.0888672
	c-0.1733398,0.2387695-0.1811523,0.6381836-0.0214844,1.0683594c0.1342773,0.3618164,0.3212891,0.5742188,0.4213867,0.6376953
	l0.2543945-0.065918l0.0483398,0.2646484c0.1035156,0.5678711,0.1806641,0.7333984,0.2084961,0.7783203
	c0.1254883,0.199707,0.3930664,0.4960938,0.7163086,0.7929688l0.0898438,0.0830078l-0.0961914,1.1650391l-0.2207031,0.0092773
	c-0.1098633,0.0043945-0.2016602,0.0092773-0.2714844,0.0136719L29.28125,14.0297852l-0.2021484-0.0380859
	c-0.0083008-0.0014648-0.8349609-0.1547852-1.4990234-0.1547852c-0.4667969,0-0.6098633,0.0761719-0.6425781,0.0996094
	l-0.1000977,0.0419922l-6.0390625,1.1381836c-0.0727539,0.0854492-0.2148438,0.2631836-0.3623047,0.5063477l-0.0566406,0.0932617
	l-2.140625,0.4438477l-0.0317383-0.0019531c-0.003418,0-0.0068359,0-0.0097656,0
	c-0.2363281,0-0.4296875,0.0498047-0.6445313,0.1508789c-0.1157227,0.0546875-0.3266602,0.2695313-0.3994141,0.6118164
	c-0.0615234,0.2915039-0.0351563,0.7548828,0.4414063,1.3081055c0.2988281,0.347168,1.534668,1.2255859,2.6245117,2.0004883
	c1.2885742,0.9155273,2.0878906,1.4902344,2.2851563,1.7509766c0.4023438,0.5322266,1.7524414,1.1669922,2.1962891,1.3754883
	c0.2475586,0.1162109,0.6337891,0.1035156,1.0161133,0.0678711c0.2695313-0.0263672,0.5327148-0.0483398,0.7773438-0.0151367
	c0.1420898,0.0195313,0.246582,0.0136719,0.3603516-0.0170898L27.1303711,23.3183594z M27.0576172,22.7705078l-0.4262695-0.2109375
	c-0.1225586-0.0605469-0.2143555-0.1000977-0.2172852-0.1010742l-0.1411133-0.0605469l-0.0097656-0.1538086
	c-0.0463867-0.1279297-0.5898438-0.5087891-1.1918945-0.7700195c-0.2163086-0.0942383-0.3417969-0.109375-0.5322266-0.1323242
	c-0.2265625-0.0273438-0.5087891-0.0610352-1.03125-0.2319336c-0.2446289-0.0800781-0.5209961-0.2788086-0.8681641-0.6264648
	L22.269043,20.112793l4.2993164-0.4521484l0.0400391,0.2294922c0,0,0.184082,1.0493164,0.3813477,2.409668L27.0576172,22.7705078z
	 M23.4101563,20.4956055c0.0961914,0.0688477,0.1806641,0.1152344,0.2529297,0.1386719
	c0.4755859,0.1557617,0.7202148,0.1850586,0.9355469,0.2114258c0.2084961,0.0249023,0.3891602,0.0463867,0.671875,0.1699219
	c0.0991211,0.0424805,0.7109375,0.3149414,1.1201172,0.6542969c-0.1000977-0.6538086-0.1870117-1.1796875-0.2353516-1.4633789
	L23.4101563,20.4956055z"/>
<g>
	<path style="fill:#D9DADA;" d="M30.8384972,55.5586052c0,0,0.071888,1.8333321,0.324379,3.25
		c0.326664,1.8328209,1.2719688,3.2377129,2.6065407,3c1.4035454-0.25,0.1783485-4.5833321,0-5.5833321
		S31.0356903,54.0573692,30.8384972,55.5586052z"/>
	<path style="fill:#231815;" d="M27.1583138,31.2681828c-0.3790188,1.6488209,1.0095673,6.6800938,0.7267132,7.880724
		c-0.2828541,1.200634,0.7117367,3.5055618,0.9377613,4.7220078c0.2013664,1.0837364-0.3525696,2.6664963,0.2860699,4.6059761
		c0.6386375,1.9394836,1.5386086,6.3260384,1.3784046,7.0190811c-0.5550785,2.4012642,3.7525063,1.9049377,3.5878677,0.4617805
		c-0.1422424-1.2468109-0.1536674-1.7547684-1.0200386-9.1432724c-0.8663673-7.388504-0.2769699-16.0676212-0.2769699-16.0676212
		S27.9720573,27.7282047,27.1583138,31.2681828z"/>
	<path style="fill:#3E3A39;" d="M31.9941845,31.2196484c0,0-0.575491,5.9369793-1.3275185,7.5481091
		c-0.7520256,1.6111298,0.536459,2.4166985,0,3.6697998c-0.5364571,1.2531013,0.5714626,5.8251686-0.2631531,7.9661446
		c-0.8541183,2.1910057,1.895834,3.1400375,3.1798191,1.8215714c0.9362907-0.9614334,2.7916679-7.6842957,2.5104179-8.9933395
		c-0.2023392-0.9417648-0.2382545-1.510437,0.2506638-3.1215668c0.2200661-0.725174-0.0003319-2.8492317,0.6453896-4.6586151
		c0.7452049-2.0881538,0.1869545-4.2005005-0.9992752-4.9316521C33.8333321,29.1904831,31.9941845,31.2196484,31.9941845,31.2196484
		z"/>
	<path style="fill:#D9DADA;" d="M30.9223213,46.8779564c0.6371136,3.5072937-1.6522045,5.54459,0.1793804,6.2521782
		c2.1363811,0.8253365,3.4826412-3.586132,3.9004726-5.1879768c0.4178276-1.601841-0.6241112-3.2605247-1.7507286-3.5543976
		C32.1248245,44.0938911,30.6244202,45.238018,30.9223213,46.8779564z"/>
</g>
<path style="fill:#717071;" d="M25.75,18.0586052l-5.083334-3.1702576c0,0-1.291666,1.3125-0.916666,3.0625
	s1.0670643,2.5769081,1.5,2.520834L25.75,18.0586052z"/>
<path style="fill:#FFB743;" d="M41.0516129,15.8005209c0,0,3.3264046,0.3860044,4.2440338,0.5944643
	s1.0323334,2.3878307,1.0323334,2.3878307s-0.6610718,5.7125683-0.89048,6.4007893
	c-0.2294083,0.6882229-0.600666,2.7939854-1.7477036,3.255209c-1.1470375,0.4612789-1.6726723,0.3814106-1.2894669-0.765625
	c0.0887718-0.2657566,0.2145081-0.5115738,0.3549194-0.7460785c-0.0716896-0.0498466-0.1275291-0.105854-0.1423149-0.1715508
	c-0.0685539-0.3045692,0.1839714-1.0527592,0.1839714-1.0527592l0.9128151-0.7457409
	c0.0249786-0.06637,0.0541573-0.1322899,0.0710144-0.1997242c0.2294083-0.9176292-0.2621994-3.9929466,0.177597-5.9070625
	l-2.9067192-0.3262787V15.8005209z"/>
<polygon style="fill:#FFB743;" points="18.082077,15.9371309 22.1857491,15.0863209 22.2840462,17.875 18.5138855,18.4536533 "/>
<g>
	<g>
		<path style="fill:#D9DADA;" d="M36.5122337,14.0917683c0,0,3.2800636,0.8660889,4.9382057,1.2295532
			c0.4502563,0.7302856,1.4290771,2.821106-0.0393066,5.3227539l-4.1113892-0.3980103
			C37.2997437,20.2460651,35.4792747,16.5039387,36.5122337,14.0917683z"/>
		<path style="fill:#D9DADA;" d="M42.0768433,15.4430256c0.0977783,0.0153198,0.1850586,0.0267334,0.2564697,0.0322266
			c1.083374,0.083313,1.25,4.75-0.083313,5.25l-0.2926025-0.0283203
			C43.1867676,18.4272175,42.5762939,16.4497395,42.0768433,15.4430256z"/>
		<path style="fill:#3E3A39;" d="M41.4504395,15.3213215c0.2390137,0.0524292,0.4519043,0.0942993,0.6264038,0.1217041
			c0.4994507,1.0067139,1.1099243,2.9841919-0.1194458,5.2539063l-0.5462646-0.0528564
			C42.8795166,18.1424274,41.9006958,16.0516071,41.4504395,15.3213215z"/>
	</g>
	<g>
		<path style="fill:#D9DADA;" d="M21.7680054,14.6649494l5.0236607-0.9318848
			c2.916687,3.916687-0.4294224,6.2005005-0.4294224,6.2005005l-3.9226074,0.4129028
			c0.3512573-0.5625,0.71875-1.3546143,0.7322388-2.2474976C23.1925659,16.7188435,22.2573242,15.3075886,21.7680054,14.6649494z"/>
		<path style="fill:#D9DADA;" d="M22.1820068,17.9521198c-0.1549683-1.4075928-1.5153198-3.0637817-1.5153198-3.0637817
			l0.5510864-0.1117554c0.3547974,0.4382324,1.4747925,1.9324951,1.4541016,3.3145752
			c-0.0146484,0.9700928-0.5230103,1.8323364-0.8807983,2.3235474L21.25,20.4716511
			C21.25,20.4716511,22.3070068,19.0875568,22.1820068,17.9521198z"/>
		<path style="fill:#3E3A39;" d="M21.2177734,14.7765827l0.5502319-0.1116333
			c0.4893188,0.6426392,1.4245605,2.053894,1.4038696,3.434021c-0.0134888,0.8928833-0.3809814,1.6849976-0.7322388,2.2474976
			l-0.6485596,0.0682373c0.3577881-0.4912109,0.8661499-1.3534546,0.8807983-2.3235474
			C22.6925659,16.7090778,21.5725708,15.2148151,21.2177734,14.7765827z"/>
	</g>
	<polygon style="fill:#E08E0B;" points="29.6875,16.3919392 33.8549957,16.3919392 33.6927071,11.3919392 30.098959,11.3919392 	"/>
	<g>
		<path style="fill:#1EA839;" d="M33.1005859,26.311861c-0.0708008-1.480957-0.1376953-2.8798828-0.0600586-3.8486328
			c0.2094727-2.6171875-0.5708008-7.7783203-0.6040039-7.9970703l-0.0074463-0.2927856
			c0.9516602,0.0611572,2.0309448-0.081604,2.0309448-0.081604l2.0522118-0.0000019
			c-0.1402588,1,0.7875099,6.1542988,0.7875099,6.1542988C36.875,23.8919392,36.5508423,27.0135822,36.875,28.2669392
			c0.9375,3.625,0.4247437,3.9972553,0.4247437,3.9972553c-1.3847656-2.2191181-3.1789093-2.118166-4.5216217-1.5173359
			C32.8731537,29.5022297,33.1762085,27.8921833,33.1005859,26.311861z"/>
		<path style="fill:#1EA839;" d="M26.3622437,19.9335651c1.333374-2.916626,0.4294224-6.2004776,0.4294224-6.2004776
			c0.4713135-0.3366699,2.333334,0.0129776,2.333334,0.0129776l2.5527344,0.3416138l0.0131836,0.4463501
			c0.012207,0.0981445,0.8041992,5.3388672,0.6015625,7.8696289c-0.0810547,1.0161133-0.0126953,2.4384766,0.059082,3.9438477
			c0.0809937,1.6913452-0.2086334,3.5501709-0.357378,4.7669678c-1.1962891,0.5701294-2.3552685,1.2444439-4.6608715,1.138792
			c-0.9421387-0.3920269-0.9421387-0.3920269-0.1895752-4.1837139
			C27.4891357,26.3293781,26.3622437,19.9335651,26.3622437,19.9335651z"/>
		<path style="fill:#B2B2B3;" d="M32.3515625,26.3475056c-0.0717773-1.5053711-0.1401367-2.9277344-0.059082-3.9438477
			c0.2026367-2.5307617-0.5893555-7.7714844-0.6015625-7.8696289l-0.0131836-0.4463501l0.4055786,0.0542603
			c0.1114502,0.0145264,0.2281494,0.0238647,0.3457642,0.0314331l0.0074463,0.2927856
			c0.0332031,0.21875,0.8134766,5.3798828,0.6040039,7.9970703c-0.0776367,0.96875-0.0107422,2.3676758,0.0600586,3.8486328
			c0.0756226,1.5803223-0.2274323,3.1903687-0.322464,4.4349976c-0.244873,0.1095581-0.5070801,0.2356567-0.7839375,0.3676147
			C32.1429291,29.8976765,32.4325562,28.0388508,32.3515625,26.3475056z"/>
	</g>
	<g>
		<path style="fill:#008F3A;" d="M32.4147949,12.6723347c1.1260986,0.0869141,1.8048706,0.180481,1.8048706,0.180481
			l0.2403564,1.2389526c0,0-1.0892944,0.387085-2.0593262,0.4310913
			C32.4449463,13.8655109,32.4347534,13.1744709,32.4147949,12.6723347z"/>
		<path style="fill:#008F3A;" d="M31.6540527,14.473299C30.6002808,14.3011799,29.125,13.7460651,29.125,13.7460651l0.4375-1.104126
			c0,0,0.8939819-0.0768433,2.0991211-0.0182495C31.6828613,13.1144733,31.6971436,13.822176,31.6540527,14.473299z"/>
		<path style="fill:#9C9C9D;" d="M31.9603882,14.5169392c-0.0948486-0.0084839-0.2011108-0.0264282-0.3063354-0.0436401
			c0.0430908-0.651123,0.0288086-1.3588257,0.0075684-1.8496094C31.7731323,12.6291218,31.8835449,12.6340046,32,12.6419392
			c0.1454468,0.0098877,0.2816162,0.0201416,0.4147949,0.0303955c0.0199585,0.5021362,0.0301514,1.1931763-0.0140991,1.8505249
			C32.2496338,14.5296955,32.1011353,14.5295734,31.9603882,14.5169392z"/>
	</g>
</g>
<path style="fill:#FFB743;" d="M19.7919827,16.8493557c1.290678,1.0969048,2.8390141,3.7106133,3.7936573,4.02285
	s1.0621338,0.1450939,1.5854301,0.3723488c0.5232944,0.227253,1.3235054,0.6971149,1.3418484,0.9838791
	c0,0,1.2019634,0.498373,0.9679241,0.8992901c-0.2340412,0.4009171-0.4429073,0.6068745-1.0205345,0.5287113
	c-0.5776253-0.0781631-1.2892399,0.1968575-1.8660889-0.0742397c-0.5768509-0.2710953-1.8642788-0.8888493-2.2889309-1.4507484
	c-0.3838596-0.5079212-4.2871456-3.0276127-4.9001923-3.739336c-0.9876499-1.1466236-0.3542995-2.1219978,0.0413094-2.308815
	C18.4466801,15.610939,18.9234123,16.1111851,19.7919827,16.8493557z"/>
<g id="head_32_">
	<path style="fill:#FFB743;" d="M35.543705,7.9155002C35.4306602,7.7887468,35.3237495,7.745358,35.22118,7.733325
		c0.0837708-0.9008102,0.1314392-1.6363959,0.1314392-1.6363959l-3.356966-1.1960855l-3.356966,1.1960855
		c0,0,0.0476704,0.7355857,0.1314411,1.6363959c-0.1025715,0.012033-0.2094822,0.0554218-0.322525,0.1821752
		c-0.5987663,0.6714282,0.0854473,2.078383,0.5431137,2.1866241c0.0273056,0.0064793,0.0491161-0.0125542,0.0738182-0.0184546
		c0.0739918,0.4062347,0.1552162,0.7268496,0.2430935,0.8665619c0.3973827,0.6319151,1.8981743,1.966671,2.6880245,1.966671
		s2.2906437-1.3347559,2.6880245-1.966671c0.0878792-0.1397123,0.1691017-0.4603271,0.2430954-0.8665619
		c0.0247002,0.0059004,0.0465126,0.0249338,0.0738182,0.0184546C35.4582558,9.9938831,36.1424713,8.5869284,35.543705,7.9155002z"/>
	<path style="fill:#E08E0B;" d="M31.0261421,11.3964033c0,0,1.4020195,0.2369614,2.0536613-0.2172136l-0.098732-0.1382275
		l0.3554382,0.0789871v0.3382416l-0.1629105-0.1407747C33.1735992,11.3174162,31.855505,11.8308315,31.0261421,11.3964033z"/>
	<polygon style="fill:#E08E0B;" points="31.9956532,9.1405869 31.9956532,10.4918175 32.2128677,10.7813673 31.9956532,10.9422283 
		31.6994534,10.6526785 	"/>
	<path style="fill:#231815;" d="M35.7039986,7.4661531c0,0-0.1716232,1.1386433-0.6635818,1.8955059
		c0,0-0.1642303-1.2521725-0.5828743-1.8955059c0,0-0.0780563,0.567647-0.4943314,0.8893137
		c0,0-0.3087769-1.3434315-2.046545-2.2138233c0,0,0.0305042,1.0974507-2.1643963,2.3841171
		c0,0-0.3198757-0.3784313-0.5194492-0.8325486c0,0-0.2176228,0.7551246-0.2819347,1.668447
		c0,0-0.5884571-1.0251141-0.5884571-1.7252121s3.5194111-2.2138228,3.5194111-2.2138228L35.7039986,7.4661531z"/>
	<path style="fill:#1EA839;" d="M28.3624287,7.636447c0,0-0.7190189-0.1892157-0.6054897-0.5298038
		s0.4541187-0.7568626,0.4541187-1.2488232s-0.83255-1.4758821-0.1513729-1.9678428
		c0.6811752-0.4919608,2.8382339-2.2705879,4.1249008-1.8164704s4.2005882,1.135294,3.8600006,1.8543134
		s-0.6054916,1.6840196-0.2270584,2.3273525c0.3784294,0.6433334,0.3784294,0.7947059-0.1135292,1.2109804
		C35.7039986,7.4661531,32.2981148,6.5389962,28.3624287,7.636447z"/>
	<path style="fill:#3E3A39;" d="M35.6437225,5.3121252c-1.1360703-0.3446903-2.1025124-0.3368745-2.1520691-0.3341579
		c-0.2510071,0.0044346-0.4496841,0.2110934-0.4461365,0.4616566c0.0044365,0.2483454,0.2075462,0.4465785,0.4550056,0.4465785
		c0.0017738,0,0.0044327,0,0.0070953,0c-0.0023842-0.001164,1.1728783-0.0063195,2.3619995,0.4681978
		c-0.0204582-0.0361433-0.0287704-0.0595365-0.0521088-0.0992274C35.6580238,5.9840994,35.6171684,5.6549859,35.6437225,5.3121252z"
		/>
	<path style="fill:#3E3A39;" d="M30.0019531,5.610805c-0.0425739-0.246572-0.2700748-0.4102139-0.5241852-0.3707447
		c-0.0474529,0.0081491-0.6315079,0.1117001-1.3158989,0.370523c0.0284367,0.0901914,0.0491695,0.1750612,0.0491695,0.2472367
		c0,0.3101549-0.134594,0.5866055-0.263092,0.8365583c0.6311207-0.317749,1.3460007-0.5010147,1.6837063-0.5593872
		C29.8782234,6.0924177,30.0445271,5.85782,30.0019531,5.610805z"/>
	<g>
		
			<ellipse transform="matrix(0.9712284 -0.2381502 0.2381502 0.9712284 -1.1401893 8.2802649)" style="fill:#524634;" cx="33.6988106" cy="8.8589478" rx="1.3180951" ry="0.8145531"/>
		<path style="fill:#FFFFFF;" d="M33.4072266,9.8349609c-0.5800781,0-1.015625-0.2480469-1.1103516-0.6323242
			c-0.125-0.5117188,0.3925781-1.0634766,1.1787109-1.2563477c0.171875-0.0419922,0.3457031-0.0634766,0.5146484-0.0634766
			c0.5810547,0,1.015625,0.2480469,1.109375,0.6323242c0.0625,0.2548828-0.0332031,0.527832-0.2695313,0.7685547
			c-0.2207031,0.2250977-0.5439453,0.3984375-0.9082031,0.487793C33.75,9.8134766,33.5761719,9.8349609,33.4072266,9.8349609z
			 M33.9902344,8.1328125c-0.1484375,0-0.3017578,0.019043-0.4560547,0.0566406
			c-0.6274414,0.1538086-1.0830078,0.5908203-0.9941406,0.9536133c0.0649414,0.2646484,0.4130859,0.4418945,0.8671875,0.4418945
			c0.1484375,0,0.3017578-0.019043,0.4560547-0.0566406c0.3193359-0.078125,0.5996094-0.2275391,0.7880859-0.4194336
			c0.1738281-0.1767578,0.2470703-0.3666992,0.2060547-0.5341797C34.7929688,8.3100586,34.4443359,8.1328125,33.9902344,8.1328125z"
			/>
	</g>
	<g>
		
			<ellipse transform="matrix(-0.9712284 -0.2381502 0.2381502 -0.9712284 57.6036682 24.6771717)" style="fill:#524634;" cx="30.2924976" cy="8.8589478" rx="1.3180951" ry="0.8145531"/>
		<path style="fill:#FFFFFF;" d="M30.5844727,9.8349609c-0.1694336,0-0.3427734-0.0214844-0.515625-0.0634766
			c-0.7856445-0.1928711-1.3032227-0.7446289-1.1782227-1.2563477c0.0947266-0.3842773,0.5302734-0.6323242,1.1098633-0.6323242
			c0.1694336,0,0.3427734,0.0214844,0.515625,0.0634766c0.7856445,0.1928711,1.3032227,0.7446289,1.1782227,1.2563477
			C31.5996094,9.5869141,31.1640625,9.8349609,30.5844727,9.8349609z M30.0004883,8.1328125
			c-0.4536133,0-0.8017578,0.1772461-0.8666992,0.4418945C29.0449219,8.9375,29.5004883,9.3745117,30.128418,9.5283203
			c0.1533203,0.0375977,0.3066406,0.0566406,0.4560547,0.0566406c0.4536133,0,0.8017578-0.1772461,0.8666992-0.4418945
			c0.0888672-0.362793-0.3666992-0.7998047-0.9946289-0.9536133C30.3032227,8.1518555,30.1499023,8.1328125,30.0004883,8.1328125z"
			/>
	</g>
	<path style="fill:#FFFFFF;" d="M32.4379768,8.668396c0,0-0.1548157,0.1954794-0.4423237,0.1954794
		S31.5533314,8.668396,31.5533314,8.668396v0.7197533c0,0,0.1714001-0.2564116,0.4423218-0.2564116
		s0.4423237,0.2564116,0.4423237,0.2564116V8.668396z"/>
</g>
<g>
</g>
<g>
</g>
<g>
</g>
<g>
</g>
<g>
</g>
<g>
</g>
</svg>
