<?xml version="1.0" encoding="utf-8"?>
<!-- Generator: Adobe Illustrator 17.0.0, SVG Export Plug-In . SVG Version: 6.00 Build 0)  -->
<!DOCTYPE svg PUBLIC "-//W3C//DTD SVG 1.1//EN" "http://www.w3.org/Graphics/SVG/1.1/DTD/svg11.dtd">
<svg version="1.1" id="レイヤー_1" xmlns="http://www.w3.org/2000/svg" xmlns:xlink="http://www.w3.org/1999/xlink" x="0px"
	 y="0px" width="64px" height="64px" viewBox="0 0 64 64" style="enable-background:new 0 0 64 64;" xml:space="preserve">
<path style="fill:#231815;" d="M32.7563477,61.9785156c-0.0527344,0-0.1069336-0.0019531-0.1616211-0.0048828
	c-0.4013672-0.0244141-0.7324219-0.2167969-0.9570313-0.5566406c-0.4521484-0.6826172-0.3901367-1.8193359-0.1176758-2.7314453
	c-0.765625-0.3007813-0.8666992-0.765625-0.8530273-1.03125c0.0219727-0.4375,0.0800781-0.9072266,0.1674805-1.6191406
	c0.1162109-0.9472656,0.2875977-2.3398438,0.5058594-4.7011719c-0.5297852,0.1757813-1.2539063-0.2519531-1.5283203-0.6738281
	c-0.1474609-0.2275391-0.184082-0.453125-0.1030273-0.6367188c0.0703125-0.1572266,0.1152344-0.8603516,0.0200195-2.3222656
	C29.6860352,47.6933594,29.6508789,47.6875,29.625,47.6875c-0.3051758,0-0.5014648-0.3339844-0.7983398-0.8388672
	c-0.2949219-0.5019531-0.6621094-1.1279297-1.1318359-1.3779297c-0.5722656-0.3046875-0.9106445-0.7753906-1.0996094-1.1386719
	c-0.2646484-0.1796875-0.4326172-0.3583984-0.5126953-0.546875c-0.1992188-0.4638672-0.0927734-1.5498047,0.1064453-3.2822266
	c0.1362305-1.1816406,0.3051758-2.6533203,0.1435547-3.0292969c-0.3120117-0.7294922,0.2172852-2.6044922,0.6049805-3.7744141
	c-0.1894531-0.1533203-0.3095703-0.3515625-0.3730469-0.6113281l-0.012207-0.0498047l0.0083008-0.0498047
	c0.0019531-0.012207,0.1953125-1.2280273,0.2421875-2.9638672c-1.1176758-0.8129883-2.2460938-1.6386719-2.5712891-2.0239258
	c-0.3901367-0.4628906-0.5874023-0.9628906-0.5708008-1.4458008c0.0053711-0.1503906,0.0327148-0.3017578,0.0810547-0.449707
	l0.1025391-1.4604492c-0.9311523-0.1757813-1.5649414-0.3168945-1.5649414-0.3168945l-0.237793-0.0532227l0.0463867-0.2387695
	c0,0,0.0454102-0.2324219,0.1254883-0.5932617c0.0332031-0.1494141,0.0727539-0.3198242,0.1191406-0.5146484
	c0.6655273-2.7919922,2.1210938-7.4750977,4.3901367-7.4750977l0.0283203,0.0009766
	c0.5732422-0.2543945,1.7763672-0.453125,2.1948242-0.5170898l0.4414063-1.1147461l0.1552734-0.012207
	c0,0,0.081543-0.0068359,0.2246094-0.0146484l0.0395508-0.484375C29.4892578,13.0092773,29.2329102,12.7177734,29.0961914,12.5
	c-0.0869141-0.1381836-0.1625977-0.3769531-0.2407227-0.762207c-0.3310547-0.1298828-0.6015625-0.5786133-0.7373047-0.9433594
	c-0.2036133-0.5488281-0.1943359-1.0668945,0.0229492-1.4418945c-0.0068359-0.0400391-0.012207-0.0776367-0.0166016-0.1137695
	c-0.1855469-0.0693359-0.4555664-0.2026367-0.5708008-0.4155273c-0.0649414-0.1196289-0.0766602-0.2509766-0.0341797-0.3789063
	c0.0429688-0.1279297,0.1142578-0.2695313,0.190918-0.4179688c0.0600586-0.1171875,0.1015625-0.2119141,0.140625-0.3066406
	c0.0195313-0.0458984,0.0332031-0.0776367,0.0444336-0.1113281c0.0454102-0.1328125,0.0654297-0.2348633,0.0654297-0.3339844
	c0-0.0356445-0.0126953-0.0932617-0.0371094-0.171875C27.8911133,7,27.8442383,6.8876953,27.7958984,6.7695313
	c-0.2006836-0.484375-0.503418-1.2167969,0.1171875-1.6655273l0.2490234-0.1845703
	C28.9790039,4.3066406,30.5,3.1665039,31.7250977,3.1665039c0.1948242,0,0.3774414,0.0297852,0.5424805,0.0878906
	c0.2661133,0.09375,0.6015625,0.1972656,0.9638672,0.309082c1.6298828,0.5024414,2.8027344,0.9008789,3.0439453,1.4462891
	c0.0644531,0.1464844,0.0625,0.2993164-0.0048828,0.4418945c-0.2138672,0.4521484-0.3486328,0.9125977-0.3779297,1.2963867
	c-0.0107422,0.1445313-0.0058594,0.2861328,0.0146484,0.421875c0.0332031,0.1728516,0.0722656,0.2836914,0.1259766,0.3754883
	C36.0507813,7.5751953,36.0625,7.5981445,36.0732422,7.621582c0.3691406,0.6533203,0.3417969,0.9624023-0.1386719,1.3916016
	c-0.0146484,0.0791016-0.0390625,0.2041016-0.0761719,0.3564453c0.2109375,0.3774414,0.2148438,0.8945313,0.0087891,1.4399414
	c-0.1357422,0.3579102-0.4033203,0.7978516-0.7314453,0.9277344c-0.078125,0.3857422-0.1533203,0.6245117-0.2402344,0.7626953
	c-0.1708984,0.2714844-0.5136719,0.6435547-0.9296875,1.0083008l0.015625,0.4794922
	c0.1777344,0.0209961,0.2724609,0.0341797,0.2724609,0.0341797l0.1767578,0.0244141l0.2470703,1.2695313l1.8994141,0.612793
	l-0.0009766,0.0009766c0.5595703,0.09375,1.9550781,0.9716797,3.9179688,6.9746094l0.3652344,1.1420898l-0.0751953,0.1015625
	c-0.1445313,0.1977539-0.4384766,0.3901367-0.8945313,0.5864258c0.3125,0.9560547,0.5263672,1.8330078,0.5292969,1.8422852
	c0.0478516,0.2421875,1.1210938,5.6889648,1.2216797,6.40625c0.015625,0.1166992,0.0458984,0.269043,0.0810547,0.4467773
	c0.1894531,0.9667969,0.5068359,2.5849609-0.2607422,3.4462891c-0.5136719,0.5771484-0.8691406,0.8232422-1.1894531,0.8232422
	c-0.5917969,0-0.7041016-0.8027344-0.7412109-1.0673828c-0.0283203-0.2128906-0.0380859-0.4326172-0.0273438-0.6816406
	c-0.0537109-0.0292969-0.0986328-0.0664063-0.1357422-0.1113281c-0.2294922-0.2822266-0.3378906-1.0068359-0.3574219-1.1494141
	L39,34.6181641l0.4892578-1.0771484c-0.0039063-0.0400391-0.0068359-0.0791016-0.0146484-0.1162109
	c-0.0869141-0.3955078-0.3261719-1.1630859-0.6025391-2.0512695c-0.3632813-1.1665039-0.7744141-2.4887695-1.0322266-3.5654297
	l-0.4306641-2.4423828c-0.0644531,0.0058594-0.1269531,0.0102539-0.1884766,0.0136719
	c-0.1806641,2.046875-0.2119141,3.4448242-0.0976563,4.2700195c0.3320313,2.3955078,0.4990234,3.4785156,0.4990234,3.4794922
	l0.0429688,0.2783203l-0.1669922,0.0058594c0.1152344,0.9257813-0.0527344,2.2099609-0.2158203,3.4550781
	c-0.1484375,1.1298828-0.3007813,2.296875-0.1513672,2.7910156c0.2636719,0.8681641-0.0576172,2.2451172-0.3417969,3.4599609
	c-0.1240234,0.5332031-0.2421875,1.0371094-0.2880859,1.4140625s0.0117188,0.828125,0.078125,1.3505859
	c0.1132813,0.8955078,0.2548828,2.0117188-0.0800781,3.296875c-0.1074219,0.4082031-0.0849609,0.7705078-0.0556641,1.2294922
	c0.0283203,0.46875,0.0644531,1.0517578-0.0283203,1.8681641c-0.109375,0.9570313-0.3261719,2.1103516-0.5185547,3.1289063
	c-0.1640625,0.8730469-0.3505859,1.8613281-0.3193359,2.0400391c0.0732422,0.3261719-0.0380859,0.6337891-0.3134766,0.8808594
	c0.1201172,0.3847656,0.140625,0.7871094,0.0615234,1.1992188C35.0419922,61.015625,34.0332031,61.9785156,32.7563477,61.9785156z
	 M32.012207,49.4384766l-0.1176758,1.3183594c-0.2456055,2.7519531-0.4370117,4.3085938-0.5639648,5.3398438
	c-0.0859375,0.7001953-0.1430664,1.1630859-0.1645508,1.5830078c-0.0166016,0.3359375,0.4555664,0.5263672,0.7387695,0.609375
	l0.253418,0.0751953l-0.0888672,0.2490234c-0.347168,0.9765625-0.3535156,2.0166016-0.0146484,2.5283203
	c0.1381836,0.2089844,0.324707,0.3173828,0.5703125,0.3320313c1.3300781,0.0908203,2.015625-1.0175781,2.2099609-2.0400391
	c0.0722656-0.3808594,0.0390625-0.7509766-0.0986328-1.0996094l-0.0742188-0.1855469l0.1660156-0.1132813
	c0.2861328-0.1943359,0.2861328-0.3671875,0.2607422-0.4804688c-0.0546875-0.2470703,0.0644531-0.9013672,0.3164063-2.2402344
	c0.1904297-1.0097656,0.40625-2.1542969,0.5136719-3.0927734c0.0878906-0.7724609,0.0546875-1.3076172,0.0253906-1.7802734
	c-0.0302734-0.484375-0.0566406-0.9013672,0.0703125-1.3876953c0.3115234-1.1914063,0.1816406-2.2089844,0.0683594-3.1074219
	c-0.0703125-0.5546875-0.1318359-1.0341797-0.078125-1.4736328c0.0488281-0.4042969,0.1699219-0.9208984,0.2978516-1.4677734
	c0.2558594-1.0957031,0.5742188-2.4599609,0.3496094-3.2011719c-0.1806641-0.5966797-0.0351563-1.7109375,0.1337891-3
	c0.1679688-1.2783203,0.3574219-2.7265625,0.1748047-3.5771484l-0.0634766-0.2924805l0.1884766-0.0063477
	c-0.0683594-0.4594727-0.2216797-1.5014648-0.4589844-3.2099609c-0.125-0.9052734-0.0878906-2.3691406,0.1162109-4.6069336
	l0.0214844-0.2319336l0.2324219,0.0048828c0.2041016,0.0102539,0.3925781-0.0166016,0.5869141-0.0400391l0.2353516-0.0292969
	l0.5097656,2.8920898c0.2509766,1.0454102,0.6601563,2.359375,1.0205078,3.5185547
	c0.2802734,0.8989258,0.5214844,1.6757813,0.6132813,2.0932617c0.0126953,0.0595703,0.0185547,0.1201172,0.0244141,0.1806641
	l0.0058594,0.0654297l-0.0214844,0.1220703l-0.4560547,1.0058594c0.0498047,0.3242188,0.1474609,0.7060547,0.2333984,0.8242188
	c0.0029297-0.0029297,0.0126953,0.0019531,0.0517578,0.0078125l0.2314453,0.0341797l-0.0185547,0.2324219
	c-0.0234375,0.296875-0.0195313,0.5419922,0.0126953,0.7724609c0.0693359,0.5019531,0.1875,0.6357422,0.2451172,0.6357422
	c0.0703125,0,0.2890625-0.0634766,0.8164063-0.6552734c0.6025391-0.6767578,0.3144531-2.1416016,0.1425781-3.0175781
	c-0.0361328-0.1884766-0.0683594-0.3505859-0.0859375-0.4746094c-0.0976563-0.703125-1.203125-6.3110352-1.2138672-6.3676758l0,0
	c0,0-0.2441406-0.996582-0.5888672-2.012207l-0.0771484-0.2265625l0.2226563-0.0869141
	c0.4736328-0.1845703,0.703125-0.3305664,0.8125-0.4228516l-0.2802734-0.8764648
	c-2.1337891-6.5239258-3.4882813-6.6430664-3.5019531-6.6435547l-0.0605469,0.0102539l-0.0341797-0.0214844l-2.1806641-0.7036133
	l-0.2333984-1.2060547c-0.0761719-0.0092773-0.1757813-0.0209961-0.2978516-0.0341797l-0.2158203-0.0239258l-0.0371094-1.1513672
	l0.0917969-0.0776367c0.4072266-0.3481445,0.7695313-0.7299805,0.921875-0.9736328
	c0.0283203-0.0454102,0.1054688-0.2109375,0.2089844-0.7783203l0.0478516-0.2597656l0.2744141,0.065918
	c0.0585938-0.0449219,0.2558594-0.2558594,0.3964844-0.6293945c0.1630859-0.4316406,0.1591797-0.8334961-0.0126953-1.0756836
	l-0.0664063-0.0942383l0.0283203-0.1118164c0.0742188-0.2905273,0.1074219-0.5019531,0.1083984-0.5068359l0.0146484-0.0917969
	l0.0712891-0.0600586c0.3525391-0.2983398,0.3730469-0.3320313,0.1083984-0.7973633l0.1660156-0.2226563l-0.2158203,0.1264648
	c-0.0839844-0.1425781-0.1416016-0.3066406-0.1777344-0.5009766c-0.0371094-0.2250977-0.0439453-0.4052734-0.0292969-0.5874023
	c0.0429688-0.5683594,0.2548828-1.1142578,0.4248047-1.472168c-0.1689453-0.4052734-1.7753906-0.9008789-2.7353516-1.1967773
	c-0.3691406-0.1137695-0.7114258-0.2192383-0.9824219-0.3149414c-0.1118164-0.0395508-0.2382813-0.0595703-0.3764648-0.0595703
	c-1.0581055,0-2.5473633,1.1162109-3.2631836,1.652832l-0.2558594,0.1899414
	c-0.2797852,0.2021484-0.1611328,0.5546875,0.0517578,1.0693359c0.0546875,0.1318359,0.1064453,0.2587891,0.1425781,0.3735352
	c0.0419922,0.1323242,0.0605469,0.2319336,0.0605469,0.3222656c0,0.1542969-0.0292969,0.3115234-0.0917969,0.4941406
	c-0.0146484,0.0444336-0.0332031,0.0888672-0.0522461,0.1337891c-0.0488281,0.1166992-0.0957031,0.2241211-0.1469727,0.3237305
	c-0.0810547,0.1572266-0.1411133,0.2714844-0.1757813,0.3764648c0.0253906,0.0449219,0.2402344,0.1577148,0.4321289,0.2089844
	l0.1855469,0.0498047l0.0004883,0.1918945c0,0.0791016,0.012207,0.1748047,0.0380859,0.300293l0.0219727,0.1079102
	L28.6079102,9.550293c-0.1733398,0.2392578-0.1811523,0.6391602-0.0209961,1.0698242
	c0.1347656,0.3618164,0.3217773,0.5742188,0.4213867,0.6367188l0.2543945-0.0610352l0.0478516,0.2597656
	c0.1035156,0.5673828,0.1801758,0.7329102,0.2084961,0.777832c0.1254883,0.199707,0.3930664,0.4960938,0.7163086,0.7929688
	l0.0898438,0.0830078l-0.0961914,1.1655273l-0.2207031,0.0092773c-0.1098633,0.0043945-0.2016602,0.0092773-0.2714844,0.0131836
	l-0.4331055,1.0927734l-0.144043,0.0200195c-0.4624023,0.0649414-1.7675781,0.284668-2.2470703,0.5195313l-0.0585938,0.0288086
	l-0.1313477-0.0058594c-1.3857422,0-2.8452148,2.6508789-3.9038086,7.0908203
	c-0.0454102,0.1914063-0.0849609,0.3598633-0.1171875,0.5068359c-0.0297852,0.1333008-0.0541992,0.2490234-0.0737305,0.3413086
	c0.2958984,0.0625,0.8442383,0.1762695,1.5268555,0.3027344l0.2207031,0.0405273l-0.1464844,1.9663086
	c-0.0463867,0.1640625-0.0649414,0.2661133-0.0683594,0.3710938c-0.0126953,0.3618164,0.1396484,0.734375,0.453125,1.105957
	c0.2958984,0.3510742,1.5141602,1.2373047,2.5888672,2.019043l0.105957,0.0771484l-0.0029297,0.1303711
	c-0.0366211,1.6538086-0.2036133,2.8447266-0.2431641,3.1098633c0.050293,0.1699219,0.1386719,0.2783203,0.2958984,0.3671875
	l0.1796875,0.1025391l-0.0664063,0.1953125c-0.5966797,1.7558594-0.8632813,3.1679688-0.6791992,3.5966797
	c0.1992188,0.4648438,0.0927734,1.5507813-0.1064453,3.2832031c-0.1362305,1.1816406-0.3051758,2.6533203-0.1435547,3.0292969
	c0.0307617,0.0722656,0.121582,0.1933594,0.3813477,0.3613281l0.0581055,0.0371094l0.0302734,0.0625
	c0.1499023,0.3037109,0.4301758,0.7197266,0.9179688,0.9794922c0.59375,0.3164063,1.0009766,1.0097656,1.3276367,1.5664063
	c0.137207,0.2333984,0.3251953,0.5527344,0.4091797,0.6005859c0.0249023-0.0117188,0.1357422,0.0107422,0.2739258,0.0371094
	l0.2602539,0.0507813l0.0136719,0.1914063c0.105957,1.5136719,0.0898438,2.4384766-0.0488281,2.7509766
	c-0.0024414,0.0126953,0.0073242,0.0947266,0.1147461,0.2285156c0.1650391,0.2060547,0.4897461,0.4248047,0.7666016,0.4248047
	c0.1679688,0,0.2866211-0.0810547,0.3745117-0.2568359L32.012207,49.4384766z M32.0102539,44.7275391l-0.5029297-1.1054688
	c-0.1376953-0.3027344-0.2885742-0.5761719-0.425293-0.8242188c-0.171875-0.3125-0.3208008-0.5820313-0.4082031-0.8378906
	l-0.0200195-0.0576172l0.0092773-0.0615234c0.4667969-3.0576172,0.90625-5.2001953,1.5361328-5.7177734l0.4833984-0.3964844
	l-0.0766602,0.6201172c-0.1289063,1.0458984-0.3007813,2.2539063-0.5253906,3.6923828
	c-0.1489258,0.9521484-0.1230469,2.1884766-0.0976563,3.3837891L32.0102539,44.7275391z M31.1669922,41.8535156
	c0.0673828,0.1777344,0.1743164,0.3779297,0.2988281,0.6044922c-0.0097656-0.8935547,0.0063477-1.765625,0.1206055-2.4970703
	c0.1030273-0.6591797,0.1948242-1.2695313,0.2768555-1.8378906C31.5488281,39.3710938,31.296875,41.0029297,31.1669922,41.8535156z
	 M27.2436523,27.0629883l-0.5166016-0.4882813c-0.0219727-0.0224609-0.0439453-0.0449219-0.0654297-0.0634766l-0.1069336-0.0932617
	c-0.1396484-0.1220703-0.2685547-0.234375-0.3935547-0.3378906l-0.1064453-0.0888672l0.222168-1.6069336l0.1542969-0.0097656
	l0.1289063-1.3432617l0.4985352,0.0117188L27.2436523,27.0629883z"/>
<g>
	<path style="fill:#D9DADA;" d="M29.9375,47.125c0,0,0.2153873,2.515377,0,3c-0.25,0.5625,1.8125,2.0625,1.875-0.1875
		S34.3125,44.9375,29.9375,47.125z"/>
	<path style="fill:#231815;" d="M26.625,43.75c0,0,0.25,1,1.1875,1.5s1.4375,2.1875,1.8125,2.1875s2.375,0.8125,2.5625-1.5
		s-1.34375-3.53125-1.34375-4.40625S26.3125,39.5625,26.625,43.75z"/>
	<path style="fill:#3E3A39;" d="M27.3125,33.375c0,0-1.125,3.125-0.75,4s-0.625,5.4375-0.25,6.3125s3.125,1.59375,3.59375-0.09375
		c0.1298866-0.4675941,0.886631-0.9430885,0.9897156-1.6218529c0.3945427-2.5978699,0.9778538-6.0522499,1.7707024-5.7218971
		C33.6525116,36.6607704,33.125,28.6875,27.3125,33.375z"/>
	<path style="fill:#231815;" d="M32.625,36.0833321c0,0-3.2028637-2.0852509-4.416666-1.9166641
		c-1.5,0.2083321-0.333334-1.4583359-0.333334-1.4583359l5.375-0.0416641L32.625,36.0833321z"/>
	<path style="fill:#3E3A39;" d="M37.1666679,33c0.481842,1.6217575-0.6323318,5.550518-0.2746201,6.7310104
		c0.3577156,1.1804962-0.4901237,3.5433502-0.6392899,4.7715874c-0.1328926,1.0942497,0.519371,2.6390839,0.0038223,4.6148529
		C36.0247345,50.00597,36.3489876,50.6510773,36.1666679,52.25c-0.2231026,1.9565544-0.9226608,4.8480377-0.8333359,5.25
		c0.3333359,1.5-4.4903278,1.6173134-4.416666,0.1666679c0.0540485-1.0643806,0.3223324-2.3141899,0.75-7.1666679
		c0.075901-0.8612022,0.2729607-2.04702,0.333334-3.1666679c0.0509491-0.9448624-0.2568016-1.5366249-0.25-2.5
		C31.7603855,43.362278,31.6177597,41.3796768,31.833334,40c0.833334-5.3333321,0.6249981-5.5,0.833334-5.9166679
		C32.875,33.6666679,36.132164,29.5181274,37.1666679,33z"/>
	<path style="fill:#D9DADA;" d="M34.75,57.8333321c0,0,0.5205345,0.6491776,0.3303452,1.6470299
		c-0.2460518,1.2909775-1.1282005,2.3241882-2.4705048,2.2432442c-1.411684-0.0851288-1.2765064-2.640274-0.3598404-4.0569382
		C32.9166679,57.5,33.6666679,57.4166679,34.75,57.8333321z"/>
</g>
<path style="fill:#717071;" d="M22.333334,24.083334c0,0,0.885416,0.197916,2.104166,0.416666
	s2.2227249,0.1084404,2.2227249,0.1084404L25,22.0625L22.333334,24.083334z"/>
<path style="fill:#FFB743;" d="M37.3333321,23.5c0,0-0.081295-0.9454098,0.8333359-1.166666
	c0.9146271-0.2212563,2.0092316,4.3026924,2.0092316,4.3026924s1.1159134,5.6630001,1.2164116,6.3814564
	c0.1004982,0.7184525,0.7041779,2.7697067-0.1181946,3.6928139c-0.8223457,0.9231529-1.3286819,1.0853119-1.4954109-0.1124916
	c-0.0386391-0.2775154-0.035305-0.5536041-0.0137939-0.8260803c-0.0863762-0.0127792-0.1612968-0.0381203-0.2037506-0.0903931
	c-0.1968155-0.2423325-0.3032684-1.0247803-0.3032684-1.0247803l0.4860725-1.0738182
	c-0.0071335-0.0705566-0.0103035-0.1425743-0.0251846-0.2104721c-0.2024956-0.9239426-1.1783638-3.7121983-1.6354485-5.622261
	L37.3333321,23.5z"/>
<polygon style="fill:#FFB743;" points="24.2832794,22.1056232 23.9574394,26.4770432 26.1942425,26.8049793 26.8330383,22.1907501 
	"/>
<g>
	<g>
		<path style="fill:#D9DADA;" d="M40.583313,24c-0.458313,0.625-3.125,1.333313-4,1.083313l0.0180664-0.3566895
			c2.0906982-0.1936035,3.2490234-0.805542,3.8189697-1.234436C40.4750366,23.6646729,40.52771,23.8192749,40.583313,24z"/>
		<path style="fill:#D9DADA;" d="M36.75,21.791626c0,0-1.282959-3.2128296-0.25-5.625c0,0,1.4475098-0.2467651,3.7566528,6.8153076
			c-0.4234619,0.3554077-1.4924316,1.026062-3.6296387,1.2385864L36.75,21.791626z"/>
		<path style="fill:#3E3A39;" d="M40.2566528,22.9819336c0.0540161,0.1651611,0.1087646,0.3369141,0.1636963,0.5102539
			c-0.5699463,0.428894-1.7282715,1.0408325-3.8189697,1.234436l0.0256348-0.5061035
			C38.7642212,24.0079956,39.8331909,23.3373413,40.2566528,22.9819336z"/>
	</g>
	<polygon style="fill:#E08E0B;" points="29.6875,17.8086052 33.8549957,17.8086052 33.6927071,12.8086061 30.098959,12.8086061 	"/>
	<g>
		<path style="fill:#1EA839;" d="M32.375,25.3823242c0.0698242-3.6664429-0.0073242-8.3938599-0.0333862-9.8002319
			c0.029541,0.0021973,0.0577393,0.0060425,0.0874634,0.0079346c0.9516602,0.0611572,2.0309448-0.081604,2.0309448-0.081604
			L36.5,16.166626c0.791687,3.125,0.7875366,6.1542969,0.7875366,6.1542969
			c-0.4247437,3.645874-0.5906372,6.0803833-0.4125366,7.3626709c0.333313,2.3997192,0.5,3.4830322,0.5,3.4830322
			c-2.1046753,0.0682373-3.262207,0.3258057-4.7734375,0.4527588C32.5290527,32.5836792,32.305542,29.026062,32.375,25.3823242z"/>
		<path style="fill:#1EA839;" d="M26.75,21.791626c1.333374-2.916626-0.083313-6.0169067-0.083313-6.0169067
			c0.4713135-0.3366699,2.458313-0.6119995,2.458313-0.6119995l2.4648438,0.329834
			c0.024231,1.2678833,0.1066895,6.1325684,0.0351563,9.8751221c-0.0702515,3.6767578,0.1555786,7.2651978,0.2285156,8.3085327
			c-1.4832153,0.0995483-2.5102539,0.0858154-4.5202026-0.0062866c-0.2911987-0.1211548-0.446167-0.3150635-0.5262451-0.6419678
			c0,0,0.3497925-2.1264038,0.2346191-4.8613281C26.9671021,26.394104,26.75,21.791626,26.75,21.791626z"/>
		<path style="fill:#B2B2B3;" d="M31.625,25.3676758c0.0715332-3.7425537-0.0109253-8.6072388-0.0351563-9.8751221
			l0.0878906,0.0117798l0.4055786,0.0542603c0.083252,0.0108643,0.1709595,0.0169678,0.2583008,0.0234985
			c0.026062,1.4063721,0.1032104,6.1337891,0.0333862,9.8002319c-0.069458,3.6437378,0.1540527,7.201355,0.2265625,8.2370605
			c-0.0203857,0.001709-0.0393677,0.0039673-0.0598755,0.0056152c-0.2425537,0.0196533-0.4699707,0.0365601-0.6881714,0.0512085
			C31.7805786,32.6328735,31.5547485,29.0444336,31.625,25.3676758z"/>
	</g>
	<g>
		<path style="fill:#008F3A;" d="M29.125,15.1627197l0.4375-1.104126c0,0,0.874939-0.074646,2.059021-0.0197144
			l-0.0334473,1.8381348C30.5396118,15.6936646,29.125,15.1627197,29.125,15.1627197z"/>
		<path style="fill:#008F3A;" d="M32.4147949,14.0889893c1.1260986,0.0869141,1.8048706,0.180481,1.8048706,0.180481
			l0.2403564,1.2389526c0,0-1.0892944,0.387085-2.0593262,0.4310913c-0.0217285,0.0009766-0.0418091-0.0015259-0.0634155-0.0008545
			l0.0336914-1.8529053C32.3851318,14.086853,32.4006958,14.0878906,32.4147949,14.0889893z"/>
		<path style="fill:#9C9C9D;" d="M31.6540527,15.8899536c-0.0211182-0.003479-0.0444946-0.0092163-0.065979-0.0129395
			l0.0334473-1.8381348c0.0137939,0.0006104,0.0262451,0.0007935,0.0401001,0.0014648
			C31.7731323,14.0457764,31.8835449,14.0506592,32,14.0585938c0.1300659,0.0088501,0.2512817,0.0180054,0.3709717,0.0271606
			l-0.0336914,1.8529053c-0.1286011,0.0040283-0.2564087,0.0057373-0.3768921-0.0050659
			C31.8655396,15.9251099,31.7592773,15.9071655,31.6540527,15.8899536z"/>
	</g>
	<g>
		<path style="fill:#D9DADA;" d="M22.5756226,22.9855957c0.5575562-2.3370972,2.0846653-7.6662083,4.3826904-7.2772827
			c1.354187,0.229187,0,5.791687,0,5.791687l-0.1855469,1.9349365
			C26.1311646,23.1421509,24.8806152,22.8308716,22.5756226,22.9855957z"/>
		<path style="fill:#D9DADA;" d="M26.7209473,23.9750977l-0.06073,0.6333008C26,24.291626,25.4650879,24.1410522,24.583313,24
			c-1.041626-0.166687-1.583313-0.041687-2.25,0.083313c0,0,0.0449829-0.2298584,0.1240845-0.5869141
			C25.0407104,23.3049927,26.2416382,23.7156372,26.7209473,23.9750977z"/>
		<path style="fill:#3E3A39;" d="M26.7727661,23.4349365l-0.0518188,0.5401611
			c-0.4793091-0.2594604-1.6802368-0.670105-4.2635498-0.4786987c0.0327759-0.1480713,0.0722046-0.317688,0.1182251-0.5108032
			C24.8806152,22.8308716,26.1311646,23.1421509,26.7727661,23.4349365z"/>
	</g>
</g>
<path style="fill:#FFB743;" d="M26.8261681,26.3228798c1.2785225,1.1110497,2.7979851,3.7416477,3.7491341,4.0643768
	c0.9511471,0.3227291,1.0604725,0.1567802,1.581234,0.389782c0.5207596,0.2330017,1.3157501,0.711647,1.3309364,0.9985943
	c0,0,1.1963997,0.5115757,0.957962,0.9098911c-0.2384415,0.3983192-0.4495621,0.601963-1.0262947,0.5174446
	c-0.5767288-0.0845184-1.2913284,0.1826515-1.86516-0.09478c-0.5738297-0.2774315-1.8543777-0.9093246-2.2728176-1.4758644
	c-0.3782444-0.5121155-4.2535496-3.0746326-4.8587227-3.7930622c-0.3956032-0.4696407-0.5246487-0.9081497-0.511755-1.2756557
	c0.0188828-0.5382137,0.3421898-0.9241467,0.5784836-1.0325642C25.4945831,25.0697269,25.9657784,25.5751915,26.8261681,26.3228798z
	"/>
<g id="head_31_">
	<path style="fill:#FFB743;" d="M35.543705,9.3321667c-0.1130447-0.1267529-0.2199554-0.1701422-0.322525-0.1821756
		c0.0837708-0.9008093,0.1314392-1.636395,0.1314392-1.636395l-3.356966-1.1960859l-3.356966,1.1960859
		c0,0,0.0476704,0.7355857,0.1314411,1.636395c-0.1025715,0.0120335-0.2094822,0.0554228-0.322525,0.1821756
		c-0.5987663,0.6714277,0.0854473,2.0783834,0.5431137,2.1866236c0.0273056,0.0064802,0.0491161-0.0125532,0.0738182-0.0184546
		c0.0739918,0.4062357,0.1552162,0.7268505,0.2430935,0.8665619c0.3973827,0.6319151,1.8981743,1.9666719,2.6880245,1.9666719
		s2.2906437-1.3347569,2.6880245-1.9666719c0.0878792-0.1397114,0.1691017-0.4603262,0.2430954-0.8665619
		c0.0247002,0.0059013,0.0465126,0.0249348,0.0738182,0.0184546C35.4582558,11.4105501,36.1424713,10.0035944,35.543705,9.3321667z"
		/>
	<path style="fill:#E08E0B;" d="M31.0261421,12.8130703c0,0,1.4020195,0.2369604,2.0536613-0.2172146l-0.098732-0.1382265
		l0.3554382,0.0789862v0.3382425l-0.1629105-0.1407747C33.1735992,12.7340832,31.855505,13.2474985,31.0261421,12.8130703z"/>
	<polygon style="fill:#E08E0B;" points="31.9956532,10.5572529 31.9956532,11.9084845 32.2128677,12.1980343 31.9956532,12.3588953 
		31.6994534,12.0693455 	"/>
	<path style="fill:#231815;" d="M35.7039986,8.8828201c0,0-0.1716232,1.1386433-0.6635818,1.8955059
		c0,0-0.1642303-1.2521734-0.5828743-1.8955059c0,0-0.0780563,0.567647-0.4943314,0.8893127
		c0,0-0.3087769-1.3434305-2.046545-2.2138228c0,0,0.0305042,1.0974507-2.1643963,2.3841176
		c0,0-0.3198757-0.3784313-0.5194492-0.8325491c0,0-0.2176228,0.755125-0.2819347,1.6684475
		c0,0-0.5884571-1.0251141-0.5884571-1.7252121s3.5194111-2.2138233,3.5194111-2.2138233L35.7039986,8.8828201z"/>
	<path style="fill:#1EA839;" d="M28.3624287,9.0531139c0,0-0.7190189-0.1892157-0.6054897-0.5298042
		c0.1135292-0.3405876,0.4541187-0.7568622,0.4541187-1.2488232s-0.83255-1.4758821-0.1513729-1.9678426
		c0.6811752-0.491961,2.8382339-2.2705882,4.1249008-1.8164704s4.2005882,1.1352937,3.8600006,1.8543131
		s-0.6054916,1.6840196-0.2270584,2.327353c0.3784294,0.6433334,0.3784294,0.7947054-0.1135292,1.2109804
		C35.7039986,8.8828201,32.2981148,7.9556627,28.3624287,9.0531139z"/>
	<path style="fill:#3E3A39;" d="M35.6437225,6.7287917c-1.1360703-0.3446903-2.1025124-0.336874-2.1520691-0.3341579
		c-0.2510071,0.0044346-0.4496841,0.2110939-0.4461365,0.4616566c0.0044365,0.2483459,0.2075462,0.4465785,0.4550056,0.4465785
		c0.0017738,0,0.0044327,0,0.0070953,0c-0.0023842-0.001164,1.1728783-0.0063195,2.3619995,0.4681978
		c-0.0204582-0.0361428-0.0287704-0.059536-0.0521088-0.099227C35.6580238,7.4007659,35.6171684,7.0716524,35.6437225,6.7287917z"/>
	<path style="fill:#3E3A39;" d="M30.0019531,7.0274715C29.9593792,6.7809,29.7318783,6.6172581,29.4777679,6.6567273
		C29.430315,6.664876,28.8462601,6.7684274,28.161869,7.0272498c0.0284367,0.0901914,0.0491695,0.1750612,0.0491695,0.2472367
		c0,0.3101549-0.134594,0.5866055-0.263092,0.8365583c0.6311207-0.317749,1.3460007-0.5010147,1.6837063-0.5593867
		C29.8782234,7.5090847,30.0445271,7.2744865,30.0019531,7.0274715z"/>
	<g>
		
			<ellipse transform="matrix(0.9712284 -0.2381502 0.2381502 0.9712284 -1.4775681 8.3210249)" style="fill:#524634;" cx="33.6988106" cy="10.2756119" rx="1.3180951" ry="0.8145531"/>
		<path style="fill:#FFFFFF;" d="M33.4072266,11.2519531c-0.5800781,0-1.015625-0.2485352-1.1103516-0.6328125
			c-0.125-0.5117188,0.3920898-1.0634766,1.1787109-1.2563477c0.171875-0.0419922,0.3457031-0.0634766,0.5146484-0.0634766
			c0.5800781,0,1.015625,0.2485352,1.109375,0.6328125c0.0634766,0.2548828-0.0332031,0.527832-0.2695313,0.7685547
			c-0.2207031,0.2250977-0.5439453,0.3984375-0.9082031,0.487793C33.75,11.2304688,33.5761719,11.2519531,33.4072266,11.2519531z
			 M33.9902344,9.5493164c-0.1494141,0-0.3027344,0.019043-0.4560547,0.0566406
			c-0.6279297,0.1538086-1.0830078,0.5908203-0.9941406,0.9536133c0.0649414,0.2646484,0.4135742,0.4423828,0.8671875,0.4423828
			c0.1494141,0,0.3027344-0.019043,0.4560547-0.0566406c0.3193359-0.078125,0.5996094-0.2275391,0.7880859-0.4199219
			c0.1738281-0.1767578,0.2470703-0.3662109,0.2060547-0.5336914C34.7929688,9.7270508,34.4443359,9.5493164,33.9902344,9.5493164z"
			/>
	</g>
	<g>
		
			<ellipse transform="matrix(-0.9712284 -0.2381502 0.2381502 -0.9712284 57.2662926 27.4697418)" style="fill:#524634;" cx="30.2924976" cy="10.2756119" rx="1.3180951" ry="0.8145531"/>
		<path style="fill:#FFFFFF;" d="M30.5839844,11.2519531L30.5839844,11.2519531
			c-0.1694336,0-0.3427734-0.0214844-0.5151367-0.0634766c-0.7861328-0.1928711-1.3032227-0.7446289-1.1782227-1.2563477
			c0.0947266-0.3842773,0.5302734-0.6328125,1.1103516-0.6328125c0.1694336,0,0.3422852,0.0214844,0.5151367,0.0634766
			c0.7861328,0.1928711,1.3032227,0.7446289,1.1782227,1.2563477C31.5996094,11.003418,31.1640625,11.2519531,30.5839844,11.2519531
			z M30.0009766,9.5493164c-0.4536133,0-0.8022461,0.1777344-0.8671875,0.4423828
			C29.0449219,10.3544922,29.5,10.7915039,30.128418,10.9453125c0.1533203,0.0375977,0.3061523,0.0566406,0.4555664,0.0566406l0,0
			c0.4536133,0,0.8022461-0.1777344,0.8671875-0.4423828c0.0888672-0.362793-0.3662109-0.7998047-0.9946289-0.9536133
			C30.3032227,9.5683594,30.1503906,9.5493164,30.0009766,9.5493164z"/>
	</g>
	<path style="fill:#FFFFFF;" d="M32.4379768,10.085063c0,0-0.1548157,0.1954794-0.4423237,0.1954794
		s-0.4423218-0.1954794-0.4423218-0.1954794v0.7197533c0,0,0.1714001-0.2564125,0.4423218-0.2564125
		s0.4423237,0.2564125,0.4423237,0.2564125V10.085063z"/>
</g>
<g>
</g>
<g>
</g>
<g>
</g>
<g>
</g>
<g>
</g>
<g>
</g>
</svg>
