<?xml version="1.0" encoding="utf-8"?>
<!-- Generator: Adobe Illustrator 18.0.0, SVG Export Plug-In . SVG Version: 6.00 Build 0)  -->
<!DOCTYPE svg PUBLIC "-//W3C//DTD SVG 1.1//EN" "http://www.w3.org/Graphics/SVG/1.1/DTD/svg11.dtd">
<svg version="1.1" id="レイヤー_1" xmlns="http://www.w3.org/2000/svg" xmlns:xlink="http://www.w3.org/1999/xlink" x="0px"
	 y="0px" width="64px" height="64px" viewBox="0 0 64 64" style="enable-background:new 0 0 64 64;" xml:space="preserve">
<g>
	<g>
		<g>
			<linearGradient id="SVGID_1_" gradientUnits="userSpaceOnUse" x1="32" y1="49.2266159" x2="32" y2="65.3651199">
				<stop  offset="0.4041152" style="stop-color:#61CDFF"/>
				<stop  offset="1" style="stop-color:#2EA7E0"/>
			</linearGradient>
			<path style="fill:url(#SVGID_1_);" d="M39.1726685,49.2266159c0,0-3.8104782,1.7931671-7.1726685,1.7931671
				s-7.1726685-1.7931671-7.1726685-1.7931671L24,65.3651199h16L39.1726685,49.2266159z"/>
			<path style="fill:#0089C9;" d="M40.2626953,65.6152344H23.7368164l0.8598633-16.7734375L24.9335938,49
				C24.9711914,49.0175781,28.734375,50.7695313,32,50.7695313c3.2685547,0,7.0292969-1.7519531,7.0664063-1.7695313
				l0.3369141-0.1582031L40.2626953,65.6152344z M24.2631836,65.1152344h15.4741211l-0.7958984-15.5117188
				C37.9277344,50.0419922,34.8359375,51.2695313,32,51.2695313c-2.8364258,0-5.9282227-1.2275391-6.9418945-1.6660156
				L24.2631836,65.1152344z"/>
		</g>
		<path style="fill:#0089C9;" d="M32,52.8632813c-3.3735352,0-7.1118164-1.546875-7.2695313-1.6132813l0.1928711-0.4609375
			C24.9614258,50.8046875,28.7285156,52.3632813,32,52.3632813c3.2744141,0,7.0390625-1.5585938,7.0761719-1.5742188
			L39.2695313,51.25C39.1123047,51.3164063,35.3740234,52.8632813,32,52.8632813z"/>
	</g>
	<g>
		<g>
			
				<linearGradient id="SVGID_2_" gradientUnits="userSpaceOnUse" x1="41.687149" y1="46.7026024" x2="41.687149" y2="65.3651199" gradientTransform="matrix(-1 0 0 1 64 0)">
				<stop  offset="0.4041152" style="stop-color:#036EB8"/>
				<stop  offset="1" style="stop-color:#113E96"/>
			</linearGradient>
			<path style="fill:url(#SVGID_2_);" d="M11.8942337,56.2805901c0-6.3855324,5.8801727-7.486248,12.2602043-9.5779877
				c0,0,3.0637341,6.9030075,8.5796471,12.5585365l0.1207848,6.103981H11.770833L11.8942337,56.2805901z"/>
			<path style="fill:#171C61;" d="M33.1103516,65.6152344H11.5175781l0.1264648-9.3378906
				c0-5.8974609,4.8452148-7.4199219,10.4550781-9.1826172c0.6499023-0.2041016,1.3105469-0.4111328,1.9770508-0.6298828
				l0.2148438-0.0703125l0.0917969,0.2060547c0.0302734,0.0683594,3.1113281,6.9296875,8.5302734,12.4853516l0.0688477,0.0712891
				L33.1103516,65.6152344z M12.0244141,65.1152344h20.5756836l-0.1142578-5.7509766
				c-4.9125977-5.0654297-7.9077148-11.1679688-8.465332-12.3554688c-0.5966797,0.1943359-1.1884766,0.3798828-1.7714844,0.5634766
				c-5.6455078,1.7734375-10.1049805,3.1748047-10.1049805,8.7080078L12.0244141,65.1152344z"/>
		</g>
		<g>
			
				<linearGradient id="SVGID_3_" gradientUnits="userSpaceOnUse" x1="35.9624405" y1="45.5288696" x2="35.9624405" y2="59.2856712" gradientTransform="matrix(-1 0 0 1 64 0)">
				<stop  offset="0.4041152" style="stop-color:#2EA7E0"/>
				<stop  offset="1" style="stop-color:#036EB8"/>
			</linearGradient>
			<path style="fill:url(#SVGID_3_);" d="M26.1479053,45.722374c0,0,0.2283211,2.3889236,1.8575535,6.277626
				c1.4638348,3.493927,3.819128,4.301693,4.8448486,7.1820183c0.0263824,0.0740776-0.0682068,0.1413956-0.1162224,0.0791206
				c-0.6390152-0.8288727-3.4312515-2.9077568-6.3929386-4.4865913c0,0-0.1003571-0.5829201,0.7035198-1.6912155
				C25.375,52.5,23.75,54.7083321,23.75,54.7083321c-1.541666-5.5833321,0.7721119-8.6299629,0.7721119-8.6299629
				l1.2595024-0.5281792C25.9306107,45.4877052,26.1009502,45.5677795,26.1479053,45.722374z"/>
			<path style="fill:#171C61;" d="M32.6582031,59.5351563l-0.1220703-0.1210938
				c-0.5761719-0.7470703-3.2558594-2.7890625-6.3125-4.4189453L26.1157227,54.9375l-0.0209961-0.1201172
				c-0.0107422-0.0644531-0.0795898-0.6054688,0.5371094-1.5732422c-1.3388672-0.1445313-2.6679688,1.5947266-2.6806641,1.6123047
				l-0.3051758,0.4140625l-0.137207-0.4960938c-1.5561523-5.6376953,0.7167969-8.71875,0.8139648-8.8476563l0.0405273-0.0537109
				l1.3217773-0.5537109c0.2802734-0.1171875,0.6152344,0.0410156,0.7021484,0.3310547
				c0.0117188,0.0722656,0.2563477,2.4521484,1.8486328,6.2529297c0.7285156,1.7392578,1.6748047,2.7880859,2.5898438,3.8037109
				c0.8945313,0.9921875,1.7397461,1.9296875,2.2602539,3.390625c0.0351563,0.1005859,0.0195313,0.2119141-0.0419922,0.2988281
				c-0.0610352,0.0869141-0.1591797,0.1386719-0.2626953,0.1386719H32.6582031z M26.5922852,54.625
				c2.2963867,1.2382813,4.4921875,2.7666016,5.6494141,3.7861328c-0.4804688-0.9199219-1.1196289-1.6289063-1.7875977-2.3691406
				c-0.8989258-0.9980469-1.9179688-2.1279297-2.6791992-3.9453125c-1.625-3.8789063-1.8662109-6.2509766-1.8759766-6.3505859
				l-1.2124023,0.5332031c-0.2685547,0.3994141-1.9658203,3.1738281-0.8168945,7.8955078
				c0.4887695-0.5361328,1.4775391-1.4394531,2.5952148-1.4394531c0.2265625,0,0.4492188,0.0371094,0.6621094,0.1113281
				l0.3168945,0.1113281l-0.1972656,0.2714844C26.7241211,53.9501953,26.6137695,54.4228516,26.5922852,54.625z"/>
		</g>
	</g>
	<g>
		<g>
			<linearGradient id="SVGID_4_" gradientUnits="userSpaceOnUse" x1="41.687149" y1="46.7026024" x2="41.687149" y2="65.3651199">
				<stop  offset="0.4041152" style="stop-color:#036EB8"/>
				<stop  offset="1" style="stop-color:#113E96"/>
			</linearGradient>
			<path style="fill:url(#SVGID_4_);" d="M52.1057663,56.2805901c0-6.3855324-5.8801727-7.486248-12.2602043-9.5779877
				c0,0-3.0637321,6.9030075-8.5796471,12.5585365l-0.1207848,6.103981h21.0840378L52.1057663,56.2805901z"/>
			<path style="fill:#171C61;" d="M52.4833984,65.6152344H30.8901367l0.1279297-6.4580078l0.0688477-0.0712891
				c5.421875-5.5585938,8.5-12.4169922,8.5302734-12.4853516l0.0917969-0.2060547l0.2148438,0.0703125
				c0.6660156,0.2177734,1.3271484,0.4257813,1.9765625,0.6298828c5.6103516,1.7626953,10.4550781,3.2851563,10.4550781,9.1855469
				L52.4833984,65.6152344z M31.3999023,65.1152344h20.5756836l-0.1201172-8.8320313
				c0-5.5361328-4.4589844-6.9375-10.1054688-8.7109375c-0.5820313-0.1835938-1.1738281-0.3691406-1.7705078-0.5634766
				c-0.5576172,1.1875-3.5527344,7.2900391-8.465332,12.3554688L31.3999023,65.1152344z"/>
		</g>
		<g>
			<linearGradient id="SVGID_5_" gradientUnits="userSpaceOnUse" x1="35.9624405" y1="45.5288696" x2="35.9624405" y2="59.2856712">
				<stop  offset="0.4041152" style="stop-color:#2EA7E0"/>
				<stop  offset="1" style="stop-color:#036EB8"/>
			</linearGradient>
			<path style="fill:url(#SVGID_5_);" d="M37.8520966,45.722374c0,0-0.2283211,2.3889236-1.8575554,6.277626
				c-1.4638367,3.493927-3.8191299,4.301693-4.8448486,7.1820183c-0.0263824,0.0740776,0.0682087,0.1413956,0.1162224,0.0791206
				c0.6390171-0.8288727,3.4312515-2.9077568,6.3929367-4.4865913c0,0,0.1003609-0.5829201-0.7035179-1.6912155
				C38.625,52.5,40.25,54.7083321,40.25,54.7083321c1.5416679-5.5833321-0.77211-8.6299629-0.77211-8.6299629L38.2183838,45.55019
				C38.0693893,45.4877052,37.8990479,45.5677795,37.8520966,45.722374z"/>
			<path style="fill:#171C61;" d="M31.21875,59.5351563c-0.1035156,0-0.2016602-0.0517578-0.2631836-0.1386719
				s-0.0766602-0.1982422-0.0410156-0.2988281c0.5200195-1.4609375,1.3652344-2.3984375,2.2592773-3.390625
				c0.9150391-1.015625,1.8613281-2.0644531,2.5898438-3.8037109c1.5927734-3.8007813,1.8378906-6.1806641,1.8398438-6.2050781
				c0.0996094-0.3515625,0.4306641-0.4990234,0.7119141-0.3789063l1.3203125,0.5537109l0.0410156,0.0537109
				c0.0976563,0.1289063,2.3710938,3.2099609,0.8144531,8.8476563l-0.1367188,0.4960938l-0.3056641-0.4140625
				c-0.0126953-0.0175781-1.3457031-1.75-2.6816406-1.6123047c0.6171875,0.9667969,0.5498047,1.5087891,0.5380859,1.5722656
				L37.8847656,54.9375l-0.1083984,0.0576172c-3.0566406,1.6298828-5.7363281,3.671875-6.3125,4.4179688l-0.074707,0.0976563
				L31.21875,59.5351563z M38.1220703,45.7802734c-0.0302734,0.0654297-0.2714844,2.4375-1.8974609,6.3164063
				c-0.7607422,1.8173828-1.7802734,2.9472656-2.6787109,3.9443359c-0.6679688,0.7412109-1.3071289,1.4501953-1.7875977,2.3701172
				c1.1572266-1.0195313,3.3530273-2.5478516,5.6499023-3.7861328c-0.0214844-0.1992188-0.1308594-0.671875-0.6552734-1.3955078
				l-0.1972656-0.2714844l0.3173828-0.1113281c0.2128906-0.0742188,0.4355469-0.1113281,0.6621094-0.1113281
				c1.1181641,0,2.1064453,0.9033203,2.5947266,1.4394531c1.1484375-4.7148438-0.5429688-7.4882813-0.8154297-7.8945313
				L38.1220703,45.7802734z"/>
		</g>
	</g>
	<g>
		<linearGradient id="SVGID_6_" gradientUnits="userSpaceOnUse" x1="21.8569412" y1="58" x2="21.8569412" y2="65.0840378">
			<stop  offset="0" style="stop-color:#2EA7E0"/>
			<stop  offset="1" style="stop-color:#036EB8"/>
		</linearGradient>
		<path style="fill:url(#SVGID_6_);" d="M17.4106846,58.3890457v4.6830635c0,0.1590843,0.0968533,0.3021393,0.2445583,0.3612213
			l4.057209,1.6228828c0.0927544,0.0371017,0.1962242,0.0371017,0.2889767,0l4.057209-1.6228828
			c0.1477051-0.059082,0.2445602-0.202137,0.2445602-0.3612213v-4.6830635C26.3031979,58.1741829,26.129015,58,25.9141502,58
			h-8.114418C17.5848675,58,17.4106846,58.1741829,17.4106846,58.3890457z"/>
		<path style="fill:#171C61;" d="M21.8569336,65.3349609c-0.081543,0-0.1616211-0.015625-0.2373047-0.0458984L17.5625,63.6660156
			c-0.2441406-0.0986328-0.4018555-0.3310547-0.4018555-0.59375v-4.6835938c0-0.3525391,0.2866211-0.6386719,0.6391602-0.6386719
			h8.1142578c0.3525391,0,0.6391602,0.2861328,0.6391602,0.6386719v4.6835938c0,0.2626953-0.1577148,0.4951172-0.4013672,0.5927734
			l-4.0576172,1.6240234C22.0185547,65.3193359,21.9384766,65.3349609,21.8569336,65.3349609z M17.7998047,58.25
			c-0.0766602,0-0.1391602,0.0625-0.1391602,0.1386719v4.6835938c0,0.0566406,0.034668,0.1074219,0.0878906,0.1298828
			l4.1083984,1.6328125c0.0175781,0,0.0351563-0.0039063,0.0517578-0.0107422l4.0571289-1.6230469
			c0.0527344-0.0214844,0.0874023-0.0722656,0.0874023-0.1289063v-4.6835938c0-0.0761719-0.0625-0.1386719-0.1391602-0.1386719
			H17.7998047z"/>
	</g>
	<g>
		<linearGradient id="SVGID_7_" gradientUnits="userSpaceOnUse" x1="21.8569412" y1="57.8125" x2="21.8569412" y2="61.5270348">
			<stop  offset="0" style="stop-color:#2EA7E0"/>
			<stop  offset="1" style="stop-color:#036EB8"/>
		</linearGradient>
		<path style="fill:url(#SVGID_7_);" d="M17.4189606,57.8125h8.8759613c0.2350292,0,0.42556,0.1834412,0.42556,0.409729v1.1859207
			c0,0.1675377-0.1059437,0.3181992-0.2675114,0.3804245l-4.4379807,1.709156c-0.1014576,0.0390739-0.2146397,0.0390739-0.3160973,0
			l-4.4379807-1.709156c-0.1615677-0.0622253-0.2675114-0.2128868-0.2675114-0.3804245V58.222229
			C16.9934006,57.9959412,17.1839294,57.8125,17.4189606,57.8125z"/>
		<path style="fill:#171C61;" d="M21.8569336,61.7773438c-0.0854492,0-0.168457-0.015625-0.2480469-0.0458984l-4.4379883-1.7099609
			c-0.2592773-0.0986328-0.4277344-0.3398438-0.4277344-0.6132813v-1.1855469c0-0.3642578,0.3032227-0.6601563,0.6757813-0.6601563
			h8.8759766c0.3725586,0,0.6757813,0.2958984,0.6757813,0.6601563v1.1855469c0,0.2734375-0.168457,0.5146484-0.4287109,0.6132813
			l-4.4370117,1.7099609C22.0253906,61.7617188,21.9423828,61.7773438,21.8569336,61.7773438z M17.4189453,58.0625
			c-0.097168,0-0.1757813,0.0722656-0.1757813,0.1601563v1.1855469c0,0.0644531,0.0419922,0.1220703,0.1064453,0.1464844
			l4.4389648,1.7099609c0.0429688,0.0175781,0.09375,0.0175781,0.1367188,0l4.4379883-1.7099609
			c0.0654297-0.0244141,0.1074219-0.0820313,0.1074219-0.1464844v-1.1855469c0-0.0878906-0.0786133-0.1601563-0.1757813-0.1601563
			H17.4189453z"/>
	</g>
</g>
<g>
	<g>
		<linearGradient id="SVGID_8_" gradientUnits="userSpaceOnUse" x1="13" y1="16.7360687" x2="13" y2="21.2639313">
			<stop  offset="0" style="stop-color:#595757"/>
			<stop  offset="0.1" style="stop-color:#231815"/>
			<stop  offset="0.3" style="stop-color:#EFEFEF"/>
			<stop  offset="0.5" style="stop-color:#898989"/>
			<stop  offset="1" style="stop-color:#231815"/>
		</linearGradient>
		<path style="fill:url(#SVGID_8_);" d="M14,16.7360687h-1.229167C12.3451138,16.7360687,12,16.9965076,12,17.3177738v3.3644524
			c0,0.3212662,0.3451138,0.5817051,0.770833,0.5817051H14V16.7360687z"/>
		<path style="fill:#231815;" d="M14.25,21.5141602h-1.4790039c-0.5629883,0-1.0209961-0.3730469-1.0209961-0.8320313v-3.3642578
			c0-0.4589844,0.4580078-0.8320313,1.0209961-0.8320313H14.25V21.5141602z M12.7709961,16.9858398
			c-0.3071289,0-0.5209961,0.1748047-0.5209961,0.3320313v3.3642578c0,0.1572266,0.2138672,0.3320313,0.5209961,0.3320313H13.75
			v-4.0283203H12.7709961z"/>
	</g>
	<g>
		
			<linearGradient id="SVGID_9_" gradientUnits="userSpaceOnUse" x1="13" y1="16.7360687" x2="13" y2="21.2639313" gradientTransform="matrix(-1 0 0 1 64 0)">
			<stop  offset="0" style="stop-color:#595757"/>
			<stop  offset="0.1" style="stop-color:#231815"/>
			<stop  offset="0.3" style="stop-color:#EFEFEF"/>
			<stop  offset="0.5" style="stop-color:#898989"/>
			<stop  offset="1" style="stop-color:#231815"/>
		</linearGradient>
		<path style="fill:url(#SVGID_9_);" d="M50,16.7360687h1.2291679C51.6548843,16.7360687,52,16.9965076,52,17.3177738v3.3644524
			c0,0.3212662-0.3451157,0.5817051-0.7708321,0.5817051H50V16.7360687z"/>
		<path style="fill:#231815;" d="M51.2294922,21.5141602H49.75v-5.0283203h1.4794922
			c0.5625,0,1.0205078,0.3730469,1.0205078,0.8320313v3.3642578C52.25,21.1411133,51.7919922,21.5141602,51.2294922,21.5141602z
			 M50.25,21.0141602h0.9794922c0.2773438,0,0.5205078-0.1552734,0.5205078-0.3320313v-3.3642578
			c0-0.1767578-0.2431641-0.3320313-0.5205078-0.3320313H50.25V21.0141602z"/>
	</g>
	<g>
		<linearGradient id="SVGID_10_" gradientUnits="userSpaceOnUse" x1="32" y1="3.5" x2="32" y2="22">
			<stop  offset="0" style="stop-color:#3E3A39"/>
			<stop  offset="1" style="stop-color:#231815"/>
		</linearGradient>
		<path style="fill:url(#SVGID_10_);" d="M50,22c0,0,3.875-18.5-18-18.5S14,22,14,22h2c0,0,0.75-8,16-8s16,8,16,8H50z"/>
		<path style="fill:#231815;" d="M50.203125,22.25h-2.4296875l-0.0224609-0.2260742
			C47.7431641,21.9462891,46.8144531,14.25,32,14.25c-14.8139648,0-15.7436523,7.6962891-15.7509766,7.7739258l-0.0224609,0.2255859
			L13.796875,22.25l-0.0415039-0.1987305c-0.015625-0.0751953-1.527832-7.6030273,2.9160156-13.0742188
			C19.7578125,5.1767578,24.9155273,3.25,32,3.25c7.0849609,0,12.2421875,1.9267578,15.3291016,5.7270508
			c4.4433594,5.4711914,2.9316406,12.9990234,2.9160156,13.0742188L50.203125,22.25z M48.2158203,21.75h1.5751953
			c0.2011719-1.2094727,1.0439453-7.6669922-2.8535156-12.4609375C43.9501953,5.6137695,38.9248047,3.75,32,3.75
			c-6.9267578,0-11.9536133,1.8647461-14.9404297,5.5424805C13.1616211,14.0913086,14.0073242,20.5419922,14.2089844,21.75
			h1.5751953c0.2456055-1.3505859,2.1694336-8,16.2158203-8C46.046875,13.75,47.9707031,20.3994141,48.2158203,21.75z"/>
	</g>
	<g>
		<path style="fill:#231815;" d="M18.1265163,23.2415237c0,0,2.3734837-6.755455,13.8734837-6.755455
			s13.8734856,6.755455,13.8734856,6.755455S46.1666679,12,32,12S18.1265163,23.2415237,18.1265163,23.2415237z"/>
		<path style="fill:#231815;" d="M18.1264648,23.4916992c-0.0126953,0-0.0258789-0.0009766-0.0390625-0.003418
			c-0.1191406-0.0185547-0.2075195-0.1196289-0.2109375-0.2402344c-0.0043945-0.1767578-0.0756836-4.375,3.1474609-7.6835938
			C23.4897461,13.0332031,27.1826172,11.75,32,11.75s8.5107422,1.2836914,10.9765625,3.8149414
			c3.2226563,3.3081055,3.1513672,7.5063477,3.1464844,7.6831055c-0.0029297,0.1206055-0.0917969,0.2216797-0.2109375,0.2402344
			c-0.1152344,0.0253906-0.2353516-0.0498047-0.2744141-0.1630859C45.6142578,23.2592773,43.1689453,16.7358398,32,16.7358398
			c-11.168457,0-13.6142578,6.5234375-13.6376953,6.5893555C18.3261719,23.4257813,18.230957,23.4916992,18.1264648,23.4916992z
			 M32,12.25c-4.6772461,0-8.2495117,1.2324219-10.6181641,3.6635742c-2.078125,2.1333008-2.7207031,4.7050781-2.918457,6.1635742
			C19.7128906,20.1293945,23.2993164,16.2358398,32,16.2358398c8.6972656,0,12.2841797,3.890625,13.5351563,5.8388672
			c-0.2001953-1.4609375-0.8447266-4.0371094-2.921875-6.1665039C40.2451172,13.480957,36.6738281,12.25,32,12.25z"/>
	</g>
	<g>
		
			<radialGradient id="SVGID_11_" cx="32" cy="14.7801304" r="17.0007286" gradientTransform="matrix(1 0 0 1.0090821 0 -0.1342344)" gradientUnits="userSpaceOnUse">
			<stop  offset="0" style="stop-color:#9FA0A0"/>
			<stop  offset="1" style="stop-color:#231815"/>
		</radialGradient>
		<path style="fill:url(#SVGID_11_);" d="M32,6c18.8333321,0,16,16,16,16l-1.4384689,1.438467
			c-0.2288971,0.2288971-0.6193962,0.1194038-0.6880455-0.1969433C45.3673401,20.9091988,42.9443436,15,32,15
			s-13.3673401,5.9091988-13.8734837,8.2415237c-0.0686512,0.3163471-0.4591522,0.4258404-0.6880493,0.1969433L16,22
			C16,22,13.166667,6,32,6z"/>
		<path style="fill:#231815;" d="M46.2705078,23.8105469c-0.3115234,0-0.5751953-0.2119141-0.6416016-0.5151367
			C45.1044922,20.8759766,42.7255859,15.25,32,15.25c-10.7250977,0-13.1040039,5.6259766-13.6293945,8.0449219
			c-0.0654297,0.3032227-0.3291016,0.515625-0.6411133,0.515625c-0.1757813,0-0.3417969-0.0693359-0.4677734-0.1953125
			l-1.4941406-1.4941406l-0.0136719-0.0776367c-0.0117188-0.0649414-1.1103516-6.5825195,2.8647461-11.3232422
			C21.3837891,7.4223633,25.8862305,5.75,32,5.75c6.1132813,0,10.6162109,1.6723633,13.3808594,4.9702148
			c3.9755859,4.7407227,2.8769531,11.2583008,2.8652344,11.3232422l-0.0136719,0.0776367l-1.4941406,1.4941406
			C46.6132813,23.7412109,46.4462891,23.8105469,46.2705078,23.8105469z M32,14.75
			c11.4013672,0,13.6884766,6.4589844,14.1171875,8.4384766c0.0273438,0.1240234,0.1445313,0.1953125,0.2675781,0.0732422
			l1.3808594-1.3808594c0.1074219-0.7299805,0.828125-6.5551758-2.7705078-10.8427734C42.3291016,7.8608398,37.9570313,6.25,32,6.25
			s-10.3291016,1.6108398-12.9956055,4.7880859c-3.5981445,4.2875977-2.8774414,10.112793-2.7700195,10.8427734l1.3808594,1.3808594
			c0.1235352,0.1240234,0.2397461,0.050293,0.2670898-0.0727539C18.3120117,21.2089844,20.6000977,14.75,32,14.75z"/>
	</g>
	<g>
		<path style="fill:#231815;" d="M32,13.708333c-0.2763672,0-0.5-0.173049-0.5-0.3869047V8.6785717
			c0-0.2138557,0.2236328-0.3869047,0.5-0.3869047s0.5,0.173049,0.5,0.3869047v4.6428566
			C32.5,13.535284,32.2763672,13.708333,32,13.708333z"/>
		<path style="fill:#231815;" d="M34,14.09375c-0.2763672,0-0.5-0.1976757-0.5-0.4419641V8.3482141
			C33.5,8.1039257,33.7236328,7.90625,34,7.90625s0.5,0.1976757,0.5,0.4419641v5.3035717
			C34.5,13.8960743,34.2763672,14.09375,34,14.09375z"/>
		<path style="fill:#231815;" d="M36,13.4375c-0.2763672,0-0.5-0.1557446-0.5-0.3482141V8.9107141
			C35.5,8.7182446,35.7236328,8.5625,36,8.5625s0.5,0.1557446,0.5,0.3482141v4.1785717
			C36.5,13.2817554,36.2763672,13.4375,36,13.4375z"/>
		<path style="fill:#231815;" d="M30,14.09375c-0.2763672,0-0.5-0.1976757-0.5-0.4419641V8.3482141
			C29.5,8.1039257,29.7236328,7.90625,30,7.90625s0.5,0.1976757,0.5,0.4419641v5.3035717
			C30.5,13.8960743,30.2763672,14.09375,30,14.09375z"/>
		<path style="fill:#231815;" d="M28,13.4375c-0.2763672,0-0.5-0.1557446-0.5-0.3482141V8.9107141
			C27.5,8.7182446,27.7236328,8.5625,28,8.5625s0.5,0.1557446,0.5,0.3482141v4.1785717
			C28.5,13.2817554,28.2763672,13.4375,28,13.4375z"/>
	</g>
	<g>
		<path style="fill:#231815;" d="M45.4580078,3.6699016l-4.3398438-2.1699219H22.8818359l-4.3398438,2.1699219l-1.3149414,8.2070513
			l1.1743164-1.5786133C18.4365234,10.2509766,22.0556641,5.5415039,32,5.5415039
			c9.8994141,0,13.5634766,4.7104492,13.5996094,4.7583008l1.1699219,1.5522461L45.4580078,3.6699016z"/>
		<linearGradient id="SVGID_12_" gradientUnits="userSpaceOnUse" x1="32" y1="3.8125" x2="32" y2="10">
			<stop  offset="0" style="stop-color:#3E3A39"/>
			<stop  offset="1" style="stop-color:#231815"/>
		</linearGradient>
		<path style="fill:url(#SVGID_12_);" d="M45,3.8125H19L18,10c0,0,3.6892891-4.958374,14-4.958374S46,10,46,10L45,3.8125z"/>
		<linearGradient id="SVGID_13_" gradientUnits="userSpaceOnUse" x1="19" y1="2.8125" x2="45" y2="2.8125">
			<stop  offset="0" style="stop-color:#3E3A39"/>
			<stop  offset="0.4" style="stop-color:#898989"/>
			<stop  offset="0.6" style="stop-color:#898989"/>
			<stop  offset="1" style="stop-color:#3E3A39"/>
		</linearGradient>
		<polygon style="fill:url(#SVGID_13_);" points="23,1.8125 41,1.8125 45,3.8125 19,3.8125 		"/>
		<g>
			<linearGradient id="SVGID_14_" gradientUnits="userSpaceOnUse" x1="29.3125" y1="-1.3215736" x2="34.6875" y2="7.9881997">
				<stop  offset="0" style="stop-color:#FFFFFF"/>
				<stop  offset="0.3" style="stop-color:#2EA7E0"/>
				<stop  offset="0.5" style="stop-color:#036EB8"/>
				<stop  offset="0.6" style="stop-color:#2EA7E0"/>
				<stop  offset="0.8" style="stop-color:#036EB8"/>
			</linearGradient>
			<polygon style="fill:url(#SVGID_14_);" points="40.625,2.1875 32,2.1875 23.375,2.1875 21.25,3.333313 32,3.333313 
				42.75,3.333313 			"/>
			<path style="fill:#231815;" d="M43.2451172,3.4584961H20.7548828L23.375,2.0625l17.3095703,0.0151367L43.2451172,3.4584961z
				 M21.7451172,3.2084961h20.5097656L40.59375,2.3125H23.4067383L21.7451172,3.2084961z"/>
		</g>
	</g>
</g>
<g>
	<g>
		<path style="fill:#3E3A39;" d="M34.9223061,65.430191l3.7058449-18.2941704
			c0.4450531-2.198185,2.1545448-3.8997002,4.3556061-4.3343964l4.5387459-0.8963699l0.5092964,2.5788193l-4.5387421,0.8963699
			c-1.1565666,0.2284126-2.0548363,1.1221085-2.2890778,2.2778091l-3.6097832,17.8227272L34.9223061,65.430191z"/>
		<path style="fill:#231815;" d="M37.7978516,65.7353516l-3.1806641-0.0605469l3.765625-18.5888672
			c0.4658203-2.2978516,2.2519531-4.0751953,4.5517578-4.5292969l4.7851563-0.9453125l0.6064453,3.0703125l-4.7841797,0.9443359
			c-1.0576172,0.2080078-1.8789063,1.0253906-2.0927734,2.0820313L37.7978516,65.7353516z M35.2265625,65.1865234
			l2.1630859,0.0410156l3.5693359-17.6191406c0.2548828-1.2548828,1.2304688-2.2255859,2.4863281-2.4726563l4.2929688-0.8486328
			l-0.4130859-2.0878906l-4.2929688,0.8476563c-2.1015625,0.4150391-3.734375,2.0390625-4.1591797,4.1386719L35.2265625,65.1865234z
			"/>
	</g>
	
		<linearGradient id="SVGID_15_" gradientUnits="userSpaceOnUse" x1="32.9797935" y1="54.129509" x2="49.9705772" y2="54.129509" gradientTransform="matrix(0.9810508 -0.1937507 0.1937507 0.9810508 -9.5600252 9.1483908)">
		<stop  offset="0" style="stop-color:#FFFFFF;stop-opacity:0"/>
		<stop  offset="0.7" style="stop-color:#FFFFFF;stop-opacity:0.2"/>
		<stop  offset="0.9" style="stop-color:#FFFFFF;stop-opacity:0"/>
	</linearGradient>
	<path style="fill:url(#SVGID_15_);" d="M36.8134766,65.9146347l-1.6100807-0.3257065l3.697525-18.2575455
		c0.4265823-2.1062279,2.064537-3.7360497,4.1724205-4.1523438l4.8346519-0.9548111l0.3183136,1.611763l-4.8346558,0.9548111
		c-1.4549904,0.2873497-2.5855255,1.4126968-2.8800201,2.8661613L36.8134766,65.9146347z"/>
	
		<linearGradient id="SVGID_16_" gradientUnits="userSpaceOnUse" x1="33.2201309" y1="53.9873581" x2="49.7767677" y2="53.9873581" gradientTransform="matrix(0.9810508 -0.1937507 0.1937507 0.9810508 -9.5600252 9.1483908)">
		<stop  offset="0" style="stop-color:#FFFFFF;stop-opacity:0"/>
		<stop  offset="0.7" style="stop-color:#FFFFFF;stop-opacity:0.5"/>
		<stop  offset="0.9" style="stop-color:#FFFFFF;stop-opacity:0"/>
	</linearGradient>
	<path style="fill:url(#SVGID_16_);" d="M35.7640839,65.6208038l-0.3221703-0.0645905l3.7024269-18.2807541
		c0.3983078-1.9678497,1.9286461-3.4900742,3.8980179-3.8790092l4.7156601-0.9313126l0.0636635,0.3223534l-4.7156639,0.9313126
		c-1.8390427,0.3631973-3.2675705,1.7848511-3.6401367,3.6213684L35.7640839,65.6208038z"/>
	<g>
		
			<linearGradient id="SVGID_17_" gradientUnits="userSpaceOnUse" x1="50.4339256" y1="41.8816147" x2="50.4339256" y2="47.1388702" gradientTransform="matrix(0.9810508 -0.1937507 0.1937507 0.9810508 -9.5600252 9.1483908)">
			<stop  offset="0" style="stop-color:#595757"/>
			<stop  offset="0.1" style="stop-color:#3E3A39"/>
			<stop  offset="0.3" style="stop-color:#C9CACA"/>
			<stop  offset="0.5" style="stop-color:#727171"/>
			<stop  offset="1" style="stop-color:#231815"/>
		</linearGradient>
		<path style="fill:url(#SVGID_17_);" d="M46.5781097,42.0917664c0,0-0.4378967,0.3795395-0.2389526,1.3868904
			s0.7482491,1.191925,0.7482491,1.191925s1.9104843,0.9623947,3.199894,0.7077446s0.270813-5.4122849-1.0185966-5.1576347
			S46.5781097,42.0917664,46.5781097,42.0917664z"/>
		<path style="fill:#231815;" d="M49.8134766,45.6708984L49.8134766,45.6708984c-1.28125,0-2.7753906-0.7451172-2.8378906-0.7763672
			c-0.0380859-0.0097656-0.6611328-0.25-0.8818359-1.3671875c-0.2197266-1.1171875,0.2646484-1.5761719,0.3203125-1.6240234
			c0.0351563-0.0439453,1.4482422-1.6591797,2.8056641-1.9277344c1.0439453-0.2128906,1.7402344,1.8798828,1.8828125,3.3388672
			c0.1308594,1.3457031-0.1484375,2.1875-0.7675781,2.3085938C50.1757813,45.6552734,50,45.6708984,49.8134766,45.6708984z
			 M49.3613281,40.4619141c-1.2353516,0.2392578-2.5810547,1.7783203-2.5947266,1.7939453
			c-0.0332031,0.0332031-0.3457031,0.34375-0.1826172,1.1748047c0.1640625,0.8300781,0.5712891,0.9980469,0.5888672,1.0048828
			c0.0419922,0.0195313,1.4794922,0.7353516,2.640625,0.7353516l0,0c0.1542969,0,0.296875-0.0126953,0.4248047-0.0380859
			c0.3115234-0.0615234,0.4619141-0.7890625,0.3662109-1.7705078
			C50.4619141,41.8984375,49.8457031,40.4619141,49.3613281,40.4619141z"/>
	</g>
	<g>
		
			<linearGradient id="SVGID_18_" gradientUnits="userSpaceOnUse" x1="52.3508453" y1="41.8816147" x2="52.3508453" y2="47.1388702" gradientTransform="matrix(0.9810508 -0.1937507 0.1937507 0.9810508 -9.5600252 9.1483908)">
			<stop  offset="0" style="stop-color:#595757"/>
			<stop  offset="0.1" style="stop-color:#3E3A39"/>
			<stop  offset="0.3" style="stop-color:#EFEFEF"/>
			<stop  offset="0.5" style="stop-color:#898989"/>
			<stop  offset="1" style="stop-color:#231815"/>
		</linearGradient>
		<path style="fill:url(#SVGID_18_);" d="M49.2687035,40.2206917c-0.7121124,0.1406364-1.0613937,1.4092064-0.7801094,2.8334656
			c0.2812729,1.424221,1.0865974,2.4648056,1.7987061,2.3241692l2.5788193-0.5092964l-1.0185966-5.1576385L49.2687035,40.2206917z"
			/>
		<path style="fill:#231815;" d="M50.15625,45.640625L50.15625,45.640625c-0.8183594,0-1.6230469-1.0673828-1.9130859-2.5380859
			c-0.1435547-0.7265625-0.1357422-1.4414063,0.0214844-2.0126953c0.1738281-0.6318359,0.5136719-1.0273438,0.9550781-1.1142578
			l2.8251953-0.5585938l1.1152344,5.6494141l-2.8242188,0.5566406C50.2763672,45.6347656,50.2167969,45.640625,50.15625,45.640625z
			 M51.6503906,40.0048828l-2.3330078,0.4609375c-0.2431641,0.0478516-0.4511719,0.3242188-0.5703125,0.7568359
			c-0.1376953,0.4980469-0.1425781,1.1318359-0.0136719,1.7822266c0.2607422,1.3193359,0.9414063,2.1357422,1.4228516,2.1357422l0,0
			c0.0283203,0,0.0556641-0.0029297,0.0820313-0.0078125l2.3339844-0.4609375L51.6503906,40.0048828z"/>
	</g>
	<g>
		
			<linearGradient id="SVGID_19_" gradientUnits="userSpaceOnUse" x1="54.322319" y1="41.8816147" x2="54.322319" y2="47.1388702" gradientTransform="matrix(0.9810508 -0.1937507 0.1937507 0.9810508 -9.5600252 9.1483908)">
			<stop  offset="0" style="stop-color:#595757"/>
			<stop  offset="0.3" style="stop-color:#DCDDDD"/>
			<stop  offset="1" style="stop-color:#727171"/>
		</linearGradient>
		<path style="fill:url(#SVGID_19_);" d="M53.6462288,42.0355606c0.2812767,1.4242439-0.0679893,2.6928291-0.7801094,2.8334694
			c-0.7121201,0.1406364-1.5174294-0.899929-1.7987099-2.3241692c-0.2812767-1.4242439,0.0679893-2.6928291,0.7801132-2.8334694
			C52.5596428,39.570755,53.3649521,40.6113205,53.6462288,42.0355606z"/>
		<path style="fill:#231815;" d="M52.7353516,45.1318359c-0.8183594,0-1.6230469-1.0673828-1.9130859-2.5380859
			c-0.1435547-0.7265625-0.1357422-1.4414063,0.0214844-2.0136719c0.1738281-0.6308594,0.5136719-1.0273438,0.9550781-1.1142578
			c0.8652344-0.1699219,1.78125,0.9404297,2.0927734,2.5205078c0.3125,1.5839844-0.1162109,2.9580078-0.9765625,3.1279297
			C52.8554688,45.1259766,52.7958984,45.1318359,52.7353516,45.1318359z M51.9785156,39.9482422
			c-0.0273438,0-0.0556641,0.0029297-0.0820313,0.0078125c-0.2431641,0.0478516-0.4511719,0.3242188-0.5703125,0.7568359
			c-0.1376953,0.4990234-0.1425781,1.1318359-0.0136719,1.7832031c0.2753906,1.3945313,1.0146484,2.2177734,1.5048828,2.1279297
			c0.4941406-0.0976563,0.8554688-1.1650391,0.5839844-2.5400391C53.140625,40.7646484,52.4599609,39.9482422,51.9785156,39.9482422
			z"/>
	</g>
	
		<linearGradient id="SVGID_20_" gradientUnits="userSpaceOnUse" x1="54.3124199" y1="42.5572319" x2="54.3124199" y2="46.463253" gradientTransform="matrix(0.9810508 -0.1937507 0.1937507 0.9810508 -9.5600252 9.1483908)">
		<stop  offset="0" style="stop-color:#595757"/>
		<stop  offset="0.3" style="stop-color:#727171"/>
		<stop  offset="1" style="stop-color:#727171"/>
	</linearGradient>
	<path style="fill:url(#SVGID_20_);" d="M53.0828362,42.1468277c0.2089844,1.0581779,0.0489998,1.9810562-0.3573303,2.0613022
		c-0.4063301,0.0802498-0.9051437-0.7125206-1.1141243-1.7706985c-0.2089844-1.0581818-0.0489998-1.9810562,0.3573303-2.061306
		C52.375042,40.2958794,52.8738556,41.0886497,53.0828362,42.1468277z"/>
	<g>
		
			<linearGradient id="SVGID_21_" gradientUnits="userSpaceOnUse" x1="75.1484451" y1="-11.8833561" x2="75.1484451" y2="-23.1795864" gradientTransform="matrix(0.1564032 0.7919427 -0.9810508 0.1937507 28.199749 -14.7734213)">
			<stop  offset="0" style="stop-color:#2CA4DE;stop-opacity:0.5"/>
			<stop  offset="1" style="stop-color:#036EB5;stop-opacity:0.5"/>
		</linearGradient>
		<path style="fill:url(#SVGID_21_);" d="M54.5046997,44.4588814c-1.3257408,0.2618256-2.6211281-0.6432114-2.8933182-2.0214539
			c-0.2721939-1.3782387,0.5818787-2.7077751,1.9076195-2.9696007c1.3257446-0.2618256,8.9023628-0.5972939,9.1745529,0.7809486
			C62.9657478,41.627018,55.8304443,44.1970558,54.5046997,44.4588814z"/>
		
			<linearGradient id="SVGID_22_" gradientUnits="userSpaceOnUse" x1="75.1484451" y1="-12.0881777" x2="75.1484451" y2="-22.3164997" gradientTransform="matrix(0.1564032 0.7919427 -0.9810508 0.1937507 28.199749 -14.7734213)">
			<stop  offset="0" style="stop-color:#2CA4DE;stop-opacity:0.5"/>
			<stop  offset="1" style="stop-color:#036EB5;stop-opacity:0.5"/>
		</linearGradient>
		<path style="fill:url(#SVGID_22_);" d="M54.4078484,44.1052055c-1.2004128,0.237072-2.3624687-0.5273819-2.5955276-1.7074623
			c-0.2330551-1.1800766,0.5511398-2.3289032,1.7515526-2.5659752c1.2004128-0.2370758,8.0498962-0.5958443,8.2829514,0.5842323
			C62.0798836,41.596077,55.6082611,43.8681335,54.4078484,44.1052055z"/>
		
			<radialGradient id="SVGID_23_" cx="108.0864639" cy="-96.9619446" r="1.2321695" gradientTransform="matrix(0.1455524 0.737 -0.1686085 0.033299 19.9392204 -34.074276)" gradientUnits="userSpaceOnUse">
			<stop  offset="0.5779817" style="stop-color:#FFFFFF;stop-opacity:0.9"/>
			<stop  offset="1" style="stop-color:#FFFFFF;stop-opacity:0"/>
		</radialGradient>
		<path style="fill:url(#SVGID_23_);" d="M52.1994209,43.2648239c-0.1147385,0.0226593-0.2880516-0.3655434-0.3871002-0.8670807
			c-0.0990486-0.5015335-0.0863304-0.9264755,0.0284081-0.9491386c0.1147423-0.0226593,0.2880516,0.3655472,0.3871002,0.8670807
			C52.3268814,42.8172188,52.3141594,43.2421646,52.1994209,43.2648239z"/>
		
			<linearGradient id="SVGID_24_" gradientUnits="userSpaceOnUse" x1="66.8311157" y1="-12.0881729" x2="66.8311157" y2="-20.3284454" gradientTransform="matrix(0.1937507 0.9810508 -0.9810508 0.1937507 27.0046272 -20.8248825)">
			<stop  offset="0" style="stop-color:#FFFFFF;stop-opacity:0.9"/>
			<stop  offset="1" style="stop-color:#FFFFFF;stop-opacity:0.4"/>
		</linearGradient>
		<path style="fill:url(#SVGID_24_);" d="M59.8964424,40.8011856c-0.1929245-0.9768639-5.7152863-0.7090797-6.6823883-0.5180817
			c-0.9671059,0.1909943-1.5946617,1.1377754-1.4017372,2.1146431c0.1929245,0.9768639,1.1332932,1.6139908,2.1003952,1.4229965
			C54.879818,43.6297455,60.0893669,41.7780533,59.8964424,40.8011856z M51.9448853,42.3715706
			c-0.10495-0.5314102,0.2568855-1.050518,0.8081856-1.1593971s3.6952286-0.2821312,3.8001785,0.2492752
			s-2.8688049,1.5663528-3.4201012,1.6752319C52.5818481,43.2455597,52.0498352,42.902977,51.9448853,42.3715706z"/>
	</g>
	<g>
		<linearGradient id="SVGID_25_" gradientUnits="userSpaceOnUse" x1="35.0743065" y1="63.5970421" x2="38.0091591" y2="64.2208633">
			<stop  offset="0" style="stop-color:#40220F"/>
			<stop  offset="0.308642" style="stop-color:#6A3906"/>
			<stop  offset="0.5102881" style="stop-color:#6A3906"/>
			<stop  offset="0.8765432" style="stop-color:#40220F"/>
		</linearGradient>
		<path style="fill:url(#SVGID_25_);" d="M35.5450363,62.0104179l-0.2159424,0.3879395l-0.6008224,2.966732l3.03759,0.0003967
			l0.5098801-2.5172577l-0.0262375-0.4178772c0,0-0.6034088,0.2059174-1.4844971,0.0251808
			C35.8839149,62.2747955,35.5450363,62.0104179,35.5450363,62.0104179z"/>
		<path style="fill:#231815;" d="M37.9697266,65.6152344h-3.546875l0.6875-3.3388672l0.3583984-0.6416016l0.2294922,0.1787109
			c0.0009766,0.0009766,0.3203125,0.2333984,1.1162109,0.3964844c0.2255859,0.046875,0.4511719,0.0703125,0.671875,0.0703125
			c0.4189453,0,0.6806641-0.0859375,0.6826172-0.0869141l0.3085938-0.1015625l0.0498047,0.7744141L37.9697266,65.6152344z
			 M35.0341797,65.1152344h2.5273438l0.4619141-2.2841797l-0.0058594-0.0927734
			c-0.3027344,0.0488281-0.8310547,0.0585938-1.3037109-0.0380859c-0.5224609-0.1074219-0.8671875-0.2431641-1.0742188-0.3457031
			l-0.0732422,0.1318359L35.0341797,65.1152344z"/>
	</g>
</g>
</svg>
