<?xml version="1.0" encoding="utf-8"?>
<!-- Generator: Adobe Illustrator 18.0.0, SVG Export Plug-In . SVG Version: 6.00 Build 0)  -->
<!DOCTYPE svg PUBLIC "-//W3C//DTD SVG 1.1//EN" "http://www.w3.org/Graphics/SVG/1.1/DTD/svg11.dtd">
<svg version="1.1" id="レイヤー_1" xmlns="http://www.w3.org/2000/svg" xmlns:xlink="http://www.w3.org/1999/xlink" x="0px"
	 y="0px" width="64px" height="64px" viewBox="0 0 64 64" style="enable-background:new 0 0 64 64;" xml:space="preserve">
<g>
	<g>
		<path style="fill:#471E02;" d="M32.5850945,42.3830452c0,0.8044548,0.9003372,1.4397736,0.9261398,2.0592537
			c0.0269852,0.6465797-0.6567001,1.4079628-0.6158104,1.9899826c0.06427,0.9154282,0.8632355,1.1356621,0.960228,1.6093864
			c0.3802795,1.8566017-0.0606575,4.7251091,0.8551865,5.6198273c1.9029961,1.8589516,5.7221298,0.673851,9.4283333,1.2434425
			c0.5368576,0.0825043,1.0713463,0.1808472,1.5972977,0.3035316C46.9779091,55.4980888,49.1575089,60.8376923,50.9883652,65
			l20.9538498,0.0050964c-1.1117859-2.4820023-1.1014252-4.1701775-1.4284439-6.4319725
			C69.4288559,51.0691986,74.0165787,53.6164513,79.375,41.875c9.2550125-20.2796974,2.0595398-30.3537788-11.0437775-34.6500664
			C57.9690399,3.8273292,45.2048683,5.0155706,40.791172,17.9150219c-1.6693001,4.8786602-1.5062065,7.5980816-2.2315521,10.3853207
			c-1.4660263,5.6336555-4.7801628,5.7967262-5.6829529,6.6995163c-1.2505779,1.2505798,0.6216087,3.3628693,0.6095352,4.8886032
			C33.4745445,41.3624153,32.5850945,41.5234947,32.5850945,42.3830452z"/>
		<path style="fill:#110700;" d="M72.328125,65.2548828L50.8251953,65.25l-0.7109375-1.6269531
			c-1.4599609-3.3525391-3.4589844-7.9433594-4.4345703-8.171875c-0.4892578-0.1132813-1.0058594-0.2109375-1.578125-0.2988281
			c-0.7675781-0.1181641-1.5869141-0.1708984-2.6591797-0.1708984c-0.453125,0-0.9013672,0.0097656-1.3388672,0.0185547
			c-0.421875,0.0087891-0.8349609,0.0166016-1.2353516,0.0166016h-0.0009766c-1.8759766,0-3.3310547-0.2001953-4.3310547-1.1767578
			c-0.6435547-0.6289063-0.6875-1.9882813-0.7333984-3.4277344c-0.0263672-0.8076172-0.0537109-1.6435547-0.1923828-2.3203125
			c-0.0234375-0.1142578-0.1474609-0.2373047-0.2919922-0.3789063c-0.2646484-0.2617188-0.6274414-0.6191406-0.6723633-1.2626953
			c-0.0249023-0.3525391,0.1503906-0.7236328,0.3203125-1.0830078c0.1508789-0.3183594,0.3061523-0.6484375,0.2954102-0.9150391
			c-0.0087891-0.2119141-0.1865234-0.4716797-0.3740234-0.7470703c-0.2592773-0.3798828-0.5527344-0.8095703-0.5527344-1.3222656
			c0-0.4521484,0.2050781-0.7470703,0.4033203-1.0322266c0.2421875-0.3476563,0.4921875-0.7080078,0.4980469-1.4638672
			c0.0039063-0.5205078-0.2382813-1.1328125-0.4951172-1.78125c-0.4414063-1.1162109-0.9423828-2.3818359-0.0415039-3.2822266
			c0.2392578-0.2392578,0.590332-0.4150391,1.0356445-0.6367188c1.3886719-0.6923828,3.4863281-1.7392578,4.5820313-5.9492188
			c0.2626953-1.0078125,0.4111328-2.0336914,0.5683594-3.1191406c0.2832031-1.9550781,0.6035156-4.1713867,1.6689453-7.2841797
			c2.7548828-8.0517578,9.1767578-12.4863281,18.0800781-12.4863281c3.1230469,0,6.5029297,0.5668945,9.7744141,1.6396484
			c7.0039063,2.2963867,11.6787109,6.0249023,13.8945313,11.0825195c2.6679688,6.0908203,1.7587891,14.1347656-2.7011719,23.9086914
			c-2.4746094,5.421875-4.7773438,7.8105469-6.4589844,9.5546875c-1.9658203,2.0380859-2.9521484,3.0615234-2.3828125,7.0039063
			c0.0683594,0.4716797,0.1220703,0.9179688,0.1738281,1.3525391c0.1982422,1.6533203,0.3701172,3.0810547,1.2363281,5.0126953
			L72.328125,65.2548828z M51.1523438,64.75l20.4091797,0.0048828c-0.765625-1.8242188-0.9316406-3.2128906-1.1230469-4.8056641
			c-0.0517578-0.4306641-0.1044922-0.8730469-0.171875-1.3398438c-0.6054688-4.1855469,0.5703125-5.4042969,2.5166016-7.4238281
			c1.6572266-1.7177734,3.9257813-4.0703125,6.3642578-9.4140625c4.3994141-9.6396484,5.3066406-17.5463867,2.6982422-23.5009766
			c-2.15625-4.9213867-6.7294922-8.5581055-13.5927734-10.8076172C65.03125,6.40625,61.7050781,5.8476563,58.6347656,5.8476563
			c-8.6738281,0-14.9267578,4.3144531-17.6074219,12.1484375c-1.0498047,3.0683594-1.3671875,5.2602539-1.6464844,7.1933594
			c-0.1591797,1.1000977-0.3095703,2.1391602-0.5791016,3.1738281c-1.1533203,4.4301758-3.4628906,5.5820313-4.8427734,6.2705078
			c-0.3886719,0.1943359-0.7236328,0.3613281-0.9052734,0.5429688c-0.6689453,0.6679688-0.2700195,1.6767578,0.1523438,2.7441406
			c0.2626953,0.6650391,0.5351563,1.3525391,0.5302734,1.9697266c-0.0068359,0.9111328-0.3291016,1.3730469-0.5869141,1.7451172
			c-0.1826172,0.2626953-0.3144531,0.4521484-0.3144531,0.7470703c0,0.3583984,0.2363281,0.7050781,0.4658203,1.0400391
			c0.2294922,0.3359375,0.4453125,0.6533203,0.4609375,1.0087891c0.015625,0.3886719-0.1669922,0.7753906-0.34375,1.1494141
			c-0.1416016,0.3007813-0.2890625,0.6113281-0.2734375,0.8339844c0.0322266,0.4550781,0.2832031,0.7021484,0.5253906,0.9414063
			c0.1855469,0.1826172,0.3769531,0.3720703,0.4306641,0.6357422c0.1474609,0.7177734,0.1748047,1.5751953,0.2011719,2.4033203
			c0.0410156,1.2773438,0.0839844,2.5986328,0.5839844,3.0869141c0.8789063,0.8583984,2.2275391,1.0341797,3.9814453,1.0341797
			h0.0009766c0.3974609,0,0.8066406-0.0078125,1.2246094-0.0166016c0.4414063-0.0087891,0.8925781-0.0185547,1.3496094-0.0185547
			c1.0986328,0,1.9414063,0.0546875,2.7353516,0.1767578c0.5849609,0.0898438,1.1132813,0.1894531,1.6152344,0.3066406
			c1.1357422,0.2646484,2.6298828,3.5214844,4.7792969,8.4589844L51.1523438,64.75z"/>
	</g>
	<path style="fill:#281000;" d="M56.9707222,64C64.125,64,66.164978,49.4245033,66.164978,49.4245033
		c3-3.416687-6.2582779-3.1010895-6.2582779-3.1010895C53.4166679,54.1666679,41.5,53.59375,38.6360664,53.9375
		c1.7893677,0.3366699,3.887085,0.0236549,5.9614258,0.3424416c0.5368652,0.0824585,1.0713501,0.1808472,1.59729,0.3035278
		c1.2414551,0.2896118,3.4210815,5.6292114,5.2518921,9.7915001L56.9707222,64z"/>
	<g>
		<path style="fill:#05050F;" d="M43.7281036,30.1844273c2.0423012,1.9354839,5.9802284,2.3411884,5.9802284,2.3411884
			s-3.5,0.9743843-7.7212563-0.8448067C41.9870758,31.680809,42.9166679,31.208334,43.7281036,30.1844273z"/>
		<path style="fill:#281000;" d="M46.5289497,21.6771984c-1.0166397,2.9729023-2.0169792,6.0368252-2.0085335,8.0447102
			c0.5592766,0.6386108,2.028183,1.1286259,5.2535057,2.3369598c0,0-4.3242722-0.4553146-5.9643326-2.3924484
			C43.878994,26.1523819,46.5289497,21.6771984,46.5289497,21.6771984z"/>
		<path style="fill:#050505;" d="M42.4107437,21.1360779c0,0,2.9430656-2.4622669,9.2371559,4.432478
			C51.6478996,25.5685558,45.8893738,21.3828411,42.4107437,21.1360779z"/>
	</g>
	<g>
		<linearGradient id="SVGID_1_" gradientUnits="userSpaceOnUse" x1="72.266983" y1="4.0947266" x2="72.266983" y2="57.125">
			<stop  offset="0" style="stop-color:#000000"/>
			<stop  offset="0.1316872" style="stop-color:#3E3A39"/>
			<stop  offset="0.2510288" style="stop-color:#3E3A39"/>
			<stop  offset="0.7407407" style="stop-color:#000000"/>
		</linearGradient>
		<path style="fill:url(#SVGID_1_);" d="M65.9359741,4.0947266l-3.847168,20.2139282l-1.5253906,1.2409058l0.7885132,2.6310425
			l-0.000061,0.0001221l-1.4451904,2.4101563v3.5507813h0.000061L58.75,37.5904541L61.875,38.75l2.8333359-3.0833321
			L65.8964844,41.375C66.2538452,47.0054321,66.7738037,52.4767456,68,56l1.375-2.5625c0,0-0.1445923,3.4375,1.6628418,3.6875
			c0,0,4.3209229-6.1534424,10.3371582-14.5319214C86.875,34.9335327,91.8546143,7.007019,65.9359741,4.0947266z"/>
		<path style="fill:#050505;" d="M71.1552734,57.3935547l-0.1513672-0.0205078
			c-1.3720703-0.1904297-1.7490234-1.890625-1.8486328-2.9980469l-1.2041016,2.2451172l-0.1875-0.5380859
			c-1.2763672-3.6660156-1.7861328-9.484375-2.1162109-14.6914063L64.5625,36.1943359l-2.6171875,2.8486328l-3.5097656-1.3017578
			l1.2207031-3.640625v-3.5791016l1.4238281-2.375l-0.8037109-2.6850586l1.5839844-1.2890625l3.8730469-20.3520508
			l0.2304688,0.0258789c8.9248047,1.0029297,14.9892578,4.9750977,18.0244141,11.8061523
			c4.1933594,9.4399414,1.2363281,22.0078125-2.4101563,27.0859375c-5.9472656,8.2822266-10.2919922,14.46875-10.3349609,14.5302734
			L71.1552734,57.3935547z M69.6699219,52.359375L69.625,53.4482422c-0.0019531,0.0302734-0.1074219,3.0126953,1.3027344,3.3994141
			c0.6640625-0.9453125,4.7773438-6.7880859,10.2441406-14.4003906c3.5791016-4.9833984,6.4775391-17.3208008,2.359375-26.5917969
			C80.5996094,9.2563477,74.7480469,5.3930664,66.1376953,4.3696289l-3.8203125,20.0751953l-1.4667969,1.1933594
			l0.7724609,2.5766602L60.15625,30.6601563l-0.0126953,3.5605469l-1.0791016,3.2197266l2.7402344,1.0166016l3.0488281-3.3173828
			l1.2880859,6.1845703c0.3164063,4.9511719,0.7880859,10.4150391,1.9140625,14.0439453L69.6699219,52.359375z"/>
	</g>
	<g>
		<g>
			<path style="fill:#471E02;" d="M64.625,36.5172157c0,0,6.125-1.2158432,6.3952026,4.3501472
				c0.2306976,4.7521553-1.8377304,6.2721634-3.8800049,7.1945457c-2.0422821,0.9223862-5.8613853,1.4894218-7.2334976-1.7384949"/>
			<path style="fill:#110700;" d="M63.9052734,49.0332031c-0.6650391,0-1.328125-0.0996094-1.9433594-0.3398438
				c-1.0498047-0.4091797-1.8183594-1.1738281-2.2861328-2.2724609l0.4609375-0.1953125
				c0.4121094,0.9697266,1.0878906,1.6435547,2.0078125,2.0019531c1.5917969,0.6230469,3.6298828,0.1748047,4.8935547-0.3935547
				c2.0683594-0.9345703,3.9521484-2.4228516,3.7324219-6.9550781c-0.0703125-1.4560547-0.5664063-2.5537109-1.4726563-3.2626953
				c-1.7822266-1.3945313-4.5986328-0.8583984-4.6240234-0.8535156l-0.0976563-0.4902344
				c0.125-0.0244141,3.0634766-0.5859375,5.0283203,0.9482422c1.0273438,0.8027344,1.5878906,2.0253906,1.6660156,3.6347656
				c0.234375,4.8427734-1.9042969,6.4755859-4.0273438,7.4335938
				C66.3291016,48.7021484,65.1162109,49.0332031,63.9052734,49.0332031z"/>
		</g>
	</g>
	<g>
		<linearGradient id="SVGID_2_" gradientUnits="userSpaceOnUse" x1="52.1944008" y1="1.5127921" x2="52.1944008" y2="29.125">
			<stop  offset="0" style="stop-color:#000000"/>
			<stop  offset="0.1316872" style="stop-color:#3E3A39"/>
			<stop  offset="0.2510288" style="stop-color:#3E3A39"/>
			<stop  offset="0.7407407" style="stop-color:#000000"/>
		</linearGradient>
		<path style="fill:url(#SVGID_2_);" d="M65.9814453,4.0947266c-13.3935547-6.9052734-28.156311,2.2262573-28.156311,2.2262573
			c1.8613892-0.6407471,3.9683838-1.1208496,6.1692505-1.4805908C39.758728,7.5331421,36.414856,12.5958862,35.75,21.6771851
			c0,0,2.7164307-0.2111816,4.8777466-3.2720337l-0.0654297,2.3034668c0,0,6.2294388-3.9586182,9.1460152-9.8336182
			c-0.2778931,3.9984131,1.9395561,12.208313,3.6249809,15.458313c0,0,0.6784096-8.0798969-0.208313-14.6442661
			c4,7.1618156,4.8749237,15.1789875,4.8749237,15.1789875c1.3125763-4.1805344,0-11.8055344,0-11.8055344
			S60.8125,20.7086296,59.9067001,29.125c0,0,6.1682739-3.6132813,8.1959839-11.9882813
			C70.0721817,9.0021725,65.9814453,4.0947266,65.9814453,4.0947266z"/>
		<path style="fill:#050505;" d="M59.6044922,29.5913086l0.0527344-0.4931641
			c0.5732422-5.3208008-0.3642578-9.5483398-1.109375-11.8935547c0.2949219,2.590332,0.5810547,6.9033203-0.3095703,9.7382813
			l-0.3574219,1.1386719l-0.1289063-1.1860352c-0.0087891-0.0756836-0.8193359-7.1962891-4.2226563-13.9140625
			c0.6376953,6.237793,0.0595703,13.2973633,0.0527344,13.3730469l-0.0722656,0.862793l-0.3984375-0.7685547
			c-1.5195313-2.9291992-3.5839844-10.1611328-3.6748047-14.5361328c-3.0703125,5.3623047-8.6806641,8.9692383-8.7402344,9.0068359
			l-0.3974609,0.2524414l0.0576172-2.0004883c-2.1035156,2.5322266-4.4794922,2.746582-4.5869141,2.7548828l-0.2900391,0.0229492
			l0.0214844-0.2900391c0.5576172-7.6171875,3.0498047-13.1191406,7.4111328-16.3759766
			c-1.8867188,0.3510742-3.5664063,0.7788086-5.0058594,1.2739258l-2.1162109,0.7285156l1.9033203-1.1772461
			c0.0791016-0.0488281,7.9414063-4.8457031,17.2880859-4.8457031c4.0166016,0,7.7558594,0.8779297,11.1142578,2.6098633
			l0.078125,0.0620117c0.0410156,0.050293,4.1484375,5.0981445,2.171875,13.2607422
			c-2.0292969,8.3813477-8.2509766,12.1088867-8.3134766,12.1455078L59.6044922,29.5913086z M57.4648438,13.4282227
			l0.7587891,1.5229492c0.0283203,0.0556641,2.7177734,5.5693359,1.9833984,13.675293
			c1.4199219-0.9956055,5.984375-4.6557617,7.6523438-11.5483398c1.8261719-7.5400391-1.6757813-12.3164063-2.0400391-12.7856445
			c-3.2753906-1.6787109-6.9208984-2.5297852-10.8378906-2.5297852c-6.2792969,0-11.8769531,2.1972656-14.8261719,3.609375
			c1.1640625-0.2949219,2.4345703-0.5551758,3.7988281-0.7783203l1.2041016-0.1972656l-1.0302734,0.6547852
			c-4.7451172,3.0170898-7.4707031,8.5097656-8.1044922,16.328125c0.7412109-0.1552734,2.7470703-0.7763672,4.4003906-3.1181641
			l0.4775391-0.6767578l-0.0751953,2.6445313c1.4130859-0.9819336,6.2304688-4.5742188,8.6582031-9.465332l0.5605469-1.1293945
			l-0.0878906,1.2578125c-0.2548828,3.6826172,1.6523438,10.9360352,3.1933594,14.4692383
			c0.1445313-2.3261719,0.4228516-8.4868164-0.2734375-13.6386719l-0.1757813-1.3056641l0.6425781,1.1499023
			c3.0332031,5.4321289,4.2871094,11.4130859,4.7158203,13.984375c0.7509766-4.1938477-0.2939453-10.3779297-0.3056641-10.4462891
			L57.4648438,13.4282227z"/>
	</g>
	<g>
		<linearGradient id="SVGID_3_" gradientUnits="userSpaceOnUse" x1="43.0240402" y1="4.5272312" x2="43.0240402" y2="18.8508625">
			<stop  offset="0" style="stop-color:#FFFFFF;stop-opacity:0.6"/>
			<stop  offset="1" style="stop-color:#FFFFFF;stop-opacity:0"/>
		</linearGradient>
		<path style="fill:url(#SVGID_3_);" d="M37.8251114,18.8508625c1.2269592-11.3725471,9.109108-14.3236313,9.109108-14.3236313
			c-0.3068542,0.9845009-0.6578903,1.9117732-1.0296059,2.8011007c1.2796249-1.0328908,2.3183556-1.4055471,2.3183556-1.4055471
			c-2.1231079,7.2978792-7.0353165,11.2366982-7.0353165,11.2366982c0.069931-0.8411961,0.2007141-1.6043673,0.3568192-2.3307467
			C39.518383,17.4563046,37.8251114,18.8508625,37.8251114,18.8508625z"/>
		<linearGradient id="SVGID_4_" gradientUnits="userSpaceOnUse" x1="79.9439774" y1="12.4434633" x2="79.9439774" y2="29.8920803">
			<stop  offset="0" style="stop-color:#FFFFFF;stop-opacity:0.6"/>
			<stop  offset="1" style="stop-color:#FFFFFF;stop-opacity:0"/>
		</linearGradient>
		<path style="fill:url(#SVGID_4_);" d="M77.0698624,12.4434633c1.1651001,0.8651018,1.9453964,1.861352,2.4729996,2.8957138
			c0.1197739-1.1130981,0.304451-1.6911612,0.304451-1.6911612c5.6520157,5.906889,2.4460983,16.2440643,2.4460983,16.2440643
			c-1.1285858-2.7161484-1.8275757-5.1132183-2.2545853-7.1850719c-0.2106705,0.7844429-0.4163895,1.2686081-0.4163895,1.2686081
			C75.2341156,16.5753536,77.0698624,12.4434633,77.0698624,12.4434633z"/>
	</g>
	
		<linearGradient id="SVGID_5_" gradientUnits="userSpaceOnUse" x1="20.2362022" y1="35.8743477" x2="20.2362022" y2="39.3065567" gradientTransform="matrix(-1 0 0 1 63.7645111 0)">
		<stop  offset="0" style="stop-color:#C30D23;stop-opacity:0.2"/>
		<stop  offset="1" style="stop-color:#C30D23;stop-opacity:0"/>
	</linearGradient>
	<path style="fill:url(#SVGID_5_);" d="M47.2977448,38.9777565c0.3206558-1.2115326-4.1092949-4.1841164-7.0096169-2.6951065
		C37.3878098,37.7716599,46.9770889,40.1892891,47.2977448,38.9777565z"/>
</g>
<linearGradient id="SVGID_6_" gradientUnits="userSpaceOnUse" x1="62.7989273" y1="5.375" x2="62.7989273" y2="19.625">
	<stop  offset="0" style="stop-color:#FFFFFF;stop-opacity:0.6"/>
	<stop  offset="1" style="stop-color:#FFFFFF;stop-opacity:0"/>
</linearGradient>
<path style="fill:url(#SVGID_6_);" d="M63.125,5.5976563c-0.421875,0.7061157-0.5969849,1.7404175-0.6138916,2.9298706
	C61.5556641,6.3244019,60,5.375,60,5.375C58.229187,10.0101929,62.5076904,16.5,62.5076904,16.5
	c0.3079224-0.9567871,0.5006104-1.838501,0.6124878-2.6580811C63.7454834,16.9407349,64.625,19.625,64.625,19.625
	C68.4958496,10.0724487,63.125,5.5976563,63.125,5.5976563z"/>
</svg>
