<?xml version="1.0" encoding="utf-8"?>
<!-- Generator: Adobe Illustrator 16.0.0, SVG Export Plug-In . SVG Version: 6.00 Build 0)  -->
<!DOCTYPE svg PUBLIC "-//W3C//DTD SVG 1.1//EN" "http://www.w3.org/Graphics/SVG/1.1/DTD/svg11.dtd">
<svg version="1.1" id="Layer_31_copy_4" xmlns="http://www.w3.org/2000/svg" xmlns:xlink="http://www.w3.org/1999/xlink" x="0px"
	 y="0px" width="64px" height="64px" viewBox="0 0 64 64" enable-background="new 0 0 64 64" xml:space="preserve">
<g>
	<path fill="#182985" stroke="#2C5DA9" stroke-width="5" stroke-miterlimit="10" d="M54.396,6.526H10.052
		c-1.933,0-3.5,1.567-3.5,3.5v44.348c0,1.934,1.567,3.501,3.5,3.501h44.344c1.934,0,3.5-1.567,3.5-3.501V10.027
		C57.896,8.094,56.33,6.526,54.396,6.526z"/>
	<radialGradient id="SVGID_1_" cx="32.2241" cy="32.2012" r="29.6558" gradientUnits="userSpaceOnUse">
		<stop  offset="0" style="stop-color:#DFF0F9"/>
		<stop  offset="1" style="stop-color:#008CCD"/>
	</radialGradient>
	<path fill="url(#SVGID_1_)" d="M54.396,6.526H10.052c-1.933,0-3.5,1.567-3.5,3.5v44.348c0,1.934,1.567,3.501,3.5,3.501h44.344
		c1.934,0,3.5-1.567,3.5-3.501V10.027C57.896,8.094,56.33,6.526,54.396,6.526z"/>
	<path fill="#00B0E7" d="M54.396,6.526h-0.697c1.934,0,3.5,1.567,3.5,3.5v44.348c0,1.934-1.566,3.501-3.5,3.501h0.697
		c1.934,0,3.5-1.567,3.5-3.501V10.027C57.896,8.094,56.33,6.526,54.396,6.526z"/>
	<path fill="#00B0E7" d="M7.252,54.375V10.027c0-1.933,1.567-3.5,3.5-3.5h-0.701c-1.933,0-3.5,1.567-3.5,3.5v44.348
		c0,1.934,1.567,3.501,3.5,3.501h0.701C8.82,57.876,7.252,56.309,7.252,54.375z"/>
	<radialGradient id="SVGID_2_" cx="32.2241" cy="9.0293" r="21.0683" gradientUnits="userSpaceOnUse">
		<stop  offset="0" style="stop-color:#DFF0F9"/>
		<stop  offset="1" style="stop-color:#00B4EB"/>
	</radialGradient>
	<path fill="url(#SVGID_2_)" d="M54.396,6.526H10.052c-1.933,0-3.5,1.567-3.5,3.5v1.506c0-1.933,1.567-3.5,3.5-3.5h44.344
		c1.934,0,3.5,1.567,3.5,3.5v-1.506C57.896,8.094,56.33,6.526,54.396,6.526z"/>
	<radialGradient id="SVGID_3_" cx="32.2241" cy="54.5977" r="18.3005" gradientUnits="userSpaceOnUse">
		<stop  offset="0" style="stop-color:#DFF0F9"/>
		<stop  offset="1" style="stop-color:#00B4EB"/>
	</radialGradient>
	<path fill="url(#SVGID_3_)" d="M10.052,57.876h44.345c1.934,0,3.5-1.567,3.5-3.501v-3.056c0,1.935-1.566,3.501-3.5,3.501H10.052
		c-1.933,0-3.5-1.566-3.5-3.501v3.056C6.552,56.309,8.119,57.876,10.052,57.876z"/>
	<g>
		<g>
			<g>
				<g>
					<g>
						<g>
							<path fill="#F5B32C" stroke="#036EB5" stroke-width="5" stroke-miterlimit="10" d="M21.452,44.967h5.19
								c0.619,0,1.121-0.347,1.121-0.777V19.502c0-0.428-0.502-0.776-1.121-0.776h-5.19c-0.619,0-1.119,0.349-1.119,0.776v24.688
								C20.333,44.62,20.833,44.967,21.452,44.967z"/>
						</g>
						<g>
							<g>
								
									<path fill="#FFFFFF" stroke="#036EB5" stroke-width="5" stroke-linecap="round" stroke-linejoin="round" stroke-miterlimit="10" d="
									M25.357,20.392h-2.621v22.909h2.621V20.392z"/>
							</g>
						</g>
					</g>
				</g>
			</g>
			<g>
				<g>
					<g>
						<g>
							<path fill="#F5B32C" d="M21.452,44.967h5.19c0.619,0,1.121-0.347,1.121-0.777V19.502c0-0.428-0.502-0.776-1.121-0.776h-5.19
								c-0.619,0-1.119,0.349-1.119,0.776v24.688C20.333,44.62,20.833,44.967,21.452,44.967z"/>
						</g>
						<g>
							<g>
								<path fill="#FFFFFF" d="M25.357,20.392h-2.621v22.909h2.621V20.392z"/>
							</g>
						</g>
					</g>
				</g>
			</g>
		</g>
		<g>
			<g>
				<g>
					<g>
						<g>
							<path fill="#F5B32C" stroke="#036EB5" stroke-width="5" stroke-miterlimit="10" d="M37.684,44.967h5.191
								c0.617,0,1.119-0.347,1.119-0.777V19.502c0-0.428-0.502-0.776-1.119-0.776h-5.191c-0.619,0-1.119,0.349-1.119,0.776v24.688
								C36.564,44.62,37.064,44.967,37.684,44.967z"/>
						</g>
						<g>
							<g>
								
									<path fill="#FFFFFF" stroke="#036EB5" stroke-width="5" stroke-linecap="round" stroke-linejoin="round" stroke-miterlimit="10" d="
									M41.59,20.392h-2.621v22.909h2.621V20.392z"/>
							</g>
						</g>
					</g>
				</g>
			</g>
			<g>
				<g>
					<g>
						<g>
							<path fill="#F5B32C" d="M37.684,44.967h5.191c0.617,0,1.119-0.347,1.119-0.777V19.502c0-0.428-0.502-0.776-1.119-0.776
								h-5.191c-0.619,0-1.119,0.349-1.119,0.776v24.688C36.564,44.62,37.064,44.967,37.684,44.967z"/>
						</g>
						<g>
							<g>
								<path fill="#FFFFFF" d="M41.59,20.392h-2.621v22.909h2.621V20.392z"/>
							</g>
						</g>
					</g>
				</g>
			</g>
		</g>
	</g>
</g>
</svg>
