<?xml version="1.0" encoding="UTF-8" standalone="no"?>
<!-- Generator: Adobe Illustrator 15.0.0, SVG Export Plug-In . SVG Version: 6.00 Build 0)  -->

<svg
   xmlns:dc="http://purl.org/dc/elements/1.1/"
   xmlns:cc="http://creativecommons.org/ns#"
   xmlns:rdf="http://www.w3.org/1999/02/22-rdf-syntax-ns#"
   xmlns:svg="http://www.w3.org/2000/svg"
   xmlns="http://www.w3.org/2000/svg"
   xmlns:sodipodi="http://sodipodi.sourceforge.net/DTD/sodipodi-0.dtd"
   xmlns:inkscape="http://www.inkscape.org/namespaces/inkscape"
   version="1.1"
   id="レイヤー_1"
   x="0px"
   y="0px"
   width="64px"
   height="64px"
   viewBox="0 0 64 64"
   style="enable-background:new 0 0 64 64;"
   xml:space="preserve"
   inkscape:version="0.91 r13725"
   sodipodi:docname="(left)glove.svg"><metadata
     id="metadata211"><rdf:RDF><cc:Work
         rdf:about=""><dc:format>image/svg+xml</dc:format><dc:type
           rdf:resource="http://purl.org/dc/dcmitype/StillImage" /></cc:Work></rdf:RDF></metadata><defs
     id="defs209" /><sodipodi:namedview
     pagecolor="#ffffff"
     bordercolor="#666666"
     borderopacity="1"
     objecttolerance="10"
     gridtolerance="10"
     guidetolerance="10"
     inkscape:pageopacity="0"
     inkscape:pageshadow="2"
     inkscape:window-width="1920"
     inkscape:window-height="1017"
     id="namedview207"
     showgrid="false"
     inkscape:zoom="3.6875"
     inkscape:cx="-27.932203"
     inkscape:cy="32"
     inkscape:window-x="0"
     inkscape:window-y="26"
     inkscape:window-maximized="1"
     inkscape:current-layer="レイヤー_1" /><g
     id="g3"
     transform="matrix(-1,0,0,1,63.947266,0)"><path
       d="m 31.494141,62.698242 c -1.63086,0 -3.022461,-0.205078 -4.136231,-0.608398 l -0.489258,-0.793945 0.236328,-1.970704 c -0.227539,-1.257812 -2.013671,-11.339843 -1.440429,-14.766601 -0.259766,-0.691406 -0.243164,-1.680664 0.0498,-3.008789 0.136719,-0.622071 0.327149,-1.294922 0.565918,-2.000977 l 0.138184,-0.400391 c 0.06104,-0.170898 0.117188,-0.322265 0.165527,-0.450195 -1.075683,-1.254883 -4.829589,-5.621094 -6.36914,-7.230957 -1.673828,-1.75 -2.144043,-5.460449 -2.521973,-8.441894 l -0.0791,-0.619629 -0.5083,-1.998535 -1.831055,-4.575684 0.143555,-0.785644 c 0.09668,-0.105469 0.960937,-1.01709 2.204589,-1.291016 l 0.03613,-0.02051 0.0059,0.0093 0.0068,-0.0024 0.0015,0.0029 c 0.0083,-0.002 0.01709,-0.0034 0.02588,-0.0054 l -0.0024,-0.0068 c 0.175781,-0.06055 0.461914,-0.132813 0.830566,-0.132813 1.331543,0 3.256348,0.870117 4.868652,5.015137 0.0073,0.02197 0.05957,0.18457 0.140625,0.426269 0.01514,-0.160156 0.03076,-0.314941 0.04785,-0.463378 0.08447,-0.735352 0.172852,-1.145997 0.216797,-1.320801 l 0.06396,-1.000489 c 0.06934,-1.106933 0.179687,-2.407226 0.347168,-4.092773 l 0.175781,-1.714844 C 24.709961,7.2988281 24.909179,5.2734375 24.948242,4.7470703 24.981445,4.0083008 25.43164,3.3198242 26.214355,2.8305664 26.881348,2.2827148 27.759277,1.9375 28.547852,1.9375 c 0.603515,0 1.156738,0.1972656 1.608398,0.5712891 0.06934,0.033203 0.13623,0.068848 0.20166,0.1069336 0.273926,-0.4208984 0.692383,-0.8544922 1.318848,-1.0957031 0.367676,-0.1416016 0.839355,-0.2197266 1.328125,-0.2197266 1.642578,0 3.368164,0.8583984 3.522461,2.7758789 l 9.76e-4,2.4780273 c 0.792969,-0.021484 2.039063,0.063965 3.220703,0.7724609 1.678711,1.0073242 1.865235,3.8120119 1.871094,4.9218749 0.953125,0.709961 3.418946,2.910645 3.493164,6.706543 l -0.0059,0.111328 c -0.0918,0.705078 -0.166016,1.934082 -0.03223,2.33252 0.05664,0.171386 0.138672,0.495117 0.188477,1.325195 l -0.507813,0.05371 0.509766,-0.0293 c 0.02539,0.434082 0.03613,0.93457 0.03223,1.474609 -0.0059,0.641114 -0.03027,1.262207 -0.07129,1.869629 -0.02832,0.420899 -0.06152,0.814453 -0.103516,1.176758 l 0.640625,3.045898 -0.03418,0.42334 -0.375,0.975586 -0.143554,2.300293 c 0.08203,0.06348 0.15625,0.138672 0.219726,0.225586 0.207031,0.282227 0.394531,0.806641 0.113281,1.703125 l -0.0166,0.152344 0.04102,0.0293 c -0.0059,0.03516 -0.582031,3.599609 -0.04297,8.494141 0.0078,0.06641 0.0068,0.159179 9.76e-4,0.254882 0.119141,0.590821 0.04492,1.081055 -0.234375,1.426758 -0.06934,0.08594 -0.15039,0.161133 -0.239258,0.22168 0.163086,0.383789 0.328125,0.777344 0.493165,1.179687 l 1.078125,2.280274 c 0.05371,0.136719 0.655273,1.821289 0.988281,3.877929 0.331055,1.407227 0.459961,2.600586 0.385742,3.597657 l 0.674805,1.125 -0.174805,0.971679 -1.666016,1.333008 -0.676757,0.135742 -1.421875,-0.410156 c -0.425782,-0.06836 -0.983399,-0.106445 -1.528321,-0.04199 -0.268554,0.08398 -0.722656,0.22168 -1.302734,0.387695 -1.12793,0.559571 -3.30957,1.045899 -5.936523,1.340821 -1.625001,0.262695 -3.141114,0.398437 -4.47168,0.398437 z m -3.062012,-1.842773 c 1.754394,0.46875 4.255371,0.455078 7.330566,-0.04102 2.457032,-0.277344 4.571289,-0.737305 5.421875,-1.177734 l 0.236328,-0.09961 c 0.646485,-0.185547 1.141602,-0.335937 1.399414,-0.416992 l 0.125977,-0.02734 c 0.728516,-0.09668 1.412109,-0.06543 2.126953,0.06152 l 1.124024,0.321289 0.851562,-0.682617 -0.463867,-0.774414 -0.101563,-0.47168 c 0.09863,-0.861328 -0.01563,-2.003906 -0.341797,-3.395508 -0.320312,-1.964844 -0.895507,-3.579102 -0.901367,-3.594727 l -1.066406,-2.25 c -0.318359,-0.774414 -0.621094,-1.483398 -0.913086,-2.15039 l 0.811523,-0.838867 c -0.0049,-0.04199 -0.0127,-0.09375 -0.02637,-0.158203 -0.03027,-0.142579 -0.02246,-0.269532 -0.0166,-0.372071 -0.529297,-4.855468 -0.02441,-8.378906 0.05078,-8.858398 l -0.04004,-0.03223 0.0498,-0.307617 c 0.104492,-0.353516 0.100586,-0.500977 0.09277,-0.535156 0.01855,0.08008 0.160156,0.235351 0.351563,0.235351 l -0.988282,-0.972656 c 0.06055,-0.136719 0.116211,-0.245117 0.163086,-0.330078 L 43.913086,31.283691 44.25,30.407227 43.619141,27.209961 c 0.0459,-0.371094 0.08105,-0.778809 0.109375,-1.194336 0.04102,-0.601562 0.06348,-1.192383 0.06836,-1.757812 0.0049,-0.549317 -0.0059,-1.016602 -0.0293,-1.422364 l 0.0059,-0.0044 -0.0078,-0.01709 c -0.04102,-0.693848 -0.102539,-0.905273 -0.114258,-0.94043 -0.27539,-0.828613 -0.0957,-2.487793 -0.03906,-2.942871 -0.100586,-3.731445 -3.016602,-5.578125 -3.141602,-5.655273 L 40.114258,12.603028 C 40.150391,11.766602 40.019531,9.2382814 38.977539,8.6127931 37.551758,7.7573243 35.944336,8.1186525 35.935547,8.119629 l -0.90625,-0.7333984 0,-3.25 C 34.924805,2.8676759 33.324219,2.8002931 33.004883,2.8002931 c -0.304199,0 -0.591797,0.043457 -0.789063,0.1191406 -0.667969,0.2573242 -0.865234,1.1054688 -0.867187,1.1137695 L 29.961426,4.2573243 C 29.860352,4.0795898 29.687988,3.9375 29.449707,3.8349609 L 29.239746,3.6992187 c -0.504883,-0.4628906 -1.391602,-0.269043 -2.155762,0.3500977 -0.278808,0.1811523 -0.623046,0.4458008 -0.638671,0.7871094 -0.05225,0.7138672 -0.336426,3.527832 -0.56543,5.7666012 l -0.174317,1.69336 c -0.166992,1.682129 -0.275878,2.965332 -0.34375,4.053222 l -0.100585,1.249024 0,-4.88e-4 c 0,0 -0.09326,0.333496 -0.186524,1.14746 -0.0708,0.621582 -0.123047,1.361329 -0.154297,2.198731 l -0.03809,0.01807 c -0.0049,0.133301 -0.02002,0.559082 -0.03027,1.171387 l -1.403809,0.354981 -0.793945,-1.48584 c -0.361328,-0.907715 -0.660644,-1.850586 -0.672852,-1.890625 -1.408691,-3.617676 -2.885742,-4.013184 -3.454589,-4.013184 -0.175782,0 -0.297364,0.03565 -0.341309,0.05078 l -9.77e-4,-0.0015 -0.183105,0.05957 c -0.462402,0.08789 -0.870117,0.344238 -1.139648,0.552734 l 1.686035,4.230469 0.537109,2.135254 0.0957,0.709961 c 0.332032,2.617187 0.786133,6.20166 2.118164,7.59375 1.826661,1.910644 6.519043,7.402832 6.717774,7.635254 l 0.123047,0.773437 c -0.0029,0.0078 -0.134278,0.326172 -0.306641,0.808594 l -0.128906,0.373047 c -0.221192,0.654297 -0.401367,1.291016 -0.524903,1.851563 -0.347168,1.575195 -0.146972,2.107421 -0.07715,2.232421 l 0.0752,0.53125 c -0.565918,2.473633 0.835938,11.328125 1.423828,14.53125 l 0.0068,0.225586 -0.175781,1.462891 z"
       id="path5"
       inkscape:connector-curvature="0" /><g
       id="g7"><linearGradient
         id="SVGID_1_"
         gradientUnits="userSpaceOnUse"
         x1="35.811523"
         y1="33.751953"
         x2="57.478027"
         y2="42.334965"><stop
           offset="0"
           style="stop-color:#DF0000"
           id="stop10" /><stop
           offset="0.3857597"
           style="stop-color:#BD0003"
           id="stop12" /><stop
           offset="1"
           style="stop-color:#7F0009"
           id="stop14" /></linearGradient><path
         style="fill:url(#SVGID_1_)"
         d="m 17.746094,19.503418 -1.775391,-3.950684 2.058594,-1.166503 c -1.208008,0.776367 2.03125,-2.277344 4.666992,4.499999 0,0 1,3.166993 1.5,3.333497 0,0 0.166992,-1.916993 0.416992,-5.916993 0.25,-4 1,-9.6669918 1.083008,-11.4999996 0.08301,-1.8330078 3.916992,-2.6665039 4.916992,-0.9165039 0,0 0.25,-1.2495117 1.333008,-1.6665039 1.083008,-0.4169922 3.666016,-0.1669922 3.833008,1.9165039 l 0,3.25 c 0,0 1.917969,-0.4165039 3.583984,0.5834961 1.666016,1 1.5,4.6665044 1.5,4.6665044 0,0 3.416993,2.083496 3.5,6.333496 0,0 -0.25,1.916503 0,2.666503 0.25,0.75 0.25,3.666504 0,5.666504 l 0.666016,3.166993 -0.416016,1.083007 -0.166992,2.666016 c 0,0 -1.750977,2.25 -0.666992,11.5 l 2.166992,4.583984 c 0,0 1.416016,3.916016 1.083008,7 l 1,1.666016 -1.666016,1.333984 c 0,0 -2.583984,-1.166015 -4.833984,0 -2.25,1.166016 -10.833985,2.082032 -13.916016,1.082032 l 0.25,-2.082032 c 0,0 -2.141601,-11.667968 -1.416992,-14.833984 -0.833008,-1.5 1,-5.916016 1,-5.916016 0,0 -4.856445,-5.687011 -6.689453,-7.604004 -2.37793,-2.485351 -2.15332,-10.187988 -3.010742,-11.445312 z"
         id="path16"
         inkscape:connector-curvature="0" /><g
         id="g18"><path
           style="fill:#600606"
           d="M 25.334473,13.087402 24.962402,12.75293 c 0,0 0.08643,-0.09619 0.250977,-0.259278 l 0.351562,0.355469 c -0.148437,0.146973 -0.228027,0.234863 -0.230468,0.238281 z"
           id="path20"
           inkscape:connector-curvature="0" /><path
           style="fill:#600606"
           d="m 25.635254,12.779297 -0.348633,-0.358398 c 0.140625,-0.137207 0.32666,-0.311036 0.553711,-0.507325 l 0.327148,0.37793 c -0.218261,0.188477 -0.396484,0.355469 -0.532226,0.487793 z m 0.61084,-0.555664 -0.324219,-0.379883 c 0.172852,-0.147461 0.367187,-0.306641 0.581543,-0.472168 l 0.305664,0.396484 c -0.20752,0.159668 -0.395996,0.312989 -0.562988,0.455567 z m 0.644531,-0.518067 -0.301758,-0.398437 c 0.188477,-0.143066 0.39209,-0.290039 0.608399,-0.4375 l 0.28125,0.414062 c -0.209473,0.141602 -0.405274,0.283692 -0.587891,0.421875 z m 0.673828,-0.480468 -0.27832,-0.415039 c 0.200195,-0.134278 0.412109,-0.268555 0.633789,-0.400391 l 0.255859,0.429688 c -0.213867,0.126953 -0.417969,0.256347 -0.611328,0.385742 z m 0.700195,-0.437989 -0.251953,-0.43164 c 0.210449,-0.123047 0.430664,-0.243652 0.658692,-0.3598635 l 0.227539,0.4453125 c -0.220215,0.112305 -0.431641,0.228027 -0.634278,0.346191 z M 28.990234,10.39502 28.767578,9.9477539 C 28.987793,9.8378906 29.21582,9.7329101 29.450684,9.6333008 l 0.194335,0.4609372 c -0.225097,0.09473 -0.443359,0.195801 -0.654785,0.300782 z m 0.75,-0.341309 -0.190429,-0.4619142 c 0.229004,-0.094727 0.464355,-0.1831055 0.706054,-0.2636719 l 0.158203,0.4746094 c -0.230957,0.07666 -0.455566,0.1611329 -0.673828,0.2509767 z"
           id="path22"
           inkscape:connector-curvature="0" /><path
           style="fill:#600606"
           d="m 30.520019,9.7675781 -0.15332,-0.4755859 c 0.11377,-0.036621 0.228027,-0.071777 0.344238,-0.1044922 l 0.136719,0.4804688 c -0.110351,0.031738 -0.219726,0.064941 -0.327637,0.099609 z"
           id="path24"
           inkscape:connector-curvature="0" /></g><linearGradient
         id="SVGID_2_"
         gradientUnits="userSpaceOnUse"
         x1="40.521484"
         y1="47.975586"
         x2="39.844036"
         y2="50.849457"><stop
           offset="0"
           style="stop-color:#DF0000"
           id="stop27" /><stop
           offset="0.2527558"
           style="stop-color:#BD0002"
           id="stop29" /><stop
           offset="0.8086758"
           style="stop-color:#660007"
           id="stop31" /><stop
           offset="1"
           style="stop-color:#470009"
           id="stop33" /></linearGradient><path
         style="opacity:0.49000005;fill:url(#SVGID_2_)"
         d="m 40.387695,50.601562 c 0,0 -2.675781,-1.033203 -3.08789,0 -0.41211,1.033204 4.016601,0.513672 4.627929,1.503907 0.611328,0.990234 -0.457031,-1.619141 -1.540039,-1.503907 z"
         id="path35"
         inkscape:connector-curvature="0" /><g
         id="g37"><path
           style="fill:#600606"
           d="m 24.93457,16.864258 c -0.210937,-0.021 -0.333008,-0.02832 -0.335937,-0.02832 l 0.0293,-0.499023 c 0,0 0.129394,0.0073 0.355468,0.0293 l -0.04883,0.498047 z"
           id="path39"
           inkscape:connector-curvature="0" /><path
           style="fill:#600606"
           d="m 44.055664,22.942383 c -0.154297,-0.141602 -0.327148,-0.280274 -0.512695,-0.411621 l 0.289062,-0.408203 c 0.203125,0.144043 0.391602,0.29541 0.561524,0.450683 l -0.337891,0.369141 z m -0.59082,-0.466309 c -0.179688,-0.123047 -0.369141,-0.239746 -0.566407,-0.350098 l 0.244141,-0.436523 c 0.210938,0.118164 0.414063,0.242676 0.605469,0.374512 l -0.283203,0.412109 z M 42.81543,22.080078 c -0.195313,-0.105957 -0.396485,-0.206055 -0.602539,-0.301269 l 0.210937,-0.454102 c 0.21582,0.100098 0.426758,0.205078 0.629883,0.315918 l -0.238281,0.439453 z m -0.689453,-0.341309 c -0.204102,-0.09229 -0.414063,-0.179687 -0.625,-0.262695 l 0.183593,-0.465332 c 0.21875,0.08643 0.434571,0.176758 0.646485,0.271973 l -0.205078,0.456054 z m -0.714844,-0.297363 c -0.210938,-0.08154 -0.424805,-0.158691 -0.639649,-0.231445 l 0.16211,-0.473633 c 0.220703,0.07568 0.440429,0.154785 0.657226,0.238281 l -0.179687,0.466797 z m -0.732422,-0.263183 c -0.216797,-0.07275 -0.433594,-0.14209 -0.649414,-0.208496 l 0.146484,-0.47754 c 0.219727,0.06738 0.442383,0.137696 0.663086,0.212403 l -0.160156,0.473633 z M 39.93457,20.941406 C 39.713867,20.874023 39.494141,20.810547 39.27832,20.75 l 0.134766,-0.481445 c 0.219726,0.06152 0.443359,0.125976 0.667969,0.194336 l -0.146485,0.478515 z m -0.750976,-0.217773 -0.663086,-0.181641 0.130859,-0.482422 0.666992,0.182617 -0.134765,0.481446 z m -0.757813,-0.207031 -0.666992,-0.179688 0.130859,-0.482422 0.66504,0.179688 -0.128907,0.482422 z m -0.762695,-0.206055 c -0.243164,-0.06689 -0.467774,-0.13086 -0.670899,-0.193848 l 0.148438,-0.477539 c 0.197266,0.06104 0.417969,0.124023 0.655273,0.188965 l -0.132812,0.482422 z m -0.765625,-0.224121 c -0.135742,-0.04297 -0.260742,-0.08594 -0.373047,-0.128418 -0.0918,-0.03516 -0.185547,-0.06787 -0.279297,-0.09766 l 0.152344,-0.476562 c 0.101562,0.03271 0.203125,0.06836 0.304687,0.106445 0.104493,0.03955 0.219727,0.07959 0.345703,0.119629 l -0.15039,0.476563 z M 36.155273,19.832031 C 35.94043,19.76709 35.724609,19.714355 35.509766,19.670898 l 0.09961,-0.490234 c 0.230469,0.04639 0.461914,0.103027 0.69043,0.172852 l -0.144532,0.478515 z m -0.738281,-0.179687 c -0.222656,-0.04199 -0.445312,-0.07422 -0.665039,-0.09961 l 0.05859,-0.49707 c 0.231445,0.02734 0.463867,0.06152 0.698242,0.105469 l -0.0918,0.491211 z m -0.761719,-0.11084 c -0.229492,-0.0249 -0.455078,-0.04395 -0.676757,-0.05957 l 0.03516,-0.499024 c 0.227539,0.0166 0.460937,0.03564 0.696289,0.06152 l -0.05469,0.49707 z m -0.77539,-0.06641 -0.686524,-0.04541 0.0332,-0.499023 0.688477,0.04541 -0.03516,0.499024 z m -0.785156,-0.05225 c -0.244141,-0.01758 -0.478516,-0.03809 -0.701172,-0.06689 l 0.06445,-0.496094 c 0.213867,0.02783 0.438476,0.04736 0.671875,0.06396 l -0.03516,0.499024 z m -0.80127,-0.08057 c -0.273926,-0.03906 -0.506836,-0.08887 -0.712402,-0.152832 l 0.148437,-0.477539 c 0.179688,0.05615 0.387207,0.100098 0.634277,0.135254 l -0.07031,0.495117 z M 31.479492,19.15625 c -0.267578,-0.09326 -0.489258,-0.212891 -0.678223,-0.365723 l 0.314454,-0.388672 c 0.143554,0.115723 0.315918,0.208008 0.527832,0.281739 l -0.164063,0.472656 z m -0.75293,-0.42627 c -0.162109,-0.129394 -0.344238,-0.255371 -0.540039,-0.374023 l 0.258789,-0.427734 c 0.214356,0.129883 0.414063,0.268066 0.592774,0.410156 L 30.726562,18.72998 Z M 30.104004,18.307129 C 29.915039,18.195801 29.717773,18.09375 29.514648,17.999023 l 0.210938,-0.453125 c 0.217773,0.101563 0.429687,0.211426 0.632324,0.330567 l -0.253906,0.430664 z m -0.67627,-0.347656 c -0.203125,-0.09229 -0.411621,-0.176758 -0.622558,-0.254883 l 0.173828,-0.46875 c 0.22168,0.08203 0.440918,0.171387 0.654785,0.267578 l -0.206055,0.456055 z m -0.712402,-0.287598 c -0.213379,-0.07666 -0.428223,-0.146484 -0.64209,-0.209961 l 0.142578,-0.479492 c 0.222657,0.06641 0.446289,0.13916 0.668457,0.21875 l -0.168945,0.470703 z M 27.97998,17.435059 c -0.220703,-0.06445 -0.440429,-0.121582 -0.655273,-0.172852 l 0.116211,-0.486328 c 0.222656,0.05322 0.450195,0.112305 0.678711,0.178711 l -0.139649,0.480469 z m -0.749511,-0.194825 c -0.229004,-0.05371 -0.45166,-0.100097 -0.664551,-0.140625 l 0.09277,-0.491211 c 0.219727,0.0415 0.449219,0.08984 0.685059,0.144532 l -0.113281,0.487304 z m -0.760254,-0.159179 c -0.239746,-0.04395 -0.465332,-0.08057 -0.671875,-0.11084 l 0.07324,-0.495117 c 0.211426,0.03125 0.443848,0.06885 0.689453,0.114746 l -0.09082,0.491211 z m -0.767578,-0.125 c -0.266114,-0.03711 -0.496094,-0.06396 -0.67627,-0.08301 l 0.05176,-0.49707 c 0.185059,0.01904 0.420898,0.04687 0.693848,0.08496 l -0.06934,0.495118 z"
           id="path41"
           inkscape:connector-curvature="0" /><path
           style="fill:#600606"
           d="m 44.361328,23.251953 c -0.07227,-0.08154 -0.148437,-0.160644 -0.228516,-0.238281 l 0.347657,-0.359375 c 0.08984,0.08643 0.175781,0.175293 0.255859,0.266601 l -0.375,0.331055 z"
           id="path43"
           inkscape:connector-curvature="0" /></g><g
         id="g45"><path
           style="fill:#600606"
           d="m 26.762207,44.366211 c -0.209961,-0.02344 -0.326172,-0.03027 -0.330078,-0.03027 l 0.02832,-0.5 c 0,0 0.125977,0.0078 0.358399,0.03418 l -0.05664,0.496094 z"
           id="path47"
           inkscape:connector-curvature="0" /><path
           style="fill:#600606"
           d="M 43.211914,58.336914 C 43.166992,58.161133 43.108398,57.9375 43.02832,57.673828 l 0.478516,-0.144531 c 0.08203,0.273437 0.144531,0.504883 0.189453,0.686523 l -0.484375,0.121094 z M 43,57.580078 c -0.0625,-0.198242 -0.134766,-0.417969 -0.217773,-0.655273 l 0.470703,-0.166016 c 0.08691,0.243164 0.161132,0.46875 0.223632,0.672852 L 43,57.580078 Z m -0.25,-0.74707 C 42.674805,56.628906 42.59375,56.413086 42.501953,56.1875 L 42.964844,56 c 0.09375,0.231445 0.178711,0.453125 0.253906,0.661133 L 42.75,56.833008 Z m -0.285156,-0.735352 c -0.08496,-0.203125 -0.176758,-0.416015 -0.276367,-0.634765 l 0.455078,-0.207032 c 0.101562,0.22461 0.195312,0.441407 0.282226,0.648438 l -0.460937,0.193359 z m -0.316407,-0.724609 c -0.09375,-0.202149 -0.194335,-0.40918 -0.301757,-0.621094 l 0.445312,-0.226562 c 0.111328,0.217773 0.213867,0.430664 0.30957,0.638671 l -0.453125,0.208985 z M 41.801758,54.665039 C 41.698242,54.46582 41.588867,54.262695 41.473633,54.055664 l 0.435547,-0.244141 c 0.11914,0.210938 0.230468,0.419922 0.335937,0.623047 l -0.443359,0.230469 z m -0.375977,-0.694336 c -0.112304,-0.194336 -0.229492,-0.393555 -0.353515,-0.594727 l 0.425781,-0.261718 c 0.125977,0.205078 0.24707,0.408203 0.361328,0.608398 l -0.433594,0.248047 z m -0.405273,-0.679687 c -0.119141,-0.191407 -0.245117,-0.38379 -0.376953,-0.577149 l 0.414062,-0.28125 c 0.135742,0.199219 0.263672,0.397461 0.386719,0.594727 l -0.423828,0.263672 z M 40.587891,52.632812 C 40.460937,52.446289 40.327148,52.258789 40.1875,52.071289 l 0.400391,-0.298828 C 40.731445,51.96582 40.869141,52.15918 41,52.349609 l -0.412109,0.283203 z M 40.126953,51.991211 C 39.991211,51.80957 39.849609,51.628906 39.702148,51.448242 l 0.388672,-0.316406 c 0.151367,0.186523 0.296875,0.373047 0.436524,0.560547 l -0.400391,0.298828 z M 39.639648,51.371094 C 39.496094,51.196289 39.34668,51.020508 39.192383,50.84668 l 0.373047,-0.332032 c 0.160156,0.179688 0.313476,0.359375 0.460937,0.540039 l -0.386719,0.316407 z m -0.511718,-0.59668 c -0.152344,-0.168945 -0.309571,-0.337891 -0.47168,-0.505859 l 0.359375,-0.347657 c 0.166016,0.171875 0.327148,0.344727 0.483398,0.517579 L 39.12793,50.774414 Z M 38.586914,50.198242 C 38.427734,50.035156 38.264648,49.875 38.094727,49.714844 l 0.34375,-0.363281 c 0.173828,0.164062 0.342773,0.330078 0.505859,0.49707 l -0.357422,0.349609 z m -0.563477,-0.550781 c -0.165039,-0.155274 -0.336914,-0.308594 -0.512695,-0.460938 l 0.326172,-0.378906 c 0.181641,0.15625 0.357422,0.31543 0.52832,0.474609 l -0.341797,0.365235 z M 37.43457,49.121094 c -0.08105,-0.06934 -0.164062,-0.139649 -0.248047,-0.208985 -0.0957,-0.0791 -0.190429,-0.155273 -0.284179,-0.230468 l 0.310547,-0.390625 c 0.09766,0.07715 0.194335,0.155273 0.291015,0.235351 0.08691,0.07031 0.171875,0.142578 0.256836,0.21582 L 37.43457,49.121094 Z M 36.827148,48.62207 c -0.185547,-0.144531 -0.36914,-0.283203 -0.552734,-0.418945 l 0.296875,-0.402344 c 0.1875,0.137695 0.375,0.280274 0.5625,0.426758 l -0.306641,0.394531 z m -0.632812,-0.476562 c -0.1875,-0.136719 -0.376953,-0.268555 -0.56543,-0.396485 l 0.279297,-0.414062 c 0.194336,0.129883 0.387695,0.265625 0.581055,0.40625 l -0.294922,0.404297 z M 35.545898,47.694336 C 35.352539,47.563476 35.15918,47.439453 34.96582,47.320312 l 0.263672,-0.425781 c 0.198242,0.123047 0.396485,0.250977 0.595703,0.383789 l -0.279297,0.416016 z m -0.665039,-0.427734 c -0.198242,-0.123047 -0.396484,-0.239258 -0.59375,-0.350586 l 0.246094,-0.435547 c 0.203125,0.115234 0.407227,0.235351 0.611328,0.362305 l -0.263672,0.423828 z M 34.200195,46.867187 C 33.99707,46.75293 33.794922,46.642578 33.592773,46.538086 l 0.230469,-0.44336 c 0.206055,0.106446 0.414063,0.21875 0.623047,0.336915 l -0.246094,0.435546 z M 33.504883,46.493164 C 33.295898,46.385742 33.088867,46.283203 32.884766,46.1875 l 0.21289,-0.453125 c 0.209961,0.09961 0.420899,0.204102 0.635742,0.313477 l -0.228515,0.445312 z M 32.79541,46.144531 c -0.213379,-0.09961 -0.423828,-0.194336 -0.631348,-0.283203 l 0.19629,-0.458984 c 0.212402,0.09082 0.427734,0.1875 0.646484,0.289062 l -0.211426,0.453125 z m -0.723144,-0.320312 c -0.217286,-0.09277 -0.431153,-0.178711 -0.640625,-0.259766 l 0.179687,-0.466797 c 0.215332,0.08301 0.434082,0.170899 0.657227,0.265625 l -0.196289,0.460938 z M 31.339844,45.52832 c -0.222168,-0.08398 -0.439453,-0.162109 -0.651856,-0.235351 l 0.164063,-0.472657 c 0.216308,0.0752 0.438476,0.155274 0.664551,0.241211 l -0.176758,0.466797 z m -0.744141,-0.266601 c -0.226074,-0.07715 -0.446289,-0.147461 -0.65918,-0.211914 l 0.145508,-0.478516 c 0.217774,0.06641 0.442871,0.138672 0.673828,0.21582 l -0.160156,0.47461 z m -0.753906,-0.241211 c -0.230469,-0.06836 -0.453125,-0.129883 -0.666016,-0.185547 l 0.126953,-0.484375 c 0.217774,0.05762 0.445313,0.121094 0.681641,0.191406 l -0.142578,0.478516 z M 29.07959,44.810547 c -0.23584,-0.06152 -0.460449,-0.115235 -0.671387,-0.161133 l 0.107422,-0.488281 c 0.216797,0.04785 0.447266,0.101562 0.689941,0.165039 L 29.07959,44.810547 Z M 28.311035,44.62793 c -0.246582,-0.05371 -0.472656,-0.09668 -0.676758,-0.132813 l 0.08594,-0.492187 c 0.209961,0.03613 0.443848,0.08105 0.697265,0.136718 l -0.106445,0.488282 z m -0.774902,-0.149414 c -0.273438,-0.04687 -0.50293,-0.07813 -0.681153,-0.100586 l 0.06152,-0.496094 c 0.184082,0.02246 0.421387,0.05566 0.70459,0.104492 l -0.08496,0.492188 z"
           id="path49"
           inkscape:connector-curvature="0" /><path
           style="fill:#600606"
           d="m 43.308594,58.770508 c -9.77e-4,-0.0039 -0.02148,-0.118164 -0.06934,-0.322266 l 0.486328,-0.115234 c 0.05469,0.227539 0.0752,0.353515 0.0752,0.353515 l -0.492187,0.08398 z"
           id="path51"
           inkscape:connector-curvature="0" /></g><linearGradient
         id="SVGID_3_"
         gradientUnits="userSpaceOnUse"
         x1="25.696777"
         y1="-0.056640599"
         x2="28.612774"
         y2="12.026821"><stop
           offset="0"
           style="stop-color:#292929"
           id="stop54" /><stop
           offset="0.8425525"
           style="stop-color:#070707"
           id="stop56" /><stop
           offset="1"
           style="stop-color:#000000"
           id="stop58" /></linearGradient><path
         style="fill:url(#SVGID_3_)"
         d="m 24.958008,12.237305 c 0,0 2.487304,-2.8510745 5.821289,-3.3510745 0,0 0.431641,-4.3969727 -1.033203,-5.7402344 -1.466797,-1.3432617 -3.970703,0.5878906 -4.049805,1.6567383 -0.0791,1.0688477 -0.738281,7.4345706 -0.738281,7.4345706 z"
         id="path60"
         inkscape:connector-curvature="0" /><linearGradient
         id="SVGID_4_"
         gradientUnits="userSpaceOnUse"
         x1="13.197754"
         y1="18.315918"
         x2="27.26606"
         y2="28.90922"><stop
           offset="0"
           style="stop-color:#292929"
           id="stop63" /><stop
           offset="0.8425525"
           style="stop-color:#070707"
           id="stop65" /><stop
           offset="1"
           style="stop-color:#000000"
           id="stop67" /></linearGradient><path
         style="fill:url(#SVGID_4_)"
         d="m 15.970703,15.552734 c 0,0 1.850586,-2.034179 3.753906,-0.642089 1.905274,1.392089 3.712891,6.027832 3.712891,6.027832 l 0.697266,1.24121 c 0,0 0.295898,12.605469 2.05371,14.238282 l -5.768554,-5.910645 -2.59961,-10.333008 -1.849609,-4.621582 z"
         id="path69"
         inkscape:connector-curvature="0" /><linearGradient
         id="SVGID_5_"
         gradientUnits="userSpaceOnUse"
         x1="32.262695"
         y1="36.895508"
         x2="29.955082"
         y2="46.684864"><stop
           offset="0"
           style="stop-color:#DF0000"
           id="stop72" /><stop
           offset="0.2527558"
           style="stop-color:#BD0002"
           id="stop74" /><stop
           offset="0.8086758"
           style="stop-color:#660007"
           id="stop76" /><stop
           offset="1"
           style="stop-color:#470009"
           id="stop78" /></linearGradient><path
         style="opacity:0.49000005;fill:url(#SVGID_5_)"
         d="m 26.446289,44.46875 c 0,0 6.741211,0.404297 6.741211,5.25 0,3.583984 -3.603516,-4.917969 -6.618164,-4.5 l -0.123047,-0.75 z"
         id="path80"
         inkscape:connector-curvature="0" /><linearGradient
         id="SVGID_6_"
         gradientUnits="userSpaceOnUse"
         x1="37.387695"
         y1="25.112793"
         x2="38.887203"
         y2="30.111166"><stop
           offset="0"
           style="stop-color:#DF0000"
           id="stop83" /><stop
           offset="0.2527558"
           style="stop-color:#BD0002"
           id="stop85" /><stop
           offset="0.8086758"
           style="stop-color:#660007"
           id="stop87" /><stop
           offset="1"
           style="stop-color:#470009"
           id="stop89" /></linearGradient><path
         style="opacity:0.49000005;fill:url(#SVGID_6_)"
         d="m 33.804687,28.469727 c 0,0 6.079102,0.25 8.123047,-0.333497 2.043946,-0.583496 0.776368,1.390137 -2.790039,1.583497 -3.566406,0.193359 -5.333008,-1.25 -5.333008,-1.25 z"
         id="path91"
         inkscape:connector-curvature="0" /><path
         style="fill:#d8d8d8"
         d="m 25.148437,10.736328 c -0.09668,0 -0.192382,-0.04004 -0.261718,-0.117676 -0.128418,-0.144531 -0.115235,-0.365722 0.0293,-0.49414 0.133789,-0.118653 3.306152,-2.9140628 5.671875,-3.0874026 0.179199,-0.010254 0.360351,0.1303711 0.374511,0.3237305 0.01416,0.1923828 -0.130859,0.3603516 -0.32373,0.3745117 -2.131348,0.1557617 -5.226563,2.8852544 -5.257813,2.9125974 -0.06689,0.05908 -0.149414,0.08838 -0.232422,0.08838 z"
         id="path93"
         inkscape:connector-curvature="0" /><g
         id="g95"><polygon
           style="fill:#600606"
           points="43.967773,27.137695 44.308594,27.058594 44.417969,27.546875 44.083008,27.624023 "
           id="polygon97" /><path
           style="fill:#600606"
           d="m 27.947266,38.136719 -0.104493,-0.488282 c 0.184082,-0.04004 0.416993,-0.09375 0.683594,-0.160156 l 0.121094,0.484375 C 28.375,38.041016 28.13623,38.09668 27.947266,38.136719 Z m 0.799804,-0.188477 -0.123047,-0.484375 c 0.21045,-0.05371 0.439942,-0.114258 0.680176,-0.18164 l 0.135742,0.480468 c -0.245117,0.06934 -0.478515,0.131836 -0.692871,0.185547 z m 0.791016,-0.213867 -0.136719,-0.480469 c 0.216797,-0.06152 0.442383,-0.129883 0.670898,-0.204101 l 0.154297,0.474609 c -0.234375,0.07617 -0.46582,0.146484 -0.688476,0.209961 z m 0.786133,-0.241211 -0.15625,-0.474609 c 0.219238,-0.07227 0.440918,-0.149414 0.660156,-0.232422 l 0.176758,0.46875 c -0.226074,0.08496 -0.45459,0.164062 -0.680664,0.238281 z m 0.775879,-0.274414 -0.177735,-0.466797 c 0.218262,-0.08301 0.434082,-0.172852 0.642578,-0.265625 l 0.205079,0.455078 c -0.217286,0.09863 -0.441895,0.19043 -0.669922,0.277344 z m 0.764648,-0.320313 -0.209961,-0.453125 c 0.214844,-0.09961 0.421387,-0.204101 0.61377,-0.313476 l 0.248047,0.433594 c -0.204102,0.117187 -0.42334,0.227539 -0.651856,0.333007 z m 0.742676,-0.384765 -0.253906,-0.431641 c 0.20996,-0.123047 0.395996,-0.250976 0.552246,-0.379883 l 0.317871,0.386719 c -0.176758,0.144531 -0.384277,0.288086 -0.616211,0.424805 z m 0.699219,-0.496094 -0.328614,-0.376953 c 0.17041,-0.148438 0.325684,-0.303711 0.476074,-0.476563 l 0.376954,0.328125 c -0.165039,0.19043 -0.336914,0.362305 -0.524414,0.525391 z m 0.59375,-0.606445 -0.384766,-0.320313 c 0.146484,-0.174804 0.27832,-0.357422 0.40332,-0.546875 l 0.417969,0.273438 c -0.142578,0.21875 -0.286133,0.412109 -0.436523,0.59375 z m 0.493164,-0.681641 -0.421875,-0.267578 c 0.121093,-0.192383 0.236328,-0.390625 0.351562,-0.598633 l 0.4375,0.242188 c -0.11914,0.21582 -0.240234,0.423828 -0.367187,0.624023 z m 0.416992,-0.716797 -0.439453,-0.236328 c 0.107422,-0.201172 0.216797,-0.40918 0.329101,-0.625 l 0.44336,0.232422 c -0.114258,0.217773 -0.223633,0.427734 -0.333008,0.628906 z m 0.394531,-0.746093 -0.457031,-0.205079 c 0.116211,-0.221191 0.22168,-0.421875 0.333984,-0.629394 l 0.439453,0.238281 c -0.111328,0.205567 -0.21582,0.403809 -0.316406,0.596192 z m 0.364258,-0.684571 -0.439453,-0.239258 c 0.110351,-0.20166 0.227539,-0.410156 0.355469,-0.625 l 0.429687,0.25586 c -0.124023,0.208984 -0.239258,0.411621 -0.345703,0.608398 z m 0.398437,-0.695312 -0.429687,-0.256836 c 0.118164,-0.197266 0.245117,-0.400391 0.382812,-0.609863 l 0.417969,0.27539 c -0.133789,0.202637 -0.256836,0.399902 -0.371094,0.591309 z m 0.425782,-0.674805 -0.416016,-0.277344 c 0.12793,-0.191894 0.264648,-0.388672 0.412109,-0.590332 l 0.404297,0.294922 c -0.143554,0.195801 -0.276367,0.386719 -0.40039,0.572754 z m 0.458984,-0.652344 -0.400391,-0.298828 c 0.116211,-0.156738 0.239258,-0.316894 0.369141,-0.47998 0.0293,-0.03613 0.05859,-0.06934 0.09082,-0.103028 l 0.357422,0.350586 c -0.02246,0.02197 -0.04199,0.04443 -0.05957,0.06641 -0.124024,0.155761 -0.243164,0.312011 -0.357422,0.464843 z M 37.330078,29.971191 37,29.596191 c 0.155273,-0.136718 0.370117,-0.278808 0.638672,-0.422851 L 37.875,29.613769 c -0.235352,0.126465 -0.418945,0.246583 -0.544922,0.357422 z m 0.630859,-0.402343 -0.228515,-0.444336 c 0.199219,-0.103028 0.421875,-0.205078 0.663086,-0.306641 l 0.193359,0.460938 c -0.227539,0.0957 -0.438476,0.192871 -0.62793,0.290039 z m 0.719727,-0.328614 -0.189453,-0.461914 c 0.212891,-0.08789 0.438477,-0.174804 0.671875,-0.259765 l 0.171875,0.469726 c -0.227539,0.08301 -0.447266,0.166992 -0.654297,0.251953 z m 0.74707,-0.285644 -0.167968,-0.470703 c 0.220703,-0.0791 0.448242,-0.156739 0.67871,-0.232422 l 0.15625,0.474609 c -0.226562,0.07471 -0.450195,0.151367 -0.666992,0.228516 z m 0.761719,-0.259766 -0.154297,-0.475586 c 0.225586,-0.07373 0.455078,-0.145019 0.683594,-0.213867 l 0.144531,0.478516 c -0.224609,0.06787 -0.450195,0.138183 -0.673828,0.210937 z m 0.771484,-0.239746 -0.144531,-0.478516 c 0.231445,-0.06934 0.460938,-0.13623 0.685547,-0.200195 l 0.136719,0.481445 c -0.222656,0.06299 -0.450195,0.128907 -0.677735,0.197266 z m 0.774415,-0.225098 -0.134766,-0.481445 c 0.237305,-0.06641 0.467773,-0.129394 0.688477,-0.188476 l 0.128906,0.483398 c -0.21875,0.05811 -0.447266,0.121094 -0.682617,0.186523 z m 0.780273,-0.212402 -0.128906,-0.483398 c 0.246093,-0.06543 0.479492,-0.125489 0.692382,-0.179199 l 0.121094,0.485351 c -0.210937,0.05273 -0.440429,0.111816 -0.68457,0.177246 z m 0.783203,-0.202148 -0.121094,-0.485352 c 0.273438,-0.06787 0.509766,-0.125488 0.69336,-0.169434 l 0.117187,0.486329 c -0.183594,0.04395 -0.417969,0.100586 -0.689453,0.168457 z"
           id="path99"
           inkscape:connector-curvature="0" /><path
           style="fill:#600606"
           d="m 27.492187,38.232422 -0.0918,-0.492188 c 0.0015,0 0.124023,-0.02344 0.333007,-0.06738 l 0.104493,0.488281 c -0.218262,0.04687 -0.345704,0.07129 -0.345704,0.07129 z"
           id="path101"
           inkscape:connector-curvature="0" /></g><linearGradient
         id="SVGID_7_"
         gradientUnits="userSpaceOnUse"
         x1="31.531738"
         y1="9.8510742"
         x2="33.781052"
         y2="20.180962"><stop
           offset="0"
           style="stop-color:#DF0000"
           id="stop104" /><stop
           offset="0.2527558"
           style="stop-color:#BD0002"
           id="stop106" /><stop
           offset="0.8086758"
           style="stop-color:#660007"
           id="stop108" /><stop
           offset="1"
           style="stop-color:#470009"
           id="stop110" /></linearGradient><path
         style="opacity:0.49000005;fill:url(#SVGID_7_)"
         d="m 27.613281,18.37793 c 0,0 0.744141,0.313964 2.553711,-0.636719 1.80957,-0.950684 2.506836,0.07373 4.089844,0 1.583008,-0.07373 4.666992,-0.220215 4.916992,0.686523 0.25,0.906738 -3.727539,1.253907 -6.442383,1.156739 -2.714843,-0.09717 -2.974609,0.686523 -2.974609,0.686523 L 27.613281,18.37793 Z"
         id="path112"
         inkscape:connector-curvature="0" /><path
         style="fill:#230202"
         d="m 30.946289,18.770508 c -0.258301,0 -0.467773,-0.209473 -0.467773,-0.467774 l 0,-3.333007 -0.33252,-11.0693364 c -0.0078,-0.2583008 0.194824,-0.4741211 0.453125,-0.4814453 0.246582,-0.027832 0.474121,0.1948242 0.481445,0.453125 l 0.333008,11.0834957 4.89e-4,3.347168 c -10e-7,0.258301 -0.209473,0.467774 -0.467774,0.467774 z"
         id="path114"
         inkscape:connector-curvature="0" /><path
         style="fill:#230202"
         d="m 36.613281,19.270508 c -0.246094,0 -0.452148,-0.191407 -0.466797,-0.439453 L 35.729492,11.914551 35.313477,7.4291992 c -0.02344,-0.2568359 0.165039,-0.4848633 0.422851,-0.5087891 0.25293,-0.026367 0.485352,0.1650391 0.508789,0.4228516 l 0.416992,4.5000003 0.417969,6.931152 c 0.01563,0.257812 -0.180664,0.479492 -0.438476,0.495117 -0.0098,4.88e-4 -0.01953,9.77e-4 -0.02832,9.77e-4 z"
         id="path116"
         inkscape:connector-curvature="0" /><path
         style="fill:#230202"
         d="m 41.927734,19.970703 c -0.214843,0 -0.408203,-0.148926 -0.457031,-0.367187 -0.07227,-0.32959 -0.709961,-3.239747 -0.740234,-3.946289 -0.06543,-1.450196 -0.327149,-3.217774 -0.330078,-3.23584 -0.03809,-0.255371 0.138671,-0.493164 0.393554,-0.53125 0.253907,-0.03418 0.494141,0.137207 0.532227,0.393554 0.01074,0.07373 0.271484,1.833497 0.337891,3.332032 0.02344,0.530273 0.52832,2.913086 0.720703,3.786621 0.05566,0.252441 -0.104493,0.501953 -0.356446,0.557129 -0.03418,0.0078 -0.06738,0.01123 -0.100586,0.01123 z"
         id="path118"
         inkscape:connector-curvature="0" /><g
         id="g120"><linearGradient
           id="SVGID_8_"
           gradientUnits="userSpaceOnUse"
           x1="26.984375"
           y1="31.244629"
           x2="39.233673"
           y2="15.745511"><stop
             offset="0"
             style="stop-color:#292929"
             id="stop123" /><stop
             offset="0.8425525"
             style="stop-color:#070707"
             id="stop125" /><stop
             offset="1"
             style="stop-color:#000000"
             id="stop127" /></linearGradient><path
           style="fill:url(#SVGID_8_)"
           d="m 24.544922,17.376465 c 0,0 3.484375,0.676269 4.568359,1.426269 1.083008,0.75 1.833008,1.5 4.083008,1.5 2.25,0 5.083984,0.833985 6.166992,1.166992 1.083008,0.333008 4.121094,1.330567 5.185547,2.748536 l -0.07129,1.848144 c 0,0 -3.959961,0.819336 -6.204102,1.486328 -2.24414,0.666993 -4.24121,4.89209 -5.492187,6.986328 C 31.529297,36.634766 26.519531,37.25 26.519531,37.25 c 0,0 -2.073242,-4.612793 -2.323242,-11.280273 -0.25,-6.666993 0.348633,-8.593262 0.348633,-8.593262 z"
           id="path129"
           inkscape:connector-curvature="0" /><path
           style="fill:#230202"
           d="m 26.519531,37.717773 c -0.182617,0 -0.350586,-0.106445 -0.426758,-0.276367 -0.08594,-0.191406 -2.113281,-4.772461 -2.363769,-11.454101 -0.25,-6.670411 0.34375,-8.667969 0.36914,-8.749512 0.07129,-0.228027 0.299805,-0.366699 0.536133,-0.320313 0.366211,0.0708 3.613282,0.717286 4.745117,1.500489 l 0.372071,0.26416 c 0.896972,0.644043 1.605957,1.152832 3.444824,1.152832 1.597656,0 3.777344,0.410644 6.304687,1.1875 1.917969,0.589844 4.416016,1.574707 5.421875,2.915039 0.06445,0.08594 0.09766,0.191406 0.09375,0.298828 l -0.07129,1.848145 c -0.0088,0.214844 -0.162109,0.396484 -0.373047,0.439941 -0.03906,0.0083 -3.966796,0.823242 -6.166015,1.476563 -1.6875,0.501464 -3.397461,3.548828 -4.530274,5.565429 -0.25,0.446289 -0.482421,0.859375 -0.693359,1.212891 -1.353516,2.265625 -6.39209,2.908203 -6.605957,2.93457 -0.01904,0.0029 -0.03857,0.0039 -0.05713,0.0039 z m -1.614258,-19.78955 c -0.149414,0.859375 -0.423339,3.178711 -0.241699,8.023925 0.207031,5.517579 1.691895,9.636719 2.148926,10.78418 1.533203,-0.238281 4.710449,-1.00293 5.567383,-2.4375 0.207031,-0.34668 0.43457,-0.751953 0.680664,-1.19043 1.27832,-2.276367 3.02832,-5.394531 5.080078,-6.003906 1.867187,-0.555176 4.852539,-1.202637 5.883789,-1.420898 L 44.075195,24.375 c -0.732422,-0.850098 -2.442383,-1.718262 -4.849609,-2.458008 -3.081055,-0.947754 -4.979492,-1.146484 -6.029297,-1.146484 -2.140137,0 -3.039063,-0.645508 -3.990234,-1.328614 l -0.358887,-0.254882 c -0.714844,-0.494141 -2.791504,-1.011719 -3.941895,-1.258789 z"
           id="path131"
           inkscape:connector-curvature="0" /></g><path
         style="fill:#d8d8d8"
         d="m 25.804199,36.068359 c -0.174805,0 -0.326172,-0.130859 -0.347168,-0.308593 -0.02246,-0.191407 0.114746,-0.366211 0.306641,-0.388672 1.325683,-0.157227 4.905761,-0.819336 5.540039,-1.985352 0.06982,-0.12793 0.153809,-0.296875 0.253906,-0.499023 1.028809,-2.068848 4.032227,-8.109375 11.236328,-8.442871 -2.582031,-1.173828 -7.249023,-2.532715 -8.922851,-2.213868 -2.240723,0.426758 -4.872071,-0.966796 -5.833008,-2.097168 -0.606934,-0.713867 -2.904297,-1.053222 -3.738281,-1.124023 -0.192872,-0.01611 -0.335938,-0.185547 -0.319336,-0.37793 0.01611,-0.192382 0.191406,-0.341308 0.377929,-0.319336 0.336426,0.02832 3.3125,0.308594 4.212891,1.368165 0.749023,0.881835 3.124023,2.259765 5.166992,1.862793 2.355469,-0.451172 8.806641,1.748046 10.674805,2.967285 0.132812,0.08643 0.19043,0.251465 0.140625,0.402344 -0.04883,0.15039 -0.22461,0.235839 -0.351563,0.240234 -7.798828,-0.449707 -10.863281,5.723633 -12.017578,8.045898 -0.10498,0.210938 -0.192871,0.387696 -0.265625,0.521485 -0.92041,1.692383 -5.54834,2.284179 -6.073242,2.346679 -0.01367,0.002 -0.02783,0.002 -0.0415,0.002 z"
         id="path133"
         inkscape:connector-curvature="0" /><g
         id="g135"><linearGradient
           id="SVGID_9_"
           gradientUnits="userSpaceOnUse"
           x1="31.958496"
           y1="28.159668"
           x2="42.124134"
           y2="53.075275"><stop
             offset="0"
             style="stop-color:#292929"
             id="stop138" /><stop
             offset="0.8425525"
             style="stop-color:#070707"
             id="stop140" /><stop
             offset="1"
             style="stop-color:#000000"
             id="stop142" /></linearGradient><path
           style="fill:url(#SVGID_9_)"
           d="m 27.446289,38.552734 c 0,0 3.791016,-0.08398 6.895508,-2.083984 3.104492,-2 9.271484,-3.499512 10.271484,-4.916016 0,0 -2.504883,10.117188 -0.87207,13.828125 1.632812,3.708985 3.852539,9.083985 3.487305,12.251953 l 0.800781,1.335938 -1.666016,1.333984 -1.426757,-0.412109 -0.387696,-1.837891 c 0,0 -2.436523,-12.833984 -17.852539,-15.167968 0,0 -0.583008,-1.166016 0.75,-4.332032 z"
           id="path144"
           inkscape:connector-curvature="0" /><path
           style="fill:#230202"
           d="m 46.363281,60.770508 c -0.04297,0 -0.08691,-0.0059 -0.129883,-0.01855 L 44.806641,60.339844 C 44.640625,60.291992 44.514648,60.15625 44.478516,59.987305 L 44.09082,58.149414 C 44.06543,58.015625 41.516602,45.601562 26.626465,43.347656 c -0.150391,-0.02344 -0.280273,-0.118164 -0.348633,-0.253906 -0.06934,-0.138672 -0.63916,-1.452149 0.737305,-4.722656 0.07178,-0.169922 0.236328,-0.28125 0.42041,-0.286133 0.03662,-9.77e-4 3.70166,-0.108399 6.65332,-2.009766 1.490235,-0.959961 3.675782,-1.810547 5.603516,-2.561523 2.009766,-0.782227 4.087891,-1.591309 4.539062,-2.230469 0.129883,-0.184082 0.372071,-0.248535 0.576172,-0.155762 0.205078,0.09326 0.313477,0.319336 0.259766,0.537598 -0.02441,0.09961 -2.448242,10.004883 -0.898438,13.527344 1.913086,4.344726 3.820313,9.191406 3.541016,12.333008 l 0.720703,1.203125 c 0.120117,0.200195 0.07324,0.458984 -0.109375,0.605468 l -1.666015,1.333985 c -0.08398,0.06738 -0.187501,0.102539 -0.291993,0.102539 z m -1.027344,-1.250977 0.923829,0.266602 1.158203,-0.926758 -0.590821,-0.986328 c -0.05273,-0.08789 -0.0752,-0.191406 -0.06348,-0.293945 0.33789,-2.929688 -1.666016,-7.957032 -3.450195,-12.009766 -1.338868,-3.041992 -0.06934,-9.957031 0.551757,-12.841308 -0.87207,0.492675 -2.15625,1.004394 -3.833007,1.657714 -1.886719,0.734375 -4.025391,1.566407 -5.4375,2.476563 -2.69629,1.736328 -5.839356,2.077148 -6.828614,2.142578 -0.788086,1.967773 -0.763672,3.040039 -0.697265,3.464844 15.29541,2.478515 17.91455,15.365234 17.939941,15.496094 l 0.327148,1.55371 z"
           id="path146"
           inkscape:connector-curvature="0" /></g><path
         style="fill:#d8d8d8"
         d="m 46.363281,60.652344 c -0.170898,0 -0.320312,-0.124024 -0.345703,-0.297852 -0.01172,-0.07422 -1.179687,-7.548828 -5.421875,-12.576172 -4.213867,-4.99414 -14.07373,-5.711914 -14.172851,-5.717773 -0.192872,-0.01367 -0.338868,-0.180664 -0.325684,-0.373047 0.0127,-0.192383 0.177734,-0.321289 0.372559,-0.326172 0.416992,0.02832 10.257812,0.746094 14.661132,5.96582 4.372071,5.181641 5.53125,12.609375 5.578125,12.923828 0.0293,0.19043 -0.102539,0.369141 -0.293945,0.397461 -0.01758,0.0029 -0.03516,0.0039 -0.05176,0.0039 z"
         id="path148"
         inkscape:connector-curvature="0" /><g
         id="g150"><linearGradient
           id="SVGID_10_"
           gradientUnits="userSpaceOnUse"
           x1="34.180664"
           y1="55.060547"
           x2="36.645756"
           y2="61.102398"><stop
             offset="0"
             style="stop-color:#292929"
             id="stop153" /><stop
             offset="0.8425525"
             style="stop-color:#070707"
             id="stop155" /><stop
             offset="1"
             style="stop-color:#000000"
             id="stop157" /></linearGradient><path
           style="fill:url(#SVGID_10_)"
           d="m 27.810547,59.732422 c 0,0 3.798828,0.769531 7.048828,0.269531 3.25,-0.5 9.689453,-1.949219 9.689453,-1.949219 l 0.387695,1.837891 c 0,0 -0.374023,-0.519531 -1.890625,-0.05469 -1.516601,0.466797 -10.599609,3.298829 -15.432617,1.548829 l 0.197266,-1.652344 z"
           id="path159"
           inkscape:connector-curvature="0" /><path
           style="fill:#230202"
           d="m 31.509277,62.416992 c -1.604492,0 -2.96875,-0.199219 -4.055176,-0.592773 C 27.249512,61.75 27.123047,61.544922 27.148926,61.329102 l 0.197265,-1.652344 c 0.01563,-0.129883 0.08447,-0.24707 0.19043,-0.323242 0.10498,-0.07715 0.239746,-0.106446 0.366699,-0.0791 0.021,0.0039 2.150879,0.428711 4.530274,0.428711 0.857421,0 1.649414,-0.05469 2.354492,-0.163086 3.197265,-0.492188 9.59375,-1.928711 9.658203,-1.943359 0.124023,-0.02734 0.25,-0.0049 0.355469,0.0625 0.105468,0.06738 0.178711,0.174804 0.205078,0.296875 l 0.387695,1.83789 c 0.04492,0.216797 -0.06641,0.435547 -0.268555,0.524414 -0.201172,0.08984 -0.433593,0.02637 -0.564453,-0.148437 0.0088,0.01855 -0.108398,-0.05957 -0.414062,-0.05957 -0.265625,0 -0.590821,0.05762 -0.964844,0.172851 -4.549805,1.401367 -8.569336,2.133789 -11.67334,2.133789 z m -3.38623,-1.356445 c 0.925781,0.280273 2.0625,0.421875 3.38623,0.421875 2.100098,0 5.773926,-0.361328 11.349121,-2.078125 0.59375,-0.181641 1.064454,-0.245117 1.450196,-0.22461 l -0.120117,-0.567382 c -1.538086,0.34082 -6.535157,1.432617 -9.257813,1.851562 -0.751953,0.116211 -1.591797,0.174805 -2.49707,0.174805 -1.80127,0 -3.428711,-0.227539 -4.217285,-0.358398 l -0.09326,0.780273 z"
           id="path161"
           inkscape:connector-curvature="0" /></g><path
         style="fill:#d8d8d8"
         d="m 27.043945,39.980469 c -0.193359,0 -0.350097,-0.15625 -0.350097,-0.34961 0,-0.193359 0.156738,-0.349609 0.350097,-0.349609 6.810547,-0.0039 16.892578,-6.200195 16.993164,-6.262695 0.16504,-0.100098 0.38086,-0.05029 0.482422,0.113281 0.101563,0.165039 0.05078,0.379883 -0.113281,0.482422 -0.419922,0.259765 -10.353516,6.362304 -17.362305,6.366211 l 0,0 z"
         id="path163"
         inkscape:connector-curvature="0" /><g
         id="g165"><linearGradient
           id="SVGID_11_"
           gradientUnits="userSpaceOnUse"
           x1="24.058105"
           y1="27.520996"
           x2="26.977022"
           y2="28.224909"><stop
             offset="0"
             style="stop-color:#DF0000"
             id="stop168" /><stop
             offset="0.3857597"
             style="stop-color:#BD0003"
             id="stop170" /><stop
             offset="1"
             style="stop-color:#7F0009"
             id="stop172" /></linearGradient><path
           style="fill:url(#SVGID_11_)"
           d="m 24.134766,20.88623 c 0,0 -0.432618,9.641602 1.439453,13.652832 l -0.274414,-3.319335 c 0,0 -0.144532,-2.478028 0.888671,-3.905762 1.033204,-1.427734 -0.640624,-5.427735 -2.05371,-6.427735 z"
           id="path174"
           inkscape:connector-curvature="0" /><path
           style="fill:#230202"
           d="m 25.574219,35.006836 c -0.178223,0 -0.345703,-0.102539 -0.423828,-0.269531 -1.898926,-4.068848 -1.500489,-13.473633 -1.482911,-13.872071 0.0078,-0.170898 0.107911,-0.32373 0.261719,-0.398926 0.152832,-0.07617 0.336914,-0.06104 0.475586,0.03809 1.053223,0.745118 2.195801,2.901856 2.495117,4.709473 0.171387,1.033691 0.05957,1.83252 -0.332519,2.374512 -0.921387,1.272949 -0.801758,3.581543 -0.800781,3.604492 l 0.273925,3.308105 c 0.01855,0.225586 -0.127441,0.431641 -0.346191,0.490235 -0.04004,0.01074 -0.08057,0.01563 -0.120117,0.01563 z M 24.571777,22.019043 c -0.02881,1.631836 -0.02393,4.794434 0.324219,7.694336 0.103027,-0.852051 0.348145,-1.89209 0.913574,-2.673828 0.233399,-0.322266 0.292969,-0.916504 0.167481,-1.672852 -0.186524,-1.125488 -0.772461,-2.469238 -1.405274,-3.347656 z"
           id="path176"
           inkscape:connector-curvature="0" /></g><path
         style="fill:#230202"
         d="m 30.946289,14.052734 c 0,0 1.833008,6.150391 0,5.450196 -1.833008,-0.700196 0,-6.367188 0,-5.450196 z"
         id="path178"
         inkscape:connector-curvature="0" /><path
         style="fill:#230202"
         d="m 36.275391,10.386231 c 0,0 0.686523,7.499511 1.024414,7.916503 0.33789,0.416993 -1.212891,3.897461 -1.520508,-0.926269 -0.307617,-4.82373 0.496094,-6.990234 0.496094,-6.990234 z"
         id="path180"
         inkscape:connector-curvature="0" /><path
         style="fill:#230202"
         d="m 41.365234,16.755371 c 0,0 2.518555,3.630371 0.5625,3.797363 -1.956054,0.166993 -0.298828,-1.432129 -0.5625,-3.797363 z"
         id="path182"
         inkscape:connector-curvature="0" /><path
         style="fill:#230202"
         d="m 31.554687,62.280273 c -1.230468,0 -2.937988,-0.07813 -4.085937,-0.450195 -0.212402,-0.06934 -0.34668,-0.279297 -0.319824,-0.500977 l 0.241699,-2.011718 C 27.199219,58.265625 25.338379,47.849609 25.956543,44.52832 c -0.647461,-1.558594 0.546875,-4.860351 0.950195,-5.886719 -0.904297,-1.055664 -4.88623,-5.694824 -6.487793,-7.369628 -1.609863,-1.682618 -2.07373,-5.344727 -2.446777,-8.28711 -0.177246,-1.40039 -0.360352,-2.848633 -0.612305,-3.217773 l -1.815918,-4.022461 c -0.09863,-0.220215 -0.01367,-0.479981 0.196289,-0.598633 l 1.729981,-0.980469 c 0.06543,-0.05469 0.149414,-0.102539 0.252441,-0.143066 l 0.07617,-0.04297 c 0.09033,-0.05127 0.187988,-0.06885 0.28418,-0.05811 0.125488,-0.02295 0.274414,-0.03955 0.442871,-0.03955 1.018066,0 2.970215,0.627929 4.606445,4.834961 0.213379,0.673828 0.475098,1.401855 0.713867,1.985351 0.07324,-0.980469 0.176758,-2.453125 0.300293,-4.428711 0.139649,-2.236328 0.428223,-4.926757 0.682618,-7.3002927 0.195312,-1.8208008 0.363769,-3.3930664 0.399902,-4.1914063 0.06494,-1.4370117 1.791016,-2.3261719 3.352539,-2.3261719 0.74707,0 1.392578,0.1967773 1.868164,0.5556641 0.236817,-0.4453125 0.645996,-0.965332 1.328614,-1.2280273 0.336425,-0.1293945 0.771972,-0.2006836 1.226562,-0.2006836 1.512695,0 3.101563,0.777832 3.240234,2.5161133 l 0.002,2.7548828 c 0.720703,-0.059082 2.077148,-0.052246 3.356445,0.715332 1.633789,0.9799805 1.743164,3.8759766 1.733398,4.8222656 0.807617,0.573731 3.418945,2.722656 3.494141,6.569336 -0.09473,0.770019 -0.181641,2.056641 -0.02441,2.527832 0.291992,0.874512 0.259765,3.886719 0.03027,5.794434 l 0.650391,3.09082 c 0.01855,0.08789 0.01074,0.179687 -0.02148,0.263672 l -0.390625,1.016113 -0.162109,2.594727 c -0.0059,0.09375 -0.04004,0.183593 -0.09766,0.257812 -0.01074,0.01563 -1.595703,2.325195 -0.580078,11.082031 l 2.133789,4.514649 c 0.0752,0.202148 1.419922,3.966797 1.140625,7.091797 l 0.920898,1.534179 c 0.120117,0.200196 0.07324,0.458985 -0.109375,0.605469 l -1.666016,1.333985 c -0.136718,0.108398 -0.324218,0.131835 -0.483398,0.06152 -0.01074,-0.0049 -1.083008,-0.477539 -2.389648,-0.477539 -0.75586,0 -1.441407,0.157226 -2.038086,0.46582 -1.633789,0.84668 -6.299805,1.5625 -10.189454,1.5625 z m -3.429199,-1.237304 c 0.819336,0.198242 1.992676,0.301758 3.429199,0.301758 3.701172,0 8.261719,-0.680665 9.759766,-1.457032 0.730469,-0.378906 1.560547,-0.571289 2.467773,-0.571289 1.110352,0 2.054688,0.288086 2.500977,0.451172 l 1.134766,-0.908203 -0.790039,-1.316406 c -0.05176,-0.08691 -0.07422,-0.189453 -0.06348,-0.290039 C 46.881836,54.314453 45.520508,50.5 45.506836,50.461914 l -2.150391,-4.542969 c -0.02148,-0.0459 -0.03613,-0.0957 -0.04199,-0.145508 -0.964844,-8.235351 0.307617,-11.081054 0.672852,-11.704101 l 0.159179,-2.545899 c 0.0029,-0.04736 0.0127,-0.09424 0.03027,-0.138183 l 0.366211,-0.95459 -0.637696,-3.031738 c -0.01074,-0.05078 -0.0127,-0.103028 -0.0059,-0.154297 0.253906,-2.030274 0.225586,-4.843262 0.02051,-5.460449 -0.276368,-0.828125 -0.04785,-2.667969 -0.02051,-2.875 -0.08105,-3.87793 -3.248047,-5.854004 -3.279297,-5.873536 -0.145508,-0.08887 -0.231445,-0.25 -0.223633,-0.42041 C 40.4375,11.672363 40.290039,9.0712889 39.123047,8.3706053 37.589844,7.4511717 35.882812,7.8417967 35.877929,7.8432615 35.734375,7.8740232 35.59375,7.8374021 35.485351,7.7495115 35.375976,7.6606443 35.311523,7.5273435 35.311523,7.3862302 l 0,-3.25 c -0.125,-1.5385742 -1.943359,-1.6181641 -2.30664,-1.6181641 -0.337891,0 -0.66211,0.050293 -0.890625,0.1381836 -0.822266,0.3164063 -1.040528,1.3139648 -1.042969,1.3237305 -0.04004,0.19043 -0.193359,0.3369143 -0.385254,0.3671878 -0.191406,0.026855 -0.382812,-0.061035 -0.479004,-0.2290039 -0.375,-0.65625 -1.261719,-0.7270508 -1.625488,-0.7270508 -1.113281,0 -2.379883,0.5883789 -2.417969,1.4326172 -0.0376,0.8271484 -0.207519,2.4130859 -0.404297,4.2490234 -0.253418,2.3637691 -0.540527,5.0429691 -0.679199,7.2592771 -0.247559,3.959961 -0.416016,5.90918 -0.417969,5.928223 -0.01221,0.142578 -0.08936,0.271973 -0.208984,0.350586 -0.120606,0.07813 -0.27002,0.09814 -0.404785,0.05273 -0.179688,-0.06006 -0.726074,-0.242187 -1.797852,-3.636719 -1.478027,-3.796875 -3.097656,-4.209961 -3.724609,-4.209961 -0.191407,0 -0.334473,0.03418 -0.411621,0.05859 l -0.02686,0.01563 c -0.01953,0.0166 -0.07129,0.0415 -0.104492,0.05518 l -1.411133,0.802734 1.601074,3.5625 c 0.320801,0.458008 0.479004,1.59375 0.727539,3.555665 0.336426,2.658203 0.797852,6.298339 2.194336,7.7583 1.821289,1.904297 6.658692,7.566895 6.707032,7.623536 0.114257,0.133789 0.144043,0.320312 0.07666,0.483398 -0.674805,1.626953 -1.549317,4.561523 -1.023438,5.508789 0.05615,0.101563 0.07275,0.219727 0.04736,0.332031 -0.695313,3.03711 1.399902,14.529297 1.420898,14.645508 0.0083,0.0459 0.0098,0.09277 0.0044,0.139649 l -0.202148,1.68457 z"
         id="path184"
         inkscape:connector-curvature="0" /><linearGradient
         id="SVGID_12_"
         gradientUnits="userSpaceOnUse"
         x1="38.5625"
         y1="40.075195"
         x2="49.146484"
         y2="40.408203"><stop
           offset="0"
           style="stop-color:#DF0000"
           id="stop187" /><stop
           offset="0.2939724"
           style="stop-color:#BD0002"
           id="stop189" /><stop
           offset="0.9411341"
           style="stop-color:#660008"
           id="stop191" /><stop
           offset="1"
           style="stop-color:#5E0009"
           id="stop193" /></linearGradient><path
         style="fill:url(#SVGID_12_)"
         d="m 44.231445,34.621094 -1.55957,0.347656 c 0,0 -6.224609,0.582031 -7.808594,0.5 -1.583984,-0.08398 -3.167969,2.75 -3.25,4 -0.08398,1.25 2.082031,3.416016 4.166016,3.666016 2.083984,0.25 8.452148,2.833984 8.452148,2.833984 0,0 0.797852,0.199219 0.547852,-0.966797 -0.25,-1.166016 -0.639649,-5.371094 0.04883,-9.283203 0.288086,-0.916016 -0.0293,-1.378906 -0.59668,-1.097656 z"
         id="path195"
         inkscape:connector-curvature="0" /><g
         id="g197"><rect
           x="44.446136"
           y="44.669235"
           transform="matrix(0.9257267,0.3781932,-0.3781932,0.9257267,20.30205,-13.53838)"
           style="fill:#600606"
           width="0.346012"
           height="0.49942371"
           id="rect199" /><path
           style="fill:#600606"
           d="m 44.277344,45.049805 -0.640625,-0.25586 0.183594,-0.464843 0.586914,0.234375 -0.129883,0.486328 z m -0.733399,-0.292969 -0.642578,-0.253906 0.183594,-0.464844 0.644531,0.253906 -0.185547,0.464844 z m -0.733398,-0.289063 -0.643555,-0.249023 0.179688,-0.466797 0.645507,0.250977 -0.18164,0.464843 z m -0.734375,-0.284179 -0.646485,-0.246094 0.177735,-0.466797 0.646484,0.246094 -0.177734,0.466797 z m -0.737305,-0.279297 -0.646484,-0.241211 0.173828,-0.46875 0.648437,0.241211 -0.175781,0.46875 z m -0.739258,-0.275391 -0.648437,-0.234375 0.167969,-0.470703 0.652343,0.236328 -0.171875,0.46875 z m -0.740234,-0.267578 -0.650391,-0.226562 0.16211,-0.472657 0.654297,0.228516 -0.166016,0.470703 z m -0.743164,-0.257812 c -0.223633,-0.0752 -0.441406,-0.148438 -0.652344,-0.214844 l 0.152344,-0.476563 c 0.21289,0.06836 0.43457,0.141602 0.660156,0.21875 l -0.160156,0.472657 z m -0.745117,-0.245118 c -0.229492,-0.07227 -0.449219,-0.139648 -0.65625,-0.199218 l 0.140625,-0.480469 c 0.208984,0.06152 0.432617,0.128906 0.666015,0.203125 l -0.15039,0.476562 z M 37.62207,42.631836 c -0.242187,-0.06738 -0.46289,-0.124024 -0.65625,-0.166016 l 0.105469,-0.488281 c 0.203125,0.04395 0.433594,0.102539 0.685547,0.173828 l -0.134766,0.480469 z m -0.748047,-0.18457 -0.159179,-0.02832 c -0.181641,-0.0293 -0.357422,-0.06543 -0.528321,-0.106445 l 0.117188,-0.486328 c 0.15918,0.03906 0.323242,0.07129 0.491211,0.09863 0.05664,0.0098 0.115234,0.01953 0.176758,0.03223 l -0.09766,0.490235 z m -0.787109,-0.15918 c -0.239258,-0.0625 -0.46582,-0.134766 -0.683594,-0.217774 l 0.177735,-0.466796 c 0.200195,0.0752 0.411132,0.143554 0.630859,0.200195 l -0.125,0.484375 z m -0.779297,-0.254883 c -0.226562,-0.09082 -0.445312,-0.194336 -0.652344,-0.308594 l 0.242188,-0.4375 c 0.188477,0.103516 0.388672,0.199219 0.595703,0.28125 l -0.185547,0.464844 z M 34.56543,41.674805 c -0.212891,-0.123047 -0.416016,-0.258789 -0.601563,-0.402344 l 0.306641,-0.394531 c 0.166992,0.128906 0.350586,0.251953 0.544922,0.363281 l -0.25,0.433594 z m -0.681641,-0.466797 c -0.189453,-0.152344 -0.369141,-0.31836 -0.532227,-0.494141 l 0.367188,-0.339844 c 0.146484,0.158203 0.307617,0.307618 0.477539,0.445313 l -0.3125,0.388672 z M 33.28125,40.636719 c -0.163086,-0.182617 -0.310547,-0.37793 -0.44043,-0.581055 l 0.421875,-0.269531 c 0.115235,0.18164 0.247071,0.355469 0.391602,0.518554 L 33.28125,40.636719 Z M 32.786133,39.966797 C 32.75,39.907227 32.71582,39.84668 32.683105,39.786133 l -0.04297,-0.08105 0.01904,-0.08887 c 0.03418,-0.15918 0.07861,-0.329102 0.135254,-0.503906 l 0.476074,0.154296 c -0.04102,0.125 -0.07422,0.247071 -0.101563,0.363282 0.01465,0.02637 0.0293,0.05176 0.04492,0.07715 l -0.427734,0.259766 z m 0.512695,-0.790039 -0.473144,-0.16211 c 0.08008,-0.233398 0.173828,-0.458007 0.278808,-0.667968 l 0.447266,0.224609 c -0.0957,0.189453 -0.180664,0.392578 -0.25293,0.605469 z m 0.296875,-0.689453 -0.443359,-0.232422 c 0.118164,-0.223633 0.249023,-0.430664 0.388672,-0.618164 l 0.40039,0.300781 c -0.125,0.165039 -0.241211,0.350586 -0.345703,0.549805 z m 0.401367,-0.623047 -0.390625,-0.310547 c 0.161133,-0.203125 0.336914,-0.381836 0.522461,-0.53125 l 0.3125,0.390625 c -0.15625,0.125 -0.305664,0.277344 -0.444336,0.451172 z m 0.514649,-0.506836 -0.298828,-0.400391 c 0.206054,-0.155273 0.429687,-0.27832 0.662109,-0.366211 l 0.177734,0.466797 c -0.189453,0.07227 -0.371093,0.172852 -0.541015,0.299805 z m 0.551758,-0.294922 -0.0039,-0.5 c 0.154297,-9.77e-4 0.390625,-0.0039 0.688477,-0.01074 l 0.01172,0.5 c -0.301758,0.0068 -0.540039,0.0098 -0.696289,0.01074 z m 0.794921,-0.0127 -0.01172,-0.5 0.690429,-0.01758 0.01367,0.5 -0.692383,0.01758 z m 0.791993,-0.02051 -0.01563,-0.5 0.691406,-0.02246 0.01563,0.5 -0.691406,0.02246 z m 0.791015,-0.02539 -0.01758,-0.5 0.689453,-0.02637 0.02148,0.5 -0.69336,0.02637 z m 0.791992,-0.03125 -0.02148,-0.5 0.689453,-0.03125 0.02344,0.5 -0.691407,0.03125 z M 39.023437,36.9375 39,36.4375 c 0.227539,-0.01074 0.457031,-0.02246 0.6875,-0.03613 l 0.0293,0.5 c -0.232422,0.01367 -0.463867,0.02539 -0.69336,0.03613 z m 0.791016,-0.04199 -0.02734,-0.5 c 0.229493,-0.0127 0.458985,-0.02539 0.6875,-0.04102 l 0.0332,0.498047 c -0.230468,0.01563 -0.461914,0.03027 -0.693359,0.04297 z m 0.791992,-0.04883 -0.0332,-0.498047 0.6875,-0.04883 0.03711,0.498047 -0.691407,0.04883 z m 0.791016,-0.05664 -0.03906,-0.498047 c 0.234375,-0.01855 0.463868,-0.03809 0.686524,-0.05859 l 0.04492,0.498047 c -0.22461,0.02051 -0.456055,0.04004 -0.692383,0.05859 z m 0.791992,-0.06836 -0.04687,-0.498047 c 0.236328,-0.02246 0.464844,-0.04492 0.681641,-0.07031 l 0.05859,0.496094 c -0.220703,0.02539 -0.453125,0.0498 -0.693359,0.07227 z m 0.791016,-0.08301 -0.05859,-0.496094 c 0.242187,-0.0293 0.46875,-0.05957 0.676758,-0.0918 l 0.07617,0.494141 c -0.213868,0.03223 -0.446289,0.06445 -0.694336,0.09375 z m 0.793945,-0.109375 -0.08008,-0.494141 c 0.251953,-0.04004 0.472656,-0.08398 0.655273,-0.130859 l 0.125,0.484375 c -0.194336,0.05078 -0.430664,0.09668 -0.700195,0.140625 z"
           id="path201"
           inkscape:connector-curvature="0" /><path
           style="fill:#600606"
           d="m 44.570312,36.362305 -0.136718,-0.480469 c 0.151367,-0.04297 0.235351,-0.0791 0.279297,-0.101563 l 0.230468,0.44336 c -0.0957,0.0498 -0.217773,0.09473 -0.373047,0.138672 z"
           id="path203"
           inkscape:connector-curvature="0" /></g><path
         style="fill:#230202"
         d="m 44.356445,46.449219 0,0 c -0.121094,0 -0.21289,-0.02051 -0.238281,-0.02637 -0.125977,-0.0459 -6.396484,-2.583985 -8.394531,-2.823243 -2.161133,-0.259765 -4.685059,-2.554687 -4.577149,-4.162109 0.08691,-1.323242 1.708496,-4.438477 3.647461,-4.438477 0.191407,0.0078 0.307617,0.0098 0.439453,0.0098 1.961914,0 7.340821,-0.500977 7.394532,-0.505859 l 1.451172,-0.327149 c 0.444335,-0.199219 0.879882,-0.102539 1.124023,0.231445 0.242187,0.329102 0.266602,0.831055 0.07129,1.452149 -0.673828,3.862305 -0.264648,7.986328 -0.03809,9.044922 0.116211,0.540039 0.0625,0.939453 -0.164062,1.21875 -0.169922,0.210937 -0.423829,0.326172 -0.715821,0.326172 z M 34.837891,35.935547 c -1.253907,0 -2.686524,2.472656 -2.757813,3.563476 -0.06348,0.944336 1.841797,2.941407 3.754883,3.170899 2.12207,0.254883 8.30957,2.758789 8.572265,2.865234 l -0.05078,-0.02148 c 0.0029,0 0.0059,0 0.0088,0 -0.0088,-0.01855 0.01563,-0.138672 -0.04297,-0.414063 -0.237305,-1.105468 -0.666993,-5.402343 0.04492,-9.461914 0.09863,-0.320312 0.107422,-0.512695 0.09668,-0.609375 -0.0078,0.0039 -0.01563,0.0078 -0.02441,0.01172 -0.03418,0.0166 -0.06934,0.0293 -0.106445,0.03711 l -1.559571,0.347657 c -0.301757,0.03223 -6.338867,0.596679 -7.93457,0.510742 0,0 0,0 -9.76e-4,0 z"
         id="path205"
         inkscape:connector-curvature="0" /></g></g></svg>