<?xml version="1.0" encoding="utf-8"?>
<!-- Generator: Adobe Illustrator 15.0.0, SVG Export Plug-In . SVG Version: 6.00 Build 0)  -->
<!DOCTYPE svg PUBLIC "-//W3C//DTD SVG 1.1//EN" "http://www.w3.org/Graphics/SVG/1.1/DTD/svg11.dtd">
<svg version="1.1" id="レイヤー_1" xmlns="http://www.w3.org/2000/svg" xmlns:xlink="http://www.w3.org/1999/xlink" x="0px"
	 y="0px" width="64px" height="64px" viewBox="0 0 64 64" style="enable-background:new 0 0 64 64;" xml:space="preserve">
<g>
	<path d="M31.4941406,62.6982422c-1.6308594,0-3.0224609-0.2050781-4.1362305-0.6083984l-0.4892578-0.7939453l0.2363281-1.9707031
		c-0.2275391-1.2578125-2.0136719-11.3398438-1.4404297-14.7666016c-0.2597656-0.6914063-0.2431641-1.6806641,0.0498047-3.0087891
		c0.1367188-0.6220703,0.3271484-1.2949219,0.565918-2.0009766l0.1381836-0.4003906
		c0.0610352-0.1708984,0.1171875-0.3222656,0.1655273-0.4501953c-1.0756836-1.2548828-4.8295898-5.6210938-6.3691406-7.230957
		c-1.6738281-1.75-2.144043-5.4604492-2.5219727-8.4418945l-0.0791016-0.6196289l-0.5083008-1.9985352l-1.8310547-4.5756836
		l0.1435547-0.7856445c0.0966797-0.1054688,0.9609375-1.0170898,2.2045898-1.2910156l0.0361328-0.0205078l0.0058594,0.0092773
		l0.0068359-0.0024414l0.0014648,0.0029297c0.0083008-0.0019531,0.0170898-0.003418,0.0258789-0.0053711l-0.0024414-0.0068359
		c0.1757813-0.0605469,0.4619141-0.1328125,0.8305664-0.1328125c1.331543,0,3.2563477,0.8701172,4.8686523,5.0151367
		c0.0073242,0.0219727,0.0595703,0.1845703,0.140625,0.4262695c0.0151367-0.1601563,0.0307617-0.3149414,0.0478516-0.4633789
		c0.0844727-0.7353516,0.1728516-1.1459961,0.2167969-1.3208008l0.0639648-1.0004883
		c0.0693359-1.1069336,0.1796875-2.4072266,0.347168-4.0927734l0.1757813-1.7148438
		c0.3222656-3.1494141,0.5214844-5.1748047,0.5605469-5.7011719c0.0332031-0.7387695,0.4833984-1.4272461,1.2661133-1.9165039
		C26.8813477,2.2827148,27.7592773,1.9375,28.5478516,1.9375c0.6035156,0,1.1567383,0.1972656,1.6083984,0.5712891
		c0.0693359,0.0332031,0.1362305,0.0688477,0.2016602,0.1069336c0.2739258-0.4208984,0.6923828-0.8544922,1.3188477-1.0957031
		c0.3676758-0.1416016,0.8393555-0.2197266,1.328125-0.2197266c1.6425781,0,3.3681641,0.8583984,3.5224609,2.7758789
		l0.0009766,2.4780273c0.7929688-0.0214844,2.0390625,0.0639648,3.2207031,0.7724609
		c1.6787109,1.0073242,1.8652344,3.8120117,1.8710938,4.921875c0.953125,0.7099609,3.4189453,2.9106445,3.4931641,6.706543
		l-0.0058594,0.1113281c-0.0917969,0.7050781-0.1660156,1.934082-0.0322266,2.3325195
		c0.0566406,0.1713867,0.1386719,0.4951172,0.1884766,1.3251953l-0.5078125,0.0537109l0.5097656-0.0292969
		c0.0253906,0.434082,0.0361328,0.9345703,0.0322266,1.4746094c-0.0058594,0.6411133-0.0302734,1.262207-0.0712891,1.8696289
		c-0.0283203,0.4208984-0.0615234,0.8144531-0.1035156,1.1767578l0.640625,3.0458984l-0.0341797,0.4233398l-0.375,0.9755859
		l-0.1435547,2.300293c0.0820313,0.0634766,0.15625,0.1386719,0.2197266,0.2255859
		c0.2070313,0.2822266,0.3945313,0.8066406,0.1132813,1.703125l-0.0166016,0.1523438L45.5683594,36.125
		c-0.0058594,0.0351563-0.5820313,3.5996094-0.0429688,8.4941406c0.0078125,0.0664063,0.0068359,0.1591797,0.0009766,0.2548828
		c0.1191406,0.5908203,0.0449219,1.0810547-0.234375,1.4267578c-0.0693359,0.0859375-0.1503906,0.1611328-0.2392578,0.2216797
		c0.1630859,0.3837891,0.328125,0.7773438,0.4931641,1.1796875l1.078125,2.2802734
		c0.0537109,0.1367188,0.6552734,1.8212891,0.9882813,3.8779297c0.3310547,1.4072266,0.4599609,2.6005859,0.3857422,3.5976563
		l0.6748047,1.125l-0.1748047,0.9716797l-1.6660156,1.3330078l-0.6767578,0.1357422l-1.421875-0.4101563
		c-0.4257813-0.0683594-0.9833984-0.1064453-1.5283203-0.0419922c-0.2685547,0.0839844-0.7226563,0.2216797-1.3027344,0.3876953
		c-1.1279297,0.5595703-3.3095703,1.0458984-5.9365234,1.3408203C34.3408203,62.5625,32.824707,62.6982422,31.4941406,62.6982422z
		 M28.4321289,60.8554688c1.7543945,0.46875,4.2553711,0.4550781,7.3305664-0.0410156
		c2.4570313-0.2773438,4.5712891-0.7373047,5.421875-1.1777344l0.2363281-0.0996094
		c0.6464844-0.1855469,1.1416016-0.3359375,1.3994141-0.4169922l0.1259766-0.0273438
		c0.7285156-0.0966797,1.4121094-0.0654297,2.1269531,0.0615234l1.1240234,0.3212891l0.8515625-0.6826172l-0.4638672-0.7744141
		l-0.1015625-0.4716797c0.0986328-0.8613281-0.015625-2.0039063-0.3417969-3.3955078
		c-0.3203125-1.9648438-0.8955078-3.5791016-0.9013672-3.5947266l-1.0664063-2.25
		c-0.3183594-0.7744141-0.6210938-1.4833984-0.9130859-2.1503906l0.8115234-0.8388672
		c-0.0048828-0.0419922-0.0126953-0.09375-0.0263672-0.1582031c-0.0302734-0.1425781-0.0224609-0.2695313-0.0166016-0.3720703
		C43.5,39.9316406,44.0048828,36.4082031,44.0800781,35.9287109l-0.0400391-0.0322266l0.0498047-0.3076172
		c0.1044922-0.3535156,0.1005859-0.5009766,0.0927734-0.5351563c0.0185547,0.0800781,0.1601563,0.2353516,0.3515625,0.2353516
		l-0.9882813-0.9726563c0.0605469-0.1367188,0.1162109-0.2451172,0.1630859-0.3300781l0.2041016-2.7026367L44.25,30.4072266
		l-0.6308594-3.1972656c0.0458984-0.3710938,0.0810547-0.7788086,0.109375-1.1943359
		c0.0410156-0.6015625,0.0634766-1.1923828,0.0683594-1.7578125c0.0048828-0.5493164-0.0058594-1.0166016-0.0292969-1.4223633
		l0.0058594-0.0043945l-0.0078125-0.0170898c-0.0410156-0.6938477-0.1025391-0.9052734-0.1142578-0.9404297
		c-0.2753906-0.8286133-0.0957031-2.487793-0.0390625-2.9428711c-0.1005859-3.7314453-3.0166016-5.578125-3.1416016-5.6552734
		l-0.3564453-0.6723633c0.0361328-0.8364258-0.0947266-3.3647461-1.1367188-3.9902344
		c-1.4257813-0.8554688-3.0332031-0.4941406-3.0419922-0.4931641l-0.90625-0.7333984v-3.25
		c-0.1044922-1.2685547-1.7050781-1.3359375-2.0244141-1.3359375c-0.3041992,0-0.5917969,0.043457-0.7890625,0.1191406
		c-0.6679688,0.2573242-0.8652344,1.1054688-0.8671875,1.1137695l-1.387207,0.2241211
		C29.8603516,4.0795898,29.6879883,3.9375,29.449707,3.8349609l-0.2099609-0.1357422
		c-0.5048828-0.4628906-1.3916016-0.269043-2.1557617,0.3500977c-0.2788086,0.1811523-0.6230469,0.4458008-0.6386719,0.7871094
		c-0.0522461,0.7138672-0.3364258,3.527832-0.5654297,5.7666016l-0.1743164,1.6933594
		c-0.1669922,1.6821289-0.2758789,2.965332-0.34375,4.0532227l-0.1005859,1.2490234v-0.0004883
		c0,0-0.0932617,0.3334961-0.1865234,1.1474609c-0.0708008,0.621582-0.1230469,1.3613281-0.1542969,2.1987305l-0.0380859,0.0180664
		c-0.0048828,0.1333008-0.0200195,0.559082-0.0302734,1.1713867l-1.4038086,0.3549805l-0.7939453-1.4858398
		c-0.3613281-0.9077148-0.6606445-1.8505859-0.6728516-1.890625c-1.4086914-3.6176758-2.8857422-4.0131836-3.4545898-4.0131836
		c-0.1757813,0-0.2973633,0.0356445-0.3413086,0.0507813l-0.0009766-0.0014648l-0.1831055,0.0595703
		c-0.4624023,0.0878906-0.8701172,0.3442383-1.1396484,0.5527344l1.6860352,4.2304688l0.5371094,2.1352539l0.0957031,0.7099609
		c0.3320313,2.6171875,0.7861328,6.2016602,2.1181641,7.59375c1.8266602,1.9106445,6.519043,7.402832,6.7177734,7.6352539
		l0.1230469,0.7734375c-0.0029297,0.0078125-0.1342773,0.3261719-0.3066406,0.8085938l-0.1289063,0.3730469
		c-0.2211914,0.6542969-0.4013672,1.2910156-0.5249023,1.8515625c-0.347168,1.5751953-0.1469727,2.1074219-0.0771484,2.2324219
		l0.0751953,0.53125c-0.565918,2.4736328,0.8359375,11.328125,1.4238281,14.53125l0.0068359,0.2255859L28.4321289,60.8554688z"/>
	<g>
		<linearGradient id="SVGID_1_" gradientUnits="userSpaceOnUse" x1="35.8115234" y1="33.7519531" x2="57.4780273" y2="42.3349648">
			<stop  offset="0" style="stop-color:#DF0000"/>
			<stop  offset="0.3857597" style="stop-color:#BD0003"/>
			<stop  offset="1" style="stop-color:#7F0009"/>
		</linearGradient>
		<path style="fill:url(#SVGID_1_);" d="M17.7460938,19.503418l-1.7753906-3.9506836l2.0585938-1.1665039
			c-1.2080078,0.7763672,2.03125-2.2773438,4.6669922,4.5c0,0,1,3.1669922,1.5,3.3334961
			c0,0,0.1669922-1.9169922,0.4169922-5.9169922s1-9.6669922,1.0830078-11.5s3.9169922-2.6665039,4.9169922-0.9165039
			c0,0,0.25-1.2495117,1.3330078-1.6665039s3.6660156-0.1669922,3.8330078,1.9165039v3.25
			c0,0,1.9179688-0.4165039,3.5839844,0.5834961s1.5,4.6665039,1.5,4.6665039s3.4169922,2.0834961,3.5,6.3334961
			c0,0-0.25,1.9165039,0,2.6665039s0.25,3.6665039,0,5.6665039l0.6660156,3.1669922l-0.4160156,1.0830078L44.4462891,34.21875
			c0,0-1.7509766,2.25-0.6669922,11.5l2.1669922,4.5839844c0,0,1.4160156,3.9160156,1.0830078,7l1,1.6660156l-1.6660156,1.3339844
			c0,0-2.5839844-1.1660156-4.8339844,0s-10.8339844,2.0820313-13.9160156,1.0820313l0.25-2.0820313
			c0,0-2.1416016-11.6679688-1.4169922-14.8339844c-0.8330078-1.5,1-5.9160156,1-5.9160156
			s-4.8564453-5.6870117-6.6894531-7.6040039C18.3789063,28.4633789,18.6035156,20.7607422,17.7460938,19.503418z"/>
		<g>
			<path style="fill:#600606;" d="M25.3344727,13.0874023l-0.3720703-0.3344727c0,0,0.0864258-0.0961914,0.2509766-0.2592773
				l0.3515625,0.3554688C25.4165039,12.9960938,25.3369141,13.0839844,25.3344727,13.0874023z"/>
			<path style="fill:#600606;" d="M25.6352539,12.7792969l-0.3486328-0.3583984
				c0.140625-0.137207,0.3266602-0.3110352,0.5537109-0.5073242l0.3271484,0.3779297
				C25.9492188,12.4799805,25.7709961,12.6469727,25.6352539,12.7792969z M26.2460938,12.2236328L25.921875,11.84375
				c0.1728516-0.1474609,0.3671875-0.3066406,0.581543-0.472168l0.3056641,0.3964844
				C26.6015625,11.9277344,26.4130859,12.0810547,26.2460938,12.2236328z M26.890625,11.7055664l-0.3017578-0.3984375
				c0.1884766-0.1430664,0.3920898-0.2900391,0.6083984-0.4375l0.28125,0.4140625
				C27.269043,11.425293,27.0732422,11.5673828,26.890625,11.7055664z M27.5644531,11.2250977l-0.2783203-0.4150391
				c0.2001953-0.1342773,0.4121094-0.2685547,0.6337891-0.4003906l0.2558594,0.4296875
				C27.9619141,10.9663086,27.7578125,11.0957031,27.5644531,11.2250977z M28.2646484,10.7871094l-0.2519531-0.4316406
				c0.2104492-0.1230469,0.4306641-0.2436523,0.6586914-0.3598633l0.2275391,0.4453125
				C28.6787109,10.5532227,28.4672852,10.6689453,28.2646484,10.7871094z M28.9902344,10.3950195l-0.2226563-0.4472656
				c0.2202148-0.1098633,0.4482422-0.2148438,0.6831055-0.3144531l0.1943359,0.4609375
				C29.4199219,10.1889648,29.2016602,10.2900391,28.9902344,10.3950195z M29.7402344,10.0537109l-0.1904297-0.4619141
				c0.2290039-0.0947266,0.4643555-0.1831055,0.7060547-0.2636719l0.1582031,0.4746094
				C30.1831055,9.8793945,29.9584961,9.9638672,29.7402344,10.0537109z"/>
			<path style="fill:#600606;" d="M30.5200195,9.7675781l-0.1533203-0.4755859
				c0.1137695-0.0366211,0.2280273-0.0717773,0.3442383-0.1044922l0.1367188,0.4804688
				C30.7373047,9.699707,30.6279297,9.7329102,30.5200195,9.7675781z"/>
		</g>
		<linearGradient id="SVGID_2_" gradientUnits="userSpaceOnUse" x1="40.5214844" y1="47.9755859" x2="39.8440361" y2="50.8494568">
			<stop  offset="0" style="stop-color:#DF0000"/>
			<stop  offset="0.2527558" style="stop-color:#BD0002"/>
			<stop  offset="0.8086758" style="stop-color:#660007"/>
			<stop  offset="1" style="stop-color:#470009"/>
		</linearGradient>
		<path style="opacity:0.49;fill:url(#SVGID_2_);" d="M40.3876953,50.6015625c0,0-2.6757813-1.0332031-3.0878906,0
			s4.0166016,0.5136719,4.6279297,1.5039063S41.4707031,50.4863281,40.3876953,50.6015625z"/>
		<g>
			<path style="fill:#600606;" d="M24.9345703,16.8642578c-0.2109375-0.0209961-0.3330078-0.0283203-0.3359375-0.0283203
				l0.0292969-0.4990234c0,0,0.1293945,0.0073242,0.3554688,0.0292969L24.9345703,16.8642578z"/>
			<path style="fill:#600606;" d="M44.0556641,22.9423828c-0.1542969-0.1416016-0.3271484-0.2802734-0.5126953-0.4116211
				l0.2890625-0.4082031c0.203125,0.144043,0.3916016,0.2954102,0.5615234,0.4506836L44.0556641,22.9423828z M43.4648438,22.4760742
				c-0.1796875-0.1230469-0.3691406-0.2397461-0.5664063-0.3500977l0.2441406-0.4365234
				c0.2109375,0.1181641,0.4140625,0.2426758,0.6054688,0.3745117L43.4648438,22.4760742z M42.8154297,22.0800781
				c-0.1953125-0.105957-0.3964844-0.2060547-0.6025391-0.3012695l0.2109375-0.4541016
				c0.2158203,0.1000977,0.4267578,0.2050781,0.6298828,0.315918L42.8154297,22.0800781z M42.1259766,21.7387695
				c-0.2041016-0.0922852-0.4140625-0.1796875-0.625-0.2626953l0.1835938-0.465332
				c0.21875,0.0864258,0.4345703,0.1767578,0.6464844,0.2719727L42.1259766,21.7387695z M41.4111328,21.4414063
				c-0.2109375-0.081543-0.4248047-0.1586914-0.6396484-0.2314453l0.1621094-0.4736328
				c0.2207031,0.0756836,0.4404297,0.1547852,0.6572266,0.2382813L41.4111328,21.4414063z M40.6787109,21.1782227
				c-0.2167969-0.0727539-0.4335938-0.1420898-0.6494141-0.2084961l0.1464844-0.4775391
				c0.2197266,0.0673828,0.4423828,0.1376953,0.6630859,0.2124023L40.6787109,21.1782227z M39.9345703,20.9414063
				c-0.2207031-0.0673828-0.4404297-0.1308594-0.65625-0.1914063l0.1347656-0.4814453
				c0.2197266,0.0615234,0.4433594,0.1259766,0.6679688,0.1943359L39.9345703,20.9414063z M39.1835938,20.7236328
				l-0.6630859-0.1816406l0.1308594-0.4824219l0.6669922,0.1826172L39.1835938,20.7236328z M38.4257813,20.5166016
				l-0.6669922-0.1796875l0.1308594-0.4824219l0.6650391,0.1796875L38.4257813,20.5166016z M37.6630859,20.3105469
				c-0.2431641-0.0668945-0.4677734-0.1308594-0.6708984-0.1938477l0.1484375-0.4775391
				c0.1972656,0.0610352,0.4179688,0.1240234,0.6552734,0.1889648L37.6630859,20.3105469z M36.8974609,20.0864258
				c-0.1357422-0.0429688-0.2607422-0.0859375-0.3730469-0.128418c-0.0917969-0.0351563-0.1855469-0.0678711-0.2792969-0.0976563
				l0.1523438-0.4765625c0.1015625,0.0327148,0.203125,0.0683594,0.3046875,0.1064453
				c0.1044922,0.0395508,0.2197266,0.0795898,0.3457031,0.1196289L36.8974609,20.0864258z M36.1552734,19.8320313
				c-0.2148438-0.0649414-0.4306641-0.1176758-0.6455078-0.1611328l0.0996094-0.4902344
				c0.2304688,0.0463867,0.4619141,0.1030273,0.6904297,0.1728516L36.1552734,19.8320313z M35.4169922,19.6523438
				c-0.2226563-0.0419922-0.4453125-0.0742188-0.6650391-0.0996094l0.0585938-0.4970703
				c0.2314453,0.0273438,0.4638672,0.0615234,0.6982422,0.1054688L35.4169922,19.6523438z M34.6552734,19.5415039
				c-0.2294922-0.0249023-0.4550781-0.0439453-0.6767578-0.0595703l0.0351563-0.4990234
				c0.2275391,0.0166016,0.4609375,0.0356445,0.6962891,0.0615234L34.6552734,19.5415039z M33.8798828,19.4750977
				l-0.6865234-0.0454102l0.0332031-0.4990234l0.6884766,0.0454102L33.8798828,19.4750977z M33.0947266,19.4228516
				c-0.2441406-0.0175781-0.4785156-0.0380859-0.7011719-0.0668945l0.0644531-0.4960938
				c0.2138672,0.027832,0.4384766,0.0473633,0.671875,0.0639648L33.0947266,19.4228516z M32.293457,19.3422852
				c-0.2739258-0.0390625-0.5068359-0.0888672-0.7124023-0.152832l0.1484375-0.4775391
				c0.1796875,0.0561523,0.387207,0.1000977,0.6342773,0.1352539L32.293457,19.3422852z M31.4794922,19.15625
				c-0.2675781-0.0932617-0.4892578-0.2128906-0.6782227-0.3657227l0.3144531-0.3886719
				c0.1435547,0.1157227,0.315918,0.2080078,0.527832,0.2817383L31.4794922,19.15625z M30.7265625,18.7299805
				c-0.1621094-0.1293945-0.3442383-0.2553711-0.5400391-0.3740234l0.2587891-0.4277344
				c0.2143555,0.1298828,0.4140625,0.2680664,0.5927734,0.4101563L30.7265625,18.7299805z M30.1040039,18.3071289
				c-0.1889648-0.1113281-0.3862305-0.2133789-0.5893555-0.3081055l0.2109375-0.453125
				c0.2177734,0.1015625,0.4296875,0.2114258,0.6323242,0.3305664L30.1040039,18.3071289z M29.4277344,17.9594727
				c-0.203125-0.0922852-0.4116211-0.1767578-0.6225586-0.2548828l0.1738281-0.46875
				c0.2216797,0.0820313,0.440918,0.1713867,0.6547852,0.2675781L29.4277344,17.9594727z M28.715332,17.671875
				c-0.2133789-0.0766602-0.4282227-0.1464844-0.6420898-0.2099609l0.1425781-0.4794922
				c0.2226563,0.0664063,0.4462891,0.1391602,0.668457,0.21875L28.715332,17.671875z M27.9799805,17.4350586
				c-0.2207031-0.0644531-0.4404297-0.121582-0.6552734-0.1728516l0.1162109-0.4863281
				c0.2226563,0.0532227,0.4501953,0.1123047,0.6787109,0.1787109L27.9799805,17.4350586z M27.2304688,17.2402344
				c-0.2290039-0.0537109-0.4516602-0.1000977-0.6645508-0.140625l0.0927734-0.4912109
				c0.2197266,0.0415039,0.4492188,0.0898438,0.6850586,0.1445313L27.2304688,17.2402344z M26.4702148,17.0810547
				c-0.2397461-0.0439453-0.465332-0.0805664-0.671875-0.1108398l0.0732422-0.4951172
				c0.2114258,0.03125,0.4438477,0.0688477,0.6894531,0.1147461L26.4702148,17.0810547z M25.7026367,16.9560547
				c-0.2661133-0.0371094-0.4960938-0.0639648-0.6762695-0.0830078l0.0517578-0.4970703
				c0.1850586,0.019043,0.4208984,0.046875,0.6938477,0.0849609L25.7026367,16.9560547z"/>
			<path style="fill:#600606;" d="M44.3613281,23.2519531c-0.0722656-0.081543-0.1484375-0.1606445-0.2285156-0.2382813
				l0.3476563-0.359375c0.0898438,0.0864258,0.1757813,0.175293,0.2558594,0.2666016L44.3613281,23.2519531z"/>
		</g>
		<g>
			<path style="fill:#600606;" d="M26.762207,44.3662109c-0.2099609-0.0234375-0.3261719-0.0302734-0.3300781-0.0302734
				l0.0283203-0.5c0,0,0.1259766,0.0078125,0.3583984,0.0341797L26.762207,44.3662109z"/>
			<path style="fill:#600606;" d="M43.2119141,58.3369141c-0.0449219-0.1757813-0.1035156-0.3994141-0.1835938-0.6630859
				l0.4785156-0.1445313c0.0820313,0.2734375,0.1445313,0.5048828,0.1894531,0.6865234L43.2119141,58.3369141z M43,57.5800781
				c-0.0625-0.1982422-0.1347656-0.4179688-0.2177734-0.6552734l0.4707031-0.1660156
				c0.0869141,0.2431641,0.1611328,0.46875,0.2236328,0.6728516L43,57.5800781z M42.75,56.8330078
				c-0.0751953-0.2041016-0.15625-0.4199219-0.2480469-0.6455078L42.9648438,56
				c0.09375,0.2314453,0.1787109,0.453125,0.2539063,0.6611328L42.75,56.8330078z M42.4648438,56.0976563
				c-0.0849609-0.203125-0.1767578-0.4160156-0.2763672-0.6347656l0.4550781-0.2070313
				c0.1015625,0.2246094,0.1953125,0.4414063,0.2822266,0.6484375L42.4648438,56.0976563z M42.1484375,55.3730469
				c-0.09375-0.2021484-0.1943359-0.4091797-0.3017578-0.6210938l0.4453125-0.2265625
				c0.1113281,0.2177734,0.2138672,0.4306641,0.3095703,0.6386719L42.1484375,55.3730469z M41.8017578,54.6650391
				c-0.1035156-0.1992188-0.2128906-0.4023438-0.328125-0.609375l0.4355469-0.2441406
				c0.1191406,0.2109375,0.2304688,0.4199219,0.3359375,0.6230469L41.8017578,54.6650391z M41.4257813,53.9707031
				c-0.1123047-0.1943359-0.2294922-0.3935547-0.3535156-0.5947266l0.4257813-0.2617188
				c0.1259766,0.2050781,0.2470703,0.4082031,0.3613281,0.6083984L41.4257813,53.9707031z M41.0205078,53.2910156
				c-0.1191406-0.1914063-0.2451172-0.3837891-0.3769531-0.5771484l0.4140625-0.28125
				c0.1357422,0.1992188,0.2636719,0.3974609,0.3867188,0.5947266L41.0205078,53.2910156z M40.5878906,52.6328125
				c-0.1269531-0.1865234-0.2607422-0.3740234-0.4003906-0.5615234l0.4003906-0.2988281
				c0.1435547,0.1933594,0.28125,0.3867188,0.4121094,0.5771484L40.5878906,52.6328125z M40.1269531,51.9912109
				c-0.1357422-0.1816406-0.2773438-0.3623047-0.4248047-0.5429688l0.3886719-0.3164063
				c0.1513672,0.1865234,0.296875,0.3730469,0.4365234,0.5605469L40.1269531,51.9912109z M39.6396484,51.3710938
				c-0.1435547-0.1748047-0.2929688-0.3505859-0.4472656-0.5244141l0.3730469-0.3320313
				c0.1601563,0.1796875,0.3134766,0.359375,0.4609375,0.5400391L39.6396484,51.3710938z M39.1279297,50.7744141
				c-0.1523438-0.1689453-0.3095703-0.3378906-0.4716797-0.5058594l0.359375-0.3476563
				c0.1660156,0.171875,0.3271484,0.3447266,0.4833984,0.5175781L39.1279297,50.7744141z M38.5869141,50.1982422
				c-0.1591797-0.1630859-0.3222656-0.3232422-0.4921875-0.4833984l0.34375-0.3632813
				c0.1738281,0.1640625,0.3427734,0.3300781,0.5058594,0.4970703L38.5869141,50.1982422z M38.0234375,49.6474609
				c-0.1650391-0.1552734-0.3369141-0.3085938-0.5126953-0.4609375l0.3261719-0.3789063
				c0.1816406,0.15625,0.3574219,0.3154297,0.5283203,0.4746094L38.0234375,49.6474609z M37.4345703,49.1210938
				c-0.0810547-0.0693359-0.1640625-0.1396484-0.2480469-0.2089844c-0.0957031-0.0791016-0.1904297-0.1552734-0.2841797-0.2304688
				l0.3105469-0.390625c0.0976563,0.0771484,0.1943359,0.1552734,0.2910156,0.2353516
				c0.0869141,0.0703125,0.171875,0.1425781,0.2568359,0.2158203L37.4345703,49.1210938z M36.8271484,48.6220703
				c-0.1855469-0.1445313-0.3691406-0.2832031-0.5527344-0.4189453l0.296875-0.4023438
				c0.1875,0.1376953,0.375,0.2802734,0.5625,0.4267578L36.8271484,48.6220703z M36.1943359,48.1455078
				c-0.1875-0.1367188-0.3769531-0.2685547-0.5654297-0.3964844l0.2792969-0.4140625
				c0.1943359,0.1298828,0.3876953,0.265625,0.5810547,0.40625L36.1943359,48.1455078z M35.5458984,47.6943359
				c-0.1933594-0.1308594-0.3867188-0.2548828-0.5800781-0.3740234l0.2636719-0.4257813
				c0.1982422,0.1230469,0.3964844,0.2509766,0.5957031,0.3837891L35.5458984,47.6943359z M34.8808594,47.2666016
				c-0.1982422-0.1230469-0.3964844-0.2392578-0.59375-0.3505859l0.2460938-0.4355469
				c0.203125,0.1152344,0.4072266,0.2353516,0.6113281,0.3623047L34.8808594,47.2666016z M34.2001953,46.8671875
				c-0.203125-0.1142578-0.4052734-0.2246094-0.6074219-0.3291016l0.2304688-0.4433594
				c0.2060547,0.1064453,0.4140625,0.21875,0.6230469,0.3369141L34.2001953,46.8671875z M33.5048828,46.4931641
				c-0.2089844-0.1074219-0.4160156-0.2099609-0.6201172-0.3056641l0.2128906-0.453125
				c0.2099609,0.0996094,0.4208984,0.2041016,0.6357422,0.3134766L33.5048828,46.4931641z M32.7954102,46.1445313
				c-0.2133789-0.0996094-0.4238281-0.1943359-0.6313477-0.2832031l0.1962891-0.4589844
				c0.2124023,0.0908203,0.4277344,0.1875,0.6464844,0.2890625L32.7954102,46.1445313z M32.0722656,45.8242188
				c-0.2172852-0.0927734-0.4311523-0.1787109-0.640625-0.2597656l0.1796875-0.4667969
				c0.215332,0.0830078,0.434082,0.1708984,0.6572266,0.265625L32.0722656,45.8242188z M31.3398438,45.5283203
				c-0.222168-0.0839844-0.4394531-0.1621094-0.6518555-0.2353516l0.1640625-0.4726563
				c0.2163086,0.0751953,0.4384766,0.1552734,0.6645508,0.2412109L31.3398438,45.5283203z M30.5957031,45.2617188
				c-0.2260742-0.0771484-0.4462891-0.1474609-0.6591797-0.2119141l0.1455078-0.4785156
				c0.2177734,0.0664063,0.4428711,0.1386719,0.6738281,0.2158203L30.5957031,45.2617188z M29.8417969,45.0205078
				c-0.2304688-0.0683594-0.453125-0.1298828-0.6660156-0.1855469l0.1269531-0.484375
				c0.2177734,0.0576172,0.4453125,0.1210938,0.6816406,0.1914063L29.8417969,45.0205078z M29.0795898,44.8105469
				c-0.2358398-0.0615234-0.4604492-0.1152344-0.6713867-0.1611328l0.1074219-0.4882813
				c0.2167969,0.0478516,0.4472656,0.1015625,0.6899414,0.1650391L29.0795898,44.8105469z M28.3110352,44.6279297
				c-0.246582-0.0537109-0.4726563-0.0966797-0.6767578-0.1328125l0.0859375-0.4921875
				c0.2099609,0.0361328,0.4438477,0.0810547,0.6972656,0.1367188L28.3110352,44.6279297z M27.5361328,44.4785156
				c-0.2734375-0.046875-0.5029297-0.078125-0.6811523-0.1005859l0.0615234-0.4960938
				c0.184082,0.0224609,0.4213867,0.0556641,0.7045898,0.1044922L27.5361328,44.4785156z"/>
			<path style="fill:#600606;" d="M43.3085938,58.7705078c-0.0009766-0.0039063-0.0214844-0.1181641-0.0693359-0.3222656
				l0.4863281-0.1152344c0.0546875,0.2275391,0.0751953,0.3535156,0.0751953,0.3535156L43.3085938,58.7705078z"/>
		</g>
		<linearGradient id="SVGID_3_" gradientUnits="userSpaceOnUse" x1="25.6967773" y1="-0.0566406" x2="28.6127739" y2="12.0268211">
			<stop  offset="0" style="stop-color:#292929"/>
			<stop  offset="0.8425525" style="stop-color:#070707"/>
			<stop  offset="1" style="stop-color:#000000"/>
		</linearGradient>
		<path style="fill:url(#SVGID_3_);" d="M24.9580078,12.2373047c0,0,2.4873047-2.8510742,5.8212891-3.3510742
			c0,0,0.4316406-4.3969727-1.0332031-5.7402344c-1.4667969-1.3432617-3.9707031,0.5878906-4.0498047,1.6567383
			S24.9580078,12.2373047,24.9580078,12.2373047z"/>
		<linearGradient id="SVGID_4_" gradientUnits="userSpaceOnUse" x1="13.1977539" y1="18.315918" x2="27.2660599" y2="28.9092197">
			<stop  offset="0" style="stop-color:#292929"/>
			<stop  offset="0.8425525" style="stop-color:#070707"/>
			<stop  offset="1" style="stop-color:#000000"/>
		</linearGradient>
		<path style="fill:url(#SVGID_4_);" d="M15.9707031,15.5527344c0,0,1.8505859-2.0341797,3.7539063-0.6420898
			c1.9052734,1.3920898,3.7128906,6.027832,3.7128906,6.027832l0.6972656,1.2412109c0,0,0.2958984,12.6054688,2.0537109,14.2382813
			l-5.7685547-5.9106445l-2.5996094-10.3330078L15.9707031,15.5527344z"/>
		<linearGradient id="SVGID_5_" gradientUnits="userSpaceOnUse" x1="32.2626953" y1="36.8955078" x2="29.9550819" y2="46.684864">
			<stop  offset="0" style="stop-color:#DF0000"/>
			<stop  offset="0.2527558" style="stop-color:#BD0002"/>
			<stop  offset="0.8086758" style="stop-color:#660007"/>
			<stop  offset="1" style="stop-color:#470009"/>
		</linearGradient>
		<path style="opacity:0.49;fill:url(#SVGID_5_);" d="M26.4462891,44.46875c0,0,6.7412109,0.4042969,6.7412109,5.25
			c0,3.5839844-3.6035156-4.9179688-6.6181641-4.5L26.4462891,44.46875z"/>
		<linearGradient id="SVGID_6_" gradientUnits="userSpaceOnUse" x1="37.3876953" y1="25.112793" x2="38.8872032" y2="30.111166">
			<stop  offset="0" style="stop-color:#DF0000"/>
			<stop  offset="0.2527558" style="stop-color:#BD0002"/>
			<stop  offset="0.8086758" style="stop-color:#660007"/>
			<stop  offset="1" style="stop-color:#470009"/>
		</linearGradient>
		<path style="opacity:0.49;fill:url(#SVGID_6_);" d="M33.8046875,28.4697266c0,0,6.0791016,0.25,8.1230469-0.3334961
			s0.7763672,1.3901367-2.7900391,1.5834961S33.8046875,28.4697266,33.8046875,28.4697266z"/>
		<path style="fill:#D8D8D8;" d="M25.1484375,10.7363281c-0.0966797,0-0.1923828-0.0400391-0.2617188-0.1176758
			c-0.128418-0.1445313-0.1152344-0.3657227,0.0292969-0.4941406c0.1337891-0.1186523,3.3061523-2.9140625,5.671875-3.0874023
			c0.1791992-0.0102539,0.3603516,0.1303711,0.3745117,0.3237305c0.0141602,0.1923828-0.1308594,0.3603516-0.3237305,0.3745117
			c-2.1313477,0.1557617-5.2265625,2.8852539-5.2578125,2.9125977
			C25.3139648,10.7070313,25.2314453,10.7363281,25.1484375,10.7363281z"/>
		<g>
			<polygon style="fill:#600606;" points="44.0830078,27.6240234 43.9677734,27.1376953 44.3085938,27.0585938 
				44.4179688,27.546875 			"/>
			<path style="fill:#600606;" d="M27.9472656,38.1367188l-0.1044922-0.4882813
				c0.184082-0.0400391,0.4169922-0.09375,0.6835938-0.1601563l0.1210938,0.484375
				C28.375,38.0410156,28.1362305,38.0966797,27.9472656,38.1367188z M28.7470703,37.9482422l-0.1230469-0.484375
				c0.2104492-0.0537109,0.4399414-0.1142578,0.6801758-0.1816406l0.1357422,0.4804688
				C29.1948242,37.8320313,28.9614258,37.8945313,28.7470703,37.9482422z M29.5380859,37.734375l-0.1367188-0.4804688
				c0.2167969-0.0615234,0.4423828-0.1298828,0.6708984-0.2041016l0.1542969,0.4746094
				C29.9921875,37.6005859,29.7607422,37.6708984,29.5380859,37.734375z M30.3242188,37.4931641l-0.15625-0.4746094
				c0.2192383-0.0722656,0.440918-0.1494141,0.6601563-0.2324219l0.1767578,0.46875
				C30.7788086,37.3398438,30.550293,37.4189453,30.3242188,37.4931641z M31.1000977,37.21875l-0.1777344-0.4667969
				c0.2182617-0.0830078,0.434082-0.1728516,0.6425781-0.265625l0.2050781,0.4550781
				C31.5527344,37.0400391,31.328125,37.1318359,31.1000977,37.21875z M31.8647461,36.8984375l-0.2099609-0.453125
				c0.2148438-0.0996094,0.4213867-0.2041016,0.6137695-0.3134766l0.2480469,0.4335938
				C32.3125,36.6826172,32.0932617,36.7929688,31.8647461,36.8984375z M32.6074219,36.5136719l-0.2539063-0.4316406
				c0.2099609-0.1230469,0.3959961-0.2509766,0.5522461-0.3798828l0.3178711,0.3867188
				C33.046875,36.2333984,32.8393555,36.3769531,32.6074219,36.5136719z M33.3066406,36.0175781l-0.3286133-0.3769531
				c0.1704102-0.1484375,0.3256836-0.3037109,0.4760742-0.4765625l0.3769531,0.328125
				C33.6660156,35.6826172,33.4941406,35.8544922,33.3066406,36.0175781z M33.9003906,35.4111328l-0.3847656-0.3203125
				c0.1464844-0.1748047,0.2783203-0.3574219,0.4033203-0.546875l0.4179688,0.2734375
				C34.1943359,35.0361328,34.0507813,35.2294922,33.9003906,35.4111328z M34.3935547,34.7294922l-0.421875-0.2675781
				c0.1210938-0.1923828,0.2363281-0.390625,0.3515625-0.5986328l0.4375,0.2421875
				C34.6416016,34.3212891,34.5205078,34.5292969,34.3935547,34.7294922z M34.8105469,34.0126953l-0.4394531-0.2363281
				c0.1074219-0.2011719,0.2167969-0.4091797,0.3291016-0.625l0.4433594,0.2324219
				C35.0292969,33.6015625,34.9199219,33.8115234,34.8105469,34.0126953z M35.2050781,33.2666016l-0.4570313-0.2050781
				c0.1162109-0.2211914,0.2216797-0.421875,0.3339844-0.6293945l0.4394531,0.2382813
				C35.4101563,32.8759766,35.3056641,33.0742188,35.2050781,33.2666016z M35.5693359,32.5820313l-0.4394531-0.2392578
				c0.1103516-0.2016602,0.2275391-0.4101563,0.3554688-0.625l0.4296875,0.2558594
				C35.7910156,32.1826172,35.6757813,32.3852539,35.5693359,32.5820313z M35.9677734,31.8867188l-0.4296875-0.2568359
				c0.1181641-0.1972656,0.2451172-0.4003906,0.3828125-0.6098633l0.4179688,0.2753906
				C36.2050781,31.4980469,36.0820313,31.6953125,35.9677734,31.8867188z M36.3935547,31.2119141l-0.4160156-0.2773438
				c0.1279297-0.1918945,0.2646484-0.3886719,0.4121094-0.590332l0.4042969,0.2949219
				C36.6503906,30.8349609,36.5175781,31.0258789,36.3935547,31.2119141z M36.8525391,30.5595703l-0.4003906-0.2988281
				c0.1162109-0.1567383,0.2392578-0.3168945,0.3691406-0.4799805c0.0292969-0.0361328,0.0585938-0.0693359,0.0908203-0.1030273
				l0.3574219,0.3505859c-0.0224609,0.0219727-0.0419922,0.0444336-0.0595703,0.0664063
				C37.0859375,30.2504883,36.9667969,30.4067383,36.8525391,30.5595703z M37.3300781,29.9711914L37,29.5961914
				c0.1552734-0.1367188,0.3701172-0.2788086,0.6386719-0.4228516L37.875,29.6137695
				C37.6396484,29.7402344,37.4560547,29.8603516,37.3300781,29.9711914z M37.9609375,29.5688477l-0.2285156-0.4443359
				c0.1992188-0.1030273,0.421875-0.2050781,0.6630859-0.3066406l0.1933594,0.4609375
				C38.3613281,29.3745117,38.1503906,29.4716797,37.9609375,29.5688477z M38.6806641,29.2402344l-0.1894531-0.4619141
				c0.2128906-0.0878906,0.4384766-0.1748047,0.671875-0.2597656l0.171875,0.4697266
				C39.1074219,29.0712891,38.8876953,29.1552734,38.6806641,29.2402344z M39.4277344,28.9545898l-0.1679688-0.4707031
				c0.2207031-0.0791016,0.4482422-0.1567383,0.6787109-0.2324219l0.15625,0.4746094
				C39.8681641,28.8007813,39.6445313,28.8774414,39.4277344,28.9545898z M40.1894531,28.6948242l-0.1542969-0.4755859
				c0.2255859-0.0737305,0.4550781-0.1450195,0.6835938-0.2138672l0.1445313,0.4785156
				C40.6386719,28.5517578,40.4130859,28.6220703,40.1894531,28.6948242z M40.9609375,28.4550781l-0.1445313-0.4785156
				c0.2314453-0.0693359,0.4609375-0.1362305,0.6855469-0.2001953l0.1367188,0.4814453
				C41.4160156,28.3208008,41.1884766,28.3867188,40.9609375,28.4550781z M41.7353516,28.2299805l-0.1347656-0.4814453
				c0.2373047-0.0664063,0.4677734-0.1293945,0.6884766-0.1884766l0.1289063,0.4833984
				C42.1992188,28.1015625,41.9707031,28.1645508,41.7353516,28.2299805z M42.515625,28.0175781l-0.1289063-0.4833984
				c0.2460938-0.0654297,0.4794922-0.1254883,0.6923828-0.1791992l0.1210938,0.4853516
				C42.9892578,27.8930664,42.7597656,27.9521484,42.515625,28.0175781z M43.2988281,27.8154297l-0.1210938-0.4853516
				c0.2734375-0.0678711,0.5097656-0.1254883,0.6933594-0.1694336l0.1171875,0.4863281
				C43.8046875,27.690918,43.5703125,27.7475586,43.2988281,27.8154297z"/>
			<path style="fill:#600606;" d="M27.4921875,38.2324219l-0.0917969-0.4921875
				c0.0014648,0,0.1240234-0.0234375,0.3330078-0.0673828l0.1044922,0.4882813
				C27.6196289,38.2080078,27.4921875,38.2324219,27.4921875,38.2324219z"/>
		</g>
		<linearGradient id="SVGID_7_" gradientUnits="userSpaceOnUse" x1="31.5317383" y1="9.8510742" x2="33.7810516" y2="20.1809616">
			<stop  offset="0" style="stop-color:#DF0000"/>
			<stop  offset="0.2527558" style="stop-color:#BD0002"/>
			<stop  offset="0.8086758" style="stop-color:#660007"/>
			<stop  offset="1" style="stop-color:#470009"/>
		</linearGradient>
		<path style="opacity:0.49;fill:url(#SVGID_7_);" d="M27.6132813,18.3779297c0,0,0.7441406,0.3139648,2.5537109-0.6367188
			s2.5068359,0.0737305,4.0898438,0s4.6669922-0.2202148,4.9169922,0.6865234s-3.7275391,1.2539063-6.4423828,1.1567383
			s-2.9746094,0.6865234-2.9746094,0.6865234L27.6132813,18.3779297z"/>
		<path style="fill:#230202;" d="M30.9462891,18.7705078c-0.2583008,0-0.4677734-0.2094727-0.4677734-0.4677734v-3.3330078
			L30.1459961,3.9003906c-0.0078125-0.2583008,0.1948242-0.4741211,0.453125-0.4814453
			c0.246582-0.027832,0.4741211,0.1948242,0.4814453,0.453125l0.3330078,11.0834961l0.0004883,3.347168
			C31.4140625,18.5610352,31.2045898,18.7705078,30.9462891,18.7705078z"/>
		<path style="fill:#230202;" d="M36.6132813,19.2705078c-0.2460938,0-0.4521484-0.1914063-0.4667969-0.4394531
			l-0.4169922-6.9165039l-0.4160156-4.4853516c-0.0234375-0.2568359,0.1650391-0.4848633,0.4228516-0.5087891
			c0.2529297-0.0263672,0.4853516,0.1650391,0.5087891,0.4228516l0.4169922,4.5l0.4179688,6.9311523
			c0.015625,0.2578125-0.1806641,0.4794922-0.4384766,0.4951172C36.6318359,19.2700195,36.6220703,19.2705078,36.6132813,19.2705078
			z"/>
		<path style="fill:#230202;" d="M41.9277344,19.9707031c-0.2148438,0-0.4082031-0.1489258-0.4570313-0.3671875
			c-0.0722656-0.3295898-0.7099609-3.2397461-0.7402344-3.9462891c-0.0654297-1.4501953-0.3271484-3.2177734-0.3300781-3.2358398
			c-0.0380859-0.2553711,0.1386719-0.4931641,0.3935547-0.53125c0.2539063-0.0341797,0.4941406,0.137207,0.5322266,0.3935547
			c0.0107422,0.0737305,0.2714844,1.8334961,0.3378906,3.3320313c0.0234375,0.5302734,0.5283203,2.9130859,0.7207031,3.7866211
			c0.0556641,0.2524414-0.1044922,0.5019531-0.3564453,0.5571289
			C41.9941406,19.9672852,41.9609375,19.9707031,41.9277344,19.9707031z"/>
		<g>
			<linearGradient id="SVGID_8_" gradientUnits="userSpaceOnUse" x1="26.984375" y1="31.2446289" x2="39.2336731" y2="15.7455111">
				<stop  offset="0" style="stop-color:#292929"/>
				<stop  offset="0.8425525" style="stop-color:#070707"/>
				<stop  offset="1" style="stop-color:#000000"/>
			</linearGradient>
			<path style="fill:url(#SVGID_8_);" d="M24.5449219,17.3764648c0,0,3.484375,0.6762695,4.5683594,1.4262695
				c1.0830078,0.75,1.8330078,1.5,4.0830078,1.5s5.0839844,0.8339844,6.1669922,1.1669922s4.1210938,1.3305664,5.1855469,2.7485352
				l-0.0712891,1.8481445c0,0-3.9599609,0.8193359-6.2041016,1.4863281s-4.2412109,4.8920898-5.4921875,6.9863281
				C31.5292969,36.6347656,26.5195313,37.25,26.5195313,37.25s-2.0732422-4.612793-2.3232422-11.2802734
				C23.9462891,19.3027344,24.5449219,17.3764648,24.5449219,17.3764648z"/>
			<path style="fill:#230202;" d="M26.5195313,37.7177734c-0.1826172,0-0.3505859-0.1064453-0.4267578-0.2763672
				C26.0068359,37.25,23.9794922,32.6689453,23.7290039,25.9873047c-0.25-6.6704102,0.34375-8.6679688,0.3691406-8.7495117
				c0.0712891-0.2280273,0.2998047-0.3666992,0.5361328-0.3203125c0.3662109,0.0708008,3.6132813,0.7172852,4.7451172,1.5004883
				l0.3720703,0.2641602c0.8969727,0.644043,1.605957,1.152832,3.4448242,1.152832
				c1.5976563,0,3.7773438,0.4106445,6.3046875,1.1875c1.9179688,0.5898438,4.4160156,1.574707,5.421875,2.9150391
				c0.0644531,0.0859375,0.0976563,0.1914063,0.09375,0.2988281l-0.0712891,1.8481445
				c-0.0087891,0.2148438-0.1621094,0.3964844-0.3730469,0.4399414c-0.0390625,0.0083008-3.9667969,0.8232422-6.1660156,1.4765625
				c-1.6875,0.5014648-3.3974609,3.5488281-4.5302734,5.5654297c-0.25,0.4462891-0.4824219,0.859375-0.6933594,1.2128906
				c-1.3535156,2.265625-6.3920898,2.9082031-6.605957,2.9345703
				C26.5576172,37.7167969,26.5380859,37.7177734,26.5195313,37.7177734z M24.9052734,17.9282227
				c-0.1494141,0.859375-0.4233398,3.1787109-0.2416992,8.0239258c0.2070313,5.5175781,1.6918945,9.6367188,2.1489258,10.7841797
				c1.5332031-0.2382813,4.7104492-1.0029297,5.5673828-2.4375c0.2070313-0.3466797,0.4345703-0.7519531,0.6806641-1.1904297
				c1.2783203-2.2763672,3.0283203-5.3945313,5.0800781-6.0039063c1.8671875-0.5551758,4.8525391-1.2026367,5.8837891-1.4208984
				L44.0751953,24.375c-0.7324219-0.8500977-2.4423828-1.7182617-4.8496094-2.4580078
				c-3.0810547-0.9477539-4.9794922-1.1464844-6.0292969-1.1464844c-2.1401367,0-3.0390625-0.6455078-3.9902344-1.3286133
				l-0.3588867-0.2548828C28.1323242,18.6928711,26.0556641,18.175293,24.9052734,17.9282227z"/>
		</g>
		<path style="fill:#D8D8D8;" d="M25.8041992,36.0683594c-0.1748047,0-0.3261719-0.1308594-0.347168-0.3085938
			c-0.0224609-0.1914063,0.1147461-0.3662109,0.3066406-0.3886719c1.3256836-0.1572266,4.9057617-0.8193359,5.5400391-1.9853516
			c0.0698242-0.1279297,0.1538086-0.296875,0.2539063-0.4990234c1.0288086-2.0688477,4.0322266-8.109375,11.2363281-8.4428711
			c-2.5820313-1.1738281-7.2490234-2.5327148-8.9228516-2.2138672c-2.2407227,0.4267578-4.8720703-0.9667969-5.8330078-2.097168
			c-0.6069336-0.7138672-2.9042969-1.0532227-3.7382813-1.1240234c-0.1928711-0.0161133-0.3359375-0.1855469-0.3193359-0.3779297
			c0.0161133-0.1923828,0.1914063-0.3413086,0.3779297-0.3193359c0.3364258,0.0283203,3.3125,0.3085938,4.2128906,1.3681641
			c0.7490234,0.8818359,3.1240234,2.2597656,5.1669922,1.862793c2.3554688-0.4511719,8.8066406,1.7480469,10.6748047,2.9672852
			c0.1328125,0.0864258,0.1904297,0.2514648,0.140625,0.4023438c-0.0488281,0.1503906-0.2246094,0.2358398-0.3515625,0.2402344
			c-7.7988281-0.449707-10.8632813,5.7236328-12.0175781,8.0458984c-0.1049805,0.2109375-0.1928711,0.3876953-0.265625,0.5214844
			c-0.9204102,1.6923828-5.5483398,2.2841797-6.0732422,2.3466797
			C25.8320313,36.0683594,25.8178711,36.0683594,25.8041992,36.0683594z"/>
		<g>
			<linearGradient id="SVGID_9_" gradientUnits="userSpaceOnUse" x1="31.9584961" y1="28.159668" x2="42.1241341" y2="53.0752754">
				<stop  offset="0" style="stop-color:#292929"/>
				<stop  offset="0.8425525" style="stop-color:#070707"/>
				<stop  offset="1" style="stop-color:#000000"/>
			</linearGradient>
			<path style="fill:url(#SVGID_9_);" d="M27.4462891,38.5527344c0,0,3.7910156-0.0839844,6.8955078-2.0839844
				s9.2714844-3.4995117,10.2714844-4.9160156c0,0-2.5048828,10.1171875-0.8720703,13.828125
				c1.6328125,3.7089844,3.8525391,9.0839844,3.4873047,12.2519531l0.8007813,1.3359375l-1.6660156,1.3339844l-1.4267578-0.4121094
				l-0.3876953-1.8378906c0,0-2.4365234-12.8339844-17.8525391-15.1679688
				C26.6962891,42.8847656,26.1132813,41.71875,27.4462891,38.5527344z"/>
			<path style="fill:#230202;" d="M46.3632813,60.7705078c-0.0429688,0-0.0869141-0.0058594-0.1298828-0.0185547
				l-1.4267578-0.4121094c-0.1660156-0.0478516-0.2919922-0.1835938-0.328125-0.3525391l-0.3876953-1.8378906
				c-0.0253906-0.1337891-2.5742188-12.5478516-17.4643555-14.8017578
				c-0.1503906-0.0234375-0.2802734-0.1181641-0.3486328-0.2539063c-0.0693359-0.1386719-0.6391602-1.4521484,0.7373047-4.7226563
				c0.0717773-0.1699219,0.2363281-0.28125,0.4204102-0.2861328c0.0366211-0.0009766,3.7016602-0.1083984,6.6533203-2.0097656
				c1.4902344-0.9599609,3.6757813-1.8105469,5.6035156-2.5615234c2.0097656-0.7822266,4.0878906-1.5913086,4.5390625-2.2304688
				c0.1298828-0.184082,0.3720703-0.2485352,0.5761719-0.1557617c0.2050781,0.0932617,0.3134766,0.3193359,0.2597656,0.5375977
				c-0.0244141,0.0996094-2.4482422,10.0048828-0.8984375,13.5273438c1.9130859,4.3447266,3.8203125,9.1914063,3.5410156,12.3330078
				l0.7207031,1.203125c0.1201172,0.2001953,0.0732422,0.4589844-0.109375,0.6054688l-1.6660156,1.3339844
				C46.5712891,60.7353516,46.4677734,60.7705078,46.3632813,60.7705078z M45.3359375,59.5195313l0.9238281,0.2666016
				l1.1582031-0.9267578l-0.5908203-0.9863281c-0.0527344-0.0878906-0.0751953-0.1914063-0.0634766-0.2939453
				c0.3378906-2.9296875-1.6660156-7.9570313-3.4501953-12.0097656c-1.3388672-3.0419922-0.0693359-9.9570313,0.5517578-12.8413086
				c-0.8720703,0.4926758-2.15625,1.0043945-3.8330078,1.6577148c-1.8867188,0.734375-4.0253906,1.5664063-5.4375,2.4765625
				c-2.6962891,1.7363281-5.8393555,2.0771484-6.8286133,2.1425781c-0.7880859,1.9677734-0.7636719,3.0400391-0.6972656,3.4648438
				c15.2954102,2.4785156,17.9145508,15.3652344,17.9399414,15.4960938L45.3359375,59.5195313z"/>
		</g>
		<path style="fill:#D8D8D8;" d="M46.3632813,60.6523438c-0.1708984,0-0.3203125-0.1240234-0.3457031-0.2978516
			c-0.0117188-0.0742188-1.1796875-7.5488281-5.421875-12.5761719c-4.2138672-4.9941406-14.0737305-5.7119141-14.1728516-5.7177734
			c-0.1928711-0.0136719-0.3388672-0.1806641-0.3256836-0.3730469c0.0126953-0.1923828,0.1777344-0.3212891,0.3725586-0.3261719
			c0.4169922,0.0283203,10.2578125,0.7460938,14.6611328,5.9658203c4.3720703,5.1816406,5.53125,12.609375,5.578125,12.9238281
			c0.0292969,0.1904297-0.1025391,0.3691406-0.2939453,0.3974609
			C46.3974609,60.6513672,46.3798828,60.6523438,46.3632813,60.6523438z"/>
		<g>
			
				<linearGradient id="SVGID_10_" gradientUnits="userSpaceOnUse" x1="34.1806641" y1="55.0605469" x2="36.6457558" y2="61.1023979">
				<stop  offset="0" style="stop-color:#292929"/>
				<stop  offset="0.8425525" style="stop-color:#070707"/>
				<stop  offset="1" style="stop-color:#000000"/>
			</linearGradient>
			<path style="fill:url(#SVGID_10_);" d="M27.8105469,59.7324219c0,0,3.7988281,0.7695313,7.0488281,0.2695313
				s9.6894531-1.9492188,9.6894531-1.9492188l0.3876953,1.8378906c0,0-0.3740234-0.5195313-1.890625-0.0546875
				c-1.5166016,0.4667969-10.5996094,3.2988281-15.4326172,1.5488281L27.8105469,59.7324219z"/>
			<path style="fill:#230202;" d="M31.5092773,62.4169922c-1.6044922,0-2.96875-0.1992188-4.0551758-0.5927734
				c-0.2045898-0.0742188-0.3310547-0.2792969-0.3051758-0.4951172l0.1972656-1.6523438
				c0.015625-0.1298828,0.0844727-0.2470703,0.1904297-0.3232422c0.1049805-0.0771484,0.2397461-0.1064453,0.3666992-0.0791016
				c0.0209961,0.0039063,2.1508789,0.4287109,4.5302734,0.4287109c0.8574219,0,1.6494141-0.0546875,2.3544922-0.1630859
				c3.1972656-0.4921875,9.59375-1.9287109,9.6582031-1.9433594c0.1240234-0.0273438,0.25-0.0048828,0.3554688,0.0625
				s0.1787109,0.1748047,0.2050781,0.296875l0.3876953,1.8378906c0.0449219,0.2167969-0.0664063,0.4355469-0.2685547,0.5244141
				c-0.2011719,0.0898438-0.4335938,0.0263672-0.5644531-0.1484375c0.0087891,0.0185547-0.1083984-0.0595703-0.4140625-0.0595703
				c-0.265625,0-0.5908203,0.0576172-0.9648438,0.1728516C38.6328125,61.6845703,34.6132813,62.4169922,31.5092773,62.4169922z
				 M28.1230469,61.0605469c0.9257813,0.2802734,2.0625,0.421875,3.3862305,0.421875
				c2.1000977,0,5.7739258-0.3613281,11.3491211-2.078125c0.59375-0.1816406,1.0644531-0.2451172,1.4501953-0.2246094
				l-0.1201172-0.5673828c-1.5380859,0.3408203-6.5351563,1.4326172-9.2578125,1.8515625
				c-0.7519531,0.1162109-1.5917969,0.1748047-2.4970703,0.1748047c-1.8012695,0-3.4287109-0.2275391-4.2172852-0.3583984
				L28.1230469,61.0605469z"/>
		</g>
		<path style="fill:#D8D8D8;" d="M27.0439453,39.9804688c-0.1933594,0-0.3500977-0.15625-0.3500977-0.3496094
			s0.1567383-0.3496094,0.3500977-0.3496094c6.8105469-0.0039063,16.8925781-6.2001953,16.9931641-6.2626953
			c0.1650391-0.1000977,0.3808594-0.050293,0.4824219,0.1132813c0.1015625,0.1650391,0.0507813,0.3798828-0.1132813,0.4824219
			C43.9863281,33.8740234,34.0527344,39.9765625,27.0439453,39.9804688L27.0439453,39.9804688z"/>
		<g>
			
				<linearGradient id="SVGID_11_" gradientUnits="userSpaceOnUse" x1="24.0581055" y1="27.5209961" x2="26.9770222" y2="28.2249088">
				<stop  offset="0" style="stop-color:#DF0000"/>
				<stop  offset="0.3857597" style="stop-color:#BD0003"/>
				<stop  offset="1" style="stop-color:#7F0009"/>
			</linearGradient>
			<path style="fill:url(#SVGID_11_);" d="M24.1347656,20.8862305c0,0-0.4326172,9.6416016,1.4394531,13.652832
				l-0.2744141-3.3193359c0,0-0.1445313-2.4780273,0.8886719-3.9057617S25.5478516,21.8862305,24.1347656,20.8862305z"/>
			<path style="fill:#230202;" d="M25.5742188,35.0068359c-0.1782227,0-0.3457031-0.1025391-0.4238281-0.2695313
				c-1.8989258-4.0688477-1.5004883-13.4736328-1.4829102-13.8720703c0.0078125-0.1708984,0.1079102-0.3237305,0.2617188-0.3989258
				c0.152832-0.0761719,0.3369141-0.0610352,0.4755859,0.0380859c1.0532227,0.7451172,2.1958008,2.9018555,2.4951172,4.7094727
				c0.1713867,1.0336914,0.0595703,1.8325195-0.3325195,2.3745117c-0.9213867,1.2729492-0.8017578,3.581543-0.8007813,3.6044922
				l0.2739258,3.3081055c0.0185547,0.2255859-0.1274414,0.4316406-0.3461914,0.4902344
				C25.6542969,35.0019531,25.6137695,35.0068359,25.5742188,35.0068359z M24.5717773,22.019043
				c-0.0288086,1.6318359-0.0239258,4.7944336,0.3242188,7.6943359c0.1030273-0.8520508,0.3481445-1.8920898,0.9135742-2.6738281
				c0.2333984-0.3222656,0.2929688-0.9165039,0.1674805-1.6728516
				C25.7905273,24.2412109,25.2045898,22.8974609,24.5717773,22.019043z"/>
		</g>
		<path style="fill:#230202;" d="M30.9462891,14.0527344c0,0,1.8330078,6.1503906,0,5.4501953
			S30.9462891,13.1357422,30.9462891,14.0527344z"/>
		<path style="fill:#230202;" d="M36.2753906,10.3862305c0,0,0.6865234,7.4995117,1.0244141,7.9165039
			s-1.2128906,3.8974609-1.5205078-0.9262695S36.2753906,10.3862305,36.2753906,10.3862305z"/>
		<path style="fill:#230202;" d="M41.3652344,16.7553711c0,0,2.5185547,3.6303711,0.5625,3.7973633
			S41.6289063,19.1206055,41.3652344,16.7553711z"/>
		<path style="fill:#230202;" d="M31.5546875,62.2802734c-1.2304688,0-2.9379883-0.078125-4.0859375-0.4501953
			c-0.2124023-0.0693359-0.3466797-0.2792969-0.3198242-0.5009766l0.2416992-2.0117188
			c-0.1914063-1.0517578-2.0522461-11.4677734-1.434082-14.7890625c-0.6474609-1.5585938,0.546875-4.8603516,0.9501953-5.8867188
			c-0.9042969-1.0556641-4.8862305-5.6948242-6.487793-7.3696289c-1.6098633-1.6826172-2.0737305-5.3447266-2.4467773-8.2871094
			c-0.1772461-1.4003906-0.3603516-2.8486328-0.6123047-3.2177734l-1.815918-4.0224609
			c-0.0986328-0.2202148-0.0136719-0.4799805,0.1962891-0.5986328l1.7299805-0.9804688
			c0.0654297-0.0546875,0.1494141-0.1025391,0.2524414-0.1430664l0.0761719-0.0429688
			c0.090332-0.0512695,0.1879883-0.0688477,0.2841797-0.0581055c0.1254883-0.0229492,0.2744141-0.0395508,0.4428711-0.0395508
			c1.0180664,0,2.9702148,0.6279297,4.6064453,4.8349609c0.2133789,0.6738281,0.4750977,1.4018555,0.7138672,1.9853516
			c0.0732422-0.9804688,0.1767578-2.453125,0.300293-4.4287109c0.1396484-2.2363281,0.4282227-4.9267578,0.6826172-7.300293
			c0.1953125-1.8208008,0.3637695-3.3930664,0.3999023-4.1914063c0.0649414-1.4370117,1.7910156-2.3261719,3.3525391-2.3261719
			c0.7470703,0,1.3925781,0.1967773,1.8681641,0.5556641c0.2368164-0.4453125,0.6459961-0.965332,1.3286133-1.2280273
			c0.3364258-0.1293945,0.7719727-0.2006836,1.2265625-0.2006836c1.5126953,0,3.1015625,0.777832,3.2402344,2.5161133
			l0.0019531,2.7548828c0.7207031-0.059082,2.0771484-0.0522461,3.3564453,0.715332
			c1.6337891,0.9799805,1.7431641,3.8759766,1.7333984,4.8222656c0.8076172,0.5737305,3.4189453,2.7226563,3.4941406,6.5693359
			c-0.0947266,0.7700195-0.1816406,2.0566406-0.0244141,2.527832c0.2919922,0.8745117,0.2597656,3.8867188,0.0302734,5.7944336
			l0.6503906,3.0908203c0.0185547,0.0878906,0.0107422,0.1796875-0.0214844,0.2636719l-0.390625,1.0161133l-0.1621094,2.5947266
			c-0.0058594,0.09375-0.0400391,0.1835938-0.0976563,0.2578125c-0.0107422,0.015625-1.5957031,2.3251953-0.5800781,11.0820313
			l2.1337891,4.5146484c0.0751953,0.2021484,1.4199219,3.9667969,1.140625,7.0917969l0.9208984,1.5341797
			c0.1201172,0.2001953,0.0732422,0.4589844-0.109375,0.6054688l-1.6660156,1.3339844
			c-0.1367188,0.1083984-0.3242188,0.1318359-0.4833984,0.0615234c-0.0107422-0.0048828-1.0830078-0.4775391-2.3896484-0.4775391
			c-0.7558594,0-1.4414063,0.1572266-2.0380859,0.4658203C40.1103516,61.5644531,35.4443359,62.2802734,31.5546875,62.2802734z
			 M28.1254883,61.0429688c0.8193359,0.1982422,1.9926758,0.3017578,3.4291992,0.3017578
			c3.7011719,0,8.2617188-0.6806641,9.7597656-1.4570313c0.7304688-0.3789063,1.5605469-0.5712891,2.4677734-0.5712891
			c1.1103516,0,2.0546875,0.2880859,2.5009766,0.4511719l1.1347656-0.9082031l-0.7900391-1.3164063
			c-0.0517578-0.0869141-0.0742188-0.1894531-0.0634766-0.2900391c0.3173828-2.9384766-1.0439453-6.7529297-1.0576172-6.7910156
			l-2.1503906-4.5429688c-0.0214844-0.0458984-0.0361328-0.0957031-0.0419922-0.1455078
			c-0.9648438-8.2353516,0.3076172-11.0810547,0.6728516-11.7041016l0.1591797-2.5458984
			c0.0029297-0.0473633,0.0126953-0.0942383,0.0302734-0.1381836l0.3662109-0.9545898l-0.6376953-3.0317383
			c-0.0107422-0.0507813-0.0126953-0.1030273-0.0058594-0.1542969c0.2539063-2.0302734,0.2255859-4.8432617,0.0205078-5.4604492
			c-0.2763672-0.828125-0.0478516-2.6679688-0.0205078-2.875c-0.0810547-3.8779297-3.2480469-5.8540039-3.2792969-5.8735352
			c-0.1455078-0.0888672-0.2314453-0.25-0.2236328-0.4204102c0.0410156-0.9428711-0.1064453-3.5439453-1.2734375-4.2446289
			c-1.5332031-0.9194336-3.2402344-0.5288086-3.2451172-0.5273438c-0.1435547,0.0307617-0.2841797-0.0058594-0.3925781-0.09375
			c-0.109375-0.0888672-0.1738281-0.222168-0.1738281-0.3632813v-3.25c-0.125-1.5385742-1.9433594-1.6181641-2.3066406-1.6181641
			c-0.3378906,0-0.6621094,0.050293-0.890625,0.1381836c-0.8222656,0.3164063-1.0405273,1.3139648-1.0429688,1.3237305
			C31.03125,4.1704102,30.8779297,4.3168945,30.6860352,4.347168c-0.1914063,0.0268555-0.3828125-0.0610352-0.4790039-0.2290039
			c-0.375-0.65625-1.2617188-0.7270508-1.6254883-0.7270508c-1.1132813,0-2.3798828,0.5883789-2.4179688,1.4326172
			c-0.0375977,0.8271484-0.2075195,2.4130859-0.4042969,4.2490234c-0.253418,2.3637695-0.5405273,5.0429688-0.6791992,7.2592773
			c-0.2475586,3.9599609-0.4160156,5.9091797-0.4179688,5.9282227c-0.012207,0.1425781-0.0893555,0.2719727-0.2089844,0.3505859
			c-0.1206055,0.078125-0.2700195,0.0981445-0.4047852,0.0527344c-0.1796875-0.0600586-0.7260742-0.2421875-1.7978516-3.6367188
			c-1.4780273-3.796875-3.0976563-4.2099609-3.7246094-4.2099609c-0.1914063,0-0.3344727,0.0341797-0.4116211,0.0585938
			l-0.0268555,0.015625c-0.0195313,0.0166016-0.0712891,0.0415039-0.1044922,0.0551758l-1.4111328,0.8027344l1.6010742,3.5625
			c0.3208008,0.4580078,0.4790039,1.59375,0.7275391,3.5556641c0.3364258,2.6582031,0.7978516,6.2983398,2.1943359,7.7583008
			c1.8212891,1.9042969,6.6586914,7.5668945,6.7070313,7.6235352c0.1142578,0.1337891,0.144043,0.3203125,0.0766602,0.4833984
			c-0.6748047,1.6269531-1.5493164,4.5615234-1.0234375,5.5087891c0.0561523,0.1015625,0.0727539,0.2197266,0.0473633,0.3320313
			c-0.6953125,3.0371094,1.3999023,14.5292969,1.4208984,14.6455078c0.0083008,0.0458984,0.0097656,0.0927734,0.0043945,0.1396484
			L28.1254883,61.0429688z"/>
		<linearGradient id="SVGID_12_" gradientUnits="userSpaceOnUse" x1="38.5625" y1="40.0751953" x2="49.1464844" y2="40.4082031">
			<stop  offset="0" style="stop-color:#DF0000"/>
			<stop  offset="0.2939724" style="stop-color:#BD0002"/>
			<stop  offset="0.9411341" style="stop-color:#660008"/>
			<stop  offset="1" style="stop-color:#5E0009"/>
		</linearGradient>
		<path style="fill:url(#SVGID_12_);" d="M44.2314453,34.6210938L42.671875,34.96875c0,0-6.2246094,0.5820313-7.8085938,0.5
			c-1.5839844-0.0839844-3.1679688,2.75-3.25,4c-0.0839844,1.25,2.0820313,3.4160156,4.1660156,3.6660156
			s8.4521484,2.8339844,8.4521484,2.8339844s0.7978516,0.1992188,0.5478516-0.9667969s-0.6396484-5.3710938,0.0488281-9.2832031
			C45.1162109,34.8027344,44.7988281,34.3398438,44.2314453,34.6210938z"/>
		<g>
			
				<rect x="44.4461365" y="44.6692352" transform="matrix(0.9257267 0.3781932 -0.3781932 0.9257267 20.3020496 -13.5383797)" style="fill:#600606;" width="0.346012" height="0.4994237"/>
			<path style="fill:#600606;" d="M44.2773438,45.0498047l-0.640625-0.2558594l0.1835938-0.4648438l0.5869141,0.234375
				L44.2773438,45.0498047z M43.5439453,44.7568359l-0.6425781-0.2539063l0.1835938-0.4648438l0.6445313,0.2539063
				L43.5439453,44.7568359z M42.8105469,44.4677734L42.1669922,44.21875l0.1796875-0.4667969l0.6455078,0.2509766
				L42.8105469,44.4677734z M42.0761719,44.1835938L41.4296875,43.9375l0.1777344-0.4667969l0.6464844,0.2460938
				L42.0761719,44.1835938z M41.3388672,43.9042969l-0.6464844-0.2412109l0.1738281-0.46875l0.6484375,0.2412109
				L41.3388672,43.9042969z M40.5996094,43.6289063l-0.6484375-0.234375l0.1679688-0.4707031l0.6523438,0.2363281
				L40.5996094,43.6289063z M39.859375,43.3613281l-0.6503906-0.2265625l0.1621094-0.4726563l0.6542969,0.2285156
				L39.859375,43.3613281z M39.1162109,43.1035156c-0.2236328-0.0751953-0.4414063-0.1484375-0.6523438-0.2148438
				l0.1523438-0.4765625c0.2128906,0.0683594,0.4345703,0.1416016,0.6601563,0.21875L39.1162109,43.1035156z M38.3710938,42.8583984
				c-0.2294922-0.0722656-0.4492188-0.1396484-0.65625-0.1992188l0.140625-0.4804688
				c0.2089844,0.0615234,0.4326172,0.1289063,0.6660156,0.203125L38.3710938,42.8583984z M37.6220703,42.6318359
				c-0.2421875-0.0673828-0.4628906-0.1240234-0.65625-0.1660156l0.1054688-0.4882813
				c0.203125,0.0439453,0.4335938,0.1025391,0.6855469,0.1738281L37.6220703,42.6318359z M36.8740234,42.4472656
				l-0.1591797-0.0283203c-0.1816406-0.0292969-0.3574219-0.0654297-0.5283203-0.1064453l0.1171875-0.4863281
				c0.1591797,0.0390625,0.3232422,0.0712891,0.4912109,0.0986328c0.0566406,0.0097656,0.1152344,0.0195313,0.1767578,0.0322266
				L36.8740234,42.4472656z M36.0869141,42.2880859c-0.2392578-0.0625-0.4658203-0.1347656-0.6835938-0.2177734l0.1777344-0.4667969
				c0.2001953,0.0751953,0.4111328,0.1435547,0.6308594,0.2001953L36.0869141,42.2880859z M35.3076172,42.0332031
				c-0.2265625-0.0908203-0.4453125-0.1943359-0.6523438-0.3085938l0.2421875-0.4375
				c0.1884766,0.1035156,0.3886719,0.1992188,0.5957031,0.28125L35.3076172,42.0332031z M34.5654297,41.6748047
				c-0.2128906-0.1230469-0.4160156-0.2587891-0.6015625-0.4023438l0.3066406-0.3945313
				c0.1669922,0.1289063,0.3505859,0.2519531,0.5449219,0.3632813L34.5654297,41.6748047z M33.8837891,41.2080078
				c-0.1894531-0.1523438-0.3691406-0.3183594-0.5322266-0.4941406l0.3671875-0.3398438
				c0.1464844,0.1582031,0.3076172,0.3076172,0.4775391,0.4453125L33.8837891,41.2080078z M33.28125,40.6367188
				c-0.1630859-0.1826172-0.3105469-0.3779297-0.4404297-0.5810547l0.421875-0.2695313
				c0.1152344,0.1816406,0.2470703,0.3554688,0.3916016,0.5185547L33.28125,40.6367188z M32.7861328,39.9667969
				c-0.0361328-0.0595703-0.0703125-0.1201172-0.1030273-0.1806641l-0.0429688-0.0810547l0.019043-0.0888672
				c0.0341797-0.1591797,0.0786133-0.3291016,0.1352539-0.5039063l0.4760742,0.1542969
				c-0.0410156,0.125-0.0742188,0.2470703-0.1015625,0.3632813c0.0146484,0.0263672,0.0292969,0.0517578,0.0449219,0.0771484
				L32.7861328,39.9667969z M33.2988281,39.1767578l-0.4731445-0.1621094
				c0.0800781-0.2333984,0.1738281-0.4580078,0.2788086-0.6679688l0.4472656,0.2246094
				C33.4560547,38.7607422,33.3710938,38.9638672,33.2988281,39.1767578z M33.5957031,38.4873047l-0.4433594-0.2324219
				c0.1181641-0.2236328,0.2490234-0.4306641,0.3886719-0.6181641L33.9414063,37.9375
				C33.8164063,38.1025391,33.7001953,38.2880859,33.5957031,38.4873047z M33.9970703,37.8642578l-0.390625-0.3105469
				c0.1611328-0.203125,0.3369141-0.3818359,0.5224609-0.53125l0.3125,0.390625
				C34.2851563,37.5380859,34.1357422,37.6904297,33.9970703,37.8642578z M34.5117188,37.3574219l-0.2988281-0.4003906
				c0.2060547-0.1552734,0.4296875-0.2783203,0.6621094-0.3662109l0.1777344,0.4667969
				C34.8632813,37.1298828,34.6816406,37.2304688,34.5117188,37.3574219z M35.0634766,37.0625l-0.0039063-0.5
				c0.1542969-0.0009766,0.390625-0.0039063,0.6884766-0.0107422l0.0117188,0.5
				C35.4580078,37.0585938,35.2197266,37.0615234,35.0634766,37.0625z M35.8583984,37.0498047l-0.0117188-0.5l0.6904297-0.0175781
				l0.0136719,0.5L35.8583984,37.0498047z M36.6503906,37.0292969l-0.015625-0.5l0.6914063-0.0224609l0.015625,0.5
				L36.6503906,37.0292969z M37.4414063,37.0039063l-0.0175781-0.5l0.6894531-0.0263672l0.0214844,0.5L37.4414063,37.0039063z
				 M38.2333984,36.9726563l-0.0214844-0.5l0.6894531-0.03125l0.0234375,0.5L38.2333984,36.9726563z M39.0234375,36.9375L39,36.4375
				c0.2275391-0.0107422,0.4570313-0.0224609,0.6875-0.0361328l0.0292969,0.5
				C39.484375,36.9150391,39.2529297,36.9267578,39.0234375,36.9375z M39.8144531,36.8955078l-0.0273438-0.5
				c0.2294922-0.0126953,0.4589844-0.0253906,0.6875-0.0410156l0.0332031,0.4980469
				C40.2773438,36.8681641,40.0458984,36.8828125,39.8144531,36.8955078z M40.6064453,36.8466797l-0.0332031-0.4980469
				l0.6875-0.0488281l0.0371094,0.4980469L40.6064453,36.8466797z M41.3974609,36.7900391l-0.0390625-0.4980469
				c0.234375-0.0185547,0.4638672-0.0380859,0.6865234-0.0585938l0.0449219,0.4980469
				C41.8652344,36.7519531,41.6337891,36.7714844,41.3974609,36.7900391z M42.1894531,36.7216797l-0.046875-0.4980469
				c0.2363281-0.0224609,0.4648438-0.0449219,0.6816406-0.0703125l0.0585938,0.4960938
				C42.6621094,36.6748047,42.4296875,36.6992188,42.1894531,36.7216797z M42.9804688,36.6386719l-0.0585938-0.4960938
				c0.2421875-0.0292969,0.46875-0.0595703,0.6767578-0.0917969l0.0761719,0.4941406
				C43.4609375,36.5771484,43.2285156,36.609375,42.9804688,36.6386719z M43.7744141,36.5292969l-0.0800781-0.4941406
				c0.2519531-0.0400391,0.4726563-0.0839844,0.6552734-0.1308594l0.125,0.484375
				C44.2802734,36.4394531,44.0439453,36.4853516,43.7744141,36.5292969z"/>
			<path style="fill:#600606;" d="M44.5703125,36.3623047l-0.1367188-0.4804688
				c0.1513672-0.0429688,0.2353516-0.0791016,0.2792969-0.1015625l0.2304688,0.4433594
				C44.8476563,36.2734375,44.7255859,36.3183594,44.5703125,36.3623047z"/>
		</g>
		<path style="fill:#230202;" d="M44.3564453,46.4492188L44.3564453,46.4492188
			c-0.1210938,0-0.2128906-0.0205078-0.2382813-0.0263672c-0.1259766-0.0458984-6.3964844-2.5839844-8.3945313-2.8232422
			C33.5625,43.3398438,31.0385742,41.0449219,31.1464844,39.4375c0.0869141-1.3232422,1.7084961-4.4384766,3.6474609-4.4384766
			c0.1914063,0.0078125,0.3076172,0.0097656,0.4394531,0.0097656c1.9619141,0,7.3408203-0.5009766,7.3945313-0.5058594
			l1.4511719-0.3271484c0.4443359-0.1992188,0.8798828-0.1025391,1.1240234,0.2314453
			c0.2421875,0.3291016,0.2666016,0.8310547,0.0712891,1.4521484c-0.6738281,3.8623047-0.2646484,7.9863281-0.0380859,9.0449219
			c0.1162109,0.5400391,0.0625,0.9394531-0.1640625,1.21875C44.9023438,46.3339844,44.6484375,46.4492188,44.3564453,46.4492188z
			 M34.8378906,35.9355469c-1.2539063,0-2.6865234,2.4726563-2.7578125,3.5634766
			c-0.0634766,0.9443359,1.8417969,2.9414063,3.7548828,3.1708984c2.1220703,0.2548828,8.3095703,2.7587891,8.5722656,2.8652344
			l-0.0507813-0.0214844c0.0029297,0,0.0058594,0,0.0087891,0c-0.0087891-0.0185547,0.015625-0.1386719-0.0429688-0.4140625
			c-0.2373047-1.1054688-0.6669922-5.4023438,0.0449219-9.4619141c0.0986328-0.3203125,0.1074219-0.5126953,0.0966797-0.609375
			c-0.0078125,0.0039063-0.015625,0.0078125-0.0244141,0.0117188c-0.0341797,0.0166016-0.0693359,0.0292969-0.1064453,0.0371094
			l-1.5595703,0.3476563c-0.3017578,0.0322266-6.3388672,0.5966797-7.9345703,0.5107422
			C34.8388672,35.9355469,34.8388672,35.9355469,34.8378906,35.9355469z"/>
	</g>
</g>
</svg>
