<?xml version="1.0" encoding="utf-8"?>
<!-- Generator: Adobe Illustrator 18.0.0, SVG Export Plug-In . SVG Version: 6.00 Build 0)  -->
<!DOCTYPE svg PUBLIC "-//W3C//DTD SVG 1.1//EN" "http://www.w3.org/Graphics/SVG/1.1/DTD/svg11.dtd">
<svg version="1.1" id="レイヤー_1" xmlns="http://www.w3.org/2000/svg" xmlns:xlink="http://www.w3.org/1999/xlink" x="0px"
	 y="0px" width="64px" height="64px" viewBox="0 0 64 64" style="enable-background:new 0 0 64 64;" xml:space="preserve">
<g>
	<linearGradient id="SVGID_1_" gradientUnits="userSpaceOnUse" x1="10.4463701" y1="10.4463558" x2="53.5536308" y2="53.5536156">
		<stop  offset="0" style="stop-color:#C4BB0C"/>
		<stop  offset="1" style="stop-color:#D1A000"/>
	</linearGradient>
	<path style="fill:url(#SVGID_1_);" d="M32,1.5185547c-16.8344383,0-30.4814472,13.6470089-30.4814472,30.4814491
		S15.1655607,62.4813843,32,62.4813843s30.4814491-13.6469421,30.4814491-30.4813805S48.8344383,1.5185547,32,1.5185547z
		 M32,41.7754135c-5.3988209,0-9.7754745-4.3765907-9.7754745-9.7754097S26.6011791,22.2245274,32,22.2245274
		s9.7754745,4.3766537,9.7754745,9.7754765S37.3988228,41.7754135,32,41.7754135z"/>
	<linearGradient id="SVGID_2_" gradientUnits="userSpaceOnUse" x1="12.0373611" y1="12.0373459" x2="51.9626389" y2="51.9626236">
		<stop  offset="0" style="stop-color:#DED533"/>
		<stop  offset="1" style="stop-color:#EBBD28"/>
	</linearGradient>
	<path style="fill:url(#SVGID_2_);" d="M32,3.7685547C16.4082031,3.7685547,3.7685547,16.4082031,3.7685547,32
		S16.4082031,60.2313843,32,60.2313843S60.2314453,47.5917969,60.2314453,32S47.5917969,3.7685547,32,3.7685547z M32,41.053833
		c-5.0003052,0-9.053894-4.0535278-9.053894-9.053833S26.9996948,22.946106,32,22.946106S41.053894,26.9996948,41.053894,32
		S37.0003052,41.053833,32,41.053833z"/>
	<g>
		<linearGradient id="SVGID_3_" gradientUnits="userSpaceOnUse" x1="9.8339052" y1="9.8338947" x2="54.1660957" y2="54.1660843">
			<stop  offset="0" style="stop-color:#DED533"/>
			<stop  offset="1" style="stop-color:#EBBD28"/>
		</linearGradient>
		<path style="fill:url(#SVGID_3_);" d="M32,0.6524081C14.6872187,0.6524081,0.6524081,14.6871595,0.6524081,32
			c0,17.3127823,14.034811,31.3475914,31.3475914,31.3475914S63.3475914,49.3127823,63.3475914,32
			C63.3475914,14.6871595,49.3127823,0.6524081,32,0.6524081z M32,61.5C15.7075806,61.5,2.5,48.2923584,2.5,32
			C2.5,15.7075806,15.7075806,2.5,32,2.5S61.5,15.7075806,61.5,32C61.5,48.2923584,48.2924194,61.5,32,61.5z"/>
		<path style="fill:#F39800;" d="M32,63.5976563C14.5771484,63.5976563,0.4023438,49.4228516,0.4023438,32
			S14.5771484,0.4023438,32,0.4023438S63.5976563,14.5771484,63.5976563,32S49.4228516,63.5976563,32,63.5976563z M32,0.9023438
			C14.8525391,0.9023438,0.9023438,14.8525391,0.9023438,32S14.8525391,63.0976563,32,63.0976563
			S63.0976563,49.1474609,63.0976563,32S49.1474609,0.9023438,32,0.9023438z M32,61.75C15.5957031,61.75,2.25,48.4042969,2.25,32
			S15.5957031,2.25,32,2.25S61.75,15.5957031,61.75,32S48.4042969,61.75,32,61.75z M32,2.75C15.871582,2.75,2.75,15.871582,2.75,32
			c0,16.1289063,13.121582,29.25,29.25,29.25c16.1289063,0,29.25-13.1210938,29.25-29.25C61.25,15.871582,48.1289063,2.75,32,2.75z"
			/>
	</g>
	<g>
		<g>
			<polygon style="fill:#FFDD43;" points="30.8867836,20.9277706 30.5157127,23.8963451 33.4842873,23.8963451 
				33.1132164,20.9277706 			"/>
			<path style="fill:#F39800;" d="M33.7675781,24.1464844h-3.5351563l0.4335938-3.46875h2.6679688L33.7675781,24.1464844z
				 M30.7988281,23.6464844h2.4023438l-0.3085938-2.46875h-1.7851563L30.7988281,23.6464844z"/>
		</g>
		<g>
			<polygon style="fill:#FFDD43;" points="27.1669941,21.9762497 27.8336124,24.8927116 30.6231613,23.8773994 
				29.2591553,21.2147655 			"/>
			<path style="fill:#F39800;" d="M27.652832,25.2241211l-0.7788086-3.4077148l2.5073242-0.9121094l1.5932617,3.1113281
				L27.652832,25.2241211z M27.4599609,22.1357422l0.5541992,2.425293l2.2573242-0.8217773l-1.1342773-2.2138672
				L27.4599609,22.1357422z"/>
		</g>
		<g>
			<polygon style="fill:#FFDD43;" points="24.0301361,24.2337399 25.6540413,26.7463207 27.9281006,24.8381577 
				25.7356796,22.802618 			"/>
			<path style="fill:#F39800;" d="M25.5976563,27.1196289l-1.8969727-2.9355469l2.043457-1.7148438l2.5615234,2.378418
				L25.5976563,27.1196289z M24.3598633,24.2836914l1.3500977,2.0888672l1.8408203-1.5439453l-1.8232422-1.6923828
				L24.3598633,24.2836914z"/>
		</g>
		<g>
			<polygon style="fill:#FFDD43;" points="21.8545589,27.4279575 24.2398853,29.2336025 25.7241726,26.6627426 
				22.9677753,25.4998112 			"/>
			<path style="fill:#F39800;" d="M24.3144531,29.6035156l-2.7866211-2.1098633l1.3339844-2.3095703l3.2202148,1.3583984
				L24.3144531,29.6035156z M22.1811523,27.3618164l1.9838867,1.5014648l1.2011719-2.0805664l-2.2924805-0.9667969
				L22.1811523,27.3618164z"/>
		</g>
		<g>
			<polygon style="fill:#FFDD43;" points="20.9026737,31.1736298 23.761713,32.054554 24.2772007,29.1310768 21.2892895,28.9810238 
							"/>
			<path style="fill:#F39800;" d="M23.9589844,32.3769531l-3.3408203-1.0292969l0.4628906-2.6274414l3.4916992,0.175293
				L23.9589844,32.3769531z M21.1875,31l2.3774414,0.7324219l0.4169922-2.3662109l-2.4848633-0.1245117L21.1875,31z"/>
		</g>
		<g>
			<polygon style="fill:#FFDD43;" points="21.2892895,35.0189743 24.2772007,34.8689232 23.761713,31.9454479 
				20.9026737,32.8263702 			"/>
			<path style="fill:#F39800;" d="M21.0810547,35.2792969l-0.4628906-2.6269531l3.3408203-1.0292969l0.6137695,3.4814453
				L21.0810547,35.2792969z M21.1875,33l0.3095703,1.7578125l2.4848633-0.1240234l-0.4169922-2.3662109L21.1875,33z"/>
		</g>
		<g>
			<polygon style="fill:#FFDD43;" points="22.9677753,38.5001869 25.7241726,37.3372574 24.2398853,34.7663956 
				21.8545589,36.5720406 			"/>
			<path style="fill:#F39800;" d="M22.8618164,38.8164063l-1.3339844-2.3105469l2.7866211-2.109375l1.7675781,3.0605469
				L22.8618164,38.8164063z M22.1811523,36.6386719l0.8925781,1.5449219l2.2924805-0.9667969l-1.2011719-2.0800781
				L22.1811523,36.6386719z"/>
		</g>
		<g>
			<polygon style="fill:#FFDD43;" points="25.7356796,41.1973801 27.9281006,39.1618423 25.6540413,37.2536774 
				24.0301361,39.7662582 			"/>
			<path style="fill:#F39800;" d="M25.7441406,41.5302734l-2.043457-1.7138672l1.8969727-2.9365234l2.7080078,2.2724609
				L25.7441406,41.5302734z M24.3598633,39.7167969l1.3676758,1.1474609l1.8232422-1.6923828l-1.8408203-1.5439453
				L24.3598633,39.7167969z"/>
		</g>
		<g>
			<polygon style="fill:#FFDD43;" points="29.2591553,42.7852364 30.6231613,40.1226006 27.8336124,39.1072884 
				27.1669941,42.0237503 			"/>
			<path style="fill:#F39800;" d="M29.3813477,43.0957031l-2.5073242-0.9130859l0.7788086-3.4072266l3.3217773,1.2099609
				L29.3813477,43.0957031z M27.4599609,41.8642578l1.6772461,0.6103516l1.1342773-2.2138672l-2.2573242-0.8212891
				L27.4599609,41.8642578z"/>
		</g>
		<g>
			<polygon style="fill:#FFDD43;" points="33.1132164,43.0722313 33.4842873,40.1036568 30.5157127,40.1036568 
				30.8867836,43.0722313 			"/>
			<path style="fill:#F39800;" d="M33.3339844,43.3222656h-2.6679688l-0.4335938-3.46875h3.5351563L33.3339844,43.3222656z
				 M31.1074219,42.8222656h1.7851563l0.3085938-2.46875h-2.4023438L31.1074219,42.8222656z"/>
		</g>
		<g>
			<polygon style="fill:#FFDD43;" points="36.8330078,42.0237503 36.1663857,39.1072884 33.3768387,40.1226006 
				34.7408447,42.7852364 			"/>
			<path style="fill:#F39800;" d="M34.6191406,43.0957031l-1.59375-3.1103516l3.3212891-1.2099609l0.7792969,3.4072266
				L34.6191406,43.0957031z M33.7285156,40.2607422l1.1347656,2.2138672l1.6767578-0.6103516l-0.5546875-2.4248047
				L33.7285156,40.2607422z"/>
		</g>
		<g>
			<polygon style="fill:#FFDD43;" points="39.9698639,39.7662582 38.3459587,37.2536774 36.0718994,39.1618423 
				38.2643204,41.1973801 			"/>
			<path style="fill:#F39800;" d="M38.2558594,41.5302734l-2.5615234-2.3779297l2.7080078-2.2724609l1.8974609,2.9365234
				L38.2558594,41.5302734z M36.4501953,39.171875l1.8232422,1.6923828l1.3662109-1.1474609l-1.3505859-2.0888672
				L36.4501953,39.171875z"/>
		</g>
		<g>
			<polygon style="fill:#FFDD43;" points="42.1454391,36.5720406 39.7601166,34.7663956 38.2758293,37.3372574 
				41.0322266,38.5001869 			"/>
			<path style="fill:#F39800;" d="M41.1386719,38.8164063l-3.2216797-1.359375l1.7675781-3.0605469l2.7880859,2.109375
				L41.1386719,38.8164063z M38.6337891,37.2167969l2.2919922,0.9667969l0.8925781-1.5449219l-1.9833984-1.5019531
				L38.6337891,37.2167969z"/>
		</g>
		<g>
			<polygon style="fill:#FFDD43;" points="43.0973244,32.8263702 40.2382851,31.9454479 39.7227974,34.8689232 
				42.7107086,35.0189743 			"/>
			<path style="fill:#F39800;" d="M42.9189453,35.2792969l-3.4912109-0.1748047l0.6132813-3.4814453l3.3408203,1.0292969
				L42.9189453,35.2792969z M40.0175781,34.6337891l2.4853516,0.1240234L42.8134766,33l-2.3779297-0.7324219L40.0175781,34.6337891z
				"/>
		</g>
		<g>
			<polygon style="fill:#FFDD43;" points="42.7107086,28.9810238 39.7227974,29.1310768 40.2382851,32.054554 
				43.0973244,31.1736298 			"/>
			<path style="fill:#F39800;" d="M40.0410156,32.3769531l-0.6132813-3.4814453l3.4912109-0.175293l0.4628906,2.6274414
				L40.0410156,32.3769531z M40.0175781,29.3662109l0.4179688,2.3662109L42.8134766,31l-0.3105469-1.7583008L40.0175781,29.3662109z
				"/>
		</g>
		<g>
			<polygon style="fill:#FFDD43;" points="41.0322266,25.4998112 38.2758293,26.6627426 39.7601166,29.2336025 
				42.1454391,27.4279575 			"/>
			<path style="fill:#F39800;" d="M39.6845703,29.6035156l-1.7675781-3.0610352l3.2216797-1.3583984l1.3339844,2.3095703
				L39.6845703,29.6035156z M38.6337891,26.7827148l1.2011719,2.0805664l1.9833984-1.5014648l-0.8925781-1.5458984
				L38.6337891,26.7827148z"/>
		</g>
		<g>
			<polygon style="fill:#FFDD43;" points="38.2643204,22.802618 36.0718994,24.8381577 38.3459587,26.7463207 
				39.9698639,24.2337399 			"/>
			<path style="fill:#F39800;" d="M38.4023438,27.1196289l-2.7080078-2.2719727l2.5615234-2.378418l2.0439453,1.7148438
				L38.4023438,27.1196289z M36.4501953,24.8291016l1.8388672,1.543457l1.3505859-2.0888672l-1.3662109-1.1474609
				L36.4501953,24.8291016z"/>
		</g>
		<g>
			<polygon style="fill:#FFDD43;" points="34.7408447,21.2147655 33.3768387,23.8773994 36.1663857,24.8927116 
				36.8330078,21.9762497 			"/>
			<path style="fill:#F39800;" d="M36.3466797,25.2241211l-3.3212891-1.2084961l1.59375-3.1113281l2.5068359,0.9121094
				L36.3466797,25.2241211z M33.7285156,23.7392578l2.2568359,0.8217773l0.5546875-2.425293l-1.6767578-0.6103516
				L33.7285156,23.7392578z"/>
		</g>
	</g>
	<g>
		<path style="fill:#FFDD43;" d="M32,22.2715492c-5.3728695,0-9.7284508,4.3555622-9.7284508,9.7284508
			c0,5.3728714,4.3555813,9.7284508,9.7284508,9.7284508S41.7284508,37.3728714,41.7284508,32
			C41.7284508,26.6271114,37.3728714,22.2715492,32,22.2715492z M32,39.7869835
			c-4.3006382,0-7.7869835-3.4863625-7.7869835-7.7869835c0-4.3006382,3.4863453-7.7869835,7.7869835-7.7869835
			S39.7869835,27.6993618,39.7869835,32C39.7869835,36.300621,36.3006363,39.7869835,32,39.7869835z"/>
		<path style="fill:#F39800;" d="M32,41.9785156c-5.5019531,0-9.9785156-4.4765625-9.9785156-9.9785156
			S26.4980469,22.0214844,32,22.0214844S41.9785156,26.4980469,41.9785156,32S37.5019531,41.9785156,32,41.9785156z M32,22.5214844
			c-5.2265625,0-9.4785156,4.2519531-9.4785156,9.4785156S26.7734375,41.4785156,32,41.4785156S41.4785156,37.2265625,41.4785156,32
			S37.2265625,22.5214844,32,22.5214844z M32,40.0371094c-4.4316406,0-8.0371094-3.6054688-8.0371094-8.0371094
			S27.5683594,23.9628906,32,23.9628906S40.0371094,27.5683594,40.0371094,32S36.4316406,40.0371094,32,40.0371094z M32,24.4628906
			c-4.1557617,0-7.5371094,3.3813477-7.5371094,7.5371094c0,4.15625,3.3813477,7.5371094,7.5371094,7.5371094
			c4.15625,0,7.5371094-3.3808594,7.5371094-7.5371094C39.5371094,27.8442383,36.15625,24.4628906,32,24.4628906z"/>
	</g>
	<g>
		<g>
			<path style="fill:#FFDD43;" d="M13.6441717,39.3938789c-0.5496702,0.177578-0.8255243,0.0455971-0.9615068-0.5596085
				c-1.2818499-5.7050858-1.4792509-11.3942413,0.5351067-16.9661961c2.0054703-5.547369,6.0337448-9.145133,11.4516029-11.27631
				c0.3038177-0.1195097,0.6488285-0.2295599,0.9611073-0.2001305c0.2227726,0.0209932,0.521452,0.2412004,0.6098537,0.4479408
				c0.1326561,0.3102388-0.0323944,0.5297546-0.4139671,0.6660843c-7.0667057,2.5248108-11.1753654,7.6180744-12.6232634,14.8723183
				c-0.8510284,4.2638168-0.4665537,8.5414371,0.4030924,12.7781429
				C13.6221886,39.2340202,13.6314592,39.3132973,13.6441717,39.3938789z"/>
			<path style="fill:#F39800;" d="M13.2587891,39.7167969c-0.6337891,0-0.7739258-0.6230469-0.8203125-0.828125
				c-1.4541016-6.4741211-1.2763672-12.0693359,0.5439453-17.1054688
				c1.9194336-5.3085938,5.8203125-9.1523438,11.5957031-11.4238281c0.296875-0.1166992,0.703125-0.2485352,1.0756836-0.2167969
				c0.3110352,0.0292969,0.6923828,0.309082,0.8164063,0.5986328c0.1025391,0.2402344,0.0649414,0.4272461,0.0151367,0.5415039
				c-0.0869141,0.1987305-0.2802734,0.3530273-0.574707,0.4584961c-6.8105469,2.4331055-11.0029297,7.3740234-12.4624023,14.6855469
				c-0.7397461,3.7070313-0.6118164,7.7353516,0.402832,12.6796875c0.0117188,0.0576172,0.0205078,0.1152344,0.0288086,0.1748047
				l0.0112305,0.0732422c0.019043,0.1210938-0.0527344,0.2392578-0.1699219,0.2773438
				C13.5439453,39.6884766,13.3925781,39.7167969,13.2587891,39.7167969z M25.5253906,10.6367188
				c-0.2553711,0-0.5424805,0.1005859-0.7641602,0.1875c-5.6357422,2.2172852-9.4404297,5.9614258-11.3081055,11.1289063
				c-1.7875977,4.9438477-1.9594727,10.4477539-0.5263672,16.8261719c0.0981445,0.4375,0.2387695,0.4375,0.3320313,0.4375
				c0.0307617,0,0.0649414-0.0029297,0.1025391-0.0087891c0-0.0009766,0-0.0009766,0-0.0009766
				c-1.0288086-5.0117188-1.1567383-9.1035156-0.4033203-12.8779297c1.4960938-7.4960938,5.7973633-12.5625,12.7841797-15.0585938
				c0.2167969-0.0776367,0.2714844-0.1572266,0.284668-0.1879883c0.0058594-0.0131836,0.0229492-0.0522461-0.0166016-0.1450195
				c-0.0527344-0.1235352-0.2714844-0.284668-0.4033203-0.296875
				C25.5800781,10.6381836,25.5527344,10.6367188,25.5253906,10.6367188z"/>
		</g>
		<g>
			<path style="fill:#FFDD43;" d="M32.0462151,5.6552839c-0.3402557,0.2434897-0.6299534,0.4309773-0.8976078,0.6459155
				c-0.9527111,0.7650619-1.920763,1.5134926-2.8376846,2.3197618c-0.5799561,0.5099707-0.9903946,1.1454439-1.1316471,1.9510851
				c-0.0637245,0.3634472-0.3308392,0.6912336-0.5714493,0.9982157c-0.0715122-1.3208313-0.2283897-1.4913883-1.3685818-1.448411
				C25.6266499,8.2261591,29.5775948,5.6067033,32.0462151,5.6552839z"/>
			<path style="fill:#F39800;" d="M26.609375,11.7983398c-0.0209961,0-0.0415039-0.0029297-0.0615234-0.0092773
				c-0.0991211-0.03125-0.184082-0.1010742-0.1894531-0.2050781c-0.0644531-1.184082-0.1777344-1.2177734-0.8496094-1.2177734
				c-0.0800781,0-0.1665039,0.0019531-0.2602539,0.0058594c-0.0761719,0.0102539-0.1499023-0.0297852-0.199707-0.0883789
				s-0.0698242-0.1362305-0.0546875-0.2114258c0.4101563-2.0068359,4.3916016-4.6674805,6.984375-4.6674805l0.0727539,0.0004883
				c0.1079102,0.0019531,0.2021484,0.0732422,0.2338867,0.1757813c0.0317383,0.1030273-0.0058594,0.2148438-0.0932617,0.2773438
				l-0.3242188,0.2280273c-0.2026367,0.1411133-0.3876953,0.2695313-0.5629883,0.4101563L30.652832,7.0170898
				c-0.7241211,0.5761719-1.4726563,1.1723633-2.1767578,1.7915039c-0.5839844,0.5136719-0.9277344,1.1044922-1.0507813,1.8066406
				c-0.0712891,0.409668-0.347168,0.7607422-0.5898438,1.0703125C26.7836914,11.7509766,26.6943359,11.7983398,26.609375,11.7983398
				z M25.5776367,9.8666992c0.84375,0.015625,1.1113281,0.3203125,1.2182617,1.0136719
				c0.0668945-0.1166992,0.1166992-0.2338867,0.137207-0.3510742c0.1411133-0.8076172,0.5493164-1.5131836,1.2128906-2.0961914
				c0.7128906-0.6269531,1.4667969-1.2270508,2.1953125-1.8071289l0.6503906-0.5195313
				c0.0454102-0.0366211,0.0917969-0.0722656,0.1386719-0.1074219C28.9814453,6.4414063,26.1870117,8.3505859,25.5776367,9.8666992z
				"/>
		</g>
		<g>
			<path style="fill:#FFDD43;" d="M32.2835388,8.3779917C32.4569016,8.7070379,32.542244,8.86901,32.651104,9.0756283
				c-0.3205299,0.21943-0.6315231,0.4323378-1.056715,0.7234201c0.7847538,0.0826454,1.4297199,0.150569,2.1696796,0.2284966
				c-0.0752983,0.2464266-0.135643,0.4439077-0.1822052,0.5962925c-0.7574348-0.038022-1.4484634-0.07271-2.2693138-0.1139154
				c0.2038822,0.2818842,0.3185272,0.4403887,0.4617996,0.6384764c-0.1312943,0.1053381-0.2642841,0.2120323-0.4660301,0.3738909
				c-0.3208103-1.0081358-1.1222744-0.9245386-1.8849602-0.9269762c-0.6179466-0.0019741-1.2359104-0.0004005-1.8758717-0.0004005
				c-0.1346607-0.4678383,0.1030731-0.6643829,0.5498104-0.7072678c0.2681961-0.0257454,0.5371094-0.0755424,0.8047752-0.0699921
				C30.2132702,9.8448439,31.3609772,9.4572144,32.2835388,8.3779917z"/>
			<path style="fill:#F39800;" d="M31.3081055,11.7724609c-0.0244141,0-0.0483398-0.003418-0.0722656-0.0107422
				c-0.0791016-0.0239258-0.1411133-0.0849609-0.1660156-0.1635742c-0.2231445-0.7011719-0.6787109-0.7539063-1.3481445-0.7539063
				l-0.2617188,0.0009766l-1.3378906-0.0009766l-0.574707,0.0004883c-0.1113281,0-0.2094727-0.0737305-0.2402344-0.1806641
				c-0.0795898-0.2773438-0.0585938-0.5087891,0.0634766-0.6879883c0.1318359-0.1943359,0.3618164-0.3046875,0.7026367-0.3374023
				c0.0786133-0.0073242,0.1572266-0.0170898,0.2358398-0.0268555c0.1831055-0.0224609,0.3662109-0.0444336,0.5488281-0.0444336
				l0.1694336,0.0019531c1.2841797,0,2.2871094-0.4428711,3.0664063-1.3540039
				c0.0541992-0.0629883,0.1367188-0.0976563,0.2177734-0.0859375c0.0825195,0.0092773,0.1547852,0.0585938,0.1933594,0.1318359
				l0.3671875,0.6982422c0.059082,0.1123047,0.0244141,0.2509766-0.0800781,0.3227539L32.2963867,9.621582l1.4936523,0.1572266
				c0.0742188,0.0078125,0.140625,0.0483398,0.1816406,0.1103516c0.0419922,0.0625,0.0527344,0.1396484,0.03125,0.2109375
				l-0.1816406,0.5976563c-0.0332031,0.1088867-0.1357422,0.1904297-0.2519531,0.1757813l-1.7490234-0.0878906l0.1567383,0.2163086
				c0.078125,0.1079102,0.0576172,0.2578125-0.0458984,0.3413086l-0.4667969,0.3740234
				C31.4194336,11.753418,31.3642578,11.7724609,31.3081055,11.7724609z M29.7216797,10.3442383
				c0.5219727,0,1.28125,0,1.6894531,0.7749023l0.0214844-0.0170898L31.1098633,10.65625
				c-0.0561523-0.078125-0.0629883-0.1811523-0.0170898-0.265625c0.0458984-0.0849609,0.1381836-0.1401367,0.2324219-0.1303711
				l2.0742188,0.1044922l0.0371094-0.1206055l-1.8686523-0.1967773c-0.1040039-0.0107422-0.1904297-0.0859375-0.2158203-0.1875
				c-0.0258789-0.1015625,0.0146484-0.2080078,0.1010742-0.2675781l0.8730469-0.597168l-0.0986328-0.1870117
				c-0.8413086,0.8476563-1.8916016,1.2612305-3.199707,1.2612305c-0.0004883,0-0.0004883,0-0.0004883,0l-0.1303711-0.0014648
				c-0.0024414,0-0.0043945,0-0.0063477,0c-0.1982422,0-0.359375,0.0205078-0.5205078,0.0400391
				c-0.0830078,0.0102539-0.1660156,0.0205078-0.2490234,0.0288086c-0.1733398,0.0166016-0.2963867,0.0605469-0.3369141,0.1206055
				c-0.015625,0.0229492-0.0224609,0.0537109-0.0239258,0.0874023l0.9194336-0.0004883l0.7446289,0.0009766L29.7216797,10.3442383z"
				/>
		</g>
		<g>
			<path style="fill:#FFDD43;" d="M52.4577065,23.2009029c0.0874519,0.5741196,0.1749001,1.148241,0.2705536,1.7761974
				c-0.8116531-0.0629005-1.205162-0.4931107-1.5058289-1.0743046c-0.3146057-0.6081352-0.0278015-1.1177063,0.2572289-1.6093903
				c0.0868721-0.1498566,0.3347816-0.2425747,0.5264664-0.288868c0.651226-0.1572742,1.3765221,0.3390713,1.6635742,1.1081905
				c0.2868729,0.7686424,0.0954323,1.3523254-0.6166801,1.7692738c-0.1362267-0.5853081-0.2698364-1.1593647-0.4034462-1.7334194
				C52.5856171,23.1660213,52.5216637,23.1834621,52.4577065,23.2009029z"/>
			<path style="fill:#F39800;" d="M52.7285156,25.2270508c-0.0068359,0-0.0126953-0.0004883-0.0195313-0.0009766
				c-0.9941406-0.0771484-1.421875-0.6538086-1.7080078-1.2084961c-0.3818359-0.7382813-0.0244141-1.3544922,0.2626953-1.8496094
				c0.1337891-0.2314453,0.4453125-0.3491211,0.6835938-0.4067383c0.7539063-0.1826172,1.6279297,0.3833008,1.9570313,1.2641602
				c0.3300781,0.8842773,0.0791016,1.6005859-0.7255859,2.0722656c-0.0673828,0.0400391-0.1523438,0.0458984-0.2246094,0.0136719
				c-0.0039063-0.0014648-0.0078125-0.003418-0.0117188-0.0048828c-0.0087891,0.0141602-0.0185547,0.027832-0.0302734,0.0405273
				C52.8642578,25.1982422,52.7978516,25.2270508,52.7285156,25.2270508z M52.2519531,22.2250977
				c-0.0634766,0-0.1269531,0.0078125-0.1875,0.0224609c-0.2285156,0.0551758-0.3476563,0.1342773-0.3691406,0.1713867
				c-0.3056641,0.527832-0.4882813,0.9086914-0.2509766,1.3691406c0.2275391,0.4384766,0.4921875,0.762207,0.9853516,0.8886719
				l-0.21875-1.4384766c-0.0195313-0.1259766,0.0595703-0.2460938,0.1816406-0.2788086l0.1904297-0.0517578
				c0.0644531-0.0200195,0.1347656-0.0097656,0.1943359,0.0258789c0.0585938,0.034668,0.1005859,0.0917969,0.1152344,0.1582031
				l0.3193359,1.3701172c0.3583984-0.3198242,0.4257813-0.7207031,0.2236328-1.2617188
				C53.2246094,22.6352539,52.7275391,22.2250977,52.2519531,22.2250977z"/>
		</g>
		<g>
			<path style="fill:#FFDD43;" d="M40.5931664,12.3599882c-0.5200653-0.4177599-1.0426598-0.8375502-1.5652504-1.2573385
				c-0.0417519,0.0504694-0.0835075,0.1009378-0.1252594,0.1514072c0.4862709,0.4392099,0.9725456,0.8784199,1.482357,1.338891
				c-0.8762283,0.5410233-1.8529053,0.3917904-2.3731995-0.285161c-0.4030457-0.5244007-0.3566399-1.128933,0.1192207-1.5531359
				c0.6090508-0.5429363,1.6201286-0.5111732,2.2711754,0.0713472
				C40.9232864,11.2922239,40.9820137,11.8372097,40.5931664,12.3599882z"/>
			<path style="fill:#F39800;" d="M39.2900391,13.1713867c-0.5908203,0-1.1289063-0.2592773-1.4765625-0.7114258
				c-0.4794922-0.6235352-0.4189453-1.3837891,0.1513672-1.8916016c0.6816406-0.6079102,1.8818359-0.5737305,2.6044922,0.0712891
				c0.6074219,0.5439453,0.6914063,1.2431641,0.2236328,1.8696289c-0.0380859,0.0517578-0.0957031,0.0864258-0.1582031,0.097168
				c-0.0009766,0.0029297-0.0009766,0.0058594-0.0009766,0.0087891c-0.0068359,0.0786133-0.0507813,0.1489258-0.1171875,0.1904297
				C40.1289063,13.0449219,39.7041016,13.1713867,39.2900391,13.1713867z M39.1943359,10.6176758
				c-0.34375,0-0.6630859,0.1147461-0.8974609,0.3237305c-0.3789063,0.3378906-0.4111328,0.7919922-0.0869141,1.2138672
				c0.3828125,0.4980469,1.0820313,0.6508789,1.7392578,0.3808594l-1.2148438-1.0966797
				c-0.0996094-0.0898438-0.1103516-0.2426758-0.0244141-0.3457031l0.1259766-0.1503906
				c0.0849609-0.105957,0.2412109-0.1220703,0.3486328-0.0356445l1.3417969,1.0776367
				c0.1494141-0.3398438,0.0517578-0.6660156-0.2910156-0.9726563
				C39.9550781,10.7617188,39.5751953,10.6176758,39.1943359,10.6176758z"/>
		</g>
		<g>
			<path style="fill:#FFDD43;" d="M39.4126167,8.6284714c-0.6075439-0.125289-1.2158089-0.2507076-1.82407-0.3761282
				c-0.0176125,0.0630808-0.0352249,0.1261625-0.0528336,0.1892424c0.5871582,0.1592054,1.1743164,0.3184109,1.7752647,0.4813566
				c-0.4160919,0.7840357-1.2654228,1.049098-2.093235,0.7079916c-0.6596909-0.2718325-1.0008736-0.8921251-0.8132591-1.4785662
				c0.208683-0.6523094,1.0805664-1.0635614,1.9101067-0.9009666C39.0430679,7.394187,39.4686165,7.9281797,39.4126167,8.6284714z"
				/>
			<path style="fill:#F39800;" d="M37.9257813,10.0268555c-0.2675781,0-0.5380859-0.0551758-0.8037109-0.1650391
				c-0.78125-0.3217773-1.1835938-1.0732422-0.9560547-1.7856445c0.2402344-0.7519531,1.2333984-1.262207,2.1962891-1.0698242
				c0.8554688,0.1669922,1.3662109,0.8120117,1.2998047,1.6420898C39.65625,8.7197266,39.6201172,8.7851563,39.5634766,8.828125
				c-0.0058594,0.0043945-0.0117188,0.0083008-0.0175781,0.0117188c0.0234375,0.0654297,0.0185547,0.1381836-0.0146484,0.2001953
				C39.1982422,9.6669922,38.6132813,10.0268555,37.9257813,10.0268555z M37.9453125,7.4658203
				c-0.6035156,0-1.1640625,0.328125-1.3027344,0.7626953c-0.1464844,0.4580078,0.1357422,0.9506836,0.6708984,1.1713867
				c0.5986328,0.2470703,1.21875,0.1157227,1.5957031-0.3266602l-1.4150391-0.3842773
				c-0.0644531-0.0175781-0.1308594-0.0629883-0.1640625-0.1210938c-0.0332031-0.0576172-0.0527344-0.1293945-0.0351563-0.1938477
				l0.0527344-0.1889648c0.0361328-0.1264648,0.1601563-0.2050781,0.2919922-0.1772461l1.5136719,0.3120117
				c-0.0703125-0.425293-0.3857422-0.7250977-0.8867188-0.8232422C38.1591797,7.4760742,38.0517578,7.4658203,37.9453125,7.4658203z
				"/>
		</g>
		<g>
			<path style="fill:#FFDD43;" d="M35.6915245,8.1747923c-0.8350296-0.0487061-1.6205559-0.0945263-2.4060783-0.1403446
				c-0.0054512,0.0647259-0.0108986,0.1294518-0.0163498,0.1941776c0.7688789,0.0843401,1.5377579,0.1686821,2.3252678,0.2550659
				c-0.3113861,0.7591648-1.0736198,1.1030664-1.8487816,0.88799c-0.7974243-0.2212543-1.2132034-0.7454653-1.114212-1.4047818
				c0.0957069-0.6374264,0.7893791-1.1181598,1.5884361-1.100831C35.0592499,6.8842735,35.623291,7.3685465,35.6915245,8.1747923z"
				/>
			<path style="fill:#F39800;" d="M34.1992188,9.6845703c-0.1728516,0-0.3476563-0.0239258-0.5205078-0.0722656
				c-0.9165039-0.2539063-1.4125977-0.8989258-1.2944336-1.6826172c0.1123047-0.7490234,0.8833008-1.3139648,1.793457-1.3139648
				c1.0263672,0.0214844,1.6845703,0.6108398,1.7626953,1.5380859c0.0058594,0.0722656-0.0195313,0.1435547-0.0703125,0.1953125
				c-0.0136719,0.0141602-0.0283203,0.0268555-0.0449219,0.0371094c0.0253906,0.0610352,0.0263672,0.1303711,0.0009766,0.1923828
				C35.5458984,9.2607422,34.9228516,9.6845703,34.1992188,9.6845703z M34.2128906,7.1162109
				c-0.6894531,0-1.2597656,0.3901367-1.3344727,0.8876953c-0.0795898,0.5292969,0.2612305,0.9399414,0.9331055,1.1269531
				c0.5429688,0.1489258,1.0751953-0.0268555,1.3818359-0.4394531l-1.9511719-0.2143555
				c-0.1337891-0.0146484-0.2324219-0.1328125-0.2216797-0.2675781l0.015625-0.1938477
				c0.0097656-0.1357422,0.1240234-0.2456055,0.2636719-0.2304688l2.0888672,0.121582
				c-0.1474609-0.4936523-0.5615234-0.7773438-1.1738281-0.7905273C34.2138672,7.1162109,34.2138672,7.1162109,34.2128906,7.1162109
				z"/>
		</g>
		<g>
			<path style="fill:#FFDD43;" d="M47.0753632,23.3738117c0-0.6151028,0-1.1848736,0-1.7546463
				c-0.040123-0.0043926-0.080246-0.0087833-0.1203728-0.013176c-0.0809593,0.6076241-0.1619186,1.2152462-0.2454109,1.8418579
				c-0.7148323-0.1102657-0.9836922-0.5838165-0.9558983-1.1092148c0.0257339-0.4864769,0.216774-1.002058,0.4660683-1.428154
				c0.2462654-0.4209118,0.7000351-0.6375694,1.2334976-0.4992256c0.518116,0.1343651,0.7058411,0.5485706,0.8030052,1.0080624
				C48.4197159,22.1923447,47.8687782,23.1033535,47.0753632,23.3738117z"/>
			<path style="fill:#F39800;" d="M46.7099609,23.6977539c-0.0126953,0-0.0253906-0.0009766-0.0380859-0.0029297
				c-0.7597656-0.1171875-1.2070313-0.6420898-1.1679688-1.3696289c0.0253906-0.4858398,0.203125-1.0332031,0.5-1.5405273
				c0.3105469-0.5327148,0.8925781-0.7753906,1.5117188-0.6157227c0.6943359,0.1801758,0.8945313,0.7705078,0.9853516,1.1992188
				c0.1914063,0.9018555-0.4248047,1.9287109-1.3447266,2.2426758c-0.0771484,0.0249023-0.1611328,0.0126953-0.2265625-0.0336914
				c-0.0009766-0.0009766-0.0029297-0.0019531-0.0039063-0.0029297c-0.0166016,0.0283203-0.0390625,0.0537109-0.0664063,0.0737305
				C46.8164063,23.6806641,46.7636719,23.6977539,46.7099609,23.6977539z M47.1386719,20.6196289
				c-0.2958984,0-0.5458984,0.1479492-0.703125,0.4169922c-0.2568359,0.4399414-0.4111328,0.9072266-0.4316406,1.3154297
				c-0.015625,0.2841797,0.0664063,0.6298828,0.4951172,0.7866211l0.2080078-1.565918
				c0.0175781-0.1337891,0.1279297-0.230957,0.2753906-0.215332l0.1201172,0.0131836
				c0.1269531,0.0141602,0.2226563,0.1210938,0.2226563,0.2485352v1.3510742
				c0.4882813-0.3330078,0.7988281-0.9672852,0.6865234-1.4990234c-0.1044922-0.4936523-0.2841797-0.730957-0.6210938-0.8178711
				C47.3046875,20.6308594,47.2197266,20.6196289,47.1386719,20.6196289z"/>
		</g>
		<g>
			<path style="fill:#FFDD43;" d="M46.6775246,15.3751717c-0.3227005-0.5660372-0.6346321-1.1131792-0.9465637-1.6603222
				c-0.0578346,0.0325718-0.1156693,0.0651426-0.1735077,0.0977135c0.2923355,0.5947371,0.5846672,1.1894741,0.8784256,1.7871046
				c-1.1623611,0.4920168-2.4540291-0.4535685-2.3275032-1.6427755c0.0643387-0.6047058,0.5102654-1.0159044,1.124588-1.0125551
				c0.7169571,0.0039091,1.2084923,0.3869925,1.5214615,0.9973345
				C47.0012436,14.4229927,47.0506973,14.9167652,46.6775246,15.3751717z"/>
			<path style="fill:#F39800;" d="M45.7851563,15.9829102c-0.5537109,0-1.0869141-0.2397461-1.4628906-0.6572266
				c-0.3525391-0.3920898-0.5166016-0.8876953-0.4628906-1.3950195c0.0791016-0.7397461,0.6279297-1.2363281,1.3662109-1.2363281
				c0.7705078,0.0043945,1.3730469,0.3959961,1.7519531,1.1333008c0.328125,0.6420898,0.2929688,1.2158203-0.1064453,1.7050781
				c-0.0458984,0.0571289-0.1142578,0.090332-0.1865234,0.0922852c-0.0029297,0.0209961-0.0068359,0.0419922-0.0146484,0.0620117
				c-0.0244141,0.0644531-0.0732422,0.1162109-0.1367188,0.1425781
				C46.2939453,15.9311523,46.0419922,15.9824219,45.7851563,15.9829102z M45.2324219,13.1943359
				c-0.4833984,0-0.8242188,0.3095703-0.875,0.7890625c-0.0390625,0.3647461,0.0800781,0.7226563,0.3369141,1.0078125
				c0.3447266,0.3847656,0.8935547,0.5654297,1.3896484,0.4594727l-0.7509766-1.527832
				c-0.0576172-0.1186523-0.0136719-0.262207,0.1015625-0.3276367l0.1748047-0.0986328
				c0.1220703-0.065918,0.2724609-0.0244141,0.3388672,0.0947266l0.7236328,1.2685547
				c0.0625-0.2382813,0.015625-0.5014648-0.1396484-0.8041992C46.2363281,13.4794922,45.8105469,13.1972656,45.2324219,13.1943359z"
				/>
		</g>
		<g>
			<path style="fill:#FFDD43;" d="M43.9880981,12.1842041c-0.2376709-0.6259155-1.0214844-1.1143188-1.6925049-1.0570679
				c-0.5214844,0.0444946-0.9788818,0.2442627-1.1587524,0.7885132c-0.0620117,0.1877441-0.0616455,0.4153442-0.0255127,0.6130371
				c0.2005615,1.0986938,1.682312,1.6196289,2.5791016,0.9239502c0.0001221,0.0010986,0.0005493,0.0020752,0.0006714,0.0031738
				c0.0039063-0.0026855,0.0050659-0.0061035,0.0089111-0.0087891c0.0013428-0.0010986,0.0030518-0.0014648,0.0043945-0.0025635
				c0,0-0.0004883-0.0006714-0.0007324-0.0010376C44.1728516,13.111145,44.1660156,12.6529541,43.9880981,12.1842041z"/>
			<path style="fill:#F39800;" d="M42.7392578,14.0180664c-0.9179688,0-1.7236328-0.6210938-1.8740234-1.4443359
				c-0.0273438-0.1518555-0.0595703-0.4492188,0.0341797-0.7358398c0.1894531-0.5751953,0.6523438-0.8979492,1.375-0.9599609
				c0.7792969-0.0727539,1.6708984,0.4916992,1.9472656,1.2172852c0.2529297,0.6660156,0.1328125,1.1835938-0.3554688,1.5395508
				c-0.0087891,0.0078125-0.0166016,0.015625-0.0244141,0.0214844c-0.0117188,0.0078125-0.0224609,0.0151367-0.0341797,0.0209961
				C43.5039063,13.9003906,43.1357422,14.0180664,42.7392578,14.0180664z M42.4042969,11.3725586
				c-0.0292969,0-0.0585938,0.0009766-0.0869141,0.003418c-0.5195313,0.0449219-0.8183594,0.2412109-0.9433594,0.6181641
				c-0.0429688,0.1303711-0.0488281,0.3134766-0.0166016,0.4897461c0.1220703,0.671875,0.8027344,1.0341797,1.3818359,1.0341797
				c0.3007813,0,0.5761719-0.0908203,0.7978516-0.2626953c0.0097656-0.0078125,0.0205078-0.0146484,0.03125-0.0209961
				c0.0039063-0.0019531,0.0068359-0.0043945,0.0107422-0.0063477l0,0c0.2958984-0.2387695,0.3398438-0.5214844,0.1757813-0.9550781
				C43.5683594,11.784668,42.9501953,11.3725586,42.4042969,11.3725586z"/>
		</g>
		<g>
			<path style="fill:#FFDD43;" d="M50.1691666,14.0863419c-0.7005157-0.1720533-1.3651886-0.3353043-2.0298653-0.4985561
				c-0.0189133,0.064827-0.0378304,0.1296539-0.0567474,0.1944818c0.6254196,0.186594,1.250843,0.3731871,1.9444542,0.5801268
				c-0.4933929,0.6450109-1.0605469,0.6515827-1.6695366,0.5135527c-0.6425095-0.145628-1.0964203-0.5057421-1.1986885-1.1774082
				c-0.0766487-0.5034304,0.1791039-0.8711519,0.6210403-1.1094589c0.6435547-0.3470297,1.4788094-0.2443323,2.0158157,0.2694693
				C50.1505623,13.1981354,50.3914986,13.5860758,50.1691666,14.0863419z"/>
			<path style="fill:#F39800;" d="M48.9130859,15.1977539c-0.1816406,0.0004883-0.3759766-0.0244141-0.6113281-0.078125
				c-0.7998047-0.1811523-1.2802734-0.659668-1.3896484-1.3833008c-0.0878906-0.5742188,0.1777344-1.0595703,0.75-1.3676758
				c0.7275391-0.3930664,1.7099609-0.2612305,2.3066406,0.309082c0.1914063,0.1831055,0.7714844,0.7397461,0.4287109,1.5102539
				c-0.0253906,0.0576172-0.0712891,0.1010742-0.125,0.1259766c0.0136719,0.0698242-0.0029297,0.1430664-0.046875,0.2001953
				C49.8730469,14.9741211,49.4443359,15.1977539,48.9130859,15.1977539z M48.5966797,12.6357422
				c-0.2460938,0-0.4873047,0.0600586-0.6982422,0.1733398c-0.3867188,0.2084961-0.5478516,0.4873047-0.4921875,0.8515625
				c0.078125,0.5185547,0.4072266,0.8359375,1.0068359,0.9716797c0.5429688,0.1240234,0.8535156,0.0810547,1.1494141-0.1479492
				l-1.5507813-0.4624023c-0.1318359-0.0395508-0.2070313-0.1767578-0.1689453-0.3085938l0.0576172-0.1972656
				c0.0380859-0.1274414,0.1689453-0.2021484,0.2988281-0.1708984l1.7998047,0.4418945
				c0.0322266-0.2412109-0.0859375-0.4702148-0.3759766-0.7480469
				C49.3554688,12.7827148,48.9814453,12.6357422,48.5966797,12.6357422z"/>
		</g>
		<g>
			<path style="fill:#FFDD43;" d="M52.0037575,17.2373238c-0.4244003-0.365263-0.848671-0.7304115-1.272934-1.0955601
				c-0.0409927,0.0439205-0.0819855,0.0878429-0.1229782,0.1317635c0.4387169,0.3678703,0.8774338,0.7357426,1.330719,1.1158295
				c-0.796669,0.6702232-1.6539268,0.603056-2.29459-0.0114193c-0.5218964-0.5005722-0.6388702-1.1935387-0.2831154-1.6771851
				c0.40345-0.5484905,1.2622375-0.6445398,1.9764175-0.221056C52.0459175,15.8998966,52.3012505,16.5681725,52.0037575,17.2373238z
				"/>
			<path style="fill:#F39800;" d="M50.7685547,18.1157227c-0.46875,0-0.9179688-0.1928711-1.2978516-0.5571289
				c-0.6171875-0.5922852-0.7451172-1.4169922-0.3105469-2.0063477c0.4648438-0.6323242,1.4990234-0.7641602,2.3046875-0.2875977
				c0.8242188,0.4887695,1.1181641,1.2836914,0.7675781,2.0742188c-0.0107422,0.0249023-0.0263672,0.0478516-0.0449219,0.0678711
				c-0.0039063,0.0673828-0.0361328,0.1298828-0.0878906,0.1738281
				C51.6835938,17.9306641,51.2226563,18.1157227,50.7685547,18.1157227z M50.4082031,15.4658203
				c-0.3583984,0-0.6669922,0.1396484-0.8457031,0.3828125c-0.2802734,0.3813477-0.1757813,0.9360352,0.2539063,1.3491211
				c0.5029297,0.4819336,1.1357422,0.546875,1.7177734,0.1787109l-0.0019531-0.0019531l-1.0849609-0.909668
				c-0.0527344-0.0439453-0.0849609-0.1074219-0.0898438-0.1762695c-0.0039063-0.0683594,0.0205078-0.1357422,0.0673828-0.1855469
				l0.1230469-0.1318359c0.0908203-0.0981445,0.2441406-0.1069336,0.3457031-0.019043l0.9755859,0.8393555
				c0.0429688-0.4228516-0.1884766-0.8173828-0.6601563-1.097168
				C50.9570313,15.5449219,50.6806641,15.4658203,50.4082031,15.4658203z"/>
		</g>
		<g>
			<path style="fill:#FFDD43;" d="M46.6536636,11.9790363c-0.6242485-0.3967228-1.2492943-0.7939558-1.8743439-1.1911879
				c-0.0392189,0.0582809-0.0784378,0.1165619-0.1176567,0.1748428c0.5746346,0.4003277,1.1492653,0.8006554,1.7474785,1.217412
				c-0.8070221,0.5014477-1.7842064,0.3182726-2.3010406-0.3777599c-0.3750496-0.5050974-0.3308525-1.0979738,0.1125221-1.5093174
				c0.5975151-0.5543528,1.6829185-0.5022097,2.3192749,0.1114206
				C47.0460625,10.8925257,47.0845909,11.4313536,46.6536636,11.9790363z"/>
			<path style="fill:#F39800;" d="M45.4384766,12.7148438c-0.6132813,0-1.1708984-0.2783203-1.53125-0.7636719
				c-0.4492188-0.6049805-0.3916016-1.3447266,0.1435547-1.8413086c0.6689453-0.6201172,1.9589844-0.5615234,2.6630859,0.1142578
				c0.6005859,0.5800781,0.6494141,1.2583008,0.1357422,1.909668c-0.0488281,0.0620117-0.1210938,0.0947266-0.1953125,0.0952148
				c-0.0136719,0.0673828-0.0537109,0.1264648-0.1132813,0.1635742
				C46.2021484,12.6035156,45.8203125,12.7148438,45.4384766,12.7148438z M45.2763672,10.1586914
				c-0.3505859,0-0.6650391,0.112793-0.8857422,0.3173828c-0.3486328,0.3242188-0.3798828,0.7749023-0.0810547,1.1772461
				c0.3574219,0.4829102,1.0068359,0.6796875,1.6025391,0.4853516l-1.3925781-0.9707031
				c-0.1123047-0.0776367-0.140625-0.2304688-0.0654297-0.34375l0.1181641-0.1757813
				c0.0751953-0.112793,0.2275391-0.144043,0.3408203-0.0712891l1.6699219,1.0610352
				c0.2099609-0.3720703,0.1386719-0.7109375-0.2167969-1.0541992
				C46.0859375,10.3139648,45.6884766,10.1586914,45.2763672,10.1586914z"/>
		</g>
		<g>
			<path style="fill:#FFDD43;" d="M34.4131241,10.1435843c0.1930847-0.2296476,0.2906647-0.4580536,0.4189301-0.4768286
				c0.3600922-0.0527105,0.7480469-0.0852308,1.0972977-0.0050325c0.6470909,0.1485872,1.0739021,0.7202349,1.056427,1.2830114
				c-0.0179253,0.5772934-0.4619446,1.0130453-1.177906,1.1559601c-0.765995,0.1528988-1.5957718-0.2511587-1.8528328-0.9022322
				C33.7057228,10.5670071,33.9692993,10.1327553,34.4131241,10.1435843z M36.6434021,11.3697453
				c-0.6119499-0.616416-1.5031776-0.8737621-2.002903-0.6776829
				C35.3241463,10.9233742,35.9837761,11.1465597,36.6434021,11.3697453z"/>
			<path style="fill:#F39800;" d="M35.4775391,12.3828125c-0.7792969,0-1.5009766-0.4492188-1.7548828-1.0927734
				c-0.1621094-0.409668-0.1494141-0.7993164,0.0351563-1.0693359c0.1210938-0.1787109,0.3105469-0.2919922,0.5292969-0.3203125
				c0.0341797-0.0458984,0.0654297-0.090332,0.09375-0.1313477c0.1162109-0.1655273,0.2246094-0.3217773,0.4150391-0.3496094
				c0.5244141-0.0766602,0.8701172-0.0742188,1.1894531-0.0014648c0.734375,0.1694336,1.2714844,0.8291016,1.25,1.534668
				c-0.0214844,0.6938477-0.5498047,1.2280273-1.3789063,1.3930664
				C35.7304688,12.3706055,35.6035156,12.3828125,35.4775391,12.3828125z M34.40625,10.3935547
				c-0.1103516,0-0.1865234,0.0366211-0.2353516,0.1083984c-0.0878906,0.1293945-0.0820313,0.3549805,0.0166016,0.6044922
				c0.2070313,0.5239258,0.9072266,0.8779297,1.5712891,0.7490234c0.2753906-0.0546875,0.5009766-0.1572266,0.6660156-0.2958984
				l-1.8642578-0.6308594c-0.0996094-0.0336914-0.1669922-0.1259766-0.1699219-0.230957
				c-0.0019531-0.1049805,0.0615234-0.2001953,0.1591797-0.2387695c0.5761719-0.2265625,1.5292969,0.0585938,2.1660156,0.6342773
				c0.0117188-0.050293,0.0175781-0.1025391,0.0195313-0.15625C36.75,10.465332,36.3798828,10.0219727,35.8740234,9.9052734
				c-0.2548828-0.0585938-0.5488281-0.0576172-1.0058594,0.0092773c0.0195313,0.0024414-0.0361328,0.0825195-0.0771484,0.140625
				c-0.0537109,0.0766602-0.1142578,0.1630859-0.1865234,0.2495117c-0.0488281,0.0581055-0.1171875,0.0825195-0.1972656,0.0888672
				H34.40625z"/>
		</g>
		<g>
			<path style="fill:#FFDD43;" d="M39.608593,19.5156269c-0.2975731-0.6173153-0.5757561-1.194397-0.8539352-1.7714767
				c-0.0618134,0.0264778-0.1236267,0.0529556-0.1854439,0.0794296c0.2578239,0.6205082,0.5156479,1.2410164,0.7888489,1.8985348
				c-0.7646103,0.1614113-1.2342033-0.1678085-1.6108818-0.6750431c-0.3805542-0.5124569-0.5500526-1.0911407-0.2403755-1.6828079
				c0.1186295-0.2266502,0.3907928-0.442667,0.6375885-0.5186348c0.5949173-0.1831188,1.2898102,0.2393646,1.6586418,0.9268322
				C40.1703377,18.4570866,40.1105156,19.0278664,39.608593,19.5156269z"/>
			<path style="fill:#F39800;" d="M38.9853516,20.0131836c-0.7451172,0-1.1777344-0.4663086-1.4384766-0.8173828
				c-0.4921875-0.6606445-0.5820313-1.3344727-0.2617188-1.9472656c0.1464844-0.2807617,0.4697266-0.5449219,0.7861328-0.6420898
				c0.6855469-0.2099609,1.5205078,0.2421875,1.9521484,1.0478516c0.4228516,0.7880859,0.3417969,1.4746094-0.2412109,2.0405273
				c-0.0478516,0.046875-0.1152344,0.0488281-0.1777344,0.0708008c-0.0039063,0.0253906-0.0126953,0.0498047-0.0244141,0.0727539
				c-0.0351563,0.065918-0.0976563,0.1132813-0.1699219,0.128418
				C39.2636719,19.9975586,39.1201172,20.0131836,38.9853516,20.0131836z M38.4326172,17.0527344
				c-0.0742188,0-0.1464844,0.0107422-0.2148438,0.0317383c-0.1894531,0.0581055-0.4042969,0.2319336-0.4892578,0.3955078
				c-0.2324219,0.4433594-0.1601563,0.9072266,0.21875,1.4179688c0.3164063,0.4257813,0.6367188,0.6152344,1.0380859,0.6152344
				c0.0048828,0,0.0097656,0,0.015625,0l-0.6621094-1.5932617c-0.0527344-0.1259766,0.0058594-0.2709961,0.1308594-0.3251953
				l0.1875-0.0810547c0.125-0.0517578,0.265625,0.0019531,0.3232422,0.1220703l0.6816406,1.4160156
				c0.1943359-0.3334961,0.1660156-0.7036133-0.0800781-1.1611328
				C39.3144531,17.3896484,38.8525391,17.0527344,38.4326172,17.0527344z"/>
		</g>
		<g>
			<path style="fill:#FFDD43;" d="M43.8792267,10.0319529c-0.7771568-0.2255468-1.5546036-0.4511852-2.3320541-0.6768236
				c-0.0211258,0.0676937-0.042244,0.1353874-0.0633659,0.2030811c0.705452,0.2303724,1.4109039,0.4607439,2.1270256,0.6945992
				c-0.5173759,0.6012659-1.5198021,0.6539087-2.1672707,0.135437c-0.5099335-0.4083395-0.6243935-1.0519972-0.2745323-1.5437841
				C41.6444664,8.176156,42.716938,7.994494,43.464798,8.4555931C44.0909996,8.8416815,44.2320671,9.3786268,43.8792267,10.0319529z
				"/>
			<path style="fill:#F39800;" d="M42.4755859,10.9931641c-0.4365234,0-0.8583984-0.1455078-1.1884766-0.409668
				c-0.6132813-0.4912109-0.7490234-1.2832031-0.3222656-1.8837891c0.3349609-0.4697266,0.9208984-0.75,1.5683594-0.75
				c0.3837891,0,0.7519531,0.1015625,1.0625,0.2929688c0.7421875,0.4580078,0.9208984,1.1357422,0.5029297,1.9082031
				c-0.046875,0.0883789-0.1445313,0.1381836-0.2402344,0.1298828c-0.0048828,0.0493164-0.0253906,0.0966797-0.0585938,0.1352539
				C43.484375,10.7827148,43.0019531,10.9931641,42.4755859,10.9931641z M42.5332031,8.449707
				c-0.4794922,0-0.9238281,0.2070313-1.1601563,0.5395508c-0.2724609,0.3833008-0.1796875,0.878418,0.2265625,1.2036133
				c0.4101563,0.3276367,1.0507813,0.3852539,1.4941406,0.1542969l-1.6875-0.5512695
				c-0.1308594-0.0429688-0.203125-0.1826172-0.1611328-0.3139648l0.0625-0.1992188
				c0.0390625-0.1313477,0.1826172-0.2045898,0.3085938-0.1679688l2.1279297,0.6176758
				c0.1738281-0.4443359,0.0410156-0.7856445-0.4101563-1.0639648C43.1015625,8.5253906,42.8251953,8.449707,42.5332031,8.449707z"
				/>
		</g>
		<g>
			<path style="fill:#FFDD43;" d="M53.6861267,21.2539845c-0.5054855-0.6544456-0.9854507-1.2758503-1.4654198-1.8972549
				c-0.0592613,0.0433712-0.1185303,0.0867405-0.1777954,0.1301098c0.4541855,0.6317024,0.908371,1.2634048,1.3800507,1.919445
				c-0.9477806,0.2857037-1.7646561-0.0720139-2.1324387-0.8642349c-0.2188721-0.4714584-0.1454964-1.1893005,0.1360359-1.3308125
				c1.0224228-0.5139198,1.7337265-0.4246902,2.3031845,0.2889233
				C54.2302361,20.1273537,54.2165604,20.721241,53.6861267,21.2539845z"/>
			<path style="fill:#F39800;" d="M52.7919922,21.7539063c-0.7714844,0-1.4023438-0.4033203-1.7285156-1.1064453
				c-0.2597656-0.5600586-0.1953125-1.4355469,0.2509766-1.659668c1.1513672-0.5786133,1.9638672-0.4541016,2.6103516,0.3564453
				c0.578125,0.7241211,0.5566406,1.465332-0.0615234,2.0859375c-0.0498047,0.0507813-0.1152344,0.0805664-0.1923828,0.0732422
				c-0.0058594-0.0004883-0.0117188-0.0009766-0.0166016-0.0014648c-0.0292969,0.0688477-0.0869141,0.1220703-0.1591797,0.1435547
				C53.2568359,21.7172852,53.0205078,21.7539063,52.7919922,21.7539063z M51.9199219,19.2670898
				c-0.1201172,0.0444336-0.2470703,0.1005859-0.3808594,0.1674805c-0.1064453,0.0581055-0.2109375,0.5966797-0.0224609,1.0019531
				c0.2695313,0.5810547,0.8339844,0.8803711,1.4794922,0.8051758l-1.15625-1.6088867
				c-0.0800781-0.1118164-0.0556641-0.2670898,0.0556641-0.3481445L51.9199219,19.2670898z M52.3613281,19.1499023
				c0.0214844,0.0146484,0.0410156,0.0327148,0.0576172,0.0541992l1.2744141,1.6503906
				c0.2451172-0.371582,0.1923828-0.7583008-0.1591797-1.1987305
				C53.1992188,19.2368164,52.8408203,19.0800781,52.3613281,19.1499023z"/>
		</g>
		<g>
			<path style="fill:#FFDD43;" d="M53.1821175,28.2416821c0.0443039-0.4994049,0.0827675-0.9329071,0.1212234-1.3664112
				c-0.0628242-0.0097027-0.1256523-0.0194054-0.1884804-0.029108c-0.0958061,0.4974899-0.1916084,0.9949799-0.2917175,1.5147915
				c-0.7768517-0.1802387-1.0394173-0.7106094-1.1065292-1.3290234c-0.0785255-0.7235832,0.1841393-1.3324966,0.8596077-1.784914
				c0.0868416,0.1370277,0.1555557,0.2454491,0.2560501,0.4040222c0.0916786-0.170063,0.1698837-0.3151321,0.2460976-0.4565048
				c0.7030792,0.221796,1.0292435,0.6464424,1.0692787,1.3618317
				C54.1925888,27.3593082,53.8972626,27.9021702,53.1821175,28.2416821z"/>
			<path style="fill:#F39800;" d="M52.8232422,28.6108398c-0.0185547,0-0.0380859-0.0019531-0.0566406-0.0063477
				c-0.7802734-0.1811523-1.2050781-0.6865234-1.2978516-1.5458984c-0.0927734-0.8476563,0.2324219-1.5273438,0.96875-2.0195313
				c0.0556641-0.0371094,0.1259766-0.0493164,0.1904297-0.0366211c0.0654297,0.0141602,0.1230469,0.0537109,0.1591797,0.1108398
				l0.0273438,0.0429688l0.0439453-0.0805664c0.0566406-0.105957,0.1835938-0.1547852,0.2949219-0.1196289
				c0.8017578,0.253418,1.1972656,0.7573242,1.2441406,1.5859375c0.0507813,0.9179688-0.3115234,1.5478516-1.1083984,1.9257813
				C53.2128906,28.503418,53.125,28.4985352,53.0537109,28.456543c-0.0185547,0.0463867-0.0517578,0.0859375-0.09375,0.1137695
				C52.9189453,28.597168,52.8710938,28.6108398,52.8232422,28.6108398z M52.5097656,25.609375
				c-0.4287109,0.3637695-0.6074219,0.8222656-0.5449219,1.3950195c0.0585938,0.5371094,0.2675781,0.8652344,0.6660156,1.0336914
				l0.2392578-1.2392578c0.0244141-0.1318359,0.140625-0.2216797,0.2841797-0.199707l0.1875,0.0292969
				c0.1308594,0.0200195,0.2226563,0.1381836,0.2109375,0.2695313l-0.0771484,0.8613281
				c0.3193359-0.2797852,0.4521484-0.6611328,0.421875-1.1889648c-0.0302734-0.5473633-0.2373047-0.8686523-0.7021484-1.0668945
				l-0.1435547,0.2661133c-0.0419922,0.078125-0.1220703,0.1279297-0.2109375,0.1313477
				c-0.0878906,0.0009766-0.171875-0.0405273-0.2197266-0.1157227L52.5097656,25.609375z"/>
		</g>
		<g>
			<path style="fill:#FFDD43;" d="M49.7022324,23.6712494c0.1026878-0.3092537,0.1965485-0.5958595,0.2930946-0.8815594
				c0.0960007-0.28409,0.1947021-0.5672722,0.2922249-0.8508492c-0.0666466-0.0277271-0.1332932-0.0554543-0.1999397-0.0831814
				c-0.2348175,0.5983982-0.469635,1.1967983-0.7697678,1.9616508c-0.2702866-0.3252087-0.5330887-0.5304012-0.6468353-0.7987671
				c-0.363739-0.8581715,0.318737-2.1099396,1.2319641-2.3049679c0.5046844-0.1077824,0.8938141,0.0790157,1.1329575,0.5454159
				C51.5105476,22.1846123,50.8135529,23.4923325,49.7022324,23.6712494z"/>
			<path style="fill:#F39800;" d="M49.3173828,24.0673828c-0.0742188,0-0.1445313-0.0327148-0.1923828-0.090332
				c-0.0878906-0.1054688-0.1738281-0.1977539-0.2548828-0.2836914c-0.1728516-0.184082-0.3359375-0.3579102-0.4296875-0.5771484
				c-0.1982422-0.4682617-0.1494141-1.046875,0.1318359-1.5883789c0.2880859-0.5537109,0.7666016-0.9492188,1.2792969-1.059082
				c0.6142578-0.1298828,1.1171875,0.1113281,1.4072266,0.6757813c0.2509766,0.4897461,0.234375,1.1103516-0.0439453,1.6606445
				c-0.3027344,0.5966797-0.8525391,1.0131836-1.4726563,1.112793c-0.0644531,0.0112305-0.1279297-0.0043945-0.1806641-0.0395508
				l-0.0117188,0.0302734c-0.0322266,0.0825195-0.1054688,0.1416016-0.1933594,0.1557617
				C49.34375,24.0664063,49.3300781,24.0673828,49.3173828,24.0673828z M50.1689453,20.934082
				c-0.0664063,0-0.1386719,0.0078125-0.2138672,0.0239258c-0.3623047,0.0771484-0.7216797,0.3842773-0.9384766,0.8007813
				c-0.2099609,0.4023438-0.2529297,0.8369141-0.1152344,1.1621094c0.0576172,0.1362305,0.1787109,0.2651367,0.3310547,0.4282227
				l0.6230469-1.5849609c0.0244141-0.0629883,0.0732422-0.112793,0.1347656-0.1391602
				c0.0625-0.0263672,0.1318359-0.0263672,0.1943359,0l0.1992188,0.0834961
				c0.1210938,0.0507813,0.1826172,0.1865234,0.1396484,0.3110352l-0.4267578,1.2578125
				c0.2792969-0.1494141,0.5175781-0.3920898,0.671875-0.6982422c0.2060547-0.4077148,0.2236328-0.8583984,0.0449219-1.2060547
				C50.6621094,21.0776367,50.4511719,20.934082,50.1689453,20.934082z"/>
		</g>
		<g>
			<path style="fill:#FFDD43;" d="M50.4981499,30.2317238c-1.2681961-0.6910172-0.759964-2.5929642,0.1498909-2.9605732
				c0.4127426-0.1667614,0.8023911-0.2789001,0.9439316,0.345665c0.039196,0.1729527,0.1388817,0.3712635,0.274189,0.4762611
				c0.4635048,0.3596725,0.3679962,0.7816563,0.1861687,1.2200069c-0.2156677,0.5199337-0.5420837,0.9128685-1.1895256,0.9586525
				c0.0775223-0.3328552,0.1476173-0.6338329,0.2177162-0.9348106c-0.044693-0.0158463-0.089386-0.0316906-0.134079-0.0475368
				C50.8017998,29.5934334,50.6571579,29.8974762,50.4981499,30.2317238z"/>
			<path style="fill:#F39800;" d="M50.8632813,30.5219727c-0.0732422,0-0.1425781-0.0317383-0.1904297-0.0874023
				c-0.0039063-0.0048828-0.0068359-0.0092773-0.0107422-0.0141602c-0.0253906,0.0219727-0.0546875,0.0390625-0.0869141,0.0493164
				c-0.0654297,0.0200195-0.1367188,0.0136719-0.1972656-0.0180664c-0.6054688-0.3305664-0.9287109-0.9433594-0.8857422-1.6816406
				c0.0439453-0.7719727,0.4912109-1.5,1.0625-1.730957c0.1777344-0.0717773,0.3847656-0.1484375,0.5849609-0.1484375
				c0.2480469,0,0.5703125,0.1162109,0.6962891,0.6708984c0.0302734,0.1347656,0.1074219,0.2753906,0.1835938,0.3339844
				c0.6748047,0.5229492,0.3974609,1.1918945,0.2646484,1.5131836c-0.1865234,0.4482422-0.5341797,1.0507813-1.4033203,1.112793
				C50.875,30.5219727,50.8691406,30.5219727,50.8632813,30.5219727z M50.9462891,29.0395508
				c0.0273438,0,0.0546875,0.0043945,0.0820313,0.0136719l0.1074219,0.0380859
				c0.1201172,0.0429688,0.2167969,0.1782227,0.1875,0.3017578l-0.1269531,0.5517578
				c0.2705078-0.1123047,0.4667969-0.3442383,0.6259766-0.7275391c0.1992188-0.4824219,0.1728516-0.7075195-0.109375-0.9262695
				c-0.2011719-0.1557617-0.3203125-0.421875-0.3652344-0.6191406c-0.0634766-0.28125-0.1533203-0.28125-0.2080078-0.28125
				c-0.1054688,0-0.2529297,0.0537109-0.3974609,0.1123047c-0.3945313,0.1591797-0.7177734,0.7163086-0.7509766,1.2958984
				c-0.015625,0.2705078,0.0244141,0.7338867,0.40625,1.0625l0.3232422-0.6791992
				C50.7626953,29.0927734,50.8525391,29.0395508,50.9462891,29.0395508z"/>
		</g>
		<g>
			<path style="fill:#FFDD43;" d="M32.7532845,11.8858519c0.3998337,0.5540705,0.832016,1.1529598,1.2675476,1.7564936
				c-0.6459885,0.4277887-1.2745972,0.3961344-1.8430443,0.0029993c-0.5776405-0.3994961-0.9065819-1.053606-0.7636833-1.5822449
				c0.1203156-0.4450989,0.4357929-0.673687,0.8945808-0.737359c1.2279243-0.1704187,2.4788284,1.1571541,1.8779564,2.123579
				C33.2555847,11.9391317,33.2485542,11.9318295,32.7532845,11.8858519z"/>
			<path style="fill:#F39800;" d="M33.0869141,14.2021484c-0.3613281,0-0.7148438-0.1181641-1.0512695-0.3510742
				c-0.6767578-0.4682617-1.03125-1.2304688-0.862793-1.8535156c0.140625-0.5205078,0.5214844-0.8383789,1.1010742-0.9194336
				c0.8237305-0.1123047,1.7104492,0.3637695,2.1137695,1.0883789c0.2675781,0.4804688,0.2714844,0.9960938,0.0107422,1.4145508
				c-0.0302734,0.0498047-0.078125,0.0864258-0.1318359,0.1049805c0,0.0004883,0,0.0009766,0,0.0014648
				c-0.0126953,0.0668945-0.0517578,0.1259766-0.1083984,0.1635742
				C33.8076172,14.0839844,33.4462891,14.2021484,33.0869141,14.2021484z M32.5258789,11.5605469
				c-0.0610352,0-0.1220703,0.0043945-0.1831055,0.0126953c-0.3808594,0.0532227-0.5996094,0.2294922-0.6875,0.5546875
				c-0.1123047,0.4160156,0.1669922,0.9677734,0.6645508,1.3120117c0.4335938,0.2998047,0.878418,0.3427734,1.3354492,0.1240234
				l-1.1044922-1.5317383c-0.0576172-0.0795898-0.0629883-0.1855469-0.0146484-0.2705078
				c0.0488281-0.0849609,0.1420898-0.1328125,0.2402344-0.125c0.5449219,0.0507813,0.65625,0.1269531,1.3085938,1.1738281
				c-0.0185547-0.1635742-0.0810547-0.3056641-0.1347656-0.4013672
				C33.6728516,11.909668,33.0869141,11.5605469,32.5258789,11.5605469z"/>
		</g>
		<g>
			<path style="fill:#FFDD43;" d="M42.9229355,16.5179081c-0.1416397-0.6403656-0.2834053-1.2813768-0.4251671-1.9223881
				c-0.0595512,0.0127811-0.1190987,0.0255632-0.1786499,0.0383444c0.0974541,0.6594667,0.1949158,1.3189316,0.3023872,2.0461836
				c-0.7378387-0.0594711-1.0957222-0.4607353-1.3250694-0.9894571c-0.3053665-0.7039757-0.2360764-1.3637657,0.2595291-1.8845034
				c0.5315018,0.0996075,0.9916077,0.1841774,1.4507866,0.2734928c0.0779648,0.0151663,0.164856,0.0335846,0.2258301,0.0794649
				C43.9256287,14.6805344,43.7279358,16.1706142,42.9229355,16.5179081z"/>
			<path style="fill:#F39800;" d="M42.6210938,16.9301758c-0.0068359,0-0.0136719-0.0004883-0.0205078-0.0009766
				c-0.9667969-0.078125-1.3378906-0.6875-1.5332031-1.1396484c-0.3525391-0.8110352-0.2431641-1.5771484,0.3076172-2.1557617
				c0.0585938-0.0610352,0.1435547-0.0888672,0.2265625-0.0732422l0.3828125,0.0712891
				c0.3779297,0.0703125,0.7246094,0.1352539,1.0703125,0.2021484c0.1103516,0.0214844,0.2275391,0.0488281,0.3291016,0.1259766
				c0.3837891,0.2890625,0.5791016,0.8452148,0.5068359,1.449707c-0.0742188,0.6259766-0.4072266,1.1386719-0.8681641,1.3378906
				c-0.0527344,0.0224609-0.1103516,0.0263672-0.1640625,0.012207c-0.0117188,0.0332031-0.0302734,0.0649414-0.0546875,0.0913086
				C42.7558594,16.9018555,42.6904297,16.9301758,42.6210938,16.9301758z M41.6494141,14.078125
				c-0.3359375,0.4179688-0.3779297,0.9262695-0.1230469,1.5126953c0.1855469,0.4301758,0.4326172,0.6772461,0.796875,0.7836914
				l-0.2509766-1.7041016c-0.0195313-0.1303711,0.0654297-0.253418,0.1953125-0.28125l0.1787109-0.0380859
				c0.1367188-0.0273438,0.2666016,0.0571289,0.2958984,0.1904297l0.3427734,1.5517578
				c0.1601563-0.1791992,0.2734375-0.4438477,0.3095703-0.7426758c0.0507813-0.4287109-0.0693359-0.8085938-0.3125-0.9916992
				c-0.0205078-0.0141602-0.0947266-0.0283203-0.1230469-0.0336914c-0.3447266-0.0673828-0.6894531-0.1318359-1.0654297-0.2016602
				L41.6494141,14.078125z"/>
		</g>
		<g>
			<path style="fill:#FFDD43;" d="M38.0823021,16.4947624c-0.1986465-0.4966011-0.3919868-0.9914007-0.5983162-1.4807243
				c-0.0248032-0.0588312-0.1200027-0.0879784-0.2141762-0.1525593c-0.054882,0.7468805,0.9616203,1.4418926,0.0530472,2.178442
				c-0.6769638-0.3864155-1.0356293-0.9399376-1.0577087-1.6736269c-0.0281944-0.9369898,0.8078918-1.4880838,1.5897064-0.9893484
				c0.4164658,0.2656736,0.7834091,0.7360611,0.976757,1.1963568
				C39.1709557,16.3811531,38.9573517,16.5869293,38.0823021,16.4947624z"/>
			<path style="fill:#F39800;" d="M37.3232422,17.2900391c-0.0429688,0-0.0849609-0.0107422-0.1240234-0.0327148
				c-0.7617188-0.4345703-1.1591797-1.0683594-1.1835938-1.8837891c-0.0126953-0.4208984,0.1240234-0.8017578,0.3857422-1.0712891
				c0.4033203-0.4155273,1.0537109-0.4760742,1.5878906-0.1362305c0.4404297,0.2807617,0.8515625,0.7832031,1.0732422,1.3105469
				c0.1425781,0.3408203,0.2636719,0.7270508,0.078125,1.0073242c-0.1679688,0.2519531-0.4921875,0.28125-0.7207031,0.28125
				c-0.1064453,0-0.2285156-0.0073242-0.3642578-0.0219727c-0.0585938-0.0063477-0.1132813-0.0332031-0.1533203-0.0742188
				c-0.0625,0.1879883-0.1914063,0.378418-0.421875,0.5654297C37.4355469,17.2709961,37.3789063,17.2900391,37.3232422,17.2900391z
				 M37.2529297,14.4394531c-0.1855469,0-0.3603516,0.074707-0.4921875,0.2109375
				c-0.1669922,0.171875-0.2539063,0.4233398-0.2451172,0.7084961c0.0166016,0.5820313,0.2714844,1.03125,0.7773438,1.3691406
				c0.2617188-0.2817383,0.1669922-0.5317383-0.0332031-0.9716797c-0.1240234-0.2719727-0.2636719-0.5805664-0.2392578-0.9130859
				c0.0058594-0.0893555,0.0595703-0.168457,0.140625-0.2070313s0.1757813-0.03125,0.25,0.019043
				c0.0253906,0.0175781,0.0507813,0.03125,0.0742188,0.0444336c0.0800781,0.0439453,0.1787109,0.0986328,0.2285156,0.2158203
				c0.1630859,0.3862305,0.3173828,0.7744141,0.4716797,1.1640625l0.0722656,0.1796875
				c0.0576172,0.0039063,0.1113281,0.0058594,0.1621094,0.0058594c0.2626953,0,0.3037109-0.0576172,0.3037109-0.0581055
				c0.0068359-0.0097656,0.0576172-0.1074219-0.1220703-0.5371094c-0.1816406-0.4316406-0.5273438-0.8564453-0.8818359-1.0820313
				C37.5654297,14.4892578,37.4082031,14.4394531,37.2529297,14.4394531z"/>
		</g>
		<g>
			<path style="fill:#FFDD43;" d="M44.3331223,15.6464481c0.5973663,0.1599693,1.1036682,0.2933607,1.6083336,0.4326839
				c0.0926628,0.0255833,0.2539406,0.0711842,0.2562752,0.1144104c0.026947,0.4997082,0.113163,1.018261,0.0132179,1.49617
				c-0.0883636,0.4225559-0.4304466,0.743082-0.9572945,0.6967049c0-0.6256008,0-1.231123,0-1.8366451
				c-0.0520973-0.0052681-0.1041985-0.0105362-0.1562996-0.0158062c-0.0616951,0.5854378-0.1233864,1.1708755-0.185482,1.7601166
				C43.8653984,17.9266129,43.5987244,16.4942894,44.3331223,15.6464481z"/>
			<path style="fill:#F39800;" d="M45.3535156,18.640625c-0.0390625,0-0.0800781-0.0014648-0.1210938-0.0053711
				c-0.0849609-0.0073242-0.15625-0.0561523-0.1953125-0.1245117c-0.0625,0.0371094-0.1386719,0.0429688-0.2080078,0.019043
				c-0.5390625-0.1889648-0.9375-0.6342773-1.09375-1.2207031c-0.1699219-0.6391602-0.0136719-1.3393555,0.4091797-1.8261719
				c0.0615234-0.0722656,0.1611328-0.1015625,0.2529297-0.078125l0.4794922,0.128418
				c0.4003906,0.1069336,0.765625,0.2041016,1.1308594,0.3046875c0.1904297,0.0522461,0.4287109,0.1176758,0.4394531,0.3442383
				c0.0058594,0.1147461,0.015625,0.2324219,0.0253906,0.3510742c0.0322266,0.3974609,0.0664063,0.8081055-0.0166016,1.2075195
				C46.3417969,18.2875977,45.9091797,18.640625,45.3535156,18.640625z M45.0976563,16.2841797
				c0.0078125,0,0.015625,0.0004883,0.0234375,0.0009766l0.1308594,0.0131836
				c0.1279297,0.0131836,0.2519531,0.1230469,0.2519531,0.2514648v1.5756836
				c0.2392578-0.050293,0.4072266-0.2241211,0.4619141-0.4863281c0.0693359-0.3286133,0.0400391-0.6865234,0.0087891-1.0654297
				c-0.0068359-0.0766602-0.0126953-0.1538086-0.0185547-0.2299805c-0.0214844-0.0068359-0.0478516-0.0146484-0.0810547-0.0234375
				c-0.3632813-0.1005859-0.7275391-0.1977539-1.1269531-0.3041992l-0.3193359-0.0854492
				c-0.2441406,0.3540039-0.3242188,0.8193359-0.2099609,1.25c0.0810547,0.3061523,0.2509766,0.5581055,0.4833984,0.7246094
				l0.1464844-1.3974609C44.8623047,16.3798828,44.9707031,16.2841797,45.0976563,16.2841797z"/>
		</g>
		<g>
			<path style="fill:#FFDD43;" d="M47.5360107,15.7188864c0.2723427,0.325366,0.5757637,0.6301756,0.8083496,0.9818392
				c0.2361755,0.3570805,0.4024544,0.7603874,0.5991325,1.143034c-0.6905289,0.3523464-1.4132462,0.0906944-1.8567162-0.6289806
				c-0.4231339-0.6866856-0.3479767-1.5076141,0.1754303-1.9161711c0.4145355-0.3235788,1.3253021-0.2225189,1.6402016,0.1907139
				c0.0559349,0.0734005,0.1175842,0.1989422,0.0917816,0.2693062c-0.2297173,0.6264696-0.058445,1.1737337,0.2900925,1.6982222
				c0.0209427,0.0315208-0.027092,0.1088829-0.0662193,0.246439C48.7554207,16.906414,48.458149,16.0500374,47.5360107,15.7188864z"
				/>
			<path style="fill:#F39800;" d="M48.3251953,18.2495117c-0.5683594,0-1.0976563-0.3295898-1.4511719-0.9033203
				c-0.4882813-0.793457-0.3876953-1.7583008,0.2333984-2.2441406c0.203125-0.1582031,0.4960938-0.2451172,0.8251953-0.2451172
				c0.3876953,0,0.8984375,0.1264648,1.1689453,0.480957c0.0488281,0.0649414,0.2041016,0.293457,0.1279297,0.5058594
				c-0.1767578,0.480957-0.0957031,0.9355469,0.2626953,1.4750977c0.0849609,0.1230469,0.0361328,0.2543945,0.0039063,0.3413086
				c-0.0117188,0.0302734-0.0253906,0.0673828-0.0380859,0.1113281c-0.0273438,0.0966797-0.109375,0.1674805-0.2089844,0.1796875
				c-0.0283203,0.0043945-0.0537109,0.0024414-0.0791016-0.0024414c-0.0234375,0.050293-0.0625,0.0922852-0.1132813,0.1176758
				C48.8193359,18.1879883,48.5732422,18.2495117,48.3251953,18.2495117z M47.3447266,15.5576172
				c-0.3544922,0.347168-0.3789063,0.9838867-0.0449219,1.5258789c0.3251953,0.5288086,0.8134766,0.7641602,1.2988281,0.6279297
				c-0.0175781-0.0361328-0.0351563-0.0727539-0.0527344-0.109375c-0.1308594-0.2714844-0.2548828-0.5283203-0.4101563-0.7636719
				c-0.1513672-0.2290039-0.3359375-0.4379883-0.53125-0.6591797c-0.0878906-0.0991211-0.1757813-0.1987305-0.2597656-0.2998047
				c-0.0732422-0.0869141-0.078125-0.2114258-0.0136719-0.3037109
				C47.3359375,15.5693359,47.3398438,15.5634766,47.3447266,15.5576172z M47.5361328,15.46875
				c0.0283203,0,0.0566406,0.0048828,0.0849609,0.0146484c0.4501953,0.1621094,0.7675781,0.4345703,1.0195313,0.7558594
				c0.0087891-0.1845703,0.0478516-0.3691406,0.1152344-0.5556641c-0.0146484,0.0258789-0.03125-0.0146484-0.0527344-0.0429688
				c-0.2099609-0.2763672-1.0029297-0.3662109-1.2880859-0.1445313c-0.0058594,0.0048828-0.0126953,0.0102539-0.0195313,0.015625
				C47.4375,15.4838867,47.4863281,15.46875,47.5361328,15.46875z"/>
		</g>
		<g>
			<path style="fill:#FFDD43;" d="M52.0339508,25.2712116c-0.4905281,0.5410519-0.5452347,1.7601566-1.8987961,1.4179535
				c0.1876678-0.550602,0.3729668-1.0942421,0.5582619-1.6378841c-0.05867-0.0237656-0.1173363-0.0475311-0.1760025-0.0712948
				c-0.2085266,0.483532-0.417057,0.967062-0.6279144,1.4559898c-0.8392029-0.6835384-0.3932304-2.0145836,0.8571739-2.6133881
				C51.1666946,24.2952518,51.5903473,24.7720089,52.0339508,25.2712116z"/>
			<path style="fill:#F39800;" d="M50.5683594,26.9985352c-0.1513672,0-0.3183594-0.0224609-0.4951172-0.0673828
				c-0.0673828-0.0170898-0.125-0.0615234-0.1582031-0.1230469c-0.0205078-0.0380859-0.0302734-0.0800781-0.0302734-0.1220703
				c-0.0556641-0.0009766-0.109375-0.0205078-0.1533203-0.0561523c-0.3886719-0.3173828-0.5703125-0.7695313-0.5097656-1.2729492
				c0.0839844-0.7075195,0.6269531-1.3813477,1.4169922-1.7597656c0.1025391-0.0478516,0.2226563-0.0239258,0.2949219,0.0595703
				l1.2871094,1.4482422c0.0849609,0.0952148,0.0839844,0.2392578-0.0009766,0.3339844
				c-0.1113281,0.1225586-0.2041016,0.3027344-0.3017578,0.4931641
				C51.6738281,26.4072266,51.3701172,26.9985352,50.5683594,26.9985352z M50.4658203,26.4941406
				c0.5351563,0.0395508,0.7363281-0.2631836,1.0068359-0.7905273c0.0732422-0.1425781,0.1484375-0.2885742,0.2373047-0.4208984
				l-1.0195313-1.1479492c-0.5400391,0.3105469-0.9150391,0.7983398-0.9726563,1.28125
				c-0.0185547,0.1567383-0.0087891,0.3598633,0.0996094,0.5556641l0.4707031-1.0908203
				c0.0537109-0.1245117,0.1962891-0.1845703,0.3242188-0.1323242l0.1757813,0.0712891
				c0.1220703,0.0498047,0.1845703,0.1870117,0.1416016,0.3120117L50.4658203,26.4941406z"/>
		</g>
		<g>
			<path style="fill:#FFDD43;" d="M35.8792801,15.8521442c-1.0238495,0.2753601-2.0894699-0.4045696-2.214283-1.3094835
				c-0.0171432-0.1242914,0.076767-0.2965202,0.1715088-0.3975725c0.2972145-0.3170204,0.6193924-0.6106367,1.0826645-1.0593338
				c0.2678947,0.1850195,0.6920853,0.4364157,1.0672035,0.7470655c0.5254936,0.4351788,0.0651054,0.8937273-0.0135994,1.3950405
				c-0.2951431-0.4285078-0.5645409-0.8196392-0.8339348-1.2107706c-0.0470505,0.0295992-0.0940971,0.0591984-0.1411476,0.0887976
				C35.2843666,14.6737318,35.5710373,15.2415771,35.8792801,15.8521442z"/>
			<path style="fill:#F39800;" d="M35.4091797,16.1640625c-0.9941406,0-1.8691406-0.6972656-1.9921875-1.5874023
				c-0.03125-0.2241211,0.1083984-0.4648438,0.2373047-0.6025391c0.2099609-0.2236328,0.4316406-0.4355469,0.7050781-0.6972656
				l0.3857422-0.3706055c0.0859375-0.0825195,0.2177734-0.0917969,0.3154297-0.0263672
				c0.0732422,0.0507813,0.1582031,0.105957,0.2509766,0.1660156c0.2460938,0.1611328,0.5527344,0.3608398,0.8339844,0.5947266
				c0.5126953,0.4238281,0.3271484,0.902832,0.1914063,1.2524414c-0.0507813,0.1313477-0.0986328,0.2553711-0.1171875,0.3740234
				c-0.015625,0.1010742-0.0917969,0.1821289-0.1914063,0.2045898c-0.0195313,0.0048828-0.0605469,0.0083008-0.0576172,0.0063477
				l0.1318359,0.2617188c0.0332031,0.0668945,0.0351563,0.1455078,0.0048828,0.2143555
				c-0.03125,0.0688477-0.0908203,0.1196289-0.1630859,0.1391602
				C35.7695313,16.1401367,35.5898438,16.1640625,35.4091797,16.1640625z M34.9472656,13.4052734l-0.2421875,0.2329102
				c-0.2666016,0.2543945-0.4824219,0.4604492-0.6855469,0.6777344c-0.0644531,0.0683594-0.1064453,0.1625977-0.1064453,0.1953125
				c0.0917969,0.6611328,0.8183594,1.1987305,1.5898438,1.1499023l-0.7285156-1.4428711
				c-0.0576172-0.1147461-0.0185547-0.2543945,0.0898438-0.3232422l0.140625-0.0888672
				c0.1123047-0.0722656,0.2626953-0.0415039,0.3398438,0.0688477l0.5439453,0.7905273
				c0.1279297-0.3369141,0.1455078-0.46875-0.0615234-0.6401367c-0.2597656-0.215332-0.5537109-0.4067383-0.7890625-0.5605469
				C35.0068359,13.4443359,34.9765625,13.4248047,34.9472656,13.4052734z"/>
		</g>
		<g>
			<path style="fill:#FFDD43;" d="M48.1391716,20.4508076c-1.0307083-0.4622154-0.2748756-1.4332466-0.6286011-2.0625076
				c-0.0615959,0.0008106-0.1231918,0.0016193-0.1847878,0.0024319c0,0.4127026-0.0145035,0.8260803,0.0046349,1.2378941
				c0.0150642,0.3242188-0.0859146,0.46945-0.4316063,0.5335255c-0.371048,0.0687733-0.4697227-0.1053505-0.5644073-0.3863277
				c-0.2735252-0.8116989-0.0508003-1.5287304,0.6215897-2.088335c0.4072227,0.2085209,0.7695351,0.4803715,1.1736221,0.5763626
				c0.3936195,0.0935059,0.5014572,0.3027172,0.5301285,0.6309986
				C48.7100372,19.4704876,48.6222305,20.0045395,48.1391716,20.4508076z"/>
			<path style="fill:#F39800;" d="M48.1396484,20.7006836c-0.0341797,0-0.0693359-0.0073242-0.1025391-0.0219727
				c-0.3105469-0.1391602-0.4921875-0.3232422-0.5947266-0.5244141c-0.1035156,0.1289063-0.2675781,0.2109375-0.4980469,0.253418
				c-0.6513672,0.1245117-0.7714844-0.3271484-0.8476563-0.5517578c-0.3017578-0.8964844-0.0537109-1.7348633,0.6992188-2.3608398
				c0.0771484-0.0639648,0.1855469-0.0761719,0.2744141-0.0302734c0.1289063,0.0664063,0.2548828,0.1391602,0.3779297,0.2104492
				c0.2548828,0.1479492,0.4951172,0.2875977,0.7392578,0.3452148c0.5849609,0.1391602,0.6923828,0.5288086,0.7216797,0.8525391
				c0.0419922,0.4794922,0.0244141,1.1835938-0.5996094,1.7612305
				C48.2626953,20.6777344,48.2011719,20.7006836,48.1396484,20.7006836z M47.7978516,18.418457
				c0.09375,0.2685547,0.0664063,0.5576172,0.0429688,0.8173828c-0.0419922,0.4448242-0.0498047,0.7109375,0.2509766,0.90625
				c0.2695313-0.3110352,0.3662109-0.6879883,0.3193359-1.2255859c-0.0224609-0.2475586-0.0771484-0.347168-0.3388672-0.409668
				C47.9775391,18.484375,47.8867188,18.4541016,47.7978516,18.418457z M46.9921875,17.9902344
				c-0.5,0.4775391-0.6416016,1.0507813-0.4208984,1.7060547c0.0771484,0.2294922,0.109375,0.230957,0.1787109,0.230957
				c0-0.0053711,0.0644531-0.0039063,0.1025391-0.0107422c0.2226563-0.0415039,0.2373047-0.0766602,0.2275391-0.2758789
				c-0.0126953-0.2910156-0.0097656-0.5825195-0.0068359-0.8735352l0.0029297-0.3764648
				c0-0.1171875,0.0810547-0.2158203,0.1904297-0.2426758c-0.0234375-0.0136719-0.0458984-0.0268555-0.0693359-0.0400391
				C47.1298828,18.0683594,47.0615234,18.0288086,46.9921875,17.9902344z"/>
		</g>
		<g>
			<path style="fill:#FFDD43;" d="M49.6552734,17.7163429c0.4441071,0.5894737,1.466507,0.1297245,1.7297516,1.0835152
				c-0.5234985,0.4901352-0.6040535,1.1292362-0.4316788,1.8426552c-0.2977409-0.9155922-0.7244644-1.7379932-1.3565826-2.4347057
				c-0.0476074,0.0254097-0.0952148,0.0508175-0.1428223,0.0762272c0.3787117,0.6753254,0.7574272,1.3506489,1.1545639,2.058836
				c-1.037941,0.1439877-1.3217659,0.0204239-1.5933838-0.6313839
				C48.7238617,19.012558,48.9315147,18.3015976,49.6552734,17.7163429z"/>
			<path style="fill:#F39800;" d="M50.953125,20.8925781c-0.1054688,0-0.203125-0.0673828-0.2373047-0.1728516
				c-0.015625-0.0454102-0.0302734-0.090332-0.0458984-0.1347656c-0.0087891,0.0024414-0.0175781,0.0043945-0.0273438,0.0053711
				c-0.2763672,0.0385742-0.4873047,0.0561523-0.6630859,0.0561523c-0.703125,0-0.9794922-0.3208008-1.1953125-0.8388672
				c-0.3388672-0.8120117-0.078125-1.6450195,0.7138672-2.2856445c0.0527344-0.0419922,0.1220703-0.0625,0.1875-0.0537109
				c0.0673828,0.0083008,0.1289063,0.043457,0.1689453,0.0976563c0.1328125,0.1757813,0.3642578,0.2231445,0.6318359,0.2783203
				c0.4003906,0.0820313,0.9482422,0.1948242,1.1396484,0.8891602c0.0244141,0.0893555-0.0029297,0.1855469-0.0703125,0.2490234
				c-0.4150391,0.3886719-0.5292969,0.8974609-0.359375,1.6015625c0.03125,0.1303711-0.0458984,0.2626953-0.1748047,0.2993164
				C50.9980469,20.8896484,50.9755859,20.8925781,50.953125,20.8925781z M49.2929688,18.5087891
				c-0.1650391,0.3051758-0.2265625,0.6767578-0.0478516,1.1064453c0.2099609,0.5019531,0.3574219,0.5703125,0.9609375,0.5214844
				L49.2929688,18.5087891z M49.9345703,18.2148438c0.296875,0.3549805,0.5556641,0.7480469,0.7783203,1.1850586
				c0.078125-0.2460938,0.2060547-0.4677734,0.3847656-0.6645508c-0.1201172-0.2670898-0.3408203-0.3251953-0.7119141-0.4013672
				C50.2392578,18.3037109,50.0839844,18.2719727,49.9345703,18.2148438z"/>
		</g>
		<g>
			<path style="fill:#FFDD43;" d="M38.2996178,12.9137554c-0.6849213,0.9287357-1.8784599,0.7018881-2.5508499-0.4247704
				c0.3347206-0.1771927,0.7183685-0.3001108,0.9898758-0.5465689c0.2713242-0.2462959,0.4304466-0.6162024,0.7313766-1.072299
				C37.4465523,11.7268085,37.5180626,12.505908,38.2996178,12.9137554z"/>
			<path style="fill:#F39800;" d="M37.2392578,13.7412109c-0.6474609,0-1.2851563-0.4204102-1.7050781-1.1245117
				c-0.0351563-0.0585938-0.0439453-0.1293945-0.0263672-0.1953125c0.0185547-0.065918,0.0634766-0.121582,0.1240234-0.1538086
				c0.1054688-0.0556641,0.2167969-0.1064453,0.3271484-0.1572266c0.2314453-0.1069336,0.4511719-0.2075195,0.6113281-0.3530273
				c0.1552734-0.140625,0.2744141-0.3417969,0.4257813-0.5961914c0.0791016-0.1323242,0.1640625-0.2758789,0.2646484-0.4287109
				c0.0634766-0.0927734,0.1816406-0.1333008,0.2841797-0.1005859c0.1064453,0.0332031,0.1777344,0.1333008,0.1748047,0.2451172
				c-0.0244141,0.9067383,0.0810547,1.4946289,0.6953125,1.8149414c0.0654297,0.0336914,0.1123047,0.0942383,0.1279297,0.1655273
				c0.0166016,0.0708008,0.0009766,0.1459961-0.0419922,0.2045898C38.1777344,13.5,37.7294922,13.7412109,37.2392578,13.7412109z
				 M36.1171875,12.5878906c0.5107422,0.6728516,1.2880859,0.8481445,1.8007813,0.3793945
				c-0.4296875-0.3266602-0.6035156-0.78125-0.6679688-1.2626953c-0.1025391,0.1591797-0.2099609,0.3012695-0.34375,0.4228516
				c-0.2177734,0.1977539-0.4824219,0.3193359-0.7382813,0.4370117
				C36.1503906,12.5722656,36.1337891,12.5800781,36.1171875,12.5878906z"/>
		</g>
		<g>
			<path style="fill:#FFDD43;" d="M23.2739658,8.6963329c-1.1276436,0.7678957-2.2627926,1.5250368-3.3814049,2.3058662
				c-2.5290642,1.7653704-4.8927164,3.7031393-6.6190224,6.3155899c-1.7427988,2.6374073-2.6009045,5.5716324-2.9555931,8.676115
				c-0.5055561,4.4249668-0.0920086,8.8113441,0.5842867,13.1852074c0.0219116,0.1417046,0.0212002,0.2869148,0.0392017,0.5497246
				c-0.341301,0-0.666296,0.0364113-0.9765854-0.0153389c-0.1554995-0.0259323-0.3779888-0.1900215-0.4114943-0.3296967
				c-1.2698145-5.2934494-2.0625024-10.6252117-0.9901381-16.0574532
				C9.8673468,16.720047,13.8603859,12.337821,19.9587879,9.7478685c1.0605087-0.4503918,2.15942-0.8103638,3.240593-1.2120981
				C23.2242432,8.5892916,23.2491035,8.6428127,23.2739658,8.6963329z"/>
			<path style="fill:#F39800;" d="M10.3549805,39.9912109c-0.1469727,0-0.2905273-0.0068359-0.4311523-0.0302734
				c-0.2412109-0.0410156-0.5522461-0.2646484-0.6137695-0.5185547C8.175293,34.7109375,7.1704102,29.0913086,8.3178711,23.277832
				c1.2666016-6.4155273,5.1503906-11.0449219,11.543457-13.7597656c0.7319336-0.3110352,1.4907227-0.5825195,2.2250977-0.8452148
				c0.3422852-0.1225586,0.6850586-0.2446289,1.0258789-0.371582c0.121582-0.0463867,0.2583008,0.0107422,0.3134766,0.1293945
				l0.0751953,0.1606445c0.0512695,0.1108398,0.0146484,0.2426758-0.0864258,0.3115234l-1.0727539,0.7275391
				c-0.7714844,0.5219727-1.5424805,1.0439453-2.3061523,1.5771484c-2.2246094,1.5527344-4.7431641,3.5092773-6.5537109,6.2480469
				c-1.5751953,2.3842773-2.5292969,5.1865234-2.9155273,8.5668945c-0.5444336,4.7651367,0.0253906,9.5136719,0.5830078,13.1181641
				c0.0151367,0.0986328,0.0209961,0.1982422,0.0273438,0.3310547l0.0141602,0.2392578
				c0.0048828,0.0693359-0.0195313,0.1376953-0.0668945,0.1884766c-0.1142578,0.1240234-0.3115234,0.0791016-0.4760742,0.0859375
				C10.5488281,39.9882813,10.4511719,39.9912109,10.3549805,39.9912109z M22.0727539,9.2089844
				c-0.6704102,0.2397461-1.3574219,0.4892578-2.0161133,0.769043c-6.2314453,2.6464844-10.015625,7.1533203-11.2485352,13.3964844
				C7.6791992,29.09375,8.6743164,34.6474609,9.7963867,39.3251953c0.0185547,0.0390625,0.1411133,0.1308594,0.2104492,0.1425781
				c0.1992188,0.0332031,0.4082031,0.0244141,0.625,0.0175781c0.0146484-0.0009766,0.0297852-0.0009766,0.0449219-0.0019531
				c-0.0053711-0.1054688-0.0092773-0.1865234-0.0214844-0.2666016c-0.5620117-3.6347656-1.1367188-8.4267578-0.5859375-13.2509766
				c0.3959961-3.4604492,1.3754883-6.3344727,2.9956055-8.7856445c1.8564453-2.8095703,4.4208984-4.8032227,6.6845703-6.3828125
				c0.765625-0.534668,1.5385742-1.0576172,2.3120117-1.5810547L22.0727539,9.2089844z"/>
		</g>
		<g>
			<path style="fill:#FFDD43;" d="M17.0357227,39.3186417c-1.2404652,0.2773438-1.3551321,0.2295876-1.7274342-0.8587303
				c-1.458415-4.2632599-1.7398624-8.5435791-0.0988674-12.8268375c1.1482601-2.9971428,3.6403084-5.8634071,6.3301239-7.3788624
				c0.5748577,0.2765465,1.1245155,0.5409679,1.7078953,0.8216152c-2.9358902,2.4977245-5.7146511,5.0919247-6.6131954,9.0550365
				C15.7806778,31.8956146,15.3537989,35.6442604,17.0357227,39.3186417z"/>
			<path style="fill:#F39800;" d="M16.152832,39.7109375c-0.6474609,0-0.8325195-0.4443359-1.0810547-1.1699219
				c-1.6108398-4.7099609-1.6420898-8.9614258-0.0957031-12.9970703c1.1513672-3.0053711,3.6796875-5.9521484,6.440918-7.5073242
				c0.0717773-0.0395508,0.1582031-0.0419922,0.230957-0.0073242l1.7080078,0.8208008
				c0.0761719,0.0371094,0.1289063,0.109375,0.1396484,0.1933594s-0.0214844,0.1679688-0.0859375,0.2226563
				c-2.9443359,2.5048828-5.6591797,5.0722656-6.5317383,8.9199219c-0.8022461,3.5385742-1.3105469,7.3237305,0.3852539,11.027832
				c0.03125,0.0693359,0.0297852,0.1484375-0.003418,0.2158203c-0.0336914,0.0673828-0.0961914,0.1162109-0.1694336,0.1328125
				C16.6582031,39.6591797,16.3808594,39.7109375,16.152832,39.7109375z M21.5493164,18.5366211
				c-2.621582,1.5175781-5.0097656,4.3242188-6.1064453,7.1860352c-1.5024414,3.921875-1.4692383,8.0615234,0.1015625,12.65625
				c0.2587891,0.7558594,0.3461914,0.8320313,0.6083984,0.8320313c0.1293945,0,0.300293-0.0253906,0.5297852-0.0722656
				c-1.6064453-3.7470703-1.09375-7.5283203-0.2919922-11.0629883c0.8769531-3.8686523,3.5058594-6.456543,6.402832-8.940918
				L21.5493164,18.5366211z"/>
		</g>
		<g>
			<path style="fill:#FFDD43;" d="M21.9619656,17.9827499c1.1884155-0.1334305,2.5253429,0.0853119,3.1924477-1.3573647
				c2.2870007,0.7436142,4.5592155,0.6359177,6.8174572-0.1425972c-0.1710548,0.6041451-0.7166538,1.2688332-1.5548573,1.529314
				c-1.0980225,0.341217-2.2367077,0.6037197-3.3770618,0.7413902c-1.0620556,0.1282158-2.1546993,0.1182957-3.223278,0.0343227
				c-0.6476631-0.0508938-1.2751846-0.3580856-1.9117546-0.5501308
				C21.923933,18.1527061,21.9429493,18.067728,21.9619656,17.9827499z"/>
			<path style="fill:#F39800;" d="M25.3388672,19.1005859c-0.4863281,0-1.0048828-0.0214844-1.5415039-0.0639648
				c-0.4804688-0.0375977-0.940918-0.2026367-1.3862305-0.362793c-0.1928711-0.0693359-0.3852539-0.1381836-0.5786133-0.1967773
				c-0.1254883-0.0375977-0.2001953-0.1660156-0.171875-0.2939453l0.0571289-0.2548828
				c0.0234375-0.1040039,0.1103516-0.1816406,0.2163086-0.1938477c0.2124023-0.0239258,0.4296875-0.0366211,0.6469727-0.0498047
				c0.9975586-0.059082,1.8588867-0.1103516,2.3461914-1.1640625c0.0537109-0.1147461,0.1870117-0.1708984,0.3041992-0.1328125
				c2.1391602,0.6953125,4.3691406,0.6489258,6.6586914-0.1411133c0.0893555-0.0297852,0.1860352-0.0083008,0.253418,0.0546875
				c0.0673828,0.0639648,0.0942383,0.1601563,0.0688477,0.2495117c-0.1669922,0.5893555-0.7177734,1.3881836-1.7211914,1.7001953
				c-1.1787109,0.3662109-2.3295898,0.6186523-3.4213867,0.7504883
				C26.527832,19.0673828,25.9453125,19.1005859,25.3388672,19.1005859z M22.5375977,18.1879883
				c0.0141602,0.0053711,0.0283203,0.0102539,0.0424805,0.0151367c0.4335938,0.1557617,0.8427734,0.3027344,1.2563477,0.3354492
				c1.1728516,0.0917969,2.2299805,0.0800781,3.1738281-0.0332031c1.0615234-0.128418,2.1826172-0.3745117,3.3325195-0.7319336
				c0.5551758-0.1723633,0.9379883-0.5249023,1.1669922-0.8798828c-2.1357422,0.6333008-4.21875,0.6435547-6.2285156,0.0336914
				c-0.6318359,1.1357422-1.7119141,1.199707-2.6704102,1.2563477
				C22.5864258,18.1850586,22.5620117,18.1865234,22.5375977,18.1879883z"/>
		</g>
	</g>
	<g>
		<path style="fill:#F39800;" d="M19.3330078,50.4462891h0.0097656c0.7314453,0,0.7382813-0.5625,0.7416992-0.8330078
			c0.0024414-0.2021484-0.0170898-0.4570313-0.1899414-0.6318359c-0.1269531-0.1279297-0.3105469-0.1904297-0.5795898-0.1904297
			h-0.0004883c-0.637207,0.0068359-1.2739258,0.0087891-1.9106445,0.0087891l-6.0175781-0.0039063l-0.2280273,0.4658203
			l0.1220703,0.1259766c0.0898438,0.0927734,0.1665039,0.2021484,0.2436523,0.3105469
			c0.234375,0.328125,0.5258789,0.7373047,1.1494141,0.7392578l3.8173828,0.0019531
			C17.4379883,50.4394531,18.3852539,50.4404297,19.3330078,50.4462891z M19.3427124,50.1949463h0.000061v0.0013428
			L19.3427124,50.1949463z"/>
		<path style="fill:#F39800;" d="M26.0947266,58.3349609l0.2055664,0.0419922
			c1.8779297,0.3847656,3.7670898,0.5800781,5.6157227,0.5800781c0,0,0,0,0.0004883,0
			c1.8657227,0,3.7446289-0.1992188,5.5825195-0.5917969l0.1982422-0.0419922v-0.6503906H26.112793L26.0947266,58.3349609z"/>
		<path style="fill:#F39800;" d="M19.6015625,55.9033203c0.9204102,0.6542969,1.6972656,1.0605469,2.7250977,1.0605469h0.0268555
			c6.5288086-0.0429688,13.046875-0.0351563,19.5966797-0.0078125c0.8447266,0,1.3769531-0.4521484,1.8916016-0.8896484
			l0.7431641-0.6171875H18.9643555L19.6015625,55.9033203z M22.3266602,56.711731h0.0001831l-0.0001831,0.0021362V56.711731z"/>
		<path style="fill:#F39800;" d="M15.1069336,41.6845703l7.4804688-0.0019531c0.1845703,0,0.3696289-0.0146484,0.5498047-0.0302734
			l0.4399414-0.0302734l0.0327148-0.1962891c0.0986328-0.5917969,0.152832-0.9179688-0.0390625-1.1445313
			c-0.1845703-0.2177734-0.5-0.2177734-0.9770508-0.2177734H6.3041992l0.0151367,0.2636719
			c0.0605469,1.0673828,0.2275391,1.3564453,1.2875977,1.3564453L15.1069336,41.6845703z"/>
		<path style="fill:#F39800;" d="M26.8950195,43.8583984v-1.5585938H7.0537109l0.0771484,0.3105469
			c0.2900391,1.1660156,0.3862305,1.2480469,1.4692383,1.2480469H26.8950195z"/>
		<path style="fill:#F39800;" d="M13.9331055,46.0429688l4.2285156-0.0009766c0.4931641,0,0.8051758-0.0117188,0.9887695-0.234375
			c0.1914063-0.2333984,0.137207-0.5693359,0.0244141-1.1425781l-0.0395508-0.2021484H8.1743164l0.0649414,0.3027344
			c0.2236328,1.0380859,0.4970703,1.2763672,1.465332,1.2763672L13.9331055,46.0429688z"/>
		<path style="fill:#F39800;" d="M11.2866211,48.2470703c0.6953125-0.0292969,1.4301758-0.0419922,2.3828125-0.0419922
			c0.4614258,0,0.9228516,0.0029297,1.3837891,0.0058594c0.4624023,0.0029297,0.9248047,0.0058594,1.387207,0.0058594h2.7709961
			v-1.5195313H9.4033203l0.1489258,0.3486328c0.2675781,0.625,0.6494141,1.203125,1.6240234,1.203125L11.2866211,48.2470703z"/>
		<path style="fill:#F39800;" d="M19.3056641,52.5750122v2.3078003h11.9458008c0.7163086,0,1.1108398,0,1.3432617-0.2617188
			c0.2348633-0.2646484,0.1845703-0.6826172,0.1010742-1.375c-0.0327148-0.2753906-0.3535156-0.6005859-0.6362305-0.6455078
			c-0.3203125-0.0507813-0.7324219-0.0488281-1.1499023-0.03125l-0.1728516,0.0058594
			c-0.1000977,0-0.152832-0.0175781-0.168457-0.0341797c-0.0073242-0.0068359-0.0419922-0.0517578-0.0390625-0.2275391
			c0.0083008-0.4755859,0.0058594-0.9511719,0.0029297-1.4267578c-0.003418-0.6220703-0.0068359-1.2451172,0.0146484-1.8662109
			c0.0092773-0.2705078-0.0083008-0.5751953-0.2084961-0.7822266c-0.1914063-0.1982422-0.4667969-0.2216797-0.6577148-0.2216797
			l-0.1147461,0.0029297c-0.6816406,0.0332031-1.3657227,0.0273438-2.0639648,0.0195313
			c-0.2011719-0.0019531-0.4033203-0.0048828-0.6069336-0.0058594c0.0317383-0.1289063,0.0571289-0.2382813,0.0732422-0.3496094
			c0.0732422-0.5185547,0.2749023-0.6455078,0.8056641-0.625c0.6923828,0.0458984,1.3886719,0.0371094,2.0849609,0.0292969
			c0.4682617-0.0068359,0.8637695-0.0136719,1.4643555,0.0009766c0.2045898,0,0.4985352-0.0253906,0.6855469-0.2382813
			c0.1386719-0.1582031,0.1865234-0.3818359,0.1464844-0.6845703c-0.0185547-0.140625-0.0185547-0.2900391,0-0.4306641
			c0.0419922-0.3134766-0.0058594-0.5439453-0.1469727-0.7050781c-0.1923828-0.2197266-0.5078125-0.2460938-0.7587891-0.2460938
			c-0.0009766,0-0.0019531,0-0.0029297,0c-1.0483398,0.0117188-2.097168,0.0146484-3.1459961,0.0146484l-3.6337891-0.0039063
			l-2.1459961,0.0039063c-0.5488281,0-1.097168-0.0019531-1.6733398-0.0107422
			c-0.2802734,0-0.4794922,0.0693359-0.6088867,0.2128906c-0.1269531,0.1416016-0.175293,0.3388672-0.1469727,0.6054688
			c0.0092773,0.0849609,0.0058594,0.171875,0.003418,0.2587891l-0.0024414,0.1494141
			c0.0009766,0.9541016,0.1108398,1.0634766,1.0688477,1.0644531l3.1982422,0.0009766
			c-0.0498047,0.1494141-0.0947266,0.2929688-0.1118164,0.4453125c-0.0488281,0.4414063-0.2529297,0.5478516-0.7509766,0.5195313
			c-0.5170898-0.0361328-1.0371094-0.0253906-1.5756836-0.0195313c-0.234375,0.0029297-0.472168,0.0068359-0.7158203,0.0068359
			h-0.25v0.25c0,0.1572266,0.0024414,0.3046875,0.0048828,0.4453125c0.0043945,0.2861328,0.0087891,0.5439453-0.0102539,0.7998047
			c-0.0195313,0.2617188,0.0327148,0.4560547,0.159668,0.5927734c0.168457,0.1806641,0.4033203,0.2001953,0.6455078,0.2011719
			c0.2519531-0.0078125,0.5039063-0.0097656,0.7631836-0.0097656l0.9057617,0.0039063
			c-0.0405273,0.1220703-0.0810547,0.2421875-0.1206055,0.3603516c-0.1699219,0.5087891-0.3310547,0.9902344-0.4589844,1.4794922
			c-0.0874023,0.3320313-0.2016602,0.4287109-0.5102539,0.4287109l-0.0625-0.0019531
			c-0.0206909-0.0008545-0.0420532,0.0002441-0.0627441-0.0005493l0.2248535-1.5228882h-9.3413086l0.3833008,0.4189453
			c0.5874023,0.640625,1.1079102,1.1308594,2.0087891,1.1308594l0.1113281-0.0019531
			c0.6499023-0.0283203,1.3544922-0.0419922,2.2177734-0.0419922c0.5170898,0,1.0341797,0.0048828,1.5512695,0.0097656
			C19.2119141,52.574585,19.2587891,52.574646,19.3056641,52.5750122z M25.5214844,52.5673828l0.0859375-0.2597656
			c0.2250977-0.6845703,0.4370117-1.3291016,0.6445313-1.9365234c0.0131836-0.0146484,0.0556641-0.0371094,0.0698242-0.0400391
			c0.2553711-0.0078125,0.5107422-0.0097656,0.7753906-0.0097656l0.6386719,0.0009766l0.0019531,0.4121094
			c0.0039063,0.5791016,0.0078125,1.125-0.0180664,1.6445313c-0.0161133,0.0507813-0.1196289,0.15625-0.1494141,0.1699219
			c-0.3608398,0.0185547-0.7226563,0.0234375-1.0986328,0.0234375L25.5214844,52.5673828z"/>
		<path style="fill:#F39800;" d="M47.3066406,48.7910156c-0.1699219,0-0.4150391,0.0195313-0.5869141,0.1933594
			c-0.1738281,0.1757813-0.1923828,0.4296875-0.1914063,0.6064453c0.0029297,0.2783203,0.0087891,0.8574219,0.7949219,0.8574219
			l0.5-0.0117188c0.9824219-0.0253906,1.9941406-0.0341797,2.7695313,0.0244141
			c0.0654297,0.0048828,0.1289063,0.0078125,0.1904297,0.0078125c0.9648438,0,1.4482422-0.625,1.8261719-1.2998047
			l0.2089844-0.3720703l-3.1757813,0.0019531C48.8603516,48.7988281,48.0908203,48.7978516,47.3066406,48.7910156z"/>
		<path style="fill:#F39800;" d="M46.5791016,48.2255859h0.9541016c0.4853516,0,0.9707031-0.0039063,1.4560547-0.0087891
			c0.484375-0.0039063,0.96875-0.0087891,1.453125-0.0087891c0.7929688,0,1.4423828,0.0126953,2.0410156,0.0380859
			l0.1269531,0.0029297c0.8134766,0,1.3125-0.3730469,1.6171875-1.2099609l0.1230469-0.3359375h-7.7714844V48.2255859z"/>
		<path style="fill:#F39800;" d="M46.6572266,44.6357422c-0.1904297,0.2236328-0.1386719,0.5507813-0.0439453,1.1455078
			l0.03125,0.1962891l0.3994141,0.03125c0.171875,0.015625,0.3486328,0.03125,0.5253906,0.03125
			c1.2724609,0.0019531,2.5458984,0.0029297,3.8183594,0.0029297l2.7001953-0.0009766
			c0.9863281-0.0009766,1.2353516-0.2226563,1.4804688-1.3154297l0.0683594-0.3046875h-8.0009766
			C47.1396484,44.421875,46.8398438,44.421875,46.6572266,44.6357422z"/>
		<path style="fill:#F39800;" d="M46.5976563,52.5117188l0.2236328,0.0234375
			c0.6425781,0.0673828,1.0625,0.0957031,1.4033203,0.0957031c0,0,0,0,0.0009766,0
			c1.1337891,0,1.5947266-0.34375,2.2597656-1.1650391l0.3291016-0.4072266h-4.2167969V52.5117188z"/>
		<path style="fill:#F39800;" d="M55.5322266,42.2392578l-16.7412109-0.0019531l-1.0449219,0.0048828
			c-0.1689453,0-0.3378906-0.0009766-0.5371094-0.0039063c-0.4716797,0-0.7177734,0.2412109-0.75,0.7373047
			c-0.0205078,0.2988281,0.0371094,0.515625,0.1757813,0.6650391c0.1933594,0.2070313,0.4902344,0.2246094,0.7763672,0.2246094
			h0.0146484c3.6953125-0.0058594,7.3916016-0.0068359,11.0869141-0.0068359h6.6503906
			c1.0683594,0,1.1679688-0.0820313,1.5205078-1.2539063l0.0927734-0.3066406l-0.6503906-0.0341797
			C55.9160156,42.2509766,55.7236328,42.2392578,55.5322266,42.2392578z M37.4111328,43.6143799h0.000061l-0.000061,0.0008545
			V43.6143799z"/>
		<path style="fill:#F39800;" d="M57.1220703,40.2861328l-0.0449219-0.15625l-0.2441406-0.0351563
			c-0.0800781-0.0146484-0.1621094-0.0273438-0.2470703-0.0283203l-4.5048828-0.0009766
			c-3.9072266,0-7.8144531-0.0009766-11.7265625-0.0078125c-0.6474609,0-0.7587891,0.3964844-0.7832031,0.7851563
			c-0.0166016,0.2832031,0.0410156,0.4912109,0.1767578,0.6357422c0.1806641,0.1914063,0.4355469,0.2070313,0.6601563,0.2070313
			l15.7236328-0.0019531c0.4628906,0,0.8320313-0.0205078,1.0224609-0.2744141
			C57.3496094,41.1503906,57.2597656,40.7636719,57.1220703,40.2861328z"/>
		<path style="fill:#F39800;" d="M46.0615234,44.7080078C46,44.6884766,45.9521484,44.6738281,45.8896484,44.6738281
			l-3.1630859-0.0029297c-2.6367188-0.0019531-5.2724609-0.0039063-7.9150391-0.015625
			c-0.2382813,0-0.4121094,0.0585938-0.5332031,0.1796875c-0.1767578,0.1777344-0.1767578,0.4228516-0.1757813,0.6767578
			l0.0009766,3.8720703l-0.0019531,2.1914063c-0.0019531,0.9248047-0.0039063,1.8505859,0.015625,2.7744141
			c0.0048828,0.2207031,0.1884766,0.7753906,0.5117188,0.8027344c0.328125,0.0273438,0.6582031,0.0341797,0.9960938,0.0341797
			l1.2929688-0.0068359v-3.5771484h6.6455078L43.5625,51.765625c-0.0019531,0.3154297-0.0039063,0.6181641,0.0058594,0.9208984
			c0.0039063,0.1074219-0.0136719,0.1650391-0.0322266,0.1835938c-0.0078125,0.0078125-0.0429688,0.0351563-0.1894531,0.0351563
			c-0.0009766,0-0.0019531,0-0.0029297,0c-0.1875-0.0048828-0.3759766-0.0058594-0.5654297-0.0058594l-1.1074219,0.0029297
			l0.0146484,0.2636719c0.0888672,1.5673828,0.3779297,2.0888672,1.9160156,2.0888672l0.109375-0.0009766
			c0.2021484-0.0019531,0.4042969-0.0195313,0.6064453-0.0371094l0.15625-0.0136719
			c1.3847656-0.1132813,1.8769531-0.6376953,1.8808594-2.0048828c0.0058594-1.6142578,0.0048828-3.2294922,0.0039063-4.8447266
			l-0.0009766-3.5605469L46.0615234,44.7080078z M43.5283203,47.0039063v2.2285156h-1.8505859v-2.2285156H43.5283203z
			 M38.7880859,47.0126953v2.2119141h-1.8759766v-2.2119141H38.7880859z"/>
	</g>
	<g>
		<path style="fill:#FFDD43;" d="M31.5786724,45.3713303c0,0.3798866,0,0.7254448,0,1.1716118
			c-0.4208012,0-0.8461895-0.0000191-1.2715759,0.0000038c-1.0373001,0.0000648-2.0747471,0.0098991-3.1118126-0.005619
			c-0.3172321-0.0047455-0.4976482,0.0783386-0.5714035,0.4114876c-0.1145115,0.5172653-0.269537,1.0255585-0.4264717,1.6085548
			c1.295063,0,2.4933834,0,3.770483,0c0,1.5081711,0,2.9676666,0,4.5407257c0.646513,0,1.2168312,0.0173073,1.7855701-0.0051994
			c0.501379-0.0198402,0.4463749,0.3139725,0.439436,0.6250763c-0.0066185,0.2968407,0.0932655,0.6448708-0.420023,0.6430969
			c-3.9205112-0.0135231-7.8410587-0.0155869-11.7615929-0.0232964c-0.0380459-0.0000763-0.0760345-0.0283432-0.156847-0.0604477
			c0-0.3451042,0-0.7077675,0-1.180027c0.792696,0,1.5938663-0.0338974,2.3904114,0.0121803
			c0.5119839,0.0296173,0.7239075-0.14991,0.8554916-0.6381531c0.2356415-0.8743553,0.5528316-1.7267342,0.8638706-2.6733131
			c-0.9138241,0-1.751194,0-2.6350746,0c0-0.4264297,0-0.7849464,0-1.2244873c0.8214321,0,1.6249046-0.0202675,2.4266224,0.0084801
			c0.4062195,0.0145607,0.5973434-0.126812,0.6876202-0.5218201c0.1096764-0.4798813,0.2803574-0.9458275,0.4508076-1.503376
			c-1.5099201,0-2.9479446,0-4.4226055,0c0-0.4310112,0-0.7907104,0-1.1854782
			C24.1830807,45.3713303,27.8637581,45.3713303,31.5786724,45.3713303z M28.2519226,49.781868
			c-0.7376003,0-1.4172611-0.0092735-2.0961971,0.0087318c-0.1193333,0.0031662-0.3095741,0.0951958-0.341959,0.1892586
			c-0.3458614,1.0046425-0.6665058,2.0179672-1.0041313,3.0599518c1.2121239,0,2.314867,0,3.4422874,0
			C28.2519226,51.9516869,28.2519226,50.9209671,28.2519226,49.781868z"/>
		<path style="fill:#FFDD43;" d="M36.379879,54.6124039c-0.618988,0-1.1460342,0-1.7065582,0c0-3.1323547,0-6.2329063,0-9.3793602
			c3.7020378,0,7.3810158,0,11.116684,0c0.0147667,0.2158852,0.0400848,0.4156151,0.0403175,0.6153717
			c0.0027275,2.3647652,0.0068588,4.7295494-0.0002747,7.0942955c-0.0042,1.3912621-0.2578773,1.6589165-1.6376801,1.7806969
			c-0.164814,0.0145454-0.3316689,0.0073891-0.4975853,0.0077896c-1.1846504,0.0028877-1.1846504,0.0026779-1.4306946-1.2915802
			c0.4171181,0,0.8363647,0.0564537,1.2287331-0.0218124c0.2245102-0.0447807,0.4487724-0.2789383,0.5898247-0.4848938
			c0.0874863-0.127739,0.0198555-0.3623886,0.0201302-0.5490494c0.0006256-0.4301682,0.0001984-0.8603287,0.0001984-1.3233376
			c-2.5880051,0-5.1094589,0-7.7230949,0C36.379879,52.2417488,36.379879,53.4106445,36.379879,54.6124039z M36.3728943,46.4486732
			c0,1.0473938-0.0111389,2.0163536,0.0133438,2.984417c0.0032616,0.1288071,0.1838112,0.3592186,0.2882423,0.36269
			c0.880024,0.0293045,1.7614403,0.0167084,2.656723,0.0167084c0-1.1705856,0-2.2543411,0-3.3638153
			C38.3487282,46.4486732,37.4065704,46.4486732,36.3728943,46.4486732z M44.0524101,49.8149338
			c0-1.1940918,0-2.2783241,0-3.3546448c-0.9925156,0-1.9339561,0-2.9466248,0c0,1.0275574-0.0112038,2.0152321,0.0145073,3.0019455
			c0.0031357,0.1202164,0.2014427,0.3333397,0.3148003,0.3370857
			C42.2969246,49.8278313,43.1601181,49.8149338,44.0524101,49.8149338z"/>
		<path style="fill:#FFDD43;" d="M43.02491,56.1064529c-0.3124771,0.095047-0.6247635,0.2723045-0.9374619,0.273037
			c-6.7569199,0.0158958-13.5138931,0.0158195-20.2708149,0.0005913c-0.3248405-0.0007324-0.6493034-0.168663-0.9451351-0.3997536
			c7.3715649,0,14.7431335,0,22.1147003,0C42.9991035,56.0223694,43.0120087,56.0644112,43.02491,56.1064529z"/>
		<path style="fill:#FFDD43;" d="M55.9870949,42.7627182c-0.0014267,0.6277542-0.3728333,0.5542793-0.6948051,0.554306
			c-4.2475891,0.0003929-8.4951744,0.0002899-12.7427635,0.0003014c-1.8209953,0.0000076-3.6419945,0-5.4470444,0
			c-0.2649307-0.5894356,0.1152534-0.5544014,0.4564629-0.5544243c2.527832-0.0001717,5.0556641-0.000164,7.5834961-0.0001793
			c3.3773537-0.0000153,6.7546997,0,10.1320534,0C55.4982529,42.762722,55.7220078,42.7627182,55.9870949,42.7627182z"/>
		<path style="fill:#FFDD43;" d="M7.7803259,42.8026314c0.2049088-0.0145073,0.3841696-0.0382347,0.5634384-0.0382957
			c5.8055124-0.0019341,11.6110277-0.0030212,17.4165344,0.002636c0.2932739,0.0002823,0.740057-0.1378059,0.5855942,0.5503082
			c-0.1820164,0-0.3796959-0.0000038-0.5773754,0c-5.7433128,0.0000038-11.4866238-0.0008049-17.2299347,0.0019646
			C8.1850033,43.319416,7.825459,43.3570518,7.7803259,42.8026314z"/>
		<path style="fill:#FFDD43;" d="M40.1798439,40.6316261c0.1766167-0.0086823,0.3601341-0.0255356,0.5436592-0.025589
			c5.1212578-0.0014229,10.2425117-0.001236,15.3637695-0.0006943c0.1449471,0.0000153,0.2956276-0.0155869,0.4325829,0.0193825
			c0.0754166,0.0192604,0.1810722,0.1310883,0.1783104,0.1972198c-0.0043831,0.1050339-0.0633888,0.2599869-0.1440468,0.297451
			c-0.1221924,0.0567551-0.2827988,0.0388069-0.4270859,0.0388489c-5.1419907,0.0013847-10.2839775,0.0013924-15.4259682,0.000618
			C40.3729668,41.1588173,39.9766006,41.2232285,40.1798439,40.6316261z"/>
		<path style="fill:#FFDD43;" d="M22.5981331,41.1577644c0.5475445-0.0007286,0.547533-0.0098801,0.4459419-0.5336914
			c-5.3656254,0-10.7349854,0-16.1342888,0c0.0043936,0.5599251,0.3444905,0.5381317,0.6901784,0.5375252
			c2.36485-0.0041504,4.7297115-0.002121,7.0945692-0.00214L22.5981331,41.1577644z"/>
		<path style="fill:#FFDD43;" d="M8.940032,44.9628296c2.6121073,0,5.2242155-0.0000038,7.8363237,0.0000076
			c0.4771099,0,0.955864-0.0226822,1.4304924,0.0116615c0.1814003,0.0131302,0.3533516,0.1568298,0.5296097,0.2410202
			c-0.1864777,0.1006126-0.3718452,0.2861328-0.5596066,0.2885933c-1.7214527,0.0225296-3.4433193,0.0133209-5.1650639,0.0133171
			c-1.1409149,0-2.2822809,0.0168648-3.42239-0.0134621c-0.2477922-0.006588-0.4910822-0.1824417-0.7364464-0.2803345
			C8.881978,45.1366997,8.911006,45.0497627,8.940032,44.9628296z"/>
		<path style="fill:#FFDD43;" d="M35.1274376,58.1617661c0.0000191,0.0444717,0.000042,0.0889435,0.0000648,0.1334152
			c-2.1658554,0-4.3317127,0-6.49757,0c-0.000021-0.0444717-0.0000439-0.0889435-0.0000668-0.1334152H35.1274376z"/>
		<path style="fill:#FFDD43;" d="M10.3633318,47.1794281c0.2001247,0,0.4002495,0,0.6003752,0
			c2.3594055,0.0000076,4.7188091-0.0000038,7.0782146,0.0001144c0.1034775,0.0000038,0.2226944-0.0314484,0.3068771,0.0091705
			c0.138649,0.0669022,0.254631,0.1807823,0.3801689,0.2748566c-0.1260071,0.0702896-0.2511063,0.1996269-0.3781624,0.20158
			c-1.0759716,0.0165482-2.1523075,0.0069275-3.2285118,0.010891c-1.3656883,0.0050354-2.7315521,0.0294724-4.0968542,0.0105171
			c-0.244628-0.0033951-0.4869003-0.1765251-0.7302589-0.2712822
			C10.3178968,47.3366585,10.3406143,47.2580452,10.3633318,47.1794281z"/>
		<path style="fill:#FFDD43;" d="M47.157814,44.9875641c2.5625191,0,5.125042,0,7.687561,0
			c0.0334854,0.054081,0.066967,0.1081657,0.1004486,0.1622505c-0.217659,0.1223679-0.4341164,0.3485718-0.6531639,0.3511047
			c-2.2559814,0.0260735-4.5124397,0.0225983-6.7685509,0.0025826c-0.1690178-0.0014992-0.3363533-0.1932068-0.5044708-0.2964897
			C47.0656967,45.1338615,47.1117554,45.0607147,47.157814,44.9875641z"/>
		<path style="fill:#FFDD43;" d="M12.0823021,49.3595352c2.4615097,0,4.9230175,0,7.4161835,0c0,0.1802368,0,0.3335114,0,0.5452728
			c-1.2029171,0-2.3818436,0.0000038-3.5607691-0.0000038c-1.016777-0.0000038-2.0344715,0.023922-3.0497656-0.0148811
			c-0.2981777-0.0113983-0.5895538-0.2007256-0.8840475-0.3085022
			C12.0300369,49.5074577,12.0561695,49.4334946,12.0823021,49.3595352z"/>
		<path style="fill:#FFDD43;" d="M14.3090963,51.5635452c2.4205713,0,4.8411417,0,7.2733717,0
			c0.0601082,0.3757095-0.034399,0.5550041-0.4418106,0.5490685c-1.9893398-0.0289955-3.9791756-0.0276642-5.9682722-0.0660934
			c-0.3085251-0.0059586-0.6141462-0.1622276-0.9211092-0.2489891
			C14.2705498,51.7195358,14.2898235,51.6415405,14.3090963,51.5635452z"/>
		<path style="fill:#FFDD43;" d="M53.4941139,47.3855591c-0.1879272,0.1039429-0.3747444,0.2958069-0.5639458,0.2981834
			c-1.8220291,0.0228844-3.6445045,0.0193672-5.4666481,0.0019569c-0.1251564-0.0012016-0.2486801-0.1744461-0.372963-0.2676773
			c0.1180191-0.0786743,0.2355576-0.2250786,0.3541336-0.2259216c1.9858589-0.0141373,3.9718475-0.0100975,5.9578133-0.0100975
			C53.4330406,47.249855,53.4635773,47.3177071,53.4941139,47.3855591z"/>
		<path style="fill:#FFDD43;" d="M51.8111877,49.5452461c-0.2573013,0.1197777-0.5119171,0.3357811-0.7723656,0.3430557
			c-1.2828522,0.0358124-2.5672569,0.0162735-3.9118576,0.0162735c-0.0100327-0.1904793-0.0186768-0.3545876-0.0288086-0.5468941
			c1.583004,0,3.1100731,0,4.6371422,0C51.7605934,49.4202042,51.7858925,49.4827271,51.8111877,49.5452461z"/>
		<path style="fill:#FFDD43;" d="M49.5757332,51.6892281c-0.1947479,0.1199799-0.3815651,0.3242989-0.5858002,0.3435211
			c-0.5310135,0.0499802-1.0701485,0.030365-1.6048965,0.0094299c-0.1008644-0.0039482-0.1964684-0.1422729-0.2944946-0.2185822
			c0.1013527-0.0937958,0.2000732-0.2653198,0.3044777-0.2688484c0.7094841-0.0239792,1.4201736-0.0125389,2.1304741-0.0125389
			C49.5422401,51.591217,49.5589905,51.6402206,49.5757332,51.6892281z"/>
	</g>
</g>
</svg>
