<?xml version="1.0" encoding="utf-8"?>
<!-- Generator: Adobe Illustrator 15.0.2, SVG Export Plug-In . SVG Version: 6.00 Build 0)  -->
<!DOCTYPE svg PUBLIC "-//W3C//DTD SVG 1.1//EN" "http://www.w3.org/Graphics/SVG/1.1/DTD/svg11.dtd">
<svg version="1.1" id="レイヤー_1" xmlns="http://www.w3.org/2000/svg" xmlns:xlink="http://www.w3.org/1999/xlink" x="0px"
	 y="0px" width="64px" height="64px" viewBox="0 0 64 64" style="enable-background:new 0 0 64 64;" xml:space="preserve">
<radialGradient id="SVGID_1_" cx="2.2558594" cy="52.8320313" r="32.02705" gradientTransform="matrix(0.6707 0 0 0.1740307 25.8214912 47.3330841)" gradientUnits="userSpaceOnUse">
	<stop  offset="0" style="stop-color:#828282"/>
	<stop  offset="0.3578534" style="stop-color:#858585;stop-opacity:0.6421466"/>
	<stop  offset="0.6336284" style="stop-color:#8F8F8F;stop-opacity:0.3663716"/>
	<stop  offset="0.8811451" style="stop-color:#9F9F9F;stop-opacity:0.1188549"/>
	<stop  offset="1" style="stop-color:#AAAAAA;stop-opacity:0"/>
</radialGradient>
<path style="fill:url(#SVGID_1_);" d="M50.8300781,56.5322266c0,3.6191406-10.5175781,6.5595703-23.4951172,6.5595703
	c-12.9755859,0-23.4951172-2.9404297-23.4951172-6.5595703c0-3.6269531,10.5195313-6.5683594,23.4951172-6.5683594
	C40.3125,49.9638672,50.8300781,52.9052734,50.8300781,56.5322266z"/>
<g>
	
		<linearGradient id="SVGID_2_" gradientUnits="userSpaceOnUse" x1="-6.2148438" y1="9.8554688" x2="54.6562119" y2="39.3340034" gradientTransform="matrix(0.7071068 0.7071068 -0.7071068 0.7071068 32 -13.2549896)">
		<stop  offset="0" style="stop-color:#D68038"/>
		<stop  offset="1" style="stop-color:#631408"/>
	</linearGradient>
	<path style="fill:url(#SVGID_2_);" d="M57.5957031,9.1572266c0.7851563-1.8071289,1.0048828-3.0961914,0.4560547-3.6459961
		c-0.5507813-0.5507813-1.8388672-0.331543-3.6455078,0.4526367C35.9511719,2.6132813-11.5849609,26.1518555,12.9116211,50.6484375
		C37.546875,75.2832031,60.9414063,27.6137695,57.5957031,9.1572266z"/>
	<g style="opacity:0.71;">
		<path style="fill:#DB8952;" d="M56.0996094,6.3203125L45.0576172,8.7597656l-8.2558594,3.6542969l-6.7666016,4.3310547
			l-1.8955078,3.519043l-4.6015625,2.9780273c0,0-13.8696289,5.5424805-16.7475586,14.34375l-0.4414063-4.4648438
			l10.1503906-8.2548828l3.7900391-3.5195313l3.925293-0.40625l5.1425781-6.2255859l15.9960938-8.5532227
			C45.3535156,6.1616211,56.5048828,3.4765625,56.0996094,6.3203125z"/>
		<path style="fill:#DB8952;" d="M57.4443359,8.4277344l-8.7333984,2.3623047l-8.1191406,5.1430664l-8.0537109,3.0444336
			l-5.3461914,8.4589844c0,0-11.2333984,5.277832-14.8876953,9.2041016
			c-3.6542969,3.9257813-4.0532227,7.5195313-4.0532227,7.5195313l1.5825195,3.4101563l7.7490234-9.9824219l10.8613281-8.628418
			c0,0,3.2143555-7.8833008,6.7338867-9.2368164c3.5185547-1.3535156,6.3613281-1.4887695,6.3613281-1.4887695l9.8789063-6.0927734
			l6.4560547-0.2797852L57.4443359,8.4277344z"/>
		<path style="fill:#DB8952;" d="M57.7978516,15.0058594l-7.1914063,2.2807617l-7.7138672,4.7368164l-7.2324219,4.5253906
			l-4.0019531,7.25L20.019043,45.1660156l-7.1733398,4.1972656l3.1533203,4.3730469l11.1669922-11.1660156l9.4072266-11.6376953
			l9.1611328-6.3374023c0,0,1.8417969-6.2792969,5.5224609-6.1176758c3.6816406,0.1621094,6.0175781,0.4223633,6.0175781,0.4223633
			L57.7978516,15.0058594z"/>
		<polygon style="fill:#DB8952;" points="57.9160156,21.8876953 51.2841797,28.5200195 41.4033203,40.296875 35.9902344,43.8144531 
			26.7856445,54.9121094 24.09375,56.6582031 31.2539063,57.2128906 39.3730469,44.7617188 45.4296875,39.7890625 
			53.7158203,30.4199219 		"/>
		<path style="fill:#DB8952;" d="M41.6152344,32.5039063l-4.1035156,2.4804688l-5.9892578,6.8007813l-7.0922852,9.9589844
			l9.7026367-8.5097656l2.2626953-4.6972656l5.9560547-3.5195313l8.390625-10.8291016l-0.1357422-2.3007813
			C50.6064453,21.8876953,44.8056641,30.5756836,41.6152344,32.5039063z"/>
	</g>
	<path style="fill:#300B03;" d="M27.4277344,58.9550781c-0.0004883,0,0,0-0.0004883,0
		c-5.3037109,0-10.4873047-2.4951172-15.4072266-7.4150391C3.2626953,42.7822266,4.0224609,34.671875,6.2016602,29.4101563
		c6.2919922-15.1899414,30.715332-25.2675781,44.1079102-25.2675781c1.3300781,0,2.5771484,0.0922852,3.7128906,0.2744141
		c1.8017578-0.675293,3.4804688-0.425293,4.5136719,0.6083984c0.5166016,0.5166016,1.5703125,1.9624023,0.6054688,4.5161133
		c1.6875,10.4897461-4.3779297,28.2407227-13.3886719,39.0317383
		C40.0820313,55.3652344,33.7441406,58.9550781,27.4277344,58.9550781z M50.3095703,6.6640625
		c-12.8681641,0-36.0805664,9.956543-41.777832,23.7109375c-2.7421875,6.6210938-0.96875,13.1416016,5.2714844,19.3818359
		c4.4301758,4.4296875,9.0136719,6.6767578,13.6240234,6.6767578c7.0063477,0,12.7797852-5.1533203,16.3901367-9.4765625
		C52.3730469,36.7099609,58.3457031,19.2651367,56.5966797,9.625l-0.0683594-0.3774414l0.1533203-0.3510742
		c0.6083984-1.3955078,0.2089844-1.9501953,0.0712891-2.0869141c-0.0957031-0.0957031-0.3232422-0.2563477-0.7744141-0.2563477
		c-0.3769531,0-0.8183594,0.1088867-1.3134766,0.3237305l-0.3505859,0.1523438L53.9375,6.9609375
		C52.8535156,6.7641602,51.6328125,6.6640625,50.3095703,6.6640625z"/>
</g>
</svg>
