<?xml version="1.0" encoding="utf-8"?>
<!-- Generator: Adobe Illustrator 15.0.0, SVG Export Plug-In . SVG Version: 6.00 Build 0)  -->
<!DOCTYPE svg PUBLIC "-//W3C//DTD SVG 1.1//EN" "http://www.w3.org/Graphics/SVG/1.1/DTD/svg11.dtd">
<svg version="1.1" id="レイヤー_1" xmlns="http://www.w3.org/2000/svg" xmlns:xlink="http://www.w3.org/1999/xlink" x="0px"
	 y="0px" width="64px" height="64px" viewBox="0 0 64 64" style="enable-background:new 0 0 64 64;" xml:space="preserve">
<g>
	<linearGradient id="SVGID_1_" gradientUnits="userSpaceOnUse" x1="32" y1="2.9960938" x2="31.9999981" y2="60.9864616">
		<stop  offset="0" style="stop-color:#1FB8FF"/>
		<stop  offset="1" style="stop-color:#0070FF"/>
	</linearGradient>
	<path style="fill:url(#SVGID_1_);" d="M62.2050781,50.2050781c0,6.6269531-5.3730469,12-12,12h-36.409668
		c-6.6274414,0-12-5.3730469-12-12v-36.409668c0-6.6274414,5.3725586-12,12-12h36.409668c6.6269531,0,12,5.3725586,12,12V50.2050781
		z"/>
	<g>
		<path style="opacity:0.28;fill:#FFFFFF;" d="M2.6723633,13.3686523c-0.0322266,0.3530273-0.0541992,0.7094727-0.0541992,1.0708008
			v12.59375c0.0058594,0.0058594,0.0117188,0.0117188,0.0170898,0.0175781L2.6723633,13.3686523z"/>
		<path style="opacity:0.28;fill:#FFFFFF;" d="M60.1064453,23.5698242
			c1.1884766-5.8022461,1.2216797-9.4174805,1.2216797-10.1938477c-0.5380859-5.9477539-5.53125-10.609375-11.6181641-10.609375
			H14.2910156c-6.0756836,0-11.0620117,4.6420898-11.6171875,10.5722656
			c0.0195313,0.3491211,0.4970703,4.0341797,1.2929688,10.3071289C11.206543,30.7006836,21.0922852,35.0546875,32,35.0546875
			C42.9453125,35.0546875,52.859375,30.6694336,60.1064453,23.5698242z"/>
		<path style="opacity:0.28;fill:#FFFFFF;" d="M61.328125,13.3789063l0.0390625,13.6674805
			c0.0048828-0.0048828,0.0097656-0.0097656,0.0146484-0.0146484V14.4394531
			C61.3818359,14.081543,61.359375,13.7290039,61.328125,13.3789063z"/>
	</g>
	<path style="fill:#FFFFFF;" d="M2.6738281,27.5859375c0,0-0.0058594-10.9194336-0.0283203-13.8588867
		C2.6181641,10.1269531,4.6665039,2.4165039,14.4165039,2.4165039c6.6391602,0,16.8032227,0,16.8032227,0
		s-14.1015625,1.2348633-18.199707,2.0546875s-7.4936523,6.043457-8.4423828,9.2626953
		C3.1982422,18.4150391,2.6738281,27.5859375,2.6738281,27.5859375z"/>
	<path style="fill:#22A4FC;" d="M61.7929688,36.8320313c0,0,0.0058594,10.7851563,0.0283203,13.6894531
		c0.0283203,3.5546875-3.3095703,10.7568359-10.5888672,10.7568359c-6.7744141,0-17.1464844,0-17.1464844,0
		s12.9667969-0.8046875,17.1494141-1.6152344c4.1806641-0.8095703,7.6445313-5.9677734,8.6142578-9.1484375
		C61.2578125,45.8896484,61.7929688,36.8320313,61.7929688,36.8320313z"/>
	<path style="fill:#0068A8;" d="M50.2050781,63.2050781h-36.409668c-7.168457,0-13-5.8320313-13-13v-36.409668
		c0-7.168457,5.831543-13,13-13h36.409668c7.1679688,0,13,5.831543,13,13v36.409668
		C63.2050781,57.3730469,57.3730469,63.2050781,50.2050781,63.2050781z M13.7954102,2.7954102c-6.0654297,0-11,4.9345703-11,11
		v36.409668c0,6.0654297,4.9345703,11,11,11h36.409668c6.0654297,0,11-4.9345703,11-11v-36.409668c0-6.0654297-4.9345703-11-11-11
		H13.7954102z"/>
</g>
<g>
	<path style="fill:#FFFFFF;" d="M28.7490234,41.734375h-4.5546875l-1.1259766-4.5039063h-4.4541016l-1.0507813,4.5039063h-4.4550781
		l5.1054688-19.34375h5.5800781L28.7490234,41.734375z M22.5429688,33.9013672l-0.8505859-3.878418
		c-0.25-1.1508789-0.5761719-2.8779297-0.8261719-4.0541992h-0.0498047c-0.25,1.1762695-0.5751953,2.953125-0.8007813,4.0541992
		l-0.8759766,3.878418H22.5429688z"/>
	<path style="fill:#FFFFFF;" d="M31.0996094,22.6660156c1.2509766-0.2255859,3.0029297-0.4003906,5.2050781-0.4003906
		c2.5527344,0,4.4287109,0.425293,5.7304688,1.5263672c1.2265625,1.0009766,1.9521484,2.6523438,1.9521484,4.4541016
		c0,5.3808594-4.3798828,6.6318359-7.4072266,6.6318359c-0.4257813,0-0.8007813-0.0253906-1.1015625-0.0498047v6.90625h-4.3789063
		V22.6660156z M35.4785156,31.3740234c0.2753906,0.0253906,0.5507813,0.050293,1.0009766,0.050293
		c2.0527344,0,3.1533203-1.2260742,3.1533203-2.9780273c0-1.7763672-1.0761719-2.7524414-2.828125-2.7524414
		c-0.6005859,0-1.0751953,0.074707-1.3261719,0.1499023V31.3740234z"/>
	<path style="fill:#FFFFFF;" d="M46.4873047,22.390625h4.4042969v19.34375h-4.4042969V22.390625z"/>
</g>
</svg>
