<?xml version="1.0" encoding="UTF-8" standalone="no"?>
<!-- Generator: Adobe Illustrator 16.0.0, SVG Export Plug-In . SVG Version: 6.00 Build 0)  -->

<svg
   xmlns:dc="http://purl.org/dc/elements/1.1/"
   xmlns:cc="http://creativecommons.org/ns#"
   xmlns:rdf="http://www.w3.org/1999/02/22-rdf-syntax-ns#"
   xmlns:svg="http://www.w3.org/2000/svg"
   xmlns="http://www.w3.org/2000/svg"
   xmlns:sodipodi="http://sodipodi.sourceforge.net/DTD/sodipodi-0.dtd"
   xmlns:inkscape="http://www.inkscape.org/namespaces/inkscape"
   version="1.1"
   id="Layer_42"
   x="0px"
   y="0px"
   width="64px"
   height="64px"
   viewBox="0 0 64 64"
   enable-background="new 0 0 64 64"
   xml:space="preserve"
   inkscape:version="0.91 r13725"
   sodipodi:docname="arcade_cabinet.svg"><metadata
     id="metadata129"><rdf:RDF><cc:Work
         rdf:about=""><dc:format>image/svg+xml</dc:format><dc:type
           rdf:resource="http://purl.org/dc/dcmitype/StillImage" /></cc:Work></rdf:RDF></metadata><defs
     id="defs127" /><sodipodi:namedview
     pagecolor="#ffffff"
     bordercolor="#666666"
     borderopacity="1"
     objecttolerance="10"
     gridtolerance="10"
     guidetolerance="10"
     inkscape:pageopacity="0"
     inkscape:pageshadow="2"
     inkscape:window-width="1920"
     inkscape:window-height="1017"
     id="namedview125"
     showgrid="false"
     inkscape:zoom="1.84375"
     inkscape:cx="153.68025"
     inkscape:cy="-93.650857"
     inkscape:window-x="1920"
     inkscape:window-y="26"
     inkscape:window-maximized="1"
     inkscape:current-layer="Layer_42" /><g
     id="g3"><path
       fill="none"
       stroke="#231815"
       stroke-width="2"
       stroke-linecap="round"
       stroke-linejoin="round"
       stroke-miterlimit="10"
       d="   M46.631,5.483c-0.378,0-0.717,0.158-0.955,0.409H18.44c-0.24-0.25-0.579-0.409-0.957-0.409c-0.727,0-1.316,0.578-1.316,1.292   v31.784c-0.006,1.444-0.009,2.889-0.003,3.947c-0.004,1.349-0.004,2.611,0.003,3.458v11.896c0,0.713,0.589,1.291,1.316,1.291   c0.414,0,0.778-0.191,1.019-0.483h27.109c0.241,0.292,0.604,0.483,1.019,0.483c0.728,0,1.316-0.578,1.316-1.291V6.775   C47.947,6.062,47.358,5.483,46.631,5.483z"
       id="path5" /><g
       id="g7"><rect
         x="18.206"
         y="5.917"
         width="27.685"
         height="52.75"
         id="rect9"
         style="fill:#fefffa;fill-opacity:1"
         fill="#009DE6" /><rect
         x="18.206"
         y="57.771"
         width="27.685"
         height="0.896"
         id="rect11"
         style="fill:#191a13;fill-opacity:1"
         fill="#036EB5" /><rect
         x="44.566"
         y="11.167"
         width="1.954"
         height="21.667"
         id="rect13"
         style="fill:#2a2a2b;fill-opacity:1"
         fill="#44C8F5" /><rect
         x="17.577"
         y="11.167"
         width="1.953"
         height="21.667"
         id="rect15"
         style="fill:#2a2a2b;fill-opacity:1"
         fill="#44C8F5" /><path
         d="M47.923,47.023c0,0-13.546,3.948-31.722,0c-0.089-0.02,0-11.084,0-11.084h31.722V47.023z"
         id="path17"
         style="fill:#767c79;fill-opacity:1"
         fill="#005C98" /><path
         d="M47.947,57.859c0,0.713-0.589,1.291-1.316,1.291l0,0c-0.727,0-1.316-0.578-1.316-1.291V6.775    c0-0.713,0.59-1.292,1.316-1.292l0,0c0.728,0,1.316,0.578,1.316,1.292V57.859z"
         id="path19"
         style="fill:#11160c;fill-opacity:1"
         fill="#E53828" /><path
         d="M47.947,13.204c0,0.032-0.589,0.058-1.316,0.058l0,0c-0.727,0-1.316-0.025-1.316-0.058v-2.275    c0-0.032,0.59-0.058,1.316-0.058l0,0c0.728,0,1.316,0.026,1.316,0.058V13.204z"
         id="path21"
         style="fill:#1a1d16;fill-opacity:1"
         fill="#C10D23" /><path
         d="M18.8,57.859c0,0.713-0.588,1.291-1.316,1.291l0,0c-0.727,0-1.316-0.578-1.316-1.291V6.775    c0-0.713,0.589-1.292,1.316-1.292l0,0c0.728,0,1.316,0.578,1.316,1.292V57.859z"
         id="path23"
         style="fill:#11160c;fill-opacity:1"
         fill="#E53828" /><path
         d="M18.759,13.204c0,0.032-0.588,0.058-1.316,0.058l0,0c-0.727,0-1.316-0.025-1.316-0.058v-2.275    c0-0.032,0.589-0.058,1.316-0.058l0,0c0.728,0,1.316,0.026,1.316,0.058V13.204z"
         id="path25"
         style="fill:#1a1d16;fill-opacity:1"
         fill="#C10D23" /><path
         d="M47.947,35.016c0,0.033-0.589,0.059-1.316,0.059l0,0c-0.727,0-1.316-0.025-1.316-0.059v-2.271    c0-0.032,0.59-0.058,1.316-0.058l0,0c0.728,0,1.316,0.026,1.316,0.058V35.016z"
         id="path27"
         style="fill:#404a42;fill-opacity:1"
         fill="#C10D23" /><path
         d="M18.759,35.016c0,0.033-0.588,0.059-1.316,0.059l0,0c-0.727,0-1.316-0.025-1.316-0.059v-2.271    c0-0.032,0.589-0.058,1.316-0.058l0,0c0.728,0,1.316,0.026,1.316,0.058V35.016z"
         id="path29"
         style="fill:#404a42;fill-opacity:1"
         fill="#C10D23" /><rect
         x="18.206"
         y="5.892"
         width="27.685"
         height="5.033"
         id="rect31"
         style="fill:#696b9d;fill-opacity:1"
         fill="#009DE6" /><path
         d="M39.912,7.218H24.184c-0.714,0-1.293,0.448-1.293,1V8.6c0,0.552,0.58,1,1.293,1h15.729    c0.716,0,1.295-0.448,1.295-1V8.218C41.207,7.666,40.628,7.218,39.912,7.218z"
         id="path33"
         style="fill:#fe3d3e;fill-opacity:1"
         fill="#7DC2EB" /><polygon
         points="44.566,12.347 19.532,12.347 18.206,10.92 45.891,10.92   "
         id="polygon35"
         style="fill:#a7aca2;fill-opacity:1"
         fill="#036EB5" /><polygon
         points="19.531,31.757 44.565,31.757 45.891,33.184 18.206,33.184   "
         id="polygon37"
         style="fill:#b0b8b1;fill-opacity:1"
         fill="#036EB5" /><path
         d="M47.923,44.135c0,0-13.546,3.948-31.722,0c-0.089-0.02,0-11.084,0-11.084h31.722V44.135z"
         id="path39"
         fill="#036EB5" /><path
         d="M16.168,40.163v4.354c0.005,0.681,0.017,1.108,0.033,1.112c0.878,0.191,1.744,0.358,2.599,0.514V34.545    h-2.599C16.201,34.545,16.179,37.367,16.168,40.163z"
         id="path41"
         style="fill:#80878a;fill-opacity:1"
         fill="#153F7E" /><path
         d="M45.314,46.224c1.682-0.326,2.608-0.595,2.608-0.595V34.545h-2.608V46.224z"
         id="path43"
         style="fill:#80878a;fill-opacity:1"
         fill="#153F7E" /><radialGradient
         id="SVGID_1_"
         cx="32.1665"
         cy="47.833"
         r="16.674"
         gradientTransform="matrix(0.9217 0 0 1 2.5076 0)"
         gradientUnits="userSpaceOnUse"><stop
           offset="0"
           style="stop-color:#008DCD"
           id="stop46" /><stop
           offset="1"
           style="stop-color:#036EB5"
           id="stop48" /></radialGradient><path
         d="M47.923,44.135c0,0-13.546,3.948-31.722,0c-0.089-0.02,0-11.084,0-11.084h31.722V44.135z"
         id="path50"
         style="fill:#a2a8a1;fill-opacity:1"
         fill="url(#SVGID_1_)" /><path
         d="M17.09,39.919c0.003,1.071,0.015,1.794,0.036,1.799c17.115,3.948,29.871,0,29.871,0v-8.667H17.125    C17.125,33.051,17.097,36.785,17.09,39.919z"
         id="path52"
         style="fill:#cbd1cd;fill-opacity:1"
         fill="#009DE6" /><g
         id="g54"><path
           d="M41.944,28.696H22.048c-0.845,0-1.528-0.671-1.528-1.5V15.153c0-0.829,0.683-1.5,1.528-1.5h19.896     c0.845,0,1.528,0.671,1.528,1.5v12.043C43.473,28.025,42.789,28.696,41.944,28.696z"
           id="path56"
           fill="#3E3A39" /></g><g
         id="g58"><g
           id="g60"><path
             d="M40.828,27.576H23.162c-0.749,0-1.357-0.571-1.357-1.276V16.051c0-0.705,0.608-1.276,1.357-1.276h17.666      c0.75,0,1.359,0.571,1.359,1.276v10.249C42.188,27.004,41.578,27.576,40.828,27.576z"
             id="path62"
             fill="#C6C7C8" /></g></g><g
         id="g64"><g
           id="g66"><path
             stroke-miterlimit="10"
             d="      M18.643,34.557c0,0-0.075,6.026,0,6.041c15.421,2.844,26.834,0,26.834,0v-6.041H18.643z"
             id="path68"
             stroke-linejoin="round"
             stroke-linecap="round"
             stroke="#3E3A39"
             fill="#4E5050" /><linearGradient
             id="SVGID_2_"
             gradientUnits="userSpaceOnUse"
             x1="32.0425"
             y1="30.375"
             x2="32.0425"
             y2="42.5006"><stop
               offset="0"
               style="stop-color:#808182"
               id="stop71" /><stop
               offset="1"
               style="stop-color:#4E5050"
               id="stop73" /></linearGradient><path
             d="M45.477,40.697c0,0-11.413,2.844-26.834,0c-0.075-0.015,0-6.041,0-6.041h26.834V40.697z"
             id="path75"
             fill="url(#SVGID_2_)" /></g></g><line
         stroke-miterlimit="10"
         x1="24.083"
         y1="15.835"
         x2="22.995"
         y2="17.098"
         id="line77"
         stroke-linejoin="round"
         stroke-linecap="round"
         stroke="#ECECED"
         fill="none" /><path
         d="M40.393,14.774h-6.105L23.249,27.573c0.005,0,0.011,0.003,0.016,0.003h6.088L40.393,14.774z"
         id="path79"
         fill="#ECECED" /><line
         stroke-miterlimit="10"
         x1="39.947"
         y1="26.293"
         x2="41.035"
         y2="25.032"
         id="line81"
         stroke-linejoin="round"
         stroke-linecap="round"
         stroke="#ECECED"
         fill="none" /></g><g
       id="g83"><g
         id="g85"><ellipse
           fill="#3E3A39"
           stroke="#3E3A39"
           stroke-width="0.5"
           stroke-miterlimit="10"
           cx="34"
           cy="37.799"
           rx="2.245"
           ry="1.152"
           id="ellipse87" /><ellipse
           fill="#595757"
           cx="34"
           cy="37.301"
           rx="2.245"
           ry="1.152"
           id="ellipse89"
           style="fill:#c10d23;fill-opacity:1" /><path
           fill="#1EA839"
           d="M35.543,36.375v0.442c0,0.438-0.689,0.792-1.541,0.792s-1.544-0.354-1.544-0.792v-0.442H35.543z"
           id="path91"
           style="fill:#ed1557;fill-opacity:1" /><ellipse
           fill="#8BC01F"
           cx="34"
           cy="36.375"
           rx="1.543"
           ry="0.792"
           id="ellipse93"
           style="fill:#f06f99;fill-opacity:1" /></g><g
         id="g95"><ellipse
           fill="#3E3A39"
           stroke="#3E3A39"
           stroke-width="0.5"
           stroke-miterlimit="10"
           cx="40.001"
           cy="37.799"
           rx="2.243"
           ry="1.152"
           id="ellipse97" /><ellipse
           fill="#595757"
           cx="40.001"
           cy="37.301"
           rx="2.243"
           ry="1.152"
           id="ellipse99"
           style="fill:#c10d23;fill-opacity:1" /><path
           fill="#1EA839"
           d="M41.543,36.375v0.442c0,0.438-0.689,0.792-1.541,0.792s-1.542-0.354-1.542-0.792v-0.442H41.543z"
           id="path101"
           style="fill:#ed1557;fill-opacity:1" /><ellipse
           fill="#8BC01F"
           cx="40.001"
           cy="36.375"
           rx="1.542"
           ry="0.792"
           id="ellipse103"
           style="fill:#f06f99;fill-opacity:1" /></g><g
         id="g105"><ellipse
           fill="#3E3A39"
           stroke="#3E3A39"
           stroke-width="0.5"
           stroke-miterlimit="10"
           cx="24.183"
           cy="37.799"
           rx="2.243"
           ry="1.152"
           id="ellipse107" /><ellipse
           fill="#595757"
           cx="24.183"
           cy="37.301"
           rx="2.243"
           ry="1.152"
           id="ellipse109" /><g
           id="g111"><path
             fill="#B2B2B3"
             d="M24.167,37.465c-0.276,0-0.5-0.124-0.5-0.4V32.92c0-0.276,0.224-0.5,0.5-0.5s0.5,0.224,0.5,0.5v4.144      C24.667,37.341,24.443,37.465,24.167,37.465z"
             id="path113" /></g><path
           fill="#868686"
           d="M24.167,32.42c-0.276,0-0.5,0.224-0.5,0.5v3.07c0.164,0.037,0.333,0.061,0.508,0.061     c0.169,0,0.333-0.021,0.492-0.056V32.92C24.667,32.644,24.443,32.42,24.167,32.42z"
           id="path115" /><circle
           stroke-miterlimit="10"
           cx="24.175"
           cy="33.342"
           r="1.81"
           id="circle117"
           style="fill:#0088aa;stroke:#0088aa;stroke-opacity:1"
           stroke="#C10D23"
           fill="#E30012" /><circle
           fill="#ED1557"
           cx="24.175"
           cy="33.342"
           r="1.81"
           id="circle119"
           style="fill:#00ccff" /><path
           fill="#F06F99"
           d="M25.461,33.043c0,0.821-0.665,1.487-1.486,1.487s-1.487-0.666-1.487-1.487c0-0.824,0.666-1.49,1.487-1.49     S25.461,32.219,25.461,33.043z"
           id="path121"
           style="fill:#80e5ff" /><circle
           fill="#F5F5F5"
           cx="23.674"
           cy="32.643"
           r="0.959"
           id="circle123"
           style="fill:#d5f6ff" /></g></g></g></svg>