<?xml version="1.0" encoding="utf-8"?>
<!-- Generator: Adobe Illustrator 18.0.0, SVG Export Plug-In . SVG Version: 6.00 Build 0)  -->
<!DOCTYPE svg PUBLIC "-//W3C//DTD SVG 1.1//EN" "http://www.w3.org/Graphics/SVG/1.1/DTD/svg11.dtd">
<svg version="1.1" id="レイヤー_1" xmlns="http://www.w3.org/2000/svg" xmlns:xlink="http://www.w3.org/1999/xlink" x="0px"
	 y="0px" width="64px" height="64px" viewBox="0 0 64 64" style="enable-background:new 0 0 64 64;" xml:space="preserve">
<g>
	<g>
		
			<linearGradient id="SVGID_1_" gradientUnits="userSpaceOnUse" x1="305.8972473" y1="-304.0600586" x2="305.8972473" y2="-356.8203125" gradientTransform="matrix(1 0 0 -1 -274 -298)">
			<stop  offset="0" style="stop-color:#9FE1FF"/>
			<stop  offset="0.2621" style="stop-color:#60A1CE"/>
			<stop  offset="0.5708" style="stop-color:#1B5B97"/>
			<stop  offset="0.7152" style="stop-color:#004082"/>
			<stop  offset="0.7694" style="stop-color:#004487"/>
			<stop  offset="0.8311" style="stop-color:#005094"/>
			<stop  offset="0.8963" style="stop-color:#0064AB"/>
			<stop  offset="0.9636" style="stop-color:#0080CB"/>
			<stop  offset="1" style="stop-color:#0092DF"/>
		</linearGradient>
		<path style="fill:url(#SVGID_1_);" d="M58.3144989,50.8203011c0,4.4003983-3.6005974,8-8,8H13.4799805
			c-4.3999004,0-8-3.5996017-8-8V14.0600595c0-4.3998995,3.6001-7.9999995,8-7.9999995h36.8345184c4.3994026,0,8,3.6001,8,7.9999995
			V50.8203011z"/>
	</g>
	<g style="opacity:0.22;">
		<path style="fill:#FFFFFF;" d="M5.47998,26.8129997C12.8608398,29.1958008,22,32.9394989,31.8969994,32.9394989
			c9.8978996,0,19.036602-3.7436981,26.4174995-6.1264992c0,0,2.1035004-13.8359489-1.9179993-18.270031
			C45.5918007,3.18311,18.9848595,5.1889601,8.1469698,7.9648399C3.72314,12.0571289,5.47998,26.8129997,5.47998,26.8129997z"/>
	</g>
	<g>
		<path style="fill:#057CDD;" d="M50.3144531,59.8203125H13.4799805c-4.9624023,0-9-4.0371094-9-9V14.0600586
			c0-4.9624023,4.0375977-9,9-9h36.8344727c4.9628906,0,9,4.0375977,9,9v36.7602539
			C59.3144531,55.7832031,55.2773438,59.8203125,50.3144531,59.8203125z M13.4799805,7.0600586c-3.8598633,0-7,3.1401367-7,7
			v36.7602539c0,3.859375,3.1401367,7,7,7h36.8344727c3.859375,0,7-3.140625,7-7V14.0600586c0-3.8598633-3.140625-7-7-7H13.4799805z
			"/>
	</g>
</g>
<g>
	<path style="fill:#FFFFFF;" d="M30.4814453,50.4267578c-0.2451172-21.6826172-5.2749023-27.5498047-7.4262695-29.065918
		c-1.2646484-0.8911133-2.5541992-1.0917969-3.9462891-0.612793c-1.3842773,0.4765625-2.2929688,1.3652344-2.7783203,2.7172852
		c-0.9130859,2.5429688-0.0527344,5.9702148,0.6855469,7.1748047l-2.5576172,1.5673828
		c-1.1328125-1.8481445-2.21875-6.2265625-0.9516602-9.7558594c0.7900391-2.2001953,2.3896484-3.7705078,4.6254883-4.5405273
		c2.3012695-0.7915039,4.6000977-0.4477539,6.6508789,0.9975586c5.4228516,3.8217773,8.5117188,15.003418,8.6982422,31.4848633
		L30.4814453,50.4267578z"/>
	<path style="fill:#FFFFFF;" d="M33.5185547,50.4267578l-3-0.0332031
		c0.1870117-16.4814453,3.2763672-27.6630859,8.6992188-31.4848633c2.0498047-1.4443359,4.3515625-1.7875977,6.6513672-0.9975586
		c2.2353516,0.7700195,3.8339844,2.3398438,4.6240234,4.5400391c1.2666016,3.5292969,0.1816406,7.9082031-0.9511719,9.7563477
		l-2.5585938-1.5673828c0.7382813-1.2045898,1.5996094-4.6323242,0.6865234-7.175293
		c-0.4853516-1.3515625-1.3935547-2.2402344-2.7773438-2.7167969c-1.390625-0.4794922-2.6806641-0.2792969-3.9472656,0.612793
		C38.7939453,22.8769531,33.7646484,28.7441406,33.5185547,50.4267578z"/>
</g>
<g>
</g>
<g>
</g>
<g>
</g>
<g>
</g>
<g>
</g>
<g>
</g>
</svg>
