<?xml version="1.0" encoding="utf-8"?>
<!-- Generator: Adobe Illustrator 17.0.0, SVG Export Plug-In . SVG Version: 6.00 Build 0)  -->
<!DOCTYPE svg PUBLIC "-//W3C//DTD SVG 1.1//EN" "http://www.w3.org/Graphics/SVG/1.1/DTD/svg11.dtd">
<svg version="1.1" id="レイヤー_1" xmlns="http://www.w3.org/2000/svg" xmlns:xlink="http://www.w3.org/1999/xlink" x="0px"
	 y="0px" width="64px" height="64px" viewBox="0 0 64 64" style="enable-background:new 0 0 64 64;" xml:space="preserve">
<g>
	<g>
		<path style="fill:#331C03;" d="M56.09375,37.5810547c0.5742188-1.3144531,0.8642578-2.7675781,0.8642578-4.3310547
			c0-4.1611328-2.5800781-7.7431641-7.4746094-10.3979492c0.1914063-0.6884766,0.2871094-1.418457,0.2871094-2.1801758
			c0-11.0478516-16.7080078-17.4404297-17.4194336-17.7075195L31,2.4580078v1.4428711
			c0,4.8769531-4.1210938,6.6655273-8.4838867,8.559082c-4.0742188,1.7685547-8.2871094,3.5966797-8.2871094,8.2119141
			c0,1.2705078,0.262207,2.434082,0.7817383,3.4750977C9.7207031,25.9746094,7.0415039,29.0327148,7.0415039,33.25
			c0,1.8183594,0.3920898,3.4804688,1.1669922,4.9560547C4.253418,40.4912109,2.25,43.6552734,2.25,47.625
			C2.25,63,24.6416016,63,32,63s29.75,0,29.75-15.375C61.75,43.7207031,59.8476563,40.3457031,56.09375,37.5810547z"/>
		<path style="fill:#3E3A39;" d="M32,63.5c-7.4819336,0-30.25,0-30.25-15.875c0-4.0185547,1.9526367-7.2509766,5.8046875-9.6113281
			C6.8823242,36.5742188,6.5415039,34.9746094,6.5415039,33.25c0-4.3085938,2.6201172-7.4658203,7.7900391-9.390625
			c-0.3999023-0.9760742-0.6025391-2.0454102-0.6025391-3.1875c0-4.9428711,4.5615234-6.9228516,8.5864258-8.6699219
			C26.7080078,10.0957031,30.5,8.449707,30.5,3.9008789V1.7368164l2.0263672,0.7592773
			c0.7246094,0.2719727,17.7441406,6.7924805,17.7441406,18.1757813c0,0.6660156-0.0703125,1.3129883-0.2089844,1.9287109
			c4.8408203,2.7270508,7.3964844,6.402832,7.3964844,10.6494141c0,1.4873047-0.2539063,2.8857422-0.7539063,4.1640625
			C60.3847656,40.234375,62.25,43.6679688,62.25,47.625C62.25,63.5,39.4814453,63.5,32,63.5z M31.5,3.1791992v0.7216797
			c0,5.2050781-4.4658203,7.1430664-8.784668,9.0175781c-4.1079102,1.7832031-7.9863281,3.4667969-7.9863281,7.753418
			c0,1.1884766,0.2451172,2.2822266,0.7290039,3.2519531l0.2543945,0.5097656l-0.5385742,0.1860352
			C10.109375,26.3691406,7.5415039,29.2729492,7.5415039,33.25c0,1.7324219,0.3735352,3.3212891,1.1098633,4.7236328
			l0.2231445,0.4248047l-0.4160156,0.2402344C4.6708984,40.8271484,2.75,43.8505859,2.75,47.625C2.75,62.5,24.765625,62.5,32,62.5
			s29.25,0,29.25-14.875c0-3.7324219-1.8349609-6.9765625-5.453125-9.6416016l-0.3212891-0.2363281l0.1601563-0.3662109
			c0.5458984-1.2490234,0.8222656-2.6386719,0.8222656-4.1308594c0-3.9555664-2.4941406-7.3989258-7.2128906-9.9584961
			l-0.3496094-0.1899414l0.1064453-0.3833008c0.1777344-0.6416016,0.2685547-1.3300781,0.2685547-2.0463867
			c0-10.6982422-16.3969727-16.9775391-17.0952148-17.2392578L31.5,3.1791992z"/>
	</g>
	<g>
		<linearGradient id="SVGID_1_" gradientUnits="userSpaceOnUse" x1="32" y1="62" x2="32" y2="32.3990822">
			<stop  offset="0" style="stop-color:#926134"/>
			<stop  offset="1" style="stop-color:#C59D62"/>
		</linearGradient>
		<path style="fill:url(#SVGID_1_);" d="M32,33.25c0-2.5,28.75,0,28.75,14.375S39.1875,62,32,62S3.25,62,3.25,47.625
			S32,35.75,32,33.25z"/>
		<linearGradient id="SVGID_2_" gradientUnits="userSpaceOnUse" x1="32" y1="45.2291679" x2="32" y2="20.1799049">
			<stop  offset="0" style="stop-color:#926134"/>
			<stop  offset="1" style="stop-color:#C59D62"/>
		</linearGradient>
		<path style="fill:url(#SVGID_2_);" d="M32,21.2708321c0-3.0208321,23.9583321,0,23.9583321,11.9791679
			S37.9895821,45.2291679,32,45.2291679S8.041667,45.2291679,8.041667,33.25S32,24.291666,32,21.2708321z"/>
		<linearGradient id="SVGID_3_" gradientUnits="userSpaceOnUse" x1="32" y1="29.057291" x2="32" y2="3.9010413">
			<stop  offset="0" style="stop-color:#926134"/>
			<stop  offset="1" style="stop-color:#C59D62"/>
		</linearGradient>
		<path style="fill:url(#SVGID_3_);" d="M32,3.9010413c0,0,16.7708321,6.2890625,16.7708321,16.770834
			c0,8.385416-12.578125,8.385416-16.7708321,8.385416s-16.7708321,0-16.7708321-8.385416S32,14.3828125,32,3.9010413z"/>
		<linearGradient id="SVGID_4_" gradientUnits="userSpaceOnUse" x1="27.0694447" y1="20.4375" x2="27.0694447" y2="4.5">
			<stop  offset="0" style="stop-color:#FFFFFF;stop-opacity:0.2"/>
			<stop  offset="1" style="stop-color:#FFFFFF;stop-opacity:0.3"/>
		</linearGradient>
		<path style="fill:url(#SVGID_4_);" d="M32,4.5c0,0,8.75,7.5,0,12.5s-13.75,3.75-13.75,1.25s3.75-3.75,6.25-5
			C29.5,10.75,32,8.25,32,4.5z"/>
		<linearGradient id="SVGID_5_" gradientUnits="userSpaceOnUse" x1="32" y1="35.75" x2="32" y2="25.75">
			<stop  offset="0" style="stop-color:#FFFFFF;stop-opacity:0.1"/>
			<stop  offset="1" style="stop-color:#FFFFFF;stop-opacity:0.2"/>
		</linearGradient>
		<path style="fill:url(#SVGID_5_);" d="M48.25,25.75c0,0-1.25,3.75-16.25,3.75s-16.25-3.75-16.25-3.75s-2.5,0-3.75,2.5
			c-1.5811386,3.1622772,2.5,7.5,20,7.5s21.5811386-4.3377228,20-7.5C50.75,25.75,48.25,25.75,48.25,25.75z"/>
		<linearGradient id="SVGID_6_" gradientUnits="userSpaceOnUse" x1="32" y1="53.8461456" x2="32" y2="40.75">
			<stop  offset="0" style="stop-color:#FFFFFF;stop-opacity:0.1"/>
			<stop  offset="1" style="stop-color:#FFFFFF;stop-opacity:0.2"/>
		</linearGradient>
		<path style="fill:url(#SVGID_6_);" d="M54.5,40.75c0,0-5.2537918,5.9102249-22.5,5.9102249S9.5,40.75,9.5,40.75
			s-2.8743682,0.2745209-4.3115525,3.1488914C3.3705375,47.5347099,11.8794222,53.8461456,32,53.8461456
			s28.6294632-6.3114357,26.811554-9.9472542C57.3743668,41.0245209,54.5,40.75,54.5,40.75z"/>
	</g>
</g>
<g>
	<g>
		<g>
			
				<rect x="15.2327671" y="25.484066" transform="matrix(0.7071405 0.7070731 -0.7070731 0.7071405 25.2368107 -7.3653016)" style="fill:#350000;" width="12.5538855" height="2.5977268"/>
			
				<rect x="20.2108459" y="20.5059853" transform="matrix(0.7071068 0.7071068 -0.7071068 0.7071068 25.2384396 -7.3651237)" style="fill:#350000;" width="2.5977268" height="12.5538855"/>
		</g>
		<g>
			
				<rect x="36.2348709" y="25.484066" transform="matrix(0.7071068 0.7071068 -0.7071068 0.7071068 31.3897247 -22.215641)" style="fill:#350000;" width="12.5532875" height="2.5977268"/>
			
				<rect x="41.2126503" y="20.5062847" transform="matrix(0.7071068 0.7071068 -0.7071068 0.7071068 31.3897247 -22.215641)" style="fill:#350000;" width="2.5977268" height="12.5532875"/>
		</g>
	</g>
	<path style="fill:#842C38;" d="M43.4849205,49.9747086c0,4.3198738-5.1376419,2.0913925-11.4745216,2.0913925
		c-6.3373108,0-11.4745178,2.2284813-11.4745178-2.0913925c0-4.3190079,5.137207-7.8202553,11.4745178-7.8202553
		C38.3472786,42.1544533,43.4849205,45.6557007,43.4849205,49.9747086z"/>
	<path style="fill:#350000;" d="M40.2205009,53.8310966c-0.991169,0-2.14048-0.1200905-3.3574486-0.2469444
		c-1.4681435-0.1539192-3.1316452-0.3272896-4.8526535-0.3272896s-3.385355,0.1733704-4.8534966,0.3272896
		c-1.216547,0.1268539-2.36586,0.2469444-3.3570251,0.2469444c-1.3755379,0-2.3540192-0.240181-3.0792103-0.7552147
		c-0.9125156-0.649498-1.3755379-1.6922531-1.3755379-3.1011963c0-4.9685135,5.6818657-9.0109825,12.6652699-9.0109825
		c6.9838295,0,12.6652718,4.042469,12.6652718,9.0109825C44.6756706,52.5337868,43.1770821,53.8310966,40.2205009,53.8310966z
		 M32.0103989,50.8753586c1.8453293,0,3.5747948,0.1809807,5.1004448,0.3399734
		c1.2034378,0.1260109,2.2428093,0.2351074,3.1096573,0.2351074c1.9772568,0,2.0736656-0.533638,2.0736656-1.4757538
		c0-3.593399-4.7088814-6.6294785-10.2837677-6.6294785c-5.574461,0-10.2837658,3.0360794-10.2837658,6.6294785
		c0,0.8939095,0.271471,1.087574,0.3738003,1.160305c0.5996056,0.4262352,2.4487381,0.3264427,4.8090992,0.0811882
		C28.435606,51.0563393,30.1650734,50.8753586,32.0103989,50.8753586z"/>
	<path style="fill:#350000;" d="M48.3198128,22.2499523c-2.2817116-5.2666245-6.7411118-4.3925877-6.9288597-4.351572
		l-0.3585777-1.6947918c0.0608902-0.0118389,6.0374832-1.1924429,8.8773613,5.3571148L48.3198128,22.2499523z"/>
	<path style="fill:#350000;" d="M15.8155813,22.2499523l-1.5890789-0.689249
		c2.8394518-6.5504036,8.8156233-5.370224,8.8769369-5.3571148l-0.3543491,1.6956387
		C22.5596523,17.860323,18.0803776,17.0243454,15.8155813,22.2499523z"/>
</g>
<g>
</g>
<g>
</g>
<g>
</g>
<g>
</g>
<g>
</g>
<g>
</g>
</svg>
