<?xml version="1.0" encoding="utf-8"?>
<!-- Generator: Adobe Illustrator 17.0.0, SVG Export Plug-In . SVG Version: 6.00 Build 0)  -->
<!DOCTYPE svg PUBLIC "-//W3C//DTD SVG 1.1//EN" "http://www.w3.org/Graphics/SVG/1.1/DTD/svg11.dtd">
<svg version="1.1" id="レイヤー_1" xmlns="http://www.w3.org/2000/svg" xmlns:xlink="http://www.w3.org/1999/xlink" x="0px"
	 y="0px" width="64px" height="64px" viewBox="0 0 64 64" style="enable-background:new 0 0 64 64;" xml:space="preserve">
<g>
	<linearGradient id="SVGID_1_" gradientUnits="userSpaceOnUse" x1="32" y1="4.5" x2="32" y2="59.5">
		<stop  offset="0" style="stop-color:#6BCF40;stop-opacity:0.8"/>
		<stop  offset="0.4" style="stop-color:#159B3A"/>
		<stop  offset="0.6" style="stop-color:#159B3A"/>
		<stop  offset="1" style="stop-color:#51B526;stop-opacity:0.8"/>
	</linearGradient>
	<path style="fill:url(#SVGID_1_);" d="M62,34.5c0,13.8071175-11.25,25-30,25S2,48.3071175,2,34.5s12.5-30,30-30
		S62,20.6928806,62,34.5z"/>
	<linearGradient id="SVGID_2_" gradientUnits="userSpaceOnUse" x1="32" y1="4" x2="32" y2="60">
		<stop  offset="0" style="stop-color:#D4FFD5"/>
		<stop  offset="1" style="stop-color:#00FF2C"/>
	</linearGradient>
	<path style="fill:url(#SVGID_2_);" d="M32,60C14.0419922,60,1.5,49.5136719,1.5,34.5C1.5,20.1025391,14.543457,4,32,4
		c17.4560547,0,30.5,16.1025391,30.5,30.5C62.5,49.5136719,49.9580078,60,32,60z M32,5.4576273c-16.5981026,0-29,15.310729-29,29
		c0,14.1803169,11.925252,24.0847473,29,24.0847473s29-9.9044304,29-24.0847473C61,20.7683563,48.5976219,5.4576273,32,5.4576273z"
		/>
	<linearGradient id="SVGID_3_" gradientUnits="userSpaceOnUse" x1="31.9997559" y1="3.154134" x2="31.9997559" y2="60.8453789">
		<stop  offset="0" style="stop-color:#009245"/>
		<stop  offset="0.4" style="stop-color:#00BC40"/>
		<stop  offset="0.6" style="stop-color:#00BC40"/>
		<stop  offset="1" style="stop-color:#009245"/>
	</linearGradient>
	<path style="fill:url(#SVGID_3_);" d="M32,60.8453789c-18.4739742,0-31.3766403-10.8212776-31.3766403-26.3146057
		C0.6233594,19.7195587,14.041626,3.154134,32,3.154134c17.9578857,0,31.376152,16.565424,31.376152,31.3766384
		C63.376152,50.0241013,50.4739723,60.8453789,32,60.8453789z M32,4.1512537
		c-17.38727,0-30.3795204,16.0391121-30.3795204,30.3795204C1.6204789,49.4369278,14.1131964,59.848259,32,59.848259
		s30.3790321-10.4113312,30.3790321-25.3174858C62.3790321,20.1903667,49.3872681,4.1512537,32,4.1512537z"/>
	<linearGradient id="SVGID_4_" gradientUnits="userSpaceOnUse" x1="32" y1="7.8333335" x2="32" y2="42.8333321">
		<stop  offset="0" style="stop-color:#F5FFD2;stop-opacity:0.6"/>
		<stop  offset="1" style="stop-color:#F5FFD2;stop-opacity:0"/>
	</linearGradient>
	<path style="fill:url(#SVGID_4_);" d="M54.522728,28.4721546c0,6.7936115-8.446022,14.3611774-22.522728,14.3611774
		S9.477273,35.2657661,9.477273,28.4721546c0-9.4987564,9.384469-20.6388206,22.522728-20.6388206
		S54.522728,18.9733982,54.522728,28.4721546z"/>
	<linearGradient id="SVGID_5_" gradientUnits="userSpaceOnUse" x1="22.625" y1="8.25" x2="22.625" y2="22">
		<stop  offset="0.3" style="stop-color:#FFFFFF;stop-opacity:0.6"/>
		<stop  offset="1" style="stop-color:#FFFFFF;stop-opacity:0.2"/>
	</linearGradient>
	<circle style="fill:url(#SVGID_5_);" cx="22.625" cy="15.125" r="6.875"/>
	<linearGradient id="SVGID_6_" gradientUnits="userSpaceOnUse" x1="46.375" y1="47.75" x2="46.375" y2="54">
		<stop  offset="0.3" style="stop-color:#FFFFFF;stop-opacity:0.4"/>
		<stop  offset="1" style="stop-color:#FFFFFF;stop-opacity:0"/>
	</linearGradient>
	<circle style="fill:url(#SVGID_6_);" cx="46.375" cy="50.875" r="3.125"/>
	<linearGradient id="SVGID_7_" gradientUnits="userSpaceOnUse" x1="46.375" y1="49.125" x2="46.375" y2="52.625">
		<stop  offset="0.3" style="stop-color:#FFFFFF;stop-opacity:0.4"/>
		<stop  offset="1" style="stop-color:#FFFFFF;stop-opacity:0"/>
	</linearGradient>
	<circle style="fill:url(#SVGID_7_);" cx="46.375" cy="50.875" r="1.75"/>
	<linearGradient id="SVGID_8_" gradientUnits="userSpaceOnUse" x1="22.625" y1="9.75" x2="22.625" y2="20.5">
		<stop  offset="0.3" style="stop-color:#FFFFFF"/>
		<stop  offset="1" style="stop-color:#FFFFFF;stop-opacity:0.2"/>
	</linearGradient>
	<circle style="fill:url(#SVGID_8_);" cx="22.625" cy="15.125" r="5.375"/>
</g>
<g>
	<g>
		<g>
			
				<rect x="12.6263218" y="22.1251602" transform="matrix(0.7071405 0.7070731 -0.7070731 0.7071405 22.5250416 -7.1339259)" style="fill:#350000;" width="14.4963799" height="2.9996796"/>
			
				<rect x="18.3746719" y="16.3768101" transform="matrix(0.7071068 0.7071068 -0.7071068 0.7071068 22.5265083 -7.1337996)" style="fill:#350000;" width="2.9996796" height="14.4963799"/>
		</g>
		<g>
			
				<rect x="36.8781319" y="22.1251602" transform="matrix(0.7071068 0.7071068 -0.7071068 0.7071068 29.6295986 -24.2821751)" style="fill:#350000;" width="14.4956894" height="2.9996796"/>
			
				<rect x="42.6261368" y="16.3771553" transform="matrix(0.7071068 0.7071068 -0.7071068 0.7071068 29.6295986 -24.2821751)" style="fill:#350000;" width="2.9996796" height="14.4956894"/>
		</g>
	</g>
	<path style="fill:#842C38;" d="M45.25,50.4053001c0,4.9883003-5.9325981,2.4150009-13.25,2.4150009
		c-7.3178997,0-13.25,2.5732994-13.25-2.4150009C18.75,45.4179993,24.6821003,41.375,32,41.375
		C39.3174019,41.375,45.25,45.4179993,45.25,50.4053001z"/>
	<path style="fill:#350000;" d="M41.4804688,54.8583984c-1.1445313,0-2.4716797-0.1386719-3.8769531-0.2851563
		C35.9082031,54.3955078,33.9873047,54.1953125,32,54.1953125s-3.9091797,0.2001953-5.6044922,0.3779297
		c-1.4047852,0.1464844-2.7319336,0.2851563-3.8764648,0.2851563c-1.5883789,0-2.7182617-0.2773438-3.5556641-0.8720703
		c-1.0537109-0.75-1.5883789-1.9541016-1.5883789-3.5810547C17.375,44.6679688,23.9360352,40,32,40
		c8.0644531,0,14.625,4.6679688,14.625,10.4052734C46.625,53.3603516,44.8945313,54.8583984,41.4804688,54.8583984z M32,51.4453125
		c2.1308594,0,4.1279297,0.2089844,5.8896484,0.3925781c1.3896484,0.1455078,2.5898438,0.2714844,3.5908203,0.2714844
		c2.2832031,0,2.3945313-0.6162109,2.3945313-1.7041016C43.875,46.2558594,38.4375,42.75,32,42.75
		c-6.4370117,0-11.875,3.5058594-11.875,7.6552734c0,1.0322266,0.3134766,1.2558594,0.4316406,1.3398438
		c0.6923828,0.4921875,2.8276367,0.3769531,5.5532227,0.09375C27.8720703,51.6542969,29.8691406,51.4453125,32,51.4453125z"/>
	<path style="fill:#350000;" d="M50.8330078,18.390625c-2.6347656-6.081543-7.7841797-5.0722656-8.0009766-5.0249023
		l-0.4140625-1.9570313c0.0703125-0.0136719,6.9716797-1.3769531,10.2509766,6.1860352L50.8330078,18.390625z"/>
	<path style="fill:#350000;" d="M13.2993164,18.390625l-1.8349609-0.7958984
		c3.2788086-7.5639648,10.1796875-6.2011719,10.2504883-6.1860352l-0.4091797,1.9580078
		C21.0869141,13.3217773,15.9145508,12.3564453,13.2993164,18.390625z"/>
</g>
<g>
</g>
<g>
</g>
<g>
</g>
<g>
</g>
<g>
</g>
<g>
</g>
</svg>
