<?xml version="1.0" encoding="utf-8"?>
<!-- Generator: Adobe Illustrator 15.0.2, SVG Export Plug-In . SVG Version: 6.00 Build 0)  -->
<!DOCTYPE svg PUBLIC "-//W3C//DTD SVG 1.1//EN" "http://www.w3.org/Graphics/SVG/1.1/DTD/svg11.dtd">
<svg version="1.1" id="レイヤー_1" xmlns="http://www.w3.org/2000/svg" xmlns:xlink="http://www.w3.org/1999/xlink" x="0px"
	 y="0px" width="64px" height="64px" viewBox="0 0 64 64" style="enable-background:new 0 0 64 64;" xml:space="preserve">
<g>
	<g>
		<linearGradient id="SVGID_1_" gradientUnits="userSpaceOnUse" x1="27.28125" y1="25.3964844" x2="44.4953117" y2="75.0707016">
			<stop  offset="0" style="stop-color:#FFF1BF"/>
			<stop  offset="0.1983559" style="stop-color:#FFE9B2"/>
			<stop  offset="0.566525" style="stop-color:#FFD38F"/>
			<stop  offset="1" style="stop-color:#FFB55F"/>
		</linearGradient>
		<path style="fill:url(#SVGID_1_);" d="M59.9150391,32.1264648c5.2558594,29.3842773-6.1865234,27.7456055-28.2299805,27.7680664
			c-18.5625,0.0205078-33.3339844-1.1259766-27.6210938-26.0078125C9.644043,9.5810547,13.1225586,4.3588867,31.6850586,4.3588867
			C51.8417969,4.3588867,55.4697266,7.2739258,59.9150391,32.1264648z"/>
		<linearGradient id="SVGID_2_" gradientUnits="userSpaceOnUse" x1="37.8964844" y1="-5.6679688" x2="34.0634613" y2="15.1655426">
			<stop  offset="0" style="stop-color:#D23A18"/>
			<stop  offset="0.2649619" style="stop-color:#DA4E1C"/>
			<stop  offset="0.8068733" style="stop-color:#ED8328"/>
			<stop  offset="0.89697" style="stop-color:#F18C2A"/>
			<stop  offset="0.9146296" style="stop-color:#F29537"/>
			<stop  offset="0.9474026" style="stop-color:#F5AD5A"/>
			<stop  offset="0.9913981" style="stop-color:#F9D391"/>
			<stop  offset="1" style="stop-color:#FADB9D"/>
		</linearGradient>
		<path style="fill:url(#SVGID_2_);" d="M19.9902344,6.3378906C12.8808594,8.4985352,10.4023438,11.3334961,15.9511719,12
			S30,9.7270508,34,10.9467773S36.4082031,15.1289063,40.3330078,15s3.7958984-2.9873047,7.4833984,0.0039063
			s7.40625,5.6704102,8.2949219,0S40.8144531,0.0092773,19.9902344,6.3378906z"/>
		<linearGradient id="SVGID_3_" gradientUnits="userSpaceOnUse" x1="35.6435547" y1="6.2949219" x2="59.5605316" y2="1.7949119">
			<stop  offset="0" style="stop-color:#D23A18"/>
			<stop  offset="0.2649619" style="stop-color:#DA4E1C"/>
			<stop  offset="0.8068733" style="stop-color:#ED8328"/>
			<stop  offset="0.89697" style="stop-color:#F18C2A"/>
			<stop  offset="0.9146296" style="stop-color:#F29537"/>
			<stop  offset="0.9474026" style="stop-color:#F5AD5A"/>
			<stop  offset="0.9913981" style="stop-color:#F9D391"/>
			<stop  offset="1" style="stop-color:#FADB9D"/>
		</linearGradient>
		<path style="fill:url(#SVGID_3_);" d="M18.4052734,6.2685547c0,0,17.9560547,1.8095703,30.5673828,1.0205078
			C48.9726563,7.2890625,37.3935547,0.9536133,18.4052734,6.2685547z"/>
		
			<path style="fill:none;stroke:#FFBC80;stroke-width:0.812055;stroke-linecap:round;stroke-linejoin:round;stroke-miterlimit:10;" d="
			M19.9921875,6.5117188c0,0,8.1826172,0.980957,14.0917969,0.9765625"/>
		
			<path style="fill:none;stroke:#FFBC80;stroke-width:0.812055;stroke-linecap:round;stroke-linejoin:round;stroke-miterlimit:10;" d="
			M38.2480469,7.4804688c0,0,1.2353516,0.0205078,2.8291016,0"/>
		<path style="fill:#FFFFFF;" d="M16.7685547,10.2109375c1.5175781-1.1435547,4.5283203-0.4262695,1.9765625,3.015625
			S11.7011719,14.03125,16.7685547,10.2109375z"/>
		<path style="fill:#FFFFFF;" d="M14.9853516,16.7578125c1.2050781,0.0419922-0.1513672,3.1103516-1.1513672,2.6762695
			S12.8046875,16.6821289,14.9853516,16.7578125z"/>
		<path style="opacity:0.35;fill:#FFFFFF;" d="M41.1572266,55.6376953C39.7675781,54.1728516,48.1171875,55.796875,51.25,53.40625
			c3.5839844-2.7353516,6.1298828-4.3105469,5.6289063-1.4667969
			C56.3076172,55.1826172,43.1748047,57.7666016,41.1572266,55.6376953z"/>
	</g>
	<path style="fill:none;stroke:#541715;stroke-width:2.43819;stroke-miterlimit:10;" d="M59.9150391,32.1264648
		c5.2558594,29.3842773-6.1865234,27.7456055-28.2299805,27.7680664c-18.5625,0.0205078-33.3339844-1.1259766-27.6210938-26.0078125
		C9.644043,9.5810547,13.1225586,4.3588867,31.6850586,4.3588867C51.8417969,4.3588867,55.4697266,7.2739258,59.9150391,32.1264648z
		"/>
	<g>
		<g>
			
				<line style="fill:none;stroke:#330100;stroke-width:2.7264616;stroke-miterlimit:10;" x1="16.3276367" y1="30.7133789" x2="25.644043" y2="40.0292969"/>
			
				<line style="fill:none;stroke:#330100;stroke-width:2.7264616;stroke-miterlimit:10;" x1="25.644043" y1="30.7133789" x2="16.3276367" y2="40.0292969"/>
		</g>
		<g>
			
				<line style="fill:none;stroke:#330100;stroke-width:2.7264616;stroke-miterlimit:10;" x1="38.3691406" y1="30.7133789" x2="47.6845703" y2="40.0292969"/>
			
				<line style="fill:none;stroke:#330100;stroke-width:2.7264616;stroke-miterlimit:10;" x1="47.6845703" y1="30.7133789" x2="38.3691406" y2="40.0292969"/>
		</g>
	</g>
	<path style="fill:#842C38;stroke:#330100;stroke-width:2;stroke-miterlimit:10;" d="M44.0478516,54.0664063
		c0,4.5341797-5.3916016,2.1953125-12.0424805,2.1953125c-6.6503906,0-12.0415039,2.3388672-12.0415039-2.1953125
		c0-4.5322266,5.3911133-8.2060547,12.0415039-8.2060547C38.65625,45.8603516,44.0478516,49.5341797,44.0478516,54.0664063z"/>
	<path style="fill:none;stroke:#330200;stroke-width:1.8176411;stroke-miterlimit:10;" d="M41.6621094,25.1577148
		c0,0,5.5742188-1.1791992,8.2939453,5.0942383"/>
	<path style="fill:none;stroke:#330100;stroke-width:1.8176411;stroke-miterlimit:10;" d="M22.4702148,25.1577148
		c0,0-5.574707-1.1791992-8.2939453,5.0942383"/>
</g>
</svg>
