<?xml version="1.0" encoding="utf-8"?>
<!-- Generator: Adobe Illustrator 16.0.0, SVG Export Plug-In . SVG Version: 6.00 Build 0)  -->
<!DOCTYPE svg PUBLIC "-//W3C//DTD SVG 1.1//EN" "http://www.w3.org/Graphics/SVG/1.1/DTD/svg11.dtd">
<svg version="1.1" id="Layer_40" xmlns="http://www.w3.org/2000/svg" xmlns:xlink="http://www.w3.org/1999/xlink" x="0px" y="0px"
	 width="64px" height="64px" viewBox="0 0 64 64" enable-background="new 0 0 64 64" xml:space="preserve">
<g>
	
		<path fill-rule="evenodd" clip-rule="evenodd" fill="#C6C7C8" stroke="#231815" stroke-width="2" stroke-linecap="round" stroke-linejoin="round" stroke-miterlimit="10" d="
		M58.104,55.24c0.002-0.029,0.003-0.059,0-0.088c-0.006-0.069-0.021-0.138-0.057-0.2c-0.371-0.643-0.75-1.275-1.137-1.9
		c-0.301-0.482-0.589-0.986-0.932-1.434c-1.168-1.514-2.35-3.02-3.538-4.521c-1.424-1.773-3.082-3.316-4.808-4.785
		c-2.15-1.844-4.345-3.635-6.475-5.504c-1.272-1.115-2.451-2.336-3.674-3.504c-0.095-0.086-0.23-0.178-0.385-0.148
		c-0.295,0.053-0.521,0.084-0.666-0.072l-0.002,0.002c-0.002-0.003-0.006-0.003-0.008-0.006l-0.259,0.261
		c-5.844-6.665-5.867-6.689-6.847-7.785c-0.953-1.056-4.598-5.863-5.273-7.59c-0.197-0.503-0.527-1.028-0.892-1.525
		c0.041-0.044,0.087-0.095,0.127-0.138c-0.116-0.121-0.222-0.229-0.32-0.329c0.193-0.209,0.367-0.399,0.512-0.559
		c-0.2-0.204-0.36-0.363-0.47-0.469c-0.008-0.008-0.012-0.012-0.02-0.02c-0.073-0.071-0.123-0.119-0.123-0.119
		c-0.042-0.045-0.114-0.12-0.168-0.178c0.306-0.338,0.5-0.555,0.5-0.555l-2.931-3.091l5.75-5.7c0,0-0.642,0.032-1.449,0.093
		c-0.034,0.002-0.062,0.004-0.096,0.006c-0.18,0.015-0.368,0.031-0.557,0.048c-0.038,0.003-0.076,0.007-0.115,0.01
		c-0.074,0.007-0.147,0.014-0.222,0.021c-0.06,0.006-0.12,0.012-0.179,0.018c-0.069,0.007-0.137,0.015-0.204,0.022
		c-0.052,0.005-0.103,0.011-0.154,0.018c-0.08,0.009-0.158,0.019-0.235,0.028c-0.032,0.004-0.062,0.008-0.093,0.013
		c-0.088,0.011-0.174,0.023-0.256,0.035c-0.021,0.003-0.04,0.006-0.061,0.01c-0.086,0.013-0.17,0.026-0.249,0.041
		c-0.018,0.003-0.033,0.006-0.05,0.01c-0.076,0.014-0.151,0.028-0.217,0.043c-0.082,0.018-0.156,0.037-0.22,0.056
		c-1.02,0.305-3.117,1.221-3.865,1.815c-0.279,0.224-0.889,0.776-1.542,1.379c-0.134-0.141-0.216-0.227-0.216-0.227
		c0,0-0.002,0.002-0.003,0.002c-0.018-0.019-0.036-0.039-0.036-0.039c-0.039,0.029-0.11,0.092-0.193,0.168
		c-0.022,0.02-0.045,0.041-0.069,0.063c-0.08,0.075-0.171,0.161-0.277,0.262c-0.02,0.019-0.035,0.033-0.055,0.053
		c-0.12,0.115-0.254,0.246-0.397,0.385c-0.065,0.063-0.132,0.13-0.201,0.197c-0.071,0.07-0.144,0.142-0.218,0.215
		c-0.813,0.801-1.788,1.779-2.458,2.452c-0.464,0.466-0.777,0.787-0.777,0.787l0.024,0.022l-0.001,0.001l0.334,0.311
		c-0.948,1.039-1.959,2.121-2.519,2.636c-0.078,0.072-0.172,0.144-0.263,0.216l-0.004-0.004c-0.775,0.612-1.962,1.188-2.841,1.569
		c-0.238,0.102-0.46,0.194-0.637,0.265c0,0,0.001,0.001,0.001,0.002c-0.313,0.126-0.515,0.2-0.515,0.2s2.56,3.831,4.286,5.499
		c0.148,0.143,0.307,0.288,0.469,0.433c0.042,0.038,0.084,0.075,0.127,0.112c0.159,0.14,0.322,0.279,0.489,0.417
		c0.028,0.023,0.056,0.045,0.084,0.068c0.153,0.126,0.309,0.25,0.464,0.372c0.038,0.03,0.075,0.06,0.113,0.089
		c0.182,0.142,0.363,0.28,0.542,0.414c0.004,0.003,0.008,0.006,0.013,0.009c0.779,0.584,1.494,1.075,1.92,1.362
		c0.001,0,0.002,0.002,0.003,0.002l0,0c0.25,0.168,0.404,0.268,0.404,0.268s0.552-1.44,1.086-2.786
		c0.052-0.131,0.104-0.261,0.155-0.389c0.015-0.038,0.03-0.075,0.045-0.113c0.139-0.346,0.271-0.67,0.387-0.946
		c0.012-0.029,0.023-0.057,0.035-0.084c0.056-0.133,0.109-0.256,0.154-0.359c0.45-1.016,1.137-2.034,1.897-2.817
		c0.136,0.149,0.388,0.423,0.736,0.804c0.101-0.097,0.237-0.232,0.398-0.396c1.872,2.083,4.587,5.073,5.589,6.018
		c1.402,1.319,8.298,7.383,9.925,8.813l-0.046,0.046c0.109,0.098,0.061,0.436,0.106,0.594c0.046,0.137,0.027,0.32,0.114,0.408
		c2.604,2.709,5.439,5.184,8.353,7.566c1.948,1.604,3.892,3.203,5.567,5.092c0.639,0.719,1.277,1.436,1.855,2.211
		c0.561,0.746,1.043,1.561,1.557,2.354c0.213,0.332,0.496,0.625,0.602,1.033c0.223,0.854,0.348,1.77,0.516,2.654
		c0.037,0.193,0.096,0.377,0.164,0.545c0.146,0.367,0.567,0.264,0.981,0.184c1.267-0.256,2.51-0.699,3.689-1.967
		c0.201-0.219,0.329-0.438,0.377-0.642C58.093,55.316,58.101,55.278,58.104,55.24z"/>
	<g>
		<g>
			<g>
				<g>
					<path fill-rule="evenodd" clip-rule="evenodd" fill="#40210F" d="M36.424,33.079c0.146,0.162,0.372,0.131,0.676,0.076
						c0.154-0.029,0.29,0.063,0.385,0.148c1.223,1.168,2.401,2.389,3.674,3.504c2.13,1.869,4.324,3.66,6.475,5.504
						c1.726,1.469,3.384,3.012,4.808,4.785c1.188,1.502,2.37,3.008,3.538,4.521c0.343,0.447,0.631,0.951,0.932,1.434
						c0.387,0.625,0.766,1.258,1.137,1.9c0.168,0.291,0.002,0.672-0.341,1.045c-1.18,1.268-2.423,1.711-3.689,1.967
						c-0.414,0.08-0.836,0.184-0.981-0.184c-0.068-0.168-0.127-0.352-0.164-0.545c-0.168-0.885-0.293-1.801-0.516-2.654
						c-0.105-0.408-0.389-0.701-0.602-1.033c-0.514-0.793-0.996-1.607-1.557-2.354c-0.578-0.775-1.217-1.492-1.855-2.211
						c-1.676-1.889-3.619-3.488-5.567-5.092c-2.913-2.383-5.748-4.857-8.353-7.566c-0.087-0.088-0.068-0.271-0.114-0.408
						c-0.046-0.158,0.003-0.496-0.106-0.594L36.424,33.079z"/>
				</g>
				<path fill-rule="evenodd" clip-rule="evenodd" fill="#6A3906" d="M57.958,55.655c0.152-0.256,0.205-0.5,0.089-0.703
					c-0.371-0.643-0.75-1.275-1.137-1.9c-0.301-0.482-0.589-0.986-0.932-1.434c-1.168-1.514-2.35-3.02-3.538-4.521
					c-1.424-1.773-3.082-3.316-4.808-4.785c-2.15-1.844-4.345-3.635-6.475-5.504c-1.272-1.115-2.451-2.336-3.674-3.504
					c-0.095-0.086-0.23-0.178-0.385-0.148c-0.295,0.053-0.521,0.084-0.666-0.072l-1.404,1.445c0.111,0.09,0.109,0.305,0.159,0.461
					c0.038,0.137,0.022,0.322,0.108,0.408c2.607,2.707,5.439,5.18,8.354,7.566c1.948,1.602,3.894,3.209,5.566,5.09
					c0.64,0.721,1.274,1.443,1.858,2.215c0.56,0.75,1.04,1.561,1.557,2.352c0.214,0.332,0.493,0.629,0.601,1.035
					c0.223,0.854,0.341,1.77,0.516,2.656c0.037,0.191,0.094,0.373,0.162,0.547c0.146,0.361,0.568,0.256,0.982,0.18
					C55.942,56.831,56.972,56.479,57.958,55.655z"/>
				<path fill-rule="evenodd" clip-rule="evenodd" fill="#926134" d="M58.047,54.952c-0.371-0.643-0.75-1.275-1.137-1.9
					c-0.301-0.482-0.589-0.986-0.932-1.434c-1.168-1.514-2.35-3.02-3.538-4.521c-1.424-1.773-3.082-3.316-4.808-4.785
					c-2.15-1.844-4.345-3.635-6.475-5.504c-1.272-1.115-2.451-2.336-3.674-3.504c-0.095-0.086-0.23-0.178-0.385-0.148
					c-0.304,0.055-0.529,0.086-0.676-0.076l-0.498,0.503c0.146,0.159,0.37,0.129,0.672,0.074c0.154-0.029,0.29,0.063,0.385,0.148
					c1.223,1.168,2.401,2.389,3.674,3.504c2.13,1.869,4.324,3.66,6.475,5.504c1.726,1.469,3.384,3.012,4.808,4.785
					c1.188,1.502,2.37,3.008,3.538,4.521c0.343,0.447,0.631,0.951,0.932,1.434c0.387,0.625,0.766,1.258,1.137,1.9
					c0.161,0.278,0.011,0.64-0.304,0.998c0.156-0.139,0.312-0.289,0.465-0.454C58.049,55.624,58.215,55.243,58.047,54.952z"/>
			</g>
		</g>
		<g>
			<g>
				<path fill-rule="evenodd" clip-rule="evenodd" fill="#804F21" d="M21.159,14.198c0,0,2.209,2.04,2.885,3.768
					c0.675,1.727,4.321,6.534,5.273,7.59c0.992,1.109,0.992,1.107,7.057,8.024l-1.777,2.006c0,0-8.683-7.623-10.275-9.121
					c-1.59-1.499-7.498-8.152-7.498-8.152l-5.48-5.043c0,0,4.172-4.225,4.646-4.582C15.99,8.687,20.274,13.244,21.159,14.198z"/>
				
					<radialGradient id="SVGID_1_" cx="22.1113" cy="25.3213" r="15.0611" gradientTransform="matrix(0.8787 0.0657 -0.245 0.9121 11.3965 -2.905)" gradientUnits="userSpaceOnUse">
					<stop  offset="0" style="stop-color:#FDC583"/>
					<stop  offset="1" style="stop-color:#C08329"/>
				</radialGradient>
				<path fill-rule="evenodd" clip-rule="evenodd" fill="url(#SVGID_1_)" d="M24.044,17.965c-0.676-1.728-2.885-3.768-2.885-3.768
					c-0.885-0.954-5.169-5.511-5.169-5.511c-0.347,0.263-2.637,2.557-3.869,3.795l5.452,5.019c0,0,5.907,6.652,7.497,8.15
					c1.575,1.485,10.064,8.932,10.258,9.106l1.047-1.178c-6.065-6.917-6.065-6.915-7.057-8.024
					C28.365,24.5,24.72,19.692,24.044,17.965z"/>
				<g>
					<defs>
						<path id="SVGID_2_" d="M21.159,14.198c0,0,2.209,2.04,2.885,3.768c0.675,1.727,4.321,6.534,5.273,7.59
							c0.992,1.109,0.992,1.107,7.057,8.024l-1.777,2.006c0,0-8.683-7.623-10.275-9.121c-1.59-1.499-7.498-8.152-7.498-8.152
							l-5.48-5.043c0,0,4.172-4.225,4.646-4.582C15.99,8.687,20.274,13.244,21.159,14.198z"/>
					</defs>
					<clipPath id="SVGID_3_">
						<use xlink:href="#SVGID_2_"  overflow="visible"/>
					</clipPath>
					<g clip-path="url(#SVGID_3_)">
						
							<radialGradient id="SVGID_4_" cx="16.4409" cy="5.1147" r="8.7647" gradientTransform="matrix(0.8787 0.0657 -0.245 0.9121 11.3965 -2.905)" gradientUnits="userSpaceOnUse">
							<stop  offset="0" style="stop-color:#FDC583"/>
							<stop  offset="1" style="stop-color:#936727"/>
						</radialGradient>
						<path fill-rule="evenodd" clip-rule="evenodd" fill="url(#SVGID_4_)" d="M43.888,43.62c-2.703-2.635-3.878-4.326-5.942-6.738
							c-1.939-2.273-4.77-5.267-7.939-7.134c-0.208-0.121-1.052-0.957-1.531-1.37c-2.718-2.355-4.25-2.965-5.749-4.895
							c-1.04-1.333-2.124-2.934-3.638-5.353c-1.787-3.721-2.565-4.449-2.892-4.531c-0.405-0.185-0.357,0.279-2.293-3.403
							c0.575,1.248,1.155,2.497,1.73,3.745c1.55,3.125,1.754,3.279,2.882,5.521c-0.563-1.486-1.738-6.003,1.583,2.054
							c0.147,0.325,1.062,0.871,1.802,1.859c1.547,2.095,2.944,3.143,5.491,5.379c0.356,0.307,0.96,0.904,1.126,0.986
							c3.552,1.771,6.902,4.808,8.861,6.957c2.031,2.232,2.666,3.576,2.561,4.098C41.252,41.735,42.569,42.677,43.888,43.62z"/>
						
							<radialGradient id="SVGID_5_" cx="16.4414" cy="5.1138" r="8.7655" gradientTransform="matrix(0.8787 0.0657 -0.245 0.9121 11.3965 -2.905)" gradientUnits="userSpaceOnUse">
							<stop  offset="0" style="stop-color:#FDC583"/>
							<stop  offset="1" style="stop-color:#B27C34"/>
						</radialGradient>
						<path fill-rule="evenodd" clip-rule="evenodd" fill="url(#SVGID_5_)" d="M28.348,25.944c0.229-0.12-0.612-1.211-1.889-2.887
							c-1.235-1.62-2.892-4.545-4.865-7.403c-1.951-2.838-3.449-4.438-4.122-4.758c-0.705-0.357-0.719,0.324-0.37,1.364
							c0.356,1.048,1.063,2.472,1.898,3.876c0.838,1.412,1.788,2.635,3.026,4.189c1.29,1.623,2.37,3.434,3.579,4.152
							C26.876,25.265,28.119,26.068,28.348,25.944 M26.921,24.472c-0.172,0.164-1.161-0.12-2.02-0.845
							c-0.85-0.703-1.815-2.333-2.915-3.735c-1.068-1.364-1.698-2.242-2.267-3.276c-0.577-1.051-1.079-2.171-1.776-3.565
							c-0.717-1.398-0.713-1.898-0.022-1.393c0.669,0.489,2.104,2.15,3.695,4.443c1.608,2.314,2.946,4.709,3.868,6.07
							C26.42,23.55,27.08,24.291,26.921,24.472 M30.466,28.727c-0.58-0.358-1.73-1.623-3.385-2.808
							c-1.712-1.229-3.107-2.063-4.416-3.791c-1.396-1.836-2.553-3.146-3.795-5.272c-1.262-2.147-2.53-4.492-3.044-5.822
							c-0.503-1.322-0.578-2.544,0.516-2.112c1.045,0.371,3.614,3.378,6.168,7.188c2.539,3.784,4.935,7.184,6.549,9.465
							C30.718,27.912,31.083,29.124,30.466,28.727 M28.875,26.715c-0.317,0.138-1.277-0.785-2.626-1.565
							c-1.344-0.757-2.382-1.93-3.597-3.549c-1.221-1.631-2.368-2.989-3.469-4.77c-1.107-1.787-2.198-3.786-2.674-5.099
							c-0.478-1.298-0.317-2.039,0.805-1.286c1.082,0.712,3.226,3.316,5.214,6.288c1.993,2.984,3.621,5.487,4.851,7.123
							C28.632,25.519,29.219,26.607,28.875,26.715 M25.932,23.809c-0.094,0.129-0.873-0.305-1.614-1.181
							c-0.752-0.9-1.338-1.79-2.328-3.041c-0.949-1.188-2.786-4.002-3.097-5.054c-0.35-1.093,1.444,0.108,2.837,2.053
							c1.318,1.852,2.057,3.354,2.875,4.795C25.418,22.813,26.012,23.661,25.932,23.809 M24.096,21.513
							c-0.105,0.274-0.974-0.632-1.857-1.807c-0.884-1.17-1.688-2.434-1.782-3.027c-0.101-0.612,0.744,0.008,1.818,1.527
							C23.347,19.715,24.206,21.243,24.096,21.513 M22.185,18.596c0.731,1.025,1.278,1.981,1.267,2.097
							c-0.011,0.116-0.547-0.594-1.232-1.533c-0.683-0.941-1.275-1.807-1.307-1.999C20.873,16.958,21.454,17.575,22.185,18.596"/>
						
							<radialGradient id="SVGID_6_" cx="16.4399" cy="5.1147" r="8.7647" gradientTransform="matrix(0.8787 0.0657 -0.245 0.9121 11.3965 -2.905)" gradientUnits="userSpaceOnUse">
							<stop  offset="0" style="stop-color:#FDC583"/>
							<stop  offset="1" style="stop-color:#94661D"/>
						</radialGradient>
						<path fill-rule="evenodd" clip-rule="evenodd" fill="url(#SVGID_6_)" d="M54.814,51.442c-1.04-1.273-2.115-2.586-3.221-3.959
							c-0.395-0.488-2.26-3.148-5.955-7.35c-2.541-2.883-7.053-7.556-10.492-11.005c-3.525-3.549-5.971-5.879-6.233-6.148
							c-2.875-2.987-3.326-4.38-6.856-8.808c-2.554-3.202-5.096-6.146-7.568-9.195c-0.845-1.044-0.549,1.518-1.135,0.753
							c-0.467,0.507-2.076-2.158-3.254-3.773c0.55,1.182,1.091,2.361,1.634,3.545c1.052,1.513,2.458,4.038,2.573,2.586
							c0.494,0.623,0.085-2.103,0.894-1.125c1.28,1.541,2.629,3.123,3.977,4.79c5.396,6.679,8.749,11.387,9.709,12.069
							c0.146,0.11,3.607,3.999,5.363,5.424c4.056,3.291,9.587,9.419,13.901,14.597c2.65,3.182,4.614,5.607,4.33,5.934
							C53.26,50.331,54.03,50.89,54.814,51.442z"/>
						
							<radialGradient id="SVGID_7_" cx="16.4429" cy="5.1206" r="8.7641" gradientTransform="matrix(0.8787 0.0657 -0.245 0.9121 11.3965 -2.905)" gradientUnits="userSpaceOnUse">
							<stop  offset="0" style="stop-color:#FDC583"/>
							<stop  offset="1" style="stop-color:#936727"/>
						</radialGradient>
						<path fill-rule="evenodd" clip-rule="evenodd" fill="url(#SVGID_7_)" d="M29.007,23.528c0.858,0.839,2.497,2.634,3.7,4.551
							c0.69,1.097,0.617,2.016,1.361,2.928c2.335,2.893,6.782,6.758,7.62,8.067c0.243,0.453,5.784,6.105,7.153,8.096
							c-0.713-0.514-1.424-1.016-2.139-1.529c-0.564-1.262-4.035-4.578-5.987-6.801c-2.162-2.479-4.616-5.092-7.401-7.57
							c-0.932-0.831-0.871-1.854-1.46-2.928C31.047,26.801,28.97,23.613,29.007,23.528"/>
					</g>
					<path clip-path="url(#SVGID_3_)" fill-rule="evenodd" clip-rule="evenodd" fill="none" d="M21.159,14.198
						c0,0,2.209,2.04,2.885,3.768c0.675,1.727,4.321,6.534,5.273,7.59c0.992,1.109,0.992,1.107,7.057,8.024l-1.777,2.006
						c0,0-8.683-7.623-10.275-9.121c-1.59-1.499-7.498-8.152-7.498-8.152l-5.48-5.043c0,0,4.172-4.225,4.646-4.582
						C15.99,8.687,20.274,13.244,21.159,14.198z"/>
				</g>
				<radialGradient id="SVGID_8_" cx="31.625" cy="24.25" r="20.6098" gradientUnits="userSpaceOnUse">
					<stop  offset="0" style="stop-color:#FFF799"/>
					<stop  offset="1" style="stop-color:#C08329"/>
				</radialGradient>
				<path fill-rule="evenodd" clip-rule="evenodd" fill="url(#SVGID_8_)" d="M29.318,25.555c-0.953-1.056-4.598-5.863-5.273-7.59
					c-0.676-1.728-2.885-3.768-2.885-3.768c-0.885-0.954-5.169-5.511-5.169-5.511c-0.265,0.2-1.682,1.604-2.883,2.807
					c1.097-1.095,2.247-2.229,2.482-2.407c0,0,4.284,4.557,5.169,5.511c0,0,2.209,2.04,2.885,3.768
					c0.675,1.727,4.321,6.534,5.273,7.59c0.992,1.109,0.992,1.107,7.059,8.022l-1.404,1.585c0.004,0.004,0.025,0.022,0.025,0.022
					l1.777-2.006C30.31,26.663,30.31,26.665,29.318,25.555z"/>
				
					<radialGradient id="SVGID_9_" cx="21.3887" cy="27.9902" r="14.284" gradientTransform="matrix(0.8787 0.0657 -0.245 0.9121 11.3965 -2.905)" gradientUnits="userSpaceOnUse">
					<stop  offset="0" style="stop-color:#836844"/>
					<stop  offset="0.9946" style="stop-color:#613611"/>
				</radialGradient>
				<path fill-rule="evenodd" clip-rule="evenodd" fill="url(#SVGID_9_)" d="M25.07,25.651c-1.59-1.498-7.497-8.15-7.497-8.15
					l-5.452-5.019c-0.464,0.466-0.777,0.787-0.777,0.787l5.48,5.043c0,0,5.907,6.653,7.498,8.152
					c1.592,1.498,10.275,9.121,10.275,9.121l0.73-0.828C35.135,34.583,26.646,27.136,25.07,25.651z"/>
			</g>
			
				<path fill-rule="evenodd" clip-rule="evenodd" fill="none" stroke="#3F2213" stroke-linecap="round" stroke-linejoin="round" stroke-miterlimit="10" d="
				M36.629,33.29l-2.193,2.375"/>
		</g>
		<g>
			<g>
				<g>
					<path fill-rule="evenodd" clip-rule="evenodd" fill="#6A3906" d="M15.834,8.889c0.08-0.075,0.157-0.137,0.195-0.166
						C15.991,8.752,15.915,8.814,15.834,8.889z"/>
					<path fill-rule="evenodd" clip-rule="evenodd" fill="#6A3906" d="M15.467,9.224c0.112-0.106,0.209-0.195,0.296-0.275
						C15.677,9.029,15.58,9.118,15.467,9.224z"/>
					<path fill-rule="evenodd" clip-rule="evenodd" fill="#6A3906" d="M12.239,12.412c0.762-0.764,1.86-1.861,2.688-2.667
						C14.099,10.551,13,11.648,12.239,12.412z"/>
					<path fill-rule="evenodd" clip-rule="evenodd" fill="#6A3906" d="M14.988,9.684c0.164-0.157,0.313-0.303,0.448-0.429
						C15.301,9.381,15.151,9.527,14.988,9.684z"/>
				</g>
				<path fill-rule="evenodd" clip-rule="evenodd" fill="#231815" d="M17.294,10.053c-1.065,1.028-2.422,2.44-2.422,2.44
					s-1.144,1.143-2.17,2.235l5.228,4.873c0,0,0.428,0.473,1.098,1.203c1.017-1.037,3.062-3.208,4.252-4.502
					c-0.513-0.535-0.886-0.884-0.886-0.884C21.648,14.626,18.928,11.767,17.294,10.053z"/>
				<path fill-rule="evenodd" clip-rule="evenodd" fill="#27201C" d="M14.64,12.077c0,0-1.523,1.518-2.63,2.733l5.473,5.103
					c0,0,0.33,0.36,0.852,0.93c0.832-0.797,3.938-4.108,5.136-5.428c-0.358-0.366-0.612-0.607-0.612-0.607
					c-0.786-0.831-3.741-3.936-5.332-5.606C16.407,10.229,14.64,12.077,14.64,12.077z"/>
				<path fill-rule="evenodd" clip-rule="evenodd" fill="#50452F" d="M17.527,9.201c-1.121,1.028-2.887,2.876-2.887,2.876
					s-1.248,1.245-2.308,2.381l5.36,4.997c0,0,0.33,0.36,0.851,0.933c0.768-0.74,3.467-3.608,4.82-5.082
					c-0.295-0.301-0.503-0.498-0.503-0.498C22.073,13.976,19.119,10.872,17.527,9.201z"/>
				<path fill-rule="evenodd" clip-rule="evenodd" fill="#27201C" d="M20.775,13.71c-1.943-2.045-4.746-4.987-4.746-4.987
					c-0.489,0.346-4.662,4.569-4.662,4.569l4.937,4.599L20.775,13.71z"/>
				<path fill-rule="evenodd" clip-rule="evenodd" fill="#AA1B1F" d="M26.01,5.284l-5.75,5.7l2.931,3.091
					c0,0-4.263,4.743-5.181,5.552c-0.923,0.809-1.778,2.031-2.309,3.229c-0.53,1.197-1.863,4.678-1.863,4.678
					s-2.9-1.873-4.629-3.547c-1.726-1.668-4.286-5.499-4.286-5.499s3.013-1.094,4.259-2.248c1.251-1.152,4.765-5.14,4.765-5.14
					s3.096-2.933,3.84-3.529c0.748-0.595,2.845-1.511,3.865-1.815C22.675,5.449,26.01,5.284,26.01,5.284z"/>
				
					<radialGradient id="SVGID_10_" cx="8.334" cy="18.9619" r="10.5183" gradientTransform="matrix(0.9853 0.171 -0.171 0.9853 9.6203 -4.6571)" gradientUnits="userSpaceOnUse">
					<stop  offset="0" style="stop-color:#F15623"/>
					<stop  offset="0.2241" style="stop-color:#EF3E23"/>
					<stop  offset="0.4722" style="stop-color:#EE2B24"/>
					<stop  offset="0.7277" style="stop-color:#ED2024"/>
					<stop  offset="1" style="stop-color:#ED1C24"/>
				</radialGradient>
				<path fill-rule="evenodd" clip-rule="evenodd" fill="url(#SVGID_10_)" d="M9.21,23.987c1.335,1.294,3.369,2.702,4.225,3.279
					c0.339-0.872,1.31-3.388,1.741-4.371c0.535-1.2,1.388-2.421,2.309-3.229c0.92-0.81,5.186-5.557,5.186-5.557l-2.932-3.087
					l5.747-5.698c0,0-0.428,0.019-1.021,0.06c-1.016,0.082-2.256,0.203-2.812,0.372c-1.02,0.305-3.117,1.221-3.865,1.815
					c-0.744,0.597-3.84,3.529-3.84,3.529s-3.513,3.987-4.765,5.14c-1.246,1.154-4.259,2.248-4.259,2.248S7.484,22.319,9.21,23.987z"
					/>
				<path fill-rule="evenodd" clip-rule="evenodd" fill="#AA1B1F" d="M22.398,5.548c0.156,0.77,0.35,1.633,0.53,2.394l2.682-2.658
					C25.609,5.284,23.765,5.376,22.398,5.548z"/>
				<path fill-rule="evenodd" clip-rule="evenodd" fill="#ECECED" d="M22.798,5.548c0.156,0.77,0.35,1.633,0.53,2.394l2.682-2.658
					C26.01,5.284,24.165,5.376,22.798,5.548z"/>
				<path fill-rule="evenodd" clip-rule="evenodd" fill="#AA1B1F" d="M9.553,23.532c1.508,1.462,3.914,3.077,4.494,3.459
					c0.396-1.025,1.253-3.228,1.655-4.135c0.043-0.099,0.101-0.197,0.147-0.291l-6.503-6.478c-0.056,0.05-0.112,0.107-0.164,0.152
					c-0.927,0.859-2.831,1.684-3.745,2.046C6.038,19.166,8.087,22.118,9.553,23.532z"/>
				<radialGradient id="SVGID_11_" cx="10.2588" cy="21.9927" r="5.4387" gradientUnits="userSpaceOnUse">
					<stop  offset="2.416600e-004" style="stop-color:#FFFFFF"/>
					<stop  offset="0.6057" style="stop-color:#F0F1F1"/>
					<stop  offset="1" style="stop-color:#E4E5E6"/>
				</radialGradient>
				<path fill-rule="evenodd" clip-rule="evenodd" fill="url(#SVGID_11_)" d="M8.916,16.452c-1.36,1.074-3.992,2.036-3.992,2.036
					s2.56,3.831,4.286,5.499c1.729,1.674,4.629,3.547,4.629,3.547s1.174-3.063,1.754-4.431L8.916,16.452z"/>
			</g>
		</g>
	</g>
</g>
</svg>
