<?xml version="1.0" encoding="UTF-8" standalone="no"?>
<!-- Generated by phantom_svg. -->

<svg
   xmlns:dc="http://purl.org/dc/elements/1.1/"
   xmlns:cc="http://creativecommons.org/ns#"
   xmlns:rdf="http://www.w3.org/1999/02/22-rdf-syntax-ns#"
   xmlns:svg="http://www.w3.org/2000/svg"
   xmlns="http://www.w3.org/2000/svg"
   xmlns:xlink="http://www.w3.org/1999/xlink"
   xmlns:sodipodi="http://sodipodi.sourceforge.net/DTD/sodipodi-0.dtd"
   xmlns:inkscape="http://www.inkscape.org/namespaces/inkscape"
   id="phantom_svg"
   width="64px"
   height="64px"
   version="1.1"
   inkscape:version="0.48.5 r10040"
   sodipodi:docname="bgok.svg">
  <metadata
     id="metadata380">
    <rdf:RDF>
      <cc:Work
         rdf:about="">
        <dc:format>image/svg+xml</dc:format>
        <dc:type
           rdf:resource="http://purl.org/dc/dcmitype/StillImage" />
      </cc:Work>
    </rdf:RDF>
  </metadata>
  <sodipodi:namedview
     pagecolor="#ffffff"
     bordercolor="#666666"
     borderopacity="1"
     objecttolerance="10"
     gridtolerance="10"
     guidetolerance="10"
     inkscape:pageopacity="0"
     inkscape:pageshadow="2"
     inkscape:window-width="640"
     inkscape:window-height="480"
     id="namedview378" />
  <defs
     id="defs3">
    <!-- Images. -->
    <svg
       id="frame0"
       viewBox="0 0 64 64"
       preserveAspectRatio="none"
       version="1.1">
      <g
         id="g6">
        <path
           fill="#C20D23"
           stroke="#330E03"
           stroke-width="1.5614"
           stroke-miterlimit="10"
           d="M9.798,22.849c0,0-1.681-6.549-0.467-6.822   c1.214-0.273,3.83,1.091,3.83,1.091s-0.653-2.865,1.215-1.364c1.868,1.501,2.242,4.775,2.242,4.775l0.28,3.002   C16.897,23.531,13.255,21.076,9.798,22.849z"
           id="path8" />
        <path
           fill="#F19500"
           stroke="#330E03"
           stroke-width="1.5614"
           stroke-miterlimit="10"
           d="M29.228,59.543l1.681-1.821l-6.258-6.171   l-1.868,0.607l4.39,5.464l-1.961,2.729c-2.71-0.809-7.567,2.023-7.567,2.023h8.967l1.518-1.645l2.499,0.33L29.228,59.543z"
           id="path10" />
        <path
           fill="#C20D23"
           stroke="#330E03"
           stroke-width="1.5614"
           stroke-miterlimit="10"
           d="M10.589,27.78l2.055,2.125   c0,0-0.206,8.092-1.85,9.407c0,0-3.082,6.372-4.315,3.136c-1.233-3.236,2.466-8.092,2.466-8.092S6.48,30.713,10.589,27.78z"
           id="path12" />
        <path
           fill="#FFFFFF"
           stroke="#330E03"
           stroke-width="1.5614"
           stroke-miterlimit="10"
           d="M28.672,52.446l0.211,1.71   c0,0-23.101,1.341-18.194-18.337c0,0-0.902-3.79,0.044-5.612l-4.46-2.36l-0.21-1.708c0,0,1.824-3.748,5.679-4.328   c7.398-1.114,9.882,3.317,13.563,13.453l1.962,0.606"
           id="path14" />
        <path
           display="none"
           fill="#FFFFFF"
           stroke="#330E03"
           stroke-width="1.5614"
           stroke-miterlimit="10"
           d="M27.266,35.872   c0,0,2.709-9.812,10.345-8.252l-0.21,1.139c0,0,5.364-6.378,10.412-5.695l-0.106,1.139l3.785,0.342c0,0-1.682,2.619-2.522,3.758   c0,0,3.995,1.252,3.26,5.922l-3.26-0.684l0.736,1.822l-2.314,0.113c0,0,1.998,6.15-0.21,9.908l-1.578-3.303   c0,0,1.264,3.418-0.947,6.721L43.5,44.133c0,0,0.946,4.215-2.419,7.974l-1.051-3.873c0,0,0.209,4.441-1.788,7.061l-5.257-2.163   l-0.106,1.479l-4.207-2.164"
           id="path16" />
        <line
           display="none"
           fill="none"
           stroke="#CDCCCB"
           stroke-width="1.5614"
           stroke-miterlimit="10"
           x1="31.844"
           y1="52.766"
           x2="31.844"
           y2="51.652"
           id="line18" />
        <path
           display="none"
           fill="none"
           stroke="#CDCCCB"
           stroke-width="1.5614"
           stroke-miterlimit="10"
           d="M37.634,53.776   c0,0,1.309-0.403,1.309-12.139"
           id="path20" />
        <line
           display="none"
           fill="none"
           stroke="#CDCCCB"
           stroke-width="1.5614"
           stroke-miterlimit="10"
           x1="41.744"
           y1="49.022"
           x2="42.678"
           y2="44.471"
           id="line22" />
        <line
           display="none"
           fill="none"
           stroke="#CDCCCB"
           stroke-width="1.5614"
           stroke-miterlimit="10"
           x1="44.827"
           y1="45.078"
           x2="44.359"
           y2="42.751"
           id="line24" />
        <line
           display="none"
           fill="none"
           stroke="#CDCCCB"
           stroke-width="1.5614"
           stroke-miterlimit="10"
           x1="46.882"
           y1="41.031"
           x2="46.135"
           y2="34.76"
           id="line26" />
        <line
           display="none"
           fill="none"
           stroke="#CDCCCB"
           stroke-width="1.5614"
           stroke-miterlimit="10"
           x1="47.909"
           y1="33.95"
           x2="47.629"
           y2="32.635"
           id="line28" />
        <path
           fill="#F6B42C"
           stroke="#330E03"
           stroke-width="1.5614"
           stroke-miterlimit="10"
           d="M9.892,29.341l-2.864-3.585   c0,0-3.634,2.494-2.422,5.766L9.892,29.341z"
           id="path30" />
        <ellipse
           fill="none"
           stroke="#330E03"
           stroke-width="0.7807"
           stroke-miterlimit="10"
           cx="15.903"
           cy="25.228"
           rx="1.014"
           ry="1.439"
           id="ellipse32" />
        <line
           fill="none"
           stroke="#F85A83"
           stroke-width="2.3421"
           stroke-miterlimit="10"
           x1="15.964"
           y1="29.196"
           x2="17.178"
           y2="28.387"
           id="line34" />
        <line
           fill="none"
           stroke="#F85A83"
           stroke-width="2.3421"
           stroke-miterlimit="10"
           x1="17.271"
           y1="29.5"
           x2="19.233"
           y2="28.69"
           id="line36" />
        <path
           fill="none"
           stroke="#CDCCCB"
           stroke-width="1.5614"
           stroke-miterlimit="10"
           d="M12.228,29.904c0,0-1.308,2.63-0.094,5.968   c0,0-2.241,5.968,0.654,10.724c2.896,4.753,10.742,6.271,15.225,5.967"
           id="path38" />
      </g>
      <g
         id="しっぽ">
        <path
           fill="#FFFFFF"
           stroke="#330E03"
           stroke-width="1.5614"
           stroke-miterlimit="10"
           d="M25.304,35.266l1.962,0.606   c0,0,2.709-9.812,10.345-8.252l-0.21,1.139c0,0,5.364-6.378,10.412-5.695l-0.106,1.139l3.785,0.342c0,0-1.682,2.619-2.522,3.758   c0,0,3.995,1.252,3.26,5.922l-3.26-0.684l0.736,1.822l-2.314,0.113c0,0,1.998,6.15-0.21,9.908l-1.578-3.303   c0,0,1.264,3.418-0.947,6.721L43.5,44.133c0,0,0.946,4.215-2.419,7.974l-1.051-3.873c0,0,0.209,4.441-1.788,7.061l-5.257-2.163   l-0.106,1.479l-4.207-2.164"
           id="path41" />
        <line
           fill="none"
           stroke="#CDCCCB"
           stroke-width="1.5614"
           stroke-miterlimit="10"
           x1="31.844"
           y1="52.766"
           x2="31.844"
           y2="51.652"
           id="line43" />
        <path
           fill="none"
           stroke="#CDCCCB"
           stroke-width="1.5614"
           stroke-miterlimit="10"
           d="M37.634,53.776c0,0,1.309-0.403,1.309-12.139"
           id="path45" />
        <line
           fill="none"
           stroke="#CDCCCB"
           stroke-width="1.5614"
           stroke-miterlimit="10"
           x1="41.744"
           y1="49.022"
           x2="42.678"
           y2="44.471"
           id="line47" />
        <line
           fill="none"
           stroke="#CDCCCB"
           stroke-width="1.5614"
           stroke-miterlimit="10"
           x1="44.827"
           y1="45.078"
           x2="44.359"
           y2="42.751"
           id="line49" />
        <line
           fill="none"
           stroke="#CDCCCB"
           stroke-width="1.5614"
           stroke-miterlimit="10"
           x1="46.882"
           y1="41.031"
           x2="46.135"
           y2="34.76"
           id="line51" />
        <line
           fill="none"
           stroke="#CDCCCB"
           stroke-width="1.5614"
           stroke-miterlimit="10"
           x1="47.909"
           y1="33.95"
           x2="47.629"
           y2="32.635"
           id="line53" />
      </g>
    </svg>
    <!-- Animation. -->
  </defs>
  <!-- Main control. -->
  <animate
     id="controller"
     begin="0s"
     dur="0.7999999999999999s"
     repeatCount="indefinite" />
  <use
     xlink:href="#frame0"
     id="use372">
    <set
       attributeName="xlink:href"
       to="#animation"
       begin="controller.begin"
       id="set374" />
    <set
       attributeName="xlink:href"
       to="#frame7"
       begin="controller.end"
       id="set376" />
  </use>
</svg>
