<?xml version="1.0" encoding="utf-8"?>
<!-- Generator: Adobe Illustrator 17.0.0, SVG Export Plug-In . SVG Version: 6.00 Build 0)  -->
<!DOCTYPE svg PUBLIC "-//W3C//DTD SVG 1.1//EN" "http://www.w3.org/Graphics/SVG/1.1/DTD/svg11.dtd">
<svg version="1.1" id="レイヤー_1" xmlns="http://www.w3.org/2000/svg" xmlns:xlink="http://www.w3.org/1999/xlink" x="0px"
	 y="0px" width="64px" height="64px" viewBox="0 0 64 64" style="enable-background:new 0 0 64 64;" xml:space="preserve">
<g>
	<linearGradient id="SVGID_1_" gradientUnits="userSpaceOnUse" x1="32" y1="4.5" x2="32" y2="59.5">
		<stop  offset="0" style="stop-color:#6BCF40;stop-opacity:0.8"/>
		<stop  offset="0.4" style="stop-color:#159B3A"/>
		<stop  offset="0.6" style="stop-color:#159B3A"/>
		<stop  offset="1" style="stop-color:#51B526;stop-opacity:0.8"/>
	</linearGradient>
	<path style="fill:url(#SVGID_1_);" d="M62,34.5c0,13.8071175-11.25,25-30,25S2,48.3071175,2,34.5s12.5-30,30-30
		S62,20.6928806,62,34.5z"/>
	<linearGradient id="SVGID_2_" gradientUnits="userSpaceOnUse" x1="32" y1="4" x2="32" y2="60">
		<stop  offset="0" style="stop-color:#D4FFD5"/>
		<stop  offset="1" style="stop-color:#00FF2C"/>
	</linearGradient>
	<path style="fill:url(#SVGID_2_);" d="M32,60C14.0419922,60,1.5,49.5136719,1.5,34.5C1.5,20.1025391,14.543457,4,32,4
		c17.4560547,0,30.5,16.1025391,30.5,30.5C62.5,49.5136719,49.9580078,60,32,60z M32,5.4576273c-16.5981026,0-29,15.310729-29,29
		c0,14.1803169,11.925252,24.0847473,29,24.0847473s29-9.9044304,29-24.0847473C61,20.7683563,48.5976219,5.4576273,32,5.4576273z"
		/>
	<linearGradient id="SVGID_3_" gradientUnits="userSpaceOnUse" x1="31.9997559" y1="3.154134" x2="31.9997559" y2="60.8453789">
		<stop  offset="0" style="stop-color:#009245"/>
		<stop  offset="0.4" style="stop-color:#00BC40"/>
		<stop  offset="0.6" style="stop-color:#00BC40"/>
		<stop  offset="1" style="stop-color:#009245"/>
	</linearGradient>
	<path style="fill:url(#SVGID_3_);" d="M32,60.8453789c-18.4739742,0-31.3766403-10.8212776-31.3766403-26.3146057
		C0.6233594,19.7195587,14.041626,3.154134,32,3.154134c17.9578857,0,31.376152,16.565424,31.376152,31.3766384
		C63.376152,50.0241013,50.4739723,60.8453789,32,60.8453789z M32,4.1512537
		c-17.38727,0-30.3795204,16.0391121-30.3795204,30.3795204C1.6204789,49.4369278,14.1131964,59.848259,32,59.848259
		s30.3790321-10.4113312,30.3790321-25.3174858C62.3790321,20.1903667,49.3872681,4.1512537,32,4.1512537z"/>
	<linearGradient id="SVGID_4_" gradientUnits="userSpaceOnUse" x1="32" y1="7.8333335" x2="32" y2="42.8333321">
		<stop  offset="0" style="stop-color:#F5FFD2;stop-opacity:0.6"/>
		<stop  offset="1" style="stop-color:#F5FFD2;stop-opacity:0"/>
	</linearGradient>
	<path style="fill:url(#SVGID_4_);" d="M54.522728,28.4721546c0,6.7936115-8.446022,14.3611774-22.522728,14.3611774
		S9.477273,35.2657661,9.477273,28.4721546c0-9.4987564,9.384469-20.6388206,22.522728-20.6388206
		S54.522728,18.9733982,54.522728,28.4721546z"/>
	<linearGradient id="SVGID_5_" gradientUnits="userSpaceOnUse" x1="22.625" y1="8.25" x2="22.625" y2="22">
		<stop  offset="0.3" style="stop-color:#FFFFFF;stop-opacity:0.6"/>
		<stop  offset="1" style="stop-color:#FFFFFF;stop-opacity:0.2"/>
	</linearGradient>
	<circle style="fill:url(#SVGID_5_);" cx="22.625" cy="15.125" r="6.875"/>
	<linearGradient id="SVGID_6_" gradientUnits="userSpaceOnUse" x1="46.375" y1="47.75" x2="46.375" y2="54">
		<stop  offset="0.3" style="stop-color:#FFFFFF;stop-opacity:0.4"/>
		<stop  offset="1" style="stop-color:#FFFFFF;stop-opacity:0"/>
	</linearGradient>
	<circle style="fill:url(#SVGID_6_);" cx="46.375" cy="50.875" r="3.125"/>
	<linearGradient id="SVGID_7_" gradientUnits="userSpaceOnUse" x1="46.375" y1="49.125" x2="46.375" y2="52.625">
		<stop  offset="0.3" style="stop-color:#FFFFFF;stop-opacity:0.4"/>
		<stop  offset="1" style="stop-color:#FFFFFF;stop-opacity:0"/>
	</linearGradient>
	<circle style="fill:url(#SVGID_7_);" cx="46.375" cy="50.875" r="1.75"/>
	<linearGradient id="SVGID_8_" gradientUnits="userSpaceOnUse" x1="22.625" y1="9.75" x2="22.625" y2="20.5">
		<stop  offset="0.3" style="stop-color:#FFFFFF"/>
		<stop  offset="1" style="stop-color:#FFFFFF;stop-opacity:0.2"/>
	</linearGradient>
	<circle style="fill:url(#SVGID_8_);" cx="22.625" cy="15.125" r="5.375"/>
</g>
<g>
	<path style="fill:#350000;" d="M49.9365234,23.5966797l-2.9863281-0.2851563
		c0.1894531-1.9819336-1.0869141-3.7314453-2.84375-3.8994141c-1.75-0.171875-3.3408203,1.3105469-3.53125,3.2949219
		l-2.9863281-0.2871094c0.3496094-3.6298828,3.4101563-6.3276367,6.8027344-5.9941406
		C47.7958984,16.7509766,50.2832031,19.9682617,49.9365234,23.5966797z"/>
	<path style="fill:#350000;" d="M13.7265625,23.6826172c-0.4003906-3.6230469,2.0112305-6.8745117,5.3759766-7.2480469
		c3.3666992-0.3774414,6.4301758,2.2734375,6.831543,5.8969727l-2.9814453,0.3300781
		c-0.2197266-1.9799805-1.7988281-3.4311523-3.5195313-3.2456055c-1.7211914,0.1914063-2.9433594,1.9575195-2.7250977,3.9375
		L13.7265625,23.6826172z"/>
	<path style="fill:#350000;" d="M32.1494141,49.8964844c-9.2084961,0-16.0888672-7.484375-16.0888672-14.1757813h3
		c0,5.1679688,5.7172852,11.1757813,13.0888672,11.1757813c7.3720703,0,13.0898438-6.0078125,13.0898438-11.1757813h3
		C48.2392578,42.4121094,41.3583984,49.8964844,32.1494141,49.8964844z"/>
	<g>
		<radialGradient id="SVGID_9_" cx="11.4586964" cy="32.9413681" r="8.5896053" gradientUnits="userSpaceOnUse">
			<stop  offset="0" style="stop-color:#FF1F37"/>
			<stop  offset="0.3549298" style="stop-color:#FF1B33;stop-opacity:0.6450702"/>
			<stop  offset="0.7274398" style="stop-color:#FF0E28;stop-opacity:0.2725602"/>
			<stop  offset="1" style="stop-color:#FF001B;stop-opacity:0"/>
		</radialGradient>
		<circle style="fill:url(#SVGID_9_);" cx="11.5000095" cy="33" r="9.0839901"/>
		<radialGradient id="SVGID_10_" cx="52.4586868" cy="32.9413681" r="8.5896101" gradientUnits="userSpaceOnUse">
			<stop  offset="0" style="stop-color:#FF1F37"/>
			<stop  offset="0.3549298" style="stop-color:#FF1B33;stop-opacity:0.6450702"/>
			<stop  offset="0.7274398" style="stop-color:#FF0E28;stop-opacity:0.2725602"/>
			<stop  offset="1" style="stop-color:#FF001B;stop-opacity:0"/>
		</radialGradient>
		<circle style="fill:url(#SVGID_10_);" cx="52.5" cy="33" r="9.0839996"/>
	</g>
</g>
<g>
</g>
<g>
</g>
<g>
</g>
<g>
</g>
<g>
</g>
<g>
</g>
</svg>
