<?xml version="1.0" encoding="utf-8"?>
<!-- Generator: Adobe Illustrator 15.0.2, SVG Export Plug-In . SVG Version: 6.00 Build 0)  -->
<!DOCTYPE svg PUBLIC "-//W3C//DTD SVG 1.1//EN" "http://www.w3.org/Graphics/SVG/1.1/DTD/svg11.dtd">
<svg version="1.1" id="レイヤー_1" xmlns="http://www.w3.org/2000/svg" xmlns:xlink="http://www.w3.org/1999/xlink" x="0px"
	 y="0px" width="64px" height="64px" viewBox="0 0 64 64" style="enable-background:new 0 0 64 64;" xml:space="preserve">
<g>
	<g>
		<g>
			<linearGradient id="SVGID_1_" gradientUnits="userSpaceOnUse" x1="14.0844727" y1="27.4038086" x2="25.3234844" y2="79.4981079">
				<stop  offset="0" style="stop-color:#FFD9A5"/>
				<stop  offset="0.3129271" style="stop-color:#FFD099"/>
				<stop  offset="0.874235" style="stop-color:#FFBA7A"/>
				<stop  offset="1" style="stop-color:#FFB472"/>
			</linearGradient>
			<path style="fill:url(#SVGID_1_);" d="M19.1977539,37.5302734c0,0-2.1269531-2.3535156-4.4057617-1.7460938
				s-0.1269531,10.6464844,2.2026367,10.7851563c2.3286133,0.1386719,3.1147461-1.2148438,3.1147461-1.2148438
				L19.1977539,37.5302734z"/>
			<path style="fill:#660A0A;" d="M17.3242188,47.1953125L17.3242188,47.1953125
				c-0.1181641,0-0.2402344-0.0039063-0.3662109-0.0117188c-2.0053711-0.1191406-3.3828125-4.5683594-3.6826172-7.5380859
				c-0.1831055-1.8193359-0.0966797-4.0683594,1.3579102-4.4560547c0.3012695-0.0800781,0.6142578-0.1210938,0.9311523-0.1210938
				c2.2128906,0,4.0146484,1.9658203,4.090332,2.0488281l0.1318359,0.1464844l0.9580078,8.2226563l-0.1030273,0.1777344
				C20.6054688,45.7265625,19.7246094,47.1953125,17.3242188,47.1953125z M15.5644531,36.2998047
				c-0.2094727,0-0.4160156,0.0263672-0.6137695,0.0791016c-0.3100586,0.0830078-0.6547852,1.1123047-0.449707,3.1425781
				c0.3515625,3.4892578,1.7827148,6.3886719,2.5302734,6.4335938c1.4584961,0.0849609,2.1875-0.5009766,2.4379883-0.7744141
				l-0.8588867-7.3701172C18.2089844,37.4189453,16.9418945,36.2998047,15.5644531,36.2998047z"/>
		</g>
		<g>
			<linearGradient id="SVGID_2_" gradientUnits="userSpaceOnUse" x1="43.8583984" y1="20.9765625" x2="55.1001778" y2="73.0836868">
				<stop  offset="0" style="stop-color:#FFD9A5"/>
				<stop  offset="0.3129271" style="stop-color:#FFD099"/>
				<stop  offset="0.874235" style="stop-color:#FFBA7A"/>
				<stop  offset="1" style="stop-color:#FFB472"/>
			</linearGradient>
			<path style="fill:url(#SVGID_2_);" d="M46.046875,37.5302734c0,0,2.1269531-2.3535156,4.40625-1.7460938
				c2.2783203,0.6074219,0.1269531,10.6464844-2.203125,10.7851563c-2.3291016,0.1386719-3.1142578-1.2148438-3.1142578-1.2148438
				L46.046875,37.5302734z"/>
			<path style="fill:#660A0A;" d="M47.9199219,47.1953125c-2.4013672,0-3.2802734-1.4697266-3.3164063-1.5322266
				l-0.1025391-0.1767578l0.9570313-8.2226563l0.1318359-0.1464844c0.0761719-0.0830078,1.8779297-2.0488281,4.0908203-2.0488281
				c0.3164063,0,0.6298828,0.0410156,0.9306641,0.1210938c1.4550781,0.3876953,1.5410156,2.6367188,1.3583984,4.4560547
				c-0.2998047,2.9697266-1.6777344,7.4189453-3.6835938,7.5380859
				C48.1601563,47.1914063,48.0380859,47.1953125,47.9199219,47.1953125z M45.7753906,45.1806641
				c0.2509766,0.2753906,0.96875,0.8603516,2.4384766,0.7744141c0.7470703-0.0449219,2.1787109-2.9443359,2.5302734-6.4335938
				c0.2050781-2.0302734-0.1396484-3.0595703-0.4492188-3.1425781c-0.1982422-0.0527344-0.4042969-0.0791016-0.6142578-0.0791016
				c-1.3779297,0-2.6455078,1.1191406-3.046875,1.5107422L45.7753906,45.1806641z"/>
		</g>
	</g>
	<linearGradient id="XMLID_3_" gradientUnits="userSpaceOnUse" x1="22.1875" y1="-14.828125" x2="65.0006409" y2="183.6163788">
		<stop  offset="0" style="stop-color:#FFD9A5"/>
		<stop  offset="0.3129271" style="stop-color:#FFD099"/>
		<stop  offset="0.874235" style="stop-color:#FFBA7A"/>
		<stop  offset="1" style="stop-color:#FFB472"/>
	</linearGradient>
	<path id="XMLID_2_" style="fill:url(#XMLID_3_);" d="M32.6220703,16.0336914
		c-15.2392578,0-14.9838867,10.7866211-14.9838867,10.7866211s0.956543,17.1669922,1.753418,22.3330078
		c2.3911133,3.6445313,8.9267578,8.9628906,8.9267578,8.9628906l4.3037109,0.9101563l4.3037109-0.9101563
		c0,0,6.5351563-5.3183594,8.9277344-8.9628906c0.7978516-5.1660156,1.7529297-22.3330078,1.7529297-22.3330078
		S47.8623047,16.0336914,32.6220703,16.0336914z"/>
	<path style="fill:#630606;" d="M27.0834961,47.5205078c-0.2963867,0-0.5629883-0.2060547-0.628418-0.5068359
		c-0.0761719-0.3476563,0.144043-0.6904297,0.4912109-0.7666016l2.9648438-0.6484375
		c0.0454102-0.0097656,0.0913086-0.0146484,0.1376953-0.0146484h4.8847656c0.0429688,0,0.0849609,0.0039063,0.1269531,0.0117188
		l3.2294922,0.6484375c0.3486328,0.0703125,0.5742188,0.4101563,0.5048828,0.7587891s-0.4072266,0.5703125-0.7587891,0.5048828
		l-3.1669922-0.6367188h-4.7504883l-2.8969727,0.6337891C27.175293,47.515625,27.1289063,47.5205078,27.0834961,47.5205078z"/>
	<g>
		<linearGradient id="SVGID_3_" gradientUnits="userSpaceOnUse" x1="11.262207" y1="58.6875" x2="21.1354237" y2="37.8777771">
			<stop  offset="0" style="stop-color:#FFD9A5"/>
			<stop  offset="0.2049566" style="stop-color:#FCCF99"/>
			<stop  offset="0.5737809" style="stop-color:#F5B37A"/>
			<stop  offset="1" style="stop-color:#EB8C4E"/>
		</linearGradient>
		<path style="fill:url(#SVGID_3_);" d="M18.4375,39.1533203c0,0,3.3427734,3.9414063,0.6362305,7.4257813
			C19.0737305,46.5791016,15.4951172,43.3818359,18.4375,39.1533203z"/>
		<linearGradient id="SVGID_4_" gradientUnits="userSpaceOnUse" x1="39.4707031" y1="58.1953125" x2="48.7076263" y2="38.7266998">
			<stop  offset="0" style="stop-color:#FFD9A5"/>
			<stop  offset="0.2049566" style="stop-color:#FCCF99"/>
			<stop  offset="0.5737809" style="stop-color:#F5B37A"/>
			<stop  offset="1" style="stop-color:#EB8C4E"/>
		</linearGradient>
		<path style="fill:url(#SVGID_4_);" d="M46.7304688,40.1884766c0,0,3.4199219,1.0839844-0.5585938,6.390625
			C46.171875,46.5791016,43.8242188,43.8349609,46.7304688,40.1884766z"/>
		<linearGradient id="SVGID_5_" gradientUnits="userSpaceOnUse" x1="20.4946289" y1="50.0410156" x2="28.8937721" y2="32.3381882">
			<stop  offset="0" style="stop-color:#FFD9A5"/>
			<stop  offset="0.2049566" style="stop-color:#FCCF99"/>
			<stop  offset="0.5737809" style="stop-color:#F5B37A"/>
			<stop  offset="1" style="stop-color:#EB8C4E"/>
		</linearGradient>
		<polygon style="fill:url(#SVGID_5_);" points="22.4804688,37.5302734 29.4316406,39.5283203 29.762207,34.9248047 		"/>
		<linearGradient id="SVGID_6_" gradientUnits="userSpaceOnUse" x1="31.2416992" y1="47.0664063" x2="37.6315956" y2="33.5984612">
			<stop  offset="0" style="stop-color:#FFD9A5"/>
			<stop  offset="0.2049566" style="stop-color:#FCCF99"/>
			<stop  offset="0.5737809" style="stop-color:#F5B37A"/>
			<stop  offset="1" style="stop-color:#EB8C4E"/>
		</linearGradient>
		<path style="fill:url(#SVGID_6_);" d="M33.8945313,33.4794922l1.0390625,5.0878906c0,0,1.1865234,0.8925781,4.1630859-0.0625
			L33.8945313,33.4794922z"/>
		<linearGradient id="SVGID_7_" gradientUnits="userSpaceOnUse" x1="26.8134766" y1="52.0273438" x2="33.7108345" y2="37.4898224">
			<stop  offset="0" style="stop-color:#FFD9A5"/>
			<stop  offset="0.2049566" style="stop-color:#FCCF99"/>
			<stop  offset="0.5737809" style="stop-color:#F5B37A"/>
			<stop  offset="1" style="stop-color:#EB8C4E"/>
		</linearGradient>
		<path style="fill:url(#SVGID_7_);" d="M32.1972656,43.3837891c0,0-3.5922852-3.1484375-1.8876953-3.8554688
			c1.7050781-0.7070313,4.484375-0.8574219,4.0068359,1.2675781C33.8378906,42.9228516,33.5205078,44.7294922,32.1972656,43.3837891
			z"/>
		<linearGradient id="SVGID_8_" gradientUnits="userSpaceOnUse" x1="26.0947266" y1="61.9335938" x2="33.5313797" y2="46.2594032">
			<stop  offset="0" style="stop-color:#FFD9A5"/>
			<stop  offset="0.2049566" style="stop-color:#FCCF99"/>
			<stop  offset="0.5737809" style="stop-color:#F5B37A"/>
			<stop  offset="1" style="stop-color:#EB8C4E"/>
		</linearGradient>
		<path style="fill:url(#SVGID_8_);" d="M29.762207,51.4306641c-1.3935547-1.2148438-2.390625-3.3417969,1.6782227-3.4941406
			c4.0683594-0.1503906,4.4863281,2.734375,2.4541016,4.2539063S29.762207,51.4306641,29.762207,51.4306641z"/>
		<linearGradient id="SVGID_9_" gradientUnits="userSpaceOnUse" x1="20.1123047" y1="78.6484375" x2="35.4035645" y2="46.4191399">
			<stop  offset="0" style="stop-color:#FFD9A5"/>
			<stop  offset="0.2049566" style="stop-color:#FCCF99"/>
			<stop  offset="0.5737809" style="stop-color:#F5B37A"/>
			<stop  offset="1" style="stop-color:#EB8C4E"/>
		</linearGradient>
		<path style="fill:url(#SVGID_9_);" d="M22.4804688,52.8037109c0,0,5.4326172,5.0078125,10.1416016,4.2480469
			c4.7099609-0.7597656,9.4189453-3.5253906,9.4189453-3.5253906s-9.1953125,9.0195313-14.8950195,3.6035156
			C21.4467773,51.7158203,22.4804688,52.8037109,22.4804688,52.8037109z"/>
		<linearGradient id="SVGID_10_" gradientUnits="userSpaceOnUse" x1="23.1308594" y1="37.3828125" x2="34.7354393" y2="12.9239092">
			<stop  offset="0" style="stop-color:#FFD9A5"/>
			<stop  offset="0.2049566" style="stop-color:#FCCF99"/>
			<stop  offset="0.5737809" style="stop-color:#F5B37A"/>
			<stop  offset="1" style="stop-color:#EB8C4E"/>
		</linearGradient>
		<path style="fill:url(#SVGID_10_);" d="M21.8798828,18.1484375c0,0,4.8842773,2.8989258,9.5605469,2.4428711
			c4.6757813-0.4555664,10.6005859-1.1972656,10.6005859-1.1972656S27.3930664,15.5532227,21.8798828,18.1484375z"/>
	</g>
	<path style="fill:#660A0A;" d="M32.6220703,59.6552734L28.0454102,58.6875l-0.1157227-0.09375
		c-0.2700195-0.2197266-6.637207-5.4208984-9.0527344-9.1025391l-0.0732422-0.1123047l-0.0205078-0.1318359
		c-0.0869141-0.5634766-0.1796875-1.296875-0.2763672-2.1855469c-0.4755859,0.1142578-0.9760742,0.1572266-1.5498047,0.1220703
		c-2.0043945-0.1191406-3.3818359-4.5683594-3.6816406-7.5380859c-0.1831055-1.8193359-0.0966797-4.0683594,1.3579102-4.4560547
		c0.9150391-0.2441406,1.9194336-0.1132813,2.9331055,0.3808594c-0.3164063-4.6679688-0.5405273-8.6723633-0.5429688-8.7158203
		c-0.0043945-0.1816406-0.0585938-4.0209961,3.0820313-7.2368164c2.7211914-2.7866211,6.9326172-4.199707,12.5166016-4.199707
		c5.5849609,0,9.7958984,1.4130859,12.5175781,4.199707c3.140625,3.2158203,3.0859375,7.0551758,3.0820313,7.2172852
		c-0.0029297,0.0615234-0.2265625,4.0673828-0.5429688,8.734375c0.8398438-0.4091797,1.9365234-0.6464844,2.9326172-0.3798828
		c1.4550781,0.3876953,1.5410156,2.6367188,1.3583984,4.4560547c-0.2998047,2.9697266-1.6777344,7.4189453-3.6835938,7.5380859
		c-0.5615234,0.0341797-1.0703125-0.0078125-1.5478516-0.1220703c-0.0957031,0.8886719-0.1884766,1.6220703-0.2763672,2.1865234
		l-0.0205078,0.1318359l-0.0732422,0.1113281c-2.4169922,3.6816406-8.7841797,8.8828125-9.0537109,9.1025391l-0.1152344,0.09375
		L32.6220703,59.6552734z M28.5932617,57.5449219l4.0288086,0.8525391l4.0292969-0.8525391
		c0.8662109-0.7158203,6.4189453-5.3613281,8.6142578-8.6191406c0.1025391-0.6875,0.2128906-1.6152344,0.3291016-2.7597656
		l0.0869141-0.8642578l0.7871094,0.3681641c0.4892578,0.2294922,1.0546875,0.3242188,1.7441406,0.2851563
		c0.7480469-0.0449219,2.1796875-2.9443359,2.53125-6.4335938c0.2050781-2.0302734-0.1396484-3.0595703-0.4492188-3.1425781
		c-1.0595703-0.2822266-2.2539063,0.3173828-2.9462891,0.8291016l-1.0722656,0.7890625l0.0927734-1.328125
		c0.3574219-5.1445313,0.6201172-9.8359375,0.6230469-9.8828125c-0.0009766-0.0136719,0.0322266-3.4897461-2.75-6.3251953
		c-2.4824219-2.5292969-6.3916016-3.8115234-11.6201172-3.8115234c-5.2275391,0-9.1367188,1.2822266-11.6191406,3.8115234
		c-2.7822266,2.8354492-2.75,6.3115234-2.7490234,6.3461914c0.0014648,0.0258789,0.2641602,4.7172852,0.6220703,9.8618164
		l0.0922852,1.3251953l-1.0708008-0.7861328c-0.6953125-0.5107422-1.8950195-1.1103516-2.9467773-0.8291016
		c-0.3100586,0.0830078-0.6547852,1.1123047-0.449707,3.1425781c0.3515625,3.4892578,1.7827148,6.3886719,2.5302734,6.4335938
		c0.6894531,0.0361328,1.2573242-0.0556641,1.7451172-0.2851563l0.7866211-0.3691406l0.0878906,0.8642578
		c0.1162109,1.1464844,0.2270508,2.0742188,0.3291016,2.7607422C22.1748047,52.1855469,27.7265625,56.8291016,28.5932617,57.5449219
		z"/>
	<g>
		<linearGradient id="SVGID_11_" gradientUnits="userSpaceOnUse" x1="28.6728516" y1="2.8056641" x2="40.370472" y2="42.3040237">
			<stop  offset="0" style="stop-color:#7F2000"/>
			<stop  offset="0.1896042" style="stop-color:#731C00"/>
			<stop  offset="0.5308047" style="stop-color:#541200"/>
			<stop  offset="0.9817354" style="stop-color:#210100"/>
			<stop  offset="1" style="stop-color:#1F0000"/>
		</linearGradient>
		<path style="fill:url(#SVGID_11_);" d="M42.4072266,18.3964844c0,0-10.6748047,1.9067383-19.5727539,0
			c-8.8984375-1.9067383-2.7250977-9.8066406-2.7250977-9.8066406s2.4863281-2.5825195,4.6132813-1.519043
			c0,0-1.5195313-3.0385742,2.1269531-1.8232422c3.6455078,1.215332,2.734375,2.2788086,2.734375,2.2788086
			s4.8613281-6.8364258,12.1533203,3.9501953c0,0,6.8535156,6.0766602,6.5410156,11.2416992l-1.3613281,10.2651367
			l-0.7734375-5.7075195l-1.0078125-2.1269531C45.1357422,25.1489258,45.3847656,19.7885742,42.4072266,18.3964844z"/>
		<path style="fill:#3A0909;" d="M46.9238281,37.6171875L45.5458984,27.453125l-1.0322266-2.1787109l0.0068359-0.1538086
			c0.0019531-0.0483398,0.1845703-4.7553711-2.2109375-6.0834961c-0.9814453,0.1606445-5.3359375,0.8222656-10.4462891,0.8227539
			c-3.409668,0-6.4912109-0.2900391-9.1577148-0.8613281c-2.6982422-0.578125-4.3886719-1.7583008-5.0234375-3.5073242
			c-1.1748047-3.2368164,1.8144531-7.1166992,1.9418945-7.2802734c0.1230469-0.1323242,2.1196289-2.1220703,4.190918-2.0068359
			c-0.0517578-0.3930664-0.0239258-0.8227539,0.199707-1.1850586c0.1904297-0.3076172,0.5893555-0.6743164,1.4111328-0.6743164
			c0.4462891,0,0.9755859,0.1044922,1.6186523,0.3188477c1.4550781,0.4848633,2.4086914,1.0131836,2.8891602,1.6035156
			c0.7749023-0.675293,2.0673828-1.4926758,3.7832031-1.4926758c2.7949219,0,5.6503906,2.1176758,8.4873047,6.2939453
			c0.7265625,0.65625,7.0039063,6.4863281,6.6884766,11.6870117L46.9238281,37.6171875z M45.7558594,25.019043l0.9980469,2.1743164
			l0.15625,1.15625l0.7578125-5.7124023c0.2871094-4.7666016-6.2724609-10.6411133-6.3388672-10.699707l-0.1015625-0.1162109
			c-2.5722656-3.8046875-5.1689453-5.8154297-7.5107422-5.8154297c-2.1640625,0-3.4819336,1.6777344-3.625,1.8691406
			l-1.0092773-0.7055664c-0.0263672,0.0146484-0.1274414-0.5712891-2.4277344-1.3378906
			C25.8383789,5.5595703,25.1523438,5.5239258,25.0625,5.6660156c-0.1088867,0.175293,0.0244141,0.7514648,0.2114258,1.1308594
			l0.8105469,1.6420898l-1.637207-0.8173828c-0.2583008-0.1293945-0.5302734-0.1918945-0.831543-0.1918945
			c-1.5083008,0-3.0478516,1.5717773-3.0634766,1.5878906l0,0c0.0048828,0-2.6542969,3.4663086-1.7114258,6.0561523
			c0.480957,1.3222656,1.8681641,2.237793,4.1225586,2.7207031c2.5820313,0.5532227,5.5766602,0.8339844,8.8999023,0.8339844
			c5.6787109-0.0004883,10.3886719-0.8295898,10.4355469-0.8378906l0.1923828-0.034668l0.1767578,0.0830078
			C45.7109375,19.2612305,45.7744141,24.0639648,45.7558594,25.019043z"/>
	</g>
	<path style="fill:#3A0909;" d="M33.8945313,29.4794922l1.0390625-2.0405273l7.1074219,1.1552734
		C42.0410156,28.5942383,34.4072266,32.1386719,33.8945313,29.4794922z"/>
	<path style="fill:#3A0909;" d="M30.3095703,30.46875l-1.1811523-3.0297852l-7.6118164,2.0405273
		C21.5166016,29.4794922,27.5415039,31.534668,30.3095703,30.46875z"/>
	<g>
		<linearGradient id="SVGID_12_" gradientUnits="userSpaceOnUse" x1="13.2133789" y1="7.3837891" x2="24.9108543" y2="46.8816566">
			<stop  offset="0" style="stop-color:#7F2000"/>
			<stop  offset="0.1896042" style="stop-color:#731C00"/>
			<stop  offset="0.5308047" style="stop-color:#541200"/>
			<stop  offset="0.9817354" style="stop-color:#210100"/>
			<stop  offset="1" style="stop-color:#1F0000"/>
		</linearGradient>
		<path style="fill:url(#SVGID_12_);" d="M18.0244141,37.5302734l-1.0585938-10.1025391l2.4394531-2.5825195
			c0,0,0.7739258-3.9287109,2.9697266-6.1420898c0,0-1.4506836-2.3652344-6.4638672-0.8461914
			s-2.8862305,8.5073242-2.8862305,8.5073242l1.519043,0.4560547L18.0244141,37.5302734z"/>
		<path style="fill:#3A0909;" d="M19.2460938,43.2822266l-5.1879883-15.9648438l-1.5263672-0.4584961l-0.0957031-0.3154297
			c-0.050293-0.1645508-1.2094727-4.0625,0.2841797-6.8598633c0.6357422-1.1899414,1.6494141-2.0029297,3.012207-2.4160156
			c1.1728516-0.3549805,2.2602539-0.5351563,3.2333984-0.5351563c2.8891602,0,3.8925781,1.581543,3.934082,1.6489258
			l0.2529297,0.4121094l-0.3408203,0.3432617c-2.0410156,2.0576172-2.7954102,5.7900391-2.8027344,5.8276367l-0.0341797,0.1743164
			l-2.3676758,2.5063477L19.2460938,43.2822266z M13.5288086,25.8725586l1.5009766,0.4506836l1.7729492,5.4550781
			l-0.4785156-4.5678711l2.5151367-2.6625977c0.171875-0.7666016,0.9316406-3.7617188,2.6977539-5.8413086
			c-0.3881836-0.3129883-1.1757813-0.7426758-2.5712891-0.7426758c-0.8520508,0-1.8193359,0.1621094-2.8759766,0.4824219
			C12.2348633,19.6142578,13.1987305,24.559082,13.5288086,25.8725586z"/>
	</g>
	<g>
		<g>
			<path style="fill:#3A0909;" d="M32.2451172,42.0126953c0,0,0.4238281,2.2792969-1.4003906,3.0371094l-5.9482422,2.8867188
				c0,0-5.4316406-1.6699219-1.7167969-5.3164063c0,0-1.496582,4.5566406,1.7167969,3.3417969
				C24.8964844,45.9619141,26.5053711,41.7080078,32.2451172,42.0126953z"/>
			<path style="fill:#3A0909;" d="M33,42.0126953c0,0-0.4238281,2.2792969,1.4003906,3.0371094l5.9482422,2.8867188
				c0,0,5.4316406-1.6699219,1.7167969-5.3164063c0,0,1.4960938,4.5566406-1.7167969,3.3417969
				C40.3486328,45.9619141,38.7392578,41.7080078,33,42.0126953z"/>
		</g>
	</g>
	<path style="fill:#512202;" d="M31.4111328,40.8037109c-1.2333984-0.0585938-2.1547852-0.4511719-2.7382813-1.1660156
		c-0.7895508-0.9667969-0.6166992-2.1523438-0.6088867-2.2021484l0.0424805-0.1474609l2.7680664-6.456543l1.1313477,0.4853516
		l-2.7299805,6.3686523c-0.0107422,0.1826172-0.0087891,0.7412109,0.3588867,1.1835938
		c0.3544922,0.4257813,0.9716797,0.6630859,1.8349609,0.7041016L31.4111328,40.8037109z"/>
	<g>
		<path style="fill:#492927;" d="M34.9326172,32.28125c-0.1503906,0-0.3017578-0.046875-0.4326172-0.1430664
			c-2.2421875-1.6582031-3.4902344-0.2871094-3.6254883-0.1254883c-0.2548828,0.3056641-0.7143555,0.3535156-1.0234375,0.1005859
			c-0.3095703-0.2524414-0.3608398-0.7041016-0.1113281-1.0166016c0.7451172-0.9326172,2.8793945-2.1625977,5.6274414-0.1313477
			c0.3242188,0.2397461,0.3925781,0.6962891,0.1523438,1.0200195C35.3769531,32.1787109,35.15625,32.28125,34.9326172,32.28125z"/>
		<g>
			<linearGradient id="SVGID_13_" gradientUnits="userSpaceOnUse" x1="24.1977539" y1="29.402832" x2="24.1977539" y2="38.0682678">
				<stop  offset="0" style="stop-color:#7F2000"/>
				<stop  offset="0.0239349" style="stop-color:#731D00"/>
				<stop  offset="0.067027" style="stop-color:#541500"/>
				<stop  offset="0.1239071" style="stop-color:#210800"/>
				<stop  offset="0.157576" style="stop-color:#000000"/>
				<stop  offset="0.2609798" style="stop-color:#0F0503"/>
				<stop  offset="0.4600918" style="stop-color:#36100B"/>
				<stop  offset="0.7317834" style="stop-color:#752317"/>
				<stop  offset="1" style="stop-color:#BA3824"/>
			</linearGradient>
			<path style="fill:url(#SVGID_13_);" d="M18.4345703,32.9833984c-0.5786133-2.1728516,3.6870117-4.0361328,5.7241211-4.340332
				c2.0375977-0.3037109,4.9238281,0.8452148,5.5317383,2.1699219c0.6074219,1.3242188,0.6074219,5.2739258-2.203125,6.7172852
				S19.7216797,37.8173828,18.4345703,32.9833984z"/>
			<path style="opacity:0.57;fill:#CCF5FF;" d="M21.3798828,34.9248047c0,0-0.9243164-0.6484375-1.7480469-2.7011719
				c0,0,2.5073242-3.2763672,5.6977539-2.6689453v1.215332C25.3295898,30.7700195,21.0200195,33.6025391,21.3798828,34.9248047z"/>
			<path style="fill:#492927;" d="M24.3823242,39.2792969c-4.9916992,0-7.2939453-5.7548828-7.3891602-6l-0.0932617-0.2392578
				l0.0805664-0.2431641c0.0620117-0.1875,1.5874023-4.6030273,7.5419922-5.0795898
				c6.2353516-0.5073242,6.6201172,4.0805664,6.6235352,4.125c-0.0200195,2.2973633-1.2636719,6.7006836-5.8095703,7.3666992
				C25.0166016,39.2558594,24.6958008,39.2792969,24.3823242,39.2792969z M18.4282227,33.0107422
				c0.503418,1.0966797,2.7275391,5.3662109,6.7021484,4.7900391c4.4692383-0.6552734,4.5913086-5.6977539,4.5942383-5.9121094
				c-0.0263672-0.2358398-0.4682617-3.1225586-5.0883789-2.7524414
				C20.3564453,29.4790039,18.8022461,32.1923828,18.4282227,33.0107422z"/>
			<path style="fill:#492927;" d="M16.1308594,35.6542969c-0.1518555,0-0.3046875-0.0478516-0.4355469-0.1455078
				c-0.3227539-0.2402344-0.3891602-0.6972656-0.1484375-1.0205078l1.5249023-2.0424805
				c0.2412109-0.3232422,0.6977539-0.3901367,1.0205078-0.1484375c0.3227539,0.2407227,0.3891602,0.6977539,0.1484375,1.0209961
				l-1.5249023,2.0429688C16.5727539,35.5527344,16.3530273,35.6542969,16.1308594,35.6542969z"/>
		</g>
		<g>
			
				<linearGradient id="SVGID_14_" gradientUnits="userSpaceOnUse" x1="8.3276367" y1="29.402832" x2="8.3276367" y2="38.0682678" gradientTransform="matrix(-1 0 0 1 48.4599609 0)">
				<stop  offset="0" style="stop-color:#7F2000"/>
				<stop  offset="0.0239349" style="stop-color:#731D00"/>
				<stop  offset="0.067027" style="stop-color:#541500"/>
				<stop  offset="0.1239071" style="stop-color:#210800"/>
				<stop  offset="0.157576" style="stop-color:#000000"/>
				<stop  offset="0.2609798" style="stop-color:#0F0503"/>
				<stop  offset="0.4600918" style="stop-color:#36100B"/>
				<stop  offset="0.7317834" style="stop-color:#752317"/>
				<stop  offset="1" style="stop-color:#BA3824"/>
			</linearGradient>
			<path style="fill:url(#SVGID_14_);" d="M45.8964844,32.9833984c0.578125-2.1728516-3.6875-4.0361328-5.7255859-4.340332
				c-2.0371094-0.3037109-4.9228516,0.8452148-5.53125,2.1699219c-0.6074219,1.3242188-0.6074219,5.2739258,2.203125,6.7172852
				S44.6083984,37.8173828,45.8964844,32.9833984z"/>
			<path style="opacity:0.57;fill:#CCF5FF;" d="M36.0634766,34.9248047c0,0-0.9238281-0.6484375-1.7470703-2.7011719
				c0,0,2.5058594-3.2763672,5.6962891-2.6689453v1.215332C40.0126953,30.7700195,35.703125,33.6025391,36.0634766,34.9248047z"/>
			<path style="fill:#492927;" d="M39.9482422,39.2792969L39.9482422,39.2792969
				c-0.3134766,0-0.6347656-0.0234375-0.9541016-0.0703125c-4.546875-0.6660156-5.7890625-5.0693359-5.8115234-7.3046875
				c0.0058594-0.1098633,0.390625-4.6962891,6.625-4.1870117c5.9541016,0.4765625,7.4804688,4.8920898,7.5419922,5.0795898
				l0.0800781,0.2431641l-0.0927734,0.2392578C47.2412109,33.5244141,44.9404297,39.2792969,39.9482422,39.2792969z
				 M38.8994141,29.1035156c-3.9121094,0-4.2675781,2.5629883-4.2958984,2.8549805
				c0.0058594,0.1450195,0.1269531,5.1870117,4.5966797,5.8422852c3.9648438,0.5732422,6.2011719-3.6982422,6.7021484-4.7919922
				c-0.3710938-0.8261719-1.90625-3.5283203-6.2080078-3.8725586
				C39.4160156,29.1137695,39.1503906,29.1035156,38.8994141,29.1035156z"/>
			<path style="fill:#492927;" d="M48.2001953,35.6542969c-0.2226563,0-0.4423828-0.1015625-0.5849609-0.2929688
				l-1.5253906-2.0429688c-0.2412109-0.3232422-0.1748047-0.7802734,0.1474609-1.0209961
				c0.3232422-0.2412109,0.78125-0.1738281,1.0205078,0.1484375l1.5253906,2.0424805
				c0.2412109,0.3232422,0.1748047,0.7802734-0.1474609,1.0205078
				C48.5048828,35.6064453,48.3515625,35.6542969,48.2001953,35.6542969z"/>
		</g>
	</g>
	<path style="fill:#3A0909;" d="M46.9238281,37.6171875L45.5458984,27.453125l-1.0322266-2.1787109l0.0068359-0.1538086
		c0.0019531-0.0483398,0.1845703-4.7553711-2.2109375-6.0834961c-0.9814453,0.1606445-5.3359375,0.8222656-10.4462891,0.8227539
		c-3.409668,0-6.4912109-0.2900391-9.1577148-0.8613281c-2.6982422-0.578125-4.3886719-1.7583008-5.0234375-3.5073242
		c-1.1748047-3.2368164,1.8144531-7.1166992,1.9418945-7.2802734c0.1230469-0.1323242,2.1196289-2.1220703,4.190918-2.0068359
		c-0.0517578-0.3930664-0.0239258-0.8227539,0.199707-1.1850586c0.1904297-0.3076172,0.5893555-0.6743164,1.4111328-0.6743164
		c0.4462891,0,0.9755859,0.1044922,1.6186523,0.3188477c1.4550781,0.4848633,2.4086914,1.0131836,2.8891602,1.6035156
		c0.7749023-0.675293,2.0673828-1.4926758,3.7832031-1.4926758c2.7949219,0,5.6503906,2.1176758,8.4873047,6.2939453
		c0.7265625,0.65625,7.0039063,6.4863281,6.6884766,11.6870117L46.9238281,37.6171875z M45.7558594,25.019043l0.9980469,2.1743164
		l0.15625,1.15625l0.7578125-5.7124023c0.2871094-4.7666016-6.2724609-10.6411133-6.3388672-10.699707l-0.1015625-0.1162109
		c-2.5722656-3.8046875-5.1689453-5.8154297-7.5107422-5.8154297c-2.1640625,0-3.4819336,1.6777344-3.625,1.8691406
		l-1.0092773-0.7055664c-0.0263672,0.0146484-0.1274414-0.5712891-2.4277344-1.3378906
		C25.8383789,5.5595703,25.1523438,5.5239258,25.0625,5.6660156c-0.1088867,0.175293,0.0244141,0.7514648,0.2114258,1.1308594
		l0.8105469,1.6420898l-1.637207-0.8173828c-0.2583008-0.1293945-0.5302734-0.1918945-0.831543-0.1918945
		c-1.5083008,0-3.0478516,1.5717773-3.0634766,1.5878906l0,0c0.0048828,0-2.6542969,3.4663086-1.7114258,6.0561523
		c0.480957,1.3222656,1.8681641,2.237793,4.1225586,2.7207031c2.5820313,0.5532227,5.5766602,0.8339844,8.8999023,0.8339844
		c5.6787109-0.0004883,10.3886719-0.8295898,10.4355469-0.8378906l0.1923828-0.034668l0.1767578,0.0830078
		C45.7109375,19.2612305,45.7744141,24.0639648,45.7558594,25.019043z"/>
	<path style="fill:#3A0909;" d="M19.2460938,43.2822266l-5.1879883-15.9648438l-1.5263672-0.4584961l-0.0957031-0.3154297
		c-0.050293-0.1645508-1.2094727-4.0625,0.2841797-6.8598633c0.6357422-1.1899414,1.6494141-2.0029297,3.012207-2.4160156
		c1.1728516-0.3549805,2.2602539-0.5351563,3.2333984-0.5351563c2.8891602,0,3.8925781,1.581543,3.934082,1.6489258
		l0.2529297,0.4121094l-0.3408203,0.3432617c-2.0410156,2.0576172-2.7954102,5.7900391-2.8027344,5.8276367l-0.0341797,0.1743164
		l-2.3676758,2.5063477L19.2460938,43.2822266z M13.5288086,25.8725586l1.5009766,0.4506836l1.7729492,5.4550781
		l-0.4785156-4.5678711l2.5151367-2.6625977c0.171875-0.7666016,0.9316406-3.7617188,2.6977539-5.8413086
		c-0.3881836-0.3129883-1.1757813-0.7426758-2.5712891-0.7426758c-0.8520508,0-1.8193359,0.1621094-2.8759766,0.4824219
		C12.2348633,19.6142578,13.1987305,24.559082,13.5288086,25.8725586z"/>
	
		<rect x="14.3484411" y="41.2305794" transform="matrix(0.0753522 0.997157 -0.997157 0.0753522 59.0595169 20.0669575)" style="fill:#660A0A;" width="8.7220631" height="1.2966515"/>
	
		<rect x="45.7961159" y="36.706192" transform="matrix(0.9988231 0.0485013 -0.0485013 0.9988231 2.0659904 -2.2036133)" style="fill:#660A0A;" width="1.288626" height="9.5270672"/>
</g>
</svg>
