<?xml version="1.0" encoding="UTF-8" standalone="no"?>
<!-- Generator: Adobe Illustrator 15.0.2, SVG Export Plug-In . SVG Version: 6.00 Build 0)  -->

<svg
   xmlns:dc="http://purl.org/dc/elements/1.1/"
   xmlns:cc="http://creativecommons.org/ns#"
   xmlns:rdf="http://www.w3.org/1999/02/22-rdf-syntax-ns#"
   xmlns:svg="http://www.w3.org/2000/svg"
   xmlns="http://www.w3.org/2000/svg"
   xmlns:sodipodi="http://sodipodi.sourceforge.net/DTD/sodipodi-0.dtd"
   xmlns:inkscape="http://www.inkscape.org/namespaces/inkscape"
   version="1.1"
   id="レイヤー_1"
   x="0px"
   y="0px"
   width="64px"
   height="64px"
   viewBox="0 0 64 64"
   enable-background="new 0 0 64 64"
   xml:space="preserve"
   inkscape:version="0.48.5 r10040"
   sodipodi:docname="Cancer_plain.svg"><metadata
     id="metadata54"><rdf:RDF><cc:Work
         rdf:about=""><dc:format>image/svg+xml</dc:format><dc:type
           rdf:resource="http://purl.org/dc/dcmitype/StillImage" /></cc:Work></rdf:RDF></metadata><defs
     id="defs52" /><sodipodi:namedview
     pagecolor="#ffffff"
     bordercolor="#666666"
     borderopacity="1"
     objecttolerance="10"
     gridtolerance="10"
     guidetolerance="10"
     inkscape:pageopacity="0"
     inkscape:pageshadow="2"
     inkscape:window-width="640"
     inkscape:window-height="480"
     id="namedview50" /><g
     id="g3"><g
       id="g5"><linearGradient
         id="SVGID_1_"
         gradientUnits="userSpaceOnUse"
         x1="31.897"
         y1="6.0601"
         x2="31.897"
         y2="58.8208"><stop
           offset="0"
           style="stop-color:#9FE1FF"
           id="stop8" /><stop
           offset="0.2621"
           style="stop-color:#60A1CE"
           id="stop10" /><stop
           offset="0.5708"
           style="stop-color:#1B5B97"
           id="stop12" /><stop
           offset="0.7152"
           style="stop-color:#004082"
           id="stop14" /><stop
           offset="0.7694"
           style="stop-color:#004487"
           id="stop16" /><stop
           offset="0.8311"
           style="stop-color:#005094"
           id="stop18" /><stop
           offset="0.8963"
           style="stop-color:#0064AB"
           id="stop20" /><stop
           offset="0.9636"
           style="stop-color:#0080CB"
           id="stop22" /><stop
           offset="1"
           style="stop-color:#0092DF"
           id="stop24" /></linearGradient><path
         fill="url(#SVGID_1_)"
         d="M58.314,50.82c0,4.4-3.6,8-8,8H13.48c-4.4,0-8-3.6-8-8V14.06c0-4.4,3.6-8,8-8h36.834    c4.4,0,8,3.6,8,8V50.82z"
         id="path26" /></g><g
       opacity="0.22"
       id="g28"><path
         fill="#FFFFFF"
         d="M5.48,26.813C12.861,29.196,22,32.94,31.897,32.94c9.898,0,19.037-3.744,26.417-6.127    c0,0,2.104-13.836-1.917-18.27c-10.805-5.36-37.412-3.354-48.25-0.578C3.723,12.057,5.48,26.813,5.48,26.813z"
         id="path30" /></g><g
       id="g32"><path
         fill="none"
         stroke="#057CDD"
         stroke-width="2"
         stroke-miterlimit="10"
         d="M58.314,50.82c0,4.4-3.6,8-8,8H13.48    c-4.4,0-8-3.6-8-8V14.06c0-4.4,3.6-8,8-8h36.834c4.4,0,8,3.6,8,8V50.82z"
         id="path34" /></g><g
       id="g36"><g
         id="g38"><circle
           fill="none"
           stroke="#FFFFFF"
           stroke-width="3"
           stroke-miterlimit="10"
           cx="22.728"
           cy="26.813"
           r="6.96"
           id="circle40" /><path
           fill="none"
           stroke="#FFFFFF"
           stroke-width="3"
           stroke-miterlimit="10"
           d="M49.267,22.128c0,0-19.579-7.354-30.281-1.254"
           id="path42" /></g><g
         id="g44"><circle
           fill="none"
           stroke="#FFFFFF"
           stroke-width="3"
           stroke-miterlimit="10"
           cx="41.066"
           cy="38.067"
           r="6.96"
           id="circle46" /><path
           fill="none"
           stroke="#FFFFFF"
           stroke-width="3"
           stroke-miterlimit="10"
           d="M14.528,42.752c0,0,19.579,7.355,30.282,1.255"
           id="path48" /></g></g></g></svg>