<?xml version="1.0" encoding="utf-8"?>
<!-- Generator: Adobe Illustrator 18.0.0, SVG Export Plug-In . SVG Version: 6.00 Build 0)  -->
<!DOCTYPE svg PUBLIC "-//W3C//DTD SVG 1.1//EN" "http://www.w3.org/Graphics/SVG/1.1/DTD/svg11.dtd">
<svg version="1.1" id="レイヤー_1" xmlns="http://www.w3.org/2000/svg" xmlns:xlink="http://www.w3.org/1999/xlink" x="0px"
	 y="0px" width="64px" height="64px" viewBox="0 0 64 64" style="enable-background:new 0 0 64 64;" xml:space="preserve">
<g>
	<g>
		<path style="fill:#FFFFFF;" d="M46.1225166,20.8833656c2.9558258-2.9558258,2.7646332-7.8669128-0.5735779-10.5697927
			c-1.8496323-1.4976082-4.3984299-1.8664665-6.6688423-1.1528864c-1.7457962,0.5486965-2.8910103,1.5524759-3.6757736,2.7282505
			c-0.1404877,0.2104883-0.3581924,0.3559227-0.610714,0.372509c-0.563549,0.037014-1.6566811-0.0358858-2.9755707-0.8557367
			c-1.3070488-0.8124895-2.0804634-1.8291082-2.4453831-2.404644c-0.1684093-0.2656107-0.1662045-0.6078253,0.0041313-0.8722057
			c1.356966-2.1061602,3.2717648-3.9538431,6.0798702-5.1473637c5.3132172-2.2582605,11.5975494-1.3509712,15.7396431,2.6706033
			c5.7050743,5.5390821,5.7560883,14.6550388,0.153038,20.2580891L14.62432,62.4352074
			c-0.223732,0.223732-0.5528469,0.308033-0.8492022,0.1971931c-0.5381823-0.2012863-1.4651709-0.6828842-2.6047306-1.8224449
			c-1.1305141-1.1305161-1.5935488-2.0318947-1.7824068-2.5566483c-0.1053886-0.2928314-0.0188789-0.6165276,0.2011843-0.8365898
			L46.1225166,20.8833656z"/>
		<path style="fill:#898989;" d="M14.043457,63.6806641c-0.2114258,0-0.4194336-0.0371094-0.6176758-0.1103516
			c-0.6660156-0.2509766-1.7177734-0.8085938-2.9624023-2.0537109c-1.2456055-1.2451172-1.7841797-2.2783203-2.0166016-2.9257813
			c-0.2329102-0.6455078-0.0620117-1.3847656,0.4360352-1.8818359l36.5322266-36.5327148
			c1.2226563-1.222168,1.8710938-2.9140625,1.78125-4.6411133c-0.0917969-1.7514648-0.9003906-3.3300781-2.2763672-4.4443359
			c-1.5107422-1.2231445-3.7548828-1.6005859-5.7402344-0.9760742c-1.3525391,0.425293-2.3808594,1.1875-3.1435547,2.3295898
			c-0.3222656,0.4814453-0.8232422,0.7783203-1.3769531,0.8149414c-0.6982422,0.046875-2.0239258-0.0439453-3.5688477-1.0043945
			c-1.4921875-0.9272461-2.3710938-2.1015625-2.762207-2.71875c-0.3759766-0.5932617-0.3730469-1.3583984,0.0083008-1.9492188
			c1.6191406-2.5131836,3.815918-4.3725586,6.5288086-5.5258789c2.0146484-0.855957,4.1425781-1.2900391,6.3242188-1.2900391
			c4.0078125,0,7.7382813,1.4785156,10.5029297,4.1635742c2.9492188,2.8632813,4.5908203,6.7021484,4.6210938,10.809082
			c0.0302734,4.1074219-1.5527344,7.9692383-4.4570313,10.8735352L15.331543,63.1425781
			C14.9882813,63.4853516,14.519043,63.6806641,14.043457,63.6806641z M10.378418,58.0419922
			c0.1699219,0.4091797,0.5703125,1.1318359,1.4990234,2.0605469C12.8198242,61.0449219,13.5737305,61.4648438,14,61.6455078
			L50.4423828,25.203125c2.5224609-2.5229492,3.8974609-5.8769531,3.8710938-9.4448242
			c-0.0263672-3.5668945-1.4521484-6.9013672-4.0136719-9.3891602c-2.390625-2.3203125-5.625-3.5981445-9.1103516-3.5981445
			c-1.9111328,0-3.7753906,0.3803711-5.5410156,1.1308594c-2.3339844,0.9916992-4.1552734,2.5185547-5.5644531,4.6660156
			c0.3276367,0.4926758,0.9868164,1.3203125,2.0620117,1.9887695c0.9848633,0.6118164,1.7905273,0.7246094,2.2709961,0.7114258
			c1.0087891-1.4799805,2.4082031-2.5097656,4.1630859-3.0615234c2.6152344-0.8208008,5.5742188-0.3095703,7.5976563,1.3295898
			c1.796875,1.4545898,2.8955078,3.6030273,3.015625,5.894043c0.1201172,2.2929688-0.7421875,4.5380859-2.3642578,6.1601563
			L10.378418,58.0419922z"/>
	</g>
	<path style="fill:#FFFFFF;" d="M46.1225166,20.8833656c2.9558258-2.9558258,2.7646332-7.8669128-0.5735779-10.5697927
		c-1.8496323-1.4976082-4.3984299-1.8664665-6.6688423-1.1528864c-1.7457962,0.5486965-2.8910103,1.5524759-3.6757736,2.7282505
		c-0.1404877,0.2104883-0.3581924,0.3559227-0.610714,0.372509c-0.563549,0.037014-1.6566811-0.0358858-2.9755707-0.8557367
		c-1.3070488-0.8124895-2.0804634-1.8291082-2.4453831-2.404644c-0.1684093-0.2656107-0.1662045-0.6078253,0.0041313-0.8722057
		c1.356966-2.1061602,3.2717648-3.9538431,6.0798702-5.1473637c5.3132172-2.2582605,11.5975494-1.3509712,15.7396431,2.6706033
		c5.7050743,5.5390821,5.7560883,14.6550388,0.153038,20.2580891L14.62432,62.4352074
		c-0.223732,0.223732-0.5528469,0.308033-0.8492022,0.1971931c-0.5381823-0.2012863-1.4651709-0.6828842-2.6047306-1.8224449
		c-1.1305141-1.1305161-1.5935488-2.0318947-1.7824068-2.5566483c-0.1053886-0.2928314-0.0188789-0.6165276,0.2011843-0.8365898
		L46.1225166,20.8833656z"/>
	<g>
		<path style="fill:#C30D23;" d="M30.2447929,37.3751221c-0.1317749-0.0811501-0.2401829-0.1681824-0.3619366-0.2520981
			l-1.703886,1.7038879c0.2368603,0.1765175,0.479702,0.3516579,0.7471924,0.5189209
			c1.8871555,1.178112,4.1604347,1.8388824,6.7722321,2.0153008l2.3806114-2.3806114
			C34.9042587,39.1511612,32.2739029,38.626461,30.2447929,37.3751221z"/>
		<path style="fill:#C30D23;" d="M36.1094208,31.5104961c-0.1317749-0.081152-0.2401848-0.1681843-0.3619385-0.2520981
			l-1.7038841,1.703886c0.2368584,0.1765175,0.479702,0.3516579,0.7471924,0.5189209
			c1.8871536,1.178112,4.1604347,1.8388863,6.7722282,2.0153008l2.3806152-2.3806114
			C40.7688866,33.2865334,38.1385269,32.7618332,36.1094208,31.5104961z"/>
		<path style="fill:#C30D23;" d="M41.9740486,25.6458683c-0.1317787-0.081152-0.2401848-0.1681843-0.3619385-0.2520981
			l-1.7038841,1.703886c0.2368584,0.1765194,0.479702,0.3516598,0.7471924,0.5189228
			c1.8871536,1.1781101,4.1604347,1.8388844,6.7722282,2.0153008l2.3806152-2.3806133
			C46.6335144,27.4219055,44.0031548,26.8972054,41.9740486,25.6458683z"/>
		<path style="fill:#C30D23;" d="M24.380167,43.2397499c-0.1317768-0.0811539-0.2401829-0.1681862-0.3619366-0.2520981
			l-1.703886,1.7038841c0.2368603,0.1765213,0.479702,0.3516617,0.7471924,0.5189247
			c1.8871536,1.1781082,4.1604328,1.8388824,6.7722301,2.0153008l2.3806114-2.3806114
			C29.0396328,45.015789,26.4092751,44.4910851,24.380167,43.2397499z"/>
		<path style="fill:#C30D23;" d="M31.4762897,5.4103794c-0.1437931,0.1325431-0.294693,0.2529674-0.4342422,0.3925161
			c-0.5402985,0.5402975-1.0029716,1.125083-1.4334812,1.7263851c3.0983505,0.3659768,5.5489159,1.2255135,7.3159027,2.580348
			c0.7154884-0.5204573,1.503334-0.8925695,2.3258476-1.1129131C37.3714943,7.2203712,34.7760124,6.0137272,31.4762897,5.4103794z"
			/>
		<path style="fill:#C30D23;" d="M23.9691391,53.0903893l2.3806133-2.3806152
			c-3.1747475,0.170639-5.8051052-0.3540611-7.8342133-1.6053963c-0.1317749-0.0811539-0.2401829-0.1681862-0.3619366-0.2520981
			l-1.703886,1.7038841c0.2368603,0.1765213,0.479702,0.3516579,0.7471924,0.5189247
			C19.0840645,52.2531967,21.3573437,52.9139709,23.9691391,53.0903893z"/>
		<path style="fill:#C30D23;" d="M11.3322821,56.9397125c1.8871555,1.178112,4.1604347,1.8388863,6.7722311,2.0153008
			l2.3806114-2.3806114c-3.1747456,0.170639-5.8051043-0.3540611-7.8342113-1.6054001
			c-0.1317768-0.0811501-0.2401838-0.1681824-0.3619375-0.2520981l-1.7038851,1.7038879
			C10.82195,56.5973091,11.0647926,56.7724495,11.3322821,56.9397125z"/>
		<path style="fill:#C30D23;" d="M37.6593361,2.0747604c2.134037,2.2778301,3.4530792,4.5173092,3.9219398,6.6959362
			c0.8534012,0.0581417,1.6958046,0.2709675,2.4874878,0.6356659c-0.2845726-2.56603-1.4855919-5.1561961-3.6098595-7.7374134
			C39.5164757,1.7109826,38.5799789,1.8461847,37.6593361,2.0747604z"/>
		<path style="fill:#C30D23;" d="M47.0913811,19.6701756c-0.2737274,0.4295883-0.5937843,0.83811-0.9688644,1.2131901
			l-0.6912498,0.6912479c2.3395004,0.9724445,5.1367149,1.197134,8.3684235,0.6511593
			c0.4240189-0.8455753,0.7571144-1.7232647,1.0017967-2.621664C51.7852097,20.308857,49.2040939,20.3357544,47.0913811,19.6701756z
			"/>
		<path style="fill:#C30D23;" d="M49.6976013,4.5534511c-0.7607422-0.5802345-1.5645905-1.0733852-2.4020882-1.4795032
			c0.164505,3.1081686-0.2682037,5.6652498-1.3131065,7.629159c0.0459175,0.0435677,0.0951118,0.0816126,0.14011,0.1266117
			c0.5795174,0.5795183,1.0307884,1.236763,1.3683357,1.9352226C48.9168167,10.6242056,49.6606331,7.8796611,49.6976013,4.5534511z"
			/>
		<path style="fill:#C30D23;" d="M48.1439018,14.9790564c0.1050835,0.8486958,0.0557899,1.71033-0.1450195,2.5451155
			c2.4561386-0.7313385,4.7788658-2.3552494,6.9352493-4.871933c-0.2097549-0.9100075-0.5106888-1.8009415-0.901619-2.6633415
			C52.167141,12.4668722,50.199192,14.1435537,48.1439018,14.9790564z"/>
	</g>
	<g>
		
			<linearGradient id="SVGID_1_" gradientUnits="userSpaceOnUse" x1="26.1925926" y1="33.6189995" x2="40.990284" y2="33.6189995" gradientTransform="matrix(0.7071068 0.7071068 -0.7071068 0.7071068 32.2441978 -13.1536846)">
			<stop  offset="0" style="stop-color:#231815;stop-opacity:0"/>
			<stop  offset="1" style="stop-color:#231815;stop-opacity:0.2"/>
		</linearGradient>
		<path style="fill:url(#SVGID_1_);" d="M51.1493378,5.8028955c-0.1383705-0.1383724-0.288044-0.2576718-0.4306107-0.3891921
			c5.1442299,5.5776544,4.4833031,13.7209301-0.9308205,19.1350536l-36.520752,36.520752
			c-0.2346096,0.2346077-0.5805244,0.3035049-0.8893261,0.1821594c-0.472496-0.1856766-0.6818094-0.0385017-1.6006222-0.866909
			c0.126049,0.1398582,0.2450924,0.2771034,0.3931808,0.4251938c1.1395597,1.1395607,2.0665483,1.6211586,2.6047306,1.8224449
			c0.2963552,0.1108398,0.6254702,0.0265388,0.8492022-0.1971931l36.5250168-36.5250168
			C56.7018356,20.3576927,56.7018356,11.3553915,51.1493378,5.8028955z"/>
		
			<linearGradient id="SVGID_2_" gradientUnits="userSpaceOnUse" x1="14.529603" y1="12.5913897" x2="26.1925926" y2="12.5913897" gradientTransform="matrix(0.7071068 0.7071068 -0.7071068 0.7071068 32.2441978 -13.1536846)">
			<stop  offset="0" style="stop-color:#231815;stop-opacity:0"/>
			<stop  offset="0.6502058" style="stop-color:#231815;stop-opacity:0.2"/>
		</linearGradient>
		<path style="fill:url(#SVGID_2_);" d="M45.691906,10.440526c-0.1245689-0.146554-0.5565529-0.5025501-0.6949234-0.6409225
			c-2.7762489-2.776248-7.2773972-2.776248-10.0536461,0c-0.3296585,0.3296595-0.6152687,0.6857386-0.8645134,1.0591679
			c-0.1405067,0.2105122-0.3582497,0.355979-0.6108017,0.3725624c-0.5635643,0.0370064-1.3509369,0.1743965-2.6697884-0.6454287
			c-0.3812141-0.2370138-0.7044926-0.4918728-0.9980621-0.7476015c0.4288216,0.5019464,1.0186691,1.0706244,1.8178673,1.5674057
			c1.3188477,0.8198252,2.411953,0.8927469,2.9755173,0.8557396c0.252552-0.0165834,0.470295-0.1620493,0.6108017-0.3725624
			c0.2492485-0.3734283,0.5348549-0.7295084,0.8645134-1.0591679C38.7067451,8.191843,42.8988342,8.0656404,45.691906,10.440526z"/>
	</g>
	<g>
		
			<linearGradient id="SVGID_3_" gradientUnits="userSpaceOnUse" x1="28.2582607" y1="37.1753883" x2="37.8230629" y2="37.1753883" gradientTransform="matrix(0.7071068 0.7071068 -0.7071068 0.7071068 32.2441978 -13.1536846)">
			<stop  offset="0.3045267" style="stop-color:#FFFFFF;stop-opacity:0.4"/>
			<stop  offset="1" style="stop-color:#FFFFFF;stop-opacity:0"/>
		</linearGradient>
		<path style="fill:url(#SVGID_3_);" d="M10.276248,59.2698936c-0.1208715-0.304306,0.1731672-0.8632774,0.4046965-1.0948067
			l36.5760956-36.5760956c2.4986229-2.4986229,2.7918549-6.8428898,0.293232-9.3415136
			c-0.1272964-0.1272964-0.2611275-0.2436399-0.3960648-0.3579588c2.1297112,2.5138111,1.7201347,6.5741215-0.6511917,8.9454479
			L9.9227533,57.4252319c-0.2359276,0.2359276-0.5211382,0.8010826-0.3980875,1.1112175
			c0.1914997,0.4826469,0.6180611,1.251194,1.5653753,2.1985092c0.136179,0.1361771,0.2633371,0.2468605,0.3924284,0.3629761
			C10.781455,60.3182449,10.4409389,59.6845245,10.276248,59.2698936z"/>
		
			<linearGradient id="SVGID_4_" gradientUnits="userSpaceOnUse" x1="12.8632145" y1="9.2718801" x2="26.1925926" y2="9.2718801" gradientTransform="matrix(0.7071068 0.7071068 -0.7071068 0.7071068 32.2441978 -13.1536846)">
			<stop  offset="0" style="stop-color:#FFFFFF;stop-opacity:0.4"/>
			<stop  offset="1" style="stop-color:#FFFFFF;stop-opacity:0"/>
		</linearGradient>
		<path style="fill:url(#SVGID_4_);" d="M30.1257,9.1279297c0.3030186-0.4685478,1.1196461-1.583384,1.9187908-2.3825307
			c5.1375504-5.1375504,13.3295631-5.6290779,18.360672-1.0181289c-0.1205254-0.1314945-0.2296181-0.2698154-0.3569145-0.3971119
			c-4.9972458-4.9972463-13.485939-4.6106248-18.7577801,0.6612172c-0.6757889,0.6757898-1.2581825,1.4059515-1.7644596,2.1699166
			c-0.1763611,0.2661266-0.3855972,0.8186865-0.2132416,1.0874233c0.2388058,0.3723459,0.6503029,0.9208221,1.2717762,1.4560852
			C30.0425262,10.0626726,29.8226795,9.5964766,30.1257,9.1279297z"/>
	</g>
</g>
</svg>
