<?xml version="1.0" encoding="UTF-8"?>
<!-- Generated by phantom_svg. -->
<svg width="64px" height="64px" viewBox="0 0 64 64" preserveAspectRatio="none" xmlns="http://www.w3.org/2000/svg" xmlns:xlink="http://www.w3.org/1999/xlink" version="1.1">
  <g>
    <g>
      <linearGradient id='SVGID_1_' gradientUnits='userSpaceOnUse' x1='305.8972473' y1='-304.0600586' x2='305.8972473' y2='-356.8203125' gradientTransform='matrix(1 0 0 -1 -274 -298)'>
        <stop offset='0' style='stop-color:#9FE1FF'/>
        <stop offset='0.2621' style='stop-color:#60A1CE'/>
        <stop offset='0.5708' style='stop-color:#1B5B97'/>
        <stop offset='0.7152' style='stop-color:#004082'/>
        <stop offset='0.7694' style='stop-color:#004487'/>
        <stop offset='0.8311' style='stop-color:#005094'/>
        <stop offset='0.8963' style='stop-color:#0064AB'/>
        <stop offset='0.9636' style='stop-color:#0080CB'/>
        <stop offset='1' style='stop-color:#0092DF'/>
      </linearGradient>
      <path style='fill:url(#SVGID_1_);' d='M58.3144989,50.8203011c0,4.4003983-3.6005974,8-8,8H13.4799805
			c-4.3999004,0-8-3.5996017-8-8V14.0600595c0-4.3998995,3.6001-7.9999995,8-7.9999995h36.8345184c4.3994026,0,8,3.6001,8,7.9999995
			V50.8203011z'/>
    </g>
    <g style='opacity:0.22;'>
      <path style='fill:#FFFFFF;' d='M5.47998,26.8129997C12.8608398,29.1958008,22,32.9394989,31.8969994,32.9394989
			c9.8978996,0,19.036602-3.7436981,26.4174995-6.1264992c0,0,2.1035004-13.8359489-1.9179993-18.270031
			C45.5918007,3.18311,18.9848595,5.1889601,8.1469698,7.9648399C3.72314,12.0571289,5.47998,26.8129997,5.47998,26.8129997z'/>
    </g>
    <g>
      <path style='fill:#057CDD;' d='M50.3144531,59.8203125H13.4799805c-4.9624023,0-9-4.0371094-9-9V14.0600586
			c0-4.9624023,4.0375977-9,9-9h36.8344727c4.9628906,0,9,4.0375977,9,9v36.7602539
			C59.3144531,55.7832031,55.2773438,59.8203125,50.3144531,59.8203125z M13.4799805,7.0600586c-3.8598633,0-7,3.1401367-7,7
			v36.7602539c0,3.859375,3.1401367,7,7,7h36.8344727c3.859375,0,7-3.140625,7-7V14.0600586c0-3.8598633-3.140625-7-7-7H13.4799805z
			'/>
    </g>
  </g>
  <path style="fill:#FFFFFF;" d="M24.9829102,49.5898438v-3.1757813c6.059082,0,7.4672852-0.9804688,8.1860352-3.0419922
	c0.1279297-0.3681641,0.2705078-0.8134766,0.4296875-1.3134766c0.4824219-1.5107422,1.1083984-3.4716797,1.9873047-5.3945313
	c-0.6230469-2.1259766-1.1865234-4.6040039-1.7861328-7.2407227c-0.8999023-3.9599609-2.5751953-11.3305664-3.9760742-11.8427734
	c-1.7807617,0.0058594-5.7109375,7.1347656-8.3691406,15.262207l-3.0966797-0.4936523
	c0-6.7753906-3.6835938-13.8808594-5.0732422-14.434082c0.0014648,0.0004883,0.0556641,0.0214844,0.1518555,0.0214844v-3.1757813
	c2.8237305,0,5.7929688,5.387207,7.2241211,11.1166992c2.2045898-5.2495117,5.5810547-11.4667969,9.2041016-11.4667969
	c3.7788086,0,5.2143555,6.3144531,7.0317383,14.3085938c0.2998047,1.3198242,0.6210938,2.7324219,0.9609375,4.1088867
	c1.5439453-1.9501953,3.5625-3.3588867,6.2441406-3.3930664c2.8417969-0.0209961,5.1289063,1.1669922,6.5742188,3.3857422
	c1.7421875,2.6733398,1.7822266,6.0844727,0.9355469,7.9370117c-0.9248047,2.0195313-3.2861328,3.6982422-5.8779297,4.1787109
	c-2.6875,0.4970703-5.2753906-0.3115234-7.2832031-2.2792969c-0.4267578-0.4189453-0.8154297-0.9638672-1.1748047-1.6171875
	c-0.2470703,0.7167969-0.4628906,1.3916016-0.6513672,1.984375c-0.1699219,0.5302734-0.3212891,1.0029297-0.4570313,1.3935547
	C34.5019531,49.1943359,29.9267578,49.5898438,24.9829102,49.5898438z M38.9970703,36.9199219
	c0.5283203,1.6191406,1.0898438,2.8945313,1.6757813,3.4697266c1.5986328,1.5664063,3.3164063,1.6396484,4.4824219,1.4248047
	c1.7607422-0.3261719,3.1523438-1.46875,3.5683594-2.3769531c0.4160156-0.9121094,0.4042969-3.1757813-0.7080078-4.8828125
	c-0.8408203-1.2910156-2.1152344-1.9453125-3.7900391-1.9453125c-0.0273438,0-0.0546875,0.0004883-0.0830078,0.0004883
	C41.8935547,32.6386719,40.2324219,34.5722656,38.9970703,36.9199219z"/>
  <g>
  </g>
  <g>
  </g>
  <g>
  </g>
  <g>
  </g>
  <g>
  </g>
  <g>
  </g>
</svg>