<?xml version="1.0" encoding="utf-8"?>
<!-- Generator: Adobe Illustrator 15.0.2, SVG Export Plug-In . SVG Version: 6.00 Build 0)  -->
<!DOCTYPE svg PUBLIC "-//W3C//DTD SVG 1.1//EN" "http://www.w3.org/Graphics/SVG/1.1/DTD/svg11.dtd">
<svg version="1.1" id="レイヤー_1" xmlns="http://www.w3.org/2000/svg" xmlns:xlink="http://www.w3.org/1999/xlink" x="0px"
	 y="0px" width="64px" height="64px" viewBox="0 0 64 64" style="enable-background:new 0 0 64 64;" xml:space="preserve">
<g>
	
		<rect x="4.8964844" y="4.8964844" style="fill:#FFFFFF;stroke:#DD0012;stroke-width:3.64939;stroke-linecap:round;stroke-linejoin:round;stroke-miterlimit:10;" width="54.2070313" height="54.2070313"/>
	<g>
		<path style="fill:#DD0012;" d="M19.4794922,28.7890625c-0.4589844,0.2041016-1.4785156,0.4423828-2.7705078,0.4423828
			c-4.1650391,0-6.1367188-2.9072266-6.1367188-6.5449219c0-4.7080078,3.0595703-6.9345703,6.4423828-6.9345703
			c1.3261719,0,2.2441406,0.2714844,2.6181641,0.4755859l-0.5439453,2.4306641
			c-0.4423828-0.2041016-1.0712891-0.390625-1.9042969-0.390625c-1.8867188,0-3.4677734,1.2919922-3.4677734,4.2490234
			c0,2.7373047,1.3603516,4.1650391,3.4853516,4.1650391c0.6796875,0,1.4443359-0.1357422,1.9033203-0.3056641
			L19.4794922,28.7890625z"/>
		<path style="fill:#DD0012;" d="M30.8359375,29.0615234h-3.09375l-0.765625-3.0595703h-3.0253906l-0.7138672,3.0595703h-3.0253906
			l3.4667969-13.1396484h3.7910156L30.8359375,29.0615234z M26.6201172,23.7412109l-0.578125-2.6347656
			c-0.1699219-0.7822266-0.390625-1.9550781-0.5615234-2.7539063h-0.0332031
			c-0.1699219,0.7988281-0.3916016,2.0058594-0.5439453,2.7539063l-0.5957031,2.6347656H26.6201172z"/>
		<path style="fill:#DD0012;" d="M39.046875,18.7939453C38.5703125,18.5566406,37.7890625,18.25,36.7353516,18.25
			c-1.15625,0-1.7167969,0.5615234-1.7167969,1.2070313c0,0.7314453,0.5439453,1.0878906,2.1416016,1.8193359
			c2.0908203,0.9345703,2.9570313,2.2265625,2.9570313,3.8583984c0,2.3964844-1.8183594,4.0966797-4.9970703,4.0966797
			c-1.3261719,0-2.6347656-0.3398438-3.2470703-0.6796875l0.5107422-2.5166016
			c0.6962891,0.3574219,1.8017578,0.6806641,2.8554688,0.6806641c1.2578125,0,1.8701172-0.5439453,1.8701172-1.3261719
			c0-0.7988281-0.5957031-1.2412109-1.9550781-1.8525391c-2.0742188-0.9521484-3.1445313-2.2441406-3.1445313-3.8076172
			c0-2.2275391,1.6992188-3.9775391,4.7421875-3.9775391c1.2578125,0,2.2265625,0.2714844,2.8554688,0.5771484L39.046875,18.7939453
			z"/>
		<path style="fill:#DD0012;" d="M51.5576172,29.0615234h-2.9912109v-5.3720703h-3.7060547v5.3720703h-2.9912109V15.921875
			h2.9912109v5.0820313h3.7060547V15.921875h2.9912109V29.0615234z"/>
		<path style="fill:#DD0012;" d="M21.5019531,41.3134766c0,4.5722656-2.2265625,6.9345703-5.5410156,6.9345703
			c-3.6210938,0-5.3886719-3.1269531-5.3886719-6.7304688c0-3.7060547,2.0400391-6.7822266,5.5751953-6.7822266
			C19.9726563,34.7353516,21.5019531,38.1181641,21.5019531,41.3134766z M13.7167969,41.4658203
			c-0.0166016,2.515625,0.8330078,4.3183594,2.3457031,4.3183594s2.2949219-1.8027344,2.2949219-4.3691406
			c0-2.2939453-0.7646484-4.2148438-2.2949219-4.2148438C14.4648438,37.2001953,13.7167969,39.2060547,13.7167969,41.4658203z"/>
		<path style="fill:#DD0012;" d="M32.9941406,48.0615234h-2.9746094l-2.2949219-4.7763672
			c-0.6113281-1.2578125-1.359375-2.9746094-1.8359375-4.3349609h-0.0673828
			c0.0849609,1.5302734,0.1523438,3.5361328,0.1523438,5.8818359v3.2294922h-2.6855469V34.921875h3.1953125l2.2441406,4.7089844
			c0.5947266,1.1728516,1.3085938,2.8554688,1.8017578,4.1806641h0.0341797
			c-0.1523438-1.5292969-0.2548828-3.5859375-0.2548828-5.7617188V34.921875h2.6855469V48.0615234z"/>
		<path style="fill:#DD0012;" d="M42.7519531,48.0615234h-7.3427734V34.921875h2.9912109v10.6064453h4.3515625V48.0615234z"/>
		<path style="fill:#DD0012;" d="M53.4277344,34.921875l-3.7226563,7.8535156v5.2861328h-2.9921875v-5.1679688L43.109375,34.921875
			h3.3486328l1.0712891,3.0771484c0.3056641,0.9003906,0.5605469,1.7167969,0.8164063,2.6171875h0.0332031
			c0.2216797-0.8662109,0.4765625-1.6992188,0.7822266-2.6347656l0.9863281-3.0595703H53.4277344z"/>
	</g>
</g>
</svg>
