<?xml version="1.0" encoding="utf-8"?>
<!-- Generator: Adobe Illustrator 18.0.0, SVG Export Plug-In . SVG Version: 6.00 Build 0)  -->
<!DOCTYPE svg PUBLIC "-//W3C//DTD SVG 1.1//EN" "http://www.w3.org/Graphics/SVG/1.1/DTD/svg11.dtd">
<svg version="1.1" id="レイヤー_1" xmlns="http://www.w3.org/2000/svg" xmlns:xlink="http://www.w3.org/1999/xlink" x="0px"
	 y="0px" width="64px" height="64px" viewBox="0 0 64 64" style="enable-background:new 0 0 64 64;" xml:space="preserve">
<g>
	<radialGradient id="SVGID_1_" cx="32" cy="34" r="30" gradientTransform="matrix(1 0 0 -1 0 66)" gradientUnits="userSpaceOnUse">
		<stop  offset="0.5473251" style="stop-color:#004D26"/>
		<stop  offset="0.711934" style="stop-color:#006934"/>
		<stop  offset="0.8271605" style="stop-color:#006934"/>
		<stop  offset="1" style="stop-color:#004D26"/>
	</radialGradient>
	<path style="fill:url(#SVGID_1_);" d="M62,34.5825882C58.1875,32,60.4910965,27.546875,60.4910965,27.546875
		s-2.4541283-0.0979614-2.6991463-0.8106995c-0.2450752-0.712738,0.75634-1.0656166,0.75634-1.0656166
		S55.75,20.5,58.2781525,17.9856796c-5.2980423,0.3367424-3.2387352-5.372715-3.2387352-5.372715
		C50,13.625,48.9973946,8.7049217,48.9973946,8.7049217s-1.8045616,1.6660309-2.481823,1.3353539
		c-0.6772614-0.3307343-0.2186966-1.2883186-0.2186966-1.2883186s-6.5625-0.5410194-5.625-5.2430534
		C37.25,5.875,34.5826454,2,34.5826454,2C32,6.4375,27.546875,3.5089035,27.546875,3.5089035
		s-0.0979614,2.454071-0.8106995,2.6991463s-1.0656166-0.75634-1.0656166-0.75634S21.8125,8.375,17.9857368,5.7217903
		c0.3366852,5.2980995-5.3727722,3.2387924-5.3727722,3.2387924C12.625,14.8125,8.7049217,15.0026054,8.7049217,15.0026054
		s1.6660881,1.8045616,1.3353539,2.481823S8.7519569,17.703125,8.7519569,17.703125S7.75,22.0625,3.5089035,23.328125
		C7.4932785,26.8363113,2,29.4173546,2,29.4173546C5.9375,32.375,3.5089035,36.453125,3.5089035,36.453125
		s2.4541283,0.0979042,2.6991463,0.8106995c0.2450752,0.712738-0.75634,1.0656166-0.75634,1.0656166
		S8.8125,41.3125,5.7218475,46.0142632c5.2980423-0.3366852,3.2387352,5.372715,3.2387352,5.372715
		c5.3519173-1.3244781,6.0420227,3.9080429,6.0420227,3.9080429s1.8045616-1.6660309,2.481823-1.3352966
		c0.6772614,0.330677,0.2186966,1.2883186,0.2186966,1.2883186s3.734375-0.3730431,5.625,5.2429962
		C26.8363113,56.5066643,29.4173546,62,29.4173546,62C32.5,57.0625,36.453125,60.4910393,36.453125,60.4910393
		s0.0979614-2.454071,0.8106995-2.6991463c0.712738-0.245018,1.0656166,0.75634,1.0656166,0.75634
		S41.625,55.6875,46.0142632,58.2781525c-0.3366852-5.2980423,5.3727722-3.2387924,5.3727722-3.2387924
		c-1.3245354-5.91436,3.9080429-6.0419655,3.9080429-6.0419655s-1.6660881-1.8045616-1.3353539-2.481823
		s1.2883186-0.2186966,1.2883186-0.2186966s0.8769569-4.921875,5.2430534-5.625C56.5067215,37.1636314,62,34.5825882,62,34.5825882z
		 M39.0710449,47.5563354C39.0710449,47.5563354,38.375,50.375,34,48c-1.138855,5.5859375-8,0-8,0
		s-2.4852905,1.5008545-3.8994751-3.2720947c-4.755188,3.1445313-5.6568604-5.6568604-5.6568604-5.6568604S13.625,38.375,16,34
		c-5.5859375-1.138916,0-8,0-8s-1.5009155-2.4852905,3.2720947-3.8995361
		c-3.1445923-4.755127,5.6568604-5.6567993,5.6568604-5.6567993S25.625,13.625,30,16c1.138855-5.5859985,8,0,8,0
		s2.4852905-1.5009155,3.8994751,3.2720337c4.755188-3.1445313,5.6568604,5.6568604,5.6568604,5.6568604S50.375,25.625,48,30
		c5.5859375,1.138855,0,8,0,8s1.5009155,2.4852905-3.2720947,3.8994751
		C47.8724976,46.6546631,39.0710449,47.5563354,39.0710449,47.5563354z"/>
	<path style="fill:#004020;" d="M29.3564453,63.0419922l-0.3911133-0.8291016
		c-0.0126953-0.0263672-1.2832031-2.6708984-3.0644531-2.6708984c-0.7104492,0-1.449707,0.4306641-2.1972656,1.2792969
		l-0.5727539,0.6503906l-0.2763672-0.8212891c-1.5727539-4.6708984-4.4462891-4.9072266-5.0063477-4.9072266l-0.8842773,0.0878906
		l0.2880859-0.7988281c0.0014648-0.0029297,0.2216797-0.5214844,0.0131836-0.6230469
		c-0.3393555,0.0068359-1.2719727,0.6513672-1.9233398,1.2529297l-0.7050781,0.6513672l-0.1298828-0.9521484
		c-0.0205078-0.1503906-0.5415039-3.6894531-3.9135742-3.6894531c-0.4672852,0-0.9760742,0.0673828-1.5126953,0.2001953
		L8.175293,52.0957031l0.3144531-0.8779297c0.0087891-0.0244141,0.8696289-2.4726563-0.0756836-3.8164063
		c-0.4726563-0.6699219-1.3530273-0.9707031-2.6606445-0.8876953l-1,0.0634766l0.550293-0.8369141
		c2.8208008-4.2919922-0.0600586-6.9267578-0.184082-7.0371094l-0.6347656-0.5634766l0.8007813-0.2822266
		c0.0029297-0.0009766,0.5249023-0.2109375,0.449707-0.4316406c-0.1489258-0.1962891-1.2241211-0.4316406-2.246582-0.4726563
		l-0.8344727-0.0341797l0.4243164-0.7207031c0.0888672-0.1513672,2.1420898-3.7363281-1.3789063-6.3808594l-0.6625977-0.4980469
		l0.7495117-0.3540039c0.0244141-0.0117188,2.4208984-1.1621094,2.6538086-2.8115234
		c0.1118164-0.7905273-0.3129883-1.6147461-1.262207-2.4501953l-0.6772461-0.5966797l0.8647461-0.2578125
		c3.9169922-1.1689453,4.8896484-5.2172852,4.8989258-5.2578125l0.1401367-0.6088867l0.5629883,0.2695313
		c0.0595703,0.027832,0.2587891,0.1030273,0.4331055,0.1030273c0.1459961,0,0.168457-0.0458984,0.1899414-0.0898438
		c0.0332031-0.2402344-0.5717773-1.1855469-1.2529297-1.9233398l-0.7265625-0.7871094l1.0693359-0.0517578
		c0.1376953-0.0083008,3.4433594-0.2705078,3.4321289-5.5415039l-0.0014648-0.7119141l0.6704102,0.2402344
		c0.0102539,0.0039063,1.0307617,0.3647461,2.1240234,0.3647461c0.8833008,0,1.5463867-0.2299805,1.9716797-0.6831055
		c0.4741211-0.5053711,0.6791992-1.3188477,0.609375-2.4179688l-0.0654297-1.0317383l0.8491211,0.5888672
		c0.9804688,0.6796875,2.0532227,1.0244141,3.1894531,1.0244141c2.1787109-0.0004883,3.8920898-1.2695313,3.9091797-1.2822266
		l0.5454102-0.4101563l0.2275391,0.6430664C26.2099609,5.472168,26.390625,5.746582,26.5161133,5.746582
		c0.2504883-0.1577148,0.4912109-1.2543945,0.53125-2.2578125l0.0351563-0.8798828l0.7382813,0.4814453
		c0.0131836,0.0087891,1.3457031,0.8666992,2.8862305,0.8666992c1.4321289,0,2.5908203-0.7431641,3.4443359-2.2084961
		l0.3945313-0.6791992l0.4482422,0.6464844c0.0146484,0.0205078,1.4501953,2.0585938,3.4248047,2.0585938
		c0.6572266,0,1.3193359-0.2280273,1.96875-0.6767578l1.0166016-0.703125l-0.2421875,1.2119141
		c-0.2001953,1.0053711-0.0390625,1.8374023,0.4921875,2.5439453c1.3574219,1.8037109,4.6513672,2.1005859,4.6845703,2.1035156
		l0.7216797,0.0605469l-0.3125,0.6538086c-0.0019531,0.0024414-0.2216797,0.5205078-0.0136719,0.6225586
		c0.3378906-0.0073242,1.2705078-0.6513672,1.9238281-1.253418l0.6484375-0.5976563l0.1796875,0.8642578
		C49.5175781,8.7529297,50.2861328,12.25,53.7314453,12.25c0.3818359,0,0.7880859-0.0429688,1.2089844-0.1274414
		l0.8681641-0.1743164l-0.2988281,0.8334961c-0.0087891,0.0249023-0.8691406,2.4736328,0.0761719,3.8168945
		C56.0078125,17.1967773,56.765625,17.5,57.8408203,17.5l0,0c0.1298828,0,0.265625-0.0043945,0.40625-0.0131836l1.3271484-0.0844727
		l-0.9433594,0.9379883c-2.2373047,2.2246094,0.3300781,7.0439453,0.3564453,7.0922852l0.2792969,0.5146484l-0.5527344,0.1948242
		c-0.0029297,0.0009766-0.5244141,0.2114258-0.4492188,0.4316406c0.1464844,0.1928711,1.2431641,0.4335938,2.2460938,0.4736328
		l0.7822266,0.03125l-0.3574219,0.6972656c-0.0849609,0.1660156-2.046875,4.0947266,1.3447266,6.3930664l0.7255859,0.4912109
		l-0.7929688,0.375c-0.0244141,0.0117188-2.4208984,1.1621094-2.6533203,2.8115234
		c-0.1113281,0.7900391,0.3134766,1.6142578,1.2617188,2.4501953l0.7958984,0.7001953l-1.046875,0.1679688
		c-3.9697266,0.6396484-4.8222656,5.1738281-4.8300781,5.2197266L55.625,47.0322266l-0.5927734-0.2841797
		c-0.0595703-0.0283203-0.2587891-0.1035156-0.4335938-0.1035156c-0.1455078,0-0.1679688,0.0458984-0.1894531,0.0898438
		c-0.0332031,0.2451172,0.5595703,1.171875,1.2529297,1.9238281l0.7431641,0.8056641l-1.0966797,0.0332031
		c-0.0185547,0-1.8896484,0.0712891-2.9257813,1.4052734C51.65625,51.8369141,51.4853516,53.1923828,51.875,54.9296875
		l0.1982422,0.8857422l-0.8554688-0.3056641c-0.0107422-0.0039063-1.0302734-0.3642578-2.1230469-0.3642578
		c-0.8828125,0-1.546875,0.2294922-1.9716797,0.6826172c-0.4746094,0.5058594-0.6796875,1.3193359-0.609375,2.4189453
		l0.0595703,0.9414063l-0.8125-0.4794922c-1.1425781-0.6738281-2.3085938-1.0166016-3.4658203-1.0166016
		c-2.1748047,0-3.625,1.2216797-3.6396484,1.234375l-0.5537109,0.4746094l-0.2441406-0.6875
		c-0.0683594-0.1865234-0.2480469-0.4609375-0.3730469-0.4609375c-0.2548828,0.1601563-0.4902344,1.2363281-0.53125,2.2587891
		l-0.0419922,1.03125l-0.7851563-0.6728516c-0.0117188-0.0107422-1.2255859-1.0380859-2.7333984-1.0380859
		c-1.3486328,0-2.543457,0.8183594-3.5507813,2.4326172L29.3564453,63.0419922z M25.9008789,58.5419922
		c1.7075195,0,2.9526367,1.5537109,3.5581055,2.5126953c1.1123047-1.4755859,2.4326172-2.2226563,3.9335938-2.2226563
		c1.0830078,0,2.0175781,0.4042969,2.6298828,0.7587891c0.1162109-0.9628906,0.4003906-2.0380859,1.0791016-2.2714844
		c0.59375-0.2060547,1.1210938,0.1367188,1.390625,0.4941406c0.6796875-0.4375,2.0244141-1.1210938,3.8027344-1.1210938
		c1.0800781,0,2.1591797,0.2539063,3.2177734,0.7539063c0.0625-0.9716797,0.3574219-1.7441406,0.8808594-2.3017578
		c0.6220703-0.6630859,1.5302734-0.9990234,2.7011719-0.9990234c0.6210938,0,1.2099609,0.0966797,1.65625,0.1972656
		c-0.234375-1.6748047,0.0498047-3.0390625,0.8486328-4.0625c0.7998047-1.0244141,1.9326172-1.4599609,2.7304688-1.6464844
		c-0.5898438-0.7578125-1.1298828-1.7021484-0.8193359-2.3378906c0.2041016-0.4199219,0.5908203-0.6513672,1.0878906-0.6513672
		c0.1005859,0,0.1992188,0.0097656,0.2910156,0.0253906c0.359375-1.2490234,1.5341797-4.3046875,4.6171875-5.2783203
		c-0.7519531-0.8720703-1.0673828-1.7734375-0.9375-2.6884766c0.2177734-1.5253906,1.6445313-2.6367188,2.5253906-3.1865234
		c-2.4746094-2.1625977-1.7988281-5.184082-1.328125-6.5195313c-1.0029297-0.1030273-2.2001953-0.378418-2.4472656-1.0981445
		c-0.2099609-0.6108398,0.0966797-1.1230469,0.5625-1.4458008c-0.5742188-1.2241211-1.9267578-4.6132813-0.5986328-6.9775391
		c-1.1367188-0.1044922-1.9814453-0.5419922-2.5166016-1.3037109c-0.859375-1.2236328-0.6455078-2.9580078-0.4179688-3.9516602
		C54.1386719,13.2402344,53.9326172,13.25,53.7314453,13.25c-3.1552734,0-4.4960938-2.4047852-4.9833984-3.6767578
		c-0.7119141,0.5610352-1.8164063,1.2280273-2.4521484,0.9160156c-0.5449219-0.265625-0.7060547-0.7924805-0.6396484-1.3173828
		c-1.1279297-0.1831055-3.5478516-0.7583008-4.7988281-2.4174805c-0.5146484-0.6826172-0.7744141-1.4667969-0.7773438-2.340332
		c-0.5449219,0.2392578-1.1005859,0.3603516-1.6611328,0.3603516c-1.7685547,0-3.1220703-1.190918-3.7900391-1.9272461
		c-1.2480469,1.7260742-2.7944336,2.1098633-3.921875,2.1098633c-1.1015625,0-2.0878906-0.3515625-2.7182617-0.644043
		c-0.109375,0.9863281-0.3891602,2.1269531-1.0898438,2.3676758c-0.6083984,0.2089844-1.1396484-0.1499023-1.4067383-0.5146484
		c-0.7294922,0.4370117-2.2226563,1.168457-4.0317383,1.1689453c-1.0458984,0-2.0429688-0.2446289-2.9765625-0.7290039
		c-0.0688477,0.9472656-0.362793,1.7016602-0.8774414,2.2495117c-0.621582,0.6630859-1.5302734,0.9990234-2.7001953,0.9990234
		c-0.6943359,0-1.3491211-0.1206055-1.809082-0.2333984c-0.1992188,3.9526367-2.2607422,5.253418-3.4790039,5.6777344
		c0.6088867,0.769043,1.190918,1.7504883,0.8710938,2.4052734c-0.2050781,0.4194336-0.5913086,0.6508789-1.0883789,0.6508789
		c-0.1079102,0-0.2133789-0.0112305-0.3110352-0.0283203c-0.387207,1.1542969-1.6074219,3.9384766-4.6635742,5.2055664
		c0.8007813,0.8959961,1.1376953,1.8232422,1.0039063,2.7646484c-0.2192383,1.5405273-1.6713867,2.6577148-2.5493164,3.2021484
		c2.5639648,2.3540039,1.890625,5.2089844,1.3833008,6.5068359c0.9975586,0.1054688,2.171875,0.3828125,2.4165039,1.0957031
		c0.1918945,0.5576172-0.0473633,1.0332031-0.4458008,1.3574219c0.8056641,1.0302734,2.2392578,3.5771484,0.3671875,7.0566406
		c1.1948242,0.0849609,2.0786133,0.5263672,2.6313477,1.3134766c0.8481445,1.2070313,0.6508789,2.9121094,0.4262695,3.9121094
		c0.3217773-0.0458984,0.6337891-0.0693359,0.9335938-0.0693359c2.8588867,0,4.2285156,2.1015625,4.7167969,3.7089844
		c0.7133789-0.5546875,1.7729492-1.171875,2.394043-0.8701172c0.527832,0.2578125,0.6958008,0.7607422,0.6450195,1.2695313
		c1.1464844,0.1572266,3.6269531,0.9550781,5.1757813,4.7998047C24.2958984,58.890625,25.0927734,58.5419922,25.9008789,58.5419922z
		 M31.4199219,50.9824219c-2.1430664,0-4.6967773-1.8007813-5.4912109-2.4042969
		c-0.800293,0.2851563-2.8452148,0.484375-4.1123047-3.1054688c-0.5634766,0.2880859-1.1074219,0.4335938-1.6225586,0.4335938
		c-3.1220703,0-4.0273438-5.140625-4.2099609-6.4785156c-0.3510742-0.1669922-0.8886719-0.5234375-1.1982422-1.2255859
		c-0.4360352-0.9882813-0.2724609-2.2890625,0.4858398-3.875c-1.0693359-0.3457031-1.7670898-0.9580078-2.078125-1.8286133
		c-0.8227539-2.3022461,1.5234375-5.6416016,2.2294922-6.5712891c-0.1303711-0.3662109-0.2583008-0.9990234,0.019043-1.7143555
		c0.3901367-1.0063477,1.4262695-1.8110352,3.0839844-2.3964844c-0.512207-1-0.5722656-1.9272461-0.1767578-2.762207
		c1.0444336-2.2060547,5.0537109-2.909668,6.2172852-3.0693359c0.2939453-0.625,1.0336914-1.4365234,2.4350586-1.4365234
		c0.7695313,0,1.6660156,0.2431641,2.671875,0.7236328c0.5952148-1.8447266,1.8818359-2.2543945,2.9067383-2.2543945
		c2.1435547,0,4.6962891,1.8007813,5.4912109,2.4042969c0.7978516-0.2890625,2.8447266-0.4853516,4.1123047,3.1044922
		c0.5634766-0.2875977,1.1074219-0.4331055,1.6230469-0.4331055c3.1210938,0,4.0273438,5.1416016,4.2099609,6.4790039
		c0.3505859,0.1665039,0.8886719,0.5234375,1.1982422,1.2255859c0.4355469,0.987793,0.2714844,2.2895508-0.4863281,3.8754883
		c1.0693359,0.3447266,1.7675781,0.9580078,2.078125,1.828125c0.8232422,2.3022461-1.5234375,5.6420898-2.2294922,6.5717773
		c0.1298828,0.3662109,0.2578125,0.9980469-0.0195313,1.7138672c-0.3896484,1.0068359-1.4257813,1.8115234-3.0839844,2.3964844
		c0.5126953,1,0.5722656,1.9267578,0.1767578,2.7617188c-1.0439453,2.2070313-5.0527344,2.9101563-6.2167969,3.0703125
		c-0.2939453,0.625-1.0332031,1.4365234-2.4345703,1.4365234c-0.7695313,0-1.6660156-0.2431641-2.671875-0.7236328
		C33.7314453,50.5732422,32.4448242,50.9824219,31.4199219,50.9824219z M26.0439453,47.3984375l0.2714844,0.2138672
		c0.0292969,0.0234375,2.9414063,2.3701172,5.1044922,2.3701172c0.7148438,0,1.7099609-0.2158203,2.0898438-2.0820313
		l0.1347656-0.6621094l0.59375,0.3222656c1.0898438,0.5917969,2.0185547,0.8916016,2.7607422,0.8916016
		c1.3203125,0,1.5839844-1.0048828,1.5869141-1.015625l0.0839844-0.3408203l0.3505859-0.0361328
		c1.3222656-0.1367188,4.9306641-0.8603516,5.7265625-2.5419922c0.3115234-0.6601563,0.1689453-1.4267578-0.4365234-2.3427734
		l-0.3730469-0.5625l0.6484375-0.1923828c1.6748047-0.4960938,2.7265625-1.1855469,3.0400391-1.9941406
		c0.2470703-0.6396484-0.0507813-1.1621094-0.0537109-1.1669922l-0.1816406-0.3017578l0.2216797-0.2724609
		c0.8388672-1.0322266,2.8789063-4.0957031,2.2529297-5.847168c-0.2460938-0.6875-0.8886719-1.1279297-1.9648438-1.3476563
		l-0.6621094-0.1347656l0.3222656-0.59375c0.8339844-1.5356445,1.0888672-2.7666016,0.7392578-3.5595703
		c-0.2763672-0.6269531-0.8574219-0.7861328-0.8632813-0.7875977l-0.3408203-0.0844727l-0.0361328-0.3496094
		c-0.1689453-1.637207-1.0839844-5.8867188-3.2529297-5.8867188c-0.484375,0-1.0332031,0.2001953-1.6318359,0.5957031
		l-0.5625,0.3725586l-0.1923828-0.6474609c-0.5996094-2.0234375-1.4921875-3.1376953-2.5126953-3.1376953
		c-0.3798828,0-0.6503906,0.152832-0.6533203,0.1542969l-0.2978516,0.1708984l-0.2714844-0.2138672
		c-0.0292969-0.0234375-2.9414063-2.3701172-5.1044922-2.3701172c-0.7148438,0-1.7094727,0.2158203-2.090332,2.0825195
		l-0.1347656,0.6616211l-0.59375-0.3222656c-1.0888672-0.5913086-2.0175781-0.8911133-2.7597656-0.8911133
		c-1.3212891,0-1.5849609,1.0053711-1.5874023,1.015625l-0.0844727,0.3413086l-0.3496094,0.0361328
		c-1.3232422,0.1362305-4.9316406,0.859375-5.7275391,2.5410156c-0.3120117,0.6601563-0.1694336,1.4262695,0.4365234,2.3422852
		l0.3725586,0.5634766l-0.6474609,0.1918945c-1.675293,0.4960938-2.7265625,1.1860352-3.0395508,1.9941406
		c-0.2475586,0.6391602,0.050293,1.1621094,0.0537109,1.1674805l0.1816406,0.3007813l-0.222168,0.2729492
		c-0.8388672,1.0322266-2.8793945,4.0952148-2.2524414,5.847168c0.2460938,0.6875,0.8886719,1.128418,1.9648438,1.347168
		l0.6616211,0.1347656l-0.3222656,0.59375c-0.8276367,1.5253906-1.0854492,2.75-0.7460938,3.5439453
		c0.2719727,0.6347656,0.8510742,0.7978516,0.8754883,0.8046875l0.331543,0.0898438l0.0410156,0.34375
		c0.1689453,1.6367188,1.0825195,5.8857422,3.2519531,5.8857422c0.4848633,0,1.0336914-0.2001953,1.6313477-0.5957031
		L22.3881836,43.9375l0.1918945,0.6484375c0.5996094,2.0234375,1.4921875,3.1376953,2.5131836,3.1376953
		c0.3793945,0,0.6503906-0.1533203,0.652832-0.1542969L26.0439453,47.3984375z"/>
</g>
<g>
	<g>
		<g>
			
				<linearGradient id="SVGID_2_" gradientUnits="userSpaceOnUse" x1="55.720665" y1="16.977232" x2="55.720665" y2="29.5673065" gradientTransform="matrix(0.1313349 -0.9913381 0.9913381 0.1313349 23.0497589 64.8168488)">
				<stop  offset="0" style="stop-color:#00D642"/>
				<stop  offset="1" style="stop-color:#00A331"/>
			</linearGradient>
			<path style="fill:url(#SVGID_2_);" d="M47.1641197,12.0642958c0,0,2.8188171-1.2400913,3.25383-2.9521427
				c0,0,2.149025,1.0654507,4.0606651-0.3989248c0,0,1.2292709,2.1147137,2.8793526,1.83885
				c0,0,0.2472267,2.0626841,2.2532883,3.4214926c0,0-2.9149933,0.394557-3.1115189,1.8779564
				c0,0-2.7425156-1.3002262-3.6921082,0.7600489c0,0-1.8563232-1.7033167-3.2232132-1.2077618
				C49.5844154,15.4038143,48.7670898,12.5369091,47.1641197,12.0642958z"/>
			<path style="fill:#008328;" d="M52.9755859,17.4423828l-0.5058594-0.4619141
				c-0.4101563-0.375-1.8818359-1.4091797-2.7158203-1.1064453l-0.5029297,0.1826172l-0.1474609-0.515625
				c-0.2080078-0.7241211-0.9863281-2.6743164-2.0810547-2.9970703l-1.3085938-0.3857422l1.2490234-0.5512695
				c0.7216797-0.3188477,2.6640625-1.4111328,2.9707031-2.6176758l0.1503906-0.5952148l0.5546875,0.2695313
				c0.0058594,0.0029297,0.6738281,0.3232422,1.546875,0.3232422c0.7392578,0,1.4082031-0.2255859,1.9892578-0.6704102
				l0.4492188-0.3442383l0.2861328,0.4892578c0.2822266,0.480957,1.2617188,1.777832,2.3662109,1.5976563l0.5166016-0.0864258
				l0.0615234,0.5200195c0.0097656,0.0737305,0.2578125,1.8613281,2.0371094,3.0668945l1.0810547,0.7319336l-1.2939453,0.1777344
				c-0.6582031,0.090332-2.5644531,0.5498047-2.6826172,1.4477539L56.90625,16.5942383l-0.6191406-0.2905273
				c-0.0078125-0.003418-0.7705078-0.3569336-1.5605469-0.3569336c-0.7148438,0-1.1933594,0.2861328-1.4648438,0.8740234
				L52.9755859,17.4423828z M50.1240234,14.8134766c0.9775391,0,1.984375,0.6259766,2.5546875,1.050293
				c0.4697266-0.6025391,1.1669922-0.9169922,2.0478516-0.9169922c0.5615234,0,1.0947266,0.1313477,1.4677734,0.2529297
				c0.4375-0.8125,1.4863281-1.2607422,2.3007813-1.4951172c-0.9765625-0.9599609-1.3789063-2.0327148-1.5371094-2.6298828
				c-1.2216797-0.0541992-2.1591797-1.0649414-2.6123047-1.668457c-0.6513672,0.3852539-1.3759766,0.5805664-2.1601563,0.5805664
				c-0.6005859,0-1.1201172-0.1186523-1.4785156-0.2304688c-0.5175781,1.0429688-1.6865234,1.859375-2.4951172,2.3276367
				c0.9082031,0.7524414,1.4619141,2.0444336,1.7089844,2.7382813
				C49.9873047,14.8164063,50.0546875,14.8134766,50.1240234,14.8134766z"/>
		</g>
		<path style="fill:#008328;" d="M48.9744797,11.7433767c0.2832451,0.0000563,0.60075,0.0031977,0.9435234,0.0114927
			c0.5523949-0.5363913,0.8247681-1.5586939,0.8247681-1.5586939c0.0014114,0.8594999-0.203064,1.3206797-0.4469719,1.5695944
			c0.6011391,0.0205126,1.263752,0.0575562,1.9464149,0.1207781c0.7718163-0.3884192,1.4876709-1.4507799,1.4876709-1.4507799
			c-0.1576767,0.9875956-0.6015282,1.3651009-0.9947128,1.5011444c0.4969215,0.0549679,0.9984818,0.125,1.489975,0.2131777
			c0.9800568-0.2544689,1.9313965-0.9764242,1.9313965-0.9764242c-0.4537201,0.6968451-0.9430962,0.9857473-1.3520126,1.0903521
			c1.041523,0.2239866,2.0049934,0.5404491,2.7299576,0.9876375c0,0-0.9985046-0.2638054-2.4903564-0.5030794
			c0.4332275,0.3489914,0.8730011,0.9812212,1.0371017,2.1366405c0,0-0.7728806-1.4995337-1.521637-2.2102871
			c-0.5273743-0.0766153-1.1021957-0.1461363-1.7088928-0.2000942c0.3420334,0.3078995,0.6303749,0.9367647,0.4957581,2.230258
			c0,0-0.3319092-1.6219263-0.9430962-2.2661152c-0.5155334-0.0376492-1.0477257-0.0609217-1.5887909-0.0661182
			c0.2743797,0.2735472,0.482029,0.851656,0.3579254,2.0442219c0,0-0.2394524-1.4858952-0.84272-2.043107
			c-0.4565086,0.0057192-0.9158936,0.0249348-1.3722687,0.062767l-0.4908791-0.3820591L48.9744797,11.7433767z"/>
	</g>
	<g>
		<g>
			
				<linearGradient id="SVGID_3_" gradientUnits="userSpaceOnUse" x1="45.081337" y1="14.3128281" x2="45.081337" y2="32.2540092" gradientTransform="matrix(0.9944353 0.1053498 -0.1053498 0.9944353 2.557266 -4.7463675)">
				<stop  offset="0" style="stop-color:#32FF53"/>
				<stop  offset="1" style="stop-color:#29CC42"/>
			</linearGradient>
			<path style="fill:url(#SVGID_3_);" d="M45.5142822,14.1973886c0,0,1.871666,3.9692698,4.3267708,4.5251245
				c0,0-1.4376411,3.1010971,0.7196999,5.7696934c0,0-2.9666519,1.8299999-2.512146,4.1703186
				c0,0-2.9291534,0.4290962-4.7900238,3.3374748c0,0-0.6707573-4.1378078-2.7912445-4.3624516
				c0,0,1.749958-3.9553013-1.2203903-5.2312088c0,0,2.3572197-2.7079144,1.6003151-4.6366215
				C40.8472633,17.7697182,44.9007988,16.4985065,45.5142822,14.1973886z"/>
			<path style="fill:#22AC38;" d="M42.9755859,33.3701172l-0.2099609-1.2895508
				c-0.1708984-1.0463867-0.9267578-3.7949219-2.3505859-3.9458008l-0.6796875-0.0717773l0.2744141-0.6269531
				c0.0087891-0.019043,0.8349609-1.9326172,0.2773438-3.347168c-0.2207031-0.5605469-0.6259766-0.9604492-1.2373047-1.2231445
				l-0.6289063-0.2700195l0.4492188-0.5175781c0.5996094-0.690918,2.0400391-2.7797852,1.5117188-4.1259766l-0.1953125-0.4985352
				l0.5117188-0.1611328c1.0546875-0.3320313,3.8886719-1.5585938,4.3330078-3.2241211l0.3525391-1.3188477l0.5830078,1.234375
				c0.0175781,0.0375977,1.7978516,3.7558594,3.984375,4.2509766l0.6005859,0.1362305l-0.2568359,0.5605469
				c-0.0527344,0.1157227-1.2734375,2.8613281,0.6542969,5.2460938l0.3564453,0.440918l-0.4824219,0.2988281
				c-0.0263672,0.0166016-2.6669922,1.6796875-2.2832031,3.6499023l0.0986328,0.5112305l-0.515625,0.0786133
				c-0.0273438,0.0039063-2.7363281,0.4443359-4.4433594,3.1123047L42.9755859,33.3701172z M41.1279297,27.293457
				c1.3388672,0.5478516,2.0458984,2.3339844,2.3789063,3.53125c1.4394531-1.6953125,3.1728516-2.3334961,3.9960938-2.5532227
				c-0.0634766-1.8413086,1.5429688-3.2875977,2.3505859-3.8955078c-1.4248047-2.1123047-0.9804688-4.3432617-0.6640625-5.3374023
				c-1.6621094-0.6767578-2.9794922-2.5893555-3.6484375-3.7348633c-1.0107422,1.4951172-3.1474609,2.4291992-4.0888672,2.7832031
				c0.2744141,1.565918-0.828125,3.3242188-1.4433594,4.159668c0.5615234,0.3637695,0.9667969,0.859375,1.2099609,1.4794922
				C41.7246094,25.0131836,41.3818359,26.5068359,41.1279297,27.293457z"/>
		</g>
		<path style="fill:#22AC38;" d="M46.0389519,16.764349c0.010479,0.4034939,0.0178452,0.8559113,0.0188103,1.3445148
			c0.7847061,0.7669029,2.2511711,1.116787,2.2511711,1.116787c-1.2243385,0.0340633-1.8889313-0.2400246-2.2526131-0.5781975
			c-0.0068054,0.8571091-0.0348663,1.8024063-0.0994759,2.7772465c0.5820999,1.0849972,2.1221657,2.0651474,2.1221657,2.0651474
			c-1.4127464-0.1877918-1.9670677-0.8059998-2.1755295-1.3610325c-0.0597725,0.7099342-0.1408348,1.4270363-0.2481194,2.1304741
			c0.399044,1.3866405,1.4629707,2.7149372,1.4629707,2.7149372c-1.0096016-0.6203556-1.4393997-1.306715-1.6036606-1.885334
			c-0.2802429,1.4920387-0.6951294,2.876339-1.3051338,3.9257584c0,0,0.3385696-1.4322453,0.6237946-3.56637
			c-0.4809952,0.6301613-1.3652344,1.2802105-3.0050545,1.557066c0,0,2.1073265-1.1569157,3.0918999-2.2500515
			c0.0894775-0.7541199,0.1670761-1.5755672,0.2213211-2.4418411c-0.4258614,0.4987183-1.3109512,0.9329185-3.1585999,0.7893867
			c0,0,2.2981186-0.5332966,3.1930008-1.4279766c0.0344086-0.7357998,0.0477142-1.4947929,0.0349426-2.2657566
			c-0.3794479,0.4010639-1.1952438,0.7184258-2.8987236,0.5861053c0,0,2.1077843-0.3965187,2.8790588-1.2766724
			c-0.0251694-0.6501007-0.0696716-1.3037968-0.140583-1.9525108l0.5259514-0.713522L46.0389519,16.764349z"/>
	</g>
	<g>
		<g>
			
				<linearGradient id="SVGID_4_" gradientUnits="userSpaceOnUse" x1="61.6778412" y1="18.9950256" x2="61.6778412" y2="32.5909195" gradientTransform="matrix(-0.4555947 -0.8901873 0.8901873 -0.4555947 47.8224754 72.9131088)">
				<stop  offset="0" style="stop-color:#32FF53"/>
				<stop  offset="1" style="stop-color:#29CC42"/>
			</linearGradient>
			<path style="fill:url(#SVGID_4_);" d="M36.7584381,9.6022491c0,0,1.742733-2.8323555,1.0780106-4.6203685
				c0,0,2.563282-0.3729601,3.3624077-2.847569c0,0,2.3904381,1.1238778,3.6869316-0.1343117
				c0,0,1.4860802,1.6806171,4.1024742,1.6560419c0,0-2.3473206,2.1402676-1.6111221,3.5787261
				c0,0-3.2346649,0.5287871-2.8132706,2.9420919c0,0-2.6948929-0.3734112-3.6049232,0.9060688
				C40.9589462,11.0829287,38.4726334,9.0379028,36.7584381,9.6022491z"/>
			<path style="fill:#22AC38;" d="M41.0556641,11.809082l-0.4140625-0.3398438
				c-0.0175781-0.0146484-1.8037109-1.465332-3.2314453-1.465332c-0.1806641,0-0.3476563,0.0244141-0.4951172,0.0732422
				l-1.2958984,0.4262695l0.7138672-1.1630859c0.4482422-0.7314453,1.5087891-2.9086914,1.0351563-4.1845703l-0.2138672-0.5756836
				l0.609375-0.0927734c0.0917969-0.0141602,2.2685547-0.3696289,2.9599609-2.5068359l0.1738281-0.5385742l0.5136719,0.2397461
				c0.0087891,0.0039063,0.9003906,0.4145508,1.8173828,0.4145508c0.5576172,0,0.9980469-0.152832,1.3085938-0.4550781
				l0.3730469-0.3618164l0.3486328,0.3881836c0.0136719,0.0146484,1.3642578,1.4892578,3.6728516,1.4892578h1.2880859
				l-0.8945313,0.8686523c-0.5351563,0.4897461-1.9599609,2.0883789-1.5029297,2.9814453l0.3115234,0.6083984l-0.6748047,0.112793
				c-0.015625,0.0024414-1.5244141,0.2641602-2.1601563,1.1625977c-0.2441406,0.3447266-0.3232422,0.7373047-0.2431641,1.2001953
				l0.1181641,0.6738281l-0.6787109-0.0927734c-0.0136719-0.0019531-0.3476563-0.0458984-0.8056641-0.0458984
				c-0.6689453,0-1.8613281,0.097168-2.3232422,0.746582L41.0556641,11.809082z M37.6396484,9.012207
				c1.2822266,0.0947266,2.6240234,0.9438477,3.2607422,1.3999023c0.8457031-0.7255859,2.2675781-0.8120117,3.1269531-0.7792969
				c0.0214844-0.4824219,0.1748047-0.9257813,0.4580078-1.3242188c0.59375-0.8349609,1.6279297-1.2504883,2.2636719-1.4365234
				c-0.1318359-1.0141602,0.5683594-2.0927734,1.1621094-2.8037109c-1.515625-0.25-2.5537109-0.9770508-3.0556641-1.4077148
				c-0.4472656,0.2895508-0.9921875,0.4355469-1.6269531,0.4355469c-0.6767578,0-1.3203125-0.1704102-1.7431641-0.3139648
				c-0.7519531,1.6689453-2.2402344,2.3266602-3.0410156,2.5673828C38.6416016,6.6162109,38.0771484,8.1000977,37.6396484,9.012207z
				"/>
		</g>
		<path style="fill:#22AC38;" d="M38.1696548,8.2056265c0.2516556-0.1738577,0.5356483-0.3660111,0.8452454-0.5690985
			c0.1613884-0.81567-0.2243233-1.8910761-0.2243233-1.8910761c0.5289764,0.7626791,0.6304855,1.2979183,0.5666351,1.6687989
			c0.5466232-0.3508663,1.1580048-0.7247906,1.8032761-1.0877719c0.4471703-0.8189383,0.4308357-2.2022228,0.4308357-2.2022228
			c0.4662933,0.974153,0.3037758,1.5820332,0.0380135,1.9442968c0.4751968-0.2562695,0.9637604-0.5020056,1.454525-0.72544
			c0.7144051-0.8278003,1.1162682-2.0532625,1.1162682-2.0532625c0.0247841,0.8976257-0.2325745,1.4547431-0.5316162,1.7987392
			c1.0627708-0.4404955,2.1129837-0.7509179,3.0315819-0.79877c0,0-1.0490036,0.3787103-2.5212212,1.0821223
			c0.5991402,0.0440364,1.3779945,0.3356724,2.2331848,1.2613449c0,0-1.6072884-0.8575916-2.708847-1.029273
			c-0.5155373,0.2557359-1.0688705,0.5469074-1.6409645,0.8714743c0.4928932,0.0635238,1.1351547,0.445148,1.8097534,1.6768899
			c0,0-1.2906952-1.2370706-2.2291718-1.4340849c-0.4810944,0.283083-0.9681587,0.5891647-1.4520149,0.9167538
			c0.4117012,0.074544,0.9511185,0.4606199,1.5730858,1.5962477c0,0-1.1250343-1.1729918-2.0030746-1.2976017
			c-0.4020309,0.2853689-0.798336,0.5844946-1.1805344,0.8983116l-0.6706543-0.0380163L38.1696548,8.2056265z"/>
	</g>
	<g>
		<g>
			
				<linearGradient id="SVGID_5_" gradientUnits="userSpaceOnUse" x1="55.218708" y1="30.9212608" x2="55.218708" y2="51.2545967" gradientTransform="matrix(0.929337 -0.3692325 0.3156583 0.7944939 -9.751483 31.3446808)">
				<stop  offset="0" style="stop-color:#32FF53"/>
				<stop  offset="1" style="stop-color:#29CC42"/>
			</linearGradient>
			<path style="fill:url(#SVGID_5_);" d="M51.0255127,35.6422234c0,0,3.2036972,2.6367531,5.3512764,2.0901375
				c0,0,0.2563705,3.2711372,3.10672,4.6684151c0,0-1.4897575,2.8150024-0.1036491,4.6407166
				c0,0-2.0796547,1.5928535-2.2363052,4.8747673c0,0-2.3478088-3.2834396-4.0898209-2.5913277
				c0,0-0.3918228-4.1372261-3.2566986-3.9955559c0,0,0.6297493-3.3165588-0.808773-4.661499
				C48.9882622,40.6678772,51.5669212,37.8802032,51.0255127,35.6422234z"/>
			<path style="fill:#22AC38;" d="M57.5742188,53.3759766l-0.8369141-1.1689453
				c-0.5449219-0.7607422-2.4003906-2.8525391-3.4990234-2.4169922l-0.6181641,0.2451172l-0.0644531-0.6621094
				c-0.0029297-0.0351563-0.3701172-3.5478516-2.6162109-3.5478516l-0.7509766,0.0341797l0.1171875-0.6230469
				c0.1601563-0.8486328,0.3525391-3.2578125-0.6591797-4.203125l-0.3623047-0.3388672l0.3369141-0.3652344
				c0.0234375-0.0263672,2.390625-2.6201172,1.9179688-4.5683594L50.1875,34.3076172l1.1552734,0.9482422
				c0.0253906,0.0214844,2.5185547,2.0507813,4.4042969,2.0507813c0.1816406,0,0.3525391-0.0195313,0.5068359-0.0585938
				l0.5722656-0.1464844L56.875,37.6923828c0.0029297,0.0302734,0.2773438,3.0097656,2.828125,4.2587891l0.4619141,0.2265625
				l-0.2392578,0.4560547c-0.0136719,0.0253906-1.3212891,2.5585938-0.1474609,4.1044922l0.2988281,0.3935547l-0.3916016,0.3046875
				c-0.0771484,0.0605469-1.9003906,1.5117188-2.0429688,4.5029297L57.5742188,53.3759766z M53.5664063,48.7294922
				c1.2138672,0,2.4511719,1.1083984,3.2226563,1.9599609c0.3857422-1.9628906,1.4003906-3.1953125,1.9404297-3.7333984
				c-0.8632813-1.5556641-0.2529297-3.4785156,0.1044922-4.3398438c-2.0439453-1.2226563-2.6845703-3.3320313-2.8769531-4.3154297
				c-1.5097656,0.0917969-3.3330078-0.9238281-4.3769531-1.6308594c-0.1679688,1.6640625-1.3623047,3.2998047-1.9296875,3.9941406
				c0.9082031,1.2324219,0.8271484,3.2167969,0.71875,4.1894531c2.1757813,0.2890625,2.8876953,2.7558594,3.1005859,3.8779297
				C53.5019531,48.7304688,53.5341797,48.7294922,53.5664063,48.7294922z"/>
		</g>
		<path style="fill:#22AC38;" d="M52.5661125,37.6338234c0.1863899,0.3431206,0.391983,0.7296791,0.6086044,1.1500702
			c0.9467545,0.332756,2.2374229,0.0216446,2.2374229,0.0216446c-0.9334564,0.5406532-1.5694199,0.5821571-2.000576,0.4428024
			c0.3734131,0.7410011,0.7693253,1.5668335,1.1499786,2.4333687c0.9303284,0.6913185,2.5564804,0.8922653,2.5564804,0.8922653
			c-1.1774368,0.4282761-1.8800125,0.1273651-2.2867317-0.2635803c0.2673531,0.6363716,0.5213852,1.2878075,0.7490654,1.9384308
			c0.9217873,1.0275536,2.3328896,1.7271805,2.3328896,1.7271805c-1.0562325-0.1126213-1.6924477-0.524231-2.0753479-0.9539528
			c0.4421043,1.4020157,0.7323036,2.7674751,0.723381,3.9260101c0,0-0.3705025-1.3748741-1.0924339-3.3319473
			c-0.0942154,0.7435875-0.4920387,1.6727066-1.6400986,2.5959816c0,0,1.1214142-1.8764458,1.4012032-3.2290649
			c-0.2638664-0.6868324-0.5666809-1.4266891-0.9073982-2.1953964c-0.1095734,0.6073608-0.6034203,1.3509445-2.0982246,1.9989662
			c0,0,1.5447502-1.4190521,1.8427353-2.5633011c-0.2984352-0.648056-0.6234627-1.3072739-0.9739876-1.9659119
			c-0.1167603,0.5038757-0.6085472,1.117897-1.9867096,1.7153664c0,0,1.4577255-1.2217674,1.6663704-2.3018837
			c-0.3067284-0.549366-0.6300201-1.0937576-0.9715691-1.6228294l0.0922127-0.834156L52.5661125,37.6338234z"/>
	</g>
	<g>
		<g>
			
				<linearGradient id="SVGID_6_" gradientUnits="userSpaceOnUse" x1="45.3833199" y1="29.3710785" x2="45.3833199" y2="41.9611511" gradientTransform="matrix(0.6251459 -0.7805079 0.7805079 0.6251459 1.0609732 42.3360863)">
				<stop  offset="0" style="stop-color:#00D642"/>
				<stop  offset="1" style="stop-color:#00A331"/>
			</linearGradient>
			<path style="fill:url(#SVGID_6_);" d="M52.1952438,25.4766178c0,0,3.0538864,0.3966236,4.3117065-0.8436375
				c0,0,1.2881699,2.0233917,3.6816559,1.7588482c0,0-0.0417061,2.4456882,1.5132027,3.0630493
				c0,0-0.855278,1.8932209,0.158802,4.0937405c0,0-2.6988716-1.1700211-3.6343193-0.0021019
				c0,0-1.674675-2.5312901-3.553009-1.2591553c0,0-0.707737-2.4179153-2.1339035-2.7007809
				C52.5393791,29.5865803,53.3227005,26.7101974,52.1952438,25.4766178z"/>
			<path style="fill:#008328;" d="M62.8603516,34.5253906l-1.1982422-0.5175781
				c-0.0117188-0.0048828-1.1220703-0.4794922-2.0791016-0.4794922c-0.4648438,0-0.7900391,0.1113281-0.9658203,0.3310547
				l-0.4277344,0.5332031l-0.3789063-0.5693359c-0.2587891-0.3876953-1.1298828-1.3935547-2.0419922-1.3935547
				c-0.2783203,0-0.5458984,0.0893555-0.8154297,0.2719727l-0.5664063,0.3833008l-0.1933594-0.6567383
				c-0.1748047-0.5917969-0.8300781-2.168457-1.7519531-2.3515625l-0.5244141-0.1040039l0.1396484-0.5170898
				c0.1962891-0.7275391,0.5390625-2.7998047-0.2304688-3.6416016L50.90625,24.8071289l1.3535156,0.1733398
				c0.0039063,0.0009766,0.4443359,0.0566406,1.0410156,0.0566406c1.34375,0,2.3574219-0.2700195,2.8554688-0.7602539
				l0.4365234-0.4311523l0.3349609,0.5170898c0.0439453,0.0678711,1.1728516,1.7587891,3.2060547,1.5317383l0.5625-0.0620117
				l-0.0078125,0.5668945c0,0.0209961-0.0146484,2.109375,1.1982422,2.5908203l0.4863281,0.1933594l-0.2148438,0.4775391
				c-0.0302734,0.0678711-0.7431641,1.7255859,0.15625,3.6787109L62.8603516,34.5253906z M55.7685547,31.4296875
				c1.1396484,0,2.0615234,0.8554688,2.5332031,1.4008789c0.6757813-0.3999023,1.8681641-0.3198242,2.7441406-0.0844727
				c-0.3408203-1.3286133-0.1308594-2.456543,0.0429688-3.050293c-1.0185547-0.6772461-1.296875-2.0288086-1.3730469-2.7807617
				c-1.6669922-0.0166016-2.7763672-0.9926758-3.2949219-1.5805664c-0.9648438,0.6157227-2.3642578,0.7236328-3.3388672,0.7001953
				c0.3876953,1.1137695,0.1933594,2.5058594,0.0458984,3.2280273c0.953125,0.4633789,1.5410156,1.6098633,1.8251953,2.3173828
				C55.2177734,31.4804688,55.4902344,31.4296875,55.7685547,31.4296875z"/>
		</g>
		<path style="fill:#008328;" d="M53.9106255,26.138319c0.2423859,0.1465492,0.5125008,0.3134594,0.8015747,0.4978485
			c0.7501984-0.1733608,1.5120659-0.9074211,1.5120659-0.9074211c-0.4433441,0.7363338-0.8568764,1.0252762-1.1943703,1.112154
			c0.5038757,0.3284779,1.051815,0.7028999,1.6033745,1.1100998c0.8614578,0.0667725,2.0236015-0.4721928,2.0236015-0.4721928
			c-0.6457558,0.7636795-1.2208824,0.8571968-1.6277542,0.7702656c0.3968582,0.3040638,0.7898979,0.6234188,1.1649361,0.9530983
			c0.9703979,0.2891197,2.1580124,0.1632881,2.1580124,0.1632881c-0.7487373,0.361721-1.3169975,0.3558636-1.7210732,0.2338867
			c0.7755356,0.7303982,1.4364433,1.4995728,1.8256073,2.2572689c0,0-0.7181244-0.7422276-1.87117-1.7186317
			c0.1902733,0.5227585,0.2396469,1.2913151-0.217514,2.3650608c0,0,0.1141243-1.6831322-0.1590843-2.6787052
			c-0.4117241-0.3383408-0.8677292-0.6951504-1.3590622-1.0551281c0.1334763,0.440424,0.0549889,1.1277733-0.729248,2.165184
			c0,0,0.5548325-1.5597973,0.3649368-2.4272461c-0.4217453-0.2988682-0.8651848-0.5940475-1.3255653-0.8783455
			c0.0933418,0.37603-0.0279541,0.9782066-0.750988,1.9346752c0,0,0.5636024-1.3955555,0.3354988-2.1844692
			c-0.3936615-0.2312222-0.7967682-0.4523811-1.2069244-0.6560497l-0.2225075-0.5808792L53.9106255,26.138319z"/>
	</g>
	<g>
		<g>
			
				<linearGradient id="SVGID_7_" gradientUnits="userSpaceOnUse" x1="19.7225475" y1="33.2277184" x2="19.7225475" y2="45.817791" gradientTransform="matrix(0.9191682 0.3938652 -0.3938652 0.9191682 43.1029282 9.4295673)">
				<stop  offset="0" style="stop-color:#00D642"/>
				<stop  offset="1" style="stop-color:#00A331"/>
			</linearGradient>
			<path style="fill:url(#SVGID_7_);" d="M47.9068871,47.6378403c0,0,0.4337959,3.0488281,1.9650497,3.9295197
				c0,0-1.6056252,1.7819824-0.7111626,4.0177574c0,0-2.3679085,0.6132965-2.5473557,2.2766304
				c0,0-2.0529137-0.3183174-3.902462,1.2468719c0,0,0.4063416-2.9133759-0.9690666-3.502739
				c0,0,1.991787-2.2901497,0.2640152-3.760273c0,0,2.1408958-1.3280716,2.0324059-2.7779655
				C44.038311,49.0676422,47.019413,49.0539169,47.9068871,47.6378403z"/>
			<path style="fill:#008328;" d="M42.0371094,60.3330078l0.1787109-1.2929688
				c0.0908203-0.6582031,0.1621094-2.6181641-0.6708984-2.9746094l-0.6269531-0.2695313l0.4462891-0.5175781
				c0.0087891-0.0107422,0.9189453-1.0791016,0.8417969-2.0791016c-0.0292969-0.3789063-0.2001953-0.6972656-0.5244141-0.9726563
				l-0.5205078-0.4433594l0.5810547-0.3623047c0.5234375-0.3261719,1.8671875-1.3789063,1.796875-2.3164063L43.5,48.5703125
				l0.5351563-0.0029297c0.7539063-0.0048828,2.8427734-0.2285156,3.4482422-1.1953125l0.7246094-1.15625l0.1943359,1.3515625
				c0.1123047,0.78125,0.6396484,2.9462891,1.71875,3.5664063l0.5322266,0.3066406l-0.4082031,0.4599609
				C50.1875,51.9648438,48.8613281,53.4912109,49.625,55.3994141l0.2109375,0.5253906l-0.5488281,0.1435547
				c-0.0205078,0.0058594-2.0371094,0.5507813-2.1767578,1.8466797l-0.0566406,0.5205078l-0.5166016-0.0800781
				c-0.0595703-0.0078125-1.9023438-0.2207031-3.5029297,1.1347656L42.0371094,60.3330078z M42.4521484,55.4873047
				c0.6640625,0.640625,0.8125,1.7714844,0.8193359,2.6191406c1.1855469-0.6796875,2.296875-0.7802734,2.9462891-0.7714844
				c0.3798828-1.1611328,1.6074219-1.7910156,2.3115234-2.0654297c-0.4316406-1.609375,0.2148438-2.9414063,0.6435547-3.5986328
				c-0.8642578-0.7802734-1.3349609-2.125-1.5664063-3.0292969c-0.9707031,0.6708984-2.3632813,0.8554688-3.0986328,0.90625
				c-0.1923828,1.0419922-1.1386719,1.9150391-1.7451172,2.3779297c0.2597656,0.3544922,0.4072266,0.7568359,0.4414063,1.2011719
				C43.2744141,54.0673828,42.796875,54.9697266,42.4521484,55.4873047z"/>
		</g>
		<path style="fill:#008328;" d="M47.7275963,49.467659c-0.076458,0.2727318-0.165123,0.5776215-0.2655716,0.9054527
			c0.3675117,0.6766014,1.2784538,1.2146301,1.2784538,1.2146301c-0.828022-0.2304764-1.2169533-0.5517693-1.3908539-0.8537788
			c-0.1819,0.5733261-0.3962975,1.2013855-0.6413155,1.8416939c0.1658363,0.8479767,0.9957275,1.8238564,0.9957275,1.8238564
			c-0.9084587-0.4182205-1.1522484-0.9474487-1.1771927-1.3627548c-0.1869698,0.4636765-0.3896942,0.9277534-0.6071739,1.3772469
			c-0.0193214,1.0123711,0.4192657,2.1231804,0.4192657,2.1231804c-0.5486298-0.6248627-0.6948242-1.1740265-0.6852531-1.5960007
			c-0.4966164,0.9424973-1.0612335,1.7848969-1.6873932,2.3623695c0,0,0.5233574-0.8903351,1.1561699-2.2623558
			c-0.4529152,0.3230362-1.1803322,0.5759735-2.3371887,0.4223404c0,0,1.6524239-0.3397598,2.5387993-0.8690491
			c0.2160263-0.4871597,0.4380188-1.0219231,0.6536255-1.5915794c-0.3887444,0.2463036-1.0720749,0.354332-2.2813148-0.1241951
			c0,0,1.6513367,0.1178818,2.4365044-0.2968903c0.175312-0.4862709,0.3412704-0.9924583,0.4922218-1.5120659
			c-0.3374176,0.1904221-0.9501114,0.2344398-2.0649986-0.2067375c0,0,1.4954071,0.1702156,2.1946907-0.2603912
			c0.11763-0.4411278,0.2230377-0.8886719,0.3097076-1.3383369l0.5003052-0.3696289L47.7275963,49.467659z"/>
	</g>
	<g>
		<g>
			
				<linearGradient id="SVGID_8_" gradientUnits="userSpaceOnUse" x1="55.720665" y1="16.977232" x2="55.720665" y2="29.5673065" gradientTransform="matrix(-0.1313349 -0.9913381 -0.9913381 0.1313349 41.116909 64.8168488)">
				<stop  offset="0" style="stop-color:#00D642"/>
				<stop  offset="1" style="stop-color:#00A331"/>
			</linearGradient>
			<path style="fill:url(#SVGID_8_);" d="M17.0025463,12.0642958c0,0-2.8188152-1.2400913-3.25383-2.9521427
				c0,0-2.149025,1.0654507-4.0606632-0.3989248c0,0-1.2292728,2.1147137-2.8793554,1.83885
				c0,0-0.2472253,2.0626841-2.2532868,3.4214926c0,0,2.9149952,0.394557,3.1115193,1.8779564
				c0,0,2.7425156-1.3002262,3.6921091,0.7600489c0,0,1.8563213-1.7033167,3.2232113-1.2077618
				C14.5822506,15.4038143,15.3995752,12.5369091,17.0025463,12.0642958z"/>
			<path style="fill:#008328;" d="M11.1914063,17.4418945l-0.2866211-0.6210938
				c-0.2709961-0.5878906-0.75-0.8740234-1.4643555-0.8740234c-0.7851563,0-1.5517578,0.3530273-1.559082,0.3564453
				L7.2617188,16.597168l-0.090332-0.6796875c-0.1108398-0.8349609-1.8554688-1.3364258-2.6831055-1.4482422l-1.296875-0.1757813
				l1.0834961-0.7338867c1.7963867-1.2167969,2.0351563-3.0483398,2.0371094-3.0668945l0.0625-0.5200195l0.5166016,0.0864258
				c1.0932617,0.1782227,2.0820313-1.1162109,2.3652344-1.5976563l0.2861328-0.4882813l0.449707,0.3432617
				c0.5805664,0.4448242,1.2495117,0.6704102,1.9882813,0.6704102c0.8735352-0.0004883,1.5410156-0.3203125,1.5478516-0.3232422
				l0.5517578-0.2685547l0.152832,0.5942383c0.3066406,1.206543,2.2490234,2.2988281,2.9711914,2.6176758l1.2480469,0.5512695
				l-1.3081055,0.3857422c-1.0986328,0.3242188-1.875,2.2734375-2.0810547,2.9970703l-0.1469727,0.515625l-0.5043945-0.1826172
				c-0.8334961-0.3076172-2.3056641,0.7314453-2.7148438,1.1064453L11.1914063,17.4418945z M9.4404297,14.9467773
				c0.8803711,0,1.5771484,0.3144531,2.0473633,0.9169922c0.6098633-0.4541016,1.7373047-1.1298828,2.7578125-1.0415039
				c0.2470703-0.6938477,0.8012695-1.9858398,1.7094727-2.7382813c-0.809082-0.4682617-1.9775391-1.284668-2.4956055-2.3276367
				c-0.3579102,0.1118164-0.8779297,0.2299805-1.4785156,0.2304688c-0.7841797,0-1.5083008-0.1953125-2.159668-0.5805664
				c-0.4536133,0.6035156-1.390625,1.6142578-2.6123047,1.668457c-0.1582031,0.597168-0.5610352,1.6699219-1.5375977,2.6298828
				c0.8149414,0.234375,1.8637695,0.6826172,2.3012695,1.4951172C8.3452148,15.078125,8.8789063,14.9467773,9.4404297,14.9467773z"
				/>
		</g>
		<path style="fill:#008328;" d="M15.1921873,11.7433767c-0.2832441,0.0000563-0.6007519,0.0031977-0.9435244,0.0114927
			c-0.5523939-0.5363913-0.8247662-1.5586939-0.8247662-1.5586939c-0.0014124,0.8594999,0.203063,1.3206797,0.44697,1.5695944
			c-0.6011381,0.0205126-1.2637501,0.0575562-1.9464149,0.1207781c-0.7718163-0.3884192-1.4876719-1.4507799-1.4876719-1.4507799
			c0.1576767,0.9875956,0.6015301,1.3651009,0.9947147,1.5011444c-0.4969225,0.0549679-0.9984818,0.125-1.489975,0.2131777
			C8.961462,11.8956213,8.0101242,11.173666,8.0101242,11.173666c0.4537182,0.6968451,0.9430933,0.9857473,1.3520117,1.0903521
			c-1.0415211,0.2239866-2.0049925,0.5404491-2.7299595,0.9876375c0,0,0.9985051-0.2638054,2.4903593-0.5030794
			c-0.4332275,0.3489914-0.8730011,0.9812212-1.0371046,2.1366405c0,0,0.7728825-1.4995337,1.5216398-2.2102871
			c0.5273733-0.0766153,1.1021948-0.1461363,1.70889-0.2000942c-0.3420315,0.3078995-0.630372,0.9367647-0.4957561,2.230258
			c0,0,0.3319101-1.6219263,0.9430971-2.2661152c0.5155325-0.0376492,1.0477228-0.0609217,1.588789-0.0661182
			c-0.2743797,0.2735472-0.482029,0.851656-0.3579254,2.0442219c0,0,0.2394533-1.4858952,0.842721-2.043107
			c0.4565077,0.0057192,0.9158936,0.0249348,1.3722696,0.062767l0.4908791-0.3820591L15.1921873,11.7433767z"/>
	</g>
	<g>
		<g>
			
				<linearGradient id="SVGID_9_" gradientUnits="userSpaceOnUse" x1="45.2840614" y1="17.5943127" x2="45.2840614" y2="33.9360046" gradientTransform="matrix(-0.9245681 0.3940823 0.3895386 1.0338306 51.7349167 -19.4131584)">
				<stop  offset="0" style="stop-color:#32FF53"/>
				<stop  offset="1" style="stop-color:#29CC42"/>
			</linearGradient>
			<path style="fill:url(#SVGID_9_);" d="M17.0299911,16.4900608c0,0-0.5890484,4.3494282-2.590045,5.5237617
				c0,0,2.0767488,2.6506557,0.8942547,5.8065529c0,0,3.0786619,1.0182095,3.299161,3.4153824
				c0,0,2.6758537-0.3369408,5.0719585,2.0168781c0,0-0.5060635-4.2040958,1.2896786-4.9695034
				c0,0-2.5755825-3.4023552-0.3140106-5.4109936c0,0-2.77738-2.0305843-2.6246166-4.1046963
				C22.0563717,18.7674427,18.1744499,18.5737705,17.0299911,16.4900608z"/>
			<path style="fill:#22AC38;" d="M24.371582,34.609375l-1.0170898-1c-2.1674805-2.1298828-4.5893555-1.8837891-4.6606445-1.8774414
				l-0.5097656,0.0605469l-0.0488281-0.5107422c-0.1879883-2.0478516-2.9306641-2.9775391-2.9580078-2.9868164l-0.4941406-0.1630859
				l0.1826172-0.4868164c1.0717773-2.8598633-0.800293-5.2988281-0.8193359-5.3232422l-0.3525391-0.449707l0.4931641-0.2895508
				c1.4692383-0.8623047,2.1923828-4.0166016,2.347168-5.1591797l0.2036133-1.5029297l0.7299805,1.3291016
				c0.8291016,1.5083008,3.6113281,1.96875,4.6132813,2.0185547l0.5112305,0.0258789l-0.0375977,0.5102539
				c-0.1079102,1.4697266,1.7119141,3.1435547,2.421875,3.6645508l0.4990234,0.3657227l-0.4624023,0.4116211
				c-1.894043,1.6821289,0.3574219,4.7050781,0.3803711,4.7353516l0.3867188,0.5107422l-0.5893555,0.2509766
				c-1.184082,0.5043945-1.1088867,3.4560547-0.9892578,4.4501953L24.371582,34.609375z M19.0546875,30.7192383
				c0.753418,0.0083008,2.4052734,0.184082,4.0795898,1.3964844c-0.0166016-1.2456055,0.1459961-3.1020508,1.15625-3.9741211
				c-0.8393555-1.3276367-1.6503906-3.5849609-0.3447266-5.2197266c-0.7529297-0.6459961-2.2148438-2.0908203-2.3803711-3.6958008
				c-0.9165039-0.1040039-2.9614258-0.456543-4.2416992-1.5927734c-0.2929688,1.2973633-0.9423828,3.4311523-2.1982422,4.5019531
				c0.5336914,0.8676758,1.5410156,2.9453125,0.831543,5.3945313C16.8251953,27.9125977,18.6293945,28.909668,19.0546875,30.7192383
				z"/>
		</g>
		<path style="fill:#22AC38;" d="M17.2489719,19.1261215c0.0973988,0.3957996,0.2104473,0.8384609,0.3386517,1.314724
			c-0.4839363,0.9494038-1.6744394,1.6682529-1.6744394,1.6682529c1.0800886-0.2823849,1.5891047-0.7207088,1.8179502-1.1439075
			c0.2323303,0.8332729,0.5065498,1.7469845,0.8205414,2.6800575c-0.2226734,1.2070808-1.3111019,2.5589275-1.3111019,2.5589275
			c1.1863194-0.5470848,1.5079803-1.2922421,1.5437546-1.8867073c0.2397995,0.676239,0.5001106,1.3539734,0.7797585,2.0116367
			c0.0171356,1.4537716-0.5627975,3.0220718-0.5627975,3.0220718c0.7193871-0.8645954,0.9141121-1.6440525,0.9049892-2.2501049
			c0.6392365,1.3813705,1.3678112,2.6230736,2.1786327,3.4882278c0,0-0.6744709-1.3080826-1.4876556-3.3137112
			c0.5872307,0.4899521,1.5324802,0.8953438,3.0401707,0.7424088c0,0-2.1491184-0.5839539-3.2991734-1.3951569
			c-0.2774525-0.7116299-0.5622978-1.4919128-0.8385487-2.321888c0.5042763,0.3761063,1.3932629,0.5709896,2.9717407-0.0450726
			c0,0-2.1513252,0.0727768-3.1704979-0.5681992c-0.2244377-0.7079754-0.4365444-1.4439869-0.628994-2.1983795
			c0.4378815,0.2929306,1.2353859,0.3918476,2.6907024-0.1761341c0,0-1.9486885,0.1569748-2.8558884-0.5017109
			c-0.149683-0.6398392-0.2834034-1.288166-0.392704-1.938446l-0.6485748-0.559576L17.2489719,19.1261215z"/>
	</g>
	<g>
		<g>
			
				<linearGradient id="SVGID_10_" gradientUnits="userSpaceOnUse" x1="61.6778412" y1="18.9950256" x2="61.6778412" y2="32.5909195" gradientTransform="matrix(0.4555947 -0.8901873 -0.8901873 -0.4555947 16.3441906 72.9131088)">
				<stop  offset="0" style="stop-color:#32FF53"/>
				<stop  offset="1" style="stop-color:#29CC42"/>
			</linearGradient>
			<path style="fill:url(#SVGID_10_);" d="M27.4082279,9.6022491c0,0-1.7427311-2.8323555-1.0780106-4.6203685
				c0,0-2.563282-0.3729601-3.3624058-2.847569c0,0-2.3904381,1.1238778-3.6869316-0.1343117
				c0,0-1.4860802,1.6806171-4.1024733,1.6560419c0,0,2.3473177,2.1402676,1.6111212,3.5787261
				c0,0,3.234663,0.5287871,2.8132706,2.9420919c0,0,2.6948929-0.3734112,3.6049232,0.9060688
				C23.2077217,11.0829287,25.6940327,9.0379028,27.4082279,9.6022491z"/>
			<path style="fill:#22AC38;" d="M23.1108398,11.809082l-0.3110352-0.4365234
				c-0.4614258-0.6494141-1.6533203-0.746582-2.3227539-0.746582c-0.4584961,0-0.7915039,0.0439453-0.8056641,0.0458984
				l-0.6782227,0.0927734l0.1171875-0.6738281c0.0810547-0.4628906,0.0019531-0.8554688-0.2421875-1.2001953
				c-0.6362305-0.8984375-2.1450195-1.1601563-2.1601563-1.1625977l-0.6738281-0.112793l0.3100586-0.6083984
				c0.4589844-0.8964844-0.9667969-2.4926758-1.5029297-2.980957L13.8740234,3.144043l1.309082,0.012207
				c2.3608398,0,3.7109375-1.4741211,3.7241211-1.4887695l0.3476563-0.3867188l0.3740234,0.3603516
				c0.3110352,0.3022461,0.7514648,0.4550781,1.309082,0.4550781c0.9248047,0,1.8081055-0.4101563,1.8168945-0.4145508
				l0.5141602-0.2416992l0.1743164,0.5405273c0.6904297,2.137207,2.8681641,2.4926758,2.9604492,2.5068359l0.6074219,0.0927734
				L26.7988281,5.15625c-0.4755859,1.2792969,0.5859375,3.4536133,1.0351563,4.1835938l0.7163086,1.1645508l-1.2983398-0.4272461
				c-0.1479492-0.0488281-0.3144531-0.0732422-0.4951172-0.0732422c-1.4277344,0-3.2143555,1.4506836-3.2319336,1.465332
				L23.1108398,11.809082z M20.4770508,9.6259766c0.8964844,0,2.0444336,0.1469727,2.7885742,0.7861328
				c0.6367188-0.456543,1.9785156-1.3051758,3.2612305-1.3999023c-0.4370117-0.9121094-1.0019531-2.3959961-0.8046875-3.6625977
				c-0.8007813-0.2407227-2.2885742-0.8984375-3.0400391-2.5678711c-0.4233398,0.144043-1.0673828,0.3144531-1.7441406,0.3144531
				c-0.6342773,0-1.1791992-0.1459961-1.6259766-0.4350586c-0.503418,0.434082-1.5449219,1.168457-3.0512695,1.4130859
				c0.5917969,0.7109375,1.2880859,1.7861328,1.1567383,2.7978516c0.6357422,0.1860352,1.6704102,0.6015625,2.2641602,1.4370117
				c0.2827148,0.3979492,0.4360352,0.8413086,0.4570313,1.3237305C20.2421875,9.6289063,20.355957,9.6259766,20.4770508,9.6259766z"
				/>
		</g>
		<path style="fill:#22AC38;" d="M25.9970131,8.2056265c-0.2516575-0.1738577-0.5356483-0.3660111-0.8452473-0.5690985
			c-0.1613903-0.81567,0.2243214-1.8910761,0.2243214-1.8910761c-0.5289726,0.7626791-0.6304817,1.2979183-0.5666332,1.6687989
			c-0.5466213-0.3508663-1.1580048-0.7247906-1.8032761-1.0877719c-0.4471703-0.8189383-0.4308357-2.2022228-0.4308357-2.2022228
			c-0.4662933,0.974153-0.3037739,1.5820332-0.0380116,1.9442968c-0.4751968-0.2562695-0.9637604-0.5020056-1.454525-0.72544
			c-0.7144051-0.8278003-1.1162701-2.0532625-1.1162701-2.0532625c-0.0247841,0.8976257,0.2325764,1.4547431,0.5316181,1.7987392
			c-1.0627728-0.4404955-2.1129856-0.7509179-3.0315857-0.79877c0,0,1.0490074,0.3787103,2.5212231,1.0821223
			c-0.5991383,0.0440364-1.3779945,0.3356724-2.2331848,1.2613449c0,0,1.6072884-0.8575916,2.7088451-1.029273
			c0.5155392,0.2557359,1.0688725,0.5469074,1.6409683,0.8714743c-0.4928932,0.0635238-1.1351566,0.445148-1.8097534,1.6768899
			c0,0,1.2906933-1.2370706,2.2291698-1.4340849c0.4810944,0.283083,0.9681606,0.5891647,1.4520149,0.9167538
			c-0.4117012,0.074544-0.9511204,0.4606199-1.5730858,1.5962477c0,0,1.1250362-1.1729918,2.0030746-1.2976017
			c0.4020329,0.2853689,0.798336,0.5844946,1.1805344,0.8983116l0.6706562-0.0380163L25.9970131,8.2056265z"/>
	</g>
	<g>
		<g>
			
				<linearGradient id="SVGID_11_" gradientUnits="userSpaceOnUse" x1="55.8988419" y1="29.0249805" x2="55.8988419" y2="51.4670181" gradientTransform="matrix(-0.94175 -0.3918028 -0.3095084 0.8169684 74.4836731 31.9257526)">
				<stop  offset="0" style="stop-color:#32FF53"/>
				<stop  offset="1" style="stop-color:#29CC42"/>
			</linearGradient>
			<path style="fill:url(#SVGID_11_);" d="M13.1933775,33.8766785c0,0-3.5345459,2.9657097-5.9326868,2.3159332
				c0,0-0.2447906,3.7254791-3.4012961,5.2827454c0,0,1.6938686,3.2272644,0.1731324,5.2911034
				c0,0,2.3355222,1.8415108,2.5507731,5.5844116c0,0,2.5734639-3.7134933,4.5218129-2.9029083
				c0,0,0.3848438-4.7110252,3.5766659-4.5139084c0,0-0.7424774-3.7882805,0.8426018-5.3034439
				C15.5243807,39.6306114,12.6183491,36.4209518,13.1933775,33.8766785z"/>
			<path style="fill:#22AC38;" d="M6.1674805,53.8261719l-0.0830078-1.4472656
				c-0.2001953-3.4765625-2.3398438-5.203125-2.3613281-5.2197266L3.3432617,46.859375l0.2866211-0.3896484
				c1.3149414-1.7841797-0.1982422-4.7324219-0.2133789-4.7626953l-0.2368164-0.453125l0.4584961-0.2265625
				c2.8647461-1.4140625,3.121582-4.8330078,3.1235352-4.8681641l0.0400391-0.609375l0.5898438,0.1601563
				c0.1855469,0.0498047,0.3901367,0.0751953,0.6088867,0.0751953c2.1108398,0,4.8442383-2.2685547,4.871582-2.2910156
				l1.1352539-0.9511719l-0.3261719,1.4443359c-0.512207,2.2646484,2.1865234,5.2773438,2.2138672,5.3076172l0.3266602,0.3613281
				l-0.3520508,0.3359375c-1.1342773,1.0849609-0.8881836,3.8652344-0.6972656,4.8457031l0.1235352,0.6337891l-0.8061523-0.0439453
				c-2.5170898,0-2.8833008,4.0214844-2.8862305,4.0615234l-0.0576172,0.6835938l-0.6328125-0.2626953
				c-1.2592773-0.5273438-3.3173828,1.8583984-3.9189453,2.7255859L6.1674805,53.8261719z M4.6801758,46.6816406
				c0.5976563,0.5966797,1.8120117,2.0556641,2.2539063,4.4130859c0.8652344-0.9980469,2.347168-2.3535156,3.7480469-2.2558594
				c0.2114258-1.2480469,0.9614258-4.1162109,3.4194336-4.3896484c-0.1352539-1.0859375-0.2753906-3.4257813,0.7631836-4.8232422
				c-0.6298828-0.7763672-2.0703125-2.7451172-2.2314453-4.7021484c-1.1435547,0.7958984-3.222168,1.9990234-4.9448242,1.8486328
				c-0.1904297,1.0927734-0.8652344,3.5429688-3.1787109,4.9189453C4.9125977,42.640625,5.6689453,44.8994141,4.6801758,46.6816406z
				"/>
		</g>
		<path style="fill:#22AC38;" d="M11.5026817,36.1276855c-0.2032814,0.3887939-0.4274025,0.8268623-0.6633835,1.30336
			c-1.0500784,0.3675232-2.4911165-0.0031548-2.4911165-0.0031548c1.046133,0.6278839,1.7547979,0.6831055,2.2331638,0.5296173
			c-0.4065847,0.840004-0.837163,1.7764206-1.2502451,2.7594223c-1.0273304,0.7764435-2.8355632,0.9852715-2.8355632,0.9852715
			c1.3164101,0.5028267,2.0949903,0.16856,2.5430131-0.272007C8.748764,42.1522522,8.474,42.8916473,8.2285709,43.6304398
			c-1.0136404,1.1598091-2.5762086,1.939743-2.5762086,1.939743c1.1747198-0.1152382,1.8780332-0.5765076,2.2990508-1.0615692
			c-0.474853,1.5926132-0.7810059,3.1454506-0.7566624,4.4661446c0,0,0.3954573-1.5625725,1.1749935-3.7844009
			c0.1141567,0.8487663,0.5686893,1.9127884,1.8585463,2.9794807c0,0-1.2720385-2.1528511-1.6004086-3.698143
			c0.2852755-0.7796173,0.6132603-1.6191902,0.9830875-2.4911766c0.1295643,0.6936722,0.6887169,1.5474014,2.3612528,2.304657
			c0,0-1.7377396-1.6367493-2.0837793-2.9447479c0.3242493-0.7349892,0.6779718-1.4823723,1.0600891-2.2287712
			c0.136282,0.5758018,0.6915264,1.2818222,2.2335539,1.9799995c0,0-1.6383867-1.4107819-1.8841467-2.6445694
			c0.3347092-0.6223946,0.6879282-1.2389069,1.0616665-1.8377342l-0.1130543-0.951973L11.5026817,36.1276855z"/>
	</g>
	<g>
		<g>
			
				<linearGradient id="SVGID_12_" gradientUnits="userSpaceOnUse" x1="46.2866554" y1="28.7256203" x2="46.2866554" y2="41.3156929" gradientTransform="matrix(-0.5813687 -0.8136402 -0.8136402 0.5813687 62.3025818 45.4059868)">
				<stop  offset="0" style="stop-color:#00D642"/>
				<stop  offset="1" style="stop-color:#00A331"/>
			</linearGradient>
			<path style="fill:url(#SVGID_12_);" d="M12.170639,24.6553936c0,0-3.0710526,0.2284241-4.2589107-1.0789967
				c0,0-1.3972731,1.949646-3.7726326,1.5541439c0,0-0.0925808,2.4442902-1.6790254,2.9753876
				c0,0,0.7500885,1.9373055-0.3832321,4.0788517c0,0,2.7590187-1.0201397,3.6289566,0.197361
				c0,0,1.8110723-2.4355698,3.6167579-1.0622654c0,0,0.8393698-2.3754311,2.2789106-2.5796013
				C11.6014633,28.7402744,10.9771805,25.8252373,12.170639,24.6553936z"/>
			<path style="fill:#008328;" d="M5.6962891,33.2275391l-0.3974609-0.5546875
				c-0.184082-0.2578125-0.5600586-0.3881836-1.1176758-0.3881836c-0.9169922,0-1.9213867,0.3652344-1.9316406,0.3691406
				l-1.2250977,0.4506836l0.6103516-1.1538086c1.0146484-1.9174805,0.3657227-3.6469727,0.3588867-3.6640625l-0.1889648-0.4882813
				l0.496582-0.1665039c1.2241211-0.4101563,1.3374023-2.4995117,1.3383789-2.5205078l0.0214844-0.5673828l0.5600586,0.0932617
				c2.0546875,0.3413086,3.2729492-1.3369141,3.2841797-1.3520508l0.3603516-0.503418l0.4160156,0.4580078
				c0.7631836,0.840332,2.6015625,0.9306641,3.3569336,0.9306641c0.2958984,0,0.4858398-0.0131836,0.4951172-0.0136719
				l1.3603516-0.0996094l-0.9736328,0.9550781c-0.8149414,0.7988281-0.5864258,2.8867188-0.4301758,3.6235352l0.1113281,0.5239258
				l-0.5297852,0.0756836c-0.9301758,0.1318359-1.6860352,1.7089844-1.8774414,2.2509766L9.565918,32.1328125l-0.5458984-0.4150391
				c-0.28125-0.2138672-0.5654297-0.3178711-0.8701172-0.3178711c-0.8881836,0-1.7763672,0.925293-2.0439453,1.2817383
				L5.6962891,33.2275391z M4.1811523,31.284668c0.6147461,0,1.112793,0.1269531,1.4887695,0.378418
				c0.4824219-0.4995117,1.3974609-1.2631836,2.4799805-1.2631836c0.3222656,0,0.6337891,0.0664063,0.9321289,0.1982422
				c0.3227539-0.690918,0.9726563-1.8032227,1.9492188-2.2138672c-0.1074219-0.7290039-0.2250977-2.1293945,0.2236328-3.2202148
				c-0.9775391-0.0336914-2.362793-0.2124023-3.2958984-0.8828125c-0.5498047,0.5581055-1.7148438,1.4794922-3.3769531,1.3979492
				c-0.1166992,0.746582-0.4692383,2.0805664-1.5229492,2.7006836c0.140625,0.6025391,0.2885742,1.7407227-0.1245117,3.0478516
				C3.309082,31.3486328,3.7475586,31.284668,4.1811523,31.284668z"/>
		</g>
		<path style="fill:#008328;" d="M10.421526,25.2219543c-0.2500629,0.1330261-0.5289307,0.2848606-0.8276863,0.4531078
			c-0.7395554-0.2142715-1.4599886-0.9890385-1.4599886-0.9890385c0.4022646,0.7595558,0.7993174,1.0707569,1.1315327,1.1760273
			c-0.521142,0.3003292-1.0888023,0.6441174-1.6618786,1.0204315c-0.8638244,0.0193939-1.994637-0.5825386-1.994637-0.5825386
			c0.6028705,0.7979679,1.171998,0.9229088,1.5830269,0.8584385c-0.4129491,0.281826-0.8229213,0.5791283-1.215486,0.8877277
			c-0.9848056,0.2354279-2.1637242,0.0446091-2.1637242,0.0446091c0.7277591,0.4022675,1.2954824,0.4276047,1.7056448,0.3279877
			c-0.8144517,0.6867352-1.5165744,1.4184799-1.9467382,2.153677c0,0,0.7577767-0.7016983,1.9626713-1.6133518
			c-0.2186747,0.5115299-0.3101549,1.2762184,0.0873885,2.3734341c0,0-0.0215778-1.6868572,0.3058553-2.6659355
			c0.4296732-0.3152351,0.904572-0.6464825,1.4149199-0.9789505c-0.1574454,0.4324322-0.1167984,1.1230545,0.6093206,2.2019424
			c0,0-0.4683928-1.5878983-0.2311773-2.4436188c0.4375134-0.2752705,0.8964834-0.5456676,1.3717756-0.8042736
			c-0.1138391,0.3703423-0.0257759,0.9782677,0.6436787,1.9729767c0,0-0.4861631-1.4243832-0.215107-2.1995907
			c0.405757-0.2092686,0.8203917-0.4079704,1.2411089-0.5888233L11.016078,25.2584L10.421526,25.2219543z"/>
	</g>
	<g>
		<g>
			
				<linearGradient id="SVGID_13_" gradientUnits="userSpaceOnUse" x1="17.557703" y1="32.0257645" x2="17.557703" y2="46.7055473" gradientTransform="matrix(-0.9191682 0.3938652 0.3938652 0.9191682 21.0637379 9.4295673)">
				<stop  offset="0" style="stop-color:#00D642"/>
				<stop  offset="1" style="stop-color:#00A331"/>
			</linearGradient>
			<path style="fill:url(#SVGID_13_);" d="M17.8155899,45.6635208c0,0-0.5057964,3.5548782-2.2912092,4.5817451
				c0,0,1.8721285,2.077755,0.8292017,4.6846275c0,0,2.7609367,0.7150917,2.9701672,2.6545029
				c0,0,2.3936596-0.3711472,4.5501957,1.4538307c0,0-0.4737873-3.3969383,1.1299114-4.0841255
				c0,0-2.3223839-2.670269-0.3078346-4.3844032c0,0-2.4962444-1.5485077-2.3697472-3.2390556
				C22.3262749,47.3306427,18.8503666,47.3146362,17.8155899,45.6635208z"/>
			<path style="fill:#008328;" d="M24.5478516,60.2626953l-0.9970703-0.8427734
				c-1.9033203-1.6113281-4.0854492-1.3505859-4.1523438-1.3417969l-0.5141602,0.0761719l-0.0576172-0.5166016
				c-0.1689453-1.5693359-2.574707-2.2177734-2.5991211-2.2246094l-0.5478516-0.1435547l0.2094727-0.5253906
				c0.9106445-2.2753906-0.6694336-4.0898438-0.7373047-4.1650391l-0.4086914-0.4599609l0.5322266-0.3076172
				c1.2910156-0.7421875,1.9140625-3.296875,2.0449219-4.21875l0.1928711-1.3535156l0.7260742,1.1582031
				c0.7290039,1.1630859,3.1992188,1.4296875,4.0893555,1.4335938l0.5361328,0.0029297l-0.0400391,0.5341797
				c-0.0849609,1.1386719,1.512207,2.390625,2.1347656,2.7763672l0.5825195,0.3613281l-0.5219727,0.4443359
				c-0.3955078,0.3359375-0.6049805,0.7265625-0.640625,1.1923828c-0.0917969,1.2021484,0.9912109,2.4716797,1.0024414,2.484375
				l0.4467773,0.5166016l-0.6274414,0.2705078c-1.019043,0.4365234-0.9399414,2.7714844-0.8320313,3.5556641L24.5478516,60.2626953z
				 M19.8603516,57.0527344c0.7485352,0,2.0786133,0.140625,3.4428711,0.9619141
				c-0.0092773-1.0068359,0.1430664-2.4345703,0.980957-3.1865234c-0.3969727-0.5820313-0.9853516-1.6474609-0.9018555-2.7578125
				c0.0395508-0.5302734,0.2231445-1.0068359,0.546875-1.4228516c-0.7045898-0.5273438-1.8857422-1.5810547-2.0800781-2.8369141
				c-0.8383789-0.0576172-2.5878906-0.2773438-3.7319336-1.1191406c-0.2607422,1.0605469-0.8198242,2.7392578-1.8862305,3.6601563
				c0.4960938,0.7392578,1.3076172,2.3300781,0.7587891,4.2607422c0.8051758,0.3027344,2.3134766,1.0410156,2.7348633,2.4423828
				C19.7675781,57.0537109,19.8125,57.0527344,19.8603516,57.0527344z"/>
		</g>
		<path style="fill:#008328;" d="M18.0246429,47.7970543c0.0891438,0.3180008,0.1925297,0.6734962,0.3096466,1.0557404
			c-0.4285107,0.7889061-1.4906502,1.4162331-1.4906502,1.4162331c0.9654579-0.2687302,1.4189453-0.6433525,1.621706-0.9954872
			c0.2120934,0.6684875,0.46208,1.4007912,0.7477646,2.1473808c-0.1933613,0.9887238-1.1610012,2.1265793-1.1610012,2.1265793
			c1.0592442-0.4876366,1.3435001-1.1047058,1.3725853-1.5889473c0.2180023,0.540638,0.4543743,1.0817451,0.7079544,1.6058426
			c0.0225239,1.1804047-0.4888592,2.4755898-0.4888592,2.4755898c0.6396942-0.7285767,0.8101521-1.3688927,0.7989922-1.8609085
			c0.5790482,1.098938,1.2373772,2.0811577,1.9674702,2.7544823c0,0-0.6102257-1.0381165-1.3480701-2.6378632
			c0.5280876,0.3766518,1.3762417,0.6715736,2.7251167,0.4924355c0,0-1.9266987-0.3961525-2.9601936-1.0132942
			c-0.2518826-0.5680161-0.5107231-1.1915398-0.7621136-1.8557472c0.4532681,0.2871857,1.2500191,0.4131432,2.6599693-0.1448097
			c0,0-1.9254265,0.1374474-2.8409195-0.3461685c-0.2044086-0.5669823-0.3979149-1.1571846-0.5739174-1.7630424
			c0.3934212,0.2220345,1.1078072,0.2733574,2.4077454-0.2410507c0,0-1.743618,0.1984711-2.5589657-0.3036079
			c-0.1371517-0.5143509-0.2600574-1.0361748-0.3611126-1.5604744l-0.5833473-0.4309807L18.0246429,47.7970543z"/>
	</g>
	<g>
		<g>
			
				<linearGradient id="SVGID_14_" gradientUnits="userSpaceOnUse" x1="36.1524086" y1="44.8013535" x2="36.1524086" y2="58.5720177" gradientTransform="matrix(0.6743636 -0.7383994 0.7383994 0.6743636 -27.8754635 46.4203415)">
				<stop  offset="0" style="stop-color:#32FF53"/>
				<stop  offset="1" style="stop-color:#29CC42"/>
			</linearGradient>
			<path style="fill:url(#SVGID_14_);" d="M29.3954048,50.1461945c0,0,3.3051643,0.6491508,4.7658691-0.6155014
				c0,0,1.2627296,2.2997017,3.8938942,2.180439c0,0-0.2186966,2.6664581,1.4347343,3.4503975
				c0,0-1.0675774,2.0058441-0.1165466,4.4794655c0,0-2.8629112-1.4681587-3.9666252-0.2596359
				c0,0-1.648632-2.8814278-3.788866-1.625927c0,0-0.6012707-2.6892128-2.137867-3.0989418
				C29.4799976,54.6564903,30.5386486,51.5724525,29.3954048,50.1461945z"/>
			<path style="fill:#22AC38;" d="M40.3085938,60.6796875l-1.1630859-0.59375
				c-0.0136719-0.0068359-1.3466797-0.6816406-2.4384766-0.6816406c-0.4277344,0-0.7412109,0.1054688-0.9316406,0.3144531
				l-0.4609375,0.5048828l-0.3417969-0.5927734c-0.0097656-0.0166016-0.9912109-1.6923828-2.2602539-1.6923828
				c-0.2817383,0-0.5571289,0.0820313-0.8417969,0.2490234l-0.5898438,0.3457031l-0.1508789-0.6679688
				c-0.1503906-0.6660156-0.7631836-2.4550781-1.7788086-2.7255859l-0.5170898-0.1386719l0.1728516-0.5068359
				c0.269043-0.7861328,0.7924805-3.0449219-0.0014648-4.0351563l-0.8535156-1.0644531l1.3393555,0.2617188
				c0.0083008,0.0009766,0.8168945,0.15625,1.777832,0.15625c1.1787109,0,2.065918-0.2285156,2.5649414-0.6601563L34.2988281,48.75
				l0.2998047,0.5380859c0.0439453,0.0791016,1.0996094,1.9277344,3.2597656,1.9277344l0.7392578-0.0302734l-0.0449219,0.5654297
				c-0.0019531,0.0234375-0.1669922,2.3339844,1.1513672,2.9580078l0.4707031,0.2226563l-0.2421875,0.4628906
				c-0.0097656,0.0185547-0.9453125,1.8505859-0.0927734,4.0664063L40.3085938,60.6796875z M36.7070313,58.4042969
				c0.65625,0,1.3505859,0.1835938,1.8945313,0.3730469c-0.3076172-1.5253906,0.0234375-2.7822266,0.2578125-3.4140625
				c-1.0908203-0.8076172-1.2880859-2.3427734-1.3115234-3.1582031c-1.8544922-0.1201172-3.0068359-1.3017578-3.5175781-1.9746094
				C33.3515625,50.6171875,32.4257813,50.8125,31.269043,50.8125c-0.3706055,0-0.7172852-0.0205078-1.0136719-0.046875
				c0.3696289,1.2607422,0.0400391,2.8369141-0.1669922,3.6005859c1.034668,0.5654297,1.6005859,1.9052734,1.8549805,2.6962891
				c0.253418-0.0820313,0.5102539-0.1240234,0.769043-0.1240234c1.3266602,0,2.331543,1.0820313,2.8139648,1.7275391
				C35.8525391,58.4921875,36.2480469,58.4042969,36.7070313,58.4042969z"/>
		</g>
		<path style="fill:#22AC38;" d="M31.2208519,50.9898911c0.2541809,0.1771164,0.5371857,0.3784256,0.8396454,0.6001511
			c0.8311005-0.1361008,1.7146416-0.8833618,1.7146416-0.8833618c-0.5360413,0.7722969-1.0078621,1.0583878-1.3823776,1.1293182
			c0.5267067,0.3942032,1.0982552,0.8416786,1.6714363,1.3251801c0.9355354,0.1338806,2.2421494-0.372097,2.2421494-0.372097
			c-0.7589035,0.7878151-1.393261,0.8491592-1.8311958,0.7254677c0.4116325,0.3599815,0.8180122,0.7363777,1.20401,1.1227722
			c1.0387001,0.3842812,2.3438606,0.3310318,2.3438606,0.3310318c-0.8428421,0.3417931-1.4626694,0.2951622-1.8950729,0.1334152
			c0.7947578,0.8521271,1.4616585,1.7384605,1.8327713,2.593029c0,0-0.7312584-0.8609772-1.9206429-2.0083466
			c0.1706619,0.584053,0.1701317,1.4264107-0.4048805,2.5660057c0,0,0.2437439-1.8290138,0.0160408-2.9350052
			c-0.4254303-0.3984451-0.8978844-0.8201866-1.4086723-1.2478828c0.114502,0.4901619-0.0198364,1.2348328-0.9492722,2.3116112
			c0,0,0.7160378-1.6631966,0.5701942-2.6234436c-0.4391632-0.3560715-0.9022636-0.7096519-1.3846321-1.0525589
			c0.0752563,0.4170418-0.0997734,1.065712-0.9566784,2.0584793c0,0,0.7139759-1.4833069,0.5208683-2.3605423
			c-0.4132977-0.2802467-0.8376179-0.5501823-1.270874-0.8015251l-0.2017307-0.6497726L31.2208519,50.9898911z"/>
	</g>
</g>
<g>
	<g>
		<g>
			
				<radialGradient id="SVGID_15_" cx="33.3537369" cy="59.1086197" r="3.9583333" gradientTransform="matrix(-0.9991758 -0.0405914 0.0405914 -0.9991758 64.2806854 119.5223999)" gradientUnits="userSpaceOnUse">
				<stop  offset="0" style="stop-color:#E83828"/>
				<stop  offset="1" style="stop-color:#C30D23"/>
			</radialGradient>
			<circle style="fill:url(#SVGID_15_);" cx="33.3537369" cy="59.1086235" r="3.9583333"/>
			<path style="fill:#A60B1E;" d="M33.3574219,63.5664063l-0.1845703-0.0029297
				c-2.4560547-0.1005859-4.3735352-2.1796875-4.2739258-4.6357422c0.0976563-2.3984375,2.0532227-4.2773438,4.4516602-4.2773438
				l0.1845703,0.0029297c2.4560547,0.1005859,4.3730469,2.1796875,4.2734375,4.6367188
				C37.7109375,61.6884766,35.7558594,63.5664063,33.3574219,63.5664063z M33.3505859,55.6503906
				c-1.8603516,0-3.3769531,1.4570313-3.4526367,3.3183594c-0.0771484,1.9042969,1.4101563,3.5175781,3.315918,3.5947266
				l0.1435547,0.0029297c1.859375,0,3.3759766-1.4570313,3.4511719-3.3173828
				c0.078125-1.9052734-1.4091797-3.5185547-3.3144531-3.5957031L33.3505859,55.6503906z"/>
		</g>
		
			<linearGradient id="SVGID_16_" gradientUnits="userSpaceOnUse" x1="32.2841301" y1="56.4920921" x2="32.2841301" y2="58.733551" gradientTransform="matrix(-0.9991758 -0.0405914 0.0405914 -0.9991758 64.2806854 119.5223999)">
			<stop  offset="0" style="stop-color:#FFFFFF;stop-opacity:0.8"/>
			<stop  offset="1" style="stop-color:#FFFFFF;stop-opacity:0.1"/>
		</linearGradient>
		<circle style="fill:url(#SVGID_16_);" cx="34.3617477" cy="60.6466064" r="1.1207302"/>
	</g>
	<g>
		<g>
			
				<radialGradient id="SVGID_17_" cx="48.9882622" cy="32.3821411" r="3.0231731" gradientTransform="matrix(0.5395749 -0.8419377 0.8419377 0.5395749 -4.7083158 56.1546135)" gradientUnits="userSpaceOnUse">
				<stop  offset="0" style="stop-color:#E83828"/>
				<stop  offset="1" style="stop-color:#C30D23"/>
			</radialGradient>
			<circle style="fill:url(#SVGID_17_);" cx="48.9882622" cy="32.3821411" r="3.0231731"/>
			<path style="fill:#A60B1E;" d="M48.9853516,35.9052734c-0.6728516,0-1.3291016-0.1923828-1.8974609-0.5566406
				c-0.7929688-0.5078125-1.3398438-1.2939453-1.5410156-2.2128906c-0.2011719-0.9194336-0.0322266-1.8623047,0.4755859-2.6547852
				c0.6503906-1.015625,1.7607422-1.6220703,2.96875-1.6220703c0.6728516,0,1.3291016,0.1923828,1.8974609,0.5571289
				c0.7929688,0.5078125,1.3398438,1.293457,1.5410156,2.2128906s0.0322266,1.8623047-0.4755859,2.6542969
				C51.3037109,35.2988281,50.1933594,35.9052734,48.9853516,35.9052734z M48.9912109,29.8588867
				c-0.8662109,0-1.6611328,0.434082-2.1269531,1.1616211c-0.3642578,0.5678711-0.484375,1.2426758-0.3408203,1.9008789
				c0.1445313,0.6586914,0.5361328,1.2211914,1.1035156,1.5854492c1.1386719,0.7285156,2.7597656,0.3691406,3.4853516-0.7626953
				c0.3642578-0.5683594,0.484375-1.2431641,0.3408203-1.9013672c-0.1445313-0.6582031-0.5361328-1.2211914-1.1035156-1.5849609
				C49.9423828,29.996582,49.4726563,29.8588867,48.9912109,29.8588867z"/>
		</g>
		
			<linearGradient id="SVGID_18_" gradientUnits="userSpaceOnUse" x1="48.1713486" y1="30.38377" x2="48.1713486" y2="32.0956841" gradientTransform="matrix(0.5395749 -0.8419377 0.8419377 0.5395749 -4.7083158 56.1546135)">
			<stop  offset="0" style="stop-color:#FFFFFF;stop-opacity:0.8"/>
			<stop  offset="1" style="stop-color:#FFFFFF;stop-opacity:0.1"/>
		</linearGradient>
		<circle style="fill:url(#SVGID_18_);" cx="47.5856323" cy="32.4535103" r="0.8559566"/>
	</g>
	<g>
		<g>
			
				<radialGradient id="SVGID_19_" cx="54.2358856" cy="21.4157848" r="3.2083333" gradientTransform="matrix(0.4427649 0.8966377 -0.8966377 0.4427649 49.4243431 -36.6963158)" gradientUnits="userSpaceOnUse">
				<stop  offset="0" style="stop-color:#E83828"/>
				<stop  offset="1" style="stop-color:#C30D23"/>
			</radialGradient>
			<circle style="fill:url(#SVGID_19_);" cx="54.2358856" cy="21.4157848" r="3.2083333"/>
			<path style="fill:#A60B1E;" d="M54.2382813,25.125c-1.4228516,0-2.6982422-0.7919922-3.3271484-2.0673828
				c-0.4384766-0.8876953-0.5058594-1.8935547-0.1875-2.8320313c0.3183594-0.9379883,0.9824219-1.6962891,1.8701172-2.1347656
				c0.5166016-0.2548828,1.0683594-0.3842773,1.6396484-0.3842773c1.4228516,0,2.6982422,0.7919922,3.3271484,2.0673828
				c0.4384766,0.8876953,0.5058594,1.8935547,0.1875,2.8320313c-0.3183594,0.9379883-0.9824219,1.6962891-1.8701172,2.1347656
				C55.3613281,24.9956055,54.8095703,25.125,54.2382813,25.125z M54.2333984,18.706543
				c-0.4169922,0-0.8193359,0.0947266-1.1962891,0.2807617c-0.6494141,0.3203125-1.1337891,0.8740234-1.3662109,1.5595703
				c-0.2324219,0.6850586-0.1835938,1.4194336,0.1367188,2.0678711C52.2675781,23.5463867,53.1982422,24.125,54.2382813,24.125
				c0.4169922,0,0.8193359-0.0947266,1.1962891-0.2807617c0.6494141-0.3203125,1.1337891-0.8740234,1.3662109-1.5595703
				c0.2324219-0.6850586,0.1835938-1.4194336-0.1367188-2.0678711C56.2041016,19.2851563,55.2734375,18.706543,54.2333984,18.706543
				z"/>
		</g>
		
			<linearGradient id="SVGID_20_" gradientUnits="userSpaceOnUse" x1="53.3689423" y1="19.2950191" x2="53.3689423" y2="21.1117821" gradientTransform="matrix(0.4427649 0.8966377 -0.8966377 0.4427649 49.4243431 -36.6963158)">
			<stop  offset="0" style="stop-color:#FFFFFF;stop-opacity:0.8"/>
			<stop  offset="1" style="stop-color:#FFFFFF;stop-opacity:0.1"/>
		</linearGradient>
		<circle style="fill:url(#SVGID_20_);" cx="54.9391022" cy="20.1016483" r="0.9083813"/>
	</g>
	<g>
		<g>
			
				<radialGradient id="SVGID_21_" cx="15.1784067" cy="32" r="3.7083333" gradientTransform="matrix(-0.7545586 -0.6562327 0.6562327 -0.7545586 5.6319594 66.1064453)" gradientUnits="userSpaceOnUse">
				<stop  offset="0" style="stop-color:#E83828"/>
				<stop  offset="1" style="stop-color:#C30D23"/>
			</radialGradient>
			<circle style="fill:url(#SVGID_21_);" cx="15.1784067" cy="32" r="3.7083333"/>
			<path style="fill:#A60B1E;" d="M15.1767578,36.2080078c-1.0141602,0-1.9941406-0.3662109-2.7597656-1.0332031
				c-0.8481445-0.7373047-1.3583984-1.7607422-1.4365234-2.8823242c-0.078125-1.1210938,0.284668-2.2060547,1.0224609-3.0541992
				c0.7998047-0.9194336,1.9575195-1.4467773,3.1767578-1.4467773c1.0141602,0,1.9941406,0.3666992,2.7602539,1.0327148
				c1.7509766,1.5234375,1.9365234,4.1865234,0.4140625,5.9375C17.5537109,35.6806641,16.3959961,36.2080078,15.1767578,36.2080078z
				 M15.1796875,28.7915039c-0.9296875,0-1.8125,0.4018555-2.421875,1.1030273
				c-0.5625,0.6464844-0.8393555,1.4736328-0.7797852,2.3286133s0.4487305,1.6352539,1.0952148,2.1977539
				c1.2856445,1.1191406,3.4091797,0.9697266,4.5258789-0.3154297c0.5625-0.6464844,0.8393555-1.4736328,0.7797852-2.3286133
				s-0.4487305-1.6352539-1.0952148-2.1977539C16.699707,29.0712891,15.9526367,28.7915039,15.1796875,28.7915039z"/>
		</g>
		
			<linearGradient id="SVGID_22_" gradientUnits="userSpaceOnUse" x1="14.1763535" y1="29.5487251" x2="14.1763535" y2="31.6486187" gradientTransform="matrix(-0.7545586 -0.6562327 0.6562327 -0.7545586 5.6319594 66.1064453)">
			<stop  offset="0" style="stop-color:#FFFFFF;stop-opacity:0.8"/>
			<stop  offset="1" style="stop-color:#FFFFFF;stop-opacity:0.1"/>
		</linearGradient>
		<circle style="fill:url(#SVGID_22_);" cx="15.0149164" cy="33.714962" r="1.0499473"/>
	</g>
	<g>
		<g>
			
				<radialGradient id="SVGID_23_" cx="6.228035" cy="34.4172249" r="2.2919455" gradientTransform="matrix(0.3486463 -0.9372544 0.9372544 0.3486463 -28.2010422 28.2550411)" gradientUnits="userSpaceOnUse">
				<stop  offset="0" style="stop-color:#E83828"/>
				<stop  offset="1" style="stop-color:#C30D23"/>
			</radialGradient>
			<circle style="fill:url(#SVGID_23_);" cx="6.228035" cy="34.4172249" r="2.2919455"/>
			<path style="fill:#A60B1E;" d="M6.2275391,37.2099609c-0.3320313,0-0.6591797-0.0595703-0.9726563-0.1757813
				c-1.4428711-0.5371094-2.1801758-2.1474609-1.6435547-3.5908203c0.5200195-1.3984375,2.1806641-2.1665039,3.590332-1.6430664
				c0.6987305,0.2602539,1.2543945,0.7768555,1.5649414,1.4545898c0.3105469,0.6787109,0.3378906,1.4365234,0.078125,2.1357422
				C8.4399414,36.4785156,7.3886719,37.2099609,6.2275391,37.2099609z M6.2285156,32.6245117
				c-0.7451172,0-1.4204102,0.4692383-1.6796875,1.1674805c-0.3447266,0.9267578,0.128418,1.9599609,1.0546875,2.3046875
				c0.909668,0.3398438,1.9702148-0.1572266,2.3037109-1.0546875c0.1669922-0.4492188,0.1494141-0.9355469-0.0498047-1.3701172
				c-0.1992188-0.4355469-0.5561523-0.7670898-1.0043945-0.934082C6.6513672,32.6625977,6.440918,32.6245117,6.2285156,32.6245117z"
				/>
		</g>
		
			<linearGradient id="SVGID_24_" gradientUnits="userSpaceOnUse" x1="5.6087141" y1="32.9022102" x2="5.6087141" y2="34.2000542" gradientTransform="matrix(0.3486463 -0.9372544 0.9372544 0.3486463 -28.2010422 28.2550411)">
			<stop  offset="0" style="stop-color:#FFFFFF;stop-opacity:0.8"/>
			<stop  offset="1" style="stop-color:#FFFFFF;stop-opacity:0.1"/>
		</linearGradient>
		<circle style="fill:url(#SVGID_24_);" cx="5.2003603" cy="34.6957283" r="0.6489227"/>
	</g>
	<g>
		<g>
			<radialGradient id="SVGID_25_" cx="14.6611319" cy="18.3134346" r="3.1023498" gradientUnits="userSpaceOnUse">
				<stop  offset="0" style="stop-color:#E83828"/>
				<stop  offset="1" style="stop-color:#C30D23"/>
			</radialGradient>
			<circle style="fill:url(#SVGID_25_);" cx="14.6611319" cy="18.3134346" r="3.1023498"/>
			<path style="fill:#A60B1E;" d="M14.6611328,21.9160156c-1.9863281,0-3.6025391-1.6162109-3.6025391-3.6025391
				s1.6162109-3.6025391,3.6025391-3.6025391s3.6025391,1.6162109,3.6025391,3.6025391S16.6474609,21.9160156,14.6611328,21.9160156
				z M14.6611328,15.7109375c-1.4350586,0-2.6025391,1.1674805-2.6025391,2.6025391s1.1674805,2.6025391,2.6025391,2.6025391
				s2.6025391-1.1674805,2.6025391-2.6025391S16.0961914,15.7109375,14.6611328,15.7109375z"/>
		</g>
		<linearGradient id="SVGID_26_" gradientUnits="userSpaceOnUse" x1="13.8228264" y1="16.2627258" x2="13.8228264" y2="18.019474">
			<stop  offset="0" style="stop-color:#FFFFFF;stop-opacity:0.8"/>
			<stop  offset="1" style="stop-color:#FFFFFF;stop-opacity:0.1"/>
		</linearGradient>
		<circle style="fill:url(#SVGID_26_);" cx="13.8228264" cy="17.1410999" r="0.878374"/>
	</g>
	<g>
		<g>
			
				<radialGradient id="SVGID_27_" cx="57.9132462" cy="35.4144554" r="2.6389637" gradientTransform="matrix(0.0597458 0.9982136 -0.9982136 0.0597458 89.8043671 -24.5112)" gradientUnits="userSpaceOnUse">
				<stop  offset="0" style="stop-color:#E83828"/>
				<stop  offset="1" style="stop-color:#C30D23"/>
			</radialGradient>
			<circle style="fill:url(#SVGID_27_);" cx="57.9132462" cy="35.4144516" r="2.6389637"/>
			<path style="fill:#A60B1E;" d="M57.9111328,38.5537109c-1.65625,0-3.0322266-1.296875-3.1308594-2.9511719
				c-0.1035156-1.7285156,1.2177734-3.2182617,2.9453125-3.3212891c1.7158203-0.1015625,3.2177734,1.2275391,3.3212891,2.9453125
				c0.1035156,1.7285156-1.2177734,3.2177734-2.9453125,3.3212891
				C58.0371094,38.5517578,57.9746094,38.5537109,57.9111328,38.5537109z M57.9160156,33.2753906l-0.1298828,0.0039063
				c-1.1777344,0.0703125-2.078125,1.0859375-2.0078125,2.2626953c0.0673828,1.1279297,1.0039063,2.0117188,2.1328125,2.0117188
				l0.1298828-0.0039063c1.1777344-0.0703125,2.078125-1.0859375,2.0078125-2.2626953
				C59.9804688,34.1591797,59.0439453,33.2753906,57.9160156,33.2753906z"/>
		</g>
		
			<linearGradient id="SVGID_28_" gradientUnits="userSpaceOnUse" x1="57.2001534" y1="33.6700516" x2="57.2001534" y2="35.164402" gradientTransform="matrix(0.0597458 0.9982136 -0.9982136 0.0597458 89.8043671 -24.5112)">
			<stop  offset="0" style="stop-color:#FFFFFF;stop-opacity:0.8"/>
			<stop  offset="1" style="stop-color:#FFFFFF;stop-opacity:0.1"/>
		</linearGradient>
		<circle style="fill:url(#SVGID_28_);" cx="58.8660851" cy="34.643055" r="0.7471747"/>
	</g>
	<g>
		<g>
			
				<radialGradient id="SVGID_29_" cx="25.2259235" cy="49.1627045" r="2.5542872" gradientTransform="matrix(0.8386652 -0.5446472 0.5446472 0.8386652 -22.5774651 23.6722679)" gradientUnits="userSpaceOnUse">
				<stop  offset="0" style="stop-color:#E83828"/>
				<stop  offset="1" style="stop-color:#C30D23"/>
			</radialGradient>
			<circle style="fill:url(#SVGID_29_);" cx="25.3549728" cy="51.1640892" r="2.5542872"/>
			<path style="fill:#A60B1E;" d="M25.3574219,54.21875c-1.0400391,0-1.9985352-0.5195313-2.5639648-1.390625
				c-0.9169922-1.4130859-0.5141602-3.3085938,0.8979492-4.2255859c0.4970703-0.3222656,1.0712891-0.4931641,1.6611328-0.4931641
				c1.0400391,0,1.9985352,0.5195313,2.5639648,1.390625c0.9169922,1.4130859,0.5141602,3.3085938-0.8979492,4.2255859
				C26.5214844,54.0478516,25.9472656,54.21875,25.3574219,54.21875z M25.3525391,49.109375
				c-0.3964844,0-0.7822266,0.1152344-1.1166992,0.3320313c-0.949707,0.6162109-1.2207031,1.8916016-0.6035156,2.8417969
				c0.5966797,0.9179688,1.9179688,1.203125,2.8417969,0.6035156c0.949707-0.6162109,1.2207031-1.8916016,0.6035156-2.8417969
				C26.6972656,49.4589844,26.0522461,49.109375,25.3525391,49.109375z"/>
		</g>
		
			<linearGradient id="SVGID_30_" gradientUnits="userSpaceOnUse" x1="24.5357132" y1="47.4742737" x2="24.5357132" y2="48.9206734" gradientTransform="matrix(0.8386652 -0.5446472 0.5446472 0.8386652 -22.5774651 23.6722679)">
			<stop  offset="0" style="stop-color:#FFFFFF;stop-opacity:0.8"/>
			<stop  offset="1" style="stop-color:#FFFFFF;stop-opacity:0.1"/>
		</linearGradient>
		<circle style="fill:url(#SVGID_30_);" cx="24.2504063" cy="50.7305069" r="0.7232001"/>
	</g>
	<g>
		<g>
			
				<radialGradient id="SVGID_31_" cx="38.8654633" cy="45.3735313" r="2.212276" gradientTransform="matrix(0.5001481 0.8659399 -0.8659399 0.5001481 60.780838 -9.2196827)" gradientUnits="userSpaceOnUse">
				<stop  offset="0" style="stop-color:#E83828"/>
				<stop  offset="1" style="stop-color:#C30D23"/>
			</radialGradient>
			<circle style="fill:url(#SVGID_31_);" cx="40.9285698" cy="47.1289558" r="2.212276"/>
			<path style="fill:#A60B1E;" d="M40.9306641,49.8417969c-0.9667969,0-1.8671875-0.5195313-2.3505859-1.3564453
				c-0.3632813-0.6269531-0.4589844-1.3583984-0.2714844-2.0576172c0.1875-0.7001953,0.6357422-1.2851563,1.2636719-1.6474609
				c0.4121094-0.2382813,0.8798828-0.3642578,1.3535156-0.3642578c0.9677734,0,1.8681641,0.5195313,2.3515625,1.3564453
				c0.7480469,1.2949219,0.3027344,2.9570313-0.9921875,3.7050781
				C41.8730469,49.7158203,41.4042969,49.8417969,40.9306641,49.8417969z M40.9257813,45.4160156
				c-0.2978516,0-0.59375,0.0800781-0.8535156,0.2294922c-0.3964844,0.2294922-0.6796875,0.5986328-0.7978516,1.0410156
				c-0.1181641,0.4414063-0.0576172,0.9023438,0.1708984,1.2988281c0.4560547,0.7871094,1.546875,1.0839844,2.3398438,0.6259766
				c0.8173828-0.4716797,1.0986328-1.5214844,0.6269531-2.3388672
				C42.1064453,45.7441406,41.5371094,45.4160156,40.9257813,45.4160156z"/>
		</g>
		
			<linearGradient id="SVGID_32_" gradientUnits="userSpaceOnUse" x1="38.2676697" y1="43.9111748" x2="38.2676697" y2="45.1639099" gradientTransform="matrix(0.5001481 0.8659399 -0.8659399 0.5001481 60.780838 -9.2196827)">
			<stop  offset="0" style="stop-color:#FFFFFF;stop-opacity:0.8"/>
			<stop  offset="1" style="stop-color:#FFFFFF;stop-opacity:0.1"/>
		</linearGradient>
		<circle style="fill:url(#SVGID_32_);" cx="41.3535004" cy="46.1931839" r="0.6263658"/>
	</g>
</g>
<g>
	<g>
		
			<radialGradient id="SVGID_33_" cx="25.65625" cy="21.3899555" r="9.6973248" gradientTransform="matrix(0.6065368 0.7950554 -0.6019334 0.4592067 22.9701195 -8.830596)" gradientUnits="userSpaceOnUse">
			<stop  offset="0" style="stop-color:#E03849"/>
			<stop  offset="1" style="stop-color:#C30D23"/>
		</radialGradient>
		<path style="fill:url(#SVGID_33_);" d="M32,10.1961756c0,0-2.25,2.3084822-2.4375,12.3374033
			s-2.1542721,11.0150394-2.1542721,11.0150394S26.5625,30.125,24.6875,30.3125s-4.375,3.5052681-5.375,2.940136
			c0,0,1.625-8.6278019,4.0625-14.0595703c2.5403976-5.6610699,7.0545635-9.961771,7.0545635-9.961771L32,10.1961756z"/>
		<path style="fill:#800817;" d="M27.0737305,34.2753906l-0.1508789-0.6064453
			c-0.1850586-0.7426758-0.965332-2.8637695-2.0874023-2.8637695c-0.8793945,0.0830078-1.9111328,0.902832-2.8212891,1.6259766
			c-0.9360352,0.7436523-1.7441406,1.3862305-2.4404297,1.3862305c-0.1845703,0-0.3549805-0.0429688-0.5068359-0.1289063
			l-0.3120117-0.1757813l0.0664063-0.3525391c0.0668945-0.3544922,1.6635742-8.7480469,4.0976563-14.171875
			c2.5512695-5.6850586,6.9785156-9.9404297,7.1660156-10.1186523l0.2783203-0.265625l2.4311523,1.4936523l-0.4365234,0.4477539
			c-0.0161133,0.0175781-2.1162109,2.4091797-2.2954102,11.9975586c-0.184082,9.8330078-2.0566406,11.265625-2.4301758,11.453125
			L27.0737305,34.2753906z M30.503418,9.8632813c-1.0043945,1.0209961-4.5581055,4.8232422-6.6723633,9.5341797
			c-2.0004883,4.4584961-3.4672852,11.1914063-3.8974609,13.2963867c0.4111328-0.2128906,0.9780273-0.6635742,1.4584961-1.0454102
			c1.0180664-0.809082,2.171875-1.7260742,3.2456055-1.8334961c1.5825195-0.1645508,2.5151367,1.5356445,2.9521484,2.6669922
			c0.5268555-1.0439453,1.3549805-3.6704102,1.4726563-9.9575195c0.1459961-7.8125,1.5483398-11.0610352,2.2231445-12.1801758
			L30.503418,9.8632813z"/>
	</g>
	<g>
		
			<radialGradient id="SVGID_34_" cx="24.6529255" cy="20.616745" r="9.6973248" gradientTransform="matrix(0.617441 0.8093488 0.6771981 -0.4674622 10.5404139 10.3014812)" gradientUnits="userSpaceOnUse">
			<stop  offset="0" style="stop-color:#E03849"/>
			<stop  offset="1" style="stop-color:#C30D23"/>
		</radialGradient>
		<path style="fill:url(#SVGID_34_);" d="M33.0547638,9.422966c0,0,2.3653603,2.3084812,2.5624733,12.3374023
			s2.2647209,11.0150375,2.2647209,11.0150375s0.8890915-3.4236164,2.8602219-3.2361164
			c1.9711342,0.1875,4.599308,3.50527,5.6505814,2.940134c0,0-1.7083168-8.6278-4.2707863-14.0595684
			c-2.6706467-5.6610699-7.416256-9.9617701-7.416256-9.9617701L33.0547638,9.422966z"/>
		<path style="fill:#800817;" d="M38.2128906,33.4863281l-0.5458984-0.2597656
			c-0.3925781-0.1865234-2.3564453-1.6176758-2.5498047-11.456543c-0.1884766-9.5839844-2.3945313-11.9711914-2.4169922-11.9941406
			l-0.4433594-0.4580078l2.5136719-1.4765625l0.2714844,0.2460938c0.1962891,0.1787109,4.8496094,4.4331055,7.5322266,10.1191406
			c2.5595703,5.425293,4.2382813,13.8212891,4.3085938,14.1757813l0.0722656,0.3623047l-0.3251953,0.175293
			c-0.7451172,0.3974609-1.8183594-0.3212891-3.0527344-1.2548828c-0.9599609-0.7260742-2.0488281-1.5488281-2.8828125-1.628418
			c-1.2890625-0.1303711-2.1142578,2.043457-2.3291016,2.8647461L38.2128906,33.4863281z M40.5869141,29.0317383
			c0.0664063,0,0.1337891,0.0029297,0.2021484,0.0097656c1.1162109,0.105957,2.3251953,1.0195313,3.3916016,1.8256836
			c0.5527344,0.4179688,1.1611328,0.878418,1.5888672,1.0766602c-0.4462891-2.0825195-1.9912109-8.8408203-4.0996094-13.3105469
			c-2.2373047-4.7426758-6.0078125-8.5639648-7.0351563-9.5546875L33.7861328,9.574707
			c0.7128906,1.1308594,2.1777344,4.3857422,2.3310547,12.1757813c0.1259766,6.4174805,1.0292969,9.0170898,1.5810547,10.0146484
			C38.1308594,30.6923828,39.0488281,29.0317383,40.5869141,29.0317383z"/>
	</g>
	<g>
		
			<radialGradient id="SVGID_35_" cx="39.1963806" cy="7.1794224" r="6.3079863" gradientTransform="matrix(0.6065368 0.7950554 -0.6019334 0.4592067 19.7438679 -27.2807102)" gradientUnits="userSpaceOnUse">
			<stop  offset="0" style="stop-color:#E03849"/>
			<stop  offset="1" style="stop-color:#C30D23"/>
		</radialGradient>
		<path style="fill:url(#SVGID_35_);" d="M32,6.5414643c0,0,13.0670929-7.6966753,13.5-3.2516139
			s-0.3125,4.9385061,0.8125,7.7930784S36.4375,11.9264565,32,8.7132282V6.5414643z"/>
		<path style="fill:#800817;" d="M44.0517578,12.9511719c-3.328125,0-9.3154297-1.6391602-12.3452148-3.8330078L31.5,8.96875
			V6.2558594l0.2460938-0.1450195c0.3261719-0.1923828,8.0283203-4.703125,11.8496094-4.703125
			c1.9345703,0,2.3349609,1.1489258,2.4023438,1.8339844c0.171875,1.7651367,0.1601563,2.9116211,0.1513672,3.8330078
			c-0.0136719,1.4042969-0.0205078,2.1777344,0.6279297,3.8251953c0.2265625,0.5727539,0.078125,0.9794922-0.0849609,1.2197266
			C46.3115234,12.6791992,45.4472656,12.9511719,44.0517578,12.9511719z M32.5,8.4541016
			c2.9384766,2.0112305,8.4501953,3.4970703,11.5517578,3.4970703c1.140625,0,1.6904297-0.2124023,1.8134766-0.3945313
			c0.015625-0.0219727,0.0615234-0.0893555-0.0175781-0.2905273C45.1269531,9.4375,45.1357422,8.4936523,45.1494141,7.0649414
			c0.0087891-0.8974609,0.0195313-2.0146484-0.1474609-3.7265625c-0.0439453-0.4604492-0.2470703-0.9306641-1.40625-0.9306641
			c-3.1914063,0-9.7451172,3.6499023-11.0957031,4.4223633V8.4541016z"/>
	</g>
	<g>
		
			<radialGradient id="SVGID_36_" cx="38.8168144" cy="7.7698498" r="6.3079863" gradientTransform="matrix(0.6100358 0.799642 0.6305792 -0.4636166 -5.0037603 -19.6418324)" gradientUnits="userSpaceOnUse">
			<stop  offset="0" style="stop-color:#E03849"/>
			<stop  offset="1" style="stop-color:#C30D23"/>
		</radialGradient>
		<path style="fill:url(#SVGID_36_);" d="M30.8471584,6.6219397c0,0-13.8523483-6.700387-13.9671326-2.2349353
			c-0.1147823,4.4654517,0.6794014,4.9019179-0.2556725,7.8328233c-0.9350748,2.9309053,10.1043072,0.1039667,14.3818226-3.4319534
			L30.8471584,6.6219397z"/>
		<path style="fill:#800817;" d="M18.4008789,13.9404297c-0.0004883,0-0.0004883,0-0.0009766,0
			c-1.0751953-0.0004883-1.7651367-0.2299805-2.1098633-0.7016602c-0.1640625-0.2241211-0.3212891-0.6088867-0.1420898-1.1708984
			c0.5390625-1.6894531,0.4750977-2.4594727,0.3583984-3.8574219c-0.0766602-0.918457-0.171875-2.0620117-0.1264648-3.8359375
			c0.0195313-0.7553711,0.3999023-2.0219727,2.7299805-2.0219727c4.0126953,0,11.6328125,3.6635742,11.9550781,3.8193359
			l0.2597656,0.1259766l0.1992188,2.7109375L31.324707,9.1733398C28.21875,11.7407227,21.6225586,13.9404297,18.4008789,13.9404297z
			 M19.1098633,3.3525391c-1.703125,0-1.722168,0.7338867-1.7299805,1.0473633
			c-0.0444336,1.7197266,0.0483398,2.8330078,0.1230469,3.7275391c0.1186523,1.4243164,0.1972656,2.3657227-0.4018555,4.2441406
			c-0.0419922,0.1303711-0.0429688,0.2236328-0.0039063,0.2773438c0.0356445,0.0483398,0.265625,0.2910156,1.3027344,0.2915039
			c0.0004883,0,0.0009766,0,0.0009766,0c2.9926758,0,9.0561523-2.0029297,12.0874023-4.3774414l-0.1186523-1.6137695
			C28.9936523,6.3051758,22.4985352,3.3525391,19.1098633,3.3525391z"/>
	</g>
	<g>
		
			<radialGradient id="SVGID_37_" cx="30.6957512" cy="7.6649399" r="2.7410266" gradientTransform="matrix(1.3208361 0 0 1 -8.5440559 0)" gradientUnits="userSpaceOnUse">
			<stop  offset="0" style="stop-color:#E03849"/>
			<stop  offset="1" style="stop-color:#C30D23"/>
		</radialGradient>
		<path style="fill:url(#SVGID_37_);" d="M31.9060593,4.9375C34.5432167,4.7127743,35.7034607,5,35.5383568,7.25
			s-1.7335968,3.0829287-2.889328,3.1875s-3.2268238-0.1887445-4.0071945-2.3954344S29.5111637,5.1415811,31.9060593,4.9375z"/>
		<path style="fill:#800817;" d="M32.2421875,10.9555664c-0.9321289,0-3.1948242-0.2675781-4.0717773-2.746582
			c-0.3286133-0.9287109-0.2949219-1.7094727,0.0996094-2.3208008c0.5322266-0.8251953,1.6738281-1.2851563,3.59375-1.4487305
			c0.4790039-0.0410156,0.9106445-0.0649414,1.2963867-0.0649414c0.7734375,0,1.7382813,0.0820313,2.3330078,0.7216797
			c0.4453125,0.4794922,0.6181641,1.175293,0.5439453,2.1904297c-0.1826172,2.4868164-1.9150391,3.5195313-3.3432617,3.6489258
			C32.5541992,10.9482422,32.402832,10.9555664,32.2421875,10.9555664z M33.1601563,5.3745117
			c-0.3603516,0-0.7641602,0.0229492-1.2114258,0.0610352c-1.5644531,0.1333008-2.4926758,0.4584961-2.8383789,0.9946289
			c-0.2211914,0.3422852-0.2202148,0.8154297,0.0024414,1.4453125c0.640625,1.8095703,2.2358398,2.0800781,3.1293945,2.0800781
			c0.128418,0,0.25-0.0058594,0.3618164-0.0161133c0.3754883-0.0336914,2.2592773-0.3251953,2.4350586-2.7260742
			C35.0917969,6.5048828,35,6.0351563,34.7607422,5.7773438C34.5048828,5.5024414,33.9960938,5.3745117,33.1601563,5.3745117z"/>
	</g>
</g>
</svg>
