<?xml version="1.0" encoding="utf-8"?>
<!-- Generator: Adobe Illustrator 15.0.2, SVG Export Plug-In . SVG Version: 6.00 Build 0)  -->
<!DOCTYPE svg PUBLIC "-//W3C//DTD SVG 1.1//EN" "http://www.w3.org/Graphics/SVG/1.1/DTD/svg11.dtd">
<svg version="1.1" id="レイヤー_1" xmlns="http://www.w3.org/2000/svg" xmlns:xlink="http://www.w3.org/1999/xlink" x="0px"
	 y="0px" width="64px" height="64px" viewBox="0 0 64 64" style="enable-background:new 0 0 64 64;" xml:space="preserve">
<g>
	<polygon style="fill:#706C67;" points="-3.6923828,47.7792969 1.6713867,34.1367188 12.3911133,23.8623047 19.0576172,17.6953125 
		26.8076172,12.6953125 33.4296875,11.6435547 34.546875,7.3623047 35.1074219,4.1953125 33.4726563,1.2788086 
		26.8076172,-4.2211914 -3.6923828,-4.2211914 	"/>
	<path d="M-3.6918945,48.5292969c-0.0463867,0-0.0932617-0.0039063-0.1401367-0.0126953
		c-0.3540039-0.0673828-0.6103516-0.3769531-0.6103516-0.7373047V-4.2211914c0-0.4140625,0.3359375-0.75,0.75-0.75h30.5
		c0.1743164,0,0.3427734,0.0605469,0.4775391,0.1713867l6.6650391,5.5c0.0712891,0.059082,0.1308594,0.1308594,0.1767578,0.2119141
		l1.6347656,2.9165039c0.0849609,0.1508789,0.1142578,0.3266602,0.0839844,0.4975586l-0.5605469,3.1669922l-1.1298828,4.3398438
		c-0.0751953,0.2880859-0.3134766,0.5043945-0.6083984,0.5512695l-6.465332,1.0268555l-7.5625,4.8789063l-6.6186523,6.1230469
		L2.309082,34.5644531l-5.3037109,13.4892578C-3.1088867,48.3447266-3.3886719,48.5292969-3.6918945,48.5292969z
		 M-2.9423828-3.4711914v47.293457l3.9160156-9.9599609c0.0395508-0.1005859,0.1005859-0.1923828,0.1787109-0.2666016
		l10.7197266-10.2749023l6.6762695-6.1762695c0.0317383-0.0292969,0.0664063-0.0556641,0.1025391-0.0795898l7.75-5
		c0.0878906-0.0561523,0.1860352-0.09375,0.2890625-0.1103516l6.1376953-0.9746094l0.9936523-3.8071289l0.5009766-2.8442383
		L32.887207,1.7680664l-6.3491211-5.2392578H-2.9423828z"/>
</g>
<g>
	<g>
		<path style="fill:#FFB443;" d="M36.0683594,12.4726563l-1.1738281-4.0268555l-1.6015625-0.4370117l0.1367188,3.6347656
			c0,0-1.5366211-0.0761719-1.1323242,0.6806641c0.4052734,0.7563477,1.9702148,1.8642578,1.9702148,1.8642578L35.34375,15.75
			c0,0,0.734375,1.4501953,1.7929688,3.7094727c1.7929688,2.7285156,3.3066406,3.7617188,3.140625,4.9433594
			s-0.4433594,4.0756836-0.4433594,4.0756836l3.1914063,3.2866211l3.6503906-2.5668945l0.859375,3.9443359
			c0,0-1.4550781,3.0273438-2.0078125,6.0410156c0,0-1.0332031,0.5234375-1.7929688,0.6289063
			c-0.7617188,0.1054688,0.2578125,1.7539063,0.2578125,1.7539063s-0.3105469,0.7910156,0.3300781,1.796875
			c0.6386719,1.0058594,2.8515625,0.6484375,3.2851563-1.2539063l0.0566406-2.2421875l3.2441406-7.4067383
			c0,0,0.0390625-2.7592773-1.5449219-6.059082c-0.6542969-1.387207-2.5117188-1.4316406-2.5117188-1.4316406l2.140625-2.0991211
			c0,0,2.5195313-1.0732422,1.6347656-2.3149414l-0.9511719-2.09375l-1.7207031-2.0991211
			c-0.9375,0.7832031-1.3378906,0.4492188-3.4960938,2.3896484c-0.3613281,0.777832-0.96875,2.6635742-0.3496094,3.8564453
			l-0.1054688,0.5415039c0,0-0.3261719-1.434082-2.5390625-2.4628906c0,0-1.3691406-2.8447266-2.4804688-3.7353516
			C38.984375,16.9521484,38.828125,15.418457,36.0683594,12.4726563z"/>
		<path d="M45.46875,44.6611328c-0.7695313,0-1.4179688-0.3261719-1.7792969-0.8955078
			c-0.5517578-0.8662109-0.5615234-1.6308594-0.4941406-2.0761719c-0.3613281-0.6464844-0.6591797-1.4472656-0.3837891-2.03125
			c0.1513672-0.3232422,0.4501953-0.5371094,0.8203125-0.5888672c0.3740234-0.0517578,0.8808594-0.2480469,1.2324219-0.4033203
			c0.5136719-2.4863281,1.5429688-4.8623047,1.8847656-5.6103516l-0.5654297-2.5942383l-2.7265625,1.9169922
			c-0.3017578,0.2124023-0.7119141,0.1748047-0.9697266-0.0908203l-3.1914063-3.2866211
			c-0.1533203-0.1577148-0.2294922-0.375-0.2080078-0.5942383c0.0107422-0.1186523,0.2802734-2.9238281,0.4462891-4.1083984
			c0.0585938-0.4130859-0.4462891-1.0385742-1.1455078-1.9042969c-0.5273438-0.6513672-1.1816406-1.4624023-1.8789063-2.5224609
			c-0.0195313-0.0302734-0.0371094-0.0615234-0.0517578-0.09375c-0.9453125-2.0170898-1.6308594-3.3852539-1.7607422-3.6445313
			l-0.9736328-1.4116211c-0.4394531-0.3203125-1.6660156-1.2573242-2.0874023-2.043457
			c-0.2792969-0.5224609-0.1259766-0.925293-0.0097656-1.1191406c0.1899414-0.3164063,0.5336914-0.5209961,1.0263672-0.612793
			l-0.109375-2.9091797c-0.0087891-0.2387695,0.0961914-0.4672852,0.2832031-0.6157227
			c0.1879883-0.1484375,0.4379883-0.1982422,0.6635742-0.1362305l1.6015625,0.4370117
			c0.2519531,0.0688477,0.4501953,0.2631836,0.5224609,0.5136719l1.1240234,3.855957
			c2.1386719,2.3144531,2.7509766,3.824707,2.9248047,4.4594727c0.9882813,0.9379883,2.0068359,2.8686523,2.3603516,3.5737305
			c0.4287109,0.2167969,0.7919922,0.4472656,1.0976563,0.6806641c0.1201172-1.1699219,0.5771484-2.1962891,0.6572266-2.3691406
			c0.0429688-0.0917969,0.1035156-0.1743164,0.1796875-0.2416992c1.4208984-1.2783203,2.1367188-1.6303711,2.7109375-1.9135742
			c0.3027344-0.1489258,0.5205078-0.2563477,0.8056641-0.4941406c0.1523438-0.1279297,0.3515625-0.1923828,0.5507813-0.1708984
			c0.1992188,0.0185547,0.3828125,0.1162109,0.5097656,0.2709961l1.7207031,2.0991211
			c0.0410156,0.050293,0.0761719,0.105957,0.1025391,0.1655273l0.9248047,2.0351563
			c0.2753906,0.4204102,0.3515625,0.8852539,0.2207031,1.3496094c-0.2949219,1.0463867-1.5917969,1.7363281-2.0830078,1.9638672
			l-1.0693359,1.0488281c0.6289063,0.2578125,1.3046875,0.7163086,1.6904297,1.5322266
			c1.6386719,3.4145508,1.6181641,6.2695313,1.6162109,6.3896484c-0.0019531,0.1000977-0.0224609,0.1987305-0.0634766,0.2900391
			l-3.1845703,7.2719727l-0.0527344,2.0947266c-0.0019531,0.0498047-0.0078125,0.0996094-0.0185547,0.1484375
			C47.9648438,43.9150391,46.5888672,44.6611328,45.46875,44.6611328z M44.2792969,40.4658203
			c0.0810547,0.2109375,0.2138672,0.4833984,0.3515625,0.7070313c0.1230469,0.2001953,0.1455078,0.4482422,0.0595703,0.6679688
			c0.0009766,0-0.1464844,0.4746094,0.2646484,1.1191406c0.078125,0.125,0.2753906,0.2011719,0.5136719,0.2011719
			c0.5292969,0,1.1806641-0.3613281,1.390625-1.1513672l0.0546875-2.1611328
			c0.0029297-0.0976563,0.0244141-0.1933594,0.0634766-0.2822266l3.1777344-7.2563477
			c-0.0205078-0.5849609-0.1835938-2.9082031-1.4677734-5.5839844c-0.4472656-0.9467773-1.8398438-1.0063477-1.8535156-1.0063477
			c-0.3017578-0.0073242-0.5693359-0.1943359-0.6796875-0.4746094c-0.1113281-0.2802734-0.0429688-0.5996094,0.171875-0.8110352
			l2.140625-2.0991211c0.0664063-0.0644531,0.1455078-0.1171875,0.2304688-0.1538086
			c0.5742188-0.2470703,1.2753906-0.7397461,1.3623047-1.0512695c0.0078125-0.0258789,0.015625-0.0556641-0.0429688-0.1391602
			c-0.0283203-0.0390625-0.0527344-0.0810547-0.0722656-0.125l-0.9111328-2.0043945l-1.21875-1.4868164
			c-0.1679688,0.097168-0.3261719,0.175293-0.4824219,0.2524414c-0.5009766,0.246582-1.0673828,0.5253906-2.2529297,1.5776367
			c-0.3525391,0.8271484-0.7109375,2.2744141-0.3037109,3.0585938c0.078125,0.1503906,0.1025391,0.3227539,0.0703125,0.4892578
			l-0.1054688,0.5415039c-0.0683594,0.3476563-0.3701172,0.6005859-0.7246094,0.6064453
			c-0.3486328,0.0136719-0.6640625-0.2373047-0.7431641-0.5834961c-0.0087891-0.03125-0.3193359-1.1103516-2.1240234-1.9492188
			c-0.1572266-0.0732422-0.2841797-0.1987305-0.359375-0.3549805c-0.3603516-0.7490234-1.4726563-2.8334961-2.2734375-3.4750977
			c-0.1572266-0.1259766-0.2568359-0.3095703-0.2773438-0.5092773l0,0c-0.0009766,0-0.2431641-1.4018555-2.7167969-4.0429688
			c-0.0810547-0.0859375-0.140625-0.1894531-0.1728516-0.3027344l-1.0566406-3.6240234l-0.2109375-0.0576172l0.0976563,2.6142578
			c0.0087891,0.2094727-0.0732422,0.4125977-0.2216797,0.5605469c-0.1484375,0.1474609-0.3515625,0.222168-0.5625,0.2167969
			c-0.0332031-0.0009766-0.0683594,0.0004883-0.0996094,0.0009766c0.3867188,0.4018555,0.9833984,0.8837891,1.40625,1.1826172
			c0.0712891,0.0512695,0.1337891,0.1142578,0.1835938,0.1865234l1.0761719,1.5615234
			c0.0195313,0.027832,0.0371094,0.0571289,0.0517578,0.0869141c0,0,0.7275391,1.4370117,1.7802734,3.6811523
			c0.6455078,0.9770508,1.2636719,1.7426758,1.7617188,2.359375c0.9375,1.159668,1.6142578,1.9970703,1.4658203,3.0556641
			c-0.1289063,0.9121094-0.328125,2.8974609-0.40625,3.6982422l2.5029297,2.578125l3.1269531-2.1987305
			c0.2050781-0.1445313,0.4707031-0.1767578,0.7041016-0.0854492c0.234375,0.0913086,0.4072266,0.293457,0.4599609,0.5390625
			l0.859375,3.9443359c0.0361328,0.1635742,0.015625,0.3334961-0.0566406,0.4848633
			c-0.0136719,0.0292969-1.4189453,2.9765625-1.9462891,5.8515625c-0.0419922,0.2304688-0.1894531,0.4277344-0.3984375,0.5332031
			C45.7685547,39.9023438,45.0224609,40.2734375,44.2792969,40.4658203z"/>
	</g>
	<g>
		<path style="fill:#FFB443;" d="M27.6572266,27.3764648c0,0-9.6416016,2.8100586-12.2641602,2.1113281l-0.7197266,4.1958008
			c0,0,2.715332-2.215332,4.8330078-1.3481445c2.1171875,0.8676758,7.5249023,0.7836914,8.9536133-0.9736328L27.6572266,27.3764648z
			"/>
		<path d="M14.6733398,34.4326172c-0.1303711,0-0.2612305-0.0332031-0.378418-0.1025391
			c-0.2695313-0.1572266-0.4135742-0.4658203-0.3608398-0.7734375l0.7197266-4.1958008
			c0.0356445-0.2075195,0.1572266-0.390625,0.3344727-0.5043945c0.1772461-0.1142578,0.3935547-0.1494141,0.5976563-0.0932617
			c0.1479492,0.0390625,0.4262695,0.0864258,0.9121094,0.0864258c3.3842773-0.0004883,10.8740234-2.1713867,10.9492188-2.1933594
			c0.2026367-0.0581055,0.418457-0.0297852,0.5981445,0.0786133c0.1796875,0.1088867,0.3056641,0.2875977,0.347168,0.4936523
			l0.8027344,3.9853516c0.0439453,0.2192383-0.012207,0.4472656-0.1533203,0.6210938
			c-1.3496094,1.6591797-4.8720703,1.7890625-5.9204102,1.7890625l0,0c-1.5566406,0-2.9780273-0.2167969-3.8994141-0.5947266
			c-0.2353516-0.0961914-0.5009766-0.1450195-0.7890625-0.1450195c-1.5649414,0-3.2695313,1.3676758-3.2866211,1.3813477
			C15.0097656,34.3759766,14.8417969,34.4326172,14.6733398,34.4326172z M16.0087891,30.3349609l-0.3105469,1.809082
			c0.7661133-0.394043,1.7436523-0.7597656,2.7348633-0.7597656c0.4838867,0,0.9404297,0.0864258,1.3574219,0.2573242
			c0.7260742,0.2973633,2.0024414,0.4819336,3.3310547,0.4819336c2.0073242,0,3.7485352-0.3969727,4.5234375-1.0092773
			l-0.5629883-2.7958984C24.8984375,28.9223633,18.7514648,30.5117188,16.0087891,30.3349609z"/>
	</g>
	<g>
		<path style="fill:#FFB443;" d="M29.2099609,42.6503906c0,0,4.4150391,7.0078125,4.3154297,7.9335938
			c-0.1015625,0.9257813,0.5703125,5.4238281,0.5703125,5.4238281s2.1230469-0.21875,1.9414063-3.0136719
			c-0.1835938-2.7949219-0.4433594-3.1582031-0.4433594-3.1582031s-0.9921875-7.2304688-1.9785156-7.3945313L29.2099609,42.6503906z
			"/>
		<path d="M34.0947266,56.7578125c-0.3671875,0-0.6855469-0.2685547-0.7412109-0.6396484
			c-0.1142578-0.7666016-0.6801758-4.6425781-0.5737305-5.6162109c-0.09375-0.5986328-2.2548828-4.3574219-4.2045898-7.4521484
			c-0.1420898-0.2255859-0.1538086-0.5097656-0.0302734-0.7460938s0.362793-0.3896484,0.6293945-0.4023438l4.4057617-0.2089844
			c0.0517578-0.0048828,0.1054688,0,0.1582031,0.0087891c0.4560547,0.0761719,1.5205078,0.2539063,2.5830078,7.9208984
			c0.1308594,0.3339844,0.3212891,1.1474609,0.4638672,3.3232422c0.1806641,2.78125-1.6298828,3.7070313-2.6123047,3.8085938
			C34.1464844,56.7568359,34.1201172,56.7578125,34.0947266,56.7578125z M30.5249023,43.3388672
			c2.5649414,4.1376953,3.8237305,6.6005859,3.746582,7.3251953c-0.0527344,0.4804688,0.1884766,2.5478516,0.4287109,4.2802734
			c0.3408203-0.2919922,0.6572266-0.8476563,0.5888672-1.9013672c-0.1435547-2.1757813-0.328125-2.7714844-0.359375-2.859375
			c-0.0400391-0.0761719-0.0673828-0.1591797-0.0791016-0.2460938c-0.375-2.7353516-1.0419922-5.9394531-1.4960938-6.7324219
			L30.5249023,43.3388672z"/>
	</g>
</g>
<g>
	<path style="fill:#2B9CF9;" d="M46.7851563,16.5507813l2.4863281,3.5932617l-0.1425781,2.9101563l-0.8828125,1.2143555
		c0,0,8.6074219-0.8422852,4.6855469-7.6616211C51.5800781,14.2543945,48.3242188,15.1303711,46.7851563,16.5507813z"/>
	<path d="M48.2460938,25.0185547c-0.2675781,0-0.5166016-0.1425781-0.6513672-0.3774414
		c-0.1464844-0.2563477-0.1289063-0.574707,0.0449219-0.8134766l0.7509766-1.0336914l0.1191406-2.4326172l-2.3417969-3.3837891
		c-0.2119141-0.3071289-0.1660156-0.7246094,0.1083984-0.9780273c1.0546875-0.9731445,2.6328125-1.6015625,4.0205078-1.6015625
		c1.4384766,0,2.6054688,0.6518555,3.2851563,1.8354492c1.2285156,2.1352539,1.4521484,3.9916992,0.6669922,5.5170898
		c-1.4394531,2.7944336-5.7470703,3.246582-5.9296875,3.2646484C48.2949219,25.0175781,48.2705078,25.0185547,48.2460938,25.0185547
		z M47.8027344,16.7036133l2.0859375,3.0136719c0.09375,0.1357422,0.1396484,0.2988281,0.1318359,0.4633789l-0.1425781,2.9101563
		c-0.0009766,0.0229492-0.0029297,0.0454102-0.0058594,0.0678711c1.1123047-0.3383789,2.4638672-0.9672852,3.0449219-2.0981445
		c0.5351563-1.0429688,0.3212891-2.4155273-0.6357422-4.0795898c-0.4130859-0.71875-1.0800781-1.0830078-1.984375-1.0830078
		C49.4824219,15.8979492,48.5449219,16.2089844,47.8027344,16.7036133z"/>
</g>
<g>
	<path style="fill:#2B9CF9;" d="M36.6367188,30.4760742c0,0-0.7617188,0.6074219-2.8925781-1.1621094
		c-2.1313477-1.769043-3.9487305-3.2573242-4.6938477-3.3305664c-0.7456055-0.0737305-4.7773438,0.7988281-4.7773438,0.7988281
		l2.0224609,6.5556641l2-0.1816406c0,0,0.512207,0.7441406,1.4008789,0.9023438
		c0.8891602,0.1601563,1.8032227,1.203125,1.8032227,1.203125l-3.2285156,6.0898438c0,0-0.3642578,1.1523438,0.3071289,2.2792969
		c0,0,5.0351563-0.5996094,5.6777344-0.1972656S35.7421875,41.125,35.7421875,41.125s4.4609375-0.9082031,5.8398438-2.8964844
		c1.3789063-1.9863281,1.0585938-3.1835938,1.0585938-3.1835938l-4.5644531-2.1469727L36.6367188,30.4760742z"/>
	<path d="M28.578125,44.3808594c-0.262207,0-0.5078125-0.1376953-0.6445313-0.3662109
		c-0.8339844-1.3994141-0.3969727-2.8291016-0.3779297-2.8886719c0.0136719-0.0439453,0.03125-0.0859375,0.0527344-0.1259766
		l2.9672852-5.5966797c-0.3022461-0.265625-0.6982422-0.5498047-1.012207-0.6064453
		c-0.7412109-0.1318359-1.2753906-0.5478516-1.5830078-0.859375l-1.6171875,0.1474609
		c-0.3598633,0.0283203-0.6801758-0.1875-0.784668-0.5263672l-2.0224609-6.5551758
		c-0.0620117-0.2006836-0.0366211-0.418457,0.0693359-0.5996094c0.105957-0.1816406,0.2836914-0.3100586,0.4887695-0.3544922
		c0.3881836-0.0839844,3.8193359-0.8203125,4.8295898-0.8203125c0.0688477,0,0.1289063,0.0029297,0.1801758,0.0078125
		c0.9023438,0.0888672,2.3134766,1.1879883,5.0996094,3.5c1.2851563,1.0668945,1.9228516,1.0927734,2.0136719,1.0888672
		c0.03125,0-0.0058594,0.0146484-0.0644531,0.0615234c0.1689453-0.1328125,0.3867188-0.1870117,0.5986328-0.1489258
		c0.2128906,0.0390625,0.3994141,0.168457,0.5097656,0.3544922l1.3222656,2.2241211l4.3564453,2.0493164
		c0.2001953,0.09375,0.3476563,0.2714844,0.4052734,0.4853516c0.0419922,0.15625,0.3662109,1.5966797-1.1669922,3.8046875
		c-1.2890625,1.8583984-4.6318359,2.8095703-5.8759766,3.1074219c-0.8466797,2.4599609-1.6503906,2.4335938-1.9306641,2.4609375
		c-0.1855469,0-0.3691406-0.0527344-0.5292969-0.1523438c0.0292969,0.0175781-0.1630859-0.0273438-0.7724609-0.0273438
		c-1.6254883,0-4.3950195,0.3271484-4.4228516,0.3310547C28.637207,44.3789063,28.6074219,44.3808594,28.578125,44.3808594z
		 M28.9731445,41.6279297c-0.0361328,0.15625-0.1225586,0.6474609,0.0576172,1.1972656
		c0.9135742-0.0986328,2.7802734-0.2802734,4.059082-0.2802734c0.578125,0,0.9384766,0.0361328,1.1865234,0.0986328
		c0.2167969-0.3261719,0.5371094-1.0595703,0.75-1.7412109c0.0810547-0.2607422,0.2978516-0.4570313,0.5654297-0.5117188
		c1.1601563-0.2373047,4.3867188-1.1650391,5.3740234-2.5898438c0.7480469-1.0771484,0.9189453-1.8613281,0.9501953-2.2675781
		l-4.1591797-1.9570313c-0.1357422-0.0634766-0.2490234-0.1660156-0.3251953-0.2949219l-1.1621094-1.9550781
		c-0.8212891,0.0229492-1.8320313-0.4619141-3.0048828-1.4350586c-1.3852539-1.1503906-3.7050781-3.0756836-4.2905273-3.1616211
		c0,0-0.0004883,0-0.0009766,0c-0.5571289,0-2.3457031,0.3310547-3.7412109,0.6171875l1.6010742,5.1894531l1.3945313-0.1269531
		c0.2719727-0.0224609,0.5317383,0.0981445,0.6855469,0.3217773l0,0c0,0,0.3583984,0.4907227,0.9145508,0.5893555
		c1.1166992,0.2011719,2.1245117,1.3203125,2.2358398,1.4472656c0.2050781,0.234375,0.2446289,0.5703125,0.0986328,0.8457031
		L28.9731445,41.6279297z"/>
</g>
<polygon style="fill:#0678C6;" points="32.2299805,41.7792969 35.3339844,36.2792969 40.453125,35.6953125 39.4785156,38.7382813 
	36.046875,39.5292969 34.0605469,41.7792969 "/>
<g>
	<path style="fill:#2B9CF9;" d="M43.7167969,22.5336914c0,0,0.4863281,1.6230469,1.1171875,2.0288086
		c2.3828125-0.3486328,3.1308594-0.6835938,4.0546875,1.1918945l1.4257813,3.1318359l-3.7539063,2.5371094l-0.4824219-1.2529297
		c0,0-2.0332031,1.6162109-2.2480469,2.5673828c-0.2148438,0.9516602-1.1894531,2.3071289-1.1894531,2.3071289
		s-3.5527344-1.0996094-6.0058594-2.6791992l-1.5273438-1.6821289c0,0,2.2871094-2.7382813,3.4257813-4.0336914
		c0.8730469-1.8168945-0.7070313-3.8261719-0.7070313-3.8261719l3.3320313-4.0976563
		C41.1582031,18.7260742,42.8164063,21.5249023,43.7167969,22.5336914z"/>
	<path d="M42.640625,35.7949219c-0.0742188,0-0.1484375-0.0107422-0.2216797-0.0332031
		c-0.1494141-0.046875-3.6796875-1.1484375-6.1904297-2.765625c-0.0546875-0.0351563-0.1054688-0.0776367-0.1494141-0.1259766
		l-1.5273438-1.6821289c-0.2509766-0.2773438-0.2597656-0.6977539-0.0195313-0.9853516
		c0.0224609-0.0268555,2.2089844-2.6445313,3.3632813-3.9633789c0.5615234-1.3408203-0.6464844-2.9360352-0.6591797-2.9521484
		c-0.2167969-0.2753906-0.2128906-0.6645508,0.0078125-0.9365234l3.3320313-4.0976563
		c0.1552734-0.1899414,0.3964844-0.2978516,0.6376953-0.2749023c0.2441406,0.0180664,0.4648438,0.1547852,0.5898438,0.3657227
		c0.015625,0.0273438,1.6308594,2.7475586,2.4726563,3.6904297c0.0732422,0.081543,0.1269531,0.1787109,0.1591797,0.2836914
		c0.1679688,0.559082,0.4404297,1.1538086,0.6503906,1.4472656l0.2841797-0.0429688
		c0.6464844-0.1010742,1.1572266-0.1811523,1.6220703-0.1811523c1.3632813,0,2.0126953,0.7524414,2.5693359,1.8818359
		l1.4355469,3.152832c0.1513672,0.3330078,0.0410156,0.7270508-0.2626953,0.9321289l-3.7539063,2.5371094
		c-0.1884766,0.1269531-0.4267578,0.1630859-0.6445313,0.09375c-0.21875-0.0683594-0.3935547-0.2324219-0.4755859-0.4458008
		l-0.0986328-0.2563477c-0.6113281,0.574707-1.1337891,1.1743164-1.2001953,1.4663086
		c-0.2412109,1.0698242-1.203125,2.4282227-1.3115234,2.5795898C43.1064453,35.6826172,42.8779297,35.7949219,42.640625,35.7949219z
		 M37.1230469,31.7875977c1.7832031,1.128418,4.1660156,2.0083008,5.2109375,2.3657227
		c0.2929688-0.4638672,0.6601563-1.1171875,0.7646484-1.5805664c0.2529297-1.121582,1.9873047-2.5717773,2.5126953-2.9892578
		c0.1865234-0.1489258,0.4306641-0.2001953,0.6640625-0.1367188c0.2304688,0.0625,0.4169922,0.2314453,0.5029297,0.4541016
		l0.1435547,0.3730469l2.4472656-1.6538086l-1.1630859-2.5551758c-0.4794922-0.9731445-0.7744141-1.0239258-1.2138672-1.0239258
		c-0.3476563,0-0.8085938,0.0717773-1.390625,0.1630859l-0.6591797,0.1005859
		c-0.1806641,0.0263672-0.3623047-0.0136719-0.5136719-0.1113281c-0.7246094-0.465332-1.1982422-1.7211914-1.3808594-2.2871094
		c-0.6035156-0.7167969-1.4335938-2.0063477-1.9775391-2.8828125l-2.3144531,2.8452148
		c0.4853516,0.8164063,1.2314453,2.4858398,0.453125,4.105957c-0.0292969,0.0620117-0.0673828,0.1191406-0.1123047,0.1704102
		c-0.8261719,0.9399414-2.2802734,2.6674805-2.9941406,3.5185547L37.1230469,31.7875977z"/>
</g>
<g>
	<path style="fill:#183447;" d="M16.3085938,30.375l-0.4643555-1.5874023l-1.7929688,0.6293945
		c0,0-1.0957031-0.605957-1.4150391-1.8037109s-0.0932617-2.0102539-1.1972656-2.1430664s-2.0727539,2.9106445-1.6381836,4.0825195
		c0,0,2.140625,2.3706055,2.1098633,3.3422852l1.2607422,0.8120117l0.7705078,0.4960938c0,0,2.0498047-1.3666992,1.690918-2.1635742
		L16.3085938,30.375z"/>
	<path d="M13.9418945,34.953125c-0.1411133,0-0.2822266-0.0400391-0.40625-0.1191406l-2.03125-1.3085938
		c-0.2211914-0.1425781-0.3515625-0.390625-0.3432617-0.6542969c-0.0131836-0.375-0.9267578-1.7192383-1.9169922-2.815918
		c-0.0639648-0.0703125-0.1132813-0.1523438-0.1464844-0.2416992C8.6801758,28.6875,9.1806641,26.6782227,9.9077148,25.6333008
		c0.5273438-0.7583008,1.0854492-0.9174805,1.4609375-0.9174805c0.0297852,0,0.1303711,0.0063477,0.159668,0.0097656
		c1.3862305,0.1665039,1.5566406,1.1933594,1.6811523,1.9428711c0.0375977,0.2255859,0.0786133,0.4775391,0.1513672,0.7514648
		c0.1479492,0.5546875,0.5405273,0.9501953,0.8037109,1.1625977l1.4311523-0.5024414
		c0.1928711-0.0683594,0.4072266-0.0541992,0.5913086,0.0405273c0.1826172,0.09375,0.3193359,0.2587891,0.3769531,0.456543
		l0.4643555,1.5874023c0.0473633,0.1621094,0.0385742,0.3359375-0.0249023,0.4926758l-0.5854492,1.4423828
		c0.125,1.1289063-1.3608398,2.2617188-2.0600586,2.7275391C14.2319336,34.9111328,14.0869141,34.953125,13.9418945,34.953125z
		 M12.5986328,32.4458008l1.3183594,0.8491211c0.4907227-0.3837891,0.9160156-0.8188477,0.9985352-1.0371094
		c-0.0498047-0.1635742-0.0424805-0.340332,0.0224609-0.5004883l0.5776367-1.4223633l-0.1689453-0.5776367l-1.046875,0.3671875
		c-0.2016602,0.0703125-0.4238281,0.0512695-0.6113281-0.0512695c-0.0561523-0.0307617-1.3798828-0.7773438-1.7768555-2.2666016
		c-0.0869141-0.3256836-0.137207-0.6245117-0.1821289-0.8925781c-0.1103516-0.6669922-0.1103516-0.6669922-0.3798828-0.6992188
		c-0.4091797,0.1743164-1.0698242,2.1074219-0.8793945,2.9614258C11.1210938,29.909668,12.3134766,31.3608398,12.5986328,32.4458008
		z"/>
</g>
<g>
	<path style="fill:#183447;" d="M33.1367188,53.8027344l-0.8461914-1.1386719l2.5004883,0.3222656
		c0,0,0.7871094,1.7949219,1.2226563-0.3242188l0.7910156,0.5097656l-0.2363281,2.8417969
		c0,0-0.0957031,1.5253906-1.5644531,3.3535156c-1.5898438,1.9804688-1.7128906-0.6074219-1.7988281-2.1484375l0.3300781-1.5722656
		L33.1367188,53.8027344z"/>
	<path d="M34.0429688,60.8339844c-1.3881836,0-1.496582-1.9501953-1.5834961-3.5175781
		c-0.0039063-0.0654297-0.0019531-0.1875,0.0117188-0.2519531l0.2973633-1.4160156l-0.3305664-1.5283203l-0.7495117-1.0087891
		c-0.1791992-0.2412109-0.1972656-0.5664063-0.0449219-0.8261719c0.1523438-0.2587891,0.4438477-0.4003906,0.7426758-0.3652344
		l2.5004883,0.3222656c0.15625,0.0205078,0.2998047,0.0888672,0.4121094,0.1923828
		c0.0664063-0.2080078,0.2207031-0.3779297,0.4238281-0.4638672c0.2285156-0.0947266,0.4892578-0.0732422,0.6972656,0.0605469
		l0.7910156,0.5097656c0.2333984,0.1503906,0.3642578,0.4169922,0.3408203,0.6933594l-0.2363281,2.8417969
		C37.3125,56.1328125,37.1875,57.8466797,35.5888672,59.8369141C35.2451172,60.2646484,34.7109375,60.8339844,34.0429688,60.8339844
		z M33.9589844,57.2753906c0.0302734,0.53125,0.0869141,1.4257813,0.2167969,1.8974609
		c0.0654297-0.0654297,0.1464844-0.1542969,0.2431641-0.2753906c1.28125-1.59375,1.4003906-2.9238281,1.4013672-2.9365234
		l0.1376953-1.6552734c-0.1445313,0.0878906-0.3154297,0.140625-0.5166016,0.140625
		c-0.5292969,0-0.9023438-0.4052734-1.1289063-0.765625l-0.4472656-0.0576172
		c0.0009766,0.0068359,0.0029297,0.0146484,0.0048828,0.0214844l0.3984375,1.84375
		c0.0214844,0.1025391,0.0224609,0.2089844,0.0009766,0.3125L33.9589844,57.2753906z"/>
</g>
<g>
	<path style="fill:#183447;" d="M43.7167969,22.5336914c0,0-2.2675781,7.715332-0.0351563,11.3588867l-1.6699219-0.640625
		c0,0-2.1953125-4.2797852,0.6601563-12.2387695L43.7167969,22.5336914z"/>
	<path d="M43.6816406,34.6425781c-0.0898438,0-0.1806641-0.0166016-0.2685547-0.0498047l-1.6699219-0.640625
		c-0.1728516-0.0664063-0.3144531-0.1933594-0.3984375-0.3574219c-0.0957031-0.1875-2.3105469-4.6635742,0.6210938-12.8349609
		c0.0947266-0.2646484,0.3300781-0.4541016,0.609375-0.4902344c0.2783203-0.0366211,0.5556641,0.0864258,0.7148438,0.3188477
		l1.0449219,1.5205078c0.1279297,0.1860352,0.1650391,0.4194336,0.1015625,0.6362305
		c-0.0214844,0.0727539-2.0976563,7.2680664-0.1855469,10.6367188c0.125,0.1347656,0.2001953,0.3134766,0.2001953,0.5107422
		c0,0.4140625-0.3349609,0.75-0.75,0.75C43.6962891,34.6425781,43.6875,34.6425781,43.6816406,34.6425781z M42.7900391,23.1005859
		c-0.6230469,2.2143555-0.8261719,4.0756836-0.8261719,5.5610352C42.046875,26.390625,42.5117188,24.2211914,42.7900391,23.1005859z
		"/>
</g>
<g>
	<path style="fill:#183447;" d="M34.9082031,30.1474609l1.328125-1.1582031c0,0,1.0820313,2.3188477,2.3125,2.8696289
		c1.2304688,0.5498047,5.1328125,2.0336914,5.1328125,2.0336914l1.890625,1.21875l-1.1191406,4.1738281l-3.8417969-0.1132813
		l1.2441406-4.1367188l-4.6289063-1.8925781L34.9082031,30.1474609z"/>
	<path d="M44.453125,40.0351563c-0.0068359,0-0.0146484,0-0.0224609,0l-3.8417969-0.1132813
		c-0.2324219-0.0068359-0.4492188-0.1220703-0.5859375-0.3115234s-0.1767578-0.4306641-0.109375-0.6542969l1.0478516-3.484375
		l-3.9990234-1.6347656c-0.1220703-0.0498047-0.2285156-0.1308594-0.3085938-0.2353516l-2.3183594-2.9951172
		c-0.2431641-0.3139648-0.1992188-0.7631836,0.0996094-1.0244141l1.328125-1.1582031
		c0.1777344-0.1547852,0.4169922-0.2182617,0.6484375-0.1679688c0.2294922,0.0483398,0.4238281,0.2026367,0.5244141,0.4155273
		c0.3740234,0.7998047,1.2324219,2.1865234,1.9394531,2.5029297c1.1962891,0.534668,5.0537109,2.0024414,5.0927734,2.0170898
		c0.0488281,0.0185547,0.0957031,0.0419922,0.1396484,0.0703125l1.890625,1.21875
		c0.2744141,0.1767578,0.4023438,0.5107422,0.3183594,0.8251953l-1.1191406,4.1738281
		C45.0898438,39.8076172,44.7919922,40.0351563,44.453125,40.0351563z M41.6113281,38.4511719l2.2714844,0.0664063
		l0.8232422-3.0722656l-1.3642578-0.8798828c-0.5605469-0.2128906-3.9423828-1.5048828-5.0986328-2.0219727
		c-0.9414063-0.4213867-1.7451172-1.5566406-2.2246094-2.3696289l-0.0839844,0.0737305l1.7617188,2.2768555l4.4433594,1.8164063
		c0.3574219,0.1464844,0.5449219,0.5400391,0.4335938,0.9101563L41.6113281,38.4511719z"/>
</g>
<polygon style="fill:#3F3D3A;" points="24.2729492,5.4453125 17.144043,7.1123047 8.1025391,8.0087891 8.0571289,8.0600586 
	-1.7753906,8.4458008 -2.2724609,22.0512695 -2.2724609,29.8349609 7.6826172,23.1953125 19.644043,13.9453125 
	26.2275391,10.4453125 32.7202148,5.0288086 "/>
<g>
	<line style="fill:#2B9CF9;" x1="32.7202148" y1="31.8266602" x2="31.4995117" y2="35.2617188"/>
	<path d="M31.4995117,36.0117188c-0.0834961,0-0.1679688-0.0136719-0.2509766-0.0429688
		c-0.390625-0.1386719-0.5942383-0.5673828-0.4555664-0.9580078l1.2207031-3.4350586
		c0.1381836-0.3911133,0.565918-0.5961914,0.9575195-0.4555664c0.3901367,0.1386719,0.5942383,0.5673828,0.4555664,0.9575195
		l-1.2207031,3.4350586C32.097168,35.8203125,31.8081055,36.0117188,31.4995117,36.0117188z"/>
</g>
<g>
	<line style="fill:#2B9CF9;" x1="45.5703125" y1="29.2895508" x2="46.2753906" y2="30.6835938"/>
	<path d="M46.2763672,31.4335938c-0.2744141,0-0.5380859-0.1503906-0.6699219-0.4116211l-0.7050781-1.394043
		c-0.1875-0.3696289-0.0390625-0.8208008,0.3300781-1.0078125c0.3701172-0.1870117,0.8212891-0.0380859,1.0078125,0.3310547
		l0.7050781,1.394043c0.1875,0.3696289,0.0390625,0.8208008-0.3300781,1.0078125
		C46.5058594,31.4077148,46.3896484,31.4335938,46.2763672,31.4335938z"/>
</g>
<path d="M46.7851563,23.0288086c-0.0166016,0-0.0332031-0.0014648-0.0498047-0.0048828l-2.8339844-0.581543
	c-0.1357422-0.027832-0.2226563-0.1601563-0.1953125-0.2954102s0.1611328-0.2211914,0.2949219-0.1948242l2.8339844,0.581543
	c0.1357422,0.027832,0.2226563,0.1601563,0.1953125,0.2954102C47.0058594,22.9472656,46.9013672,23.0288086,46.7851563,23.0288086z"
	/>
<path d="M35.1074219,41.6132813c-0.0097656,0-0.0205078-0.0009766-0.0302734-0.0019531
	c-0.1376953-0.0166016-0.234375-0.1416016-0.2177734-0.2783203l0.453125-3.6679688
	c0.0166016-0.1376953,0.1386719-0.2333984,0.2783203-0.2177734c0.1376953,0.0166016,0.234375,0.1416016,0.2177734,0.2783203
	l-0.453125,3.6679688C35.3398438,41.5205078,35.2324219,41.6132813,35.1074219,41.6132813z"/>
<path d="M42.2382813,33.0908203c-0.1191406,0-0.2246094-0.0849609-0.2460938-0.206543
	c-0.9882813-5.5263672,0.9970703-11.4912109,1.0166016-11.5507813c0.0449219-0.1303711,0.1865234-0.199707,0.3173828-0.1567383
	c0.1308594,0.0444336,0.2011719,0.1860352,0.1572266,0.3168945c-0.0205078,0.0585938-1.9638672,5.9052734-0.9990234,11.3027344
	c0.0244141,0.1357422-0.0664063,0.2661133-0.2021484,0.2905273C42.2675781,33.0888672,42.2529297,33.0908203,42.2382813,33.0908203z
	"/>
<path d="M45.5722656,35.3613281c-0.0166016,0-0.0351563-0.0019531-0.0527344-0.0058594l-3.1113281-0.6660156l-5.1152344-2.2651367
	c-0.0410156-0.0180664-0.0761719-0.0473633-0.1025391-0.0839844l-2.0605469-2.90625
	c-0.0800781-0.112793-0.0527344-0.2685547,0.0595703-0.3486328c0.1132813-0.0791016,0.2685547-0.0527344,0.3486328,0.0595703
	l2.0205078,2.8500977L42.5625,34.2167969l3.0625,0.6503906c0.1347656,0.0283203,0.2207031,0.1611328,0.1914063,0.296875
	C45.7919922,35.28125,45.6875,35.3613281,45.5722656,35.3613281z"/>
<path d="M41.5683594,35.5117188c-0.0253906,0-0.0517578-0.0039063-0.078125-0.0126953
	c-0.1308594-0.0429688-0.2021484-0.1845703-0.1591797-0.3154297L41.6787109,34.125
	c0.0419922-0.1308594,0.1796875-0.203125,0.3154297-0.1591797c0.1308594,0.0429688,0.2021484,0.1845703,0.1591797,0.3154297
	l-0.3476563,1.0585938C41.7714844,35.4453125,41.6738281,35.5117188,41.5683594,35.5117188z"/>
<path d="M44.7285156,34.1425781c-0.0634766,0-0.1259766-0.0234375-0.1748047-0.0712891
	c-5.3916016-5.2773438-2.1083984-13.6352539-2.0742188-13.71875c0.0517578-0.1293945,0.1933594-0.1894531,0.3251953-0.1386719
	c0.1279297,0.0517578,0.1894531,0.1972656,0.1376953,0.3251953c-0.0322266,0.0810547-3.1894531,8.1337891,1.9609375,13.1748047
	c0.0986328,0.0966797,0.1005859,0.2548828,0.0039063,0.3535156C44.8583984,34.1171875,44.7929688,34.1425781,44.7285156,34.1425781z
	"/>
<path style="fill:#0678C6;" d="M52.8105469,20.1123047h-2.3847656v2.3754883
	C50.4257813,22.487793,52.4785156,22.1123047,52.8105469,20.1123047z"/>
<polygon style="fill:#0678C6;" points="27.2290039,32.2006836 26.894043,29.8349609 29.2099609,30.5302734 31.4995117,31.0180664 
	30.8110352,33.5449219 29.7275391,32.840332 28.4599609,31.8891602 "/>
</svg>
