<?xml version="1.0" encoding="utf-8"?>
<!-- Generator: Adobe Illustrator 15.0.2, SVG Export Plug-In . SVG Version: 6.00 Build 0)  -->
<!DOCTYPE svg PUBLIC "-//W3C//DTD SVG 1.1//EN" "http://www.w3.org/Graphics/SVG/1.1/DTD/svg11.dtd">
<svg version="1.1" id="レイヤー_1" xmlns="http://www.w3.org/2000/svg" xmlns:xlink="http://www.w3.org/1999/xlink" x="0px"
	 y="0px" width="64px" height="64px" viewBox="0 0 64 64" style="enable-background:new 0 0 64 64;" xml:space="preserve">
<g>
	<g>
		<linearGradient id="SVGID_1_" gradientUnits="userSpaceOnUse" x1="29.1650391" y1="28.0756836" x2="52.4149857" y2="86.9926453">
			<stop  offset="0" style="stop-color:#C2E9FF"/>
			<stop  offset="1" style="stop-color:#0079DD"/>
		</linearGradient>
		<path style="fill:url(#SVGID_1_);" d="M34.4160156,6.2607422C33.6669922,4.1357422,32.625,3.8642578,32,3.8642578
			s-1.6669922,0.2714844-2.4165039,2.3964844c-0.2480469,0.703125-4.5209961,0.9375-4.5209961,8.4375c0,6.3125,0,43.8125,0,43.8125
			H32h6.9375c0,0,0-37.5,0-43.8125C38.9375,7.1982422,34.6640625,6.9638672,34.4160156,6.2607422z"/>
		<path style="fill:#03BFD8;" d="M38.9375,58.7607422h-13.875c-0.1381836,0-0.25-0.1123047-0.25-0.25v-43.8125
			c0-6.0292969,2.7094727-7.4882813,4.0117188-8.1894531c0.2172852-0.1171875,0.487793-0.2626953,0.5244141-0.3339844
			C29.9477539,4.4765625,30.8398438,3.6142578,32,3.6142578s2.0527344,0.8623047,2.6513672,2.5634766
			c0.0361328,0.0683594,0.3066406,0.2138672,0.5234375,0.3310547C36.4775391,7.2099609,39.1875,8.6689453,39.1875,14.6982422
			v43.8125C39.1875,58.6484375,39.0751953,58.7607422,38.9375,58.7607422z M25.3125,58.2607422h13.375v-43.5625
			c0-5.7304688-2.5322266-7.0947266-3.7490234-7.75C34.5332031,6.7304688,34.265625,6.5869141,34.1806641,6.34375
			C33.6591797,4.8642578,32.925293,4.1142578,32,4.1142578s-1.6591797,0.75-2.1806641,2.2294922
			c-0.0859375,0.2431641-0.3530273,0.3867188-0.7578125,0.6044922c-1.2167969,0.6552734-3.7490234,2.0195313-3.7490234,7.75
			V58.2607422z"/>
	</g>
	<g>
		<linearGradient id="SVGID_2_" gradientUnits="userSpaceOnUse" x1="31.9995117" y1="57.6572266" x2="31.9995117" y2="67.4104309">
			<stop  offset="0" style="stop-color:#C2E9FF"/>
			<stop  offset="1" style="stop-color:#0079DD"/>
		</linearGradient>
		<path style="fill:url(#SVGID_2_);" d="M39.5,59.3232422c0,0.4492188-0.3632813,0.8125-0.8125,0.8125h-13.375
			c-0.4487305,0-0.8125-0.3632813-0.8125-0.8125l0,0c0-0.4492188,0.3637695-0.8125,0.8125-0.8125h13.375
			C39.1367188,58.5107422,39.5,58.8740234,39.5,59.3232422L39.5,59.3232422z"/>
		<path style="fill:#03BFD8;" d="M38.6875,60.3857422h-13.375c-0.5859375,0-1.0625-0.4765625-1.0625-1.0625
			s0.4765625-1.0625,1.0625-1.0625h13.375c0.5859375,0,1.0625,0.4765625,1.0625,1.0625S39.2734375,60.3857422,38.6875,60.3857422z
			 M25.3125,58.7607422c-0.3100586,0-0.5625,0.2519531-0.5625,0.5625s0.2524414,0.5625,0.5625,0.5625h13.375
			c0.3105469,0,0.5625-0.2519531,0.5625-0.5625s-0.2519531-0.5625-0.5625-0.5625H25.3125z"/>
	</g>
	
		<ellipse transform="matrix(0.8907059 0.45458 -0.45458 0.8907059 8.1456547 -11.8552856)" style="fill:#FFFFFF;" cx="28.7272949" cy="11.012207" rx="1.0451353" ry="1.3140628"/>
	<linearGradient id="SVGID_3_" gradientUnits="userSpaceOnUse" x1="28.277832" y1="17.137207" x2="28.2778301" y2="48.6238251">
		<stop  offset="0" style="stop-color:#FFFFFF"/>
		<stop  offset="1" style="stop-color:#FFFFFF;stop-opacity:0"/>
	</linearGradient>
	<path style="fill:url(#SVGID_3_);" d="M28.9838867,52.4941406c0,0.3662109-0.315918,0.6630859-0.7055664,0.6630859l0,0
		c-0.3896484,0-0.7060547-0.296875-0.7060547-0.6630859V14.9033203c0-0.3662109,0.3164063-0.6630859,0.7060547-0.6630859l0,0
		c0.3896484,0,0.7055664,0.296875,0.7055664,0.6630859V52.4941406z"/>
</g>
</svg>
