<?xml version="1.0" encoding="utf-8"?>
<!-- Generator: Adobe Illustrator 15.0.2, SVG Export Plug-In . SVG Version: 6.00 Build 0)  -->
<!DOCTYPE svg PUBLIC "-//W3C//DTD SVG 1.1//EN" "http://www.w3.org/Graphics/SVG/1.1/DTD/svg11.dtd">
<svg version="1.1" id="レイヤー_1" xmlns="http://www.w3.org/2000/svg" xmlns:xlink="http://www.w3.org/1999/xlink" x="0px"
	 y="0px" width="64px" height="64px" viewBox="0 0 64 64" style="enable-background:new 0 0 64 64;" xml:space="preserve">
<g>
	<g>
		<path style="fill:#541715;" d="M32,55.5605469c-8.1533203,0-13.6542969-1.1162109-17.1025391-3.4931641l-7.6367188-0.9970703
			c-4.137207-0.5410156-7.0644531-4.3457031-6.5258789-8.4833984l0.6865234-5.2666016
			c0.1103516-0.8486328,0.3603516-1.6572266,0.7329102-2.3994141c-0.3842773-1.6972656-0.1757813-3.5141602,0.6738281-5.1445313
			l2.456543-4.7114258c0.5473633-1.0498047,1.3144531-1.9326172,2.2338867-2.6040039
			c0.3618164-1.3730469,1.105957-2.6425781,2.1865234-3.6337891l3.9125977-3.590332
			c1.1245117-1.0317383,2.5205078-1.6899414,4.0131836-1.9067383c1.0615234-1.699707,2.7905273-2.9790039,4.9042969-3.4106445
			l5.2075195-1.0600586c1.4267578-0.2919922,2.9321289-0.1479492,4.2578125,0.3759766
			c1.3266602-0.5244141,2.831543-0.6674805,4.2602539-0.3754883l5.2021484,1.059082
			c2.1142578,0.4316406,3.84375,1.7114258,4.90625,3.4116211c1.4921875,0.2163086,2.8886719,0.8745117,4.0126953,1.9057617
			l3.9130859,3.5913086c1.078125,0.9907227,1.8212891,2.2592773,2.1845703,3.6308594
			c0.9208984,0.6723633,1.6904297,1.5576172,2.2382813,2.6108398l2.4541016,4.7050781
			c0.8525391,1.6328125,1.0605469,3.4521484,0.6748047,5.1503906c0.3730469,0.7431641,0.6220703,1.5527344,0.7314453,2.4013672
			l0.6865234,5.2587891c0.5371094,4.140625-2.390625,7.9453125-6.5253906,8.4853516l-7.6367188,0.9970703
			C45.65625,54.4443359,40.1542969,55.5605469,32,55.5605469z M9.5395508,42.5654297l7.6674805,1.0009766
			c0.890625,0.1162109,1.7231445,0.5039063,2.3847656,1.1103516C20.1435547,45.1826172,22.6679688,46.8320313,32,46.8320313
			c9.3339844,0,11.8564453-1.6484375,12.4072266-2.1542969c0.6611328-0.6074219,1.4951172-0.9951172,2.3857422-1.1113281
			l7.6669922-1.0009766l-0.4677734-3.5820313c-0.8994141-0.7080078-1.4912109-1.7470703-1.6328125-2.8984375
			c-0.1289063-1.0527344,0.1308594-2.1044922,0.7119141-2.9677734l-1.8154297-3.4794922
			c-1.0703125-0.2421875-2.0195313-0.8818359-2.6455078-1.8027344c-0.609375-0.8959961-0.859375-1.9785156-0.7167969-3.0351563
			l-2.6855469-2.4648438c-1.2871094,0.7709961-2.9111328,0.8383789-4.28125,0.112793
			c-1.5537109-0.8217773-2.4472656-2.4829102-2.3105469-4.2011719l-3.359375-0.684082
			c-0.8193359,0.918457-2,1.4589844-3.2568359,1.4589844c-1.2563477,0-2.4370117-0.5405273-3.2563477-1.4584961
			l-3.3588867,0.6835938c0.137207,1.7211914-0.7587891,3.3852539-2.315918,4.2060547
			c-1.3720703,0.722168-2.9946289,0.6518555-4.277832-0.1166992l-2.6845703,2.4633789
			C16.2485352,25.8549805,16,26.9360352,15.3920898,27.8320313c-0.6264648,0.9223633-1.5766602,1.5629883-2.6479492,1.8056641
			l-1.8144531,3.4794922c0.581543,0.8652344,0.840332,1.9189453,0.7099609,2.9716797
			c-0.1420898,1.1503906-0.734375,2.1884766-1.6328125,2.8945313L9.5395508,42.5654297z"/>
		<g>
			<g>
				<g>
					
						<linearGradient id="SVGID_1_" gradientUnits="userSpaceOnUse" x1="14.0610352" y1="48.8681641" x2="19.7094059" y2="41.1863708">
						<stop  offset="0" style="stop-color:#FFF3E6"/>
						<stop  offset="0.3027039" style="stop-color:#FFEDD9"/>
						<stop  offset="0.8623517" style="stop-color:#FFDDB7"/>
						<stop  offset="1" style="stop-color:#FFD9AD"/>
					</linearGradient>
					<path style="fill:url(#SVGID_1_);" d="M32.0859375,47.9160156c-0.2373047,1.8554688-1.9482422,3.171875-3.8022461,2.9257813
						L6.6147461,47.9628906c-1.8540039-0.2460938-3.1762695-1.9648438-2.9389648-3.8203125l0.7294922-5.703125
						c0.2373047-1.8554688,1.9482422-3.171875,3.8022461-2.9257813l21.6699219,2.8789063
						c1.8540039,0.2460938,3.1762695,1.9648438,2.9389648,3.8203125L32.0859375,47.9160156z"/>
				</g>
				<path style="fill:#E8BF9A;" d="M28.7299805,51.6035156c-0.1791992,0-0.3603516-0.0126953-0.5424805-0.0361328
					L6.5185547,48.6884766c-2.2563477-0.2998047-3.8574219-2.3808594-3.5683594-4.6386719l0.7294922-5.703125
					c0.284668-2.2265625,2.3388672-3.8574219,4.6240234-3.5585938l21.6699219,2.8789063
					c2.2563477,0.2998047,3.8574219,2.3808594,3.5683594,4.6386719l-0.7304688,5.703125
					C32.5498047,50.0576172,30.7949219,51.6035156,28.7299805,51.6035156z M7.7612305,36.2158203
					c-1.3305664,0-2.4614258,0.9960938-2.6303711,2.3164063l-0.7294922,5.703125
					c-0.1870117,1.4619141,0.8491211,2.8085938,2.3095703,3.0019531l21.6689453,2.8789063
					c1.472168,0.1972656,2.796875-0.8574219,2.9804688-2.2929688l0.7304688-5.703125
					c0.1870117-1.4619141-0.8491211-2.8085938-2.3095703-3.0019531L8.1113281,36.2392578
					C7.9936523,36.2236328,7.8769531,36.2158203,7.7612305,36.2158203z"/>
			</g>
			<g>
				<g>
					
						<linearGradient id="SVGID_2_" gradientUnits="userSpaceOnUse" x1="17.0766602" y1="38.8740234" x2="21.2350101" y2="34.0226173">
						<stop  offset="0" style="stop-color:#FFF3E6"/>
						<stop  offset="0.3027039" style="stop-color:#FFEDD9"/>
						<stop  offset="0.8623517" style="stop-color:#FFDDB7"/>
						<stop  offset="1" style="stop-color:#FFD9AD"/>
					</linearGradient>
					<path style="fill:url(#SVGID_2_);" d="M30.7958984,45.4609375c-0.8515625,1.6650391-2.8999023,2.3095703-4.5512695,1.4316406
						L6.8442383,36.5820313c-1.6513672-0.8779297-2.3051758-2.9580078-1.453125-4.6225586l2.5986328-5.078125
						c0.8520508-1.6645508,2.9003906-2.309082,4.5517578-1.4316406l19.4013672,10.3081055
						c1.6508789,0.8779297,2.3051758,2.9580078,1.4536133,4.6230469L30.7958984,45.4609375z"/>
				</g>
				<path style="fill:#E8BF9A;" d="M27.8134766,48.0166016c-0.6625977,0-1.3237305-0.1650391-1.9121094-0.4775391
					L6.5009766,37.2285156c-2.0063477-1.0673828-2.7963867-3.5800781-1.7612305-5.6025391l2.5986328-5.078125
					c0.7016602-1.3706055,2.0942383-2.222168,3.6347656-2.222168c0.6621094,0,1.3232422,0.1650391,1.9116211,0.4780273
					l19.4013672,10.3076172c2.0058594,1.0673828,2.7958984,3.5800781,1.7617188,5.6025391l-2.6005859,5.0800781
					C30.7460938,47.1650391,29.3535156,48.0166016,27.8134766,48.0166016z M10.9731445,25.7890625
					c-0.9882813,0-1.8818359,0.5463867-2.3320313,1.4257813l-2.5986328,5.078125
					c-0.6733398,1.3154297-0.159668,2.9492188,1.1450195,3.6425781l19.4003906,10.3105469
					c1.2641602,0.6728516,2.9116211,0.1425781,3.5566406-1.1181641l2.6005859-5.0800781
					c0.6728516-1.3154297,0.1586914-2.9501953-1.1459961-3.6445313L12.1982422,26.0957031
					C11.8149414,25.8920898,11.402832,25.7890625,10.9731445,25.7890625z"/>
			</g>
			<g>
				<g>
					<g>
						
							<linearGradient id="SVGID_3_" gradientUnits="userSpaceOnUse" x1="19.8413086" y1="32.722168" x2="28.723341" y2="26.7618542">
							<stop  offset="0" style="stop-color:#FFF3E6"/>
							<stop  offset="0.3027039" style="stop-color:#FFEDD9"/>
							<stop  offset="0.8623517" style="stop-color:#FFDDB7"/>
							<stop  offset="1" style="stop-color:#FFD9AD"/>
						</linearGradient>
						<path style="fill:url(#SVGID_3_);" d="M31.0327148,43.0107422c-1.3662109,1.2773438-3.5078125,1.1855469-4.7587891-0.2050781
							L11.4545898,26.3452148c-1.2509766-1.3896484-1.1572266-3.5717773,0.2089844-4.8486328l4.1113281-3.84375
							c1.3662109-1.2768555,3.5078125-1.1845703,4.7592773,0.2050781l14.8193359,16.4594727
							c1.2519531,1.3896484,1.1572266,3.5712891-0.2080078,4.8486328L31.0327148,43.0107422z"/>
					</g>
					<path style="fill:#E8BF9A;" d="M28.7539063,44.6435547c-1.1508789,0-2.2529297-0.4912109-3.0239258-1.3486328
						L10.9106445,26.8349609c-1.519043-1.6879883-1.4057617-4.3222656,0.253418-5.8730469l4.1113281-3.84375
						c0.7573242-0.7075195,1.7436523-1.0976563,2.777832-1.0976563c1.1508789,0,2.253418,0.4912109,3.0244141,1.3476563
						L35.8974609,33.828125c1.5195313,1.6865234,1.40625,4.3203125-0.2519531,5.8720703l-4.1132813,3.8447266
						C30.7749023,44.2529297,29.7880859,44.6435547,28.7539063,44.6435547z M18.0532227,17.4838867
						c-0.6616211,0-1.293457,0.25-1.7788086,0.7036133l-4.1113281,3.84375
						c-1.0800781,1.0097656-1.1542969,2.7250977-0.1645508,3.8242188l14.8193359,16.4609375
						c0.9379883,1.0429688,2.6894531,1.1181641,3.715332,0.1601563l4.1123047-3.8447266
						c1.0800781-1.0107422,1.1542969-2.7265625,0.1640625-3.8251953L19.9902344,18.3476563
						C19.4960938,17.7988281,18.7900391,17.4838867,18.0532227,17.4838867z"/>
				</g>
			</g>
			<g>
				<g>
					
						<linearGradient id="SVGID_4_" gradientUnits="userSpaceOnUse" x1="20.2670898" y1="26.8276367" x2="36.8564453" y2="26.8276367">
						<stop  offset="0" style="stop-color:#FFF3E6"/>
						<stop  offset="0.3027039" style="stop-color:#FFEDD9"/>
						<stop  offset="0.8623517" style="stop-color:#FFDDB7"/>
						<stop  offset="1" style="stop-color:#FFD9AD"/>
					</linearGradient>
					<path style="fill:url(#SVGID_4_);" d="M32.4057617,14.6049805c-0.3666992-1.8339844-2.1645508-3.0234375-3.9956055-2.6435547
						l-5.4140625,1.1230469c-1.8310547,0.3798828-3.0292969,2.1914063-2.6630859,4.0253906l4.3837891,21.9418945
						c0.3662109,1.8339844,2.1640625,3.0224609,3.9951172,2.6425781l5.4160156-1.1240234
						c1.8310547-0.3798828,3.0292969-2.1914063,2.6630859-4.0253906L32.4057617,14.6049805z"/>
				</g>
				<path style="fill:#E8BF9A;" d="M28.0258789,42.4970703c-0.0004883,0-0.0004883,0-0.0004883,0
					c-1.9506836,0-3.644043-1.3886719-4.0258789-3.3017578L19.6157227,17.253418
					c-0.4458008-2.2319336,1.0039063-4.4233398,3.2319336-4.8852539l5.4140625-1.1230469
					c0.2749023-0.0571289,0.5556641-0.0859375,0.8344727-0.0859375c1.9506836,0,3.6445313,1.3886719,4.0268555,3.3022461
					l4.3857422,21.9399414c0.4453125,2.2314453-1.0048828,4.4228516-3.2324219,4.8857422l-5.4160156,1.1240234
					C28.5854492,42.4677734,28.3046875,42.4970703,28.0258789,42.4970703z M29.0961914,12.6225586
					c-0.1791992,0-0.3598633,0.0185547-0.5375977,0.0551758l-5.4140625,1.1230469
					c-1.4433594,0.2998047-2.3828125,1.7197266-2.0942383,3.1660156l4.3837891,21.9414063
					c0.2460938,1.2314453,1.3359375,2.125,2.5913086,2.125l0,0c0.1796875,0,0.3603516-0.0185547,0.5380859-0.0556641
					l5.4160156-1.1240234c1.4433594-0.2988281,2.3828125-1.71875,2.09375-3.1650391l-4.3847656-21.9399414
					C31.4418945,13.5166016,30.3520508,12.6225586,29.0961914,12.6225586z"/>
			</g>
			<g>
				<g>
					
						<linearGradient id="SVGID_5_" gradientUnits="userSpaceOnUse" x1="28.7875977" y1="24.3334961" x2="40.1779633" y2="28.6048737">
						<stop  offset="0" style="stop-color:#FFF3E6"/>
						<stop  offset="0.3027039" style="stop-color:#FFEDD9"/>
						<stop  offset="0.8623517" style="stop-color:#FFDDB7"/>
						<stop  offset="1" style="stop-color:#FFD9AD"/>
					</linearGradient>
					<path style="fill:url(#SVGID_5_);" d="M31.5932617,14.6049805c0.3666992-1.8339844,2.1645508-3.0234375,3.9956055-2.6435547
						l5.4160156,1.1230469c1.8310547,0.3798828,3.0292969,2.1914063,2.6630859,4.0253906l-4.3828125,21.9418945
						c-0.3662109,1.8339844-2.1640625,3.0234375-3.9951172,2.6425781l-5.4179688-1.1240234
						c-1.8310547-0.3808594-3.0292969-2.1914063-2.6625977-4.0253906L31.5932617,14.6049805z"/>
				</g>
				<path style="fill:#E8BF9A;" d="M35.9775391,42.4970703c-0.2792969,0-0.5605469-0.0292969-0.8369141-0.0859375
					l-5.4169922-1.1240234c-2.2280273-0.4638672-3.6777344-2.6552734-3.2314453-4.8857422l4.3837891-21.9399414
					c0.3823242-1.9135742,2.0761719-3.3022461,4.0263672-3.3022461c0.2792969,0,0.5605469,0.0288086,0.8349609,0.0859375
					l5.4160156,1.1230469c2.2275391,0.4619141,3.6777344,2.6533203,3.2324219,4.8847656l-4.3828125,21.9423828
					C39.6201172,41.1083984,37.9277344,42.4970703,35.9775391,42.4970703z M34.9023438,12.6225586
					c-1.2548828,0-2.3452148,0.894043-2.5917969,2.1259766l-4.3837891,21.9399414
					c-0.2885742,1.4453125,0.6503906,2.8652344,2.0942383,3.1650391l5.4174805,1.1240234
					c1.4296875,0.2958984,2.8476563-0.6611328,3.1289063-2.0693359l4.3828125-21.9414063
					c0.2890625-1.4462891-0.6503906-2.8662109-2.09375-3.1660156l-5.4160156-1.1230469
					C35.2626953,12.6411133,35.0820313,12.6225586,34.9023438,12.6225586z"/>
			</g>
			<g>
				<g>
					<g>
						
							<linearGradient id="SVGID_6_" gradientUnits="userSpaceOnUse" x1="37.9492188" y1="27.8564453" x2="45.8327942" y2="35.2313919">
							<stop  offset="0" style="stop-color:#FFF3E6"/>
							<stop  offset="0.3027039" style="stop-color:#FFEDD9"/>
							<stop  offset="0.8623517" style="stop-color:#FFDDB7"/>
							<stop  offset="1" style="stop-color:#FFD9AD"/>
						</linearGradient>
						<path style="fill:url(#SVGID_6_);" d="M32.9658203,43.0107422c1.3662109,1.2773438,3.5068359,1.1855469,4.7587891-0.2050781
							l14.8183594-16.4604492c1.2519531-1.3896484,1.1572266-3.5717773-0.2080078-4.8491211l-4.1113281-3.8427734
							c-1.3652344-1.2773438-3.5068359-1.1850586-4.7587891,0.2045898L28.6459961,34.3164063
							c-1.2509766,1.390625-1.1572266,3.5722656,0.2084961,4.8496094L32.9658203,43.0107422z"/>
					</g>
					<path style="fill:#E8BF9A;" d="M35.2441406,44.6435547L35.2441406,44.6435547
						c-1.0341797,0-2.0205078-0.390625-2.777832-1.0986328l-4.1113281-3.8447266
						c-1.6582031-1.5507813-1.7714844-4.1855469-0.2529297-5.8730469l14.8188477-16.4589844
						c0.7714844-0.8564453,1.8740234-1.3476563,3.0244141-1.3476563c1.0351563,0,2.0214844,0.3901367,2.7783203,1.0986328
						l4.1113281,3.8422852c1.6582031,1.5522461,1.7714844,4.1865234,0.2519531,5.8735352L38.2685547,43.2949219
						C37.4970703,44.1523438,36.3945313,44.6435547,35.2441406,44.6435547z M45.9453125,17.4838867
						c-0.7363281,0-1.4423828,0.3149414-1.9365234,0.8637695L29.1899414,34.8056641
						c-0.9892578,1.0996094-0.9155273,2.8164063,0.1645508,3.8261719l4.1113281,3.8447266
						c0.4853516,0.453125,1.1171875,0.703125,1.7783203,0.703125l0,0c0.7363281,0,1.4423828-0.3144531,1.9365234-0.8632813
						l14.8183594-16.4609375c0.9902344-1.0986328,0.9160156-2.8144531-0.1640625-3.8251953l-4.1113281-3.8422852
						C47.2392578,17.7338867,46.6074219,17.4838867,45.9453125,17.4838867z"/>
				</g>
			</g>
			<g>
				<g>
					<linearGradient id="SVGID_7_" gradientUnits="userSpaceOnUse" x1="43.28125" y1="30.2050781" x2="45.1599083" y2="38.6590538">
						<stop  offset="0" style="stop-color:#FFF3E6"/>
						<stop  offset="0.3027039" style="stop-color:#FFEDD9"/>
						<stop  offset="0.8623517" style="stop-color:#FFDDB7"/>
						<stop  offset="1" style="stop-color:#FFD9AD"/>
					</linearGradient>
					<path style="fill:url(#SVGID_7_);" d="M33.203125,45.4609375c0.8515625,1.6650391,2.9003906,2.3095703,4.5517578,1.4316406
						l19.4003906-10.3105469c1.6513672-0.8779297,2.3056641-2.9580078,1.4541016-4.6225586l-2.5996094-5.078125
						c-0.8515625-1.6645508-2.9003906-2.309082-4.5517578-1.4316406L32.0571289,35.7578125
						c-1.6513672,0.8779297-2.3056641,2.9580078-1.4536133,4.6230469L33.203125,45.4609375z"/>
				</g>
				<path style="fill:#E8BF9A;" d="M36.1865234,48.0166016c-0.0009766,0-0.0009766,0-0.0009766,0
					c-1.5400391,0-2.9326172-0.8515625-3.6337891-2.2226563l-2.5996094-5.0800781
					c-1.0351563-2.0224609-0.2446289-4.5351563,1.7617188-5.6025391l19.4003906-10.3076172
					c0.5888672-0.3129883,1.25-0.4780273,1.9121094-0.4780273c1.5410156,0,2.9335938,0.8515625,3.6347656,2.2226563
					l2.5996094,5.0776367c1.0341797,2.0224609,0.2441406,4.5351563-1.7617188,5.6025391L38.0986328,47.5390625
					C37.5097656,47.8515625,36.8486328,48.0166016,36.1865234,48.0166016z M53.0263672,25.7890625
					c-0.4296875,0-0.8417969,0.1030273-1.2246094,0.3066406L32.4003906,36.4042969
					c-1.3046875,0.6933594-1.8188477,2.328125-1.1455078,3.6435547l2.5996094,5.0800781
					c0.6455078,1.2617188,2.2949219,1.7900391,3.5566406,1.1181641l19.4003906-10.3105469
					c1.3046875-0.6933594,1.8193359-2.3271484,1.1464844-3.6430664l-2.5996094-5.0776367
					C54.9082031,26.3354492,54.0146484,25.7890625,53.0263672,25.7890625z"/>
			</g>
			<g>
				<g>
					
						<linearGradient id="SVGID_8_" gradientUnits="userSpaceOnUse" x1="45.1738281" y1="39.5634766" x2="46.7913818" y2="49.6420288">
						<stop  offset="0" style="stop-color:#FFF3E6"/>
						<stop  offset="0.3027039" style="stop-color:#FFEDD9"/>
						<stop  offset="0.8623517" style="stop-color:#FFDDB7"/>
						<stop  offset="1" style="stop-color:#FFD9AD"/>
					</linearGradient>
					<path style="fill:url(#SVGID_8_);" d="M31.9121094,47.9160156c0.2373047,1.8554688,1.9482422,3.171875,3.8017578,2.9257813
						l21.671875-2.8789063c1.8535156-0.2460938,3.1757813-1.9648438,2.9384766-3.8203125l-0.7304688-5.703125
						c-0.2373047-1.8554688-1.9482422-3.171875-3.8017578-2.9257813l-21.671875,2.8789063
						c-1.8535156,0.2460938-3.1757813,1.9648438-2.9384766,3.8203125L31.9121094,47.9160156z"/>
				</g>
				<path style="fill:#E8BF9A;" d="M35.2675781,51.6035156L35.2675781,51.6035156
					c-2.0644531-0.0009766-3.8193359-1.5458984-4.0810547-3.5947266l-0.7304688-5.703125
					c-0.2890625-2.2578125,1.3115234-4.3388672,3.5673828-4.6386719l21.671875-2.8789063
					c2.2802734-0.2958984,4.3398438,1.3310547,4.6240234,3.5585938l0.7304688,5.703125
					c0.2890625,2.2578125-1.3115234,4.3388672-3.5673828,4.6386719l-21.671875,2.8789063
					C35.6279297,51.5908203,35.4472656,51.6035156,35.2675781,51.6035156z M56.2382813,36.2158203
					c-0.1152344,0-0.2324219,0.0078125-0.3496094,0.0234375l-21.671875,2.8789063
					c-1.4604492,0.1933594-2.4960938,1.5400391-2.3095703,3.0019531l0.7304688,5.703125
					c0.1689453,1.3203125,1.2998047,2.3164063,2.6298828,2.3164063l0,0c0.1162109,0,0.2324219-0.0078125,0.3496094-0.0234375
					l21.671875-2.8789063c1.4609375-0.1933594,2.4960938-1.5400391,2.3095703-3.0019531l-0.7304688-5.703125
					C58.6992188,37.2119141,57.5683594,36.2158203,56.2382813,36.2158203z"/>
			</g>
			<g>
				<linearGradient id="SVGID_9_" gradientUnits="userSpaceOnUse" x1="31.9995117" y1="39.5" x2="31.9995117" y2="57.0000038">
					<stop  offset="0" style="stop-color:#FFF3E6"/>
					<stop  offset="0.3027039" style="stop-color:#FFEDD9"/>
					<stop  offset="0.8623517" style="stop-color:#FFDDB7"/>
					<stop  offset="1" style="stop-color:#FFD9AD"/>
				</linearGradient>
				<path style="fill:url(#SVGID_9_);" d="M44.6767578,27.9228516C40.3310547,24.2382813,35.5751953,22.7407227,32,22.75
					c-3.5751953-0.0092773-8.3300781,1.4882813-12.6767578,5.1728516
					c-8.5234375,7.2265625-7.6005859,16.6982422-4.8662109,20.3466797C17.2578125,52.0166016,25.4208984,52.7294922,32,52.7294922
					c6.5810547,0,14.7421875-0.7128906,17.5439453-4.4599609C52.2753906,44.6210938,53.2001953,35.1494141,44.6767578,27.9228516z"
					/>
				<path style="fill:#E8BF9A;" d="M32,53.4931641c-9.8188477,0-15.7568359-1.5595703-18.1542969-4.7666016
					c-2.7416992-3.6582031-4.0952148-13.6884766,4.9838867-21.3857422c4.0141602-3.402832,8.8022461-5.3540039,13.137207-5.3540039
					c4.4023438,0,9.1904297,1.9511719,13.203125,5.3540039c9.0761719,7.6953125,7.7255859,17.7255859,4.9853516,21.3857422
					C47.7568359,51.9335938,41.8183594,53.4931641,32,53.4931641z M32.0332031,23.5131836
					c-3.9868164,0-8.5288086,1.8662109-12.2163086,4.9916992c-8.3046875,7.0410156-7.190918,16.0488281-4.7490234,19.3066406
					C17.128418,50.5683594,22.8251953,51.9658203,32,51.9658203S46.8720703,50.5683594,48.9326172,47.8125
					c2.4404297-3.2597656,3.5527344-12.2685547-4.7490234-19.3076172
					C40.4970703,25.3793945,35.9541016,23.5131836,32.0332031,23.5131836z"/>
			</g>
		</g>
	</g>
	<g>
		
			<rect x="13.892395" y="35.4641914" transform="matrix(0.6469184 0.7625592 -0.7625592 0.6469184 33.201149 1.1589012)" style="fill:#E43860;" width="2.9134519" height="1.9358779"/>
		
			<rect x="15.9647465" y="35.4635582" transform="matrix(0.6470159 0.7624766 -0.7624766 0.6470159 33.9282036 -0.4236221)" style="fill:#E43860;" width="2.9137678" height="1.9371417"/>
		
			<rect x="18.0374146" y="35.4641914" transform="matrix(0.6469184 0.7625592 -0.7625592 0.6469184 34.6646805 -2.0019226)" style="fill:#E43860;" width="2.9134519" height="1.9358779"/>
		
			<rect x="42.8147583" y="35.4641914" transform="matrix(0.6469184 0.7625592 -0.7625592 0.6469184 43.4131012 -20.8961143)" style="fill:#E43860;" width="2.9134519" height="1.9358779"/>
		
			<rect x="44.8871956" y="35.4635582" transform="matrix(0.6471132 0.7623939 -0.7623939 0.6471132 44.1299019 -22.4761467)" style="fill:#E43860;" width="2.9140837" height="1.9371417"/>
		
			<rect x="46.9602661" y="35.4641914" transform="matrix(0.6469184 0.7625592 -0.7625592 0.6469184 44.8768044 -24.057312)" style="fill:#E43860;" width="2.9134519" height="1.9358779"/>
	</g>
	<g>
		<g>
			<g>
				<circle style="fill:#FFFFFF;" cx="24.4421387" cy="32.1850586" r="5.4924316"/>
				<path style="fill:#330100;" d="M24.4423828,38.1611328c-3.2954102,0-5.9770508-2.6806641-5.9770508-5.9760742
					s2.6816406-5.9770508,5.9770508-5.9770508s5.9765625,2.6816406,5.9765625,5.9770508S27.737793,38.1611328,24.4423828,38.1611328
					z M24.4423828,27.1767578c-2.7617188,0-5.0083008,2.246582-5.0083008,5.0083008
					c0,2.7612305,2.246582,5.0073242,5.0083008,5.0073242c2.7612305,0,5.0078125-2.2460938,5.0078125-5.0073242
					C29.4501953,29.4233398,27.2036133,27.1767578,24.4423828,27.1767578z"/>
			</g>
			<circle style="fill:#330100;" cx="26.9916992" cy="32.1850586" r="2.5498047"/>
		</g>
		<g>
			<g>
				<circle style="fill:#FFFFFF;" cx="39.5585938" cy="32.1850586" r="5.4921875"/>
				<path style="fill:#330100;" d="M39.5585938,38.1611328c-3.2949219,0-5.9765625-2.6806641-5.9765625-5.9760742
					s2.6816406-5.9770508,5.9765625-5.9770508s5.9765625,2.6816406,5.9765625,5.9770508
					S42.8535156,38.1611328,39.5585938,38.1611328z M39.5585938,27.1767578c-2.7617188,0-5.0078125,2.246582-5.0078125,5.0083008
					c0,2.7612305,2.2460938,5.0073242,5.0078125,5.0073242s5.0078125-2.2460938,5.0078125-5.0073242
					C44.5664063,29.4233398,42.3203125,27.1767578,39.5585938,27.1767578z"/>
			</g>
			<circle style="fill:#330100;" cx="37.0087891" cy="32.1850586" r="2.5498047"/>
		</g>
	</g>
	<path style="fill:#7A3636;" d="M20.6943359,46.1396484c0,0,17.2119141-4.5292969,19.9345703,3.34375
		S34.6982422,43.4433594,20.6943359,46.1396484z"/>
	<path style="fill:#330100;" d="M40.8046875,52.6201172c-0.6132813,0-1.3613281-0.4736328-2.71875-1.3330078
		c-2.8388672-1.796875-7.5878906-4.8056641-13.71875-4.8056641c-1.1787109,0-2.3701172,0.1142578-3.5415039,0.3398438
		L20.5175781,45.46875c0.2050781-0.0546875,5.0717773-1.3193359,10.1025391-1.3193359
		c5.9042969,0,9.4931641,1.7177734,10.6650391,5.1074219c0.5957031,1.7236328,0.6796875,2.4707031,0.3300781,2.9609375
		C41.4296875,52.4775391,41.1425781,52.6201172,40.8046875,52.6201172z M28.8188477,45.5908203
		c4.4194336,0.9824219,7.9038086,3.1894531,10.0092773,4.5234375c0.5439453,0.34375,1.1357422,0.71875,1.5458984,0.9355469
		c-0.0605469-0.2734375-0.1777344-0.6943359-0.4013672-1.3398438c-0.9570313-2.7685547-4.1044922-4.1728516-9.3525391-4.1728516
		C30.0166016,45.5371094,29.4130859,45.5566406,28.8188477,45.5908203z"/>
</g>
</svg>
