<?xml version="1.0" encoding="utf-8"?>
<!-- Generator: Adobe Illustrator 17.0.0, SVG Export Plug-In . SVG Version: 6.00 Build 0)  -->
<!DOCTYPE svg PUBLIC "-//W3C//DTD SVG 1.1//EN" "http://www.w3.org/Graphics/SVG/1.1/DTD/svg11.dtd">
<svg version="1.1" id="レイヤー_1" xmlns="http://www.w3.org/2000/svg" xmlns:xlink="http://www.w3.org/1999/xlink" x="0px"
	 y="0px" width="64px" height="64px" viewBox="0 0 64 64" style="enable-background:new 0 0 64 64;" xml:space="preserve">
<g>
	<g>
		<path style="fill:#331C03;" d="M56.09375,37.5810547c0.5742188-1.3144531,0.8642578-2.7675781,0.8642578-4.3310547
			c0-4.1611328-2.5800781-7.7431641-7.4746094-10.3979492c0.1914063-0.6884766,0.2871094-1.418457,0.2871094-2.1801758
			c0-11.0478516-16.7080078-17.4404297-17.4194336-17.7075195L31,2.4580078v1.4428711
			c0,4.8769531-4.1210938,6.6655273-8.4838867,8.559082c-4.0742188,1.7685547-8.2871094,3.5966797-8.2871094,8.2119141
			c0,1.2705078,0.262207,2.434082,0.7817383,3.4750977C9.7207031,25.9746094,7.0415039,29.0327148,7.0415039,33.25
			c0,1.8183594,0.3920898,3.4804688,1.1669922,4.9560547C4.253418,40.4912109,2.25,43.6552734,2.25,47.625
			C2.25,63,24.6416016,63,32,63s29.75,0,29.75-15.375C61.75,43.7207031,59.8476563,40.3457031,56.09375,37.5810547z"/>
		<path style="fill:#3E3A39;" d="M32,63.5c-7.4819336,0-30.25,0-30.25-15.875c0-4.0185547,1.9526367-7.2509766,5.8046875-9.6113281
			C6.8823242,36.5742188,6.5415039,34.9746094,6.5415039,33.25c0-4.3085938,2.6201172-7.4658203,7.7900391-9.390625
			c-0.3999023-0.9760742-0.6025391-2.0454102-0.6025391-3.1875c0-4.9428711,4.5615234-6.9228516,8.5864258-8.6699219
			C26.7080078,10.0957031,30.5,8.449707,30.5,3.9008789V1.7368164l2.0263672,0.7592773
			c0.7246094,0.2719727,17.7441406,6.7924805,17.7441406,18.1757813c0,0.6660156-0.0703125,1.3129883-0.2089844,1.9287109
			c4.8408203,2.7270508,7.3964844,6.402832,7.3964844,10.6494141c0,1.4873047-0.2539063,2.8857422-0.7539063,4.1640625
			C60.3847656,40.234375,62.25,43.6679688,62.25,47.625C62.25,63.5,39.4814453,63.5,32,63.5z M31.5,3.1791992v0.7216797
			c0,5.2050781-4.4658203,7.1430664-8.784668,9.0175781c-4.1079102,1.7832031-7.9863281,3.4667969-7.9863281,7.753418
			c0,1.1884766,0.2451172,2.2822266,0.7290039,3.2519531l0.2543945,0.5097656l-0.5385742,0.1860352
			C10.109375,26.3691406,7.5415039,29.2729492,7.5415039,33.25c0,1.7324219,0.3735352,3.3212891,1.1098633,4.7236328
			l0.2231445,0.4248047l-0.4160156,0.2402344C4.6708984,40.8271484,2.75,43.8505859,2.75,47.625C2.75,62.5,24.765625,62.5,32,62.5
			s29.25,0,29.25-14.875c0-3.7324219-1.8349609-6.9765625-5.453125-9.6416016l-0.3212891-0.2363281l0.1601563-0.3662109
			c0.5458984-1.2490234,0.8222656-2.6386719,0.8222656-4.1308594c0-3.9555664-2.4941406-7.3989258-7.2128906-9.9584961
			l-0.3496094-0.1899414l0.1064453-0.3833008c0.1777344-0.6416016,0.2685547-1.3300781,0.2685547-2.0463867
			c0-10.6982422-16.3969727-16.9775391-17.0952148-17.2392578L31.5,3.1791992z"/>
	</g>
	<g>
		<linearGradient id="SVGID_1_" gradientUnits="userSpaceOnUse" x1="32" y1="62" x2="32" y2="32.3990822">
			<stop  offset="0" style="stop-color:#926134"/>
			<stop  offset="1" style="stop-color:#C59D62"/>
		</linearGradient>
		<path style="fill:url(#SVGID_1_);" d="M32,33.25c0-2.5,28.75,0,28.75,14.375S39.1875,62,32,62S3.25,62,3.25,47.625
			S32,35.75,32,33.25z"/>
		<linearGradient id="SVGID_2_" gradientUnits="userSpaceOnUse" x1="32" y1="45.2291679" x2="32" y2="20.1799049">
			<stop  offset="0" style="stop-color:#926134"/>
			<stop  offset="1" style="stop-color:#C59D62"/>
		</linearGradient>
		<path style="fill:url(#SVGID_2_);" d="M32,21.2708321c0-3.0208321,23.9583321,0,23.9583321,11.9791679
			S37.9895821,45.2291679,32,45.2291679S8.041667,45.2291679,8.041667,33.25S32,24.291666,32,21.2708321z"/>
		<linearGradient id="SVGID_3_" gradientUnits="userSpaceOnUse" x1="32" y1="29.057291" x2="32" y2="3.9010413">
			<stop  offset="0" style="stop-color:#926134"/>
			<stop  offset="1" style="stop-color:#C59D62"/>
		</linearGradient>
		<path style="fill:url(#SVGID_3_);" d="M32,3.9010413c0,0,16.7708321,6.2890625,16.7708321,16.770834
			c0,8.385416-12.578125,8.385416-16.7708321,8.385416s-16.7708321,0-16.7708321-8.385416S32,14.3828125,32,3.9010413z"/>
		<linearGradient id="SVGID_4_" gradientUnits="userSpaceOnUse" x1="27.0694447" y1="20.4375" x2="27.0694447" y2="4.5">
			<stop  offset="0" style="stop-color:#FFFFFF;stop-opacity:0.2"/>
			<stop  offset="1" style="stop-color:#FFFFFF;stop-opacity:0.3"/>
		</linearGradient>
		<path style="fill:url(#SVGID_4_);" d="M32,4.5c0,0,8.75,7.5,0,12.5s-13.75,3.75-13.75,1.25s3.75-3.75,6.25-5
			C29.5,10.75,32,8.25,32,4.5z"/>
		<linearGradient id="SVGID_5_" gradientUnits="userSpaceOnUse" x1="32" y1="35.75" x2="32" y2="25.75">
			<stop  offset="0" style="stop-color:#FFFFFF;stop-opacity:0.1"/>
			<stop  offset="1" style="stop-color:#FFFFFF;stop-opacity:0.2"/>
		</linearGradient>
		<path style="fill:url(#SVGID_5_);" d="M48.25,25.75c0,0-1.25,3.75-16.25,3.75s-16.25-3.75-16.25-3.75s-2.5,0-3.75,2.5
			c-1.5811386,3.1622772,2.5,7.5,20,7.5s21.5811386-4.3377228,20-7.5C50.75,25.75,48.25,25.75,48.25,25.75z"/>
		<linearGradient id="SVGID_6_" gradientUnits="userSpaceOnUse" x1="32" y1="53.8461456" x2="32" y2="40.75">
			<stop  offset="0" style="stop-color:#FFFFFF;stop-opacity:0.1"/>
			<stop  offset="1" style="stop-color:#FFFFFF;stop-opacity:0.2"/>
		</linearGradient>
		<path style="fill:url(#SVGID_6_);" d="M54.5,40.75c0,0-5.2537918,5.9102249-22.5,5.9102249S9.5,40.75,9.5,40.75
			s-2.8743682,0.2745209-4.3115525,3.1488914C3.3705375,47.5347099,11.8794222,53.8461456,32,53.8461456
			s28.6294632-6.3114357,26.811554-9.9472542C57.3743668,41.0245209,54.5,40.75,54.5,40.75z"/>
	</g>
</g>
<g>
	<path style="fill:#350000;" d="M39.5726891,51.5113297c-3.123188-5.4911575-7.6823788-5.2797318-9.4976845-4.9355316
		c-2.8644009,0.5454788-5.1562595,2.444931-5.4497204,4.5177536l-2.8982296-0.4110107
		c0.4714813-3.3261566,3.6788158-6.1973228,7.8003559-6.9821396c5.0708447-0.9632568,9.7754993,1.4148636,12.589159,6.3647728
		L39.5726891,51.5113297z"/>
	<g>
		<linearGradient id="SVGID_7_" gradientUnits="userSpaceOnUse" x1="14.3700609" y1="34.53405" x2="23.6491032" y2="51.5999756">
			<stop  offset="0" style="stop-color:#50BEDF"/>
			<stop  offset="0.156303" style="stop-color:#4DB6DA"/>
			<stop  offset="0.3982337" style="stop-color:#44A0CE"/>
			<stop  offset="0.6954401" style="stop-color:#357DB9"/>
			<stop  offset="1" style="stop-color:#2351A0"/>
		</linearGradient>
		<path style="fill:url(#SVGID_7_);" d="M20.0648632,31.4376869c0,0-6.9284449,8.5340118-6.9284449,13.6539001
			s4.3435163,7.5098763,7.613019,7.5098763c3.2652569,0,5.7621994-3.9824791,5.7621994-7.055748
			C26.5116367,39.2892036,20.0648632,31.4376869,20.0648632,31.4376869z"/>
		<path style="fill:#234E9E;" d="M20.7494202,53.0344429c-3.3409557,0-8.046032-2.4643822-8.046032-7.9428558
			c0-5.213768,6.7385731-13.5735588,7.0252666-13.9266396l0.3344765-0.4118576l0.3361683,0.4097443
			c0.2672424,0.3255959,6.54533,8.044342,6.54533,14.3828964C26.9446297,48.937851,24.1812897,53.0344429,20.7494202,53.0344429z
			 M20.0648232,32.1383553c-1.3755379,1.7780914-6.4954338,8.6841164-6.4954338,12.9532318
			c0,4.8814049,4.1984997,7.0768547,7.1800308,7.0768547c2.8698997,0,5.3292084-3.6416016,5.3292084-6.6227112
			C26.0786285,40.3277321,21.3748188,33.8428726,20.0648232,32.1383553z"/>
	</g>
	<path style="fill:#350000;" d="M49.6940804,24.0716c-0.3425102-0.0363636-8.4511261-0.9433823-13.0449905-5.0894489
		l1.160305-1.285471c4.1811638,3.7731113,11.9903984,4.6446095,12.0690498,4.6530666L49.6940804,24.0716z"/>
	<g>
		<ellipse style="fill:#350000;" cx="20.8661308" cy="27.6561203" rx="3.0378032" ry="3.9223802"/>
		<ellipse style="fill:#350000;" cx="42.0594788" cy="27.6561203" rx="3.0381927" ry="3.9223804"/>
	</g>
	<path style="fill:#350000;" d="M14.5322247,24.5549202l-0.5497084-1.6423569
		c2.9997149-1.0042744,8.1509008-3.1773129,9.2042246-4.7338314l1.4343147,0.9708691
		C22.8949738,21.7002449,15.3830032,24.2703419,14.5322247,24.5549202z"/>
</g>
<g>
</g>
<g>
</g>
<g>
</g>
<g>
</g>
<g>
</g>
<g>
</g>
</svg>
