<?xml version="1.0" encoding="utf-8"?>
<!-- Generator: Adobe Illustrator 17.0.0, SVG Export Plug-In . SVG Version: 6.00 Build 0)  -->
<!DOCTYPE svg PUBLIC "-//W3C//DTD SVG 1.1//EN" "http://www.w3.org/Graphics/SVG/1.1/DTD/svg11.dtd">
<svg version="1.1" id="レイヤー_1" xmlns="http://www.w3.org/2000/svg" xmlns:xlink="http://www.w3.org/1999/xlink" x="0px"
	 y="0px" width="64px" height="64px" viewBox="0 0 64 64" style="enable-background:new 0 0 64 64;" xml:space="preserve">
<g>
	<linearGradient id="SVGID_1_" gradientUnits="userSpaceOnUse" x1="32" y1="4.5" x2="32" y2="59.5">
		<stop  offset="0" style="stop-color:#6BCF40;stop-opacity:0.8"/>
		<stop  offset="0.4" style="stop-color:#159B3A"/>
		<stop  offset="0.6" style="stop-color:#159B3A"/>
		<stop  offset="1" style="stop-color:#51B526;stop-opacity:0.8"/>
	</linearGradient>
	<path style="fill:url(#SVGID_1_);" d="M62,34.5c0,13.8071175-11.25,25-30,25S2,48.3071175,2,34.5s12.5-30,30-30
		S62,20.6928806,62,34.5z"/>
	<linearGradient id="SVGID_2_" gradientUnits="userSpaceOnUse" x1="32" y1="4" x2="32" y2="60">
		<stop  offset="0" style="stop-color:#D4FFD5"/>
		<stop  offset="1" style="stop-color:#00FF2C"/>
	</linearGradient>
	<path style="fill:url(#SVGID_2_);" d="M32,60C14.0419922,60,1.5,49.5136719,1.5,34.5C1.5,20.1025391,14.543457,4,32,4
		c17.4560547,0,30.5,16.1025391,30.5,30.5C62.5,49.5136719,49.9580078,60,32,60z M32,5.4576273c-16.5981026,0-29,15.310729-29,29
		c0,14.1803169,11.925252,24.0847473,29,24.0847473s29-9.9044304,29-24.0847473C61,20.7683563,48.5976219,5.4576273,32,5.4576273z"
		/>
	<linearGradient id="SVGID_3_" gradientUnits="userSpaceOnUse" x1="31.9997559" y1="3.154134" x2="31.9997559" y2="60.8453789">
		<stop  offset="0" style="stop-color:#009245"/>
		<stop  offset="0.4" style="stop-color:#00BC40"/>
		<stop  offset="0.6" style="stop-color:#00BC40"/>
		<stop  offset="1" style="stop-color:#009245"/>
	</linearGradient>
	<path style="fill:url(#SVGID_3_);" d="M32,60.8453789c-18.4739742,0-31.3766403-10.8212776-31.3766403-26.3146057
		C0.6233594,19.7195587,14.041626,3.154134,32,3.154134c17.9578857,0,31.376152,16.565424,31.376152,31.3766384
		C63.376152,50.0241013,50.4739723,60.8453789,32,60.8453789z M32,4.1512537
		c-17.38727,0-30.3795204,16.0391121-30.3795204,30.3795204C1.6204789,49.4369278,14.1131964,59.848259,32,59.848259
		s30.3790321-10.4113312,30.3790321-25.3174858C62.3790321,20.1903667,49.3872681,4.1512537,32,4.1512537z"/>
	<linearGradient id="SVGID_4_" gradientUnits="userSpaceOnUse" x1="32" y1="7.8333335" x2="32" y2="42.8333321">
		<stop  offset="0" style="stop-color:#F5FFD2;stop-opacity:0.6"/>
		<stop  offset="1" style="stop-color:#F5FFD2;stop-opacity:0"/>
	</linearGradient>
	<path style="fill:url(#SVGID_4_);" d="M54.522728,28.4721546c0,6.7936115-8.446022,14.3611774-22.522728,14.3611774
		S9.477273,35.2657661,9.477273,28.4721546c0-9.4987564,9.384469-20.6388206,22.522728-20.6388206
		S54.522728,18.9733982,54.522728,28.4721546z"/>
	<linearGradient id="SVGID_5_" gradientUnits="userSpaceOnUse" x1="22.625" y1="8.25" x2="22.625" y2="22">
		<stop  offset="0.3" style="stop-color:#FFFFFF;stop-opacity:0.6"/>
		<stop  offset="1" style="stop-color:#FFFFFF;stop-opacity:0.2"/>
	</linearGradient>
	<circle style="fill:url(#SVGID_5_);" cx="22.625" cy="15.125" r="6.875"/>
	<linearGradient id="SVGID_6_" gradientUnits="userSpaceOnUse" x1="46.375" y1="47.75" x2="46.375" y2="54">
		<stop  offset="0.3" style="stop-color:#FFFFFF;stop-opacity:0.4"/>
		<stop  offset="1" style="stop-color:#FFFFFF;stop-opacity:0"/>
	</linearGradient>
	<circle style="fill:url(#SVGID_6_);" cx="46.375" cy="50.875" r="3.125"/>
	<linearGradient id="SVGID_7_" gradientUnits="userSpaceOnUse" x1="46.375" y1="49.125" x2="46.375" y2="52.625">
		<stop  offset="0.3" style="stop-color:#FFFFFF;stop-opacity:0.4"/>
		<stop  offset="1" style="stop-color:#FFFFFF;stop-opacity:0"/>
	</linearGradient>
	<circle style="fill:url(#SVGID_7_);" cx="46.375" cy="50.875" r="1.75"/>
	<linearGradient id="SVGID_8_" gradientUnits="userSpaceOnUse" x1="22.625" y1="9.75" x2="22.625" y2="20.5">
		<stop  offset="0.3" style="stop-color:#FFFFFF"/>
		<stop  offset="1" style="stop-color:#FFFFFF;stop-opacity:0.2"/>
	</linearGradient>
	<circle style="fill:url(#SVGID_8_);" cx="22.625" cy="15.125" r="5.375"/>
</g>
<g>
	<path style="fill:#350000;" d="M40.7324219,52.1796875c-3.6064453-6.3408203-8.8710938-6.0966797-10.9672852-5.6992188
		c-3.3076172,0.6298828-5.9541016,2.8232422-6.2929688,5.2167969l-3.3466797-0.4746094
		c0.5444336-3.8408203,4.2480469-7.15625,9.0073242-8.0625c5.8554688-1.1123047,11.2880859,1.6337891,14.5371094,7.3496094
		L40.7324219,52.1796875z"/>
	<g>
		<linearGradient id="SVGID_9_" gradientUnits="userSpaceOnUse" x1="11.630127" y1="32.57547" x2="22.3449402" y2="52.2820511">
			<stop  offset="0" style="stop-color:#50BEDF"/>
			<stop  offset="0.156303" style="stop-color:#4DB6DA"/>
			<stop  offset="0.3982337" style="stop-color:#44A0CE"/>
			<stop  offset="0.6954401" style="stop-color:#357DB9"/>
			<stop  offset="1" style="stop-color:#2351A0"/>
		</linearGradient>
		<path style="fill:url(#SVGID_9_);" d="M18.2061005,29c0,0-8.0005007,9.8544998-8.0005007,15.7666016
			s5.0156002,8.6718979,8.7909994,8.6718979c3.7705002,0,6.653801-4.5986977,6.653801-8.1474991
			C25.6504002,38.0663986,18.2061005,29,18.2061005,29z"/>
		<path style="fill:#234E9E;" d="M18.996582,53.9384766c-3.8579102,0-9.2910156-2.8457031-9.2910156-9.171875
			c0-6.0205078,7.78125-15.6738281,8.1123047-16.081543l0.3862305-0.4755859l0.3881836,0.4731445
			c0.3085938,0.3759766,7.5581055,9.2890625,7.5581055,16.6083984
			C26.1503906,49.2080078,22.9594727,53.9384766,18.996582,53.9384766z M18.2060547,29.809082
			c-1.5883789,2.0532227-7.5004883,10.027832-7.5004883,14.9575195c0,5.6367188,4.8481445,8.171875,8.2910156,8.171875
			c3.3139648,0,6.1538086-4.2050781,6.1538086-7.6474609C25.1503906,39.265625,19.71875,31.7773438,18.2060547,29.809082z"/>
	</g>
	<path style="fill:#350000;" d="M52.4199219,20.4941406c-0.3955078-0.0419922-9.7587891-1.0893555-15.0634766-5.8769531
		l1.3398438-1.484375c4.828125,4.3569336,13.8457031,5.3632813,13.9365234,5.3730469L52.4199219,20.4941406z"/>
	<g>
		<ellipse style="fill:#350000;" cx="19.1313496" cy="24.6333008" rx="3.5078499" ry="4.5293002"/>
		<ellipse style="fill:#350000;" cx="43.6040001" cy="24.6333008" rx="3.5083001" ry="4.5293002"/>
	</g>
	<path style="fill:#350000;" d="M11.8173828,21.0522461l-0.6347656-1.8964844
		c3.4638672-1.159668,9.4121094-3.6689453,10.628418-5.4663086l1.65625,1.1210938
		C21.4741211,17.7558594,12.7998047,20.7236328,11.8173828,21.0522461z"/>
</g>
<g>
</g>
<g>
</g>
<g>
</g>
<g>
</g>
<g>
</g>
<g>
</g>
</svg>
