<?xml version="1.0" encoding="utf-8"?>
<!-- Generator: Adobe Illustrator 17.0.0, SVG Export Plug-In . SVG Version: 6.00 Build 0)  -->
<!DOCTYPE svg PUBLIC "-//W3C//DTD SVG 1.1//EN" "http://www.w3.org/Graphics/SVG/1.1/DTD/svg11.dtd">
<svg version="1.1" id="レイヤー_1" xmlns="http://www.w3.org/2000/svg" xmlns:xlink="http://www.w3.org/1999/xlink" x="0px"
	 y="0px" width="64px" height="64px" viewBox="0 0 64 64" style="enable-background:new 0 0 64 64;" xml:space="preserve">
<g>
	<linearGradient id="SVGID_1_" gradientUnits="userSpaceOnUse" x1="4.5" y1="38.25" x2="59.5" y2="38.25">
		<stop  offset="0" style="stop-color:#756661"/>
		<stop  offset="0.2522936" style="stop-color:#8E857E"/>
		<stop  offset="0.8073394" style="stop-color:#8E857E"/>
		<stop  offset="1" style="stop-color:#756661"/>
	</linearGradient>
	<path style="fill:url(#SVGID_1_);" d="M13.25,24.5h-0.0002289C8.2498856,24.5001526,4.5,29.5000572,4.5,33.25c0,3.75,0,3.75,0,7.5
		S5.75,52,32,52s27.5-7.5,27.5-11.25s0-3.75,0-7.5s-3.75-8.75-8.75-8.75H13.25z"/>
	<g>
		<linearGradient id="SVGID_2_" gradientUnits="userSpaceOnUse" x1="4.5281119" y1="40.2625008" x2="59.4718895" y2="40.2625008">
			<stop  offset="0" style="stop-color:#FFFFFF;stop-opacity:0.7"/>
			<stop  offset="0.3" style="stop-color:#FFFFFF;stop-opacity:0.4"/>
			<stop  offset="0.7" style="stop-color:#FFFFFF;stop-opacity:0.4"/>
			<stop  offset="1" style="stop-color:#FFFFFF;stop-opacity:0.7"/>
		</linearGradient>
		<path style="fill:url(#SVGID_2_);" d="M4.5281119,34.0580482c0,3.034462,12.2995834,5.4943771,27.4718876,5.4943771
			s27.4718895-2.4599152,27.4718895-5.4943771v6.9145241c0,3.034462-12.2995834,5.494381-27.4718895,5.494381
			s-27.4718876-2.459919-27.4718876-5.494381V34.0580482z"/>
		<linearGradient id="SVGID_3_" gradientUnits="userSpaceOnUse" x1="5.0283203" y1="40.8598633" x2="58.9716797" y2="40.8598633">
			<stop  offset="0" style="stop-color:#FFFFFF"/>
			<stop  offset="0.3" style="stop-color:#FFFFFF;stop-opacity:0.6"/>
			<stop  offset="0.7" style="stop-color:#FFFFFF;stop-opacity:0.6"/>
			<stop  offset="1" style="stop-color:#FFFFFF;stop-opacity:0.7"/>
		</linearGradient>
		<path style="fill:url(#SVGID_3_);" d="M58.9716797,35.7529297C55.4824219,38.5576172,43.4375,40.0527344,32,40.0527344
			c-11.4379883,0-23.4824219-1.4951172-26.9716797-4.2998047v5.2197266c0,2.3623047,11.0766602,4.9941406,26.9716797,4.9941406
			c15.8945313,0,26.9716797-2.6318359,26.9716797-4.9941406V35.7529297z"/>
	</g>
	<g>
		<linearGradient id="SVGID_4_" gradientUnits="userSpaceOnUse" x1="5.5" y1="32.4616699" x2="58.5" y2="32.4616699">
			<stop  offset="0" style="stop-color:#FFFFFF;stop-opacity:0.5"/>
			<stop  offset="0.3" style="stop-color:#FFFFFF;stop-opacity:0"/>
			<stop  offset="0.7" style="stop-color:#FFFFFF;stop-opacity:0"/>
			<stop  offset="1" style="stop-color:#FFFFFF;stop-opacity:0.5"/>
		</linearGradient>
		<path style="fill:url(#SVGID_4_);" d="M5.5283203,34.0576172c0,1.5253906,9.34375,4.4951172,26.4716797,4.4951172
			s26.4716797-2.9697266,26.4716797-4.4951172H58.5V33.25c0-2.2631836-1.6894531-5.3686523-4.4755859-6.8793945
			C51.2773438,29.4477539,39.3349609,30.3125,32,30.3125c-7.3354492,0-19.2783203-0.8642578-22.0253906-3.9418945
			C7.1894531,27.8813477,5.5,30.9868164,5.5,33.25v0.8076172H5.5283203z"/>
		<linearGradient id="SVGID_5_" gradientUnits="userSpaceOnUse" x1="6.1452026" y1="47.4689331" x2="57.8547974" y2="47.4689331">
			<stop  offset="0" style="stop-color:#FFFFFF;stop-opacity:0.5"/>
			<stop  offset="0.3" style="stop-color:#FFFFFF;stop-opacity:0"/>
			<stop  offset="0.7" style="stop-color:#FFFFFF;stop-opacity:0"/>
			<stop  offset="1" style="stop-color:#FFFFFF;stop-opacity:0.5"/>
		</linearGradient>
		<path style="fill:url(#SVGID_5_);" d="M32,47.4667969c-7.5888672,0-20.3817749-0.8082886-25.8547974-3.5289307
			C7.72052,47.1027832,13.1635132,51,32,51s24.27948-3.8970947,25.8547974-7.0620728
			C52.3817749,46.6585693,39.5888672,47.4667969,32,47.4667969z"/>
	</g>
	<linearGradient id="SVGID_6_" gradientUnits="userSpaceOnUse" x1="5.9956665" y1="32.3749695" x2="58.0043335" y2="32.3749695">
		<stop  offset="0.0229358" style="stop-color:#FFFFFF"/>
		<stop  offset="0.087156" style="stop-color:#FFFFFF;stop-opacity:0"/>
		<stop  offset="0.0963303" style="stop-color:#FFFFFF;stop-opacity:0"/>
		<stop  offset="0.2724771" style="stop-color:#FFFFFF;stop-opacity:0"/>
		<stop  offset="0.3761468" style="stop-color:#FFFFFF;stop-opacity:0.8"/>
		<stop  offset="0.4816514" style="stop-color:#FFFFFF;stop-opacity:0.9"/>
		<stop  offset="0.6330275" style="stop-color:#FFFFFF;stop-opacity:0"/>
		<stop  offset="0.766055" style="stop-color:#FFFFFF;stop-opacity:0.7"/>
		<stop  offset="0.906422" style="stop-color:#FFFFFF;stop-opacity:0"/>
		<stop  offset="1" style="stop-color:#FFFFFF;stop-opacity:0.6"/>
	</linearGradient>
	<path style="fill:url(#SVGID_6_);" d="M53.6124268,26.7728271c-0.0965576,0.1013794-0.229248,0.194458-0.3483276,0.2906494
		c2.3440552,1.3461304,3.7594604,3.7495728,3.7594604,5.541748v0.6820679h-0.0267334
		c0,1.288147-8.8231812,3.7960205-24.9968262,3.7960205S7.0031738,34.5754395,7.0031738,33.2872925H6.9764404v-0.6820679
		c0-1.7921753,1.4152832-4.1955566,3.758606-5.541687c-0.1191406-0.0962524-0.2518921-0.18927-0.3484497-0.2907104
		c-2.7330322,1.3895264-4.3909302,4.2456665-4.3909302,6.3272095v0.7427979h0.027832
		c0,1.4029541,9.1689453,4.1342773,25.9765015,4.1342773s25.9765015-2.7313232,25.9765015-4.1342773h0.027832v-0.7427979
		C58.0043335,31.0184937,56.3464966,28.1623535,53.6124268,26.7728271z"/>
	<path style="fill:#3E3A39;" d="M32,52.25c-24.8735352,0-27.75-6.5634766-27.75-11.5v-7.5c0-4.0766602,4.0146484-9,9-9h37.5
		c4.9853516,0,9,4.9233398,9,9v7.5C59.75,45.6865234,56.8730469,52.25,32,52.25z M13.25,24.75c-4.7084961,0-8.5,4.6499023-8.5,8.5
		v7.5c0,2.7207031,0,11,27.25,11s27.25-8.2792969,27.25-11v-7.5c0-3.8500977-3.7919922-8.5-8.5-8.5H13.25z"/>
</g>
<g>
	<path style="fill:#F8EB00;" d="M32,20.6654053c-3.8597412,0-7.4752808,0.2047119-10.6118774,0.5592041l0.8193359-3.2774048
		c0.6405029-2.5616455,2.0144043-2.6862183,4.3881226-2.6862183h16.2132568c1.1940308,0,2.1617432-0.9677124,2.1617432-2.1617432
		S44.0028687,10.9375,42.8088379,10.9375H26.5955811c-2.1220703,0-7.0924683,0-8.5824585,5.9608765l-1.0808716,4.3235474
		c-0.0570068,0.2279053-0.1392822,0.4702148-0.2293091,0.7122803c-3.9051514,0.7822266-6.3205566,1.8619995-6.3205566,3.0547485
		C10.3823853,27.37677,20.0609131,29.3125,32,29.3125s21.6176758-1.93573,21.6176758-4.3235474S43.9390869,20.6654053,32,20.6654053
		z"/>
	<g>
		<path style="fill:#D6CB00;" d="M52.9987183,24.6539917C51.6245117,26.1826782,43.9481812,28,32.1252441,28
			c-12.1882935,0-19.9862061-1.9321289-20.9978027-3.4874268c-0.1643677,0.1744385-0.2451172,0.3358765-0.2451172,0.4761963
			C10.8823242,26.5854492,18.9160156,28.8125,32,28.8125s21.1171875-2.2270508,21.1171875-3.8237305
			C53.1171875,24.8799438,53.0723877,24.7677612,52.9987183,24.6539917z"/>
		<path style="fill:#D6CB00;" d="M32.1256104,23.5C38.6253662,23.4609375,45.125,22.75,45.125,22.5c0-0.2567749-6-1.125-13-1.125
			s-11.2786865,0.7989502-11.1875,0.3125c0.1829224-0.9755859,1.1836548-4.5467529,1.1836548-4.5467529
			c0.7947388-2.2015991,2.1433105-2.3800049,4.4745483-2.3800049h16.2128906c0.9160156,0,1.6621094-0.7456055,1.6621094-1.6616211
			c0-0.0510254-0.0105591-0.0991211-0.0150757-0.1489868c-0.257019,0.5863647-0.8418579,0.9981079-1.5217896,0.9981079H26.7209473
			c-2.4542847,0-4.02771,0.1972046-4.7817993,2.7460327c0,0-1.5224819,5.1124268-1.5224819,5.8057251
			C20.416666,22.90625,25.6254272,23.5390625,32.1256104,23.5z"/>
	</g>
	<linearGradient id="SVGID_7_" gradientUnits="userSpaceOnUse" x1="10.722846" y1="26.6678982" x2="53.3682251" y2="26.6678982">
		<stop  offset="0.0229358" style="stop-color:#FFFFFF"/>
		<stop  offset="0.087156" style="stop-color:#FFFFFF;stop-opacity:0"/>
		<stop  offset="0.0963303" style="stop-color:#FFFFFF;stop-opacity:0"/>
		<stop  offset="0.2724771" style="stop-color:#FFFFFF;stop-opacity:0"/>
		<stop  offset="0.3761468" style="stop-color:#FFFFFF;stop-opacity:0.8"/>
		<stop  offset="0.4816514" style="stop-color:#FFFFFF;stop-opacity:0.9"/>
		<stop  offset="0.6330275" style="stop-color:#FFFFFF;stop-opacity:0"/>
		<stop  offset="0.766055" style="stop-color:#FFFFFF;stop-opacity:0.7"/>
		<stop  offset="0.906422" style="stop-color:#FFFFFF;stop-opacity:0"/>
		<stop  offset="1" style="stop-color:#FFFFFF;stop-opacity:0.6"/>
	</linearGradient>
	<path style="fill:url(#SVGID_7_);" d="M32,28.8125c-9.9487305,0-18.4428711-1.3129883-21.1357422-3.2670898
		c0,0-0.2562571-0.4052601-0.0788488-0.8370762c0.1774092-0.431818,0.6657629,0.0275059,0.6657629,0.0275059
		C13.9477539,26.5473633,22.3974609,27.8125,32,27.8125c11.3564453,0,19.0595703-1.6508789,20.7998047-3.2817383
		c0,0,0.47855,0.0483494,0.5543633,0.4067383c0.0758095,0.3583889-0.1709785,0.5781975-0.3575401,0.7021313
		C50.1567841,27.5261307,41.7757492,28.8125,32,28.8125z"/>
	<linearGradient id="SVGID_8_" gradientUnits="userSpaceOnUse" x1="20.0624123" y1="13" x2="43.625" y2="13">
		<stop  offset="0.0458716" style="stop-color:#FFFFFF;stop-opacity:0"/>
		<stop  offset="0.266055" style="stop-color:#FFFFFF;stop-opacity:0.8"/>
		<stop  offset="0.8256881" style="stop-color:#FFFFFF"/>
		<stop  offset="1" style="stop-color:#FFFFFF;stop-opacity:0"/>
	</linearGradient>
	<path style="fill:url(#SVGID_8_);" d="M20.5620117,14.5c-0.1113281,0-0.2231445-0.0371094-0.315918-0.112793
		c-0.2138672-0.175293-0.2456055-0.4902344-0.0708008-0.7036133c0.0258789-0.0317383,0.6455078-0.7797852,1.7548828-1.3134766
		C23.0166016,11.8476563,24.0605469,11.5,25.625,11.5h17.5c0.2763672,0,0.5,0.2236328,0.5,0.5s-0.2236328,0.5-0.5,0.5h-17.5
		c-1.3798828,0-2.2709961,0.2949219-3.2612305,0.7714844c-0.8969727,0.4316406-1.4091797,1.0390625-1.4140625,1.0449219
		C20.8505859,14.4375,20.7070313,14.5,20.5620117,14.5z"/>
	<path style="fill:#595757;" d="M32,29.5625c-10.7490234,0-21.8676758-1.7109375-21.8676758-4.5737305
		c0-1.6225586,3.4384766-2.6713867,6.3837891-3.2719727c0.0678711-0.1894531,0.1289063-0.3774414,0.1733398-0.5556641
		l1.0810547-4.3232422C19.3076172,10.6875,24.4150391,10.6875,26.5957031,10.6875h16.2128906
		c1.3300781,0,2.4121094,1.0820313,2.4121094,2.4116211s-1.0820313,2.4116211-2.4121094,2.4116211H26.5957031
		c-2.3139648,0-3.5488281,0.1113281-4.1455078,2.4970703l-0.7324219,2.9287109
		C24.875,20.5957031,28.4208984,20.4155273,32,20.4155273c10.7490234,0,21.8671875,1.7104492,21.8671875,4.5732422
		S42.7490234,29.5625,32,29.5625z M26.5957031,11.1875c-2.0639648,0-6.8974609,0-8.3398438,5.7714844l-1.0810547,4.3232422
		c-0.0527344,0.2109375-0.128418,0.4458008-0.2373047,0.7387695l-0.0488281,0.1308594l-0.1362305,0.0273438
		c-3.8325195,0.7675781-6.1201172,1.8178711-6.1201172,2.8095703C10.6323242,26.9560547,19.2182617,29.0625,32,29.0625
		c12.78125,0,21.3671875-2.1064453,21.3671875-4.0737305S44.78125,20.9155273,32,20.9155273
		c-3.6967773,0-7.3564453,0.1928711-10.5839844,0.5576172l-0.3579102,0.0405273l0.9067383-3.6269531
		c0.6845703-2.7368164,2.2055664-2.8759766,4.6308594-2.8759766h16.2128906c1.0546875,0,1.9121094-0.8574219,1.9121094-1.9116211
		S43.8632813,11.1875,42.8085938,11.1875H26.5957031z"/>
</g>
<g>
</g>
<g>
</g>
<g>
</g>
<g>
</g>
<g>
</g>
<g>
</g>
</svg>
