<?xml version="1.0" encoding="utf-8"?>
<!-- Generator: Adobe Illustrator 15.0.2, SVG Export Plug-In . SVG Version: 6.00 Build 0)  -->
<!DOCTYPE svg PUBLIC "-//W3C//DTD SVG 1.1//EN" "http://www.w3.org/Graphics/SVG/1.1/DTD/svg11.dtd">
<svg version="1.1" id="レイヤー_1" xmlns="http://www.w3.org/2000/svg" xmlns:xlink="http://www.w3.org/1999/xlink" x="0px"
	 y="0px" width="64px" height="64px" viewBox="0 0 64 64" style="enable-background:new 0 0 64 64;" xml:space="preserve">
<g>
	<g>
		<linearGradient id="SVGID_1_" gradientUnits="userSpaceOnUse" x1="27.2797852" y1="25.2646484" x2="44.4935684" y2="74.9380722">
			<stop  offset="0" style="stop-color:#FFF1BF"/>
			<stop  offset="0.1983559" style="stop-color:#FFE9B2"/>
			<stop  offset="0.566525" style="stop-color:#FFD38F"/>
			<stop  offset="1" style="stop-color:#FFB55F"/>
		</linearGradient>
		<path style="fill:url(#SVGID_1_);" d="M59.9140625,31.9951172c5.2558594,29.3837891-6.1865234,27.7451172-28.2299805,27.7675781
			c-18.5625,0.0205078-33.3339844-1.1259766-27.6210938-26.0078125C9.6430664,9.4492188,13.121582,4.2275391,31.684082,4.2275391
			C51.8408203,4.2275391,55.46875,7.1425781,59.9140625,31.9951172z"/>
		<linearGradient id="SVGID_2_" gradientUnits="userSpaceOnUse" x1="37.8964844" y1="-5.6679688" x2="34.0634613" y2="15.1655426">
			<stop  offset="0" style="stop-color:#D23A18"/>
			<stop  offset="0.2649619" style="stop-color:#DA4E1C"/>
			<stop  offset="0.8068733" style="stop-color:#ED8328"/>
			<stop  offset="0.89697" style="stop-color:#F18C2A"/>
			<stop  offset="0.9146296" style="stop-color:#F29537"/>
			<stop  offset="0.9474026" style="stop-color:#F5AD5A"/>
			<stop  offset="0.9913981" style="stop-color:#F9D391"/>
			<stop  offset="1" style="stop-color:#FADB9D"/>
		</linearGradient>
		<path style="fill:url(#SVGID_2_);" d="M19.9902344,6.3378906C12.8808594,8.4985352,10.4023438,11.3334961,15.9511719,12
			S30,9.7270508,34,10.9467773S36.4082031,15.1289063,40.3330078,15s3.7958984-2.9873047,7.4833984,0.0039063
			s7.40625,5.6704102,8.2949219,0S40.8144531,0.0092773,19.9902344,6.3378906z"/>
		<linearGradient id="SVGID_3_" gradientUnits="userSpaceOnUse" x1="35.6435547" y1="6.2949219" x2="59.5605316" y2="1.7949119">
			<stop  offset="0" style="stop-color:#D23A18"/>
			<stop  offset="0.2649619" style="stop-color:#DA4E1C"/>
			<stop  offset="0.8068733" style="stop-color:#ED8328"/>
			<stop  offset="0.89697" style="stop-color:#F18C2A"/>
			<stop  offset="0.9146296" style="stop-color:#F29537"/>
			<stop  offset="0.9474026" style="stop-color:#F5AD5A"/>
			<stop  offset="0.9913981" style="stop-color:#F9D391"/>
			<stop  offset="1" style="stop-color:#FADB9D"/>
		</linearGradient>
		<path style="fill:url(#SVGID_3_);" d="M18.4052734,6.2685547c0,0,17.9560547,1.8095703,30.5673828,1.0205078
			C48.9726563,7.2890625,37.3935547,0.9536133,18.4052734,6.2685547z"/>
		<path style="fill:#FFBC80;" d="M34.0449219,7.8945313c-5.862793,0-14.019043-0.9697266-14.1010742-0.9794922
			C19.7211914,6.8881836,19.5625,6.6860352,19.5888672,6.4633789c0.0268555-0.2226563,0.2280273-0.4223633,0.4516602-0.3959961
			C20.1220703,6.0771484,28.230957,7,34.0449219,7c0.0126953,0,0.0253906,0,0.0390625,0l0,0
			c0.2246094,0,0.40625,0.2226563,0.40625,0.4467773C34.4902344,7.6845703,34.28125,7.8945313,34.0449219,7.8945313z"/>
		<path style="fill:#FFBC80;" d="M39.6357422,7.8955078c-0.8427734,0-1.3945313-0.0092773-1.3945313-0.0092773
			c-0.2236328-0.003418-0.4033203-0.2255859-0.3994141-0.449707C37.8457031,7.2148438,38.0263672,7,38.2480469,7
			C38.25,7,38.2529297,7,38.2548828,7c0.0029297,0,1.2324219,0,2.8173828,0c0.0009766,0,0.0029297,0,0.0048828,0
			c0.2216797,0,0.4033203,0.2158203,0.40625,0.4379883c0.0029297,0.2246094-0.1767578,0.4272461-0.4013672,0.4296875
			C40.5488281,7.875,40.0556641,7.8955078,39.6357422,7.8955078z"/>
		<path style="fill:#FFFFFF;" d="M16.7685547,10.2109375c1.5175781-1.1435547,4.5283203-0.4262695,1.9765625,3.015625
			S11.7011719,14.03125,16.7685547,10.2109375z"/>
		<path style="fill:#FFFFFF;" d="M14.9853516,16.7578125c1.2050781,0.0419922-0.1513672,3.1103516-1.1513672,2.6762695
			S12.8046875,16.6821289,14.9853516,16.7578125z"/>
		<path style="opacity:0.35;fill:#FFFFFF;" d="M41.1572266,55.6376953C39.7675781,54.1728516,48.1171875,55.796875,51.25,53.40625
			c3.5839844-2.7353516,6.1298828-4.3105469,5.6289063-1.4667969
			C56.3076172,55.1826172,43.1748047,57.7666016,41.1572266,55.6376953z"/>
	</g>
	<path style="fill:#541715;" d="M37.6367188,60.9921875l-5.9511719-0.0107422l-0.4541016,0.0009766
		c-11.4873047,0-21.4038086-0.5117188-26.4135742-6.8027344C1.3208008,49.7890625,0.6850586,43.0185547,2.875,33.4824219
		C8.4550781,9.1757813,12.0141602,3.0078125,31.684082,3.0078125c21.105957,0,24.956543,3.7646484,29.4301758,28.7724609
		c2.2011719,12.3085938,1.5869141,19.7050781-1.9941406,23.9833984
		C55.0576172,60.6171875,47.6533203,60.9921875,37.6367188,60.9921875z M32.1640625,58.5429688l5.4726563,0.0107422
		c9.3496094,0,16.2294922-0.3115234,19.6142578-4.3554688c3.0332031-3.6240234,3.4980469-10.6113281,1.4628906-21.9882813
		C54.2519531,7.2636719,50.8505859,5.4462891,31.684082,5.4462891c-17.2709961,0-20.7294922,3.7392578-26.4331055,28.5810547
		c-2.0126953,8.7666016-1.5302734,14.8613281,1.4741211,18.6337891c4.3325195,5.4404297,13.6616211,5.8828125,24.5063477,5.8828125
		L32.1640625,58.5429688z"/>
	<path style="fill:#330100;" d="M42.1308594,56.2041016c-3.5898438-4.1132813-9.9648438-4.9003906-14.6879883-3.8544922
		C24.5771484,52.9833984,23.0419922,54.1376953,22.7919922,55l-1.9208984-0.5566406
		c0.5292969-1.8261719,2.7670898-3.3007813,6.1396484-4.046875c5.3017578-1.1708984,12.4980469-0.2382813,16.6259766,4.4931641
		L42.1308594,56.2041016z"/>
	<g>
		<ellipse style="fill:#330100;" cx="21.7556152" cy="38.6591797" rx="2.9362793" ry="3.7910156"/>
		<ellipse style="fill:#330100;" cx="42.2412109" cy="38.6591797" rx="2.9375" ry="3.7910156"/>
	</g>
	<g>
		<path style="fill:#330100;" d="M47.8984375,34.1904297c-6.6074219-0.1044922-10.8564453-5.6025391-11.0341797-5.8369141
			l1.5927734-1.2109375c0.0371094,0.0498047,3.8544922,4.9589844,9.4726563,5.0478516L47.8984375,34.1904297z"/>
		<path style="fill:#330100;" d="M16.3276367,34.1914063c-0.0849609,0-0.1699219,0-0.2558594-0.0009766l0.0234375-2
			c7.9458008,0.1025391,10.2021484-4.7919922,10.2236328-4.8408203l1.8339844,0.7988281
			C28.0444336,28.3964844,25.4150391,34.1914063,16.3276367,34.1914063z"/>
	</g>
	<g>
		<linearGradient id="SVGID_4_" gradientUnits="userSpaceOnUse" x1="48.6933594" y1="37.9042969" x2="57.7076187" y2="54.4832382">
			<stop  offset="0" style="stop-color:#50BEDF"/>
			<stop  offset="0.156303" style="stop-color:#4DB6DA"/>
			<stop  offset="0.3982336" style="stop-color:#44A0CE"/>
			<stop  offset="0.6954401" style="stop-color:#357DB9"/>
			<stop  offset="1" style="stop-color:#2351A0"/>
		</linearGradient>
		<path style="fill:url(#SVGID_4_);" d="M54.2001953,34.9101563c0,0-6.5273438,8.3017578-6.5273438,13.2832031
			c0,4.9804688,3.3896484,7.3056641,6.5273438,7.3056641s6.5283203-2.3251953,6.5283203-7.3056641
			C60.7285156,43.2119141,54.2001953,34.9101563,54.2001953,34.9101563z"/>
		<path style="fill:#234E9E;" d="M54.2001953,55.8867188c-3.4365234,0-6.9150391-2.6425781-6.9150391-7.6933594
			c0-5.0576172,6.3398438-13.1796875,6.6103516-13.5224609l0.3046875-0.3876953l0.3046875,0.3876953
			c0.2705078,0.3427734,6.6113281,8.4648438,6.6113281,13.5224609
			C61.1162109,53.2441406,57.6367188,55.8867188,54.2001953,55.8867188z M54.2001953,35.5498047
			c-1.2792969,1.7050781-6.1396484,8.4628906-6.1396484,12.6435547c0,4.7529297,3.1826172,6.9179688,6.1396484,6.9179688
			s6.140625-2.1650391,6.140625-6.9179688C60.3408203,44.0126953,55.4794922,37.2548828,54.2001953,35.5498047z"/>
	</g>
</g>
</svg>
