<?xml version="1.0" encoding="utf-8"?>
<!-- Generator: Adobe Illustrator 15.0.2, SVG Export Plug-In . SVG Version: 6.00 Build 0)  -->
<!DOCTYPE svg PUBLIC "-//W3C//DTD SVG 1.1//EN" "http://www.w3.org/Graphics/SVG/1.1/DTD/svg11.dtd">
<svg version="1.1" id="レイヤー_1" xmlns="http://www.w3.org/2000/svg" xmlns:xlink="http://www.w3.org/1999/xlink" x="0px"
	 y="0px" width="64px" height="64px" viewBox="0 0 64 64" style="enable-background:new 0 0 64 64;" xml:space="preserve">
<g>
	<g>
		<linearGradient id="SVGID_1_" gradientUnits="userSpaceOnUse" x1="27.2807617" y1="24.6289063" x2="44.494545" y2="74.30233">
			<stop  offset="0" style="stop-color:#FFF1BF"/>
			<stop  offset="0.1983559" style="stop-color:#FFE9B2"/>
			<stop  offset="0.566525" style="stop-color:#FFD38F"/>
			<stop  offset="1" style="stop-color:#FFB55F"/>
		</linearGradient>
		<path style="fill:url(#SVGID_1_);" d="M59.9140625,31.359375c5.2558594,29.3837891-6.1865234,27.7451172-28.2294922,27.7675781
			c-18.5625,0.0205078-33.3339844-1.1259766-27.621582-26.0078125C9.644043,8.8144531,13.1220703,3.5917969,31.6845703,3.5917969
			C51.8408203,3.5917969,55.46875,6.5068359,59.9140625,31.359375z"/>
		<linearGradient id="SVGID_2_" gradientUnits="userSpaceOnUse" x1="37.8964844" y1="-6.4829102" x2="34.0637817" y2="14.3488464">
			<stop  offset="0" style="stop-color:#D23A18"/>
			<stop  offset="0.2649619" style="stop-color:#DA4E1C"/>
			<stop  offset="0.8068733" style="stop-color:#ED8328"/>
			<stop  offset="0.89697" style="stop-color:#F18C2A"/>
			<stop  offset="0.9146296" style="stop-color:#F29537"/>
			<stop  offset="0.9474026" style="stop-color:#F5AD5A"/>
			<stop  offset="0.9913981" style="stop-color:#F9D391"/>
			<stop  offset="1" style="stop-color:#FADB9D"/>
		</linearGradient>
		<path style="fill:url(#SVGID_2_);" d="M19.9907227,5.5214844c-7.109375,2.1611328-9.5883789,4.9960938-4.0395508,5.6621094
			C21.5,11.8505859,30,8.9111328,34,10.1308594s2.4082031,4.1816406,6.3330078,4.0527344s3.7958984-2.9873047,7.4833984,0.0039063
			s7.40625,5.6708984,8.2949219,0C57,8.5175781,40.8144531-0.8066406,19.9907227,5.5214844z"/>
		<linearGradient id="SVGID_3_" gradientUnits="userSpaceOnUse" x1="35.6435547" y1="5.4780273" x2="59.5605316" y2="0.9780173">
			<stop  offset="0" style="stop-color:#D23A18"/>
			<stop  offset="0.2649619" style="stop-color:#DA4E1C"/>
			<stop  offset="0.8068733" style="stop-color:#ED8328"/>
			<stop  offset="0.89697" style="stop-color:#F18C2A"/>
			<stop  offset="0.9146296" style="stop-color:#F29537"/>
			<stop  offset="0.9474026" style="stop-color:#F5AD5A"/>
			<stop  offset="0.9913981" style="stop-color:#F9D391"/>
			<stop  offset="1" style="stop-color:#FADB9D"/>
		</linearGradient>
		<path style="fill:url(#SVGID_3_);" d="M18.4052734,5.4521484c0,0,17.9560547,1.8095703,30.5673828,1.0205078
			C48.9726563,6.4726563,37.3935547,0.1376953,18.4052734,5.4521484z"/>
		<path style="fill:#FFBC80;" d="M34.0449219,7.078125c-5.862793,0-14.019043-0.9697266-14.1010742-0.9794922
			C19.7211914,6.0722656,19.5625,5.8701172,19.5888672,5.6474609c0.0268555-0.2226563,0.2280273-0.5136719,0.4516602-0.4882813
			C20.1220703,5.1689453,28.230957,6,34.0449219,6c0.0126953,0,0.0253906,0,0.0390625,0l0,0
			c0.2246094,0,0.40625,0.3144531,0.40625,0.5390625C34.4902344,6.7763672,34.28125,7.0820313,34.0449219,7.078125z"/>
		<path style="fill:#FFBC80;" d="M39.6357422,7.0791016c-0.8427734,0-1.3945313-0.0087891-1.3945313-0.0087891
			c-0.2236328-0.0039063-0.4033203-0.3173828-0.3994141-0.5419922C37.8457031,6.3066406,38.0263672,6,38.2480469,6
			C38.25,6,38.2529297,6,38.2548828,6c0.0029297,0,1.2324219,0,2.8173828,0c0.0009766,0,0.0029297,0,0.0048828,0
			c0.2216797,0,0.4033203,0.3076172,0.40625,0.5302734c0.0029297,0.2246094-0.1767578,0.4726563-0.4013672,0.4755859
			C40.5488281,7.0126953,40.0556641,7.0791016,39.6357422,7.0791016z"/>
		<path style="fill:#FFFFFF;" d="M16.7685547,9.3945313c1.5175781-1.1435547,4.5288086-0.4257813,1.9765625,3.015625
			C16.1928711,15.8525391,11.7006836,13.2148438,16.7685547,9.3945313z"/>
		<path style="fill:#FFFFFF;" d="M14.9853516,15.9414063c1.2050781,0.0419922-0.1518555,3.1103516-1.1518555,2.6767578
			C12.8334961,18.1835938,12.8041992,15.8662109,14.9853516,15.9414063z"/>
		<path style="opacity:0.35;fill:#FFFFFF;" d="M41.1572266,54.8212891
			C39.7675781,53.3564453,48.1171875,54.9804688,51.25,52.5898438c3.5839844-2.7353516,6.1298828-4.3105469,5.6289063-1.4667969
			C56.3076172,54.3662109,43.1748047,56.9501953,41.1572266,54.8212891z"/>
	</g>
	<path style="fill:#541715;" d="M37.6367188,60.3564453l-5.9506836-0.0107422l-0.4541016,0.0009766
		c-11.4873047,0-21.4038086-0.5117188-26.4135742-6.8027344C1.3208008,49.1533203,0.6855469,42.3828125,2.875,32.8466797
		C8.4560547,8.5410156,12.0151367,2.3730469,31.6845703,2.3730469c21.1054688,0,24.9560547,3.7646484,29.4296875,28.7714844
		c2.2011719,12.3085938,1.5869141,19.7050781-1.9941406,23.9833984
		C55.0576172,59.9814453,47.6533203,60.3564453,37.6367188,60.3564453z M32.1645508,57.9072266l5.472168,0.0107422
		c9.3496094,0,16.2294922-0.3115234,19.6142578-4.3554688c3.0332031-3.6240234,3.4980469-10.6113281,1.4628906-21.9882813
		C54.2519531,6.6279297,50.8505859,4.8115234,31.6845703,4.8115234c-17.2705078,0-20.7290039,3.7392578-26.4335938,28.5800781
		c-2.012207,8.7666016-1.5302734,14.8613281,1.4746094,18.6337891c4.3325195,5.4404297,13.6616211,5.8828125,24.5063477,5.8828125
		L32.1645508,57.9072266z"/>
	<g>
		
			<radialGradient id="SVGID_4_" cx="11.8305664" cy="28.3574219" r="8.5894365" gradientTransform="matrix(0.9848 -0.1738 0.1738 0.9848 -4.8177834 5.8248901)" gradientUnits="userSpaceOnUse">
			<stop  offset="0" style="stop-color:#E71F19"/>
			<stop  offset="0.4236158" style="stop-color:#E21D19;stop-opacity:0.5763842"/>
			<stop  offset="0.8947302" style="stop-color:#D5181B;stop-opacity:0.1052698"/>
			<stop  offset="1" style="stop-color:#D1161B;stop-opacity:0"/>
		</radialGradient>
		<circle style="fill:url(#SVGID_4_);" cx="11.8117676" cy="31.7456055" r="9.0837774"/>
		
			<radialGradient id="SVGID_5_" cx="50.5136719" cy="29.980957" r="8.5892076" gradientTransform="matrix(0.9848 -0.1738 0.1738 0.9848 -4.8177834 5.8248901)" gradientUnits="userSpaceOnUse">
			<stop  offset="0" style="stop-color:#E71F19"/>
			<stop  offset="0.4236158" style="stop-color:#E21D19;stop-opacity:0.5763842"/>
			<stop  offset="0.8947302" style="stop-color:#D5181B;stop-opacity:0.1052698"/>
			<stop  offset="1" style="stop-color:#D1161B;stop-opacity:0"/>
		</radialGradient>
		<circle style="fill:url(#SVGID_5_);" cx="50.1884766" cy="26.621582" r="9.0844984"/>
	</g>
	<g>
		<circle style="fill:#FFFFFF;" cx="17.9074707" cy="23.6845703" r="8.5080566"/>
		<path style="fill:#330200;" d="M17.9077148,32.9404297c-5.1049805,0-9.2583008-4.1523438-9.2583008-9.2558594
			c0-5.1054688,4.1533203-9.2587891,9.2583008-9.2587891s9.2578125,4.1533203,9.2578125,9.2587891
			C27.1655273,28.7880859,23.0126953,32.9404297,17.9077148,32.9404297z M17.9077148,15.9257813
			c-4.277832,0-7.7583008,3.4804688-7.7583008,7.7587891c0,4.2763672,3.4804688,7.7558594,7.7583008,7.7558594
			s7.7578125-3.4794922,7.7578125-7.7558594C25.6655273,19.40625,22.1855469,15.9257813,17.9077148,15.9257813z"/>
	</g>
	<circle style="fill:#330100;" cx="14.7375488" cy="21.8095703" r="3.9499512"/>
	<g>
		<path style="fill:#842C38;" d="M51.9892578,37.6806641c-0.6230469,10.625-9.5839844,18.7441406-20.012207,18.1308594
			c-10.4287109-0.6132813-18.3759766-9.7265625-17.7509766-20.3515625c7.637207,0.2275391,8.3603516,2.0917969,18.7885742,2.7050781
			C43.4443359,38.7783203,43.5380859,37.1845703,51.9892578,37.6806641z"/>
		<polygon style="fill:#FFFFFF;" points="51.5166016,43.1972656 14.0507813,40.9941406 14.3447266,36.0009766 
			32.7416992,38.6826172 51.8095703,38.2050781 		"/>
		<path style="fill:#330100;" d="M33.0839844,56.84375c-0.3867188,0-0.7749023-0.0107422-1.1655273-0.0341797
			c-5.3139648-0.3125-10.1850586-2.7138672-13.7158203-6.7617188c-3.5258789-4.0429688-5.2924805-9.2441406-4.9746094-14.6464844
			l0.0585938-0.9980469l0.9980469,0.0585938c4.0893555,0.2402344,6.2089844,0.7304688,8.4536133,1.2480469
			c2.4243164,0.5605469,4.9311523,1.1386719,10.3349609,1.4570313c1.6123047,0.0947266,3.0371094,0.140625,4.3583984,0.140625
			h0.0009766c2.6572266,0,4.3964844-0.1914063,6.078125-0.3759766c1.6289063-0.1787109,3.1679688-0.3486328,5.4003906-0.3486328
			c0.9755859,0,2.0019531,0.0332031,3.1367188,0.0996094l0.9980469,0.0585938l-0.0585938,0.9980469
			C52.359375,48.4521484,43.6162109,56.84375,33.0839844,56.84375z M15.1918945,36.5273438
			c-0.0263672,4.5107422,1.5585938,8.8125,4.5180664,12.2050781c3.1748047,3.640625,7.5522461,5.7998047,12.3256836,6.0810547
			c9.5961914,0.5595703,17.7973633-6.6660156,18.8696289-16.1865234c-0.7001953-0.0292969-1.3583984-0.0439453-1.9941406-0.0439453
			c-2.1220703,0-3.6083984,0.1640625-5.1816406,0.3369141c-1.7353516,0.1904297-3.5302734,0.3876953-6.296875,0.3876953
			c0,0,0,0-0.0009766,0c-1.3603516,0-2.8242188-0.046875-4.4755859-0.1445313
			c-5.5722656-0.3271484-8.1625977-0.9257813-10.6679688-1.5039063
			C20.324707,37.2060547,18.4599609,36.7753906,15.1918945,36.5273438z"/>
		<g>
			<path style="fill:#EA7C91;" d="M16.4555664,43.0263672c0,0,4.9516602,0.9609375,9.652832,3.4462891
				c4.7026367,2.4824219,7.734375,4.3642578,9.7910156,7.0683594c0,0-1.953125,3.6992188-3.1352539,5.9375
				c-1.1806641,2.2363281-8.0097656,1.4550781-12.3540039-0.8378906c-4.3447266-2.2929688-8.5288086-6.9550781-7.190918-9.4863281
				C14.5571289,46.6191406,16.4555664,43.0263672,16.4555664,43.0263672z"/>
			<path style="fill:#E42A56;" d="M15.9501953,45.4970703c0,0,9.8046875,3.2109375,18.34375,9.6884766l0.9140625-1.7353516
				c0,0-3.8754883-4.1767578-8.5410156-6.6396484c-5.9375-3.1376953-9.8076172-3.0351563-9.8076172-3.0351563L15.9501953,45.4970703
				z"/>
			<polygon style="fill:#E42A56;" points="21.7299805,55.4726563 24.7602539,47.9765625 27.0615234,49.1933594 			"/>
			<path style="fill:#65132B;" d="M28.9819336,61.6269531c-2.831543,0-6.3457031-0.8896484-8.9521484-2.265625
				c-2.2524414-1.1884766-4.4882813-3.0068359-5.9814453-4.8632813c-1.7802734-2.2148438-2.3305664-4.2480469-1.5498047-5.7246094
				l3.5185547-6.6630859l0.59375,0.1152344c0.2070313,0.0410156,5.125,1.0136719,9.878418,3.5263672
				c4.887207,2.5800781,7.9375,4.5068359,10.0585938,7.2958984l0.3154297,0.4140625l-3.3779297,6.3974609
				C32.8745117,61.015625,31.3173828,61.6269531,28.9819336,61.6269531z M16.8867188,43.9560547l-2.9462891,5.5791016
				c-0.4448242,0.8408203,0.0708008,2.3144531,1.378418,3.9404297c1.3608398,1.6923828,3.40625,3.3535156,5.4716797,4.4443359
				c2.3530273,1.2412109,5.6450195,2.0761719,8.1914063,2.0761719c1.9077148,0,2.8320313-0.4638672,3.0615234-0.8984375
				l2.887207-5.4667969c-1.9345703-2.3417969-4.7729492-4.0986328-9.2026367-6.4375
				C22.1210938,45.2871094,18.3154297,44.2890625,16.8867188,43.9560547z"/>
		</g>
	</g>
	<g>
		<circle style="fill:#FFFFFF;" cx="46.0917969" cy="17.859375" r="8.5078125"/>
		<path style="fill:#330200;" d="M46.0917969,27.1162109c-5.1044922,0-9.2578125-4.1523438-9.2578125-9.2568359
			c0-5.1054688,4.1533203-9.2587891,9.2578125-9.2587891s9.2578125,4.1533203,9.2578125,9.2587891
			C55.3496094,22.9638672,51.1962891,27.1162109,46.0917969,27.1162109z M46.0917969,10.1005859
			c-4.2773438,0-7.7578125,3.4804688-7.7578125,7.7587891c0,4.2773438,3.4804688,7.7568359,7.7578125,7.7568359
			s7.7578125-3.4794922,7.7578125-7.7568359C53.8496094,13.5810547,50.3691406,10.1005859,46.0917969,10.1005859z"/>
	</g>
	<circle style="fill:#330100;" cx="47.815918" cy="14.9775391" r="3.949707"/>
</g>
</svg>
