<?xml version="1.0" encoding="UTF-8" standalone="no"?>
<!-- Generator: Adobe Illustrator 15.0.0, SVG Export Plug-In . SVG Version: 6.00 Build 0)  -->

<svg
   xmlns:dc="http://purl.org/dc/elements/1.1/"
   xmlns:cc="http://creativecommons.org/ns#"
   xmlns:rdf="http://www.w3.org/1999/02/22-rdf-syntax-ns#"
   xmlns:svg="http://www.w3.org/2000/svg"
   xmlns="http://www.w3.org/2000/svg"
   xmlns:sodipodi="http://sodipodi.sourceforge.net/DTD/sodipodi-0.dtd"
   xmlns:inkscape="http://www.inkscape.org/namespaces/inkscape"
   version="1.1"
   id="レイヤー_1"
   x="0px"
   y="0px"
   width="64px"
   height="64px"
   viewBox="0 0 64 64"
   style="enable-background:new 0 0 64 64;"
   xml:space="preserve"
   inkscape:version="0.48.5 r10040"
   sodipodi:docname="edit.svg"><metadata
     id="metadata15"><rdf:RDF><cc:Work
         rdf:about=""><dc:format>image/svg+xml</dc:format><dc:type
           rdf:resource="http://purl.org/dc/dcmitype/StillImage" /></cc:Work></rdf:RDF></metadata><defs
     id="defs13" /><sodipodi:namedview
     pagecolor="#ffffff"
     bordercolor="#666666"
     borderopacity="1"
     objecttolerance="10"
     gridtolerance="10"
     guidetolerance="10"
     inkscape:pageopacity="0"
     inkscape:pageshadow="2"
     inkscape:window-width="640"
     inkscape:window-height="480"
     id="namedview11" /><g
     id="g3"><g
       id="g5"><path
         style="fill:#09BBCE;"
         d="M41.09375,55.0625H6.2597656V8.9375H41.09375v6.753418l3.609375-3.6079102    c0-0.0009766,0.0019531-0.0014648,0.0019531-0.0019531l0.3886719-0.3886719V6.9375c0-1.1044922-0.8945313-2-2-2H4.2597656    c-1.1044922,0-2,0.8955078-2,2v50.125c0,1.1044922,0.8955078,2,2,2H43.09375c1.1054688,0,2-0.8955078,2-2V37.5292969l-4,4V55.0625    z"
         id="path7" /></g><path
       style="fill:#09BBCE;"
       d="M61.1542969,15.8139648L53.890625,8.5512695   c-0.78125-0.7802734-2.046875-0.7807617-2.828125,0.0004883l-4.9453125,4.9458008l-25.296875,25.293457   c-0.375,0.375-0.5859375,0.8837891-0.5859375,1.4140625c0,0.0087891,0.0029297,0.0175781,0.0029297,0.0273438l-2.5068359,9.3544922   c-0.1845703,0.6904297,0.0126953,1.4267578,0.5175781,1.9316406c0.3798828,0.3798828,0.890625,0.5859375,1.4140625,0.5859375   c0.1728516,0,0.3466797-0.0224609,0.5175781-0.0683594l9.8359375-2.6357422   c0.0273438-0.0078125,0.0507813-0.0234375,0.078125-0.0322266c0.1132813-0.0361328,0.2216797-0.0810547,0.3271484-0.1357422   c0.0410156-0.0214844,0.0820313-0.0410156,0.1220703-0.0654297c0.1289063-0.0791016,0.2529297-0.1699219,0.3623047-0.2783203   c0.0019531-0.0029297,0.0058594-0.0048828,0.0078125-0.0068359l25.2939453-25.2924805l4.9472656-4.9467773   c0.375-0.375,0.5859375-0.8837891,0.5859375-1.4140625S61.5292969,16.1894531,61.1542969,15.8139648z M22.4912109,47.2763672   l0.8417969-3.1435547l2.3007813,2.3007813L22.4912109,47.2763672z M29.4980469,44.640625l-4.4345703-4.4355469L47.53125,17.7402344   l4.4335938,4.4350586L29.4980469,44.640625z M54.7929688,19.3466797l-4.4335938-4.4350586l2.1171875-2.1171875l4.4355469,4.434082   L54.7929688,19.3466797z"
       id="path9" /></g></svg>