<?xml version="1.0" encoding="utf-8"?>
<!-- Generator: Adobe Illustrator 18.0.0, SVG Export Plug-In . SVG Version: 6.00 Build 0)  -->
<!DOCTYPE svg PUBLIC "-//W3C//DTD SVG 1.1//EN" "http://www.w3.org/Graphics/SVG/1.1/DTD/svg11.dtd">
<svg version="1.1" id="レイヤー_1" xmlns="http://www.w3.org/2000/svg" xmlns:xlink="http://www.w3.org/1999/xlink" x="0px"
	 y="0px" width="64px" height="64px" viewBox="0 0 64 64" style="enable-background:new 0 0 64 64;" xml:space="preserve">
<path style="fill:#C4BFBB;" d="M5.6391602,32c0.0834999-1.4706993,0.8642597-2.1089001,3.5234394-2.5116997
	c2.0913067-0.3169003,6.2260704-0.7250996,7.1933613-3.7870998c0.9672794-3.0620003-0.3227615-6.8491497-2.7397509-9.024931
	s6.8496103-6.5268593,20.6288872-7.8969698c13.7793007-1.3701196,19.9834023,0,19.9834023,0l-1.4501991,1.2084904
	l1.4501991,1.5312529h-1.7723999l1.2089005,0.7250977c0,0-9.4277,2.3369093-12.2480011,2.4174795v0.8056698
	c0,0-4.5928001,1.3706007-5.8017998,0.9672804c0,0,3.3838997,4.9638901,3.6259995,6.2529297
	c0.2421989,1.2891006-3.3661995,5.75-0.5643997,8.9766006L37.1455002,32c0,0,6.4463005,3.0479012,14.4238014,4.0956993
	c7.9776001,1.0479012,12.2490997,2.4169998,7.7363968,3.6259995c0,0,2.0937004,1.047802,1.0468025,1.6924019
	c-1.0468025,0.6445007-11.4423027,0.9658012-17.0830002-0.8867989c0,0-2.9004021-0.6435013-5.7206993-0.2412033
	C34.7285004,40.6884995,32,39.9639015,32,39.9639015l-0.6557999,1.9559975c0,0-1.1284008,0.5419998-0.9671993,1.347702
	c0.1610985,0.8055992,2.7391987,3.222599,3.4647999,4.4315987s5.7226982,8.1386986,7.4141006,8.9444008l1.7723999,1.2089005
	l-3.0625-1.047802l2.4981003,2.2568016c0,0-6.8487015-3.9491997-11.0391006-5.7216988
	c-4.1904011-1.7723999-10.5561504-6.2841034-13.53759-8.8632011c-2.981451-2.5791016-11.9648514-5.3614006-7.4526405-7.8594017
	C10.4345703,36.6171989,5.4780302,34.8339996,5.6391602,32z"/>
<path style="fill:#AAA6A3;" d="M7.3642602,34.3857002c0,0,2.7368102,2.0498009,3.2675796,0
	c0.5307579-2.0498009,0.8056602,3.6074982,2.5556602-2.1390991c0,0-1.9663086,3.7416992,0.4814501,6.2054977
	C13.6689501,38.4520988,7.8535199,36.3339996,7.3642602,34.3857002z"/>
<path style="fill:#AAA6A3;" d="M14.6855497,28.1187c0,0,12.516551-3.4165993,14.0717497-5.0800991
	C30.3125,21.375,35.6152,18.6855507,35.4716988,17.1581993c-0.0307999-0.32757,3.7695007,5.5293007,3.7695007,5.5293007
	l-1.4829979,5.4309998L38.1719017,31.7388c0,0-1.1719017,0.7132988-2.2969017,0.4873009
	C34.75,32,20.0825195,27.0527,14.6855497,28.1187z"/>
<path style="fill:#210F02;" d="M5.9077101,30.9389992c0,0,1.8642597,0.7251015,2.2080097,1.6919022
	c0.34375,0.9667969,2.8417997,3.3045998,3.1640654,2.5790977c0.3222656-0.7255974-0.3217754-1.1513977-0.4028349-2.0663986
	c-0.0810499-0.9155998,2.014163-2.3555012,1.1279325-3.8111C10.8774405,28.7588005,6.1259799,29.2626991,5.9077101,30.9389992z"/>
<path style="fill:#F9E678;" d="M7.5839801,30.6387005c0,0,0.4316401,0.5107002,1.1977601,0.783699
	c1.1484394,0.4090996,1.4257793-2.0898991,1.4257793-2.0898991L7.5839801,30.6387005z"/>
<path d="M8.6816397,31.3223c-0.8061495,0-0.9667997-1.25,0-1.25S9.4877901,31.3223,8.6816397,31.3223z"/>
<path style="opacity:0.5;fill:#210F02;" d="M18.5600586,28.53125l-0.1201172-0.9931641
	c0.8623047-0.1040039,0.9760742-0.3188477,0.9770508-0.3208008c0.027832-0.0976563-0.2021484-0.4458008-0.4755859-0.6689453
	L18.4975586,26.1875l0.4169922-0.3916016c0.2841797-0.2661133,0.4238281-0.5292969,0.4145508-0.78125
	c-0.0141602-0.4013672-0.3837891-0.7192383-0.3876953-0.722168l-0.3291016-0.2675781l0.2104492-0.3686523
	c0.3623047-0.6342773,0.4755859-1.1459961,0.3271484-1.4790039c-0.1513672-0.340332-0.559082-0.4428711-0.5634766-0.4433594
	l-0.8564453-0.1865234l0.5966797-0.6425781c0.5849609-0.6298828,0.8554688-1.2246094,0.8037109-1.7666016
	c-0.0620117-0.6445313-0.5668945-1.03125-0.5717773-1.0351563l-0.4384766-0.3212891l0.3564453-0.4101563
	c0.1811523-0.2084961,0.4711914-0.5981445,0.3769531-0.8686523c-0.1225586-0.3520508-0.8193359-0.5888672-1.1376953-0.6484375
	l-0.6611328-0.1235352l0.3076172-0.5976563c0.1967773-0.3798828,0.3911133-0.8984375,0.2026367-1.2114258
	c-0.206543-0.34375-0.8500977-0.4204102-1.0112305-0.421875l0.0107422-1c0.1352539,0.0014648,1.3359375,0.0390625,1.8574219,0.90625
	c0.2680664,0.4458008,0.2910156,0.9931641,0.0693359,1.6333008c0.4755859,0.1777344,1.0908203,0.519043,1.3056641,1.1313477
	c0.1621094,0.4614258,0.0683594,0.9584961-0.2783203,1.4819336c0.2509766,0.2949219,0.5473633,0.7661133,0.6069336,1.390625
	c0.0639648,0.6689453-0.1513672,1.3486328-0.6411133,2.0268555c0.2163086,0.1538086,0.4355469,0.378418,0.5791016,0.7001953
	c0.2524414,0.5668945,0.1860352,1.2548828-0.1967773,2.0483398c0.2055664,0.2543945,0.4438477,0.6547852,0.4619141,1.1601563
	c0.0146484,0.40625-0.1137695,0.7949219-0.3828125,1.159668c0.2822266,0.3291016,0.5839844,0.8291016,0.4316406,1.355957
	C20.1328125,28.3408203,18.9492188,28.4838867,18.5600586,28.53125z"/>
<path style="opacity:0.5;fill:#210F02;" d="M22.5083008,28.887207l-0.4375-0.8994141
	c0.2387695-0.1162109,0.3925781-0.2495117,0.4003906-0.3476563c0.0141602-0.1728516-0.2739258-0.4936523-0.4785156-0.6381836
	l-0.7119141-0.5029297l0.7939453-0.3603516c0.5791016-0.2631836,0.7099609-0.4760742,0.7114258-0.5356445
	c0.0024414-0.1157227-0.2568359-0.3637695-0.5244141-0.5009766l-0.6318359-0.3237305l0.5166016-0.4868164
	c0.2836914-0.2666016,0.4233398-0.5292969,0.4140625-0.78125c-0.0141602-0.4008789-0.3837891-0.71875-0.3876953-0.7216797
	L21.84375,22.5209961l0.2104492-0.3686523c0.3598633-0.6298828,0.4741211-1.1386719,0.3300781-1.472168
	c-0.1494141-0.3461914-0.5673828-0.4506836-0.5712891-0.4516602l-0.8305664-0.199707l0.5751953-0.6279297
	c0.5849609-0.6298828,0.8554688-1.2246094,0.8037109-1.7666016c-0.0615234-0.6450195-0.5664063-1.03125-0.5712891-1.0351563
	l-0.4384766-0.3212891l0.3564453-0.4101563c0.1811523-0.2084961,0.4711914-0.5981445,0.3769531-0.8686523
	c-0.1225586-0.3520508-0.8193359-0.5888672-1.1376953-0.6484375l-0.6611328-0.1235352l0.3081055-0.5981445
	c0.2719727-0.5258789,0.3515625-0.9448242,0.21875-1.1494141c-0.1665039-0.2563477-0.7148438-0.3139648-0.9521484-0.296875
	l-0.0644531-0.9980469c0.1347656-0.0083008,1.3222656-0.0634766,1.8525391,0.7456055
	c0.2763672,0.4223633,0.3012695,0.9609375,0.0751953,1.605957c0.4750977,0.1782227,1.0893555,0.519043,1.3041992,1.1308594
	c0.1616211,0.4614258,0.0683594,0.9584961-0.2783203,1.4819336c0.2509766,0.2949219,0.5473633,0.7661133,0.6069336,1.3901367
	c0.0639648,0.6689453-0.1518555,1.3491211-0.6416016,2.0273438c0.2167969,0.1542969,0.4365234,0.378418,0.5795898,0.7006836
	c0.2524414,0.5668945,0.1860352,1.2548828-0.1967773,2.0478516c0.2060547,0.2543945,0.4438477,0.6547852,0.4619141,1.159668
	c0.0136719,0.3789063-0.097168,0.7426758-0.3305664,1.0859375c0.2797852,0.2436523,0.5654297,0.6049805,0.5561523,1.0625
	c-0.0078125,0.4023438-0.2358398,0.7636719-0.6787109,1.078125c0.2099609,0.2680664,0.3930664,0.6220703,0.3608398,1.0200195
	C23.440918,28.0527344,23.2529297,28.5244141,22.5083008,28.887207z"/>
<path style="opacity:0.5;fill:#210F02;" d="M23.8574219,29.3334961L23.65625,28.3540039
	c0.3378906-0.0693359,0.7695313-0.2158203,0.9067383-0.5200195c0.1420898-0.3144531-0.0385742-0.7529297-0.1201172-0.8950195
	l-0.2280273-0.3979492l0.375-0.2641602c0.6206055-0.4311523,0.953125-0.8598633,0.9619141-1.2402344
	c0.0097656-0.4243164-0.3901367-0.7348633-0.3945313-0.737793l-0.4692383-0.3583984l0.4267578-0.4067383
	c0.2841797-0.2666016,0.4238281-0.5292969,0.4145508-0.78125c-0.0141602-0.4008789-0.3837891-0.71875-0.3876953-0.7216797
	L24.8125,21.7631836l0.2104492-0.3686523c0.3598633-0.6298828,0.4741211-1.1386719,0.3300781-1.472168
	c-0.1494141-0.3461914-0.5673828-0.4506836-0.5712891-0.4516602l-0.8305664-0.199707l0.5751953-0.6279297
	c0.5849609-0.6298828,0.8554688-1.2246094,0.8037109-1.7666016c-0.0615234-0.6450195-0.5664063-1.03125-0.5712891-1.0351563
	l-0.4384766-0.3212891l0.3564453-0.4101563c0.1811523-0.2084961,0.4711914-0.5981445,0.3769531-0.8686523
	c-0.1225586-0.3520508-0.8193359-0.5888672-1.1376953-0.6484375l-0.6611328-0.1235352l0.3081055-0.5981445
	c0.2651367-0.5126953,0.3339844-0.9174805,0.1943359-1.1396484c-0.2167969-0.3442383-0.9282227-0.3964844-1.1098633-0.3881836
	l-0.0302734-1c0.144043-0.0009766,1.4365234-0.0170898,1.9863281,0.8554688
	c0.2695313,0.4277344,0.2978516,0.9570313,0.0864258,1.5786133c0.4760742,0.1777344,1.0917969,0.519043,1.3071289,1.1318359
	c0.1616211,0.4614258,0.0683594,0.9584961-0.2783203,1.4819336c0.2509766,0.2949219,0.5473633,0.7661133,0.6069336,1.3901367
	c0.0639648,0.6689453-0.1518555,1.3491211-0.6416016,2.0273438c0.2167969,0.1542969,0.4365234,0.378418,0.5795898,0.7006836
	c0.2524414,0.5668945,0.1860352,1.2548828-0.1967773,2.0478516c0.2060547,0.2543945,0.4438477,0.6547852,0.4619141,1.159668
	c0.0146484,0.409668-0.1162109,0.8012695-0.3896484,1.1689453c0.2075195,0.2675781,0.4194336,0.6635742,0.4125977,1.1582031
	c-0.0087891,0.6347656-0.3647461,1.2407227-1.0600586,1.8056641c0.1201172,0.3520508,0.2138672,0.8754883-0.0131836,1.387207
	C25.2304688,28.7944336,24.6855469,29.1635742,23.8574219,29.3334961z"/>
<path style="opacity:0.5;fill:#210F02;" d="M26.8344727,30.1005859l-0.3369141-0.9414063
	c0.6298828-0.2255859,1.0166016-0.5107422,1.0888672-0.8037109c0.0771484-0.3110352-0.2016602-0.6391602-0.2045898-0.6420898
	l-0.5761719-0.6274414l0.8286133-0.1972656c0.6367188-0.1518555,0.7529297-0.3041992,0.7539063-0.3056641
	c-0.0644531-0.0678711-0.5644531-0.421875-1.0229492-0.6264648l-1.1113281-0.4951172l1.1386719-0.4291992
	c0.6391602-0.2412109,1.0327148-0.5317383,1.0805664-0.796875c0.0429688-0.2416992-0.206543-0.519043-0.2705078-0.574707
	l-0.418457-0.3632813l0.4038086-0.3789063c0.2841797-0.2661133,0.4238281-0.5292969,0.4145508-0.78125
	c-0.0141602-0.4008789-0.3837891-0.71875-0.3876953-0.7216797l-0.3291016-0.2675781l0.2104492-0.3686523
	c0.3598633-0.6298828,0.4741211-1.1386719,0.3300781-1.472168c-0.1494141-0.3461914-0.5673828-0.4506836-0.5712891-0.4516602
	l-0.8305664-0.199707l0.5751953-0.6279297c0.5849609-0.6298828,0.8554688-1.2246094,0.8037109-1.7666016
	c-0.0615234-0.6450195-0.5664063-1.03125-0.5712891-1.0351563l-0.4384766-0.3212891L27.75,14.4946289
	c0.1811523-0.2084961,0.4711914-0.5981445,0.3769531-0.8686523c-0.1225586-0.3520508-0.8193359-0.5888672-1.1376953-0.6484375
	l-0.6611328-0.1235352l0.3081055-0.5981445c0.1987305-0.3842773,0.3959961-0.9121094,0.2050781-1.2416992
	c-0.1972656-0.3408203-0.7954102-0.4418945-0.9892578-0.4506836l0.0371094-0.9990234
	c0.1318359,0.0043945,1.3041992,0.0703125,1.8144531,0.9428711c0.265625,0.4550781,0.2861328,1.0097656,0.0615234,1.6552734
	c0.4755859,0.1782227,1.0898438,0.519043,1.3051758,1.1313477c0.1616211,0.4614258,0.0683594,0.9584961-0.2783203,1.4819336
	c0.2509766,0.2949219,0.5473633,0.7661133,0.6069336,1.3901367c0.0639648,0.6694336-0.1518555,1.3491211-0.6416016,2.0273438
	c0.2167969,0.1542969,0.4365234,0.378418,0.5795898,0.7006836c0.2524414,0.5668945,0.1860352,1.2548828-0.1967773,2.0478516
	c0.2060547,0.2543945,0.4438477,0.6547852,0.4619141,1.159668c0.0151367,0.4189453-0.1220703,0.8193359-0.4086914,1.1938477
	c0.1791992,0.2700195,0.3457031,0.659668,0.2641602,1.1162109c-0.0766602,0.4282227-0.3544922,0.8022461-0.828125,1.1176758
	c0.4160156,0.3032227,0.7836914,0.7128906,0.7382813,1.1982422c-0.0454102,0.4887695-0.4702148,0.7734375-0.8725586,0.9399414
	c0.0952148,0.2578125,0.1489258,0.5776367,0.0625,0.9277344C28.3974609,29.2421875,27.8178711,29.7490234,26.8344727,30.1005859z"/>
<path style="opacity:0.5;fill:#210F02;" d="M30.5737305,31.0595703l-0.2646484-0.9648438
	c0.3833008-0.1049805,0.5751953-0.2021484,0.6665039-0.2617188c-0.0942383-0.0874023-0.2695313-0.2016602-0.425293-0.2709961
	l-1.090332-0.487793l1.1118164-0.4350586c0.6757813-0.2636719,0.862793-0.5024414,0.8676758-0.5913086
	c0.0087891-0.1694336-0.3681641-0.5024414-0.6855469-0.6655273l-0.9448242-0.4853516l0.9760742-0.4189453
	c1.0117188-0.434082,1.0986328-0.7055664,1.0996094-0.7080078c-0.0322266-0.0439453-0.2753906-0.1953125-0.4799805-0.2641602
	l-0.9921875-0.3344727l0.8818359-0.5620117c0.8886719-0.5649414,1.0859375-0.9389648,1.0664063-1.0581055
	c-0.0244141-0.1464844-0.4111328-0.3535156-0.715332-0.4272461L30.746582,22.90625l0.6728516-0.6333008
	c0.2841797-0.2666016,0.4238281-0.5292969,0.4145508-0.78125c-0.0141602-0.4008789-0.3837891-0.71875-0.3876953-0.7216797
	l-0.3291016-0.2675781l0.2104492-0.3686523c0.3598633-0.6298828,0.4741211-1.1386719,0.3300781-1.472168
	c-0.1494141-0.3461914-0.5673828-0.4506836-0.5712891-0.4516602l-0.8305664-0.199707l0.5751953-0.6279297
	c0.5849609-0.6298828,0.8554688-1.2246094,0.8037109-1.7666016c-0.0615234-0.6450195-0.5664063-1.03125-0.5712891-1.0351563
	L30.625,14.2592773l0.3564453-0.4101563c0.1811523-0.2084961,0.4711914-0.5981445,0.3769531-0.8686523
	c-0.1225586-0.3520508-0.8193359-0.5888672-1.1376953-0.6484375l-0.6611328-0.1235352l0.3081055-0.5981445
	c0.1982422-0.3833008,0.3955078-0.9082031,0.2070313-1.2280273c-0.1948242-0.3310547-0.7905273-0.4213867-0.9838867-0.4267578
	l0.0219727-1c0.1323242,0.0029297,1.3066406,0.0507813,1.8198242,0.9130859
	c0.2680664,0.4501953,0.2890625,1.0029297,0.0639648,1.6484375c0.4755859,0.1782227,1.0898438,0.519043,1.3051758,1.1313477
	c0.1616211,0.4614258,0.0683594,0.9584961-0.2783203,1.4819336c0.2509766,0.2949219,0.5473633,0.7661133,0.6069336,1.3901367
	c0.0639648,0.6694336-0.1518555,1.3491211-0.6416016,2.0273438c0.2167969,0.1542969,0.4365234,0.378418,0.5795898,0.7006836
	c0.2524414,0.5668945,0.1860352,1.2548828-0.1967773,2.0478516c0.2060547,0.2543945,0.4438477,0.6547852,0.4619141,1.159668
	c0.012207,0.3369141-0.0742188,0.6611328-0.2573242,0.9702148c0.3413086,0.1914063,0.6923828,0.4960938,0.7705078,0.9580078
	c0.0888672,0.5239258-0.1933594,1.0512695-0.8603516,1.5996094c0.2094727,0.1850586,0.3818359,0.4345703,0.3959961,0.7583008
	c0.0239258,0.5488281-0.4194336,0.9643555-0.9399414,1.2753906c0.2773438,0.2729492,0.5185547,0.6396484,0.4956055,1.081543
	c-0.0249023,0.4858398-0.3535156,0.8339844-0.7080078,1.0742188c0.184082,0.1977539,0.3188477,0.4458008,0.296875,0.7421875
	C31.9765625,30.597168,31.1733398,30.8950195,30.5737305,31.0595703z"/>
<path style="opacity:0.5;fill:#210F02;" d="M35.5703125,31.7543945l-0.765625-0.6425781
	c0.2080078-0.2485352,0.1738281-0.3876953,0.1621094-0.4335938c-0.0810547-0.3261719-0.6445313-0.652832-0.8886719-0.7519531
	l-0.8857422-0.3588867l0.7998047-0.5229492c0.6386719-0.4179688,0.8447266-0.737793,0.8232422-0.8979492
	c-0.0273438-0.2158203-0.46875-0.4672852-0.7080078-0.5473633l-1.190918-0.3979492l1.1381836-0.5292969
	c1.4052734-0.6538086,1.4160156-1.0336914,1.4160156-1.0371094c-0.0107422-0.1362305-0.4248047-0.3959961-0.8056641-0.5058594
	l-1.3408203-0.3867188l1.28125-0.5527344c0.9101563-0.3930664,1.0859375-0.6875,1.0830078-0.7451172
	c-0.0068359-0.1455078-0.4960938-0.4833984-1.0361328-0.6552734l-0.8125-0.2583008l0.6220703-0.5830078
	c0.3125-0.2929688,0.4746094-0.5644531,0.4560547-0.7641602c-0.0175781-0.1982422-0.2207031-0.3305664-0.2226563-0.3320313
	l-0.3994141-0.2563477l0.2275391-0.4169922c0.3603516-0.6298828,0.4746094-1.1391602,0.3310547-1.4726563
	c-0.1503906-0.3461914-0.5673828-0.4501953-0.5712891-0.4511719l-0.8310547-0.2001953l0.5761719-0.6274414
	c0.5849609-0.6298828,0.8554688-1.2246094,0.8037109-1.7666016c-0.0615234-0.6445313-0.5664063-1.03125-0.5722656-1.0351563
	l-0.4384766-0.3212891l0.3574219-0.4101563c0.1806641-0.2084961,0.4716797-0.5991211,0.3759766-0.8696289
	c-0.1230469-0.3520508-0.8310547-0.5917969-1.1357422-0.6474609l-0.6650391-0.1206055l0.3105469-0.6010742
	c0.2939453-0.5683594,0.359375-1.0385742,0.1923828-1.3979492c-0.2675781-0.5766602-1.0600586-0.7719727-1.0678711-0.7739258
	l0.2226563-0.9746094c0.0517578,0.0117188,1.2768555,0.3022461,1.7524414,1.3276367
	c0.2363281,0.5102539,0.2460938,1.0883789,0.0283203,1.7250977c0.4755859,0.1777344,1.0908203,0.519043,1.3066406,1.1318359
	c0.1611328,0.4614258,0.0683594,0.9584961-0.2783203,1.4819336c0.2509766,0.2949219,0.546875,0.7661133,0.6064453,1.390625
	c0.0644531,0.6689453-0.1513672,1.3486328-0.6416016,2.0268555c0.2167969,0.1542969,0.4355469,0.378418,0.5791016,0.7001953
	c0.25,0.5615234,0.1875,1.2407227-0.1845703,2.0234375c0.1503906,0.1772461,0.296875,0.4282227,0.3320313,0.7548828
	c0.0371094,0.3481445-0.0585938,0.6982422-0.2861328,1.046875c0.4814453,0.253418,1.03125,0.6733398,1.0615234,1.2773438
	c0.0263672,0.5351563-0.3632813,0.9462891-0.7880859,1.2382813c0.2890625,0.21875,0.5371094,0.5209961,0.5683594,0.9238281
	c0.0517578,0.6674805-0.5166016,1.1923828-1.1679688,1.5888672c0.2460938,0.2138672,0.4599609,0.5009766,0.5078125,0.8725586
	c0.0615234,0.4741211-0.1494141,0.9311523-0.6425781,1.3842773c0.3251953,0.2397461,0.6601563,0.5844727,0.7724609,1.0336914
	C36.0146484,30.746582,36.0136719,31.2265625,35.5703125,31.7543945z"/>
<path style="opacity:0.5;fill:#210F02;" d="M37.4375,16.7949219l-0.71875-0.6953125
	c1.5048828-1.5532227-0.6523438-4.0639648-0.6738281-4.0893555l-0.1816406-0.2080078l0.0791016-0.2646484
	c0.3691406-1.2329102-1.390625-2.3798828-1.4082031-2.3911133l0.5380859-0.8432617
	c0.09375,0.0600586,2.2021484,1.4267578,1.8916016,3.2485352C37.9140625,12.7451172,39.0566406,15.1230469,37.4375,16.7949219z"/>
<path style="fill:#AAA6A3;" d="M10.6318398,36.8213005c0,0,4.1181602,4.2313995,7.3056602,4.6737976
	C21.125,41.9375,25.9316006,40.6894989,26.8267002,41.625c0.8950005,0.9355011,1.1595993,5.5088005-0.955101,6.3964996
	c0,0,6.0254002-5.4687996,6.0776005-7.7490005c0,0-3.7694988-1.4892998-7.535099-1.0429993
	c-6.2002316,0.7344017-11.3379307-0.0088005-13.7822609-2.6503983"/>
<path style="opacity:0.5;fill:#210F02;" d="M39.8818359,16.2119141l-0.9003906-0.4345703
	c0.5771484-1.1943359-0.6777344-3.3076172-1.2099609-4.0214844l-0.203125-0.2724609l0.1777344-0.2890625
	c0.5996094-0.9707031-1.0400391-2.2485352-1.0566406-2.2612305l0.6005859-0.7993164
	c0.8291016,0.621582,1.9912109,1.9648438,1.4628906,3.2788086C39.296875,12.2104492,40.6943359,14.5288086,39.8818359,16.2119141z"
	/>
<path style="opacity:0.5;fill:#210F02;" d="M41.8681641,14.8779297l-0.9023438-0.4326172
	c0.7783203-1.6191406-1.0644531-3.0644531-1.1435547-3.125l-0.3896484-0.3007813l0.2939453-0.3955078
	c0.4941406-0.6616211-0.7792969-1.6855469-0.7919922-1.6958008l0.6132813-0.7895508
	c0.6806641,0.5273438,1.5976563,1.6186523,1.2099609,2.6660156C41.6269531,11.621582,42.6679688,13.2119141,41.8681641,14.8779297z"
	/>
<path style="opacity:0.5;fill:#210F02;" d="M44.2431641,14.5131836l-0.9648438-0.2646484
	c0.5478516-1.9951172-1.3066406-3.1884766-1.3261719-3.2001953l-0.3798828-0.2387695l0.1972656-0.4038086
	c0.2773438-0.5703125-0.3701172-1.5317383-0.6191406-1.8237305l0.7587891-0.6508789
	c0.1269531,0.1474609,1.1210938,1.3491211,0.8964844,2.5009766C43.6669922,11.125,44.7685547,12.6000977,44.2431641,14.5131836z"/>
<path style="opacity:0.5;fill:#210F02;" d="M46.7050781,14.0332031l-0.9765625-0.2167969
	c0.3662109-1.6494141-1.9111328-3.2592773-1.9345703-3.2753906l-0.3027344-0.2070313l0.1064453-0.3510742
	c0.1484375-0.4853516-0.3046875-1.1069336-0.4921875-1.3051758l0.7246094-0.6894531
	c0.0400391,0.0410156,0.8652344,0.9199219,0.7919922,1.9233398C45.3232422,10.4638672,47.1328125,12.1040039,46.7050781,14.0332031z
	"/>
<path style="fill:#210F02;" d="M48.3466988,13.1850595l-2.0811005-2.8769493l6.6739006,0.921382
	C52.9394989,11.2294922,53.4238014,12.9980469,48.3466988,13.1850595z"/>
<polygon style="fill:#210F02;" points="45.4453011,8.1709003 53.5839996,9.7075195 52.7783012,9.9877901 46.2655983,9.6625996 "/>
<path style="fill:none;stroke:#210F02;stroke-miterlimit:10;" d="M11.84375,37.8690987"/>
<path style="fill:none;stroke:#210F02;stroke-miterlimit:10;" d="M10.9345703,40.2373009"/>
<path style="opacity:0.5;fill:#210F02;" d="M12.612793,41.7197266c-0.0791016-0.1572266-0.7578125-1.5703125-0.1801758-2.5839844
	c0.2060547-0.3613281,0.6572266-0.8076172,1.6352539-0.875l0.0683594,0.9980469
	c-0.4291992,0.0292969-0.7099609,0.1542969-0.8344727,0.3710938c-0.2670898,0.4667969,0.0668945,1.3642578,0.2050781,1.6416016
	L12.612793,41.7197266z"/>
<path style="opacity:0.5;fill:#210F02;" d="M16.1386719,43.7451172c-0.2099609-0.4902344-0.6567383-1.6972656-0.2792969-2.3378906
	c0.0458984-0.078125,0.1015625-0.1455078,0.1660156-0.203125c0.0019531-0.2451172,0.0571289-0.5634766,0.2646484-0.8759766
	c0.3457031-0.5205078,0.9833984-0.8339844,1.8955078-0.9306641l0.1054688,0.9941406
	c-0.5932617,0.0634766-0.9970703,0.2324219-1.1674805,0.4892578c-0.1474609,0.2216797-0.0864258,0.4677734-0.0859375,0.4697266
	l0.175293,0.5810547l-0.503418,0.0507813c-0.0195313,0.2509766,0.1323242,0.8632813,0.3486328,1.3691406L16.1386719,43.7451172z"/>
<path style="opacity:0.5;fill:#210F02;" d="M21.5805664,47.4199219c-0.3989258,0-0.7192383-0.0576172-0.793457-0.0712891
	l0.1884766-0.9824219c0.4697266,0.0878906,1.2714844,0.0908203,1.5058594-0.1835938
	c0.1503906-0.1777344,0.0458984-0.5537109-0.0297852-0.7617188l-0.1889648-0.5185547l0.5356445-0.1367188
	c0.7207031-0.1835938,1.5761719-0.6025391,1.6513672-0.9101563c0.0205078-0.0830078-0.0698242-0.2246094-0.2416992-0.3789063
	l-0.5786133-0.5185547l0.7114258-0.3115234c0.234375-0.1054688,0.4609375-0.3007813,0.4736328-0.3798828
	c-0.0058594-0.0283203-0.0917969-0.1621094-0.4003906-0.3408203l-0.6611328-0.3828125l0.6157227-0.453125
	c0.578125-0.4248047,1.1416016-1.0048828,1.2495117-1.2724609c-0.0317383-0.0117188-0.0786133-0.0244141-0.144043-0.0361328
	l0.1767578-0.984375c0.6796875,0.1220703,0.8984375,0.4765625,0.9624023,0.7519531
	c0.152832,0.6601563-0.5444336,1.4248047-1.1386719,1.9384766c0.2416992,0.2558594,0.3549805,0.5351563,0.3383789,0.8359375
	c-0.0224609,0.3955078-0.2705078,0.6972656-0.5253906,0.9052734c0.1918945,0.3398438,0.1879883,0.6435547,0.1333008,0.8662109
	c-0.1948242,0.7900391-1.2338867,1.2666016-1.8911133,1.4931641c0.0854492,0.5019531-0.0107422,0.9189453-0.2880859,1.2441406
	C22.8330078,47.3105469,22.1318359,47.4199219,21.5805664,47.4199219z"/>
<path style="opacity:0.5;fill:#210F02;" d="M23.9438477,49.4130859c-0.0839844,0-0.1552734-0.0019531-0.2094727-0.0048828
	l0.0444336-0.9990234c0.5810547,0.0341797,1.1635742-0.1044922,1.2524414-0.2294922l0,0
	c-0.0048828,0-0.0136719-0.1162109-0.2138672-0.3691406l-0.5332031-0.6708984l0.847168-0.1337891
	c0.6826172-0.1074219,1.4023438-0.3300781,1.6733398-0.5068359c-0.027832-0.0224609-0.0634766-0.0478516-0.109375-0.0771484
	l-1.0698242-0.6796875l1.2460938-0.2333984c0.6040039-0.1132813,1.3325195-0.421875,1.4038086-0.6660156
	c0.019043-0.0644531-0.0571289-0.2197266-0.2695313-0.4199219l-0.4204102-0.3964844l0.4521484-0.359375
	c0.1186523-0.0966797,0.3725586-0.3798828,0.3383789-0.578125c-0.0126953-0.0742188-0.1142578-0.3369141-0.8842773-0.6123047
	l-1.590332-0.5683594l1.6435547-0.3886719c0.2133789-0.0527344,0.8051758-0.2763672,0.956543-0.6708984
	c0.0976563-0.2558594,0.0048828-0.59375-0.2763672-1.0058594l0.8261719-0.5644531
	c0.4785156,0.7021484,0.6069336,1.3525391,0.3813477,1.9335938c-0.1381836,0.3574219-0.3881836,0.6220703-0.652832,0.8154297
	c0.3310547,0.2558594,0.5258789,0.5566406,0.5825195,0.8994141c0.0776367,0.46875-0.1293945,0.8720703-0.3398438,1.1474609
	c0.2944336,0.4277344,0.2871094,0.7958984,0.2119141,1.0517578c-0.1743164,0.5927734-0.8344727,0.9492188-1.3920898,1.1503906
	c0.0439453,0.1474609,0.0400391,0.2822266,0.0166016,0.3945313c-0.1323242,0.6367188-1.0585938,0.9941406-1.8823242,1.1884766
	c0.0849609,0.2783203,0.0664063,0.5380859-0.0551758,0.7763672C25.5708008,49.3222656,24.4916992,49.4130859,23.9438477,49.4130859z
	"/>
<path style="opacity:0.5;fill:#210F02;" d="M28.1606445,51.4794922c-0.6425781,0-1.3208008-0.1503906-1.7060547-0.2519531
	l0.2548828-0.9667969c0.8745117,0.2285156,1.8657227,0.2871094,2.0532227,0.1191406
	c-0.0078125-0.0029297-0.0107422-0.0917969-0.1054688-0.2783203l-0.3647461-0.7177734L29.097168,49.375
	c0.2475586-0.0048828,0.5200195-0.1015625,0.5488281-0.171875c0.0009766-0.0029297,0.074707-0.3105469-0.7495117-1.1542969
	l-0.722168-0.7402344l1.0288086-0.1064453c0.6201172-0.0644531,1.9770508-0.3945313,2.2104492-1.0019531
	c0.1542969-0.4003906-0.2275391-0.9453125-0.5751953-1.3320313l0.7431641-0.6679688
	c0.7783203,0.8642578,1.0356445,1.6591797,0.7646484,2.3603516c-0.3300781,0.8564453-1.3725586,1.2753906-2.1503906,1.4726563
	c0.4326172,0.6044922,0.5551758,1.1162109,0.3740234,1.5527344c-0.159668,0.3847656-0.5058594,0.5820313-0.8222656,0.6826172
	c0.0356445,0.3398438-0.0766602,0.5800781-0.2045898,0.7382813C29.253418,51.3652344,28.7202148,51.4794922,28.1606445,51.4794922z"
	/>
<path style="opacity:0.5;fill:#210F02;" d="M31.1538086,53.3056641c-0.5742188,0-1.1455078-0.1357422-1.4008789-0.2050781
	l0.2631836-0.9648438c0.7646484,0.2070313,1.5664063,0.2109375,1.6865234,0.0683594
	c0.0112305-0.0302734,0.0053711-0.2050781-0.1899414-0.5537109l-0.5673828-1.0166016l1.1274414,0.2880859
	c0.1572266,0.0380859,0.3793945,0.0419922,0.4501953,0.0117188c-0.0239258-0.0146484-0.0209961-0.4150391-0.9194336-1.5859375
	l-1.3193359-1.7197266l1.9394531,0.9677734c0.7133789,0.3564453,1.5068359,0.5117188,1.6289063,0.3847656
	c0.0009766-0.0009766,0.0615234-0.0986328-0.0185547-0.4375L34.8066406,48.3125
	c0.1962891,0.8261719-0.0732422,1.2460938-0.3339844,1.4521484c-0.3339844,0.2646484-0.8046875,0.2880859-1.2617188,0.2158203
	c0.3369141,0.6640625,0.3730469,1.1542969,0.1269531,1.5263672c-0.1650391,0.25-0.4101563,0.3691406-0.6567383,0.4189453
	c0.0639648,0.3505859,0.0004883,0.6503906-0.190918,0.8945313C32.1977539,53.1943359,31.6743164,53.3056641,31.1538086,53.3056641z"
	/>
<path style="opacity:0.5;fill:#210F02;" d="M34.3154297,54.9707031c-0.2060547,0-0.3876953-0.0292969-0.484375-0.0488281
	L34,54.0732422c0.1513672,0.0302734,0.3398438,0.0380859,0.4560547,0.0234375
	c-0.0410156-0.0957031-0.1455078-0.2753906-0.4052734-0.5712891l-0.9833984-1.1171875l1.4287109,0.4160156
	c0.6787109,0.1962891,1.7685547,0.3310547,2.0449219,0.0664063c0.0615234-0.0585938,0.0712891-0.1787109,0.0283203-0.3544922
	l0.8417969-0.203125c0.1494141,0.6201172-0.0664063,0.9863281-0.2734375,1.1835938
	c-0.4306641,0.4101563-1.2050781,0.4296875-1.8447266,0.3505859c0.078125,0.2333984,0.0849609,0.46875-0.0410156,0.6855469
	C35.0576172,54.890625,34.6533203,54.9707031,34.3154297,54.9707031z"/>
<path style="fill:#210F02;" d="M36.2812996,55.6796989c0,0,1.4355011-0.1894989,0.7470016-1.1436005
	c-0.6884995-0.9540977,1.2812996-0.8163986,1.2812996-0.8163986l3.8260994,3.8272018h-2.0087013L36.2812996,55.6796989z"/>
<path style="opacity:0.5;fill:#210F02;" d="M18.6923828,44.6787109l-0.9570313-0.2890625l0.3989258-1.3242188
	c-0.1508789-0.2138672-0.3037109-0.5458984-0.2412109-0.9707031c0.1123047-0.7597656,0.8496094-1.4121094,2.2543945-1.9941406
	l0.3828125,0.9238281c-1.4394531,0.5966797-1.6245117,1.0771484-1.6469727,1.2099609
	c-0.0302734,0.1816406,0.1264648,0.3242188,0.1333008,0.3300781l0.2387695,0.2119141l-0.0839844,0.3134766L18.6923828,44.6787109z"
	/>
<path style="fill:#AAA6A3;" d="M19.8295898,39.7030983c0,0,7.6616096-3.8104973,8.9473095-3.8505974
	C30.0625,35.8125,41.4375,40.6601982,44.5,38.392601c3.0625-2.267601,0.3690987,0,0.3690987,0L49.0625,41.0527
	c0,0-13.1796989-0.8828011-15.3711014-0.780201C31.5,40.375,26.1758003,37.6386986,19.8295898,39.7030983z"/>
<path style="opacity:0.5;fill:#210F02;" d="M19.371582,46.0039063l-0.390625-0.9199219
	c0.5200195-0.2216797,1.3374023-0.7207031,1.4394531-1.0878906c0.0112305-0.0410156,0.0166016-0.0800781-0.0380859-0.15625
	l-0.293457-0.40625l0.4086914-0.2929688c0.0249023-0.0175781,2.4799805-1.7998047,1.7563477-3.5615234l0.9248047-0.3808594
	c0.8354492,2.0341797-1.0009766,3.8515625-1.7783203,4.5039063c0.0415039,0.1835938,0.0366211,0.3730469-0.0170898,0.5634766
	C21.1157227,45.2226563,19.6606445,45.8818359,19.371582,46.0039063z"/>
<path style="fill:#210F02;" d="M31.8632813,40.4833984c-0.0571289-0.0146484-5.7475586-1.4804688-10.6743164-0.2587891
	c-5.3173828,1.3222656-10.8554688-3.0019531-11.0883789-3.1865234l0.6674805-0.8427734
	c0.0527344,0.0419922,5.3500977,4.1748047,10.1621094,2.9863281c5.2021484-1.2900391,10.9643555,0.1982422,11.206543,0.2626953
	L31.8632813,40.4833984z"/>
<path style="fill:#210F02;" d="M37.5390625,32.7519531c-0.0761719-0.0161133-7.6850586-1.6337891-13.9277344-3.390625
	c-6.0625-1.706543-10.6162109-0.1069336-10.6611328-0.0908203l-0.3652344-1.0117188
	c0.1987305-0.0717773,4.9257813-1.7319336,11.3173828,0.0673828c6.2080078,1.7470703,13.7841797,3.3579102,13.859375,3.3740234
	L37.5390625,32.7519531z"/>
<path style="opacity:0.5;fill:#210F02;" d="M15.0126953,34.9277344c-0.4897461,0-0.8515625-0.0302734-0.9619141-0.0410156
	l0.1020508-1.0703125c0.8710938,0.0839844,3.3027344,0.0898438,4.0791016-0.8491211
	c0.2539063-0.3071289,0.3017578-0.7143555,0.1474609-1.2456055l-0.1225586-0.4204102l0.3886719-0.2055664
	c0.2998047-0.1591797,1.0917969-0.7080078,1.1518555-1.3320313c0.0375977-0.3867188-0.2177734-0.8041992-0.7587891-1.2416992
	l0.6757813-0.8359375c0.8417969,0.6801758,1.2294922,1.4160156,1.152832,2.1865234
	c-0.0952148,0.9536133-0.8808594,1.6279297-1.362793,1.9560547c0.1425781,0.8774414-0.1503906,1.4692383-0.4448242,1.824707
	C18.1547852,34.7460938,16.2055664,34.9277344,15.0126953,34.9277344z"/>
<path style="opacity:0.5;fill:#210F02;" d="M19.2587891,37.1103516l-0.1655273-1.0625
	c0.6269531-0.0986328,1.7294922-0.4433594,2.0175781-0.9482422c0.0566406-0.0986328,0.1088867-0.2451172,0.0083008-0.4980469
	l-0.2290039-0.5791016l0.6069336-0.1425781c0.5810547-0.1367188,1.5922852-0.5449219,1.831543-1.0610352
	c0.0498047-0.1074219,0.0981445-0.2836914-0.050293-0.5737305l-0.2636719-0.5151367l0.5332031-0.2250977
	c1.1040039-0.4663086,2.2016602-1.1157227,2.5097656-1.4677734c-0.0419922-0.0170898-0.097168-0.0361328-0.1689453-0.0556641
	l0.2822266-1.0371094c0.8139648,0.2216797,1.0097656,0.6455078,1.0307617,0.9624023
	c0.059082,0.8852539-1.3852539,1.7573242-2.7773438,2.3881836c0.0761719,0.4077148-0.012207,0.7431641-0.1210938,0.9775391
	c-0.3828125,0.8232422-1.4174805,1.2900391-2.0546875,1.5068359c0.0161133,0.2998047-0.0522461,0.5888672-0.2050781,0.8554688
	C21.40625,36.7470703,19.4765625,37.0761719,19.2587891,37.1103516z"/>
<path style="opacity:0.5;fill:#210F02;" d="M24.5830078,37.8154297c-0.6337891,0-1.2026367-0.0576172-1.5112305-0.0966797
	l0.1328125-1.0664063c1.3779297,0.1689453,3.0869141,0.0693359,3.3125-0.3222656
	c0.0351563-0.0605469,0.0151367-0.2675781-0.2802734-0.6582031l-0.5800781-0.7695313L26.6162109,34.8125
	c0.9038086-0.0849609,1.8706055-0.40625,1.9526367-0.6484375c0.0058594-0.0195313-0.0253906-0.1728516-0.328125-0.4501953
	l-1.0668945-0.9799805l1.4477539,0.0463867c1.7573242,0.0556641,3.5488281-0.1943359,3.7724609-0.5263672l0,0
	c-0.0180664,0-0.1391602-0.3496094-1.3242188-1.0527344l0.5488281-0.9248047
	c0.980957,0.5825195,2.0727539,1.3686523,1.8032227,2.2910156c-0.2958984,1.0126953-2.21875,1.2646484-3.8134766,1.2949219
	c0.0571289,0.2177734,0.0507813,0.4326172-0.0209961,0.6455078c-0.2524414,0.7480469-1.2817383,1.0976563-2.0732422,1.2578125
	c0.1450195,0.40625,0.1230469,0.7744141-0.0664063,1.1025391C27.0029297,37.6376953,25.6938477,37.8154297,24.5830078,37.8154297z"
	/>
<path style="opacity:0.5;fill:#210F02;" d="M36.0195313,39.1113281c-0.9736328,0-2.7714844-0.2441406-6.1557617-1.0263672
	l0.2421875-1.046875c2.3535156,0.5429688,5.1206055,1.0546875,6.0756836,1.0136719l0.1992188-0.6279297
	c0.2050781-0.0009766,0.4433594-0.0351563,0.5927734-0.0800781c-0.1757813-0.2255859-0.7675781-0.7753906-2.7460938-1.7988281
	l0.2822266-1.0136719c2.6308594,0.1699219,5.2324219,0.0263672,5.8359375-0.3095703
	c-0.09375-0.1083984-0.3251953-0.3173828-0.8818359-0.6328125l0.53125-0.9355469
	c0.796875,0.4521484,1.6816406,1.0732422,1.4443359,1.8632813c-0.2841797,0.953125-2.4414063,1.1982422-4.796875,1.1748047
	c1.1572266,0.7685547,1.5908203,1.3720703,1.4501953,1.9453125c-0.0976563,0.3984375-0.4326172,0.6132813-0.7900391,0.7294922
	c0.0019531,0.0888672-0.015625,0.1826172-0.0595703,0.28125C37.1552734,38.8447266,37.0361328,39.1113281,36.0195313,39.1113281z"/>
<path style="fill:#210F02;" d="M37.7578011,39.7030983H45.6875l-4.7206993-2.8817978l5.7686005,1.4403992l-3.972702-4.1493988
	c0,0,18.8866997,3.0761986,18.3789024,4.9375c-0.5078011,1.8612976-1.8359032,0.6718979-1.8359032,0.6718979
	s4.0283012,2.3535004-2.2753983,2.1719017C51.1211014,41.7235985,41.2705002,40.6514015,37.7578011,39.7030983z"/>
<path style="fill:#210F02;" d="M42.1953125,59.5273438c-0.0683594-0.0390625-6.8681641-3.953125-10.9799805-5.6923828
	c-4.253418-1.7988281-10.6777344-6.3544922-13.6796875-8.9521484c-0.859375-0.7431641-2.3154297-1.5439453-3.7231445-2.3193359
	c-2.652832-1.4599609-5.1582031-2.8388672-5.1601563-4.4580078c-0.0004883-0.4941406,0.2280273-0.953125,0.6811523-1.3691406
	c-1.5209961-0.7109375-4.3676758-2.3671875-4.230957-4.7670898c0.1152344-2.0327148,1.5463867-2.644043,3.9794922-3.0126953
	l0.4145508-0.0610352c2.0722656-0.3012695,5.5410156-0.8056641,6.3466797-3.3564453
	c0.8745117-2.7675781-0.2133789-6.3266602-2.5869141-8.4633789c-0.5097656-0.4589844-0.6796875-1.0488281-0.4790039-1.6606445
	c0.9423828-2.8735352,10.5488281-6.090332,21.4150391-7.1708984c4.0810547-0.4057617,7.9023438-0.6113281,11.3574219-0.6113281
	c5.9121094,0,8.6796875,0.5961914,8.7949219,0.621582l1.0693359,0.2363281L53.5625,10.0341797l1.9160156,2.0224609h-1.0810547
	l0.6601563,0.3959961l-1.2636719,0.3134766c-0.3652344,0.090332-8.5410156,2.1108398-11.8398438,2.4003906v0.7011719
	l-0.3837891,0.1147461c-0.1337891,0.0400391-3.078125,0.9135742-4.9091797,1.046875
	c1.0146484,1.5361328,2.9111328,4.5078125,3.1083984,5.559082c0.1025391,0.5449219-0.1845703,1.2456055-0.5810547,2.215332
	c-0.7792969,1.9008789-1.8447266,4.5048828-0.1054688,6.5078125l0.5927734,0.6835938l-0.7734375,0.1699219
	c2.3583984,0.9462891,7.1962891,2.6699219,12.7373047,3.3974609c9.921875,1.3037109,10,2.4912109,10.0380859,3.0625
	c0.0380859,0.5878906-0.4628906,0.9755859-1.1396484,1.2587891c0.3417969,0.2929688,0.6259766,0.6582031,0.6445313,1.0654297
	c0.0087891,0.2128906-0.0498047,0.6152344-0.5478516,0.9228516c-0.9052734,0.5566406-5.0800781,0.5849609-5.9082031,0.5849609
	c-2.1953125,0-7.7246094-0.1386719-11.6240234-1.4189453l0,0c-0.0126953,0-1.6328125-0.3466797-3.5654297-0.3466797
	c-0.6787109,0-1.3222656,0.0429688-1.9121094,0.1269531c-0.5908203,0.0839844-1.2216797,0.1269531-1.875,0.1269531
	c-1.4697266,0-2.7324219-0.2119141-3.3950195-0.3486328l-0.5732422,1.7099609l-0.2045898,0.0976563
	c-0.2338867,0.1152344-0.7314453,0.4658203-0.6728516,0.7578125c0.0722656,0.3203125,1.0292969,1.4003906,1.6625977,2.1152344
	c0.7143555,0.8066406,1.3901367,1.5683594,1.7358398,2.1455078c0.8476563,1.4130859,5.7197266,8.0380859,7.1845703,8.7353516
	l1.84375,1.25l-0.4765625,0.953125l-0.5859375-0.2001953l0.5556641,0.5019531L42.1953125,59.5273438z M45.5498047,8.7080078
	c-3.4199219,0-7.2050781,0.2041016-11.2519531,0.6064453C22.5209961,10.4853516,14.4213867,13.8520508,13.7988281,15.75
	c-0.0556641,0.1704102-0.046875,0.3251953,0.1772461,0.5268555c2.6708984,2.4042969,3.8876953,6.4360352,2.8925781,9.5864258
	c-1.0087891,3.1933594-4.8955078,3.7587891-7.2172852,4.0961914l-0.4082031,0.0605469
	c-2.7714844,0.4194336-3.0136719,1.0683594-3.0673828,2.0102539c-0.1132813,1.9921875,3.1674805,3.6210938,4.440918,4.0810547
	l1.1142578,0.4023438l-1.0361328,0.5742188c-0.4414063,0.2441406-0.9677734,0.6191406-0.9672852,1.0166016
	c0.0009766,0.984375,2.5527344,2.3886719,4.6030273,3.5175781c1.4570313,0.8017578,2.9633789,1.6298828,3.9082031,2.4482422
	c2.9482422,2.5498047,9.2436523,7.0185547,13.3955078,8.7744141c2.4233398,1.0244141,5.7514648,2.7851563,8.1293945,4.0898438
	l0.2958984-0.5019531c-2.2753906-2.0605469-6.2480469-7.7392578-6.6787109-8.4570313
	c-0.2949219-0.4912109-0.9677734-1.2509766-1.6186523-1.9853516c-1.1123047-1.2558594-1.7998047-2.0537109-1.9125977-2.6171875
	c-0.1689453-0.8457031,0.5068359-1.4980469,1.0522461-1.8242188l0.7485352-2.2333984l0.4873047,0.1289063
	c0.0161133,0.0039063,1.6347656,0.4257813,3.6123047,0.4257813c0.6025391,0,1.1826172-0.0390625,1.7226563-0.1162109
	c0.640625-0.0917969,1.3349609-0.1376953,2.0644531-0.1376953c2.0839844,0,3.7773438,0.3701172,3.8486328,0.3867188
	c2.6552734,0.8691406,6.875,1.3789063,11.3408203,1.3789063c3.1259766,0,5.0380859-0.2548828,5.3457031-0.4267578
	c0.0029297-0.0009766,0.0058594-0.0029297,0.0078125-0.0039063c-0.1259766-0.1914063-0.5791016-0.5292969-1.015625-0.7490234
	l-1.2607422-0.6337891l1.3632813-0.3662109c0.8613281-0.2304688,1.2226563-0.4238281,1.3671875-0.5273438
	c-0.3398438-0.2666016-1.9355469-1.1132813-9.0351563-2.0458984c-7.96875-1.046875-14.5185547-4.1123047-14.5830078-4.1430664
	l0.1142578-1.0107422l0.7265625-0.159668c-1.4316406-2.3569336-0.3222656-5.0678711,0.4365234-6.9194336
	c0.2509766-0.6132813,0.5634766-1.3764648,0.5195313-1.609375c-0.1611328-0.8579102-2.2578125-4.1660156-3.5419922-6.0493164
	l0.6142578-0.8125c0.0527344,0.0170898,0.1796875,0.0463867,0.4453125,0.0463867
	c1.2783203,0,3.7089844-0.6455078,4.6494141-0.9091797v-0.9228516l0.5214844-0.0151367
	c2.1191406-0.0600586,8.2001953-1.4594727,10.8613281-2.09375l-0.0830078-0.050293l0.2763672-0.9985352h0.5234375
	l-0.9853516-1.0400391l0.984375-0.8198242C51.6699219,8.9462891,49.21875,8.7080078,45.5498047,8.7080078z"/>
<ellipse style="fill:#FFFFFF;" cx="9.0151348" cy="30.4608994" rx="0.333005" ry="0.1778"/>
<g>
	<linearGradient id="SVGID_1_" gradientUnits="userSpaceOnUse" x1="5.6552405" y1="33.1160774" x2="6.3721309" y2="32.2300987">
		<stop  offset="0" style="stop-color:#000000"/>
		<stop  offset="1" style="stop-color:#FFFEDF"/>
	</linearGradient>
	<path style="fill:url(#SVGID_1_);" d="M6.0585899,31.1494007c-0.66748,0.0439987-1.1093698,0.5205002-1.62255,0.9901981
		c-0.77491,0.7100029,1.70996,1.0694008,1.70996,1.0694008C6.2255902,33.0966988,7.2890601,33.5946999,7.3642602,33.5
		C6.9838901,32.8905983,6.2866201,31.9209003,6.0585899,31.1494007z"/>
	<path d="M7.3232422,33.6123047c-0.0004883,0-0.0004883,0-0.0004883,0c-0.1010742,0-0.2817383-0.0605469-0.5673828-0.1591797
		c-0.199707-0.0693359-0.4472656-0.1542969-0.5463867-0.1601563l-0.0166016,0.0234375l-0.0605469-0.0087891
		c-0.1806641-0.0253906-1.7666016-0.2695313-1.9306641-0.8012695c-0.03125-0.1020508-0.027832-0.2617188,0.1674805-0.4404297
		l0.1547852-0.1430664c0.4594727-0.4277344,0.894043-0.831543,1.5288086-0.8730469l0.0795898-0.0053711l0.0224609,0.0766602
		c0.1796875,0.6069336,0.6572266,1.3408203,1.0410156,1.9306641c0.0927734,0.1425781,0.1791992,0.2763672,0.2539063,0.3955078
		l0.0371094,0.0595703L7.4423828,33.5625C7.4165039,33.5957031,7.3759766,33.6123047,7.3232422,33.6123047z M6.1992188,33.0927734
		c0.125,0,0.3662109,0.0830078,0.621582,0.171875c0.1142578,0.0390625,0.2456055,0.0849609,0.3481445,0.1142578
		c-0.0449219-0.0693359-0.0922852-0.1425781-0.1416016-0.2177734c-0.3745117-0.5761719-0.8374023-1.2871094-1.0400391-1.9047852
		c-0.5224609,0.0639648-0.8969727,0.4125977-1.3276367,0.8129883l-0.15625,0.144043
		c-0.1425781,0.1308594-0.1186523,0.2084961-0.1108398,0.2338867c0.09375,0.3046875,1.0966797,0.5615234,1.7324219,0.6572266
		C6.1459961,33.0966797,6.1708984,33.0927734,6.1992188,33.0927734z"/>
</g>
<g>
	<linearGradient id="SVGID_2_" gradientUnits="userSpaceOnUse" x1="4.8340325" y1="32.4232254" x2="5.5420384" y2="31.5482292">
		<stop  offset="0" style="stop-color:#000000"/>
		<stop  offset="1" style="stop-color:#FFFEDF"/>
	</linearGradient>
	<path style="fill:url(#SVGID_2_);" d="M6.0102501,30.9799995c-0.1245103-0.0142002-0.2353501-0.0356998-0.375-0.0410004
		c-2.1821301-0.0868988-1.5273399,2.6772003-1.5273399,2.6772003c0.6616197-1.0503006,1.5219698-1.4418983,2.27637-1.5536995
		C6.24121,31.7182999,6.1142602,31.3584003,6.0102501,30.9799995z"/>
	<path d="M4.0654297,33.8710938l-0.0546875-0.2314453c-0.0141602-0.0605469-0.3398438-1.4746094,0.2939453-2.2763672
		c0.2929688-0.3710938,0.7314453-0.5488281,1.3344727-0.5244141c0.0991211,0.0039063,0.1845703,0.015625,0.2700195,0.0273438
		c0.0371094,0.0048828,0.0742188,0.0102539,0.1123047,0.0146484l0.0673828,0.0073242l0.0175781,0.0654297
		c0.097168,0.3535156,0.2216797,0.7138672,0.3701172,1.0703125l0.0493164,0.1186523l-0.1269531,0.019043
		c-0.9194336,0.1362305-1.6621094,0.6435547-2.206543,1.5083008L4.0654297,33.8710938z M5.5361328,31.0371094
		c-0.4770508,0-0.8383789,0.1513672-1.074707,0.4501953c-0.4291992,0.5429688-0.3618164,1.4418945-0.2993164,1.8681641
		c0.5366211-0.753418,1.2353516-1.2138672,2.0825195-1.3710938c-0.1220703-0.3046875-0.2270508-0.6108398-0.3129883-0.9135742
		c-0.0166016-0.0019531-0.0332031-0.0043945-0.0498047-0.0063477c-0.0791016-0.0112305-0.1582031-0.0219727-0.2504883-0.0253906
		C5.5991211,31.0375977,5.5668945,31.0371094,5.5361328,31.0371094z"/>
</g>
<g>
	<path style="fill:#CCB656;" d="M5.3877001,30.9370003L6.0322299,30.7388c0,0,0.5434499,0.3237,0.6889601,0.8237
		s0.3989301,0.8769989,1.1069303,1.6318016l0.2758799,1.1913986c0,0-1.5439401-2.1595993-2.6059499-2.0550995
		C5.4980502,32.3306007,5.8252001,31.2446003,5.3877001,30.9370003z"/>
	<path d="M8.0224609,34.4443359c-0.0141602-0.0205078-1.4541016-2.0175781-2.4482422-2.0175781
		c-0.0224609,0-0.0444336,0.0009766-0.0664063,0.003418L5.359375,32.4448242l0.0429688-0.1430664
		c0.0849609-0.2827148,0.237793-1.0649414-0.0722656-1.2827148l-0.1669922-0.1176758l0.8823242-0.2709961l0.0380859,0.0224609
		c0.0234375,0.0141602,0.5791016,0.3500977,0.7338867,0.8818359c0.140625,0.4838867,0.394043,0.855957,1.0834961,1.5913086
		l0.0185547,0.0195313l0.2822266,1.2177734L8.0224609,34.4443359z M5.6293945,32.2285156
		c0.8105469,0.0483398,1.796875,1.140625,2.2734375,1.7304688l-0.1660156-0.7158203
		C7.0356445,32.4936523,6.7749023,32.1054688,6.625,31.590332c-0.1113281-0.3833008-0.4887695-0.6621094-0.6079102-0.7421875
		L5.5732422,30.984375C5.8125,31.3261719,5.6977539,31.9492188,5.6293945,32.2285156z"/>
</g>
<g>
</g>
<g>
</g>
<g>
</g>
<g>
</g>
<g>
</g>
<g>
</g>
</svg>
