<?xml version="1.0" encoding="utf-8"?>
<!-- Generator: Adobe Illustrator 18.0.0, SVG Export Plug-In . SVG Version: 6.00 Build 0)  -->
<!DOCTYPE svg PUBLIC "-//W3C//DTD SVG 1.1//EN" "http://www.w3.org/Graphics/SVG/1.1/DTD/svg11.dtd">
<svg version="1.1" id="レイヤー_1" xmlns="http://www.w3.org/2000/svg" xmlns:xlink="http://www.w3.org/1999/xlink" x="0px"
	 y="0px" viewBox="0 0 64 64" enable-background="new 0 0 64 64" xml:space="preserve">
<g>
	<g>
		<g>
			<path fill="#B61C25" d="M31.8,60.3C31.8,60.3,31.9,60.3,31.8,60.3c0.1,0,0.1,0,0.1,0c0,0,0,0,0,0c2.1,0,4-0.6,5.6-1.7
				c0.6-0.4,1.8-1.2,3-2.4c0.1-0.1,0.1-0.1,0.2-0.2c0.2-0.2,0.3-0.3,0.5-0.5c0.2-0.2,0.3-0.3,0.5-0.5c0,0,0.1-0.1,0.1-0.1
				c1.6-2,2.9-4.7,2.3-8c0-2.4-0.6-4.6-1.2-6.6c-2.5-8-1-15.4-1-15.4s0,0,0,0c0,0,0,0,0,0c0,0-0.1,0-0.1,0.1c0,0,0,0,0,0
				c0,0-0.1,0.1-0.2,0.1c0,0,0,0,0,0c-0.8,0.7-3,3-4.1,6.4c0,0,0,0,0,0c-0.1,0.3-0.2,0.6-0.2,0.9c0,0,0,0,0,0c0,0,0,0,0,0v0
				c-0.1,0.6-0.3,1.2-0.3,1.9c0,0,0,0,0,0c-0.6,2.4-2,4.2-3.8,5.9c-0.4,0-0.8-0.1-1.2-0.1c-0.6,0-1.2,0.1-1.8,0.2
				c1.5-1.1,3-2.2,4.1-3.7c4.4-5.5,0.4-9,0.4-9s-2.1,6.1-4,7.8c0.5-1.9-0.2-3-0.2-3s-2.3,4.6-6.3,8.4c-5,4.7-2.3,10.9-2,11.8
				c0,0.1,0,0.1,0,0.1c0,0,0,0,0-0.1c0.4,1.4,1,2.7,1.9,3.8c-11.6-9.2,7.2-25.2,14.3-36.3C46.8,7.5,32,3.8,32,3.8l0.2,0.4
				c0,0,0,0,0,0c0,0.1,0,0.2,0,0.3c0,0,0,0,0,0c0,0.1,0,0.3,0,0.4c0,0,0,0,0,0.1c0,0.2,0,0.3,0,0.5c0,0,0,0.1,0,0.1
				c0,0.2,0,0.4,0,0.6c0,0,0,0.1,0,0.1c0,0.2,0,0.5-0.1,0.7c0,0,0,0.1,0,0.1c0,0.3-0.1,0.5-0.1,0.9c0,0,0,0.1,0,0.1
				c-0.1,0.3-0.1,0.6-0.2,1c0,0,0,0.1,0,0.1c-0.1,0.3-0.2,0.7-0.3,1.1c0,0,0,0.1,0,0.1c-0.1,0.4-0.2,0.8-0.3,1.2
				c0,0.1,0,0.1-0.1,0.2c-0.1,0.4-0.3,0.8-0.4,1.3c0,0.1-0.1,0.2-0.1,0.2c-0.2,0.5-0.3,0.9-0.5,1.4c0,0.1-0.1,0.2-0.1,0.3
				c-0.2,0.5-0.4,1-0.7,1.5c0,0.1-0.1,0.2-0.1,0.3c-0.2,0.5-0.5,1.1-0.8,1.7c0,0.1-0.1,0.2-0.1,0.3c-0.3,0.6-0.6,1.2-1,1.9
				c0,0.1-0.1,0.2-0.1,0.2c-0.4,0.7-0.7,1.4-1.2,2.1c0,0.1-0.1,0.1-0.1,0.2c-0.4,0.7-0.9,1.5-1.4,2.3c-9.4,15.2-6.7,22.9-6.7,22.9
				s0,0,0-0.1c0.5,8.6,8,11,11.9,11.7C30.4,60.2,31.1,60.3,31.8,60.3C31.8,60.3,31.8,60.3,31.8,60.3z"/>
			<path fill="#B61C25" d="M53.1,28.6l-1.1,0.6c-0.3,0.1-6.5,3.7-6.5,11.1c0,3.4-0.1,7-0.8,9.9c0.1-1.1,0.1-2.3,0-3.3
				c0-2.1-0.4-4.2-1.2-6.8c-2.5-7.8-1-15-1-15.1l0.2-1.3l-1.1,0.9l-0.3,0.3c-0.9,0.8-3.1,3.1-4.2,6.7c0,0,0,0.1,0,0.1l-0.2-0.1
				c-0.1-2.6-1.8-4.1-1.8-4.1l-0.6-0.5l-0.2,0.7c0,0-1.4,4-2.9,6.3c-0.1-1-0.5-1.6-0.5-1.7l-0.5-0.7c0.7-0.9,1.4-1.7,2.1-2.6
				c2.4-3,4.7-5.8,6.4-8.4c2.5-3.9,3.2-7.4,2-10.4c-2-5.1-8.5-6.8-8.8-6.9l-0.9-0.2l0.5,1.2c0,0.1,0,0.2,0,0.3c0,0.1,0,0.2,0,0.5
				c0,0.1,0,0.3,0,0.6c0,0.2,0,0.4,0,0.6l0,0.1c0,0.2,0,0.4-0.1,0.7l0,0.1c0,0.3-0.1,0.5-0.1,0.8l0,0.1c0,0.3-0.1,0.6-0.2,1
				c-0.1,0.3-0.2,0.7-0.3,1.1l0,0.1c-0.1,0.4-0.2,0.8-0.4,1.2l0,0.1c-0.1,0.4-0.3,0.8-0.4,1.3l-0.1,0.2c-0.2,0.4-0.3,0.9-0.6,1.5
				l-0.1,0.2c-0.2,0.5-0.4,1-0.7,1.5l-0.1,0.3c-0.2,0.5-0.5,1.1-0.8,1.7l-0.1,0.3c-0.3,0.6-0.6,1.2-1,1.8l-0.1,0.2
				c-0.4,0.7-0.7,1.3-1.1,2.1l-0.1,0.2c-0.4,0.7-0.9,1.5-1.4,2.3c-9.3,15-6.9,22.8-6.7,23.3c0.3,4.2,2.2,6.9,4.5,8.7
				c-2.6-1.8-5.1-4.7-5.2-9.4c-0.3-10.5-8.1-12.5-8.2-12.5l-1.2-0.3L8,36.1c0,0.1,3.8,5.8,4.8,12c1,6.1,6.6,12.6,15,12.6H33l-0.2,0
				c0.6,0,1.2-0.2,1.8-0.3l-1,0.5l2-0.2l0.3,0l0.5-0.1c6.9-0.7,11.4-2.7,13.4-5.9c1.9-3,0.9-5.9,0.9-6L50.1,47
				c0.3-1.1,0.5-2.2,0.4-3.3c-0.4-4.8,0.7-8.6,2.1-13.4L53.1,28.6z M30,32.3c0,0-2.1,4.4-5.8,8c1.7-2.9,3.9-5.8,6.2-8.6L30,32.3z
				 M36.5,34.4c-0.5,1.9-1.6,3.7-3.5,5.5c-0.4,0-0.7-0.1-1.1-0.1c0,0,0,0,0,0c1-0.8,2-1.7,2.8-2.7c0.9-1.2,1.5-2.3,1.8-3.3
				C36.5,34,36.5,34.2,36.5,34.4z M49.8,48.8c-0.2,1.9-2.7,4.1-5.5,6.1c1.8-1.5,4.5-4.1,5.7-7.4L49.8,48.8z"/>
		</g>
		<g>
			<path fill="#B61C25" d="M16.1,47.9c-0.3-10.3-7.8-12.1-7.8-12.1s3.8,5.9,4.8,12.2c1,6.4,6.9,12.2,14.5,12.2
				C27.8,60.3,16.5,58.1,16.1,47.9z"/>
			<path fill="#B61C25" d="M27.8,60.8c-8.5,0-14-6.5-15-12.6c-1-6.2-4.7-12-4.8-12l-0.7-1.1l1.2,0.3c0.1,0,7.8,2,8.2,12.5
				c0.3,9.7,10.8,11.8,11.2,11.9L27.8,60.8z M9.6,36.9c1.2,2.1,3.4,6.4,4.1,11.1c0.7,4.4,4,8.9,8.9,10.8c-3.2-1.8-6.8-5.1-7-10.9
				C15.4,40.8,11.6,37.9,9.6,36.9z"/>
		</g>
		<g>
			<path fill="#B61C25" d="M42.3,55.8c0,0,8.2-5.5,7.7-12c-0.4-5.1,0.8-9,2.3-14.1c0,0-6.2,3.4-6.2,10.6S45.4,53.2,42.3,55.8z"/>
			<path fill="#B61C25" d="M42.6,56.2L42,55.4c3.1-2.6,3.6-9.1,3.6-15.1c0-7.4,6.2-10.9,6.5-11.1l1.1-0.6l-0.5,1.6
				c-1.4,4.8-2.5,8.6-2.1,13.4C51,50.5,43,56,42.6,56.2z M51.4,30.9c-1.7,1.4-4.9,4.5-4.9,9.4c0,4.7-0.2,9.4-1.7,12.7
				c2.2-2.1,4.9-5.5,4.6-9.2C49.2,39.1,50.1,35.4,51.4,30.9z"/>
		</g>
		<g>
			<path fill="#B61C25" d="M36.4,60.2c17.3-1.8,13.9-11.3,13.9-11.3C49.6,53.8,36.4,60.2,36.4,60.2z"/>
			<path fill="#B61C25" d="M33.6,60.9l2.6-1.2c3.6-1.7,13.1-7.1,13.6-10.9l0.3-2.1l0.7,2c0,0.1,1,3-0.9,6c-2,3.2-6.6,5.2-13.4,5.9
				L33.6,60.9z M50,50.9c-2,3.2-7.5,6.6-10.8,8.4c4.9-0.9,8.3-2.6,9.8-5.1C49.8,53,50,51.8,50,50.9z"/>
		</g>
	</g>
	<radialGradient id="SVGID_1_" cx="32" cy="50.2825" r="10" gradientUnits="userSpaceOnUse">
		<stop  offset="0.3045" style="stop-color:#D83B2A"/>
		<stop  offset="1" style="stop-color:#B61C25"/>
	</radialGradient>
	<circle fill="url(#SVGID_1_)" cx="32" cy="50.3" r="10"/>
	<g>
		<g>
			<g>
				<linearGradient id="SVGID_2_" gradientUnits="userSpaceOnUse" x1="28.8451" y1="52.8257" x2="28.8451" y2="27.7825">
					<stop  offset="0" style="stop-color:#DB5519"/>
					<stop  offset="1" style="stop-color:#EEE227"/>
				</linearGradient>
				<path fill="url(#SVGID_2_)" d="M34.4,36.8c4.4-5.5,0.4-9,0.4-9s-2.1,6.1-4,7.8c0.5-1.9-0.2-3-0.2-3s-2.3,4.6-6.3,8.4
					c-5,4.7-2.3,10.9-2,11.8c0,0.1,0,0.1,0,0.1C20.6,43.8,30,42.3,34.4,36.8z"/>
				<linearGradient id="SVGID_3_" gradientUnits="userSpaceOnUse" x1="33.3895" y1="55.7825" x2="33.3895" y2="32.5515">
					<stop  offset="0" style="stop-color:#DB5519"/>
					<stop  offset="1" style="stop-color:#EEE227"/>
				</linearGradient>
				<path fill="url(#SVGID_3_)" d="M37.3,32.6c-0.4,7.2-7.7,10.1-12.2,14.5c-4.5,4.3-0.3,8.7-0.3,8.7c-4.1-7,5.9-8.8,12.1-11.1l0,0
					c5.6,6.4,2.5,10,1.6,10.9C51.1,45.1,37.3,32.6,37.3,32.6z"/>
			</g>
			<linearGradient id="SVGID_4_" gradientUnits="userSpaceOnUse" x1="38.3621" y1="55.7825" x2="38.3621" y2="55.5879">
				<stop  offset="0" style="stop-color:#DB5519"/>
				<stop  offset="1" style="stop-color:#EEE227"/>
			</linearGradient>
			<path fill="url(#SVGID_4_)" d="M38.5,55.6c-0.1,0.1-0.1,0.1-0.2,0.2C38.3,55.8,38.3,55.7,38.5,55.6z"/>
			<linearGradient id="SVGID_5_" gradientUnits="userSpaceOnUse" x1="31.8857" y1="58.1998" x2="31.8857" y2="46.2304">
				<stop  offset="0" style="stop-color:#DB5519"/>
				<stop  offset="1" style="stop-color:#EEE227"/>
			</linearGradient>
			<path fill="url(#SVGID_5_)" d="M36.4,46.2c-0.9,2.1-2.7,3.6-4.5,4.8c1.6-1.5,2.2-2.4,2.8-3.9c0,0-3.2,2.4-6.3,4.1
				c-2.8,1.5-4.8,4.6,0.2,6.8c-1.6-1.6-2.4-4.3,0.9-4.8c4.4-0.7,5.8-2.6,5.8-2.6c2.5,3.8,0,6.2-2.2,7.5C37,56.5,40.7,53.4,36.4,46.2
				z"/>
		</g>
		<linearGradient id="SVGID_6_" gradientUnits="userSpaceOnUse" x1="29.4058" y1="60.2825" x2="29.4058" y2="3.7825">
			<stop  offset="0" style="stop-color:#DB5519"/>
			<stop  offset="1" style="stop-color:#E79015"/>
		</linearGradient>
		<path fill="url(#SVGID_6_)" d="M32,3.8c0,0,14.8,3.8,6.5,16.5s-32,32.3-6.5,40c0,0-22.8-0.6-10.6-25.8C28.2,20.7,39.3,14,32,3.8z"
			/>
		<linearGradient id="SVGID_7_" gradientUnits="userSpaceOnUse" x1="40.6504" y1="58.7825" x2="40.6504" y2="24.9075">
			<stop  offset="0" style="stop-color:#DB5519"/>
			<stop  offset="1" style="stop-color:#E79015"/>
		</linearGradient>
		<path fill="url(#SVGID_7_)" d="M43.2,43.9c-5.9-11.9-1.2-19-1.2-19s-9.3,7.1-2.8,19.4c4.8,9.1-2,14.5-2,14.5S47.8,53.1,43.2,43.9z
			"/>
		<linearGradient id="SVGID_8_" gradientUnits="userSpaceOnUse" x1="18.0625" y1="60.2825" x2="18.0625" y2="35.8384">
			<stop  offset="0" style="stop-color:#DB5519"/>
			<stop  offset="1" style="stop-color:#E79015"/>
		</linearGradient>
		<path fill="url(#SVGID_8_)" d="M16.1,47.9c-0.3-10.3-7.8-12.1-7.8-12.1s3.8,5.9,4.8,12.2c1,6.4,6.9,12.2,14.5,12.2
			C27.8,60.3,16.5,58.1,16.1,47.9z"/>
		<linearGradient id="SVGID_9_" gradientUnits="userSpaceOnUse" x1="47.3272" y1="55.7825" x2="47.3272" y2="29.6575">
			<stop  offset="0" style="stop-color:#DB5519"/>
			<stop  offset="1" style="stop-color:#E79015"/>
		</linearGradient>
		<path fill="url(#SVGID_9_)" d="M52.3,29.7c0,0-6.2,3.4-6.2,10.6s-0.7,12.9-3.7,15.5c0,0,8.2-5.5,7.7-12
			C49.6,38.7,50.8,34.7,52.3,29.7z"/>
		<linearGradient id="SVGID_10_" gradientUnits="userSpaceOnUse" x1="43.446" y1="60.1575" x2="43.446" y2="48.9075">
			<stop  offset="0" style="stop-color:#DB5519"/>
			<stop  offset="1" style="stop-color:#E79015"/>
		</linearGradient>
		<path fill="url(#SVGID_10_)" d="M50.3,48.9c-0.6,4.9-13.9,11.3-13.9,11.3C53.6,58.4,50.3,48.9,50.3,48.9z"/>
		<linearGradient id="SVGID_11_" gradientUnits="userSpaceOnUse" x1="25.9103" y1="48.3658" x2="25.9103" y2="3.9441">
			<stop  offset="0" style="stop-color:#B61C25"/>
			<stop  offset="1" style="stop-color:#D83B2A"/>
		</linearGradient>
		<path fill="url(#SVGID_11_)" d="M21.4,34.5c6.7-13.7,17.7-20.4,10.7-30.6c0.2,1.1,1.2,7.4-7.6,21.5c-9.4,15.2-6.7,22.9-6.7,22.9
			s0,0,0-0.1C17.6,44.8,18.6,40.3,21.4,34.5z"/>
		<linearGradient id="SVGID_12_" gradientUnits="userSpaceOnUse" x1="42.2368" y1="47.037" x2="42.2368" y2="24.9075">
			<stop  offset="0" style="stop-color:#B61C25"/>
			<stop  offset="1" style="stop-color:#D83B2A"/>
		</linearGradient>
		<path fill="url(#SVGID_12_)" d="M43.2,43.9c0.5,1.1,0.9,2.1,1,3.1c0-2.4-0.6-4.7-1.2-6.8c-2.5-8-1-15.4-1-15.4S37.3,32,43.2,43.9z
			"/>
	</g>
	<g>
		<linearGradient id="SVGID_13_" gradientUnits="userSpaceOnUse" x1="28.8451" y1="52.8257" x2="28.8451" y2="27.7825">
			<stop  offset="0" style="stop-color:#B61C25;stop-opacity:0.3"/>
			<stop  offset="1" style="stop-color:#B61C25;stop-opacity:0"/>
		</linearGradient>
		<path fill="url(#SVGID_13_)" d="M34.4,36.8c4.4-5.5,0.4-9,0.4-9s-2.1,6.1-4,7.8c0.5-1.9-0.2-3-0.2-3s-2.3,4.6-6.3,8.4
			c-5,4.7-2.3,10.9-2,11.8c0,0.1,0,0.1,0,0.1C20.6,43.8,30,42.3,34.4,36.8z"/>
		<linearGradient id="SVGID_14_" gradientUnits="userSpaceOnUse" x1="33.6641" y1="58.7825" x2="33.6641" y2="24.9075">
			<stop  offset="0" style="stop-color:#B61C25;stop-opacity:0.3"/>
			<stop  offset="1" style="stop-color:#B61C25;stop-opacity:0"/>
		</linearGradient>
		<path fill="url(#SVGID_14_)" d="M37.3,32.6C37.3,32.6,37.3,32.6,37.3,32.6c-0.1,0.6-0.3,1.3-0.3,1.9c-1.5,5.8-7.8,8.6-11.9,12.6
			c-4.5,4.3-0.3,8.7-0.3,8.7c-4.1-7,5.9-8.8,12.1-11.1l0,0c5.6,6.4,2.5,10,1.6,10.9c0.7-0.6,1.4-1.2,1.9-1.9c-1.1,3.5-3.2,5-3.2,5
			s8.1-4.3,7-11.7c0,0,0,0,0,0c0-2.4-0.6-4.7-1.2-6.8c-2.5-8-1-15.4-1-15.4S38.5,27.6,37.3,32.6C37.3,32.6,37.3,32.6,37.3,32.6z"/>
		<linearGradient id="SVGID_15_" gradientUnits="userSpaceOnUse" x1="29.2336" y1="60.2825" x2="29.2336" y2="3.7825">
			<stop  offset="0" style="stop-color:#B61C25;stop-opacity:0.3"/>
			<stop  offset="1" style="stop-color:#B61C25;stop-opacity:0"/>
		</linearGradient>
		<path fill="url(#SVGID_15_)" d="M38.5,20.3C46.8,7.5,32,3.8,32,3.8l0.2,0.4c0.3,1.5,0.6,7.9-7.7,21.3c-9.4,15.2-6.7,22.9-6.7,22.9
			s0,0,0-0.1c0.7,11.6,14.2,12,14.2,12C6.5,52.5,30.3,33,38.5,20.3z"/>
		<linearGradient id="SVGID_16_" gradientUnits="userSpaceOnUse" x1="18.0625" y1="60.2825" x2="18.0625" y2="35.8384">
			<stop  offset="0" style="stop-color:#B61C25;stop-opacity:0.3"/>
			<stop  offset="1" style="stop-color:#B61C25;stop-opacity:0"/>
		</linearGradient>
		<path fill="url(#SVGID_16_)" d="M16.1,47.9c-0.3-10.3-7.8-12.1-7.8-12.1s3.8,5.9,4.8,12.2c1,6.4,6.9,12.2,14.5,12.2
			C27.8,60.3,16.5,58.1,16.1,47.9z"/>
		<linearGradient id="SVGID_17_" gradientUnits="userSpaceOnUse" x1="47.3272" y1="55.7825" x2="47.3272" y2="29.6575">
			<stop  offset="0" style="stop-color:#B61C25;stop-opacity:0.3"/>
			<stop  offset="1" style="stop-color:#B61C25;stop-opacity:0"/>
		</linearGradient>
		<path fill="url(#SVGID_17_)" d="M42.3,55.8c0,0,8.2-5.5,7.7-12c-0.4-5.1,0.8-9,2.3-14.1c0,0-6.2,3.4-6.2,10.6S45.4,53.2,42.3,55.8
			z"/>
		<linearGradient id="SVGID_18_" gradientUnits="userSpaceOnUse" x1="43.446" y1="60.1575" x2="43.446" y2="48.9075">
			<stop  offset="0" style="stop-color:#B61C25;stop-opacity:0.3"/>
			<stop  offset="1" style="stop-color:#B61C25;stop-opacity:0"/>
		</linearGradient>
		<path fill="url(#SVGID_18_)" d="M36.4,60.2c17.3-1.8,13.9-11.3,13.9-11.3C49.6,53.8,36.4,60.2,36.4,60.2z"/>
		<linearGradient id="SVGID_19_" gradientUnits="userSpaceOnUse" x1="31.8857" y1="58.1998" x2="31.8857" y2="46.2304">
			<stop  offset="0" style="stop-color:#B61C25;stop-opacity:0.3"/>
			<stop  offset="1" style="stop-color:#B61C25;stop-opacity:0"/>
		</linearGradient>
		<path fill="url(#SVGID_19_)" d="M32.9,58.2c4.1-1.7,7.8-4.8,3.5-12c-0.9,2.1-2.7,3.6-4.5,4.8c1.6-1.5,2.2-2.4,2.8-3.9
			c0,0-3.2,2.4-6.3,4.1c-2.8,1.5-4.8,4.6,0.2,6.8c-1.6-1.6-2.4-4.3,0.9-4.8c4.4-0.7,5.8-2.6,5.8-2.6C37.7,54.5,35.1,56.9,32.9,58.2z
			"/>
	</g>
</g>
</svg>
