<?xml version="1.0" encoding="utf-8"?>
<!-- Generator: Adobe Illustrator 18.0.0, SVG Export Plug-In . SVG Version: 6.00 Build 0)  -->
<!DOCTYPE svg PUBLIC "-//W3C//DTD SVG 1.1//EN" "http://www.w3.org/Graphics/SVG/1.1/DTD/svg11.dtd">
<svg version="1.1" id="レイヤー_1" xmlns="http://www.w3.org/2000/svg" xmlns:xlink="http://www.w3.org/1999/xlink" x="0px"
	 y="0px" width="64px" height="64px" viewBox="0 0 64 64" style="enable-background:new 0 0 64 64;" xml:space="preserve">
<g>
	<g>
		<path style="fill:#E88542;" d="M27.5,12.8369141c0,0-2.4321003-3.4389639-0.9843998-4.8364239
			c1.4468002-1.3964901,3.4023991-1.7905302,3.2236996-3.0439501C29.5596008,3.7026401,29.7852001,2.3398399,31.9902,2.18115
			c2.2041016-0.15869,0,2.8652401,0,2.8652401L30.5449009,6.03125c0,0,1.3119984,3.60254,2.7441998,3.69238
			C33.8261986,10.4394503,30.3101006,13.4931602,27.5,12.8369141z"/>
		<path style="fill:#B21646;" d="M28.3242188,13.1787109c-0.3051758,0-0.6015625-0.0332031-0.8808594-0.0981445
			l-0.0927734-0.0219727l-0.0546875-0.0771484c-0.1044922-0.1479492-2.5375977-3.6318359-0.9541016-5.1606445
			c0.5634766-0.5439453,1.1938477-0.9360352,1.7495117-1.2822266c0.9511719-0.5913086,1.4848633-0.9550781,1.4003906-1.546875
			c-0.1362305-0.9501953-0.0004883-1.6625977,0.4145508-2.1777344c0.4165039-0.5166016,1.1113281-0.8134766,2.065918-0.8823242
			c0.737793-0.0483398,1.0288086,0.2314453,1.1489258,0.4677734c0.4335938,0.8525391-0.6977539,2.4770508-0.9287109,2.7944336
			l-0.0615234,0.059082l-1.2827148,0.8740234c0.4125977,1.0600586,1.4770508,3.2856445,2.456543,3.347168l0.1152344,0.0073242
			l0.0693359,0.0922852c0.1005859,0.1347656,0.1806641,0.378418-0.0166016,0.7724609
			C32.9736328,11.3447266,30.6396484,13.1787109,28.3242188,13.1787109z M27.6494141,12.6132813
			c0.2148438,0.043457,0.4414063,0.0654297,0.6748047,0.0654297c2.090332,0,4.262207-1.6787109,4.7011719-2.5561523
			c0.0390625-0.078125,0.0566406-0.1357422,0.0644531-0.1762695c-1.4663086-0.3344727-2.6455078-3.4604492-2.7797852-3.8295898
			L30.2436523,5.934082l1.5698242-1.0698242c0.4941406-0.6894531,1.0761719-1.8168945,0.8618164-2.2382813
			c-0.0786133-0.1547852-0.3081055-0.2226563-0.6669922-0.1953125c-0.8105469,0.0581055-1.3867188,0.2929688-1.7128906,0.6972656
			c-0.3232422,0.4008789-0.4243164,0.987793-0.3085938,1.7929688c0.1342773,0.9438477-0.6835938,1.4526367-1.6313477,2.0424805
			c-0.534668,0.3325195-1.1411133,0.7099609-1.6660156,1.2167969C25.6586914,9.1748047,26.9853516,11.6430664,27.6494141,12.6132813
			z"/>
	</g>
	<g>
		<path style="fill:#E5C3C3;" d="M41.5536995,16.4912109c0,0-2.0477982,0.4174786-2.4540977,4.1572285
			c-0.4062004,3.7397614,0.3993988,6.0668602,0.5790977,8.3950615c0.1796989,2.3285999,2.6856003,7.0414982,3.402401,3.5653973
			c0.7158012-3.4755974-0.3584023-8.7582989,0.8065987-10.8178787C45.0517998,19.7314491,42.8027,16.5644493,41.5536995,16.4912109z
			"/>
		<path style="fill:#B21646;" d="M42.2568359,34.0957031L42.2568359,34.0957031c-1.2851563,0-2.703125-3.418457-2.8271484-5.0332031
			c-0.0537109-0.6967773-0.1650391-1.3974609-0.2832031-2.1396484c-0.2724609-1.7172852-0.5820313-3.6635742-0.2958984-6.3012695
			c0.421875-3.8769531,2.5625-4.3569336,2.6533203-4.3754883l0.0322266-0.0063477l0.0322266,0.0019531
			c0.7099609,0.0415039,1.6435547,0.8725586,2.2695313,2.0209961c0.7265625,1.3349609,0.8242188,2.6655273,0.2675781,3.6513672
			c-0.6113281,1.0805664-0.5703125,3.1801758-0.5273438,5.402832c0.0361328,1.8505859,0.0732422,3.7636719-0.2519531,5.3422852
			C43.1289063,33.6123047,42.7695313,34.0957031,42.2568359,34.0957031z M41.5732422,16.7441406
			c-0.2509766,0.0698242-1.8681641,0.6484375-2.2246094,3.9311523c-0.2802734,2.5712891,0.0234375,4.4829102,0.2919922,6.1694336
			c0.1191406,0.7519531,0.2324219,1.4628906,0.2871094,2.1796875c0.1357422,1.7514648,1.5722656,4.5712891,2.3291016,4.5712891
			c0.2324219,0,0.4433594-0.3779297,0.5791016-1.0371094c0.3144531-1.5244141,0.2773438-3.4091797,0.2421875-5.2319336
			c-0.0449219-2.2929688-0.0869141-4.4589844,0.5917969-5.6586914c0.6679688-1.1816406,0.0332031-2.6079102-0.2714844-3.1660156
			C42.8310547,17.4599609,42.0361328,16.800293,41.5732422,16.7441406z"/>
	</g>
	<g>
		<path style="fill:#FFE3CA;" d="M30.0967007,16.3290997c0,0-1.7007008-3.04492-4.1182003-3.4033184
			c-2.4183998-0.3574219-6.2685394-0.6269531-5.7314301-1.970211c0.5375996-1.3427801,5.9096298-4.2080102,7.1635303-4.3872104
			c1.2539997-0.1791997,3.2231998,1.7016597,3.2231998,1.7016597s-0.8945007,1.61133-1.4321003,1.61133
			c-0.5370998,0-0.716301-0.8056698-0.716301-0.8056698l-1.1640987-0.5371094l-3.1343002,1.5219793
			c0,0,4.8349991-0.9853497,6.4468002,0.6264601c1.6123009,1.6127949,1.8807983-0.7158194,1.8807983-0.7158194L31.6201,9.0756798
			c0,0-1.0751991-1.9692297-1.0751991-3.0444298c0-1.0747099,1.4321995-2.6865201,3.6699009-1.7016602
			c2.2402992,0.9853501,1.1651001,5.8461905,1.1651001,5.8461905l1.9696999,2.3027353
			C37.3496017,12.4785156,38.4238014,17.4033203,30.0967007,16.3290997z"/>
		<path style="fill:#B21646;" d="M32.2905273,16.7324219c-0.6782227,0-1.4267578-0.0522461-2.2260742-0.1552734
			l-0.1245117-0.0161133l-0.0615234-0.1098633c-0.0166016-0.0292969-1.6708984-2.9423828-3.9365234-3.2783203
			c-0.3452148-0.0507813-0.7197266-0.1000977-1.1069336-0.1508789c-2.1020508-0.2763672-4.2758789-0.5620117-4.7768555-1.4174805
			c-0.1323242-0.2255859-0.1469727-0.4819336-0.0429688-0.7416992c0.581543-1.453125,5.9887695-4.3457031,7.3603516-4.5419922
			c1.3466797-0.1899414,3.3510742,1.6918945,3.4311523,1.7685547l0.1035156,0.0991211
			c-0.2954102-0.6708984-0.6152344-1.5390625-0.6152344-2.1572266c0-0.9228516,0.9169922-2.2578125,2.5751953-2.2578125
			c0.4658203,0,0.9511719,0.1098633,1.4453125,0.3271484c2.21875,0.9760742,1.4931641,5.2080078,1.3339844,6.0058594
			L37.59375,12.425293c0.0126953,0.0595703,0.3076172,1.4785156-0.6679688,2.6889648
			C36.0615234,16.1879883,34.5019531,16.7324219,32.2905273,16.7324219z M30.2504883,16.0966797
			c3.1381836,0.3852539,5.2827148-0.0566406,6.2817383-1.2905273c0.7255859-0.8950195,0.6210938-1.9604492,0.5830078-2.2172852
			l-2.0058594-2.3452148l0.0263672-0.121582c0.0107422-0.046875,1.0048828-4.6723633-1.0214844-5.5634766
			c-0.4296875-0.1894531-0.8486328-0.2851563-1.2441406-0.2851563c-1.2856445,0-2.0751953,1.0239258-2.0751953,1.7578125
			c0,0.9287109,0.8945313,2.6425781,1.027832,2.8935547l0.9541016,0.9550781L32.7631836,10
			c-0.0644531,0.559082-0.3759766,1.5058594-1.1337891,1.5058594c-0.3569336,0-0.7402344-0.2099609-1.1723633-0.6420898
			c-0.5571289-0.5571289-1.6713867-0.8515625-3.222168-0.8515625c-1.5395508,0-2.9833984,0.2905273-2.9980469,0.293457
			l-1.9389648,0.3945313l5.0205078-2.4379883l1.3833008,0.6381836l0.0273438,0.1206055
			c0.0366211,0.1582031,0.2006836,0.6103516,0.4726563,0.6103516c0.1894531,0,0.699707-0.6064453,1.1162109-1.3125
			c-0.612793-0.5483398-2-1.628418-2.8720703-1.5029297c-1.1616211,0.1660156-6.4697266,2.9907227-6.9667969,4.2324219
			c-0.046875,0.1176758-0.043457,0.2109375,0.0102539,0.3032227c0.3779297,0.6445313,2.7089844,0.9511719,4.4111328,1.1748047
			c0.3896484,0.0512695,0.7670898,0.1005859,1.1147461,0.1523438
			C28.2866211,13.0151367,29.9091797,15.5263672,30.2504883,16.0966797z M29.7519531,9.8706055
			c0.4389648,0.1601563,0.7924805,0.3735352,1.0585938,0.6396484c0.409668,0.409668,0.6713867,0.4956055,0.8188477,0.4956055
			c0.3686523,0,0.5571289-0.6137695,0.6191406-0.9472656l-0.8476563-0.8632813
			c-0.0200195-0.0356445-0.2324219-0.4282227-0.4663086-0.9521484l-0.0820313,0.1484375
			C30.6889648,8.6860352,30.2324219,9.4619141,29.7519531,9.8706055z M27.3242188,8.8149414l-1.59375,0.7739258
			c0.8139648-0.078125,1.8632813-0.1069336,2.6772461-0.0151367c-0.0581055-0.1079102-0.1025391-0.2192383-0.1333008-0.3203125
			L27.3242188,8.8149414z"/>
	</g>
	<path style="fill:#F4CCAB;" d="M34.1943016,11.7285156c0,0-0.5976028,1.0419922-0.0643997,1.0419922
		c0.5341988,0,3.1337967-0.3930664,3.1337967-0.3930664l-2.6337967-0.1279297
		C34.6299019,12.2495117,34.4902,11.7636719,34.1943016,11.7285156z"/>
	<polygon style="fill:#E08F4C;" points="30.8612995,6.3583999 33.7938995,5.5473599 33.4071999,5.0097699 31.3988991,5.44873 	"/>
	<g>
		<path style="fill:#FFE3CA;" d="M42.0068016,22.0596008c-1.2196999,0.5321999-2.2392006-0.3584309-2.2392006-1.6123314
			c0-1.2529297,0-6.8945398,0-6.8945398s-0.8964996-1.1640577-1.3437996-1.3427687
			c-0.4463005-0.1787109-0.6259003,1.1640587-0.6259003,1.1640587L37.3232002,13.67871c0,0-0.1543007-2.7231398,1.2803001-2.9018497
			c1.4325981-0.1792002,2.5078011,1.9702101,2.5078011,1.9702101s1.969799,6.2680702,1.969799,6.8945293
			C43.0811005,20.2685509,42.7733994,21.7246094,42.0068016,22.0596008z"/>
		<path style="fill:#B21646;" d="M41.2978516,22.4667969c-1.0146484,0-1.7802734-0.8681641-1.7802734-2.0195313v-6.8085938
			c-0.3603516-0.4584961-0.9345703-1.0957031-1.1865234-1.1967773c-0.0712891,0.0571289-0.2265625,0.527832-0.2851563,0.965332
			l-0.015625,0.1147461l-0.9326172,0.5986328l-0.0244141-0.4277344c-0.0068359-0.1206055-0.1484375-2.9589844,1.4990234-3.1640625
			c1.6025391-0.1953125,2.7177734,2.0161133,2.7626953,2.1064453c0.2177734,0.6821289,1.9960938,6.3603516,1.9960938,7.0063477
			c0,0.6616211-0.3085938,2.2470703-1.2236328,2.6469727C41.8359375,22.4067383,41.5644531,22.4667969,41.2978516,22.4667969z
			 M38.34375,11.9433594c0.0576172,0,0.1162109,0.0117188,0.1728516,0.034668
			c0.4863281,0.1938477,1.2919922,1.21875,1.4492188,1.4223633l0.0517578,0.0673828v6.9794922
			c0,0.8662109,0.5507813,1.5195313,1.2802734,1.5195313c0.1972656,0,0.4013672-0.0458984,0.609375-0.1362305
			c0.6064453-0.2651367,0.9238281-1.565918,0.9238281-2.1889648c0-0.4282227-1.2011719-4.4101563-1.9580078-6.8198242
			c0,0.0004883,0,0.0004883,0,0.0004883c-0.0039063,0-0.9912109-1.9521484-2.2382813-1.7973633
			c-0.8339844,0.1040039-1.0195313,1.394043-1.0566406,2.1318359C37.6601563,12.6879883,37.8662109,11.9433594,38.34375,11.9433594z
			"/>
	</g>
	<g>
		<path style="fill:#F9E8E8;" d="M33.6777,14.3584003c-2.2523994-0.0590801-3.0433998,0.1791992-2.8637009-0.9843807
			c0.1787014-1.1640587,1.1103001-2.9780197-0.0243988-3.1215792c-1.1343002-0.14258-4.2735004-1.5092802-5.7964001,0
			c0,0,0.3125,1.9003916-0.8731003,2.4213877c0,0-1.1425991,3.296382,0,4.5498028c0,0,0.0674,10.6557693,0.6044998,9.13377
			c0.5370998-1.5220013,0.9853992-2.5967007,1.8799-3.2236004c0.8955002-0.6265011,2.1117992-5.6923904,2.0410004-6.6518707
			c-0.0703011-0.9589796-0.4292011,3.0708008,1.1826,5.0405312c0,0-2.7749004,7.0742397-2.0591011,11.6406403
			c0.7164001,4.5673981,0.1788006,11.1923981-0.7162991,13.7899971c-0.8955002,2.5967026,0.0883999,6.8057022-2.8656998,7.5215034
			c0,0-0.8061008,1.8798981,0.1786995,2.7763977c0.9859009,0.8945007-0.2684994,2.7763023,2.8656998,3.7607002
			c3.1338005,0.9833984,5.0157013,1.0751991,8.4179993,0c3.402401-1.0751991-0.2675972-0.8055992,1.7451019-1.1650009
			c2.014698-0.357399,1.625-1.0751991,2.8046989-1.5214996c1.1796989-0.4473,0.285202-14.5077972-1.3270988-21.9384995
			c0,0,3.4911995,0.9844017,2.5067978-6.1791992c-0.9833984-7.1631012-2.0575981-7.8789005-3.222599-9.0429497
			c0,0,2.5956993-0.9853516,2.5068016-3.2236309c-0.089901-2.2387695,0.8633003-5.3725605-0.4639015-5.9096699
			C38.8721008,11.4931641,37.0820007,14.4482403,33.6777,14.3584003z"/>
		<path style="fill:#B21646;" d="M31.4257813,62.0341797c-1.2583008,0-2.4951172-0.2275391-4.269043-0.7841797
			c-2.1943359-0.6884766-2.3881836-1.8320313-2.5439453-2.75c-0.0737305-0.4355469-0.1376953-0.8125-0.4150391-1.0634766
			c-1.1040039-1.0058594-0.2763672-2.9765625-0.2407227-3.0605469l0.0493164-0.1152344l0.121582-0.0292969
			c1.828125-0.4423828,2.0092773-2.3925781,2.2006836-4.4570313c0.0927734-1.0019531,0.1889648-2.0371094,0.487793-2.9023438
			c0.9057617-2.6289063,1.4111328-9.1728516,0.7055664-13.6699219c-0.6723633-4.2890625,1.6313477-10.6088867,2.0219727-11.6367188
			c-0.5776367-0.7651367-0.8847656-1.7626953-1.0478516-2.6323242c-0.4086914,1.7358398-1.0922852,3.9467773-1.7485352,4.4057617
			c-0.8540039,0.5986328-1.2792969,1.6630859-1.7871094,3.1015625c-0.027832,0.078125-0.1113281,0.315918-0.3369141,0.315918
			c-0.2915039,0-0.6904297-0.0009766-0.7529297-9.4394531c-1.1230469-1.3920898-0.034668-4.5869141,0.0131836-4.7250977
			l0.0356445-0.1030273l0.1000977-0.0439453c0.996582-0.4379883,0.7299805-2.1347656,0.7270508-2.1518555l-0.0209961-0.1274414
			l0.0917969-0.0908203c0.5195313-0.5146484,1.2631836-0.7758789,2.2099609-0.7758789
			c0.9799805,0,1.9975586,0.2666016,2.8149414,0.480957c0.3989258,0.1049805,0.7431641,0.1948242,0.9785156,0.2246094
			c0.277832,0.0351563,0.4853516,0.1538086,0.6171875,0.3530273c0.3139648,0.4741211,0.0947266,1.2509766-0.137207,2.0727539
			c-0.1005859,0.3554688-0.1948242,0.690918-0.2397461,0.9819336c-0.0395508,0.2558594-0.0253906,0.418457,0.0424805,0.4985352
			c0.1533203,0.1796875,0.7358398,0.1816406,1.5415039,0.1850586c0.3046875,0.0009766,0.6499023,0.0024414,1.0395508,0.0126953
			l0.1455078,0.0019531c1.7607422,0,3.0712891-0.8505859,4.125-1.5336914
			c0.7402344-0.480957,1.3261719-0.8608398,1.9013672-0.8608398c0.1523438,0,0.2998047,0.0283203,0.4365234,0.0839844
			c1.0751953,0.4345703,0.9140625,2.0952148,0.7441406,3.8530273c-0.0751953,0.7758789-0.1523438,1.578125-0.1240234,2.277832
			c0.0751953,1.8989258-1.5800781,2.9414063-2.3222656,3.3120117c1.0869141,1.0717773,2.1142578,2.2177734,3.0361328,8.9306641
			c0.3876953,2.8217773,0.1386719,4.7631836-0.7402344,5.7709961c-0.5703125,0.6542969-1.2666016,0.7490234-1.6962891,0.7363281
			c1.4667969,7.0556641,2.5908203,21.3125,1.0976563,21.8779297c-0.4208984,0.1601563-0.609375,0.3486328-0.828125,0.5683594
			c-0.34375,0.3457031-0.734375,0.7373047-2.0214844,0.9658203c-0.0253906,0.0048828-0.0488281,0.0087891-0.0722656,0.0126953
			c0.0341797,0.0517578,0.0546875,0.1132813,0.0537109,0.1884766c-0.0039063,0.2802734-0.2675781,0.5048828-1.6953125,0.9560547
			C34.0087891,61.7919922,32.6831055,62.0341797,31.4257813,62.0341797z M24.3740234,54.6835938
			c-0.1425781,0.3935547-0.5556641,1.7304688,0.1601563,2.3828125c0.4052734,0.3671875,0.4897461,0.8671875,0.5717773,1.3496094
			c0.1464844,0.8652344,0.2983398,1.7597656,2.2001953,2.3574219c1.722168,0.5400391,2.9160156,0.7607422,4.1196289,0.7607422
			c1.2041016,0,2.4833984-0.234375,4.1484375-0.7607422c0.6757813-0.2138672,1.0195313-0.359375,1.1943359-0.4492188
			c-0.1240234-0.0458984-0.2822266-0.1259766-0.2666016-0.3193359c0.0195313-0.2460938,0.2597656-0.2988281,0.8486328-0.4042969
			c1.1318359-0.2011719,1.4345703-0.5048828,1.7548828-0.8271484c0.2265625-0.2265625,0.4833984-0.484375,1.0048828-0.6816406
			c0.9189453-0.7021484,0.1816406-13.9824219-1.4824219-21.6523438l-0.0888672-0.40625l0.4003906,0.1132813
			c0.0039063,0,0.9160156,0.2207031,1.5703125-0.5302734c0.5361328-0.6152344,1.0791016-2.046875,0.6210938-5.3745117
			c-0.9199219-6.7060547-1.9150391-7.684082-2.96875-8.7197266l-0.4550781-0.453125l0.3603516-0.1376953
			c0.0244141-0.0092773,2.4267578-0.9516602,2.3457031-2.9804688c-0.0292969-0.7338867,0.0498047-1.5537109,0.1269531-2.3461914
			c0.1445313-1.4975586,0.2939453-3.0463867-0.4345703-3.3413086c-0.4541016-0.1875-1.0986328,0.2270508-1.8789063,0.7329102
			c-1.1083984,0.7192383-2.4873047,1.6142578-4.3964844,1.6142578l-0.1591797-0.0019531
			c-0.3847656-0.0102539-0.7265625-0.0117188-1.027832-0.0126953c-1.0429688-0.0043945-1.6171875-0.0063477-1.9199219-0.3603516
			c-0.2216797-0.2597656-0.199707-0.6171875-0.15625-0.8994141c0.0493164-0.3212891,0.152832-0.6875,0.2524414-1.0415039
			c0.1733398-0.6137695,0.3891602-1.3779297,0.2016602-1.6611328c-0.0307617-0.0463867-0.0917969-0.1113281-0.2626953-0.1328125
			c-0.2675781-0.0336914-0.6269531-0.1279297-1.0424805-0.2368164c-0.7900391-0.2070313-1.7729492-0.4648438-2.6884766-0.4648438
			c-0.7670898,0-1.347168,0.1796875-1.7695313,0.5488281c0.0493164,0.4619141,0.1206055,1.949707-0.934082,2.5053711
			c-0.3115234,0.9521484-0.8432617,3.2978516-0.019043,4.2021484l0.0649414,0.0708008l0.0004883,0.0961914
			c0.0214844,3.3837891,0.1313477,7.1020508,0.3022461,8.5371094c0.4677734-1.2573242,0.9389648-2.234375,1.7885742-2.8300781
			c0.6074219-0.4248047,1.5610352-3.7094727,1.8618164-5.6279297c-0.0419922-0.9780273,0.0644531-1.0883789,0.1098633-1.1357422
			l0.0737305-0.0766602l0.1103516-0.0024414c0.2504883,0,0.2705078,0.2739258,0.2783203,0.3774414
			c0.0136719,0.1870117-0.0126953,0.4951172-0.0786133,0.9150391c0.0336914,0.7602539,0.2124023,2.7724609,1.2050781,3.9853516
			l0.0927734,0.1132813l-0.0532227,0.1362305c-0.027832,0.0703125-2.7421875,7.0644531-2.0449219,11.5102539
			c0.7163086,4.5673828,0.1972656,11.2275391-0.7270508,13.9101563c-0.2788086,0.8095703-0.3720703,1.8144531-0.4624023,2.7861328
			C26.6308594,51.9257813,26.4291992,54.1015625,24.3740234,54.6835938z"/>
	</g>
	<path style="fill:#E5C7C7;" d="M36.455101,38.8046989c-0.5156021-0.8593979,2.2723999-2.2392998,2.2098999,5.5508003
		c-0.0615005,7.7919998,0.3213005,13.8291016,0.3213005,13.8291016s-3.6063995,2.1991997-5.217701,2.3788986
		c-1.6119003,0.1796989,2.3290977-2.6856003,2.0605011-6.4473C35.5596008,50.3554993,36.9921989,39.6991997,36.455101,38.8046989z"
		/>
	<g>
		<path style="fill:#E88542;" d="M31.9902,2.18115c0,0-0.3710995,2.3271499,1.0615997,2.6855502
			c1.4336014,0.3588901,1.7020988,2.5966797,1.7020988,2.5966797s-0.9852982,4.0297842,1.3428001,4.3881817
			c2.3271027,0.3583994,3.6709023,2.9550781,3.6709023,2.9550781s5.1035004,6.8051805,5.5517006,4.656251
			c0.4482994-2.1494102-1.610302-2.8657207-2.6855011-5.1938505c-1.0751991-2.3276339-0.5703011-3.5307598-2.4346008-4.7202101
			c-1.8642006-1.1894598-2.580101-5.8320303-4.2812004-5.5258799C35.9179993,4.0229502,34.8681984,0.8379,31.9902,2.18115z"/>
		<path style="fill:#B21646;" d="M44.9013672,20.1323242c-1.3828125,0-4.6855469-4.3115234-5.3339844-5.1757813
			c-0.0341797-0.0595703-1.3378906-2.5234375-3.5087891-2.8579102c-0.546875-0.0839844-0.9755859-0.3535156-1.2744141-0.8012695
			C33.9541016,10.0556641,34.4160156,7.8183594,34.5,7.4521484c-0.0449219-0.2944336-0.359375-2.0551758-1.5087891-2.3427734
			c-1.6362305-0.409668-1.2646484-2.8632813-1.2480469-2.9677734l0.0209961-0.1308594l0.1201172-0.0561523
			c0.503418-0.2348633,0.9902344-0.3540039,1.4477539-0.3540039c1.7099609,0,2.5214844,1.6000977,2.7529297,2.1577148
			c0.9941406,0.0068359,1.6328125,1.3183594,2.3076172,2.7070313c0.5673828,1.1650391,1.1533203,2.3701172,1.9414063,2.8725586
			c1.2939453,0.8256836,1.5273438,1.6918945,1.8242188,2.7885742c0.1572266,0.5825195,0.3349609,1.2426758,0.7021484,2.0375977
			c0.4023438,0.8710938,0.9609375,1.5239258,1.453125,2.1000977c0.8320313,0.9731445,1.5498047,1.8129883,1.2509766,3.25
			C45.4472656,20.0722656,45.0615234,20.1323242,44.9013672,20.1323242z M32.2211914,2.3515625
			c-0.0473633,0.465332-0.1259766,2.0180664,0.8911133,2.2724609c1.5830078,0.3964844,1.8779297,2.7114258,1.8896484,2.8095703
			l0.0058594,0.0449219l-0.0107422,0.0439453c-0.0058594,0.0234375-0.5615234,2.3544922,0.203125,3.4975586
			c0.2207031,0.3305664,0.5263672,0.5214844,0.9345703,0.5844727c2.4248047,0.3735352,3.7978516,2.9765625,3.8544922,3.0874023
			c1.4208984,1.8886719,4.0361328,4.9404297,4.9121094,4.9404297c0.0507813,0,0.1269531,0,0.1728516-0.2207031
			c0.25-1.1962891-0.3632813-1.9135742-1.140625-2.8222656c-0.5136719-0.6010742-1.0957031-1.2817383-1.5263672-2.215332
			c-0.3857422-0.8334961-0.5693359-1.5151367-0.7324219-2.1166992c-0.2880859-1.0698242-0.4794922-1.7763672-1.6103516-2.4975586
			c-0.9072266-0.5791016-1.5244141-1.8481445-2.1210938-3.0756836c-0.6123047-1.2568359-1.2236328-2.546875-1.9814453-2.4150391
			l-0.2128906,0.0380859l-0.0683594-0.2055664c-0.0068359-0.0200195-0.6855469-2.0009766-2.3486328-2.0009766
			C32.9848633,2.1005859,32.6123047,2.1850586,32.2211914,2.3515625z"/>
	</g>
	<path style="fill:#B21646;" d="M37.1777344,59.9658203l-0.4980469-0.0449219
		c0.0146484-0.1582031,1.4208984-15.84375,0.0078125-21.0507813l0.4824219-0.1308594
		C38.6064453,44.0322266,37.2363281,59.3183594,37.1777344,59.9658203z"/>
	<path style="fill:#B21646;" d="M32.7148438,23.3964844c-1.7568359,0-3.0297852-1.6489258-3.0859375-1.7226563l0.3984375-0.3027344
		c0.0126953,0.0166016,1.2900391,1.6723633,2.9174805,1.5141602l0.0498047,0.4970703
		C32.9003906,23.3920898,32.8066406,23.3964844,32.7148438,23.3964844z"/>
	<path style="fill:#F4CCAB;" d="M34.0126991,9.2944298c0,0-0.5293007,2.1562538-1.2593002,2.1914101v-1.4448195
		L34.0126991,9.2944298z"/>
	<g>
		<path style="fill:#E88542;" d="M30.6387005,6.6635699c0,0,0.9813995-1.3647399,1.7455997-2.2290001L31.9902,2.18115
			C31.9902,2.18115,28.1273994,2.6284201,30.6387005,6.6635699z"/>
		<path style="fill:#B21646;" d="M30.6235352,7.112793l-0.1972656-0.3168945
			c-0.8764648-1.4086914-1.1044922-2.5712891-0.6777344-3.4555664c0.581543-1.2055664,2.1464844-1.3999023,2.2128906-1.4077148
			l0.234375-0.0268555l0.4555664,2.6044922l-0.0795898,0.0898438c-0.7470703,0.8447266-1.7202148,2.1958008-1.7299805,2.2094727
			L30.6235352,7.112793z M31.7875977,2.4736328c-0.4086914,0.0947266-1.246582,0.371582-1.5898438,1.0864258
			c-0.3154297,0.6572266-0.1601563,1.5473633,0.4624023,2.6503906c0.3198242-0.4335938,0.9248047-1.2373047,1.4570313-1.8505859
			L31.7875977,2.4736328z"/>
	</g>
	<path style="fill:#E5C7C7;" d="M24.8090992,13.2841797c0,0,3.9448013,2.3852501,3.4077015,3.2070313
		c-0.5370998,0.8222694-1.0986004,5.61479-2.1611004,5.7260895C24.9932003,22.3281002,24.7147999,13.82129,24.8090992,13.2841797z"
		/>
	<path style="fill:#E5C7C7;" d="M29.5132008,19.4628906c0,0,0.5092983,3.0444088,3.4564991,3.3130093
		C35.9179993,23.0443993,32.6898994,20.1787109,29.5132008,19.4628906z"/>
	<path style="fill:#E5C7C7;" d="M28.7954006,34.2373009c0,0,5.7680988,12.9833984-3.9863014,22.3857002v-1.4326019
		C24.8090992,55.1903992,28.7954006,54.5644989,28.7954006,34.2373009z"/>
	<path style="fill:#B21646;" d="M25.0048828,58.3398438l-0.3916016-0.3105469
		c1.9399414-2.4423828,1.9833984-2.5722656,3.0981445-5.8896484c0.2290039-0.6816406,0.503418-1.4970703,0.8476563-2.4931641
		c2.0571289-5.9423828,0.7255859-11.3544922,0.7119141-11.4082031l0.484375-0.1230469
		c0.0141602,0.0556641,1.3842773,5.6054688-0.7236328,11.6953125c-0.3442383,0.9941406-0.6176758,1.8076172-0.8466797,2.4892578
		C27.065918,55.6298828,26.9990234,55.8291016,25.0048828,58.3398438z"/>
	<path style="fill:#B25640;" d="M31.0869007,7.0752001c0,0,0.7294998-0.4170003,0.9032993-0.2431703
		c0.1734009,0.17383,0.4859009,0.6596704,0.2084999,1.0419903C31.9209003,8.2558603,32.0248985,6.9018602,31.0869007,7.0752001z"/>
	<path style="fill:#B21646;" d="M32.3843002,9.54883c0,0,0.891098,0.3393497,1.4818993-0.6674805
		C34.455101,7.8740201,34.1777,9.4365196,33.6221008,9.8183603C33.0663986,10.2002001,32.3959999,10.0776396,32.3843002,9.54883z"/>
	<path style="fill:#B25640;" d="M32.5834999,6.4502001c0,0,0.6567001-0.3125,1.0386009-0.2084999
		c0.3817978,0.1039996,0.0634003,0.5903296-0.3330002,0.7294898C32.8931007,7.1098599,32.8633003,6.4502001,32.5834999,6.4502001z"
		/>
	<path style="fill:#F4CCAB;" d="M24.3848,11.7285156l-2.2919998-0.9624052h2.4310989
		C24.5238991,10.7661104,24.5585995,11.5546865,24.3848,11.7285156z"/>
	<path style="fill:#F4CCAB;" d="M40.7139015,19.4545898c0,0,0.3563995,1.0781193,0.9706993,1.0781193
		c0.6142006,0,1.1219978,0.7456112,0.0429001,1.1670017C40.6474991,22.1201,39.7559013,20.2553692,40.7139015,19.4545898z"/>
	<path style="fill:#DD722A;" d="M33.7938995,4.7026401c0,0,2.1767998,1.5717697,2.2247009,3.2397399
		c0.0467987,1.6679697,1.5419006,2.8120098,2.6464005,3.3051786c1.1035995,0.4921875,2.5859985,4.5205116,3.2333984,4.8911114
		c0.6485023,0.3706093-1.5918007-1.5629902-2.6855011-3.3681622c-1.0937996-1.8056679-2.5-0.9511719-3.1942978-1.5229492
		C35.3232002,10.6752901,35.7812996,6.2773399,33.7938995,4.7026401z"/>
	<path style="fill:#DD722A;" d="M38.9863014,10.2524405c0,0,1.3378983,0.1914091,1.7538986,1.2333994
		c0.4179993,1.0415039,0.6953011,2.4770498,0.6953011,2.4770498S39.9160004,11.1269531,38.9863014,10.2524405z"/>
</g>
<g>
</g>
<g>
</g>
<g>
</g>
<g>
</g>
<g>
</g>
<g>
</g>
</svg>
