<?xml version="1.0" encoding="utf-8"?>
<!-- Generator: Adobe Illustrator 17.0.0, SVG Export Plug-In . SVG Version: 6.00 Build 0)  -->
<!DOCTYPE svg PUBLIC "-//W3C//DTD SVG 1.1//EN" "http://www.w3.org/Graphics/SVG/1.1/DTD/svg11.dtd">
<svg version="1.1" id="レイヤー_1" xmlns="http://www.w3.org/2000/svg" xmlns:xlink="http://www.w3.org/1999/xlink" x="0px"
	 y="0px" width="64px" height="64px" viewBox="0 0 64 64" style="enable-background:new 0 0 64 64;" xml:space="preserve">
<radialGradient id="SVGID_1_" cx="52.2348328" cy="42.0614891" r="12.8641357" gradientTransform="matrix(0.9695 0.0099 -0.0020777 0.2030089 -14.8678026 49.0236053)" gradientUnits="userSpaceOnUse">
	<stop  offset="0" style="stop-color:#595959"/>
	<stop  offset="1" style="stop-color:#414141;stop-opacity:0"/>
</radialGradient>
<path style="fill:url(#SVGID_1_);" d="M48.2981262,58.2074509c-0.0146332,1.5618668-5.6723328,2.7672806-12.6404648,2.6984062
	c-6.9642525-0.0740509-12.597002-1.3948441-12.5828075-2.9567108c0.0176334-1.5618668,5.6770973-2.769001,12.6404667-2.6958237
	C42.6826591,55.3239288,48.3153191,56.6464386,48.2981262,58.2074509z"/>
<g>
	<g>
		<path style="fill:#EBC19B;" d="M35.4933968,18.996912l-0.5445442-2.7130756c0,0,0.9624863-0.7500582,1.1706314-1.257246
			c0.2081413-0.5071878,0.0727882-2.4109211,0.0727882-2.4109211l2.2154999-1.2364635c0,0,0.2837753,2.7814922,0.3444786,3.0969687
			c0.0607033,0.3154755,0.9785957,0.6951323,0.9785957,0.6951323S36.4114304,19.1406364,35.4933968,18.996912z"/>
		<path style="fill:#42210B;" d="M35.5439453,19.2509766l-0.2617188-0.0336914l-0.6083984-3.0356445l0.1220703-0.0952148
			c0.2529297-0.1972656,0.9423828-0.7900391,1.0917969-1.1547852c0.1357422-0.3300781,0.1054688-1.5849609,0.0556641-2.2983398
			l-0.0117188-0.1586914l2.6865234-1.4985352l0.0390625,0.3779297c0.078125,0.7705078,0.2919922,2.8251953,0.3398438,3.074707
			c0.0419922,0.1030273,0.4384766,0.3500977,0.8291016,0.5117188l0.3144531,0.1303711l-0.21875,0.2607422
			C39.375,15.9863281,36.5917969,19.2509766,35.5439453,19.2509766z M35.2246094,16.3833008l0.4677734,2.3359375
			c0.6992188-0.2583008,2.4277344-2.0444336,3.6347656-3.4575195c-0.3417969-0.1708984-0.7626953-0.4384766-0.8203125-0.7382813
			c-0.0488281-0.2539063-0.2285156-1.9643555-0.3085938-2.7407227l-1.7460938,0.9746094
			c0.0292969,0.4960938,0.0917969,1.8916016-0.1015625,2.3637695
			C36.1630859,15.5771484,35.5068359,16.1508789,35.2246094,16.3833008z"/>
	</g>
	<g>
		<path style="fill:#FFDDBE;" d="M39.0031853,9.2537708c-0.1036377-0.8746338-0.2301636-1.6428223-0.2301636-1.6428223
			s-0.0800781-1.203186-2.4862671-1.604126c-2.4073486-0.4008179-2.9698486,2.166626-2.5674438,3.2089844
			c0,0,0.8710327,2.9649658,1.4432983,3.6904907c0.5723267,0.7255859,1.5263062,1.6855469,2.4082031,1.043396
			c0.881897-0.6420898,1.3359375-1.5640259,1.5234985-2.4071655c0.0053711-0.024231,0.0083008-0.0563965,0.0125732-0.0842285
			c0.2871094-0.1359253,0.62146-0.4837036,0.6905518-1.3955078C39.8907585,8.8312855,39.3921013,8.8470936,39.0031853,9.2537708z"/>
		<path style="fill:#42210B;" d="M36.9536858,14.4106922L36.9536858,14.4106922
			c-0.6210938,0-1.2714844-0.4414063-1.9873047-1.3496094c-0.5957031-0.7548828-1.4511719-3.6518555-1.4873047-3.7749023
			c-0.2353516-0.6088867-0.1816406-1.7324219,0.3974609-2.5761719c0.3115234-0.4541016,0.8974609-0.9951172,1.9228516-0.9951172
			c0.1689453,0,0.3466797,0.0151367,0.5283203,0.0454102c2.5644531,0.4272461,2.6904297,1.7685547,2.6943359,1.8334961l0,0
			c0.0009766,0,0.0888672,0.5327148,0.1777344,1.2138672c0.2099609-0.0864258,0.4648438-0.0576172,0.6259766,0.1171875
			c0.1923828,0.2070313,0.2646484,0.5854492,0.2207031,1.1567383c-0.0576172,0.7617188-0.2978516,1.277832-0.7128906,1.5371094
			c-0.1679688,0.7436523-0.5859375,1.7836914-1.6152344,2.5332031
			C37.4820061,14.3237782,37.2251701,14.4106922,36.9536858,14.4106922z M35.7993889,6.2148914
			c-0.6484375,0-1.15625,0.2617188-1.5107422,0.777832c-0.4580078,0.668457-0.53125,1.6274414-0.3359375,2.1333008
			c0.2451172,0.8310547,0.9619141,3.0615234,1.40625,3.6254883c0.7558594,0.9580078,1.2841797,1.1591797,1.5947266,1.1591797l0,0
			c0.1650391,0,0.3193359-0.0532227,0.4697266-0.1630859c0.9121094-0.6635742,1.2792969-1.5947266,1.4267578-2.2592773
			L38.8765373,11.3687l0.1240234-0.1367188c0.3916016-0.1855469,0.5146484-0.7485352,0.5478516-1.1884766
			c0.0517578-0.6796875-0.0966797-0.7861328-0.0986328-0.7866211l0,0c-0.0400391,0-0.1376953,0.0356445-0.265625,0.1699219
			l-0.3662109,0.3837891l-0.0625-0.5273438c-0.1025391-0.8686523-0.2294922-1.6313477-0.2294922-1.6313477
			c-0.0029297-0.0302734-0.1328125-1.0405273-2.2802734-1.3984375C36.0884514,6.2270985,35.9390373,6.2148914,35.7993889,6.2148914z
			"/>
	</g>
	<g>
		<path style="fill:#CE9E7E;" d="M35.9839363,11.8459835l0.3634796,0.27565l0.1883202,0.27565
			C36.5357361,12.3972836,36.040638,12.3425837,35.9839363,11.8459835z"/>
		<path style="fill:#40210F;" d="M36.928051,10.7216883c0,0,0.6155396,0.1174812,1.1487122-0.3134489l0.287014-0.0180264
			c0,0-0.1837044,0.1051073-0.4531479,0.3461018C37.6411858,10.9773102,36.87117,10.9973164,36.928051,10.7216883z"/>
		<path style="fill:#40210F;" d="M35.5909424,11.0557871c0,0-0.4854202,0.2354183-1.000679-0.0822029l-0.2392998,0.0384893
			c0,0,0.1698151,0.0669756,0.4343376,0.2502232S35.686779,11.3145189,35.5909424,11.0557871z"/>
		<path style="fill:#40210F;" d="M36.7886848,10.0622807c0,0,0.3105011-0.6599283,1.362751-0.4705896
			C38.1514359,9.591691,37.2486877,9.7185307,36.7886848,10.0622807z"/>
		<path style="fill:#40210F;" d="M35.4839363,10.3989305c0,0-0.6025925-0.4758501-1.2539215,0
			C34.2300148,10.3989305,34.8891869,10.2043304,35.4839363,10.3989305z"/>
		<path style="fill:#C10D23;" d="M37.2861481,12.8264494c0,0-0.2499237-0.2990656-0.4674454-0.0905657
			c0,0-0.1907005-0.1389036-0.3160057,0.2535486C36.502697,12.9894323,36.8521729,13.3335152,37.2861481,12.8264494z"/>
	</g>
	<g>
		<path style="fill:#40210F;" d="M39.956501,5.3999681c-0.1838493,0.8538933-1.2600784,1.3389921-2.4038239,1.083498
			s-1.9218941-1.15483-1.7380447-2.0087233s1.2600784-1.3389921,2.4038239-1.0834982S40.1403503,4.5460744,39.956501,5.3999681z"/>
		<path style="fill:#40210F;" d="M41.1128044,7.9115682c-0.8166122-2.5692749-2.6346931-3.9320679-4.7002525-3.5570679
			c-1.1187973,0.203125-2.5617676,0.8773804-3.1248512,1.9891357c-1.203228,2.3756099-1.1165199,6.233398,0.9526939,4.2945552
			c0,0-0.3033829-1.2352905-0.1937866-2.0764771c0.3847542,0.4005737,1.1588211,0.5610962,1.9772339,0.3539429
			c0.8427353-0.2133179,1.4625053-0.7488403,1.594574-1.3037105l0.0551262-0.0042114c0,0,0.9256096,0.2197266,1.2609901,2.5401607
			C38.9345322,10.1478958,41.9294128,10.4808426,41.1128044,7.9115682z"/>
		<path style="fill:#868686;" d="M34.659687,6.2469077c0,0-0.8855705,2.2791982,0.6938248,2.5040851
			C35.3535118,8.7509928,34.280838,7.8355355,34.659687,6.2469077z"/>
		<path style="fill:#868686;" d="M32.8123398,8.3294077c0,0-0.780777,3.3792591,1.061203,2.4324331
			C33.8735428,10.7618408,32.5055771,11.0070248,32.8123398,8.3294077z"/>
		<g>
			<polygon style="fill:#C6C7C8;" points="34.4470634,6.0147777 34.1942024,6.0919347 33.9562225,7.8354735 34.1942024,7.8354735 
							"/>
			<polygon style="fill:#C6C7C8;" points="33.210537,6.5439649 32.9521065,6.6051631 32.5749359,8.3151903 32.8123398,8.3294077 			
				"/>
			<polygon style="fill:#C6C7C8;" points="33.6195717,6.5439649 33.3611412,6.6051631 32.9839668,8.3151903 33.2213745,8.3294077 
							"/>
			<polygon style="fill:#C6C7C8;" points="34.0380287,6.3409896 33.7851715,6.4253659 33.5471878,8.3320341 33.7851715,8.3320341 
							"/>
			<polygon style="fill:#ECECED;" points="33.7926102,6.5271215 33.539753,6.6114979 33.3017693,8.5181656 33.539753,8.5181656 			
				"/>
			<polygon style="fill:#ECECED;" points="34.2834473,6.0147777 34.0305901,6.099154 33.7926102,8.0058222 34.0305901,8.0058222 			
				"/>
			<polygon style="fill:#ECECED;" points="33.3835754,6.5342298 33.1307182,6.6134419 32.8927383,8.4034128 33.1307182,8.4034128 
							"/>
			<polygon style="fill:#ECECED;" points="33.1143341,6.5202103 32.852726,6.5745144 32.3823776,8.3301907 32.6188507,8.3531618 			
				"/>
		</g>
		<g>
			<g>
				<path style="fill:#FFA9A9;" d="M40.0696869,12.0463943c-0.0441017,0-0.0862885-0.0239258-0.1083374-0.065918
					c-0.0210915-0.0415039-0.5273094-1.0356445-0.2502327-3.3227539c0.2214699-1.8320308-0.7353592-2.2954097-0.7756271-2.3139644
					c-0.0613594-0.0283203-0.0891609-0.1020508-0.0623169-0.1650391c0.0287628-0.0620117,0.1016273-0.0917969,0.161068-0.0634766
					c0.0479393,0.0209961,1.1658363,0.5458984,0.9203987,2.5727534c-0.2655754,2.1972656,0.2185936,3.1650391,0.2233849,3.1748047
					c0.0316391,0.0610352,0.0086288,0.1367188-0.0508118,0.1689453
					C40.1089973,12.0415115,40.0888634,12.0463943,40.0696869,12.0463943z"/>
				<path style="fill:#DE9292;" d="M39.4723892,12.3330154c-0.0517731,0-0.0997086-0.0332031-0.1160088-0.0854492
					c-0.0143814-0.0424805-0.3413124-1.0742188-0.1620293-3.4609375c0.1466904-1.9399409-0.4966278-2.4511714-0.5033417-2.4560542
					c-0.053688-0.0405273-0.0661507-0.1186523-0.026844-0.1738281c0.0383492-0.0566406,0.112175-0.0703125,0.1696968-0.0292969
					c0.0306816,0.0224609,0.764122,0.574707,0.6059303,2.6787105c-0.1764107,2.3266602,0.1457291,3.3525391,0.1486053,3.3623047
					c0.022049,0.0654297-0.0134239,0.1362305-0.0776596,0.1582031
					C39.4982758,12.3310623,39.4848518,12.3330154,39.4723892,12.3330154z"/>
				<path style="fill:#FFA9A9;" d="M38.8424911,12.6254959c-0.0594406,0-0.1112137-0.043457-0.1208-0.1049805
					c-0.0028763-0.0185547-0.2866669-1.8520508,0-3.71875c0.1965408-1.2871089,0.0508118-2.1816401-0.1812019-2.4970698
					c-0.0412254-0.0556641-0.0297241-0.1337891,0.0239677-0.175293c0.0546494-0.0400391,0.1313477-0.0302734,0.1716156,0.0249023
					c0.2559853,0.3476563,0.4496498,1.2358398,0.2272224,2.6860347c-0.279953,1.828125-0.0028763,3.6225586,0,3.6401367
					c0.0115051,0.0683594-0.0345154,0.1323242-0.1016273,0.1435547
					C38.8549576,12.6250076,38.849205,12.6254959,38.8424911,12.6254959z"/>
			</g>
			<circle style="fill:#FFD1D1;" cx="39.2392845" cy="7.4575844" r="0.1934611"/>
			<ellipse style="fill:#FFD1D1;" cx="38.8128471" cy="8.5545578" rx="0.1716786" ry="0.1375569"/>
			<circle style="fill:#FFD1D1;" cx="39.0260658" cy="9.2926178" r="0.2132178"/>
			<circle style="fill:#FFD1D1;" cx="38.7708893" cy="10.512188" r="0.1744854"/>
			<circle style="fill:#FFD1D1;" cx="38.7876205" cy="11.3888969" r="0.1912169"/>
			<circle style="fill:#FFD1D1;" cx="39.5651932" cy="8.1985321" r="0.1324472"/>
			<circle style="fill:#FFD1D1;" cx="40.0165062" cy="9.8533974" r="0.1853192"/>
			<circle style="fill:#FFD1D1;" cx="39.6898537" cy="8.9484596" r="0.1246612"/>
			<circle style="fill:#FFD1D1;" cx="40.0057182" cy="7.6767235" r="0.1745317"/>
		</g>
		<g>
			<g>
				<path style="fill:#FFB2B8;" d="M33.5704117,5.8590927c0,0-0.2758331-0.1586914-0.2513428-0.3935275
					c0.0244942-0.2348366,0.1258469-0.1034098,0.2441368-0.2558737C33.6814957,5.0572271,33.8768463,5.3182955,33.5704117,5.8590927
					z"/>
				<path style="fill:#FFBFC4;" d="M33.6464577,5.2672067c0.1041336-0.1630244,0.2807655-0.0159678,0.2314682,0.1479626
					s0.1756477,0.1366992,0.0946465,0.2950621c-0.0810013,0.1583624-0.436924,0.1007128-0.436924,0.1007128
					S33.5404243,5.433207,33.6464577,5.2672067z"/>
				<path style="fill:#FFB2B8;" d="M33.5383568,5.8430476c0,0,0.3197517-0.1878538,0.3749275-0.0275745
					s-0.0868645,0.1871262-0.1499596,0.394897S33.4238625,6.4654145,33.5383568,5.8430476z"/>
				<path style="fill:#FFBFC4;" d="M33.5867195,6.3690362c-0.04282,0.2257891-0.223278,0.2399244-0.22509,0.0574899
					c-0.001812-0.1824341-0.1770287,0.0223651-0.1517525-0.1807442c0.0252762-0.2031088,0.3281555-0.4394317,0.3281555-0.4394317
					S33.6303215,6.1391258,33.5867195,6.3690362z"/>
				<path style="fill:#FF969D;" d="M33.5490608,5.8375916c0,0-0.2367897,0.2853832-0.3735199,0.1963511
					s-0.0033875-0.1751866-0.0415955-0.3539948C33.0957375,5.5011401,33.3576622,5.3370676,33.5490608,5.8375916z"/>
			</g>
			<g>
				<path style="fill:#FFB2B8;" d="M34.34198,5.083252c0,0-0.2975273-0.2629576-0.1972542-0.4792237
					c0.1002769-0.2162662,0.1879082-0.0492625,0.380928-0.1487637C34.7186737,4.355763,34.885273,4.6851125,34.34198,5.083252z"/>
				<path style="fill:#FFBFC4;" d="M34.6125984,4.543889c0.1784668-0.1153226,0.3555069,0.0968008,0.2452774,0.2349033
					c-0.1102257,0.138103,0.1788902,0.2017627,0.0307045,0.3218389c-0.1481857,0.1200767-0.5757484-0.0776157-0.5757484-0.0776157
					S34.4308739,4.6613169,34.6125984,4.543889z"/>
				<path style="fill:#FFB2B8;" d="M34.3066902,5.0549994c0,0,0.4552193-0.0530772,0.4765968,0.12325
					s-0.1640434,0.1454229-0.3045158,0.3202133C34.3382988,5.6732535,33.9789963,5.6083422,34.3066902,5.0549994z"/>
				<path style="fill:#FFBFC4;" d="M34.2110558,5.5806351c-0.1204872,0.2002354-0.3501358,0.1417446-0.2982712-0.0345898
					c0.0518608-0.1763339-0.2278061-0.0491982-0.1359634-0.234611c0.0918427-0.1854124,0.5403519-0.2918887,0.5403519-0.2918887
					S34.3337402,5.3767447,34.2110558,5.5806351z"/>
				<path style="fill:#FF969D;" d="M34.3216858,5.0540252c0,0-0.3805046,0.1801047-0.52491,0.0397758
					c-0.1444092-0.1403294,0.0477448-0.1699872,0.0530586-0.3573709C33.8551521,4.549046,34.2310638,4.4957557,34.3216858,5.0540252
					z"/>
			</g>
			<g>
				<path style="fill:#FFB2B8;" d="M35.4141312,4.599402c0,0-0.2518082-0.3319535-0.1052971-0.5325985
					c0.1465111-0.2006447,0.2025681-0.0110779,0.4205399-0.0725796C35.9473419,3.9327223,36.0515251,4.3052649,35.4141312,4.599402z
					"/>
				<path style="fill:#FFBFC4;" d="M35.8005753,4.1033063c0.2062531-0.0807724,0.3448334,0.173799,0.2039261,0.2922368
					c-0.1409111,0.1184373,0.1425705,0.244339-0.0335999,0.3363357c-0.1761742,0.0919971-0.5744667-0.2003355-0.5744667-0.2003355
					S35.5905609,4.1855526,35.8005753,4.1033063z"/>
				<path style="fill:#FFB2B8;" d="M35.3836708,4.5630393c0,0,0.4773445,0.0410867,0.463604,0.2263126
					c-0.0137367,0.1852255-0.1975517,0.1146512-0.3768806,0.2643504C35.2910652,5.2034011,34.9358902,5.061492,35.3836708,4.5630393
					z"/>
				<path style="fill:#FFBFC4;" d="M35.1793633,5.0817714c-0.16399,0.1799726-0.387558,0.0718436-0.2987442-0.0980253
					s-0.2235603-0.098217-0.0919304-0.2690053c0.1316299-0.1707878,0.612896-0.1858435,0.612896-0.1858435
					S35.346344,4.8985133,35.1793633,5.0817714z"/>
				<path style="fill:#FF969D;" d="M35.3992348,4.565186c0,0-0.4264412,0.104794-0.546093-0.0693412
					c-0.119648-0.1741352,0.083313-0.1642265,0.1266479-0.3551855C35.0231285,3.9497001,35.4192238,3.9739325,35.3992348,4.565186z"
					/>
			</g>
			<g>
				<path style="fill:#FFB2B8;" d="M36.6004333,4.4008946c0,0-0.0448112-0.4331651,0.1750145-0.5660312
					c0.2198296-0.1328661,0.1728935,0.0766215,0.3833237,0.1106062S37.2720184,4.3885617,36.6004333,4.4008946z"/>
				<path style="fill:#FFBFC4;" d="M37.1639557,4.0828276c0.210228,0.0100899,0.1995201,0.3187408,0.0247765,0.3736739
					c-0.1747475,0.0549331-0.0023727,0.3003712-0.1932602,0.3142376S36.619194,4.3269286,36.619194,4.3269286
					S36.949894,4.0725536,37.1639557,4.0828276z"/>
				<path style="fill:#FFB2B8;" d="M36.5931473,4.3522034c0,0,0.3743515,0.2462292,0.271862,0.4213424
					c-0.1024933,0.1751132-0.2197037,0.0267801-0.4415932,0.0956831
					C36.2015305,4.9381318,35.9777718,4.6460962,36.5931473,4.3522034z"/>
				<path style="fill:#FFBFC4;" d="M36.1690445,4.7710247c-0.224102,0.1051154-0.3557014-0.0970879-0.1987076-0.2247806
					c0.1569901-0.1276927-0.136467-0.1925106,0.056366-0.3026185c0.1928368-0.1101079,0.598053,0.0829406,0.598053,0.0829406
					S36.3972359,4.6639905,36.1690445,4.7710247z"/>
				<path style="fill:#FF969D;" d="M36.6049614,4.3610215c0,0-0.4040527-0.0816669-0.4172783-0.3035245
					c-0.0132217-0.2218573,0.1496658-0.1245539,0.2794456-0.2924933S36.9123917,3.7917449,36.6049614,4.3610215z"/>
			</g>
		</g>
		<g>
			<g>
				<path style="fill:#FFC4C4;" d="M37.6574135,4.6543374c0,0,0.0871277-0.4175959,0.3482742-0.4769397
					c0.2611504-0.0593443,0.1501579,0.1224213,0.3509903,0.2160854C38.5575142,4.4871469,38.3352089,4.8404894,37.6574135,4.6543374
					z"/>
				<path style="fill:#FFD1D1;" d="M38.5045547,4.6201501c0.2871132,0.1128778,0.2018509,0.4081836-0.0512733,0.3760142
					c-0.2531281-0.0321698-0.0718994,0.291328-0.3378639,0.2112575c-0.2659607-0.0800705-0.4166145-0.6166182-0.4166145-0.6166182
					S38.2122002,4.5052118,38.5045547,4.6201501z"/>
				<path style="fill:#FFC4C4;" d="M37.6649513,4.6067343c0,0,0.3006248,0.3400636,0.1443558,0.4733844
					c-0.1562691,0.1333213-0.228672-0.0396624-0.4723816-0.0406413C37.0932159,5.0384979,36.9576988,4.6999927,37.6649513,4.6067343
					z"/>
				<path style="fill:#FFD1D1;" d="M37.1115723,4.8729234c-0.2569771,0.0321774-0.3273888-0.195334-0.1308823-0.268342
					S36.9024353,4.384686,37.1295509,4.338645c0.2271194-0.0460415,0.5749397,0.2534571,0.5749397,0.2534571
					S37.3732376,4.8401589,37.1115723,4.8729234z"/>
				<path style="fill:#FFA8A8;" d="M37.6741142,4.6184435c0,0-0.380619-0.195169-0.3262291-0.406189
					c0.0543861-0.21102,0.1881943-0.0722337,0.3696632-0.1908259C37.8990173,3.9028361,38.1562805,4.1774478,37.6741142,4.6184435z"
					/>
			</g>
			<g>
				<path style="fill:#FFC4C4;" d="M38.6402054,5.1304255c0,0,0.0958138-0.4936948,0.383007-0.5638533
					c0.2871895-0.070158,0.1651306,0.1447306,0.385994,0.2554631S39.3855934,5.3505001,38.6402054,5.1304255z"/>
				<path style="fill:#FFD1D1;" d="M39.5718269,5.0900083c0.3157463,0.1334481,0.2219849,0.4825673-0.0563889,0.4445357
					c-0.2783699-0.0380316-0.0790672,0.3444171-0.3715553,0.2497554c-0.2924843-0.0946617-0.4581642-0.7289853-0.4581642-0.7289853
					S39.2503166,4.9541245,39.5718269,5.0900083z"/>
				<path style="fill:#FFC4C4;" d="M38.6484909,5.0741472c0,0,0.3306046,0.4020343,0.1587524,0.5596509
					c-0.1718559,0.1576161-0.2514801-0.0468907-0.5194931-0.048048C38.0197372,5.5845923,37.8707085,5.1844006,38.6484909,5.0741472
					z"/>
				<path style="fill:#FFD1D1;" d="M38.0399246,5.388845c-0.2826042,0.0380411-0.3600388-0.2309303-0.1439362-0.3172426
					c0.2161026-0.0863128-0.0860596-0.2599673,0.1637077-0.3143988c0.2497711-0.054431,0.6322784,0.2996449,0.6322784,0.2996449
					S38.3276863,5.3501096,38.0399246,5.388845z"/>
				<path style="fill:#FFA8A8;" d="M38.6585693,5.0879908c0,0-0.4185791-0.2307348-0.3587646-0.4802094
					c0.0598106-0.2494745,0.2069626-0.0853972,0.4065285-0.2256007S39.1888199,4.5666318,38.6585693,5.0879908z"/>
			</g>
			<g>
				<path style="fill:#FFC4C4;" d="M37.6991234,5.7144051c0,0-0.0979843-0.3751569,0.0432472-0.5342245
					c0.1412354-0.1590681,0.1383095,0.0352883,0.2977371,0.0257478S38.1897697,5.5769863,37.6991234,5.7144051z"/>
				<path style="fill:#FFD1D1;" d="M38.2150192,5.326592c0.2202492-0.0306621,0.2747879,0.2446856,0.1051788,0.3262472
					c-0.1696129,0.081562,0.0614243,0.2664466-0.133667,0.3146811c-0.1950912,0.048234-0.4847717-0.3221507-0.4847717-0.3221507
					S37.9907494,5.3578138,38.2150192,5.326592z"/>
				<path style="fill:#FFC4C4;" d="M37.6864586,5.672658c0,0,0.3115463,0.1475415,0.2627106,0.3219213
					s-0.157093,0.0650988-0.3094521,0.1679106S37.2793579,6.0488315,37.6864586,5.672658z"/>
				<path style="fill:#FFD1D1;" d="M37.4384079,6.1234369c-0.1485405,0.1352978-0.275444-0.0189795-0.179512-0.1616311
					c0.095932-0.1426511-0.1290207-0.1447773-0.004158-0.2786069c0.1248589-0.1338301,0.451046-0.0391979,0.451046-0.0391979
					S37.5896606,5.9856691,37.4384079,6.1234369z"/>
				<path style="fill:#FFA8A8;" d="M37.6964455,5.6782427c0,0-0.3085861,0.0037842-0.3516388-0.1901951
					c-0.0430489-0.1939793,0.0910339-0.1384921,0.1609573-0.3116584
					C37.5756874,5.0032225,37.8363152,5.1162019,37.6964455,5.6782427z"/>
			</g>
			<g>
				<path style="fill:#FFC4C4;" d="M38.6371002,6.0581288c0,0-0.1511154-0.4791312,0.0667-0.6822844
					c0.2178192-0.2031536,0.2133064,0.0450683,0.4591866,0.0328836C39.4088631,5.396544,39.3938065,5.8826246,38.6371002,6.0581288z
					"/>
				<path style="fill:#FFD1D1;" d="M39.4327431,5.5628338c0.3396797-0.0391603,0.4237976,0.3125,0.1622124,0.4166665
					s0.0947304,0.340292-0.2061462,0.4018941c-0.3008804,0.0616026-0.7476387-0.4114342-0.7476387-0.4114342
					S39.0868645,5.6027083,39.4327431,5.5628338z"/>
				<path style="fill:#FFC4C4;" d="M38.617569,6.0048118c0,0,0.480484,0.1884327,0.4051666,0.4111419
					c-0.0753136,0.2227087-0.2422752,0.0831404-0.477253,0.2144465S37.9897194,6.4852414,38.617569,6.0048118z"/>
				<path style="fill:#FFD1D1;" d="M38.2350121,6.5805235c-0.2290878,0.1727958-0.4248085-0.0242395-0.2768555-0.2064266
					c0.1479492-0.1821871-0.1989784-0.1849022-0.0064125-0.355823c0.1925659-0.1709204,0.6956291-0.0500612,0.6956291-0.0500612
					S38.4682846,6.4045734,38.2350121,6.5805235z"/>
				<path style="fill:#FFA8A8;" d="M38.6329727,6.0119443c0,0-0.4759216,0.0048332-0.5423164-0.2429075
					s0.1403923-0.1768746,0.2482338-0.3980346C38.4467316,5.1498427,38.8486862,5.2941341,38.6329727,6.0119443z"/>
			</g>
		</g>
	</g>
</g>
<g>
	<g>
		<path style="fill:#C10D23;" d="M40.5625,26c0,0,3.2995834,5.833334,2.3685417,10.8333321l-4.2930069,0.7289276
			l-2.0880585-11.2734013L40.5625,26z"/>
		<path style="fill:#800917;" d="M38.4365234,37.8505859l-2.1835938-11.7910156l4.4492188-0.3203125l0.078125,0.1376953
			c0.1367188,0.2412109,3.3339844,5.9707031,2.3964844,11.0019531l-0.0322266,0.1708984L38.4365234,37.8505859z
			 M36.8466797,26.5185547l1.9921875,10.7558594l3.8759766-0.6582031c0.7294922-4.3964844-1.8203125-9.4609375-2.2949219-10.3554688
			L36.8466797,26.5185547z"/>
	</g>
	<g>
		<path style="fill:#C10D23;" d="M42,22.8055553c0,0,1.3333321,2.3965302,0.3333321,4.6704865
			s-2.1927071,0.4905758-2.1927071,0.4905758l-0.4097786-4.6300297L42,22.8055553z"/>
		<path style="fill:#800917;" d="M41.1591797,28.8818359c-0.6992188,0-1.2050781-0.7446289-1.2265625-0.7758789
			l-0.0410156-0.1171875l-0.4296875-4.8461914l2.6650391-0.6235352L42.21875,22.684082
			c0.0566406,0.1025391,1.3808594,2.5322266,0.3427734,4.8925781
			C42.1806641,28.4428711,41.7089844,28.8818359,41.1591797,28.8818359z M40.3837891,27.8764648
			c0.1337891,0.1762695,0.4511719,0.5053711,0.7753906,0.5053711c0.4150391,0,0.7431641-0.5473633,0.9453125-1.0063477
			c0.7900391-1.7978516,0.0253906-3.7138672-0.2402344-4.28125l-1.8652344,0.4360352L40.3837891,27.8764648z"/>
	</g>
</g>
<g>
	<g>
		<path style="fill:#FFE6D9;" d="M40.2684097,59.5177841c0.3984108,0.3643532,1.8733177-0.2408104,1.8674965-1.5707703
			c-0.0058174-1.3299637-0.0159988-3.159996-1.2606735-2.8197289C39.630558,55.467556,38.8437614,58.2149124,40.2684097,59.5177841z
			"/>
		<path style="fill:#80574B;" d="M40.6005859,59.7470703L40.6005859,59.7470703
			c-0.1748047,0-0.3183594-0.0478516-0.4160156-0.1376953c-0.8369141-0.7636719-0.9111328-1.9619141-0.7021484-2.828125
			c0.2197266-0.9121094,0.7539063-1.6083984,1.359375-1.7744141c0.1113281-0.03125,0.2177734-0.0458984,0.3164063-0.0458984
			c1.0898438,0,1.0966797,1.7255859,1.1025391,2.9853516c0.0029297,0.6132813-0.2822266,1.0283203-0.5224609,1.2695313
			C41.4169922,59.5380859,40.9707031,59.7470703,40.6005859,59.7470703z M41.1582031,55.2109375
			c-0.0761719,0-0.1601563,0.0117188-0.25,0.0361328c-0.5195313,0.1425781-0.9833984,0.7675781-1.1826172,1.5927734
			c-0.1923828,0.796875-0.1289063,1.8945313,0.6269531,2.5859375c0.0507813,0.0458984,0.1386719,0.0712891,0.2480469,0.0712891l0,0
			c0.2509766,0,0.6455078-0.1416016,0.9609375-0.4580078c0.2060547-0.2070313,0.4511719-0.5644531,0.4492188-1.0908203
			C42.0058594,56.7929688,41.9990234,55.2109375,41.1582031,55.2109375z"/>
	</g>
	<g>
		<path style="fill:#FFE6D9;" d="M30.0910301,58.8902702c1.1082649-0.3134575,2.9011192-1.0038986,3.2352448-2.2496452
			c0.4273376-1.5932808-5.6113548,0.0006142-4.9119434,1.7080421c0.0638294,0.1558189,0.1605625,0.6261787,0.6011829,0.7414246
			C29.2862778,59.1609116,29.8938618,58.9460373,30.0910301,58.8902702z"/>
		<path style="fill:#80574B;" d="M29.1469727,59.2294922c-0.0625,0-0.1162109-0.0058594-0.1630859-0.0185547
			c-0.4453125-0.1162109-0.5893555-0.5390625-0.6586914-0.7421875c-0.0102539-0.0283203-0.0185547-0.0537109-0.0263672-0.0732422
			c-0.1176758-0.2871094-0.0751953-0.5947266,0.1230469-0.890625c0.6118164-0.9121094,2.6679688-1.6464844,3.9624023-1.6464844
			c0.4926758,0,0.824707,0.1064453,0.9848633,0.3164063c0.0712891,0.0927734,0.1435547,0.2548828,0.078125,0.4980469
			C33.09375,57.9892578,31.2138672,58.703125,30.125,59.0107422l-0.112793,0.0341797
			C29.7885742,59.1142578,29.4135742,59.2294922,29.1469727,59.2294922z M32.3842773,56.1083984
			c-1.2265625,0-3.2001953,0.7089844-3.7548828,1.5351563c-0.1538086,0.2304688-0.1865234,0.4453125-0.0991211,0.6572266
			c0.0092773,0.0244141,0.0195313,0.0537109,0.03125,0.0878906c0.0634766,0.1855469,0.1699219,0.4980469,0.4858398,0.5800781
			c0.0258789,0.0068359,0.059082,0.0107422,0.0996094,0.0107422c0.2290039,0,0.581543-0.1083984,0.7919922-0.1738281
			l0.1176758-0.0351563c1.0385742-0.2939453,2.828125-0.9648438,3.1484375-2.1621094
			c0.0322266-0.1181641,0.0205078-0.2099609-0.0341797-0.2822266
			C33.0634766,56.1855469,32.7836914,56.1083984,32.3842773,56.1083984z"/>
	</g>
	<path style="fill:#EDBBAB;" d="M41.0393105,58.8960075c0.848671-0.4592133,0.9377403-2.1932526,0.1325417-2.9307175
		C40.3666534,55.227829,39.2857742,59.844841,41.0393105,58.8960075z"/>
	<path style="fill:#EDBBAB;" d="M29.1257019,58.3598442c0,0,2.8903046-0.0974083,3.7295609-2.3428574
		C33.6945152,53.7715416,27.4389019,57.181469,29.1257019,58.3598442z"/>
	<g>
		<path style="fill:#C10D23;" d="M30.1176357,56.202034c0,0,0.2312527,1.1834641,2.3901424,0.8994331
			s3.6176605,0.2525558,3.6176605,0.2525558l3.3806419-1.9527321l-4.6942215-16.1942711l-2.9181385,0.8881264L30.1176357,56.202034z
			"/>
		<path style="fill:#800917;" d="M36.1494141,57.6289063l-0.1103516-0.0400391
			c-0.0087891-0.0029297-0.8945313-0.3203125-2.2753906-0.3203125c-0.4042969,0-0.815918,0.0273438-1.2231445,0.0810547
			c-0.2329102,0.0302734-0.4555664,0.0458984-0.6621094,0.0458984c-0.0004883,0-0.0004883,0-0.0004883,0
			c-1.7612305,0-1.996582-1.0986328-2.0053711-1.1455078l-0.0073242-0.0371094l0.0039063-0.0380859l1.7939453-16.2714844
			l3.3183594-1.0087891l4.8193359,16.625L36.1494141,57.6289063z M33.7636719,56.7685547
			c1.1992188,0,2.0390625,0.2216797,2.3330078,0.3134766l3.1142578-1.7988281l-4.5693359-15.7636719l-2.5175781,0.7666016
			L30.371582,56.1826172c0.0463867,0.1367188,0.3125,0.7128906,1.5063477,0.7128906h0.0004883
			c0.1791992,0,0.3774414-0.0126953,0.5966797-0.0419922C32.9042969,56.796875,33.3378906,56.7685547,33.7636719,56.7685547z"/>
	</g>
	<path style="fill:#990A1B;" d="M34.375,56.2916679c0,0-1.5221863-1.3333359-2.017746-6.5627098l-0.762886,6.6377411
		c0,0-1.4620495,0.3367844-1.4767323-1.4083672c-0.0146809-1.7451477,2.735178-13.7916641,2.735178-13.7916641
		S34.2083321,44.375,34.375,56.2916679z"/>
	<g>
		<path style="fill:#FFF7F2;" d="M29.995636,57.4561539c0,0,1.599762-5.2468376,2.1886292-10.1836395
			c0.5888634-4.9368019-0.1549873-5.4392052-0.1549873-5.4392052s-1.460228,12.5460701-3.2669754,15.0734634
			C28.7623024,56.9067726,29.7353325,58.0433807,29.995636,57.4561539z"/>
		<path style="fill:#80574B;" d="M29.7597656,57.7490234L29.7597656,57.7490234
			c-0.4282227,0-1.0258789-0.6826172-1.0922852-0.7607422c-0.0375977-0.0429688-0.0405273-0.1074219-0.0068359-0.1533203
			c1.7670898-2.4736328,3.2299805-14.8916016,3.2446289-15.0166016c0.0048828-0.0429688,0.0322266-0.0810547,0.0717773-0.0986328
			c0.0400391-0.0185547,0.0864258-0.0146484,0.1220703,0.0097656c0.0830078,0.0556641,0.7900391,0.6865234,0.2089844,5.5576172
			c-0.5834961,4.8916016-2.1767578,10.1523438-2.1928711,10.2050781
			C30.0405273,57.6630859,29.9160156,57.7490234,29.7597656,57.7490234z M28.9204102,56.8974609
			c0.2358398,0.2578125,0.6235352,0.6015625,0.8393555,0.6015625l0,0c0.0415039,0,0.0849609-0.0107422,0.121582-0.09375
			c0.0107422-0.0380859,1.5976563-5.2792969,2.1787109-10.1474609c0.375-3.1445313,0.2001953-4.4658203,0.043457-4.9951172
			C31.8330078,44.4658203,30.5341797,54.4511719,28.9204102,56.8974609z"/>
	</g>
	<g>
		<path style="fill:#FFF7F2;" d="M32.8729401,41.5378647c0,0-0.3702316,14.8227425,2.0649033,16.2099876
			s8.6170502,0.2104607,8.892601-1.4810486c0.2281609-1.4006119-4.8702126-3.0155869-4.8702126-3.0155869l-4.4097595-10.183403
			L32.8729401,41.5378647z"/>
		<path style="fill:#80574B;" d="M37.9785156,58.484375c0,0,0,0-0.0009766,0c-0.9121094,0-2.1904297-0.1083984-3.1015625-0.6279297
			c-2.4716797-1.4082031-2.1430664-15.7128906-2.1279297-16.3212891c0.0014648-0.0488281,0.0307617-0.0927734,0.0761719-0.1123047
			s0.0976563-0.0097656,0.1328125,0.0224609l1.6777344,1.5292969c0.0136719,0.0126953,0.0234375,0.0273438,0.0302734,0.0429688
			l4.3867188,10.1318359c0.7363281,0.2363281,5.1337891,1.7138672,4.9013672,3.1376953
			C43.7490234,57.5449219,40.6298828,58.484375,37.9785156,58.484375z M32.9926758,41.8164063
			c-0.0341797,2.0283203-0.1567383,14.5898438,2.0063477,15.8232422c0.6845703,0.3886719,1.7138672,0.5947266,2.9785156,0.5947266
			c2.7783203,0,5.5625-0.9658203,5.7294922-1.9882813c0.1728516-1.0605469-3.3955078-2.4355469-4.7851563-2.8759766
			c-0.0341797-0.0107422-0.0625-0.0361328-0.0761719-0.0693359l-4.3994141-10.1591797L32.9926758,41.8164063z"/>
	</g>
	<g>
		<path style="fill:#C10D23;" d="M31.9907722,37.9514351c0,0-0.2235565,6.7273026-1.7516251,10.243782
			c-1.5280685,3.5164757-2.8069229,6.7245979-3.6615448,7.4941978s0.4764309,2.4715195,2.1847,1.2173576
			c0,0,2.1218872-4.6314812,4.0929604-18.7651901L31.9907722,37.9514351z"/>
		<path style="fill:#800917;" d="M27.5600586,57.6044922L27.5600586,57.6044922
			c-0.737793,0-1.2446289-0.4609375-1.4199219-0.9169922c-0.1679688-0.4375-0.0668945-0.8798828,0.2700195-1.1835938
			c0.6787109-0.6113281,1.7050781-3.0019531,2.8935547-5.7695313c0.2285156-0.5332031,0.4643555-1.0820313,0.7060547-1.6386719
			c1.4912109-3.4316406,1.7290039-10.0859375,1.730957-10.1533203l0.0102539-0.2998047l1.3837891,0.3046875l-0.03125,0.2285156
			c-1.9541016,14.0097656-4.0268555,18.6455078-4.1142578,18.8359375l-0.0268555,0.0585938l-0.0522461,0.0380859
			C28.4624023,57.4375,28.0078125,57.6044922,27.5600586,57.6044922z M32.2280273,38.2597656
			c-0.0625,1.3613281-0.3964844,6.8974609-1.7592773,10.0351563c-0.2416992,0.5556641-0.4770508,1.1044922-0.7055664,1.6367188
			c-1.2617188,2.9384766-2.2583008,5.2587891-3.0180664,5.9433594c-0.2558594,0.2304688-0.1816406,0.5195313-0.1381836,0.6328125
			c0.1137695,0.296875,0.4526367,0.5966797,0.953125,0.5966797l0,0c0.3173828,0,0.6621094-0.1240234,1.0004883-0.3603516
			c0.2446289-0.5791016,2.1992188-5.4921875,4.0151367-18.4082031L32.2280273,38.2597656z"/>
	</g>
	<path style="fill:#990A1B;" d="M29.75,51.7540207l0.8918362-2.5901299v-0.3841476L29.75,49.9488525
		c0,0-0.3125,0.8636475-0.5,1.3844795c-0.1875,0.5208359-0.791666,1.5208359-0.229166,1.1458359
		s1.0968018-2.5303154,1.0968018-2.5303154S29.895834,51.0497055,29.75,51.7540207z"/>
	<g>
		<path style="fill:#C10D23;" d="M33.4868126,37.5622597c0,0-0.6195602,17.4589539,2.1458817,19.1623344
			c2.7654419,1.7033768,10.4479675,0.2607384,7.0725403-2.5995941s-5.2695923-12.7634468-5.2695923-12.7634468
			L33.4868126,37.5622597z"/>
		<path style="fill:#800917;" d="M38.9492188,57.7050781c-0.0009766,0-0.0009766,0-0.0009766,0
			c-1.4189453,0-2.6425781-0.2724609-3.4462891-0.7675781c-2.8085938-1.7294922-2.3291016-17.5820313-2.265625-19.3837891
			l0.0195313-0.5595703l4.4101563,4.2421875l0.0146484,0.078125c0.0195313,0.0976563,1.9169922,9.8496094,5.1865234,12.6201172
			c0.9941406,0.8427734,1.0136719,1.5361328,0.8554688,1.96875C43.2685547,57.1416016,40.9296875,57.7050781,38.9492188,57.7050781z
			 M33.71875,38.1328125c-0.1484375,5.1767578-0.0419922,17.09375,2.0449219,18.3789063
			c0.7158203,0.4404297,1.8759766,0.6933594,3.1845703,0.6933594c0,0,0,0,0.0009766,0
			c2.1103516,0,4.0009766-0.6474609,4.3037109-1.4736328c0.1513672-0.4121094-0.0878906-0.8886719-0.7089844-1.4160156
			c-3.2822266-2.78125-5.1396484-11.8203125-5.3388672-12.8291016L33.71875,38.1328125z"/>
	</g>
	<path style="fill:#990A1B;" d="M42.3806114,54.25c0,0,0.9533157,1.6606331-1.3818855,2.1428185
		c-2.3351974,0.4821815-2.8899879-0.7261505-2.8899879-0.7261505S41.8258209,56.75,42.3806114,54.25z"/>
	<path style="fill:#990A1B;" d="M41.7069054,53.4512291c0,0,0.5236855,1.1757088-0.7591057,1.5170898
		c-1.2827911,0.3413773-1.5875511-0.5141068-1.5875511-0.5141068S41.4021454,55.221199,41.7069054,53.4512291z"/>
	<path style="fill:#990A1B;" d="M39.5699272,49.9522247c0,0,0.9814758,2.1727753,1.3437653,2.7977753
		s-3.1808739,0.0481033-4.7334976-2.4759483c-1.5526199-2.5240517-1.7532578-3.4204521-1.7532578-3.4204521L34.6673851,52.75
		c0,0-2.230629-10.7576027,0.4174004-11.2121353C37.7328186,41.0833321,39.5699272,49.9522247,39.5699272,49.9522247z"/>
	<g>
		<linearGradient id="SVGID_2_" gradientUnits="userSpaceOnUse" x1="32.2247887" y1="27.774828" x2="32.2247887" y2="50.2740517">
			<stop  offset="0.3938053" style="stop-color:#FFE6D9"/>
			<stop  offset="1" style="stop-color:#FF788F"/>
		</linearGradient>
		<path style="fill:url(#SVGID_2_);" d="M36.5031776,28.3384476c0,0-1.6117325,9.8692627-4.2996483,17.0296555
			c-2.687912,7.1603928-4.2571297,4.3710098-4.2571297,4.3710098s0.2014656-1.2336578,0.6945038-1.153141
			c0,0,1.187542-1.0726204,2.1948757-7.2409096c1.0073318-6.1682892,0.4241886-8.7966385,2.2161312-13.5702343
			L36.5031776,28.3384476z"/>
		<linearGradient id="SVGID_3_" gradientUnits="userSpaceOnUse" x1="30.1176453" y1="34.6195068" x2="30.1176453" y2="48.7366905">
			<stop  offset="0.2" style="stop-color:#EDBBAB"/>
			<stop  offset="1" style="stop-color:#DB677B"/>
		</linearGradient>
		<path style="fill:url(#SVGID_3_);" d="M30.9259033,43.8928833c0.7487183-4.5847168,0.6190796-7.2125244,0.668457-9.2733765
			c-0.1719971,1.8687134-0.3026123,3.9334717-0.758606,6.7255249c-1.0073242,6.1682739-2.1948242,7.2409058-2.1948242,7.2409058
			s0.1925659,0.21698,0.4855957,0.1303101c-0.000061,0.000061-0.0008545,0.0006714-0.0008545,0.0006714
			c0.7606812,0.2616577,2.2399902-3.7389526,2.2399902-3.7389526c-0.539856,1.1158447-0.9689331,1.8991089-1.3034058,2.4547729
			C30.3491821,46.703125,30.647583,45.5969849,30.9259033,43.8928833z"/>
		<path style="fill:#80574B;" d="M28.6304913,50.5098381c-0.5855064-0.0956192-0.8892288-0.6261139-0.9019833-0.6479874
			l-0.0429554-0.0762825l0.0141659-0.0867386c0.0373039-0.2284203,0.2422142-1.2923126,0.8276577-1.3629379
			c0.2378769-0.3114357,1.2160225-1.8536377,2.061552-7.0311432c0.3709812-2.2716637,0.5264454-4.0719032,0.6630173-5.6595154
			c0.2374573-2.7476501,0.4246235-4.9177284,1.5658035-7.9581223l0.0719376-0.1920872l3.9009628,0.6370583l-0.0402946,0.2467327
			c-0.0161324,0.0987873-1.6468658,9.975338-4.312645,17.0770073C31.1052132,49.0042458,29.824152,50.7047729,28.6304913,50.5098381
			z M28.2103672,49.6832733c0.0782013,0.1028137,0.2515697,0.2924156,0.5007114,0.3331032
			c0.4192505,0.0684662,1.5770149-0.256012,3.2585449-4.7359467c2.4136696-6.4304047,3.9755707-15.1644363,4.2460136-16.7356281
			l-3.0007782-0.4900513c-1.0541344,2.8769913-1.2358112,4.9831562-1.4642754,7.6333256
			c-0.1381454,1.5972481-0.29422,3.4072838-0.6681919,5.697258c-1.0098515,6.183712-2.2228546,7.3402405-2.2739182,7.3863258
			l-0.0893211,0.0804024l-0.1185474-0.0193596C28.4998875,48.8162575,28.3030796,49.215538,28.2103672,49.6832733z"/>
	</g>
	<g>
		<linearGradient id="SVGID_4_" gradientUnits="userSpaceOnUse" x1="37.4333115" y1="27.7470818" x2="37.4333115" y2="51.5035324">
			<stop  offset="0.3938053" style="stop-color:#FFE6D9"/>
			<stop  offset="1" style="stop-color:#FF788F"/>
		</linearGradient>
		<path style="fill:url(#SVGID_4_);" d="M32.2551308,27.7470818c0,0-0.8803864,9.9611702,2.1947594,17.7621918
			c3.0751495,7.8010254,8.2758331,5.750927,8.2758331,5.750927s0.1100464-1.2451477-1.1350975-1.3551941
			c0,0-2.3802452-1.4652443-1.8300018-7.6909752c0.5502396-6.2257309,3.2606316-8.4959297,1.2105331-13.6966095
			L32.2551308,27.7470818z"/>
		<path style="fill:#EDBBAB;" d="M34.518116,37.735096l-1.3568611-3.1250687l1.9241791-0.5011749
			C35.085434,34.1088524,33.8861122,35.0440063,34.518116,37.735096z"/>
		<linearGradient id="SVGID_5_" gradientUnits="userSpaceOnUse" x1="39.1401978" y1="35.5542603" x2="39.1401978" y2="49.9495468">
			<stop  offset="0.2" style="stop-color:#EDBBAB"/>
			<stop  offset="1" style="stop-color:#DB677B"/>
		</linearGradient>
		<path style="fill:url(#SVGID_5_);" d="M41.5906372,49.9049683c0,0-2.380249-1.46521-1.8300171-7.690979
			c0.2490845-2.8180542,0.9384766-4.8239746,1.4308472-6.659729c-0.8861694,1.9714966-2.4871216,4.4125977-2.8961182,9.039978
			c-0.1520386,1.7200317,0.0374146,2.8811035,0.3826904,3.6809082c-0.5464478-0.6529541-1.2130737-1.5574341-1.9882813-2.8189087
			c0,0,1.6630249,4.3500977,3.6512451,4.3896484c0,0-0.0018921-0.0010376-0.0020752-0.0010986
			C41.0133667,50.0378418,41.5906372,49.9049683,41.5906372,49.9049683z"/>
		<path style="fill:#EDBBAB;" d="M40.7748337,29.8379784c0,0-1.1804657,5.003582-3.1867943,5.1465111
			c-2.0063286,0.1429253-6.1458244,0.7224655-5.6678867-3.4442482S40.7748337,29.8379784,40.7748337,29.8379784z"/>
		<path style="fill:#80574B;" d="M40.6762276,51.731987L40.6762276,51.731987
			c-1.9105225-0.1688538-4.5817795-1.3696289-6.4589005-6.1315041c-3.0616207-7.7655144-2.2200794-17.7752151-2.2112236-17.875412
			l0.022007-0.2490292l9.1187515,0.8059349l0.0569038,0.1437511c1.3229523,3.3560638,0.7144356,5.5046806-0.0562592,8.2237549
			c-0.4389801,1.5503807-0.9364166,3.3073578-1.1378555,5.5865593c-0.4867058,5.5068512,1.3711205,7.192585,1.6729355,7.4270973
			c1.12117,0.1373253,1.336956,1.1122589,1.2921638,1.619072l-0.0135841,0.153698l-0.1432648,0.056942
			C42.7813339,51.507267,41.9165115,51.8416061,40.6762276,51.731987z M32.4855576,28.0184212
			c-0.1070251,1.5880527-0.5526295,10.4234619,2.1968994,17.3996468c1.7835121,4.5232162,4.2673492,5.6593857,6.0377922,5.8158607
			l0,0c0.8297729,0.0733376,1.4730606-0.0727425,1.7557793-0.1546173c-0.0193825-0.2909203-0.1544914-0.8587303-0.9074135-0.9252777
			l-0.1085739-0.0360641c-0.1032486-0.0630455-2.5059128-1.6185036-1.9484482-7.9259491
			c0.2055664-2.3258934,0.7100143-4.1067581,1.1547775-5.678196c0.7337952-2.5899849,1.3152771-4.6434441,0.1281052-7.7610435
			L32.4855576,28.0184212z"/>
	</g>
</g>
<g>
	<path style="fill:#EDBBAB;" d="M21.9669991,21.3845844c0,0-1.4794312-2.0207081,0.0424099-4.4995213l0.374258,1.8335781
		L21.9669991,21.3845844z"/>
	<path style="fill:#80574B;" d="M21.6195068,16.2242661c0,0-1.1820068,3.9632339,0.0869141,5.4101563l0.5214844-0.1103516
		c0,0-1.1989479-0.9191113-0.1654053-4.8467808L21.6195068,16.2242661z"/>
	<g>
		<path style="fill:#FFDDBE;" d="M23.041666,18.2010822c0,0-2.7083321-1.6041679-2.791666-2.4375
			c-0.083334-0.833334-0.25-1.458334-0.875-1.958334s-1.375-1.4189167-1.75-1.0427914s-0.958334,1.5469465-0.208334,2.2948694
			c0.75,0.7479219,0.875,1.833333,1.708334,2.1656275s3.916666,3.4572945,3.916666,3.4572945V18.2010822z"/>
		<path style="fill:#40210F;" d="M23.2915039,21.2895508l-0.4277344-0.4335938
			c-1.2246094-1.2412109-3.2553711-3.1713867-3.8310547-3.4003906c-0.5678711-0.2265625-0.8500977-0.7416992-1.1230469-1.2392578
			c-0.1870117-0.3413086-0.3803711-0.6938477-0.6699219-0.9819336c-0.3896484-0.3891602-0.5229492-0.9145508-0.3847656-1.5195313
			c0.1171875-0.5117188,0.3925781-0.9277344,0.5927734-1.1289063c0.1054688-0.1054688,0.2397461-0.1616211,0.3881836-0.1616211
			c0.3852539,0,0.7998047,0.3808594,1.2387695,0.7836914c0.1547852,0.1420898,0.309082,0.2841797,0.456543,0.4018555
			c0.6826172,0.5463867,0.8764648,1.2197266,0.9672852,2.1289063c0.0493164,0.4873047,1.5913086,1.6074219,2.6704102,2.2475586
			l0.1225586,0.0722656V21.2895508z M17.8359375,12.9243164c-0.1943359,0.1757813-0.40625,0.5219727-0.4931641,0.9018555
			c-0.0996094,0.4345703-0.0151367,0.7890625,0.25,1.0537109c0.340332,0.3393555,0.5605469,0.7412109,0.7553711,1.0957031
			c0.2514648,0.4589844,0.46875,0.8554688,0.8696289,1.0151367c0.6928711,0.2763672,2.671875,2.190918,3.5737305,3.0854492
			v-1.7333984c-0.6606445-0.4003906-2.7050781-1.7045898-2.7900391-2.5541992
			c-0.0805664-0.800293-0.2338867-1.3491211-0.7827148-1.7880859c-0.1552734-0.1245117-0.3188477-0.2739258-0.4819336-0.4238281
			C18.4370117,13.3012695,18.0263672,12.9243164,17.8359375,12.9243164z"/>
	</g>
	<g>
		<path style="fill:#926134;" d="M9.4428711,16.2661133l-0.1479492-0.9106445l0.0307617-0.8232422l0.0112305-0.7963867
			l0.1733398-0.8056641l0.1494141-0.78125l0.3100586-0.7636719l0.2827148-0.7441406l0.4384766-0.6977539l0.4072266-0.6835938
			l0.5527344-0.6108398l0.5200195-0.6025391l0.6503906-0.5063477l0.6166992-0.5024414l0.7285156-0.3857422l0.6948242-0.3881836
			l0.7841797-0.2529297l0.7519531-0.2617188l0.8164063-0.112793l0.7851563-0.1269531l0.8237305,0.0302734l0.7958984,0.0112305
			l0.8056641,0.1733398l0.7817383,0.1494141l0.7631836,0.3100586l0.7441406,0.2827148l0.8017578,0.5043945l-2.8720703,4.6772461
			l-0.1269531-0.0507813l-1.7016602,3.2070313c-0.0292969,0.0678711-0.0869141,0.1132813-0.1293945,0.1303711l-0.0214844,0.0136719
			c-0.0322266,0.0327148-0.0966797,0.0683594-0.1801758,0.0688477L14.875,15.3237305l-0.0024414,0.1357422L9.4428711,16.2661133z
			 M18.0141602,5.7578125l-0.7636719,0.1259766l-0.7954102,0.1074219l-0.7304688,0.2568359l-0.7641602,0.2441406
			l-0.6748047,0.3798828l-0.7104492,0.3730469l-0.5981445,0.4907227l-0.6347656,0.4912109l-0.5043945,0.5874023
			l-0.5400391,0.5932617l-0.394043,0.6665039l-0.4291992,0.6782227l-0.2724609,0.7246094l-0.3041992,0.7426758l-0.1430664,0.7607422
			l-0.1708984,0.7841797l-0.0083008,0.7744141L9.543457,15.340332l0.105957,0.6425781l4.9770508-0.7392578l0.003418-0.1503906
			l3.8144531-0.3232422l-0.0112305-0.1943359l0.1782227,0.0893555l0.5537109-1.0546875l1.2358398-2.3286133l0.1396484,0.0556641
			l2.6328125-4.2875977l-0.5712891-0.3613281l-0.7246094-0.2724609l-0.7421875-0.3041992L20.3740234,5.96875l-0.7841797-0.1708984
			L18.815918,5.7895508L18.0141602,5.7578125z M14.6220703,14.9501953l-0.0400391-0.2739258l0.0541992-0.2719727
			l2.3510742,0.2124023l-0.0068359,0.2495117L14.6220703,14.9501953z M16.9912109,14.5888672L14.652832,14.262207
			l0.0166016-0.296875l0.0927734-0.2382813l2.2788086,0.6171875L16.9912109,14.5888672z M17.0488281,14.3178711
			l-2.2460938-0.7280273l0.0678711-0.2895508l0.1333008-0.2182617l2.1367188,1.003418L17.0488281,14.3178711z
			 M17.1533203,14.0605469l-2.0854492-1.1069336l0.1171875-0.2734375l0.1679688-0.1918945l1.9306641,1.3598633
			L17.1533203,14.0605469z M17.3007813,13.8251953l-1.8623047-1.4521484l0.1630859-0.2485352l0.1992188-0.1601563
			l1.6650391,1.6738281L17.3007813,13.8251953z M17.4858398,13.6186523l-1.5810547-1.7524414l0.2041016-0.2172852
			l0.2236328-0.1220703l1.3486328,1.9370117L17.4858398,13.6186523z M17.7045898,13.4487305l-1.2524414-2.0009766
			l0.2382813-0.1787109l0.2421875-0.081543l0.9912109,2.1425781L17.7045898,13.4487305z M19.2695313,13.3544922
			l-0.2324219-0.0917969l0.7275391-2.2460938l0.2895508,0.0678711l0.2182617,0.1333008L19.2695313,13.3544922z
			 M17.9501953,13.3188477l-0.8867188-2.1889648l0.265625-0.1333008l0.2524414-0.0390625l0.6049805,2.2822266L17.9501953,13.3188477
			z M19.0102539,13.2548828l-0.2446289-0.0498047l0.3266602-2.3383789l0.296875,0.0166016l0.2382813,0.0927734
			L19.0102539,13.2548828z M18.2138672,13.2329102l-0.4926758-2.3081055l0.2631836-0.0869141l0.2768555,0.0068359
			l0.1992188,2.3515625L18.2138672,13.2329102z M18.7382813,13.2011719l-0.2495117-0.0068359l-0.0844727-2.3588867
			l0.2744141-0.0395508l0.2714844,0.0551758L18.7382813,13.2011719z"/>
		<g>
			<path style="fill:#40210F;" d="M18.5019608,14.7501221c0,0-0.0113754-0.0423841,0.0188999-0.0960665
				c0.0261707-0.0557337,0.0645542-0.1374769,0.1134052-0.2415133c0.0977039-0.2080727,0.2372818-0.5053186,0.4047737-0.8620148
				c0.3349857-0.7133923,0.7816315-1.6645813,1.2282791-2.6157703c0.8932934-1.9023781,1.7865849-3.8047557,1.7865849-3.8047557
				l0.5467396,0.2732344c0,0-0.9851933,1.8564506-1.9703846,3.7129016c-0.4925976,0.9282255-0.9851933,1.856451-1.354641,2.5526209
				c-0.1847229,0.3480844-0.3386593,0.638155-0.4464149,0.8412037c-0.0538769,0.1015253-0.0962105,0.1812944-0.1250725,0.2356825
				c-0.0247593,0.0564394-0.065485,0.0727863-0.065485,0.0727863L18.5019608,14.7501221z"/>
			<path style="fill:#40210F;" d="M18.4970684,14.7625093c0,0-0.0185623-0.0397654,0.0019302-0.0978899
				c0.0160961-0.059432,0.0397015-0.1465979,0.069746-0.2575369c0.0600872-0.2218771,0.1459274-0.5388451,0.2489357-0.9192076
				c0.2060165-0.7607231,0.4807053-1.7750206,0.755394-2.7893181c0.5493774-2.0285959,1.0987549-4.0571909,1.0987549-4.0571909
				l0.5858803,0.1741428c0,0-0.6478558,1.9993248-1.2957134,3.9986486
				c-0.3239269,0.9996624-0.6478558,1.9993238-0.8908005,2.7490711c-0.1214733,0.3748732-0.222702,0.6872673-0.29356,0.9059439
				c-0.0354309,0.1093378-0.0632668,0.1952457-0.0822468,0.2538204c-0.0145836,0.0598812-0.0518513,0.0830517-0.0518513,0.0830517
				L18.4970684,14.7625093z"/>
			<path style="fill:#40210F;" d="M18.4944,14.7755566c0,0-0.0251846-0.0359383-0.0150967-0.0967379
				c0.0055313-0.0613232,0.0136414-0.1512642,0.0239658-0.2657347c0.0206451-0.228941,0.0501404-0.5559998,0.085535-0.9484701
				c0.0707893-0.7849407,0.1651745-1.8315277,0.2595577-2.8781157c0.1887703-2.0931749,0.3775387-4.1863494,0.3775387-4.1863494
				l0.6072178,0.0697603c0,0-0.2908344,2.081449-0.5816689,4.1628985c-0.1454163,1.0407238-0.2908344,2.0814486-0.3998966,2.8619919
				c-0.0545311,0.3902721-0.0999756,0.715498-0.1317844,0.9431572c-0.0159054,0.1138287-0.0284023,0.2032661-0.0369225,0.264246
				c-0.0039635,0.0615034-0.0366421,0.0907936-0.0366421,0.0907936L18.4944,14.7755566z"/>
			<path style="fill:#40210F;" d="M18.4940395,14.7888699c0,0-0.0310421-0.0310192-0.0316658-0.0926476
				c-0.0052032-0.0613518-0.0128326-0.1513348-0.022543-0.2658587c-0.0194225-0.2290487-0.0471687-0.5562601-0.0804634-0.9489145
				c-0.0665913-0.7853069-0.1553783-1.8323841-0.2441654-2.8794613c-0.1775742-2.0941544-0.3551502-4.1883087-0.3551502-4.1883087
				l0.6101074-0.0367417c0,0,0.0750237,2.1003299,0.1500473,4.2006602c0.0375118,1.0501652,0.0750237,2.1003304,0.103157,2.8879538
				c0.0140686,0.3938122,0.0257893,0.7219887,0.0339966,0.9517117c0.0041027,0.1148624,0.0073261,0.2051105,0.0095234,0.2666435
				c0.0067787,0.0612574-0.0203171,0.0957775-0.0203171,0.0957775L18.4940395,14.7888699z"/>
			<path style="fill:#40210F;" d="M18.4959946,14.802043c0,0-0.0359573-0.025157-0.0472717-0.085741
				c-0.0157776-0.0595169-0.0389175-0.1468077-0.068367-0.257906c-0.0589008-0.2221956-0.1430454-0.5396175-0.2440186-0.9205246
				c-0.2019463-0.7618141-0.4712067-1.777566-0.740469-2.7933178c-0.5385227-2.0315046-1.0770454-4.0630078-1.0770454-4.0630078
				l0.5944576-0.1421275c0,0,0.4386024,2.0553932,0.8772049,4.1107874c0.2193012,1.0276966,0.4386024,2.0553932,0.6030788,2.8261662
				c0.0822372,0.3853865,0.1507702,0.7065411,0.1987419,0.9313498c0.0239849,0.1124048,0.0428314,0.2007227,0.0556812,0.2609386
				c0.0173111,0.0591497-0.0033779,0.0978508-0.0033779,0.0978508L18.4959946,14.802043z"/>
			<path style="fill:#40210F;" d="M18.5002098,14.8146763c0,0-0.0397797-0.0185308-0.0614433-0.0762291
				c-0.0258732-0.0558729-0.063818-0.1378202-0.112114-0.242116c-0.09659-0.2085924-0.2345753-0.5065813-0.4001579-0.8641672
				c-0.3311653-0.7151728-0.7727203-1.6687365-1.2142735-2.6223001c-0.8831091-1.9071274-1.7662172-3.8142543-1.7662172-3.8142543
				l0.5607462-0.2431946c0,0,0.7888546,1.9480052,1.5777092,3.8960099c0.3944263,0.9740028,0.7888546,1.9480047,1.0846748,2.6785069
				c0.1479092,0.3652515,0.2711678,0.6696272,0.3574486,0.8826895c0.0431404,0.1065321,0.0770378,0.1902351,0.1001472,0.2473059
				c0.0273209,0.0552444,0.0136662,0.0969505,0.0136662,0.0969505L18.5002098,14.8146763z"/>
			<path style="fill:#40210F;" d="M18.5065536,14.8263855c0,0-0.0423946-0.0113411-0.0737476-0.0644016
				c-0.035181-0.0505314-0.0867805-0.1246443-0.1524525-0.2189693c-0.1313438-0.1886501-0.3189793-0.4581509-0.5441399-0.7815514
				c-0.4503231-0.646801-1.0507545-1.509203-1.6511841-2.3716049c-1.2008619-1.724803-2.4017229-3.4496069-2.4017229-3.4496069
				l0.5099974-0.3368726c0,0,1.1151371,1.7814269,2.2302742,3.5628543c0.5575695,0.8907137,1.1151371,1.7814274,1.5333138,2.4494629
				c0.2090893,0.3340178,0.3833294,0.6123657,0.5052967,0.807209c0.0609837,0.0974216,0.1089001,0.1739674,0.141571,0.2261581
				c0.0364971,0.0496616,0.0302925,0.0931044,0.0302925,0.0931044L18.5065536,14.8263855z"/>
			<path style="fill:#40210F;" d="M18.5148335,14.8368158c0,0-0.0437183-0.003808-0.0838089-0.0506172
				c-0.0434227-0.0436544-0.1071072-0.1076813-0.1881618-0.1891689c-0.1621075-0.1629772-0.3936882-0.3958006-0.671587-0.67519
				c-0.5557976-0.5587769-1.2968616-1.303813-2.0379248-2.0488491c-1.4821262-1.4900732-2.9642525-2.9801455-2.9642525-2.9801455
				l0.4437523-0.4203148c0,0,1.4075375,1.5607224,2.8150749,3.1214437c0.7037687,0.7803612,1.4075384,1.5607224,1.9353647,2.1459932
				c0.2639122,0.292635,0.4838409,0.5364981,0.6377907,0.707202c0.076973,0.0853519,0.1374531,0.1524143,0.17869,0.1981382
				c0.0445671,0.0425692,0.0459995,0.0864296,0.0459995,0.0864296L18.5148335,14.8368158z"/>
			<path style="fill:#40210F;" d="M18.5247993,14.8456497c0,0-0.0437145,0.0038414-0.0913258-0.0352945
				c-0.0503426-0.0354519-0.1241779-0.0874462-0.2181511-0.1536217c-0.1879444-0.1323509-0.4564381-0.3214245-0.7786312-0.5483122
				c-0.6443844-0.4537745-1.5035629-1.0588074-2.3627415-1.6638412c-1.718358-1.2100658-3.4367161-2.4201326-3.4367161-2.4201326
				l0.3640232-0.4909859c0,0,1.6571712,1.2925949,3.3143415,2.5851889c0.8285856,0.6462975,1.6571703,1.2925949,2.2786093,1.777318
				c0.3107185,0.242362,0.5696526,0.4443293,0.750906,0.5857067c0.0906258,0.0706892,0.1618328,0.1262302,0.2103825,0.1640997
				c0.0512829,0.0341835,0.0603085,0.0771284,0.0603085,0.0771284L18.5247993,14.8456497z"/>
			<path style="fill:#40210F;" d="M18.5361481,14.8526192c0,0-0.0423851,0.0113745-0.0960674-0.0189009
				c-0.0557327-0.0261707-0.137476-0.0645542-0.2415123-0.1134062c-0.2080727-0.0977039-0.5053196-0.2372808-0.8620148-0.4047728
				c-0.7133923-0.3349857-1.6645813-0.7816315-2.6157703-1.2282782c-1.9023781-0.8932934-3.8047562-1.7865868-3.8047562-1.7865868
				l0.2732344-0.5467386c0,0,1.856451,0.9851923,3.7129021,1.9703856c0.9282255,0.4925957,1.8564501,0.9851923,2.5526209,1.35464
				c0.3480835,0.1847229,0.638155,0.3386593,0.8412037,0.4464149c0.1015244,0.0538778,0.1812935,0.0962105,0.2356815,0.1250734
				c0.0564404,0.0247593,0.0727863,0.065485,0.0727863,0.065485L18.5361481,14.8526192z"/>
			<path style="fill:#40210F;" d="M18.5485344,14.8575115c0,0-0.0397644,0.0185614-0.0978889-0.0019312
				c-0.059433-0.0160952-0.1465988-0.0397015-0.2575378-0.0697451c-0.2218761-0.0600882-0.5388451-0.1459284-0.9192066-0.2489367
				c-0.7607231-0.2060165-1.7750206-0.4807053-2.789319-0.755394c-2.028595-0.5493774-4.0571899-1.0987549-4.0571899-1.0987549
				l0.1741428-0.5858793c0,0,1.9993238,0.6478558,3.9986486,1.2957115c0.9996614,0.3239279,1.9993248,0.6478567,2.7490711,0.8908024
				c0.3748722,0.1214733,0.6872673,0.2227001,0.9059429,0.29356c0.1093388,0.035429,0.1952477,0.0632668,0.2538204,0.0822468
				c0.0598812,0.0145826,0.0830517,0.0518503,0.0830517,0.0518503L18.5485344,14.8575115z"/>
			<path style="fill:#40210F;" d="M18.5615826,14.8601789c0,0-0.0359383,0.0251846-0.0967388,0.0150967
				c-0.0613232-0.0055304-0.1512642-0.0136414-0.2657337-0.0239649c-0.228941-0.020647-0.5559998-0.0501423-0.9484711-0.085536
				c-0.7849407-0.0707884-1.8315277-0.1651735-2.8781147-0.2595577c-2.0931749-0.1887693-4.1863499-0.3775387-4.1863499-0.3775387
				l0.0697603-0.6072187c0,0,2.0814495,0.2908354,4.1628981,0.5816698c1.0407248,0.1454172,2.0814495,0.2908344,2.8619919,0.3998976
				c0.3902721,0.0545311,0.715498,0.0999737,0.9431572,0.1317844c0.1138287,0.0159044,0.2032661,0.0284014,0.264246,0.0369225
				c0.0615044,0.0039625,0.0907955,0.0366411,0.0907955,0.0366411L18.5615826,14.8601789z"/>
			<path style="fill:#40210F;" d="M18.5748959,14.8605404c0,0-0.0310192,0.0310421-0.0926476,0.0316648
				c-0.0613518,0.0052023-0.1513348,0.0128326-0.2658596,0.0225439c-0.2290478,0.0194225-0.5562592,0.0471678-0.9489136,0.0804634
				c-0.7853069,0.0665903-1.8323851,0.1553774-2.8794622,0.2441654c-2.0941544,0.1775742-4.1883087,0.3551483-4.1883087,0.3551483
				l-0.0367413-0.6101065c0,0,2.1003304-0.0750237,4.2006598-0.1500473c1.0501652-0.0375118,2.1003304-0.0750237,2.8879547-0.103158
				c0.3938122-0.0140667,0.7219887-0.0257893,0.9517117-0.0339947c0.1148624-0.0041027,0.2051105-0.0073271,0.2666435-0.0095243
				c0.0612564-0.0067778,0.0957775,0.020318,0.0957775,0.020318L18.5748959,14.8605404z"/>
		</g>
		<g>
			<g>
				<polygon style="fill:#FFE6D9;" points="21.9218483,6.2992196 19.9894047,11.1915607 20.278017,11.3671598 22.6688175,6.5831952 
									"/>
				<polygon style="fill:#C10D23;" points="23.344347,7.0101166 20.591713,11.4925661 20.278017,11.3671598 22.6688175,6.5831952 
									"/>
			</g>
			<g>
				<polygon style="fill:#FFE6D9;" points="20.3975163,5.8461366 19.3439751,10.9997177 19.6586971,11.1225319 
					21.1824474,5.9960885 				"/>
				<polygon style="fill:#C10D23;" points="21.9218483,6.2992196 19.9894047,11.1915607 19.6586971,11.1225319 
					21.1824474,5.9960885 				"/>
			</g>
			<g>
				<polygon style="fill:#FFE6D9;" points="18.8176651,5.6646347 18.6750393,10.9228659 19.0063057,10.9891644 
					19.6167107,5.6760063 				"/>
				<polygon style="fill:#C10D23;" points="20.3975163,5.8461366 19.3439751,10.9997177 19.0063057,10.9891644 
					19.6167107,5.6760063 				"/>
			</g>
			<g>
				<polygon style="fill:#FFE6D9;" points="17.230299,5.7602282 18.0029221,10.9633427 18.3406677,10.9711094 18.0191784,5.6326747 
									"/>
				<polygon style="fill:#C10D23;" points="18.8176651,5.6646347 18.6750393,10.9228659 18.3406677,10.9711094 
					18.0191784,5.6326747 				"/>
			</g>
			<g>
				<polygon style="fill:#FFE6D9;" points="15.6836462,6.130013 17.3480434,11.119915 17.6820068,11.0689154 16.4383926,5.8674097 
									"/>
				<polygon style="fill:#C10D23;" points="17.230299,5.7602282 18.0029221,10.9633427 17.6820068,11.0689154 16.4383926,5.8674097 
									"/>
			</g>
			<g>
				<polygon style="fill:#FFE6D9;" points="14.2247047,6.7627535 16.7303028,11.3878279 17.0503368,11.2796106 
					14.9223833,6.3730793 				"/>
				<polygon style="fill:#C10D23;" points="15.6836462,6.130013 17.3480434,11.119915 17.0503368,11.2796106 14.9223833,6.3730793 
									"/>
			</g>
			<g>
				<polygon style="fill:#FFE6D9;" points="12.8978004,7.6392236 16.1684685,11.7589407 16.4648495,11.5967941 
					13.5172148,7.1343184 				"/>
				<polygon style="fill:#C10D23;" points="14.2247047,6.7627535 16.7303028,11.3878279 16.4648495,11.5967941 
					13.5172148,7.1343184 				"/>
			</g>
			<g>
				<polygon style="fill:#FFE6D9;" points="11.7432537,8.7327929 15.6796141,12.2219763 15.9433355,12.0108271 
					12.2655811,8.1279984 				"/>
				<polygon style="fill:#C10D23;" points="12.8978004,7.6392236 16.1684685,11.7589407 15.9433355,12.0108271 
					12.2655811,8.1279984 				"/>
			</g>
			<g>
				<polygon style="fill:#FFE6D9;" points="10.7961426,10.0102329 15.2785921,12.762866 15.5016403,12.5091305 11.205513,9.323925 
									"/>
				<polygon style="fill:#C10D23;" points="11.7432537,8.7327929 15.6796141,12.2219763 15.5016403,12.5091305 11.205513,9.323925 
									"/>
			</g>
			<g>
				<polygon style="fill:#FFE6D9;" points="10.0852451,11.4327297 14.9775858,13.3651752 15.1531849,13.0765629 
					10.3692207,10.6857624 				"/>
				<polygon style="fill:#C10D23;" points="10.7961426,10.0102329 15.2785921,12.762866 15.1531849,13.0765629 
					10.3692207,10.6857624 				"/>
			</g>
			<g>
				<polygon style="fill:#FFE6D9;" points="9.6321621,12.9570618 14.7857428,14.010603 14.9085569,13.6958828 9.782114,12.1721306 
									"/>
				<polygon style="fill:#C10D23;" points="10.0852451,11.4327297 14.9775858,13.3651752 14.9085569,13.6958828 
					9.782114,12.1721306 				"/>
			</g>
			<g>
				<polygon style="fill:#FFE6D9;" points="9.4506607,14.5369129 14.7088919,14.6795387 14.7751894,14.3482733 
					9.4620323,13.7378683 				"/>
				<polygon style="fill:#C10D23;" points="9.6321621,12.9570618 14.7857428,14.010603 14.7751894,14.3482733 9.4620323,13.7378683 
									"/>
			</g>
			<g>
				<polygon style="fill:#FFE6D9;" points="9.5462542,16.1242809 14.7493677,15.3516569 14.7571344,15.0139112 
					9.4187002,15.3353996 				"/>
				<polygon style="fill:#C10D23;" points="9.4506607,14.5369129 14.7088919,14.6795387 14.7571344,15.0139112 
					9.4187002,15.3353996 				"/>
			</g>
		</g>
	</g>
	<g>
		<path style="fill:#FFDDBE;" d="M19.40625,14.96875c0,0-0.84375-1.0986328-1.375-0.7211914s0.6875,1.2836914,0.6875,1.2836914
			s0.03125,0.489584,0.3125,0.760416"/>
		<path style="fill:#40210F;" d="M18.8579102,16.4716797c-0.2587891-0.2490234-0.3461914-0.6166992-0.375-0.8066406
			c-0.253418-0.2011719-0.8408203-0.7177734-0.8359375-1.1787109c0.0019531-0.1772461,0.0869141-0.3344727,0.2392578-0.4423828
			c0.7094727-0.5058594,1.6166992,0.6401367,1.7182617,0.7724609l-0.3964844,0.3046875
			c-0.2436523-0.3164063-0.7993164-0.8325195-1.0317383-0.6699219c-0.03125,0.2177734,0.3491211,0.625,0.6918945,0.8793945
			l0.0917969,0.0683594l0.0083008,0.1157227c0.0078125,0.1098633,0.0654297,0.4321289,0.2363281,0.5966797L18.8579102,16.4716797z"
			/>
	</g>
	<path style="fill:#FFE6D9;" d="M34.1866951,17.3012524c0,0-1.1436348,0.072916-2.4420815,1.010416l-4.0276146,1.253027
		l-3.666666-1.1317215l-0.833334-1.1317215l-1.25-0.6239624l0.4166679,2.0413513l-0.4166679,2.8603878
		c0,0,4.5530281,7.2222233,6.109848,7.8055553c1.5568199,0.583334,2.6314774,0,2.6314774,0l2.5525208-5.5768242
		L34.1866951,17.3012524z"/>
	<path style="fill:#EDBBAB;" d="M23.6167526,19.40625L26.5625,21.666666h-2.9457474c0,0-0.8355026-0.2326374-0.8355026-0.6840267
		S23.0600719,19.09375,23.6167526,19.40625z"/>
	<path style="fill:#EDBBAB;" d="M30.3246574,20.7179184c0,0-4.4496574,2.2495327-5.0434074,2.2033081
		c-0.59375-0.0462265-0.0759296,2.9300938,1.5245361,2.2856827C28.40625,24.5625,31.3992367,20.1856766,30.3246574,20.7179184z"/>
	<path style="fill:#EDBBAB;" d="M30.5625,21.375c0,0-2.25,4.9833355-1.34375,6.1010418c0.90625,1.1177082,1.0625,1.4135437,1.5625,0
		c0.5-1.4135418,1.6875-5.3548508,0.8125-6.0248203C30.71875,20.78125,30.5625,21.375,30.5625,21.375z"/>
	<path style="fill:#80574B;" d="M29.4510498,29.8936996L29.4510498,29.8936996
		c-0.4829102,0-0.9746094-0.0927734-1.4619141-0.2753906c-1.5898438-0.5952148-5.7626953-7.1591797-6.2333984-7.9057617
		l-0.0493164-0.078125l0.4233398-2.9086914l-0.5102539-2.5014648l1.7988281,0.9287109l0.7841797,1.0654297l3.5141602,1.0844727
		l3.9150391-1.2177734c1.3276367-0.9462891,2.4892578-1.0302734,2.5390625-1.0332031l0.3066406-0.0195313l-0.9892578,6.8793945
		l-2.5874023,5.6523438l-0.0732422,0.0400391C30.8060303,29.6158676,30.2845459,29.8936996,29.4510498,29.8936996z
		 M22.2279053,21.5240707c1.2944336,2.0449219,4.7397461,7.1782227,5.9370117,7.6259766
		c0.4306641,0.1616211,0.8632813,0.2436523,1.2861328,0.2436523c0.5366211,0,0.918457-0.1337891,1.0683594-0.1972656
		l2.4990234-5.4599609l0.8730469-6.1357422c-0.4101563,0.0869141-1.1743164,0.3168945-2.0004883,0.9135742l-0.0722656,0.0361328
		l-4.1010742,1.2758789l-3.8198242-1.1791992l-0.8461914-1.1489258l-0.7368164-0.3676758l0.3227539,1.5805664L22.2279053,21.5240707
		z"/>
	<path style="fill:#80574B;" d="M25.7220459,22.1021957c-0.0112305,0-0.0209961-0.0004883-0.0302734-0.0014648
		c-0.2713203-0.0273438-1.1700916-0.1054974-1.9338169-0.1711254c-0.6409531-0.0550785-1.1447964-0.5993824-1.1447964-0.5993824
		s2.628418,0.222168,3.1293945,0.2734375c0.0009766,0,0.0024414,0,0.003418,0c0.3413086,0,2.9345703-0.9477539,5.2524414-1.8681641
		c0,0-0.0275478,0.4563923-1.1147461,0.8574219C28.6700821,21.0405674,26.0499077,22.1021957,25.7220459,22.1021957z"/>
	<path style="fill:#80574B;" d="M23.8978271,18.6471176c0.4589348,0.6935425,1.7566719,2.0708008,1.9025059,2.0708008
		l-1.5978184-2.4995117C24.2025146,18.2184067,23.1203194,17.4721508,23.8978271,18.6471176z"/>
	<polygon style="fill:#80574B;" points="27.237833,20.7179184 27.821167,21.1691399 27.237833,21.3845844 	"/>
</g>
<g>
	<g>
		<path style="fill:#FFE6D9;" d="M42,16.291666c0,0,2.4540787,1.208334-0.6062927,6.2916679c0,0-6.8060188,0.5-8.5165291,0
			c0,0-1.2262135-1.9943218,0.9258499-5l0.4073792-0.1979179L35.34375,19.9375l5.7395821-3.979167L42,16.291666z"/>
		<path style="fill:#80574B;" d="M35.8457031,23.0556641c-1.4892578,0-2.5117188-0.078125-3.0390625-0.2324219
			c-0.059082-0.0170898-0.1103516-0.0561523-0.1425781-0.1088867c-0.0537109-0.0874023-1.2875977-2.171875,0.9355469-5.2763672
			c0.0244141-0.0336914,0.0566406-0.0610352,0.09375-0.0791016l0.4072266-0.1982422
			c0.0605469-0.0307617,0.1308594-0.0341797,0.1953125-0.0102539c0.0634766,0.0234375,0.1152344,0.0712891,0.1425781,0.1333008
			l1.0107422,2.2763672l5.4912109-3.8071289c0.0673828-0.0458984,0.1523438-0.0576172,0.2275391-0.0292969l0.9169922,0.3330078
			c0.0527344,0.0239258,0.6923828,0.3481445,0.9697266,1.2929688c0.3876953,1.3203125-0.0996094,3.1245117-1.4472656,5.362793
			c-0.0419922,0.0698242-0.1142578,0.1142578-0.1953125,0.1206055
			C41.3818359,22.8349609,38.3486328,23.0556641,35.8457031,23.0556641z M33.0458984,22.3696289
			c0.5097656,0.1235352,1.4511719,0.1860352,2.7998047,0.1860352c2.1923828,0,4.7958984-0.1704102,5.4003906-0.2124023
			c1.5097656-2.5473633,1.5615234-4.0317383,1.3349609-4.831543c-0.2099609-0.7397461-0.6738281-0.9868164-0.6933594-0.9970703
			l-0.7685547-0.2773438l-5.6328125,3.9057617c-0.0605469,0.0424805-0.1357422,0.0556641-0.2099609,0.0351563
			c-0.0722656-0.0200195-0.1308594-0.0712891-0.1611328-0.1391602l-1.0283203-2.315918l-0.1171875,0.0571289
			C32.2124023,20.2700195,32.8549805,21.9770508,33.0458984,22.3696289z"/>
		<path style="fill:#EDBBAB;" d="M39.1471024,22.583334l0.9935226-3.2013893c0,0-1.0447655,1.3774719-1.390625,1.8263893
			c-0.5513039,0.7155762-1.6145592,0.7227631-1.6145592,0.7227631L39.1471024,22.583334z"/>
	</g>
	<g>
		<path style="fill:#C10D23;" d="M40.3220901,14.833333c0,0-0.5491486-0.291666-1.4147873,0.708334
			c-0.8656349,0.999999-3.1410446,3.166667-3.1410446,3.166667s-0.667881-2.6163712-0.584549-2.9497042
			c0,0-0.3379593,0.0382452-0.5358772,0.4497042c0,0,0.2291679,2.3333321,1,2.916666
			C35.6458321,19.125,38.5400162,17.104166,40.3220901,14.833333z"/>
		<path style="fill:#800817;" d="M35.6455078,19.25c-0.0263672,0-0.0527344-0.0083008-0.0751953-0.0253906
			c-0.8046875-0.609375-1.0400391-2.90625-1.0488281-3.0039063c-0.0029297-0.0229492,0.0009766-0.0458984,0.0117188-0.0664063
			c0.2255859-0.46875,0.6181641-0.5180664,0.6347656-0.5195313c0.0361328-0.003418,0.0810547,0.0107422,0.1074219,0.0415039
			c0.0273438,0.0307617,0.0371094,0.0732422,0.0273438,0.112793c-0.0488281,0.1953125,0.2666016,1.6186523,0.5322266,2.6806641
			c0.5273438-0.5058594,2.2568359-2.1767578,2.9775391-3.0097656c0.8916016-1.03125,1.5224609-0.7617188,1.5683594-0.7368164
			c0.0332031,0.0170898,0.0556641,0.0483398,0.0634766,0.0844727s-0.0009766,0.0737305-0.0234375,0.1030273
			c-1.7734375,2.2592773-4.6748047,4.2963867-4.7041016,4.3168945C35.6953125,19.2426758,35.6708984,19.25,35.6455078,19.25z
			 M34.7734375,16.2319336c0.0322266,0.2817383,0.2617188,2.1494141,0.8789063,2.7348633
			c0.4609375-0.3310547,2.8505859-2.0898438,4.4414063-4.0478516c-0.1914063,0.0053711-0.5761719,0.1083984-1.0917969,0.7045898
			c-0.859375,0.9926758-3.1259766,3.1538086-3.1494141,3.175293c-0.0322266,0.0317383-0.0800781,0.0439453-0.1201172,0.0297852
			c-0.0429688-0.012207-0.0761719-0.0463867-0.0869141-0.0893555c-0.0986328-0.3876953-0.5410156-2.1459961-0.5898438-2.8051758
			C34.9697266,15.9804688,34.8603516,16.0683594,34.7734375,16.2319336z"/>
	</g>
	<g>
		<path style="fill:#FFF7F2;" d="M34.6458321,16.208334c0,0,0.3020859,1.885416,1,2.916666
			c0,0,3.1389771-2.458334,4.6762581-4.291667c0,0,0.3029099,0.0968428,0.4122849,0.2801924
			c0,0-1.8798828,2.3303223-5.4580078,5.0646973c0,0-0.6513672-1.2094727-0.8232422-3.7563477
			C34.453125,16.421875,34.4957695,16.3302402,34.6458321,16.208334z"/>
		<path style="fill:#80574B;" d="M35.2763672,20.3032227c-0.0087891,0-0.0175781-0.0009766-0.0263672-0.0029297
			c-0.0361328-0.0078125-0.0664063-0.0307617-0.0839844-0.0629883c-0.0263672-0.050293-0.6660156-1.262207-0.8378906-3.8071289
			c-0.0009766-0.0209961,0.0029297-0.0419922,0.0117188-0.0610352c0.0058594-0.012207,0.0595703-0.1220703,0.2265625-0.2578125
			c0.0341797-0.027832,0.0800781-0.0361328,0.1240234-0.0195313c0.0410156,0.015625,0.0712891,0.0527344,0.078125,0.0966797
			c0.0029297,0.0180664,0.2851563,1.7363281,0.9072266,2.7529297c0.5644531-0.4487305,3.1992188-2.5766602,4.5507813-4.1879883
			c0.0332031-0.0400391,0.0839844-0.0556641,0.1337891-0.0390625c0.0351563,0.0112305,0.3515625,0.1171875,0.4814453,0.3349609
			c0.0263672,0.0449219,0.0224609,0.1015625-0.0097656,0.1425781c-0.0195313,0.0234375-1.9306641,2.3735352-5.4794922,5.0854492
			C35.3300781,20.2944336,35.3037109,20.3032227,35.2763672,20.3032227z M34.5908203,16.5952148
			c0.1494141,1.9057617,0.5722656,3.0229492,0.7324219,3.3891602c3.0869141-2.3769531,4.8945313-4.4506836,5.2490234-4.871582
			c-0.0605469-0.0561523-0.1464844-0.1015625-0.2119141-0.1308594c-1.5478516,1.8149414-4.6064453,4.2172852-4.6376953,4.2416992
			c-0.0283203,0.0209961-0.0625,0.0283203-0.0966797,0.0249023c-0.0341797-0.0053711-0.0644531-0.0249023-0.0839844-0.0537109
			C35.0185547,18.4204102,34.7167969,17.2021484,34.5908203,16.5952148z"/>
	</g>
	<g>
		<path style="fill:#FFE6D9;" d="M34.453125,16.421875c0,0,0.1197929,2.1908035,0.8385429,3.7064285
			c0,0,4.2239571-3.7293777,5.4427071-5.0147781c0,0,1.015625,0.5948076,1.265625,1.1781406
			c0,0-3.0756416,2.3574715-6.96875,6.4824715c0,0-1.4344292-2.731432-1.2282219-5.1908035
			C33.8030281,17.583334,34.0216675,17.0319729,34.453125,16.421875z"/>
		<path style="fill:#80574B;" d="M35.03125,22.8989258c-0.0058594,0-0.0117188-0.0004883-0.0166016-0.0009766
			c-0.0400391-0.0058594-0.0751953-0.0302734-0.09375-0.065918c-0.0595703-0.112793-1.4492188-2.7919922-1.2431641-5.2587891
			c0.0009766-0.012207,0.0039063-0.0244141,0.0087891-0.0356445c0.0087891-0.0234375,0.2294922-0.5727539,0.6650391-1.1879883
			c0.0302734-0.043457,0.0898438-0.0625,0.1357422-0.0478516c0.0517578,0.0146484,0.0878906,0.0600586,0.0908203,0.1132813
			c0.0009766,0.0209961,0.1191406,2.0405273,0.7578125,3.5078125c0.7128906-0.6318359,4.2255859-3.753418,5.3076172-4.8955078
			c0.0400391-0.0429688,0.1044922-0.0517578,0.1542969-0.0219727c0.0429688,0.0253906,1.0537109,0.6230469,1.3173828,1.2368164
			c0.0224609,0.0527344,0.0058594,0.1137695-0.0390625,0.1484375c-0.03125,0.0234375-3.1132813,2.3999023-6.9541016,6.4692383
			C35.0986328,22.8847656,35.0654297,22.8989258,35.03125,22.8989258z M33.9257813,17.6132813
			c-0.1650391,2.0571289,0.8447266,4.3330078,1.1376953,4.9443359c3.453125-3.640625,6.2714844-5.902832,6.7792969-6.3017578
			c-0.2353516-0.4179688-0.8613281-0.8393555-1.0878906-0.9833984c-1.2929688,1.3383789-5.3388672,4.9130859-5.3798828,4.949707
			c-0.0302734,0.0263672-0.0693359,0.0351563-0.1083984,0.0288086c-0.0380859-0.0078125-0.0703125-0.0336914-0.0878906-0.0688477
			c-0.5527344-1.1665039-0.7548828-2.6987305-0.8212891-3.3901367
			C34.1035156,17.1992188,33.9580078,17.5361328,33.9257813,17.6132813z"/>
	</g>
	<g>
		<path style="fill:#FFE6D9;" d="M35.03125,22.7741375l-1.7604179,0.0314178c0,0,1.0597496-1.8228607,2.0208359-2.6772518"/>
		<path style="fill:#80574B;" d="M33.2705078,22.9306641c-0.0439453,0-0.0849609-0.0234375-0.1074219-0.0615234
			c-0.0234375-0.0390625-0.0234375-0.0874023-0.0009766-0.1264648c0.0439453-0.0751953,1.0820313-1.8496094,2.046875-2.7075195
			L35.375,20.2216797c-0.7529297,0.6699219-1.5820313,1.9667969-1.8808594,2.4550781l1.5351563-0.027832l0.0039063,0.25
			l-1.7607422,0.0317383C33.2724609,22.9306641,33.2714844,22.9306641,33.2705078,22.9306641z"/>
	</g>
</g>
<g>
	<path style="fill:#C10D23;" d="M32.5077782,22.583334c0,0,0.5584526-1.625,8.8859291,0l-0.2368889,0.875L40.895977,27.666666
		l0.173893,0.625c0,0-7.0498238,1.708334-8.3287811,0.833334l0.104435-0.708334c0,0-0.4224625-4.0833321-0.0769234-5.3333321
		L32.5077782,22.583334z"/>
	<path style="fill:#800917;" d="M34.1347656,29.6245117c-0.7441406,0-1.246582-0.0961914-1.534668-0.2929688l-0.1289063-0.0883789
		l0.1269531-0.8632813c-0.0180664-0.1035156-0.4052734-3.8911133-0.0952148-5.2646484l-0.2666016-0.5117188l0.0351563-0.1015625
		c0.0512695-0.1484375,0.4423828-0.890625,3.1171875-0.890625c1.5449219,0,3.5810547,0.2446289,6.0527344,0.7265625
		l0.2636719,0.0517578l-0.3066406,1.1342773l-0.2509766,4.1157227l0.2333984,0.8339844l-0.2519531,0.0610352
		C40.9453125,28.5791016,36.6035156,29.6245117,34.1347656,29.6245117z M33.0126953,28.9853516
		c0.1845703,0.0732422,0.5185547,0.1391602,1.1220703,0.1391602c2.0761719,0,5.6484375-0.7915039,6.625-1.0166016
		l-0.1162109-0.4145508l0.0019531-0.0424805l0.2617188-4.2080078l0.1757813-0.6645508
		c-2.3212891-0.4428711-4.2363281-0.6669922-5.6943359-0.6669922c-1.8076172,0-2.4072266,0.3452148-2.5849609,0.4990234
		l0.2324219,0.4448242l-0.0263672,0.0947266c-0.3295898,1.190918,0.0800781,5.2006836,0.0849609,5.2407227L33.0126953,28.9853516z"
		/>
</g>
<g>
	<g>
		<path style="fill:#FFDDBE;" d="M33.6582031,21.6259766c0,0-0.5995522-1.6572266-1.1288757-1.6884766
			c-0.5293274-0.03125-1.0895081-0.1875-1.4187927,0S29.90625,20.84375,30.5625,21.375s1.1427479-0.2949219,1.711998,1.6806641
			L33.6582031,21.6259766z"/>
		<path style="fill:#40210F;" d="M32.1538086,23.5395508L32.0341797,23.125
			c-0.3413086-1.184082-0.5957031-1.2231445-0.918457-1.2729492c-0.1987305-0.0302734-0.4458008-0.0683594-0.7104492-0.2827148
			c-0.2983398-0.2416992-0.3432617-0.5126953-0.328125-0.6972656c0.0429688-0.5258789,0.6137695-0.9833984,0.909668-1.1518555
			c0.2597656-0.1459961,0.6635742-0.1318359,1.1303711-0.0756836c0.1411133,0.0170898,0.2851563,0.0351563,0.4267578,0.043457
			c0.6259766,0.0371094,1.1523438,1.3081055,1.3496094,1.8530273L33.9462891,21.6875L32.1538086,23.5395508z M31.546875,20.0966797
			c-0.1420898,0-0.2441406,0.019043-0.3129883,0.0581055c-0.262207,0.1494141-0.637207,0.4960938-0.6582031,0.7578125
			c-0.0048828,0.0610352,0.0043945,0.1552734,0.144043,0.2680664c0.159668,0.1293945,0.2973633,0.1503906,0.472168,0.1772461
			c0.4667969,0.0722656,0.8364258,0.2104492,1.1938477,1.2231445l0.9824219-1.0151367
			c-0.2792969-0.7172852-0.6782227-1.3686523-0.8535156-1.3789063c-0.1523438-0.0087891-0.3066406-0.027832-0.4580078-0.0463867
			C31.8774414,20.1186523,31.7041016,20.0966797,31.546875,20.0966797z"/>
	</g>
	<path style="fill:#FFE6D9;" d="M39.8085365,20.7888527l-1.0761032,2.9194813L35.5,22.125l-0.5511475,0.041666l-1.1550789-0.75
		c-0.5812302-0.2083321-1.4364395,1.1666679-1.4364395,1.1666679C32.131916,24.7982635,31.5,31.875,31.375,32.75
		S32,34.0833321,32,34.0833321s3.9166679-0.25,6.0833321-0.5833321c2.1666679-0.3333321,2.8333359-5.833334,2.8333359-5.833334
		c2.0302048-0.7083321,2.4166641-7.0833321,2.4166641-7.0833321C44.5416679,17.291666,42,16.291666,42,16.291666"/>
	<path style="fill:#EDBBAB;" d="M40.734375,21.708334c-0.2952614,0.3402405-1.735611,2-1.735611,2L40.140625,19.625
		c0,0-0.4964409,1.875,0.1814651,1.75C41,21.25,41.0296364,21.3680935,40.734375,21.708334z"/>
	<path style="fill:#EDBBAB;" d="M39.3636398,25.1875C38.9412689,25.4504833,37.375,22.96875,35.5,22.125l3.8636398,1.583334
		C39.3636398,23.708334,39.6647758,25,39.3636398,25.1875z"/>
	<path style="fill:#EDBBAB;" d="M38.6531296,27.9677105c0,0-2.6563835,4.3239574-3.7693405-4.4260445
		C34.8837891,23.541666,36.118763,29.039587,38.6531296,27.9677105z"/>
	<path style="fill:#EDBBAB;" d="M38.375,29.6438446c0,0-2.75,3.0644875-4.4375-3.6438446c0,0-0.4583321,5.791666,1.125,6.25
		C37.3302841,32.9064636,38.375,29.6438446,38.375,29.6438446z"/>
	<path style="fill:#80574B;" d="M31.9370117,34.3378906l-0.0673828-0.0419922
		c-0.0361328-0.0214844-0.8886719-0.5546875-0.7421875-1.5810547c0.074707-0.5214844,0.3413086-3.3798828,0.5766602-5.9023438
		c0.1606445-1.7231445,0.3149414-3.3730469,0.4047852-4.2543945l0.0361328-0.1064453
		c0.1611328-0.2578125,1.0014648-1.5356445,1.7329102-1.2705078l1.1357422,0.7299805l0.5351563-0.0405273l3.0449219,1.4916992
		l0.9804688-2.659668c0.046875-0.1289063,0.1865234-0.1977539,0.3212891-0.1479492
		c0.1289063,0.0473633,0.1953125,0.1914063,0.1474609,0.3208008l-1.171875,3.1791992l-3.4199219-1.675293l-0.5673828,0.0429688
		l-1.2255859-0.7963867c-0.1875-0.0493164-0.7021484,0.487793-1.0581055,1.0415039
		c-0.090332,0.8935547-0.2407227,2.5073242-0.3979492,4.1914063c-0.2475586,2.6518555-0.503418,5.3935547-0.5795898,5.9262695
		c-0.081543,0.5712891,0.296875,0.9257813,0.4487305,1.0429688c0.5908203-0.0400391,4.0214844-0.2753906,5.9736328-0.5751953
		c1.6230469-0.2490234,2.4443359-4.1386719,2.6240234-5.6166992L40.6875,27.4819336l0.1474609-0.0512695
		c1.5351563-0.5356445,2.1435547-5.1352539,2.2480469-6.8623047l0.015625-0.0712891
		c1.1064453-3.0126953-1.0966797-3.9355469-1.1904297-3.9731445C41.7802734,16.4726563,41.9492188,16.420084,42,16.291666
		c0.0507813-0.1274414-0.0380859-0.2853184,0.0917969-0.232584c0.0273438,0.0107422,2.7363281,1.1220703,1.4882813,4.5761719
		c-0.0507813,0.8017578-0.46875,6.2680664-2.4345703,7.2070313c-0.1259766,0.9091797-0.8789063,5.574707-3.0244141,5.9047852
		c-2.1523438,0.3310547-6.065918,0.5830078-6.1049805,0.5849609L31.9370117,34.3378906z"/>
	<path style="fill:#80574B;" d="M41.5625,17.9375c0,0-1.5207596,0.3988514-2.0260544,2.8676014L40.0114059,20.875
		C40.0114059,20.875,40.0114059,19.40625,41.5625,17.9375z"/>
	<path style="fill:#80574B;" d="M40.4791679,22.583334c0,0-0.9860878,1.776041-1.6080742,1.4713535
		S39.0118217,23.6729088,40.4791679,22.583334z"/>
	<path style="fill:#80574B;" d="M40.6875,27.4819336c-0.7865257,0.1919708-1.620533,0.2836914-3.1774559-0.4975586
		c0,0,0.7243309,0.734375,1.2399559,0.84375s1.609375,0.25,2.3125,0C41.0625,27.828125,41.59375,27.2607422,40.6875,27.4819336z"/>
	<polygon style="fill:#80574B;" points="34.8837891,22.4223633 35.875,23.708334 35.3793945,22.1341171 	"/>
</g>
<g>
	<path style="fill:#F99898;" d="M40.039669,36.1478462c-0.0080185,0.0027504-0.0169525,0.0025139-0.0248375-0.0008049
		c-0.5857391-0.2435608-0.8545609-0.5588799-0.8716736-1.0221634c-0.0002174-0.005909,0.00103-0.0118866,0.0037346-0.0171318
		c0.1112251-0.2190666,0.1765594-0.5181084,0.200058-0.9141159c0.0006332-0.0112839,0.0067024-0.0216103,0.0161934-0.0275879
		c0.0024376-0.001564,0.0050278-0.0027809,0.0075607-0.0036469c0.0077934-0.0026779,0.016346-0.002594,0.0241356,0.0004234
		c1.044323,0.4088135,1.32201,0.9197578,0.9903908,1.8221931c-0.0035782,0.0100822-0.0115776,0.0177612-0.0215111,0.0211716
		c-0.0005188,0.0001755-0.0009422,0.0003204-0.0013275,0.0004539c-0.0105934,0.0032043-0.0220718,0.0011559-0.0309334-0.0054207
		l-0.2358551-0.1737862l-0.032444,0.2910538c-0.001152,0.0110283-0.0075493,0.0207291-0.0170021,0.0263748
		C40.044014,36.1460266,40.0419731,36.1470528,40.039669,36.1478462L40.039669,36.1478462z"/>
	<path style="fill:#F99898;" d="M32.9461899,35.6885414c0.0000076-0.0000954,0.0000076-0.0000954,0.0000191-0.0001907
		c0.0126381-0.1316872,0.0598412-0.2778664,0.144371-0.4466515c0.0034485-0.0068245,0.0099716-0.0117645,0.017662-0.0130997
		c0.0075798-0.0013695,0.0154114,0.0008774,0.0210457,0.0061913l0.1500587,0.139061l0.0454025-0.1996689
		c0.0017052-0.0074997,0.0067635-0.0137596,0.0138397-0.0169563c0.0070534-0.0032043,0.015255-0.0028076,0.0219574,0.0009232
		c0.3876381,0.2149925,0.5496483,0.4549484,0.5253029,0.7779312c-0.0000191,0.0001907-0.0000343,0.0003815-0.0000534,0.0005722
		c-0.0003777,0.0039406-0.0017357,0.007782-0.0038338,0.011055c-0.0944672,0.1438065-0.1632805,0.3464088-0.2103081,0.6192436
		c-0.001339,0.0076981-0.0063667,0.0143738-0.0134468,0.0178604c-0.0070801,0.0034904-0.0154305,0.0033875-0.0223351-0.0002403
		C33.1253357,36.3153305,32.9125595,36.0389366,32.9461899,35.6885414L32.9461899,35.6885414z"/>
	<path style="fill:#F99898;" d="M35.4379997,41.6323471c-0.0008926,0-0.0016899-0.0001564-0.0024948-0.0001564
		c-1.0415955-0.0786781-1.4285431-0.4578552-1.3799171-1.3519821c0.0005112-0.0103874,0.005909-0.0197563,0.0144806-0.0254135
		c0.0054016-0.0037079,0.011734-0.0055656,0.0181885-0.0055656c0.0037041,0,0.0072556,0.0006752,0.0108032,0.0018578
		l0.2574158,0.0904045l-0.0504799-0.2681847c-0.0019836-0.0101662,0.0010529-0.0205841,0.0080528-0.0282249
		c0.0060425-0.0067177,0.0148697-0.0105209,0.0239754-0.0105209c0.0010605,0,0.0022392,0,0.0032921,0.0001297
		c0.5878105,0.0566483,0.91325,0.2638397,1.0554428,0.6718826c0.0017281,0.0052719,0.0022392,0.0109673,0.0013161,0.0163689
		c-0.039135,0.2257576-0.015667,0.5099297,0.0715714,0.8686752c0.0024948,0.0102654,0,0.0210686-0.0067101,0.0289993
		C35.456604,41.6280022,35.4476242,41.6323471,35.4379997,41.6323471L35.4379997,41.6323471z"/>
	<path style="fill:#F99898;" d="M38.0587654,39.975666c-0.0034828,0-0.0068321-0.0006371-0.0100822-0.0020103
		c-0.0076752-0.0031204-0.0134392-0.0097542-0.015419-0.0178261c-0.1962929-0.8064728-0.0049515-1.1918983,0.6827927-1.3746529
		c0.0023079-0.0006142,0.0045204-0.0009422,0.0068283-0.0009422c0.0057716,0,0.0113297,0.0020103,0.0159569,0.0055618
		c0.0065002,0.0051575,0.0101852,0.0129051,0.0099831,0.0211105l-0.0049553,0.2167435l0.1899948-0.1040154
		c0.0038872-0.0022125,0.0081787-0.0032501,0.0124969-0.0032501c0.0036812,0,0.0073395,0.0007324,0.0106926,0.0023079
		c0.007473,0.0034561,0.012928,0.0100861,0.0147095,0.0180626c0.1013947,0.4583778,0.024662,0.7552299-0.2486725,0.9625244
		c-0.0035553,0.0027428-0.0076714,0.0044212-0.0120659,0.0050583c-0.1801147,0.0259056-0.3890076,0.1133614-0.6387215,0.2674408
		C38.0682144,39.9742928,38.0634918,39.975666,38.0587654,39.975666L38.0587654,39.975666z"/>
	<path style="fill:#F99898;" d="M37.2911911,44.9408913c-0.2059555,0-0.3962631-0.0628128-0.5814514-0.1916924
		c-0.0052643-0.0035934-0.0094795-0.0083809-0.0121651-0.0140839c-0.1146126-0.2331505-0.325943-0.4784241-0.645752-0.7499771
		c-0.0091438-0.007843-0.0139694-0.0193901-0.0130615-0.0312576c0.0009079-0.0118713,0.0075073-0.0226936,0.0175705-0.0290108
		c0.4420776-0.2726097,0.8052711-0.4052315,1.1103363-0.4052315c0.4081001,0,0.7349434,0.2239609,1.0596886,0.726387
		c0.006321,0.0097618,0.0076561,0.0219231,0.0035973,0.0330315c-0.0040283,0.0109673-0.0128937,0.0193863-0.0241776,0.0226936
		l-0.2966499,0.0889473l0.2253075,0.2125244c0.0084267,0.0079498,0.0127831,0.0195351,0.0114365,0.0312576
		c-0.0013847,0.0115395-0.0079842,0.0219269-0.0181847,0.027771C37.8090706,44.8496933,37.5355568,44.9408913,37.2911911,44.9408913
		L37.2911911,44.9408913z"/>
	<path style="fill:#F99898;" d="M39.9542046,48.578846c-0.0000305,0.0000916-0.0000305,0.0000916-0.0000572,0.0001907
		c-0.039402,0.1326752-0.1172028,0.2732964-0.2378693,0.4296417c-0.0049095,0.0063171-0.0125999,0.0100784-0.0207672,0.0099068
		c-0.0080528-0.0001144-0.0156441-0.003994-0.0203629-0.0105782l-0.1261749-0.1728973l-0.0866852,0.1959038
		c-0.0032578,0.0073547-0.0097046,0.0127678-0.0176125,0.0146332c-0.007885,0.001873-0.0162277-0.0001793-0.0223618-0.005352
		c-0.3548775-0.298542-0.4730759-0.5774384-0.3832664-0.9041824c0.0000572-0.0001945,0.0001144-0.0003853,0.0001717-0.000576
		c0.0011787-0.0039711,0.0033417-0.0076447,0.0061531-0.010582c0.1258545-0.1287041,0.2371674-0.3229256,0.3402023-0.5936317
		c0.0029221-0.0076332,0.0094261-0.0134811,0.017395-0.0156403c0.0079689-0.0021629,0.0165215-0.0003815,0.0228844,0.0047302
		C39.8960381,47.8993149,40.0590477,48.2258072,39.9542046,48.578846L39.9542046,48.578846z"/>
	<path style="fill:#F99898;" d="M36.1186981,37.9091415c-0.0022697,0.0011826-0.0046692,0.0019035-0.0072594,0.0021133
		c-0.0060654,0.0005722-0.0120811-0.0017967-0.0161171-0.0063934c-0.4020996-0.4594688-0.408226-0.7759476-0.0216179-1.1288719
		c0.0013008-0.0011864,0.0026321-0.0021515,0.0041389-0.0029335c0.0037613-0.0019608,0.0080719-0.0025406,0.0122986-0.0017929
		c0.0059929,0.001152,0.0110283,0.0049591,0.0136833,0.0103798l0.0704193,0.1430931l0.0886116-0.1324234
		c0.0017853-0.0027618,0.0042305-0.0048981,0.0070496-0.0063667c0.0024033-0.0012512,0.0050392-0.0020142,0.0077629-0.0021248
		c0.0060463-0.0002861,0.0118599,0.0021858,0.0157318,0.0067863c0.2219086,0.2646065,0.2727089,0.4843559,0.164814,0.7124786
		c-0.0013847,0.0029984-0.0034981,0.0054932-0.0061531,0.0074005c-0.1087074,0.0781021-0.2152824,0.2061424-0.3258476,0.3915176
		C36.1244011,37.9050331,36.1217842,37.9075317,36.1186981,37.9091415L36.1186981,37.9091415z"/>
	<path style="fill:#F99898;" d="M31.2427311,44.6171036c-0.0034809,0-0.0068302-0.0006371-0.0100822-0.0020103
		c-0.0076733-0.0031204-0.0134354-0.0097542-0.015419-0.0178261c-0.1962929-0.8064728-0.0049515-1.1918983,0.6827927-1.3746529
		c0.0023098-0.0006142,0.0045204-0.0009422,0.0068302-0.0009422c0.0057697,0,0.0113316,0.0020103,0.015955,0.0055618
		c0.0065022,0.0051537,0.0101852,0.0129051,0.0099831,0.0211105l-0.0049515,0.2167435l0.1899929-0.1040154
		c0.0038872-0.0022125,0.0081787-0.0032501,0.0124969-0.0032501c0.0036812,0,0.0073395,0.0007324,0.0106926,0.0023079
		c0.007473,0.0034523,0.012928,0.0100861,0.0147057,0.0180626c0.1013985,0.458374,0.0246658,0.7552299-0.2486706,0.9625244
		c-0.0035534,0.0027428-0.0076675,0.0044212-0.012064,0.0050583c-0.1801147,0.0259056-0.3890076,0.1133614-0.6387215,0.2674408
		C31.2521839,44.6157303,31.2474594,44.6171036,31.2427311,44.6171036L31.2427311,44.6171036z"/>
	<path style="fill:#F99898;" d="M31.8750191,40.1829796c-0.0022717,0.0011826-0.004673,0.0019073-0.0072613,0.0021172
		c-0.0060654,0.0005684-0.0120811-0.0018005-0.0161171-0.0063934c-0.4020996-0.4594688-0.408226-0.7759514-0.0216179-1.1288719
		c0.0012989-0.0011864,0.0026302-0.0021515,0.004137-0.0029373c0.0037632-0.0019608,0.0080738-0.0025406,0.0122986-0.0017929
		c0.0059948,0.0011559,0.0110321,0.0049591,0.0136871,0.0103798l0.0704155,0.1430931l0.0886154-0.1324196
		c0.0017815-0.0027618,0.0042305-0.0049019,0.0070457-0.0063667c0.0024033-0.0012512,0.0050392-0.002018,0.0077629-0.0021286
		c0.0060501-0.0002823,0.0118637,0.0021896,0.0157318,0.0067863c0.2219086,0.2646065,0.2727127,0.4843597,0.1648178,0.7124825
		c-0.0013885,0.0029945-0.0035019,0.0054893-0.0061531,0.0073967c-0.1087112,0.0781021-0.2152824,0.2061424-0.3258495,0.3915176
		C31.8807182,40.1788712,31.8781033,40.1813736,31.8750191,40.1829796L31.8750191,40.1829796z"/>
	<path style="fill:#F99898;" d="M29.3214722,48.8085175c0.0021229-0.0002251,0.0042057-0.0000572,0.0062771,0.0005684
		c0.004879,0.0014038,0.0088234,0.0050735,0.0105572,0.0098648c0.1720657,0.4788399,0.0804787,0.7262192-0.32687,0.8823166
		c-0.0013695,0.0005226-0.0026951,0.0008659-0.0041027,0.0010185c-0.0035172,0.0003738-0.0070381-0.0004883-0.010088-0.0023537
		c-0.0042973-0.0027199-0.0070457-0.007206-0.0074558-0.0122185l-0.0110664-0.1324425l-0.1090546,0.0757523
		c-0.0022259,0.0015984-0.0047741,0.0025139-0.0074062,0.0027924c-0.0022449,0.0002403-0.0045223,0.0000305-0.00667-0.0007133
		c-0.0047779-0.0016174-0.0085354-0.0053062-0.0101376-0.0100517c-0.0915985-0.2728233-0.0641155-0.4587631,0.0890293-0.6028862
		c0.0019875-0.0018997,0.0043869-0.0031929,0.0070248-0.0038643c0.1081085-0.0274963,0.2297592-0.0943832,0.3719616-0.2045326
		C29.3158016,48.8099709,29.3185902,48.8088264,29.3214722,48.8085175L29.3214722,48.8085175z"/>
</g>
<g>
	<path style="fill:#F99898;" d="M31.1101036,24.0724545c-0.0080185,0.0027504-0.0169506,0.0025158-0.0248375-0.000803
		c-0.5857372-0.2435627-0.8545589-0.5588818-0.8716736-1.0221634c-0.0002136-0.005909,0.0010338-0.0118885,0.0037365-0.0171337
		c0.1112232-0.2190647,0.1765594-0.5181084,0.200058-0.9141159c0.0006313-0.011282,0.0067043-0.0216084,0.0161934-0.027586
		c0.0024357-0.001564,0.0050278-0.0027809,0.0075607-0.0036488c0.0077934-0.002676,0.0163441-0.002594,0.0241356,0.0004253
		c1.0443211,0.4088116,1.3220119,0.9197559,0.9903908,1.8221931c-0.0035801,0.0100803-0.0115776,0.0177593-0.0215111,0.0211697
		c-0.0005188,0.0001774-0.0009441,0.0003223-0.0013294,0.0004559c-0.0105915,0.0032024-0.0220699,0.0011539-0.0309334-0.0054207
		l-0.2358551-0.1737881l-0.032444,0.2910538c-0.0011482,0.0110283-0.0075474,0.020731-0.0170021,0.0263767
		C31.1144505,24.0706348,31.1124096,24.0716629,31.1101036,24.0724545L31.1101036,24.0724545z"/>
	<path style="fill:#F99898;" d="M22.7551231,18.4954929c0.0000095-0.0000916,0.0000095-0.0000916,0.0000172-0.0001907
		c0.01264-0.1316853,0.0598431-0.2778625,0.1443729-0.4466496c0.0034485-0.0068245,0.0099716-0.0117645,0.017664-0.0130978
		c0.0075779-0.0013695,0.0154095,0.0008774,0.0210438,0.0061893l0.1500568,0.1390591l0.0454044-0.1996651
		c0.0017071-0.0074997,0.0067635-0.0137596,0.0138397-0.0169601c0.0070534-0.0032005,0.015255-0.0028038,0.0219593,0.0009232
		c0.3876362,0.2149963,0.5496483,0.4549522,0.5253029,0.7779331c-0.0000191,0.0001907-0.0000362,0.0003815-0.0000553,0.0005722
		c-0.0003777,0.0039406-0.0017338,0.007782-0.0038338,0.011055c-0.0944653,0.1438065-0.1632786,0.3464088-0.2103062,0.6192436
		c-0.0013409,0.0076981-0.0063686,0.0143757-0.0134487,0.0178604c-0.0070801,0.0034904-0.0154285,0.0033894-0.0223351-0.0002384
		C22.934269,19.1222858,22.7214947,18.845892,22.7551231,18.4954929L22.7551231,18.4954929z"/>
	<path style="fill:#F99898;" d="M25.5114956,24.1981678c-0.0011158,0-0.0021152-0.0001965-0.0031242-0.0001965
		c-1.305048-0.0985775-1.7898712-0.5736637-1.7289467-1.693943c0.0006409-0.0130196,0.0074081-0.0247574,0.0181446-0.0318451
		c0.0067692-0.0046425,0.0147018-0.0069733,0.022789-0.0069733c0.0046425,0,0.0090885,0.000845,0.0135345,0.0023308
		l0.322525,0.1132679l-0.0632477-0.3360176c-0.0024853-0.0127392,0.0013218-0.0257893,0.0100899-0.0353622
		c0.0075722-0.0084171,0.0186291-0.0131836,0.0300407-0.0131836c0.0013294,0,0.0028057,0,0.0041256,0.000164
		c0.7364883,0.0709743,1.1442413,0.3305702,1.3223972,0.8418236c0.0021667,0.0066051,0.0028057,0.0137405,0.0016499,0.0205078
		c-0.0490303,0.2828617-0.0196304,0.6389122,0.0896759,1.0883942c0.0031261,0.0128632,0,0.0263996-0.0084076,0.0363331
		C25.5348091,24.1927204,25.5235538,24.1981678,25.5114956,24.1981678L25.5114956,24.1981678z"/>
	<path style="fill:#F99898;" d="M27.5274658,23.8947449c-0.003479,0-0.0068302-0.0006351-0.0100803-0.0020084
		c-0.0076733-0.0031204-0.0134373-0.0097542-0.015419-0.017828c-0.1962948-0.8064709-0.0049534-1.1918983,0.6827927-1.374651
		c0.0023079-0.0006142,0.0045204-0.0009422,0.0068302-0.0009422c0.0057678,0,0.0113297,0.0020084,0.0159531,0.0055618
		c0.0065041,0.0051537,0.0101871,0.0129051,0.0099831,0.0211086l-0.0049515,0.2167435l0.1899929-0.1040154
		c0.0038872-0.0022106,0.0081787-0.0032501,0.012495-0.0032501c0.0036831,0,0.0073414,0.0007324,0.0106964,0.0023098
		c0.0074692,0.0034542,0.0129261,0.0100861,0.0147057,0.0180607c0.1013985,0.4583759,0.024662,0.7552299-0.2486725,0.9625263
		c-0.0035534,0.0027409-0.0076675,0.0044212-0.012064,0.0050564c-0.1801147,0.0259056-0.3890076,0.1133633-0.6387215,0.2674408
		C27.5369186,23.8933716,27.5321941,23.8947449,27.5274658,23.8947449L27.5274658,23.8947449z"/>
	<path style="fill:#F99898;" d="M27.7350063,26.4686012c-0.2059536,0-0.3962631-0.0628128-0.5814514-0.1916924
		c-0.0052643-0.0035915-0.0094795-0.0083809-0.0121632-0.014082c-0.1146145-0.2331524-0.325943-0.4784241-0.645752-0.749979
		c-0.0091457-0.007843-0.0139713-0.0193901-0.0130634-0.0312557c0.000906-0.0118752,0.0075092-0.0226936,0.0175686-0.0290146
		c0.4420795-0.2726078,0.8052731-0.4052296,1.1103382-0.4052296c0.4081001,0,0.7349434,0.2239609,1.0596886,0.7263851
		c0.006319,0.0097637,0.007658,0.0219269,0.0035992,0.0330353c-0.0040302,0.0109673-0.0128937,0.0193825-0.0241795,0.0226917
		l-0.296648,0.0889473l0.2253075,0.2125263c0.0084229,0.0079479,0.0127811,0.0195313,0.0114346,0.0312557
		c-0.0013828,0.0115414-0.0079842,0.0219288-0.0181866,0.027771C28.2528877,26.3774014,27.9793701,26.4686012,27.7350063,26.4686012
		L27.7350063,26.4686012z"/>
	<path style="fill:#F99898;" d="M28.9662495,28.4635315c-0.0000286,0.0000935-0.0000286,0.0000935-0.0000572,0.0001907
		c-0.039402,0.132679-0.1172028,0.2732983-0.2378693,0.4296436c-0.0049095,0.0063152-0.012598,0.0100784-0.0207653,0.0099049
		c-0.0080547-0.0001144-0.015646-0.003994-0.0203648-0.0105782l-0.126173-0.1728973l-0.0866871,0.1959038
		c-0.0032578,0.0073566-0.0097046,0.0127716-0.0176125,0.0146351c-0.007885,0.001873-0.0162277-0.0001812-0.0223618-0.0053539
		c-0.3548775-0.2985401-0.4730759-0.5774364-0.3832664-0.9041824c0.0000572-0.0001926,0.0001144-0.0003834,0.0001717-0.000576
		c0.0011787-0.0039711,0.0033417-0.0076447,0.006155-0.010582c0.1258526-0.1287041,0.2371655-0.3229218,0.3402023-0.5936298
		c0.0029221-0.0076351,0.0094242-0.0134811,0.0173931-0.0156403c0.0079708-0.0021629,0.0165234-0.0003834,0.0228844,0.0047283
		C28.908083,27.7840004,29.0710926,28.1104946,28.9662495,28.4635315L28.9662495,28.4635315z"/>
</g>
<g>
	<path style="fill:#F99898;" d="M35.2755585,32.0240669c-0.0084763,0-0.0168457-0.0031242-0.0232315-0.0088234
		c-0.4749527-0.4205112-0.6268578-0.8060188-0.4926567-1.2497673c0.0017128-0.0056591,0.004837-0.01091,0.0090942-0.0149937
		c0.1763115-0.1710968,0.335186-0.4327354,0.4859619-0.7996712c0.0042572-0.0104656,0.0133553-0.018261,0.0242691-0.020834
		c0.0028114-0.0006886,0.005661-0.0009995,0.0083389-0.0009995c0.0082359,0,0.0163002,0.0028553,0.0226898,0.0082397
		c0.8550606,0.7256737,0.9518509,1.2990913,0.3452415,2.0450096c-0.0066566,0.0083714-0.0167122,0.0130386-0.0272141,0.0130386
		c-0.0005493,0-0.0009995,0-0.0014076,0c-0.011055-0.0004063-0.0212479-0.006073-0.0274963-0.0151672l-0.1666679-0.2409382
		l-0.1251678,0.264761c-0.0046692,0.0100555-0.0138702,0.0171547-0.0246468,0.0194283
		C35.280262,32.0237541,35.2779999,32.0240669,35.2755585,32.0240669L35.2755585,32.0240669z"/>
	<path style="fill:#F99898;" d="M32.6704521,33.0234299c-0.0001335,0-0.0001335,0-0.0002747,0
		c-0.1893158,0-0.4039993-0.0472565-0.6559944-0.1445961c-0.0101929-0.0039787-0.0181236-0.0125961-0.0210743-0.0233727
		c-0.0029888-0.0106049-0.0008583-0.0220718,0.0059395-0.0308228l0.1775761-0.232769l-0.2906342-0.0373802
		c-0.0109158-0.0014076-0.020525-0.0077553-0.0260487-0.0173988c-0.0055256-0.0096092-0.0060806-0.021347-0.001688-0.0314064
		c0.2532692-0.581583,0.5729408-0.8451767,1.0363579-0.8546524c0.0002747,0,0.0005455,0,0.0008202,0
		c0.0056648,0,0.0113258,0.0014057,0.0162735,0.003952c0.2177696,0.1149044,0.5157852,0.1852322,0.9108734,0.214922
		c0.0111465,0.0008564,0.021347,0.0071068,0.0272789,0.016716c0.0059395,0.0096092,0.0069389,0.0215168,0.0027122,0.0318489
		C33.5388298,32.6825447,33.1741943,33.0234299,32.6704521,33.0234299L32.6704521,33.0234299z"/>
	<path style="fill:#F99898;" d="M34.5063171,25.0909805c-0.0011177,0-0.0021172-0.0001984-0.0031281-0.0001984
		c-1.3050461-0.0985756-1.7898674-0.5736618-1.7289429-1.6939411c0.0006371-0.0130196,0.0074081-0.0247574,0.0181427-0.0318451
		c0.0067711-0.0046444,0.0147018-0.0069733,0.022789-0.0069733c0.0046425,0,0.0090904,0.000845,0.0135345,0.0023289
		l0.322525,0.1132698l-0.0632477-0.3360176c-0.0024834-0.0127392,0.0013237-0.0257912,0.0100899-0.0353642
		c0.0075722-0.0084152,0.018631-0.0131817,0.0300407-0.0131817c0.0013313,0,0.0028076,0,0.0041275,0.000164
		c0.7364883,0.0709743,1.1442413,0.3305702,1.3223953,0.8418236c0.0021667,0.0066032,0.0028076,0.0137405,0.0016518,0.0205078
		c-0.0490303,0.2828617-0.0196304,0.6389103,0.0896759,1.0883942c0.0031242,0.0128632,0,0.0263977-0.0084076,0.0363331
		C34.5296288,25.0855331,34.5183754,25.0909805,34.5063171,25.0909805L34.5063171,25.0909805z"/>
	<path style="fill:#F99898;" d="M36.5222588,25.4780788c-0.003479,0-0.0068321-0.0006351-0.0100822-0.0020084
		c-0.0076714-0.0031223-0.0134354-0.0097542-0.015419-0.017828c-0.1962929-0.8064709-0.0049515-1.1919003,0.6827927-1.3746529
		c0.0023079-0.0006123,0.0045204-0.0009403,0.0068321-0.0009403c0.0057678,0,0.0113297,0.0020084,0.0159531,0.0055599
		c0.0065041,0.0051556,0.0101852,0.012907,0.0099831,0.0211105l-0.0049515,0.2167435l0.189991-0.1040154
		c0.0038872-0.0022106,0.0081787-0.003252,0.0124969-0.003252c0.0036812,0,0.0073395,0.0007343,0.0106964,0.0023098
		c0.0074692,0.0034542,0.0129242,0.010088,0.0147057,0.0180626c0.1013985,0.4583759,0.024662,0.7552299-0.2486725,0.9625263
		c-0.0035553,0.0027409-0.0076675,0.0044212-0.0120659,0.0050564c-0.1801147,0.0259056-0.3890076,0.1133614-0.6387215,0.2674408
		C36.5317116,25.4767036,36.5269852,25.4780788,36.5222588,25.4780788L36.5222588,25.4780788z"/>
	<path style="fill:#F99898;" d="M42.0810432,22.8070374c-0.0300217,0.1572666-0.1057281,0.2934303-0.2311363,0.4160519
		c-0.0035095,0.0034962-0.0077782,0.0060177-0.0125275,0.0072365c-0.1947403,0.0535297-0.4128342,0.1791477-0.6668091,0.3837681
		c-0.0073242,0.0058403-0.0168457,0.0078411-0.0257721,0.0054188c-0.008934-0.0024242-0.0162354-0.0090427-0.0195961-0.0176449
		c-0.1437187-0.3773098-0.1920471-0.673975-0.1475754-0.9069214c0.0594902-0.3116245,0.2781487-0.528553,0.709137-0.703289
		c0.0083771-0.0034027,0.0178604-0.0026512,0.0257492,0.0020676c0.0077858,0.0046768,0.0129204,0.0126705,0.0138016,0.0217724
		l0.0246773,0.2394848l0.1951294-0.1410637c0.0072975-0.0052738,0.016777-0.0069122,0.0255356-0.0041771
		c0.0086098,0.002739,0.0155792,0.0092945,0.0185547,0.0179367C42.086895,22.3982906,42.1166649,22.6204414,42.0810432,22.8070374
		L42.0810432,22.8070374z"/>
	<path style="fill:#F99898;" d="M39.7063904,29.2293587c-0.0000267,0.0000935-0.0000267,0.0000935-0.0000572,0.0001926
		c-0.039402,0.1326771-0.1172028,0.2732964-0.2378654,0.4296417c-0.0049095,0.0063152-0.0125999,0.0100784-0.0207672,0.0099049
		c-0.0080566-0.0001144-0.0156479-0.0039921-0.0203667-0.0105782l-0.1261711-0.1728973l-0.086689,0.1959038
		c-0.0032539,0.0073586-0.0097046,0.0127716-0.0176125,0.0146351c-0.007885,0.001873-0.0162239-0.0001812-0.0223618-0.0053539
		c-0.3548737-0.2985401-0.4730759-0.5774345-0.3832664-0.9041824c0.0000572-0.0001907,0.0001144-0.0003834,0.0001717-0.000576
		c0.0011787-0.0039711,0.0033417-0.0076427,0.0061569-0.010582c0.1258545-0.1287022,0.2371635-0.3229218,0.3402023-0.5936298
		c0.0029221-0.0076332,0.0094223-0.0134811,0.0173912-0.0156384c0.0079727-0.0021629,0.0165253-0.0003853,0.0228882,0.0047264
		C39.6482277,28.5498276,39.8112373,28.8763218,39.7063904,29.2293587L39.7063904,29.2293587z"/>
	<path style="fill:#F99898;" d="M40.1722527,26.9995747c-0.2059517,0-0.3962631-0.0628128-0.5814514-0.1916943
		c-0.0052643-0.0035896-0.0094795-0.008379-0.0121651-0.014082c-0.1146126-0.2331505-0.325943-0.4784222-0.6457481-0.7499771
		c-0.0091476-0.007843-0.0139732-0.0193901-0.0130653-0.0312576c0.0009079-0.0118732,0.0075111-0.0226917,0.0175705-0.0290127
		c0.4420776-0.2726097,0.8052711-0.4052296,1.1103363-0.4052296c0.4081001,0,0.7349434,0.2239609,1.0596886,0.7263851
		c0.006321,0.0097618,0.0076599,0.0219269,0.0035973,0.0330353c-0.0040283,0.0109653-0.0128899,0.0193825-0.0241776,0.0226917
		l-0.2966499,0.0889473l0.2253113,0.2125263c0.0084229,0.0079479,0.0127792,0.0195313,0.0114326,0.0312557
		c-0.0013809,0.0115414-0.0079842,0.0219269-0.0181847,0.027771C40.690136,26.9083748,40.4166183,26.9995747,40.1722527,26.9995747
		L40.1722527,26.9995747z"/>
</g>
<g>
</g>
<g>
</g>
<g>
</g>
<g>
</g>
<g>
</g>
<g>
</g>
</svg>
