<?xml version="1.0" encoding="utf-8"?>
<!-- Generator: Adobe Illustrator 17.0.0, SVG Export Plug-In . SVG Version: 6.00 Build 0)  -->
<!DOCTYPE svg PUBLIC "-//W3C//DTD SVG 1.1//EN" "http://www.w3.org/Graphics/SVG/1.1/DTD/svg11.dtd">
<svg version="1.1" id="レイヤー_1" xmlns="http://www.w3.org/2000/svg" xmlns:xlink="http://www.w3.org/1999/xlink" x="0px"
	 y="0px" width="64px" height="64px" viewBox="0 0 64 64" style="enable-background:new 0 0 64 64;" xml:space="preserve">
<g>
	<linearGradient id="SVGID_1_" gradientUnits="userSpaceOnUse" x1="21.75" y1="35.125" x2="42.25" y2="35.125">
		<stop  offset="0" style="stop-color:#B2B2B3;stop-opacity:0.3"/>
		<stop  offset="0.2" style="stop-color:#F5F5F5;stop-opacity:0.3"/>
		<stop  offset="0.4" style="stop-color:#F5F5F5;stop-opacity:0.3"/>
		<stop  offset="0.6" style="stop-color:#ECECED;stop-opacity:0.2"/>
		<stop  offset="1" style="stop-color:#9C9C9D;stop-opacity:0.3"/>
	</linearGradient>
	<path style="fill:url(#SVGID_1_);" d="M37,62.25c-1.1914063,0-1.8505859-0.2763672-2.4033203-0.5478516
		C34.1972656,62.0703125,33.7548828,62.25,33.25,62.25h-2.5c-0.5048828,0-0.9472656-0.1796875-1.3461914-0.5478516
		C28.8505859,61.9736328,28.1904297,62.25,27,62.25h-1.25c-1.4335938,0-4-2.6464844-4-5.25v-3.9091797
		c0-1.4921875,0.2133789-2.5927734,0.4609375-3.8662109C22.5625,47.4130859,23,45.1591797,23,40.75
		c0-4.3378906-0.425293-6.5996094-0.7670898-8.4179688c-0.2514648-1.3359375-0.4682617-2.4902344-0.4575195-4.0834961
		c0.0249023-3.7329102,0.9213867-5.7011719,3.7509766-11.3603516C27.9672852,12.0068359,28,8.2866211,28,8.25L28.0004883,8H36v0.25
		c0,0.0366211,0.0332031,3.7568359,2.4736328,8.6381836C41.2216797,22.3837891,42.25,24.4404297,42.25,28.25
		c0,1.5771484-0.2177734,2.7192383-0.4697266,4.0419922C41.4326172,34.1132813,41,36.3798828,41,40.75
		c0,4.4091797,0.4375,6.6630859,0.7890625,8.4746094C42.0361328,50.4980469,42.25,51.5986328,42.25,53.0908203V57
		c0,2.6035156-2.5664063,5.25-4,5.25H37z"/>
	<path style="fill:#595757;" d="M35.7500038,8.25c0,0,0,3.75,2.5,8.75c2.7097588,5.419529,3.75,7.5,3.75,11.25s-1.25,5-1.25,12.5
		s1.25,8.75,1.25,12.3409424c0,2.4431763,0,2.6306763,0,3.9090576c0,2.5-2.5,5-3.75,5c-0.6220245,0-0.6249847,0-0.6249847,0l0,0
		c0,0-0.0030861,0-0.624897,0c-1.2185097,0-1.8429604-0.2970009-2.4525795-0.6014404
		C34.2040405,61.7610512,33.7871742,62,33.2500038,62c-1.25,0-1.25,0-2.5000019,0
		c-0.5371704,0-0.9540386-0.2389488-1.2975502-0.6014404C28.8428326,61.7029991,28.2183819,62,26.9998817,62
		c-1.2501297,0-0.9793091,0-1.2498798,0c-1.25,0-3.75-2.5-3.75-5c0-1.2216187,0-1.4658813,0-3.9090576
		c0-3.5909424,1.25-4.8409424,1.25-12.3409424s-1.2500191-8.75-1.2248592-12.5s1.0151005-5.830471,3.7248592-11.25
		c2.5-5,2.5-8.75,2.5-8.75h3.7500019H35.7500038 M35.7500038,7.75h-3.75h-3.7500019h-0.4987488l-0.0012512,0.4993782
		c-0.0000896,0.0365105-0.0369797,3.706562-2.4472103,8.5270119c-2.7871399,5.5742798-3.7522984,7.6942406-3.7776394,11.4702606
		c-0.010849,1.617569,0.2082195,2.7825089,0.4618893,4.1314087c0.33992,1.8075409,0.7629604,4.0570908,0.7629604,8.3719406
		c0,4.3846817-0.4350586,6.6259918-0.7846394,8.4269104c-0.2497101,1.2864075-0.4653606,2.3973808-0.4653606,3.914032V57
		c0,2.7821884,2.6891098,5.5,4.25,5.5h1.2498798c1.1348286,0,1.8280754-0.250248,2.3648148-0.5020485
		C29.77668,62.331356,30.2412663,62.5,30.7500019,62.5h2.5000019c0.5087433,0,0.97332-0.168644,1.3852997-0.5020447
		C35.172039,62.249752,35.865284,62.5,37.0001221,62.5h0.6249008h0.6249809c1.5608902,0,4.25-2.7178116,4.25-5.5v-3.9090576
		c0-1.5166512-0.2156525-2.6276245-0.4653625-3.914032c-0.3495789-1.8009186-0.7846375-4.0422287-0.7846375-8.4269104
		c0-4.346138,0.4299469-6.6002007,0.7754173-8.4113693c0.2546501-1.3350601,0.4745827-2.4880714,0.4745827-4.0886307
		c0-3.8680191-1.1132317-6.0944901-3.8027611-11.4735489c-2.4102592-4.8205109-2.4471512-8.4905624-2.4472389-8.5270729
		L36.248764,7.7506294L35.7500038,7.75L35.7500038,7.75z"/>
</g>
<g>
	<linearGradient id="SVGID_2_" gradientUnits="userSpaceOnUse" x1="22" y1="39.5" x2="42" y2="39.5">
		<stop  offset="0" style="stop-color:#6E0022;stop-opacity:0.8"/>
		<stop  offset="1" style="stop-color:#6E0022;stop-opacity:0.8"/>
	</linearGradient>
	<path style="fill:url(#SVGID_2_);" d="M42,28.25c0-3.75-1.0402222-5.8305054-3.75-11.25c0,1.25-2.5,1.25-5,0
		c-2.5,1.25-7.5,1.25-7.5,0c-2.7097778,5.4194946-3.699707,7.5-3.7248535,11.25S23.25,33.25,23.25,40.75S22,49.5,22,53.0909424
		C22,55.5341187,22,55.7783813,22,57c0,2.5,2.5,5,3.75,5c0.2705688,0-0.0002441,0,1.2498779,0
		c1.2185059,0,1.8429565-0.2969971,2.4525757-0.6014404C29.7959595,61.7610474,30.2128296,62,30.75,62c1.25,0,1.25,0,2.5,0
		c0.5371704,0,0.9540405-0.2389526,1.2975464-0.6014404C35.1571655,61.7030029,35.7816162,62,37.0001221,62C38.25,62,37,62,38.25,62
		S42,59.5,42,57c0-1.2783813,0-1.4658813,0-3.9090576C42,49.5,40.75,48.25,40.75,40.75S42,32,42,28.25z"/>
	<linearGradient id="SVGID_3_" gradientUnits="userSpaceOnUse" x1="25.75" y1="17.0008411" x2="38.25" y2="17.0008411">
		<stop  offset="0" style="stop-color:#6E0022;stop-opacity:0.7"/>
		<stop  offset="1" style="stop-color:#6E0022;stop-opacity:0.8"/>
	</linearGradient>
	<path style="fill:url(#SVGID_3_);" d="M33.25,17c2.5,1.25,5,1.25,5,0c-0.1015625-0.203064-0.1925049-0.4005127-0.2859497-0.5993042
		C37.2422485,15.8028564,35.2480469,16.0009766,33.25,17z"/>
	<linearGradient id="SVGID_4_" gradientUnits="userSpaceOnUse" x1="25.75" y1="17.000948" x2="33.25" y2="17.000948">
		<stop  offset="0" style="stop-color:#6E0022;stop-opacity:0.8"/>
		<stop  offset="1" style="stop-color:#6E0022;stop-opacity:0.7"/>
	</linearGradient>
	<path style="fill:url(#SVGID_4_);" d="M33.25,17c-2.239563-1.119751-6.4741211-1.2332153-7.3345337-0.3467407
		C25.859436,16.7693481,25.8087158,16.8825073,25.75,17C25.75,18.25,30.75,18.25,33.25,17z"/>
</g>
<g>
	<radialGradient id="SVGID_5_" cx="33.0729179" cy="18.8854179" r="0.40625" gradientUnits="userSpaceOnUse">
		<stop  offset="0.6637168" style="stop-color:#FF80A5;stop-opacity:0"/>
		<stop  offset="0.9734513" style="stop-color:#FF80A6;stop-opacity:0.6"/>
	</radialGradient>
	<circle style="fill:url(#SVGID_5_);" cx="33.0729179" cy="18.8854179" r="0.40625"/>
	<radialGradient id="SVGID_6_" cx="33.40625" cy="17.635416" r="0.28125" gradientUnits="userSpaceOnUse">
		<stop  offset="0.6637168" style="stop-color:#FF80A5;stop-opacity:0"/>
		<stop  offset="0.9734513" style="stop-color:#FF80A6;stop-opacity:0.6"/>
	</radialGradient>
	<circle style="fill:url(#SVGID_6_);" cx="33.40625" cy="17.6354179" r="0.28125"/>
	<radialGradient id="SVGID_7_" cx="34.875" cy="18.875" r="0.25" gradientUnits="userSpaceOnUse">
		<stop  offset="0.6637168" style="stop-color:#FF80A5;stop-opacity:0"/>
		<stop  offset="0.9734513" style="stop-color:#FF80A6;stop-opacity:0.6"/>
	</radialGradient>
	<circle style="fill:url(#SVGID_7_);" cx="34.875" cy="18.875" r="0.25"/>
	<radialGradient id="SVGID_8_" cx="35.9166679" cy="17.270834" r="0.4375" gradientUnits="userSpaceOnUse">
		<stop  offset="0.6637168" style="stop-color:#FF80A5;stop-opacity:0"/>
		<stop  offset="0.9734513" style="stop-color:#FF80A6;stop-opacity:0.6"/>
	</radialGradient>
	<circle style="fill:url(#SVGID_8_);" cx="35.9166679" cy="17.2708321" r="0.4375"/>
	<radialGradient id="SVGID_9_" cx="30.9375" cy="18.3125" r="0.4375" gradientUnits="userSpaceOnUse">
		<stop  offset="0.6637168" style="stop-color:#FF80A5;stop-opacity:0"/>
		<stop  offset="0.9734513" style="stop-color:#FF80A6;stop-opacity:0.6"/>
	</radialGradient>
	<circle style="fill:url(#SVGID_9_);" cx="30.9375" cy="18.3125" r="0.4375"/>
	<radialGradient id="SVGID_10_" cx="25.885416" cy="18.0729179" r="0.40625" gradientUnits="userSpaceOnUse">
		<stop  offset="0.6637168" style="stop-color:#FF80A5;stop-opacity:0"/>
		<stop  offset="0.9734513" style="stop-color:#FF80A6;stop-opacity:0.6"/>
	</radialGradient>
	<circle style="fill:url(#SVGID_10_);" cx="25.885416" cy="18.0729179" r="0.40625"/>
	<radialGradient id="SVGID_11_" cx="28.166666" cy="18.75" r="0.3541667" gradientUnits="userSpaceOnUse">
		<stop  offset="0.6637168" style="stop-color:#FF80A5;stop-opacity:0"/>
		<stop  offset="0.9734513" style="stop-color:#FF80A6;stop-opacity:0.6"/>
	</radialGradient>
	<circle style="fill:url(#SVGID_11_);" cx="28.166666" cy="18.75" r="0.3541667"/>
	<radialGradient id="SVGID_12_" cx="29.395834" cy="19.5625" r="0.25" gradientUnits="userSpaceOnUse">
		<stop  offset="0.6637168" style="stop-color:#FF80A5;stop-opacity:0"/>
		<stop  offset="0.9734513" style="stop-color:#FF80A6;stop-opacity:0.6"/>
	</radialGradient>
	<circle style="fill:url(#SVGID_12_);" cx="29.395834" cy="19.5625" r="0.25"/>
	<radialGradient id="SVGID_13_" cx="26.9270821" cy="19.3645821" r="0.28125" gradientUnits="userSpaceOnUse">
		<stop  offset="0.6637168" style="stop-color:#FF80A5;stop-opacity:0"/>
		<stop  offset="0.9734513" style="stop-color:#FF80A6;stop-opacity:0.6"/>
	</radialGradient>
	<circle style="fill:url(#SVGID_13_);" cx="26.9270821" cy="19.3645821" r="0.28125"/>
	<radialGradient id="SVGID_14_" cx="38.21875" cy="18.322916" r="0.28125" gradientUnits="userSpaceOnUse">
		<stop  offset="0.6637168" style="stop-color:#FF80A5;stop-opacity:0"/>
		<stop  offset="0.9734513" style="stop-color:#FF80A6;stop-opacity:0.6"/>
	</radialGradient>
	<circle style="fill:url(#SVGID_14_);" cx="38.21875" cy="18.3229179" r="0.28125"/>
</g>
<g>
	<linearGradient id="SVGID_15_" gradientUnits="userSpaceOnUse" x1="21.7750072" y1="31.375" x2="42.25" y2="31.375">
		<stop  offset="0" style="stop-color:#231815;stop-opacity:0.5"/>
		<stop  offset="1" style="stop-color:#231815;stop-opacity:0.5"/>
	</linearGradient>
	<path style="fill:url(#SVGID_15_);" d="M22.9814453,42.25l0.0053711-0.2548828C22.9951172,41.5986328,23,41.1865234,23,40.75
		c0-4.3378906-0.425293-6.5996094-0.7670898-8.4179688c-0.2514648-1.3359375-0.4682617-2.4902344-0.4575195-4.0834961
		c0.0175781-2.644043,0.4838867-4.4916992,1.9194336-7.6035156L23.7617188,20.5h16.484375l0.0673828,0.1445313
		C41.5976563,23.4018555,42.25,25.3354492,42.25,28.25c0,1.5771484-0.2177734,2.7192383-0.4697266,4.0419922
		C41.4326172,34.1132813,41,36.3798828,41,40.75c0,0.4365234,0.0048828,0.8496094,0.0126953,1.2451172L41.0175781,42.25H22.9814453z
		"/>
	<path style="fill:#717071;" d="M40.0869102,20.75C41.4415283,23.65839,42,25.5114708,42,28.25c0,3.75-1.25,5-1.25,12.5
		c0,0.4389,0.0050697,0.8522301,0.0131187,1.25H23.2368793C23.2449303,41.6022301,23.25,41.1889,23.25,40.75
		c0-7.5-1.25-8.75-1.2248497-12.5c0.0183697-2.7385292,0.5549889-4.59161,1.8964806-7.5H40.0869102 M40.4056015,20.25h-0.3186913
		H23.9216309h-0.3200016l-0.1340294,0.2905807c-1.4524403,3.1489182-1.9244289,5.021431-1.94244,7.7060699
		c-0.010849,1.6175575,0.2082195,2.7824974,0.4618893,4.1313896C22.3269596,34.1855927,22.75,36.4351425,22.75,40.75
		c0,0.4353485-0.0050297,0.8453293-0.0130196,1.2398796L22.7266598,42.5h0.5102196h17.5262394h0.5102196l-0.0103188-0.5101204
		C41.2550316,41.5953293,41.25,41.1853485,41.25,40.75c0-4.346138,0.4299507-6.6002007,0.7754211-8.4113693
		C42.2800713,31.0035706,42.5,29.8505592,42.5,28.25c0-2.9614792-0.6599998-4.92033-1.9598389-7.7111092L40.4056015,20.25
		L40.4056015,20.25z"/>
</g>
<path style="fill:#868686;" d="M31.7983837,25.633358c0.2010479,0,0.4067516,0.0241432,0.6128063,0.0747147
	c0.8119507,0.1992798,1.4222488,0.7621384,1.6772499,1.439209c0.367382-0.2353897,0.8122215-0.3706284,1.2835693-0.3706284
	c0.1964645,0,0.3976173,0.0235176,0.5995522,0.0730782c1.2456589,0.3057289,2.0327072,1.4625206,1.7572594,2.5841713
	c-0.1052208,0.4286499-0.3519325,0.7883301-0.6844521,1.0541382c0.5759315,0.5162888,0.8671303,1.2700806,0.6844521,2.0140305
	c-0.2293205,0.9344063-1.1247902,1.5405579-2.1380348,1.5405579c-0.1169968,0-0.2356567-0.008091-0.3549461-0.0246887
	c0.0071411,0.1754799-0.0010986,0.3524208-0.0446205,0.5296135c-0.2296638,0.9357376-1.1266937,1.5509644-2.1415596,1.5509644
	c-0.2009544,0-0.4065323-0.0241241-0.6124611-0.0746574c-0.0988197-0.0242271-0.18927-0.0625-0.2819901-0.096981
	c0.0247192,0.2192421,0.0227127,0.4426308-0.0321579,0.6661415c-0.229723,0.9357414-1.1267223,1.5509644-2.1415749,1.5509644
	c-0.2009525,0-0.4065285-0.0241203-0.6124554-0.0746536c-1.2459717-0.3056602-2.03302-1.4627609-1.7575703-2.5844116
	c0.1052895-0.4286499,0.3519897-0.788269,0.6844501-1.0540085c-0.5759907-0.5163612-0.8671303-1.2702713-0.6844501-2.0141602
	c0.0577393-0.2349281,0.1654091-0.4439087,0.2985191-0.6337891c-0.9863205-0.4397621-1.5628605-1.4504433-1.3212891-2.434391
	c0.2299137-0.9357262,1.1266098-1.550808,2.1415005-1.5507889c0.2010479,0.0000038,0.4067841,0.024147,0.6128387,0.0747185
	c0.1026001,0.0251999,0.1968994,0.0644493,0.2929707,0.1007004c-0.0457211-0.2574387-0.0442505-0.523922,0.0208702-0.7890587
	C29.8867664,26.2484665,30.7834988,25.6333504,31.7983837,25.633358 M31.7983799,25.3833618
	c-1.1519394-0.0000114-2.1324005,0.7159691-2.3843002,1.7411308c-0.0394878,0.1607742-0.0593834,0.3258743-0.0596485,0.4938354
	c-0.2060661-0.0468254-0.415802-0.0705376-0.6242409-0.0705452c-1.1519508-0.0000229-2.1324005,0.7159576-2.3842907,1.7411385
	c-0.244545,0.9960594,0.2579403,2.0460396,1.2084503,2.5932198c-0.0845814,0.1559525-0.1458683,0.3129845-0.1856804,0.4749374
	c-0.178381,0.7264099,0.0317688,1.4807816,0.5638962,2.0652161c-0.2777939,0.282093-0.4708939,0.6243362-0.5638962,1.0029869
	c-0.1503506,0.6122093-0.0280704,1.2509003,0.3443108,1.7984276c0.3667793,0.5393028,0.9337502,0.9258423,1.5964794,1.0884247
	c0.2213306,0.054306,0.4474392,0.0818481,0.67202,0.0818481c1.1521702,0,2.1326599-0.7160721,2.3843613-1.7413597
	c0.0295601-0.1204071,0.0470543-0.2451668,0.0525894-0.3762627c0.2082596,0.0478821,0.4204254,0.0721512,0.6312294,0.0721512
	c1.1522293,0,2.1327209-0.7160797,2.3843498-1.7413712c0.0248146-0.1010132,0.0408897-0.2049179,0.048645-0.316597
	c0.0361748,0.0013962,0.0722237,0.0020905,0.1081352,0.0020905c1.1516685,0,2.1306992-0.7117996,2.3808289-1.7309723
	c0.1783447-0.7262993-0.0318069-1.4806175-0.5639153-2.0650063c0.2778625-0.2821732,0.4709549-0.6244583,0.5639076-1.0031548
	c0.1503296-0.6121368,0.0280571-1.2507782-0.3442802-1.7982483c-0.3667221-0.5391808-0.9335823-0.9256897-1.59618-1.0883102
	c-0.2170601-0.0532799-0.4388313-0.0802917-0.6591415-0.0802917c-0.4105759,0-0.8089676,0.0921974-1.1674271,0.2685738
	c-0.3400917-0.6544762-0.9699478-1.1424675-1.7338028-1.3299408C32.2493095,25.410923,32.0230789,25.3833618,31.7983799,25.3833618
	L31.7983799,25.3833618z"/>
<g>
	<g>
		
			<linearGradient id="SVGID_16_" gradientUnits="userSpaceOnUse" x1="33.1998672" y1="12.722249" x2="35.5582275" y2="16.1168652" gradientTransform="matrix(0.9712 0.2384 -0.2384 0.9712 2.0251 5.704)">
			<stop  offset="0" style="stop-color:#42009F"/>
			<stop  offset="1" style="stop-color:#14001F"/>
		</linearGradient>
		<path style="fill:url(#SVGID_16_);" d="M34.1684799,28.2922268c-0.2751579,1.1210461-1.5081062,1.7820854-2.7540169,1.4763584
			c-1.2459412-0.3056965-2.0329971-1.4628029-1.7575722-2.5844383c0.275425-1.1210461,1.5081062-1.781908,2.7543144-1.4760647
			C33.6568489,26.0138092,34.4439087,27.1705914,34.1684799,28.2922268z"/>
		
			<ellipse transform="matrix(0.9412383 -0.3377432 0.3377432 0.9412383 -7.0998034 12.0525761)" style="fill:#FFFFFF;" cx="31.0872517" cy="26.4299736" rx="0.4606904" ry="0.3055781"/>
		
			<linearGradient id="SVGID_17_" gradientUnits="userSpaceOnUse" x1="34.210556" y1="14.2896481" x2="35.5328789" y2="16.7913399" gradientTransform="matrix(0.9712 0.2384 -0.2384 0.9712 2.0251 5.704)">
			<stop  offset="0" style="stop-color:#ECDFFF;stop-opacity:0"/>
			<stop  offset="1" style="stop-color:#6E5FFF"/>
		</linearGradient>
		<path style="opacity:0.89;fill:url(#SVGID_17_);" d="M31.8063965,29.6520786c0,0-1.9251137-0.1044006-1.9934826-1.9245529
			l4.0028553-0.4173317C33.8157692,27.310194,34.5361977,29.6226635,31.8063965,29.6520786z"/>
		<path style="opacity:0.2;fill:#FFFFFF;" d="M30.3239841,27.6718559c0.3437939,0.5929642,1.839468,1.6200066,1.5741425,1.7737274
			c-0.2644691,0.1540146-1.5331802-0.2131405-1.8766804-0.8058109c-0.3437939-0.5935555-0.24226-1.7033501,0.0233612-1.857069
			C30.310133,26.6289825,29.980484,27.0783005,30.3239841,27.6718559z"/>
	</g>
	<g>
		
			<linearGradient id="SVGID_18_" gradientUnits="userSpaceOnUse" x1="36.9296112" y1="12.9822502" x2="39.2879715" y2="16.3768673" gradientTransform="matrix(0.9712 0.2384 -0.2384 0.9712 2.0251 5.704)">
			<stop  offset="0" style="stop-color:#42009F"/>
			<stop  offset="1" style="stop-color:#14001F"/>
		</linearGradient>
		<path style="fill:url(#SVGID_18_);" d="M37.7288246,29.4339123c-0.2751579,1.1210461-1.5081062,1.7820854-2.7540169,1.4763584
			c-1.2459412-0.3056965-2.0329971-1.4628029-1.7575722-2.5844402c0.275425-1.1210461,1.5081062-1.781908,2.7543144-1.4760628
			C37.2171936,27.1554947,38.0042496,28.3122749,37.7288246,29.4339123z"/>
		
			<ellipse transform="matrix(0.9412383 -0.3377432 0.3377432 0.9412383 -7.2761879 13.3221455)" style="fill:#FFFFFF;" cx="34.6475945" cy="27.5716591" rx="0.4606904" ry="0.3055781"/>
		
			<linearGradient id="SVGID_19_" gradientUnits="userSpaceOnUse" x1="37.9403" y1="14.5496502" x2="39.2626228" y2="17.051342" gradientTransform="matrix(0.9712 0.2384 -0.2384 0.9712 2.0251 5.704)">
			<stop  offset="0" style="stop-color:#ECDFFF;stop-opacity:0"/>
			<stop  offset="1" style="stop-color:#6E5FFF"/>
		</linearGradient>
		<path style="opacity:0.89;fill:url(#SVGID_19_);" d="M35.3667412,30.7937622c0,0-1.9251137-0.1043987-1.9934845-1.9245529
			l4.0028534-0.4173317C37.3761101,28.4518776,38.0965424,30.7643471,35.3667412,30.7937622z"/>
		<path style="opacity:0.2;fill:#FFFFFF;" d="M33.8843269,28.8135395c0.3437958,0.5929661,1.8394699,1.6200085,1.5741425,1.7737274
			c-0.2644691,0.1540146-1.5331802-0.2131405-1.8766785-0.805809c-0.3437958-0.5935574-0.24226-1.7033501,0.0233612-1.8570709
			C33.8704758,27.770668,33.5408287,28.2199841,33.8843269,28.8135395z"/>
	</g>
	<g>
		
			<linearGradient id="SVGID_20_" gradientUnits="userSpaceOnUse" x1="30.7362003" y1="15.5555992" x2="33.0945625" y2="18.9502144" gradientTransform="matrix(0.9712 0.2384 -0.2384 0.9712 2.0251 5.704)">
			<stop  offset="0" style="stop-color:#42009F"/>
			<stop  offset="1" style="stop-color:#14001F"/>
		</linearGradient>
		<path style="fill:url(#SVGID_20_);" d="M31.1002998,30.4566383c-0.2751598,1.1210461-1.5081062,1.7820854-2.7540188,1.4763603
			c-1.2459412-0.3056984-2.0329971-1.4628029-1.7575722-2.5844402c0.275425-1.1210461,1.5081062-1.781908,2.7543144-1.4760628
			C30.5886688,28.1782207,31.3757248,29.3350029,31.1002998,30.4566383z"/>
		
			<ellipse transform="matrix(0.9412383 -0.3377432 0.3377432 0.9412383 -8.0111103 11.1435032)" style="fill:#FFFFFF;" cx="28.0190697" cy="28.5943871" rx="0.4606904" ry="0.3055781"/>
		
			<linearGradient id="SVGID_21_" gradientUnits="userSpaceOnUse" x1="31.7468891" y1="17.1229992" x2="33.0692139" y2="19.6246891" gradientTransform="matrix(0.9712 0.2384 -0.2384 0.9712 2.0251 5.704)">
			<stop  offset="0" style="stop-color:#ECDFFF;stop-opacity:0"/>
			<stop  offset="1" style="stop-color:#6E5FFF"/>
		</linearGradient>
		<path style="opacity:0.89;fill:url(#SVGID_21_);" d="M28.7382145,31.8164902c0,0-1.9251137-0.1044006-1.9934826-1.9245529
			l4.0028553-0.4173317C30.7475872,29.4746056,31.4680157,31.787075,28.7382145,31.8164902z"/>
		<path style="opacity:0.2;fill:#FFFFFF;" d="M27.2558022,29.8362675c0.3437939,0.5929642,1.839468,1.6200066,1.5741425,1.7737274
			c-0.2644691,0.1540146-1.5331802-0.2131405-1.8766804-0.8058109c-0.3437939-0.5935555-0.2422581-1.7033501,0.0233612-1.857069
			C27.241951,28.793396,26.912302,29.242712,27.2558022,29.8362675z"/>
	</g>
	<g>
		
			<linearGradient id="SVGID_22_" gradientUnits="userSpaceOnUse" x1="34.4375877" y1="15.7000761" x2="36.7959518" y2="19.0946922" gradientTransform="matrix(0.9712 0.2384 -0.2384 0.9712 2.0251 5.704)">
			<stop  offset="0" style="stop-color:#42009F"/>
			<stop  offset="1" style="stop-color:#14001F"/>
		</linearGradient>
		<path style="fill:url(#SVGID_22_);" d="M34.6606445,31.4793663c-0.2751617,1.121048-1.5081062,1.7820854-2.7540188,1.4763603
			c-1.2459431-0.3056984-2.032999-1.4628048-1.7575741-2.5844421c0.2754269-1.1210461,1.5081081-1.7819061,2.7543144-1.4760628
			C34.1490135,29.2009487,34.9360695,30.357729,34.6606445,31.4793663z"/>
		
			<ellipse transform="matrix(0.9412383 -0.3377432 0.3377432 0.9412383 -8.1473179 12.4060822)" style="fill:#FFFFFF;" cx="31.5794125" cy="29.617115" rx="0.4606904" ry="0.3055781"/>
		
			<linearGradient id="SVGID_23_" gradientUnits="userSpaceOnUse" x1="35.4482765" y1="17.2674751" x2="36.7706032" y2="19.7691669" gradientTransform="matrix(0.9712 0.2384 -0.2384 0.9712 2.0251 5.704)">
			<stop  offset="0" style="stop-color:#ECDFFF;stop-opacity:0"/>
			<stop  offset="1" style="stop-color:#6E5FFF"/>
		</linearGradient>
		<path style="opacity:0.89;fill:url(#SVGID_23_);" d="M32.2985573,32.8392181c0,0-1.9251118-0.1044006-1.9934807-1.9245529
			l4.0028534-0.4173317C34.30793,30.4973335,35.0283585,32.809803,32.2985573,32.8392181z"/>
		<path style="opacity:0.2;fill:#FFFFFF;" d="M30.8161449,30.8589954c0.3437958,0.5929642,1.839468,1.6200085,1.5741444,1.7737255
			c-0.2644691,0.1540146-1.5331821-0.2131386-1.8766804-0.805809c-0.3437939-0.5935555-0.24226-1.7033501,0.0233612-1.857069
			C30.8022938,29.8161221,30.4726467,30.2654381,30.8161449,30.8589954z"/>
	</g>
	<g>
		
			<linearGradient id="SVGID_24_" gradientUnits="userSpaceOnUse" x1="37.6610184" y1="15.9618778" x2="40.0193787" y2="19.3564949" gradientTransform="matrix(0.9712 0.2384 -0.2384 0.9712 2.0251 5.704)">
			<stop  offset="0" style="stop-color:#42009F"/>
			<stop  offset="1" style="stop-color:#14001F"/>
		</linearGradient>
		<path style="fill:url(#SVGID_24_);" d="M37.7288246,32.5020943c-0.2751579,1.1210442-1.5081062,1.7820854-2.7540169,1.4763565
			c-1.2459412-0.3056946-2.0329971-1.4628029-1.7575722-2.5844383c0.275425-1.1210461,1.5081062-1.781908,2.7543144-1.4760628
			C37.2171936,30.2236767,38.0042496,31.3804569,37.7288246,32.5020943z"/>
		
			<ellipse transform="matrix(0.9412383 -0.3377432 0.3377432 0.9412383 -8.3124466 13.5024366)" style="fill:#FFFFFF;" cx="34.6475945" cy="30.639843" rx="0.4606904" ry="0.3055781"/>
		
			<linearGradient id="SVGID_25_" gradientUnits="userSpaceOnUse" x1="38.6717072" y1="17.5292778" x2="39.99403" y2="20.0309677" gradientTransform="matrix(0.9712 0.2384 -0.2384 0.9712 2.0251 5.704)">
			<stop  offset="0" style="stop-color:#ECDFFF;stop-opacity:0"/>
			<stop  offset="1" style="stop-color:#6E5FFF"/>
		</linearGradient>
		<path style="opacity:0.89;fill:url(#SVGID_25_);" d="M35.3667412,33.8619461c0,0-1.9251137-0.1044006-1.9934845-1.9245548
			l4.0028534-0.4173317C37.3761101,31.5200596,38.0965424,33.832531,35.3667412,33.8619461z"/>
		<path style="opacity:0.2;fill:#FFFFFF;" d="M33.8843269,31.8817215c0.3437958,0.5929642,1.8394699,1.6200066,1.5741425,1.7737274
			c-0.2644691,0.1540146-1.5331802-0.2131386-1.8766785-0.805809c-0.3437958-0.5935555-0.24226-1.7033501,0.0233612-1.8570709
			C33.8704758,30.83885,33.5408287,31.288166,33.8843269,31.8817215z"/>
	</g>
	<g>
		
			<linearGradient id="SVGID_26_" gradientUnits="userSpaceOnUse" x1="32.4608192" y1="18.2914238" x2="34.8191795" y2="21.6860409" gradientTransform="matrix(0.9712 0.2384 -0.2384 0.9712 2.0251 5.704)">
			<stop  offset="0" style="stop-color:#42009F"/>
			<stop  offset="1" style="stop-color:#14001F"/>
		</linearGradient>
		<path style="fill:url(#SVGID_26_);" d="M32.1230278,33.5248222c-0.2751598,1.1210442-1.5081062,1.7820854-2.7540188,1.4763565
			c-1.2459412-0.3056946-2.032999-1.4628029-1.7575722-2.5844383c0.275425-1.1210461,1.5081062-1.781908,2.7543125-1.4760628
			C31.6113968,31.2464027,32.3984528,32.403183,32.1230278,33.5248222z"/>
		
			<ellipse transform="matrix(0.9412383 -0.3377432 0.3377432 0.9412383 -8.9872704 11.6692142)" style="fill:#FFFFFF;" cx="29.0417976" cy="31.6625671" rx="0.4606904" ry="0.3055781"/>
		
			<linearGradient id="SVGID_27_" gradientUnits="userSpaceOnUse" x1="33.471508" y1="19.8588238" x2="34.7938309" y2="22.3605137" gradientTransform="matrix(0.9712 0.2384 -0.2384 0.9712 2.0251 5.704)">
			<stop  offset="0" style="stop-color:#ECDFFF;stop-opacity:0"/>
			<stop  offset="1" style="stop-color:#6E5FFF"/>
		</linearGradient>
		<path style="opacity:0.89;fill:url(#SVGID_27_);" d="M29.7609425,34.8846703c0,0-1.9251137-0.1043968-1.9934826-1.9245529
			l4.0028534-0.4173317C31.7703133,32.5427856,32.4907455,34.8552551,29.7609425,34.8846703z"/>
		<path style="opacity:0.2;fill:#FFFFFF;" d="M28.2785301,32.9044495c0.3437939,0.5929642,1.8394661,1.6200066,1.5741425,1.7737274
			c-0.2644691,0.1540146-1.5331802-0.2131424-1.8766804-0.805809c-0.3437939-0.5935555-0.24226-1.7033501,0.0233612-1.8570709
			C28.264679,31.861578,27.93503,32.310894,28.2785301,32.9044495z"/>
	</g>
	<g>
		
			<linearGradient id="SVGID_28_" gradientUnits="userSpaceOnUse" x1="35.6842499" y1="18.5532246" x2="38.0426102" y2="21.9478416" gradientTransform="matrix(0.9712 0.2384 -0.2384 0.9712 2.0251 5.704)">
			<stop  offset="0" style="stop-color:#42009F"/>
			<stop  offset="1" style="stop-color:#14001F"/>
		</linearGradient>
		<path style="fill:url(#SVGID_28_);" d="M35.1912079,34.5475502c-0.2751579,1.1210442-1.5081062,1.7820816-2.7540169,1.4763565
			c-1.2459412-0.3056984-2.032999-1.4628029-1.7575722-2.5844383c0.275425-1.121048,1.5081062-1.781908,2.7543144-1.4760647
			C34.6795769,32.2691307,35.4666328,33.4259109,35.1912079,34.5475502z"/>
		
			<ellipse transform="matrix(0.9412383 -0.3377432 0.3377432 0.9412383 -9.1523981 12.7655687)" style="fill:#FFFFFF;" cx="32.1099777" cy="32.6852951" rx="0.4606904" ry="0.3055781"/>
		
			<linearGradient id="SVGID_29_" gradientUnits="userSpaceOnUse" x1="36.6949348" y1="20.1206245" x2="38.0172615" y2="22.6223164" gradientTransform="matrix(0.9712 0.2384 -0.2384 0.9712 2.0251 5.704)">
			<stop  offset="0" style="stop-color:#ECDFFF;stop-opacity:0"/>
			<stop  offset="1" style="stop-color:#6E5FFF"/>
		</linearGradient>
		<path style="opacity:0.89;fill:url(#SVGID_29_);" d="M32.8291245,35.9073982c0,0-1.9251137-0.1043968-1.9934826-1.9245529
			l4.0028553-0.4173317C34.8384972,33.5655136,35.5589256,35.8779831,32.8291245,35.9073982z"/>
		<path style="opacity:0.2;fill:#FFFFFF;" d="M31.3467102,33.9271774c0.3437958,0.5929642,1.8394699,1.6200066,1.5741425,1.7737274
			c-0.2644691,0.1540146-1.5331783-0.2131424-1.8766785-0.8058128c-0.3437939-0.5935555-0.24226-1.7033501,0.0233612-1.8570671
			C31.3328609,32.884304,31.003212,33.333622,31.3467102,33.9271774z"/>
	</g>
	<g>
		
			<linearGradient id="SVGID_30_" gradientUnits="userSpaceOnUse" x1="33.1922264" y1="21.2710514" x2="35.5505867" y2="24.6656666" gradientTransform="matrix(0.9712 0.2384 -0.2384 0.9712 2.0251 5.704)">
			<stop  offset="0" style="stop-color:#42009F"/>
			<stop  offset="1" style="stop-color:#14001F"/>
		</linearGradient>
		<path style="fill:url(#SVGID_30_);" d="M32.1230278,36.5930023c-0.2751598,1.121048-1.5081062,1.7820854-2.7540188,1.4763603
			c-1.2459412-0.3056984-2.032999-1.4628029-1.7575722-2.5844421c0.275425-1.1210442,1.5081062-1.7819061,2.7543125-1.4760628
			C31.6113968,34.3145866,32.3984528,35.4713669,32.1230278,36.5930023z"/>
		
			<ellipse transform="matrix(0.9412383 -0.3377432 0.3377432 0.9412383 -10.0235281 11.8495064)" style="fill:#FFFFFF;" cx="29.0417976" cy="34.730751" rx="0.4606904" ry="0.3055781"/>
		
			<linearGradient id="SVGID_31_" gradientUnits="userSpaceOnUse" x1="34.2029152" y1="22.8384514" x2="35.525238" y2="25.3401413" gradientTransform="matrix(0.9712 0.2384 -0.2384 0.9712 2.0251 5.704)">
			<stop  offset="0" style="stop-color:#ECDFFF;stop-opacity:0"/>
			<stop  offset="1" style="stop-color:#6E5FFF"/>
		</linearGradient>
		<path style="opacity:0.89;fill:url(#SVGID_31_);" d="M29.7609425,37.9528542c0,0-1.9251137-0.1044006-1.9934826-1.9245529
			l4.0028534-0.4173317C31.7703133,35.6109695,32.4907455,37.923439,29.7609425,37.9528542z"/>
		<path style="opacity:0.2;fill:#FFFFFF;" d="M28.2785301,35.9726295c0.3437939,0.592968,1.8394661,1.6200104,1.5741425,1.7737274
			c-0.2644691,0.1540146-1.5331802-0.2131386-1.8766804-0.805809c-0.3437939-0.5935555-0.24226-1.7033501,0.0233612-1.8570709
			C28.264679,34.92976,27.93503,35.3790741,28.2785301,35.9726295z"/>
	</g>
</g>
<g>
	<path style="fill:#FFA8C9;" d="M28.7705593,23.7257843c-0.4122715,0.0055065-0.4708767,0.2649517-0.4732838,0.5679035
		c-0.0036507,0.4599438-0.0021858,0.920208-0.0220795,1.3795071c-0.0040607,0.0937576-0.0691223,0.2227173-0.1461887,0.269865
		c-1.443285,0.8829823-3.2606773,0.106802-3.5609341-1.5354576c-0.1681232-0.9195614,0.061203-1.7554626,0.7210064-2.4380188
		c0.5760384-0.5959053,1.2799797-0.7228451,2.0609398-0.4915504c0.0824413,0.024416,0.1680889,0.0469933,0.2424107,0.0881786
		c0.2388706,0.1323719,0.4342175,0.1611805,0.490427-0.2184315c0.0250359,0.0117092,0.0500736,0.0234184,0.0751095,0.0351276
		c0.0398998,0.4829807,0.0797997,0.9659595,0.1196976,1.4489403c-0.0280552,0.0110931-0.0561104,0.0221863-0.0841656,0.0332813
		c-0.067421-0.1510029-0.1332054-0.3027611-0.2025623-0.4528694c-0.2250404-0.4870605-0.6061783-0.7664509-1.140831-0.7908535
		c-0.51474-0.0234928-0.9318562,0.1844997-1.2175446,0.6253338c-0.0571384,0.0881691-0.1146278,0.1786861-0.1539249,0.275444
		c-0.3837013,0.9447498-0.3521042,1.8742218,0.1539497,2.7637196c0.3819866,0.671423,1.1165638,0.9066048,1.8063221,0.6230202
		c0.178339-0.0733204,0.2744942-0.165802,0.2622833-0.3814106c-0.020565-0.3631401-0.005518-0.7282925-0.0056438-1.092598
		c-0.0001888-0.549593-0.0165195-0.5733128-0.5058193-0.785553c0.5142307,0,1.0284615,0,1.5426922,0
		C28.7451324,23.6748371,28.7578468,23.7003098,28.7705593,23.7257843z"/>
	<path style="fill:#FFA8C9;" d="M34.0230408,38.1749382c0-0.3255806,0.010601-0.6218567-0.0025024-0.9170799
		c-0.0192909-0.4346695-0.0320091-0.4403419-0.4695778-0.54459c0.3023758-0.140686,0.6047554-0.2813759,0.9631882-0.448143
		c0.0100822,0.1750908,0.0207291,0.2749062,0.0208282,0.3747292c0.0011635,1.1797829,0.000679,2.3595581,0.0009003,3.539341
		c0.0000191,0.0958824-0.0007439,0.1918945,0.0036545,0.2876282c0.0178604,0.3887596,0.053257,0.4220543,0.4255562,0.4091148
		c-0.0757179,0.1651344-0.5994186,0.4306526-0.9201698,0.4592552c-0.0107269-0.110775-0.0214806-0.221859-0.0354767-0.3664055
		c-0.0812874,0.0599251-0.1474419,0.1068573-0.211647,0.1563187c-0.4405098,0.3393211-0.9621925,0.2902336-1.3364143-0.1263275
		c-0.6517754-0.7255173-0.4999752-2.2237129,0.2841454-2.8043671
		C33.1093254,37.9250145,33.4812965,37.9129791,34.0230408,38.1749382z M34.0261116,39.7938995
		c0-0.2293587,0.0252571-0.4623642-0.0071602-0.6870461c-0.0318718-0.2209091-0.0815773-0.4584389-0.1958885-0.6440735
		c-0.2065964-0.3355103-0.5770493-0.3459625-0.848877-0.0654297c-0.5049477,0.5211182-0.4492874,1.9019737,0.0985298,2.3807602
		c0.0637321,0.0557022,0.137085,0.1070518,0.2147942,0.1389542c0.3505592,0.1439209,0.734787-0.1144333,0.7383385-0.492424
		C34.0278244,40.2144127,34.0262032,40.0041466,34.0261116,39.7938995z"/>
	<path style="fill:#FFA8C9;" d="M34.7302094,26.0472164c0,0.4090843-0.0078926,0.7800159,0.0031548,1.150383
		c0.0060005,0.2011852,0.0349693,0.2143021,0.5226059,0.4603004c-0.5501709,0-1.0250702,0-1.5031853,0
		c0.0043564-0.0343208,0.001976-0.0666122,0.009716-0.0692501c0.4484024-0.1529408,0.4530869-0.152689,0.4545975-0.6391888
		c0.0031586-1.0164413,0.0034103-2.0329075-0.0001411-3.049345c-0.0016708-0.4784718-0.0142212-0.4872475-0.4721909-0.594574
		c0.3066254-0.1390285,0.6132545-0.2780552,0.9700356-0.4398232c0,0.252636,0,0.4384861,0,0.6243362
		c0.0202255,0.0087509,0.0404549,0.0174999,0.0606804,0.0262508c0.063591-0.0865841,0.1237946-0.175909,0.1913261-0.2592983
		c0.4038582-0.4986935,1.0060806-0.4836445,1.3844566,0.0331402c0.5134087,0.7012081,0.4322968,1.9949436-0.1647224,2.6273899
		C35.8018532,26.3250504,35.3154793,26.3797092,34.7302094,26.0472164z M36.166935,24.9167156
		c-0.0392075-0.5034924-0.0561256-0.9196987-0.3281288-1.2629471c-0.1442986-0.1820927-0.3279343-0.3030777-0.5737762-0.226038
		c-0.2704391,0.0847473-0.5046196,0.2568684-0.5263939,0.5418053c-0.036377,0.4760609-0.0215874,0.957653-0.0018845,1.4358273
		c0.013958,0.3387146,0.2394028,0.5840626,0.5265656,0.6350422c0.30093,0.0534229,0.5791359-0.0839729,0.7109337-0.4092579
		C36.0768433,25.3779507,36.119297,25.1003857,36.166935,24.9167156z"/>
	<path style="fill:#FFA8C9;" d="M37.7639275,40.6769981c-0.0378265,0.2908058-0.3434029,0.603611-0.6089439,0.6195221
		c-0.312191,0.0187073-0.3372574-0.2172737-0.3870964-0.4741707c-0.1130295,0.0890999-0.208374,0.1634865-0.3028946,0.2389107
		c-0.3727074,0.2973938-0.7484589,0.3245735-1.0094643,0.0725899c-0.2965164-0.2862701-0.3395958-0.8652344-0.0466003-1.1792717
		c0.1783447-0.1911545,0.4174652-0.3280678,0.6380424-0.4763184c0.1099968-0.0739288,0.2384377-0.1213303,0.3606567-0.1759872
		c0.4019012-0.1797447,0.5186272-0.5010529,0.2592545-0.8684235c-0.0899506-0.1274071-0.3123016-0.2150192-0.4781265-0.2216187
		c-0.2086754-0.008297-0.334549,0.1622925-0.3484039,0.3837929c-0.0047836,0.0764275,0.0240746,0.1697998-0.0102959,0.2263412
		c-0.064827,0.1066475-0.1643715,0.1921959-0.249485,0.2865143c-0.0888138-0.0945625-0.2276268-0.1761322-0.2562408-0.2863235
		c-0.0636101-0.2449722,0.1487389-0.5738335,0.4345818-0.7144623c0.3726578-0.183342,0.7737694-0.2078323,1.1338577-0.0149422
		c0.1659775,0.0889091,0.336853,0.3191795,0.3568077,0.5016174c0.0570221,0.5212326,0.0380707,1.0508003,0.0483932,1.5771027
		c0.0016899,0.0862122-0.0102882,0.1741219,0.0027428,0.2583618c0.0210724,0.1362267,0.0576515,0.2700539,0.087677,0.4048958
		C37.5112076,40.7834129,37.6340218,40.7316971,37.7639275,40.6769981z M36.7883263,39.3397179
		c-0.2880898,0.1588898-0.5432358,0.2482147-0.72612,0.4162102c-0.1554565,0.1427994-0.2816086,0.3653755-0.3235092,0.5723343
		c-0.0579567,0.2862778,0.1695404,0.5483322,0.4072037,0.5641708c0.2432404,0.0162086,0.6341248-0.2622948,0.6399422-0.4713936
		C36.7951279,40.0872116,36.7883263,39.7529373,36.7883263,39.3397179z"/>
	<path style="fill:#FFA8C9;" d="M33.7325096,25.5889721c-0.0266876,0.2879467-0.3312836,0.6079273-0.5995827,0.6288204
		c-0.2269516,0.0176754-0.3156776-0.0811539-0.395092-0.4704056c-0.1081696,0.0843582-0.2036247,0.1568184-0.2969475,0.231926
		c-0.3801384,0.305933-0.7657394,0.3282127-1.0311127,0.0585213c-0.2780418-0.2825661-0.3218288-0.8644447-0.0304298-1.1568985
		c0.2239971-0.2248077,0.5208054-0.3776989,0.7882118-0.5581551c0.0626907-0.0423069,0.1368637-0.0680199,0.2066994-0.0992565
		c0.4111595-0.1839085,0.4960556-0.4316502,0.2909012-0.8467941c-0.1029587-0.208353-0.2800903-0.2910099-0.4970436-0.2570877
		c-0.2256393,0.0352783-0.3498764,0.1836109-0.3572769,0.4182549c-0.0021133,0.0670109,0.0221996,0.1492157-0.0081291,0.1980343
		c-0.0665092,0.1070557-0.1465645,0.2591953-0.2457333,0.2810364c-0.1909809,0.0420647-0.254488-0.1302357-0.2704563-0.2923508
		c-0.0262547-0.2665195,0.1893826-0.5910339,0.4876556-0.7191677c0.3488274-0.1498508,0.70718-0.1539879,1.0627594-0.0172329
		c0.2475739,0.0952148,0.3925705,0.2847271,0.4028397,0.5443344c0.0211792,0.5354385,0.0212784,1.0717144,0.0296745,1.6076508
		c0.0012016,0.0766201-0.0118446,0.1557388,0.0030746,0.229372c0.0270004,0.1332722,0.0701103,0.2632828,0.1064911,0.3946552
		C33.492527,25.7079506,33.606041,25.6516724,33.7325096,25.5889721z M32.7597427,24.3390961
		c-0.026001-0.0195637-0.052002-0.0391293-0.0779991-0.0586948c-0.2618256,0.1680088-0.5402832,0.3154736-0.7805977,0.5100479
		C31.6795845,24.969841,31.647047,25.2360554,31.7485352,25.5c0.0774193,0.2013493,0.2159977,0.3427715,0.4583893,0.3100204
		c0.2355537-0.0318298,0.5468903-0.2919464,0.5507507-0.4707336C32.7648773,25.006031,32.7597427,24.6725082,32.7597427,24.3390961z
		"/>
	<path style="fill:#FFA8C9;" d="M31.6396179,39.6059265c-0.0244637,0.4459877-0.137476,0.8582458-0.3978615,1.2179871
		c-0.5279007,0.7293434-1.5404339,0.7014999-2.0338955-0.049614c-0.4383621-0.6672478-0.4081097-1.6680984,0.0821686-2.299511
		c0.3069878-0.3953629,0.7132072-0.5670357,1.2151051-0.4722519c0.5815945,0.1098404,0.867775,0.5247879,1.0384769,1.0400314
		C31.6028385,39.2213326,31.6091423,39.4176331,31.6396179,39.6059265z M31.0740547,39.8839493
		c-0.0367222-0.4702644-0.0914593-0.9236145-0.3454552-1.3279305c-0.134861-0.2146721-0.3186226-0.3625565-0.5877457-0.3431892
		c-0.2822857,0.0203209-0.4614506,0.1960678-0.5395908,0.4494209c-0.2282925,0.7401886-0.1601448,1.455864,0.2413845,2.1253548
		c0.1261711,0.2103691,0.3261738,0.3280869,0.5796032,0.298542c0.2656288-0.0309715,0.4385796-0.1990547,0.5068626-0.4466133
		C30.9970875,40.3930969,31.0272903,40.1362381,31.0740547,39.8839493z"/>
	<path style="fill:#FFA8C9;" d="M39.4928665,24.1965141c-0.6253357,0-1.2534103,0-1.8765831,0
		c-0.0802383,0.6348667,0.2290306,1.2570305,0.6970329,1.4436417c0.2511673,0.1001492,0.5096664,0.0934334,0.7059135-0.0825005
		c0.1757469-0.1575584,0.2954903-0.3775902,0.4807701-0.6244564c-0.0193062,0.5078907-0.2206421,0.8657074-0.5575981,1.1446762
		c-0.3103447,0.256937-0.79459,0.2742805-1.1267738,0.0262184c-0.185997-0.1388931-0.3739853-0.32201-0.4686203-0.5277309
		c-0.3082008-0.6699829-0.3018875-1.3613358,0.0323219-2.0229206c0.2709465-0.5363483,0.842968-0.7727795,1.3783417-0.6134853
		C39.2338562,23.0816402,39.5287247,23.5718784,39.4928665,24.1965141z M38.8589821,23.9687653
		c0.0056801-0.4932728-0.2446899-0.8209572-0.6020699-0.8164673c-0.3560905,0.0044746-0.6488037,0.369915-0.6421089,0.8164673
		C38.0223351,23.9687653,38.4301796,23.9687653,38.8589821,23.9687653z"/>
	<path style="fill:#FFA8C9;" d="M28.2231693,37.9270477c0,0.4165306,0,0.7551231,0,1.0937157
		c-0.0216637,0.0075073-0.0433254,0.0150108-0.0649872,0.0225182c-0.0348339-0.0952873-0.0711384-0.1900673-0.1042194-0.2859612
		c-0.0876141-0.2539864-0.2140293-0.4736671-0.4967175-0.5491753c-0.2349415-0.0627556-0.4447384-0.0177917-0.581562,0.1939735
		c-0.1434765,0.2220612-0.0760612,0.4458389,0.109045,0.5905075c0.2467003,0.1928024,0.5277386,0.3422661,0.7970066,0.5054321
		c0.2890224,0.1751366,0.524826,0.3908577,0.5665588,0.7483101c0.0844326,0.7232056-0.4772167,1.2186012-1.2103176,1.0778198
		c-0.2149067-0.0412674-0.4331379-0.0652313-0.6651287-0.0993767c0-0.314312,0-0.6806717,0-1.0470276
		c0.0199013-0.0059509,0.0398045-0.0119095,0.0597057-0.0178642c0.02911,0.080925,0.0435734,0.1716805,0.0900478,0.2409554
		c0.1455822,0.2170067,0.270998,0.4638672,0.4644852,0.6282234c0.2342243,0.1989555,0.5608978,0.1279106,0.7154503-0.0860062
		c0.1550121-0.21455,0.1239681-0.5393829-0.1076374-0.7242279c-0.2230473-0.1780167-0.4714413-0.3266106-0.7181511-0.4720993
		c-0.3837376-0.2263031-0.5809937-0.5378914-0.5261536-0.9959526c0.0631618-0.5275841,0.4892006-0.8405609,1.0156078-0.7579689
		C27.766037,38.0241966,27.9761868,38.2140656,28.2231693,37.9270477z"/>
	<path style="fill:#FFA8C9;" d="M28.9058914,23.2957592c0.3061733-0.1369438,0.6123466-0.2738876,0.9678516-0.4328957
		c0,0.2524662,0,0.4381943,0,0.657526c0.180624-0.1973515,0.3077564-0.3987389,0.4896736-0.512598
		c0.1172256-0.0733719,0.3423519-0.0700798,0.467453-0.0037308c0.0938911,0.0497971,0.1486759,0.2563019,0.1436691,0.3901501
		c-0.0075092,0.2007103-0.1966763,0.2733269-0.3833122,0.1853981c-0.1215858-0.0572815-0.3278351-0.1806736-0.3559017-0.1492367
		c-0.1417294,0.1587563-0.3188667,0.3523064-0.3337727,0.5452251c-0.0419426,0.5429211-0.0214958,1.0918808-0.0031624,1.6377048
		c0.0086536,0.257637,0.0655251,0.2921906,0.5220871,0.5130081c-0.5303993,0-0.9882412,0-1.4534187,0
		c0.1355972-0.1105366,0.3088322-0.1877537,0.3682079-0.3171978c0.0664425-0.1448517,0.0355339-0.3369846,0.0367622-0.5086155
		c0.0032902-0.460165,0.0016747-0.9203701,0.0009632-1.380558C29.3722439,23.4355011,29.3717155,23.4355011,28.9058914,23.2957592z"
		/>
</g>
<linearGradient id="SVGID_32_" gradientUnits="userSpaceOnUse" x1="32" y1="62" x2="32" y2="57">
	<stop  offset="0" style="stop-color:#231815;stop-opacity:0.3"/>
	<stop  offset="0.9" style="stop-color:#231815;stop-opacity:0"/>
</linearGradient>
<path style="fill:url(#SVGID_32_);" d="M38.25,60.75c-1.8514404,0-2.3320923-0.0014038-2.9644165-0.5090942
	C35.9467163,58.800293,36.2493896,57,37,57c-2.5,0-2.5,3.75-3.75,3.75s-1.25,0-2.5,0S29.5,57,27,57
	c0.7506104,0,1.0532837,1.800293,1.7144165,3.2409058C28.0820923,60.7485962,27.6014404,60.75,25.75,60.75C23.25,60.75,22,57,22,57
	c0,2.5,2.5,5,3.75,5s0,0,1.2498779,0c1.2185059,0,1.8429565-0.2969971,2.4525757-0.6014404
	c0.0791626,0.0835571,0.1627197,0.1591187,0.2506104,0.227417c0.0194092,0.0153198,0.039917,0.0288086,0.0597534,0.043335
	c0.0756836,0.0543213,0.1529541,0.1053467,0.2354736,0.1469727c0.0495605,0.0255737,0.1032715,0.0432129,0.1554565,0.0637207
	c0.0629883,0.0241699,0.1240234,0.052063,0.1911011,0.0683594C30.4723511,61.9804077,30.6062012,62,30.75,62c1.25,0,1.25,0,2.5,0
	c0.1437988,0,0.2776489-0.0195923,0.4051514-0.0516357c0.0670776-0.0162964,0.1281128-0.0441895,0.1911011-0.0683594
	c0.0521851-0.0205078,0.105896-0.038147,0.1554565-0.0637207c0.0825195-0.041626,0.15979-0.0926514,0.2354736-0.1469727
	c0.0198364-0.0145264,0.0403442-0.0280151,0.0597534-0.043335c0.0878906-0.0682983,0.1714478-0.1438599,0.2506104-0.227417
	C35.1571655,61.7030029,35.7816162,62,37.0001221,62C38.25,62,37,62,38.25,62S42,59.5,42,57C42,57,40.75,60.75,38.25,60.75z"/>
<g>
	<linearGradient id="SVGID_33_" gradientUnits="userSpaceOnUse" x1="26.21875" y1="62" x2="26.21875" y2="8.25">
		<stop  offset="0" style="stop-color:#FFFFFF;stop-opacity:0"/>
		<stop  offset="0.2" style="stop-color:#FFFFFF;stop-opacity:0.8"/>
		<stop  offset="0.8" style="stop-color:#FFFFFF;stop-opacity:0.8"/>
		<stop  offset="1" style="stop-color:#FFFFFF;stop-opacity:0"/>
	</linearGradient>
	<path style="fill:url(#SVGID_33_);" d="M24.5,57c0-1.2216187,0-1.4658813,0-3.9090576C24.5,49.5,25.75,48.25,25.75,40.75
		s-1.2122803-8.75-1.2311401-12.5S25.2801514,22.4194946,27.3125,17c1.875-5,1.875-8.75,1.875-8.75h-0.46875c0,0,0,3.75-2.1875,8.75
		c-2.3710327,5.4194946-3.2371826,7.5-3.2592163,11.25S24.5,33.25,24.5,40.75s-1.25,8.75-1.25,12.3409424
		c0,2.4431763,0,2.687439,0,3.9090576c0,2.5,2.1875,5,3.28125,5c0.2104492,0,0.0521851,0,0.78125,0C26.375,62,24.5,59.5,24.5,57z"/>
	<linearGradient id="SVGID_34_" gradientUnits="userSpaceOnUse" x1="30.4769897" y1="62" x2="30.4769897" y2="61.3985596">
		<stop  offset="0" style="stop-color:#FFFFFF;stop-opacity:0"/>
		<stop  offset="0.2" style="stop-color:#FFFFFF;stop-opacity:0.5"/>
		<stop  offset="0.8" style="stop-color:#FFFFFF;stop-opacity:0.5"/>
		<stop  offset="1" style="stop-color:#FFFFFF;stop-opacity:0"/>
	</linearGradient>
	<path style="fill:url(#SVGID_34_);" d="M30.0893555,61.3985596c-0.06427,0.0427856-0.131958,0.083374-0.197876,0.125061
		C30.1687622,61.8112793,30.4957275,62,30.90625,62c0.0588379,0,0.1033936,0,0.15625,0
		C30.6596069,62,30.3469849,61.7610474,30.0893555,61.3985596z"/>
	<linearGradient id="SVGID_35_" gradientUnits="userSpaceOnUse" x1="37.78125" y1="62" x2="37.78125" y2="8.25">
		<stop  offset="0" style="stop-color:#FFFFFF;stop-opacity:0"/>
		<stop  offset="0.2" style="stop-color:#FFFFFF;stop-opacity:0.2"/>
		<stop  offset="0.8" style="stop-color:#FFFFFF;stop-opacity:0.2"/>
		<stop  offset="1" style="stop-color:#FFFFFF;stop-opacity:0"/>
	</linearGradient>
	<path style="fill:url(#SVGID_35_);" d="M40.75,28.25c0-3.75-0.9102173-5.8305054-3.28125-11.25c-2.1875-5-2.1875-8.75-2.1875-8.75
		H34.8125c0,0,0,3.75,1.875,8.75C38.7198486,22.4194946,39.5,24.5,39.5,28.25s-1.25,5-1.25,12.5s1.25,8.75,1.25,12.3409424
		c0,2.4431763,0,2.6306763,0,3.9090576c0,2.5-1.875,5-2.8125,5c0.543335,0-0.1773682,0,0.78125,0C38.5625,62,40.75,59.5,40.75,57
		c0-1.2783813,0-1.4658813,0-3.9090576C40.75,49.5,39.5,48.25,39.5,40.75S40.75,32,40.75,28.25z"/>
	<linearGradient id="SVGID_36_" gradientUnits="userSpaceOnUse" x1="33.5230103" y1="62" x2="33.5230103" y2="61.3985596">
		<stop  offset="0" style="stop-color:#FFFFFF;stop-opacity:0"/>
		<stop  offset="0.2" style="stop-color:#FFFFFF;stop-opacity:0.2"/>
		<stop  offset="0.8" style="stop-color:#FFFFFF;stop-opacity:0.2"/>
		<stop  offset="1" style="stop-color:#FFFFFF;stop-opacity:0"/>
	</linearGradient>
	<path style="fill:url(#SVGID_36_);" d="M33.9106445,61.3985596C33.6530151,61.7610474,33.3403931,62,32.9375,62
		c0.0528564,0,0.0974121,0,0.15625,0c0.4105225,0,0.7374878-0.1887207,1.0147705-0.4763794
		C34.0426025,61.4819336,33.9749146,61.4413452,33.9106445,61.3985596z"/>
</g>
<g>
	<linearGradient id="SVGID_37_" gradientUnits="userSpaceOnUse" x1="27.0625" y1="7.625" x2="36.9375" y2="7.625">
		<stop  offset="0" style="stop-color:#D9DADA"/>
		<stop  offset="0.2" style="stop-color:#F5F5F5"/>
		<stop  offset="0.4" style="stop-color:#F5F5F5"/>
		<stop  offset="0.6" style="stop-color:#ECECED"/>
		<stop  offset="1" style="stop-color:#9C9C9D"/>
	</linearGradient>
	<path style="fill:url(#SVGID_37_);" d="M28.0336914,8.5C27.6430664,8.5,27.0625,8.2670898,27.0625,7.625
		s0.5805664-0.875,0.9711914-0.875h7.9331055c0.390625,0,0.9707031,0.2329102,0.9707031,0.875S36.3574219,8.5,35.9667969,8.5
		H28.0336914z"/>
	<path style="fill:#595757;" d="M35.9663506,7c0,0,0.7211494,0,0.7211494,0.625S35.9663506,8.25,35.9663506,8.25h-7.9327011
		c0,0-0.7211494,0-0.7211494-0.625S28.0336494,7,28.0336494,7H35.9663506 M35.9663506,6.5h-7.9327011
		C27.5427799,6.5,26.8125,6.7995987,26.8125,7.625s0.7302799,1.125,1.2211494,1.125h7.9327011
		c0.4908676,0,1.2211494-0.2995987,1.2211494-1.125S36.4572182,6.5,35.9663506,6.5L35.9663506,6.5z"/>
</g>
<g>
	<linearGradient id="SVGID_38_" gradientUnits="userSpaceOnUse" x1="27.0625" y1="4.5" x2="36.9375" y2="4.5">
		<stop  offset="0" style="stop-color:#ECECED"/>
		<stop  offset="0.2" style="stop-color:#F5F5F5"/>
		<stop  offset="0.4" style="stop-color:#F5F5F5"/>
		<stop  offset="0.6" style="stop-color:#ECECED"/>
		<stop  offset="1" style="stop-color:#9C9C9D"/>
	</linearGradient>
	<rect x="27.0625" y="1.75" style="fill:url(#SVGID_38_);" width="9.875" height="5.5"/>
	<path style="fill:#595757;" d="M36.6875,2v5h-9.375V2H36.6875 M37.1875,1.5h-0.5h-9.375h-0.5V2v5v0.5h0.5h9.375h0.5V7V2V1.5
		L37.1875,1.5z"/>
</g>
<g>
</g>
<g>
</g>
<g>
</g>
<g>
</g>
<g>
</g>
<g>
</g>
</svg>
