<?xml version="1.0" encoding="utf-8"?>
<!-- Generator: Adobe Illustrator 17.0.0, SVG Export Plug-In . SVG Version: 6.00 Build 0)  -->
<!DOCTYPE svg PUBLIC "-//W3C//DTD SVG 1.1//EN" "http://www.w3.org/Graphics/SVG/1.1/DTD/svg11.dtd">
<svg version="1.1" id="レイヤー_1" xmlns="http://www.w3.org/2000/svg" xmlns:xlink="http://www.w3.org/1999/xlink" x="0px"
	 y="0px" width="64px" height="64px" viewBox="0 0 64 64" style="enable-background:new 0 0 64 64;" xml:space="preserve">
<g>
	<g>
		<path style="fill:#331C03;" d="M56.09375,37.5810547c0.5742188-1.3144531,0.8642578-2.7675781,0.8642578-4.3310547
			c0-4.1611328-2.5800781-7.7431641-7.4746094-10.3979492c0.1914063-0.6884766,0.2871094-1.418457,0.2871094-2.1801758
			c0-11.0478516-16.7080078-17.4404297-17.4194336-17.7075195L31,2.4580078v1.4428711
			c0,4.8769531-4.1210938,6.6655273-8.4838867,8.559082c-4.0742188,1.7685547-8.2871094,3.5966797-8.2871094,8.2119141
			c0,1.2705078,0.262207,2.434082,0.7817383,3.4750977C9.7207031,25.9746094,7.0415039,29.0327148,7.0415039,33.25
			c0,1.8183594,0.3920898,3.4804688,1.1669922,4.9560547C4.253418,40.4912109,2.25,43.6552734,2.25,47.625
			C2.25,63,24.6416016,63,32,63s29.75,0,29.75-15.375C61.75,43.7207031,59.8476563,40.3457031,56.09375,37.5810547z"/>
		<path style="fill:#3E3A39;" d="M32,63.5c-7.4819336,0-30.25,0-30.25-15.875c0-4.0185547,1.9526367-7.2509766,5.8046875-9.6113281
			C6.8823242,36.5742188,6.5415039,34.9746094,6.5415039,33.25c0-4.3085938,2.6201172-7.4658203,7.7900391-9.390625
			c-0.3999023-0.9760742-0.6025391-2.0454102-0.6025391-3.1875c0-4.9428711,4.5615234-6.9228516,8.5864258-8.6699219
			C26.7080078,10.0957031,30.5,8.449707,30.5,3.9008789V1.7368164l2.0263672,0.7592773
			c0.7246094,0.2719727,17.7441406,6.7924805,17.7441406,18.1757813c0,0.6660156-0.0703125,1.3129883-0.2089844,1.9287109
			c4.8408203,2.7270508,7.3964844,6.402832,7.3964844,10.6494141c0,1.4873047-0.2539063,2.8857422-0.7539063,4.1640625
			C60.3847656,40.234375,62.25,43.6679688,62.25,47.625C62.25,63.5,39.4814453,63.5,32,63.5z M31.5,3.1791992v0.7216797
			c0,5.2050781-4.4658203,7.1430664-8.784668,9.0175781c-4.1079102,1.7832031-7.9863281,3.4667969-7.9863281,7.753418
			c0,1.1884766,0.2451172,2.2822266,0.7290039,3.2519531l0.2543945,0.5097656l-0.5385742,0.1860352
			C10.109375,26.3691406,7.5415039,29.2729492,7.5415039,33.25c0,1.7324219,0.3735352,3.3212891,1.1098633,4.7236328
			l0.2231445,0.4248047l-0.4160156,0.2402344C4.6708984,40.8271484,2.75,43.8505859,2.75,47.625C2.75,62.5,24.765625,62.5,32,62.5
			s29.25,0,29.25-14.875c0-3.7324219-1.8349609-6.9765625-5.453125-9.6416016l-0.3212891-0.2363281l0.1601563-0.3662109
			c0.5458984-1.2490234,0.8222656-2.6386719,0.8222656-4.1308594c0-3.9555664-2.4941406-7.3989258-7.2128906-9.9584961
			l-0.3496094-0.1899414l0.1064453-0.3833008c0.1777344-0.6416016,0.2685547-1.3300781,0.2685547-2.0463867
			c0-10.6982422-16.3969727-16.9775391-17.0952148-17.2392578L31.5,3.1791992z"/>
	</g>
	<g>
		<linearGradient id="SVGID_1_" gradientUnits="userSpaceOnUse" x1="32" y1="62" x2="32" y2="32.3990822">
			<stop  offset="0" style="stop-color:#926134"/>
			<stop  offset="1" style="stop-color:#C59D62"/>
		</linearGradient>
		<path style="fill:url(#SVGID_1_);" d="M32,33.25c0-2.5,28.75,0,28.75,14.375S39.1875,62,32,62S3.25,62,3.25,47.625
			S32,35.75,32,33.25z"/>
		<linearGradient id="SVGID_2_" gradientUnits="userSpaceOnUse" x1="32" y1="45.2291679" x2="32" y2="20.1799049">
			<stop  offset="0" style="stop-color:#926134"/>
			<stop  offset="1" style="stop-color:#C59D62"/>
		</linearGradient>
		<path style="fill:url(#SVGID_2_);" d="M32,21.2708321c0-3.0208321,23.9583321,0,23.9583321,11.9791679
			S37.9895821,45.2291679,32,45.2291679S8.041667,45.2291679,8.041667,33.25S32,24.291666,32,21.2708321z"/>
		<linearGradient id="SVGID_3_" gradientUnits="userSpaceOnUse" x1="32" y1="29.057291" x2="32" y2="3.9010413">
			<stop  offset="0" style="stop-color:#926134"/>
			<stop  offset="1" style="stop-color:#C59D62"/>
		</linearGradient>
		<path style="fill:url(#SVGID_3_);" d="M32,3.9010413c0,0,16.7708321,6.2890625,16.7708321,16.770834
			c0,8.385416-12.578125,8.385416-16.7708321,8.385416s-16.7708321,0-16.7708321-8.385416S32,14.3828125,32,3.9010413z"/>
		<linearGradient id="SVGID_4_" gradientUnits="userSpaceOnUse" x1="27.0694447" y1="20.4375" x2="27.0694447" y2="4.5">
			<stop  offset="0" style="stop-color:#FFFFFF;stop-opacity:0.2"/>
			<stop  offset="1" style="stop-color:#FFFFFF;stop-opacity:0.3"/>
		</linearGradient>
		<path style="fill:url(#SVGID_4_);" d="M32,4.5c0,0,8.75,7.5,0,12.5s-13.75,3.75-13.75,1.25s3.75-3.75,6.25-5
			C29.5,10.75,32,8.25,32,4.5z"/>
		<linearGradient id="SVGID_5_" gradientUnits="userSpaceOnUse" x1="32" y1="35.75" x2="32" y2="25.75">
			<stop  offset="0" style="stop-color:#FFFFFF;stop-opacity:0.1"/>
			<stop  offset="1" style="stop-color:#FFFFFF;stop-opacity:0.2"/>
		</linearGradient>
		<path style="fill:url(#SVGID_5_);" d="M48.25,25.75c0,0-1.25,3.75-16.25,3.75s-16.25-3.75-16.25-3.75s-2.5,0-3.75,2.5
			c-1.5811386,3.1622772,2.5,7.5,20,7.5s21.5811386-4.3377228,20-7.5C50.75,25.75,48.25,25.75,48.25,25.75z"/>
		<linearGradient id="SVGID_6_" gradientUnits="userSpaceOnUse" x1="32" y1="53.8461456" x2="32" y2="40.75">
			<stop  offset="0" style="stop-color:#FFFFFF;stop-opacity:0.1"/>
			<stop  offset="1" style="stop-color:#FFFFFF;stop-opacity:0.2"/>
		</linearGradient>
		<path style="fill:url(#SVGID_6_);" d="M54.5,40.75c0,0-5.2537918,5.9102249-22.5,5.9102249S9.5,40.75,9.5,40.75
			s-2.8743682,0.2745209-4.3115525,3.1488914C3.3705375,47.5347099,11.8794222,53.8461456,32,53.8461456
			s28.6294632-6.3114357,26.811554-9.9472542C57.3743668,41.0245209,54.5,40.75,54.5,40.75z"/>
	</g>
</g>
<g>
	<g>
		<path style="fill:#350000;" d="M47.8825836,26.3355522l-2.5980072-0.0372124
			c0.0245285-1.72439-1.1992073-3.1455975-2.7273941-3.1680088c-0.010994-0.0004215-0.0228348-0.0004215-0.0346756-0.0004215
			c-1.5112724,0-2.7561493,1.3784981-2.7823677,3.0914726l-2.5980034-0.0397491
			c0.0482025-3.1307983,2.4550781-5.6497288,5.381218-5.6497288c0.0236778,0,0.0473595,0,0.0718842,0.0004234
			C45.5552025,20.575882,47.9274063,23.1789589,47.8825836,26.3355522z"/>
		<path style="fill:#350000;" d="M16.142868,26.478899c-0.1293926-3.1544781,2.1485119-5.819294,5.07761-5.9410744
			c2.9570065-0.1150169,5.4196987,2.3480988,5.5503597,5.5025768l-2.5954685,0.1074047
			c-0.0718842-1.723547-1.3455143-3.0703316-2.8474865-3.0145149c-1.4981651,0.062582-2.6601639,1.5155029-2.5895462,3.239048
			L16.142868,26.478899z"/>
	</g>
	<path style="fill:#FFFFFF;" d="M32.139782,51.1122017c11.517643,0,15.4408913-6.7691002,17.1314125-12.1519928
		l-3.8445282-1.7691536c0,0-6.8071175,3.4614067-13.2868843,3.4614067c-6.4793377,0-12.7861671-3.4614067-12.7861671-3.4614067
		l-3.4610605,1.155159C15.8925543,38.3462143,20.8149929,51.1122017,32.139782,51.1122017z"/>
	<path style="fill:#9C9C9D;" d="M32.4666557,46.8235893c-0.3797188,0-0.7590179-0.0143776-1.1391621-0.043129
		c-8.3602123-0.6283607-13.5448036-7.9360924-13.7613049-8.2464676l1.4203606-0.9911652
		c0.0486279,0.0693474,4.9503326,6.9525375,12.4847145,7.5115471c5.083107,0.3831062,10.2368279-2.1582375,15.3355827-7.5352249
		l1.2567177,1.1924438C42.9538155,44.0987282,37.712986,46.8235893,32.4666557,46.8235893z"/>
	<path style="fill:#350000;" d="M32.1397934,51.978157c-11.7836246,0-16.8455887-12.7760582-17.0553246-13.3206902
		c-0.0849924-0.2207298-0.0761127-0.4659843,0.0245256-0.6799469c0.1010618-0.2139626,0.2850027-0.3780289,0.5095377-0.4524498
		l3.4610462-1.1552353c0.2279167-0.0778046,0.4795132-0.0532799,0.6905174,0.0617371
		c0.0608902,0.0338287,6.1977444,3.3549118,12.3696976,3.3549118c6.1888657,0,12.8284912-3.3337669,12.894455-3.3675957
		c0.2367973-0.1192474,0.5141907-0.1260109,0.7543678-0.0143776l3.844574,1.7692146
		c0.3957901,0.1818237,0.594532,0.6300468,0.4642906,1.0461349C48.1675835,45.3647499,41.7250061,51.978157,32.1397934,51.978157z
		 M17.0701828,38.8663559c1.3087292,2.7519226,6.1267071,11.3797989,15.0696106,11.3797989
		c8.336956,0,14.0513802-5.4818573,16.0573921-10.8267097l-2.7595367-1.2702484
		c-1.5544014,0.7391472-7.4920959,3.3692894-13.2978554,3.3692894c-5.8387451,0-11.4343491-2.6580505-12.8623219-3.3887405
		L17.0701828,38.8663559z"/>
</g>
<g>
</g>
<g>
</g>
<g>
</g>
<g>
</g>
<g>
</g>
<g>
</g>
</svg>
