<?xml version="1.0" encoding="utf-8"?>
<!-- Generator: Adobe Illustrator 15.0.2, SVG Export Plug-In . SVG Version: 6.00 Build 0)  -->
<!DOCTYPE svg PUBLIC "-//W3C//DTD SVG 1.1//EN" "http://www.w3.org/Graphics/SVG/1.1/DTD/svg11.dtd">
<svg version="1.1" id="レイヤー_1" xmlns="http://www.w3.org/2000/svg" xmlns:xlink="http://www.w3.org/1999/xlink" x="0px"
	 y="0px" width="64px" height="64px" viewBox="0 0 64 64" style="enable-background:new 0 0 64 64;" xml:space="preserve">
<g>
	<g>
		<linearGradient id="SVGID_1_" gradientUnits="userSpaceOnUse" x1="27.2797852" y1="25.2646484" x2="44.4935684" y2="74.9380722">
			<stop  offset="0" style="stop-color:#FFF1BF"/>
			<stop  offset="0.1983559" style="stop-color:#FFE9B2"/>
			<stop  offset="0.566525" style="stop-color:#FFD38F"/>
			<stop  offset="1" style="stop-color:#FFB55F"/>
		</linearGradient>
		<path style="fill:url(#SVGID_1_);" d="M59.9140625,31.9951172c5.2558594,29.3837891-6.1865234,27.7451172-28.2299805,27.7675781
			c-18.5625,0.0205078-33.3339844-1.1259766-27.6210938-26.0078125C9.6430664,9.4492188,13.121582,4.2275391,31.684082,4.2275391
			C51.8408203,4.2275391,55.46875,7.1425781,59.9140625,31.9951172z"/>
		<linearGradient id="SVGID_2_" gradientUnits="userSpaceOnUse" x1="37.8964844" y1="-5.6679688" x2="34.0634613" y2="15.1655426">
			<stop  offset="0" style="stop-color:#D23A18"/>
			<stop  offset="0.2649619" style="stop-color:#DA4E1C"/>
			<stop  offset="0.8068733" style="stop-color:#ED8328"/>
			<stop  offset="0.89697" style="stop-color:#F18C2A"/>
			<stop  offset="0.9146296" style="stop-color:#F29537"/>
			<stop  offset="0.9474026" style="stop-color:#F5AD5A"/>
			<stop  offset="0.9913981" style="stop-color:#F9D391"/>
			<stop  offset="1" style="stop-color:#FADB9D"/>
		</linearGradient>
		<path style="fill:url(#SVGID_2_);" d="M19.9902344,6.3378906C12.8808594,8.4985352,10.4023438,11.3334961,15.9511719,12
			S30,9.7270508,34,10.9467773S36.4082031,15.1289063,40.3330078,15s3.7958984-2.9873047,7.4833984,0.0039063
			s7.40625,5.6704102,8.2949219,0S40.8144531,0.0092773,19.9902344,6.3378906z"/>
		<linearGradient id="SVGID_3_" gradientUnits="userSpaceOnUse" x1="35.6435547" y1="6.2949219" x2="59.5605316" y2="1.7949119">
			<stop  offset="0" style="stop-color:#D23A18"/>
			<stop  offset="0.2649619" style="stop-color:#DA4E1C"/>
			<stop  offset="0.8068733" style="stop-color:#ED8328"/>
			<stop  offset="0.89697" style="stop-color:#F18C2A"/>
			<stop  offset="0.9146296" style="stop-color:#F29537"/>
			<stop  offset="0.9474026" style="stop-color:#F5AD5A"/>
			<stop  offset="0.9913981" style="stop-color:#F9D391"/>
			<stop  offset="1" style="stop-color:#FADB9D"/>
		</linearGradient>
		<path style="fill:url(#SVGID_3_);" d="M18.4052734,6.2685547c0,0,17.9560547,1.8095703,30.5673828,1.0205078
			C48.9726563,7.2890625,37.3935547,0.9536133,18.4052734,6.2685547z"/>
		<path style="fill:#FFBC80;" d="M34.0449219,7.8945313c-5.862793,0-14.019043-0.9697266-14.1010742-0.9794922
			C19.7211914,6.8881836,19.5625,6.6860352,19.5888672,6.4633789c0.0268555-0.2226563,0.2280273-0.4223633,0.4516602-0.3959961
			C20.1220703,6.0771484,28.230957,7,34.0449219,7c0.0126953,0,0.0253906,0,0.0390625,0l0,0
			c0.2246094,0,0.40625,0.2226563,0.40625,0.4467773C34.4902344,7.6845703,34.28125,7.8945313,34.0449219,7.8945313z"/>
		<path style="fill:#FFBC80;" d="M39.6357422,7.8955078c-0.8427734,0-1.3945313-0.0092773-1.3945313-0.0092773
			c-0.2236328-0.003418-0.4033203-0.2255859-0.3994141-0.449707C37.8457031,7.2148438,38.0263672,7,38.2480469,7
			C38.25,7,38.2529297,7,38.2548828,7c0.0029297,0,1.2324219,0,2.8173828,0c0.0009766,0,0.0029297,0,0.0048828,0
			c0.2216797,0,0.4033203,0.2158203,0.40625,0.4379883c0.0029297,0.2246094-0.1767578,0.4272461-0.4013672,0.4296875
			C40.5488281,7.875,40.0556641,7.8955078,39.6357422,7.8955078z"/>
		<path style="fill:#FFFFFF;" d="M16.7685547,10.2109375c1.5175781-1.1435547,4.5283203-0.4262695,1.9765625,3.015625
			S11.7011719,14.03125,16.7685547,10.2109375z"/>
		<path style="fill:#FFFFFF;" d="M14.9853516,16.7578125c1.2050781,0.0419922-0.1513672,3.1103516-1.1513672,2.6762695
			S12.8046875,16.6821289,14.9853516,16.7578125z"/>
		<path style="opacity:0.35;fill:#FFFFFF;" d="M41.1572266,55.6376953C39.7675781,54.1728516,48.1171875,55.796875,51.25,53.40625
			c3.5839844-2.7353516,6.1298828-4.3105469,5.6289063-1.4667969
			C56.3076172,55.1826172,43.1748047,57.7666016,41.1572266,55.6376953z"/>
	</g>
	<path style="fill:#541715;" d="M37.6367188,60.9921875l-5.9511719-0.0107422l-0.4541016,0.0009766
		c-11.4873047,0-21.4038086-0.5117188-26.4135742-6.8027344C1.3208008,49.7890625,0.6850586,43.0185547,2.875,33.4824219
		C8.4550781,9.1757813,12.0141602,3.0078125,31.684082,3.0078125c21.105957,0,24.956543,3.7646484,29.4301758,28.7724609
		c2.2011719,12.3085938,1.5869141,19.7050781-1.9941406,23.9833984
		C55.0576172,60.6171875,47.6533203,60.9921875,37.6367188,60.9921875z M32.1640625,58.5429688l5.4726563,0.0107422
		c9.3496094,0,16.2294922-0.3115234,19.6142578-4.3554688c3.0332031-3.6240234,3.4980469-10.6113281,1.4628906-21.9882813
		C54.2519531,7.2636719,50.8505859,5.4462891,31.684082,5.4462891c-17.2709961,0-20.7294922,3.7392578-26.4331055,28.5810547
		c-2.0126953,8.7666016-1.5302734,14.8613281,1.4741211,18.6337891c4.3325195,5.4404297,13.6616211,5.8828125,24.5063477,5.8828125
		L32.1640625,58.5429688z"/>
	<path style="fill:#FFFFFF;" d="M32.2001953,53.4101563c11.9423828,0,16.0107422-7.0185547,17.7636719-12.5996094
		l-3.9863281-1.8349609c0,0-7.0585938,3.5898438-13.7773438,3.5898438c-6.7182617,0-13.2578125-3.5898438-13.2578125-3.5898438
		l-3.5883789,1.1982422C15.3540039,40.1738281,20.4580078,53.4101563,32.2001953,53.4101563z"/>
	<path style="fill:#9C9C9D;" d="M32.5390625,48.9638672c-0.394043,0-0.7871094-0.0146484-1.1811523-0.0449219
		c-8.668457-0.6513672-14.0444336-8.2285156-14.269043-8.5507813l1.4731445-1.0283203
		c0.050293,0.0722656,5.1328125,7.2099609,12.9448242,7.7900391c5.2675781,0.3984375,10.6142578-2.2382813,15.9013672-7.8134766
		l1.3027344,1.2363281C43.4130859,46.1386719,37.9785156,48.9638672,32.5390625,48.9638672z"/>
	<path style="fill:#330100;" d="M32.2001953,54.4101563c-12.2871094,0-17.5605469-13.3095703-17.7792969-13.8769531
		c-0.0981445-0.2548828-0.0878906-0.5380859,0.0283203-0.7851563c0.1166992-0.2470703,0.3291016-0.4365234,0.5878906-0.5224609
		l3.5883789-1.1982422c0.2636719-0.0898438,0.5541992-0.0615234,0.7978516,0.0712891
		c0.0629883,0.0351563,6.4047852,3.4667969,12.7768555,3.4667969c6.4052734,0,13.2558594-3.4462891,13.3242188-3.4814453
		c0.2714844-0.1386719,0.59375-0.1455078,0.8710938-0.0166016l3.9863281,1.8349609
		c0.4570313,0.2099609,0.6865234,0.7275391,0.5361328,1.2080078C48.90625,47.515625,42.1904297,54.4101563,32.2001953,54.4101563z
		 M16.7167969,40.7734375c1.4179688,2.9423828,6.3789063,11.6367188,15.4833984,11.6367188
		c8.5498047,0,14.4238281-5.5898438,16.5205078-11.0703125l-2.7314453-1.2578125
		c-1.6826172,0.796875-7.8017578,3.4833984-13.7890625,3.4833984c-6.0244141,0-11.7978516-2.71875-13.3447266-3.5068359
		L16.7167969,40.7734375z"/>
	<g>
		<ellipse style="fill:#330100;" cx="22.4165039" cy="27.0986328" rx="3.3369141" ry="4.7841797"/>
		<ellipse style="fill:#330100;" cx="41.715332" cy="27.0986328" rx="3.3374023" ry="4.7841797"/>
	</g>
</g>
</svg>
