<?xml version="1.0" encoding="utf-8"?>
<!-- Generator: Adobe Illustrator 17.0.0, SVG Export Plug-In . SVG Version: 6.00 Build 0)  -->
<!DOCTYPE svg PUBLIC "-//W3C//DTD SVG 1.1//EN" "http://www.w3.org/Graphics/SVG/1.1/DTD/svg11.dtd">
<svg version="1.1" id="レイヤー_1" xmlns="http://www.w3.org/2000/svg" xmlns:xlink="http://www.w3.org/1999/xlink" x="0px"
	 y="0px" width="64px" height="64px" viewBox="0 0 64 64" style="enable-background:new 0 0 64 64;" xml:space="preserve">
<path style="fill:#7ECEF4;" d="M32,2c2.7614098,0,5,2.2385902,5,5v0.4744225C37.9165649,6.4259682,39.2480431,5.75,40.75,5.75
	c2.7614098,0,5,2.2385902,5,5v15c4.6498985,0,8.5470009,1.8540001,9.6664429,4.3619995
	C52.7137451,31.8455772,50.75,37.0712891,50.75,43.25C50.75,53.6053467,42.3553429,62,32,62s-18.75-8.3946533-18.75-18.75
	c0-6.1787109-1.9637442-11.4044228-4.6664448-13.1380005C9.7030001,27.6040001,13.6000996,25.75,18.25,25.75v-15
	c0-2.7614098,2.2385883-5,5-5c1.501955,0,2.8334332,0.6759682,3.75,1.7244225V7C27,4.2385902,29.2385883,2,32,2 M32,0.5
	c-2.818243,0-5.2233696,1.8029823-6.1225433,4.3159752C25.0568943,4.4468994,24.1631069,4.25,23.25,4.25
	c-3.5841103,0-6.5,2.9158897-6.5,6.5v13.5594254c-4.5369339,0.3627777-8.271389,2.3575172-9.5361891,5.191185l-0.5256553,1.1776772
	l1.0855446,0.6963005C9.7496662,32.6420212,11.75,37.1281204,11.75,43.25c0,11.1658897,9.0841103,20.25,20.25,20.25
	s20.25-9.0841103,20.25-20.25c0-6.1218796,2.0003319-10.6079788,3.9762993-11.875412l1.0855446-0.6963005L56.78619,29.5006104
	c-1.264801-2.8336678-4.9992561-4.8284073-9.53619-5.191185V10.75c0-3.5841103-2.9158897-6.5-6.5-6.5
	c-0.9131088,0-1.8068962,0.1968994-2.6274567,0.5659752C37.2233696,2.3029823,34.8182449,0.5,32,0.5L32,0.5z"/>
<g>
	<path style="fill:#C7E8FA;" d="M45.75,25.75v-15c0-2.7614136-2.2385864-5-5-5s-5,2.2385864-5,5h-7.5c0-2.7614136-2.2385864-5-5-5
		s-5,2.2385864-5,5v15c-4.6499023,0-8.5469971,1.8540039-9.6664429,4.3619995C11.2862549,31.8455811,13.25,37.0712891,13.25,43.25
		C13.25,53.6053467,21.6446533,62,32,62s18.75-8.3946533,18.75-18.75c0-6.1787109,1.9637451-11.4044189,4.6664429-13.1380005
		C54.2969971,27.6040039,50.3999023,25.75,45.75,25.75z"/>
	<path style="fill:#00A0E7;" d="M32,62.5c-10.6142578,0-19.25-8.6357422-19.25-19.25
		c0-5.8115234-1.8242188-11.0415039-4.4365234-12.7172852L7.9516602,30.300293l0.175293-0.3920898
		C9.3081055,27.262207,13.2236328,25.3862305,17.75,25.2573242V10.75c0-3.0327148,2.4672852-5.5,5.5-5.5
		c2.8642578,0,5.2241211,2.2006836,5.4775391,5h6.5449219c0.2529297-2.7993164,2.6132813-5,5.4775391-5
		c3.0322266,0,5.5,2.4672852,5.5,5.5v14.5073242c4.5263672,0.1289063,8.4423828,2.0048828,9.6230469,4.6508789l0.1748047,0.3920898
		l-0.3613281,0.2324219C53.0742188,32.2084961,51.25,37.4384766,51.25,43.25C51.25,53.8642578,42.6142578,62.5,32,62.5z
		 M9.2255859,29.953125C11.9477539,32.0400391,13.75,37.2871094,13.75,43.25c0,10.0634766,8.1870117,18.25,18.25,18.25
		c10.0634766,0,18.25-8.1865234,18.25-18.25c0-5.9628906,1.8017578-11.2099609,4.5234375-13.296875
		C53.5009766,27.7548828,49.8808594,26.25,45.75,26.25h-0.5v-15.5c0-2.4814453-2.0185547-4.5-4.5-4.5s-4.5,2.0185547-4.5,4.5v0.5
		h-8.5v-0.5c0-2.4814453-2.0185547-4.5-4.5-4.5s-4.5,2.0185547-4.5,4.5v15.5h-0.5
		C14.1196289,26.25,10.4990234,27.7548828,9.2255859,29.953125z"/>
</g>
<g>
	<path style="fill:#C7E8FA;" d="M27,38.25V7c0-2.7614136,2.2385864-5,5-5s5,2.2385864,5,5v31.25"/>
	<path style="fill:#00A0E7;" d="M37.5,38.25h-1V7c0-2.4814453-2.0185547-4.5-4.5-4.5S27.5,4.5185547,27.5,7v31.25h-1V7
		c0-3.0327148,2.4672852-5.5,5.5-5.5c3.0322266,0,5.5,2.4672852,5.5,5.5V38.25z"/>
</g>
<g>
	<g>
		<path style="fill:#C7E8FA;" d="M37,35.75c0-5.5228481,3.9175072-10,8.75-10"/>
		<path style="fill:#00A0E7;" d="M37.5,35.75h-1c0-5.7895508,4.1494141-10.5,9.25-10.5v1
			C41.2011719,26.25,37.5,30.5117188,37.5,35.75z"/>
	</g>
	<g>
		<path style="fill:#C7E8FA;" d="M27,35.75c0-5.5228481-3.9175091-10-8.75-10"/>
		<path style="fill:#00A0E7;" d="M27.5,35.75h-1c0-5.2382813-3.7011719-9.5-8.25-9.5v-1
			C23.3505859,25.25,27.5,29.9604492,27.5,35.75z"/>
	</g>
</g>
<polygon style="fill:#00A0E7;" points="32,27 27,32 27,38.25 37,38.25 37,32 "/>
<g>
	<path style="fill:#00A0E7;" d="M32,38.25c-6.2131958,0-11.25,5.0368042-11.25,11.25S25.7868042,60.75,32,60.75
		s11.25-5.0368042,11.25-11.25S38.2131958,38.25,32,38.25z M42.0505981,53.9765625l-2.2549438,0.024292l1.1028442,1.9668579
		l-2.2106323-0.4449463l0.671936,2.1525269l-2.0707397-0.8925781l0.2120361,2.244812l-1.8400269-1.3031006l-0.2611084,2.2397461
		l-1.5262451-1.6593018l-0.7242432,2.1356812L32,58.5l-1.1489258,1.9406128l-0.7241211-2.1356201l-1.5274048,1.6590576
		l-0.2614746-2.2399902l-1.8407593,1.3025513l0.2120361-2.2450562l-2.0710449,0.8920288l0.6724243-2.1523438l-2.2106934,0.444519
		l1.1035767-1.9661865l-2.2546997-0.0239868l1.4891357-1.6932983l-2.199585-0.4945068l1.8102417-1.3450928L21,49.5
		l2.048645-0.9422607l-1.8103638-1.3447876l2.1998901-0.4956665l-1.4887695-1.6939087l2.2549438-0.024292l-1.1028442-1.9668579
		l2.2106323,0.4450073l-0.671936-2.1525269l2.0707397,0.8925171l-0.2120361-2.244812l1.8400269,1.3031616l0.2611084-2.2398071
		l1.5262451,1.6593018l0.7242432-2.1356812L32,40.5l1.1489258-1.9406738l0.7241211,2.1356201l1.5274048-1.6589966
		l0.2614746,2.2399902l1.8407593-1.3026123l-0.2120361,2.2450562l2.0710449-0.8919678L38.68927,43.4787598l2.2106934-0.4445801
		l-1.1035767,1.9661865l2.2546997,0.0240479l-1.4891357,1.6932983l2.199585,0.4944458l-1.8102417,1.3451538L43,49.5
		l-2.048645,0.9422607l1.8103638,1.3447266l-2.1998901,0.4957275L42.0505981,53.9765625z"/>
	<path style="fill:#00A0E7;" d="M32,58.875c-5.1694336,0-9.375-4.2060547-9.375-9.375s4.2055664-9.375,9.375-9.375
		c5.1689453,0,9.375,4.2060547,9.375,9.375S37.1689453,58.875,32,58.875z M32,40.625c-4.8935547,0-8.875,3.9814453-8.875,8.875
		s3.9814453,8.875,8.875,8.875s8.875-3.9814453,8.875-8.875S36.8935547,40.625,32,40.625z"/>
	<path style="fill:#00A0E7;" d="M32,42c-4.1421299,0-7.5,3.3578682-7.5,7.5S27.8578701,57,32,57s7.5-3.3578682,7.5-7.5
		S36.1421318,42,32,42z M38.7003975,52.484375l-1.5032959,0.0161934l0.7352295,1.3112411l-1.4737549-0.2966309l0.4479599,1.4350166
		l-1.3804932-0.5950508l0.1413574,1.4965401l-1.2266846-0.8687325l-0.1740723,1.4931641l-1.017498-1.1062012l-0.48283,1.4237862
		L32,55.5l-0.7659512,1.2937431l-0.4827461-1.423748l-1.0182705,1.1060371l-0.1743164-1.4933243l-1.2271729,0.8683662
		l0.1413574-1.4967041l-1.3806973,0.5946846l0.4482841-1.4348946l-1.4737968,0.2963448l0.7357178-1.310791l-1.5031319-0.0159912
		l0.9927559-1.1288643l-1.4663887-0.32967l1.2068272-0.8967285L24.666666,49.5l1.3657646-0.6281738l-1.2069092-0.8965263
		l1.4665928-0.3304443l-0.9925137-1.1292725l1.5032959-0.0161934l-0.7352295-1.3112373l1.4737549,0.296669l-0.4479561-1.4350166
		l1.3804932,0.5950127l-0.1413574-1.4965439l1.2266846,0.8687744l0.1740723-1.4932022l1.0174961,1.1062012l0.4828281-1.42379
		L32,43.5l0.7659492-1.2937813l0.4827499,1.4237442l1.0182686-1.1059952l0.1743164,1.4933243l1.2271729-0.8684082
		l-0.1413574,1.4967041l1.3806953-0.5946426l-0.4482803,1.4348946l1.473793-0.2963867l-0.7357178,1.310791l1.5031357,0.0160332
		l-0.9927597,1.1288643l1.4663925,0.3296318l-1.2068291,0.8967667L39.3333321,49.5l-1.3657608,0.6281738l1.2069092,0.8964844
		l-1.4665947,0.3304863L38.7003975,52.484375z"/>
</g>
<g>
	<g>
		
			<radialGradient id="SVGID_1_" cx="32" cy="49.5" r="8.8600502" gradientTransform="matrix(0.8888889 0 0 0.4738524 3.5555556 26.0443077)" gradientUnits="userSpaceOnUse">
			<stop  offset="0.800885" style="stop-color:#FFFFFF"/>
			<stop  offset="1" style="stop-color:#9C9C9D"/>
		</radialGradient>
		<path style="fill:url(#SVGID_1_);" d="M23.25,49.5c0,0,1.9444447-4.375,8.75-4.375s8.75,4.375,8.75,4.375
			s-1.9444427,4.375-8.75,4.375S23.25,49.5,23.25,49.5z"/>
		<path style="fill:#00A0E7;" d="M32,54.375c-7.0493164,0-9.1220703-4.4814453-9.2070313-4.671875L22.7026367,49.5
			l0.090332-0.203125C22.8779297,49.1064453,24.9506836,44.625,32,44.625c7.0498047,0,9.1220703,4.4814453,9.2070313,4.671875
			L41.296875,49.5l-0.0898438,0.203125C41.1220703,49.8935547,39.0498047,54.375,32,54.375z M23.8134766,49.5019531
			C24.2875977,50.3408203,26.3901367,53.375,32,53.375c5.5732422,0,7.7128906-3.0556641,8.1865234-3.8769531
			C39.7128906,48.6591797,37.609375,45.625,32,45.625C26.4262695,45.625,24.2875977,48.6806641,23.8134766,49.5019531z"/>
	</g>
	<radialGradient id="SVGID_2_" cx="32" cy="49.5" r="4.375" gradientUnits="userSpaceOnUse">
		<stop  offset="0.0619469" style="stop-color:#FFFFFF"/>
		<stop  offset="0.2168142" style="stop-color:#002E42"/>
		<stop  offset="0.6681416" style="stop-color:#002E42"/>
		<stop  offset="0.920354" style="stop-color:#00A0E7"/>
	</radialGradient>
	<circle style="fill:url(#SVGID_2_);" cx="32" cy="49.5" r="4.375"/>
</g>
<path style="fill:#00A0E7;" d="M37.5,28.5131836l-0.9003906-1.2021484C35.5,25.8422852,33.8232422,25,32,25
	s-3.4995117,0.8422852-4.5996094,2.3110352L26.5,28.5126953v-5.1982422l0.2138672-0.1494141
	c3.1201172-2.1787109,7.453125-2.1787109,10.5722656,0L37.5,23.3144531V28.5131836z M27.5,23.8408203v1.8828125
	C28.7265625,24.6162109,30.3095703,24,32,24s3.2734375,0.6162109,4.5,1.7236328v-1.8828125
	C33.8144531,22.0849609,30.1865234,22.0849609,27.5,23.8408203z"/>
<g>
	<path style="fill:#00A0E7;" d="M46.867981,31.6831322c-0.0737457,0.3074837-0.0809212,0.6264076-0.0136948,0.9135094
		c0.0635834,0.2910538,0.2388,0.5257874,0.4535332,0.6908035c0.2311745,0.1716537,0.4601898,0.2620773,0.7717743,0.3275032
		c0.2375755,0.0400276,0.5087166,0.0055962,0.7066307-0.1113853c0.206356-0.1093674,0.3862114-0.2929077,0.5189362-0.5137711
		c0.0722542-0.122139,0.1121178-0.2042999,0.1423988-0.3314743c0.0361328-0.1338501,0.0679283-0.2729721,0.0876083-0.412674
		c0.0861549-0.5585804,0.0447769-1.1219425-0.1478844-1.5903797c-0.0864372-0.2405491-0.2376251-0.4445248-0.3999405-0.6355782
		c-0.173008-0.1852951-0.3797798-0.34161-0.6072922-0.4792747c-0.1095886-0.0732613-0.2417526-0.1227989-0.3604012-0.1868591
		l-0.0911636-0.0458584l-0.0227585-0.0115261l-0.0056915-0.0028858c-0.0326958-0.0129051,0.0414238,0.0159397,0.032444,0.0125465
		l-0.0034866-0.0012093l-0.0139503-0.0048351l-0.0557976-0.0193462l-0.2231903-0.0773811
		c-0.1571846-0.0615044-0.2954559-0.0989113-0.4013176-0.1082096c-0.1152229-0.0236034-0.2311745-0.0489559-0.3611145-0.0451641
		c-0.2528267-0.021431-0.4976997,0.0094204-0.7312012,0.0781689c-0.2351036,0.0646667-0.4574127,0.1787033-0.6639671,0.3286209
		c-0.2110901,0.1420364-0.394619,0.3389359-0.5669556,0.5427647c-0.1662827,0.1999416-0.3269386,0.4597397-0.4214935,0.6592808
		l0.0172958-0.045166c-0.118763,0.3793583-0.2289581,0.8138962-0.3112907,1.2322903
		c-0.0858269,0.4229889-0.1464119,0.8516655-0.201458,1.2799988c-0.1013794,0.8580246-0.1403503,1.722641-0.1026993,2.5796585
		c0.0256653,0.427742,0.0467796,0.8556519,0.10326,1.2785873c0.0442505,0.4245453,0.1238976,0.8436356,0.21418,1.2578354
		l0.2891502,1.2952957c0.1021919,0.4340096,0.2047691,0.8682442,0.2776031,1.3314285
		c0.1772919,0.9114761,0.2709541,1.818615,0.3241692,2.733017c0.059124,0.9127083,0.0349274,1.8317909-0.0428772,2.7419548
		c-0.0990715,0.9094658-0.2380753,1.8131943-0.4743271,2.6935844c-0.2544365,0.8724823-0.5599442,1.7397614-1.0413475,2.5046654
		c0.2950249-0.8487015,0.47118-1.7203712,0.5714607-2.5983238c0.1222496-0.8735275,0.1471672-1.7565269,0.1343422-2.6321831
		c-0.021244-0.8767128-0.0702896-1.7506027-0.1911125-2.6178589c-0.0973473-0.8672447-0.2664795-1.7332191-0.4461098-2.5738411
		c-0.0779343-0.4190941-0.194725-0.8520355-0.3119125-1.2851944l-0.3477554-1.3111115
		c-0.1008606-0.458107-0.1866875-0.9208832-0.2356644-1.3853531c-0.060997-0.4640694-0.0877533-0.930088-0.0997467-1.3955765
		c-0.0187225-0.9311295,0.0453644-1.8584099,0.1753159-2.7737999c0.0694122-0.4572029,0.1451874-0.9130211,0.247673-1.3645744
		c0.1004639-0.4568272,0.2014084-0.8926601,0.3520737-1.3662491l0.0083542-0.026247l0.0090866-0.0192909
		c0.1743164-0.3700104,0.355751-0.6448898,0.5868759-0.9333344c0.2316704-0.2765732,0.484169-0.5441551,0.7946854-0.7584152
		c0.3023911-0.2196674,0.6484947-0.3984795,1.0200996-0.5031433c0.3684196-0.1077251,0.7620354-0.1577778,1.1355362-0.1195316
		c0.186924,0.0023193,0.3794479,0.0405102,0.5719147,0.0864983c0.2067261,0.0396519,0.3694649,0.0924778,0.5055466,0.1488304
		l0.221714,0.0815544l0.0554276,0.0203896l0.0639343,0.0257988l0.0298767,0.0152473l0.1193848,0.0612354
		c0.15765,0.0861225,0.3205795,0.1554413,0.4718552,0.2580872c0.3042984,0.2021751,0.5876732,0.4454174,0.8294449,0.7359428
		c0.2315826,0.2973557,0.4352798,0.6264782,0.5467415,0.9863148c0.2560005,0.7151432,0.2063446,1.4645023,0.0352783,2.1321716
		c-0.0420036,0.1691589-0.0966492,0.3336563-0.159771,0.4985504c-0.0608063,0.1754227-0.1761475,0.3713074-0.2829628,0.507782
		c-0.2245636,0.2937279-0.5189209,0.564003-0.8967628,0.6980476c-0.3807449,0.1361465-0.7741852,0.1254311-1.1429062-0.0032234
		c-0.291893-0.1064987-0.6449471-0.2981491-0.8778725-0.5530624c-0.2455482-0.2614288-0.3868866-0.6160088-0.3917465-0.9531212
		C46.6317177,32.2867737,46.7165794,31.9628353,46.867981,31.6831322z"/>
	<path style="fill:#00A0E7;" d="M17.132019,31.6831322c0.0737457,0.3074837,0.0809212,0.6264038,0.0136948,0.9135056
		c-0.0635834,0.2910576-0.2388,0.5257874-0.4535332,0.6908073c-0.2311745,0.1716537-0.4601898,0.2620773-0.7717743,0.3275032
		c-0.2375755,0.0400276-0.5087166,0.0055923-0.7066307-0.1113853c-0.206356-0.1093674-0.3862114-0.2929077-0.5189362-0.5137711
		c-0.0722542-0.122139-0.1121178-0.2042999-0.1423988-0.3314743c-0.0361328-0.1338539-0.0679283-0.2729759-0.0876083-0.4126778
		c-0.0861549-0.5585766-0.0447769-1.1219387,0.1478844-1.5903759c0.0864372-0.2405491,0.2376251-0.4445248,0.3999405-0.6355782
		c0.173008-0.1852951,0.3797798-0.34161,0.6072922-0.4792747c0.1095886-0.0732613,0.2417526-0.1227989,0.3604012-0.1868591
		l0.0911636-0.0458584l0.0227585-0.0115261l0.0056915-0.0028858c0.0326958-0.0129051-0.0414238,0.0159397-0.032444,0.0125465
		l0.0034866-0.0012093l0.0139503-0.0048351l0.0557976-0.0193462l0.2231903-0.0773811
		c0.1571846-0.0615044,0.2954559-0.0989113,0.4013176-0.1082096c0.1152229-0.0236034,0.2311745-0.0489559,0.3611145-0.0451641
		c0.2528267-0.021431,0.4976997,0.0094204,0.7312012,0.0781689c0.2351036,0.0646667,0.4574127,0.1787033,0.6639671,0.3286209
		c0.2110901,0.1420364,0.394619,0.3389359,0.5669556,0.5427647c0.1662827,0.1999416,0.3269386,0.4597397,0.4214935,0.6592808
		l-0.0172958-0.045166c0.118763,0.3793583,0.2289581,0.8138962,0.3112907,1.2322903
		c0.0858269,0.4229889,0.1464119,0.8516655,0.201458,1.2799988c0.1013813,0.8580208,0.1403484,1.722641,0.1026974,2.5796547
		c-0.0256653,0.4277458-0.0467777,0.8556519-0.1032581,1.2785912c-0.0442505,0.4245415-0.1238976,0.8436356-0.21418,1.2578316
		l-0.2891502,1.2952995c-0.1021919,0.4340096-0.2047691,0.8682442-0.2776031,1.3314247
		c-0.1772919,0.9114799-0.2709541,1.8186188-0.3241692,2.7330208c-0.059124,0.9127083-0.0349274,1.8317909,0.0428772,2.7419548
		c0.0990715,0.9094658,0.2380753,1.8131943,0.4743271,2.6935844c0.2544365,0.8724823,0.5599442,1.7397614,1.0413456,2.5046654
		c-0.295023-0.8487015-0.4711781-1.7203712-0.5714588-2.5983238c-0.1222496-0.8735275-0.1471672-1.7565269-0.1343422-2.6321831
		c0.021244-0.8767128,0.0702896-1.7506027,0.1911125-2.6178589c0.0973454-0.8672485,0.2664795-1.7332191,0.4461079-2.5738411
		c0.0779381-0.4190941,0.1947289-0.8520355,0.3119164-1.2851982l0.3477535-1.3111115
		c0.1008625-0.4581032,0.1866875-0.9208832,0.2356663-1.3853493c0.0609932-0.4640694,0.0877514-0.930088,0.0997448-1.3955765
		c0.0187244-0.9311333-0.0453663-1.8584099-0.1753139-2.7737999c-0.0694141-0.4572029-0.1451874-0.9130249-0.2476768-1.3645744
		c-0.1004639-0.4568272-0.2014046-0.8926601-0.3520737-1.3662491l-0.0083504-0.026247l-0.0090866-0.0192909
		c-0.1743202-0.3700104-0.355751-0.6448898-0.5868778-0.9333344c-0.2316704-0.2765732-0.484169-0.5441551-0.7946854-0.7584152
		c-0.3023911-0.2196674-0.6484947-0.3984795-1.0200996-0.5031433c-0.3684196-0.1077251-0.7620354-0.1577778-1.1355362-0.1195335
		c-0.186924,0.0023193-0.3794479,0.0405121-0.5719147,0.0865002c-0.2067261,0.0396519-0.3694649,0.0924778-0.5055466,0.1488304
		l-0.221714,0.0815544l-0.0554276,0.0203896l-0.0639343,0.0257988L15.60672,28.2559586l-0.1193848,0.0612354
		c-0.15765,0.0861225-0.3205795,0.1554413-0.4718552,0.2580872c-0.3042984,0.2021751-0.5876732,0.4454174-0.8294449,0.7359428
		c-0.2315826,0.2973557-0.4352798,0.6264782-0.5467415,0.9863148c-0.2560005,0.7151432-0.2063446,1.4645023-0.0352783,2.1321716
		c0.0420036,0.1691589,0.0966492,0.3336563,0.159771,0.4985466c0.0608063,0.1754227,0.1761475,0.3713112,0.2829628,0.507782
		c0.2245636,0.2937317,0.5189209,0.5640068,0.8967628,0.6980515c0.3807449,0.1361465,0.7741852,0.1254311,1.1429062-0.0032234
		c0.291893-0.1064987,0.6449471-0.2981491,0.8778725-0.5530624c0.2455482-0.2614326,0.3868866-0.6160088,0.3917465-0.9531212
		C17.3682823,32.2867699,17.2834206,31.9628353,17.132019,31.6831322z"/>
	<path style="fill:#00A0E7;" d="M38.3933563,34.201664c0,0,1.0499382,1.3013,2.238678,1.835247
		c1.1887436,0.5339508,1.9621239,1.7079086,2.133213,2.7922478c0,0-0.6916809-1.5988998-2.8879662-1.6917686
		S38.0763702,34.5115623,38.3933563,34.201664z"/>
	<path style="fill:#00A0E7;" d="M41.3711243,28.5860653c0,0,0.2936707,0.8190956,0.7867241,1.2847328
		c0.4930534,0.4656391,0.6725502,1.1748753,0.5713158,1.737114c0,0-0.0667076-0.9041462-1.1304016-1.3251839
		C40.5350685,29.8616924,41.1623421,28.6842117,41.3711243,28.5860653z"/>
	<path style="fill:#00A0E7;" d="M48.0671539,43.4523659c0,0-0.6732864,0.9223709-1.4706955,1.3247528
		c-0.7974129,0.4023819-1.285305,1.2290077-1.3624153,1.9753876c0,0,0.4158325-1.1144295,1.9225082-1.2471886
		C48.6632271,45.3725548,48.2966957,43.6541328,48.0671539,43.4523659z"/>
	<path style="fill:#00A0E7;" d="M49.6958275,36.9400711c0,0-1.1166344,1.0887642-2.282032,1.4490585
		c-1.1653938,0.3602982-2.010582,1.3623466-2.2843475,2.3498573c0,0,0.8136787-1.4060059,2.872776-1.2417564
		C50.0613251,39.6614838,49.958992,37.2640228,49.6958275,36.9400711z"/>
	<path style="fill:#00A0E7;" d="M46.2626038,33.2611885c0,0-0.5132103,0.7030716-1.1210327,1.0097847
		s-0.9797173,0.9368057-1.0384941,1.5057297c0,0,0.316967-0.8494682,1.4654236-0.9506645
		S46.4375687,33.4149818,46.2626038,33.2611885z"/>
	<path style="fill:#00A0E7;" d="M41.3522034,41.2235985c0,0,0.5821457,0.6467361,1.2148743,0.8908234
		c0.6327248,0.2440834,1.067585,0.8324165,1.1869431,1.3910904c0,0-0.4043388-0.8114471-1.5482483-0.7980309
		C41.0618591,42.7209015,41.1961823,41.3935394,41.3522034,41.2235985z"/>
	<circle style="fill:#00A0E7;" cx="48.125" cy="32.125" r="0.875"/>
	<path style="fill:#00A0E7;" d="M25.6066418,34.201664c0,0-1.0499344,1.3013-2.2386761,1.835247
		c-1.1887417,0.5339508-1.9621239,1.7079086-2.133213,2.7922478c0,0,0.6916828-1.5988998,2.8879662-1.6917686
		S25.9236317,34.5115623,25.6066418,34.201664z"/>
	<path style="fill:#00A0E7;" d="M22.6288757,28.5860653c0,0-0.2936707,0.8190956-0.7867241,1.2847328
		c-0.4930534,0.4656391-0.6725502,1.1748753-0.5713139,1.737114c0,0,0.0667076-0.9041462,1.1304016-1.3251839
		C23.4649315,29.8616924,22.837656,28.6842117,22.6288757,28.5860653z"/>
	<path style="fill:#00A0E7;" d="M15.9328442,43.4523659c0,0,0.6732883,0.9223709,1.4706993,1.3247528
		s1.2853012,1.2290077,1.3624115,1.9753876c0,0-0.4158325-1.1144295-1.9225082-1.2471886
		C15.336771,45.3725548,15.7033024,43.6541328,15.9328442,43.4523659z"/>
	<path style="fill:#00A0E7;" d="M14.3041706,36.9400711c0,0,1.1166382,1.0887642,2.2820339,1.4490585
		c1.1653957,0.3602982,2.010582,1.3623466,2.2843456,2.3498573c0,0-0.8136768-1.4060059-2.872776-1.2417564
		C13.9386759,39.6614838,14.041008,37.2640228,14.3041706,36.9400711z"/>
	<path style="fill:#00A0E7;" d="M17.7373981,33.2611885c0,0,0.5132103,0.7030716,1.1210327,1.0097847
		s0.9797153,0.9368057,1.0384922,1.5057297c0,0-0.316967-0.8494682-1.4654236-0.9506645
		S17.5624294,33.4149818,17.7373981,33.2611885z"/>
	<path style="fill:#00A0E7;" d="M22.6477947,41.2235985c0,0-0.5821438,0.6467361-1.2148705,0.8908234
		c-0.6327286,0.2440834-1.067585,0.8324165-1.1869431,1.3910904c0,0,0.404335-0.8114471,1.5482483-0.7980309
		C22.9381409,42.7209015,22.8038158,41.3935394,22.6477947,41.2235985z"/>
	<circle style="fill:#00A0E7;" cx="15.875" cy="32.125" r="0.875"/>
</g>
<g>
	<g>
		<g>
			<path style="fill:#00A0E7;" d="M23.0214081,10.5340071c0,0,0.0045185,0.0083895,0.0134125,0.0249081
				c0.0010662,0.0079508-0.0068684,0.0174198,0.0050125,0.0352497c0.0201988,0.0412292,0.0593224,0.0916882,0.1186657,0.1234932
				c0.0452995,0.039999,0.1577682-0.0072737,0.2352085-0.0739927c0.0293484-0.0426474,0.0597916-0.0868883,0.0913124-0.1326923
				c-0.0049515-0.0234623,0.0055103-0.0332975,0.0122261-0.0592623c0.0049744-0.0595188-0.003603-0.1332865-0.0501347-0.216156
				c-0.0712128-0.1334066-0.3582745-0.2896767-0.5969334-0.3245029c-0.2485561-0.0302114-0.5192051,0.0262127-0.7267799,0.2822628
				c-0.0181274,0.0176611-0.0805359,0.0705385-0.0638142,0.0590839l-0.0788708,0.1210051
				c-0.0390625,0.075738-0.1384754,0.1764231-0.1280231,0.2343397c-0.0365639,0.1174507-0.0628548,0.270978-0.0204124,0.4317522
				c0.0283127,0.1593962,0.1293678,0.3189983,0.2426147,0.4615965c0.0968513,0.1252508,0.286644,0.2346325,0.4657135,0.325387
				c0.3677311,0.1805563,0.7929745,0.2227926,1.1700268,0.0509062c0.1849518-0.0948458,0.3625832-0.2254963,0.5162582-0.3995771
				c0.0600243-0.0507832,0.1502056-0.1923552,0.2247143-0.2852573c0.0458221-0.0984774,0.1104298-0.1790285,0.1424599-0.2908688
				c0.1768417-0.4174128,0.0852661-0.9067488-0.1994743-1.3162632c-0.0681763-0.1022291-0.1483688-0.2022066-0.2333698-0.2874718
				c-0.0721092-0.0728111-0.183672-0.1476021-0.2915001-0.2181454c-0.219635-0.1373281-0.4592743-0.2478724-0.7074833-0.3143539
				c-0.498106-0.1354504-1.0243473-0.0579872-1.4638577,0.2359562c-0.2111416,0.1530037-0.4220371,0.3477621-0.5823288,0.5548401
				c-0.0871277,0.1194868-0.1934757,0.244277-0.2412548,0.355319c-0.0677376,0.1089191-0.1215649,0.2292585-0.1631012,0.3591957
				c-0.1866798,0.5062332-0.0950623,1.073884,0.1782055,1.5607357c0.133112,0.2387867,0.318634,0.4829168,0.5057144,0.6535301
				c0.2082958,0.1713371,0.4633026,0.3286333,0.7184124,0.4483185c0.5162754,0.2398968,1.0871925,0.3403959,1.6200008,0.2140045
				c0.5345821-0.1139183,1.0124626-0.4488955,1.384737-0.8825035c0.3869705-0.4445744,0.6585369-0.9238796,0.749012-1.4632282
				c0.0962086-0.5343056-0.0442429-1.081604-0.2864227-1.5599804c-0.1257973-0.2390242-0.280962-0.4622602-0.4530144-0.6653728
				c-0.1702576-0.2120771-0.3562164-0.3512468-0.5861015-0.5002918c-0.4419918-0.2844954-0.9235706-0.4864101-1.405447-0.5748758
				c-0.9722595-0.1880336-1.9034443,0.1910872-2.5268764,0.8045349c-0.1458721,0.1602879-0.3214531,0.3063183-0.4353886,0.467576
				c-0.1267395,0.1754389-0.2913494,0.3430471-0.3710175,0.513957c-0.09688,0.168973-0.2002697,0.329627-0.2585487,0.5119267
				c-0.0334129,0.0881796-0.07164,0.1738634-0.1005135,0.2607393c-0.0200176,0.0893211-0.0397301,0.177289-0.0591335,0.2638693
				c-0.1512012,0.6979761-0.0181885,1.3446321,0.1813946,1.8289213c0.1972561,0.4893055,0.4286232,0.8468971,0.6006603,1.0759659
				c0.1706047,0.2318239,0.2776814,0.3442621,0.2776814,0.3442621s-0.125309-0.090538-0.329813-0.2981749
				c-0.1976719-0.2113543-0.4912376-0.533329-0.7433567-1.0311251c-0.2414989-0.4894524-0.4795074-1.1847839-0.3343334-1.98489
				c0.0186462-0.0985098,0.03759-0.1985979,0.0568256-0.3002262c0.0285263-0.0986805,0.0667801-0.1959562,0.1009369-0.2963715
				c0.0587006-0.20436,0.1686916-0.3972034,0.2769718-0.5976439c0.1007862-0.2149115,0.2419224-0.3622322,0.3672829-0.5499601
				c0.1360512-0.206686,0.3169994-0.3479748,0.4797611-0.5302c0.6738434-0.681313,1.7805443-1.1467853,2.8944836-0.9309597
				c0.550499,0.0979824,1.08354,0.319912,1.5726204,0.630353c0.2366314,0.1466627,0.5019798,0.3499975,0.6885338,0.5828018
				c0.1958656,0.2283268,0.3714905,0.4776049,0.5174618,0.7509212c0.2823677,0.5441866,0.4585838,1.2050171,0.3464165,1.8593178
				c-0.0978794,0.6496973-0.4515667,1.2557964-0.8582535,1.7204866c-0.4115429,0.4847136-0.9757843,0.8981934-1.6362648,1.0445471
				c-0.6589565,0.1596928-1.3494644,0.0352077-1.9408455-0.2367249c-0.2987614-0.1398287-0.5717793-0.3023825-0.8389568-0.5191774
				c-0.2659855-0.2443171-0.4524593-0.5012112-0.6216698-0.7970819c-0.3308525-0.5766783-0.4572258-1.3378086-0.2148399-1.9871025
				c0.0953789-0.3198891,0.3107605-0.642046,0.4815311-0.8594122c0.2089214-0.2681694,0.4408321-0.4798832,0.7091904-0.6739721
				c0.5467834-0.3736877,1.2641277-0.4757261,1.8723049-0.3020487c0.3052063,0.0823793,0.5870743,0.213912,0.8454437,0.3757687
				c0.1273346,0.0844564,0.2530689,0.1644354,0.3801079,0.289772c0.1127148,0.1137972,0.2079182,0.2333918,0.294445,0.362484
				c0.1720123,0.2559938,0.3044186,0.5474739,0.3552589,0.8633223c0.0531731,0.315032,0.0100136,0.6456671-0.1028404,0.9291906
				c-0.0441246,0.1453962-0.1376896,0.2813969-0.211277,0.4152403c-0.0890007,0.1101961-0.1327667,0.1953659-0.2572918,0.3239594
				c-0.1879711,0.2112751-0.4192715,0.3882284-0.6764488,0.5159502c-0.5330791,0.2475929-1.1410179,0.1713276-1.5904408-0.0550594
				c-0.2255497-0.117528-0.4422779-0.2314196-0.6279869-0.450469c-0.1604061-0.1999788-0.2987537-0.4182587-0.3522873-0.6783724
				c-0.0628548-0.2517595-0.0422821-0.5222282,0.0617943-0.7805643c0.0402775-0.1471682,0.1042995-0.1849718,0.1542778-0.279829
				l0.0790119-0.1209106c0.0631161-0.0966263,0.0882797-0.0915136,0.1342545-0.1413832
				c0.2808685-0.3349867,0.7776108-0.4675255,1.1493835-0.3905764c0.1922169,0.029129,0.3589287,0.1049957,0.5062408,0.1873503
				c0.0721569,0.0353203,0.1525307,0.0978737,0.2120438,0.1417904c0.0854416,0.0683832,0.1298885,0.1371336,0.1819077,0.2104988
				c0.0981522,0.1468325,0.1541576,0.3306589,0.1436844,0.5135069c-0.0079994,0.0926075-0.0438461,0.1932096-0.0761013,0.2789497
				c-0.0294933,0.0488157-0.0579815,0.0959673-0.0854435,0.1414204c-0.1129742,0.1462879-0.1782875,0.2191839-0.3021431,0.293622
				c-0.1127605,0.0774632-0.2369118,0.1056242-0.3536797,0.1266232c-0.2269974,0.0137386-0.3942242-0.028532-0.500412-0.0632143
				c-0.0536652-0.0168905-0.1047707-0.044754-0.1357536-0.0565624c-0.0206947-0.0069494-0.0312061-0.010479-0.0312061-0.010479
				l-0.0123577-0.0041504c-0.2415123-0.0811033-0.3726807-0.3460598-0.2929707-0.5917969
				c0.0797081-0.2457371,0.3401108-0.379199,0.5816231-0.2980957
				C22.8768387,10.3527975,22.9672947,10.4339828,23.0214081,10.5340071z"/>
			<path style="fill:#00A0E7;" d="M40.9785919,10.5340071c0,0-0.0045166,0.0083895-0.0134125,0.0249081
				c-0.0010643,0.0079508,0.0068665,0.0174198-0.0050125,0.0352497c-0.0201988,0.0412292-0.0593224,0.0916882-0.1186638,0.1234932
				c-0.0453033,0.039999-0.1577721-0.0072737-0.2352104-0.0739927c-0.0293465-0.0426474-0.0597916-0.0868883-0.0913124-0.1326923
				c0.0049515-0.0234623-0.0055084-0.0332975-0.0122261-0.0592623c-0.0049744-0.0595188,0.0036049-0.1332865,0.0501366-0.216156
				c0.0712128-0.1334066,0.3582726-0.2896767,0.5969315-0.324502c0.2485542-0.0302124,0.5192032,0.0262117,0.7267799,0.2822618
				c0.0181274,0.0176611,0.0805359,0.0705385,0.0638161,0.0590839l0.0788689,0.1210051
				c0.0390625,0.075738,0.1384773,0.1764231,0.1280251,0.2343397c0.0365639,0.1174507,0.062851,0.270978,0.0204124,0.4317522
				c-0.0283127,0.1593962-0.1293678,0.3189983-0.2426147,0.4615965c-0.0968552,0.1252508-0.2866478,0.2346325-0.4657135,0.325387
				c-0.367733,0.1805563-0.7929764,0.2227926-1.1700287,0.0509062c-0.1849518-0.0948458-0.3625832-0.2254963-0.5162582-0.3995771
				c-0.0600243-0.0507832-0.1502037-0.1923542-0.2247124-0.2852573c-0.0458221-0.0984774-0.1104317-0.1790285-0.1424599-0.2908688
				c-0.1768417-0.4174128-0.0852699-0.9067488,0.1994705-1.3162632c0.0681763-0.1022291,0.1483688-0.2022066,0.2333717-0.2874718
				c0.0721092-0.0728111,0.1836739-0.1476021,0.2915001-0.2181454c0.219635-0.1373281,0.4592743-0.2478724,0.7074814-0.3143539
				c0.4981079-0.1354504,1.0243492-0.0579872,1.4638596,0.2359562c0.2111435,0.1530037,0.422039,0.3477621,0.5823288,0.5548401
				c0.0871277,0.1194868,0.1934776,0.244277,0.2412529,0.355319c0.0677376,0.1089191,0.1215668,0.2292585,0.1631012,0.3591967
				c0.1866837,0.5062323,0.0950661,1.0738831-0.1782036,1.5607347c-0.13311,0.2387867-0.318634,0.4829168-0.5057144,0.6535301
				c-0.2082939,0.1713371-0.4633026,0.3286333-0.7184143,0.4483185c-0.5162735,0.2398968-1.0871887,0.3403959-1.6199989,0.2140045
				c-0.534584-0.1139183-1.0124626-0.4488955-1.3847351-0.8825035c-0.3869705-0.4445744-0.6585388-0.9238796-0.749012-1.4632282
				c-0.0962105-0.5343056,0.0442429-1.081604,0.2864227-1.5599804c0.1257973-0.2390242,0.2809601-0.4622602,0.4530144-0.6653728
				c0.1702576-0.2120771,0.3562164-0.3512468,0.5860977-0.5002918c0.4419937-0.2844954,0.9235725-0.4864101,1.4054489-0.5748754
				c0.9722595-0.1880341,1.9034462,0.1910868,2.5268784,0.8045344c0.1458702,0.1602879,0.3214531,0.3063183,0.4353867,0.467576
				c0.1267395,0.1754389,0.2913513,0.3430471,0.3710175,0.513958c0.0968781,0.168972,0.2002716,0.3296261,0.2585487,0.5119257
				c0.0334129,0.0881796,0.07164,0.1738634,0.1005135,0.2607393c0.0200157,0.0893211,0.0397301,0.177289,0.0591316,0.2638693
				c0.1512032,0.6979761,0.0181885,1.3446321-0.1813927,1.8289213c-0.197258,0.4893055-0.4286232,0.8468971-0.6006622,1.0759659
				c-0.1706047,0.2318239-0.2776794,0.3442621-0.2776794,0.3442621s0.125309-0.090538,0.3298111-0.2981749
				c0.1976738-0.2113543,0.4912415-0.533329,0.7433586-1.0311241c0.241497-0.4894533,0.4795074-1.1847849,0.3343353-1.9848909
				c-0.0186462-0.0985098-0.03759-0.1985979-0.0568275-0.3002253c-0.0285263-0.0986814-0.0667801-0.1959572-0.1009369-0.2963724
				c-0.0587006-0.20436-0.1686897-0.3972025-0.2769737-0.5976439c-0.1007843-0.2149115-0.2419205-0.3622322-0.3672829-0.5499601
				c-0.1360474-0.206686-0.3169975-0.3479748-0.4797592-0.5302c-0.6738434-0.681313-1.7805443-1.1467853-2.8944817-0.9309592
				c-0.550499,0.0979819-1.0835419,0.3199115-1.5726204,0.6303525c-0.2366333,0.1466627-0.5019798,0.3499975-0.6885376,0.5828018
				c-0.1958656,0.2283268-0.3714867,0.4776049-0.5174599,0.7509212c-0.2823677,0.5441866-0.4585838,1.2050171-0.3464165,1.8593178
				c0.0978775,0.6496973,0.4515686,1.2557964,0.8582535,1.7204866c0.4115448,0.4847136,0.9757843,0.8981934,1.6362648,1.0445471
				c0.6589546,0.1596928,1.3494644,0.0352077,1.9408455-0.2367249c0.2987633-0.1398277,0.5717773-0.3023825,0.8389549-0.5191774
				c0.2659874-0.2443171,0.4524612-0.5012112,0.6216698-0.7970819c0.3308525-0.5766783,0.4572258-1.3378086,0.2148438-1.9871025
				c-0.0953789-0.3198891-0.3107605-0.642046-0.4815331-0.8594122c-0.2089195-0.2681694-0.4408302-0.4798832-0.7091904-0.6739721
				c-0.5467834-0.3736877-1.2641296-0.4757261-1.872303-0.3020487c-0.3052101,0.0823793-0.5870743,0.213912-0.8454437,0.3757687
				c-0.1273346,0.0844564-0.2530708,0.1644354-0.3801117,0.289772c-0.1127129,0.1137972-0.2079163,0.2333918-0.2944412,0.362484
				c-0.1720161,0.2559938-0.3044205,0.5474739-0.3552628,0.8633223c-0.0531693,0.315032-0.0100098,0.6456671,0.1028404,0.9291906
				c0.0441284,0.1453962,0.1376915,0.2813969,0.2112808,0.4152403c0.0889969,0.1101961,0.1327629,0.1953659,0.2572899,0.3239594
				c0.187973,0.2112751,0.4192734,0.3882284,0.6764488,0.5159502c0.5330811,0.2475929,1.1410179,0.1713276,1.5904427-0.0550594
				c0.2255478-0.117528,0.442276-0.2314196,0.6279831-0.450469c0.160408-0.1999788,0.2987556-0.4182587,0.3522911-0.6783714
				c0.062851-0.2517605,0.0422821-0.5222292-0.0617943-0.7805653c-0.0402794-0.1471682-0.1043015-0.1849718-0.1542778-0.279829
				l-0.0790138-0.1209106c-0.0631142-0.0966263-0.0882797-0.0915136-0.1342545-0.1413832
				c-0.2808685-0.3349867-0.7776108-0.4675255-1.1493835-0.3905764c-0.192215,0.029129-0.3589287,0.1049957-0.5062408,0.1873503
				c-0.072155,0.0353203-0.1525307,0.0978737-0.2120438,0.1417904c-0.0854416,0.0683832-0.1298866,0.1371336-0.1819077,0.2104988
				c-0.0981522,0.1468325-0.1541557,0.3306589-0.1436844,0.5135069c0.0079994,0.0926075,0.0438461,0.1932096,0.0761032,0.2789497
				c0.0294914,0.0488157,0.0579796,0.0959673,0.0854416,0.1414204c0.1129761,0.1462879,0.1782875,0.2191839,0.3021431,0.293622
				c0.1127625,0.0774632,0.2369118,0.1056242,0.3536797,0.1266241c0.2269974,0.0137377,0.3942261-0.028533,0.500412-0.0632153
				c0.0536652-0.0168905,0.1047707-0.044754,0.1357536-0.0565624c0.0206947-0.0069494,0.0312042-0.010479,0.0312042-0.010479
				l0.0123596-0.0041504c0.2415123-0.0811033,0.3726807-0.3460598,0.2929726-0.5917969
				c-0.0797119-0.2457371-0.3401108-0.379199-0.5816269-0.2980957
				C41.1231613,10.3527975,41.0327072,10.4339828,40.9785919,10.5340071z"/>
		</g>
		<g>
			<g>
				<path style="fill:#C7E8FA;" d="M41.375,14.4886475c1.7918701,0,3.3775406,0.9893799,4.375,2.5113525v-3.4364014
					c-1.2406693-0.9899902-2.7470322-1.5749512-4.375-1.5749512c-1.6279144,0-3.1343307,0.5849609-4.375,1.5749512V17
					C37.9974594,15.4780273,39.5831299,14.4886475,41.375,14.4886475z"/>
				<path style="fill:#00A0E7;" d="M46.25,18.6757813l-0.9179688-1.4018555
					c-0.9521484-1.4521484-2.3935547-2.2851563-3.9570313-2.2851563s-3.0048828,0.8330078-3.9570313,2.2851563L36.5,18.6757813
					v-5.3530273l0.1884766-0.1499023c2.7597656-2.203125,6.6132813-2.203125,9.3730469,0L46.25,13.3227539V18.6757813z
					 M41.375,13.9887695c1.4492188,0,2.8066406,0.5766602,3.875,1.6176758V13.809082
					c-2.3183594-1.7294922-5.4316406-1.7294922-7.75,0v1.7973633C38.5683594,14.5654297,39.9257813,13.9887695,41.375,13.9887695z"
					/>
			</g>
			<g>
				<path style="fill:#C7E8FA;" d="M22.625,14.4886475c1.7918701,0,3.3775406,0.9893799,4.375,2.5113525v-3.4364014
					c-1.2406693-0.9899902-2.7470322-1.5749512-4.375-1.5749512c-1.6279144,0-3.1343307,0.5849609-4.375,1.5749512V17
					C19.2474594,15.4780273,20.8331299,14.4886475,22.625,14.4886475z"/>
				<path style="fill:#00A0E7;" d="M27.5,18.6748047l-0.9179688-1.4008789
					C25.6298828,15.8217773,24.1875,14.9887695,22.625,14.9887695s-3.0048828,0.8330078-3.9570313,2.2851563L17.75,18.6748047
					v-5.3520508l0.1879883-0.1499023c2.7626953-2.2041016,6.6113281-2.2041016,9.3740234,0L27.5,13.3227539V18.6748047z
					 M22.625,13.9887695c1.4492188,0,2.8066406,0.5766602,3.875,1.6176758V13.809082
					c-2.3183594-1.7294922-5.4316406-1.7294922-7.75,0v1.7973633C19.8183594,14.5654297,21.1757813,13.9887695,22.625,13.9887695z"
					/>
			</g>
		</g>
	</g>
	<g>
		<path style="fill:#00A0E7;" d="M25.25,24l-0.0224724-0.0337105c0.6355286-0.6382198,1.0291061-1.5103989,1.0604668-2.4726429
			L27,21.375l-0.7120056-0.1186886c-0.0313606-0.962244-0.4249382-1.8343811-1.0604668-2.4726009L25.25,18.75l-0.0337105,0.0224724
			c-0.6382198-0.6355286-1.5103569-1.0291061-2.4726009-1.0604668L22.625,17l-0.1186466,0.7120056
			c-0.962244,0.0313606-1.8344231,0.4249382-2.4726429,1.0604668L20,18.75l0.0224724,0.0337105
			c-0.6355286,0.6382198-1.0291061,1.5103569-1.0604668,2.4726009L18.25,21.375l0.7120056,0.1186466
			c0.0313606,0.962244,0.4249382,1.8344231,1.0604668,2.4726429L20,24l0.0337105-0.0224724
			c0.6382198,0.6355286,1.5103989,1.0291061,2.4726429,1.0604668L22.625,25.75l0.1186886-0.7120056
			c0.962244-0.0313606,1.8343811-0.4249382,2.4726009-1.0604668L25.25,24z M25.0257378,23.6635857l-0.4028492-0.6042099
			c0.3248768-0.3849068,0.5371342-0.8606873,0.5972042-1.3877392l0.7119198-0.1186466
			C25.8878365,22.3692875,25.5559502,23.1075249,25.0257378,23.6635857z M25.9320126,21.19701l-0.7119198-0.1186466
			c-0.06007-0.5270519-0.2722836-1.0028324-0.5971622-1.3877392l0.4028072-0.6042099
			C25.5559502,19.6424751,25.8878365,20.3807125,25.9320126,21.19701z M24.9135857,18.9742622l-0.6042099,0.4028072
			c-0.3849068-0.3248787-0.8606873-0.5370922-1.3877392-0.5971622L22.80299,18.0679874
			C23.6192875,18.1121635,24.3575249,18.4440498,24.9135857,18.9742622z M22.44701,18.0679874l-0.1186466,0.7119198
			c-0.5270519,0.06007-1.0028324,0.2723274-1.3877392,0.5972042l-0.6042099-0.4028492
			C20.8924751,18.4440498,21.6307125,18.1121635,22.44701,18.0679874z M20.2242622,19.0864143l0.4028492,0.6042538
			c-0.3248348,0.3849049-0.5371342,0.8606434-0.5972042,1.3876953L19.3179874,21.19701
			C19.3621635,20.3807125,19.6940498,19.6424751,20.2242622,19.0864143z M19.3179874,21.55299l0.7119198,0.1186466
			c0.06007,0.5270519,0.2723694,1.0027905,0.5972042,1.3876953l-0.4028492,0.6042538
			C19.6940498,23.1075249,19.3621635,22.3692875,19.3179874,21.55299z M20.3364143,23.7757378l0.6042538-0.4028492
			c0.3849049,0.3248348,0.8606434,0.5371342,1.3876953,0.5972042l0.1186466,0.7119198
			C21.6307125,24.6378365,20.8924751,24.3059502,20.3364143,23.7757378z M22.80299,24.6820126l0.1186466-0.7119198
			c0.5270519-0.06007,1.0027905-0.2723694,1.3876953-0.5972042l0.6042538,0.4028492
			C24.3575249,24.3059502,23.6192875,24.6378365,22.80299,24.6820126z"/>
		<path style="fill:#00A0E7;" d="M44,24l-0.0224724-0.0337105c0.6355286-0.6382198,1.0291061-1.5103989,1.0604668-2.4726429
			L45.75,21.375l-0.7120056-0.1186886c-0.0313606-0.962244-0.4249382-1.8343811-1.0604668-2.4726009L44,18.75l-0.0337105,0.0224724
			c-0.6382179-0.6355286-1.5103569-1.0291061-2.472599-1.0604668L41.375,17l-0.1186447,0.7120056
			c-0.9622459,0.0313606-1.8344269,0.4249382-2.4726448,1.0604668L38.75,18.75l0.0224724,0.0337105
			c-0.6355286,0.6382198-1.0291061,1.5103569-1.0604668,2.4726009L37,21.375l0.7120056,0.1186466
			c0.0313606,0.962244,0.4249382,1.8344231,1.0604668,2.4726429L38.75,24l0.0337105-0.0224724
			c0.6382179,0.6355286,1.5103989,1.0291061,2.4726448,1.0604668L41.375,25.75l0.1186905-0.7120056
			c0.9622421-0.0313606,1.8343811-0.4249382,2.472599-1.0604668L44,24z M43.7757378,23.6635857l-0.4028511-0.6042099
			c0.3248787-0.3849068,0.5371361-0.8606873,0.5972061-1.3877392l0.7119217-0.1186466
			C44.6378365,22.3692875,44.3059502,23.1075249,43.7757378,23.6635857z M44.6820145,21.19701l-0.7119217-0.1186466
			c-0.06007-0.5270519-0.2722855-1.0028324-0.5971603-1.3877392l0.4028053-0.6042099
			C44.3059502,19.6424751,44.6378365,20.3807125,44.6820145,21.19701z M43.6635857,18.9742622l-0.6042099,0.4028072
			c-0.3849068-0.3248787-0.8606873-0.5370922-1.3877373-0.5971622L41.55299,18.0679874
			C42.3692856,18.1121635,43.1075249,18.4440498,43.6635857,18.9742622z M41.19701,18.0679874l-0.1186485,0.7119198
			c-0.52705,0.06007-1.0028305,0.2723274-1.3877373,0.5972042l-0.6042099-0.4028492
			C39.6424751,18.4440498,40.3807144,18.1121635,41.19701,18.0679874z M38.9742622,19.0864143l0.4028511,0.6042538
			c-0.3248367,0.3849049-0.5371361,0.8606434-0.5972061,1.3876953L38.0679855,21.19701
			C38.1121635,20.3807125,38.4440498,19.6424751,38.9742622,19.0864143z M38.0679855,21.55299l0.7119217,0.1186466
			c0.06007,0.5270519,0.2723694,1.0027905,0.5972061,1.3876953l-0.4028511,0.6042538
			C38.4440498,23.1075249,38.1121635,22.3692875,38.0679855,21.55299z M39.0864143,23.7757378l0.6042519-0.4028492
			c0.3849068,0.3248348,0.8606453,0.5371342,1.3876953,0.5972042l0.1186485,0.7119198
			C40.3807144,24.6378365,39.6424751,24.3059502,39.0864143,23.7757378z M41.55299,24.6820126l0.1186485-0.7119198
			c0.52705-0.06007,1.0027885-0.2723694,1.3876953-0.5972042l0.6042519,0.4028492
			C43.1075249,24.3059502,42.3692856,24.6378365,41.55299,24.6820126z"/>
	</g>
</g>
<g>
	<path style="fill:#00A0E7;" d="M33.6188354,7.9446869l1.0328064-1.7213287l-1.7213287,1.0328064
		C33.2171478,7.4214172,33.453537,7.6578522,33.6188354,7.9446869z"/>
	<path style="fill:#00A0E7;" d="M31.0696869,7.2561646l-1.7213287-1.0328064l1.0328064,1.7213287
		C30.546463,7.6578979,30.7828979,7.4214172,31.0696869,7.2561646z"/>
	<path style="fill:#00A0E7;" d="M32,7c0.2277374,0,0.4432526,0.0467377,0.6451721,0.1210785L32,3.25l-0.6451721,3.8710785
		C31.5567474,7.0467377,31.7722626,7,32,7z"/>
	<path style="fill:#00A0E7;" d="M35.75,8.875l-1.9468689-0.4867401C33.8452911,8.5444031,33.875,8.7055359,33.875,8.875
		s-0.0297089,0.3305969-0.0718689,0.4867401L35.75,8.875z"/>
	<path style="fill:#00A0E7;" d="M32.9303589,10.4938354l1.721283,1.0328064l-1.0328064-1.7213287
		C33.4535828,10.0921021,33.2171478,10.328537,32.9303589,10.4938354z"/>
	<path style="fill:#00A0E7;" d="M32,10.75c-0.2277374,0-0.4432526-0.0466919-0.6452179-0.1210785L32,14.5l0.6451721-3.8710785
		C32.4432526,10.7033081,32.2277374,10.75,32,10.75z"/>
	<path style="fill:#00A0E7;" d="M30.125,8.875c0-0.1694641,0.0297089-0.3305969,0.0718689-0.4867401L28.25,8.875
		l1.9468689,0.4867401C30.1547089,9.2055969,30.125,9.0444641,30.125,8.875z"/>
	<path style="fill:#00A0E7;" d="M30.3811646,9.8053131l-1.0328064,1.7213287l1.7213287-1.0328064
		C30.7828979,10.328537,30.546463,10.0921478,30.3811646,9.8053131z"/>
	<circle style="fill:#00A0E7;" cx="32" cy="8.875" r="1.375"/>
</g>
<g>
	<path style="fill:#00A0E7;" d="M35.7083321,11.458333c0,0,0.3333359,2.333334-1.9166641,4.583333
		c-1.5855255,1.5855255-1.5,4.1666679-1.5,4.1666679s0.1666641-2.1666679,1.75-3.6666679
		C35.1707497,15.4720087,36.9336128,15.0116386,35.7083321,11.458333z"/>
	<path style="fill:#00A0E7;" d="M33.3333321,19.75c0,0,1.3333359-2.083334,2.4166679,0.166666c0,0-0.6666679,0-1.25,0.25
		S33.3333321,19.75,33.3333321,19.75z"/>
	<path style="fill:#00A0E7;" d="M34,17.916666c0,0,0.6666679-1.416666,1.75-0.916666c0,0-0.5,0.333334-0.6666679,0.75
		C34.9166679,18.166666,34,17.916666,34,17.916666z"/>
	<path style="fill:#00A0E7;" d="M28.291666,11.458333c0,0-0.3333321,2.333334,1.9166679,4.583333
		c1.5855236,1.5855255,1.5,4.1666679,1.5,4.1666679s-0.1666679-2.1666679-1.75-3.6666679
		C28.8292503,15.4720087,27.0663891,15.0116386,28.291666,11.458333z"/>
	<path style="fill:#00A0E7;" d="M30.666666,19.75c0,0-1.3333321-2.083334-2.416666,0.166666c0,0,0.666666,0,1.25,0.25
		S30.666666,19.75,30.666666,19.75z"/>
	<path style="fill:#00A0E7;" d="M30,17.916666c0,0-0.666666-1.416666-1.75-0.916666c0,0,0.5,0.333334,0.666666,0.75
		C29.083334,18.166666,30,17.916666,30,17.916666z"/>
</g>
<radialGradient id="SVGID_3_" cx="29.5" cy="48.25" r="1.25" gradientUnits="userSpaceOnUse">
	<stop  offset="0.3141593" style="stop-color:#FFFFFF;stop-opacity:0.8"/>
	<stop  offset="0.659292" style="stop-color:#FFFFFF;stop-opacity:0.4495575"/>
	<stop  offset="1" style="stop-color:#FFFFFF;stop-opacity:0"/>
</radialGradient>
<circle style="fill:url(#SVGID_3_);" cx="29.5" cy="48.25" r="1.25"/>
<radialGradient id="SVGID_4_" cx="34.3541679" cy="51.1458321" r="0.8541667" gradientUnits="userSpaceOnUse">
	<stop  offset="0" style="stop-color:#FFFFFF;stop-opacity:0.5"/>
	<stop  offset="1" style="stop-color:#FFFFFF;stop-opacity:0"/>
</radialGradient>
<circle style="fill:url(#SVGID_4_);" cx="34.3541679" cy="51.1458321" r="0.8541667"/>
<g>
</g>
<g>
</g>
<g>
</g>
<g>
</g>
<g>
</g>
<g>
</g>
</svg>
