<?xml version="1.0" encoding="utf-8"?>
<!-- Generator: Adobe Illustrator 15.0.2, SVG Export Plug-In . SVG Version: 6.00 Build 0)  -->
<!DOCTYPE svg PUBLIC "-//W3C//DTD SVG 1.1//EN" "http://www.w3.org/Graphics/SVG/1.1/DTD/svg11.dtd">
<svg version="1.1" id="レイヤー_1" xmlns="http://www.w3.org/2000/svg" xmlns:xlink="http://www.w3.org/1999/xlink" x="0px"
	 y="0px" width="64px" height="64px" viewBox="0 0 64 64" style="enable-background:new 0 0 64 64;" xml:space="preserve">
<g>
	<path style="fill:#471E02;" d="M18.7363281,59.9316406c0,0,8.2177734,4.6669922,17.6660156-0.2646484l0.7646484-4.5
		c0,0,6.4248047-0.9638672,8.4248047-6.9638672c0,0,2.0166016-3.3066406,4.0751953-4.6933594
		c3.0175781-2.0322266,3.3164063-4.578125,9.4082031-6.3769531C60.5,36.3339844,58.0097656,29.0625,50.1728516,32.3452148
		c0,0-3.1181641,0.8012695-3.5800781,2.0766602l-3.0283203,0.796875c0,0-2.4189453-7.1186523-2.1279297-10.5224609
		c0.3730469-4.362793,0.3730469-11.4819336,1.5068359-17.2475586c0.7958984-4.965332-5.8242188-7.4726563-6.6972656-1.1391602
		s-2.4082031,17.3574219-2.4082031,17.3574219s-3.5844727-2.4414063-6.8779297,1.0292969
		c0,0-6.4165039-2.1831055-7.8623047,3.8457031c0,0-5.7758789-10.5107422-8.2641602-13.2084961
		c-1.9370117-2.1000977-6.4370117,0.7333984-4.1669922,4.8334961C8.4804688,23.4433594,11.5,29.0009766,11.5,29.0009766
		s1.5,5.1445313,2.2495117,8.2919922C13,41,13.9086914,50.3652344,17.7353516,54.1914063L18.7363281,59.9316406z"/>
	<g>
		<path style="fill:#281000;" d="M43.5644531,35.21875c0,0-3.3076172-1.0087891-6.4423828,0.9003906
			c-0.1660156-5.2836914-0.4951172-12.4960938-2.1279297-14.9521484c0,0-1.7236328,2.546875-4.5253906,1.6899414
			c0,0-3.3129883,1.4189453-5.2856445,1.4912109s-10.7299805,0.4467773-5.5732422,14.4858398
			C21.0537109,42.7646484,20.8334961,46.5,25.3334961,46.5S28.5,43.9140625,30,44.6240234
			c0.4228516,0.2001953,1.2207031,0.2929688,2.1347656,0.2539063c0.0058594,0.0009766,0.7158203,0.1240234,1.9423828-0.2822266
			c1.0078125-0.2539063,1.9541016-0.6865234,2.5693359-1.3378906C38.5507813,41.9248047,40.9375,39.5253906,43.5644531,35.21875z"/>
		<path style="fill:#281000;" d="M26.7456055,54.5c-7.4213867,0.5-11.5117188-4.4619141-11.5117188-4.4619141l2.7724609,6.1376953
			c0,0,3.4936523-0.1757813,8.7392578-0.0087891S34.1669922,54,26.7456055,54.5z"/>
	</g>
	<path style="fill:#471E02;" d="M33.8378906,23.6669922c0,0,1.4052734,16.2128906,1.1171875,18.1064453
		s-5.0410156,2.5595703-6.081543-0.5742188c0,0-1.8276367,6.1347656-6.5146484,1.9824219l-3.2612305-14.6396484
		c0,0,0-6.0576172,7.8623047-3.8457031C26.9599609,24.6962891,29.1757813,20.5004883,33.8378906,23.6669922z"/>
	<path style="fill:#110700;" d="M27.3334961,62.7294922C27.3330078,62.7294922,27.3334961,62.7294922,27.3334961,62.7294922
		c-5.2304688,0-8.8413086-2.0166016-8.9921875-2.1025391l-0.328125-0.1865234l-1.0239258-5.8691406
		c-3.7973633-4.0498047-4.7773438-13.2685547-4.059082-17.2519531c-0.746582-2.8886719-1.9873047-7.340332-2.1762695-8.015625
		c-0.3745117-0.6889648-3.1015625-5.7045898-4.7871094-8.7490234c-1.2382813-2.2358398-0.6269531-3.9208984-0.1523438-4.7260742
		c0.7182617-1.21875,2.0395508-2.0058594,3.3657227-2.0058594c0.8691406,0,1.6655273,0.34375,2.2412109,0.9682617
		c1.9682617,2.1337891,5.8125,8.7973633,7.5258789,11.8383789c1.0410156-2.0253906,2.9282227-3.1181641,5.4604492-3.1181641
		c0.9692383,0,1.8149414,0.1635742,2.3188477,0.2885742c1.2480469-1.1728516,2.6625977-1.7670898,4.2114258-1.7670898
		c0.8945313,0,1.6767578,0.2070313,2.2602539,0.4301758c0.4082031-2.9399414,1.5488281-11.137207,2.2548828-16.2626953
		c0.4541016-3.2919922,2.3574219-4.465332,3.9863281-4.465332c1.1757813,0,2.3330078,0.5654297,3.1728516,1.5517578
		c0.9814453,1.1513672,1.3798828,2.6743164,1.1210938,4.2885742c-0.7890625,4.0146484-1.0302734,8.7875977-1.2236328,12.6230469
		c-0.0839844,1.6708984-0.1630859,3.2490234-0.2763672,4.5664063c-0.2216797,2.590332,1.2714844,7.6308594,1.8583984,9.4882813
		l1.9599609-0.515625c0.8535156-1.2827148,3.2285156-1.9838867,3.8652344-2.1518555
		c1.4189453-0.5883789,2.7714844-0.8862305,4.0185547-0.8862305c3.4580078,0,5.5966797,2.2597656,6.1826172,4.5
		c0.3232422,1.2373047,0.0791016,2.2216797-0.6513672,2.6318359l-0.1650391,0.0693359
		c-3.4638672,1.0224609-4.7929688,2.4365234-6.0791016,3.8037109c-0.8330078,0.8857422-1.6933594,1.8007813-3.0566406,2.4560547
		c-2.0673828,2.4677734-3.5019531,4.0556641-3.8847656,4.4746094c-1.8564453,4.5761719-6.8134766,6.6005859-8.4072266,7.1464844
		L37.125,60.1923828l-0.3525391,0.1835938C33.78125,61.9375,30.6049805,62.7294922,27.3334961,62.7294922z M19.4560547,59.4013672
		c0.9570313,0.4609375,3.9428711,1.7285156,7.8774414,1.7285156c2.8837891,0,5.6899414-0.6708984,8.347168-1.9931641
		l0.7822266-4.6025391l0.4873047-0.1376953c0.0605469-0.0166016,6.0673828-1.7597656,7.8955078-6.4824219l0.0546875-0.1416016
		l0.1044922-0.1123047c0.015625-0.0175781,1.5927734-1.7265625,4.0488281-4.6630859l0.1171875-0.1416016l0.1679688-0.0751953
		c1.1728516-0.5283203,1.8886719-1.2900391,2.7177734-2.171875c1.3466797-1.4316406,2.8691406-3.0517578,6.6298828-4.1943359
		c0.015625-0.1572266-0.0097656-0.8925781-0.5263672-1.7910156c-0.4023438-0.6982422-1.6201172-2.3242188-4.2246094-2.3242188
		c-1.0498047,0-2.2119141,0.2641602-3.4541016,0.7841797l-0.109375,0.0371094
		c-1.2822266,0.3310547-2.8408203,1.0595703-3.0273438,1.5742188l-0.1425781,0.3945313l-4.1552734,1.09375l-0.2402344-0.7060547
		c-0.1005859-0.2978516-2.46875-7.3183594-2.1669922-10.8486328c0.1103516-1.2890625,0.1884766-2.8540039,0.2724609-4.5102539
		c0.1962891-3.8867188,0.4404297-8.7236328,1.2460938-12.8232422c0.1787109-1.1166992-0.0908203-2.1811523-0.7626953-2.9697266
		c-0.5283203-0.6196289-1.2597656-0.9897461-1.9560547-0.9897461c-1.2373047,0-2.1347656,1.152832-2.4003906,3.0839844
		c-0.8740234,6.3339844-2.4091797,17.3583984-2.4091797,17.3583984l-0.1777344,1.2758789l-1.0644531-0.7250977
		c-0.0078125-0.0048828-1.059082-0.6953125-2.449707-0.6953125c-1.2382813,0-2.3813477,0.5429688-3.3979492,1.6142578
		l-0.3510742,0.3701172l-0.4848633-0.1630859c-0.0102539-0.003418-1.0375977-0.3427734-2.2963867-0.3427734
		c-2.4316406,0-3.956543,1.2167969-4.5322266,3.6171875l-0.4824219,2.012207l-0.996582-1.8134766
		c-0.0571289-0.1040039-5.7568359-10.4560547-8.1508789-13.0512695c-0.3457031-0.3745117-0.7700195-0.453125-1.0654297-0.453125
		c-0.7592773,0-1.5576172,0.4892578-1.9873047,1.2182617c-0.5200195,0.8823242-0.4584961,1.9970703,0.1733398,3.1381836
		c1.8154297,3.2788086,4.8369141,8.8398438,4.8369141,8.8398438l0.0673828,0.1660156
		c0.0141602,0.0517578,1.4516602,5.1894531,2.2539063,8.3085938l0.0454102,0.1777344l-0.0361328,0.1796875
		c-0.7163086,3.5439453,0.1928711,12.6005859,3.7670898,16.1748047l0.1791992,0.1787109L19.4560547,59.4013672z"/>
	<path style="fill:#110700;" d="M25.3769531,45.4257813c-1.1235352,0-2.3129883-0.5507813-3.5483398-1.6455078l-0.1943359-0.171875
		l-3.3173828-14.8925781l1.5615234-0.3476563l3.2036133,14.3808594c1.0664063,0.8925781,2.0058594,1.2304688,2.7866211,1.0078125
		c1.4975586-0.4277344,2.230957-2.7626953,2.2382813-2.7861328l0.7250977-2.4345703l0.8007813,2.4111328
		c0.4414063,1.3291016,1.7553711,1.7041016,2.8295898,1.6113281c0.9790039-0.0830078,1.6450195-0.5341797,1.7016602-0.9052734
		c0.2011719-1.3203125-0.5615234-11.4384766-1.1230469-17.9174805l1.59375-0.1376953
		c0.1445313,1.6689453,1.4052734,16.3637695,1.1113281,18.2954102c-0.1835938,1.2070313-1.4492188,2.1152344-3.1484375,2.2597656
		c-1.1713867,0.0976563-2.6269531-0.2050781-3.6132813-1.234375c-0.5253906,0.9267578-1.3891602,2.0087891-2.6762695,2.3759766
		C26.003418,45.3818359,25.6928711,45.4257813,25.3769531,45.4257813z"/>
	
		<rect x="19.4698982" y="32.1833191" transform="matrix(0.1327832 0.9911451 -0.9911451 0.1327832 56.8516617 0.9908314)" style="fill:#110700;" width="16.7794399" height="1.6001625"/>
</g>
</svg>
