<?xml version="1.0" encoding="utf-8"?>
<!-- Generator: Adobe Illustrator 17.0.0, SVG Export Plug-In . SVG Version: 6.00 Build 0)  -->
<!DOCTYPE svg PUBLIC "-//W3C//DTD SVG 1.1//EN" "http://www.w3.org/Graphics/SVG/1.1/DTD/svg11.dtd">
<svg version="1.1" id="レイヤー_1" xmlns="http://www.w3.org/2000/svg" xmlns:xlink="http://www.w3.org/1999/xlink" x="0px"
	 y="0px" width="64px" height="64px" viewBox="0 0 64 64" style="enable-background:new 0 0 64 64;" xml:space="preserve">
<g>
	<path style="fill:#754C24;" d="M32.000473,58.6713867c-10.3137493,0-16.813036-1.7095795-19.843401-5.2245407l-5.8733087-0.7803802
		c-2.7638826-0.3664742-4.7250628-2.9150314-4.3711481-5.6812363l0.733408-5.7296028
		c0.1181264-0.9273415,0.5055258-1.8063164,1.1091805-2.5383263c-0.6803904-1.4314728-0.6752746-3.1005898,0.0479016-4.5125275
		l2.6104112-5.1013012c0.5250587-1.0259342,1.3872895-1.8342171,2.427175-2.2964935
		c0.0474367-1.3528748,0.620862-2.6462212,1.6054049-3.5661201l4.1293144-3.8609695
		c1.1124363-1.0394211,2.6434307-1.5282059,4.1600075-1.2896271c0.4832039-1.8346825,1.9783878-3.3131237,3.8851547-3.7088947
		l5.4389381-1.1282482c1.3789177-0.2860146,2.8141098,0.0269737,3.9404964,0.840373
		c1.1273193-0.8143291,2.5653-1.1259232,3.9409637-0.840373l5.4394035,1.1282482
		c1.906765,0.395771,3.4014854,1.8737488,3.8851547,3.7088947c1.5207634-0.2432289,3.0480347,0.2511349,4.1586113,1.2910213
		l4.128849,3.8591118c0.9840775,0.9208279,1.5561104,2.2137089,1.6044769,3.5661201
		c1.0398865,0.4613438,1.9030457,1.270092,2.4285698,2.2964916l2.611805,5.1017666
		c0.7217827,1.4119377,0.7273636,3.0801239,0.0474358,4.5106659c0.602726,0.7320137,0.9896622,1.6119156,1.1087189,2.5401878
		l0.7338715,5.7296028c0.3534508,2.7662048-1.6081963,5.3147621-4.3716125,5.6812363l-5.8728447,0.7803802
		C48.8130455,56.9618073,42.3142242,58.6713867,32.000473,58.6713867z M17.9903851,19.9361057
		c-0.78689,0-1.5375061,0.296711-2.1141872,0.8352566l-4.1293135,3.8609715
		c-0.7320127,0.6836472-1.0994139,1.7039986-0.983613,2.7294674l0.092083,0.8138657l-0.7910757,0.2129993
		c-0.8436289,0.2264862-1.5561085,0.8036327-1.9551344,1.5826168L5.498733,35.0725822
		c-0.5250583,1.0254707-0.4394865,2.2737045,0.2232313,3.257782l0.462275,0.6873665l-0.6157465,0.5534286
		c-0.5734253,0.5143623-0.940362,1.1989365-1.0333748,1.9263l-0.733408,5.7296028
		c-0.2209058,1.7291107,1.0050058,3.3224258,2.7327232,3.551239l6.630435,0.8808327l0.2395086,0.3060112
		c2.4922838,3.1856995,8.7492714,4.8013344,18.596096,4.8013344s16.1028824-1.6156349,18.5947037-4.8013344l0.2399712-0.3060112
		l6.6299706-0.8808327c1.7281837-0.2288132,2.9540939-1.8221283,2.7327232-3.551239l-0.7338715-5.7296028
		c-0.0930138-0.7282944-0.4594841-1.4137993-1.031517-1.9290924l-0.6148148-0.5534248l0.4613457-0.6855087
		c0.6613235-0.9840775,0.7468948-2.2323112,0.2223015-3.2573166l-2.610878-5.1008339
		c-0.399025-0.7794495-1.1124344-1.356596-1.9560623-1.5830822l-0.7924728-0.212534l0.092083-0.8143291
		c0.1162682-1.0250053-0.251133-2.0453568-0.9822159-2.7299328l-4.128849-3.8591118
		c-0.8575821-0.8022385-2.0909348-1.0822067-3.2824326-0.5943527L43.5513,20.7062531l-0.025116-1.3924046
		c-0.0269737-1.4779778-1.0919724-2.7680683-2.5327454-3.0675697l-5.4393997-1.1282482
		c-1.0352364-0.2139301-2.1151199,0.1181259-2.8727112,0.8943195l-0.6813202,0.6980629l-0.6813202-0.6980629
		c-0.7580547-0.7761936-1.8356113-1.1096449-2.872242-0.8943195l-5.4389381,1.1282482
		c-1.4412365,0.2995014-2.5062351,1.589592-2.53228,3.0675697l-0.0246487,1.3933353l-1.2896252-0.52878
		C18.7698345,20.0174923,18.3759232,19.9361057,17.9903851,19.9361057z"/>
	<g>
		<g>
			<linearGradient id="SVGID_1_" gradientUnits="userSpaceOnUse" x1="13.9810839" y1="51.9408035" x2="19.6548347" y2="44.2244987">
				<stop  offset="0" style="stop-color:#FFF3E6"/>
				<stop  offset="0.3027039" style="stop-color:#FFEDD9"/>
				<stop  offset="0.8623515" style="stop-color:#FFDDB7"/>
				<stop  offset="1" style="stop-color:#FFD9AD"/>
			</linearGradient>
			<path style="fill:url(#SVGID_1_);" d="M32.0867958,50.9844894c-0.238369,1.8638611-1.9569778,3.1861916-3.8193302,2.9389839
				L6.5008636,51.031601c-1.8623538-0.2472076-3.1905811-1.9737511-2.9526942-3.837513l0.733269-5.7287941
				c0.2378869-1.8638611,1.9565358-3.1861916,3.8188891-2.9389839l21.7675171,2.8918724
				c1.8623524,0.2472076,3.190609,1.9736519,2.95224,3.837513L32.0867958,50.9844894z"/>
			<path style="fill:#E8BF9A;" d="M28.7161827,54.6495018c-0.1785851,0-0.3590298-0.0111618-0.5404053-0.0353432
				l-21.7664471-2.891777c-2.2458-0.2976418-3.8395784-2.3681107-3.5521681-4.6162376l0.733408-5.7296028
				c0.2827597-2.2155685,2.3304417-3.8451576,4.6013556-3.5410042l21.7673759,2.8917732
				c2.2462635,0.2985725,3.8395786,2.3699722,3.5521679,4.6171684l-0.7334061,5.728672
				C32.5171623,53.1119957,30.7708416,54.6495018,28.7161827,54.6495018z M7.6515198,39.1935272
				c-1.3551998,0-2.5071664,1.0147705-2.6787753,2.3597412l-0.733408,5.7296028
				c-0.1902118,1.4891357,0.8654866,2.8610802,2.35323,3.0573387l21.7664452,2.8917732
				c1.5003014,0.1981201,2.8489895-0.874321,3.0368767-2.335556l0.7329445-5.728672
				c0.1902084-1.4891396-0.8650227-2.861084-2.352766-3.0582695l-21.7673779-2.891777
				C7.8887033,39.2018967,7.7696466,39.1935272,7.6515198,39.1935272z"/>
		</g>
		<g>
			<linearGradient id="SVGID_2_" gradientUnits="userSpaceOnUse" x1="17.0092201" y1="41.9016953" x2="21.1862526" y2="37.0284882">
				<stop  offset="0" style="stop-color:#FFF3E6"/>
				<stop  offset="0.3027039" style="stop-color:#FFEDD9"/>
				<stop  offset="0.8623515" style="stop-color:#FFDDB7"/>
				<stop  offset="1" style="stop-color:#FFD9AD"/>
			</linearGradient>
			<path style="fill:url(#SVGID_2_);" d="M30.7909832,48.5183296c-0.855938,1.6725998-2.9129658,2.3200035-4.571806,1.4381485
				L6.7309051,39.5994225c-1.6588101-0.881855-2.3155661-2.9713249-1.4596772-4.6433258l2.6103487-5.1010799
				c0.8558884-1.6720009,2.9134178-2.3194046,4.5727606-1.4380512l19.4878082,10.3545456
				c1.6588402,0.881855,2.3159904,2.9713249,1.4606514,4.6439285L30.7909832,48.5183296z"/>
			<path style="fill:#E8BF9A;" d="M27.7958202,51.0480385c-0.6594639,0-1.3179951-0.1646347-1.9039783-0.4771576
				L6.4037499,40.2148094c-1.9969897-1.0622101-2.7834151-3.5633316-1.7528305-5.5761337l2.6104107-5.1012993
				c0.6980629-1.3640366,2.0844226-2.2113838,3.6172776-2.2113838c0.6589975,0,1.3165989,0.1646328,1.9025812,0.4757614
				l19.4880943,10.3537445c1.9974518,1.0622101,2.7843437,3.5642624,1.7537575,5.5770645l-2.611805,5.1026955
				C30.7131729,50.1997604,29.3277435,51.0480385,27.7958202,51.0480385z M10.8786077,28.7197914
				c-1.0073318,0-1.9179296,0.5566845-2.3764839,1.4528637l-2.6104107,5.1013012
				c-0.6859713,1.339386-0.1627727,3.0033913,1.1659188,3.7093582l19.4885559,10.3570023
				c0.3911209,0.2083511,0.8115387,0.3134575,1.2496319,0.3134575c1.0064011,0,1.9160671-0.556221,2.3746223-1.4528656
				l2.6118069-5.1026955c0.6855049-1.3403168,0.1618423-3.0052528-1.1668491-3.7112198L12.1273079,29.0323162
				C11.7366524,28.8248978,11.316699,28.7197914,10.8786077,28.7197914z"/>
		</g>
		<g>
			<g>
				<linearGradient id="SVGID_3_" gradientUnits="userSpaceOnUse" x1="19.7869873" y1="35.7223549" x2="28.7093887" y2="29.734951">
					<stop  offset="0" style="stop-color:#FFF3E6"/>
					<stop  offset="0.3027039" style="stop-color:#FFEDD9"/>
					<stop  offset="0.8623515" style="stop-color:#FFDDB7"/>
					<stop  offset="1" style="stop-color:#FFD9AD"/>
				</linearGradient>
				<path style="fill:url(#SVGID_3_);" d="M31.0288506,46.0570869c-1.3723545,1.2831573-3.5236053,1.1909447-4.780241-0.2059212
					L11.3620377,29.3165016c-1.2566366-1.3958626-1.1624136-3.5878944,0.2099419-4.8704472l4.1298237-3.8611183
					c1.3723545-1.2825527,3.5236053-1.1898365,4.7807426,0.2060242L35.368618,37.323616
					c1.2576408,1.3968658,1.1634178,3.5883942-0.2089386,4.8714485L31.0288506,46.0570869z"/>
				<path style="fill:#E8BF9A;" d="M28.7394371,47.6595726c-1.1449909,0-2.2420807-0.4892502-3.0089722-1.3421783
					L10.8437271,29.7829304c-1.512392-1.6802788-1.3993807-4.3027821,0.2525311-5.8463345l4.1297789-3.8609715
					c0.7534056-0.7041073,1.735158-1.0919724,2.764348-1.0919724c1.1454544,0,2.2425442,0.4887829,3.009901,1.3407822
					l14.8867378,16.5335331c1.5123901,1.6798172,1.3998451,4.3018532-0.2511368,5.845871l-4.1311722,3.8619003
					C30.750843,47.2707787,29.7690907,47.6595726,28.7394371,47.6595726z M17.9903851,20.3774529
					c-0.674345,0-1.3179951,0.2543907-1.8128242,0.7166653l-4.1297798,3.8609715
					c-1.1003437,1.0282593-1.175684,2.7759743-0.1678877,3.8949203l14.8867369,16.5353928
					c0.9557095,1.0612793,2.74156,1.1394119,3.7860966,0.1627731l4.1307068-3.8619003
					c1.1003456-1.0287247,1.1756859-2.7764397,0.1674232-3.8963165L19.9645863,21.2573566
					C19.4609203,20.6978817,18.7414646,20.3774529,17.9903851,20.3774529z"/>
			</g>
		</g>
		<g>
			<linearGradient id="SVGID_4_" gradientUnits="userSpaceOnUse" x1="20.214777" y1="29.8013477" x2="36.8787575" y2="29.8013477">
				<stop  offset="0" style="stop-color:#FFF3E6"/>
				<stop  offset="0.3027039" style="stop-color:#FFEDD9"/>
				<stop  offset="0.8623515" style="stop-color:#FFDDB7"/>
				<stop  offset="1" style="stop-color:#FFD9AD"/>
			</linearGradient>
			<path style="fill:url(#SVGID_4_);" d="M32.4081383,17.5234051c-0.3683548-1.8422642-2.1743546-3.0371237-4.0137043-2.6555119
				l-5.4383926,1.1281605c-1.8393497,0.3816109-3.0429497,2.201273-2.6750984,4.0435371l4.4035511,22.0407619
				c0.3678493,1.8421631,2.1737499,3.0360146,4.0130997,2.6544037l5.4398994-1.1290627
				c1.8393517-0.3816109,3.0429497-2.2012749,2.6750984-4.0435371L32.4081383,17.5234051z"/>
			<path style="fill:#E8BF9A;" d="M28.0074234,45.5026016c-1.9411812,0-3.626112-1.3821754-4.0060711-3.2852211
				l-4.4037018-22.0408363c-0.4436722-2.2211514,0.999424-4.4023075,3.2163906-4.8627214l5.4389381-1.1282482
				c0.2734585-0.0567379,0.5529613-0.0855722,0.8301411-0.0855722c1.942112,0,3.6279736,1.3821735,4.0088634,3.2866154
				l4.4041672,22.0385113c0.4436722,2.2211494-0.9989624,4.4023056-3.2173233,4.8636513l-5.439867,1.1282463
				C28.5655022,45.4737663,28.2850685,45.5026016,28.0074234,45.5026016z M29.0831203,15.493803
				c-0.1823063,0-0.3664722,0.0190678-0.5473824,0.0562725l-5.4384727,1.1282482
				c-1.4700699,0.3050823-2.4271755,1.7519016-2.1332531,3.2252274l4.4037018,22.040369
				c0.2864799,1.4333305,1.739809,2.4109001,3.1880226,2.1076775l5.4403305-1.1282501
				c1.4705391-0.3050804,2.4276428-1.7523651,2.1327896-3.224762l-4.4037018-22.0385094
				C31.47402,16.4048653,30.3629799,15.493803,29.0831203,15.493803z"/>
		</g>
		<g>
			<linearGradient id="SVGID_5_" gradientUnits="userSpaceOnUse" x1="28.7731056" y1="27.2953491" x2="40.2147598" y2="31.5859585">
				<stop  offset="0" style="stop-color:#FFF3E6"/>
				<stop  offset="0.3027039" style="stop-color:#FFEDD9"/>
				<stop  offset="0.8623515" style="stop-color:#FFDDB7"/>
				<stop  offset="1" style="stop-color:#FFD9AD"/>
			</linearGradient>
			<path style="fill:url(#SVGID_5_);" d="M31.5919762,17.5234051c0.3682518-1.8422642,2.1747551-3.0371237,4.0140038-2.6555119
				l5.4394989,1.1281605c1.8392487,0.3816109,3.0429497,2.201273,2.6750984,4.0435371l-4.4025459,22.0407619
				c-0.3679504,1.8421631-2.173851,3.0370216-4.0132027,2.6544037l-5.4418068-1.1290627
				c-1.8393497-0.382515-3.0429497-2.2012749-2.6745968-4.0435371L31.5919762,17.5234051z"/>
			<path style="fill:#E8BF9A;" d="M35.9958496,45.5026016c-0.2781105,0-0.5590096-0.0288353-0.8333969-0.0865021
				l-5.4407978-1.1273193c-2.217432-0.4622765-3.6600628-2.6443596-3.2163906-4.8636513l4.4037018-22.0385113
				c0.3799572-1.9044418,2.0658188-3.2866154,4.0079308-3.2866154c0.2781105,0,0.557148,0.0288343,0.8306084,0.0855722
				l5.4394035,1.1282482c2.2164993,0.4604139,3.6600609,2.6415701,3.2173195,4.8622561l-4.4023056,22.0413017
				C39.6205673,44.121357,37.9361,45.5026016,35.9958496,45.5026016z M34.9168968,15.493803
				c-1.2798576,0-2.3908997,0.9110622-2.641571,2.1658077l-4.4036999,22.0389748
				c-0.2939224,1.4723969,0.6627178,2.9187508,2.1337185,3.2256927l5.4407959,1.1273193
				c1.4528656,0.3041534,2.9020081-0.6724854,3.188488-2.1076775l4.4023094-22.040369
				c0.2939186-1.4733257-0.6631851-2.920145-2.1327896-3.2252274l-5.4394035-1.1282482
				C35.2842979,15.5128708,35.100132,15.493803,34.9168968,15.493803z"/>
		</g>
		<g>
			<g>
				
					<linearGradient id="SVGID_6_" gradientUnits="userSpaceOnUse" x1="37.9768944" y1="30.8348827" x2="45.8954086" y2="38.2425156">
					<stop  offset="0" style="stop-color:#FFF3E6"/>
					<stop  offset="0.3027039" style="stop-color:#FFEDD9"/>
					<stop  offset="0.8623515" style="stop-color:#FFDDB7"/>
					<stop  offset="1" style="stop-color:#FFD9AD"/>
				</linearGradient>
				<path style="fill:url(#SVGID_6_);" d="M32.9701576,46.0570869c1.3723564,1.2831573,3.5227013,1.1909447,4.7802429-0.2059212
					l14.8851662-16.5346642c1.2575378-1.3958626,1.1624107-3.5878944-0.2089386-4.8709488l-4.1299248-3.8601151
					c-1.3713493-1.2830544-3.5225983-1.1903381-4.7802391,0.2055225L28.6313972,37.323616
					c-1.2566357,1.3968658-1.1624146,3.5883942,0.2094402,4.8714485L32.9701576,46.0570869z"/>
				<path style="fill:#E8BF9A;" d="M35.2591858,47.6595726c0,0,0,0-0.0009308,0
					c-1.0287247,0-2.0109406-0.3887939-2.7643471-1.0938339l-4.128849-3.8619003
					c-1.6509819-1.543087-1.7639923-4.1660538-0.2516003-5.845871l14.8853436-16.5335331
					c0.7682877-0.8519993,1.8649101-1.3407822,3.0098991-1.3407822c1.0296555,0,2.0109444,0.3878651,2.7643509,1.0929031
					l4.129776,3.8595772c1.6509819,1.5454102,1.7635269,4.1679134,0.2511368,5.8467979L38.268158,46.3173943
					C37.5008011,47.1703224,36.4032478,47.6595726,35.2591858,47.6595726z M46.0087013,20.3774529
					c-0.7506142,0-1.4705353,0.3204288-1.9737358,0.8799038L29.1496239,37.789959
					c-1.0077953,1.1198769-0.9329205,2.8675919,0.1669579,3.8963165l4.1297798,3.8619003
					c1.0454674,0.9766388,2.8303871,0.899437,3.7856293-0.1627731l14.885807-16.5353928
					c1.0082626-1.1184807,0.9329224-2.8661957-0.1674232-3.8958511l-4.129776-3.8595753
					C47.3266983,20.6318436,46.6830482,20.3774529,46.0087013,20.3774529z"/>
			</g>
		</g>
		<g>
			<linearGradient id="SVGID_7_" gradientUnits="userSpaceOnUse" x1="43.3318977" y1="33.1938515" x2="45.2190018" y2="41.6858253">
				<stop  offset="0" style="stop-color:#FFF3E6"/>
				<stop  offset="0.3027039" style="stop-color:#FFEDD9"/>
				<stop  offset="0.8623515" style="stop-color:#FFDDB7"/>
				<stop  offset="1" style="stop-color:#FFD9AD"/>
			</linearGradient>
			<path style="fill:url(#SVGID_7_);" d="M33.2085266,48.5183296c0.8554382,1.6725998,2.9134674,2.3200035,4.5723076,1.4381485
				l19.487812-10.3570557c1.658741-0.881855,2.3159866-2.9713249,1.4606514-4.6433258l-2.6113129-5.1010799
				c-0.8554382-1.6720009-2.9134674-2.3194046-4.5723076-1.4380512L32.0583687,38.7715111
				c-1.6592426,0.881855-2.3164902,2.9713249-1.4606514,4.6439285L33.2085266,48.5183296z"/>
			<path style="fill:#E8BF9A;" d="M36.2041969,51.0480385L36.2041969,51.0480385c-1.5328522,0-2.9187469-0.848278-3.6163445-2.21278
				l-2.6104126-5.1026955c-1.0305843-2.0128021-0.2441597-4.5148544,1.7537613-5.5770645L51.2183647,27.801754
				c0.5859795-0.3111286,1.2435837-0.4757614,1.9030457-0.4757614c1.532856,0,2.9187508,0.8473473,3.6172752,2.2113838
				l2.610878,5.1012993c1.0296555,2.0128021,0.2436943,4.5139236-1.7532959,5.5761337L38.1081772,50.5718117
				C37.5221939,50.8834038,36.8636627,51.0480385,36.2041969,51.0480385z M53.1214104,28.7197914
				c-0.4380913,0-0.8585091,0.1051064-1.2482338,0.3125248L32.3850822,39.3869934
				c-1.329155,0.7059669-1.8528194,2.370903-1.1668472,3.7112198l2.6104088,5.1026955
				c0.4585571,0.8966446,1.3691521,1.4528656,2.3755531,1.4528656c0.4380913,0,0.8585129-0.1051064,1.2491684-0.3125267
				l19.4880905-10.357933c1.329155-0.7059669,1.8528214-2.3699722,1.1673126-3.7093582l-2.6108742-5.1013012
				C55.039341,29.2764759,54.1287422,28.7197914,53.1214104,28.7197914z"/>
		</g>
		<g>
			<linearGradient id="SVGID_8_" gradientUnits="userSpaceOnUse" x1="45.2324715" y1="42.5942497" x2="46.8574028" y2="52.7187691">
				<stop  offset="0" style="stop-color:#FFF3E6"/>
				<stop  offset="0.3027039" style="stop-color:#FFEDD9"/>
				<stop  offset="0.8623515" style="stop-color:#FFDDB7"/>
				<stop  offset="1" style="stop-color:#FFD9AD"/>
			</linearGradient>
			<path style="fill:url(#SVGID_8_);" d="M31.9122124,50.9844894c0.238369,1.8638611,1.9574814,3.1861916,3.8193321,2.9389839
				l21.7676353-2.8918724c1.8628578-0.2472076,3.1910133-1.9737511,2.9526443-3.837513l-0.7336922-5.7287941
				c-0.2384682-1.8638611-1.957077-3.1861916-3.819931-2.9389839l-21.7675362,2.8918724
				c-1.8623543,0.2472076-3.1906128,1.9736519-2.9522438,3.837513L31.9122124,50.9844894z"/>
			<path style="fill:#E8BF9A;" d="M35.2824402,54.6495018c-2.0546608,0-3.8005142-1.5375061-4.0614147-3.5763512
				l-0.7338734-5.728672c-0.2874107-2.2471962,1.3063679-4.3185959,3.5517044-4.6171684l21.7669106-2.8917732
				c2.2806778-0.306015,4.3204536,1.3245049,4.6032143,3.5410042l0.7338753,5.7296028
				c0.2874069,2.248127-1.3059044,4.3185959-3.5521698,4.6162376l-21.7669106,2.891777
				C35.641468,54.63834,35.4610252,54.6495018,35.2824402,54.6495018z M56.3471031,39.1935272
				c-0.1181259,0-0.2371826,0.0083694-0.3571701,0.0241814l-21.7669106,2.891777
				c-1.4882088,0.1971855-2.5439091,1.5691299-2.3536968,3.0582695l0.7338734,5.728672
				c0.1874199,1.4621658,1.5379715,2.5346031,3.0364113,2.335556L57.4074516,50.34021
				c1.4882088-0.1962585,2.5429764-1.568203,2.3532295-3.0573387l-0.7338715-5.7296028
				C58.8547325,40.2082977,57.702301,39.1935272,56.3471031,39.1935272z"/>
		</g>
		<g>
			<linearGradient id="SVGID_9_" gradientUnits="userSpaceOnUse" x1="31.9997826" y1="41.6710434" x2="31.9997826" y2="61.9370918">
				<stop  offset="0" style="stop-color:#FFF3E6"/>
				<stop  offset="0.3027039" style="stop-color:#FFEDD9"/>
				<stop  offset="0.8623515" style="stop-color:#FFDDB7"/>
				<stop  offset="1" style="stop-color:#FFD9AD"/>
			</linearGradient>
			<path style="fill:url(#SVGID_9_);" d="M45.7250328,28.2636585c-4.7050323-4.2670479-9.854187-6.0013847-13.7244682-5.9906139
				c-3.8713627-0.0107708-9.0194321,1.7235661-13.725008,5.9906139C9.0473824,36.6324997,10.0460529,47.6014519,13.006444,51.82658
				c3.0329313,4.3394279,11.8704729,5.16502,18.9941216,5.16502c7.124733,0,15.9606514-0.825592,18.9940147-5.16502
				C53.9519386,47.6014519,54.9532089,36.6324997,45.7250328,28.2636585z"/>
			<path style="fill:#E8BF9A;" d="M32.000473,57.7189331c-10.6062756,0-17.01441-1.7914314-19.589941-5.4756775
				c-2.9340963-4.1874466-4.3697529-15.6792068,5.3766193-24.5182381c4.3302212-3.9265461,9.4980259-6.1788559,14.1775131-6.1788559
				c4.752037,0,9.918911,2.2523098,14.2486687,6.1788559c9.7431145,8.8371696,8.3088531,20.3289299,5.376152,24.5182381
				C49.0148849,55.9275017,42.6062851,57.7189331,32.000473,57.7189331z M32.0362854,22.9999561
				c-4.3311539,0-9.2659607,2.1690636-13.2724972,5.8021526c-9.0752831,8.2307243-7.8400698,18.7849121-5.1622238,22.6077499
				c2.2523108,3.2210426,8.4423294,4.854351,18.3989086,4.854351s16.1465988-1.6333084,18.3975143-4.854351
				c2.677845-3.8228378,3.9111977-14.379818-5.161293-22.6077499
				C41.2306213,25.1690197,36.2962799,22.9999561,32.0362854,22.9999561z"/>
		</g>
	</g>
</g>
<g>
	<g>
		<polygon style="fill:#FF1D25;" points="14.0658998,36.8544998 12.9390001,35.6278992 11.3720999,36.8544998 
			10.2446003,35.6278992 8.3252001,37.1318016 10.7749004,39.7998009 12.3423004,38.5723 13.4692001,39.7998009 15.0355997,38.5723 
			16.1625996,39.7998009 18.0830002,38.294899 15.6323004,35.6278992 		"/>
		<polygon style="fill:#FF1D25;" points="55.6748009,38.294899 53.2246017,35.6278992 51.6581993,36.8544998 50.5303001,35.6278992 
			48.9639015,36.8544998 47.8368988,35.6278992 45.9179993,37.1318016 48.3681984,39.7988014 49.9346008,38.5713005 
			51.0625,39.7998009 52.6269989,38.5713005 53.7549019,39.7988014 		"/>
	</g>
	<g>
		<path style="fill:#330100;" d="M45.8095703,36.7851563l-2.4882813-0.2382813
			c0.0605469-0.6396484-0.1064453-1.2568359-0.4716797-1.7382813c-0.3408203-0.4501953-0.8173828-0.7255859-1.3408203-0.7753906
			c-1.1318359-0.1152344-2.1328125,0.8486328-2.2568359,2.1289063l-2.4882813-0.2382813
			c0.2548828-2.6533203,2.4882813-4.6181641,4.9833984-4.3793945c1.2275391,0.1171875,2.3261719,0.7397461,3.0947266,1.753418
			C45.5869141,34.28125,45.9306641,35.5195313,45.8095703,36.7851563z"/>
		<path style="fill:#330100;" d="M18.1982422,36.8486328c-0.2924805-2.6484375,1.4760742-5.0249023,3.9423828-5.2978516
			c2.456543-0.2836914,4.7114258,1.6591797,5.0048828,4.3076172l-2.484375,0.2753906
			c-0.1420898-1.2783203-1.1494141-2.2207031-2.2456055-2.0986328s-1.8735352,1.2607422-1.7319336,2.5380859L18.1982422,36.8486328z
			"/>
	</g>
	<path style="fill:#330100;" d="M31.9990234,55.6259766c-6.5639648,0-11.46875-5.3476563-11.46875-10.1298828h2.5
		c0,3.4560547,4.0004883,7.6298828,8.96875,7.6298828c4.96875,0,8.9707031-4.1738281,8.9707031-7.6298828h2.5
		C43.4697266,50.2783203,38.5644531,55.6259766,31.9990234,55.6259766z"/>
</g>
<path style="fill:#F8EB00;" d="M32.1494141,16.6557617c-8.5991211,0-23.1523438-1.597168-23.1523438-7.5834961
	c0-5.9868164,14.5532227-7.5839844,23.1523438-7.5839844c8.5986328,0,23.1513672,1.597168,23.1513672,7.5839844
	C55.3007813,15.0585938,40.7480469,16.6557617,32.1494141,16.6557617z M12.871582,9.0722656
	c0.887207,1.3657227,7.9667969,3.7495117,19.277832,3.7495117c11.3105469,0,18.3896484-2.3837891,19.2773438-3.7495117
	c-0.8867188-1.3662109-7.9658203-3.75-19.2773438-3.75S13.7587891,7.7060547,12.871582,9.0722656z"/>
<g>
</g>
<g>
</g>
<g>
</g>
<g>
</g>
<g>
</g>
<g>
</g>
</svg>
