<?xml version="1.0" encoding="utf-8"?>
<!-- Generator: Adobe Illustrator 15.0.2, SVG Export Plug-In . SVG Version: 6.00 Build 0)  -->
<!DOCTYPE svg PUBLIC "-//W3C//DTD SVG 1.1//EN" "http://www.w3.org/Graphics/SVG/1.1/DTD/svg11.dtd">
<svg version="1.1" id="レイヤー_1" xmlns="http://www.w3.org/2000/svg" xmlns:xlink="http://www.w3.org/1999/xlink" x="0px"
	 y="0px" width="64px" height="64px" viewBox="0 0 64 64" style="enable-background:new 0 0 64 64;" xml:space="preserve">
<g>
	
		<radialGradient id="SVGID_1_" cx="28.6923828" cy="61.0839844" r="13.0793419" gradientTransform="matrix(1.284 0 0 0.3673862 -4.8417277 36.438221)" gradientUnits="userSpaceOnUse">
		<stop  offset="0" style="stop-color:#595959"/>
		<stop  offset="0.444525" style="stop-color:#565656;stop-opacity:0.555475"/>
		<stop  offset="0.7753148" style="stop-color:#4D4D4D;stop-opacity:0.2246852"/>
		<stop  offset="1" style="stop-color:#414141;stop-opacity:0"/>
	</radialGradient>
	<ellipse style="fill:url(#SVGID_1_);" cx="32" cy="58.8798828" rx="17.3222656" ry="5.1201172"/>
	<g>
		<linearGradient id="SVGID_2_" gradientUnits="userSpaceOnUse" x1="32" y1="3" x2="32" y2="7.9277673">
			<stop  offset="0" style="stop-color:#FFFFFF"/>
			<stop  offset="0.2067994" style="stop-color:#F6F7F6"/>
			<stop  offset="0.5439752" style="stop-color:#DFE1DE"/>
			<stop  offset="0.9673755" style="stop-color:#B8BDB6"/>
			<stop  offset="1" style="stop-color:#B5BAB3"/>
		</linearGradient>
		<path style="fill:url(#SVGID_2_);" d="M36.9160156,1.75h-4.9155273h-4.9165039
			c-1.9165039,0.5-1.1665039,5.6665039-1.1665039,5.6665039h6.0830078h6.0825195
			C38.0830078,7.4165039,38.8330078,2.25,36.9160156,1.75z"/>
		<g>
			<linearGradient id="SVGID_3_" gradientUnits="userSpaceOnUse" x1="32" y1="4.5830078" x2="32" y2="4.5830078">
				<stop  offset="0" style="stop-color:#FFFFFF"/>
				<stop  offset="0.2067994" style="stop-color:#F6F7F6"/>
				<stop  offset="0.5439752" style="stop-color:#DFE1DE"/>
				<stop  offset="0.9673755" style="stop-color:#B8BDB6"/>
				<stop  offset="1" style="stop-color:#B5BAB3"/>
			</linearGradient>
			<line style="fill:url(#SVGID_3_);" x1="26.0639648" y1="4.5830078" x2="37.9365234" y2="4.5830078"/>
			<rect x="26.0639648" y="4.3330078" style="fill:#C0C1C2;" width="11.8725586" height="0.5"/>
		</g>
		<path style="fill:#230B00;" d="M38.0830078,8.1665039H25.9174805c-0.3725586,0-0.6884766-0.2734375-0.7421875-0.6420898
			c-0.1416016-0.9736328-0.7226563-5.862793,1.7192383-6.5C26.956543,1.0083008,27.0200195,1,27.0839844,1h9.8320313
			c0.0634766,0,0.1279297,0.0083008,0.1894531,0.0244141c2.4423828,0.6367188,1.8613281,5.5263672,1.7197266,6.5
			C38.7714844,7.8930664,38.4560547,8.1665039,38.0830078,8.1665039z M26.5834961,6.6665039h10.8334961
			C37.5966797,4.7734375,37.3935547,2.7880859,36.7929688,2.5h-9.5854492
			C26.6069336,2.7880859,26.4038086,4.7734375,26.5834961,6.6665039z"/>
		<g>
			<linearGradient id="SVGID_4_" gradientUnits="userSpaceOnUse" x1="22.5771484" y1="10.4179688" x2="37.910511" y2="64.5025787">
				<stop  offset="0" style="stop-color:#BF0000"/>
				<stop  offset="0.2346562" style="stop-color:#B60000"/>
				<stop  offset="0.6172314" style="stop-color:#9E0000"/>
				<stop  offset="1" style="stop-color:#7F0000"/>
			</linearGradient>
			<path style="fill:url(#SVGID_4_);" d="M44.6660156,27.5834961c-3.265625-5.7353516-6.5839844-20.1669922-6.5839844-20.1669922
				h-6.081543H32h-6.0825195c0,0-3.3173828,14.4316406-6.5834961,20.1669922
				c-3.4165039,5.9995117-2.2314453,18.980957-2.1479492,21.3149414s-0.0410156,11.5185547,4.8144531,11.5185547
				c2.9990234,0,9.9941406,0,9.9995117,0h0.0004883c0.0053711,0,7.0004883,0,9.9995117,0
				c4.8554688,0,4.7304688-9.1845703,4.8144531-11.5185547C46.8974609,46.5644531,48.0820313,33.5830078,44.6660156,27.5834961z"/>
			<path style="fill:#230B00;" d="M42,61.1669922H22.0004883c-5.2583008,0-5.4692383-8.4902344-5.5483398-11.6865234
				l-0.015625-0.5556641c-0.0087891-0.2392578-0.0288086-0.5917969-0.0546875-1.0400391
				c-0.237793-4.1308594-0.8701172-15.1054688,2.300293-20.6723633c3.1743164-5.5737305,6.4716797-19.8208008,6.5043945-19.9638672
				c0.078125-0.3408203,0.3813477-0.5820313,0.730957-0.5820313h12.1645508c0.3496094,0,0.6523438,0.2412109,0.7304688,0.5820313
				c0.0332031,0.1430664,3.3320313,14.3901367,6.5048828,19.9638672c3.1689453,5.565918,2.5390625,16.5385742,2.3017578,20.6694336
				c-0.0263672,0.4492188-0.046875,0.8037109-0.0546875,1.0429688l-0.015625,0.5576172
				C47.46875,52.6787109,47.2568359,61.1669922,42,61.1669922z M26.5117188,8.1665039
				c-0.6650391,2.796875-3.5795898,14.6142578-6.5258789,19.7880859
				c-2.9506836,5.1821289-2.3154297,16.2172852-2.1064453,19.8442383c0.0263672,0.4619141,0.0473633,0.8261719,0.0561523,1.0732422
				l0.0161133,0.5703125c0.0625,2.5292969,0.253418,10.2246094,4.0488281,10.2246094H42
				c3.7939453,0,3.9853516-7.6933594,4.0488281-10.2216797l0.015625-0.5742188
				c0.0087891-0.2470703,0.0302734-0.6123047,0.0566406-1.0751953c0.2089844-3.6259766,0.8427734-14.6611328-2.1064453-19.8413086
				c-2.9462891-5.1738281-5.8613281-16.9912109-6.5273438-19.7880859H26.5117188z"/>
		</g>
		<path style="fill:#C0C1C2;" d="M33.8466797,6.0834961H30.152832c-0.7558594,0-1.3710938-0.6728516-1.3710938-1.5h0.5
			c0,0.5512695,0.390625,1,0.8710938,1h3.6938477c0.4804688,0,0.8720703-0.4487305,0.8720703-1h0.5
			C35.21875,5.4106445,34.6035156,6.0834961,33.8466797,6.0834961z"/>
		<path style="opacity:0.59;fill:#FFFFFF;" d="M27.5004883,9.4165039H32c0,0-2.0825195,13.2504883-4.9160156,18.5834961
			s-6.4165039,4.3339844-7.1665039,10.5s-0.1669922,14.9160156-0.1669922,14.9160156l-0.5830078-1.3330078
			c0,0-2.5839844-17.4990234,1.8330078-23.4995117C25.4174805,22.5834961,27.5004883,9.4165039,27.5004883,9.4165039z"/>
		<path style="opacity:0.19;fill:#FFFFFF;" d="M32.8862305,31.2832031c0,0,9.5317383-0.1166992,10.1977539,0.7167969
			s2,10.75,2,10.75s0.5839844-10.6665039-1.5-12s-8.5-0.925293-8.5-0.925293L32.8862305,31.2832031z"/>
		<g>
			<path style="fill:#FFFFFF;" d="M35.3144531,57.6142578h-6.6289063c-3.0444336,0-5.7451172-2.8125-6.1489258-6.4042969
				l-1.1044922-9.8085938c-0.2016602-1.796875,0.3510742-3.5751953,1.5170898-4.8798828
				c1.1665039-1.3046875,2.8720703-2.0527344,4.6796875-2.0527344h8.7021484c1.8486328,0,3.5546875,0.7480469,4.7207031,2.0537109
				c1.1660156,1.3046875,1.71875,3.0830078,1.5166016,4.8789063l-1.1044922,9.8095703
				C41.0595703,54.8017578,38.3583984,57.6142578,35.3144531,57.6142578z M27.6689453,39.1972656
				c-0.5102539,0-0.9199219,0.1689453-1.1943359,0.4755859c-0.2739258,0.3066406-0.3959961,0.7324219-0.3432617,1.2001953
				l1.1044922,9.8085938c0.1508789,1.3457031,1.0371094,2.2041016,1.449707,2.2041016h6.6289063
				c0.4130859,0,1.2988281-0.8583984,1.4501953-2.2041016l1.1044922-9.8095703
				c0.0527344-0.4667969-0.0693359-0.8925781-0.3427734-1.1992188c-0.2744141-0.3066406-0.6845703-0.4755859-1.1542969-0.4755859
				H27.6689453z"/>
			<path style="fill:#00893A;" d="M35.3144531,57.1416016h-6.6289063c-2.8071289,0-5.3017578-2.6289063-5.6787109-5.984375
				l-1.1044922-9.8085938c-0.1899414-1.6875,0.3071289-3.2900391,1.3994141-4.5117188
				c1.0927734-1.2226563,2.6293945-1.8955078,4.3271484-1.8955078h8.7021484c1.7392578,0,3.2753906,0.6738281,4.3681641,1.8955078
				c1.0917969,1.2226563,1.5888672,2.8242188,1.3994141,4.5117188l-1.1044922,9.8095703
				C40.6162109,54.5126953,38.1210938,57.1416016,35.3144531,57.1416016z M27.6689453,38.7246094
				c-0.6464844,0-1.1816406,0.2246094-1.546875,0.6328125c-0.3647461,0.4082031-0.5283203,0.9658203-0.4609375,1.5683594
				l1.1044922,9.8085938c0.1801758,1.6025391,1.2573242,2.6240234,1.9199219,2.6240234h6.6289063
				c0.6621094,0,1.7402344-1.0224609,1.9199219-2.6240234l1.1044922-9.8095703
				c0.0683594-0.6025391-0.0957031-1.1582031-0.4599609-1.5673828c-0.3652344-0.4082031-0.9003906-0.6328125-1.5068359-0.6328125
				H27.6689453z"/>
			<path style="fill:#804F21;" d="M35.3144531,56.1953125h-6.6289063c-2.2944336,0-4.4204102-2.3066406-4.7392578-5.1435547
				l-1.1044922-9.8095703c-0.1591797-1.4160156,0.2548828-2.7568359,1.1650391-3.7753906
				c0.9106445-1.0185547,2.1972656-1.5791016,3.6220703-1.5791016h8.7021484c1.4658203,0,2.7519531,0.5605469,3.6630859,1.5800781
				c0.9101563,1.0185547,1.3242188,2.359375,1.1640625,3.7744141l-1.1044922,9.8095703
				C39.734375,53.8886719,37.6083984,56.1953125,35.3144531,56.1953125z M27.6689453,37.7783203
				c-0.9194336,0-1.7050781,0.3369141-2.2519531,0.9492188c-0.5463867,0.6113281-0.793457,1.4296875-0.6953125,2.3037109
				l1.1044922,9.8095703c0.2109375,1.8769531,1.5205078,3.4638672,2.859375,3.4638672h6.6289063
				c1.3388672,0,2.6484375-1.5869141,2.8603516-3.4638672l1.1044922-9.8095703
				c0.0976563-0.8740234-0.1484375-1.6914063-0.6953125-2.3037109c-0.546875-0.6113281-1.3330078-0.9492188-2.2119141-0.9492188
				H27.6689453z"/>
			<path style="fill:#FFFFFF;" d="M36.3310547,36.8330078c-2.3818359,0-6.2797852,0-8.6621094,0h-0.0400391
				c-2.3823242,0-4.1132813,1.9365234-3.847168,4.3037109l1.1044922,9.8095703
				C25.1523438,53.3134766,26.8623047,55.25,28.6855469,55.25s4.8066406,0,6.6289063,0
				c1.8232422,0,3.5332031-1.9365234,3.7998047-4.3037109l1.1044922-9.8095703
				c0.2666016-2.3671875-1.4648438-4.3037109-3.8466797-4.3037109H36.3310547z"/>
		</g>
		<g>
			<path d="M27.1704102,39.9042969c0.1064453,0,0.1586914-0.0117188,0.1938477-0.0234375
				c0.0356445-0.0126953,0.0546875-0.0244141,0.090332-0.0244141c0.1665039,0,0.2651367,0.4423828,0.2651367,0.6367188
				c0,0.2148438-0.0712891,0.40625-0.2270508,0.40625c-0.2075195,0-0.171875-0.5039063-0.2919922-0.5039063
				c-0.0874023,0-0.090332,0.1708984-0.1123047,0.4628906c-0.0161133,0.2441406-0.0737305,0.8730469-0.0737305,1.2177734
				c0,0.3486328,0.2080078,0.1708984,0.2080078,0.4140625c0,0.1220703-0.0986328,0.2919922-0.6665039,0.2919922
				c-0.4916992,0-0.5-0.1904297-0.5-0.2753906c0-0.2441406,0.1938477-0.1220703,0.2431641-0.3173828
				c0.0654297-0.2597656,0.1611328-1.5986328,0.1611328-1.6591797c0-0.0615234-0.0166016-0.1347656-0.0654297-0.1347656
				c-0.1367188,0-0.1040039,0.5039063-0.347168,0.5039063c-0.1254883,0-0.1938477-0.1298828-0.1938477-0.3046875
				c0-0.2558594,0.1586914-0.7382813,0.3603516-0.7382813c0.0273438,0,0.0522461,0.0117188,0.0795898,0.0244141
				c0.0297852,0.0117188,0.0600586,0.0234375,0.0981445,0.0234375H27.1704102z"/>
			<path d="M28.4912109,42.8066406c-0.4643555,0-0.8081055-0.3935547-0.8081055-1.1123047
				c0-1.0107422,0.5322266-1.8466797,1.2016602-1.8466797c0.4643555,0,0.8085938,0.3935547,0.8085938,1.1123047
				C29.6933594,41.9707031,29.1606445,42.8066406,28.4912109,42.8066406z M28.9584961,40.8867188
				c0-0.1582031-0.0083008-0.5351563-0.1748047-0.515625c-0.2924805,0-0.3662109,1.0839844-0.3662109,1.3964844
				c0,0.1582031,0.0083008,0.5361328,0.1748047,0.515625C28.8847656,42.2832031,28.9584961,41.1992188,28.9584961,40.8867188z"/>
			<path d="M30.9672852,42.125c-0.0410156,0.0976563-0.1254883,0.3046875-0.2128906,0.3046875
				c-0.0927734,0-0.1147461-0.1386719-0.1391602-0.2441406l-0.109375-0.4912109
				c-0.0053711-0.0283203-0.0571289-0.2958984-0.090332-0.2958984c-0.0351563,0-0.0463867,0.1259766-0.0517578,0.1542969
				c-0.0053711,0.0400391-0.0791016,0.5400391-0.0791016,0.6660156c0,0.1777344,0.1337891,0.1455078,0.1337891,0.3037109
				c0,0.1337891-0.0356445,0.2597656-0.4589844,0.2597656c-0.1147461,0-0.3413086-0.0039063-0.3413086-0.2431641
				c0-0.2763672,0.152832-0.1142578,0.2128906-0.3574219c0.1230469-0.4873047,0.2597656-1.1318359,0.2651367-1.5869141
				c0.0029297-0.3125-0.2265625-0.1464844-0.2265625-0.3974609c0-0.0810547,0.0297852-0.3251953,0.5761719-0.3251953
				c0.2211914,0,0.262207,0.0693359,0.3442383,0.3574219c0.0737305,0.2558594,0.1474609,0.8076172,0.2211914,0.8076172
				c0.0874023,0,0.3305664-0.7304688,0.3657227-0.8242188c0.1147461-0.3085938,0.2270508-0.3408203,0.4506836-0.3408203
				c0.1259766,0,0.4072266,0.0039063,0.4072266,0.2724609c0,0.3164063-0.2050781,0.0400391-0.2431641,0.5107422
				c-0.0244141,0.4755859-0.0629883,0.9580078-0.0629883,1.4375c0,0.2675781,0.1533203,0.2265625,0.1533203,0.3857422
				c0,0.2304688-0.2348633,0.3037109-0.6040039,0.3037109c-0.1225586,0-0.409668-0.0039063-0.409668-0.2675781
				c0-0.1992188,0.1503906-0.1464844,0.1831055-0.2636719c0.0439453-0.1621094,0.0874023-0.609375,0.0874023-0.7919922
				c0-0.0283203,0.0029297-0.0810547-0.0273438-0.0810547c-0.0356445,0-0.1118164,0.1992188-0.1308594,0.2441406L30.9672852,42.125z
				"/>
			<path d="M32.9296875,42.0761719c-0.1367188,0.0166016-0.1586914,0.0732422-0.1586914,0.1787109
				c0,0.1298828,0.1557617,0.0361328,0.1557617,0.2558594c0,0.1416016-0.0410156,0.2714844-0.5078125,0.2714844
				c-0.1337891,0-0.3413086,0-0.3413086-0.2675781c0-0.2597656,0.1308594-0.0771484,0.2485352-0.3652344
				c0.2456055-0.609375,0.5922852-1.3310547,0.6875-1.9726563c0.0410156-0.2802734,0.1474609-0.3291016,0.3173828-0.3291016
				c0.2509766,0,0.3544922,0.203125,0.4335938,0.5322266c0.0820313,0.3408203,0.2402344,1.4199219,0.2871094,1.7207031
				c0.0488281,0.3242188,0.1992188,0.1220703,0.1992188,0.3935547c0,0.3164063-0.4394531,0.2880859-0.5761719,0.2880859
				c-0.1123047,0-0.4257813,0.0283203-0.4257813-0.2353516c0-0.2353516,0.1748047-0.1337891,0.1748047-0.3242188
				c0-0.1259766-0.0664063-0.1181641-0.1289063-0.1464844H32.9296875z M33.2460938,41.609375
				c0.0791016-0.0078125,0.0898438-0.0400391,0.0898438-0.1054688c0-0.1660156-0.0869141-0.5683594-0.1337891-0.5683594
				c-0.0683594,0-0.215332,0.5361328-0.215332,0.6044922c0,0.0449219,0.0405273,0.0615234,0.081543,0.0693359H33.2460938z"/>
			<path d="M35.7001953,39.9042969c0.1064453,0,0.1582031-0.0117188,0.1943359-0.0234375
				c0.0351563-0.0126953,0.0546875-0.0244141,0.0898438-0.0244141c0.1669922,0,0.2646484,0.4423828,0.2646484,0.6367188
				c0,0.2148438-0.0703125,0.40625-0.2265625,0.40625c-0.2070313,0-0.171875-0.5039063-0.2919922-0.5039063
				c-0.0878906,0-0.0898438,0.1708984-0.1123047,0.4628906c-0.0166016,0.2441406-0.0732422,0.8730469-0.0732422,1.2177734
				c0,0.3486328,0.2070313,0.1708984,0.2070313,0.4140625c0,0.1220703-0.0976563,0.2919922-0.6660156,0.2919922
				c-0.4921875,0-0.5-0.1904297-0.5-0.2753906c0-0.2441406,0.1943359-0.1220703,0.2431641-0.3173828
				c0.0654297-0.2597656,0.1611328-1.5986328,0.1611328-1.6591797c0-0.0615234-0.0166016-0.1347656-0.0654297-0.1347656
				c-0.1367188,0-0.1035156,0.5039063-0.3466797,0.5039063c-0.1259766,0-0.1943359-0.1298828-0.1943359-0.3046875
				c0-0.2558594,0.1582031-0.7382813,0.3603516-0.7382813c0.0273438,0,0.0517578,0.0117188,0.0791016,0.0244141
				c0.0302734,0.0117188,0.0605469,0.0234375,0.0986328,0.0234375H35.7001953z"/>
			<path d="M37.0205078,42.8066406c-0.4638672,0-0.8085938-0.3935547-0.8085938-1.1123047
				c0-1.0107422,0.5332031-1.8466797,1.2021484-1.8466797c0.4638672,0,0.8085938,0.3935547,0.8085938,1.1123047
				C38.2226563,41.9707031,37.6894531,42.8066406,37.0205078,42.8066406z M37.4873047,40.8867188
				c0-0.1582031-0.0078125-0.5351563-0.1748047-0.515625c-0.2919922,0-0.3652344,1.0839844-0.3652344,1.3964844
				c0,0.1582031,0.0078125,0.5361328,0.1748047,0.515625C37.4140625,42.2832031,37.4873047,41.1992188,37.4873047,40.8867188z"/>
			<path d="M26.605957,44.6914063c-0.0986328,0.1220703-0.1860352,0.2441406-0.1860352,0.2929688
				c0,0.0361328,0.0302734,0.1210938,0.0410156,0.1582031l0.3852539,1.0507813
				c0.0791016,0.1826172,0.1992188,0.1787109,0.1992188,0.3330078c0,0.1376953-0.0219727,0.2431641-0.4453125,0.2431641
				c-0.2836914,0-0.300293-0.0732422-0.4150391-0.4423828l-0.1855469-0.53125
				c-0.0166016-0.0449219-0.0629883-0.1953125-0.1040039-0.1953125c-0.0708008,0-0.0600586,0.2197266-0.0625,0.2802734
				c0,0.0888672-0.0058594,0.2109375,0.0024414,0.2958984c0.019043,0.1630859,0.1337891,0.1425781,0.1337891,0.2890625
				c0,0.3125-0.3847656,0.3037109-0.5327148,0.3037109c-0.4584961,0-0.4560547-0.1738281-0.4560547-0.2714844
				c0-0.2070313,0.1337891-0.0859375,0.1831055-0.3496094c0.0766602-0.3935547,0.1586914-1.2294922,0.1586914-1.6474609
				c0-0.2070313-0.1533203-0.1181641-0.1533203-0.3369141c0-0.2519531,0.2978516-0.3046875,0.4916992-0.3046875
				c0.4887695,0,0.4697266,0.1787109,0.4697266,0.2441406c0,0.2353516-0.1362305,0.1210938-0.1801758,0.3164063
				c-0.0161133,0.0888672-0.0410156,0.3125-0.0410156,0.4013672c0,0.0322266-0.0024414,0.1220703,0.0273438,0.1220703
				c0.0493164,0,0.4208984-0.5078125,0.4208984-0.6132813c0-0.0488281-0.0522461-0.1054688-0.0522461-0.2109375
				c0-0.109375,0.0356445-0.2597656,0.4726563-0.2597656c0.3139648,0,0.3549805,0.1464844,0.3549805,0.2724609
				c0,0.2714844-0.1582031,0.1132813-0.2949219,0.2792969L26.605957,44.6914063z"/>
			<path d="M27.6943359,46.7373047c-0.1230469,0-0.2485352,0.0361328-0.371582,0.0361328
				c-0.1748047,0-0.2294922-0.1054688-0.2294922-0.2392578c0-0.2431641,0.1694336-0.1298828,0.2294922-0.3896484
				c0.0629883-0.2841797,0.1586914-1.2578125,0.1586914-1.5625c0-0.3164063-0.1694336-0.1992188-0.1694336-0.421875
				c0-0.2353516,0.1445313-0.2880859,0.2758789-0.2802734c0.0683594,0.0039063,0.1362305,0.0078125,0.2075195,0.0078125
				c0.0708008,0.0039063,0.1420898,0.0039063,0.2128906,0.0039063h0.4287109c0.0986328,0,0.1586914-0.0117188,0.199707-0.0234375
				c0.0410156-0.0126953,0.0654297-0.0244141,0.0927734-0.0244141c0.0927734,0,0.2294922,0.2226563,0.2294922,0.6044922
				c0,0.1503906-0.0493164,0.3125-0.1640625,0.3125c-0.2211914,0-0.0957031-0.4023438-0.4204102-0.4023438
				c-0.2758789,0-0.2402344,0.0732422-0.2705078,0.5039063c-0.0083008,0.1582031-0.0302734,0.1904297,0.0600586,0.1904297
				c0.1611328,0,0.0683594-0.3730469,0.237793-0.3730469c0.1665039,0,0.1826172,0.3242188,0.1826172,0.5068359
				c0,0.2158203-0.0488281,0.7431641-0.2402344,0.7431641c-0.2021484,0-0.043457-0.4101563-0.2128906-0.4101563
				c-0.1147461,0-0.0844727,0.3779297-0.0844727,0.5039063c0,0.2548828,0.0024414,0.2470703,0.1826172,0.2470703
				c0.4262695,0,0.328125-0.5234375,0.5493164-0.5234375c0.1308594,0,0.1635742,0.1582031,0.1635742,0.3242188
				c0,0.3779297-0.1884766,0.6943359-0.2895508,0.6943359c-0.0161133,0-0.0327148-0.0078125-0.0625-0.0166016
				c-0.0327148-0.0039063-0.0795898-0.0117188-0.1669922-0.0117188H27.6943359z"/>
			<path d="M30.4077148,43.8916016c0.1064453,0,0.1586914-0.0117188,0.1938477-0.0234375
				c0.0356445-0.0126953,0.0546875-0.0244141,0.090332-0.0244141c0.1665039,0,0.2651367,0.4423828,0.2651367,0.6367188
				c0,0.2148438-0.0712891,0.40625-0.2270508,0.40625c-0.2075195,0-0.171875-0.5039063-0.2919922-0.5039063
				c-0.0874023,0-0.090332,0.1708984-0.1123047,0.4628906c-0.0161133,0.2441406-0.0737305,0.8730469-0.0737305,1.2177734
				c0,0.3486328,0.2080078,0.1708984,0.2080078,0.4140625c0,0.1220703-0.0986328,0.2919922-0.6665039,0.2919922
				c-0.4916992,0-0.5-0.1904297-0.5-0.2753906c0-0.2441406,0.1938477-0.1220703,0.2431641-0.3173828
				c0.0654297-0.2597656,0.1611328-1.5986328,0.1611328-1.6591797c0-0.0615234-0.0166016-0.1347656-0.0654297-0.1347656
				c-0.1367188,0-0.1040039,0.5039063-0.347168,0.5039063c-0.1254883,0-0.1938477-0.1298828-0.1938477-0.3046875
				c0-0.2558594,0.1586914-0.7382813,0.3603516-0.7382813c0.0273438,0,0.0522461,0.0117188,0.0795898,0.0244141
				c0.0297852,0.0117188,0.0600586,0.0234375,0.0981445,0.0234375H30.4077148z"/>
			<path d="M31.9882813,46.1123047c0.1391602,0,0.2319336-0.1132813,0.324707-0.2519531
				c0.0576172-0.0849609,0.1503906-0.2714844,0.2485352-0.2714844c0.1123047,0,0.1611328,0.1171875,0.1611328,0.2714844
				c0,0.2158203-0.1118164,0.6171875-0.28125,0.6337891c-0.0571289,0.0078125-0.0571289,0.0078125-0.1118164,0.0488281
				c-0.2128906,0.1660156-0.371582,0.2509766-0.6171875,0.2509766c-0.4536133,0-0.7895508-0.4052734-0.7895508-1.1035156
				c0-0.9179688,0.4863281-1.8427734,1.1469727-1.8554688c0.1831055-0.0039063,0.2978516,0.09375,0.328125,0.09375
				c0.0327148,0,0.0791016-0.0410156,0.1171875-0.0410156c0.1586914,0,0.2871094,0.3857422,0.2871094,0.6376953
				c0,0.2275391-0.0849609,0.4296875-0.2514648,0.4296875c-0.2539063,0-0.2158203-0.53125-0.4614258-0.53125
				c-0.2734375,0-0.3935547,0.7832031-0.3935547,1.0800781C31.6958008,45.7792969,31.7670898,46.1123047,31.9882813,46.1123047z"/>
			<path d="M33.6689453,46.2216797c0,0.1669922,0.1201172,0.0898438,0.1201172,0.2724609
				c0,0.1455078-0.0605469,0.2753906-0.4667969,0.2753906c-0.3330078,0-0.5131836-0.0244141-0.5131836-0.2597656
				c0-0.1787109,0.1503906-0.1699219,0.1748047-0.2919922c0.1225586-0.6171875,0.1547852-1.3027344,0.1547852-1.7128906
				c0-0.2353516-0.1547852-0.1132813-0.1547852-0.3369141c0-0.0449219-0.0410156-0.3085938,0.5952148-0.3085938
				c0.3300781,0,0.3984375,0.09375,0.3984375,0.2392578c0,0.2353516-0.1611328,0.1630859-0.1855469,0.3984375
				c-0.0224609,0.2109375-0.0361328,0.3525391-0.0361328,0.4384766c0,0.0566406-0.0214844,0.1171875,0.2324219,0.1171875
				c0.0498047,0,0.1669922-0.0078125,0.1884766-0.0976563c0.0195313-0.0771484,0.0332031-0.3935547,0.0332031-0.4863281
				c0-0.2236328-0.1201172-0.1347656-0.1201172-0.3330078c0-0.2070313,0.1064453-0.2763672,0.5566406-0.2763672
				c0.3662109,0,0.4238281,0.09375,0.4238281,0.2314453c0,0.2675781-0.1748047,0.09375-0.2021484,0.40625
				C34.8212891,45,34.7529297,45.609375,34.7421875,46.1328125c-0.0048828,0.2998047,0.1474609,0.0966797,0.1474609,0.3652344
				c0,0.1542969-0.0898438,0.2714844-0.4638672,0.2714844c-0.3935547,0-0.5332031-0.0244141-0.5332031-0.2597656
				c0-0.2109375,0.1425781-0.109375,0.1669922-0.2958984c0.0380859-0.2880859,0.0595703-0.4462891,0.0595703-0.5644531
				c0-0.1259766-0.1171875-0.1298828-0.1767578-0.1298828c-0.2324219,0-0.2275391,0.0488281-0.2460938,0.2109375
				L33.6689453,46.2216797z"/>
			<path d="M36.9560547,45.3613281c-0.0712891,0.7304688-0.1699219,1.4326172-0.9208984,1.4326172
				c-0.4394531,0-0.8251953-0.2109375-0.8251953-0.8603516c0-0.4707031,0.1123047-0.9902344,0.109375-1.4082031
				c-0.0019531-0.2763672-0.1796875-0.0898438-0.1796875-0.3330078c0-0.0322266-0.0634766-0.3330078,0.6337891-0.3330078
				c0.4316406,0,0.4423828,0.1669922,0.4423828,0.2802734c0,0.2841797-0.2128906,0.0605469-0.2402344,0.5361328
				c-0.0791016,0.9414063-0.0683594,0.6894531-0.0908203,1.0791016c-0.015625,0.296875,0.0605469,0.4628906,0.2539063,0.4628906
				c0.1777344,0,0.2978516-0.1220703,0.3583984-0.3691406c0.0869141-0.3496094,0.125-0.9541016,0.125-1.3271484
				c0-0.3125-0.2148438-0.1142578-0.2148438-0.40625c0-0.1542969,0.0732422-0.2558594,0.4306641-0.2558594
				c0.4589844,0,0.4404297,0.1865234,0.4404297,0.2480469c0,0.2958984-0.2050781,0.0927734-0.2382813,0.421875
				L36.9560547,45.3613281z"/>
			<path d="M38.0439453,46.0107422C38,46.4736328,38.2216797,46.2099609,38.2216797,46.4892578
				c0,0.2070313-0.1669922,0.2802734-0.5957031,0.2802734c-0.4833984,0-0.4833984-0.1699219-0.4833984-0.2714844
				c0-0.2480469,0.1445313-0.0654297,0.1972656-0.3291016c0.0703125-0.3613281,0.171875-1.3720703,0.171875-1.7412109
				c0-0.1992188-0.1943359-0.0449219-0.1943359-0.2919922c0-0.2275391,0.1748047-0.2636719,0.2919922-0.2636719
				c0.0664063,0,0.1474609,0.0039063,0.2246094,0.0078125c0.0791016,0.0078125,0.1503906,0.0117188,0.1962891,0.0117188
				c0.0712891,0,0.1425781-0.0039063,0.2158203-0.0117188c0.0712891-0.0039063,0.1425781-0.0078125,0.2128906-0.0078125
				c0.3388672,0,0.6015625,0.1738281,0.6015625,0.7460938c0,0.5361328-0.2431641,1.0878906-0.8740234,1.0878906
				c-0.0439453,0-0.0849609-0.0039063-0.1289063-0.0039063L38.0439453,46.0107422z M38.1064453,44.9677734
				c-0.0048828,0.0605469-0.0185547,0.1865234-0.0185547,0.2392578c0,0.0654297,0.0107422,0.0693359,0.0517578,0.0693359
				c0.2128906,0,0.2509766-0.515625,0.2509766-0.7470703c0-0.1621094-0.0488281-0.2558594-0.1582031-0.2558594
				c-0.0683594,0-0.0712891,0.1015625-0.0957031,0.3613281L38.1064453,44.9677734z"/>
		</g>
		<g>
			<g>
				<g>
					
						<linearGradient id="SVGID_5_" gradientUnits="userSpaceOnUse" x1="30.3256836" y1="47.5478516" x2="31.345192" y2="51.7798576">
						<stop  offset="0" style="stop-color:#489F00"/>
						<stop  offset="0.2346562" style="stop-color:#409600"/>
						<stop  offset="0.6172314" style="stop-color:#2B7E00"/>
						<stop  offset="1" style="stop-color:#105F00"/>
					</linearGradient>
					<path style="fill:url(#SVGID_5_);" d="M32.0874023,50.0429688l-1.2871094-1.2861328h-1.3447266
						C29.4555664,48.7568359,31.2094727,46.8251953,32.0874023,50.0429688z"/>
					<path style="fill:#230B00;" d="M32.0961914,50.21875c-0.0029297,0-0.0058594,0-0.0087891,0
						c-0.0454102,0-0.090332-0.0175781-0.1240234-0.0517578l-1.2358398-1.234375h-1.2719727
						c-0.0693359,0-0.1323242-0.0410156-0.1606445-0.1044922c-0.027832-0.0634766-0.0161133-0.1376953,0.0307617-0.1894531
						c0.0234375-0.0253906,0.5820313-0.6318359,1.269043-0.6318359c0.7329102,0,1.2871094,0.6523438,1.6479492,1.9394531
						c0.0185547,0.0283203,0.0288086,0.0615234,0.0288086,0.0966797C32.2714844,50.1396484,32.1928711,50.21875,32.0961914,50.21875
						z M29.940918,48.5810547h0.859375c0.0463867,0,0.0913086,0.0185547,0.1240234,0.0517578l0.7543945,0.7539063
						c-0.237793-0.5566406-0.5859375-1.0292969-1.0839844-1.0292969
						C30.3510742,48.3574219,30.1201172,48.4648438,29.940918,48.5810547z"/>
				</g>
				<g>
					
						<linearGradient id="SVGID_6_" gradientUnits="userSpaceOnUse" x1="32.6757813" y1="48.0244141" x2="33.2644653" y2="50.4680634">
						<stop  offset="0" style="stop-color:#489F00"/>
						<stop  offset="0.2346562" style="stop-color:#409600"/>
						<stop  offset="0.6172314" style="stop-color:#2B7E00"/>
						<stop  offset="1" style="stop-color:#105F00"/>
					</linearGradient>
					<path style="fill:url(#SVGID_6_);" d="M32.0004883,49.8730469c0,0,0.8779297-1.5205078,1.9301758-1.2871094
						C33.9306641,48.5859375,32.0600586,47.5332031,32.0004883,49.8730469z"/>
					<path style="fill:#230B00;" d="M32.0004883,50.0488281c-0.015625,0-0.0317383-0.0019531-0.0473633-0.0068359
						c-0.0776367-0.0214844-0.1298828-0.0927734-0.1279297-0.1738281c0.0375977-1.4736328,0.7915039-1.6943359,1.2373047-1.6943359
						c0.4892578,0,0.9355469,0.2490234,0.9541016,0.2587891c0.0761719,0.0429688,0.109375,0.1347656,0.078125,0.2158203
						c-0.03125,0.0820313-0.1181641,0.1289063-0.2021484,0.1083984c-0.0605469-0.0126953-0.1220703-0.0195313-0.1835938-0.0195313
						c-0.840332,0-1.5493164,1.2109375-1.5566406,1.2236328C32.1206055,50.015625,32.0620117,50.0488281,32.0004883,50.0488281z
						 M33.0625,48.5253906c-0.402832,0-0.6704102,0.2314453-0.7988281,0.6894531
						c0.2182617-0.2519531,0.5117188-0.5273438,0.8544922-0.6884766
						C33.0996094,48.5253906,33.0810547,48.5253906,33.0625,48.5253906z"/>
				</g>
				<g>
					
						<linearGradient id="SVGID_7_" gradientUnits="userSpaceOnUse" x1="-22.7495117" y1="36.5400391" x2="-22.1899433" y2="38.8628273" gradientTransform="matrix(-0.5688 0 0 1.5037999 18.8387585 -7.8519592)">
						<stop  offset="0" style="stop-color:#489F00"/>
						<stop  offset="0.2346562" style="stop-color:#409600"/>
						<stop  offset="0.6172314" style="stop-color:#2B7E00"/>
						<stop  offset="1" style="stop-color:#105F00"/>
					</linearGradient>
					<path style="fill:url(#SVGID_7_);" d="M32.0004883,49.6464844c0,0,0.0410156-2.8505859-0.7314453-1.9345703
						L32.0004883,49.6464844z"/>
					<path style="fill:#230B00;" d="M32.0004883,49.8085938c-0.0664063,0-0.1274414-0.0410156-0.1518555-0.1044922
						l-0.7314453-1.9345703c-0.0209961-0.0556641-0.0102539-0.1171875,0.027832-0.1621094
						c0.1357422-0.1611328,0.2666016-0.2392578,0.4003906-0.2392578c0.0639648,0,0.1591797,0.0195313,0.2495117,0.1113281
						c0.3745117,0.3789063,0.3720703,1.8740234,0.3676758,2.1689453c-0.0009766,0.078125-0.0571289,0.1445313-0.1342773,0.1582031
						C32.019043,49.8076172,32.0097656,49.8085938,32.0004883,49.8085938z M31.456543,47.7490234l0.3427734,0.90625
						c-0.0546875-0.5556641-0.1572266-0.9365234-0.2539063-0.9628906
						C31.5356445,47.6923828,31.5053711,47.7041016,31.456543,47.7490234z"/>
				</g>
			</g>
			<g>
				
					<linearGradient id="SVGID_8_" gradientUnits="userSpaceOnUse" x1="30.9677734" y1="47.0810547" x2="33.5599899" y2="57.8414192">
					<stop  offset="0" style="stop-color:#FF0000"/>
					<stop  offset="0.1409149" style="stop-color:#F60000"/>
					<stop  offset="0.3707701" style="stop-color:#DE0000"/>
					<stop  offset="0.6608999" style="stop-color:#B60000"/>
					<stop  offset="0.9971457" style="stop-color:#7F0000"/>
					<stop  offset="1" style="stop-color:#7F0000"/>
				</linearGradient>
				<path style="fill:url(#SVGID_8_);" d="M35.7177734,51.3720703c0-1.3779297-1.1152344-2.4951172-2.4921875-2.4951172
					c-0.2197266,0-0.4272461,0.0371094-0.628418,0.0888672c-0.1308594-0.0205078-0.2636719-0.0390625-0.4003906-0.0390625
					c-0.2373047,0-0.4619141,0.0449219-0.6796875,0.1064453c-0.2421875-0.078125-0.4951172-0.1318359-0.7636719-0.1318359
					c-1.3642578,0-2.4707031,1.1064453-2.4707031,2.4707031c0,1.2841797,0.9833984,2.3261719,2.2353516,2.4462891
					c0.4101563,0.2128906,0.9111328,0.3427734,1.4580078,0.3427734c0.5214844,0,1.0039063-0.1152344,1.4018555-0.3105469
					C34.6826172,53.7705078,35.7177734,52.6962891,35.7177734,51.3720703z"/>
				<path style="fill:#230B00;" d="M31.9760742,54.3076172c-0.5351563,0-1.0532227-0.1191406-1.5004883-0.3457031
					c-1.3359375-0.1425781-2.3398438-1.2509766-2.3398438-2.5898438c0-1.4433594,1.1743164-2.6171875,2.6176758-2.6171875
					c0.2421875,0,0.4931641,0.0410156,0.7666016,0.125c0.4189453-0.1132813,0.7607422-0.1123047,1.0703125-0.0634766
					c0.2348633-0.0585938,0.4379883-0.0859375,0.6352539-0.0859375c1.4550781,0,2.6386719,1.1845703,2.6386719,2.6416016
					c0,1.3769531-1.0722656,2.5234375-2.4482422,2.6230469C32.9882813,54.2001953,32.4907227,54.3076172,31.9760742,54.3076172z
					 M30.753418,49.0478516c-1.28125,0-2.3237305,1.0429688-2.3237305,2.3242188
					c0,1.1962891,0.9038086,2.1855469,2.1025391,2.2998047c0.0185547,0.0019531,0.0366211,0.0078125,0.0532227,0.0166016
					c0.8095703,0.4179688,1.9257813,0.4238281,2.7280273,0.0302734c0.0175781-0.0087891,0.0361328-0.0136719,0.0556641-0.0146484
					c1.234375-0.0761719,2.2021484-1.1005859,2.2021484-2.3320313c0-1.2949219-1.0527344-2.3486328-2.3457031-2.3486328
					c-0.1806641,0-0.3686523,0.0273438-0.5917969,0.0849609c-0.0195313,0.0048828-0.0390625,0.0078125-0.0595703,0.0019531
					c-0.2993164-0.0458984-0.6103516-0.0507813-1.0170898,0.0644531c-0.0292969,0.0058594-0.0581055,0.0068359-0.0849609-0.0019531
					C31.2119141,49.0888672,30.9765625,49.0478516,30.753418,49.0478516z"/>
			</g>
			<g>
				
					<linearGradient id="SVGID_9_" gradientUnits="userSpaceOnUse" x1="31.9663086" y1="48.1894531" x2="32.8698082" y2="51.9399071">
					<stop  offset="0" style="stop-color:#489F00"/>
					<stop  offset="0.2346562" style="stop-color:#409600"/>
					<stop  offset="0.6172314" style="stop-color:#2B7E00"/>
					<stop  offset="1" style="stop-color:#105F00"/>
				</linearGradient>
				<path style="fill:url(#SVGID_9_);" d="M31.6381836,49.0761719c0,0,0.1914063-0.5683594,0.6777344-0.1064453
					c0.4873047,0.4599609,0.769043,1.5371094,0.769043,1.5371094S31.5551758,49.5224609,31.6381836,49.0761719z"/>
				<path style="fill:#230B00;" d="M33.09375,50.6826172c-0.0039063-0.0009766-0.0068359-0.0009766-0.0087891,0
					c-0.0332031,0-0.0664063-0.0097656-0.0947266-0.0283203C32.5,50.3388672,31.3710938,49.5517578,31.4658203,49.0439453
					c0.0571289-0.1748047,0.2182617-0.4306641,0.5-0.4306641c0.1523438,0,0.3110352,0.0771484,0.4711914,0.2294922
					c0.4594727,0.4335938,0.7387695,1.3388672,0.8032227,1.5673828c0.0185547,0.0283203,0.0292969,0.0615234,0.0292969,0.0966797
					C33.2695313,50.6035156,33.1904297,50.6826172,33.09375,50.6826172z M31.9658203,48.9638672
					c-0.0976563,0-0.1611328,0.1679688-0.1616211,0.1699219c-0.0205078,0.1181641,0.3974609,0.5273438,0.9516602,0.9335938
					c-0.1240234-0.3271484-0.3164063-0.7392578-0.5605469-0.9697266
					C32.0737305,48.9814453,31.9990234,48.9638672,31.9658203,48.9638672z"/>
			</g>
			<ellipse style="fill:#FFFFFF;" cx="30.2114258" cy="50.1533203" rx="0.5605469" ry="0.5048828"/>
		</g>
	</g>
</g>
</svg>
