<?xml version="1.0" encoding="utf-8"?>
<!-- Generator: Adobe Illustrator 15.0.2, SVG Export Plug-In . SVG Version: 6.00 Build 0)  -->
<!DOCTYPE svg PUBLIC "-//W3C//DTD SVG 1.1//EN" "http://www.w3.org/Graphics/SVG/1.1/DTD/svg11.dtd">
<svg version="1.1" id="レイヤー_1" xmlns="http://www.w3.org/2000/svg" xmlns:xlink="http://www.w3.org/1999/xlink" x="0px"
	 y="0px" width="64px" height="64px" viewBox="0 0 64 64" style="enable-background:new 0 0 64 64;" xml:space="preserve">
<g>
	<g>
		<linearGradient id="SVGID_1_" gradientUnits="userSpaceOnUse" x1="27.2817383" y1="25.3964844" x2="44.4958" y2="75.0707016">
			<stop  offset="0" style="stop-color:#FFF1BF"/>
			<stop  offset="0.1983559" style="stop-color:#FFE9B2"/>
			<stop  offset="0.566525" style="stop-color:#FFD38F"/>
			<stop  offset="1" style="stop-color:#FFB55F"/>
		</linearGradient>
		<path style="fill:url(#SVGID_1_);" d="M59.9150391,32.1264648c5.2558594,29.3842773-6.1865234,27.7456055-28.2294922,27.7680664
			c-18.5625,0.0205078-33.3339844-1.1259766-27.621582-26.0078125c5.5810547-24.3056641,9.059082-29.527832,27.621582-29.527832
			C51.8417969,4.3588867,55.4697266,7.2739258,59.9150391,32.1264648z"/>
		<linearGradient id="SVGID_2_" gradientUnits="userSpaceOnUse" x1="37.8964844" y1="-5.7172852" x2="34.0634613" y2="15.1162262">
			<stop  offset="0" style="stop-color:#D23A18"/>
			<stop  offset="0.2649619" style="stop-color:#DA4E1C"/>
			<stop  offset="0.8068733" style="stop-color:#ED8328"/>
			<stop  offset="0.89697" style="stop-color:#F18C2A"/>
			<stop  offset="0.9146296" style="stop-color:#F29537"/>
			<stop  offset="0.9474026" style="stop-color:#F5AD5A"/>
			<stop  offset="0.9913981" style="stop-color:#F9D391"/>
			<stop  offset="1" style="stop-color:#FADB9D"/>
		</linearGradient>
		<path style="fill:url(#SVGID_2_);" d="M19.9907227,6.2885742c-7.109375,2.1606445-9.5883789,4.9956055-4.0395508,5.6621094
			S30,9.6777344,34,10.8974609s2.4082031,4.1821289,6.3330078,4.0532227s3.7958984-2.9873047,7.4833984,0.0039063
			s7.40625,5.6704102,8.2949219,0S40.8144531-0.0400391,19.9907227,6.2885742z"/>
		<linearGradient id="SVGID_3_" gradientUnits="userSpaceOnUse" x1="35.6435547" y1="6.2451172" x2="59.5605316" y2="1.7451072">
			<stop  offset="0" style="stop-color:#D23A18"/>
			<stop  offset="0.2649619" style="stop-color:#DA4E1C"/>
			<stop  offset="0.8068733" style="stop-color:#ED8328"/>
			<stop  offset="0.89697" style="stop-color:#F18C2A"/>
			<stop  offset="0.9146296" style="stop-color:#F29537"/>
			<stop  offset="0.9474026" style="stop-color:#F5AD5A"/>
			<stop  offset="0.9913981" style="stop-color:#F9D391"/>
			<stop  offset="1" style="stop-color:#FADB9D"/>
		</linearGradient>
		<path style="fill:url(#SVGID_3_);" d="M18.4052734,6.2192383c0,0,17.9560547,1.8095703,30.5673828,1.0205078
			C48.9726563,7.2397461,37.3935547,0.9042969,18.4052734,6.2192383z"/>
		
			<path style="fill:none;stroke:#FFBC80;stroke-width:0.812055;stroke-linecap:round;stroke-linejoin:round;stroke-miterlimit:10;" d="
			M19.9921875,6.4624023c0,0,8.1826172,0.980957,14.0917969,0.9765625"/>
		
			<path style="fill:none;stroke:#FFBC80;stroke-width:0.812055;stroke-linecap:round;stroke-linejoin:round;stroke-miterlimit:10;" d="
			M38.2480469,7.4311523c0,0,1.2353516,0.0205078,2.8291016,0"/>
		<path style="fill:#FFFFFF;" d="M16.7685547,10.1616211c1.5175781-1.1435547,4.5288086-0.4262695,1.9765625,3.015625
			S11.7006836,13.9819336,16.7685547,10.1616211z"/>
		<path style="fill:#FFFFFF;" d="M14.9853516,16.7084961c1.2050781,0.0419922-0.1518555,3.1103516-1.1518555,2.6762695
			S12.8041992,16.6328125,14.9853516,16.7084961z"/>
		<path style="opacity:0.35;fill:#FFFFFF;" d="M41.1572266,55.5888672
			C39.7675781,54.1240234,48.1171875,55.7480469,51.25,53.3574219c3.5839844-2.7353516,6.1298828-4.3105469,5.6289063-1.4667969
			C56.3076172,55.1337891,43.1748047,57.7177734,41.1572266,55.5888672z"/>
	</g>
	<g>
		<polygon style="fill:#FF1D25;" points="11.0029297,32.8608398 9.6835938,31.4243164 7.8496094,32.8608398 6.5292969,31.4243164 
			4.2822266,33.1855469 7.1503906,36.3085938 8.9853516,34.8720703 10.3046875,36.3085938 12.1386719,34.8720703 
			13.4580078,36.3085938 15.7060547,34.5478516 12.8369141,31.4243164 		"/>
		<polygon style="fill:#FF1D25;" points="59.7177734,34.546875 56.8496094,31.4243164 55.0146484,32.8608398 53.6943359,31.4238281 
			51.8613281,32.8608398 50.5419922,31.4243164 48.2949219,33.1855469 51.1630859,36.3076172 52.9970703,34.8710938 
			54.3173828,36.3085938 56.1503906,34.8710938 57.4707031,36.3076172 		"/>
	</g>
	<path style="fill:none;stroke:#541715;stroke-width:2.43819;stroke-miterlimit:10;" d="M59.9150391,32.1264648
		c5.2558594,29.3842773-6.1865234,27.7456055-28.2294922,27.7680664c-18.5625,0.0205078-33.3339844-1.1259766-27.621582-26.0078125
		c5.5810547-24.3056641,9.059082-29.527832,27.621582-29.527832C51.8417969,4.3588867,55.4697266,7.2739258,59.9150391,32.1264648z"
		/>
	<path style="fill:none;stroke:#330100;stroke-width:2.7342803;stroke-miterlimit:10;" d="M35.4882813,43.5214844
		c0,0-11.6074219-4.1054688-12.3442383-0.0263672c-0.7382813,4.0820313,5.8007813,5.7753906,8.7026367,6.1337891
		c0,0-9.2143555-1.3564453-8.8632813,2.9345703c0.3500977,4.2919922,8.2900391,3.7832031,8.2900391,3.7832031"/>
	<path style="fill:none;stroke:#330100;stroke-width:2.7342803;stroke-miterlimit:10;" d="M46.9716797,32.3452148
		c0.2441406-2.5639648-1.4677734-4.8203125-3.8232422-5.0454102c-2.3574219-0.2250977-4.4628906,1.6704102-4.7089844,4.2329102"/>
	<path style="fill:none;stroke:#330100;stroke-width:2.7342803;stroke-miterlimit:10;" d="M16.6884766,32.402832
		c-0.2827148-2.5595703,1.3701172-4.8398438,3.6918945-5.0976563c2.3222656-0.2563477,4.4335938,1.6074219,4.7167969,4.1665039"/>
</g>
</svg>
