<?xml version="1.0" encoding="utf-8"?>
<!-- Generator: Adobe Illustrator 17.0.0, SVG Export Plug-In . SVG Version: 6.00 Build 0)  -->
<!DOCTYPE svg PUBLIC "-//W3C//DTD SVG 1.1//EN" "http://www.w3.org/Graphics/SVG/1.1/DTD/svg11.dtd">
<svg version="1.1" id="レイヤー_1" xmlns="http://www.w3.org/2000/svg" xmlns:xlink="http://www.w3.org/1999/xlink" x="0px"
	 y="0px" width="64px" height="64px" viewBox="0 0 64 64" style="enable-background:new 0 0 64 64;" xml:space="preserve">
<g>
	<linearGradient id="SVGID_1_" gradientUnits="userSpaceOnUse" x1="21.75" y1="35.125" x2="42.25" y2="35.125">
		<stop  offset="0" style="stop-color:#B2B2B3;stop-opacity:0.3"/>
		<stop  offset="0.2" style="stop-color:#F5F5F5;stop-opacity:0.3"/>
		<stop  offset="0.4" style="stop-color:#F5F5F5;stop-opacity:0.3"/>
		<stop  offset="0.6" style="stop-color:#ECECED;stop-opacity:0.2"/>
		<stop  offset="1" style="stop-color:#9C9C9D;stop-opacity:0.3"/>
	</linearGradient>
	<path style="fill:url(#SVGID_1_);" d="M23.25,62.25c-1.1865234,0-1.5-0.9628906-1.5-1.4716797v-4.6875
		c0-1.0302734,0.2172852-2.4794922,0.4682617-4.1572266C22.5668945,49.6103516,23,46.71875,23,43.875
		c0-2.421875-0.315918-4.2744141-0.621582-6.0654297c-0.309082-1.8125-0.628418-3.6855469-0.628418-6.1503906
		c0-4.7758789,1.1108398-8.2607422,3.7685547-14.7539063C27.9624023,10.9345703,28,8.2758789,28,8.2495117l0.0009766-0.2490234
		L35.9990234,8L36,8.2495117c0,0.0263672,0.0371094,2.6850586,2.4814453,8.6557617
		C41.1386719,23.3984375,42.25,26.8833008,42.25,31.6591797c0,2.4648438-0.3193359,4.3378906-0.6289063,6.1503906
		C41.3164063,39.6005859,41,41.453125,41,43.875c0,2.84375,0.4335938,5.7353516,0.78125,8.0585938
		c0.2519531,1.6777344,0.46875,3.1269531,0.46875,4.1572266v4.6875c0,0.5087891-0.3134766,1.4716797-1.5,1.4716797H23.25z"/>
	<path style="fill:#595757;" d="M35.75,8.25c0,0,0,2.6420898,2.5,8.75c2.5,6.1079712,3.75,9.7727089,3.75,14.6591187
		c0,4.8863525-1.25,7.3295288-1.25,12.2158813S42,53.6477089,42,56.0909386c0,2.4431801,0,4.6874428,0,4.6874428S42,62,40.75,62
		S32,62,32,62s-7.5,0-8.75,0S22,60.7783813,22,60.7783813s0-2.2442627,0-4.6874428c0-2.4432297,1.25-7.3295898,1.25-12.2159386
		S22,36.5454712,22,31.6591187C22,26.7727089,23.25,23.1079712,25.75,17c2.5-6.1079102,2.5-8.75,2.5-8.75H32H35.75 M35.75,7.75H32
		h-3.75h-0.5v0.5c-0.0001793,0.0241394-0.0460606,2.6562691-2.4627399,8.5606003
		C22.6164799,23.3358307,21.5,26.8411217,21.5,31.6591187c0,2.4855118,0.3213501,4.3697739,0.6321201,6.1920013
		C22.4498692,39.7143021,22.75,41.4741592,22.75,43.875c0,2.8250885-0.4317894,5.7065582-0.7787495,8.0218582
		C21.7183895,53.5843201,21.5,55.0416603,21.5,56.0909386v4.6874428C21.5,61.4704208,21.9660492,62.5,23.25,62.5H32h8.75
		c1.2839508,0,1.75-1.0295792,1.75-1.7216187v-4.6874428c0-1.0492783-0.2183914-2.5066185-0.4712486-4.1940804
		C41.6817894,49.5815582,41.25,46.7000885,41.25,43.875c0-2.4008408,0.3001289-4.1606979,0.6178818-6.02388
		C42.1786499,36.0288925,42.5,34.1446304,42.5,31.6591187c0-4.817997-1.1164818-8.323288-3.7872581-14.8485184
		C36.2960587,10.9062691,36.2501793,8.2741394,36.25,8.2482491l-0.003479-0.4965096L35.75,7.75L35.75,7.75z"/>
</g>
<g>
	<linearGradient id="SVGID_2_" gradientUnits="userSpaceOnUse" x1="22" y1="39.2193565" x2="42" y2="39.2193565">
		<stop  offset="0" style="stop-color:#FFEFD9"/>
		<stop  offset="0.2" style="stop-color:#FFFFFF"/>
		<stop  offset="0.6" style="stop-color:#FFFFFF"/>
		<stop  offset="1" style="stop-color:#FFEFD9"/>
	</linearGradient>
	<path style="fill:url(#SVGID_2_);" d="M42,31.6591187C42,26.7727051,40.75,23.1079712,38.25,17
		c-0.0287476-0.0702515-0.0529175-0.1339111-0.0809937-0.2032471C37.7358398,16.2598267,35.4960327,16.3261719,33.25,17
		c-2.5,0.75-7.5,0.75-7.5,0C23.25,23.1079712,22,26.7727051,22,31.6591187c0,4.8863525,1.25,7.3295288,1.25,12.2158813
		S22,53.6477051,22,56.0909424c0,2.4431763,0,4.687439,0,4.687439S22,62,23.25,62S32,62,32,62s7.5,0,8.75,0
		S42,60.7783813,42,60.7783813s0-2.2442627,0-4.687439c0-2.4432373-1.25-7.3295898-1.25-12.2159424S42,36.5454712,42,31.6591187z"/>
	<linearGradient id="SVGID_3_" gradientUnits="userSpaceOnUse" x1="16.1071434" y1="17.0002537" x2="33.25" y2="17.0002537">
		<stop  offset="0" style="stop-color:#FFEFD9"/>
		<stop  offset="1" style="stop-color:#F5F5F5"/>
	</linearGradient>
	<path style="fill:url(#SVGID_3_);" d="M33.25,17c-3.487793-0.6975708-6.9713745-0.7454224-7.4420776-0.1453857
		C25.7877197,16.9043579,25.7705688,16.9497681,25.75,17C25.75,17.75,30.75,17.75,33.25,17z"/>
</g>
<g>
	<linearGradient id="SVGID_4_" gradientUnits="userSpaceOnUse" x1="21.75" y1="42" x2="42.25" y2="42">
		<stop  offset="0" style="stop-color:#FFFFFF;stop-opacity:0.9"/>
		<stop  offset="1" style="stop-color:#FFFFFF;stop-opacity:0.9"/>
	</linearGradient>
	<path style="fill:url(#SVGID_4_);" d="M21.75,59.75v-3.6591797c0-1.0302734,0.2172852-2.4794922,0.4682617-4.1572266
		C22.5668945,49.6103516,23,46.71875,23,43.875c0-2.421875-0.315918-4.2744141-0.621582-6.0654297
		c-0.309082-1.8125-0.628418-3.6855469-0.628418-6.1503906c0-2.4775391,0.3173828-4.706543,1.0292969-7.2270508L22.8310547,24.25
		h18.3378906l0.0507813,0.1821289C41.9326172,26.9501953,42.25,29.1791992,42.25,31.6591797
		c0,2.4648438-0.3193359,4.3378906-0.6289063,6.1503906C41.3164063,39.6005859,41,41.453125,41,43.875
		c0,2.84375,0.4335938,5.7353516,0.78125,8.0585938c0.2519531,1.6777344,0.46875,3.1269531,0.46875,4.1572266V59.75H21.75z"/>
	<path style="fill:#9C9C9D;" d="M40.9798584,24.5C41.6577797,26.8994789,42,29.1145592,42,31.6591187
		c0,4.8863525-1.25,7.3295288-1.25,12.2158813S42,53.6477089,42,56.0909386c0,1.2990112,0,2.5299721,0,3.4090614H22
		c0-0.8790894,0-2.1100502,0-3.4090614c0-2.4432297,1.25-7.3295898,1.25-12.2159386S22,36.5454712,22,31.6591187
		c0-2.5445595,0.3422203-4.7596397,1.0201397-7.1591187H40.9798584 M41.3581696,24h-0.3783112H23.0201397h-0.3783092
		l-0.10285,0.3640594C21.8204308,26.9073181,21.5,29.1571999,21.5,31.6591187c0,2.4855118,0.3213501,4.3697739,0.6321201,6.1920013
		C22.4498692,39.7143021,22.75,41.4741592,22.75,43.875c0,2.8250885-0.4317894,5.7065582-0.7787495,8.0218582
		C21.7183895,53.5843201,21.5,55.0416603,21.5,56.0909386V59.5V60H22h20h0.5v-0.5v-3.4090614
		c0-1.0492783-0.2183914-2.5066185-0.4712486-4.1940804C41.6817894,49.5815582,41.25,46.7000885,41.25,43.875
		c0-2.4008408,0.3001289-4.1606979,0.6178818-6.02388C42.1786499,36.0288925,42.5,34.1446304,42.5,31.6591187
		c0-2.5019188-0.3204308-4.7518005-1.0389786-7.2950592L41.3581696,24L41.3581696,24z"/>
</g>
<g>
	<linearGradient id="SVGID_5_" gradientUnits="userSpaceOnUse" x1="37" y1="27" x2="39.5" y2="27">
		<stop  offset="0" style="stop-color:#0073E6;stop-opacity:0.6"/>
		<stop  offset="1" style="stop-color:#0073E6;stop-opacity:0.6"/>
	</linearGradient>
	<circle style="fill:url(#SVGID_5_);" cx="38.25" cy="27" r="1.25"/>
	<linearGradient id="SVGID_6_" gradientUnits="userSpaceOnUse" x1="20.75" y1="34.4753113" x2="23.25" y2="34.4753113">
		<stop  offset="0" style="stop-color:#0073E6;stop-opacity:0.6"/>
		<stop  offset="1" style="stop-color:#0073E6;stop-opacity:0.6"/>
	</linearGradient>
	<path style="fill:url(#SVGID_6_);" d="M23.25,34.5c0-0.6734619-0.5353394-1.2138672-1.2022705-1.2403564
		c0.0507202,0.8707886,0.1379395,1.6702881,0.244812,2.4313354C22.8375244,35.5562134,23.25,35.0866089,23.25,34.5z"/>
	<linearGradient id="SVGID_7_" gradientUnits="userSpaceOnUse" x1="30.75" y1="33.25" x2="33.25" y2="33.25">
		<stop  offset="0" style="stop-color:#0073E6;stop-opacity:0.6"/>
		<stop  offset="1" style="stop-color:#0073E6;stop-opacity:0.6"/>
	</linearGradient>
	<circle style="fill:url(#SVGID_7_);" cx="32" cy="33.25" r="1.25"/>
	<linearGradient id="SVGID_8_" gradientUnits="userSpaceOnUse" x1="22" y1="45.75" x2="24.5" y2="45.75">
		<stop  offset="0" style="stop-color:#0073E6;stop-opacity:0.6"/>
		<stop  offset="1" style="stop-color:#0073E6;stop-opacity:0.6"/>
	</linearGradient>
	<path style="fill:url(#SVGID_8_);" d="M24.5,45.75c0-0.6903687-0.5596313-1.25-1.25-1.25
		c-0.003418,0-0.0061646,0.0019531-0.0095825,0.0019531c-0.017395,0.8302002-0.0669556,1.6561279-0.1381836,2.4682007
		C23.1529541,46.9764404,23.1975708,47,23.25,47C23.9403687,47,24.5,46.4403687,24.5,45.75z"/>
	<linearGradient id="SVGID_9_" gradientUnits="userSpaceOnUse" x1="39.5" y1="47" x2="42" y2="47">
		<stop  offset="0" style="stop-color:#0073E6;stop-opacity:0.6"/>
		<stop  offset="1" style="stop-color:#0073E6;stop-opacity:0.6"/>
	</linearGradient>
	<path style="fill:url(#SVGID_9_);" d="M40.75,45.75c-0.6903687,0-1.25,0.5596313-1.25,1.25s0.5596313,1.25,1.25,1.25
		c0.0957642,0,0.1804199-0.0341187,0.2699585-0.0545044c-0.0892334-0.7944946-0.1643677-1.6090088-0.2122192-2.4338379
		C40.7874756,45.7606812,40.7705078,45.75,40.75,45.75z"/>
	<linearGradient id="SVGID_10_" gradientUnits="userSpaceOnUse" x1="22" y1="55.75" x2="24.5" y2="55.75">
		<stop  offset="0" style="stop-color:#0073E6;stop-opacity:0.6"/>
		<stop  offset="1" style="stop-color:#0073E6;stop-opacity:0.6"/>
	</linearGradient>
	<path style="fill:url(#SVGID_10_);" d="M23.25,57c0.6903687,0,1.25-0.5596313,1.25-1.25s-0.5596313-1.25-1.25-1.25
		c-0.670166,0-1.2071533,0.5307007-1.2385254,1.1930542c-0.0015869,0.0344238-0.001709,0.065918-0.0028687,0.0996094
		C22.0324097,56.4620972,22.5747681,57,23.25,57z"/>
	<linearGradient id="SVGID_11_" gradientUnits="userSpaceOnUse" x1="29.5" y1="58.25" x2="32" y2="58.25">
		<stop  offset="0" style="stop-color:#0073E6;stop-opacity:0.6"/>
		<stop  offset="1" style="stop-color:#0073E6;stop-opacity:0.6"/>
	</linearGradient>
	<circle style="fill:url(#SVGID_11_);" cx="30.75" cy="58.25" r="1.25"/>
	<linearGradient id="SVGID_12_" gradientUnits="userSpaceOnUse" x1="25.75" y1="39.5" x2="28.25" y2="39.5">
		<stop  offset="0" style="stop-color:#0073E6;stop-opacity:0.6"/>
		<stop  offset="1" style="stop-color:#0073E6;stop-opacity:0.6"/>
	</linearGradient>
	<circle style="fill:url(#SVGID_12_);" cx="27" cy="39.5" r="1.25"/>
	<linearGradient id="SVGID_13_" gradientUnits="userSpaceOnUse" x1="27" y1="50.75" x2="29.5" y2="50.75">
		<stop  offset="0" style="stop-color:#0073E6;stop-opacity:0.6"/>
		<stop  offset="1" style="stop-color:#0073E6;stop-opacity:0.6"/>
	</linearGradient>
	<circle style="fill:url(#SVGID_13_);" cx="28.25" cy="50.75" r="1.25"/>
	<linearGradient id="SVGID_14_" gradientUnits="userSpaceOnUse" x1="34.5" y1="53.25" x2="37" y2="53.25">
		<stop  offset="0" style="stop-color:#0073E6;stop-opacity:0.6"/>
		<stop  offset="1" style="stop-color:#0073E6;stop-opacity:0.6"/>
	</linearGradient>
	<circle style="fill:url(#SVGID_14_);" cx="35.75" cy="53.25" r="1.25"/>
	<linearGradient id="SVGID_15_" gradientUnits="userSpaceOnUse" x1="37" y1="38.25" x2="39.5" y2="38.25">
		<stop  offset="0" style="stop-color:#0073E6;stop-opacity:0.6"/>
		<stop  offset="1" style="stop-color:#0073E6;stop-opacity:0.6"/>
	</linearGradient>
	<circle style="fill:url(#SVGID_15_);" cx="38.25" cy="38.25" r="1.25"/>
	<linearGradient id="SVGID_16_" gradientUnits="userSpaceOnUse" x1="24.5" y1="28.25" x2="27" y2="28.25">
		<stop  offset="0" style="stop-color:#0073E6;stop-opacity:0.6"/>
		<stop  offset="1" style="stop-color:#0073E6;stop-opacity:0.6"/>
	</linearGradient>
	<circle style="fill:url(#SVGID_16_);" cx="25.75" cy="28.25" r="1.25"/>
	<linearGradient id="SVGID_17_" gradientUnits="userSpaceOnUse" x1="32" y1="44.5" x2="34.5" y2="44.5">
		<stop  offset="0" style="stop-color:#0073E6;stop-opacity:0.6"/>
		<stop  offset="1" style="stop-color:#0073E6;stop-opacity:0.6"/>
	</linearGradient>
	<circle style="fill:url(#SVGID_17_);" cx="33.25" cy="44.5" r="1.25"/>
	<linearGradient id="SVGID_18_" gradientUnits="userSpaceOnUse" x1="39.5" y1="58.875" x2="42" y2="58.875">
		<stop  offset="0" style="stop-color:#0073E6;stop-opacity:0.6"/>
		<stop  offset="1" style="stop-color:#0073E6;stop-opacity:0.6"/>
	</linearGradient>
	<path style="fill:url(#SVGID_18_);" d="M40.75,58.25c-0.6903687,0-1.25,0.5596313-1.25,1.25H42
		C42,58.8096313,41.4403687,58.25,40.75,58.25z"/>
</g>
<g>
	<radialGradient id="SVGID_19_" cx="32" cy="35.75" r="8.75" gradientUnits="userSpaceOnUse">
		<stop  offset="0" style="stop-color:#036EB5"/>
		<stop  offset="0.460177" style="stop-color:#095BA8"/>
		<stop  offset="1" style="stop-color:#182985"/>
	</radialGradient>
	<circle style="fill:url(#SVGID_19_);" cx="32" cy="35.75" r="8.75"/>
	<path style="fill:#F8EB00;" d="M32,44.75c-4.9624023,0-9-4.0371094-9-9c0-4.9624023,4.0375977-9,9-9c4.9628906,0,9,4.0375977,9,9
		C41,40.7128906,36.9628906,44.75,32,44.75z M32,27.25c-4.6870117,0-8.5,3.8129883-8.5,8.5c0,4.6865234,3.8129883,8.5,8.5,8.5
		c4.6865234,0,8.5-3.8134766,8.5-8.5C40.5,31.0629883,36.6865234,27.25,32,27.25z"/>
</g>
<g>
	<linearGradient id="SVGID_20_" gradientUnits="userSpaceOnUse" x1="37.78125" y1="62" x2="37.78125" y2="8.25">
		<stop  offset="0" style="stop-color:#FFFFFF;stop-opacity:0"/>
		<stop  offset="0.2" style="stop-color:#FFFFFF;stop-opacity:0.2"/>
		<stop  offset="0.8" style="stop-color:#FFFFFF;stop-opacity:0.2"/>
		<stop  offset="1" style="stop-color:#FFFFFF;stop-opacity:0"/>
	</linearGradient>
	<path style="fill:url(#SVGID_20_);" d="M40.75,31.6591187c0-4.8864136-1.09375-8.5511475-3.28125-14.6591187
		c-2.1875-6.1079102-2.1875-8.75-2.1875-8.75H34.8125c0,0,0,2.6420898,1.875,8.75
		c1.875,6.1079712,2.8125,9.7727051,2.8125,14.6591187c0,4.8863525-0.9375,7.3295288-0.9375,12.2158813
		S39.5,53.6477051,39.5,56.0909424c0,2.4431763,0,4.687439,0,4.687439S39.5,62,38.5625,62c0.5004272,0,0.8914185,0,1.09375,0
		C40.75,62,40.75,60.7783813,40.75,60.7783813s0-2.2442627,0-4.687439c0-2.4432373-1.09375-7.3295898-1.09375-12.2159424
		S40.75,36.5454712,40.75,31.6591187z"/>
	<linearGradient id="SVGID_21_" gradientUnits="userSpaceOnUse" x1="26.21875" y1="62" x2="26.21875" y2="8.25">
		<stop  offset="0" style="stop-color:#FFFFFF;stop-opacity:0"/>
		<stop  offset="0.2" style="stop-color:#FFFFFF;stop-opacity:0.8"/>
		<stop  offset="0.8" style="stop-color:#FFFFFF;stop-opacity:0.8"/>
		<stop  offset="1" style="stop-color:#FFFFFF;stop-opacity:0"/>
	</linearGradient>
	<path style="fill:url(#SVGID_21_);" d="M24.5,60.7783813c0,0,0-2.2442627,0-4.687439
		c0-2.4432373,0.9375-7.3295898,0.9375-12.2159424S24.5,36.5454712,24.5,31.6591187C24.5,26.7727051,25.4375,23.1079712,27.3125,17
		c1.875-6.1079102,1.875-8.75,1.875-8.75h-0.46875c0,0,0,2.6420898-2.1875,8.75
		C24.34375,23.1079712,23.25,26.7727051,23.25,31.6591187c0,4.8863525,1.09375,7.3295288,1.09375,12.2158813
		S23.25,53.6477051,23.25,56.0909424c0,2.4431763,0,4.687439,0,4.687439S23.25,62,24.34375,62c0.2023315,0,0.5933228,0,1.09375,0
		C24.5,62,24.5,60.7783813,24.5,60.7783813z"/>
</g>
<g>
	<linearGradient id="SVGID_22_" gradientUnits="userSpaceOnUse" x1="27.0625" y1="7.625" x2="36.9375" y2="7.625">
		<stop  offset="0" style="stop-color:#D9DADA"/>
		<stop  offset="0.2" style="stop-color:#F5F5F5"/>
		<stop  offset="0.4" style="stop-color:#F5F5F5"/>
		<stop  offset="0.6" style="stop-color:#ECECED"/>
		<stop  offset="1" style="stop-color:#9C9C9D"/>
	</linearGradient>
	<path style="fill:url(#SVGID_22_);" d="M28.0336914,8.5C27.6430664,8.5,27.0625,8.2670898,27.0625,7.625
		s0.5805664-0.875,0.9711914-0.875h7.9331055c0.390625,0,0.9707031,0.2329102,0.9707031,0.875S36.3574219,8.5,35.9667969,8.5
		H28.0336914z"/>
	<path style="fill:#595757;" d="M35.9663506,7c0,0,0.7211494,0,0.7211494,0.625S35.9663506,8.25,35.9663506,8.25h-7.9327011
		c0,0-0.7211494,0-0.7211494-0.625S28.0336494,7,28.0336494,7H35.9663506 M35.9663506,6.5h-7.9327011
		C27.5427799,6.5,26.8125,6.7995987,26.8125,7.625s0.7302799,1.125,1.2211494,1.125h7.9327011
		c0.4908676,0,1.2211494-0.2995987,1.2211494-1.125S36.4572182,6.5,35.9663506,6.5L35.9663506,6.5z"/>
</g>
<g>
	<linearGradient id="SVGID_23_" gradientUnits="userSpaceOnUse" x1="27.0625" y1="4.5" x2="36.9375" y2="4.5">
		<stop  offset="0" style="stop-color:#ECECED"/>
		<stop  offset="0.2" style="stop-color:#F5F5F5"/>
		<stop  offset="0.4" style="stop-color:#F5F5F5"/>
		<stop  offset="0.6" style="stop-color:#ECECED"/>
		<stop  offset="1" style="stop-color:#9C9C9D"/>
	</linearGradient>
	<rect x="27.0625" y="1.75" style="fill:url(#SVGID_23_);" width="9.875" height="5.5"/>
	<path style="fill:#595757;" d="M36.6875,2v5h-9.375V2H36.6875 M37.1875,1.5h-0.5h-9.375h-0.5V2v5v0.5h0.5h9.375h0.5V7V2V1.5
		L37.1875,1.5z"/>
</g>
<g>
	<linearGradient id="SVGID_24_" gradientUnits="userSpaceOnUse" x1="22" y1="35.125" x2="28.71875" y2="35.125">
		<stop  offset="0" style="stop-color:#231815;stop-opacity:0.3"/>
		<stop  offset="1" style="stop-color:#231815;stop-opacity:0"/>
	</linearGradient>
	<path style="fill:url(#SVGID_24_);" d="M23.25,60.7783813c0,0,0-2.2442627,0-4.687439
		c0-2.4432373,1.09375-7.3295898,1.09375-12.2159424S23.25,36.5454712,23.25,31.6591187
		c0-4.8864136,1.09375-8.5511475,3.28125-14.6591187c2.1875-6.1079102,2.1875-8.75,2.1875-8.75H28.25c0,0,0,2.6420898-2.5,8.75
		C23.25,23.1079712,22,26.7727051,22,31.6591187c0,4.8863525,1.25,7.3295288,1.25,12.2158813S22,53.6477051,22,56.0909424
		c0,2.4431763,0,4.687439,0,4.687439S22,62,23.25,62c0.2084961,0,0.6013184,0,1.09375,0C23.25,62,23.25,60.7783813,23.25,60.7783813
		z"/>
	<linearGradient id="SVGID_25_" gradientUnits="userSpaceOnUse" x1="35.28125" y1="35.125" x2="42" y2="35.125">
		<stop  offset="0" style="stop-color:#231815;stop-opacity:0"/>
		<stop  offset="1" style="stop-color:#231815;stop-opacity:0.3"/>
	</linearGradient>
	<path style="fill:url(#SVGID_25_);" d="M42,31.6591187C42,26.7727051,40.75,23.1079712,38.25,17c-2.5-6.1079102-2.5-8.75-2.5-8.75
		h-0.46875c0,0,0,2.6420898,2.1875,8.75c2.1875,6.1079712,3.28125,9.7727051,3.28125,14.6591187
		c0,4.8863525-1.09375,7.3295288-1.09375,12.2158813S40.75,53.6477051,40.75,56.0909424c0,2.4431763,0,4.687439,0,4.687439
		S40.75,62,39.65625,62c0.4924316,0,0.8852539,0,1.09375,0C42,62,42,60.7783813,42,60.7783813s0-2.2442627,0-4.687439
		c0-2.4432373-1.25-7.3295898-1.25-12.2159424S42,36.5454712,42,31.6591187z"/>
</g>
<g>
	<radialGradient id="SVGID_26_" cx="34.4982071" cy="31.7504807" r="2.5004809" gradientUnits="userSpaceOnUse">
		<stop  offset="0.6637168" style="stop-color:#FFFFFF;stop-opacity:0"/>
		<stop  offset="0.9734513" style="stop-color:#FFFFFF;stop-opacity:0.9"/>
	</radialGradient>
	<circle style="fill:url(#SVGID_26_);" cx="34.4982071" cy="31.7504807" r="2.5"/>
	<circle style="fill:#FFFFFF;" cx="33.5450821" cy="30.4848557" r="0.5472506"/>
</g>
<g>
	<radialGradient id="SVGID_27_" cx="29.4148731" cy="35.4171486" r="1.3338141" gradientUnits="userSpaceOnUse">
		<stop  offset="0.6637168" style="stop-color:#FFFFFF;stop-opacity:0"/>
		<stop  offset="0.9734513" style="stop-color:#FFFFFF;stop-opacity:0.9"/>
	</radialGradient>
	<circle style="fill:url(#SVGID_27_);" cx="29.4148731" cy="35.4171448" r="1.3335577"/>
	<circle style="fill:#FFFFFF;" cx="28.9064541" cy="34.7420349" r="0.2919161"/>
</g>
<g>
	<radialGradient id="SVGID_28_" cx="32.2482071" cy="38.9171486" r="0.8338141" gradientUnits="userSpaceOnUse">
		<stop  offset="0.6637168" style="stop-color:#FFFFFF;stop-opacity:0"/>
		<stop  offset="0.9734513" style="stop-color:#FFFFFF;stop-opacity:0.9"/>
	</radialGradient>
	<circle style="fill:url(#SVGID_28_);" cx="32.2482071" cy="38.9171448" r="0.8336538"/>
	<circle style="fill:#FFFFFF;" cx="31.9303761" cy="38.4951096" r="0.182487"/>
</g>
<g>
	<radialGradient id="SVGID_29_" cx="35.1440392" cy="37.3129807" r="1.1463141" gradientUnits="userSpaceOnUse">
		<stop  offset="0.6637168" style="stop-color:#FFFFFF;stop-opacity:0"/>
		<stop  offset="0.9734513" style="stop-color:#FFFFFF;stop-opacity:0.9"/>
	</radialGradient>
	<circle style="fill:url(#SVGID_29_);" cx="35.1440392" cy="37.3129807" r="1.1460937"/>
	<circle style="fill:#FFFFFF;" cx="34.7070923" cy="36.7327728" r="0.2508802"/>
</g>
<g>
	<radialGradient id="SVGID_30_" cx="29.9357052" cy="40.7296486" r="0.6046475" gradientUnits="userSpaceOnUse">
		<stop  offset="0.6637168" style="stop-color:#FFFFFF;stop-opacity:0"/>
		<stop  offset="0.9734513" style="stop-color:#FFFFFF;stop-opacity:0.9"/>
	</radialGradient>
	<circle style="fill:url(#SVGID_30_);" cx="29.9357052" cy="40.7296448" r="0.6045312"/>
	<circle style="fill:#FFFFFF;" cx="29.7052288" cy="40.4236031" r="0.132332"/>
</g>
<g>
	<radialGradient id="SVGID_31_" cx="33.6440392" cy="41.7608986" r="0.4379808" gradientUnits="userSpaceOnUse">
		<stop  offset="0.6637168" style="stop-color:#FFFFFF;stop-opacity:0"/>
		<stop  offset="0.9734513" style="stop-color:#FFFFFF;stop-opacity:0.9"/>
	</radialGradient>
	<circle style="fill:url(#SVGID_31_);" cx="33.6440392" cy="41.7608948" r="0.4378966"/>
	<circle style="fill:#FFFFFF;" cx="33.4770927" cy="41.5392151" r="0.0958557"/>
</g>
<g>
	<radialGradient id="SVGID_32_" cx="31.458334" cy="43.375" r="0.3546475" gradientUnits="userSpaceOnUse">
		<stop  offset="0.6637168" style="stop-color:#FFFFFF;stop-opacity:0"/>
		<stop  offset="0.9734513" style="stop-color:#FFFFFF;stop-opacity:0.9"/>
	</radialGradient>
	<circle style="fill:url(#SVGID_32_);" cx="31.458334" cy="43.375" r="0.3545793"/>
	<circle style="fill:#FFFFFF;" cx="31.3231506" cy="43.1954956" r="0.0776175"/>
</g>
<g>
</g>
<g>
</g>
<g>
</g>
<g>
</g>
<g>
</g>
<g>
</g>
</svg>
