<?xml version="1.0" encoding="utf-8"?>
<!-- Generator: Adobe Illustrator 15.0.2, SVG Export Plug-In . SVG Version: 6.00 Build 0)  -->
<!DOCTYPE svg PUBLIC "-//W3C//DTD SVG 1.1//EN" "http://www.w3.org/Graphics/SVG/1.1/DTD/svg11.dtd">
<svg version="1.1" id="レイヤー_1" xmlns="http://www.w3.org/2000/svg" xmlns:xlink="http://www.w3.org/1999/xlink" x="0px"
	 y="0px" width="64px" height="64px" viewBox="0 0 64 64" enable-background="new 0 0 64 64" xml:space="preserve">
<g>
	
		<linearGradient id="SVGID_1_" gradientUnits="userSpaceOnUse" x1="23.0547" y1="41.5742" x2="27.3069" y2="41.5742" gradientTransform="matrix(0.7071 0.7071 -0.8031 0.8031 39.9302 -10.8957)">
		<stop  offset="0" style="stop-color:#757575"/>
		<stop  offset="0.0761" style="stop-color:#515151"/>
		<stop  offset="0.1803" style="stop-color:#252525"/>
		<stop  offset="0.2615" style="stop-color:#0A0A0A"/>
		<stop  offset="0.3091" style="stop-color:#000000"/>
		<stop  offset="1" style="stop-color:#DFEDFF"/>
	</linearGradient>
	<polygon fill="url(#SVGID_1_)" stroke="#000000" stroke-width="1.0702" stroke-miterlimit="10" points="7.479,60.143 4.13,56.791 
		40.84,20.081 44.191,23.431 	"/>
	
		<linearGradient id="SVGID_2_" gradientUnits="userSpaceOnUse" x1="39.4375" y1="21.2739" x2="42.6788" y2="24.6776" gradientTransform="matrix(1.0679 -0.0679 -0.0679 1.0679 3.3599 -3.3599)">
		<stop  offset="0" style="stop-color:#757575"/>
		<stop  offset="0.103" style="stop-color:#AEAEAE"/>
		<stop  offset="0.1955" style="stop-color:#DADADA"/>
		<stop  offset="0.2671" style="stop-color:#F5F5F5"/>
		<stop  offset="0.3091" style="stop-color:#FFFFFF"/>
		<stop  offset="1" style="stop-color:#DFEDFF"/>
	</linearGradient>
	<polygon fill="url(#SVGID_2_)" stroke="#000000" stroke-width="1.0702" stroke-miterlimit="10" points="44.191,23.431 
		40.84,20.081 47.333,13.589 50.683,16.939 	"/>
	<polygon fill="#FFC200" points="42.85,5.108 44.443,8.337 48.005,8.854 45.428,11.367 46.036,14.915 42.85,13.24 39.664,14.915 
		40.272,11.367 37.694,8.854 41.257,8.337 	"/>
	<polygon fill="#FFFF10" points="25.673,3.857 28.154,6.466 31.708,5.901 29.994,9.067 31.629,12.273 28.089,11.621 25.545,14.167 
		25.071,10.599 21.863,8.965 25.111,7.413 	"/>
	<polygon fill="#08B9FF" points="58.464,17.811 58.013,20.377 59.87,22.203 57.291,22.567 56.127,24.898 54.984,22.558 
		52.407,22.172 54.281,20.361 53.852,17.792 56.152,19.013 	"/>
	<polygon fill="#BCF431" points="44.607,25.698 45.771,28.057 48.373,28.435 46.489,30.27 46.934,32.862 44.607,31.638 
		42.278,32.862 42.723,30.27 40.84,28.435 43.442,28.057 	"/>
	<polygon fill="#FF0049" points="33.616,17.88 34.712,20.102 37.165,20.458 35.39,22.188 35.809,24.63 33.616,23.477 31.423,24.63 
		31.842,22.188 30.066,20.458 32.52,20.102 	"/>
	<polygon fill="#BA43FF" points="47.579,35.592 47.167,37.418 48.438,38.793 46.574,38.965 45.659,40.598 44.92,38.879 
		43.085,38.514 44.491,37.279 44.27,35.42 45.88,36.375 	"/>
	<polygon fill="#FF45CF" points="53.123,42.381 52.237,42.211 51.596,42.846 51.483,41.951 50.683,41.535 51.498,41.152 
		51.645,40.264 52.262,40.922 53.152,40.785 52.719,41.574 	"/>
</g>
</svg>
