<?xml version="1.0" encoding="utf-8"?>
<!-- Generator: Adobe Illustrator 18.0.0, SVG Export Plug-In . SVG Version: 6.00 Build 0)  -->
<!DOCTYPE svg PUBLIC "-//W3C//DTD SVG 1.1//EN" "http://www.w3.org/Graphics/SVG/1.1/DTD/svg11.dtd">
<svg version="1.1" id="レイヤー_1" xmlns="http://www.w3.org/2000/svg" xmlns:xlink="http://www.w3.org/1999/xlink" x="0px"
	 y="0px" width="64px" height="64px" viewBox="0 0 64 64" style="enable-background:new 0 0 64 64;" xml:space="preserve">
<g>
	<path style="fill:#3E3A39;" d="M57.2313995,46.2099991c-0.0908012-0.3564987-0.4169006-0.7324982-0.8348999-0.9003983
		c0.0419998-0.1485023,0.0488014-0.3086014,0.0156021-0.4737015c-0.1084023-0.5527-0.7041016-1.1473999-1.7539024-1.1473999
		c-0.4218979,0-0.8730011,0.0986023-1.3418007,0.2919998l-0.1083984,0.0615005
		c-0.3886986,0.2919998-0.8895988,0.4393997-1.4902,0.4393997c-3.4902992,0-9.407299-4.9248009-10.6729012-6.6297989
		c-0.1288986-0.1719017-0.3153992-0.5751991-0.5135994-1.0019989c-0.6484985-1.3935013-1.5284004-3.2881012-3.0088005-3.6162033
		l-0.0069008-0.0028992c-0.6425972-0.3213005-2.0194969-0.7280998-2.5555992-0.8808975
		c-0.1114006-0.2412033-0.1933975-0.479002-0.2471008-0.716301c3.502903-0.6216011,6.0527-2.5615005,7.7744026-5.9136009
		c1.1903992,0.0531998,3.1366997-1.1933002,3.3437996-4.8729992c0.0770988-1.3740005-0.0956993-2.2339001-0.5429993-2.7066002
		c-0.1445007-0.1533012-0.3174019-0.2622013-0.5098-0.3222008c0.6884995-5.0190992-0.1044998-8.8955393-2.3584023-11.5278597
		C40.2440987,3.75,36.7383003,2.46191,31.9995003,2.46191c-4.7383003,0-8.2436008,1.28809-10.4194012,3.8276398
		c-2.2543983,2.6328106-3.0473995,6.5092506-2.3593998,11.5283499c-0.1924,0.0599995-0.3652,0.1688995-0.5102997,0.3222008
		c-0.4466991,0.4727001-0.6191006,1.3330002-0.5415001,2.7066002c0.2066002,3.6796989,2.1343002,4.9277,3.3432999,4.8729992
		c1.7212009,3.3521004,4.2709999,5.2919998,7.7744007,5.9136009c-0.0541992,0.2377987-0.1357002,0.4755974-0.2465992,0.716301
		c-0.5356007,0.1527977-1.9082012,0.5585976-2.5625,0.8837967c-0.0044003,0.0010033-0.009201,0.002903-0.0136013,0.0039024
		l-0.0585995,0.0136986c-1.4365005,0.3730011-2.2989006,2.2275009-2.9361,3.5986023
		c-0.1982002,0.4267998-0.3857002,0.8300972-0.514101,1.0028992c-1.2660999,1.7040977-7.1835995,6.6288986-10.673399,6.6288986
		c-0.5995998,0-1.1009998-0.1473999-1.4892006-0.4393997l-0.1093998-0.0615005
		c-0.4678001-0.1933975-0.9189396-0.2919998-1.3413-0.2919998c-1.0498095,0-1.6455097,0.5946999-1.7543998,1.1473999
		c-0.0322199,0.1651001-0.0253901,0.3251991,0.01612,0.4737015c-0.41748,0.1679001-0.7446299,0.5429001-0.8354497,0.8993988
		C6.63135,46.7440987,6.30762,48.5068016,7.5664101,49.6348c0.0590801,0.8260994,0.90625,1.5410004,2.3007803,1.9110985
		c0.8530092,0.2275009,2.0991096-0.0673981,3.6025095-0.8056984c-0.4419003,0.5956993-1.0522003,1.6464996-1.0052996,2.8614006
		c0.0389996,1.030201,0.5335999,1.9589005,1.4696999,2.7588005c1.8080997,1.5458984,5.8886995,3.5009003,10.0927992,4.8544006
		c-0.0942993,0.2099991-0.1176987,0.4189987-0.0693989,0.6259995c0.2670994,1.1357994,1.4941998,1.1357994,2.1528988,1.1357994
		c0.4799004,0,1.0712013-0.0341988,1.7895012-0.0762024c1.0771999-0.0634995,2.4179993-0.1415977,4.0991001-0.1444969
		c1.6825981,0.0028992,3.0234985,0.0809975,4.1006012,0.1444969c0.7178001,0.0420036,1.309597,0.0762024,1.7890968,0.0762024
		c0.6592026,0,1.8857002,0,2.1523018-1.1348c0.0488014-0.2070007,0.0264015-0.4169998-0.0683022-0.6269989
		c4.2031021-1.3535004,8.2832031-3.3076019,10.0937004-4.8544006c0.9356003-0.7999001,1.4297028-1.7285995,1.4687996-2.7588005
		c0.0468025-1.2099991-0.5576973-2.2559013-1.0136986-2.8652992c1.1777,0.5790977,2.1903992,0.8837967,2.9921989,0.8837967
		c0.2246017,0,0.4326019-0.0243988,0.6191025-0.0741997C55.5283012,51.1748009,56.375,50.4599991,56.4336014,49.6348
		C57.6924019,48.5068016,57.3681984,46.7440987,57.2313995,46.2099991z M45.5586014,49.3671989
		c-1.5576019,0-2.8945007,0.1377029-2.8661995,0.1416016l-4.1455002-0.2724991
		c-0.0039024-1.2959023-0.0235023-5.0664024-0.1240005-8.5566025c0.6229973,0.7422028,1.3377991,1.5107002,2.1375999,2.297802
		c2.9384995,2.8906975,5.6884995,5.1591988,8.0117989,6.6455002C47.7969017,49.4530983,46.7881012,49.3671989,45.5586014,49.3671989
		z M53.9678001,47.0751991c0.0918007-0.1210976,0.2890015-0.3096008,0.7089996-0.5508003
		C54.5868988,46.8623009,54.2528992,47.0107002,53.9678001,47.0751991z M9.3237305,46.5243988
		c0.41992,0.2411995,0.6171894,0.4297028,0.7089691,0.5508003C9.7490196,47.0107002,9.4145498,46.8633003,9.3237305,46.5243988z
		 M25.5762005,40.6806984c-0.1000996,3.4912033-0.1197014,7.2607002-0.1236,8.5566025l-4.0610008,0.2733994
		c-0.0562-0.0057983-1.3936005-0.1435013-2.9506989-0.1435013c-1.2368011,0-2.25,0.0869026-3.0063009,0.2518997
		c2.3212996-1.4862976,5.0693007-3.7538986,8.0043993-6.6415977C24.2397003,42.1903992,24.9545994,41.4219017,25.5762005,40.6806984
		z"/>
	<g>
		<path style="fill:#595757;" d="M38.0479012,49.7055016l-6.0482006,0.3023987l-6.0481014-0.3023987l-4.6117992,0.3023987
			c0,0,4.384901,2.5704994,4.6117992,7.8625984c0,0,3.4777012,2.0413017,6.0481014,2.0413017
			c2.5705013,0,6.0482006-2.0413017,6.0482006-2.0413017c0.226799-5.292099,4.6116982-7.8625984,4.6116982-7.8625984
			L38.0479012,49.7055016z"/>
		<g>
			<path style="fill:#BA713A;" d="M42.6595993,50.0079002c0,0,6.9554024-0.7229004,7.4090004,1.1128006
				c0.4536018,1.835701-12.0206985,6.7497978-12.0206985,6.7497978S33.6629982,52.8807983,42.6595993,50.0079002z"/>
			<path style="fill:#3E3A39;" d="M49.740799,50.5766983c0,0,0.1935005,0.1228027,0.4882011,0.4339027
				c0.2888985,0.3113976,0.7159996,0.8001976,1.0029984,1.6014977c0.1122017,0.402401,0.2354012,0.8860016,0.1501999,1.4223022
				c-0.0788994,0.5219994-0.2661972,1.1105003-0.6528969,1.582798c-0.3479996,0.4988022-0.8621025,0.9224014-1.3339996,1.2728004
				c-0.5314026,0.3795013-1.0925026,0.732502-1.6782036,1.0753021c-2.3633995,1.3583984-5.2894974,2.5592003-8.5243988,3.536499
				c-1.6210976,0.4775009-3.3241997,0.8975983-5.1090012,1.1181984c-0.8843994,0.1142006-1.8310966,0.1411018-2.7018986,0.1413994
				c-0.8803005,0.0118027-1.7572002,0.0421028-2.6438999,0.0907021c-0.8873997,0.0437012-1.7658005,0.1197014-2.6964989,0.1226006
				c-0.4680004-0.0319023-0.9646015,0.0285988-1.5686016-0.3516006c-0.1506996-0.1026993-0.2703991-0.2398987-0.3640995-0.4011002
				c-0.0825005-0.1734009-0.1367989-0.2666016-0.1674995-0.5149002c-0.0081997-0.0186996-0.0063-0.1857986,0.0277004-0.3241005
				c0.0331001-0.1301994,0.0706997-0.1848984,0.1118984-0.2779999c0.0858002-0.143898,0.1802006-0.2607002,0.275301-0.3607979
				c0.7672005-0.7249031,1.5631008-1.0658035,2.3495998-1.4703026c0.7877007-0.3797989,1.5720997-0.7182999,2.3381004-1.0508003
				c0.7593994-0.3335991,1.5282001-0.6523972,2.1863003-1.0107002c0.6093998-0.3723984,1.5054989-0.926899,2.4836979-0.8107986
				c0.4925003,0.0489998,0.9288025,0.2790985,1.260601,0.5069008l0.4163017,0.2965012
				c0.1247978,0.0720978,0.0618973,0.0136986,0.0830002,0.0275993c0.0389977,0.0028,0.0870972,0.0046997,0.1487999-0.0049019
				c0.5130005-0.0770988,1.1459999-0.4362984,1.6797981-0.7626991c1.0965004-0.6851997,2.0690994-1.4239998,2.962101-2.030201
				c0.8782997-0.6297989,1.6771011-1.1446991,2.3466988-1.553299c1.3444023-0.8135986,2.1906013-1.1599998,2.1906013-1.1599998
				s-0.6229019,0.6619987-1.770401,1.7212982c-0.5790977,0.5240021-1.2848015,1.157402-2.1473007,1.8246002
				c-0.8540993,0.6804008-1.8430977,1.4159012-3.0329971,2.1154022c-0.6143036,0.3320999-1.207901,0.7217979-2.1297035,0.8552971
				c-0.117897,0.0132027-0.2500992,0.0117035-0.3919983-0.0076981c-0.1561012-0.0181999-0.3992996-0.1222992-0.4280014-0.1520996
				l-0.0298004-0.0171013l-0.0808983-0.0528984l-0.0553017-0.0409012l-0.1096992-0.0806999l-0.2115974-0.1500015
				c-0.2784004-0.1892967-0.5372009-0.3141975-0.8118019-0.3413963c-0.2723999-0.0376015-0.579998,0.031498-0.8942986,0.1557999
				c-0.1629028,0.0629997-0.3024025,0.1369972-0.4628029,0.2221985l-0.527298,0.3120995
				c-0.7550011,0.4094009-1.5079994,0.7164001-2.2761002,1.0550995c-0.7658005,0.3323021-1.5405006,0.667099-2.3008995,1.033699
				c-0.7388,0.3659019-1.5549011,0.7694016-2.0625,1.2617035c-0.0559006,0.059597-0.0972996,0.1146965-0.1258011,0.1591988
				c0.0010014,0.0085983-0.0217991,0.0493011-0.0123997,0.026001c0.0130005-0.0304031-0.0161991-0.0901031-0.0025005,0.0014992
				c-0.0112991-0.0317001,0.0278015,0.0858994,0.0403004,0.1049995c0.0195999,0.0312996,0.0405998,0.0614014,0.0775013,0.0826988
				c0.1426983,0.1179008,0.5935993,0.1631012,0.9948997,0.1645012c0.8442001-0.0019989,1.7425995-0.0765991,2.6337986-0.1212997
				c0.891901-0.0489998,1.7955017-0.0802994,2.6892014-0.0919991c0.9033985,0.0034981,1.7255001-0.0414009,2.5801983-0.1564026
				c1.6947021-0.2293968,3.3509026-0.6567001,4.9253998-1.1415977c3.1487999-0.9846992,6.0002022-2.2089005,8.3167-3.4305
				c0.5758018-0.3181,1.1049995-0.6357002,1.5752029-0.9500008c0.5067978-0.3688011,0.9090996-0.6702995,1.213398-1.043602
				c0.6336021-0.7196999,0.7700005-1.5709991,0.6539001-2.2796974c-0.1162987-0.7101021-0.3736992-1.2714005-0.5672989-1.6333008
				C49.8685989,50.7655983,49.740799,50.5766983,49.740799,50.5766983z"/>
			<path style="fill:#BA713A;" d="M49.7408981,50.5766983c0,0,2.9181023,2.9089012,0,5.403801
				c-2.9181976,2.4948006-12.3683968,6.2749023-17.6605988,6.2749023c-5.292099,0-7.3333988,0.7560997-7.6357994-0.5292015
				c-0.3024006-1.2851982,5.7171001-3.2304001,7.2528-4.2084999c1.8144989-1.1557007,2.6088982-0.487999,3.4071007,0.1007996
				c1.2298012,0.9071999,6.0683975-3.3768997,9.6973-5.8969002C46.6512985,50.4370995,48.7383995,49.8204994,49.7408981,50.5766983z
				"/>
		</g>
		<g>
			<path style="fill:#BA713A;" d="M21.3397999,50.0079002c0,0-6.9553995-0.7229004-7.4089994,1.1128006
				c-0.4536009,1.835701,12.0207987,6.7497978,12.0207987,6.7497978S30.3365002,52.8807983,21.3397999,50.0079002z"/>
			<path style="fill:#3E3A39;" d="M14.2586002,50.5766983c0,0-0.1276999,0.1889-0.3299999,0.5497017
				c-0.1935005,0.3619003-0.4510002,0.9231987-0.5672007,1.6333008c-0.1161995,0.7086983,0.0202007,1.5599976,0.6538,2.2796974
				c0.3043003,0.3733025,0.7066002,0.6748009,1.2133999,1.043602c0.4702005,0.3143005,0.9994011,0.6319008,1.5753002,0.9500008
				c2.3164005,1.2215996,5.1679001,2.4458008,8.3167,3.4305c1.574501,0.4848976,3.2306004,0.9122009,4.9253006,1.1415977
				c0.8547993,0.1150017,1.676899,0.1599007,2.5801983,0.1564026c0.8938026,0.0116997,1.7973022,0.0429993,2.6892014,0.0919991
				c0.8913002,0.0447006,1.7896996,0.1193008,2.6338005,0.1212997c0.4013977-0.0014,0.8521996-0.0466003,0.9948997-0.1645012
				c0.0368996-0.0212975,0.0579987-0.0513992,0.0774994-0.0826988c0.0125008-0.0191002,0.0516014-0.1366997,0.0402985-0.1049995
				c0.0137024-0.0916023-0.0154991-0.0319023-0.0024986-0.0014992c0.0095024,0.0233002-0.013298-0.0174026-0.0122986-0.026001
				c-0.0284996-0.0445023-0.0699005-0.0996017-0.1259003-0.1591988c-0.5075989-0.4923019-1.3236008-0.8958015-2.0624008-1.2617035
				c-0.760498-0.3666-1.535099-0.7013969-2.3008995-1.033699c-0.7681999-0.3386993-1.5210991-0.6456985-2.2761002-1.0550995
				l-0.5272999-0.3120995c-0.1604996-0.0852013-0.3000011-0.1591988-0.4629002-0.2221985
				c-0.3143005-0.1243019-0.6217995-0.1934013-0.8943005-0.1557999c-0.2744999,0.0271988-0.5333996,0.1520996-0.8118,0.3413963
				l-0.2115993,0.1500015l-0.1096001,0.0806999l-0.0554008,0.0409012l-0.0807991,0.0528984l-0.0298004,0.0171013
				c-0.0287991,0.0298004-0.2719002,0.1338997-0.4281006,0.1520996c-0.1418991,0.0194016-0.2740993,0.0209007-0.3918991,0.0076981
				c-0.9218998-0.1334991-1.5153999-0.5231972-2.1296997-0.8552971c-1.1900005-0.699501-2.1790009-1.4350014-3.0331001-2.1154022
				c-0.8624001-0.6671982-1.5681-1.3005981-2.1471996-1.8246002c-1.1476002-1.0592995-1.770401-1.7212982-1.770401-1.7212982
				s0.8460999,0.3464012,2.1905994,1.1599998c0.6696014,0.4085999,1.4683018,0.9235001,2.3467007,1.553299
				c0.8929005,0.6062012,1.8656006,1.3450012,2.962101,2.030201c0.533699,0.3264008,1.1666985,0.6856003,1.6796989,0.7626991
				c0.0617008,0.0096016,0.1098003,0.0077019,0.148901,0.0049019c0.0209999-0.0139008-0.0419006,0.0444984,0.0830002-0.0275993
				l0.4162998-0.2965012c0.3316994-0.2278023,0.7679996-0.457901,1.2605991-0.5069008
				c0.9782009-0.1161003,1.8743,0.4384003,2.4835987,0.8107986c0.6582031,0.3583031,1.4269028,0.6771011,2.1864014,1.0107002
				c0.7658997,0.3325005,1.5503998,0.6710014,2.3381004,1.0508003c0.7863998,0.4044991,1.5824013,0.7453995,2.3495979,1.4703026
				c0.0950012,0.1000977,0.1895027,0.2168999,0.2753029,0.3607979c0.0411987,0.0931015,0.0786972,0.1478004,0.1119003,0.2779999
				c0.0340004,0.1383018,0.0357971,0.3054008,0.0275993,0.3241005c-0.0307007,0.2482986-0.0848999,0.3414993-0.1674995,0.5149002
				c-0.0937004,0.1612015-0.2134018,0.2984009-0.3640022,0.4011002c-0.6040001,0.3801994-1.1005974,0.3196983-1.5686989,0.3516006
				c-0.9305992-0.0028992-1.8091011-0.0788994-2.6964989-0.1226006c-0.8866005-0.0485992-1.7636032-0.0788994-2.6439018-0.0907021
				c-0.8708-0.0002975-1.8174992-0.0271988-2.7017994-0.1413994c-1.7849007-0.2206001-3.4878998-0.6406975-5.1089993-1.1181984
				c-3.2349014-0.9772987-6.1611004-2.1781006-8.5244999-3.536499c-0.585701-0.3428001-1.146801-0.6958008-1.6781006-1.0753021
				c-0.4719-0.350399-0.9861002-0.7739983-1.3341007-1.2728004c-0.3865995-0.4722977-0.5738993-1.0607986-0.6528997-1.582798
				c-0.0851002-0.5363007,0.0380001-1.0199013,0.1501999-1.4223022c0.2870998-0.8013,0.7140999-1.2901001,1.0031004-1.6014977
				C14.0650997,50.699501,14.2586002,50.5766983,14.2586002,50.5766983z"/>
			<path style="fill:#BA713A;" d="M14.2586002,50.5766983c0,0-2.9181004,2.9089012,0,5.403801
				c2.9181004,2.4948006,12.3684006,6.2749023,17.6604996,6.2749023c5.2922001,0,7.3333988,0.7560997,7.6358013-0.5292015
				c0.3023987-1.2851982-5.7171021-3.2304001-7.2528-4.2084999c-1.8144016-1.1557007-2.6088009-0.487999-3.4071007,0.1007996
				c-1.2298012,0.9071999-6.0683002-3.3768997-9.6972008-5.8969002
				C17.3481007,50.4370995,15.2609997,49.8204994,14.2586002,50.5766983z"/>
		</g>
	</g>
	<g>
		<path style="fill:#BA713A;" d="M56.7475014,46.3333015c-0.1275024-0.5-1.219902-1.2125015-1.5808029,0.2916985
			c-0.25,1.0415993-1.6465988,0.9992981-1.6465988,0.9992981c-0.3017998-0.4061966-0.2766991-1.1230965,2.0038986-2.0574989
			c1.0143013-0.4155998,0.0636024-1.9850998-2.016098-1.1243973C50.1815987,46.9389,42.0708008,40.0709,40.6436996,38.1509018
			c-0.6963005-0.9368019-1.9049988-5.4603004-4.3406982-4.2837029c0,0-1.9791031,2.2737999,4.6083984,8.7537003
			c6.5854988,6.4793015,11.2958984,8.9191017,13.0931015,8.4417992c1.280098-0.3400002,2.0303001-0.9951973,1.9209976-1.6584969
			C57.2293015,48.4401016,56.8460007,46.7196999,56.7475014,46.3333015z"/>
		<path style="fill:#BA713A;" d="M7.2525001,46.3333015c0.1275001-0.5,1.2198501-1.2125015,1.5808101,0.2916985
			c0.25,1.0415993,1.6465902,0.9992981,1.6465902,0.9992981c0.3017998-0.4061966,0.2767-1.1230965-2.0039501-2.0574989
			c-1.0142803-0.4155998-0.0635405-1.9850998,2.0161495-1.1243973C13.8184004,46.9389,21.9291992,40.0709,23.3563004,38.1509018
			c0.6963005-0.9368019,1.9049988-5.4603004,4.3407001-4.2837029c0,0,1.9790993,2.2737999-4.6084003,8.7537003
			c-6.5855007,6.4793015-11.2959003,8.9191017-13.0931206,8.4417992c-1.2800894-0.3400002-2.0302696-0.9951973-1.9209595-1.6584969
			C6.77069,48.4401016,7.1539898,46.7196999,7.2525001,46.3333015z"/>
		<path style="fill:#231815;" d="M37.2919006,33.6777992c-0.7560997-0.3779984-2.6830025-0.9071999-2.6830025-0.9071999
			c-1.0195999-1.9655991-0.1153984-3.1752987-0.1153984-3.1752987h-2.4937992h-2.4938011
			c0,0,0.9042015,1.2096996-0.1154003,3.1752987c0,0-1.926899,0.5292015-2.6828995,0.9071999
			c-0.7560005,0.3781013-0.7560005,16.0277023-0.7560005,16.0277023s2.1924,0.3023987,6.0481014,0.3023987
			s6.0482006-0.3023987,6.0482006-0.3023987S38.0479012,34.0559006,37.2919006,33.6777992z"/>
	</g>
	<g>
		<path style="fill:#BA713A;" d="M42.6997986,19.2665005c0,0,2.8928032-3.0993004,2.6317024,1.552599
			c-0.2610016,4.6518002-3.5353012,5.2777004-3.7991028,3.4577007"/>
		<path style="fill:#BA713A;" d="M21.2996998,19.2665005c0,0-2.8927994-3.0993004-2.6317997,1.552599
			c0.2609997,4.6518002,3.5352993,5.2777004,3.7992001,3.4577007"/>
		<path style="fill:#BA713A;" d="M31.9997005,2.9616599c-12.0963001,0-13.6624012,8.4730396-11.9236012,16.8741398
			c1.7389011,8.4008999,5.7242012,11.5235004,11.9236012,11.5235004s10.1848011-3.1226006,11.9236012-11.5235004
			C45.6622009,11.4347,44.0960999,2.9616599,31.9997005,2.9616599z"/>
		<g>
			<g>
				<ellipse style="fill:#231815;" cx="38.0479012" cy="19.4645996" rx="1.2096" ry="3.6289999"/>
				<circle style="fill:#F7F8F8;" cx="38.6278992" cy="17.6749992" r="0.58"/>
			</g>
			<g>
				<ellipse style="fill:#231815;" cx="25.9515495" cy="19.4645996" rx="1.20965" ry="3.6289999"/>
				<circle style="fill:#F7F8F8;" cx="26.531601" cy="17.6749992" r="0.58"/>
			</g>
		</g>
		<path style="fill:#231815;" d="M32.5113983,28.6107006c2.0351028-0.1004009,3.7128029-0.7785015,3.9654999-1.3708
			c0.1258011-0.2945004,0.1264-0.6195011-0.1463966-0.8028011c-0.2728004-0.1823997-0.6497002-0.1217003-0.8434029,0.1389008
			c-0.3768005,0.5109005-3.4435005,1.948-5.7504978,0.4890003c-0.2764015-0.1751003-0.5517006-0.2133999-0.7383003,0.0534992
			c-0.1843014,0.2649994-0.1086998,0.4090996,0.1700001,0.5851002
			C30.2008991,28.3568993,31.3892002,28.6107006,32.5113983,28.6107006z"/>
		<ellipse style="fill:#7C3F16;" cx="40.6469002" cy="24.2219009" rx="2.0404999" ry="1.5088"/>
		<ellipse style="fill:#7C3F16;" cx="23.3530998" cy="24.2219009" rx="2.0404999" ry="1.5088"/>
	</g>
	<g>
		<g>
			<path style="fill:#231815;" d="M19.3281002,10.0771999C22.1053009,2.1139901,30.4876995-1.19993,36.8665009,2.31598
				c2.325901,0.0448601,5.2950974,1.33672,7.4617996,5.85007c3.4724007,7.2342501-1.1836014,14.5397491-1.1836014,14.5397491
				s-1.4920006-6.8748989-2.3214989-8.708499c-0.1565018,1.8383999-1.1953011,3.0320005-1.1953011,3.0320005
				s-0.8922997-3.1126003-3.1161995-5.404501c-0.8119011,3.467-3.4985008,4.9973011-3.4985008,4.9973011
				s-3.3729992-1.7338009-4.1069984-4.1441011c0.0832005,2.4637003,0.8027,4.1099005,0.8027,4.1099005
				s-4.967001-0.3379002-7.149601-2.5475998c-0.8851986,3.6327-1.5140991,9.3424988-1.5140991,9.3424988
				S16.4761009,18.2549992,19.3281002,10.0771999z"/>
			<path style="fill:#604C3F;" d="M21.2324219,23.9682617l-0.3735352-0.4189453
				c-0.046875-0.0527344-4.6342773-5.3330078-1.7666016-13.5546875c1.9453125-5.578125,6.9047852-9.3256836,12.3408203-9.3256836
				c1.9458008,0,3.7954102,0.4702148,5.4995117,1.3984375c1.8271484,0.0527344,5.1845703,0.9165039,7.6210938,5.9902344
				c3.4921875,7.2758789-1.1513672,14.7080078-1.1982422,14.7822266l-0.3261719,0.512207l-0.1289063-0.5932617
				c-0.0136719-0.0605469-1.1582031-5.3183594-1.984375-7.8071289c-0.3417969,1.3583984-1.0625,2.199707-1.0996094,2.2416992
				l-0.3017578,0.3466797l-0.1269531-0.4418945c-0.0087891-0.0288086-0.8183594-2.7915039-2.75-4.9692383
				c-0.9355469,3.2172852-3.3916016,4.6484375-3.5,4.7104492L33.0195313,16.90625l-0.1201172-0.0620117
				c-0.1171875-0.0600586-2.4150391-1.2573242-3.6357422-3.0732422c0.2172852,1.6552734,0.6689453,2.7036133,0.6743164,2.7167969
				l0.1650391,0.3774414l-0.4111328-0.027832c-0.1972656-0.0136719-4.6484375-0.3383789-6.987793-2.3227539
				c-0.8198242,3.5820313-1.4042969,8.8408203-1.4101563,8.8955078L21.2324219,23.9682617z M31.4331055,1.1689453
				c-5.2236328,0-9.9936523,3.612793-11.8691406,8.9907227c-2.2807617,6.5400391,0.3027344,11.1367188,1.3051758,12.5776367
				c0.1899414-1.5810547,0.7392578-5.8510742,1.4472656-8.7558594l0.105957-0.4350586l0.3144531,0.3183594
				c1.7397461,1.7612305,5.3920898,2.3022461,6.5957031,2.4360352c-0.2207031-0.6342773-0.6152344-2.0024414-0.6762695-3.8144531
				l-0.0639648-1.8969727l0.5532227,1.815918c0.6166992,2.0249023,3.2543945,3.5908203,3.859375,3.9272461
				c0.5107422-0.3359375,2.5820313-1.8544922,3.2636719-4.7646484l0.1044922-0.4453125l0.3183594,0.328125
				c1.7460938,1.7998047,2.6777344,4.0610352,3.0214844,5.0336914c0.3037109-0.4750977,0.7636719-1.3647461,0.8613281-2.5083008
				l0.0810547-0.9570313l0.3955078,0.875c0.6904297,1.5258789,1.8046875,6.3652344,2.1972656,8.1220703
				c0.9707031-1.8232422,3.6845703-7.847168,0.8544922-13.7416992c-2.3476563-4.890625-5.5449219-5.6757813-7.2412109-5.7084961
				l-0.1162109-0.03125C35.1005859,1.628418,33.3134766,1.1689453,31.4331055,1.1689453z"/>
		</g>
		
			<ellipse transform="matrix(-0.9830612 0.1832777 -0.1832777 -0.9830612 60.2099876 8.5541458)" style="fill:#FFFFFF;" cx="29.7096996" cy="7.0594254" rx="1.6967409" ry="3.376435"/>
		
			<ellipse transform="matrix(-0.9830691 0.1832356 -0.1832356 -0.9830691 55.8912888 9.7477245)" style="fill:#FFFFFF;" cx="27.4953003" cy="7.4560394" rx="0.9186537" ry="1.8280344"/>
		
			<ellipse transform="matrix(-0.9830663 0.1832506 -0.1832506 -0.9830663 68.3946152 7.2972054)" style="fill:#FFFFFF;" cx="33.8601494" cy="6.8086967" rx="0.9186054" ry="1.8280709"/>
	</g>
</g>
<g>
</g>
<g>
</g>
<g>
</g>
<g>
</g>
<g>
</g>
<g>
</g>
</svg>
