<?xml version="1.0" encoding="UTF-8"?>
<!-- Generator: Adobe Illustrator 15.0.2, SVG Export Plug-In . SVG Version: 6.00 Build 0)  -->
<!DOCTYPE svg PUBLIC "-//W3C//DTD SVG 1.1//EN" "http://www.w3.org/Graphics/SVG/1.1/DTD/svg11.dtd">
<svg version="1.1" id="レイヤー_1" xmlns="http://www.w3.org/2000/svg" xmlns:xlink="http://www.w3.org/1999/xlink" x="0px" y="0px" width="64px" height="64px" viewBox="0 0 64 64" enable-background="new 0 0 64 64" xml:space="preserve">
<g>
	<path fill="#FFB997" d="M24.202,61.771l-2.327-4.271c0,0-7.922-6.479-9.857-14.056c-1.149-4.5,6.935-8.771,6.935-8.771   s1.354-7.744,4.865-8.698c3.51-0.954,4.556,0.514,4.556,0.514s0-14.468,0-20.468s8.08-4.255,8.08,0.87s0,19.63,0,19.63   s2.305-0.689,4.465-0.032s2.167,3.888,4.285,3.888c3.237,0,5.267,2.77,6.517,5.729s-0.423,18.289-7.892,25.664H24.202z"/>
	<path fill="#E79774" d="M18.952,44.271l1.389,6.875c0,0-7.026-3.371-2.708-11.186L18.952,44.271z"/>
	<path fill="#E79774" d="M28.373,26.49c0,0,0.079,5.329-0.796,5.681S26.645,25.7,26.645,25.7L28.373,26.49z"/>
	<path fill="#E79774" d="M36.452,26.522c0,0,3.643,4.625-2.304,15.375C34.148,41.896,34.952,29.58,36.452,26.522z"/>
	<path fill="#E79774" d="M46.87,30.378c0,0-1.576,5.44-3.872,5.729s1.139-6.087,1.139-6.087L46.87,30.378z"/>
	<path fill="#E79774" d="M49.502,49.521c0,0-7.589,6.15-13.007,8.638c-5.418,2.487,0,3.612,0,3.612h7.332   C43.827,61.771,49.427,57.146,49.502,49.521z"/>
	<path fill="none" stroke="#420707" stroke-width="1.7657" stroke-linejoin="bevel" stroke-miterlimit="11" d="M18.952,34.674   c0,0-1.875,7.117-0.5,10.232"/>
	<path fill="none" stroke="#420707" stroke-width="1.7657" stroke-linejoin="bevel" stroke-miterlimit="11" d="M24.202,61.771   l-2.327-4.271c0,0-7.922-6.479-9.857-14.056c-1.149-4.5,6.935-8.771,6.935-8.771s0.275-7.198,3.785-8.152   c3.511-0.954,5.636-0.032,5.636-0.032s0-14.468,0-20.468s8.08-4.255,8.08,0.87s0,19.63,0,19.63s2.305-0.689,4.465-0.032   s2.167,3.888,4.285,3.888c3.237,0,5.267,2.77,6.517,5.729s-0.423,18.289-7.892,25.664H24.202z"/>
</g>
</svg>