<?xml version="1.0" encoding="utf-8"?>
<!-- Generator: Adobe Illustrator 18.0.0, SVG Export Plug-In . SVG Version: 6.00 Build 0)  -->
<!DOCTYPE svg PUBLIC "-//W3C//DTD SVG 1.1//EN" "http://www.w3.org/Graphics/SVG/1.1/DTD/svg11.dtd">
<svg version="1.1" id="レイヤー_1" xmlns="http://www.w3.org/2000/svg" xmlns:xlink="http://www.w3.org/1999/xlink" x="0px"
	 y="0px" width="64px" height="64px" viewBox="0 0 64 64" style="enable-background:new 0 0 64 64;" xml:space="preserve">
<path style="fill:#494235;" d="M34.6181984,23.5238991c0,0,1.5424004,3.8150005,2.9365005,3.9873009
	c1.3964996,0.1718998,2.5058022,1.4004002,2.5058022,1.4004002S39.0293007,23.8603992,34.6181984,23.5238991z"/>
<g>
	<path style="fill:#E8CBA7;" d="M39.6455002,30.7514992c0,0,0.6903992,2.8501015,2.0723,3.3675995
		c1.3838005,0.5195999,1.7294998,1.3829002,1.7294998,1.3829002s0.2578011,1.1210022,1.294899,1.0351028
		c0,0,0.172802-0.8613014,0.517601-0.6894035c0.3456993,0.1718025,1.3818016,0,1.3818016,0l0.777298,2.2441025
		c0,0,0.7784004-0.0858994,0.8642998-0.6035004s0.4316025-1.0371017,0.4316025-1.0371017s0.0009995-1.2089996-1.7275009-2.0292969
		l-2.3310013-1.080101l-2.9384995-3.3682003C41.7178001,29.9736004,41.2860985,28.2465992,39.6455002,30.7514992z"/>
	<path style="fill:#494235;" d="M47.2421875,38.3720703l-0.7753906-2.2382813
		c-0.1796875,0.0224609-0.4443359,0.0498047-0.6953125,0.0498047c-0.2822266,0-0.4873047-0.0341797-0.6269531-0.1035156
		c0,0.0371094-0.1044922,0.2919922-0.1484375,0.5078125l-0.0380859,0.1914063l-0.1943359,0.015625
		c-1.0185547,0.0830078-1.4658203-0.7851563-1.5693359-1.2353516c0,0.0009766,0,0.0009766,0,0.0009766
		c-0.0039063,0-0.3300781-0.734375-1.5673828-1.1992188c-1.4931641-0.5585938-2.2041016-3.4272461-2.2333984-3.5488281
		l-0.0263672-0.1088867l0.0615234-0.0942383c0.6503906-0.9926758,1.2070313-1.4750977,1.7021484-1.4750977
		c0.4726563,0,0.7285156,0.4213867,0.8203125,0.7124023l2.8642578,3.2832031l2.28125,1.0566406
		c1.8574219,0.8818359,1.8769531,2.2089844,1.8769531,2.2646484v0.078125l-0.0429688,0.0654297
		c-0.0029297,0.0048828-0.3164063,0.4814453-0.3916016,0.9355469c-0.09375,0.5615234-0.7304688,0.7792969-1.0917969,0.8193359
		L47.2421875,38.3720703z M46.8144531,35.5566406l0.7744141,2.234375c0.1845703-0.0546875,0.4082031-0.1630859,0.4384766-0.3447266
		c0.0742188-0.4482422,0.3173828-0.8867188,0.4228516-1.0605469c-0.03125-0.2421875-0.2373047-1.0957031-1.5742188-1.7294922
		l-2.4150391-1.1445313l-2.9941406-3.4750977c-0.0009766-0.0029297-0.1074219-0.3842773-0.3359375-0.3842773
		c-0.1328125,0-0.5126953,0.1142578-1.2060547,1.1464844c0.2197266,0.8266602,0.9033203,2.7099609,1.8837891,3.078125
		c1.4736328,0.5527344,1.8632813,1.4892578,1.8789063,1.5283203c0.0195313,0.0683594,0.203125,0.8085938,0.8515625,0.8730469
		c0.0888672-0.3056641,0.2744141-0.7128906,0.6308594-0.7128906c0.0703125,0,0.1386719,0.0175781,0.2050781,0.0507813
		c0.0234375,0.0107422,0.1210938,0.0488281,0.3964844,0.0488281c0.3828125,0,0.8232422-0.0722656,0.828125-0.0732422
		L46.8144531,35.5566406z"/>
</g>
<g>
	<path style="fill:#E8CBA7;" d="M36.6571999,47.5937996l-2.0390015,4.4902l-1.0136986,5.4034004
		c0,0,1.9916992,1.592701,3.1963005,2.198101c0,0,0.7733994-0.0858994,1.1180992-0.6054001
		c0.344799-0.517601-1.1180992-2.1581993-1.1180992-2.1581993l0.2383003-1.9004021l3.2977982-6.9101982
		C40.3368988,48.1113014,38.9833984,45.3398018,36.6571999,47.5937996z"/>
	<path style="fill:#494235;" d="M36.7529297,59.9511719l-0.0683594-0.0341797
		c-1.2148438-0.6103516-3.1601563-2.1611328-3.2421875-2.2275391l-0.1210938-0.0966797l1.0419922-5.5566406l2.1132813-4.6289063
		c0.6552734-0.6337891,1.3095703-0.9560547,1.9453125-0.9560547c1.3769531,0,2.1171875,1.4833984,2.1474609,1.546875
		L40.625,48.1103516l-0.0546875,0.1123047l-3.2792969,6.8730469l-0.21875,1.7421875
		c0.5078125,0.5830078,1.4521484,1.7998047,1.0625,2.3857422c-0.4072266,0.6132813-1.2685547,0.7158203-1.3056641,0.7197266
		L36.7529297,59.9511719z M33.8876953,57.3808594c0.4375,0.3427734,1.9560547,1.5126953,2.9560547,2.0351563
		c0.1777344-0.0332031,0.6416016-0.1503906,0.859375-0.4794922c0.1064453-0.1591797-0.359375-1.0166016-1.0957031-1.8417969
		l-0.078125-0.0878906l0.2763672-2.0966797l3.2402344-6.7900391c-0.1787109-0.3027344-0.7558594-1.1503906-1.6240234-1.1503906
		c-0.4863281,0-1.0068359,0.2607422-1.5488281,0.7763672l-2.0185547,4.4453125L33.8876953,57.3808594z"/>
</g>
<polygon style="fill:#C1A07C;" points="36.1514015,48 35.7139015,50.5625 37.9706993,52.1581993 38.9639015,49.125 "/>
<g>
	<path style="fill:#E8CBA7;" d="M24.0557003,42.669899c-1.0263996,1.0156021,0.7469997,5.5293007,1.3022003,6.6504021
		c0.5546989,1.1231003,2.5541992,6.0468979,2.5541992,6.0468979l0.8500996,1.8125l-1.3803997,2.1601028
		c0,0,0.7744999,1.2089996,1.3803997,1.2089996c0.6055012,0,2.2339001-3.1093025,2.2339001-3.1093025l-1.4555988-5.8300972
		c0,0-0.2334003-3.152401-1.6284008-4.1895027C27.9120998,47.419899,27.5531998,39.2168007,24.0557003,42.669899z"/>
	<path style="fill:#494235;" d="M28.762207,60.8076172c-0.7114258,0-1.456543-1.1064453-1.5986328-1.328125l-0.0893555-0.1396484
		l1.3925781-2.1796875l-0.7890625-1.6826172c-0.0258789-0.0615234-2.0078125-4.9404297-2.5522461-6.0419922
		c-0.0268555-0.0556641-2.5888672-5.6269531-1.2519531-6.9501953c0.6293945-0.6210938,1.1972656-0.9228516,1.7363281-0.9228516
		c2.1318359,0,2.5019531,4.75,2.5551758,5.7275391c1.3857422,1.1582031,1.6240234,4.1699219,1.6337891,4.2998047
		l1.4726563,5.8828125l-0.0458984,0.0869141C30.590332,58.7724609,29.425293,60.8076172,28.762207,60.8076172z
		 M27.6918945,59.3359375c0.2973633,0.4228516,0.777832,0.9453125,1.0629883,0.9541016
		c0.3120117-0.0859375,1.2539063-1.5390625,1.9658203-2.8837891l-1.4316406-5.734375
		c-0.0092773-0.0732422-0.2485352-3.0898438-1.5317383-4.0439453l-0.0986328-0.0732422l-0.0053711-0.1230469
		c-0.0654297-1.4882813-0.5605469-5.3505859-2.043457-5.3505859c-0.390625,0-0.8520508,0.2597656-1.3720703,0.7734375
		c-0.7939453,0.7851563,0.5878906,4.8076172,1.3525391,6.3505859c0.5522461,1.1191406,2.4799805,5.8632813,2.5620117,6.0644531
		l0.9052734,1.9296875L27.6918945,59.3359375z"/>
</g>
<path style="fill:#C1A07C;" d="M24.6875,45.9375c0,0,0.7929993-0.7655983,1.5839996,0.7733994L27,47.25
	c0,0,1.8153992,3.1875,1.7514992,5.4375c0,0,0.4477005-2.3125-0.8393993-4.5625l-0.5429993-1.4141006l0.1689987-2.0545998L26,42
	l-2.125,1.0625L24.6875,45.9375z"/>
<g>
	<path style="fill:#93928D;" d="M28.3770008,38.4375c0,0-4.8770008,1.1146011-5.3770008,6.2187996l1.1667004,3.2206001
		c0,0,0.1501999-5.7245979,1.164299-4.6893997c1.0142002,1.0371017,3.2598,5.6152,6.455101,6.2206993
		C34.9818993,50.0116997,41.2011986,50.875,41.2011986,50.875s-0.5186005-9.5858994-2.5048981-12.0918007L28.3770008,38.4375z"/>
	<path style="fill:#494235;" d="M41.4765625,51.1748047l-0.3105469-0.0429688
		c-0.0625-0.0087891-6.2626953-0.8710938-9.4277344-1.46875c-2.5107422-0.4755859-4.3984375-3.2138672-5.6479492-5.0244141
		c-0.3803711-0.5527344-0.7094727-1.0292969-0.9443359-1.2695313c-0.0405273-0.0419922-0.0615234-0.0488281-0.0620117-0.0488281
		c-0.2807617,0.1689453-0.5976563,2.2597656-0.6586914,4.5634766l-0.0356445,1.3691406l-1.6533203-4.5634766l0.0058594-0.0585938
		c0.512207-5.2294922,5.5263672-6.4345703,5.5771484-6.4462891l0.0327148-0.0068359l0.0336914,0.0009766l10.4394531,0.3496094
		l0.0742188,0.09375c2.0146484,2.5410156,2.5390625,11.84375,2.5605469,12.2392578L41.4765625,51.1748047z M25.0961914,42.8027344
		c0.1464844,0,0.2880859,0.0683594,0.4199219,0.203125c0.2661133,0.2724609,0.590332,0.7431641,1.0009766,1.3378906
		c1.2011719,1.7421875,3.0161133,4.3740234,5.3173828,4.8095703c2.7426758,0.5185547,7.784668,1.2373047,9.0883789,1.4208984
		c-0.109375-1.6445313-0.6992188-9.2519531-2.3583984-11.5361328l-10.1611328-0.3408203
		c-0.4438477,0.1103516-4.6508789,1.2773438-5.1396484,5.9267578l0.7006836,1.9335938
		C24.0844727,44.6308594,24.3857422,42.8027344,25.0961914,42.8027344z"/>
</g>
<g>
	<path style="fill:#93928D;" d="M32.3041992,24.0142002l-2.1591988,1.2959003c0,0-3.9726009,1.4676991-4.6639996,3.108799
		c-0.691,1.641201-2.3321018,4.7509995-0.777401,4.9229012c1.5552006,0.1718979,3.4766006-2.331501,3.4766006-2.331501v-0.3456993
		h0.6693993l0.4316998,2.1464005l-3.1954002,6.8354988c0,0,3.0235004,1.7304993,7.1254997,0.8652
		c4.1030998-0.8652,4.9673004-1.8143997,4.9673004-1.8143997l-1.642601-5.3554993l0.5419998-1.8999004L37.5723,30.6646004
		l2.5918007,1.7196999c0,0-0.6914024-2.7564011,1.5536995-2.4106998l-3.7989006-4.2026005l-2.591301-1.3246994
		L32.3041992,24.0142002z"/>
	<path style="fill:#494235;" d="M30.8950195,41.0126953c-2.909668,0-4.8564453-1.0947266-4.9379883-1.1416016L25.75,39.7529297
		l3.2602539-6.9746094l-0.3730469-1.8544922h-0.1977539v0.1743164l-0.0537109,0.0698242
		c-0.0795898,0.1040039-2.0283203,2.6298828-3.7104492,2.4316406c-0.4189453-0.046875-0.628418-0.2675781-0.7299805-0.4453125
		c-0.4443359-0.7744141,0.1513672-2.2519531,0.9760742-4.1035156c0.1171875-0.2636719,0.2275391-0.5112305,0.3208008-0.7324219
		c0.7265625-1.7246094,4.6464844-3.1899414,4.8129883-3.2514648L32.25,23.7446289l3.1953125,0.4707031l2.6660156,1.3818359
		l4.2871094,4.7436523l-0.7197266-0.1113281c-0.5332031-0.0810547-0.8828125,0.015625-1.0976563,0.2910156
		c-0.3818359,0.4882813-0.2490234,1.465332-0.1660156,1.8007813l0.1611328,0.6474609l-2.9267578-1.9423828l-0.3320313,0.5229492
		l-0.5107422,1.7895508l1.6630859,5.4238281l-0.0996094,0.109375c-0.0371094,0.0410156-0.9677734,1.0205078-5.1054688,1.8935547
		C32.4848633,40.9296875,31.6875,41.0126953,30.8950195,41.0126953z M26.4267578,39.5292969
		c0.5688477,0.2724609,2.2358398,0.9658203,4.4682617,0.9658203c0.7568359,0,1.5180664-0.0800781,2.262207-0.2373047
		c3.1953125-0.6738281,4.3886719-1.3994141,4.7236328-1.6484375l-1.6152344-5.2646484l0.59375-2.0419922l0.6357422-1
		l2.3242188,1.5415039c-0.0410156-0.4897461-0.0126953-1.1733398,0.3525391-1.6416016
		c0.2265625-0.2900391,0.5439453-0.4594727,0.9462891-0.5053711l-3.359375-3.7172852l-2.5107422-1.2832031l-2.8891602-0.4130859
		l-2.0805664,1.2485352c-0.0820313,0.0351563-3.9189453,1.46875-4.5585938,2.9873047
		c-0.0942383,0.2241211-0.2060547,0.4750977-0.3251953,0.7421875c-0.5371094,1.2055664-1.3481445,3.0273438-1,3.6347656
		c0.0395508,0.0688477,0.1176758,0.1630859,0.3374023,0.1875c0.0424805,0.0048828,0.0849609,0.0068359,0.1274414,0.0068359
		c1.2416992,0,2.7597656-1.7973633,3.0615234-2.1708984v-0.5146484h1.1411133l0.4902344,2.4384766L26.4267578,39.5292969z"/>
</g>
<g>
	<polygon style="fill:#93928D;" points="27.6553001,54.7373009 28.3906002,57.2722015 31.007,57.1636009 30.5781002,54.5155983 	"/>
	<path style="fill:#494235;" d="M28.1982422,57.5400391l-0.8808594-3.0371094l3.4785156-0.2636719l0.5131836,3.171875
		L28.1982422,57.5400391z M27.9931641,54.9716797l0.5898438,2.0332031l2.121582-0.0878906l-0.3442383-2.125L27.9931641,54.9716797z"
		/>
</g>
<polygon style="fill:#7C7C7C;" points="36.6478996,30.625 34.9375,32 36,32.918499 "/>
<g>
	<polygon style="fill:#93928D;" points="34.2234001,54.1884003 37.0391006,55.0214996 36.8008003,56.9219017 33.8437996,56.5625 	
		"/>
	<path style="fill:#494235;" d="M37.0253906,57.2099609l-3.4804688-0.4228516l0.4697266-2.9306641l3.3085938,0.9785156
		L37.0253906,57.2099609z M34.1425781,56.3378906l2.4335938,0.2958984l0.1787109-1.4257813l-2.3222656-0.6875L34.1425781,56.3378906
		z"/>
</g>
<path style="fill:#7C7C7C;" d="M27.0419998,38.9706993c0,0,5.2705002,1.7754021,10.0205002-0.8788986l-0.4146004-1.5986023
	c0,0-7.5755997,2.805603-8.4554996,1.125L27.0419998,38.9706993z"/>
<path style="fill:#7C7C7C;" d="M30.9960995,46.375c-1.7943993-2.6591988-4.7650986-5.1708984-3.3407993-5.6211014
	c1.4242992-0.4501991,1.2108994,0.2012024,3.6215992,1.0674019C33.6875,42.6875,36.6478996,42.75,36.6478996,42.75
	s-1.2123985,1.1719017-2.7884979,3.9608994C32.2831993,49.5,32.4296989,48.5,30.9960995,46.375z"/>
<path style="fill:#494235;" d="M28.3770008,34.7440987c0,0,5.0599995,1.2812996,8.4237995-0.5389977l-0.1436005-1.286602
	c0,0-4.3847008,1.7514-7.6240005,0.4233017L28.3770008,34.7440987z"/>
<path style="fill:#494235;" d="M31.8047009,24.3974991l-1.8994007,1.9682007h-2.5361996
	C27.3691006,26.3656998,31.2866001,22.8778992,31.8047009,24.3974991z"/>
<g>
	<path style="fill:#93928D;" d="M35.3275986,20.9043007c0,0-1.6493988-3.7426815,0.0820999-5.0385809
		c1.7329025-1.2954102,2.2910004-4.6171103,2.2910004-4.6171103s0.6831017,7.7469902-1.4096985,9.8763905
		C34.8722992,22.5685005,35.1548004,21.6235409,35.3275986,20.9043007z"/>
	<path style="fill:#494235;" d="M35.3085938,22.1381836c-0.1171875,0-0.2197266-0.0488281-0.2900391-0.1381836
		c-0.1630859-0.2070313-0.09375-0.534668,0.03125-1.0517578l0.0048828-0.0214844
		c-0.2431641-0.5854492-1.546875-3.9614258,0.2001953-5.2685547c1.6279297-1.2172852,2.1855469-4.4204102,2.1904297-4.4526367
		l0.3369141-1.9921875l0.1767578,2.012207c0.0283203,0.3212891,0.6689453,7.8916016-1.4833984,10.0810547
		C35.796875,21.9970703,35.5185547,22.1381836,35.3085938,22.1381836z M37.5302734,12.9321289
		c-0.359375,1.0712891-0.9775391,2.402832-1.9648438,3.1411133c-1.5498047,1.1591797-0.0166016,4.690918-0.0009766,4.7265625
		l0.0351563,0.0800781l-0.0458984,0.1904297c-0.0322266,0.1318359-0.078125,0.3203125-0.1005859,0.4633789
		c0.1210938-0.0859375,0.3242188-0.2553711,0.6533203-0.590332C37.5117188,19.5126953,37.6005859,15.2993164,37.5302734,12.9321289z
		"/>
</g>
<g>
	<path style="fill:#93928D;" d="M31.7758999,18.8754902v-2.0732403c0,0-2.1450005-3.0727596-2.8325005-5.94629
		c0,0-1.1406994,10.437501,2.1410999,11.30124L31.7758999,18.8754902z"/>
	<path style="fill:#494235;" d="M31.2817383,22.4770508l-0.2631836-0.0693359
		c-3.4580078-0.9101563-2.3803711-11.1445313-2.3330078-11.5800781L28.8481445,9.34375l0.347168,1.4521484
		c0.668457,2.793457,2.7719727,5.8276367,2.7929688,5.8579102l0.046875,0.0668945v2.1547852L31.2817383,22.4770508z
		 M29.0878906,12.2207031c-0.2075195,3.2255859-0.1289063,8.6450195,1.8046875,9.5898438l0.6298828-2.9882813l-0.0053711-1.9389648
		C31.2436523,16.4819336,29.8955078,14.449707,29.0878906,12.2207031z"/>
</g>
<g>
	<path style="fill:#E8CBA7;" d="M31.4403992,24.6191006l-0.3456993-3.54146c0,0,0.4326-2.3320313,1.9009018-2.3320313
		c1.4682999,0,2.3319969,2.9365215,2.3319969,2.9365215l-0.3456993,2.9369698
		C34.9818993,24.6191006,33.341301,27.2099991,31.4403992,24.6191006z"/>
	<path style="fill:#494235;" d="M33.203125,26.0297852c-0.6962891,0-1.3598633-0.4228516-1.9716797-1.2573242l-0.0419922-0.0576172
		l-0.355957-3.6484375l0.0063477-0.0361328c0.0195313-0.1040039,0.4912109-2.5439453,2.1557617-2.5439453
		c1.6430664,0,2.5424805,2.9951172,2.5805664,3.1225586l0.0146484,0.0507813l-0.390625,3.0981445
		C35.1669922,24.8095703,34.3808594,26.0297852,33.203125,26.0297852z M31.6914063,24.5224609
		c0.4956055,0.65625,1.0039063,0.9892578,1.5117188,0.9892578c0.7861328,0,1.3876953-0.7856445,1.5283203-0.9853516
		l0.3320313-2.8212891c-0.2451172-0.7978516-1.0458984-2.7001953-2.0678711-2.7001953
		c-1.1479492,0-1.5810547,1.8144531-1.6391602,2.0864258L31.6914063,24.5224609z"/>
</g>
<path style="fill:#C1A07C;" d="M31.7432003,23.5238991L32.0625,23.9169998L32.3339996,25.4902
	C32.3339996,25.4902,31.2987995,24.2353992,31.7432003,23.5238991z"/>
<g>
	<path style="fill:#93928D;" d="M32.8866997,17.3637695c2.5820999-0.0864296,2.4408989,2.1591797,2.4408989,2.1591797
		l0.0014,1.8520508c0,0-1.5789986-1.8532696-4.1810989,0.25C31.1478996,21.625,30.3617992,17.4482899,32.8866997,17.3637695z"/>
	<path style="fill:#494235;" d="M30.9736328,22.0991211l-0.0805664-0.4262695
		c-0.0195313-0.105957-0.4775391-2.6132813,0.5283203-3.8681641c0.355957-0.4438477,0.8457031-0.6796875,1.456543-0.699707
		l0.1523438-0.0029297c0.8408203,0,1.4951172,0.2421875,1.9433594,0.7197266
		c0.6669922,0.7114258,0.6142578,1.6767578,0.6123047,1.7172852l0.0029297,2.5307617l-0.4560547-0.5258789
		c-0.0234375-0.0273438-0.5878906-0.6640625-1.5878906-0.6640625c-0.7050781,0-1.4570313,0.3183594-2.2338867,0.9467773
		L30.9736328,22.0991211z M33.0302734,17.6206055l-0.1347656,0.0019531c-0.4594727,0.015625-0.809082,0.1811523-1.0698242,0.5063477
		c-0.6362305,0.793457-0.5639648,2.2919922-0.4824219,3.0244141c0.7490234-0.5258789,1.4882813-0.7915039,2.2016602-0.7915039
		c0.6728516,0,1.1884766,0.2363281,1.5244141,0.4589844l-0.0009766-1.2973633
		c0.0009766-0.0239258,0.0380859-0.8061523-0.4765625-1.3505859C34.2460938,17.8061523,33.7197266,17.6206055,33.0302734,17.6206055
		z"/>
</g>
<g>
	<rect x="32.8866997" y="16.2407207" style="fill:#93928D;" width="0.9727" height="2.07324"/>
	<path style="fill:#494235;" d="M34.1181641,18.5732422h-1.4907227v-2.5917969h1.4907227V18.5732422z M33.1455078,18.0546875
		h0.4550781V16.5h-0.4550781V18.0546875z"/>
</g>
<g>
	<path style="fill:#E2DFD5;" d="M32.8866997,24.0972004c0,0-1.0819988,0.3002987-1.1005993,0.9403992
		c-0.0018997,0.0688-0.7905006,0.1982002-1.2840996,2.0258999c-0.5118008,1.8950005,2.0869007,5.3208008,2.0869007,5.3208008
		L33.2025986,31.125L34.125,32.3843002L34.6181984,31L34.9375,32c0,0,2.0561981-1.5625,1.7196999-5.2222004
		C36.4115982,24.1049995,34.3334999,23.5757008,32.8866997,24.0972004z"/>
	<path style="fill:#494235;" d="M34.2050781,32.9316406l-0.9580078-1.3071289l-0.6098633,1.2524414l-0.2548828-0.3359375
		c-0.109375-0.144043-2.6694336-3.550293-2.1303711-5.5449219c0.4082031-1.5117188,1.0297852-1.9501953,1.2910156-2.1054688
		c0.1396484-0.7075195,1.1523438-1.0092773,1.2744141-1.0429688c1.5-0.5449219,3.8271484-0.034668,4.0976563,2.90625
		c0.3466797,3.7597656-1.7324219,5.3852539-1.8203125,5.4526367l-0.2929688,0.2216797l-0.1972656-0.6186523L34.2050781,32.9316406z
		 M33.9189453,24.1762695c-0.3193359,0-0.6455078,0.0571289-0.9443359,0.1645508
		c-0.2514648,0.0712891-0.9189453,0.3398438-0.9296875,0.7041016c-0.0043945,0.1572266-0.1240234,0.2260742-0.1958008,0.2670898
		c-0.1772461,0.1015625-0.7167969,0.4116211-1.097168,1.8188477c-0.3818359,1.4140625,1.1704102,3.8486328,1.7944336,4.7490234
		l0.6108398-1.2543945l0.8876953,1.2114258l0.5869141-1.6464844l0.4277344,1.340332
		c0.5273438-0.5625,1.5859375-2.050293,1.3398438-4.7290039C36.1748047,24.3657227,34.4443359,24.1762695,33.9189453,24.1762695z"/>
</g>
<path style="fill:#C1A07C;" d="M31.8047009,22.2583008L31.7432003,21.625l1.1434994,0.3164101
	C32.8866997,21.9414101,33.2368011,22.7642002,31.8047009,22.2583008z"/>
<polygon style="fill:#C1A07C;" points="32.5889015,21.625 32.982399,21.8779297 33.2108994,22.0238991 32.9243011,23.25 "/>
<polygon style="fill:#C1A07C;" points="33.5648994,22.0238991 33.8594017,21.625 35,22.1571999 "/>
<path style="fill:#C1A07C;" d="M41.2011986,32c0,0-0.7636986,1.1621017,1.3613014,2.0498009l1.25,0.6376991
	C43.8125,34.6875,42.0273018,32.1875,41.2011986,32z"/>
<path style="fill:#99411A;" d="M25.3579006,48.8349991c0,0-0.0234013-1.6792984,2.5883999-1.1098976l0.4286995,0.5527
	c0,0-2.0732002,0.0541992-2.6758003,1.2944984L25.3579006,48.8349991z"/>
<polygon style="fill:#99411A;" points="26.0492992,50.875 28.375,48.3398018 28.6348,48.8398018 26.3511009,51.5878983 "/>
<polygon style="fill:#99411A;" points="25.0753994,48.0014992 29.0557995,49.9639015 29.2896004,50.875 25.4167004,48.8364983 "/>
<path style="fill:#99411A;" d="M35.3275986,51.1855011c0,0,1.7176018-0.8847008,3.1023026,0.4023972l-0.4090996,0.8584023
	c0,0-2.4808006-0.7666016-3.1613998-0.2881012L35.3275986,51.1855011z"/>
<polygon style="fill:#99411A;" points="34.6719017,53.1980019 37.6875,53.1982002 37.4836998,53.6707993 34.5469017,53.7812996 "/>
<g>
	
		<rect x="27.9563732" y="11.5749111" transform="matrix(0.9946024 -0.10376 0.10376 0.9946024 -3.6340063 3.1289816)" style="fill:#93928D;" width="0.6023512" height="49.8364639"/>
	<path style="fill:#494235;" d="M30.3276367,61.5908203l-0.0273438-0.2568359l-5.2270508-49.8227539l1.1137695-0.1162109
		l0.0273438,0.2578125l5.2275391,49.8217773L30.3276367,61.5908203z M25.6425781,11.9731445l5.1459961,49.0493164
		l0.0839844-0.0087891l-5.1464844-49.0493164L25.6425781,11.9731445z"/>
</g>
<polygon style="fill:#99411A;" points="35.4208984,50.875 37.4836998,53.6707993 37.1699982,54.1884003 35.0955009,51.6677017 "/>
<g>
	<path style="fill:#C19E0C;" d="M42.6123009,34.5155983c0,0,0.0596008-1.8993988,1.7392998-1.3436966
		c0,0,0.6953011-0.1699028,0.6328011-0.4253006c-0.0625-0.2554016-1.8145027-1.7935009-3.0946999,1.5189972
		C41.8897018,34.2655983,41.8368988,34.8203011,42.6123009,34.5155983z"/>
	<path style="fill:#494235;" d="M42.2177734,34.8662109L42.2177734,34.8662109
		c-0.2314453,0-0.3681641-0.0966797-0.4414063-0.1787109c-0.1611328-0.1767578-0.1484375-0.4023438-0.1445313-0.4462891
		l0.0166016-0.0693359c0.7226563-1.8701172,1.6171875-2.2626953,2.2402344-2.2626953
		c0.7070313,0,1.2822266,0.5092773,1.3476563,0.7758789c0.0410156,0.168457-0.0019531,0.4106445-0.4384766,0.605957
		c-0.1884766,0.0849609-0.3847656,0.1328125-0.3847656,0.1328125l-0.0722656,0.0175781l-0.0703125-0.0234375
		c-0.1787109-0.0585938-0.3417969-0.0888672-0.4863281-0.0888672c-0.8652344,0-0.9111328,1.1455078-0.9130859,1.1943359
		l-0.0048828,0.1708984l-0.1591797,0.0625C42.5195313,34.8300781,42.359375,34.8662109,42.2177734,34.8662109z
		 M42.1552734,34.296875l0.0625,0.0507813c0.0322266,0,0.0800781-0.0048828,0.1494141-0.0234375
		c0.0742188-0.6074219,0.4326172-1.5131836,1.4169922-1.5131836c0.1777344,0,0.3701172,0.0302734,0.5732422,0.0908203
		c0.1298828-0.0380859,0.2617188-0.0927734,0.3349609-0.1386719c-0.1083984-0.105957-0.4130859-0.3359375-0.8037109-0.3359375
		C43.2382813,32.4272461,42.6396484,33.0732422,42.1552734,34.296875z"/>
</g>
<polygon style="fill:#7C7C7C;" points="29.3257008,30.1699009 30.4351006,31.5625 29.5869007,32.4336014 "/>
<path style="fill:#7C7C7C;" d="M39.375,45.875v2.6641006l0.9618988,1.339798C40.3368988,49.8788986,41,48.8125,39.375,45.875z"/>
<polygon style="fill:#7C7C7C;" points="37.6875,30.0347004 37.3389015,27.9452991 38.0625,30.0347004 "/>
<polygon style="fill:#7C7C7C;" points="29.3257008,30.0347004 29.5869007,28.0014992 29.8803997,29.6875 "/>
<g>
	<path style="fill:#93928D;" d="M24.5312996,2.07617c0,0-0.7651997,8.5507803,0.826601,10.8828144h0.6410999
		C25.9990005,12.9589844,27.2089996,11.8364258,24.5312996,2.07617z"/>
	<path style="fill:#494235;" d="M26.1005859,13.2182617h-0.8793945l-0.0771484-0.1132813
		c-1.6254883-2.3813477-0.9023438-10.6992188-0.8710938-11.0517578l0.128418-1.4306641L24.78125,2.0078125
		c2.6430664,9.6333008,1.5297852,11.0151367,1.394043,11.1411133L26.1005859,13.2182617z M25.5,12.699707h0.3530273
		c0.1621094-0.3779297,0.5932617-2.1791992-1.1674805-9.0351563C24.5546875,6.1665039,24.4599609,10.9604492,25.5,12.699707z"/>
</g>
<g>
	<g>
		<path style="fill:#E8CBA7;" d="M24.0557003,33.7440987c-1.2012005-0.027298-1.2520008-2.4745979-1.2520008-2.4745979
			l2.0727997-5.4985008l1.9004002-3.5132008h0.8637009c0,0,0.6114006,2.4209003,0,3.5132008h-0.6914005l-1.1224995,3.6221008
			C25.8267002,29.3931007,26.5165997,33.7988014,24.0557003,33.7440987z"/>
		<path style="fill:#494235;" d="M24.1010742,34.0039063l-0.0512695-0.0009766
			c-1.4326172-0.0322266-1.5029297-2.6181641-1.5053711-2.7280273l-0.0009766-0.0498047l2.090332-5.5454102l1.9887695-3.6811523
			h1.2197266l0.0498047,0.1958008c0.0258789,0.1030273,0.6289063,2.5341797-0.0253906,3.703125l-0.0742188,0.1328125h-0.6523438
			l-1.0488281,3.3833008c0.059082,0.4248047,0.3442383,2.8417969-0.6333008,3.9848633
			C25.1137695,33.7998047,24.6572266,34.0039063,24.1010742,34.0039063z M23.0644531,31.3129883
			c0.0224609,0.609375,0.2421875,2.1547852,0.9970703,2.1723633l0.0395508,0.2597656v-0.2597656
			c0.4033203,0,0.7182617-0.1386719,0.9628906-0.4238281c0.8964844-1.0473633,0.5107422-3.6030273,0.5068359-3.628418
			l-0.0092773-0.0595703l1.1967773-3.8618164h0.7202148c0.3305664-0.7939453,0.1147461-2.2709961-0.043457-2.9946289h-0.5039063
			l-1.8266602,3.3769531L23.0644531,31.3129883z"/>
	</g>
	<path style="fill:#C1A07C;" d="M23.7422009,32.918499c0,0-0.1719017,0.4808998,0.6054993,0
		C25.125,32.4375,25.6816006,31.25,25.3096008,29.8125l0.9618988-2.875
		C26.2714996,26.9375,24.2343998,30.5869007,23.7422009,32.918499z"/>
	<g>
		<path style="fill:#C19E0C;" d="M23.6977997,27.9452991c0,0-0.8491993,1.8418007,2.3514996,1.4483013
			c0,0,0.4498005,0.2538986,0.3018017,0.6410999c-0.1480007,0.3871994-2.8687,0.6527996-3.5474014-0.9097004
			C22.8036995,29.125,22.8218994,28.2031002,23.6977997,27.9452991z"/>
		<path style="fill:#494235;" d="M25.1879883,30.5913086c-0.4760742,0-2.0727539-0.0986328-2.6220703-1.3632813
			l-0.0224609-0.0517578l0.0009766-0.0561523c0.0078125-0.3847656,0.2431641-1.1772461,1.0800781-1.4233398l0.5473633-0.1611328
			l-0.2387695,0.5180664c-0.0014648,0.0029297-0.184082,0.4194336,0.0136719,0.7241211
			c0.2353516,0.3637695,0.9672852,0.4941406,2.0708008,0.3583984l0.0849609-0.0102539l0.0742188,0.0419922
			c0.2226563,0.1254883,0.5961914,0.4882813,0.4165039,0.9589844
			C26.4243164,30.5688477,25.3930664,30.5913086,25.1879883,30.5913086z M23.0668945,29.0776367
			C23.5161133,30,24.7993164,30.0727539,25.1879883,30.0727539c0.5366211,0,0.8798828-0.1103516,0.9448242-0.1699219
			c0.0288086-0.090332-0.0751953-0.1865234-0.1474609-0.2407227c-1.2998047,0.1445313-2.1259766-0.059082-2.4765625-0.6074219
			c-0.1259766-0.1967773-0.1689453-0.4067383-0.1713867-0.5957031
			C23.1323242,28.6831055,23.0800781,28.9628906,23.0668945,29.0776367z"/>
	</g>
</g>
<g>
</g>
<g>
</g>
<g>
</g>
<g>
</g>
<g>
</g>
<g>
</g>
</svg>
