<?xml version="1.0" encoding="utf-8"?>
<!-- Generator: Adobe Illustrator 15.0.2, SVG Export Plug-In . SVG Version: 6.00 Build 0)  -->
<!DOCTYPE svg PUBLIC "-//W3C//DTD SVG 1.1//EN" "http://www.w3.org/Graphics/SVG/1.1/DTD/svg11.dtd">
<svg version="1.1" id="レイヤー_1" xmlns="http://www.w3.org/2000/svg" xmlns:xlink="http://www.w3.org/1999/xlink" x="0px"
	 y="0px" width="64px" height="64px" viewBox="0 0 64 64" enable-background="new 0 0 64 64" xml:space="preserve">
<g>
	<g>
		<radialGradient id="SVGID_1_" cx="26.833" cy="29.666" r="31.1688" gradientUnits="userSpaceOnUse">
			<stop  offset="0" style="stop-color:#907FFF"/>
			<stop  offset="0.8" style="stop-color:#7B3FFF"/>
			<stop  offset="1" style="stop-color:#7F8EFF"/>
		</radialGradient>
		<circle fill="url(#SVGID_1_)" stroke="#5800E2" stroke-miterlimit="10" cx="32" cy="32" r="26.916"/>
		<linearGradient id="SVGID_2_" gradientUnits="userSpaceOnUse" x1="28.27" y1="9.2051" x2="34.7705" y2="33.5386">
			<stop  offset="0" style="stop-color:#FFFFFF"/>
			<stop  offset="1" style="stop-color:#FFFFFF;stop-opacity:0"/>
		</linearGradient>
		<ellipse opacity="0.91" fill="url(#SVGID_2_)" cx="32" cy="23.167" rx="19.25" ry="16.583"/>
		<path opacity="0.23" fill="#FFFFFF" d="M34.833,57.499c-7.454,1.065-19.667-6-15.5-8s16.845,2.321,28.167-6.5
			S51.166,55.165,34.833,57.499z"/>
	</g>
	<g>
		<path fill="#FFFFFF" d="M42.193,35.101c0,8.893-4.582,12.349-10.485,12.349c-5.514,0-9.902-3.223-9.902-12.154V17.431h3.223
			v17.902c0,6.719,2.952,9.437,6.834,9.437c4.273,0,7.107-2.873,7.107-9.437V17.431h3.223V35.101z"/>
	</g>
	<path fill="none" stroke="#FFFFFF" stroke-width="3.1" stroke-miterlimit="5" d="M14.563,32.708
		c1.666-3.125,7.664-9.744,16.66-2.31c8.996,7.435,15.438,2.1,18.215-0.545"/>
</g>
</svg>
