<?xml version="1.0" encoding="utf-8"?>
<!-- Generator: Adobe Illustrator 17.0.0, SVG Export Plug-In . SVG Version: 6.00 Build 0)  -->
<!DOCTYPE svg PUBLIC "-//W3C//DTD SVG 1.1//EN" "http://www.w3.org/Graphics/SVG/1.1/DTD/svg11.dtd">
<svg version="1.1" id="レイヤー_1" xmlns="http://www.w3.org/2000/svg" xmlns:xlink="http://www.w3.org/1999/xlink" x="0px"
	 y="0px" width="64px" height="64px" viewBox="0 0 64 64" style="enable-background:new 0 0 64 64;" xml:space="preserve">
<path style="fill:#595757;" d="M20.3110352,62.9482422c-0.0004883,0-0.0004883,0-0.0009766,0
	c-4.4194336-0.0009766-9.3232422-1.9228516-9.5297852-2.0048828l-0.3232422-0.1279297l-9.2958984-27.578125l0.9541016-0.0791016
	c0.1225586-0.0107422,12.3237305-1.0678711,18.4570313-4.9194336c2.421875-1.5205078,5.0776367-4.5302734,7.8896484-7.7167969
	c3.4033203-3.8569336,7.2490234-8.2143555,11.4023438-10.6455078c0.0400391-0.3569336,0.1035156-0.7060547,0.1933594-1.0581055
	c0.7646484-3.0146484,1.8564453-4.1894531,3.8925781-4.1894531c0.453125,0,0.9316406,0.0527344,1.4384766,0.1083984
	c1.3759766,0.1518555,3.0175781,0.2075195,4.5302734-0.2260742c2.3710938-0.6777344,4.2939453-1.0073242,5.8779297-1.0073242
	c2.5117188,0,4.2597656,0.8344727,5.1962891,2.4799805c2.1015625,3.6958008,0.5361328,7.355957-4.7871094,11.1899414
	c-0.1474609,0.1064453-0.3056641,0.2055664-0.4697266,0.2998047c-2.3681641,4.2299805-8.9277344,14.1938477-20.6816406,19.7734375
	c-5.7246094,2.7177734-8.6928711,4.8798828-9.3408203,6.8056641c-0.4580078,1.3613281,0.2338867,2.6953125,1.109375,4.3847656
	c0.4541016,0.875,0.9682617,1.8671875,1.3652344,2.9716797c1.137207,3.1689453,1.2651367,5.4921875,0.4018555,7.3134766
	c-0.7729492,1.6308594-2.3149414,2.8105469-4.8525391,3.7109375C22.7749023,62.7744141,21.6220703,62.9482422,20.3110352,62.9482422
	z M11.6538086,59.6689453c1.1445313,0.4179688,5.1435547,1.7783203,8.6567383,1.7792969h0.0004883
	c1.1401367,0,2.1240234-0.1445313,2.925293-0.4287109c2.137207-0.7578125,3.4077148-1.6923828,3.9985352-2.9394531
	c0.671875-1.4169922,0.5219727-3.4335938-0.4584961-6.1640625c-0.362793-1.0107422-0.831543-1.9140625-1.284668-2.7880859
	c-0.9570313-1.8457031-1.8608398-3.5888672-1.1992188-5.5537109c0.8076172-2.4013672,3.8339844-4.6982422,10.1196289-7.6826172
	c11.5380859-5.4770508,17.9111328-15.3442383,20.1162109-19.3325195l0.1064453-0.1933594l0.1943359-0.1044922
	c0.1757813-0.0942383,0.3466797-0.1933594,0.5-0.3041992c4.7148438-3.3959961,6.0595703-6.2431641,4.359375-9.2319336
	c-1.1425781-2.0112305-4.0859375-2.2792969-9.3574219-0.7714844c-0.9853516,0.2817383-1.9707031,0.418457-3.0117188,0.418457
	c-0.7841797,0-1.4804688-0.0761719-2.0947266-0.144043c-0.484375-0.0532227-0.9033203-0.0991211-1.2744141-0.0991211
	c-0.7792969,0-1.6630859,0-2.4394531,3.0585938c-0.0996094,0.3930664-0.1601563,0.7822266-0.1835938,1.1894531l-0.0244141,0.4106445
	l-0.3603516,0.2001953c-4.0625,2.2612305-7.7705078,6.4633789-11.355957,10.5268555
	c-2.8857422,3.2700195-5.6113281,6.3588867-8.2163086,7.9946289c-5.4833984,3.4428711-15.1142578,4.7192383-18.1801758,5.050293
	L11.6538086,59.6689453z"/>
<g>
	<linearGradient id="SVGID_1_" gradientUnits="userSpaceOnUse" x1="18.8045235" y1="19.9539509" x2="41.7784996" y2="47.3332672">
		<stop  offset="0.3" style="stop-color:#D0AC7A"/>
		<stop  offset="1" style="stop-color:#BE9664"/>
	</linearGradient>
	<path style="fill:url(#SVGID_1_);" d="M55.8949509,15.5558939c0,0-6.5112,14.0582743-21.1613998,21.0134201
		s-9.3228569,9.3228569-7.251112,15.0941505s0.5919285,8.4349632-3.9955101,10.0627632s-12.4304733-1.4798203-12.4304733-1.4798203
		L2.1775453,33.9056396c0,0,12.4304743-1.0358696,18.7936935-5.0313797S34.733551,11.5603838,43.6124611,9.044693
		S55.8949509,15.5558939,55.8949509,15.5558939z"/>
	<linearGradient id="SVGID_2_" gradientUnits="userSpaceOnUse" x1="11.9934311" y1="61.0326118" x2="52.5253906" y2="12.7285051">
		<stop  offset="0" style="stop-color:#BE9664;stop-opacity:0"/>
		<stop  offset="0.4353983" style="stop-color:#AC8157;stop-opacity:0.7"/>
		<stop  offset="0.7194691" style="stop-color:#AC8157;stop-opacity:0.7"/>
		<stop  offset="1" style="stop-color:#A67A51;stop-opacity:0"/>
	</linearGradient>
	<path style="fill:url(#SVGID_2_);" d="M54.666687,15.5c0,0-0.2532349,0.4412231-0.748291,1.1970215
		C53.9716797,16.4735107,54,16.333313,54,16.333313S40.8260841,10.0987368,40.75,10.1875
		c-1.125,1.3125,0.1502838,4.8907413,3.125,7.25c3.625,2.875,6.8721161,1.1961136,7.458313,1.5625
		c0.2790527,0.1744385,0.383667,0.4540405,0.3849487,0.7824707C48.8563843,23.508667,43.927002,28.979187,37,33.333313
		c-11.666687,7.333374-16.833313,8-15.333313,14.833313c1.4421387,6.5697021-0.9929199,9.1228638-11.9928589,7.9780273
		l1.3826294,4.1017456c0,0,7.8430176,3.107605,12.430481,1.4797974c4.5874023-1.6278076,6.0672607-4.2914429,3.9954834-10.0627441
		c-2.0717163-5.7713013-7.3990479-8.1389771,7.2510986-15.0941772c14.6502075-6.9551392,21.161438-21.0133667,21.161438-21.0133667
		L54.666687,15.5z"/>
	<linearGradient id="SVGID_3_" gradientUnits="userSpaceOnUse" x1="39.164547" y1="11.9077101" x2="44.4910355" y2="21.133461">
		<stop  offset="0" style="stop-color:#BE9664;stop-opacity:0"/>
		<stop  offset="0.2" style="stop-color:#AC8157;stop-opacity:0.3"/>
		<stop  offset="0.5" style="stop-color:#AC8157;stop-opacity:0.3"/>
		<stop  offset="1" style="stop-color:#BE9664;stop-opacity:0"/>
	</linearGradient>
	<path style="fill:url(#SVGID_3_);" d="M39.4375,11.8125c0,0-0.8125,7.6875,7.125,8.125c0,0-4.75,0.5625-6.8125-2.3125
		S38.375,11.9375,39.4375,11.8125z"/>
	<linearGradient id="SVGID_4_" gradientUnits="userSpaceOnUse" x1="19.8541851" y1="39.6746445" x2="40.1561813" y2="15.4796686">
		<stop  offset="0" style="stop-color:#FFFFFF;stop-opacity:0"/>
		<stop  offset="0.6" style="stop-color:#FFFFFF;stop-opacity:0.3"/>
		<stop  offset="1" style="stop-color:#FFFFFF;stop-opacity:0"/>
	</linearGradient>
	<path style="fill:url(#SVGID_4_);" d="M42.1666679,17.166666c0,0-5.6666679,5.333334-9.5,10S21,36.1666679,16.666666,37
		c0,0,7.833334,0.8333321,16.833334-8.5s9.8333321-10.333334,9.8333321-10.333334L42.1666679,17.166666z"/>
</g>
<g>
	<radialGradient id="SVGID_5_" cx="49.8506622" cy="7.3169851" r="10.149828" gradientUnits="userSpaceOnUse">
		<stop  offset="0.6504425" style="stop-color:#C27A8A"/>
		<stop  offset="1" style="stop-color:#AB6D7B"/>
	</radialGradient>
	<path style="fill:url(#SVGID_5_);" d="M50.1252251,5.2322726c3.9353561-1.1249075,8.5261917-1.8480222,10.2155609,1.1222477
		c2.0380173,3.5832686,0.0620918,6.8722739-4.5728989,10.2108078c-4.4428062,3.2001057-17.0322952,0.5119457-14.9835815-7.5621901
		C42.3503189,2.8313472,44.7503319,6.7686672,50.1252251,5.2322726z"/>
	<path style="fill:#AD6577;" d="M55.7678833,16.5653076c0.3135376-0.2258301,0.6124878-0.451416,0.9012451-0.6768799
		c-7.7841187,1.3858032-12.0284424-0.43573-13.8358154-3.7218018c-1.3896484-2.5266113-0.5777588-5.336792-0.1029663-6.5507813
		c-0.7971191,0.3813477-1.4191895,1.3109131-1.9460449,3.3872681
		C38.7355957,17.0772705,51.3250732,19.7654419,55.7678833,16.5653076z"/>
	<linearGradient id="SVGID_6_" gradientUnits="userSpaceOnUse" x1="43.7519951" y1="11.1096649" x2="48.0477333" y2="16.2291222">
		<stop  offset="0" style="stop-color:#FFFFFF;stop-opacity:0"/>
		<stop  offset="0.6" style="stop-color:#FFFFFF;stop-opacity:0.3"/>
		<stop  offset="1" style="stop-color:#FFFFFF;stop-opacity:0"/>
	</linearGradient>
	<path style="fill:url(#SVGID_6_);" d="M43.1875,11.583333c0,0,1.8125,2.541667,5.7291679,3.916667
		C48.9166679,15.5,44.75,15.833333,43.1875,11.583333z"/>
	<linearGradient id="SVGID_7_" gradientUnits="userSpaceOnUse" x1="55.6263237" y1="5.5067301" x2="56.8736763" y2="6.9932694">
		<stop  offset="0" style="stop-color:#FFFFFF;stop-opacity:0.5"/>
		<stop  offset="1" style="stop-color:#FFFFFF;stop-opacity:0"/>
	</linearGradient>
	<ellipse style="fill:url(#SVGID_7_);" cx="56.25" cy="6.25" rx="1.0416666" ry="0.9166667"/>
</g>
<g>
</g>
<g>
</g>
<g>
</g>
<g>
</g>
<g>
</g>
<g>
</g>
</svg>
