<?xml version="1.0" encoding="utf-8"?>
<!-- Generator: Adobe Illustrator 15.0.2, SVG Export Plug-In . SVG Version: 6.00 Build 0)  -->
<!DOCTYPE svg PUBLIC "-//W3C//DTD SVG 1.1//EN" "http://www.w3.org/Graphics/SVG/1.1/DTD/svg11.dtd">
<svg version="1.1" id="レイヤー_1" xmlns="http://www.w3.org/2000/svg" xmlns:xlink="http://www.w3.org/1999/xlink" x="0px"
	 y="0px" width="64px" height="64px" viewBox="0 0 64 64" style="enable-background:new 0 0 64 64;" xml:space="preserve">
<g>
	<g>
		<linearGradient id="SVGID_1_" gradientUnits="userSpaceOnUse" x1="27.2797852" y1="25.2646484" x2="44.4935684" y2="74.9380722">
			<stop  offset="0" style="stop-color:#FFF1BF"/>
			<stop  offset="0.1983559" style="stop-color:#FFE9B2"/>
			<stop  offset="0.566525" style="stop-color:#FFD38F"/>
			<stop  offset="1" style="stop-color:#FFB55F"/>
		</linearGradient>
		<path style="fill:url(#SVGID_1_);" d="M59.9140625,31.9951172c5.2558594,29.3837891-6.1865234,27.7451172-28.2299805,27.7675781
			c-18.5625,0.0205078-33.3339844-1.1259766-27.6210938-26.0078125C9.6430664,9.4492188,13.121582,4.2275391,31.684082,4.2275391
			C51.8408203,4.2275391,55.46875,7.1425781,59.9140625,31.9951172z"/>
		<linearGradient id="SVGID_2_" gradientUnits="userSpaceOnUse" x1="37.8964844" y1="-5.6679688" x2="34.0634613" y2="15.1655426">
			<stop  offset="0" style="stop-color:#D23A18"/>
			<stop  offset="0.2649619" style="stop-color:#DA4E1C"/>
			<stop  offset="0.8068733" style="stop-color:#ED8328"/>
			<stop  offset="0.89697" style="stop-color:#F18C2A"/>
			<stop  offset="0.9146296" style="stop-color:#F29537"/>
			<stop  offset="0.9474026" style="stop-color:#F5AD5A"/>
			<stop  offset="0.9913981" style="stop-color:#F9D391"/>
			<stop  offset="1" style="stop-color:#FADB9D"/>
		</linearGradient>
		<path style="fill:url(#SVGID_2_);" d="M19.9902344,6.3378906C12.8808594,8.4985352,10.4023438,11.3334961,15.9511719,12
			S30,9.7270508,34,10.9467773S36.4082031,15.1289063,40.3330078,15s3.7958984-2.9873047,7.4833984,0.0039063
			s7.40625,5.6704102,8.2949219,0S40.8144531,0.0092773,19.9902344,6.3378906z"/>
		<linearGradient id="SVGID_3_" gradientUnits="userSpaceOnUse" x1="35.6435547" y1="6.2949219" x2="59.5605316" y2="1.7949119">
			<stop  offset="0" style="stop-color:#D23A18"/>
			<stop  offset="0.2649619" style="stop-color:#DA4E1C"/>
			<stop  offset="0.8068733" style="stop-color:#ED8328"/>
			<stop  offset="0.89697" style="stop-color:#F18C2A"/>
			<stop  offset="0.9146296" style="stop-color:#F29537"/>
			<stop  offset="0.9474026" style="stop-color:#F5AD5A"/>
			<stop  offset="0.9913981" style="stop-color:#F9D391"/>
			<stop  offset="1" style="stop-color:#FADB9D"/>
		</linearGradient>
		<path style="fill:url(#SVGID_3_);" d="M18.4052734,6.2685547c0,0,17.9560547,1.8095703,30.5673828,1.0205078
			C48.9726563,7.2890625,37.3935547,0.9536133,18.4052734,6.2685547z"/>
		<path style="fill:#FFBC80;" d="M34.0449219,7.8945313c-5.862793,0-14.019043-0.9697266-14.1010742-0.9794922
			C19.7211914,6.8881836,19.5625,6.6860352,19.5888672,6.4633789c0.0268555-0.2226563,0.2280273-0.4223633,0.4516602-0.3959961
			C20.1220703,6.0771484,28.230957,7,34.0449219,7c0.0126953,0,0.0253906,0,0.0390625,0l0,0
			c0.2246094,0,0.40625,0.2226563,0.40625,0.4467773C34.4902344,7.6845703,34.28125,7.8945313,34.0449219,7.8945313z"/>
		<path style="fill:#FFBC80;" d="M39.6357422,7.8955078c-0.8427734,0-1.3945313-0.0092773-1.3945313-0.0092773
			c-0.2236328-0.003418-0.4033203-0.2255859-0.3994141-0.449707C37.8457031,7.2148438,38.0263672,7,38.2480469,7
			C38.25,7,38.2529297,7,38.2548828,7c0.0029297,0,1.2324219,0,2.8173828,0c0.0009766,0,0.0029297,0,0.0048828,0
			c0.2216797,0,0.4033203,0.2158203,0.40625,0.4379883c0.0029297,0.2246094-0.1767578,0.4272461-0.4013672,0.4296875
			C40.5488281,7.875,40.0556641,7.8955078,39.6357422,7.8955078z"/>
		<path style="fill:#FFFFFF;" d="M16.7685547,10.2109375c1.5175781-1.1435547,4.5283203-0.4262695,1.9765625,3.015625
			S11.7011719,14.03125,16.7685547,10.2109375z"/>
		<path style="fill:#FFFFFF;" d="M14.9853516,16.7578125c1.2050781,0.0419922-0.1513672,3.1103516-1.1513672,2.6762695
			S12.8046875,16.6821289,14.9853516,16.7578125z"/>
		<path style="opacity:0.35;fill:#FFFFFF;" d="M41.1572266,55.6376953C39.7675781,54.1728516,48.1171875,55.796875,51.25,53.40625
			c3.5839844-2.7353516,6.1298828-4.3105469,5.6289063-1.4667969
			C56.3076172,55.1826172,43.1748047,57.7666016,41.1572266,55.6376953z"/>
	</g>
	<path style="fill:#541715;" d="M37.6357422,60.9921875l-5.9501953-0.0107422l-0.4541016,0.0009766
		c-11.4873047,0-21.4038086-0.5117188-26.4135742-6.8027344C1.3208008,49.7890625,0.6850586,43.0185547,2.875,33.4824219
		C8.4550781,9.1757813,12.0141602,3.0078125,31.684082,3.0078125c21.105957,0,24.956543,3.7646484,29.4301758,28.7724609
		c2.2011719,12.3085938,1.5869141,19.7050781-1.9941406,23.9833984
		C55.0576172,60.6171875,47.6533203,60.9921875,37.6357422,60.9921875z M32.1640625,58.5429688l5.4716797,0.0107422
		c9.3505859,0,16.2304688-0.3115234,19.6152344-4.3554688c3.0332031-3.6240234,3.4980469-10.6113281,1.4628906-21.9882813
		C54.2519531,7.2636719,50.8496094,5.4462891,31.684082,5.4462891c-17.2709961,0-20.7294922,3.7392578-26.4331055,28.5810547
		c-2.0126953,8.7666016-1.5302734,14.8613281,1.4741211,18.6337891c4.3325195,5.4404297,13.6616211,5.8828125,24.5063477,5.8828125
		L32.1640625,58.5429688z"/>
	<g>
		<path style="fill:#330100;" d="M51.0205078,38.5478516c-0.3642578-0.03125-8.96875-0.7880859-13.84375-4.25l0.9492188-1.3378906
			c4.5068359,3.2011719,12.9472656,3.9462891,13.03125,3.953125L51.0205078,38.5478516z"/>
		<path style="fill:#330100;" d="M13.0302734,38.5410156l-0.2412109-1.6210938
			c2.6967773-0.4023438,10.1049805-1.8779297,11.9736328-3.8544922l1.1914063,1.1269531
			C23.3598633,36.9365234,14.0800781,38.3847656,13.0302734,38.5410156z"/>
		<path style="fill:#330200;" d="M19.8442383,46.2373047c-0.2763672,0-0.5556641-0.0117188-0.8378906-0.0351563
			c-1.7333984-0.1455078-3.8325195-0.8369141-4.5263672-2.3417969l2.2333984-1.0292969
			c0.1005859,0.2167969,0.9619141,0.7910156,2.4990234,0.9199219c0.8369141,0.0722656,3.6992188,0.1210938,5.2788086-2.1894531
			l2.0302734,1.3886719C25.0913086,45.0429688,22.6357422,46.2373047,19.8442383,46.2373047z"/>
		<path style="fill:#330200;" d="M44.0302734,45.9433594c-0.7294922,0-1.4785156-0.0878906-2.2353516-0.2685547
			c-1.6923828-0.4052734-3.6650391-1.4052734-4.1259766-2.9970703l2.3632813-0.6835938
			c0.0664063,0.2304688,0.8330078,0.9287109,2.3349609,1.2880859c0.8193359,0.1962891,3.6367188,0.6757813,5.5458984-1.3681641
			l1.796875,1.6796875C48.2802734,45.1240234,46.25,45.9433594,44.0302734,45.9433594z"/>
	</g>
	<path style="fill:#330200;" d="M35.8701172,55.4912109c-2.7050781-1.7558594-7.0893555-0.4882813-7.6611328-0.0595703
		L26.953125,53.875c1.0839844-0.8779297,6.5107422-2.3320313,10.0068359-0.0615234L35.8701172,55.4912109z"/>
</g>
</svg>
