<?xml version="1.0" encoding="UTF-8" standalone="no"?>
<!-- Generated by phantom_svg. -->

<svg
   xmlns:dc="http://purl.org/dc/elements/1.1/"
   xmlns:cc="http://creativecommons.org/ns#"
   xmlns:rdf="http://www.w3.org/1999/02/22-rdf-syntax-ns#"
   xmlns:svg="http://www.w3.org/2000/svg"
   xmlns="http://www.w3.org/2000/svg"
   xmlns:sodipodi="http://sodipodi.sourceforge.net/DTD/sodipodi-0.dtd"
   xmlns:inkscape="http://www.inkscape.org/namespaces/inkscape"
   width="64px"
   height="64px"
   viewBox="0 0 64 64"
   preserveAspectRatio="none"
   version="1.1"
   id="svg2"
   inkscape:version="0.91 r13725"
   sodipodi:docname="ping pong ball.svg">
  <metadata
     id="metadata135">
    <rdf:RDF>
      <cc:Work
         rdf:about="">
        <dc:format>image/svg+xml</dc:format>
        <dc:type
           rdf:resource="http://purl.org/dc/dcmitype/StillImage" />
      </cc:Work>
    </rdf:RDF>
  </metadata>
  <defs
     id="defs133" />
  <sodipodi:namedview
     pagecolor="#ffffff"
     bordercolor="#666666"
     borderopacity="1"
     objecttolerance="10"
     gridtolerance="10"
     guidetolerance="10"
     inkscape:pageopacity="0"
     inkscape:pageshadow="2"
     inkscape:window-width="1920"
     inkscape:window-height="1016"
     id="namedview131"
     showgrid="false"
     inkscape:zoom="3.6875"
     inkscape:cx="-28.20339"
     inkscape:cy="32"
     inkscape:window-x="0"
     inkscape:window-y="27"
     inkscape:window-maximized="1"
     inkscape:current-layer="svg2" />
  <g
     id="g104"
     transform="matrix(5.0351096,0,0,5.0351096,-203.86237,-28.520635)">
    <radialGradient
       id="SVGID_9_"
       cx="46.859375"
       cy="12.007812"
       r="5.6494141"
       fx="44.987671"
       fy="9.9167147"
       gradientUnits="userSpaceOnUse">
      <stop
         offset="0"
         style="stop-color:#FFFFFF"
         id="stop107" />
      <stop
         offset="0.2946429"
         style="stop-color:#F5F5F5"
         id="stop109" />
      <stop
         offset="1"
         style="stop-color:#9C9C9D"
         id="stop111" />
    </radialGradient>
    <path
       style="fill:url(#SVGID_9_)"
       d="m 46.859375,17.657227 c -3.115234,0 -5.649414,-2.53418 -5.649414,-5.649414 0,-3.1152349 2.53418,-5.6494146 5.649414,-5.6494146 3.115234,0 5.649414,2.5341797 5.649414,5.6494146 0,3.115234 -2.53418,5.649414 -5.649414,5.649414 z"
       id="path113"
       inkscape:connector-curvature="0" />
    <path
       style="fill:#c6c7c8"
       d="m 46.859245,6.6082916 c 2.977261,0 5.39943,2.4221687 5.39943,5.3994294 0,2.977261 -2.422169,5.399441 -5.39943,5.399441 -2.97726,0 -5.399441,-2.42218 -5.399441,-5.399441 0,-2.9772607 2.422181,-5.3994294 5.399441,-5.3994294 m 0,-0.5 c -3.258171,0 -5.899441,2.6412582 -5.899441,5.8994294 0,3.258171 2.64127,5.899441 5.899441,5.899441 3.25816,0 5.89943,-2.64127 5.89943,-5.899441 0,-3.2581712 -2.64127,-5.8994294 -5.89943,-5.8994294 l 0,0 z"
       id="path115"
       inkscape:connector-curvature="0" />
    <path
       style="fill:#595757"
       d="m 46.859375,18.157227 c -3.390625,0 -6.149414,-2.758789 -6.149414,-6.149414 0,-3.3906255 2.758789,-6.1494146 6.149414,-6.1494146 3.390625,0 6.149414,2.7587891 6.149414,6.1494146 0,3.390625 -2.758789,6.149414 -6.149414,6.149414 z m 0,-11.7988286 c -3.115234,0 -5.649414,2.5341797 -5.649414,5.6494146 0,3.115234 2.53418,5.649414 5.649414,5.649414 3.115234,0 5.649414,-2.53418 5.649414,-5.649414 0,-3.1152349 -2.53418,-5.6494146 -5.649414,-5.6494146 z"
       id="path117"
       inkscape:connector-curvature="0" />
  </g>
  <g
     id="g119" />
  <g
     id="g121" />
  <g
     id="g123" />
  <g
     id="g125" />
  <g
     id="g127" />
  <g
     id="g129" />
</svg>
