<?xml version="1.0" encoding="utf-8"?>
<!-- Generator: Adobe Illustrator 18.0.0, SVG Export Plug-In . SVG Version: 6.00 Build 0)  -->
<!DOCTYPE svg PUBLIC "-//W3C//DTD SVG 1.1//EN" "http://www.w3.org/Graphics/SVG/1.1/DTD/svg11.dtd">
<svg version="1.1" id="レイヤー_1" xmlns="http://www.w3.org/2000/svg" xmlns:xlink="http://www.w3.org/1999/xlink" x="0px"
	 y="0px" width="64px" height="64px" viewBox="0 0 64 64" style="enable-background:new 0 0 64 64;" xml:space="preserve">
<path style="fill:#FFB997;" d="M17.375,16.875c0,0,4.25,4.375,4.875,5.875s1.7842007,6.1049995,4.125,9.75
	c3.375,5.2549019,12.3964996,7.0312996,16.3964996,4.4062996S53,24.25,52.75,20.25c0,0,4-0.875,4.625-5s-3-9.125-6.25-6.375
	S49.25,13.5,49.25,13.5S42.5,2.5,39.125,1.25S27,0,22.875,2.25S15.875,11.125,17.375,16.875z"/>
<linearGradient id="SVGID_1_" gradientUnits="userSpaceOnUse" x1="34.4416656" y1="5.6433597" x2="40.8167458" y2="25.7685509">
	<stop  offset="0" style="stop-color:#1F5AFF"/>
	<stop  offset="0.0942773" style="stop-color:#1C59FF;stop-opacity:0.9057227"/>
	<stop  offset="1" style="stop-color:#0055FF;stop-opacity:0"/>
</linearGradient>
<path style="fill:url(#SVGID_1_);" d="M17.375,16.875c0,0,4.25,4.375,4.875,5.875s1.7842007,6.1049995,4.125,9.75
	c3.375,5.2549019,12.3964996,7.0312996,16.3964996,4.4062996S53,24.25,52.75,20.25c0,0,4-0.875,4.625-5s-3-9.125-6.25-6.375
	S49.25,13.5,49.25,13.5S42.5,2.5,39.125,1.25S27,0,22.875,2.25S15.875,11.125,17.375,16.875z"/>
<path style="fill:#190101;" d="M37.9550781,38.9042969L37.9550781,38.9042969
	c-4.0527344,0-9.6162109-1.8691406-12.2519531-5.9726563c-1.8095703-2.8178711-2.90625-6.1083984-3.6318359-8.2856445
	c-0.2250977-0.6757813-0.4072266-1.2265625-0.5585938-1.5888672c-0.4121094-0.9902344-3.1079102-3.9760742-4.7104492-5.6259766
	l-0.1464844-0.1508789l-0.0532227-0.2036133c-1.5244141-5.84375,1.1728516-12.9545898,5.8901367-15.527832
	c3.2055664-1.7480469,8.1635742-1.9370117,10.1464844-1.9370117c2.7719727,0,5.2368164,0.3242188,6.7631836,0.8891602
	c2.6337891,0.9755859,6.8388672,6.9125977,9.1054688,10.3554688c0.34375-0.7675781,0.9824219-1.6445313,2.1015625-2.5908203
	c1.7802734-1.5078125,4.0625-1.203125,5.7167969,0.71875c1.4492188,1.6850586,2.1708984,4.1914063,1.8378906,6.3852539
	c-0.5478516,3.621582-3.3505859,5.0200195-4.6220703,5.4736328c-0.3183594,4.6816406-6.4492188,14.1821289-10.3320313,16.730957
	C41.8828125,38.4443359,40.0664063,38.9042969,37.9550781,38.9042969z M18.097168,16.4731445
	c0.8500977,0.8828125,4.2739258,4.4912109,4.8901367,5.9697266c0.1611328,0.3876953,0.3583984,0.9755859,0.5991211,1.6982422
	c0.7006836,2.1015625,1.7587891,5.277832,3.4604492,7.9272461c2.3120117,3.5996094,7.2753906,5.2392578,10.9082031,5.2392578
	c1.7734375,0,3.328125-0.3798828,4.3779297-1.0693359c3.9082031-2.5634766,9.8417969-12.3955078,9.6201172-15.9384766
	l-0.0429688-0.6835938l0.6689453-0.1464844c0.1386719-0.03125,3.4746094-0.8271484,4.0068359-4.3393555
	c0.2607422-1.7265625-0.3300781-3.777832-1.4707031-5.1049805c-1.0830078-1.2587891-2.3417969-1.4995117-3.4746094-0.5410156
	c-2.4570313,2.0795898-1.8232422,3.4023438-1.7431641,3.5463867l-1.2910156,0.9414063l-0.1035156-0.1635742
	c-2.2792969-3.6757813-7.2587891-10.9223633-9.6552734-11.8095703c-1.3359375-0.4946289-3.65625-0.7900391-6.2084961-0.7900391
	c-3.8745117,0-7.3818359,0.6513672-9.3818359,1.7421875C19.7016602,4.890625,16.7460938,10.8876953,18.097168,16.4731445z"/>
<g>
	<path style="fill:#813919;" d="M14.375-1.25L7,4.5h6.25c0,0-5.125,7.875-4.375,11.25l5.25-3.75c0,0,0.5,7.25,2.25,10.25
		c0,0,5.25-11.875,6.5-12.75c0,0,3.875,4.25,6.125,5.75l0.25-6.375c0,0,14,2.75,14.5,3.125l0.125-3.625l4.75,9.875L50.25,8.125
		l2.875,0.25l2.75,0.875c0,0,0-14.625-12.875-13.25C43-4,32.625-16.875,14.375-1.25z"/>
	<path style="fill:#190801;" d="M16.4838867,24.1948242l-0.8740234-1.4985352
		c-1.3344727-2.2875977-1.9702148-6.7192383-2.2255859-9.0786133l-5.0834961,3.6313477l-0.2905273-1.3066406
		c-0.6328125-2.8466797,2.1518555-8.0385742,3.6494141-10.5566406H4.4228516l9.4072266-7.3344727
		c6.1298828-5.2495117,12.1015625-7.9238281,17.7167969-7.9238281c6.6494141,0,10.6835938,3.7363281,11.8183594,4.9487305
		c0.4394531-0.0351563,0.8730469-0.0532227,1.2919922-0.0532227c11.9638672,0,12.1035156,14.0849609,12.1035156,14.2270508
		v1.2114258l-3.8105469-1.2124023l-1.9560547-0.1699219l-1.9423828,12.1020508l-4.4150391-9.1796875l-0.0595703,1.7260742
		l-1.2841797-0.9633789c-0.9707031-0.3457031-8.1748047-1.8251953-13.1982422-2.8198242l-0.2714844,6.9189453l-1.3144531-0.8759766
		c-1.7470703-1.1645508-4.3486328-3.8276367-5.5878906-5.1386719c-1.1411133,1.8193359-3.6313477,7.0004883-5.7358398,11.7597656
		L16.4838867,24.1948242z M14.8994141,10.3583984l0.109375,1.5805664c0.0039063,0.0581055,0.3476563,4.8603516,1.3852539,8.0961914
		c1.8520508-4.105957,4.8525391-10.4765625,5.9731445-11.2607422l0.6376953-0.4467773l0.5249023,0.5756836
		c0.0307617,0.0336914,2.5629883,2.8032227,4.6523438,4.5932617l0.2231445-5.6904297l1.015625,0.199707
		c8.2529297,1.6210938,11.8652344,2.4174805,13.4824219,2.8291016l0.2099609-6.0864258l5.0849609,10.5703125l1.3076172-8.1479492
		l3.8876953,0.3598633l1.5253906,0.4853516C54.6162109,4.8540039,53.0253906-3.2055664,44.6572266-3.2055664
		c-0.5019531,0-1.0273438,0.0292969-1.5634766,0.0864258l-0.4804688,0.0512695l-0.3027344-0.3759766
		c-0.0371094-0.0454102-3.8710938-4.6572266-10.7636719-4.6572266c-5.1806641,0-10.7646484,2.5317383-16.5957031,7.5239258
		L9.5766602,3.6142578h5.3061523l-0.8901367,1.3686523c-1.5439453,2.3735352-3.7026367,6.4140625-4.2021484,9.0244141
		L14.8994141,10.3583984z"/>
</g>
<g>
	<g>
		
			<rect x="21.4301186" y="20.3753281" transform="matrix(0.8224145 0.5688887 -0.5688887 0.8224145 16.7223186 -10.4047966)" style="fill:#0C0101;" width="7.1934719" height="2.4138927"/>
		
			<rect x="23.7431736" y="16.7705116" transform="matrix(0.957726 0.287682 -0.287682 0.957726 7.1233768 -6.285882)" style="fill:#0C0101;" width="2.413554" height="8.6489191"/>
	</g>
	<g>
		
			<rect x="34.3161392" y="14.9099588" transform="matrix(0.9268975 0.3753146 -0.3753146 0.9268975 8.9649925 -13.5382776)" style="fill:#0C0101;" width="9.8394022" height="2.6688516"/>
		
			<rect x="37.7341995" y="11.931963" transform="matrix(0.8468862 0.5317742 -0.5317742 0.8468862 14.8423882 -18.2243481)" style="fill:#0C0101;" width="2.6683228" height="9.4602919"/>
	</g>
</g>
<path style="fill:#510811;" d="M29.5,31.4228992c0,0,0.5435009,0.4272003,3.1474991-0.4169998
	c2.6044998-0.8437996,7.6669998-4.3339996,9.3554001-3.7392998c1.6884995,0.5942001,4.955101,3.0352001,2.8789024,5.842802
	c0,0-3.7196999,5.6854973-12.2343025,2.9452972C32.6474991,36.0546989,37.5253983,32.625,29.5,31.4228992z"/>
<path style="fill:#D05066;" d="M34.9854012,35.7461014c0,0,0.0116997-3.3286018,4.4902-4.4160023
	c4.4774971-1.0873985,3.8964996,1.2255993,3.8964996,1.2255993S45.1161995,35.9980011,34.9854012,35.7461014z"/>
<path style="fill:#9BC82D;" d="M38.2285004,36.125c0,0,1.0517998,4.125,2.0205002,5.75c0.9687996,1.625,2.9501991,5.9813995,0,4.625
	s-2.5312004-6.4766006-2.5312004-6.4766006L38.2285004,36.125z"/>
<path style="fill:#9BC82D;" d="M23.5795994,40.0233994c0,0-3.4946384,2.4766006-8.0371189,2.2266006S14.25,47.25,17.75,45.375
	S23.5795994,40.0233994,23.5795994,40.0233994z"/>
<linearGradient id="SVGID_2_" gradientUnits="userSpaceOnUse" x1="-66.848465" y1="23.0932159" x2="-63.4373627" y2="27.9090328" gradientTransform="matrix(-1 0 0 1 -34.3886986 0)">
	<stop  offset="0" style="stop-color:#00A6FF"/>
	<stop  offset="0.2642382" style="stop-color:#0087FF"/>
	<stop  offset="0.5518826" style="stop-color:#006BFF"/>
	<stop  offset="0.8066576" style="stop-color:#005BFF"/>
	<stop  offset="1" style="stop-color:#0055FF"/>
</linearGradient>
<path style="fill:url(#SVGID_2_);" d="M28.8931007,25.1518993c0,1.0249004,0.9422989,1.8569012,2.107399,1.8569012
	c1.1674995,0,2.1128006-0.8320007,2.1128006-1.8569012c0-1.0303001-0.9453011-1.8598995-2.1128006-1.8598995
	C29.8353996,23.2919998,28.8931007,24.1215992,28.8931007,25.1518993z"/>
<path style="fill:#89AE17;" d="M38.9668007,32.0049019c0,0-2.4608994-0.1836014-3.7891006,1.5848999
	c0,0-2.5483017,1.1142998-4.773901,2.9453964c-2.2240982,1.8291016-7.2763996,9.805603-7.0292988,12.5517006
	c0.2465992,2.7451019,3.0401001,0,3.0401001,0s-0.5401001,0.7256012-1.1674995,1.8975029
	C25.2460995,50.9424019,25.2451,50.9150009,25.2451,50.9150009s-0.0170994,0.0634995-0.0498009,0.1689987
	c-0.4091988,0.7754021-0.847599,1.7304993-1.1962986,2.8008003c-0.7075005,1.3027-1.7539005,2.7998009-3.2353306,3.9833984
	c-2.9462891,2.3554001,0.6772499,4.4160004,2.5844307,2.2968025c0.1420994,3.5,0.7178001,6.9648972,0.7178001,6.9648972H33.9277
	c0,0-1.2358017-5.4843979-1.6908989-9.2187996c0.747097,0.7490997,1.6987,0.9004021,2.2670975-0.509697
	c0.8418007-2.0948029-0.5956993-5.1592026-1.3008003-7.8125c0.3145027-1.2471008,0.6348-2.4493027,0.8809013-3.4112015
	c0.2578011,0.5371017,0.6094017,0.8134995,1.0937004,0.5556984c1.4375-0.7655983,1.0351982-4.2030983,0.8984985-7.1464996
	C37.357399,36.1083984,38.9668007,32.0049019,38.9668007,32.0049019z"/>
<path style="fill:#9BC82D;" d="M39.75,34.044899c0,0-2.767601-0.1758003-4.2588005,1.5147018
	c0,0-2.8661995,1.0653992-5.3661995,2.8153992s-8.1796894,9.375-7.9022999,12c0.2772999,2.625,3.4174004,0,3.4174004,0
	s-0.6069012,0.6943016-1.3120003,1.8144989c-0.0014-0.0401001-0.0029011-0.0654984-0.0029011-0.0654984
	s-0.0189991,0.0596008-0.0551987,0.1601982c-0.4598999,0.7411995-0.9535999,1.6553001-1.3451996,2.6786995
	c-0.7959003,1.2451019-1.9721603,2.6758003-3.6372013,3.8076019c-3.3125,2.2519989,0.7612305,4.2226982,2.9053001,2.1963005
	C22.3530006,64.3125,23,67.625,23,67.625h11.0839996c0,0-1.3876991-5.2431984-1.8993988-8.8134995
	c0.839798,0.7158012,1.910099,0.8604012,2.5477982-0.4873009c0.9463005-2.0018997-0.669899-4.9315987-1.4628983-7.4687004
	c0.3535004-1.1923981,0.714901-2.3418007,0.9931984-3.2616997c0.2891006,0.5145988,0.6836014,0.7783012,1.2285004,0.5312004
	c1.6152-0.7313995,1.1631012-4.0186005,1.0088005-6.8320007C37.9424019,37.9678001,39.75,34.044899,39.75,34.044899z"/>
<g>
	<path style="fill:#FFB997;" d="M67.4160004,41.794899l-11.3506012-8.6307983c0,0-3.3368988-7.2666016-9.0282974-4.7305012
		c-5.6924019,2.5356007-6.1660004,2.3334999-6.1660004,2.3334999s-3.0371017,1.8647022,0.8876991,2.281702l3.0761986,0.6415977
		c0,0-1.8223,0.9092026-1.8731003,3.4209023c-0.0517006,2.5116997,2.330101,6.1523972,5.8964996,6.5868988
		C52.4229012,44.1328011,53.125,42.8270988,53.125,42.8270988l14.642601,9.3243027L67.4160004,41.794899z"/>
	<path style="fill:#190101;" d="M68.6171875,53.6386719l-15.3916016-9.8007813
		c-0.5195313,0.3671875-1.4375,0.7470703-3.0097656,0.7470703c-0.4511719,0-0.9404297-0.03125-1.4541016-0.09375
		c-4.171875-0.5087891-6.6542969-4.6503906-6.5986328-7.3964844c0.0273438-1.3300781,0.4785156-2.2871094,0.9765625-2.9423828
		l-1.5439453-0.3222656c-0.9589844-0.0976563-2.3671875-0.3691406-2.6123047-1.4526367
		c-0.2558594-1.1313477,1.0605469-2.0395508,1.4697266-2.2910156l0.3525391-0.2163086l0.1992188,0.0854492
		c0.3310547-0.0703125,1.6191406-0.4301758,5.7070313-2.2514648c0.9033203-0.4023438,1.8125-0.6064453,2.703125-0.6064453
		c4.2617188,0,6.78125,4.5424805,7.2851563,5.5458984l11.5009766,8.7451172L68.6171875,53.6386719z M52.8564453,41.6455078
		l0.6972656,0.5078125l13.3642578,8.5107422l-0.2871094-8.4628906l-11.2070313-8.5214844l-0.0839844-0.1816406
		c-0.0214844-0.0478516-2.2636719-4.8032227-5.9248047-4.8032227c-0.6650391,0-1.3554688,0.1577148-2.0527344,0.4682617
		c-3.2587891,1.4511719-5.3486328,2.2524414-6.2246094,2.3862305c-0.1982422,0.1416016-0.390625,0.3144531-0.5019531,0.4472656
		c0.1728516,0.0751953,0.5263672,0.1860352,1.2070313,0.2583008l5.40625,1.1230469l-2.0576172,1.0273438
		c-0.0498047,0.0263672-1.3916016,0.7548828-1.4306641,2.7226563c-0.0429688,2.0429688,2.0078125,5.3896484,5.1943359,5.7773438
		c0.4501953,0.0556641,0.8740234,0.0830078,1.2607422,0.0830078c1.7783203,0,2.2294922-0.5791016,2.2333984-0.5849609
		L52.8564453,41.6455078z"/>
</g>
<path style="fill:#9BC82D;" d="M18.0366192,53.4726982c0,0-2.732419,2.3808022-3.7719688,6.2753029
	c-1.0390606,3.8955994-3.9682608-0.0595016-1.6699238-2.5839005C14.89258,54.6386986,18.0366192,53.4726982,18.0366192,53.4726982z"
	/>
<path style="fill:#9BC82D;" d="M43.5283012,42.9023018c0,0,1.7588005,1.3526001,2.2870979,3.6269989
	c0.527401,2.2743988,2.7206993-0.1044998,1.2666016-1.5508003C45.6269989,43.5331993,43.5283012,42.9023018,43.5283012,42.9023018z"
	/>
<g>
</g>
<g>
</g>
<g>
</g>
<g>
</g>
<g>
</g>
<g>
</g>
</svg>
