<?xml version="1.0" encoding="utf-8"?>
<!-- Generator: Adobe Illustrator 17.0.0, SVG Export Plug-In . SVG Version: 6.00 Build 0)  -->
<!DOCTYPE svg PUBLIC "-//W3C//DTD SVG 1.1//EN" "http://www.w3.org/Graphics/SVG/1.1/DTD/svg11.dtd">
<svg version="1.1" id="レイヤー_1" xmlns="http://www.w3.org/2000/svg" xmlns:xlink="http://www.w3.org/1999/xlink" x="0px"
	 y="0px" width="64px" height="64px" viewBox="0 0 64 64" style="enable-background:new 0 0 64 64;" xml:space="preserve">
<g>
	<path style="fill:#754C24;" d="M40.81987,48.3489952c-8.6705208,2.7134552-14.5840874,2.9861526-18.0563946,0.8284721
		l-5.1428585,0.889164c-2.4199438,0.4190712-4.7391615-1.2074738-5.1693983-3.6260681l-0.8908472-5.0096893
		c-0.1446686-0.8106728-0.0502405-1.6515236,0.2646513-2.425724c-0.9485941-1.0243988-1.3834238-2.4289322-1.1469345-3.8061752
		l0.8524046-4.9753132c0.1714897-1.0006161,0.6836948-1.9069653,1.4362812-2.5691719
		c-0.3160496-1.1498089-0.1742525-2.3879566,0.4114122-3.4203186l2.4556274-4.3322086
		c0.6617365-1.1664867,1.8202124-1.9801865,3.1579294-2.1786156c-0.0764713-1.6695004,0.7915287-3.3057594,2.2903786-4.1401272
		l4.2755508-2.3794241c1.0839748-0.6032267,2.3728504-0.7176905,3.5337753-0.3302279
		c0.7334652-0.9811735,1.8603649-1.6214418,3.0919781-1.7433109l4.8696022-0.4825659
		c1.7070961-0.1689386,3.3525124,0.6803141,4.2419319,2.09583c1.2144775-0.6045761,2.6284828-0.5907879,3.835701-0.0087633
		l4.4863205,2.157999c1.0695496,0.5152168,1.8905869,1.4516153,2.287056,2.5758276
		c0.9955788,0.1142569,1.9339943,0.5670624,2.6458244,1.2916718l3.5379105,3.6017876
		c0.9782486,0.9970875,1.4218254,2.3980255,1.226593,3.7795277c0.6992798,0.4568138,1.2560616,1.0947285,1.6003685,1.8437805
		l2.1243553,4.6236629c1.0248985,2.2324924,0.0462952,4.8910961-2.1804276,5.9262066l-4.7318459,2.2011375
		C54.5040131,42.4885635,49.490387,45.6355438,40.81987,48.3489952z M18.8510342,19.4711132
		c-0.6615181,0.2070236-1.2144814,0.6539421-1.5575962,1.2584038l-2.4556274,4.3322086
		c-0.4355249,0.7673092-0.4759445,1.721756-0.1088018,2.5533752l0.2915316,0.6599712l-0.6090002,0.387188
		c-0.6496305,0.4123516-1.0967531,1.0849915-1.2272615,1.8448448l-0.8524046,4.9753132
		c-0.1716118,1.0002251,0.2287254,2.0270729,1.0447578,2.6800079l0.5694628,0.456234l-0.3720417,0.6272507
		c-0.3467407,0.583271-0.4751091,1.2553177-0.3619413,1.8912621l0.8908472,5.0096931
		c0.2692032,1.5117416,1.7189837,2.5286751,3.2316322,2.2664833l5.8057842-1.0039101l0.2818584,0.1942444
		c2.9333286,2.0224419,8.6184845,1.7345123,16.8964729-0.8560944c8.2779846-2.5906105,13.1122398-5.5947456,14.368927-8.9284592
		l0.1212311-0.3203926l5.3419151-2.4847794c1.3926392-0.6470261,2.0040474-2.3090096,1.3630333-3.7043915l-2.1243515-4.6236629
		c-0.2698021-0.5877876-0.7582359-1.0676613-1.3746948-1.350359l-0.6624641-0.3034992l0.207489-0.6976643
		c0.2970581-1.0012779,0.040596-2.0731525-0.6700859-2.796833l-3.5368805-3.6012497
		c-0.5405197-0.5502834-1.2921066-0.8477859-2.0609093-0.8162365l-0.7221298,0.0298195l-0.1368294-0.7088127
		c-0.1719284-0.8922853-0.7492371-1.6534109-1.5439453-2.0365763l-4.4863205-2.157999
		c-0.9320068-0.4488001-2.0425148-0.3596792-2.9158287,0.3639183l-0.9447708,0.7833071l-0.3874397-1.1639538
		c-0.4115181-1.2354031-1.6462479-2.0397596-2.9362679-1.9124899l-4.869606,0.4825659
		c-0.9265785,0.092515-1.7470474,0.6557732-2.1797276,1.507616l-0.3891144,0.7660933l-0.756424-0.4075956
		c-0.8414898-0.4530888-1.8350925-0.4499187-2.6499119,0.0038271l-4.2755508,2.379425
		c-1.1328163,0.6309605-1.6887245,1.9956999-1.3217773,3.2450514l0.3458519,1.1778278l-1.2232723-0.1052437
		C19.5277119,19.3344669,19.175148,19.3696823,18.8510342,19.4711132z"/>
	<g>
		<g>
			
				<linearGradient id="SVGID_1_" gradientUnits="userSpaceOnUse" x1="19.9333439" y1="44.3496399" x2="24.9312439" y2="37.5524902" gradientTransform="matrix(0.9543572 -0.2986675 0.2986675 0.9543572 -8.3686752 11.0595369)">
				<stop  offset="0" style="stop-color:#FFF3E6"/>
				<stop  offset="0.3027039" style="stop-color:#FFEDD9"/>
				<stop  offset="0.8623515" style="stop-color:#FFDDB7"/>
				<stop  offset="1" style="stop-color:#FFD9AD"/>
			</linearGradient>
			<path style="fill:url(#SVGID_1_);" d="M38.8700867,41.8640976c0.2899742,1.6296158-0.8069267,3.1934166-2.4375992,3.475563
				l-19.0594769,3.2954636c-1.6306734,0.2821465-3.20152-0.8198738-3.4918718-2.449276l-0.8907518-5.008976
				c-0.2903786-1.6294861,0.8065548-3.1932983,2.4372282-3.4754448l19.0602455-3.2957039
				c1.6306725-0.2821465,3.2015152,0.8197784,3.4914894,2.4493942L38.8700867,41.8640976z"/>
			<path style="fill:#E8BF9A;" d="M37.0007248,45.8319626c-0.1501312,0.0469856-0.3047638,0.0850754-0.463604,0.1124611
				l-19.0593224,3.2955055c-1.9662952,0.3406296-3.8508673-0.9806557-4.2007093-2.9462166l-0.8908472-5.0096893
				c-0.3451872-1.9369659,0.9475193-3.8456497,2.9366407-4.1874123l19.0601006-3.2957497
				c1.9669342-0.3399696,3.8513603,0.9822197,4.2009583,2.9469986l0.8906021,5.0089073
				C39.7916107,43.5394173,38.7280273,45.2914009,37.0007248,45.8319626z M15.225852,38.3804169
				c-1.1392841,0.3565407-1.8407373,1.5127068-1.631156,2.6885376l0.8908472,5.0096893
				c0.2318726,1.3019257,1.4803171,2.1775398,2.7826605,1.9511185l19.0593224-3.2955055
				c1.3133888-0.2281609,2.1650505-1.4845619,1.9385643-2.7624207l-0.890995-5.0087852
				c-0.2318726-1.3019257-1.4799271-2.1776619-2.7825127-1.9520226L15.5324783,38.306778
				C15.4274483,38.3250542,15.3251581,38.3493385,15.225852,38.3804169z"/>
		</g>
		<g>
			
				<linearGradient id="SVGID_2_" gradientUnits="userSpaceOnUse" x1="22.600771" y1="35.5063744" x2="26.2802429" y2="31.2136574" gradientTransform="matrix(0.9543572 -0.2986675 0.2986675 0.9543572 -8.3686752 11.0595369)">
				<stop  offset="0" style="stop-color:#FFF3E6"/>
				<stop  offset="0.3027039" style="stop-color:#FFEDD9"/>
				<stop  offset="0.8623515" style="stop-color:#FFDDB7"/>
				<stop  offset="1" style="stop-color:#FFD9AD"/>
			</linearGradient>
			<path style="fill:url(#SVGID_2_);" d="M37.1319046,40.1317749c-0.2795219,1.6313057-1.8384857,2.7167435-3.4650421,2.4118156
				l-19.1081619-3.5797386c-1.6265297-0.3049393-2.7283697-1.8887215-2.4487314-3.5195045l0.8524094-4.9751129
				c0.2796373-1.6307869,1.8390255-2.7163601,3.4658699-2.4119854l19.1071129,3.5777512
				c1.6265564,0.3049278,2.7287216,1.8886089,2.449707,3.5197544L37.1319046,40.1317749z"/>
			<path style="fill:#E8BF9A;" d="M35.2794876,43.0464401c-0.5543976,0.1734962-1.1513214,0.2083473-1.7261658,0.099781
				l-19.1077499-3.5789604c-1.9582777-0.3675842-3.2774286-2.2633133-2.9405909-4.2265625l0.8524046-4.9753151
				c0.2279787-1.3303661,1.1705284-2.4074497,2.4591618-2.81073c0.5540028-0.1733761,1.1501465-0.2079811,1.7246227-0.1005898
				l19.1071377,3.5770054c1.9586716,0.3674622,3.2784576,2.2638531,2.9416199,4.2271023l-0.8532104,4.9768524
				C37.5088615,41.5657806,36.567337,42.6434021,35.2794876,43.0464401z M15.1832438,28.726387
				c-0.846839,0.2650204-1.4658985,0.97258-1.6156168,1.8466187l-0.8524046,4.9753151
				c-0.2242985,1.3064613,0.6533251,2.5676994,1.9560575,2.8116264l19.108387,3.5796204
				c0.3836212,0.0722542,0.7647095,0.0500031,1.1329994-0.0652542c0.8460579-0.2647743,1.4644585-0.9716988,1.6140556-1.8461266
				l0.8532066-4.9768562c0.2236633-1.3071213-0.6545944-2.5690193-1.9573288-2.8129463L16.315218,28.6605968
				C15.9322329,28.5890026,15.5515366,28.6111298,15.1832438,28.726387z"/>
		</g>
		<g>
			<g>
				
					<linearGradient id="SVGID_3_" gradientUnits="userSpaceOnUse" x1="25.0476551" y1="30.0631084" x2="32.9072342" y2="24.7889137" gradientTransform="matrix(0.9543572 -0.2986675 0.2986675 0.9543572 -8.3686752 11.0595369)">
					<stop  offset="0" style="stop-color:#FFF3E6"/>
					<stop  offset="0.3027039" style="stop-color:#FFEDD9"/>
					<stop  offset="0.8623515" style="stop-color:#FFDDB7"/>
					<stop  offset="1" style="stop-color:#FFD9AD"/>
				</linearGradient>
				<path style="fill:url(#SVGID_3_);" d="M36.6843452,38.0000877c-0.8161201,1.4397736-2.6488838,1.9282227-4.0728111,1.0845222
					l-16.8648949-9.9837704c-1.4236622-0.8428574-1.921155-2.710434-1.1048765-4.1496983l2.4560184-4.332468
					c0.8162766-1.4392643,2.6491737-1.9272938,4.0732574-1.084568l16.863945,9.982214
					c1.4247704,0.8434353,1.9221306,2.7105904,1.1059837,4.15028L36.6843452,38.0000877z"/>
				<path style="fill:#E8BF9A;" d="M35.1812897,39.9495811c-0.9625664,0.3012352-2.0135803,0.1785698-2.8826866-0.3367043
					l-16.8649807-9.9835587c-1.7134972-1.0146732-2.3084478-3.2490807-1.32582-4.981308l2.4560194-4.3323326
					c0.4481258-0.7901402,1.1714172-1.3744984,2.0366306-1.6452694c0.9629574-0.3013573,2.0138474-0.1790829,2.8831005,0.3352871
					l16.8647366,9.9827766c1.7133751,1.0142841,2.3085938,3.2481766,1.32687,4.9805527l-2.4569473,4.333477
					C36.7699394,39.0935478,36.0468941,39.678688,35.1812897,39.9495811z M18.9671497,19.8421421
					c-0.566906,0.1774139-1.0410786,0.5606136-1.3354492,1.079422l-2.4560194,4.3323307
					c-0.6545076,1.153923-0.2580366,2.6430054,0.8835783,3.3185349l16.8652248,9.9843407
					c1.082653,0.6407547,2.6045303,0.2365952,3.2257042-0.8592491l2.4565544-4.3333549
					c0.6543846-1.1543159,0.2579155-2.6433983-0.8843346-3.3195877l-16.8641014-9.9821167
					C20.2876949,19.7246361,19.5985641,19.6445408,18.9671497,19.8421421z"/>
			</g>
		</g>
		<g>
			
				<linearGradient id="SVGID_4_" gradientUnits="userSpaceOnUse" x1="25.4244881" y1="24.8474026" x2="40.1034813" y2="24.8474026" gradientTransform="matrix(0.9543572 -0.2986675 0.2986675 0.9543572 -8.3686752 11.0595369)">
				<stop  offset="0" style="stop-color:#FFF3E6"/>
				<stop  offset="0.3027039" style="stop-color:#FFEDD9"/>
				<stop  offset="0.8623515" style="stop-color:#FFDDB7"/>
				<stop  offset="1" style="stop-color:#FFD9AD"/>
			</linearGradient>
			<path style="fill:url(#SVGID_4_);" d="M30.3369293,13.6496372c-0.7943478-1.4518356-2.6269646-1.9811831-4.0728626-1.1764555
				l-4.275116,2.3792076c-1.4458981,0.8047276-1.9789982,2.6511278-1.1850739,4.103097l9.500679,17.3705978
				c0.7938976,1.4518814,2.6261654,1.9804115,4.0720654,1.1756859l4.2761459-2.3803635
				c1.4458961-0.8047295,1.9789963-2.6511307,1.18507-4.1030979L30.3369293,13.6496372z"/>
			<path style="fill:#E8BF9A;" d="M33.9984245,38.3288536c-1.6319046,0.5107079-3.4120235-0.207962-4.2321186-1.7078438
				L20.26548,19.2503872c-0.9573479-1.7505417-0.3180122-3.963851,1.4246063-4.9341736l4.2755508-2.379425
				c0.214962-0.1196423,0.4423485-0.2174177,0.6753654-0.2903404c1.6326866-0.510952,3.4135857,0.2074738,4.2348309,1.7082834
				l9.5006046,17.3685417c0.9573479,1.7505417,0.3184052,3.9637299-1.4251442,4.9351997l-4.2763329,2.379673
				C34.4599991,38.1577873,34.2318306,38.255806,33.9984245,38.3288536z M27.0076981,12.818182
				c-0.1532593,0.0479631-0.3030663,0.1124449-0.445364,0.1913185l-4.2751598,2.379302
				c-1.1555901,0.6432371-1.5795593,2.1113482-0.944849,3.2726088l9.5007038,17.3702316
				c0.6179314,1.1295929,2.0968971,1.5690536,3.2346001,0.9331322l4.2767258-2.3797913
				c1.1559792-0.6433601,1.5798264-2.1118622,0.9445763-3.2720985l-9.5002117-17.3686638
				C29.2573624,12.9550667,28.0836449,12.4814625,27.0076981,12.818182z"/>
		</g>
		<g>
			
				<linearGradient id="SVGID_5_" gradientUnits="userSpaceOnUse" x1="32.9633598" y1="22.6399136" x2="43.0421028" y2="26.4194336" gradientTransform="matrix(0.9543572 -0.2986675 0.2986675 0.9543572 -8.3686752 11.0595369)">
				<stop  offset="0" style="stop-color:#FFF3E6"/>
				<stop  offset="0.3027039" style="stop-color:#FFEDD9"/>
				<stop  offset="0.8623515" style="stop-color:#FFDDB7"/>
				<stop  offset="1" style="stop-color:#FFD9AD"/>
			</linearGradient>
			<path style="fill:url(#SVGID_5_);" d="M29.6508026,13.8643618c-0.1751022-1.6456299,1.0292244-3.1253929,2.6758347-3.2884712
				l4.8696632-0.4826641c1.6466103-0.1630783,3.1372681,1.0499849,3.312706,2.695509l2.0976067,19.6874008
				c0.1753273,1.6454659-1.028492,3.1250725-2.6754494,3.2873306l-4.8718452,0.4825134
				c-1.6469307,0.1623421-3.1372662-1.0499878-3.3122826-2.6956406L29.6508026,13.8643618z"/>
			<path style="fill:#E8BF9A;" d="M40.7140961,36.2271729c-0.233799,0.0731659-0.4775276,0.1228294-0.7233734,0.1465378
				l-4.870533,0.4837151c-1.9857597,0.1947632-3.7726326-1.2601204-3.9835224-3.2425499l-2.0960426-19.6858139
				c-0.1816196-1.7009821,0.8720074-3.3064756,2.504694-3.8174276c0.233799-0.0731678,0.4759674-0.1223402,0.7207832-0.1465864
				l4.869606-0.4825659c1.9844894-0.1960812,3.7718964,1.2577753,3.9839363,3.2411337l2.09795,19.6877899
				C43.3979187,34.1123657,42.3452225,35.7167091,40.7140961,36.2271729z M31.912014,11.2833691
				c-1.0759468,0.3367195-1.7702789,1.3949318-1.6508999,2.5157156l2.0961628,19.686203
				c0.1402817,1.315136,1.3250275,2.2793655,2.6424179,2.1503983l4.870533-0.4837112
				c1.3014069-0.1265411,2.262722-1.3288345,2.1259727-2.610733l-2.0977058-19.6870117
				c-0.1405258-1.315917-1.3257828-2.2804165-2.64151-2.1502523l-4.869606,0.4825649
				C32.2258949,11.2027388,32.0660553,11.2351618,31.912014,11.2833691z"/>
		</g>
		<g>
			<g>
				
					<linearGradient id="SVGID_6_" gradientUnits="userSpaceOnUse" x1="41.0708084" y1="25.7578259" x2="48.0460815" y2="32.2830696" gradientTransform="matrix(0.9543572 -0.2986675 0.2986675 0.9543572 -8.3686752 11.0595369)">
					<stop  offset="0" style="stop-color:#FFF3E6"/>
					<stop  offset="0.3027039" style="stop-color:#FFEDD9"/>
					<stop  offset="0.8623515" style="stop-color:#FFDDB7"/>
					<stop  offset="1" style="stop-color:#FFD9AD"/>
				</linearGradient>
				<path style="fill:url(#SVGID_6_);" d="M38.3163528,37.4893494c1.4912949,0.7176628,3.2747765,0.0744057,3.9644585-1.4307518
					l8.1634789-17.8164406c0.6899452-1.5043125,0.0332718-3.3220739-1.4571495-4.039917l-4.4874878-2.1585588
					c-1.4904213-0.717844-3.2745323-0.073926-3.9645615,1.4304142l-8.1639252,17.814724
					c-0.688921,1.504921-0.0331383,3.3224983,1.4577065,4.0402069L38.3163528,37.4893494z"/>
				<path style="fill:#E8BF9A;" d="M40.662281,38.2342949c0,0,0,0-0.000782,0.0002441
					c-0.8648224,0.270649-1.7928352,0.2022133-2.6116943-0.1922836l-4.4870529-2.1603432
					c-1.7939129-0.8628769-2.5789967-3.0382118-1.7495098-4.8482876l8.1639271-17.8155346
					c0.4217262-0.9183846,1.2150383-1.6178045,2.1776009-1.9190407c0.8656082-0.2708921,1.7925949-0.2029915,2.611454,0.1915035
					l4.4872246,2.158145c1.7945213,0.8648319,2.5790939,3.039897,1.7493591,4.8491907l-8.1640701,17.8164387
					C42.4180374,37.2332497,41.6240654,37.9333038,40.662281,38.2342949z M42.5214691,12.4707832
					c-0.6310272,0.1974802-1.1519432,0.6562624-1.4277802,1.2589855l-8.1641693,17.8147526
					c-0.5526009,1.2065964-0.0298462,2.6561584,1.1654434,3.2316132l4.4878349,2.160099
					c1.1358414,0.5459824,2.6160698,0.0114861,3.1396637-1.1328049l8.163826-17.8172188
					c0.55336-1.2055435,0.0302124-2.6549845-1.1657104-3.2310991l-4.4872246-2.1581459
					C43.6963997,12.3378916,43.0883713,12.2933702,42.5214691,12.4707832z"/>
			</g>
		</g>
		<g>
			
				<linearGradient id="SVGID_7_" gradientUnits="userSpaceOnUse" x1="45.7879333" y1="27.8357964" x2="47.4502487" y2="35.3162193" gradientTransform="matrix(0.9543572 -0.2986675 0.2986675 0.9543572 -8.3686752 11.0595369)">
				<stop  offset="0" style="stop-color:#FFF3E6"/>
				<stop  offset="0.3027039" style="stop-color:#FFEDD9"/>
				<stop  offset="0.8623515" style="stop-color:#FFDDB7"/>
				<stop  offset="1" style="stop-color:#FFD9AD"/>
			</linearGradient>
			<path style="fill:url(#SVGID_7_);" d="M39.1642761,39.495739c1.1591911,1.1810608,3.0596504,1.1838684,4.2221909,0.0060883
				L57.044548,25.667841c1.1624565-1.1777534,1.1652679-3.1072388,0.006321-4.287817l-3.5373154-3.6013412
				c-1.1590309-1.1805515-3.059494-1.1833591-4.222168-0.0060024L35.6330681,31.6044235
				c-1.1628799,1.177887-1.1656914,3.1073685-0.0061607,4.2883224L39.1642761,39.495739z"/>
			<path style="fill:#E8BF9A;" d="M42.3482056,40.8342705L42.3482056,40.8342705
				c-1.2886353,0.4032822-2.6768951,0.0547714-3.6223373-0.908802l-3.5369797-3.6029358
				c-1.3959389-1.4209785-1.393074-3.7312927,0.0070686-5.1498985l13.6584091-13.8310356
				c0.4107666-0.4157238,0.9202843-0.7271366,1.474678-0.9006348c1.2886314-0.4032803,2.676651-0.0555496,3.6227493,0.9073868
				L57.4888,20.9499912c1.395153,1.4212208,1.392437,3.7306309-0.0069237,5.1489944L43.8235397,39.9330025
				C43.412899,40.3491173,42.9025993,40.6607742,42.3482056,40.8342705z M50.6957397,17.6126976
				c-0.3682938,0.1152592-0.6940765,0.3142262-0.9671402,0.5911312L36.0696564,32.0358887
				c-0.9316559,0.9431801-0.9338608,2.4806213-0.0045547,3.4269218l3.5369797,3.6029358
				c0.6213951,0.6331482,1.5332489,0.8611755,2.3793068,0.5964012c0.3682899-0.1152573,0.6940765-0.3142242,0.9679184-0.5913773
				l13.6580887-13.834795c0.9316559-0.9431801,0.9341049-2.4798393,0.0054359-3.4254799l-3.5370064-3.6016407
				C52.4545517,17.5760994,51.5425797,17.3476791,50.6957397,17.6126976z"/>
		</g>
		<g>
			
				<linearGradient id="SVGID_8_" gradientUnits="userSpaceOnUse" x1="47.4621124" y1="36.1164322" x2="48.893486" y2="45.034935" gradientTransform="matrix(0.9543572 -0.2986675 0.2986675 0.9543572 -8.3686752 11.0595369)">
				<stop  offset="0" style="stop-color:#FFF3E6"/>
				<stop  offset="0.3027039" style="stop-color:#FFEDD9"/>
				<stop  offset="0.8623515" style="stop-color:#FFDDB7"/>
				<stop  offset="1" style="stop-color:#FFD9AD"/>
			</linearGradient>
			<path style="fill:url(#SVGID_8_);" d="M38.72332,41.9100304c0.6907539,1.5041885,2.48386,2.163559,3.9840355,1.4659004
				l17.5386963-8.1579895c1.5010223-0.6979218,2.1633339-2.4988098,1.4726028-4.0029163l-2.1239891-4.6230316
				c-0.6908379-1.5041618-2.4835243-2.1636639-3.9845428-1.4657421L38.0715103,33.284214
				c-1.5005989,0.6977921-2.1630211,2.4986229-1.4722633,4.0028114L38.72332,41.9100304z"/>
			<path style="fill:#E8BF9A;" d="M42.5208168,44.1044426c-1.7273026,0.5405617-3.5995026-0.2926636-4.3552361-1.9380302
				l-2.1241112-4.6228828c-0.8328362-1.8135452-0.0379486-3.9742317,1.7710953-4.8159599l17.5381165-8.1577168
				c1.8367996-0.8572845,3.9805641-0.0231934,4.8014145,1.7657738l2.1243553,4.6236629
				c0.8330803,1.8143311,0.0383415,3.9741096-1.7717323,4.8153l-17.5381126,8.1577187
				C42.8197098,44.0006027,42.670948,44.057457,42.5208168,44.1044426z M56.163044,25.5690613
				c-0.099308,0.0310783-0.1971931,0.0694389-0.2939034,0.1142979L38.331028,33.8410759
				c-1.1992226,0.5573044-1.7257767,1.9884109-1.1740913,3.1902504l2.1241074,4.622879
				c0.542244,1.1798973,1.9597664,1.7261543,3.167099,1.1645966l17.5388985-8.1579628
				c1.1994667-0.5565224,1.7252388-1.987381,1.1739464-3.1893444l-2.1243553-4.6236629
				C58.5381241,25.7624207,57.3023262,25.2125206,56.163044,25.5690613z"/>
		</g>
		<g>
			
				<linearGradient id="SVGID_9_" gradientUnits="userSpaceOnUse" x1="35.8056831" y1="35.3031998" x2="35.8056831" y2="53.1551857" gradientTransform="matrix(0.9543572 -0.2986675 0.2986675 0.9543572 -8.3686752 11.0595369)">
				<stop  offset="0" style="stop-color:#FFF3E6"/>
				<stop  offset="0.3027039" style="stop-color:#FFEDD9"/>
				<stop  offset="0.8623515" style="stop-color:#FFDDB7"/>
				<stop  offset="1" style="stop-color:#FFD9AD"/>
			</linearGradient>
			<path style="fill:url(#SVGID_9_);" d="M44.3577805,19.1751556c-5.0780296-2.3493519-9.8630829-2.452673-13.1139011-1.4253826
				c-3.2573948,1.0094662-7.1289635,3.821888-9.962204,8.6470852c-5.556139,9.4633293-1.8307514,18.4219208,1.7695694,21.1950302
				c3.6913757,2.8501129,11.3380871,1.2190933,17.3267651-0.6550713c5.9895859-1.8744507,13.2005234-4.8931541,14.6089363-9.3392563
				C56.3615341,33.2675476,54.3174477,23.7827892,44.3577805,19.1751556z"/>
			<path style="fill:#E8BF9A;" d="M40.5692863,47.5482903c-8.9164391,2.7904167-14.7749081,2.9703217-17.9093857,0.550663
				c-3.5683022-2.7483482-7.7985992-12.0314865-1.9305286-22.0264225c2.607275-4.4401913,6.3591595-7.6932564,10.2930908-8.9243851
				c3.9949207-1.2502174,8.9311466-0.7161121,13.6041088,1.4457207
				c10.5157776,4.8658695,12.3334045,14.9040546,10.9701195,19.1974697
				C54.401577,41.5659447,49.4853363,44.7580032,40.5692863,47.5482903z M31.4651508,18.3514709
				c-3.6410942,1.1394863-7.2190056,4.2612686-9.6313705,8.3696003c-5.4639435,9.3069935-1.648819,17.8546696,1.6081333,20.3639164
				c2.7408886,2.1152916,8.3743935,1.8598366,16.744648-0.7596474s13.1443443-5.6211014,14.189209-8.9211502
				c1.2454453-3.9182816-0.4951477-13.1177597-10.2868614-17.6478958
				C39.7652702,17.7560062,35.0464287,17.2307053,31.4651508,18.3514709z"/>
		</g>
	</g>
	<linearGradient id="SVGID_10_" gradientUnits="userSpaceOnUse" x1="40.2295799" y1="47.7064056" x2="30.2483559" y2="10.4559717">
		<stop  offset="0.2433628" style="stop-color:#0071BC;stop-opacity:0"/>
		<stop  offset="1" style="stop-color:#0071BC"/>
	</linearGradient>
	<path style="fill:url(#SVGID_10_);" d="M62.2764282,30.9592896l-2.1243286-4.6236572
		c-0.3723755-0.8115234-1.0235596-1.4125366-1.788208-1.7623291c0.3685303-1.2421875,0.0878906-2.642395-0.8751221-3.6233521
		l-3.5369873-3.6016235c-0.7211914-0.7340698-1.6992798-1.107666-2.6942749-1.0665283
		c-0.2140503-1.1087036-0.9204712-2.1109009-2.0040894-2.6331177l-4.4871826-2.1581421
		c-0.8188477-0.3944702-1.7458496-0.4624023-2.6114502-0.1915283c-0.4464111,0.1397095-0.850647,0.3726196-1.2040405,0.6657104
		c-0.526062-1.5801392-2.0946045-2.6522827-3.8150635-2.4822388l-4.8695679,0.4825439
		c-0.244812,0.024231-0.4869995,0.0734253-0.7208252,0.1466064c-0.9511108,0.2976685-1.6957397,0.97229-2.1240845,1.8153687
		c-0.8327026-0.4484253-1.8290405-0.5782471-2.7802124-0.2805786c-0.2330322,0.072937-0.4603882,0.1707153-0.675354,0.2903442
		l-4.2755737,2.3794556c-1.5108643,0.8412476-2.1881714,2.616333-1.71875,4.2146606
		c-0.4580688-0.0396118-0.9237061-0.0004272-1.3708496,0.1395264c-0.8652344,0.270752-1.588501,0.8551025-2.0366211,1.6452637
		l-2.4560547,4.3323364c-0.5935669,1.0463867-0.6029053,2.2727661-0.1463623,3.3060913
		c-0.840271,0.5335083-1.4303589,1.3977051-1.6040649,2.4112549l-0.852356,4.9753418
		c-0.232605,1.3557129,0.3356934,2.666687,1.3475952,3.4770508c-0.4292603,0.7232056-0.6228638,1.5879517-0.4663696,2.4662476
		l0.8908691,5.0097046c0.3498535,1.9655762,2.234375,3.2868652,4.2006836,2.946228l5.4683228-0.9454956
		c3.1969604,2.2041016,8.9641113,1.9636841,17.6231689-0.7461548c8.6586914-2.7097168,13.5342407-5.8000488,14.9037476-9.4332275
		l5.0316772-2.3404541C62.3148193,34.9334106,63.1095581,32.7736206,62.2764282,30.9592896z"/>
</g>
<g>
	<g>
		<path style="fill:#3F0309;" d="M48.3918037,42.9099731c-0.9161148,2.4132042-4.1659317,3.8930397-9.6241837,4.8579674
			c-5.459137,0.9611053-8.2179623,0.7437897-10.1415443-1.370739c-1.68186-4.0223274,0.1316433-5.6822319,6.8122292-6.8625145
			C42.7430954,38.2461891,47.295723,37.9484978,48.3918037,42.9099731z"/>
		<path style="fill:#78211C;" d="M33.7583694,48.9338722c-2.5323925,0-4.2568703-0.6537971-5.590313-2.1203003l-0.1134338-0.1770897
			c-0.7691479-1.8398247-0.8409405-3.2211304-0.2263889-4.3458939c0.8758793-1.6043434,3.0497837-2.5788193,7.5019321-3.3656731
			c2.4055557-0.4240608,4.9135399-0.8165321,6.9620438-0.8165321c3.923748,0,5.9913979,1.4396973,6.7045479,4.6675301
			l0.0392456,0.1809196l-0.065094,0.1732597c-0.974472,2.5673332-4.0883942,4.1860352-10.095108,5.2476196
			C36.7210426,48.7567825,35.0946846,48.9338722,33.7583694,48.9338722z M29.1559334,46.0583076
			c1.0826435,1.1458206,2.4668217,1.6368904,4.6024361,1.6368904c1.2626038,0,2.8200455-0.1703911,4.9020538-0.5370178
			c5.3050537-0.9380989,8.2016754-2.3069611,9.0832977-4.2999458c-0.6135941-2.4907494-2.2083626-3.5121307-5.4515114-3.5121307
			c-1.9537354,0-4.3966255,0.3838539-6.746666,0.7983437c-3.929491,0.6940002-5.9751225,1.5392494-6.6303577,2.7396355
			C28.504528,43.6355209,28.5811081,44.6454124,29.1559334,46.0583076z"/>
	</g>
	
		<rect x="18.9551888" y="32.0316963" transform="matrix(0.9497438 0.3130282 -0.3130282 0.9497438 11.5538149 -5.9400425)" style="fill:#0C0101;" width="10.6418953" height="1.9612546"/>
	
		<rect x="23.0755043" y="27.3354759" transform="matrix(0.9016297 0.4325089 -0.4325089 0.9016297 16.4773579 -7.1950059)" style="fill:#0C0101;" width="1.9609294" height="10.5807247"/>
	
		<rect x="36.2315788" y="27.0081997" transform="matrix(0.9729468 0.2310292 -0.2310292 0.9729468 7.5845394 -8.7931738)" style="fill:#0C0101;" width="10.2134705" height="1.9610041"/>
	
		<rect x="40.0811081" y="22.0226212" transform="matrix(0.8971439 0.4417384 -0.4417384 0.8971439 16.3082581 -15.3246422)" style="fill:#0C0101;" width="1.9611312" height="10.6695557"/>
	<g>
		<path style="fill:#9BC82D;" d="M40.7338409,46.9676895c0,0,0.1723213,4.169754,0.7733917,5.9243469
			c0.5983276,1.7556725,1.6149139,6.3341789-0.93993,4.4368629c-2.5549431-1.9010353-1.1123543-6.7255745-1.1123543-6.7255745
			L40.7338409,46.9676895z"/>
		<path style="fill:#9BC82D;" d="M28.7500725,51.6811714c0,0-3.8539276,1.6655884-8.1586571,0.506382
			c-4.3065929-1.1621475-2.2543087,4.5325356,1.4823856,3.4441948
			C25.8108864,54.5423355,28.7500725,51.6811714,28.7500725,51.6811714z"/>
		<path style="fill:#89AE17;" d="M43.3768044,45.3614044c0,0-3.4221382-2.8688049-5.0552826-1.4425888
			c0,0-2.6697235,0.5523529-5.173893,1.8551636c-2.5041637,1.3047714-8.9669456,7.9298744-9.2862034,10.6120491
			c-0.3202362,2.6841354,2.9147797,0.6174393,2.9147797,0.6174393s-0.6647835,0.5867615-1.5038509,1.5842323
			c0.0076447-0.0421524,0.0119591-0.0679321,0.0119591-0.0679321s-0.0291138,0.0583267-0.0822411,0.1521301
			c-0.5500011,0.6614532-1.1636181,1.4875832-1.7153835,2.4438858c-0.942482,1.1046066-2.2491131,2.3289986-3.9103889,3.1636581
			c-3.3029461,1.6617661-0.2450542,4.3717728,2.0125866,2.7262802c-0.5724487,3.3857727-0.7227154,6.8241882-0.7227154,6.8241882
			l9.456665,2.0006256c0,0-0.0742035-5.5108871,0.2469158-9.1847458c0.5648022,0.8720016,1.4483719,1.2089996,2.2792053-0.0277405
			c1.2300797-1.8379135,0.4738388-5.0686188,0.3360214-7.7565765c0.5542145-1.1324463,1.1047058-2.2217636,1.5354156-3.0919037
			c0.1397781,0.5666656,0.419239,0.9026833,0.9380684,0.7542763c1.5315933-0.4441376,1.8436928-3.8222656,2.3098869-6.6719589
			C39.9019279,46.7762527,43.3768044,45.3614044,43.3768044,45.3614044z"/>
		<path style="fill:#9BC82D;" d="M42.6147842,45.2820091c0,0-2.6190491-0.7313423-4.3917732,0.5895996
			c0,0-2.9636955,0.4394341-5.7157593,1.6110878c-2.7530422,1.1716576-9.7457294,7.3334122-10.0118599,9.9064865
			c-0.2661285,2.5740585,3.2776585,0.6931152,3.2776585,0.6931152s-0.7227173,0.5417671-1.6268711,1.4741516
			c0.0066662-0.0401878,0.0105877-0.0642052,0.0105877-0.0642052s-0.0297012,0.0545998-0.0856724,0.1427193
			c-0.5906792,0.6183243-1.2497787,1.3946571-1.8332062,2.29636c-1.015604,1.0319748-2.432806,2.1662865-4.2602272,2.9138985
			c-3.6331835,1.4875793-0.12537,4.2032776,2.3414497,2.696579c-0.5245171,3.2411957-0.5757809,6.5484543-0.5757809,6.5484543
			l10.6288109,2.2476425c0,0-0.267601-5.3108292-0.0335236-8.8392258c0.6599808,0.8576965,1.6564713,1.2147903,2.5410213,0.0497971
			c1.3142776-1.7258682,0.3569946-4.864727,0.1119423-7.4588776c0.5800934-1.0730476,1.1601868-2.1002197,1.6139297-2.9262505
			c0.1723213,0.5513725,0.497757,0.8844528,1.0711823,0.7581024c1.6971512-0.3742485,1.928875-3.6183815,2.3509598-6.3465271
			C40.0867004,48.6782722,42.6147842,45.2820091,42.6147842,45.2820091z"/>
		<path style="fill:#9BC82D;" d="M17.8532715,59.5124359c0,0-3.1033745,1.7277374-4.8906088,5.2514267
			c-1.7861547,3.5245743-3.7925663-0.861515-1.0778484-2.8152847
			C14.6010017,59.9919624,17.8532715,59.5124359,17.8532715,59.5124359z"/>
		<path style="fill:#9BC82D;" d="M44.4422073,54.5433159c0,0,1.4128876,1.652256,1.4588585,3.9419518
			c0.044014,2.28685,2.6295357,0.4508972,1.527771-1.2300797C46.3279533,55.5733299,44.4422073,54.5433159,44.4422073,54.5433159z"
			/>
	</g>
</g>
<g>
</g>
<g>
</g>
<g>
</g>
<g>
</g>
<g>
</g>
<g>
</g>
</svg>
