<?xml version="1.0" encoding="utf-8"?>
<!-- Generator: Adobe Illustrator 17.0.0, SVG Export Plug-In . SVG Version: 6.00 Build 0)  -->
<!DOCTYPE svg PUBLIC "-//W3C//DTD SVG 1.1//EN" "http://www.w3.org/Graphics/SVG/1.1/DTD/svg11.dtd">
<svg version="1.1" id="レイヤー_1" xmlns="http://www.w3.org/2000/svg" xmlns:xlink="http://www.w3.org/1999/xlink" x="0px"
	 y="0px" width="64px" height="64px" viewBox="0 0 64 64" style="enable-background:new 0 0 64 64;" xml:space="preserve">
<g>
	<g>
		<path style="fill:#331C03;" d="M57.4794197,25.6279392c0.286953-1.1083069,0.3324623-2.2901001,0.1354828-3.5223236
			c-0.5242577-3.2795162-3.0089912-5.7775631-7.2009964-7.2532225c0.0641136-0.5667248,0.0475693-1.1541023-0.0483971-1.7544355
			C48.9736023,4.3908081,35.0001144,1.4576471,34.4057693,1.3367772L33.277153,1.1079297l0.1817856,1.1371708
			c0.6144409,3.8436756-2.4081764,5.7725177-5.6080608,7.8145499c-2.9881973,1.9071589-6.0781822,3.8787374-5.4967136,7.5161438
			c0.1600704,1.0013275,0.5133209,1.8853397,1.053936,2.6403408c-3.9389782,2.1069031-5.6652489,4.8546391-5.1339188,8.1784096
			c0.2290936,1.4331055,0.7475185,2.6936646,1.5441513,3.7589893c-2.8292141,2.2992973-4.009531,5.0454025-3.5093899,8.1740646
			c1.9370804,12.1175079,19.5845852,9.2964096,25.3839626,8.3693352c5.7993813-0.9270782,23.446888-3.7481728,21.5098038-15.8656807
			C62.7108116,29.754158,60.7863045,27.3338928,57.4794197,25.6279392z"/>
		<path style="fill:#3E3A39;" d="M41.7559013,49.0909996c-5.89674,0.9426384-23.8409481,3.8111649-25.8410225-8.7004051
			c-0.5062933-3.1671486,0.6253901-5.9607277,3.3639307-8.3063087c-0.7112656-1.0497665-1.1814098-2.2675285-1.3986912-3.6267452
			c-0.5428352-3.3957348,1.124382-6.2141476,4.9564514-8.3824978c-0.4381504-0.7188911-0.7325783-1.5361366-0.8764687-2.4362526
			c-0.6227474-3.895628,2.7228718-6.0308132,5.6749096-7.9148254c3.2217579-2.0557904,6.002964-3.8307996,5.429863-7.4158697
			l-0.2726479-1.7055638l1.6927032,0.3431097c0.6053505,0.1230571,14.840477,3.117795,16.2746468,12.0893221
			c0.0839119,0.5249071,0.1100044,1.0436649,0.078289,1.5464058c4.1587753,1.539382,6.6360817,4.1143923,7.1711044,7.4612532
			c0.1873817,1.1721897,0.1634598,2.3063297-0.0695496,3.3768082c3.2561684,1.7590504,5.1588135,4.2301731,5.6573563,7.3488312
			C65.5968475,45.2798309,47.652256,48.1484184,41.7559013,49.0909996z M33.7620811,1.6133281l0.0909233,0.5687779
			c0.6557808,4.1022811-2.6197033,6.1923132-5.7873497,8.2137995c-3.012907,1.9229488-5.8574924,3.7384777-5.3174248,7.1168947
			c0.1497345,0.9366741,0.4807205,1.7678108,0.9842606,2.471117l0.2647209,0.3697109l-0.4010277,0.2144756
			c-3.7710304,2.0169086-5.4290009,4.6290112-4.9279366,7.7634468c0.2182655,1.3653755,0.712841,2.5705471,1.4698429,3.5830078
			l0.2293873,0.3066902L20.06987,32.4629974c-2.7093964,2.2019997-3.8423958,4.8268738-3.3668613,7.8016052
			c1.8740864,11.7234421,19.2252712,8.9497147,24.9269047,8.0382652c5.7016296-0.9114532,23.0528183-3.6851768,21.17873-15.4086189
			c-0.4702415-2.941637-2.3251572-5.2672577-5.5125084-6.911808l-0.2829933-0.1457787l0.0800858-0.3087997
			c0.2728767-1.0531712,0.315609-2.1832142,0.1276093-3.3592529c-0.4983559-3.1175022-2.897892-5.5170841-6.9393578-6.9398499
			l-0.299469-0.1056519l0.0355988-0.3155012c0.0592461-0.528059,0.0440826-1.0821104-0.0461655-1.6466551
			C48.6235847,4.7293406,34.9095078,1.8462728,34.3262253,1.7279751L33.7620811,1.6133281z"/>
	</g>
	<g>
		
			<linearGradient id="SVGID_1_" gradientUnits="userSpaceOnUse" x1="38.0234146" y1="48.0675812" x2="38.0234146" y2="24.4419861" gradientTransform="matrix(0.9874625 -0.1578538 0.1578538 0.9874625 -3.5674286 6.4460096)">
			<stop  offset="0" style="stop-color:#926134"/>
			<stop  offset="1" style="stop-color:#C59D62"/>
		</linearGradient>
		<path style="fill:url(#SVGID_1_);" d="M37.9447327,25.2500496c-0.3149719-1.9703255,22.6587563-3.6221828,24.4698448,7.7071915
			c1.8110924,11.3293762-15.182972,14.0460167-20.8476601,14.951561s-22.6587524,3.6221848-24.4698429-7.7071915
			C15.2859821,28.8722324,38.2597084,27.2203751,37.9447327,25.2500496z"/>
		
			<linearGradient id="SVGID_2_" gradientUnits="userSpaceOnUse" x1="38.0234146" y1="34.6821556" x2="38.0234146" y2="14.6894083" gradientTransform="matrix(0.9874625 -0.1578538 0.1578538 0.9874625 -3.5674286 6.4460096)">
			<stop  offset="0" style="stop-color:#926134"/>
			<stop  offset="1" style="stop-color:#C59D62"/>
		</linearGradient>
		<path style="fill:url(#SVGID_2_);" d="M36.4354897,15.8089027c-0.3805885-2.3808107,18.8822975-3.018486,20.3915405,6.4226608
			S44.1745529,33.936573,39.4539795,34.6911964c-4.7205772,0.7546196-18.8822956,3.018486-20.3915386-6.4226608
			S36.816082,18.1897125,36.4354897,15.8089027z"/>
		
			<linearGradient id="SVGID_3_" gradientUnits="userSpaceOnUse" x1="38.0234146" y1="21.7747803" x2="38.0234146" y2="1.6966422" gradientTransform="matrix(0.9874625 -0.1578538 0.1578538 0.9874625 -3.5674286 6.4460096)">
			<stop  offset="0" style="stop-color:#926134"/>
			<stop  offset="1" style="stop-color:#C59D62"/>
		</linearGradient>
		<path style="fill:url(#SVGID_3_);" d="M34.2470894,2.1192396c0,0,14.0099564,2.8436615,15.3305473,11.1046648
			c1.056469,6.6088037-8.8567352,8.1935091-12.1611366,8.7217436s-13.2176056,2.1129398-14.2740765-4.495863
			S35.5676765,10.3802433,34.2470894,2.1192396z"/>
		
			<linearGradient id="SVGID_4_" gradientUnits="userSpaceOnUse" x1="34.0881538" y1="14.8950043" x2="34.0881538" y2="2.1746933" gradientTransform="matrix(0.9874625 -0.1578538 0.1578538 0.9874625 -3.5674286 6.4460096)">
			<stop  offset="0" style="stop-color:#FFFFFF;stop-opacity:0.2"/>
			<stop  offset="1" style="stop-color:#FFFFFF;stop-opacity:0.3"/>
		</linearGradient>
		<path style="fill:url(#SVGID_4_);" d="M34.3225517,2.5912971c0,0,7.8410606,4.8085752,1.5748634,9.8516312
			s-10.3643379,4.6878376-10.6793098,2.7175121s2.4830303-3.427948,4.2958698-4.7280836
			C33.1396561,7.8320851,34.7950096,5.5467863,34.3225517,2.5912971z"/>
		
			<linearGradient id="SVGID_5_" gradientUnits="userSpaceOnUse" x1="38.0234146" y1="27.1164799" x2="38.0234146" y2="19.1351089" gradientTransform="matrix(0.9874625 -0.1578538 0.1578538 0.9874625 -3.5674286 6.4460096)">
			<stop  offset="0" style="stop-color:#FFFFFF;stop-opacity:0.1"/>
			<stop  offset="1" style="stop-color:#FFFFFF;stop-opacity:0.2"/>
		</linearGradient>
		<path style="fill:url(#SVGID_5_);" d="M49.8069382,17.29175c0,0-0.5127029,3.1129761-12.3346634,5.0028095
			c-11.8219566,1.8898354-13.2795792-0.9081669-13.2795792-0.9081669s-1.9703255,0.3149719-2.6405163,2.4427834
			c-0.8477325,2.691494,2.9152431,5.5960064,16.7075291,3.3911991s16.4622459-6.1376762,14.8176918-8.4307575
			C51.7772636,16.976778,49.8069382,17.29175,49.8069382,17.29175z"/>
		
			<linearGradient id="SVGID_6_" gradientUnits="userSpaceOnUse" x1="38.0234146" y1="41.5596886" x2="38.0234146" y2="31.1071663" gradientTransform="matrix(0.9874625 -0.1578538 0.1578538 0.9874625 -3.5674286 6.4460096)">
			<stop  offset="0" style="stop-color:#FFFFFF;stop-opacity:0.1"/>
			<stop  offset="1" style="stop-color:#FFFFFF;stop-opacity:0.2"/>
		</linearGradient>
		<path style="fill:url(#SVGID_6_);" d="M56.6225891,28.3262768c0,0-3.3960495,5.3199482-16.9883156,7.4927807
			s-18.4775581-1.8232765-18.4775581-1.8232765s-2.2307911,0.5784988-3.0013409,3.0249443
			c-0.9746761,3.0945358,6.5266056,6.9967461,22.3842487,4.4617767c15.8576393-2.5349731,21.7685814-8.581234,19.877758-11.2176971
			C58.922554,28.1804962,56.6225891,28.3262768,56.6225891,28.3262768z"/>
	</g>
</g>
<g>
	<g>
		<path style="fill:#3F0309;" d="M51.0224991,43.2304993c-1.2040977,2.7010994-5.0165977,4.1836014-11.3213005,4.9316025
			c-6.3046989,0.7460976-9.4457989,0.3183975-11.5082989-2.2246017c-1.6630993-4.7089996,0.5184994-6.4902,8.2357998-7.4062004
			C44.8661995,37.5312996,50.0918007,37.4863014,51.0224991,43.2304993z"/>
		<path style="fill:#78211C;" d="M35.0302734,49.2011719c-3.5771484,0-5.7866211-0.8417969-7.3881836-2.8173828
			l-0.1181641-0.2099609c-0.7602539-2.1542969-0.753418-3.7382813,0.0224609-4.984375
			c1.105957-1.7783203,3.6552734-2.7519531,8.7983398-3.3623047C38.5,37.5712891,40.9873047,37.3105469,43.09375,37.3105469
			c3.5791016,0,7.7949219,0.6601563,8.6289063,5.8066406l0.0341797,0.2089844l-0.0869141,0.1933594
			c-1.28125,2.875-4.9472656,4.5234375-11.8847656,5.3466797C37.8798828,49.0917969,36.3242188,49.2011719,35.0302734,49.2011719z
			 M28.8208008,45.5839844c1.3144531,1.5605469,3.1254883,2.1992188,6.2094727,2.1992188
			c1.2382813,0,2.7382813-0.1064453,4.5878906-0.3251953c6.1279297-0.7275391,9.5292969-2.1054688,10.6669922-4.3291016
			c-0.5908203-3.1621094-2.6298828-4.4003906-7.1914063-4.4003906c-2.0322266,0-4.4677734,0.2568359-6.5820313,0.5068359
			c-4.5395508,0.5390625-6.9331055,1.3730469-7.7607422,2.703125
			C28.2329102,42.7705078,28.2543945,43.9316406,28.8208008,45.5839844z"/>
	</g>
	<g>
		<polygon style="fill:#0C0101;" points="29.0067997,23.1040001 27.5312996,21.7523994 24.2724991,25.3101006 
			20.8598995,22.9092007 19.7084999,24.5459003 22.9092007,26.7978992 20.2397003,29.7119007 21.7152996,31.0634995 
			24.5596008,27.9584999 28.5879002,30.7924995 29.7392998,29.1557999 25.9228992,26.4706993 		"/>
		<polygon style="fill:#0C0101;" points="50.1913986,25.3397999 46.2979012,23.0702991 49.5536995,19.5923004 
			48.0928001,18.2250996 44.5253983,22.0366001 41.1894989,20.0923004 40.1815987,21.8208008 43.1221008,23.5352001 
			40.6543007,26.1718998 42.1152,27.5391006 44.8955002,24.5688 49.1836014,27.0683994 		"/>
	</g>
	<g>
		<path style="fill:#9BC82D;" d="M42.3428001,47.375c0,0,0.1758003,4.2538986,0.7890015,6.0438995
			c0.6103973,1.7910995,1.6474991,6.4620018-0.9589005,4.5264015c-2.6065025-1.9393997-1.1348-6.8613014-1.1348-6.8613014
			L42.3428001,47.375z"/>
		<path style="fill:#9BC82D;" d="M30.1172009,52.1836014c0,0-3.9317017,1.6991997-8.3233013,0.5165977
			c-4.3934994-1.1856003-2.299799,4.6240005,1.5123005,3.5137024C27.1187,55.1025009,30.1172009,52.1836014,30.1172009,52.1836014z"
			/>
		<path style="fill:#89AE17;" d="M45.0391006,45.7363014c0,0-3.4911995-2.9267006-5.157299-1.4717026
			c0,0-2.7236023,0.5634995-5.2783012,1.892601c-2.5546989,1.3311005-9.1478996,8.089901-9.4736004,10.8261986
			c-0.3267002,2.7383003,2.9736004,0.6299019,2.9736004,0.6299019s-0.6781998,0.5985985-1.5342007,1.6161995
			c0.0078011-0.0429993,0.0121994-0.0693016,0.0121994-0.0693016s-0.0296993,0.0595016-0.0838985,0.155201
			c-0.5611,0.6748009-1.1871014,1.517601-1.75,2.4932022c-0.9615002,1.1268997-2.2945004,2.3759995-3.9892998,3.2275009
			c-3.3696003,1.6952972-0.25,4.4599991,2.0531998,2.7812958c-0.5839996,3.4541016-0.7373009,6.9618988-0.7373009,6.9618988
			l9.647501,2.0410004c0,0-0.0757008-5.6221008,0.2518997-9.3700943c0.5762005,0.889595,1.4775982,1.2333984,2.325201-0.0283051
			c1.2548981-1.875,0.4833984-5.1708984,0.3428001-7.9130974c0.5653992-1.1553001,1.1269989-2.2666016,1.5663986-3.1543007
			c0.142601,0.5780983,0.4277,0.9208984,0.9570007,0.7695007c1.5625-0.4531021,1.8808975-3.8993988,2.3564987-6.8065987
			C41.4940987,47.1796989,45.0391006,45.7363014,45.0391006,45.7363014z"/>
		<path style="fill:#9BC82D;" d="M44.2616997,45.6553001c0,0-2.6718979-0.7461014-4.4804001,0.6015015
			c0,0-3.0234985,0.4482994-5.8311005,1.6435966c-2.8085995,1.1953011-9.9424,7.4814034-10.2138996,10.1064034
			c-0.2714996,2.6259995,3.3437996,0.7070999,3.3437996,0.7070999s-0.737299,0.5527-1.6596985,1.5038986
			c0.0067997-0.0410004,0.0107994-0.0654984,0.0107994-0.0654984s-0.0303001,0.0556984-0.0874004,0.1455994
			c-0.6026001,0.6307983-1.2749996,1.4227982-1.8701992,2.3426971c-1.0361004,1.052803-2.4819012,2.2100029-4.3462009,2.9726982
			c-3.7064991,1.517601-0.1278992,4.2881012,2.3887005,2.7510071c-0.535099,3.3065948-0.5874004,6.6805954-0.5874004,6.6805954
			l10.8432999,2.2929993c0,0-0.2729988-5.4179993-0.0341988-9.017601c0.6732979,0.875,1.6898994,1.2393036,2.5923004,0.0508041
			c1.3407974-1.760704,0.3642006-4.9629021,0.1142006-7.6094017c0.5917969-1.0946999,1.1835976-2.142601,1.6464996-2.9852982
			c0.1758003,0.5625,0.5077972,0.902298,1.0928001,0.7733994c1.7313995-0.3818016,1.9678001-3.6914024,2.3983994-6.4746017
			C41.6825981,49.1200981,44.2616997,45.6553001,44.2616997,45.6553001z"/>
		<path style="fill:#9BC82D;" d="M19.0004997,60.1729012c0,0-3.1659994,1.7625999-4.9892998,5.3573952
			c-1.8221998,3.5957031-3.8690996-0.8788986-1.0995998-2.872097C15.6826,60.6621017,19.0004997,60.1729012,19.0004997,60.1729012z"
			/>
		<path style="fill:#9BC82D;" d="M46.1259995,55.1035004c0,0,1.4414024,1.6856003,1.4883003,4.0214996
			c0.044899,2.3330002,2.6826019,0.4599991,1.5586014-1.2549019C48.0498009,56.1543007,46.1259995,55.1035004,46.1259995,55.1035004
			z"/>
	</g>
</g>
<g>
</g>
<g>
</g>
<g>
</g>
<g>
</g>
<g>
</g>
<g>
</g>
</svg>
