<?xml version="1.0" encoding="utf-8"?>
<!-- Generator: Adobe Illustrator 15.0.0, SVG Export Plug-In . SVG Version: 6.00 Build 0)  -->
<!DOCTYPE svg PUBLIC "-//W3C//DTD SVG 1.1//EN" "http://www.w3.org/Graphics/SVG/1.1/DTD/svg11.dtd">
<svg version="1.1" id="レイヤー_1" xmlns="http://www.w3.org/2000/svg" xmlns:xlink="http://www.w3.org/1999/xlink" x="0px"
	 y="0px" width="64px" height="64px" viewBox="0 0 64 64" style="enable-background:new 0 0 64 64;" xml:space="preserve">
<g>
	<linearGradient id="SVGID_1_" gradientUnits="userSpaceOnUse" x1="32" y1="2.9960938" x2="31.9999981" y2="60.9864616">
		<stop  offset="0" style="stop-color:#1FB8FF"/>
		<stop  offset="1" style="stop-color:#0070FF"/>
	</linearGradient>
	<path style="fill:url(#SVGID_1_);" d="M62.2050781,50.2050781c0,6.6269531-5.3730469,12-12,12h-36.409668
		c-6.6274414,0-12-5.3730469-12-12v-36.409668c0-6.6274414,5.3725586-12,12-12h36.409668c6.6269531,0,12,5.3725586,12,12V50.2050781
		z"/>
	<g>
		<path style="opacity:0.28;fill:#FFFFFF;" d="M2.6723633,13.3686523c-0.0322266,0.3530273-0.0541992,0.7094727-0.0541992,1.0708008
			v12.59375c0.0058594,0.0058594,0.0117188,0.0117188,0.0170898,0.0175781L2.6723633,13.3686523z"/>
		<path style="opacity:0.28;fill:#FFFFFF;" d="M60.1064453,23.5698242
			c1.1884766-5.8022461,1.2216797-9.4174805,1.2216797-10.1938477c-0.5380859-5.9477539-5.53125-10.609375-11.6181641-10.609375
			H14.2910156c-6.0756836,0-11.0620117,4.6420898-11.6171875,10.5722656
			c0.0195313,0.3491211,0.4970703,4.0341797,1.2929688,10.3071289C11.206543,30.7006836,21.0922852,35.0546875,32,35.0546875
			C42.9453125,35.0546875,52.859375,30.6694336,60.1064453,23.5698242z"/>
		<path style="opacity:0.28;fill:#FFFFFF;" d="M61.328125,13.3789063l0.0390625,13.6674805
			c0.0048828-0.0048828,0.0097656-0.0097656,0.0146484-0.0146484V14.4394531
			C61.3818359,14.081543,61.359375,13.7290039,61.328125,13.3789063z"/>
	</g>
	<path style="fill:#FFFFFF;" d="M2.6738281,27.5859375c0,0-0.0058594-10.9194336-0.0283203-13.8588867
		C2.6181641,10.1269531,4.6665039,2.4165039,14.4165039,2.4165039c6.6391602,0,16.8032227,0,16.8032227,0
		s-14.1015625,1.2348633-18.199707,2.0546875s-7.4936523,6.043457-8.4423828,9.2626953
		C3.1982422,18.4150391,2.6738281,27.5859375,2.6738281,27.5859375z"/>
	<path style="fill:#22A4FC;" d="M61.7929688,36.8320313c0,0,0.0058594,10.7851563,0.0283203,13.6894531
		c0.0283203,3.5546875-3.3095703,10.7568359-10.5888672,10.7568359c-6.7744141,0-17.1464844,0-17.1464844,0
		s12.9667969-0.8046875,17.1494141-1.6152344c4.1806641-0.8095703,7.6445313-5.9677734,8.6142578-9.1484375
		C61.2578125,45.8896484,61.7929688,36.8320313,61.7929688,36.8320313z"/>
	<path style="fill:#0068A8;" d="M50.2050781,63.2050781h-36.409668c-7.168457,0-13-5.8320313-13-13v-36.409668
		c0-7.168457,5.831543-13,13-13h36.409668c7.1679688,0,13,5.831543,13,13v36.409668
		C63.2050781,57.3730469,57.3730469,63.2050781,50.2050781,63.2050781z M13.7954102,2.7954102c-6.0654297,0-11,4.9345703-11,11
		v36.409668c0,6.0654297,4.9345703,11,11,11h36.409668c6.0654297,0,11-4.9345703,11-11v-36.409668c0-6.0654297-4.9345703-11-11-11
		H13.7954102z"/>
</g>
<g>
	<path style="fill:#FFFFFF;" d="M9.4570313,38.65625V28.0761719H9.4228516L7.1279297,29.25l-0.6826172-2.2246094L9.8603516,25.34375
		h2.609375v13.3125H9.4570313z"/>
	<path style="fill:#FFFFFF;" d="M15.9765625,32.0351563c0-3.7490234,1.3837891-6.8837891,4.5712891-6.8837891
		c3.4335938,0,4.4667969,3.4853516,4.4667969,6.7958984c0,4.34375-1.6816406,6.9013672-4.5195313,6.9013672
		C17.0976563,38.8486328,15.9765625,35.3808594,15.9765625,32.0351563z M21.9316406,32
		c0-2.8554688-0.4384766-4.3964844-1.4013672-4.3964844c-0.9111328,0-1.4707031,1.3662109-1.4707031,4.3964844
		c0,3.03125,0.5068359,4.3955078,1.4707031,4.3955078C21.265625,36.3955078,21.9316406,35.6259766,21.9316406,32z"/>
	<path style="fill:#FFFFFF;" d="M34.7734375,38.65625h-8.4951172v-1.9277344l1.5410156-1.6630859
		c2.2949219-2.4003906,3.6787109-3.9589844,3.6787109-5.5703125c0-1.015625-0.6132813-1.8564453-1.8916016-1.8564453
		c-0.8925781,0-1.7685547,0.4550781-2.3828125,0.8925781l-0.8046875-2.2412109
		c0.8232422-0.5957031,2.2763672-1.1386719,3.8007813-1.1386719c2.9941406,0,4.34375,1.8388672,4.34375,4.0634766
		c0,2.3300781-1.5419922,4.1513672-3.1699219,5.7636719l-1.1210938,1.0673828v0.0341797h4.5009766V38.65625z"/>
	<path style="fill:#FFFFFF;" d="M44.1640625,38.65625h-2.8193359v-3.1015625h-5.2011719v-2.0126953l4.5527344-8.1982422h3.4677734
		v7.8837891h1.4189453v2.3271484h-1.4189453V38.65625z M38.8046875,33.2275391h2.5400391v-2.7158203
		c0-0.7539063,0.0703125-1.6474609,0.1044922-2.4355469h-0.0517578c-0.3681641,0.7880859-0.7011719,1.5761719-1.1210938,2.3828125
		l-1.4716797,2.7324219V33.2275391z"/>
	<path style="fill:#FFFFFF;" d="M48.1455078,30.8789063c0.3300781-0.5205078,0.8808594-0.8212891,1.5605469-0.8212891
		c1.2412109,0,2.0917969,1.2011719,2.0917969,2.8828125c0,2.0615234-1.1503906,2.9716797-2.2509766,2.9716797
		c-0.5703125,0-1-0.2607422-1.2011719-0.5693359h-0.0302734v2.7001953h-1.7617188v-6.0136719
		c0-0.7001953-0.0195313-1.3203125-0.0400391-1.8613281h1.5214844l0.0908203,0.7109375H48.1455078z M48.3154297,33.5410156
		c0,0.5703125,0.3203125,0.9902344,0.7714844,0.9902344c0.6191406,0,0.9296875-0.6503906,0.9296875-1.5302734
		c0-0.9414063-0.3203125-1.5214844-0.9101563-1.5214844c-0.4101563,0-0.7910156,0.3701172-0.7910156,0.9697266V33.5410156z"/>
	<path style="fill:#FFFFFF;" d="M57.5341797,30.1679688l-1.5908203,2.7226563l1.6113281,2.9111328H55.59375l-0.4501953-1
		c-0.1201172-0.2705078-0.2402344-0.5605469-0.3398438-0.8398438h-0.0302734
		c-0.1005859,0.2900391-0.2207031,0.5791016-0.3300781,0.8496094l-0.4003906,0.9902344h-1.8613281l1.6005859-2.8408203
		l-1.5810547-2.7929688h1.9414063l0.4296875,0.9316406l0.3613281,0.8691406h0.0292969
		c0.1103516-0.2792969,0.2207031-0.5996094,0.3408203-0.8896484l0.3798828-0.9111328H57.5341797z"/>
</g>
</svg>
