<?xml version="1.0" encoding="utf-8"?>
<!-- Generator: Adobe Illustrator 15.0.0, SVG Export Plug-In . SVG Version: 6.00 Build 0)  -->
<!DOCTYPE svg PUBLIC "-//W3C//DTD SVG 1.1//EN" "http://www.w3.org/Graphics/SVG/1.1/DTD/svg11.dtd">
<svg version="1.1" id="レイヤー_1" xmlns="http://www.w3.org/2000/svg" xmlns:xlink="http://www.w3.org/1999/xlink" x="0px"
	 y="0px" width="64px" height="64px" viewBox="0 0 64 64" style="enable-background:new 0 0 64 64;" xml:space="preserve">
<g>
	<g>
		<linearGradient id="SVGID_1_" gradientUnits="userSpaceOnUse" x1="31.9995117" y1="2.9956055" x2="31.9995098" y2="60.9864426">
			<stop  offset="0" style="stop-color:#1FB8FF"/>
			<stop  offset="1" style="stop-color:#0070FF"/>
		</linearGradient>
		<path style="fill:url(#SVGID_1_);" d="M62.2050781,50.2050781c0,6.6269531-5.3730469,12-12,12H13.7949219
			c-6.6269531,0-12-5.3730469-12-12V13.7949219c0-6.6269531,5.3730469-12,12-12h36.4101563c6.6269531,0,12,5.3730469,12,12
			V50.2050781z"/>
		<g>
			<path style="opacity:0.28;fill:#FFFFFF;" d="M2.671875,13.3681641c-0.0322266,0.3535156-0.0537109,0.7099609-0.0537109,1.0712891
				v12.59375c0.0058594,0.0058594,0.0117188,0.0117188,0.0166016,0.0175781L2.671875,13.3681641z"/>
			<path style="opacity:0.28;fill:#FFFFFF;" d="M60.1064453,23.5693359
				c1.1884766-5.8017578,1.2216797-9.4169922,1.2216797-10.1933594c-0.5380859-5.9482422-5.53125-10.609375-11.6181641-10.609375
				H14.2910156c-6.0761719,0-11.0625,4.6416016-11.6171875,10.5722656C2.6933594,13.6875,3.1708984,17.3730469,3.9667969,23.6455078
				C11.2060547,30.7001953,21.0917969,35.0546875,32,35.0546875C42.9453125,35.0546875,52.859375,30.6689453,60.1064453,23.5693359z
				"/>
			<path style="opacity:0.28;fill:#FFFFFF;" d="M61.328125,13.3789063l0.0390625,13.6669922
				c0.0048828-0.0048828,0.0097656-0.0097656,0.0146484-0.0146484V14.4394531
				C61.3818359,14.0810547,61.359375,13.7285156,61.328125,13.3789063z"/>
		</g>
		<path style="fill:#FFFFFF;" d="M2.6738281,27.5859375c0,0-0.0058594-10.9199219-0.0283203-13.859375
			C2.6181641,10.1269531,4.6660156,2.4160156,14.4160156,2.4160156c6.6396484,0,16.8037109,0,16.8037109,0
			S17.1181641,3.6513672,13.0195313,4.4707031c-4.0976563,0.8203125-7.4931641,6.0439453-8.4423828,9.2626953
			C3.1982422,18.4150391,2.6738281,27.5859375,2.6738281,27.5859375z"/>
		<path style="fill:#22A4FC;" d="M61.7929688,36.8320313c0,0,0.0058594,10.7851563,0.0283203,13.6894531
			c0.0283203,3.5546875-3.3095703,10.7568359-10.5888672,10.7568359c-6.7744141,0-17.1464844,0-17.1464844,0
			s12.9667969-0.8046875,17.1494141-1.6152344c4.1806641-0.8095703,7.6445313-5.9677734,8.6142578-9.1484375
			C61.2578125,45.8896484,61.7929688,36.8320313,61.7929688,36.8320313z"/>
		<path style="fill:#0068A8;" d="M50.2050781,63.2050781H13.7949219c-7.1679688,0-13-5.8320313-13-13V13.7949219
			c0-7.1679688,5.8320313-13,13-13h36.4101563c7.1679688,0,13,5.8320313,13,13v36.4101563
			C63.2050781,57.3730469,57.3730469,63.2050781,50.2050781,63.2050781z M13.7949219,2.7949219c-6.0654297,0-11,4.9345703-11,11
			v36.4101563c0,6.0654297,4.9345703,11,11,11h36.4101563c6.0654297,0,11-4.9345703,11-11V13.7949219
			c0-6.0654297-4.9345703-11-11-11H13.7949219z"/>
	</g>
	<g>
		<path style="fill:#FFFFFF;" d="M15.9697266,31.2041016c2.359375,0.5683594,4.2636719,2.5009766,4.2636719,5.3447266
			c0,3.6367188-3.0126953,6.5664063-8.1289063,6.5664063c-2.359375,0-4.4345703-0.5703125-5.5429688-1.2519531l1.0507813-3.7792969
			c0.8251953,0.5097656,2.53125,1.1074219,4.0654297,1.1074219c2.2177734,0,3.4677734-1.2792969,3.4677734-2.9003906
			c0-2.1601563-1.9326172-3.1269531-4.0078125-3.1269531h-1.421875v-3.4951172h1.2792969
			c1.5927734,0,3.5537109-0.7675781,3.5537109-2.5869141c0-1.3076172-0.9384766-2.2451172-2.7285156-2.2451172
			c-1.3925781,0-2.7861328,0.5683594-3.6103516,1.0517578l-0.9667969-3.5820313
			c1.1367188-0.7109375,3.4404297-1.421875,5.7988281-1.421875c4.2646484,0,6.5380859,2.4453125,6.5380859,5.34375
			c0,2.2177734-1.3359375,4.0087891-3.6103516,4.9179688V31.2041016z"/>
		<path style="fill:#FFFFFF;" d="M37.0009766,42.8027344H23.2148438v-3.1269531l2.5009766-2.7011719
			c3.7246094-3.8945313,5.9697266-6.4248047,5.9697266-9.0400391c0-1.6484375-0.9951172-3.0136719-3.0703125-3.0136719
			c-1.4492188,0-2.8710938,0.7402344-3.8652344,1.4501953l-1.3076172-3.6376953
			c1.3359375-0.9667969,3.6953125-1.8486328,6.1679688-1.8486328c4.8603516,0,7.0507813,2.9853516,7.0507813,6.5957031
			c0,3.7802734-2.5019531,6.7363281-5.1464844,9.3515625l-1.8193359,1.734375v0.0566406h7.3056641V42.8027344z"/>
		<path style="fill:#FFFFFF;" d="M42.1738281,30.1845703c0.5361328-0.8447266,1.4287109-1.3320313,2.5332031-1.3320313
			c2.0136719,0,3.3935547,1.9492188,3.3935547,4.6767578c0,3.3457031-1.8671875,4.8222656-3.6533203,4.8222656
			c-0.9248047,0-1.6240234-0.421875-1.9482422-0.9257813h-0.0488281v4.3847656h-2.8583984v-9.7587891
			c0-1.1367188-0.0322266-2.1425781-0.0644531-3.0195313h2.4677734l0.1455078,1.1523438H42.1738281z M42.4501953,34.5039063
			c0,0.9257813,0.5195313,1.6074219,1.2509766,1.6074219c1.0058594,0,1.5097656-1.0546875,1.5097656-2.484375
			c0-1.5263672-0.5205078-2.4677734-1.4775391-2.4677734c-0.6669922,0-1.2832031,0.5996094-1.2832031,1.5742188V34.5039063z"/>
		<path style="fill:#FFFFFF;" d="M57.40625,29.0322266l-2.5820313,4.4150391l2.6142578,4.7265625h-3.1826172l-0.7304688-1.6230469
			c-0.1953125-0.4394531-0.3896484-0.9101563-0.5517578-1.3652344h-0.0498047
			c-0.1621094,0.4707031-0.3564453,0.9414063-0.5361328,1.3808594l-0.6494141,1.6074219H48.71875L51.3173828,33.5625
			l-2.5654297-4.5302734h3.1494141l0.6982422,1.5097656l0.5849609,1.4121094h0.0488281
			c0.1787109-0.4541016,0.3564453-0.9746094,0.5517578-1.4443359l0.6171875-1.4775391H57.40625z"/>
	</g>
</g>
</svg>
