<?xml version="1.0" encoding="utf-8"?>
<!-- Generator: Adobe Illustrator 18.0.0, SVG Export Plug-In . SVG Version: 6.00 Build 0)  -->
<!DOCTYPE svg PUBLIC "-//W3C//DTD SVG 1.1//EN" "http://www.w3.org/Graphics/SVG/1.1/DTD/svg11.dtd">
<svg version="1.1" id="レイヤー_1" xmlns="http://www.w3.org/2000/svg" xmlns:xlink="http://www.w3.org/1999/xlink" x="0px"
	 y="0px" width="64px" height="64px" viewBox="0 0 64 64" style="enable-background:new 0 0 64 64;" xml:space="preserve">
<path style="fill:#00A9DD;" d="M16.3872108,8.78125c0,0-2.5986404,0.8793898-2.5986404,1.82617c0,0.9472666,0,4.2060604,0,4.8427801
	c0,0.9326105,2.5986404,1.3803701,2.5986404,1.3803701V8.78125z"/>
<g>
	<path style="fill:#FFFFFF;" d="M26.1616001,28.5713005l-3.5834999,7.0868988l-2.7299595,5.4599991
		c0,0-2.9013615,3.8369026,0,5.4598999c2.9008598,1.6211014,3.6767597,0.5967026,3.6767597,0.5967026
		s2.9428997,0.2519989,2.294899-2.0508003c-0.6469002-2.3036995-1.7054996-4.517601-1.7054996-4.517601l4.0946999-6.8456993
		L26.1616001,28.5713005z"/>
	<path style="fill:#00A9DD;" d="M22.5649414,48.0058594c-0.8037109,0-1.8017578-0.3300781-2.9663086-0.9804688
		c-0.8134766-0.4550781-1.3134766-1.1035156-1.4863281-1.9287109c-0.4106445-1.9599609,1.2563477-4.1933594,1.3276367-4.2871094
		l6.7792969-13.4868164l2.5585938,6.4848633l-4.0849609,6.8291016c0.296875,0.6494141,1.0878906,2.4560547,1.6196289,4.3486328
		c0.2075195,0.7373047,0.1293945,1.3535156-0.2319336,1.8300781c-0.5795898,0.765625-1.6953125,0.8789063-2.3085938,0.8789063
		c-0.0004883,0-0.0004883,0-0.0004883,0c-0.0229492,0-0.0454102,0-0.065918,0
		C23.4960938,47.8417969,23.1342773,48.0058594,22.5649414,48.0058594z M26.1040039,29.8198242l-5.7978516,11.5268555
		c-0.0639648,0.0996094-1.5078125,2.0390625-1.1914063,3.5419922c0.1113281,0.5283203,0.4331055,0.9345703,0.9833984,1.2431641
		c2.4897461,1.390625,3.0375977,0.7109375,3.0410156,0.7070313l0.1694336-0.2236328l0.2587891,0.0498047
		c0.0092773,0,0.0859375,0.0058594,0.2041016,0.0058594c0.7104492,0,1.2685547-0.1767578,1.4931641-0.4736328
		c0.1572266-0.2080078,0.1782227-0.5224609,0.0625-0.9345703c-0.6269531-2.2324219-1.6645508-4.4140625-1.6748047-4.4355469
		l-0.1181641-0.2480469l4.105957-6.8652344L26.1040039,29.8198242z"/>
</g>
<g>
	<path style="fill:#FFFFFF;" d="M30.9701996,43.8330002l-3.0033989,0.5868988l-0.0264015,5.5860023L24.3027,56.0830002
		c-2.6083603,0.4608994-5.0868797,1.5565987-6.3949909,3.0673981c-1.1396389,1.315403,0.1757908,2.002903,0.1757908,2.002903
		h14.5219994c0,0,1.1796989-2.4658012-0.7558994-4.0185013l-1.4970989-6.6543007L30.9701996,43.8330002z"/>
	<path style="fill:#00A9DD;" d="M32.9370117,61.6796875H17.9541016l-0.1142578-0.0595703
		c-0.0766602-0.0400391-0.7529297-0.4130859-0.8969727-1.1728516c-0.1020508-0.5371094,0.0888672-1.0898438,0.5668945-1.6416016
		c1.2802734-1.4785156,3.6845703-2.6650391,6.4633789-3.1972656l3.4418945-5.7490234l0.0273438-5.8730469l4.1166992-0.8046875
		l-0.6748047,7.2646484l1.4399414,6.4003906c1.6201172,1.4365234,1.2128906,3.578125,0.7558594,4.5341797L32.9370117,61.6796875z
		 M18.2412109,60.6269531H32.246582C32.4550781,60,32.7583008,58.5380859,31.5205078,57.5449219l-0.144043-0.1152344
		l-1.5556641-6.9150391l0.5605469-6.0302734l-1.8901367,0.3691406l-0.0253906,5.2988281l-3.8349609,6.4072266l-0.2363281,0.0419922
		c-2.6494141,0.4677734-4.925293,1.5498047-6.0888672,2.8935547c-0.175293,0.2021484-0.375,0.4970703-0.3295898,0.7509766
		C18.0068359,60.4189453,18.1464844,60.5537109,18.2412109,60.6269531z"/>
</g>
<g>
	<path style="fill:#FFFFFF;" d="M44.3368988,60.1669998c-0.1660004-0.9766006,0.0214996-1.75-1.482399-2.8983994
		l-4.8740005-7.4814987l-1.7793007-9.330101l-2.8075981,4.3203011l2.1142006,6.2158966l-0.0889015,4.3398018
		c0,0-0.5760994,2.0527-0.9608994,3.4775009c-0.3310013,1.2266006,0.169899,2.3428001,0.169899,2.3428001h8.5244026
		C43.1523018,61.1533012,44.5479012,61.4071999,44.3368988,60.1669998z"/>
	<path style="fill:#00A9DD;" d="M43.4326172,61.7011719c-0.0009766,0-0.0009766,0-0.0009766,0
		c-0.2158203,0-0.3730469-0.0302734-0.3730469-0.0302734l-8.7714844,0.0087891l-0.1396484-0.3105469
		c-0.0234375-0.0527344-0.5732422-1.3037109-0.1972656-2.6953125c0.3447266-1.2783203,0.8427734-3.0595703,0.9443359-3.4189453
		l0.0849609-4.1796875l-2.1665039-6.3701172l3.659668-5.6318359l2.0058594,10.5136719l4.7685547,7.3193359
		c1.3613281,1.0664063,1.4570313,1.9101563,1.5498047,2.7265625c0.0166016,0.1445313,0.0332031,0.2929688,0.0585938,0.4462891
		c0.1005859,0.5908203-0.0820313,0.9550781-0.2529297,1.1582031C44.3466797,61.5400391,43.9414063,61.7011719,43.4326172,61.7011719
		z M35.0039063,60.6269531h8.1484375c0.1044922,0.0107422,0.1796875,0.0214844,0.2792969,0.0214844c0,0,0,0,0.0009766,0
		c0.2001953,0,0.328125-0.0458984,0.3662109-0.0908203c0.0283203-0.0332031,0.0488281-0.1308594,0.0195313-0.3027344
		c-0.0292969-0.1728516-0.0488281-0.3398438-0.0673828-0.5029297c-0.0820313-0.7226563-0.1416016-1.2441406-1.2158203-2.0654297
		l-0.1220703-0.1308594l-4.9492188-7.6699219l-1.5341797-8.0449219l-1.9550781,3.0087891l2.0615234,6.0615234l-0.1103516,4.5644531
		c0,0-0.5751953,2.0498047-0.9599609,3.4726563C34.7861328,59.6162109,34.9013672,60.2597656,35.0039063,60.6269531z"/>
</g>
<g>
	<polygon style="fill:#FFFFFF;" points="29.6826,20.3032207 29.6826,25.8290997 32.9272003,25.8290997 32.9272003,20.6543007 	"/>
	<path style="fill:#00A9DD;" d="M33.453125,26.3554688H29.15625v-6.6386719l4.296875,0.4648438V26.3554688z M30.2089844,25.3027344
		h2.1918945v-4.1757813l-2.1918945-0.2373047V25.3027344z"/>
</g>
<g>
	<path style="fill:#FFFFFF;" d="M20.4257793,21.3032207c-2.2211895,0-4.0385685-1.8173809-4.0385685-4.0385704V7.4731398
		c0-2.22119,1.817379-4.0385695,4.0385685-4.0385695h20.8359203c2.2216988,0,4.0391006,1.8173797,4.0391006,4.0385695v9.7915106
		c0,2.2211895-1.8174019,4.0385704-4.0391006,4.0385704H20.4257793z"/>
	<path style="fill:#00A9DD;" d="M41.2617188,21.8081055H20.4257813c-2.5053711,0-4.543457-2.0380859-4.543457-4.543457V7.4731445
		c0-2.5053711,2.0380859-4.543457,4.543457-4.543457h20.8359375c2.5058594,0,4.5439453,2.0380859,4.5439453,4.543457v9.7915039
		C45.8056641,19.7700195,43.7675781,21.8081055,41.2617188,21.8081055z M20.4257813,3.9394531
		c-1.9487305,0-3.5336914,1.5849609-3.5336914,3.5336914v9.7915039c0,1.9487305,1.5849609,3.5336914,3.5336914,3.5336914h20.8359375
		c1.9492188,0,3.5341797-1.5849609,3.5341797-3.5336914V7.4731445c0-1.9487305-1.5849609-3.5336914-3.5341797-3.5336914H20.4257813z
		"/>
</g>
<linearGradient id="SVGID_1_" gradientUnits="userSpaceOnUse" x1="19.4585991" y1="14.2251425" x2="19.4585991" y2="19.1832714">
	<stop  offset="0" style="stop-color:#3FC4FF"/>
	<stop  offset="1" style="stop-color:#5FD9FF;stop-opacity:0"/>
</linearGradient>
<path style="fill:url(#SVGID_1_);" d="M16.8359394,16.6181602l5.2797604-3.2207003c0,0,0,5.9721708-3.374979,5.9707003
	C16.3857403,19.3676796,16.8359394,16.6181602,16.8359394,16.6181602z"/>
<linearGradient id="SVGID_2_" gradientUnits="userSpaceOnUse" x1="38.7226524" y1="13.7099276" x2="38.7226524" y2="19.1268101">
	<stop  offset="0" style="stop-color:#3FC4FF"/>
	<stop  offset="1" style="stop-color:#5FD9FF;stop-opacity:0"/>
</linearGradient>
<path style="fill:url(#SVGID_2_);" d="M34.7431984,13.39746c0,0,0,5.9707003,3.9726028,5.9311495
	c2.8652992-0.0283203,4.2734985-2.0634689,3.9375-6.5229454L34.7431984,13.39746z"/>
<g>
	<circle style="fill:#FFFFFF;" cx="18.0734901" cy="13.3974609" r="3.4528799"/>
	<path style="fill:#00A9DD;" d="M18.0737305,17.425293c-2.2211914,0-4.027832-1.8066406-4.027832-4.027832
		c0-2.2207031,1.8066406-4.0273438,4.027832-4.0273438c2.2207031,0,4.0273438,1.8066406,4.0273438,4.0273438
		C22.1010742,15.6186523,20.2944336,17.425293,18.0737305,17.425293z M18.0737305,10.5195313
		c-1.5869141,0-2.878418,1.2910156-2.878418,2.8779297s1.2915039,2.878418,2.878418,2.878418
		s2.8779297-1.2915039,2.8779297-2.878418S19.6606445,10.5195313,18.0737305,10.5195313z"/>
</g>
<circle style="fill:#00A9DD;" cx="18.0732441" cy="13.3979492" r="2.3134749"/>
<g>
	<path style="fill:#FFFFFF;" d="M25.6376991,28.0224991c1.8672009-4.6992989,8.1063995-6.5791397,10.9892998-0.9345989
		c1.4101028,2.7626991,3.0321999,12.7382984,1.8027,16.9492016c-1.2276001,4.2099991-12.0937996,6.1777-13.9359989-0.2256012
		C22.6518993,37.4081993,24.2084999,31.6191006,25.6376991,28.0224991z"/>
	<path style="fill:#00A9DD;" d="M30.9458008,48.4570313c-3.5463867,0-6.1474609-1.6826172-6.9580078-4.5
		c-1.4624023-5.0839844-1.0717773-10.5107422,1.1606445-16.1289063c1.1289063-2.840332,3.7250977-4.7485352,6.4609375-4.7485352
		c2.296875,0,4.2451172,1.3383789,5.4863281,3.769043c1.5351563,3.0078125,3.0791016,13.0908203,1.8388672,17.3359375
		C38.1552734,46.8583984,34.2607422,48.4570313,30.9458008,48.4570313z M31.609375,24.1323242
		c-2.2724609,0-4.5268555,1.6796875-5.4824219,4.0844727c-2.1445313,5.3964844-2.5239258,10.5947266-1.1274414,15.4492188
		c0.9707031,3.3740234,4.4819336,3.7382813,5.9462891,3.7382813c3.2827148,0,6.4135742-1.5761719,6.9790039-3.5146484
		c1.2119141-4.1503906-0.4462891-13.9760742-1.7666016-16.5625C35.1054688,25.2670898,33.4902344,24.1323242,31.609375,24.1323242z"
		/>
</g>
<linearGradient id="SVGID_3_" gradientUnits="userSpaceOnUse" x1="33.3385429" y1="49.7183266" x2="32.088604" y2="44.2186012">
	<stop  offset="0" style="stop-color:#3FC4FF"/>
	<stop  offset="1" style="stop-color:#5FD9FF;stop-opacity:0"/>
</linearGradient>
<path style="fill:url(#SVGID_3_);" d="M26.2476006,44.4873009c0,0,2.5848999,2.4833984,5.829998,0.2900009
	c3.2456017-2.1943016,4.5962029-7.2812004,4.841301-9.7373009c0,0,3.2294998,12.1913986-5.0170002,12.4531975
	C23.6562996,47.7559013,24.9794998,42.6815987,26.2476006,44.4873009z"/>
<g>
	<path style="fill:#FFFFFF;" d="M35.3398018,26.4384995c-1.6347008,1.9808998,1.8671989,8.9589996,1.8671989,8.9589996
		l-0.8251991,5.9589005c0,0-3.6694031,0.9384995-2.4746017,2.7294998c1.1944008,1.7919998,1.0234985,2.1338005,1.0234985,2.1338005
		s-0.2685966,1.8769989,2.3828011,1.7061005c0,0,2.9004021,0.5028992,3.5018997-0.7714996c0,0,1.7940025-2.0438995,0-9.8759995
		C39.7626991,32.6875,36.5751991,24.9433994,35.3398018,26.4384995z"/>
	<path style="fill:#00A9DD;" d="M38.5605469,48.5351563L38.5605469,48.5351563c-0.59375,0-1.1005859-0.0683594-1.2724609-0.0947266
		c-1.140625,0.0615234-1.9101563-0.2001953-2.4033203-0.7685547c-0.5664063-0.6533203-0.4736328-1.4375-0.4609375-1.5244141
		l0.0009766-0.0058594c-0.0166016-0.0966797-0.1318359-0.5537109-0.9433594-1.7714844
		c-0.4248047-0.6376953-0.3564453-1.1835938-0.2236328-1.5302734c0.40625-1.0585938,1.9541016-1.6582031,2.6621094-1.8828125
		l0.7587891-5.4736328c-0.5966797-1.2138672-3.4443359-7.2978516-1.7333984-9.3706055
		c0.2558594-0.3100586,0.5507813-0.375,0.7529297-0.375c2.0751953,0,4.8945313,8.2797852,5.6162109,11.4262695
		c1.6962891,7.4052734,0.2734375,9.8203125-0.0654297,10.2675781
		C40.8671875,48.1640625,39.9628906,48.5351563,38.5605469,48.5351563z M37.3408203,47.4111328l0.0595703,0.0097656
		c0.0058594,0.0009766,0.5341797,0.0908203,1.1601563,0.0908203c0.9658203,0,1.6191406-0.2099609,1.7919922-0.5761719
		l0.078125-0.1191406C40.4394531,46.8056641,42,44.7441406,40.3164063,37.3925781
		c-1.0908203-4.7558594-3.7275391-10.4838867-4.625-10.6313477c-0.9931641,1.2587891,0.6767578,5.8242188,1.9726563,8.4067383
		l0.0722656,0.1425781l-0.8945313,6.4560547l-0.3330078,0.0859375c-0.7617188,0.1962891-2.0585938,0.7373047-2.2949219,1.3544922
		c-0.0429688,0.1132813-0.078125,0.2988281,0.1191406,0.5947266c1.0429688,1.5644531,1.1767578,2.1914063,1.1025391,2.515625
		c-0.0039063,0.0927734-0.0019531,0.4306641,0.2294922,0.6914063c0.2783203,0.3144531,0.8339844,0.4560547,1.6152344,0.40625
		L37.3408203,47.4111328z"/>
</g>
<polygon style="fill:#FFFFFF;" points="15.7597704,14.4882803 19.4584999,11.0844727 19.9277306,11.6274414 16.3872108,15.7119102 
	"/>
<path style="fill:#FFFFFF;" d="M20.4331093,12.2290039L17.58008,15.7119102c0,0,1.0786095,0.7080097,2.8066406-0.8032198
	C21.5263691,13.39746,20.4331093,12.2290039,20.4331093,12.2290039z"/>
<g>
	<circle style="fill:#FFFFFF;" cx="38.8007507" cy="13.3974609" r="3.4521501"/>
	<path style="fill:#00A9DD;" d="M38.8007813,17.425293c-2.2207031,0-4.0273438-1.8066406-4.0273438-4.027832
		c0-2.2207031,1.8066406-4.0273438,4.0273438-4.0273438s4.0273438,1.8066406,4.0273438,4.0273438
		C42.828125,15.6186523,41.0214844,17.425293,38.8007813,17.425293z M38.8007813,10.5195313
		c-1.5869141,0-2.8769531,1.2910156-2.8769531,2.8779297s1.2900391,2.878418,2.8769531,2.878418
		s2.8769531-1.2915039,2.8769531-2.878418S40.3876953,10.5195313,38.8007813,10.5195313z"/>
</g>
<circle style="fill:#00A9DD;" cx="38.8003006" cy="13.3979492" r="2.313"/>
<polygon style="fill:#FFFFFF;" points="36.4873009,14.4882803 40.1875,11.0844727 40.6562996,11.6274414 37.1142998,15.7119102 "/>
<path style="fill:#FFFFFF;" d="M41.1601982,12.2290039l-2.8526001,3.4829063c0,0,1.0781021,0.7080097,2.8057022-0.8032198
	C42.2528992,13.39746,41.1601982,12.2290039,41.1601982,12.2290039z"/>
<path style="fill:#00A9DD;" d="M45.3008003,8.78125c0,0,3.9491997,0.8793898,3.9491997,1.82617c0,0.9472666,0,4.2060604,0,4.8427801
	c0,0.9326105-3.9491997,1.3803701-3.9491997,1.3803701V8.78125z"/>
<polygon style="fill:#00A9DD;" points="36.7519989,34.4258003 39.6357002,33.2860985 40.4238014,35.7686005 37.2490005,36.6660004 
	"/>
<polygon style="fill:#00A9DD;" points="22.1156998,37.1366997 23.2637005,38.3730011 23.9116001,34.3456993 "/>
<path style="fill:#00A9DD;" d="M41.1230469,43.4013672c-0.2646484-0.8466797-0.7177734-1.4003906-1.3857422-1.6923828
	c-1.6113281-0.7070313-3.9140625,0.3671875-3.9375,0.3769531l-0.4404297-0.9238281
	c0.1113281-0.0527344,2.7412109-1.2871094,4.7851563-0.3925781c0.9443359,0.4121094,1.6025391,1.1953125,1.9550781,2.3271484
	L41.1230469,43.4013672z"/>
<path style="fill:#00A9DD;" d="M20.1513672,41.5302734l-0.6069336-0.8242188
	c0.0722656-0.0537109,1.793457-1.3164063,3.3149414-0.9482422c0.6674805,0.1601563,1.1816406,0.5927734,1.5273438,1.2851563
	L23.4707031,41.5c-0.2070313-0.4140625-0.484375-0.6582031-0.8491211-0.7470703
	C21.7480469,40.5439453,20.5429688,41.2421875,20.1513672,41.5302734z"/>
<path style="fill:#00A9DD;" d="M35.3485985,29.75c0,0,0.3887024-1.2744007,1.8535004-1.1786995
	c0,0-0.5643997-1.6480007-1.0653992-2.3213005S34.2803001,28.0830002,35.3485985,29.75z"/>
<polygon style="fill:#00A9DD;" points="28.2089996,49.4658012 30.3525009,50.7793007 30.8437996,52.1328011 27.5312996,51.6161995 
	"/>
<polygon style="fill:#00A9DD;" points="35.3485985,49.8828011 37.8623009,49.4658012 38.5723,51.1142998 35.580101,51.7158012 "/>
<path style="fill:#00A9DD;" d="M31.9272461,57.8310547c-4.5634766-1.1240234-7.6933594-1.1367188-7.7246094-1.1367188v-1.0234375
	c0.1318359,0,3.2861328,0.0126953,7.9697266,1.1660156L31.9272461,57.8310547z"/>
<path style="fill:#00A9DD;" d="M42.828125,57.9404297c-1.8017578-1.6064453-3.4394531-2.296875-4.8779297-2.0410156
	c-1.7246094,0.3027344-2.609375,1.9101563-2.6181641,1.9267578L34.3681641,57.3125
	c0.0449219-0.0849609,1.1279297-2.0839844,3.3779297-2.4873047c1.7919922-0.3212891,3.7412109,0.4550781,5.8085938,2.3007813
	L42.828125,57.9404297z"/>
<path style="fill:#00A9DD;" d="M51.4169922,13.5556641h-5.1416016c-0.4140625,0-0.75-0.3359375-0.75-0.75s0.3359375-0.75,0.75-0.75
	h4.3916016V2.5c0-0.4140625,0.3359375-0.75,0.75-0.75s0.75,0.3359375,0.75,0.75v10.3056641
	C52.1669922,13.2197266,51.8310547,13.5556641,51.4169922,13.5556641z"/>
<polygon style="fill:#00A9DD;" points="29.0947266,20.5522461 25.2011719,18.862793 25.6035156,17.9370117 29.0986328,19.4536133 
	32.902832,17.8354492 33.2978516,18.7641602 "/>
<g>
	<path style="fill:#00A9DD;" d="M29.2514648,32.190918c-0.3081055,0-0.5576172-0.2495117-0.5576172-0.5576172v-2.9677734
		c0-0.3081055,0.2495117-0.5576172,0.5576172-0.5576172s0.5576172,0.2495117,0.5576172,0.5576172v2.9677734
		C29.809082,31.9414063,29.5595703,32.190918,29.2514648,32.190918z"/>
	<path style="fill:#00A9DD;" d="M29.2514648,35.7832031c-0.4321289,0-0.8520508-0.0849609-1.2490234-0.2519531
		c-0.3842773-0.1630859-0.7270508-0.3945313-1.0209961-0.6894531c-0.293457-0.2919922-0.5249023-0.6347656-0.6870117-1.0175781
		c-0.1679688-0.3964844-0.2529297-0.8173828-0.2529297-1.25c0-0.4331055,0.0849609-0.8540039,0.2524414-1.2504883
		c0.1621094-0.3823242,0.3935547-0.7250977,0.6879883-1.0195313c0.2177734-0.2177734,0.5703125-0.2177734,0.7880859,0
		s0.2177734,0.5703125,0,0.7880859c-0.1923828,0.1928711-0.34375,0.4165039-0.4492188,0.6655273
		c-0.1088867,0.2583008-0.1640625,0.5327148-0.1640625,0.8164063c0,0.2827148,0.0551758,0.5566406,0.1645508,0.8154297
		c0.1054688,0.2490234,0.2563477,0.4726563,0.4487305,0.6640625c0.1928711,0.1933594,0.4169922,0.3447266,0.6665039,0.4511719
		c0.5161133,0.2177734,1.1152344,0.2177734,1.6293945-0.0009766c0.2495117-0.1054688,0.4741211-0.2568359,0.6669922-0.4501953
		c0.1899414-0.1894531,0.3447266-0.4189453,0.4477539-0.6640625c0.1098633-0.2587891,0.1650391-0.5322266,0.1650391-0.8154297
		c0-0.2836914-0.0551758-0.5581055-0.1645508-0.815918c-0.1044922-0.2490234-0.2553711-0.4726563-0.4487305-0.6660156
		c-0.2177734-0.2182617-0.2172852-0.5712891,0.0004883-0.7885742c0.2172852-0.2182617,0.5708008-0.2167969,0.7885742,0.0004883
		c0.2954102,0.2963867,0.5268555,0.6396484,0.6865234,1.0200195c0.1674805,0.3950195,0.2529297,0.815918,0.2529297,1.25
		c0,0.4335938-0.0854492,0.8544922-0.253418,1.25c-0.1601563,0.3798828-0.3911133,0.7226563-0.6865234,1.0185547
		c-0.2944336,0.2939453-0.6376953,0.5263672-1.0200195,0.6884766
		C30.1049805,35.6982422,29.6845703,35.7832031,29.2514648,35.7832031z"/>
</g>
<g>
</g>
<g>
</g>
<g>
</g>
<g>
</g>
<g>
</g>
<g>
</g>
</svg>
