<?xml version="1.0" encoding="UTF-8" standalone="no"?>
<!-- Generated by phantom_svg. -->

<svg
   xmlns:dc="http://purl.org/dc/elements/1.1/"
   xmlns:cc="http://creativecommons.org/ns#"
   xmlns:rdf="http://www.w3.org/1999/02/22-rdf-syntax-ns#"
   xmlns:svg="http://www.w3.org/2000/svg"
   xmlns="http://www.w3.org/2000/svg"
   xmlns:xlink="http://www.w3.org/1999/xlink"
   xmlns:sodipodi="http://sodipodi.sourceforge.net/DTD/sodipodi-0.dtd"
   xmlns:inkscape="http://www.inkscape.org/namespaces/inkscape"
   id="phantom_svg"
   width="64px"
   height="64px"
   version="1.1"
   inkscape:version="0.48.4 r9939"
   sodipodi:docname="running.svg">
  <metadata
     id="metadata637" />
  <sodipodi:namedview
     pagecolor="#ffffff"
     bordercolor="#666666"
     borderopacity="1"
     objecttolerance="10"
     gridtolerance="10"
     guidetolerance="10"
     inkscape:pageopacity="0"
     inkscape:pageshadow="2"
     inkscape:window-width="640"
     inkscape:window-height="480"
     id="namedview635" />
  <defs
     id="defs3">
    <!-- Images. -->
    <svg
       id="frame0"
       viewBox="0 0 64 64"
       preserveAspectRatio="none"
       version="1.1">
      <metadata
         id="metadata103">
        <rdf:RDF>
          <cc:Work
             rdf:about="">
            <dc:format>
              image/svg+xml
            </dc:format>
            <dc:type
               rdf:resource="http://purl.org/dc/dcmitype/StillImage" />
            <dc:title />
          </cc:Work>
        </rdf:RDF>
      </metadata>
      <defs
         id="defs101" />
      <g
         id="_x30_1_2_">
        <linearGradient
           x1="26.273899"
           y1="15.9204"
           x2="29.345699"
           y2="27.709101"
           id="SVGID_1_"
           gradientUnits="userSpaceOnUse">
          <stop
             id="stop5"
             style="stop-color:#ffe3bf;stop-opacity:1"
             offset="0" />
          <stop
             id="stop7"
             style="stop-color:#ffb67f;stop-opacity:1"
             offset="1" />
        </linearGradient>
        <path
           d="m 32,26.474 c 0,0 -6.134,2.652 -8.004,2.119 -1.871,-0.529 -1.343,-10.309 -1.343,-10.309 0,0 -1.416,-3.297 1.407,-3.551 2.822,-0.256 3.785,1.4 2.641,3.118 0,0 1.056,1.365 -1.11,1.448 0,0 0.775,3.357 0.605,4.93 L 34,22.125 32,26.474 z"
           id="path9"
           style="fill:url(#SVGID_1_);stroke:#050505;stroke-miterlimit:3" />
        <linearGradient
           x1="44.519501"
           y1="39.459"
           x2="44.852501"
           y2="45.375999"
           id="SVGID_2_"
           gradientUnits="userSpaceOnUse">
          <stop
             id="stop12"
             style="stop-color:#ffe3bf;stop-opacity:1"
             offset="0" />
          <stop
             id="stop14"
             style="stop-color:#ffb67f;stop-opacity:1"
             offset="1" />
        </linearGradient>
        <path
           d="m 37.156,41.492 c 0,0 7.107,3.678 8.125,4.112 1.02,0.434 3.34,-1.218 6.32,-3.644 l 0.322,-3.806 c 0,0 -3.459,2.512 -6.691,3.153 l -6.766,-5.647 -1.31,5.832 z"
           id="path16"
           style="fill:url(#SVGID_2_);stroke:#050505;stroke-miterlimit:3" />
        <path
           d="m 48.465,39.808 2.256,0.126 0.135,2.833 c 0,0 1.795,1.734 2.412,2.907 0.691,1.313 1.666,2.337 2.113,-0.841 L 53.285,38.721 52.6,37.519 c 0,0 -2.764,-0.149 -4.135,2.289 z"
           id="path18"
           style="stroke:#050505;stroke-miterlimit:3" />
        <linearGradient
           x1="23.3936"
           y1="38.484402"
           x2="23.133301"
           y2="40.913399"
           id="SVGID_3_"
           gradientUnits="userSpaceOnUse">
          <stop
             id="stop21"
             style="stop-color:#ffe3bf;stop-opacity:1"
             offset="0" />
          <stop
             id="stop23"
             style="stop-color:#ffb67f;stop-opacity:1"
             offset="1" />
        </linearGradient>
        <path
           d="m 28.939,35.661 c 0,0 -5.885,1.448 -6.871,1.951 -0.986,0.504 -5.915,4.169 -8.424,4.271 v 3.389 c 0,0 5.841,-1.636 10.256,-3.3 l 8.671,-1.565 -3.632,-4.746 z"
           id="path25"
           style="fill:url(#SVGID_3_);stroke:#050505;stroke-miterlimit:3" />
        <linearGradient
           x1="26.235399"
           y1="41.7383"
           x2="27.275999"
           y2="49.989498"
           id="SVGID_4_"
           gradientUnits="userSpaceOnUse">
          <stop
             id="stop28"
             style="stop-color:#ffe3bf;stop-opacity:1"
             offset="0" />
          <stop
             id="stop30"
             style="stop-color:#ffb67f;stop-opacity:1"
             offset="1" />
        </linearGradient>
        <path
           d="m 22.25,40.604 c 0,0 3.333,5.75 9.25,8.583 0,0 -7.333,-0.999 -9.333,-5.416 l 0.083,-3.167 z"
           id="path32"
           style="fill:url(#SVGID_4_);display:none" />
        <linearGradient
           x1="24.667"
           y1="43.745098"
           x2="26.019501"
           y2="54.4688"
           id="SVGID_5_"
           gradientUnits="userSpaceOnUse">
          <stop
             id="stop35"
             style="stop-color:#ffe3bf;stop-opacity:1"
             offset="0" />
          <stop
             id="stop37"
             style="stop-color:#ffb67f;stop-opacity:1"
             offset="1" />
        </linearGradient>
        <path
           d="m 18.833,42.354 -0.083,3.667 c 0,0 3.167,6.416 13.333,7.333 0,0 -10.416,-3.917 -13.25,-11 z"
           id="path39"
           style="fill:url(#SVGID_5_);display:none" />
        <path
           d="m 16.425,44.605 -2.78,0.327 v -3.049 c 0,0 -1.637,-2.399 -2.545,-3.611 -0.522,-0.697 -2.212,-2.039 -2.48,1.618 l 2.671,6.799 0.822,1.314 c -10e-4,10e-4 2.993,-0.512 4.312,-3.398 z"
           id="path41"
           style="stroke:#050505;stroke-miterlimit:3" />
        <linearGradient
           x1="11.5313"
           y1="42.541"
           x2="12.0572"
           y2="46.711201"
           id="SVGID_6_"
           gradientUnits="userSpaceOnUse"
           gradientTransform="matrix(0.9454,0.3258,-0.3258,0.9454,15.1035,-1.9608)">
          <stop
             id="stop44"
             style="stop-color:#ffb01f;stop-opacity:1"
             offset="0" />
          <stop
             id="stop46"
             style="stop-color:#ff3f1f;stop-opacity:1"
             offset="1" />
        </linearGradient>
        <path
           d="m 9.964,40.719 c 0,0 -0.732,4.045 3.697,5.77 0,-10e-4 -2.217,-1.624 -3.697,-5.77 z"
           id="path48"
           style="fill:url(#SVGID_6_)" />
        <linearGradient
           x1="52.686501"
           y1="38.901402"
           x2="53.4231"
           y2="44.741798"
           id="SVGID_7_"
           gradientUnits="userSpaceOnUse"
           gradientTransform="matrix(0.9663,-0.2575,0.2575,0.9663,-8.9206,14.9094)">
          <stop
             id="stop51"
             style="stop-color:#ffb01f;stop-opacity:1"
             offset="0" />
          <stop
             id="stop53"
             style="stop-color:#ff3f1f;stop-opacity:1"
             offset="1" />
        </linearGradient>
        <path
           d="m 54.094,44.234 c 0,0 1.511,-3.313 -3.353,-6.028 0,0 2.95,3.549 3.353,6.028 z"
           id="path55"
           style="fill:url(#SVGID_7_)" />
        <path
           d="m 31.267,36.896 6.333,7.709 7.584,-4.345 c 0,0 -5.77,-5.2 -6.17,-6.429 0,10e-4 -6.413,0.523 -7.747,3.065 z"
           id="path57"
           style="fill:#161616;stroke:#050505;stroke-miterlimit:10" />
        <path
           d="m 29.517,34.689 -6.828,2.393 c 0,0 5.679,6.756 6.503,8.182 0,0 12.735,-3.289 9.821,-11.432 l -9.496,0.857 z"
           id="path59"
           style="fill:#161616;stroke:#050505;stroke-miterlimit:10" />
        <linearGradient
           x1="33.701199"
           y1="17.9487"
           x2="39.466301"
           y2="18.9333"
           id="SVGID_8_"
           gradientUnits="userSpaceOnUse">
          <stop
             id="stop62"
             style="stop-color:#ffe3bf;stop-opacity:1"
             offset="0" />
          <stop
             id="stop64"
             style="stop-color:#ffb67f;stop-opacity:1"
             offset="1" />
        </linearGradient>
        <polygon
           points="35.465,21.674 34,16.199 37.703,15.208 39.168,20.683 "
           id="polygon66"
           style="fill:url(#SVGID_8_);stroke:#050505;stroke-miterlimit:10" />
        <linearGradient
           x1="34.4375"
           y1="23.562"
           x2="36.188"
           y2="37.4412"
           id="SVGID_9_"
           gradientUnits="userSpaceOnUse">
          <stop
             id="stop69"
             style="stop-color:#ffb01f;stop-opacity:1"
             offset="0" />
          <stop
             id="stop71"
             style="stop-color:#ff3f1f;stop-opacity:1"
             offset="1" />
        </linearGradient>
        <path
           d="m 27.949,35.649 c 0,0 1.665,-12.28 6.26,-14.127 4.594,-1.847 6.813,-1.698 8,0.827 1.189,2.525 -3.594,10.253 -3.594,10.253 l 0.822,2.528 c 0.001,0 -6.893,4.68 -11.488,0.519 z"
           id="path73"
           style="fill:url(#SVGID_9_);stroke:#050505;stroke-miterlimit:10" />
        <linearGradient
           x1="37.3232"
           y1="29.294901"
           x2="45.6366"
           y2="30.714701"
           id="SVGID_10_"
           gradientUnits="userSpaceOnUse"
           gradientTransform="matrix(0.9263,-0.3767,0.3767,0.9263,-6.1982,15.8329)">
          <stop
             id="stop76"
             style="stop-color:#ffe3bf;stop-opacity:1"
             offset="0" />
          <stop
             id="stop78"
             style="stop-color:#ffb67f;stop-opacity:1"
             offset="1" />
        </linearGradient>
        <path
           d="m 39.146,20.667 c 2.909,0.27 8.276,1.586 9.892,2.667 1.618,1.08 -1.432,9.401 -1.432,9.401 0,0 0.335,3.571 -2.431,2.946 -2.765,-0.624 -3.171,-2.495 -1.555,-3.779 0,0 0.187,-2.527 1.861,-1.202 0,0 -0.355,-2.799 0.184,-4.823 l -5.512,-0.52 c 0.001,0.001 -4.914,-1.83 -1.007,-4.69 z"
           id="path80"
           style="fill:url(#SVGID_10_);stroke:#050505;stroke-miterlimit:3" />
        <g
           id="g82">
          <linearGradient
             x1="32.299801"
             y1="4.9394999"
             x2="39.5126"
             y2="17.824699"
             id="SVGID_11_"
             gradientUnits="userSpaceOnUse">
            <stop
               id="stop85"
               style="stop-color:#ffe3bf;stop-opacity:1"
               offset="0" />
            <stop
               id="stop87"
               style="stop-color:#ffb67f;stop-opacity:1"
               offset="1" />
          </linearGradient>
          <path
             d="m 43.383,11.102 c 0,4.616 -3.445,6.31 -7.359,7.358 -4.459,1.194 -7.771,-1.554 -7.771,-6.169 0,-7.005 3.154,-10.548 7.771,-10.548 4.617,0 7.359,4.742 7.359,9.359 z"
             id="path89"
             style="fill:url(#SVGID_11_);stroke:#050505;stroke-miterlimit:10" />
          <polyline
             fill="none"
             stroke="#19120F"
             stroke-miterlimit="10"
             points="28.688,9.162 32.25,8.037 33.375,8.912   "
             id="polyline91"
             style="fill:none;stroke:#19120f;stroke-miterlimit:10" />
          <polygon
             points="38.625,8.724 38.563,9.224 31,9.537 31.313,8.662 "
             id="polygon93"
             style="fill:#1065fc" />
          <path
             d="m 29.875,5.349 c 0,0 4.313,-0.625 7.438,-0.188 C 39.139,8.002 38,9.537 38,9.537 l 0.938,0.375 c 0,0 2.688,-0.875 1.063,4.25 l 1.625,1.563 C 42.689,15.225 45.189,10.85 43.439,6.1 40.818,-1.009 30.688,1.162 29.875,5.349 z"
             id="path95"
             style="fill:#4f3f34;stroke:#19120f;stroke-miterlimit:10" />
          <path
             d="m 28,9.912 c 0,0 1,2.375 1.875,2.25 0.548,-0.078 3.25,-2.25 3.25,-2.25 0,0 -0.297,-0.719 -0.438,-0.875 C 32.125,8.412 30.25,8.224 28,8.974 v 0.938 z"
             id="path97"
             style="fill:#000091" />
        </g>
      </g>
    </svg>
    <svg
       id="frame3"
       viewBox="0 0 64 64"
       preserveAspectRatio="none"
       version="1.1">
      <metadata
         id="metadata3430">
        <rdf:RDF>
          <cc:Work
             rdf:about="">
            <dc:format>
              image/svg+xml
            </dc:format>
            <dc:type
               rdf:resource="http://purl.org/dc/dcmitype/StillImage" />
            <dc:title />
          </cc:Work>
        </rdf:RDF>
      </metadata>
      <defs
         id="defs3428" />
      <g
         id="_x30_4_1_">
        <linearGradient
           x1="30.835899"
           y1="23.191401"
           x2="33.906898"
           y2="34.9767"
           id="linearGradient221"
           gradientUnits="userSpaceOnUse"
           gradientTransform="matrix(-0.7597,-0.6503,0.6503,-0.7597,47.2342,72.4861)">
          <stop
             id="stop3309"
             style="stop-color:#ffe3bf;stop-opacity:1"
             offset="0" />
          <stop
             id="stop3311"
             style="stop-color:#ffb67f;stop-opacity:1"
             offset="1" />
        </linearGradient>
        <path
           d="m 41.399,23.077 c 0,0 6.385,1.974 7.46,3.595 1.077,1.619 -5.684,8.7 -5.684,8.7 0,0 -1.068,3.425 -3.378,1.782 -2.311,-1.642 -1.967,-3.523 0.021,-4.081 0,0 0.084,-1.724 1.783,-0.379 0,0 1.595,-3.054 2.746,-4.139 l -7.296,-3.476 4.348,-2.002 z"
           id="path3313"
           style="fill:url(#SVGID_1_);stroke:#050505;stroke-miterlimit:3" />
        <linearGradient
           x1="33.701199"
           y1="19.8501"
           x2="39.466301"
           y2="20.8347"
           id="linearGradient226"
           gradientUnits="userSpaceOnUse">
          <stop
             id="stop3316"
             style="stop-color:#ffe3bf;stop-opacity:1"
             offset="0" />
          <stop
             id="stop3318"
             style="stop-color:#ffb67f;stop-opacity:1"
             offset="1" />
        </linearGradient>
        <polygon
           points="35.465,23.576 34,18.101 37.703,17.11 39.168,22.584 "
           id="polygon3320"
           style="fill:url(#SVGID_2_);stroke:#050505;stroke-miterlimit:10" />
        <linearGradient
           x1="26.111799"
           y1="42.658199"
           x2="25.8137"
           y2="45.439999"
           id="linearGradient231"
           gradientUnits="userSpaceOnUse"
           gradientTransform="matrix(0.9828,-0.1845,0.1845,0.9828,-7.7771,5.1906)">
          <stop
             id="stop3323"
             style="stop-color:#ffe3bf;stop-opacity:1"
             offset="0" />
          <stop
             id="stop3325"
             style="stop-color:#ffb67f;stop-opacity:1"
             offset="1" />
        </linearGradient>
        <path
           d="m 28.022,38.215 c 0,0 -7.18,2.69 -7.966,3.471 -2.684,2.664 1.331,6.436 3.333,9.745 l 3.275,-0.871 c 0,0 -0.392,-2.954 -2.431,-5.212 l 8.233,-3.139 -4.444,-3.994 z"
           id="path3327"
           style="fill:url(#SVGID_3_);stroke:#050505;stroke-miterlimit:3" />
        <path
           d="m 25.954,48.121 0.383,2.526 -2.946,0.783 c 0,0 -1.898,2.198 -2.837,3.387 -0.54,0.684 -1.402,2.661 2.201,1.982 l 5.884,-4.328 1.06,-1.132 c -0.001,0.001 -0.618,-2.685 -3.745,-3.218 z"
           id="path3329"
           style="stroke:#050505;stroke-miterlimit:3" />
        <path
           d="m 28.41,37.152 -6.269,3.612 c 0,0 6.828,5.592 7.901,6.841 0,0 11.91,-5.583 7.543,-13.048 l -9.175,2.595 z"
           id="path3331"
           style="fill:#161616;stroke:#050505;stroke-miterlimit:10" />
        <g
           id="g3333">
          <linearGradient
             x1="43.472698"
             y1="46.5518"
             x2="43.892799"
             y2="54.016899"
             id="linearGradient239"
             gradientUnits="userSpaceOnUse"
             gradientTransform="matrix(0.8742,0.4854,-0.4854,0.8742,25.8061,-15.8031)">
            <stop
               id="stop3336"
               style="stop-color:#ffe3bf;stop-opacity:1"
               offset="0" />
            <stop
               id="stop3338"
               style="stop-color:#ffb67f;stop-opacity:1"
               offset="1" />
          </linearGradient>
          <path
             d="m 33.517,42.864 c 0,0 2.801,6.126 3.479,7.001 0.681,0.873 3.404,3.051 6.93,6.229 l 2.186,-1.188 c 0,0 -3.712,-5.785 -5.444,-8.281 l -3.173,-8.222 -3.978,4.461 z"
             id="path3340"
             style="fill:url(#SVGID_4_);stroke:#050505;stroke-miterlimit:3" />
          <path
             d="m 44.002,51.431 1.134,2.813 -2.292,1.669 c 0,0 -0.464,2.453 -1.104,3.612 -0.718,1.3 -1.036,2.676 1.863,1.304 l 3.956,-5.109 0.628,-1.233 c 0,-0.002 -1.396,-3.251 -4.185,-3.056 z"
             id="path3342"
             style="stroke:#050505;stroke-miterlimit:3" />
          <path
             d="m 29.537,33.493 2.856,12.309 8.74,-0.117 c 0,0 -2.52,-7.347 -2.273,-8.615 0,-10e-4 -5.862,-3.373 -9.323,-3.577 z"
             id="path3344"
             style="fill:#161616;stroke:#050505;stroke-miterlimit:10" />
        </g>
        <linearGradient
           x1="34.438499"
           y1="25.461901"
           x2="36.188"
           y2="39.333599"
           id="linearGradient246"
           gradientUnits="userSpaceOnUse">
          <stop
             id="stop3347"
             style="stop-color:#ffb01f;stop-opacity:1"
             offset="0" />
          <stop
             id="stop3349"
             style="stop-color:#ff3f1f;stop-opacity:1"
             offset="1" />
        </linearGradient>
        <path
           d="m 27.949,37.542 c 0,0 1.665,-12.271 6.26,-14.118 4.594,-1.847 6.813,-1.698 8,0.827 1.189,2.525 -3.594,10.246 -3.594,10.246 l 0.822,2.526 c 0.001,-0.001 -6.893,4.679 -11.488,0.519 z"
           id="path3351"
           style="fill:url(#SVGID_5_);stroke:#050505;stroke-miterlimit:10" />
        <linearGradient
           x1="35.851601"
           y1="30.292"
           x2="44.015499"
           y2="31.6863"
           id="linearGradient251"
           gradientUnits="userSpaceOnUse"
           gradientTransform="matrix(-0.0313,0.9995,-0.9995,-0.0313,63.1737,-12.2386)">
          <stop
             id="stop3354"
             style="stop-color:#ffe3bf;stop-opacity:1"
             offset="0" />
          <stop
             id="stop3356"
             style="stop-color:#ffb67f;stop-opacity:1"
             offset="1" />
        </linearGradient>
        <path
           d="m 39.452,25.558 c -1.408,4.439 -4.806,6.922 -6.449,7.96 -1.642,1.042 -8.008,-5.12 -8.008,-5.12 0,0 -3.4,-1.142 -1.708,-3.417 1.691,-2.273 3.567,-1.888 4.084,0.11 0,0 2.23,1.195 0.342,2.189 0,0 2.701,0.81 4.333,2.123 l 1.846,-4.126 c 0,10e-4 4.53,-4.45 5.56,0.281 z"
           id="path3358"
           style="fill:url(#SVGID_6_);stroke:#050505;stroke-miterlimit:3" />
        <g
           id="g3360"
           style="display:none">
          <path
             d="M 28.253,7.951"
             id="path3362"
             style="fill:none;stroke:#c10d23;stroke-miterlimit:10;display:inline" />
          <linearGradient
             x1="32.7729"
             y1="6.6395998"
             x2="40.190399"
             y2="19.8904"
             id="linearGradient258"
             gradientUnits="userSpaceOnUse">
            <stop
               id="stop3365"
               style="stop-color:#ffe3bf;stop-opacity:1"
               offset="0" />
            <stop
               id="stop3367"
               style="stop-color:#ffb67f;stop-opacity:1"
               offset="1" />
          </linearGradient>
          <path
             d="m 44.383,12.003 c 0,4.616 -3.742,8.358 -8.359,8.358 -4.616,0 -7.771,-1.554 -7.771,-6.169 0,-7.005 3.154,-10.548 7.771,-10.548 4.617,10e-4 8.359,3.743 8.359,8.359 z"
             id="path3369"
             style="fill:url(#SVGID_7_);stroke:#050505;stroke-miterlimit:10;display:inline" />
          <path
             d="m 31.518,10.423 c -0.367,0 -0.682,0.375 -0.828,0.912 l 0.577,0.558 -0.659,0.219 c 0.032,0.821 0.425,1.472 0.91,1.472 0.506,0 0.915,-0.708 0.915,-1.581 0,-0.873 -0.41,-1.58 -0.915,-1.58 z"
             id="path3371"
             style="fill:#002a49;display:inline" />
          <path
             d="m 28.322,15.273 c 0,0 3.11,0.34 3.747,1.378 0.636,1.038 -0.95,2.85 -0.95,2.85 l 1.627,0.608 c 0,0 1.823,-4.19 0,-4.835 -1.823,-0.645 -4.69,-1.271 -4.424,-10e-4 z"
             id="path3373"
             style="fill:#302721;display:inline" />
          <polyline
             display="inline"
             fill="none"
             stroke="#302721"
             stroke-miterlimit="10"
             points="30.125,9.313 32.688,9.126 33.25,9.813       "
             id="polyline3375"
             style="fill:none;stroke:#302721;stroke-miterlimit:10;display:inline" />
          <path
             d="m 31.688,4.813 c 0,0 4.563,-0.938 5.688,0.813 1.826,2.841 -0.125,5.875 -0.125,5.875 l 1.688,0.313 c 0,0 2.688,-0.875 1.063,4.25 l 1.438,2.125 c 0,0 5.438,-3.438 2,-10.188 -3.438,-6.75 -11.315,-4 -11.752,-3.188 z"
             id="path3377"
             style="fill:#a08878;stroke:#514139;stroke-miterlimit:10;display:inline" />
          <path
             d="M 30.418,14.631"
             id="path3379"
             style="fill:none;stroke:#442116;stroke-width:0.3876;stroke-miterlimit:10;display:inline" />
          <path
             d="M 29.169,10.23"
             id="path3381"
             style="fill:none;stroke:#442116;stroke-width:0.3876;stroke-miterlimit:10;display:inline" />
        </g>
        <linearGradient
           x1="32.299301"
           y1="6.8407998"
           x2="39.5121"
           y2="19.726"
           id="linearGradient269"
           gradientUnits="userSpaceOnUse">
          <stop
             id="stop3384"
             style="stop-color:#ffe3bf;stop-opacity:1"
             offset="0" />
          <stop
             id="stop3386"
             style="stop-color:#ffb67f;stop-opacity:1"
             offset="1" />
        </linearGradient>
        <path
           d="m 43.383,13.003 c 0,4.616 -3.445,6.31 -7.359,7.358 -4.459,1.194 -7.771,-1.554 -7.771,-6.169 0,-7.005 3.154,-10.548 7.771,-10.548 4.617,10e-4 7.359,4.743 7.359,9.359 z"
           id="path3388"
           style="fill:url(#SVGID_8_);stroke:#050505;stroke-miterlimit:10" />
        <polyline
           fill="none"
           stroke="#19120F"
           stroke-miterlimit="10"
           points="28.688,11.063 32.25,9.938 33.375,10.813  "
           id="polyline3390"
           style="fill:none;stroke:#19120f;stroke-miterlimit:10" />
        <polygon
           points="38.625,10.626 38.563,11.126 31,11.438 31.313,10.563 "
           id="polygon3392"
           style="fill:#1065fc" />
        <path
           d="m 29.875,7.251 c 0,0 4.313,-0.625 7.438,-0.188 C 39.139,9.904 38,11.438 38,11.438 l 0.938,0.375 c 0,0 2.688,-0.875 1.063,4.25 l 1.625,1.563 c 1.063,-0.5 3.563,-4.875 1.813,-9.625 C 40.818,0.893 30.688,3.063 29.875,7.251 z"
           id="path3394"
           style="fill:#4f3f34;stroke:#19120f;stroke-miterlimit:10" />
        <path
           d="m 28,11.813 c 0,0 1,2.375 1.875,2.25 0.548,-0.078 3.25,-2.25 3.25,-2.25 0,0 -0.297,-0.719 -0.438,-0.875 -0.563,-0.625 -2.438,-0.813 -4.688,-0.063 v 0.938 z"
           id="path3396"
           style="fill:#000091" />
        <linearGradient
           x1="11.1191"
           y1="46.321301"
           x2="11.6451"
           y2="50.491501"
           id="linearGradient278"
           gradientUnits="userSpaceOnUse"
           gradientTransform="matrix(-0.0741,-0.9973,0.9973,-0.0741,-21.5265,67.2621)">
          <stop
             id="stop3399"
             style="stop-color:#ffb01f;stop-opacity:1"
             offset="0" />
          <stop
             id="stop3401"
             style="stop-color:#ff3f1f;stop-opacity:1"
             offset="1" />
        </linearGradient>
        <path
           d="m 23.518,55.257 c 0,0 4.005,-0.924 3.84,-5.675 0,0 -0.616,2.678 -3.84,5.675 z"
           id="path3403"
           style="fill:url(#SVGID_9_)" />
        <linearGradient
           x1="48.450199"
           y1="51.500999"
           x2="49.186798"
           y2="57.3414"
           id="linearGradient283"
           gradientUnits="userSpaceOnUse"
           gradientTransform="matrix(0.886,0.4637,-0.4637,0.886,27.0031,-13.7896)">
          <stop
             id="stop3406"
             style="stop-color:#ffb01f;stop-opacity:1"
             offset="0" />
          <stop
             id="stop3408"
             style="stop-color:#ff3f1f;stop-opacity:1"
             offset="1" />
        </linearGradient>
        <path
           d="m 44.002,59.624 c 0,0 3.353,-1.42 1.605,-6.708 0,0 -0.224,4.608 -1.605,6.708 z"
           id="path3410"
           style="fill:url(#SVGID_10_)" />
        <linearGradient
           x1="22.1665"
           y1="46.787102"
           x2="31.5"
           y2="46.787102"
           id="linearGradient288"
           gradientUnits="userSpaceOnUse">
          <stop
             id="stop3413"
             style="stop-color:#ffe3bf;stop-opacity:1"
             offset="0" />
          <stop
             id="stop3415"
             style="stop-color:#ffb67f;stop-opacity:1"
             offset="1" />
        </linearGradient>
        <path
           d="m 22.25,42.496 c 0,0 3.333,5.75 9.25,8.583 0,0 -7.333,-0.999 -9.333,-5.416 l 0.083,-3.167 z"
           id="path3417"
           style="fill:url(#SVGID_11_);display:none" />
        <linearGradient
           x1="18.75"
           y1="49.746101"
           x2="32.0835"
           y2="49.746101"
           id="SVGID_12_"
           gradientUnits="userSpaceOnUse">
          <stop
             id="stop3420"
             style="stop-color:#ffe3bf;stop-opacity:1"
             offset="0" />
          <stop
             id="stop3422"
             style="stop-color:#ffb67f;stop-opacity:1"
             offset="1" />
        </linearGradient>
        <path
           d="m 18.833,44.246 -0.083,3.667 c 0,0 3.167,6.416 13.333,7.333 0,0 -10.416,-3.917 -13.25,-11 z"
           id="path3424"
           style="fill:url(#SVGID_12_);display:none" />
      </g>
    </svg>
    <!-- Animation. -->
  </defs>
  <!-- Main control. -->
  <animate
     id="controller"
     begin="0s"
     dur="0.7999999999999999s"
     repeatCount="indefinite" />
  <use
     xlink:href="#frame0"
     id="use629">
    <set
       attributeName="xlink:href"
       to="#animation"
       begin="controller.begin"
       id="set631" />
    <set
       attributeName="xlink:href"
       to="#frame7"
       begin="controller.end"
       id="set633" />
  </use>
</svg>
