<?xml version="1.0" encoding="utf-8"?>
<!-- Generator: Adobe Illustrator 17.0.0, SVG Export Plug-In . SVG Version: 6.00 Build 0)  -->
<!DOCTYPE svg PUBLIC "-//W3C//DTD SVG 1.1//EN" "http://www.w3.org/Graphics/SVG/1.1/DTD/svg11.dtd">
<svg version="1.1" id="レイヤー_1" xmlns="http://www.w3.org/2000/svg" xmlns:xlink="http://www.w3.org/1999/xlink" x="0px"
	 y="0px" width="64px" height="64px" viewBox="0 0 64 64" style="enable-background:new 0 0 64 64;" xml:space="preserve">
<g>
	<linearGradient id="SVGID_1_" gradientUnits="userSpaceOnUse" x1="32" y1="4.5" x2="32" y2="59.5">
		<stop  offset="0" style="stop-color:#6BCF40;stop-opacity:0.8"/>
		<stop  offset="0.4" style="stop-color:#159B3A"/>
		<stop  offset="0.6" style="stop-color:#159B3A"/>
		<stop  offset="1" style="stop-color:#51B526;stop-opacity:0.8"/>
	</linearGradient>
	<path style="fill:url(#SVGID_1_);" d="M62,34.5c0,13.8071175-11.25,25-30,25S2,48.3071175,2,34.5s12.5-30,30-30
		S62,20.6928806,62,34.5z"/>
	<linearGradient id="SVGID_2_" gradientUnits="userSpaceOnUse" x1="32" y1="4" x2="32" y2="60">
		<stop  offset="0" style="stop-color:#D4FFD5"/>
		<stop  offset="1" style="stop-color:#00FF2C"/>
	</linearGradient>
	<path style="fill:url(#SVGID_2_);" d="M32,60C14.0419922,60,1.5,49.5136719,1.5,34.5C1.5,20.1025391,14.543457,4,32,4
		c17.4560547,0,30.5,16.1025391,30.5,30.5C62.5,49.5136719,49.9580078,60,32,60z M32,5.4576273c-16.5981026,0-29,15.310729-29,29
		c0,14.1803169,11.925252,24.0847473,29,24.0847473s29-9.9044304,29-24.0847473C61,20.7683563,48.5976219,5.4576273,32,5.4576273z"
		/>
	<linearGradient id="SVGID_3_" gradientUnits="userSpaceOnUse" x1="31.9997559" y1="3.154134" x2="31.9997559" y2="60.8453789">
		<stop  offset="0" style="stop-color:#009245"/>
		<stop  offset="0.4" style="stop-color:#00BC40"/>
		<stop  offset="0.6" style="stop-color:#00BC40"/>
		<stop  offset="1" style="stop-color:#009245"/>
	</linearGradient>
	<path style="fill:url(#SVGID_3_);" d="M32,60.8453789c-18.4739742,0-31.3766403-10.8212776-31.3766403-26.3146057
		C0.6233594,19.7195587,14.041626,3.154134,32,3.154134c17.9578857,0,31.376152,16.565424,31.376152,31.3766384
		C63.376152,50.0241013,50.4739723,60.8453789,32,60.8453789z M32,4.1512537
		c-17.38727,0-30.3795204,16.0391121-30.3795204,30.3795204C1.6204789,49.4369278,14.1131964,59.848259,32,59.848259
		s30.3790321-10.4113312,30.3790321-25.3174858C62.3790321,20.1903667,49.3872681,4.1512537,32,4.1512537z"/>
	<linearGradient id="SVGID_4_" gradientUnits="userSpaceOnUse" x1="32" y1="7.8333335" x2="32" y2="42.8333321">
		<stop  offset="0" style="stop-color:#F5FFD2;stop-opacity:0.6"/>
		<stop  offset="1" style="stop-color:#F5FFD2;stop-opacity:0"/>
	</linearGradient>
	<path style="fill:url(#SVGID_4_);" d="M54.522728,28.4721546c0,6.7936115-8.446022,14.3611774-22.522728,14.3611774
		S9.477273,35.2657661,9.477273,28.4721546c0-9.4987564,9.384469-20.6388206,22.522728-20.6388206
		S54.522728,18.9733982,54.522728,28.4721546z"/>
	<linearGradient id="SVGID_5_" gradientUnits="userSpaceOnUse" x1="22.625" y1="8.25" x2="22.625" y2="22">
		<stop  offset="0.3" style="stop-color:#FFFFFF;stop-opacity:0.6"/>
		<stop  offset="1" style="stop-color:#FFFFFF;stop-opacity:0.2"/>
	</linearGradient>
	<circle style="fill:url(#SVGID_5_);" cx="22.625" cy="15.125" r="6.875"/>
	<linearGradient id="SVGID_6_" gradientUnits="userSpaceOnUse" x1="46.375" y1="47.75" x2="46.375" y2="54">
		<stop  offset="0.3" style="stop-color:#FFFFFF;stop-opacity:0.4"/>
		<stop  offset="1" style="stop-color:#FFFFFF;stop-opacity:0"/>
	</linearGradient>
	<circle style="fill:url(#SVGID_6_);" cx="46.375" cy="50.875" r="3.125"/>
	<linearGradient id="SVGID_7_" gradientUnits="userSpaceOnUse" x1="46.375" y1="49.125" x2="46.375" y2="52.625">
		<stop  offset="0.3" style="stop-color:#FFFFFF;stop-opacity:0.4"/>
		<stop  offset="1" style="stop-color:#FFFFFF;stop-opacity:0"/>
	</linearGradient>
	<circle style="fill:url(#SVGID_7_);" cx="46.375" cy="50.875" r="1.75"/>
	<linearGradient id="SVGID_8_" gradientUnits="userSpaceOnUse" x1="22.625" y1="9.75" x2="22.625" y2="20.5">
		<stop  offset="0.3" style="stop-color:#FFFFFF"/>
		<stop  offset="1" style="stop-color:#FFFFFF;stop-opacity:0.2"/>
	</linearGradient>
	<circle style="fill:url(#SVGID_8_);" cx="22.625" cy="15.125" r="5.375"/>
</g>
<g>
	<g>
		<polygon style="fill:#E43860;" points="10.5082998,26.5580997 9.16504,24.9745998 7.2978501,26.5580997 5.9545898,24.9745998 
			3.6665001,26.9150009 6.5864301,30.3574009 8.4540997,28.7738991 9.7973604,30.3574009 11.6640997,28.7738991 
			13.0073004,30.3574009 15.2953997,28.4169998 12.3754997,24.9745998 		"/>
		<polygon style="fill:#E43860;" points="60.0985985,28.4160004 57.1786995,24.9745998 55.3125,26.5585995 53.9668007,24.9741001 
			52.1016006,26.5576 50.7578011,24.9745998 48.4706993,26.9150009 51.3905983,30.3563995 53.2568016,28.7728996 
			54.6016006,30.3568993 56.4678001,28.7728996 57.8115005,30.3563995 		"/>
	</g>
	<g>
		<polygon style="fill:#E43860;" points="10.5082998,26.5580997 9.16504,24.9745998 7.2978501,26.5580997 5.9545898,24.9745998 
			3.6665001,26.9150009 6.5864301,30.3574009 8.4540997,28.7738991 9.7973604,30.3574009 11.6640997,28.7738991 
			13.0073004,30.3574009 15.2953997,28.4169998 12.3754997,24.9745998 		"/>
		<polygon style="fill:#E43860;" points="60.0985985,28.4160004 57.1786995,24.9745998 55.3125,26.5585995 53.9668007,24.9741001 
			52.1016006,26.5576 50.7578011,24.9745998 48.4706993,26.9150009 51.3905983,30.3563995 53.2568016,28.7728996 
			54.6016006,30.3568993 56.4678001,28.7728996 57.8115005,30.3563995 		"/>
	</g>
</g>
<g>
	<path style="fill:#FFFFFF;" d="M50.5009995,36.3311005C44.1865005,37.3604012,36.1660004,37.9971008,32,37.9971008
		c-4.1669998,0-12.1870003-0.6366997-18.5014992-1.6660004c0,10.1004982,7.1680002,17.8075981,18.5009995,17.8075981l0,0H32l0,0l0,0
		C43.3330002,54.1386986,50.5009995,46.4315987,50.5009995,36.3311005z"/>
	<path style="fill:#350000;" d="M32,55.1386719c-11.4819336,0-19.5014648-7.734375-19.5014648-18.8076172
		c0-0.2929688,0.1289063-0.5722656,0.3520508-0.7617188c0.2231445-0.1904297,0.5214844-0.2734375,0.8085938-0.2255859
		C20.0068359,36.3789063,27.9692383,36.9970703,32,36.9970703c4.0302734,0,11.9921875-0.6181641,18.3398438-1.6533203
		c0.2900391-0.0478516,0.5859375,0.0351563,0.8085938,0.2255859c0.2236328,0.1894531,0.3525391,0.46875,0.3525391,0.7617188
		C51.5009766,47.4042969,43.4814453,55.1386719,32,55.1386719z M14.5327148,37.5048828
		c0.546875,9.2646484,7.5751953,15.6337891,17.4667969,15.6337891H32c9.8916016,0,16.9199219-6.3691406,17.4667969-15.6337891
		C43.2421875,38.4433594,35.859375,38.9970703,32,38.9970703C28.1401367,38.9970703,20.7578125,38.4433594,14.5327148,37.5048828z"
		/>
</g>
<g>
	<path style="fill:#350000;" d="M51.0966797,23.7929688l-2.9863281-0.2851563
		c0.2050781-2.1484375-1.1826172-4.0449219-3.0927734-4.2275391c-1.9160156-0.1748047-3.6308594,1.4204102-3.8378906,3.5703125
		l-2.9863281-0.2871094c0.3642578-3.7963867,3.5458984-6.6074219,7.109375-6.2695313
		C48.859375,16.6337891,51.4589844,19.9980469,51.0966797,23.7929688z"/>
	<path style="fill:#350000;" d="M12.9150391,23.8828125c-0.418457-3.7890625,2.1015625-7.1894531,5.6166992-7.5800781
		c3.515625-0.3911133,6.71875,2.3779297,7.1386719,6.168457l-2.9814453,0.3300781
		c-0.2382813-2.1455078-1.9526367-3.7246094-3.8266602-3.5170898c-1.871582,0.2080078-3.2021484,2.1235352-2.9658203,4.2695313
		L12.9150391,23.8828125z"/>
</g>
<g>
</g>
<g>
</g>
<g>
</g>
<g>
</g>
<g>
</g>
<g>
</g>
</svg>
