<?xml version="1.0" encoding="utf-8"?>
<!-- Generator: Adobe Illustrator 17.0.0, SVG Export Plug-In . SVG Version: 6.00 Build 0)  -->
<!DOCTYPE svg PUBLIC "-//W3C//DTD SVG 1.1//EN" "http://www.w3.org/Graphics/SVG/1.1/DTD/svg11.dtd">
<svg version="1.1" id="レイヤー_1" xmlns="http://www.w3.org/2000/svg" xmlns:xlink="http://www.w3.org/1999/xlink" x="0px"
	 y="0px" width="64px" height="64px" viewBox="0 0 64 64" style="enable-background:new 0 0 64 64;" xml:space="preserve">
<g>
	<path style="fill:#3E3A39;" d="M59.3624306,59.1268768c-6.1720924,6.1720886-11.4415741,0.902607-14.2729607-1.9287796
		L34.4811897,46.589817c-2.6829624-2.6829605-3.9573879-5.5825348-3.2032051-7.0901451
		c-5.52565-6.0756531-7.8217239-9.659338-6.8264446-10.6546173L6.3210216,10.7145357
		C5.2843032,9.6778173,4.181283,5.7132735,4.0588508,5.2646065L3.9755969,4.9590912l1.2190485-1.2190485l0.3055153,0.0832539
		c0.448667,0.1224322,4.4132113,1.2254524,5.4499297,2.2621708l18.130518,18.1305199
		c0.9952793-0.9952812,4.5793419,1.3004189,10.654995,6.826067c1.5068588-0.7534294,4.4068069,0.5206203,7.0897675,3.2035789
		l10.6082802,10.608284C60.2650375,47.6853027,65.534523,52.9547844,59.3624306,59.1268768z M25.2230511,29.6165657
		c-0.110754,0.8453465,3.6123161,5.5976028,7.1534328,9.4687195l0.3518524,0.3850021l-0.3688049,0.3688049
		c-0.6441822,0.6441803,0.1446571,3.2307014,2.8931694,5.9792137L45.860981,56.4265862
		c2.9187851,2.9187851,7.3293571,7.3293571,12.7299385,1.9287796s0.9900055-9.8111534-1.9287796-12.7299385L46.0538597,35.0171471
		c-2.7485085-2.7485123-5.3350334-3.5373516-5.9792137-2.8931694l-0.3691788,0.3691788l-0.3842506-0.3526039
		c-3.8711205-3.5411167-8.6241264-7.2634335-9.5519733-7.1033287l-0.6886349,0.7217846L10.1785784,6.8569789
		C9.5890207,6.2674208,7.1286979,5.4201894,5.5171127,4.960598L5.1961522,5.2815585
		c0.4599686,1.6119618,1.3075762,4.0726609,1.8963809,4.6614661l18.902029,18.9020309L25.2230511,29.6165657z"/>
	<g>
		
			<linearGradient id="SVGID_1_" gradientUnits="userSpaceOnUse" x1="32.9743919" y1="11.4391794" x2="38.4298019" y2="11.4391794" gradientTransform="matrix(0.7071068 -0.7071068 0.7071068 0.7071068 -16.7903671 33.4644661)">
			<stop  offset="0" style="stop-color:#3E3A39"/>
			<stop  offset="0.1651376" style="stop-color:#B2B2B3"/>
			<stop  offset="0.233945" style="stop-color:#B2B2B3"/>
			<stop  offset="0.38" style="stop-color:#868686"/>
			<stop  offset="0.6146789" style="stop-color:#F5F5F5"/>
			<stop  offset="0.7844037" style="stop-color:#F5F5F5"/>
			<stop  offset="1" style="stop-color:#3E3A39"/>
		</linearGradient>
		<path style="fill:url(#SVGID_1_);" d="M30.0449982,25.9518871l-3.8575573,3.8575554
			c0,0-18.5162735-18.5162735-19.4806633-19.4806633S4.5851212,5.121078,4.5851212,5.121078l0.7715116-0.7715111
			c0,0,4.2433124,1.1572671,5.2077022,2.1216564S30.0449982,25.9518871,30.0449982,25.9518871z"/>
		
			<linearGradient id="SVGID_2_" gradientUnits="userSpaceOnUse" x1="36.2476387" y1="-0.9377804" x2="37.9865494" y2="-0.9377804" gradientTransform="matrix(0.7071068 -0.7071068 0.7071068 0.7071068 -16.7903671 33.4644661)">
			<stop  offset="0" style="stop-color:#9C9C9D"/>
			<stop  offset="0.1880734" style="stop-color:#717071"/>
			<stop  offset="0.4036697" style="stop-color:#717071"/>
			<stop  offset="1" style="stop-color:#D9DADA"/>
		</linearGradient>
		<path style="fill:url(#SVGID_2_);" d="M5.5495105,4.5424447c0,0,2.4109731,2.4109731,2.9896064,2.9896069
			s3.4959116,1.0367179,3.4959116,1.0367179s-1.5238657-1.5238652-2.0734377-2.0734367
			C9.4120197,5.9457617,5.5495105,4.5424447,5.5495105,4.5424447z"/>
		
			<linearGradient id="SVGID_3_" gradientUnits="userSpaceOnUse" x1="30.5823574" y1="-0.9377804" x2="28.8434448" y2="-0.9377804" gradientTransform="matrix(-0.7071068 0.7071068 0.7071068 0.7071068 28.4644661 -11.7903681)">
			<stop  offset="0" style="stop-color:#C6C7C8"/>
			<stop  offset="0.5733945" style="stop-color:#717071"/>
			<stop  offset="0.7798165" style="stop-color:#717071"/>
			<stop  offset="1" style="stop-color:#9C9C9D"/>
		</linearGradient>
		<path style="fill:url(#SVGID_3_);" d="M4.7779989,5.3139563c0,0,2.4109731,2.4109731,2.9896069,2.9896069
			s1.0367184,3.4959106,1.0367184,3.4959106S7.2804585,10.2756081,6.7308869,9.726037S4.7779989,5.3139563,4.7779989,5.3139563z"/>
	</g>
	<g>
		
			<linearGradient id="SVGID_4_" gradientUnits="userSpaceOnUse" x1="35.702095" y1="38.7162285" x2="35.702095" y2="26.441555" gradientTransform="matrix(0.7071068 -0.7071068 0.7071068 0.7071068 -16.7903671 33.4644661)">
			<stop  offset="0" style="stop-color:#3E3A39"/>
			<stop  offset="0.9678899" style="stop-color:#B2B2B3"/>
			<stop  offset="1" style="stop-color:#595757"/>
		</linearGradient>
		<path style="fill:url(#SVGID_4_);" d="M24.8372955,29.2308102c-1.1572666,1.1572666,7.1364803,10.2225246,7.1364803,10.2225246
			l7.7151127-7.7151127c0,0-9.065258-8.2937489-10.2225246-7.1364803
			C28.3090973,25.7590084,24.8372955,29.2308102,24.8372955,29.2308102z"/>
		
			<linearGradient id="SVGID_5_" gradientUnits="userSpaceOnUse" x1="30.8451786" y1="32.6698151" x2="40.5590134" y2="32.6698151" gradientTransform="matrix(0.7071068 -0.7071068 0.7071068 0.7071068 -16.7903671 33.4644661)">
			<stop  offset="0.2247706" style="stop-color:#B2B2B3"/>
			<stop  offset="0.3440367" style="stop-color:#868686"/>
			<stop  offset="0.4541284" style="stop-color:#868686"/>
			<stop  offset="0.6146789" style="stop-color:#F5F5F5"/>
			<stop  offset="0.7522936" style="stop-color:#F5F5F5"/>
			<stop  offset="1" style="stop-color:#B2B2B3"/>
		</linearGradient>
		<path style="fill:url(#SVGID_5_);" d="M25.219799,29.1054764c-1.0303078,1.0303078,7.1771736,9.9246635,7.1771736,9.9246635
			l6.868721-6.868721c0,0-8.8943558-8.2074814-9.9246635-7.1771736S25.219799,29.1054764,25.219799,29.1054764z"/>
		
			<linearGradient id="SVGID_6_" gradientUnits="userSpaceOnUse" x1="39.4622459" y1="38.7162285" x2="39.4622459" y2="26.6233578" gradientTransform="matrix(0.7071068 -0.7071068 0.7071068 0.7071068 -16.7903671 33.4644661)">
			<stop  offset="0" style="stop-color:#F5F5F5;stop-opacity:0"/>
			<stop  offset="0.1" style="stop-color:#F5F5F5"/>
			<stop  offset="0.2431193" style="stop-color:#F5F5F5"/>
			<stop  offset="1" style="stop-color:#F5F5F5;stop-opacity:0"/>
		</linearGradient>
		<path style="fill:url(#SVGID_6_);" d="M29.3409977,24.9842148c-0.0528603,0.0528603-0.1143417,0.1143417-0.1772995,0.1773014
			c0.9277382-0.9277401,9.78792,7.3139782,9.78792,7.3139782l0.3140564-0.3140564
			C39.2656746,32.161438,30.3713055,23.953907,29.3409977,24.9842148z"/>
	</g>
	<g>
		
			<linearGradient id="SVGID_7_" gradientUnits="userSpaceOnUse" x1="27.5189819" y1="55.0824547" x2="43.8852119" y2="55.0824547" gradientTransform="matrix(0.7071068 -0.7071068 0.7071068 0.7071068 -16.7903671 33.4644661)">
			<stop  offset="0" style="stop-color:#871B00"/>
			<stop  offset="0.3" style="stop-color:#DC1212"/>
			<stop  offset="0.7" style="stop-color:#DC1212"/>
			<stop  offset="1" style="stop-color:#871B00"/>
		</linearGradient>
		<path style="fill:url(#SVGID_7_);" d="M31.9737759,39.4533348c-0.9643898,0.9643898,0,3.8575592,2.8931675,6.7507248
			c2.8931694,2.8931694,7.7151146,7.7151146,10.608284,10.608284c2.8931656,2.8931656,7.7151108,7.7151146,13.5014496,1.9287758
			c5.7863312-5.786335,0.964386-10.6082802-1.9287796-13.5014496c-2.8931694-2.8931656-7.7151146-7.7151108-10.608284-10.6082802
			c-2.8931656-2.8931675-5.786335-3.8575573-6.7507248-2.8931675C38.7245026,32.70261,31.9737759,39.4533348,31.9737759,39.4533348z
			"/>
		
			<linearGradient id="SVGID_8_" gradientUnits="userSpaceOnUse" x1="28.8828335" y1="55.0824547" x2="42.5213585" y2="55.0824547" gradientTransform="matrix(0.7071068 -0.7071068 0.7071068 0.7071068 -16.7903671 33.4644661)">
			<stop  offset="0" style="stop-color:#C0150C"/>
			<stop  offset="0.1926606" style="stop-color:#DC1212"/>
			<stop  offset="0.2568807" style="stop-color:#DC1212"/>
			<stop  offset="0.4082569" style="stop-color:#B60F0F"/>
			<stop  offset="0.6559633" style="stop-color:#FF1515"/>
			<stop  offset="0.8211009" style="stop-color:#FF1515"/>
			<stop  offset="1" style="stop-color:#CB180C"/>
		</linearGradient>
		<path style="fill:url(#SVGID_8_);" d="M32.616703,38.8104095c-0.8036594,0.8036575,0.3214607,3.5360947,3.2146301,6.4292603
			c2.8931694,2.8931694,7.7151146,7.7151146,10.6082802,10.608284c2.8931694,2.8931656,7.7151146,7.7151146,12.5370636,2.8931656
			s0-9.6438904-2.8931694-12.5370598c-2.8931694-2.8931656-7.7151146-7.7151146-10.6082802-10.6082802
			c-2.8931694-2.8931694-5.6256065-4.0182896-6.4292641-3.2146301C38.2423058,33.1848068,32.616703,38.8104095,32.616703,38.8104095
			z"/>
	</g>
</g>
<g>
</g>
<g>
</g>
<g>
</g>
<g>
</g>
<g>
</g>
<g>
</g>
</svg>
