<?xml version="1.0" encoding="utf-8"?>
<!-- Generator: Adobe Illustrator 18.0.0, SVG Export Plug-In . SVG Version: 6.00 Build 0)  -->
<!DOCTYPE svg PUBLIC "-//W3C//DTD SVG 1.1//EN" "http://www.w3.org/Graphics/SVG/1.1/DTD/svg11.dtd">
<svg version="1.1" id="レイヤー_1" xmlns="http://www.w3.org/2000/svg" xmlns:xlink="http://www.w3.org/1999/xlink" x="0px"
	 y="0px" width="64px" height="64px" viewBox="0 0 64 64" style="enable-background:new 0 0 64 64;" xml:space="preserve">
<linearGradient id="SVGID_1_" gradientUnits="userSpaceOnUse" x1="26.6161289" y1="22.1161938" x2="35.1040535" y2="62.2809982">
	<stop  offset="0.45" style="stop-color:#B36638"/>
	<stop  offset="1" style="stop-color:#4D1200"/>
</linearGradient>
<path style="fill:url(#SVGID_1_);" d="M29.8930035,21.2311783c0,0,26.8141804,13.0564194,28.4230328,21.9161339
	c1.6088486,8.8597107,0,16.7868233-21.4513474,18.1857262C15.4133463,62.7319374,5.2239571,57.6026306,5.2239571,48.7429199
	C5.2239571,30.0908909,29.8930035,39.8832054,29.8930035,21.2311783z"/>
<linearGradient id="SVGID_2_" gradientUnits="userSpaceOnUse" x1="27.665226" y1="13.7851992" x2="34.4991989" y2="46.1235237">
	<stop  offset="0.35" style="stop-color:#B36638"/>
	<stop  offset="1" style="stop-color:#4D1200"/>
</linearGradient>
<path style="fill:url(#SVGID_2_);" d="M30.3035717,13.0726376c0,0,21.5891895,10.5122566,22.8845425,17.6455727
	s0,13.5157566-17.2713547,14.6420689C18.6454067,46.4865952,10.441514,42.3567772,10.441514,35.2234612
	C10.441514,20.2059536,30.3035717,28.0901451,30.3035717,13.0726376z"/>
<linearGradient id="SVGID_3_" gradientUnits="userSpaceOnUse" x1="28.9160175" y1="6.7134318" x2="33.7780609" y2="29.7205849">
	<stop  offset="0.25" style="stop-color:#B36638"/>
	<stop  offset="1" style="stop-color:#4D1200"/>
</linearGradient>
<path style="fill:url(#SVGID_3_);" d="M30.7930737,6.2064786c0,0,15.3596668,7.4789615,16.2812443,12.5539722
	c0.9215813,5.0750103,0,9.6158085-12.2877312,10.4171257s-18.1244068-2.1368465-18.1244068-7.2118568
	C16.6621799,11.2814884,30.7930737,16.8907108,30.7930737,6.2064786z"/>
<linearGradient id="SVGID_4_" gradientUnits="userSpaceOnUse" x1="15.7392988" y1="27.415823" x2="29.4479866" y2="39.1605835" gradientTransform="matrix(0.9970366 0.076929 -0.076929 0.9970366 2.4535398 -1.6088248)">
	<stop  offset="0" style="stop-color:#C6B999"/>
	<stop  offset="0.8973214" style="stop-color:#C6B999;stop-opacity:0"/>
</linearGradient>
<path style="fill:url(#SVGID_4_);" d="M18.5682487,29.0586185c0.2027168,0.1563606,0.4875011,0.1797352,0.686615,0.3215008
	c0.208437,0.1484032,0.2796936,0.4765663,0.4844933,0.6099033c0.214159,0.139431,0.4326096,0.2573185,0.6431446,0.3813343
	c0.2197685,0.1294518,0.3437614,0.4240704,0.5599823,0.5379314c0.2252331,0.1186066,0.4525261,0.2382145,0.6743679,0.3412704
	c0.2303715,0.1070156,0.5622597-0.0285358,0.7894878,0.0632439c0.2350864,0.0949516,0.310215,0.6243114,0.5425072,0.7046528
	c0.238903,0.0826263,0.4930286,0.1656647,0.7295971,0.2346916c0.2418175,0.0705566,0.6238346-0.3755131,0.8638763-0.3171806
	c0.2445374,0.0594234,0.4088383,0.4764824,0.652235,0.525322c0.2455177,0.049263,0.4876022,0.1556396,0.732687,0.1963043
	c0.2461357,0.0408363,0.5109215-0.0047531,0.7573586,0.0296135c0.2461166,0.0343208,0.5449467-0.3371391,0.792099-0.3070755
	c0.2460518,0.0299339,0.4414806,0.4969025,0.6892853,0.5247879c0.2441559,0.0274773,0.489336,0.0558586,0.7358952,0.0834427
	c0.2446365,0.0273666,0.4770813,0.1553078,0.7247658,0.1848145c0.2453251,0.0292244,0.4866867,0.0665131,0.7356625,0.0998116
	c0.2460003,0.0329056,0.5298805-0.2090111,0.7800827-0.1702194c0.2449265,0.0379791,0.4347153,0.3860626,0.6842728,0.4314842
	c0.2944069,0.0535851,0.6203384-0.2516441,0.8154335-0.1417503c0.2585716,0.1456528,0.3177071,0.405117,0.4092064,0.6252251
	c0.0942612,0.2267494,0.4325562,0.5076637,0.3585739,0.7833977c-0.0598488,0.2230568-0.3543625,0.4306679-0.5188675,0.6677361
	c-0.134922,0.1944427-0.539402,0.1637154-0.741745,0.3577042c-0.1746922,0.1674767-0.1233368,0.6177177-0.3464146,0.7786789
	c-0.1991634,0.1437035-0.3165359,0.4865074-0.5529633,0.6206932c-0.2156811,0.1224098-0.7139587-0.275341-0.9596729-0.164093
	c-0.2270508,0.1027985-0.3316822,0.5188217-0.5836105,0.6095428c-0.2356548,0.0848618-0.4246235,0.3959465-0.6814213,0.468174
	c-0.2419758,0.068058-0.5841064-0.1903572-0.8443336-0.1352425c-0.2465687,0.052227-0.4697323,0.3141518-0.7322464,0.3532944
	c-0.2498055,0.0372505-0.5754757-0.5400047-0.8393402-0.5158577c-0.2519436,0.023056-0.4896202,0.0439148-0.7540531,0.053936
	c-0.2531872,0.009594-0.4974098,0.3640671-0.7617569,0.3607521c-0.2536774-0.0031853-0.4893398-0.3744507-0.7530384-0.3903656
	c-0.2535439-0.0153046-0.5650005,0.6336517-0.8275833,0.6058273c-0.2528896-0.0267944-0.4406567-0.604763-0.7017269-0.6438446
	c-0.2510414-0.0375786-0.5814037,0.3708992-0.8398285,0.3213654c-0.2499619-0.0479126-0.4599876-0.3212242-0.7166939-0.3808594
	c-0.248518-0.0577316-0.4462662-0.3149872-0.7009583-0.3841934c-0.246748-0.0670433-0.6432343,0.3618774-0.8956451,0.2836189
	c-0.2440357-0.0756607-0.5290394-0.0759277-0.7782478-0.1624718c-0.2413559-0.0838165-0.3845577-0.4688225-0.6306553-0.5632095
	c-0.2387352-0.0915642-0.3862019-0.4165192-0.6292973-0.518364c-0.2357998-0.0987854-0.7064896,0.3236656-0.9463024,0.2149048
	c-0.2335815-0.105938-0.1439571-0.9086037-0.3812618-1.0242805c-0.2303925-0.1123085-0.5375814-0.0639114-0.7714062-0.1856575
	c-0.2279739-0.1187019-0.578496-0.0135422-0.8096609-0.1414528c-0.22505-0.1245308-0.5231428-0.1346207-0.7511501-0.2680931
	c-0.2327709-0.1362648-0.3226404-0.4740791-0.4980631-0.6334229c-0.1974764-0.1793747-0.3253317-0.3904915-0.4553728-0.5924034
	c-0.1409359-0.2188301-0.6208477-0.3246765-0.6893663-0.5612907c-0.0704155-0.2431679-0.0236053-0.5887527-0.0251017-0.8410225
	c-0.0014763-0.249073,0.2020941-0.5205879,0.2603769-0.7690296c0.056632-0.2414055,0.1923389-0.4741726,0.2985258-0.7061901
	c0.1035929-0.2263546-0.0659437-0.6562786,0.0784483-0.8655491c0.1422167-0.2061195,0.5950222-0.2087994,0.7707644-0.3906002
	c0.1750679-0.1811047,0.2831554-0.4714432,0.4855433-0.6208019c0.2035093-0.1501865,0.6424246,0.0953522,0.8675375-0.0150337
	c0.2272139-0.1114159,0.2818966-0.7023659,0.5249414-0.7653275c0.2433882-0.0630474,0.5731602,0.499897,0.8261929,0.4934139
	c0.2478504-0.0063515,0.4724426-0.2244492,0.7236271-0.1689529c0.2376785,0.0525131,0.5196056-0.00103,0.755167,0.1133919
	C18.0993824,28.8015499,18.3578739,28.8963528,18.5682487,29.0586185z"/>
<linearGradient id="SVGID_5_" gradientUnits="userSpaceOnUse" x1="20.6128407" y1="15.6125336" x2="31.1513557" y2="24.6412849" gradientTransform="matrix(0.9970366 0.076929 -0.076929 0.9970366 2.4535398 -1.6088248)">
	<stop  offset="0" style="stop-color:#C6B999"/>
	<stop  offset="0.8973214" style="stop-color:#C6B999;stop-opacity:0"/>
</linearGradient>
<path style="fill:url(#SVGID_5_);" d="M23.5673218,17.2519646c0.2143784,0.1653538,0.2281456,0.601263,0.4373875,0.7457409
	c0.222414,0.153574,0.492754,0.2448864,0.7100029,0.3767757c0.2311668,0.1403389,0.6833878-0.129343,0.9094734-0.0112629
	c0.2391129,0.1248817,0.470293,0.2093773,0.7046299,0.3120766c0.2458324,0.1077385,0.4753075,0.189003,0.716938,0.2754784
	c0.2510948,0.0898609,0.4329262,0.3395519,0.6806736,0.4100037c0.255415,0.0726337,0.5293903,0.0206585,0.7825546,0.0765705
	c0.2576141,0.0568943,0.4745483,0.2805996,0.7312183,0.3243217c0.2584953,0.0440331,0.5174809,0.0709591,0.7764454,0.1058846
	c0.2583771,0.0348473,0.499136,0.2176571,0.7594013,0.2476826c0.2563267,0.0295715,0.5137768,0.062849,0.7733002,0.0918255
	c0.256813,0.0286732,0.5383835-0.1389885,0.7996483-0.1069527c0.2574997,0.0315742,0.4665413,0.4256382,0.7296333,0.4642639
	c0.2560234,0.0375881,0.5050507,0.0795727,0.7675438,0.1273479c0.2979355,0.0542278,0.6545486-0.2303658,0.8217812-0.1040516
	c0.2217293,0.1674786,0.0924034,0.4907265,0.0971489,0.7425556c0.0041122,0.2182426-0.0878983,0.3468151-0.2365303,0.5945435
	c-0.1147766,0.1912956-0.1932297,0.3898277-0.3940735,0.5820885c-0.1669388,0.1598091-0.1673393,0.5624332-0.3909798,0.7137489
	c-0.1951981,0.1320724-0.584034-0.0348415-0.8206367,0.0848274c-0.2119293,0.1071911-0.423996,0.2000103-0.6678734,0.293045
	c-0.2238846,0.0854073-0.4671249,0.0838909-0.7169666,0.1541576c-0.2321072,0.0652809-0.4563637,0.1131783-0.7101021,0.1628323
	c-0.2377033,0.0465145-0.4400978,0.2974701-0.6961517,0.3281765c-0.2413368,0.028944-0.5001526-0.1910286-0.7572651-0.1778793
	c-0.2434387,0.0124512-0.4796581,0.3267403-0.7367916,0.3235531c-0.2443295-0.003027-0.488575-0.1207104-0.7448864-0.1391277
	c-0.2438354-0.017519-0.5225525,0.2243347-0.7769032,0.1917973c-0.2432957-0.0311222-0.4763641-0.2064323-0.7289906-0.2522469
	c-0.241684-0.043829-0.4324551-0.342289-0.6824303-0.4003983c-0.2391758-0.0555992-0.5526447,0.1674824-0.7991905,0.0980797
	c-0.2364807-0.0665703-0.5344734,0.0249424-0.7775383-0.0549698c-0.2336884-0.0768299-0.3227806-0.5846615-0.5623837-0.6743946
	c-0.2304287-0.086298-0.5604553,0.0711117-0.7962017-0.0276299c-0.2277927-0.0954094-0.5382042-0.0303059-0.7708244-0.1377907
	c-0.2240791-0.1035385-0.3425426-0.4468555-0.5709763-0.562006c-0.2212143-0.1115131-0.5255013-0.0804939-0.7506886-0.20327
	c-0.2177429-0.1187172-0.2026424-0.6543732-0.4239998-0.7839546c-0.2515011-0.1472282-0.3930225-0.2558765-0.559166-0.4364357
	c-0.1916599-0.2082863-0.5253124-0.2446499-0.6151257-0.4822617c-0.0951309-0.2516842,0.1451988-0.502985,0.1498051-0.7689724
	c0.0045223-0.2611656-0.4554253-0.5999279-0.36903-0.8566036c0.0832329-0.2472744,0.5821686-0.3066311,0.7284927-0.5332375
	c0.1429577-0.2213936,0.0362873-0.6472931,0.2275295-0.8336811c0.1907024-0.1858635,0.5189571-0.2230434,0.7459564-0.3591042
	c0.2294712-0.1375408,0.5105438-0.0933094,0.7650852-0.1645756c0.255167-0.0714417,0.4803333-0.5032463,0.7485352-0.4925232
	c0.2574615,0.010294,0.6149654,0.0129986,0.8734455,0.1130791C23.1815205,16.7194138,23.3415642,17.0778332,23.5673218,17.2519646z"
	/>
<linearGradient id="SVGID_6_" gradientUnits="userSpaceOnUse" x1="11.1156416" y1="42.0632401" x2="25.9768333" y2="54.7953949" gradientTransform="matrix(0.9970366 0.076929 -0.076929 0.9970366 2.4535398 -1.6088248)">
	<stop  offset="0" style="stop-color:#C6B999"/>
	<stop  offset="0.8973214" style="stop-color:#C6B999;stop-opacity:0"/>
</linearGradient>
<path style="fill:url(#SVGID_6_);" d="M13.2118187,43.0308952c0.2109776,0.1627312,0.0945787,0.752079,0.3019915,0.9003792
	c0.2166824,0.1549301,0.5473518,0.1403351,0.7604322,0.2803764c0.2223921,0.1461601,0.2769079,0.5620766,0.4957047,0.6930046
	c0.2280025,0.1364365,0.5267849,0.1609268,0.751256,0.2819366c0.2337036,0.1259804,0.5323572,0.1264915,0.7626543,0.2370071
	c0.2384644,0.1144333,0.5264568,0.1074982,0.7617359,0.2067413c0.2433109,0.1026344,0.5879879-0.0923309,0.8284092-0.0043945
	c0.2474785,0.090519,0.3912868,0.4422913,0.6362705,0.5189285c0.2507706,0.0784492,0.3723316,0.620739,0.6210957,0.6864624
	c0.2537289,0.0670357,0.5442963,0.0345078,0.796587,0.0902405c0.2554092,0.0564194,0.6382408-0.5276413,0.892849-0.4807892
	c0.2561893,0.047142,0.5075512,0.0553856,0.7636185,0.0948944c0.2565365,0.0395813,0.506834,0.0623245,0.7639427,0.0963173
	c0.2564583,0.0339088,0.4776268,0.3224716,0.7353439,0.3528824c0.2564106,0.0302582,0.5311718-0.1052322,0.7895069-0.0764046
	c0.2544498,0.0283966,0.4819069,0.30867,0.7388783,0.337635c0.2549934,0.0287399,0.5136375,0.0421562,0.7717495,0.0733566
	c0.2557163,0.0309105,0.4848385,0.2778854,0.744236,0.3130608c0.2564068,0.0347672,0.5104218,0.0786018,0.7710247,0.1193275
	c0.2553387,0.0399017,0.5590191-0.194294,0.8189507-0.1469841c0.2900562,0.0527916,0.3318977,0.6025848,0.5339203,0.7057381
	c0.262989,0.134285,0.2870655,0.1552315,0.4064713,0.3563042c0.1305027,0.2197609,0.6996861,0.2869377,0.6665955,0.5602379
	c-0.0278988,0.230423-0.4902191,0.3409042-0.6289883,0.5914307c-0.1141014,0.2059937-0.2856483,0.3293304-0.471653,0.5388031
	c-0.1598835,0.1800499-0.2542877,0.3997307-0.4654045,0.5760803c-0.1877232,0.1568069-0.1310558,0.6693268-0.3579826,0.8188782
	c-0.2063866,0.136013-0.6756248-0.148037-0.9134693-0.0212479c-0.2196808,0.1171074-0.4353981,0.2196732-0.6811543,0.3263969
	c-0.2294922,0.099659-0.4904976,0.0833855-0.7421131,0.1719513c-0.2367573,0.0833359-0.4631538,0.1467514-0.7189903,0.2185745
	c-0.2422848,0.0680199-0.4066315,0.4249611-0.6655941,0.4812202c-0.2463951,0.0535316-0.5508995-0.2373238-0.8120213-0.1956673
	c-0.2493649,0.0397797-0.4381027,0.5076828-0.7005768,0.5355644c-0.2514057,0.0267067-0.5191498-0.1042747-0.7823009-0.0894241
	c-0.2526779,0.0142632-0.5016708,0.4030876-0.7649269,0.4055901c-0.253294,0.0024071-0.5163746-0.1962128-0.7792397-0.2054291
	c-0.2533607-0.0088806-0.4862061-0.3822441-0.7482567-0.4025841c-0.2529621-0.0196381-0.5472832,0.3703957-0.8081646,0.339489
	c-0.2521687-0.0298767-0.5513935,0.1784821-0.8108006,0.1375389c-0.2510452-0.0396233-0.3964653-0.7126274-0.6541443-0.7630997
	c-0.248909-0.0487556-0.5779057,0.26931-0.8328705,0.2099915c-0.2476225-0.0576096-0.5697412,0.1316071-0.8229551,0.063633
	c-0.2460823-0.0660553-0.4004431-0.4900856-0.6516962-0.5662994c-0.2443123-0.0741081-0.5679235,0.0735435-0.8170233-0.0105019
	c-0.2417841-0.0815773-0.259346-0.8003159-0.5055466-0.8915672c-0.2392426-0.0886688-0.471693-0.172226-0.7150202-0.2703133
	c-0.235857-0.0950737-0.6170216,0.1631775-0.856638,0.0590019c-0.2342577-0.1018524-0.3016005-0.5684128-0.5393791-0.679203
	c-0.2322378-0.1082077-0.7847776,0.4447594-1.0203066,0.3277969c-0.2283173-0.1133804-0.1837845-0.7678986-0.4151325-0.8897133
	c-0.2276087-0.1198425-0.695159,0.198719-0.925643,0.0705185c-0.2249289-0.1251068-0.3311415-0.4685516-0.558754-0.6017952
	c-0.2387853-0.1397858-0.2976685-0.4534607-0.4813218-0.6155396c-0.2050705-0.1809769-0.8070059-0.0016174-0.9479394-0.2044983
	c-0.153029-0.220295-0.4005537-0.4960518-0.4839373-0.7345238c-0.0863109-0.2468452,0.1828313-0.6332321,0.164362-0.8908768
	c-0.0183787-0.2563858,0.2630749-0.4893341,0.3050637-0.7476959c0.040988-0.2522011-0.4920664-0.6870003-0.3999534-0.9328957
	c0.0896792-0.2393951,0.9577599-0.1170006,1.0899854-0.3428535c0.1298084-0.2217255,0.088387-0.5090981,0.2536292-0.7106361
	c0.1637869-0.1997643,0.1325254-0.5761948,0.3257256-0.749218c0.1933517-0.1731567,0.3277168-0.4667244,0.5451422-0.606205
	c0.2190323-0.1405106,0.5774994-0.0576782,0.8154745-0.1569901c0.2398663-0.1001015,0.4939833-0.1350861,0.7474766-0.186142
	c0.2529049-0.0509377,0.5077181-0.5119133,0.7685795-0.5068512c0.2544899,0.0049362,0.5723305,0.1504364,0.8291264,0.2154083
	c0.2428093,0.0614357,0.4579535,0.3401146,0.6983004,0.46101C12.6093645,42.9155998,12.9961338,42.8645363,13.2118187,43.0308952z"
	/>
<g>
	<path style="fill:#B2B2B3;" d="M17.9008789,6.7128906c-0.2661133,0-0.4873047-0.2099609-0.4990234-0.4785156
		c-0.0117188-0.2758789,0.2021484-0.5092773,0.4780273-0.5209961c0.3417969-0.0146484,0.5366211-0.0063477,0.5371094-0.0063477
		C18.6923828,5.71875,18.90625,5.9516602,18.8950195,6.2270508c-0.0112305,0.2749023-0.222168,0.4985352-0.5185547,0.4790039
		c-0.0097656,0-0.1743164-0.0058594-0.4536133,0.0063477C17.9155273,6.7128906,17.9082031,6.7128906,17.9008789,6.7128906z"/>
	<path style="fill:#B2B2B3;" d="M3.5410156,26.1323242c-0.0151367,0-0.0307617-0.0004883-0.0463867-0.0019531
		c-0.2749023-0.0253906-0.4770508-0.269043-0.4521484-0.5439453c0.0336914-0.3652344,0.0751953-0.7172852,0.125-1.0561523
		c0.0395508-0.2734375,0.2944336-0.465332,0.5668945-0.4223633c0.2734375,0.0400391,0.4624023,0.2939453,0.4223633,0.5668945
		c-0.046875,0.3222656-0.0864258,0.6567383-0.1181641,1.003418C4.0146484,25.9375,3.7963867,26.1323242,3.5410156,26.1323242z
		 M8.2919922,23.8076172c-0.0361328,0-0.0727539-0.0039063-0.1098633-0.012207
		c-0.402832-0.0898438-0.7768555-0.2407227-1.1118164-0.4482422c-0.2348633-0.1455078-0.3071289-0.4536133-0.1621094-0.6884766
		c0.1455078-0.2353516,0.453125-0.3066406,0.6884766-0.1621094c0.2397461,0.1489258,0.5102539,0.2573242,0.8041992,0.3232422
		c0.269043,0.0600586,0.4389648,0.3276367,0.378418,0.597168C8.7275391,23.6494141,8.5209961,23.8076172,8.2919922,23.8076172z
		 M11.3046875,23.3183594c-0.1787109,0-0.3510742-0.0957031-0.4414063-0.2641602
		c-0.1303711-0.2436523-0.0385742-0.5463867,0.2050781-0.6767578c0.2792969-0.1494141,0.5375977-0.3251953,0.7666016-0.5224609
		c0.2080078-0.1811523,0.5249023-0.1572266,0.7050781,0.0527344c0.1801758,0.2094727,0.1567383,0.5249023-0.0527344,0.7050781
		c-0.284668,0.2451172-0.6035156,0.4624023-0.9472656,0.6464844C11.4648438,23.2993164,11.3842773,23.3183594,11.3046875,23.3183594
		z M4.4160156,22.0893555c-0.0585938,0-0.1181641-0.0102539-0.1757813-0.0317383
		c-0.2587891-0.097168-0.3891602-0.3857422-0.2924805-0.644043c0.1328125-0.3525391,0.2749023-0.684082,0.425293-0.9951172
		c0.1196289-0.2480469,0.4199219-0.3520508,0.6674805-0.2329102c0.2490234,0.1201172,0.3530273,0.4189453,0.2329102,0.6674805
		c-0.1376953,0.2856445-0.2680664,0.5888672-0.3891602,0.9121094C4.8085938,21.9658203,4.6181641,22.0893555,4.4160156,22.0893555z
		 M5.8041992,20.8251953c-0.2426758,0-0.4555664-0.1767578-0.4936523-0.4238281
		c-0.0532227-0.3452148-0.0810547-0.7182617-0.0825195-1.1083984c-0.0009766-0.2763672,0.2216797-0.5009766,0.4980469-0.5019531
		c0.0004883,0,0.0014648,0,0.0019531,0c0.2753906,0,0.4990234,0.2226563,0.5,0.4980469
		c0.0014648,0.3408203,0.0253906,0.6635742,0.0708008,0.9599609c0.0419922,0.2729492-0.1450195,0.5283203-0.4179688,0.5703125
		C5.8549805,20.8232422,5.8295898,20.8251953,5.8041992,20.8251953z M13.5576172,20.034668
		c-0.0112305,0-0.0224609-0.0004883-0.0341797-0.0009766c-0.2753906-0.0185547-0.4838867-0.2568359-0.465332-0.5327148
		l0.0058594-0.1635742c0-0.2285156-0.0356445-0.4555664-0.105957-0.6713867
		c-0.0859375-0.2626953,0.0576172-0.5449219,0.3198242-0.6303711c0.2666016-0.0869141,0.5449219,0.0581055,0.6303711,0.3198242
		c0.1035156,0.3164063,0.1557617,0.6479492,0.1557617,0.9858398c-0.0004883,0.0771484-0.0029297,0.1513672-0.0078125,0.2270508
		C14.0380859,19.8325195,13.8183594,20.034668,13.5576172,20.034668z M6.6079102,18.6044922
		c-0.1298828,0-0.2592773-0.050293-0.3574219-0.1499023c-0.1928711-0.1977539-0.1899414-0.5141602,0.0073242-0.7075195
		c0.265625-0.2597656,0.5478516-0.5014648,0.8398438-0.7182617c0.222168-0.1650391,0.534668-0.1181641,0.699707,0.1030273
		c0.1645508,0.2216797,0.1186523,0.5351563-0.1030273,0.699707c-0.2558594,0.1899414-0.503418,0.4018555-0.7363281,0.6303711
		C6.8603516,18.5571289,6.734375,18.6044922,6.6079102,18.6044922z M11.2519531,16.9272461
		c-0.0581055,0-0.1176758-0.0102539-0.175293-0.0317383c-0.2460938-0.0917969-0.480957-0.1479492-0.6621094-0.1582031
		c-0.2827148,0.0263672-0.5854492-0.1899414-0.6035156-0.4658203c-0.0175781-0.2753906,0.1191406-0.512207,0.3950195-0.5297852
		c0.0571289-0.003418,0.1103516-0.0053711,0.1591797-0.0053711c0.0102539,0,0.097168,0.0024414,0.1074219,0.0029297
		c0.2797852,0.0151367,0.6113281,0.0913086,0.9545898,0.2197266c0.2587891,0.0966797,0.3896484,0.3847656,0.2929688,0.6435547
		C11.6450195,16.8032227,11.4545898,16.9272461,11.2519531,16.9272461z M6.1625977,16.7143555
		c-0.0415039,0-0.0839844-0.0048828-0.1259766-0.0161133c-0.2675781-0.0693359-0.4277344-0.3422852-0.3583984-0.609375
		c0.0615234-0.2368164,0.128418-0.4804688,0.2021484-0.7304688l0.0888672-0.2915039
		c0.081543-0.2646484,0.3623047-0.4121094,0.6259766-0.328125c0.2636719,0.0820313,0.4106445,0.362793,0.328125,0.6259766
		l-0.0839844,0.2773438c-0.0708008,0.2387695-0.1347656,0.4716797-0.1933594,0.6977539
		C6.5878906,16.5649414,6.3847656,16.7143555,6.1625977,16.7143555z M7.6762695,12.8618164
		c-0.0839844,0-0.1689453-0.0209961-0.2470703-0.0654297c-0.2397461-0.1367188-0.3237305-0.4418945-0.1870117-0.6821289
		c0.1826172-0.3208008,0.3735352-0.6254883,0.5708008-0.9145508c0.1552734-0.2285156,0.4672852-0.2861328,0.6948242-0.1313477
		c0.2280273,0.1557617,0.2871094,0.4667969,0.1313477,0.6948242c-0.1826172,0.2675781-0.3588867,0.5498047-0.527832,0.8461914
		C8.019043,12.7709961,7.8500977,12.8618164,7.6762695,12.8618164z M10.2949219,9.6655273
		c-0.140625,0-0.2807617-0.059082-0.3798828-0.1748047C9.7353516,9.28125,9.7597656,8.965332,9.9697266,8.7856445
		C10.25,8.5454102,10.5351563,8.3237305,10.8227539,8.1191406c0.2241211-0.1591797,0.5366211-0.1083984,0.6972656,0.1171875
		c0.1601563,0.2246094,0.1079102,0.5371094-0.1171875,0.6972656c-0.2631836,0.1879883-0.5249023,0.3911133-0.7827148,0.6118164
		C10.5258789,9.6259766,10.4101563,9.6655273,10.2949219,9.6655273z M13.8554688,7.5664063
		c-0.2011719,0-0.3911133-0.1225586-0.4672852-0.3217773c-0.0981445-0.2578125,0.0307617-0.546875,0.2890625-0.6455078
		c0.3491211-0.1333008,0.6914063-0.246582,1.0214844-0.34375c0.2680664-0.0766602,0.543457,0.0742188,0.6206055,0.3393555
		c0.0776367,0.2646484-0.0742188,0.5424805-0.3393555,0.6206055c-0.3056641,0.0893555-0.6225586,0.1948242-0.9462891,0.3183594
		C13.9750977,7.5561523,13.9150391,7.5664063,13.8554688,7.5664063z"/>
	<path style="fill:#B2B2B3;" d="M3.4995117,29.8085938c-0.2626953,0-0.4833984-0.2050781-0.4985352-0.4711914l-0.0253906-0.5073242
		c-0.0117188-0.2758789,0.2026367-0.5092773,0.4785156-0.5205078c0.2788086-0.0146484,0.5092773,0.2026367,0.5205078,0.4785156
		l0.0244141,0.4916992c0.0161133,0.2758789-0.1943359,0.512207-0.4702148,0.527832
		C3.519043,29.8081055,3.5092773,29.8085938,3.4995117,29.8085938z"/>
</g>
<g>
	<path style="fill:#ECECED;" d="M23.7873764,10.8754559c-6.3277493-0.1413651-0.2447567-4.6767721-0.2447567-4.6767721
		s-5.8743782-4.8025417,0.453373-4.6611762s-0.2489471,4.6657429-0.2489471,4.6657429S30.1151257,11.0168219,23.7873764,10.8754559z
		"/>
	<path style="fill:#B2B2B3;" d="M24.0537109,11.378418l-0.2773438-0.0029297
		c-1.9355469-0.043457-3.0146484-0.4970703-3.2988281-1.387207c-0.4272461-1.3383789,1.3256836-3.015625,2.2802734-3.8071289
		c-0.9145508-0.8305664-2.5820313-2.574707-2.1123047-3.8911133c0.3017578-0.8447266,1.3100586-1.2553711,3.0825195-1.2553711
		l0.2792969,0.0029297c1.8862305,0.0419922,2.9272461,0.4780273,3.1826172,1.3330078
		c0.3989258,1.3369141-1.5556641,3.0424805-2.6176758,3.8510742c1.0209961,0.8520508,2.8891602,2.6342773,2.4477539,3.9501953
		C26.7475586,10.9838867,25.7773438,11.378418,24.0537109,11.378418z M23.6411133,6.753418
		c-1.0805664,0.8525391-2.4238281,2.265625-2.2109375,2.9306641c0.0483398,0.1508789,0.3618164,0.6464844,2.3686523,0.6914063
		l0.2548828,0.0029297c1.3579102,0,1.9331055-0.2709961,2.0180664-0.5244141
		C26.2651367,9.2783203,25.0014648,7.8266602,23.6411133,6.753418z M23.7280273,2.034668
		c-1.2080078,0-2.0083008,0.2211914-2.140625,0.5913086c-0.2348633,0.6577148,1.0405273,2.1254883,2.0786133,3.0229492
		c1.4116211-1.0146484,2.7392578-2.4106445,2.565918-2.9921875c-0.0830078-0.2768555-0.7167969-0.5849609-2.2470703-0.6191406
		L23.7280273,2.034668z"/>
</g>
<g>
	
		<ellipse transform="matrix(0.0223351 -0.9997506 0.9997506 0.0223351 17.0149498 29.8058224)" style="fill:#3E3A39;" cx="23.7470455" cy="6.2032509" rx="2.0123596" ry="3.3333333"/>
	<path style="fill:#B2B2B3;" d="M23.8271484,8.7167969L23.690918,8.715332
		c-2.1489258-0.0488281-3.8076172-1.1894531-3.7763672-2.5976563c0.03125-1.3837891,1.644043-2.4277344,3.7524414-2.4277344
		l0.1362305,0.0014648c0.9799805,0.0219727,1.9033203,0.2773438,2.6000977,0.7197266
		c0.7744141,0.4916992,1.1923828,1.1586914,1.1762695,1.8779297C27.5483398,7.6728516,25.9355469,8.7167969,23.8271484,8.7167969z
		 M23.6669922,4.6899414c-1.6269531,0-2.7368164,0.75-2.7524414,1.4501953
		c-0.0161133,0.7148438,1.1293945,1.5375977,2.7988281,1.5751953l0.1137695,0.0014648
		c1.6269531,0,2.7368164-0.75,2.7524414-1.4501953c0.0107422-0.4794922-0.4414063-0.8393555-0.7124023-1.0112305
		c-0.5371094-0.3408203-1.2973633-0.5463867-2.0864258-0.5639648L23.6669922,4.6899414z"/>
</g>
<path style="fill:#40210F;" d="M30.2104492,62.0615234c-0.0009766,0-0.0019531,0-0.003418,0
	C13.7739258,62.0605469,4.7241211,57.3310547,4.7241211,48.7431641c0-5.0810547,1.7714844-8.6083984,5.5678711-11.0673828
	c-0.2329102-0.7880859-0.3505859-1.6103516-0.3505859-2.4521484c0-6.2094727,3.2861328-8.6704102,6.9785156-10.2832031
	c-0.503418-0.8979492-0.7578125-1.8959961-0.7578125-2.9746094c0-5.6938477,3.9296875-7.1054688,7.3964844-8.3505859
	c3.4633789-1.2436523,6.734375-2.418457,6.734375-7.4086914V5.4067383l0.71875,0.3500977
	c0.6367188,0.3100586,15.5986328,7.6503906,16.5546875,12.9140625c0.3261719,1.7958984,0.3564453,3.2177734,0.0917969,4.4375
	c3.6152344,2.8925781,5.640625,5.421875,6.0224609,7.5205078c0.3876953,2.1376953,0.4726563,3.8535156,0.2646484,5.3701172
	c2.8583984,2.6552734,4.4941406,5.0292969,4.8632813,7.0585938c0.6533203,3.6015625,1.0410156,8.1982422-1.7890625,11.8222656
	c-3.1230469,3.9990234-9.7050781,6.2734375-20.1230469,6.9521484C34.5615234,61.984375,32.3120117,62.0615234,30.2104492,62.0615234
	z M31.2661133,6.9995117c-0.3505859,5.0361328-4.0693359,6.3720703-7.3696289,7.5571289
	c-3.4633789,1.2436523-6.734375,2.418457-6.734375,7.4091797c0,1.081543,0.3037109,2.0634766,0.902832,2.9194336
	l0.3579102,0.5107422l-0.5771484,0.2382813c-4.144043,1.7094727-6.9042969,3.9941406-6.9042969,9.5893555
	c0,0.8652344,0.140625,1.7080078,0.4174805,2.5048828l0.1323242,0.3798828l-0.3432617,0.2109375
	c-3.7509766,2.296875-5.4238281,5.5117188-5.4238281,10.4238281c0,7.9433594,8.6948242,12.3173828,24.4829102,12.3183594
	c0.0009766,0,0.0024414,0,0.003418,0c2.0800781,0,4.3081055-0.0761719,6.621582-0.2275391
	c10.1162109-0.6591797,16.4619141-2.8085938,19.3994141-6.5693359c2.5849609-3.3105469,2.2089844-7.6328125,1.5927734-11.0283203
	c-0.3369141-1.8554688-1.9345703-4.1035156-4.75-6.6806641L52.875,36.3730469l0.0439453-0.2666016
	c0.2382813-1.4658203,0.1669922-3.1499023-0.2226563-5.2988281c-0.3447266-1.8999023-2.3330078-4.2929688-5.9091797-7.1137695
	l-0.2587891-0.2041016l0.0849609-0.3178711c0.3076172-1.1435547,0.296875-2.5166016-0.03125-4.3222656
	C45.8994141,15.0932617,35.8818359,9.3286133,31.2661133,6.9995117z"/>
<g>
</g>
<g>
</g>
<g>
</g>
<g>
</g>
<g>
</g>
<g>
</g>
</svg>
