<?xml version="1.0" encoding="utf-8"?>
<!-- Generator: Adobe Illustrator 17.0.0, SVG Export Plug-In . SVG Version: 6.00 Build 0)  -->
<!DOCTYPE svg PUBLIC "-//W3C//DTD SVG 1.1//EN" "http://www.w3.org/Graphics/SVG/1.1/DTD/svg11.dtd">
<svg version="1.1" id="レイヤー_1" xmlns="http://www.w3.org/2000/svg" xmlns:xlink="http://www.w3.org/1999/xlink" x="0px"
	 y="0px" width="64px" height="64px" viewBox="0 0 64 64" style="enable-background:new 0 0 64 64;" xml:space="preserve">
<g>
	<linearGradient id="SVGID_1_" gradientUnits="userSpaceOnUse" x1="32" y1="4.5" x2="32" y2="59.5">
		<stop  offset="0" style="stop-color:#6BCF40;stop-opacity:0.8"/>
		<stop  offset="0.4" style="stop-color:#159B3A"/>
		<stop  offset="0.6" style="stop-color:#159B3A"/>
		<stop  offset="1" style="stop-color:#51B526;stop-opacity:0.8"/>
	</linearGradient>
	<path style="fill:url(#SVGID_1_);" d="M62,34.5c0,13.8071175-11.25,25-30,25S2,48.3071175,2,34.5s12.5-30,30-30
		S62,20.6928806,62,34.5z"/>
	<linearGradient id="SVGID_2_" gradientUnits="userSpaceOnUse" x1="32" y1="4" x2="32" y2="60">
		<stop  offset="0" style="stop-color:#D4FFD5"/>
		<stop  offset="1" style="stop-color:#00FF2C"/>
	</linearGradient>
	<path style="fill:url(#SVGID_2_);" d="M32,60C14.0419922,60,1.5,49.5136719,1.5,34.5C1.5,20.1025391,14.543457,4,32,4
		c17.4560547,0,30.5,16.1025391,30.5,30.5C62.5,49.5136719,49.9580078,60,32,60z M32,5.4576273c-16.5981026,0-29,15.310729-29,29
		c0,14.1803169,11.925252,24.0847473,29,24.0847473s29-9.9044304,29-24.0847473C61,20.7683563,48.5976219,5.4576273,32,5.4576273z"
		/>
	<linearGradient id="SVGID_3_" gradientUnits="userSpaceOnUse" x1="31.9997559" y1="3.154134" x2="31.9997559" y2="60.8453789">
		<stop  offset="0" style="stop-color:#009245"/>
		<stop  offset="0.4" style="stop-color:#00BC40"/>
		<stop  offset="0.6" style="stop-color:#00BC40"/>
		<stop  offset="1" style="stop-color:#009245"/>
	</linearGradient>
	<path style="fill:url(#SVGID_3_);" d="M32,60.8453789c-18.4739742,0-31.3766403-10.8212776-31.3766403-26.3146057
		C0.6233594,19.7195587,14.041626,3.154134,32,3.154134c17.9578857,0,31.376152,16.565424,31.376152,31.3766384
		C63.376152,50.0241013,50.4739723,60.8453789,32,60.8453789z M32,4.1512537
		c-17.38727,0-30.3795204,16.0391121-30.3795204,30.3795204C1.6204789,49.4369278,14.1131964,59.848259,32,59.848259
		s30.3790321-10.4113312,30.3790321-25.3174858C62.3790321,20.1903667,49.3872681,4.1512537,32,4.1512537z"/>
	<linearGradient id="SVGID_4_" gradientUnits="userSpaceOnUse" x1="32" y1="7.8333335" x2="32" y2="42.8333321">
		<stop  offset="0" style="stop-color:#F5FFD2;stop-opacity:0.6"/>
		<stop  offset="1" style="stop-color:#F5FFD2;stop-opacity:0"/>
	</linearGradient>
	<path style="fill:url(#SVGID_4_);" d="M54.522728,28.4721546c0,6.7936115-8.446022,14.3611774-22.522728,14.3611774
		S9.477273,35.2657661,9.477273,28.4721546c0-9.4987564,9.384469-20.6388206,22.522728-20.6388206
		S54.522728,18.9733982,54.522728,28.4721546z"/>
	<linearGradient id="SVGID_5_" gradientUnits="userSpaceOnUse" x1="22.625" y1="8.25" x2="22.625" y2="22">
		<stop  offset="0.3" style="stop-color:#FFFFFF;stop-opacity:0.6"/>
		<stop  offset="1" style="stop-color:#FFFFFF;stop-opacity:0.2"/>
	</linearGradient>
	<circle style="fill:url(#SVGID_5_);" cx="22.625" cy="15.125" r="6.875"/>
	<linearGradient id="SVGID_6_" gradientUnits="userSpaceOnUse" x1="46.375" y1="47.75" x2="46.375" y2="54">
		<stop  offset="0.3" style="stop-color:#FFFFFF;stop-opacity:0.4"/>
		<stop  offset="1" style="stop-color:#FFFFFF;stop-opacity:0"/>
	</linearGradient>
	<circle style="fill:url(#SVGID_6_);" cx="46.375" cy="50.875" r="3.125"/>
	<linearGradient id="SVGID_7_" gradientUnits="userSpaceOnUse" x1="46.375" y1="49.125" x2="46.375" y2="52.625">
		<stop  offset="0.3" style="stop-color:#FFFFFF;stop-opacity:0.4"/>
		<stop  offset="1" style="stop-color:#FFFFFF;stop-opacity:0"/>
	</linearGradient>
	<circle style="fill:url(#SVGID_7_);" cx="46.375" cy="50.875" r="1.75"/>
	<linearGradient id="SVGID_8_" gradientUnits="userSpaceOnUse" x1="22.625" y1="9.75" x2="22.625" y2="20.5">
		<stop  offset="0.3" style="stop-color:#FFFFFF"/>
		<stop  offset="1" style="stop-color:#FFFFFF;stop-opacity:0.2"/>
	</linearGradient>
	<circle style="fill:url(#SVGID_8_);" cx="22.625" cy="15.125" r="5.375"/>
</g>
<g>
	<g>
		<path style="fill:#350000;" d="M17.9570313,40.3339844c-0.3364258,0-0.6767578-0.0136719-1.0205078-0.0429688
			c-2.1142578-0.1767578-4.6748047-1.0205078-5.5214844-2.8544922l2.7236328-1.2578125
			c0.1225586,0.265625,1.1738281,0.9658203,3.0483398,1.1230469c1.0263672,0.0839844,4.5117188,0.1474609,6.4379883-2.6708984
			l2.4765625,1.6933594C24.3569336,38.8759766,21.3623047,40.3339844,17.9570313,40.3339844z"/>
		<path style="fill:#350000;" d="M45.3916016,39.9765625c-0.890625,0-1.8056641-0.1083984-2.7275391-0.3291016
			c-2.0644531-0.4941406-4.4697266-1.7138672-5.03125-3.65625l2.8828125-0.8320313
			c0.0810547,0.28125,1.015625,1.1328125,2.8466797,1.5703125c0.9951172,0.2392578,4.4355469,0.8242188,6.7636719-1.6679688
			l2.1933594,2.046875C50.5751953,38.9765625,48.0986328,39.9765625,45.3916016,39.9765625z"/>
	</g>
	<path style="fill:#350000;" d="M9.1069336,32.7373047l-1.8808594-0.6796875
		C7.25,31.9907227,9.7133789,25.3823242,17.3574219,25.5649414l-0.0478516,1.9990234
		C11.1083984,27.4375,9.1264648,32.6835938,9.1069336,32.7373047z"/>
	<path style="fill:#350000;" d="M53.3671875,31.4975586c-4.4628906-5.949707-9.7929688-4.0825195-10.0185547-3.9995117
		l-0.7021484-1.8725586c0.0703125-0.0249023,6.9345703-2.5102539,12.3203125,4.671875L53.3671875,31.4975586z"/>
	<ellipse style="fill:#350000;" cx="31.9997501" cy="55.8330002" rx="6.4846501" ry="2"/>
	<g>
		<linearGradient id="SVGID_9_" gradientUnits="userSpaceOnUse" x1="12.4461193" y1="43.1225967" x2="20.27005" y2="57.5122948">
			<stop  offset="0" style="stop-color:#50BEDF"/>
			<stop  offset="0.156303" style="stop-color:#4DB6DA"/>
			<stop  offset="0.3982337" style="stop-color:#44A0CE"/>
			<stop  offset="0.6954401" style="stop-color:#357DB9"/>
			<stop  offset="1" style="stop-color:#2351A0"/>
		</linearGradient>
		<path style="fill:url(#SVGID_9_);" d="M28.6406002,44.3075981c0,0-8.0135994,2.2959023-15.0298004,0.8916016
			C6.5947299,43.794899,2.5122099,49.0243988,3.2778299,54.0098C4.0698199,59.1669998,10,61.1688995,15.4442997,59.8661995
			C21.1889992,58.4911995,26.2929993,48.5098,28.6406002,44.3075981z"/>
		<path style="fill:#234E9E;" d="M12.1972656,60.7529297L12.1972656,60.7529297
			c-5.0966797,0-8.7915039-2.6171875-9.4135742-6.6669922c-0.3720703-2.4238281,0.3198242-4.8691406,1.8979492-6.7080078
			c2.0639648-2.4042969,5.3798828-3.3984375,9.0273438-2.6689453c1.4760742,0.2949219,3.1176758,0.4453125,4.8798828,0.4453125
			c5.2211914,0,9.8676758-1.3144531,9.9140625-1.3271484l1.1655273-0.3339844l-1.1538086,2.0742188
			c-2.5922852,4.7041016-7.418457,13.4599609-12.9541016,14.7851563
			C14.4511719,60.6181641,13.3198242,60.7529297,12.1972656,60.7529297z M11.3588867,45.4677734
			c-2.3989258,0-4.5004883,0.9091797-5.918457,2.5615234c-1.3881836,1.6171875-1.9960938,3.7695313-1.668457,5.9042969
			c0.659668,4.2949219,4.9506836,5.8193359,8.425293,5.8193359c1.0439453,0,2.0976563-0.1259766,3.1308594-0.3730469
			c5.105957-1.2216797,9.7929688-9.7265625,12.3105469-14.2949219l0.0053711-0.0097656
			c-1.7236328,0.4013672-5.2016602,1.0791016-9.0551758,1.0791016c-1.828125,0-3.5356445-0.15625-5.0761719-0.4648438
			C12.7763672,45.5419922,12.0517578,45.4677734,11.3588867,45.4677734z"/>
	</g>
</g>
<g>
</g>
<g>
</g>
<g>
</g>
<g>
</g>
<g>
</g>
<g>
</g>
</svg>
