<?xml version="1.0" encoding="utf-8"?>
<!-- Generator: Adobe Illustrator 17.0.0, SVG Export Plug-In . SVG Version: 6.00 Build 0)  -->
<!DOCTYPE svg PUBLIC "-//W3C//DTD SVG 1.1//EN" "http://www.w3.org/Graphics/SVG/1.1/DTD/svg11.dtd">
<svg version="1.1" id="レイヤー_1" xmlns="http://www.w3.org/2000/svg" xmlns:xlink="http://www.w3.org/1999/xlink" x="0px"
	 y="0px" width="64px" height="64px" viewBox="0 0 64 64" style="enable-background:new 0 0 64 64;" xml:space="preserve">
<g>
	<linearGradient id="SVGID_1_" gradientUnits="userSpaceOnUse" x1="32" y1="4.5" x2="32" y2="59.5">
		<stop  offset="0" style="stop-color:#6BCF40;stop-opacity:0.8"/>
		<stop  offset="0.4" style="stop-color:#159B3A"/>
		<stop  offset="0.6" style="stop-color:#159B3A"/>
		<stop  offset="1" style="stop-color:#51B526;stop-opacity:0.8"/>
	</linearGradient>
	<path style="fill:url(#SVGID_1_);" d="M62,34.5c0,13.8071175-11.25,25-30,25S2,48.3071175,2,34.5s12.5-30,30-30
		S62,20.6928806,62,34.5z"/>
	<linearGradient id="SVGID_2_" gradientUnits="userSpaceOnUse" x1="32" y1="4" x2="32" y2="60">
		<stop  offset="0" style="stop-color:#D4FFD5"/>
		<stop  offset="1" style="stop-color:#00FF2C"/>
	</linearGradient>
	<path style="fill:url(#SVGID_2_);" d="M32,60C14.0419922,60,1.5,49.5136719,1.5,34.5C1.5,20.1025391,14.543457,4,32,4
		c17.4560547,0,30.5,16.1025391,30.5,30.5C62.5,49.5136719,49.9580078,60,32,60z M32,5.4576273c-16.5981026,0-29,15.310729-29,29
		c0,14.1803169,11.925252,24.0847473,29,24.0847473s29-9.9044304,29-24.0847473C61,20.7683563,48.5976219,5.4576273,32,5.4576273z"
		/>
	<linearGradient id="SVGID_3_" gradientUnits="userSpaceOnUse" x1="31.9997559" y1="3.154134" x2="31.9997559" y2="60.8453789">
		<stop  offset="0" style="stop-color:#009245"/>
		<stop  offset="0.4" style="stop-color:#00BC40"/>
		<stop  offset="0.6" style="stop-color:#00BC40"/>
		<stop  offset="1" style="stop-color:#009245"/>
	</linearGradient>
	<path style="fill:url(#SVGID_3_);" d="M32,60.8453789c-18.4739742,0-31.3766403-10.8212776-31.3766403-26.3146057
		C0.6233594,19.7195587,14.041626,3.154134,32,3.154134c17.9578857,0,31.376152,16.565424,31.376152,31.3766384
		C63.376152,50.0241013,50.4739723,60.8453789,32,60.8453789z M32,4.1512537
		c-17.38727,0-30.3795204,16.0391121-30.3795204,30.3795204C1.6204789,49.4369278,14.1131964,59.848259,32,59.848259
		s30.3790321-10.4113312,30.3790321-25.3174858C62.3790321,20.1903667,49.3872681,4.1512537,32,4.1512537z"/>
	<linearGradient id="SVGID_4_" gradientUnits="userSpaceOnUse" x1="32" y1="7.8333335" x2="32" y2="42.8333321">
		<stop  offset="0" style="stop-color:#F5FFD2;stop-opacity:0.6"/>
		<stop  offset="1" style="stop-color:#F5FFD2;stop-opacity:0"/>
	</linearGradient>
	<path style="fill:url(#SVGID_4_);" d="M54.522728,28.4721546c0,6.7936115-8.446022,14.3611774-22.522728,14.3611774
		S9.477273,35.2657661,9.477273,28.4721546c0-9.4987564,9.384469-20.6388206,22.522728-20.6388206
		S54.522728,18.9733982,54.522728,28.4721546z"/>
	<linearGradient id="SVGID_5_" gradientUnits="userSpaceOnUse" x1="22.625" y1="8.25" x2="22.625" y2="22">
		<stop  offset="0.3" style="stop-color:#FFFFFF;stop-opacity:0.6"/>
		<stop  offset="1" style="stop-color:#FFFFFF;stop-opacity:0.2"/>
	</linearGradient>
	<circle style="fill:url(#SVGID_5_);" cx="22.625" cy="15.125" r="6.875"/>
	<linearGradient id="SVGID_6_" gradientUnits="userSpaceOnUse" x1="46.375" y1="47.75" x2="46.375" y2="54">
		<stop  offset="0.3" style="stop-color:#FFFFFF;stop-opacity:0.4"/>
		<stop  offset="1" style="stop-color:#FFFFFF;stop-opacity:0"/>
	</linearGradient>
	<circle style="fill:url(#SVGID_6_);" cx="46.375" cy="50.875" r="3.125"/>
	<linearGradient id="SVGID_7_" gradientUnits="userSpaceOnUse" x1="46.375" y1="49.125" x2="46.375" y2="52.625">
		<stop  offset="0.3" style="stop-color:#FFFFFF;stop-opacity:0.4"/>
		<stop  offset="1" style="stop-color:#FFFFFF;stop-opacity:0"/>
	</linearGradient>
	<circle style="fill:url(#SVGID_7_);" cx="46.375" cy="50.875" r="1.75"/>
	<linearGradient id="SVGID_8_" gradientUnits="userSpaceOnUse" x1="22.625" y1="9.75" x2="22.625" y2="20.5">
		<stop  offset="0.3" style="stop-color:#FFFFFF"/>
		<stop  offset="1" style="stop-color:#FFFFFF;stop-opacity:0.2"/>
	</linearGradient>
	<circle style="fill:url(#SVGID_8_);" cx="22.625" cy="15.125" r="5.375"/>
</g>
<g>
	<g>
		<path style="fill:#350000;" d="M17.9570313,40.3339844c-0.3364258,0-0.6767578-0.0136719-1.0205078-0.0429688
			c-2.1142578-0.1767578-4.6748047-1.0205078-5.5214844-2.8544922l2.7236328-1.2578125
			c0.1225586,0.265625,1.1738281,0.9658203,3.0483398,1.1230469c1.0263672,0.0839844,4.5117188,0.1474609,6.4379883-2.6708984
			l2.4765625,1.6933594C24.3569336,38.8759766,21.3623047,40.3339844,17.9570313,40.3339844z"/>
		<path style="fill:#350000;" d="M45.3916016,39.9765625c-0.890625,0-1.8056641-0.1083984-2.7275391-0.3291016
			c-2.0644531-0.4941406-4.4697266-1.7138672-5.03125-3.65625l2.8828125-0.8320313
			c0.0810547,0.28125,1.015625,1.1328125,2.8466797,1.5703125c0.9951172,0.2392578,4.4355469,0.8242188,6.7636719-1.6679688
			l2.1933594,2.046875C50.5751953,38.9765625,48.0986328,39.9765625,45.3916016,39.9765625z"/>
	</g>
	<path style="fill:#350000;" d="M9.1069336,32.7373047l-1.8808594-0.6796875
		C7.25,31.9907227,9.7133789,25.3823242,17.3574219,25.5649414l-0.0478516,1.9990234
		C11.1083984,27.4375,9.1264648,32.6835938,9.1069336,32.7373047z"/>
	<path style="fill:#350000;" d="M53.3671875,31.4975586c-4.4628906-5.949707-9.7929688-4.0825195-10.0185547-3.9995117
		l-0.7021484-1.8725586c0.0703125-0.0249023,6.9345703-2.5102539,12.3203125,4.671875L53.3671875,31.4975586z"/>
	<ellipse style="fill:#350000;" cx="31.9997501" cy="55.8330002" rx="6.4846501" ry="2"/>
	<g>
		<g>
			<g>
				<g>
					<g>
						
							<linearGradient id="SVGID_9_" gradientUnits="userSpaceOnUse" x1="-14.0150089" y1="50.6803818" x2="-6.0544062" y2="69.7336044" gradientTransform="matrix(0.6997 0.7229 -0.7321 0.691 64.8741989 19.9948997)">
							<stop  offset="0" style="stop-color:#FFFFFF;stop-opacity:0.8"/>
							<stop  offset="0.0690277" style="stop-color:#F5FBFE;stop-opacity:0.8"/>
							<stop  offset="0.1846193" style="stop-color:#DBF0FB;stop-opacity:0.8"/>
							<stop  offset="0.3326388" style="stop-color:#B1DEF5;stop-opacity:0.8"/>
							<stop  offset="0.5072739" style="stop-color:#77C5EE;stop-opacity:0.8"/>
							<stop  offset="0.7020245" style="stop-color:#2DA5E5;stop-opacity:0.8"/>
							<stop  offset="0.812121" style="stop-color:#0092DF;stop-opacity:0.8"/>
							<stop  offset="1" style="stop-color:#00D5FF;stop-opacity:0.8"/>
						</linearGradient>
						<path style="fill:url(#SVGID_9_);" d="M18.4178009,60.0671997C15.0525999,62.7271996,9.0753202,64,5.0187001,59.875
							c-2.7155702-2.7612991-2.5083101-7.382,0.86446-10.0293999C10.3045998,46.375,23.8267002,47.4160004,28.375,44.5
							C27.0228004,50.9589996,23.0890999,56.375,18.4178009,60.0671997z"/>
						<path style="fill:#234E9E;" d="M11.4111004,63.0312996c-2.6103201,0-4.9438105-0.969799-6.7489905-2.8056984
							C3.2641599,58.8036995,2.53613,56.8428001,2.66504,54.8437996c0.1352501-2.1104012,1.1689401-4.0253983,2.9096699-5.3917007
							c2.4394503-1.9149971,7.3876905-2.5018997,12.1728907-3.0702972c4.0814991-0.4843025,8.3022003-0.985302,10.357399-2.3027
							l1.0034008-0.6436005l-0.2441006,1.1669998c-1.2686005,6.0615997-4.8687,11.6933975-10.1362991,15.8574982
							C16.6909008,62.0703011,13.9555998,63.0312996,11.4111004,63.0312996z M27.6392002,45.4530983
							C25.2772999,46.4950981,21.6625996,46.9248009,17.8652,47.375c-4.6478996,0.5517998-9.4540701,1.1221008-11.6733103,2.8642998
							c-1.51367,1.1875-2.4120998,2.8456993-2.5292897,4.6688995c-0.1103501,1.7148018,0.5141602,3.3974991,1.7124,4.6161995
							c1.6127901,1.6406021,3.7002001,2.5069008,6.0361004,2.5069008c2.3266993,0,4.8300991-0.8809013,6.6968002-2.3564987
							C22.8843002,55.8993988,26.2378006,50.8828011,27.6392002,45.4530983z"/>
					</g>
				</g>
			</g>
		</g>
		<path style="fill:#FFFFFF;" d="M7.9689698,50.5c2.3214297-2.2705994,9.142931-2.2156982,8.8508301-1.5
			C16.0419998,50.9082985,5.61096,52.7988014,7.9689698,50.5z"/>
		
			<linearGradient id="SVGID_10_" gradientUnits="userSpaceOnUse" x1="-11.3522415" y1="62.7192688" x2="-6.8628793" y2="66.8445816" gradientTransform="matrix(0.6997 0.7229 -0.7321 0.691 64.8741989 19.9948997)">
			<stop  offset="0" style="stop-color:#FFFFFF;stop-opacity:0"/>
			<stop  offset="1" style="stop-color:#FFFFFF"/>
		</linearGradient>
		<path style="fill:url(#SVGID_10_);" d="M4.9566998,55.8045006c0.6068902,4.2220001,8.2474003,5.9612007,11.3714008,3.4195976
			c3.3481007-2.7240982-4.198-1.5988998-6.2665005-2.9080963C7.9917202,55.0103989,4.5200801,52.7496986,4.9566998,55.8045006z"/>
	</g>
</g>
<g>
</g>
<g>
</g>
<g>
</g>
<g>
</g>
<g>
</g>
<g>
</g>
</svg>
