<?xml version="1.0" encoding="utf-8"?>
<!-- Generator: Adobe Illustrator 18.0.0, SVG Export Plug-In . SVG Version: 6.00 Build 0)  -->
<!DOCTYPE svg PUBLIC "-//W3C//DTD SVG 1.1//EN" "http://www.w3.org/Graphics/SVG/1.1/DTD/svg11.dtd">
<svg version="1.1" id="レイヤー_1" xmlns="http://www.w3.org/2000/svg" xmlns:xlink="http://www.w3.org/1999/xlink" x="0px"
	 y="0px" width="64px" height="64px" viewBox="0 0 64 64" style="enable-background:new 0 0 64 64;" xml:space="preserve">
<g>
	<g>
		<path style="fill:#B9B9B9;" d="M13.9101601,33.5966988L10.78613,30.3467007c0,0-1.4589796-0.6669998-2.8759699,1.625
			l-3.6670003,1.6249981c0,0-1.1430597,1.25-1.0297797,2.0839996L1.9102,37.8466988c0,0,2.8329597,1.0820007,3.3329597,0
			l0.4170003-2.25c0,0,2.5834904-0.5273972,2.25-1.3046989l2-0.6953011H13.9101601z"/>
		<path style="fill:#7C7C7C;" d="M4.1567383,38.5771484c-1.0219727,0-2.2827148-0.4765625-2.3359375-0.4970703l-0.2788086-0.1064453
			l1.4150391-2.3515625C2.9116211,34.7109375,3.9375,33.5605469,4.0585938,33.4277344l0.0834961-0.0595703l3.5966797-1.5942383
			c0.9243164-1.4584961,1.8837891-1.7675781,2.5297852-1.7675781c0.3637695,0,0.5961914,0.1015625,0.621582,0.112793
			l0.0761719,0.0541992l3.5307617,3.6733398H9.9521484l-1.7626953,0.6132813
			c-0.0043945,0.0859375-0.0288086,0.171875-0.0722656,0.2548828c-0.3134766,0.5996094-1.6948242,0.9667969-2.2416992,1.0908203
			l-0.3867188,2.0869141C5.2783203,38.3671875,4.8364258,38.5771484,4.1567383,38.5771484z M2.2832031,37.7119141
			c0.4169922,0.1357422,1.2172852,0.3652344,1.8735352,0.3652344c0.4672852,0,0.7563477-0.1123047,0.859375-0.3349609
			l0.4287109-2.3564453l0.1650391-0.0341797c0.7490234-0.1533203,1.8842773-0.5234375,2.0644531-0.8681641
			c0.0209961-0.0400391,0.0180664-0.0644531,0.0058594-0.0927734L7.574707,34.1435547l2.3354492-0.796875h3.4130859
			l-2.6782227-2.7856445c-0.0610352-0.0200195-0.1943359-0.0546875-0.3764648-0.0546875
			c-0.5288086,0-1.3300781,0.2768555-2.1459961,1.5966797l-0.0405273,0.065918l-3.6884766,1.6347656
			c-0.315918,0.3564453-1.0092773,1.2773438-0.9326172,1.84375l0.012207,0.0869141L2.2832031,37.7119141z"/>
	</g>
	<g>
		<path style="fill:#B9B9B9;" d="M43.7440987,33.2411995l1.4160995,3.3086014l-5.3330994,1.4228973l-2.5,2.5185013
			c0,0,0.7490997,0.9160004,3.0830994,0l1.25-1.4160004l1.75-0.0839996l4.8339005-3.9160004l0.0830002-2.5839996
			L43.7440987,33.2411995z"/>
		<path style="fill:#7C7C7C;" d="M38.5732422,41.1484375L38.5732422,41.1484375
			c-1.0029297,0-1.3974609-0.4482422-1.4394531-0.4990234l-0.1425781-0.1748047l2.7060547-2.7255859l5.1191406-1.3662109
			l-1.4277344-3.3369141l5.1982422-0.8505859l-0.0966797,3.0019531l-4.9863281,4.0400391l-1.7265625,0.0830078l-1.2753906,1.4033203
			C39.7841797,41.0058594,39.1357422,41.1484375,38.5732422,41.1484375z M37.7050781,40.4648438
			c0.1621094,0.0869141,0.4384766,0.1835938,0.8681641,0.1835938l0,0c0.4853516,0,1.0537109-0.1240234,1.6894531-0.3681641
			l1.2802734-1.4501953l1.7734375-0.0849609l4.6816406-3.7919922l0.0693359-2.1660156l-3.9677734,0.6494141l1.4042969,3.2802734
			l-5.546875,1.4804688L37.7050781,40.4648438z"/>
	</g>
	<g>
		<path style="fill:#C9C9C9;" d="M18.75,32.482399l-2.6665001,0.8330002c0,0-5.5830097-2.3329983-6.6665096-2.0829983
			c-1.0834904,0.25-2.1069303,2.4169979-2.1069303,2.4169979S6.1665001,36.4325981,5.5,36.6240005
			c-0.6665001,0.1913986-1.4165001,2.0253983-1.4165001,2.7753983L2.2202101,42.080101c0,0,1.5302799,1.7362976,3.4467797-0.4307022
			L5.5,39.732399c0,0,1.66748-0.6932983,1.1669898-2.25l2.3330102-3c0,0,1.7504902,0.3339996,2.1669922,1.1669998
			c0.4165039,0.8330002,4.0830078,2.25,4.0830078,2.25S22.1049995,36.7598,18.75,32.482399z"/>
		<path style="fill:#7C7C7C;" d="M3.6938477,42.9882813c-0.9946289,0-1.6342773-0.7128906-1.6611328-0.7431641L1.902832,42.0986328
			l1.9331055-2.78125c0.0478516-0.84375,0.796875-2.7041016,1.5952148-2.9335938
			c0.3393555-0.0976563,1.1196289-1.5449219,1.6474609-2.8291016c0.1152344-0.2451172,1.1142578-2.2963867,2.2822266-2.565918
			c0.0732422-0.0170898,0.1567383-0.0249023,0.2548828-0.0249023c1.3847656,0,5.7905273,1.800293,6.4799805,2.0859375
			l2.7446289-0.8574219l0.1064453,0.1357422c0.9091797,1.1591797,1.1865234,2.2197266,0.8242188,3.1533203
			c-0.7880859,2.0292969-4.3295898,2.6396484-4.4799805,2.6650391l-0.0673828,0.0107422l-0.0639648-0.0244141
			c-0.6269531-0.2421875-3.7788086-1.4960938-4.2163086-2.3720703c-0.2675781-0.5351563-1.3110352-0.8769531-1.8422852-1.0009766
			l-2.1586914,2.7753906c0.3164063,1.2167969-0.5463867,2.0205078-1.1782227,2.3496094L5.925293,41.734375l-0.0708008,0.0810547
			C5.1655273,42.59375,4.4389648,42.9882813,3.6938477,42.9882813z M2.5488281,42.0458984
			c0.2041016,0.1689453,0.6152344,0.4423828,1.1450195,0.4423828c0.5712891,0,1.1479492-0.3115234,1.7148438-0.9257813
			l-0.1733398-1.9892578l0.1679688-0.0712891c0.0595703-0.0253906,1.4487305-0.6279297,1.0258789-1.9433594l-0.0405273-0.125
			l2.5078125-3.2255859l0.1503906,0.0292969c0.1914063,0.0361328,1.8852539,0.3828125,2.34375,1.3007813
			c0.2675781,0.5341797,2.4956055,1.5605469,3.8837891,2.1025391c0.4770508-0.0908203,3.3989258-0.7138672,4.0307617-2.3408203
			c0.2802734-0.7226563,0.0620117-1.5722656-0.6474609-2.5263672l-2.5864258,0.8076172l-0.0839844-0.0351563
			c-0.0498047-0.0205078-4.9995117-2.0820313-6.371582-2.0820313c-0.0737305,0-0.1181641,0.0063477-0.1425781,0.012207
			c-0.7905273,0.1821289-1.6665039,1.7075195-1.9370117,2.2797852c-0.2739258,0.6679688-1.2407227,2.8994141-1.9672852,3.1083984
			c-0.484375,0.1396484-1.2353516,1.8037109-1.2353516,2.5351563v0.078125L2.5488281,42.0458984z"/>
	</g>
	<g>
		<path style="fill:#F7F7F7;" d="M16.9726601,37.1581993c0,0-4.416996-0.9169998-5.416996-0.5
			c-1.0000038,0.4169998-2.5000038,1.6669998-2.1665039,2.9169998l-0.0473604,2.5c0,0-0.54737,2.0820007,0,2.6660004
			l1.0839806,2.7216988c0,0,1.4448252-1.0067978,1.8291025-3.3642998l0.2177734-4.107399L16.9726601,37.1581993z"/>
		<path style="fill:#7C7C7C;" d="M10.3100586,47.8486328L9.125,44.8730469
			c-0.559082-0.6845703-0.1206055-2.4990234-0.0249023-2.8613281l0.0385742-2.4072266
			c-0.3334961-1.3681641,1.1806641-2.7011719,2.3208008-3.1767578c0.206543-0.0859375,0.5185547-0.1279297,0.9541016-0.1279297
			c1.6337891,0,4.4892578,0.5888672,4.6098633,0.6132813l0.6069336,0.1259766l-4.9150391,3.0947266l-0.2109375,3.9785156
			c-0.3994141,2.4599609-1.8730469,3.5117188-1.9355469,3.5556641L10.3100586,47.8486328z M12.4135742,36.7998047
			c-0.4521484,0-0.6635742,0.0478516-0.7617188,0.0888672c-1.0004883,0.4179688-2.2963867,1.5908203-2.0209961,2.6220703
			l0.0087891,0.0341797l-0.0478516,2.5351563c-0.2207031,0.8681641-0.3793945,2.1572266-0.0673828,2.4902344l0.0498047,0.078125
			l0.9541016,2.3964844c0.4101563-0.3955078,1.2138672-1.3544922,1.4799805-2.9863281l0.2216797-4.2099609l4.0751953-2.5654297
			C15.3613281,37.1074219,13.5488281,36.7998047,12.4135742,36.7998047z"/>
	</g>
	<g>
		<path style="fill:#F7F7F7;" d="M49.6601982,28.8251991c0,0,3.7509003,1.4336014,3.5839005,3.1748009
			S53.25,34.9911995,53.25,34.9911995l-0.8398018,2.4169998c0,0,2.1972008,0.7334023,3.5986023-3.0918007v-3.1767979
			l-3.1748009-3.3144016L49.6601982,28.8251991z"/>
		<path style="fill:#7C7C7C;" d="M52.8525391,37.7148438L52.8525391,37.7148438c-0.3056641,0-0.5-0.0625-0.5214844-0.0693359
			l-0.2402344-0.0800781l0.9042969-2.6005859c-0.0332031-0.2753906-0.1494141-1.4335938,0-2.9887695
			c0.1220703-1.2714844-2.4306641-2.5371094-3.4238281-2.9174805l-0.6699219-0.2563477l4.0058594-1.262207l3.3515625,3.4990234
			l-0.015625,3.3632813C55.1875,37.2841797,53.6660156,37.7148438,52.8525391,37.7148438z M52.7431641,37.2109375
			c0.6220703,0.0361328,2.0117188-0.2333984,3.015625-2.9394531v-3.03125l-2.9980469-3.1298828l-2.3837891,0.7509766
			c1.1044922,0.5141602,3.2558594,1.7089844,3.1162109,3.1625977c-0.1621094,1.6879883,0.0029297,2.9204102,0.0048828,2.9331055
			l0.0078125,0.0595703L52.7431641,37.2109375z"/>
	</g>
	<g>
		<path style="fill:#C9C9C9;" d="M46.2440987,31.1396008c0,0,3.5,0.2861996,4.0830002,0.8603992
			c0.5830994,0.5751991,1.6669998,1.9921989,0,3.0751991c-1.6669006,1.0830002-4.8330002,1.9990005-5.25,3.4160004v1.3339996
			c0,0-0.6669006,2.6777-3.4169006,2.8389015l0.6669006-3.1729012c0,0,0.6669998-2.7636986,1.4169998-2.589798l3.8330002-2.4932022
			c0,0-1.3330002-1.1669998-1.5830002-1.1669998S44.6610985,31.5380993,46.2440987,31.1396008z"/>
		<path style="fill:#7C7C7C;" d="M41.3486328,42.9326172l0.7333984-3.4931641
			c0.1601563-0.6611328,0.7412109-2.7958984,1.59375-2.7958984c0.0019531,0,0.0039063,0,0.0058594,0l3.4794922-2.2636719
			c-0.5087891-0.4306641-1.0537109-0.8505859-1.1972656-0.8916016c-0.0009766,0-0.0009766,0-0.0019531,0
			c-0.3183594,0-0.7333984-0.7021484-0.8007813-1.2460938c-0.0830078-0.6704102,0.2900391-1.1606445,1.0224609-1.3452148
			l0.0400391-0.0097656l0.0410156,0.003418c0.5996094,0.0488281,3.6210938,0.3242188,4.2382813,0.9311523
			c0.3945313,0.3896484,1.0429688,1.1728516,0.9541016,2.0463867c-0.0556641,0.5478516-0.3896484,1.0244141-0.9941406,1.4169922
			c-0.5585938,0.3632813-1.2578125,0.6962891-1.9980469,1.0488281c-1.3417969,0.6396484-2.859375,1.3632813-3.1376953,2.1953125
			v1.2958984c-0.0146484,0.0888672-0.7519531,2.9189453-3.6523438,3.0888672L41.3486328,42.9326172z M43.6875,37.1445313
			c-0.2871094,0-0.8134766,1.1464844-1.1171875,2.4052734l-0.5947266,2.8310547
			c2.2636719-0.3320313,2.8535156-2.5917969,2.859375-2.6162109l-0.0078125-1.3095703l0.0097656-0.0341797
			c0.3125-1.0605469,1.8886719-1.8115234,3.4130859-2.5380859c0.7246094-0.3457031,1.4091797-0.671875,1.9414063-1.0175781
			c0.4697266-0.3056641,0.7285156-0.6582031,0.7685547-1.0478516c0.0703125-0.6904297-0.5419922-1.3764648-0.8085938-1.6396484
			c-0.3730469-0.3676758-2.5615234-0.6743164-3.8847656-0.7856445c-0.3681641,0.1010742-0.5664063,0.2836914-0.6083984,0.5561523
			c-0.0625,0.4174805,0.2558594,0.9399414,0.3916016,1.0473633c0.1376953,0.0249023,0.5068359,0.1870117,1.6923828,1.2241211
			L47.9902344,34.4375l-4.1992188,2.7314453L43.6875,37.1445313L43.6875,37.1445313z"/>
	</g>
	<g>
		<path style="fill:#F7F7F7;" d="M14.3271503,17.2412109c0,0,2.4169903-1.4160109,3.75-0.6660118
			c1.3330097,0.75,3.4077091,2.6669903,6.2871494,2.3330002c2.8794003-0.3330002,4.712801,1.3330116,4.712801,1.3330116
			s-5.2504005-0.4169903-6.6669006,0c0,0,5.6660004,1.25,8.25,0c2.5838985-1.25,4.9168987-0.4257813,4.9168987-0.4257813
			S28.6602001,22.9081993,22.9937,22.3251991c0,0,10.5833988-1.3339882,12.5833988-1.25c0,0-3.8329983,2.75-9.2499981,4
			c0,0-3.9169006,1.75-5.6669407,0.875c-1.75-0.875-2.4165096-0.7919998-2.4165096-0.7919998"/>
		<path style="fill:#7C7C7C;" d="M21.9238281,26.4433594c-0.5131836,0-0.9892578-0.0766602-1.3754883-0.2695313
			c-1.6225586-0.8110352-2.2646484-0.7661133-2.2788086-0.7670898l-0.0566406-0.496582
			c0.0722656-0.0112305,0.7919922-0.0668945,2.559082,0.8164063c1.6269531,0.815918,5.4155273-0.8618164,5.453125-0.8793945
			c3.9931641-0.925293,7.1352539-2.6704102,8.4868164-3.5058594c-0.90625,0.0454102-2.2509766,0.1660156-3.7089844,0.3149414
			c-2.394043,0.6518555-5.3598633,1.1967773-8.034668,0.9174805l-2.1728516-0.2236328l2.1669922-0.2729492
			c0.2734375-0.034668,4.4331055-0.5571289,7.9672852-0.9174805c1.6616211-0.4555664,3.0390625-0.9633789,3.8271484-1.2753906
			c-0.8652344-0.1367188-2.3837891-0.1948242-3.987793,0.5820313c-2.6293945,1.2739258-8.1777344,0.0722656-8.4125977,0.019043
			l-0.9492188-0.2094727l0.9321289-0.2744141c1.0888672-0.3208008,4.2568359-0.1733398,5.840332-0.0732422
			c-0.765625-0.4350586-2.0947266-0.9682617-3.7866211-0.7714844c-2.4057617,0.2758789-4.2446289-0.9365234-5.5869141-1.8251953
			c-0.3120117-0.206543-0.5957031-0.3945313-0.8515625-0.5385742c-0.9926758-0.5595703-2.8632813,0.2900391-3.5009766,0.6640625
			l-0.2529297-0.4316406c0.1040039-0.0610352,2.559082-1.4790039,3.9990234-0.6679688
			c0.2651367,0.1489258,0.559082,0.3432617,0.8823242,0.5571289c1.2773438,0.8457031,3.0258789,2.0024414,5.253418,1.7451172
			c2.9555664-0.3422852,4.8310547,1.3251953,4.909668,1.3964844l0.3178711,0.2890625
			c0.362793-0.0805664,0.6967773-0.1879883,0.9882813-0.3291016c2.6489258-1.2807617,5.0102539-0.4707031,5.1088867-0.4365234
			l0.5908203,0.2084961l-0.5722656,0.2553711c-0.0244141,0.0112305-0.9248047,0.4091797-2.3291016,0.890625
			c1.0048828-0.0820313,1.8085938-0.1259766,2.2382813-0.1088867l0.7236328,0.0307617l-0.5888672,0.4223633
			c-0.0380859,0.027832-3.9360352,2.793457-9.3393555,4.0405273C26.2895508,25.3647461,23.8496094,26.4433594,21.9238281,26.4433594
			z M24.2817383,20.309082c1.2856445,0.1777344,3.0361328,0.3349609,4.5175781,0.1621094
			C28.0688477,20.418457,25.9384766,20.2753906,24.2817383,20.309082z"/>
	</g>
	<g>
		<path style="fill:#F7F7F7;" d="M41.6601982,22.4911995c0,0-0.3320999-2.3515491,2.8339005-2.6757698
			c3.1660995-0.3242188,7.4990997-0.0742188,9.9160995-2.0742188c2.4169006-2.000001,9.0937004-1.798831,6.2138023-3.7324209
			c0,0,3.8692017,0.6669903-0.9638023,4.24121c0,0-2.6669998,2.4072304-6.25,2.1581993c0,0,5.7607002-0.0117188,7.2138023-1.5058594
			c0,0-1.797802,2.2558594-3.4638023,2.5058594c0,0,4.5839005,0,1.8339005,3.4169998c0,0,2.25-3.5195389-3.4169998-1.5927982
			c-5.6669006,1.9257984-6.3885994,2.0732994-9.6669006,0.6142998c-3.2783966-1.4590015-2.3330994,0.6444988-2.3330994,0.6444988"/>
		<path style="fill:#7C7C7C;" d="M49.4238281,25.0688477c-1.1347656,0-2.1289063-0.3325195-3.6152344-0.9936523
			c-1.5576172-0.6933594-1.9482422-0.4780273-2.03125-0.3959961c-0.1503906,0.1499023-0.0458984,0.5429688,0.0283203,0.7099609
			L43.3486328,24.59375c-0.0371094-0.0844727-0.3564453-0.8349609,0.0742188-1.2670898
			c0.4042969-0.4072266,1.2275391-0.3144531,2.5888672,0.2915039c3.2050781,1.4262695,3.9238281,1.2670898,9.4853516-0.6225586
			c2.1650391-0.737793,3.4667969-0.7822266,3.9746094-0.1357422c0.0605469,0.078125,0.1064453,0.1611328,0.140625,0.2480469
			c0.0234375-0.1899414,0.0039063-0.3710938-0.0742188-0.5336914c-0.3574219-0.7495117-1.8378906-0.9155273-2.3779297-0.9160156
			l-0.0371094-0.4970703c0.7695313-0.1157227,1.5859375-0.7070313,2.2148438-1.2753906
			c-1.2861328,0.4335938-2.9912109,0.6240234-4.2441406,0.7075195c-0.5371094,0.0776367-1.1064453,0.1064453-1.7011719,0.0644531
			l0.0166016-0.4995117c0.0195313,0,0.6875-0.003418,1.6132813-0.0634766
			c2.6132813-0.3857422,4.4482422-2.0107422,4.4707031-2.0302734c2.2421875-1.6601563,2.4199219-2.5595703,2.3271484-2.9487305
			c-0.0380859-0.1611328-0.1318359-0.2949219-0.2509766-0.4052734c0.015625,0.0751953,0.0175781,0.1523438,0.0039063,0.2324219
			c-0.1142578,0.6665039-1.2607422,0.9614258-2.8476563,1.3701172c-1.4951172,0.3847656-3.1894531,0.8208008-4.15625,1.6206055
			c-1.9628906,1.6245117-5.1162109,1.8105469-7.8984375,1.9746094c-0.7607422,0.0449219-1.4794922,0.0869141-2.1513672,0.1557617
			c-1.0253906,0.1049805-1.7646484,0.4389648-2.1972656,0.9921875c-0.5126953,0.6547852-0.4160156,1.3925781-0.4150391,1.3999023
			l-0.4941406,0.0703125c-0.0058594-0.0390625-0.1269531-0.9580078,0.515625-1.7788086
			c0.5195313-0.6640625,1.375-1.0615234,2.5400391-1.1806641c0.6826172-0.0698242,1.40625-0.112793,2.1728516-0.1577148
			c2.7050781-0.159668,5.7724609-0.340332,7.609375-1.8603516c1.0527344-0.871582,2.8046875-1.3222656,4.3496094-1.7202148
			c1.078125-0.2773438,2.4208984-0.6230469,2.4804688-0.9702148c0.0078125-0.0512695-0.0087891-0.2475586-0.5966797-0.6420898
			l-0.9716797-0.652832l1.1533203,0.1987305c0.0576172,0.0102539,1.4072266,0.253418,1.640625,1.237793
			c0.2177734,0.9179688-0.5986328,2.046875-2.4980469,3.4511719c-0.0488281,0.0449219-0.8193359,0.7290039-2.0722656,1.3271484
			c1.1503906-0.2114258,2.2119141-0.5395508,2.7080078-1.050293l0.375,0.3300781
			c-0.0605469,0.0756836-1.2138672,1.5092773-2.5605469,2.2241211c0.6591797,0.1401367,1.4257813,0.4384766,1.7304688,1.0751953
			c0.3242188,0.6782227,0.0556641,1.5610352-0.8007813,2.6245117l-0.4052734-0.2910156
			c0.1728516-0.2719727,0.5986328-1.1352539,0.2949219-1.5224609c-0.2001953-0.2543945-0.9130859-0.5532227-3.4208984,0.3007813
			C52.5117188,24.5380859,50.8564453,25.0688477,49.4238281,25.0688477z"/>
	</g>
	<path style="fill:#F7F7F7;" d="M6.4892602,14.5742197c0,0,0.75488-0.6660194,1.0878897-0.4990196
		c0.3330102,0.1660099,1.0830102-0.5019598,1.3330102,0.4990196c0,0,2.5004845,1.3339806,2.9169884,1.3339806
		s3.8334913,0.999999,4.5000019,2.5830107c0,0,3.25,5.8329887,5.25,6.4999886
		c1.9999504,0.6669998,6.9990501-1.5830002,9.0830498-2.0830002c2.0838985-0.5,10.7508984-2.25,12.8338985,0.0830002
		c2.0830002,2.3339996,2.6669998,4.3339996,4,4.3339996s3.6660995-1.8339996,3.6660995-1.8339996
		s2.0839005-0.2489986,2.5839005,1.4169998c0,0,3.2579002,5.3291016,4.7120018,5.5400009
		c0,0,0.5379982,1.1269989,0.5379982,1.8769989v1.8330002c0,0-1.5839005,1.5830002-3.0839005,0.75l0.5-2.1669998
		c0,0-0.6660995-0.3339996-0.6660995-1.5c0,0-1.1669998-4.4169998-3.4169998-4.25s-4,3.5-4,3.5s-4.4990005,2.5-6.3330002,3.25
		c-1.8339005,0.75-3.4179001-1.9169998-4.8339005-1.6660004c0,0-4.9160995,6.3330002-12.5830975,5.3330002l-2,1.1669998
		c0,0-4.7499504,0-6.4999504-0.5s-2.4169903,0.25-2.6669903,1.8330002s1.4169903,2.7509995,1.1669903,3.6669998h2.1665001
		c0,0,2.0830097,2.4990005-0.3334904,4.4160004l-2.6665096-2.5c0,0-1.8334942-0.5820007-1.5834942-2.9160004l-0.4165039-3.9169998
		c0,0,0.0834961-3.1669998,1.4999981-3.4169998c0,0,5.3330097-0.6669998,4.1665096-2.5
		c-1.1665096-1.8330002-2.4165096-4.1660004-2.4165096-5.9160004c0,0-2.916502-4.5-2.666502-5.25
		c0,0-1.6669884-1.4169998-2.1669884-3.5839882c0,0,0.1669903-1.1660118-1.9165096-1.0830116
		c-2.0834904,0.0830116-1.7543902-1.4169884-1.7543902-1.4169884V14.5742197z"/>
	<path style="fill:#E2E2E2;" d="M17.4726601,39.7099991c0,0,6.1752396,0.4090996,7.2275391-2.274498
		c0,0,2.6890011-0.235302,1.3662014-2.3398018c0,0-0.1562004,3.5956993,3.5937996,1.4541016
		c3.7499981-2.1416016,5.9168987-3.3086014,5.9168987-3.3086014l1.5830994,0.8339996c0,0-5.9848976,6.4424019-12.0756989,5.3876991
		C25.0844994,39.4628983,19.7016602,41.9286995,17.4726601,39.7099991z"/>
	<path style="fill:#7C7C7C;" d="M12.0771484,17.7412109l0.8129883-0.5l1.1035137,1
		C13.9936504,18.2412109,13.3271503,18.1581993,12.0771484,17.7412109z"/>
	<path style="fill:#7C7C7C;" d="M8.5332003,15.5752001L7.9101601,15.24121l0.3115196-0.5
		C8.2216797,14.74121,8.90625,14.9082003,8.5332003,15.5752001z"/>
	<path style="fill:#7C7C7C;" d="M24.0590992,39.7099991c0,0,1.7680016-2.3125,2.0180016-3.0156975
		c0.25-0.7031021-1.0087013-2.4531021-1.0087013-2.4531021s3.5234013,1.8594017,0.0160999,5.2216988L24.0590992,39.7099991z"/>
	<path style="fill:#7C7C7C;" d="M17.5698204,35.3241997c0,0,1.1298904-1.3330002,1.5268593-1.7490005
		c0.3969707-0.4169998,2.5634804-1.0839996,2.5634804-1.0839996l-2.0449295,1.75l-2.5966797,1.8506012L17.5698204,35.3241997z"/>
	<path style="fill:#7C7C7C;" d="M37.1601982,34.0751991l-3.4160995-0.8339996v-5.1660004c0,0,0.5839996,3.9160004,1,4.4160004
		c0.4160995,0.5,4.1660995,1.8008003,4.1660995,1.8008003L37.1601982,34.0751991z"/>
	<path style="fill:#7C7C7C;" d="M43.3270988,22.4911995c0,0,1.2208023-1.0830002,3.1104012-1.0830002s5.4325981,0,5.4325981,0
		s-7.2919998,0.1660213-8.3759995,1.5830002L43.3270988,22.4911995z"/>
	<path style="fill:#7C7C7C;" d="M44.2431984,23.3369007c0,0,5.6923027-1.5126801,6.9716034-0.8457012
		c1.2792969,0.6669998-2.3046036,1.6669998-2.8877029,1.4169998l0.9169998-0.9169998c0,0,0.5937996,0.6777,0.9160995,0
		c0.3222008-0.6777-4.2529984,0.5790997-4.5830994,0.5839996L44.2431984,23.3369007z"/>
	<path style="fill:#E2E2E2;" d="M18.1518593,21.4081993c0,0,3.341301,1.1660004,3.5083008,1.5830002
		C21.8271503,23.4081993,29.2437,23.1348,29.2437,23.1348S21.2265606,28.9922009,18.1518593,21.4081993z"/>
	<path style="fill:#7C7C7C;" d="M12.0771484,23.3379002c0,0,1.4169912,0.5702991,2.2500019,0.3202991
		c0.8330097-0.25,1-1.4580002,1-1.4580002s-0.1064501,2.0420017-0.3867207,2.2080002
		c-0.2802696,0.1669998-0.2802696,0.1669998-0.2802696,0.1669998s-1.4677801-0.75-1.9677773,0.25L12.0771484,23.3379002z"/>
	<path style="fill:#7C7C7C;" d="M17.6884804,20.7226601c0,0,2.7216797,0.4355392,3.9716797,0.6855392
		c0,0-3.3271503,0.2685604-3.2153397,0.4267616c0.1118202,0.1591797-0.1118107-0.1582012-0.1118107-0.1582012L17.6884804,20.7226601
		z"/>
	<path style="fill:#7C7C7C;" d="M20.1567402,23.9473c0,0,4.6723595-0.5273991,6.48246-0.4346008
		C28.4491997,23.6054993,29.2437,23.1348,29.2437,23.1348s-6.3437996,1.4403992-8.5469208,1.3153992L20.1567402,23.9473z"/>
	<path style="fill:#7C7C7C;" d="M9.3417997,44.7411995c0,0,2.1621065-1.1543007,2.6152315-2.0770988v2.579998
		c0,0-0.8491211,1.5235023-1.531251,2.2187996L9.3417997,44.7411995z"/>
	<path style="fill:#7C7C7C;" d="M15.3271503,45.5751991c0,0,0.3935499,1.9932022-0.3867207,3.0381012l1.4697304,1.3778992
		c0,0,2.1669903-2.0820007,0.3334904-4.4160004H15.3271503z"/>
	<path style="fill:#7C7C7C;" d="M53.0761986,35.4911995c0,0,1.6377029-0.1395988,2.6679001-2.25v1.7246017
		c0,0-1.1679001,2.7753983-3.3339005,2.4423981L53.0761986,35.4911995z"/>
	<path style="fill:#7C7C7C;" d="M56.2724991,35.3389015c0,0,2.1914024-0.0147018,2.4980011-2.097702
		c0,0,0.5575981,1.75,0.2235985,2.9169998c0,0-1.7313995,1.0059013-3.0839005,0.75L56.2724991,35.3389015z"/>
	<path style="fill:#FEFEFE;" d="M16.9726601,21.8798809c0,0,2.76367,4.1015186,3.1840801,4.3154182
		c0.4204102,0.2129002,3.2534599,0,3.2534599,0s8-2.2919998,9.9999981-2.2479992c0,0-2.6664982,1.8680992-4.1664982,2.2479992
		s-4.1665993,0.2969017-6.4165993,0.7129002c-2.2499504,0.4169998-5.3559113-1.9550991-5.3466301-3.112299
		C17.4897499,22.6387005,16.9726601,21.8798809,16.9726601,21.8798809z"/>
	<path style="fill:#FEFEFE;" d="M32.0770988,25.6581993c0,0,2.0830994-1.2549,3.5-1.7108994l1.75-0.1513996
		C37.3270988,23.7959003,34.7440987,25.7422009,32.0770988,25.6581993z"/>
	<path style="fill:#E2E2E2;" d="M36.1533012,33.2411995c0,0,3.7577972,0.3906021,4.3407974,0.6953011
		s6.1669998-0.2783012,6.5-2.2783012s3.3799019-1.7567997,3.3799019-1.7567997l-2.0469017,2.5897999l-6.6767006,3.3526001
		C41.6503983,35.8437996,37.8163986,34.6104012,36.1533012,33.2411995z"/>
	<path style="fill:#E2E2E2;" d="M14.9404297,24.4081993c0,0,2.2368202,6.3506012,1.2700195,7.5918007
		c0,0-1.4667988-2.5918007-1.2167988-3.1748009L12.3554688,23.9473L14.9404297,24.4081993z"/>
	<path style="fill:#FEFEFE;" d="M36.8270988,24.8251991c0,0,1.8330994-1.0049,2.5830994-0.8778992
		C40.1601982,24.0751991,38.3134995,24.7236004,36.8270988,24.8251991z"/>
	<path style="fill:#FEFEFE;" d="M13.7021503,38.5751991c0,0,1.875-1.2509995,3.0415001-1.3339996
		c1.1665096-0.0830002,4.5-3.3046989,4.5-3.3046989S17.8334999,38.7724991,13.7021503,38.5751991z"/>
	<path style="fill:#7C7C7C;" d="M16.3964844,50.3212891l-2.7875977-2.6142578
		c-0.3325195-0.1328125-1.9394531-0.8964844-1.6972656-3.1582031l-0.4165039-3.8642578
		c0.0078125-0.3779297,0.1328125-3.4121094,1.7050781-3.6894531c1.0009766-0.1259766,3.6586914-0.6425781,4.0771484-1.5322266
		c0.0541992-0.1152344,0.1044922-0.3007813-0.078125-0.5878906c-1.6015625-2.5161133-2.4272461-4.5258789-2.4550781-5.9750977
		c-0.6933594-1.0732422-2.644043-4.1816406-2.6757813-5.2207031c-0.3740234-0.3466797-1.7036133-1.6889648-2.1518555-3.6318359
		L9.90625,20.0019531l0.0063477-0.0458984c0.0004883-0.0053711,0.0219727-0.2202148-0.15625-0.4189453
		c-0.246582-0.2758789-0.7587891-0.4111328-1.5029297-0.3789063C7.4165039,19.1875,6.8461914,18.9941406,6.5107422,18.5776367
		c-0.4003906-0.4985352-0.2714844-1.1142578-0.265625-1.1401367l-0.0058594-2.9760742l0.0844727-0.074707
		c0.1113281-0.0981445,0.6894531-0.5883789,1.1279297-0.5883789c0.0869141,0,0.1669922,0.0180664,0.2373047,0.0532227
		c0.0834961,0.0039063,0.1674805-0.0166016,0.2558594-0.0361328c0.1210938-0.0268555,0.2578125-0.0566406,0.3994141-0.0566406
		c0.3798828,0,0.6411133,0.2167969,0.7773438,0.6445313c1.1401367,0.6044922,2.4726563,1.2436523,2.7070313,1.2548828
		c0.4785156,0,4.0131836,1.0361328,4.7290039,2.7358398c0.0200195,0.0332031,3.2133789,5.7314453,5.0986328,6.3598633
		c0.2182617,0.0727539,0.4936523,0.1098633,0.8183594,0.1098633c1.5273438,0,3.8706055-0.8027344,5.7539063-1.4477539
		c0.9492188-0.3251953,1.769043-0.605957,2.3735352-0.7509766c0.472168-0.1132813,4.7211914-1.1074219,8.3881836-1.1074219
		c2.3613281,0,3.9394531,0.4262695,4.6904297,1.2670898c0.7880859,0.8837891,1.3730469,1.7319336,1.8427734,2.4135742
		c0.7626953,1.105957,1.2666016,1.8369141,1.9707031,1.8369141c1.2314453,0,3.4892578-1.7626953,3.5117188-1.7807617
		l0.0546875-0.0429688l0.0703125-0.0083008c0,0,0.1210938-0.0151367,0.3154297-0.0151367
		c0.6132813,0,2.0800781,0.1542969,2.5273438,1.5766602c1.2402344,2.0234375,3.5478516,5.2553711,4.5185547,5.3959961
		l0.1318359,0.0195313l0.0576172,0.1201172c0.0234375,0.0483398,0.5625,1.1870117,0.5625,1.9848633v1.9365234l-0.0732422,0.0732422
		c-0.0439453,0.0439453-1.0800781,1.0654297-2.3271484,1.0654297c-0.3730469,0-0.7275391-0.0917969-1.0546875-0.2734375
		l-0.1650391-0.0917969l0.5048828-2.1875c-0.2333984-0.1943359-0.625-0.65625-0.6347656-1.5722656
		c-0.1035156-0.3686523-1.1806641-4.0385742-3.0429688-4.0385742c-0.0351563,0-0.0703125,0.0009766-0.1054688,0.0039063
		c-2.0878906,0.1547852-3.7802734,3.3344727-3.796875,3.3666992l-0.0351563,0.065918l-0.0654297,0.0366211
		c-0.1835938,0.1020508-4.5322266,2.515625-6.359375,3.2626953C41.8417969,36.0732422,41.5849609,36.125,41.3232422,36.125
		c-0.8535156,0-1.6425781-0.5449219-2.3388672-1.0253906c-0.6162109-0.4248047-1.2099609-0.8095703-1.6933594-0.7890625
		C36.7177734,35,32.5239258,39.765625,26.215332,39.765625c-0.5249023,0-1.0576172-0.0332031-1.5854492-0.0986328
		l-1.9853516,1.1582031h-0.0673828c-0.1953125,0-4.8051758-0.0058594-6.5688477-0.5097656
		c-1.4433594-0.4140625-2.0917969-0.0078125-2.3510742,1.6318359c-0.1235352,0.7822266,0.2915039,1.4804688,0.6582031,2.0966797
		c0.2631836,0.4433594,0.5151367,0.8671875,0.5361328,1.28125h2.0092773l0.074707,0.0898438
		c0.0419922,0.0507813,1.0244141,1.2470703,0.8774414,2.6738281c-0.0825195,0.8007813-0.5019531,1.5068359-1.2475586,2.0986328
		L16.3964844,50.3212891z M10.4125977,19.972168c0.4863281,2.0419922,2.0605469,3.3989258,2.0766602,3.4125977l0.128418,0.109375
		l-0.0532227,0.1601563c-0.1152344,0.4165039,1.2802734,2.9379883,2.6391602,5.0351563l0.0400391,0.0620117v0.0737305
		c0,1.3574219,0.7998047,3.3027344,2.3774414,5.7822266c0.2905273,0.4560547,0.2197266,0.8330078,0.1088867,1.0683594
		c-0.6108398,1.2978516-4.0634766,1.7646484-4.4550781,1.8134766c-0.9848633,0.1738281-1.2597656,2.3515625-1.28125,3.1757813
		l0.4150391,3.8837891c-0.2241211,2.1455078,1.3447266,2.6826172,1.4116211,2.7041016l0.0942383,0.0556641l2.5048828,2.3486328
		c0.5322266-0.4726563,0.8330078-1.0146484,0.8959961-1.6162109c0.105957-1.0126953-0.4892578-1.9316406-0.6953125-2.2158203H14.25
		l0.0859375-0.3154297c0.0844727-0.3095703-0.1635742-0.7265625-0.4506836-1.2099609
		c-0.3891602-0.6552734-0.8735352-1.4697266-0.722168-2.4306641c0.1489258-0.9433594,0.5141602-2.1972656,1.9599609-2.1972656
		c0.3041992,0,0.6386719,0.0527344,1.0229492,0.1630859c1.5849609,0.453125,5.7807617,0.4873047,6.3637695,0.4902344
		l2.0151367-1.1757813l0.0844727,0.0107422c0.5341797,0.0693359,1.074707,0.1054688,1.605957,0.1054688
		c6.5161133,0,10.7055664-5.2900391,10.7475586-5.34375l0.0585938-0.0761719l0.0947266-0.0166016
		c0.7167969-0.1240234,1.4160156,0.3505859,2.1523438,0.859375c0.8574219,0.5908203,1.78125,1.1679688,2.6308594,0.8212891
		c1.6816406-0.6875,5.6875-2.8950195,6.2421875-3.2016602c0.2724609-0.4960938,1.9609375-3.4023438,4.1669922-3.5664063
		c2.4277344-0.1806641,3.6279297,4.2509766,3.6777344,4.4360352l0.0078125,0.0634766
		c0,0.9794922,0.5097656,1.2666016,0.53125,1.2783203l0.1679688,0.0908203l-0.0400391,0.1875l-0.4550781,1.9726563
		c0.2041016,0.0869141,0.4208984,0.1298828,0.6455078,0.1298828c0.8730469,0,1.6621094-0.6386719,1.9003906-0.8515625v-1.7236328
		c0-0.5576172-0.3369141-1.371582-0.4648438-1.6616211c-1.5634766-0.4775391-4.4189453-5.0859375-4.7480469-5.625
		l-0.0263672-0.0585938c-0.3271484-1.0893555-1.4296875-1.2519531-2.0585938-1.2519531
		c-0.0810547,0-0.1464844,0.0029297-0.1914063,0.0058594c-0.3867188,0.2963867-2.4648438,1.8413086-3.7607422,1.8413086
		c-0.9667969,0-1.5605469-0.8613281-2.3818359-2.0532227c-0.4863281-0.7050781-1.0371094-1.5039063-1.8046875-2.3642578
		c-0.6513672-0.7299805-2.1044922-1.1000977-4.3173828-1.1000977c-2.9316406,0-6.5786133,0.6875-8.2719727,1.09375
		c-0.5810547,0.1396484-1.390625,0.4165039-2.3276367,0.737793c-1.918457,0.6567383-4.3056641,1.4746094-5.9160156,1.4746094
		c-0.3789063,0-0.7070313-0.0454102-0.9765625-0.1352539c-2.0683594-0.6899414-5.2548828-6.3740234-5.3891602-6.6157227
		c-0.6210938-1.4707031-3.8774414-2.4545898-4.2817383-2.4545898c-0.4443359,0-2.4350586-1.043457-3.034668-1.3632813
		l-0.0981445-0.0522461l-0.0268555-0.1079102c-0.09375-0.3759766-0.2373047-0.3759766-0.3232422-0.3759766
		c-0.0874023,0-0.1914063,0.0229492-0.2915039,0.0449219c-0.2045898,0.0454102-0.4272461,0.0751953-0.5869141-0.0048828
		c-0.0004883,0-0.0004883,0-0.0009766,0c-0.1743164,0-0.5043945,0.2133789-0.7255859,0.3916016v2.8007813
		c-0.0063477,0.0561523-0.0874023,0.4677734,0.1640625,0.7763672c0.2128906,0.2612305,0.6088867,0.394043,1.1772461,0.394043
		l0.1533203-0.003418c0.9326172-0.0371094,1.5541992,0.152832,1.9072266,0.559082
		C10.4038086,19.5200195,10.4189453,19.8427734,10.4125977,19.972168z"/>
	<g>
		<path style="fill:#F7F7F7;" d="M14.9404297,18.9081993c0,0,1.3823204-1.5,2.5927696-0.6669884
			c1.2104511,0.8339882,1.5634804,1.5,1.5634804,1.5s-1.5200195,0.1669884-2.6865196,0"/>
		<path style="fill:#7C7C7C;" d="M17.6293945,20.065918c-0.4086914,0-0.8500977-0.0195313-1.2548828-0.0771484l0.0712891-0.4951172
			c0.7470703,0.1074219,1.6582031,0.0717773,2.1865234,0.0356445c-0.2197266-0.2583008-0.6079102-0.6459961-1.2407227-1.0820313
			c-1.0219727-0.7050781-2.2558594,0.6162109-2.2670898,0.6303711l-0.3681641-0.3388672
			c0.0625-0.0678711,1.5478516-1.6469727,2.918457-0.7036133c1.246582,0.8588867,1.6269531,1.5595703,1.6425781,1.5888672
			l0.1728516,0.3256836l-0.3662109,0.0400391C19.0825195,19.9941406,18.4169922,20.065918,17.6293945,20.065918z"/>
	</g>
	<path style="fill:#7C7C7C;" d="M6.4892602,16.3564491c0,0,0.9208999,0.5527306,1.4208999,0.46875
		c0.5-0.0830097,1.0434504,0.9160118,2.7392502,2.0781212c-0.4892502,1.0878906-1.3720703-1.6914101-2.7392502-1.6621094
		l-1.4208999-0.3330116V16.3564491z"/>
</g>
<g>
</g>
<g>
</g>
<g>
</g>
<g>
</g>
<g>
</g>
<g>
</g>
</svg>
