<?xml version="1.0" encoding="utf-8"?>
<!-- Generator: Adobe Illustrator 17.0.0, SVG Export Plug-In . SVG Version: 6.00 Build 0)  -->
<!DOCTYPE svg PUBLIC "-//W3C//DTD SVG 1.1//EN" "http://www.w3.org/Graphics/SVG/1.1/DTD/svg11.dtd">
<svg version="1.1" id="レイヤー_1" xmlns="http://www.w3.org/2000/svg" xmlns:xlink="http://www.w3.org/1999/xlink" x="0px"
	 y="0px" width="64px" height="64px" viewBox="0 0 64 64" style="enable-background:new 0 0 64 64;" xml:space="preserve">
<g>
	<g>
		<path style="fill:#331C03;" d="M56.09375,37.5810547c0.5742188-1.3144531,0.8642578-2.7675781,0.8642578-4.3310547
			c0-4.1611328-2.5800781-7.7431641-7.4746094-10.3979492c0.1914063-0.6884766,0.2871094-1.418457,0.2871094-2.1801758
			c0-11.0478516-16.7080078-17.4404297-17.4194336-17.7075195L31,2.4580078v1.4428711
			c0,4.8769531-4.1210938,6.6655273-8.4838867,8.559082c-4.0742188,1.7685547-8.2871094,3.5966797-8.2871094,8.2119141
			c0,1.2705078,0.262207,2.434082,0.7817383,3.4750977C9.7207031,25.9746094,7.0415039,29.0327148,7.0415039,33.25
			c0,1.8183594,0.3920898,3.4804688,1.1669922,4.9560547C4.253418,40.4912109,2.25,43.6552734,2.25,47.625
			C2.25,63,24.6416016,63,32,63s29.75,0,29.75-15.375C61.75,43.7207031,59.8476563,40.3457031,56.09375,37.5810547z"/>
		<path style="fill:#3E3A39;" d="M32,63.5c-7.4819336,0-30.25,0-30.25-15.875c0-4.0185547,1.9526367-7.2509766,5.8046875-9.6113281
			C6.8823242,36.5742188,6.5415039,34.9746094,6.5415039,33.25c0-4.3085938,2.6201172-7.4658203,7.7900391-9.390625
			c-0.3999023-0.9760742-0.6025391-2.0454102-0.6025391-3.1875c0-4.9428711,4.5615234-6.9228516,8.5864258-8.6699219
			C26.7080078,10.0957031,30.5,8.449707,30.5,3.9008789V1.7368164l2.0263672,0.7592773
			c0.7246094,0.2719727,17.7441406,6.7924805,17.7441406,18.1757813c0,0.6660156-0.0703125,1.3129883-0.2089844,1.9287109
			c4.8408203,2.7270508,7.3964844,6.402832,7.3964844,10.6494141c0,1.4873047-0.2539063,2.8857422-0.7539063,4.1640625
			C60.3847656,40.234375,62.25,43.6679688,62.25,47.625C62.25,63.5,39.4814453,63.5,32,63.5z M31.5,3.1791992v0.7216797
			c0,5.2050781-4.4658203,7.1430664-8.784668,9.0175781c-4.1079102,1.7832031-7.9863281,3.4667969-7.9863281,7.753418
			c0,1.1884766,0.2451172,2.2822266,0.7290039,3.2519531l0.2543945,0.5097656l-0.5385742,0.1860352
			C10.109375,26.3691406,7.5415039,29.2729492,7.5415039,33.25c0,1.7324219,0.3735352,3.3212891,1.1098633,4.7236328
			l0.2231445,0.4248047l-0.4160156,0.2402344C4.6708984,40.8271484,2.75,43.8505859,2.75,47.625C2.75,62.5,24.765625,62.5,32,62.5
			s29.25,0,29.25-14.875c0-3.7324219-1.8349609-6.9765625-5.453125-9.6416016l-0.3212891-0.2363281l0.1601563-0.3662109
			c0.5458984-1.2490234,0.8222656-2.6386719,0.8222656-4.1308594c0-3.9555664-2.4941406-7.3989258-7.2128906-9.9584961
			l-0.3496094-0.1899414l0.1064453-0.3833008c0.1777344-0.6416016,0.2685547-1.3300781,0.2685547-2.0463867
			c0-10.6982422-16.3969727-16.9775391-17.0952148-17.2392578L31.5,3.1791992z"/>
	</g>
	<g>
		<linearGradient id="SVGID_1_" gradientUnits="userSpaceOnUse" x1="32" y1="62" x2="32" y2="32.3990822">
			<stop  offset="0" style="stop-color:#926134"/>
			<stop  offset="1" style="stop-color:#C59D62"/>
		</linearGradient>
		<path style="fill:url(#SVGID_1_);" d="M32,33.25c0-2.5,28.75,0,28.75,14.375S39.1875,62,32,62S3.25,62,3.25,47.625
			S32,35.75,32,33.25z"/>
		<linearGradient id="SVGID_2_" gradientUnits="userSpaceOnUse" x1="32" y1="45.2291679" x2="32" y2="20.1799049">
			<stop  offset="0" style="stop-color:#926134"/>
			<stop  offset="1" style="stop-color:#C59D62"/>
		</linearGradient>
		<path style="fill:url(#SVGID_2_);" d="M32,21.2708321c0-3.0208321,23.9583321,0,23.9583321,11.9791679
			S37.9895821,45.2291679,32,45.2291679S8.041667,45.2291679,8.041667,33.25S32,24.291666,32,21.2708321z"/>
		<linearGradient id="SVGID_3_" gradientUnits="userSpaceOnUse" x1="32" y1="29.057291" x2="32" y2="3.9010413">
			<stop  offset="0" style="stop-color:#926134"/>
			<stop  offset="1" style="stop-color:#C59D62"/>
		</linearGradient>
		<path style="fill:url(#SVGID_3_);" d="M32,3.9010413c0,0,16.7708321,6.2890625,16.7708321,16.770834
			c0,8.385416-12.578125,8.385416-16.7708321,8.385416s-16.7708321,0-16.7708321-8.385416S32,14.3828125,32,3.9010413z"/>
		<linearGradient id="SVGID_4_" gradientUnits="userSpaceOnUse" x1="27.0694447" y1="20.4375" x2="27.0694447" y2="4.5">
			<stop  offset="0" style="stop-color:#FFFFFF;stop-opacity:0.2"/>
			<stop  offset="1" style="stop-color:#FFFFFF;stop-opacity:0.3"/>
		</linearGradient>
		<path style="fill:url(#SVGID_4_);" d="M32,4.5c0,0,8.75,7.5,0,12.5s-13.75,3.75-13.75,1.25s3.75-3.75,6.25-5
			C29.5,10.75,32,8.25,32,4.5z"/>
		<linearGradient id="SVGID_5_" gradientUnits="userSpaceOnUse" x1="32" y1="35.75" x2="32" y2="25.75">
			<stop  offset="0" style="stop-color:#FFFFFF;stop-opacity:0.1"/>
			<stop  offset="1" style="stop-color:#FFFFFF;stop-opacity:0.2"/>
		</linearGradient>
		<path style="fill:url(#SVGID_5_);" d="M48.25,25.75c0,0-1.25,3.75-16.25,3.75s-16.25-3.75-16.25-3.75s-2.5,0-3.75,2.5
			c-1.5811386,3.1622772,2.5,7.5,20,7.5s21.5811386-4.3377228,20-7.5C50.75,25.75,48.25,25.75,48.25,25.75z"/>
		<linearGradient id="SVGID_6_" gradientUnits="userSpaceOnUse" x1="32" y1="53.8461456" x2="32" y2="40.75">
			<stop  offset="0" style="stop-color:#FFFFFF;stop-opacity:0.1"/>
			<stop  offset="1" style="stop-color:#FFFFFF;stop-opacity:0.2"/>
		</linearGradient>
		<path style="fill:url(#SVGID_6_);" d="M54.5,40.75c0,0-5.2537918,5.9102249-22.5,5.9102249S9.5,40.75,9.5,40.75
			s-2.8743682,0.2745209-4.3115525,3.1488914C3.3705375,47.5347099,11.8794222,53.8461456,32,53.8461456
			s28.6294632-6.3114357,26.811554-9.9472542C57.3743668,41.0245209,54.5,40.75,54.5,40.75z"/>
	</g>
</g>
<g>
	<g>
		<radialGradient id="SVGID_7_" cx="14.9607868" cy="33.231617" r="7.1251626" gradientUnits="userSpaceOnUse">
			<stop  offset="0" style="stop-color:#FF1F37"/>
			<stop  offset="0.3549298" style="stop-color:#FF1B33;stop-opacity:0.6450702"/>
			<stop  offset="0.7274398" style="stop-color:#FF0E28;stop-opacity:0.2725602"/>
			<stop  offset="1" style="stop-color:#FF001B;stop-opacity:0"/>
		</radialGradient>
		<circle style="fill:url(#SVGID_7_);" cx="14.9950571" cy="33.2802505" r="7.5352597"/>
		<radialGradient id="SVGID_8_" cx="48.9706841" cy="33.231617" r="7.1251664" gradientUnits="userSpaceOnUse">
			<stop  offset="0" style="stop-color:#FF1F37"/>
			<stop  offset="0.3549298" style="stop-color:#FF1B33;stop-opacity:0.6450702"/>
			<stop  offset="0.7274398" style="stop-color:#FF0E28;stop-opacity:0.2725602"/>
			<stop  offset="1" style="stop-color:#FF001B;stop-opacity:0"/>
		</radialGradient>
		<circle style="fill:url(#SVGID_8_);" cx="49.0049553" cy="33.2802505" r="7.5352678"/>
	</g>
	
		<rect x="37.4777336" y="18.7800694" transform="matrix(0.9738389 0.2272395 -0.2272395 0.9738389 5.5254831 -9.1905203)" style="fill:#350000;" width="10.4003687" height="1.2445866"/>
	
		<rect x="36.994133" y="23.536129" transform="matrix(0.9685688 0.2487459 -0.2487459 0.9685688 7.4862719 -9.6857576)" style="fill:#350000;" width="10.1508522" height="2.4881523"/>
	
		<rect x="20.6998844" y="14.202179" transform="matrix(0.2271885 0.9738508 -0.9738508 0.2271885 35.3729591 -5.7701616)" style="fill:#350000;" width="1.2444023" height="10.4003687"/>
	
		<rect x="20.6863728" y="19.7047787" transform="matrix(0.2487357 0.9685714 -0.9685714 0.2487357 40.476963 -2.6247213)" style="fill:#350000;" width="2.4881523" height="10.1508522"/>
	<g>
		<path style="fill:#842C38;" d="M47.9243507,34.6168404C47.9243507,43.5770416,40.7948799,50.84338,32,50.84338
			s-15.9243488-7.2663383-15.9243488-16.2265396c6.4295311-0.186306,7.1294708,0,15.9243488,0
			S40.7948799,34.6168404,47.9243507,34.6168404z"/>
		<g>
			<g>
				<g>
					<g>
						<path style="fill:#EF84A3;" d="M32.0720863,40.9532166c-5.5157433,0-11.1894245,1.8793373-11.1894245,4.3411598
							c0,2.4609871,5.6736813,4.022789,11.1894245,4.022789s11.0452576-1.5618019,11.0452576-4.022789
							C43.1173439,42.8325539,37.5878296,40.9532166,32.0720863,40.9532166z"/>
					</g>
					<g>
						<path style="fill:#EA7C91;" d="M32.0720863,40.9532166c-5.5157433,0-11.1894245,1.8793373-11.1894245,4.3411598
							c0,2.4609871,5.6736813,4.022789,11.1894245,4.022789s11.0452576-1.5618019,11.0452576-4.022789
							C43.1173439,42.8325539,37.5878296,40.9532166,32.0720863,40.9532166z"/>
					</g>
				</g>
				<path style="fill:#F24C7B;" d="M32.0720863,44.3133965c-5.9831715-0.0016594-11.6236744,1.2191315-10.1072464,2.9202919
					c2.5809364,2.8943253,8.132349,3.0045662,10.1072464,2.9469986c1.4727135,0.0575676,7.5271378-0.0526733,10.1080742-2.9469986
					C43.6965904,45.5325279,37.9709816,44.3158035,32.0720863,44.3133965z"/>
			</g>
			<rect x="16.0756531" y="34.6168404" style="fill:#FFFFFF;" width="31.599184" height="2.8652103"/>
			<path style="fill:#350000;" d="M32,51.6728516c-9.2380161,0-16.75383-7.6510963-16.75383-17.0559883v-0.8295097h33.5076637
				v0.8295097C48.7538338,44.0217552,41.2380219,51.6728516,32,51.6728516z M16.9266567,35.446373
				C17.3507271,43.551918,23.949543,50.0138321,32,50.0138321S46.6492767,43.551918,47.0729408,35.446373H16.9266567z"/>
		</g>
	</g>
</g>
<g>
</g>
<g>
</g>
<g>
</g>
<g>
</g>
<g>
</g>
<g>
</g>
</svg>
