<?xml version="1.0" encoding="utf-8"?>
<!-- Generator: Adobe Illustrator 15.0.2, SVG Export Plug-In . SVG Version: 6.00 Build 0)  -->
<!DOCTYPE svg PUBLIC "-//W3C//DTD SVG 1.1//EN" "http://www.w3.org/Graphics/SVG/1.1/DTD/svg11.dtd">
<svg version="1.1" id="レイヤー_1" xmlns="http://www.w3.org/2000/svg" xmlns:xlink="http://www.w3.org/1999/xlink" x="0px"
	 y="0px" width="64px" height="64px" viewBox="0 0 64 64" style="enable-background:new 0 0 64 64;" xml:space="preserve">
<g>
	<g>
		<g>
			<g>
				<path style="fill:#E50000;" d="M10.8164063,25.6538086c0,0-7.1225586-13.0571289-4.2709961-19.7128906
					c0,0,11.0522461,11.5810547,12.4321289,11.3369141L10.8164063,25.6538086z"/>
				<path style="fill:#541715;" d="M10.5546875,27.559082l-0.7407227-1.3583984
					C9.512207,25.6474609,2.4604492,12.5751953,5.4956055,5.4912109l0.6816406-1.590332L7.371582,5.1523438
					c4.7163086,4.9423828,10.2446289,10.2797852,11.6269531,10.9619141l3.2709961-0.5786133L10.5546875,27.559082z
					 M7.1083984,8.1762695C6.3666992,13.2104492,9.625,20.6503906,11.112793,23.7133789l5.996582-6.1547852
					C15.5571289,16.4516602,12.6660156,13.9277344,7.1083984,8.1762695z"/>
			</g>
		</g>
		<g>
			<g>
				<path style="fill:#E50000;" d="M53.5761719,25.4853516c0,0,6.8759766-12.9116211,3.7216797-19.3754883
					c0,0-10.9628906,11.5380859-12.3886719,11.324707L53.5761719,25.4853516z"/>
				<path style="fill:#541715;" d="M53.8867188,27.3325195L41.4267578,15.7587891l3.4501953,0.5161133
					c1.359375-0.6572266,6.9921875-6.109375,11.5927734-10.9516602l1.1328125-1.1923828l0.7216797,1.4780273
					c3.3710938,6.9082031-3.4482422,19.8652344-3.7402344,20.4130859L53.8867188,27.3325195z M46.8417969,17.6708984
					l6.3886719,5.9345703c1.421875-3.0126953,4.5585938-10.4257813,3.5839844-15.3369141
					C51.3115234,13.9916992,48.4140625,16.5375977,46.8417969,17.6708984z"/>
			</g>
		</g>
	</g>
	<g>
		<linearGradient id="SVGID_1_" gradientUnits="userSpaceOnUse" x1="31.9985352" y1="16.2729492" x2="31.9985332" y2="60.1689034">
			<stop  offset="0" style="stop-color:#FF0000"/>
			<stop  offset="0.1407103" style="stop-color:#FF1403"/>
			<stop  offset="0.4301134" style="stop-color:#FF490C"/>
			<stop  offset="0.8394355" style="stop-color:#FF9D19"/>
			<stop  offset="1" style="stop-color:#FFC01F"/>
		</linearGradient>
		<path style="fill:url(#SVGID_1_);" d="M57.2636719,33.8535156c4.7568359,26.5957031-5.5986328,25.1113281-25.5498047,25.1328125
			C14.9135742,59.0039063,1.5444336,57.9667969,6.715332,35.4472656
			c5.050293-21.9980469,8.1982422-26.7241211,24.9985352-26.7241211
			C49.9570313,8.7231445,53.2402344,11.3613281,57.2636719,33.8535156z"/>
		<linearGradient id="SVGID_2_" gradientUnits="userSpaceOnUse" x1="37.3369141" y1="-0.3964844" x2="33.8677864" y2="18.4591446">
			<stop  offset="0" style="stop-color:#D23A18"/>
			<stop  offset="0.2649619" style="stop-color:#DA4E1C"/>
			<stop  offset="0.8068733" style="stop-color:#ED8328"/>
			<stop  offset="0.89697" style="stop-color:#F18C2A"/>
			<stop  offset="0.9146296" style="stop-color:#F29537"/>
			<stop  offset="0.9474026" style="stop-color:#F5AD5A"/>
			<stop  offset="0.9913981" style="stop-color:#F9D391"/>
			<stop  offset="1" style="stop-color:#FADB9D"/>
		</linearGradient>
		<path style="fill:url(#SVGID_2_);" d="M21.1303711,10.4697266c-6.4345703,1.9555664-8.6777344,4.5209961-3.6557617,5.1245117
			c5.0224609,0.6030273,12.715332-2.0571289,16.3359375-0.953125c3.6201172,1.1035156,2.1787109,3.784668,5.7314453,3.6679688
			c3.5517578-0.1162109,3.4355469-2.7036133,6.7724609,0.0039063c3.3378906,2.7070313,6.703125,5.1318359,7.5078125,0
			C54.6269531,13.1806641,39.9775391,4.7416992,21.1303711,10.4697266z"/>
		<linearGradient id="SVGID_3_" gradientUnits="userSpaceOnUse" x1="35.2978516" y1="10.4301758" x2="56.9442482" y2="6.3573785">
			<stop  offset="0" style="stop-color:#D23A18"/>
			<stop  offset="0.2649619" style="stop-color:#DA4E1C"/>
			<stop  offset="0.8068733" style="stop-color:#ED8328"/>
			<stop  offset="0.89697" style="stop-color:#F18C2A"/>
			<stop  offset="0.9146296" style="stop-color:#F29537"/>
			<stop  offset="0.9474026" style="stop-color:#F5AD5A"/>
			<stop  offset="0.9913981" style="stop-color:#F9D391"/>
			<stop  offset="1" style="stop-color:#FADB9D"/>
		</linearGradient>
		<path style="fill:url(#SVGID_3_);" d="M19.6958008,10.4067383c0,0,16.2514648,1.6376953,27.6655273,0.9238281
			C47.3613281,11.3305664,36.8818359,5.5966797,19.6958008,10.4067383z"/>
		<path style="fill:#FFBC80;" d="M33.8505859,11.878418c-5.3056641,0-12.6879883-0.8779297-12.762207-0.8867188
			c-0.2011719-0.0239258-0.3452148-0.2070313-0.3208008-0.4086914c0.0244141-0.2011719,0.2075195-0.4179688,0.4086914-0.3925781
			C21.2495117,10.1992188,28.5893555,11,33.8505859,11c0.0117188,0,0.0234375,0,0.0351563,0l0,0
			c0.203125,0,0.3671875,0.2363281,0.3671875,0.4384766C34.2529297,11.6523438,34.0820313,11.8828125,33.8505859,11.878418z"/>
		<path style="fill:#FFBC80;" d="M38.9111328,11.8793945c-0.7626953,0-1.2617188-0.0087891-1.2617188-0.0087891
			c-0.203125-0.003418-0.3652344-0.2387695-0.3613281-0.4418945C37.2910156,11.2285156,37.4550781,11,37.6552734,11
			c0.0019531,0,0.0039063,0,0.0058594,0c0.0029297,0,1.1142578,0.0878906,2.5498047,0.0673828
			c0.1835938-0.0361328,0.3701172,0.1933594,0.3720703,0.3974609c0.0029297,0.203125-0.1591797,0.3862305-0.3623047,0.3891602
			C39.7382813,11.8603516,39.2919922,11.8793945,38.9111328,11.8793945z"/>
		<path style="fill:#FFFFFF;" d="M18.2148438,13.9750977c1.3730469-1.0351563,4.0981445-0.3862305,1.7885742,2.7290039
			S13.628418,17.4326172,18.2148438,13.9750977z"/>
		<path style="fill:#FFFFFF;" d="M16.6005859,19.9003906c1.0908203,0.0380859-0.1367188,2.8149414-1.0419922,2.421875
			C14.6538086,21.9296875,14.6269531,19.831543,16.6005859,19.9003906z"/>
		<path style="opacity:0.35;fill:#FFFFFF;" d="M40.2880859,55.0898438
			c-1.2578125-1.3261719,6.2988281,0.1425781,9.1347656-2.0195313c3.2431641-2.4765625,5.5478516-3.9023438,5.09375-1.328125
			C54,54.6777344,42.1142578,57.015625,40.2880859,55.0898438z"/>
	</g>
	<path style="fill:#541715;" d="M37.0996094,60.0996094l-5.7954102-0.0097656c-10.3969727,0-19.371582-0.4628906-23.9057617-6.15625
		c-3.1650391-3.9746094-3.7402344-10.1015625-1.7583008-18.734375c5.050293-21.9970703,8.2709961-27.5795898,26.0737305-27.5795898
		c19.1025391,0,22.5878906,3.4072266,26.6357422,26.0405273c1.9931641,11.140625,1.4365234,17.8359375-1.8037109,21.7070313
		C52.8691406,59.7597656,46.1669922,60.0996094,37.0996094,60.0996094z M32.1518555,57.8828125l4.9477539,0.0097656
		c8.4638672,0,14.6914063-0.2832031,17.7539063-3.9414063c2.7451172-3.28125,3.1660156-9.6054688,1.3242188-19.9023438
		c-4.0390625-22.5776367-7.1171875-24.222168-24.4638672-24.222168c-15.6313477,0-18.7617188,3.3842773-23.9233398,25.8666992
		C5.96875,43.6269531,6.4052734,49.1445313,9.1245117,52.5585938c3.9213867,4.9238281,12.3647461,5.3242188,22.1796875,5.3242188
		H32.1518555z"/>
	<path style="fill:#72161A;" d="M28.5522461,51.3007813c-2.9443359,0-5.1572266-0.3300781-5.4213867-0.3710938L23.5185547,48.4375
		c0.168457,0.0253906,16.2910156,2.4121094,19.1328125-6.2324219l-1.6337891-0.921875l1.2382813-2.1972656l3.2871094,1.8535156
		l-0.1884766,0.9023438C43.6757813,49.9179688,34.5820313,51.3007813,28.5522461,51.3007813z"/>
	<g>
		<g>
			<path style="fill:#72161A;" d="M24.3603516,33.2890625c0,2.3300781-1.2358398,4.2207031-2.7607422,4.2207031
				c-1.5253906,0-2.7607422-1.890625-2.7607422-4.2207031c0-2.328125,1.2353516-4.2163086,2.7607422-4.2163086
				C23.1245117,29.0727539,24.3603516,30.9609375,24.3603516,33.2890625z"/>
			
				<rect x="15.604476" y="26.1194096" transform="matrix(0.8834429 0.4685387 -0.4685387 0.8834429 15.3464375 -6.9287338)" style="fill:#72161A;" width="11.9897785" height="2.5224109"/>
		</g>
		<g>
			<ellipse style="fill:#72161A;" cx="42.4790039" cy="33.2910156" rx="2.7182617" ry="4.2167969"/>
			
				<rect x="41.2185097" y="21.4584026" transform="matrix(0.4739613 0.8805457 -0.8805457 0.4739613 46.4566002 -23.0013542)" style="fill:#72161A;" width="2.5219624" height="11.8463783"/>
		</g>
	</g>
</g>
</svg>
