<?xml version="1.0" encoding="utf-8"?>
<!-- Generator: Adobe Illustrator 15.0.2, SVG Export Plug-In . SVG Version: 6.00 Build 0)  -->
<!DOCTYPE svg PUBLIC "-//W3C//DTD SVG 1.1//EN" "http://www.w3.org/Graphics/SVG/1.1/DTD/svg11.dtd">
<svg version="1.1" id="レイヤー_1" xmlns="http://www.w3.org/2000/svg" xmlns:xlink="http://www.w3.org/1999/xlink" x="0px"
	 y="0px" width="64px" height="64px" viewBox="0 0 64 64" style="enable-background:new 0 0 64 64;" xml:space="preserve">
<g>
	<g>
		<linearGradient id="SVGID_1_" gradientUnits="userSpaceOnUse" x1="27.2797852" y1="25.2646484" x2="44.4935684" y2="74.9380722">
			<stop  offset="0" style="stop-color:#FFF1BF"/>
			<stop  offset="0.1983559" style="stop-color:#FFE9B2"/>
			<stop  offset="0.566525" style="stop-color:#FFD38F"/>
			<stop  offset="1" style="stop-color:#FFB55F"/>
		</linearGradient>
		<path style="fill:url(#SVGID_1_);" d="M59.9140625,31.9951172c5.2558594,29.3837891-6.1865234,27.7451172-28.2299805,27.7675781
			c-18.5625,0.0205078-33.3339844-1.1259766-27.6210938-26.0078125C9.6430664,9.4492188,13.121582,4.2275391,31.684082,4.2275391
			C51.8408203,4.2275391,55.46875,7.1425781,59.9140625,31.9951172z"/>
		<linearGradient id="SVGID_2_" gradientUnits="userSpaceOnUse" x1="37.8964844" y1="-5.6679688" x2="34.0634613" y2="15.1655426">
			<stop  offset="0" style="stop-color:#D23A18"/>
			<stop  offset="0.2649619" style="stop-color:#DA4E1C"/>
			<stop  offset="0.8068733" style="stop-color:#ED8328"/>
			<stop  offset="0.89697" style="stop-color:#F18C2A"/>
			<stop  offset="0.9146296" style="stop-color:#F29537"/>
			<stop  offset="0.9474026" style="stop-color:#F5AD5A"/>
			<stop  offset="0.9913981" style="stop-color:#F9D391"/>
			<stop  offset="1" style="stop-color:#FADB9D"/>
		</linearGradient>
		<path style="fill:url(#SVGID_2_);" d="M19.9902344,6.3378906C12.8808594,8.4985352,10.4023438,11.3334961,15.9511719,12
			S30,9.7270508,34,10.9467773S36.4082031,15.1289063,40.3330078,15s3.7958984-2.9873047,7.4833984,0.0039063
			s7.40625,5.6704102,8.2949219,0S40.8144531,0.0092773,19.9902344,6.3378906z"/>
		<linearGradient id="SVGID_3_" gradientUnits="userSpaceOnUse" x1="35.6435547" y1="6.2949219" x2="59.5605316" y2="1.7949119">
			<stop  offset="0" style="stop-color:#D23A18"/>
			<stop  offset="0.2649619" style="stop-color:#DA4E1C"/>
			<stop  offset="0.8068733" style="stop-color:#ED8328"/>
			<stop  offset="0.89697" style="stop-color:#F18C2A"/>
			<stop  offset="0.9146296" style="stop-color:#F29537"/>
			<stop  offset="0.9474026" style="stop-color:#F5AD5A"/>
			<stop  offset="0.9913981" style="stop-color:#F9D391"/>
			<stop  offset="1" style="stop-color:#FADB9D"/>
		</linearGradient>
		<path style="fill:url(#SVGID_3_);" d="M18.4052734,6.2685547c0,0,17.9560547,1.8095703,30.5673828,1.0205078
			C48.9726563,7.2890625,37.3935547,0.9536133,18.4052734,6.2685547z"/>
		<path style="fill:#FFBC80;" d="M34.0449219,7.8945313c-5.862793,0-14.019043-0.9697266-14.1010742-0.9794922
			C19.7211914,6.8881836,19.5625,6.6860352,19.5888672,6.4633789c0.0268555-0.2226563,0.2280273-0.4223633,0.4516602-0.3959961
			C20.1220703,6.0771484,28.230957,7,34.0449219,7c0.0126953,0,0.0253906,0,0.0390625,0l0,0
			c0.2246094,0,0.40625,0.2226563,0.40625,0.4467773C34.4902344,7.6845703,34.28125,7.8945313,34.0449219,7.8945313z"/>
		<path style="fill:#FFBC80;" d="M39.6357422,7.8955078c-0.8427734,0-1.3945313-0.0092773-1.3945313-0.0092773
			c-0.2236328-0.003418-0.4033203-0.2255859-0.3994141-0.449707C37.8457031,7.2148438,38.0263672,7,38.2480469,7
			C38.25,7,38.2529297,7,38.2548828,7c0.0029297,0,1.2324219,0,2.8173828,0c0.0009766,0,0.0029297,0,0.0048828,0
			c0.2216797,0,0.4033203,0.2158203,0.40625,0.4379883c0.0029297,0.2246094-0.1767578,0.4272461-0.4013672,0.4296875
			C40.5488281,7.875,40.0556641,7.8955078,39.6357422,7.8955078z"/>
		<path style="fill:#FFFFFF;" d="M16.7685547,10.2109375c1.5175781-1.1435547,4.5283203-0.4262695,1.9765625,3.015625
			S11.7011719,14.03125,16.7685547,10.2109375z"/>
		<path style="fill:#FFFFFF;" d="M14.9853516,16.7578125c1.2050781,0.0419922-0.1513672,3.1103516-1.1513672,2.6762695
			S12.8046875,16.6821289,14.9853516,16.7578125z"/>
		<path style="opacity:0.35;fill:#FFFFFF;" d="M41.1572266,55.6376953C39.7675781,54.1728516,48.1171875,55.796875,51.25,53.40625
			c3.5839844-2.7353516,6.1298828-4.3105469,5.6289063-1.4667969
			C56.3076172,55.1826172,43.1748047,57.7666016,41.1572266,55.6376953z"/>
	</g>
	<path style="fill:#330100;" d="M49.6035156,24.8623047c-0.3544922-0.0253906-8.734375-0.6748047-13.4980469-3.6503906
		l1.0585938-1.6962891C41.5136719,22.2324219,49.6689453,22.8623047,49.75,22.8681641L49.6035156,24.8623047z"/>
	<g>
		<path style="fill:#973344;" d="M46.3740234,55.0771484c-1.8271484,4.1875-6.2089844,1.4375-13.8681641,1.4375
			c-7.6586914,0-11.7573242,3.125-13.8676758-1.4375c-1.4633789-3.1640625,3.9853516-9.59375,13.3603516-9.59375
			C42.2490234,45.4833984,47.7685547,51.8818359,46.3740234,55.0771484z"/>
		<path style="fill:#330200;" d="M22.4897461,58.5585938c-2.3120117,0-3.7797852-0.9443359-4.7592773-3.0615234
			c-0.6157227-1.3310547-0.3481445-3.0654297,0.7338867-4.7578125c1.8447266-2.8857422,6.496582-6.2558594,13.5341797-6.2558594
			c7.652832,0,12.5991211,3.4082031,14.5102539,6.3261719c1.0908203,1.6660156,1.3681641,3.3242188,0.7822266,4.6679688
			c-1.1308594,2.5908203-3.1474609,2.9238281-4.7763672,2.9238281c-1.0732422,0-2.2724609-0.1640625-3.6611328-0.3535156
			c-1.8339844-0.25-3.9130859-0.5332031-6.3476563-0.5332031c-2.4804688,0-4.5561523,0.3349609-6.3876953,0.6308594
			C24.7460938,58.3671875,23.5615234,58.5585938,22.4897461,58.5585938z M31.9985352,46.4833984
			c-5.8300781,0-10.1523438,2.6787109-11.8491211,5.3339844c-0.6967773,1.0888672-0.9223633,2.1513672-0.6035156,2.8398438
			c0.7353516,1.5908203,1.6362305,1.9013672,2.9438477,1.9013672c0.9111328,0,2.0224609-0.1796875,3.3095703-0.3876953
			c1.8115234-0.2919922,4.0654297-0.65625,6.706543-0.65625c2.5703125,0,4.8144531,0.3056641,6.6171875,0.5517578
			c1.3164063,0.1796875,2.4541016,0.3349609,3.3916016,0.3349609c1.6171875,0,2.3876953-0.4511719,2.9423828-1.7246094
			c0.3037109-0.6943359,0.0761719-1.7041016-0.6220703-2.7714844
			C43.1972656,49.4042969,38.8535156,46.4833984,31.9985352,46.4833984z"/>
	</g>
	<path style="fill:#330100;" d="M12.7158203,25.8964844l-0.2412109-1.9853516
		c3.6254883-0.4414063,9.9560547-1.7070313,11.5078125-3.2236328l1.3979492,1.4306641
		C22.8374023,24.6035156,13.7441406,25.7714844,12.7158203,25.8964844z"/>
	<g>
		<g>
			<linearGradient id="SVGID_4_" gradientUnits="userSpaceOnUse" x1="14.0893555" y1="36.5429688" x2="26.147398" y2="58.720005">
				<stop  offset="0" style="stop-color:#50BEDF"/>
				<stop  offset="0.156303" style="stop-color:#4DB6DA"/>
				<stop  offset="0.3982336" style="stop-color:#44A0CE"/>
				<stop  offset="0.6954401" style="stop-color:#357DB9"/>
				<stop  offset="1" style="stop-color:#2351A0"/>
			</linearGradient>
			<path style="fill:url(#SVGID_4_);" d="M23.7788086,60.0068359c-5.1401367-0.8212891-8.65625-1.7685547-8.65625-1.7685547
				V35.9804688l8.65625-1.4111328C23.7788086,34.5693359,24.2080078,51.2001953,23.7788086,60.0068359z"/>
			<path style="fill:#234E9E;" d="M24.1875,60.5107422l-0.4770508-0.0761719
				c-5.1035156-0.8154297-8.6650391-1.7685547-8.7006836-1.7783203l-0.3203125-0.0859375V35.6123047L24.1987305,34.0625
				l0.0126953,0.4960938c0.0043945,0.1660156,0.4248047,16.7470703-0.0004883,25.4697266L24.1875,60.5107422z
				 M15.5556641,57.9033203c0.9394531,0.2382813,3.871582,0.9501953,7.8129883,1.5986328
				c0.3476563-7.9287109,0.0541992-21.6513672-0.0107422-24.4257813l-7.8022461,1.2724609V57.9033203z"/>
		</g>
		<g>
			<linearGradient id="SVGID_5_" gradientUnits="userSpaceOnUse" x1="37.9746094" y1="35.7890625" x2="49.9808731" y2="57.8708649">
				<stop  offset="0" style="stop-color:#50BEDF"/>
				<stop  offset="0.156303" style="stop-color:#4DB6DA"/>
				<stop  offset="0.3982336" style="stop-color:#44A0CE"/>
				<stop  offset="0.6954401" style="stop-color:#357DB9"/>
				<stop  offset="1" style="stop-color:#2351A0"/>
			</linearGradient>
			<path style="fill:url(#SVGID_5_);" d="M48.875,58.4726563c0,0-5.0009766,1.1123047-8.65625,1.2998047
				c0.0302734-4.8085938,0-25.203125,0-25.203125l8.65625,1.4111328V58.4726563z"/>
			<path style="fill:#234E9E;" d="M39.7832031,60.2285156l0.0029297-0.4589844c0.0292969-4.7519531,0-24.9960938,0-25.1992188
				l-0.0009766-0.5107422l9.5224609,1.5527344v23.2080078L48.96875,58.8955078
				c-0.0498047,0.0107422-5.078125,1.1220703-8.7275391,1.3095703L39.7832031,60.2285156z M40.6523438,35.0791016
				C40.65625,38.1660156,40.6777344,54.3408203,40.6542969,59.3125c2.96875-0.2070313,6.6640625-0.9521484,7.7880859-1.1894531
				V36.3486328L40.6523438,35.0791016z"/>
		</g>
	</g>
	<polygon style="fill:#330100;" points="14.5932617,38.3984375 13.6538086,35.5488281 19.8955078,33.4912109 12.8164063,29.8759766 
		14.1806641,27.2041016 27.6621094,34.0888672 	"/>
	<polygon style="fill:#330100;" points="49.3212891,38.3984375 36.2519531,34.0888672 49.7333984,27.2041016 51.0986328,29.8759766 
		44.0195313,33.4912109 50.2607422,35.5488281 	"/>
	<path style="fill:#541715;" d="M37.6367188,60.9921875l-5.9511719-0.0107422l-0.4541016,0.0009766
		c-11.4873047,0-21.4038086-0.5117188-26.4135742-6.8027344C1.3208008,49.7890625,0.6850586,43.0185547,2.875,33.4824219
		C8.4550781,9.1757813,12.0141602,3.0078125,31.684082,3.0078125c21.105957,0,24.956543,3.7646484,29.4301758,28.7724609
		c2.2011719,12.3085938,1.5869141,19.7050781-1.9941406,23.9833984
		C55.0576172,60.6171875,47.6533203,60.9921875,37.6367188,60.9921875z M32.1640625,58.5429688l5.4726563,0.0107422
		c9.3496094,0,16.2294922-0.3115234,19.6142578-4.3554688c3.0332031-3.6240234,3.4980469-10.6113281,1.4628906-21.9882813
		C54.2519531,7.2636719,50.8505859,5.4462891,31.684082,5.4462891c-17.2709961,0-20.7294922,3.7392578-26.4331055,28.5810547
		c-2.0126953,8.7666016-1.5302734,14.8613281,1.4741211,18.6337891c4.3325195,5.4404297,13.6616211,5.8828125,24.5063477,5.8828125
		L32.1640625,58.5429688z"/>
	<g>
		<linearGradient id="SVGID_6_" gradientUnits="userSpaceOnUse" x1="27.2797852" y1="25.2646484" x2="44.4935684" y2="74.9380722">
			<stop  offset="0" style="stop-color:#FFF1BF"/>
			<stop  offset="0.1983559" style="stop-color:#FFE9B2"/>
			<stop  offset="0.566525" style="stop-color:#FFD38F"/>
			<stop  offset="1" style="stop-color:#FFB55F"/>
		</linearGradient>
		<path style="fill:url(#SVGID_6_);" d="M59.9140625,31.9951172c5.2558594,29.3837891-6.1865234,27.7451172-28.2299805,27.7675781
			c-18.5625,0.0205078-33.3339844-1.1259766-27.6210938-26.0078125C9.6430664,9.4492188,13.121582,4.2275391,31.684082,4.2275391
			C51.8408203,4.2275391,55.46875,7.1425781,59.9140625,31.9951172z"/>
		<linearGradient id="SVGID_7_" gradientUnits="userSpaceOnUse" x1="37.8964844" y1="-5.6679688" x2="34.0634613" y2="15.1655426">
			<stop  offset="0" style="stop-color:#D23A18"/>
			<stop  offset="0.2649619" style="stop-color:#DA4E1C"/>
			<stop  offset="0.8068733" style="stop-color:#ED8328"/>
			<stop  offset="0.89697" style="stop-color:#F18C2A"/>
			<stop  offset="0.9146296" style="stop-color:#F29537"/>
			<stop  offset="0.9474026" style="stop-color:#F5AD5A"/>
			<stop  offset="0.9913981" style="stop-color:#F9D391"/>
			<stop  offset="1" style="stop-color:#FADB9D"/>
		</linearGradient>
		<path style="fill:url(#SVGID_7_);" d="M19.9902344,6.3378906C12.8808594,8.4985352,10.4023438,11.3334961,15.9511719,12
			S30,9.7270508,34,10.9467773S36.4082031,15.1289063,40.3330078,15s3.7958984-2.9873047,7.4833984,0.0039063
			s7.40625,5.6704102,8.2949219,0S40.8144531,0.0092773,19.9902344,6.3378906z"/>
		<linearGradient id="SVGID_8_" gradientUnits="userSpaceOnUse" x1="35.6435547" y1="6.2949219" x2="59.5605316" y2="1.7949119">
			<stop  offset="0" style="stop-color:#D23A18"/>
			<stop  offset="0.2649619" style="stop-color:#DA4E1C"/>
			<stop  offset="0.8068733" style="stop-color:#ED8328"/>
			<stop  offset="0.89697" style="stop-color:#F18C2A"/>
			<stop  offset="0.9146296" style="stop-color:#F29537"/>
			<stop  offset="0.9474026" style="stop-color:#F5AD5A"/>
			<stop  offset="0.9913981" style="stop-color:#F9D391"/>
			<stop  offset="1" style="stop-color:#FADB9D"/>
		</linearGradient>
		<path style="fill:url(#SVGID_8_);" d="M18.4052734,6.2685547c0,0,17.9560547,1.8095703,30.5673828,1.0205078
			C48.9726563,7.2890625,37.3935547,0.9536133,18.4052734,6.2685547z"/>
		<path style="fill:#FFBC80;" d="M34.0449219,7.8945313c-5.862793,0-14.019043-0.9697266-14.1010742-0.9794922
			C19.7211914,6.8881836,19.5625,6.6860352,19.5888672,6.4633789c0.0268555-0.2226563,0.2280273-0.4223633,0.4516602-0.3959961
			C20.1220703,6.0771484,28.230957,7,34.0449219,7c0.0126953,0,0.0253906,0,0.0390625,0l0,0
			c0.2246094,0,0.40625,0.2226563,0.40625,0.4467773C34.4902344,7.6845703,34.28125,7.8945313,34.0449219,7.8945313z"/>
		<path style="fill:#FFBC80;" d="M39.6357422,7.8955078c-0.8427734,0-1.3945313-0.0092773-1.3945313-0.0092773
			c-0.2236328-0.003418-0.4033203-0.2255859-0.3994141-0.449707C37.8457031,7.2148438,38.0263672,7,38.2480469,7
			C38.25,7,38.2529297,7,38.2548828,7c0.0029297,0,1.2324219,0,2.8173828,0c0.0009766,0,0.0029297,0,0.0048828,0
			c0.2216797,0,0.4033203,0.2158203,0.40625,0.4379883c0.0029297,0.2246094-0.1767578,0.4272461-0.4013672,0.4296875
			C40.5488281,7.875,40.0556641,7.8955078,39.6357422,7.8955078z"/>
		<path style="fill:#FFFFFF;" d="M16.7685547,10.2109375c1.5175781-1.1435547,4.5283203-0.4262695,1.9765625,3.015625
			S11.7011719,14.03125,16.7685547,10.2109375z"/>
		<path style="fill:#FFFFFF;" d="M14.9853516,16.7578125c1.2050781,0.0419922-0.1513672,3.1103516-1.1513672,2.6762695
			S12.8046875,16.6821289,14.9853516,16.7578125z"/>
		<path style="opacity:0.35;fill:#FFFFFF;" d="M41.1572266,55.6376953C39.7675781,54.1728516,48.1171875,55.796875,51.25,53.40625
			c3.5839844-2.7353516,6.1298828-4.3105469,5.6289063-1.4667969
			C56.3076172,55.1826172,43.1748047,57.7666016,41.1572266,55.6376953z"/>
	</g>
	<g>
		<polygon style="fill:#FF1D25;" points="11.0029297,32.9101563 9.6835938,31.4736328 7.8496094,32.9101563 6.5292969,31.4736328 
			4.2822266,33.234375 7.1503906,36.3574219 8.9853516,34.9208984 10.3046875,36.3574219 12.1386719,34.9208984 
			13.4580078,36.3574219 15.7060547,34.5966797 12.8369141,31.4736328 		"/>
		<polygon style="fill:#FF1D25;" points="59.7177734,34.5957031 56.8496094,31.4736328 55.0146484,32.9101563 
			53.6943359,31.4731445 51.8613281,32.9101563 50.5419922,31.4736328 48.2949219,33.234375 51.1630859,36.3564453 
			52.9970703,34.9199219 54.3173828,36.3574219 56.1503906,34.9199219 57.4707031,36.3564453 		"/>
	</g>
	<path style="fill:#541715;" d="M37.6367188,60.9921875l-5.9511719-0.0107422l-0.4541016,0.0009766
		c-11.4873047,0-21.4038086-0.5117188-26.4135742-6.8027344C1.3208008,49.7890625,0.6850586,43.0185547,2.875,33.4824219
		C8.4550781,9.1757813,12.0141602,3.0078125,31.684082,3.0078125c21.105957,0,24.956543,3.7646484,29.4301758,28.7724609
		c2.2011719,12.3085938,1.5869141,19.7050781-1.9941406,23.9833984
		C55.0576172,60.6171875,47.6533203,60.9921875,37.6367188,60.9921875z M32.1640625,58.5429688l5.4726563,0.0107422
		c9.3496094,0,16.2294922-0.3115234,19.6142578-4.3554688c3.0332031-3.6240234,3.4980469-10.6113281,1.4628906-21.9882813
		C54.2519531,7.2636719,50.8505859,5.4462891,31.684082,5.4462891c-17.2709961,0-20.7294922,3.7392578-26.4331055,28.5810547
		c-2.0126953,8.7666016-1.5302734,14.8613281,1.4741211,18.6337891c4.3325195,5.4404297,13.6616211,5.8828125,24.5063477,5.8828125
		L32.1640625,58.5429688z"/>
	<g>
		<path style="fill:#842C38;" d="M50.796875,36.9941406c0,10.4931641-8.3486328,19.0029297-18.6489258,19.0029297
			c-10.2993164,0-18.6484375-8.5097656-18.6484375-19.0029297c7.5288086-0.2177734,8.3491211,0,18.6484375,0
			C42.4482422,36.9941406,42.4482422,36.9941406,50.796875,36.9941406z"/>
		<g>
			<g>
				<g>
					<path style="fill:#EA7C91;" d="M32.0219727,43.2539063c-6.3842773,0-12.9501953,2.8681641-12.9501953,6.6269531
						c0,3.7568359,6.565918,6.1396484,12.9501953,6.1396484c6.3833008,0,12.7836914-2.3828125,12.7836914-6.1396484
						C44.8056641,46.1220703,38.4052734,43.2539063,32.0219727,43.2539063z"/>
				</g>
				<path style="fill:#E42A56;" d="M32.0219727,47.984375c-6.9248047-0.0019531-13.453125,1.7167969-11.6982422,4.1113281
					c2.9868164,4.0742188,9.4125977,4.2304688,11.6982422,4.1474609c1.7045898,0.0830078,8.7114258-0.0732422,11.6987305-4.1474609
					C45.4755859,49.7011719,38.8496094,47.9873047,32.0219727,47.984375z"/>
			</g>
			<rect x="13.4995117" y="36.9941406" style="fill:#FFFFFF;" width="37.0053711" height="3.3564453"/>
			<path style="fill:#330100;" d="M32.1479492,56.8496094c-10.7529297,0-19.5004883-8.9072266-19.5004883-19.8554688v-0.8525391
				h39.0019531v0.8525391C51.6494141,47.9423828,42.9013672,56.8496094,32.1479492,56.8496094z M14.3710938,37.8466797
				c0.4379883,9.6132813,8.2441406,17.2978516,17.7768555,17.2978516s17.3393555-7.6845703,17.7768555-17.2978516H14.3710938z"/>
		</g>
	</g>
	<g>
		<path style="fill:#330100;" d="M47.4335938,29.5068359l-2.5449219-0.2421875
			c0.1611328-1.6894531-0.9267578-3.1806641-2.4238281-3.3242188c-1.5136719-0.1445313-2.8466797,1.1171875-3.0097656,2.8085938
			l-2.5449219-0.2451172c0.2978516-3.0927734,2.9042969-5.3828125,5.796875-5.1083984
			C45.6083984,23.6728516,47.7285156,26.4140625,47.4335938,29.5068359z"/>
		<path style="fill:#330100;" d="M16.5732422,29.5800781c-0.3408203-3.0878906,1.7143555-5.859375,4.581543-6.1777344
			c2.8613281-0.3173828,5.480957,1.9384766,5.8227539,5.0263672l-2.5410156,0.28125
			c-0.1875-1.6875-1.5400391-2.9277344-3.0004883-2.7666016c-1.4658203,0.1630859-2.5078125,1.6689453-2.3217773,3.3564453
			L16.5732422,29.5800781z"/>
	</g>
</g>
</svg>
