<?xml version="1.0" encoding="utf-8"?>
<!-- Generator: Adobe Illustrator 17.0.0, SVG Export Plug-In . SVG Version: 6.00 Build 0)  -->
<!DOCTYPE svg PUBLIC "-//W3C//DTD SVG 1.1//EN" "http://www.w3.org/Graphics/SVG/1.1/DTD/svg11.dtd">
<svg version="1.1" id="レイヤー_1" xmlns="http://www.w3.org/2000/svg" xmlns:xlink="http://www.w3.org/1999/xlink" x="0px"
	 y="0px" width="64px" height="64px" viewBox="0 0 64 64" style="enable-background:new 0 0 64 64;" xml:space="preserve">
<g>
	<g>
		<path style="fill:#331C03;" d="M56.09375,37.5810547c0.5742188-1.3144531,0.8642578-2.7675781,0.8642578-4.3310547
			c0-4.1611328-2.5800781-7.7431641-7.4746094-10.3979492c0.1914063-0.6884766,0.2871094-1.418457,0.2871094-2.1801758
			c0-11.0478516-16.7080078-17.4404297-17.4194336-17.7075195L31,2.4580078v1.4428711
			c0,4.8769531-4.1210938,6.6655273-8.4838867,8.559082c-4.0742188,1.7685547-8.2871094,3.5966797-8.2871094,8.2119141
			c0,1.2705078,0.262207,2.434082,0.7817383,3.4750977C9.7207031,25.9746094,7.0415039,29.0327148,7.0415039,33.25
			c0,1.8183594,0.3920898,3.4804688,1.1669922,4.9560547C4.253418,40.4912109,2.25,43.6552734,2.25,47.625
			C2.25,63,24.6416016,63,32,63s29.75,0,29.75-15.375C61.75,43.7207031,59.8476563,40.3457031,56.09375,37.5810547z"/>
		<path style="fill:#3E3A39;" d="M32,63.5c-7.4819336,0-30.25,0-30.25-15.875c0-4.0185547,1.9526367-7.2509766,5.8046875-9.6113281
			C6.8823242,36.5742188,6.5415039,34.9746094,6.5415039,33.25c0-4.3085938,2.6201172-7.4658203,7.7900391-9.390625
			c-0.3999023-0.9760742-0.6025391-2.0454102-0.6025391-3.1875c0-4.9428711,4.5615234-6.9228516,8.5864258-8.6699219
			C26.7080078,10.0957031,30.5,8.449707,30.5,3.9008789V1.7368164l2.0263672,0.7592773
			c0.7246094,0.2719727,17.7441406,6.7924805,17.7441406,18.1757813c0,0.6660156-0.0703125,1.3129883-0.2089844,1.9287109
			c4.8408203,2.7270508,7.3964844,6.402832,7.3964844,10.6494141c0,1.4873047-0.2539063,2.8857422-0.7539063,4.1640625
			C60.3847656,40.234375,62.25,43.6679688,62.25,47.625C62.25,63.5,39.4814453,63.5,32,63.5z M31.5,3.1791992v0.7216797
			c0,5.2050781-4.4658203,7.1430664-8.784668,9.0175781c-4.1079102,1.7832031-7.9863281,3.4667969-7.9863281,7.753418
			c0,1.1884766,0.2451172,2.2822266,0.7290039,3.2519531l0.2543945,0.5097656l-0.5385742,0.1860352
			C10.109375,26.3691406,7.5415039,29.2729492,7.5415039,33.25c0,1.7324219,0.3735352,3.3212891,1.1098633,4.7236328
			l0.2231445,0.4248047l-0.4160156,0.2402344C4.6708984,40.8271484,2.75,43.8505859,2.75,47.625C2.75,62.5,24.765625,62.5,32,62.5
			s29.25,0,29.25-14.875c0-3.7324219-1.8349609-6.9765625-5.453125-9.6416016l-0.3212891-0.2363281l0.1601563-0.3662109
			c0.5458984-1.2490234,0.8222656-2.6386719,0.8222656-4.1308594c0-3.9555664-2.4941406-7.3989258-7.2128906-9.9584961
			l-0.3496094-0.1899414l0.1064453-0.3833008c0.1777344-0.6416016,0.2685547-1.3300781,0.2685547-2.0463867
			c0-10.6982422-16.3969727-16.9775391-17.0952148-17.2392578L31.5,3.1791992z"/>
	</g>
	<g>
		<linearGradient id="SVGID_1_" gradientUnits="userSpaceOnUse" x1="32" y1="62" x2="32" y2="32.3990822">
			<stop  offset="0" style="stop-color:#926134"/>
			<stop  offset="1" style="stop-color:#C59D62"/>
		</linearGradient>
		<path style="fill:url(#SVGID_1_);" d="M32,33.25c0-2.5,28.75,0,28.75,14.375S39.1875,62,32,62S3.25,62,3.25,47.625
			S32,35.75,32,33.25z"/>
		<linearGradient id="SVGID_2_" gradientUnits="userSpaceOnUse" x1="32" y1="45.2291679" x2="32" y2="20.1799049">
			<stop  offset="0" style="stop-color:#926134"/>
			<stop  offset="1" style="stop-color:#C59D62"/>
		</linearGradient>
		<path style="fill:url(#SVGID_2_);" d="M32,21.2708321c0-3.0208321,23.9583321,0,23.9583321,11.9791679
			S37.9895821,45.2291679,32,45.2291679S8.041667,45.2291679,8.041667,33.25S32,24.291666,32,21.2708321z"/>
		<linearGradient id="SVGID_3_" gradientUnits="userSpaceOnUse" x1="32" y1="29.057291" x2="32" y2="3.9010413">
			<stop  offset="0" style="stop-color:#926134"/>
			<stop  offset="1" style="stop-color:#C59D62"/>
		</linearGradient>
		<path style="fill:url(#SVGID_3_);" d="M32,3.9010413c0,0,16.7708321,6.2890625,16.7708321,16.770834
			c0,8.385416-12.578125,8.385416-16.7708321,8.385416s-16.7708321,0-16.7708321-8.385416S32,14.3828125,32,3.9010413z"/>
		<linearGradient id="SVGID_4_" gradientUnits="userSpaceOnUse" x1="27.0694447" y1="20.4375" x2="27.0694447" y2="4.5">
			<stop  offset="0" style="stop-color:#FFFFFF;stop-opacity:0.2"/>
			<stop  offset="1" style="stop-color:#FFFFFF;stop-opacity:0.3"/>
		</linearGradient>
		<path style="fill:url(#SVGID_4_);" d="M32,4.5c0,0,8.75,7.5,0,12.5s-13.75,3.75-13.75,1.25s3.75-3.75,6.25-5
			C29.5,10.75,32,8.25,32,4.5z"/>
		<linearGradient id="SVGID_5_" gradientUnits="userSpaceOnUse" x1="32" y1="35.75" x2="32" y2="25.75">
			<stop  offset="0" style="stop-color:#FFFFFF;stop-opacity:0.1"/>
			<stop  offset="1" style="stop-color:#FFFFFF;stop-opacity:0.2"/>
		</linearGradient>
		<path style="fill:url(#SVGID_5_);" d="M48.25,25.75c0,0-1.25,3.75-16.25,3.75s-16.25-3.75-16.25-3.75s-2.5,0-3.75,2.5
			c-1.5811386,3.1622772,2.5,7.5,20,7.5s21.5811386-4.3377228,20-7.5C50.75,25.75,48.25,25.75,48.25,25.75z"/>
		<linearGradient id="SVGID_6_" gradientUnits="userSpaceOnUse" x1="32" y1="53.8461456" x2="32" y2="40.75">
			<stop  offset="0" style="stop-color:#FFFFFF;stop-opacity:0.1"/>
			<stop  offset="1" style="stop-color:#FFFFFF;stop-opacity:0.2"/>
		</linearGradient>
		<path style="fill:url(#SVGID_6_);" d="M54.5,40.75c0,0-5.2537918,5.9102249-22.5,5.9102249S9.5,40.75,9.5,40.75
			s-2.8743682,0.2745209-4.3115525,3.1488914C3.3705375,47.5347099,11.8794222,53.8461456,32,53.8461456
			s28.6294632-6.3114357,26.811554-9.9472542C57.3743668,41.0245209,54.5,40.75,54.5,40.75z"/>
	</g>
</g>
<g>
	<path style="fill:#350000;" d="M47.2559166,20.8198662c-0.3069916-0.0224113-7.5639839-0.5843811-11.6893311-3.1612434
		l0.9167442-1.4689884c3.7667694,2.3523273,10.8292465,2.8978062,10.8994408,2.9033031L47.2559166,20.8198662z"/>
	<g>
		<path style="fill:#973344;" d="M44.4591713,51.1459732c-1.5822716,3.6263809-5.3770027,1.2448769-12.009449,1.2448769
			s-10.181839,2.7062569-12.009449-1.2448769c-1.2672195-2.7400284,3.4513626-8.3081551,11.5701256-8.3081551
			C40.8869133,42.8378181,45.6668091,48.3788414,44.4591713,51.1459732z"/>
		<path style="fill:#350000;" d="M23.775774,54.160923c-2.0022049,0-3.2732983-0.8177986-4.1215401-2.6512833
			c-0.5332165-1.1526947-0.3014946-2.6546669,0.6355476-4.1202736c1.5975342-2.4990578,5.626049-5.4175835,11.7206173-5.4175835
			c6.6269417,0,10.9104347,2.9515076,12.5654793,5.4784737c0.9446526,1.4427719,1.1848297,2.8787804,0.6774101,4.042469
			c-0.9793282,2.2436523-2.725708,2.5320396-4.1363411,2.5320396c-0.9294319,0-1.9679565-0.1420784-3.1705475-0.3061447
			c-1.5882339-0.2165031-3.3887367-0.4617577-5.4966583-0.4617577c-2.1480885,0-3.9456329,0.2900772-5.5317516,0.5463257
			C25.7297745,53.995163,24.7039356,54.160923,23.775774,54.160923z M32.0103989,43.7037849
			c-5.0488548,0-8.7919426,2.319767-10.2613544,4.6192398c-0.6034107,0.9429588-0.798769,1.8630867-0.522646,2.4593086
			c0.636816,1.3776512,1.4169788,1.6465874,2.5493755,1.6465874c0.7890434,0,1.7514553-0.1556129,2.8660927-0.3357468
			c1.5687828-0.2528648,3.520668-0.5683136,5.8078747-0.5683136c2.2254715,0,4.1689034,0.2647057,5.730072,0.4778252
			c1.1400108,0.1556091,2.1252556,0.2900772,2.9371338,0.2900772c1.400486,0,2.0677452-0.3907166,2.5481071-1.493515
			c0.2630119-0.6012955,0.0659637-1.4757538-0.5387154-2.4001122
			C41.7080917,46.2332878,37.9463997,43.7037849,32.0103989,43.7037849z"/>
	</g>
	<path style="fill:#350000;" d="M15.3115406,21.7154675l-0.208889-1.7193165
		c3.139679-0.3822594,8.6219578-1.4782925,9.9657822-2.7920933l1.2106266,1.2389565
		C24.0768452,20.5953331,16.2020683,21.6072178,15.3115406,21.7154675z"/>
	<g>
		<linearGradient id="SVGID_7_" gradientUnits="userSpaceOnUse" x1="33.5422516" y1="31.4237556" x2="49.1375847" y2="60.1065407">
			<stop  offset="0" style="stop-color:#50BEDF"/>
			<stop  offset="0.156303" style="stop-color:#4DB6DA;stop-opacity:0.9531091"/>
			<stop  offset="0.3982337" style="stop-color:#44A0CE;stop-opacity:0.8805299"/>
			<stop  offset="0.6954401" style="stop-color:#357DB9;stop-opacity:0.7913679"/>
			<stop  offset="1" style="stop-color:#2351A0;stop-opacity:0.7"/>
		</linearGradient>
		<path style="fill:url(#SVGID_7_);" d="M38,29v33.7916679c0,0,6-0.3333359,8-0.9791679V31.166666L38,29z"/>
		<path style="fill:#234E9E;" d="M38,63.3251953V28.3466797l9,2.4370117v31.425293l-0.3867188,0.0908203
			c-2.7783203,0.6474609-7.8662109,0.9775391-8.0810547,0.9912109L38,63.3251953z M39,29.6533203v32.6025391
			c1.3164063-0.0986328,4.7773438-0.3857422,7-0.8457031V31.5493164L39,29.6533203z"/>
	</g>
	<g>
		
			<linearGradient id="SVGID_8_" gradientUnits="userSpaceOnUse" x1="34.5422516" y1="31.4237556" x2="50.1375847" y2="60.1065407" gradientTransform="matrix(-1 0 0 1 64 0)">
			<stop  offset="0" style="stop-color:#50BEDF"/>
			<stop  offset="0.156303" style="stop-color:#4DB6DA;stop-opacity:0.9531091"/>
			<stop  offset="0.3982337" style="stop-color:#44A0CE;stop-opacity:0.8805299"/>
			<stop  offset="0.6954401" style="stop-color:#357DB9;stop-opacity:0.7913679"/>
			<stop  offset="1" style="stop-color:#2351A0;stop-opacity:0.7"/>
		</linearGradient>
		<path style="fill:url(#SVGID_8_);" d="M25,29v33.7916679c0,0-5-0.3333359-8-0.9791679V31.166666L25,29z"/>
		<path style="fill:#234E9E;" d="M26,63.3251953l-0.5317383-0.0341797c-0.215332-0.0136719-5.3022461-0.34375-8.081543-0.9912109
			L17,62.2089844v-31.425293l9-2.4370117V63.3251953z M18,61.4101563c2.2231445,0.4599609,5.684082,0.7470703,7,0.8457031
			V29.6533203l-7,1.8959961V61.4101563z"/>
	</g>
	<linearGradient id="SVGID_9_" gradientUnits="userSpaceOnUse" x1="19.2589283" y1="29.625" x2="19.2589283" y2="59.25">
		<stop  offset="0" style="stop-color:#FFFFFF;stop-opacity:0.2"/>
		<stop  offset="0.5" style="stop-color:#FFFFFF;stop-opacity:0.3"/>
		<stop  offset="1" style="stop-color:#FFFFFF;stop-opacity:0"/>
	</linearGradient>
	<rect x="18.4196434" y="29.625" style="fill:url(#SVGID_9_);" width="1.6785715" height="29.625"/>
	<linearGradient id="SVGID_10_" gradientUnits="userSpaceOnUse" x1="40.2410698" y1="29.625" x2="40.2410698" y2="59.25">
		<stop  offset="0" style="stop-color:#FFFFFF;stop-opacity:0.2"/>
		<stop  offset="0.5" style="stop-color:#FFFFFF;stop-opacity:0.3"/>
		<stop  offset="1" style="stop-color:#FFFFFF;stop-opacity:0"/>
	</linearGradient>
	<rect x="39.401783" y="29.625" style="fill:url(#SVGID_10_);" width="1.6785715" height="29.625"/>
	<polygon style="fill:#350000;" points="16.9374084,32.5417557 16.1238403,30.0744114 21.5291615,28.2920895 15.3986483,25.1612911 
		16.5800972,22.8474426 28.2550488,28.80966 	"/>
	<polygon style="fill:#350000;" points="47.0115051,32.5417557 35.6934433,28.80966 47.3683929,22.8474426 48.5506897,25.1612911 
		42.4201775,28.2920895 47.8250732,30.0744114 	"/>
</g>
<g>
</g>
<g>
</g>
<g>
</g>
<g>
</g>
<g>
</g>
<g>
</g>
</svg>
