<?xml version="1.0" encoding="utf-8"?>
<!-- Generator: Adobe Illustrator 17.0.0, SVG Export Plug-In . SVG Version: 6.00 Build 0)  -->
<!DOCTYPE svg PUBLIC "-//W3C//DTD SVG 1.1//EN" "http://www.w3.org/Graphics/SVG/1.1/DTD/svg11.dtd">
<svg version="1.1" id="レイヤー_1" xmlns="http://www.w3.org/2000/svg" xmlns:xlink="http://www.w3.org/1999/xlink" x="0px"
	 y="0px" width="64px" height="64px" viewBox="0 0 64 64" style="enable-background:new 0 0 64 64;" xml:space="preserve">
<g>
	<linearGradient id="SVGID_1_" gradientUnits="userSpaceOnUse" x1="32" y1="4.5" x2="32" y2="59.5">
		<stop  offset="0" style="stop-color:#6BCF40;stop-opacity:0.8"/>
		<stop  offset="0.4" style="stop-color:#159B3A"/>
		<stop  offset="0.6" style="stop-color:#159B3A"/>
		<stop  offset="1" style="stop-color:#51B526;stop-opacity:0.8"/>
	</linearGradient>
	<path style="fill:url(#SVGID_1_);" d="M62,34.5c0,13.8071175-11.25,25-30,25S2,48.3071175,2,34.5s12.5-30,30-30
		S62,20.6928806,62,34.5z"/>
	<linearGradient id="SVGID_2_" gradientUnits="userSpaceOnUse" x1="32" y1="4" x2="32" y2="60">
		<stop  offset="0" style="stop-color:#D4FFD5"/>
		<stop  offset="1" style="stop-color:#00FF2C"/>
	</linearGradient>
	<path style="fill:url(#SVGID_2_);" d="M32,60C14.0419922,60,1.5,49.5136719,1.5,34.5C1.5,20.1025391,14.543457,4,32,4
		c17.4560547,0,30.5,16.1025391,30.5,30.5C62.5,49.5136719,49.9580078,60,32,60z M32,5.4576273c-16.5981026,0-29,15.310729-29,29
		c0,14.1803169,11.925252,24.0847473,29,24.0847473s29-9.9044304,29-24.0847473C61,20.7683563,48.5976219,5.4576273,32,5.4576273z"
		/>
	<linearGradient id="SVGID_3_" gradientUnits="userSpaceOnUse" x1="31.9997559" y1="3.154134" x2="31.9997559" y2="60.8453789">
		<stop  offset="0" style="stop-color:#009245"/>
		<stop  offset="0.4" style="stop-color:#00BC40"/>
		<stop  offset="0.6" style="stop-color:#00BC40"/>
		<stop  offset="1" style="stop-color:#009245"/>
	</linearGradient>
	<path style="fill:url(#SVGID_3_);" d="M32,60.8453789c-18.4739742,0-31.3766403-10.8212776-31.3766403-26.3146057
		C0.6233594,19.7195587,14.041626,3.154134,32,3.154134c17.9578857,0,31.376152,16.565424,31.376152,31.3766384
		C63.376152,50.0241013,50.4739723,60.8453789,32,60.8453789z M32,4.1512537
		c-17.38727,0-30.3795204,16.0391121-30.3795204,30.3795204C1.6204789,49.4369278,14.1131964,59.848259,32,59.848259
		s30.3790321-10.4113312,30.3790321-25.3174858C62.3790321,20.1903667,49.3872681,4.1512537,32,4.1512537z"/>
	<linearGradient id="SVGID_4_" gradientUnits="userSpaceOnUse" x1="32" y1="7.8333335" x2="32" y2="42.8333321">
		<stop  offset="0" style="stop-color:#F5FFD2;stop-opacity:0.6"/>
		<stop  offset="1" style="stop-color:#F5FFD2;stop-opacity:0"/>
	</linearGradient>
	<path style="fill:url(#SVGID_4_);" d="M54.522728,28.4721546c0,6.7936115-8.446022,14.3611774-22.522728,14.3611774
		S9.477273,35.2657661,9.477273,28.4721546c0-9.4987564,9.384469-20.6388206,22.522728-20.6388206
		S54.522728,18.9733982,54.522728,28.4721546z"/>
	<linearGradient id="SVGID_5_" gradientUnits="userSpaceOnUse" x1="22.625" y1="8.25" x2="22.625" y2="22">
		<stop  offset="0.3" style="stop-color:#FFFFFF;stop-opacity:0.6"/>
		<stop  offset="1" style="stop-color:#FFFFFF;stop-opacity:0.2"/>
	</linearGradient>
	<circle style="fill:url(#SVGID_5_);" cx="22.625" cy="15.125" r="6.875"/>
	<linearGradient id="SVGID_6_" gradientUnits="userSpaceOnUse" x1="46.375" y1="47.75" x2="46.375" y2="54">
		<stop  offset="0.3" style="stop-color:#FFFFFF;stop-opacity:0.4"/>
		<stop  offset="1" style="stop-color:#FFFFFF;stop-opacity:0"/>
	</linearGradient>
	<circle style="fill:url(#SVGID_6_);" cx="46.375" cy="50.875" r="3.125"/>
	<linearGradient id="SVGID_7_" gradientUnits="userSpaceOnUse" x1="46.375" y1="49.125" x2="46.375" y2="52.625">
		<stop  offset="0.3" style="stop-color:#FFFFFF;stop-opacity:0.4"/>
		<stop  offset="1" style="stop-color:#FFFFFF;stop-opacity:0"/>
	</linearGradient>
	<circle style="fill:url(#SVGID_7_);" cx="46.375" cy="50.875" r="1.75"/>
	<linearGradient id="SVGID_8_" gradientUnits="userSpaceOnUse" x1="22.625" y1="9.75" x2="22.625" y2="20.5">
		<stop  offset="0.3" style="stop-color:#FFFFFF"/>
		<stop  offset="1" style="stop-color:#FFFFFF;stop-opacity:0.2"/>
	</linearGradient>
	<circle style="fill:url(#SVGID_8_);" cx="22.625" cy="15.125" r="5.375"/>
</g>
<g>
	<ellipse style="fill:#350000;" cx="43.1777496" cy="18.2554016" rx="3.6240499" ry="5.1943002"/>
	<ellipse style="fill:#350000;" cx="20.8222504" cy="18.2554016" rx="3.6240499" ry="5.1943002"/>
	<path style="fill:#842C38;" d="M50.9150009,34.0038986c0,10.642601-8.4668007,19.2734032-18.9150009,19.2734032
		c-10.4463005,0-18.9150009-8.6308022-18.9150009-19.2734032C20.7222004,33.7821999,21.5536995,35.6006012,32,35.6006012
		C42.4482002,35.6006012,42.4482002,34.0038986,50.9150009,34.0038986z"/>
	<polygon style="fill:#FFFFFF;" points="50.7655983,39.5381012 13.2349005,39.5381012 13.2349005,34.5371017 31.7572994,36.1338005 
		50.7655983,34.5371017 	"/>
	<path style="fill:#350000;" d="M32,54.2773438c-10.980957,0-19.9150391-9.0947266-19.9150391-20.2734375v-1h1
		c4.0966797,0,6.2421875,0.3642578,8.5131836,0.75C24.0507813,34.1699219,26.5874023,34.6005859,32,34.6005859
		c5.4140625,0,7.9511719-0.4306641,10.4042969-0.8466797c2.2705078-0.3857422,4.4150391-0.75,8.5107422-0.75h1v1
		C51.9150391,45.1826172,42.9814453,54.2773438,32,54.2773438z M14.1118164,35.0126953
		C14.6264648,44.6210938,22.453125,52.2773438,32,52.2773438s17.3730469-7.65625,17.8876953-17.2646484
		c-3.2753906,0.0546875-5.1621094,0.375-7.1494141,0.7128906c-2.5341797,0.4296875-5.1552734,0.875-10.7382813,0.875
		c-5.5810547,0-8.2021484-0.4453125-10.7363281-0.875C19.2763672,35.3876953,17.3896484,35.0673828,14.1118164,35.0126953z"/>
	<path style="fill:#EA7C91;" d="M19.9354992,45.6044998c0,0,5.2691002-2.0166016,11.0733013-2.0166016
		c5.8036995,0,9.6913986,0.3428001,13.0556984,2.3135033c0,0,0,5.7635994,0,9.2528992
		c0,3.4873009-6.9864006,6.9306984-12.3500996,6.9306984c-5.3642998,0-11.7789001-2.9853973-11.7789001-6.9306984
		C19.9354992,51.2061005,19.9354992,45.6044998,19.9354992,45.6044998z"/>
	<path style="fill:#E42A56;" d="M44,45.0615005c0,0-4.2450981-1.9209023-11.5741997-1.9209023
		C25.0956993,43.1405983,20,45.0615005,20,45.0615005v3.3769989c0,0,4.8320007-0.8486977,10.4351006-1.0303001L32,56
		l1.5703011-8.6152C39.6493988,47.5009995,44,48.4384995,44,48.4384995V45.0615005z"/>
	<path style="fill:#65132B;" d="M31.7143555,63.0849609c-6.0322266,0-12.7788086-3.3916016-12.7788086-7.9306641V44.9160156
		l0.6425781-0.2451172c0.222168-0.0849609,5.5097656-2.0830078,11.4306641-2.0830078
		c6.0820313,0,10.0439453,0.390625,13.5615234,2.4501953l0.4941406,0.2900391v9.8261719
		C45.0644531,59.3505859,37.5986328,63.0849609,31.7143555,63.0849609z M20.9355469,46.3144531v8.8398438
		c0,3.1943359,5.9267578,5.9306641,10.7788086,5.9306641c5.0913086,0,11.3500977-3.2705078,11.3500977-5.9306641v-8.6650391
		c-3.0205078-1.5898438-6.625-1.9013672-12.0556641-1.9013672C26.6049805,44.5878906,22.4814453,45.8017578,20.9355469,46.3144531z"
		/>
</g>
<g>
</g>
<g>
</g>
<g>
</g>
<g>
</g>
<g>
</g>
<g>
</g>
</svg>
