<?xml version="1.0" encoding="utf-8"?>
<!-- Generator: Adobe Illustrator 15.0.2, SVG Export Plug-In . SVG Version: 6.00 Build 0)  -->
<!DOCTYPE svg PUBLIC "-//W3C//DTD SVG 1.1//EN" "http://www.w3.org/Graphics/SVG/1.1/DTD/svg11.dtd">
<svg version="1.1" id="レイヤー_1" xmlns="http://www.w3.org/2000/svg" xmlns:xlink="http://www.w3.org/1999/xlink" x="0px"
	 y="0px" width="64px" height="64px" viewBox="0 0 64 64" style="enable-background:new 0 0 64 64;" xml:space="preserve">
<g>
	<g>
		<rect x="21.8833008" y="50.1894531" style="fill:#020000;" width="19.940918" height="10.0019531"/>
		<path style="fill:#020000;" d="M42.4492188,60.8173828H21.2573242V49.5634766h21.1918945V60.8173828z M22.5092773,59.5654297
			h18.6879883v-8.75H22.5092773V59.5654297z"/>
	</g>
	<g>
		<linearGradient id="SVGID_1_" gradientUnits="userSpaceOnUse" x1="26.2529297" y1="15.8422852" x2="45.0705795" y2="68.2270508">
			<stop  offset="0" style="stop-color:#FFFFFF"/>
			<stop  offset="1" style="stop-color:#000000"/>
		</linearGradient>
		<path style="fill:url(#SVGID_1_);" d="M51.8730469,51.7744141c0,1.3769531-1.1259766,2.5029297-2.5029297,2.5029297H14.3378906
			c-1.3769531,0-2.503418-1.1259766-2.503418-2.5029297V11.0942383c0-1.3769531,1.1264648-2.503418,2.503418-2.503418h35.0322266
			c1.3769531,0,2.5029297,1.1264648,2.5029297,2.503418V51.7744141z"/>
	</g>
	
		<linearGradient id="SVGID_2_" gradientUnits="userSpaceOnUse" x1="51.2539063" y1="17.6342773" x2="40.247982" y2="6.6283517" gradientTransform="matrix(0.934 -0.066 -0.066 0.934 3.7533383 3.7528496)">
		<stop  offset="0" style="stop-color:#000000;stop-opacity:0"/>
		<stop  offset="1" style="stop-color:#000000"/>
	</linearGradient>
	<polygon style="fill:url(#SVGID_2_);" points="49.8085938,21.1098633 43.4042969,14.706543 48.3261719,9.784668 
		52.7910156,14.2485352 	"/>
	<path style="fill:#1630B2;" d="M11.8344727,51.7734375c0,1.3759766,1.1259766,2.5039063,2.5029297,2.5039063h35.0317383
		c1.3769531,0,2.5039063-1.1279297,2.5039063-2.5039063V38.1386719H11.8344727V51.7734375z"/>
	
		<linearGradient id="SVGID_3_" gradientUnits="userSpaceOnUse" x1="23.65625" y1="15.6845703" x2="12.6503239" y2="4.6786447" gradientTransform="matrix(0.934 -0.066 -0.066 0.934 3.7533383 3.7528496)">
		<stop  offset="0" style="stop-color:#000000;stop-opacity:0"/>
		<stop  offset="1" style="stop-color:#000000"/>
	</linearGradient>
	<polygon style="fill:url(#SVGID_3_);" points="24.159668,21.1098633 17.7563477,14.706543 22.6782227,9.784668 
		29.0825195,16.1879883 	"/>
	
		<linearGradient id="SVGID_4_" gradientUnits="userSpaceOnUse" x1="29.4277344" y1="42.46875" x2="18.4228382" y2="31.4638538" gradientTransform="matrix(0.934 -0.066 -0.066 0.934 3.7533383 3.7528496)">
		<stop  offset="0" style="stop-color:#000000;stop-opacity:0"/>
		<stop  offset="1" style="stop-color:#000000"/>
	</linearGradient>
	<polygon style="fill:url(#SVGID_4_);" points="27.7827148,45.7460938 21.3803711,39.3417969 26.3022461,34.4199219 
		32.7045898,40.8232422 	"/>
	
		<linearGradient id="SVGID_5_" gradientUnits="userSpaceOnUse" x1="22.1621094" y1="50.0703125" x2="11.1561832" y2="39.0643883" gradientTransform="matrix(1.0303 -0.1913 -0.1913 1.0303 5.4090681 1.3641472)">
		<stop  offset="0" style="stop-color:#000000;stop-opacity:0"/>
		<stop  offset="1" style="stop-color:#000000"/>
	</linearGradient>
	<polygon style="fill:url(#SVGID_5_);" points="17.4057617,53.4658203 13.324707,49.3857422 17.2299805,41.2636719 
		23.4194336,47.4541016 	"/>
	
		<linearGradient id="SVGID_6_" gradientUnits="userSpaceOnUse" x1="55.03125" y1="56.171875" x2="44.0263557" y2="45.1669807" gradientTransform="matrix(1.0303 -0.1913 -0.1913 1.0303 5.4090681 1.3641472)">
		<stop  offset="0" style="stop-color:#000000;stop-opacity:0"/>
		<stop  offset="1" style="stop-color:#000000"/>
	</linearGradient>
	<polygon style="fill:url(#SVGID_6_);" points="50.1035156,53.4658203 46.0234375,49.3857422 49.9277344,41.2636719 
		52.1113281,43.4482422 	"/>
	
		<linearGradient id="SVGID_7_" gradientUnits="userSpaceOnUse" x1="22.3979492" y1="41.9716797" x2="11.3930531" y2="30.9667835" gradientTransform="matrix(0.934 -0.066 -0.066 0.934 3.7533383 3.7528496)">
		<stop  offset="0" style="stop-color:#000000;stop-opacity:0"/>
		<stop  offset="1" style="stop-color:#000000"/>
	</linearGradient>
	<polygon style="fill:url(#SVGID_7_);" points="21.2495117,45.7460938 14.847168,39.3417969 19.769043,34.4199219 
		26.1723633,40.8232422 	"/>
	
		<linearGradient id="SVGID_8_" gradientUnits="userSpaceOnUse" x1="30.0039063" y1="50.6318359" x2="18.9990101" y2="39.6269417" gradientTransform="matrix(0.934 -0.066 -0.066 0.934 3.7533383 3.7528496)">
		<stop  offset="0" style="stop-color:#000000;stop-opacity:0"/>
		<stop  offset="1" style="stop-color:#000000"/>
	</linearGradient>
	<polygon style="fill:url(#SVGID_8_);" points="27.7827148,53.3320313 21.3793945,46.9287109 26.3012695,42.0068359 
		32.7045898,48.4101563 	"/>
	<g>
		<g>
			<g>
				<linearGradient id="SVGID_9_" gradientUnits="userSpaceOnUse" x1="19.8847656" y1="31.0834961" x2="19.8847656" y2="15.226697">
					<stop  offset="0" style="stop-color:#FFFFFF"/>
					<stop  offset="1" style="stop-color:#000000"/>
				</linearGradient>
				<path style="fill:url(#SVGID_9_);" d="M14.3383789,30.9897461c0,0.6884766,0.5629883,1.2514648,1.2514648,1.2514648h8.5898438
					c0.6884766,0,1.2514648-0.5629883,1.2514648-1.2514648V16.8505859c0-0.6884766-0.5629883-1.2514648-1.2514648-1.2514648
					h-8.5898438c-0.6884766,0-1.2514648,0.5629883-1.2514648,1.2514648V30.9897461z"/>
			</g>
			<path d="M24.1796875,32.5541992h-8.5898438c-0.862793,0-1.5644531-0.7016602-1.5644531-1.5644531V16.8505859
				c0-0.862793,0.7016602-1.5644531,1.5644531-1.5644531h8.5898438c0.862793,0,1.5644531,0.7016602,1.5644531,1.5644531v14.1391602
				C25.7441406,31.8525391,25.0424805,32.5541992,24.1796875,32.5541992z M15.5898438,15.9121094
				c-0.5175781,0-0.9384766,0.4208984-0.9384766,0.9384766v14.1391602c0,0.5175781,0.4208984,0.9384766,0.9384766,0.9384766
				h8.5898438c0.5175781,0,0.9384766-0.4208984,0.9384766-0.9384766V16.8505859
				c0-0.5175781-0.4208984-0.9384766-0.9384766-0.9384766H15.5898438z"/>
		</g>
		<g style="opacity:0.2;">
			<path style="fill:#FFFFFF;" d="M14.3383789,26.6503906v5.4379883h11.0927734v-9.4067383
				C22.847168,23.5898438,18.4916992,25.1533203,14.3383789,26.6503906z"/>
		</g>
		<path style="fill:#595757;" d="M24.1796875,32.5541992h-8.5898438c-0.862793,0-1.5644531-0.7016602-1.5644531-1.5644531
			V16.8505859c0-0.862793,0.7016602-1.5644531,1.5644531-1.5644531h8.5898438c0.862793,0,1.5644531,0.7016602,1.5644531,1.5644531
			v14.1391602C25.7441406,31.8525391,25.0424805,32.5541992,24.1796875,32.5541992z M15.5898438,15.9121094
			c-0.5175781,0-0.9384766,0.4208984-0.9384766,0.9384766v14.1391602c0,0.5175781,0.4208984,0.9384766,0.9384766,0.9384766
			h8.5898438c0.5175781,0,0.9384766-0.4208984,0.9384766-0.9384766V16.8505859c0-0.5175781-0.4208984-0.9384766-0.9384766-0.9384766
			H15.5898438z"/>
		<path style="fill:#231815;" d="M25.4658203,33.7265625H14.3037109c-0.9121094,0-1.6538086-0.7416992-1.6538086-1.6538086
			V15.7675781c0-0.9121094,0.7416992-1.6538086,1.6538086-1.6538086h11.1621094
			c0.9121094,0,1.6538086,0.7416992,1.6538086,1.6538086v16.3051758
			C27.1196289,32.9848633,26.3779297,33.7265625,25.4658203,33.7265625z M14.3037109,14.3637695
			c-0.7739258,0-1.4038086,0.6298828-1.4038086,1.4038086v16.3051758c0,0.7739258,0.6298828,1.4038086,1.4038086,1.4038086
			h11.1621094c0.7739258,0,1.4038086-0.6298828,1.4038086-1.4038086V15.7675781
			c0-0.7739258-0.6298828-1.4038086-1.4038086-1.4038086H14.3037109z"/>
		<path style="fill:#333333;" d="M23.9404297,32.9746094h-0.359375c-0.034668,0-0.0625-0.027832-0.0625-0.0625
			s0.027832-0.0625,0.0625-0.0625h0.359375c0.034668,0,0.0625,0.027832,0.0625,0.0625S23.9750977,32.9746094,23.9404297,32.9746094z
			 M22.3833008,32.9746094h-0.359375c-0.034668,0-0.0625-0.027832-0.0625-0.0625s0.027832-0.0625,0.0625-0.0625h0.359375
			c0.034668,0,0.0625,0.027832,0.0625,0.0625S22.4179688,32.9746094,22.3833008,32.9746094z M20.8256836,32.9746094h-0.359375
			c-0.034668,0-0.0625-0.027832-0.0625-0.0625s0.027832-0.0625,0.0625-0.0625h0.359375c0.034668,0,0.0625,0.027832,0.0625,0.0625
			S20.8603516,32.9746094,20.8256836,32.9746094z M19.2685547,32.9746094h-0.359375c-0.034668,0-0.0625-0.027832-0.0625-0.0625
			s0.027832-0.0625,0.0625-0.0625h0.359375c0.034668,0,0.0625,0.027832,0.0625,0.0625S19.3032227,32.9746094,19.2685547,32.9746094z
			 M17.7109375,32.9746094h-0.359375c-0.034668,0-0.0625-0.027832-0.0625-0.0625s0.027832-0.0625,0.0625-0.0625h0.359375
			c0.034668,0,0.0625,0.027832,0.0625,0.0625S17.7456055,32.9746094,17.7109375,32.9746094z M16.1533203,32.9746094h-0.359375
			c-0.034668,0-0.0625-0.027832-0.0625-0.0625s0.027832-0.0625,0.0625-0.0625h0.359375c0.034668,0,0.0625,0.027832,0.0625,0.0625
			S16.1879883,32.9746094,16.1533203,32.9746094z M25.137207,32.9536133c-0.0297852,0-0.0561523-0.0214844-0.0615234-0.0517578
			c-0.0058594-0.0341797,0.0166016-0.0664063,0.0507813-0.0722656c0.1123047-0.0200195,0.2216797-0.0541992,0.3261719-0.1025391
			c0.0322266-0.0141602,0.0683594-0.0014648,0.0830078,0.0302734c0.0146484,0.03125,0.0009766,0.0688477-0.0302734,0.0830078
			c-0.1142578,0.0532227-0.234375,0.0908203-0.3574219,0.1123047C25.1445313,32.9536133,25.140625,32.9536133,25.137207,32.9536133z
			 M14.5981445,32.9467773c-0.0039063,0-0.0083008-0.0004883-0.012207-0.0009766
			c-0.1225586-0.0249023-0.2421875-0.065918-0.3544922-0.121582c-0.0307617-0.015625-0.043457-0.0532227-0.0283203-0.0839844
			c0.0161133-0.0302734,0.0546875-0.0429688,0.0839844-0.0283203c0.1025391,0.0512695,0.2114258,0.0883789,0.3232422,0.1108398
			c0.0341797,0.0068359,0.0561523,0.0400391,0.0493164,0.0737305
			C14.6533203,32.9262695,14.6274414,32.9467773,14.5981445,32.9467773z M26.237793,31.9658203
			c-0.0058594,0-0.0117188-0.0004883-0.0175781-0.0024414c-0.0332031-0.0097656-0.0522461-0.0444336-0.0424805-0.0776367
			c0.0322266-0.109375,0.0498047-0.2231445,0.0527344-0.3378906c0.0009766-0.0341797,0.0288086-0.0610352,0.0625-0.0610352
			c0.0004883,0,0.0009766,0,0.0014648,0c0.034668,0.0009766,0.0620117,0.0292969,0.0610352,0.0639648
			c-0.0029297,0.1259766-0.0224609,0.2504883-0.0576172,0.3701172
			C26.2900391,31.9482422,26.2646484,31.9658203,26.237793,31.9658203z M13.5229492,31.9316406
			c-0.027832,0-0.0532227-0.0185547-0.0605469-0.046875c-0.0317383-0.1210938-0.0478516-0.2460938-0.0478516-0.3710938v-0.0161133
			c0-0.034668,0.027832-0.0625,0.0625-0.0625s0.0625,0.027832,0.0625,0.0625v0.0161133
			c0,0.1142578,0.0146484,0.2285156,0.0439453,0.3398438c0.0087891,0.0332031-0.0112305,0.0673828-0.0449219,0.0761719
			C13.5336914,31.9311523,13.5283203,31.9316406,13.5229492,31.9316406z M26.293457,30.4140625
			c-0.034668,0-0.0625-0.027832-0.0625-0.0625v-0.359375c0-0.034668,0.027832-0.0625,0.0625-0.0625s0.0625,0.027832,0.0625,0.0625
			v0.359375C26.355957,30.3862305,26.328125,30.4140625,26.293457,30.4140625z M13.4770508,30.3618164
			c-0.034668,0-0.0625-0.027832-0.0625-0.0625v-0.359375c0-0.034668,0.027832-0.0625,0.0625-0.0625s0.0625,0.027832,0.0625,0.0625
			v0.359375C13.5395508,30.3339844,13.5117188,30.3618164,13.4770508,30.3618164z M26.293457,28.8564453
			c-0.034668,0-0.0625-0.027832-0.0625-0.0625v-0.359375c0-0.034668,0.027832-0.0625,0.0625-0.0625s0.0625,0.027832,0.0625,0.0625
			v0.359375C26.355957,28.8286133,26.328125,28.8564453,26.293457,28.8564453z M13.4770508,28.8046875
			c-0.034668,0-0.0625-0.027832-0.0625-0.0625v-0.3598633c0-0.034668,0.027832-0.0625,0.0625-0.0625s0.0625,0.027832,0.0625,0.0625
			v0.3598633C13.5395508,28.7768555,13.5117188,28.8046875,13.4770508,28.8046875z M26.293457,27.2993164
			c-0.034668,0-0.0625-0.027832-0.0625-0.0625v-0.359375c0-0.034668,0.027832-0.0625,0.0625-0.0625s0.0625,0.027832,0.0625,0.0625
			v0.359375C26.355957,27.2714844,26.328125,27.2993164,26.293457,27.2993164z M13.4770508,27.2470703
			c-0.034668,0-0.0625-0.027832-0.0625-0.0625v-0.359375c0-0.034668,0.027832-0.0625,0.0625-0.0625s0.0625,0.027832,0.0625,0.0625
			v0.359375C13.5395508,27.2192383,13.5117188,27.2470703,13.4770508,27.2470703z M26.293457,25.7416992
			c-0.034668,0-0.0625-0.027832-0.0625-0.0625v-0.359375c0-0.034668,0.027832-0.0625,0.0625-0.0625s0.0625,0.027832,0.0625,0.0625
			v0.359375C26.355957,25.7138672,26.328125,25.7416992,26.293457,25.7416992z M13.4770508,25.6894531
			c-0.034668,0-0.0625-0.027832-0.0625-0.0625v-0.359375c0-0.034668,0.027832-0.0625,0.0625-0.0625s0.0625,0.027832,0.0625,0.0625
			v0.359375C13.5395508,25.6616211,13.5117188,25.6894531,13.4770508,25.6894531z M26.293457,24.184082
			c-0.034668,0-0.0625-0.027832-0.0625-0.0625v-0.359375c0-0.034668,0.027832-0.0625,0.0625-0.0625s0.0625,0.027832,0.0625,0.0625
			v0.359375C26.355957,24.15625,26.328125,24.184082,26.293457,24.184082z M13.4770508,24.1323242
			c-0.034668,0-0.0625-0.027832-0.0625-0.0625v-0.359375c0-0.034668,0.027832-0.0625,0.0625-0.0625s0.0625,0.027832,0.0625,0.0625
			v0.359375C13.5395508,24.1044922,13.5117188,24.1323242,13.4770508,24.1323242z M26.293457,22.6269531
			c-0.034668,0-0.0625-0.027832-0.0625-0.0625v-0.359375c0-0.034668,0.027832-0.0625,0.0625-0.0625s0.0625,0.027832,0.0625,0.0625
			v0.359375C26.355957,22.5991211,26.328125,22.6269531,26.293457,22.6269531z M13.4770508,22.574707
			c-0.034668,0-0.0625-0.027832-0.0625-0.0625v-0.359375c0-0.034668,0.027832-0.0625,0.0625-0.0625s0.0625,0.027832,0.0625,0.0625
			v0.359375C13.5395508,22.546875,13.5117188,22.574707,13.4770508,22.574707z M26.293457,21.0693359
			c-0.034668,0-0.0625-0.027832-0.0625-0.0625v-0.359375c0-0.034668,0.027832-0.0625,0.0625-0.0625s0.0625,0.027832,0.0625,0.0625
			v0.359375C26.355957,21.0415039,26.328125,21.0693359,26.293457,21.0693359z M13.4770508,21.0175781
			c-0.034668,0-0.0625-0.027832-0.0625-0.0625v-0.359375c0-0.034668,0.027832-0.0625,0.0625-0.0625s0.0625,0.027832,0.0625,0.0625
			v0.359375C13.5395508,20.9897461,13.5117188,21.0175781,13.4770508,21.0175781z M26.293457,19.512207
			c-0.034668,0-0.0625-0.027832-0.0625-0.0625v-0.359375c0-0.034668,0.027832-0.0625,0.0625-0.0625s0.0625,0.027832,0.0625,0.0625
			v0.359375C26.355957,19.484375,26.328125,19.512207,26.293457,19.512207z M13.4770508,19.4599609
			c-0.034668,0-0.0625-0.027832-0.0625-0.0625v-0.359375c0-0.034668,0.027832-0.0625,0.0625-0.0625s0.0625,0.027832,0.0625,0.0625
			v0.359375C13.5395508,19.4321289,13.5117188,19.4599609,13.4770508,19.4599609z M26.293457,17.9545898
			c-0.034668,0-0.0625-0.027832-0.0625-0.0625v-0.359375c0-0.034668,0.027832-0.0625,0.0625-0.0625s0.0625,0.027832,0.0625,0.0625
			v0.359375C26.355957,17.9267578,26.328125,17.9545898,26.293457,17.9545898z M13.4770508,17.902832
			c-0.034668,0-0.0625-0.027832-0.0625-0.0625v-0.359375c0-0.034668,0.027832-0.0625,0.0625-0.0625s0.0625,0.027832,0.0625,0.0625
			v0.359375C13.5395508,17.875,13.5117188,17.902832,13.4770508,17.902832z M26.293457,16.3935547
			c-0.034668,0-0.0625-0.0239258-0.0625-0.0585938v-0.0083008c0-0.1123047-0.0141602-0.2241211-0.0419922-0.331543
			c-0.0087891-0.0332031,0.0112305-0.0673828,0.0449219-0.0761719c0.0327148-0.0112305,0.0673828,0.0107422,0.0761719,0.0449219
			c0.0307617,0.1176758,0.0458984,0.2397461,0.0458984,0.362793C26.355957,16.3613281,26.328125,16.3935547,26.293457,16.3935547z
			 M13.4780273,16.3452148c-0.0004883,0-0.0014648,0-0.0019531,0c-0.034668-0.0009766-0.0615234-0.0297852-0.0605469-0.0644531
			c0.0039063-0.1259766,0.0239258-0.2504883,0.0595703-0.3696289c0.0102539-0.0322266,0.0439453-0.0498047,0.078125-0.0419922
			c0.0332031,0.0097656,0.0517578,0.0449219,0.0419922,0.078125c-0.0327148,0.1088867-0.0507813,0.222168-0.0546875,0.3374023
			C13.5395508,16.3183594,13.5117188,16.3452148,13.4780273,16.3452148z M25.5185547,15.1381836
			c-0.0092773,0-0.019043-0.0019531-0.0283203-0.0063477c-0.1020508-0.0517578-0.2109375-0.0898438-0.3227539-0.1132813
			c-0.0341797-0.0068359-0.0556641-0.0400391-0.0483398-0.0737305c0.0068359-0.0341797,0.0424805-0.0541992,0.0737305-0.0483398
			c0.1225586,0.0253906,0.2416992,0.0668945,0.3540039,0.1230469c0.0307617,0.015625,0.0429688,0.0532227,0.027832,0.0844727
			C25.5634766,15.1254883,25.5415039,15.1381836,25.5185547,15.1381836z M14.2983398,15.1157227
			c-0.0239258,0-0.0463867-0.0136719-0.0571289-0.0366211c-0.0141602-0.03125-0.0004883-0.0683594,0.03125-0.0830078
			c0.1137695-0.0517578,0.234375-0.0888672,0.3579102-0.1098633c0.0351563-0.012207,0.0664063,0.0170898,0.0722656,0.0507813
			c0.0058594,0.0341797-0.0170898,0.0664063-0.0507813,0.0722656c-0.1132813,0.0195313-0.2236328,0.0532227-0.3276367,0.1010742
			C14.315918,15.1137695,14.3071289,15.1157227,14.2983398,15.1157227z M23.984375,14.9907227H23.625
			c-0.034668,0-0.0625-0.027832-0.0625-0.0625s0.027832-0.0625,0.0625-0.0625h0.359375c0.034668,0,0.0625,0.027832,0.0625,0.0625
			S24.019043,14.9907227,23.984375,14.9907227z M22.4272461,14.9907227h-0.359375c-0.034668,0-0.0625-0.027832-0.0625-0.0625
			s0.027832-0.0625,0.0625-0.0625h0.359375c0.034668,0,0.0625,0.027832,0.0625,0.0625S22.4619141,14.9907227,22.4272461,14.9907227z
			 M20.8696289,14.9907227h-0.359375c-0.034668,0-0.0625-0.027832-0.0625-0.0625s0.027832-0.0625,0.0625-0.0625h0.359375
			c0.034668,0,0.0625,0.027832,0.0625,0.0625S20.9042969,14.9907227,20.8696289,14.9907227z M19.3125,14.9907227h-0.359375
			c-0.034668,0-0.0625-0.027832-0.0625-0.0625s0.027832-0.0625,0.0625-0.0625H19.3125c0.034668,0,0.0625,0.027832,0.0625,0.0625
			S19.347168,14.9907227,19.3125,14.9907227z M17.7548828,14.9907227h-0.359375c-0.034668,0-0.0625-0.027832-0.0625-0.0625
			s0.027832-0.0625,0.0625-0.0625h0.359375c0.034668,0,0.0625,0.027832,0.0625,0.0625S17.7895508,14.9907227,17.7548828,14.9907227z
			 M16.1977539,14.9907227h-0.3598633c-0.034668,0-0.0625-0.027832-0.0625-0.0625s0.027832-0.0625,0.0625-0.0625h0.3598633
			c0.034668,0,0.0625,0.027832,0.0625,0.0625S16.2324219,14.9907227,16.1977539,14.9907227z"/>
	</g>
	<g>
		<g>
			<g>
				<linearGradient id="SVGID_10_" gradientUnits="userSpaceOnUse" x1="43.703125" y1="31.0834961" x2="43.703125" y2="15.226697">
					<stop  offset="0" style="stop-color:#FFFFFF"/>
					<stop  offset="1" style="stop-color:#000000"/>
				</linearGradient>
				<path style="fill:url(#SVGID_10_);" d="M38.15625,30.9897461c0,0.6884766,0.5634766,1.2514648,1.2519531,1.2514648h8.5898438
					c0.6884766,0,1.2519531-0.5629883,1.2519531-1.2514648V16.8505859c0-0.6884766-0.5634766-1.2514648-1.2519531-1.2514648
					h-8.5898438c-0.6884766,0-1.2519531,0.5629883-1.2519531,1.2514648V30.9897461z"/>
			</g>
			<path d="M47.9980469,32.5541992h-8.5898438c-0.8632813,0-1.5644531-0.7016602-1.5644531-1.5644531V16.8505859
				c0-0.862793,0.7011719-1.5644531,1.5644531-1.5644531h8.5898438c0.8632813,0,1.5644531,0.7016602,1.5644531,1.5644531v14.1391602
				C49.5625,31.8525391,48.8613281,32.5541992,47.9980469,32.5541992z M39.4082031,15.9121094
				c-0.5175781,0-0.9394531,0.4208984-0.9394531,0.9384766v14.1391602c0,0.5175781,0.421875,0.9384766,0.9394531,0.9384766
				h8.5898438c0.5175781,0,0.9394531-0.4208984,0.9394531-0.9384766V16.8505859c0-0.5175781-0.421875-0.9384766-0.9394531-0.9384766
				H39.4082031z"/>
		</g>
		<g style="opacity:0.2;">
			<path style="fill:#FFFFFF;" d="M38.1542969,26.6503906v5.4379883H49.25v-9.4067383
				C46.6640625,23.5898438,42.3085938,25.1533203,38.1542969,26.6503906z"/>
		</g>
		<path style="fill:#595757;" d="M47.9980469,32.5541992h-8.5898438c-0.8632813,0-1.5644531-0.7016602-1.5644531-1.5644531
			V16.8505859c0-0.862793,0.7011719-1.5644531,1.5644531-1.5644531h8.5898438c0.8632813,0,1.5644531,0.7016602,1.5644531,1.5644531
			v14.1391602C49.5625,31.8525391,48.8613281,32.5541992,47.9980469,32.5541992z M39.4082031,15.9121094
			c-0.5175781,0-0.9394531,0.4208984-0.9394531,0.9384766v14.1391602c0,0.5175781,0.421875,0.9384766,0.9394531,0.9384766h8.5898438
			c0.5175781,0,0.9394531-0.4208984,0.9394531-0.9384766V16.8505859c0-0.5175781-0.421875-0.9384766-0.9394531-0.9384766H39.4082031
			z"/>
		<path style="fill:#231815;" d="M49.2832031,33.7265625H38.1210938c-0.9121094,0-1.6542969-0.7416992-1.6542969-1.6538086
			V15.7675781c0-0.9121094,0.7421875-1.6538086,1.6542969-1.6538086h11.1621094
			c0.9121094,0,1.6542969,0.7416992,1.6542969,1.6538086v16.3051758
			C50.9375,32.9848633,50.1953125,33.7265625,49.2832031,33.7265625z M38.1210938,14.3637695
			c-0.7734375,0-1.4042969,0.6298828-1.4042969,1.4038086v16.3051758c0,0.7739258,0.6308594,1.4038086,1.4042969,1.4038086
			h11.1621094c0.7734375,0,1.4042969-0.6298828,1.4042969-1.4038086V15.7675781
			c0-0.7739258-0.6308594-1.4038086-1.4042969-1.4038086H38.1210938z"/>
		<path style="fill:#333333;" d="M47.7578125,32.9746094h-0.359375c-0.0332031,0-0.0625-0.027832-0.0625-0.0625
			s0.0292969-0.0625,0.0625-0.0625h0.359375c0.0351563,0,0.0625,0.027832,0.0625,0.0625
			S47.7929688,32.9746094,47.7578125,32.9746094z M46.2011719,32.9746094h-0.359375c-0.0351563,0-0.0625-0.027832-0.0625-0.0625
			s0.0273438-0.0625,0.0625-0.0625h0.359375c0.0332031,0,0.0625,0.027832,0.0625,0.0625S46.234375,32.9746094,46.2011719,32.9746094
			z M44.6425781,32.9746094h-0.359375c-0.0332031,0-0.0625-0.027832-0.0625-0.0625s0.0292969-0.0625,0.0625-0.0625h0.359375
			c0.0351563,0,0.0625,0.027832,0.0625,0.0625S44.6777344,32.9746094,44.6425781,32.9746094z M43.0859375,32.9746094h-0.359375
			c-0.0351563,0-0.0625-0.027832-0.0625-0.0625s0.0273438-0.0625,0.0625-0.0625h0.359375c0.0332031,0,0.0625,0.027832,0.0625,0.0625
			S43.1191406,32.9746094,43.0859375,32.9746094z M41.5292969,32.9746094h-0.359375c-0.0351563,0-0.0625-0.027832-0.0625-0.0625
			s0.0273438-0.0625,0.0625-0.0625h0.359375c0.0332031,0,0.0625,0.027832,0.0625,0.0625S41.5625,32.9746094,41.5292969,32.9746094z
			 M39.9707031,32.9746094h-0.359375c-0.0332031,0-0.0625-0.027832-0.0625-0.0625s0.0292969-0.0625,0.0625-0.0625h0.359375
			c0.0351563,0,0.0625,0.027832,0.0625,0.0625S40.0058594,32.9746094,39.9707031,32.9746094z M48.9550781,32.9536133
			c-0.03125,0-0.0566406-0.0214844-0.0625-0.0517578c-0.0058594-0.0341797,0.0175781-0.0664063,0.0507813-0.0722656
			c0.1132813-0.0195313,0.2226563-0.0541992,0.3261719-0.1025391c0.0332031-0.0141602,0.0683594-0.0014648,0.0839844,0.0302734
			c0.0136719,0.03125,0,0.0688477-0.03125,0.0830078c-0.1132813,0.0532227-0.234375,0.0908203-0.3574219,0.1123047
			C48.9609375,32.9536133,48.9589844,32.9536133,48.9550781,32.9536133z M38.4160156,32.9467773
			c-0.0039063,0-0.0078125-0.0004883-0.0136719-0.0009766c-0.1210938-0.0244141-0.2402344-0.0654297-0.3535156-0.121582
			c-0.03125-0.015625-0.0429688-0.0527344-0.0273438-0.0839844c0.0136719-0.03125,0.0527344-0.0449219,0.0820313-0.0283203
			c0.1054688,0.0512695,0.2128906,0.0888672,0.3242188,0.1108398c0.0332031,0.0068359,0.0566406,0.0400391,0.0488281,0.0737305
			C38.4707031,32.9262695,38.4453125,32.9467773,38.4160156,32.9467773z M50.0566406,31.9663086
			c-0.0058594,0-0.0117188-0.0004883-0.0175781-0.0024414c-0.0332031-0.0097656-0.0527344-0.0444336-0.0429688-0.0776367
			c0.0332031-0.1108398,0.0507813-0.2241211,0.0527344-0.3378906c0.0019531-0.0341797,0.0292969-0.0610352,0.0625-0.0610352
			h0.0019531c0.0351563,0.0009766,0.0625,0.0292969,0.0605469,0.0639648
			c-0.0019531,0.1245117-0.0214844,0.2490234-0.0585938,0.3701172
			C50.1074219,31.9487305,50.0839844,31.9663086,50.0566406,31.9663086z M37.3398438,31.9316406
			c-0.0273438,0-0.0527344-0.0185547-0.0605469-0.0463867c-0.03125-0.1196289-0.046875-0.2446289-0.046875-0.371582v-0.0161133
			c0-0.034668,0.0273438-0.0625,0.0625-0.0625c0.0332031,0,0.0625,0.027832,0.0625,0.0625v0.0161133
			c0,0.1162109,0.0136719,0.2299805,0.0429688,0.3393555c0.0097656,0.0332031-0.0097656,0.0678711-0.0449219,0.0766602
			C37.3515625,31.9311523,37.3457031,31.9316406,37.3398438,31.9316406z M50.1113281,30.4145508
			c-0.0332031,0-0.0625-0.027832-0.0625-0.0625v-0.359375c0-0.034668,0.0292969-0.0625,0.0625-0.0625
			c0.0351563,0,0.0625,0.027832,0.0625,0.0625v0.359375C50.1738281,30.3867188,50.1464844,30.4145508,50.1113281,30.4145508z
			 M37.2949219,30.3618164c-0.0351563,0-0.0625-0.027832-0.0625-0.0625v-0.359375c0-0.034668,0.0273438-0.0625,0.0625-0.0625
			c0.0332031,0,0.0625,0.027832,0.0625,0.0625v0.359375C37.3574219,30.3339844,37.328125,30.3618164,37.2949219,30.3618164z
			 M50.1113281,28.8569336c-0.0332031,0-0.0625-0.027832-0.0625-0.0625v-0.359375c0-0.034668,0.0292969-0.0625,0.0625-0.0625
			c0.0351563,0,0.0625,0.027832,0.0625,0.0625v0.359375C50.1738281,28.8291016,50.1464844,28.8569336,50.1113281,28.8569336z
			 M37.2949219,28.8041992c-0.0351563,0-0.0625-0.027832-0.0625-0.0625v-0.359375c0-0.034668,0.0273438-0.0625,0.0625-0.0625
			c0.0332031,0,0.0625,0.027832,0.0625,0.0625v0.359375C37.3574219,28.7763672,37.328125,28.8041992,37.2949219,28.8041992z
			 M50.1113281,27.2993164c-0.0332031,0-0.0625-0.027832-0.0625-0.0625v-0.359375c0-0.034668,0.0292969-0.0625,0.0625-0.0625
			c0.0351563,0,0.0625,0.027832,0.0625,0.0625v0.359375C50.1738281,27.2714844,50.1464844,27.2993164,50.1113281,27.2993164z
			 M37.2949219,27.2470703c-0.0351563,0-0.0625-0.027832-0.0625-0.0625v-0.359375c0-0.034668,0.0273438-0.0625,0.0625-0.0625
			c0.0332031,0,0.0625,0.027832,0.0625,0.0625v0.359375C37.3574219,27.2192383,37.328125,27.2470703,37.2949219,27.2470703z
			 M50.1113281,25.7421875c-0.0332031,0-0.0625-0.027832-0.0625-0.0625v-0.359375c0-0.034668,0.0292969-0.0625,0.0625-0.0625
			c0.0351563,0,0.0625,0.027832,0.0625,0.0625v0.359375C50.1738281,25.7143555,50.1464844,25.7421875,50.1113281,25.7421875z
			 M37.2949219,25.6894531c-0.0351563,0-0.0625-0.027832-0.0625-0.0625v-0.359375c0-0.034668,0.0273438-0.0625,0.0625-0.0625
			c0.0332031,0,0.0625,0.027832,0.0625,0.0625v0.359375C37.3574219,25.6616211,37.328125,25.6894531,37.2949219,25.6894531z
			 M50.1113281,24.1845703c-0.0332031,0-0.0625-0.027832-0.0625-0.0625v-0.359375c0-0.034668,0.0292969-0.0625,0.0625-0.0625
			c0.0351563,0,0.0625,0.027832,0.0625,0.0625v0.359375C50.1738281,24.1567383,50.1464844,24.1845703,50.1113281,24.1845703z
			 M37.2949219,24.1318359c-0.0351563,0-0.0625-0.027832-0.0625-0.0625v-0.359375c0-0.034668,0.0273438-0.0625,0.0625-0.0625
			c0.0332031,0,0.0625,0.027832,0.0625,0.0625v0.359375C37.3574219,24.1040039,37.328125,24.1318359,37.2949219,24.1318359z
			 M50.1113281,22.6269531c-0.0332031,0-0.0625-0.027832-0.0625-0.0625v-0.359375c0-0.034668,0.0292969-0.0625,0.0625-0.0625
			c0.0351563,0,0.0625,0.027832,0.0625,0.0625v0.359375C50.1738281,22.5991211,50.1464844,22.6269531,50.1113281,22.6269531z
			 M37.2949219,22.574707c-0.0351563,0-0.0625-0.027832-0.0625-0.0625v-0.359375c0-0.034668,0.0273438-0.0625,0.0625-0.0625
			c0.0332031,0,0.0625,0.027832,0.0625,0.0625v0.359375C37.3574219,22.546875,37.328125,22.574707,37.2949219,22.574707z
			 M50.1113281,21.0698242c-0.0332031,0-0.0625-0.027832-0.0625-0.0625v-0.359375c0-0.034668,0.0292969-0.0625,0.0625-0.0625
			c0.0351563,0,0.0625,0.027832,0.0625,0.0625v0.359375C50.1738281,21.0419922,50.1464844,21.0698242,50.1113281,21.0698242z
			 M37.2949219,21.0170898c-0.0351563,0-0.0625-0.027832-0.0625-0.0625v-0.359375c0-0.034668,0.0273438-0.0625,0.0625-0.0625
			c0.0332031,0,0.0625,0.027832,0.0625,0.0625v0.359375C37.3574219,20.9892578,37.328125,21.0170898,37.2949219,21.0170898z
			 M50.1113281,19.512207c-0.0332031,0-0.0625-0.027832-0.0625-0.0625v-0.359375c0-0.034668,0.0292969-0.0625,0.0625-0.0625
			c0.0351563,0,0.0625,0.027832,0.0625,0.0625v0.359375C50.1738281,19.484375,50.1464844,19.512207,50.1113281,19.512207z
			 M37.2949219,19.4594727c-0.0351563,0-0.0625-0.027832-0.0625-0.0625v-0.359375c0-0.034668,0.0273438-0.0625,0.0625-0.0625
			c0.0332031,0,0.0625,0.027832,0.0625,0.0625v0.359375C37.3574219,19.4316406,37.328125,19.4594727,37.2949219,19.4594727z
			 M50.1113281,17.9545898c-0.0332031,0-0.0625-0.027832-0.0625-0.0625v-0.359375c0-0.034668,0.0292969-0.0625,0.0625-0.0625
			c0.0351563,0,0.0625,0.027832,0.0625,0.0625v0.359375C50.1738281,17.9267578,50.1464844,17.9545898,50.1113281,17.9545898z
			 M37.2949219,17.9023438c-0.0351563,0-0.0625-0.027832-0.0625-0.0625v-0.3598633c0-0.034668,0.0273438-0.0625,0.0625-0.0625
			c0.0332031,0,0.0625,0.027832,0.0625,0.0625v0.3598633C37.3574219,17.8745117,37.328125,17.9023438,37.2949219,17.9023438z
			 M50.1113281,16.3935547c-0.0332031,0-0.0625-0.0239258-0.0625-0.0585938v-0.0083008
			c0-0.1103516-0.0136719-0.222168-0.0410156-0.3325195c-0.0097656-0.0332031,0.0117188-0.0673828,0.0449219-0.0756836
			c0.0390625-0.0107422,0.0683594,0.0117188,0.0761719,0.0454102c0.0292969,0.1201172,0.0449219,0.2421875,0.0449219,0.362793
			C50.1738281,16.3613281,50.1464844,16.3935547,50.1113281,16.3935547z M37.2949219,16.3447266
			c-0.0019531,0-0.0019531,0-0.0019531,0c-0.0351563-0.0009766-0.0625-0.0297852-0.0605469-0.0644531
			c0.0039063-0.1269531,0.0234375-0.2509766,0.0605469-0.3696289c0.0078125-0.0332031,0.0371094-0.0498047,0.078125-0.0419922
			c0.03125,0.0102539,0.0507813,0.0449219,0.0410156,0.078125c-0.0332031,0.1083984-0.0507813,0.2216797-0.0546875,0.3374023
			C37.3554688,16.3178711,37.328125,16.3447266,37.2949219,16.3447266z M49.3378906,15.1381836
			c-0.0097656,0-0.0195313-0.0019531-0.0292969-0.0068359c-0.1015625-0.0512695-0.2089844-0.0893555-0.3222656-0.112793
			c-0.0332031-0.0068359-0.0546875-0.0400391-0.0488281-0.0737305c0.0078125-0.0336914,0.0429688-0.0576172,0.0742188-0.0483398
			c0.1230469,0.0253906,0.2421875,0.0668945,0.3535156,0.1235352c0.03125,0.0151367,0.0429688,0.0532227,0.0273438,0.0839844
			C49.3828125,15.1254883,49.359375,15.1381836,49.3378906,15.1381836z M38.1171875,15.1157227
			c-0.0234375,0-0.046875-0.0136719-0.0566406-0.0366211c-0.015625-0.03125-0.0019531-0.0683594,0.0292969-0.0825195
			c0.1132813-0.0522461,0.234375-0.0893555,0.359375-0.1103516c0.0039063-0.0009766,0.0078125-0.0009766,0.0097656-0.0009766
			c0.03125,0,0.0566406,0.0214844,0.0625,0.0517578c0.0058594,0.0341797-0.0175781,0.0664063-0.0507813,0.0722656
			c-0.1152344,0.0195313-0.2246094,0.0537109-0.328125,0.1005859C38.1347656,15.1137695,38.125,15.1157227,38.1171875,15.1157227z
			 M47.8027344,14.9907227h-0.359375c-0.0332031,0-0.0625-0.027832-0.0625-0.0625s0.0292969-0.0625,0.0625-0.0625h0.359375
			c0.0351563,0,0.0625,0.027832,0.0625,0.0625S47.8378906,14.9907227,47.8027344,14.9907227z M46.2460938,14.9907227h-0.359375
			c-0.0351563,0-0.0625-0.027832-0.0625-0.0625s0.0273438-0.0625,0.0625-0.0625h0.359375c0.0332031,0,0.0625,0.027832,0.0625,0.0625
			S46.2792969,14.9907227,46.2460938,14.9907227z M44.6875,14.9907227h-0.359375c-0.0332031,0-0.0625-0.027832-0.0625-0.0625
			s0.0292969-0.0625,0.0625-0.0625H44.6875c0.0351563,0,0.0625,0.027832,0.0625,0.0625S44.7226563,14.9907227,44.6875,14.9907227z
			 M43.1308594,14.9907227h-0.359375c-0.0351563,0-0.0625-0.027832-0.0625-0.0625s0.0273438-0.0625,0.0625-0.0625h0.359375
			c0.0332031,0,0.0625,0.027832,0.0625,0.0625S43.1640625,14.9907227,43.1308594,14.9907227z M41.5722656,14.9907227h-0.359375
			c-0.0332031,0-0.0625-0.027832-0.0625-0.0625s0.0292969-0.0625,0.0625-0.0625h0.359375c0.0351563,0,0.0625,0.027832,0.0625,0.0625
			S41.6074219,14.9907227,41.5722656,14.9907227z M40.015625,14.9907227H39.65625c-0.0351563,0-0.0625-0.027832-0.0625-0.0625
			s0.0273438-0.0625,0.0625-0.0625h0.359375c0.0332031,0,0.0625,0.027832,0.0625,0.0625S40.0488281,14.9907227,40.015625,14.9907227
			z"/>
	</g>
	<g>
		<path style="fill:#020000;" d="M20.1982422,41.2695313l-0.6259766-0.0058594c0-1.5371094-0.3344727-2.1914063-0.6147461-2.46875
			c-0.2016602-0.2001953-0.3793945-0.2041016-0.3916016-0.2041016l0,0l-0.0366211-0.625
			c0.046875,0.0019531,0.4355469-0.0195313,0.831543,0.3486328c0.2802734,0.2607422,0.4912109,0.6425781,0.6308594,1.1416016
			c0.4101563-0.8691406,1.1665039-1.6298828,2.4648438-1.6298828v0.625
			C20.2836914,38.4511719,20.2006836,41.1552734,20.1982422,41.2695313z"/>
		<path style="fill:#020000;" d="M14.8085938,54.3457031c-0.0146484-0.0644531-0.3432617-1.5849609,0.4384766-2.5615234
			c0.4106445-0.5117188,1.0351563-0.7714844,1.8569336-0.7714844c2.3583984,0,2.4682617-0.9638672,2.4682617-2.8105469v-6.9384766
			h0.6259766v6.9384766c0,2.0117188-0.222168,3.4355469-3.0942383,3.4355469c-0.6220703,0-1.0825195,0.1816406-1.3686523,0.5380859
			c-0.5957031,0.7441406-0.3188477,2.0205078-0.3164063,2.0332031L14.8085938,54.3457031z"/>
	</g>
	<g>
		<g>
			
				<linearGradient id="SVGID_11_" gradientUnits="userSpaceOnUse" x1="31.8535156" y1="40.6064453" x2="31.8535137" y2="13.6057358">
				<stop  offset="0" style="stop-color:#FFFFFF"/>
				<stop  offset="1" style="stop-color:#000000"/>
			</linearGradient>
			<path style="fill:url(#SVGID_11_);" d="M35.4003906,41.3251953c0,0.6884766-0.5634766,1.2519531-1.2519531,1.2519531h-4.5908203
				c-0.6884766,0-1.2514648-0.5634766-1.2514648-1.2519531V15.4902344c0-0.6884766,0.5629883-1.2514648,1.2514648-1.2514648
				h4.5908203c0.6884766,0,1.2519531,0.5629883,1.2519531,1.2514648V41.3251953z"/>
		</g>
		<path d="M34.1484375,42.8896484h-4.5908203c-0.862793,0-1.5644531-0.7011719-1.5644531-1.5644531V15.4902344
			c0-0.862793,0.7016602-1.5644531,1.5644531-1.5644531h4.5908203c0.8632813,0,1.5644531,0.7016602,1.5644531,1.5644531v25.8349609
			C35.7128906,42.1884766,35.0117188,42.8896484,34.1484375,42.8896484z M29.5576172,14.5517578
			c-0.5175781,0-0.9384766,0.4208984-0.9384766,0.9384766v25.8349609c0,0.5175781,0.4208984,0.9394531,0.9384766,0.9394531
			h4.5908203c0.5175781,0,0.9394531-0.421875,0.9394531-0.9394531V15.4902344c0-0.5175781-0.421875-0.9384766-0.9394531-0.9384766
			H29.5576172z"/>
	</g>
	<path style="fill:#595757;" d="M34.1484375,42.8896484h-4.5908203c-0.862793,0-1.5644531-0.7011719-1.5644531-1.5644531V15.4902344
		c0-0.862793,0.7016602-1.5644531,1.5644531-1.5644531h4.5908203c0.8632813,0,1.5644531,0.7016602,1.5644531,1.5644531v25.8349609
		C35.7128906,42.1884766,35.0117188,42.8896484,34.1484375,42.8896484z M29.5576172,14.5517578
		c-0.5175781,0-0.9384766,0.4208984-0.9384766,0.9384766v25.8349609c0,0.5175781,0.4208984,0.9394531,0.9384766,0.9394531h4.5908203
		c0.5175781,0,0.9394531-0.421875,0.9394531-0.9394531V15.4902344c0-0.5175781-0.421875-0.9384766-0.9394531-0.9384766H29.5576172z"
		/>
	<path d="M49.3691406,54.9033203H14.3374023c-1.7250977,0-3.1289063-1.4042969-3.1289063-3.1298828V11.09375
		c0-1.7250977,1.4038086-3.1289063,3.1289063-3.1289063h9.5791016V5.0605469c0-1.0351563,0.8422852-1.8779297,1.8769531-1.8779297
		h12.1186523c1.0351563,0,1.8789063,0.8427734,1.8789063,1.8779297v2.9042969h9.578125
		c1.7246094,0,3.1289063,1.4038086,3.1289063,3.1289063v40.6796875
		C52.4980469,53.4990234,51.09375,54.9033203,49.3691406,54.9033203z M14.3374023,9.2167969
		c-1.0351563,0-1.8769531,0.8417969-1.8769531,1.8769531v40.6796875c0,1.0351563,0.8417969,1.8779297,1.8769531,1.8779297
		h35.0317383c1.0351563,0,1.8769531-0.8427734,1.8769531-1.8779297V11.09375c0-1.0351563-0.8417969-1.8769531-1.8769531-1.8769531
		H38.5390625v-4.15625c0-0.3452148-0.28125-0.6259766-0.6269531-0.6259766H25.793457c-0.3447266,0-0.625,0.2807617-0.625,0.6259766
		v4.15625H14.3374023z"/>
	<g>
		<g>
			<g>
				<g>
					<g>
						
							<linearGradient id="SVGID_12_" gradientUnits="userSpaceOnUse" x1="15.4648438" y1="44.7617188" x2="15.4648428" y2="57.8743973">
							<stop  offset="0" style="stop-color:#FFFFFF"/>
							<stop  offset="1" style="stop-color:#000000"/>
						</linearGradient>
						<path style="fill:url(#SVGID_12_);" d="M13.2456055,48.8876953c0,0.7158203,0.5859375,1.3017578,1.3017578,1.3017578
							h1.8349609c0.7158203,0,1.3017578-0.5859375,1.3017578-1.3017578v-6.6748047
							c0-0.7158203-0.5859375-1.3017578-1.3017578-1.3017578h-1.8349609c-0.7158203,0-1.3017578,0.5859375-1.3017578,1.3017578
							V48.8876953z"/>
					</g>
					<path style="fill:#231815;" d="M16.3823242,50.5146484h-1.8349609c-0.8974609,0-1.6274414-0.7294922-1.6274414-1.6269531
						v-6.6748047c0-0.8974609,0.7299805-1.6269531,1.6274414-1.6269531h1.8349609
						c0.8974609,0,1.6274414,0.7294922,1.6274414,1.6269531v6.6748047
						C18.0097656,49.7851563,17.2797852,50.5146484,16.3823242,50.5146484z M14.5473633,41.2363281
						c-0.5380859,0-0.9760742,0.4384766-0.9760742,0.9765625v6.6748047c0,0.5380859,0.4379883,0.9765625,0.9760742,0.9765625
						h1.8349609c0.5380859,0,0.9760742-0.4384766,0.9760742-0.9765625v-6.6748047
						c0-0.5380859-0.4379883-0.9765625-0.9760742-0.9765625H14.5473633z"/>
				</g>
				<g>
					<radialGradient id="SVGID_13_" cx="15.4648438" cy="43.5585938" r="1.6394043" gradientUnits="userSpaceOnUse">
						<stop  offset="0" style="stop-color:#FF3F3F"/>
						<stop  offset="1" style="stop-color:#FF0000"/>
					</radialGradient>
					<circle style="fill:url(#SVGID_13_);" cx="15.4648438" cy="43.5585938" r="1.6391602"/>
					<path style="fill:#231815;" d="M15.4643555,45.5068359c-1.0737305,0-1.9467773-0.8740234-1.9467773-1.9482422
						s0.8730469-1.9482422,1.9467773-1.9482422c1.0742188,0,1.9477539,0.8740234,1.9477539,1.9482422
						S16.5385742,45.5068359,15.4643555,45.5068359z M15.4643555,42.2275391c-0.7333984,0-1.3305664,0.5966797-1.3305664,1.3310547
						s0.597168,1.3310547,1.3305664,1.3310547c0.7338867,0,1.331543-0.5966797,1.331543-1.3310547
						S16.1982422,42.2275391,15.4643555,42.2275391z"/>
				</g>
				<g>
					<radialGradient id="SVGID_14_" cx="15.4648438" cy="47.6689453" r="1.6394043" gradientUnits="userSpaceOnUse">
						<stop  offset="0" style="stop-color:#FFFFFF"/>
						<stop  offset="1" style="stop-color:#1F1A00"/>
					</radialGradient>
					<circle style="fill:url(#SVGID_14_);" cx="15.4648438" cy="47.6689453" r="1.6391602"/>
					<path style="fill:#231815;" d="M15.4643555,49.6171875c-1.0737305,0-1.9467773-0.8740234-1.9467773-1.9482422
						s0.8730469-1.9482422,1.9467773-1.9482422c1.0742188,0,1.9477539,0.8740234,1.9477539,1.9482422
						S16.5385742,49.6171875,15.4643555,49.6171875z M15.4643555,46.3378906c-0.7333984,0-1.3305664,0.5966797-1.3305664,1.3310547
						S14.730957,49,15.4643555,49c0.7338867,0,1.331543-0.5966797,1.331543-1.3310547S16.1982422,46.3378906,15.4643555,46.3378906z
						"/>
				</g>
			</g>
			<g>
				<g>
					<g>
						
							<linearGradient id="SVGID_15_" gradientUnits="userSpaceOnUse" x1="48.2421875" y1="44.7617188" x2="48.2421875" y2="57.8743973">
							<stop  offset="0" style="stop-color:#FFFFFF"/>
							<stop  offset="1" style="stop-color:#000000"/>
						</linearGradient>
						<path style="fill:url(#SVGID_15_);" d="M46.0234375,48.8876953c0,0.7158203,0.5859375,1.3017578,1.3017578,1.3017578
							h1.8339844c0.7158203,0,1.3017578-0.5859375,1.3017578-1.3017578v-6.6748047
							c0-0.7158203-0.5859375-1.3017578-1.3017578-1.3017578h-1.8339844c-0.7158203,0-1.3017578,0.5859375-1.3017578,1.3017578
							V48.8876953z"/>
					</g>
					<path style="fill:#231815;" d="M49.1582031,50.5146484h-1.8339844c-0.8964844,0-1.6269531-0.7294922-1.6269531-1.6269531
						v-6.6748047c0-0.8974609,0.7304688-1.6269531,1.6269531-1.6269531h1.8339844
						c0.8984375,0,1.6269531,0.7294922,1.6269531,1.6269531v6.6748047
						C50.7851563,49.7851563,50.0566406,50.5146484,49.1582031,50.5146484z M47.3242188,41.2363281
						c-0.5371094,0-0.9765625,0.4384766-0.9765625,0.9765625v6.6748047c0,0.5380859,0.4394531,0.9765625,0.9765625,0.9765625
						h1.8339844c0.5390625,0,0.9765625-0.4384766,0.9765625-0.9765625v-6.6748047c0-0.5380859-0.4375-0.9765625-0.9765625-0.9765625
						H47.3242188z"/>
				</g>
				<g>
					<radialGradient id="SVGID_16_" cx="48.2412109" cy="43.5585938" r="1.6396484" gradientUnits="userSpaceOnUse">
						<stop  offset="0" style="stop-color:#FF3F3F"/>
						<stop  offset="1" style="stop-color:#FF0000"/>
					</radialGradient>
					<circle style="fill:url(#SVGID_16_);" cx="48.2412109" cy="43.5585938" r="1.6396484"/>
					<path style="fill:#231815;" d="M48.2421875,45.5068359c-1.0742188,0-1.9492188-0.8740234-1.9492188-1.9482422
						s0.875-1.9482422,1.9492188-1.9482422s1.9472656,0.8740234,1.9472656,1.9482422S49.3164063,45.5068359,48.2421875,45.5068359z
						 M48.2421875,42.2275391c-0.734375,0-1.3320313,0.5966797-1.3320313,1.3310547s0.5976563,1.3310547,1.3320313,1.3310547
						s1.3300781-0.5966797,1.3300781-1.3310547S48.9765625,42.2275391,48.2421875,42.2275391z"/>
				</g>
				<g>
					<radialGradient id="SVGID_17_" cx="48.2412109" cy="47.6689453" r="1.6396484" gradientUnits="userSpaceOnUse">
						<stop  offset="0" style="stop-color:#FFFFFF"/>
						<stop  offset="1" style="stop-color:#1F1A00"/>
					</radialGradient>
					<circle style="fill:url(#SVGID_17_);" cx="48.2412109" cy="47.6689453" r="1.6396484"/>
					<path style="fill:#231815;" d="M48.2421875,49.6171875c-1.0742188,0-1.9492188-0.8740234-1.9492188-1.9482422
						s0.875-1.9482422,1.9492188-1.9482422s1.9472656,0.8740234,1.9472656,1.9482422S49.3164063,49.6171875,48.2421875,49.6171875z
						 M48.2421875,46.3378906c-0.734375,0-1.3320313,0.5966797-1.3320313,1.3310547S47.5078125,49,48.2421875,49
						s1.3300781-0.5966797,1.3300781-1.3310547S48.9765625,46.3378906,48.2421875,46.3378906z"/>
				</g>
			</g>
		</g>
		<polygon style="fill:#FFFFFF;" points="14.7612305,46.7792969 15.4643555,46.5058594 15.4643555,47.6699219 		"/>
		<polygon style="fill:#FFFFFF;" points="15.4643555,48.5390625 15.4643555,47.6699219 15.855957,48.7353516 		"/>
		<polygon style="fill:#FFFFFF;" points="16.4038086,47.3271484 15.4643555,47.6699219 16.4038086,47.875 		"/>
		<polygon style="fill:#FFFFFF;" points="47.3808594,46.9355469 48.2421875,46.5839844 48.2421875,47.6699219 		"/>
		<polygon style="fill:#FFFFFF;" points="47.3808594,48.1494141 48.2421875,47.6699219 47.6152344,48.5009766 		"/>
		<polygon style="fill:#FFFFFF;" points="49.3359375,47.875 48.2421875,47.6699219 48.9453125,48.5009766 		"/>
	</g>
	<g>
		<g>
			
				<linearGradient id="SVGID_18_" gradientUnits="userSpaceOnUse" x1="23.7216797" y1="39.4345703" x2="23.7216797" y2="34.6182404">
				<stop  offset="0" style="stop-color:#FFFFFF"/>
				<stop  offset="1" style="stop-color:#000000"/>
			</linearGradient>
			<rect x="21.1499023" y="34.3242188" style="fill:url(#SVGID_18_);" width="5.1435547" height="5.1435547"/>
			<path d="M26.293457,39.7802734h-5.1435547c-0.1728516,0-0.3129883-0.1396484-0.3129883-0.3125v-5.1435547
				c0-0.1728516,0.1401367-0.3125,0.3129883-0.3125h5.1435547c0.1728516,0,0.3129883,0.1396484,0.3129883,0.3125v5.1435547
				C26.6064453,39.640625,26.4663086,39.7802734,26.293457,39.7802734z M21.4628906,39.1552734h4.5175781v-4.5185547h-4.5175781
				V39.1552734z"/>
		</g>
		<g>
			<rect x="22.2749023" y="36.2841797" style="fill:#3E3A39;" width="2.8945313" height="1.2246094"/>
			<path style="fill:#3E3A39;" d="M25.2944336,37.6337891h-3.1445313v-1.4746094h3.1445313V37.6337891z M22.3999023,37.3837891
				h2.6445313v-0.9746094h-2.6445313V37.3837891z"/>
		</g>
		
			<rect x="20.9287491" y="35.3721619" transform="matrix(0.4307393 0.9024764 -0.9024764 0.4307393 44.4288254 0.4349632)" style="fill:#3E3A39;" width="1.8817579" height="0.125791"/>
		
			<rect x="25.5229931" y="34.489502" transform="matrix(0.8990688 0.4378074 -0.4378074 0.8990688 18.0961018 -7.6249962)" style="fill:#3E3A39;" width="0.1249122" height="1.8911115"/>
		
			<rect x="24.6192322" y="38.3179626" transform="matrix(0.4305612 0.9025614 -0.9025614 0.4305612 49.2104263 -1.2368851)" style="fill:#3E3A39;" width="1.9324343" height="0.125791"/>
		
			<rect x="21.8071575" y="37.4084816" transform="matrix(0.8832169 0.4689647 -0.4689647 0.8832169 20.5047264 -5.7859383)" style="fill:#3E3A39;" width="0.1249428" height="1.737726"/>
		<path d="M26.293457,39.7802734h-5.1435547c-0.1728516,0-0.3129883-0.1396484-0.3129883-0.3125v-5.1435547
			c0-0.1728516,0.1401367-0.3125,0.3129883-0.3125h5.1435547c0.1728516,0,0.3129883,0.1396484,0.3129883,0.3125v5.1435547
			C26.6064453,39.640625,26.4663086,39.7802734,26.293457,39.7802734z M21.4628906,39.1552734h4.5175781v-4.5185547h-4.5175781
			V39.1552734z"/>
	</g>
	<g>
		<g>
			
				<linearGradient id="SVGID_19_" gradientUnits="userSpaceOnUse" x1="49.0673828" y1="39.4345703" x2="49.0673828" y2="34.6182404">
				<stop  offset="0" style="stop-color:#FFFFFF"/>
				<stop  offset="1" style="stop-color:#000000"/>
			</linearGradient>
			<rect x="46.4960938" y="34.3242188" style="fill:url(#SVGID_19_);" width="5.1425781" height="5.1435547"/>
			<path d="M51.6386719,39.7802734h-5.1425781c-0.1738281,0-0.3125-0.1396484-0.3125-0.3125v-5.1435547
				c0-0.1728516,0.1386719-0.3125,0.3125-0.3125h5.1425781c0.1738281,0,0.3125,0.1396484,0.3125,0.3125v5.1435547
				C51.9511719,39.640625,51.8125,39.7802734,51.6386719,39.7802734z M46.8085938,39.1552734h4.5175781v-4.5185547h-4.5175781
				V39.1552734z"/>
		</g>
		<g>
			<rect x="47.6191406" y="36.2841797" style="fill:#3E3A39;" width="2.8964844" height="1.2246094"/>
			<path style="fill:#3E3A39;" d="M50.640625,37.6337891h-3.1464844v-1.4746094h3.1464844V37.6337891z M47.7441406,37.3837891
				h2.6464844v-0.9746094h-2.6464844V37.3837891z"/>
		</g>
		
			<rect x="46.2743835" y="35.3721619" transform="matrix(0.4298932 0.9028797 -0.9028797 0.4298932 58.9110985 -22.4275589)" style="fill:#3E3A39;" width="1.8809174" height="0.125791"/>
		
			<rect x="50.8687439" y="34.489502" transform="matrix(0.9005516 0.4347491 -0.4347491 0.9005516 20.4704285 -18.6185226)" style="fill:#3E3A39;" width="0.125791" height="1.8911115"/>
		
			<rect x="49.9654236" y="38.3179626" transform="matrix(0.4305612 0.9025614 -0.9025614 0.4305612 63.6435318 -24.1133804)" style="fill:#3E3A39;" width="1.9324343" height="0.125791"/>
		
			<rect x="47.1519394" y="37.4084816" transform="matrix(0.8849182 0.4657464 -0.4657464 0.8849182 23.2611046 -17.5851212)" style="fill:#3E3A39;" width="0.1258061" height="1.737726"/>
		<path d="M51.6386719,39.7802734h-5.1425781c-0.1738281,0-0.3125-0.1396484-0.3125-0.3125v-5.1435547
			c0-0.1728516,0.1386719-0.3125,0.3125-0.3125h5.1425781c0.1738281,0,0.3125,0.1396484,0.3125,0.3125v5.1435547
			C51.9511719,39.640625,51.8125,39.7802734,51.6386719,39.7802734z M46.8085938,39.1552734h4.5175781v-4.5185547h-4.5175781
			V39.1552734z"/>
	</g>
	<g>
		<g>
			
				<linearGradient id="SVGID_20_" gradientUnits="userSpaceOnUse" x1="44.7851563" y1="14.8950195" x2="44.7851563" y2="10.0786877">
				<stop  offset="0" style="stop-color:#FFFFFF"/>
				<stop  offset="1" style="stop-color:#000000"/>
			</linearGradient>
			<rect x="42.2128906" y="9.784668" style="fill:url(#SVGID_20_);" width="5.1445313" height="5.1435547"/>
			<path d="M47.3574219,15.2412109h-5.1445313c-0.171875,0-0.3125-0.1401367-0.3125-0.3129883V9.784668
				c0-0.1728516,0.140625-0.3129883,0.3125-0.3129883h5.1445313c0.1738281,0,0.3125,0.1401367,0.3125,0.3129883v5.1435547
				C47.6699219,15.1010742,47.53125,15.2412109,47.3574219,15.2412109z M42.5253906,14.6152344h4.5195313v-4.5175781h-4.5195313
				V14.6152344z"/>
		</g>
		<g>
			<rect x="43.3378906" y="11.7436523" style="fill:#3E3A39;" width="2.8945313" height="1.2250977"/>
			<path style="fill:#3E3A39;" d="M46.3574219,13.09375h-3.1445313v-1.4750977h3.1445313V13.09375z M43.4628906,12.84375h2.6445313
				v-0.9750977h-2.6445313V12.84375z"/>
		</g>
		
			<rect x="41.9919586" y="10.8320904" transform="matrix(0.43084 0.9024283 -0.9024283 0.43084 34.2672806 -32.5427399)" style="fill:#3E3A39;" width="1.8813173" height="0.1253695"/>
		
			<rect x="46.5865173" y="9.9490089" transform="matrix(0.9005516 0.4347491 -0.4347491 0.9005516 9.3757019 -19.1973209)" style="fill:#3E3A39;" width="0.125791" height="1.8915333"/>
		
			<rect x="45.6829948" y="13.7778912" transform="matrix(0.4314823 0.9021214 -0.9021214 0.4314823 39.006897 -34.2148247)" style="fill:#3E3A39;" width="1.9328356" height="0.1253695"/>
		
			<rect x="42.8706894" y="12.8683853" transform="matrix(0.8849182 0.4657464 -0.4657464 0.8849182 11.338747 -18.4153099)" style="fill:#3E3A39;" width="0.1258061" height="1.7368622"/>
		<path d="M47.3574219,15.2412109h-5.1445313c-0.171875,0-0.3125-0.1401367-0.3125-0.3129883V9.784668
			c0-0.1728516,0.140625-0.3129883,0.3125-0.3129883h5.1445313c0.1738281,0,0.3125,0.1401367,0.3125,0.3129883v5.1435547
			C47.6699219,15.1010742,47.53125,15.2412109,47.3574219,15.2412109z M42.5253906,14.6152344h4.5195313v-4.5175781h-4.5195313
			V14.6152344z"/>
	</g>
	<g>
		<g>
			
				<linearGradient id="SVGID_21_" gradientUnits="userSpaceOnUse" x1="23.7216797" y1="47.0292969" x2="23.7216797" y2="42.2129669">
				<stop  offset="0" style="stop-color:#FFFFFF"/>
				<stop  offset="1" style="stop-color:#000000"/>
			</linearGradient>
			<rect x="21.1499023" y="41.9189453" style="fill:url(#SVGID_21_);" width="5.1435547" height="5.1435547"/>
			<path d="M26.293457,47.375h-5.1435547c-0.1728516,0-0.3129883-0.1396484-0.3129883-0.3125v-5.1435547
				c0-0.1728516,0.1401367-0.3125,0.3129883-0.3125h5.1435547c0.1728516,0,0.3129883,0.1396484,0.3129883,0.3125V47.0625
				C26.6064453,47.2353516,26.4663086,47.375,26.293457,47.375z M21.4628906,46.75h4.5175781v-4.5185547h-4.5175781V46.75z"/>
		</g>
		<g>
			<rect x="22.2749023" y="43.8779297" style="fill:#3E3A39;" width="2.8945313" height="1.2255859"/>
			<path style="fill:#3E3A39;" d="M25.2944336,45.2285156h-3.1445313v-1.4755859h3.1445313V45.2285156z M22.3999023,44.9785156
				h2.6445313v-0.9755859h-2.6445313V44.9785156z"/>
		</g>
		
			<rect x="20.9287491" y="42.9659119" transform="matrix(0.4307393 0.9024764 -0.9024764 0.4307393 51.2820053 4.7577858)" style="fill:#3E3A39;" width="1.8817579" height="0.125791"/>
		
			<rect x="25.5229931" y="42.083252" transform="matrix(0.8990688 0.4378074 -0.4378074 0.8990688 21.420702 -6.8585472)" style="fill:#3E3A39;" width="0.1249122" height="1.8911115"/>
		
			<rect x="24.6196728" y="45.9122009" transform="matrix(0.4307576 0.9024677 -0.9024677 0.4307576 56.0553589 3.0809326)" style="fill:#3E3A39;" width="1.931553" height="0.125791"/>
		
			<rect x="21.8071575" y="45.0031509" transform="matrix(0.8832169 0.4689647 -0.4689647 0.8832169 24.0661564 -4.8990593)" style="fill:#3E3A39;" width="0.1249428" height="1.7368622"/>
		<path d="M26.293457,47.375h-5.1435547c-0.1728516,0-0.3129883-0.1396484-0.3129883-0.3125v-5.1435547
			c0-0.1728516,0.1401367-0.3125,0.3129883-0.3125h5.1435547c0.1728516,0,0.3129883,0.1396484,0.3129883,0.3125V47.0625
			C26.6064453,47.2353516,26.4663086,47.375,26.293457,47.375z M21.4628906,46.75h4.5175781v-4.5185547h-4.5175781V46.75z"/>
	</g>
	<g>
		<g>
			
				<linearGradient id="SVGID_22_" gradientUnits="userSpaceOnUse" x1="17.1044922" y1="39.4345703" x2="17.1044922" y2="34.6182404">
				<stop  offset="0" style="stop-color:#FFFFFF"/>
				<stop  offset="1" style="stop-color:#000000"/>
			</linearGradient>
			<rect x="14.5327148" y="34.3242188" style="fill:url(#SVGID_22_);" width="5.1435547" height="5.1435547"/>
			<path d="M19.6762695,39.7802734h-5.1435547c-0.1728516,0-0.3129883-0.1396484-0.3129883-0.3125v-5.1435547
				c0-0.1728516,0.1401367-0.3125,0.3129883-0.3125h5.1435547c0.1728516,0,0.3129883,0.1396484,0.3129883,0.3125v5.1435547
				C19.9892578,39.640625,19.8491211,39.7802734,19.6762695,39.7802734z M14.8457031,39.1552734h4.5175781v-4.5185547h-4.5175781
				V39.1552734z"/>
		</g>
		<g>
			<rect x="15.6577148" y="36.2841797" style="fill:#3E3A39;" width="2.8945313" height="1.2246094"/>
			<path style="fill:#3E3A39;" d="M18.6772461,37.6337891h-3.1445313v-1.4746094h3.1445313V37.6337891z M15.7827148,37.3837891
				h2.6445313v-0.9746094h-2.6445313V37.3837891z"/>
		</g>
		
			<rect x="14.3115625" y="35.3721619" transform="matrix(0.4307393 0.9024764 -0.9024764 0.4307393 40.6619186 6.4068184)" style="fill:#3E3A39;" width="1.8817579" height="0.125791"/>
		
			<rect x="18.9058056" y="34.489502" transform="matrix(0.8990688 0.4378074 -0.4378074 0.8990688 17.4282207 -4.7279434)" style="fill:#3E3A39;" width="0.1249122" height="1.8911115"/>
		
			<rect x="18.0020447" y="38.3179626" transform="matrix(0.4305612 0.9025614 -0.9025614 0.4305612 45.4423447 4.7355309)" style="fill:#3E3A39;" width="1.9324343" height="0.125791"/>
		
			<rect x="15.18997" y="37.4084816" transform="matrix(0.8832169 0.4689647 -0.4689647 0.8832169 19.7319508 -2.6827126)" style="fill:#3E3A39;" width="0.1249428" height="1.737726"/>
		<path d="M19.6762695,39.7802734h-5.1435547c-0.1728516,0-0.3129883-0.1396484-0.3129883-0.3125v-5.1435547
			c0-0.1728516,0.1401367-0.3125,0.3129883-0.3125h5.1435547c0.1728516,0,0.3129883,0.1396484,0.3129883,0.3125v5.1435547
			C19.9892578,39.640625,19.8491211,39.7802734,19.6762695,39.7802734z M14.8457031,39.1552734h4.5175781v-4.5185547h-4.5175781
			V39.1552734z"/>
	</g>
	<g>
		<g>
			
				<linearGradient id="SVGID_23_" gradientUnits="userSpaceOnUse" x1="49.8808594" y1="11.9892578" x2="49.8808594" y2="18.8381863">
				<stop  offset="0" style="stop-color:#FFFFFF"/>
				<stop  offset="1" style="stop-color:#000000"/>
			</linearGradient>
			<path style="fill:url(#SVGID_23_);" d="M47.6621094,13.8833008c0,0.5175781,0.4238281,0.940918,0.9414063,0.940918h2.5546875
				c0.5175781,0,0.9414063-0.4233398,0.9414063-0.940918v-2.9643555c0-0.5175781-0.4238281-0.940918-0.9414063-0.940918h-2.5546875
				c-0.5175781,0-0.9414063,0.4233398-0.9414063,0.940918V13.8833008z"/>
		</g>
		<path style="fill:#231815;" d="M51.1582031,15.0595703h-2.5546875c-0.6484375,0-1.1777344-0.527832-1.1777344-1.1762695
			v-2.9643555c0-0.6484375,0.5292969-1.1762695,1.1777344-1.1762695h2.5546875c0.6484375,0,1.1757813,0.527832,1.1757813,1.1762695
			v2.9643555C52.3339844,14.5317383,51.8066406,15.0595703,51.1582031,15.0595703z M48.6035156,10.2133789
			c-0.390625,0-0.7070313,0.3164063-0.7070313,0.7055664v2.9643555c0,0.3891602,0.3164063,0.7055664,0.7070313,0.7055664h2.5546875
			c0.3886719,0,0.7050781-0.3164063,0.7050781-0.7055664v-2.9643555c0-0.3891602-0.3164063-0.7055664-0.7050781-0.7055664
			H48.6035156z"/>
	</g>
	<g>
		<radialGradient id="SVGID_24_" cx="49.8808594" cy="12.4008789" r="1.6391602" gradientUnits="userSpaceOnUse">
			<stop  offset="0" style="stop-color:#FFA81F"/>
			<stop  offset="1" style="stop-color:#FF801F"/>
		</radialGradient>
		<circle style="fill:url(#SVGID_24_);" cx="49.8808594" cy="12.3999023" r="1.6386719"/>
		<path style="fill:#231815;" d="M49.8808594,14.3486328c-1.0742188,0-1.9472656-0.8740234-1.9472656-1.9487305
			c0-1.0737305,0.8730469-1.9467773,1.9472656-1.9467773s1.9472656,0.8730469,1.9472656,1.9467773
			C51.828125,13.4746094,50.9550781,14.3486328,49.8808594,14.3486328z M49.8808594,11.0693359
			c-0.734375,0-1.3300781,0.597168-1.3300781,1.3305664c0,0.7348633,0.5957031,1.3325195,1.3300781,1.3325195
			s1.3300781-0.5976563,1.3300781-1.3325195C51.2109375,11.6665039,50.6152344,11.0693359,49.8808594,11.0693359z"/>
	</g>
	<g>
		<g>
			
				<linearGradient id="SVGID_25_" gradientUnits="userSpaceOnUse" x1="19.8852539" y1="14.8950195" x2="19.8852539" y2="10.0786877">
				<stop  offset="0" style="stop-color:#FFFFFF"/>
				<stop  offset="1" style="stop-color:#000000"/>
			</linearGradient>
			<rect x="17.3139648" y="9.784668" style="fill:url(#SVGID_25_);" width="5.1425781" height="5.1435547"/>
			<path d="M22.456543,15.2412109h-5.1425781c-0.1728516,0-0.3129883-0.1401367-0.3129883-0.3129883V9.784668
				c0-0.1728516,0.1401367-0.3129883,0.3129883-0.3129883h5.1425781c0.1728516,0,0.3129883,0.1401367,0.3129883,0.3129883v5.1435547
				C22.7695313,15.1010742,22.6293945,15.2412109,22.456543,15.2412109z M17.6269531,14.6152344h4.5166016v-4.5175781h-4.5166016
				V14.6152344z"/>
		</g>
		<g>
			<rect x="18.4379883" y="11.7436523" style="fill:#3E3A39;" width="2.8945313" height="1.2250977"/>
			<path style="fill:#3E3A39;" d="M21.4575195,13.09375h-3.1445313v-1.4750977h3.1445313V13.09375z M18.5629883,12.84375h2.6445313
				v-0.9750977h-2.6445313V12.84375z"/>
		</g>
		
			<rect x="17.0920563" y="10.8320904" transform="matrix(0.43084 0.9024283 -0.9024283 0.43084 20.095253 -10.0723629)" style="fill:#3E3A39;" width="1.8813173" height="0.1253695"/>
		
			<rect x="21.686079" y="9.949439" transform="matrix(0.8990688 0.4378074 -0.4378074 0.8990688 6.96492 -8.4220467)" style="fill:#3E3A39;" width="0.1249122" height="1.890673"/>
		
			<rect x="20.7825375" y="13.7778912" transform="matrix(0.4306594 0.9025145 -0.9025145 0.4306594 24.8736439 -11.7483673)" style="fill:#3E3A39;" width="1.9319936" height="0.1253695"/>
		
			<rect x="17.9702435" y="12.8683853" transform="matrix(0.8832169 0.4689647 -0.4689647 0.8832169 8.5479984 -6.8524799)" style="fill:#3E3A39;" width="0.1249428" height="1.7368622"/>
		<path d="M22.456543,15.2412109h-5.1425781c-0.1728516,0-0.3129883-0.1401367-0.3129883-0.3129883V9.784668
			c0-0.1728516,0.1401367-0.3129883,0.3129883-0.3129883h5.1425781c0.1728516,0,0.3129883,0.1401367,0.3129883,0.3129883v5.1435547
			C22.7695313,15.1010742,22.6293945,15.2412109,22.456543,15.2412109z M17.6269531,14.6152344h4.5166016v-4.5175781h-4.5166016
			V14.6152344z"/>
	</g>
	<g>
		<g>
			
				<linearGradient id="SVGID_26_" gradientUnits="userSpaceOnUse" x1="14.5327148" y1="11.9892578" x2="14.5327148" y2="18.8381863">
				<stop  offset="0" style="stop-color:#FFFFFF"/>
				<stop  offset="1" style="stop-color:#000000"/>
			</linearGradient>
			<path style="fill:url(#SVGID_26_);" d="M12.3139648,13.8833008c0,0.5175781,0.4233398,0.940918,0.940918,0.940918h2.5556641
				c0.5175781,0,0.940918-0.4233398,0.940918-0.940918v-2.9643555c0-0.5175781-0.4233398-0.940918-0.940918-0.940918h-2.5556641
				c-0.5175781,0-0.940918,0.4233398-0.940918,0.940918V13.8833008z"/>
		</g>
		<path style="fill:#231815;" d="M15.8105469,15.0595703h-2.5556641c-0.6484375,0-1.1762695-0.527832-1.1762695-1.1762695
			v-2.9643555c0-0.6484375,0.527832-1.1762695,1.1762695-1.1762695h2.5556641c0.6484375,0,1.1762695,0.527832,1.1762695,1.1762695
			v2.9643555C16.9868164,14.5317383,16.4589844,15.0595703,15.8105469,15.0595703z M13.2548828,10.2133789
			c-0.3891602,0-0.7055664,0.3164063-0.7055664,0.7055664v2.9643555c0,0.3891602,0.3164063,0.7055664,0.7055664,0.7055664h2.5556641
			c0.3891602,0,0.7055664-0.3164063,0.7055664-0.7055664v-2.9643555c0-0.3891602-0.3164063-0.7055664-0.7055664-0.7055664
			H13.2548828z"/>
	</g>
	<g>
		<radialGradient id="SVGID_27_" cx="14.5327148" cy="12.4008789" r="1.6396484" gradientUnits="userSpaceOnUse">
			<stop  offset="0" style="stop-color:#FFA81F"/>
			<stop  offset="1" style="stop-color:#FF801F"/>
		</radialGradient>
		<circle style="fill:url(#SVGID_27_);" cx="14.5327148" cy="12.3999023" r="1.6396484"/>
		<path style="fill:#231815;" d="M14.5336914,14.3486328c-1.074707,0-1.9487305-0.8740234-1.9487305-1.9487305
			c0-1.0737305,0.8740234-1.9467773,1.9487305-1.9467773c1.0737305,0,1.9467773,0.8730469,1.9467773,1.9467773
			C16.4804688,13.4746094,15.6074219,14.3486328,14.5336914,14.3486328z M14.5336914,11.0693359
			c-0.7348633,0-1.3325195,0.597168-1.3325195,1.3305664c0,0.7348633,0.5976563,1.3325195,1.3325195,1.3325195
			c0.7333984,0,1.3305664-0.5976563,1.3305664-1.3325195C15.8642578,11.6665039,15.2670898,11.0693359,14.5336914,11.0693359z"/>
	</g>
	<path style="fill:#231815;" d="M36.2539063,50.3144531h-8.9057617V11.6186523h8.9057617V50.3144531z M27.5981445,50.0644531
		h8.4057617V11.8686523h-8.4057617V50.0644531z"/>
	<g>
		<g>
			<linearGradient id="SVGID_28_" gradientUnits="userSpaceOnUse" x1="21.9243164" y1="54.0371094" x2="21.9243164" y2="58.002739">
				<stop  offset="0" style="stop-color:#171612"/>
				<stop  offset="1" style="stop-color:#000000"/>
			</linearGradient>
			<rect x="14.5678711" y="53.3320313" style="fill:url(#SVGID_28_);" width="14.7128906" height="4.5644531"/>
			<path style="fill:#020000;" d="M29.59375,58.2089844H14.2548828v-5.1894531H29.59375V58.2089844z M14.8808594,57.5839844
				h14.0869141v-3.9394531H14.8808594V57.5839844z"/>
		</g>
		<g>
			
				<linearGradient id="SVGID_29_" gradientUnits="userSpaceOnUse" x1="21.9248047" y1="54.9462891" x2="21.9248047" y2="54.9462891">
				<stop  offset="0" style="stop-color:#171612"/>
				<stop  offset="1" style="stop-color:#000000"/>
			</linearGradient>
			<line style="fill:url(#SVGID_29_);" x1="14.7250977" y1="54.9462891" x2="29.1245117" y2="54.9462891"/>
			<rect x="14.7250977" y="54.6337891" style="fill:#494949;" width="14.3994141" height="0.625"/>
		</g>
		<g>
			
				<linearGradient id="SVGID_30_" gradientUnits="userSpaceOnUse" x1="21.8793945" y1="56.2822266" x2="21.8793945" y2="56.2822266">
				<stop  offset="0" style="stop-color:#171612"/>
				<stop  offset="1" style="stop-color:#000000"/>
			</linearGradient>
			<line style="fill:url(#SVGID_30_);" x1="14.3383789" y1="56.2822266" x2="29.4204102" y2="56.2822266"/>
			<rect x="14.3383789" y="55.9570313" style="fill:#494949;" width="15.0820313" height="0.6503906"/>
		</g>
		<path style="fill:#020000;" d="M29.9067383,58.5224609H13.9418945v-5.8164063h15.9648438V58.5224609z M15.1938477,57.2705078
			h13.4609375v-3.3125H15.1938477V57.2705078z"/>
	</g>
	<g>
		<g>
			<linearGradient id="SVGID_31_" gradientUnits="userSpaceOnUse" x1="42.9863281" y1="54.0371094" x2="42.9863281" y2="58.002739">
				<stop  offset="0" style="stop-color:#171612"/>
				<stop  offset="1" style="stop-color:#000000"/>
			</linearGradient>
			<rect x="35.6289063" y="53.3320313" style="fill:url(#SVGID_31_);" width="14.7148438" height="4.5644531"/>
			<path style="fill:#020000;" d="M50.65625,58.2089844H35.3164063v-5.1894531H50.65625V58.2089844z M35.9414063,57.5839844
				H50.03125v-3.9394531H35.9414063V57.5839844z"/>
		</g>
		<g>
			
				<linearGradient id="SVGID_32_" gradientUnits="userSpaceOnUse" x1="42.9863281" y1="54.9462891" x2="42.9863281" y2="54.9462891">
				<stop  offset="0" style="stop-color:#171612"/>
				<stop  offset="1" style="stop-color:#000000"/>
			</linearGradient>
			<line style="fill:url(#SVGID_32_);" x1="35.7871094" y1="54.9462891" x2="50.1855469" y2="54.9462891"/>
			<rect x="35.7871094" y="54.6337891" style="fill:#494949;" width="14.3984375" height="0.625"/>
		</g>
		<g>
			
				<linearGradient id="SVGID_33_" gradientUnits="userSpaceOnUse" x1="42.9414063" y1="56.2822266" x2="42.9414063" y2="56.2822266">
				<stop  offset="0" style="stop-color:#171612"/>
				<stop  offset="1" style="stop-color:#000000"/>
			</linearGradient>
			<line style="fill:url(#SVGID_33_);" x1="35.4003906" y1="56.2822266" x2="50.4824219" y2="56.2822266"/>
			<rect x="35.4003906" y="55.9570313" style="fill:#494949;" width="15.0820313" height="0.6503906"/>
		</g>
		<path style="fill:#020000;" d="M50.96875,58.5224609H35.0039063v-5.8164063H50.96875V58.5224609z M36.2558594,57.2705078
			h13.4609375v-3.3125H36.2558594V57.2705078z"/>
	</g>
	<path d="M45.2871094,49.4306641h-8.4941406V36.6279297h8.4941406V49.4306641z M37.7949219,48.4287109h6.4902344V37.6298828
		h-6.4902344V48.4287109z"/>
	<rect x="37.2949219" y="42.5273438" width="7.4902344" height="1.0019531"/>
	<rect x="40.5390625" y="48.9296875" width="1.0019531" height="4.4023438"/>
	<rect x="44.2851563" y="48.9296875" width="1.0019531" height="4.4023438"/>
	<g>
		<linearGradient id="SVGID_34_" gradientUnits="userSpaceOnUse" x1="40.6533203" y1="39.2636719" x2="41.769928" y2="42.3720932">
			<stop  offset="0" style="stop-color:#FFFFFF"/>
			<stop  offset="1" style="stop-color:#000000"/>
		</linearGradient>
		<rect x="38.15625" y="39.4677734" style="fill:url(#SVGID_34_);" width="5.6601563" height="1.4433594"/>
		<path d="M44.1289063,41.2236328H37.84375v-2.0683594h6.2851563V41.2236328z M38.46875,40.5986328h5.0351563v-0.8183594H38.46875
			V40.5986328z"/>
	</g>
	<g>
		<linearGradient id="SVGID_35_" gradientUnits="userSpaceOnUse" x1="29.0922852" y1="27.8823242" x2="29.7262516" y2="29.6471653">
			<stop  offset="0" style="stop-color:#FFFFFF"/>
			<stop  offset="1" style="stop-color:#000000"/>
		</linearGradient>
		<rect x="27.675293" y="27.9980469" style="fill:url(#SVGID_35_);" width="3.2119141" height="0.8198242"/>
		<path d="M31.0649414,28.9956055h-3.5673828v-1.175293h3.5673828V28.9956055z M27.8530273,28.6401367h2.8564453v-0.4643555
			h-2.8564453V28.6401367z"/>
	</g>
	<g>
		<linearGradient id="SVGID_36_" gradientUnits="userSpaceOnUse" x1="40.6533203" y1="45.0488281" x2="41.769928" y2="48.1572495">
			<stop  offset="0" style="stop-color:#FFFFFF"/>
			<stop  offset="1" style="stop-color:#000000"/>
		</linearGradient>
		<rect x="38.15625" y="45.2529297" style="fill:url(#SVGID_36_);" width="5.6601563" height="1.4433594"/>
		<path d="M44.1289063,47.0087891H37.84375v-2.0683594h6.2851563V47.0087891z M38.46875,46.3837891h5.0351563v-0.8183594H38.46875
			V46.3837891z"/>
	</g>
	<g>
		<linearGradient id="SVGID_37_" gradientUnits="userSpaceOnUse" x1="34.4804688" y1="19.340332" x2="40.7974586" y2="36.9256363">
			<stop  offset="0" style="stop-color:#FFFFFF"/>
			<stop  offset="1" style="stop-color:#000000"/>
		</linearGradient>
		<rect x="36.1289063" y="14.8242188" style="fill:url(#SVGID_37_);" width="0.4628906" height="19.5"/>
		<rect x="35.8164063" y="14.5112305" width="1.0878906" height="20.1254883"/>
	</g>
	<rect x="24.5424805" y="8.277832" style="fill:#231815;" width="14.621582" height="0.6259766"/>
	<linearGradient id="SVGID_38_" gradientUnits="userSpaceOnUse" x1="31.8535156" y1="10.2319336" x2="31.8535156" y2="6.1170096">
		<stop  offset="0" style="stop-color:#000000;stop-opacity:0"/>
		<stop  offset="1" style="stop-color:#000000"/>
	</linearGradient>
	<rect x="24.5424805" y="8.5908203" style="fill:url(#SVGID_38_);" width="14.621582" height="2.1704102"/>
	<g>
		<g>
			<g>
				
					<linearGradient id="SVGID_39_" gradientUnits="userSpaceOnUse" x1="26.5141602" y1="2.7553711" x2="28.9130249" y2="14.1244421">
					<stop  offset="0" style="stop-color:#FFFFFF"/>
					<stop  offset="0.0749906" style="stop-color:#F6EEE0"/>
					<stop  offset="0.1914537" style="stop-color:#EBD7B5"/>
					<stop  offset="0.2966858" style="stop-color:#E2C696"/>
					<stop  offset="0.3859229" style="stop-color:#DDBC84"/>
					<stop  offset="0.448485" style="stop-color:#DBB87D"/>
					<stop  offset="0.7105858" style="stop-color:#DBB87F"/>
					<stop  offset="0.8050004" style="stop-color:#D9BA86"/>
					<stop  offset="0.8723034" style="stop-color:#D6BD91"/>
					<stop  offset="0.9267098" style="stop-color:#D2C0A2"/>
					<stop  offset="0.9727625" style="stop-color:#CDC5B8"/>
					<stop  offset="1" style="stop-color:#C9C9C9"/>
				</linearGradient>
				<path style="fill:url(#SVGID_39_);" d="M27.2944336,8.7138672c-1.25,0-2.2666016-1.0151367-2.2666016-2.2661133
					c0-1.2480469,1.0166016-2.2646484,2.2666016-2.2646484c1.2480469,0,2.2646484,1.0166016,2.2646484,2.2646484
					C29.559082,7.6987305,28.5424805,8.7138672,27.2944336,8.7138672z M27.2944336,5.4345703
					c-0.5595703,0-1.0146484,0.4550781-1.0146484,1.0131836c0,0.5600586,0.4550781,1.0151367,1.0146484,1.0151367
					c0.5585938,0,1.0126953-0.4550781,1.0126953-1.0151367C28.3071289,5.8896484,27.8530273,5.4345703,27.2944336,5.4345703z"/>
				<path style="fill:#231815;" d="M27.2944336,9.0268555c-1.4223633,0-2.5795898-1.1572266-2.5795898-2.5791016
					c0-1.4213867,1.1572266-2.5776367,2.5795898-2.5776367c1.4213867,0,2.5776367,1.15625,2.5776367,2.5776367
					C29.8720703,7.8696289,28.7158203,9.0268555,27.2944336,9.0268555z M27.2944336,4.4960938
					c-1.0771484,0-1.9536133,0.8754883-1.9536133,1.9516602c0,1.0771484,0.8764648,1.953125,1.9536133,1.953125
					c1.0761719,0,1.9516602-0.8759766,1.9516602-1.953125C29.2460938,5.371582,28.3706055,4.4960938,27.2944336,4.4960938z
					 M27.2944336,7.7758789c-0.7319336,0-1.3276367-0.5957031-1.3276367-1.328125
					c0-0.7314453,0.5957031-1.3261719,1.3276367-1.3261719c0.730957,0,1.3256836,0.5947266,1.3256836,1.3261719
					C28.6201172,7.1801758,28.0253906,7.7758789,27.2944336,7.7758789z M27.2944336,5.7475586
					c-0.3867188,0-0.7016602,0.3139648-0.7016602,0.7001953c0,0.387207,0.3149414,0.7021484,0.7016602,0.7021484
					c0.3857422,0,0.699707-0.3149414,0.699707-0.7021484C27.9941406,6.0615234,27.6801758,5.7475586,27.2944336,5.7475586z"/>
			</g>
			<linearGradient id="SVGID_40_" gradientUnits="userSpaceOnUse" x1="27.293457" y1="7.4262695" x2="27.293457" y2="5.3896151">
				<stop  offset="0" style="stop-color:#FFFFFF"/>
				<stop  offset="0.387879" style="stop-color:#000000"/>
				<stop  offset="1" style="stop-color:#717171"/>
			</linearGradient>
			<circle style="fill:url(#SVGID_40_);" cx="27.293457" cy="6.4477539" r="1.28125"/>
		</g>
		<g>
			<g>
				
					<linearGradient id="SVGID_41_" gradientUnits="userSpaceOnUse" x1="31.1655273" y1="2.7548828" x2="33.5643921" y2="14.1239538">
					<stop  offset="0" style="stop-color:#FFFFFF"/>
					<stop  offset="0.0749906" style="stop-color:#F6EEE0"/>
					<stop  offset="0.1914537" style="stop-color:#EBD7B5"/>
					<stop  offset="0.2966858" style="stop-color:#E2C696"/>
					<stop  offset="0.3859229" style="stop-color:#DDBC84"/>
					<stop  offset="0.448485" style="stop-color:#DBB87D"/>
					<stop  offset="0.7105858" style="stop-color:#DBB87F"/>
					<stop  offset="0.8050004" style="stop-color:#D9BA86"/>
					<stop  offset="0.8723034" style="stop-color:#D6BD91"/>
					<stop  offset="0.9267098" style="stop-color:#D2C0A2"/>
					<stop  offset="0.9727625" style="stop-color:#CDC5B8"/>
					<stop  offset="1" style="stop-color:#C9C9C9"/>
				</linearGradient>
				<path style="fill:url(#SVGID_41_);" d="M31.9448242,8.7138672c-1.2509766,0-2.2666016-1.0151367-2.2666016-2.2661133
					c0-1.2480469,1.015625-2.2646484,2.2666016-2.2646484c1.2485352,0,2.2661133,1.0166016,2.2661133,2.2646484
					C34.2109375,7.6987305,33.1933594,8.7138672,31.9448242,8.7138672z M31.9448242,5.4345703
					c-0.5595703,0-1.0146484,0.4550781-1.0146484,1.0131836c0,0.5600586,0.4550781,1.0151367,1.0146484,1.0151367
					c0.5576172,0,1.0126953-0.4550781,1.0126953-1.0151367C32.9575195,5.8896484,32.5024414,5.4345703,31.9448242,5.4345703z"/>
				<path style="fill:#231815;" d="M31.9448242,9.0268555c-1.4223633,0-2.5795898-1.1572266-2.5795898-2.5791016
					c0-1.4213867,1.1572266-2.5776367,2.5795898-2.5776367s2.5786133,1.15625,2.5786133,2.5776367
					C34.5234375,7.8696289,33.3671875,9.0268555,31.9448242,9.0268555z M31.9448242,4.4960938
					c-1.0771484,0-1.9536133,0.8754883-1.9536133,1.9516602c0,1.0771484,0.8764648,1.953125,1.9536133,1.953125
					c1.0766602,0,1.9536133-0.8759766,1.9536133-1.953125C33.8984375,5.371582,33.0214844,4.4960938,31.9448242,4.4960938z
					 M31.9448242,7.7758789c-0.7319336,0-1.3276367-0.5957031-1.3276367-1.328125
					c0-0.7314453,0.5957031-1.3261719,1.3276367-1.3261719c0.730957,0,1.3256836,0.5947266,1.3256836,1.3261719
					C33.2705078,7.1801758,32.6757813,7.7758789,31.9448242,7.7758789z M31.9448242,5.7475586
					c-0.3867188,0-0.7016602,0.3139648-0.7016602,0.7001953c0,0.387207,0.3149414,0.7021484,0.7016602,0.7021484
					c0.3857422,0,0.699707-0.3149414,0.699707-0.7021484C32.6445313,6.0615234,32.3305664,5.7475586,31.9448242,5.7475586z"/>
			</g>
			<linearGradient id="SVGID_42_" gradientUnits="userSpaceOnUse" x1="31.9438477" y1="7.4262695" x2="31.9438477" y2="5.3896151">
				<stop  offset="0" style="stop-color:#FFFFFF"/>
				<stop  offset="0.387879" style="stop-color:#000000"/>
				<stop  offset="1" style="stop-color:#717171"/>
			</linearGradient>
			<circle style="fill:url(#SVGID_42_);" cx="31.9436035" cy="6.4477539" r="1.2810059"/>
		</g>
		<g>
			<g>
				
					<linearGradient id="SVGID_43_" gradientUnits="userSpaceOnUse" x1="35.8154297" y1="2.7548828" x2="38.2142944" y2="14.1239538">
					<stop  offset="0" style="stop-color:#FFFFFF"/>
					<stop  offset="0.0749906" style="stop-color:#F6EEE0"/>
					<stop  offset="0.1914537" style="stop-color:#EBD7B5"/>
					<stop  offset="0.2966858" style="stop-color:#E2C696"/>
					<stop  offset="0.3859229" style="stop-color:#DDBC84"/>
					<stop  offset="0.448485" style="stop-color:#DBB87D"/>
					<stop  offset="0.7105858" style="stop-color:#DBB87F"/>
					<stop  offset="0.8050004" style="stop-color:#D9BA86"/>
					<stop  offset="0.8723034" style="stop-color:#D6BD91"/>
					<stop  offset="0.9267098" style="stop-color:#D2C0A2"/>
					<stop  offset="0.9727625" style="stop-color:#CDC5B8"/>
					<stop  offset="1" style="stop-color:#C9C9C9"/>
				</linearGradient>
				<path style="fill:url(#SVGID_43_);" d="M36.59375,8.7138672c-1.25,0-2.265625-1.0151367-2.265625-2.2661133
					c0-1.2480469,1.015625-2.2646484,2.265625-2.2646484c1.2480469,0,2.265625,1.0166016,2.265625,2.2646484
					C38.859375,7.6987305,37.8417969,8.7138672,36.59375,8.7138672z M36.59375,5.4345703
					c-0.5585938,0-1.0136719,0.4550781-1.0136719,1.0131836c0,0.5600586,0.4550781,1.0151367,1.0136719,1.0151367
					s1.0136719-0.4550781,1.0136719-1.0151367C37.6074219,5.8896484,37.1523438,5.4345703,36.59375,5.4345703z"/>
				<path style="fill:#231815;" d="M36.59375,9.0268555c-1.421875,0-2.578125-1.1572266-2.578125-2.5791016
					c0-1.4213867,1.15625-2.5776367,2.578125-2.5776367s2.578125,1.15625,2.578125,2.5776367
					C39.171875,7.8696289,38.015625,9.0268555,36.59375,9.0268555z M36.59375,4.4960938
					c-1.0761719,0-1.953125,0.8754883-1.953125,1.9516602c0,1.0771484,0.8769531,1.953125,1.953125,1.953125
					s1.953125-0.8759766,1.953125-1.953125C38.546875,5.371582,37.6699219,4.4960938,36.59375,4.4960938z M36.59375,7.7758789
					c-0.7324219,0-1.3261719-0.5957031-1.3261719-1.328125c0-0.7314453,0.59375-1.3261719,1.3261719-1.3261719
					c0.7304688,0,1.3261719,0.5947266,1.3261719,1.3261719C37.9199219,7.1801758,37.3242188,7.7758789,36.59375,7.7758789z
					 M36.59375,5.7475586c-0.3867188,0-0.7011719,0.3139648-0.7011719,0.7001953
					c0,0.387207,0.3144531,0.7021484,0.7011719,0.7021484s0.7011719-0.3149414,0.7011719-0.7021484
					C37.2949219,6.0615234,36.9804688,5.7475586,36.59375,5.7475586z"/>
			</g>
			<linearGradient id="SVGID_44_" gradientUnits="userSpaceOnUse" x1="36.59375" y1="7.4262695" x2="36.59375" y2="5.3896151">
				<stop  offset="0" style="stop-color:#FFFFFF"/>
				<stop  offset="0.387879" style="stop-color:#000000"/>
				<stop  offset="1" style="stop-color:#717171"/>
			</linearGradient>
			<circle style="fill:url(#SVGID_44_);" cx="36.59375" cy="6.4477539" r="1.28125"/>
		</g>
	</g>
</g>
</svg>
