<?xml version="1.0" encoding="utf-8"?>
<!-- Generator: Adobe Illustrator 15.0.2, SVG Export Plug-In . SVG Version: 6.00 Build 0)  -->
<!DOCTYPE svg PUBLIC "-//W3C//DTD SVG 1.1//EN" "http://www.w3.org/Graphics/SVG/1.1/DTD/svg11.dtd">
<svg version="1.1" id="レイヤー_1" xmlns="http://www.w3.org/2000/svg" xmlns:xlink="http://www.w3.org/1999/xlink" x="0px"
	 y="0px" width="64px" height="64px" viewBox="0 0 64 64" style="enable-background:new 0 0 64 64;" xml:space="preserve">
<g>
	<g>
		<linearGradient id="SVGID_1_" gradientUnits="userSpaceOnUse" x1="26.9848633" y1="26.3115234" x2="44.1986465" y2="75.9849472">
			<stop  offset="0" style="stop-color:#FFF1BF"/>
			<stop  offset="0.1983559" style="stop-color:#FFE9B2"/>
			<stop  offset="0.566525" style="stop-color:#FFD38F"/>
			<stop  offset="1" style="stop-color:#FFB55F"/>
		</linearGradient>
		<path style="fill:url(#SVGID_1_);" d="M59.6181641,33.0419922c5.2558594,29.3837891-6.1865234,27.7451172-28.2294922,27.7675781
			c-18.5625,0.0205078-33.3339844-1.1259766-27.6210938-26.0078125C9.3476563,10.4960938,12.8261719,5.2744141,31.3886719,5.2744141
			C51.5449219,5.2744141,55.1728516,8.1894531,59.6181641,33.0419922z"/>
		<linearGradient id="SVGID_2_" gradientUnits="userSpaceOnUse" x1="37.8974609" y1="-4.8027344" x2="34.0642738" y2="16.0316525">
			<stop  offset="0" style="stop-color:#D23A18"/>
			<stop  offset="0.2649619" style="stop-color:#DA4E1C"/>
			<stop  offset="0.8068733" style="stop-color:#ED8328"/>
			<stop  offset="0.89697" style="stop-color:#F18C2A"/>
			<stop  offset="0.9146296" style="stop-color:#F29537"/>
			<stop  offset="0.9474026" style="stop-color:#F5AD5A"/>
			<stop  offset="0.9913981" style="stop-color:#F9D391"/>
			<stop  offset="1" style="stop-color:#FADB9D"/>
		</linearGradient>
		<path style="fill:url(#SVGID_2_);" d="M19.9902344,7.2041016c-7.109375,2.1601563-9.5878906,4.9951172-4.0390625,5.6621094
			C21.5,13.5322266,30,10.5927734,34,11.8125s2.4082031,4.1826172,6.3330078,4.0537109s3.7958984-2.9873047,7.4833984,0.0039063
			s7.40625,5.6699219,8.2949219,0C57,10.1992188,40.8144531,0.875,19.9902344,7.2041016z"/>
		<linearGradient id="SVGID_3_" gradientUnits="userSpaceOnUse" x1="35.6435547" y1="7.1591797" x2="59.5605316" y2="2.6591697">
			<stop  offset="0" style="stop-color:#D23A18"/>
			<stop  offset="0.2649619" style="stop-color:#DA4E1C"/>
			<stop  offset="0.8068733" style="stop-color:#ED8328"/>
			<stop  offset="0.89697" style="stop-color:#F18C2A"/>
			<stop  offset="0.9146296" style="stop-color:#F29537"/>
			<stop  offset="0.9474026" style="stop-color:#F5AD5A"/>
			<stop  offset="0.9913981" style="stop-color:#F9D391"/>
			<stop  offset="1" style="stop-color:#FADB9D"/>
		</linearGradient>
		<path style="fill:url(#SVGID_3_);" d="M18.4052734,7.1347656c0,0,17.9560547,1.8095703,30.5673828,1.0205078
			C48.9726563,8.1552734,37.3935547,1.8193359,18.4052734,7.1347656z"/>
		<path style="fill:#FFBC80;" d="M34.0449219,8.7607422c-5.862793,0-14.019043-0.9697266-14.1010742-0.9794922
			C19.7211914,7.7539063,19.5625,7.5517578,19.5888672,7.3291016c0.0268555-0.2226563,0.2280273-0.3549805,0.4516602-0.3286133
			C20.1220703,7.0102539,28.230957,8,34.0449219,8c0.0126953,0,0.0253906,0,0.0390625,0l0,0
			c0.2246094,0,0.40625,0.1557617,0.40625,0.3793945C34.4902344,8.6176758,34.28125,8.7607422,34.0449219,8.7607422z"/>
		<path style="fill:#FFBC80;" d="M39.6357422,8.7617188c-0.8427734,0-1.3945313-0.0097656-1.3945313-0.0097656
			c-0.2236328-0.0029297-0.4033203-0.1586914-0.3994141-0.3823242C37.8457031,8.1479492,38.0263672,8,38.2480469,8
			C38.25,8,38.2529297,8,38.2548828,8c0.0029297,0,1.2324219,0,2.8173828,0c0.0009766,0,0.0029297,0,0.0048828,0
			c0.2216797,0,0.4033203,0.1489258,0.40625,0.3706055c0.0029297,0.2246094-0.1767578,0.394043-0.4013672,0.3959961
			C40.5488281,8.7744141,40.0556641,8.7617188,39.6357422,8.7617188z"/>
		<path style="fill:#FFFFFF;" d="M16.7685547,11.0771484c1.5175781-1.1435547,4.5283203-0.4267578,1.9765625,3.015625
			C16.1933594,17.5341797,11.7011719,14.8974609,16.7685547,11.0771484z"/>
		<path style="fill:#FFFFFF;" d="M14.9853516,17.6240234c1.2050781,0.0419922-0.1513672,3.1103516-1.1513672,2.6757813
			C12.8339844,19.8662109,12.8046875,17.5478516,14.9853516,17.6240234z"/>
		<path style="opacity:0.35;fill:#FFFFFF;" d="M41.1572266,56.5039063
			C39.7675781,55.0390625,48.1171875,56.6630859,51.25,54.2724609c3.5839844-2.7353516,6.1298828-4.3105469,5.6289063-1.4667969
			C56.3076172,56.0488281,43.1748047,58.6328125,41.1572266,56.5039063z"/>
	</g>
	<path style="fill:#541715;" d="M37.3408203,62.0390625l-5.9506836-0.0107422l-0.4541016,0.0009766
		c-11.4873047,0-21.4038086-0.5117188-26.4135742-6.8027344c-3.4970703-4.390625-4.1328125-11.1611328-1.9428711-20.6972656
		C8.159668,10.2226563,11.71875,4.0546875,31.3886719,4.0546875c21.1054688,0,24.9560547,3.7646484,29.4296875,28.7724609
		c2.2011719,12.3085938,1.5869141,19.7050781-1.9941406,23.9833984
		C54.7617188,61.6640625,47.3574219,62.0390625,37.3408203,62.0390625z M31.8686523,59.5898438l5.472168,0.0107422
		c9.3496094,0,16.2294922-0.3115234,19.6142578-4.3554688c3.0332031-3.6240234,3.4980469-10.6113281,1.4628906-21.9882813
		C53.9560547,8.3105469,50.5546875,6.4931641,31.3886719,6.4931641c-17.2709961,0-20.7294922,3.7392578-26.4331055,28.5810547
		C2.9428711,43.8408203,3.425293,49.9355469,6.4296875,53.7080078c4.3325195,5.4404297,13.6616211,5.8828125,24.5063477,5.8828125
		L31.8686523,59.5898438z"/>
	<path style="fill:#330100;" d="M47.765625,28.7988281l-2.671875-0.2548828
		c0.1689453-1.7734375-0.9716797-3.3388672-2.5449219-3.4882813c-1.5625-0.1464844-2.9873047,1.1728516-3.1582031,2.9472656
		l-2.671875-0.2568359c0.3134766-3.2470703,3.0488281-5.6416016,6.0849609-5.3623047
		C45.8496094,22.6748047,48.0751953,25.5517578,47.765625,28.7988281z"/>
	<path style="fill:#842C38;" d="M51.4277344,37.109375c0,11.0146484-8.7636719,19.9472656-19.5751953,19.9472656
		c-10.8110352,0-19.5751953-8.9326172-19.5751953-19.9472656c7.9033203-0.2285156,8.7641602,0,19.5751953,0
		C42.6640625,37.109375,42.6640625,37.109375,51.4277344,37.109375z"/>
	<g>
		<g>
			<g>
				<path style="fill:#EA7C91;" d="M32.015625,43.4746094c-6.7016602,0-13.59375,3.0097656-13.59375,6.9550781
					c0,3.9443359,6.8920898,6.4453125,13.59375,6.4453125c6.7011719,0,13.4189453-2.5009766,13.4189453-6.4453125
					C45.4345703,46.484375,38.7167969,43.4746094,32.015625,43.4746094z"/>
			</g>
			<path style="fill:#E42A56;" d="M32.015625,48.4404297c-7.269043-0.0029297-14.121582,1.8007813-12.2792969,4.3144531
				c3.1347656,4.2763672,9.8798828,4.4404297,12.2792969,4.3544922c1.7890625,0.0859375,9.1445313-0.078125,12.2802734-4.3544922
				C46.1376953,50.2412109,39.1826172,48.4423828,32.015625,48.4404297z"/>
		</g>
		<rect x="12.2773438" y="37.109375" style="fill:#FFFFFF;" width="38.84375" height="3.5224609"/>
		<path style="fill:#330100;" d="M31.8525391,57.9511719c-11.2871094,0-20.4697266-9.3496094-20.4697266-20.8417969v-0.8945313
			h40.9394531v0.8945313C52.3222656,48.6015625,43.1396484,57.9511719,31.8525391,57.9511719z M13.1923828,38.0039063
			c0.4599609,10.0917969,8.6538086,18.1582031,18.6601563,18.1582031c10.0058594,0,18.2001953-8.0664063,18.6601563-18.1582031
			H13.1923828z"/>
	</g>
	<path style="fill:#330100;" d="M15.3706055,28.8759766c-0.3574219-3.2412109,1.7998047-6.1503906,4.8095703-6.4853516
		c3.0126953-0.3359375,5.7524414,2.0341797,6.1123047,5.2763672l-2.6679688,0.2958984
		c-0.1958008-1.7714844-1.5996094-3.0791016-3.1489258-2.9042969c-1.5385742,0.1708984-2.6328125,1.7509766-2.4370117,3.5224609
		L15.3706055,28.8759766z"/>
	<g>
		<linearGradient id="SVGID_4_" gradientUnits="userSpaceOnUse" x1="48.7314453" y1="6.1845703" x2="59.0191956" y2="25.1057014">
			<stop  offset="0" style="stop-color:#50BEDF"/>
			<stop  offset="0.156303" style="stop-color:#4DB6DA"/>
			<stop  offset="0.3982336" style="stop-color:#44A0CE"/>
			<stop  offset="0.6954401" style="stop-color:#357DB9"/>
			<stop  offset="1" style="stop-color:#2351A0"/>
		</linearGradient>
		<path style="fill:url(#SVGID_4_);" d="M55.0429688,2.7519531c0,0-7.6787109,9.4609375-7.6787109,15.1376953
			c0,5.6757813,4.8144531,8.3251953,8.4394531,8.3251953c3.6210938,0,6.3876953-4.4160156,6.3876953-7.8212891
			C62.1914063,11.4560547,55.0429688,2.7519531,55.0429688,2.7519531z"/>
		<path style="fill:#234E9E;" d="M55.8037109,26.7148438c-3.7119141,0-8.9394531-2.7382813-8.9394531-8.8251953
			c0-5.7880859,7.4726563-15.0615234,7.7900391-15.453125l0.3867188-0.4755859l0.3886719,0.4736328
			c0.2958984,0.3613281,7.2617188,8.9228516,7.2617188,15.9589844
			C62.6914063,22.1621094,59.6191406,26.7148438,55.8037109,26.7148438z M55.0429688,3.5615234
			c-1.546875,2.0019531-7.1787109,9.6162109-7.1787109,14.328125c0,5.3974609,4.6425781,7.8251953,7.9394531,7.8251953
			c3.1708984,0,5.8876953-4.0263672,5.8876953-7.3212891C61.6914063,12.6337891,56.515625,5.4794922,55.0429688,3.5615234z"/>
	</g>
</g>
</svg>
