<?xml version="1.0" encoding="utf-8"?>
<!-- Generator: Adobe Illustrator 17.0.0, SVG Export Plug-In . SVG Version: 6.00 Build 0)  -->
<!DOCTYPE svg PUBLIC "-//W3C//DTD SVG 1.1//EN" "http://www.w3.org/Graphics/SVG/1.1/DTD/svg11.dtd">
<svg version="1.1" id="レイヤー_1" xmlns="http://www.w3.org/2000/svg" xmlns:xlink="http://www.w3.org/1999/xlink" x="0px"
	 y="0px" width="64px" height="64px" viewBox="0 0 64 64" style="enable-background:new 0 0 64 64;" xml:space="preserve">
<g>
	<linearGradient id="SVGID_1_" gradientUnits="userSpaceOnUse" x1="32" y1="4.5" x2="32" y2="59.5">
		<stop  offset="0" style="stop-color:#6BCF40;stop-opacity:0.8"/>
		<stop  offset="0.4" style="stop-color:#159B3A"/>
		<stop  offset="0.6" style="stop-color:#159B3A"/>
		<stop  offset="1" style="stop-color:#51B526;stop-opacity:0.8"/>
	</linearGradient>
	<path style="fill:url(#SVGID_1_);" d="M62,34.5c0,13.8071175-11.25,25-30,25S2,48.3071175,2,34.5s12.5-30,30-30
		S62,20.6928806,62,34.5z"/>
	<linearGradient id="SVGID_2_" gradientUnits="userSpaceOnUse" x1="32" y1="4" x2="32" y2="60">
		<stop  offset="0" style="stop-color:#D4FFD5"/>
		<stop  offset="1" style="stop-color:#00FF2C"/>
	</linearGradient>
	<path style="fill:url(#SVGID_2_);" d="M32,60C14.0419922,60,1.5,49.5136719,1.5,34.5C1.5,20.1025391,14.543457,4,32,4
		c17.4560547,0,30.5,16.1025391,30.5,30.5C62.5,49.5136719,49.9580078,60,32,60z M32,5.4576273c-16.5981026,0-29,15.310729-29,29
		c0,14.1803169,11.925252,24.0847473,29,24.0847473s29-9.9044304,29-24.0847473C61,20.7683563,48.5976219,5.4576273,32,5.4576273z"
		/>
	<linearGradient id="SVGID_3_" gradientUnits="userSpaceOnUse" x1="31.9997559" y1="3.154134" x2="31.9997559" y2="60.8453789">
		<stop  offset="0" style="stop-color:#009245"/>
		<stop  offset="0.4" style="stop-color:#00BC40"/>
		<stop  offset="0.6" style="stop-color:#00BC40"/>
		<stop  offset="1" style="stop-color:#009245"/>
	</linearGradient>
	<path style="fill:url(#SVGID_3_);" d="M32,60.8453789c-18.4739742,0-31.3766403-10.8212776-31.3766403-26.3146057
		C0.6233594,19.7195587,14.041626,3.154134,32,3.154134c17.9578857,0,31.376152,16.565424,31.376152,31.3766384
		C63.376152,50.0241013,50.4739723,60.8453789,32,60.8453789z M32,4.1512537
		c-17.38727,0-30.3795204,16.0391121-30.3795204,30.3795204C1.6204789,49.4369278,14.1131964,59.848259,32,59.848259
		s30.3790321-10.4113312,30.3790321-25.3174858C62.3790321,20.1903667,49.3872681,4.1512537,32,4.1512537z"/>
	<linearGradient id="SVGID_4_" gradientUnits="userSpaceOnUse" x1="32" y1="7.8333335" x2="32" y2="42.8333321">
		<stop  offset="0" style="stop-color:#F5FFD2;stop-opacity:0.6"/>
		<stop  offset="1" style="stop-color:#F5FFD2;stop-opacity:0"/>
	</linearGradient>
	<path style="fill:url(#SVGID_4_);" d="M54.522728,28.4721546c0,6.7936115-8.446022,14.3611774-22.522728,14.3611774
		S9.477273,35.2657661,9.477273,28.4721546c0-9.4987564,9.384469-20.6388206,22.522728-20.6388206
		S54.522728,18.9733982,54.522728,28.4721546z"/>
	<linearGradient id="SVGID_5_" gradientUnits="userSpaceOnUse" x1="22.625" y1="8.25" x2="22.625" y2="22">
		<stop  offset="0.3" style="stop-color:#FFFFFF;stop-opacity:0.6"/>
		<stop  offset="1" style="stop-color:#FFFFFF;stop-opacity:0.2"/>
	</linearGradient>
	<circle style="fill:url(#SVGID_5_);" cx="22.625" cy="15.125" r="6.875"/>
	<linearGradient id="SVGID_6_" gradientUnits="userSpaceOnUse" x1="46.375" y1="47.75" x2="46.375" y2="54">
		<stop  offset="0.3" style="stop-color:#FFFFFF;stop-opacity:0.4"/>
		<stop  offset="1" style="stop-color:#FFFFFF;stop-opacity:0"/>
	</linearGradient>
	<circle style="fill:url(#SVGID_6_);" cx="46.375" cy="50.875" r="3.125"/>
	<linearGradient id="SVGID_7_" gradientUnits="userSpaceOnUse" x1="46.375" y1="49.125" x2="46.375" y2="52.625">
		<stop  offset="0.3" style="stop-color:#FFFFFF;stop-opacity:0.4"/>
		<stop  offset="1" style="stop-color:#FFFFFF;stop-opacity:0"/>
	</linearGradient>
	<circle style="fill:url(#SVGID_7_);" cx="46.375" cy="50.875" r="1.75"/>
	<linearGradient id="SVGID_8_" gradientUnits="userSpaceOnUse" x1="22.625" y1="9.75" x2="22.625" y2="20.5">
		<stop  offset="0.3" style="stop-color:#FFFFFF"/>
		<stop  offset="1" style="stop-color:#FFFFFF;stop-opacity:0.2"/>
	</linearGradient>
	<circle style="fill:url(#SVGID_8_);" cx="22.625" cy="15.125" r="5.375"/>
</g>
<g>
	<path style="fill:#350000;" d="M49.9365234,22l-2.9863281-0.2851563c0.1894531-1.9819336-1.0869141-3.7314453-2.84375-3.8994141
		c-1.75-0.1689453-3.3408203,1.3110352-3.53125,3.2949219l-2.9863281-0.2871094
		c0.3496094-3.6298828,3.4101563-6.3203125,6.8027344-5.9941406C47.7958984,15.1542969,50.2832031,18.371582,49.9365234,22z"/>
	<g>
		<path style="fill:#842C38;" d="M54.0303001,31.8857002c0,12.3115997-9.7958984,22.2968979-21.8809013,22.2968979
			c-12.0844994,0-21.8812981-9.9852982-21.8812981-22.2968979c8.8344011-0.2558002,9.7967997,0,21.8812981,0
			C44.2344017,31.8857002,44.2344017,31.8857002,54.0303001,31.8857002z"/>
		<g>
			<g>
				<g>
					<path style="fill:#EA7C91;" d="M32,39c-7.4911995,0-15.1952991,3.3652-15.1952991,7.7753983
						c0,4.4082031,7.7040997,7.2041016,15.1952991,7.2041016c7.4902,0,15-2.7958984,15-7.2041016C47,42.3652,39.4902,39,32,39z"/>
				</g>
				<path style="fill:#E42A56;" d="M32,44.5508003c-8.1254997-0.0028992-15.7852001,2.0136986-13.7261009,4.8232002
					C21.7782993,54.1543007,29.3178997,54.3378983,32,54.2411995c2,0.0966988,10.2216988-0.0868988,13.7266006-4.8671989
					C47.7851982,46.5644989,40.0107002,44.5536995,32,44.5508003z"/>
			</g>
			<rect x="10.2681007" y="31.8857002" style="fill:#FFFFFF;" width="43.4193993" height="3.9375"/>
			<path style="fill:#350000;" d="M32.1494141,55.1826172c-12.6166992,0-22.8813477-10.4511719-22.8813477-23.296875v-1h45.762207v1
				C55.0302734,44.7314453,44.765625,55.1826172,32.1494141,55.1826172z M11.2910156,32.8857422
				c0.5136719,11.2802734,9.6733398,20.296875,20.8583984,20.296875c11.1845703,0,20.34375-9.0166016,20.8583984-20.296875
				H11.2910156z"/>
		</g>
	</g>
	<path style="fill:#350000;" d="M13.7265625,22.0859375c-0.4003906-3.6230469,2.0112305-6.8745117,5.3759766-7.2485352
		c3.3618164-0.378418,6.4301758,2.2744141,6.831543,5.8974609l-2.9814453,0.3300781
		c-0.2197266-1.9804688-1.7988281-3.4360352-3.5200195-3.2460938c-1.7202148,0.1914063-2.9428711,1.9580078-2.7246094,3.9379883
		L13.7265625,22.0859375z"/>
	<g>
		<linearGradient id="SVGID_9_" gradientUnits="userSpaceOnUse" x1="49.0274391" y1="5.3178806" x2="59.314991" y2="24.2386494">
			<stop  offset="0" style="stop-color:#50BEDF"/>
			<stop  offset="0.156303" style="stop-color:#4DB6DA"/>
			<stop  offset="0.3982337" style="stop-color:#44A0CE"/>
			<stop  offset="0.6954401" style="stop-color:#357DB9"/>
			<stop  offset="1" style="stop-color:#2351A0"/>
		</linearGradient>
		<path style="fill:url(#SVGID_9_);" d="M55.3398018,1.88574c0,0-7.6787033,9.4609594-7.6787033,15.1381588
			c0,5.6753006,4.8145027,8.3247013,8.4395027,8.3247013c3.6210976,0,6.3876991-4.4155006,6.3876991-7.8213005
			C62.4883003,10.5897999,55.3398018,1.88574,55.3398018,1.88574z"/>
		<path style="fill:#234E9E;" d="M56.1005859,25.8486328c-3.7119141,0-8.9394531-2.737793-8.9394531-8.824707
			c0-5.7880859,7.4726563-15.0615234,7.7900391-15.453125l0.3867188-0.4755859l0.3886719,0.4731445
			c0.2958984,0.3613281,7.2617188,8.9233398,7.2617188,15.9589844
			C62.9882813,21.2963867,59.9160156,25.8486328,56.1005859,25.8486328z M55.3398438,2.6953125
			c-1.546875,2.0019531-7.1787109,9.6166992-7.1787109,14.3286133c0,5.3969727,4.6425781,7.824707,7.9394531,7.824707
			c3.1708984,0,5.8876953-4.0258789,5.8876953-7.3212891C61.9882813,11.7675781,56.8125,4.6137695,55.3398438,2.6953125z"/>
	</g>
</g>
<g>
</g>
<g>
</g>
<g>
</g>
<g>
</g>
<g>
</g>
<g>
</g>
</svg>
