<?xml version="1.0" encoding="utf-8"?>
<!-- Generator: Adobe Illustrator 17.0.0, SVG Export Plug-In . SVG Version: 6.00 Build 0)  -->
<!DOCTYPE svg PUBLIC "-//W3C//DTD SVG 1.1//EN" "http://www.w3.org/Graphics/SVG/1.1/DTD/svg11.dtd">
<svg version="1.1" id="レイヤー_1" xmlns="http://www.w3.org/2000/svg" xmlns:xlink="http://www.w3.org/1999/xlink" x="0px"
	 y="0px" width="64px" height="64px" viewBox="0 0 64 64" style="enable-background:new 0 0 64 64;" xml:space="preserve">
<g>
	
		<radialGradient id="SVGID_1_" cx="31.9668179" cy="27.9259529" r="26.1587734" gradientTransform="matrix(1 0 0 1.405269 0 -11.3175249)" gradientUnits="userSpaceOnUse">
		<stop  offset="0" style="stop-color:#F4E6D0"/>
		<stop  offset="0.45" style="stop-color:#F3E4CD"/>
		<stop  offset="1" style="stop-color:#F0DDC6"/>
	</radialGradient>
	<path style="fill:url(#SVGID_1_);" d="M51.2894936,5.75c0,0,6.8294601,10.4957523,8.1953545,26.6132813
		C60.8507385,48.4808121,52.3157578,60.0461159,41.125,57.5c-9.3209591-2.1207008-11.4343967-2.2225227-18.25-0.375
		C10.7207298,60.4196892,2.5,49.25,4.3027959,31.816925C5.6808515,18.4910984,11.1322575,5.75,11.1322575,5.75"/>
	<linearGradient id="SVGID_2_" gradientUnits="userSpaceOnUse" x1="31.8418274" y1="6.25" x2="31.8418274" y2="57.8518982">
		<stop  offset="0" style="stop-color:#E0C9AC;stop-opacity:0.4"/>
		<stop  offset="1" style="stop-color:#DCC2A7;stop-opacity:0.7"/>
	</linearGradient>
	<path style="fill:url(#SVGID_2_);" d="M59.4848633,32.3632813c-0.706543-8.3370972-2.8742676-15.1641235-4.8031616-19.8182373
		c0.9251709,3.7611084,1.7073975,8.1419067,2.0673828,13.0259399c1.2307129,16.6975708-6.4595947,28.6790771-16.5428467,26.0413208
		c-1.8705444-0.4893188-3.4069824-0.8688354-4.75177-1.1514893c-0.0147705-0.0456543-0.0324707-0.1079102-0.0480957-0.1582031
		C37.9421997,50.3595581,41.6553345,50.1148682,45.75,48.75c0,0-9.6002808,0.7729492-10.1875,0.3864746
		s-0.6793213-0.8584595-0.7880859-1.3989868C37.0061035,47.5321655,38.75,47.1686401,38.75,47.1686401
		s-1.8562622-0.3877563-4.190979-0.588562c-0.0900879-0.5183716-0.1804199-1.0727539-0.2694702-1.6974487
		C35.8293457,44.6737671,37,44.3433228,37,44.3433228s-1.2455444-0.350708-2.855835-0.5578003
		c-0.0632324-0.4998169-0.124939-1.0269165-0.1848145-1.5886841c1.3319702-0.2088013,2.3531494-0.5375977,2.3531494-0.5375977
		s-1.0759277-0.347168-2.4609375-0.5543823c-0.0494385-0.5215454-0.0965576-1.0681152-0.1417847-1.6396484
		C35.9137573,39.2839355,37.75,38.8338623,37.75,38.8338623s-1.8890381-0.4638672-4.1357422-0.6397095
		c-0.0345459-0.5057983-0.0670166-1.0305786-0.0975342-1.572998c1.6950073-0.1905518,3.083252-0.6126099,3.083252-0.6126099
		s-1.4222412-0.4314575-3.1447754-0.6185303c-0.0189209-0.3949585-0.0392456-0.7775879-0.0558472-1.190979
		c1.3074341-0.1997681,2.350647-0.592041,2.350647-0.592041s-1.0640869-0.4002075-2.3902588-0.5979614
		c-0.0171509-0.5178833-0.0344238-1.03479-0.0476685-1.5803223C35.305542,31.2593994,37,30.7816772,37,30.7816772
		s-1.7085571-0.4815063-3.7125854-0.6489868c-0.0090942-0.5106201-0.0175781-1.0238037-0.0230713-1.5577393
		C34.7626953,28.3879395,36,27.9562988,36,27.9562988s-1.2415161-0.4329834-2.7432861-0.6194458
		C33.2550049,26.9713745,33.25,26.6259766,33.25,26.25c0-0.026062,0.0005493-0.050293,0.0005493-0.0762939
		C34.7550659,26.0090332,36,25.625,36,25.625s-1.2405396-0.3827515-2.7414551-0.5479126
		c0.0054932-0.4703369,0.0143433-0.9291992,0.0261841-1.3776855C35.289917,23.5514526,37,23.125,37,23.125
		s-1.6882935-0.4212646-3.677002-0.5718384c0.019043-0.4804688,0.0413208-0.9486694,0.0673218-1.4029541
		C34.7022095,20.973877,35.75,20.625,35.75,20.625s-1.0134888-0.3355713-2.2927856-0.5146484
		c0.026062-0.3656616,0.0541992-0.7225342,0.0844727-1.0704346C35.2254639,18.8701782,36.5999756,18.5,36.5999756,18.5
		s-1.3185425-0.3571167-2.9562378-0.531189c0.0511475-0.4906616,0.1056519-0.9646606,0.1643066-1.4178467
		C35.9678345,16.3860474,37.75,16,37.75,16s-1.6992188-0.3682251-3.7901001-0.5391235
		c0.0811768-0.536499,0.1676636-1.0402832,0.2573242-1.5205688C35.4220581,13.7559204,36.3125,13.5,36.3125,13.5
		s-0.8088379-0.2327271-1.9265137-0.4142456c0.1160889-0.5535889,0.2362671-1.0684814,0.3590698-1.5427856
		C36.0537109,11.3610229,37,11.125,37,11.125s-0.8421631-0.2097168-2.0350342-0.3862305
		c0.1854248-0.6387939,0.3726807-1.1936035,0.5549927-1.6771851C37.3824463,8.8775024,38.75,8.625,38.75,8.625
		s-1.2044678-0.2219849-2.8895264-0.4014282C36.4972534,6.774353,37,6.25,37,6.25h-5h-5c0,0,0.5027466,0.524353,1.1395264,1.9735718
		C26.4545288,8.4030151,25.25,8.625,25.25,8.625s1.3675537,0.2525024,3.2300415,0.4365845
		c0.182312,0.4835815,0.3695679,1.0383911,0.5549927,1.6771851C27.8421631,10.9152832,27,11.125,27,11.125
		s0.9462891,0.2360229,2.2549438,0.4179688c0.1228027,0.4743042,0.242981,0.9891968,0.3590698,1.5427856
		C28.4963379,13.2672729,27.6875,13.5,27.6875,13.5s0.8904419,0.2559204,2.0952759,0.4403076
		c0.0896606,0.4802856,0.1761475,0.9840698,0.2573242,1.5205688C27.9492798,15.6317749,26.25,16,26.25,16
		s1.7821655,0.3860474,3.9419556,0.5509644c0.0586548,0.453186,0.1131592,0.9271851,0.1643066,1.4178467
		C28.7185669,18.1428833,27.4000244,18.5,27.4000244,18.5s1.3745117,0.3701782,3.0582886,0.539917
		c0.0302734,0.3479004,0.0584106,0.7047729,0.0844727,1.0704346C29.2634888,20.2894287,28.25,20.625,28.25,20.625
		s1.0477905,0.348877,2.3596802,0.5252075c0.026001,0.4542847,0.0482788,0.9224854,0.0673218,1.4029541
		C28.6882935,22.7037354,27,23.125,27,23.125s1.710083,0.4264526,3.715271,0.5744019
		c0.0118408,0.4484863,0.0206909,0.9073486,0.0261841,1.3776855C29.2405396,25.2422485,28,25.625,28,25.625
		s1.2449341,0.3840332,2.7494507,0.5487061C30.7494507,26.199707,30.75,26.223938,30.75,26.25
		c0,0.375061-0.0045776,0.722229-0.0062866,1.086853C29.2417603,27.5233154,28,27.9562988,28,27.9562988
		s1.237793,0.4317627,2.7365723,0.6187744c-0.0054321,0.5350342-0.0145264,1.0459595-0.0236206,1.5576172
		C28.7088013,30.3000488,27,30.7816772,27,30.7816772s1.6953735,0.4780273,3.6894531,0.6471558
		c-0.0132446,0.5463867-0.0308838,1.0615234-0.0480347,1.5800781C29.3146973,33.206665,28.25,33.6069946,28.25,33.6069946
		s1.0420532,0.3916626,2.3485718,0.5916138c-0.0162964,0.4055176-0.0335083,0.8034668-0.052063,1.1912231
		c-1.7233276,0.1869507-3.1464844,0.6187134-3.1464844,0.6187134s1.3873291,0.4217529,3.081604,0.6124268
		c-0.0304565,0.5407104-0.0621948,1.0689087-0.0966187,1.5732422C28.1386108,38.3700562,26.25,38.8338623,26.25,38.8338623
		s1.8378296,0.4504395,4.0430908,0.6315918c-0.045166,0.5715942-0.0925293,1.1173096-0.1419067,1.6389771
		C28.7647705,41.3115845,27.6875,41.6592407,27.6875,41.6592407s1.0206299,0.3286133,2.3521118,0.5374146
		c-0.0595703,0.55896-0.1206665,1.0912476-0.1835938,1.5888062C28.2456665,43.9925537,27,44.3433228,27,44.3433228
		s1.1695557,0.3301392,2.708252,0.5390015c-0.0880737,0.6167603-0.1769409,1.1846924-0.2660522,1.6976318
		C27.1069336,46.7807007,25.25,47.1686401,25.25,47.1686401s1.7437744,0.3635254,3.9754028,0.5688477
		c-0.1118164,0.5553589-0.1343994,0.6218872-0.7879028,1.4421997S22.9536743,49.421936,18.25,48.75
		c0,0,3.1134644,1.5444336,8.7070923,1.5921631c-0.9591675,0.2189331-1.9902954,0.5062866-3.1946411,0.8816528
		c-10.951416,3.413269-18.3585205-8.1583862-16.7341919-26.218811C7.5443726,19.2667236,8.6945801,13.6367798,9.8626099,9.012207
		c-1.697937,4.6296387-4.6053467,13.5750732-5.5598145,22.8046875C2.5,49.25,10.7207642,60.4196777,22.875,57.125
		c6.8156128-1.8475342,8.9290161-1.7457275,18.25,0.375C52.3157349,60.0460815,60.850769,48.4807739,59.4848633,32.3632813z"/>
	<linearGradient id="SVGID_3_" gradientUnits="userSpaceOnUse" x1="51.986248" y1="5.75" x2="51.986248" y2="39">
		<stop  offset="0" style="stop-color:#DCC2A7;stop-opacity:0.7"/>
		<stop  offset="1" style="stop-color:#E0C9AC;stop-opacity:0.4"/>
	</linearGradient>
	<path style="fill:url(#SVGID_3_);" d="M50.3009033,5.75h-1.2858887C55.2458496,18.6365356,53.125,39,53.125,39
		C57.7949829,25.4051514,52.3019409,10.4425049,50.3009033,5.75z"/>
	
		<linearGradient id="SVGID_4_" gradientUnits="userSpaceOnUse" x1="92.3760147" y1="5.75" x2="92.3760147" y2="39" gradientTransform="matrix(-0.851082 0 0 1 90.7308121 0)">
		<stop  offset="0" style="stop-color:#DCC2A7;stop-opacity:0.7"/>
		<stop  offset="1" style="stop-color:#E0C9AC;stop-opacity:0.4"/>
	</linearGradient>
	<path style="fill:url(#SVGID_4_);" d="M13.5456181,5.75h1.0943966C9.3370628,18.6365356,11.1420803,39,11.1420803,39
		C7.167542,25.4051514,11.8425713,10.4425049,13.5456181,5.75z"/>
</g>
<path style="fill:#3E3A39;" d="M51.2894936,5.75c0,0,1.3433037,1.8933163,3.0807266,5.5600863
	c0.862175,1.8340111,1.7872314,4.1202898,2.6755524,6.8044882c0.8986244,2.6811981,1.6734085,5.78722,2.2664185,9.2208748
	c0.5732346,3.4279556,1.0421753,7.2206841,0.7162437,11.243515c-0.3078384,3.9974289-1.2810516,8.2581215-3.5436134,12.1007538
	c-1.1342545,1.90242-2.5939026,3.702282-4.4599724,5.0824165c-1.847496,1.3855972-4.0971031,2.3545685-6.4705391,2.5856476
	c-1.1820488,0.1255188-2.3816719,0.0876274-3.5596962-0.0881882c-1.1939964-0.2026482-2.268013-0.4846268-3.3996506-0.7126656
	c-2.2367096-0.4728012-4.4906425-0.9254112-6.7320023-1.0711136c-2.2405567-0.1699219-4.4620934,0.1488228-6.6733952,0.6739273
	c-1.0905056,0.2507553-2.2223873,0.5813065-3.3429012,0.820652c-1.1917038,0.2273293-2.3651123,0.3300896-3.5522079,0.296608
	c-2.3715096-0.0641823-4.7072096-0.8167915-6.6542454-2.0911713c-1.9360237-1.2965355-3.4915714-3.0466919-4.6188669-4.9643898
	c-2.2823124-3.8536758-3.1394892-8.153698-3.395606-12.1452141c-0.1243343-2.0070419-0.087697-3.9630013,0.0505533-5.8436699
	c0.0715294-0.935009,0.1727018-1.8715992,0.302001-2.7577114c0.1060514-0.8911076,0.2467566-1.7707157,0.3961949-2.6332378
	c0.5901599-3.4385033,1.3111172-6.542099,2.0996699-9.2538452c0.7838416-2.7114,1.558445-5.0453262,2.253046-6.9458513
	C10.1280212,7.833663,11.1322575,5.75,11.1322575,5.75s-0.1945429,0.5433226-0.5593109,1.5620527
	c-0.359952,1.0196657-0.8751812,2.5199108-1.4606495,4.4499054c-0.5931101,1.9268513-1.2890849,4.274045-1.9555602,6.9978876
	c-0.6569242,2.7230186-1.3696585,5.8107033-1.8703637,9.2098503c-0.494935,3.4099007-0.9047003,7.1187668-0.6286125,11.0295639
	c0.2644305,3.8810921,1.1307402,8.0298004,3.3013272,11.6468544c1.0704017,1.8027229,2.5257287,3.4102745,4.298862,4.5870132
	c1.7859211,1.1524544,3.8977661,1.8249893,6.0742664,1.874527c1.0838604,0.0267677,2.1924591-0.0795479,3.2477474-0.2832603
	c1.1160774-0.2435608,2.1858025-0.5659218,3.3341713-0.8375931c2.2504959-0.5474739,4.6500454-0.9194832,7.0261822-0.7348366
	c2.3681774,0.1688652,4.6513653,0.6459312,6.9066067,1.1347237c1.1204376,0.2329521,2.2677803,0.5354118,3.3297043,0.7184448
	c1.0834923,0.1663437,2.1794052,0.2055397,3.256691,0.0966339c2.1618385-0.1997147,4.2093124-1.0681725,5.9231262-2.3384933
	c1.728817-1.2639656,3.1098938-2.9429359,4.1935387-4.7414894c2.1652565-3.6326332,3.1372604-7.7428436,3.4524651-11.6226082
	c0.3228035-3.9014091-0.098465-7.6210175-0.5862198-11.0196075c-0.5088158-3.4020252-1.2684135-6.4693451-2.027195-9.161747
	c-0.7704506-2.6912479-1.6228485-4.9842739-2.3787613-6.8498421C52.4811745,7.7397366,51.2894936,5.75,51.2894936,5.75z"/>
<g>
</g>
<g>
</g>
<g>
</g>
<g>
</g>
<g>
</g>
<g>
</g>
</svg>
