<?xml version="1.0" encoding="utf-8"?>
<!-- Generator: Adobe Illustrator 15.0.2, SVG Export Plug-In . SVG Version: 6.00 Build 0)  -->
<!DOCTYPE svg PUBLIC "-//W3C//DTD SVG 1.1//EN" "http://www.w3.org/Graphics/SVG/1.1/DTD/svg11.dtd">
<svg version="1.1" id="レイヤー_1" xmlns="http://www.w3.org/2000/svg" xmlns:xlink="http://www.w3.org/1999/xlink" x="0px"
	 y="0px" width="64px" height="64px" viewBox="0 0 64 64" style="enable-background:new 0 0 64 64;" xml:space="preserve">
<g>
	
		<radialGradient id="SVGID_1_" cx="13.7739258" cy="49.5146484" r="15.3684034" gradientTransform="matrix(1.8166306 0.2153712 -0.1050934 0.8865618 13.6253891 -5.5508499)" gradientUnits="userSpaceOnUse">
		<stop  offset="0" style="stop-color:#595959"/>
		<stop  offset="1" style="stop-color:#414141;stop-opacity:0"/>
	</radialGradient>
	<path style="fill:url(#SVGID_1_);" d="M61.6748047,44.6601563c-0.9599609,8.1396484-14.3847656,13.2470703-29.9799805,11.3994141
		C16.1035156,54.2070313,4.246582,46.1054688,5.2119141,37.9677734
		c0.9663086-8.1464844,14.3881836-13.2514648,29.9804688-11.4038086
		C50.7861328,28.4116211,62.6386719,36.5175781,61.6748047,44.6601563z"/>
	<g>
		<g>
			<g>
				<linearGradient id="SVGID_2_" gradientUnits="userSpaceOnUse" x1="4.5307617" y1="27.7817383" x2="21.6199169" y2="31.1084232">
					<stop  offset="0" style="stop-color:#26141A"/>
					<stop  offset="0.0188012" style="stop-color:#231218"/>
					<stop  offset="0.1923772" style="stop-color:#090506"/>
					<stop  offset="0.29697" style="stop-color:#000000"/>
					<stop  offset="1" style="stop-color:#000D00"/>
				</linearGradient>
				<path style="fill:url(#SVGID_2_);" d="M4.5131836,19.9726563l1.1987305,13.9882813
					c0,3.53125,2.6113281,6.3945313,7.3100586,6.3945313c4.6992188,0,7.3100586-2.8632813,7.3100586-6.3945313l1.1987305-13.9882813
					H4.5131836z"/>
				<path d="M13.0219727,40.8125c-4.6455078,0-7.7666016-2.7539063-7.7666016-6.8515625L4.0581055,20.0117188
					c-0.0107422-0.1274414,0.0322266-0.2539063,0.1186523-0.3481445s0.2084961-0.1474609,0.3364258-0.1474609h17.0175781
					c0.1279297,0,0.25,0.0532227,0.3364258,0.1474609s0.1293945,0.2207031,0.1186523,0.3481445L20.7871094,34
					C20.7885742,38.0585938,17.6674805,40.8125,13.0219727,40.8125z M5.0107422,20.4291992l1.15625,13.4926758
					c0.0014648,3.5908203,2.7558594,5.9765625,6.8549805,5.9765625s6.8535156-2.3857422,6.8535156-5.9375l1.1577148-13.5317383
					H5.0107422z"/>
			</g>
			<g>
				<ellipse style="fill:#FFFFFF;" cx="13.0219727" cy="19.9726563" rx="8.5087891" ry="6.3950195"/>
				<path style="fill:#231815;" d="M13.0219727,26.7939453c-4.9267578,0-8.9350586-3.0600586-8.9350586-6.8212891
					s4.0083008-6.8208008,8.9350586-6.8208008s8.9350586,3.0595703,8.9350586,6.8208008
					S17.9487305,26.7939453,13.0219727,26.7939453z M13.0219727,14.0043945c-4.456543,0-8.0825195,2.6772461-8.0825195,5.9682617
					s3.6259766,5.96875,8.0825195,5.96875s8.0825195-2.6777344,8.0825195-5.96875S17.4785156,14.0043945,13.0219727,14.0043945z"/>
			</g>
			<g>
				<g>
					<linearGradient id="SVGID_3_" gradientUnits="userSpaceOnUse" x1="7.9467773" y1="18.265625" x2="22.6967773" y2="22.640625">
						<stop  offset="0" style="stop-color:#FF0000"/>
						<stop  offset="0.3157397" style="stop-color:#FF3333"/>
						<stop  offset="0.6192333" style="stop-color:#FF5C5C"/>
						<stop  offset="0.8570942" style="stop-color:#FF7676"/>
						<stop  offset="1" style="stop-color:#FF7F7F"/>
					</linearGradient>
					<path style="fill:url(#SVGID_3_);" d="M16.5175781,21.3759766l-6.0576172,1.625c0,0-0.7895508-3.1948242-1.3173828-4.5
						c1.6181641-1.7929688,4.625-2.0996094,6.7299805-1.875C16.6679688,19.78125,16.5175781,21.3759766,16.5175781,21.3759766z"/>
					<path style="fill:#3F0505;" d="M10.2070313,23.4291992l-0.0849609-0.3447266
						c-0.0078125-0.0317383-0.7895508-3.1855469-1.3022461-4.453125l-0.081543-0.2016602l0.1459961-0.1621094
						c1.612793-1.7871094,4.3041992-2.0537109,5.7651367-2.0537109c0.425293,0,0.8491211,0.0219727,1.2602539,0.065918
						l0.2412109,0.0258789l0.059082,0.2353516c0.8007813,3.1767578,0.6606445,4.800293,0.6542969,4.8676758l-0.0229492,0.2407227
						L10.2070313,23.4291992z M9.546875,18.5810547c0.4228516,1.1337891,0.9570313,3.1777344,1.1645508,3.9921875
						l5.4682617-1.4667969c0.0058594-0.5268555-0.043457-1.9257813-0.5854492-4.1572266
						c-0.3105469-0.0263672-0.6269531-0.0395508-0.9448242-0.0395508
						C13.6010742,16.909668,11.0561523,17.0766602,9.546875,18.5810547z"/>
				</g>
				<path style="fill:#FFC2C2;" d="M10,21.2426758c0,0,0.4912109-3.6567383,2.0200195-4.3579102l1.0976563-0.21875
					c0,0-2.394043,0.2119141-2.8251953,5.6772461L10,21.2426758z"/>
				<path style="fill:#FFC2C2;" d="M12.1269531,22.5537109c0,0-0.7700195-4.0742188,3.046875-5.8876953l0.6987305-0.0400391
					c0,0-3.9370117,0.9804688-3.0366211,5.737793L12.1269531,22.5537109z"/>
				<polygon style="fill:#FFC2C2;" points="13.9677734,22.0600586 16.3422852,18.9174805 15.2426758,21.7177734 				"/>
				<path style="fill:#3F0505;" d="M10.2070313,23.4291992l-0.0849609-0.3447266
					c-0.0078125-0.0317383-0.7895508-3.1855469-1.3022461-4.453125l-0.081543-0.2016602l0.1459961-0.1621094
					c1.612793-1.7871094,4.3041992-2.0537109,5.7651367-2.0537109c0.425293,0,0.8491211,0.0219727,1.2602539,0.065918
					l0.2412109,0.0258789l0.059082,0.2353516c0.8007813,3.1767578,0.6606445,4.800293,0.6542969,4.8676758l-0.0229492,0.2407227
					L10.2070313,23.4291992z M9.546875,18.5810547c0.4228516,1.1337891,0.9570313,3.1777344,1.1645508,3.9921875
					l5.4682617-1.4667969c0.0058594-0.5268555-0.043457-1.9257813-0.5854492-4.1572266
					c-0.3105469-0.0263672-0.6269531-0.0395508-0.9448242-0.0395508
					C13.6010742,16.909668,11.0561523,17.0766602,9.546875,18.5810547z"/>
			</g>
		</g>
		<g>
			<g>
				
					<linearGradient id="SVGID_4_" gradientUnits="userSpaceOnUse" x1="21.5483398" y1="27.7822266" x2="38.6374931" y2="31.1089115">
					<stop  offset="0" style="stop-color:#26141A"/>
					<stop  offset="0.0188012" style="stop-color:#231218"/>
					<stop  offset="0.1923772" style="stop-color:#090506"/>
					<stop  offset="0.29697" style="stop-color:#000000"/>
					<stop  offset="1" style="stop-color:#000D00"/>
				</linearGradient>
				<path style="fill:url(#SVGID_4_);" d="M21.5307617,19.9726563l1.1987305,13.9882813
					c0,3.53125,2.6108398,6.3945313,7.3100586,6.3945313c4.699707,0,7.3110352-2.8632813,7.3110352-6.3945313l1.1972656-13.9882813
					H21.5307617z"/>
				<path d="M30.0395508,40.8125c-4.6455078,0-7.7666016-2.7539063-7.7666016-6.8515625l-1.1972656-13.9492188
					c-0.0107422-0.1274414,0.0322266-0.2539063,0.1186523-0.3481445s0.2084961-0.1474609,0.3364258-0.1474609h17.0170898
					c0.1279297,0,0.25,0.0532227,0.3369141,0.1474609c0.0859375,0.0942383,0.1289063,0.2207031,0.1181641,0.3481445L37.8056641,34
					C37.8076172,38.0585938,34.6855469,40.8125,30.0395508,40.8125z M22.0283203,20.4291992l1.15625,13.4926758
					c0.0014648,3.5908203,2.7558594,5.9765625,6.8549805,5.9765625c4.1000977,0,6.8540039-2.3857422,6.8540039-5.9375
					l1.1572266-13.5317383H22.0283203z"/>
			</g>
			<g>
				<ellipse style="fill:#FFFFFF;" cx="30.0393066" cy="19.9726563" rx="8.5085449" ry="6.3950195"/>
				<path style="fill:#231815;" d="M30.0395508,26.7939453c-4.9267578,0-8.9350586-3.0600586-8.9350586-6.8212891
					s4.0083008-6.8208008,8.9350586-6.8208008c4.9262695,0,8.9350586,3.0595703,8.9350586,6.8208008
					S34.9658203,26.7939453,30.0395508,26.7939453z M30.0395508,14.0043945c-4.456543,0-8.0825195,2.6772461-8.0825195,5.9682617
					s3.6259766,5.96875,8.0825195,5.96875s8.081543-2.6777344,8.081543-5.96875S34.4960938,14.0043945,30.0395508,14.0043945z"/>
			</g>
			<g>
				<g>
					
						<linearGradient id="SVGID_5_" gradientUnits="userSpaceOnUse" x1="25.1503906" y1="18.2651367" x2="39.9003906" y2="22.6401367">
						<stop  offset="0" style="stop-color:#FF0000"/>
						<stop  offset="0.3157397" style="stop-color:#FF3333"/>
						<stop  offset="0.6192333" style="stop-color:#FF5C5C"/>
						<stop  offset="0.8570942" style="stop-color:#FF7676"/>
						<stop  offset="1" style="stop-color:#FF7F7F"/>
					</linearGradient>
					<path style="fill:url(#SVGID_5_);" d="M33.7207031,21.3759766l-6.0576172,1.625c0,0-0.7895508-3.1948242-1.3173828-4.5
						c1.6181641-1.7929688,4.625-2.0996094,6.7304688-1.875C33.8710938,19.78125,33.7207031,21.3759766,33.7207031,21.3759766z"/>
					<path style="fill:#3F0505;" d="M27.4101563,23.4291992l-0.0849609-0.3447266
						c-0.0078125-0.0317383-0.7895508-3.1855469-1.3022461-4.453125l-0.081543-0.2016602l0.1459961-0.1621094
						c1.612793-1.7871094,4.3046875-2.0537109,5.765625-2.0537109c0.425293,0,0.8491211,0.0219727,1.2602539,0.065918
						l0.2412109,0.0258789l0.0595703,0.2353516c0.7998047,3.1767578,0.6591797,4.800293,0.6533203,4.8676758l-0.0224609,0.2407227
						L27.4101563,23.4291992z M26.75,18.5810547c0.4228516,1.1337891,0.9570313,3.1777344,1.1645508,3.9921875l5.4682617-1.4667969
						c0.0058594-0.5273438-0.0429688-1.9257813-0.5854492-4.1572266c-0.3100586-0.0263672-0.6264648-0.0395508-0.9443359-0.0395508
						C30.8041992,16.909668,28.2592773,17.0766602,26.75,18.5810547z"/>
				</g>
				<path style="fill:#FFC2C2;" d="M33.0761719,17.8125c0,0-2.234375,1.8125-1.9052734,4h0.9223633
					c0,0-0.769043-2.625,1.3500977-3.1875L33.0761719,17.8125z"/>
				<path style="fill:#FFC2C2;" d="M27.203125,21.2421875c0,0,0.4912109-3.65625,2.0200195-4.3574219l1.0976563-0.21875
					c0,0-2.394043,0.2119141-2.8251953,5.6777344L27.203125,21.2421875z"/>
				<path style="fill:#FFC2C2;" d="M29.3300781,22.5537109c0,0-0.7700195-4.0742188,3.046875-5.8876953l0.6992188-0.0400391
					c0,0-3.9375,0.9804688-3.0371094,5.7373047L29.3300781,22.5537109z"/>
				<path style="fill:#3F0505;" d="M27.4101563,23.4291992l-0.0849609-0.3447266
					c-0.0078125-0.0317383-0.7895508-3.1855469-1.3022461-4.453125l-0.081543-0.2016602l0.1459961-0.1621094
					c1.612793-1.7871094,4.3046875-2.0537109,5.765625-2.0537109c0.425293,0,0.8491211,0.0219727,1.2602539,0.065918
					l0.2412109,0.0258789l0.0595703,0.2353516c0.7998047,3.1767578,0.6591797,4.800293,0.6533203,4.8676758l-0.0224609,0.2407227
					L27.4101563,23.4291992z M26.75,18.5810547c0.4228516,1.1337891,0.9570313,3.1777344,1.1645508,3.9921875l5.4682617-1.4667969
					c0.0058594-0.5273438-0.0429688-1.9257813-0.5854492-4.1572266c-0.3100586-0.0263672-0.6264648-0.0395508-0.9443359-0.0395508
					C30.8041992,16.909668,28.2592773,17.0766602,26.75,18.5810547z"/>
			</g>
		</g>
		<g>
			<g>
				
					<linearGradient id="SVGID_6_" gradientUnits="userSpaceOnUse" x1="38.5664063" y1="27.7822266" x2="55.6555595" y2="31.1089115">
					<stop  offset="0" style="stop-color:#26141A"/>
					<stop  offset="0.0188012" style="stop-color:#231218"/>
					<stop  offset="0.1923772" style="stop-color:#090506"/>
					<stop  offset="0.29697" style="stop-color:#000000"/>
					<stop  offset="1" style="stop-color:#000D00"/>
				</linearGradient>
				<path style="fill:url(#SVGID_6_);" d="M38.5478516,19.9726563l1.1992188,13.9882813
					c0,3.53125,2.6103516,6.3945313,7.3105469,6.3945313c4.6992188,0,7.3105469-2.8632813,7.3105469-6.3945313l1.1972656-13.9882813
					H38.5478516z"/>
				<path d="M47.0576172,40.8125c-4.6455078,0-7.7675781-2.7539063-7.7675781-6.8515625l-1.1972656-13.9492188
					c-0.0107422-0.1274414,0.0322266-0.2539063,0.1181641-0.3481445c0.0869141-0.0942383,0.2089844-0.1474609,0.3369141-0.1474609
					h17.0175781c0.1279297,0,0.25,0.0532227,0.3369141,0.1474609c0.0859375,0.0942383,0.1289063,0.2207031,0.1181641,0.3481445
					L54.8232422,34C54.8251953,38.0585938,51.703125,40.8125,47.0576172,40.8125z M39.0449219,20.4291992l1.1572266,13.4926758
					c0.0019531,3.5908203,2.7558594,5.9765625,6.8554688,5.9765625s6.8535156-2.3857422,6.8535156-5.9375l1.1572266-13.5317383
					H39.0449219z"/>
			</g>
			<g>
				<ellipse style="fill:#FFFFFF;" cx="47.0566406" cy="19.9726563" rx="8.5087891" ry="6.3950195"/>
				<path style="fill:#231815;" d="M47.0576172,26.7939453c-4.9277344,0-8.9365234-3.0600586-8.9365234-6.8212891
					s4.0087891-6.8208008,8.9365234-6.8208008c4.9267578,0,8.9345703,3.0595703,8.9345703,6.8208008
					S51.984375,26.7939453,47.0576172,26.7939453z M47.0576172,14.0043945c-4.4570313,0-8.0830078,2.6772461-8.0830078,5.9682617
					s3.6259766,5.96875,8.0830078,5.96875c4.4560547,0,8.0810547-2.6777344,8.0810547-5.96875
					S51.5136719,14.0043945,47.0576172,14.0043945z"/>
			</g>
			<g>
				
					<linearGradient id="SVGID_7_" gradientUnits="userSpaceOnUse" x1="42.0019531" y1="18.2822266" x2="56.7537804" y2="22.6577682">
					<stop  offset="0" style="stop-color:#FF0000"/>
					<stop  offset="0.3157397" style="stop-color:#FF3333"/>
					<stop  offset="0.6192333" style="stop-color:#FF5C5C"/>
					<stop  offset="0.8570942" style="stop-color:#FF7676"/>
					<stop  offset="1" style="stop-color:#FF7F7F"/>
				</linearGradient>
				<path style="fill:url(#SVGID_7_);" d="M50.5732422,21.3930664l-6.0566406,1.625c0,0-0.7900391-3.1943359-1.3183594-4.4995117
					c1.8691406-1.2802734,4.625-2.0996094,6.7304688-1.875C50.7236328,19.7988281,50.5732422,21.3930664,50.5732422,21.3930664z"/>
				<path style="fill:#FFC2C2;" d="M44.0556641,21.2602539c0,0,0.4921875-3.6567383,2.0205078-4.3579102l1.0976563-0.21875
					c0,0-1.6601563,0.6513672-2.8251953,5.6782227L44.0556641,21.2602539z"/>
				<path style="fill:#FFC2C2;" d="M46.1826172,22.5708008c0,0,0.4716797-3.3652344,3.046875-5.887207l0.6992188-0.0400391
					c0,0-1.0507813,1.2338867-3.0371094,5.737793L46.1826172,22.5708008z"/>
				<polygon style="fill:#FFC2C2;" points="48.0244141,22.0786133 50.3984375,18.9350586 50.4199219,20.5063477 				"/>
				<path style="fill:#3F0505;" d="M44.2890625,23.4394531l-0.1025391-0.3125
					c-0.0087891-0.0253906-0.8388672-2.5473633-1.3261719-4.5249023l-0.0664063-0.2680664l0.2460938-0.1254883
					c1.9638672-1.0039063,4.5839844-2.1591797,6.9257813-1.9111328l0.2412109,0.0258789l0.0595703,0.2353516
					c0.7998047,3.1767578,0.6591797,4.7998047,0.6533203,4.8671875l-0.0224609,0.2407227L44.2890625,23.4394531z
					 M43.6035156,18.703125c0.3798828,1.4873047,0.9199219,3.2016602,1.1425781,3.8930664l5.4892578-1.4726563
					c0.0058594-0.5268555-0.0429688-1.9238281-0.5849609-4.1542969
					C47.6542969,16.8486328,45.3808594,17.809082,43.6035156,18.703125z"/>
			</g>
		</g>
		<g>
			<g>
				
					<linearGradient id="SVGID_8_" gradientUnits="userSpaceOnUse" x1="10.6484375" y1="39.6181641" x2="28.4669418" y2="43.0868301">
					<stop  offset="0" style="stop-color:#26141A"/>
					<stop  offset="0.0188012" style="stop-color:#231218"/>
					<stop  offset="0.1923772" style="stop-color:#090506"/>
					<stop  offset="0.29697" style="stop-color:#000000"/>
					<stop  offset="1" style="stop-color:#000D00"/>
				</linearGradient>
				<path style="fill:url(#SVGID_8_);" d="M10.5673828,31.796875l1.1982422,13.9873047
					c0,3.5322266,2.6113281,6.3955078,7.3105469,6.3955078s8.0195313-2.2617188,8.0195313-5.7939453l0.4892578-14.5888672
					H10.5673828z"/>
				<path d="M19.0761719,52.6367188c-4.6459961,0-7.7670898-2.7539063-7.7670898-6.8525391l-1.1967773-13.9482422
					c-0.0107422-0.1274414,0.0322266-0.2539063,0.1186523-0.3481445s0.2084961-0.1474609,0.3364258-0.1474609h17.0175781
					c0.1240234,0,0.2421875,0.050293,0.328125,0.1391602c0.0864258,0.0888672,0.1323242,0.2089844,0.128418,0.3325195
					l-0.4892578,14.5893555C27.5522461,50.1240234,24.1459961,52.6367188,19.0761719,52.6367188z M11.0649414,32.253418
					l1.1557617,13.4916992c0.0014648,3.5908203,2.7558594,5.9775391,6.8554688,5.9775391
					c4.5234375,0,7.5629883-2.1445313,7.5629883-5.3369141L27.112793,32.253418H11.0649414z"/>
			</g>
			<g>
				<ellipse style="fill:#FFFFFF;" cx="19.0761719" cy="31.796875" rx="8.5087891" ry="6.3945313"/>
				<path style="fill:#231815;" d="M19.0761719,38.6181641c-4.9267578,0-8.9350586-3.0605469-8.9350586-6.8212891
					c0-3.7612305,4.0083008-6.8212891,8.9350586-6.8212891s8.9350586,3.0600586,8.9350586,6.8212891
					C28.0112305,35.5576172,24.0029297,38.6181641,19.0761719,38.6181641z M19.0761719,25.828125
					c-4.456543,0-8.0825195,2.6777344-8.0825195,5.96875s3.6259766,5.9677734,8.0825195,5.9677734
					s8.0825195-2.6767578,8.0825195-5.9677734S23.5327148,25.828125,19.0761719,25.828125z"/>
			</g>
			<g>
				<linearGradient id="SVGID_9_" gradientUnits="userSpaceOnUse" x1="14.1875" y1="30.2802734" x2="28.9375" y2="34.6552734">
					<stop  offset="0" style="stop-color:#FF0000"/>
					<stop  offset="0.3157397" style="stop-color:#FF3333"/>
					<stop  offset="0.6192333" style="stop-color:#FF5C5C"/>
					<stop  offset="0.8570942" style="stop-color:#FF7676"/>
					<stop  offset="1" style="stop-color:#FF7F7F"/>
				</linearGradient>
				<path style="fill:url(#SVGID_9_);" d="M22.7583008,33.390625l-6.0576172,1.625c0,0-0.7895508-3.1943359-1.3173828-4.4995117
					c1.8686523-1.2802734,4.625-2.0996094,6.7299805-1.875C22.9086914,31.7963867,22.7583008,33.390625,22.7583008,33.390625z"/>
				<path style="fill:#FFC2C2;" d="M16.2407227,33.2578125c0,0,0.4912109-3.6567383,2.0200195-4.3579102l1.0976563-0.21875
					c0,0-1.6601563,0.6513672-2.8251953,5.6782227L16.2407227,33.2578125z"/>
				<path style="fill:#FFC2C2;" d="M18.3676758,34.5683594c0,0,0.4711914-3.3652344,3.046875-5.887207l0.6987305-0.0400391
					c0,0-1.0507813,1.2338867-3.0366211,5.737793L18.3676758,34.5683594z"/>
				<polygon style="fill:#FFC2C2;" points="20.2084961,34.0761719 22.5830078,30.9326172 22.6044922,32.5039063 				"/>
				<path style="fill:#3F0505;" d="M16.4731445,35.4365234L16.3701172,35.125
					c-0.0083008-0.0253906-0.8378906-2.5478516-1.324707-4.5258789l-0.065918-0.2675781l0.2451172-0.1254883
					c1.9638672-1.0039063,4.5795898-2.1601563,6.9257813-1.9111328l0.2412109,0.0258789l0.059082,0.2353516
					c0.8007813,3.1767578,0.6606445,4.7993164,0.6542969,4.8666992l-0.0229492,0.2412109L16.4731445,35.4365234z
					 M15.7885742,30.7006836c0.3793945,1.4873047,0.9189453,3.2016602,1.1411133,3.8930664l5.4907227-1.4726563
					c0.0058594-0.5268555-0.043457-1.9238281-0.5849609-4.1542969
					C19.8217773,28.8334961,17.5639648,29.8061523,15.7885742,30.7006836z"/>
			</g>
		</g>
		<g>
			<g>
				
					<linearGradient id="SVGID_10_" gradientUnits="userSpaceOnUse" x1="27.6889648" y1="39.6542969" x2="45.8416367" y2="43.188015">
					<stop  offset="0" style="stop-color:#26141A"/>
					<stop  offset="0.0188012" style="stop-color:#231218"/>
					<stop  offset="0.1923772" style="stop-color:#090506"/>
					<stop  offset="0.29697" style="stop-color:#000000"/>
					<stop  offset="1" style="stop-color:#000D00"/>
				</linearGradient>
				<path style="fill:url(#SVGID_10_);" d="M27.5849609,31.796875v14.5888672c0,3.5322266,3.809082,5.7939453,8.5087891,5.7939453
					c4.6992188,0,8.5087891-2.8554688,8.5087891-6.3876953V31.796875H27.5849609z"/>
				<path d="M36.09375,52.6367188c-5.1948242,0-8.965332-2.6289063-8.965332-6.2509766V31.796875
					c0-0.2524414,0.2041016-0.456543,0.456543-0.456543h17.0175781c0.2519531,0,0.4570313,0.2041016,0.4570313,0.456543v13.9951172
					C45.0595703,49.5664063,41.0371094,52.6367188,36.09375,52.6367188z M28.0415039,32.253418v14.1323242
					c0,3.0927734,3.3867188,5.3369141,8.0522461,5.3369141c4.4394531,0,8.0517578-2.6601563,8.0517578-5.9306641V32.253418
					H28.0415039z"/>
			</g>
			<g>
				<ellipse style="fill:#FFFFFF;" cx="36.09375" cy="31.796875" rx="8.5087891" ry="6.3945313"/>
				<path style="fill:#231815;" d="M36.09375,38.6181641c-4.9267578,0-8.9350586-3.0605469-8.9350586-6.8212891
					c0-3.7612305,4.0083008-6.8212891,8.9350586-6.8212891s8.9355469,3.0600586,8.9355469,6.8212891
					C45.0292969,35.5576172,41.0205078,38.6181641,36.09375,38.6181641z M36.09375,25.828125
					c-4.456543,0-8.0825195,2.6777344-8.0825195,5.96875s3.6259766,5.9677734,8.0825195,5.9677734
					c4.4570313,0,8.0820313-2.6767578,8.0820313-5.9677734S40.5507813,25.828125,36.09375,25.828125z"/>
			</g>
			<g>
				<g>
					
						<linearGradient id="SVGID_11_" gradientUnits="userSpaceOnUse" x1="30.8046875" y1="30.2651367" x2="45.5546875" y2="34.6401367">
						<stop  offset="0" style="stop-color:#FF0000"/>
						<stop  offset="0.3157397" style="stop-color:#FF3333"/>
						<stop  offset="0.6192333" style="stop-color:#FF5C5C"/>
						<stop  offset="0.8570942" style="stop-color:#FF7676"/>
						<stop  offset="1" style="stop-color:#FF7F7F"/>
					</linearGradient>
					<path style="fill:url(#SVGID_11_);" d="M39.375,33.3759766l-6.0576172,1.625c0,0-0.7900391-3.1948242-1.3173828-4.5
						c1.6181641-1.7929688,4.625-2.0996094,6.7304688-1.875C39.5253906,31.78125,39.375,33.3759766,39.375,33.3759766z"/>
					<path style="fill:#3F0505;" d="M33.0644531,35.4287109l-0.0849609-0.34375
						c-0.0078125-0.0322266-0.7900391-3.1865234-1.3022461-4.4536133l-0.081543-0.2016602l0.1459961-0.1621094
						c1.612793-1.7871094,4.3041992-2.0537109,5.7651367-2.0537109c0.4257813,0,0.8496094,0.0219727,1.2607422,0.065918
						l0.2412109,0.0258789l0.0595703,0.2353516c0.7998047,3.1767578,0.6591797,4.7998047,0.6533203,4.8671875l-0.0224609,0.2412109
						L33.0644531,35.4287109z M32.4042969,30.5810547c0.4228516,1.1337891,0.9570313,3.1777344,1.1640625,3.9921875
						l5.46875-1.4667969c0.0058594-0.5273438-0.0429688-1.9257813-0.5849609-4.1572266
						c-0.3105469-0.0263672-0.6269531-0.0395508-0.9453125-0.0395508
						C36.4589844,28.909668,33.9140625,29.0766602,32.4042969,30.5810547z"/>
				</g>
				<path style="fill:#FFC2C2;" d="M32.8574219,33.2421875c0,0,0.4912109-3.65625,2.0195313-4.3574219l1.0976563-0.21875
					c0,0-2.3935547,0.2119141-2.8242188,5.6777344L32.8574219,33.2421875z"/>
				<path style="fill:#FFC2C2;" d="M34.984375,34.5537109c0,0-0.7695313-4.0742188,3.046875-5.8876953l0.6992188-0.0400391
					c0,0-3.9375,0.9804688-3.0371094,5.7373047L34.984375,34.5537109z"/>
				<polygon style="fill:#FFC2C2;" points="36.8251953,34.0605469 39.1992188,30.9174805 38.0996094,33.7177734 				"/>
				<path style="fill:#3F0505;" d="M33.0644531,35.4287109l-0.0849609-0.34375
					c-0.0078125-0.0322266-0.7900391-3.1865234-1.3022461-4.4536133l-0.081543-0.2016602l0.1459961-0.1621094
					c1.612793-1.7871094,4.3041992-2.0537109,5.7651367-2.0537109c0.4257813,0,0.8496094,0.0219727,1.2607422,0.065918
					l0.2412109,0.0258789l0.0595703,0.2353516c0.7998047,3.1767578,0.6591797,4.7998047,0.6533203,4.8671875l-0.0224609,0.2412109
					L33.0644531,35.4287109z M32.4042969,30.5810547c0.4228516,1.1337891,0.9570313,3.1777344,1.1640625,3.9921875
					l5.46875-1.4667969c0.0058594-0.5273438-0.0429688-1.9257813-0.5849609-4.1572266
					c-0.3105469-0.0263672-0.6269531-0.0395508-0.9453125-0.0395508
					C36.4589844,28.909668,33.9140625,29.0766602,32.4042969,30.5810547z"/>
			</g>
		</g>
		<g>
			<g>
				
					<linearGradient id="SVGID_12_" gradientUnits="userSpaceOnUse" x1="44.6191406" y1="39.6132813" x2="61.7082939" y2="42.9399681">
					<stop  offset="0" style="stop-color:#26141A"/>
					<stop  offset="0.0188012" style="stop-color:#231218"/>
					<stop  offset="0.1923772" style="stop-color:#090506"/>
					<stop  offset="0.29697" style="stop-color:#000000"/>
					<stop  offset="1" style="stop-color:#000D00"/>
				</linearGradient>
				<path style="fill:url(#SVGID_12_);" d="M44.6025391,31.796875v13.9951172c0,3.5322266,3.8095703,6.3876953,8.5097656,6.3876953
					c4.6982422,0,7.3095703-2.8632813,7.3095703-6.3955078l1.1982422-13.9873047H44.6025391z"/>
				<path d="M53.1123047,52.6367188c-4.9443359,0-8.9667969-3.0703125-8.9667969-6.8447266V31.796875
					c0-0.2524414,0.2050781-0.456543,0.4570313-0.456543h17.0175781c0.1279297,0,0.25,0.0532227,0.3369141,0.1474609
					c0.0859375,0.0942383,0.1289063,0.2207031,0.1181641,0.3481445l-1.1982422,13.9873047
					C60.8789063,49.8828125,57.7578125,52.6367188,53.1123047,52.6367188z M45.0595703,32.253418v13.5385742
					c0,3.2705078,3.6123047,5.9306641,8.0527344,5.9306641c4.0986328,0,6.8525391-2.3867188,6.8525391-5.9384766
					l1.1582031-13.5307617H45.0595703z"/>
			</g>
			<g>
				<ellipse style="fill:#FFFFFF;" cx="53.1113281" cy="31.796875" rx="8.5087891" ry="6.3945313"/>
				<path style="fill:#231815;" d="M53.1123047,38.6181641c-4.9277344,0-8.9365234-3.0605469-8.9365234-6.8212891
					c0-3.7612305,4.0087891-6.8212891,8.9365234-6.8212891c4.9267578,0,8.9345703,3.0600586,8.9345703,6.8212891
					C62.046875,35.5576172,58.0390625,38.6181641,53.1123047,38.6181641z M53.1123047,25.828125
					c-4.4570313,0-8.0830078,2.6777344-8.0830078,5.96875s3.6259766,5.9677734,8.0830078,5.9677734
					c4.4560547,0,8.0810547-2.6767578,8.0810547-5.9677734S57.5683594,25.828125,53.1123047,25.828125z"/>
			</g>
			<g>
				<g>
					
						<linearGradient id="SVGID_13_" gradientUnits="userSpaceOnUse" x1="48.2216797" y1="30.2651367" x2="62.9735069" y2="34.6406784">
						<stop  offset="0" style="stop-color:#FF0000"/>
						<stop  offset="0.3157397" style="stop-color:#FF3333"/>
						<stop  offset="0.6192333" style="stop-color:#FF5C5C"/>
						<stop  offset="0.8570942" style="stop-color:#FF7676"/>
						<stop  offset="1" style="stop-color:#FF7F7F"/>
					</linearGradient>
					<path style="fill:url(#SVGID_13_);" d="M56.7929688,33.3759766l-6.0576172,1.625c0,0-0.7900391-3.1948242-1.3173828-4.5
						c1.6181641-1.7929688,4.625-2.0996094,6.7304688-1.875C56.9433594,31.78125,56.7929688,33.3759766,56.7929688,33.3759766z"/>
					<path style="fill:#3F0505;" d="M50.4824219,35.4287109l-0.0849609-0.34375
						c-0.0078125-0.0322266-0.7900391-3.1865234-1.3017578-4.4536133l-0.0820313-0.2016602l0.1455078-0.1621094
						c1.6132813-1.7871094,4.3046875-2.0537109,5.765625-2.0537109c0.4257813,0,0.8496094,0.0219727,1.2607422,0.065918
						l0.2412109,0.0258789l0.0595703,0.2353516c0.7998047,3.1767578,0.6591797,4.7998047,0.6533203,4.8671875l-0.0224609,0.2412109
						L50.4824219,35.4287109z M49.8222656,30.5810547c0.4228516,1.1337891,0.9570313,3.1777344,1.1640625,3.9921875
						l5.46875-1.4667969c0.0058594-0.5273438-0.0429688-1.9257813-0.5849609-4.1572266
						c-0.3105469-0.0263672-0.6269531-0.0395508-0.9453125-0.0395508
						C53.8769531,28.909668,51.3320313,29.0766602,49.8222656,30.5810547z"/>
				</g>
				<path style="fill:#FFC2C2;" d="M50.2753906,33.2421875c0,0,0.4912109-3.65625,2.0195313-4.3574219l1.0976563-0.21875
					c0,0-2.3935547,0.2119141-2.8242188,5.6777344L50.2753906,33.2421875z"/>
				<path style="fill:#FFC2C2;" d="M52.4023438,34.5537109c0,0-0.7695313-4.0742188,3.046875-5.8876953l0.6992188-0.0400391
					c0,0-3.9375,0.9804688-3.0371094,5.7373047L52.4023438,34.5537109z"/>
				<polygon style="fill:#FFC2C2;" points="54.2431641,34.0605469 56.6171875,30.9174805 55.5175781,33.7177734 				"/>
				<path style="fill:#3F0505;" d="M50.4824219,35.4287109l-0.0849609-0.34375
					c-0.0078125-0.0322266-0.7900391-3.1865234-1.3017578-4.4536133l-0.0820313-0.2016602l0.1455078-0.1621094
					c1.6132813-1.7871094,4.3046875-2.0537109,5.765625-2.0537109c0.4257813,0,0.8496094,0.0219727,1.2607422,0.065918
					l0.2412109,0.0258789l0.0595703,0.2353516c0.7998047,3.1767578,0.6591797,4.7998047,0.6533203,4.8671875l-0.0224609,0.2412109
					L50.4824219,35.4287109z M49.8222656,30.5810547c0.4228516,1.1337891,0.9570313,3.1777344,1.1640625,3.9921875
					l5.46875-1.4667969c0.0058594-0.5273438-0.0429688-1.9257813-0.5849609-4.1572266
					c-0.3105469-0.0263672-0.6269531-0.0395508-0.9453125-0.0395508
					C53.8769531,28.909668,51.3320313,29.0766602,49.8222656,30.5810547z"/>
			</g>
		</g>
	</g>
</g>
</svg>
