<?xml version="1.0" encoding="utf-8"?>
<!-- Generator: Adobe Illustrator 15.0.2, SVG Export Plug-In . SVG Version: 6.00 Build 0)  -->
<!DOCTYPE svg PUBLIC "-//W3C//DTD SVG 1.1//EN" "http://www.w3.org/Graphics/SVG/1.1/DTD/svg11.dtd">
<svg version="1.1" id="レイヤー_1" xmlns="http://www.w3.org/2000/svg" xmlns:xlink="http://www.w3.org/1999/xlink" x="0px"
	 y="0px" width="64px" height="64px" viewBox="0 0 64 64" style="enable-background:new 0 0 64 64;" xml:space="preserve">
<g>
	<path style="fill:#FFB997;" d="M-15.8295898,45.5058594c3.503418,11.3076172,9.7231445,15.2851563,15.8530273,15.2851563h7.9155273
		c6.1333008,0,13.715332-3.9775391,15.5654297-12.8291016l1.3999023-18.0942383
		c0-7.0864258-6.3725586-12.0576172-12.5039063-12.0576172H-4.7255859c-6.1323242,0-11.1040039,5.7407227-11.1040039,12.8276367
		V45.5058594z"/>
	<path style="fill:#40210F;" d="M7.9389648,62.2910156H0.0234375c-4.5649414,0-12.8808594-2.1230469-17.2856445-16.3408203
		l-0.0673828-0.2167969V30.6376953c0-7.9003906,5.6542969-14.3276367,12.6040039-14.3276367h17.1259766
		c6.7626953,0,14.0039063,5.4477539,14.0039063,13.5576172l-0.0043945,0.1157227l-1.4272461,18.2851563
		C22.9589844,57.9033203,14.7314453,62.2910156,7.9389648,62.2910156z M-14.3295898,45.2763672
		c2.894043,9.1699219,7.8540039,14.0146484,14.3530273,14.0146484h7.9155273
		c5.5966797,0,12.3735352-3.6123047,14.0776367-11.5429688l1.3876953-17.9365234
		c-0.0332031-6.284668-5.7055664-10.5014648-11.0039063-10.5014648H-4.7255859
		c-5.2958984,0-9.6040039,5.081543-9.6040039,11.3276367V45.2763672z"/>
</g>
<linearGradient id="SVGID_1_" gradientUnits="userSpaceOnUse" x1="-192.4599609" y1="39.4863281" x2="-187.215271" y2="46.8908272" gradientTransform="matrix(-1 0 0 1 -182.5195313 0)">
	<stop  offset="0" style="stop-color:#FFA67F"/>
	<stop  offset="0.0968745" style="stop-color:#FF967B"/>
	<stop  offset="0.3655038" style="stop-color:#FF7170"/>
	<stop  offset="0.6143154" style="stop-color:#FF5568"/>
	<stop  offset="0.8335769" style="stop-color:#FF4564"/>
	<stop  offset="1" style="stop-color:#FF3F62"/>
</linearGradient>
<ellipse style="fill:url(#SVGID_1_);" cx="7.6999512" cy="42.6484375" rx="3.2458496" ry="2.8574221"/>
<g>
	<path style="fill:#091463;" d="M17.1821289,33.6533203c1.5844727,0,2.9067383,1.2529297,3.3413086,2.9648438l-3.1420898,1.1826172
		l3.1420898,1.1865234c-0.4321289,1.7080078-1.7568359,2.9628906-3.3413086,2.9628906
		c-1.9355469,0-3.5039063-1.8564453-3.5039063-4.1464844C13.6782227,35.5078125,15.246582,33.6533203,17.1821289,33.6533203z"/>
	<g>
		<path style="fill:#091463;" d="M-3.9150391,33.6533203c1.5830078,0,2.90625,1.2529297,3.3393555,2.9648438l-3.1381836,1.1826172
			l3.1391602,1.1865234c-0.4326172,1.7080078-1.7573242,2.9628906-3.340332,2.9628906
			c-1.9370117,0-3.5053711-1.8564453-3.5053711-4.1464844C-7.4204102,35.5097656-5.8520508,33.6533203-3.9150391,33.6533203z"/>
	</g>
</g>
<path style="fill:#660011;" d="M13.465332,52.2929688c0,0-14.0102539-1.9609375-15.0302734-2.6142578
	c-1.0219727-0.65625-2.5126953-0.3291016,0,2.6142578C0.9438477,55.2353516,7.6879883,60.7910156,13.465332,52.2929688z"/>
<g>
	<polygon style="fill:#F5B32C;" points="25.1601563,22.097168 28.9365234,31.8066406 14.9125977,25.0639648 3.8383789,32.3466797 
		4.4179688,22.6376953 -9.5600586,32.8242188 -10.796875,26.7866211 -16.9501953,42.6484375 -21.2265625,29.3793945 
		-19.0664063,16.1645508 12.5893555,-0.8076172 13.465332,6.8647461 27.3183594,3.7583008 22.8359375,14.1015625 
		34.0605469,17.8100586 	"/>
	<path style="fill:#6A3906;" d="M-17.0810547,47.1328125l-5.684082-17.6381836l2.3378906-14.3022461L13.8291016-3.1743164
		l0.9370117,8.2099609l15.1010742-3.3862305l-5.0024414,11.5429688l13.190918,4.3579102l-10.9946289,5.2963867l4.6513672,11.9589844
		l-16.6850586-8.0219727L2.1625977,35.2441406l0.5683594-9.5209961l-13.2924805,9.6870117l-0.6811523-3.3261719
		L-17.0810547,47.1328125z M-19.6879883,29.2641602l2.8686523,8.8999023l6.4682617-16.6748047l1.7924805,8.7490234
		L6.1049805,19.5522461l-0.5908203,9.8969727l9.2832031-6.1049805l11.3632813,5.4633789l-2.9013672-7.4599609l6.8056641-3.277832
		l-9.2578125-3.0585938l3.9624023-9.144043L12.1645508,8.6938477L11.3496094,1.559082l-29.0551758,15.5776367
		L-19.6879883,29.2641602z"/>
</g>
<g>
	<path style="fill:#FFAA88;" d="M82.2548828,37.9355469c0,12.625-10.1435547,22.8554688-21.9560547,22.8554688
		c-12.1269531,0-21.9570313-10.2304688-21.9570313-22.8554688c0-12.6162109,9.8300781-22.8481445,21.9570313-22.8481445
		C72.4238281,15.0874023,82.2548828,25.3193359,82.2548828,37.9355469z"/>
	<path style="fill:#2B0F01;" d="M60.2988281,62.2910156c-12.9345703,0-23.4570313-10.9257813-23.4570313-24.3554688
		c0-13.4257813,10.5224609-24.3481445,23.4570313-24.3481445c12.9335938,0,23.4560547,10.9223633,23.4560547,24.3481445
		C83.7548828,51.1376953,73.0136719,62.2910156,60.2988281,62.2910156z M60.2988281,16.5874023
		c-11.2802734,0-20.4570313,9.5766602-20.4570313,21.3481445c0,11.7753906,9.1767578,21.3554688,20.4570313,21.3554688
		c11.0878906,0,20.4560547-9.7792969,20.4560547-21.3554688C80.7548828,26.1640625,71.578125,16.5874023,60.2988281,16.5874023z"/>
</g>
<g>
	<path style="fill:#3E3A39;" d="M47.8916016,13.2797852c-10.5253906,3.9462891-15.1269531,19.0727539-15.1269531,19.0727539
		l4.9316406-3.6176758l-1.1503906,9.2006836l8.9726563-14.3242188l13.8818359,8.0849609l-2.3017578-5.9204102l17.4726563,5.0126953
		l-1.4726563-7.8349609l3.7294922,16.2993164l2.3007813-5.2626953l1.5146484,12.3759766
		c0,0,5.7216797-8.2236328,4.4082031-16.5405273c-1.3173828-8.324707-5.5917969-15.5610352-9.5400391-14.7382813
		c0,0-1.3144531-5.425293-10.8505859-7.3989258c-9.5351563-1.9726563-22.6894531,3.6171875-22.6894531,3.6171875
		L47.8916016,13.2797852z"/>
	<path d="M79.6318359,50.4472656l-1.3251953-10.8310547l-1.9257813,4.4052734l-2.7314453-11.9370117l-14.0566406-4.0327148
		l2.7607422,7.1005859l-16.3349609-9.5136719L34.2158203,44.4814453l1.5595703-12.4775391l-5.7573242,4.2236328l1.3115234-4.3115234
		c0.1757813-0.5771484,3.9770508-12.7788086,12.6791992-18.3496094l-6.2705078-2.0913086l3.6464844-1.5498047
		c0.3994141-0.1699219,9.8876953-4.1582031,18.7978516-4.1582031c1.7216797,0,3.3300781,0.1518555,4.7822266,0.4526367
		c7.6826172,1.5898438,10.5400391,5.3701172,11.5283203,7.3173828c4.9335938,0.3779297,8.8369141,8.4492188,10.0400391,16.0541992
		c1.3916016,8.8120117-4.4111328,17.2758789-4.6582031,17.6313477L79.6318359,50.4472656z M79.9511719,28.3642578
		l1.6123047,13.1728516c1.3330078-2.9785156,2.6738281-7.2539063,2.0068359-11.4775391
		c-1.2265625-7.7470703-4.9384766-13.5361328-7.4375-13.5361328c-0.1074219,0-0.2099609,0.0107422-0.3154297,0.0322266
		l-1.421875,0.2963867l-0.3417969-1.4116211c-0.0458984-0.1640625-1.3427734-4.5541992-9.6962891-6.2832031
		c-1.2529297-0.2587891-2.6572266-0.3901367-4.1748047-0.3901367c-4.921875,0-10.1669922,1.3623047-13.6425781,2.4804688
		l5.8447266,1.9492188l-3.9667969,1.4873047c-6.0908203,2.2841797-10.1230469,8.7856445-12.2900391,13.3408203l3.4892578-2.559082
		l-0.7412109,5.9243164l6.1425781-9.8061523l11.4287109,6.6567383L54.6044922,23.5l18.0439453,5.1762695l-1.0244141-5.4458008
		l2.9365234-0.6113281l2.7148438,11.8652344L79.9511719,28.3642578z"/>
</g>
<linearGradient id="SVGID_2_" gradientUnits="userSpaceOnUse" x1="54.53125" y1="37.3730469" x2="60.0078049" y2="45.1048889">
	<stop  offset="0" style="stop-color:#FFA67F"/>
	<stop  offset="0.0968745" style="stop-color:#FF967B"/>
	<stop  offset="0.3655038" style="stop-color:#FF7170"/>
	<stop  offset="0.6143154" style="stop-color:#FF5568"/>
	<stop  offset="0.8335769" style="stop-color:#FF4564"/>
	<stop  offset="1" style="stop-color:#FF3F62"/>
</linearGradient>
<ellipse style="fill:url(#SVGID_2_);" cx="56.8696289" cy="40.6757813" rx="3.3891602" ry="2.9843752"/>
<g>
	<path style="fill:#160201;" d="M46.4208984,32.3476563c-1.65625,0-3.0371094,1.3046875-3.4912109,3.0898438l3.2802734,1.2373047
		l-3.2802734,1.2392578c0.4521484,1.7832031,1.8349609,3.09375,3.4912109,3.09375c2.0205078,0,3.6582031-1.9375,3.6582031-4.3300781
		C50.0791016,34.2802734,48.4414063,32.3476563,46.4208984,32.3476563z"/>
	<g>
		<path style="fill:#160201;" d="M68.4511719,32.3476563c-1.6533203,0-3.0361328,1.3046875-3.4873047,3.0898438l3.2792969,1.2373047
			l-3.2802734,1.2392578c0.4511719,1.7832031,1.8349609,3.09375,3.4882813,3.09375
			c2.0214844,0,3.6601563-1.9375,3.6601563-4.3300781C72.1113281,34.28125,70.4726563,32.3476563,68.4511719,32.3476563z"/>
	</g>
</g>
<path style="fill:#590215;" d="M50.8486328,52.2333984c0,0,14.6337891-2.0478516,15.6992188-2.7294922
	c1.0654297-0.6845703,2.6220703-0.3427734,0,2.7294922C63.9257813,55.3046875,56.8837891,61.109375,50.8486328,52.2333984z"/>
<g>
	<g>
		<linearGradient id="SVGID_3_" gradientUnits="userSpaceOnUse" x1="16.8989258" y1="-0.6918945" x2="43.8490105" y2="30.388113">
			<stop  offset="0" style="stop-color:#FFBFCA"/>
			<stop  offset="0.515152" style="stop-color:#FF0012"/>
			<stop  offset="0.5961746" style="stop-color:#FF0317"/>
			<stop  offset="0.6907248" style="stop-color:#FF0B25"/>
			<stop  offset="0.7920828" style="stop-color:#FF173C"/>
			<stop  offset="0.8974022" style="stop-color:#FF295D"/>
			<stop  offset="1" style="stop-color:#FF3F84"/>
		</linearGradient>
		<path style="fill:url(#SVGID_3_);" d="M32,13.3789063C22.8701172-9.4453125-6.6928711,18.3779297,32,39.015625
			C70.6933594,18.3779297,41.1289063-9.4453125,32,13.3789063z"/>
		<path style="fill:#D30000;" d="M32,40.4326172l-0.5883789-0.3144531
			C9.6445313,28.5083008,10.8613281,15.972168,11.7529297,12.40625C13.0527344,7.2080078,17.2919922,3.5776367,22.0625,3.5776367
			c3.9868164,0,7.5131836,2.4697266,9.9375,6.8710938c2.4238281-4.4013672,5.9501953-6.8710938,9.9365234-6.8710938
			c4.7705078,0,9.0097656,3.6303711,10.3095703,8.8286133c0.890625,3.565918,2.1083984,16.1030273-19.6577148,27.7119141
			L32,40.4326172z M22.0625,6.0776367c-3.6210938,0-6.8632813,2.8515625-7.8842773,6.9350586
			C13.4057617,16.1035156,12.4384766,26.9394531,32,37.5957031c19.5605469-10.6557617,18.5927734-21.4921875,17.8203125-24.5830078
			c-1.0205078-4.0834961-4.2626953-6.9350586-7.8837891-6.9350586c-3.6035156,0-6.8017578,2.8305664-8.7763672,7.765625
			L32,16.7446289l-1.1606445-2.9013672C28.8652344,8.9082031,25.6665039,6.0776367,22.0625,6.0776367z"/>
	</g>
	<path style="fill:#FFFFFF;" d="M18.9897461,10.9858398c2.3823242-3.0600586,6.0654297-0.3505859,3.2861328,3.2211914
		C19.4970703,17.7773438,16.6074219,14.0463867,18.9897461,10.9858398z"/>
	<path style="opacity:0.2;fill:#FFFFFF;" d="M31.5976563,33.7285156c6.9326172,2.0429688,20.3027344-16.0566406,15.1835938-18.0625
		c-4.8378906-1.8959961-3.3115234,11.6391602-10.6523438,12.4941406
		C28.7890625,29.015625,27.6723633,32.5678711,31.5976563,33.7285156z"/>
</g>
</svg>
