<?xml version="1.0" encoding="utf-8"?>
<!-- Generator: Adobe Illustrator 15.0.2, SVG Export Plug-In . SVG Version: 6.00 Build 0)  -->
<!DOCTYPE svg PUBLIC "-//W3C//DTD SVG 1.1//EN" "http://www.w3.org/Graphics/SVG/1.1/DTD/svg11.dtd">
<svg version="1.1" id="レイヤー_1" xmlns="http://www.w3.org/2000/svg" xmlns:xlink="http://www.w3.org/1999/xlink" x="0px"
	 y="0px" width="64px" height="64px" viewBox="0 0 64 64" style="enable-background:new 0 0 64 64;" xml:space="preserve">
<g>
	<path style="fill:#8A3606;" d="M64.5634766,6.4663086c0,0,12.3417969-2.4995117,18.3759766,5.4819336
		c6.0341797,7.9804688,7.9580078,18.4013672,4.65625,32.921875c-1.7578125,7.734375-9.0800781,16.3408203-9.0800781,16.3408203
		l0.2744141-21.9580078L56.6582031,21.8295898C56.6582031,21.8295898,46.2119141,9.515625,64.5634766,6.4663086z"/>
	<path style="fill:#4C0A02;" d="M77.0810547,65.0361328l0.3144531-25.1171875L55.6015625,22.7265625
		c-0.1933594-0.2280273-4.7070313-5.6323242-2.8369141-10.734375c1.2871094-3.512207,5.1806641-5.831543,11.5712891-6.8930664
		c0.0332031-0.0078125,1.9511719-0.3896484,4.6533203-0.3896484c4.6601563,0,11.0546875,1.1108398,15.0556641,6.402832
		c6.5429688,8.6538086,8.1464844,19.7963867,4.9023438,34.0654297c-1.8125,7.9736328-9.0683594,16.5693359-9.3759766,16.9316406
		L77.0810547,65.0361328z M57.6386719,20.8374023l22.5458984,17.7495117l-0.2304688,18.4619141
		c2.2207031-3.1210938,5.2705078-8.0029297,6.2900391-12.4863281c3.0517578-13.421875,1.609375-23.8168945-4.4101563-31.7783203
		c-3.3134766-4.3823242-8.8134766-5.3022461-12.8447266-5.3022461c-2.4072266,0-4.1347656,0.3398438-4.1523438,0.3432617
		c-5.3056641,0.8823242-8.5634766,2.6503906-9.46875,5.1210938C54.1748047,16.2016602,57.1210938,20.1757813,57.6386719,20.8374023z
		"/>
</g>
<g>
	<path style="fill:#8A3606;" d="M56.6582031,13.0703125l7.1699219-6.5444336c0,0-10.0791016-1.1386719-15.3085938,6.5444336
		C37.1181641,29.8232422,43.328125,48.0830078,44.90625,52.7490234L45.7832031,59.4375l10.875-13.8505859V13.0703125z"/>
	<path style="fill:#4C0A02;" d="M44.8378906,62.8867188l-1.2880859-9.8232422
		c-6.5371094-19.4511719-1.5322266-32.902832,3.8242188-40.7729492c4.4287109-6.5078125,12.0019531-7.2104492,15.0517578-7.2104492
		c0.9267578,0,1.4960938,0.0615234,1.5576172,0.0683594l3.0341797,0.3427734l-8.9736328,8.1904297v32.3847656L44.8378906,62.8867188
		z M60.1699219,7.987793c-3.1064453,0.3676758-7.6445313,1.6601563-10.5048828,5.8623047
		c-7.2919922,10.7158203-8.4550781,23.6450195-3.4550781,38.4272461l0.0703125,0.2910156l0.4492188,3.4199219l8.5429688-10.8808594
		V12.4589844L60.1699219,7.987793z"/>
</g>
<ellipse style="fill:#F2B375;" cx="64.5644531" cy="33.6220703" rx="18.375" ry="19.1269531"/>
<linearGradient id="SVGID_1_" gradientUnits="userSpaceOnUse" x1="-4.4599609" y1="33.1513672" x2="0.123372" y2="39.6221504" gradientTransform="matrix(1 0 0 1 64.1972656 0)">
	<stop  offset="0" style="stop-color:#FFA67F"/>
	<stop  offset="0.0968745" style="stop-color:#FF967B"/>
	<stop  offset="0.3655038" style="stop-color:#FF7170"/>
	<stop  offset="0.6143154" style="stop-color:#FF5568"/>
	<stop  offset="0.8335769" style="stop-color:#FF4564"/>
	<stop  offset="1" style="stop-color:#FF3F62"/>
</linearGradient>
<ellipse style="fill:url(#SVGID_1_);" cx="61.6948242" cy="35.9150391" rx="2.8354492" ry="2.4970703"/>
<g>
	<path style="fill:#160201;" d="M52.9492188,28.1484375c-1.3847656,0-2.5400391,1.0961914-2.9189453,2.590332l2.7441406,1.034668
		l-2.7441406,1.0380859c0.3759766,1.4921875,1.5341797,2.5908203,2.9189453,2.5908203
		c1.6923828,0,3.0625-1.6230469,3.0625-3.6269531C56.0117188,29.7724609,54.6416016,28.1484375,52.9492188,28.1484375z"/>
	<g>
		<path style="fill:#160201;" d="M71.3886719,28.1484375c-1.3847656,0-2.5429688,1.0952148-2.9208984,2.590332l2.7441406,1.034668
			l-2.7441406,1.0380859c0.3769531,1.4921875,1.5361328,2.5908203,2.9208984,2.5908203
			c1.6914063,0,3.0615234-1.6230469,3.0615234-3.6269531C74.4501953,29.7724609,73.0800781,28.1484375,71.3886719,28.1484375z"/>
	</g>
</g>
<path style="fill:#510811;" d="M56.6582031,45.5869141c0,0,12.2441406-1.7128906,13.1357422-2.2822266
	c0.8935547-0.5751953,2.1962891-0.2890625,0,2.2822266C67.6005859,48.1572266,61.7089844,53.0166016,56.6582031,45.5869141z"/>
<path style="fill:#420707;" d="M64.5654297,54.1347656c-10.8964844,0-19.7617188-9.2021484-19.7617188-20.5126953
	s8.8652344-20.512207,19.7617188-20.512207c10.8955078,0,19.7597656,9.2016602,19.7597656,20.512207
	S75.4609375,54.1347656,64.5654297,54.1347656z M64.5654297,15.8823242c-9.3681641,0-16.9902344,7.9580078-16.9902344,17.7397461
	c0,9.7822266,7.6220703,17.7412109,16.9902344,17.7412109c9.3671875,0,16.9882813-7.9589844,16.9882813-17.7412109
	C81.5537109,23.840332,73.9326172,15.8823242,64.5654297,15.8823242z"/>
<g>
	<path style="fill:#8A3606;" d="M56.6582031,13.0703125c0,0-5.4384766,9.8183594-10.4130859,19.1264648
		C46.2451172,32.1967773,42.4414063,13.0703125,56.6582031,13.0703125z"/>
	<path style="fill:#4C0A02;" d="M45.6416016,36.2675781l-0.7558594-3.800293
		c-0.0888672-0.4458008-2.1152344-10.9838867,2.7490234-16.9106445c2.109375-2.5698242,5.1445313-3.8725586,9.0234375-3.8725586
		h2.3525391l-1.1396484,2.0581055c-0.0546875,0.0976563-5.4912109,9.9160156-10.4033203,19.1079102L45.6416016,36.2675781z
		 M54.1757813,14.6992188c-1.8291016,0.390625-3.2792969,1.2548828-4.3935547,2.6113281
		c-2.2695313,2.7612305-2.6806641,7.0107422-2.6025391,10.2172852
		C49.9726563,22.3520508,52.6582031,17.4555664,54.1757813,14.6992188z"/>
</g>
<g>
	<path style="fill:#8A3606;" d="M56.6582031,13.0703125c0,0,10.2978516,13.6547852,25.0439453,13.6547852
		C81.7021484,26.7250977,76.8632813,4.7919922,56.6582031,13.0703125z"/>
	<path style="fill:#4C0A02;" d="M83.4277344,28.1113281h-1.7255859c-15.2617188,0-25.7128906-13.6264648-26.1503906-14.206543
		L54.46875,12.4692383l1.6640625-0.6816406c3.1914063-1.3076172,6.2285156-1.9707031,9.0283203-1.9707031
		c14.0654297,0,17.8583984,16.4433594,17.8945313,16.609375L83.4277344,28.1113281z M58.9912109,13.6816406
		c2.9003906,3.215332,10.7001953,10.7358398,20.8515625,11.5795898c-1.2851563-3.8657227-5.2490234-12.671875-14.6816406-12.671875
		C63.2451172,12.5893555,61.1767578,12.9560547,58.9912109,13.6816406z"/>
</g>
<g>
	<path style="fill:#FF9712;" d="M-24.0761719,55.5048828c0,0-2.3950195-9.8564453,12.722168-13.0605469l2.6650391,4.1298828
		C-8.6889648,46.5742188-13.7138672,59.5253906-24.0761719,55.5048828z"/>
	<path style="fill:#440C01;" d="M-20.1875,57.7792969c-1.4428711,0-2.9335938-0.2949219-4.4311523-0.8759766l-0.7299805-0.2832031
		l-0.1850586-0.7607422c-0.0375977-0.1552734-0.894043-3.8359375,1.5136719-7.6611328
		c2.2182617-3.5244141,6.375-5.9541016,12.3549805-7.2216797l1.0112305-0.2138672l3.6401367,5.640625l-0.2768555,0.7138672
		C-7.4594727,47.5517578-11.527832,57.7792969-20.1875,57.7792969z M-22.7089844,54.3896484
		c0.8632813,0.2587891,1.7084961,0.3896484,2.5214844,0.3896484c5.5244141,0,8.8320313-6.0146484,9.8007813-8.0693359
		l-1.6582031-2.5693359c-4.578125,1.1210938-7.737793,3.0029297-9.4008789,5.6005859
		C-22.6430664,51.6103516-22.7617188,53.40625-22.7089844,54.3896484z"/>
</g>
<g>
	<path style="fill:#FF9712;" d="M10.9282227,49.8076172l2.0302734-5.2675781c0,0,12.1884766,1.5654297,12.7241211,12.53125
		C25.6826172,57.0712891,19.3510742,59.4970703,10.9282227,49.8076172z"/>
	<path style="fill:#440C01;" d="M23.7255859,58.8417969c-3.1625977,0-8.1459961-1.3974609-13.9291992-8.0498047
		l-0.5922852-0.6816406l2.777832-7.2080078l1.1674805,0.1503906c4.6469727,0.5966797,13.559082,4.2792969,14.03125,13.9453125
		l0.0532227,1.0849609l-1.0146484,0.3886719C26.0581055,58.5341797,25.1811523,58.8417969,23.7255859,58.8417969z
		 M12.6572266,49.4931641c5.3203125,5.8212891,9.5131836,6.4316406,11.3950195,6.3408203
		c-1.0561523-6.7988281-7.4785156-8.9746094-10.1425781-9.5908203L12.6572266,49.4931641z"/>
</g>
<g>
	<path style="fill:#FF9712;" d="M3.5366211,8.8408203c0,0-12.5405273-2.5390625-18.6708984,5.5703125
		s-9.5888672,25.5371094,4.4418945,31.6074219c7.3950195,3.2021484,22.2626953-21.565918,22.2626953-21.565918
		S22.1850586,11.9404297,3.5366211,8.8408203z"/>
	<path style="fill:#440C01;" d="M-9.2666016,47.8046875c-0.0004883,0-0.0009766,0-0.0014648,0
		c-0.7138672-0.0009766-1.3935547-0.1386719-2.0205078-0.4091797c-5.1728516-2.2382813-8.6362305-6.1865234-10.0141602-11.4169922
		c-2.1333008-8.0991211,1.0820313-17.3261719,4.9716797-22.472168c4.0878906-5.4072266,10.6152344-6.5419922,15.3710938-6.5419922
		c2.7558594,0,4.7124023,0.3896484,4.7944336,0.40625c6.4775391,1.0756836,10.4580078,3.4526367,11.777832,7.0546875
		c1.800293,4.9116211-2.15625,10.0844727-2.8139648,10.8955078C11.15625,28.0449219-1.0419922,47.8046875-9.2666016,47.8046875z
		 M-0.9599609,9.9643555c-4.074707,0-9.6342773,0.9282227-12.9775391,5.3515625
		c-3.5771484,4.730957-6.2587891,13.0854492-4.4638672,19.8979492c1.1508789,4.3701172,3.9453125,7.5419922,8.3046875,9.4277344
		c0.2524414,0.109375,0.5234375,0.1630859,0.8295898,0.1630859c5.0024414,0.0009766,14.6469727-12.956543,19.5512695-21.1240234
		l0.1420898-0.1982422c0.0356445-0.0419922,3.6899414-4.4433594,2.3662109-8.0327148
		c-0.9121094-2.4741211-4.1977539-4.2475586-9.5019531-5.1293945C3.2236328,10.3081055,1.4755859,9.9643555-0.9599609,9.9643555z"/>
</g>
<g>
	<path style="fill:#FF9712;" d="M11.5703125,15.5517578L4.2861328,8.9018555c0,0,10.2412109-1.1577148,15.5532227,6.6499023
		C31.425293,32.5751953,11.5703125,48.59375,11.5703125,48.59375V15.5517578z"/>
	<path style="fill:#440C01;" d="M10.0703125,51.7314453V16.2133789L0.8349609,7.7822266l3.2827148-0.3710938
		c0.0634766-0.0068359,0.6474609-0.0698242,1.5942383-0.0698242c3.1137695,0,10.84375,0.7177734,15.3676758,7.3666992
		c12.222168,17.9584961-8.3579102,34.8847656-8.5673828,35.0527344L10.0703125,51.7314453z M8.2763672,10.5136719
		l4.7939453,4.3764648v30.2788086c4.7275391-4.7949219,13.8818359-16.5,5.5288086-28.7734375
		C15.7993164,12.2802734,11.402832,10.9296875,8.2763672,10.5136719z"/>
</g>
<path style="fill:#F2B375;" d="M-15.1342773,36.4355469c0,10.7353516,8.3588867,19.4326172,18.6708984,19.4326172
	s18.6713867-8.6972656,18.6713867-19.4326172C22.2080078,25.7011719,13.8486328,17,3.5366211,17
	S-15.1342773,25.7011719-15.1342773,36.4355469z"/>
<path style="fill:#420707;" d="M3.5366211,57.3681641c-11.1220703,0-20.1708984-9.390625-20.1708984-20.9326172
	C-16.6342773,24.8916016-7.5854492,15.5,3.5366211,15.5c11.1225586,0,20.1713867,9.3916016,20.1713867,20.9355469
	C23.7080078,47.9775391,14.6591797,57.3681641,3.5366211,57.3681641z M3.5366211,18.5
	c-9.4682617,0-17.1708984,8.0458984-17.1708984,17.9355469c0,9.8876953,7.7026367,17.9326172,17.1708984,17.9326172
	s17.1713867-8.0449219,17.1713867-17.9326172C20.7080078,26.5458984,13.0048828,18.5,3.5366211,18.5z"/>
<linearGradient id="SVGID_2_" gradientUnits="userSpaceOnUse" x1="-0.2734375" y1="35.9560547" x2="4.3843303" y2="42.5319252" gradientTransform="matrix(-1 0 0 1 8.1689453 0)">
	<stop  offset="0" style="stop-color:#FFA67F"/>
	<stop  offset="0.0968745" style="stop-color:#FF967B"/>
	<stop  offset="0.3655038" style="stop-color:#FF7170"/>
	<stop  offset="0.6143154" style="stop-color:#FF5568"/>
	<stop  offset="0.8335769" style="stop-color:#FF4564"/>
	<stop  offset="1" style="stop-color:#FF3F62"/>
</linearGradient>
<path style="fill:url(#SVGID_2_);" d="M3.5717773,38.765625c0,1.4003906,1.2866211,2.5371094,2.8813477,2.5371094
	c1.5913086,0,2.8803711-1.1367188,2.8803711-2.5371094c0-1.4042969-1.2890625-2.5390625-2.8803711-2.5390625
	C4.8583984,36.2265625,3.5717773,37.3613281,3.5717773,38.765625z"/>
<g>
	<path style="fill:#026594;" d="M15.3393555,30.8730469c1.4072266,0,2.5805664,1.112793,2.9663086,2.6318359l-2.7895508,1.0517578
		l2.7895508,1.0527344c-0.3837891,1.5175781-1.559082,2.6337891-2.9663086,2.6337891
		c-1.7197266,0-3.1118164-1.6484375-3.1118164-3.6845703S13.6196289,30.8730469,15.3393555,30.8730469z"/>
	<g>
		<path style="fill:#026594;" d="M-3.7978516,30.8730469c1.40625,0,2.5820313,1.112793,2.9667969,2.6318359l-2.7895508,1.0517578
			l2.7895508,1.0527344c-0.3842773,1.5175781-1.5605469,2.6337891-2.9667969,2.6337891
			c-1.7192383,0-3.112793-1.6484375-3.112793-3.6845703S-5.5170898,30.8730469-3.7978516,30.8730469z"/>
	</g>
</g>
<path style="fill:#510811;" d="M11.5703125,48.59375c0,0-12.4404297-1.7421875-13.3457031-2.3222656
	c-0.9091797-0.5820313-2.2324219-0.2919922,0,2.3222656C0.4506836,51.2050781,6.4384766,56.1416016,11.5703125,48.59375z"/>
<g>
	<path style="fill:#FF9712;" d="M16.2939453,15.8979492C-5.0297852,28.9301758-4.2988281,28.394043-17.9575195,39.9892578
		C-17.9575195,39.9892578-11.3393555,6.5327148,16.2939453,15.8979492z"/>
	<path style="fill:#440C01;" d="M-20.2631836,43.9140625l0.8339844-4.2158203
		c0.0537109-0.2695313,5.5751953-26.9545898,26.46875-26.9545898c3.065918,0,6.3417969,0.5834961,9.7358398,1.7338867
		l3.0361328,1.0288086l-4.4033203,2.690918c-19.1967773,11.7299805-19.1967773,11.7299805-31.7353516,22.375L-20.2631836,43.9140625
		z M7.0395508,15.7436523c-13.3574219,0-19.6870117,12.7705078-22.1767578,19.8862305
		c9.5048828-8.0366211,11.2402344-9.1508789,27.7280273-19.2270508
		C10.6660156,15.9648438,8.8081055,15.7436523,7.0395508,15.7436523z"/>
</g>
<g>
	<path style="fill:#FF9712;" d="M22.190918,41.3027344c0,0,1.5908203-15.4794922-11.8232422-21.9179688
		c0,0,8.8969727-5.3095703,12.4428711,0.5112305C27.7045898,27.9316406,26.1850586,34.515625,22.190918,41.3027344z"/>
	<path style="fill:#440C01;" d="M19.9956055,47.9902344l0.703125-6.8398438
		c0.0600586-0.6054688,1.2880859-14.5249023-10.9799805-20.4130859l-2.5185547-1.2089844l2.3989258-1.4316406
		c0.1660156-0.0991211,4.1123047-2.4272461,8.0649414-2.4272461c2.831543,0,5.0541992,1.1918945,6.4277344,3.4462891
		c5.7792969,9.4897461,2.9360352,16.925293-0.6079102,22.9477539L19.9956055,47.9902344z M13.6420898,19.5092773
		c6.625,4.3378906,8.9453125,11.0112305,9.7236328,15.8608398c1.8222656-5.1933594,1.1982422-9.7119141-1.8364258-14.6938477
		c-0.8222656-1.3505859-2.0869141-2.0068359-3.8652344-2.0068359
		C16.2685547,18.6694336,14.8193359,19.0678711,13.6420898,19.5092773z"/>
</g>
<g>
	<g>
		<linearGradient id="SVGID_3_" gradientUnits="userSpaceOnUse" x1="16.8989258" y1="-0.6918945" x2="43.8490105" y2="30.388113">
			<stop  offset="0" style="stop-color:#FFBFCA"/>
			<stop  offset="0.515152" style="stop-color:#FF0012"/>
			<stop  offset="0.5961746" style="stop-color:#FF0317"/>
			<stop  offset="0.6907248" style="stop-color:#FF0B25"/>
			<stop  offset="0.7920828" style="stop-color:#FF173C"/>
			<stop  offset="0.8974022" style="stop-color:#FF295D"/>
			<stop  offset="1" style="stop-color:#FF3F84"/>
		</linearGradient>
		<path style="fill:url(#SVGID_3_);" d="M32,13.3789063C22.8701172-9.4453125-6.6928711,18.3779297,32,39.015625
			C70.6933594,18.3779297,41.1289063-9.4453125,32,13.3789063z"/>
		<path style="fill:#D30000;" d="M32,40.4326172l-0.5883789-0.3144531
			C9.6445313,28.5083008,10.8613281,15.972168,11.7529297,12.40625C13.0527344,7.2080078,17.2919922,3.5776367,22.0625,3.5776367
			c3.9868164,0,7.5131836,2.4697266,9.9375,6.8710938c2.4238281-4.4013672,5.9501953-6.8710938,9.9365234-6.8710938
			c4.7705078,0,9.0097656,3.6303711,10.3095703,8.8286133c0.890625,3.565918,2.1083984,16.1030273-19.6577148,27.7119141
			L32,40.4326172z M22.0625,6.0776367c-3.6210938,0-6.8632813,2.8515625-7.8842773,6.9350586
			C13.4057617,16.1035156,12.4384766,26.9394531,32,37.5957031c19.5605469-10.6557617,18.5927734-21.4921875,17.8203125-24.5830078
			c-1.0205078-4.0834961-4.2626953-6.9350586-7.8837891-6.9350586c-3.6035156,0-6.8017578,2.8305664-8.7763672,7.765625
			L32,16.7446289l-1.1606445-2.9013672C28.8652344,8.9082031,25.6665039,6.0776367,22.0625,6.0776367z"/>
	</g>
	<path style="fill:#FFFFFF;" d="M18.9897461,10.9858398c2.3823242-3.0600586,6.0654297-0.3505859,3.2861328,3.2211914
		C19.4970703,17.7773438,16.6074219,14.0463867,18.9897461,10.9858398z"/>
	<path style="opacity:0.2;fill:#FFFFFF;" d="M31.5976563,33.7285156c6.9326172,2.0429688,20.3027344-16.0566406,15.1835938-18.0625
		c-4.8378906-1.8959961-3.3115234,11.6391602-10.6523438,12.4941406
		C28.7890625,29.015625,27.6723633,32.5678711,31.5976563,33.7285156z"/>
</g>
</svg>
