<?xml version="1.0" encoding="utf-8"?>
<!-- Generator: Adobe Illustrator 15.0.2, SVG Export Plug-In . SVG Version: 6.00 Build 0)  -->
<!DOCTYPE svg PUBLIC "-//W3C//DTD SVG 1.1//EN" "http://www.w3.org/Graphics/SVG/1.1/DTD/svg11.dtd">
<svg version="1.1" id="レイヤー_1" xmlns="http://www.w3.org/2000/svg" xmlns:xlink="http://www.w3.org/1999/xlink" x="0px"
	 y="0px" width="64px" height="64px" viewBox="0 0 64 64" enable-background="new 0 0 64 64" xml:space="preserve">
<g>
	<linearGradient id="SVGID_1_" gradientUnits="userSpaceOnUse" x1="14.7759" y1="10.1221" x2="14.433" y2="14.4009">
		<stop  offset="0" style="stop-color:#FFFFFF"/>
		<stop  offset="1" style="stop-color:#BFEBFF"/>
	</linearGradient>
	
		<polygon fill-rule="evenodd" clip-rule="evenodd" fill="url(#SVGID_1_)" stroke="#0376D6" stroke-width="0.5" stroke-miterlimit="10" points="
		11.003,4.009 18.821,12.847 16.273,14.77 	"/>
	<path fill-rule="evenodd" clip-rule="evenodd" fill="#57CCFF" stroke="#007FE8" stroke-width="0.5" stroke-miterlimit="10" d="
		M18.691,12.24c0,0,1.25-2.417,3.75-1.5s0.879-1.041,4.314,0.646s2.756,3.924,6.669,5.348s2.175,3.464,0.179,5.443
		c0,0,2.571-2.432-1.058-3.938s-7.44,0.911-8.104-1.885S18.691,12.24,18.691,12.24z"/>
	<path fill-rule="evenodd" clip-rule="evenodd" fill="#C75CFF" stroke="#007FE8" stroke-width="0.5" stroke-miterlimit="10" d="
		M39.198,40.018c0,0-1.773-6.027,3.401-5.611c5.175,0.418,4.919,3.445,8.089,1.682s3.977-2.098,6.198-1.264
		c0,0-2.944,1.082-6.778,3.082s-5.714-0.174-7.509,2.564C40.805,43.211,39.198,40.018,39.198,40.018z"/>
	<path fill-rule="evenodd" clip-rule="evenodd" fill="#A1B3FF" stroke="#007FE8" stroke-width="0.5" stroke-miterlimit="10" d="
		M40.861,39.574c0,0,4.571-4.084,7.034-2.25c2.463,1.832,4.546,0.303,6.296-0.475c1.75-0.775,6.084-0.693,7.917,0.475
		c0,0-5.084-0.334-7.667,2.25c-2.583,2.582-3.698,4.115-9.058,2.1c-5.359-2.018-5.894,3.9-5.894,3.9L40.861,39.574z"/>
	<path fill-rule="evenodd" clip-rule="evenodd" fill="#97E9FF" stroke="#007FE8" stroke-width="0.5" stroke-miterlimit="10" d="
		M38.333,38.406c0,0,2.983-3.189,5.983-2.063c3,1.125,2.465,4.541,6.482,4.615c4.018,0.072,8.393-2.344,9.768-5.416
		c0,0-0.801,7.117-11.807,7.021c0,0-7.256-3.117-10.068-1.605C35.879,42.469,38.333,38.406,38.333,38.406z"/>
	<path fill-rule="evenodd" clip-rule="evenodd" fill="#97E9FF" stroke="#007FE8" stroke-width="0.5" stroke-miterlimit="10" d="
		M28.129,19.476c0,0,5.063-1.623,5.313,1.092s-1.935,3.233,1.332,4.589s-0.582,4.688,2.605,5.688s7.438,0.188,8.75-0.938
		c0,0-6.493,5.562-13.809,0.875c-7.316-4.688,2.559-1.625,0.622-3.375s0.438-9.375-3.313-6.563L28.129,19.476z"/>
	<path fill-rule="evenodd" clip-rule="evenodd" fill="#8894FF" stroke="#007FE8" stroke-width="0.5" stroke-miterlimit="10" d="
		M38.333,40.008c0,0,5.426-4.082,8.99-1.973c3.564,2.107,3.879,2.973,6.046,3.223s3.97,2.459,5.818,3.229
		c0,0-4.449-2.174-6.955-1.477c-2.506,0.695-2.606,1.926-5.818-0.289c-3.212-2.213-8.081-1.047-8.081-1.047V40.008z"/>
	<path fill-rule="evenodd" clip-rule="evenodd" fill="#C75CFF" stroke="#007FE8" stroke-width="0.5" stroke-miterlimit="10" d="
		M29.108,18.74c0,0,4.021,0.114,3.135,2.682c-0.885,2.568-0.688,3.244,2.419,3.326s7.265,0.87,6.199,5.659
		c0,0-0.962-5.288-6.199-4.154s-6.266,1.985-6.137-0.679S29.108,18.74,29.108,18.74z"/>
	<linearGradient id="SVGID_2_" gradientUnits="userSpaceOnUse" x1="29.873" y1="49.8223" x2="28.0605" y2="60.6973">
		<stop  offset="0" style="stop-color:#FFFFFF"/>
		<stop  offset="1" style="stop-color:#BFEBFF"/>
	</linearGradient>
	
		<path fill-rule="evenodd" clip-rule="evenodd" fill="url(#SVGID_2_)" stroke="#0376D6" stroke-width="0.5" stroke-miterlimit="10" d="
		M27.441,38.658c0,0-2.121,2.92-0.686,6.334s3.825,5.006,2.63,6.502s-3.278,3.99-3.611,5.494c0,0-1.083,0.668-1.333,2.086
		c0,0,0.5,1,3.917,0c0,0,0.417-1.506,0.083-2.086c0,0,1.289-3.164,2.895-3.998s2.089-2.691,2.089-2.691s-2.89-1.842-1.483-3.225
		c1.406-1.385,3.477-1,3.477-1S32.025,38.658,27.441,38.658z"/>
	<linearGradient id="SVGID_3_" gradientUnits="userSpaceOnUse" x1="14.3145" y1="34.0039" x2="15.5019" y2="46.0032">
		<stop  offset="0" style="stop-color:#FFFFFF"/>
		<stop  offset="1" style="stop-color:#BFEBFF"/>
	</linearGradient>
	
		<path fill-rule="evenodd" clip-rule="evenodd" fill="url(#SVGID_3_)" stroke="#0376D6" stroke-width="0.5" stroke-miterlimit="10" d="
		M19.375,30.938c0,0-6.44-2.506-8.663-2.34s-2.4,4.257-1.106,7.371c1.293,3.113,1.106,7.945,1.106,7.945s-0.642,1.084,0.647,2.5
		c0,0,2.746-0.453,2.726-2.686c0,0-0.122-1.371-1.042-2.416c0,0-1.373-4.182-0.842-5.082c0.531-0.898,0.453-1.816-0.383-3.233
		c0,0-0.459-1.299,7.914,4.417L19.375,30.938z"/>
	<linearGradient id="SVGID_4_" gradientUnits="userSpaceOnUse" x1="29.1387" y1="39.9922" x2="27.7012" y2="57.9295">
		<stop  offset="0" style="stop-color:#FFFFFF"/>
		<stop  offset="1" style="stop-color:#BFEBFF"/>
	</linearGradient>
	
		<path fill-rule="evenodd" clip-rule="evenodd" fill="url(#SVGID_4_)" stroke="#0376D6" stroke-width="0.5" stroke-miterlimit="10" d="
		M45.411,57.592c0,0-0.97-4.352-1.22-6.186c-0.25-1.832-1.91-4.166-3.33-4.25c0,0,4.201-7.418-3.567-10.584
		c0,0-5.519-6.138-9.353-7.235c0,0,2.482-8.41-1.593-11.847s-6.376-3.166-10.434,0c0,0,1.057,2.962,0,3.564l-1.89,3.083
		c0,0,1.591,1.811,3.591,0.213c0,0,1.423-0.454,2.117-0.76c0,0,1.606-1.376,2.009-2.534c0.079-0.45,0.116-0.734,0.116-0.734
		c0.013,0.278-0.04,0.515-0.116,0.734c-0.314,1.797-1.926,5.425-3.61,7.169c-1.222,1.265-1.623,3.098-0.918,5.742
		c-2.381,1.092-5.303,2.598-5.907,3.668c-1.053,1.865,0.885,3.855,1.968,5.605s2.452,5.391,2.452,5.391s0.005,0.895,0.943,1.668
		c0,0,2.307-0.309,1.664-3.309c0,0-0.026-1-1.209-1.5c0,0-1.279-2-1.398-2.584c-0.119-0.582,0.214-2.527-0.869-2.889
		c0,0-0.485-0.756,5.311-1.213c0.956,0.732,2.114,1.162,3.478,1.08c3.628-0.645,6.795,1.793,6.795,1.793s4.337,7.318,8.585,8.191
		c4.248,0.871,4.819,7.471,3.735,8.305c0,0-0.917,1.049-0.917,1.816h3.93C45.774,59.99,45.811,58.592,45.411,57.592z"/>
	<g>
		<path fill-rule="evenodd" clip-rule="evenodd" fill="#0376D6" d="M16.91,19.306c0,0,0.435,0.773,1.088,0.773
			c0,0,0.388,0.146,1.113-1.212C19.11,18.867,17.894,20.424,16.91,19.306z"/>
		<path fill-rule="evenodd" clip-rule="evenodd" fill="#0376D6" d="M17.616,19.826c0.11,0.612-0.12,0.722-0.478,0.742
			c0,0,0.917-0.005,0.956-0.63L17.616,19.826z"/>
	</g>
	<path fill-rule="evenodd" clip-rule="evenodd" fill="#5596FF" stroke="#007FE8" stroke-width="0.5" stroke-miterlimit="10" d="
		M43.107,25.573c-3.625-0.083-3.018-0.495-4.241-4.37s-4.026-6-10.516-7.578c-2.561-0.623-4.459-0.797-5.83-0.784
		c-1.136-1.168-4.636-2.276-8.117,0.718c0,0,0.11-0.001,0.294-0.015c1.342-0.63,2.857-0.741,2.857-0.741
		c-1.223,0.556-2.345,0.702-2.857,0.741c-1.259,0.591-2.366,1.637-1.922,3.493c0,0,0.144-0.163,0.382-0.393
		c-0.03-1.531,3.117-1.875,3.117-1.875c-1.433,0.39-2.561,1.337-3.117,1.875c0.002,0.124,0.019,0.253,0.066,0.393
		c0.635,1.869,2.092,2.328,1.488,2.849c0,0,0.276-0.227,0.456-0.611c-0.374-0.865-0.408-1.947-0.408-1.947
		c0.701,0.802,0.623,1.487,0.408,1.947c0.24,0.556,0.62,1.023,1.226,1.054l1.161-0.442c0,0-1.224-0.474-1.28-1.813
		c0,0,0.418,0.583,2.418,0.167c0,0-2.516-1.207-1.138-1.661c0,0,3.09-2.423,4.239-0.423c0.914,1.591-0.313,2.145,1.411,3.053
		c-0.199,1.413,1.085,4.167,2.113,4.411c0.048,0.011,0.085,0.041,0.13,0.059c-0.507,0.854-0.731,1.67,0.523,2.278
		c-0.113,0.363-0.281,0.745-0.527,1.136c-1.063,1.688-3.688,3.5-2.5,4.563s1.591-0.561,3.625,3.062c1.563,2.783,7.625,0,7.625,0
		c-3.824,0.25-4.688-0.125-7.813-2.562c-3.125-2.438-0.875-3.875,0.25-4.938c0.244-0.23,0.492-0.496,0.716-0.777
		c3.833,1.328-1.962,1.876-0.997,3.467c1.01,1.665,2.666,0.406,5.593,1.695s4.378,3.939,4.378,3.939s-2.11-5.97-4.983-6.719
		c-2.873-0.75-0.997-1.198,0.605-2.571s-3.607-1.134-2.012-3.115s2.796-5.908-1.013-6.403c-1.494-0.194-2.636-0.597-3.529-1.086
		c6.529-1.822,8.522,4.938,11.053,8.148c2.563,3.25,4.291,3.485,6.375,2.923s3.313,1.871,3.313,1.871S46.732,25.657,43.107,25.573z
		 M25.891,22.987c-0.917-0.394-1.45-0.821-1.45-2.419c0-0.338,0.036-0.593,0.092-0.793c0.204,0.074,0.417,0.149,0.658,0.229
		C27.349,20.715,26.652,21.844,25.891,22.987z"/>
	<linearGradient id="SVGID_5_" gradientUnits="userSpaceOnUse" x1="19.7393" y1="14.9351" x2="19.6261" y2="16.3471">
		<stop  offset="0" style="stop-color:#FFFFFF"/>
		<stop  offset="1" style="stop-color:#BFEBFF"/>
	</linearGradient>
	
		<path fill-rule="evenodd" clip-rule="evenodd" fill="url(#SVGID_5_)" stroke="#0376D6" stroke-width="0.5" stroke-miterlimit="10" d="
		M18.821,16.355c0,0-0.787-0.723,0-1.586s1.621-1.696,1.621-1.696s1.083,2.814,0,3.282"/>
</g>
</svg>
