<?xml version="1.0" encoding="UTF-8" standalone="no"?>
<!-- Generator: Adobe Illustrator 17.0.0, SVG Export Plug-In . SVG Version: 6.00 Build 0)  -->

<svg
   xmlns:dc="http://purl.org/dc/elements/1.1/"
   xmlns:cc="http://creativecommons.org/ns#"
   xmlns:rdf="http://www.w3.org/1999/02/22-rdf-syntax-ns#"
   xmlns:svg="http://www.w3.org/2000/svg"
   xmlns="http://www.w3.org/2000/svg"
   xmlns:sodipodi="http://sodipodi.sourceforge.net/DTD/sodipodi-0.dtd"
   xmlns:inkscape="http://www.inkscape.org/namespaces/inkscape"
   version="1.1"
   id="レイヤー_1"
   x="0px"
   y="0px"
   width="64px"
   height="64px"
   viewBox="0 0 64 64"
   style="enable-background:new 0 0 64 64;"
   xml:space="preserve"
   inkscape:version="0.91 r13725"
   sodipodi:docname="vagina(bk).svg"><metadata
     id="metadata206"><rdf:RDF><cc:Work
         rdf:about=""><dc:format>image/svg+xml</dc:format><dc:type
           rdf:resource="http://purl.org/dc/dcmitype/StillImage" /><dc:title></dc:title></cc:Work></rdf:RDF></metadata><defs
     id="defs204" /><sodipodi:namedview
     pagecolor="#ffffff"
     bordercolor="#666666"
     borderopacity="1"
     objecttolerance="10"
     gridtolerance="10"
     guidetolerance="10"
     inkscape:pageopacity="0"
     inkscape:pageshadow="2"
     inkscape:window-width="862"
     inkscape:window-height="480"
     id="namedview202"
     showgrid="false"
     inkscape:zoom="3.6875"
     inkscape:cx="32"
     inkscape:cy="32"
     inkscape:window-x="0"
     inkscape:window-y="0"
     inkscape:window-maximized="0"
     inkscape:current-layer="レイヤー_1" /><g
     id="g106"
     transform="matrix(2.2067972,0,0,2.2067972,-38.398257,-46.41214)"><path
       style="fill:#471e02"
       d="m 60.268047,30.233276 c -0.609375,-7.125 -2.117187,-11.880859 -4.617187,-19.380859 -1.963909,-5.8917313 -18.626953,-5 -23.749998,-5 -5.123045,0 -21.732014,-1.0539613 -23.7500003,5 -2.5000005,7.5 -3.5927739,12.049805 -4.617188,19.380859 0,0 -1.125,20.185547 1.375,26.717774 0,0 7.6093753,5.74414 25.7421873,0.401367 0,0 1.257813,-12.619141 -1.617187,-17.119141 0,0 1.234375,1.625 2.867187,0.75 1.632811,0.875 2.867186,-0.75 2.867186,-0.75 -2.874998,4.5 -1.617188,17.119141 -1.617188,17.119141 18.132813,5.342773 25.742188,-0.401367 25.742188,-0.401367 2.5,-6.532227 1.375,-26.717774 1.375,-26.717774 z"
       id="path108"
       inkscape:connector-curvature="0" /><g
       id="g110"><linearGradient
         id="SVGID_1_"
         gradientUnits="userSpaceOnUse"
         x1="31.900862"
         y1="59.416668"
         x2="31.900862"
         y2="7.015625"><stop
           offset="0.5840708"
           style="stop-color:#281000;stop-opacity:0.8"
           id="stop113" /><stop
           offset="0.9159292"
           style="stop-color:#281000;stop-opacity:0"
           id="stop115" /></linearGradient><path
         style="fill:url(#SVGID_1_)"
         d="M 60.268047,30.233276 C 59.658672,23.108276 58.15086,18.352417 55.65086,10.852417 55.017925,8.9537354 52.854656,7.762207 50.046795,7.015625 c 1.261475,2.5378418 1.163086,8.898438 0.604065,10.01648 -2.5,5 -2.5,5.140564 -7.5,12.570312 -1.915283,2.846008 -3.460449,4.963379 -4.64209,6.499268 -1.709045,1.876403 -3.685364,3.442688 -5.564453,3.571044 -0.714539,-0.590148 1.281677,-5.140625 -1.043455,-5.140625 -2.336426,0 -0.307373,4.59784 -1.051941,5.152039 -1.907959,-0.135071 -3.91626,-1.762634 -5.641968,-3.677185 -1.15802,-1.510559 -2.658874,-3.573181 -4.500366,-6.306152 -0.03436,-0.0603 -0.05572,-0.09839 -0.05572,-0.09839 0.0062,0.0155 0.01257,0.02869 0.0188,0.04413 -0.0065,-0.0096 -0.01233,-0.01807 -0.0188,-0.02765 -5,-7.429748 -4.234436,-8.555664 -6.25,-12.586792 -1.25,-2.5 -1.90741,-7.4621577 -0.645935,-9.9999995 -2.807862,0.746582 -4.9711307,1.9381104 -5.6040652,3.8367915 -2.5000005,7.5 -4.007813,12.25586 -4.617188,19.38086 0,0 -1.125,20.185547 1.375,26.717773 0,0 3.3804421,1.922642 7.3413262,2.449139 C 2.8993406,55.083332 3.443769,26.844421 8.1508617,23.298584 12.439009,20.068359 20.399092,30.646057 22.580366,33.725586 c 1.443359,2.654663 2.909119,4.483398 4.239136,5.719177 l 0.04712,0.06293 0.0054,1.83e-4 C 28.362837,43.695312 28.083334,55.833332 27,58.333332 c 0.761963,-0.19458 2.847883,-0.744343 3.650862,-0.980915 0,0 1.257812,-12.619141 -1.617188,-17.119141 0,0 1.234375,1.625 2.867188,0.75 1.63281,0.875 2.867185,-0.75 2.867185,-0.75 -2.874998,4.5 -1.617187,17.119141 -1.617187,17.119141 0.802978,0.236572 3.087177,0.869671 3.84914,1.064251 -1.583332,-2.583336 -1.561237,-14.738506 -0.0649,-18.925457 1.418273,-1.306702 2.994934,-3.278565 4.53424,-6.220398 2.482789,-3.71228 10.042543,-14.127686 14.18152,-9.988709 C 59.817974,27.449219 58.125,54.5 52.4375,59.21978 c 1.372742,-0.561157 6.455547,-2.26873 6.455547,-2.26873 2.5,-6.532227 1.375,-26.717774 1.375,-26.717774 z"
         id="path117"
         inkscape:connector-curvature="0" /><linearGradient
         id="SVGID_2_"
         gradientUnits="userSpaceOnUse"
         x1="31.666666"
         y1="22.166666"
         x2="31.666666"
         y2="15.916667"><stop
           offset="0.359292"
           style="stop-color:#281000;stop-opacity:0.4"
           id="stop120" /><stop
           offset="1"
           style="stop-color:#281000;stop-opacity:0"
           id="stop122" /></linearGradient><path
         style="fill:url(#SVGID_2_)"
         d="m 42.333332,15.916667 c 0,0 -4.713684,6.249999 -10.440174,6.249999 C 26.166668,22.166666 21,15.916667 21,15.916667 c 0,0 10.5,6.458333 21.333332,0 z"
         id="path124"
         inkscape:connector-curvature="0" /><linearGradient
         id="SVGID_3_"
         gradientUnits="userSpaceOnUse"
         x1="32.10498"
         y1="8.75"
         x2="32.10498"
         y2="5.850482"><stop
           offset="0.359292"
           style="stop-color:#281000;stop-opacity:0.4"
           id="stop127" /><stop
           offset="1"
           style="stop-color:#281000;stop-opacity:0"
           id="stop129" /></linearGradient><path
         style="fill:url(#SVGID_3_)"
         d="M 34.375,6.2329102 C 34.375,6.6651917 33.253696,8.75 32,8.75 c -1.253696,0 -2.165039,-2.0848083 -2.165039,-2.5170898 0,-0.4322815 0.812202,-0.3804932 2.065901,-0.3804932 1.253698,0 2.474138,-0.051788 2.474138,0.3804932 z"
         id="path131"
         inkscape:connector-curvature="0" /></g><g
       style="opacity:0.7"
       id="g133"><linearGradient
         id="SVGID_4_"
         gradientUnits="userSpaceOnUse"
         x1="27.633257"
         y1="32.875"
         x2="27.633257"
         y2="38.114094"><stop
           offset="0"
           style="stop-color:#FBE3D4;stop-opacity:0"
           id="stop136" /><stop
           offset="0.3720553"
           style="stop-color:#FBE8DB;stop-opacity:0.4"
           id="stop138" /><stop
           offset="0.8224315"
           style="stop-color:#FFFEFD;stop-opacity:0.0536747"
           id="stop140" /><stop
           offset="1"
           style="stop-color:#FFFFFF;stop-opacity:0"
           id="stop142" /></linearGradient><path
         style="fill:url(#SVGID_4_);enable-background:new"
         d="m 26.588678,35.689247 c -2.042764,-3.458725 0.03516,-3.891769 2.087519,-0.389744 2.051287,3.503914 -0.04689,3.852234 -2.087519,0.389744 z"
         id="path144"
         inkscape:connector-curvature="0" /><linearGradient
         id="SVGID_5_"
         gradientUnits="userSpaceOnUse"
         x1="36.807209"
         y1="28.25"
         x2="36.807209"
         y2="38.261246"><stop
           offset="0"
           style="stop-color:#FBE3D4;stop-opacity:0"
           id="stop147" /><stop
           offset="0.3720553"
           style="stop-color:#FBE8DB;stop-opacity:0.4"
           id="stop149" /><stop
           offset="0.8224315"
           style="stop-color:#FFFEFD;stop-opacity:0.0536747"
           id="stop151" /><stop
           offset="1"
           style="stop-color:#FFFFFF;stop-opacity:0"
           id="stop153" /></linearGradient><path
         style="fill:url(#SVGID_5_);enable-background:new"
         d="m 34.665302,38.007263 c -2.275581,1.465801 1.277004,-3.723862 3.349522,-7.598411 3.751465,-7.013918 0.538017,5.091484 -3.349522,7.598411 z"
         id="path155"
         inkscape:connector-curvature="0" /><linearGradient
         id="SVGID_6_"
         gradientUnits="userSpaceOnUse"
         x1="10.169012"
         y1="58.256088"
         x2="10.169012"
         y2="25.173752"
         gradientTransform="matrix(1.7303606,-0.1436231,0.0827174,0.996573,-11.809082,1.6133811)"><stop
           offset="0"
           style="stop-color:#FFFFFF;stop-opacity:0"
           id="stop158" /><stop
           offset="0.1902655"
           style="stop-color:#FFFFFF;stop-opacity:0.2"
           id="stop160" /><stop
           offset="0.359292"
           style="stop-color:#FFFFFF;stop-opacity:0.2"
           id="stop162" /><stop
           offset="1"
           style="stop-color:#FFFFFF;stop-opacity:0"
           id="stop164" /></linearGradient><path
         style="fill:url(#SVGID_6_)"
         d="m 7.4856915,25.272198 c 0,0 -6.2692056,11.056461 3.2393905,32.468311 0,0 1.218754,0.252228 3.282256,0.186478 0,0 -8.7070946,-22.250862 -6.5216465,-32.654789 z"
         id="path166"
         inkscape:connector-curvature="0" /><linearGradient
         id="SVGID_7_"
         gradientUnits="userSpaceOnUse"
         x1="9.5966835"
         y1="57.394836"
         x2="9.5966835"
         y2="24.3125"
         gradientTransform="matrix(-1.5420367,-0.0940884,-0.0609024,0.9981437,70.619865,0.9279093)"><stop
           offset="0"
           style="stop-color:#FFFFFF;stop-opacity:0"
           id="stop169" /><stop
           offset="0.1902655"
           style="stop-color:#FFFFFF;stop-opacity:0.2"
           id="stop171" /><stop
           offset="0.359292"
           style="stop-color:#FFFFFF;stop-opacity:0.2"
           id="stop173" /><stop
           offset="1"
           style="stop-color:#FFFFFF;stop-opacity:0"
           id="stop175" /></linearGradient><path
         style="fill:url(#SVGID_7_)"
         d="m 54.682583,24.3132 c 0,0 5.721428,10.868624 -2.468826,32.535034 0,0 -1.081601,0.286835 -2.919171,0.280071 0,2e-6 7.466118,-22.481863 5.387997,-32.815105 z"
         id="path177"
         inkscape:connector-curvature="0" /></g><g
       id="g179"><linearGradient
         id="SVGID_8_"
         gradientUnits="userSpaceOnUse"
         x1="31.893158"
         y1="41.401367"
         x2="31.893158"
         y2="35.494549"><stop
           offset="0.359292"
           style="stop-color:#110700"
           id="stop182" /><stop
           offset="0.9292035"
           style="stop-color:#110700;stop-opacity:0"
           id="stop184" /></linearGradient><path
         style="fill:url(#SVGID_8_)"
         d="m 32.331615,39.760067 c -0.03543,-0.389618 -0.03935,-0.830124 -0.04033,-1.268166 0.0027,-0.509769 0.01921,-0.926628 0.145114,-1.381405 0.146874,-0.529972 0.26273,-0.949325 0.121987,-1.230285 -0.08386,-0.168194 -0.225315,-0.385662 -0.665287,-0.385662 -0.439972,0 -0.627453,0.212253 -0.711311,0.380451 -0.140744,0.28096 -0.02476,0.700314 0.121986,1.230286 0.125908,0.454773 0.159239,0.884777 0.161936,1.394542 -9.83e-4,0.438042 -0.0049,0.878548 -0.04046,1.268166 -0.08986,0.988724 -0.03064,1.156086 -0.558916,1.156086 l 1.036636,0.477287 0,0 1.017014,-0.479492 c -0.528278,0 -0.498501,-0.173084 -0.588368,-1.161808 z"
         id="path186"
         inkscape:connector-curvature="0" /><path
         style="fill:#110700"
         d="m 47.332031,60.001953 c -9.76e-4,0 -9.76e-4,0 -0.002,0 -4.322265,0 -9.128906,-0.770508 -14.286133,-2.290039 -0.140136,-0.04102 -0.243652,-0.160156 -0.264648,-0.305664 -0.04687,-0.322266 -1.022949,-11.243164 0.933594,-15.944336 -0.523438,0.196289 -1.196778,0.21582 -1.812012,-0.06055 -0.614258,0.275391 -1.289551,0.255859 -1.8125,0.06055 1.957031,4.701172 0.980469,15.62207 0.933594,15.944336 -0.021,0.145508 -0.124512,0.264648 -0.265137,0.305664 -5.157226,1.519531 -9.963867,2.290039 -14.286133,2.290039 C 8.4208987,60.001953 4.8315432,57.363281 4.6826175,57.25 4.6264652,57.208008 4.5834964,57.150391 4.5585941,57.084961 2.0576172,50.550781 3.1132813,30.871582 3.159668,30.207519 4.1855469,22.859375 5.2680664,18.315918 7.7949219,10.733887 9.3867188,5.9594727 18.993652,5.4072266 26.081543,5.4072266 c 1.383789,0 2.663574,0.023437 3.753418,0.042969 0.804199,0.014648 1.504394,0.027344 2.065918,0.027344 0.509277,0 1.133301,-0.00879 1.845215,-0.019043 0.952148,-0.013184 2.061523,-0.029297 3.267578,-0.029297 7.394531,0 17.407226,0.5498047 18.992187,5.3046874 2.551758,7.654785 4.025391,12.333008 4.635743,19.467773 0.0459,0.669922 1.102539,20.349121 -1.398438,26.883301 -0.02539,0.06543 -0.06836,0.123047 -0.125,0.165039 -0.148437,0.112305 -3.736328,2.751953 -11.786133,2.751953 z m -13.84082,-2.94043 c 4.998047,1.453125 9.65332,2.19043 13.838867,2.19043 9.77e-4,0 0.002,0 0.002,0 7.113281,0 10.672852,-2.157227 11.250977,-2.541992 2.388672,-6.450195 1.321289,-26.290527 1.310547,-26.450684 -0.602539,-7.043945 -2.06543,-11.6875 -4.598633,-19.288086 -1.597656,-4.7919918 -14.155274,-4.7919918 -18.28125,-4.7919918 -1.202149,0 -2.307617,0.015625 -3.256836,0.029297 -0.71582,0.010254 -1.34375,0.019043 -1.855957,0.019043 -0.564941,0 -1.27002,-0.012695 -2.07959,-0.027344 -1.085937,-0.02002 -2.36084,-0.042969 -3.739746,-0.042969 -10.746582,0 -16.4951171,1.574707 -17.5747069,4.8139648 -2.5107423,7.531739 -3.5859377,12.044434 -4.6015627,19.313965 -0.00879,0.134766 -1.0761719,19.97461 1.3129883,26.424805 0.5786133,0.384766 4.1396484,2.541992 11.2524413,2.541992 4.185059,0 8.840332,-0.736328 13.839844,-2.19043 0.171387,-1.40625 0.912109,-12.706054 -1.592773,-16.625976 -0.108399,-0.168945 -1.845721,-0.927673 -7.905274,-9.730883 4.004824,4.789885 8.396973,9.142016 8.519043,9.301195 0.0068,0.0088 0.673828,0.861328 1.591797,0.861328 0.266113,0 0.535156,-0.07227 0.800293,-0.213867 0.111328,-0.06055 0.244141,-0.06055 0.354492,0 0.265137,0.141602 0.53418,0.213867 0.799805,0.213867 0.926758,0 1.584961,-0.851562 1.59082,-0.860351 0.123047,-0.161133 1.90625,-1.131836 8.34375,-9.302246 -4.5,7.899536 -7.620117,9.561035 -7.728516,9.730957 -2.506347,3.922851 -1.764648,15.220703 -1.592773,16.625976 z"
         id="path188"
         inkscape:connector-curvature="0" /></g></g><g
     id="g190" /><g
     id="g192" /><g
     id="g194" /><g
     id="g196" /><g
     id="g198" /><g
     id="g200" /></svg>