<?xml version="1.0" encoding="UTF-8" standalone="no"?>
<!-- Generator: Adobe Illustrator 17.0.0, SVG Export Plug-In . SVG Version: 6.00 Build 0)  -->

<svg
   xmlns:dc="http://purl.org/dc/elements/1.1/"
   xmlns:cc="http://creativecommons.org/ns#"
   xmlns:rdf="http://www.w3.org/1999/02/22-rdf-syntax-ns#"
   xmlns:svg="http://www.w3.org/2000/svg"
   xmlns="http://www.w3.org/2000/svg"
   xmlns:sodipodi="http://sodipodi.sourceforge.net/DTD/sodipodi-0.dtd"
   xmlns:inkscape="http://www.inkscape.org/namespaces/inkscape"
   version="1.1"
   id="レイヤー_1"
   x="0px"
   y="0px"
   width="64px"
   height="64px"
   viewBox="0 0 64 64"
   style="enable-background:new 0 0 64 64;"
   xml:space="preserve"
   inkscape:version="0.91 r13725"
   sodipodi:docname="vagina.svg"><metadata
     id="metadata103"><rdf:RDF><cc:Work
         rdf:about=""><dc:format>image/svg+xml</dc:format><dc:type
           rdf:resource="http://purl.org/dc/dcmitype/StillImage" /><dc:title></dc:title></cc:Work></rdf:RDF></metadata><defs
     id="defs101" /><sodipodi:namedview
     pagecolor="#ffffff"
     bordercolor="#666666"
     borderopacity="1"
     objecttolerance="10"
     gridtolerance="10"
     guidetolerance="10"
     inkscape:pageopacity="0"
     inkscape:pageshadow="2"
     inkscape:window-width="1920"
     inkscape:window-height="1016"
     id="namedview99"
     showgrid="false"
     inkscape:zoom="3.6875"
     inkscape:cx="-30.779661"
     inkscape:cy="32"
     inkscape:window-x="1920"
     inkscape:window-y="27"
     inkscape:window-maximized="1"
     inkscape:current-layer="レイヤー_1" /><g
     id="g3"
     transform="matrix(2.0140154,0,0,2.0140154,-32.4485,-38.688239)"><path
       style="fill:#ffb443"
       d="M 63.082733,29.292131 C 62.415031,21.485126 60.76289,16.274034 58.02359,8.0561352 55.871693,1.6004462 37.613663,2.5775347 32.000236,2.5775347 26.38681,2.5775347 8.1880312,1.4226871 5.9768825,8.0561342 3.2375822,16.274034 2.0402084,21.259348 0.9177375,29.29213 c 0,0 -1.2326851,22.117712 1.5066152,29.275202 0,0 8.3377453,6.293972 28.2062343,0.439789 0,0 1.37821,-13.827049 -1.771986,-18.75779 0,0 1.352529,1.780548 3.141636,0.821793 1.789104,0.958756 3.141635,-0.821793 3.141635,-0.821793 -3.150196,4.930741 -1.771987,18.75779 -1.771987,18.75779 19.868488,5.854183 28.206234,-0.439789 28.206234,-0.439789 2.739303,-7.157489 1.506614,-29.275201 1.506614,-29.275201 z"
       id="path5"
       inkscape:connector-curvature="0" /><g
       id="g7"><linearGradient
         id="SVGID_1_"
         gradientUnits="userSpaceOnUse"
         x1="32.000237"
         y1="61.268959"
         x2="32.000237"
         y2="3.8520839"><stop
           offset="0.5840708"
           style="stop-color:#E08E0B;stop-opacity:0.8"
           id="stop10" /><stop
           offset="0.9159292"
           style="stop-color:#E08E0B;stop-opacity:0"
           id="stop12" /></linearGradient><path
         style="fill:url(#SVGID_1_)"
         d="M 63.082733,29.292131 C 62.415031,21.485126 60.76289,16.274034 58.02359,8.0561352 57.33007,5.9757114 54.959732,4.6701298 51.883102,3.8520851 c 1.382222,2.7807643 1.274418,9.7501969 0.661885,10.9752579 -2.7393,5.478601 -2.7393,5.632619 -8.2179,13.773545 -2.098613,3.118428 -3.791683,5.438473 -5.086429,7.121376 -1.872639,2.056015 -4.038128,3.772225 -6.097084,3.912869 -0.782936,-0.646641 1.404358,-5.632687 -1.143337,-5.632687 -2.56007,0 -0.336796,5.037945 -1.152634,5.645191 -2.09059,-0.147998 -4.291124,-1.931354 -6.182018,-4.029163 -1.268866,-1.655151 -2.913382,-3.915209 -4.931141,-6.909781 -0.03765,-0.06607 -0.06106,-0.107805 -0.06106,-0.107805 0.0068,0.01699 0.01378,0.03143 0.0206,0.04835 -0.0071,-0.0105 -0.01351,-0.01979 -0.0206,-0.03029 C 14.194783,20.478019 15.033627,19.24433 12.825133,14.827343 11.455483,12.088043 10.735146,6.6509056 12.11737,3.870142 9.0407391,4.6881857 6.6704016,5.9937673 5.9768825,8.0741911 3.2375822,16.292091 1.5854416,21.503183 0.9177375,29.310187 c 0,0 -1.2326851,22.11771 1.5066152,29.275204 0,0 3.7040184,2.106678 8.0440383,2.683567 C 0.2226859,56.520839 0.8192273,25.578894 5.9768825,21.693648 10.675491,18.154227 19.397514,29.744424 21.78758,33.118724 c 1.581518,2.908767 3.18758,4.912552 4.644907,6.26662 l 0.05163,0.06895 0.006,1.98e-4 c 1.633482,4.588261 1.327225,17.888134 0.140196,20.627438 0.834898,-0.213207 3.120481,-0.815594 4.000322,-1.07481 0,0 1.37821,-13.827049 -1.771986,-18.75779 0,0 1.35253,1.780548 3.141636,0.821793 1.789104,0.958756 3.141636,-0.821793 3.141636,-0.821793 -3.150196,4.930741 -1.771988,18.75779 -1.771988,18.75779 0.879841,0.259216 3.382683,0.952911 4.217579,1.166119 -1.73489,-2.830613 -1.710674,-16.149277 -0.07111,-20.737004 1.554031,-1.431778 3.281612,-3.592388 4.968262,-6.815815 2.72044,-4.067621 11.003814,-15.47999 15.538975,-10.94483 4.56599,4.565993 2.710964,34.206078 -3.520947,39.377632 1.504143,-0.614872 7.073475,-2.485893 7.073475,-2.485893 2.739304,-7.157487 1.506615,-29.275199 1.506615,-29.275199 z"
         id="path14"
         inkscape:connector-curvature="0" /><linearGradient
         id="SVGID_2_"
         gradientUnits="userSpaceOnUse"
         x1="31.743624"
         y1="20.453386"
         x2="31.743624"
         y2="13.605135"><stop
           offset="0.359292"
           style="stop-color:#E08E0B;stop-opacity:0.4"
           id="stop17" /><stop
           offset="1"
           style="stop-color:#E08E0B;stop-opacity:0"
           id="stop19" /></linearGradient><path
         style="fill:url(#SVGID_2_)"
         d="m 43.431305,13.605135 c 0,0 -5.164879,6.848251 -11.43951,6.848251 -6.274632,0 -11.935853,-6.848251 -11.935853,-6.848251 0,0 11.505063,7.076525 23.375363,0 z"
         id="path21"
         inkscape:connector-curvature="0" /><linearGradient
         id="SVGID_3_"
         gradientUnits="userSpaceOnUse"
         x1="32.223892"
         y1="5.7524734"
         x2="32.223892"
         y2="2.5754135"><stop
           offset="0.359292"
           style="stop-color:#E08E0B;stop-opacity:0.4"
           id="stop24" /><stop
           offset="1"
           style="stop-color:#E08E0B;stop-opacity:0"
           id="stop26" /></linearGradient><path
         style="fill:url(#SVGID_3_)"
         d="m 34.711201,2.9944475 c 0,0.4736595 -1.228634,2.7580259 -2.602337,2.7580259 -1.373701,0 -2.372276,-2.2843664 -2.372276,-2.7580259 0,-0.4736595 0.889947,-0.416914 2.263648,-0.416914 1.3737,0 2.710965,-0.056745 2.710965,0.416914 z"
         id="path28"
         inkscape:connector-curvature="0" /></g><g
       id="g30"><linearGradient
         id="SVGID_4_"
         gradientUnits="userSpaceOnUse"
         x1="27.324135"
         y1="32.186722"
         x2="27.324135"
         y2="37.927303"><stop
           offset="0"
           style="stop-color:#FFECDF;stop-opacity:0"
           id="stop33" /><stop
           offset="0.3720553"
           style="stop-color:#FFF1E7;stop-opacity:0.6"
           id="stop35" /><stop
           offset="0.8224315"
           style="stop-color:#FFFEFD;stop-opacity:0.0536747"
           id="stop37" /><stop
           offset="1"
           style="stop-color:#FFFFFF;stop-opacity:0"
           id="stop39" /></linearGradient><path
         style="fill:url(#SVGID_4_);enable-background:new"
         d="m 26.179569,35.270348 c -2.238296,-3.789791 0.03853,-4.26429 2.287336,-0.427048 2.247637,3.839306 -0.05137,4.220966 -2.287336,0.427048 z"
         id="path41"
         inkscape:connector-curvature="0" /><linearGradient
         id="SVGID_5_"
         gradientUnits="userSpaceOnUse"
         x1="37.376221"
         y1="27.119017"
         x2="37.376221"
         y2="38.088539"><stop
           offset="0"
           style="stop-color:#FFECDF;stop-opacity:0"
           id="stop44" /><stop
           offset="0.3720553"
           style="stop-color:#FFF1E7;stop-opacity:0.6"
           id="stop46" /><stop
           offset="0.8224315"
           style="stop-color:#FFFEFD;stop-opacity:0.0536747"
           id="stop48" /><stop
           offset="1"
           style="stop-color:#FFFFFF;stop-opacity:0"
           id="stop50" /></linearGradient><path
         style="fill:url(#SVGID_5_);enable-background:new"
         d="m 35.029289,37.810245 c -2.4934,1.606106 1.399239,-4.080306 3.67014,-8.325731 4.110553,-7.685291 0.589515,5.578841 -3.67014,8.325731 z"
         id="path52"
         inkscape:connector-curvature="0" /><linearGradient
         id="SVGID_6_"
         gradientUnits="userSpaceOnUse"
         x1="8.9733696"
         y1="59.826473"
         x2="8.9733696"
         y2="23.577492"
         gradientTransform="matrix(1.7303606,-0.1436231,0.0827174,0.996573,-11.809082,1.6133811)"><stop
           offset="0"
           style="stop-color:#FFFFFF;stop-opacity:0"
           id="stop55" /><stop
           offset="0.1902655"
           style="stop-color:#FFFFFF;stop-opacity:0.3"
           id="stop57" /><stop
           offset="0.359292"
           style="stop-color:#FFFFFF;stop-opacity:0.3"
           id="stop59" /><stop
           offset="1"
           style="stop-color:#FFFFFF;stop-opacity:0"
           id="stop61" /></linearGradient><path
         style="fill:url(#SVGID_6_)"
         d="m 5.2480426,23.856178 c 0,0 -6.8692951,12.114788 3.5494657,35.576184 0,0 1.3354127,0.276367 3.5964347,0.204326 0,0 -9.5405401,-24.380718 -7.1459004,-35.78051 z"
         id="path63"
         inkscape:connector-curvature="0" /><linearGradient
         id="SVGID_7_"
         gradientUnits="userSpaceOnUse"
         x1="8.2042351"
         y1="58.917606"
         x2="8.2042351"
         y2="22.668623"
         gradientTransform="matrix(-1.5420367,-0.0940884,-0.0609024,0.9981437,70.619865,0.9279093)"><stop
           offset="0"
           style="stop-color:#FFFFFF;stop-opacity:0"
           id="stop66" /><stop
           offset="0.1902655"
           style="stop-color:#FFFFFF;stop-opacity:0.3"
           id="stop68" /><stop
           offset="0.359292"
           style="stop-color:#FFFFFF;stop-opacity:0.3"
           id="stop70" /><stop
           offset="1"
           style="stop-color:#FFFFFF;stop-opacity:0"
           id="stop72" /></linearGradient><path
         style="fill:url(#SVGID_7_)"
         d="m 56.962627,22.805386 c 0,0 6.269082,11.90897 -2.705143,35.649292 0,0 -1.185131,0.314289 -3.198597,0.306881 0,-10e-7 8.180779,-24.633832 5.90374,-35.956173 z"
         id="path74"
         inkscape:connector-curvature="0" /></g><g
       id="g76"><linearGradient
         id="SVGID_8_"
         gradientUnits="userSpaceOnUse"
         x1="31.991795"
         y1="41.529236"
         x2="31.991795"
         y2="35.057011"><stop
           offset="0.359292"
           style="stop-color:#471E02"
           id="stop79" /><stop
           offset="0.9292035"
           style="stop-color:#471E02;stop-opacity:0"
           id="stop81" /></linearGradient><path
         style="fill:url(#SVGID_8_)"
         d="m 32.472225,39.730827 c -0.03883,-0.42691 -0.04312,-0.90958 -0.0442,-1.389553 0.003,-0.558563 0.02105,-1.015327 0.159004,-1.513634 0.160935,-0.580699 0.28788,-1.040195 0.133663,-1.348049 -0.09188,-0.184295 -0.246883,-0.42258 -0.728967,-0.42258 -0.482086,0 -0.687514,0.232574 -0.779398,0.41687 -0.154215,0.307853 -0.02713,0.767349 0.133663,1.348049 0.13796,0.498306 0.17448,0.969467 0.177435,1.52803 -0.0011,0.479973 -0.0054,0.962643 -0.04433,1.389557 -0.09847,1.083363 -0.03357,1.266743 -0.612417,1.266743 l 1.135862,0.522976 0,0 1.114365,-0.525391 c -0.578846,0 -0.546219,-0.189651 -0.644684,-1.273018 z"
         id="path83"
         inkscape:connector-curvature="0" /><path
         style="fill:#471e02"
         d="m 48.908478,61.910271 c -0.0011,0 -0.0011,0 -0.0021,0 -4.735993,0 -10.002724,-0.844262 -15.653603,-2.509243 -0.153549,-0.04494 -0.266975,-0.175484 -0.289978,-0.334923 -0.05137,-0.353111 -1.120868,-12.319359 1.022957,-17.470528 -0.573543,0.215077 -1.311333,0.236477 -1.985458,-0.06634 -0.673056,0.30175 -1.412987,0.28035 -1.985993,0.06634 2.14436,5.151169 1.074318,17.117417 1.022957,17.470528 -0.02301,0.159439 -0.136431,0.289982 -0.290516,0.334923 -5.650877,1.664981 -10.91761,2.509243 -15.653603,2.509243 -8.820334,0 -12.7532621,-2.891247 -12.9164434,-3.01537 -0.061527,-0.04601 -0.108609,-0.109146 -0.135895,-0.180839 C -0.6996077,51.554432 0.4571046,29.991537 0.5079314,29.26391 1.6320075,21.212401 2.8181462,16.234043 5.5868723,7.9262582 7.3310363,2.6948367 17.857548,2.0897294 25.623892,2.0897294 c 1.516245,0 2.918531,0.025681 4.112696,0.047082 0.881178,0.016051 1.648395,0.029961 2.263668,0.029961 0.558025,0 1.241779,-0.00963 2.021839,-0.020866 1.043289,-0.014446 2.258854,-0.032101 3.580349,-0.032101 8.102337,0 19.073452,0.602432 20.810123,5.8124528 2.796013,8.3875028 4.410702,13.5135248 5.079476,21.3312318 0.05029,0.734047 1.208076,22.296942 -1.532295,29.456572 -0.02782,0.07169 -0.0749,0.134827 -0.136963,0.180839 -0.162648,0.123055 -4.093972,3.01537 -12.914307,3.01537 z m -15.165665,-3.22189 c 5.476463,1.592221 10.577339,2.400101 15.163525,2.400101 0.0011,0 0.0021,0 0.0021,0 7.794166,0 11.694461,-2.363716 12.327923,-2.785313 2.617317,-7.067608 1.447765,-28.80706 1.435993,-28.982548 C 62.01218,21.602428 60.40926,16.514393 57.633579,8.1862773 55.882996,2.9355954 42.12336,2.9355954 37.602444,2.9355954 c -1.317215,0 -2.5285,0.017121 -3.568581,0.032101 -0.784336,0.011236 -1.472374,0.020866 -2.033607,0.020866 -0.619019,0 -1.391587,-0.013911 -2.278649,-0.029961 -1.189884,-0.021936 -2.586821,-0.047082 -4.097715,-0.047082 -11.775247,0 -18.0740321,1.7254381 -19.2569621,5.2747579 C 3.6158605,16.438955 2.4377472,21.383606 1.3249065,29.348978 c -0.00963,0.147665 -1.1791832,21.886583 1.4386677,28.954191 0.6339982,0.421597 4.5358963,2.785313 12.3295268,2.785313 4.585652,0 9.68653,-0.806812 15.164596,-2.400101 0.187791,-1.540855 0.999416,-13.922279 -1.745234,-18.217415 -0.118774,-0.185119 -2.022394,-1.016472 -8.661968,-10.662325 4.388166,5.24837 9.200733,10.017092 9.334488,10.191508 0.0075,0.0096 0.738327,0.943775 1.744163,0.943775 0.291586,0 0.586382,-0.07919 0.876898,-0.234341 0.121985,-0.06634 0.267508,-0.06634 0.388422,0 0.290516,0.155155 0.585312,0.234341 0.876362,0.234341 1.015469,0 1.736675,-0.933075 1.743095,-0.942707 0.134827,-0.176556 2.088719,-1.240174 9.142414,-10.192658 -4.93074,8.655682 -8.349514,10.476219 -8.468288,10.662407 -2.746258,4.298348 -1.933564,16.677632 -1.745236,18.217415 z"
         id="path85"
         inkscape:connector-curvature="0" /></g></g><g
     id="g87" /><g
     id="g89" /><g
     id="g91" /><g
     id="g93" /><g
     id="g95" /><g
     id="g97" /></svg>