<?xml version="1.0" encoding="utf-8"?>
<!-- Generator: Adobe Illustrator 18.0.0, SVG Export Plug-In . SVG Version: 6.00 Build 0)  -->
<!DOCTYPE svg PUBLIC "-//W3C//DTD SVG 1.1//EN" "http://www.w3.org/Graphics/SVG/1.1/DTD/svg11.dtd">
<svg version="1.1" id="レイヤー_1" xmlns="http://www.w3.org/2000/svg" xmlns:xlink="http://www.w3.org/1999/xlink" x="0px"
	 y="0px" viewBox="0 0 64 64" enable-background="new 0 0 64 64" xml:space="preserve">
<g>
	<linearGradient id="SVGID_1_" gradientUnits="userSpaceOnUse" x1="32.0019" y1="2.1513" x2="32.0019" y2="61.8532">
		<stop  offset="0" style="stop-color:#339ACF;stop-opacity:0.7"/>
		<stop  offset="1" style="stop-color:#339ACF"/>
	</linearGradient>
	<path fill="url(#SVGID_1_)" d="M36.3,25.4c2.5-1.5,4.3-6,4.3-11.3c0-6.6-2.7-11.9-6.1-11.9c-3.4,0-6.1,5.3-6.1,11.9
		c0,1.8,0.2,3.4,0.6,4.9c-0.6-0.3-1.2-0.5-1.8-0.5c-3.4,0-6.1,5.5-6.1,12.2c0,2,0.3,3.9,0.7,5.6c-0.4,2.1-0.7,4.3-0.7,6.6
		c0,10.5,4.9,19,11.1,19s11.1-8.5,11.1-19C43.1,35,40.3,28.2,36.3,25.4z"/>
	<linearGradient id="SVGID_2_" gradientUnits="userSpaceOnUse" x1="32.0019" y1="57.7763" x2="32.0019" y2="28.1282">
		<stop  offset="0" style="stop-color:#253892"/>
		<stop  offset="1" style="stop-color:#1B7ABE"/>
	</linearGradient>
	<path fill="url(#SVGID_2_)" d="M33.2,28.1c0.1,2.2,0,10.4-4.4,14.1c-1.7,1.4-3.4,0.2-4.4-0.9c0,0.5,0,1.1,0,1.6
		c0,8.2,3.4,14.9,7.7,14.9s7.7-6.7,7.7-14.9C39.7,35.4,36.9,29.2,33.2,28.1z"/>
	<path fill="#3587C1" d="M24.4,41.2c1,1.1,2.7,2.3,4.4,0.9c4.4-3.7,4.5-11.8,4.4-14.1c-0.4-0.1-0.8-0.2-1.2-0.2
		C28,27.9,24.8,33.8,24.4,41.2z"/>
	<linearGradient id="SVGID_3_" gradientUnits="userSpaceOnUse" x1="34.4587" y1="22.9942" x2="34.4587" y2="5.0534">
		<stop  offset="0" style="stop-color:#253892"/>
		<stop  offset="1" style="stop-color:#1B7ABE"/>
	</linearGradient>
	<ellipse fill="url(#SVGID_3_)" cx="34.5" cy="14" rx="3.9" ry="9"/>
	<linearGradient id="SVGID_4_" gradientUnits="userSpaceOnUse" x1="27.0881" y1="40.4826" x2="27.0881" y2="20.8081">
		<stop  offset="0" style="stop-color:#253892"/>
		<stop  offset="1" style="stop-color:#1B7ABE"/>
	</linearGradient>
	<ellipse fill="url(#SVGID_4_)" cx="27.1" cy="30.6" rx="4.4" ry="9.8"/>
	<path fill="#192D77" d="M43.6,41.8c0-0.7-0.1-1.8-0.2-3.1c-0.2-1.3-0.4-2.9-1-4.7c-0.5-1.8-1.4-3.8-2.7-5.7
		c-0.3-0.5-0.7-0.9-1.1-1.4c-0.4-0.4-0.9-0.9-1.4-1.2c-0.1,0-0.1-0.1-0.2-0.1c2.5-1.9,4.2-6.3,4.2-11.5c0-7-2.9-12.4-6.7-12.4
		c-3.8,0-6.7,5.5-6.7,12.4c0,1.4,0.1,2.8,0.4,4.1C28,18.1,27.8,18,27.6,18l-0.3-0.1l-0.2,0c-0.2,0-0.1,0-0.2,0c-0.5,0-1,0.1-1.4,0.3
		c-0.9,0.4-1.6,1-2.2,1.8c-1.2,1.5-1.8,3.3-2.3,5.1c-0.2,0.9-0.4,1.8-0.5,2.8c-0.1,0.9-0.2,1.9-0.2,2.8c0,1.9,0.2,3.8,0.7,5.6
		c0,0.1,0.1,0.3,0.1,0.4c-0.1,0.2-0.2,0.3-0.2,0.5c-0.1,0.4-0.2,0.7-0.3,1.1c-0.2,0.7-0.2,1.5-0.2,2.3c0,0.8,0,1.5,0,2.3
		c0,3.1,0.4,6.1,1.3,9c0.5,1.4,1,2.8,1.7,4.1c0.7,1.3,1.5,2.6,2.6,3.6c1,1,2.3,1.9,3.6,2.4c0.4,0.1,0.7,0.2,1.1,0.3
		c0.3,0.1,0.7,0.1,1,0.1c0.4,0.1,0.7,0,1.1,0c0.4,0,0.7-0.1,1-0.2c1.3-0.4,2.5-1,3.5-1.9c0.5-0.4,0.9-0.9,1.3-1.3
		c0.4-0.5,0.8-0.9,1.1-1.4c1.3-1.9,2.1-3.9,2.6-5.7c0.6-1.8,0.8-3.4,1-4.7c0.2-1.3,0.2-2.4,0.2-3.1c0-0.7,0-1.1,0-1.1l0,0
		C43.6,42.9,43.6,42.5,43.6,41.8z M42.5,43.9c0,0.7-0.1,1.7-0.2,3c-0.2,1.3-0.4,2.8-1,4.5c-0.5,1.7-1.3,3.6-2.5,5.4
		c-0.3,0.5-0.7,0.9-1,1.3c-0.4,0.4-0.7,0.9-1.2,1.2c-0.8,0.8-1.9,1.4-3,1.7c-0.6,0.2-1.2,0.2-1.7,0.2c-0.3,0-0.7,0-1-0.1L30,61
		c-1.2-0.4-2.3-1.2-3.2-2.1c-1-0.9-1.7-2.1-2.4-3.3c-0.7-1.2-1.2-2.6-1.6-3.9c-0.8-2.8-1.2-5.7-1.2-8.7c0-0.7,0-1.5,0.1-2.2l0.2-2
		c0.4,1,0.9,1.9,1.5,2.7c0.6,0.7,1.3,1.4,2.2,1.8c0.2,0.1,0.5,0.2,0.7,0.2c0.3,0.1,0.4,0.1,0.6,0.1c0.5,0,1,0,1.4-0.2
		c1.8-0.7,2.7-2.1,3.4-3.3c1.4-2.6,1.6-5,1.8-6.6c0-0.8,0.1-1.5,0-1.9c0-0.4,0-0.7,0-0.7l0,0c0,0,0-0.2-0.1-0.7
		c0-0.4-0.1-1.1-0.2-1.9c-0.2-0.8-0.3-0.8-0.3,0c0,1.6,0,2.5,0,2.5l0,0c0,0,0,0.2,0,0.7c0,0.4-0.1,1.1-0.2,1.8
		c-0.1,0.8-0.3,1.7-0.6,2.8c-0.3,1-0.7,2.2-1.3,3.4c-0.6,1.1-1.5,2.4-2.8,2.8c-0.3,0.1-0.7,0.2-1,0.1c-0.2,0-0.4,0-0.6-0.1
		c-0.1-0.1-0.3-0.1-0.5-0.2c-0.7-0.3-1.3-0.8-1.7-1.4c-1-1.3-1.7-2.9-2.1-4.6c-0.4-1.7-0.6-3.5-0.6-5.3c0-0.9,0-1.8,0.1-2.7
		c0.1-0.9,0.3-1.8,0.5-2.6c0.4-1.7,1.2-3.3,2.1-4.6c0.5-0.6,1.1-1.2,1.7-1.5c0.3-0.1,0.7-0.2,1-0.3c0,0,0.1,0,0.1,0l0.2,0l0.3,0
		c0.2,0,0.3,0,0.5,0.1c0.7,0.1,1.7,0.4,1.5,0.2c-0.1-0.2-0.1-0.4-0.1-0.4c-0.4-1.5-0.5-3.1-0.5-4.8c0-6.1,2.6-11.3,5.6-11.3
		c3,0,5.6,5.2,5.6,11.3c0,5.1-1.7,9.5-4.1,10.9c-0.7-0.4,0,0.4,0.8,1.2c0.8,0.9,1.5,1.8,2,2.7c1.2,1.8,1.9,3.7,2.4,5.4
		c0.5,1.7,0.8,3.3,1,4.5c0.2,1.3,0.2,2.3,0.3,3c0,0.7,0,1,0,1.1C42.5,42.9,42.5,43.2,42.5,43.9z"/>
	<linearGradient id="SVGID_5_" gradientUnits="userSpaceOnUse" x1="23.8848" y1="39.2137" x2="23.8848" y2="33.8239">
		<stop  offset="0" style="stop-color:#FFFFFF;stop-opacity:0.2"/>
		<stop  offset="1" style="stop-color:#FFFFFF;stop-opacity:0.6"/>
	</linearGradient>
	<ellipse fill="url(#SVGID_5_)" cx="23.9" cy="36.5" rx="1.2" ry="2.7"/>
	<linearGradient id="SVGID_6_" gradientUnits="userSpaceOnUse" x1="31.4973" y1="22.9942" x2="31.4973" y2="17.6044">
		<stop  offset="0" style="stop-color:#FFFFFF;stop-opacity:0.2"/>
		<stop  offset="1" style="stop-color:#FFFFFF;stop-opacity:0.6"/>
	</linearGradient>
	<ellipse fill="url(#SVGID_6_)" cx="31.5" cy="20.3" rx="1.2" ry="2.7"/>
	<linearGradient id="SVGID_7_" gradientUnits="userSpaceOnUse" x1="29.6075" y1="27.0708" x2="29.6075" y2="19.7716">
		<stop  offset="0" style="stop-color:#FFFFFF;stop-opacity:0.2"/>
		<stop  offset="1" style="stop-color:#FFFFFF;stop-opacity:0.9"/>
	</linearGradient>
	<ellipse fill="url(#SVGID_7_)" cx="29.6" cy="23.4" rx="1.9" ry="3.6"/>
	<linearGradient id="SVGID_8_" gradientUnits="userSpaceOnUse" x1="36.932" y1="11.4214" x2="36.932" y2="4.1222">
		<stop  offset="0" style="stop-color:#FFFFFF;stop-opacity:0.2"/>
		<stop  offset="1" style="stop-color:#FFFFFF;stop-opacity:0.9"/>
	</linearGradient>
	<ellipse fill="url(#SVGID_8_)" cx="36.9" cy="7.8" rx="1.9" ry="3.6"/>
	<linearGradient id="SVGID_9_" gradientUnits="userSpaceOnUse" x1="36.2871" y1="36.1042" x2="36.2871" y2="26.0724">
		<stop  offset="0" style="stop-color:#FFFFFF;stop-opacity:0.2"/>
		<stop  offset="1" style="stop-color:#FFFFFF;stop-opacity:0.9"/>
	</linearGradient>
	<ellipse fill="url(#SVGID_9_)" cx="36.3" cy="31.1" rx="2.6" ry="5"/>
	<linearGradient id="SVGID_10_" gradientUnits="userSpaceOnUse" x1="26.2963" y1="57.7763" x2="26.2963" y2="50.5333">
		<stop  offset="0" style="stop-color:#FFFFFF;stop-opacity:0.2"/>
		<stop  offset="1" style="stop-color:#FFFFFF;stop-opacity:0.6"/>
	</linearGradient>
	<ellipse fill="url(#SVGID_10_)" cx="26.3" cy="54.2" rx="1.6" ry="3.6"/>
</g>
<g>
	<g>
		<linearGradient id="SVGID_11_" gradientUnits="userSpaceOnUse" x1="49.476" y1="15.1491" x2="49.476" y2="34.7726">
			<stop  offset="0" style="stop-color:#339ACF;stop-opacity:0.7"/>
			<stop  offset="1" style="stop-color:#339ACF"/>
		</linearGradient>
		<path fill="url(#SVGID_11_)" d="M54.5,25.9c0,5.4-2.3,8.9-5,8.9c-2.8,0-5-3.5-5-8.9s2.3-10.7,5-10.7
			C52.3,15.1,54.5,20.5,54.5,25.9z"/>
		<path fill="#192D77" d="M49.5,35.3c-3.2,0-5.5-3.9-5.5-9.4c0-5.4,2.2-11.2,5.5-11.2c3.3,0,5.5,5.8,5.5,11.2
			C55,31.3,52.7,35.3,49.5,35.3z M49.5,15.6c-2.3,0-4.5,5-4.5,10.2c0,4.9,1.9,8.4,4.5,8.4s4.5-3.5,4.5-8.4
			C54,20.6,51.8,15.6,49.5,15.6z"/>
	</g>
	<linearGradient id="SVGID_12_" gradientUnits="userSpaceOnUse" x1="49.476" y1="18.0349" x2="49.476" y2="31.8868">
		<stop  offset="0" style="stop-color:#1B7ABE"/>
		<stop  offset="1" style="stop-color:#253892"/>
	</linearGradient>
	<path fill="url(#SVGID_12_)" d="M51.8,25.6c0,3.8-1,6.3-2.3,6.3c-1.3,0-2.3-2.4-2.3-6.3s1-7.6,2.3-7.6C50.7,18,51.8,21.8,51.8,25.6
		z"/>
	<linearGradient id="SVGID_13_" gradientUnits="userSpaceOnUse" x1="51.2767" y1="22.435" x2="51.2767" y2="16.6717">
		<stop  offset="0" style="stop-color:#FFFFFF;stop-opacity:0.2"/>
		<stop  offset="1" style="stop-color:#FFFFFF;stop-opacity:0.9"/>
	</linearGradient>
	<ellipse fill="url(#SVGID_13_)" cx="51.3" cy="19.6" rx="1.5" ry="2.9"/>
	<linearGradient id="SVGID_14_" gradientUnits="userSpaceOnUse" x1="46.8914" y1="32.1464" x2="46.8914" y2="27.9392">
		<stop  offset="0" style="stop-color:#FFFFFF;stop-opacity:0.2"/>
		<stop  offset="1" style="stop-color:#FFFFFF;stop-opacity:0.6"/>
	</linearGradient>
	<ellipse fill="url(#SVGID_14_)" cx="46.9" cy="30" rx="0.9" ry="2.1"/>
</g>
<g>
	<g>
		<linearGradient id="SVGID_15_" gradientUnits="userSpaceOnUse" x1="12.8853" y1="36.5188" x2="12.8853" y2="52.6678">
			<stop  offset="0" style="stop-color:#339ACF;stop-opacity:0.7"/>
			<stop  offset="1" style="stop-color:#339ACF"/>
		</linearGradient>
		<path fill="url(#SVGID_15_)" d="M17,45.4c0,4.5-1.9,7.3-4.1,7.3s-4.1-2.9-4.1-7.3s1.9-8.8,4.1-8.8S17,40.9,17,45.4z"/>
		<path fill="#192D77" d="M12.9,53.2c-2.7,0-4.6-3.2-4.6-7.8c0-4.5,1.9-9.3,4.6-9.3s4.6,4.8,4.6,9.3C17.5,50,15.6,53.2,12.9,53.2z
			 M12.9,37c-1.9,0-3.6,4.1-3.6,8.3c0,3.9,1.5,6.8,3.6,6.8s3.6-2.9,3.6-6.8C16.5,41.1,14.8,37,12.9,37z"/>
	</g>
	<linearGradient id="SVGID_16_" gradientUnits="userSpaceOnUse" x1="12.8853" y1="38.8937" x2="12.8853" y2="50.293">
		<stop  offset="0" style="stop-color:#1B7ABE"/>
		<stop  offset="1" style="stop-color:#253892"/>
	</linearGradient>
	<path fill="url(#SVGID_16_)" d="M14.8,45.1c0,3.1-0.8,5.2-1.9,5.2s-1.9-2-1.9-5.2s0.8-6.2,1.9-6.2S14.8,42,14.8,45.1z"/>
	<linearGradient id="SVGID_17_" gradientUnits="userSpaceOnUse" x1="14.3672" y1="42.5147" x2="14.3672" y2="37.7718">
		<stop  offset="0" style="stop-color:#FFFFFF;stop-opacity:0.2"/>
		<stop  offset="1" style="stop-color:#FFFFFF;stop-opacity:0.9"/>
	</linearGradient>
	<ellipse fill="url(#SVGID_17_)" cx="14.4" cy="40.1" rx="1.2" ry="2.4"/>
	<linearGradient id="SVGID_18_" gradientUnits="userSpaceOnUse" x1="10.7584" y1="50.5066" x2="10.7584" y2="47.0444">
		<stop  offset="0" style="stop-color:#FFFFFF;stop-opacity:0.2"/>
		<stop  offset="1" style="stop-color:#FFFFFF;stop-opacity:0.6"/>
	</linearGradient>
	<ellipse fill="url(#SVGID_18_)" cx="10.8" cy="48.8" rx="0.8" ry="1.7"/>
</g>
</svg>
