<?xml version="1.0" encoding="utf-8"?>
<!-- Generator: Adobe Illustrator 15.0.2, SVG Export Plug-In . SVG Version: 6.00 Build 0)  -->
<!DOCTYPE svg PUBLIC "-//W3C//DTD SVG 1.1//EN" "http://www.w3.org/Graphics/SVG/1.1/DTD/svg11.dtd">
<svg version="1.1" id="レイヤー_1" xmlns="http://www.w3.org/2000/svg" xmlns:xlink="http://www.w3.org/1999/xlink" x="0px"
	 y="0px" width="64px" height="64px" viewBox="0 0 64 64" style="enable-background:new 0 0 64 64;" xml:space="preserve">
<g>
	<g>
		<linearGradient id="SVGID_1_" gradientUnits="userSpaceOnUse" x1="27.28125" y1="25.3964844" x2="44.4953117" y2="75.0707016">
			<stop  offset="0" style="stop-color:#FFF1BF"/>
			<stop  offset="0.1983559" style="stop-color:#FFE9B2"/>
			<stop  offset="0.566525" style="stop-color:#FFD38F"/>
			<stop  offset="1" style="stop-color:#FFB55F"/>
		</linearGradient>
		<path style="fill:url(#SVGID_1_);" d="M59.9150391,32.1264648c5.2558594,29.3842773-6.1865234,27.7456055-28.2299805,27.7680664
			c-18.5625,0.0205078-33.3339844-1.1259766-27.6210938-26.0078125C9.644043,9.5810547,13.1225586,4.3588867,31.6850586,4.3588867
			C51.8417969,4.3588867,55.4697266,7.2739258,59.9150391,32.1264648z"/>
		<linearGradient id="SVGID_2_" gradientUnits="userSpaceOnUse" x1="37.8964844" y1="-5.6679688" x2="34.0634613" y2="15.1655426">
			<stop  offset="0" style="stop-color:#D23A18"/>
			<stop  offset="0.2649619" style="stop-color:#DA4E1C"/>
			<stop  offset="0.8068733" style="stop-color:#ED8328"/>
			<stop  offset="0.89697" style="stop-color:#F18C2A"/>
			<stop  offset="0.9146296" style="stop-color:#F29537"/>
			<stop  offset="0.9474026" style="stop-color:#F5AD5A"/>
			<stop  offset="0.9913981" style="stop-color:#F9D391"/>
			<stop  offset="1" style="stop-color:#FADB9D"/>
		</linearGradient>
		<path style="fill:url(#SVGID_2_);" d="M19.9902344,6.3378906C12.8808594,8.4985352,10.4023438,11.3334961,15.9511719,12
			S30,9.7270508,34,10.9467773S36.4082031,15.1289063,40.3330078,15s3.7958984-2.9873047,7.4833984,0.0039063
			s7.40625,5.6704102,8.2949219,0S40.8144531,0.0092773,19.9902344,6.3378906z"/>
		<linearGradient id="SVGID_3_" gradientUnits="userSpaceOnUse" x1="35.6435547" y1="6.2949219" x2="59.5605316" y2="1.7949119">
			<stop  offset="0" style="stop-color:#D23A18"/>
			<stop  offset="0.2649619" style="stop-color:#DA4E1C"/>
			<stop  offset="0.8068733" style="stop-color:#ED8328"/>
			<stop  offset="0.89697" style="stop-color:#F18C2A"/>
			<stop  offset="0.9146296" style="stop-color:#F29537"/>
			<stop  offset="0.9474026" style="stop-color:#F5AD5A"/>
			<stop  offset="0.9913981" style="stop-color:#F9D391"/>
			<stop  offset="1" style="stop-color:#FADB9D"/>
		</linearGradient>
		<path style="fill:url(#SVGID_3_);" d="M18.4052734,6.2685547c0,0,17.9560547,1.8095703,30.5673828,1.0205078
			C48.9726563,7.2890625,37.3935547,0.9536133,18.4052734,6.2685547z"/>
		
			<path style="fill:none;stroke:#FFBC80;stroke-width:0.812055;stroke-linecap:round;stroke-linejoin:round;stroke-miterlimit:10;" d="
			M19.9921875,6.5117188c0,0,8.1826172,0.980957,14.0917969,0.9765625"/>
		
			<path style="fill:none;stroke:#FFBC80;stroke-width:0.812055;stroke-linecap:round;stroke-linejoin:round;stroke-miterlimit:10;" d="
			M38.2480469,7.4804688c0,0,1.2353516,0.0205078,2.8291016,0"/>
		<path style="fill:#FFFFFF;" d="M16.7685547,10.2109375c1.5175781-1.1435547,4.5283203-0.4262695,1.9765625,3.015625
			S11.7011719,14.03125,16.7685547,10.2109375z"/>
		<path style="fill:#FFFFFF;" d="M14.9853516,16.7578125c1.2050781,0.0419922-0.1513672,3.1103516-1.1513672,2.6762695
			S12.8046875,16.6821289,14.9853516,16.7578125z"/>
		<path style="opacity:0.35;fill:#FFFFFF;" d="M41.1572266,55.6376953C39.7675781,54.1728516,48.1171875,55.796875,51.25,53.40625
			c3.5839844-2.7353516,6.1298828-4.3105469,5.6289063-1.4667969
			C56.3076172,55.1826172,43.1748047,57.7666016,41.1572266,55.6376953z"/>
	</g>
	<path style="fill:none;stroke:#541715;stroke-width:2.43819;stroke-miterlimit:10;" d="M59.9150391,32.1264648
		c5.2558594,29.3842773-6.1865234,27.7456055-28.2299805,27.7680664c-18.5625,0.0205078-33.3339844-1.1259766-27.6210938-26.0078125
		C9.644043,9.5810547,13.1225586,4.3588867,31.6850586,4.3588867C51.8417969,4.3588867,55.4697266,7.2739258,59.9150391,32.1264648z
		"/>
	<g>
		<path style="fill:none;stroke:#330100;stroke-width:2;stroke-miterlimit:10;" d="M15.5200195,34.046875
			c0,0,7.4633789,0,9.8383789-7.2382813"/>
		<path style="fill:none;stroke:#330100;stroke-width:2;stroke-miterlimit:10;" d="M49.2910156,34.046875
			c0,0-7.4609375,0-9.8359375-7.2382813"/>
		<path style="fill:none;stroke:#330100;stroke-width:3;stroke-miterlimit:10;" d="M14.2431641,38.2304688
			c0,0,7.015625,1.3574219,11.1152344-4.1835938"/>
		<path style="fill:none;stroke:#330100;stroke-width:3;stroke-miterlimit:10;" d="M38.9882813,33.421875
			c0,0,2.0097656,6.1132813,10.7675781,5.5419922"/>
	</g>
	<path style="fill:#842C38;" d="M21.5415039,56.0117188c-1.8134766-0.1484375-4.0097656-2.9394531-1.875-5.8876953
		c1.8188477-2.5117188,6.2216797-4.5839844,12.3618164-4.9130859c6.140625-0.3261719,12.1972656,2.7851563,13.6347656,6.5517578
		c0.8125,2.1289063-1.9179688,4.9042969-4.2792969,4.5761719s-5.3720703-4.0849609-9.4785156-4.3300781
		C27.7988281,51.7626953,25.8481445,56.3652344,21.5415039,56.0117188z"/>
	<path style="fill:none;stroke:#330200;stroke-width:1.9139445;stroke-miterlimit:10;" d="M21.5415039,56.0117188
		c-1.8134766-0.1484375-4.0097656-2.9394531-1.875-5.8876953c1.8188477-2.5117188,6.2216797-4.5839844,12.3618164-4.9130859
		c6.140625-0.3261719,12.1972656,2.7851563,13.6347656,6.5517578c0.8125,2.1289063-1.9179688,4.9042969-4.2792969,4.5761719
		s-5.3720703-4.0849609-9.4785156-4.3300781C27.7988281,51.7626953,25.8481445,56.3652344,21.5415039,56.0117188z"/>
</g>
</svg>
