<?xml version="1.0" encoding="utf-8"?>
<!-- Generator: Adobe Illustrator 16.0.0, SVG Export Plug-In . SVG Version: 6.00 Build 0)  -->
<!DOCTYPE svg PUBLIC "-//W3C//DTD SVG 1.1//EN" "http://www.w3.org/Graphics/SVG/1.1/DTD/svg11.dtd">
<svg version="1.1" id="Layer_61_copy_2" xmlns="http://www.w3.org/2000/svg" xmlns:xlink="http://www.w3.org/1999/xlink" x="0px"
	 y="0px" width="64px" height="64px" viewBox="0 0 64 64" enable-background="new 0 0 64 64" xml:space="preserve">
<rect x="9.061" y="7.628" opacity="0.25" fill="#FFFFFF" width="45.878" height="45.879"/>
<polygon opacity="0.25" fill="#FFFFFF" points="54.939,20.421 54.939,7.628 39.864,7.628 9.061,42.609 9.061,53.507 25.807,53.507 
	"/>
<g>
	<path fill="#8B1013" d="M4.322,2.889v55.356h55.355V2.889H4.322z M54.939,53.507H9.061V7.628h45.878V53.507z"/>
	<path fill="#E30012" d="M5.188,3.755v53.624h53.623V3.755H5.188z M54.939,53.507H9.061V7.628h45.878V53.507z"/>
	<g>
		<rect x="31.35" y="6.067" fill="#E30012" width="1.375" height="48.75"/>
		<rect x="31.35" y="29.854" fill="#8B1013" width="1.375" height="1.775"/>
		<rect x="31.35" y="6.292" fill="#8B1013" width="1.375" height="1.775"/>
		<rect x="7.598" y="29.879" fill="#E30012" width="48.75" height="1.375"/>
		<rect x="54.454" y="29.879" fill="#8B1013" width="1.894" height="1.375"/>
		<rect x="7.582" y="29.879" fill="#8B1013" width="1.894" height="1.375"/>
	</g>
	<path fill="#EE5049" d="M6.203,4.77v51.596h51.595V4.77H6.203z M54.939,53.507H9.061V7.628h45.878V53.507z"/>
	<path fill="#E30012" d="M7.34,5.907v49.321h49.32V5.907H7.34z M54.939,53.507H9.061V7.628h45.878V53.507z"/>
	<path fill="#C10D23" d="M8.296,6.863v47.407h47.407V6.863H8.296z M54.939,53.507H9.061V7.628h45.878V53.507z"/>
	<rect x="2.292" y="58.261" fill="#E30012" stroke="#8B1013" stroke-miterlimit="10" width="59.417" height="2.883"/>
	<rect x="2.292" y="58.261" fill="#E30012" width="59.417" height="2.883"/>
	<rect x="2.292" y="58.261" fill="#EE5049" width="59.417" height="0.55"/>
</g>
</svg>
