<?xml version="1.0" encoding="utf-8"?>
<!-- Generator: Adobe Illustrator 18.0.0, SVG Export Plug-In . SVG Version: 6.00 Build 0)  -->
<!DOCTYPE svg PUBLIC "-//W3C//DTD SVG 1.1//EN" "http://www.w3.org/Graphics/SVG/1.1/DTD/svg11.dtd">
<svg version="1.1" id="レイヤー_1" xmlns="http://www.w3.org/2000/svg" xmlns:xlink="http://www.w3.org/1999/xlink" x="0px"
	 y="0px" viewBox="0 0 64 64" enable-background="new 0 0 64 64" xml:space="preserve">
<path fill="#003D23" d="M58.5,54.6c-0.1-0.3-3.3-8.1-9.3-8.1c-1.1,0-2.1,0.2-3.2,0.7c0.3-0.8,0.6-1.7,0.8-2.6l0.1-0.3
	c0.1-0.7,0.3-1.4,0.3-2.1c0.1-0.8,0.1-1.6,0.1-2.3l0-0.1c0-0.3,0-0.6,0-1c0.4,0.1,0.8,0.1,1.3,0.1c1.8,0,3.3-0.8,4.3-2.4
	c1.1-1.7,1.5-2.9,2-4.6c0.2-0.7,0.4-1.5,0.8-2.6l0.3-0.8L55,28.5c0,0-0.8-0.1-1.8-0.1c-3.9,0-6.5,1.5-7.6,4.3
	c-0.2-0.4-0.3-0.8-0.5-1.1c-1-1.9-2.3-3.7-4-5.3l-1.5-1.2l-0.8-0.5c1.3-2.3,2.7-6.3,0.6-11c-1.7-3.6-3.1-5.2-5.3-7.7
	c-0.9-1-2-2.2-3.3-3.8l-0.7-0.8l-0.5,0.9c-0.2,0.4-5,8.7-2.8,16.2c1.1,3.6,3.6,6.4,7.5,8.2l1.4,0.7c0.2,0.1,0.4,0.2,0.7,0.4
	c0.2,0.1,0.3,0.2,0.5,0.3l0.9,0.7c0,0,0,0,0,0c-2.7,0-5.1,1.6-5.2,1.7L31.8,31l0.8,0.6c0.6,0.5,1.1,0.9,1.6,1.2c1,0.8,1.7,1.4,3.2,2
	c0.6,0.3,1.3,0.4,1.9,0.4c1.2,0,2.1-0.4,2.8-0.9c0.8,1.8,1.3,3.7,1.4,5.6l0,0.2c0,0.6,0,1.2,0,1.8c0,0.5-0.1,1-0.2,1.6l-0.1,0.3
	c-0.4,1.6-0.8,2.9-1.5,4c-0.4,0.7-0.9,1.4-1.4,2.1c-0.7-2-2.8-3.1-4.4-3.6c0,0,0.1-0.1,0.1-0.1l0.2-0.3c0.1-0.1,0.1-0.3,0.2-0.5
	l0.3-0.7c0.3-0.9,0.5-1.9,0.5-2.9c0-2.1-0.8-4.1-2.2-5.6c-0.3-0.4-0.7-0.7-1.2-1.1L33.6,35c-0.2-0.1-0.3-0.2-0.5-0.3l-0.6-0.3
	c-1-0.5-1.9-0.7-3-0.9c-2.1-0.3-4.4,0.1-6.2,1.1c-1,0.6-1.9,1.2-2.6,1.9c-0.2,0.2-0.4,0.4-0.6,0.7c-0.3-1.6-1-3-2-4
	c-2.1-2.2-5.4-2.6-7.7-2.6c-2,0-3.5,0.3-3.5,0.3L6,31l0.3,0.8c1.3,3.4,2.2,4.6,3.6,6.3c0.4,0.5,0.8,1,1.2,1.6
	c1.3,1.8,3.1,2.7,5.3,2.7c0.5,0,1-0.1,1.5-0.1c-0.2,0.9-0.2,1.9-0.2,3.1c0.1,2.6,1.1,5.1,2.8,7.1c-4.2,0.2-5.7,5.1-5.9,7.7l-0.1,0.8
	l0.8-0.1c2.5-0.2,3.5-0.6,4.8-1.1c0.4-0.1,0.8-0.3,1.3-0.5c2.1-0.7,2.8-2.3,3-3.6c2.4,1.2,5.2,1.8,7.9,1.6c0,0.4,0,0.8,0.2,1.2
	c0.1,0.2,0.2,0.5,0.3,0.7c0.3,0.7,0.5,1.3,1.5,2.4l0.4,0.5l0.5-0.4c0.2-0.2,2.3-1.6,2.2-3.5c0-0.7-0.3-1.3-0.8-1.9
	c2.4-0.9,4.6-2.4,6.4-4.4c0.8,1.7,2.4,3.9,5.8,4c0.8,0,1.4,0.1,2,0.1c2.4,0.1,4.2,0.1,7.2-0.6l0.8-0.2L58.5,54.6z M34.3,43.8
	l-0.2,0.5c0,0.1-0.1,0.2-0.1,0.3l-0.5,0.7c-0.1,0.1-0.1,0.1-0.2,0.2c-0.8,0.9-2,1.4-3.3,1.4c0,0,0,0,0,0c-1.2,0-2.3-0.5-3-1.3
	c-0.6-0.8-0.9-1.8-0.7-2.8c0.2-0.9,0.8-1.6,1.5-1.9c0.3-0.1,0.6-0.2,0.9-0.2c0.4,0,0.8,0.1,1.2,0.3c0.6,0.3,0.8,0.9,0.9,1.4
	c0.1,0.5-0.1,1-0.3,1.2c-0.3,0.3-0.6,0.4-0.7,0.4c-0.4,0.1-0.6,0-0.7-0.1L29,43.8h-0.1c-0.5-0.1-1,0.1-1.2,0.6
	c-0.1,0.3-0.1,0.5,0,0.8c0.1,0.3,0.3,0.5,0.5,0.6c0,0,0.2,0.1,0.5,0.2c0.4,0.1,0.9,0.2,1.5,0.1c0.5-0.1,1.3-0.3,2-1.1
	c0.7-0.8,1-1.8,0.9-2.9c-0.1-1.3-0.8-2.4-2-3.1c-1-0.6-2.3-0.8-3.4-0.5c0.1-0.5,0.1-0.9-0.1-1.3c-0.1-0.4-0.3-0.8-0.6-1.1
	c0.4-0.1,0.7-0.1,1.1-0.1c1.9,0,3.6,0.7,4.8,1.9c1,1,1.5,2.4,1.6,3.8C34.6,42.5,34.5,43.2,34.3,43.8z M24.8,40.7
	c-0.3,0.5-0.5,1-0.6,1.5c0,0,0,0,0,0.1l-0.3,0.4l0.2-0.2c-0.3,1.6,0.1,3.2,1.1,4.5c0.2,0.3,0.5,0.6,1,1c0.1,0.1,0.3,0.2,0.5,0.3
	l0.3,0.2c0.1,0.1,0.2,0.1,0.4,0.2c0.8,0.4,1.7,0.6,2.6,0.6l0.2,0c1.6,0,3.2-0.6,4.4-1.6c0,0.3,0.1,0.5,0.1,0.7
	c0.1,1,0.2,1.7,0.7,2.9c0.2,0.6,0.6,1.1,1.1,1.5c-0.4,0.2-0.9,0.4-1.3,0.6c-1.5,0.5-3.1,0.7-4.7,0.6c-1.6-0.1-3.2-0.5-4.7-1.2
	c-2.9-1.4-4.9-4.4-5.2-7.7c-0.1-1.5,0.2-3.2,0.8-4.7c0.4-0.8,0.8-1.3,1.3-2c0.2-0.2,0.4-0.4,0.7-0.6c0,0.2,0.1,0.4,0.2,0.7
	c0.1,0.2,0.2,0.4,0.2,0.6C24.1,39.6,24.3,40,24.8,40.7z"/>
<g>
	<path fill="#026636" d="M36.1,23.7c0,0,0.4,0.2,1.2,0.6c0.4,0.2,0.9,0.6,1.5,1c0.1,0.1,0.3,0.2,0.5,0.3c0.1,0.1,0.3,0.2,0.4,0.4
		c0.3,0.3,0.6,0.5,1,0.8c1.3,1.2,2.7,2.9,3.8,5.1c1.1,2.2,2,4.9,2.1,7.9c0,0.8,0,1.5-0.1,2.3c0,0.8-0.2,1.6-0.4,2.4
		c-0.4,1.6-0.9,3.2-1.8,4.7c-1.7,3.1-4.7,5.6-8.3,6.8c-3.6,1.2-7.8,0.9-11.3-0.9c-3.6-1.8-6.1-5.7-6.3-9.8c-0.1-1,0-2,0.2-3
		c0.1-0.5,0.2-1,0.4-1.5c0.1-0.2,0.2-0.5,0.3-0.7l0.3-0.7c0.4-0.8,1-1.8,1.7-2.5c0.7-0.7,1.5-1.3,2.4-1.8c1.8-1,3.8-1.3,5.8-1
		c1,0.2,1.9,0.4,2.8,0.9l0.6,0.3c0.2,0.1,0.4,0.3,0.6,0.4c0.4,0.3,0.8,0.6,1.1,1c1.3,1.4,2,3.3,2,5.2c0,0.9-0.2,1.8-0.5,2.7
		l-0.3,0.6c-0.1,0.2-0.2,0.4-0.3,0.6c-0.1,0.2-0.3,0.4-0.4,0.6c-0.1,0.2-0.3,0.4-0.4,0.5c-1.2,1.3-3,2-4.6,1.9
		c-0.8,0-1.6-0.2-2.4-0.6c-0.2-0.1-0.3-0.2-0.5-0.3c-0.2-0.1-0.4-0.2-0.5-0.4c-0.3-0.3-0.6-0.5-0.8-0.8c-1-1.2-1.3-2.9-0.9-4.2
		c0.3-1.4,1.3-2.6,2.5-3c1.2-0.5,2.5-0.3,3.4,0.2c1,0.6,1.5,1.6,1.6,2.5c0.1,0.9-0.2,1.8-0.7,2.3c-0.5,0.6-1.1,0.8-1.6,0.9
		c-0.5,0.1-0.9,0-1.1-0.1c-0.2-0.1-0.4-0.1-0.4-0.1c-0.2-0.1-0.2-0.3-0.2-0.4c0.1-0.2,0.3-0.2,0.4-0.2c0,0,0.4,0.3,1.1,0.2
		c0.4-0.1,0.8-0.2,1.2-0.7c0.3-0.4,0.6-1.1,0.5-1.8c-0.1-0.7-0.5-1.5-1.2-1.9c-0.8-0.4-1.8-0.6-2.8-0.2c-1,0.4-1.7,1.3-2,2.5
		c-0.2,1.1,0,2.5,0.8,3.5c0.8,1,2.1,1.6,3.5,1.6c1.4,0,2.8-0.6,3.8-1.6c0.1-0.1,0.2-0.3,0.4-0.4l0.3-0.4c0.1-0.2,0.2-0.4,0.3-0.5
		l0.2-0.5c0.2-0.7,0.4-1.5,0.4-2.3c0-1.6-0.7-3.2-1.8-4.3c-2.3-2.4-6.3-2.8-9.3-1.1c-0.7,0.4-1.4,0.9-2,1.6c-0.6,0.7-1,1.3-1.4,2.2
		c-0.7,1.5-1,3.4-0.9,5.1c0.3,3.5,2.5,6.8,5.6,8.3c1.5,0.8,3.2,1.2,4.9,1.3c1.7,0.1,3.4-0.1,4.9-0.7c3.1-1.1,5.6-3.4,7-6
		c0.7-1.3,1.2-2.8,1.5-4.2c0.1-0.7,0.3-1.4,0.3-2.1c0.1-0.7,0.1-1.4,0-2c-0.1-2.7-0.9-5-1.9-6.9c-1-1.9-2.3-3.3-3.4-4.4
		c-0.3-0.2-0.6-0.5-0.8-0.7c-0.1-0.1-0.3-0.2-0.4-0.3c-0.1-0.1-0.3-0.2-0.4-0.2c-0.5-0.3-0.8-0.6-1.3-0.8c-0.8-0.4-1.2-0.6-1.2-0.6
		c-0.6-0.3-0.9-1.1-0.5-1.7S35.4,23.4,36.1,23.7C36.1,23.7,36.1,23.7,36.1,23.7z"/>
	<g>
		<path fill="#118A3B" d="M30.3,2.4c0,0-4.3,14.8,6.1,24.2c0,0,5.7-5.6,2.3-12.8C36.4,8.7,34.6,7.7,30.3,2.4z"/>
		<path fill="#2AA03A" d="M30.3,2.4c0,0-10.5,17.8,6.1,24.2C36.4,26.6,31.7,22.6,30.3,2.4z"/>
	</g>
	<g>
		<path fill="#118A3B" d="M54.8,29.2c0,0-7.6,0.9-8.8,8.5c0,0,4,1.9,6.2-1.5C53.7,33.8,53.7,32.7,54.8,29.2z"/>
		<path fill="#2AA03A" d="M54.8,29.2c0,0-10.5-1.8-8.8,8.5C46,37.7,46.5,34.3,54.8,29.2z"/>
	</g>
	<g>
		<path fill="#118A3B" d="M33.1,31c0,0,5.7-2.1,9.6,1.9c0,0-2.1,2.4-5,1.2C35.7,33.3,35.3,32.6,33.1,31z"/>
		<path fill="#2AA03A" d="M33.1,31c0,0,6.8-4.6,9.6,1.9C42.7,32.9,41,31.1,33.1,31z"/>
	</g>
	<g>
		<path fill="#118A3B" d="M57.8,54.9c0,0-6-8.5-14.7-4.9c0,0,0.8,5.3,5.7,5.4C52.3,55.6,53.4,56,57.8,54.9z"/>
		<path fill="#2AA03A" d="M57.8,54.9c0,0-5.3-13.3-14.7-4.9C43.1,50,46.9,49.6,57.8,54.9z"/>
	</g>
	<g>
		<path fill="#118A3B" d="M7,31.5c0,0,10.5,0.3,12.5,9.6c0,0-4.8,2.3-7.8-1.8C9.6,36.5,8.6,35.7,7,31.5z"/>
		<path fill="#2AA03A" d="M7,31.5c0,0,14.1-3,12.5,9.6C19.4,41.1,17.6,37.6,7,31.5z"/>
	</g>
	<g>
		<path fill="#118A3B" d="M15.2,60.3c0,0,2.2-6.8,8.5-6.3c0,0,0.6,3.6-2.6,4.7C18.9,59.5,18.3,60,15.2,60.3z"/>
		<path fill="#2AA03A" d="M15.2,60.3c0,0,0.7-9.7,8.5-6.3C23.8,54,21.2,54.5,15.2,60.3z"/>
	</g>
	<g>
		<path fill="#118A3B" d="M35.2,46.9c0,0,4.2,2,4.2,6.3c0,0-2.4,0.2-3.4-2.1C35.4,49.6,35.5,49,35.2,46.9z"/>
		<path fill="#2AA03A" d="M35.2,46.9c0,0,6.2,1.2,4.2,6.3C39.4,53.2,39.5,51.3,35.2,46.9z"/>
	</g>
	<g>
		<path fill="#118A3B" d="M34.9,61.3c0,0,2.4-2.8-0.4-5.4c0,0-2,0.8-1.3,2.4C33.7,59.5,33.8,60,34.9,61.3z"/>
		<path fill="#2AA03A" d="M34.9,61.3c0,0,4.5-3-0.4-5.4C34.5,55.9,35.3,57.2,34.9,61.3z"/>
	</g>
	<g>
		<path fill="#118A3B" d="M25.7,40.9c0,0,1.7-3.1-0.6-5.2c0,0-1.5,1-0.8,2.5C24.8,39.2,24.8,39.7,25.7,40.9z"/>
		<path fill="#2AA03A" d="M25.7,40.9c0,0,3.3-3.5-0.6-5.2C25.2,35.6,25.8,36.7,25.7,40.9z"/>
	</g>
</g>
</svg>
