<?xml version="1.0" encoding="utf-8"?>
<!-- Generator: Adobe Illustrator 18.0.0, SVG Export Plug-In . SVG Version: 6.00 Build 0)  -->
<!DOCTYPE svg PUBLIC "-//W3C//DTD SVG 1.1//EN" "http://www.w3.org/Graphics/SVG/1.1/DTD/svg11.dtd">
<svg version="1.1" id="レイヤー_1" xmlns="http://www.w3.org/2000/svg" xmlns:xlink="http://www.w3.org/1999/xlink" x="0px"
	 y="0px" width="64px" height="64px" viewBox="0 0 64 64" style="enable-background:new 0 0 64 64;" xml:space="preserve">
<g>
	<g>
		<path style="fill:#FFFFFF;" d="M40.248867,24.2514648c-0.2168045-0.0720425-2.8775482,0.0109749-3.1063004,0.0885525
			c-1.3472633,0.4567585-1.9278145,1.3827171-1.9278145,2.1287823c0,0.9796467,0.3799362,1.8936386,1.1929817,2.1651096
			c0.5538597,0.1850033,0.6844559,0.225069,1.106472,0.2403011c0.1777725,0.0064793,0.4020729,0.0089874,0.7399292,0.0152779
			c0.2367973,0.0044003,0.5013313,0.0072384,0.7817574-0.0091763c1.158947-0.0678806,2.5960236-0.4757271,3.5341148-2.5676613
			C42.5700073,26.3126507,41.8971024,24.7990932,40.248867,24.2514648z"/>
		<g>
			<g>
				
					<linearGradient id="SVGID_1_" gradientUnits="userSpaceOnUse" x1="38.4218445" y1="28.8060989" x2="38.4218445" y2="23.9611988">
					<stop  offset="0" style="stop-color:#3D72A4"/>
					<stop  offset="0.4526749" style="stop-color:#2B5175"/>
				</linearGradient>
				<path style="fill:url(#SVGID_1_);" d="M38.1990433,28.8060989c-0.0598412,0-0.1196785-0.0032482-0.1798286-0.0097466
					c-0.5141983-0.0564842-0.963623-0.3516521-1.2649841-0.8315182c-0.3161697-0.5031109-0.4296799-1.1419334-0.320179-1.7988739
					c0.2060509-1.2364063,1.1770744-2.2047615,2.2104034-2.2047615c0.0598412,0,0.1196823,0.0032482,0.1798325,0.0097466
					c1.0959473,0.1200924,1.807251,1.3000126,1.5854721,2.6303921
					C40.2033997,27.8376198,39.2323761,28.8060989,38.1990433,28.8060989L38.1990433,28.8060989z"/>
				<g>
					<path style="fill:#194066;" d="M40.6444511,26.6270924c0.1615982-0.9687023-0.1561546-1.8539867-0.7517204-2.3756332
						c-0.3143806-0.1208172-0.6684837-0.1962471-1.0679207-0.1962471c-0.6461754,0-1.1759224,0.1113605-1.6183205,0.284811
						c-0.5032921,0.4275494-0.8837128,1.0592957-1.0073204,1.8001614c-0.2082748,1.2483997,0.3694,2.3714657,1.3287048,2.7340546
						c0.1537323,0.0064449,0.347702,0.0089664,0.6398697,0.0152683c0.2047729,0.0044136,0.4335365,0.0072498,0.6760406-0.0091743
						C39.7255554,28.5854359,40.4617615,27.7220383,40.6444511,26.6270924z M38.1990318,28.6141529
						c-0.0493126,0-0.099102-0.002697-0.1480255-0.008091c-0.435009-0.0476246-0.8205719-0.3062782-1.0856819-0.7282238
						c-0.2944984-0.4687328-0.399868-1.0675964-0.2966156-1.686245c0.1906853-1.1430626,1.0586243-2.0384674,1.9758759-2.0384674
						c0.0493164,0,0.099102,0.0026951,0.1480293,0.0080547c0.4350052,0.0476608,0.8205681,0.3062763,1.0856781,0.7282581
						c0.2945023,0.4687328,0.3998718,1.0675602,0.2966194,1.6862106
						C39.9842262,27.7187462,39.1162872,28.6141529,38.1990318,28.6141529z"/>
				</g>
			</g>
			
				<ellipse transform="matrix(-0.9909538 -0.1342035 0.1342035 -0.9909538 72.9552689 57.6849518)" style="fill:#194066;" cx="38.4218102" cy="26.3836422" rx="0.850262" ry="1.2310004"/>
		</g>
		<linearGradient id="SVGID_2_" gradientUnits="userSpaceOnUse" x1="36.5881042" y1="26.1700535" x2="36.5881042" y2="24.8349037">
			<stop  offset="0" style="stop-color:#FFFFFF;stop-opacity:0.5"/>
			<stop  offset="0.7" style="stop-color:#FFFFFF"/>
		</linearGradient>
		<ellipse style="fill:url(#SVGID_2_);" cx="36.5881042" cy="25.5024776" rx="0.6382648" ry="0.6675748"/>
		<linearGradient id="SVGID_3_" gradientUnits="userSpaceOnUse" x1="38.3310776" y1="28.8060989" x2="38.3310776" y2="27.8961945">
			<stop  offset="0" style="stop-color:#FFFFFF;stop-opacity:0.2"/>
			<stop  offset="0.7" style="stop-color:#FFFFFF;stop-opacity:0.7"/>
		</linearGradient>
		<ellipse style="fill:url(#SVGID_3_);" cx="38.3310776" cy="28.3511467" rx="0.4349775" ry="0.4549523"/>
		<g>
			<g>
				<path style="fill:#72402D;" d="M41.9596291,27.4447289c0.1765633-0.2691765,0.5040054-0.812149,0.5040054-1.132061
					c0-0.3030396-0.8400116-1.1777954-1.956459-1.7191448c-0.4647713-0.1981964-0.8674774-0.3491535-1.4849091-0.3491535
					c-0.3245926,0-0.6955528,0.0402393-1.1667442,0.1265888c-1.4007301,0.2566795-2.5546341,1.3944874-2.9387894,1.8132458
					c0.0945244-0.2887936,0.7627029-2.4718113,4.1865005-2.4718113c2.7531776,0,4.3480835,2.1782684,4.4672203,2.2971096
					C43.5704536,26.0095024,42.2542572,27.2547817,41.9596291,27.4447289z"/>
			</g>
			<path style="fill:#72402D;" d="M34.9167328,25.3400707c0,0,3.1244583-4.1985188,8.2772369-0.3685226
				C43.1939697,24.9715481,38.4571609,22.4138775,34.9167328,25.3400707z"/>
		</g>
	</g>
	<g>
		<path style="fill:#FFFFFF;" d="M23.751133,24.2514648c0.2168064-0.0720425,2.8775501,0.0109749,3.1063004,0.0885525
			c1.3472652,0.4567585,1.9278126,1.3827171,1.9278126,2.1287823c0,0.9796467-0.3799343,1.8936386-1.1929817,2.1651096
			c-0.5538597,0.1850033-0.6844521,0.225069-1.1064701,0.2403011c-0.1777725,0.0064793-0.4020748,0.0089874-0.7399273,0.0152779
			c-0.2367973,0.0044003-0.5013332,0.0072384-0.7817612-0.0091763c-1.158947-0.0678806-2.5960217-0.4757271-3.5341148-2.5676613
			C21.4299908,26.3126507,22.1028996,24.7990932,23.751133,24.2514648z"/>
		<g>
			<g>
				
					<linearGradient id="SVGID_4_" gradientUnits="userSpaceOnUse" x1="38.4218445" y1="28.8060989" x2="38.4218445" y2="23.9611988" gradientTransform="matrix(-1 0 0 1 64 0)">
					<stop  offset="0" style="stop-color:#3D72A4"/>
					<stop  offset="0.4526749" style="stop-color:#2B5175"/>
				</linearGradient>
				<path style="fill:url(#SVGID_4_);" d="M25.8009548,28.8060989c0.0598412,0,0.1196823-0.0032482,0.1798306-0.0097466
					c0.5141983-0.0564842,0.9636211-0.3516521,1.2649841-0.8315182c0.3161697-0.5031109,0.4296818-1.1419334,0.320179-1.7988739
					c-0.206049-1.2364063-1.1770725-2.2047615-2.2104053-2.2047615c-0.0598412,0-0.1196823,0.0032482-0.1798306,0.0097466
					c-1.0959492,0.1200924-1.807251,1.3000126-1.5854702,2.6303921
					C23.7966003,27.8376198,24.7676239,28.8060989,25.8009548,28.8060989L25.8009548,28.8060989z"/>
				<g>
					<path style="fill:#194066;" d="M25.1562138,28.8803329c0.242506,0.0164242,0.4712696,0.013588,0.6760445,0.0091743
						c0.2921658-0.0063019,0.4861355-0.0088234,0.6398678-0.0152683c0.9593067-0.3625889,1.5369816-1.4856548,1.3287048-2.7340546
						c-0.1236076-0.7408657-0.5040283-1.372612-1.0073223-1.8001614c-0.4423981-0.1734505-0.9721413-0.284811-1.6183205-0.284811
						c-0.399437,0-0.7535362,0.0754299-1.0679169,0.1962471c-0.5955677,0.5216465-0.9133205,1.4069309-0.7517204,2.3756332
						C23.5382404,27.7220383,24.2744446,28.5854359,25.1562138,28.8803329z M23.8250885,26.5756493
						c-0.1032505-0.6186504,0.0021191-1.2174778,0.2966175-1.6862106c0.26511-0.4219818,0.6506748-0.6805973,1.08568-0.7282581
						c0.0489254-0.0053596,0.0987148-0.0080547,0.1480293-0.0080547c0.9172516,0,1.7851906,0.8954048,1.9758759,2.0384674
						c0.1032524,0.6186485-0.0021172,1.2175121-0.2966156,1.686245c-0.26511,0.4219456-0.6506748,0.6805992-1.08568,0.7282238
						c-0.0489254,0.005394-0.0987148,0.008091-0.1480293,0.008091
						C24.8837147,28.6141529,24.0157757,27.7187462,23.8250885,26.5756493z"/>
				</g>
			</g>
			
				<ellipse transform="matrix(0.9909538 -0.1342035 0.1342035 0.9909538 -3.309391 3.6713538)" style="fill:#194066;" cx="25.5781898" cy="26.3836422" rx="0.850262" ry="1.2310004"/>
		</g>
		
			<linearGradient id="SVGID_5_" gradientUnits="userSpaceOnUse" x1="38.0486221" y1="26.1700535" x2="38.0486221" y2="24.8349037" gradientTransform="matrix(1 0 0 1 -14.1226711 0)">
			<stop  offset="0" style="stop-color:#FFFFFF;stop-opacity:0.5"/>
			<stop  offset="0.7" style="stop-color:#FFFFFF"/>
		</linearGradient>
		<ellipse style="fill:url(#SVGID_5_);" cx="23.925951" cy="25.5024776" rx="0.6382648" ry="0.6675748"/>
		
			<linearGradient id="SVGID_6_" gradientUnits="userSpaceOnUse" x1="39.7915955" y1="28.8060989" x2="39.7915955" y2="27.8961945" gradientTransform="matrix(1 0 0 1 -14.1226711 0)">
			<stop  offset="0" style="stop-color:#FFFFFF;stop-opacity:0.2"/>
			<stop  offset="0.7" style="stop-color:#FFFFFF;stop-opacity:0.7"/>
		</linearGradient>
		<ellipse style="fill:url(#SVGID_6_);" cx="25.6689224" cy="28.3511467" rx="0.4349775" ry="0.4549523"/>
		<g>
			<g>
				<path style="fill:#72402D;" d="M22.0403709,27.4447289c-0.1765633-0.2691765-0.5040073-0.812149-0.5040073-1.132061
					c0-0.3030396,0.8400116-1.1777954,1.956461-1.7191448c0.4647694-0.1981964,0.8674755-0.3491535,1.484911-0.3491535
					c0.3245907,0,0.6955509,0.0402393,1.1667423,0.1265888c1.400732,0.2566795,2.5546322,1.3944874,2.9387913,1.8132458
					c-0.0945244-0.2887936-0.7627048-2.4718113-4.1865025-2.4718113c-2.7531796,0-4.3480835,2.1782684-4.4672203,2.2971096
					C20.4295464,26.0095024,21.7457428,27.2547817,22.0403709,27.4447289z"/>
			</g>
			<path style="fill:#72402D;" d="M29.0832691,25.3400707c0,0-3.1244602-4.1985188-8.2772388-0.3685226
				C20.8060303,24.9715481,25.542841,22.4138775,29.0832691,25.3400707z"/>
		</g>
	</g>
</g>
</svg>
