<?xml version="1.0" encoding="utf-8"?>
<!-- Generator: Adobe Illustrator 17.0.0, SVG Export Plug-In . SVG Version: 6.00 Build 0)  -->
<!DOCTYPE svg PUBLIC "-//W3C//DTD SVG 1.1//EN" "http://www.w3.org/Graphics/SVG/1.1/DTD/svg11.dtd">
<svg version="1.1" id="レイヤー_1" xmlns="http://www.w3.org/2000/svg" xmlns:xlink="http://www.w3.org/1999/xlink" x="0px"
	 y="0px" width="64px" height="64px" viewBox="0 0 64 64" style="enable-background:new 0 0 64 64;" xml:space="preserve">
<path style="fill:#231815;" d="M30.5214844,62.0849609c-0.1088867,0-0.2207031-0.0097656-0.3349609-0.0302734
	c-0.2431641-0.0429688-0.4399414-0.1757813-0.5849609-0.3935547c-0.5771484-0.8671875-0.1762695-2.9501953,0.2446289-4.8349609
	l0.0429688-0.1923828c-0.1674805-0.2177734-0.2407227-0.4589844-0.2128906-0.7041016
	c0.0380859-0.3320313,0.0668945-0.6123047,0.1049805-0.9853516c0.0571289-0.5566406,0.1347656-1.3183594,0.2949219-2.7578125
	c-1.0131836-1.46875-2.6962891-7.6953125-2.4145508-9.0068359c0.1958008-0.9101563,0.2280273-1.4365234-0.2451172-2.9970703
	c-0.0893555-0.2949219-0.1113281-0.7529297-0.1391602-1.3330078c-0.0444336-0.9287109-0.1054688-2.2011719-0.5024414-3.3134766
	c-0.3657227-1.0253906-0.4453125-2.1152344-0.2363281-3.0810547c-0.1977539-0.1665039-0.5185547-0.9135742,0.3442383-4.2504883
	c0.3066406-1.1850586-0.0092773-4.293457-0.402832-7.6860352l-4.7636719,0.4609375l-0.0541992-0.0205078
	c-0.675293-0.2529297-0.9365234-1.2255859-1.0371094-1.9228516l-0.2841797,0.0317383
	c0.1982422,1.1113281,0.1430664,2.5151367,0.0976563,3.6606445c-0.0341797,0.8691406-0.0639648,1.6196289,0.0234375,1.9682617
	c0.0092773,0.0361328,0.0234375,0.0722656,0.0375977,0.1083984l0.9174805,0.7495117l0.0229492,0.0678711
	c0.0458984,0.1362305,0.2709961,0.8330078,0.1914063,1.1875c-0.0131836,0.0571289-0.0375977,0.1103516-0.0732422,0.1606445
	c0.1206055,0.21875,0.2109375,0.4204102,0.2788086,0.6235352c0.1762695,0.5283203,0.1816406,0.8818359,0.015625,1.1123047
	c-0.1489258,0.2050781-0.5878906,0.3857422-1.6357422-0.0356445c-1.0703125-0.4306641-1.5053711-2.0209961-1.765625-2.9716797
	c-0.0478516-0.1748047-0.0883789-0.324707-0.1259766-0.4365234c-0.2348633-0.7050781-0.8745117-6.2167969-0.9018555-6.4511719
	c0.0117188-0.2841797,0.1542969-2.4169922,1.2255859-2.6601563c0.4580078-0.1040039,1.4824219-0.2480469,2.3105469-0.3564453
	c0.1826172-0.3564453,0.4135742-0.5478516,0.6875-0.5688477c0.0668945-0.0053711,0.1469727-0.015625,0.2368164-0.0302734
	c0.1708984-0.0263672,0.3789063-0.0678711,0.612793-0.1186523c1.6333008-0.3579102,4.8945313-1.2182617,4.9272461-1.2270508
	l0.0639648-0.0083008h1.8461914l0.2348633-1.2124023l0.1772461-0.0244141c0,0,0.0952148-0.0131836,0.2729492-0.0341797
	l0.0151367-0.4711914c-0.4194336-0.3676758-0.7661133-0.7426758-0.9379883-1.0161133
	c-0.0869141-0.1381836-0.1625977-0.3769531-0.2407227-0.7626953c-0.3334961-0.1328125-0.6025391-0.5805664-0.737793-0.9443359
	c-0.203125-0.5483398-0.1933594-1.0654297,0.0234375-1.4404297c-0.0068359-0.0400391-0.012207-0.0776367-0.0166016-0.1137695
	c-0.1855469-0.0693359-0.4555664-0.2026367-0.5708008-0.4155273c-0.0649414-0.1201172-0.0766602-0.2509766-0.0341797-0.3789063
	c0.0424805-0.1274414,0.1132813-0.2675781,0.1884766-0.4140625c0.0629883-0.1220703,0.1040039-0.2172852,0.144043-0.3120117
	c0.0214844-0.0512695,0.0336914-0.0800781,0.0439453-0.1108398c0.0444336-0.1298828,0.0649414-0.2353516,0.0649414-0.3330078
	c0-0.0356445-0.0126953-0.09375-0.0375977-0.1728516c-0.0317383-0.1015625-0.0786133-0.2143555-0.1274414-0.331543
	C27.5952148,4.8686523,27.2919922,4.1357422,27.9130859,3.6875l0.2495117-0.1850586
	c0.8168945-0.612793,2.3378906-1.7529297,3.5625-1.7529297c0.1953125,0,0.3779297,0.0297852,0.5424805,0.0878906
	c0.2666016,0.0942383,0.6035156,0.1977539,0.9658203,0.3100586c1.6298828,0.5024414,2.8017578,0.9003906,3.0419922,1.4458008
	c0.0644531,0.1464844,0.0625,0.2993164-0.0048828,0.4414063c-0.2138672,0.4521484-0.3486328,0.9125977-0.3779297,1.2963867
	c-0.0107422,0.1445313-0.0058594,0.2861328,0.0146484,0.421875c0.0332031,0.1733398,0.0722656,0.2841797,0.1259766,0.3759766
	c0.0175781,0.0297852,0.0292969,0.0527344,0.0400391,0.0761719c0.3691406,0.6533203,0.3417969,0.9624023-0.1386719,1.3916016
	c-0.0146484,0.0791016-0.0390625,0.2041016-0.0761719,0.355957c0.2109375,0.3774414,0.2148438,0.8935547,0.0097656,1.4384766
	C35.7324219,9.75,35.4648438,10.1904297,35.1357422,10.3208008c-0.078125,0.3857422-0.1533203,0.6245117-0.2402344,0.7626953
	c-0.1367188,0.2163086-0.3896484,0.5048828-0.703125,0.8027344l0.0410156,0.4916992
	c0.1435547,0.0083008,0.2246094,0.0151367,0.2246094,0.0151367l0.1542969,0.0126953l0.4199219,1.0595703
	c0.2998047-0.0478516,0.8779297-0.128418,1.3876953-0.128418c0.4121094,0,0.6953125,0.0507813,0.8818359,0.1591797
	l6.1582031,1.1625977l0.0546875,0.0576172c0.0087891,0.0092773,0.2011719,0.2138672,0.4189453,0.5541992l1.8691406,0.3876953
	l0.0449219-0.0014648c0.2607422,0,0.5263672,0.0654297,0.8125,0.2001953
	c0.2617188,0.1235352,0.5712891,0.4682617,0.6757813,0.9609375c0.0849609,0.4013672,0.0585938,1.0292969-0.5517578,1.7373047
	c-0.3388672,0.3935547-1.5458984,1.2514648-2.7128906,2.0810547c-0.9453125,0.6713867-2.0166016,1.4331055-2.1777344,1.6459961
	c-0.4257813,0.5639648-1.5625,1.1411133-2.3808594,1.5258789c-0.2128906,0.1000977-0.4492188,0.1464844-0.7460938,0.1464844l0,0
	c-0.1757813,0-0.3535156-0.0166016-0.5302734-0.0332031c-0.2314453-0.0214844-0.4570313-0.0454102-0.6630859-0.0175781
	c-0.1035156,0.0141602-0.1943359,0.0180664-0.2753906,0.0141602c-0.2529297,2.0581055-0.3212891,3.4736328-0.1962891,4.1025391
	c0.6552734,3.3017578,0.7714844,3.8896484,0.046875,4.2866211c-0.0371094,0.9760742-0.2460938,2.246582-0.4482422,3.4770508
	c-0.2265625,1.3769531-0.4609375,2.8007813-0.3417969,3.3066406c0.2080078,0.8847656-0.1992188,2.2382813-0.5595703,3.4326172
	c-0.1572266,0.5244141-0.3066406,1.0195313-0.3759766,1.3935547s-0.0410156,0.8271484-0.0078125,1.3525391
	c0.0576172,0.9013672,0.1289063,2.0234375-0.2871094,3.2851563c-0.6503906,1.9785156-1.5087891,6.2890625-1.3720703,6.8847656
	c0.1835938,0.7939453-0.1152344,1.2636719-0.4384766,1.5302734c-0.0634766,0.7363281-0.1425781,1.3691406-0.234375,1.8828125
	C32.7275391,60.8466797,31.7460938,62.0849609,30.5214844,62.0849609z M27.8232422,30.3139648l-0.6342773,1.6933594
	c-0.371582,0.9921875-0.3510742,2.2172852,0.0566406,3.3608398c0.4223633,1.1826172,0.4853516,2.4980469,0.53125,3.4580078
	c0.0249023,0.5234375,0.046875,0.9755859,0.1181641,1.2119141c0.5048828,1.6650391,0.4658203,2.2675781,0.2558594,3.2470703
	c-0.2558594,1.1904297,1.4804688,7.5175781,2.3823242,8.6796875l0.0620117,0.0800781l-0.0112305,0.1005859
	c-0.1674805,1.5-0.2470703,2.28125-0.3051758,2.8496094c-0.0385742,0.375-0.0673828,0.6572266-0.1054688,0.9912109
	c-0.0161133,0.1386719,0.0390625,0.2714844,0.168457,0.4082031l0.0908203,0.0957031l-0.0981445,0.4453125
	c-0.2675781,1.1962891-0.8237305,3.6865234-0.3164063,4.4492188c0.0678711,0.1025391,0.1494141,0.1582031,0.2563477,0.1777344
	c1.0742188,0.1894531,1.9853516-0.9394531,2.3164063-2.7978516c0.09375-0.5234375,0.1738281-1.1787109,0.2382813-1.9462891
	l0.0097656-0.1162109l0.0952148-0.0673828c0.3383789-0.2392578,0.4477539-0.5927734,0.3354492-1.0820313
	c-0.1845703-0.7958984,0.7792969-5.3154297,1.3837891-7.1542969c0.3847656-1.1699219,0.3203125-2.1943359,0.2626953-3.0976563
	c-0.0351563-0.5576172-0.0654297-1.0400391,0.0146484-1.4755859c0.0751953-0.4003906,0.2275391-0.9082031,0.3896484-1.4462891
	c0.3251953-1.078125,0.7285156-2.4189453,0.5517578-3.1728516c-0.1425781-0.6035156,0.078125-1.9472656,0.3339844-3.5029297
	c0.2109375-1.2783203,0.4277344-2.5996094,0.4472656-3.5576172l0.0029297-0.15625l0.1416016-0.065918
	c0.4960938-0.2290039,0.4873047-0.4072266-0.1865234-3.8051758c-0.1425781-0.7167969-0.0673828-2.2363281,0.2226563-4.5166016
	l0.0361328-0.2836914l0.2763672,0.0737305c0.1132813,0.0307617,0.2158203,0.0375977,0.3603516,0.0170898
	c0.2402344-0.0322266,0.5068359-0.0102539,0.7763672,0.0151367c0.1611328,0.0151367,0.3232422,0.0307617,0.4833984,0.0307617l0,0
	c0.2207031,0,0.3896484-0.03125,0.5332031-0.0986328c0.4443359-0.2089844,1.7949219-0.8442383,2.1953125-1.375
	c0.1972656-0.2617188,0.9970703-0.8364258,2.2861328-1.7524414c1.0898438-0.7744141,2.3251953-1.6523438,2.6240234-1.9995117
	c0.4765625-0.5532227,0.5029297-1.0166016,0.4414063-1.3076172c-0.0722656-0.3427734-0.2841797-0.5576172-0.3994141-0.6123047
	c-0.2177734-0.1025391-0.4140625-0.1523438-0.5996094-0.1523438l-0.0322266,0.0019531l-0.0859375-0.0053711l-2.1083984-0.4370117
	l-0.0566406-0.0927734c-0.1474609-0.2436523-0.2900391-0.421875-0.3632813-0.5068359l-1.0185547-0.206543L37.0625,13.9365234
	c-0.0322266-0.0234375-0.1757813-0.0996094-0.6425781-0.0996094c-0.6650391,0-1.4902344,0.1533203-1.4990234,0.1547852
	L34.71875,14.0297852l-0.4560547-1.1489258c-0.0693359-0.0043945-0.1611328-0.0092773-0.2714844-0.0136719l-0.2207031-0.0092773
	l-0.0957031-1.1728516l0.0888672-0.0825195c0.3193359-0.2939453,0.5839844-0.5874023,0.7080078-0.7856445
	c0.0283203-0.0449219,0.1054688-0.2104492,0.2089844-0.7783203l0.0488281-0.2646484l0.2734375,0.0708008
	c0.0585938-0.0444336,0.2558594-0.2558594,0.3974609-0.6298828c0.1621094-0.4316406,0.1572266-0.8334961-0.0136719-1.0751953
	l-0.0664063-0.0942383l0.0283203-0.1118164c0.0742188-0.2900391,0.1074219-0.5014648,0.1083984-0.5063477l0.0146484-0.0917969
	l0.0712891-0.0600586c0.3525391-0.2983398,0.3730469-0.3320313,0.1083984-0.7973633l0.1660156-0.2226563l-0.2158203,0.1264648
	c-0.0839844-0.1425781-0.1416016-0.3066406-0.1777344-0.5009766c-0.0371094-0.2255859-0.0439453-0.4057617-0.0292969-0.5878906
	c0.0429688-0.5688477,0.2548828-1.1147461,0.4248047-1.472168C35.6503906,3.4165039,34.0458984,2.9208984,33.0859375,2.625
	c-0.3696289-0.1142578-0.7128906-0.2202148-0.9848633-0.315918c-0.1108398-0.0395508-0.237793-0.0595703-0.3759766-0.0595703
	c-1.0581055,0-2.546875,1.1166992-3.2626953,1.652832l-0.2563477,0.1904297
	c-0.2797852,0.2021484-0.1611328,0.5546875,0.0517578,1.0693359c0.0546875,0.1318359,0.1064453,0.2583008,0.1425781,0.3730469
	c0.0419922,0.1333008,0.0605469,0.2329102,0.0605469,0.3227539c0,0.1542969-0.0292969,0.3115234-0.0917969,0.4941406
	c-0.0131836,0.0405273-0.0297852,0.0805664-0.046875,0.1206055c-0.0541992,0.1298828-0.1010742,0.237793-0.1523438,0.3369141
	c-0.0795898,0.1547852-0.140625,0.2705078-0.1757813,0.3759766c0.0253906,0.0449219,0.2436523,0.159668,0.4316406,0.2094727
	l0.1865234,0.0488281v0.1928711c0,0.0791016,0.012207,0.1748047,0.0380859,0.300293l0.0219727,0.1079102l-0.0644531,0.0888672
	c-0.1733398,0.2387695-0.1811523,0.6381836-0.0214844,1.0683594c0.1342773,0.3618164,0.3212891,0.5742188,0.4213867,0.6376953
	l0.2543945-0.065918l0.0483398,0.2646484c0.1035156,0.5678711,0.1806641,0.7333984,0.2084961,0.7783203
	c0.1542969,0.2456055,0.5200195,0.6303711,0.9311523,0.980957l0.0917969,0.078125l-0.0375977,1.1435547l-0.215332,0.0239258
	c-0.121582,0.0131836-0.2216797,0.0249023-0.2978516,0.0341797l-0.2451172,1.2641602h-2.2260742
	c-0.3413086,0.0898438-3.359375,0.8823242-4.9165039,1.2236328c-0.2451172,0.0537109-0.4628906,0.0966797-0.6416016,0.1245117
	c-0.1054688,0.0166016-0.1992188,0.0288086-0.2768555,0.034668c-0.0996094,0.0073242-0.2226563,0.1572266-0.328125,0.4003906
	l-0.0566406,0.1298828l-0.140625,0.0185547c-1.2026367,0.1557617-2.0327148,0.2817383-2.4003906,0.3652344
	c-0.5327148,0.1210938-0.7963867,1.3876953-0.8378906,2.1572266c0.1821289,1.5395508,0.6967773,5.7641602,0.878418,6.3085938
	c0.0395508,0.1186523,0.0830078,0.277832,0.1337891,0.4628906c0.2353516,0.8608398,0.6298828,2.3017578,1.4697266,2.6396484
	c0.4047852,0.1625977,0.7055664,0.2451172,0.8950195,0.2451172c0.0366211,0,0.1240234-0.0039063,0.1484375-0.0380859
	c0.015625-0.0214844,0.0849609-0.1552734-0.0844727-0.6616211c-0.0732422-0.2197266-0.1787109-0.4414063-0.3320313-0.6967773
	l-0.1206055-0.2001953l0.1923828-0.1337891c0.0385742-0.0263672,0.0483398-0.0405273,0.0488281-0.0410156
	c0.0234375-0.1166992-0.0615234-0.5117188-0.1625977-0.8305664l-0.9086914-0.7421875l-0.0234375-0.0629883
	c-0.0415039-0.105957-0.0639648-0.1655273-0.0791016-0.2260742c-0.1049805-0.4189453-0.0756836-1.1650391-0.0380859-2.1098633
	c0.0478516-1.2124023,0.1074219-2.7211914-0.1411133-3.8027344l-0.0629883-0.2734375l1.3300781-0.1489258l0.0263672,0.2504883
	c0.0952148,0.90625,0.3603516,1.5615234,0.6992188,1.7358398l5.1293945-0.496582l0.0288086,0.2436523
	c0.4272461,3.6704102,0.7539063,6.8139648,0.418457,8.1123047c-0.4995117,1.9306641-0.5761719,2.8964844-0.5556641,3.3632813
	L27.8232422,30.3139648z M36.9423828,22.7709961l0.0683594-0.4711914c0.1962891-1.3603516,0.3808594-2.409668,0.3808594-2.409668
	l0.0400391-0.2294922l4.2988281,0.4521484l-0.3701172,0.3706055c-0.3466797,0.347168-0.6230469,0.5463867-0.8691406,0.6264648
	c-0.5214844,0.1708984-0.8037109,0.2045898-1.0302734,0.2319336c-0.1904297,0.0229492-0.3164063,0.0380859-0.5322266,0.1323242
	c-0.6025391,0.2612305-1.1455078,0.6425781-1.1943359,0.7841797l-0.0097656,0.1533203l-0.1396484,0.046875
	c-0.0029297,0.0014648-0.0947266,0.0405273-0.2158203,0.1010742L36.9423828,22.7709961z M37.8447266,20.206543
	c-0.0478516,0.2836914-0.1357422,0.8095703-0.2353516,1.4633789c0.4091797-0.3393555,1.0214844-0.6118164,1.1201172-0.6547852
	c0.2832031-0.1230469,0.4628906-0.1445313,0.671875-0.1694336c0.2158203-0.0263672,0.4589844-0.0556641,0.9345703-0.2114258
	c0.0732422-0.0234375,0.1572266-0.0698242,0.2539063-0.1386719L37.8447266,20.206543z"/>
<g>
	<path style="fill:#D9DADA;" d="M33.1615028,55.5586052c0,0-0.071888,1.8333321-0.324379,3.25
		c-0.326664,1.8328209-1.2719688,3.2377129-2.6065407,3c-1.4035473-0.25-0.1783485-4.5833321,0-5.5833321
		C30.4089336,55.2252731,32.9643097,54.0573692,33.1615028,55.5586052z"/>
	<path style="fill:#231815;" d="M36.8416862,31.2681828c0.3790169,1.6488209-1.0095673,6.6800938-0.7267151,7.880724
		c0.282856,1.200634-0.7117348,3.5055618-0.9377594,4.7220078c-0.2013664,1.0837364,0.3525696,2.6664963-0.286068,4.6059761
		c-0.6386414,1.9394836-1.5386086,6.3260384-1.3784065,7.0190811c0.5550804,2.4012642-3.7525063,1.9049377-3.5878658,0.4617805
		c0.1422405-1.2468109,0.1536655-1.7547684,1.0200348-9.1432724S31.22188,30.7468586,31.22188,30.7468586
		S36.0279427,27.7282047,36.8416862,31.2681828z"/>
	<path style="fill:#3E3A39;" d="M32.0058136,31.2196484c0,0,0.5754929,5.9369793,1.3275185,7.5481091
		c0.7520294,1.6111298-0.5364571,2.4166985,0,3.6697998c0.5364609,1.2531013-0.5714607,5.8251686,0.2631569,7.9661446
		c0.8541183,2.1910057-1.8958378,3.1400375-3.1798229,1.8215714c-0.9362907-0.9614334-2.791666-7.6842957-2.510416-8.9933395
		c0.2023392-0.9417648,0.2382526-1.510437-0.2506657-3.1215668c-0.2200642-0.725174,0.0003357-2.8492317-0.6453857-4.6586151
		c-0.7452087-2.0881538-0.1869583-4.2005005,0.9992752-4.9316521C30.166666,29.1904831,32.0058136,31.2196484,32.0058136,31.2196484
		z"/>
	<path style="fill:#D9DADA;" d="M33.0776787,46.8779564c-0.6371117,3.5072937,1.6522064,5.54459-0.1793823,6.2521782
		c-2.1363792,0.8253365-3.4826393-3.586132-3.9004688-5.1879768c-0.4178295-1.601841,0.6241093-3.2605247,1.7507286-3.5543976
		C31.8751755,44.0938911,33.3755798,45.238018,33.0776787,46.8779564z"/>
</g>
<path style="fill:#717071;" d="M38.25,18.0586052l5.0833321-3.1702576c0,0,1.2916679,1.3125,0.9166679,3.0625
	s-1.0670662,2.5769081-1.5,2.520834L38.25,18.0586052z"/>
<path style="fill:#D9B98B;" d="M22.9483871,15.8005209c0,0-3.3264065,0.3860044-4.2440338,0.5944643
	c-0.9176292,0.2084599-1.0323334,2.3878307-1.0323334,2.3878307s0.6610737,5.7125683,0.89048,6.4007893
	c0.2294064,0.6882229,0.600666,2.7939854,1.7477036,3.255209c1.1470356,0.4612789,1.6726704,0.3814106,1.2894669-0.765625
	c-0.0887718-0.2657566-0.21451-0.5115738-0.3549213-0.7460785c0.0716896-0.0498466,0.1275291-0.105854,0.1423168-0.1715508
	c0.068552-0.3045692-0.1839714-1.0527592-0.1839714-1.0527592l-0.9128132-0.7457409
	c-0.0249786-0.06637-0.0541592-0.1322899-0.0710182-0.1997242c-0.2294064-0.9176292,0.2621994-3.9929466-0.177597-5.9070625
	l2.9067211-0.3262787V15.8005209z"/>
<polygon style="fill:#D9B98B;" points="45.917923,15.9371309 41.8142509,15.0863209 41.7159538,17.875 45.4861145,18.4536533 "/>
<g>
	<g>
		<path style="fill:#D9DADA;" d="M27.4877663,14.0917683c0,0-3.2800636,0.8660889-4.9382057,1.2295532
			c-0.4502563,0.7302856-1.4290771,2.821106,0.0393066,5.3227539l4.1113892-0.3980103
			C26.7002563,20.2460651,28.5207253,16.5039387,27.4877663,14.0917683z"/>
		<path style="fill:#D9DADA;" d="M21.9231567,15.4430256c-0.0977783,0.0153198-0.1850586,0.0267334-0.2564697,0.0322266
			c-1.083374,0.083313-1.25,4.75,0.083313,5.25l0.2926025-0.0283203
			C20.8132324,18.4272175,21.4237061,16.4497395,21.9231567,15.4430256z"/>
		<path style="fill:#3E3A39;" d="M22.5495605,15.3213215c-0.2390137,0.0524292-0.4519043,0.0942993-0.6264038,0.1217041
			c-0.4994507,1.0067139-1.1099243,2.9841919,0.1194458,5.2539063l0.5462646-0.0528564
			C21.1204834,18.1424274,22.0993042,16.0516071,22.5495605,15.3213215z"/>
	</g>
	<g>
		<path style="fill:#D9DADA;" d="M42.2319946,14.6649494l-5.0236626-0.9318848
			c-2.916687,3.916687,0.4294243,6.2005005,0.4294243,6.2005005l3.9226074,0.4129028
			c-0.3512573-0.5625-0.71875-1.3546143-0.7322388-2.2474976C40.8074341,16.7188435,41.7426758,15.3075886,42.2319946,14.6649494z"
			/>
		<path style="fill:#D9DADA;" d="M41.8179932,17.9521198c0.1549683-1.4075928,1.5153198-3.0637817,1.5153198-3.0637817
			l-0.5510864-0.1117554c-0.3547974,0.4382324-1.4747925,1.9324951-1.4541016,3.3145752
			c0.0146484,0.9700928,0.5230103,1.8323364,0.8807983,2.3235474L42.75,20.4716511
			C42.75,20.4716511,41.6929932,19.0875568,41.8179932,17.9521198z"/>
		<path style="fill:#3E3A39;" d="M42.7822266,14.7765827l-0.5502319-0.1116333
			c-0.4893188,0.6426392-1.4245605,2.053894-1.4038696,3.434021c0.0134888,0.8928833,0.3809814,1.6849976,0.7322388,2.2474976
			l0.6485596,0.0682373c-0.3577881-0.4912109-0.8661499-1.3534546-0.8807983-2.3235474
			C41.3074341,16.7090778,42.4274292,15.2148151,42.7822266,14.7765827z"/>
	</g>
	<polygon style="fill:#B8996E;" points="34.3125,16.3919392 30.1450062,16.3919392 30.307291,11.3919392 33.9010429,11.3919392 	"/>
	<g>
		<path style="fill:#036EB5;" d="M30.8994141,26.311861c0.0708008-1.480957,0.1376953-2.8798828,0.0600586-3.8486328
			c-0.2094727-2.6171875,0.5708008-7.7783203,0.6040039-7.9970703l0.0074463-0.2927856
			c-0.9516602,0.0611572-2.0309448-0.081604-2.0309448-0.081604l-2.0522118-0.0000019
			c0.1402588,1-0.7875099,6.1542988-0.7875099,6.1542988c0.4247437,3.645874,0.7489014,6.7675171,0.4247437,8.020874
			c-0.9375,3.625-0.4247437,3.9972515-0.4247437,3.9972515c1.3847656-2.2191143,3.1789112-2.1181622,4.5216236-1.5173321
			C31.1268482,29.5022297,30.8237915,27.8921833,30.8994141,26.311861z"/>
		<path style="fill:#036EB5;" d="M37.6377563,19.9335651c-1.333374-2.916626-0.4294243-6.2004776-0.4294243-6.2004776
			C36.7370186,13.3964176,34.875,13.7460651,34.875,13.7460651l-2.5527344,0.3416138L32.309082,14.534029
			c-0.012207,0.0981445-0.8041992,5.3388672-0.6015625,7.8696289c0.0810547,1.0161133,0.0126953,2.4384766-0.059082,3.9438477
			c-0.0809937,1.6913452,0.2086353,3.5501709,0.3573761,4.7669678c1.1962891,0.5701294,2.3552704,1.2444439,4.6608734,1.138792
			c0.9421387-0.3920269,0.9421387-0.3920269,0.1895752-4.1837139
			C36.5108643,26.3293781,37.6377563,19.9335651,37.6377563,19.9335651z"/>
		<path style="fill:#B2B2B3;" d="M31.6484375,26.3475056c0.0717773-1.5053711,0.1401367-2.9277344,0.059082-3.9438477
			c-0.2026367-2.5307617,0.5893555-7.7714844,0.6015625-7.8696289l0.0131836-0.4463501l-0.4055786,0.0542603
			c-0.1114502,0.0145264-0.2281494,0.0238647-0.3457642,0.0314331l-0.0074463,0.2927856
			c-0.0332031,0.21875-0.8134766,5.3798828-0.6040039,7.9970703c0.0776367,0.96875,0.0107422,2.3676758-0.0600586,3.8486328
			c-0.0756226,1.5803223,0.2274342,3.1903687,0.3224659,4.4349976c0.244873,0.1095581,0.5070801,0.2356567,0.7839336,0.3676147
			C31.8570728,29.8976765,31.5674438,28.0388508,31.6484375,26.3475056z"/>
	</g>
	<g>
		<path style="fill:#3448BA;" d="M31.5852051,12.6723347c-1.1260986,0.0869141-1.8048706,0.180481-1.8048706,0.180481
			l-0.2403564,1.2389526c0,0,1.0892944,0.387085,2.0593262,0.4310913
			C31.5550537,13.8655109,31.5652466,13.1744709,31.5852051,12.6723347z"/>
		<path style="fill:#3448BA;" d="M32.3459473,14.473299C33.3997192,14.3011799,34.875,13.7460651,34.875,13.7460651
			l-0.4375-1.104126c0,0-0.8939819-0.0768433-2.0991211-0.0182495C32.3171387,13.1144733,32.3028564,13.822176,32.3459473,14.473299
			z"/>
		<path style="fill:#9C9C9D;" d="M32.0396118,14.5169392c0.0948486-0.0084839,0.2011108-0.0264282,0.3063354-0.0436401
			c-0.0430908-0.651123-0.0288086-1.3588257-0.0075684-1.8496094C32.2268677,12.6291218,32.1164551,12.6340046,32,12.6419392
			c-0.1454468,0.0098877-0.2816162,0.0201416-0.4147949,0.0303955c-0.0199585,0.5021362-0.0301514,1.1931763,0.0140991,1.8505249
			C31.7503662,14.5296955,31.8988647,14.5295734,32.0396118,14.5169392z"/>
	</g>
</g>
<path style="fill:#D9B98B;" d="M44.2080193,16.8493557c-1.2906799,1.0969048-2.839016,3.7106133-3.7936592,4.02285
	s-1.0621338,0.1450939-1.5854301,0.3723488c-0.5232925,0.227253-1.3235054,0.6971149-1.3418503,0.9838791
	c0,0-1.2019615,0.498373-0.9679222,0.8992901c0.2340431,0.4009171,0.4429092,0.6068745,1.0205345,0.5287113
	s1.289238,0.1968575,1.8660889-0.0742397c0.5768509-0.2710953,1.8642807-0.8888493,2.2889328-1.4507484
	c0.3838577-0.5079212,4.2871437-3.0276127,4.9001923-3.739336c0.987648-1.1466236,0.3542976-2.1219978-0.0413094-2.308815
	C45.553318,15.610939,45.0765877,16.1111851,44.2080193,16.8493557z"/>
<g id="head">
	<path style="fill:#D9B98B;" d="M35.543705,7.9155002C35.4306602,7.7887468,35.3237495,7.745358,35.22118,7.733325
		c0.0837708-0.9008102,0.1314392-1.6363959,0.1314392-1.6363959l-3.356966-1.1960855l-3.356966,1.1960855
		c0,0,0.0476704,0.7355857,0.1314411,1.6363959c-0.1025715,0.012033-0.2094822,0.0554218-0.322525,0.1821752
		c-0.5987663,0.6714282,0.0854473,2.078383,0.5431137,2.1866241c0.0273056,0.0064793,0.0491161-0.0125542,0.0738182-0.0184546
		c0.0739918,0.4062347,0.1552162,0.7268496,0.2430935,0.8665619c0.3973827,0.6319151,1.8981743,1.966671,2.6880245,1.966671
		s2.2906437-1.3347559,2.6880245-1.966671c0.0878792-0.1397123,0.1691017-0.4603271,0.2430954-0.8665619
		c0.0247002,0.0059004,0.0465126,0.0249338,0.0738182,0.0184546C35.4582558,9.9938831,36.1424713,8.5869284,35.543705,7.9155002z"/>
	<path style="fill:#A18A68;" d="M31.0261421,11.3964033c0,0,1.4020195,0.2369614,2.0536613-0.2172136l-0.098732-0.1382275
		l0.3554382,0.0789871v0.3382416l-0.1629105-0.1407747C33.1735992,11.3174162,31.855505,11.8308315,31.0261421,11.3964033z"/>
	<polygon style="fill:#A18A68;" points="31.9956532,9.1405869 31.9956532,10.4918175 32.2128677,10.7813673 31.9956532,10.9422283 
		31.6994534,10.6526785 	"/>
	<path style="fill:#231815;" d="M35.7039986,7.4661531c0,0-0.1716232,1.1386433-0.6635818,1.8955059
		c0,0-0.1642303-1.2521725-0.5828743-1.8955059c0,0-0.0780563,0.567647-0.4943314,0.8893137
		c0,0-0.3087769-1.3434315-2.046545-2.2138233c0,0,0.0305042,1.0974507-2.1643963,2.3841171
		c0,0-0.3198757-0.3784313-0.5194492-0.8325486c0,0-0.2176228,0.7551246-0.2819347,1.668447
		c0,0-0.5884571-1.0251141-0.5884571-1.7252121s3.5194111-2.2138228,3.5194111-2.2138228L35.7039986,7.4661531z"/>
	<path style="fill:#FFBC35;" d="M28.3624287,7.636447c0,0-0.7190189-0.1892157-0.6054897-0.5298038
		s0.4541187-0.7568626,0.4541187-1.2488232s-0.83255-1.4758821-0.1513729-1.9678428
		c0.6811752-0.4919608,2.8382339-2.2705879,4.1249008-1.8164704s4.2005882,1.135294,3.8600006,1.8543134
		s-0.6054916,1.6840196-0.2270584,2.3273525c0.3784294,0.6433334,0.3784294,0.7947059-0.1135292,1.2109804
		C35.7039986,7.4661531,32.2981148,6.5389962,28.3624287,7.636447z"/>
	<path style="fill:#3E3A39;" d="M35.6437225,5.3121252c-1.1360703-0.3446903-2.1025124-0.3368745-2.1520691-0.3341579
		c-0.2510071,0.0044346-0.4496841,0.2110934-0.4461365,0.4616566c0.0044365,0.2483454,0.2075462,0.4465785,0.4550056,0.4465785
		c0.0017738,0,0.0044327,0,0.0070953,0c-0.0023842-0.001164,1.1728783-0.0063195,2.3619995,0.4681978
		c-0.0204582-0.0361433-0.0287704-0.0595365-0.0521088-0.0992274C35.6580238,5.9840994,35.6171684,5.6549859,35.6437225,5.3121252z"
		/>
	<path style="fill:#3E3A39;" d="M30.0019531,5.610805c-0.0425739-0.246572-0.2700748-0.4102139-0.5241852-0.3707447
		c-0.0474529,0.0081491-0.6315079,0.1117001-1.3158989,0.370523c0.0284367,0.0901914,0.0491695,0.1750612,0.0491695,0.2472367
		c0,0.3101549-0.134594,0.5866055-0.263092,0.8365583c0.6311207-0.317749,1.3460007-0.5010147,1.6837063-0.5593872
		C29.8782234,6.0924177,30.0445271,5.85782,30.0019531,5.610805z"/>
	<g>
		
			<ellipse transform="matrix(0.9712284 -0.2381502 0.2381502 0.9712284 -1.1401893 8.2802649)" style="fill:#524634;" cx="33.6988106" cy="8.8589478" rx="1.3180951" ry="0.8145531"/>
		<path style="fill:#FFFFFF;" d="M33.4072266,9.8349609c-0.5800781,0-1.015625-0.2480469-1.1103516-0.6323242
			c-0.125-0.5117188,0.3925781-1.0634766,1.1787109-1.2563477c0.171875-0.0419922,0.3457031-0.0634766,0.5146484-0.0634766
			c0.5810547,0,1.015625,0.2480469,1.109375,0.6323242c0.0625,0.2548828-0.0332031,0.527832-0.2695313,0.7685547
			c-0.2207031,0.2250977-0.5439453,0.3984375-0.9082031,0.487793C33.75,9.8134766,33.5761719,9.8349609,33.4072266,9.8349609z
			 M33.9902344,8.1328125c-0.1484375,0-0.3017578,0.019043-0.4560547,0.0566406
			c-0.6274414,0.1538086-1.0830078,0.5908203-0.9941406,0.9536133c0.0649414,0.2646484,0.4130859,0.4418945,0.8671875,0.4418945
			c0.1484375,0,0.3017578-0.019043,0.4560547-0.0566406c0.3193359-0.078125,0.5996094-0.2275391,0.7880859-0.4194336
			c0.1738281-0.1767578,0.2470703-0.3666992,0.2060547-0.5341797C34.7929688,8.3100586,34.4443359,8.1328125,33.9902344,8.1328125z"
			/>
	</g>
	<g>
		
			<ellipse transform="matrix(-0.9712284 -0.2381502 0.2381502 -0.9712284 57.6036682 24.6771717)" style="fill:#524634;" cx="30.2924976" cy="8.8589478" rx="1.3180951" ry="0.8145531"/>
		<path style="fill:#FFFFFF;" d="M30.5844727,9.8349609c-0.1694336,0-0.3427734-0.0214844-0.515625-0.0634766
			c-0.7856445-0.1928711-1.3032227-0.7446289-1.1782227-1.2563477c0.0947266-0.3842773,0.5302734-0.6323242,1.1098633-0.6323242
			c0.1694336,0,0.3427734,0.0214844,0.515625,0.0634766c0.7856445,0.1928711,1.3032227,0.7446289,1.1782227,1.2563477
			C31.5996094,9.5869141,31.1640625,9.8349609,30.5844727,9.8349609z M30.0004883,8.1328125
			c-0.4536133,0-0.8017578,0.1772461-0.8666992,0.4418945C29.0449219,8.9375,29.5004883,9.3745117,30.128418,9.5283203
			c0.1533203,0.0375977,0.3066406,0.0566406,0.4560547,0.0566406c0.4536133,0,0.8017578-0.1772461,0.8666992-0.4418945
			c0.0888672-0.362793-0.3666992-0.7998047-0.9946289-0.9536133C30.3032227,8.1518555,30.1499023,8.1328125,30.0004883,8.1328125z"
			/>
	</g>
	<path style="fill:#FFFFFF;" d="M32.4379768,8.668396c0,0-0.1548157,0.1954794-0.4423237,0.1954794
		S31.5533314,8.668396,31.5533314,8.668396v0.7197533c0,0,0.1714001-0.2564116,0.4423218-0.2564116
		s0.4423237,0.2564116,0.4423237,0.2564116V8.668396z"/>
</g>
<g>
</g>
<g>
</g>
<g>
</g>
<g>
</g>
<g>
</g>
<g>
</g>
</svg>
