<?xml version="1.0" encoding="UTF-8" standalone="no"?>
<!-- Generated by phantom_svg. -->

<svg
   xmlns:dc="http://purl.org/dc/elements/1.1/"
   xmlns:cc="http://creativecommons.org/ns#"
   xmlns:rdf="http://www.w3.org/1999/02/22-rdf-syntax-ns#"
   xmlns:svg="http://www.w3.org/2000/svg"
   xmlns="http://www.w3.org/2000/svg"
   xmlns:sodipodi="http://sodipodi.sourceforge.net/DTD/sodipodi-0.dtd"
   xmlns:inkscape="http://www.inkscape.org/namespaces/inkscape"
   width="64px"
   height="64px"
   viewBox="0 0 64 64"
   preserveAspectRatio="none"
   version="1.1"
   id="svg7835"
   inkscape:version="0.91 r13725"
   sodipodi:docname="two_hearts.svg">
  <metadata
     id="frame0_metadata59">
    <rdf:RDF>
      <cc:Work
         rdf:about="">
        <dc:format>
           image/svg+xml 
        </dc:format>
        <dc:type
           rdf:resource="http://purl.org/dc/dcmitype/StillImage" />
      </cc:Work>
    </rdf:RDF>
  </metadata>
  <defs
     id="frame0_defs57" />
  <sodipodi:namedview
     pagecolor="#ffffff"
     bordercolor="#666666"
     borderopacity="1"
     objecttolerance="10"
     gridtolerance="10"
     guidetolerance="10"
     inkscape:pageopacity="0"
     inkscape:pageshadow="2"
     inkscape:window-width="862"
     inkscape:window-height="480"
     id="frame0_namedview55"
     showgrid="false"
     inkscape:zoom="3.6875"
     inkscape:cx="32"
     inkscape:cy="32"
     inkscape:window-x="0"
     inkscape:window-y="26"
     inkscape:window-maximized="0"
     inkscape:current-layer="svg7835" />
  <g
     id="frame0_g3"
     transform="matrix(0.3741942,0,0,0.37419135,19.734438,0.54908175)">
    <g
       id="frame0_g5">
      <g
         id="frame0_g7">
        <path
           style="fill:#c10021"
           d="M 22.962402,61.111328 22.041016,60.459961 C 21.481445,60.064453 8.3007812,50.648437 4.5800781,39.916992 2.5454101,34.047851 3.1274414,28.019531 6.1362304,23.791504 8.7070312,20.180664 12.609863,18.358398 17.077148,18.8125 c 5.036622,0.514648 7.942872,3.811523 9.472168,7.187012 2.00293,-2.8125 5.394532,-5.663575 10.732911,-5.121094 4.129882,0.421875 7.564453,2.786133 9.424804,6.486328 2.435547,4.84668 1.891602,11.092285 -1.455078,16.708496 -5.814453,9.756836 -20.627441,16.3125 -21.255371,16.586914 l -1.03418,0.451172 z M 15.773438,22.745605 c -2.56836,0 -4.833497,1.195313 -6.3779302,3.365723 -2.2602539,3.175293 -2.6474609,7.84668 -1.0361328,12.495117 2.77832,8.013672 12.099121,15.62793 15.072266,17.903321 3.373046,-1.629883 14.050781,-7.212891 18.384765,-14.484375 2.603516,-4.370118 3.108399,-9.298828 1.316406,-12.864258 C 41.880859,26.67041 39.65918,25.14209 36.875977,24.85791 30.237793,24.188477 27.991211,31.84668 27.901856,32.160156 L 24.757324,43.196289 23.980957,31.75293 c -0.02441,-0.332032 -0.6875,-8.28418 -7.310059,-8.960938 -0.304199,-0.03125 -0.603027,-0.04639 -0.89746,-0.04639 z"
           id="frame0_path9"
           inkscape:connector-curvature="0" />
        <linearGradient
           id="frame0_SVGID_1_"
           gradientUnits="userSpaceOnUse"
           x1="25.633301"
           y1="16.046387"
           x2="25.633299"
           y2="53.76096"
           gradientTransform="matrix(0.9948181,0.1016711,-0.1016711,0.9948181,3.6806893,-2.336731)">
          <stop
             offset="0"
             style="stop-color:#FFFFFF"
             id="frame0_stop12" />
          <stop
             offset="0.509091"
             style="stop-color:#FF1F3F"
             id="frame0_stop14" />
          <stop
             offset="0.6614935"
             style="stop-color:#FF2243"
             id="frame0_stop16" />
          <stop
             offset="0.8165283"
             style="stop-color:#FF2C4F"
             id="frame0_stop18" />
          <stop
             offset="0.9723371"
             style="stop-color:#FF3C64"
             id="frame0_stop20" />
          <stop
             offset="1"
             style="stop-color:#FF3F68"
             id="frame0_stop22" />
        </linearGradient>
        <path
           style="fill:url(#frame0_SVGID_1_)"
           d="m 23.195801,58.827148 c 0,0 -13.172852,-9.317382 -16.7260744,-19.565429 C 2.9165039,29.012207 8.4443359,19.940918 16.874023,20.802246 c 8.4292,0.861328 9.102539,10.815918 9.102539,10.815918 0,0 2.67334,-9.611816 11.10254,-8.75 8.429687,0.861328 12.008789,10.862305 6.455078,20.180664 -5.552735,9.318359 -20.338379,15.77832 -20.338379,15.77832 z"
           id="frame0_path24"
           inkscape:connector-curvature="0" />
      </g>
      <path
         style="fill:#ffffff"
         d="M 9.6508789,27.216797 C 10.353516,23.36084 14.950195,23.512695 16.28418,26.277832 17.618652,29.04248 8.5771484,33.105469 9.6508789,27.216797 Z"
         id="frame0_path26"
         inkscape:connector-curvature="0" />
      <path
         style="opacity:0.25;fill:#ffffff"
         d="m 23.956055,54.086914 c 2.632324,0.269531 16.804687,-6.166016 17.412109,-12.102539 0.606445,-5.9375 -3.9375,-5.661133 -8.561035,0.673828 -4.624023,6.334961 -7.397461,8.412109 -9.266113,8.892578 -1.868164,0.485352 -1.386231,2.352539 0.415039,2.536133 z"
         id="frame0_path28"
         inkscape:connector-curvature="0" />
    </g>
    <g
       id="frame0_g30">
      <g
         id="frame0_g32">
        <path
           style="fill:#c10021"
           d="M 48.233398,23.524902 47.592773,22.97168 C 47.339844,22.753906 41.380859,17.56543 40.0625,12.129883 39.348633,9.1845702 39.852539,6.3344725 41.445312,4.3100585 c 1.503907,-1.9116211 3.792969,-2.7744141 6.155274,-2.2998047 2.228515,0.4467773 3.536133,1.8681641 4.258789,3.4091797 0.966797,-0.890625 2.290039,-1.6274414 4.020508,-1.6274414 0.402344,0 0.814453,0.041992 1.226562,0.1245117 2.128907,0.4262695 3.798828,1.8295898 4.582032,3.8500977 1.003906,2.5883785 0.43457,5.7250975 -1.523438,8.3906245 -3.30957,4.509278 -10.808594,7.000489 -11.126953,7.104493 l -0.804688,0.263183 z M 46.321289,4.8813477 c -1.24707,0 -2.057617,0.6982422 -2.518555,1.2836914 -1.004882,1.2773438 -1.3125,3.2431641 -0.824218,5.2578129 0.867187,3.578613 4.461914,7.289062 5.9375,8.692871 1.90332,-0.729004 6.659179,-2.773926 8.831054,-5.733887 1.328125,-1.808105 1.766602,-3.927246 1.144532,-5.5307617 -0.291016,-0.7504883 -0.939454,-1.7055664 -2.375,-1.9931641 -0.217774,-0.043945 -0.432618,-0.065918 -0.636719,-0.065918 -2.210938,0 -3.332031,2.7553711 -3.342774,2.7832031 l -3.152343,8.1953127 0.252929,-8.7768557 c 0.002,-0.1362305 0.03418,-3.5083008 -2.625976,-4.0419922 -0.233399,-0.046387 -0.465821,-0.070312 -0.69043,-0.070312 z"
           id="frame0_path34"
           inkscape:connector-curvature="0" />
        <linearGradient
           id="frame0_SVGID_2_"
           gradientUnits="userSpaceOnUse"
           x1="48.051758"
           y1="-0.88867188"
           x2="48.051758"
           y2="17.112602"
           gradientTransform="matrix(0.9805049,0.1964946,-0.1964946,0.9805049,5.2991667,-6.7722549)">
          <stop
             offset="0"
             style="stop-color:#FFFFFF"
             id="frame0_stop37" />
          <stop
             offset="0.509091"
             style="stop-color:#FF1F3F"
             id="frame0_stop39" />
          <stop
             offset="0.6614935"
             style="stop-color:#FF2243"
             id="frame0_stop41" />
          <stop
             offset="0.8165283"
             style="stop-color:#FF2C4F"
             id="frame0_stop43" />
          <stop
             offset="0.9723371"
             style="stop-color:#FF3C64"
             id="frame0_stop45" />
          <stop
             offset="1"
             style="stop-color:#FF3F68"
             id="frame0_stop47" />
        </linearGradient>
        <path
           style="fill:url(#frame0_SVGID_2_)"
           d="m 48.572266,21.835937 c 0,0 -5.832032,-5.029296 -7.051758,-10.05957 -1.219727,-5.0327147 1.821289,-9.088867 5.786133,-8.29541 3.966796,0.7958984 3.830078,5.5556641 3.830078,5.5556641 0,0 1.708984,-4.4443359 5.674804,-3.6494141 3.965821,0.7944336 5.208985,5.709473 2.144532,9.882324 -3.0625,4.172852 -10.383789,6.566406 -10.383789,6.566406 z"
           id="frame0_path49"
           inkscape:connector-curvature="0" />
      </g>
      <path
         style="fill:#ffffff"
         d="M 43.582031,6.1987305 C 44.091797,4.3999024 46.270508,4.6811524 46.777344,6.0561524 47.28418,7.4306641 42.804687,8.9477539 43.582031,6.1987305 Z"
         id="frame0_path51"
         inkscape:connector-curvature="0" />
      <path
         style="opacity:0.25;fill:#ffffff"
         d="m 49.151367,19.618652 c 1.236328,0.248535 8.264649,-2.160644 8.824219,-4.954101 0.55957,-2.792969 -1.613281,-2.869141 -4.097656,-0.0708 -2.487305,2.79834 -3.898438,3.658691 -4.808594,3.801269 -0.910156,0.144532 -0.766602,1.054688 0.08203,1.223633 z"
         id="frame0_path53"
         inkscape:connector-curvature="0" />
    </g>
  </g>
</svg>
