<?xml version="1.0" encoding="UTF-8" standalone="no"?>
<!-- Generated by phantom_svg. -->

<svg
   xmlns:dc="http://purl.org/dc/elements/1.1/"
   xmlns:cc="http://creativecommons.org/ns#"
   xmlns:rdf="http://www.w3.org/1999/02/22-rdf-syntax-ns#"
   xmlns:svg="http://www.w3.org/2000/svg"
   xmlns="http://www.w3.org/2000/svg"
   xmlns:sodipodi="http://sodipodi.sourceforge.net/DTD/sodipodi-0.dtd"
   xmlns:inkscape="http://www.inkscape.org/namespaces/inkscape"
   width="64px"
   height="64px"
   viewBox="0 0 64 64"
   preserveAspectRatio="none"
   version="1.1"
   id="svg7907"
   inkscape:version="0.91 r13725"
   sodipodi:docname="zap.svg">
  <metadata
     id="frame0_metadata34">
    <rdf:RDF>
      <cc:Work
         rdf:about="">
        <dc:format>
           image/svg+xml 
        </dc:format>
        <dc:type
           rdf:resource="http://purl.org/dc/dcmitype/StillImage" />
      </cc:Work>
    </rdf:RDF>
  </metadata>
  <defs
     id="frame0_defs32" />
  <sodipodi:namedview
     pagecolor="#ffffff"
     bordercolor="#666666"
     borderopacity="1"
     objecttolerance="10"
     gridtolerance="10"
     guidetolerance="10"
     inkscape:pageopacity="0"
     inkscape:pageshadow="2"
     inkscape:window-width="1920"
     inkscape:window-height="1017"
     id="frame0_namedview30"
     showgrid="false"
     inkscape:zoom="3.6875"
     inkscape:cx="32"
     inkscape:cy="32"
     inkscape:window-x="0"
     inkscape:window-y="26"
     inkscape:window-maximized="1"
     inkscape:current-layer="frame0_g3" />
  <g
     id="frame0_g3">
    <linearGradient
       id="frame0_SVGID_1_"
       gradientUnits="userSpaceOnUse"
       x1="15.3681641"
       y1="30.4321289"
       x2="50.4003906"
       y2="30.4321289">
      <stop
         offset="0.142202"
         style="stop-color:#FDFAC5"
         id="frame0_stop6" />
      <stop
         offset="0.5"
         style="stop-color:#F8EB00"
         id="frame0_stop8" />
      <stop
         offset="0.87156"
         style="stop-color:#F5B32C"
         id="frame0_stop10" />
    </linearGradient>
    <polygon
       style="fill:url(#frame0_SVGID_1_)"
       points="35.076172,27.42041 50.029297,27.42041 19.699219,57.989258 30.462402,33.852539 15.368164,33.852539 28.836426,2.875 50.400391,2.875 "
       id="frame0_polygon12"
       transform="matrix(0.42380823,0,0,0.42381102,17.979615,0.46947941)" />
    <path
       style="fill:#fcf799"
       d="m 38.671053,2.0587711 -5.786126,9.2682189 -0.708228,1.134437 1.337354,0 4.778111,0 -10.800101,10.885131 3.503756,-7.857201 0.465431,-1.043731 -1.142796,0 -5.260087,0 5.385525,-12.3868549 8.227161,0 m 1.337352,-0.7416694 -10.050782,0 -6.030447,13.8701933 6.391278,0 -5.154261,11.558468 14.908631,-15.026006 -6.558771,0 6.494352,-10.4026553 0,0 z"
       id="frame0_path14"
       inkscape:connector-curvature="0" />
    <path
       style="fill:#f5b32c"
       d="m 39.244203,1.7409125 -6.089651,9.7544045 -0.404704,0.64825 0.764203,0 5.541251,0 -12.560894,12.659789 4.211113,-9.44346 0.265956,-0.596413 -0.653025,0 -5.74488,0 5.661917,-13.0225705 9.008714,0 m 0.7642,-0.4238108 -10.050782,0 -6.030443,13.8701913 6.391274,0 -5.154259,11.55847 14.90863,-15.026007 -6.558772,0 6.494352,-10.4026543 0,0 z"
       id="frame0_path16"
       inkscape:connector-curvature="0" />
  </g>
  <g
     id="frame0_g18" />
  <g
     id="frame0_g20" />
  <g
     id="frame0_g22" />
  <g
     id="frame0_g24" />
  <g
     id="frame0_g26" />
  <g
     id="frame0_g28" />
</svg>
