<?xml version="1.0" encoding="utf-8"?>
<!-- Generator: Adobe Illustrator 17.0.0, SVG Export Plug-In . SVG Version: 6.00 Build 0)  -->
<!DOCTYPE svg PUBLIC "-//W3C//DTD SVG 1.1//EN" "http://www.w3.org/Graphics/SVG/1.1/DTD/svg11.dtd">
<svg version="1.1" id="レイヤー_1" xmlns="http://www.w3.org/2000/svg" xmlns:xlink="http://www.w3.org/1999/xlink" x="0px"
	 y="0px" width="64px" height="64px" viewBox="0 0 64 64" style="enable-background:new 0 0 64 64;" xml:space="preserve">
<g>
	<g>
		<linearGradient id="SVGID_1_" gradientUnits="userSpaceOnUse" x1="48" y1="60.0282974" x2="48" y2="86">
			<stop  offset="0" style="stop-color:#27D94B"/>
			<stop  offset="1" style="stop-color:#00994C"/>
		</linearGradient>
		<path style="fill:url(#SVGID_1_);" d="M52.5,60.0282974c0,0,7.5,0.4862747,7.5,10.3591232S60,86,60,86H36
			c0,0,0-5.7397232,0-15.6125793s7.5-10.3591232,7.5-10.3591232H52.5z"/>
		<path style="fill:#231815;" d="M60.25,86.25h-24.5V70.3876953c0-9.9921875,7.65625-10.6035156,7.7333984-10.6083984
			L52.5,59.7783203c0.09375,0.0058594,7.75,0.6171875,7.75,10.609375V86.25z M36.25,85.75h23.5V70.3876953
			c0-9.5117188-6.9697266-10.0898438-7.2666016-10.1103516L43.5,60.2783203c-0.2802734,0.0195313-7.25,0.5976563-7.25,10.109375
			V85.75z"/>
	</g>
	<g>
		<g>
			<path style="fill:#FFE6D9;" d="M51.4298248,54.5150337H48h-3.4297829c0,0-0.1688995,4.5424919-0.7493134,5.4737434
				c0,0,1.4800949,1.4278908,4.1790962,1.4278908s4.1790962-1.4278908,4.1790962-1.4278908
				C51.5986824,59.0575256,51.4298248,54.5150337,51.4298248,54.5150337z"/>
			<path style="fill:#231815;" d="M48,61.6669922c-2.7685547,0-4.2890625-1.4365234-4.3525391-1.4980469l-0.1455078-0.140625
				l0.1074219-0.1708984c0.4462891-0.7177734,0.6650391-4.1064453,0.7109375-5.3525391l0.0087891-0.2402344h7.3417969
				l0.0087891,0.2402344c0.0458984,1.2460938,0.2646484,4.6347656,0.7109375,5.3525391l0.1074219,0.1708984l-0.1455078,0.140625
				C52.2890625,60.2304688,50.7685547,61.6669922,48,61.6669922z M44.1328125,59.9257813
				C44.5488281,60.2539063,45.8935547,61.1669922,48,61.1669922s3.4511719-0.9130859,3.8671875-1.2412109
				c-0.4638672-1.1025391-0.6347656-4.2050781-0.6777344-5.1611328h-6.3789063
				C44.7675781,55.7207031,44.5966797,58.8232422,44.1328125,59.9257813z"/>
		</g>
		<g>
			<path style="fill:#FFE6D9;" d="M55.1811218,47.9815559c0,0,1.8735886-1.2636032,1.8735886,2.5272141
				s-5.6207657,3.7908173-5.6207657,3.7908173L55.1811218,47.9815559z"/>
			<path style="fill:#231815;" d="M51.4335938,54.5498047h-0.4384766l4.0458984-6.7753906
				c0.0947266-0.0664063,2.2636719-1.2890625,2.2636719,2.734375
				C57.3046875,54.5039063,51.4921875,54.5498047,51.4335938,54.5498047z M55.3632813,48.1630859l-3.4775391,5.8642578
				c1.2939453-0.0986328,4.9189453-0.6318359,4.9189453-3.5185547c0-1.5986328-0.3427734-2.4794922-0.9648438-2.4794922
				C55.6328125,48.0292969,55.4453125,48.1181641,55.3632813,48.1630859z"/>
		</g>
		<g>
			<path style="fill:#FFE6D9;" d="M40.8188782,47.9815559c0,0-1.8735886-1.2636032-1.8735886,2.5272141
				s5.6207657,3.7908173,5.6207657,3.7908173L40.8188782,47.9815559z"/>
			<path style="fill:#231815;" d="M45.0048828,54.5498047h-0.4384766c-0.0585938,0-5.8710938-0.0458984-5.8710938-4.0410156
				c0-4.0234375,2.1679688-2.8007813,2.2636719-2.734375l0.0751953,0.0791016L45.0048828,54.5498047z M40.1601563,48.0292969
				c-0.6220703,0-0.9648438,0.8808594-0.9648438,2.4794922c0,2.8867188,3.625,3.4199219,4.9189453,3.5185547l-3.4775391-5.8632813
				C40.5546875,48.1181641,40.3662109,48.0292969,40.1601563,48.0292969z"/>
		</g>
		<g>
			<path style="fill:#FFE6D9;" d="M48,37.8574219c-4.6463623,0-7.3134155,1.2821045-7.3134155,10.5836182
				c0,3.1785278,0.4978027,5.4829102,1.7301025,6.71521C44.3330688,57.0726318,46.5248413,57.7016602,48,57.7016602
				s3.6669312-0.6290283,5.583313-2.5454102c1.2322998-1.2322998,1.7301025-3.5366821,1.7301025-6.71521
				C55.3134155,39.1395264,52.6463623,37.8574219,48,37.8574219z"/>
			<path style="fill:#231815;" d="M48,57.9511719c-0.7373047,0-3.3300781-0.1884766-5.7597656-2.6181641
				c-1.2138672-1.2138672-1.8037109-3.4677734-1.8037109-6.8916016c0-9.1582031,2.546875-10.8339844,7.5634766-10.8339844
				s7.5634766,1.6757813,7.5634766,10.8339844c0,3.4238281-0.5898438,5.6777344-1.8037109,6.8916016
				C51.3300781,57.7626953,48.7373047,57.9511719,48,57.9511719z M48,38.1074219
				c-4.1357422,0-7.0634766,0.7412109-7.0634766,10.3339844c0,3.2841797,0.5419922,5.4228516,1.6572266,6.5380859
				c2.2939453,2.2929688,4.7177734,2.4716797,5.40625,2.4716797s3.1123047-0.1787109,5.40625-2.4716797
				c1.1152344-1.1152344,1.6572266-3.2539063,1.6572266-6.5380859C55.0634766,38.8486328,52.1357422,38.1074219,48,38.1074219z"/>
		</g>
	</g>
	<g>
		<path style="fill:#231815;" d="M46.0130997,54.2995872c0,0,0.9934502,0.1529007,1.9869003,0.1529007
			s1.9869003-0.1529007,1.9869003-0.1529007S49.8119812,55.15625,48,55.15625S46.0130997,54.2995872,46.0130997,54.2995872z"/>
		<g>
			<g>
				<path style="fill:#F5F5F5;" d="M49.7092056,49.9984398c0-0.32967,0.472435-1.6939735,2.0341568-1.6939735
					c1.5617256,0,2.268177,1.3346443,2.268177,1.3346443s-0.8532066,1.2490997-2.2683105,1.2490997
					C50.6510162,50.8882103,49.7092056,50.3281097,49.7092056,49.9984398z"/>
				<ellipse style="fill:#231815;" cx="51.5835114" cy="49.521637" rx="1.2471797" ry="1.314993"/>
				<ellipse style="fill:#3E3A39;" cx="51.5835114" cy="49.521637" rx="0.9715682" ry="1.1019974"/>
				<ellipse style="fill:#231815;" cx="51.5835114" cy="49.521637" rx="0.4713017" ry="0.5345721"/>
				<path style="fill:#231815;" d="M51.7433624,48.0673256c-1.6840973,0.1684265-2.2129593,1.6621208-2.268177,1.9311104
					c0.1677628-0.1980782,1.0385284-1.49543,2.1871719-1.4784813c1.4491119,0.0213814,1.993145,1.1760216,1.993145,1.1760216
					c-0.0200424,0.0342636,0.1914635,0.3602333,0.5007477-0.2042923
					C54.15625,49.491684,53.4274597,47.8988991,51.7433624,48.0673256z"/>
				<ellipse style="fill:#FFFFFF;" cx="51.0592842" cy="48.9836197" rx="0.304011" ry="0.2886593"/>
			</g>
			<g>
				<path style="fill:#F5F5F5;" d="M46.2907944,49.9984398c0-0.32967-0.472435-1.6939735-2.0341568-1.6939735
					c-1.5617256,0-2.268177,1.3346443-2.268177,1.3346443s0.8532066,1.2490997,2.2683105,1.2490997
					C45.3489838,50.8882103,46.2907944,50.3281097,46.2907944,49.9984398z"/>
				<ellipse style="fill:#231815;" cx="44.4164886" cy="49.521637" rx="1.2471797" ry="1.314993"/>
				<ellipse style="fill:#3E3A39;" cx="44.4164886" cy="49.521637" rx="0.9715682" ry="1.1019974"/>
				<ellipse style="fill:#231815;" cx="44.4164886" cy="49.521637" rx="0.4713017" ry="0.5345721"/>
				<path style="fill:#231815;" d="M44.2566376,48.0673256c1.6840973,0.1684265,2.2129593,1.6621208,2.268177,1.9311104
					c-0.1677628-0.1980782-1.0385284-1.49543-2.1871719-1.4784813c-1.4491119,0.0213814-1.993145,1.1760216-1.993145,1.1760216
					c0.0200424,0.0342636-0.1914635,0.3602333-0.5007477-0.2042923C41.84375,49.491684,42.5725403,47.8988991,44.2566376,48.0673256
					z"/>
				<ellipse style="fill:#FFFFFF;" cx="43.8922615" cy="48.9836197" rx="0.304011" ry="0.2886593"/>
			</g>
		</g>
		<g>
			<path style="fill:#231815;" d="M46.626503,47.1231995c0,0-1.107769-2.1353035-3.7289619-0.242691
				c0,0,1.5561333-0.7825432,3.0669708,0.2323875C45.9645119,47.112896,46.437355,47.4781685,46.626503,47.1231995z"/>
			<path style="fill:#231815;" d="M49.373497,47.1231995c0,0,1.107769-2.1353035,3.7289619-0.242691
				c0,0-1.5561333-0.7825432-3.0669708,0.2323875C50.0354881,47.112896,49.562645,47.4781685,49.373497,47.1231995z"/>
		</g>
		<linearGradient id="SVGID_2_" gradientUnits="userSpaceOnUse" x1="47.5494881" y1="52.7635841" x2="47.5494881" y2="50.6150398">
			<stop  offset="0" style="stop-color:#FFFFFF;stop-opacity:0.05"/>
			<stop  offset="0.5" style="stop-color:#FFFFFF;stop-opacity:0.4"/>
			<stop  offset="1" style="stop-color:#FFFFFF;stop-opacity:0.05"/>
		</linearGradient>
		<path style="fill:url(#SVGID_2_);" d="M48.0000038,51.689312c0,0.5933037-0.5384331,1.0742722-0.7795219,1.0742722
			s-0.0712891-0.6665344,0.0623627-1.2421265c0.1247215-0.5371361,0.2266235-0.9064178,0.4677124-0.9064178
			C47.9916496,50.6150398,48.0000038,51.0960083,48.0000038,51.689312z"/>
	</g>
	<g>
		<g>
			<linearGradient id="SVGID_3_" gradientUnits="userSpaceOnUse" x1="48.1723137" y1="37.5421867" x2="48.1723137" y2="52.5150337">
				<stop  offset="0.1504425" style="stop-color:#714E2D"/>
				<stop  offset="0.9955752" style="stop-color:#312214"/>
			</linearGradient>
			<path style="fill:url(#SVGID_3_);" d="M53.1190987,41c0,0,2.5795898,3.3042564,2.1938591,11.2741089
				c0,0,2.190731-5.0404778,0.6569405-9.4905281c-1.4763451-4.2833748-4.0945816-4.2987251-4.0945816-4.2987251
				S45.4533997,35.25,41.6632538,40.7651367c-3.6449852,5.3039169-0.7297249,11.749897-0.7297249,11.749897
				s-0.766861-11.8067017,7.3946648-12.6060982c0,0-3.911705,1.2577324-4.9424324,6.3190346
				c0,0,5.8243179-5.6919975,8.0157547-6.1446381c0,0,1.5380287,3.5458374,2.098484,6.4753456
				C53.5,46.5586777,54.0294228,43.6291695,53.1190987,41z"/>
			<path style="fill:#2E1E15;" d="M41.2714844,53.8681641l-0.5654297-1.2509766
				c-0.0302734-0.0654297-2.9306641-6.6347656,0.7509766-11.9931641c1.5195313-2.2109375,3.6152344-3.3320313,6.2285156-3.3320313
				c2.1699219,0,3.9326172,0.7919922,4.2529297,0.9453125c0.4277344,0.0292969,2.8583984,0.375,4.2675781,4.4648438
				c1.5478516,4.4902344-0.5732422,9.4628906-0.6640625,9.671875l-0.5449219,1.2539063L55.0625,52.2626953
				c0.2255859-4.6621094-0.5771484-7.7119141-1.2626953-9.4160156c0.2597656,1.9726563-0.0371094,3.6640625-0.0537109,3.7568359
				l-0.2392578,1.3222656l-0.2519531-1.3203125c-0.4746094-2.4775391-1.6728516-5.4423828-1.9990234-6.2255859
				c-2.2363281,0.7089844-7.6396484,5.9716797-7.6953125,6.0263672l-0.5820313,0.5693359l0.1621094-0.7978516
				c0.6210938-3.0517578,2.2451172-4.7539063,3.4990234-5.6445313c-6.0126953,2.1445313-5.4638672,11.8583984-5.4570313,11.9648438
				L41.2714844,53.8681641z M47.6855469,37.7919922c-2.4394531,0-4.3964844,1.0478516-5.8164063,3.1152344
				c-2.5263672,3.6767578-1.8056641,7.9697266-1.1865234,10.1230469c0.1201172-3.2568359,1.109375-10.7324219,7.6210938-11.3701172
				l2.2880859-0.2236328l-2.1865234,0.7109375c-0.0361328,0.0107422-3.3554688,1.1367188-4.5712891,5.3046875
				c1.5761719-1.4882813,5.6894531-5.2363281,7.5166016-5.6142578l0.1992188-0.0410156l0.0810547,0.1865234
				c0.0126953,0.0302734,1.0810547,2.5058594,1.7617188,5.0205078c0.0371094-1.0654297-0.0322266-2.5439453-0.5097656-3.921875
				l-0.4921875-1.421875l0.9257813,1.1865234c0.0996094,0.1279297,2.2851563,3.0117188,2.2861328,9.8095703
				c0.5195313-1.8085938,1.1132813-4.9433594,0.1308594-7.7919922c-1.3935547-4.0419922-3.7607422-4.1279297-3.8613281-4.1298828
				l-0.109375-0.0263672C51.7441406,38.6982422,49.9130859,37.7919922,47.6855469,37.7919922z"/>
		</g>
		<linearGradient id="SVGID_4_" gradientUnits="userSpaceOnUse" x1="46.7830276" y1="40.3125" x2="46.7830276" y2="44.21875">
			<stop  offset="0" style="stop-color:#8F6B3F"/>
			<stop  offset="0.9955752" style="stop-color:#714E2D"/>
		</linearGradient>
		<path style="fill:url(#SVGID_4_);" d="M49,40.3125c0,0-2.3678932,0.28125-4.4339447,3.90625
			C44.5660553,44.21875,46.8125,41.6875,49,40.3125z"/>
		<linearGradient id="SVGID_5_" gradientUnits="userSpaceOnUse" x1="54.8322639" y1="39.84375" x2="54.8322639" y2="48.6949577">
			<stop  offset="0" style="stop-color:#8F6B3F"/>
			<stop  offset="0.9955752" style="stop-color:#714E2D"/>
		</linearGradient>
		<path style="fill:url(#SVGID_5_);" d="M53.65625,39.84375c0,0,3.15625,2.9524155,2.15625,8.8512077
			C55.8125,48.6949577,55.90625,43.875,53.65625,39.84375z"/>
		<linearGradient id="SVGID_6_" gradientUnits="userSpaceOnUse" x1="42.2322426" y1="39.25" x2="42.2322426" y2="47.2783356">
			<stop  offset="0" style="stop-color:#8F6B3F"/>
			<stop  offset="0.9955752" style="stop-color:#714E2D"/>
		</linearGradient>
		<path style="fill:url(#SVGID_6_);" d="M44.0269814,39.25c0,0-3.5514488,2.1327515-3.5894814,8.0283356
			C40.4375,47.2783356,41.4914627,42.1875,44.0269814,39.25z"/>
		<linearGradient id="SVGID_7_" gradientUnits="userSpaceOnUse" x1="52.4814148" y1="39.46875" x2="52.4814148" y2="43.0625">
			<stop  offset="0" style="stop-color:#8F6B3F"/>
			<stop  offset="0.9955752" style="stop-color:#714E2D"/>
		</linearGradient>
		<path style="fill:url(#SVGID_7_);" d="M51.8603706,39.46875c0,0,0.8033028,0.3736153,1.2420883,3.59375
			C53.102459,43.0625,52.2832451,40.375,51.8603706,39.46875z"/>
	</g>
</g>
<g>
</g>
<g>
</g>
<g>
</g>
<g>
</g>
<g>
</g>
<g>
</g>
</svg>
