<?xml version="1.0" encoding="utf-8"?>
<!-- Generator: Adobe Illustrator 18.0.0, SVG Export Plug-In . SVG Version: 6.00 Build 0)  -->
<!DOCTYPE svg PUBLIC "-//W3C//DTD SVG 1.1//EN" "http://www.w3.org/Graphics/SVG/1.1/DTD/svg11.dtd">
<svg version="1.1" id="レイヤー_1" xmlns="http://www.w3.org/2000/svg" xmlns:xlink="http://www.w3.org/1999/xlink" x="0px"
	 y="0px" width="64px" height="64px" viewBox="0 0 64 64" style="enable-background:new 0 0 64 64;" xml:space="preserve">
<g>
	<g>
		<path style="fill:#FFFFFF;" d="M40.248867,24.6614494c-0.2168045-0.0720444-2.8775482,0.010973-3.1063004,0.0885506
			c-1.3472633,0.4567585-1.9278145,0.9727345-1.9278145,1.7187996c0,0.6250305,0.3799362,1.0264301,1.1929817,1.2979031
			c0.5538597,0.1850014,0.6844559,0.2250671,1.106472,0.2402992c0.1777725,0.0064812,0.4020729,0.0089874,0.7399292,0.0152798
			c0.2367973,0.0043983,0.5013313,0.0072365,0.7817574-0.0091782c1.158947-0.0678787,2.5422325-0.2631035,3.5341148-1.7004528
			C42.5700073,26.3126507,41.8971024,25.2090759,40.248867,24.6614494z"/>
		<g>
			<g>
				
					<linearGradient id="SVGID_1_" gradientUnits="userSpaceOnUse" x1="38.4220161" y1="28.0256691" x2="38.4220161" y2="24.6342354">
					<stop  offset="0" style="stop-color:#1E1E57"/>
					<stop  offset="0.4526749" style="stop-color:#070714"/>
				</linearGradient>
				<path style="fill:url(#SVGID_1_);" d="M37.1425781,24.75c-0.0218506,0.0074463-0.0395508,0.0151978-0.0610352,0.022644
					c-0.3197021,0.3782349-0.5581665,0.8572388-0.6474609,1.3933105c-0.1026611,0.6154175-0.0023193,1.2105103,0.2698364,1.6975098
					c0.3192749,0.1011963,0.4782715,0.1315308,0.8103027,0.1434937c0.1777344,0.0065308,0.4020386,0.0090332,0.7399292,0.0153198
					c0.2367554,0.0043945,0.5013428,0.0072021,0.7817383-0.0092163c0.2496948-0.0146484,0.5108643-0.0383911,0.7752075-0.0759888
					c0.2948608-0.3692017,0.5137329-0.8270874,0.5986328-1.3357544c0.1273193-0.7637939-0.0599976-1.47052-0.4439697-1.9630127
					C39.2268066,24.6166992,37.3341675,24.6850586,37.1425781,24.75z"/>
				<g>
					<path style="fill:#050505;" d="M39.6809082,24.6340332c0.0706787,0.0775757,0.1380005,0.1608887,0.1973877,0.2553711
						c0.2944946,0.46875,0.3998413,1.0675659,0.2966309,1.6862183c-0.0916748,0.5494995-0.3422241,1.0384521-0.677124,1.4015503
						c0.2011108-0.0199585,0.4064331-0.052124,0.6127319-0.0923462c0.2557983-0.361145,0.4543457-0.7809448,0.5339355-1.2577515
						c0.1252441-0.7508545-0.0427856-1.446167-0.3997192-1.9663086
						C40.1853638,24.6428223,39.9714355,24.6348267,39.6809082,24.6340332z"/>
					<path style="fill:#050505;" d="M36.965332,27.8778076c-0.2944946-0.468689-0.3999023-1.0675659-0.2966309-1.6862183
						c0.0982666-0.5889893,0.3780518-1.1092529,0.750061-1.4780884c-0.1383057,0.0119019-0.2400513,0.024231-0.2761841,0.036499
						c-0.1566162,0.0531006-0.3005981,0.1071777-0.4367676,0.1621704c-0.2444458,0.354126-0.4295654,0.7658691-0.5066528,1.2280273
						c-0.0987549,0.5921021-0.0161743,1.1528931,0.1955566,1.6208496c0.0049438,0.0016479,0.0079956,0.0039673,0.0130005,0.0056152
						c0.2845459,0.0950317,0.4573975,0.151123,0.6154175,0.1859741
						C37.0046997,27.9263916,36.9827271,27.9055176,36.965332,27.8778076z"/>
				</g>
			</g>
			
				<ellipse transform="matrix(-0.9909538 -0.1342035 0.1342035 -0.9909538 72.9552689 57.6849518)" style="fill:#050505;" cx="38.4218102" cy="26.3836422" rx="0.850262" ry="1.2310004"/>
		</g>
		<linearGradient id="SVGID_2_" gradientUnits="userSpaceOnUse" x1="36.5881042" y1="26.1700535" x2="36.5881042" y2="24.8349037">
			<stop  offset="0" style="stop-color:#FFFFFF;stop-opacity:0.5"/>
			<stop  offset="0.7" style="stop-color:#FFFFFF"/>
		</linearGradient>
		<ellipse style="fill:url(#SVGID_2_);" cx="36.5881042" cy="25.5024776" rx="0.6382648" ry="0.6675748"/>
		<g>
			<g>
				<path style="fill:#050505;" d="M41.9596291,26.9781513c0.2747459-0.2594013,0.5040054-0.6654835,0.5040054-0.6654835
					S42.21875,25.703125,40.6863289,25.0625c-0.532238-0.2225018-1.0466309-0.2533607-1.6640625-0.2533607
					c-0.3245926,0-0.6955528,0.0402393-1.1667442,0.1265888c-1.4007301,0.2566795-2.5546341,0.8297176-2.9387894,1.248476
					c0.0945244-0.2887936,0.7627029-1.9070415,4.1865005-1.9070415c2.7531776,0,4.3480835,1.6134987,4.4672203,1.7323399
					C43.5704536,26.0095024,42.8292694,26.7906513,41.9596291,26.9781513z"/>
			</g>
			<path style="fill:#050505;" d="M34.9167328,25.3400707c0,0,3.2082672-2.9338207,8.2772369-0.3685226
				C43.1939697,24.9715481,38.5891304,23.546875,34.9167328,25.3400707z"/>
		</g>
	</g>
	<g>
		<path style="fill:#FFFFFF;" d="M23.751133,24.6614494c0.2168064-0.0720444,2.8775501,0.010973,3.1063004,0.0885506
			c1.3472652,0.4567585,1.9278126,0.9727345,1.9278126,1.7187996c0,0.6250305-0.3799343,1.0264301-1.1929817,1.2979031
			c-0.5538597,0.1850014-0.6844521,0.2250671-1.1064701,0.2402992c-0.1777725,0.0064812-0.4020748,0.0089874-0.7399273,0.0152798
			c-0.2367973,0.0043983-0.5013332,0.0072365-0.7817612-0.0091782c-1.158947-0.0678787-2.5422306-0.2631035-3.5341148-1.7004528
			C21.4299908,26.3126507,22.1028996,25.2090759,23.751133,24.6614494z"/>
		<g>
			<g>
				
					<linearGradient id="SVGID_3_" gradientUnits="userSpaceOnUse" x1="38.4220161" y1="28.0256691" x2="38.4220161" y2="24.6342354" gradientTransform="matrix(-1 0 0 1 64 0)">
					<stop  offset="0" style="stop-color:#1E1E57"/>
					<stop  offset="0.4526749" style="stop-color:#070714"/>
				</linearGradient>
				<path style="fill:url(#SVGID_3_);" d="M26.8574219,24.75c0.0218506,0.0074463,0.0395508,0.0151978,0.0610352,0.022644
					c0.3197021,0.3782349,0.5581665,0.8572388,0.6474609,1.3933105c0.1026611,0.6154175,0.0023193,1.2105103-0.2698364,1.6975098
					c-0.3192749,0.1011963-0.4782715,0.1315308-0.8103027,0.1434937c-0.1777344,0.0065308-0.4020386,0.0090332-0.7399292,0.0153198
					c-0.2367554,0.0043945-0.5013428,0.0072021-0.7817383-0.0092163c-0.2496948-0.0146484-0.5108643-0.0383911-0.7752075-0.0759888
					c-0.2948608-0.3692017-0.5137329-0.8270874-0.5986328-1.3357544c-0.1273193-0.7637939,0.0599976-1.47052,0.4439697-1.9630127
					C24.7731934,24.6166992,26.6658325,24.6850586,26.8574219,24.75z"/>
				<g>
					<path style="fill:#050505;" d="M24.3190918,24.6340332c-0.0706787,0.0775757-0.1380005,0.1608887-0.1973877,0.2553711
						c-0.2944946,0.46875-0.3998413,1.0675659-0.2966309,1.6862183c0.0916748,0.5494995,0.3422241,1.0384521,0.677124,1.4015503
						c-0.2011108-0.0199585-0.4064331-0.052124-0.6127319-0.0923462c-0.2557983-0.361145-0.4543457-0.7809448-0.5339355-1.2577515
						c-0.1252441-0.7508545,0.0427856-1.446167,0.3997192-1.9663086
						C23.8146362,24.6428223,24.0285645,24.6348267,24.3190918,24.6340332z"/>
					<path style="fill:#050505;" d="M27.034668,27.8778076c0.2944946-0.468689,0.3999023-1.0675659,0.2966309-1.6862183
						c-0.0982666-0.5889893-0.3780518-1.1092529-0.750061-1.4780884c0.1383057,0.0119019,0.2400513,0.024231,0.2761841,0.036499
						c0.1566162,0.0531006,0.3005981,0.1071777,0.4367676,0.1621704c0.2444458,0.354126,0.4295654,0.7658691,0.5066528,1.2280273
						c0.0987549,0.5921021,0.0161743,1.1528931-0.1955566,1.6208496c-0.0049438,0.0016479-0.0079956,0.0039673-0.0130005,0.0056152
						c-0.2845459,0.0950317-0.4573975,0.151123-0.6154175,0.1859741
						C26.9953003,27.9263916,27.0172729,27.9055176,27.034668,27.8778076z"/>
				</g>
			</g>
			
				<ellipse transform="matrix(0.9909538 -0.1342035 0.1342035 0.9909538 -3.309391 3.6713538)" style="fill:#050505;" cx="25.5781898" cy="26.3836422" rx="0.850262" ry="1.2310004"/>
		</g>
		
			<linearGradient id="SVGID_4_" gradientUnits="userSpaceOnUse" x1="38.0486221" y1="26.1700535" x2="38.0486221" y2="24.8349037" gradientTransform="matrix(1 0 0 1 -14.1226711 0)">
			<stop  offset="0" style="stop-color:#FFFFFF;stop-opacity:0.5"/>
			<stop  offset="0.7" style="stop-color:#FFFFFF"/>
		</linearGradient>
		<ellipse style="fill:url(#SVGID_4_);" cx="23.925951" cy="25.5024776" rx="0.6382648" ry="0.6675748"/>
		<g>
			<g>
				<path style="fill:#050505;" d="M22.0403709,26.9781513c-0.2747459-0.2594013-0.5040073-0.6654835-0.5040073-0.6654835
					S21.78125,25.703125,23.3136711,25.0625c0.532238-0.2225018,1.046629-0.2533607,1.6640644-0.2533607
					c0.3245907,0,0.6955509,0.0402393,1.1667423,0.1265888c1.400732,0.2566795,2.5546322,0.8297176,2.9387913,1.248476
					c-0.0945244-0.2887936-0.7627048-1.9070415-4.1865025-1.9070415c-2.7531796,0-4.3480835,1.6134987-4.4672203,1.7323399
					C20.4295464,26.0095024,21.1707325,26.7906513,22.0403709,26.9781513z"/>
			</g>
			<path style="fill:#050505;" d="M29.0832691,25.3400707c0,0-3.2082691-2.9338207-8.2772388-0.3685226
				C20.8060303,24.9715481,25.4108677,23.546875,29.0832691,25.3400707z"/>
		</g>
	</g>
</g>
</svg>
