<?xml version="1.0" encoding="utf-8"?>
<!-- Generator: Adobe Illustrator 18.0.0, SVG Export Plug-In . SVG Version: 6.00 Build 0)  -->
<!DOCTYPE svg PUBLIC "-//W3C//DTD SVG 1.1//EN" "http://www.w3.org/Graphics/SVG/1.1/DTD/svg11.dtd">
<svg version="1.1" id="レイヤー_1" xmlns="http://www.w3.org/2000/svg" xmlns:xlink="http://www.w3.org/1999/xlink" x="0px"
	 y="0px" width="64px" height="64px" viewBox="0 0 64 64" style="enable-background:new 0 0 64 64;" xml:space="preserve">
<g>
	<path style="fill:#050505;" d="M42.3648682,25.8673706c0.5952148-0.3658447,0.8291016-0.6017456,0.8291016-0.6017456
		l-0.9260864,0.269043C39.796875,27.1870728,35.125,25.8635864,35.125,25.8635864
		c0.199707,0.2692261,0.5633545,0.4905396,1.0154419,0.6638184c-0.6814575-0.1548462-1.0622559-0.31427-1.2236938-0.3432007
		C36.09375,27.21875,37.895813,27.5681763,39.333313,27.5625c1.3274536-0.0053101,2.213562-0.40625,3.026062-1.046875
		l1.2110596-0.5061646C43.5331421,25.972229,42.7662354,25.8482666,42.3648682,25.8673706z"/>
	<path style="fill:#050505;" d="M28.875,25.8635864c0,0-4.671875,1.3234863-7.1428833-0.3289185l-0.9260864-0.269043
		c0,0,0.2338867,0.2359009,0.8291016,0.6017456c-0.4013672-0.019104-1.1682739,0.1048584-1.2055664,0.1420898l1.2110596,0.5061646
		c0.8125,0.640625,1.6986084,1.0415649,3.026062,1.046875c1.4375,0.0056763,3.239563-0.34375,4.4165649-1.3782959
		c-0.161438,0.0289307-0.5422363,0.1883545-1.2236938,0.3432007C28.3116455,26.354126,28.675293,26.1328125,28.875,25.8635864z"/>
</g>
</svg>
