<?xml version="1.0" encoding="utf-8"?>
<!-- Generator: Adobe Illustrator 16.0.0, SVG Export Plug-In . SVG Version: 6.00 Build 0)  -->
<!DOCTYPE svg PUBLIC "-//W3C//DTD SVG 1.1//EN" "http://www.w3.org/Graphics/SVG/1.1/DTD/svg11.dtd" [
	<!ENTITY st0 "fill:#7F4F21;">
	<!ENTITY st1 "fill:#113E51;">
	<!ENTITY st2 "clip-path:url(#SVGID_35_);fill:#F7F8F8;">
	<!ENTITY st3 "fill:#231815;stroke:#231815;stroke-width:1.5;stroke-linecap:round;stroke-linejoin:round;stroke-miterlimit:10;">
	<!ENTITY st4 "fill:#B28247;">
	<!ENTITY st5 "fill:url(#SVGID_13_);stroke:#727171;stroke-linecap:round;stroke-linejoin:round;stroke-miterlimit:10;">
	<!ENTITY st6 "fill:#9FA0A0;stroke:#9FA0A0;stroke-miterlimit:10;">
	<!ENTITY st7 "fill:#042E3F;stroke:#231815;stroke-width:1.5;stroke-linecap:round;stroke-linejoin:round;stroke-miterlimit:10;">
	<!ENTITY st8 "fill:#202333;">
	<!ENTITY st9 "fill:#231815;">
	<!ENTITY st10 "fill:#F7F8F8;">
	<!ENTITY st11 "fill:url(#SVGID_1_);">
	<!ENTITY st12 "fill:url(#SVGID_2_);">
	<!ENTITY st13 "fill:url(#SVGID_3_);">
	<!ENTITY st14 "fill:url(#SVGID_4_);">
	<!ENTITY st15 "fill:url(#SVGID_5_);">
	<!ENTITY st16 "fill:url(#SVGID_6_);">
	<!ENTITY st17 "fill:url(#SVGID_7_);">
	<!ENTITY st18 "fill:url(#SVGID_8_);">
	<!ENTITY st19 "fill:url(#SVGID_9_);">
	<!ENTITY st20 "fill:none;">
	<!ENTITY st21 "fill:#40220F;stroke:#40220F;stroke-miterlimit:10;">
	<!ENTITY st22 "fill:url(#SVGID_10_);stroke:#522E91;stroke-miterlimit:10;">
	<!ENTITY st23 "fill:#6A3906;">
	<!ENTITY st24 "fill:#00222D;">
	<!ENTITY st25 "fill:#042E3F;">
	<!ENTITY st26 "fill:url(#SVGID_11_);">
	<!ENTITY st27 "fill:url(#SVGID_12_);">
	<!ENTITY st28 "fill:url(#SVGID_14_);">
	<!ENTITY st29 "fill:url(#SVGID_15_);">
	<!ENTITY st30 "fill:url(#SVGID_16_);">
	<!ENTITY st31 "fill:url(#SVGID_17_);">
	<!ENTITY st32 "fill:url(#SVGID_18_);">
	<!ENTITY st33 "fill:url(#SVGID_19_);">
	<!ENTITY st34 "fill:url(#SVGID_20_);">
	<!ENTITY st35 "fill:url(#SVGID_21_);">
	<!ENTITY st36 "fill:url(#SVGID_22_);">
	<!ENTITY st37 "fill:url(#SVGID_23_);">
	<!ENTITY st38 "fill:url(#SVGID_24_);">
	<!ENTITY st39 "fill:url(#SVGID_25_);">
	<!ENTITY st40 "fill:url(#SVGID_26_);">
	<!ENTITY st41 "fill:url(#SVGID_27_);">
	<!ENTITY st42 "fill:url(#SVGID_28_);">
	<!ENTITY st43 "fill:url(#SVGID_29_);">
	<!ENTITY st44 "fill:url(#SVGID_30_);">
	<!ENTITY st45 "fill:url(#SVGID_31_);">
	<!ENTITY st46 "fill:url(#SVGID_32_);">
	<!ENTITY st47 "fill:url(#SVGID_33_);">
	<!ENTITY st48 "fill:#40220F;">
	<!ENTITY st49 "fill:none;stroke:#113E51;stroke-width:0.5;stroke-miterlimit:10;">
]>
<svg version="1.1" id="Layer_76" xmlns="http://www.w3.org/2000/svg" xmlns:xlink="http://www.w3.org/1999/xlink" x="0px" y="0px"
	 width="64px" height="64px" viewBox="0 0 64 64" style="enable-background:new 0 0 64 64;" xml:space="preserve">
<path style="&st7;" d="M52,64.9l-0.1-8.8c0-2.9-1.2-4.7-3-5.9c0.7-1.5,0.9-2.7,0.5-3.8c-0.5-1.3-1.8-1.9-2.4-2.1
	c-0.1-0.2-0.2-0.3-0.2-0.5c0,0,0,0,0-0.1c-0.1-0.1-0.2-0.3-0.3-0.4c0,0,0,0,0,0c-0.2-0.3-0.4-0.5-0.7-0.7c0,0,0,0,0,0
	c-0.1-0.1-0.3-0.2-0.5-0.3c0,0,0,0,0,0c-0.6-0.2-1.3-0.4-2.2-0.3c-0.6,0-1.3,0-2.1,0.2c-2.4,0.4-4.6,2.5-6.2,4.4
	c-1.5,1.6-2.4,3-2.5,3.2c-0.1-0.2-1.1-1.6-2.5-3.2c-1.6-1.9-3.8-4-6.3-4.4c-0.9-0.2-1.5-0.2-2.1-0.2c-1,0-1.7,0.1-2.2,0.3h0
	c-0.2,0.1-0.3,0.2-0.5,0.3c0,0,0,0,0,0c-0.3,0.2-0.5,0.4-0.7,0.7c0,0,0,0,0,0c-0.1,0.1-0.2,0.3-0.3,0.4c0,0,0,0,0,0.1
	c-0.1,0.1-0.2,0.3-0.2,0.5c-0.5,0.2-1.8,0.8-2.4,2.1c-0.4,1.1-0.3,2.4,0.5,3.8c-1.6,1.1-2.8,2.7-3,5.1c-0.1,0.4-0.1,0.8-0.1,1.2
	L12,65.4h0.3h1h0.1h1.2h1.3h32.5h1h1.2h0.1H52h0V64.9L52,64.9z"/>
<g>
	<g>
		<path style="&st8;" d="M51.9,57.3c0-6.1-5.4-7.2-10.4-8.6c-2.6,0.1-5.6,0.2-9.2,1.4c0,0,2.9,3.8,8.3,7.9c3.4,2.5,5.5,4.6,7.7,7.4
			H52L51.9,57.3z"/>
		<path style="&st8;" d="M12.4,57.3c0-6.1,5.4-7.2,10.4-8.6c2.6,0.1,5.6,0.2,9.2,1.4c0,0-2.9,3.8-8.3,7.9c-3.4,2.5-5.5,4.6-7.7,7.4
			h-3.6L12.4,57.3z"/>
		<path style="&st1;" d="M31.7,49.8C28,48.5,25,48,22.5,48c-5,1.4-10.4,2.4-10.4,8.6L12,65.4h1.3h37.4H52l-0.1-8.8
			c0-6.1-5.4-7.2-10.4-8.6C39,48,36,48.5,32.3,49.8"/>
		
			<radialGradient id="SVGID_1_" cx="32.6914" cy="80.5" r="36.7757" gradientTransform="matrix(0.9282 0 0 1 2.1199 0)" gradientUnits="userSpaceOnUse">
			<stop  offset="0" style="stop-color:#007C91"/>
			<stop  offset="0.5" style="stop-color:#007C91"/>
			<stop  offset="1" style="stop-color:#02383B"/>
		</radialGradient>
		<path style="&st11;" d="M31.7,49.8c-3.4-1.2-6.2-1.7-8.6-1.8c-4.6,1.4-9.6,2.4-9.6,8.6l-0.1,8.8h1.2h34.8h1.2l-0.1-8.8
			c0-6.1-5-7.2-9.6-8.6c-2.4,0.1-5.2,0.6-8.6,1.8"/>
		<radialGradient id="SVGID_2_" cx="55.5" cy="49.6982" r="13.5093" gradientUnits="userSpaceOnUse">
			<stop  offset="0" style="stop-color:#007C91"/>
			<stop  offset="0.5" style="stop-color:#007C91"/>
			<stop  offset="1" style="stop-color:#02383B"/>
		</radialGradient>
		<path style="&st12;" d="M51.9,56.1c0-6.1-5.4-7.2-10.4-8.6c-0.2,0-0.4,0-0.6,0c4.9,1.3,10.3,2.4,10.3,8.5l0.1,8.8H52L51.9,56.1z"
			/>
		<path style="&st24;" d="M49.5,51.4c-2-1.9-5.2-2.6-8.3-3.4c-2.5,0-5.4,0.5-8.9,1.7c-0.1,0.1-0.1,0.2-0.2,0.3
			c0.4,0,0.7-0.2,1.1-0.1c1.2,0.2,2.3,0.5,5.1,1.4c2.6,0.8,4.6,1.7,6.3,1.9c2.7,0.3,4.1-0.3,4.8-1.6C49.5,51.5,49.5,51.4,49.5,51.4z
			"/>
		<path style="&st25;" d="M49.3,46.4c-0.5-1.3-1.8-1.9-2.4-2.1c-0.8-1.7-1.8-2.8-5.6-2.1c-5,0.8-9.2,7.4-9.4,7.7c-0.1,0.1,0-0.1,0,0
			c0,0.1,0.2,0.1,0.3,0.1c0.1,0,1.8-0.3,5.5,0.6c2.3,0.5,4.7,1.4,6.3,1.5c2.7,0.3,3.7-0.2,4.3-1.2C49.5,49.1,49.8,47.6,49.3,46.4z"
			/>
		<radialGradient id="SVGID_3_" cx="40.5498" cy="41.8789" r="9.3788" gradientUnits="userSpaceOnUse">
			<stop  offset="0" style="stop-color:#007C91"/>
			<stop  offset="0.5" style="stop-color:#007C91"/>
			<stop  offset="1" style="stop-color:#02383B"/>
		</radialGradient>
		<path style="&st13;" d="M32.3,49.8c0,0,4.4-6.8,9.2-7.6c3.8-0.6,4.4,0.6,5.1,2.3c0,0,4.4,1.1,1.5,5.9c-1.1,1.9-5.3,0.5-9.5-0.4
			C34.9,49,32.3,49.8,32.3,49.8z"/>
		<g>
			<radialGradient id="SVGID_4_" cx="47.834" cy="43.333" r="6.3471" gradientUnits="userSpaceOnUse">
				<stop  offset="0" style="stop-color:#007C91"/>
				<stop  offset="0.5" style="stop-color:#007C91"/>
				<stop  offset="1" style="stop-color:#02383B"/>
			</radialGradient>
			<path style="&st14;" d="M49.3,46.4c-0.5-1.3-1.8-1.9-2.4-2.1c-0.7-1.4-1.5-2.4-3.9-2.3c2.1,0.1,2.8,1,3.4,2.3
				c0.5,0.2,1.8,0.8,2.4,2.1c0.5,1.2,0.2,2.7-0.8,4.4c-0.5,0.8-1.2,1.2-2.6,1.3c1.8,0,2.6-0.4,3.1-1.3
				C49.5,49.1,49.8,47.6,49.3,46.4z"/>
		</g>
		
			<radialGradient id="SVGID_5_" cx="40.7871" cy="28.562" r="25.0807" gradientTransform="matrix(0.8268 0.1678 -0.1632 0.985 14.5934 -5.9938)" gradientUnits="userSpaceOnUse">
			<stop  offset="0" style="stop-color:#007C91"/>
			<stop  offset="0.5" style="stop-color:#007C91"/>
			<stop  offset="1" style="stop-color:#02383B"/>
		</radialGradient>
		<path style="&st15;" d="M38,46.8c0,0,7-0.9,8.7-2C49.1,43.4,38,46.8,38,46.8z"/>
		
			<radialGradient id="SVGID_6_" cx="84.4229" cy="49.6982" r="13.5091" gradientTransform="matrix(-1 0 0 1 92.9648 0)" gradientUnits="userSpaceOnUse">
			<stop  offset="0" style="stop-color:#007C91"/>
			<stop  offset="0.5" style="stop-color:#007C91"/>
			<stop  offset="1" style="stop-color:#02383B"/>
		</radialGradient>
		<path style="&st16;" d="M12.1,56.1c0-6.1,5.4-7.2,10.4-8.6c0.2,0,0.4,0,0.6,0c-4.9,1.3-10.3,2.4-10.3,8.5l-0.1,8.8H12L12.1,56.1z"
			/>
		<path style="&st24;" d="M14.5,51.4c2-1.9,5.2-2.6,8.3-3.4c2.5,0,5.4,0.5,8.9,1.7c0.1,0.1,0.1,0.2,0.2,0.3c-0.4,0-0.7-0.2-1.1-0.1
			c-1.2,0.2-2.3,0.5-5.1,1.4c-2.6,0.8-4.6,1.7-6.3,1.9c-2.7,0.3-4.1-0.3-4.8-1.6C14.5,51.5,14.5,51.4,14.5,51.4z"/>
		<path style="&st25;" d="M14.7,46.4c0.5-1.3,1.8-1.9,2.4-2.1c0.8-1.7,1.8-2.8,5.6-2.1c5,0.8,9.2,7.4,9.4,7.7c0.1,0.1,0-0.1,0,0
			c0,0.1-0.2,0.1-0.3,0.1c-0.1,0-1.8-0.3-5.5,0.6c-2.3,0.5-4.7,1.4-6.3,1.5c-2.7,0.3-3.7-0.2-4.3-1.2C14.5,49.1,14.2,47.6,14.7,46.4
			z"/>
		
			<radialGradient id="SVGID_7_" cx="60.2207" cy="41.8789" r="9.3793" gradientTransform="matrix(-1 0 0 1 83.6699 0)" gradientUnits="userSpaceOnUse">
			<stop  offset="0" style="stop-color:#007C91"/>
			<stop  offset="0.5" style="stop-color:#007C91"/>
			<stop  offset="1" style="stop-color:#02383B"/>
		</radialGradient>
		<path style="&st17;" d="M31.7,49.8c0,0-4.4-6.8-9.3-7.6c-3.8-0.6-4.4,0.6-5.1,2.3c0,0-4.4,1.1-1.5,5.9c1.1,1.9,5.3,0.5,9.5-0.4
			C29.1,49,31.7,49.8,31.7,49.8z"/>
		<g>
			
				<radialGradient id="SVGID_8_" cx="67.5039" cy="43.333" r="6.3471" gradientTransform="matrix(-1 0 0 1 83.6699 0)" gradientUnits="userSpaceOnUse">
				<stop  offset="0" style="stop-color:#007C91"/>
				<stop  offset="0.5" style="stop-color:#007C91"/>
				<stop  offset="1" style="stop-color:#02383B"/>
			</radialGradient>
			<path style="&st18;" d="M14.7,46.4c0.5-1.3,1.8-1.9,2.4-2.1c0.7-1.4,1.5-2.4,3.9-2.3c-2.1,0.1-2.8,1-3.4,2.3
				c-0.5,0.2-1.8,0.8-2.4,2.1c-0.5,1.2-0.2,2.7,0.8,4.4c0.5,0.8,1.2,1.2,2.6,1.3c-1.8,0-2.6-0.4-3.1-1.3
				C14.5,49.1,14.2,47.6,14.7,46.4z"/>
		</g>
		
			<radialGradient id="SVGID_9_" cx="63.8047" cy="24.6479" r="25.0714" gradientTransform="matrix(-0.8268 0.1678 0.1632 0.985 69.0765 -5.9938)" gradientUnits="userSpaceOnUse">
			<stop  offset="0" style="stop-color:#007C91"/>
			<stop  offset="0.5" style="stop-color:#007C91"/>
			<stop  offset="1" style="stop-color:#02383B"/>
		</radialGradient>
		<path style="&st19;" d="M26,46.8c0,0-7-0.9-8.7-2C14.9,43.4,26,46.8,26,46.8z"/>
	</g>
	<line style="&st49;" x1="32.1" y1="49.9" x2="32.1" y2="65.4"/>
	<path style="&st25;" d="M22.6,48.7c1.7,1.6,2.9,2.3,3.8,2.9c1.4,0.9,2.5,1.6,4.5,4.6c0.3,0.4,0.7,0.6,1.1,0.6h0
		c0.4,0,0.9-0.2,1.1-0.6c2-3,3-3.7,4.5-4.6c1-0.6,2.2-1.4,3.8-2.9c1.8-1.7,2.9-3.8,3.5-5.9c-0.1-0.1-0.1-0.1-0.2-0.2c0,0,0,0,0,0
		c-0.1-0.1-0.3-0.2-0.5-0.3c0,0,0,0,0,0c-0.8-0.4-1.9-0.5-3.5-0.2c-4.6,0.9-8.5,7.4-8.8,7.9c-0.3-0.5-4.2-7.1-8.8-7.9
		c-1.7-0.3-2.8-0.2-3.5,0.2h0c-0.2,0.1-0.3,0.2-0.5,0.3c0,0,0,0,0,0c0,0-0.1,0.1-0.1,0.1C19.7,44.8,20.8,46.9,22.6,48.7z"/>
</g>
<path style="&st20;" d="M31.7,49.8C28,48.5,25,48,22.5,48c-5,1.4-10.4,2.4-10.4,8.6L12,65.4h1.3h37.4H52l-0.1-8.8
	c0-6.1-5.4-7.2-10.4-8.6C39,48,36,48.5,32.3,49.8"/>
<circle style="&st10;" cx="56.2" cy="32.7" r="1.5"/>
<g>
	<g>
		<path style="&st21;" d="M42,76.5c-0.8-0.3-1.2-1.1-1-1.9l11.9-36.9c0.3-0.8,1.1-1.2,1.9-1s1.2,1.1,1,1.9L43.8,75.5
			C43.6,76.3,42.7,76.8,42,76.5z"/>
	</g>
	
		<ellipse transform="matrix(0.9519 0.3065 -0.3065 0.9519 14.7424 -14.5767)" style="&st21;" cx="53.8" cy="39.7" rx="3.3" ry="3.4"/>
	<g>
		<path style="&st0;" d="M42,76.5c-0.8-0.3-1.2-1.1-1-1.9l11.9-36.9c0.3-0.8,1.1-1.2,1.9-1s1.2,1.1,1,1.9L43.8,75.5
			C43.6,76.3,42.7,76.8,42,76.5z"/>
	</g>
	<path style="&st4;" d="M54.7,36.8c-0.1,0-0.2,0-0.2-0.1c0.6,0.3,1,1.1,0.7,1.8L43.4,75.4c-0.2,0.7-0.9,1.1-1.6,1
		c0.1,0,0.1,0.1,0.2,0.1c0.8,0.3,1.6-0.2,1.9-1l11.9-36.9C56,37.9,55.5,37,54.7,36.8z"/>
	
		<ellipse transform="matrix(0.9519 0.3065 -0.3065 0.9519 14.7424 -14.5767)" style="&st0;" cx="53.8" cy="39.7" rx="3.3" ry="3.4"/>
	<path style="&st4;" d="M54.8,36.4c-0.1,0-0.2,0-0.3-0.1c1.5,0.7,2.3,2.4,1.8,4.1c-0.5,1.7-2.2,2.6-3.8,2.3c0.1,0,0.2,0.1,0.3,0.1
		c1.7,0.5,3.6-0.4,4.1-2.2C57.5,38.9,56.5,37,54.8,36.4z"/>
	
		<rect x="51.2" y="42.6" transform="matrix(-0.9518 -0.3066 0.3066 -0.9518 89.7817 100.0445)" style="&st23;" width="3.1" height="0.8"/>
	<path style="&st48;" d="M54.9,36.3c-1.8-0.6-3.7,0.4-4.3,2.2c-0.2,0.5-0.2,0.9-0.1,1.4c0.7,0.8,1.6,1.4,2.7,1.7
		c1.1,0.3,2.1,0.4,3.2,0.2c0.3-0.3,0.6-0.8,0.7-1.2C57.6,38.7,56.7,36.8,54.9,36.3z"/>
	
		<radialGradient id="SVGID_10_" cx="49.751" cy="37.1826" r="6.3334" gradientTransform="matrix(0.9519 0.3064 -0.3064 0.9519 18.9527 -14.4365)" gradientUnits="userSpaceOnUse">
		<stop  offset="0" style="stop-color:#FF75FF"/>
		<stop  offset="0.5591" style="stop-color:#8536FF"/>
		<stop  offset="1" style="stop-color:#8500CA"/>
	</radialGradient>
	<circle style="&st22;" cx="54.9" cy="36.2" r="4.8"/>
	
		<radialGradient id="SVGID_11_" cx="49.751" cy="37.1826" r="6.3334" gradientTransform="matrix(0.9519 0.3064 -0.3064 0.9519 18.9527 -14.4365)" gradientUnits="userSpaceOnUse">
		<stop  offset="0" style="stop-color:#FF6CFF"/>
		<stop  offset="0.5591" style="stop-color:#8536FF"/>
		<stop  offset="1" style="stop-color:#8500CA"/>
	</radialGradient>
	<circle style="&st26;" cx="54.9" cy="36.2" r="4.8"/>
	
		<radialGradient id="SVGID_12_" cx="55.418" cy="31.0996" r="14.7472" gradientTransform="matrix(0.9519 0.3064 -0.3064 0.9519 18.9527 -14.4365)" gradientUnits="userSpaceOnUse">
		<stop  offset="0" style="stop-color:#FFFFFF"/>
		<stop  offset="0.5591" style="stop-color:#8536FF"/>
		<stop  offset="1" style="stop-color:#8500CA"/>
	</radialGradient>
	<path style="&st27;" d="M56.4,31.6c-1-0.3-2-0.3-3,0c0.8-0.2,1.8-0.2,2.6,0.1c2.5,0.8,3.9,3.5,3.1,6.1c-0.5,1.5-1.7,2.6-3.1,3.1
		c1.6-0.4,2.9-1.5,3.4-3.2C60.3,35.1,58.9,32.4,56.4,31.6z"/>
</g>
<path style="&st6;" d="M32.1,54.4c4-6.1,5-4.6,9.5-8.9c7-6.8,3.2-17.5,3.2-17.5c-2.9,7.5-12.7,7.6-12.7,7.6s-9.4,0-12.7-7.6
	c0,0-3.8,10.6,3.2,17.5C27,49.8,28.1,48.2,32.1,54.4z"/>
<radialGradient id="SVGID_13_" cx="32.6621" cy="36.0381" r="19.8734" gradientTransform="matrix(1.0016 0 0 1.1893 -0.3586 -10.382)" gradientUnits="userSpaceOnUse">
	<stop  offset="0" style="stop-color:#FFFFFF"/>
	<stop  offset="1" style="stop-color:#545454"/>
</radialGradient>
<path style="&st5;" d="M32.1,54.7c4-6.1,5-4.6,9.5-8.9c7-6.8,3.2-17.5,3.2-17.5C41.9,35.8,32.1,36,32.1,36s-9.4,0-12.7-7.6
	c0,0-3.8,10.6,3.2,17.5C27,50.1,28.1,48.5,32.1,54.7z"/>
<radialGradient id="SVGID_14_" cx="32.623" cy="34.9756" r="20.4529" gradientTransform="matrix(1.0464 0 0 1.1893 -1.7736 -10.382)" gradientUnits="userSpaceOnUse">
	<stop  offset="0" style="stop-color:#FFFFFF"/>
	<stop  offset="1" style="stop-color:#545454"/>
</radialGradient>
<path style="&st28;" d="M32.1,54.6c4.1-6.1,5.2-4.5,9.9-8.8c7.3-6.8,2.8-18.9,2.8-18.9c-2,8.4-12.7,9.2-12.7,9.2s-9.8-0.2-12.7-9.2
	c0,0-4.5,12.1,2.8,18.9C26.8,50.1,27.9,48.5,32.1,54.6z"/>
<radialGradient id="SVGID_15_" cx="32.2134" cy="34.9434" r="23.9034" gradientTransform="matrix(1.0095 0 0 1.1525 -0.3972 -9.5439)" gradientUnits="userSpaceOnUse">
	<stop  offset="0" style="stop-color:#FFFFFF"/>
	<stop  offset="1" style="stop-color:#A3A3A3"/>
</radialGradient>
<path style="&st29;" d="M32.1,53.3c4.6-5.7,5-3.9,9.5-8.1c7.1-6.6,2.9-17.7,2.9-17.7c-2,7.5-12.5,8.3-12.5,8.3s-9.6-0.5-12.5-8.3
	c0,0-4.1,11.2,2.9,17.7C27,49.4,27.8,47.9,32.1,53.3z"/>
<radialGradient id="SVGID_16_" cx="31.9932" cy="38.6797" r="21.5134" gradientTransform="matrix(1.0149 0 0 1.1893 -0.294 -10.382)" gradientUnits="userSpaceOnUse">
	<stop  offset="0" style="stop-color:#FFFFFF"/>
	<stop  offset="1" style="stop-color:#BFBFBF"/>
</radialGradient>
<path style="&st30;" d="M32.1,35.4c0,0-8.9,0.3-12.3-7.5c0,0,0.1,0.6,0.1,2.9c0.1,3.8-0.9,8.9,3,12.4c4.3,4,4.7,5,9.2,8.1
	c5-3.6,4.9-4.2,9.2-8.1c3.8-3.5,2.9-8.6,3-12.4c0-2.3,0.2-2.8,0.2-2.8C41.3,35.5,32.1,35.4,32.1,35.4z"/>
<radialGradient id="SVGID_17_" cx="32.0669" cy="37.2051" r="16.7121" gradientUnits="userSpaceOnUse">
	<stop  offset="0" style="stop-color:#FFFFFF"/>
	<stop  offset="1" style="stop-color:#BFBFBF"/>
</radialGradient>
<ellipse style="&st31;" cx="32" cy="39.6" rx="4.5" ry="3.5"/>
<ellipse style="&st9;" cx="32.1" cy="37.6" rx="4.1" ry="1.1"/>
<radialGradient id="SVGID_18_" cx="32.4497" cy="31.875" r="13.1253" gradientUnits="userSpaceOnUse">
	<stop  offset="0" style="stop-color:#FFFFFF"/>
	<stop  offset="1" style="stop-color:#545454"/>
</radialGradient>
<path style="&st32;" d="M32.2,37.9c0,0-0.3,0.3-1.4,0.3s-1-0.7-1.5-0.1c-0.5,0.5-0.2,0.9-0.5,3.2c-0.3,2.3-2.5,3.3-2,2.2
	c0.5-1.2,0.1-3.3-0.3-4.1c-0.3-0.8-1.1-2.4-0.3-3.6c0.7-1.1,1.6-1.5,2.8-1.1c1.2,0.4,3.2,0.6,3.2,0.6s2-0.2,3.2-0.6
	c1.2-0.4,2.1,0,2.8,1.1c0.7,1.1,0,2.8-0.3,3.6c-0.3,0.8-0.8,2.9-0.3,4.1c0.5,1.2-1.7,0.2-2-2.2c-0.3-2.3,0-2.6-0.5-3.2
	c-0.5-0.5-0.4,0.1-1.5,0.1C32.5,38.1,32.2,37.9,32.2,37.9z"/>
<radialGradient id="SVGID_19_" cx="32.1162" cy="32.332" r="27.5857" gradientUnits="userSpaceOnUse">
	<stop  offset="0" style="stop-color:#FFFFFF"/>
	<stop  offset="1" style="stop-color:#A3A3A3"/>
</radialGradient>
<path style="&st33;" d="M32.2,37.1c0,0-0.3,0.3-1.3,0.3s-1.2-0.6-1.8-0.1s-0.2,2.2-0.5,4.4c-0.3,2.2-2.6,3.2-2,2
	c0.5-1.2,0.4-4.1,0.1-4.8c-0.3-0.7-0.8-2.3-0.1-3.4c0.7-1.1,1.6-1.4,2.7-1.1c1.1,0.3,3,0.5,3,0.5s1.9-0.2,3-0.5c1.1-0.3,2,0,2.7,1.1
	c0.7,1.1,0.2,2.7-0.1,3.4c-0.3,0.7-0.5,3.6,0.1,4.8s-1.7,0.2-2-2c-0.3-2.2,0.1-3.9-0.5-4.4s-0.8,0.1-1.8,0.1
	C32.5,37.3,32.2,37.1,32.2,37.1z"/>
<path style="&st10;" d="M36.6,41.7c-0.3-2-0.6-4.5-1.2-4.9c-0.6-0.5-1,0.1-2,0.1c-0.9,0-1.2-0.2-1.2-0.2s-0.3,0.2-1.2,0.2
	s-1.4-0.6-2-0.1c-0.6,0.5-0.8,3-1.2,5l-0.7-3.1c-0.3-0.7-0.9-2.1-0.3-3.1c0.6-1,1.5-1.3,2.5-1c1.1,0.3,2.8,0.5,2.8,0.5
	s1.8-0.2,2.8-0.5c1.1-0.3,1.9,0,2.5,1c0.6,1,0,2.4-0.3,3.1L36.6,41.7z"/>
<radialGradient id="SVGID_20_" cx="32.7422" cy="34.8877" r="23.6998" gradientTransform="matrix(-4.573959e-008 1.1893 -1.0789 -5.360272e-008 70.1297 -7.8303)" gradientUnits="userSpaceOnUse">
	<stop  offset="0" style="stop-color:#FFFFFF"/>
	<stop  offset="1" style="stop-color:#A3A3A3"/>
</radialGradient>
<path style="&st34;" d="M27,47.1c-1.9-3.7-2.7-5.5-3.9-9c0,0-0.8,3.8,2.2,7.8C27.8,49.2,27,47.1,27,47.1z"/>
<radialGradient id="SVGID_21_" cx="19.1963" cy="34.9014" r="23.7025" gradientTransform="matrix(4.573959e-008 1.1893 1.0789 -5.360272e-008 -5.8362 8.2961)" gradientUnits="userSpaceOnUse">
	<stop  offset="0" style="stop-color:#FFFFFF"/>
	<stop  offset="1" style="stop-color:#A3A3A3"/>
</radialGradient>
<path style="&st35;" d="M37.4,47.1c1.9-3.7,2.7-5.5,3.9-9c0,0,1,3.6-2.2,7.8C36.6,49.1,37.4,47.1,37.4,47.1z"/>
<path style="&st3;" d="M49.3,17.3c-1.1-6.5-7.4-15.3-17.4-15.8v0c-0.1,0-0.1,0-0.2,0l0,0c-2.6,0-15.8,0-21.1,3.8
	c-4,2.9-0.4,3.6,3.1,4.6c1.4,0.4,2.5,1.1,3.2,1.8c-0.9,1.7-1.6,3.6-2.2,5.5c-0.2,0.1-0.2,0.2-0.1,0.3c0,0,0,0,0,0
	c-7.5,0.3-12.4,0.8-12.4,1.4c0,1,13.3,1.8,29.6,1.8c16.4,0,29.6-0.8,29.6-1.8C61.6,18.2,56.7,17.6,49.3,17.3z"/>
<g>
	<g>
		
			<radialGradient id="SVGID_22_" cx="21.0518" cy="-56.2603" r="50.9858" gradientTransform="matrix(1.0694 0 0 1 -2.2098 0)" gradientUnits="userSpaceOnUse">
			<stop  offset="0" style="stop-color:#007C91"/>
			<stop  offset="0.5" style="stop-color:#007C91"/>
			<stop  offset="1" style="stop-color:#02383B"/>
		</radialGradient>
		<path style="&st36;" d="M31.8,1.5c-2.6,0-15.8,0-21.1,3.8c-4,2.9-0.4,3.6,3.1,4.6c3.4,1,4.9,3.4,4.8,4.4L31.8,1.5z"/>
		
			<radialGradient id="SVGID_23_" cx="31.855" cy="33.9033" r="27.6467" gradientTransform="matrix(1.0694 0 0 1 -2.2098 0)" gradientUnits="userSpaceOnUse">
			<stop  offset="0" style="stop-color:#007C91"/>
			<stop  offset="0.5" style="stop-color:#007C91"/>
			<stop  offset="1" style="stop-color:#02383B"/>
		</radialGradient>
		<path style="&st37;" d="M31.9,19.2H14.2c1.9-8.8,7.2-17,17.7-17.8v0c11,0.6,17.6,11.1,17.5,17.7H31.9"/>
		
			<radialGradient id="SVGID_24_" cx="13.9199" cy="12.3516" r="24.925" gradientTransform="matrix(0.556 0 0 1 22.2455 0)" gradientUnits="userSpaceOnUse">
			<stop  offset="0" style="stop-color:#007C91"/>
			<stop  offset="1" style="stop-color:#02383B"/>
		</radialGradient>
		<path style="&st38;" d="M49,16.7c1.8,1-8.8-0.6-12.5-0.5C35.8,16.3,45.5,14.7,49,16.7z"/>
		
			<radialGradient id="SVGID_25_" cx="31.9351" cy="1.0039" r="23.2709" gradientTransform="matrix(1.1418 0 0 1 -4.5922 0)" gradientUnits="userSpaceOnUse">
			<stop  offset="0" style="stop-color:#007C91"/>
			<stop  offset="0.5" style="stop-color:#007C91"/>
			<stop  offset="1" style="stop-color:#02383B"/>
		</radialGradient>
		<ellipse style="&st39;" cx="31.9" cy="18.8" rx="29.6" ry="1.8"/>
		<radialGradient id="SVGID_26_" cx="32.1665" cy="30.667" r="39.0056" gradientUnits="userSpaceOnUse">
			<stop  offset="0" style="stop-color:#007C91"/>
			<stop  offset="0.5" style="stop-color:#007C91"/>
			<stop  offset="1" style="stop-color:#02383B"/>
		</radialGradient>
		<path style="&st40;" d="M61.3,18.5c-2,0.9-14.4,1.5-29.3,1.5C17,20,4.6,19.4,2.6,18.5c-0.2,0.1-0.3,0.2-0.3,0.3
			c0,1,13.3,1.8,29.6,1.8c16.4,0,29.6-0.8,29.6-1.8C61.6,18.7,61.5,18.6,61.3,18.5z"/>
		
			<radialGradient id="SVGID_27_" cx="31.875" cy="33.9043" r="27.6296" gradientTransform="matrix(1.0694 0 0 1 -2.2098 0)" gradientUnits="userSpaceOnUse">
			<stop  offset="0" style="stop-color:#007C91"/>
			<stop  offset="0.5" style="stop-color:#007C91"/>
			<stop  offset="1" style="stop-color:#02383B"/>
		</radialGradient>
		<path style="&st41;" d="M14.4,18.5c4.9,0.2,11,0.3,17.5,0.3c6.6,0,12.6-0.1,17.5-0.3c0-0.4-0.1-0.7-0.1-1.1
			C44.4,17.1,38.4,17,31.9,17c-6.4,0-12.4,0.1-17.2,0.3C14.6,17.7,14.5,18.1,14.4,18.5z"/>
		<radialGradient id="SVGID_28_" cx="8.625" cy="19.6421" r="20.3889" gradientUnits="userSpaceOnUse">
			<stop  offset="0" style="stop-color:#007C91"/>
			<stop  offset="0.5" style="stop-color:#007C91"/>
			<stop  offset="1" style="stop-color:#02383B"/>
		</radialGradient>
		<path style="&st42;" d="M32.2,1.5c-0.1,0-0.2,0-0.3,0v0c-10.5,0.7-15.4,8.1-17.7,17h0.7C16.8,9.8,22,2.4,32.2,1.5z"/>
		<radialGradient id="SVGID_29_" cx="49.25" cy="8.4624" r="20.676" gradientUnits="userSpaceOnUse">
			<stop  offset="0" style="stop-color:#007C91"/>
			<stop  offset="0.5" style="stop-color:#007C91"/>
			<stop  offset="1" style="stop-color:#02383B"/>
		</radialGradient>
		<path style="&st43;" d="M31.9,1.5L31.9,1.5c-0.2,0-0.3,0-0.5,0c10.7,0.9,17.1,10.5,17.1,17l0.9-0.1C48.9,12.1,42.9,2.1,31.9,1.5z"
			/>
		
			<radialGradient id="SVGID_30_" cx="42.1758" cy="26.5801" r="19.877" gradientTransform="matrix(0.8429 0 0 0.8352 1.4775 2.4473)" gradientUnits="userSpaceOnUse">
			<stop  offset="0" style="stop-color:#007C91"/>
			<stop  offset="1" style="stop-color:#02383B"/>
		</radialGradient>
		<path style="&st44;" d="M14.9,16.9c-2.4,1.5,13.6-2.8,19.5-3.8C35.4,13,19.5,14,14.9,16.9z"/>
		
			<radialGradient id="SVGID_31_" cx="48.0488" cy="19.8887" r="16.6681" gradientTransform="matrix(0.5247 -0.1678 0.1154 0.7628 5.1562 5.2287)" gradientUnits="userSpaceOnUse">
			<stop  offset="0" style="stop-color:#007C91"/>
			<stop  offset="0.5" style="stop-color:#007C91"/>
			<stop  offset="0.9946" style="stop-color:#002E31"/>
		</radialGradient>
		<path style="&st45;" d="M17.3,11.1C16,13,25.7,6.8,29.7,4.4C30.3,4.1,19.8,7.6,17.3,11.1z"/>
		
			<radialGradient id="SVGID_32_" cx="36.5879" cy="20.1563" r="14.044" gradientTransform="matrix(0.4869 -0.2482 0.2514 0.7336 4.7508 6.0314)" gradientUnits="userSpaceOnUse">
			<stop  offset="0" style="stop-color:#007C91"/>
			<stop  offset="0.5" style="stop-color:#007C91"/>
			<stop  offset="0.9946" style="stop-color:#002E31"/>
		</radialGradient>
		<path style="&st46;" d="M17.3,11.1c-0.9,2,3.5-2.9,6.9-5.9C24.7,4.8,19.1,7.2,17.3,11.1z"/>
	</g>
</g>
<radialGradient id="SVGID_33_" cx="12.25" cy="-4.25" r="11.7819" gradientUnits="userSpaceOnUse">
	<stop  offset="0" style="stop-color:#007C91"/>
	<stop  offset="0.5" style="stop-color:#007C91"/>
	<stop  offset="1" style="stop-color:#02383B"/>
</radialGradient>
<path style="&st47;" d="M11.1,5.8c2.7-2,7.3-2.9,10.6-3.2c1.8-0.1,0.4,1.1-2.6,2.7S8.7,7.6,11.1,5.8z"/>
<g>
	<defs>
		<path id="SVGID_34_" d="M31.9,19.2H14.2c1.9-8.8,7.2-17,17.7-17.8v0c11,0.6,17.6,11.1,17.5,17.7H31.9"/>
	</defs>
	<clipPath id="SVGID_35_">
		<use xlink:href="#SVGID_34_"  style="overflow:visible;"/>
	</clipPath>
	<path style="&st2;" d="M27.5,8.4c-0.3-1.6,0.5-3.2,1.9-4c-0.4,0-0.8,0-1.2,0c-2,0.4-3.4,2.4-3,4.4c0.4,2,2.4,3.4,4.4,3
		c0.4-0.1,0.8-0.2,1.1-0.4C29.1,11.2,27.8,10.1,27.5,8.4z"/>
	<polygon style="&st2;" points="44.2,9.3 41.6,8.2 39.6,10.3 39.9,7.5 37.3,6.3 40,5.7 40.3,2.8 41.8,5.3 44.6,4.7 42.8,6.8 	"/>
	<polygon style="&st2;" points="36.4,20.9 34.3,19.2 32,20.6 33,18.1 30.9,16.3 33.7,16.5 34.7,14 35.4,16.6 38.1,16.8 35.8,18.3 	
		"/>
	<polygon style="&st2;" points="20,18.5 18,16.3 15.3,17.4 16.8,14.9 14.9,12.6 17.8,13.3 19.3,10.8 19.6,13.7 22.5,14.4 19.8,15.6 
			"/>
</g>
</svg>
