<?xml version="1.0" encoding="utf-8"?>
<!-- Generator: Adobe Illustrator 18.0.0, SVG Export Plug-In . SVG Version: 6.00 Build 0)  -->
<!DOCTYPE svg PUBLIC "-//W3C//DTD SVG 1.1//EN" "http://www.w3.org/Graphics/SVG/1.1/DTD/svg11.dtd">
<svg version="1.1" id="レイヤー_1" xmlns="http://www.w3.org/2000/svg" xmlns:xlink="http://www.w3.org/1999/xlink" x="0px"
	 y="0px" width="64px" height="64px" viewBox="0 0 64 64" style="enable-background:new 0 0 64 64;" xml:space="preserve">
<g>
	<g>
		<linearGradient id="SVGID_1_" gradientUnits="userSpaceOnUse" x1="32" y1="17.9819336" x2="32" y2="40.8214226">
			<stop  offset="0" style="stop-color:#F39800"/>
			<stop  offset="0.2757202" style="stop-color:#FAEE00"/>
			<stop  offset="1" style="stop-color:#F39800"/>
		</linearGradient>
		<path style="fill:url(#SVGID_1_);" d="M32,40.8214226c-12.8125,0-14.3365631-21.8742924-14.3726959-22.80583l0.8722076-0.033659
			C18.5083008,18.2007179,19.5078125,39.8898888,32,39.8898888s13.4921875-21.6891708,13.5-21.9079552l0.8726959,0.033659
			C46.3355865,18.9471302,44.8125,40.8214226,32,40.8214226z"/>
		<path style="fill:#231815;" d="M32,40.9462891c-5.3208008,0-9.5029297-3.8505859-12.0952148-11.1367188
			c-2.0893555-5.8720703-2.3999023-11.7324219-2.4023438-11.7890625l-0.0048828-0.125l1.1220703-0.043457l0.0048828,0.125
			C18.6333008,18.1948242,19.6430664,39.7646484,32,39.7646484c6.3857422,0,9.6767578-5.8652344,11.3134766-10.7861328
			C45.1318359,23.5087891,45.3730469,18.03125,45.375,17.9775391l0.0048828-0.1254883l1.1230469,0.043457l-0.0048828,0.125
			C46.4892578,18.25,45.2148438,40.9462891,32,40.9462891z M17.7597656,18.1357422
			c0.0566406,0.8774414,0.472168,6.2265625,2.3803711,11.590332C22.7304688,37.0048828,26.7202148,40.6962891,32,40.6962891
			c12.4755859,0,14.1230469-20.7436523,14.2412109-22.5605469l-0.6220703-0.0239258
			C45.5253906,19.9003906,44.1884766,40.0146484,32,40.0146484c-12.0961914,0-13.5175781-20.1166992-13.6191406-21.902832
			L17.7597656,18.1357422z"/>
	</g>
	<linearGradient id="SVGID_2_" gradientUnits="userSpaceOnUse" x1="32.0009766" y1="18.1273346" x2="32.0009766" y2="40.4915047">
		<stop  offset="0" style="stop-color:#FFFFFF;stop-opacity:0"/>
		<stop  offset="0.2757202" style="stop-color:#FFFFFF;stop-opacity:0.5"/>
		<stop  offset="1" style="stop-color:#FFFFFF;stop-opacity:0.3"/>
	</linearGradient>
	<path style="fill:url(#SVGID_2_);" d="M45.6003952,18.1273346c-0.1372795,2.3779678-1.6299591,21.8984032-13.6003838,21.8984032
		c-11.8819695,0-13.4534397-19.526804-13.5994205-21.8984032l-0.3654346,0.014101
		c0.1827183,2.3884277,2.1056042,22.350069,13.9648552,22.350069c12.0332642,0,13.8014679-19.9593658,13.9667854-22.350069
		L45.6003952,18.1273346z"/>
	<g>
		<linearGradient id="SVGID_3_" gradientUnits="userSpaceOnUse" x1="32" y1="-6.0062599" x2="32" y2="24.3052673">
			<stop  offset="0" style="stop-color:#3E3A39"/>
			<stop  offset="1" style="stop-color:#231815"/>
		</linearGradient>
		<path style="fill:url(#SVGID_3_);" d="M49.3418312,5.1724939c-0.1885719-3.7433534-2.2809753-7.0368714-5.39394-8.495039
			c-7.6388474-3.5782871-16.2569332-3.5782871-23.8957825,0c-3.1129665,1.4581672-5.205369,4.7516851-5.39394,8.495039
			c-0.1728134,3.4316092-0.4023924,10.0738783-0.5345106,14.0654078c-0.0622654,1.8811493,1.1226273,3.501812,2.7415247,3.7547035
			c3.410202,0.532711,9.384922,1.3126621,15.1348171,1.3126621s11.724617-0.7799511,15.1348152-1.3126621
			c1.6189003-0.2528915,2.803791-1.8735542,2.7415276-3.7547035C49.7442245,15.2463722,49.5146446,8.6041031,49.3418312,5.1724939z"
			/>
		<path d="M32,24.5551758c-5.875,0-12.0283203-0.8242188-15.1733398-1.3154297
			c-1.75-0.2734375-3.0195313-1.9975586-2.953125-4.0102539c0.152832-4.6064453,0.3696289-10.7866211,0.5351563-14.0698242
			c0.1943359-3.862793,2.3164063-7.199707,5.5375977-8.7089844C23.78125-5.3457031,27.8364258-6.2563477,32-6.2563477
			c4.1630859,0,8.21875,0.9106445,12.0546875,2.7070313c3.2207031,1.5097656,5.3427734,4.8466797,5.5371094,8.7089844
			c0.1757813,3.4931641,0.4101563,10.3144531,0.5341797,14.0698242c0.0664063,2.0126953-1.2021484,3.7368164-2.9521484,4.0102539
			C44.0283203,23.730957,37.875,24.5551758,32,24.5551758z M32-5.7563477c-4.0893555,0-8.0737305,0.8950195-11.8417969,2.6601563
			c-3.0068359,1.4086914-5.0678711,4.6591797-5.2504883,8.28125c-0.1650391,3.2792969-0.3818359,9.456543-0.5341797,14.0610352
			c-0.0581055,1.7607422,1.0297852,3.2651367,2.5302734,3.4995117C20.034668,23.2348633,26.1586914,24.0551758,32,24.0551758
			c5.8408203,0,11.9658203-0.8203125,15.0957031-1.3095703c1.5009766-0.234375,2.5888672-1.7387695,2.5302734-3.4995117
			c-0.1240234-3.7539063-0.3583984-10.5717773-0.5341797-14.0610352c-0.1816406-3.621582-2.2431641-6.8725586-5.25-8.28125
			C40.0732422-4.8613281,36.0888672-5.7563477,32-5.7563477z"/>
	</g>
	<g>
		<linearGradient id="SVGID_4_" gradientUnits="userSpaceOnUse" x1="41.1787033" y1="9.2673035" x2="48.4550552" y2="9.2673035">
			<stop  offset="0.1" style="stop-color:#FFFFFF;stop-opacity:0"/>
			<stop  offset="1" style="stop-color:#FFFFFF;stop-opacity:0.1"/>
		</linearGradient>
		<path style="fill:url(#SVGID_4_);" d="M48.4081841,18.6664391c-0.0194092-0.5407505-0.2480888-0.4381523-0.2741508-1.0937386
			c-0.022644-0.5705528,0.0637207-1.181982,0.0379028-1.8121414c-0.0240479-0.58566,0.1072998-1.1982517,0.0820313-1.8141928
			c-0.0245361-0.5968018-0.2444458-1.1946287-0.2689819-1.8008633c-0.0245361-0.6077385-0.1790161-1.21035-0.2023315-1.8088608
			c-0.0239868-0.6180601-0.1268311-1.2235432-0.1481323-1.8114586c-0.0228271-0.6322775,0.0501099-1.2452793,0.0320435-1.8180203
			c-0.020752-0.6564751,0.3064575-1.2742615,0.2944946-1.8162432c-0.0143433-0.6475887-0.1786499-1.292717-0.3307495-1.854248
			c-0.1662598-0.6133435-0.7287598-1.038439-1.015564-1.5533522c-0.3051147-0.5479284-0.4116821-1.2200565-0.7998657-1.6617624
			c-0.4178467-0.4754728-1.0620117-0.6766396-1.5095825-1.0354998c-0.5198364-0.4168248-0.9629517-0.8406901-1.4225464-1.1099377
			c-0.826416-0.484154-1.5476685-1.0319455-1.6882935-0.7914751c-0.140686,0.2404706,0.7001953,0.9482114,0.9603882,1.5158942
			c0.2381592,0.5196297,0.6895752,0.998862,0.8756714,1.5887599c0.1739502,0.5514828,0.1306152,1.1982516,0.2546387,1.7999748
			c0.1177368,0.5712372,0.0284424,1.1879984,0.0974731,1.7950534c0.0662842,0.5832677,0.3171997,1.1618872,0.335144,1.7698307
			c0.0164185,0.552918,0.1901855,1.153616,0.2071533,1.7988811c0.0150757,0.5722623-0.3093262,1.185401-0.2939453,1.8134403
			c0.0141602,0.5825157,0.3973999,1.1765833,0.4115601,1.7939596c0.0136108,0.5905132-0.4597778,1.2054968-0.4464111,1.8166533
			c0.0130615,0.5963917,0.2539673,1.1948338,0.2666016,1.8005905c0.0126953,0.6027479,0.1120605,1.2057018,0.1242676,1.8075609
			c0.0122681,0.6089687-0.2103882,1.2197151-0.1987915,1.817337c0.0119019,0.6133442,0.3101807,1.212265,0.321167,1.8024368
			c0.0003662,0.0211201,0.0007935,0.0421734,0.0010986,0.0630913c0.0147095,0.9244232-0.3395996,1.6713314,0.5055542,1.8266315
			c0.0046387,0.0008888,0.9954224-0.0008888,1,0c0.6247559,0.1172962,1.0766602-0.5590019,1.4847412-0.4650822
			c0.6203003,0.1427917,1.3668823-0.5052757,1.354126-1.1709785C48.4464722,19.6186142,48.4351616,19.414032,48.4081841,18.6664391z
			"/>
		<linearGradient id="SVGID_5_" gradientUnits="userSpaceOnUse" x1="22.8212967" y1="9.254508" x2="15.5449438" y2="9.254508">
			<stop  offset="0.1" style="stop-color:#FFFFFF;stop-opacity:0"/>
			<stop  offset="1" style="stop-color:#FFFFFF;stop-opacity:0.1"/>
		</linearGradient>
		<path style="fill:url(#SVGID_5_);" d="M22.805542-3.115355c-0.140625-0.2404704-0.8618774,0.0635695-1.6882935,0.5477233
			c-0.4595947,0.2692478-0.90271,0.9368646-1.4225464,1.3536894c-0.4475708,0.3588603-1.0917358,0.5600271-1.5095825,1.0354998
			c-0.3881836,0.4417057-0.494751,1.1138339-0.7998657,1.6617624c-0.2868042,0.5149132-0.8493042,0.9400088-1.015564,1.5533522
			c-0.1520996,0.5615311-0.3164063,1.2066593-0.3307495,1.854248c-0.0119629,0.5419817,0.3152466,1.1597681,0.2944946,1.8162432
			c-0.0180664,0.572741,0.0548706,1.1857429,0.0320435,1.8180203c-0.0213013,0.5879154-0.1241455,1.1933985-0.1481323,1.8114586
			c-0.0233154,0.5985107-0.1777954,1.2011223-0.2023315,1.8088608c-0.0245361,0.6062346-0.2444458,1.2040615-0.2689819,1.8008633
			c-0.0252686,0.615941,0.1060791,1.2285328,0.0820313,1.8141928c-0.0258179,0.6301594,0.1320801,0.9097958,0.109436,1.4803505
			c-0.026062,0.6555862-0.2897301,0.884779-0.3091393,1.4255295c-0.0269775,0.7475929-0.0748329,0.9521751-0.0832558,1.3922405
			c-0.0127563,0.6657028,0.7338257,1.3137703,1.354126,1.1709785c0.4080811-0.0939198,0.8599854,0.5823784,1.4847412,0.4650822
			c0.0045776-0.0008888,1.0092773-0.001709,1.013916-0.0025978c0.8451538-0.1553001,0.4769287-0.8996105,0.4916382-1.8240337
			c0.0003052-0.0209179,0.0007324-0.0419712,0.0010986-0.0630913c0.0109863-0.5901718,0.3092651-1.1890926,0.321167-1.8024368
			c0.0115967-0.5976219-0.2110596-1.2083683-0.1987915-1.817337c0.012207-0.6018591,0.1115723-1.204813,0.1242676-1.8075609
			c0.0126343-0.6057568,0.25354-1.2041988,0.2666016-1.8005905c0.0133667-0.6111565-0.460022-1.22614-0.4464111-1.8166533
			c0.0141602-0.6173763,0.3973999-1.2114439,0.4115601-1.7939596c0.0153809-0.6280394-0.309021-1.241178-0.2939453-1.8134403
			c0.0169678-0.6452651,0.1907349-1.2459631,0.2071533-1.7988811c0.0179443-0.6079435,0.2688599-1.186563,0.335144-1.7698307
			c0.0690308-0.6070549-0.0202637-1.2238162,0.0974731-1.7950534c0.1240234-0.6017232,0.0806885-1.248492,0.2546387-1.7999748
			c0.1860962-0.589898,0.6375122-1.0691302,0.8756714-1.5887599C22.1053467-2.1671436,22.946228-2.8748844,22.805542-3.115355z"/>
	</g>
</g>
<g>
	<g>
		<linearGradient id="SVGID_6_" gradientUnits="userSpaceOnUse" x1="32" y1="46.9536133" x2="32" y2="65.3651123">
			<stop  offset="0" style="stop-color:#E83828"/>
			<stop  offset="1" style="stop-color:#C30D23"/>
		</linearGradient>
		<path style="fill:url(#SVGID_6_);" d="M46.5809937,49.09375c-0.9100952-0.4375-7.5148926-2.1401367-7.5148926-2.1401367L32,50
			l-7.0661011-3.0463867c0,0-6.6047974,1.7026367-7.5148926,2.1401367c-0.9100342,0.4375-5.3162842,1.65625-5.3162842,6.875
			s0,9.3963623,0,9.3963623H32h19.8972778c0,0,0-4.1776123,0-9.3963623S47.4910278,49.53125,46.5809937,49.09375z"/>
		<path style="fill:#800917;" d="M52.1474609,65.6152344H11.8525391V55.96875c0-4.8613281,3.7045898-6.3769531,5.0991211-6.9472656
			c0.1484375-0.0605469,0.2709961-0.1103516,0.3588867-0.1533203c0.921875-0.4423828,7.2905273-2.0869141,7.5610352-2.1572266
			l0.0830078-0.0214844L32,49.7275391l7.0458984-3.0380859l0.0830078,0.0214844
			c0.2705078,0.0703125,6.6386719,1.7148438,7.5605469,2.1572266c0.0878906,0.0429688,0.2099609,0.0927734,0.3583984,0.1533203
			c1.3955078,0.5703125,5.0996094,2.0859375,5.0996094,6.9472656V65.6152344z M12.3525391,65.1152344h39.2949219V55.96875
			c0-4.5263672-3.4785156-5.9492188-4.7880859-6.484375c-0.1601563-0.0654297-0.2919922-0.1201172-0.3867188-0.1650391
			c-0.6943359-0.3339844-5.0859375-1.5087891-7.3857422-2.1025391L32,50.2724609l-7.0864258-3.0556641
			c-2.300293,0.59375-6.6923828,1.7685547-7.3862305,2.1025391c-0.0952148,0.0449219-0.2265625,0.0996094-0.3862305,0.1650391
			c-1.3095703,0.5351563-4.7885742,1.9580078-4.7885742,6.484375V65.1152344z"/>
	</g>
	<g>
		<linearGradient id="SVGID_7_" gradientUnits="userSpaceOnUse" x1="31.4477329" y1="47.8262749" x2="38.9992485" y2="46.4947395">
			<stop  offset="0" style="stop-color:#3E3A39"/>
			<stop  offset="0.5" style="stop-color:#36302E"/>
			<stop  offset="1" style="stop-color:#231815"/>
		</linearGradient>
		<path style="fill:url(#SVGID_7_);" d="M37.2259674,43.4960442c0,0-1.690567,0.773819-4.3062096,1.3316879
			C32.3855476,44.9416695,32,45.4110794,32,45.9573097v5.0010223c0,0,5.5833321,0.0679016,7.0661125-4.004734
			c0.0386543-0.1061707-0.1276169-0.2723618-0.1276169-0.2723618l-1.3179398-3.1953926
			C37.6205559,43.4858437,37.307785,43.3382645,37.2259674,43.4960442z"/>
		<path style="fill:#231815;" d="M32.0175781,51.2080078L31.75,51.2050781v-5.2480469
			c0-0.6582031,0.4702148-1.2363281,1.1181641-1.3730469c2.2998047-0.4921875,3.8886719-1.15625,4.1982422-1.2910156
			c0.1708984-0.1787109,0.6054688-0.0576172,0.6611328-0.0322266l0.0869141,0.0410156l1.3378906,3.2421875
			c0.0898438,0.1015625,0.2216797,0.2939453,0.1494141,0.4941406
			C37.7998047,51.1611328,32.2529297,51.2080078,32.0175781,51.2080078z M37.4121094,43.6787109L37.4082031,43.6875
			l-0.078125,0.0361328c-0.0703125,0.0322266-1.7460938,0.7910156-4.3579102,1.3486328
			C32.5537109,45.1611328,32.25,45.5332031,32.25,45.9570313v4.7451172c1.0566406-0.046875,5.3017578-0.4404297,6.5615234-3.78125
			c-0.0126953-0.0205078-0.0332031-0.0458984-0.0507813-0.0634766l-0.0537109-0.0800781l-1.2763672-3.09375
			C37.4248047,43.6816406,37.4189453,43.6796875,37.4121094,43.6787109z"/>
	</g>
	<g>
		
			<linearGradient id="SVGID_8_" gradientUnits="userSpaceOnUse" x1="31.4477348" y1="47.8262749" x2="38.9992485" y2="46.4947395" gradientTransform="matrix(-1 0 0 1 64 0)">
			<stop  offset="0" style="stop-color:#3E3A39"/>
			<stop  offset="0.5" style="stop-color:#36302E"/>
			<stop  offset="1" style="stop-color:#231815"/>
		</linearGradient>
		<path style="fill:url(#SVGID_8_);" d="M26.7740326,43.4960442c0,0,1.6905651,0.773819,4.3062096,1.3316879
			C31.6144543,44.9416695,32,45.4110794,32,45.9573097v5.0010223c0,0-5.583334,0.0679016-7.0661125-4.004734
			c-0.0386543-0.1061707,0.1276169-0.2723618,0.1276169-0.2723618l1.3179398-3.1953926
			C26.3794441,43.4858437,26.692215,43.3382645,26.7740326,43.4960442z"/>
		<path style="fill:#231815;" d="M31.9824219,51.2080078c-0.2353516,0-5.7832031-0.046875-7.2832031-4.1689453
			c-0.0742188-0.2001953,0.0576172-0.3935547,0.1489258-0.4951172l1.3369141-3.2421875l0.0874023-0.0410156
			c0.0532227-0.0263672,0.4882813-0.1464844,0.6606445,0.0322266c0.3105469,0.1347656,1.9023438,0.7998047,4.1992188,1.2910156
			C31.7797852,44.7207031,32.25,45.2988281,32.25,45.9570313v5.2480469L31.9824219,51.2080078z M25.1884766,46.9199219
			c1.2597656,3.3417969,5.5043945,3.7353516,6.5615234,3.7822266v-4.7451172c0-0.4238281-0.3037109-0.7958984-0.7216797-0.8847656
			c-2.612793-0.5576172-4.2885742-1.3164063-4.3583984-1.3486328l-0.0830078-0.0449219
			c-0.0058594,0.0019531-0.012207,0.0029297-0.0185547,0.0048828l-1.3300781,3.1748047
			C25.2211914,46.8759766,25.2016602,46.9003906,25.1884766,46.9199219z"/>
	</g>
</g>
<g>
	<linearGradient id="SVGID_9_" gradientUnits="userSpaceOnUse" x1="31.3657799" y1="47.5942383" x2="38.579567" y2="46.3222542">
		<stop  offset="0" style="stop-color:#FAEE00"/>
		<stop  offset="0.5" style="stop-color:#F8D100"/>
		<stop  offset="1" style="stop-color:#F39800"/>
	</linearGradient>
	<path style="fill:url(#SVGID_9_);" d="M33,51.1041679c0,0-0.359375,0.0869141-1,0.0869141v-5.831707
		c0-0.7753906,0.5537109-1.1220703,1.3164063-1.2841797c2.5273438-0.5400391,4.2236328-1.3623047,4.2460938-1.3720703
		c0,0,0.234375-0.09375,0.4140625,0.359375s0,0.5507813,0,0.5507813c-0.0957031,0.0439453-1.8144531,0.8769531-4.4521484,1.4404297
		C33.2202148,45.1181641,33,45.3867188,33,45.6933594V51.1041679z"/>
	<path style="fill:#231815;" d="M32,51.3164063h-0.125V45.359375c0-0.7441406,0.4628906-1.2041016,1.4150391-1.40625
		c2.3095703-0.4941406,3.9130859-1.21875,4.2109375-1.359375c0.0253906-0.0107422,0.0615234-0.0234375,0.1142578-0.0234375
		c0.1123047,0,0.3232422,0.0576172,0.4775391,0.4462891c0.2099609,0.5292969-0.0107422,0.6816406-0.0566406,0.7060547
		c-0.4707031,0.2216797-2.1152344,0.9472656-4.4853516,1.453125C33.3037109,45.2285156,33.125,45.4453125,33.125,45.6933594
		v5.5097656l-0.0957031,0.0224609C33.0136719,51.2294922,32.6479492,51.3164063,32,51.3164063z M37.6152344,42.8203125
		c-0.3095703,0.1425781-1.9365234,0.8779297-4.2724609,1.3769531C32.5117188,44.3740234,32.125,44.7431641,32.125,45.359375
		v5.7060547c0.3632813-0.0068359,0.6206055-0.0419922,0.75-0.0634766v-5.3085938
		c0-0.3652344,0.2626953-0.6855469,0.6240234-0.7617188c2.34375-0.5009766,3.9658203-1.2158203,4.4072266-1.4238281
		c0.0234375-0.0185547,0.0595703-0.1328125-0.0458984-0.3994141C37.7763672,42.8955078,37.6787109,42.8203125,37.6152344,42.8203125
		z"/>
</g>
<g>
	
		<linearGradient id="SVGID_10_" gradientUnits="userSpaceOnUse" x1="31.3657799" y1="47.5942383" x2="38.579567" y2="46.3222542" gradientTransform="matrix(-1 0 0 1 64 0)">
		<stop  offset="0" style="stop-color:#FAEE00"/>
		<stop  offset="0.5" style="stop-color:#F8D100"/>
		<stop  offset="1" style="stop-color:#F39800"/>
	</linearGradient>
	<path style="fill:url(#SVGID_10_);" d="M31,51.1041679c0,0,0.359375,0.0869141,1,0.0869141v-5.831707
		c0-0.7753906-0.5537109-1.1220703-1.3164063-1.2841797C28.15625,43.5351563,26.4599609,42.7128906,26.4375,42.703125
		c0,0-0.234375-0.09375-0.4140625,0.359375s0,0.5507813,0,0.5507813c0.0957031,0.0439453,1.8144531,0.8769531,4.4521484,1.4404297
		C30.7797852,45.1181641,31,45.3867188,31,45.6933594V51.1041679z"/>
	<path style="fill:#231815;" d="M32.125,51.3164063H32c-0.6479492,0-1.0141602-0.0869141-1.0292969-0.0908203L30.875,51.203125
		v-5.5097656c0-0.2480469-0.1787109-0.4648438-0.425293-0.5175781c-2.3701172-0.5058594-4.0146484-1.2314453-4.4624023-1.4414063
		c-0.0698242-0.0361328-0.2900391-0.1884766-0.0800781-0.7177734c0.2265625-0.5712891,0.5463867-0.4414063,0.5766602-0.4296875
		c0.3129883,0.1474609,1.9160156,0.8720703,4.2255859,1.3662109C31.6621094,44.1552734,32.125,44.6152344,32.125,45.359375
		V51.3164063z M31.125,51.0019531c0.1293945,0.0214844,0.3867188,0.0566406,0.75,0.0634766V45.359375
		c0-0.6162109-0.3867188-0.9853516-1.2172852-1.1621094c-2.3369141-0.4990234-3.9628906-1.234375-4.2651367-1.3769531
		c-0.0712891,0-0.168457,0.0751953-0.2529297,0.2880859C26.0341797,43.375,26.0708008,43.4892578,26.09375,43.5107422
		c0.4414063,0.2050781,2.0639648,0.9199219,4.4077148,1.4208984C30.862793,45.0078125,31.125,45.328125,31.125,45.6933594
		V51.0019531z"/>
</g>
<g>
	<linearGradient id="SVGID_11_" gradientUnits="userSpaceOnUse" x1="32" y1="52.90625" x2="32" y2="55.09375">
		<stop  offset="0" style="stop-color:#FAEE00"/>
		<stop  offset="0.5" style="stop-color:#F8D100"/>
		<stop  offset="1" style="stop-color:#F39800"/>
	</linearGradient>
	<circle style="fill:url(#SVGID_11_);" cx="32" cy="54" r="1.09375"/>
	<path style="fill:#231815;" d="M32,55.21875c-0.671875,0-1.21875-0.546875-1.21875-1.21875S31.328125,52.78125,32,52.78125
		S33.21875,53.328125,33.21875,54S32.671875,55.21875,32,55.21875z M32,53.03125c-0.5341797,0-0.96875,0.4345703-0.96875,0.96875
		S31.4658203,54.96875,32,54.96875S32.96875,54.5341797,32.96875,54S32.5341797,53.03125,32,53.03125z"/>
</g>
<g>
	<linearGradient id="SVGID_12_" gradientUnits="userSpaceOnUse" x1="32" y1="57.90625" x2="32" y2="60.09375">
		<stop  offset="0" style="stop-color:#FAEE00"/>
		<stop  offset="0.5" style="stop-color:#F8D100"/>
		<stop  offset="1" style="stop-color:#F39800"/>
	</linearGradient>
	<circle style="fill:url(#SVGID_12_);" cx="32" cy="59" r="1.09375"/>
	<path style="fill:#231815;" d="M32,60.21875c-0.671875,0-1.21875-0.546875-1.21875-1.21875S31.328125,57.78125,32,57.78125
		S33.21875,58.328125,33.21875,59S32.671875,60.21875,32,60.21875z M32,58.03125c-0.5341797,0-0.96875,0.4345703-0.96875,0.96875
		S31.4658203,59.96875,32,59.96875S32.96875,59.5341797,32.96875,59S32.5341797,58.03125,32,58.03125z"/>
</g>
<g>
	<linearGradient id="SVGID_13_" gradientUnits="userSpaceOnUse" x1="32" y1="62.8125" x2="32" y2="65">
		<stop  offset="0" style="stop-color:#FAEE00"/>
		<stop  offset="0.5" style="stop-color:#F8D100"/>
		<stop  offset="1" style="stop-color:#F39800"/>
	</linearGradient>
	<circle style="fill:url(#SVGID_13_);" cx="32" cy="63.90625" r="1.09375"/>
	<path style="fill:#231815;" d="M32,65.125c-0.671875,0-1.21875-0.546875-1.21875-1.21875S31.328125,62.6875,32,62.6875
		s1.21875,0.546875,1.21875,1.21875S32.671875,65.125,32,65.125z M32,62.9375c-0.5341797,0-0.96875,0.4345703-0.96875,0.96875
		S31.4658203,64.875,32,64.875s0.96875-0.4345703,0.96875-0.96875S32.5341797,62.9375,32,62.9375z"/>
</g>
<g>
	<linearGradient id="SVGID_14_" gradientUnits="userSpaceOnUse" x1="30.9859009" y1="50.8125" x2="30.9859009" y2="65.3651123">
		<stop  offset="0" style="stop-color:#FAEE00"/>
		<stop  offset="0.5" style="stop-color:#F8D100"/>
		<stop  offset="1" style="stop-color:#F39800"/>
	</linearGradient>
	<path style="fill:url(#SVGID_14_);" d="M32,51.19104c0,0-1.1605835-0.00354-3.0281982-0.37854v14.5526123h1.5490112V52.7503052
		v-0.9683228c0,0,1.0436401,0.1763306,1.4801636,0.1763306S33,52.041626,33,51.104126C33,51.104126,32.4146729,51.19104,32,51.19104
		z"/>
	<path style="fill:#231815;" d="M30.6459961,65.4902344h-1.7993164V50.6601563l0.1494141,0.0302734
		c1.8320313,0.3671875,2.9926758,0.3759766,3.0043945,0.3759766c0.4003906,0,0.9755859-0.0849609,0.980957-0.0859375
		L33.125,50.9599609v0.1445313c0,0.8642578-0.4643555,0.9804688-0.9189453,0.9804688l-0.2050781-0.0019531
		c-0.3476563,0-1.0498047-0.1054688-1.3549805-0.1533203V65.4902344z M29.0966797,65.2402344h1.2993164V51.6347656
		l0.1459961,0.0244141c0.0102539,0.0019531,1.0380859,0.1738281,1.4589844,0.1738281l0.2050781,0.0019531
		c0.3500977,0,0.6245117-0.0458984,0.6640625-0.5869141C32.6669922,51.2744141,32.2949219,51.3164063,32,51.3164063
		c-0.0117188,0-1.1313477-0.0078125-2.9033203-0.3515625V65.2402344z"/>
</g>
<g>
	<g>
		<linearGradient id="SVGID_15_" gradientUnits="userSpaceOnUse" x1="46.3727684" y1="47.0693207" x2="46.3727684" y2="52.8714104">
			<stop  offset="0" style="stop-color:#3E3A39"/>
			<stop  offset="1" style="stop-color:#231815"/>
		</linearGradient>
		<path style="fill:url(#SVGID_15_);" d="M50.8155365,51.1871948c-0.0465469,0.2667313-0.1677551,0.8151093-0.4444809,1.3718567
			c-0.1593552,0.3206062-0.5759354,0.4093857-0.8635292,0.1961479c-0.8887939-0.6590042-3.0509377-1.9801216-7.0489159-2.9002113
			c-0.2510948-0.0577888-0.4416046-0.2736626-0.4549294-0.5309753l-0.0852242-1.6455994
			c-0.0210419-0.4063416,0.3695412-0.7074394,0.7556801-0.5791702c2.0656929,0.6862144,7.4665451,2.5756798,8.1115685,3.7755127
			C50.8370819,50.9703178,50.8341866,51.0803108,50.8155365,51.1871948z"/>
		<path style="fill:#231815;" d="M49.859375,53.1210938c-0.1816406,0-0.3554688-0.0566406-0.5009766-0.1660156
			c-0.9179688-0.6796875-3.0439453-1.9560547-6.9550781-2.8564453c-0.3642578-0.0839844-0.6308594-0.3974609-0.6494141-0.7617188
			l-0.0849609-1.6455078c-0.0117188-0.2294922,0.0683594-0.4482422,0.2255859-0.6142578
			c0.2167969-0.2285156,0.5576172-0.3134766,0.8583984-0.2148438c2.7998047,0.9287109,7.5947266,2.6699219,8.2529297,3.8945313
			c0.09375,0.1748047,0.0761719,0.3535156,0.0556641,0.4736328c-0.0507813,0.2890625-0.1787109,0.859375-0.4667969,1.4394531
			C50.4570313,52.9482422,50.1748047,53.1210938,49.859375,53.1210938z M42.4912109,47.3193359
			c-0.0869141,0-0.171875,0.0371094-0.2333984,0.1025391c-0.0625,0.0654297-0.09375,0.1513672-0.0888672,0.2431641
			l0.0849609,1.6464844c0.0068359,0.1425781,0.1142578,0.2666016,0.2617188,0.3007813
			c4,0.9199219,6.1904297,2.2382813,7.140625,2.9414063c0.1591797,0.1210938,0.4052734,0.0644531,0.4912109-0.1064453
			c0.2597656-0.5234375,0.3759766-1.0410156,0.421875-1.3027344c0.0126953-0.0732422,0.0117188-0.1230469-0.0039063-0.1523438
			c-0.4082031-0.7587891-3.4628906-2.1601563-7.9707031-3.6552734
			C42.5605469,47.3251953,42.5253906,47.3193359,42.4912109,47.3193359z"/>
	</g>
	<g>
		<linearGradient id="SVGID_16_" gradientUnits="userSpaceOnUse" x1="43.9166679" y1="47.3955574" x2="43.9166679" y2="48.6528244">
			<stop  offset="0" style="stop-color:#FAEE00"/>
			<stop  offset="1" style="stop-color:#F39800"/>
		</linearGradient>
		<path style="fill:url(#SVGID_16_);" d="M44.9069557,48.3506622c-0.0977936,0.2966347-0.6204376,0.3909378-1.1673584,0.2106361
			c-0.5469208-0.1803055-0.9110107-0.5669403-0.813221-0.8635788c0.0977936-0.2966347,0.6204376-0.3909378,1.1673584-0.2106361
			C44.6406555,47.6673889,45.0047493,48.0540237,44.9069557,48.3506622z"/>
		<path style="fill:#231815;" d="M44.2783203,48.7773438c-0.1835938,0-0.3837891-0.0332031-0.578125-0.0966797
			c-0.3945313-0.1308594-0.7207031-0.3730469-0.8505859-0.6328125c-0.0673828-0.1337891-0.0820313-0.2685547-0.0410156-0.3896484
			c0.0791016-0.2431641,0.3583984-0.3876953,0.7460938-0.3876953c0.1845703,0,0.3837891,0.0341797,0.578125,0.0976563
			c0.2841797,0.09375,0.5322266,0.2431641,0.7001953,0.4208984c0.1865234,0.1982422,0.2548828,0.4111328,0.1933594,0.6005859
			C44.9462891,48.6328125,44.6669922,48.7773438,44.2783203,48.7773438z M43.5546875,47.5205078
			c-0.2666016,0-0.4658203,0.0849609-0.5087891,0.2158203c-0.0195313,0.0585938-0.0107422,0.125,0.0263672,0.2001953
			c0.1005859,0.1992188,0.3779297,0.3974609,0.7060547,0.5058594c0.4550781,0.1503906,0.9414063,0.0800781,1.0097656-0.1308594
			c0.0322266-0.0966797-0.0175781-0.2246094-0.1367188-0.3505859c-0.1396484-0.1484375-0.3515625-0.2744141-0.5966797-0.3544922
			C43.8857422,47.5498047,43.7128906,47.5205078,43.5546875,47.5205078z"/>
	</g>
	<g>
		<linearGradient id="SVGID_17_" gradientUnits="userSpaceOnUse" x1="49.542717" y1="49.5522423" x2="49.542717" y2="51.019783">
			<stop  offset="0" style="stop-color:#FAEE00"/>
			<stop  offset="1" style="stop-color:#F39800"/>
		</linearGradient>
		<path style="fill:url(#SVGID_17_);" d="M50.42453,50.8424797c-0.1666832,0.2641411-0.6966133,0.2291336-1.1836281-0.0781937
			c-0.487011-0.3073273-0.7466888-0.7705994-0.5800018-1.0347404c0.166687-0.2641449,0.6966133-0.2291336,1.1836281,0.0781937
			S50.591217,50.5783348,50.42453,50.8424797z"/>
		<path style="fill:#231815;" d="M50.015625,51.1445313c-0.2578125,0-0.5644531-0.0996094-0.8408203-0.2744141
			c-0.5537109-0.3496094-0.8261719-0.8798828-0.6191406-1.2070313c0.1992188-0.3183594,0.8261719-0.296875,1.3554688,0.0390625
			c0.5527344,0.3496094,0.8251953,0.8798828,0.6191406,1.2070313C50.4345703,51.0615234,50.2509766,51.1445313,50.015625,51.1445313
			z M49.0703125,49.6777344c-0.0849609,0-0.2382813,0.0146484-0.3037109,0.1181641
			c-0.1113281,0.1767578,0.0839844,0.5742188,0.5410156,0.8632813c0.2382813,0.1494141,0.4960938,0.2353516,0.7080078,0.2353516
			c0.0849609,0,0.2382813-0.015625,0.3037109-0.1181641c0.1103516-0.1767578-0.0849609-0.5742188-0.5410156-0.8632813
			C49.5400391,49.7636719,49.2822266,49.6777344,49.0703125,49.6777344z"/>
	</g>
</g>
<g>
	<g>
		<linearGradient id="SVGID_18_" gradientUnits="userSpaceOnUse" x1="17.6272335" y1="47.0693207" x2="17.6272335" y2="52.8714104">
			<stop  offset="0" style="stop-color:#3E3A39"/>
			<stop  offset="1" style="stop-color:#231815"/>
		</linearGradient>
		<path style="fill:url(#SVGID_18_);" d="M13.1844645,51.1871948c0.046545,0.2667313,0.1677542,0.8151093,0.4444809,1.3718567
			c0.1593542,0.3206062,0.5759354,0.4093857,0.8635292,0.1961479c0.888792-0.6590042,3.0509367-1.9801216,7.0489149-2.9002113
			c0.2510929-0.0577888,0.4416027-0.2736626,0.4549294-0.5309753l0.0852222-1.6455994
			c0.0210438-0.4063416-0.3695374-0.7074394-0.7556763-0.5791702c-2.0656948,0.6862144-7.4665461,2.5756798-8.1115713,3.7755127
			C13.162919,50.9703178,13.1658134,51.0803108,13.1844645,51.1871948z"/>
		<path style="fill:#231815;" d="M14.1411133,53.1210938c-0.0004883,0-0.0004883,0-0.0004883,0
			c-0.3154297,0-0.5976563-0.1728516-0.7358398-0.4511719c-0.2890625-0.5820313-0.4165039-1.1513672-0.4663086-1.4394531
			c-0.0209961-0.1201172-0.0375977-0.2998047,0.0556641-0.4736328c0.6572266-1.2236328,5.4526367-2.9648438,8.2529297-3.8945313
			c0.2998047-0.0996094,0.6416016-0.0136719,0.8579102,0.2148438c0.1577148,0.1660156,0.2382813,0.3837891,0.2260742,0.6142578
			l-0.0854492,1.6455078c-0.0185547,0.3642578-0.284668,0.6777344-0.6474609,0.7617188
			c-3.9121094,0.9003906-6.0380859,2.1767578-6.956543,2.8574219
			C14.4956055,53.0644531,14.3227539,53.1210938,14.1411133,53.1210938z M21.5087891,47.3193359
			c-0.034668,0-0.0698242,0.0058594-0.1040039,0.0175781c-4.5083008,1.4960938-7.5620117,2.8974609-7.9702148,3.65625
			c-0.0151367,0.0283203-0.0166016,0.078125-0.003418,0.1513672c0.0449219,0.2607422,0.1601563,0.7773438,0.4213867,1.3027344
			c0.0854492,0.171875,0.3325195,0.2275391,0.4907227,0.1074219c0.9506836-0.7041016,3.1420898-2.0224609,7.1420898-2.9423828
			c0.1459961-0.0341797,0.2539063-0.1582031,0.2612305-0.3007813l0.0854492-1.6455078
			c0.0043945-0.0917969-0.0273438-0.1787109-0.0893555-0.2441406
			C21.6811523,47.3564453,21.5957031,47.3193359,21.5087891,47.3193359z"/>
	</g>
	<g>
		<linearGradient id="SVGID_19_" gradientUnits="userSpaceOnUse" x1="20.083334" y1="47.3955574" x2="20.083334" y2="48.6528244">
			<stop  offset="0" style="stop-color:#FAEE00"/>
			<stop  offset="1" style="stop-color:#F39800"/>
		</linearGradient>
		<path style="fill:url(#SVGID_19_);" d="M19.0930443,48.3506622c0.0977917,0.2966347,0.6204357,0.3909378,1.1673565,0.2106361
			c0.5469227-0.1803055,0.9110146-0.5669403,0.813221-0.8635788c-0.0977917-0.2966347-0.6204357-0.3909378-1.1673565-0.2106361
			C19.3593426,47.6673889,18.9952526,48.0540237,19.0930443,48.3506622z"/>
		<path style="fill:#231815;" d="M19.7211914,48.7773438L19.7211914,48.7773438
			c-0.3876953,0-0.6665039-0.1445313-0.746582-0.3876953c-0.0400391-0.1210938-0.0258789-0.2568359,0.0419922-0.390625
			c0.1308594-0.2597656,0.456543-0.5009766,0.8505859-0.6308594c0.1938477-0.0634766,0.394043-0.0976563,0.5786133-0.0976563
			c0.387207,0,0.6665039,0.1445313,0.746582,0.3876953c0.1210938,0.3681641-0.2709961,0.8164063-0.8930664,1.0224609
			C20.1049805,48.7441406,19.9052734,48.7773438,19.7211914,48.7773438z M20.4458008,47.5205078
			c-0.1582031,0-0.3310547,0.0292969-0.5004883,0.0859375c-0.328125,0.1074219-0.6049805,0.3056641-0.7055664,0.5048828
			c-0.0375977,0.0751953-0.046875,0.1416016-0.027832,0.2001953c0.043457,0.1308594,0.2431641,0.2158203,0.5092773,0.2158203l0,0
			c0.1582031,0,0.3310547-0.0292969,0.5-0.0849609c0.5136719-0.1689453,0.7988281-0.5078125,0.7338867-0.7060547
			C20.9116211,47.6054688,20.7119141,47.5205078,20.4458008,47.5205078z"/>
	</g>
	<g>
		<linearGradient id="SVGID_20_" gradientUnits="userSpaceOnUse" x1="14.4572849" y1="49.5522423" x2="14.4572849" y2="51.019783">
			<stop  offset="0" style="stop-color:#FAEE00"/>
			<stop  offset="1" style="stop-color:#F39800"/>
		</linearGradient>
		<path style="fill:url(#SVGID_20_);" d="M13.5754681,50.8424797c0.166687,0.2641411,0.6966152,0.2291336,1.183629-0.0781937
			s0.7466908-0.7705994,0.5800037-1.0347404c-0.1666861-0.2641449-0.6966143-0.2291336-1.1836281,0.0781937
			S13.408782,50.5783348,13.5754681,50.8424797z"/>
		<path style="fill:#231815;" d="M13.9848633,51.1445313L13.9848633,51.1445313
			c-0.2363281,0-0.4189453-0.0830078-0.5146484-0.2353516c-0.2070313-0.3271484,0.0649414-0.8574219,0.6181641-1.2070313
			c0.53125-0.3349609,1.1567383-0.3574219,1.355957-0.0390625c0.2070313,0.3271484-0.0649414,0.8574219-0.6181641,1.2070313
			C14.5488281,51.0449219,14.2421875,51.1445313,13.9848633,51.1445313z M14.9291992,49.6777344
			c-0.2119141,0-0.4697266,0.0859375-0.7070313,0.2353516c-0.4575195,0.2890625-0.6518555,0.6865234-0.5410156,0.8632813
			c0.0654297,0.1025391,0.2182617,0.1181641,0.3037109,0.1181641c0.2114258,0,0.4697266-0.0859375,0.7080078-0.2353516
			c0.4570313-0.2890625,0.6513672-0.6865234,0.5405273-0.8632813
			C15.1679688,49.6923828,15.0146484,49.6777344,14.9291992,49.6777344z"/>
	</g>
</g>
</svg>
