<?xml version="1.0" encoding="utf-8"?>
<!-- Generator: Adobe Illustrator 18.0.0, SVG Export Plug-In . SVG Version: 6.00 Build 0)  -->
<!DOCTYPE svg PUBLIC "-//W3C//DTD SVG 1.1//EN" "http://www.w3.org/Graphics/SVG/1.1/DTD/svg11.dtd">
<svg version="1.1" id="レイヤー_1" xmlns="http://www.w3.org/2000/svg" xmlns:xlink="http://www.w3.org/1999/xlink" x="0px"
	 y="0px" width="64px" height="64px" viewBox="0 0 64 64" style="enable-background:new 0 0 64 64;" xml:space="preserve">
<g>
	<path style="fill:#FFFFFF;" d="M31.4895,51.7187996c13.299799,0,17.8300991-7.8164978,19.7822018-14.032299l-4.4394035-2.0429001
		c0,0-7.8603973,3.9969978-15.3427982,3.9969978c-7.4818993,0-14.7646008-3.9969978-14.7646008-3.9969978l-3.9965992,1.3339005
		C12.7283001,36.9775009,18.4123993,51.7187996,31.4895,51.7187996z"/>
	<path style="fill:#9C9C9D;" d="M31.8666992,46.7666016c-0.4384766,0-0.8764648-0.0166016-1.3154297-0.0498047
		c-9.6538086-0.7255859-15.640625-9.1640625-15.890625-9.5224609l1.6401367-1.1445313
		c0.0561523,0.0800781,5.7163086,8.0283203,14.4165039,8.6738281c5.8725586,0.4423828,11.8208008-2.4921875,17.7084961-8.7011719
		l1.4511719,1.3769531C43.9765625,43.6201172,37.9248047,46.7666016,31.8666992,46.7666016z"/>
	<path style="fill:#440E00;" d="M31.4892578,52.96875c-13.7758789,0-19.6821289-14.9072266-19.9272461-15.5410156
		c-0.1225586-0.3193359-0.1098633-0.6738281,0.0356445-0.9833984c0.1455078-0.3085938,0.4111328-0.5439453,0.7348633-0.6523438
		l3.996582-1.3339844c0.3300781-0.109375,0.6923828-0.0791016,0.996582,0.0898438
		c0.0703125,0.0380859,7.1040039,3.8427734,14.1635742,3.8427734c7.0839844,0,14.7001953-3.8232422,14.7763672-3.8613281
		c0.3408203-0.1738281,0.7421875-0.1806641,1.0888672-0.0214844l4.4394531,2.0429688
		c0.5712891,0.2636719,0.8583984,0.9101563,0.6699219,1.5107422C50.2089844,45.2412109,42.6835938,52.96875,31.4892578,52.96875z
		 M14.4370117,37.7255859C16.090332,41.1064453,21.5668945,50.46875,31.4892578,50.46875
		c9.3945313,0,15.8671875-6.1005859,18.2246094-12.1230469l-2.8681641-1.3193359
		c-1.9609375,0.9228516-8.7294922,3.8642578-15.3564453,3.8642578c-6.671875,0-13.0668945-2.9794922-14.8720703-3.8935547
		L14.4370117,37.7255859z"/>
</g>
<g>
	<g>
		<polygon style="fill:#FCEE21;" points="47.5664253,22.474226 52.0624809,18.045929 45.8221893,17.1060715 43,11.4616594 
			40.1778107,17.1060715 33.9375191,18.045929 38.4335747,22.474226 37.3990974,28.6995068 43,25.7919331 48.6009026,28.6995068 		
			"/>
		<path style="fill:#330100;" d="M49.9150391,30.5087891L43,26.9189453l-6.9150391,3.5898438l1.2773438-7.6865234
			l-5.5512695-5.4672852l7.7045898-1.1606445L43,9.2255859l3.484375,6.96875l7.7050781,1.1606445l-5.5517578,5.4672852
			L49.9150391,30.5087891z M43,24.6650391l4.2861328,2.2255859l-0.7910156-4.7646484l3.4404297-3.3891602l-4.7753906-0.7192383
			L43,13.6972656l-2.1601563,4.3203125l-4.7753906,0.7192383l3.4404297,3.3891602l-0.7910156,4.7646484L43,24.6650391z"/>
	</g>
	<g>
		<polygon style="fill:#FCEE21;" points="16.4335728,22.474226 11.9375191,18.045929 18.1778126,17.1060715 21,11.4616594 
			23.8221874,17.1060715 30.0624809,18.045929 25.5664272,22.474226 26.6009026,28.6995068 21,25.7919331 15.3990984,28.6995068 		
			"/>
		<path style="fill:#330100;" d="M27.9155273,30.5087891L21,26.9189453l-6.9155273,3.5898438l1.2773438-7.6865234
			l-5.5507813-5.4672852l7.7045898-1.1606445L21,9.2255859l3.484375,6.96875l7.7045898,1.1606445l-5.5507813,5.4672852
			L27.9155273,30.5087891z M21,24.6650391l4.2866211,2.2255859l-0.7919922-4.7646484l3.4414063-3.3891602l-4.7758789-0.7192383
			L21,13.6972656l-2.1601563,4.3203125l-4.7758789,0.7192383l3.4414063,3.3891602l-0.7919922,4.7646484L21,24.6650391z"/>
	</g>
</g>
</svg>
