<?xml version="1.0" encoding="UTF-8" standalone="no"?>
<!-- Generator: Adobe Illustrator 18.0.0, SVG Export Plug-In . SVG Version: 6.00 Build 0)  -->

<svg
   xmlns:dc="http://purl.org/dc/elements/1.1/"
   xmlns:cc="http://creativecommons.org/ns#"
   xmlns:rdf="http://www.w3.org/1999/02/22-rdf-syntax-ns#"
   xmlns:svg="http://www.w3.org/2000/svg"
   xmlns="http://www.w3.org/2000/svg"
   xmlns:sodipodi="http://sodipodi.sourceforge.net/DTD/sodipodi-0.dtd"
   xmlns:inkscape="http://www.inkscape.org/namespaces/inkscape"
   version="1.1"
   id="レイヤー_1"
   x="0px"
   y="0px"
   width="64px"
   height="64px"
   viewBox="0 0 64 64"
   style="enable-background:new 0 0 64 64;"
   xml:space="preserve"
   sodipodi:docname="2.svg"
   inkscape:version="0.92.2 (5c3e80d, 2017-08-06)"><metadata
     id="metadata29"><rdf:RDF><cc:Work
         rdf:about=""><dc:format>image/svg+xml</dc:format><dc:type
           rdf:resource="http://purl.org/dc/dcmitype/StillImage" /><dc:title /></cc:Work></rdf:RDF></metadata><defs
     id="defs27" /><sodipodi:namedview
     pagecolor="#ffffff"
     bordercolor="#666666"
     borderopacity="1"
     objecttolerance="10"
     gridtolerance="10"
     guidetolerance="10"
     inkscape:pageopacity="0"
     inkscape:pageshadow="2"
     inkscape:window-width="1920"
     inkscape:window-height="1017"
     id="namedview25"
     showgrid="false"
     inkscape:zoom="10.429825"
     inkscape:cx="-4.3356637"
     inkscape:cy="40.000784"
     inkscape:window-x="1920"
     inkscape:window-y="26"
     inkscape:window-maximized="1"
     inkscape:current-layer="g20" /><g
     id="g22"><g
       id="g20"><path
         inkscape:connector-curvature="0"
         style="fill:#842c38"
         d="m 54.030273,31.885742 c 0,12.311524 -9.795898,22.296875 -21.880859,22.296875 -12.084473,0 -21.881348,-9.985351 -21.881348,-22.296875 8.834473,-0.255859 9.796875,3.19336 21.881348,3.19336 12.084961,0 12.084961,-3.19336 21.880859,-3.19336 z"
         id="path39" /><path
         inkscape:connector-curvature="0"
         style="fill:#ea7c91"
         d="m 49.140625,45.932617 c 1.526367,-4.136719 -9.725586,-7.917969 -17.218262,-7.917969 -7.491211,0 -15.117676,4.358399 -15.117676,8.767579 0,4.409179 7.626465,7.201171 15.117676,7.201171 7.492676,0 15.441895,-3.237304 17.218262,-8.050781 z"
         id="path41" /><path
         inkscape:connector-curvature="0"
         style="fill:#e42a56"
         d="m 32.972656,54.182617 c 0,0 -10.394043,1.063477 -14.69873,-4.808594 -4.304688,-5.87207 33.904785,-6.466796 29.819824,-1.964843 -5.109375,5.632812 -15.121094,6.773437 -15.121094,6.773437 z"
         id="path43" /><path
         inkscape:connector-curvature="0"
         style="fill:#330100"
         d="m 32.149414,55.182617 c -12.616699,0 -22.8813476,-10.451172 -22.8813476,-23.296875 v -1 h 0.9999996 c 4.785157,0 7.287598,0.734375 9.936524,1.511719 2.816894,0.827148 5.729492,1.681641 11.944824,1.681641 6.21582,0 9.128906,-0.854493 11.945312,-1.681641 2.649415,-0.777344 5.150391,-1.511719 9.935547,-1.511719 h 1 v 1 c 0,12.845703 -10.264648,23.296875 -22.880859,23.296875 z m -20.85791,-22.28418 c 0.520508,11.274415 9.676758,20.28418 20.85791,20.28418 11.180664,0 20.336914,-9.009765 20.857422,-20.28418 -3.847656,0.09668 -6.039063,0.740235 -8.348633,1.417969 -2.952148,0.866211 -6.005859,1.762696 -12.508789,1.762696 -6.502441,0 -9.555664,-0.896485 -12.508301,-1.762696 -2.30957,-0.677734 -4.501465,-1.321289 -8.349609,-1.417969 z"
         id="path45" /><path
         sodipodi:type="star"
         style="color:#000000;clip-rule:nonzero;display:inline;overflow:visible;visibility:visible;opacity:1;isolation:auto;mix-blend-mode:normal;color-interpolation:sRGB;color-interpolation-filters:linearRGB;solid-color:#000000;solid-opacity:1;fill:#0095d9;fill-opacity:1;fill-rule:nonzero;stroke:none;stroke-width:3;stroke-linecap:butt;stroke-linejoin:round;stroke-miterlimit:4;stroke-dasharray:none;stroke-dashoffset:0;stroke-opacity:1;marker:none;color-rendering:auto;image-rendering:auto;shape-rendering:auto;text-rendering:auto;enable-background:accumulate"
         id="path4534"
         sodipodi:sides="5"
         sodipodi:cx="20.944437"
         sodipodi:cy="20.58889"
         sodipodi:r1="10.412465"
         sodipodi:r2="4.1649861"
         sodipodi:arg1="0.92913684"
         sodipodi:arg2="1.5574554"
         inkscape:flatsided="false"
         inkscape:rounded="0"
         inkscape:randomized="0"
         d="M 27.176565,28.930354 21,24.753506 l -6.062933,4.340144 2.063755,-7.164979 -6.001271,-4.425014 7.452035,-0.251352 2.353943,-7.074953 2.541856,7.009634 7.456089,0.05245 -5.881082,4.583545 z"
         inkscape:transform-center-x="0.72716132"
         inkscape:transform-center-y="-0.49036656"
         transform="matrix(1.1916173,-0.2101143,0.2101143,1.1916173,-8.1557621,0.48189492)" /><path
         sodipodi:type="star"
         style="color:#000000;clip-rule:nonzero;display:inline;overflow:visible;visibility:visible;opacity:1;isolation:auto;mix-blend-mode:normal;color-interpolation:sRGB;color-interpolation-filters:linearRGB;solid-color:#000000;solid-opacity:1;fill:#0095d9;fill-opacity:1;fill-rule:nonzero;stroke:none;stroke-width:3;stroke-linecap:butt;stroke-linejoin:round;stroke-miterlimit:4;stroke-dasharray:none;stroke-dashoffset:0;stroke-opacity:1;marker:none;color-rendering:auto;image-rendering:auto;shape-rendering:auto;text-rendering:auto;enable-background:accumulate"
         id="path4534-3"
         sodipodi:sides="5"
         sodipodi:cx="42.944435"
         sodipodi:cy="20.58889"
         sodipodi:r1="10.412465"
         sodipodi:r2="4.1649861"
         sodipodi:arg1="0.92913684"
         sodipodi:arg2="1.5574554"
         inkscape:flatsided="false"
         inkscape:rounded="0"
         inkscape:randomized="0"
         d="m 49.176563,28.930354 -6.176565,-4.176848 -6.062933,4.340144 2.063755,-7.164979 -6.001271,-4.425014 7.452035,-0.251352 2.353943,-7.074953 2.541856,7.009634 7.456089,0.05245 -5.881082,4.583545 z"
         inkscape:transform-center-x="-0.62485628"
         inkscape:transform-center-y="-0.59323352"
         transform="matrix(1.1916173,0.21011429,-0.21011428,1.1916173,-3.4726223,-13.23888)" /></g></g></svg>