<?xml version="1.0" encoding="utf-8"?>
<!-- Generator: Adobe Illustrator 15.0.2, SVG Export Plug-In . SVG Version: 6.00 Build 0)  -->
<!DOCTYPE svg PUBLIC "-//W3C//DTD SVG 1.1//EN" "http://www.w3.org/Graphics/SVG/1.1/DTD/svg11.dtd">
<svg version="1.1" id="レイヤー_1" xmlns="http://www.w3.org/2000/svg" xmlns:xlink="http://www.w3.org/1999/xlink" x="0px"
	 y="0px" width="64px" height="64px" viewBox="0 0 64 64" style="enable-background:new 0 0 64 64;" xml:space="preserve">
<g>
	<g style="opacity:0.5;">
		<ellipse style="fill:#B3B3B3;" cx="51.6064453" cy="60.7695313" rx="8.0615234" ry="2.0488281"/>
	</g>
	<path style="fill:#FFE1D2;stroke:#3F0F02;stroke-width:0.5;stroke-miterlimit:3;" d="M34.4716797,24.8999023l-7.1381836-2.5131836
		L25.1352539,13.53125l0.5009766-1.2949219c0,0,2.1733398-1.2421875-0.3203125-2.1479492
		c0,0-1.4560547-4.0014648-4.6513672-1.6152344c-3.1958008,2.3862305,0.6855469,5.5288086,0.6855469,5.5288086l1.6494141,1.15625
		l0.3476563,9.7148438l10.3032227,6.793457L34.4716797,24.8999023z"/>
	<g>
		<path style="fill:#FFE1D2;stroke:#3F0F02;stroke-width:0.5;stroke-miterlimit:3;" d="M47.9892578,55.4169922L48.6152344,58.25
			c0,0-1.2070313,2.0566406-2.1376953,2.1396484S46.1894531,62.1669922,47.9892578,61.75s2.7509766-2.6669922,2.7509766-2.6669922
			l-0.8183594-2.484375L47.9892578,55.4169922z"/>
		<path style="fill:#FFE1D2;stroke:#3F0F02;stroke-width:0.5;stroke-miterlimit:3;" d="M51.3496094,55.4169922l0.6894531,3.2001953
			c0,0,1.2109375,2.8486328,2.1054688,3.1992188s1.9130859-0.9833984,1.4453125-1.7333984s-1.4453125-3-1.4453125-3L53.5283203,54.5
			L51.3496094,55.4169922z"/>
		<path style="fill:#512701;" d="M35.0996094,15.7421875l-5.644043,5.1484375c0,0,0.5834961,3.1088867,4.7495117,3.2758789
			c4.1669922,0.1669922,14.1533203,5.7783203,14.1533203,5.7783203l5.7861328-1.8613281l-3.4970703-8.1977539L35.0996094,15.7421875
			z"/>
		<path style="fill:#683A0C;stroke:#260F04;stroke-width:0.5;stroke-miterlimit:3;" d="M31.8647461,6.2216797
			c0,0,6.3110352-5.8486328,10.6567383-2.984375s6.5820313,8.28125,8.8535156,12.0019531s0.984375,7.8774414,0.984375,7.8774414
			L31.8647461,6.2216797z"/>
		<path style="fill:#FFE1D2;stroke:#3F0F02;stroke-width:0.5;stroke-miterlimit:3;" d="M58.1513672,30.8105469l-9.7929688-3.6030273
			l2.5126953,6.1088867l4.71875,0.3574219l-3.3544922,5.5615234l-1.5878906,1.1767578l0.7324219,3.7050781
			c0,0,2.9658203-0.5927734,4.0683594-1.7353516c0.9667969-1.0019531-0.7646484-1.6337891-1.2050781-1.7734375l-0.0771484-0.234375
			l0.0302734-0.28125c0.5898438-0.5175781,3.5566406-3.5888672,4.7939453-5.4052734
			C60.3447266,32.7001953,58.1513672,30.8105469,58.1513672,30.8105469z"/>
		<path style="fill:#FFE1D2;stroke:#3F0F02;stroke-width:0.5;stroke-miterlimit:3;" d="M53.0185547,33.5830078
			C52.5683594,32.4926758,51.9033203,32,50.6474609,31.25c0-2.3173828-0.4970703-3.4916992-0.4970703-3.4916992
			l-2.7705078-0.8515625l-9.234375,0.1489258l-0.3837891,0.7236328l-0.8378906-0.7329102l-1.1162109,5.8149414l1.3496094,1.3486328
			c0.0058594-0.0029297-1.875,6.6152344,4.5839844,7.4941406L42.2939453,43.25l0.2900391,2.6806641l5.7744141,1.4863281
			l4.0859375-4.2451172l-1.0166016-2.5048828C51.4277344,40.6669922,54.6357422,37.5,53.0185547,33.5830078z"/>
		<path style="stroke:#000000;stroke-width:0.5;stroke-miterlimit:3;" d="M41.7412109,41.7041016L42.2939453,43.25
			l-0.4941406,1.9042969l10.5097656-2.8740234l-0.8818359-1.6132813c0,0,3.2080078-3.1669922,1.5908203-7.0839844
			C52.5683594,32.4926758,51.9033203,32,50.6474609,31.25c2.0751953-1.2915039,2.0751953-3.3334961,2.0751953-3.3334961
			l-5.3427734-1.0097656l-9.234375,0.1489258l-0.3837891,0.7236328l-3.2861328-2.90625L31.6933594,32l5.4638672,2.2099609
			C37.1630859,34.2070313,35.2822266,40.8251953,41.7412109,41.7041016z"/>
		<path style="fill:#FFE1D2;stroke:#000000;stroke-width:0.5;stroke-miterlimit:3;" d="M40.6220703,31.4165039l-0.3251953-3.6220703
			l5.5742188-1.230957l1.5263672,2.855957c0,0-0.4101563,4.2543945-1.7753906,5.5942383
			C41.8457031,35.890625,40.6220703,31.4165039,40.6220703,31.4165039z"/>
		<path style="fill:#FFE1D2;stroke:#3F0F02;stroke-width:0.5;stroke-miterlimit:3;" d="M44.40625,32.3334961
			c0,0-0.4365234,0.9165039,0.375,2.6801758"/>
		<path style="fill:#0E608E;stroke:#260F04;stroke-width:0.5;stroke-miterlimit:3;" d="M42.5839844,45.9306641
			c0,0,0.4863281,3.328125,1.8447266,5.7998047l3.5986328,4.8681641h1.8945313l-1.9326172-5.4775391l1.5498047-0.0380859
			l2.3046875,5.515625h1.9697266l-0.4892578-7.0166016c0,0,0.5058594-4.9101563-0.8798828-6.4101563l-4.4550781,3.1611328
			L42.5839844,45.9306641z"/>
		<linearGradient id="SVGID_1_" gradientUnits="userSpaceOnUse" x1="38.3486328" y1="7.2949219" x2="40.2657089" y2="22.8790512">
			<stop  offset="0" style="stop-color:#FF3F3F"/>
			<stop  offset="1" style="stop-color:#FFD1BF"/>
		</linearGradient>
		<path style="fill:url(#SVGID_1_);stroke:#3F0F02;stroke-width:0.5;stroke-miterlimit:3;" d="M30.8481445,15.9775391
			c0,0,1.8520508,3.574707,1.5698242,4.800293S30.0449219,25.3613281,35.25,27.0556641s5.7783203,2.6040039,7.3847656,2.8754883
			s5.7480469-3.5083008,5.9091797-4.8447266s0-5.5219727,0-5.5219727L44.1669922,7.4702148l-9.8925781-0.6801758
			C34.2744141,6.7900391,29.2783203,11.1772461,30.8481445,15.9775391z"/>
		<path style="fill:#512701;" d="M32.046875,13.5166016c0,0,1.8251953-3,4.1357422-2.3535156
			c0,0,1.7802734-1.5146484,7.9785156,0.9936523l-0.4179688-2.5566406l-6.5859375-3.4165039l-4.7392578,0.706543
			L32.046875,13.5166016z"/>
		<g>
			<path style="fill:#FFFFFF;" d="M32.4179688,20.777832c0,0,3.5761719,2.2856445,5.7275391-0.1313477l0.1816406-1.0820313
				l-1.1826172-0.7548828l-4.6118164,0.2275391C32.5327148,19.0371094,31.1259766,19.8994141,32.4179688,20.777832z"/>
			<path style="fill:#FFFFFF;" d="M45.7128906,19.5644531c-1.921875,2.5825195-5.046875,0.5981445-5.046875,0.5981445
				l-0.6162109-0.6152344L40.2890625,18.25l4.5458984-0.6723633C44.8349609,17.5776367,46.6943359,18.2456055,45.7128906,19.5644531
				z"/>
			<g style="display:none;">
				<defs>
					<path id="SVGID_2_" d="M32.4179688,20.777832c0,0,3.5761719,2.2856445,5.7275391-0.1313477l0.1816406-1.0820313
						l-1.1826172-0.7548828l-4.6118164,0.2275391C32.5327148,19.0371094,31.1259766,19.8994141,32.4179688,20.777832z"/>
				</defs>
				<clipPath id="SVGID_3_" style="display:inline;">
					<use xlink:href="#SVGID_2_"  style="overflow:visible;"/>
				</clipPath>
				<polygon style="display:inline;clip-path:url(#SVGID_3_);fill:#AEECFF;" points="37.6748047,17.2524414 33.7099609,22.84375 
					40.0498047,23.5834961 39.4091797,17.8120117 				"/>
			</g>
			<g style="display:none;">
				<defs>
					<path id="SVGID_4_" d="M45.7128906,19.5644531c-1.921875,2.5825195-5.046875,0.5981445-5.046875,0.5981445
						l-0.6162109-0.6152344L40.2890625,18.25l4.5458984-0.6723633
						C44.8349609,17.5776367,46.6943359,18.2456055,45.7128906,19.5644531z"/>
				</defs>
				<clipPath id="SVGID_5_" style="display:inline;">
					<use xlink:href="#SVGID_4_"  style="overflow:visible;"/>
				</clipPath>
				<polygon style="display:inline;clip-path:url(#SVGID_5_);fill:#AEECFF;" points="45.9990234,15.9433594 42.5839844,21.4077148 
					47.9892578,21.7558594 47.4462891,16.53125 				"/>
			</g>
		</g>
		<path style="fill:#683A0C;stroke:#260F04;stroke-width:0.5;stroke-miterlimit:3;" d="M33.2041016,8.9331055
			c0,0-0.6176758,8.5292969-1.6650391,10.6313477s0.7216797,9.2919922,6.1357422,10.3803711
			c0,0-11.3027344,0.7216797-9.5527344-8.2885742c0.9785156-5.0390625,0.7861328-6.3989258,0.902832-10.3662109
			c0.1665039-5.6723633,2.8398438-8,7.4643555-6.0834961l-0.3066406,5.2036133l-1.7402344-0.8618164v0.9848633L33.2041016,8.9331055
			z"/>
		<path style="fill:none;stroke:#000000;stroke-width:0.7;stroke-miterlimit:3;" d="M31.8027344,20.7783203
			c0,0-0.5258789-1.7875977,0.7299805-1.7412109c1.2563477,0.0463867,4.6245117-0.2285156,4.6245117-0.2285156l1.1699219,0.7558594
			l1.7226563-0.0170898l0.2470703-1.3178711l4.5380859-0.6518555c0,0,0.9267578,0.0512695,1.2470703,1.230957l1.9072266-0.8618164"
			/>
		<g>
			<path style="fill:#FFFFFF;" d="M37.5888672,26.5019531c0,0,5.2998047-4.5874023,6.7080078-3.8779297
				s2.0107422,2.953125,1.2929688,5.5395508c0,0-2.9296875,1.3295898-5.5400391,0.4926758
				C40.0498047,28.65625,39.8886719,26.4204102,37.5888672,26.5019531z"/>
		</g>
		<g>
			<defs>
				<path id="SVGID_6_" d="M37.5888672,26.5019531c0,0,5.2998047-4.5874023,6.7080078-3.8779297
					s2.0107422,2.953125,1.2929688,5.5395508c0,0-2.9296875,1.3295898-5.5400391,0.4926758
					C40.0498047,28.65625,39.8886719,26.4204102,37.5888672,26.5019531z"/>
			</defs>
			<clipPath id="SVGID_7_">
				<use xlink:href="#SVGID_6_"  style="overflow:visible;"/>
			</clipPath>
			<path style="clip-path:url(#SVGID_7_);fill:#FC86B7;" d="M41.7412109,30.8457031
				c-3.0742188-0.1791992-2.5751953-3.3452148-0.9082031-4.762207s5.9267578-2.8535156,6.546875,0.8232422
				S41.7412109,30.8457031,41.7412109,30.8457031z"/>
		</g>
		<g>
			<path style="fill:none;stroke:#BC4671;stroke-width:0.5;stroke-miterlimit:3;" d="M37.5888672,26.5019531
				c0,0,5.2998047-4.5874023,6.7080078-3.8779297s2.0107422,2.953125,1.2929688,5.5395508
				c0,0-2.9296875,1.3295898-5.5400391,0.4926758C40.0498047,28.65625,39.8886719,26.4204102,37.5888672,26.5019531z"/>
		</g>
		<path style="fill:#442F25;" d="M39.4091797,17.8120117l0.7597656,0.796875c0,0,3.0537109-2.871582,3.2304688-4.1547852"/>
		<path style="fill:#442F25;" d="M38.0068359,18.3012695l-4.3564453-2.3579102
			C33.6503906,15.9433594,37.6279297,20.2558594,38.0068359,18.3012695z"/>
		<ellipse style="fill:#ED858C;" cx="33.7099609" cy="22.3862305" rx="1.6630859" ry="0.7304688"/>
		
			<ellipse transform="matrix(0.989814 -0.1423665 0.1423665 0.989814 -2.4669647 6.8129673)" style="fill:#ED858C;" cx="46.3779297" cy="20.6464844" rx="1.6634281" ry="0.730655"/>
		<path style="fill:#683A0C;stroke:#260F04;stroke-width:0.5;stroke-miterlimit:3;" d="M36.1826172,10.4101563l1.7802734-0.8618164
			l0.4345703,0.8618164l2.0927734-0.8618164l-0.3691406,0.9848633l2.5849609-0.3696289c0,0,2.3769531,2.4960938,2.5986328,4.7612305
			s2.3105469,7.3632813,5.7011719,9.7924805s-0.8007813,7.262207-1.4775391,9.6010742
			c6.1552734-5.4160156,8.1845703-10.7641602,3.4472656-16.1865234s-5.9150391-7.0917969-7.6845703-10.6616211
			c-1.3623047-2.7480469-3.5429688-5.4990234-8.8017578-2.2636719L36.1826172,10.4101563z"/>
		<polyline style="fill:none;stroke:#E29883;stroke-width:0.5;stroke-miterlimit:3;" points="29.4555664,11.5 
			29.7885742,13.5166016 30.8720703,11.0629883 30.8720703,12.7822266 31.8647461,10.6665039 32.590332,12.7822266 		"/>
		<polyline style="fill:none;stroke:#E29883;stroke-width:0.5;stroke-miterlimit:3;" points="45.0605469,12.0917969 
			47.9892578,15.7421875 46.5244141,12.0917969 48.3583984,13.5166016 46.7099609,10.6665039 48.9130859,12.0917969 
			47.3798828,8.9165039 		"/>
		<path style="fill:#C6001D;" d="M45.5585938,60.8330078c-0.3769531-0.8349609,0.9794922-0.6191406,1.4287109-1
			c0,0,0.7880859,1.0830078,1.6279297,0.5s2.0205078-2.1464844,2.0205078-2.1464844l0.7783203,1.7832031l-0.75,0.9160156
			l-0.625-0.1865234C50.0390625,60.6992188,46.9863281,64,45.5585938,60.8330078z"/>
		<path style="fill:#C6001D;" d="M52.0390625,58.6171875c0,0,2.7666016,2.8671875,2.7998047,0
			c0,0,2.8017578,3.1992188,0.7509766,3.5410156S52.7285156,61.8173828,52.0390625,58.6171875z"/>
		<polygon points="52.0390625,38.3330078 54.7792969,39.5292969 54.1962891,40.0927734 51.4140625,38.9169922 		"/>
	</g>
	<path style="fill:#EFEFEF;stroke:#3F0F02;stroke-width:0.5;stroke-miterlimit:3;" d="M22.6235352,13.3325195
		c-0.7563477,0.7988281-2.0283203,0.8334961-2.8271484,0.0771484l-1.1499023-1.0888672
		c-0.7983398-0.7568359-0.8330078-2.0288086-0.0766602-2.8276367l2.5454102-2.6870117
		c0.7563477-0.7988281,2.0283203-0.8334961,2.8271484-0.0771484l1.1499023,1.0888672
		c0.7983398,0.7568359,0.8330078,2.0288086,0.0766602,2.8276367L22.6235352,13.3325195z"/>
	<g>
		
			<rect x="19.8665695" y="7.6301117" transform="matrix(0.7170733 0.6969977 -0.6969977 0.7170733 13.1910477 -12.4227829)" width="4.0617847" height="4.8135071"/>
		<g>
			<defs>
				
					<rect id="SVGID_8_" x="19.7382507" y="7.968749" transform="matrix(0.717075 0.696996 -0.696996 0.717075 13.2468204 -12.2956486)" width="4.0610943" height="4.4008813"/>
			</defs>
			<clipPath id="SVGID_9_">
				<use xlink:href="#SVGID_8_"  style="overflow:visible;"/>
			</clipPath>
			<polygon style="opacity:0.26;clip-path:url(#SVGID_9_);fill:#FFFFFF;" points="25.5019531,9.9975586 18.059082,10.2080078 
				20.3974609,14.4946289 			"/>
		</g>
	</g>
</g>
</svg>
