<?xml version="1.0" encoding="utf-8"?>
<!-- Generator: Adobe Illustrator 17.0.0, SVG Export Plug-In . SVG Version: 6.00 Build 0)  -->
<!DOCTYPE svg PUBLIC "-//W3C//DTD SVG 1.1//EN" "http://www.w3.org/Graphics/SVG/1.1/DTD/svg11.dtd">
<svg version="1.1" id="レイヤー_1" xmlns="http://www.w3.org/2000/svg" xmlns:xlink="http://www.w3.org/1999/xlink" x="0px"
	 y="0px" width="64px" height="64px" viewBox="0 0 64 64" style="enable-background:new 0 0 64 64;" xml:space="preserve">
<g>
	<g>
		<linearGradient id="SVGID_1_" gradientUnits="userSpaceOnUse" x1="48" y1="60.0282974" x2="48" y2="86">
			<stop  offset="0" style="stop-color:#E14FA1"/>
			<stop  offset="1" style="stop-color:#EB1142"/>
		</linearGradient>
		<path style="fill:url(#SVGID_1_);" d="M52.5,60.0282974c0,0,7.5,0.4862747,7.5,10.3591232S60,86,60,86H36
			c0,0,0-5.7397232,0-15.6125793s7.5-10.3591232,7.5-10.3591232H52.5z"/>
		<path style="fill:#231815;" d="M60.25,86.25h-24.5V70.3876953c0-9.9921875,7.65625-10.6035156,7.7333984-10.6083984
			L52.5,59.7783203c0.09375,0.0058594,7.75,0.6171875,7.75,10.609375V86.25z M36.25,85.75h23.5V70.3876953
			c0-9.5117188-6.9697266-10.0898438-7.2666016-10.1103516L43.5,60.2783203c-0.2802734,0.0195313-7.25,0.5976563-7.25,10.109375
			V85.75z"/>
	</g>
	<g>
		<g>
			<path style="fill:#FFB743;" d="M51.4298248,54.5150337H48h-3.4297829c0,0-0.1688995,4.5424919-0.7493134,5.4737434
				c0,0,1.4800949,1.4278908,4.1790962,1.4278908s4.1790962-1.4278908,4.1790962-1.4278908
				C51.5986824,59.0575256,51.4298248,54.5150337,51.4298248,54.5150337z"/>
			<path style="fill:#231815;" d="M48,61.6669922c-2.7685547,0-4.2890625-1.4365234-4.3525391-1.4980469l-0.1455078-0.140625
				l0.1074219-0.1708984c0.4462891-0.7177734,0.6650391-4.1064453,0.7109375-5.3525391l0.0087891-0.2402344h7.3417969
				l0.0087891,0.2402344c0.0458984,1.2460938,0.2646484,4.6347656,0.7109375,5.3525391l0.1074219,0.1708984l-0.1455078,0.140625
				C52.2890625,60.2304688,50.7685547,61.6669922,48,61.6669922z M44.1328125,59.9257813
				C44.5488281,60.2539063,45.8935547,61.1669922,48,61.1669922s3.4511719-0.9130859,3.8671875-1.2412109
				c-0.4638672-1.1025391-0.6347656-4.2050781-0.6777344-5.1611328h-6.3789063
				C44.7675781,55.7207031,44.5966797,58.8232422,44.1328125,59.9257813z"/>
		</g>
		<g>
			<path style="fill:#FFB743;" d="M55.1811218,47.9815559c0,0,1.8735886-1.2636032,1.8735886,2.5272141
				s-5.6207657,3.7908173-5.6207657,3.7908173L55.1811218,47.9815559z"/>
			<path style="fill:#231815;" d="M51.4335938,54.5498047h-0.4384766l4.0458984-6.7753906
				c0.0947266-0.0664063,2.2636719-1.2890625,2.2636719,2.734375
				C57.3046875,54.5039063,51.4921875,54.5498047,51.4335938,54.5498047z M55.3632813,48.1630859l-3.4775391,5.8642578
				c1.2939453-0.0986328,4.9189453-0.6318359,4.9189453-3.5185547c0-1.5986328-0.3427734-2.4794922-0.9648438-2.4794922
				C55.6328125,48.0292969,55.4453125,48.1181641,55.3632813,48.1630859z"/>
		</g>
		<g>
			<path style="fill:#FFB743;" d="M40.8188782,47.9815559c0,0-1.8735886-1.2636032-1.8735886,2.5272141
				s5.6207657,3.7908173,5.6207657,3.7908173L40.8188782,47.9815559z"/>
			<path style="fill:#231815;" d="M45.0048828,54.5498047h-0.4384766c-0.0585938,0-5.8710938-0.0458984-5.8710938-4.0410156
				c0-4.0234375,2.1679688-2.8007813,2.2636719-2.734375l0.0751953,0.0791016L45.0048828,54.5498047z M40.1601563,48.0292969
				c-0.6220703,0-0.9648438,0.8808594-0.9648438,2.4794922c0,2.8867188,3.625,3.4199219,4.9189453,3.5185547l-3.4775391-5.8632813
				C40.5546875,48.1181641,40.3662109,48.0292969,40.1601563,48.0292969z"/>
		</g>
		<g>
			<path style="fill:#FFB743;" d="M48,37.8574219c-4.6463623,0-7.3134155,1.2821045-7.3134155,10.5836182
				c0,3.1785278,0.4978027,5.4829102,1.7301025,6.71521C44.3330688,57.0726318,46.5248413,57.7016602,48,57.7016602
				s3.6669312-0.6290283,5.583313-2.5454102c1.2322998-1.2322998,1.7301025-3.5366821,1.7301025-6.71521
				C55.3134155,39.1395264,52.6463623,37.8574219,48,37.8574219z"/>
			<path style="fill:#231815;" d="M48,57.9511719c-0.7373047,0-3.3300781-0.1884766-5.7597656-2.6181641
				c-1.2138672-1.2138672-1.8037109-3.4677734-1.8037109-6.8916016c0-9.1582031,2.546875-10.8339844,7.5634766-10.8339844
				s7.5634766,1.6757813,7.5634766,10.8339844c0,3.4238281-0.5898438,5.6777344-1.8037109,6.8916016
				C51.3300781,57.7626953,48.7373047,57.9511719,48,57.9511719z M48,38.1074219
				c-4.1357422,0-7.0634766,0.7412109-7.0634766,10.3339844c0,3.2841797,0.5419922,5.4228516,1.6572266,6.5380859
				c2.2939453,2.2929688,4.7177734,2.4716797,5.40625,2.4716797s3.1123047-0.1787109,5.40625-2.4716797
				c1.1152344-1.1152344,1.6572266-3.2539063,1.6572266-6.5380859C55.0634766,38.8486328,52.1357422,38.1074219,48,38.1074219z"/>
		</g>
	</g>
	<g>
		<path style="fill:#C10D23;" d="M46.0130997,54.2995872c0,0,0.9934502,0.1529007,1.9869003,0.1529007
			s1.9869003-0.1529007,1.9869003-0.1529007S49.8119812,55.15625,48,55.15625S46.0130997,54.2995872,46.0130997,54.2995872z"/>
		<g>
			<g>
				<path style="fill:#F5F5F5;" d="M46.2907944,49.9984398c0-0.32967-0.472435-1.6939735-2.0341568-1.6939735
					c-1.5617256,0-2.1003876,1.3346443-2.1003876,1.3346443s0.6854172,1.2490997,2.1005211,1.2490997
					C45.3489838,50.8882103,46.2907944,50.3281097,46.2907944,49.9984398z"/>
				<ellipse style="fill:#231815;" cx="44.4164886" cy="49.521637" rx="1.2471797" ry="1.314993"/>
				<ellipse style="fill:#3E3A39;" cx="44.4164886" cy="49.521637" rx="0.9715682" ry="1.1019974"/>
				<ellipse style="fill:#231815;" cx="44.4164886" cy="49.521637" rx="0.4713017" ry="0.5345721"/>
				<path style="fill:#231815;" d="M44.2566376,48.0673256c1.6924973,0,2.2129593,1.6621208,2.268177,1.9311104
					c-0.1677628-0.1980782-1.0385284-1.49543-2.1871719-1.4784813c-1.4491119,0.0213814-1.993145,1.1760216-1.993145,1.1760216
					c0.0200424,0.0342636-0.1914635,0.3602333-0.5007477-0.2042923C41.84375,49.491684,42.5208321,48.0673256,44.2566376,48.0673256
					z"/>
				<ellipse style="fill:#FFFFFF;" cx="43.8922615" cy="48.9836197" rx="0.304011" ry="0.2886593"/>
			</g>
			<g>
				<path style="fill:#F5F5F5;" d="M49.7092056,49.9984398c0-0.32967,0.472435-1.6939735,2.0341568-1.6939735
					c1.5617256,0,2.1003876,1.3346443,2.1003876,1.3346443s-0.6854172,1.2490997-2.1005211,1.2490997
					C50.6510162,50.8882103,49.7092056,50.3281097,49.7092056,49.9984398z"/>
				<ellipse style="fill:#231815;" cx="51.5835114" cy="49.521637" rx="1.2471797" ry="1.314993"/>
				<ellipse style="fill:#3E3A39;" cx="51.5835114" cy="49.521637" rx="0.9715682" ry="1.1019974"/>
				<ellipse style="fill:#231815;" cx="51.5835114" cy="49.521637" rx="0.4713017" ry="0.5345721"/>
				<path style="fill:#231815;" d="M51.7433624,48.0673256c-1.6924973,0-2.2129593,1.6621208-2.268177,1.9311104
					c0.1677628-0.1980782,1.0385284-1.49543,2.1871719-1.4784813c1.4491119,0.0213814,1.993145,1.1760216,1.993145,1.1760216
					c-0.0200424,0.0342636,0.1914635,0.3602333,0.5007477-0.2042923
					C54.15625,49.491684,53.4791679,48.0673256,51.7433624,48.0673256z"/>
				<ellipse style="fill:#FFFFFF;" cx="51.0592842" cy="48.9836197" rx="0.304011" ry="0.2886593"/>
			</g>
		</g>
		<g>
			<path style="fill:#231815;" d="M46.626503,47.1231995c0,0-1.4070663-2.1969643-3.7289619-0.1023674
				C42.897541,47.0208321,44.971859,46.1008415,46.626503,47.1231995z"/>
			<path style="fill:#231815;" d="M49.373497,47.1231995c0,0,1.4070663-2.1969643,3.7289619-0.1023674
				C53.102459,47.0208321,51.028141,46.1008415,49.373497,47.1231995z"/>
		</g>
		<linearGradient id="SVGID_2_" gradientUnits="userSpaceOnUse" x1="47.5494881" y1="52.7635841" x2="47.5494881" y2="50.6150398">
			<stop  offset="0" style="stop-color:#FFFFFF;stop-opacity:0.05"/>
			<stop  offset="0.5" style="stop-color:#FFFFFF;stop-opacity:0.4"/>
			<stop  offset="1" style="stop-color:#FFFFFF;stop-opacity:0.05"/>
		</linearGradient>
		<path style="fill:url(#SVGID_2_);" d="M48.0000038,51.689312c0,0.5933037-0.5384331,1.0742722-0.7795219,1.0742722
			s-0.0712891-0.6665344,0.0623627-1.2421265c0.1247215-0.5371361,0.2266235-0.9064178,0.4677124-0.9064178
			C47.9916496,50.6150398,48.0000038,51.0960083,48.0000038,51.689312z"/>
	</g>
	<g>
		<g>
			<linearGradient id="SVGID_3_" gradientUnits="userSpaceOnUse" x1="48.1695824" y1="37.5421906" x2="48.1695824" y2="57.1821823">
				<stop  offset="0.1504425" style="stop-color:#714E2D"/>
				<stop  offset="0.9955752" style="stop-color:#312214"/>
			</linearGradient>
			<path style="fill:url(#SVGID_3_);" d="M56.5148888,42.7835693c-1.6398888-5.2413788-4.6395836-4.2987061-4.6395836-4.2987061
				S44.8526001,35.25,41.0625,40.7651367c-3.6450195,5.303894-0.1289673,16.4170456-0.1289673,16.4170456
				s-0.7893448-13.8631096,3.8724594-15.8905144c0,0-1.4202309,1.625-1.4202499,4.9362984
				c0,0,3.0561523-2.9832764,5.5744629-4.8015137C48.2313232,43.5828247,48.75,46.5,48.75,46.5
				c2.4879761-2.75,2.8633423-5.4583321,2.8633423-5.4583321S53.0670776,44.2956543,53.5,46.5586548
				c0,0,0.65625-0.9093819,0.9541931-2.2988548c0,0,1.2444763,4.711628,0.8587952,12.6814766
				C55.3129883,56.9412766,57.9203911,47.2757988,56.5148888,42.7835693z"/>
			<path style="fill:#2E1E15;" d="M54.9511719,59.2421875l0.1113281-2.3125c0.28125-5.7998047-0.3125-9.890625-0.6445313-11.6464844
				c-0.3164063,0.8632813-0.6943359,1.3925781-0.7148438,1.421875l-0.3398438,0.4697266l-0.1083984-0.5693359
				c-0.3027344-1.5800781-1.1220703-3.6787109-1.5693359-4.7568359c-0.2880859,1.0185547-1.0146484,2.9013672-2.75,4.8193359
				l-0.3427734,0.3779297l-0.0888672-0.5019531c-0.0195313-0.109375-0.4208984-2.4277344,0.0244141-4.484375
				c-2.3457031,1.7939453-4.9394531,4.3193359-4.9677734,4.3466797l-0.4248047,0.4150391v-0.59375
				c0-1.8955078,0.4511719-3.2519531,0.8554688-4.0869141c-3.4316406,3.2724609-2.8154297,14.9013672-2.8076172,15.0273438
				l0.1132813,1.9902344l-0.6015625-1.9003906c-0.1455078-0.4580078-3.5107422-11.2910156,0.1611328-16.6337891
				c1.5195313-2.2109375,3.7041016-3.3320313,6.4931641-3.3320313c2.2558594,0,4.1337891,0.7509766,4.5478516,0.9287109
				c0.1044922-0.0224609,0.2861328-0.0527344,0.5263672-0.0527344c1.0869141,0,3.09375,0.5898438,4.3291016,4.5410156
				c1.4111328,4.5097656-1.0917969,13.9003906-1.1992188,14.2978516L54.9511719,59.2421875z M47.3496094,37.7919922
				c-2.6142578,0-4.6611328,1.0478516-6.0810547,3.1152344c-2.6005859,3.7841797-1.4453125,10.7089844-0.6396484,14.1484375
				c-0.015625-4.0214844,0.4042969-12.3955078,4.0771484-13.9931641l1.0078125-0.4384766l-0.7197266,0.8320313
				c-0.0126953,0.0146484-1.1875,1.4052734-1.3417969,4.1699219C44.59375,44.734375,46.8730469,42.625,48.8134766,41.2236328
				l0.6328125-0.4570313l-0.2490234,0.7402344c-0.5166016,1.5283203-0.3828125,3.484375-0.2753906,4.4130859
				c2.0849609-2.5087891,2.4404297-4.8876953,2.4433594-4.9121094l0.1220703-0.8613281l0.3544922,0.7939453
				c0.0546875,0.1210938,1.2285156,2.7626953,1.765625,4.9443359c0.2001953-0.3886719,0.4501953-0.9697266,0.6025391-1.6777344
				l0.21875-1.0224609l0.2675781,1.0117188c0.0107422,0.0419922,0.9941406,3.8535156,0.9375,10.2851563
				c0.6689453-3.1425781,1.5839844-8.6123047,0.6425781-11.6240234c-1.140625-3.6445313-2.9033203-4.1894531-3.8525391-4.1894531
				c-0.2910156,0-0.4736328,0.0546875-0.4755859,0.0556641l-0.0898438,0.0273438l-0.0878906-0.0390625
				C51.7509766,38.7021484,49.7412109,37.7919922,47.3496094,37.7919922z"/>
		</g>
		<linearGradient id="SVGID_4_" gradientUnits="userSpaceOnUse" x1="40.9321938" y1="40.8606987" x2="40.9321938" y2="51.0394821">
			<stop  offset="0" style="stop-color:#8F6B3F"/>
			<stop  offset="0.9955752" style="stop-color:#714E2D"/>
		</linearGradient>
		<path style="fill:url(#SVGID_4_);" d="M41.84375,40.8606987c0,0-2.59375,2.3432693-1.59375,10.1787834
			C40.25,51.0394821,40.5,43.7838936,41.84375,40.8606987z"/>
		<linearGradient id="SVGID_5_" gradientUnits="userSpaceOnUse" x1="55.5829849" y1="40.8606987" x2="55.5829849" y2="49.998436">
			<stop  offset="0" style="stop-color:#8F6B3F"/>
			<stop  offset="0.9955752" style="stop-color:#714E2D"/>
		</linearGradient>
		<path style="fill:url(#SVGID_5_);" d="M54.75,40.8606987c0,0,2.5,1.9486732,1.375,9.1377373
			C56.125,49.998436,56.125,43.8463936,54.75,40.8606987z"/>
		<linearGradient id="SVGID_6_" gradientUnits="userSpaceOnUse" x1="45.3830643" y1="40.2835999" x2="45.3830643" y2="44.75">
			<stop  offset="0" style="stop-color:#8F6B3F"/>
			<stop  offset="0.9955752" style="stop-color:#714E2D"/>
		</linearGradient>
		<path style="fill:url(#SVGID_6_);" d="M46.626503,40.2835999c0,0-2.0972481,1.9664001-2.4868736,4.4664001
			C44.1396294,44.75,46.2530098,41.5671997,46.626503,40.2835999z"/>
		<linearGradient id="SVGID_7_" gradientUnits="userSpaceOnUse" x1="49.8644905" y1="40.0810204" x2="49.8644905" y2="43.7798004">
			<stop  offset="0" style="stop-color:#8F6B3F"/>
			<stop  offset="0.9955752" style="stop-color:#714E2D"/>
		</linearGradient>
		<path style="fill:url(#SVGID_7_);" d="M50.3125,40.0810204c0,0-1.0416641,1.856987-0.939003,3.6987801
			C49.373497,43.7798004,50.625,41.2245407,50.3125,40.0810204z"/>
		<linearGradient id="SVGID_8_" gradientUnits="userSpaceOnUse" x1="53.3399925" y1="40.0810204" x2="53.3399925" y2="44.75">
			<stop  offset="0" style="stop-color:#8F6B3F"/>
			<stop  offset="0.9955752" style="stop-color:#714E2D"/>
		</linearGradient>
		<path style="fill:url(#SVGID_8_);" d="M52.6142387,40.0810204c0,0,2.3456421,1.2719879,1.0732613,4.6689796
			C53.6875,44.75,54.0879593,41.9601517,52.6142387,40.0810204z"/>
	</g>
</g>
<g>
</g>
<g>
</g>
<g>
</g>
<g>
</g>
<g>
</g>
<g>
</g>
</svg>
