<?xml version="1.0" encoding="UTF-8" standalone="no"?>
<!-- Generator: Adobe Illustrator 18.0.0, SVG Export Plug-In . SVG Version: 6.00 Build 0)  -->

<svg
   xmlns:dc="http://purl.org/dc/elements/1.1/"
   xmlns:cc="http://creativecommons.org/ns#"
   xmlns:rdf="http://www.w3.org/1999/02/22-rdf-syntax-ns#"
   xmlns:svg="http://www.w3.org/2000/svg"
   xmlns="http://www.w3.org/2000/svg"
   xmlns:sodipodi="http://sodipodi.sourceforge.net/DTD/sodipodi-0.dtd"
   xmlns:inkscape="http://www.inkscape.org/namespaces/inkscape"
   version="1.1"
   id="レイヤー_1"
   x="0px"
   y="0px"
   width="64px"
   height="64px"
   viewBox="0 0 64 64"
   style="enable-background:new 0 0 64 64;"
   xml:space="preserve"
   sodipodi:docname="overlay_rd.svg"
   inkscape:version="0.92.3 (2405546, 2018-03-11)"><metadata
   id="metadata261"><rdf:RDF><cc:Work
       rdf:about=""><dc:format>image/svg+xml</dc:format><dc:type
         rdf:resource="http://purl.org/dc/dcmitype/StillImage" /><dc:title></dc:title></cc:Work></rdf:RDF></metadata><defs
   id="defs259" /><sodipodi:namedview
   pagecolor="#ffffff"
   bordercolor="#666666"
   borderopacity="1"
   objecttolerance="10"
   gridtolerance="10"
   guidetolerance="10"
   inkscape:pageopacity="0"
   inkscape:pageshadow="2"
   inkscape:window-width="1920"
   inkscape:window-height="1020"
   id="namedview257"
   showgrid="false"
   inkscape:zoom="10.429825"
   inkscape:cx="5.0092322"
   inkscape:cy="20.108891"
   inkscape:window-x="0"
   inkscape:window-y="28"
   inkscape:window-maximized="1"
   inkscape:current-layer="g205" />
<g
   id="g11">
	<linearGradient
   id="SVGID_1_"
   gradientUnits="userSpaceOnUse"
   x1="32"
   y1="44.4367485"
   x2="32"
   y2="65.3651123">
		<stop
   offset="0.4"
   style="stop-color:#3E3A39"
   id="stop2" />
		<stop
   offset="1"
   style="stop-color:#231815"
   id="stop4" />
	</linearGradient>
	<path
   style="fill:url(#SVGID_1_);"
   d="M52.0170898,56.4263306c0-6.7994995-6.6046143-7.4470825-11.9899292-9.065979   c-1.6649513-0.5005188-2.5582695-1.5998611-3.0000076-2.8792114c-0.0120888-0.0350189-0.0472679-0.0531082-0.0820084-0.0402489   C36.6746368,44.5409966,35.4309387,44.9166679,32,44.9166679s-4.6746387-0.3756714-4.9451427-0.4757767   c-0.0347443-0.0128593-0.0699196,0.0052299-0.0820122,0.0402489c-0.4417381,1.2793503-1.3350563,2.3786926-3.0000057,2.8792114   c-5.3853149,1.6188965-11.9899292,2.2664795-11.9899292,9.065979l-0.1243896,8.9387817h40.282959L52.0170898,56.4263306z"
   id="path7" />
	<path
   d="M52.3955078,65.6152344H11.6049805l0.1279297-9.1923828c0-6.0302734,5.0073242-7.3662109,9.8500977-8.6582031   c0.7822266-0.2080078,1.5620117-0.4160156,2.3178711-0.6435547c1.4042969-0.4228516,2.3583984-1.3378906,2.8354492-2.7207031   c0.0444336-0.1279297,0.1635742-0.2138672,0.2963867-0.2138672l0.1079102,0.0195313   C27.3486328,44.2832031,28.5556641,44.6669922,32,44.6669922s4.6513672-0.3837891,4.8583984-0.4609375l0.1083984-0.0195313   c0.1318359,0,0.25,0.0839844,0.2958984,0.2099609c0.4785156,1.3867188,1.4326172,2.3017578,2.8369141,2.7246094   c0.7558594,0.2275391,1.5351563,0.4355469,2.3183594,0.6435547c4.8417969,1.2919922,9.8496094,2.6279297,9.8496094,8.6621094   L52.3955078,65.6152344z M12.1118164,65.1152344h39.7758789l-0.1201172-8.6845703   c0-5.6542969-4.6044922-6.8818359-9.4785156-8.1826172c-0.7880859-0.2099609-1.5732422-0.4199219-2.3339844-0.6484375   c-1.5087891-0.4541016-2.5517578-1.4179688-3.1025391-2.8662109C36.3408203,44.8847656,34.9814453,45.1669922,32,45.1669922   c-2.980957,0-4.340332-0.2822266-4.8530273-0.4335938c-0.5507813,1.4482422-1.59375,2.4121094-3.1020508,2.8662109   c-0.7612305,0.2285156-1.5458984,0.4384766-2.3330078,0.6484375c-4.875,1.2998047-9.4790039,2.5283203-9.4790039,8.1787109   L12.1118164,65.1152344z"
   id="path9" />
</g>
<g
   id="g205">
	<g
   id="g22">
		<linearGradient
   id="SVGID_2_"
   gradientUnits="userSpaceOnUse"
   x1="32"
   y1="48"
   x2="32"
   y2="65.3651123">
			<stop
   offset="0.4"
   style="stop-color:#F7F8F8"
   id="stop13" />
			<stop
   offset="1"
   style="stop-color:#B5B5B6"
   id="stop15" />
		</linearGradient>
		<path
   style="fill:url(#SVGID_2_);"
   d="M42,48H22c-6.583313,4.333313-6,17.3651123-6,17.3651123h16h16    C48,65.3651123,48.583313,52.333313,42,48z"
   id="path18" />
		<path
   style="fill:#3E3A39;"
   d="M48.2392578,65.6152344H15.7607422l-0.0102539-0.2392578    c-0.0244141-0.5371094-0.5136719-13.2236328,6.1123047-17.5849609L21.925293,47.75h20.1499023l0.0625,0.0410156    c6.625,4.3613281,6.1357422,17.0478516,6.1123047,17.5849609L48.2392578,65.6152344z M16.2431641,65.1152344h31.5136719    C47.7910156,63.3378906,47.7666016,52.1728516,41.9248047,48.25H22.0756836    C16.2333984,52.1728516,16.2084961,63.3378906,16.2431641,65.1152344z"
   id="path20" />
	</g>
	<g
   id="g33">
		<linearGradient
   id="SVGID_3_"
   gradientUnits="userSpaceOnUse"
   x1="32"
   y1="48"
   x2="32"
   y2="65.3651123">
			<stop
   offset="0.4"
   style="stop-color:#d35f5f;stop-opacity:1"
   id="stop24" />
			<stop
   offset="1"
   style="stop-color:#a02c2c;stop-opacity:1"
   id="stop26" />
		</linearGradient>
		<path
   style="fill:url(#SVGID_3_);"
   d="M42,48h-2c0,0,1.9634094,2.6483231,3.1385384,7.5020142    c0.1089592,0.4500389-0.1887474,0.9016609-0.6453857,0.9783936C40.7985878,56.7651596,37.4444923,57.1669922,32,57.1669922    s-8.7985878-0.4018326-10.4931545-0.6865845c-0.4566383-0.0767326-0.7543411-0.5283546-0.6453838-0.9783936    C22.0365906,50.6483231,24,48,24,48h-2c-6.583313,4.333313-6,17.3651123-6,17.3651123h16h16    C48,65.3651123,48.583313,52.333313,42,48z M32,63.208313c-6.4647331,0-9.8631706-0.1752052-11.2433681-0.2715607    c-0.428093-0.0298882-0.7577724-0.3954353-0.7476921-0.8244553c0.0336494-1.4322968,0.1602879-2.7602654,0.3455105-3.9885979    c0.0668602-0.4433975,0.4851971-0.7390175,0.9271545-0.6632233C23.0081997,57.7565804,26.4076653,58.1669922,32,58.1669922    s8.9917984-0.4104118,10.7183952-0.7065163c0.4419556-0.0757942,0.8602943,0.2198257,0.9271545,0.6632233    c0.1852226,1.2283325,0.3118591,2.5563011,0.3455124,3.9885979c0.0100784,0.4290199-0.3195992,0.7945671-0.7476959,0.8244553    C41.8631706,63.0331078,38.4647331,63.208313,32,63.208313z"
   id="path29" />
		<path
   style="fill:#3E3A39;"
   d="M48.2392578,65.6152344H15.7607422l-0.0102539-0.2392578    c-0.0244141-0.5371094-0.5136719-13.2236328,6.1123047-17.5849609L21.925293,47.75h2.5708008l-0.2954102,0.3984375    c-0.019043,0.0263672-1.9482422,2.671875-3.0961914,7.4121094c-0.0361328,0.1494141-0.0092773,0.3037109,0.0761719,0.4326172    c0.0854492,0.1298828,0.2158203,0.2148438,0.3676758,0.2412109C23.0639648,56.4892578,26.4375,56.9169922,32,56.9169922    s8.9355469-0.4277344,10.4521484-0.6826172c0.1513672-0.0263672,0.28125-0.1113281,0.3671875-0.2402344    c0.0849609-0.1298828,0.1123047-0.2841797,0.0761719-0.4335938c-1.1494141-4.7490234-3.0771484-7.3857422-3.0966797-7.4121094    L39.5029297,47.75h2.5722656l0.0625,0.0410156c6.625,4.3613281,6.1357422,17.0478516,6.1123047,17.5849609L48.2392578,65.6152344z     M16.2431641,65.1152344h31.5136719C47.7910156,63.3378906,47.7666016,52.1728516,41.9248047,48.25h-1.4541016    c0.5859375,0.9130859,1.9833984,3.3623047,2.9111328,7.1933594c0.0673828,0.2822266,0.0146484,0.5830078-0.1455078,0.8261719    c-0.1601563,0.2421875-0.4160156,0.4091797-0.7011719,0.4570313C40.6640625,57.0419922,37.3183594,57.4169922,32,57.4169922    s-8.6645508-0.375-10.534668-0.6904297c-0.2861328-0.0478516-0.5419922-0.2148438-0.7021484-0.4580078    s-0.2128906-0.5439453-0.1450195-0.8251953c0.9277344-3.8310547,2.3256836-6.2802734,2.9106445-7.1933594h-1.453125    C16.2333984,52.1728516,16.2084961,63.3378906,16.2431641,65.1152344z M32,63.4580078    c-6.4189453,0-9.8100586-0.1708984-11.2607422-0.2724609c-0.5625-0.0380859-0.9931641-0.5126953-0.9804688-1.0791016    c0.0317383-1.3427734,0.1489258-2.6953125,0.3486328-4.0195313c0.0869141-0.5732422,0.628418-0.9765625,1.2167969-0.8720703    C23.1938477,57.5351563,26.5639648,57.9169922,32,57.9169922c5.4365234,0,8.8066406-0.3818359,10.6767578-0.7021484    c0.5888672-0.1044922,1.1298828,0.2988281,1.2158203,0.8720703c0.1992188,1.3164063,0.3164063,2.6689453,0.3486328,4.0195313    c0.0126953,0.5673828-0.4179688,1.0410156-0.9814453,1.0791016C41.8105469,63.2871094,38.4189453,63.4580078,32,63.4580078z     M21.1425781,57.6992188c-0.2729492,0-0.5004883,0.1943359-0.5410156,0.4619141    c-0.1962891,1.3037109-0.3115234,2.6347656-0.3427734,3.9570313c-0.0068359,0.2988281,0.2192383,0.5488281,0.5151367,0.5693359    C22.2182617,62.7880859,25.5966797,62.9580078,32,62.9580078s9.7822266-0.1699219,11.2255859-0.2705078    c0.2958984-0.0205078,0.5224609-0.2705078,0.515625-0.5693359c-0.03125-1.3300781-0.1474609-2.6611328-0.3427734-3.9570313    c-0.0449219-0.2978516-0.3251953-0.5009766-0.6367188-0.4541016C40.8720703,58.03125,37.4716797,58.4169922,32,58.4169922    c-5.4711914,0-8.871582-0.3857422-10.7602539-0.7099609C21.2070313,57.7021484,21.1748047,57.6992188,21.1425781,57.6992188z"
   id="path31" />
	</g>
	<g
   id="g57">
		<g
   id="g44">
			<linearGradient
   id="SVGID_4_"
   gradientUnits="userSpaceOnUse"
   x1="49.4509048"
   y1="48.249054"
   x2="49.4509048"
   y2="65.3651199">
				<stop
   offset="0.4"
   style="stop-color:#F7F8F8"
   id="stop35" />
				<stop
   offset="1"
   style="stop-color:#B5B5B6"
   id="stop37" />
			</linearGradient>
			<path
   style="fill:url(#SVGID_4_);"
   d="M48.138504,48.249054c0,0,2.2034416,0.3858376,4.694828,3.5329132     c2.75,3.4737549,3.9035225,7.0257568,5,13.5831528l-11.4606361-0.0000076     c0-12.0317802-5.3042145-17.1160583-5.3042145-17.1160583H48.138504z"
   id="path40" />
			<path
   style="fill:#3E3A39;"
   d="M58.1279297,65.6152344H46.1230469v-0.25c0-11.7695313-5.1757813-16.8857422-5.2275391-16.9355469     l-0.4472656-0.4306641h7.6904297c0.1367188,0.0205078,2.3691406,0.4423828,4.890625,3.6279297     c2.6494141,3.3476563,3.8769531,6.6757813,5.0507813,13.6972656L58.1279297,65.6152344z M46.6220703,65.1152344h10.9150391     c-1.1416016-6.7265625-2.3466797-9.953125-4.9003906-13.1777344c-2.390625-3.0205078-4.5205078-3.4384766-4.5419922-3.4423828     l-6.4550781,0.0039063C42.8828125,49.9472656,46.5625,55.078125,46.6220703,65.1152344z"
   id="path42" />
		</g>
		<g
   id="g55">
			<linearGradient
   id="SVGID_5_"
   gradientUnits="userSpaceOnUse"
   x1="52.004425"
   y1="58.7418213"
   x2="52.004425"
   y2="65.3651123">
				<stop
   offset="0"
   style="stop-color:#d35f5f;stop-opacity:1"
   id="stop46" />
				<stop
   offset="1"
   style="stop-color:#782121;stop-opacity:1"
   id="stop48" />
			</linearGradient>
			<path
   style="fill:url(#SVGID_5_);"
   d="M46.3726807,65.3651123H57.833313     c-0.4397583-2.6300049-0.890625-4.7713623-1.4480591-6.623291c-4.2666016,1.9004517-8.2156372,2.5724487-10.2097168,2.8017578     C46.296814,62.7335815,46.3726807,63.9985962,46.3726807,65.3651123z"
   id="path51" />
			<path
   style="fill:#3E3A39;"
   d="M58.1279297,65.6152344H46.1230469v-0.25c0-1.2587891-0.0644531-2.5009766-0.1962891-3.7958984     l-0.0244141-0.2451172l0.2451172-0.0283203c1.9589844-0.2255859,5.8818359-0.8867188,10.1357422-2.7822266l0.2587891-0.1152344     l0.0820313,0.2714844c0.5263672,1.7490234,0.9892578,3.8632813,1.4550781,6.6542969L58.1279297,65.6152344z      M46.6220703,65.1152344h10.9150391c-0.421875-2.4853516-0.8417969-4.4169922-1.3115234-6.0302734     c-4.0439453,1.7607422-7.7617188,2.4287109-9.7773438,2.6777344     C46.5576172,62.9023438,46.6152344,64.0039063,46.6220703,65.1152344z"
   id="path53" />
		</g>
	</g>
	<g
   id="g81">
		<g
   id="g68">
			
				<linearGradient
   id="SVGID_6_"
   gradientUnits="userSpaceOnUse"
   x1="49.4509087"
   y1="48.249054"
   x2="49.4509087"
   y2="65.3651199"
   gradientTransform="matrix(-1 0 0 1 64 0)">
				<stop
   offset="0.4"
   style="stop-color:#F7F8F8"
   id="stop59" />
				<stop
   offset="1"
   style="stop-color:#B5B5B6"
   id="stop61" />
			</linearGradient>
			<path
   style="fill:url(#SVGID_6_);"
   d="M15.861496,48.249054c0,0-2.2034416,0.3858376-4.694829,3.5329132     c-2.75,3.4737549-3.9035215,7.0257568-5.0000005,13.5831528l11.460638-0.0000076     c0-12.0317802,5.3042164-17.1160583,5.3042164-17.1160583H15.861496z"
   id="path64" />
			<path
   style="fill:#3E3A39;"
   d="M17.8774414,65.6152344H5.8710938l0.0488281-0.2910156     c1.1743164-7.0234375,2.4018555-10.3515625,5.0507813-13.6972656c2.5214844-3.1855469,4.7539063-3.6074219,4.8476563-3.6240234     l7.7333984-0.0039063l-0.4467773,0.4306641c-0.0522461,0.0498047-5.2275391,5.1660156-5.2275391,16.9355469V65.6152344z      M6.4624023,65.1152344H17.378418c0.0600586-10.0371094,3.7387695-15.1669922,4.9819336-16.6162109h-6.4990234     c0.0229492,0-2.1074219,0.4179688-4.4990234,3.4384766C8.8105469,55.1611328,7.605957,58.3867188,6.4624023,65.1152344z"
   id="path66" />
		</g>
		<g
   id="g79">
			
				<linearGradient
   id="SVGID_7_"
   gradientUnits="userSpaceOnUse"
   x1="52.004425"
   y1="58.7418213"
   x2="52.004425"
   y2="65.3651123"
   gradientTransform="matrix(-1 0 0 1 64 0)">
				<stop
   offset="0"
   style="stop-color:#8FC31F"
   id="stop70" />
				<stop
   offset="1"
   style="stop-color:#00913A"
   id="stop72" />
			</linearGradient>
			<path
   style="fill:url(#SVGID_7_);"
   d="M17.6273193,65.3651123H6.166687     c0.4397583-2.6300049,0.890625-4.7713623,1.4480591-6.623291c4.2666016,1.9004517,8.2156372,2.5724487,10.2097168,2.8017578     C17.703186,62.7335815,17.6273193,63.9985962,17.6273193,65.3651123z"
   id="path75" />
			<path
   style="fill:#3E3A39;"
   d="M17.8774414,65.6152344H5.8710938l0.0488281-0.2910156     c0.4741211-2.8339844,0.9228516-4.8857422,1.4555664-6.6542969l0.081543-0.2714844l0.2592773,0.1152344     c4.2543945,1.8955078,8.1772461,2.5566406,10.137207,2.7822266l0.2451172,0.0283203l-0.0253906,0.2451172     c-0.1318359,1.2900391-0.1958008,2.53125-0.1958008,3.7958984V65.6152344z M6.4624023,65.1152344H17.378418     C17.3857422,64,17.4428711,62.8984375,17.5517578,61.7626953c-2.0146484-0.2490234-5.7333984-0.9169922-9.777832-2.6777344     C7.300293,60.7099609,6.890625,62.5947266,6.4624023,65.1152344z"
   id="path77" />
		</g>
	</g>
	<g
   id="g147">
		<g
   id="g97">
			<path
   style="fill:#898989;"
   d="M48.3117599,53.1053734c-0.1379814-0.0223389-0.2749519,0.0521278-0.3021469,0.1671333     c-0.0594215,0.2449112-0.1258926,0.4980965-0.2004204,0.7570724c-0.0332375,0.1133499,0.052372,0.2275314,0.1913567,0.254837     c0.0201416,0.0041351,0.040287,0.0057907,0.0594215,0.0057907c0.1168289,0,0.22258-0.0653648,0.2507782-0.1629982     c0.0765457-0.2639389,0.145031-0.5220871,0.2044525-0.7736168     C48.5423965,53.2394142,48.4517517,53.1277122,48.3117599,53.1053734z"
   id="path83" />
			<path
   style="fill:#898989;"
   d="M47.89077,54.6319237c-0.1379776-0.0297852-0.2799873,0.0347519-0.3182564,0.1472778     c-0.0825882,0.2424278-0.1722221,0.4898186-0.2729378,0.7405205c-0.0443153,0.1108704,0.0292053,0.2308426,0.1641655,0.2672501     c0.0271912,0.0074463,0.0543861,0.0107536,0.0805702,0.0107536c0.1087723,0,0.2094879-0.056263,0.2447357-0.1456223     c0.1027298-0.2573204,0.1963959-0.5096741,0.2809944-0.7587242C48.1083145,54.7808533,48.0277443,54.6641922,47.89077,54.6319237     z"
   id="path85" />
			<path
   style="fill:#898989;"
   d="M47.3217316,56.1270294c-0.1369705-0.0405426-0.2820015,0.0165482-0.3313522,0.124939     c-0.1067543,0.2374649-0.2215729,0.4782372-0.3444443,0.7198372c-0.0553932,0.1075592,0.0070496,0.2316704,0.1379814,0.2771759     c0.0322266,0.0115852,0.0664711,0.0165482,0.0997086,0.0165482c0.1007118,0,0.1963921-0.0488167,0.2376862-0.1299019     c0.1268997-0.2482185,0.2437286-0.4939537,0.3525009-0.7363815     C47.5231628,56.2891998,47.4546738,56.167572,47.3217316,56.1270294z"
   id="path87" />
			<path
   style="fill:#898989;"
   d="M48.6864166,49.9902191c-0.0010071,0-0.0030212,0-0.0050354,0     c-0.1399918,0-0.2548065,0.0918427-0.2578316,0.2076797c-0.0060425,0.229187-0.0191345,0.488163-0.0422974,0.7719612     c-0.0100708,0.1166611,0.0966835,0.2184334,0.2386932,0.2258797c0.0060425,0.0008278,0.012085,0.0008278,0.0181274,0.0008278     c0.1349602,0,0.2477608-0.0852242,0.2568245-0.1969223c0.025177-0.2920723,0.038269-0.5576668,0.0443115-0.7934723     C48.942234,50.0895081,48.8294334,49.9927025,48.6864166,49.9902191z"
   id="path89" />
			<path
   style="fill:#898989;"
   d="M48.5796585,51.5548286c-0.1389847-0.0289574-0.2689095,0.0711594-0.2840157,0.1869926     c-0.0332336,0.2432556-0.0745277,0.4989204-0.1248856,0.7669983c-0.0221558,0.1150093,0.0745277,0.2233963,0.2155304,0.2416     c0.013092,0.0016556,0.0261841,0.0024834,0.0392761,0.0024834c0.1248894,0,0.2346687-0.0744667,0.2548103-0.1795464     c0.052372-0.2730408,0.0936661-0.5353241,0.1268997-0.785202C48.8233871,51.6723213,48.7216682,51.5672417,48.5796585,51.5548286     z"
   id="path91" />
			<path
   style="fill:#898989;"
   d="M46.2702713,58.3725891c-0.0382729,0-0.0775528-0.0066185-0.1138077-0.0215111     c-0.1279068-0.0521278-0.1802788-0.1795464-0.117836-0.2837982c0.077549-0.1282463,0.1510696-0.2548409,0.22258-0.3806038     c0.0614357-0.1059074,0.2145195-0.1497574,0.3424301-0.1025963c0.1289139,0.0496445,0.1853142,0.1754074,0.1248856,0.2813148     c-0.0735207,0.1290741-0.1490593,0.258976-0.2266083,0.3888779     C46.4565926,58.3295631,46.3649406,58.3725891,46.2702713,58.3725891z"
   id="path93" />
			<path
   style="fill:#898989;"
   d="M48.6753387,49.6327858c-0.1379814,0-0.2527962-0.0901871-0.2578316-0.2043686     c-0.0110779-0.2573204-0.0292053-0.3996315-0.0302124-0.4037704c-0.0140991-0.1158333,0.0876198-0.220089,0.2296295-0.2324982     c0.1329422-0.0115852,0.2679024,0.0711555,0.2840157,0.1878204c0,0,0.0191345,0.1522408,0.0322266,0.4335556     c0.0050354,0.1166611-0.1057472,0.2151222-0.248764,0.2192612C48.6813812,49.6327858,48.67836,49.6327858,48.6753387,49.6327858z     "
   id="path95" />
		</g>
		<g
   id="g113">
			<path
   style="fill:#898989;"
   d="M15.3800545,51.1957397c0.1420078-0.0074463,0.2487659-0.1092186,0.2386942-0.2258797     c-0.0231638-0.2837982-0.0362568-0.5427742-0.0423002-0.7719612c-0.0030212-0.1158371-0.117836-0.2076797-0.2578297-0.2076797     c-0.0020142,0-0.0040283,0-0.0050354,0c-0.1430149,0.0024834-0.2558155,0.0992889-0.2527943,0.2159538     c0.0060425,0.2358055,0.0191355,0.5014,0.0443144,0.7934723c0.0090647,0.1116982,0.1218653,0.1969223,0.2568226,0.1969223     C15.3679695,51.1965675,15.374012,51.1965675,15.3800545,51.1957397z"
   id="path99" />
			<path
   style="fill:#898989;"
   d="M15.6137133,52.7504196c0.1410007-0.0182037,0.2376862-0.1265907,0.2155294-0.2416     c-0.0503578-0.2680779-0.091651-0.5237427-0.1248865-0.7669983c-0.0151072-0.1158333-0.1450291-0.21595-0.2840157-0.1869926     c-0.1420078,0.012413-0.2437296,0.1174927-0.2276154,0.233326c0.0332365,0.2498779,0.0745296,0.5121613,0.1269007,0.785202     c0.0201435,0.1050797,0.1299219,0.1795464,0.2548084,0.1795464     C15.5875273,52.752903,15.6006203,52.7520752,15.6137133,52.7504196z"
   id="path101" />
			<path
   style="fill:#898989;"
   d="M15.9994507,54.2844162c0.1389866-0.0273056,0.2245941-0.1414871,0.1913586-0.254837     c-0.0745296-0.258976-0.1410007-0.5121613-0.2004232-0.7570724c-0.0271931-0.1150055-0.1641645-0.1894722-0.3021441-0.1671333     c-0.1399937,0.0223389-0.2306366,0.1340408-0.2034435,0.2482185c0.0594215,0.2515297,0.1279078,0.5096779,0.2044506,0.7736168     c0.0282001,0.0976334,0.1339502,0.1629982,0.2507801,0.1629982     C15.9591646,54.2902069,15.9793072,54.2885513,15.9994507,54.2844162z"
   id="path103" />
			<path
   style="fill:#898989;"
   d="M16.7004242,55.519722c-0.1007137-0.2507019-0.1903496-0.4980927-0.2729359-0.7405205     c-0.038271-0.1125259-0.1802788-0.177063-0.3182583-0.1472778c-0.1369724,0.0322685-0.2175446,0.1489296-0.1792727,0.2614555     c0.0845995,0.2490501,0.1782656,0.5014038,0.2809935,0.7587242c0.0352516,0.0893593,0.1359653,0.1456223,0.2447376,0.1456223     c0.026186,0,0.0533791-0.0033073,0.0805721-0.0107536C16.671217,55.7505646,16.7447395,55.6305923,16.7004242,55.519722z"
   id="path105" />
			<path
   style="fill:#898989;"
   d="M17.354063,56.9718056c-0.1228714-0.2416-0.2376862-0.4823723-0.3444443-0.7198372     c-0.0493488-0.1083908-0.1943798-0.1654816-0.3313503-0.124939c-0.1329441,0.0405426-0.2014294,0.1621704-0.1520805,0.2722168     c0.1087723,0.2424278,0.2256012,0.488163,0.3525028,0.7363815c0.0412922,0.0810852,0.1369705,0.1299019,0.2376862,0.1299019     c0.0332355,0,0.0674782-0.0049629,0.0997066-0.0165482C17.3470135,57.203476,17.4094563,57.0793648,17.354063,56.9718056z"
   id="path107" />
			<path
   style="fill:#898989;"
   d="M15.3246622,49.6327858c0.1379786,0,0.2527933-0.0901871,0.2578297-0.2043686     c0.0110779-0.2573204,0.0292072-0.3996315,0.0302143-0.4037704c0.0141001-0.1158333-0.0876217-0.220089-0.2296295-0.2324982     c-0.1329441-0.0115852-0.2679014,0.0711555-0.2840157,0.1878204c0,0-0.0191364,0.1522408-0.0322294,0.4335556     c-0.0050354,0.1166611,0.105751,0.2151222,0.2487659,0.2192612C15.3186188,49.6327858,15.32164,49.6327858,15.3246622,49.6327858     z"
   id="path109" />
			<path
   style="fill:#898989;"
   d="M17.7297287,58.3725891c0.0382729,0,0.0775509-0.0066185,0.1138077-0.0215111     c0.1279087-0.0521278,0.1802807-0.1795464,0.1178379-0.2837982c-0.0775509-0.1282463-0.1510735-0.2548409-0.22258-0.3806038     c-0.0614357-0.1059074-0.2145233-0.1497574-0.3424301-0.1025963c-0.1289158,0.0496445-0.1853161,0.1754074-0.1248875,0.2813148     c0.0735226,0.1290741,0.1490593,0.258976,0.2266083,0.3888779     C17.5434074,58.3295631,17.6350574,58.3725891,17.7297287,58.3725891z"
   id="path111" />
		</g>
		<g
   id="g129">
			<path
   style="fill:#898989;"
   d="M49.9873047,50.5078125c0.0009766,0,0.0029297,0,0.0039063,0     c0.1386719-0.0019531,0.2480469-0.1162109,0.2460938-0.2539063c-0.0048828-0.2958984-0.0195313-0.4638672-0.0195313-0.4638672     c-0.0117188-0.1367188-0.1123047-0.2460938-0.2705078-0.2275391c-0.1367188,0.0117188-0.2392578,0.1328125-0.2275391,0.2705078     c0,0.0039063,0.0126953,0.1591797,0.0175781,0.4287109C49.7392578,50.3984375,49.8515625,50.5078125,49.9873047,50.5078125z"
   id="path115" />
			<path
   style="fill:#898989;"
   d="M48.5878906,55.9121094c-0.1142578,0.2460938-0.2402344,0.4912109-0.3789063,0.7333984     c-0.0673828,0.1201172-0.0253906,0.2734375,0.09375,0.3417969c0.0390625,0.0214844,0.0820313,0.0322266,0.1240234,0.0322266     c0.0869141,0,0.1708984-0.0458984,0.2177734-0.1259766c0.1445313-0.2558594,0.2763672-0.5126953,0.3964844-0.7705078     c0.0585938-0.125,0.0039063-0.2734375-0.1210938-0.3320313C48.7958984,55.7353516,48.6464844,55.7871094,48.5878906,55.9121094z"
   id="path117" />
			<path
   style="fill:#898989;"
   d="M47.7714844,57.3457031c-0.1533203,0.2226563-0.3193359,0.4423828-0.4970703,0.65625     c-0.0878906,0.1064453-0.0732422,0.2646484,0.0322266,0.3525391c0.046875,0.0390625,0.1035156,0.0576172,0.1601563,0.0576172     c0.0712891,0,0.1425781-0.0302734,0.1923828-0.0898438c0.1875-0.2255859,0.3613281-0.4570313,0.5244141-0.6933594     c0.078125-0.1132813,0.0498047-0.2695313-0.0644531-0.3476563     C48.0068359,57.2050781,47.8505859,57.2324219,47.7714844,57.3457031z"
   id="path119" />
			<path
   style="fill:#898989;"
   d="M49.484375,54.1962891c-0.1289063-0.0429688-0.2714844,0.0361328-0.3105469,0.1679688     c-0.078125,0.2587891-0.1660156,0.5214844-0.2646484,0.7841797c-0.0488281,0.1298828,0.015625,0.2734375,0.1445313,0.3222656     c0.0292969,0.0117188,0.0595703,0.0166016,0.0888672,0.0166016c0.1005859,0,0.1962891-0.0615234,0.2333984-0.1611328     c0.1044922-0.2744141,0.1962891-0.5488281,0.2763672-0.8193359C49.6923828,54.375,49.6171875,54.2353516,49.484375,54.1962891z"
   id="path121" />
			<path
   style="fill:#898989;"
   d="M49.9853516,50.8515625c-0.1318359,0.0097656-0.2548828,0.1005859-0.2617188,0.2382813     c-0.0117188,0.25-0.03125,0.5292969-0.0634766,0.8300781c-0.0136719,0.1376953,0.0859375,0.2607422,0.2226563,0.2753906     c0.0087891,0.0009766,0.0175781,0.0009766,0.0263672,0.0009766c0.1269531,0,0.2353516-0.0957031,0.2490234-0.2236328     c0.0322266-0.3125,0.0537109-0.6015625,0.0654297-0.859375C50.2294922,50.9755859,50.1230469,50.8583984,49.9853516,50.8515625z"
   id="path123" />
			<path
   style="fill:#898989;"
   d="M49.8349609,52.5390625c-0.1357422-0.0302734-0.2636719,0.0693359-0.2871094,0.2050781     c-0.0449219,0.2626953-0.0976563,0.5351563-0.1621094,0.8154297c-0.03125,0.1347656,0.0517578,0.2685547,0.1865234,0.2998047     c0.0185547,0.0048828,0.0380859,0.0068359,0.0566406,0.0068359c0.1142578,0,0.2167969-0.078125,0.2431641-0.1933594     c0.0683594-0.2900391,0.1230469-0.5742188,0.1679688-0.8466797     C50.0634766,52.6904297,49.9716797,52.5615234,49.8349609,52.5390625z"
   id="path125" />
			<path
   style="fill:#898989;"
   d="M46.7128906,58.6162109c-0.1025391,0.1025391-0.2099609,0.203125-0.3193359,0.3017578     c-0.1025391,0.0927734-0.1103516,0.2509766-0.0175781,0.3535156c0.0498047,0.0546875,0.1171875,0.0820313,0.1855469,0.0820313     c0.0595703,0,0.1201172-0.0214844,0.1679688-0.0644531c0.1152344-0.1044922,0.2285156-0.2109375,0.3369141-0.3193359     c0.0976563-0.0976563,0.0976563-0.2558594,0-0.3535156S46.8105469,58.5185547,46.7128906,58.6162109z"
   id="path127" />
		</g>
		<g
   id="g145">
			<path
   style="fill:#898989;"
   d="M14.0126953,50.5078125c-0.0009766,0-0.0029297,0-0.0039063,0     c-0.1386719-0.0019531-0.2480469-0.1162109-0.2460938-0.2539063c0.0048828-0.2958984,0.0195313-0.4638672,0.0195313-0.4638672     c0.0117188-0.1367188,0.1123047-0.2460938,0.2705078-0.2275391c0.1367188,0.0117188,0.2392578,0.1328125,0.2275391,0.2705078     c0,0.0039063-0.0126953,0.1591797-0.0175781,0.4287109C14.2607422,50.3984375,14.1484375,50.5078125,14.0126953,50.5078125z"
   id="path131" />
			<path
   style="fill:#898989;"
   d="M15.4121094,55.9121094c0.1142578,0.2460938,0.2402344,0.4912109,0.3789063,0.7333984     c0.0673828,0.1201172,0.0253906,0.2734375-0.09375,0.3417969c-0.0390625,0.0214844-0.0820313,0.0322266-0.1240234,0.0322266     c-0.0869141,0-0.1708984-0.0458984-0.2177734-0.1259766c-0.1445313-0.2558594-0.2763672-0.5126953-0.3964844-0.7705078     c-0.0585938-0.125-0.0039063-0.2734375,0.1210938-0.3320313C15.2041016,55.7353516,15.3535156,55.7871094,15.4121094,55.9121094z     "
   id="path133" />
			<path
   style="fill:#898989;"
   d="M16.2285156,57.3457031c0.1533203,0.2226563,0.3193359,0.4423828,0.4970703,0.65625     c0.0878906,0.1064453,0.0732422,0.2646484-0.0322266,0.3525391c-0.046875,0.0390625-0.1035156,0.0576172-0.1601563,0.0576172     c-0.0712891,0-0.1425781-0.0302734-0.1923828-0.0898438c-0.1875-0.2255859-0.3613281-0.4570313-0.5244141-0.6933594     c-0.078125-0.1132813-0.0498047-0.2695313,0.0644531-0.3476563     C15.9931641,57.2050781,16.1494141,57.2324219,16.2285156,57.3457031z"
   id="path135" />
			<path
   style="fill:#898989;"
   d="M14.515625,54.1962891c0.1289063-0.0429688,0.2714844,0.0361328,0.3105469,0.1679688     c0.078125,0.2587891,0.1660156,0.5214844,0.2646484,0.7841797c0.0488281,0.1298828-0.015625,0.2734375-0.1445313,0.3222656     c-0.0292969,0.0117188-0.0595703,0.0166016-0.0888672,0.0166016c-0.1005859,0-0.1962891-0.0615234-0.2333984-0.1611328     c-0.1044922-0.2744141-0.1962891-0.5488281-0.2763672-0.8193359C14.3076172,54.375,14.3828125,54.2353516,14.515625,54.1962891z"
   id="path137" />
			<path
   style="fill:#898989;"
   d="M14.0146484,50.8515625c0.1318359,0.0097656,0.2548828,0.1005859,0.2617188,0.2382813     c0.0117188,0.25,0.03125,0.5292969,0.0634766,0.8300781c0.0136719,0.1376953-0.0859375,0.2607422-0.2226563,0.2753906     c-0.0087891,0.0009766-0.0175781,0.0009766-0.0263672,0.0009766c-0.1269531,0-0.2353516-0.0957031-0.2490234-0.2236328     c-0.0322266-0.3125-0.0537109-0.6015625-0.0654297-0.859375C13.7705078,50.9755859,13.8769531,50.8583984,14.0146484,50.8515625z     "
   id="path139" />
			<path
   style="fill:#898989;"
   d="M14.1650391,52.5390625c0.1357422-0.0302734,0.2636719,0.0693359,0.2871094,0.2050781     c0.0449219,0.2626953,0.0976563,0.5351563,0.1621094,0.8154297c0.03125,0.1347656-0.0517578,0.2685547-0.1865234,0.2998047     c-0.0185547,0.0048828-0.0380859,0.0068359-0.0566406,0.0068359c-0.1142578,0-0.2167969-0.078125-0.2431641-0.1933594     c-0.0683594-0.2900391-0.1230469-0.5742188-0.1679688-0.8466797     C13.9365234,52.6904297,14.0283203,52.5615234,14.1650391,52.5390625z"
   id="path141" />
			<path
   style="fill:#898989;"
   d="M17.2871094,58.6162109c0.1025391,0.1025391,0.2099609,0.203125,0.3193359,0.3017578     c0.1025391,0.0927734,0.1103516,0.2509766,0.0175781,0.3535156c-0.0498047,0.0546875-0.1171875,0.0820313-0.1855469,0.0820313     c-0.0595703,0-0.1201172-0.0214844-0.1679688-0.0644531c-0.1152344-0.1044922-0.2285156-0.2109375-0.3369141-0.3193359     c-0.0976563-0.0976563-0.0976563-0.2558594,0-0.3535156S17.1894531,58.5185547,17.2871094,58.6162109z"
   id="path143" />
		</g>
	</g>
	<g
   id="g171">
		<g
   id="g158">
			<linearGradient
   id="SVGID_8_"
   gradientUnits="userSpaceOnUse"
   x1="40.6863289"
   y1="58.4121094"
   x2="40.6863289"
   y2="62.4121094">
				<stop
   offset="0.4"
   style="stop-color:#ffdd55;stop-opacity:1"
   id="stop149" />
				<stop
   offset="1"
   style="stop-color:#d4aa00;stop-opacity:1"
   id="stop151" />
			</linearGradient>
			<circle
   style="fill:url(#SVGID_8_);"
   cx="40.6863289"
   cy="60.4121094"
   r="2"
   id="circle154" />
			<path
   style="fill:#3e3a39"
   d="m 40.686523,62.662109 c -1.240234,0 -2.25,-1.009765 -2.25,-2.25 0,-1.240234 1.009766,-2.25 2.25,-2.25 1.240235,0 2.25,1.009766 2.25,2.25 0,1.240235 -1.009765,2.25 -2.25,2.25 z m 0,-4 c -0.964843,0 -1.75,0.785157 -1.75,1.75 0,0.964844 0.785157,1.75 1.75,1.75 0.199157,0 0.390658,-0.03345 0.569178,-0.09503 0.686347,-0.236756 1.180822,-0.889279 1.180822,-1.654967 0,-0.964843 -0.785156,-1.75 -1.75,-1.75 z"
   id="path156"
   inkscape:connector-curvature="0"
   sodipodi:nodetypes="sssssssssss" />
		</g>
		<g
   id="g169">
			<linearGradient
   id="SVGID_9_"
   gradientUnits="userSpaceOnUse"
   x1="40.6863289"
   y1="59.2332306"
   x2="40.6863289"
   y2="61.5909882">
				<stop
   offset="0.4"
   style="stop-color:#E83828"
   id="stop160" />
				<stop
   offset="1"
   style="stop-color:#C30D23"
   id="stop162" />
			</linearGradient>
			<circle
   style="fill:url(#SVGID_9_);"
   cx="40.6863289"
   cy="60.4121094"
   r="1.1788789"
   id="circle165" />
			<path
   style="fill:#3E3A39;"
   d="M40.6865234,61.8408203c-0.7880859,0-1.4287109-0.640625-1.4287109-1.4287109     s0.640625-1.4287109,1.4287109-1.4287109s1.4287109,0.640625,1.4287109,1.4287109S41.4746094,61.8408203,40.6865234,61.8408203z      M40.6865234,59.4833984c-0.5117188,0-0.9287109,0.4169922-0.9287109,0.9287109s0.4169922,0.9287109,0.9287109,0.9287109     s0.9287109-0.4169922,0.9287109-0.9287109S41.1982422,59.4833984,40.6865234,59.4833984z"
   id="path167" />
		</g>
	</g>
	<g
   id="g203">
		<g
   id="g186">
			<linearGradient
   id="SVGID_10_"
   gradientUnits="userSpaceOnUse"
   x1="14.583333"
   y1="47.4583321"
   x2="49.4166679"
   y2="47.4583321">
				<stop
   offset="0"
   style="stop-color:#231815"
   id="stop173" />
				<stop
   offset="0.3"
   style="stop-color:#3E3A39"
   id="stop175" />
				<stop
   offset="0.7"
   style="stop-color:#3E3A39"
   id="stop177" />
				<stop
   offset="1"
   style="stop-color:#231815"
   id="stop179" />
			</linearGradient>
			<path
   style="fill:url(#SVGID_10_);"
   d="M32,46c-14.5844002,0-17.4166679,0.249054-17.4166679,0.249054v2     c0,0,2.3340616,0.667614,17.4166679,0.667614s17.4166679-0.667614,17.4166679-0.667614v-2     C49.4166679,46.249054,46.5844002,46,32,46z"
   id="path182" />
			<path
   style="fill:#231815;"
   d="M32,49.1669922c-14.9458008,0-17.3886719-0.6503906-17.4853516-0.6777344L14.3334961,48.4375     v-2.4169922L14.5615234,46C14.5898438,45.9970703,17.5712891,45.75,32,45.75c14.4277344,0,17.4101563,0.2470703,17.4384766,0.25     l0.2285156,0.0205078V48.4375l-0.1816406,0.0517578C49.3886719,48.5166016,46.9462891,49.1669922,32,49.1669922z      M14.8334961,48.046875C15.6040039,48.1894531,19.1518555,48.6669922,32,48.6669922     c12.84375,0,16.3935547-0.4775391,17.1669922-0.6201172v-1.5634766C48.2509766,46.4287109,44.28125,46.25,32,46.25     c-12.2807617,0-16.2504883,0.1787109-17.1665039,0.2333984V48.046875z"
   id="path184" />
		</g>
		<g
   id="g201">
			<linearGradient
   id="SVGID_11_"
   gradientUnits="userSpaceOnUse"
   x1="14.583333"
   y1="47.4583321"
   x2="49.4166679"
   y2="47.4583321">
				<stop
   offset="0"
   style="stop-color:#806600;stop-opacity:1"
   id="stop188" />
				<stop
   offset="0.3"
   style="stop-color:#ffcc00;stop-opacity:1"
   id="stop190" />
				<stop
   offset="0.7"
   style="stop-color:#ffcc00;stop-opacity:1"
   id="stop192" />
				<stop
   offset="1"
   style="stop-color:#806600;stop-opacity:1"
   id="stop194" />
			</linearGradient>
			<path
   style="fill:url(#SVGID_11_);"
   d="M32,46.75c-14.5844002,0-17.4166679,0.1209679-17.4166679,0.1209679v0.9714279     c0,0,2.3340616,0.3242722,17.4166679,0.3242722s17.4166679-0.3242722,17.4166679-0.3242722v-0.9714279     C49.4166679,46.8709679,46.5844002,46.75,32,46.75z"
   id="path197" />
			<path
   style="fill:#231815;"
   d="M32,48.4169922c-14.9282227,0-17.3549805-0.3134766-17.4506836-0.3261719l-0.2158203-0.0302734     v-1.4287109l0.2392578-0.0107422C14.6010742,46.6201172,17.5771484,46.5,32,46.5s17.3994141,0.1201172,17.4277344,0.1210938     l0.2392578,0.0107422v1.4287109l-0.2158203,0.0302734C49.3554688,48.1035156,46.9287109,48.4169922,32,48.4169922z      M14.8334961,47.6162109C15.6850586,47.6875,19.4057617,47.9169922,32,47.9169922     c12.5947266,0,16.3154297-0.2294922,17.1669922-0.3007813v-0.5029297C48.2304688,47.0869141,44.2451172,47,32,47     c-12.2456055,0-16.2304688,0.0869141-17.1665039,0.1132813V47.6162109z"
   id="path199" />
		</g>
	</g>
</g>
<g
   id="g254">
	<g
   id="g216">
		<linearGradient
   id="SVGID_12_"
   gradientUnits="userSpaceOnUse"
   x1="18.9823914"
   y1="49.5604248"
   x2="18.9823914"
   y2="65.3651123">
			<stop
   offset="0.4"
   style="stop-color:#F7F8F8"
   id="stop207" />
			<stop
   offset="1"
   style="stop-color:#B5B5B6"
   id="stop209" />
		</linearGradient>
		<path
   style="fill:url(#SVGID_12_);"
   d="M35.1931763,65.3651123c-0.2289429-8.7653198-7.3903198-15.8046875-16.2108154-15.8046875    S3.0005493,56.5997925,2.7716064,65.3651123H35.1931763z"
   id="path212" />
		<path
   style="fill:#3E3A39;"
   d="M35.4501953,65.6152344H2.5146484l0.0068359-0.2568359    c0.2353516-8.9990234,7.4658203-16.0478516,16.4609375-16.0478516c8.9946289,0,16.2255859,7.0488281,16.4609375,16.0478516    L35.4501953,65.6152344z M3.0302734,65.1152344h31.9042969c-0.3574219-8.6025391-7.3164063-15.3046875-15.9521484-15.3046875    C10.3461914,49.8105469,3.387207,56.5126953,3.0302734,65.1152344z"
   id="path214" />
	</g>
	<g
   id="g227">
		<linearGradient
   id="SVGID_13_"
   gradientUnits="userSpaceOnUse"
   x1="19.6938934"
   y1="51.1194458"
   x2="19.6938934"
   y2="65.3651123">
			<stop
   offset="0.4"
   style="stop-color:#3E3A39"
   id="stop218" />
			<stop
   offset="1"
   style="stop-color:#231815"
   id="stop220" />
		</linearGradient>
		<path
   style="fill:url(#SVGID_13_);"
   d="M34.990509,65.3651123c-0.2384415-7.9042358-6.9868107-14.2456665-15.2966156-14.2456665    S4.6357174,57.4608765,4.3972778,65.3651123H34.990509z"
   id="path223" />
		<path
   style="fill:#231815;"
   d="M35.2480469,65.6152344H4.1396484l0.0078125-0.2578125    c0.2451172-8.1240234,7.0737305-14.4882813,15.5463867-14.4882813s15.3012695,6.3642578,15.5463867,14.4882813    L35.2480469,65.6152344z M4.6572266,65.1152344h30.0732422c-0.3720703-7.7285156-6.9262695-13.7460938-15.0366211-13.7460938    S5.0292969,57.3867188,4.6572266,65.1152344z"
   id="path225" />
	</g>
	<g
   id="g238">
		
			<radialGradient
   id="SVGID_14_"
   cx="19.7460423"
   cy="60.3339348"
   r="12.6293831"
   gradientTransform="matrix(1 0 0 0.9667088 0 2.0085905)"
   gradientUnits="userSpaceOnUse">
			<stop
   offset="0.2921811"
   style="stop-color:#CCC200"
   id="stop229" />
			<stop
   offset="1"
   style="stop-color:#666100"
   id="stop231" />
		</radialGradient>
		<path
   style="fill:url(#SVGID_14_);"
   d="M34.5312691,65.3651123c-0.220726-7.317028-6.4677582-13.187355-14.1602268-13.187355    S6.4315395,58.0480843,6.210814,65.3651123H34.5312691z"
   id="path234" />
		<path
   style="fill:#231815;"
   d="M34.7890625,65.6152344H5.953125l0.0078125-0.2578125    c0.2270508-7.5302734,6.5571289-13.4296875,14.4101563-13.4296875S34.5537109,57.8271484,34.78125,65.3574219    L34.7890625,65.6152344z M6.4711914,65.1152344h27.800293c-0.3535156-7.1357422-6.4091797-12.6875-13.9003906-12.6875    S6.824707,57.9794922,6.4711914,65.1152344z"
   id="path236" />
	</g>
	<linearGradient
   id="SVGID_15_"
   gradientUnits="userSpaceOnUse"
   x1="19.128624"
   y1="62.8553276"
   x2="19.128624"
   y2="57.9688911">
		<stop
   offset="0"
   style="stop-color:#FFFFFF;stop-opacity:0.3"
   id="stop240" />
		<stop
   offset="0.7"
   style="stop-color:#FFFFFF;stop-opacity:0.8"
   id="stop242" />
	</linearGradient>
	<ellipse
   style="fill:url(#SVGID_15_);"
   cx="19.128624"
   cy="60.4121094"
   rx="2.5195227"
   ry="2.4432194"
   id="ellipse245" />
	<linearGradient
   id="SVGID_16_"
   gradientUnits="userSpaceOnUse"
   x1="14.7220154"
   y1="56.8680229"
   x2="14.7220154"
   y2="54.1065865">
		<stop
   offset="0"
   style="stop-color:#FFFFFF;stop-opacity:0"
   id="stop247" />
		<stop
   offset="0.7"
   style="stop-color:#FFFFFF;stop-opacity:0.5"
   id="stop249" />
	</linearGradient>
	<ellipse
   style="fill:url(#SVGID_16_);"
   cx="14.7220154"
   cy="55.4873047"
   rx="1.42384"
   ry="1.3807194"
   id="ellipse252" />
</g>
</svg>