<?xml version="1.0" encoding="utf-8"?>
<!-- Generator: Adobe Illustrator 18.0.0, SVG Export Plug-In . SVG Version: 6.00 Build 0)  -->
<!DOCTYPE svg PUBLIC "-//W3C//DTD SVG 1.1//EN" "http://www.w3.org/Graphics/SVG/1.1/DTD/svg11.dtd">
<svg version="1.1" id="レイヤー_1" xmlns="http://www.w3.org/2000/svg" xmlns:xlink="http://www.w3.org/1999/xlink" x="0px"
	 y="0px" width="64px" height="64px" viewBox="0 0 64 64" style="enable-background:new 0 0 64 64;" xml:space="preserve">
<g>
	<g>
		<path style="fill:#FFB743;" d="M39.8611069,47.5804329c-5.2739067-1.5991402-2.6575546-9.3816147-2.6575546-9.3816147
			L32,39.0224876l-5.2035522-0.8236694c0,0,2.6163521,7.7824745-2.6575565,9.3816147
			c-5.2739067,1.5991364-11.7419071,2.2387924-11.7419071,8.9551735l-0.1218224,8.8295135h39.4496765l-0.1218224-8.8295135
			C51.6030159,49.8192253,45.1350174,49.1795692,39.8611069,47.5804329z"/>
		<path style="fill:#E08E0B;" d="M32,41.7122002l-4.6312714-0.7330704c0.1061077,0.9799271,0.1134396,2.090313-0.1253719,3.1373329
			c0.1329231,0.6690979,0.2921124,1.2572632,0.473793,1.5394707C28.2867088,46.5405846,30.1321182,48.4981422,32,48.4981422
			s3.7132912-1.9575577,4.2828484-2.8422089c0.1816826-0.2822075,0.3408737-0.8703728,0.473793-1.5394707
			c-0.2388115-1.04702-0.2314758-2.1574059-0.12537-3.1373329L32,41.7122002z"/>
		<path style="fill:#330600;" d="M51.9785156,65.6152344h-39.956543l0.125-9.0839844
			c0-5.9580078,4.9052734-7.2773438,9.6489258-8.5546875c0.7661133-0.2060547,1.5297852-0.4111328,2.2700195-0.6357422
			c1.1411133-0.3457031,1.9814453-1.0283203,2.4975586-2.0292969c1.4111328-2.734375,0.0102539-6.9902344-0.0039063-7.0322266
			l-0.1313477-0.3916016L32,38.7695313l5.5712891-0.8818359l-0.1308594,0.3916016
			c-0.0146484,0.0419922-1.4160156,4.2978516-0.0048828,7.0322266c0.5166016,1.0009766,1.3574219,1.6835938,2.4980469,2.0292969
			c0.7402344,0.2246094,1.5039063,0.4296875,2.2705078,0.6367188c4.7431641,1.2763672,9.6484375,2.5957031,9.6484375,8.5576172
			L51.9785156,65.6152344z M12.5288086,65.1152344h38.9418945l-0.1181641-8.5761719
			c0-5.5820313-4.5068359-6.7949219-9.2783203-8.0791016c-0.7714844-0.2080078-1.5400391-0.4150391-2.2851563-0.640625
			c-1.2763672-0.3867188-2.2177734-1.1533203-2.7978516-2.2792969c-1.2646484-2.4511719-0.4697266-5.8798828-0.1435547-7.03125
			L32,39.2753906l-0.0390625-0.0058594l-4.8095703-0.7607422c0.3261719,1.1513672,1.1210938,4.5800781-0.1425781,7.03125
			c-0.5805664,1.1259766-1.5219727,1.8925781-2.7973633,2.2792969c-0.7456055,0.2255859-1.5141602,0.4326172-2.2856445,0.640625
			c-4.7714844,1.2841797-9.2788086,2.4970703-9.2788086,8.0751953L12.5288086,65.1152344z"/>
	</g>
	<g>
		<g>
			<path style="fill:#FFB743;" d="M43.4543228,26.8590794c0,0,0.7397308-2.2662773,2.2608566-2.4134064
				c1.521122-0.1471291,2.4627991,5.3522472-0.4024124,7.7822285c-1.8136177,1.5381279-2.4834976,0.0183716-2.4834976,0.0183716
				L43.4543228,26.8590794z"/>
			<path style="fill:#330600;" d="M43.8535156,33.1660156c-0.8818359,0-1.2382813-0.7856445-1.2529297-0.8188477l-0.0273438-0.0625
				l0.6328125-5.4545898c0.0429688-0.1474609,0.8203125-2.472168,2.484375-2.6333008l0.0839844-0.0039063
				c0.5253906,0,0.984375,0.4609375,1.2919922,1.2983398c0.6289063,1.715332,0.5585938,5.1035156-1.5917969,6.9272461
				C44.8896484,32.9145508,44.34375,33.1660156,43.8535156,33.1660156z M43.0859375,32.1987305
				c0.078125,0.1333008,0.3173828,0.4672852,0.7675781,0.4672852c0.3691406,0,0.8056641-0.2114258,1.296875-0.6289063
				c1.9697266-1.6699219,2.0273438-4.7905273,1.4462891-6.3740234c-0.2226563-0.6074219-0.5302734-0.9702148-0.8222656-0.9702148
				c-1.3779297,0.1313477-2.0761719,2.2226563-2.0830078,2.2436523L43.0859375,32.1987305z"/>
		</g>
		<g>
			<path style="fill:#FFB743;" d="M20.6714211,26.8590794c0,0-0.7397289-2.2662773-2.2608547-2.4134064
				c-1.5211239-0.1471291-2.4627981,5.3522472,0.4024105,7.7822285c1.8136215,1.5381279,2.4834995,0.0183716,2.4834995,0.0183716
				L20.6714211,26.8590794z"/>
			<path style="fill:#330600;" d="M20.2714844,33.1660156L20.2714844,33.1660156
				c-0.4902344,0-1.0351563-0.2514648-1.6201172-0.7470703c-2.1508789-1.8242188-2.2211914-5.2124023-1.5917969-6.9277344
				c0.3071289-0.8374023,0.765625-1.2983398,1.2910156-1.2983398l0.0839844,0.0039063
				c1.6650391,0.1611328,2.4423828,2.4858398,2.4746094,2.5844727l0.6435547,5.503418l-0.0273438,0.0625
				C21.5102539,32.3803711,21.1538086,33.1660156,20.2714844,33.1660156z M18.3842773,24.6948242
				c-0.3266602,0-0.6328125,0.3623047-0.8549805,0.9682617c-0.5810547,1.5834961-0.5234375,4.7041016,1.4453125,6.3745117
				c0.4921875,0.4169922,0.9282227,0.628418,1.296875,0.628418c0.4511719,0,0.6904297-0.3339844,0.7675781-0.4672852
				l-0.6162109-5.3110352v0.0004883c-0.0053711,0-0.7060547-2.0649414-2.0361328-2.1933594
				C18.3857422,24.6948242,18.3852539,24.6948242,18.3842773,24.6948242z"/>
		</g>
		<path style="fill:#E08E0B;" d="M44.5241508,30.7906151c0,0,1.9052391-4.8331451,1.961277-5.4495468
			c0,0-0.7191353-2.0219822-2.157402,0.938612L44.5241508,30.7906151z"/>
		<path style="fill:#E08E0B;" d="M19.4758492,30.7906151c0,0-1.905241-4.8331451-1.961277-5.4495468
			c0,0,0.7191353-2.0219822,2.1574039,0.938612L19.4758492,30.7906151z"/>
		<g>
			<path style="fill:#E08E0B;" d="M43.2196083,9.0474787C40.1725159,7.0345988,37.5801163,6.3043184,32,6.3043184
				s-8.172514,0.7302804-11.2196064,2.7431602c-3.7309685,2.4647846-2.4645119,13.2803164-0.6558571,22.0617905
				c0.8923149,4.3323746,2.0905876,5.5993805,4.4786491,7.6945648C27.5465775,41.3861618,29.5717716,42.4339981,32,42.4339981
				s3.4504814-0.6636238,6.6683388-3.2379112c3.6423721-2.9138985,4.3148117-3.7544441,5.2071266-8.0868187
				C45.6841164,22.327795,46.950573,11.5122633,43.2196083,9.0474787z"/>
			<path style="fill:#330600;" d="M32,42.6835938c-2.4443359,0-4.4936523-1.0009766-7.5620117-3.6923828
				c-2.3618164-2.0712891-3.637207-3.3613281-4.5581055-7.831543c-1.8046875-8.7607422-3.1367188-19.7446289,0.7626953-22.3208008
				C23.8339844,6.730957,26.59375,6.0541992,32,6.0541992s8.1660156,0.6767578,11.3574219,2.784668
				c3.9003906,2.5771484,2.5673828,13.5605469,0.7626953,22.3208008c-0.9121094,4.4282227-1.6357422,5.3041992-5.2958984,8.2319336
				C35.4892578,42.0595703,34.4589844,42.6835938,32,42.6835938z M32,6.5541992
				c-5.3579102,0-7.9472656,0.6313477-11.0820313,2.7016602c-2.8603516,1.8896484-3.0551758,9.6328125-0.5488281,21.8032227
				c0.8886719,4.3129883,2.1196289,5.5571289,4.3989258,7.5571289C27.7329102,41.2167969,29.6928711,42.1835938,32,42.1835938
				c2.3154297,0,3.2363281-0.5625,6.5117188-3.1826172c3.59375-2.875,4.234375-3.6494141,5.1181641-7.9418945
				c2.5078125-12.1694336,2.3134766-19.9125977-0.5478516-21.8032227C39.9472656,7.1855469,37.3583984,6.5541992,32,6.5541992z"/>
		</g>
		<g>
			<path style="fill:#FFB743;" d="M43.4866028,25.1309319c-0.2819366-2.2480259-1.131237-4.8900585-2.5251465-7.8630562
				c-1.5339966,3.1450481-4.9312096,7.7601757-7.7820625,9.3432064l-3.9444427,2.190239l3.1345406-3.2457371
				c0.0188255-0.019701,1.1680107-1.2196693,2.5330238-3.1594944c-2.8302803,2.3706055-5.5344791,3.7680149-5.6999607,3.8529453
				l-1.4083538,0.7197189l0.4587975-1.5138607c0.9167213-3.023344,2.0602169-5.9079075,3.4064045-8.5980968
				c-0.6137733,0.2280865-1.2196674,0.4465408-1.8150558,0.6606178c-4.5287762,1.6315689-8.2308502,2.9726143-9.5315628,6.4056149
				c0.2831364,2.3002319,0.6624775,4.6392059,1.074707,6.8483791c0.7974243,4.2733269,1.868248,5.5230942,4.0023384,7.5897141
				C28.0202065,40.9083176,29.8300095,41.9418755,32,41.9418755s3.0835381-0.6545982,5.9591827-3.1938057
				c3.2549858-2.8742256,3.8558998-3.7033348,4.6533279-7.9766617c0.3307457-1.7724266,0.6380692-3.6284161,0.8941193-5.4810677
				L43.4866028,25.1309319z M32,34.4793358c-0.4780617,0-1.2238274-0.2043343-1.2238274-0.4659119
				c0-0.343277,1.0111732-0.8702049,1.2238274-0.8702049s1.2238274,0.5269279,1.2238274,0.8702049
				C33.2238274,34.2750015,32.4780617,34.4793358,32,34.4793358z"/>
			<path style="fill:#330600;" d="M34.4936218,22.2450542c0,0,3.9692497-2.5123024,8.0706024-0.6795235
				c0,0-0.7765198-1.6459904-3.8398476-1.4498634C36.5126305,20.2572727,34.5216408,20.788105,34.4936218,22.2450542z"/>
			<path style="fill:#330600;" d="M29.5063763,22.2450542c0,0-3.9692497-2.5123024-8.0706024-0.6795235
				c0,0,0.7765217-1.6459904,3.8398495-1.4498634C27.4873714,20.2572727,29.4783592,20.788105,29.5063763,22.2450542z"/>
			<linearGradient id="SVGID_1_" gradientUnits="userSpaceOnUse" x1="31.425787" y1="33.5179367" x2="31.425787" y2="27.4844627">
				<stop  offset="0" style="stop-color:#FFFFFF;stop-opacity:0"/>
				<stop  offset="0.4" style="stop-color:#FFFFFF;stop-opacity:0.2"/>
				<stop  offset="0.6" style="stop-color:#FFFFFF;stop-opacity:0.2"/>
				<stop  offset="1" style="stop-color:#FFFFFF;stop-opacity:0"/>
			</linearGradient>
			<path style="fill:url(#SVGID_1_);" d="M32.1652298,31.0280933c0,1.3751049-0.8837395,2.4898434-1.2794456,2.4898434
				s-0.1170101-1.544836,0.102356-2.8788815c0.20471-1.2449226,0.3719597-3.1545925,0.7676659-3.1545925
				S32.1652298,29.6529884,32.1652298,31.0280933z"/>
			<path style="fill:#330600;" d="M32,36.9600601c-2.4643898,0-3.7890739-0.7037544-3.7890739-0.7037544
				S28.4725399,37.6638184,32,37.6638184s3.7890739-1.4075127,3.7890739-1.4075127S34.4643898,36.9600601,32,36.9600601z"/>
		</g>
	</g>
	<g>
		<g>
			<linearGradient id="SVGID_2_" gradientUnits="userSpaceOnUse" x1="31.8814163" y1="2.3388829" x2="31.8814163" y2="27.1195259">
				<stop  offset="0" style="stop-color:#000000"/>
				<stop  offset="0.1316872" style="stop-color:#3E3A39"/>
				<stop  offset="0.2510288" style="stop-color:#3E3A39"/>
				<stop  offset="1" style="stop-color:#000000"/>
			</linearGradient>
			<path style="fill:url(#SVGID_2_);" d="M15.25564,16.2265911C17.1137009,5.9760709,23.9318981,4.3526225,27.0045128,4.1660042
				c2.6474285-1.0324645,5.1565971-1.28613,6.7012367-1.6812816c2.1747131-0.5563149,3.8152351,0.5656328,4.9437408,1.8986645
				C42.0163231,5.0633335,46.937664,7.5712533,48.5,16.2627697c1.0553169,4.4379749-2.9332962,10.8567562-2.9332962,10.8567562
				c-0.0729828-2.5064106-0.5465279-4.7464008-1.3330841-6.7233582c0.0577812,2.1995964-0.0801659,3.754488-0.0801659,3.754488
				c-0.3607445-2.8729305-1.5633774-6.0079098-2.9662666-8.8624134c-0.107235-0.1303978-0.2102013-0.2664185-0.319931-0.3935375
				c-1.0281982,2.8430004-4.8694115,8.4854298-8.0143814,10.2316761c0,0,3.2480927-3.3576698,5.3995895-8.069767
				c-3.4928055,4.7007484-9.355896,7.697155-9.355896,7.697155c1.2205925-4.02528,2.7114544-7.3670731,4.1896172-10.0706167
				c-0.0471611,0.0193644-0.0869331,0.0426331-0.1347694,0.0616331
				c-6.7083149,2.6652317-12.9982605,3.7068062-13.7445259,10.0089836c0,0-0.1687622-0.3503323-0.4110279-0.9517784
				c-0.1984863,0.9885807-0.3257103,2.0268764-0.3706341,3.1178513
				C18.4252281,26.9198418,14.1953773,20.6705513,15.25564,16.2265911z"/>
			<path style="fill:#050505;" d="M45.3408203,27.9570313l-0.0244141-0.8300781
				c-0.0527344-1.8413086-0.3291016-3.5913086-0.8212891-5.2231445c-0.0146484,1.3671875-0.0917969,2.2573242-0.0927734,2.269043
				l-0.2060547,2.3286133l-0.2910156-2.3193359c-0.3125-2.4907227-1.3017578-5.4458008-2.9423828-8.7836914l-0.015625-0.0185547
				c-1.2490234,3.0341797-4.9326172,8.2773438-7.9726563,9.965332l-1.4682617,0.8149414l1.1669922-1.2075195
				c0.0273438-0.0283203,2.3706055-2.4726563,4.3666992-6.0576172c-3.4638672,3.722168-7.9780273,6.0551758-8.0297852,6.081543
				l-0.5234375,0.2675781l0.1704102-0.5629883c1.0214844-3.3686523,2.3256836-6.5629883,3.8803711-9.5058594
				c-0.9628906,0.3730469-1.9135742,0.715332-2.8374023,1.0483398c-5.387207,1.940918-9.6430664,3.4741211-10.2451172,8.5595703
				l-0.1005859,0.8520508l-0.3725586-0.7729492c0,0-0.0317383-0.0654297-0.0874023-0.1884766
				c-0.1142578,0.7373047-0.1879883,1.4931641-0.2192383,2.2563477l-0.03125,0.7587891l-0.4257813-0.6289063
				c-0.175293-0.2587891-4.2792969-6.3925781-3.2055664-10.8916016c1.8974609-10.4702148,8.9482422-12.0581055,11.9375-12.2495117
				c1.8544922-0.71875,3.6333008-1.0600586,5.0649414-1.3344727c0.6269531-0.1201172,1.1694336-0.2241211,1.6293945-0.3417969
				c0.3984375-0.1020508,0.796875-0.1538086,1.1835938-0.1538086l0,0c1.4404297,0,2.7714844,0.6953125,3.9560547,2.0668945
				c3.7148438,0.7768555,8.4238281,3.5078125,9.9619141,12.0625c1.0644531,4.4741211-2.8017578,10.7675781-2.9677734,11.0332031
				L45.3408203,27.9570313z M43.9462891,19l0.5195313,1.3037109c0.7285156,1.8291016,1.1679688,3.8271484,1.3095703,5.949707
				c0.9853516-1.7958984,3.2949219-6.5126953,2.4814453-9.9331055C46.7539063,7.9633789,42.1757813,5.3505859,38.5996094,4.628418
				l-0.0849609-0.0170898l-0.0556641-0.0664063c-1.3896484-1.6391602-2.9707031-2.2597656-4.6914063-1.8178711
				c-0.4746094,0.121582-1.0229492,0.2265625-1.6586914,0.3486328c-1.4204102,0.2724609-3.1884766,0.6113281-5.0136719,1.3232422
				l-0.0756836,0.0166016c-2.8481445,0.1728516-9.6723633,1.6743164-11.5175781,11.8554688
				c-0.8286133,3.472168,1.6972656,8.1518555,2.7207031,9.8549805c0.0634766-0.8076172,0.1733398-1.6030273,0.328125-2.3735352
				l0.1645508-0.8198242l0.3125,0.7758789c0.0239258,0.059082,0.046875,0.1162109,0.0693359,0.1704102
				c1.0019531-4.7275391,5.3925781-6.3095703,10.4335938-8.1259766c1.081543-0.3896484,2.199707-0.7924805,3.328125-1.2407227
				l0.7875977-0.3334961l-0.3408203,0.6245117c-1.5917969,2.9106445-2.9316406,6.0820313-3.9882813,9.4355469
				c1.519043-0.8598633,5.9287109-3.5556641,8.7353516-7.3310547l1.4101563-1.8989258l-0.9824219,2.1518555
				c-1.2421875,2.7202148-2.8623047,5.0083008-4.0117188,6.4594727c2.6191406-2.3662109,5.3339844-6.5170898,6.1630859-8.8105469
				l0.1455078-0.402832l0.2792969,0.3251953c0.0683594,0.0791016,0.1337891,0.1611328,0.2001953,0.2436523l0.1240234,0.1533203
				c1.2392578,2.512207,2.1103516,4.7949219,2.6132813,6.8359375c0.0058594-0.4677734,0.0039063-0.9941406-0.0107422-1.5625
				L43.9462891,19z"/>
		</g>
		<linearGradient id="SVGID_3_" gradientUnits="userSpaceOnUse" x1="44.6864166" y1="6.4708328" x2="44.6864166" y2="16.2078094">
			<stop  offset="0" style="stop-color:#FFFFFF;stop-opacity:0.6"/>
			<stop  offset="1" style="stop-color:#FFFFFF;stop-opacity:0"/>
		</linearGradient>
		<path style="fill:url(#SVGID_3_);" d="M41.75,6.4708328c0,0,4.4535446,2.0611115,5.875,9.7369766
			C47.625,16.2078094,41.6172867,9.4558916,41.75,6.4708328z"/>
		
			<linearGradient id="SVGID_4_" gradientUnits="userSpaceOnUse" x1="37.8305359" y1="6.1209536" x2="37.8305359" y2="15.6718159" gradientTransform="matrix(0.9994498 0.0331685 -0.0331685 0.9994498 -0.5183742 -0.6808076)">
			<stop  offset="0" style="stop-color:#FFFFFF;stop-opacity:0.6"/>
			<stop  offset="1" style="stop-color:#FFFFFF;stop-opacity:0"/>
		</linearGradient>
		<path style="fill:url(#SVGID_4_);" d="M40.2962532,6.7980204c0,0-2.1514435,6.2846823-6.7326508,9.3326845
			C33.5636024,16.1307049,36.229557,7.871963,40.2962532,6.7980204z"/>
		<linearGradient id="SVGID_5_" gradientUnits="userSpaceOnUse" x1="29.0873299" y1="5.9011192" x2="29.0873299" y2="14.5779428">
			<stop  offset="0" style="stop-color:#FFFFFF;stop-opacity:0.6"/>
			<stop  offset="1" style="stop-color:#FFFFFF;stop-opacity:0"/>
		</linearGradient>
		<path style="fill:url(#SVGID_5_);" d="M34.9893265,5.9011192c0,0-5.0364819,1.0619717-6.2515888,2.48561
			c-1.2151051,1.4236383-5.5524025,6.1912136-5.5524025,6.1912136S33.5428238,9.8103676,34.9893265,5.9011192z"/>
		<linearGradient id="SVGID_6_" gradientUnits="userSpaceOnUse" x1="18.927084" y1="6.8628201" x2="18.927084" y2="16.8748913">
			<stop  offset="0" style="stop-color:#FFFFFF;stop-opacity:0.6"/>
			<stop  offset="1" style="stop-color:#FFFFFF;stop-opacity:0"/>
		</linearGradient>
		<path style="fill:url(#SVGID_6_);" d="M21.916666,6.8628201c0,0-4.9499645,2.5106883-5.979166,10.0120716
			C15.9375,16.8748913,21.7385521,10.4719763,21.916666,6.8628201z"/>
	</g>
</g>
</svg>
