<?xml version="1.0" encoding="utf-8"?>
<!-- Generator: Adobe Illustrator 18.0.0, SVG Export Plug-In . SVG Version: 6.00 Build 0)  -->
<!DOCTYPE svg PUBLIC "-//W3C//DTD SVG 1.1//EN" "http://www.w3.org/Graphics/SVG/1.1/DTD/svg11.dtd">
<svg version="1.1" id="レイヤー_1" xmlns="http://www.w3.org/2000/svg" xmlns:xlink="http://www.w3.org/1999/xlink" x="0px"
	 y="0px" width="64px" height="64px" viewBox="0 0 64 64" style="enable-background:new 0 0 64 64;" xml:space="preserve">
<g>
	<path style="fill:#FFFFFF;" d="M31.4895,51.7187996c13.299799,0,17.8300991-7.8164978,19.7822018-14.032299l-4.4394035-2.0429001
		c0,0-7.8603973,3.9969978-15.3427982,3.9969978c-7.4818993,0-14.7646008-3.9969978-14.7646008-3.9969978l-3.9965992,1.3339005
		C12.7283001,36.9775009,18.4123993,51.7187996,31.4895,51.7187996z"/>
	<path style="fill:#9C9C9D;" d="M31.8666992,46.7666016c-0.4384766,0-0.8764648-0.0166016-1.3154297-0.0498047
		c-9.6538086-0.7255859-15.640625-9.1640625-15.890625-9.5224609l1.6401367-1.1445313
		c0.0561523,0.0800781,5.7163086,8.0283203,14.4165039,8.6738281c5.8725586,0.4423828,11.8208008-2.4921875,17.7084961-8.7011719
		l1.4511719,1.3769531C43.9765625,43.6201172,37.9248047,46.7666016,31.8666992,46.7666016z"/>
	<path style="fill:#440E00;" d="M31.4892578,52.96875c-13.7758789,0-19.6821289-14.9072266-19.9272461-15.5410156
		c-0.1225586-0.3193359-0.1098633-0.6738281,0.0356445-0.9833984c0.1455078-0.3085938,0.4111328-0.5439453,0.7348633-0.6523438
		l3.996582-1.3339844c0.3300781-0.109375,0.6923828-0.0791016,0.996582,0.0898438
		c0.0703125,0.0380859,7.1040039,3.8427734,14.1635742,3.8427734c7.0839844,0,14.7001953-3.8232422,14.7763672-3.8613281
		c0.3408203-0.1738281,0.7421875-0.1806641,1.0888672-0.0214844l4.4394531,2.0429688
		c0.5712891,0.2636719,0.8583984,0.9101563,0.6699219,1.5107422C50.2089844,45.2412109,42.6835938,52.96875,31.4892578,52.96875z
		 M14.4370117,37.7255859C16.090332,41.1064453,21.5668945,50.46875,31.4892578,50.46875
		c9.3945313,0,15.8671875-6.1005859,18.2246094-12.1230469l-2.8681641-1.3193359
		c-1.9609375,0.9228516-8.7294922,3.8642578-15.3564453,3.8642578c-6.671875,0-13.0668945-2.9794922-14.8720703-3.8935547
		L14.4370117,37.7255859z"/>
</g>
<g>
	<g>
		<polygon style="fill:#FCEE21;" points="47.9815559,22.6918316 52.8863411,17.86096 46.0787506,16.8356609 43,10.6781206 
			39.9212494,16.8356609 33.1136589,17.86096 38.0184441,22.6918316 36.8899269,29.4830456 43,26.3111477 49.1100731,29.4830456 		
			"/>
		<path style="fill:#330100;" d="M50.4248047,31.2919922L43,27.4375l-7.4248047,3.8544922l1.3720703-8.2519531l-5.9604492-5.8701172
			l8.2719727-1.2460938L43,8.4423828l3.7412109,7.4814453l8.2724609,1.2460938l-5.9609375,5.8701172L50.4248047,31.2919922z
			 M43,25.1845703l4.7958984,2.4892578L46.9101563,22.34375l3.8496094-3.7919922l-5.3427734-0.8046875L43,12.9140625
			l-2.4169922,4.8330078l-5.3427734,0.8046875l3.8496094,3.7919922l-0.8857422,5.3300781L43,25.1845703z"/>
	</g>
	<g>
		<polygon style="fill:#FCEE21;" points="16.0184441,22.6918316 11.113657,17.86096 17.9212494,16.8356609 21,10.6781206 
			24.0787506,16.8356609 30.886343,17.86096 25.9815559,22.6918316 27.110075,29.4830456 21,26.3111477 14.889925,29.4830456 		"/>
		<path style="fill:#330100;" d="M28.4243164,31.2919922L21,27.4379883l-7.4243164,3.8540039l1.3710938-8.2519531
			l-5.9594727-5.8701172l8.2719727-1.2460938L21,8.4423828l3.7407227,7.4814453l8.2719727,1.2460938l-5.9594727,5.8701172
			L28.4243164,31.2919922z M21,25.184082l4.7954102,2.4897461L24.909668,22.34375l3.8500977-3.7919922l-5.3432617-0.8046875
			L21,12.9140625l-2.4165039,4.8330078l-5.3432617,0.8046875L17.090332,22.34375l-0.8857422,5.3300781L21,25.184082z"/>
	</g>
</g>
</svg>
