<?xml version="1.0" encoding="UTF-8" standalone="no"?>
<!-- Generated by phantom_svg. -->

<svg
   xmlns:dc="http://purl.org/dc/elements/1.1/"
   xmlns:cc="http://creativecommons.org/ns#"
   xmlns:rdf="http://www.w3.org/1999/02/22-rdf-syntax-ns#"
   xmlns:svg="http://www.w3.org/2000/svg"
   xmlns="http://www.w3.org/2000/svg"
   xmlns:sodipodi="http://sodipodi.sourceforge.net/DTD/sodipodi-0.dtd"
   xmlns:inkscape="http://www.inkscape.org/namespaces/inkscape"
   width="64px"
   height="64px"
   viewBox="0 0 64 64"
   preserveAspectRatio="none"
   version="1.1"
   id="svg7119"
   inkscape:version="0.91 r13725"
   sodipodi:docname="purple_heart.svg">
  <metadata
     id="frame0_metadata34">
    <rdf:RDF>
      <cc:Work
         rdf:about="">
        <dc:format>
           image/svg+xml 
        </dc:format>
        <dc:type
           rdf:resource="http://purl.org/dc/dcmitype/StillImage" />
      </cc:Work>
    </rdf:RDF>
  </metadata>
  <defs
     id="frame0_defs32" />
  <sodipodi:namedview
     pagecolor="#ffffff"
     bordercolor="#666666"
     borderopacity="1"
     objecttolerance="10"
     gridtolerance="10"
     guidetolerance="10"
     inkscape:pageopacity="0"
     inkscape:pageshadow="2"
     inkscape:window-width="862"
     inkscape:window-height="480"
     id="frame0_namedview30"
     showgrid="false"
     inkscape:zoom="3.6875"
     inkscape:cx="32"
     inkscape:cy="32"
     inkscape:window-x="0"
     inkscape:window-y="26"
     inkscape:window-maximized="0"
     inkscape:current-layer="svg7119" />
  <g
     id="frame0_g3"
     transform="matrix(0.40983882,0,0,0.40983001,18.885121,-0.55977153)">
    <g
       id="frame0_g5">
      <path
         style="fill:#6c007c"
         d="M 32,56.949219 30.885742,56.320312 C 30.17041,55.916016 13.297363,46.289062 7.5556641,33.952148 4.2607422,26.871094 4.3706055,19.385254 7.850586,13.927246 10.500977,9.7709961 14.854492,7.387207 19.794922,7.387207 c 6.132812,0 10.00293,3.682617 12.205078,7.575684 2.202148,-3.89209 6.073242,-7.5747074 12.205078,-7.5747074 4.94043,0 9.294922,2.3837891 11.944336,6.5405274 3.480469,5.457519 3.589844,12.942871 0.294922,20.023437 C 50.703125,46.289062 33.830078,55.916016 33.114258,56.320312 L 32,56.949219 Z M 19.794922,11.921387 c -3.409668,0 -6.293945,1.578125 -8.121094,4.443847 -2.642578,4.14502 -2.6455077,10.003907 -0.0068,15.67334 4.342774,9.331543 16.568848,17.358887 20.332031,19.667481 3.762696,-2.310547 15.999024,-10.352539 20.333985,-19.667481 2.638672,-5.668945 2.635742,-11.527344 -0.0068,-15.672363 -1.827148,-2.865723 -4.710938,-4.443848 -8.121094,-4.443848 -8.176758,0 -9.953125,9.833985 -9.970703,9.933594 L 32,34.920898 29.765137,21.855957 c -0.0708,-0.399414 -1.851563,-9.93457 -9.970215,-9.93457 z"
         id="frame0_path7"
         inkscape:connector-curvature="0" />
      <linearGradient
         id="frame0_SVGID_1_"
         gradientUnits="userSpaceOnUse"
         x1="31.999512"
         y1="2.8847656"
         x2="31.99951"
         y2="48.213074">
        <stop
           offset="0"
           style="stop-color:#FFFFFF"
           id="frame0_stop10" />
        <stop
           offset="0.509091"
           style="stop-color:#BD1FFF"
           id="frame0_stop12" />
        <stop
           offset="0.6081"
           style="stop-color:#BE23FF"
           id="frame0_stop14" />
        <stop
           offset="0.7088853"
           style="stop-color:#C22FFF"
           id="frame0_stop16" />
        <stop
           offset="0.8104798"
           style="stop-color:#C844FF"
           id="frame0_stop18" />
        <stop
           offset="0.9120193"
           style="stop-color:#D060FF"
           id="frame0_stop20" />
        <stop
           offset="1"
           style="stop-color:#D97FFF"
           id="frame0_stop22" />
      </linearGradient>
      <path
         style="fill:url(#frame0_SVGID_1_)"
         d="m 32,54.345703 c 0,0 -16.888184,-9.53125 -22.3886719,-21.350586 -5.5004883,-11.819336 0,-23.3408201 10.1835939,-23.3408201 C 29.978516,9.6542969 32,21.473633 32,21.473633 c 0,0 2.021484,-11.8183596 12.205078,-11.8183596 10.183594,0 15.68457,11.5205076 10.183594,23.3398436 C 48.888672,44.814453 32,54.345703 32,54.345703 Z"
         id="frame0_path24"
         inkscape:connector-curvature="0" />
    </g>
    <path
       style="fill:#ffffff"
       d="m 11.942871,18.206543 c 0.369141,-4.696289 5.882813,-5.076172 7.816406,-1.933594 1.933594,3.142578 -8.380371,9.104981 -7.816406,1.933594 z"
       id="frame0_path26"
       inkscape:connector-curvature="0" />
    <path
       style="opacity:0.25;fill:#ffffff"
       d="m 32.330078,48.585937 c 3.179688,0 19.338867,-9.427734 19.338867,-16.599609 0,-7.171875 -5.399414,-6.286133 -10.15332,1.852539 -4.753906,8.138672 -7.816406,10.959961 -9.991699,11.765625 -2.175293,0.805664 -1.369629,2.981445 0.806152,2.981445 z"
       id="frame0_path28"
       inkscape:connector-curvature="0" />
  </g>
</svg>
