<?xml version="1.0" encoding="UTF-8" standalone="no"?>
<!-- Generated by phantom_svg. -->

<svg
   xmlns:dc="http://purl.org/dc/elements/1.1/"
   xmlns:cc="http://creativecommons.org/ns#"
   xmlns:rdf="http://www.w3.org/1999/02/22-rdf-syntax-ns#"
   xmlns:svg="http://www.w3.org/2000/svg"
   xmlns="http://www.w3.org/2000/svg"
   xmlns:sodipodi="http://sodipodi.sourceforge.net/DTD/sodipodi-0.dtd"
   xmlns:inkscape="http://www.inkscape.org/namespaces/inkscape"
   width="64px"
   height="64px"
   viewBox="0 0 64 64"
   preserveAspectRatio="none"
   version="1.1"
   id="svg7204"
   inkscape:version="0.91 r13725"
   sodipodi:docname="sparkling_heart.svg">
  <metadata
     id="frame0_metadata38">
    <rdf:RDF>
      <cc:Work
         rdf:about="">
        <dc:format>
           image/svg+xml 
        </dc:format>
        <dc:type
           rdf:resource="http://purl.org/dc/dcmitype/StillImage" />
      </cc:Work>
    </rdf:RDF>
  </metadata>
  <defs
     id="frame0_defs36" />
  <sodipodi:namedview
     pagecolor="#ffffff"
     bordercolor="#666666"
     borderopacity="1"
     objecttolerance="10"
     gridtolerance="10"
     guidetolerance="10"
     inkscape:pageopacity="0"
     inkscape:pageshadow="2"
     inkscape:window-width="1920"
     inkscape:window-height="1017"
     id="frame0_namedview34"
     showgrid="false"
     inkscape:zoom="4"
     inkscape:cx="32.041864"
     inkscape:cy="52.480441"
     inkscape:window-x="1920"
     inkscape:window-y="26"
     inkscape:window-maximized="1"
     inkscape:current-layer="frame0_g3" />
  <g
     id="frame0_g3">
    <g
       id="g18186"
       transform="matrix(0.42180592,0,0,0.42180592,18.502248,-0.3555493)">
      <g
         style="opacity:0.86000001"
         id="frame0_g5">
        <path
           id="frame0_path7"
           d="M 32,56.241211 30.91748,55.629883 C 30.222168,55.238281 13.828125,45.883789 8.2495117,33.896484 5.0473633,27.016602 5.1542969,19.743164 8.5356445,14.44043 11.11084,10.401367 15.34082,8.0854492 20.141113,8.0854492 c 5.958985,0 9.719239,3.5786138 11.858887,7.3613278 2.139648,-3.782226 5.900391,-7.3603513 11.859375,-7.3603513 4.799805,0 9.030273,2.3159183 11.604492,6.3540043 3.381836,5.302246 3.488281,12.575683 0.28711,19.456054 C 50.172852,45.883789 33.77832,55.238281 33.083008,55.629883 L 32,56.241211 Z M 20.141113,12.490723 c -3.312988,0 -6.115234,1.533691 -7.890625,4.317871 -2.5678708,4.027832 -2.5703122,9.720703 -0.0068,15.228515 C 16.455566,41.087891 28.342773,48.901367 32,51.146484 35.657227,48.901367 47.545898,41.087891 51.756836,32.037598 c 2.563476,-5.508789 2.560547,-11.201661 -0.0078,-15.228516 -1.774414,-2.78418 -4.577148,-4.317383 -7.889648,-4.317383 -7.887695,0 -9.619141,9.26416 -9.689453,9.658692 L 31.963379,34.611328 29.828613,22.144043 c -0.06885,-0.388184 -1.799316,-9.65332 -9.6875,-9.65332 z"
           style="fill:#c10021"
           inkscape:connector-curvature="0" />
        <linearGradient
           y2="47.753128"
           x2="31.999998"
           y1="3.7104492"
           x1="32"
           gradientUnits="userSpaceOnUse"
           id="frame0_SVGID_1_">
          <stop
             id="frame0_stop10"
             style="stop-color:#FFFFFF"
             offset="0" />
          <stop
             id="frame0_stop12"
             style="stop-color:#FF1F3F"
             offset="0.509091" />
          <stop
             id="frame0_stop14"
             style="stop-color:#FF2243"
             offset="0.6614935" />
          <stop
             id="frame0_stop16"
             style="stop-color:#FF2C4F"
             offset="0.8165283" />
          <stop
             id="frame0_stop18"
             style="stop-color:#FF3C64"
             offset="0.9723371" />
          <stop
             id="frame0_stop20"
             style="stop-color:#FF3F68"
             offset="1" />
        </linearGradient>
        <path
           id="frame0_path22"
           d="m 32,53.711914 c 0,0 -16.40918,-9.260742 -21.753418,-20.745117 -5.3447266,-11.483887 0,-22.678711 9.894531,-22.678711 C 30.035645,10.288086 32,21.772461 32,21.772461 c 0,0 1.964844,-11.483399 11.859375,-11.483399 9.894531,0 15.238281,11.193848 9.894531,22.677735 C 48.410156,44.451172 32,53.711914 32,53.711914 Z"
           style="fill:url(#frame0_SVGID_1_)"
           inkscape:connector-curvature="0" />
      </g>
      <path
         id="frame0_path24"
         d="m 7.581543,42.061523 c 0,0 5.240723,-0.575195 6.046875,-11.977539 0,0 2.475586,11.977539 6.045898,12.783203 0,0 -4.837402,3.339844 -5.874023,14.28125 0,0 -3.515137,-16.168945 -6.21875,-15.086914 z"
         style="opacity:0.86000001;fill:#ff7ff2;fill-opacity:1"
         inkscape:connector-curvature="0" />
      <path
         id="frame0_path26"
         d="m 42.617187,16.071777 c 0,0 7.077149,-2.272461 8.153321,-13.2514645 0,0 0.816406,9.3291015 6,13.2514645 0,0 -4.493164,4.293457 -7.076172,15.273438 0,0 -0.630859,-14.713379 -7.077149,-15.273438 z"
         style="opacity:0.86000001;fill:#1feaff;fill-opacity:1"
         inkscape:connector-curvature="0" />
      <path
         id="frame0_path28"
         d="m 48.90332,47.34668 c 0,0 4.035157,-1.674805 4.998047,-6.756836 0,0 0.65918,6.61914 2.869141,7.950195 0,0 -3.014649,0.944336 -3.933594,8.608398 0,0 -1.230469,-7.789062 -3.933594,-9.801757 z"
         style="opacity:0.86000001;fill:#f8ff1f;fill-opacity:1"
         inkscape:connector-curvature="0" />
      <path
         id="frame0_path30"
         d="m 14.056152,16.15625 c 1.466309,-2.050293 3.722168,-3.611816 5.734864,-2.460449 2.013183,1.150879 -0.702637,7.039551 -4.044922,6.777344 -3.342285,-0.262696 -2.327149,-3.42627 -1.689942,-4.316895 z"
         style="opacity:0.86000001;fill:#ffffff"
         inkscape:connector-curvature="0" />
      <path
         id="frame0_path32"
         d="m 32.835937,50.507812 c 2.294922,0.357422 18.442383,-12.458984 19.50879,-18.506835 1.385742,-7.856446 -10.082032,9.490234 -14.836915,13.588867 -4.754882,4.098633 -5.989257,4.71289 -4.671875,4.917968 z"
         style="opacity:0.86000001;fill:#ffffff"
         inkscape:connector-curvature="0" />
    </g>
  </g>
</svg>
