<?xml version="1.0" encoding="utf-8"?>
<!-- Generator: Adobe Illustrator 17.0.0, SVG Export Plug-In . SVG Version: 6.00 Build 0)  -->
<!DOCTYPE svg PUBLIC "-//W3C//DTD SVG 1.1//EN" "http://www.w3.org/Graphics/SVG/1.1/DTD/svg11.dtd">
<svg version="1.1" id="レイヤー_1" xmlns="http://www.w3.org/2000/svg" xmlns:xlink="http://www.w3.org/1999/xlink" x="0px"
	 y="0px" width="64px" height="64px" viewBox="0 0 64 64" style="enable-background:new 0 0 64 64;" xml:space="preserve">
<g>
	<g>
		<linearGradient id="SVGID_1_" gradientUnits="userSpaceOnUse" x1="32" y1="61.4627419" x2="32" y2="82">
			<stop  offset="0" style="stop-color:#FFFFFF"/>
			<stop  offset="1" style="stop-color:#FF7D7D"/>
		</linearGradient>
		<path style="fill:url(#SVGID_1_);" d="M35.332756,61.4627419c0,0,5.5545921,0.5407257,5.5545921,7.206234
			c0,10.9679337,0,13.3310242,0,13.3310242H23.1126518c0,0,0-2.3630905,0-13.3310242
			c0-6.6655083,5.5545921-7.206234,5.5545921-7.206234H35.332756z"/>
		<path style="fill:#231815;" d="M41.1376953,82.25H22.862793V68.6689453c0-6.8134766,5.7226563-7.4492188,5.7802734-7.4550781
			l6.6899414-0.0009766c0.0820313,0.0068359,5.8046875,0.6425781,5.8046875,7.4560547V82.25z M23.362793,81.75h17.2749023
			V68.6689453c0-6.3505859-5.1113281-6.9355469-5.3291016-6.9570313l-6.6411133,0.0009766
			c-0.1928711,0.0205078-5.3046875,0.6054688-5.3046875,6.9560547V81.75z"/>
	</g>
	<g>
		<g>
			<path style="fill:#FFB743;" d="M34.5401688,55.3379555H32h-2.5401382c0,0-0.1250896,5.0463371-0.5549526,6.080883
				c0,0,1.0961781,1.5862694,3.0950909,1.5862694s3.0950928-1.5862694,3.0950928-1.5862694
				C34.665226,60.3842926,34.5401688,55.3379555,34.5401688,55.3379555z"/>
			<path style="fill:#231815;" d="M32,63.2548828c-2.105957,0-3.2529297-1.625-3.3007813-1.6933594l-0.0776367-0.1123047
				l0.0522461-0.1259766c0.3383789-0.8134766,0.5019531-4.6005859,0.5361328-5.9912109l0.0063477-0.2441406h5.5678711
				l0.0058594,0.2441406c0.0341797,1.390625,0.1982422,5.1777344,0.5351563,5.9912109l0.0527344,0.1259766l-0.0771484,0.1123047
				C35.2529297,61.6298828,34.1054688,63.2548828,32,63.2548828z M29.1860352,61.3740234
				C29.456543,61.703125,30.4423828,62.7548828,32,62.7548828c1.5654297,0,2.5449219-1.0507813,2.8134766-1.3808594
				c-0.3535156-1.1416016-0.4863281-4.7939453-0.5166016-5.7861328h-4.59375
				C29.6728516,56.5791016,29.5400391,60.2304688,29.1860352,61.3740234z"/>
		</g>
		<g>
			<path style="fill:#FFB743;" d="M39.1198692,51.8726768c0,0,1.857605-1.1511917,1.857605,2.3023872
				c0,3.4535751-5.5728188,3.4535751-5.5728188,3.4535751L39.1198692,51.8726768z"/>
			<path style="fill:#231815;" d="M35.4042969,57.8789063h-0.4589844l4.0429688-6.21875
				c0.0146484-0.0087891,0.3632813-0.2216797,0.7861328-0.2216797c0.6630859,0,1.453125,0.4746094,1.453125,2.7363281
				C41.2275391,57.8369141,35.6416016,57.8789063,35.4042969,57.8789063z M39.2958984,52.0615234l-3.4189453,5.2958984
				c1.3046875-0.09375,4.8505859-0.5878906,4.8505859-3.1826172c0-0.8349609-0.1240234-2.2363281-0.953125-2.2363281
				C39.5673828,51.9384766,39.3789063,52.0205078,39.2958984,52.0615234z"/>
		</g>
		<g>
			<path style="fill:#FFB743;" d="M24.8801308,51.8726768c0,0-1.857605-1.1511917-1.857605,2.3023872
				c0,3.4535751,5.5728188,3.4535751,5.5728188,3.4535751L24.8801308,51.8726768z"/>
			<path style="fill:#231815;" d="M29.0541992,57.8789063h-0.4589844c-0.237793,0-5.8227539-0.0419922-5.8227539-3.7041016
				c0-2.2617188,0.7905273-2.7363281,1.4536133-2.7363281c0.4233398,0,0.7714844,0.2128906,0.7861328,0.2216797l0.078125,0.0771484
				L29.0541992,57.8789063z M24.2260742,51.9384766c-0.8295898,0-0.9536133,1.4013672-0.9536133,2.2363281
				c0,2.5986328,3.5463867,3.0898438,4.8500977,3.1826172l-3.4179688-5.2958984
				C24.621582,52.0205078,24.4331055,51.9384766,24.2260742,51.9384766z"/>
		</g>
		<g>
			<path style="fill:#FFB743;" d="M32,43.7195549c-4.4228573,0-6.7917652,2.6563301-6.7917652,8.7271233
				c0,3.5931282,0.3427792,5.0272713,1.7605152,6.2240334c1.3240299,1.1175613,3.5014992,1.9441071,5.03125,1.9441071
				s3.7072182-0.8265457,5.03125-1.9441071c1.4177361-1.1967621,1.7605133-2.6309052,1.7605133-6.2240334
				C38.7917633,46.375885,36.4228592,43.7195549,32,43.7195549z"/>
			<path style="fill:#231815;" d="M32,60.8652344c-1.6064453,0-3.8388672-0.8613281-5.1923828-2.0029297
				c-1.4345703-1.2119141-1.8496094-2.6503906-1.8496094-6.4160156c0-6.0400391,2.3032227-8.9765625,7.0419922-8.9765625
				c4.7382813,0,7.0419922,2.9365234,7.0419922,8.9765625c0,3.765625-0.4150391,5.2041016-1.8496094,6.4160156
				C35.8388672,60.0039063,33.6064453,60.8652344,32,60.8652344z M32,43.9697266
				c-4.4018555,0-6.5419922,2.7724609-6.5419922,8.4765625c0,3.6279297,0.359375,4.9248047,1.671875,6.0332031
				C28.3833008,59.5371094,30.5224609,60.3652344,32,60.3652344s3.6171875-0.828125,4.8701172-1.8857422
				c1.3125-1.1083984,1.671875-2.4052734,1.671875-6.0332031C38.5419922,46.7421875,36.4023438,43.9697266,32,43.9697266z"/>
		</g>
	</g>
	<g>
		<path style="fill:#231815;" d="M30.482399,57.1412239c0,0,0.7588005,0.2029076,1.517601,0.2029076
			s1.517601-0.2029076,1.517601-0.2029076S33.3839989,58.2780609,32,58.2780609S30.482399,57.1412239,30.482399,57.1412239z"/>
		<g>
			<g>
				<path style="fill:#F5F5F5;" d="M33.5696182,53.7745247c0-0.333744,0.4338493-1.7733955,1.8680305-1.7733955
					c1.4341774,0,1.8443642,1.3511429,1.8443642,1.3511429s-0.2460556,1.2645378-1.8444901,1.2645378
					C34.4345131,54.6168098,33.5696182,54.1082726,33.5696182,53.7745247z"/>
				<ellipse style="fill:#231815;" cx="35.2908516" cy="53.233345" rx="1.1528215" ry="1.331249"/>
				<ellipse style="fill:#3E3A39;" cx="35.2908516" cy="53.233345" rx="0.8980619" ry="1.1156204"/>
				<ellipse style="fill:#231815;" cx="35.2908516" cy="53.233345" rx="0.4356443" ry="0.5411806"/>
				<path style="fill:#231815;" d="M35.2908516,51.7610512c-1.5559311,0-1.8854332,1.4469833-1.936142,1.7192993
					c0.1540604-0.2005272,0.8667297-1.3652077,1.9215698-1.3480492c1.3307648,0.0216446,1.917347,1.2775345,1.917347,1.2775345
					c-0.0184059,0.0346909,0.175827,0.3646889,0.4598503-0.2068138
					C37.6534767,53.203022,37.0338478,51.7610512,35.2908516,51.7610512z"/>
				<ellipse style="fill:#FFFFFF;" cx="34.8062859" cy="52.6886749" rx="0.2810104" ry="0.2922278"/>
			</g>
			<g>
				<path style="fill:#F5F5F5;" d="M30.4303837,53.7745247c0-0.333744-0.4338531-1.7733955-1.8680325-1.7733955
					s-1.8443661,1.3511429-1.8443661,1.3511429s0.2460575,1.2645378,1.8444901,1.2645378
					C29.5654869,54.6168098,30.4303837,54.1082726,30.4303837,53.7745247z"/>
				<ellipse style="fill:#231815;" cx="28.7091465" cy="53.233345" rx="1.1528215" ry="1.331249"/>
				<ellipse style="fill:#3E3A39;" cx="28.7091465" cy="53.233345" rx="0.8980619" ry="1.1156204"/>
				<ellipse style="fill:#231815;" cx="28.7091465" cy="53.233345" rx="0.4356443" ry="0.5411806"/>
				<path style="fill:#231815;" d="M28.7091465,51.7610512c1.5559311,0,1.8854351,1.4469833,1.9361439,1.7192993
					c-0.1540604-0.2005272-0.8667316-1.3652077-1.9215679-1.3480492c-1.3307667,0.0216446-1.9173489,1.2775345-1.9173489,1.2775345
					c0.018404,0.0346909-0.1758251,0.3646889-0.4598522-0.2068138
					C26.3465214,53.203022,26.9661503,51.7610512,28.7091465,51.7610512z"/>
				<ellipse style="fill:#FFFFFF;" cx="28.2245827" cy="52.6886749" rx="0.2810104" ry="0.2922278"/>
			</g>
		</g>
		<g>
			<path style="fill:#231815;" d="M33.2728615,50.2285767c0,0,0.8485718-1.0069771,2.6616402-0.1000366
				C35.9345016,50.12854,34.2462273,50.4727516,33.2728615,50.2285767z"/>
			<path style="fill:#231815;" d="M30.7271385,50.2285767c0,0-0.8485737-1.0069771-2.6616421-0.1000366
				C28.0654964,50.12854,29.7537746,50.4727516,30.7271385,50.2285767z"/>
		</g>
		<linearGradient id="SVGID_2_" gradientUnits="userSpaceOnUse" x1="31.5693703" y1="56.0847282" x2="31.5693703" y2="54.3489647">
			<stop  offset="0" style="stop-color:#FFFFFF;stop-opacity:0.05"/>
			<stop  offset="0.5" style="stop-color:#FFFFFF;stop-opacity:0.4"/>
			<stop  offset="1" style="stop-color:#FFFFFF;stop-opacity:0.05"/>
		</linearGradient>
		<path style="fill:url(#SVGID_2_);" d="M31.9652882,55.2168465c0,0.4793167-0.4731789,0.8678818-0.685051,0.8678818
			c-0.211874,0-0.0626526-0.5384827,0.0548038-1.0034866c0.1096077-0.4339409,0.1991577-0.7322769,0.4110317-0.7322769
			C31.9579449,54.3489647,31.9652882,54.7375298,31.9652882,55.2168465z"/>
	</g>
	<g>
		<g>
			<linearGradient id="SVGID_3_" gradientUnits="userSpaceOnUse" x1="31.8003922" y1="41.9375" x2="31.8003922" y2="55.6851158">
				<stop  offset="0.1504425" style="stop-color:#714E2D"/>
				<stop  offset="0.9955752" style="stop-color:#312214"/>
			</linearGradient>
			<path style="fill:url(#SVGID_3_);" d="M37.7768593,45.5357132c0.7038841-0.2516937,1.1446838-0.7167664,1.1446838-0.7167664
				c-1.1161385-1.11092-2.2001381-0.8331909-2.2001381-0.8331909c0.2082977-1.7242393-3.1517868-2.0482559-3.1517868-2.0482559
				c0.2428818,0.875,0.955658,1.3647957,1.2539902,1.698719c0,0-1.2539902-0.5183678-2.8236084-0.5183678
				c-4.4436741,0-11.0050373,4.0982742-7.2310734,12.5672646c0,0,0.2307415-3.5179291,0.49613-4.9644165
				c0,0,0.2378597,1.5469742,0.9026203,1.9277687c0,0-0.3587551-3.0837784,1.1535015-5.5219116
				c0,0-0.6031952,2.8138428,0.2351475,4.7755127c0,0,0.6230011-6.4506836,7.2988834-6.3708191
				c0,0,2.2385406,1.9246445,2.2480736,6.6359367c0,0,0.8910484-0.6359367,1.0877953-2.418541
				c0,0,0.5246773,5.3481941,0.8125076,5.93647C39.0035858,55.6851158,41.8185844,48.6683769,37.7768593,45.5357132z"/>
			<path style="fill:#2E1E15;" d="M24.9521484,56.7109375l-0.4116211-0.9238281
				c-1.9516602-4.3798828-1.0488281-7.3212891,0.0522461-9.0166016c1.75-2.6962891,4.980957-3.9023438,7.4072266-3.9023438
				c0.7524414,0,1.4316406,0.1142578,1.9443359,0.2363281c-0.2480469-0.2851563-0.4892578-0.6455078-0.6162109-1.0996094
				l-0.0966797-0.3515625l0.3623047,0.0351563c0.0908203,0.0087891,2.2402344,0.2275391,3.0615234,1.2490234
				c0.1884766,0.2333984,0.2949219,0.4912109,0.3203125,0.7685547c0.4013672-0.0205078,1.2578125,0.0742188,2.1230469,0.9365234
				l0.1728516,0.171875l-0.1679688,0.1767578c-0.0166016,0.0175781-0.3320313,0.3457031-0.8554688,0.6123047
				c3.6816406,3.3115234,1.1025391,9.8896484,0.9882813,10.1748047l-0.2099609,0.5224609l-0.2470703-0.5058594
				c-0.2099609-0.4296875-0.5117188-2.9570313-0.6904297-4.6132813c-0.3505859,0.8300781-0.8125,1.1689453-0.8398438,1.1884766
				l-0.3945313,0.2822266l-0.0009766-0.484375c-0.0087891-4.0830078-1.7431641-6.03125-2.0986328-6.3876953h-0.0224609
				c-6.2607422,0-6.9033203,5.8955078-6.9272461,6.1464844l-0.0942383,0.9736328l-0.3847656-0.8994141
				c-0.4550781-1.0654297-0.5053711-2.3496094-0.4482422-3.3408203c-0.6772461,1.9794922-0.4648438,3.9355469-0.4619141,3.9599609
				l0.0561523,0.4912109l-0.4291992-0.2460938c-0.3120117-0.1787109-0.5380859-0.546875-0.6967773-0.9257813
				c-0.1850586,1.6064453-0.3256836,3.7353516-0.3276367,3.7626953L24.9521484,56.7109375z M38.2060547,47.3408203
				l0.234375,2.3837891c0.1503906,1.5332031,0.4072266,3.8212891,0.6083984,5.0458984
				c0.5791016-1.9130859,1.6201172-6.6767578-1.4248047-9.0371094l-0.3603516-0.2792969l0.4296875-0.1533203
				c0.3779297-0.1357422,0.6757813-0.3408203,0.8564453-0.484375c-0.9472656-0.8056641-1.7636719-0.5878906-1.7675781-0.5888672
				L36.4326172,44.3125l0.0410156-0.3574219c0.03125-0.2607422-0.0361328-0.4912109-0.2080078-0.7041016
				c-0.4658203-0.5800781-1.5996094-0.8847656-2.3095703-1.0078125c0.2109375,0.4179688,0.5371094,0.7255859,0.7900391,0.9648438
				c0.1025391,0.0966797,0.1933594,0.1835938,0.2636719,0.2607422l0.7265625,0.8125l-1.0078125-0.4140625
				C34.7158203,43.8623047,33.4970703,43.3681641,32,43.3681641c-2.2910156,0-5.3398438,1.1357422-6.987793,3.6738281
				c-1.3325195,2.0537109-1.4711914,4.6484375-0.4150391,7.5537109c0.0893555-1.1601563,0.2470703-2.9677734,0.421875-3.9199219
				l0.2670898-1.4541016l0.2260742,1.4609375c0.0522461,0.3388672,0.1811523,0.8330078,0.3662109,1.2177734
				c-0.0102539-1.0947266,0.1396484-3.1464844,1.2304688-4.9052734l0.7573242-1.2207031l-0.300293,1.4052734
				c-0.0048828,0.0224609-0.4135742,1.9794922-0.0585938,3.7109375c0.4941406-1.8417969,2.1289063-5.6103516,7.2250977-5.6103516
				l0.2167969,0.0019531l0.0693359,0.0595703c0.0908203,0.078125,2.1240234,1.8759766,2.3203125,6.1835938
				c0.2333984-0.3505859,0.5068359-0.9296875,0.6044922-1.8037109L38.2060547,47.3408203z"/>
		</g>
		<linearGradient id="SVGID_4_" gradientUnits="userSpaceOnUse" x1="28.9762936" y1="45.1284294" x2="28.9762936" y2="49.7833633">
			<stop  offset="0" style="stop-color:#8F6B3F"/>
			<stop  offset="0.9955752" style="stop-color:#714E2D"/>
		</linearGradient>
		<path style="fill:url(#SVGID_4_);" d="M30.28125,45.1284294c0,0-2.076889,1.6693382-2.6092033,4.6549339
			C27.6720467,49.7833633,27.5563259,45.1284294,30.28125,45.1284294z"/>
		<linearGradient id="SVGID_5_" gradientUnits="userSpaceOnUse" x1="25.328537" y1="45.9877243" x2="25.328537" y2="51.7610512">
			<stop  offset="0" style="stop-color:#8F6B3F"/>
			<stop  offset="0.9955752" style="stop-color:#714E2D"/>
		</linearGradient>
		<path style="fill:url(#SVGID_5_);" d="M26.3465214,45.9877243c0,0-2.5626888,1.7798309-1.9377975,5.7733269
			C24.4087238,51.7610512,24.8821316,47.4920921,26.3465214,45.9877243z"/>
		<linearGradient id="SVGID_6_" gradientUnits="userSpaceOnUse" x1="38.7414856" y1="46.3580284" x2="38.7414856" y2="51.7610512">
			<stop  offset="0" style="stop-color:#8F6B3F"/>
			<stop  offset="0.9955752" style="stop-color:#714E2D"/>
		</linearGradient>
		<path style="fill:url(#SVGID_6_);" d="M37.9943314,46.3580284c0,0,1.9902,1.6872559,1.3769798,5.4030228
			C39.3713112,51.7610512,39.1283951,48.6261559,37.9943314,46.3580284z"/>
	</g>
</g>
<g>
</g>
<g>
</g>
<g>
</g>
<g>
</g>
<g>
</g>
<g>
</g>
</svg>
