<?xml version="1.0" encoding="utf-8"?>
<!-- Generator: Adobe Illustrator 15.0.0, SVG Export Plug-In . SVG Version: 6.00 Build 0)  -->
<!DOCTYPE svg PUBLIC "-//W3C//DTD SVG 1.1//EN" "http://www.w3.org/Graphics/SVG/1.1/DTD/svg11.dtd">
<svg version="1.1" id="レイヤー_1" xmlns="http://www.w3.org/2000/svg" xmlns:xlink="http://www.w3.org/1999/xlink" x="0px"
	 y="0px" width="256px" height="256px" viewBox="0 0 256 256" style="enable-background:new 0 0 256 256;" xml:space="preserve">
<g>
	<circle style="fill:#FFFFFF;" cx="128.5671387" cy="126.8754883" r="33.8967285"/>
	<path style="fill:#B3B3B3;" d="M227.2568359,107.4174805l-21.8183594-2.5253906
		c-1.6230469-5.487793-3.5947266-10.7392578-6.2900391-15.6723633l14.1601563-17.6586914
		c5.2431641-5.2436523,5.8623047-11.9672852,2.0673828-15.7617188l-14.8652344-14.8920898
		c-3.7958984-3.7954102-10.5058594-3.2280273-15.75,2.015625l-17.6533203,14.0571289
		c-4.9287109-2.6923828-10.1728516-4.8671875-15.6542969-6.4887695l-2.5371094-22.1328125
		C148.9160156,20.9438477,144.5644531,16,139.1962891,16h-21.0600586c-5.3662109,0-9.7167969,4.9438477-9.7167969,12.3583984
		l-2.5419922,22.2573242c-5.4824219,1.6220703-10.7290039,3.7333984-15.6577148,6.4262695L72.5605469,42.9541016
		c-5.2436523-5.2436523-11.9667969-5.8261719-15.7612305-2.03125L41.9072266,55.8071289
		c-3.7954102,3.7944336-3.2280273,10.512207,2.015625,15.7573242l14.0566406,17.6567383
		c-2.6918945,4.9291992-4.8666992,10.1748047-6.4882813,15.6567383l-22.6328125,2.5400391
		c-7.4145508,0-12.8583984,4.3520508-12.8583984,9.71875v21.0595703c0,5.3681641,5.4438477,9.7197266,12.8583984,9.7197266
		l22.5073242,2.5400391c1.6220703,5.4814453,3.859375,10.7294922,6.5512695,15.6582031l-14.0253906,17.6582031
		c-5.2436523,5.2441406-5.7949219,11.9677734-2,15.7636719l14.8999023,14.8916016
		c3.7944336,3.7939453,10.5214844,3.2285156,15.7651367-2.0166016l17.6611328-14.0566406
		c4.934082,2.6953125,10.1855469,4.8867188,15.675293,6.5097656l2.5229492,22.8925781
		c0,7.4160156,4.3540039,13.2431641,9.7202148,13.2431641h21.0600586c5.3681641,0,9.7197266-5.8251953,9.7197266-13.2431641
		l2.5234375-22.5517578c5.4902344-1.6230469,10.7382813-3.9853516,15.6748047-6.6806641l17.6582031,13.9716797
		c5.2441406,5.2421875,11.9677734,5.7685547,15.7636719,1.9736328l14.8916016-14.9130859
		c3.7939453-3.7949219,3.2285156-10.5283203-2.0166016-15.7714844l-14.0576172-17.6650391
		c2.6943359-4.9345703,4.8710938-10.1884766,6.4931641-15.6757813l21.4101563-2.5263672
		c7.4150391,0,11.7431641-4.3535156,11.7431641-9.7216797v-21.0595703
		C239,111.7700195,234.6748047,107.4174805,227.2568359,107.4174805z M128.6669922,155.7958984
		c-15.5107422,0-28.1289063-12.6181641-28.1289063-28.1289063c0-15.5102539,12.6181641-28.1289063,28.1289063-28.1289063
		s28.1289063,12.6186523,28.1289063,28.1289063C156.7958984,143.1777344,144.1777344,155.7958984,128.6669922,155.7958984z"/>
	<g>
		<g>
			<circle style="fill:#B3B3B3;" cx="116.5827637" cy="119.637207" r="6.470459"/>
			<circle style="fill:#B3B3B3;" cx="140.550293" cy="119.637207" r="6.4711914"/>
		</g>
		<path style="fill:#B3B3B3;" d="M128.5668945,145.4677734c-5.8432617,0-11.3359375-2.2753906-15.4667969-6.40625
			c-0.9760742-0.9765625-0.9760742-2.5595703,0.0004883-3.5351563c0.9765625-0.9765625,2.559082-0.9765625,3.5356445,0
			c3.1860352,3.1865234,7.4228516,4.9414063,11.9306641,4.9414063c4.5063477,0,8.7436523-1.7548828,11.9311523-4.9414063
			c0.9765625-0.9765625,2.5605469-0.9765625,3.5351563,0c0.9765625,0.9765625,0.9765625,2.5595703,0,3.5351563
			C139.9013672,143.1923828,134.4082031,145.4677734,128.5668945,145.4677734z"/>
	</g>
	<path style="fill:#FFFFFF;" d="M128.5668945,54.5849609c-40.2416992,0-72.9819336,32.7397461-72.9819336,72.9819336
		c0,40.2426758,32.7402344,72.9819336,72.9819336,72.9819336c40.2426758,0,72.9819336-32.7392578,72.9819336-72.9819336
		C201.5488281,87.324707,168.8095703,54.5849609,128.5668945,54.5849609z M128.5668945,163.6679688
		c-19.90625,0-36.0986328-16.1943359-36.0986328-36.1010742c0-19.90625,16.1923828-36.1000977,36.0986328-36.1000977
		c19.9067383,0,36.1010742,16.1938477,36.1010742,36.1000977
		C164.6679688,147.4736328,148.4736328,163.6679688,128.5668945,163.6679688z"/>
</g>
</svg>
