<?xml version="1.0" encoding="UTF-8" standalone="no"?>
<!-- Generator: Adobe Illustrator 15.0.0, SVG Export Plug-In . SVG Version: 6.00 Build 0)  -->

<svg
   xmlns:dc="http://purl.org/dc/elements/1.1/"
   xmlns:cc="http://creativecommons.org/ns#"
   xmlns:rdf="http://www.w3.org/1999/02/22-rdf-syntax-ns#"
   xmlns:svg="http://www.w3.org/2000/svg"
   xmlns="http://www.w3.org/2000/svg"
   xmlns:sodipodi="http://sodipodi.sourceforge.net/DTD/sodipodi-0.dtd"
   xmlns:inkscape="http://www.inkscape.org/namespaces/inkscape"
   version="1.1"
   id="レイヤー_1"
   x="0px"
   y="0px"
   width="256px"
   height="256px"
   viewBox="0 0 256 256"
   style="enable-background:new 0 0 256 256;"
   xml:space="preserve"
   inkscape:version="0.48.5 r10040"
   sodipodi:docname="8.svg"><metadata
     id="metadata25"><rdf:RDF><cc:Work
         rdf:about=""><dc:format>image/svg+xml</dc:format><dc:type
           rdf:resource="http://purl.org/dc/dcmitype/StillImage" /><dc:title></dc:title></cc:Work></rdf:RDF></metadata><defs
     id="defs23" /><sodipodi:namedview
     pagecolor="#ffffff"
     bordercolor="#666666"
     borderopacity="1"
     objecttolerance="10"
     gridtolerance="10"
     guidetolerance="10"
     inkscape:pageopacity="0"
     inkscape:pageshadow="2"
     inkscape:window-width="1920"
     inkscape:window-height="1052"
     id="namedview21"
     showgrid="false"
     inkscape:zoom="0.921875"
     inkscape:cx="-82.440678"
     inkscape:cy="128"
     inkscape:window-x="1920"
     inkscape:window-y="0"
     inkscape:window-maximized="1"
     inkscape:current-layer="g3" /><g
     id="g3"><circle
       style="fill:#FFFFFF;"
       cx="128.5671387"
       cy="126.8754883"
       r="33.8967285"
       id="circle5" /><path
       style="fill:#b3b3b3"
       d="m 228.60343,115.3093 -21.55296,-4.22945 c -1.18747,-5.59822 -2.74105,-10.98819 -5.04101,-16.117564 l 15.50199,-16.493262 c 5.63842,-4.816114 6.78318,-11.470443 3.29766,-15.550926 L 207.15812,46.905603 c -3.48641,-4.081533 -10.2202,-4.042357 -15.85959,0.77368 l -18.70181,12.628732 c -4.70227,-3.070785 -9.75962,-5.650336 -15.09694,-7.696988 l -0.79276,-22.263644 c 0.58174,-7.391694 -3.36852,-12.661721 -8.72014,-13.082903 l -20.99514,-1.652353 c -5.34966,-0.421028 -10.07473,4.166236 -10.65647,11.557931 l -4.28044,21.989269 c -5.59279,1.186925 -10.98885,2.880102 -16.11365,5.17797 L 79.441761,38.907311 c -4.816076,-5.6389 -11.472791,-6.747116 -15.553274,-3.2616 l -16.01399,13.669974 c -4.081418,3.484952 -4.042854,10.226533 0.773107,15.866894 l 12.627977,18.70518 c -3.070337,4.7028 -5.650003,9.761602 -7.696694,15.099409 L 30.816555,99.743627 C 23.42486,99.161888 17.656336,103.0734 17.23527,108.42356 l -1.652315,20.99465 c -0.421181,5.35162 4.664465,10.11688 12.05616,10.69862 l 22.238652,4.29812 c 1.187001,5.59181 3.005652,10.99921 5.302546,16.12394 l -15.367602,16.50335 c -5.638938,4.81656 -6.716039,11.47621 -3.230638,15.55815 l 13.685589,16.01473 c 3.485067,4.07996 10.235744,4.04407 15.874759,-0.77346 l 18.709561,-12.62764 c 4.7074,3.07413 9.77074,5.67081 15.116221,7.71957 l 0.719037,23.01996 c -0.58185,7.39315 3.30154,13.54395 8.65121,13.96498 l 20.99513,1.65235 c 5.35162,0.42118 10.14681,-5.04464 10.72882,-12.43974 l 4.28504,-22.28425 c 5.60066,-1.18728 11.01787,-3.13055 16.15065,-5.43024 l 16.50756,15.31406 c 4.81668,5.63748 11.47829,6.68975 15.56023,3.20435 l 16.01576,-13.69873 c 4.08,-3.48556 4.04461,-10.24256 -0.77297,-15.88109 l -12.6283,-18.71353 c 3.0732,-4.70796 5.65546,-9.77489 7.70306,-15.11801 l 21.54237,-0.83876 c 7.39218,0.58178 12.04854,-3.41874 12.46972,-8.77035 l 1.65232,-20.99465 c 0.42106,-5.35016 -3.5493,-10.02863 -10.94441,-10.61064 z m -102.08165,40.49402 c -15.46292,-1.21696 -27.052181,-14.78624 -25.83522,-30.24917 1.21692,-15.46244 14.78623,-27.052182 30.24916,-25.835223 15.46293,1.216963 27.05215,14.786723 25.83523,30.249163 -1.21696,15.46293 -14.78624,27.05218 -30.24917,25.83523 z"
       id="path7"
       inkscape:connector-curvature="0" /><g
       id="g9"><g
         id="g11"><circle
           style="fill:#B3B3B3;"
           cx="116.5827637"
           cy="119.637207"
           r="6.470459"
           id="circle13" /><circle
           style="fill:#B3B3B3;"
           cx="140.550293"
           cy="119.637207"
           r="6.4711914"
           id="circle15" /></g><path
         style="fill:#B3B3B3;"
         d="M128.5668945,145.4677734c-5.8432617,0-11.3359375-2.2753906-15.4667969-6.40625    c-0.9760742-0.9765625-0.9760742-2.5595703,0.0004883-3.5351563c0.9765625-0.9765625,2.559082-0.9765625,3.5356445,0    c3.1860352,3.1865234,7.4228516,4.9414063,11.9306641,4.9414063c4.5063477,0,8.7436523-1.7548828,11.9311523-4.9414063    c0.9765625-0.9765625,2.5605469-0.9765625,3.5351563,0c0.9765625,0.9765625,0.9765625,2.5595703,0,3.5351563    C139.9013672,143.1923828,134.4082031,145.4677734,128.5668945,145.4677734z"
         id="path17" /></g><path
       style="fill:#FFFFFF;"
       d="M128.5668945,54.5849609c-40.2416992,0-72.9819336,32.7397461-72.9819336,72.9819336   c0,40.2426758,32.7402344,72.9819336,72.9819336,72.9819336c40.2426758,0,72.9819336-32.7392578,72.9819336-72.9819336   C201.5488281,87.324707,168.8095703,54.5849609,128.5668945,54.5849609z M128.5668945,163.6679688   c-19.90625,0-36.0986328-16.1943359-36.0986328-36.1010742c0-19.90625,16.1923828-36.1000977,36.0986328-36.1000977   c19.9067383,0,36.1010742,16.1938477,36.1010742,36.1000977   C164.6679688,147.4736328,148.4736328,163.6679688,128.5668945,163.6679688z"
       id="path19" /></g></svg>