<?xml version="1.0" encoding="UTF-8" standalone="no"?>
<!-- Generator: Adobe Illustrator 15.0.0, SVG Export Plug-In . SVG Version: 6.00 Build 0)  -->

<svg
   xmlns:dc="http://purl.org/dc/elements/1.1/"
   xmlns:cc="http://creativecommons.org/ns#"
   xmlns:rdf="http://www.w3.org/1999/02/22-rdf-syntax-ns#"
   xmlns:svg="http://www.w3.org/2000/svg"
   xmlns="http://www.w3.org/2000/svg"
   xmlns:sodipodi="http://sodipodi.sourceforge.net/DTD/sodipodi-0.dtd"
   xmlns:inkscape="http://www.inkscape.org/namespaces/inkscape"
   version="1.1"
   id="レイヤー_1"
   x="0px"
   y="0px"
   width="256px"
   height="256px"
   viewBox="0 0 256 256"
   style="enable-background:new 0 0 256 256;"
   xml:space="preserve"
   inkscape:version="0.48.5 r10040"
   sodipodi:docname="1.svg"><metadata
     id="metadata25"><rdf:RDF><cc:Work
         rdf:about=""><dc:format>image/svg+xml</dc:format><dc:type
           rdf:resource="http://purl.org/dc/dcmitype/StillImage" /><dc:title></dc:title></cc:Work></rdf:RDF></metadata><defs
     id="defs23" /><sodipodi:namedview
     pagecolor="#ffffff"
     bordercolor="#666666"
     borderopacity="1"
     objecttolerance="10"
     gridtolerance="10"
     guidetolerance="10"
     inkscape:pageopacity="0"
     inkscape:pageshadow="2"
     inkscape:window-width="1920"
     inkscape:window-height="1052"
     id="namedview21"
     showgrid="false"
     inkscape:zoom="0.921875"
     inkscape:cx="-82.440678"
     inkscape:cy="128"
     inkscape:window-x="1920"
     inkscape:window-y="0"
     inkscape:window-maximized="1"
     inkscape:current-layer="g3" /><g
     id="g3"><circle
       style="fill:#FFFFFF;"
       cx="128.5671387"
       cy="126.8754883"
       r="33.8967285"
       id="circle5" /><path
       style="fill:#b3b3b3"
       d="m 229.33393,123.27735 -21.15468,-5.90743 c -0.74458,-5.67413 -1.87048,-11.16938 -3.7609,-16.4634 L 221.1666,85.680378 c 5.9989,-4.358883 7.66223,-10.902882 4.5076,-15.244257 L 213.32162,53.401943 c -3.15543,-4.342491 -9.87154,-4.831763 -15.8714,-0.473034 l -19.635,11.122475 c -4.44684,-3.430255 -9.28621,-6.398649 -14.4465,-8.857753 l 0.95647,-22.257212 c 1.15989,-7.323265 -2.36471,-12.88698 -7.66679,-13.726747 l -20.80078,-3.294519 c -5.30013,-0.83946 -10.37055,3.362939 -11.53044,10.686205 l -5.9925,21.585644 c -5.66868,0.74446 -11.18095,2.009048 -16.47024,3.897745 L 86.626506,35.407797 C 82.267699,29.408415 75.718454,27.781336 71.37708,30.935956 L 54.339922,43.307347 c -4.342263,3.153984 -4.832756,9.877809 -0.474179,15.878639 L 64.987201,78.824283 C 61.557351,83.27169 58.588729,88.1125 56.129547,93.27327 L 33.378033,92.241486 c -7.323266,-1.159892 -13.380901,2.286969 -14.220438,7.5876 l -3.294443,20.800294 c -0.839766,5.30207 3.856325,10.45166 11.179591,11.61155 l 21.832871,6.0297 c 0.744613,5.6677 2.133398,11.20112 4.02113,16.49027 l -16.615066,15.24674 c -5.999458,4.35929 -7.595749,10.9139 -4.441358,15.25672 l 12.3869,17.03912 c 3.154214,4.34082 9.886896,4.83469 15.886507,0.47444 l 19.642639,-11.12077 c 4.451695,3.43399 9.295693,6.41993 14.463952,8.88177 l -1.089304,23.00542 c -1.160117,7.3247 2.228716,13.76123 7.528866,14.60069 l 20.80076,3.29452 c 5.30208,0.83976 10.51133,-4.23298 11.67176,-11.55962 l 6.02023,-21.87936 c 5.67655,-0.74419 11.22953,-2.25644 16.52692,-4.14633 l 15.25514,16.56202 c 4.35952,5.99801 10.91804,7.5697 15.26085,4.41531 l 17.04118,-12.39992 c 4.3409,-3.1547 4.83577,-9.89365 0.47543,-15.89278 l -11.12112,-19.64664 c 3.43311,-4.45233 6.40495,-9.30104 8.86546,-14.46703 l 21.54177,0.85402 c 7.32374,1.15997 12.27963,-2.46289 13.11939,-7.76496 l 3.29445,-20.80029 c 0.83953,-5.30063 -2.75152,-10.27619 -10.07817,-11.43662 z m -104.94409,32.35996 c -15.31977,-2.42641 -25.808675,-16.86315 -23.38226,-32.18293 2.42634,-15.3193 16.86314,-25.808674 32.18292,-23.38226 15.31978,2.42642 25.80861,16.86363 23.38227,32.18292 -2.42642,15.31979 -16.86315,25.80868 -32.18293,23.38227 z"
       id="path7"
       inkscape:connector-curvature="0" /><g
       id="g9"><g
         id="g11"><circle
           style="fill:#B3B3B3;"
           cx="116.5827637"
           cy="119.637207"
           r="6.470459"
           id="circle13" /><circle
           style="fill:#B3B3B3;"
           cx="140.550293"
           cy="119.637207"
           r="6.4711914"
           id="circle15" /></g><path
         style="fill:#B3B3B3;"
         d="M128.5668945,145.4677734c-5.8432617,0-11.3359375-2.2753906-15.4667969-6.40625    c-0.9760742-0.9765625-0.9760742-2.5595703,0.0004883-3.5351563c0.9765625-0.9765625,2.559082-0.9765625,3.5356445,0    c3.1860352,3.1865234,7.4228516,4.9414063,11.9306641,4.9414063c4.5063477,0,8.7436523-1.7548828,11.9311523-4.9414063    c0.9765625-0.9765625,2.5605469-0.9765625,3.5351563,0c0.9765625,0.9765625,0.9765625,2.5595703,0,3.5351563    C139.9013672,143.1923828,134.4082031,145.4677734,128.5668945,145.4677734z"
         id="path17" /></g><path
       style="fill:#FFFFFF;"
       d="M128.5668945,54.5849609c-40.2416992,0-72.9819336,32.7397461-72.9819336,72.9819336   c0,40.2426758,32.7402344,72.9819336,72.9819336,72.9819336c40.2426758,0,72.9819336-32.7392578,72.9819336-72.9819336   C201.5488281,87.324707,168.8095703,54.5849609,128.5668945,54.5849609z M128.5668945,163.6679688   c-19.90625,0-36.0986328-16.1943359-36.0986328-36.1010742c0-19.90625,16.1923828-36.1000977,36.0986328-36.1000977   c19.9067383,0,36.1010742,16.1938477,36.1010742,36.1000977   C164.6679688,147.4736328,148.4736328,163.6679688,128.5668945,163.6679688z"
       id="path19" /></g></svg>