<?xml version="1.0" encoding="UTF-8" standalone="no"?>
<!-- Generator: Adobe Illustrator 15.0.0, SVG Export Plug-In . SVG Version: 6.00 Build 0)  -->

<svg
   xmlns:dc="http://purl.org/dc/elements/1.1/"
   xmlns:cc="http://creativecommons.org/ns#"
   xmlns:rdf="http://www.w3.org/1999/02/22-rdf-syntax-ns#"
   xmlns:svg="http://www.w3.org/2000/svg"
   xmlns="http://www.w3.org/2000/svg"
   xmlns:sodipodi="http://sodipodi.sourceforge.net/DTD/sodipodi-0.dtd"
   xmlns:inkscape="http://www.inkscape.org/namespaces/inkscape"
   version="1.1"
   id="レイヤー_1"
   x="0px"
   y="0px"
   width="256px"
   height="256px"
   viewBox="0 0 256 256"
   style="enable-background:new 0 0 256 256;"
   xml:space="preserve"
   inkscape:version="0.48.5 r10040"
   sodipodi:docname="2.svg"><metadata
     id="metadata25"><rdf:RDF><cc:Work
         rdf:about=""><dc:format>image/svg+xml</dc:format><dc:type
           rdf:resource="http://purl.org/dc/dcmitype/StillImage" /><dc:title></dc:title></cc:Work></rdf:RDF></metadata><defs
     id="defs23" /><sodipodi:namedview
     pagecolor="#ffffff"
     bordercolor="#666666"
     borderopacity="1"
     objecttolerance="10"
     gridtolerance="10"
     guidetolerance="10"
     inkscape:pageopacity="0"
     inkscape:pageshadow="2"
     inkscape:window-width="1920"
     inkscape:window-height="1052"
     id="namedview21"
     showgrid="false"
     inkscape:zoom="0.921875"
     inkscape:cx="-82.440678"
     inkscape:cy="128"
     inkscape:window-x="1920"
     inkscape:window-y="0"
     inkscape:window-maximized="1"
     inkscape:current-layer="g3" /><g
     id="g3"><circle
       style="fill:#FFFFFF;"
       cx="128.5671387"
       cy="126.8754883"
       r="33.8967285"
       id="circle5" /><path
       style="fill:#b3b3b3"
       d="m 229.44355,131.27207 -20.62597,-7.549 c -0.2971,-5.71506 -0.98838,-11.2817 -2.4576,-16.70772 l 17.89125,-13.865156 c 6.3224,-3.874778 8.49404,-10.2681 5.68975,-14.843602 L 218.96297,60.355753 c -2.805,-4.576677 -9.46202,-5.591381 -15.78536,-1.716832 l -20.44713,9.547644 c -4.164,-3.768576 -8.75556,-7.107512 -13.707,-9.963907 l 2.6998,-22.113556 c 1.73089,-7.209686 -1.34632,-13.032787 -6.56617,-14.285962 l -20.47817,-4.916373 c -5.21793,-1.252716 -10.60243,2.538908 -12.33332,9.748595 L 124.678,47.704298 c -5.70962,0.297406 -11.30411,1.125608 -16.72528,2.59349 L 94.070216,32.476693 C 90.195551,26.153817 83.794155,24.017906 79.218655,26.822181 L 61.263369,37.818715 c -4.576336,2.803571 -5.592862,9.468185 -1.718541,15.792487 l 9.546371,20.450338 c -3.768216,4.164594 -7.107493,8.757566 -9.964003,13.709482 L 36.52677,84.957355 c -7.209687,-1.730893 -13.519086,1.230066 -14.771917,6.448488 l -4.91626,20.477697 c -1.253173,5.21984 3.02441,10.722 10.234096,12.45289 l 21.292483,7.7241 c 0.297635,5.70865 1.247992,11.33398 2.714923,16.75493 L 33.320002,162.7116 c -6.32299,3.87514 -8.428629,10.2843 -5.624695,14.86122 l 11.011841,17.95846 c 2.803914,4.57492 9.477093,5.59551 15.80031,1.71942 l 20.454613,-9.54534 c 4.168544,3.77268 8.763336,7.12947 13.722509,9.98922 l -2.890931,22.84903 c -1.73123,7.2111 1.142152,13.89367 6.3601,15.14639 l 20.478151,4.91637 c 5.21985,1.25317 10.81105,-3.39522 12.54274,-10.60823 l 7.71831,-21.33957 c 5.71744,-0.29652 11.37195,-1.36842 16.80129,-2.83686 l 13.90867,17.70787 c 3.87548,6.32156 10.29047,8.40298 14.86738,5.59905 l 17.96154,-11.02466 c 4.57503,-2.80439 5.59711,-9.48374 1.7209,-15.80648 l -9.54538,-20.45863 c 3.77185,-4.16925 7.11495,-8.76984 9.9732,-13.72686 l 21.40835,2.54154 c 7.21016,1.731 12.43502,-1.49185 13.68818,-6.71169 l 4.91627,-20.47769 c 1.25282,-5.21842 -1.93678,-10.4604 -9.1498,-12.19209 z m -107.15951,24.02639 c -15.08217,-3.62091 -24.406049,-18.8361 -20.78514,-33.91828 3.6208,-15.0817 18.83608,-24.406044 33.91826,-20.78513 15.08218,3.62091 24.40595,18.83656 20.78515,33.91826 -3.62092,15.08219 -18.83609,24.40605 -33.91827,20.78515 z"
       id="path7"
       inkscape:connector-curvature="0" /><g
       id="g9"><g
         id="g11"><circle
           style="fill:#B3B3B3;"
           cx="116.5827637"
           cy="119.637207"
           r="6.470459"
           id="circle13" /><circle
           style="fill:#B3B3B3;"
           cx="140.550293"
           cy="119.637207"
           r="6.4711914"
           id="circle15" /></g><path
         style="fill:#B3B3B3;"
         d="M128.5668945,145.4677734c-5.8432617,0-11.3359375-2.2753906-15.4667969-6.40625    c-0.9760742-0.9765625-0.9760742-2.5595703,0.0004883-3.5351563c0.9765625-0.9765625,2.559082-0.9765625,3.5356445,0    c3.1860352,3.1865234,7.4228516,4.9414063,11.9306641,4.9414063c4.5063477,0,8.7436523-1.7548828,11.9311523-4.9414063    c0.9765625-0.9765625,2.5605469-0.9765625,3.5351563,0c0.9765625,0.9765625,0.9765625,2.5595703,0,3.5351563    C139.9013672,143.1923828,134.4082031,145.4677734,128.5668945,145.4677734z"
         id="path17" /></g><path
       style="fill:#FFFFFF;"
       d="M128.5668945,54.5849609c-40.2416992,0-72.9819336,32.7397461-72.9819336,72.9819336   c0,40.2426758,32.7402344,72.9819336,72.9819336,72.9819336c40.2426758,0,72.9819336-32.7392578,72.9819336-72.9819336   C201.5488281,87.324707,168.8095703,54.5849609,128.5668945,54.5849609z M128.5668945,163.6679688   c-19.90625,0-36.0986328-16.1943359-36.0986328-36.1010742c0-19.90625,16.1923828-36.1000977,36.0986328-36.1000977   c19.9067383,0,36.1010742,16.1938477,36.1010742,36.1000977   C164.6679688,147.4736328,148.4736328,163.6679688,128.5668945,163.6679688z"
       id="path19" /></g></svg>