<?xml version="1.0" encoding="UTF-8" standalone="no"?>
<!-- Generator: Adobe Illustrator 15.0.0, SVG Export Plug-In . SVG Version: 6.00 Build 0)  -->

<svg
   xmlns:dc="http://purl.org/dc/elements/1.1/"
   xmlns:cc="http://creativecommons.org/ns#"
   xmlns:rdf="http://www.w3.org/1999/02/22-rdf-syntax-ns#"
   xmlns:svg="http://www.w3.org/2000/svg"
   xmlns="http://www.w3.org/2000/svg"
   xmlns:sodipodi="http://sodipodi.sourceforge.net/DTD/sodipodi-0.dtd"
   xmlns:inkscape="http://www.inkscape.org/namespaces/inkscape"
   version="1.1"
   id="レイヤー_1"
   x="0px"
   y="0px"
   width="256px"
   height="256px"
   viewBox="0 0 256 256"
   style="enable-background:new 0 0 256 256;"
   xml:space="preserve"
   inkscape:version="0.48.5 r10040"
   sodipodi:docname="4.svg"><metadata
     id="metadata25"><rdf:RDF><cc:Work
         rdf:about=""><dc:format>image/svg+xml</dc:format><dc:type
           rdf:resource="http://purl.org/dc/dcmitype/StillImage" /><dc:title></dc:title></cc:Work></rdf:RDF></metadata><defs
     id="defs23" /><sodipodi:namedview
     pagecolor="#ffffff"
     bordercolor="#666666"
     borderopacity="1"
     objecttolerance="10"
     gridtolerance="10"
     guidetolerance="10"
     inkscape:pageopacity="0"
     inkscape:pageshadow="2"
     inkscape:window-width="1920"
     inkscape:window-height="1052"
     id="namedview21"
     showgrid="false"
     inkscape:zoom="0.921875"
     inkscape:cx="-82.440678"
     inkscape:cy="128"
     inkscape:window-x="1920"
     inkscape:window-y="0"
     inkscape:window-maximized="1"
     inkscape:current-layer="g3" /><g
     id="g3"><circle
       style="fill:#FFFFFF;"
       cx="128.5671387"
       cy="126.8754883"
       r="33.8967285"
       id="circle5" /><path
       style="fill:#b3b3b3"
       d="m 227.80037,147.14305 -19.1911,-10.68268 c 0.60059,-5.69117 0.78863,-11.29742 0.18632,-16.88647 l 19.83997,-10.89565 c 6.85071,-2.83803 9.99575,-8.81292 7.94175,-13.770777 l -8.03473,-19.447174 c -2.05451,-4.959129 -8.47083,-7.002728 -15.32244,-4.165069 l -21.68897,6.231461 c -3.5232,-4.373572 -7.5359,-8.389678 -11.97955,-11.985482 l 6.12589,-21.41896 c 2.83742,-6.850151 0.70903,-13.082942 -4.25052,-15.137253 l -19.45696,-8.059337 c -4.95771,-2.053556 -10.86906,0.849066 -13.70648,7.699219 l -10.86601,19.590307 c -5.68584,-0.599436 -11.34101,-0.656601 -16.92507,-0.05485 l -10.92375,-19.77339 c -2.83785,-6.851163 -8.8263,-9.962176 -13.784157,-7.908192 l -19.454464,8.052323 c -4.958568,2.053158 -7.005154,8.476699 -4.167871,15.329216 l 6.229701,21.691941 c -4.373309,3.523843 -8.389973,7.53789 -11.985965,11.981983 L 44.503941,71.219706 C 37.653788,68.382279 30.958873,70.319777 28.905125,75.277965 l -8.05915,19.456508 c -2.054308,4.95954 1.309884,11.063117 8.160036,13.900537 l 19.822022,10.95989 c -0.599059,5.68492 -0.540398,11.38967 0.06045,16.97335 l -19.715271,10.94677 c -6.85135,2.83829 -9.933679,8.83916 -7.880253,13.79835 l 8.066944,19.46 c 2.053719,4.95722 8.485084,7.00917 15.336805,4.16996 l 21.696004,-6.22802 c 3.527045,4.37834 7.54015,8.41259 11.990903,12.01292 L 71.9539,212.84371 c -2.83798,6.85149 -1.045354,13.90128 3.912378,15.95485 l 19.456947,8.05933 c 4.959535,2.0543 11.209065,-1.6622 14.047805,-8.51551 l 10.96153,-19.86943 c 5.69343,0.60153 11.44601,0.42739 17.03822,-0.17363 l 10.96731,19.66564 c 2.83886,6.85 8.84927,9.90932 13.80845,7.85589 l 19.46505,-8.07913 c 4.9574,-2.05416 7.01178,-8.49139 4.17238,-15.34266 l -6.22742,-21.69998 c 4.37763,-3.52787 8.39925,-7.54884 11.99777,-11.9977 l 20.7472,5.85925 c 6.8506,2.83761 12.51529,0.47178 14.56958,-4.48776 l 8.05917,-19.45649 c 2.05373,-4.9582 -0.27657,-10.63461 -7.1299,-13.47333 z m -109.59875,6.96713 c -14.33004,-5.9357 -21.158951,-22.42214 -15.22325,-36.75219 5.93552,-14.32961 22.42212,-21.158958 36.75218,-15.22325 14.33006,5.9357 21.15878,22.42258 15.22327,36.75218 -5.93572,14.33007 -22.42213,21.15896 -36.7522,15.22326 z"
       id="path7"
       inkscape:connector-curvature="0" /><g
       id="g9"><g
         id="g11"><circle
           style="fill:#B3B3B3;"
           cx="116.5827637"
           cy="119.637207"
           r="6.470459"
           id="circle13" /><circle
           style="fill:#B3B3B3;"
           cx="140.550293"
           cy="119.637207"
           r="6.4711914"
           id="circle15" /></g><path
         style="fill:#B3B3B3;"
         d="M128.5668945,145.4677734c-5.8432617,0-11.3359375-2.2753906-15.4667969-6.40625    c-0.9760742-0.9765625-0.9760742-2.5595703,0.0004883-3.5351563c0.9765625-0.9765625,2.559082-0.9765625,3.5356445,0    c3.1860352,3.1865234,7.4228516,4.9414063,11.9306641,4.9414063c4.5063477,0,8.7436523-1.7548828,11.9311523-4.9414063    c0.9765625-0.9765625,2.5605469-0.9765625,3.5351563,0c0.9765625,0.9765625,0.9765625,2.5595703,0,3.5351563    C139.9013672,143.1923828,134.4082031,145.4677734,128.5668945,145.4677734z"
         id="path17" /></g><path
       style="fill:#FFFFFF;"
       d="M128.5668945,54.5849609c-40.2416992,0-72.9819336,32.7397461-72.9819336,72.9819336   c0,40.2426758,32.7402344,72.9819336,72.9819336,72.9819336c40.2426758,0,72.9819336-32.7392578,72.9819336-72.9819336   C201.5488281,87.324707,168.8095703,54.5849609,128.5668945,54.5849609z M128.5668945,163.6679688   c-19.90625,0-36.0986328-16.1943359-36.0986328-36.1010742c0-19.90625,16.1923828-36.1000977,36.0986328-36.1000977   c19.9067383,0,36.1010742,16.1938477,36.1010742,36.1000977   C164.6679688,147.4736328,148.4736328,163.6679688,128.5668945,163.6679688z"
       id="path19" /></g></svg>