<?xml version="1.0" encoding="UTF-8" standalone="no"?>
<!-- Generator: Adobe Illustrator 15.0.0, SVG Export Plug-In . SVG Version: 6.00 Build 0)  -->

<svg
   xmlns:dc="http://purl.org/dc/elements/1.1/"
   xmlns:cc="http://creativecommons.org/ns#"
   xmlns:rdf="http://www.w3.org/1999/02/22-rdf-syntax-ns#"
   xmlns:svg="http://www.w3.org/2000/svg"
   xmlns="http://www.w3.org/2000/svg"
   xmlns:sodipodi="http://sodipodi.sourceforge.net/DTD/sodipodi-0.dtd"
   xmlns:inkscape="http://www.inkscape.org/namespaces/inkscape"
   version="1.1"
   id="レイヤー_1"
   x="0px"
   y="0px"
   width="256px"
   height="256px"
   viewBox="0 0 256 256"
   style="enable-background:new 0 0 256 256;"
   xml:space="preserve"
   inkscape:version="0.48.5 r10040"
   sodipodi:docname="5.svg"><metadata
     id="metadata25"><rdf:RDF><cc:Work
         rdf:about=""><dc:format>image/svg+xml</dc:format><dc:type
           rdf:resource="http://purl.org/dc/dcmitype/StillImage" /><dc:title></dc:title></cc:Work></rdf:RDF></metadata><defs
     id="defs23" /><sodipodi:namedview
     pagecolor="#ffffff"
     bordercolor="#666666"
     borderopacity="1"
     objecttolerance="10"
     gridtolerance="10"
     guidetolerance="10"
     inkscape:pageopacity="0"
     inkscape:pageshadow="2"
     inkscape:window-width="1920"
     inkscape:window-height="1052"
     id="namedview21"
     showgrid="false"
     inkscape:zoom="0.921875"
     inkscape:cx="-82.440678"
     inkscape:cy="128"
     inkscape:window-x="1920"
     inkscape:window-y="0"
     inkscape:window-maximized="1"
     inkscape:current-layer="g3" /><g
     id="g3"><circle
       style="fill:#FFFFFF;"
       cx="128.5671387"
       cy="126.8754883"
       r="33.8967285"
       id="circle5" /><path
       style="fill:#b3b3b3"
       d="M 226.04308,154.85953 207.7493,142.70407 c 1.04526,-5.62651 1.67258,-11.20072 1.51064,-16.8198 l 20.63367,-9.30544 c 7.05226,-2.29178 10.65639,-8.00149 8.99771,-13.10522 l -6.48415,-20.017623 c -1.65909,-5.105037 -7.89529,-7.645755 -14.94842,-5.354415 l -22.11102,4.510555 c -3.1692,-4.636517 -6.85443,-8.955075 -11.00226,-12.88844 l 7.78752,-20.8723 c 3.36613,-6.606413 1.73332,-12.986982 -3.04976,-15.424082 l -18.76465,-9.561068 c -4.78131,-2.436203 -10.90217,-0.0063 -14.2683,6.600087 l -12.36955,18.677379 c -5.62129,-1.043694 -11.25454,-1.544382 -16.8686,-1.382607 l -9.33867,-20.569503 c -2.29157,-7.052698 -8.01747,-10.623969 -13.1212,-8.965306 l -20.026265,6.501121 c -5.104372,1.657784 -7.648634,7.90095 -5.35774,14.954954 L 83.476822,61.79621 C 78.840517,64.966065 74.521297,68.652594 70.58771,72.800849 L 49.268573,64.788961 c -6.606414,-3.366137 -13.432705,-1.959889 -15.869137,2.82188 l -9.560847,18.764216 c -2.437096,4.783072 0.437844,11.131785 7.044258,14.497913 l 18.901014,12.48132 c -1.043246,5.6204 -1.432355,11.31216 -1.27145,16.92577 l -20.513369,9.36619 c -7.052919,2.29199 -10.596569,8.03252 -8.938567,13.13753 l 6.515263,20.03294 c 1.658449,5.10307 7.908994,7.65329 14.962355,5.36042 l 22.117767,-4.50658 c 3.172652,4.64158 6.856862,8.97826 11.011417,12.91669 l -8.145055,21.54283 c -3.366793,6.60771 -2.132814,13.77641 2.648514,16.21263 l 18.76464,9.56106 c 4.783068,2.43709 11.304926,-0.77762 14.672624,-7.38708 l 12.48667,-18.94815 c 5.62869,1.04638 11.3772,1.32412 16.99932,1.16371 l 9.39056,20.4655 c 2.29266,7.05162 8.04451,10.57308 13.14951,8.91508 l 20.03893,-6.52702 c 5.10328,-1.65887 7.65639,-7.91507 5.36329,-14.968 l -4.50566,-22.12168 c 4.64093,-3.17353 8.96563,-6.86658 12.90211,-11.01939 l 20.22353,7.469 c 6.60685,3.36635 12.4397,1.45226 14.87677,-3.33081 l 9.56087,-18.7642 c 2.43641,-4.78178 0.55866,-10.62352 -6.05082,-13.9912 z m -109.80752,-1.65337 c -13.82016,-7.04172 -19.334509,-24.01313 -12.29278,-37.83329 7.04151,-13.81974 24.01311,-19.334516 37.83328,-12.29278 13.82018,7.04172 19.3343,24.01356 12.2928,37.83329 -7.04174,13.82018 -24.01312,19.33451 -37.8333,12.29278 z"
       id="path7"
       inkscape:connector-curvature="0" /><g
       id="g9"><g
         id="g11"><circle
           style="fill:#B3B3B3;"
           cx="116.5827637"
           cy="119.637207"
           r="6.470459"
           id="circle13" /><circle
           style="fill:#B3B3B3;"
           cx="140.550293"
           cy="119.637207"
           r="6.4711914"
           id="circle15" /></g><path
         style="fill:#B3B3B3;"
         d="M128.5668945,145.4677734c-5.8432617,0-11.3359375-2.2753906-15.4667969-6.40625    c-0.9760742-0.9765625-0.9760742-2.5595703,0.0004883-3.5351563c0.9765625-0.9765625,2.559082-0.9765625,3.5356445,0    c3.1860352,3.1865234,7.4228516,4.9414063,11.9306641,4.9414063c4.5063477,0,8.7436523-1.7548828,11.9311523-4.9414063    c0.9765625-0.9765625,2.5605469-0.9765625,3.5351563,0c0.9765625,0.9765625,0.9765625,2.5595703,0,3.5351563    C139.9013672,143.1923828,134.4082031,145.4677734,128.5668945,145.4677734z"
         id="path17" /></g><path
       style="fill:#FFFFFF;"
       d="M128.5668945,54.5849609c-40.2416992,0-72.9819336,32.7397461-72.9819336,72.9819336   c0,40.2426758,32.7402344,72.9819336,72.9819336,72.9819336c40.2426758,0,72.9819336-32.7392578,72.9819336-72.9819336   C201.5488281,87.324707,168.8095703,54.5849609,128.5668945,54.5849609z M128.5668945,163.6679688   c-19.90625,0-36.0986328-16.1943359-36.0986328-36.1010742c0-19.90625,16.1923828-36.1000977,36.0986328-36.1000977   c19.9067383,0,36.1010742,16.1938477,36.1010742,36.1000977   C164.6679688,147.4736328,148.4736328,163.6679688,128.5668945,163.6679688z"
       id="path19" /></g></svg>