<?xml version="1.0" encoding="UTF-8" standalone="no"?>
<!-- Generator: Adobe Illustrator 15.0.0, SVG Export Plug-In . SVG Version: 6.00 Build 0)  -->

<svg
   xmlns:dc="http://purl.org/dc/elements/1.1/"
   xmlns:cc="http://creativecommons.org/ns#"
   xmlns:rdf="http://www.w3.org/1999/02/22-rdf-syntax-ns#"
   xmlns:svg="http://www.w3.org/2000/svg"
   xmlns="http://www.w3.org/2000/svg"
   xmlns:sodipodi="http://sodipodi.sourceforge.net/DTD/sodipodi-0.dtd"
   xmlns:inkscape="http://www.inkscape.org/namespaces/inkscape"
   version="1.1"
   id="レイヤー_1"
   x="0px"
   y="0px"
   width="256px"
   height="256px"
   viewBox="0 0 256 256"
   style="enable-background:new 0 0 256 256;"
   xml:space="preserve"
   inkscape:version="0.48.5 r10040"
   sodipodi:docname="6.svg"><metadata
     id="metadata25"><rdf:RDF><cc:Work
         rdf:about=""><dc:format>image/svg+xml</dc:format><dc:type
           rdf:resource="http://purl.org/dc/dcmitype/StillImage" /><dc:title></dc:title></cc:Work></rdf:RDF></metadata><defs
     id="defs23" /><sodipodi:namedview
     pagecolor="#ffffff"
     bordercolor="#666666"
     borderopacity="1"
     objecttolerance="10"
     gridtolerance="10"
     guidetolerance="10"
     inkscape:pageopacity="0"
     inkscape:pageshadow="2"
     inkscape:window-width="1920"
     inkscape:window-height="1052"
     id="namedview21"
     showgrid="false"
     inkscape:zoom="0.921875"
     inkscape:cx="-82.440678"
     inkscape:cy="128"
     inkscape:window-x="1920"
     inkscape:window-y="0"
     inkscape:window-maximized="1"
     inkscape:current-layer="g3" /><g
     id="g3"><circle
       style="fill:#FFFFFF;"
       cx="128.5671387"
       cy="126.8754883"
       r="33.8967285"
       id="circle5" /><path
       style="fill:#b3b3b3"
       d="m 223.64991,162.39322 -17.28368,-13.5533 c 1.48349,-5.52716 2.54622,-11.03497 2.82565,-16.64943 l 21.30016,-7.65785 c 7.21033,-1.73141 11.25133,-7.14074 9.99819,-12.35887 L 235.59664,91.709111 C 234.3432,86.48964 228.32556,83.467468 221.1144,85.198362 l -22.39675,2.76184 c -2.79566,-4.870877 -6.1307,-9.465262 -9.95713,-13.711937 l 9.40113,-20.196956 c 3.87409,-6.321944 2.74693,-12.810953 -1.8302,-15.615816 L 178.3748,27.431641 c -4.57543,-2.80383 -10.86807,-0.861655 -14.74215,5.460263 l -13.79683,17.6493 c -5.52207,-1.481518 -11.09867,-2.422643 -16.70812,-2.70184 l -7.69602,-21.238798 c -1.73116,-7.210751 -7.15921,-11.220262 -12.37734,-9.967147 l -20.474604,4.909838 c -5.218705,1.252189 -8.244957,7.276489 -6.514576,14.488489 l 2.759637,22.399417 C 83.95408,61.227486 79.358933,64.563769 75.112003,68.39061 L 54.487192,58.73074 C 48.165247,54.856646 41.249666,55.722975 38.445572,60.298843 L 27.441974,78.25508 c -2.804859,4.577115 -0.436895,11.131822 5.88505,15.005907 l 17.863475,13.925803 c -1.481001,5.52122 -2.315481,11.1649 -2.595511,16.77383 l -21.184996,7.72786 c -7.211004,1.73156 -11.194127,7.17636 -9.941771,12.39572 l 4.923412,20.48237 c 1.252955,5.21746 7.284143,8.25023 14.495658,6.51783 l 22.403167,-2.75735 c 2.798698,4.87619 6.131299,9.48856 9.964041,13.74082 l -9.810178,20.83736 c -3.874849,6.32319 -3.207123,13.56661 1.368322,16.37045 l 17.956642,11.00385 c 4.577112,2.80485 11.331088,0.11175 15.206977,-6.21311 l 13.934828,-17.91005 c 5.52925,1.48478 11.23824,2.21269 16.85562,2.49388 l 7.75591,21.13918 c 1.73232,7.20977 7.19015,11.17166 12.4095,9.9193 l 20.48926,-4.93466 c 5.2177,-1.25336 8.2538,-7.28996 6.52113,-14.50106 l -2.75612,-22.407 c 4.87562,-2.79962 9.47674,-6.14198 13.72691,-9.97313 l 19.57518,9.03269 c 6.32236,3.87434 12.2874,2.4238 15.09224,-2.15332 l 11.00362,-17.95622 c 2.80407,-4.57588 1.39045,-10.54694 -4.93443,-14.42281 z m -109.3393,-10.26367 c -13.22507,-8.10433 -17.39086,-25.45608 -9.28652,-38.68115 8.10409,-13.22466 25.45605,-17.390863 38.68113,-9.28652 13.22509,8.10434 17.39062,25.45649 9.28654,38.68115 -8.10435,13.22509 -25.45606,17.39086 -38.68115,9.28652 z"
       id="path7"
       inkscape:connector-curvature="0" /><g
       id="g9"><g
         id="g11"><circle
           style="fill:#B3B3B3;"
           cx="116.5827637"
           cy="119.637207"
           r="6.470459"
           id="circle13" /><circle
           style="fill:#B3B3B3;"
           cx="140.550293"
           cy="119.637207"
           r="6.4711914"
           id="circle15" /></g><path
         style="fill:#B3B3B3;"
         d="M128.5668945,145.4677734c-5.8432617,0-11.3359375-2.2753906-15.4667969-6.40625    c-0.9760742-0.9765625-0.9760742-2.5595703,0.0004883-3.5351563c0.9765625-0.9765625,2.559082-0.9765625,3.5356445,0    c3.1860352,3.1865234,7.4228516,4.9414063,11.9306641,4.9414063c4.5063477,0,8.7436523-1.7548828,11.9311523-4.9414063    c0.9765625-0.9765625,2.5605469-0.9765625,3.5351563,0c0.9765625,0.9765625,0.9765625,2.5595703,0,3.5351563    C139.9013672,143.1923828,134.4082031,145.4677734,128.5668945,145.4677734z"
         id="path17" /></g><path
       style="fill:#FFFFFF;"
       d="M128.5668945,54.5849609c-40.2416992,0-72.9819336,32.7397461-72.9819336,72.9819336   c0,40.2426758,32.7402344,72.9819336,72.9819336,72.9819336c40.2426758,0,72.9819336-32.7392578,72.9819336-72.9819336   C201.5488281,87.324707,168.8095703,54.5849609,128.5668945,54.5849609z M128.5668945,163.6679688   c-19.90625,0-36.0986328-16.1943359-36.0986328-36.1010742c0-19.90625,16.1923828-36.1000977,36.0986328-36.1000977   c19.9067383,0,36.1010742,16.1938477,36.1010742,36.1000977   C164.6679688,147.4736328,148.4736328,163.6679688,128.5668945,163.6679688z"
       id="path19" /></g></svg>