<?xml version="1.0" encoding="UTF-8" standalone="no"?>
<!-- Generator: Adobe Illustrator 15.0.0, SVG Export Plug-In . SVG Version: 6.00 Build 0)  -->

<svg
   xmlns:dc="http://purl.org/dc/elements/1.1/"
   xmlns:cc="http://creativecommons.org/ns#"
   xmlns:rdf="http://www.w3.org/1999/02/22-rdf-syntax-ns#"
   xmlns:svg="http://www.w3.org/2000/svg"
   xmlns="http://www.w3.org/2000/svg"
   xmlns:sodipodi="http://sodipodi.sourceforge.net/DTD/sodipodi-0.dtd"
   xmlns:inkscape="http://www.inkscape.org/namespaces/inkscape"
   version="1.1"
   id="レイヤー_1"
   x="0px"
   y="0px"
   width="256px"
   height="256px"
   viewBox="0 0 256 256"
   style="enable-background:new 0 0 256 256;"
   xml:space="preserve"
   inkscape:version="0.48.5 r10040"
   sodipodi:docname="7.svg"><metadata
     id="metadata25"><rdf:RDF><cc:Work
         rdf:about=""><dc:format>image/svg+xml</dc:format><dc:type
           rdf:resource="http://purl.org/dc/dcmitype/StillImage" /><dc:title></dc:title></cc:Work></rdf:RDF></metadata><defs
     id="defs23" /><sodipodi:namedview
     pagecolor="#ffffff"
     bordercolor="#666666"
     borderopacity="1"
     objecttolerance="10"
     gridtolerance="10"
     guidetolerance="10"
     inkscape:pageopacity="0"
     inkscape:pageshadow="2"
     inkscape:window-width="1920"
     inkscape:window-height="1052"
     id="namedview21"
     showgrid="false"
     inkscape:zoom="0.921875"
     inkscape:cx="-82.440678"
     inkscape:cy="128"
     inkscape:window-x="1920"
     inkscape:window-y="0"
     inkscape:window-maximized="1"
     inkscape:current-layer="g3" /><g
     id="g3"><circle
       style="fill:#FFFFFF;"
       cx="128.5671387"
       cy="126.8754883"
       r="33.8967285"
       id="circle5" /><path
       style="fill:#b3b3b3"
       d="M 220.6731,169.71559 204.50608,154.848 c 1.91257,-5.39372 3.40416,-10.80117 4.12324,-16.3764 l 21.83532,-5.96305 c 7.32395,-1.16036 11.7769,-6.23596 10.93704,-11.53633 l -3.27287,-20.78552 c -0.84006,-5.301722 -6.60203,-8.786716 -13.92677,-7.626939 l -22.5444,0.996097 c -2.40487,-5.075207 -5.36916,-9.917093 -8.85061,-14.450895 l 10.95679,-19.397091 c 4.35816,-5.998498 3.7436,-12.55594 -0.59936,-15.711274 L 186.12652,31.617805 c -4.34134,-3.154171 -10.76696,-1.711698 -15.12511,4.286775 L 155.86236,52.416986 C 150.47355,50.506779 144.98798,49.13102 139.41773,48.412571 L 133.41181,26.635422 C 132.25174,19.311075 127.155,14.888044 121.85464,15.727886 l -20.79671,3.288284 c -5.300863,0.838874 -8.790447,6.607166 -7.631247,13.932698 l 0.993691,22.546885 c -5.075099,2.405551 -9.917842,5.371018 -14.451931,8.852852 L 60.165116,53.100309 C 54.166618,48.742144 47.204384,49.063212 44.049915,53.404968 L 31.671408,70.442519 c -3.155329,4.342939 -1.308941,11.063228 4.689558,15.421385 l 16.715802,15.284426 c -1.909625,5.388 -3.184331,10.94881 -3.903569,16.51848 l -21.726011,6.04188 c -7.324632,1.16046 -11.72267,6.27596 -10.883681,11.57749 l 3.301207,20.80551 c 0.839735,5.29969 6.614383,8.79631 13.939589,7.63506 l 22.550445,-0.99112 c 2.407489,5.08074 5.367934,9.94037 8.855233,14.48023 l -11.414817,20.00343 c -4.359016,5.99968 -4.26166,13.27316 0.07969,16.42734 l 17.037936,12.37879 c 4.342936,3.15532 11.28739,1.00044 15.647574,-5.00083 l 15.297073,-16.76152 c 5.39572,1.91402 11.03,3.08761 16.608,3.80867 l 6.07344,21.68253 c 1.1613,7.32346 6.29146,11.70136 11.59298,10.86236 l 20.81327,-3.31188 c 5.29995,-0.84012 8.80032,-6.6199 7.63877,-13.94471 l -0.98959,-22.55417 c 5.08024,-2.40846 9.92942,-5.37951 14.46707,-8.86539 l 18.80614,10.5407 c 5.9989,4.35844 12.05936,3.38038 15.21467,-0.96256 l 12.37853,-17.03753 c 3.15444,-4.34177 2.21366,-10.40534 -3.78762,-14.7655 z m -108.19697,-18.8107 c -12.548441,-9.11697 -15.339986,-26.74208 -6.223,-39.29052 9.1167,-12.548051 26.74205,-15.339992 39.2905,-6.223 12.54846,9.11698 15.33972,26.74246 6.22302,39.29052 -9.11699,12.54846 -26.74206,15.33999 -39.29052,6.223 z"
       id="path7"
       inkscape:connector-curvature="0" /><g
       id="g9"><g
         id="g11"><circle
           style="fill:#B3B3B3;"
           cx="116.5827637"
           cy="119.637207"
           r="6.470459"
           id="circle13" /><circle
           style="fill:#B3B3B3;"
           cx="140.550293"
           cy="119.637207"
           r="6.4711914"
           id="circle15" /></g><path
         style="fill:#B3B3B3;"
         d="M128.5668945,145.4677734c-5.8432617,0-11.3359375-2.2753906-15.4667969-6.40625    c-0.9760742-0.9765625-0.9760742-2.5595703,0.0004883-3.5351563c0.9765625-0.9765625,2.559082-0.9765625,3.5356445,0    c3.1860352,3.1865234,7.4228516,4.9414063,11.9306641,4.9414063c4.5063477,0,8.7436523-1.7548828,11.9311523-4.9414063    c0.9765625-0.9765625,2.5605469-0.9765625,3.5351563,0c0.9765625,0.9765625,0.9765625,2.5595703,0,3.5351563    C139.9013672,143.1923828,134.4082031,145.4677734,128.5668945,145.4677734z"
         id="path17" /></g><path
       style="fill:#FFFFFF;"
       d="M128.5668945,54.5849609c-40.2416992,0-72.9819336,32.7397461-72.9819336,72.9819336   c0,40.2426758,32.7402344,72.9819336,72.9819336,72.9819336c40.2426758,0,72.9819336-32.7392578,72.9819336-72.9819336   C201.5488281,87.324707,168.8095703,54.5849609,128.5668945,54.5849609z M128.5668945,163.6679688   c-19.90625,0-36.0986328-16.1943359-36.0986328-36.1010742c0-19.90625,16.1923828-36.1000977,36.0986328-36.1000977   c19.9067383,0,36.1010742,16.1938477,36.1010742,36.1000977   C164.6679688,147.4736328,148.4736328,163.6679688,128.5668945,163.6679688z"
       id="path19" /></g></svg>