<?xml version="1.0" encoding="UTF-8" standalone="no"?>
<!-- Generator: Adobe Illustrator 15.0.0, SVG Export Plug-In . SVG Version: 6.00 Build 0)  -->

<svg
   xmlns:dc="http://purl.org/dc/elements/1.1/"
   xmlns:cc="http://creativecommons.org/ns#"
   xmlns:rdf="http://www.w3.org/1999/02/22-rdf-syntax-ns#"
   xmlns:svg="http://www.w3.org/2000/svg"
   xmlns="http://www.w3.org/2000/svg"
   xmlns:sodipodi="http://sodipodi.sourceforge.net/DTD/sodipodi-0.dtd"
   xmlns:inkscape="http://www.inkscape.org/namespaces/inkscape"
   version="1.1"
   id="レイヤー_1"
   x="0px"
   y="0px"
   width="256px"
   height="256px"
   viewBox="0 0 256 256"
   style="enable-background:new 0 0 256 256;"
   xml:space="preserve"
   inkscape:version="0.48.5 r10040"
   sodipodi:docname="8.svg"><metadata
     id="metadata25"><rdf:RDF><cc:Work
         rdf:about=""><dc:format>image/svg+xml</dc:format><dc:type
           rdf:resource="http://purl.org/dc/dcmitype/StillImage" /><dc:title></dc:title></cc:Work></rdf:RDF></metadata><defs
     id="defs23" /><sodipodi:namedview
     pagecolor="#ffffff"
     bordercolor="#666666"
     borderopacity="1"
     objecttolerance="10"
     gridtolerance="10"
     guidetolerance="10"
     inkscape:pageopacity="0"
     inkscape:pageshadow="2"
     inkscape:window-width="1920"
     inkscape:window-height="1052"
     id="namedview21"
     showgrid="false"
     inkscape:zoom="0.921875"
     inkscape:cx="-82.440678"
     inkscape:cy="128"
     inkscape:window-x="1920"
     inkscape:window-y="0"
     inkscape:window-maximized="1"
     inkscape:current-layer="g3" /><g
     id="g3"><circle
       style="fill:#FFFFFF;"
       cx="128.5671387"
       cy="126.8754883"
       r="33.8967285"
       id="circle5" /><path
       style="fill:#b3b3b3"
       d="m 217.13102,176.78151 -14.95068,-16.0902 c 2.32986,-5.22704 4.24111,-10.50079 5.3954,-16.00242 l 22.23587,-4.23148 c 7.39241,-0.58216 12.22986,-5.29274 11.80845,-10.64266 l -1.63197,-20.97823 c -0.4215,-5.35129 -5.89228,-9.277622 -13.28543,-8.69611 L 204.1496,99.364621 c -1.99926,-5.248246 -4.57452,-10.307781 -7.68952,-15.100759 l 12.44489,-18.477636 c 4.81536,-5.638069 4.71719,-12.223515 0.63518,-15.709867 L 193.52596,36.398945 c -4.08048,-3.485066 -10.59947,-2.551188 -15.41482,3.086857 L 161.72321,54.75951 c -5.22232,-2.32712 -10.58304,-4.12903 -16.07975,-5.282301 l -4.27879,-22.181237 c -0.58183,-7.392786 -5.31583,-12.202068 -10.66575,-11.780677 l -20.99059,1.646457 c -5.35034,0.420387 -9.28175,5.897107 -8.70087,13.291007 l -0.77838,22.555345 C 94.980884,55.008051 89.920402,57.58442 85.127108,60.69978 L 66.267359,47.932407 C 60.62929,43.11704 53.663328,42.890868 50.177933,46.971743 L 36.500834,62.985567 c -3.486345,4.081986 -2.172917,10.926425 3.465153,15.741784 l 15.465071,16.548816 c -2.326476,5.221563 -4.033549,10.665223 -5.187561,16.161293 l -22.133077,4.31865 c -7.393101,0.5822 -12.178939,5.33686 -11.75849,10.68787 l 1.658649,21.00039 c 0.421338,5.34923 5.903843,9.28815 13.297578,8.70521 l 22.558692,0.78122 c 2.001437,5.25397 4.571474,10.33089 7.69183,15.13037 l -12.94908,19.04617 c -4.816308,5.63918 -5.289923,12.89787 -1.20943,16.38295 l 16.014185,13.67741 c 4.081985,3.48634 11.174101,1.88296 15.991698,-3.75772 l 16.565011,-15.50965 c 5.228917,2.33146 10.753747,3.94349 16.257977,5.09997 l 4.35353,22.09221 c 0.58313,7.392 5.35398,12.15891 10.70499,11.73845 l 21.00896,-1.66868 c 5.34952,-0.4217 9.29258,-5.90903 8.70931,-13.30239 l 0.78304,-22.56229 c 5.25354,-2.00244 10.32088,-4.58387 15.11804,-7.70299 l 17.92115,11.98372 c 5.63845,4.81568 11.75697,4.31613 15.24329,0.23414 l 13.67712,-16.0138 c 3.48537,-4.08089 3.02323,-10.19958 -2.61745,-15.01716 z M 110.74346,149.53976 c -11.794452,-10.0734 -13.194542,-27.8632 -3.12112,-39.65765 10.0731,-11.794079 27.86317,-13.194544 39.65763,-3.12112 11.79447,10.07342 13.19424,27.86357 3.12114,39.65766 -10.07343,11.79446 -27.86319,13.19454 -39.65765,3.12111 z"
       id="path7"
       inkscape:connector-curvature="0" /><g
       id="g9"><g
         id="g11"><circle
           style="fill:#B3B3B3;"
           cx="116.5827637"
           cy="119.637207"
           r="6.470459"
           id="circle13" /><circle
           style="fill:#B3B3B3;"
           cx="140.550293"
           cy="119.637207"
           r="6.4711914"
           id="circle15" /></g><path
         style="fill:#B3B3B3;"
         d="M128.5668945,145.4677734c-5.8432617,0-11.3359375-2.2753906-15.4667969-6.40625    c-0.9760742-0.9765625-0.9760742-2.5595703,0.0004883-3.5351563c0.9765625-0.9765625,2.559082-0.9765625,3.5356445,0    c3.1860352,3.1865234,7.4228516,4.9414063,11.9306641,4.9414063c4.5063477,0,8.7436523-1.7548828,11.9311523-4.9414063    c0.9765625-0.9765625,2.5605469-0.9765625,3.5351563,0c0.9765625,0.9765625,0.9765625,2.5595703,0,3.5351563    C139.9013672,143.1923828,134.4082031,145.4677734,128.5668945,145.4677734z"
         id="path17" /></g><path
       style="fill:#FFFFFF;"
       d="M128.5668945,54.5849609c-40.2416992,0-72.9819336,32.7397461-72.9819336,72.9819336   c0,40.2426758,32.7402344,72.9819336,72.9819336,72.9819336c40.2426758,0,72.9819336-32.7392578,72.9819336-72.9819336   C201.5488281,87.324707,168.8095703,54.5849609,128.5668945,54.5849609z M128.5668945,163.6679688   c-19.90625,0-36.0986328-16.1943359-36.0986328-36.1010742c0-19.90625,16.1923828-36.1000977,36.0986328-36.1000977   c19.9067383,0,36.1010742,16.1938477,36.1010742,36.1000977   C164.6679688,147.4736328,148.4736328,163.6679688,128.5668945,163.6679688z"
       id="path19" /></g></svg>