<?xml version="1.0" encoding="utf-8"?>
<!-- Generator: Adobe Illustrator 17.0.0, SVG Export Plug-In . SVG Version: 6.00 Build 0)  -->
<!DOCTYPE svg PUBLIC "-//W3C//DTD SVG 1.1//EN" "http://www.w3.org/Graphics/SVG/1.1/DTD/svg11.dtd">
<svg version="1.1" id="レイヤー_1" xmlns="http://www.w3.org/2000/svg" xmlns:xlink="http://www.w3.org/1999/xlink" x="0px"
	 y="0px" width="64px" height="64px" viewBox="0 0 64 64" style="enable-background:new 0 0 64 64;" xml:space="preserve">
<g>
	<g>
		<linearGradient id="SVGID_1_" gradientUnits="userSpaceOnUse" x1="16" y1="33.0236282" x2="16" y2="64">
			<stop  offset="0" style="stop-color:#3E3A39"/>
			<stop  offset="1" style="stop-color:#231815"/>
		</linearGradient>
		<path style="fill:url(#SVGID_1_);" d="M22,33.0236282c0,0,10,0,10,12S32,64,32,64H0c0,0,0-6.9763718,0-18.9763718s10-12,10-12H22z
			"/>
		<path style="fill:#231815;" d="M32.25,64.25h-32.5V45.0234375c0-12.1098633,10.1474609-12.25,10.25-12.25h12
			c0.1025391,0,10.25,0.1401367,10.25,12.25V64.25z M0.25,63.75h31.5V45.0234375c0-11.6015625-9.3520508-11.7490234-9.75-11.75H10
			c-0.3979492,0.0009766-9.75,0.1484375-9.75,11.75V63.75z"/>
	</g>
	<g>
		<g>
			<path style="fill:#FFE6D9;" d="M20.9242554,25.0236301H16h-4.9241943c0,0-0.2424927,6.75-1.0758057,7.9999981
				c0,0,2.125,1.916626,6,1.916626s6-1.916626,6-1.916626C21.166687,31.7736301,20.9242554,25.0236301,20.9242554,25.0236301z"/>
			<path style="fill:#231815;" d="M16,35.1904297c-3.9257813,0-6.0776367-1.9003906-6.1674805-1.9814453l-0.1601563-0.1445313
				l0.1196289-0.1796875c0.6513672-0.9770508,0.9672852-6.0126953,1.0336914-7.8701172l0.0087891-0.2412109h10.3310547
				l0.0087891,0.2412109c0.0664063,1.8574219,0.3823242,6.8930664,1.0336914,7.8701172l0.1196289,0.1796875l-0.1601563,0.1445313
				C22.0776367,33.2900391,19.9257813,35.1904297,16,35.1904297z M10.3198242,32.9599609
				C10.8637695,33.3730469,12.8452148,34.6904297,16,34.6904297c3.1650391,0,5.1386719-1.3164063,5.6806641-1.7299805
				c-0.699707-1.4912109-0.9443359-6.409668-0.9970703-7.6870117h-9.3671875
				C11.2636719,26.5507813,11.019043,31.4682617,10.3198242,32.9599609z"/>
		</g>
		<g>
			<path style="fill:#FFE6D9;" d="M26,15.9379845c0,0,2-1.6124029,2,3.2248058S22,24,22,24L26,15.9379845z"/>
			<path style="fill:#231815;" d="M22,24.25h-0.4033203l4.246582-8.5068359
				c0.0395508-0.0317383,0.4018555-0.3129883,0.8608398-0.3129883c1.0258789,0,1.5458984,1.2558594,1.5458984,3.7324219
				C28.25,24.1918945,22.0625,24.25,22,24.25z M26.1962891,16.1044922l-3.7841797,7.6274414
				C23.7382813,23.6357422,27.75,23.0249023,27.75,19.1625977c0-2.0541992-0.3813477-3.2324219-1.0458984-3.2324219
				C26.4829102,15.9301758,26.2797852,16.0488281,26.1962891,16.1044922z"/>
		</g>
		<g>
			<path style="fill:#FFE6D9;" d="M6,15.9379845c0,0-2-1.6124029-2,3.2248058S10,24,10,24L6,15.9379845z"/>
			<path style="fill:#231815;" d="M10.4033203,24.25H10c-0.0625,0-6.25-0.0581055-6.25-5.0874023
				c0-2.4765625,0.5200195-3.7324219,1.5458984-3.7324219c0.4589844,0,0.8212891,0.28125,0.8608398,0.3129883l0.0673828,0.0834961
				L10.4033203,24.25z M5.2958984,15.9301758c-0.6645508,0-1.0458984,1.1782227-1.0458984,3.2324219
				c0,3.8623047,4.0117188,4.4731445,5.3378906,4.5693359l-3.7841797-7.6274414
				C5.7197266,16.0483398,5.5166016,15.9301758,5.2958984,15.9301758z"/>
		</g>
		<g>
			<path style="fill:#FFE6D9;" d="M16,4c-5.6623144,0-10.6317587,1.7474365-9.437191,14.666626
				c0.3604612,3.8980103,1.708014,6.9669189,3.2050395,8.5532227C11.2991447,28.8424683,14.100523,31.5,16,31.5
				s4.7009125-2.6575317,6.2321529-4.2801514c1.4970818-1.5863037,2.844635-4.6552124,3.2050381-8.5532227
				C26.6317596,5.7474365,21.6623154,4,16,4z"/>
			<path style="fill:#231815;" d="M16,31.75c-1.9013672,0-4.5371094-2.3701172-6.4135742-4.3588867
				c-1.7133789-1.8144531-2.9365234-5.0673828-3.2724609-8.7016602C5.7519531,12.6132813,6.5024414,8.5371094,8.6074219,6.2285156
				C10.6103516,4.0317383,13.6103516,3.75,16,3.75s5.3896484,0.2817383,7.3925781,2.4785156
				c2.1049805,2.3085938,2.8554688,6.3847656,2.293457,12.4609375c-0.3359375,3.6342773-1.559082,6.887207-3.2724609,8.7016602
				C20.5371094,29.3798828,17.9013672,31.75,16,31.75z M16,4.25c-2.4287109,0-5.1625977,0.2749023-7.0229492,2.3154297
				c-2.0053711,2.1992188-2.7133789,6.1499023-2.1650391,12.078125c0.3212891,3.4736328,1.5234375,6.6943359,3.1376953,8.4047852
				C12.4697266,29.7182617,14.675293,31.25,16,31.25s3.5302734-1.5317383,6.050293-4.2016602
				c1.6142578-1.7104492,2.8164063-4.9311523,3.1376953-8.4047852c0.5483398-5.9282227-0.159668-9.8789063-2.1650391-12.078125
				C21.1625977,4.5249023,18.4287109,4.25,16,4.25z"/>
		</g>
	</g>
	<g>
		<path style="fill:#231815;" d="M12,25.4375c0,0,2,0.625,4,0.625s4-0.625,4-0.625s0.15625,1.21875-4,1.21875S12,25.4375,12,25.4375
			z"/>
		<g>
			<g>
				<path style="fill:#F5F5F5;" d="M18.012764,17.6929607c0-0.3434982,0.5725288-1.7650261,2.4651241-1.7650261
					s2.7487202,1.390625,2.7487202,1.390625s-1.034214,1.3278732-2.7488842,1.3014927
					C19.7651291,18.6090889,18.012764,18.036459,18.012764,17.6929607z"/>
				<ellipse style="fill:#231815;" cx="20.3797188" cy="17.147644" rx="1.3197482" ry="1.4186682"/>
				<ellipse style="fill:#3E3A39;" cx="20.3797188" cy="17.147644" rx="1.0280999" ry="1.1888798"/>
				<ellipse style="fill:#231815;" cx="20.3797188" cy="17.147644" rx="0.4987249" ry="0.5767183"/>
				<path style="fill:#231815;" d="M20.4778881,15.6808434c-2.0408974,0.1754913-2.6818066,1.731842-2.7487221,2.0121155
					c0.2033043-0.2063866,1.2585526-1.558157,2.6505527-1.5404987c1.7561283,0.0222797,2.5414753,1.2253494,2.5414753,1.2253494
					c-0.0242863,0.0357037-0.5733852,0.7718468-0.5733852,0.7718468s0.7598629-0.4199562,1.3984928-0.984705
					C23.7463017,17.1649513,22.5187855,15.505352,20.4778881,15.6808434z"/>
				<ellipse style="fill:#FFFFFF;" cx="19.6230812" cy="16.6355705" rx="0.356352" ry="0.3007674"/>
			</g>
			<g>
				<path style="fill:#F5F5F5;" d="M13.9872351,17.6929607c0-0.3434982-0.5725269-1.7650261-2.4651222-1.7650261
					s-2.7487211,1.390625-2.7487211,1.390625s1.034215,1.3278732,2.7488842,1.3014927
					C12.23487,18.6090889,13.9872351,18.036459,13.9872351,17.6929607z"/>
				<ellipse style="fill:#231815;" cx="11.6202812" cy="17.147644" rx="1.3197482" ry="1.4186682"/>
				<ellipse style="fill:#3E3A39;" cx="11.6202812" cy="17.147644" rx="1.0280999" ry="1.1888798"/>
				<ellipse style="fill:#231815;" cx="11.6202812" cy="17.147644" rx="0.4987249" ry="0.5767183"/>
				<path style="fill:#231815;" d="M11.5221128,15.6808434c2.0408964,0.1754913,2.6818047,1.731842,2.7487202,2.0121155
					c-0.2033033-0.2063866-1.2585516-1.558157-2.6505518-1.5404987c-1.7561274,0.0222797-2.5414762,1.2253494-2.5414762,1.2253494
					c0.0242863,0.0357037,0.5733862,0.7718468,0.5733862,0.7718468s-0.7598639-0.4199562-1.3984928-0.984705
					C8.2536983,17.1649513,9.4812155,15.505352,11.5221128,15.6808434z"/>
				<ellipse style="fill:#FFFFFF;" cx="10.8636427" cy="16.6355705" rx="0.356352" ry="0.3007674"/>
			</g>
		</g>
		<g>
			<path style="fill:#231815;" d="M14.84375,14.6482391c0,0-2.84375-2.6236181-6.46875-0.2681446
				c0,0,2.46875-0.8925714,5.40625,0.5679998C13.78125,14.9480944,14.515625,15.0404291,14.84375,14.6482391z"/>
			<path style="fill:#231815;" d="M17.15625,14.6482391c0,0,2.84375-2.6236181,6.46875-0.2681446
				c0,0-2.46875-0.8925714-5.40625,0.5679998C18.21875,14.9480944,17.484375,15.0404291,17.15625,14.6482391z"/>
		</g>
		<linearGradient id="SVGID_2_" gradientUnits="userSpaceOnUse" x1="15.4719238" y1="22.833334" x2="15.4719238" y2="18">
			<stop  offset="0" style="stop-color:#FFFFFF;stop-opacity:0.05"/>
			<stop  offset="0.5" style="stop-color:#FFFFFF;stop-opacity:0.4"/>
			<stop  offset="1" style="stop-color:#FFFFFF;stop-opacity:0.05"/>
		</linearGradient>
		<path style="fill:url(#SVGID_2_);" d="M16.0000057,20.416666c0,1.3346882-0.6311331,2.4166679-0.9137316,2.4166679
			c-0.2825994,0-0.0835657-1.4994335,0.0730982-2.7942715C15.3055696,18.8307285,15.4250135,18,15.707612,18
			S16.0000057,19.0819778,16.0000057,20.416666z"/>
	</g>
	<g>
		<g>
			<linearGradient id="SVGID_3_" gradientUnits="userSpaceOnUse" x1="16.0000057" y1="0.7147986" x2="16.0000057" y2="21.678812">
				<stop  offset="0.1504425" style="stop-color:#6E4E30"/>
				<stop  offset="0.9955752" style="stop-color:#2E2114"/>
			</linearGradient>
			<path style="fill:url(#SVGID_3_);" d="M26.785675,7.9787483c-2.2882843-2.2723374-1.4450321-4.1529408-3.2612686-5.0932751
				c-1.8162365-0.9402685-6.7516575-3.7242539-8.7244196-1.0186023c-1.8486691-1.9590029-4.8973513,1.0186023-6.7135878,1.9589368
				C6.2701635,4.7660761,7.5026093,5.7064109,5.2143874,7.9787483c-2.288285,2.2724037-0.6307287,8.6194153-0.6307287,8.6194153
				L6.5625,21.678812l0.753468-2.6796532l-0.5794353-2.3878975L7.3125,14.75
				c0.0746207-0.4507656-0.1477113-1.7557154-0.0458517-2.1643057c0.3190069,0.4021788,0.7716722,2.0423851,1.4359741,2.2194128
				c0,0,0.1131954-2.2098284-0.1627998-3.7943497c1.1815796,1.1018934,2.2709312,1.3944054,2.2709312,1.3944054
				c-0.2347574-0.6492767-0.3348436-1.285532-0.3465624-1.8978567c2.2858086,3.850071,7.1072788,5.5894613,7.1072788,5.5894613
				C18,15.125,18.3072643,11.2773561,18.25,10.7753601c0.8162041,0.9062243,1.2396412,1.6442137,1.2396412,1.6442137
				c0.6105232-0.6333466,0.9009838-1.2227688,0.8732662-1.7389412c0.8435688,0.7219915,1.5714054,3.3710165,2.0803852,4.1244745
				c0,0,1.0150414-1.3483839,1.2870502-3.7166767c0.2822018,2.0842705,0.1832581,3.776145,0.1832581,3.776145
				c0.4630527-0.2404213,0.8520565-0.4883127,1.1945648-0.7403688L25.125,16.1542969L24.75,18.75l0.65625,2.928812
				l2.0100918-5.0806484C27.4163418,16.5981636,29.0738964,10.251152,26.785675,7.9787483z"/>
			<path style="fill:#2B1D15;" d="M25.3398438,22.5258789l-0.84375-3.7661133l0.3813477-2.6411133l-0.0146484-1.5195313
				c-0.2636719,0.1733398-0.5390625,0.3339844-0.8339844,0.4873047l-0.390625,0.203125l0.0258789-0.4394531
				c0.0004883-0.0117188,0.0473633-0.8535156-0.0224609-2.0639648c-0.4033203,1.3662109-0.9667969,2.1269531-0.9985352,2.1694336
				l-0.2104492,0.2797852l-0.1962891-0.2900391c-0.2080078-0.3076172-0.4326172-0.8662109-0.6928711-1.5126953
				c-0.2958984-0.7368164-0.6479492-1.6118164-1.0117188-2.1635742c-0.1318359,0.421875-0.4199219,0.8652344-0.8618164,1.3237305
				l-0.230957,0.2397461l-0.1660156-0.2885742c-0.003418-0.0058594-0.2714844-0.4682617-0.78125-1.1000977
				c-0.0629883,1.3081055-0.328125,3.9291992-0.6918945,4.7539063l-0.09375,0.2133789l-0.2197266-0.0791016
				c-0.1850586-0.0668945-4.2353516-1.5581055-6.6694336-4.8447266c0.0546875,0.284668,0.1313477,0.5625,0.2290039,0.8330078
				l0.1625977,0.4506836l-0.4628906-0.1245117c-0.0400391-0.0107422-0.8676758-0.2397461-1.8676758-1.019043
				c0.1591797,1.4731445,0.0786133,3.1113281,0.0742188,3.1904297l-0.015625,0.3085938L8.6381836,15.046875
				c-0.4838867-0.1293945-0.8188477-0.7426758-1.1054688-1.362793c0,0.0043945,0.0004883,0.0087891,0.0009766,0.0131836
				c0.0336914,0.4365234,0.065918,0.8496094,0.0253906,1.09375l-0.5634766,1.828125l0.5786133,2.3842773l-0.9731445,3.4624023
				l-2.2504883-5.7768555c-0.078125-0.2924805-1.675293-6.5410156,0.6875-8.8876953
				C6.1469727,6.7001953,6.3945313,5.9306641,6.59375,5.3129883C6.7998047,4.671875,6.9780273,4.1181641,7.9716797,3.6035156
				c0.3994141-0.206543,0.8725586-0.5234375,1.3735352-0.8588867c1.2480469-0.8349609,2.6630859-1.7817383,3.9589844-1.7817383
				c0.5595703,0,1.0527344,0.1796875,1.4707031,0.5351563c0.6025391-0.6860352,1.4560547-1.0332031,2.5429688-1.0332031
				c2.1201172,0,4.6577148,1.328125,6.0209961,2.0415039l0.300293,0.1567383
				c0.9956055,0.515625,1.2631836,1.2880859,1.5737305,2.1831055c0.3017578,0.8710938,0.644043,1.8579102,1.7490234,2.9550781
				c2.362793,2.3466797,0.765625,8.5952148,0.6962891,8.8598633L25.3398438,22.5258789z M13.3041992,1.4628906
				c-1.144043,0-2.4916992,0.9018555-3.6806641,1.6977539C9.1103516,3.5039063,8.6259766,3.828125,8.2011719,4.0478516
				C7.3911133,4.4672852,7.2700195,4.8432617,7.0693359,5.4658203c-0.215332,0.6699219-0.4833984,1.503418-1.6787109,2.6899414
				c-2.159668,2.1450195-0.581543,8.3173828-0.5654297,8.3793945l1.6987305,4.3564453l0.5336914-1.8974609l-0.5805664-2.390625
				l0.5966797-1.9272461c0.0224609-0.1513672-0.0097656-0.5708008-0.0385742-0.9404297
				c-0.0385742-0.4921875-0.074707-0.9570313-0.0112305-1.2104492l0.1230469-0.4921875l0.3154297,0.3974609
				c0.1235352,0.1557617,0.2416992,0.4179688,0.390625,0.75c0.1625977,0.3618164,0.3833008,0.8530273,0.6152344,1.1445313
				c0.0166016-0.7285156,0.0180664-2.1660156-0.1743164-3.2714844l-0.1279297-0.7338867l0.5444336,0.5083008
				c0.6630859,0.6181641,1.2988281,0.972168,1.7080078,1.1586914c-0.1259766-0.4760742-0.1943359-0.9702148-0.2041016-1.4746094
				L10.1962891,9.565918l0.4829102,0.8139648c1.9291992,3.2495117,5.7651367,4.987793,6.7451172,5.3901367
				c0.3720703-1.2114258,0.6245117-4.5537109,0.5771484-4.9663086l-0.0878906-0.7753906l0.5219727,0.5795898
				c0.5258789,0.5834961,0.890625,1.0961914,1.090332,1.3989258c0.4057617-0.4804688,0.6079102-0.9306641,0.5874023-1.3125
				l-0.0317383-0.5834961l0.4438477,0.3798828c0.5703125,0.4882813,1.0546875,1.6928711,1.4819336,2.7553711
				c0.159668,0.3969727,0.3134766,0.7792969,0.4511719,1.0678711c0.3032227-0.5292969,0.8398438-1.6557617,1.0234375-3.2539063
				l0.2280273-1.9853516l0.2680664,1.9799805c0.199707,1.4731445,0.2114258,2.7392578,0.2001953,3.3798828
				c0.2744141-0.1591797,0.5327148-0.3286133,0.7817383-0.5117188l0.3945313-0.2905273L25.375,16.1523438l-0.3710938,2.5878906
				l0.46875,2.0913086l1.7114258-4.3251953c0.0068359-0.0332031,1.5849609-6.2055664-0.574707-8.3505859
				c-1.1870117-1.1787109-1.5649414-2.269043-1.8691406-3.1455078c-0.2973633-0.8588867-0.5126953-1.4794922-1.3305664-1.902832
				L23.1069336,2.949707c-1.3251953-0.6938477-3.7919922-1.9848633-5.7890625-1.9848633
				c-1.043457,0-1.8012695,0.3432617-2.315918,1.0493164L14.824707,2.2573242l-0.206543-0.2192383
				C14.2524414,1.6508789,13.8227539,1.4628906,13.3041992,1.4628906z"/>
		</g>
		<linearGradient id="SVGID_4_" gradientUnits="userSpaceOnUse" x1="14.5063419" y1="3.75" x2="14.5063419" y2="15.0625">
			<stop  offset="0" style="stop-color:#8C6B42"/>
			<stop  offset="0.9955752" style="stop-color:#6E4E30"/>
		</linearGradient>
		<path style="fill:url(#SVGID_4_);" d="M14,3.75c0,0-2.8125,5.875,3.15625,11.3125C17.15625,15.0625,7.75,9.4375,14,3.75z"/>
		<linearGradient id="SVGID_5_" gradientUnits="userSpaceOnUse" x1="22.0538311" y1="4.6841831" x2="22.0538311" y2="13.875">
			<stop  offset="0" style="stop-color:#8C6B42"/>
			<stop  offset="0.9955752" style="stop-color:#6E4E30"/>
		</linearGradient>
		<path style="fill:url(#SVGID_5_);" d="M20.9242249,4.6841831c0,0,3.7632751,3.6908169,1.5757751,9.1908169
			C22.5,13.875,22.8484497,8.9933662,20.9242249,4.6841831z"/>
		<linearGradient id="SVGID_6_" gradientUnits="userSpaceOnUse" x1="5.6597223" y1="7.6875" x2="5.6597223" y2="18.8125">
			<stop  offset="0" style="stop-color:#8C6B42"/>
			<stop  offset="0.9955752" style="stop-color:#6E4E30"/>
		</linearGradient>
		<path style="fill:url(#SVGID_6_);" d="M6.5625,7.6875c0,0-4.0625,3.875,0,11.125C6.5625,18.8125,4.25,12.5625,6.5625,7.6875z"/>
		<linearGradient id="SVGID_7_" gradientUnits="userSpaceOnUse" x1="26.5949516" y1="8" x2="26.5949516" y2="18.3125">
			<stop  offset="0" style="stop-color:#8C6B42"/>
			<stop  offset="0.9955752" style="stop-color:#6E4E30"/>
		</linearGradient>
		<path style="fill:url(#SVGID_7_);" d="M25.8125,8c0,0,3.2542591,2.8125,0.3771305,10.3125
			C26.1896305,18.3125,27.625,11.25,25.8125,8z"/>
	</g>
	<g>
		<g>
			<linearGradient id="SVGID_8_" gradientUnits="userSpaceOnUse" x1="18.5078125" y1="23.7229671" x2="18.5078125" y2="25.0236301">
				<stop  offset="0.1504425" style="stop-color:#6E4E30"/>
				<stop  offset="0.9955752" style="stop-color:#2E2114"/>
			</linearGradient>
			<path style="fill:url(#SVGID_8_);" d="M16.625,23.75c0,0,2.96875-0.3125,3.765625,1.1875
				C20.390625,24.9375,17.1875,25.5,16.625,23.75z"/>
			<path style="fill:#2B1D15;" d="M19.2695313,25.2734375c-1.581543,0-2.578125-0.5-2.8823242-1.4467773l-0.0942383-0.2929688
				l0.3056641-0.0322266c0.0009766,0.0009766,3.1381836-0.3286133,4.0126953,1.3188477l0.1616211,0.3037109l-0.3388672,0.0595703
				C20.4130859,25.1875,19.9145508,25.2734375,19.2695313,25.2734375z M17.0087891,23.9770508
				c0.5664063,0.8520508,2.1567383,0.8359375,2.9321289,0.7646484
				C19.2226563,23.9995117,17.7045898,23.953125,17.0087891,23.9770508z"/>
		</g>
		<g>
			<linearGradient id="SVGID_9_" gradientUnits="userSpaceOnUse" x1="13.4921875" y1="23.7229671" x2="13.4921875" y2="25.0236301">
				<stop  offset="0.1504425" style="stop-color:#6E4E30"/>
				<stop  offset="0.9955752" style="stop-color:#2E2114"/>
			</linearGradient>
			<path style="fill:url(#SVGID_9_);" d="M15.375,23.75c0,0-2.96875-0.3125-3.765625,1.1875
				C11.609375,24.9375,14.8125,25.5,15.375,23.75z"/>
			<path style="fill:#2B1D15;" d="M12.7304688,25.2734375C12.7304688,25.2734375,12.730957,25.2734375,12.7304688,25.2734375
				c-0.6450195,0-1.1435547-0.0859375-1.1645508-0.0898438l-0.3388672-0.0595703l0.1616211-0.3037109
				c0.8759766-1.6474609,4.0131836-1.3178711,4.0126953-1.3188477l0.3056641,0.0322266l-0.0942383,0.2929688
				C15.3085938,24.7729492,14.3120117,25.2734375,12.7304688,25.2734375z M12.059082,24.7416992
				c0.7739258,0.0717773,2.3657227,0.0874023,2.9321289-0.7646484
				C14.2939453,23.9526367,12.7773438,23.9995117,12.059082,24.7416992z"/>
		</g>
		<g>
			<linearGradient id="SVGID_10_" gradientUnits="userSpaceOnUse" x1="16" y1="28.4555569" x2="16" y2="31.5">
				<stop  offset="0.1504425" style="stop-color:#6E4E30"/>
				<stop  offset="0.9955752" style="stop-color:#2E2114"/>
			</linearGradient>
			<path style="fill:url(#SVGID_10_);" d="M17.5750008,30.479166l-0.2953129-1.1694412l-0.3691406,0.2708321L16,28.4555569
				l-0.9105473,1.125l-0.3691406-0.25l-0.2953119,1.1486092L13.4316406,30.3125c0,0,0.5242157,1.1875,2.5683594,1.1875
				s2.5683594-1.1875,2.5683594-1.1875L17.5750008,30.479166z"/>
			<path style="fill:#2B1D15;" d="M16,31.75c-2.1816406,0-2.7729492-1.2817383-2.796875-1.3364258l-0.1875-0.4243164
				l1.2241211,0.2050781l0.3266602-1.2700195l0.4731445,0.3203125L16,28.0581055l0.9550781,1.1796875l0.4760742-0.3496094
				l0.3300781,1.3061523l1.2231445-0.2050781l-0.1875,0.4243164C18.7729492,30.4682617,18.1816406,31.75,16,31.75z
				 M14.0488281,30.6694336C14.3881836,30.9477539,14.9887695,31.25,16,31.25c1.0107422,0,1.6113281-0.3017578,1.9511719-0.5805664
				l-0.5620117,0.0942383L17.128418,29.730957l-0.262207,0.1923828L16,28.8530273l-0.8608398,1.0634766l-0.2651367-0.1796875
				l-0.2641602,1.0268555L14.0488281,30.6694336z"/>
		</g>
	</g>
</g>
<g>
</g>
<g>
</g>
<g>
</g>
<g>
</g>
<g>
</g>
<g>
</g>
</svg>
