<?xml version="1.0" encoding="UTF-8" standalone="no"?>
<!-- Generated by phantom_svg. -->

<svg
   xmlns:dc="http://purl.org/dc/elements/1.1/"
   xmlns:cc="http://creativecommons.org/ns#"
   xmlns:rdf="http://www.w3.org/1999/02/22-rdf-syntax-ns#"
   xmlns:svg="http://www.w3.org/2000/svg"
   xmlns="http://www.w3.org/2000/svg"
   xmlns:sodipodi="http://sodipodi.sourceforge.net/DTD/sodipodi-0.dtd"
   xmlns:inkscape="http://www.inkscape.org/namespaces/inkscape"
   width="64px"
   height="64px"
   viewBox="0 0 64 64"
   preserveAspectRatio="none"
   version="1.1"
   id="svg6320"
   inkscape:version="0.91 r13725"
   sodipodi:docname="heartpulse.svg">
  <metadata
     id="frame0_metadata66">
    <rdf:RDF>
      <cc:Work
         rdf:about="">
        <dc:format>
           image/svg+xml 
        </dc:format>
        <dc:type
           rdf:resource="http://purl.org/dc/dcmitype/StillImage" />
      </cc:Work>
    </rdf:RDF>
  </metadata>
  <defs
     id="frame0_defs64" />
  <sodipodi:namedview
     pagecolor="#ffffff"
     bordercolor="#666666"
     borderopacity="1"
     objecttolerance="10"
     gridtolerance="10"
     guidetolerance="10"
     inkscape:pageopacity="0"
     inkscape:pageshadow="2"
     inkscape:window-width="862"
     inkscape:window-height="480"
     id="frame0_namedview62"
     showgrid="false"
     inkscape:zoom="3.6875"
     inkscape:cx="32"
     inkscape:cy="32"
     inkscape:window-x="0"
     inkscape:window-y="26"
     inkscape:window-maximized="0"
     inkscape:current-layer="svg6320" />
  <g
     id="frame0_g3"
     transform="matrix(0.40983882,0,0,0.40983001,18.885121,-1.6445173)">
    <g
       style="opacity:0.35"
       id="frame0_g5">
      <path
         style="fill:#c10021"
         d="M 32,56.949219 30.885742,56.320312 C 30.17041,55.916016 13.297363,46.289062 7.5556641,33.952148 4.2607422,26.871094 4.3706055,19.385254 7.850586,13.927246 10.500977,9.7709961 14.854492,7.387207 19.794922,7.387207 c 6.132812,0 10.00293,3.682617 12.205078,7.575684 2.202148,-3.89209 6.073242,-7.5747074 12.205078,-7.5747074 4.94043,0 9.294922,2.3837891 11.944336,6.5405274 3.480469,5.457519 3.589844,12.942871 0.294922,20.023437 C 50.703125,46.289062 33.830078,55.916016 33.114258,56.320312 L 32,56.949219 Z M 19.794922,11.921387 c -3.409668,0 -6.293945,1.578125 -8.121094,4.443847 -2.642578,4.14502 -2.6455077,10.003907 -0.0068,15.67334 4.342774,9.331543 16.568848,17.358887 20.332031,19.667481 3.762696,-2.310547 15.999024,-10.352539 20.333985,-19.667481 2.638672,-5.668945 2.635742,-11.527344 -0.0068,-15.672363 -1.827148,-2.865723 -4.710938,-4.443848 -8.121094,-4.443848 -8.176758,0 -9.953125,9.833985 -9.970703,9.933594 L 32,34.920898 29.765137,21.855957 c -0.0708,-0.399414 -1.851563,-9.93457 -9.970215,-9.93457 z"
         id="frame0_path7"
         inkscape:connector-curvature="0" />
      <linearGradient
         id="frame0_SVGID_1_"
         gradientUnits="userSpaceOnUse"
         x1="31.999512"
         y1="2.8847656"
         x2="31.99951"
         y2="48.213074">
        <stop
           offset="0"
           style="stop-color:#FFFFFF"
           id="frame0_stop10" />
        <stop
           offset="0.509091"
           style="stop-color:#FF1F3F"
           id="frame0_stop12" />
        <stop
           offset="0.6614935"
           style="stop-color:#FF2243"
           id="frame0_stop14" />
        <stop
           offset="0.8165283"
           style="stop-color:#FF2C4F"
           id="frame0_stop16" />
        <stop
           offset="0.9723371"
           style="stop-color:#FF3C64"
           id="frame0_stop18" />
        <stop
           offset="1"
           style="stop-color:#FF3F68"
           id="frame0_stop20" />
      </linearGradient>
      <path
         style="fill:url(#frame0_SVGID_1_)"
         d="m 32,54.345703 c 0,0 -16.888184,-9.53125 -22.3886719,-21.350586 -5.5004883,-11.819336 0,-23.3408201 10.1835939,-23.3408201 C 29.978516,9.6542969 32,21.473633 32,21.473633 c 0,0 2.021484,-11.8183596 12.205078,-11.8183596 10.183594,0 15.68457,11.5205076 10.183594,23.3398436 C 48.888672,44.814453 32,54.345703 32,54.345703 Z"
         id="frame0_path22"
         inkscape:connector-curvature="0" />
    </g>
    <g
       style="opacity:0.5"
       id="frame0_g24">
      <path
         style="fill:#c10021"
         d="M 32,56.466797 31.092285,55.954102 C 30.509277,55.625 16.762207,47.78125 12.083984,37.730469 9.3994141,31.960937 9.4892578,25.861328 12.324707,21.415039 c 2.15918,-3.386719 5.706055,-5.328613 9.731445,-5.328613 4.996582,0 8.149903,3.000488 9.943848,6.171875 1.793945,-3.170899 4.948242,-6.170899 9.945313,-6.170899 4.02539,0 7.572265,1.942383 9.731445,5.328614 2.834961,4.446289 2.923828,10.54541 0.239258,16.314453 C 47.239258,47.78125 33.491211,55.625 32.907715,55.954102 L 32,56.466797 Z M 22.056152,19.780762 c -2.77832,0 -5.127929,1.285644 -6.616699,3.620117 -2.15332,3.377441 -2.155762,8.151367 -0.0059,12.770996 3.538086,7.602539 13.5,14.143555 16.565918,16.023437 3.065918,-1.882812 13.035644,-8.43457 16.566894,-16.023437 2.150391,-4.619141 2.148438,-9.393066 -0.0049,-12.769531 -1.488281,-2.334961 -3.83789,-3.620606 -6.61621,-3.620606 -6.664063,0 -8.110352,8.011231 -8.125,8.092285 L 32.000488,38.518555 30.179199,27.874023 c -0.05762,-0.325683 -1.509277,-8.093261 -8.123047,-8.093261 z"
         id="frame0_path26"
         inkscape:connector-curvature="0" />
      <linearGradient
         id="frame0_SVGID_2_"
         gradientUnits="userSpaceOnUse"
         x1="32"
         y1="12.417969"
         x2="31.999998"
         y2="49.349083">
        <stop
           offset="0"
           style="stop-color:#FFFFFF"
           id="frame0_stop29" />
        <stop
           offset="0.509091"
           style="stop-color:#FF1F3F"
           id="frame0_stop31" />
        <stop
           offset="0.6614935"
           style="stop-color:#FF2243"
           id="frame0_stop33" />
        <stop
           offset="0.8165283"
           style="stop-color:#FF2C4F"
           id="frame0_stop35" />
        <stop
           offset="0.9723371"
           style="stop-color:#FF3C64"
           id="frame0_stop37" />
        <stop
           offset="1"
           style="stop-color:#FF3F68"
           id="frame0_stop39" />
      </linearGradient>
      <path
         style="fill:url(#frame0_SVGID_2_)"
         d="m 32,54.345703 c 0,0 -13.759766,-7.765625 -18.241211,-17.394531 -4.4814452,-9.63086 0,-19.017578 8.297363,-19.017578 C 30.352539,17.933594 32,27.5625 32,27.5625 c 0,0 1.646484,-9.62793 9.945312,-9.62793 8.295899,0 12.778321,9.385742 8.295899,19.016602 C 45.760742,46.580078 32,54.345703 32,54.345703 Z"
         id="frame0_path41"
         inkscape:connector-curvature="0" />
    </g>
    <g
       id="frame0_g43">
      <path
         style="fill:#c10021"
         d="m 32,55.916016 -0.672363,-0.378907 c -0.431153,-0.24414 -10.607911,-6.050781 -14.071778,-13.49414 -1.987793,-4.271485 -1.921386,-8.786133 0.177735,-12.078614 1.598633,-2.507324 4.224609,-3.945312 7.205078,-3.945312 3.699219,0 6.033691,2.22168 7.361816,4.569824 1.328614,-2.34668 3.662598,-4.566894 7.361817,-4.566894 2.980468,0 5.606445,1.438476 7.205078,3.9458 2.098633,3.291993 2.164062,7.805664 0.175781,12.075196 -3.460937,7.443359 -13.639648,13.25 -14.071289,13.49414 L 32,55.916016 Z M 24.638672,28.754394 c -2.057129,0 -3.796875,0.951661 -4.898926,2.680665 -1.594238,2.500488 -1.595703,6.034668 -0.0044,9.453613 2.615234,5.61914 9.99414,10.469726 12.264648,11.864258 2.271484,-1.394532 9.650391,-6.245118 12.263672,-11.864258 1.591797,-3.417969 1.59082,-6.951172 -0.002,-9.450684 -1.102539,-1.728515 -2.841797,-2.680664 -4.899414,-2.680664 -4.897461,0 -5.97168,5.748535 -6.014649,5.992676 l -1.371094,7.736328 -1.324707,-7.740234 c -0.04248,-0.241211 -1.116211,-5.9917 -6.013183,-5.9917 z"
         id="frame0_path45"
         inkscape:connector-curvature="0" />
      <linearGradient
         id="frame0_SVGID_3_"
         gradientUnits="userSpaceOnUse"
         x1="31.999512"
         y1="23.303223"
         x2="31.99951"
         y2="50.646599">
        <stop
           offset="0"
           style="stop-color:#FFFFFF"
           id="frame0_stop48" />
        <stop
           offset="0.509091"
           style="stop-color:#FF1F3F"
           id="frame0_stop50" />
        <stop
           offset="0.6614935"
           style="stop-color:#FF2243"
           id="frame0_stop52" />
        <stop
           offset="0.8165283"
           style="stop-color:#FF2C4F"
           id="frame0_stop54" />
        <stop
           offset="0.9723371"
           style="stop-color:#FF3C64"
           id="frame0_stop56" />
        <stop
           offset="1"
           style="stop-color:#FF3F68"
           id="frame0_stop58" />
      </linearGradient>
      <path
         style="fill:url(#frame0_SVGID_3_)"
         d="m 32,54.345703 c 0,0 -10.186035,-5.749023 -13.504395,-12.879883 -3.317871,-7.128906 0,-14.079101 6.143067,-14.079101 6.142578,0 7.361328,7.128906 7.361328,7.128906 0,0 1.219727,-7.125977 7.362305,-7.125977 6.141601,0 9.460937,6.947266 6.141601,14.076172 C 42.1875,48.59668 32,54.345703 32,54.345703 Z"
         id="frame0_path60"
         inkscape:connector-curvature="0" />
    </g>
  </g>
</svg>
