<?xml version="1.0" encoding="UTF-8" standalone="no"?>
<!-- Generated by phantom_svg. -->

<svg
   xmlns:dc="http://purl.org/dc/elements/1.1/"
   xmlns:cc="http://creativecommons.org/ns#"
   xmlns:rdf="http://www.w3.org/1999/02/22-rdf-syntax-ns#"
   xmlns:svg="http://www.w3.org/2000/svg"
   xmlns="http://www.w3.org/2000/svg"
   xmlns:sodipodi="http://sodipodi.sourceforge.net/DTD/sodipodi-0.dtd"
   xmlns:inkscape="http://www.inkscape.org/namespaces/inkscape"
   width="64px"
   height="64px"
   viewBox="0 0 64 64"
   preserveAspectRatio="none"
   version="1.1"
   id="svg7867"
   inkscape:version="0.91 r13725"
   sodipodi:docname="underage.svg">
  <metadata
     id="frame0_metadata41">
    <rdf:RDF>
      <cc:Work
         rdf:about="">
        <dc:format>
           image/svg+xml 
        </dc:format>
        <dc:type
           rdf:resource="http://purl.org/dc/dcmitype/StillImage" />
      </cc:Work>
    </rdf:RDF>
  </metadata>
  <defs
     id="frame0_defs39" />
  <sodipodi:namedview
     pagecolor="#ffffff"
     bordercolor="#666666"
     borderopacity="1"
     objecttolerance="10"
     gridtolerance="10"
     guidetolerance="10"
     inkscape:pageopacity="0"
     inkscape:pageshadow="2"
     inkscape:window-width="1920"
     inkscape:window-height="1017"
     id="frame0_namedview37"
     showgrid="false"
     inkscape:zoom="3.6875"
     inkscape:cx="32"
     inkscape:cy="32"
     inkscape:window-x="0"
     inkscape:window-y="26"
     inkscape:window-maximized="1"
     inkscape:current-layer="svg7867" />
  <g
     id="frame0_g3"
     transform="matrix(0.3651689,0,0,0.3651689,20.314595,2.8274725)">
    <circle
       style="fill:#750404"
       cx="32"
       cy="32"
       r="30.123047"
       id="frame0_circle5" />
    <circle
       style="fill:#ffffff"
       cx="32"
       cy="32"
       r="25.328125"
       id="frame0_circle7" />
    <g
       id="frame0_g9">
      <path
         d="m 24.789551,44.527344 c 0,1.330078 -0.304199,2.368164 -0.913086,3.115234 -0.589356,0.748047 -1.287109,1.12207 -2.092285,1.12207 -0.825196,0 -1.522949,-0.345703 -2.092285,-1.038085 -0.628907,-0.748047 -0.942872,-1.772461 -0.942872,-3.074219 l 0,-19.192871 c -0.628906,0.582519 -1.296875,0.872558 -2.004394,0.872558 -0.92334,0 -1.649902,-0.387695 -2.180664,-1.163086 -0.550293,-0.77539 -0.824707,-1.72998 -0.824707,-2.86621 0,-1.883301 0.608398,-3.254395 1.827148,-4.112793 l 3.80127,-2.783692 c 0.785644,-0.553711 1.601074,-0.830566 2.445801,-0.830566 1.984375,0 2.976074,1.468261 2.976074,4.40332 l 0,25.54834 z"
         id="frame0_path11"
         inkscape:connector-curvature="0" />
      <path
         d="m 50.359375,37.839844 c 0,3.516601 -1.032227,6.230469 -3.094727,8.141601 -1.96582,1.854493 -4.646484,2.783203 -8.044922,2.783203 -3.417968,0 -6.169921,-0.983398 -8.251464,-2.949218 -2.043457,-1.91211 -3.06543,-4.458985 -3.06543,-7.643555 0,-1.439453 0.284668,-2.90918 0.85498,-4.40332 0.588868,-1.467774 1.306641,-2.617188 2.151368,-3.448242 -0.628907,-0.553711 -1.139649,-1.32959 -1.533203,-2.326172 -0.451172,-1.107911 -0.676758,-2.256836 -0.676758,-3.448243 0,-3.046386 1.041015,-5.497558 3.123535,-7.353027 1.924316,-1.744629 4.332519,-2.617187 7.219238,-2.617187 3.104492,0 5.620117,0.845214 7.544922,2.533691 1.983399,1.80127 2.976563,4.237793 2.976563,7.311523 0,1.108399 -0.226563,2.215821 -0.678711,3.323731 -0.431641,1.10791 -0.981446,1.980469 -1.648438,2.617187 0.863282,0.720704 1.581055,1.689454 2.149414,2.907715 0.649414,1.413086 0.973633,2.936524 0.973633,4.570313 z M 44.46582,37.673828 c 0,-1.384766 -0.610351,-2.423828 -1.828125,-3.116211 -0.942383,-0.553711 -2.112304,-0.831055 -3.505859,-0.831055 -1.395508,0 -2.574219,0.304688 -3.53711,0.914063 -1.177734,0.748047 -1.767578,1.814453 -1.767578,3.199219 0,1.246094 0.589844,2.243164 1.767578,2.991211 1.04004,0.692382 2.25,1.037109 3.625,1.037109 1.356446,0 2.554688,-0.373047 3.595704,-1.121094 1.099609,-0.802734 1.65039,-1.828125 1.65039,-3.073242 z m -0.884765,-13.12793 c 0,-0.941406 -0.413086,-1.661621 -1.238282,-2.160156 -0.805664,-0.498535 -1.836914,-0.747559 -3.09375,-0.747559 -1.297851,0 -2.357421,0.22168 -3.182617,0.664551 -0.943359,0.498047 -1.414062,1.246094 -1.414062,2.243164 0,0.969239 0.470703,1.717286 1.414062,2.243164 0.825195,0.498536 1.836914,0.748047 3.035156,0.748047 1.295899,0 2.348633,-0.249511 3.153321,-0.748047 0.884765,-0.525878 1.326172,-1.273925 1.326172,-2.243164 z"
         id="frame0_path13"
         inkscape:connector-curvature="0" />
    </g>
    <path
       style="fill:#d9dada"
       d="m 24.978516,55.826172 c 0,0 14.708007,7.234375 27.273437,-6.368164 12.56543,-13.602539 3.029297,-27.783692 3.029297,-27.783692 0,0 5.513672,34.941895 -30.302734,34.151856 z"
       id="frame0_path15"
       inkscape:connector-curvature="0" />
    <path
       style="fill:#e10000"
       d="M 32,3.4335938 C 16.222656,3.4335938 3.4335938,16.222656 3.4335938,32 3.4335938,47.777344 16.222656,60.566406 32,60.566406 47.777344,60.566406 60.566406,47.777344 60.566406,32 60.566406,16.222656 47.777344,3.4335938 32,3.4335938 Z m -9.77e-4,4.3725585 c 5.688477,0 10.913086,1.9672852 15.043946,5.2524417 L 13.058105,47.042969 C 9.7734374,42.913086 7.8061523,37.688477 7.8061523,32.000488 7.8061523,18.638672 18.638184,7.8061523 31.999023,7.8061523 Z m 0,48.3872067 c -5.759765,0 -11.046386,-2.015625 -15.200683,-5.375976 L 50.816406,16.79834 c 3.361328,4.154785 5.376953,9.441894 5.376953,15.202148 0,13.362793 -10.830078,24.192871 -24.194336,24.192871 z"
       id="frame0_path17"
       inkscape:connector-curvature="0" />
    <g
       id="frame0_g19">
      <path
         style="fill:none"
         d="m 42.254883,26.789062 c 0.884765,-0.525878 1.326172,-1.273925 1.326172,-2.243164 0,-0.162597 -0.0293,-0.30957 -0.05371,-0.458496 l -3.382813,3.383301 c 0.827149,-0.101562 1.535156,-0.325195 2.110352,-0.681641 z"
         id="frame0_path21"
         inkscape:connector-curvature="0" />
      <path
         style="fill:none"
         d="m 42.637695,34.557617 c -0.942383,-0.553711 -2.112304,-0.831055 -3.505859,-0.831055 -1.395508,0 -2.574219,0.304688 -3.53711,0.914063 -1.177734,0.748047 -1.767578,1.814453 -1.767578,3.199219 0,1.246094 0.589844,2.243164 1.767578,2.991211 1.04004,0.692382 2.25,1.037109 3.625,1.037109 1.356446,0 2.554688,-0.373047 3.595704,-1.121094 1.099609,-0.802734 1.65039,-1.828125 1.65039,-3.073242 0,-1.384766 -0.610351,-2.423828 -1.828125,-3.116211 z"
         id="frame0_path23"
         inkscape:connector-curvature="0" />
      <path
         style="fill:none"
         d="m 36.066406,22.302734 c -0.943359,0.498047 -1.414062,1.246094 -1.414062,2.243164 0,0.278321 0.0498,0.533204 0.127929,0.775391 l 3.646485,-3.646484 c -0.928711,0.07666 -1.717774,0.283203 -2.360352,0.627929 z"
         id="frame0_path25"
         inkscape:connector-curvature="0" />
      <path
         style="fill:none"
         d="m 27.988281,39.626953 -3.19873,3.199219 0,1.701172 c 0,1.330078 -0.304199,2.368164 -0.913086,3.115234 -0.589356,0.748047 -1.287109,1.12207 -2.092285,1.12207 -0.780274,0 -1.442383,-0.320312 -1.994141,-0.939453 l -2.991699,2.992188 c 4.154297,3.360351 9.440918,5.375976 15.200683,5.375976 13.364258,0 24.194336,-10.830078 24.194336,-24.192871 0,-5.760254 -2.015625,-11.047363 -5.376953,-15.202148 l -2.488281,2.488769 c 0.819336,1.449707 1.235352,3.158204 1.235352,5.13379 0,1.108398 -0.226563,2.21582 -0.678711,3.32373 -0.431641,1.10791 -0.981446,1.980469 -1.648438,2.617188 0.863281,0.720703 1.581055,1.689453 2.149414,2.907714 0.649414,1.413086 0.973633,2.936524 0.973633,4.570313 0,3.516601 -1.032227,6.230469 -3.094727,8.141601 -1.96582,1.854493 -4.646484,2.783204 -8.044921,2.783204 -3.417969,0 -6.169922,-0.983399 -8.251465,-2.949219"
         id="frame0_path27"
         inkscape:connector-curvature="0" />
      <path
         style="fill:none"
         d="m 16.744629,26.332031 c -0.92334,0 -1.649902,-0.387695 -2.180664,-1.163086 -0.550293,-0.77539 -0.824707,-1.72998 -0.824707,-2.86621 0,-1.883301 0.608398,-3.254395 1.827148,-4.112793 l 3.80127,-2.783692 c 0.785644,-0.553711 1.601074,-0.830566 2.4458,-0.830566 1.984375,0 2.976075,1.468261 2.976075,4.40332 l 0,16.33252 5.575195,-5.574707 c -0.384766,-0.47754 -0.716797,-1.053711 -0.98877,-1.742676 -0.451171,-1.10791 -0.676757,-2.256836 -0.676757,-3.448242 0,-3.046387 1.041015,-5.497559 3.123535,-7.353028 1.924316,-1.744629 4.332519,-2.617187 7.219238,-2.617187 2.048828,0 3.835938,0.376465 5.37207,1.112304 l 2.628907,-2.629394 C 42.912109,9.7734375 37.6875,7.8061523 31.999023,7.8061523 c -13.360839,0 -24.1928707,10.8325197 -24.1928707,24.1943357 0,5.687988 1.9672852,10.912598 5.2519527,15.042481 l 5.690918,-5.69043 0,-15.893066 c -0.628906,0.582519 -1.296875,0.872558 -2.004394,0.872558 z"
         id="frame0_path29"
         inkscape:connector-curvature="0" />
      <path
         style="fill:#4f0b0b"
         d="m 24.789551,35.311523 -6.040528,6.041016 0,3.299805 c 0,1.301757 0.313965,2.326172 0.942872,3.074218 0.03076,0.03809 0.06641,0.06348 0.09814,0.09863 l 4.999512,-4.999023 0,-7.514649 z"
         id="frame0_path31"
         inkscape:connector-curvature="0" />
      <path
         style="fill:#4f0b0b"
         d="m 39.101562,27.537109 c -1.198242,0 -2.20996,-0.249511 -3.035156,-0.748047 -0.671875,-0.375 -1.09375,-0.867675 -1.286133,-1.467773 l -4.415527,4.415527 c 0.171387,0.212891 0.350098,0.412598 0.544434,0.583497 -0.844727,0.831054 -1.5625,1.980468 -2.151367,3.448242 -0.570313,1.49414 -0.854981,2.963867 -0.854981,4.40332 0,0.50293 0.03467,0.984375 0.08545,1.455078 l 12.15625,-12.15625 c -0.330078,0.04053 -0.673828,0.06641 -1.042969,0.06641 z"
         id="frame0_path33"
         inkscape:connector-curvature="0" />
      <path
         style="fill:#4f0b0b"
         d="m 39.249023,21.638184 c 1.256836,0 2.288086,0.249023 3.09375,0.747558 0.682618,0.412598 1.067383,0.98584 1.184571,1.70166 l 4.800781,-4.800293 C 47.87207,18.481445 47.295898,17.75293 46.586914,17.109375 45.932617,16.535156 45.204102,16.066895 44.414062,15.687988 l -5.987304,5.986817 c 0.263672,-0.02148 0.535156,-0.03662 0.822265,-0.03662 z"
         id="frame0_path35"
         inkscape:connector-curvature="0" />
    </g>
  </g>
</svg>
