<?xml version="1.0" encoding="UTF-8" standalone="no"?>
<!-- Generated by phantom_svg. -->

<svg
   xmlns:dc="http://purl.org/dc/elements/1.1/"
   xmlns:cc="http://creativecommons.org/ns#"
   xmlns:rdf="http://www.w3.org/1999/02/22-rdf-syntax-ns#"
   xmlns:svg="http://www.w3.org/2000/svg"
   xmlns="http://www.w3.org/2000/svg"
   xmlns:sodipodi="http://sodipodi.sourceforge.net/DTD/sodipodi-0.dtd"
   xmlns:inkscape="http://www.inkscape.org/namespaces/inkscape"
   width="64px"
   height="64px"
   viewBox="0 0 64 64"
   preserveAspectRatio="none"
   version="1.1"
   id="svg2"
   inkscape:version="0.91 r13725"
   sodipodi:docname="2.svg">
  <metadata
     id="metadata57">
    <rdf:RDF>
      <cc:Work
         rdf:about="">
        <dc:format>image/svg+xml</dc:format>
        <dc:type
           rdf:resource="http://purl.org/dc/dcmitype/StillImage" />
        <dc:title></dc:title>
      </cc:Work>
    </rdf:RDF>
  </metadata>
  <defs
     id="defs55">
    <filter
       y="-0.25"
       height="1.5"
       inkscape:menu-tooltip="Darkens the edge with an inner blur and adds a flexible glow"
       inkscape:menu="Shadows and Glows"
       inkscape:label="Dark And Glow"
       style="color-interpolation-filters:sRGB;"
       id="filter4143">
      <feGaussianBlur
         stdDeviation="5"
         result="result6"
         id="feGaussianBlur4145" />
      <feComposite
         result="result8"
         in="SourceGraphic"
         operator="atop"
         in2="result6"
         id="feComposite4147" />
      <feComposite
         result="result9"
         operator="over"
         in2="SourceAlpha"
         in="result8"
         id="feComposite4149" />
      <feColorMatrix
         values="1 0 0 0 0 0 1 0 0 0 0 0 1 0 0 0 0 0 1 0 "
         result="result10"
         id="feColorMatrix4151" />
      <feBlend
         in="result10"
         mode="normal"
         in2="result6"
         id="feBlend4153" />
    </filter>
    <filter
       inkscape:collect="always"
       style="color-interpolation-filters:sRGB"
       id="filter4477"
       x="-0.035356244"
       width="1.0707125"
       y="-0.074720997"
       height="1.149442">
      <feGaussianBlur
         inkscape:collect="always"
         stdDeviation="0.63811779"
         id="feGaussianBlur4479" />
    </filter>
  </defs>
  <sodipodi:namedview
     pagecolor="#ffffff"
     bordercolor="#666666"
     borderopacity="1"
     objecttolerance="10"
     gridtolerance="10"
     guidetolerance="10"
     inkscape:pageopacity="0"
     inkscape:pageshadow="2"
     inkscape:window-width="1920"
     inkscape:window-height="1017"
     id="namedview53"
     showgrid="false"
     inkscape:zoom="7.375"
     inkscape:cx="2.2724623"
     inkscape:cy="31.902144"
     inkscape:window-x="0"
     inkscape:window-y="26"
     inkscape:window-maximized="1"
     inkscape:current-layer="svg2" />
  <path
     style="fill:#FFFFFF;"
     d="M32.1494141,51.71875c13.2998047,0,17.8300781-7.8164063,19.7822266-14.0322266l-4.4394531-2.0429688  c0,0-7.8603516,3.9970703-15.3427734,3.9970703c-7.4819336,0-14.7646484-3.9970703-14.7646484-3.9970703l-3.996582,1.3339844  C13.3881836,36.9775391,19.0722656,51.71875,32.1494141,51.71875z"
     id="path37" />
  <path
     style="fill:#9c9c9d"
     d="m 32.526856,46.766602 c -0.438477,0 -0.876465,-0.0166 -1.31543,-0.0498 -9.653809,-0.725586 -15.979608,-8.892876 -16.229608,-9.251275 l 1.640136,-1.144531 c 0.05615,0.08008 6.055292,7.757134 14.755487,8.402642 5.861817,0.43457 11.820801,-2.492188 17.708496,-8.701172 l 1.451172,1.376953 c -5.90039,6.220703 -11.952148,9.367188 -18.010253,9.367188 z"
     id="path39"
     inkscape:connector-curvature="0"
     sodipodi:nodetypes="sccccccs" />
  <path
     style="fill:#10090e;fill-opacity:1"
     d="M32.1494141,52.71875c-13.6069336,0-19.4521484-14.7529297-19.6943359-15.3818359  l-0.3764648-0.9765625l5.4038086-1.8037109l0.3833008,0.2099609c0.0703125,0.0390625,7.1567383,3.8740234,14.2836914,3.8740234  c7.1464844,0,14.8134766-3.8496094,14.8896484-3.8886719l0.4316406-0.21875l5.6787109,2.6132813l-0.2636719,0.8398438  C50.6572266,45.0820313,43.2177734,52.71875,32.1494141,52.71875z M14.7480469,37.578125  c1.5112305,3.1777344,7.074707,13.140625,17.4013672,13.140625c9.6269531,0,16.2255859-6.3300781,18.5419922-12.5019531  L47.5048828,36.75c-1.7949219,0.8535156-8.6513672,3.890625-15.3554688,3.890625  c-6.7421875,0-13.2036133-3.0693359-14.8525391-3.9130859L14.7480469,37.578125z"
     id="path41" />
  <path
     sodipodi:type="star"
     style="color:#000000;clip-rule:nonzero;display:inline;overflow:visible;visibility:visible;opacity:0;isolation:auto;mix-blend-mode:normal;color-interpolation:sRGB;color-interpolation-filters:linearRGB;solid-color:#000000;solid-opacity:1;fill:#000000;fill-opacity:1;fill-rule:evenodd;stroke:none;stroke-width:14.77700043;stroke-linecap:round;stroke-linejoin:round;stroke-miterlimit:4;stroke-dasharray:none;stroke-dashoffset:0;stroke-opacity:1;marker:none;color-rendering:auto;image-rendering:auto;shape-rendering:auto;text-rendering:auto;enable-background:accumulate"
     id="path8156"
     sodipodi:sides="3"
     sodipodi:cx="-11.661017"
     sodipodi:cy="13.762712"
     sodipodi:r1="10.309767"
     sodipodi:r2="5.1548834"
     sodipodi:arg1="0.80864979"
     sodipodi:arg2="1.8558473"
     inkscape:flatsided="false"
     inkscape:rounded="0"
     inkscape:randomized="0"
     d="m -4.5423735,21.220339 -8.5682295,-2.510757 -8.568231,-2.510758 6.458494,-6.164926 6.4584951,-6.1649264 2.1097356,8.6756834 z"
     inkscape:transform-center-x="1.4495863"
     inkscape:transform-center-y="-1.2180565" />
  <path
     sodipodi:type="star"
     style="color:#000000;clip-rule:nonzero;display:inline;overflow:visible;visibility:visible;opacity:0;isolation:auto;mix-blend-mode:normal;color-interpolation:sRGB;color-interpolation-filters:linearRGB;solid-color:#000000;solid-opacity:1;fill:#000000;fill-opacity:1;fill-rule:evenodd;stroke:none;stroke-width:14.77700043;stroke-linecap:round;stroke-linejoin:round;stroke-miterlimit:4;stroke-dasharray:none;stroke-dashoffset:0;stroke-opacity:1;marker:none;color-rendering:auto;image-rendering:auto;shape-rendering:auto;text-rendering:auto;enable-background:accumulate"
     id="path8160"
     sodipodi:sides="1024"
     sodipodi:cx="-30.915255"
     sodipodi:cy="2.1694915"
     sodipodi:r1="15.694293"
     sodipodi:r2="7.8471465"
     sodipodi:arg1="0.69363208"
     sodipodi:arg2="0.69670004"
     inkscape:flatsided="false"
     inkscape:rounded="0"
     inkscape:randomized="0"
     d="m -18.847458,12.20339 -6.049318,-4.9984612 5.987524,5.0723192 -6.018535,-5.0354853 5.956289,5.1089623 -5.987524,-5.0723194 5.924828,5.1454134 -5.956288,-5.1089628 5.893145,5.1816698 -5.924828,-5.1454129 5.86124,5.2177319 -5.893145,-5.1816701 5.829115,5.2535981 -5.86124,-5.2177328 5.796769,5.2892658 -5.829114,-5.2535983 5.764206,5.3247343 -5.796769,-5.2892659 5.731425,5.3600029 -5.764205,-5.3247349 5.698429,5.3950689 -5.731425,-5.3600028 5.665218,5.4299328 -5.698429,-5.3950698 5.631795,5.4645918 -5.665218,-5.4299332 5.598158,5.4990452 -5.631794,-5.4645923 5.564311,5.5332913 -5.598158,-5.4990455 5.530255,5.5673285 -5.564311,-5.533291 5.49599,5.601157 -5.530254,-5.5673292 5.461519,5.6347742 -5.49599,-5.6011572 5.426841,5.6681792 -5.461518,-5.6347743 5.39196,5.7013713 -5.426841,-5.6681798 5.356875,5.7343478 -5.391959,-5.701371 5.321589,5.767109 -5.356875,-5.7343481 5.286103,5.7996531 -5.321589,-5.7671093 5.250417,5.8319793 -5.286103,-5.7996539 5.214535,5.8640859 -5.250417,-5.83198 5.178454,5.895971 -5.214534,-5.8640859 5.142181,5.9276339 -5.178455,-5.8959708 5.105713,5.9590748 -5.142181,-5.9276349 5.069052,5.9902909 -5.105711,-5.9590753 5.0322,6.0212803 -5.069051,-5.9902902 4.99516,6.0520442 -5.032201,-6.0212809 4.957932,6.0825799 -4.99516,-6.0520444 4.920516,6.1128874 -4.957931,-6.0825808 4.882916,6.1429638 -4.920516,-6.1128875 4.845131,6.1728095 -4.882915,-6.1429644 4.807164,6.2024224 -4.845131,-6.1728097 4.769017,6.2318017 -4.807164,-6.2024225 4.730689,6.2609465 -4.769016,-6.231802 4.692183,6.289855 -4.730688,-6.2609462 4.653501,6.3185282 -4.692183,-6.2898561 4.614644,6.3469621 -4.653501,-6.318528 4.575613,6.375158 -4.614644,-6.3469628 4.53641,6.4031128 -4.575613,-6.3751577 4.497036,6.4308277 -4.53641,-6.4031136 4.457492,6.4582996 -4.497035,-6.4308276 4.417781,6.4855286 -4.457492,-6.4582998 4.377903,6.5125138 -4.41778,-6.4855291 4.337861,6.5392531 -4.377903,-6.5125137 4.297655,6.5657467 -4.33786,-6.5392534 4.257287,6.5919934 -4.297655,-6.5657474 4.21676,6.6179914 -4.257287,-6.5919935 4.176073,6.6437405 -4.216759,-6.6179917 4.135229,6.6692387 -4.176073,-6.6437401 4.09423,6.6944871 -4.135229,-6.6692396 4.053076,6.7194826 -4.094229,-6.6944872 4.011769,6.7442252 -4.053075,-6.7194827 3.970312,6.7687137 -4.011769,-6.7442251 3.928706,6.7929481 -3.970312,-6.7687144 3.88695,6.8169264 -3.928705,-6.7929484 3.84505,6.8406474 -3.88695,-6.8169261 3.803004,6.8641121 -3.84505,-6.8406483 3.760815,6.8873173 -3.803003,-6.864112 3.718484,6.910264 -3.760814,-6.8873179 3.676013,6.9329499 -3.718484,-6.910264 3.633405,6.955375 -3.676013,-6.9329501 3.590659,6.9775381 -3.633405,-6.9553751 3.547778,6.9994381 -3.590658,-6.9775378 3.504763,7.0210758 -3.547777,-6.999439 3.461617,7.042448 -3.504763,-7.0210756 3.41834,7.0635556 -3.461617,-7.0424483 3.374935,7.0843973 -3.41834,-7.0635559 3.331402,7.1049719 -3.374934,-7.0843972 3.287744,7.1252792 -3.331402,-7.1049721 3.243963,7.1453181 -3.287744,-7.1252792 3.200058,7.1650882 -3.243961,-7.1453183 3.156034,7.1845893 -3.200058,-7.1650892 3.11189,7.2038182 -3.156033,-7.1845885 3.06763,7.2227775 -3.11189,-7.2038191 3.023254,7.2414641 -3.06763,-7.2227776 2.978765,7.2598776 -3.023254,-7.2414638 2.934163,7.2780188 -2.978764,-7.2598783 2.88945,7.2958853 -2.934162,-7.2780188 2.844629,7.3134778 -2.88945,-7.2958859 2.799701,7.3307939 -2.844629,-7.3134775 2.754668,7.3478345 -2.799701,-7.330794 2.70953,7.364599 -2.754667,-7.3478351 2.664291,7.3810851 -2.70953,-7.3645986 2.618952,7.3972946 -2.664291,-7.3810859 2.573513,7.4132249 -2.618951,-7.3972947 2.527978,7.4288757 -2.573513,-7.4132246 2.482348,7.4442476 -2.527977,-7.4288762 2.436624,7.4593382 -2.482348,-7.4442471 2.390809,7.4741491 -2.436624,-7.4593388 2.344903,7.4886778 -2.390808,-7.4741489 2.298909,7.5029249 -2.344902,-7.488678 2.252829,7.51689 -2.298909,-7.5029255 2.206663,7.5305715 -2.252828,-7.5168901 2.160415,7.5439691 -2.206663,-7.5305711 2.114086,7.5570831 -2.160415,-7.5439692 2.067677,7.5699132 -2.114086,-7.5570838 2.02119,7.5824578 -2.067676,-7.5699134 1.974626,7.5947164 -2.021189,-7.5824574 1.927989,7.6066894 -1.974626,-7.5947164 1.881279,7.6183764 -1.927989,-7.6066898 1.834498,7.6297758 -1.881278,-7.618376 1.787648,7.640889 -1.834498,-7.6297765 1.740731,7.6517135 -1.787647,-7.6408886 1.693748,7.6622506 -1.740731,-7.6517139 1.646702,7.6724989 -1.693748,-7.6622506 1.599593,7.6824586 -1.646701,-7.6724991 1.552424,7.6921291 -1.599592,-7.6824589 1.505196,7.7015099 -1.552423,-7.6921293 1.457913,7.7106003 -1.505197,-7.7015097 1.410574,7.7194007 -1.457912,-7.7106003 1.363182,7.7279103 -1.410573,-7.7194006 1.315738,7.7361296 -1.363181,-7.7279108 1.268246,7.7440568 -1.315739,-7.7361293 1.220706,7.7516933 -1.268246,-7.7440573 1.17312,7.7590373 -1.220706,-7.7516932 1.125489,7.7660892 -1.173119,-7.7590372 1.077816,7.7728492 -1.125488,-7.7660896 1.030102,7.7793156 -1.077816,-7.7728487 0.98235,7.7854897 -1.030101,-7.7793156 0.93456,7.7913716 -0.982349,-7.7854906 0.886735,7.7969586 -0.934559,-7.791371 0.838877,7.802253 -0.886735,-7.7969589 0.790988,7.8072529 -0.838877,-7.8022526 0.743069,7.8119596 -0.790988,-7.8072532 0.695122,7.8163722 -0.743069,-7.8119599 0.647148,7.8204899 -0.695121,-7.8163719 0.599151,7.8243139 -0.647148,-7.8204903 0.55113,7.8278433 -0.59915,-7.8243143 0.503089,7.8310773 -0.55113,-7.827843 0.455029,7.834017 -0.503088,-7.831078 0.406951,7.836662 -0.455028,-7.834017 0.358859,7.839011 -0.406951,-7.836662 0.310753,7.841065 -0.358859,-7.83901 0.262636,7.842824 -0.310753,-7.841065 0.214508,7.844288 -0.262635,-7.842824 0.166372,7.845456 -0.214507,-7.844288 0.11823,7.84633 -0.166372,-7.845457 0.07008,7.846908 -0.11823,-7.84633 0.02194,7.84719 -0.07008,-7.846908 -0.02622,7.847177 -0.02193,-7.84719 -0.07436,7.846868 0.02622,-7.847176 -0.12251,7.846264 0.07436,-7.846868 -0.170651,7.845364 0.12251,-7.846264 -0.218786,7.84417 0.170652,-7.845364 -0.266914,7.842679 0.218787,-7.84417 -0.31503,7.840895 0.266914,-7.84268 -0.363135,7.838814 0.315031,-7.840895 -0.411227,7.836438 0.363136,-7.838813 -0.459302,7.833767 0.411227,-7.836438 -0.507361,7.830802 0.459303,-7.833768 -0.5554,7.827541 0.507361,-7.8308011 -0.603419,7.8239861 0.555401,-7.8275413 -0.651414,7.8201363 0.603418,-7.8239861 -0.699385,7.8159921 0.651415,-7.8201362 -0.74733,7.8115532 0.699385,-7.8159917 -0.795246,7.8068207 0.74733,-7.8115532 -0.843134,7.8017942 0.795248,-7.8068207 -0.890989,7.7964737 0.843134,-7.8017939 -0.93881,7.7908599 0.890989,-7.7964736 -0.986596,7.7849536 0.93881,-7.7908606 -1.034345,7.7787526 0.986597,-7.7849528 -1.082055,7.7722598 1.034345,-7.7787527 -1.129724,7.7654737 1.082055,-7.7722594 -1.177351,7.7583964 1.129725,-7.7654743 -1.224934,7.7510263 1.177352,-7.7583964 -1.27247,7.7433644 1.224934,-7.7510263 -1.319959,7.7354103 1.272471,-7.7433637 -1.367397,7.7271657 1.319959,-7.7354104 -1.414785,7.7186304 1.367398,-7.727166 -1.462119,7.709804 1.414785,-7.7186301 -1.509397,7.7006871 1.462119,-7.7098036 -1.55662,7.6912806 1.509398,-7.7006869 -1.603783,7.6815849 1.55662,-7.6912809 -1.650886,7.6715999 1.603783,-7.681585 -1.697927,7.661326 1.650887,-7.6716 -1.744904,7.650763 1.697927,-7.6613254 -1.791815,7.6399124 1.744904,-7.6507628 -1.838659,7.6287748 1.791816,-7.6399129 -1.885434,7.6173489 1.83866,-7.6287742 -1.932138,7.6056372 1.885435,-7.6173493 -1.978769,7.5936383 1.932138,-7.6056368 -2.025325,7.5813538 1.978769,-7.5936381 -2.071805,7.5687841 2.025325,-7.5813539 -2.118207,7.5559289 2.071806,-7.5687836 -2.164531,7.5427896 2.118209,-7.5559288 -2.210771,7.5293668 2.16453,-7.5427899 -2.256929,7.5156599 2.210772,-7.5293666 -2.303002,7.5016696 2.256929,-7.5156592 -2.348987,7.4873982 2.303002,-7.5016702 -2.394885,7.4728432 2.348988,-7.4873972 -2.440693,7.4580082 2.394886,-7.4728434 -2.486408,7.4428924 2.440693,-7.4580085 -2.53203,7.4274955 2.486408,-7.4428918 -2.577556,7.4118198 2.53203,-7.4274957 -2.622986,7.3958647 2.577557,-7.4118197 -2.668317,7.3796307 2.622986,-7.3958641 -2.713547,7.3631191 2.668318,-7.3796303 -2.758676,7.3463313 2.713548,-7.3631198 -2.8037,7.3292658 2.758676,-7.3463308 -2.848619,7.3119248 2.803701,-7.3292658 -2.89343,7.2943078 2.848619,-7.3119241 -2.938133,7.2764171 2.89343,-7.294308 -2.982724,7.258252 2.938133,-7.2764168 -3.027204,7.2398138 2.982725,-7.258252 -3.07157,7.221103 3.027204,-7.2398136 -3.115819,7.2021196 3.07157,-7.2211022 -3.159953,7.1828662 3.11582,-7.2021199 -3.203966,7.1633419 3.159953,-7.182866 -3.247859,7.143548 3.203966,-7.1633419 -3.29163,7.1234849 3.24786,-7.1435477 -3.335277,7.1031537 3.29163,-7.1234846 -3.378798,7.0825556 3.335277,-7.103154 -3.422192,7.06169 3.378799,-7.0825551 -3.465458,7.0405591 3.422193,-7.06169 -3.508593,7.019163 3.465458,-7.040559 -3.551595,6.997502 3.508593,-7.0191622 -3.594464,6.9755782 3.551596,-6.9975019 -3.637199,6.9533919 3.594465,-6.9755783 -3.679795,6.9309433 3.637199,-6.9533914 -3.722253,6.9082344 3.679795,-6.9309434 -3.764571,6.8852644 3.722253,-6.9082336 -3.806747,6.8620366 3.764572,-6.8852649 -3.848781,6.8385489 3.806748,-6.8620357 -3.890669,6.8148047 3.848781,-6.8385488 -3.93241,6.7908038 3.890669,-6.8148046 -3.974004,6.7665476 3.932411,-6.790804 -4.015448,6.742036 3.974004,-6.7665472 -4.05674,6.7172702 4.015448,-6.7420352 -4.097881,6.6922522 4.056741,-6.7172701 -4.138866,6.6669821 4.097881,-6.692252 -4.179696,6.641461 4.138866,-6.6669819 -4.220368,6.6156899 4.179696,-6.6414608 -4.260882,6.5896698 4.220369,-6.6156898 -4.301236,6.5634018 4.260883,-6.5896699 -4.341427,6.5368859 4.301236,-6.563401 -4.381455,6.510124 4.341428,-6.5368853 -4.421318,6.4831183 4.381455,-6.5101247 -4.461014,6.4558667 4.421318,-6.4831172 -4.500543,6.4283732 4.461015,-6.4558668 -4.539902,6.4006378 4.500543,-6.4283733 -4.579089,6.3726603 4.539902,-6.4006369 -4.618106,6.3444439 4.57909,-6.3726603 -4.656947,6.3159883 4.618106,-6.3444437 -4.695614,6.2872947 4.656948,-6.3159878 -4.734104,6.2583648 4.695614,-6.2872946 -4.772415,6.2291996 4.734104,-6.2583651 -4.810547,6.1997991 4.772416,-6.229199 -4.848498,6.170165 4.810547,-6.1997984 -4.886265,6.1402994 4.848498,-6.1701651 -4.92385,6.1102021 4.886266,-6.140299 -4.961249,6.079875 4.92385,-6.1102019 -4.99846,6.0493189 4.961249,-6.0798747 -5.035485,6.0185347 4.998461,-6.0493183 -5.072319,5.9875243 5.035485,-6.0185344 -5.108962,5.9562884 5.072319,-5.987524 -5.145413,5.924828 5.108963,-5.9562879 -5.18167,5.8931449 5.145413,-5.9248278 -5.217732,5.8612398 5.18167,-5.8931445 -5.253598,5.8291145 5.217733,-5.86124 -5.289266,5.796769 5.253598,-5.8291139 -5.324734,5.7642059 5.289266,-5.796769 -5.360003,5.731425 5.324735,-5.7642052 -5.395069,5.6984292 5.360003,-5.7314251 -5.429933,5.6652181 5.39507,-5.6984286 -5.464592,5.6317946 5.429933,-5.6652184 -5.499045,5.5981584 5.464592,-5.6317942 -5.533291,5.5643112 5.499045,-5.5981577 -5.567328,5.5302547 5.533291,-5.5643108 -5.601157,5.4959898 5.567329,-5.5302541 -5.634774,5.4615191 5.601157,-5.4959903 -5.668179,5.4268413 5.634774,-5.4615181 -5.701371,5.3919601 5.66818,-5.4268412 -5.734348,5.3568762 5.701371,-5.3919603 -5.76711,5.3215893 5.734349,-5.3568751 -5.799654,5.2861031 5.76711,-5.3215893 -5.831979,5.2504173 5.799654,-5.2861025 -5.864086,5.2145345 5.83198,-5.2504173 -5.895971,5.1784553 5.864086,-5.2145345 -5.927634,5.1421805 5.895971,-5.1784546 -5.959075,5.1057126 5.927635,-5.1421804 -5.990291,5.0690524 5.959075,-5.1057123 -6.021281,5.0322003 5.990291,-5.0690512 -6.052044,4.9951602 6.021281,-5.0322004 -6.08258,4.9579314 6.052044,-4.9951598 -6.112887,4.9205158 6.082581,-4.9579307 -6.142964,4.8829157 6.112887,-4.920516 -6.172809,4.845131 6.142964,-4.8829151 -6.202422,4.8071641 6.17281,-4.8451306 -6.231802,4.7690166 6.202422,-4.807164 -6.260946,4.730689 6.231802,-4.7690161 -6.289855,4.6921841 6.260946,-4.7306892 -6.318528,4.6535012 6.289856,-4.692183 -6.346962,4.614644 6.318528,-4.653501 -6.375158,4.575613 6.346963,-4.6146437 -6.403113,4.5364097 6.375158,-4.5756127 -6.430828,4.4970357 6.403114,-4.5364095 -6.4583,4.4574915 6.430828,-4.4970346 -6.485529,4.4177806 6.4583,-4.4574915 -6.512514,4.3779035 6.485529,-4.4177808 -6.539253,4.3378608 6.512514,-4.3779028 -6.565747,4.2976548 6.539253,-4.3378602 -6.591993,4.2572872 6.565747,-4.2976544 -6.617991,4.2167594 6.591993,-4.2572869 -6.64374,4.1760729 6.617992,-4.2167591 -6.669239,4.1352291 6.64374,-4.1760726 -6.694487,4.0942296 6.66924,-4.1352287 -6.719483,4.0530757 6.694487,-4.094229 -6.744225,4.01177 6.719483,-4.0530759 -6.768714,3.9703119 6.744225,-4.0117688 -6.792948,3.9287058 6.768714,-3.9703122 -6.816926,3.8869508 6.792948,-3.9287051 -6.840647,3.8450497 6.816926,-3.8869503 -6.864112,3.8030038 6.840648,-3.8450493 -6.887317,3.7608149 6.864112,-3.8030034 -6.910264,3.7184843 6.887318,-3.7608145 -6.93295,3.6760137 6.910264,-3.7184839 -6.955375,3.6334048 6.93295,-3.6760134 -6.977538,3.590659 6.955375,-3.6334044 -6.999438,3.5477781 6.977538,-3.5906586 -7.021076,3.5047635 6.999439,-3.5477776 -7.042448,3.461617 7.021076,-3.5047631 -7.063556,3.4183402 7.042448,-3.4616166 -7.084397,3.3749346 7.063556,-3.4183397 -7.104972,3.3314021 7.084397,-3.3749343 -7.125279,3.2877441 7.104972,-3.3314017 -7.145318,3.2439623 7.125279,-3.2877437 -7.165088,3.2000584 7.145318,-3.2439619 -7.184589,3.156034 7.165089,-3.200058 -7.203819,3.1118908 7.184589,-3.1560336 -7.222777,3.0676304 7.203819,-3.1118903 -7.241464,3.0232545 7.222778,-3.06763 -7.259878,2.9787649 7.241464,-3.0232542 -7.278019,2.934163 7.259878,-2.9787644 -7.295885,2.8894507 7.278019,-2.9341626 -7.313478,2.8446296 7.295886,-2.8894503 -7.330794,2.7997014 7.313477,-2.8446291 -7.347834,2.7546677 7.330794,-2.7997009 -7.364599,2.7095304 7.347835,-2.7546673 -7.381085,2.6642911 7.364598,-2.70953 -7.397294,2.6189514 7.381086,-2.6642907 -7.413225,2.5735133 7.397295,-2.6189511 -7.428876,2.5279781 7.413225,-2.5735128 -7.444248,2.4823478 7.428876,-2.5279777 -7.459338,2.436624 7.444247,-2.4823473 -7.474149,2.3908085 7.459339,-2.4366236 -7.488678,2.344903 7.474149,-2.3908081 -7.502925,2.2989092 7.488678,-2.3449026 -7.51689,2.2528288 7.502925,-2.2989087 -7.530571,2.2066636 7.51689,-2.2528283 -7.543969,2.1604153 7.530571,-2.2066631 -7.557083,2.1140857 7.543969,-2.1604149 -7.569913,2.0676766 7.557084,-2.1140854 -7.582458,2.0211896 7.569913,-2.0676762 -7.594716,1.9746265 7.582457,-2.0211891 -7.606689,1.9279889 7.594716,-1.974626 -7.618376,1.8812789 7.60669,-1.9279885 -7.629776,1.834498 7.618376,-1.8812785 -7.640889,1.7876481 7.629776,-1.8344976 -7.651713,1.7407308 7.640889,-1.7876476 -7.662251,1.6937479 7.651714,-1.7407303 -7.672499,1.6467014 7.662251,-1.6937475 -7.682459,1.5995928 7.672499,-1.6467009 -7.692129,1.552424 7.682459,-1.5995924 -7.70151,1.5051968 7.692129,-1.5524236 -7.7106,1.4579129 7.70151,-1.5051963 -7.719401,1.410574 7.7106,-1.4579124 -7.72791,1.3631822 7.719401,-1.4105736 -7.73613,1.3157389 7.727911,-1.3631817 -7.744057,1.2682461 7.736129,-1.3157384 -7.751693,1.2207056 7.744057,-1.2682457 -7.759037,1.1731192 7.751693,-1.2207052 -7.766089,1.1254885 7.759037,-1.1731187 -7.772849,1.0778155 7.76609,-1.1254881 -7.779316,1.0301019 7.772849,-1.077815 -7.785491,0.9823495 7.779317,-1.0301015 -7.791372,0.9345602 7.785491,-0.9823491 -7.796959,0.8867357 7.791371,-0.9345598 -7.802253,0.8388777 7.796959,-0.8867352 -7.807254,0.7909882 7.802253,-0.8388772 -7.811959,0.7430689 7.807253,-0.7909878 -7.816372,0.6951217 7.81196,-0.7430685 -7.82049,0.6471482 7.816372,-0.6951212 -7.824314,0.5991504 7.82049,-0.6471477 -7.827843,0.55113 7.824314,-0.59915 -7.831077,0.5030889 7.827843,-0.5511295 -7.834017,0.4550288 7.831078,-0.5030884 -7.836662,0.4069516 7.834017,-0.4550284 -7.839011,0.3588592 7.836662,-0.4069512 -7.841065,0.3107531 7.83901,-0.3588587 -7.842824,0.2626354 7.841065,-0.3107526 -7.844288,0.2145077 7.842824,-0.2626349 -7.845456,0.1663721 7.844288,-0.2145073 -7.84633,0.1182301 7.845457,-0.1663716 -7.846908,0.070084 7.84633,-0.1182297 -7.84719,0.021935 7.846908,-0.070083 -7.847177,-0.026215 7.84719,-0.021934 -7.846868,-0.074364 7.847176,0.026216 -7.846264,-0.1225101 7.846868,0.074365 -7.845364,-0.1706516 7.846264,0.1225106 -7.84417,-0.2187866 7.845364,0.170652 -7.842679,-0.2669134 7.84417,0.218787 -7.840895,-0.3150301 7.84268,0.2669138 -7.838814,-0.363135 7.840894,0.3150306 -7.836438,-0.4112263 7.838814,0.3631355 -7.833767,-0.459302 7.836438,0.4112267 -7.830802,-0.5073604 7.833768,0.4593024 -7.827541,-0.5553998 7.830801,0.507361 -7.823986,-0.6034183 7.827541,0.5554003 -7.820136,-0.65141398 7.823986,0.60341868 -7.815992,-0.69938513 7.820136,0.65141443 -7.811553,-0.74733003 7.815992,0.69938563 -7.806821,-0.79524676 7.811553,0.74733046 -7.801794,-0.84313351 7.806821,0.79524721 -7.796474,-0.89098858 7.801794,0.84313398 -7.79086,-0.93881006 7.796474,0.89098896 -7.784954,-0.98659615 7.790861,0.93881045 -7.778753,-1.03434515 7.784953,0.98659665 -7.77226,-1.08205526 7.778753,1.03434566 -7.765475,-1.12972459 7.77226,1.08205569 -7.758396,-1.17735135 7.765474,1.12972501 -7.751026,-1.22493381 7.758396,1.1773518 -7.743364,-1.27247015 7.751026,1.22493425 -7.73541,-1.31995858 7.743364,1.2724706 -7.727166,-1.36739733 7.73541,1.31995903 -7.71863,-1.41478458 7.727166,1.36739777 -7.709804,-1.46211857 7.71863,1.41478503 -7.700687,-1.50939752 7.709804,1.46211902 -7.691281,-1.55661964 7.700687,1.50939797 -7.681585,-1.60378315 7.691281,1.55662008 -7.6716,-1.65088628 7.681585,1.6037836 -7.661326,-1.6979273 7.6716,1.65088677 -7.650763,-1.74490427 7.661325,1.69792766 -7.639912,-1.79181566 7.650763,1.74490475 -7.628775,-1.83865955 7.639913,1.7918161 -7.617349,-1.8854342 7.628774,1.83865997 -7.605637,-1.93213787 7.617349,1.88543463 -7.593638,-1.97876883 7.605637,1.93213833 -7.581354,-2.02532523 7.593638,1.97876923 -7.568784,-2.07180543 7.581354,2.02532568 -7.555929,-2.11820768 7.568784,2.07180594 -7.54279,-2.16453004 7.555929,2.11820804 -7.529367,-2.21077104 7.54279,2.16453053 -7.51566,-2.25692873 7.529367,2.21077146 -7.50167,-2.30300146 7.515659,2.25692916 -7.487398,-2.34898746 7.50167,2.30300187 -7.472844,-2.39488507 7.487398,2.34898791 -7.458008,-2.44069251 7.472843,2.39488552 -7.442892,-2.48640802 7.458008,2.44069291 -7.427495,-2.53202991 7.442892,2.48640842 -7.41182,-2.57755652 7.427496,2.53203036 -7.395865,-2.62298606 7.41182,2.57755694 -7.379631,-2.66831684 7.395864,2.62298647 -7.36312,-2.71354717 7.379631,2.66831726 -7.346331,-2.75867536 7.36312,2.71354762 -7.329266,-2.80369972 7.346331,2.75867583 -7.311925,-2.84861843 7.329266,2.80370011 -7.294308,-2.89342991 7.311924,2.84861883 -7.276417,-2.93813253 7.294308,2.89343039 -7.258252,-2.98272449 7.276417,2.93813296 -7.239814,-3.02720406 7.258252,2.98272483 -7.221103,-3.07156983 7.239814,3.02720457 -7.202121,-3.11581977 7.221103,3.07157016 -7.182866,-3.15995256 7.20212,3.11582025 -7.163342,-3.20396625 7.182866,3.1599529 -7.143548,-3.2478594 7.163342,3.2039667 -7.123485,-3.2916303 7.143548,3.2478599 -7.103154,-3.3352772 7.123485,3.2916307 -7.082556,-3.3787986 7.103154,3.3352776 -7.06169,-3.4221926 7.082555,3.3787989 -7.040559,-3.465458 7.06169,3.4221931 -7.019163,-3.5085928 7.040559,3.4654584 -6.997502,-3.5515955 7.019162,3.5085932 -6.975578,-3.5944645 6.997502,3.5515959 -6.953392,-3.6371982 6.975578,3.5944649 -6.930943,-3.6797949 6.953391,3.6371986 -6.908234,-3.7222532 6.930943,3.6797954 -6.885264,-3.7645712 6.908234,3.7222535 -6.862037,-3.8067475 6.885265,3.7645716 -6.838549,-3.8487805 6.862036,3.8067479 -6.814805,-3.8906686 6.838549,3.8487809 -6.790804,-3.9324103 6.814805,3.890669 -6.766548,-3.9740037 6.790804,3.9324106 -6.742036,-4.0154478 6.766547,3.9740042 -6.71727,-4.0567405 6.742035,4.0154481 -6.692252,-4.0978805 6.71727,4.0567409 -6.666982,-4.1388663 6.692252,4.0978809 -6.641461,-4.1796962 6.666982,4.1388667 -6.61569,-4.2203688 6.641461,4.1796966 -6.58967,-4.2608824 6.61569,4.2203691 -6.563402,-4.3012356 6.58967,4.2608828 -6.536886,-4.341427 6.563401,4.3012361 -6.510125,-4.3814549 6.536886,4.3414274 -6.483118,-4.4213177 6.510125,4.3814552 -6.455867,-4.4610142 6.483117,4.4213181 -6.428373,-4.5005426 6.455867,4.4610145 -6.400638,-4.5399017 6.428373,4.500543 -6.37266,-4.5790897 6.400637,4.539902 -6.344444,-4.6181055 6.37266,4.5790902 -6.315988,-4.6569474 6.344444,4.6181059 -6.287295,-4.6956139 6.315988,4.6569477 -6.258365,-4.7341035 6.287295,4.6956142 -6.2292,-4.7724151 6.258365,4.7341039 -6.199799,-4.8105468 6.229199,4.7724154 -6.170165,-4.8484976 6.199798,4.8105473 -6.140299,-4.8862657 6.170165,4.8484979 -6.110202,-4.9238499 6.140299,4.886266 -6.079875,-4.9612487 6.110202,4.9238503 -6.049319,-4.9984607 6.079875,4.961249 -6.018535,-5.0354845 6.049318,4.998461 -5.987524,-5.0723187 6.018534,5.0354848 -5.956288,-5.108962 5.987524,5.0723191 -5.924829,-5.145413 5.956289,5.1089624 -5.893146,-5.1816702 5.924829,5.1454134 -5.861241,-5.2177323 5.893145,5.1816705 -5.829114,-5.253598 5.86124,5.2177327 -5.796769,-5.2892659 5.829114,5.2535983 -5.764206,-5.3247346 5.796769,5.2892662 -5.731425,-5.3600028 5.764205,5.3247349 -5.698429,-5.3950693 5.731425,5.3600031 -5.665218,-5.4299326 5.698429,5.3950696 -5.631795,-5.4645915 5.665218,5.429933 -5.598158,-5.4990448 5.631794,5.4645919 -5.564311,-5.5332909 5.598158,5.4990451 -5.530255,-5.5673287 5.564311,5.5332912 -5.495991,-5.6011569 5.530255,5.567329 -5.461519,-5.6347742 5.49599,5.6011572 -5.426841,-5.6681794 5.461518,5.6347746 -5.39196,-5.7013712 5.426841,5.6681797 -5.356876,-5.7343483 5.39196,5.7013715 -5.321589,-5.7671095 5.356875,5.7343486 -5.286103,-5.7996536 5.321589,5.7671098 -5.250417,-5.8319793 5.286102,5.7996539 -5.214534,-5.8640856 5.250417,5.8319797 -5.178455,-5.8959709 5.214534,5.8640858 -5.14218,-5.9276343 5.178455,5.8959712 -5.105713,-5.9590746 5.14218,5.9276346 -5.069052,-5.9902904 5.105712,5.9590748 -5.032201,-6.0212807 5.069052,5.9902907 -4.99516,-6.0520445 5.0322,6.0212811 -4.957931,-6.0825802 4.99516,6.0520447 -4.920517,-6.1128874 4.957932,6.0825809 -4.882916,-6.1429639 4.920516,6.1128875 -4.845131,-6.1728095 4.882915,6.1429645 -4.807164,-6.2024225 4.84513,6.1728098 -4.769016,-6.2318018 4.807164,6.2024226 -4.730689,-6.2609466 4.769016,6.2318021 -4.692184,-6.2898551 4.730689,6.2609462 -4.653501,-6.3185272 4.692183,6.2898552 -4.614644,-6.3469622 4.653501,6.3185281 -4.575613,-6.3751571 4.614644,6.3469619 -4.53641,-6.4031129 4.575613,6.3751577 -4.497036,-6.4308277 4.536409,6.4031136 -4.457492,-6.4582996 4.497036,6.4308277 -4.417781,-6.4855287 4.457491,6.4582999 -4.377903,-6.5125139 4.417781,6.4855292 -4.337861,-6.5392532 4.377903,6.5125137 -4.297655,-6.5657467 4.33786,6.5392535 -4.257287,-6.5919935 4.297654,6.5657474 -4.216759,-6.6179914 4.257287,6.5919935 -4.176073,-6.6437405 4.216759,6.6179918 -4.135229,-6.6692388 4.176073,6.6437402 -4.09423,-6.6944872 4.135229,6.6692397 -4.053076,-6.7194827 4.094229,6.6944872 -4.01177,-6.7442252 4.053076,6.7194828 -3.970312,-6.7687138 4.011769,6.7442252 -3.928706,-6.7929482 3.970312,6.7687145 -3.886951,-6.8169265 3.928705,6.7929485 -3.845049,-6.8406475 3.88695,6.8169262 -3.803004,-6.8641122 3.845049,6.8406484 -3.760814,-6.8873174 3.803003,6.864112 -3.718484,-6.910264 3.760814,6.887318 -3.676013,-6.93295 3.718483,6.9102641 -3.633404,-6.9553751 3.676013,6.9329502 -3.590659,-6.9775382 3.633404,6.9553752 -3.547778,-6.9994382 3.590659,6.9775379 -3.504764,-7.0210759 3.547778,6.9994391 -3.461617,-7.0424481 3.504763,7.0210756 -3.41834,-7.0635556 3.461617,7.0424483 -3.374935,-7.0843973 3.41834,7.0635559 -3.331402,-7.1049719 3.374934,7.0843973 -3.287744,-7.1252793 3.331401,7.1049721 -3.243962,-7.1453181 3.287744,7.1252792 -3.200059,-7.1650882 3.243962,7.1453183 -3.156034,-7.1845883 3.200058,7.1650882 -3.11189,-7.2038182 3.156033,7.1845886 -3.06763,-7.2227776 3.11189,7.2038192 -3.023254,-7.2414642 3.06763,7.2227777 -2.978765,-7.2598777 3.023254,7.2414638 -2.934163,-7.2780188 2.978764,7.2598783 -2.88945,-7.2958853 2.934162,7.2780188 -2.844629,-7.3134768 2.88945,7.295885 -2.799702,-7.330794 2.84463,7.3134775 -2.754668,-7.3478345 2.799701,7.330794 -2.709531,-7.364599 2.754668,7.3478352 -2.664291,-7.3810852 2.70953,7.3645986 -2.618952,-7.3972946 2.664291,7.3810859 -2.573513,-7.4132249 2.618951,7.3972947 -2.527978,-7.4288757 2.573512,7.4132247 -2.482347,-7.4442477 2.527977,7.4288763 -2.436624,-7.4593383 2.482348,7.4442472 -2.390809,-7.4741492 2.436624,7.4593389 -2.344903,-7.4886779 2.390808,7.474149 -2.298909,-7.502925 2.344902,7.488678 -2.252829,-7.51689 2.298909,7.5029256 -2.206664,-7.5305716 2.252829,7.5168901 -2.160416,-7.5439691 2.206664,7.5305712 -2.114086,-7.5570832 2.160415,7.5439692 -2.067677,-7.5699132 2.114085,7.5570838 -2.021189,-7.5824578 2.067676,7.5699134 -1.974626,-7.5947164 2.021189,7.5824575 -1.927989,-7.6066895 1.974626,7.5947165 -1.881279,-7.6183765 1.927988,7.6066899 -1.834498,-7.6297759 1.881279,7.6183761 -1.787648,-7.6408891 1.834497,7.6297766 -1.74073,-7.6517136 1.787647,7.6408887 -1.693748,-7.6622507 1.740731,7.6517139 -1.646702,-7.6724989 1.693748,7.6622506 -1.599593,-7.6824586 1.646701,7.6724992 -1.552424,-7.6921292 1.599592,7.682459 -1.505197,-7.70151 1.552424,7.6921294 -1.457913,-7.7106004 1.505196,7.7015097 -1.410574,-7.7194007 1.457913,7.7106004 -1.363182,-7.7279104 1.410573,7.7194007 -1.315739,-7.7361297 1.363182,7.7279109 -1.268246,-7.7440569 1.315738,7.7361294 -1.220705,-7.7516934 1.268245,7.7440574 -1.173119,-7.7590374 1.220705,7.7516933 -1.125488,-7.7660893 1.173119,7.7590373 -1.077816,-7.7728493 1.125488,7.7660897 -1.030102,-7.7793157 1.077815,7.7728487 -0.982349,-7.7854897 1.030101,7.7793156 -0.93456,-7.7913716 0.982349,7.7854907 -0.886735,-7.7969587 0.934559,7.791371 -0.838877,-7.802253 0.886735,7.796959 -0.790988,-7.807253 0.838877,7.8022526 -0.743069,-7.8119596 0.790988,7.8072532 -0.695122,-7.8163722 0.743069,7.8119599 -0.647149,-7.8204899 0.695122,7.8163719 -0.599151,-7.8243139 0.647148,7.8204904 -0.55113,-7.8278424 0.59915,7.8243134 -0.503089,-7.8310774 0.551129,7.8278431 -0.455028,-7.8340171 0.503088,7.8310776 -0.406952,-7.8366616 0.455029,7.8340171 -0.358859,-7.8390101 0.406951,7.8366607 -0.310753,-7.8410647 0.358858,7.8390103 -0.262635,-7.8428243 0.310753,7.8410652 -0.214508,-7.8442882 0.262635,7.8428244 -0.166372,-7.8454564 0.214507,7.8442879 -0.11823,-7.8463299 0.166372,7.8454567 -0.07008,-7.8469077 0.11823,7.84633 -0.02193,-7.84719 0.07008,7.8469077 0.02622,-7.8471767 0.02193,7.8471898 0.07436,-7.8468678 -0.02622,7.8471764 0.12251,-7.8462644 -0.07436,7.8468684 0.170651,-7.8453644 -0.12251,7.8462638 0.218786,-7.8441698 -0.170652,7.8453646 0.266914,-7.8426796 -0.218787,7.8441697 0.31503,-7.8408947 -0.266914,7.84268 0.363135,-7.838814 -0.315031,7.8408946 0.411227,-7.8364376 -0.363136,7.8388133 0.459302,-7.8337673 -0.411227,7.836438 0.507361,-7.830802 -0.459303,7.8337677 0.5554,-7.8275407 -0.507361,7.8308012 0.603418,-7.8239862 -0.5554,7.8275414 0.651414,-7.8201364 -0.603419,7.8239861 0.699386,-7.8159921 -0.651415,7.8201363 0.74733,-7.8115533 -0.699385,7.8159917 0.795246,-7.8068207 -0.74733,7.8115533 0.843133,-7.8017943 -0.795247,7.8068207 0.890989,-7.7964737 -0.843134,7.8017939 0.93881,-7.7908599 -0.890989,7.7964736 0.986596,-7.7849536 -0.93881,7.7908607 1.034345,-7.7787527 -0.986597,7.7849528 1.082055,-7.7722598 -1.034345,7.7787528 1.129724,-7.7654738 -1.082055,7.7722594 1.177351,-7.7583964 -1.129725,7.7654744 1.224934,-7.7510264 -1.177352,7.7583965 1.27247,-7.7433645 -1.224934,7.7510264 1.319958,-7.7354104 -1.27247,7.7433638 1.367397,-7.7271658 -1.319959,7.7354104 1.414785,-7.7186304 -1.367398,7.727166 1.462118,-7.709804 -1.414785,7.7186302 1.509398,-7.7006872 -1.462119,7.7098036 1.55662,-7.6912806 -1.509398,7.700687 1.603783,-7.681585 -1.55662,7.6912809 1.650886,-7.6715999 -1.603784,7.6815851 1.697928,-7.6613261 -1.650887,7.6716 1.744904,-7.650763 -1.697928,7.6613254 1.791816,-7.6399124 -1.744905,7.6507629 1.83866,-7.6287739 -1.791816,7.639912 1.885434,-7.617349 -1.83866,7.6287743 1.932138,-7.6056363 -1.885435,7.6173484 1.978769,-7.5936384 -1.932138,7.6056368 2.025325,-7.5813538 -1.978769,7.5936382 2.071805,-7.5687842 -2.025325,7.5813539 2.118207,-7.5559289 -2.071806,7.5687836 2.16453,-7.5427896 -2.118208,7.5559288 2.210771,-7.5293668 -2.16453,7.54279 2.256929,-7.51566 -2.210772,7.5293667 2.303002,-7.5016697 -2.25693,7.5156593 2.348988,-7.4873983 -2.303002,7.5016703 2.394885,-7.4728433 -2.348988,7.4873972 2.440693,-7.4580082 -2.394886,7.4728435 2.486408,-7.4428925 -2.440693,7.4580086 2.53203,-7.4274956 -2.486408,7.4428918 2.577556,-7.4118198 -2.53203,7.4274958 2.622986,-7.3958648 -2.577557,7.4118197 2.668317,-7.3796307 -2.622987,7.3958641 2.713548,-7.3631191 -2.668318,7.3796304 2.758676,-7.3463314 -2.713548,7.3631198 2.8037,-7.3292658 -2.758676,7.3463309 2.848618,-7.3119249 -2.8037,7.3292659 2.89343,-7.2943079 -2.848619,7.3119242 2.938133,-7.2764172 -2.893431,7.2943081 2.982725,-7.2582521 -2.938133,7.2764169 3.027204,-7.2398139 -2.982725,7.258252 3.07157,-7.221103 -3.027205,7.2398137 3.11582,-7.2021197 -3.07157,7.2211023 3.159953,-7.1828663 -3.115821,7.20212 3.203967,-7.163342 -3.159953,7.1828661 3.247859,-7.1435481 -3.203967,7.1633419 3.291631,-7.1234849 -3.24786,7.1435477 3.335277,-7.1031537 -3.291631,7.1234847 3.378799,-7.0825557 -3.335278,7.1031541 3.422193,-7.0616901 -3.378799,7.0825551 3.465458,-7.0405591 -3.422193,7.0616901 3.508593,-7.0191631 -3.465459,7.040559 3.551596,-6.997502 -3.508593,7.0191623 3.594464,-6.9755783 -3.551596,6.997502 3.637198,-6.953392 -3.594464,6.9755783 3.679794,-6.9309433 -3.637198,6.9533914 3.722253,-6.9082344 -3.679795,6.9309435 3.764571,-6.8852645 -3.722254,6.9082336 3.806748,-6.8620366 -3.764572,6.885265 3.848781,-6.838549 -3.806748,6.8620357 3.890668,-6.8148047 -3.84878,6.8385489 3.93241,-6.7908039 -3.890669,6.8148047 3.974004,-6.7665477 -3.932411,6.7908041 4.015448,-6.7420361 -3.974004,6.7665473 4.05674,-6.7172703 -4.015448,6.7420353 4.09788,-6.6922523 -4.05674,6.7172702 4.138866,-6.6669822 -4.097881,6.692252 4.179696,-6.641461 -4.138867,6.6669819 4.220369,-6.6156899 -4.179696,6.6414608 4.260882,-6.5896698 -4.220369,6.6156898 4.301236,-6.5634018 -4.260883,6.5896699 4.341427,-6.5368859 -4.301236,6.5634011 4.381454,-6.5101241 -4.341427,6.5368854 4.421318,-6.4831174 -4.381455,6.5101238 4.461014,-6.4558668 -4.421318,6.4831173 4.500542,-6.4283733 -4.461014,6.4558668 4.539901,-6.4006378 -4.500542,6.4283734 4.579089,-6.3726604 -4.539902,6.4006369 4.618106,-6.3444439 -4.57909,6.3726604 4.656947,-6.3159884 -4.618106,6.3444437 4.695614,-6.2872947 -4.656948,6.3159878 4.734104,-6.2583648 -4.695614,6.2872947 4.772415,-6.2291987 -4.734104,6.2583641 4.810547,-6.1997991 -4.772416,6.2291991 4.848498,-6.1701651 -4.810548,6.1997985 4.886266,-6.1402995 -4.848498,6.1701652 4.92385,-6.1102022 -4.886266,6.1402991 4.961249,-6.0798751 -4.92385,6.110202 4.99846,-6.0493188 -4.961249,6.0798746 5.035485,-6.018535 -4.998461,6.0493185 5.072318,-5.9875245 -5.035484,6.0185347 5.108962,-5.9562886 -5.072319,5.9875242 5.145413,-5.9248285 -5.108963,5.9562883 5.18167,-5.8931453 -5.145413,5.9248282 5.217732,-5.8612402 -5.18167,5.893145 5.253598,-5.8291145 -5.217733,5.8612399 5.289266,-5.7967693 -5.253598,5.8291142 5.324734,-5.7642058 -5.289266,5.796769 5.360003,-5.7314254 -5.324735,5.7642055 5.395069,-5.6984291 -5.360003,5.7314251 5.429933,-5.6652184 -5.39507,5.6984288 5.464592,-5.6317942 -5.429933,5.665218 5.499044,-5.5981581 -5.464591,5.6317939 5.53329,-5.5643112 -5.499045,5.5981578 5.567329,-5.5302549 -5.533291,5.564311 5.601157,-5.4959903 -5.567329,5.5302545 5.634774,-5.4615187 -5.601157,5.4959899 5.668179,-5.4268416 -5.634774,5.4615184 5.701371,-5.3919601 -5.66818,5.4268413 5.734348,-5.3568758 -5.701371,5.3919599 5.767109,-5.3215896 -5.734348,5.3568754 5.799653,-5.2861031 -5.767109,5.3215893 5.831979,-5.2504176 -5.799654,5.2861027 5.864085,-5.2145343 -5.831979,5.2504172 5.895971,-5.1784549 -5.864086,5.2145341 5.927634,-5.1421804 -5.895971,5.1784545 5.959075,-5.1057123 -5.927635,5.14218 5.99029,-5.0690519 -5.959074,5.1057119 6.02128,-5.0322008 -5.99029,5.0690516 6.052044,-4.9951602 -6.021281,5.0322005 6.08258,-4.9579316 -6.052044,4.9951599 6.112887,-4.9205162 -6.082581,4.9579312 6.142964,-4.8829156 -6.112888,4.9205158 6.172809,-4.8451311 -6.142964,4.8829152 6.202422,-4.8071643 -6.172809,4.8451308 6.231802,-4.7690165 -6.202423,4.807164 6.260947,-4.7306891 -6.231802,4.7690161 6.289855,-4.6921836 -6.260946,4.7306888 6.318527,-4.6535015 -6.289855,4.6921833 6.346962,-4.6146441 -6.318528,4.6535011 6.375157,-4.575613 -6.346962,4.6146437 6.403113,-4.5364096 -6.375158,4.5756126 6.430827,-4.4970355 -6.403113,4.5364093 6.4583,-4.457492 -6.430828,4.4970351 6.485529,-4.4177807 -6.4583,4.4574916 6.512514,-4.3779031 -6.485529,4.4177803 6.539253,-4.3378606 -6.512514,4.3779027 6.565747,-4.2976549 -6.539254,4.3378603 6.591994,-4.2572873 -6.565747,4.2976545 6.617991,-4.2167595 -6.591994,4.2572869 6.643741,-4.1760728 -6.617992,4.2167591 6.669239,-4.135229 -6.64374,4.1760724 6.694486,-4.0942294 -6.669239,4.1352286 6.719483,-4.0530758 -6.694487,4.094229 6.744225,-4.0117695 -6.719483,4.0530754 6.768714,-3.9703122 -6.744225,4.0117691 6.792948,-3.9287054 -6.768715,3.9703118 6.816927,-3.8869507 -6.792949,3.9287051 6.840648,-3.8450497 -6.816926,3.8869503 6.864111,-3.8030039 -6.840647,3.8450493 6.887317,-3.7608149 -6.864112,3.8030035 6.910263,-3.7184843 -6.887317,3.7608145 6.93295,-3.6760138 -6.910264,3.718484 6.955375,-3.6334048 -6.93295,3.6760133 6.977538,-3.5906589 -6.955375,3.6334043 6.999438,-3.547778 -6.977538,3.5906586 7.021076,-3.5047635 -6.999439,3.5477776 7.042448,-3.461617 -7.021076,3.5047631 7.063556,-3.4183402 -7.042448,3.4616166 7.084397,-3.3749347 -7.063556,3.4183398 7.104972,-3.3314021 -7.084397,3.3749343 7.125279,-3.2877441 -7.104972,3.3314017 7.145318,-3.2439624 -7.125279,3.2877437 7.165088,-3.2000584 -7.145318,3.2439619 7.184588,-3.156034 -7.165088,3.20005801 7.203818,-3.11189081 -7.184589,3.15603362 7.222778,-3.06763042 -7.203819,3.11189038 7.241464,-3.02325448 -7.222778,3.06762994 7.259878,-2.97876484 -7.241464,3.02325412 7.278019,-2.93416302 -7.259878,2.97876445 7.295885,-2.88945065 -7.278019,2.93416255 7.313477,-2.84462955 -7.295885,2.88945023 7.330794,-2.79970133 -7.313478,2.84462911 7.347835,-2.75466771 -7.330794,2.7997009 7.364598,-2.7095304 -7.347834,2.75466729 7.381085,-2.66429109 -7.364599,2.70953 7.397294,-2.6189515 -7.381085,2.66429072 7.413224,-2.57351322 -7.397294,2.61895103 7.428876,-2.52797803 -7.413225,2.57351274 7.444248,-2.48234774 -7.428876,2.52797763 7.459338,-2.43662403 -7.444247,2.48234737 7.474149,-2.39080847 -7.459339,2.43662355 7.488678,-2.34490295 -7.474149,2.39080804 7.502925,-2.29890914 -7.488678,2.34490251 7.51689,-2.25282881 -7.502926,2.29890874 7.530572,-2.20666364 -7.51689,2.25282838 7.543969,-2.16041538 -7.530571,2.2066632 7.557083,-2.1140858 -7.543969,2.16041496 7.569913,-2.06767656 -7.557084,2.11408531 7.582458,-2.02118951 -7.569913,2.06767611 7.594716,-1.97462641 -7.582458,2.0211891 7.60669,-1.9279889 -7.594717,1.97462594 7.618377,-1.88127884 -7.60669,1.92798847 7.629776,-1.83449797 -7.618376,1.88127842 7.640889,-1.78764802 -7.629777,1.83449754 7.651714,-1.74073074 -7.640889,1.78764756 7.662251,-1.69374796 -7.651714,1.74073032 7.672499,-1.64670142 -7.662251,1.69374755 7.682459,-1.59959285 -7.672499,1.64670097 7.692129,-1.55242401 -7.682459,1.59959236 7.70151,-1.50519678 -7.692129,1.55242358 7.7106,-1.45791287 -7.70151,1.50519633 7.719401,-1.41057407 -7.7106,1.45791243 7.72791,-1.36318217 -7.719401,1.41057363 7.73613,-1.31573894 -7.727911,1.36318172 7.744057,-1.26824617 -7.736129,1.31573849 7.751693,-1.22070565 -7.744057,1.26824572 7.759037,-1.17311918 -7.751693,1.2207052 7.766089,-1.12548853 -7.759037,1.17311874 7.772849,-1.07781554 -7.76609,1.12548814 7.779316,-1.03010197 -7.772849,1.07781507 7.78549,-0.98234955 -7.779316,1.03010145 7.791371,-0.93456016 -7.78549,0.98234906 7.796959,-0.8867356 -7.791371,0.9345597 7.802253,-0.83887767 -7.796959,0.88673517 7.807253,-0.79098817 -7.802253,0.83887727 7.81196,-0.74306891 -7.807253,0.79098771 7.816372,-0.69512159 -7.81196,0.74306849 7.82049,-0.64714823 -7.816372,0.69512113 7.824314,-0.59915033 -7.82049,0.64714773 7.827842,-0.55113 -7.824313,0.5991499 7.831077,-0.5030889 -7.827843,0.5511296 7.834016,-0.4550289 -7.831077,0.5030885 7.836661,-0.4069517 -7.834016,0.4550284 7.83901,-0.3588591 -7.836661,0.4069512 7.841065,-0.3107531 -7.83901,0.3588586 7.842824,-0.2626354 -7.841065,0.3107527 7.844288,-0.2145078 -7.842824,0.262635 7.845456,-0.1663721 -7.844288,0.2145073 7.84633,-0.1182302 -7.845457,0.1663717 7.846908,-0.070084 -7.84633,0.1182297 7.84719,-0.021935 -7.846908,0.070083 7.847177,0.026215 -7.84719,0.021934 7.846868,0.074364 -7.847176,-0.026216 7.846264,0.1225101 -7.846868,-0.074365 7.845364,0.1706515 -7.846264,-0.1225105 7.84417,0.2187866 -7.845365,-0.170652 7.84268,0.2669134 -7.84417,-0.2187871 7.840895,0.3150302 -7.84268,-0.2669139 7.838814,0.3631351 -7.840895,-0.3150306 7.836438,0.4112262 -7.838813,-0.3631355 7.833767,0.459302 -7.836438,-0.4112267 7.830801,0.5073605 -7.833767,-0.4593025 7.827541,0.5553998 -7.830801,-0.5073609 7.823986,0.6034182 -7.827541,-0.5554002 7.820136,0.6514139 -7.823986,-0.6034186 7.815992,0.6993851 -7.820136,-0.6514144 7.811553,0.74733 -7.815992,-0.6993856 7.806821,0.7952467 -7.811553,-0.7473304 7.801794,0.8431335 -7.806821,-0.7952472 7.796474,0.8909885 -7.801794,-0.8431339 7.79086,0.93881 -7.796474,-0.890989 7.784953,0.9865962 -7.79086,-0.9388105 7.778753,1.0343452 -7.784953,-0.9865966 7.77226,1.0820552 -7.778753,-1.0343456 7.765474,1.1297245 -7.772259,-1.0820556 7.758396,1.1773513 -7.765474,-1.129725 7.751026,1.2249338 -7.758397,-1.1773518 7.743365,1.2724702 -7.751026,-1.2249343 7.73541,1.3199586 -7.743364,-1.2724706 7.727166,1.3673973 -7.735411,-1.319959 7.718631,1.4147846 -7.727166,-1.3673978 7.709804,1.4621186 -7.71863,-1.4147851 7.700687,1.5093976 -7.709804,-1.4621191 7.691281,1.5566197 -7.700687,-1.509398 7.681585,1.6037832 -7.691281,-1.5566201 7.6716,1.6508863 -7.681585,-1.6037836 7.661326,1.6979272 -7.6716,-1.6508867 7.650763,1.7449043 -7.661326,-1.6979277 7.639913,1.7918156 -7.650763,-1.7449047 7.628774,1.8386595 -7.639912,-1.791816 7.617349,1.8854342 -7.628774,-1.83866 7.605636,1.9321379 -7.617348,-1.8854347 7.593638,1.9787689 -7.605637,-1.9321384 7.581354,2.0253253 -7.593638,-1.9787693 7.568784,2.0718055 -7.581354,-2.0253257 7.555929,2.1182076 -7.568784,-2.0718059 7.54279,2.1645301 -7.555929,-2.1182081 7.529367,2.210771 -7.54279,-2.1645305 7.51566,2.2569287 -7.529367,-2.2107714 7.50167,2.3030014 -7.515659,-2.2569291 7.487397,2.3489875 -7.501669,-2.3030019 7.472843,2.3948851 -7.487397,-2.3489879 7.458008,2.4406924 -7.472844,-2.3948855 7.442893,2.4864081 -7.458009,-2.440693 7.427496,2.53203 -7.442892,-2.4864085 7.41182,2.5775566 -7.427496,-2.5320304 7.395865,2.6229861 -7.41182,-2.577557 7.379631,2.6683169 -7.395864,-2.6229865 7.363119,2.7135472 -7.37963,-2.6683173 7.34633,2.7586754 -7.363119,-2.7135477 7.329266,2.8036997 -7.346331,-2.7586758 7.311925,2.8486185 -7.329266,-2.8037001 7.294308,2.8934299 -7.311924,-2.8486189 7.276417,2.9381325 -7.294308,-2.8934303 7.258252,2.9827244 -7.276417,-2.9381329 7.239814,3.0272041 -7.258252,-2.9827249 7.221103,3.0715698 -7.239814,-3.0272045 7.20212,3.1158198 -7.221102,-3.0715702 7.182866,3.1599525 -7.20212,-3.1158202 7.163342,3.2039663 -7.182866,-3.159953 7.143548,3.2478595 -7.163342,-3.2039667 7.123485,3.2916302 -7.143548,-3.2478598 7.103154,3.3352772 -7.123485,-3.2916307 7.082555,3.3787985 -7.103153,-3.3352776 7.06169,3.4221927 -7.082555,-3.3787989 7.040559,3.4654579 -7.06169,-3.422193 7.019163,3.5085927 -7.040559,-3.4654583 6.997502,3.5515955 -7.019162,-3.5085932 6.975578,3.5944645 -6.997502,-3.5515959 6.953392,3.6371982 -6.975578,-3.5944649 6.930943,3.6797949 -6.953391,-3.6371986 6.908234,3.7222531 -6.930944,-3.6797953 6.885265,3.7645712 -6.908234,-3.7222535 6.862037,3.8067475 -6.885265,-3.7645716 6.838549,3.8487805 -6.862036,-3.8067479 6.814805,3.8906686 -6.838549,-3.8487809 6.790804,3.9324102 -6.814805,-3.890669 6.766548,3.9740041 -6.790804,-3.9324109 6.742036,4.0154479 -6.766547,-3.9740044 6.71727,4.0567404 -6.742035,-4.015448 6.692252,4.097881 -6.71727,-4.0567413 6.666982,4.1388663 -6.692252,-4.097881 6.641461,4.179696 -6.666982,-4.1388664 6.61569,4.2203684 -6.641461,-4.1796963 6.58967,4.2608823 -6.61569,-4.220369 6.563402,4.301236 -6.58967,-4.2608831 6.536886,4.3414271 -6.563401,-4.3012362 6.510124,4.3814552 -6.536885,-4.3414277 6.483117,4.4213177 -6.510124,-4.3814552 6.455867,4.4610142 -6.483117,-4.4213181 6.428373,4.5005421 -6.455867,-4.461014 6.400638,4.539902 -6.428373,-4.5005434 6.37266,4.5790894 -6.400637,-4.5399016 6.344444,4.6181056 -6.37266,-4.5790903 6.315988,4.6569473 -6.344444,-4.6181058 6.287295,4.6956138 -6.315988,-4.6569477 6.258365,4.7341037 -6.287295,-4.6956143 6.229199,4.7724153 -6.258364,-4.7341042 6.199799,4.8105472 -6.229199,-4.7724157 6.170165,4.8484977 -6.199799,-4.8105474 6.1403,4.8862654 -6.170165,-4.8484976 6.110202,4.9238496 -6.140299,-4.8862658 6.079875,4.9612488 -6.110202,-4.9238503 6.049319,4.9984603 -6.079875,-4.9612487 z" />
  <g
     id="g4139"
     style="filter:url(#filter4477)">
    <path
       transform="matrix(0.57287646,0.15965516,-0.15965516,0.57287646,11.623784,4.876123)"
       inkscape:transform-center-y="0.62537317"
       inkscape:transform-center-x="0.78768765"
       d="M 27.905085,27.172882 25.633527,40.227906 19.31787,28.578611 6.1998543,30.452455 15.327347,20.846078 9.4915255,8.9491534 21.448284,14.661381 30.959563,5.4348331 29.221753,18.571561 40.935869,24.766165 Z"
       inkscape:randomized="0"
       inkscape:rounded="0"
       inkscape:flatsided="false"
       sodipodi:arg2="1.4085354"
       sodipodi:arg1="0.78021686"
       sodipodi:r2="18.504873"
       sodipodi:r1="7.4019494"
       sodipodi:cy="21.966103"
       sodipodi:cx="22.644068"
       sodipodi:sides="5"
       id="path8162"
       style="color:#000000;clip-rule:nonzero;display:inline;overflow:visible;visibility:visible;opacity:1;isolation:auto;mix-blend-mode:normal;color-interpolation:sRGB;color-interpolation-filters:linearRGB;solid-color:#000000;solid-opacity:1;fill:#eaf4fc;fill-opacity:1;fill-rule:evenodd;stroke:none;stroke-width:14.77700043;stroke-linecap:round;stroke-linejoin:round;stroke-miterlimit:4;stroke-dasharray:none;stroke-dashoffset:0;stroke-opacity:1;marker:none;color-rendering:auto;image-rendering:auto;shape-rendering:auto;text-rendering:auto;enable-background:accumulate"
       sodipodi:type="star" />
    <path
       transform="matrix(-0.57287646,0.15965516,0.15965516,0.57287646,52.319266,4.8761227)"
       inkscape:transform-center-y="0.62537317"
       inkscape:transform-center-x="-0.78768717"
       d="M 27.905085,27.172882 25.633527,40.227906 19.31787,28.578611 6.1998543,30.452455 15.327347,20.846078 9.4915255,8.9491534 21.448284,14.661381 30.959563,5.4348331 29.221753,18.571561 40.935869,24.766165 Z"
       inkscape:randomized="0"
       inkscape:rounded="0"
       inkscape:flatsided="false"
       sodipodi:arg2="1.4085354"
       sodipodi:arg1="0.78021686"
       sodipodi:r2="18.504873"
       sodipodi:r1="7.4019494"
       sodipodi:cy="21.966103"
       sodipodi:cx="22.644068"
       sodipodi:sides="5"
       id="path8162-7"
       style="color:#000000;clip-rule:nonzero;display:inline;overflow:visible;visibility:visible;opacity:1;isolation:auto;mix-blend-mode:normal;color-interpolation:sRGB;color-interpolation-filters:linearRGB;solid-color:#000000;solid-opacity:1;fill:#eaf4fc;fill-opacity:1;fill-rule:evenodd;stroke:none;stroke-width:14.77700043;stroke-linecap:round;stroke-linejoin:round;stroke-miterlimit:4;stroke-dasharray:none;stroke-dashoffset:0;stroke-opacity:1;marker:none;color-rendering:auto;image-rendering:auto;shape-rendering:auto;text-rendering:auto;enable-background:accumulate"
       sodipodi:type="star" />
  </g>
</svg>
