<?xml version="1.0" encoding="UTF-8" standalone="no"?>
<!-- Generated by phantom_svg. -->

<svg
   xmlns:dc="http://purl.org/dc/elements/1.1/"
   xmlns:cc="http://creativecommons.org/ns#"
   xmlns:rdf="http://www.w3.org/1999/02/22-rdf-syntax-ns#"
   xmlns:svg="http://www.w3.org/2000/svg"
   xmlns="http://www.w3.org/2000/svg"
   xmlns:sodipodi="http://sodipodi.sourceforge.net/DTD/sodipodi-0.dtd"
   xmlns:inkscape="http://www.inkscape.org/namespaces/inkscape"
   width="64px"
   height="64px"
   viewBox="0 0 64 64"
   preserveAspectRatio="none"
   version="1.1"
   id="svg2"
   inkscape:version="0.91 r13725"
   sodipodi:docname="face_base(ye).svg">
  <metadata
     id="metadata53">
    <rdf:RDF>
      <cc:Work
         rdf:about="">
        <dc:format>image/svg+xml</dc:format>
        <dc:type
           rdf:resource="http://purl.org/dc/dcmitype/StillImage" />
      </cc:Work>
    </rdf:RDF>
  </metadata>
  <defs
     id="defs51" />
  <sodipodi:namedview
     pagecolor="#ffffff"
     bordercolor="#666666"
     borderopacity="1"
     objecttolerance="10"
     gridtolerance="10"
     guidetolerance="10"
     inkscape:pageopacity="0"
     inkscape:pageshadow="2"
     inkscape:window-width="1920"
     inkscape:window-height="1017"
     id="namedview49"
     showgrid="false"
     inkscape:zoom="10.429825"
     inkscape:cx="23.318679"
     inkscape:cy="28.634212"
     inkscape:window-x="0"
     inkscape:window-y="26"
     inkscape:window-maximized="1"
     inkscape:current-layer="g4" />
  <g
     id="g4">
    <linearGradient
       id="SVGID_1_"
       gradientUnits="userSpaceOnUse"
       x1="18.012207"
       y1="-5.3457031"
       x2="45.178566"
       y2="66.3205566">
      <stop
         offset="0"
         style="stop-color:#FFCC91"
         id="stop7" />
      <stop
         offset="0.2750012"
         style="stop-color:#F8B87D"
         id="stop9" />
      <stop
         offset="0.8372955"
         style="stop-color:#E68348"
         id="stop11" />
      <stop
         offset="1"
         style="stop-color:#E07338"
         id="stop13" />
    </linearGradient>
    <circle
       style="fill:url(#SVGID_1_);"
       cx="32"
       cy="31.5541992"
       r="28.9443359"
       id="circle15" />
    <g
       id="g17" />
    <path
       style="fill:#B76658;"
       d="M32.0009766,60.8828125c-16.1728516,0-29.3300781-13.15625-29.3300781-29.3286133   S15.828125,2.2250977,32.0009766,2.2250977c16.171875,0,29.328125,13.1567383,29.328125,29.3291016   S48.1728516,60.8828125,32.0009766,60.8828125z M32.0009766,4.7250977c-14.7939453,0-26.8300781,12.0356445-26.8300781,26.8291016   s12.0361328,26.8286133,26.8300781,26.8286133c14.7929688,0,26.828125-12.0351563,26.828125-26.8286133   S46.7939453,4.7250977,32.0009766,4.7250977z"
       id="path23" />
    <path
       style="fill:#440E00;"
       d="M32,61.7480469c-16.6494141,0-30.1943359-13.5449219-30.1943359-30.1938477   C1.8056641,14.9057617,15.3505859,1.3608398,32,1.3608398s30.1943359,13.5449219,30.1943359,30.1933594   C62.1943359,48.203125,48.6494141,61.7480469,32,61.7480469z M32,3.8608398   c-15.2705078,0-27.6943359,12.4233398-27.6943359,27.6933594S16.7294922,59.2480469,32,59.2480469   s27.6943359-12.4238281,27.6943359-27.6938477S47.2705078,3.8608398,32,3.8608398z"
       id="path25" />
  </g>
</svg>
