<?xml version="1.0" encoding="utf-8"?>
<!-- Generator: Adobe Illustrator 16.0.0, SVG Export Plug-In . SVG Version: 6.00 Build 0)  -->
<!DOCTYPE svg PUBLIC "-//W3C//DTD SVG 1.1//EN" "http://www.w3.org/Graphics/SVG/1.1/DTD/svg11.dtd">
<svg version="1.1" id="Layer_1" xmlns="http://www.w3.org/2000/svg" xmlns:xlink="http://www.w3.org/1999/xlink" x="0px" y="0px"
	 width="64px" height="64px" viewBox="0 0 64 64" style="enable-background:new 0 0 64 64;" xml:space="preserve">
<style type="text/css">
<![CDATA[
	.st0{fill:#E51E25;}
	.st1{fill:#231815;stroke:#231815;stroke-width:1.5;stroke-linecap:round;stroke-linejoin:round;stroke-miterlimit:10;}
	.st2{fill:#88171A;}
	.st3{fill:none;stroke:#898989;stroke-miterlimit:10;}
	.st4{fill:#231815;}
	.st5{fill:url(#SVGID_1_);}
	.st6{fill:url(#SVGID_2_);}
	.st7{fill:url(#SVGID_3_);}
	.st8{fill:url(#SVGID_4_);}
	.st9{fill:url(#SVGID_5_);}
	.st10{fill:url(#SVGID_6_);}
	.st11{fill:url(#SVGID_7_);}
	.st12{fill:url(#SVGID_8_);}
	.st13{fill:url(#SVGID_9_);}
	.st14{fill:#2B1010;}
	.st15{fill:#FFFFFF;}
	.st16{fill:url(#SVGID_10_);}
	.st17{fill:url(#SVGID_11_);}
	.st18{fill:url(#SVGID_12_);}
	.st19{fill:url(#SVGID_13_);}
	.st20{fill:url(#SVGID_14_);}
	.st21{fill:url(#SVGID_15_);}
	.st22{fill:url(#SVGID_16_);}
	.st23{fill:url(#SVGID_17_);}
	.st24{fill:url(#SVGID_18_);}
	.st25{fill:url(#SVGID_19_);}
	.st26{fill:url(#SVGID_20_);}
	.st27{fill:url(#SVGID_21_);}
	.st28{fill:url(#SVGID_22_);}
	.st29{fill:url(#SVGID_23_);}
	.st30{fill:url(#SVGID_24_);}
	.st31{fill:url(#SVGID_25_);}
	.st32{fill:url(#SVGID_26_);}
	.st33{fill:url(#SVGID_27_);}
	.st34{fill:url(#SVGID_28_);}
	.st35{fill:url(#SVGID_29_);}
	.st36{fill:url(#SVGID_30_);}
	.st37{fill:url(#SVGID_31_);}
	.st38{fill:url(#SVGID_32_);}
	.st39{fill:url(#SVGID_33_);}
	.st40{fill:url(#SVGID_34_);}
	.st41{fill:url(#SVGID_35_);}
	.st42{fill:url(#SVGID_36_);}
]]>
</style>
<path class="st1" d="M52,64.9l-0.1-8.8c0-2.3-0.8-3.9-2-5.1c-2.3-2.4-6.4-3.1-10-4.1c-0.2-0.1-0.4-0.2-0.6-0.3l8-5.3l-6.5-2.9
	c-1.6,1.8-3.9,6.8-5.9,9.6c-0.5,0.4-1,1.2-1.3,1.5c-0.2-0.2-0.4-0.3-0.6-0.4c-0.1,0-0.2-0.1-0.4-0.1h-1.1c-0.1,0-0.3,0-0.4,0.1
	c-0.2,0.1-0.4,0.2-0.5,0.4c-0.4-0.3-0.9-1.2-1.5-1.6c-2-2.8-4.3-7.7-5.8-9.5l-6.5,2.9l3.3,2.2l-1-0.6l5.6,3.7
	c-0.2,0.1-0.3,0.2-0.5,0.2c-3.7,1.1-8.1,1.8-10.3,4.5c-1.1,1.1-1.7,2.6-1.7,4.8v0c0,0.2,0,0.3,0,0.5L12,65.4h0.3h0h1h2.6H32h0h16.4
	h2.4h1h0H52h0V64.9L52,64.9z M30.5,49.1c0.2,0.1,0.4,0.2,0.6,0.2h1.5c0.3,0,0.7-0.1,1-0.3c0.9,1.1,4.5,2.6,7.4,4.4L32,61.3L23,53.6
	C26,51.8,29.6,50.2,30.5,49.1z"/>
<g>
	<g>
		<radialGradient id="SVGID_1_" cx="32" cy="54.5977" r="15.6375" gradientUnits="userSpaceOnUse">
			<stop  offset="0" style="stop-color:#394F53"/>
			<stop  offset="0.6772" style="stop-color:#2F3536"/>
			<stop  offset="1" style="stop-color:#282828"/>
		</radialGradient>
		<path class="st5" d="M26.9,44.6c-0.5,0.9-1.3,1.8-2.8,2.2c-5.3,1.6-11.7,2.2-11.7,9l-0.1,8.8h39.4l-0.1-8.8c0-6.7-6.5-7.4-11.7-9
			c-1.4-0.4-2.3-1.3-2.8-2.2l-3.2,4.1h-3.8L26.9,44.6z M38.3,61.8H25.7V49.1h12.6V61.8z"/>
		<path class="st2" d="M51.6,56.5c0-6.5-6-2.9-11.1-4.4L32,59.1l-8.5-6.9c-5.2,1.5-11.1-2.1-11.1,4.4l-0.1,8.8H32h0h19.7L51.6,56.5z
			"/>
		<radialGradient id="SVGID_2_" cx="32.125" cy="49.0059" r="28.2118" gradientUnits="userSpaceOnUse">
			<stop  offset="0" style="stop-color:#E21F26"/>
			<stop  offset="0.2527" style="stop-color:#E21F26"/>
			<stop  offset="0.3011" style="stop-color:#DA1F27"/>
			<stop  offset="0.7573" style="stop-color:#60271E"/>
			<stop  offset="1" style="stop-color:#2B130C"/>
		</radialGradient>
		<path class="st6" d="M40.5,52.8L32,59.8l-8.5-6.9c-5.2,1.5-11.1-2.1-11.1,4.4l-0.1,8.1H32h0h19.7l-0.1-8.1
			C51.6,50.8,45.6,54.3,40.5,52.8z"/>
		
			<radialGradient id="SVGID_3_" cx="34.4443" cy="39.7012" r="25.0709" gradientTransform="matrix(0.4339 0.7235 -0.8371 0.5441 67.2693 -4.7881)" gradientUnits="userSpaceOnUse">
			<stop  offset="0" style="stop-color:#394F53"/>
			<stop  offset="0.6772" style="stop-color:#2F3536"/>
			<stop  offset="1" style="stop-color:#282828"/>
		</radialGradient>
		<path class="st7" d="M32,49.5c0,0,5.4,4.5,7.3,5.1C42,55.5,32,49.5,32,49.5z"/>
		<radialGradient id="SVGID_4_" cx="32.1665" cy="41.167" r="23.7593" gradientUnits="userSpaceOnUse">
			<stop  offset="0" style="stop-color:#394F53"/>
			<stop  offset="0.6772" style="stop-color:#2F3536"/>
			<stop  offset="1" style="stop-color:#282828"/>
		</radialGradient>
		<path class="st8" d="M33.9,48.7h-3.8l-3.3-3.5c-0.5,1.1-1.3,1.9-2.8,2.3c-1,0.3-2,0.7-3,0.9c2.8,0.7,6.6,1.2,10.9,1.2
			c4.3,0,8.1-0.4,10.9-1.2c-1-0.3-2-0.6-3-0.9c-1.4-0.4-2.3-1.2-2.8-2.3L33.9,48.7z"/>
		<g>
			<path class="st0" d="M31.3,50.1c0,0-5.5-8.8-8-11.8l-6.5,2.9L31.3,50.1z"/>
		</g>
		<g>
			<path class="st0" d="M32.6,50.1c0,0,5.5-8.8,8-11.8l6.5,2.9L32.6,50.1z"/>
		</g>
		<radialGradient id="SVGID_5_" cx="32.1665" cy="41.167" r="23.7594" gradientUnits="userSpaceOnUse">
			<stop  offset="0" style="stop-color:#394F53"/>
			<stop  offset="0.6772" style="stop-color:#2F3536"/>
			<stop  offset="1" style="stop-color:#282828"/>
		</radialGradient>
		<path class="st9" d="M51.9,56.5c0-6.1-5.4-7.2-10.4-8.6C39,48,36,48.5,32.3,49.8c0,0,2,3.4,7.7,7c4.1,2.6,7.6,5.3,10.7,8.6H52
			L51.9,56.5z"/>
		<radialGradient id="SVGID_6_" cx="55.5" cy="49.6982" r="13.5093" gradientUnits="userSpaceOnUse">
			<stop  offset="0" style="stop-color:#537181"/>
			<stop  offset="0.4763" style="stop-color:#47545B"/>
			<stop  offset="1" style="stop-color:#333434"/>
		</radialGradient>
		<path class="st10" d="M51.9,56.1c0-6.1-5.4-7.2-10.4-8.6c-0.2,0-0.4,0-0.6,0c4.9,1.3,10.3,2.4,10.3,8.5l0.1,8.8H52L51.9,56.1z"/>
		<radialGradient id="SVGID_7_" cx="32.1665" cy="41.167" r="23.7593" gradientUnits="userSpaceOnUse">
			<stop  offset="0" style="stop-color:#394F53"/>
			<stop  offset="0.6772" style="stop-color:#2F3536"/>
			<stop  offset="1" style="stop-color:#282828"/>
		</radialGradient>
		<path class="st11" d="M12.1,56.5c0-6.1,5.4-7.2,10.4-8.6c2.6,0.1,5.6,0.6,9.2,1.8c0,0-2,3.4-7.7,7c-4.1,2.6-7.6,5.3-10.7,8.6H12
			L12.1,56.5z"/>
		<radialGradient id="SVGID_8_" cx="24.0112" cy="45.1104" r="6.5913" gradientUnits="userSpaceOnUse">
			<stop  offset="0" style="stop-color:#537181"/>
			<stop  offset="0.4763" style="stop-color:#47545B"/>
			<stop  offset="1" style="stop-color:#333434"/>
		</radialGradient>
		<path class="st12" d="M31.3,50.9c0,0-6.8-8.9-9.5-11.6l-5,2"/>
		
			<radialGradient id="SVGID_9_" cx="64.0098" cy="40.75" r="18.6658" gradientTransform="matrix(-1 0 0 1 79.873 0)" gradientUnits="userSpaceOnUse">
			<stop  offset="0" style="stop-color:#537181"/>
			<stop  offset="0.4763" style="stop-color:#47545B"/>
			<stop  offset="1" style="stop-color:#333434"/>
		</radialGradient>
		<path class="st13" d="M31.3,50.9c0,0-6.8-8.9-9.5-11.6l-5,2L31.3,50.9z"/>
		<radialGradient id="SVGID_10_" cx="48.084" cy="40.75" r="18.6658" gradientUnits="userSpaceOnUse">
			<stop  offset="0" style="stop-color:#557176"/>
			<stop  offset="0.3509" style="stop-color:#435355"/>
			<stop  offset="1" style="stop-color:#171818"/>
		</radialGradient>
		<path class="st16" d="M32.6,50.9c0,0,6.8-8.9,9.5-11.6l5,2L32.6,50.9z"/>
		<path class="st4" d="M33.8,49.4c-0.7,0.9-1.2,1.5-1.2,1.5l12.1-8L33.8,49.4z"/>
		<path class="st4" d="M30,49.4c0.7,0.9,1.2,1.5,1.2,1.5l-12.1-8L30,49.4z"/>
		<radialGradient id="SVGID_11_" cx="39.3965" cy="35.6836" r="10.8718" gradientUnits="userSpaceOnUse">
			<stop  offset="0" style="stop-color:#557176"/>
			<stop  offset="0.3509" style="stop-color:#435355"/>
			<stop  offset="1" style="stop-color:#171818"/>
		</radialGradient>
		<path class="st17" d="M33.3,50.4c0,0,6.1-8.4,8.9-11.1l5,2L33.3,50.4z"/>
		
			<radialGradient id="SVGID_12_" cx="54.6748" cy="35.6836" r="10.8721" gradientTransform="matrix(-1 0 0 1 79.2266 0)" gradientUnits="userSpaceOnUse">
			<stop  offset="0" style="stop-color:#557176"/>
			<stop  offset="0.3509" style="stop-color:#435355"/>
			<stop  offset="1" style="stop-color:#171818"/>
		</radialGradient>
		<path class="st18" d="M30.7,50.4c0,0-6.1-8.4-8.9-11.1l-5,2L30.7,50.4z"/>
		
			<radialGradient id="SVGID_13_" cx="84.4229" cy="49.6982" r="13.5091" gradientTransform="matrix(-1 0 0 1 92.9648 0)" gradientUnits="userSpaceOnUse">
			<stop  offset="0" style="stop-color:#537181"/>
			<stop  offset="0.4763" style="stop-color:#47545B"/>
			<stop  offset="1" style="stop-color:#333434"/>
		</radialGradient>
		<path class="st19" d="M12.1,56.1c0-6.1,5.4-7.2,10.4-8.6c0.2,0,0.4,0,0.6,0c-4.9,1.3-10.3,2.4-10.3,8.5l-0.1,8.8H12L12.1,56.1z"/>
		
			<radialGradient id="SVGID_14_" cx="39.5518" cy="32.9019" r="25.0807" gradientTransform="matrix(-0.4339 0.7235 0.8371 0.5441 4.5334 -4.7881)" gradientUnits="userSpaceOnUse">
			<stop  offset="0" style="stop-color:#394F53"/>
			<stop  offset="0.6772" style="stop-color:#2F3536"/>
			<stop  offset="1" style="stop-color:#282828"/>
		</radialGradient>
		<path class="st20" d="M31.9,49.5c0,0-5.4,4.5-7.3,5.1C21.9,55.5,31.9,49.5,31.9,49.5z"/>
		<path class="st3" d="M32.1,49.8"/>
		<radialGradient id="SVGID_15_" cx="35.2754" cy="49" r="0" gradientUnits="userSpaceOnUse">
			<stop  offset="0" style="stop-color:#537181"/>
			<stop  offset="0.4763" style="stop-color:#47545B"/>
			<stop  offset="1" style="stop-color:#333434"/>
		</radialGradient>
		<path class="st21" d="M35.3,49"/>
		<circle class="st14" cx="32" cy="61.4" r="0.9"/>
		<radialGradient id="SVGID_16_" cx="32.0127" cy="60.916" r="0.9377" gradientUnits="userSpaceOnUse">
			<stop  offset="0" style="stop-color:#FDF9CE"/>
			<stop  offset="9.905043e-002" style="stop-color:#F9EFBD"/>
			<stop  offset="0.2949" style="stop-color:#F1DD97"/>
			<stop  offset="0.3708" style="stop-color:#EED688"/>
			<stop  offset="0.6854" style="stop-color:#EBBC1E"/>
			<stop  offset="1" style="stop-color:#C2922E"/>
		</radialGradient>
		<circle class="st22" cx="32" cy="60.9" r="0.9"/>
		<radialGradient id="SVGID_17_" cx="32" cy="54.5977" r="15.6375" gradientUnits="userSpaceOnUse">
			<stop  offset="0" style="stop-color:#394F53"/>
			<stop  offset="0.6772" style="stop-color:#2F3536"/>
			<stop  offset="1" style="stop-color:#282828"/>
		</radialGradient>
		<path class="st23" d="M26.9,44.6c-0.5,0.9-1.3,1.8-2.8,2.2c-5.3,1.6-11.7,2.2-11.7,9l-0.1,8.8h39.4l-0.1-8.8c0-6.7-6.5-7.4-11.7-9
			c-1.4-0.4-2.3-1.3-2.8-2.2l-3.2,4.1h-3.8L26.9,44.6z M38.3,61.8H25.7V49.1h12.6V61.8z"/>
		<path class="st2" d="M51.6,56.5c0-6.5-6-2.9-11.1-4.4L32,59.1l-8.5-6.9c-5.2,1.5-11.1-2.1-11.1,4.4l-0.1,8.8H32h0h19.7L51.6,56.5z
			"/>
		<radialGradient id="SVGID_18_" cx="32.125" cy="49.0059" r="28.2118" gradientUnits="userSpaceOnUse">
			<stop  offset="0" style="stop-color:#E21F26"/>
			<stop  offset="0.2527" style="stop-color:#E21F26"/>
			<stop  offset="0.3011" style="stop-color:#DA1F27"/>
			<stop  offset="0.7573" style="stop-color:#60271E"/>
			<stop  offset="1" style="stop-color:#2B130C"/>
		</radialGradient>
		<path class="st24" d="M40.5,52.8L32,59.8l-8.5-6.9c-5.2,1.5-11.1-2.1-11.1,4.4l-0.1,8.1H32h0h19.7l-0.1-8.1
			C51.6,50.8,45.6,54.3,40.5,52.8z"/>
		<path class="st14" d="M51.9,57.3c0-6.1-5.4-7.2-10.4-8.6c-2.6,0.1-5.6,0.2-9.2,1.4c0,0,2.9,3.8,8.3,7.9c3.4,2.5,5.5,4.6,7.7,7.4
			H52L51.9,57.3z"/>
		<g>
			<g>
				<radialGradient id="SVGID_19_" cx="32.1665" cy="41.167" r="23.7593" gradientUnits="userSpaceOnUse">
					<stop  offset="0" style="stop-color:#394F53"/>
					<stop  offset="0.6772" style="stop-color:#2F3536"/>
					<stop  offset="1" style="stop-color:#282828"/>
				</radialGradient>
				<path class="st25" d="M33.9,48.7h-3.8l-3.3-3.5c-0.5,1.1-1.3,1.9-2.8,2.3c-1,0.3-2,0.7-3,0.9c2.8,0.7,6.6,1.2,10.9,1.2
					c4.3,0,8.1-0.4,10.9-1.2c-1-0.3-2-0.6-3-0.9c-1.4-0.4-2.3-1.2-2.8-2.3L33.9,48.7z"/>
				<path class="st4" d="M37.3,45.9c-0.4-0.7-0.6-1.5-0.7-2.4h-9.2c-0.1,0.8-0.3,1.7-0.7,2.4H37.3z"/>
				<radialGradient id="SVGID_20_" cx="32" cy="44.3613" r="3.8344" gradientUnits="userSpaceOnUse">
					<stop  offset="0" style="stop-color:#394F53"/>
					<stop  offset="0.6772" style="stop-color:#2F3536"/>
					<stop  offset="1" style="stop-color:#282828"/>
				</radialGradient>
				<path class="st26" d="M37.3,45.5c-0.4-0.7-0.6-1.5-0.7-2.4h-9.2c-0.1,0.8-0.3,1.7-0.7,2.4H37.3z"/>
				<g>
					<path class="st0" d="M31.3,50.1c0,0-5.5-8.8-8-11.8l-6.5,2.9L31.3,50.1z"/>
				</g>
				<g>
					<path class="st0" d="M32.6,50.1c0,0,5.5-8.8,8-11.8l6.5,2.9L32.6,50.1z"/>
				</g>
				<radialGradient id="SVGID_21_" cx="32.1665" cy="41.167" r="23.7594" gradientUnits="userSpaceOnUse">
					<stop  offset="0" style="stop-color:#394F53"/>
					<stop  offset="0.6772" style="stop-color:#2F3536"/>
					<stop  offset="1" style="stop-color:#282828"/>
				</radialGradient>
				<path class="st27" d="M51.9,56.5c0-6.1-5.4-7.2-10.4-8.6C39,48,36,48.5,32.3,49.8c0,0,2,3.4,7.7,7c4.1,2.6,7.6,5.3,10.7,8.6H52
					L51.9,56.5z"/>
				
					<radialGradient id="SVGID_22_" cx="34.4443" cy="39.7012" r="25.0709" gradientTransform="matrix(0.4339 0.7235 -0.8371 0.5441 67.2693 -4.7881)" gradientUnits="userSpaceOnUse">
					<stop  offset="0" style="stop-color:#394F53"/>
					<stop  offset="0.6772" style="stop-color:#2F3536"/>
					<stop  offset="1" style="stop-color:#282828"/>
				</radialGradient>
				<path class="st28" d="M32,49.5c0,0,5.4,4.5,7.3,5.1C42,55.5,32,49.5,32,49.5z"/>
				<radialGradient id="SVGID_23_" cx="55.5" cy="49.6982" r="13.5093" gradientUnits="userSpaceOnUse">
					<stop  offset="0" style="stop-color:#537181"/>
					<stop  offset="0.4763" style="stop-color:#47545B"/>
					<stop  offset="1" style="stop-color:#333434"/>
				</radialGradient>
				<path class="st29" d="M51.9,56.1c0-6.1-5.4-7.2-10.4-8.6c-0.2,0-0.4,0-0.6,0c4.9,1.3,10.3,2.4,10.3,8.5l0.1,8.8H52L51.9,56.1z"
					/>
			</g>
			<path class="st14" d="M12.1,57.3c0-6.1,5.4-7.2,10.4-8.6c2.6,0.1,5.6,0.2,9.2,1.4c0,0-2.9,3.8-8.3,7.9c-3.4,2.5-5.5,4.6-7.7,7.4
				H12L12.1,57.3z"/>
			
				<radialGradient id="SVGID_24_" cx="52.4775" cy="41.167" r="23.7591" gradientTransform="matrix(-1 0 0 1 84.3242 0)" gradientUnits="userSpaceOnUse">
				<stop  offset="0" style="stop-color:#394F53"/>
				<stop  offset="0.6772" style="stop-color:#2F3536"/>
				<stop  offset="1" style="stop-color:#282828"/>
			</radialGradient>
			<path class="st30" d="M12.1,56.5c0-6.1,5.4-7.2,10.4-8.6c2.6,0.1,5.6,0.6,9.2,1.8c0,0-2,3.4-7.7,7c-4.1,2.6-7.6,5.3-10.7,8.6H12
				L12.1,56.5z"/>
			<radialGradient id="SVGID_25_" cx="24.0112" cy="45.1104" r="6.5913" gradientUnits="userSpaceOnUse">
				<stop  offset="0" style="stop-color:#537181"/>
				<stop  offset="0.4763" style="stop-color:#47545B"/>
				<stop  offset="1" style="stop-color:#333434"/>
			</radialGradient>
			<path class="st31" d="M31.3,50.9c0,0-6.8-8.9-9.5-11.6l-5,2"/>
			
				<radialGradient id="SVGID_26_" cx="64.0098" cy="40.75" r="18.6658" gradientTransform="matrix(-1 0 0 1 79.873 0)" gradientUnits="userSpaceOnUse">
				<stop  offset="0" style="stop-color:#537181"/>
				<stop  offset="0.4763" style="stop-color:#47545B"/>
				<stop  offset="1" style="stop-color:#333434"/>
			</radialGradient>
			<path class="st32" d="M31.3,50.9c0,0-6.8-8.9-9.5-11.6l-5,2L31.3,50.9z"/>
			<radialGradient id="SVGID_27_" cx="48.084" cy="40.75" r="18.6658" gradientUnits="userSpaceOnUse">
				<stop  offset="0" style="stop-color:#557176"/>
				<stop  offset="0.3509" style="stop-color:#435355"/>
				<stop  offset="1" style="stop-color:#171818"/>
			</radialGradient>
			<path class="st33" d="M32.6,50.9c0,0,6.8-8.9,9.5-11.6l5,2L32.6,50.9z"/>
			<path class="st4" d="M33.8,49.4c-0.7,0.9-1.2,1.5-1.2,1.5l12.1-8L33.8,49.4z"/>
			<path class="st4" d="M30,49.4c0.7,0.9,1.2,1.5,1.2,1.5l-12.1-8L30,49.4z"/>
			<radialGradient id="SVGID_28_" cx="39.3965" cy="35.6836" r="10.8718" gradientUnits="userSpaceOnUse">
				<stop  offset="0" style="stop-color:#557176"/>
				<stop  offset="0.3509" style="stop-color:#435355"/>
				<stop  offset="1" style="stop-color:#171818"/>
			</radialGradient>
			<path class="st34" d="M33.3,50.4c0,0,6.1-8.4,8.9-11.1l5,2L33.3,50.4z"/>
			
				<radialGradient id="SVGID_29_" cx="54.6748" cy="35.6836" r="10.8721" gradientTransform="matrix(-1 0 0 1 79.2266 0)" gradientUnits="userSpaceOnUse">
				<stop  offset="0" style="stop-color:#557176"/>
				<stop  offset="0.3509" style="stop-color:#435355"/>
				<stop  offset="1" style="stop-color:#171818"/>
			</radialGradient>
			<path class="st35" d="M30.7,50.4c0,0-6.1-8.4-8.9-11.1l-5,2L30.7,50.4z"/>
		</g>
		
			<radialGradient id="SVGID_30_" cx="84.4229" cy="49.6982" r="13.5091" gradientTransform="matrix(-1 0 0 1 92.9648 0)" gradientUnits="userSpaceOnUse">
			<stop  offset="0" style="stop-color:#537181"/>
			<stop  offset="0.4763" style="stop-color:#47545B"/>
			<stop  offset="1" style="stop-color:#333434"/>
		</radialGradient>
		<path class="st36" d="M12.1,56.1c0-6.1,5.4-7.2,10.4-8.6c0.2,0,0.4,0,0.6,0c-4.9,1.3-10.3,2.4-10.3,8.5l-0.1,8.8H12L12.1,56.1z"/>
		
			<radialGradient id="SVGID_31_" cx="39.5518" cy="32.9019" r="25.0807" gradientTransform="matrix(-0.4339 0.7235 0.8371 0.5441 4.5334 -4.7881)" gradientUnits="userSpaceOnUse">
			<stop  offset="0" style="stop-color:#394F53"/>
			<stop  offset="0.6772" style="stop-color:#2F3536"/>
			<stop  offset="1" style="stop-color:#282828"/>
		</radialGradient>
		<path class="st37" d="M31.9,49.5c0,0-5.4,4.5-7.3,5.1C21.9,55.5,31.9,49.5,31.9,49.5z"/>
	</g>
	<path class="st3" d="M32.1,49.8"/>
</g>
<polygon class="st15" points="28.3,36.6 28.8,38.3 29.5,37.4 "/>
<polygon class="st15" points="35.7,36.6 35.2,38.3 34.5,37.4 "/>
<radialGradient id="SVGID_32_" cx="35.2754" cy="49" r="0" gradientUnits="userSpaceOnUse">
	<stop  offset="0" style="stop-color:#537181"/>
	<stop  offset="0.4763" style="stop-color:#47545B"/>
	<stop  offset="1" style="stop-color:#333434"/>
</radialGradient>
<path class="st38" d="M35.3,49"/>
<circle class="st14" cx="32" cy="61.4" r="0.9"/>
<radialGradient id="SVGID_33_" cx="32.0127" cy="60.916" r="0.9377" gradientUnits="userSpaceOnUse">
	<stop  offset="0" style="stop-color:#FDF9CE"/>
	<stop  offset="9.905043e-002" style="stop-color:#F9EFBD"/>
	<stop  offset="0.2949" style="stop-color:#F1DD97"/>
	<stop  offset="0.3708" style="stop-color:#EED688"/>
	<stop  offset="0.6854" style="stop-color:#EBBC1E"/>
	<stop  offset="1" style="stop-color:#C2922E"/>
</radialGradient>
<circle class="st39" cx="32" cy="60.9" r="0.9"/>
<g>
	<path class="st4" d="M32.7,49c0,0,2.4-2.8,3.5-1.7c1.1,1.1,0.8,2.8,0.5,3.9c-0.4,1.2-1.4,1.1-2.9,0.1C32.4,50.2,32.4,49.9,32.7,49z
		"/>
	
		<radialGradient id="SVGID_34_" cx="34.5957" cy="49.3115" r="2.0632" gradientTransform="matrix(1 0 0 0.9473 0 2.7227)" gradientUnits="userSpaceOnUse">
		<stop  offset="0" style="stop-color:#E21F26"/>
		<stop  offset="0.2527" style="stop-color:#E21F26"/>
		<stop  offset="0.3011" style="stop-color:#DA1F27"/>
		<stop  offset="0.8766" style="stop-color:#641918"/>
		<stop  offset="1" style="stop-color:#4F1211"/>
	</radialGradient>
	<path class="st40" d="M32.7,49.1c0,0,2.2-2.4,3.2-1.4c0.8,0.8,0.7,2.1,0.6,2.6c-0.3,1.3-1.5,1.4-2.8,0.5
		C32.4,49.9,32.4,50,32.7,49.1z"/>
	<path class="st4" d="M31.4,49c0,0-2.4-2.8-3.5-1.7c-1.1,1.1-0.8,2.8-0.5,3.9c0.4,1.2,1.4,1.1,2.9,0.1C31.7,50.2,31.7,49.9,31.4,49z
		"/>
	
		<radialGradient id="SVGID_35_" cx="41.3047" cy="49.3115" r="2.0632" gradientTransform="matrix(-1 0 0 0.9473 70.7617 2.7227)" gradientUnits="userSpaceOnUse">
		<stop  offset="0" style="stop-color:#E21F26"/>
		<stop  offset="0.2527" style="stop-color:#E21F26"/>
		<stop  offset="0.3011" style="stop-color:#DA1F27"/>
		<stop  offset="0.8766" style="stop-color:#641918"/>
		<stop  offset="1" style="stop-color:#4F1211"/>
	</radialGradient>
	<path class="st41" d="M31.4,49.1c0,0-2.2-2.4-3.2-1.4c-0.8,0.8-0.7,2.1-0.6,2.6c0.3,1.3,1.5,1.4,2.8,0.5
		C31.6,49.9,31.6,50,31.4,49.1z"/>
	<path class="st4" d="M32.4,48.2h-0.7c-0.4,0-0.8,0.3-0.8,0.8v1.3c0,0.4,0.5,0.8,0.8,0.8h0.7c0.4,0,0.8-0.3,0.8-0.8v-1.3
		C33.2,48.5,32.7,48.2,32.4,48.2z"/>
	
		<radialGradient id="SVGID_36_" cx="31.9966" cy="50.0215" r="1.2466" gradientTransform="matrix(1 0 0 0.8738 0 5.6982)" gradientUnits="userSpaceOnUse">
		<stop  offset="0" style="stop-color:#E21F26"/>
		<stop  offset="0.2527" style="stop-color:#E21F26"/>
		<stop  offset="0.3011" style="stop-color:#DA1F27"/>
		<stop  offset="0.8766" style="stop-color:#641918"/>
		<stop  offset="1" style="stop-color:#4F1211"/>
	</radialGradient>
	<path class="st42" d="M32.4,48.2h-0.7c-0.4,0-0.7,0.3-0.7,0.7V50c0,0.4,0.3,0.7,0.7,0.7h0.7c0.4,0,0.7-0.3,0.7-0.7v-1.1
		C33.1,48.5,32.7,48.2,32.4,48.2z"/>
</g>
</svg>
