<?xml version="1.0" encoding="utf-8"?>
<!-- Generator: Adobe Illustrator 18.0.0, SVG Export Plug-In . SVG Version: 6.00 Build 0)  -->
<!DOCTYPE svg PUBLIC "-//W3C//DTD SVG 1.1//EN" "http://www.w3.org/Graphics/SVG/1.1/DTD/svg11.dtd">
<svg version="1.1" id="レイヤー_1" xmlns="http://www.w3.org/2000/svg" xmlns:xlink="http://www.w3.org/1999/xlink" x="0px"
	 y="0px" width="64px" height="64px" viewBox="0 0 64 64" style="enable-background:new 0 0 64 64;" xml:space="preserve">
<g>
	<g>
		<path style="fill:#FFE6D9;" d="M32.5850945,42.3830452c0,0.8044548,0.9003372,1.4397736,0.9261398,2.0592537
			c0.0269852,0.6465797-0.6567001,1.4079628-0.6158104,1.9899826c0.06427,0.9154282,0.8632355,1.1356621,0.960228,1.6093864
			c0.3802795,1.8566017-0.0606575,3.7251091,0.8551865,4.6198273c1.9029961,1.8589516,5.7221298,1.673851,9.4283333,2.2434425
			c0.5368576,0.0825043,1.0713463,0.1808472,1.5972977,0.3035316C46.9779091,55.4980888,49.1575089,60.8376923,50.9883652,65
			l20.9538498,0.0050964c-1.1117859-2.4820023-1.1014252-4.1701775-1.4284439-6.4319725
			c-1.0849152-7.5039253,4.5259018-4.3396034,9.8843231-16.0810547
			c9.2550125-20.2796955,1.0364456-30.9708481-12.0668716-35.2671356
			C57.9690399,3.8273292,45.2048683,5.0155706,40.791172,17.9150219c-1.6693001,4.8786602-1.5062065,7.5980816-2.2315521,10.3853207
			c-1.4660263,5.6336555-4.7801628,5.7967262-5.6829529,6.6995163c-1.2505779,1.2505798,0.6216087,3.3628693,0.6095352,4.8886032
			C33.4745445,41.3624153,32.5850945,41.5234947,32.5850945,42.3830452z"/>
		<path style="fill:#BC816F;" d="M72.328125,65.2548828L50.8251953,65.25l-0.7109375-1.6269531
			c-1.4599609-3.3525391-3.4589844-7.9433594-4.4345703-8.171875c-0.4892578-0.1132813-1.0058594-0.2109375-1.578125-0.2988281
			c-0.9394531-0.1445313-1.8925781-0.2412109-2.8134766-0.3339844c-2.7109375-0.2734375-5.2714844-0.5322266-6.7519531-1.9785156
			c-0.6474609-0.6318359-0.6875-1.6220703-0.7353516-2.7685547c-0.0253906-0.6445313-0.0527344-1.3105469-0.1904297-1.9794922
			c-0.0234375-0.1142578-0.1474609-0.2373047-0.2919922-0.3789063c-0.2646484-0.2617188-0.6274414-0.6191406-0.6723633-1.2626953
			c-0.0249023-0.3525391,0.1503906-0.7236328,0.3203125-1.0830078c0.1508789-0.3183594,0.3061523-0.6484375,0.2954102-0.9150391
			c-0.0087891-0.2119141-0.1865234-0.4716797-0.3740234-0.7470703c-0.2592773-0.3798828-0.5527344-0.8095703-0.5527344-1.3222656
			c0-0.4521484,0.2050781-0.7470703,0.4033203-1.0322266c0.2421875-0.3476563,0.4921875-0.7080078,0.4980469-1.4638672
			c0.0039063-0.5205078-0.2382813-1.1328125-0.4951172-1.78125c-0.4414063-1.1162109-0.9423828-2.3818359-0.0415039-3.2822266
			c0.2392578-0.2392578,0.590332-0.4150391,1.0356445-0.6367188c1.3886719-0.6923828,3.4863281-1.7392578,4.5820313-5.9492188
			c0.2626953-1.0078125,0.4111328-2.0336914,0.5683594-3.1191406c0.2832031-1.9550781,0.6035156-4.1713867,1.6689453-7.2841797
			c2.7548828-8.0517578,9.1767578-12.4863281,18.0800781-12.4863281c3.1230469,0,6.5029297,0.5668945,9.7744141,1.6396484
			c7.1884766,2.3569336,12.2324219,6.4443359,14.5888672,11.8212891c2.7568359,6.293457,1.9589844,14.296875-2.3720703,23.7871094
			c-2.6074219,5.7138672-5.2714844,7.9267578-7.2158203,9.5439453c-2.0576172,1.7089844-3.1904297,2.6503906-2.6494141,6.3974609
			c0.0683594,0.4716797,0.1220703,0.9179688,0.1738281,1.3525391c0.1982422,1.6533203,0.3701172,3.0810547,1.2363281,5.0126953
			L72.328125,65.2548828z M51.1523438,64.75l20.4091797,0.0048828c-0.765625-1.8242188-0.9316406-3.2128906-1.1230469-4.8056641
			c-0.0517578-0.4306641-0.1044922-0.8730469-0.171875-1.3398438c-0.5820313-4.0244141,0.7724609-5.1503906,2.8232422-6.8544922
			c1.9082031-1.5859375,4.5214844-3.7568359,7.0810547-9.3662109c4.2695313-9.3554688,5.0664063-17.2216797,2.3691406-23.3793945
			c-2.2978516-5.2426758-7.2373047-9.2353516-14.2871094-11.5463867C65.03125,6.40625,61.7050781,5.8476563,58.6347656,5.8476563
			c-8.6738281,0-14.9267578,4.3144531-17.6074219,12.1484375c-1.0498047,3.0683594-1.3671875,5.2602539-1.6464844,7.1933594
			c-0.1591797,1.1000977-0.3095703,2.1391602-0.5791016,3.1738281c-1.1533203,4.4301758-3.4628906,5.5820313-4.8427734,6.2705078
			c-0.3886719,0.1943359-0.7236328,0.3613281-0.9052734,0.5429688c-0.6689453,0.6679688-0.2700195,1.6767578,0.1523438,2.7441406
			c0.2626953,0.6650391,0.5351563,1.3525391,0.5302734,1.9697266c-0.0068359,0.9111328-0.3291016,1.3730469-0.5869141,1.7451172
			c-0.1826172,0.2626953-0.3144531,0.4521484-0.3144531,0.7470703c0,0.3583984,0.2363281,0.7050781,0.4658203,1.0400391
			c0.2294922,0.3359375,0.4453125,0.6533203,0.4609375,1.0087891c0.015625,0.3886719-0.1669922,0.7753906-0.34375,1.1494141
			c-0.1416016,0.3007813-0.2890625,0.6113281-0.2734375,0.8339844c0.0322266,0.4550781,0.2832031,0.7021484,0.5253906,0.9414063
			c0.1855469,0.1826172,0.3769531,0.3720703,0.4306641,0.6357422c0.1445313,0.7070313,0.1748047,1.4248047,0.2001953,2.0585938
			c0.0429688,1.0400391,0.0791016,1.9375,0.5849609,2.4316406c1.3544922,1.3232422,3.8310547,1.5742188,6.4521484,1.8388672
			c0.9277344,0.09375,1.8867188,0.1904297,2.8398438,0.3369141c0.5849609,0.0898438,1.1132813,0.1894531,1.6152344,0.3066406
			c1.1357422,0.2646484,2.6298828,3.5214844,4.7792969,8.4589844L51.1523438,64.75z"/>
	</g>
	<path style="fill:#EDBBAB;" d="M56.9707222,64C64.125,64,66.164978,49.4245033,66.164978,49.4245033
		c3-3.416687-8.623333-0.9661903-8.623333-0.9661903c-6.2480469,6.5565796-17.2959595,5.2971535-18.9055786,5.074192
		c1.7893677,0.3366699,3.887085,0.4286499,5.9614258,0.7474365c0.5368652,0.0824585,1.0713501,0.1808472,1.59729,0.3035278
		c1.2414551,0.2896118,3.4210815,5.6292114,5.2518921,9.7915001L56.9707222,64z"/>
	<g>
		<path style="fill:#72402D;" d="M40.7505836,30.6795521c0.4643974,0.0090256,1.0421066-0.0726147,1.5674553-0.1713753
			c-0.356678-0.2378864-0.6706848-0.5238724-0.7946663-0.8611908c0,0,0.6062546,0.6088352,2.204731,0.5374413
			c2.0423012,1.9354839,5.6399651,3.4068851,5.6399651,3.4068851s-1.8585205,0.640007-8.2032585-1.3927574
			c0,0,0.9329987-0.0984497,1.6891747-0.2990417C41.3927193,31.245285,40.7505836,30.6795521,40.7505836,30.6795521z"/>
		<path style="fill:#EDBBAB;" d="M46.5289497,21.6771984c-1.0166397,2.9729023-2.0169792,6.0368252-2.0085335,8.0447102
			c0.5592766,0.6386108,1.8752136,1.7027092,4.9132423,3.4026604c0,0-3.9840088-1.5210152-5.6240692-3.458149
			C43.878994,26.1523819,46.5289497,21.6771984,46.5289497,21.6771984z"/>
		<path style="fill:#C9B965;" d="M42.4107437,21.1360779c0,0,2.9430656-2.4622669,9.2371559,4.432478
			C51.6478996,25.5685558,45.8893738,21.3828411,42.4107437,21.1360779z"/>
	</g>
	<g>
		<linearGradient id="SVGID_1_" gradientUnits="userSpaceOnUse" x1="76.1394043" y1="4.0947614" x2="76.1394043" y2="66.1674118">
			<stop  offset="0" style="stop-color:#807540"/>
			<stop  offset="0.1316872" style="stop-color:#C9B965"/>
			<stop  offset="0.2510288" style="stop-color:#C9B965"/>
			<stop  offset="0.7407408" style="stop-color:#807640"/>
		</linearGradient>
		<path style="fill:url(#SVGID_1_);" d="M65.5342636,17.6797314l1.8600082,23.8966198
			c-3.8915329,18.7145233,7.5550156,24.5910606,7.5550156,24.5910606s-2.1843643-4.7789383-2.0035477-8.4856796
			c0,0,2.3196106,3.3140335,3.9076309,4.0611839c0,0-1.507431-7.0870323,4.5906067-15.8269653
			C86.9098969,38.0819969,94.8338776,7.007041,65.9814606,4.0947614L65.5342636,17.6797314z"/>
		<path style="fill:#72402D;" d="M75.4755859,66.71875l-0.640625-0.3291016
			C74.71875,66.3300781,63.2783203,60.21875,67.1425781,41.5605469l-1.8574219-23.8613281l0.4550781-13.8798828l0.2666016,0.0268555
			c9.3632813,0.9448242,15.7021484,4.8881836,18.8398438,11.7207031
			c4.7773438,10.4038086,0.5253906,25.1567383-3.1972656,30.4916992c-5.9580078,8.5400391-4.5664063,15.5625-4.5517578,15.6328125
			l0.1044922,0.4921875l-0.4550781-0.2138672c-1.2158203-0.5722656-2.7939453-2.5214844-3.5576172-3.53125
			c0.109375,3.4746094,1.9667969,7.5800781,1.9873047,7.625L75.4755859,66.71875z M66.2226563,4.3710938l-0.4384766,13.3168945
			l1.8623047,23.9038086l-0.0068359,0.0351563c-3.2617188,15.6826172,4.4208984,22.2949219,6.7695313,23.9082031
			c-0.6054688-1.4941406-1.8544922-4.96875-1.7138672-7.8652344l0.0361328-0.7294922l0.4189453,0.5976563
			c0.0205078,0.0302734,1.9052734,2.7070313,3.3818359,3.7275391c-0.2050781-1.8222656-0.4375-8.1201172,4.7070313-15.4921875
			c3.6640625-5.2519531,7.8515625-19.7675781,3.1533203-29.9980469C81.3632813,9.1801758,75.2509766,5.3442383,66.2226563,4.3710938
			z"/>
	</g>
	<g>
		<g>
			<path style="fill:#FFE6D9;" d="M66.2047577,36.5263481c0,0,4.9620819-0.4144707,4.8154449,4.3410149
				s-1.8377304,6.2721634-3.8800049,7.1945457c-2.0422821,0.9223862-5.8613853,1.4894218-7.2334976-1.7384949"/>
			<path style="fill:#BC816F;" d="M63.9052734,49.0332031c-0.6650391,0-1.328125-0.0996094-1.9433594-0.3398438
				c-1.0498047-0.4091797-1.8183594-1.1738281-2.2861328-2.2724609l0.4609375-0.1953125
				c0.4121094,0.9697266,1.0878906,1.6435547,2.0078125,2.0019531c1.5917969,0.6230469,3.6298828,0.1748047,4.8935547-0.3935547
				c2.1416016-0.9667969,3.5957031-2.5234375,3.7324219-6.9746094c0.0400391-1.2890625-0.3095703-2.2949219-1.0390625-2.9882813
				c-1.3222656-1.2568359-3.4824219-1.0966797-3.5058594-1.0957031l-0.0410156-0.4980469
				c0.0966797-0.0078125,2.3994141-0.1835938,3.8886719,1.2294922c0.8388672,0.7949219,1.2412109,1.9287109,1.1972656,3.3681641
				c-0.1533203,4.9873047-2.0263672,6.5107422-4.0273438,7.4140625
				C66.3291016,48.7021484,65.1162109,49.0332031,63.9052734,49.0332031z"/>
		</g>
	</g>
	<g>
		<linearGradient id="SVGID_2_" gradientUnits="userSpaceOnUse" x1="52.1933823" y1="2.4267018" x2="52.1933823" y2="61.6754837">
			<stop  offset="0" style="stop-color:#807540"/>
			<stop  offset="0.1316872" style="stop-color:#C9B965"/>
			<stop  offset="0.2510288" style="stop-color:#C9B965"/>
			<stop  offset="0.7407408" style="stop-color:#807640"/>
		</linearGradient>
		<path style="fill:url(#SVGID_2_);" d="M65.9814453,4.0947514c0,0,7.0472031,2.8001561,4.0085831,24.7558918
			c-2.1658249,15.6492615-5.2243729,23.5692215-8.6026268,27.927681c0.9090233-2.8038025,1.5850906-6.043087,1.6443481-9.5962639
			c0,0-3.366581,12.2627869-9.1194687,14.4934235c0,0,3.1718216-18.2963638,3.0477448-27.4723053
			c-1.2718391,4.8165283-3.8069878,7.7519455-3.8069878,7.7519455c-2.2072105-7.5826302-0.9153824-26.2331829-0.9153824-26.2331829
			c-1.6882629,3.3441181-1.4468994,17.218771-1.4468994,17.218771c-2.1603394-7.6925259-0.8430519-14.9309254-0.0527344-19.4362068
			c-4.18507,10.1126518-9.349617,15.0910416-12.6525421,16.2872849c5.9355431-5.6860313,9.6288681-15.2324762,9.6288681-15.2324762
			c-6.224926,9.5330496-14.0781975,16.2047653-14.0781975,16.2047653
			C34.0237541-7.5639524,65.9814453,4.0947514,65.9814453,4.0947514z"/>
		<path style="fill:#72402D;" d="M53.5898438,62.0683594l0.0761719-0.4355469
			c0.0292969-0.171875,2.8037109-16.2744141,3.0322266-25.7177734c-1.3291016,3.8271484-3.2636719,6.0966797-3.3554688,6.203125
			l-0.3007813,0.3486328l-0.1289063-0.4414063c-1.7568359-6.0361328-1.3017578-19.1577148-1.0439453-24.246582
			c-0.9912109,4.9208984-0.8300781,15.0390625-0.828125,15.1577148l0.0332031,1.9394531l-0.5234375-1.8671875
			c-1.8769531-6.6826172-1.1689453-12.9111328-0.4130859-17.4916992
			c-4.0595703,8.9355469-8.7753906,13.3540039-11.9667969,14.5097656l-1.1123047,0.4033203l0.8544922-0.8188477
			c4.0009766-3.8325195,7.0009766-9.4951172,8.5-12.6992188c-5.8730469,8.2734375-12.5429688,13.980957-12.6152344,14.0424805
			l-0.4179688,0.3544922l0.0058594-0.5473633C33.625,7.1357422,45.6533203,2.1767578,55.7021484,2.1767578
			c5.6865234,0,10.3193359,1.6665039,10.3652344,1.6831055c0.3017578,0.1196289,7.2001953,3.1269531,4.1708984,25.0249023
			c-1.9414063,14.0224609-4.6904297,22.9345703-8.6533203,28.046875l-0.8769531,1.1318359l0.4414063-1.3623047
			c0.8183594-2.5214844,1.3330078-5.0595703,1.5371094-7.5703125c-1.2041016,3.5625-4.2080078,11.0429688-8.6835938,12.7783203
			L53.5898438,62.0683594z M57.1855469,32.3706055l0.0244141,1.8295898c0.1123047,8.2861328-2.4873047,24.1699219-2.9736328,27.0625
			c5.3232422-2.5751953,8.5224609-14.0292969,8.5546875-14.1474609l0.5244141-1.9091797l-0.0332031,1.9794922
			c-0.0458984,2.7119141-0.4550781,5.4677734-1.2177734,8.2138672c3.4052734-5.1787109,5.9228516-13.9033203,7.6777344-26.5830078
			c2.9775391-21.5126953-3.7841797-24.4619141-3.8535156-24.4892578c-0.0380859-0.0141602-4.5927734-1.6503906-10.1865234-1.6503906
			c-9.7431641,0-21.390625,4.7944336-21.8085938,27.527832c1.7089844-1.5253906,8.2949219-7.6401367,13.6113281-15.7822266
			l1.3007813-1.9921875l-0.8583984,2.2192383c-0.0351563,0.090332-3.3613281,8.5917969-8.6884766,14.3076172
			c3.1650391-1.8388672,7.5898438-6.7075195,11.2480469-15.5483398l0.8720703-2.1044922L50.9541016,13.71875
			c-0.7373047,4.1972656-1.8164063,10.3427734-0.4267578,17.0810547c0.0068359-4.0507813,0.1806641-12.6015625,1.4863281-15.1904297
			l0.5585938-1.105957l-0.0859375,1.2358398c-0.0126953,0.1826172-1.2119141,17.9384766,0.7773438,25.671875
			c0.703125-0.9365234,2.4707031-3.5458984,3.4541016-7.2714844L57.1855469,32.3706055z"/>
	</g>
	<g>
		<linearGradient id="SVGID_3_" gradientUnits="userSpaceOnUse" x1="63.4797821" y1="6.3209839" x2="63.4797821" y2="27.9524536">
			<stop  offset="0" style="stop-color:#FFFFFF;stop-opacity:0.6"/>
			<stop  offset="1" style="stop-color:#FFFFFF;stop-opacity:0"/>
		</linearGradient>
		<path style="fill:url(#SVGID_3_);" d="M65.1708374,8.5941772c0,0-0.5285034,0.6518555-0.9907227,2.1381226
			C63.78479,8.9559937,63.0159912,7.4042969,61.69104,6.3209839c0,0-4.6766968,5.7202759-0.1566772,21.6314697
			c0,0,1.4367676-3.548584,2.3183594-7.8729248c0.2415161,1.632019,0.6138916,3.4428711,1.1951294,5.4890137
			C65.0478516,25.5685425,70.2443237,12.7424927,65.1708374,8.5941772z"/>
		<linearGradient id="SVGID_4_" gradientUnits="userSpaceOnUse" x1="43.0240402" y1="5.0272312" x2="43.0240402" y2="19.3508625">
			<stop  offset="0" style="stop-color:#FFFFFF;stop-opacity:0.6"/>
			<stop  offset="1" style="stop-color:#FFFFFF;stop-opacity:0"/>
		</linearGradient>
		<path style="fill:url(#SVGID_4_);" d="M37.8251114,19.3508625c1.2269592-11.3725471,9.109108-14.3236313,9.109108-14.3236313
			c-0.3068542,0.9845009-0.6578903,1.9117732-1.0296059,2.8011007c1.2796249-1.0328908,2.3183556-1.4055471,2.3183556-1.4055471
			c-2.1231079,7.2978792-7.0353165,11.2366982-7.0353165,11.2366982c0.069931-0.8411961,0.2007141-1.6043682,0.3568192-2.3307467
			C39.518383,17.9563046,37.8251114,19.3508625,37.8251114,19.3508625z"/>
		<linearGradient id="SVGID_5_" gradientUnits="userSpaceOnUse" x1="81.4439774" y1="12.4434633" x2="81.4439774" y2="29.8920803">
			<stop  offset="0" style="stop-color:#FFFFFF;stop-opacity:0.6"/>
			<stop  offset="1" style="stop-color:#FFFFFF;stop-opacity:0"/>
		</linearGradient>
		<path style="fill:url(#SVGID_5_);" d="M78.5698624,12.4434633c1.1651001,0.8651018,1.9453964,1.861352,2.4729996,2.8957138
			c0.1197739-1.1130981,0.304451-1.6911612,0.304451-1.6911612c5.6520157,5.906889,2.4460983,16.2440643,2.4460983,16.2440643
			c-1.1285858-2.7161484-1.8275757-5.1132183-2.2545853-7.1850719c-0.2106705,0.7844429-0.4163895,1.2686081-0.4163895,1.2686081
			C76.7341156,16.5753536,78.5698624,12.4434633,78.5698624,12.4434633z"/>
	</g>
	
		<linearGradient id="SVGID_6_" gradientUnits="userSpaceOnUse" x1="20.2362022" y1="35.8743477" x2="20.2362022" y2="39.3065567" gradientTransform="matrix(-1 0 0 1 63.7645111 0)">
		<stop  offset="0" style="stop-color:#C30D23;stop-opacity:0.3"/>
		<stop  offset="1" style="stop-color:#C30D23;stop-opacity:0"/>
	</linearGradient>
	<path style="fill:url(#SVGID_6_);" d="M47.2977448,38.9777565c0.3206558-1.2115326-4.1092949-4.1841164-7.0096169-2.6951065
		C37.3878098,37.7716599,46.9770889,40.1892891,47.2977448,38.9777565z"/>
</g>
</svg>
