<?xml version="1.0" encoding="utf-8"?>
<!-- Generator: Adobe Illustrator 18.0.0, SVG Export Plug-In . SVG Version: 6.00 Build 0)  -->
<!DOCTYPE svg PUBLIC "-//W3C//DTD SVG 1.1//EN" "http://www.w3.org/Graphics/SVG/1.1/DTD/svg11.dtd">
<svg version="1.1" id="レイヤー_1" xmlns="http://www.w3.org/2000/svg" xmlns:xlink="http://www.w3.org/1999/xlink" x="0px"
	 y="0px" width="64px" height="64px" viewBox="0 0 64 64" style="enable-background:new 0 0 64 64;" xml:space="preserve">
<g>
	<g>
		<g>
			<linearGradient id="SVGID_1_" gradientUnits="userSpaceOnUse" x1="32" y1="52.1517258" x2="32" y2="65.3651199">
				<stop  offset="0.4041152" style="stop-color:#3E3A39"/>
				<stop  offset="1" style="stop-color:#231815"/>
			</linearGradient>
			<path style="fill:url(#SVGID_1_);" d="M39.1726685,52.1517258c0,0-3.8104782,1.4681549-7.1726685,1.4681549
				s-7.1726685-1.4681549-7.1726685-1.4681549L24,65.3651199h16L39.1726685,52.1517258z"/>
			<path style="fill:#231815;" d="M40.2666016,65.6152344H23.7338867l0.8652344-13.8193359l0.3178711,0.1220703
				C24.9545898,51.9326172,28.7246094,53.3701172,32,53.3701172c3.2783203,0,7.0449219-1.4375,7.0830078-1.4521484
				l0.3183594-0.1220703L40.2666016,65.6152344z M24.2661133,65.1152344h15.4672852l-0.7890625-12.6132813
				C37.9521484,52.8544922,34.8457031,53.8701172,32,53.8701172s-5.9516602-1.015625-6.9443359-1.3681641L24.2661133,65.1152344z"/>
		</g>
		<path style="fill:#231815;" d="M32,55.1748047c-3.3652344,0-7.0966797-1.2646484-7.2539063-1.3183594l0.1621094-0.4726563
			C24.9458008,53.3964844,28.7197266,54.6748047,32,54.6748047s7.0537109-1.2783203,7.0917969-1.2910156l0.1621094,0.4726563
			C39.0966797,53.9101563,35.3652344,55.1748047,32,55.1748047z"/>
	</g>
	<g>
		<g>
			<linearGradient id="SVGID_2_" gradientUnits="userSpaceOnUse" x1="49.6729736" y1="52.0501099" x2="49.6729736" y2="65.3651123">
				<stop  offset="0.4" style="stop-color:#036EB8"/>
				<stop  offset="1" style="stop-color:#172A88"/>
			</linearGradient>
			<path style="fill:url(#SVGID_2_);" d="M52.1057739,56.2805786c0-1.7922363-0.4518433-3.1530151-1.1976318-4.2304688
				C49.6994629,54.4495239,48.175415,56.9834595,46.625,58.25l-0.5082397,7.1151123h7.1124268L52.1057739,56.2805786z"/>
			<path style="fill:#171C61;" d="M53.5126953,65.6152344h-7.6640625L46.3837891,58.125l0.0830078-0.0683594
				c1.2792969-1.0458984,2.6992188-3.1044922,4.2177734-6.1191406l0.1894531-0.3759766l0.2402344,0.3457031
				c0.8349609,1.2080078,1.2412109,2.6376953,1.2412109,4.3730469L53.5126953,65.6152344z M46.3857422,65.1152344h6.5605469
				l-1.0888672-8.8046875c-0.0019531-1.4863281-0.3046875-2.7138672-0.9238281-3.7587891
				c-1.4453125,2.8046875-2.8125,4.7617188-4.0664063,5.8222656L46.3857422,65.1152344z"/>
		</g>
		<g>
			<linearGradient id="SVGID_3_" gradientUnits="userSpaceOnUse" x1="40.8106995" y1="49.2807007" x2="40.8106995" y2="65.3651123">
				<stop  offset="0.4" style="stop-color:#3E3A39"/>
				<stop  offset="1" style="stop-color:#231815"/>
			</linearGradient>
			<path style="fill:url(#SVGID_3_);" d="M39.3865356,49.2807007c-0.3202515,0.2639771-0.5501099,0.4502563-0.5501099,0.4502563
				L32,65.3651123h14.1167603L46.625,58.25c1.0406494-0.8500977,2.0668945-2.2744751,2.9963989-3.8426514
				C48.6241455,52.9616699,46.0457153,50.8552246,39.3865356,49.2807007z"/>
			<path style="fill:#261D19;" d="M46.3496094,65.6152344H31.6176758l7.0610352-16.0791016
				c0.0009766-0.0009766,0.2304688-0.1855469,0.5488281-0.4482422l0.0957031-0.0791016l0.1210938,0.0283203
				c6.6923828,1.5830078,9.3398438,3.7167969,10.3828125,5.2285156l0.0908203,0.1318359l-0.0820313,0.1376953
				c-1.0478516,1.7675781-2.046875,3.0585938-2.96875,3.8388672L46.3496094,65.6152344z M32.3823242,65.1152344h13.5024414
				L46.3837891,58.125l0.0830078-0.0683594c0.8769531-0.7158203,1.8369141-1.9384766,2.8554688-3.6367188
				c-1.0478516-1.421875-3.6162109-3.3710938-9.8720703-4.8671875c-0.1894531,0.1552734-0.3378906,0.2753906-0.4091797,0.3339844
				L32.3823242,65.1152344z"/>
		</g>
		<g>
			<linearGradient id="SVGID_4_" gradientUnits="userSpaceOnUse" x1="43.5853882" y1="49.2807007" x2="43.5853882" y2="65.3651123">
				<stop  offset="0" style="stop-color:#FFFFFF"/>
				<stop  offset="1" style="stop-color:#C9CACA"/>
			</linearGradient>
			<polygon style="fill:url(#SVGID_4_);" points="40.5457764,65.3651123 41.833313,65.3651123 42.458313,62.041626 
				46.5024414,59.9659424 46.625,58.25 41.3125,61.3125 			"/>
			<path style="fill:#261D19;" d="M42.0400391,65.6152344h-1.7958984l0.84375-4.4619141l5.8203125-3.3554688l-0.1669922,2.3261719
				l-4.0605469,2.0839844L42.0400391,65.6152344z M40.8476563,65.1152344h0.7783203l0.609375-3.2392578l0.1083984-0.0566406
				l3.9189453-2.0117188l0.0791016-1.1054688l-4.8046875,2.7695313L40.8476563,65.1152344z"/>
		</g>
		<g>
			<linearGradient id="SVGID_5_" gradientUnits="userSpaceOnUse" x1="45.1473389" y1="47.427063" x2="45.1473389" y2="65.3651123">
				<stop  offset="0" style="stop-color:#F7F8F8"/>
				<stop  offset="1" style="stop-color:#F7F8F8"/>
			</linearGradient>
			<path style="fill:url(#SVGID_5_);" d="M41.4492188,47.427063c0.0238647,0.1139526-1.2896118,1.2162476-2.0626831,1.8536377
				c6.6591797,1.5745239,9.2376099,3.6809692,10.2348633,5.1266479c0.4553223-0.7681885,0.8893433-1.5682983,1.2867432-2.3572388
				C48.9968262,49.2885742,45.09198,48.4487915,41.4492188,47.427063z"/>
			<path style="fill:#261D19;" d="M49.6367188,54.8701172l-0.2216797-0.3212891
				c-0.9921875-1.4384766-3.5478516-3.4785156-10.0859375-5.0253906l-0.4902344-0.1162109l0.3886719-0.3203125
				c1.4423828-1.1884766,1.8457031-1.5830078,1.9570313-1.7070313l-0.0625-0.3046875l0.3945313,0.1113281
				c0.3408203,0.0947266,0.6826172,0.1884766,1.0263672,0.2832031c3.3359375,0.9150391,6.7871094,1.8603516,8.5703125,4.4375
				l0.0849609,0.1220703l-0.0664063,0.1328125c-0.4199219,0.8320313-0.8554688,1.6308594-1.2958984,2.3730469L49.6367188,54.8701172
				z M39.9306641,49.1542969c5.9023438,1.4628906,8.5136719,3.3564453,9.6660156,4.8007813
				c0.3457031-0.5976563,0.6884766-1.2294922,1.0205078-1.8837891c-1.7070313-2.3378906-5.0107422-3.2431641-8.2070313-4.1191406
				c-0.2861328-0.0791016-0.5732422-0.1572266-0.8583984-0.2373047C41.3535156,47.9404297,40.90625,48.34375,39.9306641,49.1542969z
				"/>
		</g>
	</g>
	<g>
		<g>
			<linearGradient id="SVGID_6_" gradientUnits="userSpaceOnUse" x1="37.1093025" y1="45.5288696" x2="37.1093025" y2="64.9901199">
				<stop  offset="0.4" style="stop-color:#036EB8"/>
				<stop  offset="1" style="stop-color:#172A88"/>
			</linearGradient>
			<path style="fill:url(#SVGID_6_);" d="M37.8520966,45.722374L32,64.9901199c0,0,6.324295-3.8904686,9.0218735-7.2933998
				l-2.6897507-3.5776749L42.125,53.875c0.4202728-3.6721954-0.7108727-6.9846611-0.7108727-6.9846611L38.2183838,45.55019
				C38.0693893,45.4877052,37.8990479,45.5677795,37.8520966,45.722374z"/>
			<path style="fill:#171C61;" d="M31.5688477,65.5488281l6.0444336-19.8984375
				c0.0878906-0.2890625,0.4208984-0.4511719,0.7021484-0.3310547l3.2988281,1.3837891l0.0361328,0.1064453
				c0.046875,0.1376953,1.1445313,3.4082031,0.7226563,7.09375l-0.0234375,0.2080078l-3.5400391,0.2275391l2.5273438,3.3613281
				l-0.1191406,0.1513672C38.5234375,61.25,32.390625,65.0429688,32.1308594,65.203125L31.5688477,65.5488281z
				 M38.1220703,45.7802734l-5.6860352,18.6367188c1.5795898-1.0205078,6.0541992-4.0273438,8.269043-6.7265625
				l-2.8505859-3.7910156l4.0439453-0.2607422c0.3085938-3.1298828-0.5087891-5.9863281-0.6875-6.5625L38.1220703,45.7802734z"/>
		</g>
		<g>
			<linearGradient id="SVGID_7_" gradientUnits="userSpaceOnUse" x1="37.1093063" y1="45.5288696" x2="37.1093063" y2="64.9901199">
				<stop  offset="0.4" style="stop-color:#FFFFFF"/>
				<stop  offset="1" style="stop-color:#B5B5B6"/>
			</linearGradient>
			<path style="fill:url(#SVGID_7_);" d="M41.4141235,46.8903198l-1.2091675-0.5070801
				c0.3305054,1.1870117,0.9151001,3.7883301,0.6057129,6.4917603l-4.5189819,0.25l3.0948486,4.3493042
				c-1.7263184,2.1777344-4.8388672,4.4365845-6.8606567,5.7843628L32,64.9901123c0,0,6.3242798-3.8905029,9.0218506-7.293396
				l-2.6897583-3.5776978L42.125,53.875C42.5452881,50.2028198,41.4141235,46.8903198,41.4141235,46.8903198z"/>
			<path style="fill:#231815;" d="M31.5688477,65.5488281L32.3125,63.1005859l0.074707-0.0498047
				c2.1352539-1.4228516,5.0043945-3.5332031,6.6860352-5.5859375l-3.2480469-4.5644531l4.7587891-0.2636719
				c0.2490234-2.5400391-0.2773438-4.9550781-0.6201172-6.1865234l-0.1376953-0.4980469l1.7880859,0.7509766l0.0361328,0.1064453
				c0.046875,0.1376953,1.1445313,3.4082031,0.7226563,7.09375l-0.0234375,0.2080078l-3.5400391,0.2275391l2.5273438,3.3613281
				l-0.1191406,0.1513672C38.5234375,61.25,32.390625,65.0429688,32.1308594,65.203125L31.5688477,65.5488281z
				 M32.7392578,63.4169922l-0.3041992,1.0009766c1.5786133-1.0195313,6.0541992-4.0273438,8.2700195-6.7275391
				l-2.8505859-3.7910156l4.0439453-0.2607422c0.3085938-3.1298828-0.5087891-5.9863281-0.6875-6.5625l-0.6347656-0.2666016
				c0.3476563,1.3994141,0.7568359,3.7021484,0.4824219,6.09375l-0.0234375,0.2099609l-4.2763672,0.2363281l2.9404297,4.1328125
				l-0.1162109,0.1474609C37.8984375,59.7548828,34.9472656,61.9404297,32.7392578,63.4169922z"/>
		</g>
	</g>
	<g>
		<g>
			
				<linearGradient id="SVGID_8_" gradientUnits="userSpaceOnUse" x1="49.6729736" y1="52.0501099" x2="49.6729736" y2="65.3651123" gradientTransform="matrix(-1 0 0 1 64 0)">
				<stop  offset="0.4" style="stop-color:#036EB8"/>
				<stop  offset="1" style="stop-color:#172A88"/>
			</linearGradient>
			<path style="fill:url(#SVGID_8_);" d="M11.8942261,56.2805786c0-1.7922363,0.4518433-3.1530151,1.1976318-4.2304688
				C14.3005371,54.4495239,15.824585,56.9834595,17.375,58.25l0.5082397,7.1151123H10.770813L11.8942261,56.2805786z"/>
			<path style="fill:#171C61;" d="M18.1518555,65.6152344h-7.6635742L11.6459961,56.25
				c-0.0019531-1.703125,0.4042969-3.1337891,1.2402344-4.3427734l0.2392578-0.3457031L13.3149414,51.9375
				c1.519043,3.0146484,2.9379883,5.0732422,4.2182617,6.1191406L17.6166992,58.125L18.1518555,65.6152344z M11.0537109,65.1152344
				h6.5610352l-0.4814453-6.7412109c-1.2548828-1.0605469-2.621582-3.0175781-4.0664063-5.8222656
				c-0.6206055,1.0458984-0.9228516,2.2705078-0.9228516,3.7285156L11.0537109,65.1152344z"/>
		</g>
		<g>
			
				<linearGradient id="SVGID_9_" gradientUnits="userSpaceOnUse" x1="40.8106995" y1="49.2807007" x2="40.8106995" y2="65.3651123" gradientTransform="matrix(-1 0 0 1 64 0)">
				<stop  offset="0.4" style="stop-color:#3E3A39"/>
				<stop  offset="1" style="stop-color:#231815"/>
			</linearGradient>
			<path style="fill:url(#SVGID_9_);" d="M24.6134644,49.2807007c0.3202515,0.2639771,0.5501099,0.4502563,0.5501099,0.4502563
				L32,65.3651123H17.8832397L17.375,58.25c-1.0406494-0.8500977-2.0668945-2.2744751-2.9963989-3.8426514
				C15.3758545,52.9616699,17.9542847,50.8552246,24.6134644,49.2807007z"/>
			<path style="fill:#261D19;" d="M32.3823242,65.6152344H17.6503906l-0.5170898-7.2412109
				c-0.9248047-0.7832031-1.9233398-2.0742188-2.9697266-3.8388672l-0.0820313-0.1376953l0.0913086-0.1318359
				c1.0429688-1.5117188,3.690918-3.6455078,10.3828125-5.2285156l0.1210938-0.0283203l0.0957031,0.0791016
				c0.3188477,0.2626953,0.5473633,0.4472656,0.5478516,0.4482422l0.0722656,0.09375L32.3823242,65.6152344z M18.1162109,65.1152344
				h13.5014648l-6.6586914-15.2285156c-0.0717773-0.0585938-0.2197266-0.1787109-0.4086914-0.3339844
				c-6.2558594,1.4960938-8.8242188,3.4453125-9.8735352,4.8671875c1.0175781,1.6953125,1.9780273,2.9179688,2.8564453,3.6367188
				L17.6166992,58.125L18.1162109,65.1152344z"/>
		</g>
		<g>
			
				<linearGradient id="SVGID_10_" gradientUnits="userSpaceOnUse" x1="43.5853882" y1="49.2807007" x2="43.5853882" y2="65.3651123" gradientTransform="matrix(-1 0 0 1 64 0)">
				<stop  offset="0" style="stop-color:#FFFFFF"/>
				<stop  offset="1" style="stop-color:#C9CACA"/>
			</linearGradient>
			<polygon style="fill:url(#SVGID_10_);" points="23.4542236,65.3651123 22.166687,65.3651123 21.541687,62.041626 
				17.4975586,59.9659424 17.375,58.25 22.6875,61.3125 			"/>
			<path style="fill:#261D19;" d="M23.7558594,65.6152344h-1.796875l-0.640625-3.4072266l-4.0600586-2.0839844l-0.1660156-2.3251953
				l5.8193359,3.3544922L23.7558594,65.6152344z M22.3740234,65.1152344h0.7783203l-0.6889648-3.6435547l-4.8056641-2.7705078
				l0.0791016,1.1064453l4.027832,2.0683594L22.3740234,65.1152344z"/>
		</g>
		<g>
			
				<linearGradient id="SVGID_11_" gradientUnits="userSpaceOnUse" x1="45.1473389" y1="47.427063" x2="45.1473389" y2="65.3651123" gradientTransform="matrix(-1 0 0 1 64 0)">
				<stop  offset="0" style="stop-color:#F7F8F8"/>
				<stop  offset="1" style="stop-color:#F7F8F8"/>
			</linearGradient>
			<path style="fill:url(#SVGID_11_);" d="M22.5507813,47.427063c-0.0238647,0.1139526,1.2896118,1.2162476,2.0626831,1.8536377
				c-6.6591797,1.5745239-9.2376099,3.6809692-10.2348633,5.1266479c-0.4553223-0.7681885-0.8893433-1.5682983-1.2867432-2.3572388
				C15.0031738,49.2885742,18.90802,48.4487915,22.5507813,47.427063z"/>
			<path style="fill:#261D19;" d="M14.3623047,54.8710938l-0.1992188-0.3369141
				c-0.4433594-0.7490234-0.8789063-1.546875-1.2944336-2.3720703l-0.0668945-0.1328125l0.0844727-0.1220703
				c1.7841797-2.5771484,5.2333984-3.5224609,8.5688477-4.4375c0.34375-0.09375,0.6870117-0.1875,1.0283203-0.2832031
				l0.3964844-0.1113281l-0.0639648,0.3056641c0.159668,0.1787109,0.7397461,0.7041016,1.956543,1.7060547l0.3886719,0.3203125
				l-0.4902344,0.1162109c-6.5371094,1.546875-9.0932617,3.5869141-10.0869141,5.0253906L14.3623047,54.8710938z
				 M13.3828125,52.0712891c0.3300781,0.6494141,0.6723633,1.28125,1.0205078,1.8837891
				c1.1523438-1.4443359,3.7641602-3.3378906,9.6660156-4.8007813c-0.9736328-0.8085938-1.4199219-1.2128906-1.6196289-1.4394531
				c-0.2866211,0.0800781-0.5742188,0.1582031-0.8623047,0.2373047
				C18.3920898,48.828125,15.090332,49.7333984,13.3828125,52.0712891z"/>
		</g>
	</g>
	<g>
		<g>
			
				<linearGradient id="SVGID_12_" gradientUnits="userSpaceOnUse" x1="37.1093025" y1="45.5288696" x2="37.1093025" y2="64.9901199" gradientTransform="matrix(-1 0 0 1 64 0)">
				<stop  offset="0.4" style="stop-color:#036EB8"/>
				<stop  offset="1" style="stop-color:#172A88"/>
			</linearGradient>
			<path style="fill:url(#SVGID_12_);" d="M26.1479053,45.722374L32,64.9901199c0,0-6.3242931-3.8904686-9.0218716-7.2933998
				l2.6897507-3.5776749L21.875,53.875c-0.4202728-3.6721954,0.7108727-6.9846611,0.7108727-6.9846611l3.1957417-1.3401489
				C25.9306107,45.4877052,26.1009502,45.5677795,26.1479053,45.722374z"/>
			<path style="fill:#171C61;" d="M32.4311523,65.5488281l-0.5620117-0.3457031
				c-0.2597656-0.1601563-6.3930664-3.953125-9.0869141-7.3515625l-0.1201172-0.1513672l2.527832-3.3613281l-3.5395508-0.2275391
				l-0.0239258-0.2080078c-0.421875-3.6855469,0.6757813-6.9560547,0.7226563-7.09375l0.0366211-0.1064453l3.2993164-1.3837891
				c0.2802734-0.1171875,0.6152344,0.0410156,0.7021484,0.3310547L32.4311523,65.5488281z M23.2949219,57.6904297
				c2.2158203,2.7001953,6.6914063,5.7080078,8.2700195,6.7275391l-5.65625-18.6230469l-3.1201172,1.2832031
				c-0.1796875,0.578125-0.9960938,3.4326172-0.6875,6.5605469l4.0449219,0.2607422L23.2949219,57.6904297z"/>
		</g>
		<g>
			
				<linearGradient id="SVGID_13_" gradientUnits="userSpaceOnUse" x1="37.1093063" y1="45.5288696" x2="37.1093063" y2="64.9901199" gradientTransform="matrix(-1 0 0 1 64 0)">
				<stop  offset="0.4" style="stop-color:#FFFFFF"/>
				<stop  offset="1" style="stop-color:#B5B5B6"/>
			</linearGradient>
			<path style="fill:url(#SVGID_13_);" d="M22.5858765,46.8903198l1.2091675-0.5070801
				c-0.3305054,1.1870117-0.9151001,3.7883301-0.6057129,6.4917603l4.5189819,0.25l-3.0948486,4.3493042
				c1.7263184,2.1777344,4.8388672,4.4365845,6.8606567,5.7843628L32,64.9901123c0,0-6.3242798-3.8905029-9.0218506-7.293396
				l2.6897583-3.5776978L21.875,53.875C21.4547119,50.2028198,22.5858765,46.8903198,22.5858765,46.8903198z"/>
			<path style="fill:#231815;" d="M32.4311523,65.5488281l-0.5620117-0.3457031
				c-0.2597656-0.1601563-6.3930664-3.953125-9.0869141-7.3515625l-0.1201172-0.1513672l2.527832-3.3613281l-3.5395508-0.2275391
				l-0.0239258-0.2080078c-0.421875-3.6855469,0.6757813-6.9560547,0.7226563-7.09375l0.0366211-0.1064453l1.7885742-0.7509766
				l-0.1386719,0.4980469c-0.3427734,1.2304688-0.8686523,3.6435547-0.6201172,6.1865234l4.7597656,0.2636719l-3.2485352,4.5644531
				c1.6821289,2.0527344,4.5507813,4.1630859,6.6860352,5.5859375l0.074707,0.0498047L32.4311523,65.5488281z
				 M23.2949219,57.6904297c2.2158203,2.7001953,6.6914063,5.7080078,8.2700195,6.7275391l-0.3041992-1.0009766
				c-2.2080078-1.4765625-5.1586914-3.6621094-6.8432617-5.7871094l-0.1166992-0.1474609l2.940918-4.1328125l-4.2768555-0.2363281
				l-0.0239258-0.2099609c-0.2739258-2.3945313,0.1347656-4.6953125,0.4829102-6.09375l-0.6347656,0.2666016
				c-0.1791992,0.5761719-0.9970703,3.4326172-0.6879883,6.5625l4.0449219,0.2607422L23.2949219,57.6904297z"/>
		</g>
	</g>
</g>
<g>
	<g>
		
			<linearGradient id="SVGID_14_" gradientUnits="userSpaceOnUse" x1="39.1894569" y1="29.2853794" x2="39.1894569" y2="34.3719749" gradientTransform="matrix(0.9831004 0.1830671 -0.1830671 0.9831004 6.36237 -6.6163673)">
			<stop  offset="0" style="stop-color:#2EA7E0"/>
			<stop  offset="1" style="stop-color:#036EB8"/>
		</linearGradient>
		<polygon style="fill:url(#SVGID_14_);" points="40.258152,32.7897835 41.8016548,31.7480297 40.0421524,31.138279 
			39.5283508,29.348402 38.4047279,30.8333683 36.5436821,30.7689209 37.6087532,32.2964287 36.9723511,34.0464745 
			38.7542305,33.5055656 40.2219734,34.6515999 		"/>
		<path style="fill:#F7F8F8;" d="M40.4619141,35.15625l-1.7597656-1.3730469l-2.1347656,0.6484375l0.7617188-2.0986328
			l-1.2763672-1.8310547l2.2304688,0.0771484l1.3476563-1.7797852l0.6152344,2.1450195l2.1103516,0.7314453l-1.8515625,1.2485352
			L40.4619141,35.15625z M38.8056641,33.2285156l1.1757813,0.9179688l0.0292969-1.4916992l1.2363281-0.8344727l-1.4091797-0.4882813
			l-0.4121094-1.434082l-0.9003906,1.1899414l-1.4902344-0.0517578l0.8525391,1.2236328l-0.5097656,1.4023438L38.8056641,33.2285156
			z"/>
	</g>
</g>
<g>
	<g>
		<g>
			
				<linearGradient id="SVGID_15_" gradientUnits="userSpaceOnUse" x1="16.4246216" y1="57.8261795" x2="18.3253784" y2="57.8261795">
				<stop  offset="0" style="stop-color:#231815"/>
				<stop  offset="0.3" style="stop-color:#3E3A39"/>
				<stop  offset="1" style="stop-color:#231815"/>
			</linearGradient>
			<rect x="16.4246216" y="50.2872467" style="fill:url(#SVGID_15_);" width="1.9007554" height="15.0778666"/>
			<path style="fill:#231815;" d="M18.5751953,65.6152344h-2.4003906v-15.578125h2.4003906V65.6152344z M16.6748047,65.1152344
				h1.4003906v-14.578125h-1.4003906V65.1152344z"/>
		</g>
		<ellipse style="fill:#231815;" cx="17.3935547" cy="50.121582" rx="1.2187501" ry="1.0913086"/>
	</g>
	<g>
		<g>
			
				<linearGradient id="SVGID_16_" gradientUnits="userSpaceOnUse" x1="28.8488274" y1="23.0416603" x2="34.4115486" y2="23.0416603" gradientTransform="matrix(0.660349 0.7509588 -0.7509588 0.660349 20.2861042 2.1270244)">
				<stop  offset="0" style="stop-color:#3E3A39"/>
				<stop  offset="0.1" style="stop-color:#727171"/>
				<stop  offset="0.3" style="stop-color:#727171"/>
				<stop  offset="1" style="stop-color:#231815"/>
			</linearGradient>
			<path style="fill:url(#SVGID_16_);" d="M26.4805908,38.7996941c-1.0101738-1.1487846-2.7765713-1.2621918-3.9253559-0.252018
				l-1.0443439,0.918335c-1.1487846,1.0101738-1.2621918,2.7765732-0.252018,3.9253578s2.7765713,1.2621918,3.9253559,0.252018
				l1.0443439-0.918335C27.3773575,41.7148781,27.4907646,39.9484787,26.4805908,38.7996941z"/>
			<path style="fill:#231815;" d="M23.3505859,44.5830078c-0.0004883,0-0.0004883,0-0.0004883,0
				c-0.875,0-1.7055664-0.3740234-2.2788086-1.0263672c-1.1035156-1.2548828-0.9799805-3.1748047,0.2744141-4.2783203
				l1.0444336-0.9179688c0.5507813-0.4853516,1.2607422-0.7519531,1.9985352-0.7519531
				c0.875,0,1.7055664,0.3740234,2.2792969,1.0263672c0.5327148,0.6054688,0.7978516,1.3847656,0.7456055,2.1953125
				c-0.0517578,0.8105469-0.4140625,1.5498047-1.0200195,2.0820313l-1.0444336,0.9189453
				C24.7983398,44.3154297,24.0883789,44.5830078,23.3505859,44.5830078z M24.3886719,38.1083984
				c-0.6162109,0-1.2084961,0.2226563-1.668457,0.6269531l-1.0444336,0.9179688
				c-1.0473633,0.921875-1.1503906,2.5253906-0.2290039,3.5732422c0.4785156,0.5439453,1.1723633,0.8564453,1.9033203,0.8564453
				h0.0004883c0.6162109,0,1.2084961-0.2226563,1.668457-0.6269531l1.0444336-0.9189453
				c0.5053711-0.4443359,0.8076172-1.0615234,0.8510742-1.7392578c0.043457-0.6767578-0.1772461-1.3271484-0.621582-1.8330078
				C25.8139648,38.4208984,25.1201172,38.1083984,24.3886719,38.1083984z"/>
		</g>
		<g>
			
				<linearGradient id="SVGID_17_" gradientUnits="userSpaceOnUse" x1="28.8488274" y1="24.5584946" x2="34.4115486" y2="24.5584946" gradientTransform="matrix(0.660349 0.7509588 -0.7509588 0.660349 20.2861042 2.1270244)">
				<stop  offset="0" style="stop-color:#3E3A39"/>
				<stop  offset="0.1193416" style="stop-color:#595757"/>
				<stop  offset="0.6" style="stop-color:#2C2320"/>
				<stop  offset="1" style="stop-color:#231815"/>
			</linearGradient>
			<path style="fill:url(#SVGID_17_);" d="M23.6521606,41.28685c-1.0143776-1.1535645-2.3042145-1.6775551-2.881012-1.1703529
				l-0.7986774,0.7023087l3.6733379,4.1773758l0.7986755-0.7023087
				C25.0212841,43.7866707,24.6665382,42.4404144,23.6521606,41.28685z"/>
			<path style="fill:#231815;" d="M23.6235352,45.3486328l-4.0039063-4.5527344l0.9863281-0.8671875
				c0.6782227-0.5986328,2.1420898-0.0488281,3.234375,1.1933594c0.515625,0.5859375,0.887207,1.2421875,1.0463867,1.8476563
				c0.175293,0.6640625,0.0766602,1.2011719-0.2773438,1.5117188L23.6235352,45.3486328z M20.3256836,40.8408203
				l3.3427734,3.8027344l0.6108398-0.5371094c0.2011719-0.1767578,0.246582-0.5449219,0.1240234-1.0097656
				c-0.1401367-0.53125-0.4731445-1.1152344-0.9384766-1.6445313c-0.6728516-0.765625-1.5244141-1.2792969-2.1191406-1.2792969
				c-0.1728516,0-0.3105469,0.0439453-0.409668,0.1308594L20.3256836,40.8408203z"/>
		</g>
		<g>
			
				<linearGradient id="SVGID_18_" gradientUnits="userSpaceOnUse" x1="28.8488274" y1="25.9944954" x2="34.4115486" y2="25.9944954" gradientTransform="matrix(0.660349 0.7509588 -0.7509588 0.660349 20.2861042 2.1270244)">
				<stop  offset="0" style="stop-color:#3E3A39"/>
				<stop  offset="0.1193416" style="stop-color:#595757"/>
				<stop  offset="0.6" style="stop-color:#2C2320"/>
				<stop  offset="1" style="stop-color:#231815"/>
			</linearGradient>
			<path style="fill:url(#SVGID_18_);" d="M23.4889431,45.1341209c-0.5767765,0.5071831-1.8666496-0.0168037-2.8810139-1.1703529
				s-1.3690987-2.4998398-0.7923241-3.0070229c0.5767746-0.5071793,1.8666477,0.0168037,2.881012,1.1703529
				C23.7109814,43.2806511,24.0657177,44.6269379,23.4889431,45.1341209z"/>
			<path style="fill:#231815;" d="M22.9140625,45.578125c-0.7524414,0-1.7080078-0.5556641-2.4936523-1.4492188
				c-0.515625-0.5859375-0.8876953-1.2421875-1.046875-1.8466797c-0.175293-0.6650391-0.0766602-1.2021484,0.2768555-1.5126953
				c0.6787109-0.5976563,2.1411133-0.0488281,3.2338867,1.1923828c0.5161133,0.5859375,0.8876953,1.2421875,1.046875,1.8476563
				c0.175293,0.6640625,0.0766602,1.2011719-0.2773438,1.5117188C23.4638672,45.4892578,23.2080078,45.578125,22.9140625,45.578125z
				 M20.3901367,41.0126953c-0.1723633,0-0.3105469,0.0449219-0.409668,0.1318359
				c-0.2011719,0.1767578-0.2460938,0.5449219-0.1235352,1.0097656c0.1401367,0.53125,0.4731445,1.1152344,0.9384766,1.6445313
				c0.6728516,0.7646484,1.5244141,1.2792969,2.1186523,1.2792969c0.1728516,0,0.3105469-0.0449219,0.409668-0.1318359
				c0.2011719-0.1767578,0.246582-0.5449219,0.1240234-1.0097656c-0.1401367-0.53125-0.4731445-1.1152344-0.9384766-1.6445313
				C21.8359375,41.5273438,20.9848633,41.0126953,20.3901367,41.0126953z"/>
		</g>
		<g>
			
				<linearGradient id="SVGID_19_" gradientUnits="userSpaceOnUse" x1="29.138567" y1="32.1149597" x2="34.1218109" y2="32.1149597" gradientTransform="matrix(0.660349 0.7509588 -0.7509588 0.660349 20.2861042 2.1270244)">
				<stop  offset="0" style="stop-color:#3E3A39"/>
				<stop  offset="0.1193416" style="stop-color:#595757"/>
				<stop  offset="0.6" style="stop-color:#2C2320"/>
				<stop  offset="1" style="stop-color:#231815"/>
			</linearGradient>
			<path style="fill:url(#SVGID_19_);" d="M12.1088591,51.4373512c0.4701529,0.5346642,0.6393738,1.1532745,0.3953114,1.4090309
				l10.6846571-7.8341827c0.5166893-0.4543457,0.1989231-1.660408-0.7097702-2.6937904
				c-0.9086952-1.0333786-2.0642185-1.5027657-2.5809097-1.04842l-9.1362,9.5951118
				C11.046814,50.6557503,11.6387062,50.9026871,12.1088591,51.4373512z"/>
			<path style="fill:#231815;" d="M12.6523438,53.0478516l-0.3291016-0.3740234
				c0.1147461-0.1201172,0.0151367-0.5976563-0.4018555-1.0712891c-0.3393555-0.3857422-0.7080078-0.5615234-0.9067383-0.5615234
				c-0.0317383,0-0.0756836,0.0039063-0.1044922,0.0253906l-0.3295898-0.3740234l9.1362305-9.5957031
				c0.675293-0.5957031,1.9599609-0.0683594,2.949707,1.0566406c0.4648438,0.5283203,0.7998047,1.1191406,0.9438477,1.6650391
				c0.1591797,0.6054688,0.0683594,1.0957031-0.2563477,1.3808594L12.6523438,53.0478516z M11.3574219,50.6015625
				c0.3139648,0.1064453,0.6518555,0.34375,0.9394531,0.6708984c0.2963867,0.3369141,0.4829102,0.6972656,0.5454102,1.0166016
				l10.1987305-7.4785156c0.1552734-0.1386719,0.1928711-0.4580078,0.0859375-0.8642578
				c-0.1245117-0.4726563-0.4213867-0.9921875-0.8354492-1.4628906c-0.5986328-0.6796875-1.3535156-1.1367188-1.8789063-1.1367188
				c-0.1484375,0-0.265625,0.0371094-0.3496094,0.1103516L11.3574219,50.6015625z"/>
		</g>
		<g>
			<path style="fill:#231815;" d="M12.1088591,51.4373512c-0.4701529-0.5346642-1.0620451-0.781601-1.3469114-0.5722504
				l-0.0715523,0.0751266c-0.1986456,0.2743683-0.0260983,0.860836,0.4234562,1.3720741
				c0.4495544,0.5112419,1.009141,0.75737,1.3066607,0.5954399l0.0836582-0.0613594
				C12.7482328,52.5906258,12.5790119,51.9720154,12.1088591,51.4373512z"/>
			<path style="fill:#231815;" d="M12.2075195,53.2070313L12.2075195,53.2070313c-0.394043,0-0.8852539-0.2792969-1.28125-0.7294922
				c-0.5351563-0.6083984-0.715332-1.3007813-0.4384766-1.6835938l0.0922852-0.1005859
				c0.1430664-0.1103516,0.2817383-0.1523438,0.4345703-0.1523438c0.394043,0,0.8852539,0.2802734,1.2822266,0.7314453
				c0.5708008,0.6484375,0.734375,1.3837891,0.3886719,1.7470703l-0.1171875,0.0908203
				C12.4423828,53.1806641,12.3310547,53.2070313,12.2075195,53.2070313z M11.0146484,51.0410156
				c-0.0317383,0-0.0756836,0.0039063-0.1044922,0.0253906l-0.0380859,0.0458984
				c-0.0756836,0.1083984,0.0141602,0.5625,0.4296875,1.0351563c0.3383789,0.3847656,0.706543,0.5595703,0.9057617,0.5595703l0,0
				c0.0385742,0,0.0712891-0.0058594,0.09375-0.0185547l0.0551758-0.0439453
				c0.081543-0.0908203-0.0180664-0.5683594-0.4350586-1.0419922
				C11.5820313,51.2167969,11.2133789,51.0410156,11.0146484,51.0410156z"/>
		</g>
	</g>
	<g>
		<g>
			
				<linearGradient id="SVGID_20_" gradientUnits="userSpaceOnUse" x1="29.2464333" y1="31.8037758" x2="34.0139427" y2="31.8037758" gradientTransform="matrix(0.660349 0.7509588 -0.7509588 0.660349 20.2861042 2.1270244)">
				<stop  offset="0" style="stop-color:#3E3A39"/>
				<stop  offset="0.1193416" style="stop-color:#595757"/>
				<stop  offset="0.6" style="stop-color:#2C2320"/>
				<stop  offset="1" style="stop-color:#231815"/>
			</linearGradient>
			<path style="fill:url(#SVGID_20_);" d="M18.1847935,46.094532c-0.8693676-0.9886589-1.9748173-1.4377441-2.469161-1.0030479
				l-0.895051,0.787056l2.2354755,1.2085342l0.9127445,2.3716698l0.895052-0.787056
				C19.3581963,48.2369919,19.054163,47.0831909,18.1847935,46.094532z"/>
			<path style="fill:#231815;" d="M17.8642578,49.8837891l-1.0083008-2.6210938l-2.4697266-1.3349609l1.1645508-1.0234375
				c0.597168-0.5244141,1.871582-0.0566406,2.8217773,1.0253906c0.4453125,0.5068359,0.7670898,1.0742188,0.9047852,1.5976563
				c0.1538086,0.5830078,0.0654297,1.0566406-0.2485352,1.3320313L17.8642578,49.8837891z M15.2553711,45.8300781
				l2.0009766,1.0810547l0.8168945,2.1230469l0.6254883-0.5498047c0.1621094-0.1425781,0.1967773-0.4453125,0.0952148-0.8300781
				c-0.1186523-0.4492188-0.4018555-0.9453125-0.796875-1.3945313c-0.5698242-0.6484375-1.2885742-1.0839844-1.7885742-1.0839844
				c-0.1391602,0-0.2495117,0.0351563-0.3276367,0.1035156L15.2553711,45.8300781z"/>
		</g>
		<g>
			
				<linearGradient id="SVGID_21_" gradientUnits="userSpaceOnUse" x1="29.2464504" y1="32.9674187" x2="34.0139275" y2="32.9674187" gradientTransform="matrix(0.660349 0.7509588 -0.7509588 0.660349 20.2861042 2.1270244)">
				<stop  offset="0" style="stop-color:#3E3A39"/>
				<stop  offset="0.1193416" style="stop-color:#595757"/>
				<stop  offset="0.6" style="stop-color:#2C2320"/>
				<stop  offset="1" style="stop-color:#231815"/>
			</linearGradient>
			<path style="fill:url(#SVGID_21_);" d="M17.1380291,47.0150261c-0.8693657-0.9886589-1.9748554-1.4377174-2.4691677-1.0030518
				c-0.2081203,0.1830101-0.2671194,0.4971581-0.2095957,0.8691025c0.1155386-0.1047554,0.2240849-0.2048569,0.3544035-0.3194504
				c0.3889065-0.3419838,1.258585,0.0113297,1.9425488,0.7891426c0.6839333,0.7777786,0.92313,1.6854973,0.5342236,2.0274773
				c-0.1303196,0.1145973-0.2434139,0.2094536-0.3621216,0.3106766c0.3615055,0.1045837,0.6806202,0.0862427,0.8887405-0.0967674
				C18.3113728,49.157486,18.0073662,48.0036469,17.1380291,47.0150261z"/>
			<path style="fill:#231815;" d="M17.3364258,50.0029297c-0.1479492,0-0.3085938-0.0253906-0.4780273-0.0742188
				l-0.4462891-0.1298828l0.418457-0.3554688c0.0947266-0.0800781,0.1889648-0.1591797,0.2944336-0.2529297
				c0.2436523-0.2138672,0.0576172-0.9755859-0.5566406-1.6748047c-0.6611328-0.7509766-1.3686523-0.9589844-1.5898438-0.7666016
				l-0.6948242,0.6289063l-0.0712891-0.4589844c-0.0942383-0.609375,0.1064453-0.9316406,0.2910156-1.0947266
				c0.5976563-0.5253906,1.871582-0.0556641,2.8222656,1.0253906c0.9750977,1.109375,1.2631836,2.3964844,0.65625,2.9296875
				C17.8139648,49.9277344,17.5966797,50.0029297,17.3364258,50.0029297z M15.2006836,46.1816406
				c0.5302734,0,1.1982422,0.3847656,1.7431641,1.0039063c0.7451172,0.8486328,0.9868164,1.7949219,0.6054688,2.28125
				c0.0390625-0.015625,0.0732422-0.0371094,0.1020508-0.0625c0.1625977-0.1425781,0.1972656-0.4443359,0.0957031-0.8291016
				c-0.1181641-0.4501953-0.4013672-0.9453125-0.796875-1.3955078c-0.5703125-0.6484375-1.2890625-1.0839844-1.7890625-1.0839844
				c-0.1391602,0-0.2490234,0.0351563-0.3271484,0.1035156c-0.0302734,0.0273438-0.0551758,0.0585938-0.074707,0.0947266
				C14.8847656,46.2197266,15.0351563,46.1816406,15.2006836,46.1816406z"/>
		</g>
	</g>
</g>
<g>
	<linearGradient id="SVGID_22_" gradientUnits="userSpaceOnUse" x1="27.9237537" y1="8.0625" x2="27.9237537" y2="24.0650902">
		<stop  offset="0.4" style="stop-color:#7A90D9"/>
		<stop  offset="1" style="stop-color:#184BD9"/>
	</linearGradient>
	<path style="fill:url(#SVGID_22_);" d="M35.6022873,8.0625c0,0-2.1439552,5.1875-7.0189533,7.729167
		c-1.8379574,0.958251-6.8019466,3.708333-8.3301983,8.2734232c0,0-0.4489212-7.3603783,5.4157867-9.4871473
		C30.25,12.916667,35.6022873,8.0625,35.6022873,8.0625z"/>
	<path style="fill:#6376B1;" d="M20.081543,25.3637695l-0.078125-1.2836914
		c-0.0043945-0.0751953-0.3911133-7.5717773,5.5800781-9.7368164c4.4833984-1.6259766,9.7983398-6.4179688,9.8510742-6.4658203
		l0.8242188-0.7470703l-0.4248047,1.027832c-0.0898438,0.2148438-2.2363281,5.3007813-7.1347656,7.8549805
		c-5.4941406,2.8652344-7.496582,6.003418-8.2089844,8.1313477L20.081543,25.3637695z M34.8232422,9.0629883
		c-1.7539063,1.465332-5.6401367,4.5063477-9.0688477,5.75c-4.1264648,1.4960938-5.0268555,5.7397461-5.2124023,7.9155273
		c1.0532227-2.09375,3.2753906-4.7333984,7.9257813-7.1586914C31.8540039,13.8046875,33.9150391,10.706543,34.8232422,9.0629883z"/>
</g>
<g>
	<linearGradient id="SVGID_23_" gradientUnits="userSpaceOnUse" x1="34.9804382" y1="8.0625" x2="34.9804382" y2="24.7537689">
		<stop  offset="0.4" style="stop-color:#7A90D9"/>
		<stop  offset="1" style="stop-color:#184BD9"/>
	</linearGradient>
	<path style="fill:url(#SVGID_23_);" d="M40.4502678,8.0625c0,0-2.9502678,7.7457943-11.3103676,16.6912689
		C29.1399002,24.7537689,43.2637024,19.2830124,40.4502678,8.0625z"/>
	<path style="fill:#6376B1;" d="M28.2109375,25.3818359l0.746582-0.7988281
		C37.1884766,15.7753906,40.1875,8.050293,40.2167969,7.9736328l0.2822266-0.7426758l0.1933594,0.7705078
		c2.8349609,11.3041992-11.3188477,16.9301758-11.4619141,16.9853516L28.2109375,25.3818359z M40.3730469,8.8828125
		c-0.9179688,2.0576172-3.9560547,8.1992188-10.2250977,15.1430664
		C33.2861328,22.5009766,41.9609375,17.4511719,40.3730469,8.8828125z"/>
</g>
</svg>
