<?xml version="1.0" encoding="utf-8"?>
<!-- Generator: Adobe Illustrator 18.0.0, SVG Export Plug-In . SVG Version: 6.00 Build 0)  -->
<!DOCTYPE svg PUBLIC "-//W3C//DTD SVG 1.1//EN" "http://www.w3.org/Graphics/SVG/1.1/DTD/svg11.dtd">
<svg version="1.1" id="レイヤー_1" xmlns="http://www.w3.org/2000/svg" xmlns:xlink="http://www.w3.org/1999/xlink" x="0px"
	 y="0px" width="64px" height="64px" viewBox="0 0 64 64" style="enable-background:new 0 0 64 64;" xml:space="preserve">
<g>
	<g>
		<radialGradient id="SVGID_1_" cx="32" cy="16.3732662" r="17.2665234" gradientUnits="userSpaceOnUse">
			<stop  offset="0.1687243" style="stop-color:#604C3F"/>
			<stop  offset="1" style="stop-color:#261D18"/>
		</radialGradient>
		<path style="fill:url(#SVGID_1_);" d="M56,13c0,1.6568546-11.3685837,7.875-24,7.875S8,14.6568546,8,13s10.7451668-1,24-1
			S56,11.3431454,56,13z"/>
		<path style="fill:#1A1411;" d="M32,21.125c-12.7861328,0-24.25-6.2504883-24.25-8.125
			c0-1.0307617,2.2333984-1.378418,8.8500977-1.378418c1.9077148,0,4.0668945,0.0268555,6.409668,0.0561523
			C25.7338867,11.7114258,28.8212891,11.75,32,11.75s6.265625-0.0385742,8.9902344-0.0722656
			c2.3427734-0.0292969,4.5019531-0.0561523,6.4101563-0.0561523C54.0166016,11.621582,56.25,11.9692383,56.25,13
			C56.25,14.8745117,44.7861328,21.125,32,21.125z M16.6000977,12.121582C14.534668,12.121582,8.25,12.121582,8.25,13
			c0,1.4038086,11.2529297,7.625,23.75,7.625S55.75,14.4038086,55.75,13c0-0.878418-6.2851563-0.878418-8.3496094-0.878418
			c-1.90625,0-4.0634766,0.0268555-6.4042969,0.0561523C38.2705078,12.2114258,35.1816406,12.25,32,12.25
			c-3.1821289,0-6.2709961-0.0385742-8.996582-0.0722656C20.6630859,12.1484375,18.5058594,12.121582,16.6000977,12.121582z"/>
	</g>
	<g>
		<radialGradient id="SVGID_2_" cx="31.985342" cy="8.28125" r="12.612607" gradientUnits="userSpaceOnUse">
			<stop  offset="0.1687243" style="stop-color:#604C3F"/>
			<stop  offset="1" style="stop-color:#261D18"/>
		</radialGradient>
		<path style="fill:url(#SVGID_2_);" d="M37.2627563,0.8125C34.4936218,0.8125,33.7083321,1.5833334,32,1.5833334
			c-1.708334,0-2.4936237-0.7708334-5.2627563-0.7708334c-6.6377563,0-10.9498482,13.0384521-10.9498482,13.0384521
			S15.833333,15.75,32,15.75s16.1832886-1.8990479,16.1832886-1.8990479S43.9005127,0.8125,37.2627563,0.8125z"/>
		<path style="fill:#1A1411;" d="M32,16c-12.0996094,0-16.4375-1.1069336-16.4624023-2.1430664l-0.0009766-0.0429688
			l0.0136719-0.0415039C15.7285156,13.2333984,19.996582,0.5625,26.7373047,0.5625
			c1.5830078,0,2.5268555,0.2456055,3.359375,0.4628906C30.7319336,1.1904297,31.2802734,1.3334961,32,1.3334961
			c0.7192383,0,1.2675781-0.1430664,1.9023438-0.3081055C34.7353516,0.8085938,35.6796875,0.5625,37.2626953,0.5625
			c6.7412109,0,10.9814453,12.6708984,11.1582031,13.2104492l0.0126953,0.0800781C48.4287109,14.3569336,47.2314453,16,32,16z
			 M16.0488281,13.8588867C16.1860352,14.0185547,17.7270508,15.5,32,15.5c13.8740234,0,15.6943359-1.3999023,15.9140625-1.6640625
			C47.5126953,12.6699219,43.3535156,1.0625,37.2626953,1.0625c-1.5195313,0-2.4306641,0.2373047-3.234375,0.4467773
			C33.3886719,1.6757813,32.7832031,1.8334961,32,1.8334961c-0.7836914,0-1.3886719-0.1577148-2.0292969-0.3242188
			C29.1669922,1.2998047,28.2563477,1.0625,26.7373047,1.0625C20.6020508,1.0625,16.4038086,12.8295898,16.0488281,13.8588867z"/>
	</g>
	<g>
		
			<radialGradient id="SVGID_3_" cx="31.9853516" cy="7.6830931" r="16.7716236" gradientTransform="matrix(1 0 0 0.7404398 0 1.9942251)" gradientUnits="userSpaceOnUse">
			<stop  offset="0.1687243" style="stop-color:#3E3A39"/>
			<stop  offset="1" style="stop-color:#231815"/>
		</radialGradient>
		<path style="fill:url(#SVGID_3_);" d="M46.6079102,10.0007324c0,0-1.7575302,2.9632568-14.6184082,2.9632568
			s-14.6181641-2.9629517-14.6181641-2.9629517c-1.0233765,2.1602783-1.5839233,3.8499146-1.5839233,3.8499146
			S18.3688869,17.75,32,17.75s16.1832886-3.8990479,16.1832886-3.8990479S47.6265259,12.1611938,46.6079102,10.0007324z"/>
		<path style="fill:#231815;" d="M32,18c-13.609375,0-16.3125-3.847168-16.4208984-4.0107422l-0.0668945-0.1015625
			l0.0380859-0.1152344c0.0058594-0.0170898,0.5771484-1.7294922,1.5947266-3.878418l0.2011719-0.4248047l0.2397461,0.4042969
			c0.0161133,0.0249023,1.9511719,2.840332,14.4033203,2.840332c12.5732422,0,14.3867188-2.8120117,14.4033203-2.840332
			l0.2402344-0.4052734l0.2011719,0.4257813c1.0136719,2.1494141,1.5810547,3.8618164,1.5869141,3.8789063l0.0380859,0.1142578
			l-0.0664063,0.1005859C48.2851563,14.1518555,45.609375,18,32,18z M16.0688477,13.8022461
			C16.5722656,14.3740234,19.8842773,17.5,32,17.5c12.1123047,0,15.4023438-3.1240234,15.9033203-3.6977539
			c-0.1396484-0.402832-0.6123047-1.7226563-1.3632813-3.3540039c-0.859375,0.7929688-4.0546875,2.765625-14.5507813,2.765625
			c-10.4975586,0-13.6918945-1.9731445-14.5512695-2.765625C16.6845703,12.0786133,16.2094727,13.3979492,16.0688477,13.8022461z"/>
	</g>
</g>
<g>
	<g>
		<path style="fill:#EFEFEF;" d="M38.3310547,46.8612061c0,0-3.5810547,2.9200439-6.3310547,2.9200439
			s-6.3310547-2.9200439-6.3310547-2.9200439l-3.6263428,18.5039139h19.9147949L38.3310547,46.8612061z"/>
		<path style="fill:#231815;" d="M42.2607422,65.6152344H21.7387695l3.7651367-19.2109375l0.3227539,0.2636719
			C25.8618164,46.6962891,29.371582,49.53125,32,49.53125c2.6279297,0,6.1376953-2.8349609,6.1728516-2.8632813l0.3232422-0.2636719
			L42.2607422,65.6152344z M22.3461914,65.1152344h19.3071289l-3.4892578-17.8066406
			C37.2070313,48.0322266,34.3486328,50.03125,32,50.03125c-2.3491211,0-5.2070313-1.9990234-6.1640625-2.7226563
			L22.3461914,65.1152344z"/>
	</g>
	<g>
		<linearGradient id="SVGID_4_" gradientUnits="userSpaceOnUse" x1="31.999958" y1="49.78125" x2="31.999958" y2="53.1875">
			<stop  offset="0" style="stop-color:#3E3A39"/>
			<stop  offset="1" style="stop-color:#231815"/>
		</linearGradient>
		<path style="fill:url(#SVGID_4_);" d="M32.7230721,49.78125h-1.4461441c-0.1697197,0-0.324873,0.09589-0.400774,0.2476921
			l-0.7771587,1.5543175c-0.062397,0.124794-0.0631008,0.271534-0.0019035,0.3969193l0.4664841,0.9557762
			c0.0751209,0.1539154,0.2314072,0.251545,0.4026756,0.251545h2.0665474c0.1711617,0,0.3273735-0.0975075,0.4025497-0.2512779
			l0.4673462-0.9559402c0.0613289-0.1254387,0.0606728-0.2723007-0.0017738-0.3971863l-0.7770767-1.5541534
			C33.0479431,49.87714,32.8927917,49.78125,32.7230721,49.78125z"/>
		<path style="fill:#231815;" d="M33.0332031,53.4375h-2.0668945c-0.2651367,0-0.5112305-0.1542969-0.6274414-0.3925781
			l-0.4663086-0.9550781c-0.0961914-0.1982422-0.0947266-0.4228516,0.0029297-0.6181641l0.7768555-1.5537109
			c0.1191406-0.2382813,0.3583984-0.3867188,0.6245117-0.3867188h1.4462891c0.2661133,0,0.5053711,0.1484375,0.6245117,0.3867188
			L34.125,51.4707031c0.0976563,0.1982422,0.0976563,0.4238281,0.0019531,0.6191406l-0.4667969,0.9560547
			C33.5439453,53.2841797,33.2978516,53.4375,33.0332031,53.4375z M31.2768555,50.03125
			c-0.0756836,0-0.1435547,0.0419922-0.1772461,0.109375l-0.7768555,1.5537109
			c-0.027832,0.0556641-0.027832,0.1201172-0.0004883,0.1767578l0.4658203,0.9550781
			c0.0336914,0.0683594,0.1020508,0.1113281,0.1782227,0.1113281h2.0668945c0.0751953,0,0.1445313-0.0439453,0.1777344-0.1113281
			l0.4667969-0.9550781c0.0273438-0.0566406,0.0273438-0.1210938-0.0009766-0.1777344l-0.7763672-1.5517578
			c-0.0336914-0.0683594-0.1015625-0.1103516-0.1772461-0.1103516H31.2768555z"/>
	</g>
	<g>
		<linearGradient id="SVGID_5_" gradientUnits="userSpaceOnUse" x1="32" y1="53" x2="32" y2="65.3651199">
			<stop  offset="0" style="stop-color:#3E3A39"/>
			<stop  offset="1" style="stop-color:#231815"/>
		</linearGradient>
		<path style="fill:url(#SVGID_5_);" d="M34.6663857,65.3651199l-1.3018723-12.0956802
			C33.3467522,53.1166458,33.1909904,53,33.0047302,53h-2.0094585c-0.186264,0-0.3420238,0.1166458-0.3597851,0.2694397
			l-1.3018723,12.0956802H34.6663857z"/>
		<path style="fill:#231815;" d="M34.9443359,65.6152344h-5.8891602l1.331543-12.3720703
			C30.4199219,52.9609375,30.6811523,52.75,30.9951172,52.75h2.0097656c0.3144531,0,0.5751953,0.2109375,0.6074219,0.4912109
			L34.9443359,65.6152344z M29.6118164,65.1152344h4.7758789l-1.2724609-11.8193359
			c0-0.0078125-0.0371094-0.0458984-0.1103516-0.0458984h-2.0097656c-0.0732422,0-0.1103516,0.0390625-0.1118164,0.0488281
			L29.6118164,65.1152344z"/>
	</g>
	<g>
		<path style="fill:#EFEFEF;" d="M38.6289139,46.0469589l1.6673393,1.6624107c0,0-1.804245,3.7281303-5.081501,5.4781303
			l-2.1566544-3.4435883c-0.0630722-0.1007042-0.027153-0.2311897,0.0812988-0.2797356
			c0.6908417-0.3092422,3.0174103-1.4411545,4.8282471-3.3954506C38.1459198,45.8763275,38.4431686,45.861763,38.6289139,46.0469589
			z"/>
		<path style="fill:#231815;" d="M35.1269531,53.5175781l-2.28125-3.640625
			c-0.0688477-0.1113281-0.0869141-0.2451172-0.0493164-0.3681641c0.0366211-0.1210938,0.1245117-0.2207031,0.2407227-0.2724609
			c0.6630859-0.296875,2.9648438-1.4130859,4.7470703-3.3378906c0.2646484-0.2851563,0.7480469-0.3007813,1.0214844-0.0283203
			l1.7929688,1.7871094l-0.078125,0.1601563c-0.0742188,0.1552734-1.8769531,3.8222656-5.1875,5.5908203L35.1269531,53.5175781z
			 M33.3027344,49.6650391l1.9980469,3.1894531c2.6679688-1.5224609,4.3154297-4.3964844,4.6894531-5.0976563l-1.5380859-1.5332031
			c-0.1240234-0.1240234-0.2304688-0.0595703-0.3007813,0.0146484
			C36.3554688,48.1767578,34.0585938,49.3212891,33.3027344,49.6650391z"/>
	</g>
	<g>
		<path style="fill:#EFEFEF;" d="M25.4960861,46.0469589l-1.6673393,1.6624107c0,0,1.804245,3.7281303,5.0814991,5.4781303
			l2.1566582-3.4435883c0.0630684-0.1007042,0.0271511-0.2311897-0.0813026-0.2797356
			c-0.6908398-0.3092422-3.0174084-1.4411545-4.8282452-3.3954506
			C25.9790821,45.8763275,25.6818314,45.861763,25.4960861,46.0469589z"/>
		<path style="fill:#231815;" d="M28.9980469,53.5175781l-0.2055664-0.109375
			c-3.3110352-1.7685547-5.1137695-5.4355469-5.1889648-5.5898438l-0.0776367-0.1611328l1.7939453-1.7871094
			c0.2714844-0.2724609,0.7558594-0.2587891,1.0209961,0.0283203c1.7836914,1.9257813,4.0844727,3.0410156,4.7470703,3.3369141
			c0.1166992,0.0527344,0.2045898,0.1523438,0.2412109,0.2734375c0.0371094,0.1230469,0.019043,0.2578125-0.050293,0.3681641
			L28.9980469,53.5175781z M24.1347656,47.7568359c0.3730469,0.7011719,2.0209961,3.5751953,4.6889648,5.0976563
			l1.9980469-3.1904297c-0.7558594-0.34375-3.0517578-1.4863281-4.8481445-3.4257813
			c-0.0683594-0.0742188-0.1743164-0.1416016-0.3007813-0.0146484L24.1347656,47.7568359z"/>
	</g>
</g>
<g>
	<g>
		<linearGradient id="SVGID_6_" gradientUnits="userSpaceOnUse" x1="22.885416" y1="47.4271011" x2="22.885416" y2="65.3651199">
			<stop  offset="0" style="stop-color:#3E3A39"/>
			<stop  offset="1" style="stop-color:#261C19"/>
		</linearGradient>
		<path style="fill:url(#SVGID_6_);" d="M11.8942337,56.2805901c0-6.3855324,5.5924835-7.4330978,10.6565609-8.8534889
			c-0.0337811,0.1611443,2.6127548,2.3038406,2.6127548,2.3038406L34,62.375v2.9901199H11.770833L11.8942337,56.2805901z"/>
		<path style="fill:#1A1411;" d="M34.25,65.6152344H11.5175781l0.1264648-9.3378906c0-6.125,4.9667969-7.4833984,9.7700195-8.796875
			c0.3574219-0.0976563,0.7148438-0.1953125,1.0693359-0.2939453l0.3964844-0.1113281l-0.0639648,0.3056641
			c0.2509766,0.2832031,1.4272461,1.2822266,2.5048828,2.1552734l0.0478516,0.0507813L34.25,62.2958984V65.6152344z
			 M12.0244141,65.1152344H33.75v-2.6611328l-8.7709961-12.5517578c-1.6196289-1.3115234-2.2709961-1.8955078-2.5253906-2.1884766
			c-0.3012695,0.0839844-0.6044922,0.1660156-0.9077148,0.2490234c-4.8349609,1.3222656-9.4018555,2.5712891-9.4018555,8.3173828
			L12.0244141,65.1152344z"/>
	</g>
	<g>
		<linearGradient id="SVGID_7_" gradientUnits="userSpaceOnUse" x1="27.8947678" y1="45.8536797" x2="27.8947678" y2="62.3523636">
			<stop  offset="0" style="stop-color:#3E3A39"/>
			<stop  offset="1" style="stop-color:#261C19"/>
		</linearGradient>
		<path style="fill:url(#SVGID_7_);" d="M25.1936226,46.047184l8.7867203,16.2913704
			c0.0047188,0.0087471-0.0057068,0.0178223-0.0137215,0.0119362L22.75,54.1143417l1.791666-2.297596l-2.7083302-0.5149078
			c-0.1901035-2.8311157,0.7525368-4.411499,0.7525368-4.411499L24.8273315,45.875
			C24.9763279,45.8125191,25.1466675,45.8925896,25.1936226,46.047184z"/>
		<path style="fill:#1A1411;" d="M33.9726563,62.6025391h-0.0839844l-0.0722656-0.0517578l-11.421875-8.3876953l1.6982422-2.1777344
			l-2.4956055-0.4736328l-0.0131836-0.1933594c-0.1933594-2.8759766,0.7470703-4.4882813,0.7871094-4.5556641l0.0405273-0.0673828
			l2.3125-1.0478516c0.309082-0.1318359,0.6201172,0.0380859,0.7084961,0.3261719L34.2675781,62.34375l-0.1445313,0.2539063
			L33.9726563,62.6025391z M23.1054688,54.0654297l10.1474609,7.4501953l-8.3203125-15.4121094l-2.1669922,0.9804688
			c-0.1601563,0.3115234-0.8076172,1.7255859-0.6938477,4.0087891l2.918457,0.5546875L23.1054688,54.0654297z"/>
	</g>
	<g>
		<linearGradient id="SVGID_8_" gradientUnits="userSpaceOnUse" x1="41.1145821" y1="47.4271011" x2="41.1145821" y2="65.3651199">
			<stop  offset="0" style="stop-color:#3E3A39"/>
			<stop  offset="1" style="stop-color:#261C19"/>
		</linearGradient>
		<path style="fill:url(#SVGID_8_);" d="M52.1057663,56.2805901c0-6.3855324-5.5924835-7.4330978-10.6565628-8.8534889
			c0.033783,0.1611443-2.6127548,2.3038406-2.6127548,2.3038406L30,62.375v2.9901199h22.2291679L52.1057663,56.2805901z"/>
		<path style="fill:#1A1411;" d="M52.4833984,65.6152344H29.75v-3.3193359l8.9296875-12.7597656
			c1.0771484-0.8720703,2.2529297-1.8710938,2.5039063-2.1542969l-0.0644531-0.3076172l0.3974609,0.1123047
			c0.3544922,0.0986328,0.7109375,0.1962891,1.0683594,0.2939453c4.8037109,1.3134766,9.7705078,2.671875,9.7705078,8.7998047
			L52.4833984,65.6152344z M30.25,65.1152344h21.7255859l-0.1201172-8.8320313c0-5.75-4.5673828-6.9980469-9.4023438-8.3203125
			c-0.3027344-0.0830078-0.6054688-0.1650391-0.90625-0.2490234c-0.2548828,0.2939453-0.90625,0.8769531-2.5253906,2.1884766
			L30.25,62.4541016V65.1152344z"/>
	</g>
	<g>
		<linearGradient id="SVGID_9_" gradientUnits="userSpaceOnUse" x1="36.1052322" y1="45.8536797" x2="36.1052322" y2="62.3523636">
			<stop  offset="0" style="stop-color:#3E3A39"/>
			<stop  offset="1" style="stop-color:#261C19"/>
		</linearGradient>
		<path style="fill:url(#SVGID_9_);" d="M38.8063774,46.047184l-8.7867203,16.2913704
			c-0.0047188,0.0087471,0.0057087,0.0178223,0.0137215,0.0119362L41.25,54.1143417l-1.7916679-2.297596l2.7083321-0.5149078
			c0.1901054-2.8311157-0.7525368-4.411499-0.7525368-4.411499L39.1726685,45.875
			C39.0236702,45.8125191,38.8533325,45.8925896,38.8063774,46.047184z"/>
		<path style="fill:#1A1411;" d="M30.027832,62.6025391h-0.1396484l-0.1542969-0.2412109l0.0620117-0.1337891l8.7910156-16.2998047
			c0.0615234-0.2265625,0.4023438-0.4013672,0.6826172-0.2832031l2.3193359,1.0507813l0.0400391,0.0673828
			c0.0400391,0.0673828,0.9804688,1.6796875,0.7871094,4.5556641l-0.0126953,0.1933594l-2.4960938,0.4736328l1.6982422,2.1777344
			l-11.4902344,8.4375L30.027832,62.6025391z M39.0693359,46.1025391l-0.0429688,0.0634766L30.7475586,61.515625
			l10.1469727-7.4501953l-1.8857422-2.4179688l2.9199219-0.5546875c0.1142578-2.2939453-0.5332031-3.6992188-0.6943359-4.0087891
			L39.0693359,46.1025391z"/>
	</g>
</g>
<g>
	<path style="fill:#231815;" d="M38.6474609,23.1743164c-2.4248047,0-4.3974609,1.6821289-4.3974609,3.75
		s1.9726563,3.75,4.3974609,3.75c2.4238281,0,4.3964844-1.6821289,4.3964844-3.75S41.0712891,23.1743164,38.6474609,23.1743164z"/>
	<path style="fill:#231815;" d="M25.3530273,23.1743164c-2.4243164,0-4.3969727,1.6821289-4.3969727,3.75
		s1.9726563,3.75,4.3969727,3.75S29.75,28.9921875,29.75,26.9243164S27.7773438,23.1743164,25.3530273,23.1743164z"/>
</g>
<g>
	<g>
		<linearGradient id="SVGID_10_" gradientUnits="userSpaceOnUse" x1="38.6470642" y1="23.5240993" x2="38.6470642" y2="30.3240986">
			<stop  offset="0" style="stop-color:#FFFFFF;stop-opacity:0.2"/>
			<stop  offset="0.308642" style="stop-color:#FFFFFF;stop-opacity:0"/>
		</linearGradient>
		<ellipse style="fill:url(#SVGID_10_);" cx="38.6470642" cy="26.924099" rx="3.9500051" ry="3.4000001"/>
		<path style="fill:#3E3A39;" d="M38.6474609,31.1743164c-2.7001953,0-4.8974609-1.9067383-4.8974609-4.25
			s2.1972656-4.25,4.8974609-4.25s4.8964844,1.9067383,4.8964844,4.25S41.3476563,31.1743164,38.6474609,31.1743164z
			 M38.6474609,23.1743164c-2.4248047,0-4.3974609,1.6821289-4.3974609,3.75s1.9726563,3.75,4.3974609,3.75
			c2.4238281,0,4.3964844-1.6821289,4.3964844-3.75S41.0712891,23.1743164,38.6474609,23.1743164z"/>
	</g>
	<g>
		
			<linearGradient id="SVGID_11_" gradientUnits="userSpaceOnUse" x1="38.6470642" y1="23.5240993" x2="38.6470642" y2="30.3240986" gradientTransform="matrix(-1 0 0 1 64 0)">
			<stop  offset="0" style="stop-color:#FFFFFF;stop-opacity:0.2"/>
			<stop  offset="0.308642" style="stop-color:#FFFFFF;stop-opacity:0"/>
		</linearGradient>
		<ellipse style="fill:url(#SVGID_11_);" cx="25.3529358" cy="26.924099" rx="3.9500051" ry="3.4000001"/>
		<path style="fill:#3E3A39;" d="M25.3530273,31.1743164c-2.7001953,0-4.8969727-1.9067383-4.8969727-4.25
			s2.1967773-4.25,4.8969727-4.25S30.25,24.5810547,30.25,26.9243164S28.0532227,31.1743164,25.3530273,31.1743164z
			 M25.3530273,23.1743164c-2.4243164,0-4.3969727,1.6821289-4.3969727,3.75s1.9726563,3.75,4.3969727,3.75
			S29.75,28.9921875,29.75,26.9243164S27.7773438,23.1743164,25.3530273,23.1743164z"/>
	</g>
	<path style="fill:#3E3A39;" d="M43.2939453,27.2993164c-0.1923828,0-0.3554688-0.1469727-0.3730469-0.3422852
		c-0.0175781-0.2055664,0.1347656-0.387207,0.3398438-0.40625c0.1396484-0.0126953,1.3613281-0.1611328,1.3613281-1.3769531
		c0-0.2070313,0.1679688-0.375,0.375-0.375s0.375,0.1679688,0.375,0.375c0,1.5444336-1.3388672,2.0649414-2.046875,2.1240234
		C43.3144531,27.2988281,43.3037109,27.2993164,43.2939453,27.2993164z"/>
	<path style="fill:#3E3A39;" d="M34,27.2993164c-0.1230469,0-0.2441406-0.0605469-0.3154297-0.1723633
		C33.6660156,27.0991211,33.1689453,26.375,32,26.375c-1.168457,0-1.6655273,0.7241211-1.6860352,0.7548828
		c-0.1152344,0.1708984-0.347168,0.2197266-0.5185547,0.1064453c-0.171875-0.112793-0.222168-0.3413086-0.1108398-0.5146484
		C29.7133789,26.6767578,30.4072266,25.625,32,25.625s2.2871094,1.0517578,2.3154297,1.0966797
		c0.1123047,0.1743164,0.0615234,0.40625-0.1123047,0.5180664C34.1396484,27.2802734,34.0693359,27.2993164,34,27.2993164z"/>
	<path style="fill:#3E3A39;" d="M20.706543,27.2993164c-0.0107422,0-0.0209961-0.0004883-0.0317383-0.0014648
		c-0.7080078-0.059082-2.046875-0.5795898-2.046875-2.1240234c0-0.2070313,0.1679688-0.375,0.375-0.375s0.375,0.1679688,0.375,0.375
		c0,1.2158203,1.2216797,1.3642578,1.3608398,1.3769531c0.2060547,0.019043,0.3583984,0.2006836,0.3398438,0.40625
		C21.0615234,27.1523438,20.8984375,27.2993164,20.706543,27.2993164z"/>
</g>
<g>
	<g>
		
			<linearGradient id="SVGID_12_" gradientUnits="userSpaceOnUse" x1="76.1346359" y1="77.3576813" x2="78.0762329" y2="77.3576813" gradientTransform="matrix(0.9336243 0.3582537 -0.3582537 0.9336243 1.1713687 -37.4310417)">
			<stop  offset="0" style="stop-color:#7A6A56"/>
			<stop  offset="1" style="stop-color:#604C3F"/>
		</linearGradient>
		<path style="fill:url(#SVGID_12_);" d="M48.1243401,55.4333038c-0.4985161-0.1912918-1.0457497,0.015461-1.2161026,0.4594116
			l-4.7388077,12.3495331c-0.1703568,0.4439545,0.0981026,0.9636993,0.5966187,1.1549911
			c0.4984856,0.1912842,1.0457497-0.0154572,1.2161026-0.459404l4.7388077-12.3495369
			C48.8913155,56.1443481,48.6228294,55.624588,48.1243401,55.4333038z"/>
		<path style="fill:#261E1A;" d="M43.1474609,69.71875h-0.0009766c-0.1601563,0-0.3183594-0.0292969-0.4707031-0.0878906
			c-0.6279297-0.2412109-0.9599609-0.9042969-0.7402344-1.4775391l4.7392578-12.3505859
			c0.2138672-0.5556641,0.9228516-0.8398438,1.5390625-0.6025391c0.3193359,0.1220703,0.5791016,0.3642578,0.7119141,0.6640625
			c0.1181641,0.265625,0.1279297,0.5546875,0.0283203,0.8134766l-4.7382813,12.3496094
			C44.0537109,69.4472656,43.6347656,69.71875,43.1474609,69.71875z M47.7431641,55.6123047
			c-0.2792969,0-0.515625,0.1455078-0.6015625,0.3701172l-4.7392578,12.3496094
			c-0.1210938,0.3164063,0.0820313,0.6894531,0.453125,0.8320313c0.0947266,0.0361328,0.1923828,0.0546875,0.2910156,0.0546875
			h0.0009766c0.2783203,0,0.5146484-0.1455078,0.6015625-0.3710938l4.7382813-12.3496094
			c0.0517578-0.1347656,0.0449219-0.2871094-0.0185547-0.4306641c-0.0791016-0.1796875-0.2373047-0.3251953-0.4345703-0.4003906
			C47.9394531,55.6308594,47.8417969,55.6123047,47.7431641,55.6123047z"/>
	</g>
	<g>
		
			<linearGradient id="SVGID_13_" gradientUnits="userSpaceOnUse" x1="70.5906296" y1="62.3412514" x2="83.6201935" y2="62.3412514" gradientTransform="matrix(0.9336243 0.3582537 -0.3582537 0.9336243 1.1713687 -37.4310417)">
			<stop  offset="0" style="stop-color:#7A6A56"/>
			<stop  offset="1" style="stop-color:#604C3F"/>
		</linearGradient>
		<path style="fill:url(#SVGID_13_);" d="M53.8453255,41.4805946l-0.6397934-0.2455063
			c-3.1774521-1.2192612-6.9739342,0.9459076-8.4630241,4.8265343c-1.4890862,3.8806229-0.1155167,8.0296669,3.0619354,9.2489319
			l0.6397934,0.2455025c3.1774139,1.2192497,6.973896-0.9459229,8.462986-4.8265457
			C58.3963089,46.8488846,57.0227394,42.6998444,53.8453255,41.4805946z M55.0368462,50.0118027
			c-1.1656494,3.0377312-3.983326,4.812912-6.4136009,4.1213341c-2.2691116-1.1116867-3.1760101-4.3160744-2.0103607-7.3538094
			c1.1656494-3.0377312,3.983326-4.8129082,6.4136391-4.1213188C55.2955971,43.7696838,56.2024956,46.9740715,55.0368462,50.0118027
			z"/>
		<path style="fill:#261E1A;" d="M50.2929688,56.1455078c-0.0009766,0,0,0-0.0009766,0
			c-0.6689453,0-1.3203125-0.1201172-1.9375-0.3564453l-0.6396484-0.2451172
			c-3.3056641-1.2685547-4.7431641-5.5625-3.2060547-9.5722656c1.2226563-3.1855469,3.9746094-5.3261719,6.8486328-5.3261719
			c0.6689453,0,1.3203125,0.1201172,1.9375,0.3564453l0.6396484,0.2451172
			c3.3066406,1.2695313,4.7441406,5.5634766,3.2060547,9.5722656
			C55.9179688,54.0048828,53.1660156,56.1455078,50.2929688,56.1455078z M51.3574219,41.1455078
			c-2.6679688,0-5.2324219,2.0117188-6.3818359,5.0058594c-1.4384766,3.7519531-0.1298828,7.7558594,2.9189453,8.9257813
			l0.6396484,0.2451172c0.5585938,0.2148438,1.1503906,0.3232422,1.7578125,0.3232422
			c2.6679688,0,5.2324219-2.0117188,6.3818359-5.0058594c1.4394531-3.7509766,0.1308594-7.7548828-2.9179688-8.9257813
			L53.1162109,41.46875C52.5566406,41.2539063,51.9648438,41.1455078,51.3574219,41.1455078z M49.7021484,54.5322266
			c-0.3916016,0-0.7773438-0.0537109-1.1474609-0.1591797c-2.4375-1.1894531-3.375-4.5576172-2.1748047-7.6835938
			c1.0166016-2.6494141,3.2539063-4.4296875,5.5683594-4.4296875c0.3916016,0,0.7773438,0.0527344,1.1464844,0.1582031
			c2.4375,1.1884766,3.375,4.5566406,2.1757813,7.6835938C54.2529297,52.7509766,52.015625,54.5322266,49.7021484,54.5322266z
			 M51.9482422,42.7597656c-2.0761719,0-4.1738281,1.6894531-5.1015625,4.109375
			c-1.1074219,2.8857422-0.2792969,5.9785156,1.8867188,7.0390625c0.2832031,0.0771484,0.6230469,0.1240234,0.96875,0.1240234
			c2.0751953,0,4.1728516-1.6904297,5.1015625-4.1103516c1.1074219-2.8867188,0.2783203-5.9785156-1.8876953-7.0390625
			C52.6328125,42.8066406,52.2929688,42.7597656,51.9482422,42.7597656z"/>
	</g>
	<g>
		
			<linearGradient id="SVGID_14_" gradientUnits="userSpaceOnUse" x1="70.5906296" y1="62.3412514" x2="82.9349289" y2="62.3412514" gradientTransform="matrix(0.9336243 0.3582537 -0.3582537 0.9336243 1.1713687 -37.4310417)">
			<stop  offset="0" style="stop-color:#7A6A56"/>
			<stop  offset="1" style="stop-color:#604C3F"/>
		</linearGradient>
		<path style="fill:url(#SVGID_14_);" d="M47.8044319,55.3105469c-3.1774406-1.2192574-4.5510101-5.3683014-3.061924-9.2489243
			s5.2855721-6.0457954,8.4630127-4.8265381c3.1774406,1.2192612,4.5510101,5.3683052,3.061924,9.2489281
			C54.7783546,54.3646355,50.9818726,56.529808,47.8044319,55.3105469z M52.7145119,42.5146713
			c-2.4990196-0.958931-5.5231171,0.8442459-6.7414093,4.0191574c-1.2182884,3.1749153-0.1766853,6.5382004,2.3223381,7.4971313
			c2.4990196,0.9589348,5.5231171-0.8442421,6.7414093-4.0191574
			C56.2551384,46.8368912,55.2135315,43.4736061,52.7145119,42.5146713z"/>
		<path style="fill:#261E1A;" d="M49.6523438,55.9003906c-0.6689453,0-1.3212891-0.1201172-1.9375-0.3564453
			c-3.3056641-1.2685547-4.7431641-5.5625-3.2060547-9.5722656c1.2226563-3.1855469,3.9746094-5.3261719,6.8486328-5.3261719
			c0.6689453,0,1.3203125,0.1201172,1.9375,0.3564453c1.6074219,0.6171875,2.8261719,1.9599609,3.4287109,3.78125
			c0.5976563,1.8037109,0.5185547,3.8603516-0.2226563,5.7910156
			C55.2783203,53.7597656,52.5253906,55.9003906,49.6523438,55.9003906z M51.3574219,41.1455078
			c-2.6679688,0-5.2324219,2.0117188-6.3818359,5.0058594c-1.4384766,3.7519531-0.1298828,7.7558594,2.9189453,8.9257813
			c0.5585938,0.2148438,1.1503906,0.3232422,1.7578125,0.3232422c2.6679688,0,5.2324219-2.0117188,6.3818359-5.0058594
			c0.6992188-1.8232422,0.7763672-3.7597656,0.2148438-5.4541016c-0.5546875-1.6767578-1.6679688-2.9091797-3.1337891-3.4716797
			C52.5566406,41.2539063,51.9648438,41.1455078,51.3574219,41.1455078z M49.6972656,54.5390625L49.6972656,54.5390625
			c-0.515625,0-1.0166016-0.0927734-1.4912109-0.2744141c-2.6269531-1.0087891-3.734375-4.5166016-2.4667969-7.8203125
			c1.0185547-2.6542969,3.2587891-4.4375,5.5742188-4.4375c0.515625,0,1.0166016,0.0927734,1.4912109,0.2744141
			c2.6269531,1.0078125,3.7333984,4.5166016,2.4658203,7.8203125
			C54.2519531,52.7548828,52.0117188,54.5390625,49.6972656,54.5390625z M51.3134766,42.5068359
			c-2.0771484,0-4.1767578,1.6933594-5.1074219,4.1171875c-1.1679688,3.0458984-0.1904297,6.2646484,2.1796875,7.1738281
			c0.4160156,0.1601563,0.8574219,0.2412109,1.3115234,0.2412109c2.0761719,0,4.1757813-1.6933594,5.1064453-4.1171875
			c1.1689453-3.0458984,0.1914063-6.2646484-2.1787109-7.1738281
			C52.2089844,42.5878906,51.7675781,42.5068359,51.3134766,42.5068359z"/>
	</g>
	
		<linearGradient id="SVGID_15_" gradientUnits="userSpaceOnUse" x1="71.9087143" y1="62.3412514" x2="81.6168442" y2="62.3412514" gradientTransform="matrix(0.9336243 0.3582537 -0.3582537 0.9336243 1.1713687 -37.4310417)">
		<stop  offset="0" style="stop-color:#3E3A39;stop-opacity:0.2"/>
		<stop  offset="1" style="stop-color:#3E3A39;stop-opacity:0.3"/>
	</linearGradient>
	<path style="fill:url(#SVGID_15_);" d="M52.7145119,42.5146713c-2.4990196-0.958931-5.5231171,0.8442459-6.7414093,4.0191574
		c-1.2182884,3.1749153-0.1766853,6.5382004,2.3223381,7.4971313c2.4990196,0.9589348,5.5231171-0.8442421,6.7414093-4.0191574
		C56.2551384,46.8368912,55.2135315,43.4736061,52.7145119,42.5146713z"/>
</g>
<linearGradient id="SVGID_16_" gradientUnits="userSpaceOnUse" x1="47.7364006" y1="46.4579315" x2="49.7945747" y2="46.4579315" gradientTransform="matrix(0.740475 0.6720839 -0.6720839 0.740475 43.8145638 -22.0470161)">
	<stop  offset="0" style="stop-color:#FFFFFF"/>
	<stop  offset="1" style="stop-color:#FFFFFF;stop-opacity:0.2"/>
</linearGradient>
<path style="fill:url(#SVGID_16_);" d="M49.4625702,45.8200531c-0.9936333,1.0947456-2.1403008,1.6725616-2.5611496,1.2905807
	c-0.420845-0.3819771,0.0434914-1.5790977,1.0371246-2.6738472c0.9936371-1.0947456,2.1403008-1.6725616,2.5611496-1.2905846
	C50.9205437,43.528183,50.4562073,44.7253036,49.4625702,45.8200531z"/>
<linearGradient id="SVGID_17_" gradientUnits="userSpaceOnUse" x1="55.7373199" y1="48.5331268" x2="57.0206795" y2="48.5331268" gradientTransform="matrix(0.740475 0.6720839 -0.6720839 0.740475 43.8145638 -22.0470161)">
	<stop  offset="0" style="stop-color:#FFFFFF;stop-opacity:0.4"/>
	<stop  offset="1" style="stop-color:#FFFFFF;stop-opacity:0.2"/>
</linearGradient>
<path style="fill:url(#SVGID_17_);" d="M53.4186172,52.2132301c-0.6195755,0.6826248-1.3345718,1.0429192-1.5969887,0.8047371
	c-0.2624168-0.2381783,0.0271149-0.9846382,0.6466904-1.667263c0.6195755-0.682621,1.3345718-1.0429153,1.5969925-0.8047333
	C54.3277283,50.7841492,54.0381927,51.5306091,53.4186172,52.2132301z"/>
</svg>
