<?xml version="1.0" encoding="utf-8"?>
<!-- Generator: Adobe Illustrator 18.0.0, SVG Export Plug-In . SVG Version: 6.00 Build 0)  -->
<!DOCTYPE svg PUBLIC "-//W3C//DTD SVG 1.1//EN" "http://www.w3.org/Graphics/SVG/1.1/DTD/svg11.dtd">
<svg version="1.1" id="レイヤー_1" xmlns="http://www.w3.org/2000/svg" xmlns:xlink="http://www.w3.org/1999/xlink" x="0px"
	 y="0px" width="64px" height="64px" viewBox="0 0 64 64" style="enable-background:new 0 0 64 64;" xml:space="preserve">
<g>
	<g>
		<g>
			<path style="fill:#471E02;" d="M22.1226006,30.4853992c0,0,1.2943993,3.2832012,3.0902996,5.5332012
				c5.9603996,7.467701,5.2245998,11.8125,7.9120998,10.4375c2.1543007,0.3768997,3.0596008-3.0625,1.4101982-4.4629021
				c0,0-0.7011986-0.9745979-1.5351982-1.6406975c-3.1123009-2.1826019-6-4.9062004-7.9741001-7.9233017
				C25.0258999,32.4291992,24.0653992,29.9785004,22.1226006,30.4853992z"/>
			<path style="fill:#604C3F;" d="M32.265625,46.8339844c-0.9145508,0-1.3789063-0.9677734-2.2216797-2.7236328
				C29.1630859,42.2744141,27.8320313,39.5,25.1152344,36.0966797c-1.7871094-2.2392578-3.0961914-5.5327148-3.1088867-5.5654297
				l-0.0517578-0.1313477l0.1362305-0.0356445c0.1860352-0.0483398,0.371582-0.0727539,0.5522461-0.0727539
				c1.6601563,0,2.4658203,2.0068359,2.4990234,2.0922852c1.8237305,2.7822266,4.5698242,5.5097656,7.9291992,7.8662109
				c0.8447266,0.6738281,1.5361328,1.6298828,1.5654297,1.6699219c0.9638672,0.8144531,1.0302734,2.2373047,0.6738281,3.2050781
				c-0.3408203,0.9296875-1.0380859,1.484375-1.8632813,1.484375l0,0c-0.0986328,0-0.2001953-0.0078125-0.3027344-0.0234375
				C32.8105469,46.7529297,32.5224609,46.8339844,32.265625,46.8339844z M22.2939453,30.574707
				c0.2651367,0.640625,1.4584961,3.4135742,3.0166016,5.3657227c2.734375,3.4257813,4.0732422,6.2158203,4.9589844,8.0615234
				c0.7988281,1.6650391,1.2387695,2.5820313,1.9960938,2.5820313c0.2260742,0,0.4882813-0.078125,0.8027344-0.2392578
				l0.0371094-0.0185547l0.0410156,0.0068359c0.8476563,0.1484375,1.5849609-0.3535156,1.9296875-1.2939453
				c0.3271484-0.8896484,0.2714844-2.1923828-0.6220703-2.9501953c-0.0273438-0.0322266-0.7216797-0.9912109-1.5322266-1.6386719
				c-3.3793945-2.3691406-6.1479492-5.1210938-8.0004883-7.9526367c-0.0195313-0.0419922-0.7895508-1.9560547-2.2783203-1.9560547
				C22.5288086,30.5415039,22.4121094,30.5527344,22.2939453,30.574707z"/>
		</g>
		<g>
			<path style="fill:#05050F;" d="M23.6005993,60.5653992L24.7437,47.5186005l-0.2823009-2.9277992
				c-3.7894993,0.9120979-8.0648994,0.7040977-11.3881989,0.2665977l-0.1346998,2.6612015l0.3827991,13.1268997
				c-1.7437,0.5849991-1.1767998,3.0400009-1.1767998,3.0400009h1.2657003H17.2437l1-15.6669006l0.8929996-0.1669998l1,15.8339005
				h3.1904011H27.2437C28.7455997,59.1240005,25.7553997,59.6875,23.6005993,60.5653992z"/>
			<path style="fill:#604C3F;" d="M27.3339844,63.8105469h-7.3144531L19.0209961,48l-0.6586914,0.1240234l-1.0014648,15.6865234
				h-5.315918l-0.0219727-0.0966797c-0.0058594-0.0253906-0.5532227-2.4902344,1.1708984-3.1552734l-0.3803711-13.0361328
				l0.1416016-2.8066406l0.1342773,0.0175781c4.3212891,0.5693359,8.2451172,0.4824219,11.3427734-0.2636719l0.1401367-0.0341797
				l0.2958984,3.0712891l-1.1254883,12.8671875c1.8730469-0.7294922,3.1538086-0.7099609,3.7138672,0.0625
				c0.4506836,0.6230469,0.4189453,1.7294922-0.0942383,3.2880859L27.3339844,63.8105469z M20.2539063,63.5605469h6.8989258
				c0.4604492-1.4326172,0.4946289-2.4335938,0.1010742-2.9775391c-0.5009766-0.6923828-1.7714844-0.6494141-3.605957,0.0986328
				l-0.1899414,0.0771484l1.1611328-13.2509766l-0.2680664-2.7626953c-3.0737305,0.7158203-6.9257813,0.7988281-11.159668,0.2539063
				l-0.1279297,2.5253906l0.3852539,13.2099609l-0.0878906,0.0292969c-1.425293,0.4785156-1.1914063,2.3486328-1.1132813,2.796875
				h4.8789063L18.125,47.9130859l1.1274414-0.2099609L20.2539063,63.5605469z"/>
		</g>
		<g>
			<path style="fill:#471E02;" d="M13.6426001,30.8901005c0,0-2.2006998-0.405201-3.8511,6.2525005
				c-1.6508703,6.6562004-1.7460899,11.0937004-0.4453096,11.5555992c1.2998095,0.461998,2.8340092,2.6875,3.8413095-0.5810013
				c0,0,1.7323999-0.9169998,0.2006998-2.2383003c-2.8520994-1.1815987-2.1508999-10.0673981-0.5292997-11.5995979
				C12.8589001,34.2793007,15.3149004,32.0014992,13.6426001,30.8901005z"/>
			<path style="fill:#604C3F;" d="M11.7480469,49.9921875L11.7480469,49.9921875
				c-0.5019531,0-1.0151367-0.3339844-1.5112305-0.6572266c-0.3276367-0.2128906-0.6367188-0.4140625-0.9326172-0.5185547
				C7.8881836,48.3134766,8.0317383,43.71875,9.6704102,37.1123047c1.4609375-5.894043,3.3530273-6.3520508,3.8979492-6.3520508
				c0.0629883,0,0.0966797,0.0068359,0.0966797,0.0068359l0.046875,0.019043
				c0.3876953,0.2578125,0.6010742,0.5961914,0.6342773,1.0068359c0.0952148,1.1748047-1.3413086,2.5214844-1.4023438,2.578125
				c-1.0136719,0.9580078-1.7626953,5.2353516-1.1674805,8.4648438c0.2036133,1.1064453,0.6567383,2.5117188,1.659668,2.9277344
				l0.0336914,0.0205078c0.4931641,0.4257813,0.7182617,0.8623047,0.6694336,1.296875
				c-0.0698242,0.6181641-0.6723633,1.0166016-0.847168,1.1201172
				C12.9077148,49.4228516,12.4165039,49.9921875,11.7480469,49.9921875z M13.5683594,31.0102539
				c-0.3554688,0-2.2016602,0.2973633-3.6557617,6.1625977C8.097168,44.4941406,8.3681641,48.2177734,9.3881836,48.5800781
				c0.3232422,0.1152344,0.659668,0.3339844,0.9848633,0.5458984c0.4658203,0.3027344,0.9472656,0.6162109,1.375,0.6162109
				c0.543457,0,0.9755859-0.5439453,1.3198242-1.6621094l0.0151367-0.0488281l0.0458984-0.0244141
				c0.0068359-0.0039063,0.6972656-0.3779297,0.7617188-0.9541016c0.0385742-0.3447266-0.152832-0.703125-0.5693359-1.0664063
				c-0.8657227-0.3701172-1.4848633-1.4433594-1.7910156-3.1044922c-0.5620117-3.0527344,0.0883789-7.6025391,1.2426758-8.6933594
				c0.0151367-0.0136719,1.409668-1.3217773,1.3242188-2.3759766c-0.0263672-0.3256836-0.1899414-0.5883789-0.4990234-0.8012695
				C13.590332,31.0107422,13.5800781,31.0102539,13.5683594,31.0102539z"/>
		</g>
		<g>
			<path style="fill:#F7F8F8;" d="M25.8125,33.1123009c-1.3593998-2.6958008-2.7187004-2.6958008-2.7187004-2.6958008
				l-2.7579002-0.7763996h-3.7601986L13.8027,30.4179993c-0.2719002,0.0341015-1.4584999,0.3154011-2.9902,2.5068016
				l2.5937996,2.0937996L13.8174,34.5663986L13.0732002,44.857399c3.3232994,0.4375,7.5986996,0.6455002,11.3881989-0.2665977
				l-1.2425995-10.8222008l0.4687004,1.125C25.1562996,34.3311005,25.8125,33.1123009,25.8125,33.1123009z"/>
			<path style="fill:#604C3F;" d="M18.4643555,45.3554688c-1.7026367,0-3.5219727-0.1259766-5.4072266-0.3740234
				l-0.1171875-0.015625l0.0087891-0.1171875l0.7177734-9.9306641l-0.2470703,0.2714844l-0.0917969-0.0732422l-2.6845703-2.1674805
				l0.0668945-0.0957031c1.5449219-2.2099609,2.7460938-2.5175781,3.0771484-2.559082l2.7885742-0.7788086l3.7939453,0.0048828
				l2.7436523,0.7719727c0.1821289,0.0097656,1.503418,0.1713867,2.8110352,2.7636719l0.0292969,0.0585938l-0.03125,0.0576172
				c-0.0273438,0.0507813-0.6953125,1.265625-2.1899414,1.8388672l-0.1137695,0.0429688l-0.1748047-0.4199219l1.1542969,10.0527344
				l-0.1074219,0.0253906C22.7177734,45.1386719,20.6899414,45.3554688,18.4643555,45.3554688z M13.206543,44.7490234
				c4.2246094,0.5449219,8.0654297,0.4619141,11.1181641-0.2539063l-1.3310547-11.5917969l0.7617188,1.828125
				c1.1572266-0.484375,1.7719727-1.3916016,1.9145508-1.6240234c-1.2890625-2.5166016-2.5644531-2.565918-2.5771484-2.565918
				l-0.0327148-0.0048828l-2.7412109-0.7714844h-3.7260742l-2.7563477,0.7729492
				c-0.2319336,0.0307617-1.3632813,0.2709961-2.8540039,2.3632813l2.4106445,1.9462891l0.5751953-0.6328125L13.206543,44.7490234z"
				/>
		</g>
	</g>
	<g>
		<g>
			<path style="fill:#050505;" d="M14.4888,4.10742c0,0-5.2388-0.9990199-8.3638,5.3935604
				C3,15.8936005,6.5703101,23.3778992,10.0352001,25.0107002L14.4888,4.10742z"/>
			<path style="fill:#604C3F;" d="M10.1245117,25.190918l-0.1425781-0.0668945
				c-1.7539063-0.8266602-3.434082-3.0219727-4.3852539-5.7290039c-0.6943359-1.9770508-1.5639648-5.8984375,0.4160156-9.9487305
				c2.4355469-4.9824219,6.1850586-5.5205078,7.684082-5.5205078c0.5009766,0,0.8027344,0.0566406,0.8154297,0.059082
				l0.1254883,0.0239258l-0.0268555,0.1245117L10.1245117,25.190918z M13.6967773,4.1757813
				c-1.4521484,0-5.0859375,0.5244141-7.4594727,5.3798828c-1.9399414,3.96875-1.0864258,7.8164063-0.4047852,9.7563477
				c0.8896484,2.5322266,2.4921875,4.6743164,4.1137695,5.5151367l4.3925781-20.6152344
				C14.2099609,4.1958008,13.987793,4.1757813,13.6967773,4.1757813z"/>
		</g>
		<g>
			<path style="fill:#471E02;" d="M27.5205002,19.0337009c0,0,2.0669003-3.086401,2.6068993,0.9013996
				c0.5405998,3.9877987-2.2777996,5.0361004-2.8163986,3.533699"/>
			<path style="fill:#604C3F;" d="M28.2060547,24.2485352c-0.4633789,0-0.8447266-0.2685547-1.0126953-0.737793l0.2353516-0.0839844
				c0.1611328,0.4487305,0.5571289,0.6572266,1.0322266,0.5395508c0.8120117-0.1982422,1.8930664-1.4306641,1.5424805-4.0146484
				c-0.1567383-1.1577148-0.4619141-1.8212891-0.8828125-1.9189453c-0.5581055-0.1289063-1.2680664,0.7294922-1.4960938,1.0703125
				l-0.2080078-0.1386719c0.0375977-0.0561523,0.9199219-1.3730469,1.7602539-1.175293
				c0.5463867,0.1264648,0.8974609,0.8232422,1.074707,2.1293945c0.3720703,2.7470703-0.831543,4.0712891-1.730957,4.2910156
				C28.4125977,24.2358398,28.3076172,24.2485352,28.2060547,24.2485352z"/>
		</g>
		<g>
			<path style="fill:#471E02;" d="M17.0004997,27.8817997c0.0361004,0.5151997-0.0756989,1.1021004-0.424799,1.7583008
				c3.1215992,3.3785,3.7601986,0.3218002,3.7601986,0.3218002s-0.0492992-0.875-0.0004997-2.0644016
				C20.3701,27.0435009,16.8754997,26.1103992,17.0004997,27.8817997z"/>
			<path style="fill:#604C3F;" d="M19.0483398,31.3549805L19.0483398,31.3549805
				c-0.7026367,0-1.5654297-0.5488281-2.5644531-1.6298828l-0.0600586-0.0654297l0.0415039-0.078125
				c0.3100586-0.5830078,0.4482422-1.1518555,0.4106445-1.690918c-0.0224609-0.3149414,0.0581055-0.5732422,0.2392578-0.7670898
				c0.2275391-0.2446289,0.6074219-0.3740234,1.0986328-0.3740234c0.7631836,0,1.6630859,0.3149414,2.0488281,0.7163086
				c0.137207,0.1430664,0.2036133,0.2895508,0.1977539,0.4365234c-0.0478516,1.1689453,0,2.0439453,0.0004883,2.0527344
				l0.0004883,0.0161133l-0.0029297,0.0161133C20.4555664,30.0009766,20.1601563,31.3549805,19.0483398,31.3549805z
				 M16.7270508,29.6196289c0.9238281,0.9853516,1.7045898,1.4853516,2.3212891,1.4853516
				c0.8544922,0,1.1293945-1.019043,1.1616211-1.1538086c-0.0063477-0.1318359-0.0439453-0.9697266,0.0004883-2.059082
				c0.0039063-0.0947266-0.0673828-0.1899414-0.1279297-0.2529297c-0.3388672-0.3525391-1.1767578-0.6396484-1.8686523-0.6396484
				c-0.2929688,0-0.6894531,0.0512695-0.9160156,0.2944336c-0.1318359,0.1411133-0.1899414,0.3359375-0.1728516,0.5791016
				C17.1645508,28.4345703,17.0307617,29.0219727,16.7270508,29.6196289z"/>
		</g>
		<g>
			<path style="fill:#471E02;" d="M30,14.8319998c0,0-0.5596008,2.0971994-0.75,4.4243002
				c-0.1942997,2.3775005,0.5419998,4.4981003-0.8213005,5.8614006c-1.6444988,1.6444988-4.6308002,3.4281998-9.3446999,3.4281998
				s-7.7089996-2.1152-9.8759899-4.3330002c-1.6249995-1.6625996-1.4145498-9.3809004-1.4145498-9.3809004
				S6.5415001,4.5463901,20,4.5463901C31,4.5463901,30,14.8319998,30,14.8319998z"/>
			<path style="fill:#604C3F;" d="M19.0839844,28.6708984c-5.1044922,0-8.1323242-2.4946289-9.965332-4.3706055
				c-1.6430664-1.6811523-1.4589844-9.1542969-1.4501953-9.4716797c-0.0039063-0.0200195-0.4355469-3.8525391,2.2080078-6.8369141
				C11.9746094,5.6225586,15.3803711,4.4213867,20,4.4213867c3.3994141,0,6.0092773,0.9765625,7.7563477,2.9018555
				c2.7675781,3.0493164,2.3725586,7.4765625,2.3681641,7.5209961c-0.0092773,0.0410156-0.5625,2.1337891-0.75,4.4223633
				c-0.0600586,0.7358398-0.0302734,1.4423828-0.0014648,2.125c0.0639648,1.5234375,0.1196289,2.8388672-0.855957,3.8144531
				C27.2231445,26.5,24.2768555,28.6708984,19.0839844,28.6708984z M20,4.6713867
				c-4.5449219,0-7.8876953,1.1728516-9.9365234,3.4858398c-2.5693359,2.9013672-2.1503906,6.6225586-2.1459961,6.659668
				c-0.0009766,0.0952148-0.1894531,7.7026367,1.3798828,9.3085938c1.8017578,1.84375,4.7763672,4.2954102,9.7866211,4.2954102
				c5.1030273,0,7.9897461-2.125,9.2563477-3.3916016c0.8979492-0.8979492,0.8447266-2.1625977,0.7827148-3.6269531
				c-0.0288086-0.6904297-0.059082-1.4047852,0.0024414-2.15625c0.1889648-2.3115234,0.7480469-4.425293,0.7539063-4.4462891
				c0.0004883-0.0229492,0.3833008-4.3442383-2.3095703-7.3100586C25.8720703,5.6196289,23.3251953,4.6713867,20,4.6713867z"/>
		</g>
		<g>
			<g>
				<ellipse style="fill:#05050F;" cx="16" cy="18.5463982" rx="1" ry="3"/>
				<circle style="fill:#F7F8F8;" cx="15.5205002" cy="17.0668983" r="0.4795"/>
			</g>
			<g>
				<ellipse style="fill:#05050F;" cx="26" cy="18.5463982" rx="1" ry="3"/>
				<circle style="fill:#F7F8F8;" cx="25.5205002" cy="17.0668983" r="0.4795"/>
			</g>
		</g>
		<g>
			<path style="fill:#471E02;" d="M9.4995098,19.0337009c0,0-2.6821299-3.086401-3.3832998,0.9013996
				s2.9565401,5.0361004,3.6552696,3.533699"/>
			<path style="fill:#604C3F;" d="M8.6015625,24.2475586c-0.2089844,0-0.4291992-0.0336914-0.6533203-0.1044922
				c-1.2729492-0.4003906-2.3710938-1.8632813-1.9550781-4.2294922c0.2143555-1.2211914,0.6416016-1.9282227,1.2685547-2.1025391
				c1.0664063-0.296875,2.2807617,1.081543,2.3320313,1.140625l-0.1884766,0.1640625
				c-0.0117188-0.0131836-1.1572266-1.3173828-2.0771484-1.0634766c-0.5258789,0.1459961-0.8920898,0.7871094-1.0888672,1.9042969
				c-0.3896484,2.2172852,0.6152344,3.5805664,1.7841797,3.9482422c0.7211914,0.2250977,1.3945313,0.0258789,1.6347656-0.4887695
				l0.2265625,0.1054688C9.668457,23.9863281,9.1811523,24.2475586,8.6015625,24.2475586z"/>
		</g>
		<g>
			<path style="fill:#050505;" d="M30.7831993,9.78125c-0.5258999-1.3706102-1.2987995-2.4531202-2.0902996-3.2402301
				c-0.5688992-2.35498-2.9013996-1.77247-2.9013996-1.77247s0-1.5-1.6665001-2.2914999c-1.4403992-0.6840801-3.375,0.5-3.375,0.5
				s-3.0356007-2.8286121-7.0732002,1.1538098C11.4629002,4.3530302,8.7246103,5.8530302,7.02637,10.4813995
				c-2.1435599,5.8432999,1.29492,12.5596008,2.7451096,12.9874001c0.84762,0.2495003,0.3594208-2.4589996,1.0010204-5.4780998
				c0.4393997,1.1567993,0.9764996,1.9361,1.3935003,2.0591011c0.5611,0.164999,1.1718998-1.2925014,1.8174-3.1675014
				c0.3687,0.2842007,0.7035999,0.4556007,0.9481993,0.4556007c0.4200001-0.0004997,2.0595999-2.3944998,2.7745008-3.1133003
				c0.3797989,2.1107998,1.1259003,3.7612,1.9188995,3.9678001c0.7686005,0.2012005,1.7646008-0.4610004,2.6991997-1.6968002
				c0.1201,0.1807003,0.2637005,0.3042011,0.4335995,0.3486004c0.7363014,0.1924,2.7901001-1.2588005,4.2393017-3.3261003
				c1.1317997,3.5215006,2.4476986,8.1313009,3.2411995,7.8270998C31.2313995,20.9647999,32.0273018,13.0263996,30.7831993,9.78125z
				"/>
			<path style="fill:#604C3F;" d="M9.8735352,23.6098633c-0.043457,0-0.0898438-0.0073242-0.137207-0.0209961
				c-0.5366211-0.1582031-1.2724609-1.0571289-1.9208984-2.3461914c-1.3618164-2.7060547-2.3149414-6.965332-0.90625-10.8041992
				c1.890625-5.1533203,4.9970703-6.2426758,6.7109375-6.4272461c1.4462891-1.4155273,2.9277344-2.1333008,4.4042969-2.1333008
				c1.4814453,0,2.4726563,0.7255859,2.7397461,0.9462891c0.2871094-0.1621094,1.2954102-0.6850586,2.3452148-0.6850586
				c0.3955078,0,0.7548828,0.0756836,1.0693359,0.2250977c1.425293,0.6767578,1.6816406,1.8408203,1.7275391,2.2548828
				c0.1152344-0.0185547,0.2915039-0.0395508,0.503418-0.0395508c0.71875,0,1.980957,0.2480469,2.3959961,1.8974609
				c0.8974609,0.8994141,1.6210938,2.0258789,2.0942383,3.2592773c0.5571289,1.4536133,0.7719727,4.0366211,0.574707,6.909668
				c-0.1420898,2.0654297-0.5395508,4.5664063-1.1914063,4.815918c-0.0390625,0.0151367-0.0800781,0.0224609-0.121582,0.0224609l0,0
				c-0.7280273-0.0004883-1.5512695-2.4438477-2.8203125-6.4682617c-0.1308594-0.4140625-0.2602539-0.824707-0.3876953-1.2231445
				c-1.3881836,1.8920898-3.2211914,3.1933594-4.050293,3.1933594c-0.0639648,0-0.1235352-0.0073242-0.1772461-0.0209961
				c-0.1479492-0.0390625-0.2827148-0.1274414-0.4023438-0.2641602c-0.9628906,1.2265625-1.9584961,1.8139648-2.7304688,1.6123047
				c-0.7851563-0.2045898-1.5463867-1.6943359-1.9643555-3.8232422c-0.2475586,0.277832-0.5649414,0.6806641-0.8974609,1.1020508
				c-1.0029297,1.2714844-1.5078125,1.8701172-1.7998047,1.8706055c-0.2353516,0-0.5327148-0.1274414-0.8857422-0.378418
				C13.3779297,19.0048828,12.840332,20.1875,12.2539063,20.1875c-0.0415039,0-0.0830078-0.0058594-0.1230469-0.0175781
				c-0.4155273-0.1225586-0.8959961-0.7636719-1.3168945-1.7431641c-0.2045898,1.125-0.2636719,2.1845703-0.3120117,3.0541992
				C10.4282227,22.8085938,10.3837891,23.6098633,9.8735352,23.6098633z M18.0244141,2.1279297
				c-1.4194336,0-2.8525391,0.7036133-4.2597656,2.0917969l-0.0317383,0.03125l-0.043457,0.0043945
				c-1.6464844,0.1650391-4.6855469,1.1992188-6.5458984,6.269043c-1.3808594,3.7641602-0.4428711,7.9467773,0.8950195,10.605957
				c0.609375,1.2104492,1.3032227,2.081543,1.7680664,2.2182617c0.0249023,0.0073242,0.0473633,0.0112305,0.0668945,0.0112305
				c0.2734375,0,0.3222656-0.8774414,0.3789063-1.8925781c0.0546875-0.9838867,0.1225586-2.2075195,0.3979492-3.5024414
				l0.0878906-0.4155273l0.1508789,0.3969727c0.5043945,1.3271484,1.0219727,1.8979492,1.3120117,1.9833984
				c0.5581055,0.1640625,1.362793-2.2138672,1.6640625-3.0878906l0.0566406-0.1645508l0.1376953,0.105957
				c0.359375,0.2773438,0.6689453,0.4296875,0.8720703,0.4296875c0.2143555-0.0146484,1.050293-1.0742188,1.6035156-1.7753906
				c0.4169922-0.5288086,0.8110352-1.0283203,1.0820313-1.3012695l0.1694336-0.1699219l0.0424805,0.2363281
				c0.3833008,2.1289063,1.1176758,3.684082,1.8276367,3.8686523c0.6914063,0.1816406,1.6533203-0.440918,2.5678711-1.6508789
				l0.105957-0.140625l0.0976563,0.1464844c0.1083984,0.1625977,0.2294922,0.2626953,0.3613281,0.296875
				c0.0332031,0.0087891,0.0712891,0.0131836,0.1137695,0.0131836c0.7954102,0,2.6713867-1.4072266,3.9912109-3.2900391
				l0.1445313-0.2060547l0.0771484,0.2397461c0.1518555,0.472168,0.3066406,0.9638672,0.4633789,1.4609375
				c0.8378906,2.6557617,1.9848633,6.293457,2.5820313,6.293457c0.0107422,0,0.0214844-0.0019531,0.0317383-0.0058594
				c0.3613281-0.1381836,0.8457031-1.8964844,1.0317383-4.5996094c0.1953125-2.8383789-0.0136719-5.3818359-0.5585938-6.8027344
				c-0.5878906-1.5317383-1.4458008-2.5834961-2.0620117-3.1962891l-0.0249023-0.0253906l-0.0083008-0.0341797
				c-0.3476563-1.4384766-1.3671875-1.7407227-2.1616211-1.7407227c-0.3408203,0-0.5854492,0.0595703-0.5878906,0.0600586
				l-0.1542969,0.0385742L25.6665039,4.769043c-0.0004883-0.0585938-0.0244141-1.4331055-1.5952148-2.1791992
				c-0.2802734-0.1333008-0.6040039-0.2006836-0.9619141-0.2006836c-1.1464844,0-2.2827148,0.6875-2.2939453,0.6943359
				L20.734375,3.1333008l-0.0693359-0.0644531C20.6547852,3.059082,19.6318359,2.1279297,18.0244141,2.1279297z"/>
		</g>
		<path style="fill:#992E2E;" d="M19.0839996,26.4501991c-1.4932003,0-2.8417988-0.5707989-3.2782993-1.1894989
			c-0.1582003-0.2259998-0.1045008-0.5375996,0.1210995-0.696701c0.2255001-0.1581993,0.5370998-0.1054993,0.6972008,0.1206017
			c0.3114986,0.4432983,2.8466988,1.6903992,4.7538986,0.4242992c0.2285004-0.1518993,0.4561005-0.1851006,0.6104012,0.0464001
			c0.1522999,0.2299995,0.0897999,0.3549995-0.1406002,0.5077991
			C20.9941006,26.2299995,20.0116997,26.4501991,19.0839996,26.4501991z"/>
		<ellipse style="fill:#281000;" cx="13.5527496" cy="23.0551987" rx="2.3740499" ry="1.5088"/>
		<ellipse style="fill:#281000;" cx="27.2602501" cy="23.0551987" rx="1.73975" ry="1.5088"/>
		
			<ellipse transform="matrix(0.9830607 0.1832803 -0.1832803 0.9830607 2.0194471 -3.5038607)" style="fill:#FFFFFF;" cx="19.9652996" cy="9.1730995" rx="1.4026601" ry="2.7912393"/>
		
			<ellipse transform="matrix(0.983069 0.1832358 -0.1832358 0.983069 2.1099467 -3.8329287)" style="fill:#FFFFFF;" cx="21.7959003" cy="9.5009804" rx="0.7594584" ry="1.5112187"/>
		
			<ellipse transform="matrix(0.983069 0.1832358 -0.1832358 0.983069 1.9228089 -2.8779492)" style="fill:#FFFFFF;" cx="16.5347004" cy="8.9658203" rx="0.7594584" ry="1.5112777"/>
	</g>
</g>
<g>
</g>
<g>
</g>
<g>
</g>
<g>
</g>
<g>
</g>
<g>
</g>
</svg>
