<?xml version="1.0" encoding="utf-8"?>
<!-- Generator: Adobe Illustrator 18.0.0, SVG Export Plug-In . SVG Version: 6.00 Build 0)  -->
<!DOCTYPE svg PUBLIC "-//W3C//DTD SVG 1.1//EN" "http://www.w3.org/Graphics/SVG/1.1/DTD/svg11.dtd">
<svg version="1.1" id="レイヤー_1" xmlns="http://www.w3.org/2000/svg" xmlns:xlink="http://www.w3.org/1999/xlink" x="0px"
	 y="0px" width="64px" height="64px" viewBox="0 0 64 64" style="enable-background:new 0 0 64 64;" xml:space="preserve">
<g>
	<g>
		<g>
			<path style="fill:#FFB997;" d="M13.7544003,59.1016006h3.5063l0.6977997-10.9160995l1.5767002-0.2919006l-0.2828007,11.2080002
				h3.323801l1.8851986-11.4160995v-3.0946999c-3.7894993,0.9120979-8.0648994,0.7040977-11.3881989,0.2665977l0.2182999,2.6612015
				L13.7544003,59.1016006z"/>
			<path style="fill:#604C3F;" d="M22.6821289,59.2265625h-3.5581055l0.003418-0.1279297L19.40625,48.0449219l-1.3291016,0.2460938
				l-0.6992188,10.9355469h-3.7436523l-0.4677734-11.703125l-0.2304688-2.8105469l0.1533203,0.0205078
				c4.3212891,0.5693359,8.2451172,0.4824219,11.3427734-0.2636719l0.1542969-0.0371094v3.2529297L22.6821289,59.2265625z
				 M19.3808594,58.9765625h3.0893555l1.8676758-11.3115234l-0.0014648-2.9160156
				c-3.065918,0.7099609-6.9052734,0.7939453-11.1259766,0.2519531l0.2055664,2.5078125l0.4584961,11.4677734h3.269043
				l0.6962891-10.8964844l1.8242188-0.3378906L19.3808594,58.9765625z"/>
		</g>
		<g>
			<g>
				<path style="fill:#05050F;" d="M19.1366997,57.4561005v6.2294006h3.1904011h3.1933994
					C27,60.0186005,24.7553997,59.6875,22.6005993,60.5653992l0.5107002-3.1092987H19.1366997z"/>
				<path style="fill:#604C3F;" d="M25.6049805,63.8105469h-6.5932617v-6.4794922h4.246582l-0.4990234,3.0380859
					c0.5932617-0.2197266,1.1572266-0.3359375,1.6420898-0.3359375c0.6660156,0,1.1674805,0.2216797,1.449707,0.6396484
					c0.4233398,0.6279297,0.3510742,1.6572266-0.2148438,3.0595703L25.6049805,63.8105469z M19.2617188,63.5605469h6.1738281
					c0.4975586-1.2626953,0.5698242-2.2119141,0.2084961-2.7470703c-0.2373047-0.3515625-0.6552734-0.5302734-1.2426758-0.5302734
					c-0.5087891,0-1.1152344,0.1376953-1.753418,0.3984375L22.440918,60.765625l0.5234375-3.1845703h-3.7026367V63.5605469z"/>
			</g>
			<g>
				<path style="fill:#05050F;" d="M13.5527,57.4561005l0.1973,6.2294006h3.875c0,0,1.5116997-1.9794006-0.1812-3.1366997
					l0.1973-3.092701H13.5527z"/>
				<path style="fill:#604C3F;" d="M17.6870117,63.8105469h-4.0581055l-0.2050781-6.4794922h4.3505859l-0.2011719,3.15625
					c0.4375,0.3164063,0.6977539,0.71875,0.7744141,1.1943359c0.1660156,1.0322266-0.5908203,2.0371094-0.6235352,2.0800781
					L17.6870117,63.8105469z M13.8710938,63.5605469h3.6894531c0.1435547-0.2070313,0.6704102-1.0351563,0.5400391-1.8398438
					c-0.0688477-0.4267578-0.3134766-0.7861328-0.7270508-1.0683594l-0.059082-0.0400391l0.1933594-3.03125h-3.8261719
					L13.8710938,63.5605469z"/>
			</g>
		</g>
		<g>
			<path style="fill:#FFB997;" d="M22.1226006,30.4853992c0,0,1.2943993,3.2832012,3.0902996,5.5332012
				c5.9603996,7.467701,5.2245998,11.8125,7.9120998,10.4375c2.1543007,0.3768997,3.0596008-3.0625,1.4101982-4.4629021
				c0,0-0.7011986-0.9745979-1.5351982-1.6406975c-3.1123009-2.1826019-6-4.9062004-7.9741001-7.9233017
				C25.0258999,32.4291992,24.0653992,29.9785004,22.1226006,30.4853992z"/>
			<path style="fill:#604C3F;" d="M32.265625,46.8339844c-0.9145508,0-1.3789063-0.9677734-2.2216797-2.7236328
				C29.1630859,42.2744141,27.8320313,39.5,25.1152344,36.0966797c-1.7871094-2.2392578-3.0961914-5.5327148-3.1088867-5.5654297
				l-0.0517578-0.1313477l0.1362305-0.0356445c0.1860352-0.0483398,0.371582-0.0727539,0.5522461-0.0727539
				c1.6601563,0,2.4658203,2.0068359,2.4990234,2.0922852c1.8237305,2.7822266,4.5698242,5.5097656,7.9291992,7.8662109
				c0.8447266,0.6738281,1.5361328,1.6298828,1.5654297,1.6699219c0.9638672,0.8144531,1.0302734,2.2373047,0.6738281,3.2050781
				c-0.3408203,0.9296875-1.0380859,1.484375-1.8632813,1.484375l0,0c-0.0986328,0-0.2001953-0.0078125-0.3027344-0.0234375
				C32.8105469,46.7529297,32.5224609,46.8339844,32.265625,46.8339844z M22.2939453,30.574707
				c0.2651367,0.640625,1.4584961,3.4135742,3.0166016,5.3657227c2.734375,3.4257813,4.0732422,6.2158203,4.9589844,8.0615234
				c0.7988281,1.6650391,1.2387695,2.5820313,1.9960938,2.5820313c0.2260742,0,0.4882813-0.078125,0.8027344-0.2392578
				l0.0371094-0.0185547l0.0410156,0.0068359c0.8476563,0.1484375,1.5849609-0.3535156,1.9296875-1.2939453
				c0.3271484-0.8896484,0.2714844-2.1923828-0.6220703-2.9501953c-0.0273438-0.0322266-0.7216797-0.9912109-1.5322266-1.6386719
				c-3.3793945-2.3691406-6.1479492-5.1210938-8.0004883-7.9526367c-0.0195313-0.0419922-0.7895508-1.9560547-2.2783203-1.9560547
				C22.5288086,30.5415039,22.4121094,30.5527344,22.2939453,30.574707z"/>
		</g>
		<g>
			<path style="fill:#832F99;" d="M24.4613991,44.5908012c0,0,0.8511009,3.6553001,0.5386009,7.3428001
				c0,0-5.8633003,0.9179993-12.6133003,0c0,0,0.1348-4.7998009,0.6865005-7.0762024
				C13.0732002,44.857399,19.0897999,45.7958984,24.4613991,44.5908012z"/>
			<path style="fill:#604C3F;" d="M18.6567383,52.4667969c-2.175293,0-4.2905273-0.1376953-6.2866211-0.4091797l-0.1113281-0.015625
				l0.0029297-0.1123047c0.0014648-0.0478516,0.1416016-4.8388672,0.6899414-7.1015625l0.0273438-0.1123047l0.1132813,0.0185547
				c0.0224609,0.0029297,2.2573242,0.3457031,5.1704102,0.3457031c0.0004883,0,0.0009766,0,0.0009766,0
				c2.2856445,0,4.3613281-0.2050781,6.1704102-0.6113281l0.1210938-0.0273438l0.027832,0.1210938
				c0.0087891,0.0371094,0.8520508,3.7167969,0.5415039,7.3818359l-0.0083008,0.0976563l-0.0966797,0.0146484
				C24.9931641,52.0615234,22.3608398,52.4667969,18.6567383,52.4667969z M12.5151367,51.8251953
				c1.9526367,0.2597656,4.0180664,0.3916016,6.1416016,0.3916016c3.2851563,0,5.7207031-0.3203125,6.2265625-0.3925781
				c0.2548828-3.2216797-0.3774414-6.4296875-0.5170898-7.0839844c-1.7978516,0.3916016-3.8500977,0.5898438-6.1025391,0.5898438
				c0,0-0.0004883,0-0.0009766,0c-2.5585938,0-4.5991211-0.2626953-5.0942383-0.3320313
				C12.6933594,47.078125,12.5395508,51.1015625,12.5151367,51.8251953z"/>
		</g>
		<g>
			<path style="fill:#FFB997;" d="M13.6426001,30.8901005c0,0-2.2006998-0.405201-3.8511,6.2525005
				c-1.6508703,6.6562004-1.7460899,11.0937004-0.4453096,11.5555992c1.2998095,0.461998,2.8340092,2.6875,3.8413095-0.5810013
				c0,0,1.7323999-0.9169998,0.2006998-2.2383003c-2.8520994-1.1815987-2.1508999-10.0673981-0.5292997-11.5995979
				C12.8589001,34.2793007,15.3149004,32.0014992,13.6426001,30.8901005z"/>
			<path style="fill:#604C3F;" d="M11.7480469,49.9921875L11.7480469,49.9921875
				c-0.5019531,0-1.0151367-0.3339844-1.5112305-0.6572266c-0.3276367-0.2128906-0.6367188-0.4140625-0.9326172-0.5185547
				C7.8881836,48.3134766,8.0317383,43.71875,9.6704102,37.1123047c1.4609375-5.894043,3.3530273-6.3520508,3.8979492-6.3520508
				c0.0629883,0,0.0966797,0.0068359,0.0966797,0.0068359l0.046875,0.019043
				c0.3876953,0.2578125,0.6010742,0.5961914,0.6342773,1.0068359c0.0952148,1.1748047-1.3413086,2.5214844-1.4023438,2.578125
				c-1.0136719,0.9580078-1.7626953,5.2353516-1.1674805,8.4648438c0.2036133,1.1064453,0.6567383,2.5117188,1.659668,2.9277344
				l0.0336914,0.0205078c0.4931641,0.4257813,0.7182617,0.8623047,0.6694336,1.296875
				c-0.0698242,0.6181641-0.6723633,1.0166016-0.847168,1.1201172
				C12.9077148,49.4228516,12.4165039,49.9921875,11.7480469,49.9921875z M13.5683594,31.0102539
				c-0.3554688,0-2.2016602,0.2973633-3.6557617,6.1625977C8.097168,44.4941406,8.3681641,48.2177734,9.3881836,48.5800781
				c0.3232422,0.1152344,0.659668,0.3339844,0.9848633,0.5458984c0.4658203,0.3027344,0.9472656,0.6162109,1.375,0.6162109
				c0.543457,0,0.9755859-0.5439453,1.3198242-1.6621094l0.0151367-0.0488281l0.0458984-0.0244141
				c0.0068359-0.0039063,0.6972656-0.3779297,0.7617188-0.9541016c0.0385742-0.3447266-0.152832-0.703125-0.5693359-1.0664063
				c-0.8657227-0.3701172-1.4848633-1.4433594-1.7910156-3.1044922c-0.5620117-3.0527344,0.0883789-7.6025391,1.2426758-8.6933594
				c0.0151367-0.0136719,1.409668-1.3217773,1.3242188-2.3759766c-0.0263672-0.3256836-0.1899414-0.5883789-0.4990234-0.8012695
				C13.590332,31.0107422,13.5800781,31.0102539,13.5683594,31.0102539z"/>
		</g>
		<g>
			<g>
				<path style="fill:#832F99;" d="M24.2621994,42.8554993l-1.0433998-9.0868988l0.4687004,1.125
					c1.4687996-0.5625,2.125-1.7812996,2.125-1.7812996c-1.3593998-2.6958008-2.7187004-2.6958008-2.7187004-2.6958008
					l-2.7579002-0.7763996h-3.7601986L13.8027,30.4179993c-0.2719002,0.0341015-1.4584999,0.3154011-2.9902,2.5068016
					l2.5937996,2.0937996L13.8174,34.5663986l-0.5986004,8.2812996
					C18.2021008,43.6650009,22.5361004,43.1405983,24.2621994,42.8554993z"/>
				<path style="fill:#604C3F;" d="M18.7348633,43.4111328c-1.8950195,0-3.7578125-0.1484375-5.5361328-0.4404297
					l-0.112793-0.0185547l0.5805664-8.0341797l-0.2470703,0.2714844l-0.0917969-0.0732422l-2.6845703-2.1674805l0.0668945-0.0957031
					c1.5449219-2.2099609,2.7460938-2.5175781,3.0771484-2.559082l2.7885742-0.7788086l3.7939453,0.0048828l2.7436523,0.7719727
					c0.1821289,0.0097656,1.503418,0.1713867,2.8110352,2.7636719l0.0292969,0.0585938l-0.03125,0.0576172
					c-0.0273438,0.0507813-0.6953125,1.265625-2.1899414,1.8388672l-0.1137695,0.0429688l-0.1748047-0.4199219l0.9560547,8.3251953
					l-0.1171875,0.0195313C23.3061523,43.1396484,21.2871094,43.4111328,18.7348633,43.4111328z M13.3515625,42.7421875
					c1.7314453,0.2783203,3.5415039,0.4189453,5.3833008,0.4189453c2.4360352,0,4.3818359-0.2480469,5.3896484-0.4101563
					l-1.1308594-9.8481445l0.7617188,1.8286133c1.1572266-0.484375,1.7719727-1.3916016,1.9145508-1.6240234
					c-1.2890625-2.5166016-2.5644531-2.565918-2.5771484-2.565918l-0.0327148-0.0048828l-2.7412109-0.7714844h-3.7260742
					l-2.7563477,0.7729492c-0.2319336,0.0307617-1.3632813,0.2709961-2.8540039,2.3632813l2.4106445,1.9462891l0.5751953-0.6328125
					L13.3515625,42.7421875z"/>
			</g>
			<g>
				<path style="fill:#FFFFFF;" d="M24.4613991,44.5908012l-0.1991997-1.735302
					c-1.726099,0.285099-6.0600986,0.8095016-11.0433998-0.0078011l-0.1455994,2.0097008
					C16.3964996,45.294899,20.6718998,45.5028992,24.4613991,44.5908012z"/>
				<path style="fill:#604C3F;" d="M18.4648438,45.3554688c-0.0004883,0-0.0004883,0-0.0004883,0
					c-1.7026367,0-3.5219727-0.1259766-5.4072266-0.3740234l-0.1171875-0.015625l0.1640625-2.2636719l0.1347656,0.0224609
					c1.765625,0.2890625,3.6147461,0.4365234,5.4960938,0.4365234c2.5351563-0.0009766,4.5385742-0.2685547,5.5068359-0.4287109
					l0.1298828-0.0214844l0.2265625,1.9755859l-0.1074219,0.0253906
					C22.7177734,45.1386719,20.6904297,45.3554688,18.4648438,45.3554688z M13.206543,44.7490234
					c1.8330078,0.2363281,3.6010742,0.3564453,5.2578125,0.3564453h0.0004883c2.1606445,0,4.1313477-0.2050781,5.8598633-0.6103516
					L24.152832,43c-1.0185547,0.1621094-2.9731445,0.4101563-5.4179688,0.4111328
					c-1.847168,0-3.6635742-0.140625-5.4013672-0.4179688L13.206543,44.7490234z"/>
			</g>
		</g>
	</g>
	<g>
		<path style="fill:#231815;" d="M6.0898399,24.1229992L8.5,25.7534008l0.07129-1.2221012l0.8813496,1.2221012l3.4433603,0.4736996
			l-2.6669998-16.1875l-3.3330002,1.25C6.8959999,11.2896004,4.75635,18.2744007,6.0898399,24.1229992z"/>
		<path style="fill:#604C3F;" d="M13.046875,26.3740234l-3.6645508-0.5039063l-0.706543-0.9804688l-0.0639648,1.090332
			l-2.6328125-1.78125l-0.0112305-0.0478516c-1.3251953-5.8139648,0.7871094-12.8276367,0.8085938-12.8979492l0.0180664-0.0585938
			l0.0576172-0.0219727l3.4755859-1.3032227l0.0249023,0.1499023L13.046875,26.3740234z M9.5229492,25.6367188l3.222168,0.4433594
			l-2.6147461-15.8701172l-3.1323242,1.1748047c-0.199707,0.6855469-2.0219727,7.2055664-0.7973633,12.6625977l2.1875,1.4794922
			l0.0786133-1.3540039L9.5229492,25.6367188z"/>
	</g>
	<g>
		<g>
			<path style="fill:#FFB997;" d="M17.0004997,27.8817997c0.0361004,0.5151997-0.0756989,1.1021004-0.424799,1.7583008
				c3.1215992,3.3785,3.7601986,0.3218002,3.7601986,0.3218002s-0.0492992-0.875-0.0004997-2.0644016
				C20.3701,27.0435009,16.8754997,26.1103992,17.0004997,27.8817997z"/>
			<path style="fill:#604C3F;" d="M19.0483398,31.3549805L19.0483398,31.3549805
				c-0.7026367,0-1.5654297-0.5488281-2.5644531-1.6298828l-0.0600586-0.0654297l0.0415039-0.078125
				c0.3100586-0.5830078,0.4482422-1.1518555,0.4106445-1.690918c-0.0224609-0.3149414,0.0581055-0.5732422,0.2392578-0.7670898
				c0.2275391-0.2446289,0.6074219-0.3740234,1.0986328-0.3740234c0.7631836,0,1.6630859,0.3149414,2.0488281,0.7163086
				c0.137207,0.1430664,0.2036133,0.2895508,0.1977539,0.4365234c-0.0478516,1.1689453,0,2.0439453,0.0004883,2.0527344
				l0.0004883,0.0161133l-0.0029297,0.0161133C20.4555664,30.0009766,20.1601563,31.3549805,19.0483398,31.3549805z
				 M16.7270508,29.6196289c0.9238281,0.9853516,1.7045898,1.4853516,2.3212891,1.4853516
				c0.8544922,0,1.1293945-1.019043,1.1616211-1.1538086c-0.0063477-0.1318359-0.0439453-0.9697266,0.0004883-2.059082
				c0.0039063-0.0947266-0.0673828-0.1899414-0.1279297-0.2529297c-0.3388672-0.3525391-1.1767578-0.6396484-1.8686523-0.6396484
				c-0.2929688,0-0.6894531,0.0512695-0.9160156,0.2944336c-0.1318359,0.1411133-0.1899414,0.3359375-0.1728516,0.5791016
				C17.1645508,28.4345703,17.0307617,29.0219727,16.7270508,29.6196289z"/>
		</g>
		<g>
			<path style="fill:#FFB997;" d="M30,14.8319998c0,0-0.5596008,2.0971994-0.75,4.4243002
				c-0.1942997,2.3775005,0.5419998,4.4981003-0.8213005,5.8614006c-1.6444988,1.6444988-4.6308002,3.4281998-9.3446999,3.4281998
				s-7.7089996-2.1152-9.8759899-4.3330002c-1.6249995-1.6625996-1.4145498-9.3809004-1.4145498-9.3809004
				S6.5415001,4.5463901,20,4.5463901C31,4.5463901,30,14.8319998,30,14.8319998z"/>
			<path style="fill:#604C3F;" d="M19.0839844,28.6708984c-5.1044922,0-8.1323242-2.4946289-9.965332-4.3706055
				c-1.6430664-1.6811523-1.4589844-9.1542969-1.4501953-9.4716797c-0.0039063-0.0200195-0.4355469-3.8525391,2.2080078-6.8369141
				C11.9746094,5.6225586,15.3803711,4.4213867,20,4.4213867c3.3994141,0,6.0092773,0.9765625,7.7563477,2.9018555
				c2.7675781,3.0493164,2.3725586,7.4765625,2.3681641,7.5209961c-0.0092773,0.0410156-0.5625,2.1337891-0.75,4.4223633
				c-0.0600586,0.7358398-0.0302734,1.4423828-0.0014648,2.125c0.0639648,1.5234375,0.1196289,2.8388672-0.855957,3.8144531
				C27.2231445,26.5,24.2768555,28.6708984,19.0839844,28.6708984z M20,4.6713867
				c-4.5449219,0-7.8876953,1.1728516-9.9365234,3.4858398c-2.5693359,2.9013672-2.1503906,6.6225586-2.1459961,6.659668
				c-0.0009766,0.0952148-0.1894531,7.7026367,1.3798828,9.3085938c1.8017578,1.84375,4.7763672,4.2954102,9.7866211,4.2954102
				c5.1030273,0,7.9897461-2.125,9.2563477-3.3916016c0.8979492-0.8979492,0.8447266-2.1625977,0.7827148-3.6269531
				c-0.0288086-0.6904297-0.059082-1.4047852,0.0024414-2.15625c0.1889648-2.3115234,0.7480469-4.425293,0.7539063-4.4462891
				c0.0004883-0.0229492,0.3833008-4.3442383-2.3095703-7.3100586C25.8720703,5.6196289,23.3251953,4.6713867,20,4.6713867z"/>
		</g>
		<g>
			<g>
				<ellipse style="fill:#050505;" cx="16" cy="18.5463982" rx="1" ry="3"/>
				<circle style="fill:#F7F8F8;" cx="15.5205002" cy="17.0668983" r="0.4795"/>
			</g>
			<g>
				<ellipse style="fill:#050505;" cx="26" cy="18.5463982" rx="1" ry="3"/>
				<circle style="fill:#F7F8F8;" cx="25.5205002" cy="17.0668983" r="0.4795"/>
			</g>
		</g>
		<g>
			<path style="fill:#FFB997;" d="M9.4995098,19.0337009c0,0-2.6821299-3.086401-3.3832998,0.9013996
				s2.9565401,5.0361004,3.6552696,3.533699"/>
			<path style="fill:#604C3F;" d="M8.6015625,24.2475586c-0.2089844,0-0.4291992-0.0336914-0.6533203-0.1044922
				c-1.2729492-0.4003906-2.3710938-1.8632813-1.9550781-4.2294922c0.2143555-1.2211914,0.6416016-1.9282227,1.2685547-2.1025391
				c1.0664063-0.296875,2.2807617,1.081543,2.3320313,1.140625l-0.1884766,0.1640625
				c-0.0117188-0.0131836-1.1572266-1.3173828-2.0771484-1.0634766c-0.5258789,0.1459961-0.8920898,0.7871094-1.0888672,1.9042969
				c-0.3896484,2.2172852,0.6152344,3.5805664,1.7841797,3.9482422c0.7211914,0.2250977,1.3945313,0.0258789,1.6347656-0.4887695
				l0.2265625,0.1054688C9.668457,23.9863281,9.1811523,24.2475586,8.6015625,24.2475586z"/>
		</g>
		<path style="fill:#050505;" d="M19.0839996,26.4501991c-1.4932003,0-2.8417988-0.5707989-3.2782993-1.1894989
			c-0.1582003-0.2259998-0.1045008-0.5375996,0.1210995-0.696701c0.2255001-0.1581993,0.5370998-0.1054993,0.6972008,0.1206017
			c0.3114986,0.4432983,2.8466988,1.6903992,4.7538986,0.4242992c0.2285004-0.1518993,0.4561005-0.1851006,0.6104012,0.0464001
			c0.1522999,0.2299995,0.0897999,0.3549995-0.1406002,0.5077991
			C20.9941006,26.2299995,20.0116997,26.4501991,19.0839996,26.4501991z"/>
		<ellipse style="fill:#E79774;" cx="13.5527496" cy="23.0551987" rx="2.3740499" ry="1.5088"/>
		<ellipse style="fill:#E79774;" cx="27.2602501" cy="23.0551987" rx="1.73975" ry="1.5088"/>
	</g>
	<g>
		<path style="fill:#050505;" d="M28.7534008,7.3105502C26.0806007,3.03564,21.1665001,3.43506,21.1665001,3.43506
			S13.5527,1.26855,9.4375,4.8935499C1.81543,11.6078997,5.9648399,24.1229992,5.9648399,24.1229992L7.0625,17.8945007
			c0,0-0.0717802-0.0321999,0.1508799-2.108901c1.0678701,7.2696009,2.3105497,9.3843012,2.3105497,9.3843012
			s1.1659708,0.3334999,2.5766706,0.5834999c0,0-1.2881002-9.1655006,0.2484999-13.3105011
			c-0.5156002,4.1450005-0.3262005,5.5760994-0.3262005,5.5760994c0.9459,0.6558018,2.2027006,0.7290001,2.2027006,0.7290001
			c0.1230001-2.5833988,0.6430998-4.8436995,1.3436995-6.785099C15.3486004,14.1611004,15.3125,15.9771004,15.3125,15.9771004
			c1.7724991,0.8563995,3.4116001,1.0340996,4.6450005,0.9891987l0.9350986-1.0932989l-0.1469994,1.0323
			c0.8833008-0.1074009,1.4209003-0.3031998,1.4209003-0.3031998c0.674799-1.5328007,1.3251991-4.1445999,1.3251991-4.1445999
			c-0.0853996,2.1973-0.3393993,3.7314987-0.4916992,4.2245998c1.5067997-0.0571003,3-0.8716002,3-0.8716002
			c0.25-1.2918997-0.1846008-5.1562004-0.1846008-5.1562004c0.9346008,2.4893007,0.8511009,5.2807999,0.8511009,5.2807999
			c0.3022995-0.1069994,0.5580997-0.2568998,0.7924995-0.4179993c0.1518002,1.3837996,0.1909008,2.3774004,0.1909008,2.3774004
			c0.3584003-0.0384998,0.6786995-0.1845016,0.9575005-0.3607998c0.1318989,3.5809994,0.0390987,8.0683994,0.0390987,8.0683994
			c1.0732002-0.25,2.7222004-1.5834999,2.7222004-1.5834999C30.75,16.5459003,31.1714001,11.1781998,28.7534008,7.3105502z"/>
		<path style="fill:#604C3F;" d="M12.2485352,25.9067383l-0.1699219-0.0302734
			c-1.4008789-0.2480469-2.5771484-0.5830078-2.5888672-0.5864258l-0.0483398-0.0136719l-0.0253906-0.0429688
			c-0.0488281-0.0834961-1.1557617-2.0234375-2.1767578-8.449707c-0.0605469,0.6777344-0.0654297,0.9326172-0.0625,1.0253906
			l0.0258789,0.0112305l-1.2006836,6.8120117l-0.1557617-0.4697266c-0.0415039-0.1259766-4.0874023-12.6713867,3.5087891-19.362793
			c1.605957-1.4145508,3.9052734-2.1318359,6.8334961-2.1318359c2.5664063,0,4.7514648,0.5756836,4.9907227,0.6411133
			c0.0454102-0.0029297,0.1577148-0.0087891,0.324707-0.0087891c1.1469727,0,5.0673828,0.2841797,7.3554688,3.9438477
			c1.8515625,2.9614258,2.0551758,6.8242188,2.3134766,11.7148438c0.0839844,1.5961914,0.1713867,3.2470703,0.3203125,5.0493164
			l0.0053711,0.065918l-0.0512695,0.0415039c-0.0683594,0.0551758-1.6835938,1.3544922-2.7724609,1.6079102l-0.1567383,0.0366211
			l0.003418-0.1606445c0.0009766-0.0439453,0.0878906-4.3505859-0.0317383-7.8520508
			c-0.2807617,0.152832-0.5527344,0.2416992-0.8266602,0.2714844l-0.1328125,0.0141602l-0.0053711-0.1337891
			c-0.0004883-0.0092773-0.0366211-0.9077148-0.168457-2.1655273c-0.2231445,0.1401367-0.4331055,0.2426758-0.6484375,0.3188477
			l-0.171875,0.0610352l0.0053711-0.1826172c0.0009766-0.0234375,0.0512695-2.0019531-0.4838867-4.0839844
			c0.1083984,1.2524414,0.2290039,3.1411133,0.0649414,3.9873047l-0.0112305,0.0576172l-0.0512695,0.0283203
			c-0.0620117,0.0336914-1.5366211,0.8291016-3.0551758,0.8867188l-0.1762695,0.0068359l0.0517578-0.1689453
			c0.1201172-0.3881836,0.3076172-1.4487305,0.4204102-2.9985352c-0.2548828,0.8969727-0.6347656,2.1308594-1.0200195,3.0058594
			l-0.0214844,0.0488281l-0.0498047,0.0185547c-0.0224609,0.0078125-0.5615234,0.2016602-1.4487305,0.3095703l-0.1621094,0.0195313
			l0.109375-0.7680664l-0.690918,0.8085938l-0.0551758,0.0019531c-0.1152344,0.0039063-0.2333984,0.0063477-0.3554688,0.0063477
			c-1.5009766,0-2.9638672-0.3393555-4.3481445-1.0078125l-0.0722656-0.0351563L15.1875,15.9746094
			c0.0004883-0.0151367,0.0268555-1.2807617,0.1616211-2.9589844c-0.5698242,1.8461914-0.9047852,3.7719727-0.9985352,5.7382813
			l-0.0063477,0.1264648l-0.1259766-0.0073242c-0.0527344-0.003418-1.3027344-0.0830078-2.2666016-0.7514648l-0.0454102-0.03125
			l-0.0073242-0.0546875c-0.0063477-0.050293-0.1342773-1.0805664,0.1337891-3.8759766
			c-0.7890625,4.4638672,0.1801758,11.4960938,0.1918945,11.5761719L12.2485352,25.9067383z M9.6088867,25.0639648
			c0.2270508,0.0625,1.1933594,0.3237305,2.3447266,0.5356445c-0.1738281-1.3120117-1.1542969-9.3354492,0.2783203-13.2001953
			l0.3740234-1.0092773l-0.1328125,1.0683594c-0.4526367,3.6401367-0.3583984,5.1923828-0.331543,5.4897461
			c0.7280273,0.484375,1.637207,0.6259766,1.9658203,0.6630859c0.1225586-2.3071289,0.5742188-4.5576172,1.3442383-6.690918
			l0.3427734-0.949707l-0.1005859,1.0048828c-0.1918945,1.9101563-0.2446289,3.5488281-0.2543945,3.9238281
			c1.3286133,0.6293945,2.7299805,0.9482422,4.1669922,0.9482422c0.0996094,0,0.1967773-0.0014648,0.2919922-0.0043945
			l1.1787109-1.3779297l-0.1845703,1.2944336c0.6191406-0.0869141,1.0424805-0.2133789,1.1816406-0.2583008
			c0.6547852-1.512207,1.2895508-4.0483398,1.2963867-4.0742188l0.2929688-1.1777344l-0.046875,1.2128906
			c-0.078125,2.0078125-0.2963867,3.4594727-0.4506836,4.0849609c1.2460938-0.0942383,2.4584961-0.6845703,2.7216797-0.8193359
			c0.2202148-1.3144531-0.1923828-5.0219727-0.1962891-5.0595703l-0.112793-1l0.3540039,0.9418945
			c0.793457,2.1142578,0.8588867,4.4697266,0.8603516,5.1411133c0.1918945-0.0825195,0.3813477-0.1904297,0.5952148-0.3374023
			l0.1723633-0.1181641l0.0224609,0.2075195c0.1181641,1.0761719,0.1689453,1.9257813,0.1850586,2.2470703
			c0.2514648-0.0473633,0.5053711-0.1533203,0.7724609-0.3222656l0.1835938-0.1162109l0.0083008,0.2172852
			c0.1162109,3.1557617,0.0571289,7.0595703,0.0419922,7.9082031c0.9233398-0.2890625,2.1943359-1.2631836,2.4643555-1.4750977
			c-0.1464844-1.7802734-0.2324219-3.4121094-0.315918-4.9902344c-0.2558594-4.8544922-0.4584961-8.6889648-2.2753906-11.5952148
			c-2.2202148-3.5507813-6.0288086-3.8266602-7.1435547-3.8266602c-0.206543,0-0.3242188,0.0092773-0.3271484,0.0092773
			l-0.0224609,0.0019531l-0.0219727-0.0063477c-0.0224609-0.0063477-2.2734375-0.637207-4.9438477-0.637207
			c-2.8657227,0-5.109375,0.6962891-6.668457,2.0693359c-6.6069336,5.8203125-4.2485352,16.1821289-3.5854492,18.5888672
			L6.9375,17.8842773c-0.0268555-0.1870117-0.0014648-0.6865234,0.1513672-2.1118164l0.1049805-0.9785156l0.1430664,0.9736328
			C8.3071289,22.3725586,9.434082,24.7285156,9.6088867,25.0639648z"/>
	</g>
	
		<ellipse transform="matrix(0.9902308 0.1394381 -0.1394381 0.9902308 1.2847877 -2.4620864)" style="fill:#FFFFFF;" cx="18.2133503" cy="7.9379883" rx="1.138068" ry="2.6869004"/>
	
		<ellipse transform="matrix(0.9902021 0.1396416 -0.1396416 0.9902021 1.3158568 -2.2260492)" style="fill:#FFFFFF;" cx="16.5209999" cy="8.263916" rx="0.7115719" ry="1.6802452"/>
	
		<ellipse transform="matrix(0.9566565 0.2912189 -0.2912189 0.9566565 3.0992694 -3.5173769)" style="fill:#FFFFFF;" cx="13.3660002" cy="8.6530762" rx="0.7117498" ry="1.6799682"/>
</g>
<g>
</g>
<g>
</g>
<g>
</g>
<g>
</g>
<g>
</g>
<g>
</g>
</svg>
