<?xml version="1.0" encoding="utf-8"?>
<!-- Generator: Adobe Illustrator 18.0.0, SVG Export Plug-In . SVG Version: 6.00 Build 0)  -->
<!DOCTYPE svg PUBLIC "-//W3C//DTD SVG 1.1//EN" "http://www.w3.org/Graphics/SVG/1.1/DTD/svg11.dtd">
<svg version="1.1" id="レイヤー_1" xmlns="http://www.w3.org/2000/svg" xmlns:xlink="http://www.w3.org/1999/xlink" x="0px"
	 y="0px" width="64px" height="64px" viewBox="0 0 64 64" style="enable-background:new 0 0 64 64;" xml:space="preserve">
<path style="fill:#72402D;" d="M42.9168091,26.4080811c0.2922974-0.1722412,0.6536255-0.2957153,0.6536255-0.2957153
	c-0.053894-0.0559082-0.802063-0.0713501-0.9936523-0.0093994c-0.0967407,0.031311-0.2000732,0.0707397-0.3096924,0.1157837
	c0.6298218-0.4214478,0.8110352-0.703125,0.8110352-0.703125l-1.1184692,0.3325806C39.4375,27.5,35.09375,25.75,35.09375,25.75
	c0.3219604,0.3118286,0.7250977,0.5706177,1.1641846,0.788208c-0.5915527-0.2191772-1.0258179-0.3867188-1.3411865-0.2443848
	c0.802002-0.0147095,1.583252,1.4801025,4.1055298,1.4801025c1.2301025,0,2.3574219-0.4273682,3.1697388-0.8999023
	l1.0019531-0.1914673L42.9168091,26.4080811z"/>
<path style="fill:#72402D;" d="M21.0831909,26.4080811c-0.2922974-0.1722412-0.6536255-0.2957153-0.6536255-0.2957153
	c0.053894-0.0559082,0.802063-0.0713501,0.9936523-0.0093994c0.0967407,0.031311,0.2000732,0.0707397,0.3096924,0.1157837
	c-0.6298218-0.4214478-0.8110352-0.703125-0.8110352-0.703125l1.1184692,0.3325806C24.5625,27.5,28.90625,25.75,28.90625,25.75
	c-0.3219604,0.3118286-0.7250977,0.5706177-1.1641846,0.788208c0.5915527-0.2191772,1.0258179-0.3867188,1.3411865-0.2443848
	C28.28125,26.2791138,27.5,27.7739258,24.9777222,27.7739258c-1.2301025,0-2.3574219-0.4273682-3.1697388-0.8999023
	l-1.0019531-0.1914673L21.0831909,26.4080811z"/>
</svg>
